<svg version="1.1" xmlns="http://www.w3.org/2000/svg" xmlns:xlink="http://www.w3.org/1999/xlink" width="260.12711" height="26.89441" viewBox="0,0,260.12711,26.89441"><g transform="translate(-109.93644,-166.5528)"><g data-paper-data="{&quot;isPaintingLayer&quot;:true}" fill="#060606" fill-rule="nonzero" stroke="none" stroke-width="1" stroke-linecap="butt" stroke-linejoin="miter" stroke-miterlimit="10" stroke-dasharray="" stroke-dashoffset="0" style="mix-blend-mode: normal"><path d="M114.7608,188.17923c-1.12753,0 -1.96856,-0.14792 -2.52308,-0.44362c-0.55452,-0.2957 -1.01662,-0.83179 -1.38631,-1.60812c-0.25878,-0.59154 -0.48059,-1.55267 -0.66543,-2.88352c-0.16636,-1.3493 -0.24954,-3.09605 -0.24954,-5.24025c0,-1.49721 0.02773,-2.92973 0.08318,-4.29756c0.07394,-1.36783 0.1756,-2.42143 0.30499,-3.16079c0.14787,-0.94269 0.38817,-1.61737 0.72088,-2.02401c0.35119,-0.40665 0.78558,-0.60998 1.30313,-0.60998c0.4621,0 0.82254,0.20333 1.08132,0.60998c0.27726,0.40665 0.47135,0.96117 0.58225,1.66357c0.1109,0.68391 0.16636,1.44176 0.16636,2.27355c0,2.25507 -0.08318,4.53785 -0.24954,6.84837c-0.14788,2.31056 -0.36044,4.43619 -0.6377,6.37702l-0.36044,-0.49907c0.83179,-0.57296 1.71902,-1.06288 2.66171,-1.46949c0.96117,-0.4066 1.89463,-0.72088 2.80035,-0.94269c0.92421,-0.22181 1.72827,-0.33271 2.41218,-0.33271c0.68391,0 1.18298,0.13863 1.49721,0.41589c0.33271,0.27726 0.49907,0.67472 0.49907,1.19223c0,0.51751 -0.23106,1.04431 -0.69315,1.58039c-0.44362,0.51751 -1.08132,0.97042 -1.91311,1.35858c-0.4621,0.22181 -1.00739,0.42518 -1.63585,0.60998c-0.62846,0.16636 -1.2754,0.30499 -1.94083,0.41589c-0.64695,0.1109 -1.26616,0.16636 -1.85765,0.16636zM137.5728,187.84651c-0.49907,0 -0.88724,-0.16636 -1.1645,-0.49907c-0.25882,-0.35115 -0.43447,-0.79477 -0.5268,-1.33086c-0.09247,-0.55452 -0.13863,-1.13677 -0.13863,-1.74675l0.13863,-0.1109c-0.18493,0.79477 -0.54537,1.47878 -1.08132,2.05174c-0.53609,0.57296 -1.15535,1.01658 -1.85765,1.33086c-0.70244,0.2957 -1.40489,0.44362 -2.10719,0.44362c-0.94269,0 -1.8022,-0.22181 -2.57854,-0.66543c-0.77633,-0.44362 -1.37716,-1.12749 -1.8022,-2.05174c-0.42518,-0.9797 -0.7579,-2.20881 -0.99814,-3.68758c-0.24039,-1.49721 -0.36044,-3.0314 -0.36044,-4.60255c0,-0.85027 0.03688,-1.63585 0.1109,-2.35673c0.07389,-0.72088 0.19408,-1.31238 0.36044,-1.77448c0.14778,-0.48059 0.36959,-0.83179 0.66543,-1.0536c0.2957,-0.24029 0.67458,-0.36044 1.13677,-0.36044c0.53595,0 0.95184,0.21256 1.24768,0.6377c0.31414,0.40665 0.50822,0.97966 0.58225,1.71902c0.07389,0.60998 0.12005,1.36783 0.13863,2.27355c0.03688,0.88724 0.0646,1.78372 0.08318,2.68944c0.03688,0.88724 0.08318,1.63585 0.13863,2.24582c0.1109,1.10905 0.39732,1.93155 0.85951,2.46763c0.46206,0.51751 1.02587,0.77633 1.6913,0.77633c0.97957,0 1.72817,-0.36973 2.24582,-1.10905c0.51751,-0.73932 0.77633,-1.77448 0.77633,-3.10533c0,-0.66543 -0.03701,-1.41404 -0.1109,-2.24582c-0.07403,-0.85027 -0.15721,-1.67282 -0.24954,-2.46763c-0.07403,-0.79481 -0.1109,-1.45101 -0.1109,-1.96856c0,-0.86876 0.14778,-1.48797 0.44362,-1.85765c0.2957,-0.38817 0.7023,-0.58225 1.21995,-0.58225c0.44362,0 0.81321,0.12015 1.10905,0.36044c0.31414,0.24029 0.56367,0.573 0.74861,0.99814c0.25869,0.55452 0.48049,1.31238 0.66543,2.27355c0.1848,0.96117 0.33271,2.05174 0.44362,3.27169c0.1109,1.21995 0.16636,2.50465 0.16636,3.85394c0,2.07018 -0.13863,3.62284 -0.41589,4.658c-0.27726,1.01658 -0.76718,1.52494 -1.46949,1.52494zM154.94728,188.29013c-0.62841,0 -1.06274,-0.24025 -1.30313,-0.72088c-0.22181,-0.49907 -0.35115,-1.28469 -0.38817,-2.35673l0.27726,0.13863c-1.03502,2.01472 -2.99443,3.02215 -5.87795,3.02215c-1.31228,0 -2.40289,-0.2311 -3.27169,-0.69315c-0.86866,-0.48063 -1.51565,-1.10905 -1.94083,-1.88538c-0.4066,-0.79477 -0.60998,-1.65428 -0.60998,-2.57854c0,-1.58968 0.55452,-2.84651 1.66357,-3.77076c1.10905,-0.94269 2.57854,-1.41404 4.40846,-1.41404c1.20151,0 2.24582,0.1756 3.13306,0.5268c0.88724,0.35119 1.64513,0.84103 2.27355,1.46949l-0.47135,-0.05545c-0.12934,-1.8669 -0.53595,-3.19776 -1.21995,-3.99257c-0.66543,-0.81331 -1.61727,-1.21995 -2.8558,-1.21995c-0.72088,0 -1.38631,0.1109 -1.99629,0.33271c-0.60998,0.22181 -1.17365,0.45287 -1.6913,0.69315c-0.49907,0.22181 -0.97042,0.33271 -1.41404,0.33271c-0.44362,0 -0.79477,-0.14788 -1.0536,-0.44362c-0.24025,-0.29574 -0.36044,-0.67468 -0.36044,-1.13677c0,-0.66543 0.31428,-1.29388 0.94269,-1.88538c0.64699,-0.5915 1.49721,-1.07207 2.55081,-1.44176c1.0536,-0.36969 2.19966,-0.55452 3.43805,-0.55452c1.49721,0 2.78191,0.36044 3.85394,1.08132c1.07217,0.72088 1.88538,1.77448 2.4399,3.16079c0.48063,1.18298 0.82264,2.5046 1.02587,3.96485c0.20337,1.4602 0.30499,3.02215 0.30499,4.68573c0,1.25697 -0.0646,2.22738 -0.19408,2.91125c-0.12934,0.68387 -0.33271,1.1645 -0.60998,1.44176c-0.25869,0.25882 -0.60998,0.38817 -1.0536,0.38817zM148.81979,185.1848c0.60998,0 1.22924,-0.08318 1.85765,-0.24954c0.62855,-0.1848 1.15535,-0.45291 1.58039,-0.80406c0.42518,-0.35115 0.6377,-0.78562 0.6377,-1.30313c0,-0.44362 -0.1848,-0.80406 -0.55452,-1.08132c-0.35115,-0.2957 -0.8225,-0.51751 -1.41404,-0.66543c-0.57296,-0.14792 -1.19223,-0.22181 -1.85765,-0.22181c-1.12749,0 -1.987,0.19408 -2.57854,0.58225c-0.57296,0.38817 -0.85951,0.90568 -0.85951,1.55267c0,0.70244 0.26811,1.24768 0.80406,1.63585c0.55452,0.36973 1.34943,0.55452 2.38445,0.55452zM167.2017,170.65627c1.64499,0 2.82807,0.24029 3.54895,0.72088c0.72088,0.48059 1.08132,1.0998 1.08132,1.85765c0,0.44362 -0.15721,0.81331 -0.47135,1.10905c-0.29584,0.27726 -0.72088,0.41589 -1.2754,0.41589c-0.5731,0 -1.17379,-0.08318 -1.8022,-0.24954c-0.60998,-0.16636 -1.32171,-0.24954 -2.13492,-0.24954c-0.94269,0 -1.64513,0.18484 -2.10719,0.55452c-0.4622,0.36969 -0.69315,0.84103 -0.69315,1.41404c0,0.53604 0.20323,0.96117 0.60998,1.2754c0.42504,0.29574 1.2291,0.51755 2.41218,0.66543c1.31228,0.14788 2.3936,0.38817 3.24396,0.72088c0.86866,0.31423 1.51565,0.79481 1.94083,1.44176c0.42504,0.62841 0.6377,1.49721 0.6377,2.60626c0,1.75604 -0.61926,3.05917 -1.85765,3.90939c-1.23853,0.85022 -2.94826,1.2754 -5.12935,1.2754c-1.38631,0 -2.48621,-0.1109 -3.29942,-0.33271c-0.81335,-0.22181 -1.40489,-0.53609 -1.77448,-0.94269c-0.35129,-0.4066 -0.5268,-0.88724 -0.5268,-1.44176c0,-0.48063 0.15707,-0.85022 0.47135,-1.10905c0.33271,-0.27726 0.72088,-0.41589 1.1645,-0.41589c0.42504,0 0.87795,0.05545 1.35858,0.16636c0.48049,0.09247 0.98885,0.19408 1.52494,0.30499c0.53595,0.1109 1.09047,0.16636 1.66357,0.16636c1.84837,0 2.77262,-0.57296 2.77262,-1.71902c0,-0.38817 -0.09247,-0.70244 -0.27726,-0.94269c-0.18493,-0.24025 -0.51765,-0.43433 -0.99814,-0.58225c-0.48063,-0.16636 -1.18308,-0.2957 -2.10719,-0.38817c-1.10905,-0.1109 -2.07031,-0.2957 -2.88352,-0.55452c-0.81335,-0.27726 -1.44176,-0.72088 -1.88538,-1.33086c-0.44362,-0.62846 -0.66543,-1.48797 -0.66543,-2.57854c0,-1.71902 0.64685,-3.10533 1.94083,-4.15893c1.29384,-1.07207 3.13306,-1.60812 5.51751,-1.60812zM185.955,188.1515c-1.14606,0 -2.09804,-0.21252 -2.8558,-0.6377c-0.73946,-0.44362 -1.29398,-1.11834 -1.66357,-2.02401c-0.25882,-0.62841 -0.45291,-1.38631 -0.58225,-2.27355c-0.1109,-0.90568 -0.16636,-1.94083 -0.16636,-3.10533c0,-1.99629 0.0646,-3.64138 0.19408,-4.93526c0.12934,-1.31238 0.31414,-2.36597 0.55452,-3.16079c0.25869,-0.81331 0.54524,-1.46949 0.85951,-1.96856c0.49907,-0.75785 1.29384,-1.36783 2.38445,-1.82993c1.09047,-0.4621 2.63399,-0.69315 4.63027,-0.69315c1.33086,0 2.3936,0.20333 3.18851,0.60998c0.81321,0.38817 1.39546,0.90572 1.74675,1.55267c0.36959,0.64695 0.55452,1.36783 0.55452,2.16264c0,1.25693 -0.36973,2.29203 -1.10905,3.10533c-0.73946,0.81331 -1.70987,1.46024 -2.91125,1.94083v0.1109c1.31228,0.14788 2.329,0.573 3.04988,1.2754c0.73932,0.68391 1.10905,1.66357 1.10905,2.93898c0,1.01658 -0.25882,1.95012 -0.77633,2.80035c-0.49907,0.83179 -1.18308,1.56195 -2.05174,2.19037c-0.85036,0.60998 -1.81149,1.09061 -2.88352,1.44176c-1.07217,0.33271 -2.16264,0.49907 -3.27169,0.49907zM186.81451,184.82436c0.88724,0 1.67272,-0.14792 2.35673,-0.44362c0.7023,-0.2957 1.24768,-0.69315 1.63585,-1.19223c0.4066,-0.51751 0.60998,-1.09976 0.60998,-1.74675c0,-0.70244 -0.342,-1.28469 -1.02587,-1.74675c-0.66543,-0.48059 -1.70987,-0.72088 -3.13306,-0.72088c-0.96127,0 -1.72831,0.23106 -2.30127,0.69315c-0.55452,0.44362 -0.83179,1.21066 -0.83179,2.30127c0,1.03516 0.22181,1.77448 0.66543,2.2181c0.44362,0.42518 1.1182,0.6377 2.02401,0.6377zM186.92542,176.03516c1.25683,0 2.30127,-0.27726 3.13306,-0.83179c0.85022,-0.573 1.2754,-1.31238 1.2754,-2.2181c0,-0.66543 -0.26811,-1.20147 -0.80406,-1.60812c-0.53609,-0.40665 -1.32171,-0.60998 -2.35673,-0.60998c-1.12762,0 -2.05174,0.22181 -2.77262,0.66543c-0.72088,0.44362 -1.08132,1.20147 -1.08132,2.27355c0,0.86876 0.23096,1.47873 0.69315,1.82993c0.48049,0.33271 1.1182,0.49907 1.91311,0.49907zM210.12891,188.29013c-0.62841,0 -1.06288,-0.24025 -1.30313,-0.72088c-0.22181,-0.49907 -0.35115,-1.28469 -0.38817,-2.35673l0.27726,0.13863c-1.03516,2.01472 -2.99443,3.02215 -5.87795,3.02215c-1.31242,0 -2.40289,-0.2311 -3.27169,-0.69315c-0.8688,-0.48063 -1.51565,-1.10905 -1.94083,-1.88538c-0.4066,-0.79477 -0.60998,-1.65428 -0.60998,-2.57854c0,-1.58968 0.55452,-2.84651 1.66357,-3.77076c1.10905,-0.94269 2.57854,-1.41404 4.40846,-1.41404c1.20151,0 2.24582,0.1756 3.13306,0.5268c0.88724,0.35119 1.64513,0.84103 2.27355,1.46949l-0.47135,-0.05545c-0.12934,-1.8669 -0.53609,-3.19776 -1.21995,-3.99257c-0.66543,-0.81331 -1.61741,-1.21995 -2.8558,-1.21995c-0.72088,0 -1.38631,0.1109 -1.99629,0.33271c-0.60998,0.22181 -1.17379,0.45287 -1.6913,0.69315c-0.49907,0.22181 -0.97042,0.33271 -1.41404,0.33271c-0.44362,0 -0.79477,-0.14788 -1.0536,-0.44362c-0.24025,-0.29574 -0.36044,-0.67468 -0.36044,-1.13677c0,-0.66543 0.31428,-1.29388 0.94269,-1.88538c0.64699,-0.5915 1.49721,-1.07207 2.55081,-1.44176c1.0536,-0.36969 2.19966,-0.55452 3.43805,-0.55452c1.49721,0 2.78191,0.36044 3.85394,1.08132c1.07203,0.72088 1.88538,1.77448 2.4399,3.16079c0.48063,1.18298 0.8225,2.5046 1.02587,3.96485c0.20337,1.4602 0.30499,3.02215 0.30499,4.68573c0,1.25697 -0.06474,2.22738 -0.19408,2.91125c-0.12934,0.68387 -0.33271,1.1645 -0.60998,1.44176c-0.25882,0.25882 -0.60998,0.38817 -1.0536,0.38817zM204.00142,185.1848c0.60998,0 1.22924,-0.08318 1.85765,-0.24954c0.62841,-0.1848 1.15521,-0.45291 1.58039,-0.80406c0.42518,-0.35115 0.6377,-0.78562 0.6377,-1.30313c0,-0.44362 -0.1848,-0.80406 -0.55452,-1.08132c-0.35115,-0.2957 -0.8225,-0.51751 -1.41404,-0.66543c-0.57296,-0.14792 -1.19223,-0.22181 -1.85765,-0.22181c-1.12749,0 -1.987,0.19408 -2.57854,0.58225c-0.57296,0.38817 -0.85951,0.90568 -0.85951,1.55267c0,0.70244 0.26797,1.24768 0.80406,1.63585c0.55452,0.36973 1.3493,0.55452 2.38445,0.55452zM218.19654,170.76718c0.59154,0 0.98899,0.24029 1.19223,0.72088c0.22181,0.48059 0.33271,1.19223 0.33271,2.13492c0,0.22181 -0.01844,0.4621 -0.05545,0.72088c-0.01844,0.24029 -0.05545,0.4621 -0.1109,0.66543l-0.05545,-0.55452c0.44362,-1.20147 1.12762,-2.13492 2.05174,-2.80035c0.92425,-0.68391 1.90396,-1.02587 2.93898,-1.02587c1.14606,0 2.09804,0.32347 2.8558,0.97042c0.77633,0.64695 1.34943,1.55267 1.71902,2.71717c0.38817,1.1645 0.58225,2.54156 0.58225,4.1312c0,0.97966 -0.04616,1.95012 -0.13863,2.91125c-0.07389,0.94269 -0.1848,1.81149 -0.33271,2.60626c-0.12934,0.77633 -0.27726,1.41404 -0.44362,1.91311c-0.22181,0.62841 -0.50822,1.09976 -0.85951,1.41404c-0.35115,0.2957 -0.76705,0.44362 -1.24768,0.44362c-0.48049,0 -0.85022,-0.17565 -1.10905,-0.5268c-0.25869,-0.35115 -0.38817,-0.8225 -0.38817,-1.41404c0,-0.62841 0.0463,-1.38631 0.13863,-2.27355c0.09247,-0.90568 0.17565,-1.82064 0.24954,-2.74489c0.09247,-0.94269 0.13863,-1.79296 0.13863,-2.55081c0,-2.58778 -0.85022,-3.88167 -2.55081,-3.88167c-0.90568,0 -1.66357,0.40665 -2.27355,1.21995c-0.60998,0.79481 -1.01658,1.93159 -1.21995,3.41032c-0.05545,0.49907 -0.08318,1.11834 -0.08318,1.85765c0,0.73932 0,1.47878 0,2.2181c0.01858,0.72088 0,1.33086 -0.05545,1.82993c-0.07389,1.10905 -0.28641,1.90382 -0.6377,2.38445c-0.33271,0.48063 -0.79477,0.72088 -1.38631,0.72088c-0.68387,0 -1.20138,-0.31428 -1.55267,-0.94269c-0.35115,-0.64699 -0.5268,-1.72831 -0.5268,-3.24396c0,-0.77633 0.01858,-1.64513 0.05545,-2.60626c0.03701,-0.96113 0.08318,-1.92235 0.13863,-2.88352c0.07403,-0.97966 0.15721,-1.8669 0.24954,-2.66171c0.18493,-1.49721 0.45291,-2.68019 0.80406,-3.54895c0.35129,-0.88724 0.87809,-1.33086 1.58039,-1.33086zM238.31799,187.56925c-1.73746,0 -3.1515,-0.66543 -4.24211,-1.99629c-1.09047,-1.3493 -1.63585,-3.39188 -1.63585,-6.12749c0,-2.9205 0.5268,-5.05541 1.58039,-6.40475c1.0536,-1.34934 2.4399,-2.02401 4.15893,-2.02401c1.01672,0 1.91311,0.25878 2.68944,0.77633c0.77633,0.51755 1.44176,1.24768 1.99629,2.19037l-0.22181,0.38817c-0.05545,-0.25878 -0.10162,-0.53604 -0.13863,-0.83179c-0.03688,-0.29574 -0.05545,-0.51755 -0.05545,-0.66543c0,-0.75785 0.12019,-1.3401 0.36044,-1.74675c0.25882,-0.42514 0.65628,-0.6377 1.19223,-0.6377c0.59154,0 1.0536,0.24029 1.38631,0.72088c0.35129,0.48059 0.61926,1.1645 0.80406,2.05174c0.24039,0.90572 0.44362,2.06098 0.60998,3.46577c0.16636,1.38631 0.24954,2.7911 0.24954,4.21438c0,1.77448 -0.0646,3.2624 -0.19408,4.46392c-0.12934,1.20151 -0.34186,2.19966 -0.6377,2.99443c-0.2957,0.79477 -0.68387,1.48793 -1.1645,2.07946c-0.79477,0.96113 -1.82064,1.6913 -3.07761,2.19037c-1.23839,0.51751 -2.67086,0.77633 -4.29756,0.77633c-1.1645,0 -2.0979,-0.1109 -2.80035,-0.33271c-0.7023,-0.20337 -1.21066,-0.48978 -1.52494,-0.85951c-0.2957,-0.35115 -0.44362,-0.74861 -0.44362,-1.19223c0,-0.46206 0.12948,-0.85022 0.38817,-1.1645c0.25882,-0.2957 0.64699,-0.44362 1.1645,-0.44362c0.4622,0 0.99814,0.07389 1.60812,0.22181c0.62855,0.14792 1.36787,0.22181 2.2181,0.22181c1.79305,0 3.05917,-0.42518 3.79849,-1.2754c0.7579,-0.83179 1.13677,-2.0333 1.13677,-3.6044c0,-0.42518 -0.02773,-0.92425 -0.08318,-1.49721l0.38817,0.13863c-0.46206,1.18294 -1.14592,2.13492 -2.05174,2.8558c-0.90568,0.70244 -1.95927,1.0536 -3.16079,1.0536zM239.37159,184.15893c0.59154,0 1.18308,-0.15707 1.77448,-0.47135c0.59154,-0.31428 1.08132,-0.83179 1.46949,-1.55267c0.38817,-0.72088 0.58225,-1.6913 0.58225,-2.91125c0,-1.46024 -0.34186,-2.65247 -1.02587,-3.57668c-0.68387,-0.92421 -1.64499,-1.38631 -2.88352,-1.38631c-1.07203,0 -1.85765,0.40665 -2.35673,1.21995c-0.49907,0.81331 -0.74861,2.04249 -0.74861,3.68758c0,1.5711 0.24954,2.80035 0.74861,3.68758c0.49907,0.8688 1.31242,1.30313 2.4399,1.30313zM262.90876,187.84651c-0.49907,0 -0.88724,-0.16636 -1.1645,-0.49907c-0.25785,-0.35115 -0.43391,-0.79477 -0.5268,-1.33086c-0.0915,-0.55452 -0.13863,-1.13677 -0.13863,-1.74675l0.13863,-0.1109c-0.18438,0.79477 -0.54482,1.47878 -1.08132,2.05174c-0.53512,0.57296 -1.1548,1.01658 -1.85765,1.33086c-0.70147,0.2957 -1.40433,0.44362 -2.10719,0.44362c-0.94269,0 -1.8022,-0.22181 -2.57854,-0.66543c-0.77633,-0.44362 -1.37661,-1.12749 -1.8022,-2.05174c-0.42421,-0.9797 -0.75692,-2.20881 -0.99814,-3.68758c-0.23983,-1.49721 -0.36044,-3.0314 -0.36044,-4.60255c0,-0.85027 0.03743,-1.63585 0.1109,-2.35673c0.07486,-0.72088 0.19408,-1.31238 0.36044,-1.77448c0.14834,-0.48059 0.37014,-0.83179 0.66543,-1.0536c0.29667,-0.24029 0.67513,-0.36044 1.13677,-0.36044c0.5365,0 0.95239,0.21256 1.24768,0.6377c0.31469,0.40665 0.50878,0.97966 0.58225,1.71902c0.07486,0.60998 0.12061,1.36783 0.13863,2.27355c0.03743,0.88724 0.06516,1.78372 0.08318,2.68944c0.03743,0.88724 0.08318,1.63585 0.13863,2.24582c0.1109,1.10905 0.39787,1.93155 0.85951,2.46763c0.46303,0.51751 1.02587,0.77633 1.6913,0.77633c0.98012,0 1.72873,-0.36973 2.24582,-1.10905c0.51848,-0.73932 0.77633,-1.77448 0.77633,-3.10533c0,-0.66543 -0.03604,-1.41404 -0.1109,-2.24582c-0.07347,-0.85027 -0.15665,-1.67282 -0.24954,-2.46763c-0.07347,-0.79481 -0.1109,-1.45101 -0.1109,-1.96856c0,-0.86876 0.14834,-1.48797 0.44362,-1.85765c0.29667,-0.38817 0.70286,-0.58225 1.21995,-0.58225c0.44362,0 0.81376,0.12015 1.10905,0.36044c0.31469,0.24029 0.56423,0.573 0.74861,0.99814c0.25924,0.55452 0.48105,1.31238 0.66543,2.27355c0.18577,0.96117 0.33271,2.05174 0.44362,3.27169c0.1109,1.21995 0.16636,2.50465 0.16636,3.85394c0,2.07018 -0.13863,3.62284 -0.41589,4.658c-0.27726,1.01658 -0.76663,1.52494 -1.46949,1.52494zM270.99511,170.76718c0.59195,0 0.98982,0.24029 1.19223,0.72088c0.22181,0.48059 0.33271,1.19223 0.33271,2.13492c0,0.22181 -0.01802,0.4621 -0.05545,0.72088c-0.01802,0.24029 -0.05545,0.4621 -0.1109,0.66543l-0.05545,-0.55452c0.44362,-1.20147 1.12846,-2.13492 2.05174,-2.80035c0.92467,-0.68391 1.90479,-1.02587 2.93898,-1.02587c1.14648,0 2.09887,0.32347 2.8558,0.97042c0.77633,0.64695 1.35027,1.55267 1.71902,2.71717c0.38817,1.1645 0.58225,2.54156 0.58225,4.1312c0,0.97966 -0.04575,1.95012 -0.13863,2.91125c-0.07347,0.94269 -0.18438,1.81149 -0.33271,2.60626c-0.12893,0.77633 -0.27726,1.41404 -0.44362,1.91311c-0.22181,0.62841 -0.50739,1.09976 -0.85951,1.41404c-0.35074,0.2957 -0.76663,0.44362 -1.24768,0.44362c-0.47966,0 -0.84981,-0.17565 -1.10905,-0.5268c-0.25785,-0.35115 -0.38817,-0.8225 -0.38817,-1.41404c0,-0.62841 0.04713,-1.38631 0.13863,-2.27355c0.09288,-0.90568 0.17606,-1.82064 0.24954,-2.74489c0.09288,-0.94269 0.13863,-1.79296 0.13863,-2.55081c0,-2.58778 -0.84981,-3.88167 -2.55081,-3.88167c-0.90526,0 -1.66357,0.40665 -2.27355,1.21995c-0.60998,0.79481 -1.01616,1.93159 -1.21995,3.41032c-0.05545,0.49907 -0.08318,1.11834 -0.08318,1.85765c0,0.73932 0,1.47878 0,2.2181c0.01941,0.72088 0,1.33086 -0.05545,1.82993c-0.07347,1.10905 -0.28558,1.90382 -0.6377,2.38445c-0.33271,0.48063 -0.79436,0.72088 -1.38631,0.72088c-0.68345,0 -1.20054,-0.31428 -1.55267,-0.94269c-0.35074,-0.64699 -0.5268,-1.72831 -0.5268,-3.24396c0,-0.77633 0.01941,-1.64513 0.05545,-2.60626c0.03743,-0.96113 0.08318,-1.92235 0.13863,-2.88352c0.07486,-0.97966 0.15804,-1.8669 0.24954,-2.66171c0.18577,-1.49721 0.45332,-2.68019 0.80406,-3.54895c0.35212,-0.88724 0.87892,-1.33086 1.58039,-1.33086zM295.25414,188.65057c-1.1645,0 -2.07115,-0.07389 -2.71717,-0.22181c-0.62938,-0.14792 -1.0633,-0.35115 -1.30313,-0.60998c-0.24122,-0.27726 -0.37014,-0.58225 -0.38817,-0.91496c0,-0.51751 0.30499,-0.95198 0.91496,-1.30313c0.628,-0.35115 1.77448,-0.57296 3.43805,-0.66543l-0.44362,0.5268c-0.20379,-0.94269 -0.35212,-2.04245 -0.44362,-3.29942c-0.09288,-1.25697 -0.13031,-2.56006 -0.1109,-3.90939c0.01802,-1.34934 0.08318,-2.63399 0.19408,-3.85394c0.1109,-1.23843 0.26756,-2.29203 0.47135,-3.16079l2.41218,-0.16636c-0.40757,0.16636 -0.91496,0.31423 -1.52494,0.44362c-0.60998,0.1109 -1.23936,0.16636 -1.88538,0.16636c-1.18391,0 -2.06144,-0.12938 -2.63399,-0.38817c-0.55452,-0.25878 -0.83179,-0.61922 -0.83179,-1.08132c0,-0.81331 0.48937,-1.44176 1.46949,-1.88538c0.99814,-0.4621 2.52308,-0.69315 4.57482,-0.69315c2.4399,0 4.49164,0.40665 6.15521,1.21995c1.68159,0.79481 2.957,1.91311 3.82621,3.35487c0.86783,1.42328 1.30313,3.08685 1.30313,4.99071c0,1.66357 -0.29667,3.1978 -0.88724,4.60255c-0.59195,1.38631 -1.44176,2.59697 -2.55081,3.63213c-1.09103,1.01658 -2.40386,1.81149 -3.93712,2.38445c-1.51662,0.55452 -3.21624,0.83179 -5.10162,0.83179zM299.19126,184.38074c0.628,0 1.29343,-0.24954 1.99629,-0.74861c0.72088,-0.51751 1.33086,-1.26612 1.82993,-2.24582c0.49907,-0.99814 0.74861,-2.22734 0.74861,-3.68758c0,-1.07207 -0.15804,-2.00553 -0.47135,-2.80035c-0.29667,-0.81331 -0.68484,-1.48797 -1.1645,-2.02401c-0.48105,-0.53604 -0.98982,-0.93344 -1.52494,-1.19223c-0.5365,-0.27726 -1.04528,-0.41589 -1.52494,-0.41589c-0.38817,0 -0.69315,0.24029 -0.91496,0.72088c-0.20379,0.48059 -0.35212,1.20147 -0.44362,2.16264c-0.09288,0.94269 -0.13863,2.11644 -0.13863,3.52123c0,2.18108 0.1109,3.84465 0.33271,4.99071c0.22181,1.14606 0.64602,1.71902 1.2754,1.71902zM322.90131,188.29013c-0.628,0 -1.06191,-0.24025 -1.30313,-0.72088c-0.22181,-0.49907 -0.35074,-1.28469 -0.38817,-2.35673l0.27726,0.13863c-1.03419,2.01472 -2.99443,3.02215 -5.87795,3.02215c-1.31145,0 -2.40247,-0.2311 -3.27169,-0.69315c-0.86783,-0.48063 -1.51524,-1.10905 -1.94083,-1.88538c-0.40619,-0.79477 -0.60998,-1.65428 -0.60998,-2.57854c0,-1.58968 0.55452,-2.84651 1.66357,-3.77076c1.10905,-0.94269 2.57854,-1.41404 4.40846,-1.41404c1.20193,0 2.24582,0.1756 3.13306,0.5268c0.88724,0.35119 1.64555,0.84103 2.27355,1.46949l-0.47135,-0.05545c-0.12893,-1.8669 -0.53512,-3.19776 -1.21995,-3.99257c-0.66543,-0.81331 -1.61644,-1.21995 -2.8558,-1.21995c-0.72088,0 -1.38631,0.1109 -1.99629,0.33271c-0.60998,0.22181 -1.17282,0.45287 -1.6913,0.69315c-0.49907,0.22181 -0.97042,0.33271 -1.41404,0.33271c-0.44362,0 -0.79436,-0.14788 -1.0536,-0.44362c-0.23983,-0.29574 -0.36044,-0.67468 -0.36044,-1.13677c0,-0.66543 0.31469,-1.29388 0.94269,-1.88538c0.64741,-0.5915 1.49721,-1.07207 2.55081,-1.44176c1.0536,-0.36969 2.20007,-0.55452 3.43805,-0.55452c1.49721,0 2.78232,0.36044 3.85394,1.08132c1.073,0.72088 1.88538,1.77448 2.4399,3.16079c0.48105,1.18298 0.82347,2.5046 1.02587,3.96485c0.20379,1.4602 0.30499,3.02215 0.30499,4.68573c0,1.25697 -0.06377,2.22738 -0.19408,2.91125c-0.12893,0.68387 -0.33271,1.1645 -0.60998,1.44176c-0.25785,0.25882 -0.60998,0.38817 -1.0536,0.38817zM316.77382,185.1848c0.60998,0 1.22966,-0.08318 1.85765,-0.24954c0.62938,-0.1848 1.15618,-0.45291 1.58039,-0.80406c0.4256,-0.35115 0.6377,-0.78562 0.6377,-1.30313c0,-0.44362 -0.18438,-0.80406 -0.55452,-1.08132c-0.35074,-0.2957 -0.82208,-0.51751 -1.41404,-0.66543c-0.57255,-0.14792 -1.19223,-0.22181 -1.85765,-0.22181c-1.12707,0 -1.98658,0.19408 -2.57854,0.58225c-0.57255,0.38817 -0.85951,0.90568 -0.85951,1.55267c0,0.70244 0.26894,1.24768 0.80406,1.63585c0.55452,0.36973 1.35027,0.55452 2.38445,0.55452zM331.98857,171.3217h-0.55452c-0.05545,-0.81331 -0.03743,-1.58039 0.05545,-2.30127c0.0915,-0.73936 0.28558,-1.33086 0.58225,-1.77448c0.31331,-0.4621 0.75692,-0.69316 1.33086,-0.69316c0.51709,0 0.89556,0.16636 1.13677,0.49907c0.23983,0.33272 0.36044,0.79481 0.36044,1.38631c0,1.1645 -0.22181,2.16264 -0.66543,2.99443l-0.49907,-0.05545c0.99814,-0.35119 2.12521,-0.5268 3.3826,-0.5268c0.79436,0 1.42235,0.15711 1.88538,0.47135c0.47966,0.29574 0.72088,0.80406 0.72088,1.52494c0,0.68391 -0.27726,1.20147 -0.83179,1.55267c-0.55452,0.35119 -1.24768,0.5268 -2.07946,0.5268c-0.49907,0 -1.03557,-0.01848 -1.60812,-0.05545c-0.55452,-0.05545 -1.10073,-0.13863 -1.63585,-0.24954l0.47135,-0.58225c0.16636,0.7024 0.32301,1.50646 0.47135,2.41218c0.16636,0.88724 0.31331,1.81145 0.44362,2.77262c0.12893,0.96113 0.23013,1.89467 0.30499,2.80035c0.07347,0.90568 0.1109,1.71902 0.1109,2.4399c0,1.18294 -0.18577,2.11648 -0.55452,2.80035c-0.37014,0.68387 -0.91496,1.02587 -1.63585,1.02587c-0.57393,0 -1.02587,-0.17565 -1.35858,-0.5268c-0.31469,-0.35115 -0.54621,-0.79477 -0.69315,-1.33086c-0.13031,-0.55452 -0.21349,-1.12749 -0.24954,-1.71902c-0.01941,-0.59154 -0.02773,-1.12749 -0.02773,-1.60812c0,-0.81335 0.03604,-1.72831 0.1109,-2.74489c0.07347,-1.03512 0.17467,-2.09794 0.30499,-3.18851c0.14695,-1.09057 0.31331,-2.14416 0.49907,-3.16079l0.55452,0.47135c-0.94269,0.48059 -2.10719,0.72088 -3.4935,0.72088c-0.85119,0 -1.50692,-0.15711 -1.96856,-0.47135c-0.46303,-0.31423 -0.69315,-0.80406 -0.69315,-1.46949c0,-0.72088 0.25785,-1.2754 0.77633,-1.66357c0.51709,-0.40665 1.21025,-0.60998 2.07946,-0.60998c0.57255,0 1.10905,0.03697 1.60812,0.1109c0.51709,0.05545 0.97042,0.12938 1.35858,0.22181zM354.09327,188.29013c-0.628,0 -1.06191,-0.24025 -1.30313,-0.72088c-0.22181,-0.49907 -0.35074,-1.28469 -0.38817,-2.35673l0.27726,0.13863c-1.03419,2.01472 -2.99443,3.02215 -5.87795,3.02215c-1.31145,0 -2.40247,-0.2311 -3.27169,-0.69315c-0.86783,-0.48063 -1.51524,-1.10905 -1.94083,-1.88538c-0.40619,-0.79477 -0.60998,-1.65428 -0.60998,-2.57854c0,-1.58968 0.55452,-2.84651 1.66357,-3.77076c1.10905,-0.94269 2.57854,-1.41404 4.40846,-1.41404c1.20193,0 2.24582,0.1756 3.13306,0.5268c0.88724,0.35119 1.64555,0.84103 2.27355,1.46949l-0.47135,-0.05545c-0.12893,-1.8669 -0.53512,-3.19776 -1.21995,-3.99257c-0.66543,-0.81331 -1.61644,-1.21995 -2.8558,-1.21995c-0.72088,0 -1.38631,0.1109 -1.99629,0.33271c-0.60998,0.22181 -1.17282,0.45287 -1.6913,0.69315c-0.49907,0.22181 -0.97042,0.33271 -1.41404,0.33271c-0.44362,0 -0.79436,-0.14788 -1.0536,-0.44362c-0.23983,-0.29574 -0.36044,-0.67468 -0.36044,-1.13677c0,-0.66543 0.31469,-1.29388 0.94269,-1.88538c0.64741,-0.5915 1.49721,-1.07207 2.55081,-1.44176c1.0536,-0.36969 2.20007,-0.55452 3.43805,-0.55452c1.49721,0 2.78232,0.36044 3.85394,1.08132c1.073,0.72088 1.88538,1.77448 2.4399,3.16079c0.48105,1.18298 0.82347,2.5046 1.02587,3.96485c0.20379,1.4602 0.30499,3.02215 0.30499,4.68573c0,1.25697 -0.06377,2.22738 -0.19408,2.91125c-0.12893,0.68387 -0.33271,1.1645 -0.60998,1.44176c-0.25785,0.25882 -0.60998,0.38817 -1.0536,0.38817zM347.96578,185.1848c0.60998,0 1.22966,-0.08318 1.85765,-0.24954c0.62938,-0.1848 1.15618,-0.45291 1.58039,-0.80406c0.4256,-0.35115 0.6377,-0.78562 0.6377,-1.30313c0,-0.44362 -0.18438,-0.80406 -0.55452,-1.08132c-0.35074,-0.2957 -0.82208,-0.51751 -1.41404,-0.66543c-0.57255,-0.14792 -1.19223,-0.22181 -1.85765,-0.22181c-1.12707,0 -1.98658,0.19408 -2.57854,0.58225c-0.57255,0.38817 -0.85951,0.90568 -0.85951,1.55267c0,0.70244 0.26894,1.24768 0.80406,1.63585c0.55452,0.36973 1.35027,0.55452 2.38445,0.55452zM359.33352,175.50836c0,-1.77448 0.16636,-3.04988 0.49907,-3.82621c0.33271,-0.79481 0.80406,-1.19223 1.41404,-1.19223c0.48105,0 0.85951,0.20333 1.13677,0.60998c0.27726,0.38817 0.48105,0.87799 0.60998,1.46949c0.12893,0.573 0.19408,1.15525 0.19408,1.74675l-0.13863,-0.05545c0.31469,-0.99814 0.79436,-1.85765 1.44176,-2.57854c0.66543,-0.72088 1.45978,-1.08132 2.38445,-1.08132c1.09103,0 1.89509,0.45287 2.41218,1.35858c0.51709,0.88724 0.77633,1.99629 0.77633,3.32714c0,1.77448 -0.20379,3.01291 -0.60998,3.71531c-0.40619,0.70244 -0.95239,1.0536 -1.63585,1.0536c-0.49907,0 -0.86922,-0.20337 -1.10905,-0.60998c-0.22181,-0.40665 -0.29528,-1.12753 -0.22181,-2.16264c0.07347,-1.09057 0.0097,-1.84841 -0.19408,-2.27355c-0.20379,-0.42514 -0.5268,-0.6377 -0.97042,-0.6377c-0.5365,0 -0.98012,0.34196 -1.33086,1.02587c-0.33271,0.66543 -0.49907,1.48797 -0.49907,2.46763c0,0.38817 0.04575,0.87799 0.13863,1.46949c0.09288,0.59154 0.19408,1.23839 0.30499,1.94083c0.1109,0.68387 0.21211,1.36787 0.30499,2.05174c0.09288,0.68387 0.13863,1.31242 0.13863,1.88538c0,1.01658 -0.15665,1.74675 -0.47135,2.19037c-0.31469,0.44362 -0.75831,0.66543 -1.33086,0.66543c-0.64741,0 -1.14648,-0.20337 -1.49721,-0.60998c-0.35074,-0.42518 -0.61968,-1.10905 -0.80406,-2.05174c-0.14834,-0.85022 -0.29528,-1.85765 -0.44362,-3.02215c-0.14834,-1.1645 -0.26756,-2.35673 -0.36044,-3.57668c-0.09288,-1.21995 -0.13863,-2.31975 -0.13863,-3.29942z"/></g></g></svg>