<svg version="1.1" xmlns="http://www.w3.org/2000/svg" xmlns:xlink="http://www.w3.org/1999/xlink" width="68.06903" height="8.34432" viewBox="0,0,68.06903,8.34432"><g transform="translate(-205.96548,-175.82784)"><g data-paper-data="{&quot;isPaintingLayer&quot;:true}" fill="#060606" fill-rule="nonzero" stroke="none" stroke-width="1" stroke-linecap="butt" stroke-linejoin="miter" stroke-miterlimit="10" stroke-dasharray="" stroke-dashoffset="0" style="mix-blend-mode: normal"><path d="M209.32393,177.88024c-0.32479,0.09674 -0.62539,0.17276 -0.90181,0.22805c-0.27642,0.04837 -0.53556,0.07256 -0.77743,0.07256c-0.22113,0 -0.39389,-0.04491 -0.51828,-0.13475c-0.12438,-0.08984 -0.18658,-0.22459 -0.18658,-0.40426c0,-0.15203 0.05183,-0.29715 0.15549,-0.43535c0.10365,-0.13821 0.26259,-0.26259 0.47682,-0.37316c0.25569,-0.12438 0.58048,-0.22805 0.97437,-0.31097c0.39389,-0.08292 0.85343,-0.12438 1.37862,-0.12438c0.35243,0 0.65995,0.02418 0.92254,0.07256c0.26259,0.04146 0.46991,0.09329 0.62194,0.15549c0.2004,0.08292 0.33861,0.17967 0.41462,0.29024c0.08292,0.10365 0.12438,0.22459 0.12438,0.36279c0,0.17276 -0.06219,0.31442 -0.18658,0.42499c-0.12438,0.11057 -0.32479,0.16585 -0.60121,0.16585c-0.16585,0 -0.33861,-0.01037 -0.51828,-0.0311c-0.17276,-0.02073 -0.35588,-0.04837 -0.54938,-0.08292zM210.03917,177.32049c0.35243,0.44227 0.62539,0.95709 0.81889,1.54448c0.2004,0.58048 0.3006,1.18859 0.3006,1.82435c0,0.6634 -0.09329,1.25769 -0.27987,1.78289c-0.17967,0.51828 -0.46991,0.92947 -0.87071,1.23351c-0.4008,0.29717 -0.9329,0.44572 -1.5963,0.44572c-0.81543,0 -1.42701,-0.22805 -1.83471,-0.68413c-0.40772,-0.45608 -0.61157,-1.08146 -0.61157,-1.87618c0,-0.38698 0.04837,-0.71522 0.14511,-0.98473c0.10365,-0.26951 0.23841,-0.47336 0.40426,-0.61157c0.16585,-0.14511 0.34552,-0.21768 0.53901,-0.21768c0.17967,0 0.31442,0.05528 0.40426,0.16585c0.09674,0.10365 0.14511,0.25223 0.14511,0.44572c0,0.15894 -0.02764,0.33515 -0.08292,0.52865c-0.04837,0.18658 -0.07256,0.36971 -0.07256,0.54938c0,0.463 0.07947,0.80159 0.23841,1.01583c0.16585,0.20732 0.42844,0.31097 0.78779,0.31097c0.47682,0 0.81197,-0.19352 1.00546,-0.58048c0.2004,-0.39389 0.3006,-0.92945 0.3006,-1.60667c0,-0.49064 -0.05183,-0.97091 -0.15549,-1.44082c-0.10365,-0.46991 -0.26951,-0.95018 -0.49755,-1.44082zM217.53305,183.97522c-0.18658,0 -0.3317,-0.06219 -0.43535,-0.18658c-0.09679,-0.13132 -0.16242,-0.29717 -0.19695,-0.49755c-0.03459,-0.20732 -0.05183,-0.42499 -0.05183,-0.65303l0.05183,-0.04146c-0.06912,0.29717 -0.20388,0.55281 -0.40426,0.76705c-0.20045,0.21425 -0.43192,0.38009 -0.69449,0.49755c-0.26264,0.11058 -0.52522,0.16585 -0.78779,0.16585c-0.35243,0 -0.67376,-0.08292 -0.964,-0.24878c-0.29024,-0.16585 -0.51485,-0.42155 -0.67376,-0.76705c-0.15899,-0.36623 -0.28337,-0.82582 -0.37316,-1.37862c-0.08985,-0.55974 -0.13475,-1.13331 -0.13475,-1.7207c0,-0.31788 0.0138,-0.61157 0.04146,-0.88108c0.0276,-0.26951 0.07256,-0.49064 0.13475,-0.6634c0.05526,-0.17967 0.13818,-0.31097 0.24878,-0.39389c0.11052,-0.08984 0.25221,-0.13475 0.42499,-0.13475c0.20038,0 0.35586,0.07947 0.46646,0.23841c0.11745,0.15203 0.19002,0.36625 0.21768,0.64267c0.0276,0.22805 0.04489,0.51137 0.05183,0.84998c0.0138,0.3317 0.02416,0.66685 0.0311,1.00546c0.0138,0.3317 0.0311,0.61157 0.05183,0.83962c0.04146,0.41462 0.14855,0.72216 0.32133,0.92254c0.17272,0.19352 0.38353,0.29024 0.6323,0.29024c0.36623,0 0.6461,-0.13818 0.83962,-0.41462c0.19345,-0.27642 0.29024,-0.6634 0.29024,-1.16095c0,-0.24878 -0.01386,-0.52865 -0.04146,-0.83962c-0.02766,-0.31788 -0.05876,-0.62539 -0.09329,-0.92254c-0.02766,-0.29715 -0.04146,-0.54247 -0.04146,-0.73595c0,-0.32479 0.05526,-0.55629 0.16585,-0.69449c0.11052,-0.14511 0.26258,-0.21768 0.45608,-0.21768c0.16585,0 0.30404,0.04491 0.41462,0.13475c0.11745,0.08984 0.21075,0.21423 0.27987,0.37316c0.09672,0.20732 0.17965,0.49064 0.24878,0.84998c0.06906,0.35934 0.12438,0.76705 0.16585,1.22314c0.04146,0.45608 0.06219,0.93636 0.06219,1.44082c0,0.77399 -0.05183,1.35446 -0.15549,1.74143c-0.10365,0.38009 -0.2868,0.57011 -0.54938,0.57011zM223.9664,179.28996c0.06912,-0.28332 0.19008,-0.53901 0.36279,-0.76705c0.17972,-0.22805 0.39389,-0.40771 0.64267,-0.53901c0.25571,-0.13821 0.53558,-0.20732 0.83962,-0.20732c0.35936,0 0.67726,0.08637 0.95364,0.25914c0.27644,0.17276 0.49412,0.45608 0.65303,0.84998c0.16585,0.39389 0.24878,0.91909 0.24878,1.57557c0,0.33861 -0.0138,0.68068 -0.04146,1.02619c-0.0276,0.34552 -0.06219,0.66683 -0.10365,0.964c-0.04146,0.29717 -0.08636,0.54595 -0.13475,0.74632c-0.06906,0.27644 -0.17622,0.48719 -0.32133,0.6323c-0.13818,0.14511 -0.3144,0.21768 -0.52865,0.21768c-0.17965,0 -0.32133,-0.07949 -0.42499,-0.23841c-0.10365,-0.15892 -0.15549,-0.38696 -0.15549,-0.68413c0,-0.13818 0.0173,-0.3144 0.05183,-0.52865c0.03459,-0.22111 0.07256,-0.45952 0.11402,-0.71522c0.04146,-0.26259 0.07949,-0.52865 0.11402,-0.79816c0.03459,-0.26951 0.05183,-0.5252 0.05183,-0.76705c0,-0.35934 -0.07256,-0.63575 -0.21768,-0.82925c-0.14511,-0.2004 -0.34893,-0.3006 -0.61157,-0.3006c-0.29024,0 -0.53208,0.15203 -0.72559,0.45608c-0.18658,0.29715 -0.2971,0.7325 -0.3317,1.30606c-0.0276,0.51137 -0.05183,0.96745 -0.07256,1.36826c-0.02073,0.39389 -0.07256,0.71866 -0.15549,0.97437c-0.05526,0.17965 -0.13475,0.3144 -0.23841,0.40426c-0.09672,0.08985 -0.22805,0.13475 -0.39389,0.13475c-0.18658,0 -0.33513,-0.06912 -0.44572,-0.20732c-0.10365,-0.13818 -0.16236,-0.35586 -0.17622,-0.65303c-0.0138,-0.24878 -0.01723,-0.54245 -0.01037,-0.88108c0.00693,-0.33861 0.01037,-0.67376 0.01037,-1.00546c0.00693,-0.33861 0.0035,-0.61848 -0.01037,-0.83962c-0.0276,-0.44227 -0.10709,-0.76705 -0.23841,-0.97437c-0.12438,-0.20732 -0.3144,-0.31097 -0.57011,-0.31097c-0.2971,0 -0.53552,0.13821 -0.71522,0.41462c-0.17272,0.27642 -0.27987,0.65995 -0.32133,1.15059c-0.0138,0.2004 -0.02073,0.44918 -0.02073,0.74632c0.00693,0.29024 0.01386,0.58048 0.02073,0.87071c0.00693,0.29024 0.0035,0.53208 -0.01037,0.72559c-0.00687,0.41462 -0.07256,0.71179 -0.19695,0.89144c-0.11745,0.17965 -0.28331,0.26951 -0.49755,0.26951c-0.25564,0 -0.44222,-0.08292 -0.55974,-0.24878c-0.11052,-0.16585 -0.18309,-0.43192 -0.21768,-0.79816c-0.0276,-0.32477 -0.04833,-0.6461 -0.06219,-0.964c-0.0138,-0.32479 -0.02073,-0.64612 -0.02073,-0.964c0,-0.32479 0.00693,-0.67722 0.02073,-1.05729c0.02073,-0.38007 0.04839,-0.73942 0.08292,-1.07803c0.04146,-0.34552 0.11402,-0.63575 0.21768,-0.87071c0.10365,-0.23496 0.27644,-0.35243 0.51828,-0.35243c0.20045,0 0.34206,0.1002 0.42499,0.3006c0.08292,0.1935 0.12438,0.4941 0.12438,0.90181c0,0.13821 -0.01037,0.26606 -0.0311,0.38353l-0.0311,-0.20732c0.13825,-0.44918 0.35936,-0.79816 0.6634,-1.04692c0.3041,-0.25569 0.64267,-0.38353 1.01583,-0.38353c0.49069,0 0.87421,0.15894 1.15059,0.47682c0.27644,0.31097 0.42848,0.74287 0.45608,1.2957zM230.05264,184.05814c-0.21418,0 -0.38353,-0.04839 -0.50792,-0.14511c-0.12438,-0.10365 -0.22455,-0.27294 -0.3006,-0.50792c-0.10365,-0.3455 -0.18309,-0.78086 -0.23841,-1.30606c-0.04833,-0.5321 -0.07256,-1.18513 -0.07256,-1.9591c0,-0.47682 0.0173,-0.95364 0.05183,-1.43046c0.04146,-0.48373 0.09329,-0.92254 0.15549,-1.31643c0.06219,-0.4008 0.12788,-0.71177 0.19695,-0.9329c0.07606,-0.23495 0.16585,-0.39735 0.26951,-0.48719c0.10365,-0.08984 0.22118,-0.13475 0.35243,-0.13475c0.13825,0 0.24878,0.04837 0.3317,0.14511c0.08292,0.08984 0.14861,0.25223 0.19695,0.48719c0.04146,0.22805 0.07256,0.50792 0.09329,0.83962c0.02766,0.3317 0.04146,0.68758 0.04146,1.06765c0,0.51828 -0.02416,1.0642 -0.07256,1.63776c-0.04833,0.57356 -0.11402,1.13677 -0.19695,1.68959c-0.07599,0.55281 -0.16929,1.06072 -0.27987,1.52375l-0.29024,-0.14511c0.17972,-0.22111 0.38353,-0.39389 0.61157,-0.51828c0.23498,-0.12438 0.44922,-0.18658 0.64267,-0.18658c0.15899,0 0.27987,0.04489 0.36279,0.13475c0.08985,0.08292 0.13475,0.21425 0.13475,0.39389c0,0.17965 -0.07942,0.35936 -0.23841,0.53901c-0.15198,0.17965 -0.34206,0.32827 -0.57011,0.44572c-0.22805,0.11058 -0.45258,0.16585 -0.67376,0.16585zM237.00589,184.14106c-0.23498,0 -0.39739,-0.08985 -0.48719,-0.26951c-0.08292,-0.18658 -0.13132,-0.48026 -0.14511,-0.88108l0.10365,0.05183c-0.38702,0.75325 -1.11949,1.12985 -2.19751,1.12985c-0.49069,0 -0.89838,-0.08636 -1.22314,-0.25914c-0.32483,-0.17965 -0.56668,-0.41462 -0.72559,-0.70486c-0.15205,-0.29717 -0.22805,-0.6185 -0.22805,-0.964c0,-0.59429 0.20732,-1.0642 0.62194,-1.40973c0.41462,-0.35243 0.964,-0.52865 1.64813,-0.52865c0.44915,0 0.83962,0.06564 1.17132,0.19695c0.3317,0.1313 0.615,0.31442 0.84998,0.54938l-0.17622,-0.02073c-0.04839,-0.69795 -0.20045,-1.1955 -0.45608,-1.49265c-0.24878,-0.30406 -0.6047,-0.45608 -1.06765,-0.45608c-0.26951,0 -0.51828,0.04146 -0.74632,0.12438c-0.22805,0.08292 -0.43885,0.16931 -0.6323,0.25914c-0.18658,0.08292 -0.36279,0.12438 -0.52865,0.12438c-0.16585,0 -0.29717,-0.05528 -0.39389,-0.16585c-0.08985,-0.11057 -0.13475,-0.25223 -0.13475,-0.42499c0,-0.24878 0.11745,-0.48373 0.35243,-0.70486c0.24184,-0.22113 0.55974,-0.4008 0.95364,-0.53901c0.39389,-0.13821 0.82232,-0.20732 1.28533,-0.20732c0.55974,0 1.03999,0.13475 1.44082,0.40426c0.40076,0.26951 0.70486,0.6634 0.91217,1.18168c0.17965,0.44227 0.30747,0.93636 0.38353,1.48228c0.07599,0.54593 0.11402,1.12985 0.11402,1.75179c0,0.46989 -0.02423,0.83269 -0.07256,1.08839c-0.04839,0.25571 -0.12438,0.43535 -0.22805,0.53901c-0.09679,0.09672 -0.22805,0.14511 -0.39389,0.14511zM234.71509,182.98012c0.22805,0 0.45952,-0.0311 0.69449,-0.09329c0.23491,-0.06912 0.43185,-0.16929 0.59084,-0.3006c0.15892,-0.13132 0.23841,-0.29367 0.23841,-0.48719c0,-0.16585 -0.06912,-0.3006 -0.20732,-0.40426c-0.13132,-0.11057 -0.30753,-0.1935 -0.52865,-0.24878c-0.21425,-0.05528 -0.44572,-0.08292 -0.69449,-0.08292c-0.42155,0 -0.74289,0.07256 -0.964,0.21768c-0.21425,0.14511 -0.32133,0.33861 -0.32133,0.58048c0,0.26258 0.10015,0.46646 0.3006,0.61157c0.20732,0.13818 0.50442,0.20732 0.89144,0.20732zM240.03239,175.82784c0.22111,0 0.37316,0.08638 0.45608,0.25914c0.08985,0.17276 0.13475,0.4319 0.13475,0.77743c0,0.29715 -0.0173,0.67031 -0.05183,1.11949c-0.03453,0.44918 -0.07949,0.88108 -0.13475,1.2957h-0.06219c0.22805,-0.42844 0.52172,-0.77396 0.88108,-1.03656c0.35936,-0.26259 0.73939,-0.39389 1.14022,-0.39389c0.35243,0 0.66683,0.08637 0.94327,0.25914c0.27644,0.16585 0.50099,0.42844 0.67376,0.78779c0.15892,0.32479 0.27644,0.71177 0.35243,1.16095c0.07599,0.44227 0.11402,0.8638 0.11402,1.2646c0,0.64267 -0.04489,1.15402 -0.13475,1.53411c-0.08292,0.38009 -0.20038,0.65647 -0.35243,0.82925c-0.15205,0.16585 -0.3317,0.24878 -0.53901,0.24878c-0.43535,0 -0.65303,-0.35586 -0.65303,-1.06765c0,-0.3455 0.0173,-0.70143 0.05183,-1.06765c0.04146,-0.36625 0.06219,-0.70141 0.06219,-1.00546c0,-0.51828 -0.08292,-0.90526 -0.24878,-1.16095c-0.15892,-0.26259 -0.39046,-0.39389 -0.69449,-0.39389c-0.38009,0 -0.68756,0.16931 -0.92254,0.50792c-0.23498,0.33861 -0.35243,0.80507 -0.35243,1.39936c0,0.31097 0.02766,0.65303 0.08292,1.02619c0.05526,0.36623 0.08292,0.70143 0.08292,1.00546c0,0.33863 -0.06563,0.58391 -0.19695,0.73595c-0.12438,0.14511 -0.2868,0.21768 -0.48719,0.21768c-0.15205,0 -0.2868,-0.0311 -0.40426,-0.09329c-0.11058,-0.05526 -0.20732,-0.16929 -0.29024,-0.34206c-0.07599,-0.17965 -0.14168,-0.44572 -0.19695,-0.79816c-0.04146,-0.26951 -0.08292,-0.58391 -0.12438,-0.94327c-0.04146,-0.35934 -0.07599,-0.73595 -0.10365,-1.12985c-0.02766,-0.39389 -0.05183,-0.77743 -0.07256,-1.15059c-0.0138,-0.38007 -0.02073,-0.72559 -0.02073,-1.03656c0,-0.98128 0.09329,-1.69305 0.27987,-2.13532c0.18658,-0.44918 0.44915,-0.67376 0.78779,-0.67376zM250.37202,184.12033c-0.88458,0 -1.52375,-0.24878 -1.91764,-0.74632c-0.38702,-0.49755 -0.58048,-1.31988 -0.58048,-2.46702c0,-0.38698 0.01037,-0.78088 0.0311,-1.18168c0.0276,-0.40771 0.06219,-0.79816 0.10365,-1.17132c0.04833,-0.38007 0.10365,-0.70831 0.16585,-0.98473c0.06219,-0.29024 0.15892,-0.51828 0.29024,-0.68413c0.13818,-0.17276 0.34206,-0.25914 0.61157,-0.25914c0.20732,0 0.36623,0.06219 0.47682,0.18658c0.11745,0.12438 0.17622,0.31442 0.17622,0.57011c0,0.15894 -0.02423,0.36971 -0.07256,0.6323c-0.04839,0.26259 -0.10365,0.54938 -0.16585,0.86035c-0.05532,0.31097 -0.10715,0.62539 -0.15549,0.94327c-0.04839,0.31097 -0.07256,0.60121 -0.07256,0.87071c0,0.69104 0.10709,1.17477 0.32133,1.45119c0.22111,0.26951 0.53901,0.40426 0.95364,0.40426c0.40076,0 0.69793,-0.14855 0.89144,-0.44572c0.20038,-0.29715 0.3006,-0.76705 0.3006,-1.40973c0,-0.2004 -0.01386,-0.45608 -0.04146,-0.76705c-0.02766,-0.31097 -0.05876,-0.63575 -0.09329,-0.97437c-0.03459,-0.33861 -0.06569,-0.64958 -0.09329,-0.9329c-0.02766,-0.29024 -0.04146,-0.50792 -0.04146,-0.65303c0,-0.60121 0.21075,-0.90181 0.6323,-0.90181c0.24184,0 0.42842,0.07601 0.55974,0.22805c0.13125,0.14511 0.22111,0.36625 0.26951,0.6634c0.04833,0.26259 0.08979,0.58048 0.12438,0.95364c0.03453,0.36625 0.05869,0.74978 0.07256,1.15059c0.02073,0.4008 0.0311,0.77743 0.0311,1.12985c0,0.83617 -0.09679,1.51338 -0.29024,2.03166c-0.18658,0.51828 -0.48375,0.89838 -0.89144,1.14022c-0.40775,0.24184 -0.93984,0.36279 -1.5963,0.36279zM255.25034,184.14106c-0.15205,0 -0.27644,-0.05183 -0.37316,-0.15549c-0.08985,-0.10365 -0.16242,-0.25221 -0.21768,-0.44572c-0.05532,-0.28331 -0.10365,-0.65303 -0.14511,-1.10912c-0.03459,-0.463 -0.05183,-0.95709 -0.05183,-1.48228c0,-0.29715 0.00687,-0.6323 0.02073,-1.00546c0.0138,-0.37316 0.0311,-0.74978 0.05183,-1.12985c0.0276,-0.38698 0.05526,-0.74632 0.08292,-1.07803c0.03453,-0.3317 0.06906,-0.60121 0.10365,-0.80852c0.05526,-0.30406 0.13475,-0.54247 0.23841,-0.71522c0.11052,-0.17967 0.28331,-0.26951 0.51828,-0.26951c0.24184,0 0.41805,0.09329 0.52865,0.27987c0.11052,0.17967 0.16585,0.40426 0.16585,0.67376c0,0.30406 -0.02423,0.6634 -0.07256,1.07803c-0.04146,0.41462 -0.10715,0.83617 -0.19695,1.2646l-0.20732,0.24878c0.07599,-0.29024 0.20038,-0.55629 0.37316,-0.79816c0.17272,-0.24186 0.39039,-0.4319 0.65303,-0.57011c0.26258,-0.14511 0.56661,-0.21768 0.91217,-0.21768c0.6772,0 1.21621,0.24186 1.61703,0.72559c0.40769,0.47682 0.61157,1.22314 0.61157,2.23897c0,0.71177 -0.10715,1.30606 -0.32133,1.78289c-0.20732,0.47682 -0.49412,0.83618 -0.86035,1.07803c-0.35936,0.23498 -0.77056,0.35243 -1.23351,0.35243c-0.43535,0 -0.81202,-0.12782 -1.12985,-0.38353c-0.31097,-0.25571 -0.51142,-0.62537 -0.60121,-1.10912l0.14511,0.11402c-0.02766,0.49755 -0.09679,0.86378 -0.20732,1.09876c-0.10365,0.22805 -0.23841,0.34206 -0.40426,0.34206zM257.14725,182.87646c0.3455,0 0.64953,-0.15549 0.91217,-0.46646c0.26258,-0.31097 0.39389,-0.79816 0.39389,-1.46155c0,-0.55283 -0.10365,-1.00201 -0.31097,-1.34753c-0.20045,-0.34552 -0.53901,-0.51828 -1.01583,-0.51828c-0.38702,0 -0.69799,0.15549 -0.9329,0.46646c-0.23498,0.30406 -0.35243,0.76705 -0.35243,1.389c0,0.56666 0.11745,1.03311 0.35243,1.39936c0.23491,0.35936 0.55281,0.53901 0.95364,0.53901zM261.82285,176.08698c0.27644,0 0.47339,0.07602 0.59084,0.22805c0.12438,0.15203 0.18658,0.32825 0.18658,0.52865c0,0.24878 -0.07599,0.44227 -0.22805,0.58048c-0.14511,0.1313 -0.35243,0.19695 -0.62194,0.19695c-0.26258,0 -0.45952,-0.07256 -0.59084,-0.21768c-0.13132,-0.15203 -0.19695,-0.32825 -0.19695,-0.52865c0,-0.26259 0.07949,-0.45954 0.23841,-0.59084c0.15892,-0.1313 0.36623,-0.19695 0.62194,-0.19695zM261.88504,178.39852c0.22111,0 0.39389,0.20732 0.51828,0.62194c0.13132,0.41462 0.19695,1.07457 0.19695,1.97983c0,1.11256 -0.07949,1.9142 -0.23841,2.40482c-0.15892,0.49062 -0.40082,0.73595 -0.72559,0.73595c-0.24878,0 -0.43192,-0.17965 -0.54938,-0.53901c-0.11745,-0.36623 -0.17622,-1.00203 -0.17622,-1.90727c0,-1.11258 0.08985,-1.93837 0.26951,-2.47738c0.18658,-0.54593 0.42155,-0.81889 0.70486,-0.81889zM264.92379,177.59c0.22111,0 0.36973,0.08984 0.44572,0.26951c0.08292,0.17967 0.12438,0.44572 0.12438,0.79816c0,0.08292 -0.00693,0.17276 -0.02073,0.26951c-0.00693,0.08984 -0.02073,0.17276 -0.04146,0.24878l-0.02073,-0.20732c0.16585,-0.44918 0.42155,-0.79816 0.76705,-1.04692c0.3455,-0.25569 0.71179,-0.38353 1.09876,-0.38353c0.42842,0 0.78436,0.12093 1.06765,0.36279c0.29024,0.24186 0.50448,0.58048 0.64267,1.01583c0.14511,0.43535 0.21768,0.95018 0.21768,1.54448c0,0.36625 -0.0173,0.72904 -0.05183,1.08839c-0.02766,0.35243 -0.06912,0.6772 -0.12438,0.97437c-0.04839,0.29024 -0.10365,0.52865 -0.16585,0.71522c-0.08292,0.23498 -0.19002,0.41119 -0.32133,0.52865c-0.13132,0.11058 -0.2868,0.16585 -0.46646,0.16585c-0.17965,0 -0.3179,-0.06563 -0.41462,-0.19695c-0.09672,-0.13132 -0.14511,-0.30753 -0.14511,-0.52865c0,-0.23498 0.0173,-0.51828 0.05183,-0.84998c0.03453,-0.33861 0.06563,-0.68068 0.09329,-1.02619c0.03453,-0.35243 0.05183,-0.67031 0.05183,-0.95364c0,-0.96745 -0.3179,-1.45119 -0.95364,-1.45119c-0.33863,0 -0.62194,0.15203 -0.84998,0.45608c-0.22805,0.29715 -0.38009,0.72214 -0.45608,1.27497c-0.02073,0.18658 -0.0311,0.41807 -0.0311,0.69449c0,0.27642 0,0.55283 0,0.82925c0.00693,0.26951 0,0.49755 -0.02073,0.68413c-0.02766,0.41462 -0.10709,0.71179 -0.23841,0.89144c-0.12438,0.17965 -0.29717,0.26951 -0.51828,0.26951c-0.25571,0 -0.44915,-0.11745 -0.58048,-0.35243c-0.13132,-0.24184 -0.19695,-0.6461 -0.19695,-1.21278c0,-0.29024 0.00693,-0.61502 0.02073,-0.97437c0.0138,-0.35934 0.0311,-0.71868 0.05183,-1.07803c0.02766,-0.36625 0.05876,-0.69795 0.09329,-0.9951c0.06912,-0.55974 0.16929,-1.00201 0.3006,-1.3268c0.13132,-0.3317 0.32827,-0.49755 0.59084,-0.49755zM273.11198,181.80881c0.27599,0 0.49755,0.09674 0.6634,0.29024c0.17233,0.18658 0.25914,0.46302 0.25914,0.82925c0,0.33863 -0.08292,0.62537 -0.24878,0.86035c-0.15938,0.23498 -0.41851,0.35243 -0.77743,0.35243c-0.29024,0 -0.50468,-0.09672 -0.64267,-0.29024c-0.13151,-0.19352 -0.19695,-0.46646 -0.19695,-0.81889c0,-0.20732 0.02721,-0.40426 0.08292,-0.59084c0.05507,-0.18658 0.15159,-0.33863 0.29024,-0.45608c0.13799,-0.11747 0.32781,-0.17622 0.57011,-0.17622zM273.11198,177.5589c0.27599,0 0.49755,0.09674 0.6634,0.29024c0.17233,0.18658 0.25914,0.463 0.25914,0.82925c0,0.33861 -0.08292,0.62539 -0.24878,0.86035c-0.15938,0.23496 -0.41851,0.35243 -0.77743,0.35243c-0.29024,0 -0.50468,-0.09674 -0.64267,-0.29024c-0.13151,-0.1935 -0.19695,-0.46646 -0.19695,-0.81889c0,-0.20732 0.02721,-0.40426 0.08292,-0.59084c0.05507,-0.18658 0.15159,-0.33861 0.29024,-0.45608c0.13799,-0.11747 0.32781,-0.17622 0.57011,-0.17622z"/></g></g></svg>