<svg xmlns="http://www.w3.org/2000/svg" fill="none" viewBox="0 0 222 17" height="17" width="222">
<path fill="#060606" d="M8.264 13.128C8.04 13.128 7.83733 13.0693 7.656 12.952C7.48533 12.8347 7.352 12.632 7.256 12.344C7.16 12.0453 7.112 11.6347 7.112 11.112C7.112 10.3547 7.128 9.544 7.16 8.68C7.192 7.80533 7.23467 6.92533 7.288 6.04C7.352 5.144 7.41067 4.28 7.464 3.448H7.4C7.02667 4.99467 6.62667 6.168 6.2 6.968C5.77333 7.75733 5.29867 8.152 4.776 8.152C4.456 8.152 4.15733 8.008 3.88 7.72C3.61333 7.42133 3.352 6.92533 3.096 6.232C2.85067 5.528 2.57867 4.57333 2.28 3.368H2.216C2.248 3.93333 2.28 4.536 2.312 5.176C2.344 5.816 2.37067 6.46133 2.392 7.112C2.424 7.76267 2.44533 8.38133 2.456 8.968C2.47733 9.55467 2.488 10.0773 2.488 10.536C2.488 10.9307 2.45067 11.2933 2.376 11.624C2.312 11.9547 2.18933 12.216 2.008 12.408C1.83733 12.6 1.59733 12.696 1.288 12.696C0.872 12.696 0.562667 12.5307 0.36 12.2C0.157333 11.8587 0.056 11.2987 0.056 10.52C0.056 10.0613 0.0666667 9.528 0.0880001 8.92C0.12 8.30133 0.157333 7.66667 0.2 7.016C0.242667 6.35467 0.296 5.72 0.36 5.112C0.424 4.49333 0.493333 3.95467 0.568 3.496C0.696 2.77067 0.872 2.25867 1.096 1.96C1.32 1.65067 1.61867 1.496 1.992 1.496C2.30133 1.496 2.60533 1.63467 2.904 1.912C3.20267 2.17867 3.512 2.63733 3.832 3.288C4.152 3.928 4.488 4.81333 4.84 5.944H4.904C5.24533 4.792 5.57067 3.86933 5.88 3.176C6.18933 2.472 6.488 1.96533 6.776 1.656C7.064 1.34667 7.336 1.192 7.592 1.192C7.99733 1.192 8.30667 1.352 8.52 1.672C8.73333 1.98133 8.90933 2.424 9.048 3C9.208 3.66133 9.336 4.43467 9.432 5.32C9.528 6.20533 9.59733 7.112 9.64 8.04C9.69333 8.95733 9.72 9.816 9.72 10.616C9.72 11.5333 9.58667 12.184 9.32 12.568C9.05333 12.9413 8.70133 13.128 8.264 13.128ZM18.7493 13.16C18.3866 13.16 18.1359 13.0213 17.9973 12.744C17.8693 12.456 17.7946 12.0027 17.7733 11.384L17.9333 11.464C17.3359 12.6267 16.2053 13.208 14.5413 13.208C13.7839 13.208 13.1546 13.0747 12.6533 12.808C12.1519 12.5307 11.7786 12.168 11.5333 11.72C11.2986 11.2613 11.1813 10.7653 11.1813 10.232C11.1813 9.31467 11.5013 8.58933 12.1413 8.056C12.7813 7.512 13.6293 7.24 14.6853 7.24C15.3786 7.24 15.9813 7.34133 16.4933 7.544C17.0053 7.74667 17.4426 8.02933 17.8053 8.392L17.5333 8.36C17.4586 7.28267 17.2239 6.51467 16.8293 6.056C16.4453 5.58667 15.8959 5.352 15.1813 5.352C14.7653 5.352 14.3813 5.416 14.0293 5.544C13.6773 5.672 13.3519 5.80533 13.0533 5.944C12.7653 6.072 12.4933 6.136 12.2373 6.136C11.9813 6.136 11.7786 6.05067 11.6293 5.88C11.4906 5.70933 11.4213 5.49067 11.4213 5.224C11.4213 4.84 11.6026 4.47733 11.9653 4.136C12.3386 3.79467 12.8293 3.51733 13.4373 3.304C14.0453 3.09067 14.7066 2.984 15.4213 2.984C16.2853 2.984 17.0266 3.192 17.6453 3.608C18.2639 4.024 18.7333 4.632 19.0533 5.432C19.3306 6.11467 19.5279 6.87733 19.6453 7.72C19.7626 8.56267 19.8212 9.464 19.8212 10.424C19.8212 11.1493 19.7839 11.7093 19.7093 12.104C19.6346 12.4987 19.5173 12.776 19.3573 12.936C19.2079 13.0853 19.0053 13.16 18.7493 13.16ZM15.2133 11.368C15.5653 11.368 15.9226 11.32 16.2853 11.224C16.6479 11.1173 16.9519 10.9627 17.1973 10.76C17.4426 10.5573 17.5653 10.3067 17.5653 10.008C17.5653 9.752 17.4586 9.544 17.2453 9.384C17.0426 9.21333 16.7706 9.08533 16.4293 9C16.0986 8.91467 15.7413 8.872 15.3573 8.872C14.7066 8.872 14.2106 8.984 13.8693 9.208C13.5386 9.432 13.3733 9.73067 13.3733 10.104C13.3733 10.5093 13.5279 10.824 13.8373 11.048C14.1573 11.2613 14.6159 11.368 15.2133 11.368ZM21.7729 5.784C21.7729 4.76 21.8689 4.024 22.0609 3.576C22.2529 3.11733 22.5249 2.888 22.8769 2.888C23.1542 2.888 23.3729 3.00533 23.5329 3.24C23.6929 3.464 23.8102 3.74667 23.8849 4.088C23.9595 4.41867 23.9969 4.75467 23.9969 5.096L23.9169 5.064C24.0982 4.488 24.3755 3.992 24.7489 3.576C25.1329 3.16 25.5915 2.952 26.1249 2.952C26.7542 2.952 27.2182 3.21333 27.5169 3.736C27.8155 4.248 27.9649 4.888 27.9649 5.656C27.9649 6.68 27.8475 7.39467 27.6129 7.8C27.3782 8.20533 27.0635 8.408 26.6689 8.408C26.3809 8.408 26.1675 8.29067 26.0289 8.056C25.9009 7.82133 25.8582 7.40533 25.9009 6.808C25.9435 6.17867 25.9062 5.74133 25.7889 5.496C25.6715 5.25067 25.4849 5.128 25.2289 5.128C24.9195 5.128 24.6635 5.32533 24.4609 5.72C24.2689 6.104 24.1729 6.57867 24.1729 7.144C24.1729 7.368 24.1995 7.65067 24.2529 7.992C24.3062 8.33333 24.3649 8.70667 24.4289 9.112C24.4929 9.50667 24.5515 9.90133 24.6049 10.296C24.6582 10.6907 24.6849 11.0533 24.6849 11.384C24.6849 11.9707 24.5942 12.392 24.4129 12.648C24.2315 12.904 23.9755 13.032 23.6449 13.032C23.2715 13.032 22.9835 12.9147 22.7809 12.68C22.5782 12.4347 22.4235 12.04 22.3169 11.496C22.2315 11.0053 22.1462 10.424 22.0609 9.752C21.9755 9.08 21.9062 8.392 21.8529 7.688C21.7995 6.984 21.7729 6.34933 21.7729 5.784ZM30.7903 0.728C31.2169 0.728 31.5209 0.845333 31.7023 1.08C31.8943 1.31467 31.9903 1.58667 31.9903 1.896C31.9903 2.28 31.8729 2.57867 31.6383 2.792C31.4143 2.99467 31.0943 3.096 30.6783 3.096C30.2729 3.096 29.9689 2.984 29.7663 2.76C29.5636 2.52533 29.4622 2.25333 29.4622 1.944C29.4622 1.53867 29.5849 1.23467 29.8303 1.032C30.0756 0.829333 30.3956 0.728 30.7903 0.728ZM30.8863 4.296C31.2276 4.296 31.4943 4.616 31.6863 5.256C31.8889 5.896 31.9903 6.91467 31.9903 8.312C31.9903 10.0293 31.8676 11.2667 31.6223 12.024C31.3769 12.7813 31.0036 13.16 30.5023 13.16C30.1183 13.16 29.8356 12.8827 29.6543 12.328C29.4729 11.7627 29.3823 10.7813 29.3823 9.384C29.3823 7.66667 29.5209 6.392 29.7983 5.56C30.0863 4.71733 30.4489 4.296 30.8863 4.296ZM40.2679 13.08C39.6065 13.08 39.0572 12.9573 38.6199 12.712C38.1932 12.456 37.8732 12.0667 37.6599 11.544C37.5105 11.1813 37.3985 10.744 37.3239 10.232C37.2599 9.70933 37.2279 9.112 37.2279 8.44C37.2279 7.288 37.2652 6.33867 37.3399 5.592C37.4145 4.83467 37.5212 4.22667 37.6599 3.768C37.8092 3.29867 37.9745 2.92 38.1559 2.632C38.4439 2.19467 38.9025 1.84267 39.5319 1.576C40.1612 1.30933 41.0519 1.176 42.2039 1.176C42.9719 1.176 43.5852 1.29333 44.0439 1.528C44.5132 1.752 44.8492 2.05067 45.0519 2.424C45.2652 2.79733 45.3719 3.21333 45.3719 3.672C45.3719 4.39733 45.1585 4.99467 44.7319 5.464C44.3052 5.93333 43.7452 6.30667 43.0519 6.584V6.648C43.8092 6.73333 44.3959 6.97867 44.8119 7.384C45.2385 7.77867 45.4519 8.344 45.4519 9.08C45.4519 9.66667 45.3025 10.2053 45.0039 10.696C44.7159 11.176 44.3212 11.5973 43.8199 11.96C43.3292 12.312 42.7745 12.5893 42.1559 12.792C41.5372 12.984 40.9079 13.08 40.2679 13.08ZM40.7639 11.16C41.2759 11.16 41.7292 11.0747 42.1239 10.904C42.5292 10.7333 42.8439 10.504 43.0679 10.216C43.3025 9.91733 43.4199 9.58133 43.4199 9.208C43.4199 8.80267 43.2225 8.46667 42.8279 8.2C42.4439 7.92267 41.8412 7.784 41.0199 7.784C40.4652 7.784 40.0225 7.91733 39.6919 8.184C39.3719 8.44 39.2119 8.88267 39.2119 9.512C39.2119 10.1093 39.3399 10.536 39.5959 10.792C39.8519 11.0373 40.2412 11.16 40.7639 11.16ZM40.8279 6.088C41.5532 6.088 42.1559 5.928 42.6359 5.608C43.1265 5.27733 43.3719 4.85067 43.3719 4.328C43.3719 3.944 43.2172 3.63467 42.9079 3.4C42.5985 3.16533 42.1452 3.048 41.5479 3.048C40.8972 3.048 40.3639 3.176 39.9479 3.432C39.5319 3.688 39.3239 4.12533 39.3239 4.744C39.3239 5.24533 39.4572 5.59733 39.7239 5.8C40.0012 5.992 40.3692 6.088 40.8279 6.088ZM51.706 13.128C50.522 13.128 49.578 12.952 48.874 12.6C48.17 12.248 47.6633 11.7413 47.354 11.08C47.0447 10.4187 46.89 9.62933 46.89 8.712C46.89 7.54933 47.1033 6.56267 47.53 5.752C47.9673 4.93067 48.5647 4.30133 49.322 3.864C50.09 3.42667 50.9593 3.208 51.93 3.208C53.0713 3.208 53.9087 3.47467 54.442 4.008C54.9753 4.53067 55.242 5.21867 55.242 6.072C55.242 6.75467 55.0607 7.34667 54.698 7.848C54.346 8.33867 53.8553 8.71733 53.226 8.984C52.5967 9.25067 51.8713 9.384 51.05 9.384C50.5913 9.384 50.1487 9.32533 49.722 9.208C49.2953 9.09067 48.9113 8.93067 48.57 8.728L48.954 8.024C48.922 8.28 48.906 8.536 48.906 8.792C48.906 9.53867 49.1407 10.0773 49.61 10.408C50.0793 10.728 50.746 10.888 51.61 10.888C52.282 10.888 52.8207 10.8293 53.226 10.712C53.6313 10.5947 53.9727 10.4827 54.25 10.376C54.5273 10.2587 54.7993 10.2 55.066 10.2C55.2153 10.2 55.3487 10.2427 55.466 10.328C55.594 10.4027 55.6953 10.5147 55.77 10.664C55.8553 10.8133 55.898 10.9947 55.898 11.208C55.898 11.528 55.738 11.8373 55.418 12.136C55.098 12.424 54.6233 12.664 53.994 12.856C53.3753 13.0373 52.6127 13.128 51.706 13.128ZM50.778 7.896C51.5353 7.896 52.1433 7.736 52.602 7.416C53.0607 7.096 53.29 6.70133 53.29 6.232C53.29 5.85867 53.162 5.55467 52.906 5.32C52.6607 5.07467 52.2713 4.952 51.738 4.952C51.2367 4.952 50.7833 5.048 50.378 5.24C49.9833 5.42133 49.674 5.66133 49.45 5.96C49.226 6.25867 49.114 6.584 49.114 6.936C49.114 7.24533 49.258 7.48533 49.546 7.656C49.8447 7.816 50.2553 7.896 50.778 7.896ZM57.3041 5.784C57.3041 4.76 57.4001 4.024 57.5921 3.576C57.7841 3.11733 58.0561 2.888 58.4081 2.888C58.6855 2.888 58.9041 3.00533 59.0641 3.24C59.2241 3.464 59.3415 3.74667 59.4161 4.088C59.4908 4.41867 59.5281 4.75467 59.5281 5.096L59.4481 5.064C59.6295 4.488 59.9068 3.992 60.2801 3.576C60.6641 3.16 61.1228 2.952 61.6561 2.952C62.2855 2.952 62.7495 3.21333 63.0481 3.736C63.3468 4.248 63.4961 4.888 63.4961 5.656C63.4961 6.68 63.3788 7.39467 63.1441 7.8C62.9095 8.20533 62.5948 8.408 62.2001 8.408C61.9121 8.408 61.6988 8.29067 61.5601 8.056C61.4321 7.82133 61.3895 7.40533 61.4321 6.808C61.4748 6.17867 61.4375 5.74133 61.3201 5.496C61.2028 5.25067 61.0161 5.128 60.7601 5.128C60.4508 5.128 60.1948 5.32533 59.9921 5.72C59.8001 6.104 59.7041 6.57867 59.7041 7.144C59.7041 7.368 59.7308 7.65067 59.7841 7.992C59.8375 8.33333 59.8961 8.70667 59.9601 9.112C60.0241 9.50667 60.0828 9.90133 60.1361 10.296C60.1895 10.6907 60.2161 11.0533 60.2161 11.384C60.2161 11.9707 60.1255 12.392 59.9441 12.648C59.7628 12.904 59.5068 13.032 59.1761 13.032C58.8028 13.032 58.5148 12.9147 58.3121 12.68C58.1095 12.4347 57.9548 12.04 57.8481 11.496C57.7628 11.0053 57.6775 10.424 57.5921 9.752C57.5068 9.08 57.4375 8.392 57.3841 7.688C57.3308 6.984 57.3041 6.34933 57.3041 5.784ZM71.8095 5.672C71.9162 5.23467 72.1028 4.84 72.3695 4.488C72.6468 4.136 72.9775 3.85867 73.3615 3.656C73.7562 3.44267 74.1882 3.336 74.6575 3.336C75.2122 3.336 75.7028 3.46933 76.1295 3.736C76.5562 4.00267 76.8922 4.44 77.1375 5.048C77.3935 5.656 77.5215 6.46667 77.5215 7.48C77.5215 8.00267 77.5002 8.53067 77.4575 9.064C77.4148 9.59733 77.3615 10.0933 77.2975 10.552C77.2335 11.0107 77.1642 11.3947 77.0895 11.704C76.9828 12.1307 76.8175 12.456 76.5935 12.68C76.3802 12.904 76.1082 13.016 75.7775 13.016C75.5002 13.016 75.2815 12.8933 75.1215 12.648C74.9615 12.4027 74.8815 12.0507 74.8815 11.592C74.8815 11.3787 74.9082 11.1067 74.9615 10.776C75.0148 10.4347 75.0735 10.0667 75.1375 9.672C75.2015 9.26667 75.2602 8.856 75.3135 8.44C75.3668 8.024 75.3935 7.62933 75.3935 7.256C75.3935 6.70133 75.2815 6.27467 75.0575 5.976C74.8335 5.66667 74.5188 5.512 74.1135 5.512C73.6655 5.512 73.2922 5.74667 72.9935 6.216C72.7055 6.67467 72.5348 7.34667 72.4815 8.232C72.4388 9.02133 72.4015 9.72533 72.3695 10.344C72.3375 10.952 72.2575 11.4533 72.1295 11.848C72.0442 12.1253 71.9215 12.3333 71.7615 12.472C71.6122 12.6107 71.4095 12.68 71.1535 12.68C70.8655 12.68 70.6362 12.5733 70.4655 12.36C70.3055 12.1467 70.2148 11.8107 70.1935 11.352C70.1722 10.968 70.1668 10.5147 70.1775 9.992C70.1882 9.46933 70.1935 8.952 70.1935 8.44C70.2042 7.91733 70.1988 7.48533 70.1775 7.144C70.1348 6.46133 70.0122 5.96 69.8095 5.64C69.6175 5.32 69.3242 5.16 68.9295 5.16C68.4708 5.16 68.1028 5.37333 67.8255 5.8C67.5588 6.22667 67.3935 6.81867 67.3295 7.576C67.3082 7.88533 67.2975 8.26933 67.2975 8.728C67.3082 9.176 67.3188 9.624 67.3295 10.072C67.3402 10.52 67.3348 10.8933 67.3135 11.192C67.3028 11.832 67.2015 12.2907 67.0095 12.568C66.8282 12.8453 66.5722 12.984 66.2415 12.984C65.8468 12.984 65.5588 12.856 65.3775 12.6C65.2068 12.344 65.0948 11.9333 65.0415 11.368C64.9988 10.8667 64.9668 10.3707 64.9455 9.88C64.9242 9.37867 64.9135 8.88267 64.9135 8.392C64.9135 7.89067 64.9242 7.34667 64.9455 6.76C64.9775 6.17333 65.0202 5.61867 65.0735 5.096C65.1375 4.56267 65.2495 4.11467 65.4095 3.752C65.5695 3.38933 65.8362 3.208 66.2095 3.208C66.5188 3.208 66.7375 3.36267 66.8655 3.672C66.9935 3.97067 67.0575 4.43467 67.0575 5.064C67.0575 5.27733 67.0415 5.47467 67.0095 5.656L66.9615 5.336C67.1748 4.64267 67.5162 4.104 67.9855 3.72C68.4548 3.32533 68.9775 3.128 69.5535 3.128C70.3108 3.128 70.9028 3.37333 71.3295 3.864C71.7562 4.344 71.9908 5.01067 72.0335 5.864L71.8095 5.672ZM86.468 13.16C86.1053 13.16 85.8547 13.0213 85.716 12.744C85.588 12.456 85.5133 12.0027 85.492 11.384L85.652 11.464C85.0547 12.6267 83.924 13.208 82.26 13.208C81.5027 13.208 80.8733 13.0747 80.372 12.808C79.8707 12.5307 79.4973 12.168 79.252 11.72C79.0173 11.2613 78.9 10.7653 78.9 10.232C78.9 9.31467 79.22 8.58933 79.86 8.056C80.5 7.512 81.348 7.24 82.404 7.24C83.0973 7.24 83.7 7.34133 84.212 7.544C84.724 7.74667 85.1613 8.02933 85.524 8.392L85.252 8.36C85.1773 7.28267 84.9427 6.51467 84.548 6.056C84.164 5.58667 83.6147 5.352 82.9 5.352C82.484 5.352 82.1 5.416 81.748 5.544C81.396 5.672 81.0707 5.80533 80.772 5.944C80.484 6.072 80.212 6.136 79.956 6.136C79.7 6.136 79.4973 6.05067 79.348 5.88C79.2093 5.70933 79.14 5.49067 79.14 5.224C79.14 4.84 79.3213 4.47733 79.684 4.136C80.0573 3.79467 80.548 3.51733 81.156 3.304C81.764 3.09067 82.4253 2.984 83.14 2.984C84.004 2.984 84.7453 3.192 85.364 3.608C85.9827 4.024 86.452 4.632 86.772 5.432C87.0493 6.11467 87.2467 6.87733 87.364 7.72C87.4813 8.56267 87.54 9.464 87.54 10.424C87.54 11.1493 87.5027 11.7093 87.428 12.104C87.3533 12.4987 87.236 12.776 87.076 12.936C86.9267 13.0853 86.724 13.16 86.468 13.16ZM82.932 11.368C83.284 11.368 83.6413 11.32 84.004 11.224C84.3667 11.1173 84.6707 10.9627 84.916 10.76C85.1613 10.5573 85.284 10.3067 85.284 10.008C85.284 9.752 85.1773 9.544 84.964 9.384C84.7613 9.21333 84.4893 9.08533 84.148 9C83.8173 8.91467 83.46 8.872 83.076 8.872C82.4253 8.872 81.9293 8.984 81.588 9.208C81.2573 9.432 81.092 9.73067 81.092 10.104C81.092 10.5093 81.2467 10.824 81.556 11.048C81.876 11.2613 82.3347 11.368 82.932 11.368ZM90.8996 0.728C91.3263 0.728 91.6303 0.845333 91.8116 1.08C92.0036 1.31467 92.0996 1.58667 92.0996 1.896C92.0996 2.28 91.9823 2.57867 91.7476 2.792C91.5236 2.99467 91.2036 3.096 90.7876 3.096C90.3823 3.096 90.0783 2.984 89.8756 2.76C89.673 2.52533 89.5716 2.25333 89.5716 1.944C89.5716 1.53867 89.6943 1.23467 89.9396 1.032C90.185 0.829333 90.505 0.728 90.8996 0.728ZM90.9956 4.296C91.337 4.296 91.6036 4.616 91.7956 5.256C91.9983 5.896 92.0996 6.91467 92.0996 8.312C92.0996 10.0293 91.977 11.2667 91.7316 12.024C91.4863 12.7813 91.113 13.16 90.6116 13.16C90.2276 13.16 89.945 12.8827 89.7636 12.328C89.5823 11.7627 89.4916 10.7813 89.4916 9.384C89.4916 7.66667 89.6303 6.392 89.9076 5.56C90.1956 4.71733 90.5583 4.296 90.9956 4.296ZM95.6861 3.048C96.0275 3.048 96.2568 3.18667 96.3741 3.464C96.5021 3.74133 96.5661 4.152 96.5661 4.696C96.5661 4.824 96.5555 4.96267 96.5341 5.112C96.5235 5.25067 96.5021 5.37867 96.4701 5.496L96.4381 5.176C96.6941 4.48267 97.0888 3.944 97.6221 3.56C98.1555 3.16533 98.7208 2.968 99.3181 2.968C99.9795 2.968 100.529 3.15467 100.966 3.528C101.414 3.90133 101.745 4.424 101.958 5.096C102.182 5.768 102.294 6.56267 102.294 7.48C102.294 8.04533 102.267 8.60533 102.214 9.16C102.171 9.704 102.107 10.2053 102.022 10.664C101.947 11.112 101.862 11.48 101.766 11.768C101.638 12.1307 101.473 12.4027 101.27 12.584C101.067 12.7547 100.827 12.84 100.55 12.84C100.273 12.84 100.059 12.7387 99.9101 12.536C99.7608 12.3333 99.6861 12.0613 99.6861 11.72C99.6861 11.3573 99.7128 10.92 99.7661 10.408C99.8195 9.88533 99.8675 9.35733 99.9101 8.824C99.9635 8.28 99.9901 7.78933 99.9901 7.352C99.9901 5.85867 99.4995 5.112 98.5181 5.112C97.9955 5.112 97.5581 5.34667 97.2061 5.816C96.8541 6.27467 96.6195 6.93067 96.5021 7.784C96.4701 8.072 96.4541 8.42933 96.4541 8.856C96.4541 9.28267 96.4541 9.70933 96.4541 10.136C96.4648 10.552 96.4541 10.904 96.4221 11.192C96.3795 11.832 96.2568 12.2907 96.0541 12.568C95.8621 12.8453 95.5955 12.984 95.2541 12.984C94.8595 12.984 94.5608 12.8027 94.3581 12.44C94.1555 12.0667 94.0541 11.4427 94.0541 10.568C94.0541 10.12 94.0648 9.61867 94.0861 9.064C94.1075 8.50933 94.1341 7.95467 94.1661 7.4C94.2088 6.83467 94.2568 6.32267 94.3101 5.864C94.4168 5 94.5715 4.31733 94.7741 3.816C94.9768 3.304 95.2808 3.048 95.6861 3.048ZM111.445 1.24C112.234 1.24 112.895 1.28267 113.429 1.368C113.973 1.44267 114.41 1.53867 114.741 1.656C115.093 1.79467 115.333 1.95467 115.461 2.136C115.599 2.31733 115.669 2.52533 115.669 2.76C115.669 3.10133 115.535 3.37867 115.269 3.592C115.013 3.80533 114.618 3.912 114.085 3.912C113.722 3.912 113.333 3.87467 112.917 3.8C112.501 3.72533 112.074 3.61333 111.637 3.464L111.845 3.24C111.941 3.79467 112.026 4.408 112.101 5.08C112.175 5.752 112.239 6.43467 112.293 7.128C112.357 7.81067 112.399 8.456 112.421 9.064C112.453 9.672 112.469 10.1893 112.469 10.616C112.469 11.448 112.362 12.072 112.149 12.488C111.946 12.904 111.594 13.112 111.093 13.112C110.634 13.112 110.303 12.9253 110.101 12.552C109.898 12.168 109.797 11.5867 109.797 10.808C109.797 10.296 109.818 9.70933 109.861 9.048C109.914 8.38667 109.983 7.704 110.069 7C110.154 6.296 110.245 5.624 110.341 4.984C110.447 4.33333 110.554 3.768 110.661 3.288L110.949 3.464C110.714 3.54933 110.437 3.63467 110.117 3.72C109.797 3.79467 109.477 3.85867 109.157 3.912C108.837 3.95467 108.554 3.976 108.309 3.976C107.765 3.976 107.381 3.89067 107.157 3.72C106.933 3.53867 106.821 3.29867 106.821 3C106.821 2.72267 106.906 2.488 107.077 2.296C107.247 2.09333 107.509 1.91733 107.861 1.768C108.266 1.59733 108.762 1.46933 109.349 1.384C109.946 1.288 110.645 1.24 111.445 1.24ZM120.831 13.128C119.647 13.128 118.703 12.952 117.999 12.6C117.295 12.248 116.788 11.7413 116.479 11.08C116.17 10.4187 116.015 9.62933 116.015 8.712C116.015 7.54933 116.228 6.56267 116.655 5.752C117.092 4.93067 117.69 4.30133 118.447 3.864C119.215 3.42667 120.084 3.208 121.055 3.208C122.196 3.208 123.034 3.47467 123.567 4.008C124.1 4.53067 124.367 5.21867 124.367 6.072C124.367 6.75467 124.186 7.34667 123.823 7.848C123.471 8.33867 122.98 8.71733 122.351 8.984C121.722 9.25067 120.996 9.384 120.175 9.384C119.716 9.384 119.274 9.32533 118.847 9.208C118.42 9.09067 118.036 8.93067 117.695 8.728L118.079 8.024C118.047 8.28 118.031 8.536 118.031 8.792C118.031 9.53867 118.266 10.0773 118.735 10.408C119.204 10.728 119.871 10.888 120.735 10.888C121.407 10.888 121.946 10.8293 122.351 10.712C122.756 10.5947 123.098 10.4827 123.375 10.376C123.652 10.2587 123.924 10.2 124.191 10.2C124.34 10.2 124.474 10.2427 124.591 10.328C124.719 10.4027 124.82 10.5147 124.895 10.664C124.98 10.8133 125.023 10.9947 125.023 11.208C125.023 11.528 124.863 11.8373 124.543 12.136C124.223 12.424 123.748 12.664 123.119 12.856C122.5 13.0373 121.738 13.128 120.831 13.128ZM119.903 7.896C120.66 7.896 121.268 7.736 121.727 7.416C122.186 7.096 122.415 6.70133 122.415 6.232C122.415 5.85867 122.287 5.55467 122.031 5.32C121.786 5.07467 121.396 4.952 120.863 4.952C120.362 4.952 119.908 5.048 119.503 5.24C119.108 5.42133 118.799 5.66133 118.575 5.96C118.351 6.25867 118.239 6.584 118.239 6.936C118.239 7.24533 118.383 7.48533 118.671 7.656C118.97 7.816 119.38 7.896 119.903 7.896ZM127.645 13.16C127.41 13.16 127.218 13.08 127.069 12.92C126.93 12.76 126.818 12.5307 126.733 12.232C126.648 11.7947 126.573 11.224 126.509 10.52C126.456 9.80533 126.429 9.04267 126.429 8.232C126.429 7.77333 126.44 7.256 126.461 6.68C126.482 6.104 126.509 5.52267 126.541 4.936C126.584 4.33867 126.626 3.784 126.669 3.272C126.722 2.76 126.776 2.344 126.829 2.024C126.914 1.55467 127.037 1.18667 127.197 0.919999C127.368 0.642666 127.634 0.504 127.997 0.504C128.37 0.504 128.642 0.648 128.813 0.936C128.984 1.21333 129.069 1.56 129.069 1.976C129.069 2.44533 129.032 3 128.957 3.64C128.893 4.28 128.792 4.93067 128.653 5.592L128.333 5.976C128.45 5.528 128.642 5.11733 128.909 4.744C129.176 4.37067 129.512 4.07733 129.917 3.864C130.322 3.64 130.792 3.528 131.325 3.528C132.37 3.528 133.202 3.90133 133.821 4.648C134.45 5.384 134.765 6.536 134.765 8.104C134.765 9.20267 134.6 10.12 134.269 10.856C133.949 11.592 133.506 12.1467 132.941 12.52C132.386 12.8827 131.752 13.064 131.037 13.064C130.365 13.064 129.784 12.8667 129.293 12.472C128.813 12.0773 128.504 11.5067 128.365 10.76L128.589 10.936C128.546 11.704 128.44 12.2693 128.269 12.632C128.109 12.984 127.901 13.16 127.645 13.16ZM130.573 11.208C131.106 11.208 131.576 10.968 131.981 10.488C132.386 10.008 132.589 9.256 132.589 8.232C132.589 7.37867 132.429 6.68533 132.109 6.152C131.8 5.61867 131.277 5.352 130.541 5.352C129.944 5.352 129.464 5.592 129.101 6.072C128.738 6.54133 128.557 7.256 128.557 8.216C128.557 9.09067 128.738 9.81067 129.101 10.376C129.464 10.9307 129.954 11.208 130.573 11.208ZM143.374 13.16C143.012 13.16 142.761 13.0213 142.622 12.744C142.494 12.456 142.42 12.0027 142.398 11.384L142.558 11.464C141.961 12.6267 140.83 13.208 139.166 13.208C138.409 13.208 137.78 13.0747 137.278 12.808C136.777 12.5307 136.404 12.168 136.158 11.72C135.924 11.2613 135.806 10.7653 135.806 10.232C135.806 9.31467 136.126 8.58933 136.766 8.056C137.406 7.512 138.254 7.24 139.31 7.24C140.004 7.24 140.606 7.34133 141.118 7.544C141.63 7.74667 142.068 8.02933 142.43 8.392L142.158 8.36C142.084 7.28267 141.849 6.51467 141.454 6.056C141.07 5.58667 140.521 5.352 139.806 5.352C139.39 5.352 139.006 5.416 138.654 5.544C138.302 5.672 137.977 5.80533 137.678 5.944C137.39 6.072 137.118 6.136 136.862 6.136C136.606 6.136 136.404 6.05067 136.254 5.88C136.116 5.70933 136.046 5.49067 136.046 5.224C136.046 4.84 136.228 4.47733 136.59 4.136C136.964 3.79467 137.454 3.51733 138.062 3.304C138.67 3.09067 139.332 2.984 140.046 2.984C140.91 2.984 141.652 3.192 142.27 3.608C142.889 4.024 143.358 4.632 143.678 5.432C143.956 6.11467 144.153 6.87733 144.27 7.72C144.388 8.56267 144.446 9.464 144.446 10.424C144.446 11.1493 144.409 11.7093 144.334 12.104C144.26 12.4987 144.142 12.776 143.982 12.936C143.833 13.0853 143.63 13.16 143.374 13.16ZM139.838 11.368C140.19 11.368 140.548 11.32 140.91 11.224C141.273 11.1173 141.577 10.9627 141.822 10.76C142.068 10.5573 142.19 10.3067 142.19 10.008C142.19 9.752 142.084 9.544 141.87 9.384C141.668 9.21333 141.396 9.08533 141.054 9C140.724 8.91467 140.366 8.872 139.982 8.872C139.332 8.872 138.836 8.984 138.494 9.208C138.164 9.432 137.998 9.73067 137.998 10.104C137.998 10.5093 138.153 10.824 138.462 11.048C138.782 11.2613 139.241 11.368 139.838 11.368ZM147.486 13.16C147.283 13.16 147.118 13.1013 146.99 12.984C146.862 12.856 146.771 12.6747 146.718 12.44C146.633 12.0453 146.558 11.4747 146.494 10.728C146.43 9.98133 146.398 9.15467 146.398 8.248C146.398 7.128 146.435 6.05067 146.51 5.016C146.595 3.98133 146.702 3.13333 146.83 2.472C146.969 1.75733 147.139 1.23467 147.342 0.903999C147.545 0.562666 147.811 0.391999 148.142 0.391999C148.441 0.391999 148.67 0.530666 148.83 0.808C148.99 1.07467 149.07 1.53867 149.07 2.2C149.07 2.86133 149.043 3.57067 148.99 4.328C148.947 5.08533 148.873 5.896 148.766 6.76H148.83C149.523 5.82133 150.169 5.06933 150.766 4.504C151.374 3.93867 151.929 3.528 152.43 3.272C152.942 3.016 153.395 2.888 153.79 2.888C154.099 2.888 154.329 2.984 154.478 3.176C154.627 3.368 154.702 3.60267 154.702 3.88C154.702 4.424 154.265 5.032 153.39 5.704C152.526 6.376 151.278 7.064 149.646 7.768L149.662 7.512C150.675 8.03467 151.545 8.584 152.27 9.16C153.006 9.72533 153.566 10.264 153.95 10.776C154.345 11.2773 154.542 11.6987 154.542 12.04C154.542 12.3173 154.451 12.5467 154.27 12.728C154.099 12.8987 153.849 12.984 153.518 12.984C153.102 12.984 152.638 12.8293 152.126 12.52C151.625 12.2 151.102 11.7253 150.558 11.096C150.014 10.4667 149.47 9.67733 148.926 8.728H148.862C148.851 9.4 148.809 10.056 148.734 10.696C148.67 11.3253 148.585 11.8427 148.478 12.248C148.403 12.5253 148.286 12.7493 148.126 12.92C147.977 13.08 147.763 13.16 147.486 13.16ZM160.331 13.16C160.139 13.16 159.984 13.096 159.867 12.968C159.749 12.8293 159.653 12.6107 159.579 12.312C159.504 11.9707 159.435 11.4373 159.371 10.712C159.307 9.976 159.275 9.15467 159.275 8.248C159.275 7.26667 159.301 6.312 159.355 5.384C159.419 4.44533 159.509 3.61867 159.627 2.904C159.712 2.43467 159.835 2.088 159.995 1.864C160.165 1.62933 160.4 1.512 160.699 1.512C160.891 1.512 161.061 1.576 161.211 1.704C161.36 1.832 161.472 2.06133 161.547 2.392C161.632 2.72267 161.675 3.192 161.675 3.8C161.675 4.09867 161.664 4.44 161.643 4.824C161.621 5.19733 161.589 5.61333 161.547 6.072H161.611C162.464 4.89867 163.216 3.96533 163.867 3.272C164.517 2.568 165.088 2.06133 165.579 1.752C166.08 1.44267 166.517 1.288 166.891 1.288C167.189 1.288 167.413 1.384 167.563 1.576C167.723 1.768 167.803 2.00267 167.803 2.28C167.803 2.86667 167.36 3.57067 166.475 4.392C165.6 5.21333 164.187 6.2 162.235 7.352L162.363 7.048C164.048 8.11467 165.323 9.05867 166.187 9.88C167.051 10.6907 167.483 11.4107 167.483 12.04C167.483 12.3173 167.392 12.5467 167.211 12.728C167.04 12.8987 166.784 12.984 166.443 12.984C166.016 12.984 165.563 12.84 165.083 12.552C164.603 12.2533 164.069 11.7573 163.483 11.064C162.907 10.36 162.251 9.40533 161.515 8.2H161.451C161.472 8.44533 161.488 8.70133 161.499 8.968C161.509 9.224 161.515 9.48 161.515 9.736C161.515 10.9627 161.429 11.8427 161.259 12.376C161.088 12.8987 160.779 13.16 160.331 13.16ZM173.644 13.128C172.46 13.128 171.516 12.952 170.812 12.6C170.108 12.248 169.601 11.7413 169.292 11.08C168.982 10.4187 168.828 9.62933 168.828 8.712C168.828 7.54933 169.041 6.56267 169.468 5.752C169.905 4.93067 170.502 4.30133 171.26 3.864C172.027 3.42667 172.897 3.208 173.868 3.208C175.009 3.208 175.846 3.47467 176.38 4.008C176.913 4.53067 177.18 5.21867 177.18 6.072C177.18 6.75467 176.998 7.34667 176.635 7.848C176.284 8.33867 175.793 8.71733 175.164 8.984C174.534 9.25067 173.809 9.384 172.988 9.384C172.529 9.384 172.086 9.32533 171.66 9.208C171.233 9.09067 170.849 8.93067 170.508 8.728L170.892 8.024C170.86 8.28 170.844 8.536 170.844 8.792C170.844 9.53867 171.078 10.0773 171.548 10.408C172.017 10.728 172.684 10.888 173.548 10.888C174.22 10.888 174.758 10.8293 175.164 10.712C175.569 10.5947 175.91 10.4827 176.188 10.376C176.465 10.2587 176.737 10.2 177.003 10.2C177.153 10.2 177.286 10.2427 177.404 10.328C177.532 10.4027 177.633 10.5147 177.708 10.664C177.793 10.8133 177.836 10.9947 177.836 11.208C177.836 11.528 177.676 11.8373 177.356 12.136C177.036 12.424 176.561 12.664 175.932 12.856C175.313 13.0373 174.55 13.128 173.644 13.128ZM172.716 7.896C173.473 7.896 174.081 7.736 174.54 7.416C174.998 7.096 175.228 6.70133 175.228 6.232C175.228 5.85867 175.1 5.55467 174.844 5.32C174.598 5.07467 174.209 4.952 173.676 4.952C173.174 4.952 172.721 5.048 172.316 5.24C171.921 5.42133 171.612 5.66133 171.388 5.96C171.164 6.25867 171.052 6.584 171.052 6.936C171.052 7.24533 171.196 7.48533 171.484 7.656C171.782 7.816 172.193 7.896 172.716 7.896ZM180.97 13.032C180.639 13.032 180.378 12.9573 180.186 12.808C179.994 12.648 179.839 12.3867 179.722 12.024C179.562 11.4907 179.439 10.8187 179.354 10.008C179.279 9.18667 179.242 8.17867 179.242 6.984C179.242 6.248 179.268 5.512 179.322 4.776C179.386 4.02933 179.466 3.352 179.562 2.744C179.658 2.12533 179.759 1.64533 179.866 1.304C179.983 0.941333 180.122 0.690666 180.282 0.551999C180.442 0.413333 180.623 0.344 180.826 0.344C181.039 0.344 181.21 0.418667 181.338 0.568C181.466 0.706666 181.567 0.957333 181.642 1.32C181.706 1.672 181.754 2.104 181.786 2.616C181.828 3.128 181.85 3.67733 181.85 4.264C181.85 5.064 181.812 5.90667 181.738 6.792C181.663 7.67733 181.562 8.54667 181.434 9.4C181.316 10.2533 181.172 11.0373 181.002 11.752L180.554 11.528C180.831 11.1867 181.146 10.92 181.498 10.728C181.86 10.536 182.191 10.44 182.49 10.44C182.735 10.44 182.922 10.5093 183.05 10.648C183.188 10.776 183.258 10.9787 183.258 11.256C183.258 11.5333 183.135 11.8107 182.89 12.088C182.655 12.3653 182.362 12.5947 182.01 12.776C181.658 12.9467 181.311 13.032 180.97 13.032ZM186.118 0.728C186.545 0.728 186.849 0.845333 187.03 1.08C187.222 1.31467 187.318 1.58667 187.318 1.896C187.318 2.28 187.201 2.57867 186.966 2.792C186.742 2.99467 186.422 3.096 186.006 3.096C185.601 3.096 185.297 2.984 185.094 2.76C184.892 2.52533 184.79 2.25333 184.79 1.944C184.79 1.53867 184.913 1.23467 185.158 1.032C185.404 0.829333 185.724 0.728 186.118 0.728ZM186.214 4.296C186.556 4.296 186.822 4.616 187.014 5.256C187.217 5.896 187.318 6.91467 187.318 8.312C187.318 10.0293 187.196 11.2667 186.95 12.024C186.705 12.7813 186.332 13.16 185.83 13.16C185.446 13.16 185.164 12.8827 184.982 12.328C184.801 11.7627 184.71 10.7813 184.71 9.384C184.71 7.66667 184.849 6.392 185.126 5.56C185.414 4.71733 185.777 4.296 186.214 4.296ZM191.001 13.032C190.67 13.032 190.409 12.9573 190.217 12.808C190.025 12.648 189.87 12.3867 189.753 12.024C189.593 11.4907 189.47 10.8187 189.385 10.008C189.31 9.18667 189.273 8.17867 189.273 6.984C189.273 6.248 189.3 5.512 189.353 4.776C189.417 4.02933 189.497 3.352 189.593 2.744C189.689 2.12533 189.79 1.64533 189.897 1.304C190.014 0.941333 190.153 0.690666 190.313 0.551999C190.473 0.413333 190.654 0.344 190.857 0.344C191.07 0.344 191.241 0.418667 191.369 0.568C191.497 0.706666 191.598 0.957333 191.673 1.32C191.737 1.672 191.785 2.104 191.817 2.616C191.86 3.128 191.881 3.67733 191.881 4.264C191.881 5.064 191.844 5.90667 191.769 6.792C191.694 7.67733 191.593 8.54667 191.465 9.4C191.348 10.2533 191.204 11.0373 191.033 11.752L190.585 11.528C190.862 11.1867 191.177 10.92 191.529 10.728C191.892 10.536 192.222 10.44 192.521 10.44C192.766 10.44 192.953 10.5093 193.081 10.648C193.22 10.776 193.289 10.9787 193.289 11.256C193.289 11.5333 193.166 11.8107 192.921 12.088C192.686 12.3653 192.393 12.5947 192.041 12.776C191.689 12.9467 191.342 13.032 191.001 13.032ZM196.15 0.728C196.576 0.728 196.88 0.845333 197.062 1.08C197.254 1.31467 197.35 1.58667 197.35 1.896C197.35 2.28 197.232 2.57867 196.998 2.792C196.774 2.99467 196.454 3.096 196.038 3.096C195.632 3.096 195.328 2.984 195.126 2.76C194.923 2.52533 194.822 2.25333 194.822 1.944C194.822 1.53867 194.944 1.23467 195.19 1.032C195.435 0.829333 195.755 0.728 196.15 0.728ZM196.246 4.296C196.587 4.296 196.854 4.616 197.046 5.256C197.248 5.896 197.35 6.91467 197.35 8.312C197.35 10.0293 197.227 11.2667 196.982 12.024C196.736 12.7813 196.363 13.16 195.862 13.16C195.478 13.16 195.195 12.8827 195.014 12.328C194.832 11.7627 194.742 10.7813 194.742 9.384C194.742 7.66667 194.88 6.392 195.158 5.56C195.446 4.71733 195.808 4.296 196.246 4.296ZM200.936 3.048C201.277 3.048 201.507 3.18667 201.624 3.464C201.752 3.74133 201.816 4.152 201.816 4.696C201.816 4.824 201.805 4.96267 201.784 5.112C201.773 5.25067 201.752 5.37867 201.72 5.496L201.688 5.176C201.944 4.48267 202.339 3.944 202.872 3.56C203.405 3.16533 203.971 2.968 204.568 2.968C205.229 2.968 205.779 3.15467 206.216 3.528C206.664 3.90133 206.995 4.424 207.208 5.096C207.432 5.768 207.544 6.56267 207.544 7.48C207.544 8.04533 207.517 8.60533 207.464 9.16C207.421 9.704 207.357 10.2053 207.272 10.664C207.197 11.112 207.112 11.48 207.016 11.768C206.888 12.1307 206.723 12.4027 206.52 12.584C206.317 12.7547 206.077 12.84 205.8 12.84C205.523 12.84 205.309 12.7387 205.16 12.536C205.011 12.3333 204.936 12.0613 204.936 11.72C204.936 11.3573 204.963 10.92 205.016 10.408C205.069 9.88533 205.117 9.35733 205.16 8.824C205.213 8.28 205.24 7.78933 205.24 7.352C205.24 5.85867 204.749 5.112 203.768 5.112C203.245 5.112 202.808 5.34667 202.456 5.816C202.104 6.27467 201.869 6.93067 201.752 7.784C201.72 8.072 201.704 8.42933 201.704 8.856C201.704 9.28267 201.704 9.70933 201.704 10.136C201.715 10.552 201.704 10.904 201.672 11.192C201.629 11.832 201.507 12.2907 201.304 12.568C201.112 12.8453 200.845 12.984 200.504 12.984C200.109 12.984 199.811 12.8027 199.608 12.44C199.405 12.0667 199.304 11.4427 199.304 10.568C199.304 10.12 199.315 9.61867 199.336 9.064C199.357 8.50933 199.384 7.95467 199.416 7.4C199.459 6.83467 199.507 6.32267 199.56 5.864C199.667 5 199.821 4.31733 200.024 3.816C200.227 3.304 200.531 3.048 200.936 3.048ZM212.548 12.744C211.545 12.744 210.729 12.36 210.1 11.592C209.47 10.8133 209.156 9.63467 209.156 8.056C209.156 6.37067 209.46 5.13867 210.068 4.36C210.676 3.58133 211.476 3.192 212.468 3.192C213.054 3.192 213.572 3.34133 214.02 3.64C214.468 3.93867 214.852 4.36 215.172 4.904L215.044 5.128C215.012 4.97867 214.985 4.81867 214.964 4.648C214.942 4.47733 214.932 4.34933 214.932 4.264C214.932 3.82667 215.001 3.49067 215.14 3.256C215.289 3.01067 215.518 2.888 215.828 2.888C216.169 2.888 216.436 3.02667 216.628 3.304C216.83 3.58133 216.985 3.976 217.092 4.488C217.23 5.01067 217.348 5.67733 217.444 6.488C217.54 7.288 217.588 8.09867 217.588 8.92C217.588 9.944 217.55 10.8027 217.476 11.496C217.401 12.1893 217.278 12.7653 217.108 13.224C216.937 13.6827 216.713 14.0827 216.436 14.424C215.977 14.9787 215.385 15.4 214.66 15.688C213.945 15.9867 213.118 16.136 212.18 16.136C211.508 16.136 210.969 16.072 210.564 15.944C210.158 15.8267 209.865 15.6613 209.684 15.448C209.513 15.2453 209.428 15.016 209.428 14.76C209.428 14.4933 209.502 14.2693 209.652 14.088C209.801 13.9173 210.025 13.832 210.324 13.832C210.59 13.832 210.9 13.8747 211.252 13.96C211.614 14.0453 212.041 14.088 212.532 14.088C213.566 14.088 214.297 13.8427 214.724 13.352C215.161 12.872 215.38 12.1787 215.38 11.272C215.38 11.0267 215.364 10.7387 215.332 10.408L215.556 10.488C215.289 11.1707 214.894 11.72 214.372 12.136C213.849 12.5413 213.241 12.744 212.548 12.744ZM213.156 10.776C213.497 10.776 213.838 10.6853 214.18 10.504C214.521 10.3227 214.804 10.024 215.028 9.608C215.252 9.192 215.364 8.632 215.364 7.928C215.364 7.08533 215.166 6.39733 214.772 5.864C214.377 5.33067 213.822 5.064 213.108 5.064C212.489 5.064 212.036 5.29867 211.748 5.768C211.46 6.23733 211.316 6.94667 211.316 7.896C211.316 8.80267 211.46 9.512 211.748 10.024C212.036 10.5253 212.505 10.776 213.156 10.776ZM219.075 11.864C219.075 11.512 219.149 11.2293 219.299 11.016C219.448 10.792 219.635 10.6267 219.859 10.52C220.093 10.4133 220.339 10.36 220.595 10.36C221.021 10.36 221.347 10.4827 221.571 10.728C221.805 10.9733 221.923 11.304 221.923 11.72C221.923 12.232 221.779 12.6053 221.491 12.84C221.203 13.064 220.851 13.176 220.435 13.176C219.997 13.176 219.661 13.0587 219.427 12.824C219.192 12.5787 219.075 12.2587 219.075 11.864ZM220.674 1.112C221.101 1.112 221.4 1.33067 221.571 1.768C221.752 2.19467 221.843 2.808 221.843 3.608C221.843 4.35467 221.805 5.10667 221.731 5.864C221.656 6.62133 221.555 7.256 221.427 7.768C221.288 8.33333 221.133 8.74933 220.963 9.016C220.792 9.272 220.568 9.4 220.291 9.4C219.885 9.4 219.603 9.02133 219.443 8.264C219.283 7.50667 219.203 6.27467 219.203 4.568C219.203 3.71467 219.245 3.03733 219.331 2.536C219.416 2.03467 219.565 1.672 219.779 1.448C219.992 1.224 220.291 1.112 220.674 1.112Z"></path>
</svg>
