<svg version="1.1" xmlns="http://www.w3.org/2000/svg" xmlns:xlink="http://www.w3.org/1999/xlink" width="94.9737" height="17.64973" viewBox="0,0,94.9737,17.64973"><g transform="translate(-192.51315,-171.17513)"><g data-paper-data="{&quot;isPaintingLayer&quot;:true}" fill="#000000" fill-rule="nonzero" stroke="none" stroke-width="1" stroke-linecap="butt" stroke-linejoin="miter" stroke-miterlimit="10" stroke-dasharray="" stroke-dashoffset="0" style="mix-blend-mode: normal"><path d="M197.78256,171.75859c0.89951,0 1.65314,0.04862 2.26092,0.14586c0.61993,0.08509 1.1183,0.19448 1.49512,0.3282c0.40113,0.15802 0.67463,0.34036 0.82049,0.547c0.15802,0.20664 0.23703,0.44368 0.23703,0.71109c0,0.38898 -0.15194,0.70501 -0.45583,0.94813c-0.29174,0.24311 -0.74148,0.36467 -1.34925,0.36467c-0.41329,0 -0.85696,-0.04254 -1.33102,-0.12763c-0.47406,-0.08509 -0.96028,-0.21272 -1.45866,-0.3829l0.23703,-0.25526c0.1094,0.63208 0.20664,1.33102 0.29174,2.09682c0.08509,0.76579 0.15802,1.54375 0.21879,2.33385c0.07293,0.77795 0.12155,1.51336 0.14586,2.20622c0.03647,0.69286 0.0547,1.2824 0.0547,1.76862c0,0.94813 -0.12155,1.65922 -0.36467,2.13329c-0.23095,0.47406 -0.63208,0.71109 -1.20339,0.71109c-0.52269,0 -0.89951,-0.21272 -1.13046,-0.63816c-0.23095,-0.4376 -0.34643,-1.10007 -0.34643,-1.98742c0,-0.58346 0.02431,-1.25201 0.07293,-2.00566c0.06078,-0.75364 0.13979,-1.53159 0.23703,-2.33385c0.09724,-0.80226 0.20056,-1.56806 0.30997,-2.29738c0.12155,-0.74148 0.24311,-1.38573 0.36467,-1.93272l0.3282,0.20056c-0.26742,0.09724 -0.58346,0.19448 -0.94813,0.29174c-0.36467,0.08509 -0.72932,0.15802 -1.09399,0.21879c-0.36467,0.04862 -0.68678,0.07293 -0.96636,0.07293c-0.61993,0 -1.05753,-0.09724 -1.31279,-0.29174c-0.25526,-0.20664 -0.3829,-0.48014 -0.3829,-0.82049c0,-0.31605 0.09724,-0.58346 0.29174,-0.80226c0.19448,-0.23095 0.4923,-0.43152 0.89343,-0.60169c0.46191,-0.19448 1.02714,-0.34036 1.69569,-0.4376c0.6807,-0.1094 1.47689,-0.1641 2.38855,-0.1641zM203.74752,176.93682c0,-1.16692 0.1094,-2.00566 0.3282,-2.51619c0.21879,-0.52269 0.52876,-0.78402 0.9299,-0.78402c0.31605,0 0.56523,0.13371 0.74756,0.40113c0.18233,0.25526 0.31605,0.57738 0.40113,0.96636c0.08509,0.37682 0.12763,0.75971 0.12763,1.14869l-0.09116,-0.03647c0.20664,-0.65639 0.52269,-1.22162 0.94813,-1.69569c0.43763,-0.47406 0.96031,-0.71109 1.56808,-0.71109c0.71717,0 1.24593,0.29781 1.58629,0.89343c0.34036,0.58346 0.51053,1.31279 0.51053,2.18798c0,1.16692 -0.13371,1.98134 -0.40113,2.44324c-0.26742,0.46191 -0.62601,0.69286 -1.07576,0.69286c-0.3282,0 -0.57131,-0.13371 -0.72932,-0.40113c-0.14586,-0.26742 -0.19448,-0.74148 -0.14586,-1.42219c0.04862,-0.71717 0.00608,-1.21554 -0.12763,-1.49512c-0.13371,-0.27958 -0.34643,-0.41937 -0.63816,-0.41937c-0.35251,0 -0.64427,0.22487 -0.87523,0.67463c-0.21879,0.4376 -0.3282,0.97852 -0.3282,1.62276c0,0.25526 0.03039,0.57738 0.09116,0.96636c0.06078,0.38898 0.12763,0.81441 0.20056,1.27632c0.07293,0.44975 0.13979,0.89951 0.20056,1.34925c0.06078,0.44975 0.09116,0.86304 0.09116,1.23986c0,0.66855 -0.10332,1.14869 -0.30997,1.44043c-0.20664,0.29174 -0.49837,0.4376 -0.8752,0.4376c-0.42544,0 -0.75364,-0.13371 -0.98459,-0.40113c-0.23095,-0.27958 -0.40721,-0.72932 -0.52876,-1.34925c-0.09724,-0.55915 -0.19448,-1.22162 -0.29174,-1.98742c-0.09724,-0.76579 -0.17625,-1.54982 -0.23703,-2.35208c-0.06078,-0.80226 -0.09116,-1.52551 -0.09116,-2.16975zM220.38686,185.34233c-0.41329,0 -0.69894,-0.15802 -0.85696,-0.47406c-0.14586,-0.3282 -0.23095,-0.84481 -0.25526,-1.54982l0.18233,0.09116c-0.6807,1.32494 -1.96919,1.98742 -3.86544,1.98742c-0.86304,0 -1.58021,-0.15194 -2.15152,-0.45583c-0.57131,-0.31605 -0.99675,-0.72932 -1.27632,-1.23986c-0.26742,-0.52269 -0.40113,-1.08791 -0.40113,-1.69569c0,-1.04537 0.36467,-1.87194 1.09399,-2.47972c0.72932,-0.61993 1.69569,-0.9299 2.89908,-0.9299c0.7901,0 1.47689,0.11547 2.06035,0.34643c0.58346,0.23095 1.08184,0.55307 1.49512,0.96636l-0.30997,-0.03647c-0.08509,-1.2277 -0.35251,-2.1029 -0.80226,-2.62558c-0.4376,-0.53484 -1.0636,-0.80226 -1.87802,-0.80226c-0.47406,0 -0.91166,0.07293 -1.31279,0.21879c-0.40113,0.14586 -0.77187,0.29781 -1.11222,0.45583c-0.3282,0.14586 -0.63816,0.21879 -0.9299,0.21879c-0.29174,0 -0.52269,-0.09724 -0.69286,-0.29174c-0.15802,-0.19448 -0.23703,-0.44368 -0.23703,-0.74756c0,-0.4376 0.20664,-0.85089 0.61993,-1.23986c0.42544,-0.38898 0.98459,-0.70501 1.67745,-0.94813c0.69286,-0.24311 1.4465,-0.36467 2.26092,-0.36467c0.98459,0 1.82939,0.23703 2.53442,0.71109c0.70501,0.47406 1.23986,1.16692 1.60452,2.07859c0.31605,0.77795 0.54092,1.64707 0.67463,2.60735c0.13371,0.96028 0.20056,1.98742 0.20056,3.08141c0,0.82658 -0.04254,1.46474 -0.12763,1.91448c-0.08509,0.44975 -0.21879,0.76579 -0.40113,0.94813c-0.17017,0.17017 -0.40113,0.25526 -0.69286,0.25526zM216.35733,183.30021c0.40113,0 0.80833,-0.0547 1.22162,-0.1641c0.41329,-0.12155 0.75971,-0.29781 1.03929,-0.52876c0.27958,-0.23095 0.41937,-0.51661 0.41937,-0.85696c0,-0.29174 -0.12155,-0.52876 -0.36467,-0.71109c-0.23095,-0.19448 -0.54092,-0.34036 -0.9299,-0.4376c-0.37682,-0.09724 -0.78402,-0.14586 -1.22162,-0.14586c-0.74148,0 -1.30671,0.12763 -1.69569,0.3829c-0.37682,0.25526 -0.56523,0.59562 -0.56523,1.02106c0,0.46191 0.17625,0.82049 0.52876,1.07576c0.36467,0.24311 0.88735,0.36467 1.56806,0.36467zM225.07234,173.85541c0.3282,0 0.60169,0.19448 0.82049,0.58346c0.21879,0.37682 0.37074,0.97852 0.45583,1.80508l-0.3829,0.34643c0.21879,-0.85089 0.62601,-1.5012 1.22162,-1.95096c0.59562,-0.44975 1.30063,-0.67463 2.11505,-0.67463c0.75364,0 1.42219,0.19448 2.00566,0.58346c0.58346,0.38898 1.03929,0.97852 1.36749,1.76862c0.34036,0.77795 0.51053,1.75646 0.51053,2.93554c0,1.9084 -0.34643,3.31844 -1.03929,4.2301c-0.6807,0.89951 -1.6106,1.34925 -2.78968,1.34925c-0.85089,0 -1.51944,-0.18233 -2.00566,-0.547c-0.48622,-0.36467 -0.82658,-0.80833 -1.02106,-1.33102l0.21879,-0.1094c0.09724,0.72932 0.17625,1.45258 0.23703,2.16975c0.07293,0.70501 0.1094,1.32494 0.1094,1.85978c0,0.547 -0.09724,1.00891 -0.29174,1.38573c-0.19448,0.37682 -0.50445,0.56523 -0.9299,0.56523c-0.41329,0 -0.72325,-0.15802 -0.9299,-0.47406c-0.20664,-0.31605 -0.35859,-0.7354 -0.45583,-1.25809c-0.07293,-0.53484 -0.14586,-1.22162 -0.21879,-2.06035c-0.07293,-0.83873 -0.13371,-1.74431 -0.18233,-2.71675c-0.03647,-0.97244 -0.0547,-1.92056 -0.0547,-2.84438c0,-0.94813 0.03039,-1.83547 0.09116,-2.66205c0.07293,-0.83873 0.15802,-1.51944 0.25526,-2.04212c0.08509,-0.30389 0.19448,-0.52876 0.3282,-0.67463c0.14586,-0.15802 0.33428,-0.23703 0.56523,-0.23703zM228.55488,176.06163c-0.65639,0 -1.18516,0.3282 -1.58629,0.98459c-0.38898,0.64424 -0.58346,1.47081 -0.58346,2.47972c0,1.03322 0.19448,1.80508 0.58346,2.31561c0.40113,0.51053 0.91774,0.76579 1.54982,0.76579c0.72932,0 1.25201,-0.28566 1.56806,-0.85696c0.3282,-0.58346 0.4923,-1.3371 0.4923,-2.26092c0,-1.17908 -0.20056,-2.04212 -0.60169,-2.58912c-0.40113,-0.55915 -0.8752,-0.83873 -1.42219,-0.83873zM240.13767,185.30586c-1.34925,0 -2.42501,-0.20056 -3.22728,-0.60169c-0.80226,-0.40113 -1.37965,-0.97852 -1.73215,-1.73215c-0.35251,-0.75364 -0.52876,-1.65314 -0.52876,-2.69851c0,-1.32494 0.24311,-2.44932 0.72932,-3.37314c0.49837,-0.93597 1.17908,-1.65314 2.04212,-2.15152c0.8752,-0.49837 1.86586,-0.74756 2.97201,-0.74756c1.30063,0 2.25484,0.30389 2.86261,0.91166c0.60777,0.59562 0.91166,1.37965 0.91166,2.35208c0,0.77795 -0.20664,1.45258 -0.61993,2.02389c-0.40113,0.55915 -0.96028,0.99067 -1.67745,1.29455c-0.71717,0.30389 -1.54375,0.45583 -2.47972,0.45583c-0.52269,0 -1.02714,-0.06685 -1.51336,-0.20056c-0.48622,-0.13371 -0.92382,-0.31605 -1.31279,-0.547l0.4376,-0.80226c-0.03647,0.29174 -0.0547,0.58346 -0.0547,0.8752c0,0.85089 0.26742,1.46474 0.80226,1.84155c0.53484,0.36467 1.29455,0.547 2.27915,0.547c0.76579,0 1.37965,-0.06685 1.84155,-0.20056c0.46191,-0.13371 0.85089,-0.26134 1.16692,-0.3829c0.31605,-0.13371 0.62601,-0.20056 0.9299,-0.20056c0.17017,0 0.32212,0.04862 0.45583,0.14586c0.14586,0.08509 0.26134,0.21272 0.34643,0.3829c0.09724,0.17017 0.14586,0.37682 0.14586,0.61993c0,0.36467 -0.18233,0.71717 -0.547,1.05753c-0.36467,0.3282 -0.90559,0.60169 -1.62276,0.82049c-0.70501,0.20664 -1.57413,0.30997 -2.60735,0.30997zM239.08014,179.34361c0.86304,0 1.5559,-0.18233 2.07859,-0.547c0.52269,-0.36467 0.78402,-0.81441 0.78402,-1.34925c0,-0.42544 -0.14586,-0.77187 -0.4376,-1.03929c-0.27958,-0.27958 -0.72325,-0.41937 -1.33102,-0.41937c-0.57131,0 -1.08791,0.1094 -1.54982,0.3282c-0.44975,0.20664 -0.80226,0.48014 -1.05753,0.82049c-0.25526,0.34036 -0.3829,0.71109 -0.3829,1.11222c0,0.35251 0.1641,0.62601 0.4923,0.82049c0.34036,0.18233 0.80833,0.27349 1.40396,0.27349zM251.13015,173.74602c1.08184,0 1.85978,0.15802 2.33385,0.47406c0.47406,0.31605 0.71109,0.72325 0.71109,1.22162c0,0.29174 -0.10332,0.53484 -0.30997,0.72932c-0.19448,0.18233 -0.47406,0.27349 -0.83873,0.27349c-0.37682,0 -0.77187,-0.0547 -1.18516,-0.1641c-0.40113,-0.1094 -0.86912,-0.1641 -1.40396,-0.1641c-0.61993,0 -1.08184,0.12155 -1.38573,0.36467c-0.30389,0.24311 -0.45583,0.55307 -0.45583,0.9299c0,0.35251 0.13371,0.63208 0.40113,0.83873c0.27958,0.19448 0.80833,0.34036 1.58629,0.4376c0.86304,0.09724 1.57413,0.25526 2.13329,0.47406c0.57131,0.20664 0.99675,0.52269 1.27632,0.94813c0.27958,0.41329 0.41937,0.98459 0.41937,1.71392c0,1.15477 -0.40721,2.01173 -1.22162,2.57088c-0.81441,0.55915 -1.9388,0.83873 -3.37314,0.83873c-0.91166,0 -1.63491,-0.07293 -2.16975,-0.21879c-0.53484,-0.14586 -0.92382,-0.35251 -1.16692,-0.61993c-0.23095,-0.26742 -0.34643,-0.58346 -0.34643,-0.94813c0,-0.31605 0.10332,-0.55915 0.30997,-0.72932c0.21879,-0.18233 0.47406,-0.27349 0.76579,-0.27349c0.27958,0 0.57738,0.03647 0.89343,0.1094c0.31605,0.06078 0.65032,0.12763 1.00283,0.20056c0.35251,0.07293 0.71717,0.1094 1.09399,0.1094c1.21554,0 1.82332,-0.37682 1.82332,-1.13046c0,-0.25526 -0.06078,-0.46191 -0.18233,-0.61993c-0.12155,-0.15802 -0.34036,-0.28566 -0.65639,-0.3829c-0.31605,-0.1094 -0.77795,-0.19448 -1.38573,-0.25526c-0.72932,-0.07293 -1.36141,-0.19448 -1.89625,-0.36467c-0.53484,-0.18233 -0.94813,-0.47406 -1.23986,-0.8752c-0.29174,-0.41329 -0.4376,-0.97852 -0.4376,-1.69569c0,-1.13046 0.42544,-2.04212 1.27632,-2.73498c0.85089,-0.70501 2.06035,-1.05753 3.62841,-1.05753zM257.86155,171.17513c0.48622,0 0.83265,0.13371 1.03929,0.40113c0.21879,0.26742 0.3282,0.57738 0.3282,0.9299c0,0.4376 -0.13371,0.77795 -0.40113,1.02106c-0.25526,0.23095 -0.61993,0.34643 -1.09399,0.34643c-0.46191,0 -0.80833,-0.12763 -1.03929,-0.3829c-0.23095,-0.26742 -0.34643,-0.57738 -0.34643,-0.9299c0,-0.46191 0.13979,-0.80833 0.41937,-1.03929c0.27958,-0.23095 0.64424,-0.34643 1.09399,-0.34643zM257.97095,175.24113c0.38898,0 0.69286,0.36467 0.91166,1.09399c0.23095,0.72932 0.34643,1.89017 0.34643,3.48254c0,1.95703 -0.13979,3.36706 -0.41937,4.2301c-0.27958,0.86304 -0.70501,1.29455 -1.27632,1.29455c-0.4376,0 -0.75971,-0.31605 -0.96636,-0.94813c-0.20664,-0.64424 -0.30997,-1.76254 -0.30997,-3.35491c0,-1.95703 0.15802,-3.40961 0.47406,-4.35773c0.3282,-0.96028 0.74148,-1.44043 1.23986,-1.44043zM269.66131,185.05059c-0.3282,0 -0.58346,-0.1094 -0.76579,-0.3282c-0.17017,-0.23095 -0.28566,-0.52269 -0.34643,-0.8752c-0.06078,-0.36467 -0.09116,-0.74756 -0.09116,-1.14869l0.09116,-0.07293c-0.12155,0.52269 -0.35859,0.97244 -0.71109,1.34925c-0.35251,0.37682 -0.75971,0.66855 -1.22162,0.8752c-0.46191,0.19448 -0.92382,0.29174 -1.38573,0.29174c-0.61993,0 -1.18516,-0.14586 -1.69569,-0.4376c-0.51053,-0.29174 -0.90559,-0.74148 -1.18516,-1.34925c-0.27958,-0.64424 -0.49837,-1.45258 -0.65639,-2.42501c-0.15802,-0.98459 -0.23703,-1.9935 -0.23703,-3.02671c0,-0.55915 0.02431,-1.07576 0.07293,-1.54982c0.04862,-0.47406 0.12763,-0.86304 0.23703,-1.16692c0.09724,-0.31605 0.24311,-0.547 0.4376,-0.69286c0.19448,-0.15802 0.44368,-0.23703 0.74756,-0.23703c0.35251,0 0.62601,0.13979 0.82049,0.41937c0.20664,0.26742 0.33428,0.64424 0.3829,1.13046c0.04862,0.40113 0.07901,0.89951 0.09116,1.49512c0.02431,0.58346 0.04254,1.173 0.0547,1.76862c0.02431,0.58346 0.0547,1.07576 0.09116,1.47689c0.07293,0.72932 0.26134,1.27024 0.56523,1.62276c0.30389,0.34036 0.67463,0.51053 1.11222,0.51053c0.64424,0 1.13654,-0.24311 1.47689,-0.72932c0.34036,-0.48622 0.51053,-1.16692 0.51053,-2.04212c0,-0.4376 -0.02431,-0.9299 -0.07293,-1.47689c-0.04862,-0.55915 -0.10332,-1.10007 -0.1641,-1.62276c-0.04862,-0.52269 -0.07293,-0.95421 -0.07293,-1.29455c0,-0.57131 0.09724,-0.97852 0.29174,-1.22162c0.19448,-0.25526 0.46191,-0.3829 0.80226,-0.3829c0.29174,0 0.53484,0.07901 0.72932,0.23703c0.20664,0.15802 0.37074,0.37682 0.4923,0.65639c0.17017,0.36467 0.31605,0.86304 0.4376,1.49512c0.12155,0.63208 0.21879,1.34925 0.29174,2.15152c0.07293,0.80226 0.1094,1.64707 0.1094,2.53442c0,1.36141 -0.09116,2.38247 -0.27349,3.06318c-0.18233,0.66855 -0.50445,1.00283 -0.96636,1.00283zM280.9776,176.80919c0.12155,-0.49837 0.33428,-0.94813 0.63816,-1.34925c0.31605,-0.40113 0.69286,-0.71717 1.13046,-0.94813c0.44975,-0.24311 0.94205,-0.36467 1.47689,-0.36467c0.63208,0 1.19123,0.15194 1.67745,0.45583c0.48622,0.30389 0.86912,0.80226 1.14869,1.49512c0.29174,0.69286 0.4376,1.61668 0.4376,2.77145c0,0.59562 -0.02431,1.19731 -0.07293,1.80508c-0.04862,0.60777 -0.1094,1.173 -0.18233,1.69569c-0.07293,0.52269 -0.15194,0.96028 -0.23703,1.31279c-0.12155,0.48622 -0.30997,0.85696 -0.56523,1.11222c-0.24311,0.25526 -0.55307,0.3829 -0.9299,0.3829c-0.31605,0 -0.56523,-0.13979 -0.74756,-0.41937c-0.18233,-0.27958 -0.27349,-0.6807 -0.27349,-1.20339c0,-0.24311 0.03039,-0.55307 0.09116,-0.9299c0.06078,-0.38898 0.12763,-0.80833 0.20056,-1.25809c0.07293,-0.46191 0.13979,-0.9299 0.20056,-1.40396c0.06078,-0.47406 0.09116,-0.92382 0.09116,-1.34925c0,-0.63208 -0.12763,-1.1183 -0.3829,-1.45866c-0.25526,-0.35251 -0.61385,-0.52876 -1.07576,-0.52876c-0.51053,0 -0.93597,0.26742 -1.27632,0.80226c-0.3282,0.52269 -0.52269,1.28848 -0.58346,2.29738c-0.04862,0.89951 -0.09116,1.70176 -0.12763,2.40678c-0.03647,0.69286 -0.12763,1.26417 -0.27349,1.71392c-0.09724,0.31605 -0.23703,0.55307 -0.41937,0.71109c-0.17017,0.15802 -0.40113,0.23703 -0.69286,0.23703c-0.3282,0 -0.58954,-0.12155 -0.78402,-0.36467c-0.18233,-0.24311 -0.28566,-0.62601 -0.30997,-1.14869c-0.02431,-0.4376 -0.03039,-0.95421 -0.01823,-1.54982c0.01216,-0.59562 0.01823,-1.18516 0.01823,-1.76862c0.01216,-0.59562 0.00608,-1.08791 -0.01823,-1.47689c-0.04862,-0.77795 -0.18841,-1.34925 -0.41937,-1.71392c-0.21879,-0.36467 -0.55307,-0.547 -1.00283,-0.547c-0.52269,0 -0.94205,0.24311 -1.25809,0.72932c-0.30389,0.48622 -0.4923,1.16085 -0.56523,2.02389c-0.02431,0.35251 -0.03647,0.7901 -0.03647,1.31279c0.01216,0.51053 0.02431,1.02106 0.03647,1.53159c0.01216,0.51053 0.00608,0.93597 -0.01823,1.27632c-0.01216,0.72932 -0.12763,1.25201 -0.34643,1.56806c-0.20664,0.31605 -0.49837,0.47406 -0.8752,0.47406c-0.44975,0 -0.77795,-0.14586 -0.98459,-0.4376c-0.19448,-0.29174 -0.32212,-0.75971 -0.3829,-1.40396c-0.04862,-0.57131 -0.08509,-1.13654 -0.1094,-1.69569c-0.02431,-0.57131 -0.03647,-1.13654 -0.03647,-1.69569c0,-0.57131 0.01216,-1.19123 0.03647,-1.85978c0.03647,-0.66855 0.08509,-1.30063 0.14586,-1.89625c0.07293,-0.60777 0.20056,-1.1183 0.3829,-1.53159c0.18233,-0.41329 0.48622,-0.61993 0.91166,-0.61993c0.35251,0 0.60169,0.17625 0.74756,0.52876c0.14586,0.34036 0.21879,0.86912 0.21879,1.58629c0,0.24311 -0.01823,0.46799 -0.0547,0.67463l-0.0547,-0.36467c0.24311,-0.7901 0.63208,-1.40396 1.16692,-1.84155c0.53484,-0.44975 1.13046,-0.67463 1.78685,-0.67463c0.86304,0 1.53767,0.27958 2.02389,0.83873c0.48622,0.547 0.75364,1.30671 0.80226,2.27915z"/></g></g></svg>