<svg version="1.1" xmlns="http://www.w3.org/2000/svg" xmlns:xlink="http://www.w3.org/1999/xlink" width="64.70178" height="15.89799" viewBox="0,0,64.70178,15.89799"><g transform="translate(-207.64911,-172.051)"><g data-paper-data="{&quot;isPaintingLayer&quot;:true}" fill-rule="nonzero" stroke-width="1" stroke-linecap="butt" stroke-linejoin="miter" stroke-miterlimit="10" stroke-dasharray="" stroke-dashoffset="0" style="mix-blend-mode: normal"><path d="M213.02949,172.551h53.94103c2.69551,0 4.88038,2.18502 4.88038,4.88038v5.13724c0,2.69536 -2.18487,4.88038 -4.88038,4.88038h-53.94103c-2.69536,0 -4.88038,-2.18502 -4.88038,-4.88038v-5.13724c0,-2.69536 2.18502,-4.88038 4.88038,-4.88038z" fill="#a5a7a9" stroke="#000000"/><path d="M218.63627,178.41517c0.10927,0 0.19213,0.03766 0.24864,0.11302c0.05651,0.07156 0.08476,0.19023 0.08476,0.35601c0,0.20719 -0.0245,0.44077 -0.07347,0.70072c-0.04895,0.25994 -0.11867,0.50668 -0.20908,0.74028l-0.09041,-0.11302c0.3014,-0.06407 0.61405,-0.09417 0.93806,-0.09041c0.32401,0.00375 0.61786,0.04146 0.88155,0.11302l-0.10172,0.05086c-0.04895,-0.2524 -0.08666,-0.50294 -0.11302,-0.75157c-0.02261,-0.24864 -0.0339,-0.46903 -0.0339,-0.66116c0,-0.17708 0.02636,-0.30325 0.07912,-0.37861c0.05276,-0.07536 0.13752,-0.11302 0.25429,-0.11302c0.12057,0 0.21474,0.04331 0.28255,0.12998c0.06781,0.08287 0.12057,0.21474 0.15823,0.39557c0.04146,0.18838 0.07347,0.41627 0.09606,0.68377c0.02636,0.26369 0.03955,0.53494 0.03955,0.81374c0,0.27499 -0.00756,0.5557 -0.02261,0.842c-0.01505,0.2863 -0.04331,0.55189 -0.08476,0.79679c-0.0339,0.19589 -0.08852,0.33716 -0.16388,0.42382c-0.07536,0.08666 -0.17893,0.12998 -0.3108,0.12998c-0.13563,0 -0.23359,-0.04331 -0.29385,-0.12998c-0.05651,-0.08666 -0.08476,-0.24864 -0.08476,-0.48598c0,-0.22979 0.01696,-0.46903 0.05086,-0.71767c0.03766,-0.24864 0.08852,-0.49354 0.15257,-0.73463l0.11867,0.17518c-0.2863,0.06026 -0.5858,0.09041 -0.89851,0.09041c-0.30891,-0.00375 -0.6103,-0.0339 -0.90416,-0.09041l0.0113,-0.19213c0.07536,0.24489 0.14503,0.49728 0.20908,0.75723c0.06781,0.25994 0.10172,0.51989 0.10172,0.77983c0,0.20719 -0.03581,0.35411 -0.10737,0.44077c-0.07156,0.08287 -0.17328,0.12432 -0.30515,0.12432c-0.11302,0 -0.20343,-0.03201 -0.27125,-0.09606c-0.06781,-0.06407 -0.11677,-0.18273 -0.14692,-0.35601c-0.03015,-0.16953 -0.05461,-0.38052 -0.07347,-0.63291c-0.01885,-0.25619 -0.02825,-0.52554 -0.02825,-0.80808c0,-0.33531 0.01505,-0.66116 0.04521,-0.97761c0.03015,-0.31645 0.06971,-0.5877 0.11867,-0.81374c0.03766,-0.17708 0.09232,-0.30705 0.16388,-0.38992c0.07156,-0.08287 0.16578,-0.12432 0.28255,-0.12432zM224.26391,182.62514c-0.12807,0 -0.21659,-0.04895 -0.26559,-0.14692c-0.04521,-0.10172 -0.07156,-0.26185 -0.07912,-0.48033l0.05651,0.02825c-0.21094,0.41062 -0.6103,0.61596 -1.198,0.61596c-0.26745,0 -0.48973,-0.04711 -0.66681,-0.14127c-0.17703,-0.09797 -0.30891,-0.22604 -0.39557,-0.38427c-0.08287,-0.16197 -0.12432,-0.33716 -0.12432,-0.52554c0,-0.32401 0.11302,-0.58015 0.33906,-0.76853c0.22604,-0.19213 0.52554,-0.2882 0.89851,-0.2882c0.24489,0 0.45773,0.03581 0.63856,0.10737c0.18083,0.07156 0.33531,0.17143 0.46338,0.29951l-0.09606,-0.0113c-0.02636,-0.38052 -0.10922,-0.65176 -0.24864,-0.81374c-0.13563,-0.16578 -0.32961,-0.24864 -0.58205,-0.24864c-0.14692,0 -0.28255,0.02261 -0.40687,0.06781c-0.12432,0.04521 -0.23919,0.09232 -0.34471,0.14127c-0.10172,0.04521 -0.19778,0.06781 -0.2882,0.06781c-0.09041,0 -0.16197,-0.03015 -0.21474,-0.09041c-0.04895,-0.06026 -0.07347,-0.13752 -0.07347,-0.23169c0,-0.13563 0.06407,-0.26369 0.19213,-0.38427c0.13187,-0.12057 0.30515,-0.21848 0.51989,-0.29385c0.21474,-0.07536 0.44833,-0.11302 0.70072,-0.11302c0.30515,0 0.567,0.07347 0.78549,0.22039c0.21854,0.14692 0.38427,0.36166 0.49728,0.64421c0.09797,0.24109 0.16768,0.51049 0.20908,0.80808c0.04146,0.2976 0.06216,0.61596 0.06216,0.95502c0,0.25619 -0.01315,0.45398 -0.03955,0.59335c-0.02636,0.13938 -0.06781,0.23734 -0.12432,0.29385c-0.05271,0.05276 -0.12432,0.07912 -0.21474,0.07912zM223.01504,181.99222c0.12432,0 0.25054,-0.01696 0.37861,-0.05086c0.12812,-0.03766 0.23549,-0.09232 0.3221,-0.16388c0.08666,-0.07156 0.12998,-0.16013 0.12998,-0.26559c0,-0.09041 -0.03766,-0.16388 -0.11302,-0.22039c-0.07156,-0.06026 -0.16763,-0.10546 -0.2882,-0.13563c-0.11677,-0.03015 -0.243,-0.04521 -0.37861,-0.04521c-0.22979,0 -0.40497,0.03955 -0.52554,0.11867c-0.11677,0.07912 -0.17518,0.18458 -0.17518,0.31645c0,0.14317 0.05466,0.25429 0.16388,0.33341c0.11302,0.07536 0.27505,0.11302 0.48598,0.11302zM225.7161,179.06502c0.10172,0 0.18649,0.06026 0.25429,0.18083c0.06781,0.11677 0.11487,0.30325 0.14127,0.55945l-0.11867,0.10737c0.06781,-0.26369 0.19398,-0.46528 0.37861,-0.60465c0.18458,-0.13938 0.40307,-0.20908 0.65551,-0.20908c0.23354,0 0.44077,0.06026 0.62161,0.18083c0.18083,0.12057 0.3221,0.30325 0.42382,0.54814c0.10546,0.24109 0.15823,0.54439 0.15823,0.90981c0,0.59145 -0.10737,1.02847 -0.3221,1.31102c-0.21099,0.2788 -0.49919,0.41817 -0.86459,0.41817c-0.26375,0 -0.47093,-0.05651 -0.62161,-0.16953c-0.15073,-0.11302 -0.25619,-0.25054 -0.31645,-0.41252l0.06781,-0.0339c0.0301,0.22604 0.05461,0.45018 0.07347,0.67247c0.02261,0.21848 0.0339,0.41062 0.0339,0.5764c0,0.16953 -0.03015,0.3127 -0.09041,0.42947c-0.06031,0.11677 -0.15638,0.17518 -0.2882,0.17518c-0.12812,0 -0.22419,-0.04895 -0.2882,-0.14692c-0.06407,-0.09797 -0.11117,-0.22794 -0.14127,-0.38992c-0.02261,-0.16578 -0.04521,-0.37861 -0.06781,-0.63856c-0.02261,-0.25994 -0.04146,-0.54059 -0.05651,-0.842c-0.0113,-0.3014 -0.01696,-0.59525 -0.01696,-0.88155c0,-0.29385 0.0094,-0.56885 0.02825,-0.82504c0.02261,-0.25994 0.04895,-0.47093 0.07912,-0.63291c0.02636,-0.09417 0.06026,-0.16388 0.10172,-0.20908c0.04521,-0.04895 0.10357,-0.07347 0.17518,-0.07347zM226.79544,179.74879c-0.20343,0 -0.36731,0.10172 -0.49163,0.30515c-0.12057,0.19968 -0.18083,0.45583 -0.18083,0.76853c0,0.3202 0.06026,0.55945 0.18083,0.71767c0.12432,0.15823 0.28439,0.23734 0.48033,0.23734c0.22604,0 0.38801,-0.08852 0.48598,-0.26559c0.10172,-0.18083 0.15257,-0.41442 0.15257,-0.70072c0,-0.36542 -0.06216,-0.63291 -0.18649,-0.80244c-0.12432,-0.17328 -0.27125,-0.25994 -0.44077,-0.25994zM231.3459,182.53472c-0.10172,0 -0.18083,-0.0339 -0.23734,-0.10172c-0.05276,-0.07156 -0.08852,-0.16197 -0.10737,-0.27125c-0.01885,-0.11302 -0.02825,-0.23169 -0.02825,-0.35601l0.02825,-0.02261c-0.03766,0.16197 -0.11112,0.3014 -0.22039,0.41817c-0.10927,0.11677 -0.23544,0.20719 -0.37861,0.27125c-0.14317,0.06026 -0.2863,0.09041 -0.42947,0.09041c-0.19213,0 -0.36731,-0.04521 -0.52554,-0.13563c-0.15823,-0.09041 -0.28065,-0.22979 -0.36731,-0.41817c-0.08666,-0.19968 -0.15448,-0.45018 -0.20343,-0.75157c-0.04895,-0.30515 -0.07347,-0.61786 -0.07347,-0.93806c0,-0.17328 0.00756,-0.33341 0.02261,-0.48033c0.01505,-0.14692 0.03955,-0.2675 0.07347,-0.36166c0.03015,-0.09797 0.07536,-0.16953 0.13563,-0.21474c0.06026,-0.04895 0.13752,-0.07347 0.23169,-0.07347c0.10927,0 0.19403,0.04331 0.25429,0.12998c0.06407,0.08287 0.10362,0.19968 0.11867,0.35036c0.01505,0.12432 0.0245,0.2788 0.02825,0.46338c0.00756,0.18083 0.0132,0.36356 0.01696,0.54814c0.00756,0.18083 0.01696,0.33341 0.02825,0.45773c0.02261,0.22604 0.08101,0.39367 0.17518,0.50294c0.09417,0.10546 0.20908,0.15823 0.34471,0.15823c0.19968,0 0.35226,-0.07536 0.45773,-0.22604c0.10546,-0.15068 0.15823,-0.36166 0.15823,-0.63291c0,-0.13563 -0.00756,-0.2882 -0.02261,-0.45773c-0.01505,-0.17328 -0.03201,-0.34096 -0.05086,-0.50294c-0.01505,-0.16197 -0.02261,-0.29575 -0.02261,-0.40122c0,-0.17708 0.03015,-0.30325 0.09041,-0.37861c0.06026,-0.07912 0.14317,-0.11867 0.24864,-0.11867c0.09041,0 0.16578,0.0245 0.22604,0.07347c0.06407,0.04895 0.11492,0.11677 0.15257,0.20343c0.05276,0.11302 0.09797,0.2675 0.13563,0.46338c0.03766,0.19589 0.06781,0.41817 0.09041,0.66681c0.02261,0.24864 0.0339,0.51049 0.0339,0.78549c0,0.42193 -0.02825,0.73838 -0.08476,0.94936c-0.05651,0.20719 -0.15632,0.3108 -0.29951,0.3108zM233.84728,179.03112c0.33531,0 0.5764,0.04895 0.72332,0.14692c0.14692,0.09797 0.22039,0.22414 0.22039,0.37861c0,0.09041 -0.03201,0.16578 -0.09606,0.22604c-0.06026,0.05651 -0.14692,0.08476 -0.25994,0.08476c-0.11677,0 -0.23919,-0.01696 -0.36731,-0.05086c-0.12432,-0.0339 -0.26934,-0.05086 -0.43512,-0.05086c-0.19213,0 -0.33526,0.03766 -0.42947,0.11302c-0.09417,0.07536 -0.14127,0.17143 -0.14127,0.2882c0,0.10927 0.04146,0.19589 0.12432,0.25994c0.08666,0.06026 0.25054,0.10546 0.49163,0.13563c0.2675,0.03015 0.48788,0.07912 0.66116,0.14692c0.17708,0.06407 0.30895,0.16197 0.39557,0.29385c0.08666,0.12807 0.12998,0.30515 0.12998,0.53119c0,0.35791 -0.12617,0.6235 -0.37861,0.79679c-0.2524,0.17328 -0.60085,0.25994 -1.04543,0.25994c-0.28255,0 -0.50668,-0.02261 -0.67247,-0.06781c-0.16573,-0.04521 -0.2863,-0.10927 -0.36166,-0.19213c-0.07156,-0.08287 -0.10737,-0.18083 -0.10737,-0.29385c0,-0.09797 0.03206,-0.17328 0.09606,-0.22604c0.06781,-0.05651 0.14692,-0.08476 0.23734,-0.08476c0.08666,0 0.17898,0.0113 0.2769,0.0339c0.09797,0.01885 0.20159,0.03955 0.3108,0.06216c0.10927,0.02261 0.22229,0.0339 0.33906,0.0339c0.37677,0 0.5651,-0.11677 0.5651,-0.35036c0,-0.07912 -0.0188,-0.14317 -0.05651,-0.19213c-0.03766,-0.04895 -0.10546,-0.08852 -0.20343,-0.11867c-0.09792,-0.0339 -0.24109,-0.06026 -0.42947,-0.07912c-0.22604,-0.02261 -0.42193,-0.06026 -0.5877,-0.11302c-0.16573,-0.05651 -0.29385,-0.14692 -0.38427,-0.27125c-0.09041,-0.12807 -0.13563,-0.30325 -0.13563,-0.52554c0,-0.35036 0.13187,-0.63291 0.39557,-0.84765c0.26375,-0.21848 0.63856,-0.32776 1.12455,-0.32776zM238.17807,179.21196c-0.17708,0.05276 -0.34096,0.09417 -0.49163,0.12432c-0.15073,0.02636 -0.292,0.03955 -0.42382,0.03955c-0.12057,0 -0.21474,-0.0245 -0.28255,-0.07347c-0.06781,-0.04895 -0.10172,-0.12242 -0.10172,-0.22039c0,-0.08287 0.02825,-0.16197 0.08476,-0.23734c0.05651,-0.07536 0.14312,-0.14317 0.25994,-0.20343c0.13938,-0.06781 0.31645,-0.12432 0.53119,-0.16953c0.21474,-0.04521 0.46523,-0.06781 0.75157,-0.06781c0.19213,0 0.35976,0.0132 0.50294,0.03955c0.14312,0.02261 0.25614,0.05086 0.33906,0.08476c0.10922,0.04521 0.18458,0.09797 0.22604,0.15823c0.04521,0.05651 0.06781,0.12242 0.06781,0.19778c0,0.09417 -0.0339,0.17143 -0.10172,0.23169c-0.06781,0.06026 -0.17708,0.09041 -0.32776,0.09041c-0.09041,0 -0.18463,-0.00565 -0.28255,-0.01696c-0.09422,-0.0113 -0.19403,-0.02636 -0.29951,-0.04521zM238.56799,178.9068c0.19213,0.24109 0.3409,0.52179 0.44643,0.842c0.10922,0.31645 0.16388,0.64796 0.16388,0.99457c0,0.36166 -0.05086,0.68566 -0.15257,0.97196c-0.09797,0.28255 -0.25619,0.50668 -0.47468,0.67247c-0.21854,0.16197 -0.50859,0.243 -0.87025,0.243c-0.44457,0 -0.77798,-0.12432 -1.00022,-0.37296c-0.22229,-0.24864 -0.33341,-0.5896 -0.33341,-1.02283c0,-0.21099 0.02636,-0.38992 0.07912,-0.53684c0.05651,-0.14692 0.12998,-0.25805 0.22039,-0.33341c0.09041,-0.07912 0.18833,-0.11867 0.29385,-0.11867c0.09792,0 0.17138,0.03015 0.22039,0.09041c0.05271,0.05651 0.07912,0.13752 0.07912,0.243c0,0.08666 -0.0151,0.18273 -0.04521,0.2882c-0.02641,0.10172 -0.03955,0.20154 -0.03955,0.29951c0,0.2524 0.04331,0.43703 0.12998,0.55379c0.09041,0.11302 0.23354,0.16953 0.42947,0.16953c0.25994,0 0.44263,-0.10546 0.54814,-0.31645c0.10922,-0.21474 0.16388,-0.50668 0.16388,-0.8759c0,-0.2675 -0.02825,-0.52929 -0.08476,-0.78549c-0.05651,-0.25619 -0.14692,-0.51799 -0.27125,-0.78549zM242.57987,182.62514c-0.12807,0 -0.21659,-0.04895 -0.26559,-0.14692c-0.04521,-0.10172 -0.07156,-0.26185 -0.07912,-0.48033l0.05651,0.02825c-0.21094,0.41062 -0.6103,0.61596 -1.198,0.61596c-0.26745,0 -0.48973,-0.04711 -0.66681,-0.14127c-0.17703,-0.09797 -0.30891,-0.22604 -0.39557,-0.38427c-0.08287,-0.16197 -0.12432,-0.33716 -0.12432,-0.52554c0,-0.32401 0.11302,-0.58015 0.33906,-0.76853c0.22604,-0.19213 0.52554,-0.2882 0.89851,-0.2882c0.24489,0 0.45773,0.03581 0.63856,0.10737c0.18083,0.07156 0.33531,0.17143 0.46338,0.29951l-0.09606,-0.0113c-0.02636,-0.38052 -0.10922,-0.65176 -0.24864,-0.81374c-0.13563,-0.16578 -0.32961,-0.24864 -0.58205,-0.24864c-0.14692,0 -0.28255,0.02261 -0.40687,0.06781c-0.12432,0.04521 -0.23919,0.09232 -0.34471,0.14127c-0.10172,0.04521 -0.19778,0.06781 -0.2882,0.06781c-0.09041,0 -0.16197,-0.03015 -0.21474,-0.09041c-0.04895,-0.06026 -0.07347,-0.13752 -0.07347,-0.23169c0,-0.13563 0.06407,-0.26369 0.19213,-0.38427c0.13187,-0.12057 0.30515,-0.21848 0.51989,-0.29385c0.21474,-0.07536 0.44833,-0.11302 0.70072,-0.11302c0.30515,0 0.567,0.07347 0.78549,0.22039c0.21854,0.14692 0.38427,0.36166 0.49728,0.64421c0.09797,0.24109 0.16768,0.51049 0.20908,0.80808c0.04146,0.2976 0.06216,0.61596 0.06216,0.95502c0,0.25619 -0.01315,0.45398 -0.03955,0.59335c-0.02636,0.13938 -0.06781,0.23734 -0.12432,0.29385c-0.05271,0.05276 -0.12432,0.07912 -0.21474,0.07912zM241.331,181.99222c0.12432,0 0.25054,-0.01696 0.37861,-0.05086c0.12812,-0.03766 0.23549,-0.09232 0.3221,-0.16388c0.08666,-0.07156 0.12998,-0.16013 0.12998,-0.26559c0,-0.09041 -0.03766,-0.16388 -0.11302,-0.22039c-0.07156,-0.06026 -0.16763,-0.10546 -0.2882,-0.13563c-0.11677,-0.03015 -0.243,-0.04521 -0.37861,-0.04521c-0.22979,0 -0.40497,0.03955 -0.52554,0.11867c-0.11677,0.07912 -0.17518,0.18458 -0.17518,0.31645c0,0.14317 0.05466,0.25429 0.16388,0.33341c0.11302,0.07536 0.27505,0.11302 0.48598,0.11302zM243.44436,180.27433c0,-0.39182 0.04521,-0.67437 0.13563,-0.84765c0.09417,-0.17328 0.21664,-0.25994 0.36731,-0.25994c0.08666,0 0.15257,0.03201 0.19778,0.09606c0.04895,0.06026 0.08287,0.14317 0.10172,0.24864c0.01885,0.10172 0.02825,0.21664 0.02825,0.34471c0,0.16197 0,0.35226 0,0.57075c0.00375,0.21474 0.00756,0.43703 0.0113,0.66681c0.00756,0.22604 0.01505,0.43703 0.02261,0.63291h0.02261c0.11677,-0.49354 0.23359,-0.89851 0.35036,-1.21496c0.12057,-0.31645 0.243,-0.55005 0.36731,-0.70072c0.12807,-0.15448 0.25619,-0.23169 0.38427,-0.23169c0.13938,0 0.27125,0.07721 0.39557,0.23169c0.12807,0.15068 0.2524,0.38052 0.37296,0.68942c0.12432,0.30891 0.25054,0.69882 0.37861,1.16975h0.02261c0.0113,-0.32401 0.01885,-0.66491 0.02261,-1.02283c0.00375,-0.35791 0.00565,-0.68566 0.00565,-0.98327c0,-0.21474 0.03581,-0.37296 0.10737,-0.47468c0.07156,-0.10172 0.17143,-0.15257 0.29951,-0.15257c0.16197,0 0.2788,0.08476 0.35036,0.25429c0.07536,0.16578 0.11302,0.38992 0.11302,0.67247c0,0.20719 -0.0113,0.42947 -0.0339,0.66681c-0.01885,0.23359 -0.04711,0.45962 -0.08476,0.67812c-0.03766,0.21848 -0.08287,0.40877 -0.13563,0.57075c-0.07912,0.24109 -0.16763,0.42382 -0.26559,0.54814c-0.09417,0.12432 -0.21848,0.18649 -0.37296,0.18649c-0.13938,0 -0.2788,-0.08101 -0.41817,-0.243c-0.13563,-0.16578 -0.26369,-0.41252 -0.38427,-0.74028c-0.12057,-0.32776 -0.23169,-0.73652 -0.33341,-1.22626h-0.02261c-0.09797,0.46713 -0.21474,0.85894 -0.35036,1.1754c-0.13187,0.3127 -0.27315,0.54814 -0.42382,0.70637c-0.14692,0.15823 -0.29385,0.23734 -0.44077,0.23734c-0.15448,0 -0.28445,-0.06971 -0.38992,-0.20908c-0.10172,-0.13938 -0.18649,-0.35411 -0.25429,-0.64421c-0.03015,-0.14692 -0.05651,-0.30325 -0.07912,-0.46903c-0.02261,-0.16953 -0.03955,-0.33531 -0.05086,-0.49728c-0.0113,-0.16197 -0.01696,-0.30515 -0.01696,-0.42947zM250.45479,182.62514c-0.12807,0 -0.21659,-0.04895 -0.26559,-0.14692c-0.04521,-0.10172 -0.07156,-0.26185 -0.07912,-0.48033l0.05651,0.02825c-0.21094,0.41062 -0.6103,0.61596 -1.198,0.61596c-0.26745,0 -0.48973,-0.04711 -0.66681,-0.14127c-0.17703,-0.09797 -0.30891,-0.22604 -0.39557,-0.38427c-0.08287,-0.16197 -0.12432,-0.33716 -0.12432,-0.52554c0,-0.32401 0.11302,-0.58015 0.33906,-0.76853c0.22604,-0.19213 0.52554,-0.2882 0.89851,-0.2882c0.24489,0 0.45773,0.03581 0.63856,0.10737c0.18083,0.07156 0.33531,0.17143 0.46338,0.29951l-0.09606,-0.0113c-0.02636,-0.38052 -0.10922,-0.65176 -0.24864,-0.81374c-0.13563,-0.16578 -0.32961,-0.24864 -0.58205,-0.24864c-0.14692,0 -0.28255,0.02261 -0.40687,0.06781c-0.12432,0.04521 -0.23919,0.09232 -0.34471,0.14127c-0.10172,0.04521 -0.19778,0.06781 -0.2882,0.06781c-0.09041,0 -0.16197,-0.03015 -0.21474,-0.09041c-0.04895,-0.06026 -0.07347,-0.13752 -0.07347,-0.23169c0,-0.13563 0.06407,-0.26369 0.19213,-0.38427c0.13187,-0.12057 0.30515,-0.21848 0.51989,-0.29385c0.21474,-0.07536 0.44833,-0.11302 0.70072,-0.11302c0.30515,0 0.567,0.07347 0.78549,0.22039c0.21854,0.14692 0.38427,0.36166 0.49728,0.64421c0.09797,0.24109 0.16768,0.51049 0.20908,0.80808c0.04146,0.2976 0.06216,0.61596 0.06216,0.95502c0,0.25619 -0.01315,0.45398 -0.03955,0.59335c-0.02636,0.13938 -0.06781,0.23734 -0.12432,0.29385c-0.05271,0.05276 -0.12432,0.07912 -0.21474,0.07912zM249.20593,181.99222c0.12432,0 0.25054,-0.01696 0.37861,-0.05086c0.12812,-0.03766 0.23549,-0.09232 0.3221,-0.16388c0.08666,-0.07156 0.12998,-0.16013 0.12998,-0.26559c0,-0.09041 -0.03766,-0.16388 -0.11302,-0.22039c-0.07156,-0.06026 -0.16763,-0.10546 -0.2882,-0.13563c-0.11677,-0.03015 -0.243,-0.04521 -0.37861,-0.04521c-0.22979,0 -0.40497,0.03955 -0.52554,0.11867c-0.11677,0.07912 -0.17518,0.18458 -0.17518,0.31645c0,0.14317 0.05466,0.25429 0.16388,0.33341c0.11302,0.07536 0.27505,0.11302 0.48598,0.11302zM251.9522,182.62514c-0.08287,0 -0.15068,-0.02825 -0.20343,-0.08476c-0.04895,-0.05651 -0.08852,-0.13752 -0.11867,-0.243c-0.03015,-0.15448 -0.05651,-0.35601 -0.07912,-0.60465c-0.01885,-0.2524 -0.02825,-0.52179 -0.02825,-0.80808c0,-0.16197 0.00375,-0.34471 0.0113,-0.54814c0.00756,-0.20343 0.01696,-0.40877 0.02825,-0.61596c0.01505,-0.21099 0.03015,-0.40687 0.04521,-0.5877c0.01885,-0.18083 0.03766,-0.32776 0.05651,-0.44077c0.03015,-0.16578 0.07347,-0.29575 0.12998,-0.38992c0.06026,-0.09797 0.15448,-0.14692 0.28255,-0.14692c0.13187,0 0.22794,0.05086 0.2882,0.15257c0.06026,0.09797 0.09041,0.22039 0.09041,0.36731c0,0.16578 -0.0132,0.36166 -0.03955,0.5877c-0.02261,0.22604 -0.05841,0.45583 -0.10737,0.68942l-0.11302,0.13563c0.04146,-0.15823 0.10927,-0.30325 0.20343,-0.43512c0.09417,-0.13187 0.21283,-0.23544 0.35601,-0.3108c0.14317,-0.07912 0.30891,-0.11867 0.49728,-0.11867c0.36921,0 0.66307,0.13187 0.88155,0.39557c0.22229,0.25994 0.33341,0.66681 0.33341,1.22061c0,0.38801 -0.05841,0.71202 -0.17518,0.97196c-0.11302,0.25994 -0.26934,0.45583 -0.46903,0.5877c-0.19589,0.12807 -0.42007,0.19213 -0.67247,0.19213c-0.23734,0 -0.44268,-0.06971 -0.61596,-0.20908c-0.16953,-0.13938 -0.2788,-0.34096 -0.32776,-0.60465l0.07912,0.06216c-0.01505,0.27125 -0.05276,0.47093 -0.11302,0.599c-0.05651,0.12432 -0.12998,0.18649 -0.22039,0.18649zM252.98632,181.93571c0.18838,0 0.35411,-0.08476 0.49728,-0.25429c0.14317,-0.16953 0.21474,-0.43512 0.21474,-0.79679c0,-0.3014 -0.05651,-0.54624 -0.16953,-0.73463c-0.10927,-0.18838 -0.29385,-0.28255 -0.55379,-0.28255c-0.21099,0 -0.38052,0.08476 -0.50859,0.25429c-0.12807,0.16578 -0.19213,0.41817 -0.19213,0.75723c0,0.30891 0.06407,0.56319 0.19213,0.76288c0.12807,0.19589 0.3014,0.29385 0.51989,0.29385zM257.50751,182.62514c-0.12812,0 -0.21664,-0.04895 -0.26559,-0.14692c-0.04521,-0.10172 -0.07161,-0.26185 -0.07912,-0.48033l0.05651,0.02825c-0.21099,0.41062 -0.6103,0.61596 -1.198,0.61596c-0.2675,0 -0.48979,-0.04711 -0.66681,-0.14127c-0.17708,-0.09797 -0.30895,-0.22604 -0.39557,-0.38427c-0.08292,-0.16197 -0.12432,-0.33716 -0.12432,-0.52554c0,-0.32401 0.11302,-0.58015 0.33906,-0.76853c0.22604,-0.19213 0.52554,-0.2882 0.89851,-0.2882c0.24484,0 0.45773,0.03581 0.63856,0.10737c0.18083,0.07156 0.33526,0.17143 0.46338,0.29951l-0.09606,-0.0113c-0.02641,-0.38052 -0.10927,-0.65176 -0.24864,-0.81374c-0.13563,-0.16578 -0.32966,-0.24864 -0.58205,-0.24864c-0.14692,0 -0.28255,0.02261 -0.40687,0.06781c-0.12432,0.04521 -0.23924,0.09232 -0.34471,0.14127c-0.10172,0.04521 -0.19778,0.06781 -0.2882,0.06781c-0.09041,0 -0.16203,-0.03015 -0.21474,-0.09041c-0.04901,-0.06026 -0.07347,-0.13752 -0.07347,-0.23169c0,-0.13563 0.06401,-0.26369 0.19213,-0.38427c0.13182,-0.12057 0.30515,-0.21848 0.51989,-0.29385c0.21474,-0.07536 0.44827,-0.11302 0.70072,-0.11302c0.30515,0 0.56694,0.07347 0.78549,0.22039c0.21848,0.14692 0.38427,0.36166 0.49728,0.64421c0.09792,0.24109 0.16763,0.51049 0.20908,0.80808c0.04141,0.2976 0.06216,0.61596 0.06216,0.95502c0,0.25619 -0.0132,0.45398 -0.03955,0.59335c-0.02641,0.13938 -0.06781,0.23734 -0.12432,0.29385c-0.05276,0.05276 -0.12432,0.07912 -0.21474,0.07912zM256.25864,181.99222c0.12432,0 0.25049,-0.01696 0.37861,-0.05086c0.12807,-0.03766 0.23544,-0.09232 0.3221,-0.16388c0.08661,-0.07156 0.12998,-0.16013 0.12998,-0.26559c0,-0.09041 -0.03771,-0.16388 -0.11302,-0.22039c-0.07161,-0.06026 -0.16768,-0.10546 -0.2882,-0.13563c-0.11682,-0.03015 -0.243,-0.04521 -0.37861,-0.04521c-0.22984,0 -0.40502,0.03955 -0.52554,0.11867c-0.11682,0.07912 -0.17518,0.18458 -0.17518,0.31645c0,0.14317 0.05461,0.25429 0.16388,0.33341c0.11302,0.07536 0.27499,0.11302 0.48598,0.11302zM259.15179,179.05372c0.12057,0 0.20174,0.04895 0.24284,0.14692c0.04521,0.09797 0.06781,0.243 0.06781,0.43512c0,0.04521 -0.0036,0.09417 -0.0113,0.14692c-0.0036,0.04895 -0.0113,0.09417 -0.02261,0.13563l-0.0113,-0.11302c0.09041,-0.24489 0.23014,-0.43512 0.41817,-0.57075c0.18854,-0.13938 0.38838,-0.20908 0.599,-0.20908c0.23374,0 0.42793,0.06591 0.58205,0.19778c0.15823,0.13187 0.27536,0.31645 0.35036,0.55379c0.07912,0.23734 0.11867,0.51799 0.11867,0.842c0,0.19968 -0.00925,0.39747 -0.02825,0.59335c-0.0149,0.19213 -0.0375,0.36921 -0.06781,0.53119c-0.0262,0.15823 -0.05651,0.2882 -0.09041,0.38992c-0.04521,0.12807 -0.10326,0.22414 -0.17518,0.2882c-0.0714,0.06026 -0.15617,0.09041 -0.25429,0.09041c-0.09761,0 -0.17313,-0.03581 -0.22604,-0.10737c-0.0524,-0.07156 -0.07912,-0.16763 -0.07912,-0.2882c0,-0.12807 0.00976,-0.28255 0.02825,-0.46338c0.01901,-0.18458 0.03596,-0.37107 0.05086,-0.55945c0.01901,-0.19213 0.02825,-0.36542 0.02825,-0.51989c0,-0.52744 -0.17313,-0.79114 -0.51989,-0.79114c-0.18442,0 -0.33906,0.08287 -0.46338,0.24864c-0.12432,0.16197 -0.20703,0.39367 -0.24864,0.69506c-0.0113,0.10172 -0.01696,0.22794 -0.01696,0.37861c0,0.15068 0,0.3014 0,0.45208c0.00411,0.14692 0,0.27125 -0.0113,0.37296c-0.0149,0.22604 -0.05805,0.38801 -0.12998,0.48598c-0.06766,0.09797 -0.16183,0.14692 -0.28239,0.14692c-0.13938,0 -0.24489,-0.06407 -0.31645,-0.19213c-0.07156,-0.13187 -0.10737,-0.35226 -0.10737,-0.66116c0,-0.15823 0.00375,-0.33531 0.0113,-0.53119c0.00756,-0.19589 0.01696,-0.39182 0.02825,-0.5877c0.01505,-0.19968 0.03201,-0.38052 0.05086,-0.54249c0.03766,-0.30515 0.09232,-0.54624 0.16388,-0.72332c0.07156,-0.18083 0.17893,-0.27125 0.3221,-0.27125z" fill="#000000" stroke="none"/></g></g></svg>