<svg version="1.1" xmlns="http://www.w3.org/2000/svg" xmlns:xlink="http://www.w3.org/1999/xlink" width="116.47728" height="29.89724" viewBox="0,0,116.47728,29.89724"><g transform="translate(-181.76136,-165.05138)"><g data-paper-data="{&quot;isPaintingLayer&quot;:true}" fill="#000000" fill-rule="nonzero" stroke="none" stroke-width="1" stroke-linecap="butt" stroke-linejoin="miter" stroke-miterlimit="10" stroke-dasharray="" stroke-dashoffset="0" style="mix-blend-mode: normal"><path d="M184.58748,166.76973c-0.27331,0.08141 -0.52626,0.14537 -0.75886,0.1919c-0.23261,0.0407 -0.45067,0.06106 -0.65419,0.06106c-0.18608,0 -0.33146,-0.0378 -0.43613,-0.11339c-0.10467,-0.07559 -0.15701,-0.18899 -0.15701,-0.34018c0,-0.12793 0.04361,-0.25004 0.13084,-0.36635c0.08723,-0.1163 0.22097,-0.22097 0.40124,-0.31401c0.21515,-0.10467 0.48846,-0.1919 0.81992,-0.26168c0.33146,-0.06978 0.71815,-0.10467 1.1601,-0.10467c0.29657,0 0.55533,0.02035 0.77631,0.06106c0.22097,0.03489 0.39542,0.0785 0.52335,0.13084c0.16863,0.06978 0.28494,0.15119 0.3489,0.24423c0.06978,0.08723 0.10467,0.18899 0.10467,0.30529c0,0.14537 -0.05234,0.26459 -0.15701,0.35763c-0.10467,0.09304 -0.27331,0.13956 -0.50591,0.13956c-0.13956,0 -0.28494,-0.00872 -0.43613,-0.02617c-0.14538,-0.01745 -0.29948,-0.0407 -0.4623,-0.06978zM185.18933,166.29871c0.29657,0.37216 0.52626,0.80539 0.68908,1.29966c0.16863,0.48846 0.25295,1.00019 0.25295,1.53517c0,0.55824 -0.0785,1.05834 -0.23551,1.50028c-0.15119,0.43613 -0.39543,0.7821 -0.7327,1.03799c-0.33728,0.25003 -0.78503,0.37507 -1.34328,0.37507c-0.68618,0 -1.20081,-0.1919 -1.5439,-0.57569c-0.34309,-0.38379 -0.51463,-0.91006 -0.51463,-1.57879c0,-0.32564 0.04071,-0.60186 0.12212,-0.82864c0.08723,-0.22679 0.20062,-0.39833 0.34018,-0.51463c0.13956,-0.12212 0.29075,-0.18317 0.45358,-0.18317c0.15119,0 0.26458,0.04652 0.34018,0.13956c0.08141,0.08723 0.12212,0.21225 0.12212,0.37507c0,0.13375 -0.02326,0.28203 -0.06978,0.44485c-0.04071,0.15701 -0.06106,0.3111 -0.06106,0.4623c0,0.38961 0.06687,0.67455 0.20062,0.85481c0.13956,0.17445 0.36053,0.26168 0.66292,0.26168c0.40124,0 0.68326,-0.1628 0.84609,-0.48846c0.16863,-0.33146 0.25295,-0.78212 0.25295,-1.352c0,-0.41287 -0.04361,-0.81701 -0.13084,-1.21244c-0.08723,-0.39543 -0.22679,-0.79957 -0.41868,-1.21244zM191.38196,172.03816c-0.19775,0 -0.33439,-0.07557 -0.40996,-0.22679c-0.06978,-0.15701 -0.11053,-0.40417 -0.12212,-0.74142l0.08723,0.04361c-0.32566,0.63382 -0.94204,0.95076 -1.84919,0.95076c-0.41289,0 -0.756,-0.07271 -1.02926,-0.21806c-0.27332,-0.15121 -0.47684,-0.3489 -0.61059,-0.59313c-0.12793,-0.25003 -0.1919,-0.52043 -0.1919,-0.8112c0,-0.5001 0.17445,-0.89552 0.52335,-1.18627c0.34892,-0.29657 0.81121,-0.44485 1.3869,-0.44485c0.37794,0 0.70653,0.05525 0.98565,0.16573c0.27912,0.11048 0.5175,0.26459 0.71525,0.4623l-0.14828,-0.01745c-0.04075,-0.58732 -0.16866,-1.00601 -0.38379,-1.25605c-0.20934,-0.25586 -0.50884,-0.38379 -0.89842,-0.38379c-0.22679,0 -0.43613,0.03489 -0.62803,0.10467c-0.1919,0.06978 -0.36928,0.14247 -0.53208,0.21806c-0.15701,0.06978 -0.30529,0.10467 -0.44486,0.10467c-0.13956,0 -0.25004,-0.04652 -0.33146,-0.13956c-0.07559,-0.09304 -0.11339,-0.21225 -0.11339,-0.35763c0,-0.20934 0.09886,-0.40705 0.29657,-0.59313c0.2035,-0.18608 0.47103,-0.33727 0.80249,-0.45357c0.33146,-0.1163 0.69195,-0.17445 1.0816,-0.17445c0.47102,0 0.87512,0.11339 1.21244,0.34018c0.33725,0.22679 0.59313,0.55824 0.76759,0.99437c0.15115,0.37216 0.25875,0.78794 0.32274,1.24733c0.06392,0.45939 0.09595,0.95076 0.09595,1.47411c0,0.39544 -0.02037,0.70073 -0.06106,0.91587c-0.04075,0.21514 -0.10467,0.36635 -0.1919,0.45357c-0.08143,0.08143 -0.1919,0.12212 -0.33146,0.12212zM189.45427,171.06123c0.1919,0 0.38666,-0.02617 0.58441,-0.0785c0.19769,-0.05813 0.36342,-0.14249 0.49719,-0.25295c0.1337,-0.11048 0.20062,-0.24714 0.20062,-0.40996c0,-0.13956 -0.05819,-0.25295 -0.17445,-0.34018c-0.11053,-0.09304 -0.25881,-0.16282 -0.44485,-0.20934c-0.18031,-0.04652 -0.37507,-0.06978 -0.58441,-0.06978c-0.35476,0 -0.62516,0.06106 -0.8112,0.18317c-0.18031,0.12212 -0.2704,0.28494 -0.2704,0.48846c0,0.22097 0.0843,0.39252 0.25295,0.51463c0.17445,0.11632 0.42448,0.17445 0.75014,0.17445zM193.07395,173.76523c-0.23264,0 -0.44199,-0.04941 -0.62803,-0.14828c-0.1861,-0.09888 -0.33439,-0.22386 -0.44485,-0.37507c-0.11053,-0.15121 -0.16573,-0.30529 -0.16573,-0.4623c0,-0.13377 0.03489,-0.23844 0.10467,-0.31401c0.06978,-0.07557 0.15987,-0.11339 0.2704,-0.11339c0.1919,0 0.39831,0.07271 0.6193,0.21806c0.22093,0.14536 0.43027,0.34597 0.62803,0.60186l-0.13084,-0.01745c-0.09888,-0.81413 -0.17445,-1.5933 -0.22679,-2.33765c-0.04654,-0.75014 -0.06978,-1.42178 -0.06978,-2.01491c0,-0.5408 0.04361,-0.94495 0.13084,-1.21244c0.09302,-0.27331 0.24423,-0.40996 0.45357,-0.40996c0.23838,0 0.42741,0.18608 0.56697,0.55824c0.13956,0.37216 0.20934,1.00019 0.20934,1.88408c0,0.38961 -0.01165,0.79084 -0.03489,1.20371c-0.0233,0.40703 -0.05819,0.79375 -0.10467,1.1601c-0.04075,0.36635 -0.09888,0.67457 -0.17445,0.92459c-0.09308,0.30236 -0.22099,0.52043 -0.38379,0.65419c-0.15701,0.13377 -0.36348,0.20062 -0.6193,0.20062zM193.47519,166.45572c-0.1861,0 -0.33731,-0.0407 -0.45357,-0.12212c-0.11053,-0.08723 -0.16573,-0.21806 -0.16573,-0.39252c0,-0.19771 0.06685,-0.36344 0.20062,-0.49719c0.13956,-0.13956 0.33432,-0.20934 0.58441,-0.20934c0.20934,0 0.36921,0.05234 0.47974,0.15701c0.11047,0.09886 0.16573,0.2326 0.16573,0.40124c0,0.20934 -0.07564,0.37216 -0.22679,0.48846c-0.15121,0.1163 -0.34604,0.17445 -0.58441,0.17445zM199.26972,172.03816c-0.19769,0 -0.33432,-0.07557 -0.40996,-0.22679c-0.06978,-0.15701 -0.11047,-0.40417 -0.12212,-0.74142l0.08723,0.04361c-0.3256,0.63382 -0.94204,0.95076 -1.84919,0.95076c-0.41283,0 -0.75594,-0.07271 -1.02926,-0.21806c-0.27327,-0.15121 -0.47681,-0.3489 -0.61058,-0.59313c-0.12791,-0.25003 -0.1919,-0.52043 -0.1919,-0.8112c0,-0.5001 0.17445,-0.89552 0.52335,-1.18627c0.3489,-0.29657 0.8112,-0.44485 1.38689,-0.44485c0.378,0 0.70653,0.05525 0.98565,0.16573c0.27912,0.11048 0.51756,0.26459 0.71525,0.4623l-0.14828,-0.01745c-0.04068,-0.58732 -0.16859,-1.00601 -0.38379,-1.25605c-0.20934,-0.25586 -0.50878,-0.38379 -0.89842,-0.38379c-0.22679,0 -0.43613,0.03489 -0.62803,0.10467c-0.1919,0.06978 -0.36921,0.14247 -0.53208,0.21806c-0.15701,0.06978 -0.30529,0.10467 -0.44485,0.10467c-0.13956,0 -0.25003,-0.04652 -0.33146,-0.13956c-0.07557,-0.09304 -0.11339,-0.21225 -0.11339,-0.35763c0,-0.20934 0.09888,-0.40705 0.29657,-0.59313c0.20355,-0.18608 0.47102,-0.33727 0.80248,-0.45357c0.33146,-0.1163 0.69201,-0.17445 1.0816,-0.17445c0.47102,0 0.87519,0.11339 1.21244,0.34018c0.33731,0.22679 0.59313,0.55824 0.76759,0.99437c0.15121,0.37216 0.25881,0.78794 0.32274,1.24733c0.06399,0.45939 0.09595,0.95076 0.09595,1.47411c0,0.39544 -0.02031,0.70073 -0.06106,0.91587c-0.04068,0.21514 -0.10467,0.36635 -0.1919,0.45357c-0.08137,0.08143 -0.1919,0.12212 -0.33146,0.12212zM197.34203,171.06123c0.1919,0 0.38672,-0.02617 0.58441,-0.0785c0.19775,-0.05813 0.36348,-0.14249 0.49719,-0.25295c0.13377,-0.11048 0.20062,-0.24714 0.20062,-0.40996c0,-0.13956 -0.05813,-0.25295 -0.17445,-0.34018c-0.11047,-0.09304 -0.25875,-0.16282 -0.44485,-0.20934c-0.18025,-0.04652 -0.37507,-0.06978 -0.58441,-0.06978c-0.3547,0 -0.6251,0.06106 -0.8112,0.18317c-0.18025,0.12212 -0.2704,0.28494 -0.2704,0.48846c0,0.22097 0.08436,0.39252 0.25295,0.51463c0.17445,0.11632 0.42454,0.17445 0.75014,0.17445zM200.9181,168.01706c0,-0.55824 0.05234,-0.95948 0.15701,-1.20371c0.10467,-0.25004 0.25295,-0.37507 0.44485,-0.37507c0.15121,0 0.2704,0.06397 0.35763,0.1919c0.08723,0.12212 0.15121,0.27621 0.1919,0.4623c0.04068,0.18026 0.06106,0.36344 0.06106,0.54952l-0.04361,-0.01745c0.09888,-0.31401 0.25003,-0.58441 0.45357,-0.8112c0.20934,-0.22679 0.45937,-0.34018 0.75014,-0.34018c0.34311,0 0.59606,0.14247 0.75886,0.42741c0.1628,0.27912 0.24423,0.62803 0.24423,1.04671c0,0.55824 -0.06399,0.94785 -0.1919,1.16882c-0.12791,0.22097 -0.2995,0.33146 -0.51463,0.33146c-0.15701,0 -0.27333,-0.06397 -0.3489,-0.1919c-0.06978,-0.12793 -0.09302,-0.35472 -0.06978,-0.68036c0.02324,-0.34309 0.00293,-0.5815 -0.06106,-0.71525c-0.06399,-0.13375 -0.16573,-0.20062 -0.30529,-0.20062c-0.16866,0 -0.30822,0.10758 -0.41868,0.32274c-0.10467,0.20934 -0.15701,0.46811 -0.15701,0.77631c0,0.12212 0.01452,0.27621 0.04361,0.4623c0.0291,0.18608 0.06106,0.38961 0.09595,0.61058c0.03489,0.21515 0.06685,0.43032 0.09595,0.64547c0.0291,0.21515 0.04361,0.41289 0.04361,0.59313c0,0.31981 -0.04941,0.54952 -0.14828,0.68908c-0.09888,0.13956 -0.23844,0.20934 -0.41868,0.20934c-0.20355,0 -0.36055,-0.06399 -0.47102,-0.1919c-0.11047,-0.13377 -0.19482,-0.3489 -0.25295,-0.64547c-0.04654,-0.26747 -0.09302,-0.58441 -0.13956,-0.95076c-0.04654,-0.36635 -0.0843,-0.74142 -0.11339,-1.12521c-0.0291,-0.38379 -0.04361,-0.72979 -0.04361,-1.03799zM208.47864,171.81137c-0.54659,0 -0.99144,-0.20934 -1.33455,-0.62803c-0.34305,-0.42448 -0.51463,-1.06706 -0.51463,-1.92769c0,-0.91878 0.16573,-1.59042 0.49719,-2.01491c0.33146,-0.4245 0.76759,-0.63675 1.30839,-0.63675c0.31987,0 0.60186,0.08141 0.84609,0.24423c0.24423,0.16282 0.45357,0.39252 0.62803,0.68908l-0.06978,0.12212c-0.01745,-0.08141 -0.03196,-0.16864 -0.04361,-0.26168c-0.01159,-0.09304 -0.01745,-0.16282 -0.01745,-0.20934c0,-0.23842 0.03782,-0.42159 0.11339,-0.54952c0.08143,-0.13375 0.20648,-0.20062 0.37507,-0.20062c0.1861,0 0.33146,0.07559 0.43613,0.22679c0.11053,0.15119 0.19482,0.36635 0.25295,0.64547c0.07564,0.28494 0.13956,0.64838 0.1919,1.09032c0.05234,0.43613 0.0785,0.87807 0.0785,1.32583c0,0.55824 -0.02031,1.02634 -0.06106,1.40433c-0.04068,0.378 -0.10754,0.69201 -0.20062,0.94204c-0.09302,0.25003 -0.21514,0.46809 -0.36635,0.65419c-0.25003,0.30236 -0.57276,0.53208 -0.96821,0.68908c-0.38959,0.1628 -0.84023,0.24423 -1.352,0.24423c-0.36635,0 -0.65999,-0.03489 -0.88098,-0.10467c-0.22093,-0.06399 -0.38086,-0.15408 -0.47974,-0.2704c-0.09302,-0.11047 -0.13956,-0.23551 -0.13956,-0.37507c0,-0.14536 0.04075,-0.26747 0.12212,-0.36635c0.08143,-0.09302 0.20355,-0.13956 0.36635,-0.13956c0.14542,0 0.31401,0.02324 0.50591,0.06978c0.19775,0.04654 0.43033,0.06978 0.69781,0.06978c0.5641,0 0.96241,-0.13377 1.19499,-0.40124c0.23844,-0.26168 0.35763,-0.63968 0.35763,-1.13393c0,-0.13377 -0.00872,-0.29077 -0.02617,-0.47102l0.12212,0.04361c-0.14536,0.37214 -0.36049,0.67164 -0.64547,0.89842c-0.28492,0.22099 -0.61637,0.33146 -0.99437,0.33146zM208.8101,170.7385c0.1861,0 0.3722,-0.04943 0.55824,-0.14828c0.1861,-0.09886 0.34018,-0.26168 0.4623,-0.48846c0.12212,-0.22679 0.18317,-0.53208 0.18317,-0.91587c0,-0.45939 -0.10754,-0.83446 -0.32274,-1.12521c-0.21514,-0.29075 -0.5175,-0.43613 -0.90715,-0.43613c-0.33725,0 -0.58441,0.12793 -0.74142,0.38379c-0.15701,0.25586 -0.23551,0.64256 -0.23551,1.1601c0,0.49428 0.0785,0.88098 0.23551,1.1601c0.15701,0.27331 0.41289,0.40996 0.76759,0.40996zM214.73216,172.02072c-0.64547,0 -1.1601,-0.09595 -1.5439,-0.28784c-0.38379,-0.1919 -0.66005,-0.46809 -0.82864,-0.82864c-0.16866,-0.36054 -0.25295,-0.79084 -0.25295,-1.29094c0,-0.63384 0.11626,-1.17173 0.3489,-1.61368c0.23838,-0.44776 0.56404,-0.79084 0.97693,-1.02926c0.41868,-0.23842 0.89257,-0.35763 1.42178,-0.35763c0.62217,0 1.07867,0.14537 1.36944,0.43613c0.29071,0.28494 0.43613,0.66001 0.43613,1.12521c0,0.37216 -0.09888,0.6949 -0.29657,0.96821c-0.1919,0.26749 -0.45943,0.47393 -0.80248,0.6193c-0.34311,0.14537 -0.73855,0.21806 -1.18627,0.21806c-0.25009,0 -0.49139,-0.03198 -0.72397,-0.09595c-0.23264,-0.06397 -0.44199,-0.15119 -0.62803,-0.26168l0.20934,-0.38379c-0.01745,0.13956 -0.02617,0.27912 -0.02617,0.41868c0,0.40705 0.12791,0.70072 0.38379,0.88098c0.25582,0.17445 0.6193,0.26168 1.09032,0.26168c0.36635,0 0.65999,-0.03196 0.88098,-0.09595c0.22093,-0.06397 0.40703,-0.12503 0.55824,-0.18317c0.15115,-0.06397 0.29943,-0.09595 0.44485,-0.09595c0.08137,0 0.15408,0.02326 0.21806,0.06978c0.06978,0.0407 0.12498,0.10176 0.16573,0.18317c0.04648,0.08143 0.06978,0.18025 0.06978,0.29657c0,0.17445 -0.08723,0.34311 -0.26168,0.50591c-0.17445,0.15701 -0.43326,0.28784 -0.77631,0.39252c-0.33731,0.09888 -0.75307,0.14828 -1.24733,0.14828zM214.22625,169.16843c0.41283,0 0.74428,-0.08723 0.99437,-0.26168c0.25003,-0.17445 0.37507,-0.38961 0.37507,-0.64547c0,-0.20353 -0.06978,-0.36926 -0.20934,-0.49719c-0.13377,-0.13375 -0.34604,-0.20062 -0.63675,-0.20062c-0.27333,0 -0.52049,0.05234 -0.74142,0.15701c-0.2152,0.09886 -0.38379,0.2297 -0.50591,0.39252c-0.12212,0.16282 -0.18317,0.34018 -0.18317,0.53208c0,0.16864 0.0785,0.29948 0.23551,0.39252c0.1628,0.08723 0.38666,0.13084 0.67164,0.13084zM218.67371,166.5255c0.1861,0 0.31115,0.07559 0.37507,0.22679c0.06978,0.15119 0.10467,0.37507 0.10467,0.67164c0,0.06978 -0.00579,0.14537 -0.01745,0.22679c-0.00579,0.07559 -0.01745,0.14537 -0.03489,0.20934l-0.01745,-0.17445c0.13956,-0.37798 0.35476,-0.67164 0.64547,-0.88098c0.29077,-0.21515 0.59899,-0.32274 0.92459,-0.32274c0.36055,0 0.66005,0.10176 0.89842,0.30529c0.24423,0.20353 0.42454,0.48846 0.5408,0.85481c0.12212,0.36635 0.18317,0.79957 0.18317,1.29966c0,0.3082 -0.01452,0.61349 -0.04361,0.91587c-0.02324,0.29657 -0.05813,0.56988 -0.10467,0.81992c-0.04068,0.24423 -0.08723,0.44485 -0.13956,0.60186c-0.06978,0.19769 -0.15987,0.34597 -0.2704,0.44485c-0.11047,0.09302 -0.2413,0.13956 -0.39252,0.13956c-0.15115,0 -0.26747,-0.05526 -0.3489,-0.16573c-0.08137,-0.11047 -0.12212,-0.25875 -0.12212,-0.44485c0,-0.19769 0.01458,-0.43613 0.04361,-0.71525c0.0291,-0.28494 0.05526,-0.57278 0.0785,-0.86353c0.0291,-0.29657 0.04361,-0.56406 0.04361,-0.80248c0,-0.81411 -0.26747,-1.22116 -0.80248,-1.22116c-0.28492,0 -0.52335,0.12793 -0.71525,0.38379c-0.1919,0.25004 -0.31981,0.60767 -0.38379,1.07288c-0.01745,0.15701 -0.02617,0.35181 -0.02617,0.58441c0,0.2326 0,0.46521 0,0.69781c0.00586,0.22679 0,0.41868 -0.01745,0.57569c-0.02324,0.3489 -0.09009,0.59893 -0.20062,0.75014c-0.10467,0.15121 -0.25003,0.22679 -0.43613,0.22679c-0.21514,0 -0.37794,-0.09888 -0.48846,-0.29657c-0.11047,-0.20355 -0.16573,-0.54373 -0.16573,-1.02054c0,-0.24423 0.00586,-0.51754 0.01745,-0.81992c0.01165,-0.30238 0.02617,-0.60477 0.04361,-0.90715c0.0233,-0.3082 0.04947,-0.58732 0.0785,-0.83737c0.05819,-0.47102 0.14249,-0.84318 0.25295,-1.11649c0.11053,-0.27912 0.27626,-0.41868 0.49719,-0.41868zM223.38146,173.76523c-0.23264,0 -0.44199,-0.04941 -0.62803,-0.14828c-0.1861,-0.09888 -0.33439,-0.22386 -0.44485,-0.37507c-0.11053,-0.15121 -0.16573,-0.30529 -0.16573,-0.4623c0,-0.13377 0.03489,-0.23844 0.10467,-0.31401c0.06978,-0.07557 0.15987,-0.11339 0.2704,-0.11339c0.1919,0 0.39831,0.07271 0.6193,0.21806c0.22093,0.14536 0.43027,0.34597 0.62803,0.60186l-0.13084,-0.01745c-0.09888,-0.81413 -0.17445,-1.5933 -0.22679,-2.33765c-0.04654,-0.75014 -0.06978,-1.42178 -0.06978,-2.01491c0,-0.5408 0.04361,-0.94495 0.13084,-1.21244c0.09302,-0.27331 0.24423,-0.40996 0.45357,-0.40996c0.23838,0 0.42741,0.18608 0.56697,0.55824c0.13956,0.37216 0.20934,1.00019 0.20934,1.88408c0,0.38961 -0.01165,0.79084 -0.03489,1.20371c-0.0233,0.40703 -0.05819,0.79375 -0.10467,1.1601c-0.04075,0.36635 -0.09888,0.67457 -0.17445,0.92459c-0.09308,0.30236 -0.22099,0.52043 -0.38379,0.65419c-0.15701,0.13377 -0.36348,0.20062 -0.6193,0.20062zM223.7827,166.45572c-0.1861,0 -0.33731,-0.0407 -0.45357,-0.12212c-0.11053,-0.08723 -0.16573,-0.21806 -0.16573,-0.39252c0,-0.19771 0.06685,-0.36344 0.20062,-0.49719c0.13956,-0.13956 0.33432,-0.20934 0.58441,-0.20934c0.20934,0 0.36921,0.05234 0.47974,0.15701c0.11047,0.09886 0.16573,0.2326 0.16573,0.40124c0,0.20934 -0.07564,0.37216 -0.22679,0.48846c-0.15121,0.1163 -0.34604,0.17445 -0.58441,0.17445zM229.57729,172.03816c-0.19775,0 -0.33439,-0.07557 -0.40996,-0.22679c-0.06978,-0.15701 -0.11053,-0.40417 -0.12212,-0.74142l0.08723,0.04361c-0.32566,0.63382 -0.94204,0.95076 -1.84919,0.95076c-0.41289,0 -0.756,-0.07271 -1.02926,-0.21806c-0.27333,-0.15121 -0.47688,-0.3489 -0.61058,-0.59313c-0.12797,-0.25003 -0.1919,-0.52043 -0.1919,-0.8112c0,-0.5001 0.17445,-0.89552 0.52335,-1.18627c0.3489,-0.29657 0.8112,-0.44485 1.38689,-0.44485c0.37794,0 0.70653,0.05525 0.98565,0.16573c0.27912,0.11048 0.5175,0.26459 0.71525,0.4623l-0.14828,-0.01745c-0.04075,-0.58732 -0.16866,-1.00601 -0.38379,-1.25605c-0.20934,-0.25586 -0.50884,-0.38379 -0.89842,-0.38379c-0.22679,0 -0.43613,0.03489 -0.62803,0.10467c-0.1919,0.06978 -0.36928,0.14247 -0.53208,0.21806c-0.15701,0.06978 -0.30529,0.10467 -0.44485,0.10467c-0.13956,0 -0.25009,-0.04652 -0.33146,-0.13956c-0.07564,-0.09304 -0.11339,-0.21225 -0.11339,-0.35763c0,-0.20934 0.09881,-0.40705 0.29657,-0.59313c0.20349,-0.18608 0.47102,-0.33727 0.80248,-0.45357c0.33146,-0.1163 0.69195,-0.17445 1.0816,-0.17445c0.47102,0 0.87512,0.11339 1.21244,0.34018c0.33725,0.22679 0.59313,0.55824 0.76759,0.99437c0.15115,0.37216 0.25875,0.78794 0.32274,1.24733c0.06392,0.45939 0.09595,0.95076 0.09595,1.47411c0,0.39544 -0.02037,0.70073 -0.06106,0.91587c-0.04075,0.21514 -0.10467,0.36635 -0.1919,0.45357c-0.08143,0.08143 -0.1919,0.12212 -0.33146,0.12212zM227.64961,171.06123c0.1919,0 0.38666,-0.02617 0.58441,-0.0785c0.19769,-0.05813 0.36342,-0.14249 0.49719,-0.25295c0.1337,-0.11048 0.20062,-0.24714 0.20062,-0.40996c0,-0.13956 -0.05819,-0.25295 -0.17445,-0.34018c-0.11053,-0.09304 -0.25881,-0.16282 -0.44485,-0.20934c-0.18031,-0.04652 -0.37507,-0.06978 -0.58441,-0.06978c-0.35476,0 -0.62516,0.06106 -0.8112,0.18317c-0.18031,0.12212 -0.2704,0.28494 -0.2704,0.48846c0,0.22097 0.0843,0.39252 0.25295,0.51463c0.17445,0.11632 0.42448,0.17445 0.75014,0.17445zM232.11531,166.5255c0.1861,0 0.31115,0.07559 0.37507,0.22679c0.06978,0.15119 0.10467,0.37507 0.10467,0.67164c0,0.06978 -0.00579,0.14537 -0.01745,0.22679c-0.00579,0.07559 -0.01745,0.14537 -0.03489,0.20934l-0.01745,-0.17445c0.13956,-0.37798 0.35476,-0.67164 0.64547,-0.88098c0.29077,-0.21515 0.59899,-0.32274 0.92459,-0.32274c0.36055,0 0.66005,0.10176 0.89842,0.30529c0.24423,0.20353 0.42454,0.48846 0.5408,0.85481c0.12212,0.36635 0.18317,0.79957 0.18317,1.29966c0,0.3082 -0.01452,0.61349 -0.04361,0.91587c-0.02324,0.29657 -0.05813,0.56988 -0.10467,0.81992c-0.04068,0.24423 -0.08723,0.44485 -0.13956,0.60186c-0.06978,0.19769 -0.15987,0.34597 -0.2704,0.44485c-0.11047,0.09302 -0.2413,0.13956 -0.39252,0.13956c-0.15115,0 -0.26747,-0.05526 -0.3489,-0.16573c-0.08137,-0.11047 -0.12212,-0.25875 -0.12212,-0.44485c0,-0.19769 0.01458,-0.43613 0.04361,-0.71525c0.0291,-0.28494 0.05526,-0.57278 0.0785,-0.86353c0.0291,-0.29657 0.04361,-0.56406 0.04361,-0.80248c0,-0.81411 -0.26747,-1.22116 -0.80248,-1.22116c-0.28492,0 -0.52335,0.12793 -0.71525,0.38379c-0.1919,0.25004 -0.31981,0.60767 -0.38379,1.07288c-0.01745,0.15701 -0.02617,0.35181 -0.02617,0.58441c0,0.2326 0,0.46521 0,0.69781c0.00586,0.22679 0,0.41868 -0.01745,0.57569c-0.02324,0.3489 -0.09009,0.59893 -0.20062,0.75014c-0.10467,0.15121 -0.25003,0.22679 -0.43613,0.22679c-0.21514,0 -0.37794,-0.09888 -0.48846,-0.29657c-0.11047,-0.20355 -0.16573,-0.54373 -0.16573,-1.02054c0,-0.24423 0.00586,-0.51754 0.01745,-0.81992c0.01165,-0.30238 0.02617,-0.60477 0.04361,-0.90715c0.0233,-0.3082 0.04947,-0.58732 0.0785,-0.83737c0.05819,-0.47102 0.14249,-0.84318 0.25295,-1.11649c0.11053,-0.27912 0.27626,-0.41868 0.49719,-0.41868zM238.44547,171.81137c-0.54659,0 -0.99144,-0.20934 -1.33455,-0.62803c-0.34311,-0.42448 -0.51463,-1.06706 -0.51463,-1.92769c0,-0.91878 0.16573,-1.59042 0.49719,-2.01491c0.33146,-0.4245 0.76759,-0.63675 1.30839,-0.63675c0.31981,0 0.60186,0.08141 0.84609,0.24423c0.24423,0.16282 0.45357,0.39252 0.62803,0.68908l-0.06978,0.12212c-0.01745,-0.08141 -0.03196,-0.16864 -0.04361,-0.26168c-0.01165,-0.09304 -0.01745,-0.16282 -0.01745,-0.20934c0,-0.23842 0.03782,-0.42159 0.11339,-0.54952c0.08143,-0.13375 0.20641,-0.20062 0.37507,-0.20062c0.1861,0 0.33146,0.07559 0.43613,0.22679c0.11047,0.15119 0.19482,0.36635 0.25295,0.64547c0.07557,0.28494 0.13956,0.64838 0.1919,1.09032c0.05234,0.43613 0.0785,0.87807 0.0785,1.32583c0,0.55824 -0.02037,1.02634 -0.06106,1.40433c-0.04068,0.378 -0.1076,0.69201 -0.20062,0.94204c-0.09302,0.25003 -0.21514,0.46809 -0.36635,0.65419c-0.25003,0.30236 -0.57276,0.53208 -0.96821,0.68908c-0.38959,0.1628 -0.8403,0.24423 -1.352,0.24423c-0.36635,0 -0.65999,-0.03489 -0.88098,-0.10467c-0.22099,-0.06399 -0.38086,-0.15408 -0.47974,-0.2704c-0.09302,-0.11047 -0.13956,-0.23551 -0.13956,-0.37507c0,-0.14536 0.04068,-0.26747 0.12212,-0.36635c0.08143,-0.09302 0.20355,-0.13956 0.36635,-0.13956c0.14536,0 0.31401,0.02324 0.50591,0.06978c0.19769,0.04654 0.43033,0.06978 0.69781,0.06978c0.56404,0 0.96241,-0.13377 1.19499,-0.40124c0.23844,-0.26168 0.35763,-0.63968 0.35763,-1.13393c0,-0.13377 -0.00872,-0.29077 -0.02617,-0.47102l0.12212,0.04361c-0.14536,0.37214 -0.36055,0.67164 -0.64547,0.89842c-0.28492,0.22099 -0.61637,0.33146 -0.99437,0.33146zM238.77693,170.7385c0.1861,0 0.37214,-0.04943 0.55824,-0.14828c0.1861,-0.09886 0.34018,-0.26168 0.4623,-0.48846c0.12212,-0.22679 0.18317,-0.53208 0.18317,-0.91587c0,-0.45939 -0.1076,-0.83446 -0.32274,-1.12521c-0.21514,-0.29075 -0.51756,-0.43613 -0.90715,-0.43613c-0.33725,0 -0.58441,0.12793 -0.74142,0.38379c-0.15701,0.25586 -0.23551,0.64256 -0.23551,1.1601c0,0.49428 0.0785,0.88098 0.23551,1.1601c0.15701,0.27331 0.41289,0.40996 0.76759,0.40996zM247.76236,167.956c0.05794,-0.23842 0.16012,-0.45357 0.30529,-0.64547c0.1514,-0.1919 0.33146,-0.34309 0.5408,-0.45357c0.21495,-0.1163 0.45046,-0.17445 0.70653,-0.17445c0.30217,0 0.57008,0.07269 0.80248,0.21806c0.23239,0.14537 0.41557,0.38379 0.54952,0.71525c0.13956,0.33146 0.20934,0.7734 0.20934,1.32583c0,0.28494 -0.01184,0.57278 -0.03489,0.86353c-0.02305,0.29075 -0.05234,0.56115 -0.08723,0.8112c-0.03489,0.25003 -0.0729,0.45937 -0.11339,0.62803c-0.05794,0.23258 -0.14828,0.40996 -0.2704,0.53208c-0.11651,0.12212 -0.26479,0.18317 -0.44485,0.18317c-0.1514,0 -0.2704,-0.06685 -0.35763,-0.20062c-0.08723,-0.13377 -0.13084,-0.32566 -0.13084,-0.57569c0,-0.11632 0.01433,-0.26461 0.04361,-0.44485c0.02928,-0.18608 0.06106,-0.3867 0.09595,-0.60186c0.03489,-0.22097 0.06667,-0.44485 0.09595,-0.67164c0.02928,-0.22679 0.04361,-0.44194 0.04361,-0.64547c0,-0.30238 -0.06106,-0.53499 -0.18317,-0.69781c-0.12212,-0.16864 -0.29345,-0.25295 -0.51463,-0.25295c-0.24423,0 -0.44797,0.12793 -0.61058,0.38379c-0.15701,0.25004 -0.24984,0.61639 -0.27912,1.09904c-0.02305,0.43032 -0.04361,0.81411 -0.06106,1.15138c-0.01745,0.33146 -0.06106,0.60479 -0.13084,0.81992c-0.04673,0.15121 -0.11339,0.26461 -0.20062,0.34018c-0.08162,0.07557 -0.1919,0.11339 -0.33146,0.11339c-0.15701,0 -0.28224,-0.05813 -0.37507,-0.17445c-0.08723,-0.11632 -0.13645,-0.2995 -0.14828,-0.54952c-0.01184,-0.20934 -0.01433,-0.45648 -0.00872,-0.74142c0.00561,-0.28494 0.00872,-0.56697 0.00872,-0.84609c0.00561,-0.28494 0.00312,-0.52044 -0.00872,-0.70653c-0.02305,-0.37216 -0.09034,-0.64547 -0.20062,-0.81992c-0.10467,-0.17445 -0.26479,-0.26168 -0.47974,-0.26168c-0.24984,0 -0.45046,0.1163 -0.60186,0.3489c-0.14517,0.2326 -0.23551,0.55533 -0.2704,0.96821c-0.01184,0.16864 -0.01745,0.37798 -0.01745,0.62803c0.00561,0.24423 0.01184,0.48846 0.01745,0.7327c0.00561,0.24423 0.00312,0.44778 -0.00872,0.61058c-0.00561,0.3489 -0.06106,0.59893 -0.16573,0.75014c-0.09906,0.15121 -0.23862,0.22679 -0.41868,0.22679c-0.21495,0 -0.37196,-0.06978 -0.47102,-0.20934c-0.09283,-0.13956 -0.15389,-0.36342 -0.18317,-0.67164c-0.02305,-0.27333 -0.0405,-0.54371 -0.05234,-0.8112c-0.01184,-0.27331 -0.01745,-0.54371 -0.01745,-0.8112c0,-0.27331 0.00561,-0.56988 0.01745,-0.8897c0.01745,-0.31983 0.0405,-0.62221 0.06978,-0.90715c0.03489,-0.29075 0.09595,-0.53499 0.18317,-0.7327c0.08723,-0.19771 0.23239,-0.29657 0.43613,-0.29657c0.16884,0 0.28784,0.08432 0.35763,0.25295c0.06978,0.16282 0.10467,0.41577 0.10467,0.75886c0,0.1163 -0.00872,0.22388 -0.02617,0.32274l-0.02617,-0.17445c0.11651,-0.37798 0.30217,-0.67164 0.55824,-0.88098c0.25607,-0.21515 0.5408,-0.32274 0.85481,-0.32274c0.41308,0 0.73581,0.13375 0.96821,0.40124c0.23239,0.26168 0.36074,0.62512 0.38379,1.09032zM254.38404,172.02072c-0.64547,0 -1.1601,-0.09595 -1.5439,-0.28784c-0.38379,-0.1919 -0.6598,-0.46809 -0.82864,-0.82864c-0.16884,-0.36054 -0.25295,-0.79084 -0.25295,-1.29094c0,-0.63384 0.11651,-1.17173 0.3489,-1.61368c0.23862,-0.44776 0.56385,-0.79084 0.97693,-1.02926c0.41868,-0.23842 0.89282,-0.35763 1.42178,-0.35763c0.62242,0 1.07848,0.14537 1.36944,0.43613c0.29096,0.28494 0.43613,0.66001 0.43613,1.12521c0,0.37216 -0.09906,0.6949 -0.29657,0.96821c-0.1919,0.26749 -0.45918,0.47393 -0.80248,0.6193c-0.3433,0.14537 -0.7383,0.21806 -1.18627,0.21806c-0.24984,0 -0.49158,-0.03198 -0.72397,-0.09595c-0.23239,-0.06397 -0.44174,-0.15119 -0.62803,-0.26168l0.20934,-0.38379c-0.01745,0.13956 -0.02617,0.27912 -0.02617,0.41868c0,0.40705 0.12772,0.70072 0.38379,0.88098c0.25607,0.17445 0.6193,0.26168 1.09032,0.26168c0.36635,0 0.6598,-0.03196 0.88098,-0.09595c0.22118,-0.06397 0.40685,-0.12503 0.55824,-0.18317c0.1514,-0.06397 0.29968,-0.09595 0.44485,-0.09595c0.08162,0 0.15389,0.02326 0.21806,0.06978c0.06978,0.0407 0.12523,0.10176 0.16573,0.18317c0.04673,0.08143 0.06978,0.18025 0.06978,0.29657c0,0.17445 -0.08723,0.34311 -0.26168,0.50591c-0.17445,0.15701 -0.43301,0.28784 -0.77631,0.39252c-0.33707,0.09888 -0.75326,0.14828 -1.24733,0.14828zM253.87813,169.16843c0.41308,0 0.74453,-0.08723 0.99437,-0.26168c0.24984,-0.17445 0.37507,-0.38961 0.37507,-0.64547c0,-0.20353 -0.06978,-0.36926 -0.20934,-0.49719c-0.13395,-0.13375 -0.34579,-0.20062 -0.63675,-0.20062c-0.27351,0 -0.52024,0.05234 -0.74142,0.15701c-0.21495,0.09886 -0.38379,0.2297 -0.50591,0.39252c-0.12212,0.16282 -0.18317,0.34018 -0.18317,0.53208c0,0.16864 0.0785,0.29948 0.23551,0.39252c0.16261,0.08723 0.38691,0.13084 0.67164,0.13084zM261.19512,167.956c0.05857,-0.23842 0.16012,-0.45357 0.30529,-0.64547c0.1514,-0.1919 0.33146,-0.34309 0.5408,-0.45357c0.21557,-0.1163 0.45108,-0.17445 0.70653,-0.17445c0.3028,0 0.57008,0.07269 0.80248,0.21806c0.23302,0.14537 0.41619,0.38379 0.54952,0.71525c0.13956,0.33146 0.20934,0.7734 0.20934,1.32583c0,0.28494 -0.01121,0.57278 -0.03489,0.86353c-0.02305,0.29075 -0.05234,0.56115 -0.08723,0.8112c-0.03489,0.25003 -0.07227,0.45937 -0.11339,0.62803c-0.05794,0.23258 -0.14828,0.40996 -0.2704,0.53208c-0.11589,0.12212 -0.26417,0.18317 -0.44485,0.18317c-0.15078,0 -0.2704,-0.06685 -0.35763,-0.20062c-0.08723,-0.13377 -0.13084,-0.32566 -0.13084,-0.57569c0,-0.11632 0.01495,-0.26461 0.04361,-0.44485c0.02928,-0.18608 0.06106,-0.3867 0.09595,-0.60186c0.03489,-0.22097 0.06729,-0.44485 0.09595,-0.67164c0.02928,-0.22679 0.04361,-0.44194 0.04361,-0.64547c0,-0.30238 -0.06106,-0.53499 -0.18317,-0.69781c-0.12212,-0.16864 -0.29345,-0.25295 -0.51463,-0.25295c-0.24423,0 -0.44734,0.12793 -0.61058,0.38379c-0.15701,0.25004 -0.24984,0.61639 -0.27912,1.09904c-0.02305,0.43032 -0.04361,0.81411 -0.06106,1.15138c-0.01745,0.33146 -0.06106,0.60479 -0.13084,0.81992c-0.04611,0.15121 -0.11339,0.26461 -0.20062,0.34018c-0.081,0.07557 -0.1919,0.11339 -0.33146,0.11339c-0.15701,0 -0.28161,-0.05813 -0.37507,-0.17445c-0.08723,-0.11632 -0.13645,-0.2995 -0.14828,-0.54952c-0.01121,-0.20934 -0.01433,-0.45648 -0.00872,-0.74142c0.00623,-0.28494 0.00872,-0.56697 0.00872,-0.84609c0.00623,-0.28494 0.00312,-0.52044 -0.00872,-0.70653c-0.02305,-0.37216 -0.08972,-0.64547 -0.20062,-0.81992c-0.10467,-0.17445 -0.26417,-0.26168 -0.47974,-0.26168c-0.24984,0 -0.45046,0.1163 -0.60186,0.3489c-0.14517,0.2326 -0.23551,0.55533 -0.2704,0.96821c-0.01121,0.16864 -0.01745,0.37798 -0.01745,0.62803c0.00623,0.24423 0.01184,0.48846 0.01745,0.7327c0.00623,0.24423 0.00312,0.44778 -0.00872,0.61058c-0.00561,0.3489 -0.06106,0.59893 -0.16573,0.75014c-0.09844,0.15121 -0.238,0.22679 -0.41868,0.22679c-0.21495,0 -0.37196,-0.06978 -0.47102,-0.20934c-0.09283,-0.13956 -0.15389,-0.36342 -0.18317,-0.67164c-0.02305,-0.27333 -0.0405,-0.54371 -0.05234,-0.8112c-0.01121,-0.27331 -0.01745,-0.54371 -0.01745,-0.8112c0,-0.27331 0.00623,-0.56988 0.01745,-0.8897c0.01745,-0.31983 0.04112,-0.62221 0.06978,-0.90715c0.03489,-0.29075 0.09595,-0.53499 0.18317,-0.7327c0.08723,-0.19771 0.23302,-0.29657 0.43613,-0.29657c0.16884,0 0.28784,0.08432 0.35763,0.25295c0.06978,0.16282 0.10467,0.41577 0.10467,0.75886c0,0.1163 -0.00872,0.22388 -0.02617,0.32274l-0.02617,-0.17445c0.11651,-0.37798 0.3028,-0.67164 0.55824,-0.88098c0.25607,-0.21515 0.5408,-0.32274 0.85481,-0.32274c0.41308,0 0.73581,0.13375 0.96821,0.40124c0.23302,0.26168 0.36074,0.62512 0.38379,1.09032zM266.14269,165.26072c0.23239,0 0.39812,0.06397 0.49719,0.1919c0.10467,0.12793 0.15701,0.27621 0.15701,0.44485c0,0.20934 -0.06417,0.37216 -0.1919,0.48846c-0.12212,0.11048 -0.29657,0.16573 -0.52335,0.16573c-0.22118,0 -0.38691,-0.06106 -0.49719,-0.18317c-0.1109,-0.12793 -0.16573,-0.27621 -0.16573,-0.44485c0,-0.22097 0.06667,-0.3867 0.20062,-0.49719c0.13333,-0.11048 0.30778,-0.16573 0.52335,-0.16573zM266.19502,167.20586c0.18567,0 0.33146,0.17445 0.43613,0.52335c0.11028,0.3489 0.16573,0.90424 0.16573,1.66601c0,0.93622 -0.06729,1.61075 -0.20062,2.02364c-0.13395,0.41289 -0.33769,0.6193 -0.61058,0.6193c-0.20934,0 -0.36386,-0.15121 -0.4623,-0.45357c-0.09906,-0.30822 -0.14828,-0.84316 -0.14828,-1.60495c0,-0.93622 0.07539,-1.63112 0.22679,-2.08469c0.15701,-0.45939 0.35451,-0.68908 0.59313,-0.68908zM268.80432,171.96838c-0.18068,0 -0.32274,-0.04068 -0.42741,-0.12212c-0.10467,-0.08723 -0.1894,-0.22972 -0.25295,-0.42741c-0.08723,-0.29077 -0.15451,-0.65712 -0.20062,-1.09904c-0.04112,-0.44776 -0.06106,-0.99728 -0.06106,-1.64857c0,-0.40124 0.01433,-0.80248 0.04361,-1.20371c0.03489,-0.40705 0.0785,-0.77631 0.13084,-1.10777c0.05234,-0.33727 0.10716,-0.59895 0.16573,-0.78503c0.06355,-0.19771 0.13956,-0.33437 0.22679,-0.40996c0.08723,-0.0756 0.18567,-0.11339 0.29657,-0.11339c0.11589,0 0.20934,0.04071 0.27912,0.12212c0.06978,0.07559 0.12461,0.21225 0.16573,0.40996c0.03489,0.1919 0.06106,0.42741 0.0785,0.70653c0.02305,0.27912 0.03489,0.5786 0.03489,0.89842c0,0.43613 -0.02056,0.89552 -0.06106,1.37817c-0.04112,0.48265 -0.09595,0.95657 -0.16573,1.42178c-0.06417,0.46521 -0.14268,0.89263 -0.23551,1.28222l-0.24423,-0.12212c0.15078,-0.1861 0.32274,-0.33146 0.51463,-0.43613c0.1975,-0.10467 0.37756,-0.15701 0.5408,-0.15701c0.13333,0 0.23551,0.0378 0.30529,0.11339c0.07539,0.06978 0.11339,0.18025 0.11339,0.33146c0,0.15121 -0.06729,0.30236 -0.20062,0.45357c-0.12835,0.15121 -0.28784,0.27619 -0.47974,0.37507c-0.1919,0.09302 -0.3813,0.13956 -0.56697,0.13956zM271.61112,165.26072c0.23239,0 0.39812,0.06397 0.49719,0.1919c0.10467,0.12793 0.15701,0.27621 0.15701,0.44485c0,0.20934 -0.06417,0.37216 -0.1919,0.48846c-0.12212,0.11048 -0.29657,0.16573 -0.52335,0.16573c-0.22118,0 -0.38691,-0.06106 -0.49719,-0.18317c-0.11028,-0.12793 -0.16573,-0.27621 -0.16573,-0.44485c0,-0.22097 0.06667,-0.3867 0.20062,-0.49719c0.13395,-0.11048 0.30841,-0.16573 0.52335,-0.16573zM271.66345,167.20586c0.18629,0 0.33146,0.17445 0.43613,0.52335c0.11028,0.3489 0.16573,0.90424 0.16573,1.66601c0,0.93622 -0.06667,1.61075 -0.20062,2.02364c-0.13395,0.41289 -0.33707,0.6193 -0.61058,0.6193c-0.20934,0 -0.36323,-0.15121 -0.4623,-0.45357c-0.09906,-0.30822 -0.14828,-0.84316 -0.14828,-1.60495c0,-0.93622 0.07539,-1.63112 0.22679,-2.08469c0.15701,-0.45939 0.35451,-0.68908 0.59313,-0.68908zM273.92385,172.03816c-0.11028,0 -0.20062,-0.03196 -0.2704,-0.09595c-0.06978,-0.06978 -0.119,-0.16866 -0.14828,-0.29657c-0.04673,-0.21514 -0.08723,-0.52628 -0.12212,-0.93332c-0.03489,-0.40705 -0.05234,-0.85772 -0.05234,-1.352c0,-0.61058 0.02056,-1.1979 0.06106,-1.76196c0.04673,-0.56406 0.10467,-1.02635 0.17445,-1.38689c0.07539,-0.38961 0.16884,-0.67455 0.27912,-0.85481c0.11028,-0.18608 0.25607,-0.27912 0.43613,-0.27912c0.16261,0 0.28784,0.07559 0.37507,0.22679c0.08723,0.14537 0.13084,0.39833 0.13084,0.75886c0,0.36054 -0.01433,0.74723 -0.04361,1.1601c-0.02305,0.41287 -0.06417,0.85481 -0.12212,1.32583h0.03489c0.37819,-0.51172 0.72958,-0.92168 1.05543,-1.22988c0.33146,-0.3082 0.63363,-0.53208 0.90715,-0.67164c0.27912,-0.13956 0.52647,-0.20934 0.74142,-0.20934c0.16884,0 0.29345,0.05234 0.37507,0.15701c0.08162,0.10467 0.12212,0.2326 0.12212,0.38379c0,0.29657 -0.23862,0.62803 -0.71525,0.99437c-0.47102,0.36635 -1.15138,0.74142 -2.04108,1.12521l0.00872,-0.13956c0.55264,0.28494 1.02615,0.58441 1.42178,0.89842c0.40124,0.3082 0.70653,0.60186 0.91587,0.88098c0.21495,0.27333 0.32274,0.50298 0.32274,0.68908c0,0.15121 -0.04922,0.27619 -0.14828,0.37507c-0.09283,0.09302 -0.2299,0.13956 -0.40996,0.13956c-0.22679,0 -0.47974,-0.0843 -0.75886,-0.25295c-0.27351,-0.17445 -0.55824,-0.4332 -0.85481,-0.77631c-0.29657,-0.34309 -0.59313,-0.7734 -0.8897,-1.29094h-0.03489c-0.00561,0.36635 -0.02928,0.72397 -0.06978,1.07288c-0.03489,0.34311 -0.08162,0.6251 -0.13956,0.84609c-0.0405,0.15121 -0.10467,0.27333 -0.1919,0.36635c-0.08162,0.08723 -0.1975,0.13084 -0.3489,0.13084zM279.32873,165.26072c0.23239,0 0.39812,0.06397 0.49719,0.1919c0.10467,0.12793 0.15701,0.27621 0.15701,0.44485c0,0.20934 -0.06417,0.37216 -0.1919,0.48846c-0.12212,0.11048 -0.29657,0.16573 -0.52335,0.16573c-0.22118,0 -0.38691,-0.06106 -0.49719,-0.18317c-0.1109,-0.12793 -0.16573,-0.27621 -0.16573,-0.44485c0,-0.22097 0.06667,-0.3867 0.20062,-0.49719c0.13333,-0.11048 0.30778,-0.16573 0.52335,-0.16573zM279.38106,167.20586c0.18567,0 0.33146,0.17445 0.43613,0.52335c0.11028,0.3489 0.16573,0.90424 0.16573,1.66601c0,0.93622 -0.06729,1.61075 -0.20062,2.02364c-0.13395,0.41289 -0.33769,0.6193 -0.61058,0.6193c-0.20934,0 -0.36386,-0.15121 -0.4623,-0.45357c-0.09906,-0.30822 -0.14828,-0.84316 -0.14828,-1.60495c0,-0.93622 0.07539,-1.63112 0.22679,-2.08469c0.15701,-0.45939 0.35451,-0.68908 0.59313,-0.68908zM284.42582,172.07305c-0.57008,0 -1.01493,-0.21227 -1.33455,-0.63675c-0.32024,-0.43033 -0.47974,-1.08451 -0.47974,-1.96258c0,-0.87226 0.15701,-1.509 0.47102,-1.91024c0.31962,-0.40705 0.77631,-0.61058 1.36944,-0.61058c0.33707,0 0.63052,0.06978 0.88098,0.20934c0.25545,0.13956 0.48223,0.33727 0.68036,0.59313l-0.06978,0.03489c-0.05234,-0.23842 -0.10467,-0.49137 -0.15701,-0.75886c-0.05234,-0.26749 -0.09595,-0.52044 -0.13084,-0.75886c-0.02928,-0.24423 -0.04361,-0.43613 -0.04361,-0.57569c0,-0.19771 0.03178,-0.3489 0.09595,-0.45357c0.06355,-0.11048 0.16573,-0.16573 0.30529,-0.16573c0.1975,0 0.35763,0.08432 0.47974,0.25296c0.12212,0.16282 0.22367,0.41577 0.30529,0.75886c0.07539,0.3082 0.14205,0.67455 0.20062,1.09904c0.05794,0.41868 0.10467,0.85772 0.13956,1.31711c0.0405,0.45357 0.06106,0.8897 0.06106,1.30839c0,0.5815 -0.0324,1.03506 -0.09595,1.36072c-0.05857,0.31981 -0.14268,0.54373 -0.25295,0.67164c-0.10467,0.12791 -0.2299,0.1919 -0.37507,0.1919c-0.18068,0 -0.3028,-0.09015 -0.36635,-0.2704c-0.06417,-0.18025 -0.09034,-0.47395 -0.0785,-0.88098h0.13084c-0.15701,0.36055 -0.38691,0.6484 -0.68908,0.86353c-0.29657,0.21514 -0.64547,0.32274 -1.04671,0.32274zM284.88812,170.99145c0.20934,0 0.40124,-0.05234 0.57569,-0.15701c0.18006,-0.11047 0.32274,-0.27912 0.42741,-0.50591c0.11028,-0.22679 0.16573,-0.51463 0.16573,-0.86353c0,-0.44776 -0.10218,-0.8112 -0.30529,-1.09032c-0.20373,-0.28494 -0.49719,-0.42741 -0.88098,-0.42741c-0.3028,0 -0.54952,0.12503 -0.74142,0.37507c-0.18629,0.25004 -0.27912,0.62803 -0.27912,1.13393c0,0.44776 0.09283,0.81701 0.27912,1.10777c0.1919,0.28492 0.44485,0.42741 0.75886,0.42741zM292.18829,171.8986c-0.15701,0 -0.27912,-0.05234 -0.36635,-0.15701c-0.08162,-0.11047 -0.13645,-0.25003 -0.16573,-0.41868c-0.02928,-0.17445 -0.04361,-0.35763 -0.04361,-0.54952l0.04361,-0.03489c-0.05794,0.25003 -0.17134,0.46522 -0.34018,0.64547c-0.16884,0.18025 -0.36323,0.31981 -0.58441,0.41868c-0.22118,0.09302 -0.44174,0.13956 -0.66292,0.13956c-0.29657,0 -0.56697,-0.06978 -0.8112,-0.20934c-0.24423,-0.13956 -0.43301,-0.3547 -0.56697,-0.64547c-0.13395,-0.30822 -0.23862,-0.6949 -0.31401,-1.1601c-0.07539,-0.47102 -0.11339,-0.95367 -0.11339,-1.44795c0,-0.26749 0.01184,-0.51463 0.03489,-0.74142c0.02305,-0.22679 0.06106,-0.41287 0.11339,-0.55824c0.04673,-0.15119 0.11651,-0.26168 0.20934,-0.33146c0.09283,-0.07559 0.21246,-0.11339 0.35763,-0.11339c0.16884,0 0.29968,0.06687 0.39252,0.20062c0.09906,0.12793 0.16012,0.3082 0.18317,0.5408c0.02305,0.1919 0.03801,0.43032 0.04361,0.71525c0.01184,0.27912 0.02056,0.56115 0.02617,0.84609c0.01184,0.27912 0.02617,0.51463 0.04361,0.70653c0.03489,0.3489 0.12523,0.60767 0.2704,0.77631c0.14517,0.16282 0.32274,0.24423 0.53208,0.24423c0.30841,0 0.54391,-0.1163 0.70653,-0.3489c0.16261,-0.2326 0.24423,-0.55824 0.24423,-0.97693c0,-0.20934 -0.01184,-0.44485 -0.03489,-0.70653c-0.02305,-0.26749 -0.04922,-0.52626 -0.0785,-0.77631c-0.02305,-0.25004 -0.03489,-0.45648 -0.03489,-0.6193c0,-0.27331 0.04673,-0.46811 0.13956,-0.58441c0.09283,-0.12212 0.22118,-0.18317 0.38379,-0.18317c0.13956,0 0.25607,0.0378 0.3489,0.11339c0.09906,0.07559 0.17757,0.18026 0.23551,0.31401c0.08162,0.17445 0.1514,0.41287 0.20934,0.71525c0.05794,0.30238 0.10467,0.64547 0.13956,1.02926c0.03489,0.38379 0.05234,0.78794 0.05234,1.21244c0,0.65128 -0.04361,1.13973 -0.13084,1.46539c-0.08723,0.31981 -0.24112,0.47974 -0.4623,0.47974zM297.65423,172.03816c-0.1975,0 -0.33457,-0.07557 -0.40996,-0.22679c-0.06978,-0.15701 -0.11028,-0.40417 -0.12212,-0.74142l0.08723,0.04361c-0.32585,0.63382 -0.94204,0.95076 -1.84919,0.95076c-0.41308,0 -0.75575,-0.07271 -1.02926,-0.21806c-0.27351,-0.15121 -0.47663,-0.3489 -0.61058,-0.59313c-0.12772,-0.25003 -0.1919,-0.52043 -0.1919,-0.8112c0,-0.5001 0.17445,-0.89552 0.52335,-1.18627c0.3489,-0.29657 0.8112,-0.44485 1.38689,-0.44485c0.37819,0 0.70653,0.05525 0.98565,0.16573c0.27912,0.11048 0.51775,0.26459 0.71525,0.4623l-0.14828,-0.01745c-0.0405,-0.58732 -0.16884,-1.00601 -0.38379,-1.25605c-0.20934,-0.25586 -0.50902,-0.38379 -0.89842,-0.38379c-0.22679,0 -0.43613,0.03489 -0.62803,0.10467c-0.1919,0.06978 -0.36946,0.14247 -0.53208,0.21806c-0.15701,0.06978 -0.30529,0.10467 -0.44485,0.10467c-0.13956,0 -0.24984,-0.04652 -0.33146,-0.13956c-0.07539,-0.09304 -0.11339,-0.21225 -0.11339,-0.35763c0,-0.20934 0.09906,-0.40705 0.29657,-0.59313c0.20373,-0.18608 0.47102,-0.33727 0.80248,-0.45357c0.33146,-0.1163 0.6922,-0.17445 1.0816,-0.17445c0.47102,0 0.87537,0.11339 1.21244,0.34018c0.33707,0.22679 0.59313,0.55824 0.76759,0.99437c0.1514,0.37216 0.25856,0.78794 0.32274,1.24733c0.06417,0.45939 0.09595,0.95076 0.09595,1.47411c0,0.39544 -0.02056,0.70073 -0.06106,0.91587c-0.0405,0.21514 -0.10467,0.36635 -0.1919,0.45357c-0.08162,0.08143 -0.1919,0.12212 -0.33146,0.12212zM295.72654,171.06123c0.1919,0 0.38691,-0.02617 0.58441,-0.0785c0.1975,-0.05813 0.36323,-0.14249 0.49719,-0.25295c0.13395,-0.11048 0.20062,-0.24714 0.20062,-0.40996c0,-0.13956 -0.05794,-0.25295 -0.17445,-0.34018c-0.11028,-0.09304 -0.25856,-0.16282 -0.44485,-0.20934c-0.18006,-0.04652 -0.37507,-0.06978 -0.58441,-0.06978c-0.35451,0 -0.62491,0.06106 -0.8112,0.18317c-0.18006,0.12212 -0.2704,0.28494 -0.2704,0.48846c0,0.22097 0.08411,0.39252 0.25295,0.51463c0.17445,0.11632 0.42429,0.17445 0.75014,0.17445zM187.20878,177.0823c0.51754,0 0.8897,0.07557 1.11648,0.22679c0.22679,0.15121 0.34018,0.34597 0.34018,0.58441c0,0.13956 -0.04941,0.25588 -0.14828,0.3489c-0.09302,0.08723 -0.22679,0.13084 -0.40124,0.13084c-0.18025,0 -0.36925,-0.02617 -0.56696,-0.0785c-0.1919,-0.05234 -0.41577,-0.0785 -0.67164,-0.0785c-0.29657,0 -0.51754,0.05813 -0.66292,0.17445c-0.14537,0.11632 -0.21806,0.26461 -0.21806,0.44485c0,0.16866 0.06397,0.30236 0.1919,0.40124c0.13375,0.09302 0.3867,0.1628 0.75886,0.20934c0.41287,0.04654 0.75305,0.12212 1.02053,0.22679c0.27333,0.09888 0.47681,0.25003 0.61058,0.45357c0.13377,0.19769 0.20062,0.47102 0.20062,0.81992c0,0.55245 -0.19482,0.96241 -0.58441,1.22988c-0.3896,0.26747 -0.9275,0.40124 -1.61367,0.40124c-0.43613,0 -0.78212,-0.03489 -1.03799,-0.10467c-0.25586,-0.06978 -0.44194,-0.16866 -0.55824,-0.29657c-0.11048,-0.12791 -0.16573,-0.27912 -0.16573,-0.45357c0,-0.15121 0.04943,-0.26747 0.14828,-0.3489c0.10467,-0.08723 0.22679,-0.13084 0.36635,-0.13084c0.13375,0 0.27621,0.01745 0.42741,0.05234c0.15119,0.0291 0.3111,0.06106 0.47974,0.09595c0.16864,0.03489 0.34309,0.05234 0.52335,0.05234c0.5815,0 0.87226,-0.18025 0.87226,-0.5408c0,-0.12212 -0.02908,-0.22099 -0.08723,-0.29657c-0.05815,-0.07557 -0.16282,-0.13663 -0.31401,-0.18317c-0.15119,-0.05234 -0.37216,-0.09302 -0.66292,-0.12212c-0.3489,-0.03489 -0.65128,-0.09302 -0.90715,-0.17445c-0.25586,-0.08723 -0.45357,-0.22679 -0.59313,-0.41868c-0.13956,-0.19769 -0.20934,-0.46809 -0.20934,-0.8112c0,-0.5408 0.20353,-0.97693 0.61058,-1.30839c0.40705,-0.33725 0.98565,-0.50591 1.73579,-0.50591zM190.42896,175.85242c0.23264,0 0.39837,0.06399 0.49719,0.1919c0.10467,0.12791 0.15701,0.27619 0.15701,0.44485c0,0.20934 -0.06392,0.37214 -0.1919,0.48846c-0.12212,0.11047 -0.29657,0.16573 -0.52335,0.16573c-0.22093,0 -0.38666,-0.06106 -0.49719,-0.18317c-0.11047,-0.12791 -0.16573,-0.27619 -0.16573,-0.44485c0,-0.22099 0.06691,-0.38672 0.20062,-0.49719c0.13377,-0.11047 0.30822,-0.16573 0.52335,-0.16573zM190.48129,177.79755c0.1861,0 0.33146,0.17445 0.43613,0.52335c0.11053,0.3489 0.16573,0.90422 0.16573,1.66601c0,0.93624 -0.06685,1.61075 -0.20062,2.02364c-0.1337,0.41289 -0.33725,0.6193 -0.61058,0.6193c-0.20934,0 -0.36342,-0.15121 -0.4623,-0.45357c-0.09881,-0.30822 -0.14828,-0.84316 -0.14828,-1.60495c0,-0.93624 0.07564,-1.63112 0.22679,-2.08469c0.15701,-0.45937 0.35476,-0.68908 0.59313,-0.68908zM194.35549,177.0823c0.51756,0 0.8897,0.07557 1.11649,0.22679c0.22679,0.15121 0.34018,0.34597 0.34018,0.58441c0,0.13956 -0.04941,0.25588 -0.14828,0.3489c-0.09302,0.08723 -0.22679,0.13084 -0.40124,0.13084c-0.18025,0 -0.36928,-0.02617 -0.56697,-0.0785c-0.1919,-0.05234 -0.41576,-0.0785 -0.67164,-0.0785c-0.29657,0 -0.51756,0.05813 -0.66292,0.17445c-0.14536,0.11632 -0.21806,0.26461 -0.21806,0.44485c0,0.16866 0.06399,0.30236 0.1919,0.40124c0.13377,0.09302 0.38672,0.1628 0.75886,0.20934c0.41289,0.04654 0.75307,0.12212 1.02054,0.22679c0.27333,0.09888 0.47681,0.25003 0.61058,0.45357c0.13377,0.19769 0.20062,0.47102 0.20062,0.81992c0,0.55245 -0.19482,0.96241 -0.58441,1.22988c-0.38959,0.26747 -0.92752,0.40124 -1.61368,0.40124c-0.43613,0 -0.7821,-0.03489 -1.03799,-0.10467c-0.25588,-0.06978 -0.44192,-0.16866 -0.55824,-0.29657c-0.11047,-0.12791 -0.16573,-0.27912 -0.16573,-0.45357c0,-0.15121 0.04941,-0.26747 0.14828,-0.3489c0.10467,-0.08723 0.22679,-0.13084 0.36635,-0.13084c0.13377,0 0.27619,0.01745 0.42741,0.05234c0.15121,0.0291 0.31108,0.06106 0.47974,0.09595c0.16866,0.03489 0.34311,0.05234 0.52335,0.05234c0.58148,0 0.87226,-0.18025 0.87226,-0.5408c0,-0.12212 -0.0291,-0.22099 -0.08723,-0.29657c-0.05813,-0.07557 -0.1628,-0.13663 -0.31401,-0.18317c-0.15121,-0.05234 -0.37214,-0.09302 -0.66292,-0.12212c-0.3489,-0.03489 -0.65126,-0.09302 -0.90715,-0.17445c-0.25588,-0.08723 -0.45357,-0.22679 -0.59313,-0.41868c-0.13956,-0.19769 -0.20934,-0.46809 -0.20934,-0.8112c0,-0.5408 0.20355,-0.97693 0.61058,-1.30839c0.40703,-0.33725 0.98565,-0.50591 1.73579,-0.50591zM197.57567,175.85242c0.23264,0 0.39837,0.06399 0.49719,0.1919c0.10467,0.12791 0.15701,0.27619 0.15701,0.44485c0,0.20934 -0.06392,0.37214 -0.1919,0.48846c-0.12212,0.11047 -0.29657,0.16573 -0.52335,0.16573c-0.22093,0 -0.38666,-0.06106 -0.49719,-0.18317c-0.11047,-0.12791 -0.16573,-0.27619 -0.16573,-0.44485c0,-0.22099 0.06691,-0.38672 0.20062,-0.49719c0.13377,-0.11047 0.30822,-0.16573 0.52335,-0.16573zM197.62801,177.79755c0.1861,0 0.33146,0.17445 0.43613,0.52335c0.11053,0.3489 0.16573,0.90422 0.16573,1.66601c0,0.93624 -0.06685,1.61075 -0.20062,2.02364c-0.1337,0.41289 -0.33725,0.6193 -0.61058,0.6193c-0.20934,0 -0.36342,-0.15121 -0.4623,-0.45357c-0.09881,-0.30822 -0.14828,-0.84316 -0.14828,-1.60495c0,-0.93624 0.07564,-1.63112 0.22679,-2.08469c0.15701,-0.45937 0.35476,-0.68908 0.59313,-0.68908zM201.90518,184.27842c-0.31401,0 -0.47102,-0.16866 -0.47102,-0.50591c0,-0.1861 0.06392,-0.40703 0.1919,-0.66292c0.12791,-0.25588 0.31401,-0.53208 0.55824,-0.82864c0.25003,-0.29657 0.55239,-0.59893 0.90715,-0.90715l-0.00872,0.06978c-0.77344,-0.76759 -1.36072,-1.44215 -1.76196,-2.02364c-0.39544,-0.58148 -0.59313,-1.08453 -0.59313,-1.509c0,-0.20934 0.05234,-0.37214 0.15701,-0.48846c0.11047,-0.11632 0.25582,-0.17445 0.43613,-0.17445c0.38379,0 0.76466,0.27912 1.14266,0.83737c0.37794,0.55824 0.73556,1.40726 1.07288,2.54699h0.03489c0.22093,-1.19792 0.45644,-2.07597 0.70653,-2.63422c0.25003,-0.56404 0.54659,-0.84609 0.8897,-0.84609c0.1628,0 0.28199,0.05813 0.35763,0.17445c0.08137,0.11047 0.12212,0.26747 0.12212,0.47102c0,0.16866 -0.03782,0.39252 -0.11339,0.67164c-0.06978,0.27333 -0.17159,0.58441 -0.30529,0.93332c-0.12797,0.34311 -0.27912,0.70073 -0.45357,1.07288c-0.16866,0.37214 -0.35476,0.73849 -0.55824,1.09904c-0.51756,0.93624 -0.95948,1.61947 -1.32583,2.0498c-0.36635,0.43613 -0.69494,0.65419 -0.98565,0.65419zM210.21132,182.62986c-0.19775,0 -0.33439,-0.07557 -0.40996,-0.22679c-0.06978,-0.15701 -0.11053,-0.40417 -0.12212,-0.74142l0.08723,0.04361c-0.32566,0.63382 -0.94204,0.95076 -1.84919,0.95076c-0.41289,0 -0.756,-0.07271 -1.02926,-0.21806c-0.27333,-0.15121 -0.47688,-0.3489 -0.61058,-0.59313c-0.12797,-0.25003 -0.1919,-0.52043 -0.1919,-0.8112c0,-0.50011 0.17445,-0.8955 0.52335,-1.18627c0.3489,-0.29657 0.8112,-0.44485 1.38689,-0.44485c0.37794,0 0.70653,0.05526 0.98565,0.16573c0.27912,0.11047 0.5175,0.26461 0.71525,0.4623l-0.14828,-0.01745c-0.04075,-0.58734 -0.16866,-1.00602 -0.38379,-1.25605c-0.20934,-0.25588 -0.50884,-0.38379 -0.89842,-0.38379c-0.22679,0 -0.43613,0.03489 -0.62803,0.10467c-0.1919,0.06978 -0.36928,0.14249 -0.53208,0.21806c-0.15701,0.06978 -0.30529,0.10467 -0.44485,0.10467c-0.13956,0 -0.25009,-0.04654 -0.33146,-0.13956c-0.07564,-0.09302 -0.11339,-0.21227 -0.11339,-0.35763c0,-0.20934 0.09881,-0.40703 0.29657,-0.59313c0.20349,-0.1861 0.47102,-0.33725 0.80248,-0.45357c0.33146,-0.11632 0.69195,-0.17445 1.0816,-0.17445c0.47102,0 0.87512,0.11339 1.21244,0.34018c0.33725,0.22679 0.59313,0.55824 0.76759,0.99437c0.15115,0.37214 0.25875,0.78796 0.32274,1.24733c0.06392,0.45937 0.09595,0.95076 0.09595,1.47411c0,0.39544 -0.02037,0.70073 -0.06106,0.91587c-0.04075,0.21514 -0.10467,0.36635 -0.1919,0.45357c-0.08143,0.08143 -0.1919,0.12212 -0.33146,0.12212zM208.28363,181.65293c0.1919,0 0.38666,-0.02617 0.58441,-0.0785c0.19769,-0.05813 0.36342,-0.14249 0.49719,-0.25295c0.1337,-0.11047 0.20062,-0.24716 0.20062,-0.40996c0,-0.13956 -0.05819,-0.25295 -0.17445,-0.34018c-0.11053,-0.09302 -0.25881,-0.1628 -0.44485,-0.20934c-0.18031,-0.04654 -0.37507,-0.06978 -0.58441,-0.06978c-0.35476,0 -0.62516,0.06106 -0.8112,0.18317c-0.18031,0.12212 -0.2704,0.28492 -0.2704,0.48846c0,0.22099 0.0843,0.39252 0.25295,0.51463c0.17445,0.11632 0.42448,0.17445 0.75014,0.17445zM212.74933,177.11719c0.1861,0 0.31115,0.07557 0.37507,0.22679c0.06978,0.15121 0.10467,0.37507 0.10467,0.67164c0,0.06978 -0.00579,0.14536 -0.01745,0.22679c-0.00579,0.07557 -0.01745,0.14536 -0.03489,0.20934l-0.01745,-0.17445c0.13956,-0.378 0.35476,-0.67164 0.64547,-0.88098c0.29077,-0.21514 0.59899,-0.32274 0.92459,-0.32274c0.36055,0 0.66005,0.10174 0.89842,0.30529c0.24423,0.20355 0.42454,0.48846 0.5408,0.85481c0.12212,0.36635 0.18317,0.79955 0.18317,1.29966c0,0.30822 -0.01452,0.61351 -0.04361,0.91587c-0.02324,0.29657 -0.05813,0.5699 -0.10467,0.81992c-0.04068,0.24423 -0.08723,0.44485 -0.13956,0.60186c-0.06978,0.19769 -0.15987,0.34597 -0.2704,0.44485c-0.11047,0.09302 -0.2413,0.13956 -0.39252,0.13956c-0.15115,0 -0.26747,-0.05526 -0.3489,-0.16573c-0.08137,-0.11047 -0.12212,-0.25875 -0.12212,-0.44485c0,-0.19769 0.01458,-0.43613 0.04361,-0.71525c0.0291,-0.28492 0.05526,-0.57276 0.0785,-0.86353c0.0291,-0.29657 0.04361,-0.56404 0.04361,-0.80248c0,-0.81413 -0.26747,-1.22116 -0.80248,-1.22116c-0.28492,0 -0.52335,0.12791 -0.71525,0.38379c-0.1919,0.25003 -0.31981,0.60765 -0.38379,1.07288c-0.01745,0.15701 -0.02617,0.35183 -0.02617,0.58441c0,0.23258 0,0.46522 0,0.69781c0.00586,0.22679 0,0.41868 -0.01745,0.57569c-0.02324,0.3489 -0.09009,0.59893 -0.20062,0.75014c-0.10467,0.15121 -0.25003,0.22679 -0.43613,0.22679c-0.21514,0 -0.37794,-0.09888 -0.48846,-0.29657c-0.11047,-0.20355 -0.16573,-0.54373 -0.16573,-1.02054c0,-0.24423 0.00586,-0.51756 0.01745,-0.81992c0.01165,-0.30236 0.02617,-0.60479 0.04361,-0.90715c0.0233,-0.30822 0.04947,-0.58734 0.0785,-0.83737c0.05819,-0.47102 0.14249,-0.84316 0.25295,-1.11649c0.11053,-0.27912 0.27626,-0.41868 0.49719,-0.41868zM219.07949,182.40307c-0.54659,0 -0.99144,-0.20934 -1.33455,-0.62803c-0.34311,-0.42448 -0.51463,-1.06708 -0.51463,-1.92769c0,-0.9188 0.16573,-1.59044 0.49719,-2.01491c0.33146,-0.42448 0.76759,-0.63675 1.30839,-0.63675c0.31981,0 0.60186,0.08143 0.84609,0.24423c0.24423,0.1628 0.45357,0.39252 0.62803,0.68908l-0.06978,0.12212c-0.01745,-0.08143 -0.03196,-0.16866 -0.04361,-0.26168c-0.01165,-0.09302 -0.01745,-0.1628 -0.01745,-0.20934c0,-0.23844 0.03782,-0.42161 0.11339,-0.54952c0.08143,-0.13377 0.20641,-0.20062 0.37507,-0.20062c0.1861,0 0.33146,0.07557 0.43613,0.22679c0.11047,0.15121 0.19482,0.36635 0.25295,0.64547c0.07557,0.28492 0.13956,0.6484 0.1919,1.09032c0.05234,0.43613 0.0785,0.87805 0.0785,1.32583c0,0.55824 -0.02037,1.02634 -0.06106,1.40433c-0.04068,0.378 -0.1076,0.69201 -0.20062,0.94204c-0.09302,0.25003 -0.21514,0.46809 -0.36635,0.65419c-0.25003,0.30236 -0.57276,0.53208 -0.96821,0.68908c-0.38959,0.1628 -0.8403,0.24423 -1.352,0.24423c-0.36635,0 -0.65999,-0.03489 -0.88098,-0.10467c-0.22099,-0.06399 -0.38086,-0.15408 -0.47974,-0.2704c-0.09302,-0.11047 -0.13956,-0.23551 -0.13956,-0.37507c0,-0.14536 0.04068,-0.26747 0.12212,-0.36635c0.08143,-0.09302 0.20355,-0.13956 0.36635,-0.13956c0.14536,0 0.31401,0.02324 0.50591,0.06978c0.19769,0.04654 0.43033,0.06978 0.69781,0.06978c0.56404,0 0.96241,-0.13377 1.19499,-0.40124c0.23844,-0.26168 0.35763,-0.63968 0.35763,-1.13393c0,-0.13377 -0.00872,-0.29077 -0.02617,-0.47102l0.12212,0.04361c-0.14536,0.37214 -0.36055,0.67164 -0.64547,0.89842c-0.28492,0.22099 -0.61637,0.33146 -0.99437,0.33146zM219.41095,181.33019c0.1861,0 0.37214,-0.04941 0.55824,-0.14828c0.1861,-0.09888 0.34018,-0.26168 0.4623,-0.48846c0.12212,-0.22679 0.18317,-0.53208 0.18317,-0.91587c0,-0.45937 -0.1076,-0.83444 -0.32274,-1.12521c-0.21514,-0.29077 -0.51756,-0.43613 -0.90715,-0.43613c-0.33725,0 -0.58441,0.12791 -0.74142,0.38379c-0.15701,0.25588 -0.23551,0.64254 -0.23551,1.1601c0,0.49426 0.0785,0.88098 0.23551,1.1601c0.15701,0.27333 0.41289,0.40996 0.76759,0.40996zM225.29974,182.62986c-0.12791,0 -0.23258,-0.04361 -0.31401,-0.13084c-0.07557,-0.08723 -0.13663,-0.21227 -0.18317,-0.37507c-0.04648,-0.23844 -0.08723,-0.54952 -0.12212,-0.93332c-0.02903,-0.38959 -0.04361,-0.8054 -0.04361,-1.24733c0,-0.25003 0.00586,-0.53208 0.01745,-0.84609c0.01165,-0.31401 0.02617,-0.63095 0.04361,-0.95076c0.0233,-0.32566 0.04654,-0.62803 0.06978,-0.90715c0.0291,-0.27912 0.05819,-0.50591 0.08723,-0.68036c0.04654,-0.25588 0.11339,-0.4565 0.20062,-0.60186c0.09308,-0.15121 0.23844,-0.22679 0.43613,-0.22679c0.20355,0 0.35183,0.0785 0.44485,0.23551c0.09308,0.15121 0.13956,0.34018 0.13956,0.56697c0,0.25588 -0.02031,0.55824 -0.06106,0.90715c-0.03489,0.3489 -0.09009,0.7036 -0.16573,1.06415l-0.17445,0.20934c0.06399,-0.24423 0.16866,-0.46809 0.31401,-0.67164c0.14542,-0.20355 0.32859,-0.36342 0.54952,-0.47974c0.22099,-0.12212 0.47688,-0.18317 0.76759,-0.18317c0.5699,0 1.02347,0.20355 1.36072,0.61058c0.34311,0.40124 0.51463,1.02926 0.51463,1.88408c0,0.59893 -0.09009,1.09904 -0.2704,1.50028c-0.17445,0.40124 -0.41576,0.7036 -0.72397,0.90715c-0.30236,0.19769 -0.64834,0.29657 -1.03799,0.29657c-0.36635,0 -0.68323,-0.1076 -0.95076,-0.32274c-0.26168,-0.21514 -0.43027,-0.52628 -0.50591,-0.93332l0.12212,0.09595c-0.02324,0.41868 -0.08137,0.7269 -0.17445,0.92459c-0.08723,0.1919 -0.20062,0.28784 -0.34018,0.28784zM226.89598,181.5657c0.29077,0 0.54666,-0.13084 0.76759,-0.39252c0.22099,-0.26168 0.33146,-0.67164 0.33146,-1.22988c0,-0.46522 -0.08723,-0.84316 -0.26168,-1.13393c-0.16859,-0.29077 -0.45357,-0.43613 -0.85481,-0.43613c-0.3256,0 -0.58728,0.13084 -0.78503,0.39252c-0.19769,0.25588 -0.29657,0.64547 -0.29657,1.16882c0,0.47681 0.09888,0.86933 0.29657,1.17755c0.19775,0.30236 0.46522,0.45357 0.80248,0.45357zM232.50521,182.61241c-0.64547,0 -1.1601,-0.09595 -1.5439,-0.28784c-0.38379,-0.1919 -0.65999,-0.46809 -0.82864,-0.82864c-0.16859,-0.36055 -0.25295,-0.79083 -0.25295,-1.29094c0,-0.63382 0.11632,-1.17175 0.3489,-1.61368c0.23844,-0.44778 0.5641,-0.79083 0.97693,-1.02926c0.41868,-0.23844 0.89263,-0.35763 1.42178,-0.35763c0.62223,0 1.07873,0.14536 1.36944,0.43613c0.29077,0.28492 0.43613,0.65999 0.43613,1.12521c0,0.37214 -0.09881,0.69488 -0.29657,0.96821c-0.1919,0.26747 -0.45937,0.47395 -0.80248,0.6193c-0.34305,0.14536 -0.73849,0.21806 -1.18627,0.21806c-0.25003,0 -0.49133,-0.03196 -0.72397,-0.09595c-0.23258,-0.06399 -0.44192,-0.15121 -0.62803,-0.26168l0.20934,-0.38379c-0.01745,0.13956 -0.02617,0.27912 -0.02617,0.41868c0,0.40703 0.12797,0.70073 0.38379,0.88098c0.25588,0.17445 0.6193,0.26168 1.09032,0.26168c0.36635,0 0.66005,-0.03196 0.88098,-0.09595c0.22099,-0.06399 0.40709,-0.12504 0.55824,-0.18317c0.15121,-0.06399 0.2995,-0.09595 0.44485,-0.09595c0.08143,0 0.15414,0.02324 0.21806,0.06978c0.06978,0.04068 0.12504,0.10174 0.16573,0.18317c0.04654,0.08143 0.06978,0.18025 0.06978,0.29657c0,0.17445 -0.08723,0.34311 -0.26168,0.50591c-0.17445,0.15701 -0.4332,0.28784 -0.77631,0.39252c-0.33725,0.09888 -0.75301,0.14828 -1.24733,0.14828zM231.9993,179.76013c0.41289,0 0.74435,-0.08723 0.99437,-0.26168c0.25009,-0.17445 0.37507,-0.38959 0.37507,-0.64547c0,-0.20355 -0.06978,-0.36928 -0.20934,-0.49719c-0.1337,-0.13377 -0.34597,-0.20062 -0.63675,-0.20062c-0.27327,0 -0.52043,0.05234 -0.74142,0.15701c-0.21514,0.09888 -0.38379,0.22972 -0.50591,0.39252c-0.12212,0.1628 -0.18317,0.34018 -0.18317,0.53208c0,0.16866 0.0785,0.2995 0.23551,0.39252c0.16286,0.08723 0.38672,0.13084 0.67164,0.13084zM235.55712,178.60875c0,-0.55824 0.05234,-0.95948 0.15701,-1.20371c0.10467,-0.25003 0.25295,-0.37507 0.44485,-0.37507c0.15121,0 0.2704,0.06399 0.35763,0.1919c0.08723,0.12212 0.15121,0.27619 0.1919,0.4623c0.04068,0.18025 0.06106,0.36342 0.06106,0.54952l-0.04361,-0.01745c0.09888,-0.31401 0.25003,-0.58441 0.45357,-0.8112c0.20934,-0.22679 0.45937,-0.34018 0.75014,-0.34018c0.34311,0 0.59606,0.14249 0.75886,0.42741c0.1628,0.27912 0.24423,0.62803 0.24423,1.04671c0,0.55824 -0.06399,0.94783 -0.1919,1.16882c-0.12791,0.22099 -0.2995,0.33146 -0.51463,0.33146c-0.15701,0 -0.27333,-0.06399 -0.3489,-0.1919c-0.06978,-0.12791 -0.09302,-0.3547 -0.06978,-0.68036c0.02324,-0.34311 0.00293,-0.58148 -0.06106,-0.71525c-0.06399,-0.13377 -0.16573,-0.20062 -0.30529,-0.20062c-0.16866,0 -0.30822,0.1076 -0.41868,0.32274c-0.10467,0.20934 -0.15701,0.46809 -0.15701,0.77631c0,0.12212 0.01452,0.27619 0.04361,0.4623c0.0291,0.1861 0.06106,0.38959 0.09595,0.61058c0.03489,0.21514 0.06685,0.43033 0.09595,0.64547c0.0291,0.21514 0.04361,0.41289 0.04361,0.59313c0,0.31981 -0.04941,0.54952 -0.14828,0.68908c-0.09888,0.13956 -0.23844,0.20934 -0.41868,0.20934c-0.20355,0 -0.36055,-0.06399 -0.47102,-0.1919c-0.11047,-0.13377 -0.19482,-0.3489 -0.25295,-0.64547c-0.04654,-0.26747 -0.09302,-0.58441 -0.13956,-0.95076c-0.04654,-0.36635 -0.0843,-0.74142 -0.11339,-1.12521c-0.0291,-0.38379 -0.04361,-0.72977 -0.04361,-1.03799zM240.60387,175.63435c0.1861,0 0.31401,0.07271 0.38379,0.21806c0.07557,0.14536 0.11339,0.36342 0.11339,0.65419c0,0.25003 -0.01452,0.56404 -0.04361,0.94204c-0.0291,0.378 -0.06685,0.74142 -0.11339,1.09032h-0.05234c0.1919,-0.36055 0.43906,-0.65126 0.74142,-0.87226c0.30236,-0.22099 0.62223,-0.33146 0.95948,-0.33146c0.29657,0 0.56117,0.07271 0.79375,0.21806c0.23258,0.13956 0.42161,0.36055 0.56672,0.66292c0.13395,0.27333 0.23302,0.59893 0.29657,0.97693c0.06417,0.37214 0.09595,0.7269 0.09595,1.06415c0,0.5408 -0.03738,0.97113 -0.11339,1.29094c-0.06978,0.31981 -0.16822,0.55245 -0.29657,0.69781c-0.12766,0.13956 -0.27887,0.20934 -0.45332,0.20934c-0.36635,0 -0.54952,-0.2995 -0.54952,-0.89842c0,-0.29077 0.01452,-0.59021 0.04361,-0.89842c0.03489,-0.30822 0.05234,-0.59021 0.05234,-0.84609c0,-0.43613 -0.06978,-0.76179 -0.20934,-0.97693c-0.13377,-0.22099 -0.32853,-0.33146 -0.58441,-0.33146c-0.31981,0 -0.57862,0.14249 -0.77631,0.42741c-0.19769,0.28492 -0.29657,0.67743 -0.29657,1.17755c0,0.26168 0.02324,0.54952 0.06978,0.86353c0.04654,0.30822 0.06978,0.59021 0.06978,0.84609c0,0.28492 -0.05526,0.49139 -0.16573,0.6193c-0.10467,0.12212 -0.2413,0.18317 -0.40996,0.18317c-0.12791,0 -0.2413,-0.02617 -0.34018,-0.0785c-0.09302,-0.04654 -0.17445,-0.14249 -0.24423,-0.28784c-0.06399,-0.15121 -0.11919,-0.37507 -0.16573,-0.67164c-0.03489,-0.22679 -0.06978,-0.49139 -0.10467,-0.79375c-0.03489,-0.30236 -0.06399,-0.6193 -0.08723,-0.95076c-0.02324,-0.33146 -0.04361,-0.65419 -0.06106,-0.96821c-0.01165,-0.31981 -0.01745,-0.61058 -0.01745,-0.87226c0,-0.82572 0.0785,-1.42471 0.23551,-1.79685c0.15701,-0.378 0.378,-0.56697 0.66292,-0.56697zM249.22464,182.62986c-0.19813,0 -0.33457,-0.07557 -0.40996,-0.22679c-0.06978,-0.15701 -0.1109,-0.40417 -0.12212,-0.74142l0.08723,0.04361c-0.32585,0.63382 -0.94204,0.95076 -1.84919,0.95076c-0.41308,0 -0.75637,-0.07271 -1.02926,-0.21806c-0.27351,-0.15121 -0.47725,-0.3489 -0.61058,-0.59313c-0.12835,-0.25003 -0.1919,-0.52043 -0.1919,-0.8112c0,-0.50011 0.17445,-0.8955 0.52335,-1.18627c0.3489,-0.29657 0.8112,-0.44485 1.38689,-0.44485c0.37756,0 0.70653,0.05526 0.98565,0.16573c0.27912,0.11047 0.51712,0.26461 0.71525,0.4623l-0.14828,-0.01745c-0.04112,-0.58734 -0.16884,-1.00602 -0.38379,-1.25605c-0.20934,-0.25588 -0.50902,-0.38379 -0.89842,-0.38379c-0.22679,0 -0.43613,0.03489 -0.62803,0.10467c-0.1919,0.06978 -0.36946,0.14249 -0.53208,0.21806c-0.15701,0.06978 -0.30529,0.10467 -0.44485,0.10467c-0.13956,0 -0.25046,-0.04654 -0.33146,-0.13956c-0.07601,-0.09302 -0.11339,-0.21227 -0.11339,-0.35763c0,-0.20934 0.09844,-0.40703 0.29657,-0.59313c0.20311,-0.1861 0.47102,-0.33725 0.80248,-0.45357c0.33146,-0.11632 0.69158,-0.17445 1.0816,-0.17445c0.47102,0 0.87475,0.11339 1.21244,0.34018c0.33707,0.22679 0.59313,0.55824 0.76759,0.99437c0.15078,0.37214 0.25856,0.78796 0.32274,1.24733c0.06355,0.45937 0.09595,0.95076 0.09595,1.47411c0,0.39544 -0.02056,0.70073 -0.06106,0.91587c-0.04112,0.21514 -0.10467,0.36635 -0.1919,0.45357c-0.08162,0.08143 -0.1919,0.12212 -0.33146,0.12212zM247.29695,181.65293c0.1919,0 0.38629,-0.02617 0.58441,-0.0785c0.1975,-0.05813 0.36323,-0.14249 0.49719,-0.25295c0.13333,-0.11047 0.20062,-0.24716 0.20062,-0.40996c0,-0.13956 -0.05857,-0.25295 -0.17445,-0.34018c-0.1109,-0.09302 -0.25918,-0.1628 -0.44485,-0.20934c-0.18068,-0.04654 -0.37507,-0.06978 -0.58441,-0.06978c-0.35513,0 -0.62553,0.06106 -0.8112,0.18317c-0.18068,0.12212 -0.2704,0.28492 -0.2704,0.48846c0,0.22099 0.08411,0.39252 0.25295,0.51463c0.17445,0.11632 0.42429,0.17445 0.75014,0.17445zM252.5037,182.66475c-0.56946,0 -1.01431,-0.21227 -1.33455,-0.63675c-0.31962,-0.43033 -0.47974,-1.08453 -0.47974,-1.96258c0,-0.87226 0.15701,-1.509 0.47102,-1.91024c0.32024,-0.40703 0.77631,-0.61058 1.36944,-0.61058c0.33769,0 0.63114,0.06978 0.88098,0.20934c0.25607,0.13956 0.48286,0.33725 0.68036,0.59313l-0.06978,0.03489c-0.05234,-0.23844 -0.10467,-0.49139 -0.15701,-0.75886c-0.05234,-0.26747 -0.09595,-0.52043 -0.13084,-0.75886c-0.02866,-0.24423 -0.04361,-0.43613 -0.04361,-0.57569c0,-0.19769 0.0324,-0.3489 0.09595,-0.45357c0.06417,-0.11047 0.16573,-0.16573 0.30529,-0.16573c0.19813,0 0.35763,0.0843 0.47974,0.25295c0.12212,0.1628 0.22429,0.41576 0.30529,0.75886c0.07601,0.30822 0.14268,0.67457 0.20062,1.09904c0.05857,0.41868 0.10467,0.85774 0.13956,1.31711c0.04112,0.45357 0.06106,0.8897 0.06106,1.30839c0,0.58148 -0.03178,1.03506 -0.09595,1.36072c-0.05794,0.31981 -0.14205,0.54373 -0.25295,0.67164c-0.10467,0.12791 -0.22928,0.1919 -0.37507,0.1919c-0.18006,0 -0.30217,-0.09015 -0.36635,-0.2704c-0.06355,-0.18025 -0.08972,-0.47395 -0.0785,-0.88098h0.13084c-0.15701,0.36055 -0.38629,0.6484 -0.68908,0.86353c-0.29657,0.21514 -0.64547,0.32274 -1.04671,0.32274zM252.966,181.58315c0.20934,0 0.40124,-0.05234 0.57569,-0.15701c0.18068,-0.11047 0.32274,-0.27912 0.42741,-0.50591c0.1109,-0.22679 0.16573,-0.51463 0.16573,-0.86353c0,-0.44778 -0.10156,-0.8112 -0.30529,-1.09032c-0.20311,-0.28492 -0.49719,-0.42741 -0.88098,-0.42741c-0.30217,0 -0.54952,0.12504 -0.74142,0.37507c-0.18567,0.25003 -0.27912,0.62803 -0.27912,1.13393c0,0.44778 0.09346,0.81699 0.27912,1.10777c0.1919,0.28492 0.44485,0.42741 0.75886,0.42741zM260.1534,182.62986c-0.19813,0 -0.33457,-0.07557 -0.40996,-0.22679c-0.06978,-0.15701 -0.1109,-0.40417 -0.12212,-0.74142l0.08723,0.04361c-0.32585,0.63382 -0.94204,0.95076 -1.84919,0.95076c-0.41308,0 -0.75637,-0.07271 -1.02926,-0.21806c-0.27351,-0.15121 -0.47725,-0.3489 -0.61058,-0.59313c-0.12835,-0.25003 -0.1919,-0.52043 -0.1919,-0.8112c0,-0.50011 0.17445,-0.8955 0.52335,-1.18627c0.3489,-0.29657 0.8112,-0.44485 1.38689,-0.44485c0.37756,0 0.70653,0.05526 0.98565,0.16573c0.27912,0.11047 0.51712,0.26461 0.71525,0.4623l-0.14828,-0.01745c-0.04112,-0.58734 -0.16884,-1.00602 -0.38379,-1.25605c-0.20934,-0.25588 -0.50902,-0.38379 -0.89842,-0.38379c-0.22679,0 -0.43613,0.03489 -0.62803,0.10467c-0.1919,0.06978 -0.36946,0.14249 -0.53208,0.21806c-0.15701,0.06978 -0.30529,0.10467 -0.44485,0.10467c-0.13956,0 -0.25046,-0.04654 -0.33146,-0.13956c-0.07601,-0.09302 -0.11339,-0.21227 -0.11339,-0.35763c0,-0.20934 0.09844,-0.40703 0.29657,-0.59313c0.20311,-0.1861 0.47102,-0.33725 0.80248,-0.45357c0.33146,-0.11632 0.69158,-0.17445 1.0816,-0.17445c0.47102,0 0.87475,0.11339 1.21244,0.34018c0.33707,0.22679 0.59313,0.55824 0.76759,0.99437c0.15078,0.37214 0.25856,0.78796 0.32274,1.24733c0.06355,0.45937 0.09595,0.95076 0.09595,1.47411c0,0.39544 -0.02056,0.70073 -0.06106,0.91587c-0.04112,0.21514 -0.10467,0.36635 -0.1919,0.45357c-0.08162,0.08143 -0.1919,0.12212 -0.33146,0.12212zM258.22571,181.65293c0.1919,0 0.38629,-0.02617 0.58441,-0.0785c0.1975,-0.05813 0.36323,-0.14249 0.49719,-0.25295c0.13333,-0.11047 0.20062,-0.24716 0.20062,-0.40996c0,-0.13956 -0.05857,-0.25295 -0.17445,-0.34018c-0.1109,-0.09302 -0.25918,-0.1628 -0.44485,-0.20934c-0.18068,-0.04654 -0.37507,-0.06978 -0.58441,-0.06978c-0.35513,0 -0.62553,0.06106 -0.8112,0.18317c-0.18068,0.12212 -0.2704,0.28492 -0.2704,0.48846c0,0.22099 0.08411,0.39252 0.25295,0.51463c0.17445,0.11632 0.42429,0.17445 0.75014,0.17445zM262.39448,177.13464c0.15701,0 0.28784,0.09302 0.39252,0.27912c0.10467,0.18025 0.17757,0.46809 0.21806,0.86353l-0.18317,0.16573c0.10467,-0.40703 0.29968,-0.71818 0.58441,-0.93332c0.28535,-0.21514 0.62242,-0.32274 1.01182,-0.32274c0.36074,0 0.68036,0.09302 0.95948,0.27912c0.27912,0.1861 0.49719,0.46809 0.65419,0.84609c0.16324,0.37214 0.24423,0.8403 0.24423,1.40433c0,0.91294 -0.16573,1.58751 -0.49719,2.02364c-0.32523,0.43033 -0.77008,0.64547 -1.33455,0.64547c-0.40685,0 -0.72647,-0.08723 -0.95948,-0.26168c-0.23239,-0.17445 -0.39501,-0.38672 -0.48846,-0.63675l0.10467,-0.05234c0.04673,0.3489 0.08473,0.69488 0.11339,1.03799c0.03489,0.33725 0.05234,0.63382 0.05234,0.8897c0,0.26168 -0.04611,0.48267 -0.13956,0.66292c-0.09283,0.18025 -0.24112,0.2704 -0.44485,0.2704c-0.1975,0 -0.34579,-0.07557 -0.44485,-0.22679c-0.09844,-0.15121 -0.17134,-0.35183 -0.21806,-0.60186c-0.03489,-0.25588 -0.06978,-0.58441 -0.10467,-0.98565c-0.03489,-0.40124 -0.06355,-0.83444 -0.08723,-1.29966c-0.01745,-0.46522 -0.02617,-0.9188 -0.02617,-1.36072c0,-0.45357 0.01495,-0.87805 0.04361,-1.2735c0.03489,-0.40124 0.07601,-0.7269 0.12212,-0.97693c0.04112,-0.14536 0.09346,-0.25295 0.15701,-0.32274c0.06978,-0.07557 0.16012,-0.11339 0.2704,-0.11339zM264.06049,178.19007c-0.31401,0 -0.56697,0.15701 -0.75886,0.47102c-0.18567,0.30822 -0.27912,0.7036 -0.27912,1.18627c0,0.49426 0.09346,0.86353 0.27912,1.10777c0.1919,0.24423 0.43924,0.36635 0.74142,0.36635c0.3489,0 0.59937,-0.13663 0.75014,-0.40996c0.15701,-0.27912 0.23551,-0.63968 0.23551,-1.0816c0,-0.56404 -0.09595,-0.97693 -0.28784,-1.23861c-0.1919,-0.26747 -0.41868,-0.40124 -0.68036,-0.40124zM270.97126,182.62986c-0.1975,0 -0.33457,-0.07557 -0.40996,-0.22679c-0.06978,-0.15701 -0.11028,-0.40417 -0.12212,-0.74142l0.08723,0.04361c-0.32585,0.63382 -0.94204,0.95076 -1.84919,0.95076c-0.41308,0 -0.75575,-0.07271 -1.02926,-0.21806c-0.27351,-0.15121 -0.47663,-0.3489 -0.61058,-0.59313c-0.12772,-0.25003 -0.1919,-0.52043 -0.1919,-0.8112c0,-0.50011 0.17445,-0.8955 0.52335,-1.18627c0.3489,-0.29657 0.8112,-0.44485 1.38689,-0.44485c0.37819,0 0.70653,0.05526 0.98565,0.16573c0.27912,0.11047 0.51775,0.26461 0.71525,0.4623l-0.14828,-0.01745c-0.0405,-0.58734 -0.16884,-1.00602 -0.38379,-1.25605c-0.20934,-0.25588 -0.50902,-0.38379 -0.89842,-0.38379c-0.22679,0 -0.43613,0.03489 -0.62803,0.10467c-0.1919,0.06978 -0.36946,0.14249 -0.53208,0.21806c-0.15701,0.06978 -0.30529,0.10467 -0.44485,0.10467c-0.13956,0 -0.24984,-0.04654 -0.33146,-0.13956c-0.07539,-0.09302 -0.11339,-0.21227 -0.11339,-0.35763c0,-0.20934 0.09906,-0.40703 0.29657,-0.59313c0.20373,-0.1861 0.47102,-0.33725 0.80248,-0.45357c0.33146,-0.11632 0.6922,-0.17445 1.0816,-0.17445c0.47102,0 0.87537,0.11339 1.21244,0.34018c0.33707,0.22679 0.59313,0.55824 0.76759,0.99437c0.1514,0.37214 0.25856,0.78796 0.32274,1.24733c0.06417,0.45937 0.09595,0.95076 0.09595,1.47411c0,0.39544 -0.02056,0.70073 -0.06106,0.91587c-0.0405,0.21514 -0.10467,0.36635 -0.1919,0.45357c-0.08162,0.08143 -0.1919,0.12212 -0.33146,0.12212zM269.04357,181.65293c0.1919,0 0.38691,-0.02617 0.58441,-0.0785c0.1975,-0.05813 0.36323,-0.14249 0.49719,-0.25295c0.13395,-0.11047 0.20062,-0.24716 0.20062,-0.40996c0,-0.13956 -0.05794,-0.25295 -0.17445,-0.34018c-0.11028,-0.09302 -0.25856,-0.1628 -0.44485,-0.20934c-0.18006,-0.04654 -0.37507,-0.06978 -0.58441,-0.06978c-0.35451,0 -0.62491,0.06106 -0.8112,0.18317c-0.18006,0.12212 -0.2704,0.28492 -0.2704,0.48846c0,0.22099 0.08411,0.39252 0.25295,0.51463c0.17445,0.11632 0.42429,0.17445 0.75014,0.17445zM273.50952,177.11719c0.18567,0 0.3109,0.07557 0.37507,0.22679c0.06978,0.15121 0.10467,0.37507 0.10467,0.67164c0,0.06978 -0.00623,0.14536 -0.01745,0.22679c-0.00623,0.07557 -0.01745,0.14536 -0.03489,0.20934l-0.01745,-0.17445c0.13956,-0.378 0.35451,-0.67164 0.64547,-0.88098c0.29034,-0.21514 0.59874,-0.32274 0.92459,-0.32274c0.36012,0 0.6598,0.10174 0.89842,0.30529c0.24423,0.20355 0.42429,0.48846 0.5408,0.85481c0.12212,0.36635 0.18317,0.79955 0.18317,1.29966c0,0.30822 -0.01495,0.61351 -0.04361,0.91587c-0.02368,0.29657 -0.05857,0.5699 -0.10467,0.81992c-0.04112,0.24423 -0.08723,0.44485 -0.13956,0.60186c-0.06978,0.19769 -0.16012,0.34597 -0.2704,0.44485c-0.1109,0.09302 -0.24174,0.13956 -0.39252,0.13956c-0.1514,0 -0.26791,-0.05526 -0.3489,-0.16573c-0.08162,-0.11047 -0.12212,-0.25875 -0.12212,-0.44485c0,-0.19769 0.01433,-0.43613 0.04361,-0.71525c0.02866,-0.28492 0.05483,-0.57276 0.0785,-0.86353c0.02866,-0.29657 0.04361,-0.56404 0.04361,-0.80248c0,-0.81413 -0.26791,-1.22116 -0.80248,-1.22116c-0.28535,0 -0.52335,0.12791 -0.71525,0.38379c-0.1919,0.25003 -0.32024,0.60765 -0.38379,1.07288c-0.01745,0.15701 -0.02617,0.35183 -0.02617,0.58441c0,0.23258 0,0.46522 0,0.69781c0.00561,0.22679 0,0.41868 -0.01745,0.57569c-0.02368,0.3489 -0.09034,0.59893 -0.20062,0.75014c-0.10467,0.15121 -0.25046,0.22679 -0.43613,0.22679c-0.21557,0 -0.37819,-0.09888 -0.48846,-0.29657c-0.1109,-0.20355 -0.16573,-0.54373 -0.16573,-1.02054c0,-0.24423 0.00561,-0.51756 0.01745,-0.81992c0.01121,-0.30236 0.02617,-0.60479 0.04361,-0.90715c0.02305,-0.30822 0.04922,-0.58734 0.0785,-0.83737c0.05794,-0.47102 0.14205,-0.84316 0.25295,-1.11649c0.11028,-0.27912 0.27601,-0.41868 0.49719,-0.41868zM281.55049,182.66475c-0.56946,0 -1.01431,-0.21227 -1.33455,-0.63675c-0.31962,-0.43033 -0.47974,-1.08453 -0.47974,-1.96258c0,-0.87226 0.15701,-1.509 0.47102,-1.91024c0.32024,-0.40703 0.77631,-0.61058 1.36944,-0.61058c0.33769,0 0.63114,0.06978 0.88098,0.20934c0.25607,0.13956 0.48286,0.33725 0.68036,0.59313l-0.06978,0.03489c-0.05234,-0.23844 -0.10467,-0.49139 -0.15701,-0.75886c-0.05234,-0.26747 -0.09595,-0.52043 -0.13084,-0.75886c-0.02866,-0.24423 -0.04361,-0.43613 -0.04361,-0.57569c0,-0.19769 0.0324,-0.3489 0.09595,-0.45357c0.06417,-0.11047 0.16573,-0.16573 0.30529,-0.16573c0.19813,0 0.35763,0.0843 0.47974,0.25295c0.12212,0.1628 0.22429,0.41576 0.30529,0.75886c0.07601,0.30822 0.14268,0.67457 0.20062,1.09904c0.05857,0.41868 0.10467,0.85774 0.13956,1.31711c0.04112,0.45357 0.06106,0.8897 0.06106,1.30839c0,0.58148 -0.03178,1.03506 -0.09595,1.36072c-0.05794,0.31981 -0.14205,0.54373 -0.25295,0.67164c-0.10467,0.12791 -0.22928,0.1919 -0.37507,0.1919c-0.18006,0 -0.30217,-0.09015 -0.36635,-0.2704c-0.06355,-0.18025 -0.08972,-0.47395 -0.0785,-0.88098h0.13084c-0.15701,0.36055 -0.38629,0.6484 -0.68908,0.86353c-0.29657,0.21514 -0.64547,0.32274 -1.04671,0.32274zM282.01279,181.58315c0.20934,0 0.40124,-0.05234 0.57569,-0.15701c0.18068,-0.11047 0.32274,-0.27912 0.42741,-0.50591c0.1109,-0.22679 0.16573,-0.51463 0.16573,-0.86353c0,-0.44778 -0.10156,-0.8112 -0.30529,-1.09032c-0.20311,-0.28492 -0.49719,-0.42741 -0.88098,-0.42741c-0.30217,0 -0.54952,0.12504 -0.74142,0.37507c-0.18567,0.25003 -0.27912,0.62803 -0.27912,1.13393c0,0.44778 0.09346,0.81699 0.27912,1.10777c0.1919,0.28492 0.44485,0.42741 0.75886,0.42741zM289.20018,182.62986c-0.19813,0 -0.33457,-0.07557 -0.40996,-0.22679c-0.06978,-0.15701 -0.1109,-0.40417 -0.12212,-0.74142l0.08723,0.04361c-0.32585,0.63382 -0.94204,0.95076 -1.84919,0.95076c-0.41308,0 -0.75637,-0.07271 -1.02926,-0.21806c-0.27351,-0.15121 -0.47725,-0.3489 -0.61058,-0.59313c-0.12835,-0.25003 -0.1919,-0.52043 -0.1919,-0.8112c0,-0.50011 0.17445,-0.8955 0.52335,-1.18627c0.3489,-0.29657 0.8112,-0.44485 1.38689,-0.44485c0.37756,0 0.70653,0.05526 0.98565,0.16573c0.27912,0.11047 0.51712,0.26461 0.71525,0.4623l-0.14828,-0.01745c-0.04112,-0.58734 -0.16884,-1.00602 -0.38379,-1.25605c-0.20934,-0.25588 -0.50902,-0.38379 -0.89842,-0.38379c-0.22679,0 -0.43613,0.03489 -0.62803,0.10467c-0.1919,0.06978 -0.36946,0.14249 -0.53208,0.21806c-0.15701,0.06978 -0.30529,0.10467 -0.44485,0.10467c-0.13956,0 -0.25046,-0.04654 -0.33146,-0.13956c-0.07601,-0.09302 -0.11339,-0.21227 -0.11339,-0.35763c0,-0.20934 0.09844,-0.40703 0.29657,-0.59313c0.20311,-0.1861 0.47102,-0.33725 0.80248,-0.45357c0.33146,-0.11632 0.69158,-0.17445 1.0816,-0.17445c0.47102,0 0.87475,0.11339 1.21244,0.34018c0.33707,0.22679 0.59313,0.55824 0.76759,0.99437c0.15078,0.37214 0.25856,0.78796 0.32274,1.24733c0.06355,0.45937 0.09595,0.95076 0.09595,1.47411c0,0.39544 -0.02056,0.70073 -0.06106,0.91587c-0.04112,0.21514 -0.10467,0.36635 -0.1919,0.45357c-0.08162,0.08143 -0.1919,0.12212 -0.33146,0.12212zM287.2725,181.65293c0.1919,0 0.38629,-0.02617 0.58441,-0.0785c0.1975,-0.05813 0.36323,-0.14249 0.49719,-0.25295c0.13333,-0.11047 0.20062,-0.24716 0.20062,-0.40996c0,-0.13956 -0.05857,-0.25295 -0.17445,-0.34018c-0.1109,-0.09302 -0.25918,-0.1628 -0.44485,-0.20934c-0.18068,-0.04654 -0.37507,-0.06978 -0.58441,-0.06978c-0.35513,0 -0.62553,0.06106 -0.8112,0.18317c-0.18068,0.12212 -0.2704,0.28492 -0.2704,0.48846c0,0.22099 0.08411,0.39252 0.25295,0.51463c0.17445,0.11632 0.42429,0.17445 0.75014,0.17445zM291.73783,177.11719c0.18629,0 0.31152,0.07557 0.37507,0.22679c0.06978,0.15121 0.10467,0.37507 0.10467,0.67164c0,0.06978 -0.00561,0.14536 -0.01745,0.22679c-0.00561,0.07557 -0.01745,0.14536 -0.03489,0.20934l-0.01745,-0.17445c0.13956,-0.378 0.35513,-0.67164 0.64547,-0.88098c0.29096,-0.21514 0.59937,-0.32274 0.92459,-0.32274c0.36074,0 0.66042,0.10174 0.89842,0.30529c0.24423,0.20355 0.42491,0.48846 0.5408,0.85481c0.12212,0.36635 0.18317,0.79955 0.18317,1.29966c0,0.30822 -0.01433,0.61351 -0.04361,0.91587c-0.02305,0.29657 -0.05794,0.5699 -0.10467,0.81992c-0.0405,0.24423 -0.08723,0.44485 -0.13956,0.60186c-0.06978,0.19769 -0.1595,0.34597 -0.2704,0.44485c-0.11028,0.09302 -0.24112,0.13956 -0.39252,0.13956c-0.15078,0 -0.26728,-0.05526 -0.3489,-0.16573c-0.081,-0.11047 -0.12212,-0.25875 -0.12212,-0.44485c0,-0.19769 0.01495,-0.43613 0.04361,-0.71525c0.02928,-0.28492 0.05545,-0.57276 0.0785,-0.86353c0.02928,-0.29657 0.04361,-0.56404 0.04361,-0.80248c0,-0.81413 -0.26728,-1.22116 -0.80248,-1.22116c-0.28473,0 -0.52335,0.12791 -0.71525,0.38379c-0.1919,0.25003 -0.31962,0.60765 -0.38379,1.07288c-0.01745,0.15701 -0.02617,0.35183 -0.02617,0.58441c0,0.23258 0,0.46522 0,0.69781c0.00623,0.22679 0,0.41868 -0.01745,0.57569c-0.02305,0.3489 -0.08972,0.59893 -0.20062,0.75014c-0.10467,0.15121 -0.24984,0.22679 -0.43613,0.22679c-0.21495,0 -0.37756,-0.09888 -0.48846,-0.29657c-0.11028,-0.20355 -0.16573,-0.54373 -0.16573,-1.02054c0,-0.24423 0.00623,-0.51756 0.01745,-0.81992c0.01184,-0.30236 0.02617,-0.60479 0.04361,-0.90715c0.02368,-0.30822 0.04984,-0.58734 0.0785,-0.83737c0.05857,-0.47102 0.14268,-0.84316 0.25295,-1.11649c0.1109,-0.27912 0.27663,-0.41868 0.49719,-0.41868zM211.62599,187.67399c0.51756,0 0.8897,0.07557 1.11649,0.22679c0.22679,0.15121 0.34018,0.34597 0.34018,0.58441c0,0.13956 -0.04941,0.25588 -0.14828,0.3489c-0.09302,0.08723 -0.22679,0.13084 -0.40124,0.13084c-0.18025,0 -0.36921,-0.02617 -0.56697,-0.0785c-0.1919,-0.05234 -0.41576,-0.0785 -0.67164,-0.0785c-0.29657,0 -0.5175,0.05813 -0.66292,0.17445c-0.14536,0.11632 -0.21806,0.26461 -0.21806,0.44485c0,0.16866 0.06399,0.30236 0.1919,0.40124c0.13377,0.09302 0.38672,0.1628 0.75886,0.20934c0.41289,0.04654 0.75307,0.12212 1.02054,0.22679c0.27333,0.09888 0.47688,0.25003 0.61058,0.45357c0.13377,0.19769 0.20062,0.47102 0.20062,0.81992c0,0.55245 -0.19476,0.96241 -0.58441,1.22988c-0.38959,0.26747 -0.92746,0.40124 -1.61368,0.40124c-0.43613,0 -0.7821,-0.03489 -1.03799,-0.10467c-0.25582,-0.06978 -0.44192,-0.16866 -0.55824,-0.29657c-0.11047,-0.12791 -0.16573,-0.27912 -0.16573,-0.45357c0,-0.15121 0.04947,-0.26747 0.14828,-0.3489c0.10467,-0.08723 0.22679,-0.13084 0.36635,-0.13084c0.13377,0 0.27626,0.01745 0.42741,0.05234c0.15121,0.0291 0.31115,0.06106 0.47974,0.09595c0.16866,0.03489 0.34311,0.05234 0.52335,0.05234c0.58155,0 0.87226,-0.18025 0.87226,-0.5408c0,-0.12212 -0.02903,-0.22099 -0.08723,-0.29657c-0.05813,-0.07557 -0.1628,-0.13663 -0.31401,-0.18317c-0.15115,-0.05234 -0.37214,-0.09302 -0.66292,-0.12212c-0.3489,-0.03489 -0.65126,-0.09302 -0.90715,-0.17445c-0.25582,-0.08723 -0.45357,-0.22679 -0.59313,-0.41868c-0.13956,-0.19769 -0.20934,-0.46809 -0.20934,-0.8112c0,-0.5408 0.20355,-0.97693 0.61058,-1.30839c0.40709,-0.33725 0.98565,-0.50591 1.73579,-0.50591zM217.89042,193.22155c-0.19775,0 -0.33439,-0.07557 -0.40996,-0.22679c-0.06978,-0.15701 -0.11053,-0.40417 -0.12212,-0.74142l0.08723,0.04361c-0.32566,0.63382 -0.94204,0.95076 -1.84919,0.95076c-0.41289,0 -0.756,-0.07271 -1.02926,-0.21806c-0.27333,-0.15121 -0.47688,-0.3489 -0.61058,-0.59313c-0.12797,-0.25003 -0.1919,-0.52043 -0.1919,-0.8112c0,-0.50011 0.17445,-0.8955 0.52335,-1.18627c0.3489,-0.29657 0.8112,-0.44485 1.38689,-0.44485c0.37794,0 0.70653,0.05526 0.98565,0.16573c0.27912,0.11047 0.5175,0.26461 0.71525,0.4623l-0.14828,-0.01745c-0.04075,-0.58734 -0.16866,-1.00602 -0.38379,-1.25605c-0.20934,-0.25588 -0.50884,-0.38379 -0.89842,-0.38379c-0.22679,0 -0.43613,0.03489 -0.62803,0.10467c-0.1919,0.06978 -0.36928,0.14249 -0.53208,0.21806c-0.15701,0.06978 -0.30529,0.10467 -0.44485,0.10467c-0.13956,0 -0.25009,-0.04654 -0.33146,-0.13956c-0.07564,-0.09302 -0.11339,-0.21227 -0.11339,-0.35763c0,-0.20934 0.09881,-0.40703 0.29657,-0.59313c0.20349,-0.1861 0.47102,-0.33725 0.80248,-0.45357c0.33146,-0.11632 0.69195,-0.17445 1.0816,-0.17445c0.47102,0 0.87512,0.11339 1.21244,0.34018c0.33725,0.22679 0.59313,0.55824 0.76759,0.99437c0.15115,0.37214 0.25875,0.78796 0.32274,1.24733c0.06392,0.45937 0.09595,0.95076 0.09595,1.47411c0,0.39544 -0.02037,0.70073 -0.06106,0.91587c-0.04075,0.21514 -0.10467,0.36635 -0.1919,0.45357c-0.08143,0.08143 -0.1919,0.12212 -0.33146,0.12212zM215.96273,192.24462c0.1919,0 0.38666,-0.02617 0.58441,-0.0785c0.19769,-0.05813 0.36342,-0.14249 0.49719,-0.25295c0.1337,-0.11047 0.20062,-0.24716 0.20062,-0.40996c0,-0.13956 -0.05819,-0.25295 -0.17445,-0.34018c-0.11053,-0.09302 -0.25881,-0.1628 -0.44485,-0.20934c-0.18031,-0.04654 -0.37507,-0.06978 -0.58441,-0.06978c-0.35476,0 -0.62516,0.06106 -0.8112,0.18317c-0.18031,0.12212 -0.2704,0.28492 -0.2704,0.48846c0,0.22099 0.0843,0.39252 0.25295,0.51463c0.17445,0.11632 0.42448,0.17445 0.75014,0.17445zM223.29816,189.13939c0.05819,-0.23844 0.15993,-0.45357 0.30529,-0.64547c0.15121,-0.1919 0.33146,-0.34311 0.5408,-0.45357c0.2152,-0.11632 0.45071,-0.17445 0.70653,-0.17445c0.30242,0 0.5699,0.07271 0.80248,0.21806c0.23264,0.14536 0.41582,0.38379 0.54952,0.71525c0.13956,0.33146 0.20934,0.77338 0.20934,1.32583c0,0.28492 -0.01159,0.57276 -0.03489,0.86353c-0.02324,0.29077 -0.05234,0.56117 -0.08723,0.8112c-0.03489,0.25003 -0.07265,0.45937 -0.11339,0.62803c-0.05813,0.23258 -0.14828,0.40996 -0.2704,0.53208c-0.11626,0.12212 -0.26454,0.18317 -0.44485,0.18317c-0.15115,0 -0.2704,-0.06685 -0.35763,-0.20062c-0.08723,-0.13377 -0.13084,-0.32566 -0.13084,-0.57569c0,-0.11632 0.01458,-0.26461 0.04361,-0.44485c0.0291,-0.1861 0.06106,-0.38672 0.09595,-0.60186c0.03489,-0.22099 0.06691,-0.44485 0.09595,-0.67164c0.0291,-0.22679 0.04361,-0.44192 0.04361,-0.64547c0,-0.30236 -0.06106,-0.53501 -0.18317,-0.69781c-0.12212,-0.16866 -0.29364,-0.25295 -0.51463,-0.25295c-0.24423,0 -0.44772,0.12791 -0.61058,0.38379c-0.15701,0.25003 -0.25003,0.61637 -0.27912,1.09904c-0.02324,0.43033 -0.04361,0.81413 -0.06106,1.15138c-0.01745,0.33146 -0.06106,0.60479 -0.13084,0.81992c-0.04648,0.15121 -0.11339,0.26461 -0.20062,0.34018c-0.08137,0.07557 -0.1919,0.11339 -0.33146,0.11339c-0.15701,0 -0.28199,-0.05813 -0.37507,-0.17445c-0.08723,-0.11632 -0.13663,-0.2995 -0.14828,-0.54952c-0.01159,-0.20934 -0.01452,-0.4565 -0.00872,-0.74142c0.00586,-0.28492 0.00872,-0.56697 0.00872,-0.84609c0.00586,-0.28492 0.00293,-0.52043 -0.00872,-0.70653c-0.02324,-0.37214 -0.09009,-0.64547 -0.20062,-0.81992c-0.10467,-0.17445 -0.26454,-0.26168 -0.47974,-0.26168c-0.25003,0 -0.45065,0.11632 -0.60186,0.3489c-0.14536,0.23258 -0.23551,0.55532 -0.2704,0.96821c-0.01159,0.16866 -0.01745,0.378 -0.01745,0.62803c0.00586,0.24423 0.01165,0.48846 0.01745,0.7327c0.00586,0.24423 0.00293,0.44778 -0.00872,0.61058c-0.00579,0.3489 -0.06106,0.59893 -0.16573,0.75014c-0.09881,0.15121 -0.23838,0.22679 -0.41868,0.22679c-0.21514,0 -0.37214,-0.06978 -0.47102,-0.20934c-0.09302,-0.13956 -0.15408,-0.36342 -0.18317,-0.67164c-0.02324,-0.27333 -0.04068,-0.54373 -0.05234,-0.8112c-0.01159,-0.27333 -0.01745,-0.54373 -0.01745,-0.8112c0,-0.27333 0.00586,-0.5699 0.01745,-0.8897c0.01745,-0.31981 0.04075,-0.62223 0.06978,-0.90715c0.03489,-0.29077 0.09595,-0.53501 0.18317,-0.7327c0.08723,-0.19769 0.23264,-0.29657 0.43613,-0.29657c0.16866,0 0.28784,0.0843 0.35763,0.25295c0.06978,0.1628 0.10467,0.41576 0.10467,0.75886c0,0.11632 -0.00872,0.22386 -0.02617,0.32274l-0.02617,-0.17445c0.11632,-0.378 0.30242,-0.67164 0.55824,-0.88098c0.25588,-0.21514 0.5408,-0.32274 0.85481,-0.32274c0.41289,0 0.73562,0.13377 0.96821,0.40124c0.23264,0.26168 0.36055,0.6251 0.38379,1.09032zM231.28941,193.22155c-0.19769,0 -0.33439,-0.07557 -0.40996,-0.22679c-0.06978,-0.15701 -0.11047,-0.40417 -0.12212,-0.74142l0.08723,0.04361c-0.32566,0.63382 -0.94204,0.95076 -1.84919,0.95076c-0.41289,0 -0.75594,-0.07271 -1.02926,-0.21806c-0.27333,-0.15121 -0.47681,-0.3489 -0.61058,-0.59313c-0.12791,-0.25003 -0.1919,-0.52043 -0.1919,-0.8112c0,-0.50011 0.17445,-0.8955 0.52335,-1.18627c0.3489,-0.29657 0.8112,-0.44485 1.38689,-0.44485c0.378,0 0.70653,0.05526 0.98565,0.16573c0.27912,0.11047 0.51756,0.26461 0.71525,0.4623l-0.14828,-0.01745c-0.04068,-0.58734 -0.16866,-1.00602 -0.38379,-1.25605c-0.20934,-0.25588 -0.50884,-0.38379 -0.89842,-0.38379c-0.22679,0 -0.43613,0.03489 -0.62803,0.10467c-0.1919,0.06978 -0.36928,0.14249 -0.53208,0.21806c-0.15701,0.06978 -0.30529,0.10467 -0.44485,0.10467c-0.13956,0 -0.25003,-0.04654 -0.33146,-0.13956c-0.07557,-0.09302 -0.11339,-0.21227 -0.11339,-0.35763c0,-0.20934 0.09888,-0.40703 0.29657,-0.59313c0.20355,-0.1861 0.47102,-0.33725 0.80248,-0.45357c0.33146,-0.11632 0.69201,-0.17445 1.0816,-0.17445c0.47102,0 0.87519,0.11339 1.21244,0.34018c0.33725,0.22679 0.59313,0.55824 0.76759,0.99437c0.15121,0.37214 0.25875,0.78796 0.32274,1.24733c0.06399,0.45937 0.09595,0.95076 0.09595,1.47411c0,0.39544 -0.02037,0.70073 -0.06106,0.91587c-0.04068,0.21514 -0.10467,0.36635 -0.1919,0.45357c-0.08143,0.08143 -0.1919,0.12212 -0.33146,0.12212zM229.36172,192.24462c0.1919,0 0.38672,-0.02617 0.58441,-0.0785c0.19769,-0.05813 0.36342,-0.14249 0.49719,-0.25295c0.13377,-0.11047 0.20062,-0.24716 0.20062,-0.40996c0,-0.13956 -0.05813,-0.25295 -0.17445,-0.34018c-0.11047,-0.09302 -0.25875,-0.1628 -0.44485,-0.20934c-0.18025,-0.04654 -0.37507,-0.06978 -0.58441,-0.06978c-0.3547,0 -0.6251,0.06106 -0.8112,0.18317c-0.18025,0.12212 -0.2704,0.28492 -0.2704,0.48846c0,0.22099 0.0843,0.39252 0.25295,0.51463c0.17445,0.11632 0.42448,0.17445 0.75014,0.17445zM235.27712,187.72633c0.15701,0 0.28784,0.09302 0.39252,0.27912c0.10467,0.18025 0.17738,0.46809 0.21806,0.86353l-0.18317,0.16573c0.10467,-0.40703 0.2995,-0.71818 0.58441,-0.93332c0.28498,-0.21514 0.62223,-0.32274 1.01182,-0.32274c0.36055,0 0.68036,0.09302 0.95948,0.27912c0.27912,0.1861 0.49719,0.46809 0.65419,0.84609c0.16286,0.37214 0.24423,0.8403 0.24423,1.40433c0,0.91294 -0.16573,1.58751 -0.49719,2.02364c-0.3256,0.43033 -0.77045,0.64547 -1.33455,0.64547c-0.40703,0 -0.72684,-0.08723 -0.95948,-0.26168c-0.23258,-0.17445 -0.39538,-0.38672 -0.48846,-0.63675l0.10467,-0.05234c0.04654,0.3489 0.08436,0.69488 0.11339,1.03799c0.03489,0.33725 0.05234,0.63382 0.05234,0.8897c0,0.26168 -0.04648,0.48267 -0.13956,0.66292c-0.09302,0.18025 -0.2413,0.2704 -0.44485,0.2704c-0.19769,0 -0.34597,-0.07557 -0.44485,-0.22679c-0.09881,-0.15121 -0.17152,-0.35183 -0.21806,-0.60186c-0.03489,-0.25588 -0.06978,-0.58441 -0.10467,-0.98565c-0.03489,-0.40124 -0.06392,-0.83444 -0.08723,-1.29966c-0.01745,-0.46522 -0.02617,-0.9188 -0.02617,-1.36072c0,-0.45357 0.01458,-0.87805 0.04361,-1.2735c0.03489,-0.40124 0.07564,-0.7269 0.12212,-0.97693c0.04075,-0.14536 0.09308,-0.25295 0.15701,-0.32274c0.06978,-0.07557 0.15993,-0.11339 0.2704,-0.11339zM236.94313,188.78176c-0.31401,0 -0.56697,0.15701 -0.75886,0.47102c-0.18604,0.30822 -0.27912,0.7036 -0.27912,1.18627c0,0.49426 0.09308,0.86353 0.27912,1.10777c0.1919,0.24423 0.43906,0.36635 0.74142,0.36635c0.3489,0 0.59899,-0.13663 0.75014,-0.40996c0.15701,-0.27912 0.23551,-0.63968 0.23551,-1.0816c0,-0.56404 -0.09595,-0.97693 -0.28784,-1.23861c-0.1919,-0.26747 -0.41868,-0.40124 -0.68036,-0.40124zM243.85365,193.22155c-0.19769,0 -0.33432,-0.07557 -0.40996,-0.22679c-0.06978,-0.15701 -0.11047,-0.40417 -0.12212,-0.74142l0.08723,0.04361c-0.3256,0.63382 -0.94204,0.95076 -1.84919,0.95076c-0.41283,0 -0.75594,-0.07271 -1.02926,-0.21806c-0.27327,-0.15121 -0.47681,-0.3489 -0.61058,-0.59313c-0.12791,-0.25003 -0.1919,-0.52043 -0.1919,-0.8112c0,-0.50011 0.17445,-0.8955 0.52335,-1.18627c0.3489,-0.29657 0.8112,-0.44485 1.38689,-0.44485c0.378,0 0.70653,0.05526 0.98565,0.16573c0.27912,0.11047 0.51756,0.26461 0.71525,0.4623l-0.14828,-0.01745c-0.04068,-0.58734 -0.16859,-1.00602 -0.38379,-1.25605c-0.20934,-0.25588 -0.50878,-0.38379 -0.89842,-0.38379c-0.22679,0 -0.43613,0.03489 -0.62803,0.10467c-0.1919,0.06978 -0.36921,0.14249 -0.53208,0.21806c-0.15701,0.06978 -0.30529,0.10467 -0.44485,0.10467c-0.13956,0 -0.25003,-0.04654 -0.33146,-0.13956c-0.07557,-0.09302 -0.11339,-0.21227 -0.11339,-0.35763c0,-0.20934 0.09888,-0.40703 0.29657,-0.59313c0.20355,-0.1861 0.47102,-0.33725 0.80248,-0.45357c0.33146,-0.11632 0.69201,-0.17445 1.0816,-0.17445c0.47102,0 0.87519,0.11339 1.21244,0.34018c0.33731,0.22679 0.59313,0.55824 0.76734,0.99437c0.1514,0.37214 0.25918,0.78796 0.32274,1.24733c0.06417,0.45937 0.09595,0.95076 0.09595,1.47411c0,0.39544 -0.01994,0.70073 -0.06106,0.91587c-0.0405,0.21514 -0.10467,0.36635 -0.1919,0.45357c-0.081,0.08143 -0.1919,0.12212 -0.33121,0.12212zM241.92596,192.24462c0.1919,0 0.38672,-0.02617 0.58441,-0.0785c0.19775,-0.05813 0.36348,-0.14249 0.49719,-0.25295c0.13377,-0.11047 0.20062,-0.24716 0.20062,-0.40996c0,-0.13956 -0.05813,-0.25295 -0.17445,-0.34018c-0.11047,-0.09302 -0.25875,-0.1628 -0.44485,-0.20934c-0.18025,-0.04654 -0.37507,-0.06978 -0.58441,-0.06978c-0.3547,0 -0.6251,0.06106 -0.8112,0.18317c-0.18025,0.12212 -0.2704,0.28492 -0.2704,0.48846c0,0.22099 0.08436,0.39252 0.25295,0.51463c0.17445,0.11632 0.42454,0.17445 0.75014,0.17445zM246.39167,187.70888c0.18629,0 0.3109,0.07557 0.37507,0.22679c0.06978,0.15121 0.10467,0.37507 0.10467,0.67164c0,0.06978 -0.00561,0.14536 -0.01745,0.22679c-0.00561,0.07557 -0.01745,0.14536 -0.03489,0.20934l-0.01745,-0.17445c0.13956,-0.378 0.35451,-0.67164 0.64547,-0.88098c0.29096,-0.21514 0.59874,-0.32274 0.92459,-0.32274c0.36074,0 0.6598,0.10174 0.89842,0.30529c0.24423,0.20355 0.42429,0.48846 0.5408,0.85481c0.12212,0.36635 0.18317,0.79955 0.18317,1.29966c0,0.30822 -0.01433,0.61351 -0.04361,0.91587c-0.02305,0.29657 -0.05794,0.5699 -0.10467,0.81992c-0.0405,0.24423 -0.08723,0.44485 -0.13956,0.60186c-0.06978,0.19769 -0.16012,0.34597 -0.2704,0.44485c-0.11028,0.09302 -0.24112,0.13956 -0.39252,0.13956c-0.1514,0 -0.26728,-0.05526 -0.3489,-0.16573c-0.08162,-0.11047 -0.12212,-0.25875 -0.12212,-0.44485c0,-0.19769 0.01433,-0.43613 0.04361,-0.71525c0.02928,-0.28492 0.05545,-0.57276 0.0785,-0.86353c0.02928,-0.29657 0.04361,-0.56404 0.04361,-0.80248c0,-0.81413 -0.26728,-1.22116 -0.80248,-1.22116c-0.28473,0 -0.52335,0.12791 -0.71525,0.38379c-0.1919,0.25003 -0.31962,0.60765 -0.38379,1.07288c-0.01745,0.15701 -0.02617,0.35183 -0.02617,0.58441c0,0.23258 0,0.46522 0,0.69781c0.00561,0.22679 0,0.41868 -0.01745,0.57569c-0.02305,0.3489 -0.09034,0.59893 -0.20062,0.75014c-0.10467,0.15121 -0.24984,0.22679 -0.43613,0.22679c-0.21495,0 -0.37819,-0.09888 -0.48846,-0.29657c-0.11028,-0.20355 -0.16573,-0.54373 -0.16573,-1.02054c0,-0.24423 0.00561,-0.51756 0.01745,-0.81992c0.01184,-0.30236 0.02617,-0.60479 0.04361,-0.90715c0.02305,-0.30822 0.04922,-0.58734 0.0785,-0.83737c0.05794,-0.47102 0.14268,-0.84316 0.25295,-1.11649c0.11028,-0.27912 0.27601,-0.41868 0.49719,-0.41868zM251.09937,194.94862c-0.23239,0 -0.44174,-0.04941 -0.62803,-0.14828c-0.18629,-0.09888 -0.33457,-0.22386 -0.44485,-0.37507c-0.11028,-0.15121 -0.16573,-0.30529 -0.16573,-0.4623c0,-0.13377 0.03489,-0.23844 0.10467,-0.31401c0.06978,-0.07557 0.16012,-0.11339 0.2704,-0.11339c0.1919,0 0.39812,0.07271 0.6193,0.21806c0.22118,0.14536 0.43052,0.34597 0.62803,0.60186l-0.13084,-0.01745c-0.09906,-0.81413 -0.17445,-1.5933 -0.22679,-2.33765c-0.04673,-0.75014 -0.06978,-1.42178 -0.06978,-2.01491c0,-0.5408 0.04361,-0.94497 0.13084,-1.21244c0.09283,-0.27333 0.24423,-0.40996 0.45357,-0.40996c0.23862,0 0.42741,0.1861 0.56697,0.55824c0.13956,0.37214 0.20934,1.00017 0.20934,1.88408c0,0.38959 -0.01184,0.79083 -0.03489,1.20371c-0.02305,0.40703 -0.05794,0.79375 -0.10467,1.1601c-0.0405,0.36635 -0.09906,0.67457 -0.17445,0.92459c-0.09283,0.30236 -0.22118,0.52043 -0.38379,0.65419c-0.15701,0.13377 -0.36323,0.20062 -0.6193,0.20062zM251.50061,187.6391c-0.18629,0 -0.33707,-0.04068 -0.45357,-0.12212c-0.11028,-0.08723 -0.16573,-0.21806 -0.16573,-0.39252c0,-0.19769 0.06667,-0.36342 0.20062,-0.49719c0.13956,-0.13956 0.33457,-0.20934 0.58441,-0.20934c0.20934,0 0.36946,0.05234 0.47974,0.15701c0.11028,0.09888 0.16573,0.23258 0.16573,0.40124c0,0.20934 -0.07539,0.37214 -0.22679,0.48846c-0.1514,0.11632 -0.34579,0.17445 -0.58441,0.17445zM257.29551,193.22155c-0.19813,0 -0.33457,-0.07557 -0.40996,-0.22679c-0.06978,-0.15701 -0.1109,-0.40417 -0.12212,-0.74142l0.08723,0.04361c-0.32585,0.63382 -0.94204,0.95076 -1.84919,0.95076c-0.41308,0 -0.75637,-0.07271 -1.02926,-0.21806c-0.27351,-0.15121 -0.47725,-0.3489 -0.61058,-0.59313c-0.12835,-0.25003 -0.1919,-0.52043 -0.1919,-0.8112c0,-0.50011 0.17445,-0.8955 0.52335,-1.18627c0.3489,-0.29657 0.8112,-0.44485 1.38689,-0.44485c0.37756,0 0.70653,0.05526 0.98565,0.16573c0.27912,0.11047 0.51712,0.26461 0.71525,0.4623l-0.14828,-0.01745c-0.04112,-0.58734 -0.16884,-1.00602 -0.38379,-1.25605c-0.20934,-0.25588 -0.50902,-0.38379 -0.89842,-0.38379c-0.22679,0 -0.43613,0.03489 -0.62803,0.10467c-0.1919,0.06978 -0.36946,0.14249 -0.53208,0.21806c-0.15701,0.06978 -0.30529,0.10467 -0.44485,0.10467c-0.13956,0 -0.25046,-0.04654 -0.33146,-0.13956c-0.07601,-0.09302 -0.11339,-0.21227 -0.11339,-0.35763c0,-0.20934 0.09844,-0.40703 0.29657,-0.59313c0.20311,-0.1861 0.47102,-0.33725 0.80248,-0.45357c0.33146,-0.11632 0.69158,-0.17445 1.0816,-0.17445c0.47102,0 0.87475,0.11339 1.21244,0.34018c0.33707,0.22679 0.59313,0.55824 0.76759,0.99437c0.15078,0.37214 0.25856,0.78796 0.32274,1.24733c0.06355,0.45937 0.09595,0.95076 0.09595,1.47411c0,0.39544 -0.02056,0.70073 -0.06106,0.91587c-0.04112,0.21514 -0.10467,0.36635 -0.1919,0.45357c-0.08162,0.08143 -0.1919,0.12212 -0.33146,0.12212zM255.36782,192.24462c0.1919,0 0.38629,-0.02617 0.58441,-0.0785c0.1975,-0.05813 0.36323,-0.14249 0.49719,-0.25295c0.13333,-0.11047 0.20062,-0.24716 0.20062,-0.40996c0,-0.13956 -0.05857,-0.25295 -0.17445,-0.34018c-0.1109,-0.09302 -0.25918,-0.1628 -0.44485,-0.20934c-0.18068,-0.04654 -0.37507,-0.06978 -0.58441,-0.06978c-0.35513,0 -0.62553,0.06106 -0.8112,0.18317c-0.18068,0.12212 -0.2704,0.28492 -0.2704,0.48846c0,0.22099 0.08411,0.39252 0.25295,0.51463c0.17445,0.11632 0.42429,0.17445 0.75014,0.17445zM259.83315,187.70888c0.18629,0 0.31152,0.07557 0.37507,0.22679c0.06978,0.15121 0.10467,0.37507 0.10467,0.67164c0,0.06978 -0.00561,0.14536 -0.01745,0.22679c-0.00561,0.07557 -0.01745,0.14536 -0.03489,0.20934l-0.01745,-0.17445c0.13956,-0.378 0.35513,-0.67164 0.64547,-0.88098c0.29096,-0.21514 0.59937,-0.32274 0.92459,-0.32274c0.36074,0 0.66042,0.10174 0.89842,0.30529c0.24423,0.20355 0.42491,0.48846 0.5408,0.85481c0.12212,0.36635 0.18317,0.79955 0.18317,1.29966c0,0.30822 -0.01433,0.61351 -0.04361,0.91587c-0.02305,0.29657 -0.05794,0.5699 -0.10467,0.81992c-0.0405,0.24423 -0.08723,0.44485 -0.13956,0.60186c-0.06978,0.19769 -0.1595,0.34597 -0.2704,0.44485c-0.11028,0.09302 -0.24112,0.13956 -0.39252,0.13956c-0.15078,0 -0.26728,-0.05526 -0.3489,-0.16573c-0.081,-0.11047 -0.12212,-0.25875 -0.12212,-0.44485c0,-0.19769 0.01495,-0.43613 0.04361,-0.71525c0.02928,-0.28492 0.05545,-0.57276 0.0785,-0.86353c0.02928,-0.29657 0.04361,-0.56404 0.04361,-0.80248c0,-0.81413 -0.26728,-1.22116 -0.80248,-1.22116c-0.28473,0 -0.52335,0.12791 -0.71525,0.38379c-0.1919,0.25003 -0.31962,0.60765 -0.38379,1.07288c-0.01745,0.15701 -0.02617,0.35183 -0.02617,0.58441c0,0.23258 0,0.46522 0,0.69781c0.00623,0.22679 0,0.41868 -0.01745,0.57569c-0.02305,0.3489 -0.08972,0.59893 -0.20062,0.75014c-0.10467,0.15121 -0.24984,0.22679 -0.43613,0.22679c-0.21495,0 -0.37756,-0.09888 -0.48846,-0.29657c-0.11028,-0.20355 -0.16573,-0.54373 -0.16573,-1.02054c0,-0.24423 0.00623,-0.51756 0.01745,-0.81992c0.01184,-0.30236 0.02617,-0.60479 0.04361,-0.90715c0.02368,-0.30822 0.04984,-0.58734 0.0785,-0.83737c0.05857,-0.47102 0.14268,-0.84316 0.25295,-1.11649c0.1109,-0.27912 0.27663,-0.41868 0.49719,-0.41868zM266.16325,192.99476c-0.54641,0 -0.99126,-0.20934 -1.33455,-0.62803c-0.34267,-0.42448 -0.51463,-1.06708 -0.51463,-1.92769c0,-0.9188 0.16573,-1.59044 0.49719,-2.01491c0.33146,-0.42448 0.76759,-0.63675 1.30839,-0.63675c0.32024,0 0.60186,0.08143 0.84609,0.24423c0.24423,0.1628 0.45357,0.39252 0.62803,0.68908l-0.06978,0.12212c-0.01745,-0.08143 -0.03178,-0.16866 -0.04361,-0.26168c-0.01121,-0.09302 -0.01745,-0.1628 -0.01745,-0.20934c0,-0.23844 0.03801,-0.42161 0.11339,-0.54952c0.08162,-0.13377 0.20685,-0.20062 0.37507,-0.20062c0.18629,0 0.33146,0.07557 0.43613,0.22679c0.1109,0.15121 0.19501,0.36635 0.25295,0.64547c0.07601,0.28492 0.13956,0.6484 0.1919,1.09032c0.05234,0.43613 0.0785,0.87805 0.0785,1.32583c0,0.55824 -0.01994,1.02634 -0.06106,1.40433c-0.0405,0.378 -0.10716,0.69201 -0.20062,0.94204c-0.09283,0.25003 -0.21495,0.46809 -0.36635,0.65419c-0.24984,0.30236 -0.57257,0.53208 -0.96821,0.68908c-0.3894,0.1628 -0.83986,0.24423 -1.352,0.24423c-0.36635,0 -0.6598,-0.03489 -0.88098,-0.10467c-0.22056,-0.06399 -0.38068,-0.15408 -0.47974,-0.2704c-0.09283,-0.11047 -0.13956,-0.23551 -0.13956,-0.37507c0,-0.14536 0.04112,-0.26747 0.12212,-0.36635c0.08162,-0.09302 0.20373,-0.13956 0.36635,-0.13956c0.14579,0 0.31401,0.02324 0.50591,0.06978c0.19813,0.04654 0.43052,0.06978 0.69781,0.06978c0.56448,0 0.9626,-0.13377 1.19499,-0.40124c0.23862,-0.26168 0.35763,-0.63968 0.35763,-1.13393c0,-0.13377 -0.00872,-0.29077 -0.02617,-0.47102l0.12212,0.04361c-0.14517,0.37214 -0.36012,0.67164 -0.64547,0.89842c-0.28473,0.22099 -0.61619,0.33146 -0.99437,0.33146zM266.49471,191.92189c0.18629,0 0.37258,-0.04941 0.55824,-0.14828c0.18629,-0.09888 0.34018,-0.26168 0.4623,-0.48846c0.12212,-0.22679 0.18317,-0.53208 0.18317,-0.91587c0,-0.45937 -0.10716,-0.83444 -0.32274,-1.12521c-0.21495,-0.29077 -0.51712,-0.43613 -0.90715,-0.43613c-0.33707,0 -0.58441,0.12791 -0.74142,0.38379c-0.15701,0.25588 -0.23551,0.64254 -0.23551,1.1601c0,0.49426 0.0785,0.88098 0.23551,1.1601c0.15701,0.27333 0.41308,0.40996 0.76759,0.40996zM270.45413,191.25897c0.23302,0 0.41868,0.08143 0.55824,0.24423c0.14579,0.15701 0.21806,0.38959 0.21806,0.69781c0,0.28492 -0.06978,0.52628 -0.20934,0.72397c-0.13333,0.19769 -0.3514,0.29657 -0.65419,0.29657c-0.24423,0 -0.42429,-0.08143 -0.5408,-0.24423c-0.11028,-0.1628 -0.16573,-0.39252 -0.16573,-0.68908c0,-0.17445 0.02368,-0.34018 0.06978,-0.49719c0.04673,-0.15701 0.12835,-0.28492 0.24423,-0.38379c0.11651,-0.09888 0.27663,-0.14828 0.47974,-0.14828z"/></g></g></svg>