<svg version="1.1" xmlns="http://www.w3.org/2000/svg" xmlns:xlink="http://www.w3.org/1999/xlink" width="212.374" height="94.486" viewBox="0,0,212.374,94.486"><g transform="translate(-134.313,-132.257)"><g data-paper-data="{&quot;isPaintingLayer&quot;:true}" fill-rule="nonzero" stroke-linecap="butt" stroke-linejoin="miter" stroke-miterlimit="10" stroke-dashoffset="0" style="mix-blend-mode: normal"><path d="M149.687,211.257v-78h196v78z" fill="none" stroke="#000000" stroke-width="2" stroke-dasharray=""/><path d="M344.868,209.7908l-196.0002,-76.00004" fill="none" stroke="#0a0a0a" stroke-width="1" stroke-dasharray="4,4"/><path d="M135.153,186.031l6.202,0.07c0.9613,0 1.8713,-0.028 2.73,-0.084c0.0373,-0.56 0.056,-1.0687 0.056,-1.526l-0.056,-2.94c0,-0.4573 0.1307,-0.686 0.392,-0.686c0.308,0 0.462,0.98 0.462,2.94c0,0.476 -0.0233,1.0873 -0.07,1.834c-0.0467,0.7467 -0.1213,1.1993 -0.224,1.358c-0.9893,0.0467 -2.604,0.07 -4.844,0.07l-4.928,-0.07c-0.18667,-0.2427 -0.28,-0.4387 -0.28,-0.588c0,-0.252 0.18667,-0.378 0.56,-0.378zM141.845,179.3752c0.1867,0.0187 0.3127,0.028 0.378,0.028c0.56,0 0.994,-0.168 1.302,-0.504c0.308,-0.3453 0.462,-0.7513 0.462,-1.218c0,-0.4667 -0.0653,-0.8447 -0.196,-1.134c-0.1307,-0.2987 -0.2707,-0.5133 -0.42,-0.644c-0.42,-0.336 -0.63,-0.644 -0.63,-0.924c0,-0.1027 0.028,-0.224 0.084,-0.364c0.4573,0.0933 0.8773,0.448 1.26,1.064c0.3733,0.6067 0.56,1.372 0.56,2.296c0,0.6533 -0.2053,1.218 -0.616,1.694c-0.42,0.4667 -0.9893,0.7 -1.708,0.7c-0.71867,0 -1.414,-0.14 -2.086,-0.42c-0.68133,-0.2893 -1.26,-0.7 -1.736,-1.232c-0.48533,-0.5413 -0.728,-1.0873 -0.728,-1.638c0,-0.56 0.11667,-1.008 0.35,-1.344c0.224,-0.3453 0.55533,-0.518 0.994,-0.518c0.812,0 1.484,0.364 2.016,1.092c0.52267,0.7187 0.784,1.484 0.784,2.296c0,0.2147 -0.0233,0.4713 -0.07,0.77zM141.383,178.3112c0,-0.4387 -0.14,-0.8307 -0.42,-1.176c-0.28,-0.3453 -0.574,-0.588 -0.882,-0.728c-0.308,-0.1493 -0.588,-0.224 -0.84,-0.224c-0.252,0 -0.47133,0.098 -0.658,0.294c-0.196,0.196 -0.294,0.4247 -0.294,0.686c0,0.4667 0.322,0.9007 0.966,1.302c0.644,0.392 1.31133,0.672 2.002,0.84c0.084,-0.4107 0.126,-0.742 0.126,-0.994zM134.621,173.304c-0.20533,-0.112 -0.308,-0.3173 -0.308,-0.616c0,-0.0653 0.00933,-0.1307 0.028,-0.196c0.49467,-0.0187 1.876,-0.028 4.144,-0.028c-0.00933,-0.0093 -0.05133,-0.0513 -0.126,-0.126c-0.07467,-0.084 -0.12133,-0.1353 -0.14,-0.154c-0.01867,-0.0187 -0.06067,-0.0653 -0.126,-0.14c-0.07467,-0.0747 -0.12133,-0.1307 -0.14,-0.168c-0.028,-0.0467 -0.06533,-0.1073 -0.112,-0.182c-0.056,-0.0747 -0.09333,-0.14 -0.112,-0.196c-0.028,-0.056 -0.056,-0.1213 -0.084,-0.196c-0.04667,-0.14 -0.07,-0.3033 -0.07,-0.49c0,-0.6907 0.28933,-1.246 0.868,-1.666c0.56933,-0.42 1.20867,-0.63 1.918,-0.63c0.70933,0 1.386,0.1073 2.03,0.322c0.6347,0.2147 1.19,0.546 1.666,0.994c0.476,0.448 0.714,0.9707 0.714,1.568c0,0.588 -0.2193,1.0827 -0.658,1.484c-0.4387,0.392 -0.938,0.588 -1.498,0.588c-0.5693,0 -1.61467,-0.0327 -3.136,-0.098c-1.53067,-0.0653 -2.62733,-0.098 -3.29,-0.098c-0.672,0 -1.19467,0.0093 -1.568,0.028zM144.085,171.302c0,-0.364 -0.1727,-0.6907 -0.518,-0.98c-0.6813,-0.588 -1.6473,-0.882 -2.898,-0.882c-0.672,0 -1.26467,0.1307 -1.778,0.392c-0.52267,0.2613 -0.784,0.63 -0.784,1.106c0,0.2707 0.13533,0.5087 0.406,0.714c0.26133,0.2053 0.61133,0.364 1.05,0.476c0.83067,0.2147 1.75467,0.322 2.772,0.322c0.8587,0 1.386,-0.1773 1.582,-0.532c0.0933,-0.1587 0.1493,-0.364 0.168,-0.616zM140.655,162.7179l1.61,0.07c0.812,0 1.358,-0.0933 1.638,-0.28c0.1867,-0.112 0.28,-0.266 0.28,-0.462c0,-0.056 -0.014,-0.1353 -0.042,-0.238c-0.056,-0.196 -0.028,-0.3593 0.084,-0.49c0.3267,0.0654 0.49,0.392 0.49,0.98c0,0.4014 -0.168,0.6674 -0.504,0.798c-0.252,0.1027 -0.5647,0.1774 -0.938,0.224c-0.3827,0.0467 -0.644,0.084 -0.784,0.112c1.1573,0.6067 1.862,1.1947 2.114,1.764c0.1307,0.2894 0.196,0.6254 0.196,1.008c0,0.3827 -0.182,0.6814 -0.546,0.896c-0.3733,0.2054 -0.9147,0.308 -1.624,0.308c-0.7093,0 -1.45133,-0.1166 -2.226,-0.35c-0.784,-0.2333 -1.442,-0.574 -1.974,-1.022c-0.54133,-0.448 -0.812,-0.938 -0.812,-1.47c0,-0.7653 0.31733,-1.274 0.952,-1.526c0.54133,-0.2146 1.23667,-0.322 2.086,-0.322zM140.207,166.1479c0.504,0.1307 0.98467,0.2287 1.442,0.294c0.448,0.0654 0.8493,0.098 1.204,0.098c0.3453,0 0.644,-0.07 0.896,-0.21c0.252,-0.1493 0.378,-0.3406 0.378,-0.574c0,-0.504 -0.476,-0.9893 -1.428,-1.456c-0.952,-0.4666 -1.83867,-0.7 -2.66,-0.7c-0.532,0 -0.97067,0.14 -1.316,0.42c-0.224,0.1867 -0.336,0.434 -0.336,0.742c0,0.2987 0.17733,0.574 0.532,0.826c0.34533,0.2427 0.77467,0.4294 1.288,0.56zM143.315,159.4809l0.798,-0.042c0.2053,0 0.35,0.0606 0.434,0.182c0.0747,0.112 0.112,0.2286 0.112,0.35c0,0.112 -0.0187,0.2286 -0.056,0.35c-1.0827,0.2053 -2.4313,0.364 -4.046,0.476c-1.61467,0.1026 -2.52933,0.1633 -2.744,0.182c-0.13067,-0.14 -0.196,-0.2847 -0.196,-0.434c0,-0.1587 0.01867,-0.2987 0.056,-0.42c0.27067,-0.0374 0.868,-0.0654 1.792,-0.084c0.924,-0.0187 1.50267,-0.042 1.736,-0.07c-0.784,-0.1307 -1.51667,-0.364 -2.198,-0.7c-0.38267,-0.1867 -0.686,-0.4294 -0.91,-0.728c-0.23333,-0.308 -0.35,-0.6347 -0.35,-0.98c0,-0.3547 0.15867,-0.6767 0.476,-0.966c0.308,-0.2987 0.588,-0.448 0.84,-0.448c0.09333,0 0.168,0.056 0.224,0.168c0.04667,0.112 0.07,0.238 0.07,0.378c0,0.1306 -0.05133,0.2333 -0.154,0.308c-0.10267,0.0746 -0.21467,0.126 -0.336,0.154c-0.13067,0.028 -0.24733,0.0886 -0.35,0.182c-0.10267,0.0933 -0.154,0.2193 -0.154,0.378c0,0.42 0.378,0.7793 1.134,1.078c1.12933,0.4573 2.4033,0.686 3.822,0.686z" fill="#101010" stroke="none" stroke-width="1" stroke-dasharray=""/><path d="M224.919,218.749c0,-1.456 -0.0607,-2.7393 -0.182,-3.85c0,-0.2893 0.1213,-0.5413 0.364,-0.756c0.2427,-0.2147 0.5647,-0.378 0.966,-0.49c0.8027,-0.2053 1.6847,-0.308 2.646,-0.308c1.2413,0 2.2167,0.2753 2.926,0.826c0.719,0.5413 1.078,1.3767 1.078,2.506c0,1.1293 -0.457,2.0347 -1.372,2.716c-0.9147,0.6813 -2.03,1.022 -3.346,1.022c-0.672,0 -1.3767,-0.14 -2.114,-0.42c-0.0467,0.448 -0.07,1.0547 -0.07,1.82l0.014,0.686c0,0.224 -0.0047,0.4573 -0.014,0.7c-0.0467,0.0653 -0.098,0.112 -0.154,0.14c-0.056,0.028 -0.098,0.0467 -0.126,0.056c-0.0187,0.0187 -0.0513,0.0327 -0.098,0.042c-0.0467,0.0093 -0.0793,0.014 -0.098,0.014c-0.056,0.0187 -0.1213,0.028 -0.196,0.028h-0.238c-0.0187,-0.7 -0.028,-1.33 -0.028,-1.89zM225.857,218.987c0.6813,0.4573 1.498,0.686 2.45,0.686c0.952,-0.0093 1.7547,-0.3033 2.408,-0.882c0.6533,-0.588 0.98,-1.3067 0.98,-2.156c0,-0.8493 -0.336,-1.484 -1.008,-1.904c-0.672,-0.42 -1.4793,-0.63 -2.422,-0.63c-0.9333,0 -1.7593,0.2147 -2.478,0.644c0.0467,0.6067 0.07,2.0207 0.07,4.242zM238.097,219.225l-0.07,1.61c0,0.812 0.093,1.358 0.28,1.638c0.112,0.1867 0.266,0.28 0.462,0.28c0.056,0 0.135,-0.014 0.238,-0.042c0.196,-0.056 0.359,-0.028 0.49,0.084c-0.065,0.3267 -0.392,0.49 -0.98,0.49c-0.401,0 -0.667,-0.168 -0.798,-0.504c-0.103,-0.252 -0.177,-0.5647 -0.224,-0.938c-0.047,-0.3827 -0.084,-0.644 -0.112,-0.784c-0.607,1.1573 -1.195,1.862 -1.764,2.114c-0.289,0.1307 -0.625,0.196 -1.008,0.196c-0.383,0 -0.681,-0.182 -0.896,-0.546c-0.205,-0.3733 -0.308,-0.9147 -0.308,-1.624c0,-0.7093 0.117,-1.4513 0.35,-2.226c0.233,-0.784 0.574,-1.442 1.022,-1.974c0.448,-0.5413 0.938,-0.812 1.47,-0.812c0.765,0 1.274,0.3173 1.526,0.952c0.215,0.5413 0.322,1.2367 0.322,2.086zM234.667,218.777c-0.131,0.504 -0.229,0.9847 -0.294,1.442c-0.065,0.448 -0.098,0.8493 -0.098,1.204c0,0.3453 0.07,0.644 0.21,0.896c0.149,0.252 0.341,0.378 0.574,0.378c0.504,0 0.989,-0.476 1.456,-1.428c0.467,-0.952 0.7,-1.8387 0.7,-2.66c0,-0.532 -0.14,-0.9707 -0.42,-1.316c-0.187,-0.224 -0.434,-0.336 -0.742,-0.336c-0.299,0 -0.574,0.1773 -0.826,0.532c-0.243,0.3453 -0.429,0.7747 -0.56,1.288zM245.716,222.865c-0.168,0.1773 -0.359,0.266 -0.574,0.266c-0.401,0 -0.7,-0.2147 -0.896,-0.644c-0.196,-0.4293 -0.312,-0.952 -0.35,-1.568c-0.028,-0.616 -0.046,-1.232 -0.056,-1.848c-0.009,-0.616 -0.06,-1.1387 -0.154,-1.568c-0.084,-0.4293 -0.247,-0.644 -0.49,-0.644c-0.326,0 -0.606,0.294 -0.84,0.882c-0.224,0.588 -0.382,1.2413 -0.476,1.96c-0.261,2.0067 -0.513,3.1313 -0.756,3.374c-0.168,0.084 -0.312,0.126 -0.434,0.126c-0.121,0 -0.224,-0.014 -0.308,-0.042c-0.196,-0.8587 -0.322,-2.338 -0.378,-4.438c-0.018,-1.0453 -0.037,-1.722 -0.056,-2.03c0.196,-0.1307 0.364,-0.196 0.504,-0.196c0.14,0 0.252,0.014 0.336,0.042c0.047,0.4013 0.07,1.2227 0.07,2.464c0.01,1.2413 0.019,1.9553 0.028,2.142c0.047,-0.196 0.103,-0.5133 0.168,-0.952c0.075,-0.4387 0.14,-0.798 0.196,-1.078c0.056,-0.2893 0.145,-0.6253 0.266,-1.008c0.122,-0.3827 0.257,-0.686 0.406,-0.91c0.15,-0.2333 0.355,-0.4293 0.616,-0.588c0.262,-0.168 0.556,-0.252 0.882,-0.252c0.439,0 0.756,0.2007 0.952,0.602c0.206,0.392 0.318,0.882 0.336,1.47c0.019,0.588 0.028,1.1853 0.028,1.792c0.01,0.6067 0.084,1.162 0.224,1.666c0.15,0.504 0.402,0.8307 0.756,0.98zM247.516,214.283c-0.018,0.2613 -0.21,0.392 -0.574,0.392c-0.298,-0.0187 -0.448,-0.4247 -0.448,-1.218c0,-0.0933 0,-0.1867 0,-0.28c0.01,-0.2427 0.168,-0.364 0.476,-0.364c0.178,0 0.308,0.0187 0.392,0.056c0.103,0.392 0.154,0.8633 0.154,1.414zM245.514,226.015c0.859,0 1.288,-1.4747 1.288,-4.424c0,-0.7093 -0.028,-1.596 -0.084,-2.66c-0.046,-1.064 -0.07,-1.68 -0.07,-1.848c0,-0.392 0.187,-0.588 0.56,-0.588c0.215,0 0.322,0.1213 0.322,0.364l-0.014,0.392c0,0.252 0.024,0.658 0.07,1.218c0.122,1.7173 0.182,2.912 0.182,3.584c0,0.672 -0.032,1.2507 -0.098,1.736c-0.056,0.4947 -0.158,0.9753 -0.308,1.442c-0.149,0.476 -0.382,0.8447 -0.7,1.106c-0.317,0.2707 -0.7,0.406 -1.148,0.406c-0.261,0 -0.494,-0.0373 -0.7,-0.112c-0.205,-0.0653 -0.308,-0.154 -0.308,-0.266c0,-0.1307 0.042,-0.2287 0.126,-0.294c0.084,-0.056 0.173,-0.0887 0.266,-0.098c0.084,0 0.201,0.0047 0.35,0.014c0.15,0.0187 0.238,0.028 0.266,0.028zM253.861,219.225l-0.07,1.61c0,0.812 0.093,1.358 0.28,1.638c0.112,0.1867 0.266,0.28 0.462,0.28c0.056,0 0.135,-0.014 0.238,-0.042c0.196,-0.056 0.359,-0.028 0.49,0.084c-0.066,0.3267 -0.392,0.49 -0.98,0.49c-0.402,0 -0.668,-0.168 -0.798,-0.504c-0.103,-0.252 -0.178,-0.5647 -0.224,-0.938c-0.047,-0.3827 -0.084,-0.644 -0.112,-0.784c-0.607,1.1573 -1.195,1.862 -1.764,2.114c-0.29,0.1307 -0.626,0.196 -1.008,0.196c-0.383,0 -0.682,-0.182 -0.896,-0.546c-0.206,-0.3733 -0.308,-0.9147 -0.308,-1.624c0,-0.7093 0.116,-1.4513 0.35,-2.226c0.233,-0.784 0.574,-1.442 1.022,-1.974c0.448,-0.5413 0.938,-0.812 1.47,-0.812c0.765,0 1.274,0.3173 1.526,0.952c0.214,0.5413 0.322,1.2367 0.322,2.086zM250.431,218.777c-0.131,0.504 -0.229,0.9847 -0.294,1.442c-0.066,0.448 -0.098,0.8493 -0.098,1.204c0,0.3453 0.07,0.644 0.21,0.896c0.149,0.252 0.34,0.378 0.574,0.378c0.504,0 0.989,-0.476 1.456,-1.428c0.466,-0.952 0.7,-1.8387 0.7,-2.66c0,-0.532 -0.14,-0.9707 -0.42,-1.316c-0.187,-0.224 -0.434,-0.336 -0.742,-0.336c-0.299,0 -0.574,0.1773 -0.826,0.532c-0.243,0.3453 -0.43,0.7747 -0.56,1.288zM261.48,222.865c-0.168,0.1773 -0.359,0.266 -0.574,0.266c-0.401,0 -0.7,-0.2147 -0.896,-0.644c-0.196,-0.4293 -0.313,-0.952 -0.35,-1.568c-0.028,-0.616 -0.047,-1.232 -0.056,-1.848c-0.009,-0.616 -0.061,-1.1387 -0.154,-1.568c-0.084,-0.4293 -0.247,-0.644 -0.49,-0.644c-0.327,0 -0.607,0.294 -0.84,0.882c-0.224,0.588 -0.383,1.2413 -0.476,1.96c-0.261,2.0067 -0.513,3.1313 -0.756,3.374c-0.168,0.084 -0.313,0.126 -0.434,0.126c-0.121,0 -0.224,-0.014 -0.308,-0.042c-0.196,-0.8587 -0.322,-2.338 -0.378,-4.438c-0.019,-1.0453 -0.037,-1.722 -0.056,-2.03c0.196,-0.1307 0.364,-0.196 0.504,-0.196c0.14,0 0.252,0.014 0.336,0.042c0.047,0.4013 0.07,1.2227 0.07,2.464c0.009,1.2413 0.019,1.9553 0.028,2.142c0.047,-0.196 0.103,-0.5133 0.168,-0.952c0.075,-0.4387 0.14,-0.798 0.196,-1.078c0.056,-0.2893 0.145,-0.6253 0.266,-1.008c0.121,-0.3827 0.257,-0.686 0.406,-0.91c0.149,-0.2333 0.355,-0.4293 0.616,-0.588c0.261,-0.168 0.555,-0.252 0.882,-0.252c0.439,0 0.756,0.2007 0.952,0.602c0.205,0.392 0.317,0.882 0.336,1.47c0.019,0.588 0.028,1.1853 0.028,1.792c0.009,0.6067 0.084,1.162 0.224,1.666c0.149,0.504 0.401,0.8307 0.756,0.98zM264.834,216.257c0.849,0 1.437,0.3453 1.764,1.036c0.177,0.364 0.322,0.7093 0.434,1.036c0.112,0.3267 0.187,0.7747 0.224,1.344c0.056,0.868 0.084,1.8573 0.084,2.968c0,1.1013 -0.266,1.9787 -0.798,2.632c-0.523,0.6627 -1.293,0.994 -2.31,0.994c-1.008,0 -1.848,-0.3267 -2.52,-0.98c0.187,-0.1867 0.387,-0.28 0.602,-0.28c0.224,0 0.527,0.0933 0.91,0.28c0.392,0.196 0.807,0.294 1.246,0.294c0.439,0 0.803,-0.1027 1.092,-0.308c0.289,-0.196 0.504,-0.476 0.644,-0.84c0.233,-0.644 0.35,-1.4373 0.35,-2.38c0,-0.14 -0.014,-0.658 -0.042,-1.554c-0.252,0.7653 -0.611,1.4 -1.078,1.904c-0.467,0.4947 -0.994,0.742 -1.582,0.742c-0.588,0 -1.022,-0.2613 -1.302,-0.784c-0.271,-0.532 -0.406,-1.134 -0.406,-1.806c0,-0.672 0.093,-1.3253 0.28,-1.96c0.187,-0.644 0.49,-1.1947 0.91,-1.652c0.42,-0.4573 0.919,-0.686 1.498,-0.686zM263.35,218.385c-0.121,0.4107 -0.21,0.798 -0.266,1.162c-0.056,0.364 -0.084,0.7327 -0.084,1.106c0,0.364 0.075,0.77 0.224,1.218c0.159,0.448 0.387,0.672 0.686,0.672c0.588,0 1.111,-0.4387 1.568,-1.316c0.457,-0.8867 0.686,-1.778 0.686,-2.674c0,-0.308 -0.145,-0.6533 -0.434,-1.036c-0.28,-0.392 -0.635,-0.588 -1.064,-0.588c-0.299,0 -0.565,0.14 -0.798,0.42c-0.224,0.28 -0.397,0.6253 -0.518,1.036z" fill="#101010" stroke="none" stroke-width="1" stroke-dasharray=""/></g></g></svg>