<svg version="1.1" xmlns="http://www.w3.org/2000/svg" xmlns:xlink="http://www.w3.org/1999/xlink" width="480" height="361.00431" viewBox="0,0,480,361.00431"><g transform="translate(0,0.00431)"><g data-paper-data="{&quot;isPaintingLayer&quot;:true}" fill-rule="nonzero" stroke-linecap="butt" stroke-linejoin="miter" stroke-miterlimit="10" stroke-dasharray="" stroke-dashoffset="0" style="mix-blend-mode: normal"><path d="M0,-0.00006h480v361.00006h-480z" fill="#ececec" stroke="none" stroke-width="1"></path><path d="M40.75,-0.00213l1.0452,360.9992" fill="none" stroke="#dcd6d6" stroke-width="1.5"></path><path d="M60.75,-0.00213l1.0452,360.9992" fill="none" stroke="#dcd6d6" stroke-width="1.5"></path><path d="M20.75,-0.00239l0.92797,360.99995" fill="none" stroke="#dcd6d6" stroke-width="1.5"></path><path d="M100.75,-0.00213l1.045,360.9992" fill="none" stroke="#dcd6d6" stroke-width="1.5"></path><path d="M120.75,-0.00213l1.045,360.9992" fill="none" stroke="#dcd6d6" stroke-width="1.5"></path><path d="M80.75,-0.00213l1.0452,360.9992" fill="none" stroke="#dcd6d6" stroke-width="1.5"></path><path d="M160.75,-0.00213l1.045,360.9992" fill="none" stroke="#dcd6d6" stroke-width="1.5"></path><path d="M180.75,-0.00213l1.045,360.9992" fill="none" stroke="#dcd6d6" stroke-width="1.5"></path><path d="M140.75,-0.00213l1.045,360.9992" fill="none" stroke="#dcd6d6" stroke-width="1.5"></path><path d="M220.75,-0.00213l1.045,360.9992" fill="none" stroke="#dcd6d6" stroke-width="1.5"></path><path d="M240.75,-0.00213l1.045,360.9992" fill="none" stroke="#dcd6d6" stroke-width="1.5"></path><path d="M201.795,360.99707l-1.045,-360.9992" fill="none" stroke="#dcd6d6" stroke-width="1.5"></path><path d="M280.75,-0.00213l1.045,360.9992" fill="none" stroke="#dcd6d6" stroke-width="1.5"></path><path d="M300.75,-0.00213l1.045,360.9992" fill="none" stroke="#dcd6d6" stroke-width="1.5"></path><path d="M260.75,-0.00213l1.045,360.9992" fill="none" stroke="#dcd6d6" stroke-width="1.5"></path><path d="M340.75,-0.00213l1.045,360.9992" fill="none" stroke="#dcd6d6" stroke-width="1.5"></path><path d="M360.75,-0.00213l1.045,360.9992" fill="none" stroke="#dcd6d6" stroke-width="1.5"></path><path d="M320.75,-0.00213l1.045,360.9992" fill="none" stroke="#dcd6d6" stroke-width="1.5"></path><path d="M400.75,-0.00213l1.045,360.9992" fill="none" stroke="#dcd6d6" stroke-width="1.5"></path><path d="M420.75,-0.00213l1.045,360.9992" fill="none" stroke="#dcd6d6" stroke-width="1.5"></path><path d="M380.75,-0.00213l1.045,360.9992" fill="none" stroke="#dcd6d6" stroke-width="1.5"></path><path d="M460.75,-0.00213l1.045,360.9992" fill="none" stroke="#dcd6d6" stroke-width="1.5"></path><path d="M440.75,-0.00213l1.045,360.9992" fill="none" stroke="#dcd6d6" stroke-width="1.5"></path><path d="M0,19.32379h480" fill="none" stroke="#dcd6d6" stroke-width="1.5"></path><path d="M480,39.37939l-480,0.0001" fill="none" stroke="#dcd6d6" stroke-width="1.5"></path><path d="M480,59.43489h-480" fill="none" stroke="#dcd6d6" stroke-width="1.5"></path><path d="M0,79.49059h480" fill="none" stroke="#dcd6d6" stroke-width="1.5"></path><path d="M0,99.5462h480" fill="none" stroke="#dcd6d6" stroke-width="1.5"></path><path d="M0,119.60121h480" fill="none" stroke="#dcd6d6" stroke-width="1.5"></path><path d="M0,139.6572h480" fill="none" stroke="#dcd6d6" stroke-width="1.5"></path><path d="M0,159.71222h480" fill="none" stroke="#dcd6d6" stroke-width="1.5"></path><path d="M0,179.76821h480" fill="none" stroke="#dcd6d6" stroke-width="1.5"></path><path d="M0,199.82421h480" fill="none" stroke="#dcd6d6" stroke-width="1.5"></path><path d="M0,219.87922h480" fill="none" stroke="#dcd6d6" stroke-width="1.5"></path><path d="M0,239.93522h480" fill="none" stroke="#dcd6d6" stroke-width="1.5"></path><path d="M0,259.99023h480" fill="none" stroke="#dcd6d6" stroke-width="1.5"></path><path d="M0,280.04622h480" fill="none" stroke="#dcd6d6" stroke-width="1.5"></path><path d="M0,300.10124h480" fill="none" stroke="#dcd6d6" stroke-width="1.5"></path><path d="M0,320.15723h480" fill="none" stroke="#dcd6d6" stroke-width="1.5"></path><path d="M480,340.21225h-480" fill="none" stroke="#dcd6d6" stroke-width="1.5"></path><g><path d="M11,350.26757v-340.51087h459v340.51087z" fill="#ebebeb" stroke="none" stroke-width="1"></path><path d="M10.75,350.51148v-340.9987h459.5v340.9987z" fill="none" stroke="#000000" stroke-width="0.5"></path></g><path d="M454.94595,19.01391c0,-2.95719 2.25069,-5.35447 5.02705,-5.35447c2.77636,0 5.02705,2.39728 5.02705,5.35447c0,2.95719 -2.25069,5.35447 -5.02705,5.35447c-2.77636,0 -5.02705,-2.39728 -5.02705,-5.35447z" fill="#737373" stroke="none" stroke-width="1"></path><path d="M16.99995,19.01391c0,-2.95719 2.25069,-5.35447 5.02705,-5.35447c2.77636,0 5.02705,2.39728 5.02705,5.35447c0,2.95719 -2.25069,5.35447 -5.02705,5.35447c-2.77636,0 -5.02705,-2.39728 -5.02705,-5.35447z" fill="#737373" stroke="none" stroke-width="1"></path><path d="M16.99995,341.01035c0,-2.95719 2.25069,-5.35447 5.02705,-5.35447c2.77636,0 5.02705,2.39728 5.02705,5.35447c0,2.95719 -2.25069,5.35447 -5.02705,5.35447c-2.77636,0 -5.02705,-2.39728 -5.02705,-5.35447z" fill="#737373" stroke="none" stroke-width="1"></path><path d="M454.94595,341.01035c0,-2.95719 2.25069,-5.35447 5.02705,-5.35447c2.77636,0 5.02705,2.39728 5.02705,5.35447c0,2.95719 -2.25069,5.35447 -5.02705,5.35447c-2.77636,0 -5.02705,-2.39728 -5.02705,-5.35447z" fill="#737373" stroke="none" stroke-width="1"></path></g></g></svg>