<svg width="123" height="17" viewBox="0 0 123 17" fill="none" xmlns="http://www.w3.org/2000/svg">
<path d="M1.112 13.16C0.92 13.16 0.765333 13.096 0.648 12.968C0.530667 12.8293 0.434667 12.6107 0.36 12.312C0.285333 11.9707 0.216 11.4373 0.152 10.712C0.088 9.976 0.056 9.15467 0.056 8.248C0.056 7.26667 0.0826667 6.312 0.136 5.384C0.2 4.44533 0.290667 3.61867 0.408 2.904C0.493333 2.43467 0.616 2.088 0.776 1.864C0.946667 1.62933 1.18133 1.512 1.48 1.512C1.672 1.512 1.84267 1.576 1.992 1.704C2.14133 1.832 2.25333 2.06133 2.328 2.392C2.41333 2.72267 2.456 3.192 2.456 3.8C2.456 4.09867 2.44533 4.44 2.424 4.824C2.40267 5.19733 2.37067 5.61333 2.328 6.072H2.392C3.24533 4.89867 3.99733 3.96533 4.648 3.272C5.29867 2.568 5.86933 2.06133 6.36 1.752C6.86133 1.44267 7.29867 1.288 7.672 1.288C7.97067 1.288 8.19467 1.384 8.344 1.576C8.504 1.768 8.584 2.00267 8.584 2.28C8.584 2.86667 8.14133 3.57067 7.256 4.392C6.38133 5.21333 4.968 6.2 3.016 7.352L3.144 7.048C4.82933 8.11467 6.104 9.05867 6.968 9.88C7.832 10.6907 8.264 11.4107 8.264 12.04C8.264 12.3173 8.17333 12.5467 7.992 12.728C7.82133 12.8987 7.56533 12.984 7.224 12.984C6.79733 12.984 6.344 12.84 5.864 12.552C5.384 12.2533 4.85067 11.7573 4.264 11.064C3.688 10.36 3.032 9.40533 2.296 8.2H2.232C2.25333 8.44533 2.26933 8.70133 2.28 8.968C2.29067 9.224 2.296 9.48 2.296 9.736C2.296 10.9627 2.21067 11.8427 2.04 12.376C1.86933 12.8987 1.56 13.16 1.112 13.16ZM14.4248 13.128C13.2408 13.128 12.2968 12.952 11.5928 12.6C10.8888 12.248 10.3821 11.7413 10.0728 11.08C9.76342 10.4187 9.60875 9.62933 9.60875 8.712C9.60875 7.54933 9.82208 6.56267 10.2488 5.752C10.6861 4.93067 11.2834 4.30133 12.0408 3.864C12.8087 3.42667 13.6781 3.208 14.6488 3.208C15.7901 3.208 16.6274 3.47467 17.1608 4.008C17.6941 4.53067 17.9608 5.21867 17.9608 6.072C17.9608 6.75467 17.7794 7.34667 17.4167 7.848C17.0648 8.33867 16.5741 8.71733 15.9448 8.984C15.3154 9.25067 14.5901 9.384 13.7688 9.384C13.3101 9.384 12.8674 9.32533 12.4408 9.208C12.0141 9.09067 11.6301 8.93067 11.2888 8.728L11.6728 8.024C11.6408 8.28 11.6248 8.536 11.6248 8.792C11.6248 9.53867 11.8594 10.0773 12.3288 10.408C12.7981 10.728 13.4648 10.888 14.3288 10.888C15.0008 10.888 15.5394 10.8293 15.9448 10.712C16.3501 10.5947 16.6914 10.4827 16.9688 10.376C17.2461 10.2587 17.5181 10.2 17.7847 10.2C17.9341 10.2 18.0674 10.2427 18.1848 10.328C18.3128 10.4027 18.4141 10.5147 18.4888 10.664C18.5741 10.8133 18.6168 10.9947 18.6168 11.208C18.6168 11.528 18.4568 11.8373 18.1368 12.136C17.8168 12.424 17.3421 12.664 16.7128 12.856C16.0941 13.0373 15.3314 13.128 14.4248 13.128ZM13.4968 7.896C14.2541 7.896 14.8621 7.736 15.3208 7.416C15.7794 7.096 16.0088 6.70133 16.0088 6.232C16.0088 5.85867 15.8808 5.55467 15.6248 5.32C15.3794 5.07467 14.9901 4.952 14.4568 4.952C13.9554 4.952 13.5021 5.048 13.0968 5.24C12.7021 5.42133 12.3928 5.66133 12.1688 5.96C11.9448 6.25867 11.8328 6.584 11.8328 6.936C11.8328 7.24533 11.9768 7.48533 12.2648 7.656C12.5634 7.816 12.9741 7.896 13.4968 7.896ZM21.7509 13.032C21.4202 13.032 21.1589 12.9573 20.9669 12.808C20.7749 12.648 20.6202 12.3867 20.5029 12.024C20.3429 11.4907 20.2202 10.8187 20.1349 10.008C20.0602 9.18667 20.0229 8.17867 20.0229 6.984C20.0229 6.248 20.0495 5.512 20.1029 4.776C20.1669 4.02933 20.2469 3.352 20.3429 2.744C20.4389 2.12533 20.5402 1.64533 20.6469 1.304C20.7642 0.941333 20.9029 0.690666 21.0629 0.551999C21.2229 0.413333 21.4042 0.344 21.6069 0.344C21.8202 0.344 21.9909 0.418667 22.1189 0.568C22.2469 0.706666 22.3482 0.957333 22.4229 1.32C22.4869 1.672 22.5349 2.104 22.5669 2.616C22.6095 3.128 22.6309 3.67733 22.6309 4.264C22.6309 5.064 22.5935 5.90667 22.5189 6.792C22.4442 7.67733 22.3429 8.54667 22.2149 9.4C22.0975 10.2533 21.9535 11.0373 21.7829 11.752L21.3349 11.528C21.6122 11.1867 21.9269 10.92 22.2789 10.728C22.6415 10.536 22.9722 10.44 23.2709 10.44C23.5162 10.44 23.7029 10.5093 23.8309 10.648C23.9695 10.776 24.0389 10.9787 24.0389 11.256C24.0389 11.5333 23.9162 11.8107 23.6709 12.088C23.4362 12.3653 23.1429 12.5947 22.7909 12.776C22.4389 12.9467 22.0922 13.032 21.7509 13.032ZM26.8996 0.728C27.3263 0.728 27.6303 0.845333 27.8116 1.08C28.0036 1.31467 28.0996 1.58667 28.0996 1.896C28.0996 2.28 27.9823 2.57867 27.7476 2.792C27.5236 2.99467 27.2036 3.096 26.7876 3.096C26.3823 3.096 26.0783 2.984 25.8756 2.76C25.673 2.52533 25.5716 2.25333 25.5716 1.944C25.5716 1.53867 25.6943 1.23467 25.9396 1.032C26.185 0.829333 26.505 0.728 26.8996 0.728ZM26.9956 4.296C27.337 4.296 27.6036 4.616 27.7956 5.256C27.9983 5.896 28.0996 6.91467 28.0996 8.312C28.0996 10.0293 27.977 11.2667 27.7316 12.024C27.4863 12.7813 27.113 13.16 26.6116 13.16C26.2276 13.16 25.945 12.8827 25.7636 12.328C25.5823 11.7627 25.4916 10.7813 25.4916 9.384C25.4916 7.66667 25.6303 6.392 25.9076 5.56C26.1956 4.71733 26.5583 4.296 26.9956 4.296ZM31.7821 13.032C31.4515 13.032 31.1901 12.9573 30.9981 12.808C30.8061 12.648 30.6515 12.3867 30.5341 12.024C30.3741 11.4907 30.2515 10.8187 30.1661 10.008C30.0915 9.18667 30.0541 8.17867 30.0541 6.984C30.0541 6.248 30.0808 5.512 30.1341 4.776C30.1981 4.02933 30.2781 3.352 30.3741 2.744C30.4701 2.12533 30.5715 1.64533 30.6781 1.304C30.7955 0.941333 30.9341 0.690666 31.0941 0.551999C31.2541 0.413333 31.4355 0.344 31.6381 0.344C31.8515 0.344 32.0221 0.418667 32.1501 0.568C32.2781 0.706666 32.3795 0.957333 32.4541 1.32C32.5181 1.672 32.5661 2.104 32.5981 2.616C32.6408 3.128 32.6621 3.67733 32.6621 4.264C32.6621 5.064 32.6248 5.90667 32.5501 6.792C32.4755 7.67733 32.3741 8.54667 32.2461 9.4C32.1288 10.2533 31.9848 11.0373 31.8141 11.752L31.3661 11.528C31.6435 11.1867 31.9581 10.92 32.3101 10.728C32.6728 10.536 33.0035 10.44 33.3021 10.44C33.5475 10.44 33.7341 10.5093 33.8621 10.648C34.0008 10.776 34.0701 10.9787 34.0701 11.256C34.0701 11.5333 33.9475 11.8107 33.7021 12.088C33.4675 12.3653 33.1741 12.5947 32.8221 12.776C32.4701 12.9467 32.1235 13.032 31.7821 13.032ZM36.9309 0.728C37.3575 0.728 37.6615 0.845333 37.8429 1.08C38.0349 1.31467 38.1309 1.58667 38.1309 1.896C38.1309 2.28 38.0135 2.57867 37.7789 2.792C37.5549 2.99467 37.2349 3.096 36.8189 3.096C36.4135 3.096 36.1095 2.984 35.9069 2.76C35.7042 2.52533 35.6029 2.25333 35.6029 1.944C35.6029 1.53867 35.7255 1.23467 35.9709 1.032C36.2162 0.829333 36.5362 0.728 36.9309 0.728ZM37.0269 4.296C37.3682 4.296 37.6349 4.616 37.8269 5.256C38.0295 5.896 38.1309 6.91467 38.1309 8.312C38.1309 10.0293 38.0082 11.2667 37.7629 12.024C37.5175 12.7813 37.1442 13.16 36.6429 13.16C36.2589 13.16 35.9762 12.8827 35.7949 12.328C35.6135 11.7627 35.5229 10.7813 35.5229 9.384C35.5229 7.66667 35.6615 6.392 35.9389 5.56C36.2269 4.71733 36.5895 4.296 37.0269 4.296ZM41.7174 3.048C42.0587 3.048 42.288 3.18667 42.4054 3.464C42.5334 3.74133 42.5974 4.152 42.5974 4.696C42.5974 4.824 42.5867 4.96267 42.5654 5.112C42.5547 5.25067 42.5334 5.37867 42.5014 5.496L42.4694 5.176C42.7254 4.48267 43.12 3.944 43.6534 3.56C44.1867 3.16533 44.752 2.968 45.3494 2.968C46.0107 2.968 46.56 3.15467 46.9974 3.528C47.4454 3.90133 47.776 4.424 47.9894 5.096C48.2134 5.768 48.3254 6.56267 48.3254 7.48C48.3254 8.04533 48.2987 8.60533 48.2454 9.16C48.2027 9.704 48.1387 10.2053 48.0534 10.664C47.9787 11.112 47.8934 11.48 47.7974 11.768C47.6694 12.1307 47.504 12.4027 47.3014 12.584C47.0987 12.7547 46.8587 12.84 46.5814 12.84C46.304 12.84 46.0907 12.7387 45.9414 12.536C45.792 12.3333 45.7174 12.0613 45.7174 11.72C45.7174 11.3573 45.744 10.92 45.7974 10.408C45.8507 9.88533 45.8987 9.35733 45.9414 8.824C45.9947 8.28 46.0214 7.78933 46.0214 7.352C46.0214 5.85867 45.5307 5.112 44.5494 5.112C44.0267 5.112 43.5894 5.34667 43.2374 5.816C42.8854 6.27467 42.6507 6.93067 42.5334 7.784C42.5014 8.072 42.4854 8.42933 42.4854 8.856C42.4854 9.28267 42.4854 9.70933 42.4854 10.136C42.496 10.552 42.4854 10.904 42.4534 11.192C42.4107 11.832 42.288 12.2907 42.0854 12.568C41.8934 12.8453 41.6267 12.984 41.2854 12.984C40.8907 12.984 40.592 12.8027 40.3894 12.44C40.1867 12.0667 40.0854 11.4427 40.0854 10.568C40.0854 10.12 40.096 9.61867 40.1174 9.064C40.1387 8.50933 40.1654 7.95467 40.1974 7.4C40.24 6.83467 40.288 6.32267 40.3414 5.864C40.448 5 40.6027 4.31733 40.8054 3.816C41.008 3.304 41.312 3.048 41.7174 3.048ZM53.3289 12.744C52.3262 12.744 51.5102 12.36 50.8809 11.592C50.2515 10.8133 49.9369 9.63467 49.9369 8.056C49.9369 6.37067 50.2409 5.13867 50.8489 4.36C51.4569 3.58133 52.2569 3.192 53.2489 3.192C53.8355 3.192 54.3529 3.34133 54.8009 3.64C55.2489 3.93867 55.6329 4.36 55.9529 4.904L55.8249 5.128C55.7929 4.97867 55.7662 4.81867 55.7449 4.648C55.7235 4.47733 55.7129 4.34933 55.7129 4.264C55.7129 3.82667 55.7822 3.49067 55.9209 3.256C56.0702 3.01067 56.2995 2.888 56.6089 2.888C56.9502 2.888 57.2169 3.02667 57.4089 3.304C57.6115 3.58133 57.7662 3.976 57.8729 4.488C58.0115 5.01067 58.1289 5.67733 58.2249 6.488C58.3209 7.288 58.3689 8.09867 58.3689 8.92C58.3689 9.944 58.3315 10.8027 58.2569 11.496C58.1822 12.1893 58.0595 12.7653 57.8889 13.224C57.7182 13.6827 57.4942 14.0827 57.2169 14.424C56.7582 14.9787 56.1662 15.4 55.4409 15.688C54.7262 15.9867 53.8995 16.136 52.9609 16.136C52.2889 16.136 51.7502 16.072 51.3449 15.944C50.9395 15.8267 50.6462 15.6613 50.4649 15.448C50.2942 15.2453 50.2089 15.016 50.2089 14.76C50.2089 14.4933 50.2835 14.2693 50.4329 14.088C50.5822 13.9173 50.8062 13.832 51.1049 13.832C51.3715 13.832 51.6809 13.8747 52.0329 13.96C52.3955 14.0453 52.8222 14.088 53.3129 14.088C54.3475 14.088 55.0782 13.8427 55.5049 13.352C55.9422 12.872 56.1609 12.1787 56.1609 11.272C56.1609 11.0267 56.1449 10.7387 56.1129 10.408L56.3369 10.488C56.0702 11.1707 55.6755 11.72 55.1529 12.136C54.6302 12.5413 54.0222 12.744 53.3289 12.744ZM53.9369 10.776C54.2782 10.776 54.6195 10.6853 54.9609 10.504C55.3022 10.3227 55.5849 10.024 55.8089 9.608C56.0329 9.192 56.1449 8.632 56.1449 7.928C56.1449 7.08533 55.9475 6.39733 55.5529 5.864C55.1582 5.33067 54.6035 5.064 53.8889 5.064C53.2702 5.064 52.8169 5.29867 52.5289 5.768C52.2409 6.23733 52.0969 6.94667 52.0969 7.896C52.0969 8.80267 52.2409 9.512 52.5289 10.024C52.8169 10.5253 53.2862 10.776 53.9369 10.776ZM68.0349 1.496C69.3042 1.496 70.2375 1.82133 70.8349 2.472C71.4429 3.12267 71.7469 3.976 71.7469 5.032C71.7469 5.75733 71.5762 6.38667 71.2349 6.92C70.9042 7.45333 70.4509 7.86933 69.8749 8.168C69.2989 8.456 68.6482 8.6 67.9229 8.6C67.5815 8.6 67.2189 8.56267 66.8349 8.488C66.4615 8.41333 66.0722 8.26933 65.6669 8.056L65.7469 7.848C65.8322 8.11467 65.9015 8.44533 65.9549 8.84C66.0189 9.224 66.0669 9.624 66.0989 10.04C66.1415 10.4453 66.1629 10.8187 66.1629 11.16C66.1629 11.7893 66.0562 12.2747 65.8429 12.616C65.6402 12.9467 65.3362 13.112 64.9309 13.112C64.5895 13.112 64.3175 13.0053 64.1149 12.792C63.9229 12.5787 63.7895 12.2267 63.7149 11.736C63.6402 11.2453 63.6029 10.5893 63.6029 9.768C63.6029 8.18933 63.6722 6.84533 63.8109 5.736C63.9602 4.616 64.2109 3.736 64.5629 3.096C64.8402 2.60533 65.2669 2.216 65.8429 1.928C66.4295 1.64 67.1602 1.496 68.0349 1.496ZM67.7309 6.712C68.3709 6.712 68.8882 6.54133 69.2829 6.2C69.6882 5.85867 69.8909 5.36267 69.8909 4.712C69.8909 4.28533 69.7469 3.93333 69.4589 3.656C69.1815 3.368 68.7442 3.224 68.1469 3.224C67.7095 3.224 67.3309 3.32533 67.0109 3.528C66.6909 3.72 66.4455 3.992 66.2749 4.344C66.1149 4.68533 66.0349 5.08 66.0349 5.528C66.0349 5.944 66.1682 6.248 66.4349 6.44C66.7122 6.62133 67.1442 6.712 67.7309 6.712ZM77.5966 13.128C76.4126 13.128 75.4686 12.952 74.7646 12.6C74.0606 12.248 73.554 11.7413 73.2446 11.08C72.9353 10.4187 72.7806 9.62933 72.7806 8.712C72.7806 7.54933 72.994 6.56267 73.4206 5.752C73.858 4.93067 74.4553 4.30133 75.2126 3.864C75.9806 3.42667 76.85 3.208 77.8206 3.208C78.962 3.208 79.7993 3.47467 80.3326 4.008C80.866 4.53067 81.1326 5.21867 81.1326 6.072C81.1326 6.75467 80.9513 7.34667 80.5886 7.848C80.2366 8.33867 79.746 8.71733 79.1166 8.984C78.4873 9.25067 77.762 9.384 76.9406 9.384C76.482 9.384 76.0393 9.32533 75.6126 9.208C75.186 9.09067 74.802 8.93067 74.4606 8.728L74.8446 8.024C74.8126 8.28 74.7966 8.536 74.7966 8.792C74.7966 9.53867 75.0313 10.0773 75.5006 10.408C75.97 10.728 76.6366 10.888 77.5006 10.888C78.1726 10.888 78.7113 10.8293 79.1166 10.712C79.522 10.5947 79.8633 10.4827 80.1406 10.376C80.418 10.2587 80.69 10.2 80.9566 10.2C81.106 10.2 81.2393 10.2427 81.3566 10.328C81.4846 10.4027 81.586 10.5147 81.6606 10.664C81.746 10.8133 81.7886 10.9947 81.7886 11.208C81.7886 11.528 81.6286 11.8373 81.3086 12.136C80.9886 12.424 80.514 12.664 79.8846 12.856C79.266 13.0373 78.5033 13.128 77.5966 13.128ZM76.6686 7.896C77.426 7.896 78.034 7.736 78.4926 7.416C78.9513 7.096 79.1806 6.70133 79.1806 6.232C79.1806 5.85867 79.0526 5.55467 78.7966 5.32C78.5513 5.07467 78.162 4.952 77.6286 4.952C77.1273 4.952 76.674 5.048 76.2686 5.24C75.874 5.42133 75.5646 5.66133 75.3406 5.96C75.1166 6.25867 75.0046 6.584 75.0046 6.936C75.0046 7.24533 75.1486 7.48533 75.4366 7.656C75.7353 7.816 76.146 7.896 76.6686 7.896ZM83.1948 5.784C83.1948 4.76 83.2908 4.024 83.4828 3.576C83.6748 3.11733 83.9468 2.888 84.2988 2.888C84.5761 2.888 84.7948 3.00533 84.9548 3.24C85.1148 3.464 85.2321 3.74667 85.3068 4.088C85.3814 4.41867 85.4188 4.75467 85.4188 5.096L85.3388 5.064C85.5201 4.488 85.7974 3.992 86.1708 3.576C86.5548 3.16 87.0134 2.952 87.5468 2.952C88.1761 2.952 88.6401 3.21333 88.9388 3.736C89.2374 4.248 89.3868 4.888 89.3868 5.656C89.3868 6.68 89.2694 7.39467 89.0348 7.8C88.8001 8.20533 88.4854 8.408 88.0908 8.408C87.8028 8.408 87.5894 8.29067 87.4508 8.056C87.3228 7.82133 87.2801 7.40533 87.3228 6.808C87.3654 6.17867 87.3281 5.74133 87.2108 5.496C87.0934 5.25067 86.9068 5.128 86.6508 5.128C86.3414 5.128 86.0854 5.32533 85.8828 5.72C85.6908 6.104 85.5948 6.57867 85.5948 7.144C85.5948 7.368 85.6214 7.65067 85.6748 7.992C85.7281 8.33333 85.7868 8.70667 85.8508 9.112C85.9148 9.50667 85.9734 9.90133 86.0268 10.296C86.0801 10.6907 86.1068 11.0533 86.1068 11.384C86.1068 11.9707 86.0161 12.392 85.8348 12.648C85.6534 12.904 85.3974 13.032 85.0668 13.032C84.6934 13.032 84.4054 12.9147 84.2028 12.68C84.0001 12.4347 83.8454 12.04 83.7388 11.496C83.6534 11.0053 83.5681 10.424 83.4828 9.752C83.3974 9.08 83.3281 8.392 83.2747 7.688C83.2214 6.984 83.1948 6.34933 83.1948 5.784ZM94.8521 2.984C95.8015 2.984 96.4841 3.12267 96.9001 3.4C97.3161 3.67733 97.5241 4.03467 97.5241 4.472C97.5241 4.728 97.4335 4.94133 97.2521 5.112C97.0815 5.272 96.8361 5.352 96.5161 5.352C96.1855 5.352 95.8388 5.304 95.4761 5.208C95.1241 5.112 94.7135 5.064 94.2441 5.064C93.7001 5.064 93.2948 5.17067 93.0281 5.384C92.7615 5.59733 92.6281 5.86933 92.6281 6.2C92.6281 6.50933 92.7455 6.75467 92.9801 6.936C93.2255 7.10667 93.6895 7.23467 94.3721 7.32C95.1295 7.40533 95.7535 7.544 96.2441 7.736C96.7455 7.91733 97.1188 8.19467 97.3641 8.568C97.6095 8.93067 97.7321 9.432 97.7321 10.072C97.7321 11.0853 97.3748 11.8373 96.6601 12.328C95.9455 12.8187 94.9588 13.064 93.7001 13.064C92.9001 13.064 92.2655 13 91.7961 12.872C91.3268 12.744 90.9855 12.5627 90.7721 12.328C90.5695 12.0933 90.4681 11.816 90.4681 11.496C90.4681 11.2187 90.5588 11.0053 90.7401 10.856C90.9321 10.696 91.1561 10.616 91.4121 10.616C91.6575 10.616 91.9188 10.648 92.1961 10.712C92.4735 10.7653 92.7668 10.824 93.0761 10.888C93.3855 10.952 93.7055 10.984 94.0361 10.984C95.1028 10.984 95.6361 10.6533 95.6361 9.992C95.6361 9.768 95.5828 9.58667 95.4761 9.448C95.3695 9.30933 95.1775 9.19733 94.9001 9.112C94.6228 9.016 94.2175 8.94133 93.6841 8.888C93.0441 8.824 92.4895 8.71733 92.0201 8.568C91.5508 8.408 91.1881 8.152 90.9321 7.8C90.6761 7.43733 90.5481 6.94133 90.5481 6.312C90.5481 5.32 90.9215 4.52 91.6681 3.912C92.4148 3.29333 93.4761 2.984 94.8521 2.984ZM103.831 13.128C102.647 13.128 101.703 12.952 100.999 12.6C100.295 12.248 99.7883 11.7413 99.479 11.08C99.1697 10.4187 99.015 9.62933 99.015 8.712C99.015 7.54933 99.2283 6.56267 99.655 5.752C100.092 4.93067 100.69 4.30133 101.447 3.864C102.215 3.42667 103.084 3.208 104.055 3.208C105.196 3.208 106.034 3.47467 106.567 4.008C107.1 4.53067 107.367 5.21867 107.367 6.072C107.367 6.75467 107.186 7.34667 106.823 7.848C106.471 8.33867 105.98 8.71733 105.351 8.984C104.722 9.25067 103.996 9.384 103.175 9.384C102.716 9.384 102.274 9.32533 101.847 9.208C101.42 9.09067 101.036 8.93067 100.695 8.728L101.079 8.024C101.047 8.28 101.031 8.536 101.031 8.792C101.031 9.53867 101.266 10.0773 101.735 10.408C102.204 10.728 102.871 10.888 103.735 10.888C104.407 10.888 104.946 10.8293 105.351 10.712C105.756 10.5947 106.098 10.4827 106.375 10.376C106.652 10.2587 106.924 10.2 107.191 10.2C107.34 10.2 107.474 10.2427 107.591 10.328C107.719 10.4027 107.82 10.5147 107.895 10.664C107.98 10.8133 108.023 10.9947 108.023 11.208C108.023 11.528 107.863 11.8373 107.543 12.136C107.223 12.424 106.748 12.664 106.119 12.856C105.5 13.0373 104.738 13.128 103.831 13.128ZM102.903 7.896C103.66 7.896 104.268 7.736 104.727 7.416C105.186 7.096 105.415 6.70133 105.415 6.232C105.415 5.85867 105.287 5.55467 105.031 5.32C104.786 5.07467 104.396 4.952 103.863 4.952C103.362 4.952 102.908 5.048 102.503 5.24C102.108 5.42133 101.799 5.66133 101.575 5.96C101.351 6.25867 101.239 6.584 101.239 6.936C101.239 7.24533 101.383 7.48533 101.671 7.656C101.97 7.816 102.38 7.896 102.903 7.896ZM112.485 12.744C111.482 12.744 110.666 12.36 110.037 11.592C109.408 10.8133 109.093 9.63467 109.093 8.056C109.093 6.37067 109.397 5.13867 110.005 4.36C110.613 3.58133 111.413 3.192 112.405 3.192C112.992 3.192 113.509 3.34133 113.957 3.64C114.405 3.93867 114.789 4.36 115.109 4.904L114.981 5.128C114.949 4.97867 114.922 4.81867 114.901 4.648C114.88 4.47733 114.869 4.34933 114.869 4.264C114.869 3.82667 114.938 3.49067 115.077 3.256C115.226 3.01067 115.456 2.888 115.765 2.888C116.106 2.888 116.373 3.02667 116.565 3.304C116.768 3.58133 116.922 3.976 117.029 4.488C117.168 5.01067 117.285 5.67733 117.381 6.488C117.477 7.288 117.525 8.09867 117.525 8.92C117.525 9.944 117.488 10.8027 117.413 11.496C117.338 12.1893 117.216 12.7653 117.045 13.224C116.874 13.6827 116.65 14.0827 116.373 14.424C115.914 14.9787 115.322 15.4 114.597 15.688C113.882 15.9867 113.056 16.136 112.117 16.136C111.445 16.136 110.906 16.072 110.501 15.944C110.096 15.8267 109.802 15.6613 109.621 15.448C109.45 15.2453 109.365 15.016 109.365 14.76C109.365 14.4933 109.44 14.2693 109.589 14.088C109.738 13.9173 109.962 13.832 110.261 13.832C110.528 13.832 110.837 13.8747 111.189 13.96C111.552 14.0453 111.978 14.088 112.469 14.088C113.504 14.088 114.234 13.8427 114.661 13.352C115.098 12.872 115.317 12.1787 115.317 11.272C115.317 11.0267 115.301 10.7387 115.269 10.408L115.493 10.488C115.226 11.1707 114.832 11.72 114.309 12.136C113.786 12.5413 113.178 12.744 112.485 12.744ZM113.093 10.776C113.434 10.776 113.776 10.6853 114.117 10.504C114.458 10.3227 114.741 10.024 114.965 9.608C115.189 9.192 115.301 8.632 115.301 7.928C115.301 7.08533 115.104 6.39733 114.709 5.864C114.314 5.33067 113.76 5.064 113.045 5.064C112.426 5.064 111.973 5.29867 111.685 5.768C111.397 6.23733 111.253 6.94667 111.253 7.896C111.253 8.80267 111.397 9.512 111.685 10.024C111.973 10.5253 112.442 10.776 113.093 10.776ZM120.884 0.728C121.311 0.728 121.615 0.845333 121.796 1.08C121.988 1.31467 122.084 1.58667 122.084 1.896C122.084 2.28 121.967 2.57867 121.732 2.792C121.508 2.99467 121.188 3.096 120.772 3.096C120.367 3.096 120.063 2.984 119.86 2.76C119.657 2.52533 119.556 2.25333 119.556 1.944C119.556 1.53867 119.679 1.23467 119.924 1.032C120.169 0.829333 120.489 0.728 120.884 0.728ZM120.98 4.296C121.321 4.296 121.588 4.616 121.78 5.256C121.983 5.896 122.084 6.91467 122.084 8.312C122.084 10.0293 121.961 11.2667 121.716 12.024C121.471 12.7813 121.097 13.16 120.596 13.16C120.212 13.16 119.929 12.8827 119.748 12.328C119.567 11.7627 119.476 10.7813 119.476 9.384C119.476 7.66667 119.615 6.392 119.892 5.56C120.18 4.71733 120.543 4.296 120.98 4.296Z" fill="#060606"/>
</svg>
