<svg version="1.1" xmlns="http://www.w3.org/2000/svg" xmlns:xlink="http://www.w3.org/1999/xlink" width="368.29826" height="16.37371" viewBox="0,0,368.29826,16.37371"><g transform="translate(-55.85087,-171.81315)"><g data-paper-data="{&quot;isPaintingLayer&quot;:true}" fill="#000000" fill-rule="nonzero" stroke="none" stroke-width="1" stroke-linecap="butt" stroke-linejoin="miter" stroke-miterlimit="10" stroke-dasharray="" stroke-dashoffset="0" style="mix-blend-mode: normal"><path d="M59.79692,184.91212c-1.39721,0 -2.40693,-0.39296 -3.02913,-1.1789c-0.61129,-0.78594 -0.91693,-2.08491 -0.91693,-3.89693c0,-0.61129 0.01637,-1.23348 0.04912,-1.8666c0.04366,-0.64403 0.09824,-1.26077 0.16373,-1.85022c0.07641,-0.60037 0.16373,-1.11887 0.26198,-1.5555c0.09824,-0.45846 0.25106,-0.81868 0.45846,-1.08066c0.21831,-0.27289 0.54034,-0.40934 0.96605,-0.40934c0.32747,0 0.57854,0.09824 0.75319,0.29472c0.18557,0.19648 0.27835,0.49667 0.27835,0.90055c0,0.25106 -0.0382,0.584 -0.11461,0.99879c-0.07641,0.4148 -0.16373,0.8678 -0.26198,1.35901c-0.08733,0.49121 -0.16919,0.98788 -0.2456,1.49001c-0.07641,0.49121 -0.11461,0.94967 -0.11461,1.37538c0,1.09158 0.16919,1.85568 0.50759,2.29231c0.3493,0.42571 0.85143,0.63858 1.50638,0.63858c0.63312,0 1.10249,-0.23469 1.40813,-0.70407c0.31655,-0.46937 0.47484,-1.21165 0.47484,-2.22681c0,-0.31655 -0.02183,-0.72044 -0.06549,-1.21165c-0.04366,-0.49121 -0.09278,-1.00425 -0.14736,-1.53913c-0.05458,-0.53488 -0.1037,-1.02608 -0.14736,-1.47363c-0.04366,-0.45846 -0.06549,-0.80231 -0.06549,-1.03154c0,-0.94967 0.33293,-1.42451 0.99879,-1.42451c0.38205,0 0.67678,0.12007 0.88418,0.36022c0.2074,0.22923 0.3493,0.57854 0.42571,1.04791c0.07641,0.4148 0.1419,0.91693 0.19648,1.50638c0.05458,0.57854 0.09278,1.18436 0.11461,1.81748c0.03275,0.63312 0.04912,1.22802 0.04912,1.78473c0,1.3208 -0.15282,2.39056 -0.45846,3.20923c-0.29472,0.81868 -0.76411,1.41905 -1.40813,1.8011c-0.64403,0.38205 -1.48455,0.57308 -2.52155,0.57308zM67.37178,184.94486c-0.2074,0 -0.37659,-0.06004 -0.50759,-0.18011c-0.13099,-0.13099 -0.22377,-0.31655 -0.27835,-0.55671c-0.08733,-0.40388 -0.16373,-0.98788 -0.22923,-1.75198c-0.06549,-0.76411 -0.09824,-1.61008 -0.09824,-2.53792c0,-1.14615 0.0382,-2.24865 0.11461,-3.30748c0.08733,-1.05883 0.19648,-1.92663 0.32747,-2.60341c0.1419,-0.73136 0.31655,-1.26623 0.52396,-1.60462c0.2074,-0.3493 0.4803,-0.52396 0.81868,-0.52396c0.30564,0 0.54034,0.1419 0.70407,0.42572c0.16373,0.27289 0.2456,0.74773 0.2456,1.42451c0,0.67678 -0.02729,1.40267 -0.08187,2.17769c-0.04366,0.77502 -0.12007,1.60462 -0.22923,2.4888h0.06549c0.70953,-0.96059 1.36993,-1.73015 1.98121,-2.30868c0.6222,-0.57854 1.18982,-0.99879 1.70286,-1.26077c0.52396,-0.26198 0.98788,-0.39296 1.39176,-0.39296c0.31655,0 0.55125,0.09824 0.70407,0.29472c0.15282,0.19648 0.22923,0.43663 0.22923,0.72044c0,0.55671 -0.44754,1.1789 -1.34264,1.8666c-0.88418,0.6877 -2.16132,1.39176 -3.83144,2.1122l0.01637,-0.26198c1.037,0.53488 1.92663,1.09703 2.66891,1.68649c0.75319,0.57854 1.32626,1.12978 1.71924,1.65374c0.40388,0.51305 0.60583,0.94421 0.60583,1.29352c0,0.28381 -0.09278,0.5185 -0.27835,0.70407c-0.17465,0.17465 -0.43117,0.26198 -0.76956,0.26198c-0.42571,0 -0.90055,-0.15828 -1.42451,-0.47484c-0.51305,-0.32747 -1.04791,-0.81323 -1.60462,-1.45726c-0.55671,-0.64403 -1.11341,-1.4518 -1.67012,-2.42331h-0.06549c-0.01092,0.6877 -0.05458,1.35901 -0.13099,2.01396c-0.06549,0.64403 -0.15282,1.17344 -0.26198,1.58825c-0.07641,0.28381 -0.19648,0.51305 -0.36022,0.6877c-0.15282,0.16373 -0.37113,0.2456 -0.65495,0.2456zM83.44431,184.68289c-0.29472,0 -0.52396,-0.09824 -0.6877,-0.29472c-0.15282,-0.2074 -0.25652,-0.46937 -0.3111,-0.78594c-0.05458,-0.32747 -0.08187,-0.67132 -0.08187,-1.03154l0.08187,-0.06549c-0.10916,0.46937 -0.32201,0.87326 -0.63858,1.21165c-0.31655,0.33839 -0.68224,0.60037 -1.09703,0.78594c-0.4148,0.17465 -0.8296,0.26198 -1.2444,0.26198c-0.55671,0 -1.06429,-0.13099 -1.52275,-0.39296c-0.45846,-0.26198 -0.81323,-0.66587 -1.06429,-1.21165c-0.25106,-0.57854 -0.44754,-1.30443 -0.58946,-2.17769c-0.1419,-0.88418 -0.21286,-1.79019 -0.21286,-2.71803c0,-0.50213 0.02183,-0.96605 0.06549,-1.39176c0.04366,-0.42571 0.11461,-0.77502 0.21286,-1.04791c0.08733,-0.28381 0.21831,-0.49121 0.39296,-0.6222c0.17465,-0.1419 0.39842,-0.21286 0.67132,-0.21286c0.31655,0 0.56217,0.12553 0.73682,0.37659c0.18557,0.24014 0.30018,0.57854 0.34384,1.01517c0.04366,0.36022 0.07095,0.80777 0.08187,1.34264c0.02183,0.52396 0.0382,1.05337 0.04912,1.58825c0.02183,0.52396 0.04912,0.96605 0.08187,1.32626c0.06549,0.65495 0.23469,1.1407 0.50759,1.45726c0.27289,0.30564 0.60583,0.45846 0.99879,0.45846c0.57854,0 1.02062,-0.21831 1.32626,-0.65495c0.30564,-0.43663 0.45846,-1.04791 0.45846,-1.83385c0,-0.39296 -0.02183,-0.83506 -0.06549,-1.32626c-0.04366,-0.50213 -0.09278,-0.98788 -0.14736,-1.45726c-0.04366,-0.46937 -0.06549,-0.85689 -0.06549,-1.16253c0,-0.51305 0.08733,-0.87872 0.26198,-1.09703c0.17465,-0.22923 0.4148,-0.34384 0.72044,-0.34384c0.26198,0 0.4803,0.07095 0.65495,0.21286c0.18557,0.1419 0.33293,0.33839 0.44208,0.58946c0.15282,0.32747 0.28381,0.77502 0.39296,1.34264c0.10916,0.56762 0.19648,1.21165 0.26198,1.93209c0.06549,0.72044 0.09824,1.47909 0.09824,2.27594c0,1.22256 -0.08187,2.13949 -0.2456,2.75078c-0.16373,0.60037 -0.453,0.90055 -0.8678,0.90055zM86.54957,177.3966c0,-1.04791 0.09824,-1.8011 0.29472,-2.25956c0.19648,-0.46937 0.47484,-0.70407 0.83506,-0.70407c0.28381,0 0.50759,0.12007 0.67132,0.36022c0.16373,0.22923 0.28381,0.5185 0.36022,0.8678c0.07641,0.33839 0.11461,0.68224 0.11461,1.03154l-0.08187,-0.03275c0.18557,-0.58946 0.46937,-1.09703 0.85143,-1.52275c0.39296,-0.42571 0.86235,-0.63858 1.40813,-0.63858c0.64403,0 1.11887,0.26743 1.42451,0.80231c0.30564,0.52396 0.45846,1.1789 0.45846,1.96484c0,1.04791 -0.12007,1.77927 -0.36022,2.19407c-0.24014,0.4148 -0.56217,0.6222 -0.96605,0.6222c-0.29472,0 -0.51305,-0.12007 -0.65495,-0.36022c-0.13099,-0.24014 -0.17465,-0.66587 -0.13099,-1.27714c0.04366,-0.64403 0.00546,-1.09158 -0.11461,-1.34264c-0.12007,-0.25106 -0.3111,-0.37659 -0.57308,-0.37659c-0.31655,0 -0.57854,0.20194 -0.78594,0.60583c-0.19648,0.39296 -0.29472,0.87872 -0.29472,1.45726c0,0.22923 0.02729,0.5185 0.08187,0.8678c0.05458,0.3493 0.11461,0.73136 0.18011,1.14615c0.06549,0.40388 0.12553,0.80777 0.18011,1.21165c0.05458,0.40388 0.08187,0.77502 0.08187,1.11341c0,0.60037 -0.09278,1.03154 -0.27835,1.29352c-0.18557,0.26198 -0.44754,0.39296 -0.78594,0.39296c-0.38205,0 -0.67678,-0.12007 -0.88418,-0.36022c-0.2074,-0.25106 -0.36567,-0.65495 -0.47484,-1.21165c-0.08733,-0.50213 -0.17465,-1.09703 -0.26198,-1.78473c-0.08733,-0.6877 -0.15828,-1.39176 -0.21286,-2.1122c-0.05458,-0.72044 -0.08187,-1.36993 -0.08187,-1.94847zM96.10497,184.81388c-0.33839,0 -0.60583,-0.07641 -0.80231,-0.22923c-0.19648,-0.16373 -0.35476,-0.43117 -0.47484,-0.80231c-0.16373,-0.54579 -0.28927,-1.23348 -0.37659,-2.06308c-0.07641,-0.84052 -0.11461,-1.87206 -0.11461,-3.09462c0,-0.75319 0.02729,-1.50638 0.08187,-2.25956c0.06549,-0.76411 0.14736,-1.45726 0.2456,-2.07945c0.09824,-0.63312 0.20194,-1.12432 0.3111,-1.47363c0.12007,-0.37113 0.26198,-0.62766 0.42571,-0.76956c0.16373,-0.1419 0.3493,-0.21286 0.55671,-0.21286c0.21831,0 0.39296,0.07641 0.52396,0.22923c0.13099,0.1419 0.23469,0.39842 0.3111,0.76956c0.06549,0.36022 0.11461,0.80231 0.14736,1.32626c0.04366,0.52396 0.06549,1.08612 0.06549,1.68649c0,0.81868 -0.0382,1.68103 -0.11461,2.58704c-0.07641,0.90601 -0.18011,1.79565 -0.3111,2.66891c-0.12007,0.87326 -0.26743,1.67557 -0.44208,2.40693l-0.45846,-0.22923c0.28381,-0.3493 0.60583,-0.6222 0.96605,-0.81868c0.37113,-0.19648 0.70953,-0.29472 1.01517,-0.29472c0.25106,0 0.44208,0.07095 0.57308,0.21286c0.1419,0.13099 0.21286,0.33839 0.21286,0.6222c0,0.28381 -0.12553,0.56762 -0.37659,0.85143c-0.24014,0.28381 -0.54034,0.5185 -0.90055,0.70407c-0.36022,0.17465 -0.71499,0.26198 -1.06429,0.26198zM107.08842,184.94486c-0.37113,0 -0.62766,-0.1419 -0.76956,-0.42571c-0.13099,-0.29472 -0.2074,-0.75865 -0.22923,-1.39176l0.16373,0.08187c-0.61129,1.18982 -1.76836,1.78473 -3.47122,1.78473c-0.77502,0 -1.41905,-0.13645 -1.93209,-0.40934c-0.51305,-0.28381 -0.89509,-0.65495 -1.14615,-1.11341c-0.24014,-0.46937 -0.36022,-0.97696 -0.36022,-1.52275c0,-0.93876 0.32747,-1.68103 0.98242,-2.22681c0.65495,-0.55671 1.52275,-0.83506 2.60341,-0.83506c0.70953,0 1.32626,0.1037 1.85022,0.3111c0.52396,0.2074 0.9715,0.49667 1.34264,0.8678l-0.27835,-0.03275c-0.07641,-1.10249 -0.31655,-1.88843 -0.72044,-2.3578c-0.39296,-0.4803 -0.95513,-0.72044 -1.68649,-0.72044c-0.42571,0 -0.81868,0.06549 -1.1789,0.19648c-0.36022,0.13099 -0.69315,0.26743 -0.99879,0.40934c-0.29472,0.13099 -0.57308,0.19648 -0.83506,0.19648c-0.26198,0 -0.46937,-0.08733 -0.6222,-0.26198c-0.1419,-0.17465 -0.21286,-0.39842 -0.21286,-0.67132c0,-0.39296 0.18557,-0.76411 0.55671,-1.11341c0.38205,-0.3493 0.88418,-0.63312 1.50638,-0.85143c0.6222,-0.21831 1.29897,-0.32747 2.03033,-0.32747c0.88418,0 1.64283,0.21286 2.27594,0.63858c0.63312,0.42571 1.11341,1.04791 1.44089,1.8666c0.28381,0.69861 0.48576,1.47909 0.60583,2.34143c0.12007,0.86235 0.18011,1.78473 0.18011,2.76715c0,0.74227 -0.0382,1.31535 -0.11461,1.71924c-0.07641,0.40388 -0.19648,0.6877 -0.36022,0.85143c-0.15282,0.15282 -0.36022,0.22923 -0.6222,0.22923zM103.46985,183.11101c0.36022,0 0.7259,-0.04912 1.09703,-0.14736c0.37113,-0.10916 0.68224,-0.26743 0.9333,-0.47484c0.25106,-0.2074 0.37659,-0.46392 0.37659,-0.76956c0,-0.26198 -0.10916,-0.47484 -0.32747,-0.63858c-0.2074,-0.17465 -0.48576,-0.30564 -0.83506,-0.39296c-0.33839,-0.08733 -0.70407,-0.13099 -1.09703,-0.13099c-0.66587,0 -1.17344,0.11461 -1.52275,0.34384c-0.33839,0.22923 -0.50759,0.53488 -0.50759,0.91693c0,0.4148 0.15828,0.73682 0.47484,0.96605c0.32747,0.21831 0.79685,0.32747 1.40813,0.32747zM111.86913,171.81318c0.3493,0 0.58946,0.13645 0.72044,0.40935c0.1419,0.27289 0.21286,0.68224 0.21286,1.22802c0,0.46937 -0.02729,1.05883 -0.08187,1.76836c-0.05458,0.70953 -0.12553,1.39176 -0.21286,2.04671h-0.09824c0.36022,-0.67678 0.82414,-1.22256 1.39176,-1.63737c0.56762,-0.4148 1.16799,-0.6222 1.8011,-0.6222c0.55671,0 1.05337,0.13645 1.49001,0.40934c0.43663,0.26198 0.7914,0.67678 1.06429,1.2444c0.25106,0.51305 0.43663,1.12432 0.55671,1.83385c0.12007,0.69861 0.18011,1.36447 0.18011,1.99759c0,1.01517 -0.07095,1.82294 -0.21286,2.42331c-0.13099,0.60037 -0.31655,1.037 -0.55671,1.30989c-0.24014,0.26198 -0.52396,0.39296 -0.85143,0.39296c-0.6877,0 -1.03154,-0.56217 -1.03154,-1.68649c0,-0.54579 0.02729,-1.10795 0.08187,-1.68649c0.06549,-0.57854 0.09824,-1.10795 0.09824,-1.58825c0,-0.81868 -0.13099,-1.42997 -0.39296,-1.83385c-0.25106,-0.4148 -0.61674,-0.6222 -1.09703,-0.6222c-0.60037,0 -1.08612,0.26743 -1.45726,0.80231c-0.37113,0.53488 -0.55671,1.27168 -0.55671,2.21044c0,0.49121 0.04366,1.03154 0.13099,1.621c0.08733,0.57854 0.13099,1.10795 0.13099,1.58825c0,0.53488 -0.1037,0.92238 -0.3111,1.16253c-0.19648,0.22923 -0.453,0.34384 -0.76956,0.34384c-0.24014,0 -0.453,-0.04912 -0.63858,-0.14736c-0.17465,-0.08733 -0.32747,-0.26743 -0.45846,-0.54034c-0.12007,-0.28381 -0.22377,-0.70407 -0.3111,-1.26077c-0.06549,-0.42571 -0.13099,-0.92238 -0.19648,-1.49001c-0.06549,-0.56762 -0.12007,-1.16253 -0.16373,-1.78473c-0.04366,-0.6222 -0.08187,-1.22802 -0.11461,-1.81748c-0.02183,-0.60037 -0.03275,-1.14615 -0.03275,-1.63737c0,-1.55004 0.14736,-2.67437 0.44208,-3.37298c0.29472,-0.70953 0.70953,-1.06429 1.2444,-1.06429zM128.79117,173.00847c1.29897,0 2.2541,0.33293 2.86539,0.99879c0.6222,0.66587 0.9333,1.53913 0.9333,2.61979c0,0.74227 -0.17465,1.3863 -0.52396,1.93209c-0.33839,0.54579 -0.80231,0.9715 -1.39176,1.27714c-0.58946,0.29472 -1.25531,0.44208 -1.99759,0.44208c-0.3493,0 -0.72044,-0.0382 -1.11341,-0.11461c-0.38205,-0.07641 -0.78048,-0.22377 -1.19527,-0.44208l0.08187,-0.21286c0.08733,0.27289 0.15828,0.61129 0.21286,1.01517c0.06549,0.39296 0.11461,0.80231 0.14736,1.22802c0.04366,0.4148 0.06549,0.79685 0.06549,1.14615c0,0.64403 -0.10916,1.1407 -0.32747,1.49001c-0.2074,0.33839 -0.5185,0.50759 -0.9333,0.50759c-0.3493,0 -0.62766,-0.10916 -0.83506,-0.32747c-0.19648,-0.21831 -0.33293,-0.57854 -0.40934,-1.08066c-0.07641,-0.50213 -0.11461,-1.17344 -0.11461,-2.01396c0,-1.61554 0.07095,-2.99092 0.21286,-4.12616c0.15282,-1.14615 0.40934,-2.04671 0.76956,-2.70166c0.28381,-0.50213 0.72044,-0.90055 1.30989,-1.19527c0.60037,-0.29472 1.34809,-0.44208 2.24319,-0.44208zM128.48007,178.34628c0.65495,0 1.18436,-0.17465 1.58825,-0.52396c0.4148,-0.3493 0.6222,-0.85689 0.6222,-1.52275c0,-0.43663 -0.14736,-0.79685 -0.44208,-1.08066c-0.28381,-0.29472 -0.73136,-0.44208 -1.34264,-0.44208c-0.44754,0 -0.83506,0.1037 -1.16253,0.3111c-0.32747,0.19648 -0.57854,0.47484 -0.75319,0.83506c-0.16373,0.3493 -0.2456,0.75319 -0.2456,1.21165c0,0.42571 0.13645,0.73682 0.40934,0.9333c0.28381,0.18557 0.7259,0.27835 1.32626,0.27835zM141.14688,184.94486c-0.37113,0 -0.62766,-0.1419 -0.76956,-0.42571c-0.13099,-0.29472 -0.2074,-0.75865 -0.22923,-1.39176l0.16373,0.08187c-0.61129,1.18982 -1.76836,1.78473 -3.47122,1.78473c-0.77502,0 -1.41905,-0.13645 -1.93209,-0.40934c-0.51305,-0.28381 -0.89509,-0.65495 -1.14615,-1.11341c-0.24014,-0.46937 -0.36022,-0.97696 -0.36022,-1.52275c0,-0.93876 0.32747,-1.68103 0.98242,-2.22681c0.65495,-0.55671 1.52275,-0.83506 2.60341,-0.83506c0.70953,0 1.32626,0.1037 1.85022,0.3111c0.52396,0.2074 0.9715,0.49667 1.34264,0.8678l-0.27835,-0.03275c-0.07641,-1.10249 -0.31655,-1.88843 -0.72044,-2.3578c-0.39296,-0.4803 -0.95513,-0.72044 -1.68649,-0.72044c-0.42571,0 -0.81868,0.06549 -1.1789,0.19648c-0.36022,0.13099 -0.69315,0.26743 -0.99879,0.40934c-0.29472,0.13099 -0.57308,0.19648 -0.83506,0.19648c-0.26198,0 -0.46937,-0.08733 -0.6222,-0.26198c-0.1419,-0.17465 -0.21286,-0.39842 -0.21286,-0.67132c0,-0.39296 0.18557,-0.76411 0.55671,-1.11341c0.38205,-0.3493 0.88418,-0.63312 1.50638,-0.85143c0.6222,-0.21831 1.29897,-0.32747 2.03033,-0.32747c0.88418,0 1.64283,0.21286 2.27594,0.63858c0.63312,0.42571 1.11341,1.04791 1.44089,1.8666c0.28381,0.69861 0.48576,1.47909 0.60583,2.34143c0.12007,0.86235 0.18011,1.78473 0.18011,2.76715c0,0.74227 -0.0382,1.31535 -0.11461,1.71924c-0.07641,0.40388 -0.19648,0.6877 -0.36022,0.85143c-0.15282,0.15282 -0.36022,0.22923 -0.6222,0.22923zM137.52829,183.11101c0.36022,0 0.7259,-0.04912 1.09703,-0.14736c0.37113,-0.10916 0.68224,-0.26743 0.9333,-0.47484c0.25106,-0.2074 0.37659,-0.46392 0.37659,-0.76956c0,-0.26198 -0.10916,-0.47484 -0.32747,-0.63858c-0.2074,-0.17465 -0.48576,-0.30564 -0.83506,-0.39296c-0.33839,-0.08733 -0.70407,-0.13099 -1.09703,-0.13099c-0.66587,0 -1.17344,0.11461 -1.52275,0.34384c-0.33839,0.22923 -0.50759,0.53488 -0.50759,0.91693c0,0.4148 0.15828,0.73682 0.47484,0.96605c0.32747,0.21831 0.79685,0.32747 1.40813,0.32747zM145.9112,174.59671c0.3493,0 0.584,0.1419 0.70407,0.42571c0.13099,0.28381 0.19648,0.70407 0.19648,1.26077c0,0.13099 -0.01092,0.27289 -0.03275,0.42571c-0.01092,0.1419 -0.03275,0.27289 -0.06549,0.39296l-0.03275,-0.32747c0.26198,-0.70953 0.66587,-1.26077 1.21165,-1.65374c0.54579,-0.40388 1.12432,-0.60583 1.73561,-0.60583c0.67678,0 1.23894,0.19102 1.68649,0.57308c0.45846,0.38205 0.79685,0.91693 1.01517,1.60462c0.22923,0.6877 0.34384,1.50092 0.34384,2.43968c0,0.57854 -0.02729,1.15161 -0.08187,1.71924c-0.04366,0.55671 -0.10916,1.06974 -0.19648,1.53913c-0.07641,0.45846 -0.16373,0.83506 -0.26198,1.12978c-0.13099,0.37113 -0.30018,0.64949 -0.50759,0.83506c-0.2074,0.17465 -0.453,0.26198 -0.73682,0.26198c-0.28381,0 -0.50213,-0.1037 -0.65495,-0.3111c-0.15282,-0.2074 -0.22923,-0.48576 -0.22923,-0.83506c0,-0.37113 0.02729,-0.81868 0.08187,-1.34264c0.05458,-0.53488 0.1037,-1.0752 0.14736,-1.621c0.05458,-0.55671 0.08187,-1.05883 0.08187,-1.50638c0,-1.52821 -0.50213,-2.29231 -1.50638,-2.29231c-0.53488,0 -0.98242,0.24014 -1.34264,0.72044c-0.36022,0.46937 -0.60037,1.1407 -0.72044,2.01396c-0.03275,0.29472 -0.04912,0.66041 -0.04912,1.09703c0,0.43663 0,0.87326 0,1.30989c0.01092,0.42571 0,0.78594 -0.03275,1.08066c-0.04366,0.65495 -0.16919,1.12432 -0.37659,1.40813c-0.19648,0.28381 -0.46937,0.42571 -0.81868,0.42571c-0.40388,0 -0.70953,-0.18557 -0.91693,-0.55671c-0.2074,-0.38205 -0.3111,-1.02062 -0.3111,-1.91572c0,-0.45846 0.01092,-0.9715 0.03275,-1.53913c0.02183,-0.56762 0.04912,-1.13524 0.08187,-1.70286c0.04366,-0.57854 0.09278,-1.10249 0.14736,-1.57188c0.10916,-0.88418 0.26743,-1.58279 0.47484,-2.09583c0.2074,-0.52396 0.5185,-0.78594 0.9333,-0.78594zM154.74848,188.18685c-0.43663,0 -0.8296,-0.09278 -1.1789,-0.27835c-0.3493,-0.18557 -0.62766,-0.42025 -0.83506,-0.70407c-0.2074,-0.28381 -0.3111,-0.57308 -0.3111,-0.8678c0,-0.25106 0.06549,-0.44754 0.19648,-0.58946c0.13099,-0.1419 0.30018,-0.21286 0.50759,-0.21286c0.36022,0 0.74773,0.13645 1.16253,0.40934c0.4148,0.27289 0.80777,0.64949 1.1789,1.12978l-0.2456,-0.03275c-0.18557,-1.52821 -0.32747,-2.99092 -0.42571,-4.38815c-0.08733,-1.40813 -0.13099,-2.66891 -0.13099,-3.78232c0,-1.01517 0.08187,-1.77381 0.2456,-2.27594c0.17465,-0.51305 0.45846,-0.76956 0.85143,-0.76956c0.44754,0 0.80231,0.3493 1.06429,1.04791c0.26198,0.69861 0.39296,1.87751 0.39296,3.53671c0,0.73136 -0.02183,1.48455 -0.06549,2.25956c-0.04366,0.76411 -0.10916,1.49001 -0.19648,2.17769c-0.07641,0.6877 -0.18557,1.26623 -0.32747,1.73561c-0.17465,0.56762 -0.4148,0.97696 -0.72044,1.22802c-0.29472,0.25106 -0.68224,0.37659 -1.16253,0.37659zM155.50167,174.46572c-0.3493,0 -0.63312,-0.07641 -0.85143,-0.22923c-0.2074,-0.16373 -0.3111,-0.40934 -0.3111,-0.73682c0,-0.37113 0.12553,-0.68224 0.37659,-0.9333c0.26198,-0.26198 0.62766,-0.39296 1.09703,-0.39296c0.39296,0 0.69315,0.09824 0.90055,0.29472c0.2074,0.18557 0.3111,0.43663 0.3111,0.75319c0,0.39296 -0.1419,0.69861 -0.42571,0.91693c-0.28381,0.21831 -0.64949,0.32747 -1.09703,0.32747zM166.37896,184.94486c-0.37113,0 -0.62766,-0.1419 -0.76956,-0.42571c-0.13099,-0.29472 -0.2074,-0.75865 -0.22923,-1.39176l0.16373,0.08187c-0.61129,1.18982 -1.76836,1.78473 -3.47122,1.78473c-0.77502,0 -1.41905,-0.13645 -1.93209,-0.40934c-0.51305,-0.28381 -0.89509,-0.65495 -1.14615,-1.11341c-0.24014,-0.46937 -0.36022,-0.97696 -0.36022,-1.52275c0,-0.93876 0.32747,-1.68103 0.98242,-2.22681c0.65495,-0.55671 1.52275,-0.83506 2.60341,-0.83506c0.70953,0 1.32626,0.1037 1.85022,0.3111c0.52396,0.2074 0.9715,0.49667 1.34264,0.8678l-0.27835,-0.03275c-0.07641,-1.10249 -0.31655,-1.88843 -0.72044,-2.3578c-0.39296,-0.4803 -0.95513,-0.72044 -1.68649,-0.72044c-0.42571,0 -0.81868,0.06549 -1.1789,0.19648c-0.36022,0.13099 -0.69315,0.26743 -0.99879,0.40934c-0.29472,0.13099 -0.57308,0.19648 -0.83506,0.19648c-0.26198,0 -0.46937,-0.08733 -0.6222,-0.26198c-0.1419,-0.17465 -0.21286,-0.39842 -0.21286,-0.67132c0,-0.39296 0.18557,-0.76411 0.55671,-1.11341c0.38205,-0.3493 0.88418,-0.63312 1.50638,-0.85143c0.6222,-0.21831 1.29897,-0.32747 2.03033,-0.32747c0.88418,0 1.64283,0.21286 2.27594,0.63858c0.63312,0.42571 1.11341,1.04791 1.44089,1.8666c0.28381,0.69861 0.48576,1.47909 0.60583,2.34143c0.12007,0.86235 0.18011,1.78473 0.18011,2.76715c0,0.74227 -0.0382,1.31535 -0.11461,1.71924c-0.07641,0.40388 -0.19648,0.6877 -0.36022,0.85143c-0.15282,0.15282 -0.36022,0.22923 -0.6222,0.22923zM162.76038,183.11101c0.36022,0 0.7259,-0.04912 1.09703,-0.14736c0.37113,-0.10916 0.68224,-0.26743 0.9333,-0.47484c0.25106,-0.2074 0.37659,-0.46392 0.37659,-0.76956c0,-0.26198 -0.10916,-0.47484 -0.32747,-0.63858c-0.2074,-0.17465 -0.48576,-0.30564 -0.83506,-0.39296c-0.33839,-0.08733 -0.70407,-0.13099 -1.09703,-0.13099c-0.66587,0 -1.17344,0.11461 -1.52275,0.34384c-0.33839,0.22923 -0.50759,0.53488 -0.50759,0.91693c0,0.4148 0.15828,0.73682 0.47484,0.96605c0.32747,0.21831 0.79685,0.32747 1.40813,0.32747zM171.14328,174.59671c0.3493,0 0.584,0.1419 0.70407,0.42571c0.13099,0.28381 0.19648,0.70407 0.19648,1.26077c0,0.13099 -0.01092,0.27289 -0.03275,0.42571c-0.01092,0.1419 -0.03275,0.27289 -0.06549,0.39296l-0.03275,-0.32747c0.26198,-0.70953 0.66587,-1.26077 1.21165,-1.65374c0.54579,-0.40388 1.12432,-0.60583 1.73561,-0.60583c0.67678,0 1.23894,0.19102 1.68649,0.57308c0.45846,0.38205 0.79685,0.91693 1.01517,1.60462c0.22923,0.6877 0.34384,1.50092 0.34384,2.43968c0,0.57854 -0.02729,1.15161 -0.08187,1.71924c-0.04366,0.55671 -0.10916,1.06974 -0.19648,1.53913c-0.07641,0.45846 -0.16373,0.83506 -0.26198,1.12978c-0.13099,0.37113 -0.30018,0.64949 -0.50759,0.83506c-0.2074,0.17465 -0.453,0.26198 -0.73682,0.26198c-0.28381,0 -0.50213,-0.1037 -0.65495,-0.3111c-0.15282,-0.2074 -0.22923,-0.48576 -0.22923,-0.83506c0,-0.37113 0.02729,-0.81868 0.08187,-1.34264c0.05458,-0.53488 0.1037,-1.0752 0.14736,-1.621c0.05458,-0.55671 0.08187,-1.05883 0.08187,-1.50638c0,-1.52821 -0.50213,-2.29231 -1.50638,-2.29231c-0.53488,0 -0.98242,0.24014 -1.34264,0.72044c-0.36022,0.46937 -0.60037,1.1407 -0.72044,2.01396c-0.03275,0.29472 -0.04912,0.66041 -0.04912,1.09703c0,0.43663 0,0.87326 0,1.30989c0.01092,0.42571 0,0.78594 -0.03275,1.08066c-0.04366,0.65495 -0.16919,1.12432 -0.37659,1.40813c-0.19648,0.28381 -0.46937,0.42571 -0.81868,0.42571c-0.40388,0 -0.70953,-0.18557 -0.91693,-0.55671c-0.2074,-0.38205 -0.3111,-1.02062 -0.3111,-1.91572c0,-0.45846 0.01092,-0.9715 0.03275,-1.53913c0.02183,-0.56762 0.04912,-1.13524 0.08187,-1.70286c0.04366,-0.57854 0.09278,-1.10249 0.14736,-1.57188c0.10916,-0.88418 0.26743,-1.58279 0.47484,-2.09583c0.2074,-0.52396 0.5185,-0.78594 0.9333,-0.78594zM183.02606,184.51915c-1.02608,0 -1.86114,-0.39296 -2.50517,-1.1789c-0.64403,-0.79685 -0.96605,-2.00304 -0.96605,-3.61858c0,-1.72469 0.3111,-2.98546 0.9333,-3.78232c0.6222,-0.79685 1.44089,-1.19527 2.45605,-1.19527c0.60037,0 1.12978,0.15282 1.58825,0.45846c0.45846,0.30564 0.85143,0.73682 1.1789,1.29352l-0.13099,0.22923c-0.03275,-0.15282 -0.06004,-0.31655 -0.08187,-0.49121c-0.02183,-0.17465 -0.03275,-0.30564 -0.03275,-0.39296c0,-0.44754 0.07095,-0.7914 0.21286,-1.03154c0.15282,-0.25106 0.38751,-0.37659 0.70407,-0.37659c0.3493,0 0.6222,0.1419 0.81868,0.42571c0.2074,0.28381 0.36567,0.6877 0.47484,1.21165c0.1419,0.53488 0.26198,1.21711 0.36022,2.04671c0.09824,0.81868 0.14736,1.64828 0.14736,2.4888c0,1.04791 -0.0382,1.92663 -0.11461,2.63616c-0.07641,0.70953 -0.20194,1.29897 -0.37659,1.76836c-0.17465,0.46937 -0.40388,0.87872 -0.6877,1.22802c-0.46937,0.56762 -1.0752,0.99879 -1.81748,1.29352c-0.73136,0.30564 -1.57733,0.45846 -2.53792,0.45846c-0.6877,0 -1.23894,-0.06549 -1.65374,-0.19648c-0.4148,-0.12007 -0.71499,-0.28927 -0.90055,-0.50759c-0.17465,-0.2074 -0.26198,-0.44208 -0.26198,-0.70407c0,-0.27289 0.07641,-0.50213 0.22923,-0.6877c0.15282,-0.17465 0.38205,-0.26198 0.6877,-0.26198c0.27289,0 0.58946,0.04366 0.94967,0.13099c0.37113,0.08733 0.80777,0.13099 1.30989,0.13099c1.05883,0 1.80656,-0.25106 2.24319,-0.75319c0.44754,-0.49121 0.67132,-1.20073 0.67132,-2.12857c0,-0.25106 -0.01637,-0.54579 -0.04912,-0.88418l0.22923,0.08187c-0.27289,0.69861 -0.67678,1.26077 -1.21165,1.68649c-0.53488,0.4148 -1.15707,0.6222 -1.8666,0.6222zM183.64826,182.50519c0.3493,0 0.69861,-0.09278 1.04791,-0.27835c0.3493,-0.18557 0.63858,-0.49121 0.8678,-0.91693c0.22923,-0.42571 0.34384,-0.99879 0.34384,-1.71924c0,-0.86235 -0.20194,-1.56642 -0.60583,-2.1122c-0.40388,-0.54579 -0.9715,-0.81868 -1.70286,-0.81868c-0.63312,0 -1.09703,0.24014 -1.39176,0.72044c-0.29472,0.4803 -0.44208,1.20619 -0.44208,2.17769c0,0.92784 0.14736,1.65374 0.44208,2.17769c0.29472,0.51305 0.77502,0.76956 1.44089,0.76956zM196.76534,184.83025c-0.36022,0 -0.76411,-0.02183 -1.21165,-0.06549c-0.43663,-0.04366 -0.86235,-0.12553 -1.27714,-0.2456c-0.40388,-0.13099 -0.74227,-0.30564 -1.01517,-0.52396c-0.26198,-0.22923 -0.39296,-0.52396 -0.39296,-0.88418c0,-0.37113 0.11461,-0.64949 0.34384,-0.83506c0.24014,-0.18557 0.62766,-0.27835 1.16253,-0.27835c0.37113,0 0.78594,0.04912 1.2444,0.14736c0.46937,0.09824 0.91693,0.14736 1.34264,0.14736c0.63312,0 1.09703,-0.09824 1.39176,-0.29472c0.30564,-0.19648 0.45846,-0.46392 0.45846,-0.80231c0,-0.2074 -0.06004,-0.39296 -0.18011,-0.55671c-0.10916,-0.16373 -0.33293,-0.32747 -0.67132,-0.49121c-0.33839,-0.16373 -0.84597,-0.34384 -1.52275,-0.54034c-0.77502,-0.2074 -1.40267,-0.43663 -1.88297,-0.6877c-0.4803,-0.26198 -0.8296,-0.57308 -1.04791,-0.9333c-0.21831,-0.36022 -0.32747,-0.78594 -0.32747,-1.27714c0,-0.60037 0.1037,-1.11887 0.3111,-1.5555c0.21831,-0.44754 0.50759,-0.82414 0.8678,-1.12978c0.36022,-0.31655 0.76411,-0.56762 1.21165,-0.75319c0.44754,-0.18557 0.90055,-0.32201 1.35901,-0.40934c0.46937,-0.08733 0.91693,-0.13099 1.34264,-0.13099c0.93876,0 1.70286,0.14736 2.29231,0.44208c0.60037,0.29472 0.90055,0.6877 0.90055,1.1789c0,0.3493 -0.11461,0.63312 -0.34384,0.85143c-0.21831,0.21831 -0.55671,0.32747 -1.01517,0.32747c-0.19648,0 -0.43117,-0.02729 -0.70407,-0.08187c-0.27289,-0.05458 -0.57308,-0.10916 -0.90055,-0.16373c-0.32747,-0.05458 -0.6877,-0.08187 -1.08066,-0.08187c-0.66587,0 -1.1789,0.1037 -1.53913,0.3111c-0.36022,0.2074 -0.54034,0.54034 -0.54034,0.99879c0,0.19648 0.04912,0.37659 0.14736,0.54034c0.10916,0.16373 0.33293,0.33293 0.67132,0.50759c0.33839,0.17465 0.85689,0.37659 1.5555,0.60583c0.86235,0.26198 1.53913,0.55125 2.03033,0.8678c0.49121,0.30564 0.84052,0.65495 1.04791,1.04791c0.2074,0.39296 0.3111,0.83506 0.3111,1.32626c0,0.67678 -0.18557,1.27714 -0.55671,1.8011c-0.36022,0.51305 -0.8678,0.91147 -1.52275,1.19527c-0.64403,0.28381 -1.39721,0.42571 -2.25956,0.42571zM204.3177,172.22253c0.43663,0 0.74773,0.12007 0.9333,0.36022c0.19648,0.24014 0.29472,0.5185 0.29472,0.83506c0,0.39296 -0.12007,0.69861 -0.36022,0.91693c-0.22923,0.2074 -0.55671,0.3111 -0.98242,0.3111c-0.4148,0 -0.7259,-0.11461 -0.9333,-0.34384c-0.2074,-0.24014 -0.31247,-0.5185 -0.31247,-0.83506c0,-0.4148 0.12689,-0.7259 0.37796,-0.9333c0.25106,-0.2074 0.57854,-0.3111 0.98242,-0.3111zM204.41594,175.87386c0.3493,0 0.6222,0.32747 0.81868,0.98242c0.2074,0.65495 0.3111,1.69741 0.3111,3.12737c0,1.75744 -0.12553,3.02367 -0.37659,3.79869c-0.25106,0.77502 -0.63312,1.16253 -1.14615,1.16253c-0.39296,0 -0.68224,-0.28381 -0.8678,-0.85143c-0.18557,-0.57854 -0.27835,-1.58279 -0.27835,-3.01275c0,-1.75744 0.1419,-3.06187 0.42571,-3.9133c0.29472,-0.86235 0.66587,-1.29352 1.11341,-1.29352zM211.68721,174.53121c0.9715,0 1.67012,0.1419 2.09583,0.42571c0.42571,0.28381 0.63858,0.64949 0.63858,1.09703c0,0.26198 -0.09278,0.4803 -0.27835,0.65495c-0.17465,0.16373 -0.42571,0.2456 -0.75319,0.2456c-0.33839,0 -0.69315,-0.04912 -1.06429,-0.14736c-0.36022,-0.09824 -0.78048,-0.14736 -1.26077,-0.14736c-0.55671,0 -0.9715,0.10916 -1.2444,0.32747c-0.27289,0.21831 -0.40934,0.49667 -0.40934,0.83506c0,0.31655 0.12007,0.56762 0.36022,0.75319c0.25106,0.17465 0.7259,0.30564 1.42451,0.39296c0.77502,0.08733 1.41359,0.22923 1.91572,0.42571c0.51305,0.18557 0.89509,0.46937 1.14615,0.85143c0.25106,0.37113 0.37659,0.88418 0.37659,1.53913c0,1.037 -0.36567,1.80656 -1.09703,2.30868c-0.73136,0.50213 -1.74107,0.75319 -3.02913,0.75319c-0.81868,0 -1.46818,-0.06549 -1.94847,-0.19648c-0.4803,-0.13099 -0.8296,-0.31655 -1.04791,-0.55671c-0.2074,-0.24014 -0.3111,-0.52396 -0.3111,-0.85143c0,-0.28381 0.09278,-0.50213 0.27835,-0.65495c0.19648,-0.16373 0.42571,-0.2456 0.6877,-0.2456c0.25106,0 0.5185,0.03275 0.80231,0.09824c0.28381,0.05458 0.584,0.11461 0.90055,0.18011c0.31655,0.06549 0.64403,0.09824 0.98242,0.09824c1.09158,0 1.63737,-0.33839 1.63737,-1.01517c0,-0.22923 -0.05458,-0.4148 -0.16373,-0.55671c-0.10916,-0.1419 -0.30564,-0.25652 -0.58946,-0.34384c-0.28381,-0.09824 -0.69861,-0.17465 -1.2444,-0.22923c-0.65495,-0.06549 -1.22256,-0.17465 -1.70286,-0.32747c-0.4803,-0.16373 -0.85143,-0.42571 -1.11341,-0.78594c-0.26198,-0.37113 -0.39296,-0.87872 -0.39296,-1.52275c0,-1.01517 0.38205,-1.83385 1.14615,-2.45605c0.76411,-0.63312 1.85022,-0.94967 3.25835,-0.94967zM217.73318,172.22253c0.43663,0 0.74773,0.12007 0.9333,0.36022c0.19648,0.24014 0.29472,0.5185 0.29472,0.83506c0,0.39296 -0.12007,0.69861 -0.36022,0.91693c-0.22923,0.2074 -0.55671,0.3111 -0.98242,0.3111c-0.4148,0 -0.7259,-0.11461 -0.9333,-0.34384c-0.2074,-0.24014 -0.3111,-0.5185 -0.3111,-0.83506c0,-0.4148 0.12553,-0.7259 0.37659,-0.9333c0.25106,-0.2074 0.57854,-0.3111 0.98242,-0.3111zM217.83143,175.87386c0.3493,0 0.6222,0.32747 0.81868,0.98242c0.2074,0.65495 0.3111,1.69741 0.3111,3.12737c0,1.75744 -0.12553,3.02367 -0.37659,3.79869c-0.25106,0.77502 -0.63312,1.16253 -1.14615,1.16253c-0.39296,0 -0.68224,-0.28381 -0.8678,-0.85143c-0.18557,-0.57854 -0.27835,-1.58279 -0.27835,-3.01275c0,-1.75744 0.1419,-3.06187 0.42571,-3.9133c0.29472,-0.86235 0.66587,-1.29352 1.11341,-1.29352zM226.5313,185.15773c-0.6877,0 -1.22256,-0.04366 -1.60462,-0.13099c-0.37113,-0.08733 -0.62766,-0.2074 -0.76956,-0.36022c-0.1419,-0.16373 -0.21831,-0.34384 -0.22923,-0.54034c0,-0.30564 0.18011,-0.56217 0.54034,-0.76956c0.37113,-0.2074 1.04791,-0.33839 2.03033,-0.39296l-0.26198,0.3111c-0.12007,-0.55671 -0.2074,-1.20619 -0.26198,-1.94847c-0.05458,-0.74227 -0.07641,-1.51184 -0.06549,-2.30868c0.01092,-0.79685 0.04912,-1.5555 0.11461,-2.27594c0.06549,-0.73136 0.15828,-1.35355 0.27835,-1.8666l1.42451,-0.09824c-0.24014,0.09824 -0.54034,0.18557 -0.90055,0.26198c-0.36022,0.06549 -0.73136,0.09824 -1.11341,0.09824c-0.69861,0 -1.21711,-0.07641 -1.5555,-0.22923c-0.32747,-0.15282 -0.49121,-0.36567 -0.49121,-0.63858c0,-0.4803 0.28927,-0.85143 0.8678,-1.11341c0.58946,-0.27289 1.49001,-0.40934 2.70166,-0.40934c1.44089,0 2.65254,0.24014 3.63495,0.72044c0.99334,0.46937 1.74653,1.12978 2.25956,1.98121c0.51305,0.84052 0.76956,1.82294 0.76956,2.94726c0,0.98242 -0.17465,1.88843 -0.52396,2.71803c-0.3493,0.81868 -0.85143,1.53367 -1.50638,2.14495c-0.64403,0.60037 -1.41905,1.06974 -2.32506,1.40813c-0.89509,0.32747 -1.89934,0.49121 -3.01275,0.49121zM228.85635,182.63618c0.37113,0 0.76411,-0.14736 1.1789,-0.44208c0.42571,-0.30564 0.78594,-0.74773 1.08066,-1.32626c0.29472,-0.58946 0.44208,-1.31535 0.44208,-2.17769c0,-0.63312 -0.09278,-1.18436 -0.27835,-1.65374c-0.17465,-0.4803 -0.40388,-0.87872 -0.6877,-1.19527c-0.28381,-0.31655 -0.584,-0.55125 -0.90055,-0.70407c-0.31655,-0.16373 -0.61674,-0.2456 -0.90055,-0.2456c-0.22923,0 -0.40934,0.1419 -0.54034,0.42571c-0.12007,0.28381 -0.2074,0.70953 -0.26198,1.27714c-0.05458,0.55671 -0.08187,1.24985 -0.08187,2.07945c0,1.28806 0.06549,2.27048 0.19648,2.94726c0.13099,0.67678 0.38205,1.01517 0.75319,1.01517zM242.85857,184.94486c-0.37113,0 -0.62766,-0.1419 -0.76956,-0.42571c-0.13099,-0.29472 -0.2074,-0.75865 -0.22923,-1.39176l0.16373,0.08187c-0.61129,1.18982 -1.76836,1.78473 -3.47122,1.78473c-0.77502,0 -1.41905,-0.13645 -1.93209,-0.40934c-0.51305,-0.28381 -0.89509,-0.65495 -1.14615,-1.11341c-0.24014,-0.46937 -0.36022,-0.97696 -0.36022,-1.52275c0,-0.93876 0.32747,-1.68103 0.98242,-2.22681c0.65495,-0.55671 1.52275,-0.83506 2.60341,-0.83506c0.70953,0 1.32626,0.1037 1.85022,0.3111c0.52396,0.2074 0.9715,0.49667 1.34264,0.8678l-0.27835,-0.03275c-0.07641,-1.10249 -0.31655,-1.88843 -0.72044,-2.3578c-0.39296,-0.4803 -0.95513,-0.72044 -1.68649,-0.72044c-0.42571,0 -0.81868,0.06549 -1.1789,0.19648c-0.36022,0.13099 -0.69315,0.26743 -0.99879,0.40934c-0.29472,0.13099 -0.57308,0.19648 -0.83506,0.19648c-0.26198,0 -0.46937,-0.08733 -0.6222,-0.26198c-0.1419,-0.17465 -0.21286,-0.39842 -0.21286,-0.67132c0,-0.39296 0.18557,-0.76411 0.55671,-1.11341c0.38205,-0.3493 0.88418,-0.63312 1.50638,-0.85143c0.6222,-0.21831 1.29897,-0.32747 2.03033,-0.32747c0.88418,0 1.64283,0.21286 2.27594,0.63858c0.63312,0.42571 1.11341,1.04791 1.44089,1.8666c0.28381,0.69861 0.48576,1.47909 0.60583,2.34143c0.12007,0.86235 0.18011,1.78473 0.18011,2.76715c0,0.74227 -0.0382,1.31535 -0.11461,1.71924c-0.07641,0.40388 -0.19648,0.6877 -0.36022,0.85143c-0.15282,0.15282 -0.36022,0.22923 -0.6222,0.22923zM239.23999,183.11101c0.36022,0 0.7259,-0.04912 1.09703,-0.14736c0.37113,-0.10916 0.68224,-0.26743 0.9333,-0.47484c0.25106,-0.2074 0.37659,-0.46392 0.37659,-0.76956c0,-0.26198 -0.10916,-0.47484 -0.32747,-0.63858c-0.2074,-0.17465 -0.48576,-0.30564 -0.83506,-0.39296c-0.33839,-0.08733 -0.70407,-0.13099 -1.09703,-0.13099c-0.66587,0 -1.17344,0.11461 -1.52275,0.34384c-0.33839,0.22923 -0.50759,0.53488 -0.50759,0.91693c0,0.4148 0.15828,0.73682 0.47484,0.96605c0.32747,0.21831 0.79685,0.32747 1.40813,0.32747zM247.62331,174.59671c0.3493,0 0.584,0.1419 0.70407,0.42571c0.13099,0.28381 0.19648,0.70407 0.19648,1.26077c0,0.13099 -0.01092,0.27289 -0.03275,0.42571c-0.01092,0.1419 -0.03275,0.27289 -0.06549,0.39296l-0.03275,-0.32747c0.26198,-0.70953 0.66587,-1.26077 1.21165,-1.65374c0.54579,-0.40388 1.12432,-0.60583 1.73561,-0.60583c0.67678,0 1.23894,0.19102 1.68649,0.57308c0.45846,0.38205 0.79685,0.91693 1.01517,1.60462c0.22923,0.6877 0.34384,1.50092 0.34384,2.43968c0,0.57854 -0.02729,1.15161 -0.08187,1.71924c-0.04366,0.55671 -0.10916,1.06974 -0.19648,1.53913c-0.07641,0.45846 -0.16373,0.83506 -0.26198,1.12978c-0.13099,0.37113 -0.30018,0.64949 -0.50759,0.83506c-0.2074,0.17465 -0.453,0.26198 -0.73682,0.26198c-0.28381,0 -0.50213,-0.1037 -0.65495,-0.3111c-0.15282,-0.2074 -0.22923,-0.48576 -0.22923,-0.83506c0,-0.37113 0.02729,-0.81868 0.08187,-1.34264c0.05458,-0.53488 0.1037,-1.0752 0.14736,-1.621c0.05458,-0.55671 0.08187,-1.05883 0.08187,-1.50638c0,-1.52821 -0.50213,-2.29231 -1.50638,-2.29231c-0.53488,0 -0.98242,0.24014 -1.34264,0.72044c-0.36022,0.46937 -0.60037,1.1407 -0.72044,2.01396c-0.03275,0.29472 -0.04912,0.66041 -0.04912,1.09703c0,0.43663 0,0.87326 0,1.30989c0.01092,0.42571 0,0.78594 -0.03275,1.08066c-0.04366,0.65495 -0.16919,1.12432 -0.37659,1.40813c-0.19648,0.28381 -0.46937,0.42571 -0.81868,0.42571c-0.40388,0 -0.70953,-0.18557 -0.91693,-0.55671c-0.2074,-0.38205 -0.3111,-1.02062 -0.3111,-1.91572c0,-0.45846 0.01092,-0.9715 0.03275,-1.53913c0.02183,-0.56762 0.04912,-1.13524 0.08187,-1.70286c0.04366,-0.57854 0.09278,-1.10249 0.14736,-1.57188c0.10916,-0.88418 0.26743,-1.58279 0.47484,-2.09583c0.2074,-0.52396 0.5185,-0.78594 0.9333,-0.78594zM262.96407,184.83025c-0.36022,0 -0.76411,-0.02183 -1.21165,-0.06549c-0.43663,-0.04366 -0.86235,-0.12553 -1.27714,-0.2456c-0.40388,-0.13099 -0.74227,-0.30564 -1.01517,-0.52396c-0.26198,-0.22923 -0.39296,-0.52396 -0.39296,-0.88418c0,-0.37113 0.11461,-0.64949 0.34384,-0.83506c0.24014,-0.18557 0.62766,-0.27835 1.16253,-0.27835c0.37113,0 0.78594,0.04912 1.2444,0.14736c0.46937,0.09824 0.91693,0.14736 1.34264,0.14736c0.63312,0 1.09703,-0.09824 1.39176,-0.29472c0.30564,-0.19648 0.45846,-0.46392 0.45846,-0.80231c0,-0.2074 -0.06004,-0.39296 -0.18011,-0.55671c-0.10916,-0.16373 -0.33293,-0.32747 -0.67132,-0.49121c-0.33839,-0.16373 -0.84597,-0.34384 -1.52275,-0.54034c-0.77502,-0.2074 -1.40267,-0.43663 -1.88297,-0.6877c-0.4803,-0.26198 -0.8296,-0.57308 -1.04791,-0.9333c-0.21831,-0.36022 -0.32747,-0.78594 -0.32747,-1.27714c0,-0.60037 0.1037,-1.11887 0.3111,-1.5555c0.21831,-0.44754 0.50759,-0.82414 0.8678,-1.12978c0.36022,-0.31655 0.76411,-0.56762 1.21165,-0.75319c0.44754,-0.18557 0.90055,-0.32201 1.35901,-0.40934c0.46937,-0.08733 0.91693,-0.13099 1.34264,-0.13099c0.93876,0 1.70286,0.14736 2.29231,0.44208c0.60037,0.29472 0.90055,0.6877 0.90055,1.1789c0,0.3493 -0.11461,0.63312 -0.34384,0.85143c-0.21831,0.21831 -0.55671,0.32747 -1.01517,0.32747c-0.19648,0 -0.43117,-0.02729 -0.70407,-0.08187c-0.27289,-0.05458 -0.57308,-0.10916 -0.90055,-0.16373c-0.32747,-0.05458 -0.6877,-0.08187 -1.08066,-0.08187c-0.66587,0 -1.1789,0.1037 -1.53913,0.3111c-0.36022,0.2074 -0.54034,0.54034 -0.54034,0.99879c0,0.19648 0.04912,0.37659 0.14736,0.54034c0.10916,0.16373 0.33293,0.33293 0.67132,0.50759c0.33839,0.17465 0.85689,0.37659 1.5555,0.60583c0.86235,0.26198 1.53913,0.55125 2.03033,0.8678c0.49121,0.30564 0.84052,0.65495 1.04791,1.04791c0.2074,0.39296 0.3111,0.83506 0.3111,1.32626c0,0.67678 -0.18557,1.27714 -0.55671,1.8011c-0.36022,0.51305 -0.8678,0.91147 -1.52275,1.19527c-0.64403,0.28381 -1.39721,0.42571 -2.25956,0.42571zM276.44231,184.68289c-0.29472,0 -0.52396,-0.09824 -0.6877,-0.29472c-0.15282,-0.2074 -0.25652,-0.46937 -0.3111,-0.78594c-0.05458,-0.32747 -0.08187,-0.67132 -0.08187,-1.03154l0.08187,-0.06549c-0.10916,0.46937 -0.32201,0.87326 -0.63858,1.21165c-0.31655,0.33839 -0.68224,0.60037 -1.09703,0.78594c-0.4148,0.17465 -0.8296,0.26198 -1.2444,0.26198c-0.55671,0 -1.06429,-0.13099 -1.52275,-0.39296c-0.45846,-0.26198 -0.81323,-0.66587 -1.06429,-1.21165c-0.25106,-0.57854 -0.44754,-1.30443 -0.58946,-2.17769c-0.1419,-0.88418 -0.21286,-1.79019 -0.21286,-2.71803c0,-0.50213 0.02183,-0.96605 0.06549,-1.39176c0.04366,-0.42571 0.11461,-0.77502 0.21286,-1.04791c0.08733,-0.28381 0.21831,-0.49121 0.39296,-0.6222c0.17465,-0.1419 0.39842,-0.21286 0.67132,-0.21286c0.31655,0 0.56217,0.12553 0.73682,0.37659c0.18557,0.24014 0.30018,0.57854 0.34384,1.01517c0.04366,0.36022 0.07095,0.80777 0.08187,1.34264c0.02183,0.52396 0.0382,1.05337 0.04912,1.58825c0.02183,0.52396 0.04912,0.96605 0.08187,1.32626c0.06549,0.65495 0.23469,1.1407 0.50759,1.45726c0.27289,0.30564 0.60583,0.45846 0.99879,0.45846c0.57854,0 1.02062,-0.21831 1.32626,-0.65495c0.30564,-0.43663 0.45846,-1.04791 0.45846,-1.83385c0,-0.39296 -0.02183,-0.83506 -0.06549,-1.32626c-0.04366,-0.50213 -0.09278,-0.98788 -0.14736,-1.45726c-0.04366,-0.46937 -0.06549,-0.85689 -0.06549,-1.16253c0,-0.51305 0.08733,-0.87872 0.26198,-1.09703c0.17465,-0.22923 0.4148,-0.34384 0.72044,-0.34384c0.26198,0 0.4803,0.07095 0.65495,0.21286c0.18557,0.1419 0.33293,0.33839 0.44208,0.58946c0.15282,0.32747 0.28381,0.77502 0.39296,1.34264c0.10916,0.56762 0.19648,1.21165 0.26198,1.93209c0.06549,0.72044 0.09824,1.47909 0.09824,2.27594c0,1.22256 -0.08187,2.13949 -0.2456,2.75078c-0.16373,0.60037 -0.453,0.90055 -0.8678,0.90055zM282.60973,185.01036c-1.06974,0 -1.9048,-0.39842 -2.50517,-1.19527c-0.60037,-0.80777 -0.90055,-2.03579 -0.90055,-3.68408c0,-1.63737 0.29472,-2.83264 0.88418,-3.58583c0.60037,-0.76411 1.45726,-1.14615 2.57067,-1.14615c0.63312,0 1.18436,0.13099 1.65374,0.39296c0.4803,0.26198 0.90601,0.63312 1.27714,1.11341l-0.13099,0.06549c-0.09824,-0.44754 -0.19648,-0.92238 -0.29472,-1.42451c-0.09824,-0.50213 -0.18011,-0.97696 -0.2456,-1.42451c-0.05458,-0.45846 -0.08187,-0.81868 -0.08187,-1.08066c0,-0.37113 0.06004,-0.65495 0.18011,-0.85143c0.12007,-0.2074 0.3111,-0.3111 0.57308,-0.3111c0.37113,0 0.67132,0.15828 0.90055,0.47484c0.22923,0.30564 0.42025,0.78048 0.57308,1.42451c0.1419,0.57854 0.26743,1.26623 0.37659,2.06308c0.10916,0.78594 0.19648,1.61008 0.26198,2.47243c0.07641,0.85143 0.11461,1.67012 0.11461,2.45605c0,1.09158 -0.06004,1.94301 -0.18011,2.55429c-0.10916,0.60037 -0.26743,1.02062 -0.47484,1.26077c-0.19648,0.24014 -0.43117,0.36022 -0.70407,0.36022c-0.33839,0 -0.56762,-0.16919 -0.6877,-0.50759c-0.12007,-0.33839 -0.16919,-0.88964 -0.14736,-1.65374h0.2456c-0.29472,0.67678 -0.7259,1.21711 -1.29352,1.621c-0.55671,0.40388 -1.21165,0.60583 -1.96484,0.60583zM283.47754,182.98002c0.39296,0 0.75319,-0.09824 1.08066,-0.29472c0.33839,-0.2074 0.60583,-0.52396 0.80231,-0.94967c0.2074,-0.42571 0.3111,-0.96605 0.3111,-1.621c0,-0.84052 -0.19102,-1.52275 -0.57308,-2.04671c-0.38205,-0.53488 -0.9333,-0.80231 -1.65374,-0.80231c-0.56762,0 -1.03154,0.23469 -1.39176,0.70407c-0.3493,0.46937 -0.52396,1.1789 -0.52396,2.12857c0,0.84052 0.17465,1.53367 0.52396,2.07945c0.36022,0.53488 0.83506,0.80231 1.42451,0.80231zM297.18093,184.68289c-0.29472,0 -0.52396,-0.09824 -0.6877,-0.29472c-0.15282,-0.2074 -0.25652,-0.46937 -0.3111,-0.78594c-0.05458,-0.32747 -0.08187,-0.67132 -0.08187,-1.03154l0.08187,-0.06549c-0.10916,0.46937 -0.32201,0.87326 -0.63858,1.21165c-0.31655,0.33839 -0.68224,0.60037 -1.09703,0.78594c-0.4148,0.17465 -0.8296,0.26198 -1.2444,0.26198c-0.55671,0 -1.06429,-0.13099 -1.52275,-0.39296c-0.45846,-0.26198 -0.81323,-0.66587 -1.06429,-1.21165c-0.25106,-0.57854 -0.44754,-1.30443 -0.58946,-2.17769c-0.1419,-0.88418 -0.21286,-1.79019 -0.21286,-2.71803c0,-0.50213 0.02183,-0.96605 0.06549,-1.39176c0.04366,-0.42571 0.11461,-0.77502 0.21286,-1.04791c0.08733,-0.28381 0.21831,-0.49121 0.39296,-0.6222c0.17465,-0.1419 0.39842,-0.21286 0.67132,-0.21286c0.31655,0 0.56217,0.12553 0.73682,0.37659c0.18557,0.24014 0.30018,0.57854 0.34384,1.01517c0.04366,0.36022 0.07095,0.80777 0.08187,1.34264c0.02183,0.52396 0.0382,1.05337 0.04912,1.58825c0.02183,0.52396 0.04912,0.96605 0.08187,1.32626c0.06549,0.65495 0.23469,1.1407 0.50759,1.45726c0.27289,0.30564 0.60583,0.45846 0.99879,0.45846c0.57854,0 1.02062,-0.21831 1.32626,-0.65495c0.30564,-0.43663 0.45846,-1.04791 0.45846,-1.83385c0,-0.39296 -0.02183,-0.83506 -0.06549,-1.32626c-0.04366,-0.50213 -0.09278,-0.98788 -0.14736,-1.45726c-0.04366,-0.46937 -0.06549,-0.85689 -0.06549,-1.16253c0,-0.51305 0.08733,-0.87872 0.26198,-1.09703c0.17465,-0.22923 0.4148,-0.34384 0.72044,-0.34384c0.26198,0 0.4803,0.07095 0.65495,0.21286c0.18557,0.1419 0.33293,0.33839 0.44208,0.58946c0.15282,0.32747 0.28381,0.77502 0.39296,1.34264c0.10916,0.56762 0.19648,1.21165 0.26198,1.93209c0.06549,0.72044 0.09824,1.47909 0.09824,2.27594c0,1.22256 -0.08187,2.13949 -0.2456,2.75078c-0.16373,0.60037 -0.453,0.90055 -0.8678,0.90055zM303.05361,174.92419h-0.32747c-0.03275,-0.4803 -0.02183,-0.9333 0.03275,-1.35901c0.05458,-0.43663 0.16919,-0.78594 0.34384,-1.04791c0.18557,-0.27289 0.44754,-0.40935 0.78594,-0.40935c0.30564,0 0.52942,0.09824 0.67132,0.29472c0.1419,0.19648 0.21286,0.46938 0.21286,0.81868c0,0.6877 -0.13099,1.27714 -0.39296,1.76836l-0.29472,-0.03275c0.58946,-0.2074 1.25531,-0.3111 1.99759,-0.3111c0.46937,0 0.84052,0.09278 1.11341,0.27835c0.28381,0.17465 0.42571,0.47484 0.42571,0.90055c0,0.40388 -0.16373,0.70953 -0.49121,0.91693c-0.32747,0.2074 -0.73682,0.3111 -1.22802,0.3111c-0.29472,0 -0.61129,-0.01092 -0.94967,-0.03275c-0.32747,-0.03275 -0.64949,-0.08187 -0.96605,-0.14736l0.27835,-0.34384c0.09824,0.4148 0.19102,0.88964 0.27835,1.42451c0.09824,0.52396 0.18557,1.06974 0.26198,1.63737c0.07641,0.56762 0.13645,1.11887 0.18011,1.65374c0.04366,0.53488 0.06549,1.01517 0.06549,1.44089c0,0.69861 -0.10916,1.24985 -0.32747,1.65374c-0.21831,0.40388 -0.54034,0.60583 -0.96605,0.60583c-0.33839,0 -0.60583,-0.1037 -0.80231,-0.3111c-0.18557,-0.2074 -0.32201,-0.46937 -0.40934,-0.78594c-0.07641,-0.32747 -0.12553,-0.66587 -0.14736,-1.01517c-0.01092,-0.3493 -0.01637,-0.66587 -0.01637,-0.94967c0,-0.4803 0.02183,-1.02062 0.06549,-1.621c0.04366,-0.61129 0.1037,-1.23894 0.18011,-1.88297c0.08733,-0.64403 0.18557,-1.26623 0.29472,-1.8666l0.32747,0.27835c-0.55671,0.28381 -1.2444,0.42571 -2.06308,0.42571c-0.50213,0 -0.88964,-0.09278 -1.16253,-0.27835c-0.27289,-0.18557 -0.40934,-0.47484 -0.40934,-0.8678c0,-0.42571 0.15282,-0.75319 0.45846,-0.98242c0.30564,-0.24014 0.71499,-0.36022 1.22802,-0.36022c0.33839,0 0.65495,0.02183 0.94967,0.06549c0.30564,0.03275 0.57308,0.07641 0.80231,0.13099zM315.42392,184.863c-0.67678,0 -1.23894,-0.12553 -1.68649,-0.37659c-0.43663,-0.26198 -0.76411,-0.66041 -0.98242,-1.19527c-0.15282,-0.37113 -0.26743,-0.81868 -0.34384,-1.34264c-0.06549,-0.53488 -0.09824,-1.14615 -0.09824,-1.83385c0,-1.1789 0.0382,-2.15041 0.11461,-2.91451c0.07641,-0.77502 0.18557,-1.39721 0.32747,-1.8666c0.15282,-0.4803 0.32201,-0.8678 0.50759,-1.16253c0.29472,-0.44754 0.76411,-0.80777 1.40813,-1.08066c0.64403,-0.27289 1.5555,-0.40934 2.7344,-0.40934c0.78594,0 1.41359,0.12007 1.88297,0.36022c0.4803,0.22923 0.82414,0.53488 1.03154,0.91693c0.21831,0.38205 0.32747,0.80777 0.32747,1.27714c0,0.74227 -0.21831,1.35355 -0.65495,1.83385c-0.43663,0.4803 -1.00971,0.86235 -1.71924,1.14615v0.06549c0.77502,0.08733 1.37538,0.33839 1.8011,0.75319c0.43663,0.40388 0.65495,0.98242 0.65495,1.73561c0,0.60037 -0.15282,1.15161 -0.45846,1.65374c-0.29472,0.49121 -0.69861,0.92238 -1.21165,1.29352c-0.50213,0.36022 -1.06974,0.64403 -1.70286,0.85143c-0.63312,0.19648 -1.27714,0.29472 -1.93209,0.29472zM315.9315,182.89816c0.52396,0 0.98788,-0.08733 1.39176,-0.26198c0.4148,-0.17465 0.73682,-0.40934 0.96605,-0.70407c0.24014,-0.30564 0.36022,-0.64949 0.36022,-1.03154c0,-0.4148 -0.20194,-0.75865 -0.60583,-1.03154c-0.39296,-0.28381 -1.00971,-0.42571 -1.85022,-0.42571c-0.56762,0 -1.02062,0.13645 -1.35901,0.40934c-0.32747,0.26198 -0.49121,0.71499 -0.49121,1.35901c0,0.61129 0.13099,1.04791 0.39296,1.30989c0.26198,0.25106 0.66041,0.37659 1.19527,0.37659zM315.99699,177.70771c0.74227,0 1.35901,-0.16373 1.85022,-0.49121c0.50213,-0.33839 0.75319,-0.77502 0.75319,-1.30989c0,-0.39296 -0.15828,-0.70953 -0.47484,-0.94967c-0.31655,-0.24014 -0.78048,-0.36022 -1.39176,-0.36022c-0.66587,0 -1.21165,0.13099 -1.63737,0.39296c-0.42571,0.26198 -0.63858,0.70953 -0.63858,1.34264c0,0.51305 0.13645,0.87326 0.40934,1.08066c0.28381,0.19648 0.66041,0.29472 1.12978,0.29472zM329.70039,184.94486c-0.37113,0 -0.62766,-0.1419 -0.76956,-0.42571c-0.13099,-0.29472 -0.2074,-0.75865 -0.22923,-1.39176l0.16373,0.08187c-0.61129,1.18982 -1.76836,1.78473 -3.47122,1.78473c-0.77502,0 -1.41905,-0.13645 -1.93209,-0.40934c-0.51305,-0.28381 -0.89509,-0.65495 -1.14615,-1.11341c-0.24014,-0.46937 -0.36022,-0.97696 -0.36022,-1.52275c0,-0.93876 0.32747,-1.68103 0.98242,-2.22681c0.65495,-0.55671 1.52275,-0.83506 2.60341,-0.83506c0.70953,0 1.32626,0.1037 1.85022,0.3111c0.52396,0.2074 0.9715,0.49667 1.34264,0.8678l-0.27835,-0.03275c-0.07641,-1.10249 -0.31655,-1.88843 -0.72044,-2.3578c-0.39296,-0.4803 -0.95513,-0.72044 -1.68649,-0.72044c-0.42571,0 -0.81868,0.06549 -1.1789,0.19648c-0.36022,0.13099 -0.69315,0.26743 -0.99879,0.40934c-0.29472,0.13099 -0.57308,0.19648 -0.83506,0.19648c-0.26198,0 -0.46937,-0.08733 -0.6222,-0.26198c-0.1419,-0.17465 -0.21286,-0.39842 -0.21286,-0.67132c0,-0.39296 0.18557,-0.76411 0.55671,-1.11341c0.38205,-0.3493 0.88418,-0.63312 1.50638,-0.85143c0.6222,-0.21831 1.29897,-0.32747 2.03033,-0.32747c0.88418,0 1.64283,0.21286 2.27594,0.63858c0.63312,0.42571 1.11341,1.04791 1.44089,1.8666c0.28381,0.69861 0.48576,1.47909 0.60583,2.34143c0.12007,0.86235 0.18011,1.78473 0.18011,2.76715c0,0.74227 -0.0382,1.31535 -0.11461,1.71924c-0.07641,0.40388 -0.19648,0.6877 -0.36022,0.85143c-0.15282,0.15282 -0.36022,0.22923 -0.6222,0.22923zM326.08181,183.11101c0.36022,0 0.7259,-0.04912 1.09703,-0.14736c0.37113,-0.10916 0.68224,-0.26743 0.9333,-0.47484c0.25106,-0.2074 0.37659,-0.46392 0.37659,-0.76956c0,-0.26198 -0.10916,-0.47484 -0.32747,-0.63858c-0.2074,-0.17465 -0.48576,-0.30564 -0.83506,-0.39296c-0.33839,-0.08733 -0.70407,-0.13099 -1.09703,-0.13099c-0.66587,0 -1.17344,0.11461 -1.52275,0.34384c-0.33839,0.22923 -0.50759,0.53488 -0.50759,0.91693c0,0.4148 0.15828,0.73682 0.47484,0.96605c0.32747,0.21831 0.79685,0.32747 1.40813,0.32747zM334.46375,174.59671c0.3493,0 0.584,0.1419 0.70407,0.42571c0.13099,0.28381 0.19648,0.70407 0.19648,1.26077c0,0.13099 -0.01092,0.27289 -0.03275,0.42571c-0.01092,0.1419 -0.03275,0.27289 -0.06549,0.39296l-0.03275,-0.32747c0.26198,-0.70953 0.66587,-1.26077 1.21165,-1.65374c0.54579,-0.40388 1.12432,-0.60583 1.73561,-0.60583c0.67678,0 1.23894,0.19102 1.68649,0.57308c0.45846,0.38205 0.79685,0.91693 1.01517,1.60462c0.22923,0.6877 0.34384,1.50092 0.34384,2.43968c0,0.57854 -0.02729,1.15161 -0.08187,1.71924c-0.04366,0.55671 -0.10916,1.06974 -0.19648,1.53913c-0.07641,0.45846 -0.16373,0.83506 -0.26198,1.12978c-0.13099,0.37113 -0.30018,0.64949 -0.50759,0.83506c-0.2074,0.17465 -0.453,0.26198 -0.73682,0.26198c-0.28381,0 -0.50213,-0.1037 -0.65495,-0.3111c-0.15282,-0.2074 -0.22923,-0.48576 -0.22923,-0.83506c0,-0.37113 0.02729,-0.81868 0.08187,-1.34264c0.05458,-0.53488 0.1037,-1.0752 0.14736,-1.621c0.05458,-0.55671 0.08187,-1.05883 0.08187,-1.50638c0,-1.52821 -0.50213,-2.29231 -1.50638,-2.29231c-0.53488,0 -0.98242,0.24014 -1.34264,0.72044c-0.36022,0.46937 -0.60037,1.1407 -0.72044,2.01396c-0.03275,0.29472 -0.04912,0.66041 -0.04912,1.09703c0,0.43663 0,0.87326 0,1.30989c0.01092,0.42571 0,0.78594 -0.03275,1.08066c-0.04366,0.65495 -0.16919,1.12432 -0.37659,1.40813c-0.19648,0.28381 -0.46937,0.42571 -0.81868,0.42571c-0.40388,0 -0.70953,-0.18557 -0.91693,-0.55671c-0.2074,-0.38205 -0.3111,-1.02062 -0.3111,-1.91572c0,-0.45846 0.01092,-0.9715 0.03275,-1.53913c0.02183,-0.56762 0.04912,-1.13524 0.08187,-1.70286c0.04366,-0.57854 0.09278,-1.10249 0.14736,-1.57188c0.10916,-0.88418 0.26743,-1.58279 0.47484,-2.09583c0.2074,-0.52396 0.5185,-0.78594 0.9333,-0.78594zM346.34694,184.51915c-1.02608,0 -1.86114,-0.39296 -2.50517,-1.1789c-0.64403,-0.79685 -0.96605,-2.00304 -0.96605,-3.61858c0,-1.72469 0.3111,-2.98546 0.9333,-3.78232c0.6222,-0.79685 1.44089,-1.19527 2.45605,-1.19527c0.60037,0 1.12978,0.15282 1.58825,0.45846c0.45846,0.30564 0.85143,0.73682 1.1789,1.29352l-0.13099,0.22923c-0.03275,-0.15282 -0.06004,-0.31655 -0.08187,-0.49121c-0.02183,-0.17465 -0.03275,-0.30564 -0.03275,-0.39296c0,-0.44754 0.07095,-0.7914 0.21286,-1.03154c0.15282,-0.25106 0.38751,-0.37659 0.70407,-0.37659c0.3493,0 0.6222,0.1419 0.81868,0.42571c0.2074,0.28381 0.36567,0.6877 0.47484,1.21165c0.1419,0.53488 0.26198,1.21711 0.36022,2.04671c0.09824,0.81868 0.14736,1.64828 0.14736,2.4888c0,1.04791 -0.0382,1.92663 -0.11461,2.63616c-0.07641,0.70953 -0.20194,1.29897 -0.37659,1.76836c-0.17465,0.46937 -0.40388,0.87872 -0.6877,1.22802c-0.46937,0.56762 -1.0752,0.99879 -1.81748,1.29352c-0.73136,0.30564 -1.57733,0.45846 -2.53792,0.45846c-0.6877,0 -1.23894,-0.06549 -1.65374,-0.19648c-0.4148,-0.12007 -0.71499,-0.28927 -0.90055,-0.50759c-0.17465,-0.2074 -0.26198,-0.44208 -0.26198,-0.70407c0,-0.27289 0.07641,-0.50213 0.22923,-0.6877c0.15282,-0.17465 0.38205,-0.26198 0.6877,-0.26198c0.27289,0 0.58946,0.04366 0.94967,0.13099c0.37113,0.08733 0.80777,0.13099 1.30989,0.13099c1.05883,0 1.80656,-0.25106 2.24319,-0.75319c0.44754,-0.49121 0.67132,-1.20073 0.67132,-2.12857c0,-0.25106 -0.01637,-0.54579 -0.04912,-0.88418l0.22923,0.08187c-0.27289,0.69861 -0.67678,1.26077 -1.21165,1.68649c-0.53488,0.4148 -1.15707,0.6222 -1.8666,0.6222zM346.96914,182.50519c0.3493,0 0.69861,-0.09278 1.04791,-0.27835c0.3493,-0.18557 0.63858,-0.49121 0.8678,-0.91693c0.22923,-0.42571 0.34384,-0.99879 0.34384,-1.71924c0,-0.86235 -0.20194,-1.56642 -0.60583,-2.1122c-0.40388,-0.54579 -0.9715,-0.81868 -1.70286,-0.81868c-0.63312,0 -1.09703,0.24014 -1.39176,0.72044c-0.29472,0.4803 -0.44208,1.20619 -0.44208,2.17769c0,0.92784 0.14736,1.65374 0.44208,2.17769c0.29472,0.51305 0.77502,0.76956 1.44089,0.76956zM360.86902,184.68289c-0.29472,0 -0.52396,-0.09824 -0.6877,-0.29472c-0.15282,-0.2074 -0.25652,-0.46937 -0.3111,-0.78594c-0.05458,-0.32747 -0.08187,-0.67132 -0.08187,-1.03154l0.08187,-0.06549c-0.10916,0.46937 -0.32201,0.87326 -0.63858,1.21165c-0.31655,0.33839 -0.68224,0.60037 -1.09703,0.78594c-0.4148,0.17465 -0.8296,0.26198 -1.2444,0.26198c-0.55671,0 -1.06429,-0.13099 -1.52275,-0.39296c-0.45846,-0.26198 -0.81323,-0.66587 -1.06429,-1.21165c-0.25106,-0.57854 -0.44754,-1.30443 -0.58946,-2.17769c-0.1419,-0.88418 -0.21286,-1.79019 -0.21286,-2.71803c0,-0.50213 0.02183,-0.96605 0.06549,-1.39176c0.04366,-0.42571 0.11461,-0.77502 0.21286,-1.04791c0.08733,-0.28381 0.21831,-0.49121 0.39296,-0.6222c0.17465,-0.1419 0.39842,-0.21286 0.67132,-0.21286c0.31655,0 0.56217,0.12553 0.73682,0.37659c0.18557,0.24014 0.30018,0.57854 0.34384,1.01517c0.04366,0.36022 0.07095,0.80777 0.08187,1.34264c0.02183,0.52396 0.0382,1.05337 0.04912,1.58825c0.02183,0.52396 0.04912,0.96605 0.08187,1.32626c0.06549,0.65495 0.23469,1.1407 0.50759,1.45726c0.27289,0.30564 0.60583,0.45846 0.99879,0.45846c0.57854,0 1.02062,-0.21831 1.32626,-0.65495c0.30564,-0.43663 0.45846,-1.04791 0.45846,-1.83385c0,-0.39296 -0.02183,-0.83506 -0.06549,-1.32626c-0.04366,-0.50213 -0.09278,-0.98788 -0.14736,-1.45726c-0.04366,-0.46937 -0.06549,-0.85689 -0.06549,-1.16253c0,-0.51305 0.08733,-0.87872 0.26198,-1.09703c0.17465,-0.22923 0.4148,-0.34384 0.72044,-0.34384c0.26198,0 0.4803,0.07095 0.65495,0.21286c0.18557,0.1419 0.33293,0.33839 0.44208,0.58946c0.15282,0.32747 0.28381,0.77502 0.39296,1.34264c0.10916,0.56762 0.19648,1.21165 0.26198,1.93209c0.06549,0.72044 0.09824,1.47909 0.09824,2.27594c0,1.22256 -0.08187,2.13949 -0.2456,2.75078c-0.16373,0.60037 -0.453,0.90055 -0.8678,0.90055zM365.64467,174.59671c0.3493,0 0.584,0.1419 0.70407,0.42571c0.13099,0.28381 0.19648,0.70407 0.19648,1.26077c0,0.13099 -0.01092,0.27289 -0.03275,0.42571c-0.01092,0.1419 -0.03275,0.27289 -0.06549,0.39296l-0.03275,-0.32747c0.26198,-0.70953 0.66587,-1.26077 1.21165,-1.65374c0.54579,-0.40388 1.12432,-0.60583 1.73561,-0.60583c0.67678,0 1.23894,0.19102 1.68649,0.57308c0.45846,0.38205 0.79685,0.91693 1.01517,1.60462c0.22923,0.6877 0.34384,1.50092 0.34384,2.43968c0,0.57854 -0.02729,1.15161 -0.08187,1.71924c-0.04366,0.55671 -0.10916,1.06974 -0.19648,1.53913c-0.07641,0.45846 -0.16373,0.83506 -0.26198,1.12978c-0.13099,0.37113 -0.30018,0.64949 -0.50759,0.83506c-0.2074,0.17465 -0.453,0.26198 -0.73682,0.26198c-0.28381,0 -0.50213,-0.1037 -0.65495,-0.3111c-0.15282,-0.2074 -0.22923,-0.48576 -0.22923,-0.83506c0,-0.37113 0.02729,-0.81868 0.08187,-1.34264c0.05458,-0.53488 0.1037,-1.0752 0.14736,-1.621c0.05458,-0.55671 0.08187,-1.05883 0.08187,-1.50638c0,-1.52821 -0.50213,-2.29231 -1.50638,-2.29231c-0.53488,0 -0.98242,0.24014 -1.34264,0.72044c-0.36022,0.46937 -0.60037,1.1407 -0.72044,2.01396c-0.03275,0.29472 -0.04912,0.66041 -0.04912,1.09703c0,0.43663 0,0.87326 0,1.30989c0.01092,0.42571 0,0.78594 -0.03275,1.08066c-0.04366,0.65495 -0.16919,1.12432 -0.37659,1.40813c-0.19648,0.28381 -0.46937,0.42571 -0.81868,0.42571c-0.40388,0 -0.70953,-0.18557 -0.91693,-0.55671c-0.2074,-0.38205 -0.3111,-1.02062 -0.3111,-1.91572c0,-0.45846 0.01092,-0.9715 0.03275,-1.53913c0.02183,-0.56762 0.04912,-1.13524 0.08187,-1.70286c0.04366,-0.57854 0.09278,-1.10249 0.14736,-1.57188c0.10916,-0.88418 0.26743,-1.58279 0.47484,-2.09583c0.2074,-0.52396 0.5185,-0.78594 0.9333,-0.78594zM379.97026,185.15773c-0.6877,0 -1.22256,-0.04366 -1.60462,-0.13099c-0.37113,-0.08733 -0.62766,-0.2074 -0.76956,-0.36022c-0.1419,-0.16373 -0.21831,-0.34384 -0.22923,-0.54034c0,-0.30564 0.18011,-0.56217 0.54034,-0.76956c0.37113,-0.2074 1.04791,-0.33839 2.03033,-0.39296l-0.26198,0.3111c-0.12007,-0.55671 -0.2074,-1.20619 -0.26198,-1.94847c-0.05458,-0.74227 -0.07641,-1.51184 -0.06549,-2.30868c0.01092,-0.79685 0.04912,-1.5555 0.11461,-2.27594c0.06549,-0.73136 0.15828,-1.35355 0.27835,-1.8666l1.42451,-0.09824c-0.24014,0.09824 -0.54034,0.18557 -0.90055,0.26198c-0.36022,0.06549 -0.73136,0.09824 -1.11341,0.09824c-0.69861,0 -1.21711,-0.07641 -1.5555,-0.22923c-0.32747,-0.15282 -0.49121,-0.36567 -0.49121,-0.63858c0,-0.4803 0.28927,-0.85143 0.8678,-1.11341c0.58946,-0.27289 1.49001,-0.40934 2.70166,-0.40934c1.44089,0 2.65254,0.24014 3.63495,0.72044c0.99334,0.46937 1.74653,1.12978 2.25956,1.98121c0.51305,0.84052 0.76956,1.82294 0.76956,2.94726c0,0.98242 -0.17465,1.88843 -0.52396,2.71803c-0.3493,0.81868 -0.85143,1.53367 -1.50638,2.14495c-0.64403,0.60037 -1.41905,1.06974 -2.32506,1.40813c-0.89509,0.32747 -1.89934,0.49121 -3.01275,0.49121zM382.29533,182.63618c0.37113,0 0.76411,-0.14736 1.1789,-0.44208c0.42571,-0.30564 0.78594,-0.74773 1.08066,-1.32626c0.29472,-0.58946 0.44208,-1.31535 0.44208,-2.17769c0,-0.63312 -0.09278,-1.18436 -0.27835,-1.65374c-0.17465,-0.4803 -0.40388,-0.87872 -0.6877,-1.19527c-0.28381,-0.31655 -0.584,-0.55125 -0.90055,-0.70407c-0.31655,-0.16373 -0.61674,-0.2456 -0.90055,-0.2456c-0.22923,0 -0.40934,0.1419 -0.54034,0.42571c-0.12007,0.28381 -0.2074,0.70953 -0.26198,1.27714c-0.05458,0.55671 -0.08187,1.24985 -0.08187,2.07945c0,1.28806 0.06549,2.27048 0.19648,2.94726c0.13099,0.67678 0.38205,1.01517 0.75319,1.01517zM396.29753,184.94486c-0.37113,0 -0.62766,-0.1419 -0.76956,-0.42571c-0.13099,-0.29472 -0.2074,-0.75865 -0.22923,-1.39176l0.16373,0.08187c-0.61129,1.18982 -1.76836,1.78473 -3.47122,1.78473c-0.77502,0 -1.41905,-0.13645 -1.93209,-0.40934c-0.51305,-0.28381 -0.89509,-0.65495 -1.14615,-1.11341c-0.24014,-0.46937 -0.36022,-0.97696 -0.36022,-1.52275c0,-0.93876 0.32747,-1.68103 0.98242,-2.22681c0.65495,-0.55671 1.52275,-0.83506 2.60341,-0.83506c0.70953,0 1.32626,0.1037 1.85022,0.3111c0.52396,0.2074 0.9715,0.49667 1.34264,0.8678l-0.27835,-0.03275c-0.07641,-1.10249 -0.31655,-1.88843 -0.72044,-2.3578c-0.39296,-0.4803 -0.95513,-0.72044 -1.68649,-0.72044c-0.42571,0 -0.81868,0.06549 -1.1789,0.19648c-0.36022,0.13099 -0.69315,0.26743 -0.99879,0.40934c-0.29472,0.13099 -0.57308,0.19648 -0.83506,0.19648c-0.26198,0 -0.46937,-0.08733 -0.6222,-0.26198c-0.1419,-0.17465 -0.21286,-0.39842 -0.21286,-0.67132c0,-0.39296 0.18557,-0.76411 0.55671,-1.11341c0.38205,-0.3493 0.88418,-0.63312 1.50638,-0.85143c0.6222,-0.21831 1.29897,-0.32747 2.03033,-0.32747c0.88418,0 1.64283,0.21286 2.27594,0.63858c0.63312,0.42571 1.11341,1.04791 1.44089,1.8666c0.28381,0.69861 0.48576,1.47909 0.60583,2.34143c0.12007,0.86235 0.18011,1.78473 0.18011,2.76715c0,0.74227 -0.0382,1.31535 -0.11461,1.71924c-0.07641,0.40388 -0.19648,0.6877 -0.36022,0.85143c-0.15282,0.15282 -0.36022,0.22923 -0.6222,0.22923zM392.67895,183.11101c0.36022,0 0.7259,-0.04912 1.09703,-0.14736c0.37113,-0.10916 0.68224,-0.26743 0.9333,-0.47484c0.25106,-0.2074 0.37659,-0.46392 0.37659,-0.76956c0,-0.26198 -0.10916,-0.47484 -0.32747,-0.63858c-0.2074,-0.17465 -0.48576,-0.30564 -0.83506,-0.39296c-0.33839,-0.08733 -0.70407,-0.13099 -1.09703,-0.13099c-0.66587,0 -1.17344,0.11461 -1.52275,0.34384c-0.33839,0.22923 -0.50759,0.53488 -0.50759,0.91693c0,0.4148 0.15828,0.73682 0.47484,0.96605c0.32747,0.21831 0.79685,0.32747 1.40813,0.32747zM401.664,174.92419h-0.32747c-0.03275,-0.4803 -0.02183,-0.9333 0.03275,-1.35901c0.05458,-0.43663 0.16919,-0.78594 0.34384,-1.04791c0.18557,-0.27289 0.44754,-0.40935 0.78594,-0.40935c0.30564,0 0.52942,0.09824 0.67132,0.29472c0.1419,0.19648 0.21286,0.46938 0.21286,0.81868c0,0.6877 -0.13099,1.27714 -0.39296,1.76836l-0.29472,-0.03275c0.58946,-0.2074 1.25531,-0.3111 1.99759,-0.3111c0.46937,0 0.84052,0.09278 1.11341,0.27835c0.28381,0.17465 0.42571,0.47484 0.42571,0.90055c0,0.40388 -0.16373,0.70953 -0.49121,0.91693c-0.32747,0.2074 -0.73682,0.3111 -1.22802,0.3111c-0.29472,0 -0.61129,-0.01092 -0.94967,-0.03275c-0.32747,-0.03275 -0.64949,-0.08187 -0.96605,-0.14736l0.27835,-0.34384c0.09824,0.4148 0.19102,0.88964 0.27835,1.42451c0.09824,0.52396 0.18557,1.06974 0.26198,1.63737c0.07641,0.56762 0.13645,1.11887 0.18011,1.65374c0.04366,0.53488 0.06549,1.01517 0.06549,1.44089c0,0.69861 -0.10916,1.24985 -0.32747,1.65374c-0.21831,0.40388 -0.54034,0.60583 -0.96605,0.60583c-0.33839,0 -0.60583,-0.1037 -0.80231,-0.3111c-0.18557,-0.2074 -0.32201,-0.46937 -0.40934,-0.78594c-0.07641,-0.32747 -0.12553,-0.66587 -0.14736,-1.01517c-0.01092,-0.3493 -0.01637,-0.66587 -0.01637,-0.94967c0,-0.4803 0.02183,-1.02062 0.06549,-1.621c0.04366,-0.61129 0.1037,-1.23894 0.18011,-1.88297c0.08733,-0.64403 0.18557,-1.26623 0.29472,-1.8666l0.32747,0.27835c-0.55671,0.28381 -1.2444,0.42571 -2.06308,0.42571c-0.50213,0 -0.88964,-0.09278 -1.16253,-0.27835c-0.27289,-0.18557 -0.40934,-0.47484 -0.40934,-0.8678c0,-0.42571 0.15282,-0.75319 0.45846,-0.98242c0.30564,-0.24014 0.71499,-0.36022 1.22802,-0.36022c0.33839,0 0.65495,0.02183 0.94967,0.06549c0.30564,0.03275 0.57308,0.07641 0.80231,0.13099zM414.7179,184.94486c-0.37113,0 -0.62766,-0.1419 -0.76956,-0.42571c-0.13099,-0.29472 -0.2074,-0.75865 -0.22923,-1.39176l0.16373,0.08187c-0.61129,1.18982 -1.76836,1.78473 -3.47122,1.78473c-0.77502,0 -1.41905,-0.13645 -1.93209,-0.40934c-0.51305,-0.28381 -0.89509,-0.65495 -1.14615,-1.11341c-0.24014,-0.46937 -0.36022,-0.97696 -0.36022,-1.52275c0,-0.93876 0.32747,-1.68103 0.98242,-2.22681c0.65495,-0.55671 1.52275,-0.83506 2.60341,-0.83506c0.70953,0 1.32626,0.1037 1.85022,0.3111c0.52396,0.2074 0.9715,0.49667 1.34264,0.8678l-0.27835,-0.03275c-0.07641,-1.10249 -0.31655,-1.88843 -0.72044,-2.3578c-0.39296,-0.4803 -0.95513,-0.72044 -1.68649,-0.72044c-0.42571,0 -0.81868,0.06549 -1.1789,0.19648c-0.36022,0.13099 -0.69315,0.26743 -0.99879,0.40934c-0.29472,0.13099 -0.57308,0.19648 -0.83506,0.19648c-0.26198,0 -0.46937,-0.08733 -0.6222,-0.26198c-0.1419,-0.17465 -0.21286,-0.39842 -0.21286,-0.67132c0,-0.39296 0.18557,-0.76411 0.55671,-1.11341c0.38205,-0.3493 0.88418,-0.63312 1.50638,-0.85143c0.6222,-0.21831 1.29897,-0.32747 2.03033,-0.32747c0.88418,0 1.64283,0.21286 2.27594,0.63858c0.63312,0.42571 1.11341,1.04791 1.44089,1.8666c0.28381,0.69861 0.48576,1.47909 0.60583,2.34143c0.12007,0.86235 0.18011,1.78473 0.18011,2.76715c0,0.74227 -0.0382,1.31535 -0.11461,1.71924c-0.07641,0.40388 -0.19648,0.6877 -0.36022,0.85143c-0.15282,0.15282 -0.36022,0.22923 -0.6222,0.22923zM411.09932,183.11101c0.36022,0 0.7259,-0.04912 1.09703,-0.14736c0.37113,-0.10916 0.68224,-0.26743 0.9333,-0.47484c0.25106,-0.2074 0.37659,-0.46392 0.37659,-0.76956c0,-0.26198 -0.10916,-0.47484 -0.32747,-0.63858c-0.2074,-0.17465 -0.48576,-0.30564 -0.83506,-0.39296c-0.33839,-0.08733 -0.70407,-0.13099 -1.09703,-0.13099c-0.66587,0 -1.17344,0.11461 -1.52275,0.34384c-0.33839,0.22923 -0.50759,0.53488 -0.50759,0.91693c0,0.4148 0.15828,0.73682 0.47484,0.96605c0.32747,0.21831 0.79685,0.32747 1.40813,0.32747zM417.81253,177.3966c0,-1.04791 0.09824,-1.8011 0.29472,-2.25956c0.19648,-0.46937 0.47484,-0.70407 0.83506,-0.70407c0.28381,0 0.50759,0.12007 0.67132,0.36022c0.16373,0.22923 0.28381,0.5185 0.36022,0.8678c0.07641,0.33839 0.11461,0.68224 0.11461,1.03154l-0.08187,-0.03275c0.18557,-0.58946 0.46937,-1.09703 0.85143,-1.52275c0.39296,-0.42571 0.86235,-0.63858 1.40813,-0.63858c0.64403,0 1.11887,0.26743 1.42451,0.80231c0.30564,0.52396 0.45846,1.1789 0.45846,1.96484c0,1.04791 -0.12007,1.77927 -0.36022,2.19407c-0.24014,0.4148 -0.56217,0.6222 -0.96605,0.6222c-0.29472,0 -0.51305,-0.12007 -0.65495,-0.36022c-0.13099,-0.24014 -0.17465,-0.66587 -0.13099,-1.27714c0.04366,-0.64403 0.00546,-1.09158 -0.11461,-1.34264c-0.12007,-0.25106 -0.3111,-0.37659 -0.57308,-0.37659c-0.31655,0 -0.57854,0.20194 -0.78594,0.60583c-0.19648,0.39296 -0.29472,0.87872 -0.29472,1.45726c0,0.22923 0.02729,0.5185 0.08187,0.8678c0.05458,0.3493 0.11461,0.73136 0.18011,1.14615c0.06549,0.40388 0.12553,0.80777 0.18011,1.21165c0.05458,0.40388 0.08187,0.77502 0.08187,1.11341c0,0.60037 -0.09278,1.03154 -0.27835,1.29352c-0.18557,0.26198 -0.44754,0.39296 -0.78594,0.39296c-0.38205,0 -0.67678,-0.12007 -0.88418,-0.36022c-0.2074,-0.25106 -0.36567,-0.65495 -0.47484,-1.21165c-0.08733,-0.50213 -0.17465,-1.09703 -0.26198,-1.78473c-0.08733,-0.6877 -0.15828,-1.39176 -0.21286,-2.1122c-0.05458,-0.72044 -0.08187,-1.36993 -0.08187,-1.94847z"/></g></g></svg>