<svg version="1.1" xmlns="http://www.w3.org/2000/svg" xmlns:xlink="http://www.w3.org/1999/xlink" width="261.32983" height="16.95203" viewBox="0,0,261.32983,16.95203"><g transform="translate(-109.33509,-171.52399)"><g data-paper-data="{&quot;isPaintingLayer&quot;:true}" fill="#000000" fill-rule="nonzero" stroke="none" stroke-width="1" stroke-linecap="butt" stroke-linejoin="miter" stroke-miterlimit="10" stroke-dasharray="" stroke-dashoffset="0" style="mix-blend-mode: normal"><path d="M110.45504,185.11615c-0.20363,0 -0.36766,-0.06788 -0.4921,-0.20363c-0.12444,-0.14702 -0.22626,-0.37901 -0.30544,-0.69573c-0.07918,-0.36205 -0.15272,-0.9276 -0.2206,-1.6969c-0.06788,-0.78057 -0.10181,-1.65165 -0.10181,-2.61323c0,-1.04077 0.02828,-2.05325 0.08484,-3.03745c0.06788,-0.99551 0.16403,-1.87225 0.28847,-2.63019c0.09051,-0.49776 0.2206,-0.86542 0.39029,-1.10298c0.181,-0.24887 0.42989,-0.37332 0.74664,-0.37332c0.20363,0 0.38463,0.06788 0.54301,0.20363c0.15838,0.13575 0.27716,0.37898 0.35635,0.72967c0.09051,0.35069 0.13575,0.84845 0.13575,1.49327c0,0.31675 -0.01131,0.67876 -0.03394,1.08602c-0.02263,0.39595 -0.05657,0.83714 -0.10181,1.32358h0.06788c0.90502,-1.2444 1.70256,-2.23425 2.39263,-2.96957c0.69007,-0.74664 1.2953,-1.28398 1.81568,-1.61205c0.5317,-0.32807 0.99551,-0.4921 1.39146,-0.4921c0.31675,0 0.55432,0.10181 0.7127,0.30544c0.16969,0.20363 0.25453,0.4525 0.25453,0.74664c0,0.62219 -0.46947,1.36883 -1.40843,2.23991c-0.92763,0.87108 -2.42657,1.9175 -4.49678,3.13926l0.13575,-0.32241c1.78741,1.13126 3.13926,2.13243 4.05559,3.00351c0.91633,0.85976 1.37449,1.62333 1.37449,2.29081c0,0.29417 -0.09615,0.53731 -0.28847,0.72967c-0.181,0.18096 -0.4525,0.2715 -0.81451,0.2715c-0.4525,0 -0.93329,-0.15272 -1.44236,-0.45816c-0.50907,-0.31671 -1.07471,-0.84275 -1.6969,-1.57812c-0.61088,-0.74664 -1.30661,-1.75912 -2.08719,-3.03745h-0.06788c0.02263,0.2602 0.0396,0.5317 0.05091,0.81451c0.01131,0.2715 0.01697,0.54301 0.01697,0.81451c0,1.30092 -0.09051,2.23421 -0.2715,2.79988c-0.181,0.55428 -0.50907,0.83148 -0.9842,0.83148zM124.57409,185.08221c-1.25571,0 -2.25688,-0.18666 -3.00351,-0.55998c-0.74664,-0.37332 -1.28404,-0.91063 -1.6121,-1.61205c-0.32807,-0.70139 -0.4921,-1.53852 -0.4921,-2.51141c0,-1.23308 0.22625,-2.27951 0.67876,-3.13926c0.46379,-0.87108 1.09734,-1.53852 1.90058,-2.00234c0.81451,-0.46382 1.73641,-0.69573 2.76595,-0.69573c1.21037,0 2.09846,0.28281 2.66413,0.84845c0.56555,0.55432 0.84845,1.28398 0.84845,2.189c0,0.72401 -0.19236,1.35186 -0.57695,1.88356c-0.37332,0.52038 -0.89378,0.92199 -1.56115,1.2048c-0.66749,0.28281 -1.43679,0.42422 -2.30778,0.42422c-0.48653,0 -0.95596,-0.06222 -1.40843,-0.18666c-0.45259,-0.12444 -0.85984,-0.29413 -1.22177,-0.50907l0.40726,-0.74664c-0.03394,0.2715 -0.05091,0.54301 -0.05091,0.81451c0,0.79188 0.24884,1.36318 0.74664,1.71387c0.49768,0.33938 1.2048,0.50907 2.12112,0.50907c0.7127,0 1.28395,-0.06218 1.71387,-0.18666c0.4298,-0.12444 0.79185,-0.24323 1.08602,-0.35635c0.29405,-0.12444 0.58252,-0.18666 0.86542,-0.18666c0.1583,0 0.29975,0.04525 0.42422,0.13575c0.13575,0.07918 0.24314,0.19797 0.32241,0.35635c0.09042,0.15842 0.13575,0.35065 0.13575,0.57695c0,0.33938 -0.16969,0.66749 -0.50907,0.9842c-0.33938,0.30544 -0.84287,0.55998 -1.51024,0.7636c-0.65622,0.19236 -1.46503,0.28847 -2.42657,0.28847zM123.58989,179.53335c0.80312,0 1.44794,-0.16969 1.93447,-0.50907c0.4864,-0.33938 0.72967,-0.75794 0.72967,-1.25571c0,-0.39595 -0.13575,-0.71836 -0.40726,-0.96723c-0.26023,-0.2602 -0.67318,-0.39029 -1.23874,-0.39029c-0.53174,0 -1.01256,0.10181 -1.44236,0.30544c-0.41865,0.19232 -0.74664,0.44685 -0.9842,0.7636c-0.23757,0.31675 -0.35635,0.66179 -0.35635,1.03511c0,0.32807 0.15272,0.58261 0.45816,0.7636c0.31671,0.16969 0.75221,0.25453 1.30661,0.25453zM132.34383,184.9804c-0.35065,0 -0.62785,-0.07915 -0.83148,-0.23757c-0.20363,-0.16969 -0.36762,-0.44689 -0.4921,-0.83148c-0.16969,-0.56567 -0.29975,-1.27837 -0.39029,-2.13809c-0.07915,-0.87108 -0.11878,-1.94013 -0.11878,-3.20714c0,-0.78057 0.02824,-1.56115 0.08484,-2.34172c0.06788,-0.79188 0.15272,-1.51024 0.25453,-2.15506c0.10181,-0.65613 0.20932,-1.1652 0.32241,-1.52721c0.12448,-0.38463 0.2715,-0.65048 0.44119,-0.79754c0.16969,-0.14707 0.36205,-0.2206 0.57695,-0.2206c0.22629,0 0.40726,0.07919 0.54301,0.23757c0.13575,0.14706 0.24326,0.41292 0.32241,0.79754c0.06788,0.37332 0.11878,0.83148 0.15272,1.37449c0.04521,0.54301 0.06788,1.12561 0.06788,1.74781c0,0.84845 -0.03963,1.74215 -0.11878,2.6811c-0.07915,0.93896 -0.18666,1.86093 -0.32241,2.76595c-0.12448,0.90502 -0.2772,1.73653 -0.45816,2.49444l-0.47513,-0.23757c0.29417,-0.36205 0.62785,-0.64482 1.00117,-0.84845c0.38459,-0.20363 0.73536,-0.30544 1.05208,-0.30544c0.26023,0 0.45816,0.07354 0.59391,0.2206c0.14702,0.13575 0.2206,0.35065 0.2206,0.64482c0,0.29417 -0.13006,0.58822 -0.39029,0.88239c-0.24884,0.29417 -0.55998,0.53731 -0.93329,0.72967c-0.37332,0.18096 -0.74094,0.2715 -1.10298,0.2715zM137.80446,171.93124c0.45247,0 0.77488,0.12444 0.96723,0.37332c0.20363,0.24887 0.30544,0.53735 0.30544,0.86542c0,0.40726 -0.12448,0.72401 -0.37332,0.95026c-0.23757,0.21494 -0.57695,0.32241 -1.01814,0.32241c-0.42992,0 -0.75233,-0.11878 -0.96723,-0.35635c-0.21502,-0.24887 -0.32241,-0.53735 -0.32241,-0.86542c0,-0.42989 0.13006,-0.7523 0.39029,-0.96723c0.26011,-0.21494 0.59949,-0.32241 1.01814,-0.32241zM137.90627,175.71533c0.36192,0 0.64482,0.33938 0.84845,1.01814c0.2149,0.67876 0.32241,1.75912 0.32241,3.24108c0,1.82134 -0.13018,3.13357 -0.39029,3.93681c-0.26023,0.80324 -0.65622,1.2048 -1.18783,1.2048c-0.40726,0 -0.70712,-0.29417 -0.89936,-0.88239c-0.19236,-0.59961 -0.28847,-1.6403 -0.28847,-3.1223c0,-1.82134 0.14702,-3.1732 0.44119,-4.05559c0.30544,-0.8937 0.69003,-1.34055 1.15389,-1.34055zM142.98267,184.9804c-0.35077,0 -0.62785,-0.07915 -0.83148,-0.23757c-0.20363,-0.16969 -0.36774,-0.44689 -0.4921,-0.83148c-0.16969,-0.56567 -0.29987,-1.27837 -0.39029,-2.13809c-0.07927,-0.87108 -0.11878,-1.94013 -0.11878,-3.20714c0,-0.78057 0.02824,-1.56115 0.08484,-2.34172c0.06788,-0.79188 0.15272,-1.51024 0.25453,-2.15506c0.10181,-0.65613 0.2092,-1.1652 0.32241,-1.52721c0.12436,-0.38463 0.2715,-0.65048 0.44119,-0.79754c0.16969,-0.14707 0.36192,-0.2206 0.57695,-0.2206c0.22617,0 0.40726,0.07919 0.54301,0.23757c0.13575,0.14706 0.24314,0.41292 0.32241,0.79754c0.06788,0.37332 0.11878,0.83148 0.15272,1.37449c0.04521,0.54301 0.06788,1.12561 0.06788,1.74781c0,0.84845 -0.03963,1.74215 -0.11878,2.6811c-0.07927,0.93896 -0.18666,1.86093 -0.32241,2.76595c-0.12448,0.90502 -0.2772,1.73653 -0.45816,2.49444l-0.47513,-0.23757c0.29405,-0.36205 0.62785,-0.64482 1.00117,-0.84845c0.38459,-0.20363 0.73524,-0.30544 1.05208,-0.30544c0.26011,0 0.45816,0.07354 0.59391,0.2206c0.14702,0.13575 0.2206,0.35065 0.2206,0.64482c0,0.29417 -0.13018,0.58822 -0.39029,0.88239c-0.24896,0.29417 -0.55998,0.53731 -0.93329,0.72967c-0.37332,0.18096 -0.74106,0.2715 -1.10298,0.2715zM148.44317,171.93124c0.45247,0 0.77488,0.12444 0.96723,0.37332c0.20363,0.24887 0.30544,0.53735 0.30544,0.86542c0,0.40726 -0.12448,0.72401 -0.37332,0.95026c-0.23757,0.21494 -0.57695,0.32241 -1.01814,0.32241c-0.42992,0 -0.75233,-0.11878 -0.96723,-0.35635c-0.2149,-0.24887 -0.32241,-0.53735 -0.32241,-0.86542c0,-0.42989 0.13006,-0.7523 0.39029,-0.96723c0.26023,-0.21494 0.59961,-0.32241 1.01814,-0.32241zM148.54498,175.71533c0.36205,0 0.64482,0.33938 0.84845,1.01814c0.2149,0.67876 0.32241,1.75912 0.32241,3.24108c0,1.82134 -0.13006,3.13357 -0.39029,3.93681c-0.26023,0.80324 -0.65609,1.2048 -1.18783,1.2048c-0.40726,0 -0.707,-0.29417 -0.89936,-0.88239c-0.19236,-0.59961 -0.28847,-1.6403 -0.28847,-3.1223c0,-1.82134 0.14702,-3.1732 0.44119,-4.05559c0.30544,-0.8937 0.69003,-1.34055 1.15389,-1.34055zM153.51957,174.39175c0.36205,0 0.60519,0.14706 0.72967,0.44119c0.13575,0.29413 0.20363,0.72967 0.20363,1.30661c0,0.13575 -0.01127,0.28281 -0.03394,0.44119c-0.01127,0.14706 -0.03394,0.28281 -0.06788,0.40726l-0.03394,-0.33938c0.2715,-0.73533 0.69003,-1.30661 1.25571,-1.71387c0.56567,-0.41856 1.16516,-0.62785 1.79871,-0.62785c0.70143,0 1.28395,0.19797 1.74781,0.59391c0.47513,0.39595 0.82578,0.95026 1.05208,1.66296c0.23757,0.7127 0.35635,1.55549 0.35635,2.52838c0,0.59958 -0.02824,1.19349 -0.08484,1.78174c-0.04521,0.57695 -0.11309,1.10865 -0.20363,1.59509c-0.07915,0.47513 -0.16969,0.86542 -0.2715,1.17086c-0.13575,0.38459 -0.31114,0.67306 -0.52604,0.86542c-0.2149,0.18096 -0.46944,0.2715 -0.7636,0.2715c-0.29417,0 -0.52034,-0.10751 -0.67876,-0.32241c-0.15842,-0.2149 -0.23757,-0.50337 -0.23757,-0.86542c0,-0.38459 0.02824,-0.84845 0.08484,-1.39146c0.0566,-0.55432 0.10751,-1.11429 0.15272,-1.67993c0.0566,-0.57695 0.08484,-1.09732 0.08484,-1.56115c0,-1.58378 -0.52034,-2.37566 -1.56115,-2.37566c-0.55428,0 -1.01814,0.24887 -1.39146,0.74664c-0.37332,0.48644 -0.62216,1.18217 -0.74664,2.08719c-0.03394,0.30544 -0.05091,0.68442 -0.05091,1.13692c0,0.4525 0,0.90502 0,1.35752c0.01127,0.44119 0,0.81451 -0.03394,1.11995c-0.04521,0.67876 -0.17539,1.16516 -0.39029,1.45933c-0.20363,0.29417 -0.4864,0.44119 -0.84845,0.44119c-0.41853,0 -0.73536,-0.19236 -0.95026,-0.57695c-0.2149,-0.39598 -0.32241,-1.05777 -0.32241,-1.98537c0,-0.47513 0.01127,-1.00683 0.03394,-1.59509c0.02267,-0.58825 0.05091,-1.17652 0.08484,-1.76478c0.04521,-0.59958 0.09612,-1.14258 0.15272,-1.62902c0.11309,-0.91633 0.2772,-1.64033 0.4921,-2.17203c0.2149,-0.54301 0.53731,-0.81451 0.96723,-0.81451zM165.83433,184.67496c-1.06347,0 -1.92889,-0.40726 -2.59626,-1.22177c-0.66749,-0.82578 -1.00117,-2.07588 -1.00117,-3.75015c0,-1.78741 0.32241,-3.09402 0.96723,-3.91984c0.64482,-0.82582 1.49327,-1.23874 2.54535,-1.23874c0.62216,0 1.17086,0.15838 1.64599,0.47513c0.47513,0.31675 0.88239,0.7636 1.22177,1.34055l-0.13575,0.23757c-0.03394,-0.15838 -0.0623,-0.32807 -0.08484,-0.50907c-0.02267,-0.181 -0.03394,-0.31675 -0.03394,-0.40726c0,-0.46382 0.07345,-0.82017 0.2206,-1.06905c0.1583,-0.2602 0.40156,-0.39029 0.72967,-0.39029c0.36192,0 0.64482,0.14706 0.84845,0.44119c0.2149,0.29413 0.37889,0.7127 0.4921,1.25571c0.14702,0.55432 0.2715,1.26137 0.37332,2.12112c0.10181,0.84845 0.15272,1.70821 0.15272,2.57929c0,1.08602 -0.03963,1.99664 -0.11878,2.73201c-0.07927,0.73536 -0.20932,1.34625 -0.39029,1.83265c-0.18108,0.4864 -0.41865,0.91063 -0.7127,1.27267c-0.48653,0.58822 -1.11438,1.03511 -1.88356,1.34055c-0.75803,0.31671 -1.63472,0.47513 -2.63019,0.47513c-0.7127,0 -1.28407,-0.06788 -1.71387,-0.20363c-0.42992,-0.12448 -0.74106,-0.29975 -0.93329,-0.52604c-0.18108,-0.2149 -0.2715,-0.45816 -0.2715,-0.72967c0,-0.28278 0.07915,-0.52034 0.23757,-0.7127c0.1583,-0.18096 0.39586,-0.2715 0.7127,-0.2715c0.28278,0 0.61088,0.04521 0.9842,0.13575c0.38459,0.09054 0.83706,0.13575 1.35752,0.13575c1.09729,0 1.87217,-0.26023 2.32475,-0.78057c0.46374,-0.50907 0.69573,-1.24443 0.69573,-2.20597c0,-0.26023 -0.01697,-0.56567 -0.05091,-0.91633l0.23757,0.08484c-0.2829,0.72397 -0.70143,1.30661 -1.25571,1.74781c-0.5544,0.42992 -1.19922,0.64482 -1.93447,0.64482zM166.47915,182.58777c0.36192,0 0.72397,-0.09615 1.08602,-0.28847c0.36192,-0.19232 0.66179,-0.50907 0.89936,-0.95026c0.23757,-0.44119 0.35635,-1.03511 0.35635,-1.78174c0,-0.8937 -0.20932,-1.62336 -0.62785,-2.189c-0.41865,-0.56564 -1.00687,-0.84845 -1.76478,-0.84845c-0.65622,0 -1.13692,0.24887 -1.44236,0.74664c-0.30544,0.49776 -0.45816,1.25005 -0.45816,2.25688c0,0.96157 0.15272,1.71387 0.45816,2.25688c0.30544,0.5317 0.80312,0.79754 1.49327,0.79754zM179.81885,185.18403c-1.10868,0 -1.9741,-0.41295 -2.59626,-1.23874c-0.62216,-0.83718 -0.93329,-2.10982 -0.93329,-3.81802c0,-1.6969 0.30544,-2.93564 0.91633,-3.71621c0.62216,-0.79188 1.51024,-1.18783 2.66413,-1.18783c0.65609,0 1.22746,0.13575 1.71387,0.40726c0.4978,0.2715 0.93899,0.65613 1.32358,1.15389l-0.13575,0.06788c-0.10181,-0.46382 -0.20363,-0.95592 -0.30544,-1.4763c-0.10181,-0.52038 -0.18666,-1.01248 -0.25453,-1.4763c-0.0566,-0.47513 -0.08484,-0.84845 -0.08484,-1.11995c0,-0.38463 0.06218,-0.67876 0.18666,-0.88239c0.12448,-0.21494 0.32241,-0.32241 0.59391,-0.32241c0.38459,0 0.69573,0.16403 0.93329,0.4921c0.23757,0.31675 0.4355,0.80885 0.59391,1.4763c0.14702,0.59958 0.2772,1.31227 0.39029,2.13809c0.11309,0.81451 0.20363,1.66862 0.2715,2.56232c0.07915,0.88239 0.11878,1.73084 0.11878,2.54535c0,1.13126 -0.06218,2.01361 -0.18666,2.64716c-0.11309,0.62216 -0.2772,1.05777 -0.4921,1.30661c-0.20363,0.24884 -0.44689,0.37332 -0.72967,0.37332c-0.35065,0 -0.58822,-0.17539 -0.7127,-0.52604c-0.12448,-0.35065 -0.17539,-0.92202 -0.15272,-1.71387h0.25453c-0.30544,0.70143 -0.75233,1.2614 -1.34055,1.67993c-0.57695,0.41853 -1.25571,0.62785 -2.03628,0.62785zM180.7182,183.07987c0.40726,0 0.78057,-0.10181 1.11995,-0.30544c0.35065,-0.2149 0.62785,-0.54301 0.83148,-0.9842c0.2149,-0.44119 0.32241,-1.00117 0.32241,-1.67993c0,-0.87108 -0.19793,-1.57812 -0.59391,-2.12112c-0.39598,-0.55432 -0.96723,-0.83148 -1.71387,-0.83148c-0.58822,0 -1.06905,0.24323 -1.44236,0.72967c-0.36205,0.48644 -0.54301,1.22177 -0.54301,2.20597c0,0.87108 0.18096,1.58943 0.54301,2.15506c0.37332,0.55428 0.86542,0.83148 1.4763,0.83148zM194.69993,185.11615c-0.38471,0 -0.65052,-0.14702 -0.79754,-0.44119c-0.13575,-0.30544 -0.21502,-0.78627 -0.23757,-1.44236l0.16969,0.08484c-0.63355,1.23304 -1.83265,1.84962 -3.59743,1.84962c-0.80324,0 -1.47073,-0.14145 -2.00234,-0.42422c-0.53174,-0.29417 -0.92772,-0.67876 -1.18783,-1.15389c-0.24896,-0.4864 -0.37332,-1.01244 -0.37332,-1.57812c0,-0.97289 0.33938,-1.74215 1.01814,-2.30778c0.67876,-0.57695 1.57812,-0.86542 2.69807,-0.86542c0.73524,0 1.37449,0.10747 1.9175,0.32241c0.54301,0.21494 1.00675,0.51473 1.39146,0.89936l-0.28847,-0.03394c-0.07927,-1.14258 -0.32811,-1.9571 -0.74664,-2.44354c-0.40726,-0.49776 -0.9899,-0.74664 -1.74781,-0.74664c-0.44119,0 -0.84845,0.06788 -1.22177,0.20363c-0.37332,0.13575 -0.71839,0.27716 -1.03511,0.42422c-0.30544,0.13575 -0.59391,0.20363 -0.86542,0.20363c-0.2715,0 -0.48653,-0.09051 -0.64482,-0.2715c-0.14715,-0.181 -0.2206,-0.41292 -0.2206,-0.69573c0,-0.40726 0.19223,-0.79188 0.57695,-1.15389c0.39586,-0.36201 0.91633,-0.65613 1.56115,-0.88239c0.64482,-0.22626 1.34613,-0.33938 2.10416,-0.33938c0.91633,0 1.70248,0.2206 2.35869,0.66179c0.65609,0.44119 1.15389,1.08602 1.49327,1.93447c0.29405,0.72401 0.50337,1.53287 0.62785,2.42657c0.12436,0.8937 0.18666,1.84962 0.18666,2.86776c0,0.7693 -0.03963,1.36322 -0.11878,1.78174c-0.07927,0.41853 -0.20363,0.7127 -0.37332,0.88239c-0.15842,0.15842 -0.37332,0.23757 -0.64482,0.23757zM190.94978,183.21562c0.37332,0 0.75221,-0.05091 1.13692,-0.15272c0.38459,-0.11309 0.707,-0.2772 0.96723,-0.4921c0.26011,-0.21494 0.39029,-0.48079 0.39029,-0.79754c0,-0.2715 -0.11321,-0.4921 -0.33938,-0.66179c-0.21502,-0.181 -0.50349,-0.31675 -0.86542,-0.40726c-0.35077,-0.09051 -0.72967,-0.13575 -1.13692,-0.13575c-0.69015,0 -1.21619,0.11878 -1.57812,0.35635c-0.35077,0.23757 -0.52604,0.55432 -0.52604,0.95026c0,0.42989 0.16399,0.7636 0.4921,1.00117c0.33938,0.22629 0.82578,0.33938 1.45933,0.33938zM199.63742,174.39175c0.36205,0 0.60531,0.14706 0.72967,0.44119c0.13575,0.29413 0.20363,0.72967 0.20363,1.30661c0,0.13575 -0.01127,0.28281 -0.03394,0.44119c-0.01127,0.14706 -0.03394,0.28281 -0.06788,0.40726l-0.03394,-0.33938c0.2715,-0.73533 0.69015,-1.30661 1.25571,-1.71387c0.56567,-0.41856 1.16529,-0.62785 1.79871,-0.62785c0.70143,0 1.28407,0.19797 1.74781,0.59391c0.47513,0.39595 0.82591,0.95026 1.05208,1.66296c0.23757,0.7127 0.35635,1.55549 0.35635,2.52838c0,0.59958 -0.02824,1.19349 -0.08484,1.78174c-0.04521,0.57695 -0.11309,1.10865 -0.20363,1.59509c-0.07915,0.47513 -0.16969,0.86542 -0.2715,1.17086c-0.13575,0.38459 -0.31102,0.67306 -0.52604,0.86542c-0.2149,0.18096 -0.46944,0.2715 -0.7636,0.2715c-0.29405,0 -0.52034,-0.10751 -0.67876,-0.32241c-0.1583,-0.2149 -0.23757,-0.50337 -0.23757,-0.86542c0,-0.38459 0.02836,-0.84845 0.08484,-1.39146c0.0566,-0.55432 0.10751,-1.11429 0.15272,-1.67993c0.0566,-0.57695 0.08484,-1.09732 0.08484,-1.56115c0,-1.58378 -0.52034,-2.37566 -1.56115,-2.37566c-0.55428,0 -1.01814,0.24887 -1.39146,0.74664c-0.37332,0.48644 -0.62216,1.18217 -0.74664,2.08719c-0.03394,0.30544 -0.05091,0.68442 -0.05091,1.13692c0,0.4525 0,0.90502 0,1.35752c0.01139,0.44119 0,0.81451 -0.03394,1.11995c-0.04521,0.67876 -0.17527,1.16516 -0.39029,1.45933c-0.20363,0.29417 -0.4864,0.44119 -0.84845,0.44119c-0.41853,0 -0.73524,-0.19236 -0.95026,-0.57695c-0.2149,-0.39598 -0.32241,-1.05777 -0.32241,-1.98537c0,-0.47513 0.01139,-1.00683 0.03394,-1.59509c0.02267,-0.58825 0.05091,-1.17652 0.08484,-1.76478c0.04533,-0.59958 0.09624,-1.14258 0.15272,-1.62902c0.11321,-0.91633 0.2772,-1.64033 0.4921,-2.17203c0.21502,-0.54301 0.53743,-0.81451 0.96723,-0.81451zM215.14563,185.04828c-0.69003,0 -1.2048,-0.09054 -1.54418,-0.2715c-0.33938,-0.18096 -0.62216,-0.50907 -0.84845,-0.9842c-0.1583,-0.36205 -0.29405,-0.95026 -0.40726,-1.76478c-0.10181,-0.82582 -0.15272,-1.89487 -0.15272,-3.20714c0,-0.91633 0.01697,-1.79305 0.05091,-2.63019c0.04533,-0.83714 0.10751,-1.48196 0.18666,-1.93447c0.09054,-0.57695 0.23757,-0.98986 0.44119,-1.23874c0.21502,-0.24887 0.48083,-0.37332 0.79754,-0.37332c0.2829,0 0.50349,0.12444 0.66179,0.37332c0.16969,0.24887 0.28847,0.58825 0.35635,1.01814c0.06788,0.41856 0.10181,0.88239 0.10181,1.39146c0,1.38015 -0.05091,2.77726 -0.15272,4.19134c-0.09042,1.41409 -0.2206,2.71504 -0.39029,3.90287l-0.2206,-0.30544c0.50907,-0.35065 1.05208,-0.65052 1.62902,-0.89936c0.58834,-0.24887 1.15959,-0.44119 1.71387,-0.57695c0.56567,-0.13575 1.05777,-0.20363 1.4763,-0.20363c0.41865,0 0.72409,0.08484 0.91633,0.25453c0.20363,0.16969 0.30544,0.41292 0.30544,0.72967c0,0.31671 -0.14133,0.63913 -0.42422,0.96723c-0.2715,0.31671 -0.66179,0.59391 -1.17086,0.83148c-0.28278,0.13575 -0.61646,0.26023 -1.00117,0.37332c-0.38459,0.10181 -0.78057,0.18666 -1.18783,0.25453c-0.39586,0.06788 -0.77488,0.10181 -1.13692,0.10181zM229.10699,184.84465c-0.30544,0 -0.54301,-0.10181 -0.7127,-0.30544c-0.1583,-0.2149 -0.26581,-0.4864 -0.32241,-0.81451c-0.05648,-0.33938 -0.08484,-0.69573 -0.08484,-1.06905l0.08484,-0.06788c-0.11309,0.4864 -0.33368,0.90505 -0.66179,1.25571c-0.32799,0.35065 -0.707,0.62216 -1.13692,0.81451c-0.4298,0.18096 -0.85972,0.2715 -1.28964,0.2715c-0.57695,0 -1.10298,-0.13575 -1.57812,-0.40726c-0.47513,-0.2715 -0.84275,-0.69003 -1.10298,-1.25571c-0.26011,-0.59961 -0.46374,-1.35186 -0.61088,-2.25688c-0.14702,-0.91633 -0.2206,-1.85528 -0.2206,-2.81685c0,-0.52038 0.02267,-1.00117 0.06788,-1.44236c0.04533,-0.44119 0.11878,-0.8032 0.2206,-1.08602c0.09054,-0.29413 0.22629,-0.50907 0.40726,-0.64482c0.18108,-0.14706 0.41295,-0.2206 0.69573,-0.2206c0.32811,0 0.58264,0.13009 0.7636,0.39029c0.19236,0.24887 0.31114,0.59958 0.35635,1.05208c0.04533,0.37332 0.07357,0.83714 0.08484,1.39146c0.02267,0.54301 0.03963,1.09168 0.05091,1.64599c0.02267,0.54301 0.05091,1.00117 0.08484,1.37449c0.06788,0.67876 0.24326,1.18217 0.52604,1.51024c0.2829,0.31675 0.62785,0.47513 1.03511,0.47513c0.59961,0 1.05777,-0.22626 1.37449,-0.67876c0.31684,-0.4525 0.47513,-1.08602 0.47513,-1.90053c0,-0.40726 -0.02254,-0.86542 -0.06788,-1.37449c-0.04521,-0.52038 -0.09612,-1.0238 -0.15272,-1.51024c-0.04521,-0.48644 -0.06788,-0.88805 -0.06788,-1.2048c0,-0.5317 0.09054,-0.91067 0.2715,-1.13692c0.18108,-0.23757 0.42992,-0.35635 0.74664,-0.35635c0.2715,0 0.4978,0.07354 0.67876,0.2206c0.19236,0.14706 0.34508,0.35069 0.45828,0.61088c0.15878,0.33938 0.29453,0.8032 0.40726,1.39146c0.11272,0.58825 0.20363,1.25571 0.2715,2.00234c0.06788,0.74664 0.10181,1.53287 0.10181,2.35869c0,1.26701 -0.08484,2.21724 -0.25453,2.85079c-0.16969,0.62216 -0.46907,0.93329 -0.89948,0.93329zM239.74062,185.11615c-0.38423,0 -0.65088,-0.14702 -0.79754,-0.44119c-0.13575,-0.30544 -0.21454,-0.78627 -0.23757,-1.44236l0.16969,0.08484c-0.63391,1.23304 -1.83265,1.84962 -3.59743,1.84962c-0.8036,0 -1.47024,-0.14145 -2.00234,-0.42422c-0.5321,-0.29417 -0.92723,-0.67876 -1.18783,-1.15389c-0.24847,-0.4864 -0.37332,-1.01244 -0.37332,-1.57812c0,-0.97289 0.33938,-1.74215 1.01814,-2.30778c0.67876,-0.57695 1.57812,-0.86542 2.69807,-0.86542c0.73573,0 1.37449,0.10747 1.9175,0.32241c0.54301,0.21494 1.00723,0.51473 1.39146,0.89936l-0.28847,-0.03394c-0.07878,-1.14258 -0.32847,-1.9571 -0.74664,-2.44354c-0.40726,-0.49776 -0.99026,-0.74664 -1.74781,-0.74664c-0.44119,0 -0.84845,0.06788 -1.22177,0.20363c-0.37332,0.13575 -0.71876,0.27716 -1.03511,0.42422c-0.30544,0.13575 -0.59391,0.20363 -0.86542,0.20363c-0.2715,0 -0.48604,-0.09051 -0.64482,-0.2715c-0.14666,-0.181 -0.2206,-0.41292 -0.2206,-0.69573c0,-0.40726 0.19272,-0.79188 0.57695,-1.15389c0.39635,-0.36201 0.91633,-0.65613 1.56115,-0.88239c0.64482,-0.22626 1.34661,-0.33938 2.10416,-0.33938c0.91633,0 1.70296,0.2206 2.35869,0.66179c0.65573,0.44119 1.15389,1.08602 1.49327,1.93447c0.29453,0.72401 0.50301,1.53287 0.62785,2.42657c0.12484,0.8937 0.18666,1.84962 0.18666,2.86776c0,0.7693 -0.04,1.36322 -0.11878,1.78174c-0.07878,0.41853 -0.20363,0.7127 -0.37332,0.88239c-0.15878,0.15842 -0.37332,0.23757 -0.64482,0.23757zM235.99047,183.21562c0.37332,0 0.7527,-0.05091 1.13692,-0.15272c0.38423,-0.11309 0.70664,-0.2772 0.96723,-0.4921c0.2606,-0.21494 0.39029,-0.48079 0.39029,-0.79754c0,-0.2715 -0.11272,-0.4921 -0.33938,-0.66179c-0.21454,-0.181 -0.50301,-0.31675 -0.86542,-0.40726c-0.35029,-0.09051 -0.72967,-0.13575 -1.13692,-0.13575c-0.68967,0 -1.21571,0.11878 -1.57812,0.35635c-0.35029,0.23757 -0.52604,0.55432 -0.52604,0.95026c0,0.42989 0.16363,0.7636 0.4921,1.00117c0.33938,0.22629 0.82542,0.33938 1.45933,0.33938zM242.94776,177.29344c0,-1.08602 0.10181,-1.86659 0.30544,-2.34172c0.20363,-0.48644 0.4921,-0.72967 0.86542,-0.72967c0.29332,0 0.52604,0.12444 0.69573,0.37332c0.16969,0.23757 0.29332,0.53735 0.37332,0.89936c0.07878,0.35069 0.11878,0.70704 0.11878,1.06905l-0.08484,-0.03394c0.19151,-0.61088 0.48604,-1.13692 0.88239,-1.57812c0.40726,-0.44119 0.8933,-0.66179 1.45933,-0.66179c0.66664,0 1.15874,0.27716 1.4763,0.83148c0.31635,0.54301 0.47513,1.22177 0.47513,2.03628c0,1.08602 -0.12484,1.84396 -0.37332,2.27385c-0.24969,0.42989 -0.58301,0.64482 -1.00117,0.64482c-0.30544,0 -0.5321,-0.12444 -0.67876,-0.37332c-0.13575,-0.24887 -0.18181,-0.69007 -0.13575,-1.32358c0.04485,-0.66745 0.00485,-1.13126 -0.11878,-1.39146c-0.12484,-0.2602 -0.32241,-0.39029 -0.59391,-0.39029c-0.32847,0 -0.59998,0.20929 -0.81451,0.62785c-0.20363,0.40726 -0.30544,0.91067 -0.30544,1.51024c0,0.23757 0.02788,0.53735 0.08484,0.89936c0.05576,0.36201 0.11878,0.75794 0.18666,1.18783c0.06788,0.41856 0.12969,0.83714 0.18666,1.25571c0.05576,0.41856 0.08484,0.80324 0.08484,1.15389c0,0.62216 -0.09697,1.06905 -0.28847,1.34055c-0.19272,0.2715 -0.46422,0.40726 -0.81451,0.40726c-0.39635,0 -0.70179,-0.12448 -0.91633,-0.37332c-0.21575,-0.26023 -0.37938,-0.67876 -0.4921,-1.25571c-0.09091,-0.52034 -0.18181,-1.13692 -0.2715,-1.84962c-0.09091,-0.7127 -0.16484,-1.44236 -0.2206,-2.189c-0.05697,-0.74664 -0.08484,-1.41974 -0.08484,-2.01931zM259.25133,174.86688c-0.5321,0.15838 -1.0242,0.28281 -1.4763,0.37332c-0.45331,0.07918 -0.87754,0.11878 -1.27267,0.11878c-0.36241,0 -0.64482,-0.07354 -0.84845,-0.2206c-0.20363,-0.14706 -0.30544,-0.36766 -0.30544,-0.66179c0,-0.24887 0.08484,-0.48644 0.25453,-0.7127c0.16969,-0.22626 0.42907,-0.42989 0.78057,-0.61088c0.41816,-0.20363 0.95026,-0.37332 1.59509,-0.50907c0.64482,-0.13575 1.39631,-0.20363 2.25688,-0.20363c0.57695,0 1.07996,0.0396 1.51024,0.11878c0.42907,0.06788 0.76845,0.15272 1.01814,0.25453c0.32726,0.13575 0.55392,0.29413 0.67876,0.47513c0.13575,0.16969 0.20363,0.36766 0.20363,0.59391c0,0.28281 -0.10181,0.51473 -0.30544,0.69573c-0.20363,0.181 -0.5321,0.2715 -0.9842,0.2715c-0.2715,0 -0.55513,-0.01697 -0.84845,-0.05091c-0.28362,-0.03394 -0.58301,-0.07918 -0.89936,-0.13575zM260.42219,173.95055c0.57695,0.72401 1.02299,1.56681 1.34055,2.52838c0.32726,0.95026 0.4921,1.94577 0.4921,2.98654c0,1.08602 -0.15272,2.05891 -0.45816,2.91867c-0.29453,0.84845 -0.76967,1.52151 -1.4254,2.01931c-0.65694,0.4864 -1.52721,0.72967 -2.61323,0.72967c-1.3357,0 -2.33687,-0.37332 -3.00351,-1.11995c-0.66785,-0.74664 -1.00117,-1.77044 -1.00117,-3.07139c0,-0.63351 0.07878,-1.17086 0.23757,-1.61205c0.16969,-0.44119 0.39029,-0.77491 0.66179,-1.00117c0.2715,-0.23757 0.56483,-0.35635 0.88239,-0.35635c0.29332,0 0.51392,0.09051 0.66179,0.2715c0.15757,0.16969 0.23757,0.41292 0.23757,0.72967c0,0.2602 -0.04606,0.54867 -0.13575,0.86542c-0.08,0.30544 -0.11878,0.60522 -0.11878,0.89936c0,0.75794 0.12969,1.31227 0.39029,1.66296c0.2715,0.33938 0.70058,0.50907 1.28964,0.50907c0.78057,0 1.32843,-0.31671 1.64599,-0.95026c0.32726,-0.64482 0.4921,-1.52155 0.4921,-2.63019c0,-0.8032 -0.08484,-1.58943 -0.25453,-2.35869c-0.16969,-0.76927 -0.44119,-1.55549 -0.81451,-2.35869zM272.46896,185.11615c-0.38423,0 -0.65088,-0.14702 -0.79754,-0.44119c-0.13575,-0.30544 -0.21454,-0.78627 -0.23757,-1.44236l0.16969,0.08484c-0.63391,1.23304 -1.83265,1.84962 -3.59743,1.84962c-0.8036,0 -1.47024,-0.14145 -2.00234,-0.42422c-0.5321,-0.29417 -0.92723,-0.67876 -1.18783,-1.15389c-0.24847,-0.4864 -0.37332,-1.01244 -0.37332,-1.57812c0,-0.97289 0.33938,-1.74215 1.01814,-2.30778c0.67876,-0.57695 1.57812,-0.86542 2.69807,-0.86542c0.73573,0 1.37449,0.10747 1.9175,0.32241c0.54301,0.21494 1.00723,0.51473 1.39146,0.89936l-0.28847,-0.03394c-0.07878,-1.14258 -0.32847,-1.9571 -0.74664,-2.44354c-0.40726,-0.49776 -0.99026,-0.74664 -1.74781,-0.74664c-0.44119,0 -0.84845,0.06788 -1.22177,0.20363c-0.37332,0.13575 -0.71876,0.27716 -1.03511,0.42422c-0.30544,0.13575 -0.59391,0.20363 -0.86542,0.20363c-0.2715,0 -0.48604,-0.09051 -0.64482,-0.2715c-0.14666,-0.181 -0.2206,-0.41292 -0.2206,-0.69573c0,-0.40726 0.19272,-0.79188 0.57695,-1.15389c0.39635,-0.36201 0.91633,-0.65613 1.56115,-0.88239c0.64482,-0.22626 1.34661,-0.33938 2.10416,-0.33938c0.91633,0 1.70296,0.2206 2.35869,0.66179c0.65573,0.44119 1.15389,1.08602 1.49327,1.93447c0.29453,0.72401 0.50301,1.53287 0.62785,2.42657c0.12484,0.8937 0.18666,1.84962 0.18666,2.86776c0,0.7693 -0.04,1.36322 -0.11878,1.78174c-0.07878,0.41853 -0.20363,0.7127 -0.37332,0.88239c-0.15878,0.15842 -0.37332,0.23757 -0.64482,0.23757zM268.71882,183.21562c0.37332,0 0.7527,-0.05091 1.13692,-0.15272c0.38423,-0.11309 0.70664,-0.2772 0.96723,-0.4921c0.2606,-0.21494 0.39029,-0.48079 0.39029,-0.79754c0,-0.2715 -0.11272,-0.4921 -0.33938,-0.66179c-0.21454,-0.181 -0.50301,-0.31675 -0.86542,-0.40726c-0.35029,-0.09051 -0.72967,-0.13575 -1.13692,-0.13575c-0.68967,0 -1.21571,0.11878 -1.57812,0.35635c-0.35029,0.23757 -0.52604,0.55432 -0.52604,0.95026c0,0.42989 0.16363,0.7636 0.4921,1.00117c0.33938,0.22629 0.82542,0.33938 1.45933,0.33938zM275.76095,188.47601c-0.45331,0 -0.86057,-0.09612 -1.22177,-0.28847c-0.36241,-0.19236 -0.65088,-0.4355 -0.86542,-0.72967c-0.21575,-0.29417 -0.32241,-0.59391 -0.32241,-0.89936c0,-0.26023 0.06788,-0.46386 0.20363,-0.61088c0.13575,-0.14702 0.31029,-0.2206 0.52604,-0.2206c0.37332,0 0.77451,0.14145 1.2048,0.42422c0.42907,0.28278 0.83633,0.67306 1.22177,1.17086l-0.25453,-0.03394c-0.19272,-1.58381 -0.33938,-3.09963 -0.44119,-4.54769c-0.09091,-1.45933 -0.13575,-2.76595 -0.13575,-3.91984c0,-1.05208 0.08484,-1.83831 0.25453,-2.35869c0.1806,-0.5317 0.47513,-0.79754 0.88239,-0.79754c0.46301,0 0.83148,0.36201 1.10298,1.08602c0.2715,0.72401 0.40726,1.94577 0.40726,3.6653c0,0.75794 -0.02303,1.53852 -0.06788,2.34172c-0.04606,0.79185 -0.11393,1.54418 -0.20363,2.25688c-0.08,0.7127 -0.19272,1.31231 -0.33938,1.79871c-0.18181,0.58822 -0.43029,1.01244 -0.74664,1.27267c-0.30544,0.26023 -0.70785,0.39029 -1.2048,0.39029zM276.54152,174.25599c-0.36241,0 -0.65694,-0.07918 -0.88239,-0.23757c-0.21575,-0.16969 -0.32241,-0.42422 -0.32241,-0.7636c0,-0.38463 0.12969,-0.70704 0.39029,-0.96723c0.2715,-0.2715 0.64967,-0.40726 1.13692,-0.40726c0.40726,0 0.71755,0.10181 0.93329,0.30544c0.21454,0.19232 0.32241,0.4525 0.32241,0.78057c0,0.40726 -0.14787,0.72401 -0.44119,0.95026c-0.29453,0.22626 -0.67391,0.33938 -1.13692,0.33938zM287.81379,185.11615c-0.38423,0 -0.65088,-0.14702 -0.79754,-0.44119c-0.13575,-0.30544 -0.21454,-0.78627 -0.23757,-1.44236l0.16969,0.08484c-0.63391,1.23304 -1.83265,1.84962 -3.59743,1.84962c-0.8036,0 -1.47024,-0.14145 -2.00234,-0.42422c-0.5321,-0.29417 -0.92723,-0.67876 -1.18783,-1.15389c-0.24847,-0.4864 -0.37332,-1.01244 -0.37332,-1.57812c0,-0.97289 0.33938,-1.74215 1.01814,-2.30778c0.67876,-0.57695 1.57812,-0.86542 2.69807,-0.86542c0.73573,0 1.37449,0.10747 1.9175,0.32241c0.54301,0.21494 1.00723,0.51473 1.39146,0.89936l-0.28847,-0.03394c-0.07878,-1.14258 -0.32847,-1.9571 -0.74664,-2.44354c-0.40726,-0.49776 -0.99026,-0.74664 -1.74781,-0.74664c-0.44119,0 -0.84845,0.06788 -1.22177,0.20363c-0.37332,0.13575 -0.71876,0.27716 -1.03511,0.42422c-0.30544,0.13575 -0.59391,0.20363 -0.86542,0.20363c-0.2715,0 -0.48604,-0.09051 -0.64482,-0.2715c-0.14666,-0.181 -0.2206,-0.41292 -0.2206,-0.69573c0,-0.40726 0.19272,-0.79188 0.57695,-1.15389c0.39635,-0.36201 0.91633,-0.65613 1.56115,-0.88239c0.64482,-0.22626 1.34661,-0.33938 2.10416,-0.33938c0.91633,0 1.70296,0.2206 2.35869,0.66179c0.65573,0.44119 1.15389,1.08602 1.49327,1.93447c0.29453,0.72401 0.50301,1.53287 0.62785,2.42657c0.12484,0.8937 0.18666,1.84962 0.18666,2.86776c0,0.7693 -0.04,1.36322 -0.11878,1.78174c-0.07878,0.41853 -0.20363,0.7127 -0.37332,0.88239c-0.15878,0.15842 -0.37332,0.23757 -0.64482,0.23757zM284.06364,183.21562c0.37332,0 0.7527,-0.05091 1.13692,-0.15272c0.38423,-0.11309 0.70664,-0.2772 0.96723,-0.4921c0.2606,-0.21494 0.39029,-0.48079 0.39029,-0.79754c0,-0.2715 -0.11272,-0.4921 -0.33938,-0.66179c-0.21454,-0.181 -0.50301,-0.31675 -0.86542,-0.40726c-0.35029,-0.09051 -0.72967,-0.13575 -1.13692,-0.13575c-0.68967,0 -1.21571,0.11878 -1.57812,0.35635c-0.35029,0.23757 -0.52604,0.55432 -0.52604,0.95026c0,0.42989 0.16363,0.7636 0.4921,1.00117c0.33938,0.22629 0.82542,0.33938 1.45933,0.33938zM291.02093,177.29344c0,-1.08602 0.10181,-1.86659 0.30544,-2.34172c0.20363,-0.48644 0.4921,-0.72967 0.86542,-0.72967c0.29332,0 0.52604,0.12444 0.69573,0.37332c0.16969,0.23757 0.29332,0.53735 0.37332,0.89936c0.07878,0.35069 0.11878,0.70704 0.11878,1.06905l-0.08484,-0.03394c0.19151,-0.61088 0.48604,-1.13692 0.88239,-1.57812c0.40726,-0.44119 0.8933,-0.66179 1.45933,-0.66179c0.66664,0 1.15874,0.27716 1.4763,0.83148c0.31635,0.54301 0.47513,1.22177 0.47513,2.03628c0,1.08602 -0.12484,1.84396 -0.37332,2.27385c-0.24969,0.42989 -0.58301,0.64482 -1.00117,0.64482c-0.30544,0 -0.5321,-0.12444 -0.67876,-0.37332c-0.13575,-0.24887 -0.18181,-0.69007 -0.13575,-1.32358c0.04485,-0.66745 0.00485,-1.13126 -0.11878,-1.39146c-0.12484,-0.2602 -0.32241,-0.39029 -0.59391,-0.39029c-0.32847,0 -0.59998,0.20929 -0.81451,0.62785c-0.20363,0.40726 -0.30544,0.91067 -0.30544,1.51024c0,0.23757 0.02788,0.53735 0.08484,0.89936c0.05576,0.36201 0.11878,0.75794 0.18666,1.18783c0.06788,0.41856 0.12969,0.83714 0.18666,1.25571c0.05576,0.41856 0.08484,0.80324 0.08484,1.15389c0,0.62216 -0.09697,1.06905 -0.28847,1.34055c-0.19272,0.2715 -0.46422,0.40726 -0.81451,0.40726c-0.39635,0 -0.70179,-0.12448 -0.91633,-0.37332c-0.21575,-0.26023 -0.37938,-0.67876 -0.4921,-1.25571c-0.09091,-0.52034 -0.18181,-1.13692 -0.2715,-1.84962c-0.09091,-0.7127 -0.16484,-1.44236 -0.2206,-2.189c-0.05697,-0.74664 -0.08484,-1.41974 -0.08484,-2.01931zM310.46376,180.22908c-0.33938,0.04525 -0.65694,0.07354 -0.95026,0.08484c-0.28362,0.01131 -0.55513,0.01697 -0.81451,0.01697c-0.75876,0 -1.26783,-0.05657 -1.52721,-0.16969c-0.2606,-0.12444 -0.39029,-0.33372 -0.39029,-0.62785c0,-0.19232 0.06182,-0.36766 0.18666,-0.52604c0.13575,-0.15838 0.32726,-0.29413 0.57695,-0.40726c0.29332,-0.12444 0.72361,-0.23757 1.28964,-0.33938c0.57695,-0.11312 1.17086,-0.16969 1.78174,-0.16969c0.79148,0 1.40237,0.06788 1.83265,0.20363c0.44119,0.12444 0.66179,0.36766 0.66179,0.72967c0,0.28281 -0.11393,0.52604 -0.33938,0.72967c-0.22666,0.19232 -0.59998,0.31675 -1.11995,0.37332zM311.71947,179.8897c0.29332,0.37332 0.50301,0.7523 0.62785,1.13692c0.12363,0.38463 0.18666,0.72967 0.18666,1.03511c0,0.50907 -0.15272,1.00117 -0.45816,1.4763c-0.29453,0.46386 -0.75876,0.84845 -1.39146,1.15389c-0.63391,0.29417 -1.46539,0.44119 -2.49444,0.44119c-1.32358,0 -2.42657,-0.24326 -3.30895,-0.72967c-0.87148,-0.4978 -1.52236,-1.19353 -1.95143,-2.08719c-0.43029,-0.90502 -0.64482,-1.9571 -0.64482,-3.15623c0,-1.28964 0.2715,-2.43223 0.81451,-3.42774c0.54301,-0.99551 1.31146,-1.77044 2.30778,-2.32475c0.99511,-0.56564 2.15991,-0.84845 3.49561,-0.84845c1.10783,0 1.95628,0.19797 2.54535,0.59391c0.59876,0.38463 0.89936,0.83714 0.89936,1.35752c0,0.31675 -0.10787,0.56564 -0.32241,0.74664c-0.20363,0.16969 -0.50422,0.25453 -0.89936,0.25453c-0.23757,0 -0.48725,-0.0396 -0.74664,-0.11878c-0.24969,-0.07918 -0.5321,-0.15272 -0.84845,-0.2206c-0.30544,-0.07918 -0.65694,-0.11878 -1.05208,-0.11878c-0.72482,0 -1.39146,0.13575 -2.00234,0.40726c-0.61088,0.2602 -1.10298,0.69573 -1.4763,1.30661c-0.36241,0.59958 -0.54301,1.40843 -0.54301,2.42657c0,0.87108 0.16363,1.58378 0.4921,2.13809c0.33938,0.54301 0.80845,0.9446 1.40843,1.2048c0.59876,0.24884 1.28358,0.37332 2.05325,0.37332c0.51998,0 0.92723,-0.0566 1.22177,-0.16969c0.30544,-0.11309 0.51998,-0.28281 0.64482,-0.50907c0.13575,-0.22626 0.20363,-0.51473 0.20363,-0.86542c0,-0.19232 -0.02909,-0.42989 -0.08484,-0.7127c-0.04606,-0.28281 -0.11878,-0.56564 -0.2206,-0.84845zM319.18704,185.08221c-1.25571,0 -2.25688,-0.18666 -3.00351,-0.55998c-0.74664,-0.37332 -1.28358,-0.91063 -1.61205,-1.61205c-0.32847,-0.70139 -0.4921,-1.53852 -0.4921,-2.51141c0,-1.23308 0.22666,-2.27951 0.67876,-3.13926c0.46422,-0.87108 1.09692,-1.53852 1.90053,-2.00234c0.81451,-0.46382 1.7369,-0.69573 2.76595,-0.69573c1.21086,0 2.0981,0.28281 2.66413,0.84845c0.56604,0.55432 0.84845,1.28398 0.84845,2.189c0,0.72401 -0.19272,1.35186 -0.57695,1.88356c-0.37332,0.52038 -0.8933,0.92199 -1.56115,1.2048c-0.66785,0.28281 -1.4363,0.42422 -2.30778,0.42422c-0.48604,0 -0.95632,-0.06222 -1.40843,-0.18666c-0.4521,-0.12444 -0.85936,-0.29413 -1.22177,-0.50907l0.40726,-0.74664c-0.03394,0.2715 -0.05091,0.54301 -0.05091,0.81451c0,0.79188 0.24847,1.36318 0.74664,1.71387c0.49816,0.33938 1.2048,0.50907 2.12112,0.50907c0.7127,0 1.28358,-0.06218 1.71387,-0.18666c0.43029,-0.12444 0.79148,-0.24323 1.08602,-0.35635c0.29453,-0.12444 0.58301,-0.18666 0.86542,-0.18666c0.15878,0 0.29938,0.04525 0.42422,0.13575c0.13575,0.07918 0.24363,0.19797 0.32241,0.35635c0.09091,0.15842 0.13575,0.35065 0.13575,0.57695c0,0.33938 -0.16969,0.66749 -0.50907,0.9842c-0.33938,0.30544 -0.84239,0.55998 -1.51024,0.7636c-0.65573,0.19236 -1.46539,0.28847 -2.42657,0.28847zM318.20284,179.53335c0.8036,0 1.44843,-0.16969 1.93447,-0.50907c0.48604,-0.33938 0.72967,-0.75794 0.72967,-1.25571c0,-0.39595 -0.13575,-0.71836 -0.40726,-0.96723c-0.2606,-0.2602 -0.6727,-0.39029 -1.23874,-0.39029c-0.5321,0 -1.01208,0.10181 -1.44236,0.30544c-0.41816,0.19232 -0.74664,0.44685 -0.9842,0.7636c-0.23757,0.31675 -0.35635,0.66179 -0.35635,1.03511c0,0.32807 0.15272,0.58261 0.45816,0.7636c0.31635,0.16969 0.7527,0.25453 1.30661,0.25453zM326.85581,174.39175c0.3612,0 0.60482,0.14706 0.72967,0.44119c0.13575,0.29413 0.20363,0.72967 0.20363,1.30661c0,0.13575 -0.01212,0.28281 -0.03394,0.44119c-0.01212,0.14706 -0.03394,0.28281 -0.06788,0.40726l-0.03394,-0.33938c0.2715,-0.73533 0.68967,-1.30661 1.25571,-1.71387c0.56483,-0.41856 1.1648,-0.62785 1.79871,-0.62785c0.70058,0 1.28358,0.19797 1.74781,0.59391c0.47513,0.39595 0.82542,0.95026 1.05208,1.66296c0.23757,0.7127 0.35635,1.55549 0.35635,2.52838c0,0.59958 -0.02909,1.19349 -0.08484,1.78174c-0.04606,0.57695 -0.11393,1.10865 -0.20363,1.59509c-0.08,0.47513 -0.16969,0.86542 -0.2715,1.17086c-0.13575,0.38459 -0.3115,0.67306 -0.52604,0.86542c-0.21575,0.18096 -0.47028,0.2715 -0.7636,0.2715c-0.29453,0 -0.52119,-0.10751 -0.67876,-0.32241c-0.15878,-0.2149 -0.23757,-0.50337 -0.23757,-0.86542c0,-0.38459 0.02788,-0.84845 0.08484,-1.39146c0.05576,-0.55432 0.10666,-1.11429 0.15272,-1.67993c0.05576,-0.57695 0.08484,-1.09732 0.08484,-1.56115c0,-1.58378 -0.52119,-2.37566 -1.56115,-2.37566c-0.55513,0 -1.01814,0.24887 -1.39146,0.74664c-0.37332,0.48644 -0.623,1.18217 -0.74664,2.08719c-0.03394,0.30544 -0.05091,0.68442 -0.05091,1.13692c0,0.4525 0,0.90502 0,1.35752c0.01091,0.44119 0,0.81451 -0.03394,1.11995c-0.04606,0.67876 -0.17575,1.16516 -0.39029,1.45933c-0.20363,0.29417 -0.48725,0.44119 -0.84845,0.44119c-0.41938,0 -0.73573,-0.19236 -0.95026,-0.57695c-0.21575,-0.39598 -0.32241,-1.05777 -0.32241,-1.98537c0,-0.47513 0.01091,-1.00683 0.03394,-1.59509c0.02182,-0.58825 0.05091,-1.17652 0.08484,-1.76478c0.04485,-0.59958 0.09575,-1.14258 0.15272,-1.62902c0.11272,-0.91633 0.27635,-1.64033 0.4921,-2.17203c0.21454,-0.54301 0.53695,-0.81451 0.96723,-0.81451zM336.01422,188.47601c-0.45331,0 -0.86057,-0.09612 -1.22177,-0.28847c-0.36241,-0.19236 -0.65088,-0.4355 -0.86542,-0.72967c-0.21575,-0.29417 -0.32241,-0.59391 -0.32241,-0.89936c0,-0.26023 0.06788,-0.46386 0.20363,-0.61088c0.13575,-0.14702 0.31029,-0.2206 0.52604,-0.2206c0.37332,0 0.77451,0.14145 1.2048,0.42422c0.42907,0.28278 0.83633,0.67306 1.22177,1.17086l-0.25453,-0.03394c-0.19272,-1.58381 -0.33938,-3.09963 -0.44119,-4.54769c-0.09091,-1.45933 -0.13575,-2.76595 -0.13575,-3.91984c0,-1.05208 0.08484,-1.83831 0.25453,-2.35869c0.1806,-0.5317 0.47513,-0.79754 0.88239,-0.79754c0.46301,0 0.83148,0.36201 1.10298,1.08602c0.2715,0.72401 0.40726,1.94577 0.40726,3.6653c0,0.75794 -0.02303,1.53852 -0.06788,2.34172c-0.04606,0.79185 -0.11393,1.54418 -0.20363,2.25688c-0.08,0.7127 -0.19272,1.31231 -0.33938,1.79871c-0.18181,0.58822 -0.43029,1.01244 -0.74664,1.27267c-0.30544,0.26023 -0.70785,0.39029 -1.2048,0.39029zM336.7948,174.25599c-0.36241,0 -0.65694,-0.07918 -0.88239,-0.23757c-0.21575,-0.16969 -0.32241,-0.42422 -0.32241,-0.7636c0,-0.38463 0.12969,-0.70704 0.39029,-0.96723c0.2715,-0.2715 0.64967,-0.40726 1.13692,-0.40726c0.40726,0 0.71755,0.10181 0.93329,0.30544c0.21454,0.19232 0.32241,0.4525 0.32241,0.78057c0,0.40726 -0.14787,0.72401 -0.44119,0.95026c-0.29453,0.22626 -0.67391,0.33938 -1.13692,0.33938zM348.06706,185.11615c-0.38423,0 -0.65088,-0.14702 -0.79754,-0.44119c-0.13575,-0.30544 -0.21454,-0.78627 -0.23757,-1.44236l0.16969,0.08484c-0.63391,1.23304 -1.83265,1.84962 -3.59743,1.84962c-0.8036,0 -1.47024,-0.14145 -2.00234,-0.42422c-0.5321,-0.29417 -0.92723,-0.67876 -1.18783,-1.15389c-0.24847,-0.4864 -0.37332,-1.01244 -0.37332,-1.57812c0,-0.97289 0.33938,-1.74215 1.01814,-2.30778c0.67876,-0.57695 1.57812,-0.86542 2.69807,-0.86542c0.73573,0 1.37449,0.10747 1.9175,0.32241c0.54301,0.21494 1.00723,0.51473 1.39146,0.89936l-0.28847,-0.03394c-0.07878,-1.14258 -0.32847,-1.9571 -0.74664,-2.44354c-0.40726,-0.49776 -0.99026,-0.74664 -1.74781,-0.74664c-0.44119,0 -0.84845,0.06788 -1.22177,0.20363c-0.37332,0.13575 -0.71876,0.27716 -1.03511,0.42422c-0.30544,0.13575 -0.59391,0.20363 -0.86542,0.20363c-0.2715,0 -0.48604,-0.09051 -0.64482,-0.2715c-0.14666,-0.181 -0.2206,-0.41292 -0.2206,-0.69573c0,-0.40726 0.19272,-0.79188 0.57695,-1.15389c0.39635,-0.36201 0.91633,-0.65613 1.56115,-0.88239c0.64482,-0.22626 1.34661,-0.33938 2.10416,-0.33938c0.91633,0 1.70296,0.2206 2.35869,0.66179c0.65573,0.44119 1.15389,1.08602 1.49327,1.93447c0.29453,0.72401 0.50301,1.53287 0.62785,2.42657c0.12484,0.8937 0.18666,1.84962 0.18666,2.86776c0,0.7693 -0.04,1.36322 -0.11878,1.78174c-0.07878,0.41853 -0.20363,0.7127 -0.37332,0.88239c-0.15878,0.15842 -0.37332,0.23757 -0.64482,0.23757zM344.31691,183.21562c0.37332,0 0.7527,-0.05091 1.13692,-0.15272c0.38423,-0.11309 0.70664,-0.2772 0.96723,-0.4921c0.2606,-0.21494 0.39029,-0.48079 0.39029,-0.79754c0,-0.2715 -0.11272,-0.4921 -0.33938,-0.66179c-0.21454,-0.181 -0.50301,-0.31675 -0.86542,-0.40726c-0.35029,-0.09051 -0.72967,-0.13575 -1.13692,-0.13575c-0.68967,0 -1.21571,0.11878 -1.57812,0.35635c-0.35029,0.23757 -0.52604,0.55432 -0.52604,0.95026c0,0.42989 0.16363,0.7636 0.4921,1.00117c0.33938,0.22629 0.82542,0.33938 1.45933,0.33938zM353.00504,174.39175c0.3612,0 0.60482,0.14706 0.72967,0.44119c0.13575,0.29413 0.20363,0.72967 0.20363,1.30661c0,0.13575 -0.01212,0.28281 -0.03394,0.44119c-0.01212,0.14706 -0.03394,0.28281 -0.06788,0.40726l-0.03394,-0.33938c0.2715,-0.73533 0.68967,-1.30661 1.25571,-1.71387c0.56483,-0.41856 1.1648,-0.62785 1.79871,-0.62785c0.70058,0 1.28358,0.19797 1.74781,0.59391c0.47513,0.39595 0.82542,0.95026 1.05208,1.66296c0.23757,0.7127 0.35635,1.55549 0.35635,2.52838c0,0.59958 -0.02909,1.19349 -0.08484,1.78174c-0.04606,0.57695 -0.11393,1.10865 -0.20363,1.59509c-0.08,0.47513 -0.16969,0.86542 -0.2715,1.17086c-0.13575,0.38459 -0.3115,0.67306 -0.52604,0.86542c-0.21575,0.18096 -0.47028,0.2715 -0.7636,0.2715c-0.29453,0 -0.52119,-0.10751 -0.67876,-0.32241c-0.15878,-0.2149 -0.23757,-0.50337 -0.23757,-0.86542c0,-0.38459 0.02788,-0.84845 0.08484,-1.39146c0.05576,-0.55432 0.10666,-1.11429 0.15272,-1.67993c0.05576,-0.57695 0.08484,-1.09732 0.08484,-1.56115c0,-1.58378 -0.52119,-2.37566 -1.56115,-2.37566c-0.55513,0 -1.01814,0.24887 -1.39146,0.74664c-0.37332,0.48644 -0.623,1.18217 -0.74664,2.08719c-0.03394,0.30544 -0.05091,0.68442 -0.05091,1.13692c0,0.4525 0,0.90502 0,1.35752c0.01091,0.44119 0,0.81451 -0.03394,1.11995c-0.04606,0.67876 -0.17575,1.16516 -0.39029,1.45933c-0.20363,0.29417 -0.48725,0.44119 -0.84845,0.44119c-0.41938,0 -0.73573,-0.19236 -0.95026,-0.57695c-0.21575,-0.39598 -0.32241,-1.05777 -0.32241,-1.98537c0,-0.47513 0.01091,-1.00683 0.03394,-1.59509c0.02182,-0.58825 0.05091,-1.17652 0.08484,-1.76478c0.04485,-0.59958 0.09575,-1.14258 0.15272,-1.62902c0.11272,-0.91633 0.27635,-1.64033 0.4921,-2.17203c0.21454,-0.54301 0.53695,-0.81451 0.96723,-0.81451zM365.31968,184.67496c-1.0642,0 -1.92962,-0.40726 -2.59626,-1.22177c-0.66785,-0.82578 -1.00117,-2.07588 -1.00117,-3.75015c0,-1.78741 0.32241,-3.09402 0.96723,-3.91984c0.64482,-0.82582 1.49327,-1.23874 2.54535,-1.23874c0.62179,0 1.17086,0.15838 1.64599,0.47513c0.47513,0.31675 0.88239,0.7636 1.22177,1.34055l-0.13575,0.23757c-0.03394,-0.15838 -0.06303,-0.32807 -0.08484,-0.50907c-0.02303,-0.181 -0.03394,-0.31675 -0.03394,-0.40726c0,-0.46382 0.07272,-0.82017 0.2206,-1.06905c0.15757,-0.2602 0.4012,-0.39029 0.72967,-0.39029c0.3612,0 0.64482,0.14706 0.84845,0.44119c0.21454,0.29413 0.37817,0.7127 0.4921,1.25571c0.14666,0.55432 0.2715,1.26137 0.37332,2.12112c0.10181,0.84845 0.15272,1.70821 0.15272,2.57929c0,1.08602 -0.04,1.99664 -0.11878,2.73201c-0.08,0.73536 -0.20969,1.34625 -0.39029,1.83265c-0.18181,0.4864 -0.41938,0.91063 -0.7127,1.27267c-0.48725,0.58822 -1.11511,1.03511 -1.88356,1.34055c-0.75876,0.31671 -1.63508,0.47513 -2.63019,0.47513c-0.7127,0 -1.2848,-0.06788 -1.71387,-0.20363c-0.43029,-0.12448 -0.74179,-0.29975 -0.93329,-0.52604c-0.18181,-0.2149 -0.2715,-0.45816 -0.2715,-0.72967c0,-0.28278 0.07878,-0.52034 0.23757,-0.7127c0.15757,-0.18096 0.39514,-0.2715 0.7127,-0.2715c0.28241,0 0.61088,0.04521 0.9842,0.13575c0.38423,0.09054 0.83633,0.13575 1.35752,0.13575c1.09692,0 1.87144,-0.26023 2.32475,-0.78057c0.46301,-0.50907 0.69573,-1.24443 0.69573,-2.20597c0,-0.26023 -0.01697,-0.56567 -0.05091,-0.91633l0.23757,0.08484c-0.28362,0.72397 -0.70179,1.30661 -1.25571,1.74781c-0.55513,0.42992 -1.19995,0.64482 -1.93447,0.64482zM365.9645,182.58777c0.3612,0 0.72361,-0.09615 1.08602,-0.28847c0.3612,-0.19232 0.66179,-0.50907 0.89936,-0.95026c0.23757,-0.44119 0.35635,-1.03511 0.35635,-1.78174c0,-0.8937 -0.20969,-1.62336 -0.62785,-2.189c-0.41938,-0.56564 -1.00723,-0.84845 -1.76478,-0.84845c-0.65694,0 -1.13692,0.24887 -1.44236,0.74664c-0.30544,0.49776 -0.45816,1.25005 -0.45816,2.25688c0,0.96157 0.15272,1.71387 0.45816,2.25688c0.30544,0.5317 0.80239,0.79754 1.49327,0.79754z"/></g></g></svg>