<svg version="1.1" xmlns="http://www.w3.org/2000/svg" xmlns:xlink="http://www.w3.org/1999/xlink" width="21.22382" height="25.59479" viewBox="0,0,21.22382,25.59479"><g transform="translate(-229.38809,-167.31371)"><g data-paper-data="{&quot;isPaintingLayer&quot;:true}" fill-rule="evenodd" stroke="none" stroke-width="1" stroke-linecap="butt" stroke-linejoin="miter" stroke-miterlimit="10" stroke-dasharray="" stroke-dashoffset="0" style="mix-blend-mode: normal"><g><g><path d="M243.5563,187.97074c-0.46508,0.30704 -1.76847,0.5884 -1.76847,0.5884c0,0 -1.08837,-1.26402 -1.5477,-1.81784l2.40427,-0.62469c0.28422,0.54201 0.81584,1.64993 0.91191,1.85412z" fill="#a0640a"/><path d="M243.38644,187.04097l-2.92864,0.70364l-1.44938,-2.4879c0,0 -0.01464,-0.88416 1.53851,-1.08721c1.55317,-0.20305 2.09082,1.20408 2.09082,1.20408z" fill="#000000"/></g><g><g><path d="M246.70442,192.09901c-0.08705,0.05126 -1.68237,0.8095 -1.68237,0.8095c-0.08807,-0.06305 -0.17665,-0.18326 -0.24135,-0.26672l0.95109,-0.53356c0.15473,-0.01156 0.74622,-0.10796 0.90742,-0.14984c0.00697,0.02683 0.07516,0.12369 0.06523,0.14061z" fill="#000000"/><path d="M244.76726,192.64529c-0.13585,-0.13657 -1.81295,-2.12131 -2.56296,-3.18678c-0.08859,-0.12021 -0.4459,-0.5573 -0.83706,-1.01423l2.33712,-0.60724l2.02743,4.2712z" fill="#f01446"/></g><path d="M241.50411,188.69516l2.35753,-0.5839l0.20558,0.4049l-2.23962,0.59623z" fill="#f5cfcf"/><path d="M242.01821,189.34933l2.17892,-0.60911l0.19511,0.36465l-2.03712,0.65819z" fill="#f5cfcf"/></g></g><g><g><path d="M234.97955,187.98204c0.22205,-0.33269 0.23592,-0.72082 0.26366,-1.08123c0.27756,-0.22179 2.12329,0.19406 2.47025,0.33269c-0.13878,0.6931 -0.31919,1.41394 -0.76329,2.00999c-0.3053,-0.01385 -0.69388,-0.44358 -0.95755,-0.59605c-0.31919,-0.20794 -0.69389,-0.40201 -1.01308,-0.66539z" fill="#a0640a"/><path d="M238.62938,185.52845l-0.41634,2.32885l-3.51105,-0.90103l0.52735,-2.3427c0,0 0.38859,-1.41393 2.08167,-1.01192c1.72083,0.40201 1.31838,1.91297 1.31838,1.92682z" fill="#000000"/></g><g><path d="M231.024,188.49454l-0.30532,0.95649c-0.12489,0.1802 -0.34693,0.59605 -0.44407,0.76242l-0.16654,0.01385c0.04164,-0.16634 0.41634,-1.76048 0.55511,-1.81592h0.20818c0.06938,0.02772 0.06938,0.02772 0.15265,0.08317z" fill="#000000"/><path d="M232.53668,190.43523c-0.68002,-0.27724 -1.23512,-0.58223 -1.83187,-0.99808l0.30532,-0.95649c0.66613,0.45745 1.66533,0.76242 2.47024,0.54063c0.48571,-0.16634 0.91594,-0.45745 1.22123,-0.85946c0.05551,-0.0693 0.19429,-0.29109 0.23592,-0.37426l2.38698,1.34462c-0.22205,0.31884 -0.76329,0.95649 -1.08248,1.17827c-0.19428,0.13862 -0.56898,0.24951 -1.01308,0.30496c-0.45794,0.12476 -0.90205,0.15249 -1.36002,0.13862c-0.06938,0 -0.94368,-0.15247 -1.33224,-0.31882z" fill="#f01446"/></g><path d="M236.79714,189.9366l-2.26206,-1.69117l0.22205,-0.26338l2.38697,1.58028z" fill="#f5cfcf"/><path d="M235.79794,190.57426l-1.65145,-1.95456l0.27756,-0.22179l2.01227,1.92683z" fill="#f5cfcf"/></g><path d="M235.22213,184.421l0.48572,-2.07931l6.356,1.23372l0.33307,2.05158c-0.22205,-0.04159 -7.17479,-1.21986 -7.17479,-1.206z" fill="#000000"/><g><path d="M243.00406,172.8531c0.20815,-0.54063 1.81798,-0.85944 1.4849,0.23566c-0.33306,1.09511 -1.4849,0.77627 -1.4849,0.77627c0,0 -0.11103,-0.74854 0,-1.01193z" fill="#824600"/><path d="M244.08651,172.10454c0.01387,1.17827 -0.48573,2.23178 -0.98531,2.77241c-0.86043,0.90103 -2.5535,0.72083 -2.9976,0.58222c-0.81879,-0.26338 -1.59593,-1.4278 -2.0539,-2.50904c-0.13878,-0.41588 -0.26368,-0.84558 -0.36082,-1.28919l3.89964,-2.13476c0,0 1.77634,0.37428 1.87348,0.5129c0.13878,0.16634 0.62451,1.24759 0.62451,2.06546z" fill="#a0640a"/><path d="M237.3003,169.15193l0.12489,-0.08319c-0.19428,-0.48516 -0.59672,-1.23372 0.19431,-1.40006c0.48571,-0.09703 1.1796,0.44358 1.31838,0.87331c0.08327,0.04159 0.08327,0.0416 0.16653,-0.01384c-0.05553,-0.36041 -0.22205,-0.81786 0.08326,-1.09511c0.90206,-0.5129 1.33227,0.76242 1.85961,1.27529l0.12491,-0.01385c0.09714,-0.40201 -0.18042,-0.95648 0.41634,-0.97035c0.40246,-0.01385 0.58287,0.33269 0.77716,0.59607c0.48571,0.6238 1.15186,1.73278 1.15186,1.73278c0,0 0,0.6931 -1.04084,0.87331c-0.51348,0.09703 -1.41552,-0.4436 -2.78942,0.09703c-1.37388,0.54063 -1.36002,2.41199 -1.36002,2.41199c0,0 -1.51268,-2.78628 -1.6931,-3.18826c-0.13878,-0.30498 -0.51348,-1.1783 -0.19428,-1.44166c0.23592,-0.19406 0.65225,0.22179 0.86043,0.34656z" fill="#000000"/><path d="M238.53542,173.768c0,0 -1.15184,0.31882 -1.48491,-0.77629c-0.33306,-1.09511 1.27676,-0.77627 1.48491,-0.23564c0.09714,0.26336 0,1.01193 0,1.01193z" fill="#a0640a"/><path d="M240.68648,173.49074c0.59672,0.05545 1.13796,0.27725 1.69308,0.5129c-0.27756,0.94263 -2.24819,0.34656 -1.69308,-0.5129z" fill="#000000"/><path d="M241.76893,173.19965c-0.33306,-0.59607 0.95757,-1.1367 1.12409,-0.26338c0.11103,0.67924 -0.72163,0.36041 -1.12409,0.26338z" fill="#824600"/><g fill="#000000"><path d="M240.6482,172.60175l-0.08327,0.19406h-0.13878c-0.04164,-0.23566 0.13878,-0.59607 0.22205,-0.19406z"/><path d="M243.6458,173.10079l-0.12491,-0.01385l-0.04164,-0.27724c0.08327,-0.09705 0.08327,-0.09705 0.16653,-0.06932c0.04164,0.1109 0.04164,0.23566 0,0.36042z"/></g></g><g><path d="M250.60189,178.67987c-0.04164,0.1109 -1.3739,1.0258 -2.77555,1.26144c-1.70694,0.27725 -3.58045,-0.12474 -4.35759,-0.30496v-2.49516c0.81877,0.34656 1.76245,0.84559 2.04001,0.94261c0.47186,0.16636 2.10943,0.45745 2.09556,0.4436c0.31918,0.01385 0.63836,0.01385 0.94368,-0.04159c0.23592,-0.04157 0.68,-0.20792 0.8743,-0.26338c0.55511,-0.15247 0.81878,-0.31882 0.86041,-0.23564c0.01387,0.0693 -0.66613,0.38813 -0.58286,0.48518c0.08325,0.09703 0.76327,-0.27726 0.8049,-0.18022c0.06938,0.1109 -0.68002,0.42974 -0.55511,0.55448c0.11101,0.12476 0.74939,-0.40199 0.65225,-0.16634z" fill="#a0640a"/><path d="M244.77326,177.34912c0,0.05545 -0.72165,2.91103 -0.72165,2.91103c0,0 -2.17881,-0.6931 -2.73392,-0.97033c0,0 -2.53961,-1.12284 -1.97062,-2.57836c0.56898,-1.45551 2.19268,-0.65153 2.19268,-0.65153c-0.02777,-0.02772 3.06698,1.206 3.23352,1.28919z" fill="#be0a3c"/><path d="M248.78392,178.90166c-0.33306,-0.01385 -0.41634,-0.36041 -0.41634,-0.36041c0,0 0.8743,-0.81786 0.98531,-0.73469c0.09714,0.08317 -0.08327,0.30496 -0.22205,0.5545c0.34695,0.24952 0,0.56832 -0.34693,0.54061z" fill="#824600"/></g><g><path d="M231.16983,181.85044c-0.4441,-0.12474 0.18041,-1.85751 0.27756,-2.00998c0.08327,0.1802 -0.08327,1.91297 -0.27756,2.00998z" fill="#824600"/><path d="M236.36011,174.83622l-0.48574,2.49519c-0.72163,-0.12476 -1.54043,0.12474 -2.09553,0.49903c-0.4302,0.30496 -1.08246,1.05352 -1.41552,1.45551c-0.74939,0.85946 -1.99839,3.09124 -2.08166,3.03579c-0.08327,-0.05545 0.33306,-0.79011 0.22205,-0.87331c-0.11103,-0.08317 -0.51348,0.97035 -0.65225,0.85945c-0.13878,-0.1109 0.38857,-0.95648 0.12489,-1.05352c-0.26366,-0.09703 -0.48572,0.77629 -0.58286,0.63766c-0.09714,-0.13862 1.13796,-3.24373 2.01227,-4.57449c0.45797,-0.70697 1.08245,-1.30304 1.81798,-1.7189c0.59674,-0.36041 2.41472,-0.83171 3.13638,-0.76242z" fill="#a0640a"/><path d="M241.2173,175.87588c0,0 0.61062,0.67924 -0.45796,1.87139c-1.06858,1.19214 -2.87268,0.33269 -2.87268,0.33269c-1.12411,-0.48518 -2.40085,-0.54063 -2.40085,-0.54063l-0.16653,-2.814c0,0 0.54123,-0.20792 2.04003,-0.08317c1.49881,0.12476 3.81637,1.21987 3.85801,1.23372z" fill="#f01446"/></g><path d="M242.31365,183.99127l-7.46622,-0.65152c0,0 1.40166,-3.92297 2.17881,-5.50324c0.15265,-0.33269 1.1796,-1.46938 1.23511,-1.51097c0.52736,-0.38813 1.30451,-0.56834 1.94289,-0.62379c1.91512,-0.16634 2.95596,1.91297 2.91433,3.60414c-0.02776,0.90103 -0.81879,4.68537 -0.8049,4.68537z" fill="#f01446"/></g></g></svg>