<svg xmlns="http://www.w3.org/2000/svg" fill="none" viewBox="0 0 53 16" height="16" width="53">
<rect stroke="black" fill="#E46D82" rx="4.5" height="15" width="52" y="0.5" x="0.5"></rect>
<path fill="black" d="M6.17682 10.015C6.06682 10.015 5.94348 10.0083 5.80682 9.995C5.67348 9.98167 5.54348 9.95667 5.41682 9.92C5.29348 9.88 5.19015 9.82667 5.10682 9.76C5.02682 9.69 4.98682 9.6 4.98682 9.49C4.98682 9.37667 5.02182 9.29167 5.09182 9.235C5.16515 9.17833 5.28348 9.15 5.44682 9.15C5.56015 9.15 5.68682 9.165 5.82682 9.195C5.97015 9.225 6.10682 9.24 6.23682 9.24C6.43015 9.24 6.57182 9.21 6.66182 9.15C6.75515 9.09 6.80182 9.00833 6.80182 8.905C6.80182 8.84167 6.78348 8.785 6.74682 8.735C6.71348 8.685 6.64515 8.635 6.54182 8.585C6.43848 8.535 6.28348 8.48 6.07682 8.42C5.84015 8.35667 5.64848 8.28667 5.50182 8.21C5.35515 8.13 5.24848 8.035 5.18182 7.925C5.11515 7.815 5.08182 7.685 5.08182 7.535C5.08182 7.35167 5.11348 7.19333 5.17682 7.06C5.24348 6.92333 5.33182 6.80833 5.44182 6.715C5.55182 6.61833 5.67515 6.54167 5.81182 6.485C5.94848 6.42833 6.08682 6.38667 6.22682 6.36C6.37015 6.33333 6.50682 6.32 6.63682 6.32C6.92348 6.32 7.15682 6.365 7.33682 6.455C7.52015 6.545 7.61182 6.665 7.61182 6.815C7.61182 6.92167 7.57682 7.00833 7.50682 7.075C7.44015 7.14167 7.33682 7.175 7.19682 7.175C7.13682 7.175 7.06515 7.16667 6.98182 7.15C6.89848 7.13333 6.80682 7.11667 6.70682 7.1C6.60682 7.08333 6.49682 7.075 6.37682 7.075C6.17348 7.075 6.01682 7.10667 5.90682 7.17C5.79682 7.23333 5.74182 7.335 5.74182 7.475C5.74182 7.535 5.75682 7.59 5.78682 7.64C5.82015 7.69 5.88848 7.74167 5.99182 7.795C6.09515 7.84833 6.25348 7.91 6.46682 7.98C6.73015 8.06 6.93682 8.14833 7.08682 8.245C7.23682 8.33833 7.34348 8.445 7.40682 8.565C7.47015 8.685 7.50182 8.82 7.50182 8.97C7.50182 9.17667 7.44515 9.36 7.33182 9.52C7.22182 9.67667 7.06682 9.79833 6.86682 9.885C6.67015 9.97167 6.44015 10.015 6.17682 10.015ZM9.44279 10.04C9.07279 10.04 8.77779 9.985 8.55779 9.875C8.33779 9.765 8.17946 9.60667 8.08279 9.4C7.98613 9.19333 7.93779 8.94667 7.93779 8.66C7.93779 8.29667 8.00446 7.98833 8.13779 7.735C8.27446 7.47833 8.46113 7.28167 8.69779 7.145C8.93779 7.00833 9.20946 6.94 9.51279 6.94C9.86946 6.94 10.1311 7.02333 10.2978 7.19C10.4645 7.35333 10.5478 7.56833 10.5478 7.835C10.5478 8.04833 10.4911 8.23333 10.3778 8.39C10.2678 8.54333 10.1145 8.66167 9.91779 8.745C9.72113 8.82833 9.49446 8.87 9.23779 8.87C9.09446 8.87 8.95613 8.85167 8.82279 8.815C8.68946 8.77833 8.56946 8.72833 8.46279 8.665L8.58279 8.445C8.57279 8.525 8.56779 8.605 8.56779 8.685C8.56779 8.91833 8.64113 9.08667 8.78779 9.19C8.93446 9.29 9.14279 9.34 9.41279 9.34C9.62279 9.34 9.79113 9.32167 9.91779 9.285C10.0445 9.24833 10.1511 9.21333 10.2378 9.18C10.3245 9.14333 10.4095 9.125 10.4928 9.125C10.5395 9.125 10.5811 9.13833 10.6178 9.165C10.6578 9.18833 10.6895 9.22333 10.7128 9.27C10.7395 9.31667 10.7528 9.37333 10.7528 9.44C10.7528 9.54 10.7028 9.63667 10.6028 9.73C10.5028 9.82 10.3545 9.895 10.1578 9.955C9.96446 10.0117 9.72613 10.04 9.44279 10.04ZM9.15279 8.405C9.38946 8.405 9.57946 8.355 9.72279 8.255C9.86613 8.155 9.93779 8.03167 9.93779 7.885C9.93779 7.76833 9.89779 7.67333 9.81779 7.6C9.74113 7.52333 9.61946 7.485 9.45279 7.485C9.29613 7.485 9.15446 7.515 9.02779 7.575C8.90446 7.63167 8.80779 7.70667 8.73779 7.8C8.66779 7.89333 8.63279 7.995 8.63279 8.105C8.63279 8.20167 8.67779 8.27667 8.76779 8.33C8.86113 8.38 8.98946 8.405 9.15279 8.405ZM13.3472 7.71C13.3805 7.57333 13.4389 7.45 13.5222 7.34C13.6089 7.23 13.7122 7.14333 13.8322 7.08C13.9555 7.01333 14.0905 6.98 14.2372 6.98C14.4105 6.98 14.5639 7.02167 14.6972 7.105C14.8305 7.18833 14.9355 7.325 15.0122 7.515C15.0922 7.705 15.1322 7.95833 15.1322 8.275C15.1322 8.43833 15.1255 8.60333 15.1122 8.77C15.0989 8.93667 15.0822 9.09167 15.0622 9.235C15.0422 9.37833 15.0205 9.49833 14.9972 9.595C14.9639 9.72833 14.9122 9.83 14.8422 9.9C14.7755 9.97 14.6905 10.005 14.5872 10.005C14.5005 10.005 14.4322 9.96667 14.3822 9.89C14.3322 9.81333 14.3072 9.70333 14.3072 9.56C14.3072 9.49333 14.3155 9.40833 14.3322 9.305C14.3489 9.19833 14.3672 9.08333 14.3872 8.96C14.4072 8.83333 14.4255 8.705 14.4422 8.575C14.4589 8.445 14.4672 8.32167 14.4672 8.205C14.4672 8.03167 14.4322 7.89833 14.3622 7.805C14.2922 7.70833 14.1939 7.66 14.0672 7.66C13.9272 7.66 13.8105 7.73333 13.7172 7.88C13.6272 8.02333 13.5739 8.23333 13.5572 8.51C13.5439 8.75667 13.5322 8.97667 13.5222 9.17C13.5122 9.36 13.4872 9.51667 13.4472 9.64C13.4205 9.72667 13.3822 9.79167 13.3322 9.835C13.2855 9.87833 13.2222 9.9 13.1422 9.9C13.0522 9.9 12.9805 9.86667 12.9272 9.8C12.8772 9.73333 12.8489 9.62833 12.8422 9.485C12.8355 9.365 12.8339 9.22333 12.8372 9.06C12.8405 8.89667 12.8422 8.735 12.8422 8.575C12.8455 8.41167 12.8439 8.27667 12.8372 8.17C12.8239 7.95667 12.7855 7.8 12.7222 7.7C12.6622 7.6 12.5705 7.55 12.4472 7.55C12.3039 7.55 12.1889 7.61667 12.1022 7.75C12.0189 7.88333 11.9672 8.06833 11.9472 8.305C11.9405 8.40167 11.9372 8.52167 11.9372 8.665C11.9405 8.805 11.9439 8.945 11.9472 9.085C11.9505 9.225 11.9489 9.34167 11.9422 9.435C11.9389 9.635 11.9072 9.77833 11.8472 9.865C11.7905 9.95167 11.7105 9.995 11.6072 9.995C11.4839 9.995 11.3939 9.955 11.3372 9.875C11.2839 9.795 11.2489 9.66667 11.2322 9.49C11.2189 9.33333 11.2089 9.17833 11.2022 9.025C11.1955 8.86833 11.1922 8.71333 11.1922 8.56C11.1922 8.40333 11.1955 8.23333 11.2022 8.05C11.2122 7.86667 11.2255 7.69333 11.2422 7.53C11.2622 7.36333 11.2972 7.22333 11.3472 7.11C11.3972 6.99667 11.4805 6.94 11.5972 6.94C11.6939 6.94 11.7622 6.98833 11.8022 7.085C11.8422 7.17833 11.8622 7.32333 11.8622 7.52C11.8622 7.58667 11.8572 7.64833 11.8472 7.705L11.8322 7.605C11.8989 7.38833 12.0055 7.22 12.1522 7.1C12.2989 6.97667 12.4622 6.915 12.6422 6.915C12.8789 6.915 13.0639 6.99167 13.1972 7.145C13.3305 7.295 13.4039 7.50333 13.4172 7.77L13.3472 7.71ZM16.123 10.05C16.0497 10.05 15.9897 10.025 15.943 9.975C15.8997 9.925 15.8647 9.85333 15.838 9.76C15.8113 9.62333 15.788 9.445 15.768 9.225C15.7513 9.00167 15.743 8.76333 15.743 8.51C15.743 8.36667 15.7463 8.205 15.753 8.025C15.7597 7.845 15.768 7.66333 15.778 7.48C15.7913 7.29333 15.8047 7.12 15.818 6.96C15.8347 6.8 15.8513 6.67 15.868 6.57C15.8947 6.42333 15.933 6.30833 15.983 6.225C16.0363 6.13833 16.1197 6.095 16.233 6.095C16.3497 6.095 16.4347 6.14 16.488 6.23C16.5413 6.31667 16.568 6.425 16.568 6.555C16.568 6.70167 16.5563 6.875 16.533 7.075C16.513 7.275 16.4813 7.47833 16.438 7.685L16.338 7.805C16.3747 7.665 16.4347 7.53667 16.518 7.42C16.6013 7.30333 16.7063 7.21167 16.833 7.145C16.9597 7.075 17.1063 7.04 17.273 7.04C17.5997 7.04 17.8597 7.15667 18.053 7.39C18.2497 7.62 18.348 7.98 18.348 8.47C18.348 8.81333 18.2963 9.1 18.193 9.33C18.093 9.56 17.9547 9.73333 17.778 9.85C17.6047 9.96333 17.4063 10.02 17.183 10.02C16.973 10.02 16.7913 9.95833 16.638 9.835C16.488 9.71167 16.3913 9.53333 16.348 9.3L16.418 9.355C16.4047 9.595 16.3713 9.77167 16.318 9.885C16.268 9.995 16.203 10.05 16.123 10.05ZM17.038 9.44C17.2047 9.44 17.3513 9.365 17.478 9.215C17.6047 9.065 17.668 8.83 17.668 8.51C17.668 8.24333 17.618 8.02667 17.518 7.86C17.4213 7.69333 17.258 7.61 17.028 7.61C16.8413 7.61 16.6913 7.685 16.578 7.835C16.4647 7.98167 16.408 8.205 16.408 8.505C16.408 8.77833 16.4647 9.00333 16.578 9.18C16.6913 9.35333 16.8447 9.44 17.038 9.44ZM21.1033 9.97C21.0133 9.97 20.9433 9.94 20.8933 9.88C20.8467 9.81667 20.815 9.73667 20.7983 9.64C20.7817 9.54 20.7733 9.435 20.7733 9.325L20.7983 9.305C20.765 9.44833 20.7 9.57167 20.6033 9.675C20.5067 9.77833 20.395 9.85833 20.2683 9.915C20.1417 9.96833 20.015 9.995 19.8883 9.995C19.7183 9.995 19.5633 9.955 19.4233 9.875C19.2833 9.795 19.175 9.67167 19.0983 9.505C19.0217 9.32833 18.9617 9.10667 18.9183 8.84C18.875 8.57 18.8533 8.29333 18.8533 8.01C18.8533 7.85667 18.86 7.715 18.8733 7.585C18.8867 7.455 18.9083 7.34833 18.9383 7.265C18.965 7.17833 19.005 7.115 19.0583 7.075C19.1117 7.03167 19.18 7.01 19.2633 7.01C19.36 7.01 19.435 7.04833 19.4883 7.125C19.545 7.19833 19.58 7.30167 19.5933 7.435C19.6067 7.545 19.615 7.68167 19.6183 7.845C19.625 8.005 19.63 8.16667 19.6333 8.33C19.64 8.49 19.6483 8.625 19.6583 8.735C19.6783 8.935 19.73 9.08333 19.8133 9.18C19.8967 9.27333 19.9983 9.32 20.1183 9.32C20.295 9.32 20.43 9.25333 20.5233 9.12C20.6167 8.98667 20.6633 8.8 20.6633 8.56C20.6633 8.44 20.6567 8.305 20.6433 8.155C20.63 8.00167 20.615 7.85333 20.5983 7.71C20.585 7.56667 20.5783 7.44833 20.5783 7.355C20.5783 7.19833 20.605 7.08667 20.6583 7.02C20.7117 6.95 20.785 6.915 20.8783 6.915C20.9583 6.915 21.025 6.93667 21.0783 6.98C21.135 7.02333 21.18 7.08333 21.2133 7.16C21.26 7.26 21.3 7.39667 21.3333 7.57C21.3667 7.74333 21.3933 7.94 21.4133 8.16C21.4333 8.38 21.4433 8.61167 21.4433 8.855C21.4433 9.22833 21.4183 9.50833 21.3683 9.695C21.3183 9.87833 21.23 9.97 21.1033 9.97ZM22.5616 6.89C22.6682 6.89 22.7399 6.93333 22.7766 7.02C22.8166 7.10667 22.8366 7.235 22.8366 7.405C22.8366 7.445 22.8332 7.48833 22.8266 7.535C22.8232 7.57833 22.8166 7.61833 22.8066 7.655L22.7966 7.555C22.8766 7.33833 22.9999 7.17 23.1666 7.05C23.3332 6.92667 23.5099 6.865 23.6966 6.865C23.9032 6.865 24.0749 6.92333 24.2116 7.04C24.3516 7.15667 24.4549 7.32 24.5216 7.53C24.5916 7.74 24.6266 7.98833 24.6266 8.275C24.6266 8.45167 24.6182 8.62667 24.6016 8.8C24.5882 8.97 24.5682 9.12667 24.5416 9.27C24.5182 9.41 24.4916 9.525 24.4616 9.615C24.4216 9.72833 24.3699 9.81333 24.3066 9.87C24.2432 9.92333 24.1682 9.95 24.0816 9.95C23.9949 9.95 23.9282 9.91833 23.8816 9.855C23.8349 9.79167 23.8116 9.70667 23.8116 9.6C23.8116 9.48667 23.8199 9.35 23.8366 9.19C23.8532 9.02667 23.8682 8.86167 23.8816 8.695C23.8982 8.525 23.9066 8.37167 23.9066 8.235C23.9066 7.76833 23.7532 7.535 23.4466 7.535C23.2832 7.535 23.1466 7.60833 23.0366 7.755C22.9266 7.89833 22.8532 8.10333 22.8166 8.37C22.8066 8.46 22.8016 8.57167 22.8016 8.705C22.8016 8.83833 22.8016 8.97167 22.8016 9.105C22.8049 9.235 22.8016 9.345 22.7916 9.435C22.7782 9.635 22.7399 9.77833 22.6766 9.865C22.6166 9.95167 22.5332 9.995 22.4266 9.995C22.3032 9.995 22.2099 9.93833 22.1466 9.825C22.0832 9.70833 22.0516 9.51333 22.0516 9.24C22.0516 9.1 22.0549 8.94333 22.0616 8.77C22.0682 8.59667 22.0766 8.42333 22.0866 8.25C22.0999 8.07333 22.1149 7.91333 22.1316 7.77C22.1649 7.5 22.2132 7.28667 22.2766 7.13C22.3399 6.97 22.4349 6.89 22.5616 6.89ZM25.7302 10.995C25.5502 10.995 25.4602 10.8983 25.4602 10.705C25.4602 10.5983 25.4968 10.4717 25.5702 10.325C25.6435 10.1783 25.7502 10.02 25.8902 9.85C26.0335 9.68 26.2068 9.50667 26.4102 9.33L26.4052 9.37C25.9618 8.93 25.6252 8.54333 25.3952 8.21C25.1685 7.87667 25.0552 7.58833 25.0552 7.345C25.0552 7.225 25.0852 7.13167 25.1452 7.065C25.2085 6.99833 25.2918 6.965 25.3952 6.965C25.6152 6.965 25.8335 7.125 26.0502 7.445C26.2668 7.765 26.4718 8.25167 26.6652 8.905H26.6852C26.8118 8.21833 26.9468 7.715 27.0902 7.395C27.2335 7.07167 27.4035 6.91 27.6002 6.91C27.6935 6.91 27.7618 6.94333 27.8052 7.01C27.8518 7.07333 27.8752 7.16333 27.8752 7.28C27.8752 7.37667 27.8535 7.505 27.8102 7.665C27.7702 7.82167 27.7118 8 27.6352 8.2C27.5618 8.39667 27.4752 8.60167 27.3752 8.815C27.2785 9.02833 27.1718 9.23833 27.0552 9.445C26.7585 9.98167 26.5052 10.3733 26.2952 10.62C26.0852 10.87 25.8968 10.995 25.7302 10.995ZM28.7465 6.165C28.8798 6.165 28.9748 6.20167 29.0315 6.275C29.0915 6.34833 29.1215 6.43333 29.1215 6.53C29.1215 6.65 29.0848 6.74333 29.0115 6.81C28.9415 6.87333 28.8415 6.905 28.7115 6.905C28.5848 6.905 28.4898 6.87 28.4265 6.8C28.3631 6.72667 28.3315 6.64167 28.3315 6.545C28.3315 6.41833 28.3698 6.32333 28.4465 6.26C28.5231 6.19667 28.6231 6.165 28.7465 6.165ZM28.7765 7.28C28.8831 7.28 28.9665 7.38 29.0265 7.58C29.0898 7.78 29.1215 8.09833 29.1215 8.535C29.1215 9.07167 29.0831 9.45833 29.0065 9.695C28.9298 9.93167 28.8131 10.05 28.6565 10.05C28.5365 10.05 28.4481 9.96333 28.3915 9.79C28.3348 9.61333 28.3065 9.30667 28.3065 8.87C28.3065 8.33333 28.3498 7.935 28.4365 7.675C28.5265 7.41167 28.6398 7.28 28.7765 7.28ZM30.0722 10.05C30.0089 10.05 29.9572 10.0317 29.9172 9.995C29.8772 9.955 29.8489 9.89833 29.8322 9.825C29.8056 9.70167 29.7822 9.52333 29.7622 9.29C29.7422 9.05667 29.7322 8.79833 29.7322 8.515C29.7322 8.165 29.7439 7.82833 29.7672 7.505C29.7939 7.18167 29.8272 6.91667 29.8672 6.71C29.9106 6.48667 29.9639 6.32333 30.0272 6.22C30.0906 6.11333 30.1739 6.06 30.2772 6.06C30.3706 6.06 30.4422 6.10333 30.4922 6.19C30.5422 6.27333 30.5672 6.41833 30.5672 6.625C30.5672 6.83167 30.5589 7.05333 30.5422 7.29C30.5289 7.52667 30.5056 7.78 30.4722 8.05H30.4922C30.7089 7.75667 30.9106 7.52167 31.0972 7.345C31.2872 7.16833 31.4606 7.04 31.6172 6.96C31.7772 6.88 31.9189 6.84 32.0422 6.84C32.1389 6.84 32.2106 6.87 32.2572 6.93C32.3039 6.99 32.3272 7.06333 32.3272 7.15C32.3272 7.32 32.1906 7.51 31.9172 7.72C31.6472 7.93 31.2572 8.145 30.7472 8.365L30.7522 8.285C31.0689 8.44833 31.3406 8.62 31.5672 8.8C31.7972 8.97667 31.9722 9.145 32.0922 9.305C32.2156 9.46167 32.2772 9.59333 32.2772 9.7C32.2772 9.78667 32.2489 9.85833 32.1922 9.915C32.1389 9.96833 32.0606 9.995 31.9572 9.995C31.8272 9.995 31.6822 9.94667 31.5222 9.85C31.3656 9.75 31.2022 9.60167 31.0322 9.405C30.8622 9.20833 30.6922 8.96167 30.5222 8.665H30.5022C30.4989 8.875 30.4856 9.08 30.4622 9.28C30.4422 9.47667 30.4156 9.63833 30.3822 9.765C30.3589 9.85167 30.3222 9.92167 30.2722 9.975C30.2256 10.025 30.1589 10.05 30.0722 10.05ZM34.9153 10.05C34.802 10.05 34.7236 10.0067 34.6803 9.92C34.6403 9.83 34.617 9.68833 34.6103 9.495L34.6603 9.52C34.4736 9.88333 34.1203 10.065 33.6003 10.065C33.3636 10.065 33.167 10.0233 33.0103 9.94C32.8536 9.85333 32.737 9.74 32.6603 9.6C32.587 9.45667 32.5503 9.30167 32.5503 9.135C32.5503 8.84833 32.6503 8.62167 32.8503 8.455C33.0503 8.285 33.3153 8.2 33.6453 8.2C33.862 8.2 34.0503 8.23167 34.2103 8.295C34.3703 8.35833 34.507 8.44667 34.6203 8.56L34.5353 8.55C34.512 8.21333 34.4386 7.97333 34.3153 7.83C34.1953 7.68333 34.0236 7.61 33.8003 7.61C33.6703 7.61 33.5503 7.63 33.4403 7.67C33.3303 7.71 33.2286 7.75167 33.1353 7.795C33.0453 7.835 32.9603 7.855 32.8803 7.855C32.8003 7.855 32.737 7.82833 32.6903 7.775C32.647 7.72167 32.6253 7.65333 32.6253 7.57C32.6253 7.45 32.682 7.33667 32.7953 7.23C32.912 7.12333 33.0653 7.03667 33.2553 6.97C33.4453 6.90333 33.652 6.87 33.8753 6.87C34.1453 6.87 34.377 6.935 34.5703 7.065C34.7636 7.195 34.9103 7.385 35.0103 7.635C35.097 7.84833 35.1586 8.08667 35.1953 8.35C35.232 8.61333 35.2503 8.895 35.2503 9.195C35.2503 9.42167 35.2386 9.59667 35.2153 9.72C35.192 9.84333 35.1553 9.93 35.1053 9.98C35.0586 10.0267 34.9953 10.05 34.9153 10.05ZM33.8103 9.49C33.9203 9.49 34.032 9.475 34.1453 9.445C34.2586 9.41167 34.3536 9.36333 34.4303 9.3C34.507 9.23667 34.5453 9.15833 34.5453 9.065C34.5453 8.985 34.512 8.92 34.4453 8.87C34.382 8.81667 34.297 8.77667 34.1903 8.75C34.087 8.72333 33.9753 8.71 33.8553 8.71C33.652 8.71 33.497 8.745 33.3903 8.815C33.287 8.885 33.2353 8.97833 33.2353 9.095C33.2353 9.22167 33.2836 9.32 33.3803 9.39C33.4803 9.45667 33.6236 9.49 33.8103 9.49ZM36.3702 6.89C36.4768 6.89 36.5485 6.93333 36.5852 7.02C36.6252 7.10667 36.6452 7.235 36.6452 7.405C36.6452 7.445 36.6418 7.48833 36.6352 7.535C36.6318 7.57833 36.6252 7.61833 36.6152 7.655L36.6052 7.555C36.6852 7.33833 36.8085 7.17 36.9752 7.05C37.1418 6.92667 37.3185 6.865 37.5052 6.865C37.7118 6.865 37.8835 6.92333 38.0202 7.04C38.1602 7.15667 38.2635 7.32 38.3302 7.53C38.4002 7.74 38.4352 7.98833 38.4352 8.275C38.4352 8.45167 38.4268 8.62667 38.4102 8.8C38.3968 8.97 38.3768 9.12667 38.3502 9.27C38.3268 9.41 38.3002 9.525 38.2702 9.615C38.2302 9.72833 38.1785 9.81333 38.1152 9.87C38.0518 9.92333 37.9768 9.95 37.8902 9.95C37.8035 9.95 37.7368 9.91833 37.6902 9.855C37.6435 9.79167 37.6202 9.70667 37.6202 9.6C37.6202 9.48667 37.6285 9.35 37.6452 9.19C37.6618 9.02667 37.6768 8.86167 37.6902 8.695C37.7068 8.525 37.7152 8.37167 37.7152 8.235C37.7152 7.76833 37.5618 7.535 37.2552 7.535C37.0918 7.535 36.9552 7.60833 36.8452 7.755C36.7352 7.89833 36.6618 8.10333 36.6252 8.37C36.6152 8.46 36.6102 8.57167 36.6102 8.705C36.6102 8.83833 36.6102 8.97167 36.6102 9.105C36.6135 9.235 36.6102 9.345 36.6002 9.435C36.5868 9.635 36.5485 9.77833 36.4852 9.865C36.4252 9.95167 36.3418 9.995 36.2352 9.995C36.1118 9.995 36.0185 9.93833 35.9552 9.825C35.8918 9.70833 35.8602 9.51333 35.8602 9.24C35.8602 9.1 35.8635 8.94333 35.8702 8.77C35.8768 8.59667 35.8852 8.42333 35.8952 8.25C35.9085 8.07333 35.9235 7.91333 35.9402 7.77C35.9735 7.5 36.0218 7.28667 36.0852 7.13C36.1485 6.97 36.2435 6.89 36.3702 6.89ZM41.0547 10.015C40.9447 10.015 40.8214 10.0083 40.6847 9.995C40.5514 9.98167 40.4214 9.95667 40.2947 9.92C40.1714 9.88 40.0681 9.82667 39.9847 9.76C39.9047 9.69 39.8647 9.6 39.8647 9.49C39.8647 9.37667 39.8997 9.29167 39.9697 9.235C40.0431 9.17833 40.1614 9.15 40.3247 9.15C40.4381 9.15 40.5647 9.165 40.7047 9.195C40.8481 9.225 40.9847 9.24 41.1147 9.24C41.3081 9.24 41.4497 9.21 41.5397 9.15C41.6331 9.09 41.6797 9.00833 41.6797 8.905C41.6797 8.84167 41.6614 8.785 41.6247 8.735C41.5914 8.685 41.5231 8.635 41.4197 8.585C41.3164 8.535 41.1614 8.48 40.9547 8.42C40.7181 8.35667 40.5264 8.28667 40.3797 8.21C40.2331 8.13 40.1264 8.035 40.0597 7.925C39.9931 7.815 39.9597 7.685 39.9597 7.535C39.9597 7.35167 39.9914 7.19333 40.0547 7.06C40.1214 6.92333 40.2097 6.80833 40.3197 6.715C40.4297 6.61833 40.5531 6.54167 40.6897 6.485C40.8264 6.42833 40.9647 6.38667 41.1047 6.36C41.2481 6.33333 41.3847 6.32 41.5147 6.32C41.8014 6.32 42.0347 6.365 42.2147 6.455C42.3981 6.545 42.4897 6.665 42.4897 6.815C42.4897 6.92167 42.4547 7.00833 42.3847 7.075C42.3181 7.14167 42.2147 7.175 42.0747 7.175C42.0147 7.175 41.9431 7.16667 41.8597 7.15C41.7764 7.13333 41.6847 7.11667 41.5847 7.1C41.4847 7.08333 41.3747 7.075 41.2547 7.075C41.0514 7.075 40.8947 7.10667 40.7847 7.17C40.6747 7.23333 40.6197 7.335 40.6197 7.475C40.6197 7.535 40.6347 7.59 40.6647 7.64C40.6981 7.69 40.7664 7.74167 40.8697 7.795C40.9731 7.84833 41.1314 7.91 41.3447 7.98C41.6081 8.06 41.8147 8.14833 41.9647 8.245C42.1147 8.33833 42.2214 8.445 42.2847 8.565C42.3481 8.685 42.3797 8.82 42.3797 8.97C42.3797 9.17667 42.3231 9.36 42.2097 9.52C42.0997 9.67667 41.9447 9.79833 41.7447 9.885C41.5481 9.97167 41.3181 10.015 41.0547 10.015ZM43.3607 6.165C43.4941 6.165 43.5891 6.20167 43.6457 6.275C43.7057 6.34833 43.7357 6.43333 43.7357 6.53C43.7357 6.65 43.6991 6.74333 43.6257 6.81C43.5557 6.87333 43.4557 6.905 43.3257 6.905C43.1991 6.905 43.1041 6.87 43.0407 6.8C42.9774 6.72667 42.9457 6.64167 42.9457 6.545C42.9457 6.41833 42.9841 6.32333 43.0607 6.26C43.1374 6.19667 43.2374 6.165 43.3607 6.165ZM43.3907 7.28C43.4974 7.28 43.5807 7.38 43.6407 7.58C43.7041 7.78 43.7357 8.09833 43.7357 8.535C43.7357 9.07167 43.6974 9.45833 43.6207 9.695C43.5441 9.93167 43.4274 10.05 43.2707 10.05C43.1507 10.05 43.0624 9.96333 43.0057 9.79C42.9491 9.61333 42.9207 9.30667 42.9207 8.87C42.9207 8.33333 42.9641 7.935 43.0507 7.675C43.1407 7.41167 43.2541 7.28 43.3907 7.28ZM45.6115 6.87C45.9082 6.87 46.1215 6.91333 46.2515 7C46.3815 7.08667 46.4465 7.19833 46.4465 7.335C46.4465 7.415 46.4182 7.48167 46.3615 7.535C46.3082 7.585 46.2315 7.61 46.1315 7.61C46.0282 7.61 45.9198 7.595 45.8065 7.565C45.6965 7.535 45.5682 7.52 45.4215 7.52C45.2515 7.52 45.1248 7.55333 45.0415 7.62C44.9582 7.68667 44.9165 7.77167 44.9165 7.875C44.9165 7.97167 44.9532 8.04833 45.0265 8.105C45.1032 8.15833 45.2482 8.19833 45.4615 8.225C45.6982 8.25167 45.8932 8.295 46.0465 8.355C46.2032 8.41167 46.3198 8.49833 46.3965 8.615C46.4732 8.72833 46.5115 8.885 46.5115 9.085C46.5115 9.40167 46.3998 9.63667 46.1765 9.79C45.9532 9.94333 45.6448 10.02 45.2515 10.02C45.0015 10.02 44.8032 10 44.6565 9.96C44.5098 9.92 44.4032 9.86333 44.3365 9.79C44.2732 9.71667 44.2415 9.63 44.2415 9.53C44.2415 9.44333 44.2698 9.37667 44.3265 9.33C44.3865 9.28 44.4565 9.255 44.5365 9.255C44.6132 9.255 44.6948 9.265 44.7815 9.285C44.8682 9.30167 44.9598 9.32 45.0565 9.34C45.1532 9.36 45.2532 9.37 45.3565 9.37C45.6898 9.37 45.8565 9.26667 45.8565 9.06C45.8565 8.99 45.8398 8.93333 45.8065 8.89C45.7732 8.84667 45.7132 8.81167 45.6265 8.785C45.5398 8.755 45.4132 8.73167 45.2465 8.715C45.0465 8.695 44.8732 8.66167 44.7265 8.615C44.5798 8.565 44.4665 8.485 44.3865 8.375C44.3065 8.26167 44.2665 8.10667 44.2665 7.91C44.2665 7.6 44.3832 7.35 44.6165 7.16C44.8498 6.96667 45.1815 6.87 45.6115 6.87ZM47.4574 6.165C47.5907 6.165 47.6857 6.20167 47.7424 6.275C47.8024 6.34833 47.8324 6.43333 47.8324 6.53C47.8324 6.65 47.7957 6.74333 47.7224 6.81C47.6524 6.87333 47.5524 6.905 47.4224 6.905C47.2957 6.905 47.2007 6.87 47.1374 6.8C47.0741 6.72667 47.0424 6.64167 47.0424 6.545C47.0424 6.41833 47.0807 6.32333 47.1574 6.26C47.2341 6.19667 47.3341 6.165 47.4574 6.165ZM47.4874 7.28C47.5941 7.28 47.6774 7.38 47.7374 7.58C47.8007 7.78 47.8324 8.09833 47.8324 8.535C47.8324 9.07167 47.7941 9.45833 47.7174 9.695C47.6407 9.93167 47.5241 10.05 47.3674 10.05C47.2474 10.05 47.1591 9.96333 47.1024 9.79C47.0457 9.61333 47.0174 9.30667 47.0174 8.87C47.0174 8.33333 47.0607 7.935 47.1474 7.675C47.2374 7.41167 47.3507 7.28 47.4874 7.28Z"></path>
</svg>
