<svg width="256" height="17" viewBox="0 0 256 17" fill="none" xmlns="http://www.w3.org/2000/svg">
<path d="M4.83956 1.496C6.1089 1.496 7.04223 1.82133 7.63956 2.472C8.24756 3.12267 8.55156 3.976 8.55156 5.032C8.55156 5.75733 8.3809 6.38667 8.03956 6.92C7.7089 7.45333 7.25556 7.86933 6.67956 8.168C6.10356 8.456 5.4529 8.6 4.72756 8.6C4.38623 8.6 4.02356 8.56267 3.63956 8.488C3.26623 8.41333 2.8769 8.26933 2.47156 8.056L2.55156 7.848C2.6369 8.11467 2.70623 8.44533 2.75956 8.84C2.82356 9.224 2.87156 9.624 2.90356 10.04C2.94623 10.4453 2.96756 10.8187 2.96756 11.16C2.96756 11.7893 2.8609 12.2747 2.64756 12.616C2.4449 12.9467 2.1409 13.112 1.73556 13.112C1.39423 13.112 1.12223 13.0053 0.919563 12.792C0.727563 12.5787 0.594229 12.2267 0.519563 11.736C0.444896 11.2453 0.407562 10.5893 0.407562 9.768C0.407562 8.18933 0.476896 6.84533 0.615563 5.736C0.764896 4.616 1.01556 3.736 1.36756 3.096C1.6449 2.60533 2.07156 2.216 2.64756 1.928C3.23423 1.64 3.9649 1.496 4.83956 1.496ZM4.53556 6.712C5.17556 6.712 5.6929 6.54133 6.08756 6.2C6.4929 5.85867 6.69556 5.36267 6.69556 4.712C6.69556 4.28533 6.55156 3.93333 6.26356 3.656C5.98623 3.368 5.5489 3.224 4.95156 3.224C4.51423 3.224 4.13556 3.32533 3.81556 3.528C3.49556 3.72 3.25023 3.992 3.07956 4.344C2.91956 4.68533 2.83956 5.08 2.83956 5.528C2.83956 5.944 2.9729 6.248 3.23956 6.44C3.5169 6.62133 3.9489 6.712 4.53556 6.712ZM11.3293 0.728C11.756 0.728 12.06 0.845333 12.2413 1.08C12.4333 1.31467 12.5293 1.58667 12.5293 1.896C12.5293 2.28 12.412 2.57867 12.1773 2.792C11.9533 2.99467 11.6333 3.096 11.2173 3.096C10.812 3.096 10.508 2.984 10.3053 2.76C10.1026 2.52533 10.0013 2.25333 10.0013 1.944C10.0013 1.53867 10.124 1.23467 10.3693 1.032C10.6146 0.829333 10.9346 0.728 11.3293 0.728ZM11.4253 4.296C11.7666 4.296 12.0333 4.616 12.2253 5.256C12.428 5.896 12.5293 6.91467 12.5293 8.312C12.5293 10.0293 12.4066 11.2667 12.1613 12.024C11.916 12.7813 11.5426 13.16 11.0413 13.16C10.6573 13.16 10.3746 12.8827 10.1933 12.328C10.012 11.7627 9.92131 10.7813 9.92131 9.384C9.92131 7.66667 10.06 6.392 10.3373 5.56C10.6253 4.71733 10.988 4.296 11.4253 4.296ZM16.2118 13.032C15.8811 13.032 15.6198 12.9573 15.4278 12.808C15.2358 12.648 15.0811 12.3867 14.9638 12.024C14.8038 11.4907 14.6811 10.8187 14.5958 10.008C14.5211 9.18667 14.4838 8.17867 14.4838 6.984C14.4838 6.248 14.5105 5.512 14.5638 4.776C14.6278 4.02933 14.7078 3.352 14.8038 2.744C14.8998 2.12533 15.0011 1.64533 15.1078 1.304C15.2251 0.941333 15.3638 0.690666 15.5238 0.551999C15.6838 0.413333 15.8651 0.344 16.0678 0.344C16.2811 0.344 16.4518 0.418667 16.5798 0.568C16.7078 0.706666 16.8091 0.957333 16.8838 1.32C16.9478 1.672 16.9958 2.104 17.0278 2.616C17.0705 3.128 17.0918 3.67733 17.0918 4.264C17.0918 5.064 17.0545 5.90667 16.9798 6.792C16.9051 7.67733 16.8038 8.54667 16.6758 9.4C16.5585 10.2533 16.4145 11.0373 16.2438 11.752L15.7958 11.528C16.0731 11.1867 16.3878 10.92 16.7398 10.728C17.1025 10.536 17.4331 10.44 17.7318 10.44C17.9771 10.44 18.1638 10.5093 18.2918 10.648C18.4305 10.776 18.4998 10.9787 18.4998 11.256C18.4998 11.5333 18.3771 11.8107 18.1318 12.088C17.8971 12.3653 17.6038 12.5947 17.2518 12.776C16.8998 12.9467 16.5531 13.032 16.2118 13.032ZM21.3606 0.728C21.7872 0.728 22.0912 0.845333 22.2726 1.08C22.4646 1.31467 22.5606 1.58667 22.5606 1.896C22.5606 2.28 22.4432 2.57867 22.2086 2.792C21.9846 2.99467 21.6646 3.096 21.2486 3.096C20.8432 3.096 20.5392 2.984 20.3366 2.76C20.1339 2.52533 20.0326 2.25333 20.0326 1.944C20.0326 1.53867 20.1552 1.23467 20.4006 1.032C20.6459 0.829333 20.9659 0.728 21.3606 0.728ZM21.4566 4.296C21.7979 4.296 22.0646 4.616 22.2566 5.256C22.4592 5.896 22.5606 6.91467 22.5606 8.312C22.5606 10.0293 22.4379 11.2667 22.1926 12.024C21.9472 12.7813 21.5739 13.16 21.0726 13.16C20.6886 13.16 20.4059 12.8827 20.2246 12.328C20.0432 11.7627 19.9526 10.7813 19.9526 9.384C19.9526 7.66667 20.0912 6.392 20.3686 5.56C20.6566 4.71733 21.0192 4.296 21.4566 4.296ZM26.1631 0.327999C26.5044 0.327999 26.7391 0.461333 26.8671 0.728C27.0057 0.994666 27.0751 1.39467 27.0751 1.928C27.0751 2.38667 27.0484 2.96267 26.9951 3.656C26.9417 4.34933 26.8724 5.016 26.7871 5.656H26.6911C27.0431 4.99467 27.4964 4.46133 28.0511 4.056C28.6057 3.65067 29.1924 3.448 29.8111 3.448C30.3551 3.448 30.8404 3.58133 31.2671 3.848C31.6937 4.104 32.0404 4.50933 32.3071 5.064C32.5524 5.56533 32.7337 6.16267 32.8511 6.856C32.9684 7.53867 33.0271 8.18933 33.0271 8.808C33.0271 9.8 32.9577 10.5893 32.8191 11.176C32.6911 11.7627 32.5097 12.1893 32.2751 12.456C32.0404 12.712 31.7631 12.84 31.4431 12.84C30.7711 12.84 30.4351 12.2907 30.4351 11.192C30.4351 10.6587 30.4617 10.1093 30.5151 9.544C30.5791 8.97867 30.6111 8.46133 30.6111 7.992C30.6111 7.192 30.4831 6.59467 30.2271 6.2C29.9817 5.79467 29.6244 5.592 29.1551 5.592C28.5684 5.592 28.0937 5.85333 27.7311 6.376C27.3684 6.89867 27.1871 7.61867 27.1871 8.536C27.1871 9.016 27.2297 9.544 27.3151 10.12C27.4004 10.6853 27.4431 11.2027 27.4431 11.672C27.4431 12.1947 27.3417 12.5733 27.1391 12.808C26.9471 13.032 26.6964 13.144 26.3871 13.144C26.1524 13.144 25.9444 13.096 25.7631 13C25.5924 12.9147 25.4431 12.7387 25.3151 12.472C25.1977 12.1947 25.0964 11.784 25.0111 11.24C24.9471 10.824 24.8831 10.3387 24.8191 9.784C24.7551 9.22933 24.7017 8.648 24.6591 8.04C24.6164 7.432 24.5791 6.84 24.5471 6.264C24.5257 5.67733 24.5151 5.144 24.5151 4.664C24.5151 3.14933 24.6591 2.05067 24.9471 1.368C25.2351 0.674666 25.6404 0.327999 26.1631 0.327999ZM46.4749 13.128C46.2509 13.128 46.0483 13.0693 45.8669 12.952C45.6963 12.8347 45.5629 12.632 45.4669 12.344C45.3709 12.0453 45.3229 11.6347 45.3229 11.112C45.3229 10.3547 45.3389 9.544 45.3709 8.68C45.4029 7.80533 45.4456 6.92533 45.4989 6.04C45.5629 5.144 45.6216 4.28 45.6749 3.448H45.6109C45.2376 4.99467 44.8376 6.168 44.4109 6.968C43.9843 7.75733 43.5096 8.152 42.9869 8.152C42.6669 8.152 42.3683 8.008 42.0909 7.72C41.8243 7.42133 41.5629 6.92533 41.3069 6.232C41.0616 5.528 40.7896 4.57333 40.4909 3.368H40.4269C40.4589 3.93333 40.4909 4.536 40.5229 5.176C40.5549 5.816 40.5816 6.46133 40.6029 7.112C40.6349 7.76267 40.6563 8.38133 40.6669 8.968C40.6883 9.55467 40.6989 10.0773 40.6989 10.536C40.6989 10.9307 40.6616 11.2933 40.5869 11.624C40.5229 11.9547 40.4003 12.216 40.2189 12.408C40.0483 12.6 39.8083 12.696 39.4989 12.696C39.0829 12.696 38.7736 12.5307 38.5709 12.2C38.3683 11.8587 38.2669 11.2987 38.2669 10.52C38.2669 10.0613 38.2776 9.528 38.2989 8.92C38.3309 8.30133 38.3683 7.66667 38.4109 7.016C38.4536 6.35467 38.5069 5.72 38.5709 5.112C38.6349 4.49333 38.7043 3.95467 38.7789 3.496C38.9069 2.77067 39.0829 2.25867 39.3069 1.96C39.5309 1.65067 39.8296 1.496 40.2029 1.496C40.5123 1.496 40.8163 1.63467 41.1149 1.912C41.4136 2.17867 41.7229 2.63733 42.0429 3.288C42.3629 3.928 42.6989 4.81333 43.0509 5.944H43.1149C43.4563 4.792 43.7816 3.86933 44.0909 3.176C44.4003 2.472 44.6989 1.96533 44.9869 1.656C45.2749 1.34667 45.5469 1.192 45.8029 1.192C46.2083 1.192 46.5176 1.352 46.7309 1.672C46.9443 1.98133 47.1203 2.424 47.2589 3C47.4189 3.66133 47.5469 4.43467 47.6429 5.32C47.7389 6.20533 47.8083 7.112 47.8509 8.04C47.9043 8.95733 47.9309 9.816 47.9309 10.616C47.9309 11.5333 47.7976 12.184 47.5309 12.568C47.2643 12.9413 46.9123 13.128 46.4749 13.128ZM56.9602 13.16C56.5975 13.16 56.3469 13.0213 56.2082 12.744C56.0802 12.456 56.0055 12.0027 55.9842 11.384L56.1442 11.464C55.5469 12.6267 54.4162 13.208 52.7522 13.208C51.9949 13.208 51.3655 13.0747 50.8642 12.808C50.3629 12.5307 49.9895 12.168 49.7442 11.72C49.5095 11.2613 49.3922 10.7653 49.3922 10.232C49.3922 9.31467 49.7122 8.58933 50.3522 8.056C50.9922 7.512 51.8402 7.24 52.8962 7.24C53.5895 7.24 54.1922 7.34133 54.7042 7.544C55.2162 7.74667 55.6535 8.02933 56.0162 8.392L55.7442 8.36C55.6695 7.28267 55.4349 6.51467 55.0402 6.056C54.6562 5.58667 54.1069 5.352 53.3922 5.352C52.9762 5.352 52.5922 5.416 52.2402 5.544C51.8882 5.672 51.5629 5.80533 51.2642 5.944C50.9762 6.072 50.7042 6.136 50.4482 6.136C50.1922 6.136 49.9895 6.05067 49.8402 5.88C49.7015 5.70933 49.6322 5.49067 49.6322 5.224C49.6322 4.84 49.8135 4.47733 50.1762 4.136C50.5495 3.79467 51.0402 3.51733 51.6482 3.304C52.2562 3.09067 52.9175 2.984 53.6322 2.984C54.4962 2.984 55.2375 3.192 55.8562 3.608C56.4749 4.024 56.9442 4.632 57.2642 5.432C57.5415 6.11467 57.7389 6.87733 57.8562 7.72C57.9735 8.56267 58.0322 9.464 58.0322 10.424C58.0322 11.1493 57.9949 11.7093 57.9202 12.104C57.8455 12.4987 57.7282 12.776 57.5682 12.936C57.4189 13.0853 57.2162 13.16 56.9602 13.16ZM53.4242 11.368C53.7762 11.368 54.1335 11.32 54.4962 11.224C54.8589 11.1173 55.1629 10.9627 55.4082 10.76C55.6535 10.5573 55.7762 10.3067 55.7762 10.008C55.7762 9.752 55.6695 9.544 55.4562 9.384C55.2535 9.21333 54.9815 9.08533 54.6402 9C54.3095 8.91467 53.9522 8.872 53.5682 8.872C52.9175 8.872 52.4215 8.984 52.0802 9.208C51.7495 9.432 51.5842 9.73067 51.5842 10.104C51.5842 10.5093 51.7389 10.824 52.0482 11.048C52.3682 11.2613 52.8269 11.368 53.4242 11.368ZM62.2034 3.368H61.8834C61.8514 2.89867 61.8621 2.456 61.9154 2.04C61.9688 1.61333 62.0808 1.272 62.2514 1.016C62.4328 0.749333 62.6888 0.615999 63.0194 0.615999C63.3181 0.615999 63.5368 0.711999 63.6754 0.903999C63.8141 1.096 63.8834 1.36267 63.8834 1.704C63.8834 2.376 63.7554 2.952 63.4994 3.432L63.2114 3.4C63.7874 3.19733 64.4381 3.096 65.1634 3.096C65.6221 3.096 65.9848 3.18667 66.2514 3.368C66.5288 3.53867 66.6674 3.832 66.6674 4.248C66.6674 4.64267 66.5074 4.94133 66.1874 5.144C65.8674 5.34667 65.4674 5.448 64.9874 5.448C64.6994 5.448 64.3901 5.43733 64.0594 5.416C63.7394 5.384 63.4248 5.336 63.1154 5.272L63.3874 4.936C63.4834 5.34133 63.5741 5.80533 63.6594 6.328C63.7554 6.84 63.8408 7.37333 63.9154 7.928C63.9901 8.48267 64.0488 9.02133 64.0914 9.544C64.1341 10.0667 64.1554 10.536 64.1554 10.952C64.1554 11.6347 64.0488 12.1733 63.8354 12.568C63.6221 12.9627 63.3074 13.16 62.8914 13.16C62.5608 13.16 62.2994 13.0587 62.1074 12.856C61.9261 12.6533 61.7928 12.3973 61.7074 12.088C61.6328 11.768 61.5848 11.4373 61.5634 11.096C61.5528 10.7547 61.5474 10.4453 61.5474 10.168C61.5474 9.69867 61.5688 9.17067 61.6114 8.584C61.6541 7.98667 61.7128 7.37333 61.7874 6.744C61.8728 6.11467 61.9688 5.50667 62.0754 4.92L62.3954 5.192C61.8514 5.46933 61.1794 5.608 60.3794 5.608C59.8888 5.608 59.5101 5.51733 59.2434 5.336C58.9768 5.15467 58.8434 4.872 58.8434 4.488C58.8434 4.072 58.9928 3.752 59.2914 3.528C59.5901 3.29333 59.9901 3.176 60.4914 3.176C60.8221 3.176 61.1314 3.19733 61.4194 3.24C61.7181 3.272 61.9794 3.31467 62.2034 3.368ZM72.2919 13.128C71.1079 13.128 70.1639 12.952 69.4599 12.6C68.7559 12.248 68.2493 11.7413 67.9399 11.08C67.6306 10.4187 67.4759 9.62933 67.4759 8.712C67.4759 7.54933 67.6893 6.56267 68.1159 5.752C68.5533 4.93067 69.1506 4.30133 69.9079 3.864C70.6759 3.42667 71.5453 3.208 72.5159 3.208C73.6573 3.208 74.4946 3.47467 75.0279 4.008C75.5613 4.53067 75.8279 5.21867 75.8279 6.072C75.8279 6.75467 75.6466 7.34667 75.2839 7.848C74.9319 8.33867 74.4413 8.71733 73.8119 8.984C73.1826 9.25067 72.4573 9.384 71.6359 9.384C71.1773 9.384 70.7346 9.32533 70.3079 9.208C69.8813 9.09067 69.4973 8.93067 69.1559 8.728L69.5399 8.024C69.5079 8.28 69.4919 8.536 69.4919 8.792C69.4919 9.53867 69.7266 10.0773 70.1959 10.408C70.6653 10.728 71.3319 10.888 72.1959 10.888C72.8679 10.888 73.4066 10.8293 73.8119 10.712C74.2173 10.5947 74.5586 10.4827 74.8359 10.376C75.1133 10.2587 75.3853 10.2 75.6519 10.2C75.8013 10.2 75.9346 10.2427 76.0519 10.328C76.1799 10.4027 76.2813 10.5147 76.3559 10.664C76.4413 10.8133 76.4839 10.9947 76.4839 11.208C76.4839 11.528 76.3239 11.8373 76.0039 12.136C75.6839 12.424 75.2093 12.664 74.5799 12.856C73.9613 13.0373 73.1986 13.128 72.2919 13.128ZM71.3639 7.896C72.1213 7.896 72.7293 7.736 73.1879 7.416C73.6466 7.096 73.8759 6.70133 73.8759 6.232C73.8759 5.85867 73.7479 5.55467 73.4919 5.32C73.2466 5.07467 72.8573 4.952 72.3239 4.952C71.8226 4.952 71.3693 5.048 70.9639 5.24C70.5693 5.42133 70.2599 5.66133 70.0359 5.96C69.8119 6.25867 69.6999 6.584 69.6999 6.936C69.6999 7.24533 69.8439 7.48533 70.1319 7.656C70.4306 7.816 70.8413 7.896 71.3639 7.896ZM77.8901 5.784C77.8901 4.76 77.9861 4.024 78.1781 3.576C78.3701 3.11733 78.6421 2.888 78.9941 2.888C79.2714 2.888 79.4901 3.00533 79.6501 3.24C79.8101 3.464 79.9274 3.74667 80.0021 4.088C80.0767 4.41867 80.1141 4.75467 80.1141 5.096L80.0341 5.064C80.2154 4.488 80.4927 3.992 80.8661 3.576C81.2501 3.16 81.7087 2.952 82.2421 2.952C82.8714 2.952 83.3354 3.21333 83.6341 3.736C83.9327 4.248 84.0821 4.888 84.0821 5.656C84.0821 6.68 83.9647 7.39467 83.7301 7.8C83.4954 8.20533 83.1807 8.408 82.7861 8.408C82.4981 8.408 82.2847 8.29067 82.1461 8.056C82.0181 7.82133 81.9754 7.40533 82.0181 6.808C82.0607 6.17867 82.0234 5.74133 81.9061 5.496C81.7887 5.25067 81.6021 5.128 81.3461 5.128C81.0367 5.128 80.7807 5.32533 80.5781 5.72C80.3861 6.104 80.2901 6.57867 80.2901 7.144C80.2901 7.368 80.3167 7.65067 80.3701 7.992C80.4234 8.33333 80.4821 8.70667 80.5461 9.112C80.6101 9.50667 80.6687 9.90133 80.7221 10.296C80.7754 10.6907 80.8021 11.0533 80.8021 11.384C80.8021 11.9707 80.7114 12.392 80.5301 12.648C80.3487 12.904 80.0927 13.032 79.7621 13.032C79.3887 13.032 79.1007 12.9147 78.8981 12.68C78.6954 12.4347 78.5407 12.04 78.4341 11.496C78.3487 11.0053 78.2634 10.424 78.1781 9.752C78.0927 9.08 78.0234 8.392 77.9701 7.688C77.9167 6.984 77.8901 6.34933 77.8901 5.784ZM86.9074 0.728C87.3341 0.728 87.6381 0.845333 87.8194 1.08C88.0114 1.31467 88.1074 1.58667 88.1074 1.896C88.1074 2.28 87.9901 2.57867 87.7554 2.792C87.5314 2.99467 87.2114 3.096 86.7954 3.096C86.3901 3.096 86.0861 2.984 85.8834 2.76C85.6808 2.52533 85.5794 2.25333 85.5794 1.944C85.5794 1.53867 85.7021 1.23467 85.9474 1.032C86.1928 0.829333 86.5128 0.728 86.9074 0.728ZM87.0034 4.296C87.3448 4.296 87.6114 4.616 87.8034 5.256C88.0061 5.896 88.1074 6.91467 88.1074 8.312C88.1074 10.0293 87.9848 11.2667 87.7394 12.024C87.4941 12.7813 87.1208 13.16 86.6194 13.16C86.2354 13.16 85.9528 12.8827 85.7714 12.328C85.5901 11.7627 85.4994 10.7813 85.4994 9.384C85.4994 7.66667 85.6381 6.392 85.9154 5.56C86.2034 4.71733 86.5661 4.296 87.0034 4.296ZM96.8971 13.144C96.5131 13.144 96.1984 13.0053 95.9531 12.728C95.7184 12.44 95.6011 11.928 95.6011 11.192C95.6011 10.6693 95.6384 10.1307 95.7131 9.576C95.7877 9.02133 95.8837 8.49333 96.0011 7.992C96.1184 7.49067 96.2464 7.06933 96.3851 6.728L96.4811 7.176C95.4784 6.45067 94.6997 5.80533 94.1451 5.24C93.5904 4.67467 93.2011 4.17867 92.9771 3.752C92.7531 3.31467 92.6411 2.936 92.6411 2.616C92.6411 2.34933 92.6944 2.12533 92.8011 1.944C92.9184 1.76267 93.0677 1.624 93.2491 1.528C93.4304 1.42133 93.6331 1.368 93.8571 1.368C94.3691 1.368 94.8864 1.75733 95.4091 2.536C95.9424 3.31467 96.4971 4.472 97.0731 6.008H97.1371C97.6171 4.90933 98.1024 4.008 98.5931 3.304C99.0944 2.58933 99.5744 2.06133 100.033 1.72C100.492 1.368 100.892 1.192 101.233 1.192C101.542 1.192 101.782 1.29867 101.953 1.512C102.124 1.71467 102.209 1.98133 102.209 2.312C102.209 2.792 102.022 3.32 101.649 3.896C101.276 4.46133 100.742 5.032 100.049 5.608C99.3557 6.184 98.5237 6.712 97.5531 7.192L97.6971 6.888C97.8357 7.31467 97.9584 7.77867 98.0651 8.28C98.1824 8.77067 98.2731 9.26133 98.3371 9.752C98.4011 10.232 98.4331 10.664 98.4331 11.048C98.4331 11.7307 98.2891 12.2533 98.0011 12.616C97.7237 12.968 97.3557 13.144 96.8971 13.144ZM110.21 13.16C109.848 13.16 109.597 13.0213 109.458 12.744C109.33 12.456 109.256 12.0027 109.234 11.384L109.394 11.464C108.797 12.6267 107.666 13.208 106.002 13.208C105.245 13.208 104.616 13.0747 104.114 12.808C103.613 12.5307 103.24 12.168 102.994 11.72C102.76 11.2613 102.642 10.7653 102.642 10.232C102.642 9.31467 102.962 8.58933 103.602 8.056C104.242 7.512 105.09 7.24 106.146 7.24C106.84 7.24 107.442 7.34133 107.954 7.544C108.466 7.74667 108.904 8.02933 109.266 8.392L108.994 8.36C108.92 7.28267 108.685 6.51467 108.29 6.056C107.906 5.58667 107.357 5.352 106.642 5.352C106.226 5.352 105.842 5.416 105.49 5.544C105.138 5.672 104.813 5.80533 104.514 5.944C104.226 6.072 103.954 6.136 103.698 6.136C103.442 6.136 103.24 6.05067 103.09 5.88C102.952 5.70933 102.882 5.49067 102.882 5.224C102.882 4.84 103.064 4.47733 103.426 4.136C103.8 3.79467 104.29 3.51733 104.898 3.304C105.506 3.09067 106.168 2.984 106.882 2.984C107.746 2.984 108.488 3.192 109.106 3.608C109.725 4.024 110.194 4.632 110.514 5.432C110.792 6.11467 110.989 6.87733 111.106 7.72C111.224 8.56267 111.282 9.464 111.282 10.424C111.282 11.1493 111.245 11.7093 111.17 12.104C111.096 12.4987 110.978 12.776 110.818 12.936C110.669 13.0853 110.466 13.16 110.21 13.16ZM106.674 11.368C107.026 11.368 107.384 11.32 107.746 11.224C108.109 11.1173 108.413 10.9627 108.658 10.76C108.904 10.5573 109.026 10.3067 109.026 10.008C109.026 9.752 108.92 9.544 108.706 9.384C108.504 9.21333 108.232 9.08533 107.89 9C107.56 8.91467 107.202 8.872 106.818 8.872C106.168 8.872 105.672 8.984 105.33 9.208C105 9.432 104.834 9.73067 104.834 10.104C104.834 10.5093 104.989 10.824 105.298 11.048C105.618 11.2613 106.077 11.368 106.674 11.368ZM114.866 3.048C115.207 3.048 115.436 3.18667 115.554 3.464C115.682 3.74133 115.746 4.152 115.746 4.696C115.746 4.824 115.735 4.96267 115.714 5.112C115.703 5.25067 115.682 5.37867 115.65 5.496L115.618 5.176C115.874 4.48267 116.268 3.944 116.802 3.56C117.335 3.16533 117.9 2.968 118.498 2.968C119.159 2.968 119.708 3.15467 120.146 3.528C120.594 3.90133 120.924 4.424 121.138 5.096C121.362 5.768 121.474 6.56267 121.474 7.48C121.474 8.04533 121.447 8.60533 121.394 9.16C121.351 9.704 121.287 10.2053 121.202 10.664C121.127 11.112 121.042 11.48 120.946 11.768C120.818 12.1307 120.652 12.4027 120.45 12.584C120.247 12.7547 120.007 12.84 119.73 12.84C119.452 12.84 119.239 12.7387 119.09 12.536C118.94 12.3333 118.866 12.0613 118.866 11.72C118.866 11.3573 118.892 10.92 118.946 10.408C118.999 9.88533 119.047 9.35733 119.09 8.824C119.143 8.28 119.17 7.78933 119.17 7.352C119.17 5.85867 118.679 5.112 117.698 5.112C117.175 5.112 116.738 5.34667 116.386 5.816C116.034 6.27467 115.799 6.93067 115.682 7.784C115.65 8.072 115.634 8.42933 115.634 8.856C115.634 9.28267 115.634 9.70933 115.634 10.136C115.644 10.552 115.634 10.904 115.602 11.192C115.559 11.832 115.436 12.2907 115.234 12.568C115.042 12.8453 114.775 12.984 114.434 12.984C114.039 12.984 113.74 12.8027 113.538 12.44C113.335 12.0667 113.234 11.4427 113.234 10.568C113.234 10.12 113.244 9.61867 113.266 9.064C113.287 8.50933 113.314 7.95467 113.346 7.4C113.388 6.83467 113.436 6.32267 113.49 5.864C113.596 5 113.751 4.31733 113.954 3.816C114.156 3.304 114.46 3.048 114.866 3.048ZM126.477 12.744C125.475 12.744 124.659 12.36 124.029 11.592C123.4 10.8133 123.085 9.63467 123.085 8.056C123.085 6.37067 123.389 5.13867 123.997 4.36C124.605 3.58133 125.405 3.192 126.397 3.192C126.984 3.192 127.501 3.34133 127.949 3.64C128.397 3.93867 128.781 4.36 129.101 4.904L128.973 5.128C128.941 4.97867 128.915 4.81867 128.893 4.648C128.872 4.47733 128.861 4.34933 128.861 4.264C128.861 3.82667 128.931 3.49067 129.069 3.256C129.219 3.01067 129.448 2.888 129.757 2.888C130.099 2.888 130.365 3.02667 130.557 3.304C130.76 3.58133 130.915 3.976 131.021 4.488C131.16 5.01067 131.277 5.67733 131.373 6.488C131.469 7.288 131.517 8.09867 131.517 8.92C131.517 9.944 131.48 10.8027 131.405 11.496C131.331 12.1893 131.208 12.7653 131.037 13.224C130.867 13.6827 130.643 14.0827 130.365 14.424C129.907 14.9787 129.315 15.4 128.589 15.688C127.875 15.9867 127.048 16.136 126.109 16.136C125.437 16.136 124.899 16.072 124.493 15.944C124.088 15.8267 123.795 15.6613 123.613 15.448C123.443 15.2453 123.357 15.016 123.357 14.76C123.357 14.4933 123.432 14.2693 123.581 14.088C123.731 13.9173 123.955 13.832 124.253 13.832C124.52 13.832 124.829 13.8747 125.181 13.96C125.544 14.0453 125.971 14.088 126.461 14.088C127.496 14.088 128.227 13.8427 128.653 13.352C129.091 12.872 129.309 12.1787 129.309 11.272C129.309 11.0267 129.293 10.7387 129.261 10.408L129.485 10.488C129.219 11.1707 128.824 11.72 128.301 12.136C127.779 12.5413 127.171 12.744 126.477 12.744ZM127.085 10.776C127.427 10.776 127.768 10.6853 128.109 10.504C128.451 10.3227 128.733 10.024 128.957 9.608C129.181 9.192 129.293 8.632 129.293 7.928C129.293 7.08533 129.096 6.39733 128.701 5.864C128.307 5.33067 127.752 5.064 127.037 5.064C126.419 5.064 125.965 5.29867 125.677 5.768C125.389 6.23733 125.245 6.94667 125.245 7.896C125.245 8.80267 125.389 9.512 125.677 10.024C125.965 10.5253 126.435 10.776 127.085 10.776ZM138.143 1.08C138.421 1.08 138.639 1.18667 138.799 1.4C138.959 1.61333 139.077 1.944 139.151 2.392C139.237 2.85067 139.301 3.45333 139.343 4.2C139.386 4.94667 139.407 5.76267 139.407 6.648C139.407 7.416 139.381 8.152 139.327 8.856C139.285 9.56 139.221 10.216 139.135 10.824C139.05 11.4427 138.917 11.8747 138.735 12.12C138.554 12.3653 138.309 12.488 137.999 12.488C137.701 12.488 137.466 12.392 137.295 12.2C137.135 12.008 137.023 11.6827 136.959 11.224C136.895 10.808 136.842 10.264 136.799 9.592C136.767 8.92 136.751 8.20533 136.751 7.448C136.751 6.40267 136.783 5.45333 136.847 4.6C136.911 3.74667 136.997 3.03733 137.103 2.472C137.199 1.992 137.322 1.64 137.471 1.416C137.631 1.192 137.855 1.08 138.143 1.08ZM143.069 3.048C143.41 3.048 143.64 3.18667 143.757 3.464C143.885 3.74133 143.949 4.152 143.949 4.696C143.949 4.824 143.938 4.96267 143.917 5.112C143.906 5.25067 143.885 5.37867 143.853 5.496L143.821 5.176C144.077 4.48267 144.472 3.944 145.005 3.56C145.538 3.16533 146.104 2.968 146.701 2.968C147.362 2.968 147.912 3.15467 148.349 3.528C148.797 3.90133 149.128 4.424 149.341 5.096C149.565 5.768 149.677 6.56267 149.677 7.48C149.677 8.04533 149.65 8.60533 149.597 9.16C149.554 9.704 149.49 10.2053 149.405 10.664C149.33 11.112 149.245 11.48 149.149 11.768C149.021 12.1307 148.856 12.4027 148.653 12.584C148.45 12.7547 148.21 12.84 147.933 12.84C147.656 12.84 147.442 12.7387 147.293 12.536C147.144 12.3333 147.069 12.0613 147.069 11.72C147.069 11.3573 147.096 10.92 147.149 10.408C147.202 9.88533 147.25 9.35733 147.293 8.824C147.346 8.28 147.373 7.78933 147.373 7.352C147.373 5.85867 146.882 5.112 145.901 5.112C145.378 5.112 144.941 5.34667 144.589 5.816C144.237 6.27467 144.002 6.93067 143.885 7.784C143.853 8.072 143.837 8.42933 143.837 8.856C143.837 9.28267 143.837 9.70933 143.837 10.136C143.848 10.552 143.837 10.904 143.805 11.192C143.762 11.832 143.64 12.2907 143.437 12.568C143.245 12.8453 142.978 12.984 142.637 12.984C142.242 12.984 141.944 12.8027 141.741 12.44C141.538 12.0667 141.437 11.4427 141.437 10.568C141.437 10.12 141.448 9.61867 141.469 9.064C141.49 8.50933 141.517 7.95467 141.549 7.4C141.592 6.83467 141.64 6.32267 141.693 5.864C141.8 5 141.954 4.31733 142.157 3.816C142.36 3.304 142.664 3.048 143.069 3.048ZM154.68 12.744C153.678 12.744 152.862 12.36 152.232 11.592C151.603 10.8133 151.288 9.63467 151.288 8.056C151.288 6.37067 151.592 5.13867 152.2 4.36C152.808 3.58133 153.608 3.192 154.6 3.192C155.187 3.192 155.704 3.34133 156.152 3.64C156.6 3.93867 156.984 4.36 157.304 4.904L157.176 5.128C157.144 4.97867 157.118 4.81867 157.096 4.648C157.075 4.47733 157.064 4.34933 157.064 4.264C157.064 3.82667 157.134 3.49067 157.272 3.256C157.422 3.01067 157.651 2.888 157.96 2.888C158.302 2.888 158.568 3.02667 158.76 3.304C158.963 3.58133 159.118 3.976 159.224 4.488C159.363 5.01067 159.48 5.67733 159.576 6.488C159.672 7.288 159.72 8.09867 159.72 8.92C159.72 9.944 159.683 10.8027 159.608 11.496C159.534 12.1893 159.411 12.7653 159.24 13.224C159.07 13.6827 158.846 14.0827 158.568 14.424C158.11 14.9787 157.518 15.4 156.792 15.688C156.078 15.9867 155.251 16.136 154.312 16.136C153.64 16.136 153.102 16.072 152.696 15.944C152.291 15.8267 151.998 15.6613 151.816 15.448C151.646 15.2453 151.56 15.016 151.56 14.76C151.56 14.4933 151.635 14.2693 151.784 14.088C151.934 13.9173 152.158 13.832 152.456 13.832C152.723 13.832 153.032 13.8747 153.384 13.96C153.747 14.0453 154.174 14.088 154.664 14.088C155.699 14.088 156.43 13.8427 156.856 13.352C157.294 12.872 157.512 12.1787 157.512 11.272C157.512 11.0267 157.496 10.7387 157.464 10.408L157.688 10.488C157.422 11.1707 157.027 11.72 156.504 12.136C155.982 12.5413 155.374 12.744 154.68 12.744ZM155.288 10.776C155.63 10.776 155.971 10.6853 156.312 10.504C156.654 10.3227 156.936 10.024 157.16 9.608C157.384 9.192 157.496 8.632 157.496 7.928C157.496 7.08533 157.299 6.39733 156.904 5.864C156.51 5.33067 155.955 5.064 155.24 5.064C154.622 5.064 154.168 5.29867 153.88 5.768C153.592 6.23733 153.448 6.94667 153.448 7.896C153.448 8.80267 153.592 9.512 153.88 10.024C154.168 10.5253 154.638 10.776 155.288 10.776ZM163.079 0.728C163.506 0.728 163.81 0.845333 163.991 1.08C164.183 1.31467 164.279 1.58667 164.279 1.896C164.279 2.28 164.162 2.57867 163.927 2.792C163.703 2.99467 163.383 3.096 162.967 3.096C162.562 3.096 162.258 2.984 162.055 2.76C161.853 2.52533 161.751 2.25333 161.751 1.944C161.751 1.53867 161.874 1.23467 162.119 1.032C162.365 0.829333 162.685 0.728 163.079 0.728ZM163.175 4.296C163.517 4.296 163.783 4.616 163.975 5.256C164.178 5.896 164.279 6.91467 164.279 8.312C164.279 10.0293 164.157 11.2667 163.911 12.024C163.666 12.7813 163.293 13.16 162.791 13.16C162.407 13.16 162.125 12.8827 161.943 12.328C161.762 11.7627 161.671 10.7813 161.671 9.384C161.671 7.66667 161.81 6.392 162.087 5.56C162.375 4.71733 162.738 4.296 163.175 4.296ZM167.866 3.048C168.207 3.048 168.436 3.18667 168.554 3.464C168.682 3.74133 168.746 4.152 168.746 4.696C168.746 4.824 168.735 4.96267 168.714 5.112C168.703 5.25067 168.682 5.37867 168.65 5.496L168.618 5.176C168.874 4.48267 169.268 3.944 169.802 3.56C170.335 3.16533 170.9 2.968 171.498 2.968C172.159 2.968 172.708 3.15467 173.146 3.528C173.594 3.90133 173.924 4.424 174.138 5.096C174.362 5.768 174.474 6.56267 174.474 7.48C174.474 8.04533 174.447 8.60533 174.394 9.16C174.351 9.704 174.287 10.2053 174.202 10.664C174.127 11.112 174.042 11.48 173.946 11.768C173.818 12.1307 173.652 12.4027 173.45 12.584C173.247 12.7547 173.007 12.84 172.73 12.84C172.452 12.84 172.239 12.7387 172.09 12.536C171.94 12.3333 171.866 12.0613 171.866 11.72C171.866 11.3573 171.892 10.92 171.946 10.408C171.999 9.88533 172.047 9.35733 172.09 8.824C172.143 8.28 172.17 7.78933 172.17 7.352C172.17 5.85867 171.679 5.112 170.698 5.112C170.175 5.112 169.738 5.34667 169.386 5.816C169.034 6.27467 168.799 6.93067 168.682 7.784C168.65 8.072 168.634 8.42933 168.634 8.856C168.634 9.28267 168.634 9.70933 168.634 10.136C168.644 10.552 168.634 10.904 168.602 11.192C168.559 11.832 168.436 12.2907 168.234 12.568C168.042 12.8453 167.775 12.984 167.434 12.984C167.039 12.984 166.74 12.8027 166.538 12.44C166.335 12.0667 166.234 11.4427 166.234 10.568C166.234 10.12 166.244 9.61867 166.266 9.064C166.287 8.50933 166.314 7.95467 166.346 7.4C166.388 6.83467 166.436 6.32267 166.49 5.864C166.596 5 166.751 4.31733 166.954 3.816C167.156 3.304 167.46 3.048 167.866 3.048ZM181.864 13.368C181.192 13.368 180.67 13.3253 180.296 13.24C179.934 13.1547 179.683 13.0373 179.544 12.888C179.406 12.728 179.331 12.552 179.32 12.36C179.32 12.0613 179.496 11.8107 179.848 11.608C180.211 11.4053 180.872 11.2773 181.832 11.224L181.576 11.528C181.459 10.984 181.374 10.3493 181.32 9.624C181.267 8.89867 181.246 8.14667 181.256 7.368C181.267 6.58933 181.304 5.848 181.368 5.144C181.432 4.42933 181.523 3.82133 181.64 3.32L183.032 3.224C182.798 3.32 182.504 3.40533 182.152 3.48C181.8 3.544 181.438 3.576 181.064 3.576C180.382 3.576 179.875 3.50133 179.544 3.352C179.224 3.20267 179.064 2.99467 179.064 2.728C179.064 2.25867 179.347 1.896 179.912 1.64C180.488 1.37333 181.368 1.24 182.552 1.24C183.96 1.24 185.144 1.47467 186.104 1.944C187.075 2.40267 187.811 3.048 188.312 3.88C188.814 4.70133 189.064 5.66133 189.064 6.76C189.064 7.72 188.894 8.60533 188.552 9.416C188.211 10.216 187.72 10.9147 187.08 11.512C186.451 12.0987 185.694 12.5573 184.808 12.888C183.934 13.208 182.952 13.368 181.864 13.368ZM184.136 10.904C184.499 10.904 184.883 10.76 185.288 10.472C185.704 10.1733 186.056 9.74133 186.344 9.176C186.632 8.6 186.776 7.89067 186.776 7.048C186.776 6.42933 186.686 5.89067 186.504 5.432C186.334 4.96267 186.11 4.57333 185.832 4.264C185.555 3.95467 185.262 3.72533 184.952 3.576C184.643 3.416 184.35 3.336 184.072 3.336C183.848 3.336 183.672 3.47467 183.544 3.752C183.427 4.02933 183.342 4.44533 183.288 5C183.235 5.544 183.208 6.22133 183.208 7.032C183.208 8.29067 183.272 9.25067 183.4 9.912C183.528 10.5733 183.774 10.904 184.136 10.904ZM192.3 2.36C192.577 2.36 192.796 2.46667 192.956 2.68C193.116 2.89333 193.233 3.224 193.308 3.672C193.382 4.09867 193.441 4.65867 193.484 5.352C193.537 6.03467 193.564 6.78667 193.564 7.608C193.564 8.32267 193.537 9.00533 193.484 9.656C193.441 10.296 193.377 10.8987 193.292 11.464C193.206 12.0827 193.073 12.5147 192.892 12.76C192.71 13.0053 192.465 13.128 192.156 13.128C191.857 13.128 191.622 13.032 191.452 12.84C191.292 12.648 191.18 12.3227 191.116 11.864C191.062 11.48 191.014 10.984 190.972 10.376C190.929 9.75733 190.908 9.10133 190.908 8.408C190.908 7.42667 190.94 6.54133 191.004 5.752C191.068 4.952 191.153 4.28533 191.26 3.752C191.356 3.272 191.478 2.92 191.628 2.696C191.788 2.472 192.012 2.36 192.3 2.36ZM196.681 3.08C196.969 3.08 197.209 3.25067 197.401 3.592C197.593 3.92267 197.727 4.45067 197.801 5.176L197.465 5.48C197.657 4.73333 198.015 4.16267 198.537 3.768C199.06 3.37333 199.679 3.176 200.393 3.176C201.055 3.176 201.641 3.34667 202.153 3.688C202.665 4.02933 203.065 4.54667 203.353 5.24C203.652 5.92267 203.801 6.78133 203.801 7.816C203.801 9.49067 203.497 10.728 202.889 11.528C202.292 12.3173 201.476 12.712 200.441 12.712C199.695 12.712 199.108 12.552 198.681 12.232C198.255 11.912 197.956 11.5227 197.785 11.064L197.977 10.968C198.063 11.608 198.132 12.2427 198.185 12.872C198.249 13.4907 198.281 14.0347 198.281 14.504C198.281 14.984 198.196 15.3893 198.025 15.72C197.855 16.0507 197.583 16.216 197.209 16.216C196.847 16.216 196.575 16.0773 196.393 15.8C196.212 15.5227 196.079 15.1547 195.993 14.696C195.929 14.2267 195.865 13.624 195.801 12.888C195.737 12.152 195.684 11.3573 195.641 10.504C195.609 9.65067 195.593 8.81867 195.593 8.008C195.593 7.176 195.62 6.39733 195.673 5.672C195.737 4.936 195.812 4.33867 195.897 3.88C195.972 3.61333 196.068 3.416 196.185 3.288C196.313 3.14933 196.479 3.08 196.681 3.08ZM199.737 5.016C199.161 5.016 198.697 5.304 198.345 5.88C198.004 6.44533 197.833 7.17067 197.833 8.056C197.833 8.96267 198.004 9.64 198.345 10.088C198.697 10.536 199.151 10.76 199.705 10.76C200.345 10.76 200.804 10.5093 201.081 10.008C201.369 9.496 201.513 8.83467 201.513 8.024C201.513 6.98933 201.337 6.232 200.985 5.752C200.633 5.26133 200.217 5.016 199.737 5.016ZM209.901 13.128C208.717 13.128 207.773 12.952 207.069 12.6C206.365 12.248 205.859 11.7413 205.549 11.08C205.24 10.4187 205.085 9.62933 205.085 8.712C205.085 7.54933 205.299 6.56267 205.725 5.752C206.163 4.93067 206.76 4.30133 207.517 3.864C208.285 3.42667 209.155 3.208 210.125 3.208C211.267 3.208 212.104 3.47467 212.637 4.008C213.171 4.53067 213.437 5.21867 213.437 6.072C213.437 6.75467 213.256 7.34667 212.893 7.848C212.541 8.33867 212.051 8.71733 211.421 8.984C210.792 9.25067 210.067 9.384 209.245 9.384C208.787 9.384 208.344 9.32533 207.917 9.208C207.491 9.09067 207.107 8.93067 206.765 8.728L207.149 8.024C207.117 8.28 207.101 8.536 207.101 8.792C207.101 9.53867 207.336 10.0773 207.805 10.408C208.275 10.728 208.941 10.888 209.805 10.888C210.477 10.888 211.016 10.8293 211.421 10.712C211.827 10.5947 212.168 10.4827 212.445 10.376C212.723 10.2587 212.995 10.2 213.261 10.2C213.411 10.2 213.544 10.2427 213.661 10.328C213.789 10.4027 213.891 10.5147 213.965 10.664C214.051 10.8133 214.093 10.9947 214.093 11.208C214.093 11.528 213.933 11.8373 213.613 12.136C213.293 12.424 212.819 12.664 212.189 12.856C211.571 13.0373 210.808 13.128 209.901 13.128ZM208.973 7.896C209.731 7.896 210.339 7.736 210.797 7.416C211.256 7.096 211.485 6.70133 211.485 6.232C211.485 5.85867 211.357 5.55467 211.101 5.32C210.856 5.07467 210.467 4.952 209.933 4.952C209.432 4.952 208.979 5.048 208.573 5.24C208.179 5.42133 207.869 5.66133 207.645 5.96C207.421 6.25867 207.309 6.584 207.309 6.936C207.309 7.24533 207.453 7.48533 207.741 7.656C208.04 7.816 208.451 7.896 208.973 7.896ZM217.227 13.032C216.897 13.032 216.635 12.9573 216.443 12.808C216.251 12.648 216.097 12.3867 215.979 12.024C215.819 11.4907 215.697 10.8187 215.611 10.008C215.537 9.18667 215.499 8.17867 215.499 6.984C215.499 6.248 215.526 5.512 215.579 4.776C215.643 4.02933 215.723 3.352 215.819 2.744C215.915 2.12533 216.017 1.64533 216.123 1.304C216.241 0.941333 216.379 0.690666 216.539 0.551999C216.699 0.413333 216.881 0.344 217.083 0.344C217.297 0.344 217.467 0.418667 217.595 0.568C217.723 0.706666 217.825 0.957333 217.899 1.32C217.963 1.672 218.011 2.104 218.043 2.616C218.086 3.128 218.107 3.67733 218.107 4.264C218.107 5.064 218.07 5.90667 217.995 6.792C217.921 7.67733 217.819 8.54667 217.691 9.4C217.574 10.2533 217.43 11.0373 217.259 11.752L216.811 11.528C217.089 11.1867 217.403 10.92 217.755 10.728C218.118 10.536 218.449 10.44 218.747 10.44C218.993 10.44 219.179 10.5093 219.307 10.648C219.446 10.776 219.515 10.9787 219.515 11.256C219.515 11.5333 219.393 11.8107 219.147 12.088C218.913 12.3653 218.619 12.5947 218.267 12.776C217.915 12.9467 217.569 13.032 217.227 13.032ZM227.96 13.16C227.598 13.16 227.347 13.0213 227.208 12.744C227.08 12.456 227.006 12.0027 226.984 11.384L227.144 11.464C226.547 12.6267 225.416 13.208 223.752 13.208C222.995 13.208 222.366 13.0747 221.864 12.808C221.363 12.5307 220.99 12.168 220.744 11.72C220.51 11.2613 220.392 10.7653 220.392 10.232C220.392 9.31467 220.712 8.58933 221.352 8.056C221.992 7.512 222.84 7.24 223.896 7.24C224.59 7.24 225.192 7.34133 225.704 7.544C226.216 7.74667 226.654 8.02933 227.016 8.392L226.744 8.36C226.67 7.28267 226.435 6.51467 226.04 6.056C225.656 5.58667 225.107 5.352 224.392 5.352C223.976 5.352 223.592 5.416 223.24 5.544C222.888 5.672 222.563 5.80533 222.264 5.944C221.976 6.072 221.704 6.136 221.448 6.136C221.192 6.136 220.99 6.05067 220.84 5.88C220.702 5.70933 220.632 5.49067 220.632 5.224C220.632 4.84 220.814 4.47733 221.176 4.136C221.55 3.79467 222.04 3.51733 222.648 3.304C223.256 3.09067 223.918 2.984 224.632 2.984C225.496 2.984 226.238 3.192 226.856 3.608C227.475 4.024 227.944 4.632 228.264 5.432C228.542 6.11467 228.739 6.87733 228.856 7.72C228.974 8.56267 229.032 9.464 229.032 10.424C229.032 11.1493 228.995 11.7093 228.92 12.104C228.846 12.4987 228.728 12.776 228.568 12.936C228.419 13.0853 228.216 13.16 227.96 13.16ZM224.424 11.368C224.776 11.368 225.134 11.32 225.496 11.224C225.859 11.1173 226.163 10.9627 226.408 10.76C226.654 10.5573 226.776 10.3067 226.776 10.008C226.776 9.752 226.67 9.544 226.456 9.384C226.254 9.21333 225.982 9.08533 225.64 9C225.31 8.91467 224.952 8.872 224.568 8.872C223.918 8.872 223.422 8.984 223.08 9.208C222.75 9.432 222.584 9.73067 222.584 10.104C222.584 10.5093 222.739 10.824 223.048 11.048C223.368 11.2613 223.827 11.368 224.424 11.368ZM231.064 16.328C230.637 16.328 230.253 16.2373 229.912 16.056C229.57 15.8747 229.298 15.6453 229.096 15.368C228.893 15.0907 228.792 14.808 228.792 14.52C228.792 14.2747 228.856 14.0827 228.984 13.944C229.112 13.8053 229.277 13.736 229.48 13.736C229.832 13.736 230.21 13.8693 230.616 14.136C231.021 14.4027 231.405 14.7707 231.768 15.24L231.528 15.208C231.346 13.7147 231.208 12.2853 231.112 10.92C231.026 9.544 230.984 8.312 230.984 7.224C230.984 6.232 231.064 5.49067 231.224 5C231.394 4.49867 231.672 4.248 232.056 4.248C232.493 4.248 232.84 4.58933 233.096 5.272C233.352 5.95467 233.48 7.10667 233.48 8.728C233.48 9.44267 233.458 10.1787 233.416 10.936C233.373 11.6827 233.309 12.392 233.224 13.064C233.149 13.736 233.042 14.3013 232.904 14.76C232.733 15.3147 232.498 15.7147 232.2 15.96C231.912 16.2053 231.533 16.328 231.064 16.328ZM231.8 2.92C231.458 2.92 231.181 2.84533 230.968 2.696C230.765 2.536 230.664 2.296 230.664 1.976C230.664 1.61333 230.786 1.30933 231.032 1.064C231.288 0.807999 231.645 0.679999 232.104 0.679999C232.488 0.679999 232.781 0.775999 232.984 0.967999C233.186 1.14933 233.288 1.39467 233.288 1.704C233.288 2.088 233.149 2.38667 232.872 2.6C232.594 2.81333 232.237 2.92 231.8 2.92ZM242.429 13.16C242.066 13.16 241.816 13.0213 241.677 12.744C241.549 12.456 241.474 12.0027 241.453 11.384L241.613 11.464C241.016 12.6267 239.885 13.208 238.221 13.208C237.464 13.208 236.834 13.0747 236.333 12.808C235.832 12.5307 235.458 12.168 235.213 11.72C234.978 11.2613 234.861 10.7653 234.861 10.232C234.861 9.31467 235.181 8.58933 235.821 8.056C236.461 7.512 237.309 7.24 238.365 7.24C239.058 7.24 239.661 7.34133 240.173 7.544C240.685 7.74667 241.122 8.02933 241.485 8.392L241.213 8.36C241.138 7.28267 240.904 6.51467 240.509 6.056C240.125 5.58667 239.576 5.352 238.861 5.352C238.445 5.352 238.061 5.416 237.709 5.544C237.357 5.672 237.032 5.80533 236.733 5.944C236.445 6.072 236.173 6.136 235.917 6.136C235.661 6.136 235.458 6.05067 235.309 5.88C235.17 5.70933 235.101 5.49067 235.101 5.224C235.101 4.84 235.282 4.47733 235.645 4.136C236.018 3.79467 236.509 3.51733 237.117 3.304C237.725 3.09067 238.386 2.984 239.101 2.984C239.965 2.984 240.706 3.192 241.325 3.608C241.944 4.024 242.413 4.632 242.733 5.432C243.01 6.11467 243.208 6.87733 243.325 7.72C243.442 8.56267 243.501 9.464 243.501 10.424C243.501 11.1493 243.464 11.7093 243.389 12.104C243.314 12.4987 243.197 12.776 243.037 12.936C242.888 13.0853 242.685 13.16 242.429 13.16ZM238.893 11.368C239.245 11.368 239.602 11.32 239.965 11.224C240.328 11.1173 240.632 10.9627 240.877 10.76C241.122 10.5573 241.245 10.3067 241.245 10.008C241.245 9.752 241.138 9.544 240.925 9.384C240.722 9.21333 240.45 9.08533 240.109 9C239.778 8.91467 239.421 8.872 239.037 8.872C238.386 8.872 237.89 8.984 237.549 9.208C237.218 9.432 237.053 9.73067 237.053 10.104C237.053 10.5093 237.208 10.824 237.517 11.048C237.837 11.2613 238.296 11.368 238.893 11.368ZM245.453 5.784C245.453 4.76 245.549 4.024 245.741 3.576C245.933 3.11733 246.205 2.888 246.557 2.888C246.834 2.888 247.053 3.00533 247.213 3.24C247.373 3.464 247.49 3.74667 247.565 4.088C247.639 4.41867 247.677 4.75467 247.677 5.096L247.597 5.064C247.778 4.488 248.055 3.992 248.429 3.576C248.813 3.16 249.271 2.952 249.805 2.952C250.434 2.952 250.898 3.21333 251.197 3.736C251.495 4.248 251.645 4.888 251.645 5.656C251.645 6.68 251.527 7.39467 251.293 7.8C251.058 8.20533 250.743 8.408 250.349 8.408C250.061 8.408 249.847 8.29067 249.709 8.056C249.581 7.82133 249.538 7.40533 249.581 6.808C249.623 6.17867 249.586 5.74133 249.469 5.496C249.351 5.25067 249.165 5.128 248.909 5.128C248.599 5.128 248.343 5.32533 248.141 5.72C247.949 6.104 247.853 6.57867 247.853 7.144C247.853 7.368 247.879 7.65067 247.933 7.992C247.986 8.33333 248.045 8.70667 248.109 9.112C248.173 9.50667 248.231 9.90133 248.285 10.296C248.338 10.6907 248.365 11.0533 248.365 11.384C248.365 11.9707 248.274 12.392 248.093 12.648C247.911 12.904 247.655 13.032 247.325 13.032C246.951 13.032 246.663 12.9147 246.461 12.68C246.258 12.4347 246.103 12.04 245.997 11.496C245.911 11.0053 245.826 10.424 245.741 9.752C245.655 9.08 245.586 8.392 245.533 7.688C245.479 6.984 245.453 6.34933 245.453 5.784ZM254.47 0.728C254.897 0.728 255.201 0.845333 255.382 1.08C255.574 1.31467 255.67 1.58667 255.67 1.896C255.67 2.28 255.553 2.57867 255.318 2.792C255.094 2.99467 254.774 3.096 254.358 3.096C253.953 3.096 253.649 2.984 253.446 2.76C253.243 2.52533 253.142 2.25333 253.142 1.944C253.142 1.53867 253.265 1.23467 253.51 1.032C253.755 0.829333 254.075 0.728 254.47 0.728ZM254.566 4.296C254.907 4.296 255.174 4.616 255.366 5.256C255.569 5.896 255.67 6.91467 255.67 8.312C255.67 10.0293 255.547 11.2667 255.302 12.024C255.057 12.7813 254.683 13.16 254.182 13.16C253.798 13.16 253.515 12.8827 253.334 12.328C253.153 11.7627 253.062 10.7813 253.062 9.384C253.062 7.66667 253.201 6.392 253.478 5.56C253.766 4.71733 254.129 4.296 254.566 4.296Z" fill="black"/>
</svg>
