<svg version="1.1" xmlns="http://www.w3.org/2000/svg" xmlns:xlink="http://www.w3.org/1999/xlink" width="102.54603" height="101.54952" viewBox="0,0,102.54603,101.54952"><g transform="translate(-188.72266,-129.38294)"><g data-paper-data="{&quot;isPaintingLayer&quot;:true}" fill-rule="nonzero" stroke-linejoin="miter" stroke-miterlimit="10" stroke-dasharray="" stroke-dashoffset="0" style="mix-blend-mode: normal"><path d="M193.20517,226.1602v-92.32039h93.58967v92.32039z" fill="#f4f4f4" stroke="#000000" stroke-width="3" stroke-linecap="butt"/><path d="M289.76524,228.67957l-99.53048,0.74158l0.78279,-98.19445l98.52104,-0.33861z" fill="none" stroke="#00ff08" stroke-width="3" stroke-linecap="round"/><path d="M238.52234,180.3274c0,-0.72323 0.58807,-1.30948 1.3135,-1.30948c0.72546,0 1.31353,0.58628 1.31353,1.30948c0,0.72323 -0.58809,1.30951 -1.31353,1.30951c-0.72546,0 -1.3135,-0.5863 -1.3135,-1.30951z" fill="#252525" stroke="none" stroke-width="1" stroke-linecap="butt"/><path d="M262.98437,139.73656v-1.45748h2.54697v6.69158h-1.63668v-5.23408z" fill="#000000" stroke="none" stroke-width="1" stroke-linecap="butt"/><path d="M276.9742,161.72057c0.20854,-0.16501 0.30344,-0.24137 0.28504,-0.22914c0.60061,-0.49499 1.07281,-0.90136 1.41599,-1.21917c0.34941,-0.3178 0.64362,-0.65083 0.88272,-0.99913c0.23908,-0.34832 0.35859,-0.68747 0.35859,-1.01749c0,-0.25052 -0.05811,-0.44611 -0.17469,-0.58668c-0.11657,-0.14054 -0.29126,-0.21081 -0.52411,-0.21081c-0.2328,0 -0.41674,0.08861 -0.55171,0.26584c-0.12874,0.17114 -0.19307,0.41556 -0.19307,0.73335h-1.51715c0.01215,-0.51944 0.12247,-0.95331 0.33101,-1.30165c0.21445,-0.34832 0.49355,-0.60499 0.83672,-0.77001c0.34941,-0.16501 0.73558,-0.24749 1.15853,-0.24749c0.72933,0 1.27806,0.18639 1.64587,0.55916c0.37403,0.37278 0.56088,0.85861 0.56088,1.45748c0,0.65387 -0.22362,1.26193 -0.67121,1.82418c-0.4476,0.55611 -1.01769,1.09997 -1.71023,1.63164h2.48257v1.27417h-4.61576z" fill="#000000" stroke="none" stroke-width="1" stroke-linecap="butt"/><path d="M276.92726,177.81578c0.02464,-0.65378 0.2391,-1.15793 0.64362,-1.51249c0.40454,-0.35455 0.95329,-0.53166 1.64587,-0.53166c0.45973,0 0.85215,0.07956 1.17692,0.23834c0.33101,0.15877 0.57926,0.37583 0.74478,0.65079c0.17174,0.27499 0.25744,0.58372 0.25744,0.92581c0,0.4033 -0.10114,0.73335 -0.30344,0.99c-0.20229,0.25044 -0.43806,0.42165 -0.708,0.51333v0.03664c0.34941,0.1162 0.62526,0.30872 0.82753,0.5775c0.20229,0.26877 0.30344,0.61416 0.30344,1.03583c0,0.37879 -0.08866,0.71497 -0.26664,1.00832c-0.17143,0.2871 -0.42591,0.51333 -0.7632,0.67832c-0.33101,0.16501 -0.72639,0.24749 -1.18613,0.24749c-0.73559,0 -1.32406,-0.18036 -1.76542,-0.54081c-0.43512,-0.36045 -0.66498,-0.90455 -0.68957,-1.63164h1.52632c0.00623,0.26877 0.08275,0.48288 0.22985,0.64165c0.14712,0.15289 0.36189,0.22914 0.64362,0.22914c0.23908,0 0.42295,-0.06711 0.55171,-0.20167c0.13497,-0.14044 0.20227,-0.32377 0.20227,-0.55001c0,-0.29333 -0.0949,-0.50417 -0.28504,-0.6325c-0.1839,-0.13456 -0.48107,-0.20167 -0.89188,-0.20167h-0.29421v-1.27414h0.29421c0.31264,0 0.56414,-0.05208 0.75395,-0.15581c0.19638,-0.10997 0.29423,-0.3025 0.29423,-0.5775c0,-0.21999 -0.06109,-0.39122 -0.1839,-0.51333c-0.12247,-0.12211 -0.29094,-0.18333 -0.50571,-0.18333c-0.2328,0 -0.40752,0.07038 -0.52411,0.21083c-0.11032,0.14044 -0.17469,0.31463 -0.19307,0.52251z" fill="#000000" stroke="none" stroke-width="1" stroke-linecap="butt"/><path d="M276.58115,201.07003v-1.26499l2.90553,-4.14327h1.75622v4.05163h0.75398v1.35664h-0.75398v1.19166h-1.57229v-1.19166zM279.78093,197.38507l-1.54474,2.32831h1.54474z" fill="#000000" stroke="none" stroke-width="1" stroke-linecap="butt"/><path d="M266.61463,216.57853h-2.86877v1.26499c0.12247,-0.13456 0.29423,-0.24457 0.51493,-0.33c0.22067,-0.08544 0.45973,-0.12834 0.71717,-0.12834c0.45973,0 0.8397,0.10379 1.14016,0.31167c0.3064,0.20789 0.52999,0.47668 0.67121,0.80665c0.14087,0.33 0.21149,0.68747 0.21149,1.07247c0,0.71497 -0.20229,1.28329 -0.60685,1.70497c-0.40454,0.41545 -0.97467,0.62334 -1.71023,0.62334c-0.49061,0 -0.91652,-0.08249 -1.27806,-0.24749c-0.36189,-0.17121 -0.64066,-0.40626 -0.83672,-0.70582c-0.19638,-0.29957 -0.30344,-0.64461 -0.32182,-1.03581h1.53551c0.03679,0.18955 0.12543,0.34832 0.26667,0.47668c0.14087,0.12211 0.33396,0.1833 0.57926,0.1833c0.28799,0 0.50244,-0.09168 0.64362,-0.27499c0.14087,-0.18333 0.21149,-0.42788 0.21149,-0.73332c0,-0.29957 -0.07358,-0.5287 -0.22069,-0.68749c-0.14712,-0.15877 -0.36189,-0.23834 -0.64362,-0.23834c-0.20854,0 -0.38026,0.05208 -0.5149,0.15581c-0.13497,0.09787 -0.22396,0.22914 -0.26667,0.39416h-1.51715v-3.98745h4.29397z" fill="#000000" stroke="none" stroke-width="1" stroke-linecap="butt"/><path d="M240.64172,217.01851c-0.04894,-0.22624 -0.13497,-0.39418 -0.25744,-0.50417c-0.12247,-0.1162 -0.29719,-0.17416 -0.52411,-0.17416c-0.34941,0 -0.60061,0.15289 -0.75395,0.45833c-0.15334,0.29957 -0.23282,0.7762 -0.2391,1.43c0.13497,-0.21379 0.32805,-0.38204 0.57928,-0.50413c0.25744,-0.12211 0.53949,-0.18333 0.8459,-0.18333c0.60063,0 1.08203,0.18955 1.44357,0.56832c0.3678,0.37879 0.55168,0.90749 0.55168,1.58582c0,0.44623 -0.09195,0.83711 -0.27585,1.17331c-0.17768,0.33621 -0.44135,0.59877 -0.79075,0.78833c-0.34317,0.18955 -0.75099,0.28416 -1.22291,0.28416c-0.94412,0 -1.59987,-0.29333 -1.96769,-0.87998c-0.3678,-0.59289 -0.55168,-1.44209 -0.55168,-2.54829c0,-1.16121 0.19307,-2.02286 0.57926,-2.58498c0.39241,-0.56832 1.01767,-0.85248 1.87572,-0.85248c0.45973,0 0.84595,0.09168 1.15857,0.27499c0.31886,0.17712 0.5579,0.4125 0.71717,0.70582c0.16551,0.29333 0.26372,0.61414 0.29423,0.96247zM239.91531,218.77851c-0.26369,0 -0.48436,0.07953 -0.66203,0.23834c-0.17174,0.15289 -0.25744,0.3729 -0.25744,0.65999c0,0.29333 0.07977,0.52248 0.23908,0.68747c0.16551,0.16501 0.39834,0.24749 0.69881,0.24749c0.26959,0 0.48107,-0.07956 0.63446,-0.23834c0.15926,-0.16501 0.2391,-0.38793 0.2391,-0.66915c0,-0.2871 -0.07649,-0.51333 -0.22985,-0.67832c-0.15334,-0.16501 -0.37406,-0.24749 -0.66205,-0.24749z" fill="#000000" stroke="none" stroke-width="1" stroke-linecap="butt"/><path d="M217.44518,216.38602l-2.3079,5.51826h-1.60907l2.33548,-5.3441h-2.85957v-1.33832h4.44106z" fill="#000000" stroke="none" stroke-width="1" stroke-linecap="butt"/><path d="M200.6076,198.66837c-0.5762,-0.30546 -0.8643,-0.78535 -0.8643,-1.43915c0,-0.33 0.08582,-0.62954 0.25744,-0.89831c0.17159,-0.27499 0.43213,-0.49206 0.78155,-0.65083c0.34941,-0.16501 0.7785,-0.24749 1.28726,-0.24749c0.50875,0 0.9348,0.08249 1.27808,0.24749c0.34941,0.15877 0.60993,0.37585 0.78155,0.65083c0.17159,0.26877 0.25744,0.56832 0.25744,0.89831c0,0.33 -0.07973,0.6171 -0.2391,0.86163c-0.15326,0.24454 -0.36166,0.43705 -0.62523,0.5775c0.33101,0.15877 0.58536,0.37879 0.76318,0.65999c0.17774,0.27499 0.26667,0.59877 0.26667,0.97167c0,0.43376 -0.11036,0.8096 -0.33101,1.12748c-0.22067,0.31167 -0.52103,0.55001 -0.90106,0.715c-0.37394,0.16501 -0.79075,0.24749 -1.25048,0.24749c-0.45973,0 -0.87968,-0.08249 -1.25971,-0.24749c-0.37394,-0.16501 -0.67123,-0.40333 -0.89188,-0.715c-0.22067,-0.31787 -0.33101,-0.69372 -0.33101,-1.12748c0,-0.37879 0.08887,-0.70582 0.26669,-0.98084c0.17774,-0.28122 0.42909,-0.49794 0.75395,-0.65083zM202.86033,197.46757c0,-0.25044 -0.07355,-0.44294 -0.22067,-0.5775c-0.14099,-0.14044 -0.33099,-0.21083 -0.57009,-0.21083c-0.2391,0 -0.43216,0.07038 -0.57926,0.21083c-0.14099,0.14044 -0.21149,0.33621 -0.21149,0.58666c0,0.23834 0.07358,0.42788 0.22067,0.56834c0.14712,0.13456 0.33712,0.20167 0.57009,0.20167c0.23294,0 0.42295,-0.07038 0.57009,-0.21081c0.14712,-0.14044 0.22067,-0.32997 0.22067,-0.56832zM202.0696,199.34668c-0.28813,0 -0.52103,0.07953 -0.69881,0.23834c-0.17777,0.15289 -0.26667,0.36666 -0.26667,0.64165c0,0.25664 0.08582,0.46748 0.25744,0.6325c0.17774,0.16501 0.41379,0.24749 0.708,0.24749c0.29421,0 0.52409,-0.08249 0.68957,-0.24749c0.17159,-0.16501 0.25746,-0.37585 0.25746,-0.6325c0,-0.26877 -0.08889,-0.48288 -0.26667,-0.64165c-0.17167,-0.15877 -0.39847,-0.23834 -0.6804,-0.23834z" fill="#000000" stroke="none" stroke-width="1" stroke-linecap="butt"/><path d="M201.3487,180.65738c0.09195,0.48288 0.37394,0.72418 0.84593,0.72418c0.32491,0 0.55478,-0.14371 0.6896,-0.43084c0.13487,-0.2871 0.20229,-0.7546 0.20229,-1.40249c-0.13482,0.18955 -0.31874,0.33621 -0.55171,0.43998c-0.23294,0.10379 -0.49344,0.15581 -0.78155,0.15581c-0.39231,0 -0.7417,-0.07953 -1.04822,-0.23834c-0.30649,-0.16501 -0.54861,-0.40628 -0.72639,-0.72418c-0.17159,-0.32377 -0.25744,-0.71497 -0.25744,-1.17331c0,-0.45212 0.09195,-0.84626 0.27585,-1.1825c0.19005,-0.33621 0.4567,-0.59582 0.79995,-0.77915c0.34941,-0.18333 0.7601,-0.27501 1.23211,-0.27501c0.90722,0 1.54165,0.28122 1.90331,0.84334c0.36169,0.56211 0.54251,1.39039 0.54251,2.48412c0,0.79456 -0.07358,1.45125 -0.22067,1.97081c-0.14097,0.51333 -0.38307,0.90455 -0.72639,1.17331c-0.33712,0.26877 -0.79995,0.4033 -1.38841,0.4033c-0.46585,0 -0.86432,-0.09168 -1.19534,-0.27499c-0.32487,-0.18333 -0.57618,-0.42461 -0.75395,-0.72418c-0.17159,-0.29957 -0.26972,-0.62954 -0.29421,-0.99zM202.11187,178.9066c0.25744,0 0.46285,-0.07629 0.61606,-0.22917c0.15326,-0.15877 0.22985,-0.37287 0.22985,-0.64165c0,-0.29333 -0.07965,-0.51956 -0.23908,-0.67832c-0.15937,-0.15877 -0.3739,-0.23834 -0.64362,-0.23834c-0.26969,0 -0.48423,0.08249 -0.64362,0.24749c-0.15322,0.15877 -0.22985,0.37879 -0.22985,0.65999c0,0.26288 0.07667,0.47668 0.22985,0.64165c0.15939,0.15877 0.38616,0.23834 0.6804,0.23834z" fill="#000000" stroke="none" stroke-width="1" stroke-linecap="butt"/><path d="M198.57741,157.7423v-1.45748h2.54695v6.69158h-1.63668v-5.23408zM202.19994,159.53893c0,-1.05113 0.20229,-1.87913 0.60683,-2.48412c0.41066,-0.60499 1.06966,-0.90751 1.97689,-0.90751c0.90719,0 1.5631,0.30252 1.96769,0.90751c0.41066,0.60499 0.61604,1.43303 0.61604,2.48412c0,1.06332 -0.20536,1.89749 -0.61604,2.50247c-0.40454,0.60499 -1.06047,0.90749 -1.96769,0.90749c-0.90722,0 -1.5662,-0.3025 -1.97689,-0.90749c-0.40454,-0.60499 -0.60683,-1.43915 -0.60683,-2.50247zM205.82271,159.53893c0,-0.61723 -0.06743,-1.0908 -0.20229,-1.4208c-0.13487,-0.33613 -0.41379,-0.50417 -0.83675,-0.50417c-0.42295,0 -0.70188,0.16804 -0.83675,0.50417c-0.13487,0.33 -0.20229,0.80361 -0.20229,1.4208c0,0.41553 0.02446,0.76082 0.07355,1.03581c0.04902,0.26887 0.14712,0.48886 0.29423,0.65999c0.15322,0.16501 0.37699,0.24749 0.67123,0.24749c0.29421,0 0.5149,-0.08251 0.66203,-0.24749c0.15322,-0.17114 0.25437,-0.39113 0.30344,-0.65999c0.04902,-0.27499 0.07358,-0.62026 0.07358,-1.03581z" fill="#000000" stroke="none" stroke-width="1" stroke-linecap="butt" opacity="0.8"/><path d="M211.99825,139.73656v-1.45748h2.54695v6.69158h-1.63668v-5.23408zM215.45523,139.73656v-1.45748h2.54695v6.69158h-1.63664v-5.23408z" fill="#000000" stroke="none" stroke-width="1" stroke-linecap="butt"/><path d="M236.38584,139.73656v-1.45748h2.54697v6.69158h-1.63664v-5.23408zM239.95343,143.71484c0.20822,-0.16501 0.30344,-0.24137 0.28504,-0.22914c0.60063,-0.49499 1.07251,-0.90139 1.41599,-1.21919c0.34941,-0.3178 0.64362,-0.65079 0.88272,-0.99913c0.2391,-0.34832 0.35859,-0.68747 0.35859,-1.01749c0,-0.25052 -0.05847,-0.44611 -0.17472,-0.58668c-0.11657,-0.14054 -0.29126,-0.21081 -0.52411,-0.21081c-0.23316,0 -0.41705,0.08861 -0.55171,0.26584c-0.12874,0.17114 -0.1931,0.41553 -0.1931,0.73332h-1.51713c0.01213,-0.51944 0.12247,-0.95331 0.33101,-1.30164c0.21445,-0.34832 0.49325,-0.60499 0.83672,-0.77001c0.34941,-0.16501 0.73558,-0.24749 1.15853,-0.24749c0.72933,0 1.27808,0.18639 1.6459,0.55916c0.3737,0.37278 0.56088,0.85861 0.56088,1.45748c0,0.65387 -0.22396,1.26193 -0.67121,1.82418c-0.4476,0.55611 -1.01767,1.09997 -1.71023,1.63164h2.48259v1.27417h-4.61576z" fill="#000000" stroke="none" stroke-width="1" stroke-linecap="butt"/><path d="M239.67165,180.00006v-22.58905" fill="none" stroke="#252525" stroke-width="1" stroke-linecap="butt"/><path d="M239.83421,180.49108l35.46558,-0.32736" fill="none" stroke="#252525" stroke-width="1" stroke-linecap="butt"/><path d="M238.98896,181.07057l-24.6289,38.30313" fill="none" stroke="#db6c6c" stroke-width="1" stroke-linecap="butt"/></g></g></svg>