<svg version="1.1" xmlns="http://www.w3.org/2000/svg" xmlns:xlink="http://www.w3.org/1999/xlink" width="13.30354" height="21.9803" viewBox="0,0,13.30354,21.9803"><g transform="translate(-233.13487,-169.17672)"><g data-paper-data="{&quot;isPaintingLayer&quot;:true}" fill-rule="evenodd" stroke="none" stroke-width="1" stroke-linecap="butt" stroke-linejoin="miter" stroke-miterlimit="10" stroke-dasharray="" stroke-dashoffset="0" style="mix-blend-mode: normal"><g data-paper-data="{&quot;index&quot;:null}"><g><path d="M238.91724,186.93106c0,0 -2.11117,0.34412 -2.13162,0.0885c-0.07009,-1.25843 0.77894,-3.36911 1.98254,-2.6992c0.66301,0.36135 0.48046,0.91271 0.32649,1.52576c-0.08058,0.34852 -0.12899,0.71673 -0.1774,1.08493z" fill="#dcaa78"/><path d="M239.04676,182.74478c1.58883,0.61823 1.13862,2.22143 1.13862,2.22143c-0.213,0.70954 -0.44115,1.29933 -0.44115,1.29933l-2.9973,-0.77253l0.40649,-1.78464c0,0 0.30452,-1.58181 1.89335,-0.96358z" fill="#f01446"/></g><g><path d="M241.67277,191.02552c0.01078,-0.12601 0.0189,-0.31995 0.02078,-0.53981v0l-0.00575,-1.21907c0.19394,0.00814 0.37179,0.00642 0.54965,0.0047c0,0 -0.27688,1.75342 -0.31358,1.88568l-0.25109,-0.13148z" fill="#000000"/><path d="M241.69356,190.48574c-0.01514,-0.11977 -0.0142,-0.2297 -0.00702,-0.31371c-2.08166,0.29587 -3.04837,-0.47225 -3.08054,-0.49193c-0.74077,-0.3426 -1.89127,-1.93038 -1.96324,-2.96894l2.40504,0.07874c-0.06372,0.64615 0.18626,1.28528 0.67408,1.71627c0.51997,0.45066 1.26793,0.70926 1.96593,0.76049l0.00575,1.21907z" fill="#00a08c"/><path d="M241.68372,190.50181c0.00984,-0.01609 0,0 0,0z" fill="#000000"/></g><path d="M239.22283,187.11797l-2.74468,-0.06547l-0.06416,-0.43707l2.79651,0.05298z" fill="#008264"/></g><path d="M237.57925,184.10819l0.54676,-3.1297h5.07162c0,0 0.39592,0.60331 0.75414,1.69682c0.13197,0.41478 0.30165,1.11236 0.43363,1.60255z" data-paper-data="{&quot;index&quot;:null}" fill="#f01446"/><g data-paper-data="{&quot;index&quot;:null}"><path d="M236.51478,173.278c-0.32051,0 -0.65988,-0.2828 -0.71644,-0.58446c-0.05656,-0.30166 0.07542,-0.71644 0.39593,-0.79185c0.41477,-0.11312 0.58445,0.28281 0.75414,0.56561c0.05656,0.39592 0.09427,0.79184 -0.43363,0.8107z" fill="#be8c64"/><path d="M236.32623,173.10833c-0.09427,-0.73529 -0.09427,-1.48944 0.03771,-2.22473l2.65836,-0.45249l1.62141,-0.26395c0.39592,-0.05656 0.43363,-0.11312 0.62217,0.30166c0.33937,0.73529 0.2074,1.79109 -0.01885,2.56409c-0.15082,0.4902 -1.03695,2.09275 -2.46982,2.09275c-1.43288,0 -2.41327,-1.65912 -2.45097,-2.01734z" fill="#dcaa78"/><path d="M241.60526,170.3557c0.4902,-0.20739 0.99924,-0.35822 1.52714,-0.41478c0.58446,-0.07542 1.22549,-0.05656 1.75339,0.2828c0.94268,0.62217 1.43287,2.41327 0.90497,3.43136c-0.30167,0.58446 -0.98039,0.75414 -1.546,0.50905c-0.54676,-0.2451 -0.82956,-0.773 -0.98039,-1.33861c-0.16969,-0.62217 -0.22625,-1.24435 -0.60332,-1.7911c-0.32051,-0.43364 -1.0558,-0.67873 -1.0558,-0.67873z" fill="#000000"/><path d="M241.26588,170.3934c-0.0377,0.13198 -4.22321,1.56484 -5.03391,1.52714c-0.13197,-1.28205 0.37707,-2.33785 1.88536,-2.65836c1.20664,-0.26395 2.58295,0.07542 3.14856,1.13122z" fill="#000000"/><path d="M240.98309,170.1106c0,0 0.47133,-0.18854 0.65987,0.2828c0.11312,0.26395 0.01886,0.56561 -0.20739,0.73529z" fill="#f01446"/><path d="M237.81566,171.88284c0.0377,0.0377 0.07542,0.07542 0.11312,0.11312c0.09428,0.15083 0.13198,0.33937 0.13198,0.50905c-0.01885,0.09427 -0.0377,0.15084 -0.11312,0.18854c-0.09427,0.0377 -0.20739,0.01885 -0.26395,-0.05656c-0.11312,-0.11312 -0.05656,-0.2451 -0.0377,-0.35822c0.0377,-0.13198 0.09426,-0.26395 0.16968,-0.39593z" fill="#be8c64"/><path d="M237.98536,173.57967c0.09427,-0.07542 0.20739,-0.13198 0.32051,-0.18854c0.15083,-0.05656 0.30165,-0.13198 0.47134,-0.18854c0.13198,-0.0377 0.2828,-0.15082 0.41478,-0.16968c0.30167,-0.05656 0.28281,0.33936 0.18854,0.54675c-0.20739,0.43364 -1.16892,0.43364 -1.39517,0z" fill="#000000"/><path d="M238.87147,172.29762l-0.11312,0.0377c-0.07541,-0.05656 -0.07541,-0.30166 -0.05656,-0.37707c0.01885,-0.0377 0.07541,-0.05657 0.15083,-0.03771z" fill="#000000"/><path d="M236.89185,172.35419c-0.03771,-0.09427 -0.05656,-0.18854 -0.03771,-0.26395c0,-0.03771 0.03771,-0.07542 0.05657,-0.07542c0.0377,0 0.05656,0.01886 0.07541,0.05656c0.05656,0.09426 0,0.26394 -0.09427,0.2828z" fill="#000000"/><path d="M239.47479,169.22448c2.94117,0.39593 1.97963,3.45021 1.97963,3.45021l-0.43363,0.05656l-1.52714,-2.41326z" fill="#000000"/><path d="M240.47403,170.09174l-0.50904,2.26244l-0.71644,-1.96078z" fill="#000000"/><path d="M241.02079,171.78856c0,0 0.82957,-0.65988 1.16893,0.03771c0.07541,0.16969 -0.03771,0.58446 -0.07542,0.79185c-0.05656,0.22625 -0.2828,0.37708 -0.49019,0.43364c-0.26396,0.07542 -0.81071,-0.07541 -1.0181,-0.07541c0.01885,-0.35822 0.41478,-1.18778 0.41478,-1.18778z" fill="#dcaa78"/></g><g data-paper-data="{&quot;index&quot;:null}"><path d="M246.17743,182.76096c-0.15667,-0.03233 -0.03568,0.70049 -0.13516,0.72079c-0.09947,0.02031 -0.14213,-0.69635 -0.26233,-0.70755c-0.1202,-0.0112 -0.01994,0.69013 -0.08792,0.68971c-0.08372,0.00995 -0.0924,-0.27771 -0.24614,-0.78589c-0.05636,-0.18859 -0.15828,-0.61802 -0.25113,-0.82775c-0.10817,-0.26734 -0.27395,-0.51937 -0.44512,-0.74528c0.0261,0.00538 -1.04942,-1.11506 -1.4241,-1.4102c-0.22382,-0.16871 -1.10459,-0.64999 -1.77105,-1.11426l1.95316,-1.2848c0.54585,0.52105 1.8141,1.76296 2.46393,3.23112c0.52592,1.21117 0.50095,2.71702 0.42717,2.81069c-0.15836,0.23956 -0.08039,-0.53388 -0.22131,-0.57658z" fill="#dcaa78"/><path d="M241.94367,179.06925c0,0 -2.29205,-1.42599 -2.26593,-1.42061c0,0 -0.69258,-0.46966 0.0515,-1.56842c0.74948,-1.12486 2.09775,-0.13872 2.09775,-0.13872c0.51063,0.29597 1.58119,1.37455 1.58119,1.37455l-1.46452,1.7532z" fill="#008264"/><path d="M241.49975,178.97762l1.85332,-2.0541l0.43726,0.32167l-1.6755,2.04996z" fill="#f01446"/><path d="M245.61835,181.84244c0.18152,0.24166 0.12637,0.70671 -0.27526,0.54213c-0.11649,0.23459 -0.19651,0.49033 -0.31131,0.45301c-0.10446,-0.02155 0.08545,-1.13942 0.08545,-1.13942c0,0 0.30921,-0.11314 0.50111,0.14427z" fill="#be8c64"/></g><path d="M239.59658,175.17157c0.58446,0.05656 2.05505,-0.15083 2.96002,1.97963c0.64102,1.50829 2.14931,6.41023 2.14931,6.41023l-7.22094,-0.56561c0,0 0.11312,-3.84613 0.33937,-6.10857c0.16968,-1.64027 1.0181,-1.77224 1.77224,-1.71568z" data-paper-data="{&quot;index&quot;:null}" fill="#0066a1"/><g data-paper-data="{&quot;index&quot;:null}"><path d="M235.51467,183.99832c-0.16577,0.06449 -1.86772,0.33636 -1.90151,-0.09224c0.10924,-0.17116 1.74887,-0.01349 1.90151,0.09224z" fill="#be8c64"/><path d="M240.95208,180.42468c-0.05246,0.68088 -0.60007,2.15054 -1.03894,2.64295c-0.53759,0.608 -1.1352,1.12785 -1.8864,1.44584c-1.39572,0.57946 -4.46269,1.16796 -4.57478,1.05073c-0.11208,-0.11722 0.72308,-0.1698 0.69118,-0.40614c-0.03192,-0.23633 -0.91629,0.07557 -1.00282,-0.07519c-0.09003,-0.13222 0.9655,-0.33489 0.9125,-0.46008c-0.05299,-0.12519 -0.80866,0.11518 -0.83515,0.05259c-0.04502,-0.06611 2.23251,-0.84282 3.15556,-1.35848c0.43022,-0.24458 1.22808,-0.70723 1.58326,-1.062c0.45038,-0.45184 0.81679,-1.16911 0.8287,-1.8385c0,0 -0.04582,-1.27523 1.06462,-1.16043c1.12894,0.11832 1.10229,1.16872 1.10229,1.16872z" fill="#dcaa78"/><path d="M241.1401,176.60313c0.14681,0.64195 0.29998,1.55378 0.2229,2.36432c-0.07708,0.81056 -0.26881,1.61854 -0.5126,2.39744l-2.19908,-0.64767c0,0 0.30261,-1.18992 -0.37367,-2.27778c0,0 -0.99143,-1.55067 0.34401,-2.62133c1.33543,-1.07067 2.3001,0.01436 2.51844,0.78503z" fill="#00a08c"/><path d="M241.0094,181.74049l-2.80331,-0.80072l0.1336,-0.70387l2.82184,0.80424z" fill="#f01446"/></g><g data-paper-data="{&quot;index&quot;:null}"><g><path d="M240.51273,186.52558c0,0 -1.21045,-1.76359 -0.98788,-1.89096c1.10875,-0.59936 3.38003,-0.73006 3.2865,0.64423c-0.04458,0.75377 -0.62118,0.82341 -1.24143,0.94519c-0.34965,0.07552 -0.70341,0.18853 -1.05717,0.30154z" fill="#dcaa78"/><path d="M244.35556,184.85992c0.11729,1.70083 -1.52499,1.97626 -1.52499,1.97626c-0.73269,0.10946 -1.36348,0.15421 -1.36348,0.15421l-0.57751,-3.0409l1.78782,-0.39226c0,0 1.56087,-0.39813 1.67816,1.3027z" fill="#f01446"/></g><g><path d="M237.98167,190.76247c0.1186,-0.04391 0.29753,-0.11916 0.49726,-0.21109v0l1.10054,-0.52438c0.07523,0.17894 0.15253,0.33912 0.22983,0.49931c0,0 -1.70437,0.49623 -1.83967,0.51935l0.01203,-0.28318z" fill="#000000"/><path d="M238.4789,190.55138c0.10192,-0.0647 0.20178,-0.11067 0.28085,-0.13995c-1.15423,-1.75744 -0.87096,-2.95922 -0.86685,-2.99671c-0.0055,-0.81614 0.94112,-2.53329 1.85014,-3.04071l0.95301,2.20957c-0.61176,0.21753 -1.08357,0.7159 -1.26577,1.34082c-0.1863,0.66238 -0.10174,1.44926 0.14917,2.10261l-1.10054,0.52438z" fill="#00a08c"/><path d="M238.46017,190.54934c0.01875,0.00205 0,0 0,0z" fill="#000000"/></g><path d="M240.47376,186.88167l-1.10966,-2.51122l0.36813,-0.24419l1.14304,2.55279z" fill="#008264"/></g></g></g></svg>