<svg version="1.1" xmlns="http://www.w3.org/2000/svg" xmlns:xlink="http://www.w3.org/1999/xlink" width="59.64506" height="15.71471" viewBox="0,0,59.64506,15.71471"><g transform="translate(-210.17747,-172.14264)"><g data-paper-data="{&quot;isPaintingLayer&quot;:true}" fill="#000000" fill-rule="nonzero" stroke="none" stroke-width="1" stroke-linecap="butt" stroke-linejoin="miter" stroke-miterlimit="10" stroke-dasharray="" stroke-dashoffset="0" style="mix-blend-mode: normal"><path d="M214.6977,172.92594c1.2946,0 2.24651,0.33181 2.85573,0.99542c0.6201,0.66361 0.93015,1.53394 0.93015,2.61095c0,0.73977 -0.17406,1.38163 -0.52219,1.92558c-0.33724,0.54394 -0.79961,0.96823 -1.38707,1.27284c-0.58746,0.29374 -1.25108,0.44059 -1.99086,0.44059c-0.34813,0 -0.71801,-0.03808 -1.10966,-0.11423c-0.38076,-0.07615 -0.77785,-0.22302 -1.19125,-0.44059l0.08159,-0.21214c0.08703,0.27198 0.15774,0.60922 0.21214,1.01174c0.06528,0.39164 0.11423,0.79961 0.14687,1.22388c0.04352,0.4134 0.06528,0.79416 0.06528,1.14229c0,0.64186 -0.10879,1.13685 -0.32637,1.48498c-0.2067,0.33724 -0.51675,0.50587 -0.93015,0.50587c-0.34813,0 -0.62554,-0.10879 -0.83224,-0.32637c-0.19582,-0.21758 -0.33181,-0.57659 -0.40796,-1.07702c-0.07615,-0.50044 -0.11423,-1.16949 -0.11423,-2.00717c0,-1.61009 0.07072,-2.98084 0.21214,-4.11225c0.15231,-1.14229 0.40796,-2.03981 0.76696,-2.69254c0.28285,-0.50044 0.71801,-0.89751 1.30548,-1.19125c0.59835,-0.29374 1.34355,-0.44059 2.23563,-0.44059zM214.38765,178.24576c0.65274,0 1.18037,-0.17406 1.58288,-0.52219c0.4134,-0.34813 0.6201,-0.854 0.6201,-1.51762c0,-0.43516 -0.14687,-0.79416 -0.44059,-1.07702c-0.28285,-0.29374 -0.72889,-0.44059 -1.33812,-0.44059c-0.44604,0 -0.83224,0.10335 -1.15861,0.31005c-0.32637,0.19582 -0.57659,0.47324 -0.75065,0.83224c-0.16318,0.34813 -0.24478,0.75065 -0.24478,1.20757c0,0.42428 0.13598,0.73433 0.40796,0.93015c0.28285,0.18494 0.72346,0.27741 1.32179,0.27741zM224.44975,184.78945c-1.20757,0 -2.17034,-0.1795 -2.88836,-0.53851c-0.71801,-0.359 -1.23477,-0.87576 -1.55025,-1.55025c-0.31549,-0.6745 -0.47324,-1.47954 -0.47324,-2.41513c0,-1.18581 0.21758,-2.19212 0.65274,-3.01891c0.44604,-0.83768 1.05526,-1.47954 1.82767,-1.92558c0.78328,-0.44604 1.66991,-0.66905 2.6599,-0.66905c1.16405,0 2.01805,0.27198 2.562,0.81592c0.54394,0.53307 0.81592,1.23477 0.81592,2.10508c0,0.69625 -0.18494,1.30003 -0.55483,1.81135c-0.359,0.50044 -0.85944,0.88664 -1.50129,1.15861c-0.64186,0.27198 -1.38163,0.40796 -2.21931,0.40796c-0.46779,0 -0.91927,-0.05983 -1.35442,-0.1795c-0.43516,-0.11967 -0.82681,-0.28285 -1.17492,-0.48955l0.39164,-0.71801c-0.03263,0.26109 -0.04896,0.52219 -0.04896,0.78329c0,0.76153 0.23933,1.31092 0.71801,1.64816c0.47866,0.32637 1.15859,0.48955 2.03979,0.48955c0.68537,0 1.23477,-0.05983 1.64816,-0.1795c0.4134,-0.11967 0.76153,-0.2339 1.04438,-0.34269c0.28285,-0.11967 0.56027,-0.1795 0.83224,-0.1795c0.15231,0 0.28829,0.04352 0.40796,0.13055c0.13055,0.07615 0.2339,0.19039 0.31005,0.34269c0.08703,0.15231 0.13055,0.33724 0.13055,0.55483c0,0.32637 -0.16318,0.64186 -0.48955,0.94647c-0.32637,0.29374 -0.81048,0.53851 -1.45234,0.73433c-0.63098,0.18494 -1.40883,0.27741 -2.33354,0.27741zM223.50327,179.45332c0.7724,0 1.39251,-0.16318 1.8603,-0.48955c0.46779,-0.32637 0.7017,-0.72889 0.7017,-1.20757c0,-0.38076 -0.13055,-0.69081 -0.39164,-0.93015c-0.25022,-0.25022 -0.6473,-0.37533 -1.19125,-0.37533c-0.51131,0 -0.97366,0.09791 -1.38707,0.29374c-0.40251,0.18494 -0.718,0.42972 -0.94646,0.73433c-0.22846,0.30461 -0.34269,0.63642 -0.34269,0.99542c0,0.31549 0.14687,0.56027 0.44059,0.73433c0.30461,0.16318 0.72343,0.24478 1.2565,0.24478zM230.1593,177.29928c0,-1.04438 0.09791,-1.79503 0.29374,-2.25195c0.19582,-0.46779 0.47324,-0.7017 0.83224,-0.7017c0.28285,0 0.50587,0.11967 0.66905,0.359c0.16318,0.22846 0.28285,0.51675 0.359,0.86488c0.07615,0.33724 0.11423,0.67994 0.11423,1.02807l-0.08159,-0.03263c0.18494,-0.58746 0.46779,-1.09333 0.84857,-1.51762c0.39164,-0.42428 0.85944,-0.63642 1.40338,-0.63642c0.64186,0 1.11509,0.26654 1.4197,0.79961c0.30461,0.52219 0.45692,1.17492 0.45692,1.95821c0,1.04438 -0.11967,1.77327 -0.359,2.18667c-0.23933,0.4134 -0.56027,0.6201 -0.96279,0.6201c-0.29374,0 -0.51131,-0.11967 -0.65274,-0.359c-0.13055,-0.23933 -0.17406,-0.66361 -0.13055,-1.27284c0.04352,-0.64186 0.00544,-1.0879 -0.11423,-1.33812c-0.11967,-0.25022 -0.31005,-0.37533 -0.57115,-0.37533c-0.31549,0 -0.57659,0.20126 -0.78329,0.60378c-0.19582,0.39164 -0.29374,0.87576 -0.29374,1.45234c0,0.22846 0.0272,0.51675 0.08159,0.86488c0.05439,0.34813 0.11423,0.72889 0.1795,1.14229c0.06528,0.40252 0.12511,0.80505 0.1795,1.20757c0.05439,0.40252 0.08159,0.7724 0.08159,1.10966c0,0.59835 -0.09248,1.02807 -0.27741,1.28916c-0.18494,0.26109 -0.44604,0.39164 -0.78329,0.39164c-0.38076,0 -0.6745,-0.11967 -0.8812,-0.359c-0.2067,-0.25022 -0.36444,-0.65274 -0.47324,-1.20757c-0.08703,-0.50044 -0.17406,-1.09333 -0.26109,-1.77871c-0.08703,-0.68537 -0.15774,-1.38707 -0.21214,-2.10508c-0.05439,-0.71801 -0.08159,-1.36531 -0.08159,-1.9419zM242.04865,174.44356c0.96823,0 1.66449,0.14143 2.08876,0.42428c0.42428,0.28285 0.63642,0.6473 0.63642,1.09333c0,0.26109 -0.09248,0.47868 -0.27741,0.65274c-0.17406,0.16318 -0.42428,0.24478 -0.75065,0.24478c-0.33724,0 -0.69081,-0.04896 -1.0607,-0.14687c-0.359,-0.09791 -0.77785,-0.14687 -1.25653,-0.14687c-0.55483,0 -0.96823,0.10879 -1.2402,0.32637c-0.27198,0.21758 -0.40796,0.495 -0.40796,0.83224c0,0.31549 0.11967,0.5657 0.359,0.75065c0.25022,0.17406 0.72346,0.30461 1.4197,0.39164c0.7724,0.08703 1.40883,0.22846 1.90926,0.42428c0.51131,0.18494 0.89207,0.46779 1.14229,0.84857c0.25022,0.36989 0.37533,0.8812 0.37533,1.53394c0,1.0335 -0.36444,1.80047 -1.09333,2.3009c-0.72889,0.50044 -1.7352,0.75065 -3.01891,0.75065c-0.81592,0 -1.46322,-0.06528 -1.9419,-0.19582c-0.47868,-0.13055 -0.82681,-0.31549 -1.04438,-0.55483c-0.2067,-0.23933 -0.31005,-0.52219 -0.31005,-0.84857c0,-0.28285 0.09248,-0.50044 0.27741,-0.65274c0.19582,-0.16318 0.42428,-0.24478 0.68537,-0.24478c0.25022,0 0.51675,0.03263 0.79961,0.09791c0.28285,0.05439 0.58203,0.11423 0.89751,0.1795c0.31549,0.06528 0.64186,0.09791 0.97911,0.09791c1.0879,0 1.63184,-0.33724 1.63184,-1.01174c0,-0.22846 -0.05439,-0.4134 -0.16318,-0.55483c-0.10879,-0.14143 -0.30461,-0.25565 -0.58746,-0.34269c-0.28285,-0.09791 -0.69625,-0.17406 -1.2402,-0.22846c-0.65274,-0.06528 -1.21844,-0.17406 -1.69712,-0.32637c-0.47868,-0.16318 -0.84857,-0.42428 -1.10966,-0.78329c-0.26109,-0.36989 -0.39164,-0.87576 -0.39164,-1.51762c0,-1.01174 0.38076,-1.82767 1.14229,-2.44777c0.76153,-0.63098 1.84399,-0.94647 3.24737,-0.94647zM251.2063,184.78945c-1.20757,0 -2.17036,-0.1795 -2.88837,-0.53851c-0.71801,-0.359 -1.23477,-0.87576 -1.55025,-1.55025c-0.31549,-0.6745 -0.47324,-1.47954 -0.47324,-2.41513c0,-1.18581 0.21758,-2.19212 0.65274,-3.01891c0.44604,-0.83768 1.05526,-1.47954 1.82767,-1.92558c0.78329,-0.44604 1.66992,-0.66905 2.65991,-0.66905c1.16405,0 2.01805,0.27198 2.562,0.81592c0.54394,0.53307 0.81592,1.23477 0.81592,2.10508c0,0.69625 -0.18494,1.30003 -0.55483,1.81135c-0.359,0.50044 -0.85944,0.88664 -1.50129,1.15861c-0.64186,0.27198 -1.38163,0.40796 -2.21931,0.40796c-0.46779,0 -0.91927,-0.05983 -1.35443,-0.1795c-0.43516,-0.11967 -0.82681,-0.28285 -1.17492,-0.48955l0.39164,-0.71801c-0.03263,0.26109 -0.04896,0.52219 -0.04896,0.78329c0,0.76153 0.23933,1.31092 0.71801,1.64816c0.47868,0.32637 1.15861,0.48955 2.03981,0.48955c0.68537,0 1.23477,-0.05983 1.64816,-0.1795c0.4134,-0.11967 0.76153,-0.2339 1.04438,-0.34269c0.28285,-0.11967 0.56027,-0.1795 0.83224,-0.1795c0.15231,0 0.28829,0.04352 0.40796,0.13055c0.13055,0.07615 0.2339,0.19039 0.31005,0.34269c0.08703,0.15231 0.13055,0.33724 0.13055,0.55483c0,0.32637 -0.16318,0.64186 -0.48955,0.94647c-0.32637,0.29374 -0.81048,0.53851 -1.45234,0.73433c-0.63098,0.18494 -1.40883,0.27741 -2.33354,0.27741zM250.25983,179.45332c0.7724,0 1.39251,-0.16318 1.8603,-0.48955c0.46779,-0.32637 0.7017,-0.72889 0.7017,-1.20757c0,-0.38076 -0.13055,-0.69081 -0.39164,-0.93015c-0.25022,-0.25022 -0.6473,-0.37533 -1.19125,-0.37533c-0.51131,0 -0.97366,0.09791 -1.38707,0.29374c-0.40252,0.18494 -0.71801,0.42972 -0.94647,0.73433c-0.22846,0.30461 -0.34269,0.63642 -0.34269,0.99542c0,0.31549 0.14687,0.56027 0.44059,0.73433c0.30461,0.16318 0.72346,0.24478 1.25653,0.24478zM260.03267,184.39782c-1.02262,0 -1.85486,-0.39164 -2.49673,-1.17492c-0.64186,-0.79416 -0.96279,-1.99629 -0.96279,-3.60637c0,-1.71888 0.31005,-2.97539 0.93015,-3.76956c0.6201,-0.79416 1.43603,-1.19125 2.44777,-1.19125c0.59835,0 1.12597,0.15231 1.58288,0.45692c0.45692,0.30461 0.84857,0.73433 1.17492,1.28916l-0.13055,0.22846c-0.03263,-0.15231 -0.05983,-0.31549 -0.08159,-0.48955c-0.02176,-0.17406 -0.03263,-0.30461 -0.03263,-0.39164c0,-0.44604 0.07072,-0.78872 0.21214,-1.02807c0.15231,-0.25022 0.3862,-0.37533 0.7017,-0.37533c0.34813,0 0.6201,0.14143 0.81592,0.42428c0.2067,0.28285 0.36444,0.68537 0.47324,1.20757c0.14143,0.53307 0.26109,1.21301 0.359,2.03981c0.09791,0.81592 0.14687,1.64273 0.14687,2.48041c0,1.04438 -0.03808,1.92014 -0.11423,2.62727c-0.07615,0.70713 -0.20126,1.2946 -0.37533,1.7624c-0.17406,0.46779 -0.40252,0.87576 -0.68537,1.22388c-0.46779,0.5657 -1.07158,0.99542 -1.81135,1.28916c-0.72889,0.30461 -1.57201,0.45692 -2.52936,0.45692c-0.68537,0 -1.23477,-0.06528 -1.64816,-0.19582c-0.4134,-0.11967 -0.71257,-0.28829 -0.89751,-0.50587c-0.17406,-0.2067 -0.26109,-0.44059 -0.26109,-0.7017c0,-0.27198 0.07615,-0.50044 0.22846,-0.68537c0.15231,-0.17406 0.38076,-0.26109 0.68537,-0.26109c0.27198,0 0.58746,0.04352 0.94647,0.13055c0.36989,0.08703 0.80505,0.13055 1.30548,0.13055c1.05526,0 1.80047,-0.25022 2.23563,-0.75065c0.44604,-0.48955 0.66905,-1.19668 0.66905,-2.1214c0,-0.25022 -0.01632,-0.54394 -0.04896,-0.8812l0.22846,0.08159c-0.27198,0.69625 -0.6745,1.25653 -1.20757,1.6808c-0.53307,0.4134 -1.15318,0.6201 -1.8603,0.6201zM260.65278,182.39064c0.34813,0 0.69625,-0.09248 1.04438,-0.27741c0.34813,-0.18494 0.63642,-0.48955 0.86488,-0.91383c0.22846,-0.42428 0.34269,-0.99542 0.34269,-1.71344c0,-0.85944 -0.20126,-1.56114 -0.60378,-2.10508c-0.40252,-0.54394 -0.96823,-0.81592 -1.69712,-0.81592c-0.63098,0 -1.09333,0.23933 -1.38707,0.71801c-0.29374,0.47868 -0.44059,1.20212 -0.44059,2.17036c0,0.92472 0.14687,1.64816 0.44059,2.17036c0.29374,0.51131 0.7724,0.76696 1.43603,0.76696zM268.59864,172.14266c0.43516,0 0.7452,0.11967 0.93015,0.359c0.19582,0.23933 0.29374,0.51675 0.29374,0.83224c0,0.39164 -0.11967,0.69625 -0.359,0.91383c-0.22846,0.2067 -0.55483,0.31005 -0.97911,0.31005c-0.4134,0 -0.72346,-0.11423 -0.93015,-0.34269c-0.2067,-0.23933 -0.31005,-0.51675 -0.31005,-0.83224c0,-0.4134 0.12511,-0.72346 0.37533,-0.93015c0.25022,-0.2067 0.57659,-0.31005 0.97911,-0.31005zM268.69655,175.78166c0.34813,0 0.6201,0.32637 0.81592,0.97911c0.2067,0.65274 0.31005,1.69168 0.31005,3.11682c0,1.75151 -0.12511,3.01347 -0.37533,3.78588c-0.25022,0.7724 -0.63098,1.15861 -1.14229,1.15861c-0.39164,0 -0.67994,-0.28285 -0.86488,-0.84857c-0.18494,-0.57659 -0.27741,-1.57745 -0.27741,-3.0026c0,-1.75151 0.14143,-3.05155 0.42428,-3.90011c0.29374,-0.85944 0.66361,-1.28916 1.10966,-1.28916z"/></g></g></svg>