<svg width="98" height="113" viewBox="0 0 98 113" fill="none" xmlns="http://www.w3.org/2000/svg">
<path d="M1.03341 106.815L30.0215 23.7817L88.5667 27.1968L68.9144 111.211L1.03341 106.815Z" fill="#6FEF73" fill-opacity="0.13" stroke="black" stroke-width="1.5"/>
<line x1="88.5" y1="27" x2="88.5" y2="3" stroke="black"/>
<path d="M89 3L98 7.25L89 11V3Z" fill="#76FD9F"/>
<path d="M89 3L98 7.25L89 11V3Z" stroke="black"/>
<line x1="69.5" y1="112.021" x2="69.5" y2="88" stroke="black"/>
<path d="M70 88.0001L78 92.2501L70 96.0001V88.0001Z" fill="#76FD9F"/>
<path d="M70 88.0001L78 92.2501L70 96.0001V88.0001Z" stroke="black"/>
<line x1="1.5" y1="107.021" x2="1.5" y2="83" stroke="black"/>
<path d="M2 83L10 87.25L2 91V83Z" fill="#76FD9F"/>
<path d="M2 83L10 87.25L2 91V83Z" stroke="black"/>
<line x1="29.5" y1="25.0208" x2="29.5" y2="0.999958" stroke="black"/>
<path d="M29 0L37 4.25L29 8V0Z" fill="#76FD9F"/>
<path d="M29 0L37 4.25L29 8V0Z" stroke="black"/>
</svg>
