<svg width="25" height="25" viewBox="0 0 25 25" fill="none" xmlns="http://www.w3.org/2000/svg">
<circle cx="12.5" cy="12.5" r="12" fill="#63A1C1" stroke="black"/>
<path d="M13.632 17.132C12.728 17.132 11.976 16.964 11.376 16.628C10.776 16.284 10.328 15.804 10.032 15.188C9.736 14.572 9.588 13.852 9.588 13.028C9.588 12.116 9.752 11.32 10.08 10.64C10.416 9.952 10.9 9.42 11.532 9.044C12.164 8.668 12.924 8.48 13.812 8.48C14.644 8.48 15.308 8.628 15.804 8.924C16.3 9.212 16.548 9.58 16.548 10.028C16.548 10.292 16.464 10.504 16.296 10.664C16.128 10.816 15.884 10.892 15.564 10.892C15.356 10.892 15.152 10.848 14.952 10.76C14.752 10.672 14.536 10.588 14.304 10.508C14.08 10.42 13.812 10.376 13.5 10.376C13.1 10.376 12.728 10.452 12.384 10.604C12.048 10.756 11.776 11.012 11.568 11.372C11.368 11.724 11.268 12.204 11.268 12.812C11.268 13.732 11.468 14.384 11.868 14.768C12.276 15.152 12.812 15.344 13.476 15.344C13.708 15.344 13.952 15.324 14.208 15.284C14.464 15.236 14.704 15.192 14.928 15.152C15.152 15.104 15.332 15.08 15.468 15.08C15.74 15.08 15.956 15.148 16.116 15.284C16.276 15.412 16.356 15.604 16.356 15.86C16.356 16.228 16.124 16.532 15.66 16.772C15.196 17.012 14.52 17.132 13.632 17.132Z" fill="#0A0A0A"/>
</svg>
