<svg xmlns="http://www.w3.org/2000/svg" fill="none" viewBox="0 0 380 17" height="17" width="380">
<path fill="black" d="M8.64681 13.128C8.42281 13.128 8.22015 13.0693 8.03881 12.952C7.86815 12.8347 7.73481 12.632 7.63881 12.344C7.54281 12.0453 7.49481 11.6347 7.49481 11.112C7.49481 10.3547 7.51081 9.544 7.54281 8.68C7.57481 7.80533 7.61748 6.92533 7.67081 6.04C7.73481 5.144 7.79348 4.28 7.84681 3.448H7.78281C7.40948 4.99467 7.00948 6.168 6.58281 6.968C6.15615 7.75733 5.68148 8.152 5.15881 8.152C4.83881 8.152 4.54015 8.008 4.26281 7.72C3.99615 7.42133 3.73481 6.92533 3.47881 6.232C3.23348 5.528 2.96148 4.57333 2.66281 3.368H2.59881C2.63081 3.93333 2.66281 4.536 2.69481 5.176C2.72681 5.816 2.75348 6.46133 2.77481 7.112C2.80681 7.76267 2.82815 8.38133 2.83881 8.968C2.86015 9.55467 2.87081 10.0773 2.87081 10.536C2.87081 10.9307 2.83348 11.2933 2.75881 11.624C2.69481 11.9547 2.57215 12.216 2.39081 12.408C2.22015 12.6 1.98015 12.696 1.67081 12.696C1.25481 12.696 0.945479 12.5307 0.742813 12.2C0.540146 11.8587 0.438812 11.2987 0.438812 10.52C0.438812 10.0613 0.449479 9.528 0.470813 8.92C0.502813 8.30133 0.540146 7.66667 0.582813 7.016C0.625479 6.35467 0.678813 5.72 0.742813 5.112C0.806813 4.49333 0.876146 3.95467 0.950813 3.496C1.07881 2.77067 1.25481 2.25867 1.47881 1.96C1.70281 1.65067 2.00148 1.496 2.37481 1.496C2.68415 1.496 2.98815 1.63467 3.28681 1.912C3.58548 2.17867 3.89481 2.63733 4.21481 3.288C4.53481 3.928 4.87081 4.81333 5.22281 5.944H5.28681C5.62815 4.792 5.95348 3.86933 6.26281 3.176C6.57215 2.472 6.87081 1.96533 7.15881 1.656C7.44681 1.34667 7.71881 1.192 7.97481 1.192C8.38015 1.192 8.68948 1.352 8.90281 1.672C9.11615 1.98133 9.29215 2.424 9.43081 3C9.59081 3.66133 9.71881 4.43467 9.81481 5.32C9.91081 6.20533 9.98015 7.112 10.0228 8.04C10.0761 8.95733 10.1028 9.816 10.1028 10.616C10.1028 11.5333 9.96948 12.184 9.70281 12.568C9.43615 12.9413 9.08415 13.128 8.64681 13.128ZM16.6201 13.128C15.4361 13.128 14.4921 12.952 13.7881 12.6C13.0841 12.248 12.5774 11.7413 12.2681 11.08C11.9587 10.4187 11.8041 9.62933 11.8041 8.712C11.8041 7.54933 12.0174 6.56267 12.4441 5.752C12.8814 4.93067 13.4787 4.30133 14.2361 3.864C15.0041 3.42667 15.8734 3.208 16.8441 3.208C17.9854 3.208 18.8227 3.47467 19.3561 4.008C19.8894 4.53067 20.1561 5.21867 20.1561 6.072C20.1561 6.75467 19.9747 7.34667 19.6121 7.848C19.2601 8.33867 18.7694 8.71733 18.1401 8.984C17.5107 9.25067 16.7854 9.384 15.9641 9.384C15.5054 9.384 15.0627 9.32533 14.6361 9.208C14.2094 9.09067 13.8254 8.93067 13.4841 8.728L13.8681 8.024C13.8361 8.28 13.8201 8.536 13.8201 8.792C13.8201 9.53867 14.0547 10.0773 14.5241 10.408C14.9934 10.728 15.6601 10.888 16.5241 10.888C17.1961 10.888 17.7347 10.8293 18.1401 10.712C18.5454 10.5947 18.8867 10.4827 19.1641 10.376C19.4414 10.2587 19.7134 10.2 19.9801 10.2C20.1294 10.2 20.2627 10.2427 20.3801 10.328C20.5081 10.4027 20.6094 10.5147 20.6841 10.664C20.7694 10.8133 20.8121 10.9947 20.8121 11.208C20.8121 11.528 20.6521 11.8373 20.3321 12.136C20.0121 12.424 19.5374 12.664 18.9081 12.856C18.2894 13.0373 17.5267 13.128 16.6201 13.128ZM15.6921 7.896C16.4494 7.896 17.0574 7.736 17.5161 7.416C17.9747 7.096 18.2041 6.70133 18.2041 6.232C18.2041 5.85867 18.0761 5.55467 17.8201 5.32C17.5747 5.07467 17.1854 4.952 16.6521 4.952C16.1507 4.952 15.6974 5.048 15.2921 5.24C14.8974 5.42133 14.5881 5.66133 14.3641 5.96C14.1401 6.25867 14.0281 6.584 14.0281 6.936C14.0281 7.24533 14.1721 7.48533 14.4601 7.656C14.7587 7.816 15.1694 7.896 15.6921 7.896ZM23.8502 3.048C24.1915 3.048 24.4209 3.18667 24.5382 3.464C24.6662 3.74133 24.7302 4.152 24.7302 4.696C24.7302 4.824 24.7195 4.96267 24.6982 5.112C24.6875 5.25067 24.6662 5.37867 24.6342 5.496L24.6022 5.176C24.8582 4.48267 25.2529 3.944 25.7862 3.56C26.3195 3.16533 26.8849 2.968 27.4822 2.968C28.1435 2.968 28.6929 3.15467 29.1302 3.528C29.5782 3.90133 29.9089 4.424 30.1222 5.096C30.3462 5.768 30.4582 6.56267 30.4582 7.48C30.4582 8.04533 30.4315 8.60533 30.3782 9.16C30.3355 9.704 30.2715 10.2053 30.1862 10.664C30.1115 11.112 30.0262 11.48 29.9302 11.768C29.8022 12.1307 29.6369 12.4027 29.4342 12.584C29.2315 12.7547 28.9915 12.84 28.7142 12.84C28.4369 12.84 28.2235 12.7387 28.0742 12.536C27.9249 12.3333 27.8502 12.0613 27.8502 11.72C27.8502 11.3573 27.8769 10.92 27.9302 10.408C27.9835 9.88533 28.0315 9.35733 28.0742 8.824C28.1275 8.28 28.1542 7.78933 28.1542 7.352C28.1542 5.85867 27.6635 5.112 26.6822 5.112C26.1595 5.112 25.7222 5.34667 25.3702 5.816C25.0182 6.27467 24.7835 6.93067 24.6662 7.784C24.6342 8.072 24.6182 8.42933 24.6182 8.856C24.6182 9.28267 24.6182 9.70933 24.6182 10.136C24.6289 10.552 24.6182 10.904 24.5862 11.192C24.5435 11.832 24.4209 12.2907 24.2182 12.568C24.0262 12.8453 23.7595 12.984 23.4182 12.984C23.0235 12.984 22.7249 12.8027 22.5222 12.44C22.3195 12.0667 22.2182 11.4427 22.2182 10.568C22.2182 10.12 22.2289 9.61867 22.2502 9.064C22.2715 8.50933 22.2982 7.95467 22.3302 7.4C22.3729 6.83467 22.4209 6.32267 22.4742 5.864C22.5809 5 22.7355 4.31733 22.9382 3.816C23.1409 3.304 23.4449 3.048 23.8502 3.048ZM33.9897 16.184C33.4137 16.184 33.1257 15.8747 33.1257 15.256C33.1257 14.9147 33.243 14.5093 33.4777 14.04C33.7124 13.5707 34.0537 13.064 34.5017 12.52C34.9604 11.976 35.515 11.4213 36.1657 10.856L36.1497 10.984C34.731 9.576 33.6537 8.33867 32.9177 7.272C32.1924 6.20533 31.8297 5.28267 31.8297 4.504C31.8297 4.12 31.9257 3.82133 32.1177 3.608C32.3204 3.39467 32.587 3.288 32.9177 3.288C33.6217 3.288 34.3204 3.8 35.0137 4.824C35.707 5.848 36.363 7.40533 36.9817 9.496H37.0457C37.451 7.29867 37.883 5.688 38.3417 4.664C38.8004 3.62933 39.3444 3.112 39.9737 3.112C40.2724 3.112 40.491 3.21867 40.6297 3.432C40.779 3.63467 40.8537 3.92267 40.8537 4.296C40.8537 4.60533 40.7844 5.016 40.6457 5.528C40.5177 6.02933 40.331 6.6 40.0857 7.24C39.851 7.86933 39.5737 8.52533 39.2537 9.208C38.9444 9.89067 38.603 10.5627 38.2297 11.224C37.2804 12.9413 36.4697 14.1947 35.7977 14.984C35.1257 15.784 34.523 16.184 33.9897 16.184ZM46.7138 13.128C45.5298 13.128 44.5858 12.952 43.8818 12.6C43.1778 12.248 42.6711 11.7413 42.3618 11.08C42.0525 10.4187 41.8978 9.62933 41.8978 8.712C41.8978 7.54933 42.1111 6.56267 42.5378 5.752C42.9751 4.93067 43.5725 4.30133 44.3298 3.864C45.0978 3.42667 45.9671 3.208 46.9378 3.208C48.0791 3.208 48.9165 3.47467 49.4498 4.008C49.9831 4.53067 50.2498 5.21867 50.2498 6.072C50.2498 6.75467 50.0685 7.34667 49.7058 7.848C49.3538 8.33867 48.8631 8.71733 48.2338 8.984C47.6045 9.25067 46.8791 9.384 46.0578 9.384C45.5991 9.384 45.1565 9.32533 44.7298 9.208C44.3031 9.09067 43.9191 8.93067 43.5778 8.728L43.9618 8.024C43.9298 8.28 43.9138 8.536 43.9138 8.792C43.9138 9.53867 44.1485 10.0773 44.6178 10.408C45.0871 10.728 45.7538 10.888 46.6178 10.888C47.2898 10.888 47.8285 10.8293 48.2338 10.712C48.6391 10.5947 48.9805 10.4827 49.2578 10.376C49.5351 10.2587 49.8071 10.2 50.0738 10.2C50.2231 10.2 50.3565 10.2427 50.4738 10.328C50.6018 10.4027 50.7031 10.5147 50.7778 10.664C50.8631 10.8133 50.9058 10.9947 50.9058 11.208C50.9058 11.528 50.7458 11.8373 50.4258 12.136C50.1058 12.424 49.6311 12.664 49.0018 12.856C48.3831 13.0373 47.6205 13.128 46.7138 13.128ZM45.7858 7.896C46.5431 7.896 47.1511 7.736 47.6098 7.416C48.0685 7.096 48.2978 6.70133 48.2978 6.232C48.2978 5.85867 48.1698 5.55467 47.9138 5.32C47.6685 5.07467 47.2791 4.952 46.7458 4.952C46.2445 4.952 45.7911 5.048 45.3858 5.24C44.9911 5.42133 44.6818 5.66133 44.4578 5.96C44.2338 6.25867 44.1218 6.584 44.1218 6.936C44.1218 7.24533 44.2658 7.48533 44.5538 7.656C44.8525 7.816 45.2631 7.896 45.7858 7.896ZM54.0399 13.032C53.7093 13.032 53.4479 12.9573 53.2559 12.808C53.0639 12.648 52.9093 12.3867 52.7919 12.024C52.6319 11.4907 52.5093 10.8187 52.4239 10.008C52.3493 9.18667 52.3119 8.17867 52.3119 6.984C52.3119 6.248 52.3386 5.512 52.3919 4.776C52.4559 4.02933 52.5359 3.352 52.6319 2.744C52.7279 2.12533 52.8293 1.64533 52.9359 1.304C53.0533 0.941333 53.1919 0.690666 53.3519 0.551999C53.5119 0.413333 53.6933 0.344 53.8959 0.344C54.1093 0.344 54.2799 0.418667 54.4079 0.568C54.5359 0.706666 54.6373 0.957333 54.7119 1.32C54.7759 1.672 54.8239 2.104 54.8559 2.616C54.8986 3.128 54.9199 3.67733 54.9199 4.264C54.9199 5.064 54.8826 5.90667 54.8079 6.792C54.7333 7.67733 54.6319 8.54667 54.5039 9.4C54.3866 10.2533 54.2426 11.0373 54.0719 11.752L53.6239 11.528C53.9013 11.1867 54.2159 10.92 54.5679 10.728C54.9306 10.536 55.2613 10.44 55.5599 10.44C55.8053 10.44 55.9919 10.5093 56.1199 10.648C56.2586 10.776 56.3279 10.9787 56.3279 11.256C56.3279 11.5333 56.2053 11.8107 55.9599 12.088C55.7253 12.3653 55.4319 12.5947 55.0799 12.776C54.7279 12.9467 54.3813 13.032 54.0399 13.032ZM59.1887 0.728C59.6154 0.728 59.9194 0.845333 60.1007 1.08C60.2927 1.31467 60.3887 1.58667 60.3887 1.896C60.3887 2.28 60.2714 2.57867 60.0367 2.792C59.8127 2.99467 59.4927 3.096 59.0767 3.096C58.6714 3.096 58.3674 2.984 58.1647 2.76C57.962 2.52533 57.8607 2.25333 57.8607 1.944C57.8607 1.53867 57.9834 1.23467 58.2287 1.032C58.474 0.829333 58.794 0.728 59.1887 0.728ZM59.2847 4.296C59.626 4.296 59.8927 4.616 60.0847 5.256C60.2874 5.896 60.3887 6.91467 60.3887 8.312C60.3887 10.0293 60.266 11.2667 60.0207 12.024C59.7754 12.7813 59.402 13.16 58.9007 13.16C58.5167 13.16 58.234 12.8827 58.0527 12.328C57.8714 11.7627 57.7807 10.7813 57.7807 9.384C57.7807 7.66667 57.9194 6.392 58.1967 5.56C58.4847 4.71733 58.8474 4.296 59.2847 4.296ZM65.3352 13.224C64.2899 13.224 63.4739 12.8347 62.8872 12.056C62.3005 11.2667 62.0072 10.0667 62.0072 8.456C62.0072 6.856 62.2952 5.688 62.8712 4.952C63.4579 4.20533 64.2952 3.832 65.3832 3.832C66.0019 3.832 66.5405 3.96 66.9992 4.216C67.4685 4.472 67.8845 4.83467 68.2472 5.304L68.1192 5.368C68.0232 4.93067 67.9272 4.46667 67.8312 3.976C67.7352 3.48533 67.6552 3.02133 67.5912 2.584C67.5379 2.136 67.5112 1.784 67.5112 1.528C67.5112 1.16533 67.5699 0.887999 67.6872 0.695999C67.8045 0.493333 67.9912 0.391999 68.2472 0.391999C68.6099 0.391999 68.9032 0.546666 69.1272 0.855999C69.3512 1.15467 69.5379 1.61867 69.6872 2.248C69.8259 2.81333 69.9485 3.48533 70.0552 4.264C70.1619 5.032 70.2472 5.83733 70.3112 6.68C70.3859 7.512 70.4232 8.312 70.4232 9.08C70.4232 10.1467 70.3645 10.9787 70.2472 11.576C70.1405 12.1627 69.9859 12.5733 69.7832 12.808C69.5912 13.0427 69.3619 13.16 69.0952 13.16C68.7645 13.16 68.5405 12.9947 68.4232 12.664C68.3059 12.3333 68.2579 11.7947 68.2792 11.048H68.5192C68.2312 11.7093 67.8099 12.2373 67.2552 12.632C66.7112 13.0267 66.0712 13.224 65.3352 13.224ZM66.1832 11.24C66.5672 11.24 66.9192 11.144 67.2392 10.952C67.5699 10.7493 67.8312 10.44 68.0232 10.024C68.2259 9.608 68.3272 9.08 68.3272 8.44C68.3272 7.61867 68.1405 6.952 67.7672 6.44C67.3939 5.91733 66.8552 5.656 66.1512 5.656C65.5965 5.656 65.1432 5.88533 64.7912 6.344C64.4499 6.80267 64.2792 7.496 64.2792 8.424C64.2792 9.24533 64.4499 9.92267 64.7912 10.456C65.1432 10.9787 65.6072 11.24 66.1832 11.24ZM73.7824 0.728C74.2091 0.728 74.5131 0.845333 74.6944 1.08C74.8864 1.31467 74.9824 1.58667 74.9824 1.896C74.9824 2.28 74.8651 2.57867 74.6304 2.792C74.4064 2.99467 74.0864 3.096 73.6704 3.096C73.2651 3.096 72.9611 2.984 72.7584 2.76C72.5558 2.52533 72.4544 2.25333 72.4544 1.944C72.4544 1.53867 72.5771 1.23467 72.8224 1.032C73.0678 0.829333 73.3878 0.728 73.7824 0.728ZM73.8784 4.296C74.2198 4.296 74.4864 4.616 74.6784 5.256C74.8811 5.896 74.9824 6.91467 74.9824 8.312C74.9824 10.0293 74.8598 11.2667 74.6144 12.024C74.3691 12.7813 73.9958 13.16 73.4944 13.16C73.1104 13.16 72.8278 12.8827 72.6464 12.328C72.4651 11.7627 72.3744 10.7813 72.3744 9.384C72.3744 7.66667 72.5131 6.392 72.7904 5.56C73.0784 4.71733 73.4411 4.296 73.8784 4.296ZM78.0249 13.16C77.8223 13.16 77.6569 13.1013 77.5289 12.984C77.4009 12.856 77.3103 12.6747 77.2569 12.44C77.1716 12.0453 77.0969 11.4747 77.0329 10.728C76.9689 9.98133 76.9369 9.15467 76.9369 8.248C76.9369 7.128 76.9743 6.05067 77.0489 5.016C77.1343 3.98133 77.2409 3.13333 77.3689 2.472C77.5076 1.75733 77.6783 1.23467 77.8809 0.903999C78.0836 0.562666 78.3503 0.391999 78.6809 0.391999C78.9796 0.391999 79.2089 0.530666 79.3689 0.808C79.5289 1.07467 79.6089 1.53867 79.6089 2.2C79.6089 2.86133 79.5823 3.57067 79.5289 4.328C79.4863 5.08533 79.4116 5.896 79.3049 6.76H79.3689C80.0623 5.82133 80.7076 5.06933 81.3049 4.504C81.9129 3.93867 82.4676 3.528 82.9689 3.272C83.4809 3.016 83.9343 2.888 84.3289 2.888C84.6383 2.888 84.8676 2.984 85.0169 3.176C85.1663 3.368 85.2409 3.60267 85.2409 3.88C85.2409 4.424 84.8036 5.032 83.9289 5.704C83.0649 6.376 81.8169 7.064 80.1849 7.768L80.2009 7.512C81.2143 8.03467 82.0836 8.584 82.8089 9.16C83.5449 9.72533 84.1049 10.264 84.4889 10.776C84.8836 11.2773 85.0809 11.6987 85.0809 12.04C85.0809 12.3173 84.9903 12.5467 84.8089 12.728C84.6383 12.8987 84.3876 12.984 84.0569 12.984C83.6409 12.984 83.1769 12.8293 82.6649 12.52C82.1636 12.2 81.6409 11.7253 81.0969 11.096C80.5529 10.4667 80.0089 9.67733 79.4649 8.728H79.4009C79.3903 9.4 79.3476 10.056 79.2729 10.696C79.2089 11.3253 79.1236 11.8427 79.0169 12.248C78.9423 12.5253 78.8249 12.7493 78.6649 12.92C78.5156 13.08 78.3023 13.16 78.0249 13.16ZM87.9387 0.728C88.3654 0.728 88.6694 0.845333 88.8507 1.08C89.0427 1.31467 89.1387 1.58667 89.1387 1.896C89.1387 2.28 89.0214 2.57867 88.7867 2.792C88.5627 2.99467 88.2427 3.096 87.8267 3.096C87.4214 3.096 87.1174 2.984 86.9147 2.76C86.712 2.52533 86.6107 2.25333 86.6107 1.944C86.6107 1.53867 86.7334 1.23467 86.9787 1.032C87.224 0.829333 87.544 0.728 87.9387 0.728ZM88.0347 4.296C88.376 4.296 88.6427 4.616 88.8347 5.256C89.0374 5.896 89.1387 6.91467 89.1387 8.312C89.1387 10.0293 89.016 11.2667 88.7707 12.024C88.5254 12.7813 88.152 13.16 87.6507 13.16C87.2667 13.16 86.984 12.8827 86.8027 12.328C86.6214 11.7627 86.5307 10.7813 86.5307 9.384C86.5307 7.66667 86.6694 6.392 86.9467 5.56C87.2347 4.71733 87.5974 4.296 88.0347 4.296ZM96.1043 1.24C96.4136 1.24 96.6483 1.34667 96.8083 1.56C96.9683 1.76267 97.0483 2.09867 97.0483 2.568C97.0483 3.15467 96.979 3.816 96.8403 4.552C96.7016 5.288 96.5043 5.98667 96.2483 6.648L95.9923 6.328C96.8456 6.14667 97.731 6.06133 98.6483 6.072C99.5656 6.08267 100.398 6.18933 101.144 6.392L100.856 6.536C100.718 5.82133 100.611 5.112 100.536 4.408C100.472 3.704 100.44 3.08 100.44 2.536C100.44 2.03467 100.515 1.67733 100.664 1.464C100.814 1.25067 101.054 1.144 101.384 1.144C101.726 1.144 101.992 1.26667 102.184 1.512C102.376 1.74667 102.526 2.12 102.632 2.632C102.75 3.16533 102.84 3.81067 102.904 4.568C102.979 5.31467 103.016 6.08267 103.016 6.872C103.016 7.65067 102.995 8.44533 102.952 9.256C102.91 10.0667 102.83 10.8187 102.712 11.512C102.616 12.0667 102.462 12.4667 102.248 12.712C102.035 12.9573 101.742 13.08 101.368 13.08C100.984 13.08 100.707 12.9573 100.536 12.712C100.376 12.4667 100.296 12.008 100.296 11.336C100.296 10.6853 100.344 10.008 100.44 9.304C100.547 8.6 100.691 7.90667 100.872 7.224L101.208 7.72C100.398 7.89067 99.5496 7.976 98.6643 7.976C97.7896 7.96533 96.9363 7.88 96.1043 7.72L96.1363 7.176C96.3496 7.86933 96.547 8.584 96.7283 9.32C96.9203 10.056 97.0163 10.792 97.0163 11.528C97.0163 12.1147 96.915 12.5307 96.7123 12.776C96.5096 13.0107 96.2216 13.128 95.8483 13.128C95.5283 13.128 95.2723 13.0373 95.0803 12.856C94.8883 12.6747 94.7496 12.3387 94.6643 11.848C94.579 11.368 94.5096 10.7707 94.4563 10.056C94.403 9.33067 94.3763 8.568 94.3763 7.768C94.3763 6.81867 94.419 5.896 94.5043 5C94.5896 4.104 94.7016 3.336 94.8403 2.696C94.947 2.19467 95.1016 1.82667 95.3043 1.592C95.507 1.35733 95.7736 1.24 96.1043 1.24ZM112.038 13.16C111.676 13.16 111.425 13.0213 111.286 12.744C111.158 12.456 111.084 12.0027 111.062 11.384L111.222 11.464C110.625 12.6267 109.494 13.208 107.83 13.208C107.073 13.208 106.444 13.0747 105.942 12.808C105.441 12.5307 105.068 12.168 104.822 11.72C104.588 11.2613 104.47 10.7653 104.47 10.232C104.47 9.31467 104.79 8.58933 105.43 8.056C106.07 7.512 106.918 7.24 107.974 7.24C108.668 7.24 109.27 7.34133 109.782 7.544C110.294 7.74667 110.732 8.02933 111.094 8.392L110.822 8.36C110.748 7.28267 110.513 6.51467 110.118 6.056C109.734 5.58667 109.185 5.352 108.47 5.352C108.054 5.352 107.67 5.416 107.318 5.544C106.966 5.672 106.641 5.80533 106.342 5.944C106.054 6.072 105.782 6.136 105.526 6.136C105.27 6.136 105.068 6.05067 104.918 5.88C104.78 5.70933 104.71 5.49067 104.71 5.224C104.71 4.84 104.892 4.47733 105.254 4.136C105.628 3.79467 106.118 3.51733 106.726 3.304C107.334 3.09067 107.996 2.984 108.71 2.984C109.574 2.984 110.316 3.192 110.934 3.608C111.553 4.024 112.022 4.632 112.342 5.432C112.62 6.11467 112.817 6.87733 112.934 7.72C113.052 8.56267 113.11 9.464 113.11 10.424C113.11 11.1493 113.073 11.7093 112.998 12.104C112.924 12.4987 112.806 12.776 112.646 12.936C112.497 13.0853 112.294 13.16 112.038 13.16ZM108.502 11.368C108.854 11.368 109.212 11.32 109.574 11.224C109.937 11.1173 110.241 10.9627 110.486 10.76C110.732 10.5573 110.854 10.3067 110.854 10.008C110.854 9.752 110.748 9.544 110.534 9.384C110.332 9.21333 110.06 9.08533 109.718 9C109.388 8.91467 109.03 8.872 108.646 8.872C107.996 8.872 107.5 8.984 107.158 9.208C106.828 9.432 106.662 9.73067 106.662 10.104C106.662 10.5093 106.817 10.824 107.126 11.048C107.446 11.2613 107.905 11.368 108.502 11.368ZM119.11 2.984C120.059 2.984 120.742 3.12267 121.158 3.4C121.574 3.67733 121.782 4.03467 121.782 4.472C121.782 4.728 121.691 4.94133 121.51 5.112C121.339 5.272 121.094 5.352 120.774 5.352C120.443 5.352 120.097 5.304 119.734 5.208C119.382 5.112 118.971 5.064 118.502 5.064C117.958 5.064 117.553 5.17067 117.286 5.384C117.019 5.59733 116.886 5.86933 116.886 6.2C116.886 6.50933 117.003 6.75467 117.238 6.936C117.483 7.10667 117.947 7.23467 118.63 7.32C119.387 7.40533 120.011 7.544 120.502 7.736C121.003 7.91733 121.377 8.19467 121.622 8.568C121.867 8.93067 121.99 9.432 121.99 10.072C121.99 11.0853 121.633 11.8373 120.918 12.328C120.203 12.8187 119.217 13.064 117.958 13.064C117.158 13.064 116.523 13 116.054 12.872C115.585 12.744 115.243 12.5627 115.03 12.328C114.827 12.0933 114.726 11.816 114.726 11.496C114.726 11.2187 114.817 11.0053 114.998 10.856C115.19 10.696 115.414 10.616 115.67 10.616C115.915 10.616 116.177 10.648 116.454 10.712C116.731 10.7653 117.025 10.824 117.334 10.888C117.643 10.952 117.963 10.984 118.294 10.984C119.361 10.984 119.894 10.6533 119.894 9.992C119.894 9.768 119.841 9.58667 119.734 9.448C119.627 9.30933 119.435 9.19733 119.158 9.112C118.881 9.016 118.475 8.94133 117.942 8.888C117.302 8.824 116.747 8.71733 116.278 8.568C115.809 8.408 115.446 8.152 115.19 7.8C114.934 7.43733 114.806 6.94133 114.806 6.312C114.806 5.32 115.179 4.52 115.926 3.912C116.673 3.29333 117.734 2.984 119.11 2.984ZM125.017 0.728C125.443 0.728 125.747 0.845333 125.929 1.08C126.121 1.31467 126.217 1.58667 126.217 1.896C126.217 2.28 126.099 2.57867 125.865 2.792C125.641 2.99467 125.321 3.096 124.905 3.096C124.499 3.096 124.195 2.984 123.993 2.76C123.79 2.52533 123.689 2.25333 123.689 1.944C123.689 1.53867 123.811 1.23467 124.057 1.032C124.302 0.829333 124.622 0.728 125.017 0.728ZM125.113 4.296C125.454 4.296 125.721 4.616 125.913 5.256C126.115 5.896 126.217 6.91467 126.217 8.312C126.217 10.0293 126.094 11.2667 125.849 12.024C125.603 12.7813 125.23 13.16 124.729 13.16C124.345 13.16 124.062 12.8827 123.881 12.328C123.699 11.7627 123.609 10.7813 123.609 9.384C123.609 7.66667 123.747 6.392 124.025 5.56C124.313 4.71733 124.675 4.296 125.113 4.296ZM129.899 13.032C129.569 13.032 129.307 12.9573 129.115 12.808C128.923 12.648 128.769 12.3867 128.651 12.024C128.491 11.4907 128.369 10.8187 128.283 10.008C128.209 9.18667 128.171 8.17867 128.171 6.984C128.171 6.248 128.198 5.512 128.251 4.776C128.315 4.02933 128.395 3.352 128.491 2.744C128.587 2.12533 128.689 1.64533 128.795 1.304C128.913 0.941333 129.051 0.690666 129.211 0.551999C129.371 0.413333 129.553 0.344 129.755 0.344C129.969 0.344 130.139 0.418667 130.267 0.568C130.395 0.706666 130.497 0.957333 130.571 1.32C130.635 1.672 130.683 2.104 130.715 2.616C130.758 3.128 130.779 3.67733 130.779 4.264C130.779 5.064 130.742 5.90667 130.667 6.792C130.593 7.67733 130.491 8.54667 130.363 9.4C130.246 10.2533 130.102 11.0373 129.931 11.752L129.483 11.528C129.761 11.1867 130.075 10.92 130.427 10.728C130.79 10.536 131.121 10.44 131.419 10.44C131.665 10.44 131.851 10.5093 131.979 10.648C132.118 10.776 132.187 10.9787 132.187 11.256C132.187 11.5333 132.065 11.8107 131.819 12.088C131.585 12.3653 131.291 12.5947 130.939 12.776C130.587 12.9467 130.241 13.032 129.899 13.032ZM141.355 1.496C142.625 1.496 143.558 1.82133 144.155 2.472C144.763 3.12267 145.067 3.976 145.067 5.032C145.067 5.75733 144.897 6.38667 144.555 6.92C144.225 7.45333 143.771 7.86933 143.195 8.168C142.619 8.456 141.969 8.6 141.243 8.6C140.902 8.6 140.539 8.56267 140.155 8.488C139.782 8.41333 139.393 8.26933 138.987 8.056L139.067 7.848C139.153 8.11467 139.222 8.44533 139.275 8.84C139.339 9.224 139.387 9.624 139.419 10.04C139.462 10.4453 139.483 10.8187 139.483 11.16C139.483 11.7893 139.377 12.2747 139.163 12.616C138.961 12.9467 138.657 13.112 138.251 13.112C137.91 13.112 137.638 13.0053 137.435 12.792C137.243 12.5787 137.11 12.2267 137.035 11.736C136.961 11.2453 136.923 10.5893 136.923 9.768C136.923 8.18933 136.993 6.84533 137.131 5.736C137.281 4.616 137.531 3.736 137.883 3.096C138.161 2.60533 138.587 2.216 139.163 1.928C139.75 1.64 140.481 1.496 141.355 1.496ZM141.051 6.712C141.691 6.712 142.209 6.54133 142.603 6.2C143.009 5.85867 143.211 5.36267 143.211 4.712C143.211 4.28533 143.067 3.93333 142.779 3.656C142.502 3.368 142.065 3.224 141.467 3.224C141.03 3.224 140.651 3.32533 140.331 3.528C140.011 3.72 139.766 3.992 139.595 4.344C139.435 4.68533 139.355 5.08 139.355 5.528C139.355 5.944 139.489 6.248 139.755 6.44C140.033 6.62133 140.465 6.712 141.051 6.712ZM150.917 13.128C149.733 13.128 148.789 12.952 148.085 12.6C147.381 12.248 146.874 11.7413 146.565 11.08C146.256 10.4187 146.101 9.62933 146.101 8.712C146.101 7.54933 146.314 6.56267 146.741 5.752C147.178 4.93067 147.776 4.30133 148.533 3.864C149.301 3.42667 150.17 3.208 151.141 3.208C152.282 3.208 153.12 3.47467 153.653 4.008C154.186 4.53067 154.453 5.21867 154.453 6.072C154.453 6.75467 154.272 7.34667 153.909 7.848C153.557 8.33867 153.066 8.71733 152.437 8.984C151.808 9.25067 151.082 9.384 150.261 9.384C149.802 9.384 149.36 9.32533 148.933 9.208C148.506 9.09067 148.122 8.93067 147.781 8.728L148.165 8.024C148.133 8.28 148.117 8.536 148.117 8.792C148.117 9.53867 148.352 10.0773 148.821 10.408C149.29 10.728 149.957 10.888 150.821 10.888C151.493 10.888 152.032 10.8293 152.437 10.712C152.842 10.5947 153.184 10.4827 153.461 10.376C153.738 10.2587 154.01 10.2 154.277 10.2C154.426 10.2 154.56 10.2427 154.677 10.328C154.805 10.4027 154.906 10.5147 154.981 10.664C155.066 10.8133 155.109 10.9947 155.109 11.208C155.109 11.528 154.949 11.8373 154.629 12.136C154.309 12.424 153.834 12.664 153.205 12.856C152.586 13.0373 151.824 13.128 150.917 13.128ZM149.989 7.896C150.746 7.896 151.354 7.736 151.813 7.416C152.272 7.096 152.501 6.70133 152.501 6.232C152.501 5.85867 152.373 5.55467 152.117 5.32C151.872 5.07467 151.482 4.952 150.949 4.952C150.448 4.952 149.994 5.048 149.589 5.24C149.194 5.42133 148.885 5.66133 148.661 5.96C148.437 6.25867 148.325 6.584 148.325 6.936C148.325 7.24533 148.469 7.48533 148.757 7.656C149.056 7.816 149.466 7.896 149.989 7.896ZM158.147 3.048C158.488 3.048 158.718 3.18667 158.835 3.464C158.963 3.74133 159.027 4.152 159.027 4.696C159.027 4.824 159.016 4.96267 158.995 5.112C158.984 5.25067 158.963 5.37867 158.931 5.496L158.899 5.176C159.155 4.48267 159.55 3.944 160.083 3.56C160.616 3.16533 161.182 2.968 161.779 2.968C162.44 2.968 162.99 3.15467 163.427 3.528C163.875 3.90133 164.206 4.424 164.419 5.096C164.643 5.768 164.755 6.56267 164.755 7.48C164.755 8.04533 164.728 8.60533 164.675 9.16C164.632 9.704 164.568 10.2053 164.483 10.664C164.408 11.112 164.323 11.48 164.227 11.768C164.099 12.1307 163.934 12.4027 163.731 12.584C163.528 12.7547 163.288 12.84 163.011 12.84C162.734 12.84 162.52 12.7387 162.371 12.536C162.222 12.3333 162.147 12.0613 162.147 11.72C162.147 11.3573 162.174 10.92 162.227 10.408C162.28 9.88533 162.328 9.35733 162.371 8.824C162.424 8.28 162.451 7.78933 162.451 7.352C162.451 5.85867 161.96 5.112 160.979 5.112C160.456 5.112 160.019 5.34667 159.667 5.816C159.315 6.27467 159.08 6.93067 158.963 7.784C158.931 8.072 158.915 8.42933 158.915 8.856C158.915 9.28267 158.915 9.70933 158.915 10.136C158.926 10.552 158.915 10.904 158.883 11.192C158.84 11.832 158.718 12.2907 158.515 12.568C158.323 12.8453 158.056 12.984 157.715 12.984C157.32 12.984 157.022 12.8027 156.819 12.44C156.616 12.0667 156.515 11.4427 156.515 10.568C156.515 10.12 156.526 9.61867 156.547 9.064C156.568 8.50933 156.595 7.95467 156.627 7.4C156.67 6.83467 156.718 6.32267 156.771 5.864C156.878 5 157.032 4.31733 157.235 3.816C157.438 3.304 157.742 3.048 158.147 3.048ZM169.759 12.744C168.756 12.744 167.94 12.36 167.311 11.592C166.681 10.8133 166.367 9.63467 166.367 8.056C166.367 6.37067 166.671 5.13867 167.279 4.36C167.887 3.58133 168.687 3.192 169.679 3.192C170.265 3.192 170.783 3.34133 171.231 3.64C171.679 3.93867 172.063 4.36 172.383 4.904L172.255 5.128C172.223 4.97867 172.196 4.81867 172.175 4.648C172.153 4.47733 172.143 4.34933 172.143 4.264C172.143 3.82667 172.212 3.49067 172.351 3.256C172.5 3.01067 172.729 2.888 173.039 2.888C173.38 2.888 173.647 3.02667 173.839 3.304C174.041 3.58133 174.196 3.976 174.303 4.488C174.441 5.01067 174.559 5.67733 174.655 6.488C174.751 7.288 174.799 8.09867 174.799 8.92C174.799 9.944 174.761 10.8027 174.687 11.496C174.612 12.1893 174.489 12.7653 174.319 13.224C174.148 13.6827 173.924 14.0827 173.647 14.424C173.188 14.9787 172.596 15.4 171.871 15.688C171.156 15.9867 170.329 16.136 169.391 16.136C168.719 16.136 168.18 16.072 167.775 15.944C167.369 15.8267 167.076 15.6613 166.895 15.448C166.724 15.2453 166.639 15.016 166.639 14.76C166.639 14.4933 166.713 14.2693 166.863 14.088C167.012 13.9173 167.236 13.832 167.535 13.832C167.801 13.832 168.111 13.8747 168.463 13.96C168.825 14.0453 169.252 14.088 169.743 14.088C170.777 14.088 171.508 13.8427 171.935 13.352C172.372 12.872 172.591 12.1787 172.591 11.272C172.591 11.0267 172.575 10.7387 172.543 10.408L172.767 10.488C172.5 11.1707 172.105 11.72 171.583 12.136C171.06 12.5413 170.452 12.744 169.759 12.744ZM170.367 10.776C170.708 10.776 171.049 10.6853 171.391 10.504C171.732 10.3227 172.015 10.024 172.239 9.608C172.463 9.192 172.575 8.632 172.575 7.928C172.575 7.08533 172.377 6.39733 171.983 5.864C171.588 5.33067 171.033 5.064 170.319 5.064C169.7 5.064 169.247 5.29867 168.959 5.768C168.671 6.23733 168.527 6.94667 168.527 7.896C168.527 8.80267 168.671 9.512 168.959 10.024C169.247 10.5253 169.716 10.776 170.367 10.776ZM181.229 13.128C180.045 13.128 179.101 12.952 178.397 12.6C177.693 12.248 177.187 11.7413 176.877 11.08C176.568 10.4187 176.413 9.62933 176.413 8.712C176.413 7.54933 176.627 6.56267 177.053 5.752C177.491 4.93067 178.088 4.30133 178.845 3.864C179.613 3.42667 180.483 3.208 181.453 3.208C182.595 3.208 183.432 3.47467 183.965 4.008C184.499 4.53067 184.765 5.21867 184.765 6.072C184.765 6.75467 184.584 7.34667 184.221 7.848C183.869 8.33867 183.379 8.71733 182.749 8.984C182.12 9.25067 181.395 9.384 180.573 9.384C180.115 9.384 179.672 9.32533 179.245 9.208C178.819 9.09067 178.435 8.93067 178.093 8.728L178.477 8.024C178.445 8.28 178.429 8.536 178.429 8.792C178.429 9.53867 178.664 10.0773 179.133 10.408C179.603 10.728 180.269 10.888 181.133 10.888C181.805 10.888 182.344 10.8293 182.749 10.712C183.155 10.5947 183.496 10.4827 183.773 10.376C184.051 10.2587 184.323 10.2 184.589 10.2C184.739 10.2 184.872 10.2427 184.989 10.328C185.117 10.4027 185.219 10.5147 185.293 10.664C185.379 10.8133 185.421 10.9947 185.421 11.208C185.421 11.528 185.261 11.8373 184.941 12.136C184.621 12.424 184.147 12.664 183.517 12.856C182.899 13.0373 182.136 13.128 181.229 13.128ZM180.301 7.896C181.059 7.896 181.667 7.736 182.125 7.416C182.584 7.096 182.813 6.70133 182.813 6.232C182.813 5.85867 182.685 5.55467 182.429 5.32C182.184 5.07467 181.795 4.952 181.261 4.952C180.76 4.952 180.307 5.048 179.901 5.24C179.507 5.42133 179.197 5.66133 178.973 5.96C178.749 6.25867 178.637 6.584 178.637 6.936C178.637 7.24533 178.781 7.48533 179.069 7.656C179.368 7.816 179.779 7.896 180.301 7.896ZM188.556 13.032C188.225 13.032 187.964 12.9573 187.772 12.808C187.58 12.648 187.425 12.3867 187.308 12.024C187.148 11.4907 187.025 10.8187 186.94 10.008C186.865 9.18667 186.828 8.17867 186.828 6.984C186.828 6.248 186.854 5.512 186.908 4.776C186.972 4.02933 187.052 3.352 187.148 2.744C187.244 2.12533 187.345 1.64533 187.452 1.304C187.569 0.941333 187.708 0.690666 187.868 0.551999C188.028 0.413333 188.209 0.344 188.412 0.344C188.625 0.344 188.796 0.418667 188.924 0.568C189.052 0.706666 189.153 0.957333 189.228 1.32C189.292 1.672 189.34 2.104 189.372 2.616C189.414 3.128 189.436 3.67733 189.436 4.264C189.436 5.064 189.398 5.90667 189.324 6.792C189.249 7.67733 189.148 8.54667 189.02 9.4C188.902 10.2533 188.758 11.0373 188.588 11.752L188.14 11.528C188.417 11.1867 188.732 10.92 189.084 10.728C189.446 10.536 189.777 10.44 190.076 10.44C190.321 10.44 190.508 10.5093 190.636 10.648C190.774 10.776 190.844 10.9787 190.844 11.256C190.844 11.5333 190.721 11.8107 190.476 12.088C190.241 12.3653 189.948 12.5947 189.596 12.776C189.244 12.9467 188.897 13.032 188.556 13.032ZM196.184 13.048C195.331 13.048 194.584 12.8613 193.944 12.488C193.315 12.104 192.824 11.56 192.472 10.856C192.131 10.152 191.96 9.31467 191.96 8.344C191.96 7.33067 192.136 6.44533 192.488 5.688C192.84 4.93067 193.336 4.33867 193.976 3.912C194.627 3.48533 195.379 3.272 196.232 3.272C197.15 3.272 197.944 3.48 198.616 3.896C199.288 4.30133 199.811 4.872 200.184 5.608C200.558 6.344 200.744 7.20267 200.744 8.184C200.744 9.18667 200.558 10.0507 200.184 10.776C199.811 11.5013 199.283 12.0613 198.6 12.456C197.918 12.8507 197.112 13.048 196.184 13.048ZM196.408 10.888C197.07 10.888 197.592 10.6267 197.976 10.104C198.371 9.57067 198.568 8.86667 198.568 7.992C198.568 7.10667 198.371 6.40267 197.976 5.88C197.592 5.35733 197.07 5.096 196.408 5.096C195.726 5.096 195.187 5.35733 194.792 5.88C194.398 6.40267 194.2 7.10667 194.2 7.992C194.2 8.86667 194.398 9.57067 194.792 10.104C195.187 10.6267 195.726 10.888 196.408 10.888ZM209.255 5.672C209.361 5.23467 209.548 4.84 209.815 4.488C210.092 4.136 210.423 3.85867 210.807 3.656C211.201 3.44267 211.633 3.336 212.103 3.336C212.657 3.336 213.148 3.46933 213.575 3.736C214.001 4.00267 214.337 4.44 214.583 5.048C214.839 5.656 214.967 6.46667 214.967 7.48C214.967 8.00267 214.945 8.53067 214.903 9.064C214.86 9.59733 214.807 10.0933 214.743 10.552C214.679 11.0107 214.609 11.3947 214.535 11.704C214.428 12.1307 214.263 12.456 214.039 12.68C213.825 12.904 213.553 13.016 213.223 13.016C212.945 13.016 212.727 12.8933 212.567 12.648C212.407 12.4027 212.327 12.0507 212.327 11.592C212.327 11.3787 212.353 11.1067 212.407 10.776C212.46 10.4347 212.519 10.0667 212.583 9.672C212.647 9.26667 212.705 8.856 212.759 8.44C212.812 8.024 212.839 7.62933 212.839 7.256C212.839 6.70133 212.727 6.27467 212.503 5.976C212.279 5.66667 211.964 5.512 211.559 5.512C211.111 5.512 210.737 5.74667 210.439 6.216C210.151 6.67467 209.98 7.34667 209.927 8.232C209.884 9.02133 209.847 9.72533 209.815 10.344C209.783 10.952 209.703 11.4533 209.575 11.848C209.489 12.1253 209.367 12.3333 209.207 12.472C209.057 12.6107 208.855 12.68 208.599 12.68C208.311 12.68 208.081 12.5733 207.911 12.36C207.751 12.1467 207.66 11.8107 207.639 11.352C207.617 10.968 207.612 10.5147 207.623 9.992C207.633 9.46933 207.639 8.952 207.639 8.44C207.649 7.91733 207.644 7.48533 207.623 7.144C207.58 6.46133 207.457 5.96 207.255 5.64C207.063 5.32 206.769 5.16 206.375 5.16C205.916 5.16 205.548 5.37333 205.271 5.8C205.004 6.22667 204.839 6.81867 204.775 7.576C204.753 7.88533 204.743 8.26933 204.743 8.728C204.753 9.176 204.764 9.624 204.775 10.072C204.785 10.52 204.78 10.8933 204.759 11.192C204.748 11.832 204.647 12.2907 204.455 12.568C204.273 12.8453 204.017 12.984 203.687 12.984C203.292 12.984 203.004 12.856 202.823 12.6C202.652 12.344 202.54 11.9333 202.487 11.368C202.444 10.8667 202.412 10.3707 202.391 9.88C202.369 9.37867 202.359 8.88267 202.359 8.392C202.359 7.89067 202.369 7.34667 202.391 6.76C202.423 6.17333 202.465 5.61867 202.519 5.096C202.583 4.56267 202.695 4.11467 202.855 3.752C203.015 3.38933 203.281 3.208 203.655 3.208C203.964 3.208 204.183 3.36267 204.311 3.672C204.439 3.97067 204.503 4.43467 204.503 5.064C204.503 5.27733 204.487 5.47467 204.455 5.656L204.407 5.336C204.62 4.64267 204.961 4.104 205.431 3.72C205.9 3.32533 206.423 3.128 206.999 3.128C207.756 3.128 208.348 3.37333 208.775 3.864C209.201 4.344 209.436 5.01067 209.479 5.864L209.255 5.672ZM218.009 3.08C218.297 3.08 218.537 3.25067 218.729 3.592C218.921 3.92267 219.055 4.45067 219.129 5.176L218.793 5.48C218.985 4.73333 219.343 4.16267 219.865 3.768C220.388 3.37333 221.007 3.176 221.721 3.176C222.383 3.176 222.969 3.34667 223.481 3.688C223.993 4.02933 224.393 4.54667 224.681 5.24C224.98 5.92267 225.129 6.78133 225.129 7.816C225.129 9.49067 224.825 10.728 224.217 11.528C223.62 12.3173 222.804 12.712 221.769 12.712C221.023 12.712 220.436 12.552 220.009 12.232C219.583 11.912 219.284 11.5227 219.113 11.064L219.305 10.968C219.391 11.608 219.46 12.2427 219.513 12.872C219.577 13.4907 219.609 14.0347 219.609 14.504C219.609 14.984 219.524 15.3893 219.353 15.72C219.183 16.0507 218.911 16.216 218.537 16.216C218.175 16.216 217.903 16.0773 217.721 15.8C217.54 15.5227 217.407 15.1547 217.321 14.696C217.257 14.2267 217.193 13.624 217.129 12.888C217.065 12.152 217.012 11.3573 216.969 10.504C216.937 9.65067 216.921 8.81867 216.921 8.008C216.921 7.176 216.948 6.39733 217.001 5.672C217.065 4.936 217.14 4.33867 217.225 3.88C217.3 3.61333 217.396 3.416 217.513 3.288C217.641 3.14933 217.807 3.08 218.009 3.08ZM221.065 5.016C220.489 5.016 220.025 5.304 219.673 5.88C219.332 6.44533 219.161 7.17067 219.161 8.056C219.161 8.96267 219.332 9.64 219.673 10.088C220.025 10.536 220.479 10.76 221.033 10.76C221.673 10.76 222.132 10.5093 222.409 10.008C222.697 9.496 222.841 8.83467 222.841 8.024C222.841 6.98933 222.665 6.232 222.313 5.752C221.961 5.26133 221.545 5.016 221.065 5.016ZM230.637 13.048C229.784 13.048 229.037 12.8613 228.397 12.488C227.768 12.104 227.277 11.56 226.925 10.856C226.584 10.152 226.413 9.31467 226.413 8.344C226.413 7.33067 226.589 6.44533 226.941 5.688C227.293 4.93067 227.789 4.33867 228.429 3.912C229.08 3.48533 229.832 3.272 230.685 3.272C231.603 3.272 232.397 3.48 233.069 3.896C233.741 4.30133 234.264 4.872 234.637 5.608C235.011 6.344 235.197 7.20267 235.197 8.184C235.197 9.18667 235.011 10.0507 234.637 10.776C234.264 11.5013 233.736 12.0613 233.053 12.456C232.371 12.8507 231.565 13.048 230.637 13.048ZM230.861 10.888C231.523 10.888 232.045 10.6267 232.429 10.104C232.824 9.57067 233.021 8.86667 233.021 7.992C233.021 7.10667 232.824 6.40267 232.429 5.88C232.045 5.35733 231.523 5.096 230.861 5.096C230.179 5.096 229.64 5.35733 229.245 5.88C228.851 6.40267 228.653 7.10667 228.653 7.992C228.653 8.86667 228.851 9.57067 229.245 10.104C229.64 10.6267 230.179 10.888 230.861 10.888ZM237.9 13.16C237.697 13.16 237.532 13.1013 237.404 12.984C237.276 12.856 237.185 12.6747 237.132 12.44C237.047 12.0453 236.972 11.4747 236.908 10.728C236.844 9.98133 236.812 9.15467 236.812 8.248C236.812 7.128 236.849 6.05067 236.924 5.016C237.009 3.98133 237.116 3.13333 237.244 2.472C237.383 1.75733 237.553 1.23467 237.756 0.903999C237.959 0.562666 238.225 0.391999 238.556 0.391999C238.855 0.391999 239.084 0.530666 239.244 0.808C239.404 1.07467 239.484 1.53867 239.484 2.2C239.484 2.86133 239.457 3.57067 239.404 4.328C239.361 5.08533 239.287 5.896 239.18 6.76H239.244C239.937 5.82133 240.583 5.06933 241.18 4.504C241.788 3.93867 242.343 3.528 242.844 3.272C243.356 3.016 243.809 2.888 244.204 2.888C244.513 2.888 244.743 2.984 244.892 3.176C245.041 3.368 245.116 3.60267 245.116 3.88C245.116 4.424 244.679 5.032 243.804 5.704C242.94 6.376 241.692 7.064 240.06 7.768L240.076 7.512C241.089 8.03467 241.959 8.584 242.684 9.16C243.42 9.72533 243.98 10.264 244.364 10.776C244.759 11.2773 244.956 11.6987 244.956 12.04C244.956 12.3173 244.865 12.5467 244.684 12.728C244.513 12.8987 244.263 12.984 243.932 12.984C243.516 12.984 243.052 12.8293 242.54 12.52C242.039 12.2 241.516 11.7253 240.972 11.096C240.428 10.4667 239.884 9.67733 239.34 8.728H239.276C239.265 9.4 239.223 10.056 239.148 10.696C239.084 11.3253 238.999 11.8427 238.892 12.248C238.817 12.5253 238.7 12.7493 238.54 12.92C238.391 13.08 238.177 13.16 237.9 13.16ZM253.398 13.16C253.035 13.16 252.784 13.0213 252.646 12.744C252.518 12.456 252.443 12.0027 252.422 11.384L252.582 11.464C251.984 12.6267 250.854 13.208 249.19 13.208C248.432 13.208 247.803 13.0747 247.302 12.808C246.8 12.5307 246.427 12.168 246.182 11.72C245.947 11.2613 245.83 10.7653 245.83 10.232C245.83 9.31467 246.15 8.58933 246.79 8.056C247.43 7.512 248.278 7.24 249.334 7.24C250.027 7.24 250.63 7.34133 251.142 7.544C251.654 7.74667 252.091 8.02933 252.454 8.392L252.182 8.36C252.107 7.28267 251.872 6.51467 251.478 6.056C251.094 5.58667 250.544 5.352 249.83 5.352C249.414 5.352 249.03 5.416 248.678 5.544C248.326 5.672 248 5.80533 247.702 5.944C247.414 6.072 247.142 6.136 246.886 6.136C246.63 6.136 246.427 6.05067 246.278 5.88C246.139 5.70933 246.07 5.49067 246.07 5.224C246.07 4.84 246.251 4.47733 246.614 4.136C246.987 3.79467 247.478 3.51733 248.086 3.304C248.694 3.09067 249.355 2.984 250.07 2.984C250.934 2.984 251.675 3.192 252.294 3.608C252.912 4.024 253.382 4.632 253.702 5.432C253.979 6.11467 254.176 6.87733 254.294 7.72C254.411 8.56267 254.47 9.464 254.47 10.424C254.47 11.1493 254.432 11.7093 254.358 12.104C254.283 12.4987 254.166 12.776 254.006 12.936C253.856 13.0853 253.654 13.16 253.398 13.16ZM249.862 11.368C250.214 11.368 250.571 11.32 250.934 11.224C251.296 11.1173 251.6 10.9627 251.846 10.76C252.091 10.5573 252.214 10.3067 252.214 10.008C252.214 9.752 252.107 9.544 251.894 9.384C251.691 9.21333 251.419 9.08533 251.078 9C250.747 8.91467 250.39 8.872 250.006 8.872C249.355 8.872 248.859 8.984 248.518 9.208C248.187 9.432 248.022 9.73067 248.022 10.104C248.022 10.5093 248.176 10.824 248.486 11.048C248.806 11.2613 249.264 11.368 249.862 11.368ZM258.053 3.048C258.395 3.048 258.624 3.18667 258.741 3.464C258.869 3.74133 258.933 4.152 258.933 4.696C258.933 4.824 258.923 4.96267 258.901 5.112C258.891 5.25067 258.869 5.37867 258.837 5.496L258.805 5.176C259.061 4.48267 259.456 3.944 259.989 3.56C260.523 3.16533 261.088 2.968 261.685 2.968C262.347 2.968 262.896 3.15467 263.333 3.528C263.781 3.90133 264.112 4.424 264.325 5.096C264.549 5.768 264.661 6.56267 264.661 7.48C264.661 8.04533 264.635 8.60533 264.581 9.16C264.539 9.704 264.475 10.2053 264.389 10.664C264.315 11.112 264.229 11.48 264.133 11.768C264.005 12.1307 263.84 12.4027 263.637 12.584C263.435 12.7547 263.195 12.84 262.917 12.84C262.64 12.84 262.427 12.7387 262.277 12.536C262.128 12.3333 262.053 12.0613 262.053 11.72C262.053 11.3573 262.08 10.92 262.133 10.408C262.187 9.88533 262.235 9.35733 262.277 8.824C262.331 8.28 262.357 7.78933 262.357 7.352C262.357 5.85867 261.867 5.112 260.885 5.112C260.363 5.112 259.925 5.34667 259.573 5.816C259.221 6.27467 258.987 6.93067 258.869 7.784C258.837 8.072 258.821 8.42933 258.821 8.856C258.821 9.28267 258.821 9.70933 258.821 10.136C258.832 10.552 258.821 10.904 258.789 11.192C258.747 11.832 258.624 12.2907 258.421 12.568C258.229 12.8453 257.963 12.984 257.621 12.984C257.227 12.984 256.928 12.8027 256.725 12.44C256.523 12.0667 256.421 11.4427 256.421 10.568C256.421 10.12 256.432 9.61867 256.453 9.064C256.475 8.50933 256.501 7.95467 256.533 7.4C256.576 6.83467 256.624 6.32267 256.677 5.864C256.784 5 256.939 4.31733 257.141 3.816C257.344 3.304 257.648 3.048 258.053 3.048ZM272.932 13.08C272.271 13.08 271.721 12.9573 271.284 12.712C270.857 12.456 270.537 12.0667 270.324 11.544C270.175 11.1813 270.063 10.744 269.988 10.232C269.924 9.70933 269.892 9.112 269.892 8.44C269.892 7.288 269.929 6.33867 270.004 5.592C270.079 4.83467 270.185 4.22667 270.324 3.768C270.473 3.29867 270.639 2.92 270.82 2.632C271.108 2.19467 271.567 1.84267 272.196 1.576C272.825 1.30933 273.716 1.176 274.868 1.176C275.636 1.176 276.249 1.29333 276.708 1.528C277.177 1.752 277.513 2.05067 277.716 2.424C277.929 2.79733 278.036 3.21333 278.036 3.672C278.036 4.39733 277.823 4.99467 277.396 5.464C276.969 5.93333 276.409 6.30667 275.716 6.584V6.648C276.473 6.73333 277.06 6.97867 277.476 7.384C277.903 7.77867 278.116 8.344 278.116 9.08C278.116 9.66667 277.967 10.2053 277.668 10.696C277.38 11.176 276.985 11.5973 276.484 11.96C275.993 12.312 275.439 12.5893 274.82 12.792C274.201 12.984 273.572 13.08 272.932 13.08ZM273.428 11.16C273.94 11.16 274.393 11.0747 274.788 10.904C275.193 10.7333 275.508 10.504 275.732 10.216C275.967 9.91733 276.084 9.58133 276.084 9.208C276.084 8.80267 275.887 8.46667 275.492 8.2C275.108 7.92267 274.505 7.784 273.684 7.784C273.129 7.784 272.687 7.91733 272.356 8.184C272.036 8.44 271.876 8.88267 271.876 9.512C271.876 10.1093 272.004 10.536 272.26 10.792C272.516 11.0373 272.905 11.16 273.428 11.16ZM273.492 6.088C274.217 6.088 274.82 5.928 275.3 5.608C275.791 5.27733 276.036 4.85067 276.036 4.328C276.036 3.944 275.881 3.63467 275.572 3.4C275.263 3.16533 274.809 3.048 274.212 3.048C273.561 3.048 273.028 3.176 272.612 3.432C272.196 3.688 271.988 4.12533 271.988 4.744C271.988 5.24533 272.121 5.59733 272.388 5.8C272.665 5.992 273.033 6.088 273.492 6.088ZM286.882 13.16C286.519 13.16 286.269 13.0213 286.13 12.744C286.002 12.456 285.927 12.0027 285.906 11.384L286.066 11.464C285.469 12.6267 284.338 13.208 282.674 13.208C281.917 13.208 281.287 13.0747 280.786 12.808C280.285 12.5307 279.911 12.168 279.666 11.72C279.431 11.2613 279.314 10.7653 279.314 10.232C279.314 9.31467 279.634 8.58933 280.274 8.056C280.914 7.512 281.762 7.24 282.818 7.24C283.511 7.24 284.114 7.34133 284.626 7.544C285.138 7.74667 285.575 8.02933 285.938 8.392L285.666 8.36C285.591 7.28267 285.357 6.51467 284.962 6.056C284.578 5.58667 284.029 5.352 283.314 5.352C282.898 5.352 282.514 5.416 282.162 5.544C281.81 5.672 281.485 5.80533 281.186 5.944C280.898 6.072 280.626 6.136 280.37 6.136C280.114 6.136 279.911 6.05067 279.762 5.88C279.623 5.70933 279.554 5.49067 279.554 5.224C279.554 4.84 279.735 4.47733 280.098 4.136C280.471 3.79467 280.962 3.51733 281.57 3.304C282.178 3.09067 282.839 2.984 283.554 2.984C284.418 2.984 285.159 3.192 285.778 3.608C286.397 4.024 286.866 4.632 287.186 5.432C287.463 6.11467 287.661 6.87733 287.778 7.72C287.895 8.56267 287.954 9.464 287.954 10.424C287.954 11.1493 287.917 11.7093 287.842 12.104C287.767 12.4987 287.65 12.776 287.49 12.936C287.341 13.0853 287.138 13.16 286.882 13.16ZM283.346 11.368C283.698 11.368 284.055 11.32 284.418 11.224C284.781 11.1173 285.085 10.9627 285.33 10.76C285.575 10.5573 285.698 10.3067 285.698 10.008C285.698 9.752 285.591 9.544 285.378 9.384C285.175 9.21333 284.903 9.08533 284.562 9C284.231 8.91467 283.874 8.872 283.49 8.872C282.839 8.872 282.343 8.984 282.002 9.208C281.671 9.432 281.506 9.73067 281.506 10.104C281.506 10.5093 281.661 10.824 281.97 11.048C282.29 11.2613 282.749 11.368 283.346 11.368ZM291.538 3.048C291.879 3.048 292.108 3.18667 292.226 3.464C292.354 3.74133 292.418 4.152 292.418 4.696C292.418 4.824 292.407 4.96267 292.386 5.112C292.375 5.25067 292.354 5.37867 292.322 5.496L292.29 5.176C292.546 4.48267 292.94 3.944 293.474 3.56C294.007 3.16533 294.572 2.968 295.17 2.968C295.831 2.968 296.38 3.15467 296.818 3.528C297.266 3.90133 297.596 4.424 297.81 5.096C298.034 5.768 298.146 6.56267 298.146 7.48C298.146 8.04533 298.119 8.60533 298.066 9.16C298.023 9.704 297.959 10.2053 297.874 10.664C297.799 11.112 297.714 11.48 297.618 11.768C297.49 12.1307 297.324 12.4027 297.122 12.584C296.919 12.7547 296.679 12.84 296.402 12.84C296.124 12.84 295.911 12.7387 295.762 12.536C295.612 12.3333 295.538 12.0613 295.538 11.72C295.538 11.3573 295.564 10.92 295.618 10.408C295.671 9.88533 295.719 9.35733 295.762 8.824C295.815 8.28 295.842 7.78933 295.842 7.352C295.842 5.85867 295.351 5.112 294.37 5.112C293.847 5.112 293.41 5.34667 293.058 5.816C292.706 6.27467 292.471 6.93067 292.354 7.784C292.322 8.072 292.306 8.42933 292.306 8.856C292.306 9.28267 292.306 9.70933 292.306 10.136C292.316 10.552 292.306 10.904 292.274 11.192C292.231 11.832 292.108 12.2907 291.906 12.568C291.714 12.8453 291.447 12.984 291.106 12.984C290.711 12.984 290.412 12.8027 290.21 12.44C290.007 12.0667 289.906 11.4427 289.906 10.568C289.906 10.12 289.916 9.61867 289.938 9.064C289.959 8.50933 289.986 7.95467 290.018 7.4C290.06 6.83467 290.108 6.32267 290.162 5.864C290.268 5 290.423 4.31733 290.626 3.816C290.828 3.304 291.132 3.048 291.538 3.048ZM303.149 12.744C302.147 12.744 301.331 12.36 300.701 11.592C300.072 10.8133 299.757 9.63467 299.757 8.056C299.757 6.37067 300.061 5.13867 300.669 4.36C301.277 3.58133 302.077 3.192 303.069 3.192C303.656 3.192 304.173 3.34133 304.621 3.64C305.069 3.93867 305.453 4.36 305.773 4.904L305.645 5.128C305.613 4.97867 305.587 4.81867 305.565 4.648C305.544 4.47733 305.533 4.34933 305.533 4.264C305.533 3.82667 305.603 3.49067 305.741 3.256C305.891 3.01067 306.12 2.888 306.429 2.888C306.771 2.888 307.037 3.02667 307.229 3.304C307.432 3.58133 307.587 3.976 307.693 4.488C307.832 5.01067 307.949 5.67733 308.045 6.488C308.141 7.288 308.189 8.09867 308.189 8.92C308.189 9.944 308.152 10.8027 308.077 11.496C308.003 12.1893 307.88 12.7653 307.709 13.224C307.539 13.6827 307.315 14.0827 307.037 14.424C306.579 14.9787 305.987 15.4 305.261 15.688C304.547 15.9867 303.72 16.136 302.781 16.136C302.109 16.136 301.571 16.072 301.165 15.944C300.76 15.8267 300.467 15.6613 300.285 15.448C300.115 15.2453 300.029 15.016 300.029 14.76C300.029 14.4933 300.104 14.2693 300.253 14.088C300.403 13.9173 300.627 13.832 300.925 13.832C301.192 13.832 301.501 13.8747 301.853 13.96C302.216 14.0453 302.643 14.088 303.133 14.088C304.168 14.088 304.899 13.8427 305.325 13.352C305.763 12.872 305.981 12.1787 305.981 11.272C305.981 11.0267 305.965 10.7387 305.933 10.408L306.157 10.488C305.891 11.1707 305.496 11.72 304.973 12.136C304.451 12.5413 303.843 12.744 303.149 12.744ZM303.757 10.776C304.099 10.776 304.44 10.6853 304.781 10.504C305.123 10.3227 305.405 10.024 305.629 9.608C305.853 9.192 305.965 8.632 305.965 7.928C305.965 7.08533 305.768 6.39733 305.373 5.864C304.979 5.33067 304.424 5.064 303.709 5.064C303.091 5.064 302.637 5.29867 302.349 5.768C302.061 6.23733 301.917 6.94667 301.917 7.896C301.917 8.80267 302.061 9.512 302.349 10.024C302.637 10.5253 303.107 10.776 303.757 10.776ZM317.34 12.904C317.052 12.904 316.828 12.808 316.668 12.616C316.519 12.4133 316.417 12.1573 316.364 11.848C316.311 11.528 316.284 11.192 316.284 10.84L316.364 10.776C316.257 11.2347 316.049 11.6293 315.74 11.96C315.431 12.2907 315.073 12.5467 314.668 12.728C314.263 12.8987 313.857 12.984 313.452 12.984C312.908 12.984 312.412 12.856 311.964 12.6C311.516 12.344 311.169 11.9493 310.924 11.416C310.679 10.8507 310.487 10.1413 310.348 9.288C310.209 8.424 310.14 7.53867 310.14 6.632C310.14 6.14133 310.161 5.688 310.204 5.272C310.247 4.856 310.316 4.51467 310.412 4.248C310.497 3.97067 310.625 3.768 310.796 3.64C310.967 3.50133 311.185 3.432 311.452 3.432C311.761 3.432 312.001 3.55467 312.172 3.8C312.353 4.03467 312.465 4.36533 312.508 4.792C312.551 5.144 312.577 5.58133 312.588 6.104C312.609 6.616 312.625 7.13333 312.636 7.656C312.657 8.168 312.684 8.6 312.716 8.952C312.78 9.592 312.945 10.0667 313.212 10.376C313.479 10.6747 313.804 10.824 314.188 10.824C314.753 10.824 315.185 10.6107 315.484 10.184C315.783 9.75733 315.932 9.16 315.932 8.392C315.932 8.008 315.911 7.576 315.868 7.096C315.825 6.60533 315.777 6.13067 315.724 5.672C315.681 5.21333 315.66 4.83467 315.66 4.536C315.66 4.03467 315.745 3.67733 315.916 3.464C316.087 3.24 316.321 3.128 316.62 3.128C316.876 3.128 317.089 3.19733 317.26 3.336C317.441 3.47467 317.585 3.66667 317.692 3.912C317.841 4.232 317.969 4.66933 318.076 5.224C318.183 5.77867 318.268 6.408 318.332 7.112C318.396 7.816 318.428 8.55733 318.428 9.336C318.428 10.5307 318.348 11.4267 318.188 12.024C318.028 12.6107 317.745 12.904 317.34 12.904ZM322.006 3.048C322.348 3.048 322.577 3.18667 322.694 3.464C322.822 3.74133 322.886 4.152 322.886 4.696C322.886 4.824 322.876 4.96267 322.854 5.112C322.844 5.25067 322.822 5.37867 322.79 5.496L322.758 5.176C323.014 4.48267 323.409 3.944 323.942 3.56C324.476 3.16533 325.041 2.968 325.638 2.968C326.3 2.968 326.849 3.15467 327.286 3.528C327.734 3.90133 328.065 4.424 328.278 5.096C328.502 5.768 328.614 6.56267 328.614 7.48C328.614 8.04533 328.588 8.60533 328.534 9.16C328.492 9.704 328.428 10.2053 328.342 10.664C328.268 11.112 328.182 11.48 328.086 11.768C327.958 12.1307 327.793 12.4027 327.59 12.584C327.388 12.7547 327.148 12.84 326.87 12.84C326.593 12.84 326.38 12.7387 326.23 12.536C326.081 12.3333 326.006 12.0613 326.006 11.72C326.006 11.3573 326.033 10.92 326.086 10.408C326.14 9.88533 326.188 9.35733 326.23 8.824C326.284 8.28 326.31 7.78933 326.31 7.352C326.31 5.85867 325.82 5.112 324.838 5.112C324.316 5.112 323.878 5.34667 323.526 5.816C323.174 6.27467 322.94 6.93067 322.822 7.784C322.79 8.072 322.774 8.42933 322.774 8.856C322.774 9.28267 322.774 9.70933 322.774 10.136C322.785 10.552 322.774 10.904 322.742 11.192C322.7 11.832 322.577 12.2907 322.374 12.568C322.182 12.8453 321.916 12.984 321.574 12.984C321.18 12.984 320.881 12.8027 320.678 12.44C320.476 12.0667 320.374 11.4427 320.374 10.568C320.374 10.12 320.385 9.61867 320.406 9.064C320.428 8.50933 320.454 7.95467 320.486 7.4C320.529 6.83467 320.577 6.32267 320.63 5.864C320.737 5 320.892 4.31733 321.094 3.816C321.297 3.304 321.601 3.048 322.006 3.048ZM336.005 13.368C335.333 13.368 334.81 13.3253 334.437 13.24C334.074 13.1547 333.824 13.0373 333.685 12.888C333.546 12.728 333.472 12.552 333.461 12.36C333.461 12.0613 333.637 11.8107 333.989 11.608C334.352 11.4053 335.013 11.2773 335.973 11.224L335.717 11.528C335.6 10.984 335.514 10.3493 335.461 9.624C335.408 8.89867 335.386 8.14667 335.397 7.368C335.408 6.58933 335.445 5.848 335.509 5.144C335.573 4.42933 335.664 3.82133 335.781 3.32L337.173 3.224C336.938 3.32 336.645 3.40533 336.293 3.48C335.941 3.544 335.578 3.576 335.205 3.576C334.522 3.576 334.016 3.50133 333.685 3.352C333.365 3.20267 333.205 2.99467 333.205 2.728C333.205 2.25867 333.488 1.896 334.053 1.64C334.629 1.37333 335.509 1.24 336.693 1.24C338.101 1.24 339.285 1.47467 340.245 1.944C341.216 2.40267 341.952 3.048 342.453 3.88C342.954 4.70133 343.205 5.66133 343.205 6.76C343.205 7.72 343.034 8.60533 342.693 9.416C342.352 10.216 341.861 10.9147 341.221 11.512C340.592 12.0987 339.834 12.5573 338.949 12.888C338.074 13.208 337.093 13.368 336.005 13.368ZM338.277 10.904C338.64 10.904 339.024 10.76 339.429 10.472C339.845 10.1733 340.197 9.74133 340.485 9.176C340.773 8.6 340.917 7.89067 340.917 7.048C340.917 6.42933 340.826 5.89067 340.645 5.432C340.474 4.96267 340.25 4.57333 339.973 4.264C339.696 3.95467 339.402 3.72533 339.093 3.576C338.784 3.416 338.49 3.336 338.213 3.336C337.989 3.336 337.813 3.47467 337.685 3.752C337.568 4.02933 337.482 4.44533 337.429 5C337.376 5.544 337.349 6.22133 337.349 7.032C337.349 8.29067 337.413 9.25067 337.541 9.912C337.669 10.5733 337.914 10.904 338.277 10.904ZM351.96 13.16C351.598 13.16 351.347 13.0213 351.208 12.744C351.08 12.456 351.006 12.0027 350.984 11.384L351.144 11.464C350.547 12.6267 349.416 13.208 347.752 13.208C346.995 13.208 346.366 13.0747 345.864 12.808C345.363 12.5307 344.99 12.168 344.744 11.72C344.51 11.2613 344.392 10.7653 344.392 10.232C344.392 9.31467 344.712 8.58933 345.352 8.056C345.992 7.512 346.84 7.24 347.896 7.24C348.59 7.24 349.192 7.34133 349.704 7.544C350.216 7.74667 350.654 8.02933 351.016 8.392L350.744 8.36C350.67 7.28267 350.435 6.51467 350.04 6.056C349.656 5.58667 349.107 5.352 348.392 5.352C347.976 5.352 347.592 5.416 347.24 5.544C346.888 5.672 346.563 5.80533 346.264 5.944C345.976 6.072 345.704 6.136 345.448 6.136C345.192 6.136 344.99 6.05067 344.84 5.88C344.702 5.70933 344.632 5.49067 344.632 5.224C344.632 4.84 344.814 4.47733 345.176 4.136C345.55 3.79467 346.04 3.51733 346.648 3.304C347.256 3.09067 347.918 2.984 348.632 2.984C349.496 2.984 350.238 3.192 350.856 3.608C351.475 4.024 351.944 4.632 352.264 5.432C352.542 6.11467 352.739 6.87733 352.856 7.72C352.974 8.56267 353.032 9.464 353.032 10.424C353.032 11.1493 352.995 11.7093 352.92 12.104C352.846 12.4987 352.728 12.776 352.568 12.936C352.419 13.0853 352.216 13.16 351.96 13.16ZM348.424 11.368C348.776 11.368 349.134 11.32 349.496 11.224C349.859 11.1173 350.163 10.9627 350.408 10.76C350.654 10.5573 350.776 10.3067 350.776 10.008C350.776 9.752 350.67 9.544 350.456 9.384C350.254 9.21333 349.982 9.08533 349.64 9C349.31 8.91467 348.952 8.872 348.568 8.872C347.918 8.872 347.422 8.984 347.08 9.208C346.75 9.432 346.584 9.73067 346.584 10.104C346.584 10.5093 346.739 10.824 347.048 11.048C347.368 11.2613 347.827 11.368 348.424 11.368ZM357.203 3.368H356.883C356.851 2.89867 356.862 2.456 356.915 2.04C356.969 1.61333 357.081 1.272 357.251 1.016C357.433 0.749333 357.689 0.615999 358.019 0.615999C358.318 0.615999 358.537 0.711999 358.675 0.903999C358.814 1.096 358.883 1.36267 358.883 1.704C358.883 2.376 358.755 2.952 358.499 3.432L358.211 3.4C358.787 3.19733 359.438 3.096 360.163 3.096C360.622 3.096 360.985 3.18667 361.251 3.368C361.529 3.53867 361.667 3.832 361.667 4.248C361.667 4.64267 361.507 4.94133 361.187 5.144C360.867 5.34667 360.467 5.448 359.987 5.448C359.699 5.448 359.39 5.43733 359.059 5.416C358.739 5.384 358.425 5.336 358.115 5.272L358.387 4.936C358.483 5.34133 358.574 5.80533 358.659 6.328C358.755 6.84 358.841 7.37333 358.915 7.928C358.99 8.48267 359.049 9.02133 359.091 9.544C359.134 10.0667 359.155 10.536 359.155 10.952C359.155 11.6347 359.049 12.1733 358.835 12.568C358.622 12.9627 358.307 13.16 357.891 13.16C357.561 13.16 357.299 13.0587 357.107 12.856C356.926 12.6533 356.793 12.3973 356.707 12.088C356.633 11.768 356.585 11.4373 356.563 11.096C356.553 10.7547 356.547 10.4453 356.547 10.168C356.547 9.69867 356.569 9.17067 356.611 8.584C356.654 7.98667 356.713 7.37333 356.787 6.744C356.873 6.11467 356.969 5.50667 357.075 4.92L357.395 5.192C356.851 5.46933 356.179 5.608 355.379 5.608C354.889 5.608 354.51 5.51733 354.243 5.336C353.977 5.15467 353.843 4.872 353.843 4.488C353.843 4.072 353.993 3.752 354.291 3.528C354.59 3.29333 354.99 3.176 355.491 3.176C355.822 3.176 356.131 3.19733 356.419 3.24C356.718 3.272 356.979 3.31467 357.203 3.368ZM369.96 13.16C369.598 13.16 369.347 13.0213 369.208 12.744C369.08 12.456 369.006 12.0027 368.984 11.384L369.144 11.464C368.547 12.6267 367.416 13.208 365.752 13.208C364.995 13.208 364.366 13.0747 363.864 12.808C363.363 12.5307 362.99 12.168 362.744 11.72C362.51 11.2613 362.392 10.7653 362.392 10.232C362.392 9.31467 362.712 8.58933 363.352 8.056C363.992 7.512 364.84 7.24 365.896 7.24C366.59 7.24 367.192 7.34133 367.704 7.544C368.216 7.74667 368.654 8.02933 369.016 8.392L368.744 8.36C368.67 7.28267 368.435 6.51467 368.04 6.056C367.656 5.58667 367.107 5.352 366.392 5.352C365.976 5.352 365.592 5.416 365.24 5.544C364.888 5.672 364.563 5.80533 364.264 5.944C363.976 6.072 363.704 6.136 363.448 6.136C363.192 6.136 362.99 6.05067 362.84 5.88C362.702 5.70933 362.632 5.49067 362.632 5.224C362.632 4.84 362.814 4.47733 363.176 4.136C363.55 3.79467 364.04 3.51733 364.648 3.304C365.256 3.09067 365.918 2.984 366.632 2.984C367.496 2.984 368.238 3.192 368.856 3.608C369.475 4.024 369.944 4.632 370.264 5.432C370.542 6.11467 370.739 6.87733 370.856 7.72C370.974 8.56267 371.032 9.464 371.032 10.424C371.032 11.1493 370.995 11.7093 370.92 12.104C370.846 12.4987 370.728 12.776 370.568 12.936C370.419 13.0853 370.216 13.16 369.96 13.16ZM366.424 11.368C366.776 11.368 367.134 11.32 367.496 11.224C367.859 11.1173 368.163 10.9627 368.408 10.76C368.654 10.5573 368.776 10.3067 368.776 10.008C368.776 9.752 368.67 9.544 368.456 9.384C368.254 9.21333 367.982 9.08533 367.64 9C367.31 8.91467 366.952 8.872 366.568 8.872C365.918 8.872 365.422 8.984 365.08 9.208C364.75 9.432 364.584 9.73067 364.584 10.104C364.584 10.5093 364.739 10.824 365.048 11.048C365.368 11.2613 365.827 11.368 366.424 11.368ZM372.984 5.784C372.984 4.76 373.08 4.024 373.272 3.576C373.464 3.11733 373.736 2.888 374.088 2.888C374.365 2.888 374.584 3.00533 374.744 3.24C374.904 3.464 375.021 3.74667 375.096 4.088C375.17 4.41867 375.208 4.75467 375.208 5.096L375.128 5.064C375.309 4.488 375.586 3.992 375.96 3.576C376.344 3.16 376.802 2.952 377.336 2.952C377.965 2.952 378.429 3.21333 378.728 3.736C379.026 4.248 379.176 4.888 379.176 5.656C379.176 6.68 379.058 7.39467 378.824 7.8C378.589 8.20533 378.274 8.408 377.88 8.408C377.592 8.408 377.378 8.29067 377.24 8.056C377.112 7.82133 377.069 7.40533 377.112 6.808C377.154 6.17867 377.117 5.74133 377 5.496C376.882 5.25067 376.696 5.128 376.44 5.128C376.13 5.128 375.874 5.32533 375.672 5.72C375.48 6.104 375.384 6.57867 375.384 7.144C375.384 7.368 375.41 7.65067 375.464 7.992C375.517 8.33333 375.576 8.70667 375.64 9.112C375.704 9.50667 375.762 9.90133 375.816 10.296C375.869 10.6907 375.896 11.0533 375.896 11.384C375.896 11.9707 375.805 12.392 375.624 12.648C375.442 12.904 375.186 13.032 374.856 13.032C374.482 13.032 374.194 12.9147 373.992 12.68C373.789 12.4347 373.634 12.04 373.528 11.496C373.442 11.0053 373.357 10.424 373.272 9.752C373.186 9.08 373.117 8.392 373.064 7.688C373.01 6.984 372.984 6.34933 372.984 5.784Z"></path>
</svg>
