<svg version="1.1" xmlns="http://www.w3.org/2000/svg" xmlns:xlink="http://www.w3.org/1999/xlink" width="44.79999" height="19.86193" viewBox="0,0,44.79999,19.86193"><g transform="translate(-217.77552,-170.40606)"><g data-paper-data="{&quot;isPaintingLayer&quot;:true}" fill-rule="nonzero" stroke-linecap="butt" stroke-linejoin="miter" stroke-miterlimit="10" stroke-dasharray="" stroke-dashoffset="0" style="mix-blend-mode: normal"><g><path d="" fill="#ececec" stroke="none" stroke-width="1"/><path d="" fill="none" stroke="#dcd6d6" stroke-width="1.5"/><path d="" fill="none" stroke="#dcd6d6" stroke-width="1.5"/><path d="" fill="none" stroke="#dcd6d6" stroke-width="1.5"/><path d="" fill="none" stroke="#dcd6d6" stroke-width="1.5"/><path d="" fill="none" stroke="#dcd6d6" stroke-width="1.5"/><path d="" fill="none" stroke="#dcd6d6" stroke-width="1.5"/><path d="" fill="none" stroke="#dcd6d6" stroke-width="1.5"/><path d="" fill="none" stroke="#dcd6d6" stroke-width="1.5"/><path d="" fill="none" stroke="#dcd6d6" stroke-width="1.5"/><path d="" fill="none" stroke="#dcd6d6" stroke-width="1.5"/><path d="" fill="none" stroke="#dcd6d6" stroke-width="1.5"/><path d="" fill="none" stroke="#dcd6d6" stroke-width="1.5"/><path d="" fill="none" stroke="#dcd6d6" stroke-width="1.5"/><path d="" fill="none" stroke="#dcd6d6" stroke-width="1.5"/><path d="" fill="none" stroke="#dcd6d6" stroke-width="1.5"/><path d="" fill="none" stroke="#dcd6d6" stroke-width="1.5"/><path d="" fill="none" stroke="#dcd6d6" stroke-width="1.5"/><path d="" fill="none" stroke="#dcd6d6" stroke-width="1.5"/><path d="" fill="none" stroke="#dcd6d6" stroke-width="1.5"/><path d="" fill="none" stroke="#dcd6d6" stroke-width="1.5"/><path d="" fill="none" stroke="#dcd6d6" stroke-width="1.5"/><path d="" fill="none" stroke="#dcd6d6" stroke-width="1.5"/><path d="" fill="none" stroke="#dcd6d6" stroke-width="1.5"/><path d="" fill="none" stroke="#dcd6d6" stroke-width="1.5"/><path d="" fill="none" stroke="#dcd6d6" stroke-width="1.5"/><path d="" fill="none" stroke="#dcd6d6" stroke-width="1.5"/><path d="" fill="none" stroke="#dcd6d6" stroke-width="1.5"/><path d="" fill="none" stroke="#dcd6d6" stroke-width="1.5"/><path d="" fill="none" stroke="#dcd6d6" stroke-width="1.5"/><path d="" fill="none" stroke="#dcd6d6" stroke-width="1.5"/><path d="" fill="none" stroke="#dcd6d6" stroke-width="1.5"/><path d="" fill="none" stroke="#dcd6d6" stroke-width="1.5"/><path d="" fill="none" stroke="#dcd6d6" stroke-width="1.5"/><path d="" fill="none" stroke="#dcd6d6" stroke-width="1.5"/><path d="" fill="none" stroke="#dcd6d6" stroke-width="1.5"/><path d="" fill="none" stroke="#dcd6d6" stroke-width="1.5"/><path d="" fill="none" stroke="#dcd6d6" stroke-width="1.5"/><path d="" fill="none" stroke="#dcd6d6" stroke-width="1.5"/><path d="" fill="none" stroke="#dcd6d6" stroke-width="1.5"/><path d="" fill="none" stroke="#dcd6d6" stroke-width="1.5"/><g><path d="" fill="#ebebeb" stroke="none" stroke-width="1"/><path d="" fill="none" stroke="#000000" stroke-width="0.5"/></g><path d="" fill="#737373" stroke="none" stroke-width="1"/><path d="" fill="#737373" stroke="none" stroke-width="1"/><path d="" fill="#737373" stroke="none" stroke-width="1"/><path d="" fill="#737373" stroke="none" stroke-width="1"/></g><path d="" fill="#000000" stroke="none" stroke-width="1"/><path d="" fill="#000000" stroke="none" stroke-width="1"/><path d="" fill="#a5a7a9" stroke="#000000" stroke-width="1"/><path d="" fill="#000000" stroke="none" stroke-width="1"/><path d="M221.21731,170.90606h37.91641c1.62452,0 2.94179,1.26689 2.94179,2.82929v13.20335c0,1.5624 -1.31727,2.82929 -2.94179,2.82929h-37.91641c-1.62452,0 -2.94179,-1.26689 -2.94179,-2.82929v-13.20335c0,-1.5624 1.31727,-2.82929 2.94179,-2.82929z" fill="#a5a7a9" stroke="#000000" stroke-width="1"/><path d="M231.64955,178.249c0.1484,0 0.2994,0.08048 0.45304,0.24206c0.15821,0.15655 0.3236,0.3917 0.49618,0.70544c0.17258,0.31374 0.35955,0.70292 0.5609,1.16881c0.20593,0.46589 0.43147,1.00534 0.67596,1.61835h0.02876c-0.03333,-0.22131 -0.06472,-0.46337 -0.09348,-0.72619c-0.02876,-0.26281 -0.05492,-0.52813 -0.0791,-0.79534c-0.02418,-0.26721 -0.04315,-0.51619 -0.05753,-0.74693c-0.00981,-0.23514 -0.01438,-0.43571 -0.01438,-0.60169c0,-0.3829 0.03595,-0.65262 0.10787,-0.80918c0.07648,-0.16158 0.19415,-0.24206 0.35236,-0.24206c0.11049,0 0.19873,0.02766 0.26607,0.08299c0.06734,0.05533 0.12485,0.1358 0.17258,0.24206c0.11049,0.25841 0.18958,0.61301 0.2373,1.06507c0.04772,0.45206 0.07192,0.96825 0.07192,1.54919c0,0.44703 -0.01896,0.82741 -0.05753,1.14115c-0.03857,0.31374 -0.11048,0.55077 -0.21573,0.71236c-0.10525,0.16158 -0.25888,0.24206 -0.46023,0.24206c-0.13402,0 -0.27065,-0.05093 -0.4099,-0.15215c-0.13924,-0.10626 -0.28045,-0.26029 -0.42427,-0.46337c-0.13924,-0.20748 -0.28502,-0.46589 -0.43866,-0.7746c-0.1484,-0.30871 -0.3066,-0.66834 -0.47461,-1.0789c-0.16278,-0.41496 -0.33536,-0.87834 -0.51775,-1.39012h-0.02877c0.03333,0.23955 0.06211,0.5231 0.08629,0.85067c0.02418,0.32757 0.04314,0.66143 0.05753,1.00283c0.01439,0.3414 0.02158,0.65451 0.02158,0.94058c0,0.42879 -0.04576,0.7331 -0.13664,0.91292c-0.08629,0.17982 -0.22292,0.26973 -0.40989,0.26973c-0.20593,0 -0.35498,-0.09242 -0.44585,-0.27664c-0.08629,-0.18925 -0.12944,-0.47972 -0.12944,-0.87142c0,-0.24458 0.00458,-0.5231 0.01439,-0.83684c0.01439,-0.31374 0.03333,-0.63628 0.05753,-0.96825c0.02418,-0.33197 0.05492,-0.64759 0.09349,-0.9475c0.04772,-0.37347 0.11505,-0.64319 0.20135,-0.80918c0.08629,-0.17038 0.23273,-0.25589 0.43866,-0.25589zM237.75149,183.22164c-0.53214,0 -0.95642,-0.07608 -1.27282,-0.22823c-0.31641,-0.15215 -0.5439,-0.37095 -0.68315,-0.65702c-0.13924,-0.28607 -0.20854,-0.62684 -0.20854,-1.02357c0,-0.50236 0.09609,-0.92927 0.28764,-1.27947c0.19678,-0.35523 0.4648,-0.62684 0.8054,-0.81609c0.34517,-0.18925 0.73611,-0.28356 1.17215,-0.28356c0.51318,0 0.88907,0.11506 1.12899,0.3458c0.23992,0.22571 0.35955,0.5231 0.35955,0.89217c0,0.29488 -0.08172,0.55077 -0.2445,0.76768c-0.15821,0.21188 -0.3785,0.37598 -0.66157,0.49104c-0.28306,0.11506 -0.60863,0.1729 -0.97799,0.1729c-0.20593,0 -0.40531,-0.02515 -0.59685,-0.07608c-0.19155,-0.05093 -0.36413,-0.12009 -0.51776,-0.20748l0.17259,-0.30431c-0.01439,0.11066 -0.02157,0.22131 -0.02157,0.33197c0,0.32254 0.10525,0.5558 0.31641,0.69852c0.21115,0.13832 0.51056,0.20748 0.89888,0.20748c0.30202,0 0.54391,-0.02515 0.7263,-0.07608c0.18239,-0.05093 0.33536,-0.09934 0.46023,-0.14524c0.12486,-0.05093 0.24711,-0.07608 0.36674,-0.07608c0.06734,0 0.12682,0.01823 0.17978,0.05533c0.05753,0.03206 0.10329,0.08048 0.13664,0.14524c0.03857,0.06476 0.05753,0.14272 0.05753,0.23515c0,0.13832 -0.07191,0.27224 -0.21573,0.40113c-0.14382,0.12449 -0.35694,0.22823 -0.64,0.31122c-0.27784,0.07859 -0.62104,0.11757 -1.02832,0.11757zM237.33441,180.9601c0.3406,0 0.61385,-0.06916 0.81978,-0.20748c0.20593,-0.13832 0.30922,-0.30871 0.30922,-0.51179c0,-0.16158 -0.05753,-0.29299 -0.17259,-0.39421c-0.11049,-0.10626 -0.28502,-0.15907 -0.52495,-0.15907c-0.22554,0 -0.42885,0.0415 -0.61124,0.12449c-0.17715,0.07859 -0.31641,0.18233 -0.41708,0.31122c-0.10067,0.12889 -0.15102,0.26973 -0.15102,0.42188c0,0.13392 0.06472,0.23766 0.19416,0.31122c0.13402,0.06916 0.31902,0.10374 0.55371,0.10374zM240.46905,183.22855c-0.13467,0 -0.24973,-0.0459 -0.34518,-0.13832c-0.0961,-0.09682 -0.14382,-0.21691 -0.14382,-0.35963c0,-0.16599 0.06929,-0.3458 0.20854,-0.53945c0.1386,-0.19805 0.33994,-0.3917 0.60404,-0.58095c0.26803,-0.18925 0.58705,-0.35523 0.95641,-0.49796v-0.02766c-0.60928,-0.24898 -1.05709,-0.52813 -1.34473,-0.83684c-0.28306,-0.30871 -0.42427,-0.59227 -0.42427,-0.85068c0,-0.10626 0.02353,-0.19616 0.07191,-0.26973c0.0523,-0.07356 0.11964,-0.13141 0.20136,-0.1729c0.08629,-0.0415 0.17455,-0.06224 0.26607,-0.06224c0.19612,0 0.38571,0.07168 0.56809,0.2144c0.18697,0.13832 0.36871,0.33888 0.54651,0.60169c0.17715,0.25841 0.34976,0.56963 0.51776,0.93367h0.02876c0.24449,-0.63187 0.49814,-1.09022 0.76225,-1.37629c0.26803,-0.29047 0.54651,-0.43571 0.83416,-0.43571c0.1386,0 0.24645,0.04401 0.3236,0.13141c0.07648,0.08299 0.11505,0.18925 0.11505,0.31814c0,0.30431 -0.13663,0.6017 -0.40989,0.89217c-0.27326,0.29047 -0.68839,0.5646 -1.24405,0.82301v0.03458c0.51253,0.27224 0.89365,0.5558 1.14338,0.85068c0.25365,0.29047 0.38113,0.54637 0.38113,0.76768c0,0.13832 -0.04315,0.24898 -0.12944,0.33197c-0.08172,0.08299 -0.17977,0.12449 -0.29483,0.12449c-0.20135,0 -0.38831,-0.07167 -0.5609,-0.2144c-0.17258,-0.14272 -0.33601,-0.3414 -0.48899,-0.59478c-0.14906,-0.25841 -0.29026,-0.55329 -0.42427,-0.88525h-0.02876c-0.17782,0.41936 -0.36216,0.76517 -0.55371,1.03741c-0.18697,0.26721 -0.37654,0.46589 -0.56809,0.59478c-0.19219,0.12449 -0.38112,0.18673 -0.56809,0.18673zM246.01203,179.00285h-0.14382c-0.01439,-0.20308 -0.00916,-0.39422 0.01438,-0.57403c0.02418,-0.18422 0.07452,-0.33197 0.15102,-0.44263c0.08172,-0.11506 0.19677,-0.1729 0.34517,-0.1729c0.13467,0 0.23273,0.0415 0.29483,0.12449c0.06276,0.08299 0.09348,0.19805 0.09348,0.3458c0,0.29047 -0.05752,0.53945 -0.17259,0.74693l-0.12944,-0.01383c0.25887,-0.08739 0.55175,-0.13141 0.87731,-0.13141c0.20657,0 0.36936,0.03898 0.48899,0.11757c0.12486,0.07356 0.18697,0.20057 0.18697,0.38038c0,0.17038 -0.07192,0.2999 -0.21574,0.3873c-0.14382,0.08739 -0.32359,0.13141 -0.53932,0.13141c-0.12944,0 -0.26803,-0.0044 -0.41708,-0.01383c-0.14382,-0.01383 -0.28502,-0.03458 -0.42427,-0.06224l0.12225,-0.14524c0.04315,0.17542 0.08433,0.37598 0.12225,0.6017c0.04315,0.22131 0.08172,0.45206 0.11506,0.6916c0.03399,0.23955 0.06015,0.47281 0.0791,0.69852c0.01961,0.22571 0.02876,0.42879 0.02876,0.60861c0,0.29488 -0.04772,0.52813 -0.14382,0.69852c-0.09545,0.17038 -0.2373,0.25589 -0.42427,0.25589c-0.1484,0 -0.26607,-0.04401 -0.35236,-0.1314c-0.08106,-0.08739 -0.14121,-0.19805 -0.17978,-0.33197c-0.03333,-0.13832 -0.05491,-0.28104 -0.06472,-0.42879c-0.00458,-0.14775 -0.00719,-0.28104 -0.00719,-0.40113c0,-0.20308 0.00981,-0.43131 0.02876,-0.68469c0.01961,-0.25841 0.04577,-0.52311 0.0791,-0.79534c0.03857,-0.27224 0.08172,-0.53505 0.12944,-0.78843l0.14382,0.11757c-0.24449,0.12009 -0.54651,0.17982 -0.90607,0.17982c-0.2203,0 -0.39027,-0.03898 -0.51056,-0.11757c-0.11963,-0.07859 -0.17979,-0.20057 -0.17979,-0.36655c0,-0.17982 0.06734,-0.31814 0.20136,-0.41496c0.13467,-0.10123 0.31444,-0.15215 0.53933,-0.15215c0.14906,0 0.28764,0.00943 0.41708,0.02767c0.13467,0.01383 0.25169,0.03206 0.35236,0.05532z" fill="#000000" stroke="none" stroke-width="1"/></g></g></svg>