<svg version="1.1" xmlns="http://www.w3.org/2000/svg" xmlns:xlink="http://www.w3.org/1999/xlink" width="249.61311" height="118.37279" viewBox="0,0,249.61311,118.37279"><g transform="translate(-115.19345,-120.8136)"><g data-paper-data="{&quot;isPaintingLayer&quot;:true}" fill-rule="nonzero" stroke-linejoin="miter" stroke-miterlimit="10" stroke-dasharray="" stroke-dashoffset="0" style="mix-blend-mode: normal"><path d="M216.99489,135.54838h133.26189v88.93104h-87.63701z" fill="none" stroke="#eb1d0a" stroke-width="2" stroke-linecap="round"/><path d="M262.74726,224.84079h-132.98008v-89.29242h87.45105z" fill="none" stroke="#1978f4" stroke-width="2" stroke-linecap="round"/><path d="M291.91103,238.14733c-0.25306,0 -0.53679,-0.01534 -0.85119,-0.04601c-0.30673,-0.03067 -0.6058,-0.08819 -0.8972,-0.17254c-0.28373,-0.09202 -0.52145,-0.21471 -0.71316,-0.36808c-0.18404,-0.16104 -0.27606,-0.36808 -0.27606,-0.62114c0,-0.26072 0.08052,-0.45627 0.24155,-0.58663c0.1687,-0.13036 0.44093,-0.19554 0.81668,-0.19554c0.26072,0 0.55212,0.03451 0.87419,0.10352c0.32974,0.06902 0.64414,0.10352 0.94321,0.10352c0.44477,0 0.77067,-0.06902 0.97772,-0.20705c0.21471,-0.13803 0.32207,-0.32591 0.32207,-0.56363c0,-0.1457 -0.04218,-0.27606 -0.12653,-0.39109c-0.07668,-0.11503 -0.23389,-0.23005 -0.4716,-0.34508c-0.23772,-0.11503 -0.5943,-0.24155 -1.06974,-0.37958c-0.54445,-0.1457 -0.98539,-0.30673 -1.32279,-0.48311c-0.33741,-0.18404 -0.5828,-0.40259 -0.73616,-0.65565c-0.15337,-0.25306 -0.23005,-0.55212 -0.23005,-0.8972c0,-0.42176 0.07285,-0.78601 0.21855,-1.09274c0.15337,-0.3144 0.35658,-0.57896 0.60964,-0.79368c0.25306,-0.22238 0.53679,-0.39876 0.85119,-0.52912c0.3144,-0.13036 0.63264,-0.22622 0.95471,-0.28756c0.32974,-0.06135 0.64414,-0.09202 0.94321,-0.09202c0.65948,0 1.19627,0.10352 1.61036,0.31057c0.42176,0.20705 0.63264,0.48311 0.63264,0.82818c0,0.24539 -0.08052,0.44477 -0.24155,0.59813c-0.15337,0.15337 -0.39109,0.23005 -0.71316,0.23005c-0.13803,0 -0.3029,-0.01917 -0.49461,-0.05751c-0.19171,-0.03834 -0.40259,-0.07668 -0.63264,-0.11503c-0.23005,-0.03834 -0.48311,-0.05751 -0.75917,-0.05751c-0.46777,0 -0.82818,0.07285 -1.08124,0.21855c-0.25306,0.1457 -0.37958,0.37958 -0.37958,0.70166c0,0.13803 0.03451,0.26456 0.10352,0.37958c0.07668,0.11503 0.23389,0.23389 0.4716,0.35658c0.23772,0.12269 0.60197,0.26456 1.09274,0.42559c0.6058,0.18404 1.08124,0.38725 1.42632,0.60964c0.34508,0.21471 0.59046,0.4601 0.73616,0.73616c0.1457,0.27606 0.21855,0.58663 0.21855,0.93171c0,0.47544 -0.13036,0.8972 -0.39109,1.26528c-0.25306,0.36041 -0.60964,0.64031 -1.06974,0.83969c-0.45243,0.19938 -0.98155,0.29907 -1.58735,0.29907zM297.21562,229.29036c0.30673,0 0.52528,0.08435 0.65565,0.25306c0.13803,0.1687 0.20705,0.36425 0.20705,0.58663c0,0.27606 -0.08435,0.49078 -0.25306,0.64414c-0.16104,0.1457 -0.39109,0.21855 -0.69015,0.21855c-0.2914,0 -0.50995,-0.08052 -0.65565,-0.24155c-0.1457,-0.1687 -0.21855,-0.36425 -0.21855,-0.58663c0,-0.2914 0.08819,-0.50995 0.26456,-0.65565c0.17637,-0.1457 0.40642,-0.21855 0.69015,-0.21855zM297.28464,231.85543c0.24539,0 0.4371,0.23005 0.57513,0.69015c0.1457,0.4601 0.21855,1.19243 0.21855,2.19699c0,1.23461 -0.08819,2.12414 -0.26456,2.66859c-0.17637,0.54445 -0.44477,0.81668 -0.80518,0.81668c-0.27606,0 -0.47927,-0.19938 -0.60964,-0.59813c-0.13036,-0.40642 -0.19554,-1.11191 -0.19554,-2.11647c0,-1.23461 0.09969,-2.15098 0.29907,-2.74911c0.20705,-0.6058 0.46777,-0.9087 0.78217,-0.9087zM302.39369,230.91222c0.68248,0 1.17326,0.09969 1.47233,0.29907c0.29907,0.19938 0.4486,0.45627 0.4486,0.77067c0,0.18404 -0.06518,0.33741 -0.19554,0.4601c-0.12269,0.11503 -0.29907,0.17254 -0.52912,0.17254c-0.23772,0 -0.48694,-0.03451 -0.74767,-0.10352c-0.25306,-0.06902 -0.54829,-0.10352 -0.8857,-0.10352c-0.39109,0 -0.68248,0.07668 -0.87419,0.23005c-0.19171,0.15337 -0.28756,0.34891 -0.28756,0.58663c0,0.22238 0.08435,0.39876 0.25306,0.52912c0.17637,0.12269 0.50995,0.21471 1.00072,0.27606c0.54445,0.06135 0.99305,0.16104 1.3458,0.29907c0.36041,0.13036 0.62881,0.32974 0.80518,0.59813c0.17637,0.26072 0.26456,0.62114 0.26456,1.08124c0,0.7285 -0.25689,1.26912 -0.77067,1.62186c-0.51378,0.35275 -1.2231,0.52912 -2.12797,0.52912c-0.57513,0 -1.0314,-0.04601 -1.3688,-0.13803c-0.33741,-0.09202 -0.5828,-0.22238 -0.73616,-0.39109c-0.1457,-0.1687 -0.21855,-0.36808 -0.21855,-0.59813c0,-0.19938 0.06518,-0.35275 0.19554,-0.4601c0.13803,-0.11503 0.29907,-0.17254 0.48311,-0.17254c0.17637,0 0.36425,0.02301 0.56363,0.06902c0.19938,0.03834 0.41026,0.08052 0.63264,0.12653c0.22238,0.04601 0.45243,0.06902 0.69015,0.06902c0.76684,0 1.15026,-0.23772 1.15026,-0.71316c0,-0.16104 -0.03834,-0.2914 -0.11503,-0.39109c-0.07668,-0.09969 -0.21471,-0.18021 -0.41409,-0.24155c-0.19938,-0.06902 -0.49078,-0.12269 -0.87419,-0.16104c-0.4601,-0.04601 -0.85886,-0.12269 -1.19627,-0.23005c-0.33741,-0.11503 -0.59813,-0.29907 -0.78217,-0.55212c-0.18404,-0.26072 -0.27606,-0.6173 -0.27606,-1.06974c0,-0.71316 0.26839,-1.28829 0.80518,-1.72538c0.53679,-0.44477 1.29979,-0.66715 2.28901,-0.66715zM306.64005,229.29036c0.30673,0 0.52528,0.08435 0.65565,0.25306c0.13803,0.1687 0.20705,0.36425 0.20705,0.58663c0,0.27606 -0.08435,0.49078 -0.25306,0.64414c-0.16104,0.1457 -0.39109,0.21855 -0.69015,0.21855c-0.2914,0 -0.50995,-0.08052 -0.65565,-0.24155c-0.1457,-0.1687 -0.21855,-0.36425 -0.21855,-0.58663c0,-0.2914 0.08819,-0.50995 0.26456,-0.65565c0.17637,-0.1457 0.40642,-0.21855 0.69015,-0.21855zM306.70907,231.85543c0.24539,0 0.4371,0.23005 0.57513,0.69015c0.1457,0.4601 0.21855,1.19243 0.21855,2.19699c0,1.23461 -0.08819,2.12414 -0.26456,2.66859c-0.17637,0.54445 -0.44477,0.81668 -0.80518,0.81668c-0.27606,0 -0.47927,-0.19938 -0.60964,-0.59813c-0.13036,-0.40642 -0.19554,-1.11191 -0.19554,-2.11647c0,-1.23461 0.09969,-2.15098 0.29907,-2.74911c0.20705,-0.6058 0.46777,-0.9087 0.78217,-0.9087zM316.23798,238.22785c-0.26072,0 -0.44093,-0.09969 -0.54062,-0.29907c-0.09202,-0.20705 -0.1457,-0.53295 -0.16104,-0.97772l0.11503,0.05751c-0.42943,0.83585 -1.24228,1.25378 -2.43854,1.25378c-0.54445,0 -0.99689,-0.09585 -1.3573,-0.28756c-0.36041,-0.19938 -0.62881,-0.4601 -0.80518,-0.78217c-0.1687,-0.32974 -0.25306,-0.68632 -0.25306,-1.06974c0,-0.65948 0.23005,-1.18093 0.69015,-1.56435c0.4601,-0.39109 1.06974,-0.58663 1.82891,-0.58663c0.49844,0 0.93171,0.07285 1.29979,0.21855c0.36808,0.1457 0.68248,0.34891 0.94321,0.60964l-0.19554,-0.02301c-0.05368,-0.77451 -0.22238,-1.32663 -0.50611,-1.65637c-0.27606,-0.33741 -0.67098,-0.50611 -1.18476,-0.50611c-0.29907,0 -0.57513,0.04601 -0.82818,0.13803c-0.25306,0.09202 -0.48694,0.18788 -0.70166,0.28756c-0.20705,0.09202 -0.40259,0.13803 -0.58663,0.13803c-0.18404,0 -0.32974,-0.06135 -0.4371,-0.18404c-0.09969,-0.12269 -0.14953,-0.2799 -0.14953,-0.4716c0,-0.27606 0.13036,-0.53679 0.39109,-0.78217c0.26839,-0.24539 0.62114,-0.44477 1.05824,-0.59813c0.4371,-0.15337 0.91254,-0.23005 1.42632,-0.23005c0.62114,0 1.15409,0.14953 1.59886,0.4486c0.44477,0.29907 0.78217,0.73616 1.01222,1.31129c0.19938,0.49078 0.34124,1.03906 0.42559,1.64487c0.08435,0.6058 0.12653,1.25378 0.12653,1.94393c0,0.52145 -0.02684,0.92404 -0.08052,1.20777c-0.05368,0.28373 -0.13803,0.48311 -0.25306,0.59813c-0.10736,0.10736 -0.25306,0.16104 -0.4371,0.16104zM313.69591,236.93956c0.25306,0 0.50995,-0.03451 0.77067,-0.10352c0.26072,-0.07668 0.47927,-0.18788 0.65565,-0.33357c0.17637,-0.1457 0.26456,-0.32591 0.26456,-0.54062c0,-0.18404 -0.07668,-0.33357 -0.23005,-0.4486c-0.1457,-0.12269 -0.34124,-0.21471 -0.58663,-0.27606c-0.23772,-0.06135 -0.49461,-0.09202 -0.77067,-0.09202c-0.46777,0 -0.82435,0.08052 -1.06974,0.24155c-0.23772,0.16104 -0.35658,0.37575 -0.35658,0.64414c0,0.2914 0.11119,0.51761 0.33357,0.67865c0.23005,0.15337 0.55979,0.23005 0.98922,0.23005z" fill="#0c0c0c" stroke="none" stroke-width="1" stroke-linecap="butt"/><path d="M163.46583,130.79015c-0.25306,0 -0.53679,-0.01534 -0.85119,-0.04601c-0.30673,-0.03067 -0.6058,-0.08819 -0.8972,-0.17254c-0.28373,-0.09202 -0.52145,-0.21471 -0.71316,-0.36808c-0.18404,-0.16104 -0.27606,-0.36808 -0.27606,-0.62114c0,-0.26072 0.08052,-0.45627 0.24155,-0.58663c0.1687,-0.13036 0.44093,-0.19554 0.81668,-0.19554c0.26072,0 0.55212,0.03451 0.87419,0.10352c0.32974,0.06902 0.64414,0.10352 0.94321,0.10352c0.44477,0 0.77067,-0.06902 0.97772,-0.20705c0.21471,-0.13803 0.32207,-0.32591 0.32207,-0.56363c0,-0.1457 -0.04218,-0.27606 -0.12653,-0.39109c-0.07668,-0.11503 -0.23389,-0.23005 -0.4716,-0.34508c-0.23772,-0.11503 -0.5943,-0.24155 -1.06974,-0.37958c-0.54445,-0.1457 -0.98539,-0.30673 -1.32279,-0.48311c-0.33741,-0.18404 -0.5828,-0.40259 -0.73616,-0.65565c-0.15337,-0.25306 -0.23005,-0.55212 -0.23005,-0.8972c0,-0.42176 0.07285,-0.78601 0.21855,-1.09274c0.15337,-0.3144 0.35658,-0.57896 0.60964,-0.79368c0.25306,-0.22238 0.53679,-0.39876 0.85119,-0.52912c0.3144,-0.13036 0.63264,-0.22622 0.95471,-0.28756c0.32974,-0.06135 0.64414,-0.09202 0.94321,-0.09202c0.65948,0 1.19627,0.10352 1.61036,0.31057c0.42176,0.20705 0.63264,0.48311 0.63264,0.82818c0,0.24539 -0.08052,0.44477 -0.24155,0.59813c-0.15337,0.15337 -0.39109,0.23005 -0.71316,0.23005c-0.13803,0 -0.3029,-0.01917 -0.49461,-0.05751c-0.19171,-0.03834 -0.40259,-0.07668 -0.63264,-0.11503c-0.23005,-0.03834 -0.48311,-0.05751 -0.75917,-0.05751c-0.46777,0 -0.82818,0.07285 -1.08124,0.21855c-0.25306,0.1457 -0.37958,0.37958 -0.37958,0.70166c0,0.13803 0.03451,0.26456 0.10352,0.37958c0.07668,0.11503 0.23389,0.23389 0.4716,0.35658c0.23772,0.12269 0.60197,0.26456 1.09274,0.42559c0.6058,0.18404 1.08124,0.38725 1.42632,0.60964c0.34508,0.21471 0.59046,0.4601 0.73616,0.73616c0.1457,0.27606 0.21855,0.58663 0.21855,0.93171c0,0.47544 -0.13036,0.8972 -0.39109,1.26528c-0.25306,0.36041 -0.60964,0.64031 -1.06974,0.83969c-0.45243,0.19938 -0.98155,0.29907 -1.58735,0.29907zM168.77072,121.93319c0.30673,0 0.52528,0.08435 0.65565,0.25306c0.13803,0.1687 0.20705,0.36425 0.20705,0.58663c0,0.27606 -0.08435,0.49078 -0.25306,0.64414c-0.16104,0.1457 -0.39109,0.21855 -0.69015,0.21855c-0.2914,0 -0.50995,-0.08052 -0.65565,-0.24155c-0.1457,-0.1687 -0.21855,-0.36425 -0.21855,-0.58663c0,-0.2914 0.08819,-0.50995 0.26456,-0.65565c0.17637,-0.1457 0.40642,-0.21855 0.69015,-0.21855zM168.83973,124.49826c0.24539,0 0.4371,0.23005 0.57513,0.69015c0.1457,0.4601 0.21855,1.19243 0.21855,2.19699c0,1.23461 -0.08819,2.12414 -0.26456,2.66859c-0.17637,0.54445 -0.44477,0.81668 -0.80518,0.81668c-0.27606,0 -0.47927,-0.19938 -0.60964,-0.59813c-0.13036,-0.40642 -0.19554,-1.11191 -0.19554,-2.11647c0,-1.23461 0.09969,-2.15098 0.29907,-2.74911c0.20705,-0.6058 0.46777,-0.9087 0.78217,-0.9087zM173.94869,123.55505c0.68248,0 1.17326,0.09969 1.47233,0.29907c0.29907,0.19938 0.4486,0.45627 0.4486,0.77067c0,0.18404 -0.06518,0.33741 -0.19554,0.4601c-0.12269,0.11503 -0.29907,0.17254 -0.52912,0.17254c-0.23772,0 -0.48694,-0.03451 -0.74767,-0.10352c-0.25306,-0.06902 -0.54829,-0.10352 -0.8857,-0.10352c-0.39109,0 -0.68248,0.07668 -0.87419,0.23005c-0.19171,0.15337 -0.28756,0.34891 -0.28756,0.58663c0,0.22238 0.08435,0.39876 0.25306,0.52912c0.17637,0.12269 0.50995,0.21471 1.00072,0.27606c0.54445,0.06135 0.99305,0.16104 1.3458,0.29907c0.36041,0.13036 0.62881,0.32974 0.80518,0.59813c0.17637,0.26072 0.26456,0.62114 0.26456,1.08124c0,0.7285 -0.25689,1.26912 -0.77067,1.62186c-0.51378,0.35275 -1.2231,0.52912 -2.12797,0.52912c-0.57513,0 -1.0314,-0.04601 -1.3688,-0.13803c-0.33741,-0.09202 -0.5828,-0.22238 -0.73616,-0.39109c-0.1457,-0.1687 -0.21855,-0.36808 -0.21855,-0.59813c0,-0.19938 0.06518,-0.35275 0.19554,-0.4601c0.13803,-0.11503 0.29907,-0.17254 0.48311,-0.17254c0.17637,0 0.36425,0.02301 0.56363,0.06902c0.19938,0.03834 0.41026,0.08052 0.63264,0.12653c0.22238,0.04601 0.45243,0.06902 0.69015,0.06902c0.76684,0 1.15026,-0.23772 1.15026,-0.71316c0,-0.16104 -0.03834,-0.2914 -0.11503,-0.39109c-0.07668,-0.09969 -0.21471,-0.18021 -0.41409,-0.24155c-0.19938,-0.06902 -0.49078,-0.12269 -0.87419,-0.16104c-0.4601,-0.04601 -0.85886,-0.12269 -1.19627,-0.23005c-0.33741,-0.11503 -0.59813,-0.29907 -0.78217,-0.55212c-0.18404,-0.26072 -0.27606,-0.6173 -0.27606,-1.06974c0,-0.71316 0.26839,-1.28829 0.80518,-1.72538c0.53679,-0.44477 1.29979,-0.66715 2.28901,-0.66715zM178.19524,121.93319c0.30673,0 0.52528,0.08435 0.65565,0.25306c0.13803,0.1687 0.20705,0.36425 0.20705,0.58663c0,0.27606 -0.08435,0.49078 -0.25306,0.64414c-0.16104,0.1457 -0.39109,0.21855 -0.69015,0.21855c-0.2914,0 -0.50995,-0.08052 -0.65565,-0.24155c-0.1457,-0.1687 -0.21855,-0.36425 -0.21855,-0.58663c0,-0.2914 0.08819,-0.50995 0.26456,-0.65565c0.17637,-0.1457 0.40642,-0.21855 0.69015,-0.21855zM178.26425,124.49826c0.24539,0 0.4371,0.23005 0.57513,0.69015c0.1457,0.4601 0.21855,1.19243 0.21855,2.19699c0,1.23461 -0.08819,2.12414 -0.26456,2.66859c-0.17637,0.54445 -0.44477,0.81668 -0.80518,0.81668c-0.27606,0 -0.47927,-0.19938 -0.60964,-0.59813c-0.13036,-0.40642 -0.19554,-1.11191 -0.19554,-2.11647c0,-1.23461 0.09969,-2.15098 0.29907,-2.74911c0.20705,-0.6058 0.46777,-0.9087 0.78217,-0.9087zM187.7924,130.87067c-0.26072,0 -0.44093,-0.09969 -0.54062,-0.29907c-0.09202,-0.20705 -0.1457,-0.53295 -0.16104,-0.97772l0.11503,0.05751c-0.42943,0.83585 -1.24228,1.25378 -2.43854,1.25378c-0.54445,0 -0.99689,-0.09585 -1.3573,-0.28756c-0.36041,-0.19938 -0.62881,-0.4601 -0.80518,-0.78217c-0.1687,-0.32974 -0.25306,-0.68632 -0.25306,-1.06974c0,-0.65948 0.23005,-1.18093 0.69015,-1.56435c0.4601,-0.39109 1.06974,-0.58663 1.82891,-0.58663c0.49844,0 0.93171,0.07285 1.29979,0.21855c0.36808,0.1457 0.68248,0.34891 0.94321,0.60964l-0.19554,-0.02301c-0.05368,-0.77451 -0.22238,-1.32663 -0.50611,-1.65637c-0.27606,-0.33741 -0.67098,-0.50611 -1.18476,-0.50611c-0.29907,0 -0.57513,0.04601 -0.82818,0.13803c-0.25306,0.09202 -0.48694,0.18788 -0.70166,0.28756c-0.20705,0.09202 -0.40259,0.13803 -0.58663,0.13803c-0.18404,0 -0.32974,-0.06135 -0.4371,-0.18404c-0.09969,-0.12269 -0.14953,-0.2799 -0.14953,-0.4716c0,-0.27606 0.13036,-0.53679 0.39109,-0.78217c0.26839,-0.24539 0.62114,-0.44477 1.05824,-0.59813c0.4371,-0.15337 0.91254,-0.23005 1.42632,-0.23005c0.62114,0 1.15409,0.14953 1.59886,0.4486c0.44477,0.29907 0.78217,0.73616 1.01222,1.31129c0.19938,0.49078 0.34124,1.03906 0.42559,1.64487c0.08435,0.6058 0.12653,1.25378 0.12653,1.94393c0,0.52145 -0.02684,0.92404 -0.08052,1.20777c-0.05368,0.28373 -0.13803,0.48311 -0.25306,0.59813c-0.10736,0.10736 -0.25306,0.16104 -0.4371,0.16104zM185.25033,129.58238c0.25306,0 0.50995,-0.03451 0.77067,-0.10352c0.26072,-0.07668 0.47927,-0.18788 0.65565,-0.33357c0.17637,-0.1457 0.26456,-0.32591 0.26456,-0.54062c0,-0.18404 -0.07668,-0.33357 -0.23005,-0.4486c-0.1457,-0.12269 -0.34124,-0.21471 -0.58663,-0.27606c-0.23772,-0.06135 -0.49461,-0.09202 -0.77067,-0.09202c-0.46777,0 -0.82435,0.08052 -1.06974,0.24155c-0.23772,0.16104 -0.35658,0.37575 -0.35658,0.64414c0,0.2914 0.11119,0.51761 0.33357,0.67865c0.23005,0.15337 0.55979,0.23005 0.98922,0.23005z" fill="#0c0c0c" stroke="none" stroke-width="1" stroke-linecap="butt"/><path d="M287.1183,129.83161c-0.25306,0 -0.53679,-0.01534 -0.85119,-0.04601c-0.30673,-0.03067 -0.6058,-0.08819 -0.8972,-0.17254c-0.28373,-0.09202 -0.52145,-0.21471 -0.71316,-0.36808c-0.18404,-0.16104 -0.27606,-0.36808 -0.27606,-0.62114c0,-0.26072 0.08052,-0.45627 0.24155,-0.58663c0.1687,-0.13036 0.44093,-0.19554 0.81668,-0.19554c0.26072,0 0.55212,0.03451 0.87419,0.10352c0.32974,0.06902 0.64414,0.10352 0.94321,0.10352c0.44477,0 0.77067,-0.06902 0.97772,-0.20705c0.21471,-0.13803 0.32207,-0.32591 0.32207,-0.56363c0,-0.1457 -0.04218,-0.27606 -0.12653,-0.39109c-0.07668,-0.11503 -0.23389,-0.23005 -0.4716,-0.34508c-0.23772,-0.11503 -0.5943,-0.24155 -1.06974,-0.37958c-0.54445,-0.1457 -0.98539,-0.30673 -1.32279,-0.48311c-0.33741,-0.18404 -0.5828,-0.40259 -0.73616,-0.65565c-0.15337,-0.25306 -0.23005,-0.55212 -0.23005,-0.8972c0,-0.42176 0.07285,-0.78601 0.21855,-1.09274c0.15337,-0.3144 0.35658,-0.57896 0.60964,-0.79368c0.25306,-0.22238 0.53679,-0.39876 0.85119,-0.52912c0.3144,-0.13036 0.63264,-0.22622 0.95471,-0.28756c0.32974,-0.06135 0.64414,-0.09202 0.94321,-0.09202c0.65948,0 1.19627,0.10352 1.61036,0.31057c0.42176,0.20705 0.63264,0.48311 0.63264,0.82818c0,0.24539 -0.08052,0.44477 -0.24155,0.59813c-0.15337,0.15337 -0.39109,0.23005 -0.71316,0.23005c-0.13803,0 -0.3029,-0.01917 -0.49461,-0.05751c-0.19171,-0.03834 -0.40259,-0.07668 -0.63264,-0.11503c-0.23005,-0.03834 -0.48311,-0.05751 -0.75917,-0.05751c-0.46777,0 -0.82818,0.07285 -1.08124,0.21855c-0.25306,0.1457 -0.37958,0.37958 -0.37958,0.70166c0,0.13803 0.03451,0.26456 0.10352,0.37958c0.07668,0.11503 0.23389,0.23389 0.4716,0.35658c0.23772,0.12269 0.60197,0.26456 1.09274,0.42559c0.6058,0.18404 1.08124,0.38725 1.42632,0.60964c0.34508,0.21471 0.59046,0.4601 0.73616,0.73616c0.1457,0.27606 0.21855,0.58663 0.21855,0.93171c0,0.47544 -0.13036,0.8972 -0.39109,1.26528c-0.25306,0.36041 -0.60964,0.64031 -1.06974,0.83969c-0.45243,0.19938 -0.98155,0.29907 -1.58735,0.29907zM292.42289,120.97464c0.30673,0 0.52528,0.08435 0.65565,0.25306c0.13803,0.1687 0.20705,0.36425 0.20705,0.58663c0,0.27606 -0.08435,0.49078 -0.25306,0.64414c-0.16104,0.1457 -0.39109,0.21855 -0.69015,0.21855c-0.2914,0 -0.50995,-0.08052 -0.65565,-0.24155c-0.1457,-0.1687 -0.21855,-0.36425 -0.21855,-0.58663c0,-0.2914 0.08819,-0.50995 0.26456,-0.65565c0.17637,-0.1457 0.40642,-0.21855 0.69015,-0.21855zM292.49191,123.53971c0.24539,0 0.4371,0.23005 0.57513,0.69015c0.1457,0.4601 0.21855,1.19243 0.21855,2.19699c0,1.23461 -0.08819,2.12414 -0.26456,2.66859c-0.17637,0.54445 -0.44477,0.81668 -0.80518,0.81668c-0.27606,0 -0.47927,-0.19938 -0.60964,-0.59813c-0.13036,-0.40642 -0.19554,-1.11191 -0.19554,-2.11647c0,-1.23461 0.09969,-2.15098 0.29907,-2.74911c0.20705,-0.6058 0.46777,-0.9087 0.78217,-0.9087zM297.60096,122.5965c0.68248,0 1.17326,0.09969 1.47233,0.29907c0.29907,0.19938 0.4486,0.45627 0.4486,0.77067c0,0.18404 -0.06518,0.33741 -0.19554,0.4601c-0.12269,0.11503 -0.29907,0.17254 -0.52912,0.17254c-0.23772,0 -0.48694,-0.03451 -0.74767,-0.10352c-0.25306,-0.06902 -0.54829,-0.10352 -0.8857,-0.10352c-0.39109,0 -0.68248,0.07668 -0.87419,0.23005c-0.19171,0.15337 -0.28756,0.34891 -0.28756,0.58663c0,0.22238 0.08435,0.39876 0.25306,0.52912c0.17637,0.12269 0.50995,0.21471 1.00072,0.27606c0.54445,0.06135 0.99305,0.16104 1.3458,0.29907c0.36041,0.13036 0.62881,0.32974 0.80518,0.59813c0.17637,0.26072 0.26456,0.62114 0.26456,1.08124c0,0.7285 -0.25689,1.26912 -0.77067,1.62186c-0.51378,0.35275 -1.2231,0.52912 -2.12797,0.52912c-0.57513,0 -1.0314,-0.04601 -1.3688,-0.13803c-0.33741,-0.09202 -0.5828,-0.22238 -0.73616,-0.39109c-0.1457,-0.1687 -0.21855,-0.36808 -0.21855,-0.59813c0,-0.19938 0.06518,-0.35275 0.19554,-0.4601c0.13803,-0.11503 0.29907,-0.17254 0.48311,-0.17254c0.17637,0 0.36425,0.02301 0.56363,0.06902c0.19938,0.03834 0.41026,0.08052 0.63264,0.12653c0.22238,0.04601 0.45243,0.06902 0.69015,0.06902c0.76684,0 1.15026,-0.23772 1.15026,-0.71316c0,-0.16104 -0.03834,-0.2914 -0.11503,-0.39109c-0.07668,-0.09969 -0.21471,-0.18021 -0.41409,-0.24155c-0.19938,-0.06902 -0.49078,-0.12269 -0.87419,-0.16104c-0.4601,-0.04601 -0.85886,-0.12269 -1.19627,-0.23005c-0.33741,-0.11503 -0.59813,-0.29907 -0.78217,-0.55212c-0.18404,-0.26072 -0.27606,-0.6173 -0.27606,-1.06974c0,-0.71316 0.26839,-1.28829 0.80518,-1.72538c0.53679,-0.44477 1.29979,-0.66715 2.28901,-0.66715zM301.84732,120.97464c0.30673,0 0.52528,0.08435 0.65565,0.25306c0.13803,0.1687 0.20705,0.36425 0.20705,0.58663c0,0.27606 -0.08435,0.49078 -0.25306,0.64414c-0.16104,0.1457 -0.39109,0.21855 -0.69015,0.21855c-0.2914,0 -0.50995,-0.08052 -0.65565,-0.24155c-0.1457,-0.1687 -0.21855,-0.36425 -0.21855,-0.58663c0,-0.2914 0.08819,-0.50995 0.26456,-0.65565c0.17637,-0.1457 0.40642,-0.21855 0.69015,-0.21855zM301.91634,123.53971c0.24539,0 0.4371,0.23005 0.57513,0.69015c0.1457,0.4601 0.21855,1.19243 0.21855,2.19699c0,1.23461 -0.08819,2.12414 -0.26456,2.66859c-0.17637,0.54445 -0.44477,0.81668 -0.80518,0.81668c-0.27606,0 -0.47927,-0.19938 -0.60964,-0.59813c-0.13036,-0.40642 -0.19554,-1.11191 -0.19554,-2.11647c0,-1.23461 0.09969,-2.15098 0.29907,-2.74911c0.20705,-0.6058 0.46777,-0.9087 0.78217,-0.9087zM307.29282,129.91212c-0.1687,0 -0.30673,-0.05751 -0.41409,-0.17254c-0.09969,-0.11503 -0.18021,-0.2799 -0.24155,-0.49461c-0.06135,-0.3144 -0.11503,-0.72466 -0.16104,-1.23077c-0.03834,-0.51378 -0.05751,-1.06207 -0.05751,-1.64487c0,-0.32974 0.00767,-0.70166 0.02301,-1.11575c0.01534,-0.41409 0.03451,-0.83202 0.05751,-1.25378c0.03067,-0.42943 0.06135,-0.82818 0.09202,-1.19627c0.03834,-0.36808 0.07668,-0.66715 0.11503,-0.8972c0.06135,-0.33741 0.14953,-0.60197 0.26456,-0.79368c0.12269,-0.19938 0.3144,-0.29907 0.57513,-0.29907c0.26839,0 0.46394,0.10352 0.58663,0.31057c0.12269,0.19938 0.18404,0.4486 0.18404,0.74767c0,0.33741 -0.02684,0.73616 -0.08052,1.19627c-0.04601,0.4601 -0.11886,0.92787 -0.21855,1.40331l-0.23005,0.27606c0.08435,-0.32207 0.22238,-0.6173 0.41409,-0.8857c0.19171,-0.26839 0.43326,-0.47927 0.72466,-0.63264c0.2914,-0.16104 0.62881,-0.24155 1.01222,-0.24155c0.7515,0 1.34963,0.26839 1.7944,0.80518c0.45243,0.52912 0.67865,1.3573 0.67865,2.48455c0,0.78984 -0.11886,1.44932 -0.35658,1.97844c-0.23005,0.52912 -0.54829,0.92787 -0.95471,1.19627c-0.39876,0.26072 -0.85502,0.39109 -1.3688,0.39109c-0.48311,0 -0.90103,-0.14186 -1.25378,-0.42559c-0.34508,-0.28373 -0.56746,-0.69399 -0.66715,-1.23077l0.16104,0.12653c-0.03067,0.55212 -0.10736,0.95855 -0.23005,1.21927c-0.11503,0.25306 -0.26456,0.37958 -0.4486,0.37958zM309.39779,128.50881c0.38342,0 0.72083,-0.17254 1.01222,-0.51761c0.2914,-0.34508 0.4371,-0.8857 0.4371,-1.62186c0,-0.61347 -0.11503,-1.11191 -0.34508,-1.49533c-0.22238,-0.38342 -0.59813,-0.57513 -1.12725,-0.57513c-0.42943,0 -0.77451,0.17254 -1.03523,0.51761c-0.26072,0.33741 -0.39109,0.85119 -0.39109,1.54134c0,0.62881 0.13036,1.14642 0.39109,1.55284c0.26072,0.39876 0.61347,0.59813 1.05824,0.59813z" fill="#0c0c0c" stroke="none" stroke-width="1" stroke-linecap="butt"/><path d="M168.25857,239.10588c-0.25306,0 -0.53679,-0.01534 -0.85119,-0.04601c-0.30673,-0.03067 -0.6058,-0.08819 -0.8972,-0.17254c-0.28373,-0.09202 -0.52145,-0.21471 -0.71316,-0.36808c-0.18404,-0.16104 -0.27606,-0.36808 -0.27606,-0.62114c0,-0.26072 0.08052,-0.45627 0.24155,-0.58663c0.1687,-0.13036 0.44093,-0.19554 0.81668,-0.19554c0.26072,0 0.55212,0.03451 0.87419,0.10352c0.32974,0.06902 0.64414,0.10352 0.94321,0.10352c0.44477,0 0.77067,-0.06902 0.97772,-0.20705c0.21471,-0.13803 0.32207,-0.32591 0.32207,-0.56363c0,-0.1457 -0.04218,-0.27606 -0.12653,-0.39109c-0.07668,-0.11503 -0.23389,-0.23005 -0.4716,-0.34508c-0.23772,-0.11503 -0.5943,-0.24155 -1.06974,-0.37958c-0.54445,-0.1457 -0.98539,-0.30673 -1.32279,-0.48311c-0.33741,-0.18404 -0.5828,-0.40259 -0.73616,-0.65565c-0.15337,-0.25306 -0.23005,-0.55212 -0.23005,-0.8972c0,-0.42176 0.07285,-0.78601 0.21855,-1.09274c0.15337,-0.3144 0.35658,-0.57896 0.60964,-0.79368c0.25306,-0.22238 0.53679,-0.39876 0.85119,-0.52912c0.3144,-0.13036 0.63264,-0.22622 0.95471,-0.28756c0.32974,-0.06135 0.64414,-0.09202 0.94321,-0.09202c0.65948,0 1.19627,0.10352 1.61036,0.31057c0.42176,0.20705 0.63264,0.48311 0.63264,0.82818c0,0.24539 -0.08052,0.44477 -0.24155,0.59813c-0.15337,0.15337 -0.39109,0.23005 -0.71316,0.23005c-0.13803,0 -0.3029,-0.01917 -0.49461,-0.05751c-0.19171,-0.03834 -0.40259,-0.07668 -0.63264,-0.11503c-0.23005,-0.03834 -0.48311,-0.05751 -0.75917,-0.05751c-0.46777,0 -0.82818,0.07285 -1.08124,0.21855c-0.25306,0.1457 -0.37958,0.37958 -0.37958,0.70166c0,0.13803 0.03451,0.26456 0.10352,0.37958c0.07668,0.11503 0.23389,0.23389 0.4716,0.35658c0.23772,0.12269 0.60197,0.26456 1.09274,0.42559c0.6058,0.18404 1.08124,0.38725 1.42632,0.60964c0.34508,0.21471 0.59046,0.4601 0.73616,0.73616c0.1457,0.27606 0.21855,0.58663 0.21855,0.93171c0,0.47544 -0.13036,0.8972 -0.39109,1.26528c-0.25306,0.36041 -0.60964,0.64031 -1.06974,0.83969c-0.45243,0.19938 -0.98155,0.29907 -1.58735,0.29907zM173.56345,230.24891c0.30673,0 0.52528,0.08435 0.65565,0.25306c0.13803,0.1687 0.20705,0.36425 0.20705,0.58663c0,0.27606 -0.08435,0.49078 -0.25306,0.64414c-0.16104,0.1457 -0.39109,0.21855 -0.69015,0.21855c-0.2914,0 -0.50995,-0.08052 -0.65565,-0.24155c-0.1457,-0.1687 -0.21855,-0.36425 -0.21855,-0.58663c0,-0.2914 0.08819,-0.50995 0.26456,-0.65565c0.17637,-0.1457 0.40642,-0.21855 0.69015,-0.21855zM173.63246,232.81398c0.24539,0 0.4371,0.23005 0.57513,0.69015c0.1457,0.4601 0.21855,1.19243 0.21855,2.19699c0,1.23461 -0.08819,2.12414 -0.26456,2.66859c-0.17637,0.54445 -0.44477,0.81668 -0.80518,0.81668c-0.27606,0 -0.47927,-0.19938 -0.60964,-0.59813c-0.13036,-0.40642 -0.19554,-1.11191 -0.19554,-2.11647c0,-1.23461 0.09969,-2.15098 0.29907,-2.74911c0.20705,-0.6058 0.46777,-0.9087 0.78217,-0.9087zM178.74142,231.87077c0.68248,0 1.17326,0.09969 1.47233,0.29907c0.29907,0.19938 0.4486,0.45627 0.4486,0.77067c0,0.18404 -0.06518,0.33741 -0.19554,0.4601c-0.12269,0.11503 -0.29907,0.17254 -0.52912,0.17254c-0.23772,0 -0.48694,-0.03451 -0.74767,-0.10352c-0.25306,-0.06902 -0.54829,-0.10352 -0.8857,-0.10352c-0.39109,0 -0.68248,0.07668 -0.87419,0.23005c-0.19171,0.15337 -0.28756,0.34891 -0.28756,0.58663c0,0.22238 0.08435,0.39876 0.25306,0.52912c0.17637,0.12269 0.50995,0.21471 1.00072,0.27606c0.54445,0.06135 0.99305,0.16104 1.3458,0.29907c0.36041,0.13036 0.62881,0.32974 0.80518,0.59813c0.17637,0.26072 0.26456,0.62114 0.26456,1.08124c0,0.7285 -0.25689,1.26912 -0.77067,1.62186c-0.51378,0.35275 -1.2231,0.52912 -2.12797,0.52912c-0.57513,0 -1.0314,-0.04601 -1.3688,-0.13803c-0.33741,-0.09202 -0.5828,-0.22238 -0.73616,-0.39109c-0.1457,-0.1687 -0.21855,-0.36808 -0.21855,-0.59813c0,-0.19938 0.06518,-0.35275 0.19554,-0.4601c0.13803,-0.11503 0.29907,-0.17254 0.48311,-0.17254c0.17637,0 0.36425,0.02301 0.56363,0.06902c0.19938,0.03834 0.41026,0.08052 0.63264,0.12653c0.22238,0.04601 0.45243,0.06902 0.69015,0.06902c0.76684,0 1.15026,-0.23772 1.15026,-0.71316c0,-0.16104 -0.03834,-0.2914 -0.11503,-0.39109c-0.07668,-0.09969 -0.21471,-0.18021 -0.41409,-0.24155c-0.19938,-0.06902 -0.49078,-0.12269 -0.87419,-0.16104c-0.4601,-0.04601 -0.85886,-0.12269 -1.19627,-0.23005c-0.33741,-0.11503 -0.59813,-0.29907 -0.78217,-0.55212c-0.18404,-0.26072 -0.27606,-0.6173 -0.27606,-1.06974c0,-0.71316 0.26839,-1.28829 0.80518,-1.72538c0.53679,-0.44477 1.29979,-0.66715 2.28901,-0.66715zM182.98797,230.24891c0.30673,0 0.52528,0.08435 0.65565,0.25306c0.13803,0.1687 0.20705,0.36425 0.20705,0.58663c0,0.27606 -0.08435,0.49078 -0.25306,0.64414c-0.16104,0.1457 -0.39109,0.21855 -0.69015,0.21855c-0.2914,0 -0.50995,-0.08052 -0.65565,-0.24155c-0.1457,-0.1687 -0.21855,-0.36425 -0.21855,-0.58663c0,-0.2914 0.08819,-0.50995 0.26456,-0.65565c0.17637,-0.1457 0.40642,-0.21855 0.69015,-0.21855zM183.05699,232.81398c0.24539,0 0.4371,0.23005 0.57513,0.69015c0.1457,0.4601 0.21855,1.19243 0.21855,2.19699c0,1.23461 -0.08819,2.12414 -0.26456,2.66859c-0.17637,0.54445 -0.44477,0.81668 -0.80518,0.81668c-0.27606,0 -0.47927,-0.19938 -0.60964,-0.59813c-0.13036,-0.40642 -0.19554,-1.11191 -0.19554,-2.11647c0,-1.23461 0.09969,-2.15098 0.29907,-2.74911c0.20705,-0.6058 0.46777,-0.9087 0.78217,-0.9087zM188.4327,239.1864c-0.1687,0 -0.30673,-0.05751 -0.41409,-0.17254c-0.09969,-0.11503 -0.18021,-0.2799 -0.24155,-0.49461c-0.06135,-0.3144 -0.11503,-0.72466 -0.16104,-1.23077c-0.03834,-0.51378 -0.05751,-1.06207 -0.05751,-1.64487c0,-0.32974 0.00767,-0.70166 0.02301,-1.11575c0.01534,-0.41409 0.03451,-0.83202 0.05751,-1.25378c0.03067,-0.42943 0.06135,-0.82818 0.09202,-1.19627c0.03834,-0.36808 0.07668,-0.66715 0.11503,-0.8972c0.06135,-0.33741 0.14953,-0.60197 0.26456,-0.79368c0.12269,-0.19938 0.3144,-0.29907 0.57513,-0.29907c0.26839,0 0.46394,0.10352 0.58663,0.31057c0.12269,0.19938 0.18404,0.4486 0.18404,0.74767c0,0.33741 -0.02684,0.73616 -0.08052,1.19627c-0.04601,0.4601 -0.11886,0.92787 -0.21855,1.40331l-0.23005,0.27606c0.08435,-0.32207 0.22238,-0.6173 0.41409,-0.8857c0.19171,-0.26839 0.43326,-0.47927 0.72466,-0.63264c0.2914,-0.16104 0.62881,-0.24155 1.01222,-0.24155c0.7515,0 1.34963,0.26839 1.7944,0.80518c0.45243,0.52912 0.67865,1.3573 0.67865,2.48455c0,0.78984 -0.11886,1.44932 -0.35658,1.97844c-0.23005,0.52912 -0.54829,0.92787 -0.95471,1.19627c-0.39876,0.26072 -0.85502,0.39109 -1.3688,0.39109c-0.48311,0 -0.90103,-0.14186 -1.25378,-0.42559c-0.34508,-0.28373 -0.56746,-0.69399 -0.66715,-1.23077l0.16104,0.12653c-0.03067,0.55212 -0.10736,0.95855 -0.23005,1.21927c-0.11503,0.25306 -0.26456,0.37958 -0.4486,0.37958zM190.53767,237.78308c0.38342,0 0.72083,-0.17254 1.01222,-0.51761c0.2914,-0.34508 0.4371,-0.8857 0.4371,-1.62186c0,-0.61347 -0.11503,-1.11191 -0.34508,-1.49533c-0.22238,-0.38342 -0.59813,-0.57513 -1.12725,-0.57513c-0.42943,0 -0.77451,0.17254 -1.03523,0.51761c-0.26072,0.33741 -0.39109,0.85119 -0.39109,1.54134c0,0.62881 0.13036,1.14642 0.39109,1.55284c0.26072,0.39876 0.61347,0.59813 1.05824,0.59813z" fill="#0c0c0c" stroke="none" stroke-width="1" stroke-linecap="butt"/><path d="M115.56153,195.23513c0,-0.56746 0.03067,-1.0429 0.09202,-1.42632c0.05368,-0.39109 0.12269,-0.70549 0.20705,-0.94321c0.09969,-0.25306 0.21471,-0.42559 0.34508,-0.51761c0.13036,-0.09969 0.2799,-0.14953 0.4486,-0.14953c0.24539,0 0.44477,0.09585 0.59813,0.28756c0.15337,0.18404 0.23005,0.46777 0.23005,0.85119c0,0.26072 -0.02684,0.54062 -0.08052,0.83969c-0.05368,0.29907 -0.1342,0.6058 -0.24155,0.9202l-0.16104,-0.14953c0.39876,-0.06902 0.83969,-0.13036 1.32279,-0.18404c0.48311,-0.05368 0.97388,-0.09969 1.47233,-0.13803c0.49078,-0.04601 0.95471,-0.07668 1.39181,-0.09202c0.4371,-0.02301 0.80901,-0.03451 1.11575,-0.03451c0.59813,0 1.04673,0.07668 1.3458,0.23005c0.29907,0.1457 0.4486,0.39876 0.4486,0.75917c0,0.32974 -0.1342,0.56746 -0.40259,0.71316c-0.27606,0.1457 -0.69399,0.21855 -1.25378,0.21855c-0.36808,0 -0.78984,-0.01534 -1.26528,-0.04601c-0.47544,-0.03834 -0.96621,-0.08819 -1.47233,-0.14953c-0.50611,-0.06135 -0.98922,-0.12653 -1.44932,-0.19554c-0.46777,-0.07668 -0.87419,-0.15337 -1.21927,-0.23005l0.12653,-0.20705c0.06135,0.1687 0.12269,0.36808 0.18404,0.59813c0.05368,0.23005 0.09969,0.4601 0.13803,0.69015c0.03067,0.23005 0.04601,0.43326 0.04601,0.60964c0,0.39109 -0.06135,0.66715 -0.18404,0.82818c-0.13036,0.16104 -0.3029,0.24155 -0.51761,0.24155c-0.19938,0 -0.36808,-0.06135 -0.50611,-0.18404c-0.1457,-0.12269 -0.27223,-0.31057 -0.37958,-0.56363c-0.12269,-0.2914 -0.21471,-0.64798 -0.27606,-1.06974c-0.06902,-0.42943 -0.10352,-0.93171 -0.10352,-1.50683zM115.19345,190.23517c0,-0.30673 0.08435,-0.52528 0.25306,-0.65565c0.1687,-0.13803 0.36425,-0.20705 0.58663,-0.20705c0.27606,0 0.49078,0.08435 0.64414,0.25306c0.1457,0.16104 0.21855,0.39109 0.21855,0.69015c0,0.2914 -0.08052,0.50995 -0.24155,0.65565c-0.1687,0.1457 -0.36425,0.21855 -0.58663,0.21855c-0.2914,0 -0.50995,-0.08819 -0.65565,-0.26456c-0.1457,-0.17637 -0.21855,-0.40642 -0.21855,-0.69015zM117.75852,190.16615c0,-0.24539 0.23005,-0.4371 0.69015,-0.57513c0.4601,-0.1457 1.19243,-0.21855 2.19699,-0.21855c1.23461,0 2.12414,0.08819 2.66859,0.26456c0.54445,0.17637 0.81668,0.44477 0.81668,0.80518c0,0.27606 -0.19938,0.47927 -0.59813,0.60964c-0.40642,0.13036 -1.11191,0.19554 -2.11647,0.19554c-1.23461,0 -2.15098,-0.09969 -2.74911,-0.29907c-0.6058,-0.20705 -0.9087,-0.46777 -0.9087,-0.78217zM116.86132,186.79418c0,-0.24539 0.09969,-0.41026 0.29907,-0.49461c0.19938,-0.09202 0.49461,-0.13803 0.8857,-0.13803c0.09202,0 0.19171,0.00767 0.29907,0.02301c0.09969,0.00767 0.19171,0.02301 0.27606,0.04601l-0.23005,0.02301c-0.49844,-0.18404 -0.8857,-0.46777 -1.16176,-0.85119c-0.28373,-0.38342 -0.42559,-0.78984 -0.42559,-1.21927c0,-0.47544 0.1342,-0.87036 0.40259,-1.18476c0.26839,-0.32207 0.64414,-0.55979 1.12725,-0.71316c0.48311,-0.16104 1.0544,-0.24155 1.71388,-0.24155c0.40642,0 0.80901,0.01917 1.20777,0.05751c0.39109,0.03067 0.7515,0.07668 1.08124,0.13803c0.32207,0.05368 0.58663,0.11503 0.79368,0.18404c0.26072,0.09202 0.45627,0.21088 0.58663,0.35658c0.12269,0.1457 0.18404,0.31824 0.18404,0.51761c0,0.19938 -0.07285,0.35275 -0.21855,0.4601c-0.1457,0.10736 -0.34124,0.16104 -0.58663,0.16104c-0.26072,0 -0.57513,-0.01917 -0.94321,-0.05751c-0.37575,-0.03834 -0.75533,-0.07285 -1.13875,-0.10352c-0.39109,-0.03834 -0.74383,-0.05751 -1.05824,-0.05751c-1.07357,0 -1.61036,0.35275 -1.61036,1.05824c0,0.37575 0.1687,0.69015 0.50611,0.94321c0.32974,0.25306 0.80134,0.42176 1.41481,0.50611c0.20705,0.02301 0.46394,0.03451 0.77067,0.03451c0.30673,0 0.61347,0 0.9202,0c0.29907,-0.00767 0.55212,0 0.75917,0.02301c0.4601,0.03067 0.78984,0.11886 0.98922,0.26456c0.19938,0.13803 0.29907,0.32974 0.29907,0.57513c0,0.28373 -0.13036,0.49844 -0.39109,0.64414c-0.26839,0.1457 -0.71699,0.21855 -1.3458,0.21855c-0.32207,0 -0.68248,-0.00767 -1.08124,-0.02301c-0.39876,-0.01534 -0.79751,-0.03451 -1.19627,-0.05751c-0.40642,-0.03067 -0.77451,-0.06518 -1.10425,-0.10352c-0.62114,-0.07668 -1.11191,-0.18788 -1.47233,-0.33357c-0.36808,-0.1457 -0.55212,-0.36425 -0.55212,-0.65565zM123.83186,178.44648c0,0.72083 -0.27606,1.30746 -0.82818,1.75989c-0.55979,0.45243 -1.40715,0.67865 -2.54206,0.67865c-1.2116,0 -2.0973,-0.21855 -2.65709,-0.65565c-0.55979,-0.4371 -0.83969,-1.01222 -0.83969,-1.72538c0,-0.42176 0.10736,-0.79368 0.32207,-1.11575c0.21471,-0.32207 0.51761,-0.59813 0.9087,-0.82818l0.16104,0.09202c-0.10736,0.02301 -0.22238,0.04218 -0.34508,0.05751c-0.12269,0.01534 -0.21471,0.02301 -0.27606,0.02301c-0.3144,0 -0.55596,-0.04984 -0.72466,-0.14953c-0.17637,-0.10736 -0.26456,-0.27223 -0.26456,-0.49461c0,-0.24539 0.09969,-0.4371 0.29907,-0.57513c0.19938,-0.1457 0.48311,-0.25689 0.85119,-0.33357c0.37575,-0.09969 0.85502,-0.18404 1.43782,-0.25306c0.57513,-0.06902 1.15792,-0.10352 1.74839,-0.10352c0.73616,0 1.35347,0.02684 1.85191,0.08052c0.49844,0.05368 0.91254,0.14186 1.24228,0.26456c0.32974,0.12269 0.6173,0.28373 0.86269,0.48311c0.39876,0.32974 0.70166,0.75533 0.9087,1.27678c0.21471,0.51378 0.32207,1.10808 0.32207,1.7829c0,0.48311 -0.04601,0.87036 -0.13803,1.16176c-0.08435,0.2914 -0.20321,0.50228 -0.35658,0.63264c-0.1457,0.12269 -0.31057,0.18404 -0.49461,0.18404c-0.19171,0 -0.35275,-0.05368 -0.48311,-0.16104c-0.12269,-0.10736 -0.18404,-0.26839 -0.18404,-0.48311c0,-0.19171 0.03067,-0.41409 0.09202,-0.66715c0.06135,-0.26072 0.09202,-0.56746 0.09202,-0.9202c0,-0.74383 -0.17637,-1.26912 -0.52912,-1.57585c-0.34508,-0.3144 -0.84352,-0.4716 -1.49533,-0.4716c-0.17637,0 -0.38342,0.0115 -0.62114,0.03451l0.05751,-0.16104c0.49078,0.19171 0.8857,0.47544 1.18476,0.85119c0.2914,0.37575 0.4371,0.81285 0.4371,1.31129zM122.41705,178.00939c0,-0.24539 -0.06518,-0.49078 -0.19554,-0.73616c-0.13036,-0.24539 -0.34508,-0.4486 -0.64414,-0.60964c-0.29907,-0.16104 -0.70166,-0.24155 -1.20777,-0.24155c-0.6058,0 -1.10041,0.14186 -1.48383,0.42559c-0.38342,0.28373 -0.57513,0.68248 -0.57513,1.19627c0,0.44477 0.1687,0.77067 0.50611,0.97772c0.33741,0.20705 0.84735,0.31057 1.52984,0.31057c0.65181,0 1.16176,-0.10352 1.52984,-0.31057c0.36041,-0.20705 0.54062,-0.54445 0.54062,-1.01222zM123.83186,171.22374c0,0.72083 -0.27606,1.30746 -0.82818,1.75989c-0.55979,0.45243 -1.40715,0.67865 -2.54206,0.67865c-1.2116,0 -2.0973,-0.21855 -2.65709,-0.65565c-0.55979,-0.4371 -0.83969,-1.01222 -0.83969,-1.72538c0,-0.42176 0.10736,-0.79368 0.32207,-1.11575c0.21471,-0.32207 0.51761,-0.59813 0.9087,-0.82818l0.16104,0.09202c-0.10736,0.02301 -0.22238,0.04218 -0.34508,0.05751c-0.12269,0.01534 -0.21471,0.02301 -0.27606,0.02301c-0.3144,0 -0.55596,-0.04984 -0.72466,-0.14953c-0.17637,-0.10736 -0.26456,-0.27223 -0.26456,-0.49461c0,-0.24539 0.09969,-0.4371 0.29907,-0.57513c0.19938,-0.1457 0.48311,-0.25689 0.85119,-0.33357c0.37575,-0.09969 0.85502,-0.18404 1.43782,-0.25306c0.57513,-0.06902 1.15792,-0.10352 1.74839,-0.10352c0.73616,0 1.35347,0.02684 1.85191,0.08052c0.49844,0.05368 0.91254,0.14186 1.24228,0.26456c0.32974,0.12269 0.6173,0.28373 0.86269,0.48311c0.39876,0.32974 0.70166,0.75533 0.9087,1.27678c0.21471,0.51378 0.32207,1.10808 0.32207,1.7829c0,0.48311 -0.04601,0.87036 -0.13803,1.16176c-0.08435,0.2914 -0.20321,0.50228 -0.35658,0.63264c-0.1457,0.12269 -0.31057,0.18404 -0.49461,0.18404c-0.19171,0 -0.35275,-0.05368 -0.48311,-0.16104c-0.12269,-0.10736 -0.18404,-0.26839 -0.18404,-0.48311c0,-0.19171 0.03067,-0.41409 0.09202,-0.66715c0.06135,-0.26072 0.09202,-0.56746 0.09202,-0.9202c0,-0.74383 -0.17637,-1.26912 -0.52912,-1.57585c-0.34508,-0.3144 -0.84352,-0.4716 -1.49533,-0.4716c-0.17637,0 -0.38342,0.0115 -0.62114,0.03451l0.05751,-0.16104c0.49078,0.19171 0.8857,0.47544 1.18476,0.85119c0.2914,0.37575 0.4371,0.81285 0.4371,1.31129zM122.41705,170.78665c0,-0.24539 -0.06518,-0.49078 -0.19554,-0.73616c-0.13036,-0.24539 -0.34508,-0.4486 -0.64414,-0.60964c-0.29907,-0.16104 -0.70166,-0.24155 -1.20777,-0.24155c-0.6058,0 -1.10041,0.14186 -1.48383,0.42559c-0.38342,0.28373 -0.57513,0.68248 -0.57513,1.19627c0,0.44477 0.1687,0.77067 0.50611,0.97772c0.33741,0.20705 0.84735,0.31057 1.52984,0.31057c0.65181,0 1.16176,-0.10352 1.52984,-0.31057c0.36041,-0.20705 0.54062,-0.54445 0.54062,-1.01222zM115.19345,165.18567c0,-0.30673 0.08435,-0.52528 0.25306,-0.65565c0.1687,-0.13803 0.36425,-0.20705 0.58663,-0.20705c0.27606,0 0.49078,0.08435 0.64414,0.25306c0.1457,0.16104 0.21855,0.39109 0.21855,0.69015c0,0.2914 -0.08052,0.50995 -0.24155,0.65565c-0.1687,0.1457 -0.36425,0.21855 -0.58663,0.21855c-0.2914,0 -0.50995,-0.08819 -0.65565,-0.26456c-0.1457,-0.17637 -0.21855,-0.40642 -0.21855,-0.69015zM117.75852,165.11665c0,-0.24539 0.23005,-0.4371 0.69015,-0.57513c0.4601,-0.1457 1.19243,-0.21855 2.19699,-0.21855c1.23461,0 2.12414,0.08819 2.66859,0.26456c0.54445,0.17637 0.81668,0.44477 0.81668,0.80518c0,0.27606 -0.19938,0.47927 -0.59813,0.60964c-0.40642,0.13036 -1.11191,0.19554 -2.11647,0.19554c-1.23461,0 -2.15098,-0.09969 -2.74911,-0.29907c-0.6058,-0.20705 -0.9087,-0.46777 -0.9087,-0.78217z" fill="#0c0c0c" stroke="none" stroke-width="1" stroke-linecap="butt"/><path d="M364.43847,165.00642c0,0.56746 -0.03067,1.0429 -0.09202,1.42632c-0.05368,0.39109 -0.12269,0.70549 -0.20705,0.94321c-0.09969,0.25306 -0.21471,0.42559 -0.34508,0.51761c-0.13036,0.09969 -0.2799,0.14953 -0.4486,0.14953c-0.24539,0 -0.44477,-0.09585 -0.59813,-0.28756c-0.15337,-0.18404 -0.23005,-0.46777 -0.23005,-0.85119c0,-0.26072 0.02684,-0.54062 0.08052,-0.83969c0.05368,-0.29907 0.1342,-0.6058 0.24155,-0.9202l0.16104,0.14953c-0.39876,0.06902 -0.83969,0.13036 -1.32279,0.18404c-0.48311,0.05368 -0.97388,0.09969 -1.47233,0.13803c-0.49078,0.04601 -0.95471,0.07668 -1.39181,0.09202c-0.4371,0.02301 -0.80901,0.03451 -1.11575,0.03451c-0.59813,0 -1.04673,-0.07668 -1.3458,-0.23005c-0.29907,-0.1457 -0.4486,-0.39876 -0.4486,-0.75917c0,-0.32974 0.1342,-0.56746 0.40259,-0.71316c0.27606,-0.1457 0.69399,-0.21855 1.25378,-0.21855c0.36808,0 0.78984,0.01534 1.26528,0.04601c0.47544,0.03834 0.96621,0.08819 1.47233,0.14953c0.50611,0.06135 0.98922,0.12653 1.44932,0.19554c0.46777,0.07668 0.87419,0.15337 1.21927,0.23005l-0.12653,0.20705c-0.06135,-0.1687 -0.12269,-0.36808 -0.18404,-0.59813c-0.05368,-0.23005 -0.09969,-0.4601 -0.13803,-0.69015c-0.03067,-0.23005 -0.04601,-0.43326 -0.04601,-0.60964c0,-0.39109 0.06135,-0.66715 0.18404,-0.82818c0.13036,-0.16104 0.3029,-0.24155 0.51761,-0.24155c0.19938,0 0.36808,0.06135 0.50611,0.18404c0.1457,0.12269 0.27223,0.31057 0.37958,0.56363c0.12269,0.2914 0.21471,0.64798 0.27606,1.06974c0.06902,0.42943 0.10352,0.93171 0.10352,1.50683zM364.80655,170.00639c0,0.30673 -0.08435,0.52528 -0.25306,0.65565c-0.1687,0.13803 -0.36425,0.20705 -0.58663,0.20705c-0.27606,0 -0.49078,-0.08435 -0.64414,-0.25306c-0.1457,-0.16104 -0.21855,-0.39109 -0.21855,-0.69015c0,-0.2914 0.08052,-0.50995 0.24155,-0.65565c0.1687,-0.1457 0.36425,-0.21855 0.58663,-0.21855c0.2914,0 0.50995,0.08819 0.65565,0.26456c0.1457,0.17637 0.21855,0.40642 0.21855,0.69015zM362.24148,170.0754c0,0.24539 -0.23005,0.4371 -0.69015,0.57513c-0.4601,0.1457 -1.19243,0.21855 -2.19699,0.21855c-1.23461,0 -2.12414,-0.08819 -2.66859,-0.26456c-0.54445,-0.17637 -0.81668,-0.44477 -0.81668,-0.80518c0,-0.27606 0.19938,-0.47927 0.59813,-0.60964c0.40642,-0.13036 1.11191,-0.19554 2.11647,-0.19554c1.23461,0 2.15098,0.09969 2.74911,0.29907c0.6058,0.20705 0.9087,0.46777 0.9087,0.78217zM363.13868,173.44738c0,0.24539 -0.09969,0.41026 -0.29907,0.49461c-0.19938,0.09202 -0.49461,0.13803 -0.8857,0.13803c-0.09202,0 -0.19171,-0.00767 -0.29907,-0.02301c-0.09969,-0.00767 -0.19171,-0.02301 -0.27606,-0.04601l0.23005,-0.02301c0.49844,0.18404 0.8857,0.46777 1.16176,0.85119c0.28373,0.38342 0.42559,0.78984 0.42559,1.21927c0,0.47544 -0.1342,0.87036 -0.40259,1.18476c-0.26839,0.32207 -0.64414,0.55979 -1.12725,0.71316c-0.48311,0.16104 -1.0544,0.24155 -1.71388,0.24155c-0.40642,0 -0.80901,-0.01917 -1.20777,-0.05751c-0.39109,-0.03067 -0.7515,-0.07668 -1.08124,-0.13803c-0.32207,-0.05368 -0.58663,-0.11503 -0.79368,-0.18404c-0.26072,-0.09202 -0.45627,-0.21088 -0.58663,-0.35658c-0.12269,-0.1457 -0.18404,-0.31824 -0.18404,-0.51761c0,-0.19938 0.07285,-0.35275 0.21855,-0.4601c0.1457,-0.10736 0.34124,-0.16104 0.58663,-0.16104c0.26072,0 0.57513,0.01917 0.94321,0.05751c0.37575,0.03834 0.75533,0.07285 1.13875,0.10352c0.39109,0.03834 0.74383,0.05751 1.05824,0.05751c1.07357,0 1.61036,-0.35275 1.61036,-1.05824c0,-0.37575 -0.1687,-0.69015 -0.50611,-0.94321c-0.32974,-0.25306 -0.80134,-0.42176 -1.41481,-0.50611c-0.20705,-0.02301 -0.46394,-0.03451 -0.77067,-0.03451c-0.30673,0 -0.61347,0 -0.9202,0c-0.29907,0.00767 -0.55212,0 -0.75917,-0.02301c-0.4601,-0.03067 -0.78984,-0.11886 -0.98922,-0.26456c-0.19938,-0.13803 -0.29907,-0.32974 -0.29907,-0.57513c0,-0.28373 0.13036,-0.49844 0.39109,-0.64414c0.26839,-0.1457 0.71699,-0.21855 1.3458,-0.21855c0.32207,0 0.68248,0.00767 1.08124,0.02301c0.39876,0.01534 0.79751,0.03451 1.19627,0.05751c0.40642,0.03067 0.77451,0.06518 1.10425,0.10352c0.62114,0.07668 1.11191,0.18788 1.47233,0.33357c0.36808,0.1457 0.55212,0.36425 0.55212,0.65565zM356.16814,181.79507c0,-0.72083 0.27606,-1.30746 0.82818,-1.75989c0.55979,-0.45243 1.40715,-0.67865 2.54206,-0.67865c1.2116,0 2.0973,0.21855 2.65709,0.65565c0.55979,0.4371 0.83969,1.01222 0.83969,1.72538c0,0.42176 -0.10736,0.79368 -0.32207,1.11575c-0.21471,0.32207 -0.51761,0.59813 -0.9087,0.82818l-0.16104,-0.09202c0.10736,-0.02301 0.22238,-0.04218 0.34508,-0.05751c0.12269,-0.01534 0.21471,-0.02301 0.27606,-0.02301c0.3144,0 0.55596,0.04984 0.72466,0.14953c0.17637,0.10736 0.26456,0.27223 0.26456,0.49461c0,0.24539 -0.09969,0.4371 -0.29907,0.57513c-0.19938,0.1457 -0.48311,0.25689 -0.85119,0.33357c-0.37575,0.09969 -0.85502,0.18404 -1.43782,0.25306c-0.57513,0.06902 -1.15792,0.10352 -1.74839,0.10352c-0.73616,0 -1.35347,-0.02684 -1.85191,-0.08052c-0.49844,-0.05368 -0.91254,-0.14186 -1.24228,-0.26456c-0.32974,-0.12269 -0.6173,-0.28373 -0.86269,-0.48311c-0.39876,-0.32974 -0.70166,-0.75533 -0.9087,-1.27678c-0.21471,-0.51378 -0.32207,-1.10808 -0.32207,-1.7829c0,-0.48311 0.04601,-0.87036 0.13803,-1.16176c0.08435,-0.2914 0.20321,-0.50228 0.35658,-0.63264c0.1457,-0.12269 0.31057,-0.18404 0.49461,-0.18404c0.19171,0 0.35275,0.05368 0.48311,0.16104c0.12269,0.10736 0.18404,0.26839 0.18404,0.48311c0,0.19171 -0.03067,0.41409 -0.09202,0.66715c-0.06135,0.26072 -0.09202,0.56746 -0.09202,0.9202c0,0.74383 0.17637,1.26912 0.52912,1.57585c0.34508,0.3144 0.84352,0.4716 1.49533,0.4716c0.17637,0 0.38342,-0.0115 0.62114,-0.03451l-0.05751,0.16104c-0.49078,-0.19171 -0.8857,-0.47544 -1.18476,-0.85119c-0.2914,-0.37575 -0.4371,-0.81285 -0.4371,-1.31129zM357.58295,182.23217c0,0.24539 0.06518,0.49078 0.19554,0.73616c0.13036,0.24539 0.34508,0.4486 0.64414,0.60964c0.29907,0.16104 0.70166,0.24155 1.20777,0.24155c0.6058,0 1.10041,-0.14186 1.48383,-0.42559c0.38342,-0.28373 0.57513,-0.68248 0.57513,-1.19627c0,-0.44477 -0.1687,-0.77067 -0.50611,-0.97772c-0.33741,-0.20705 -0.84735,-0.31057 -1.52984,-0.31057c-0.65181,0 -1.16176,0.10352 -1.52984,0.31057c-0.36041,0.20705 -0.54062,0.54445 -0.54062,1.01222zM356.16814,189.01781c0,-0.72083 0.27606,-1.30746 0.82818,-1.75989c0.55979,-0.45243 1.40715,-0.67865 2.54206,-0.67865c1.2116,0 2.0973,0.21855 2.65709,0.65565c0.55979,0.4371 0.83969,1.01222 0.83969,1.72538c0,0.42176 -0.10736,0.79368 -0.32207,1.11575c-0.21471,0.32207 -0.51761,0.59813 -0.9087,0.82818l-0.16104,-0.09202c0.10736,-0.02301 0.22238,-0.04218 0.34508,-0.05751c0.12269,-0.01534 0.21471,-0.02301 0.27606,-0.02301c0.3144,0 0.55596,0.04984 0.72466,0.14953c0.17637,0.10736 0.26456,0.27223 0.26456,0.49461c0,0.24539 -0.09969,0.4371 -0.29907,0.57513c-0.19938,0.1457 -0.48311,0.25689 -0.85119,0.33357c-0.37575,0.09969 -0.85502,0.18404 -1.43782,0.25306c-0.57513,0.06902 -1.15792,0.10352 -1.74839,0.10352c-0.73616,0 -1.35347,-0.02684 -1.85191,-0.08052c-0.49844,-0.05368 -0.91254,-0.14186 -1.24228,-0.26456c-0.32974,-0.12269 -0.6173,-0.28373 -0.86269,-0.48311c-0.39876,-0.32974 -0.70166,-0.75533 -0.9087,-1.27678c-0.21471,-0.51378 -0.32207,-1.10808 -0.32207,-1.7829c0,-0.48311 0.04601,-0.87036 0.13803,-1.16176c0.08435,-0.2914 0.20321,-0.50228 0.35658,-0.63264c0.1457,-0.12269 0.31057,-0.18404 0.49461,-0.18404c0.19171,0 0.35275,0.05368 0.48311,0.16104c0.12269,0.10736 0.18404,0.26839 0.18404,0.48311c0,0.19171 -0.03067,0.41409 -0.09202,0.66715c-0.06135,0.26072 -0.09202,0.56746 -0.09202,0.9202c0,0.74383 0.17637,1.26912 0.52912,1.57585c0.34508,0.3144 0.84352,0.4716 1.49533,0.4716c0.17637,0 0.38342,-0.0115 0.62114,-0.03451l-0.05751,0.16104c-0.49078,-0.19171 -0.8857,-0.47544 -1.18476,-0.85119c-0.2914,-0.37575 -0.4371,-0.81285 -0.4371,-1.31129zM357.58295,189.45491c0,0.24539 0.06518,0.49078 0.19554,0.73616c0.13036,0.24539 0.34508,0.4486 0.64414,0.60964c0.29907,0.16104 0.70166,0.24155 1.20777,0.24155c0.6058,0 1.10041,-0.14186 1.48383,-0.42559c0.38342,-0.28373 0.57513,-0.68248 0.57513,-1.19627c0,-0.44477 -0.1687,-0.77067 -0.50611,-0.97772c-0.33741,-0.20705 -0.84735,-0.31057 -1.52984,-0.31057c-0.65181,0 -1.16176,0.10352 -1.52984,0.31057c-0.36041,0.20705 -0.54062,0.54445 -0.54062,1.01222zM364.80655,195.05589c0,0.30673 -0.08435,0.52528 -0.25306,0.65565c-0.1687,0.13803 -0.36425,0.20705 -0.58663,0.20705c-0.27606,0 -0.49078,-0.08435 -0.64414,-0.25306c-0.1457,-0.16104 -0.21855,-0.39109 -0.21855,-0.69015c0,-0.2914 0.08052,-0.50995 0.24155,-0.65565c0.1687,-0.1457 0.36425,-0.21855 0.58663,-0.21855c0.2914,0 0.50995,0.08819 0.65565,0.26456c0.1457,0.17637 0.21855,0.40642 0.21855,0.69015zM362.24148,195.1249c0,0.24539 -0.23005,0.4371 -0.69015,0.57513c-0.4601,0.1457 -1.19243,0.21855 -2.19699,0.21855c-1.23461,0 -2.12414,-0.08819 -2.66859,-0.26456c-0.54445,-0.17637 -0.81668,-0.44477 -0.81668,-0.80518c0,-0.27606 0.19938,-0.47927 0.59813,-0.60964c0.40642,-0.13036 1.11191,-0.19554 2.11647,-0.19554c1.23461,0 2.15098,0.09969 2.74911,0.29907c0.6058,0.20705 0.9087,0.46777 0.9087,0.78217z" fill="#0c0c0c" stroke="none" stroke-width="1" stroke-linecap="butt"/></g></g></svg>