<svg version="1.1" xmlns="http://www.w3.org/2000/svg" xmlns:xlink="http://www.w3.org/1999/xlink" width="174.90179" height="16.38683" viewBox="0,0,174.90179,16.38683"><g transform="translate(-152.5491,-171.80658)"><g data-paper-data="{&quot;isPaintingLayer&quot;:true}" fill="#060606" fill-rule="nonzero" stroke="none" stroke-width="1" stroke-linecap="butt" stroke-linejoin="miter" stroke-miterlimit="10" stroke-dasharray="" stroke-dashoffset="0" style="mix-blend-mode: normal"><path d="M155.46455,184.80882c-0.68139,0 -1.18964,-0.08933 -1.52474,-0.26809c-0.33511,-0.17876 -0.61437,-0.50266 -0.83777,-0.97182c-0.15638,-0.35742 -0.29042,-0.9383 -0.40213,-1.74257c-0.10053,-0.81543 -0.1508,-1.87103 -0.1508,-3.16678c0,-0.90479 0.01676,-1.77049 0.05027,-2.59709c0.04468,-0.8266 0.10611,-1.4633 0.18431,-1.91012c0.08936,-0.56968 0.23458,-0.9774 0.43564,-1.22315c0.21224,-0.24575 0.47473,-0.36862 0.78751,-0.36862c0.27926,0 0.49708,0.12287 0.65346,0.36862c0.16755,0.24575 0.28484,0.58086 0.35186,1.00533c0.06702,0.4133 0.10053,0.87128 0.10053,1.37395c0,1.36277 -0.05027,2.74231 -0.1508,4.1386c-0.08936,1.39628 -0.21782,2.68087 -0.38537,3.85376l-0.21782,-0.3016c0.50266,-0.34631 1.03884,-0.64226 1.60852,-0.88804c0.58086,-0.24578 1.14495,-0.43564 1.6923,-0.56968c0.55851,-0.13404 1.04442,-0.20107 1.45772,-0.20107c0.4133,0 0.7149,0.08378 0.90479,0.25133c0.20107,0.16755 0.3016,0.40768 0.3016,0.72048c0,0.3128 -0.13963,0.63116 -0.41889,0.95506c-0.26809,0.3128 -0.65346,0.58644 -1.15612,0.82102c-0.27926,0.13404 -0.60878,0.25689 -0.98857,0.36862c-0.37979,0.10053 -0.77075,0.18431 -1.17288,0.25133c-0.39096,0.06702 -0.76517,0.10053 -1.12261,0.10053zM169.2502,184.60775c-0.3016,0 -0.53617,-0.10053 -0.70373,-0.3016c-0.15635,-0.21227 -0.26243,-0.48035 -0.31835,-0.80426c-0.05582,-0.33511 -0.08378,-0.68697 -0.08378,-1.05559l0.08378,-0.06702c-0.11163,0.48035 -0.32945,0.89359 -0.65346,1.2399c-0.32391,0.34631 -0.69807,0.61441 -1.12261,0.80426c-0.42444,0.17876 -0.84887,0.26809 -1.27341,0.26809c-0.56968,0 -1.0891,-0.13404 -1.55826,-0.40213c-0.46915,-0.26809 -0.83216,-0.68143 -1.08908,-1.2399c-0.25692,-0.59199 -0.45799,-1.33489 -0.6032,-2.22847c-0.14522,-0.90479 -0.21782,-1.83192 -0.21782,-2.7814c0,-0.51384 0.02234,-0.98857 0.06702,-1.42421c0.04467,-0.43564 0.11729,-0.79309 0.21782,-1.07235c0.08936,-0.29042 0.2234,-0.50266 0.40213,-0.63671c0.17872,-0.14522 0.40771,-0.21782 0.68694,-0.21782c0.32401,0 0.57534,0.12846 0.75399,0.38537c0.18997,0.24575 0.30725,0.59202 0.35186,1.03884c0.04471,0.36862 0.07268,0.8266 0.08378,1.37395c0.02241,0.53617 0.03917,1.07793 0.05027,1.62528c0.02241,0.53617 0.05027,0.98857 0.08378,1.35719c0.06702,0.67022 0.24023,1.16734 0.51942,1.49123c0.27929,0.3128 0.61995,0.46915 1.02208,0.46915c0.5921,0 1.04449,-0.22337 1.35719,-0.67022c0.3128,-0.44681 0.46915,-1.07235 0.46915,-1.87661c0,-0.40213 -0.02231,-0.85453 -0.06702,-1.35719c-0.04461,-0.51384 -0.09488,-1.01091 -0.1508,-1.49123c-0.04461,-0.48033 -0.06702,-0.87686 -0.06702,-1.18964c0,-0.525 0.08943,-0.89921 0.26809,-1.12261c0.17876,-0.23458 0.42454,-0.35186 0.73724,-0.35186c0.26809,0 0.49156,0.0726 0.67022,0.21782c0.18997,0.14522 0.34076,0.34628 0.4524,0.6032c0.15646,0.33511 0.2905,0.79309 0.40213,1.37395c0.11173,0.58086 0.20107,1.2399 0.26809,1.97714c0.06702,0.73724 0.10053,1.51357 0.10053,2.32901c0,1.25111 -0.08378,2.18942 -0.25133,2.81491c-0.16755,0.61441 -0.4635,0.92155 -0.88804,0.92155zM179.75,184.87584c-0.37982,0 -0.64226,-0.14524 -0.78751,-0.43564c-0.13404,-0.3016 -0.21227,-0.7763 -0.23458,-1.42421l0.16755,0.08378c-0.62551,1.2176 -1.80959,1.82634 -3.55215,1.82634c-0.79306,0 -1.45218,-0.1396 -1.97714,-0.41889c-0.52497,-0.2904 -0.916,-0.67022 -1.17288,-1.13937c-0.24578,-0.48035 -0.36862,-0.99978 -0.36862,-1.55826c0,-0.96064 0.33511,-1.72023 1.00533,-2.27874c0.67022,-0.56968 1.55826,-0.85453 2.66411,-0.85453c0.72604,0 1.35719,0.10611 1.89336,0.31835c0.53617,0.21224 0.99412,0.50825 1.37395,0.88804l-0.28484,-0.03351c-0.07822,-1.1282 -0.32391,-1.93246 -0.73724,-2.41278c-0.40213,-0.49149 -0.97737,-0.73724 -1.72581,-0.73724c-0.43564,0 -0.83777,0.06702 -1.20639,0.20107c-0.36862,0.13404 -0.70928,0.27367 -1.02208,0.41889c-0.3016,0.13404 -0.58644,0.20107 -0.85453,0.20107c-0.26809,0 -0.48035,-0.08936 -0.63671,-0.26809c-0.14524,-0.17873 -0.21782,-0.40771 -0.21782,-0.68697c0,-0.40213 0.18986,-0.78192 0.56968,-1.13937c0.39093,-0.35745 0.90479,-0.64788 1.5415,-0.87128c0.63671,-0.2234 1.32923,-0.33511 2.07767,-0.33511c0.90479,0 1.6811,0.21782 2.32901,0.65346c0.64792,0.43564 1.13937,1.07235 1.47448,1.91012c0.2904,0.7149 0.49711,1.51357 0.61995,2.39603c0.12284,0.88246 0.18431,1.82634 0.18431,2.83167c0,0.75955 -0.03907,1.34599 -0.11729,1.75932c-0.07822,0.41333 -0.20107,0.70373 -0.36862,0.87128c-0.15635,0.15635 -0.36862,0.23458 -0.63671,0.23458zM176.04705,182.99922c0.36862,0 0.74279,-0.05027 1.12261,-0.1508c0.37982,-0.11173 0.69818,-0.27364 0.95506,-0.48591c0.25689,-0.21227 0.38537,-0.47471 0.38537,-0.78751c0,-0.26809 -0.11173,-0.48591 -0.33511,-0.65346c-0.21227,-0.17873 -0.49711,-0.31277 -0.85453,-0.40213c-0.34631,-0.08936 -0.72048,-0.13404 -1.12261,-0.13404c-0.68143,0 -1.20085,0.11729 -1.55826,0.35186c-0.34631,0.23458 -0.51942,0.54735 -0.51942,0.9383c0,0.42444 0.162,0.75399 0.48591,0.98857c0.33511,0.22337 0.81547,0.33511 1.44097,0.33511zM187.1555,174.21937c0.99423,0 1.70905,0.14522 2.1447,0.43564c0.43564,0.29042 0.65346,0.66464 0.65346,1.12261c0,0.26809 -0.09488,0.49149 -0.28484,0.67022c-0.17865,0.16755 -0.43564,0.25133 -0.77075,0.25133c-0.34621,0 -0.70928,-0.05027 -1.0891,-0.1508c-0.36862,-0.10053 -0.7986,-0.1508 -1.29017,-0.1508c-0.56968,0 -0.99412,0.11171 -1.27341,0.33511c-0.27919,0.2234 -0.41889,0.50825 -0.41889,0.85453c0,0.32394 0.12294,0.58086 0.36862,0.77075c0.25699,0.17873 0.7429,0.31277 1.45772,0.40213c0.79316,0.08936 1.44662,0.23458 1.96039,0.43564c0.52507,0.18989 0.916,0.48033 1.17288,0.87128c0.25699,0.37979 0.38537,0.90479 0.38537,1.57501c0,1.06115 -0.37417,1.84865 -1.12261,2.36252c-0.74834,0.51387 -1.78163,0.77075 -3.09976,0.77075c-0.83777,0 -1.50233,-0.06702 -1.9939,-0.20107c-0.49146,-0.13404 -0.84887,-0.32391 -1.07235,-0.56968c-0.21216,-0.24578 -0.31835,-0.53617 -0.31835,-0.87128c0,-0.2904 0.09498,-0.51387 0.28484,-0.67022c0.20107,-0.16755 0.43564,-0.25133 0.70373,-0.25133c0.25699,0 0.53063,0.03351 0.82102,0.10053c0.2905,0.05582 0.59765,0.11729 0.92155,0.18431c0.32401,0.06702 0.65912,0.10053 1.00533,0.10053c1.11707,0 1.67554,-0.34631 1.67554,-1.03884c0,-0.23458 -0.05582,-0.42447 -0.16755,-0.56968c-0.11163,-0.14522 -0.3127,-0.2625 -0.6032,-0.35186c-0.2904,-0.10053 -0.71483,-0.17873 -1.27341,-0.23458c-0.67022,-0.06702 -1.251,-0.17873 -1.74257,-0.33511c-0.49146,-0.16755 -0.87128,-0.43564 -1.13937,-0.80426c-0.26809,-0.37979 -0.40213,-0.89921 -0.40213,-1.55826c0,-1.03884 0.39103,-1.87661 1.17288,-2.51331c0.78196,-0.64788 1.89336,-0.97182 3.33433,-0.97182zM199.94619,172.66111c1.32934,0 2.3067,0.34069 2.9322,1.02208c0.63671,0.68139 0.95506,1.57501 0.95506,2.68087c0,0.75958 -0.17865,1.41863 -0.53617,1.97714c-0.34621,0.55851 -0.82102,0.99415 -1.42421,1.30692c-0.6032,0.3016 -1.28451,0.4524 -2.04416,0.4524c-0.35742,0 -0.73724,-0.03909 -1.13937,-0.11729c-0.39093,-0.0782 -0.7986,-0.22899 -1.22315,-0.4524l0.08378,-0.21782c0.08943,0.27926 0.162,0.62553 0.21782,1.03884c0.06702,0.40213 0.11729,0.82102 0.1508,1.25666c0.04471,0.42444 0.06702,0.81547 0.06702,1.17288c0,0.65902 -0.11163,1.16734 -0.33511,1.52474c-0.21216,0.34631 -0.53052,0.51942 -0.95506,0.51942c-0.35742,0 -0.64226,-0.11173 -0.85453,-0.33511c-0.20107,-0.22337 -0.34066,-0.59199 -0.41889,-1.10586c-0.07812,-0.51387 -0.11729,-1.20085 -0.11729,-2.06092c0,-1.65321 0.07268,-3.06066 0.21782,-4.22238c0.15646,-1.17288 0.41889,-2.09443 0.78751,-2.76465c0.2905,-0.51384 0.73724,-0.92155 1.34043,-1.22315c0.61441,-0.3016 1.3796,-0.4524 2.29549,-0.4524zM199.62784,178.12339c0.67022,0 1.21205,-0.17873 1.62528,-0.53617c0.42454,-0.35745 0.63671,-0.87686 0.63671,-1.55826c0,-0.44681 -0.1508,-0.81543 -0.4524,-1.10586c-0.2904,-0.3016 -0.74834,-0.4524 -1.37395,-0.4524c-0.45795,0 -0.85453,0.10611 -1.18964,0.31835c-0.33511,0.20107 -0.59199,0.48591 -0.77075,0.85453c-0.16755,0.35745 -0.25133,0.77075 -0.25133,1.2399c0,0.43564 0.1397,0.75399 0.41889,0.95506c0.2905,0.18989 0.7429,0.28484 1.35719,0.28484zM209.95947,184.84233c-1.2399,0 -2.22847,-0.18431 -2.96571,-0.55293c-0.73724,-0.36862 -1.26787,-0.89925 -1.59177,-1.59177c-0.32401,-0.69253 -0.48591,-1.51916 -0.48591,-2.4798c0,-1.21756 0.22337,-2.25081 0.67022,-3.09976c0.45795,-0.86011 1.08345,-1.51916 1.87661,-1.97714c0.80426,-0.45798 1.71461,-0.68697 2.73114,-0.68697c1.19519,0 2.07202,0.27926 2.6306,0.83777c0.55848,0.54735 0.83777,1.26783 0.83777,2.16145c0,0.7149 -0.18997,1.33485 -0.56968,1.85985c-0.36862,0.51384 -0.88249,0.91038 -1.5415,1.18964c-0.65912,0.27926 -1.41867,0.41889 -2.27874,0.41889c-0.48035,0 -0.94396,-0.06144 -1.3907,-0.18431c-0.44684,-0.12287 -0.84898,-0.29042 -1.20639,-0.50266l0.40213,-0.73724c-0.03351,0.26809 -0.05027,0.53617 -0.05027,0.80426c0,0.78192 0.24568,1.34599 0.73724,1.6923c0.49146,0.33511 1.18964,0.50266 2.09443,0.50266c0.70373,0 1.26776,-0.06147 1.6923,-0.18431c0.42444,-0.12284 0.78185,-0.24013 1.07235,-0.35186c0.2904,-0.12284 0.57524,-0.18431 0.85453,-0.18431c0.15635,0 0.29594,0.04471 0.41889,0.13404c0.13404,0.07822 0.24013,0.19551 0.31835,0.35186c0.08933,0.15635 0.13404,0.34631 0.13404,0.56968c0,0.33511 -0.16755,0.65902 -0.50266,0.97182c-0.33511,0.3016 -0.83223,0.55293 -1.49123,0.75399c-0.64792,0.18986 -1.44662,0.28484 -2.39603,0.28484zM208.98764,179.36329c0.79306,0 1.42977,-0.16755 1.91012,-0.50266c0.48025,-0.33511 0.72048,-0.74841 0.72048,-1.2399c0,-0.39096 -0.13404,-0.70931 -0.40213,-0.95506c-0.25699,-0.25691 -0.66467,-0.38537 -1.22315,-0.38537c-0.52507,0 -0.99978,0.10053 -1.42421,0.3016c-0.41333,0.18989 -0.73724,0.44122 -0.97182,0.75399c-0.23458,0.31277 -0.35186,0.65346 -0.35186,1.02208c0,0.32394 0.1508,0.57527 0.4524,0.75399c0.3127,0.16755 0.74279,0.25133 1.29017,0.25133zM215.82188,177.15158c0,-1.07235 0.10053,-1.8431 0.3016,-2.31225c0.20107,-0.48033 0.48591,-0.72048 0.85453,-0.72048c0.2904,0 0.51942,0.12287 0.68697,0.36862c0.16755,0.23458 0.2904,0.53059 0.36862,0.88804c0.07822,0.34628 0.11729,0.69815 0.11729,1.05559l-0.08378,-0.03351c0.18986,-0.6032 0.48035,-1.12261 0.87128,-1.55826c0.40213,-0.43564 0.88249,-0.65346 1.44097,-0.65346c0.65902,0 1.14492,0.27367 1.45772,0.82102c0.3128,0.53617 0.46915,1.20639 0.46915,2.01065c0,1.07235 -0.12284,1.82076 -0.36862,2.24523c-0.24578,0.42447 -0.57524,0.63671 -0.98857,0.63671c-0.3016,0 -0.52497,-0.12287 -0.67022,-0.36862c-0.13404,-0.24575 -0.17876,-0.68139 -0.13404,-1.30692c0.04471,-0.65904 0.00555,-1.11703 -0.11729,-1.37395c-0.12284,-0.25691 -0.31835,-0.38537 -0.58644,-0.38537c-0.32391,0 -0.59199,0.20665 -0.80426,0.61995c-0.20107,0.40213 -0.3016,0.89921 -0.3016,1.49123c0,0.23458 0.02796,0.53059 0.08378,0.88804c0.05582,0.35745 0.11729,0.74841 0.18431,1.17288c0.06702,0.4133 0.12849,0.8266 0.18431,1.2399c0.05582,0.41333 0.08378,0.79306 0.08378,1.13937c0,0.61441 -0.09498,1.05559 -0.28484,1.32368c-0.18986,0.26809 -0.45795,0.40213 -0.80426,0.40213c-0.39093,0 -0.69253,-0.12284 -0.90479,-0.36862c-0.21227,-0.25689 -0.37417,-0.67022 -0.48591,-1.2399c-0.08933,-0.51387 -0.17876,-1.12261 -0.26809,-1.82634c-0.08933,-0.70373 -0.162,-1.42421 -0.21782,-2.16145c-0.05582,-0.73724 -0.08378,-1.40187 -0.08378,-1.9939zM228.02969,174.21937c0.99412,0 1.70905,0.14522 2.1447,0.43564c0.43564,0.29042 0.65346,0.66464 0.65346,1.12261c0,0.26809 -0.09498,0.49149 -0.28484,0.67022c-0.17876,0.16755 -0.43564,0.25133 -0.77075,0.25133c-0.34631,0 -0.70938,-0.05027 -1.0891,-0.1508c-0.36862,-0.10053 -0.79872,-0.1508 -1.29017,-0.1508c-0.56968,0 -0.99423,0.11171 -1.27341,0.33511c-0.27929,0.2234 -0.41889,0.50825 -0.41889,0.85453c0,0.32394 0.12284,0.58086 0.36862,0.77075c0.25689,0.17873 0.74279,0.31277 1.45772,0.40213c0.79306,0.08936 1.44652,0.23458 1.96039,0.43564c0.52497,0.18989 0.91589,0.48033 1.17288,0.87128c0.25689,0.37979 0.38537,0.90479 0.38537,1.57501c0,1.06115 -0.37428,1.84865 -1.12261,2.36252c-0.74845,0.51387 -1.78173,0.77075 -3.09976,0.77075c-0.83777,0 -1.50244,-0.06702 -1.9939,-0.20107c-0.49156,-0.13404 -0.84898,-0.32391 -1.07235,-0.56968c-0.21227,-0.24578 -0.31835,-0.53617 -0.31835,-0.87128c0,-0.2904 0.09488,-0.51387 0.28484,-0.67022c0.20107,-0.16755 0.43564,-0.25133 0.70373,-0.25133c0.25689,0 0.53052,0.03351 0.82102,0.10053c0.2904,0.05582 0.59754,0.11729 0.92155,0.18431c0.32391,0.06702 0.65902,0.10053 1.00533,0.10053c1.11696,0 1.67554,-0.34631 1.67554,-1.03884c0,-0.23458 -0.05592,-0.42447 -0.16755,-0.56968c-0.11173,-0.14522 -0.3128,-0.2625 -0.6032,-0.35186c-0.2905,-0.10053 -0.71494,-0.17873 -1.27341,-0.23458c-0.67022,-0.06702 -1.25111,-0.17873 -1.74257,-0.33511c-0.49156,-0.16755 -0.87128,-0.43564 -1.13937,-0.80426c-0.26809,-0.37979 -0.40213,-0.89921 -0.40213,-1.55826c0,-1.03884 0.39093,-1.87661 1.17288,-2.51331c0.78185,-0.64788 1.89336,-0.97182 3.33433,-0.97182zM237.43254,184.84233c-1.2399,0 -2.22847,-0.18431 -2.96571,-0.55293c-0.73724,-0.36862 -1.26787,-0.89925 -1.59177,-1.59177c-0.32401,-0.69253 -0.48591,-1.51916 -0.48591,-2.4798c0,-1.21756 0.22337,-2.25081 0.67022,-3.09976c0.45795,-0.86011 1.08345,-1.51916 1.87661,-1.97714c0.80416,-0.45798 1.71461,-0.68697 2.73114,-0.68697c1.19519,0 2.07202,0.27926 2.6306,0.83777c0.55848,0.54735 0.83777,1.26783 0.83777,2.16145c0,0.7149 -0.18997,1.33485 -0.56979,1.85985c-0.36852,0.51384 -0.88238,0.91038 -1.5414,1.18964c-0.65912,0.27926 -1.41867,0.41889 -2.27874,0.41889c-0.48035,0 -0.94396,-0.06144 -1.3907,-0.18431c-0.44684,-0.12287 -0.84898,-0.29042 -1.20639,-0.50266l0.40213,-0.73724c-0.03351,0.26809 -0.05027,0.53617 -0.05027,0.80426c0,0.78192 0.24568,1.34599 0.73724,1.6923c0.49146,0.33511 1.18964,0.50266 2.09443,0.50266c0.70373,0 1.26776,-0.06147 1.6923,-0.18431c0.42444,-0.12284 0.78185,-0.24013 1.07225,-0.35186c0.2905,-0.12284 0.57534,-0.18431 0.85453,-0.18431c0.15646,0 0.29604,0.04471 0.41899,0.13404c0.13404,0.07822 0.24013,0.19551 0.31835,0.35186c0.08933,0.15635 0.13404,0.34631 0.13404,0.56968c0,0.33511 -0.16755,0.65902 -0.50266,0.97182c-0.33511,0.3016 -0.83223,0.55293 -1.49123,0.75399c-0.64792,0.18986 -1.44662,0.28484 -2.39603,0.28484zM236.46073,179.36329c0.79306,0 1.42977,-0.16755 1.91012,-0.50266c0.48025,-0.33511 0.72048,-0.74841 0.72048,-1.2399c0,-0.39096 -0.13404,-0.70931 -0.40213,-0.95506c-0.25699,-0.25691 -0.66467,-0.38537 -1.22315,-0.38537c-0.52507,0 -0.99978,0.10053 -1.42421,0.3016c-0.41333,0.18989 -0.73724,0.44122 -0.97182,0.75399c-0.23458,0.31277 -0.35186,0.65346 -0.35186,1.02208c0,0.32394 0.1508,0.57527 0.4524,0.75399c0.3127,0.16755 0.74279,0.25133 1.29017,0.25133zM246.49525,184.4402c-1.05005,0 -1.90457,-0.40213 -2.56358,-1.20639c-0.65912,-0.81547 -0.98857,-2.04974 -0.98857,-3.70295c0,-1.7649 0.31835,-3.05507 0.95506,-3.87051c0.63671,-0.81543 1.47448,-1.22315 2.51331,-1.22315c0.61429,0 1.15612,0.15638 1.62528,0.46915c0.46915,0.31277 0.87128,0.75399 1.20639,1.32368l-0.13404,0.23458c-0.03351,-0.15638 -0.06147,-0.32394 -0.08378,-0.50266c-0.02241,-0.17873 -0.03351,-0.31277 -0.03351,-0.40213c0,-0.45798 0.07258,-0.80984 0.21782,-1.05559c0.15635,-0.25691 0.39647,-0.38537 0.72048,-0.38537c0.35742,0 0.63671,0.14522 0.83777,0.43564c0.21216,0.29042 0.37417,0.70373 0.48591,1.2399c0.14514,0.54735 0.26809,1.24548 0.36862,2.09443c0.10053,0.83777 0.1508,1.68672 0.1508,2.54683c0,1.07235 -0.03917,1.9716 -0.11729,2.69762c-0.07822,0.72604 -0.20672,1.32923 -0.38537,1.80959c-0.17876,0.48035 -0.41333,0.89925 -0.70373,1.25666c-0.48035,0.5809 -1.10031,1.02208 -1.85985,1.32368c-0.74845,0.3128 -1.61418,0.46915 -2.59709,0.46915c-0.70373,0 -1.26787,-0.06702 -1.6923,-0.20107c-0.42454,-0.12284 -0.73169,-0.29604 -0.92155,-0.51942c-0.17876,-0.21227 -0.26809,-0.4524 -0.26809,-0.72048c0,-0.27929 0.07812,-0.51387 0.23458,-0.70373c0.15635,-0.17876 0.39093,-0.26809 0.70373,-0.26809c0.27919,0 0.6032,0.04471 0.97182,0.13404c0.37972,0.08933 0.82657,0.13404 1.34043,0.13404c1.08345,0 1.84865,-0.25689 2.29549,-0.77075c0.45795,-0.50266 0.68697,-1.2287 0.68697,-2.17821c0,-0.25689 -0.01676,-0.55848 -0.05027,-0.90479l0.23458,0.08378c-0.27929,0.71494 -0.69263,1.29017 -1.2399,1.72581c-0.54738,0.42444 -1.18409,0.63671 -1.91012,0.63671zM247.13196,182.37927c0.35742,0 0.71483,-0.09498 1.07235,-0.28484c0.35742,-0.18986 0.65346,-0.50266 0.88804,-0.9383c0.23458,-0.43564 0.35186,-1.02208 0.35186,-1.75932c0,-0.88246 -0.20672,-1.60294 -0.61995,-2.16145c-0.41333,-0.55851 -0.99423,-0.83777 -1.74257,-0.83777c-0.64792,0 -1.12261,0.24575 -1.42421,0.73724c-0.3016,0.49149 -0.4524,1.23432 -0.4524,2.22847c0,0.94948 0.1508,1.6923 0.4524,2.22847c0.3016,0.52497 0.79306,0.78751 1.47448,0.78751zM255.29071,171.85685c0.44674,0 0.76509,0.12287 0.95506,0.36862c0.20107,0.24575 0.3016,0.53059 0.3016,0.85453c0,0.40213 -0.12294,0.7149 -0.36862,0.9383c-0.23458,0.21224 -0.56968,0.31835 -1.00533,0.31835c-0.42454,0 -0.7429,-0.11729 -0.95506,-0.35186c-0.21227,-0.24575 -0.31846,-0.53059 -0.31846,-0.85453c0,-0.42447 0.12849,-0.74282 0.38548,-0.95506c0.25689,-0.21224 0.59199,-0.31835 1.00533,-0.31835zM255.39124,175.59331c0.35742,0 0.63671,0.33511 0.83777,1.00533c0.21216,0.67022 0.31835,1.73698 0.31835,3.20029c0,1.79839 -0.12849,3.09421 -0.38537,3.88727c-0.25699,0.79306 -0.64792,1.18964 -1.17288,1.18964c-0.40213,0 -0.69818,-0.2904 -0.88804,-0.87128c-0.18997,-0.59199 -0.28484,-1.61973 -0.28484,-3.083c0,-1.79841 0.14514,-3.13327 0.43564,-4.00456c0.3016,-0.88246 0.68132,-1.32368 1.13937,-1.32368zM266.67364,172.66111c1.32892,0 2.30702,0.34069 2.9322,1.02208c0.63671,0.68139 0.95506,1.57501 0.95506,2.68087c0,0.75958 -0.17907,1.41863 -0.53617,1.97714c-0.34663,0.55851 -0.82102,0.99415 -1.42421,1.30692c-0.6032,0.3016 -1.28493,0.4524 -2.04416,0.4524c-0.3571,0 -0.73724,-0.03909 -1.13937,-0.11729c-0.39061,-0.0782 -0.79902,-0.22899 -1.22315,-0.4524l0.08378,-0.21782c0.08902,0.27926 0.16232,0.62553 0.21782,1.03884c0.06702,0.40213 0.11729,0.82102 0.1508,1.25666c0.04503,0.42444 0.06702,0.81547 0.06702,1.17288c0,0.65902 -0.11205,1.16734 -0.33511,1.52474c-0.21258,0.34631 -0.53093,0.51942 -0.95506,0.51942c-0.3571,0 -0.64195,-0.11173 -0.85453,-0.33511c-0.20107,-0.22337 -0.34035,-0.59199 -0.41889,-1.10586c-0.07854,-0.51387 -0.11729,-1.20085 -0.11729,-2.06092c0,-1.65321 0.07226,-3.06066 0.21782,-4.22238c0.15604,-1.17288 0.41889,-2.09443 0.78751,-2.76465c0.29008,-0.51384 0.73724,-0.92155 1.34043,-1.22315c0.61471,-0.3016 1.37918,-0.4524 2.29549,-0.4524zM266.35528,178.12339c0.67022,0 1.21163,-0.17873 1.62528,-0.53617c0.42412,-0.35745 0.63671,-0.87686 0.63671,-1.55826c0,-0.44681 -0.1508,-0.81543 -0.4524,-1.10586c-0.29008,-0.3016 -0.74876,-0.4524 -1.37395,-0.4524c-0.45764,0 -0.85453,0.10611 -1.18964,0.31835c-0.33511,0.20107 -0.59168,0.48591 -0.77075,0.85453c-0.16755,0.35745 -0.25133,0.77075 -0.25133,1.2399c0,0.43564 0.13928,0.75399 0.41889,0.95506c0.29008,0.18989 0.74248,0.28484 1.35719,0.28484zM279.31772,184.87584c-0.38014,0 -0.64299,-0.14524 -0.78751,-0.43564c-0.13404,-0.3016 -0.21258,-0.7763 -0.23458,-1.42421l0.16755,0.08378c-0.62624,1.2176 -1.80959,1.82634 -3.55215,1.82634c-0.79379,0 -1.45249,-0.1396 -1.97714,-0.41889c-0.52571,-0.2904 -0.91631,-0.67022 -1.17288,-1.13937c-0.24609,-0.48035 -0.36862,-0.99978 -0.36862,-1.55826c0,-0.96064 0.33511,-1.72023 1.00533,-2.27874c0.67022,-0.56968 1.55826,-0.85453 2.66411,-0.85453c0.72572,0 1.35719,0.10611 1.89336,0.31835c0.53617,0.21224 0.99381,0.50825 1.37395,0.88804l-0.28484,-0.03351c-0.07854,-1.1282 -0.32464,-1.93246 -0.73724,-2.41278c-0.40213,-0.49149 -0.9781,-0.73724 -1.72581,-0.73724c-0.43564,0 -0.83777,0.06702 -1.20639,0.20107c-0.36862,0.13404 -0.71001,0.27367 -1.02208,0.41889c-0.3016,0.13404 -0.58644,0.20107 -0.85453,0.20107c-0.26809,0 -0.48067,-0.08936 -0.63671,-0.26809c-0.14556,-0.17873 -0.21782,-0.40771 -0.21782,-0.68697c0,-0.40213 0.18955,-0.78192 0.56968,-1.13937c0.39061,-0.35745 0.90479,-0.64788 1.5415,-0.87128c0.63671,-0.2234 1.32892,-0.33511 2.07767,-0.33511c0.90479,0 1.68078,0.21782 2.32901,0.65346c0.64718,0.43564 1.13937,1.07235 1.47448,1.91012c0.29008,0.7149 0.49638,1.51357 0.61995,2.39603c0.12253,0.88246 0.18431,1.82634 0.18431,2.83167c0,0.75955 -0.0398,1.34599 -0.11729,1.75932c-0.07854,0.41333 -0.20107,0.70373 -0.36862,0.87128c-0.15709,0.15635 -0.36862,0.23458 -0.63671,0.23458zM275.61476,182.99922c0.36862,0 0.74248,-0.05027 1.12261,-0.1508c0.37909,-0.11173 0.69744,-0.27364 0.95506,-0.48591c0.25657,-0.21227 0.38537,-0.47471 0.38537,-0.78751c0,-0.26809 -0.11205,-0.48591 -0.33511,-0.65346c-0.21258,-0.17873 -0.49742,-0.31277 -0.85453,-0.40213c-0.34663,-0.08936 -0.72048,-0.13404 -1.12261,-0.13404c-0.68173,0 -1.20115,0.11729 -1.55826,0.35186c-0.34663,0.23458 -0.51942,0.54735 -0.51942,0.9383c0,0.42444 0.16127,0.75399 0.48591,0.98857c0.33511,0.22337 0.81473,0.33511 1.44097,0.33511zM284.1925,174.28639c0.35815,0 0.59796,0.14522 0.72048,0.43564c0.13404,0.29042 0.20107,0.72048 0.20107,1.29017c0,0.13404 -0.01047,0.27926 -0.03351,0.43564c-0.01047,0.14522 -0.03351,0.27926 -0.06702,0.40213l-0.03351,-0.33511c0.26809,-0.72607 0.68173,-1.29017 1.2399,-1.6923c0.55922,-0.4133 1.15089,-0.61995 1.77608,-0.61995c0.69326,0 1.26817,0.19548 1.72581,0.58644c0.46915,0.39096 0.81578,0.9383 1.03884,1.64203c0.23458,0.70373 0.35186,1.53592 0.35186,2.49656c0,0.59202 -0.02722,1.17846 -0.08378,1.75932c-0.04398,0.56968 -0.111,1.09466 -0.20107,1.57501c-0.07749,0.46915 -0.16755,0.85453 -0.26809,1.15612c-0.13404,0.37982 -0.30684,0.66467 -0.51942,0.85453c-0.21153,0.17876 -0.46287,0.26809 -0.75399,0.26809c-0.29008,0 -0.51313,-0.10609 -0.67022,-0.31835c-0.15604,-0.21227 -0.23458,-0.49711 -0.23458,-0.85453c0,-0.37982 0.02827,-0.83777 0.08378,-1.37395c0.05655,-0.54735 0.10682,-1.10028 0.1508,-1.65879c0.05655,-0.56968 0.08378,-1.08352 0.08378,-1.5415c0,-1.56384 -0.51313,-2.34576 -1.5415,-2.34576c-0.54664,0 -1.00533,0.24575 -1.37395,0.73724c-0.36862,0.48033 -0.61366,1.1673 -0.73724,2.06092c-0.03351,0.3016 -0.05027,0.6758 -0.05027,1.12261c0,0.44681 0,0.89362 0,1.34043c0.01152,0.43564 0,0.80426 -0.03351,1.10586c-0.04398,0.67022 -0.17279,1.15058 -0.38537,1.44097c-0.20107,0.2904 -0.47962,0.43564 -0.83777,0.43564c-0.4126,0 -0.72572,-0.18986 -0.9383,-0.56968c-0.21153,-0.39093 -0.31835,-1.04439 -0.31835,-1.96039c0,-0.46915 0.01152,-0.99415 0.03351,-1.57501c0.02304,-0.58086 0.05027,-1.16171 0.08378,-1.74257c0.04503,-0.59202 0.09529,-1.1282 0.1508,-1.60852c0.11205,-0.90479 0.27437,-1.61969 0.48591,-2.1447c0.21258,-0.53617 0.53093,-0.80426 0.95506,-0.80426zM293.23627,188.19342c-0.44716,0 -0.84929,-0.09498 -1.20639,-0.28484c-0.35815,-0.18986 -0.64299,-0.43009 -0.85453,-0.72048c-0.21258,-0.2904 -0.31835,-0.58644 -0.31835,-0.88804c0,-0.25689 0.06702,-0.45795 0.20107,-0.6032c0.13404,-0.14524 0.30684,-0.21782 0.51942,-0.21782c0.36862,0 0.76446,0.1396 1.18964,0.41889c0.42412,0.27929 0.82626,0.66467 1.20639,1.15612l-0.25133,-0.03351c-0.1906,-1.56381 -0.33511,-3.0607 -0.43564,-4.49047c-0.09006,-1.44097 -0.13404,-2.73114 -0.13404,-3.87051c0,-1.03884 0.08378,-1.81517 0.25133,-2.32901c0.17802,-0.525 0.46915,-0.78751 0.87128,-0.78751c0.45764,0 0.82102,0.35745 1.0891,1.07235c0.26809,0.7149 0.40213,1.92129 0.40213,3.61917c0,0.74841 -0.02304,1.5192 -0.06702,2.31225c-0.04503,0.78196 -0.11205,1.52474 -0.20107,2.22847c-0.07854,0.70373 -0.1906,1.29572 -0.33511,1.77608c-0.17907,0.5809 -0.42517,0.99978 -0.73724,1.25666c-0.3016,0.25689 -0.69849,0.38537 -1.18964,0.38537zM294.00702,174.15234c-0.35815,0 -0.64822,-0.0782 -0.87128,-0.23458c-0.21258,-0.16755 -0.31835,-0.41889 -0.31835,-0.75399c0,-0.37979 0.12776,-0.69815 0.38537,-0.95506c0.26809,-0.26809 0.64195,-0.40213 1.12261,-0.40213c0.40213,0 0.70897,0.10053 0.92155,0.3016c0.21153,0.18989 0.31835,0.44681 0.31835,0.77075c0,0.40213 -0.14556,0.7149 -0.43564,0.9383c-0.29113,0.2234 -0.66498,0.33511 -1.12261,0.33511zM305.13787,184.87584c-0.38014,0 -0.64195,-0.14524 -0.78751,-0.43564c-0.13404,-0.3016 -0.21258,-0.7763 -0.23458,-1.42421l0.16755,0.08378c-0.62519,1.2176 -1.80959,1.82634 -3.55215,1.82634c-0.79274,0 -1.45249,-0.1396 -1.97714,-0.41889c-0.52466,-0.2904 -0.91631,-0.67022 -1.17288,-1.13937c-0.24609,-0.48035 -0.36862,-0.99978 -0.36862,-1.55826c0,-0.96064 0.33511,-1.72023 1.00533,-2.27874c0.67022,-0.56968 1.55826,-0.85453 2.66411,-0.85453c0.72572,0 1.35719,0.10611 1.89336,0.31835c0.53617,0.21224 0.99381,0.50825 1.37395,0.88804l-0.28484,-0.03351c-0.07854,-1.1282 -0.32359,-1.93246 -0.73724,-2.41278c-0.40213,-0.49149 -0.97705,-0.73724 -1.72581,-0.73724c-0.43564,0 -0.83777,0.06702 -1.20639,0.20107c-0.36862,0.13404 -0.70897,0.27367 -1.02208,0.41889c-0.3016,0.13404 -0.58644,0.20107 -0.85453,0.20107c-0.26809,0 -0.48067,-0.08936 -0.63671,-0.26809c-0.14556,-0.17873 -0.21782,-0.40771 -0.21782,-0.68697c0,-0.40213 0.18955,-0.78192 0.56968,-1.13937c0.39061,-0.35745 0.90479,-0.64788 1.5415,-0.87128c0.63671,-0.2234 1.32892,-0.33511 2.07767,-0.33511c0.90479,0 1.68078,0.21782 2.32901,0.65346c0.64822,0.43564 1.13937,1.07235 1.47448,1.91012c0.29008,0.7149 0.49742,1.51357 0.61995,2.39603c0.12253,0.88246 0.18431,1.82634 0.18431,2.83167c0,0.75955 -0.03875,1.34599 -0.11729,1.75932c-0.07854,0.41333 -0.20107,0.70373 -0.36862,0.87128c-0.15604,0.15635 -0.36862,0.23458 -0.63671,0.23458zM301.43492,182.99922c0.36862,0 0.74248,-0.05027 1.12261,-0.1508c0.38014,-0.11173 0.69849,-0.27364 0.95506,-0.48591c0.25657,-0.21227 0.38537,-0.47471 0.38537,-0.78751c0,-0.26809 -0.11205,-0.48591 -0.33511,-0.65346c-0.21258,-0.17873 -0.49742,-0.31277 -0.85453,-0.40213c-0.34663,-0.08936 -0.72048,-0.13404 -1.12261,-0.13404c-0.68173,0 -1.20115,0.11729 -1.55826,0.35186c-0.34663,0.23458 -0.51942,0.54735 -0.51942,0.9383c0,0.42444 0.16232,0.75399 0.48591,0.98857c0.33511,0.22337 0.81578,0.33511 1.44097,0.33511zM310.01371,174.28639c0.3571,0 0.59691,0.14522 0.72048,0.43564c0.13404,0.29042 0.20107,0.72048 0.20107,1.29017c0,0.13404 -0.01152,0.27926 -0.03351,0.43564c-0.01152,0.14522 -0.03351,0.27926 -0.06702,0.40213l-0.03351,-0.33511c0.26809,-0.72607 0.68069,-1.29017 1.2399,-1.6923c0.55817,-0.4133 1.14985,-0.61995 1.77608,-0.61995c0.69221,0 1.26714,0.19548 1.72581,0.58644c0.46915,0.39096 0.81473,0.9383 1.03884,1.64203c0.23458,0.70373 0.35186,1.53592 0.35186,2.49656c0,0.59202 -0.02827,1.17846 -0.08378,1.75932c-0.04503,0.56968 -0.11205,1.09466 -0.20107,1.57501c-0.07854,0.46915 -0.16755,0.85453 -0.26809,1.15612c-0.13404,0.37982 -0.30788,0.66467 -0.51942,0.85453c-0.21258,0.17876 -0.46391,0.26809 -0.75399,0.26809c-0.29113,0 -0.51418,-0.10609 -0.67022,-0.31835c-0.15709,-0.21227 -0.23458,-0.49711 -0.23458,-0.85453c0,-0.37982 0.02722,-0.83777 0.08378,-1.37395c0.05551,-0.54735 0.10577,-1.10028 0.1508,-1.65879c0.05551,-0.56968 0.08378,-1.08352 0.08378,-1.5415c0,-1.56384 -0.51418,-2.34576 -1.5415,-2.34576c-0.54769,0 -1.00533,0.24575 -1.37395,0.73724c-0.36862,0.48033 -0.61471,1.1673 -0.73724,2.06092c-0.03351,0.3016 -0.05027,0.6758 -0.05027,1.12261c0,0.44681 0,0.89362 0,1.34043c0.01047,0.43564 0,0.80426 -0.03351,1.10586c-0.04503,0.67022 -0.17384,1.15058 -0.38537,1.44097c-0.20107,0.2904 -0.48067,0.43564 -0.83777,0.43564c-0.41365,0 -0.72677,-0.18986 -0.9383,-0.56968c-0.21258,-0.39093 -0.31835,-1.04439 -0.31835,-1.96039c0,-0.46915 0.01047,-0.99415 0.03351,-1.57501c0.02199,-0.58086 0.05027,-1.16171 0.08378,-1.74257c0.04398,-0.59202 0.09425,-1.1282 0.1508,-1.60852c0.111,-0.90479 0.27333,-1.61969 0.48591,-2.1447c0.21153,-0.53617 0.52989,-0.80426 0.95506,-0.80426zM322.17294,184.4402c-1.05035,0 -1.90489,-0.40213 -2.56358,-1.20639c-0.6587,-0.81547 -0.98857,-2.04974 -0.98857,-3.70295c0,-1.7649 0.31835,-3.05507 0.95506,-3.87051c0.63671,-0.81543 1.47448,-1.22315 2.51331,-1.22315c0.61471,0 1.15612,0.15638 1.62528,0.46915c0.46915,0.31277 0.87128,0.75399 1.20639,1.32368l-0.13404,0.23458c-0.03351,-0.15638 -0.06178,-0.32394 -0.08378,-0.50266c-0.02199,-0.17873 -0.03351,-0.31277 -0.03351,-0.40213c0,-0.45798 0.07226,-0.80984 0.21782,-1.05559c0.15604,-0.25691 0.39689,-0.38537 0.72048,-0.38537c0.3571,0 0.63671,0.14522 0.83777,0.43564c0.21258,0.29042 0.37386,0.70373 0.48591,1.2399c0.14556,0.54735 0.26809,1.24548 0.36862,2.09443c0.10053,0.83777 0.1508,1.68672 0.1508,2.54683c0,1.07235 -0.03875,1.9716 -0.11729,2.69762c-0.07854,0.72604 -0.2063,1.32923 -0.38537,1.80959c-0.17907,0.48035 -0.41365,0.89925 -0.70373,1.25666c-0.48067,0.5809 -1.10062,1.02208 -1.85985,1.32368c-0.74876,0.3128 -1.61376,0.46915 -2.59709,0.46915c-0.70373,0 -1.26817,-0.06702 -1.6923,-0.20107c-0.42412,-0.12284 -0.732,-0.29604 -0.92155,-0.51942c-0.17907,-0.21227 -0.26809,-0.4524 -0.26809,-0.72048c0,-0.27929 0.07854,-0.51387 0.23458,-0.70373c0.15604,-0.17876 0.39061,-0.26809 0.70373,-0.26809c0.2796,0 0.6032,0.04471 0.97182,0.13404c0.38014,0.08933 0.82626,0.13404 1.34043,0.13404c1.08386,0 1.84834,-0.25689 2.29549,-0.77075c0.45764,-0.50266 0.68697,-1.2287 0.68697,-2.17821c0,-0.25689 -0.01676,-0.55848 -0.05027,-0.90479l0.23458,0.08378c-0.2796,0.71494 -0.69221,1.29017 -1.2399,1.72581c-0.54769,0.42444 -1.1844,0.63671 -1.91012,0.63671zM322.80964,182.37927c0.3571,0 0.71524,-0.09498 1.07235,-0.28484c0.3571,-0.18986 0.65346,-0.50266 0.88804,-0.9383c0.23458,-0.43564 0.35186,-1.02208 0.35186,-1.75932c0,-0.88246 -0.2063,-1.60294 -0.61995,-2.16145c-0.41365,-0.55851 -0.99381,-0.83777 -1.74257,-0.83777c-0.64822,0 -1.12261,0.24575 -1.42421,0.73724c-0.3016,0.49149 -0.4524,1.23432 -0.4524,2.22847c0,0.94948 0.1508,1.6923 0.4524,2.22847c0.3016,0.52497 0.79274,0.78751 1.47448,0.78751z"/></g></g></svg>