<svg xmlns="http://www.w3.org/2000/svg" fill="none" viewBox="0 0 229 17" height="17" width="229">
<path fill="black" d="M3.51288 13.368C2.84088 13.368 2.31821 13.3253 1.94488 13.24C1.58221 13.1547 1.33154 13.0373 1.19288 12.888C1.05421 12.728 0.979542 12.552 0.968875 12.36C0.968875 12.0613 1.14488 11.8107 1.49688 11.608C1.85954 11.4053 2.52088 11.2773 3.48088 11.224L3.22488 11.528C3.10754 10.984 3.02221 10.3493 2.96888 9.624C2.91554 8.89867 2.89421 8.14667 2.90488 7.368C2.91554 6.58933 2.95288 5.848 3.01688 5.144C3.08088 4.42933 3.17154 3.82133 3.28888 3.32L4.68088 3.224C4.44621 3.32 4.15288 3.40533 3.80088 3.48C3.44888 3.544 3.08621 3.576 2.71288 3.576C2.03021 3.576 1.52354 3.50133 1.19288 3.352C0.872875 3.20267 0.712875 2.99467 0.712875 2.728C0.712875 2.25867 0.995542 1.896 1.56088 1.64C2.13688 1.37333 3.01688 1.24 4.20088 1.24C5.60888 1.24 6.79288 1.47467 7.75288 1.944C8.72354 2.40267 9.45954 3.048 9.96088 3.88C10.4622 4.70133 10.7129 5.66133 10.7129 6.76C10.7129 7.72 10.5422 8.60533 10.2009 9.416C9.85954 10.216 9.36888 10.9147 8.72888 11.512C8.09954 12.0987 7.34221 12.5573 6.45688 12.888C5.58221 13.208 4.60088 13.368 3.51288 13.368ZM5.78488 10.904C6.14754 10.904 6.53154 10.76 6.93688 10.472C7.35288 10.1733 7.70488 9.74133 7.99288 9.176C8.28088 8.6 8.42488 7.89067 8.42488 7.048C8.42488 6.42933 8.33421 5.89067 8.15288 5.432C7.98221 4.96267 7.75821 4.57333 7.48088 4.264C7.20354 3.95467 6.91021 3.72533 6.60088 3.576C6.29154 3.416 5.99821 3.336 5.72088 3.336C5.49688 3.336 5.32088 3.47467 5.19288 3.752C5.07554 4.02933 4.99021 4.44533 4.93688 5C4.88354 5.544 4.85688 6.22133 4.85688 7.032C4.85688 8.29067 4.92088 9.25067 5.04888 9.912C5.17688 10.5733 5.42221 10.904 5.78488 10.904ZM13.884 0.728C14.3107 0.728 14.6147 0.845333 14.796 1.08C14.988 1.31467 15.084 1.58667 15.084 1.896C15.084 2.28 14.9667 2.57867 14.732 2.792C14.508 2.99467 14.188 3.096 13.772 3.096C13.3667 3.096 13.0627 2.984 12.86 2.76C12.6573 2.52533 12.556 2.25333 12.556 1.944C12.556 1.53867 12.6787 1.23467 12.924 1.032C13.1693 0.829333 13.4893 0.728 13.884 0.728ZM13.98 4.296C14.3213 4.296 14.588 4.616 14.78 5.256C14.9827 5.896 15.084 6.91467 15.084 8.312C15.084 10.0293 14.9613 11.2667 14.716 12.024C14.4707 12.7813 14.0973 13.16 13.596 13.16C13.212 13.16 12.9293 12.8827 12.748 12.328C12.5667 11.7627 12.476 10.7813 12.476 9.384C12.476 7.66667 12.6147 6.392 12.892 5.56C13.18 4.71733 13.5427 4.296 13.98 4.296ZM24.0305 13.16C23.6678 13.16 23.4172 13.0213 23.2785 12.744C23.1505 12.456 23.0758 12.0027 23.0545 11.384L23.2145 11.464C22.6172 12.6267 21.4865 13.208 19.8225 13.208C19.0652 13.208 18.4358 13.0747 17.9345 12.808C17.4332 12.5307 17.0598 12.168 16.8145 11.72C16.5798 11.2613 16.4625 10.7653 16.4625 10.232C16.4625 9.31467 16.7825 8.58933 17.4225 8.056C18.0625 7.512 18.9105 7.24 19.9665 7.24C20.6598 7.24 21.2625 7.34133 21.7745 7.544C22.2865 7.74667 22.7238 8.02933 23.0865 8.392L22.8145 8.36C22.7398 7.28267 22.5052 6.51467 22.1105 6.056C21.7265 5.58667 21.1772 5.352 20.4625 5.352C20.0465 5.352 19.6625 5.416 19.3105 5.544C18.9585 5.672 18.6332 5.80533 18.3345 5.944C18.0465 6.072 17.7745 6.136 17.5185 6.136C17.2625 6.136 17.0598 6.05067 16.9105 5.88C16.7718 5.70933 16.7025 5.49067 16.7025 5.224C16.7025 4.84 16.8838 4.47733 17.2465 4.136C17.6198 3.79467 18.1105 3.51733 18.7185 3.304C19.3265 3.09067 19.9878 2.984 20.7025 2.984C21.5665 2.984 22.3078 3.192 22.9265 3.608C23.5452 4.024 24.0145 4.632 24.3345 5.432C24.6118 6.11467 24.8092 6.87733 24.9265 7.72C25.0438 8.56267 25.1025 9.464 25.1025 10.424C25.1025 11.1493 25.0652 11.7093 24.9905 12.104C24.9158 12.4987 24.7985 12.776 24.6385 12.936C24.4892 13.0853 24.2865 13.16 24.0305 13.16ZM20.4945 11.368C20.8465 11.368 21.2038 11.32 21.5665 11.224C21.9292 11.1173 22.2332 10.9627 22.4785 10.76C22.7238 10.5573 22.8465 10.3067 22.8465 10.008C22.8465 9.752 22.7398 9.544 22.5265 9.384C22.3238 9.21333 22.0518 9.08533 21.7105 9C21.3798 8.91467 21.0225 8.872 20.6385 8.872C19.9878 8.872 19.4918 8.984 19.1505 9.208C18.8198 9.432 18.6545 9.73067 18.6545 10.104C18.6545 10.5093 18.8092 10.824 19.1185 11.048C19.4385 11.2613 19.8972 11.368 20.4945 11.368ZM30.1101 12.744C29.1075 12.744 28.2915 12.36 27.6621 11.592C27.0328 10.8133 26.7181 9.63467 26.7181 8.056C26.7181 6.37067 27.0221 5.13867 27.6301 4.36C28.2381 3.58133 29.0381 3.192 30.0301 3.192C30.6168 3.192 31.1341 3.34133 31.5821 3.64C32.0301 3.93867 32.4141 4.36 32.7341 4.904L32.6061 5.128C32.5741 4.97867 32.5475 4.81867 32.5261 4.648C32.5048 4.47733 32.4941 4.34933 32.4941 4.264C32.4941 3.82667 32.5635 3.49067 32.7021 3.256C32.8515 3.01067 33.0808 2.888 33.3901 2.888C33.7315 2.888 33.9981 3.02667 34.1901 3.304C34.3928 3.58133 34.5475 3.976 34.6541 4.488C34.7928 5.01067 34.9101 5.67733 35.0061 6.488C35.1021 7.288 35.1501 8.09867 35.1501 8.92C35.1501 9.944 35.1128 10.8027 35.0381 11.496C34.9635 12.1893 34.8408 12.7653 34.6701 13.224C34.4995 13.6827 34.2755 14.0827 33.9981 14.424C33.5395 14.9787 32.9475 15.4 32.2221 15.688C31.5075 15.9867 30.6808 16.136 29.7421 16.136C29.0701 16.136 28.5315 16.072 28.1261 15.944C27.7208 15.8267 27.4275 15.6613 27.2461 15.448C27.0755 15.2453 26.9901 15.016 26.9901 14.76C26.9901 14.4933 27.0648 14.2693 27.2141 14.088C27.3635 13.9173 27.5875 13.832 27.8861 13.832C28.1528 13.832 28.4621 13.8747 28.8141 13.96C29.1768 14.0453 29.6035 14.088 30.0941 14.088C31.1288 14.088 31.8595 13.8427 32.2861 13.352C32.7235 12.872 32.9421 12.1787 32.9421 11.272C32.9421 11.0267 32.9261 10.7387 32.8941 10.408L33.1181 10.488C32.8515 11.1707 32.4568 11.72 31.9341 12.136C31.4115 12.5413 30.8035 12.744 30.1101 12.744ZM30.7181 10.776C31.0595 10.776 31.4008 10.6853 31.7421 10.504C32.0835 10.3227 32.3661 10.024 32.5901 9.608C32.8141 9.192 32.9261 8.632 32.9261 7.928C32.9261 7.08533 32.7288 6.39733 32.3341 5.864C31.9395 5.33067 31.3848 5.064 30.6701 5.064C30.0515 5.064 29.5981 5.29867 29.3101 5.768C29.0221 6.23733 28.8781 6.94667 28.8781 7.896C28.8781 8.80267 29.0221 9.512 29.3101 10.024C29.5981 10.5253 30.0675 10.776 30.7181 10.776ZM40.989 13.048C40.1357 13.048 39.389 12.8613 38.749 12.488C38.1197 12.104 37.629 11.56 37.277 10.856C36.9357 10.152 36.765 9.31467 36.765 8.344C36.765 7.33067 36.941 6.44533 37.293 5.688C37.645 4.93067 38.141 4.33867 38.781 3.912C39.4317 3.48533 40.1837 3.272 41.037 3.272C41.9543 3.272 42.749 3.48 43.421 3.896C44.093 4.30133 44.6157 4.872 44.989 5.608C45.3623 6.344 45.549 7.20267 45.549 8.184C45.549 9.18667 45.3623 10.0507 44.989 10.776C44.6157 11.5013 44.0877 12.0613 43.405 12.456C42.7223 12.8507 41.917 13.048 40.989 13.048ZM41.213 10.888C41.8743 10.888 42.397 10.6267 42.781 10.104C43.1757 9.57067 43.373 8.86667 43.373 7.992C43.373 7.10667 43.1757 6.40267 42.781 5.88C42.397 5.35733 41.8743 5.096 41.213 5.096C40.5303 5.096 39.9917 5.35733 39.597 5.88C39.2023 6.40267 39.005 7.10667 39.005 7.992C39.005 8.86667 39.2023 9.57067 39.597 10.104C39.9917 10.6267 40.5303 10.888 41.213 10.888ZM48.7955 3.048C49.1368 3.048 49.3662 3.18667 49.4835 3.464C49.6115 3.74133 49.6755 4.152 49.6755 4.696C49.6755 4.824 49.6648 4.96267 49.6435 5.112C49.6328 5.25067 49.6115 5.37867 49.5795 5.496L49.5475 5.176C49.8035 4.48267 50.1982 3.944 50.7315 3.56C51.2648 3.16533 51.8302 2.968 52.4275 2.968C53.0888 2.968 53.6382 3.15467 54.0755 3.528C54.5235 3.90133 54.8542 4.424 55.0675 5.096C55.2915 5.768 55.4035 6.56267 55.4035 7.48C55.4035 8.04533 55.3768 8.60533 55.3235 9.16C55.2808 9.704 55.2168 10.2053 55.1315 10.664C55.0568 11.112 54.9715 11.48 54.8755 11.768C54.7475 12.1307 54.5822 12.4027 54.3795 12.584C54.1768 12.7547 53.9368 12.84 53.6595 12.84C53.3822 12.84 53.1688 12.7387 53.0195 12.536C52.8702 12.3333 52.7955 12.0613 52.7955 11.72C52.7955 11.3573 52.8222 10.92 52.8755 10.408C52.9288 9.88533 52.9768 9.35733 53.0195 8.824C53.0728 8.28 53.0995 7.78933 53.0995 7.352C53.0995 5.85867 52.6088 5.112 51.6275 5.112C51.1048 5.112 50.6675 5.34667 50.3155 5.816C49.9635 6.27467 49.7288 6.93067 49.6115 7.784C49.5795 8.072 49.5635 8.42933 49.5635 8.856C49.5635 9.28267 49.5635 9.70933 49.5635 10.136C49.5742 10.552 49.5635 10.904 49.5315 11.192C49.4888 11.832 49.3662 12.2907 49.1635 12.568C48.9715 12.8453 48.7048 12.984 48.3635 12.984C47.9688 12.984 47.6702 12.8027 47.4675 12.44C47.2648 12.0667 47.1635 11.4427 47.1635 10.568C47.1635 10.12 47.1742 9.61867 47.1955 9.064C47.2168 8.50933 47.2435 7.95467 47.2755 7.4C47.3182 6.83467 47.3662 6.32267 47.4195 5.864C47.5262 5 47.6808 4.31733 47.8835 3.816C48.0862 3.304 48.3902 3.048 48.7955 3.048ZM64.343 13.16C63.9803 13.16 63.7297 13.0213 63.591 12.744C63.463 12.456 63.3883 12.0027 63.367 11.384L63.527 11.464C62.9297 12.6267 61.799 13.208 60.135 13.208C59.3777 13.208 58.7483 13.0747 58.247 12.808C57.7457 12.5307 57.3723 12.168 57.127 11.72C56.8923 11.2613 56.775 10.7653 56.775 10.232C56.775 9.31467 57.095 8.58933 57.735 8.056C58.375 7.512 59.223 7.24 60.279 7.24C60.9723 7.24 61.575 7.34133 62.087 7.544C62.599 7.74667 63.0363 8.02933 63.399 8.392L63.127 8.36C63.0523 7.28267 62.8177 6.51467 62.423 6.056C62.039 5.58667 61.4897 5.352 60.775 5.352C60.359 5.352 59.975 5.416 59.623 5.544C59.271 5.672 58.9457 5.80533 58.647 5.944C58.359 6.072 58.087 6.136 57.831 6.136C57.575 6.136 57.3723 6.05067 57.223 5.88C57.0843 5.70933 57.015 5.49067 57.015 5.224C57.015 4.84 57.1963 4.47733 57.559 4.136C57.9323 3.79467 58.423 3.51733 59.031 3.304C59.639 3.09067 60.3003 2.984 61.015 2.984C61.879 2.984 62.6203 3.192 63.239 3.608C63.8577 4.024 64.327 4.632 64.647 5.432C64.9243 6.11467 65.1217 6.87733 65.239 7.72C65.3563 8.56267 65.415 9.464 65.415 10.424C65.415 11.1493 65.3777 11.7093 65.303 12.104C65.2283 12.4987 65.111 12.776 64.951 12.936C64.8017 13.0853 64.599 13.16 64.343 13.16ZM60.807 11.368C61.159 11.368 61.5163 11.32 61.879 11.224C62.2417 11.1173 62.5457 10.9627 62.791 10.76C63.0363 10.5573 63.159 10.3067 63.159 10.008C63.159 9.752 63.0523 9.544 62.839 9.384C62.6363 9.21333 62.3643 9.08533 62.023 9C61.6923 8.91467 61.335 8.872 60.951 8.872C60.3003 8.872 59.8043 8.984 59.463 9.208C59.1323 9.432 58.967 9.73067 58.967 10.104C58.967 10.5093 59.1217 10.824 59.431 11.048C59.751 11.2613 60.2097 11.368 60.807 11.368ZM69.0946 13.032C68.764 13.032 68.5026 12.9573 68.3106 12.808C68.1186 12.648 67.964 12.3867 67.8466 12.024C67.6866 11.4907 67.564 10.8187 67.4786 10.008C67.404 9.18667 67.3666 8.17867 67.3666 6.984C67.3666 6.248 67.3933 5.512 67.4466 4.776C67.5106 4.02933 67.5906 3.352 67.6866 2.744C67.7826 2.12533 67.884 1.64533 67.9906 1.304C68.108 0.941333 68.2466 0.690666 68.4066 0.551999C68.5666 0.413333 68.748 0.344 68.9506 0.344C69.164 0.344 69.3346 0.418667 69.4626 0.568C69.5906 0.706666 69.692 0.957333 69.7666 1.32C69.8306 1.672 69.8786 2.104 69.9106 2.616C69.9533 3.128 69.9746 3.67733 69.9746 4.264C69.9746 5.064 69.9373 5.90667 69.8626 6.792C69.788 7.67733 69.6866 8.54667 69.5586 9.4C69.4413 10.2533 69.2973 11.0373 69.1266 11.752L68.6786 11.528C68.956 11.1867 69.2706 10.92 69.6226 10.728C69.9853 10.536 70.316 10.44 70.6146 10.44C70.86 10.44 71.0466 10.5093 71.1746 10.648C71.3133 10.776 71.3826 10.9787 71.3826 11.256C71.3826 11.5333 71.26 11.8107 71.0146 12.088C70.78 12.3653 70.4866 12.5947 70.1346 12.776C69.7826 12.9467 69.436 13.032 69.0946 13.032ZM80.5505 1.496C81.8198 1.496 82.7532 1.82133 83.3505 2.472C83.9585 3.12267 84.2625 3.976 84.2625 5.032C84.2625 5.75733 84.0918 6.38667 83.7505 6.92C83.4198 7.45333 82.9665 7.86933 82.3905 8.168C81.8145 8.456 81.1638 8.6 80.4385 8.6C80.0972 8.6 79.7345 8.56267 79.3505 8.488C78.9772 8.41333 78.5878 8.26933 78.1825 8.056L78.2625 7.848C78.3478 8.11467 78.4172 8.44533 78.4705 8.84C78.5345 9.224 78.5825 9.624 78.6145 10.04C78.6572 10.4453 78.6785 10.8187 78.6785 11.16C78.6785 11.7893 78.5718 12.2747 78.3585 12.616C78.1558 12.9467 77.8518 13.112 77.4465 13.112C77.1052 13.112 76.8332 13.0053 76.6305 12.792C76.4385 12.5787 76.3052 12.2267 76.2305 11.736C76.1558 11.2453 76.1185 10.5893 76.1185 9.768C76.1185 8.18933 76.1878 6.84533 76.3265 5.736C76.4758 4.616 76.7265 3.736 77.0785 3.096C77.3558 2.60533 77.7825 2.216 78.3585 1.928C78.9452 1.64 79.6758 1.496 80.5505 1.496ZM80.2465 6.712C80.8865 6.712 81.4038 6.54133 81.7985 6.2C82.2038 5.85867 82.4065 5.36267 82.4065 4.712C82.4065 4.28533 82.2625 3.93333 81.9745 3.656C81.6972 3.368 81.2598 3.224 80.6625 3.224C80.2252 3.224 79.8465 3.32533 79.5265 3.528C79.2065 3.72 78.9612 3.992 78.7905 4.344C78.6305 4.68533 78.5505 5.08 78.5505 5.528C78.5505 5.944 78.6838 6.248 78.9505 6.44C79.2278 6.62133 79.6598 6.712 80.2465 6.712ZM92.6243 13.16C92.2616 13.16 92.0109 13.0213 91.8723 12.744C91.7443 12.456 91.6696 12.0027 91.6483 11.384L91.8083 11.464C91.2109 12.6267 90.0803 13.208 88.4163 13.208C87.6589 13.208 87.0296 13.0747 86.5283 12.808C86.0269 12.5307 85.6536 12.168 85.4083 11.72C85.1736 11.2613 85.0563 10.7653 85.0563 10.232C85.0563 9.31467 85.3763 8.58933 86.0163 8.056C86.6563 7.512 87.5043 7.24 88.5603 7.24C89.2536 7.24 89.8563 7.34133 90.3683 7.544C90.8803 7.74667 91.3176 8.02933 91.6803 8.392L91.4083 8.36C91.3336 7.28267 91.0989 6.51467 90.7043 6.056C90.3203 5.58667 89.7709 5.352 89.0563 5.352C88.6403 5.352 88.2563 5.416 87.9043 5.544C87.5523 5.672 87.2269 5.80533 86.9283 5.944C86.6403 6.072 86.3683 6.136 86.1123 6.136C85.8563 6.136 85.6536 6.05067 85.5043 5.88C85.3656 5.70933 85.2963 5.49067 85.2963 5.224C85.2963 4.84 85.4776 4.47733 85.8403 4.136C86.2136 3.79467 86.7043 3.51733 87.3123 3.304C87.9203 3.09067 88.5816 2.984 89.2963 2.984C90.1603 2.984 90.9016 3.192 91.5203 3.608C92.1389 4.024 92.6083 4.632 92.9283 5.432C93.2056 6.11467 93.4029 6.87733 93.5203 7.72C93.6376 8.56267 93.6962 9.464 93.6962 10.424C93.6962 11.1493 93.6589 11.7093 93.5843 12.104C93.5096 12.4987 93.3923 12.776 93.2323 12.936C93.0829 13.0853 92.8803 13.16 92.6243 13.16ZM89.0883 11.368C89.4403 11.368 89.7976 11.32 90.1603 11.224C90.5229 11.1173 90.8269 10.9627 91.0723 10.76C91.3176 10.5573 91.4403 10.3067 91.4403 10.008C91.4403 9.752 91.3336 9.544 91.1203 9.384C90.9176 9.21333 90.6456 9.08533 90.3043 9C89.9736 8.91467 89.6163 8.872 89.2323 8.872C88.5816 8.872 88.0856 8.984 87.7443 9.208C87.4136 9.432 87.2483 9.73067 87.2483 10.104C87.2483 10.5093 87.4029 10.824 87.7123 11.048C88.0323 11.2613 88.4909 11.368 89.0883 11.368ZM98.6399 13.224C97.5945 13.224 96.7785 12.8347 96.1919 12.056C95.6052 11.2667 95.3119 10.0667 95.3119 8.456C95.3119 6.856 95.5999 5.688 96.1759 4.952C96.7625 4.20533 97.5999 3.832 98.6879 3.832C99.3065 3.832 99.8452 3.96 100.304 4.216C100.773 4.472 101.189 4.83467 101.552 5.304L101.424 5.368C101.328 4.93067 101.232 4.46667 101.136 3.976C101.04 3.48533 100.96 3.02133 100.896 2.584C100.843 2.136 100.816 1.784 100.816 1.528C100.816 1.16533 100.875 0.887999 100.992 0.695999C101.109 0.493333 101.296 0.391999 101.552 0.391999C101.915 0.391999 102.208 0.546666 102.432 0.855999C102.656 1.15467 102.843 1.61867 102.992 2.248C103.131 2.81333 103.253 3.48533 103.36 4.264C103.467 5.032 103.552 5.83733 103.616 6.68C103.691 7.512 103.728 8.312 103.728 9.08C103.728 10.1467 103.669 10.9787 103.552 11.576C103.445 12.1627 103.291 12.5733 103.088 12.808C102.896 13.0427 102.667 13.16 102.4 13.16C102.069 13.16 101.845 12.9947 101.728 12.664C101.611 12.3333 101.563 11.7947 101.584 11.048H101.824C101.536 11.7093 101.115 12.2373 100.56 12.632C100.016 13.0267 99.3759 13.224 98.6399 13.224ZM99.4879 11.24C99.8719 11.24 100.224 11.144 100.544 10.952C100.875 10.7493 101.136 10.44 101.328 10.024C101.531 9.608 101.632 9.08 101.632 8.44C101.632 7.61867 101.445 6.952 101.072 6.44C100.699 5.91733 100.16 5.656 99.4559 5.656C98.9012 5.656 98.4479 5.88533 98.0959 6.344C97.7545 6.80267 97.5839 7.496 97.5839 8.424C97.5839 9.24533 97.7545 9.92267 98.0959 10.456C98.4479 10.9787 98.9119 11.24 99.4879 11.24ZM112.671 13.16C112.308 13.16 112.058 13.0213 111.919 12.744C111.791 12.456 111.716 12.0027 111.695 11.384L111.855 11.464C111.258 12.6267 110.127 13.208 108.463 13.208C107.706 13.208 107.076 13.0747 106.575 12.808C106.074 12.5307 105.7 12.168 105.455 11.72C105.22 11.2613 105.103 10.7653 105.103 10.232C105.103 9.31467 105.423 8.58933 106.063 8.056C106.703 7.512 107.551 7.24 108.607 7.24C109.3 7.24 109.903 7.34133 110.415 7.544C110.927 7.74667 111.364 8.02933 111.727 8.392L111.455 8.36C111.38 7.28267 111.146 6.51467 110.751 6.056C110.367 5.58667 109.818 5.352 109.103 5.352C108.687 5.352 108.303 5.416 107.951 5.544C107.599 5.672 107.274 5.80533 106.975 5.944C106.687 6.072 106.415 6.136 106.159 6.136C105.903 6.136 105.7 6.05067 105.551 5.88C105.412 5.70933 105.343 5.49067 105.343 5.224C105.343 4.84 105.524 4.47733 105.887 4.136C106.26 3.79467 106.751 3.51733 107.359 3.304C107.967 3.09067 108.628 2.984 109.343 2.984C110.207 2.984 110.948 3.192 111.567 3.608C112.186 4.024 112.655 4.632 112.975 5.432C113.252 6.11467 113.45 6.87733 113.567 7.72C113.684 8.56267 113.743 9.464 113.743 10.424C113.743 11.1493 113.706 11.7093 113.631 12.104C113.556 12.4987 113.439 12.776 113.279 12.936C113.13 13.0853 112.927 13.16 112.671 13.16ZM109.135 11.368C109.487 11.368 109.844 11.32 110.207 11.224C110.57 11.1173 110.874 10.9627 111.119 10.76C111.364 10.5573 111.487 10.3067 111.487 10.008C111.487 9.752 111.38 9.544 111.167 9.384C110.964 9.21333 110.692 9.08533 110.351 9C110.02 8.91467 109.663 8.872 109.279 8.872C108.628 8.872 108.132 8.984 107.791 9.208C107.46 9.432 107.295 9.73067 107.295 10.104C107.295 10.5093 107.45 10.824 107.759 11.048C108.079 11.2613 108.538 11.368 109.135 11.368ZM122.018 13.08C121.357 13.08 120.807 12.9573 120.37 12.712C119.943 12.456 119.623 12.0667 119.41 11.544C119.261 11.1813 119.149 10.744 119.074 10.232C119.01 9.70933 118.978 9.112 118.978 8.44C118.978 7.288 119.015 6.33867 119.09 5.592C119.165 4.83467 119.271 4.22667 119.41 3.768C119.559 3.29867 119.725 2.92 119.906 2.632C120.194 2.19467 120.653 1.84267 121.282 1.576C121.911 1.30933 122.802 1.176 123.954 1.176C124.722 1.176 125.335 1.29333 125.794 1.528C126.263 1.752 126.599 2.05067 126.802 2.424C127.015 2.79733 127.122 3.21333 127.122 3.672C127.122 4.39733 126.909 4.99467 126.482 5.464C126.055 5.93333 125.495 6.30667 124.802 6.584V6.648C125.559 6.73333 126.146 6.97867 126.562 7.384C126.989 7.77867 127.202 8.344 127.202 9.08C127.202 9.66667 127.053 10.2053 126.754 10.696C126.466 11.176 126.071 11.5973 125.57 11.96C125.079 12.312 124.525 12.5893 123.906 12.792C123.287 12.984 122.658 13.08 122.018 13.08ZM122.514 11.16C123.026 11.16 123.479 11.0747 123.874 10.904C124.279 10.7333 124.594 10.504 124.818 10.216C125.053 9.91733 125.17 9.58133 125.17 9.208C125.17 8.80267 124.973 8.46667 124.578 8.2C124.194 7.92267 123.591 7.784 122.77 7.784C122.215 7.784 121.773 7.91733 121.442 8.184C121.122 8.44 120.962 8.88267 120.962 9.512C120.962 10.1093 121.09 10.536 121.346 10.792C121.602 11.0373 121.991 11.16 122.514 11.16ZM122.578 6.088C123.303 6.088 123.906 5.928 124.386 5.608C124.877 5.27733 125.122 4.85067 125.122 4.328C125.122 3.944 124.967 3.63467 124.658 3.4C124.349 3.16533 123.895 3.048 123.298 3.048C122.647 3.048 122.114 3.176 121.698 3.432C121.282 3.688 121.074 4.12533 121.074 4.744C121.074 5.24533 121.207 5.59733 121.474 5.8C121.751 5.992 122.119 6.088 122.578 6.088ZM135.968 13.16C135.605 13.16 135.355 13.0213 135.216 12.744C135.088 12.456 135.013 12.0027 134.992 11.384L135.152 11.464C134.555 12.6267 133.424 13.208 131.76 13.208C131.003 13.208 130.373 13.0747 129.872 12.808C129.371 12.5307 128.997 12.168 128.752 11.72C128.517 11.2613 128.4 10.7653 128.4 10.232C128.4 9.31467 128.72 8.58933 129.36 8.056C130 7.512 130.848 7.24 131.904 7.24C132.597 7.24 133.2 7.34133 133.712 7.544C134.224 7.74667 134.661 8.02933 135.024 8.392L134.752 8.36C134.677 7.28267 134.443 6.51467 134.048 6.056C133.664 5.58667 133.115 5.352 132.4 5.352C131.984 5.352 131.6 5.416 131.248 5.544C130.896 5.672 130.571 5.80533 130.272 5.944C129.984 6.072 129.712 6.136 129.456 6.136C129.2 6.136 128.997 6.05067 128.848 5.88C128.709 5.70933 128.64 5.49067 128.64 5.224C128.64 4.84 128.821 4.47733 129.184 4.136C129.557 3.79467 130.048 3.51733 130.656 3.304C131.264 3.09067 131.925 2.984 132.64 2.984C133.504 2.984 134.245 3.192 134.864 3.608C135.483 4.024 135.952 4.632 136.272 5.432C136.549 6.11467 136.747 6.87733 136.864 7.72C136.981 8.56267 137.04 9.464 137.04 10.424C137.04 11.1493 137.003 11.7093 136.928 12.104C136.853 12.4987 136.736 12.776 136.576 12.936C136.427 13.0853 136.224 13.16 135.968 13.16ZM132.432 11.368C132.784 11.368 133.141 11.32 133.504 11.224C133.867 11.1173 134.171 10.9627 134.416 10.76C134.661 10.5573 134.784 10.3067 134.784 10.008C134.784 9.752 134.677 9.544 134.464 9.384C134.261 9.21333 133.989 9.08533 133.648 9C133.317 8.91467 132.96 8.872 132.576 8.872C131.925 8.872 131.429 8.984 131.088 9.208C130.757 9.432 130.592 9.73067 130.592 10.104C130.592 10.5093 130.747 10.824 131.056 11.048C131.376 11.2613 131.835 11.368 132.432 11.368ZM140.624 3.048C140.965 3.048 141.194 3.18667 141.312 3.464C141.44 3.74133 141.504 4.152 141.504 4.696C141.504 4.824 141.493 4.96267 141.472 5.112C141.461 5.25067 141.44 5.37867 141.408 5.496L141.376 5.176C141.632 4.48267 142.026 3.944 142.56 3.56C143.093 3.16533 143.658 2.968 144.256 2.968C144.917 2.968 145.466 3.15467 145.904 3.528C146.352 3.90133 146.682 4.424 146.896 5.096C147.12 5.768 147.232 6.56267 147.232 7.48C147.232 8.04533 147.205 8.60533 147.152 9.16C147.109 9.704 147.045 10.2053 146.96 10.664C146.885 11.112 146.8 11.48 146.704 11.768C146.576 12.1307 146.41 12.4027 146.208 12.584C146.005 12.7547 145.765 12.84 145.488 12.84C145.21 12.84 144.997 12.7387 144.848 12.536C144.698 12.3333 144.624 12.0613 144.624 11.72C144.624 11.3573 144.65 10.92 144.704 10.408C144.757 9.88533 144.805 9.35733 144.848 8.824C144.901 8.28 144.928 7.78933 144.928 7.352C144.928 5.85867 144.437 5.112 143.456 5.112C142.933 5.112 142.496 5.34667 142.144 5.816C141.792 6.27467 141.557 6.93067 141.44 7.784C141.408 8.072 141.392 8.42933 141.392 8.856C141.392 9.28267 141.392 9.70933 141.392 10.136C141.402 10.552 141.392 10.904 141.36 11.192C141.317 11.832 141.194 12.2907 140.992 12.568C140.8 12.8453 140.533 12.984 140.192 12.984C139.797 12.984 139.498 12.8027 139.296 12.44C139.093 12.0667 138.992 11.4427 138.992 10.568C138.992 10.12 139.002 9.61867 139.024 9.064C139.045 8.50933 139.072 7.95467 139.104 7.4C139.146 6.83467 139.194 6.32267 139.248 5.864C139.354 5 139.509 4.31733 139.712 3.816C139.914 3.304 140.218 3.048 140.624 3.048ZM152.235 12.744C151.232 12.744 150.416 12.36 149.787 11.592C149.158 10.8133 148.843 9.63467 148.843 8.056C148.843 6.37067 149.147 5.13867 149.755 4.36C150.363 3.58133 151.163 3.192 152.155 3.192C152.742 3.192 153.259 3.34133 153.707 3.64C154.155 3.93867 154.539 4.36 154.859 4.904L154.731 5.128C154.699 4.97867 154.672 4.81867 154.651 4.648C154.63 4.47733 154.619 4.34933 154.619 4.264C154.619 3.82667 154.688 3.49067 154.827 3.256C154.976 3.01067 155.206 2.888 155.515 2.888C155.856 2.888 156.123 3.02667 156.315 3.304C156.518 3.58133 156.672 3.976 156.779 4.488C156.918 5.01067 157.035 5.67733 157.131 6.488C157.227 7.288 157.275 8.09867 157.275 8.92C157.275 9.944 157.238 10.8027 157.163 11.496C157.088 12.1893 156.966 12.7653 156.795 13.224C156.624 13.6827 156.4 14.0827 156.123 14.424C155.664 14.9787 155.072 15.4 154.347 15.688C153.632 15.9867 152.806 16.136 151.867 16.136C151.195 16.136 150.656 16.072 150.251 15.944C149.846 15.8267 149.552 15.6613 149.371 15.448C149.2 15.2453 149.115 15.016 149.115 14.76C149.115 14.4933 149.19 14.2693 149.339 14.088C149.488 13.9173 149.712 13.832 150.011 13.832C150.278 13.832 150.587 13.8747 150.939 13.96C151.302 14.0453 151.728 14.088 152.219 14.088C153.254 14.088 153.984 13.8427 154.411 13.352C154.848 12.872 155.067 12.1787 155.067 11.272C155.067 11.0267 155.051 10.7387 155.019 10.408L155.243 10.488C154.976 11.1707 154.582 11.72 154.059 12.136C153.536 12.5413 152.928 12.744 152.235 12.744ZM152.843 10.776C153.184 10.776 153.526 10.6853 153.867 10.504C154.208 10.3227 154.491 10.024 154.715 9.608C154.939 9.192 155.051 8.632 155.051 7.928C155.051 7.08533 154.854 6.39733 154.459 5.864C154.064 5.33067 153.51 5.064 152.795 5.064C152.176 5.064 151.723 5.29867 151.435 5.768C151.147 6.23733 151.003 6.94667 151.003 7.896C151.003 8.80267 151.147 9.512 151.435 10.024C151.723 10.5253 152.192 10.776 152.843 10.776ZM166.426 12.904C166.138 12.904 165.914 12.808 165.754 12.616C165.605 12.4133 165.503 12.1573 165.45 11.848C165.397 11.528 165.37 11.192 165.37 10.84L165.45 10.776C165.343 11.2347 165.135 11.6293 164.826 11.96C164.517 12.2907 164.159 12.5467 163.754 12.728C163.349 12.8987 162.943 12.984 162.538 12.984C161.994 12.984 161.498 12.856 161.05 12.6C160.602 12.344 160.255 11.9493 160.01 11.416C159.765 10.8507 159.573 10.1413 159.434 9.288C159.295 8.424 159.226 7.53867 159.226 6.632C159.226 6.14133 159.247 5.688 159.29 5.272C159.333 4.856 159.402 4.51467 159.498 4.248C159.583 3.97067 159.711 3.768 159.882 3.64C160.053 3.50133 160.271 3.432 160.538 3.432C160.847 3.432 161.087 3.55467 161.258 3.8C161.439 4.03467 161.551 4.36533 161.594 4.792C161.637 5.144 161.663 5.58133 161.674 6.104C161.695 6.616 161.711 7.13333 161.722 7.656C161.743 8.168 161.77 8.6 161.802 8.952C161.866 9.592 162.031 10.0667 162.298 10.376C162.565 10.6747 162.89 10.824 163.274 10.824C163.839 10.824 164.271 10.6107 164.57 10.184C164.869 9.75733 165.018 9.16 165.018 8.392C165.018 8.008 164.997 7.576 164.954 7.096C164.911 6.60533 164.863 6.13067 164.81 5.672C164.767 5.21333 164.746 4.83467 164.746 4.536C164.746 4.03467 164.831 3.67733 165.002 3.464C165.173 3.24 165.407 3.128 165.706 3.128C165.962 3.128 166.175 3.19733 166.346 3.336C166.527 3.47467 166.671 3.66667 166.778 3.912C166.927 4.232 167.055 4.66933 167.162 5.224C167.269 5.77867 167.354 6.408 167.418 7.112C167.482 7.816 167.514 8.55733 167.514 9.336C167.514 10.5307 167.434 11.4267 167.274 12.024C167.114 12.6107 166.831 12.904 166.426 12.904ZM171.092 3.048C171.434 3.048 171.663 3.18667 171.78 3.464C171.908 3.74133 171.972 4.152 171.972 4.696C171.972 4.824 171.962 4.96267 171.94 5.112C171.93 5.25067 171.908 5.37867 171.876 5.496L171.844 5.176C172.1 4.48267 172.495 3.944 173.028 3.56C173.562 3.16533 174.127 2.968 174.724 2.968C175.386 2.968 175.935 3.15467 176.372 3.528C176.82 3.90133 177.151 4.424 177.364 5.096C177.588 5.768 177.7 6.56267 177.7 7.48C177.7 8.04533 177.674 8.60533 177.62 9.16C177.578 9.704 177.514 10.2053 177.428 10.664C177.354 11.112 177.268 11.48 177.172 11.768C177.044 12.1307 176.879 12.4027 176.676 12.584C176.474 12.7547 176.234 12.84 175.956 12.84C175.679 12.84 175.466 12.7387 175.316 12.536C175.167 12.3333 175.092 12.0613 175.092 11.72C175.092 11.3573 175.119 10.92 175.172 10.408C175.226 9.88533 175.274 9.35733 175.316 8.824C175.37 8.28 175.396 7.78933 175.396 7.352C175.396 5.85867 174.906 5.112 173.924 5.112C173.402 5.112 172.964 5.34667 172.612 5.816C172.26 6.27467 172.026 6.93067 171.908 7.784C171.876 8.072 171.86 8.42933 171.86 8.856C171.86 9.28267 171.86 9.70933 171.86 10.136C171.871 10.552 171.86 10.904 171.828 11.192C171.786 11.832 171.663 12.2907 171.46 12.568C171.268 12.8453 171.002 12.984 170.66 12.984C170.266 12.984 169.967 12.8027 169.764 12.44C169.562 12.0667 169.46 11.4427 169.46 10.568C169.46 10.12 169.471 9.61867 169.492 9.064C169.514 8.50933 169.54 7.95467 169.572 7.4C169.615 6.83467 169.663 6.32267 169.716 5.864C169.823 5 169.978 4.31733 170.18 3.816C170.383 3.304 170.687 3.048 171.092 3.048ZM185.091 13.368C184.419 13.368 183.896 13.3253 183.523 13.24C183.16 13.1547 182.91 13.0373 182.771 12.888C182.632 12.728 182.558 12.552 182.547 12.36C182.547 12.0613 182.723 11.8107 183.075 11.608C183.438 11.4053 184.099 11.2773 185.059 11.224L184.803 11.528C184.686 10.984 184.6 10.3493 184.547 9.624C184.494 8.89867 184.472 8.14667 184.483 7.368C184.494 6.58933 184.531 5.848 184.595 5.144C184.659 4.42933 184.75 3.82133 184.867 3.32L186.259 3.224C186.024 3.32 185.731 3.40533 185.379 3.48C185.027 3.544 184.664 3.576 184.291 3.576C183.608 3.576 183.102 3.50133 182.771 3.352C182.451 3.20267 182.291 2.99467 182.291 2.728C182.291 2.25867 182.574 1.896 183.139 1.64C183.715 1.37333 184.595 1.24 185.779 1.24C187.187 1.24 188.371 1.47467 189.331 1.944C190.302 2.40267 191.038 3.048 191.539 3.88C192.04 4.70133 192.291 5.66133 192.291 6.76C192.291 7.72 192.12 8.60533 191.779 9.416C191.438 10.216 190.947 10.9147 190.307 11.512C189.678 12.0987 188.92 12.5573 188.035 12.888C187.16 13.208 186.179 13.368 185.091 13.368ZM187.363 10.904C187.726 10.904 188.11 10.76 188.515 10.472C188.931 10.1733 189.283 9.74133 189.571 9.176C189.859 8.6 190.003 7.89067 190.003 7.048C190.003 6.42933 189.912 5.89067 189.731 5.432C189.56 4.96267 189.336 4.57333 189.059 4.264C188.782 3.95467 188.488 3.72533 188.179 3.576C187.87 3.416 187.576 3.336 187.299 3.336C187.075 3.336 186.899 3.47467 186.771 3.752C186.654 4.02933 186.568 4.44533 186.515 5C186.462 5.544 186.435 6.22133 186.435 7.032C186.435 8.29067 186.499 9.25067 186.627 9.912C186.755 10.5733 187 10.904 187.363 10.904ZM201.046 13.16C200.683 13.16 200.433 13.0213 200.294 12.744C200.166 12.456 200.091 12.0027 200.07 11.384L200.23 11.464C199.633 12.6267 198.502 13.208 196.838 13.208C196.081 13.208 195.451 13.0747 194.95 12.808C194.449 12.5307 194.075 12.168 193.83 11.72C193.595 11.2613 193.478 10.7653 193.478 10.232C193.478 9.31467 193.798 8.58933 194.438 8.056C195.078 7.512 195.926 7.24 196.982 7.24C197.675 7.24 198.278 7.34133 198.79 7.544C199.302 7.74667 199.739 8.02933 200.102 8.392L199.83 8.36C199.755 7.28267 199.521 6.51467 199.126 6.056C198.742 5.58667 198.193 5.352 197.478 5.352C197.062 5.352 196.678 5.416 196.326 5.544C195.974 5.672 195.649 5.80533 195.35 5.944C195.062 6.072 194.79 6.136 194.534 6.136C194.278 6.136 194.075 6.05067 193.926 5.88C193.787 5.70933 193.718 5.49067 193.718 5.224C193.718 4.84 193.899 4.47733 194.262 4.136C194.635 3.79467 195.126 3.51733 195.734 3.304C196.342 3.09067 197.003 2.984 197.718 2.984C198.582 2.984 199.323 3.192 199.942 3.608C200.561 4.024 201.03 4.632 201.35 5.432C201.627 6.11467 201.825 6.87733 201.942 7.72C202.059 8.56267 202.118 9.464 202.118 10.424C202.118 11.1493 202.081 11.7093 202.006 12.104C201.931 12.4987 201.814 12.776 201.654 12.936C201.505 13.0853 201.302 13.16 201.046 13.16ZM197.51 11.368C197.862 11.368 198.219 11.32 198.582 11.224C198.945 11.1173 199.249 10.9627 199.494 10.76C199.739 10.5573 199.862 10.3067 199.862 10.008C199.862 9.752 199.755 9.544 199.542 9.384C199.339 9.21333 199.067 9.08533 198.726 9C198.395 8.91467 198.038 8.872 197.654 8.872C197.003 8.872 196.507 8.984 196.166 9.208C195.835 9.432 195.67 9.73067 195.67 10.104C195.67 10.5093 195.825 10.824 196.134 11.048C196.454 11.2613 196.913 11.368 197.51 11.368ZM206.289 3.368H205.969C205.937 2.89867 205.948 2.456 206.001 2.04C206.055 1.61333 206.167 1.272 206.337 1.016C206.519 0.749333 206.775 0.615999 207.105 0.615999C207.404 0.615999 207.623 0.711999 207.761 0.903999C207.9 1.096 207.969 1.36267 207.969 1.704C207.969 2.376 207.841 2.952 207.585 3.432L207.297 3.4C207.873 3.19733 208.524 3.096 209.249 3.096C209.708 3.096 210.071 3.18667 210.337 3.368C210.615 3.53867 210.753 3.832 210.753 4.248C210.753 4.64267 210.593 4.94133 210.273 5.144C209.953 5.34667 209.553 5.448 209.073 5.448C208.785 5.448 208.476 5.43733 208.145 5.416C207.825 5.384 207.511 5.336 207.201 5.272L207.473 4.936C207.569 5.34133 207.66 5.80533 207.745 6.328C207.841 6.84 207.927 7.37333 208.001 7.928C208.076 8.48267 208.135 9.02133 208.177 9.544C208.22 10.0667 208.241 10.536 208.241 10.952C208.241 11.6347 208.135 12.1733 207.921 12.568C207.708 12.9627 207.393 13.16 206.977 13.16C206.647 13.16 206.385 13.0587 206.193 12.856C206.012 12.6533 205.879 12.3973 205.793 12.088C205.719 11.768 205.671 11.4373 205.649 11.096C205.639 10.7547 205.633 10.4453 205.633 10.168C205.633 9.69867 205.655 9.17067 205.697 8.584C205.74 7.98667 205.799 7.37333 205.873 6.744C205.959 6.11467 206.055 5.50667 206.161 4.92L206.481 5.192C205.937 5.46933 205.265 5.608 204.465 5.608C203.975 5.608 203.596 5.51733 203.329 5.336C203.063 5.15467 202.929 4.872 202.929 4.488C202.929 4.072 203.079 3.752 203.377 3.528C203.676 3.29333 204.076 3.176 204.577 3.176C204.908 3.176 205.217 3.19733 205.505 3.24C205.804 3.272 206.065 3.31467 206.289 3.368ZM219.046 13.16C218.683 13.16 218.433 13.0213 218.294 12.744C218.166 12.456 218.091 12.0027 218.07 11.384L218.23 11.464C217.633 12.6267 216.502 13.208 214.838 13.208C214.081 13.208 213.451 13.0747 212.95 12.808C212.449 12.5307 212.075 12.168 211.83 11.72C211.595 11.2613 211.478 10.7653 211.478 10.232C211.478 9.31467 211.798 8.58933 212.438 8.056C213.078 7.512 213.926 7.24 214.982 7.24C215.675 7.24 216.278 7.34133 216.79 7.544C217.302 7.74667 217.739 8.02933 218.102 8.392L217.83 8.36C217.755 7.28267 217.521 6.51467 217.126 6.056C216.742 5.58667 216.193 5.352 215.478 5.352C215.062 5.352 214.678 5.416 214.326 5.544C213.974 5.672 213.649 5.80533 213.35 5.944C213.062 6.072 212.79 6.136 212.534 6.136C212.278 6.136 212.075 6.05067 211.926 5.88C211.787 5.70933 211.718 5.49067 211.718 5.224C211.718 4.84 211.899 4.47733 212.262 4.136C212.635 3.79467 213.126 3.51733 213.734 3.304C214.342 3.09067 215.003 2.984 215.718 2.984C216.582 2.984 217.323 3.192 217.942 3.608C218.561 4.024 219.03 4.632 219.35 5.432C219.627 6.11467 219.825 6.87733 219.942 7.72C220.059 8.56267 220.118 9.464 220.118 10.424C220.118 11.1493 220.081 11.7093 220.006 12.104C219.931 12.4987 219.814 12.776 219.654 12.936C219.505 13.0853 219.302 13.16 219.046 13.16ZM215.51 11.368C215.862 11.368 216.219 11.32 216.582 11.224C216.945 11.1173 217.249 10.9627 217.494 10.76C217.739 10.5573 217.862 10.3067 217.862 10.008C217.862 9.752 217.755 9.544 217.542 9.384C217.339 9.21333 217.067 9.08533 216.726 9C216.395 8.91467 216.038 8.872 215.654 8.872C215.003 8.872 214.507 8.984 214.166 9.208C213.835 9.432 213.67 9.73067 213.67 10.104C213.67 10.5093 213.825 10.824 214.134 11.048C214.454 11.2613 214.913 11.368 215.51 11.368ZM222.07 5.784C222.07 4.76 222.166 4.024 222.358 3.576C222.55 3.11733 222.822 2.888 223.174 2.888C223.451 2.888 223.67 3.00533 223.83 3.24C223.99 3.464 224.107 3.74667 224.182 4.088C224.256 4.41867 224.294 4.75467 224.294 5.096L224.214 5.064C224.395 4.488 224.672 3.992 225.046 3.576C225.43 3.16 225.888 2.952 226.422 2.952C227.051 2.952 227.515 3.21333 227.814 3.736C228.112 4.248 228.262 4.888 228.262 5.656C228.262 6.68 228.144 7.39467 227.91 7.8C227.675 8.20533 227.36 8.408 226.966 8.408C226.678 8.408 226.464 8.29067 226.326 8.056C226.198 7.82133 226.155 7.40533 226.198 6.808C226.24 6.17867 226.203 5.74133 226.086 5.496C225.968 5.25067 225.782 5.128 225.526 5.128C225.216 5.128 224.96 5.32533 224.758 5.72C224.566 6.104 224.47 6.57867 224.47 7.144C224.47 7.368 224.496 7.65067 224.55 7.992C224.603 8.33333 224.662 8.70667 224.726 9.112C224.79 9.50667 224.848 9.90133 224.902 10.296C224.955 10.6907 224.982 11.0533 224.982 11.384C224.982 11.9707 224.891 12.392 224.71 12.648C224.528 12.904 224.272 13.032 223.942 13.032C223.568 13.032 223.28 12.9147 223.078 12.68C222.875 12.4347 222.72 12.04 222.614 11.496C222.528 11.0053 222.443 10.424 222.358 9.752C222.272 9.08 222.203 8.392 222.15 7.688C222.096 6.984 222.07 6.34933 222.07 5.784Z"></path>
</svg>
