<svg width="114" height="42" viewBox="0 0 114 42" fill="none" xmlns="http://www.w3.org/2000/svg">
<ellipse cx="57" cy="21" rx="57" ry="21" fill="#8475E3"/>
<path d="M25.8367 26.462C25.6034 26.462 25.4121 26.3967 25.2627 26.266C25.1227 26.1447 25.0527 26.0093 25.0527 25.86C25.0527 25.692 25.0761 25.566 25.1227 25.482C25.1787 25.3887 25.2954 25.3233 25.4727 25.286C25.9114 25.1833 26.3641 25.062 26.8307 24.922C27.3067 24.7727 27.7501 24.6187 28.1607 24.46C28.5714 24.292 28.9027 24.1287 29.1547 23.97C29.4161 23.8113 29.5467 23.6713 29.5467 23.55C29.5467 23.438 29.4441 23.3307 29.2387 23.228C29.0334 23.116 28.7721 22.9947 28.4547 22.864C28.1374 22.7333 27.7967 22.5887 27.4327 22.43C27.0687 22.2713 26.7281 22.0893 26.4107 21.884C26.0934 21.6787 25.8321 21.4453 25.6267 21.184C25.4214 20.9133 25.3187 20.6053 25.3187 20.26C25.3187 19.7187 25.4494 19.2147 25.7107 18.748C25.9814 18.272 26.3314 17.8333 26.7607 17.432C27.1901 17.0307 27.6614 16.662 28.1747 16.326C28.6974 15.9807 29.2107 15.6773 29.7147 15.416C30.2281 15.1453 30.6854 14.9073 31.0867 14.702C31.2174 14.6273 31.3434 14.576 31.4647 14.548C31.5861 14.52 31.6934 14.506 31.7867 14.506C32.0574 14.506 32.2534 14.5667 32.3747 14.688C32.4961 14.8093 32.5567 14.9493 32.5567 15.108C32.5567 15.2387 32.4867 15.3927 32.3467 15.57C32.2067 15.738 32.0061 15.8873 31.7447 16.018C31.4834 16.1487 31.1707 16.214 30.8067 16.214H30.6947C30.3774 16.382 30.0321 16.5827 29.6587 16.816C29.2854 17.0493 28.9167 17.306 28.5527 17.586C28.1887 17.866 27.8527 18.1553 27.5447 18.454C27.2461 18.7433 27.0034 19.0233 26.8167 19.294C26.6394 19.5647 26.5507 19.812 26.5507 20.036C26.5507 20.3067 26.6534 20.5493 26.8587 20.764C27.0641 20.9787 27.3254 21.17 27.6427 21.338C27.9694 21.506 28.3101 21.6693 28.6647 21.828C29.0287 21.9867 29.3694 22.15 29.6867 22.318C30.0134 22.4767 30.2794 22.654 30.4847 22.85C30.6901 23.0367 30.7927 23.256 30.7927 23.508C30.7927 23.7973 30.6901 24.0727 30.4847 24.334C30.2887 24.5953 30.0274 24.838 29.7007 25.062C29.3741 25.2767 29.0147 25.4727 28.6227 25.65C28.2401 25.818 27.8621 25.9627 27.4887 26.084C27.1154 26.2053 26.7794 26.2987 26.4807 26.364C26.1914 26.4293 25.9767 26.462 25.8367 26.462ZM35.2505 26.14C34.6999 26.14 34.2659 25.93 33.9485 25.51C33.6312 25.09 33.4725 24.544 33.4725 23.872C33.4725 23.6293 33.5052 23.3727 33.5705 23.102C33.6452 22.822 33.7385 22.57 33.8505 22.346C33.7852 22.2807 33.7339 22.192 33.6965 22.08C33.6592 21.9587 33.6405 21.8093 33.6405 21.632C33.6405 21.0813 33.7339 20.5773 33.9205 20.12C34.1072 19.6627 34.3545 19.266 34.6625 18.93C34.9705 18.5847 35.3112 18.3187 35.6845 18.132C36.0672 17.9453 36.4545 17.852 36.8465 17.852C37.4905 17.852 38.0132 18.0853 38.4145 18.552C38.8159 19.0093 39.0165 19.7093 39.0165 20.652C39.0165 21.1467 38.9419 21.6507 38.7925 22.164C38.6525 22.6773 38.4565 23.172 38.2045 23.648C37.9619 24.124 37.6772 24.5487 37.3505 24.922C37.0332 25.2953 36.6925 25.594 36.3285 25.818C35.9739 26.0327 35.6145 26.14 35.2505 26.14ZM34.7745 21.87C34.8305 21.9447 34.8585 22.0427 34.8585 22.164C34.8585 22.304 34.8305 22.444 34.7745 22.584C34.7279 22.724 34.6765 22.9153 34.6205 23.158C34.5645 23.4007 34.5365 23.746 34.5365 24.194C34.5365 24.642 34.7139 24.866 35.0685 24.866C35.4605 24.866 35.8245 24.712 36.1605 24.404C36.4965 24.0867 36.7952 23.6807 37.0565 23.186C37.3179 22.6913 37.5185 22.164 37.6585 21.604C37.8079 21.0347 37.8825 20.498 37.8825 19.994C37.8825 19.6673 37.8219 19.4387 37.7005 19.308C37.5792 19.168 37.3599 19.098 37.0425 19.098C36.7159 19.098 36.3752 19.21 36.0205 19.434C35.6752 19.6487 35.3859 19.9427 35.1525 20.316C34.9192 20.6893 34.8025 21.1093 34.8025 21.576C34.8025 21.6787 34.7932 21.7767 34.7745 21.87ZM45.0092 26.336C44.8505 26.336 44.7152 26.266 44.6032 26.126C44.4912 25.986 44.4352 25.7807 44.4352 25.51C44.4352 25.1927 44.4818 24.74 44.5752 24.152C44.6778 23.564 44.8272 22.7847 45.0232 21.814C44.7712 22.4113 44.4912 22.976 44.1832 23.508C43.8845 24.04 43.5672 24.474 43.2312 24.81C42.8952 25.146 42.5498 25.314 42.1952 25.314C41.8498 25.314 41.5418 25.1787 41.2712 24.908C41.0098 24.6373 40.8792 24.1613 40.8792 23.48C40.8792 23.0973 40.9118 22.668 40.9772 22.192C41.0425 21.7067 41.1265 21.226 41.2292 20.75C41.3318 20.274 41.4345 19.8493 41.5372 19.476C41.6398 19.0933 41.7332 18.8133 41.8172 18.636C41.8825 18.4867 41.9478 18.3887 42.0132 18.342C42.0785 18.286 42.1672 18.258 42.2792 18.258C42.4098 18.258 42.5498 18.314 42.6992 18.426C42.8485 18.538 42.9232 18.7247 42.9232 18.986C42.9232 19.0513 42.8905 19.2053 42.8252 19.448C42.7692 19.6813 42.6945 19.9707 42.6012 20.316C42.5172 20.652 42.4285 21.016 42.3352 21.408C42.2418 21.8 42.1625 22.192 42.0972 22.584C42.0412 22.976 42.0132 23.3353 42.0132 23.662C42.0132 23.8393 42.0318 23.984 42.0692 24.096C42.1065 24.208 42.1998 24.264 42.3492 24.264C42.4798 24.264 42.6432 24.1333 42.8392 23.872C43.0445 23.6107 43.2638 23.2653 43.4972 22.836C43.7398 22.3973 43.9872 21.912 44.2392 21.38C44.5005 20.848 44.7525 20.302 44.9952 19.742C45.2472 19.182 45.4758 18.65 45.6812 18.146C45.7558 17.978 45.8352 17.8753 45.9192 17.838C46.0032 17.7913 46.0965 17.768 46.1992 17.768C46.3672 17.768 46.5165 17.838 46.6472 17.978C46.7872 18.1087 46.8572 18.2813 46.8572 18.496C46.8572 18.636 46.8292 18.8787 46.7732 19.224C46.7265 19.5693 46.6565 19.9753 46.5632 20.442C46.4792 20.8993 46.3812 21.3847 46.2692 21.898C46.1665 22.4113 46.0638 22.92 45.9612 23.424C45.8585 23.9187 45.7605 24.3713 45.6672 24.782C45.5832 25.1927 45.5132 25.524 45.4572 25.776C45.4105 26.0093 45.3452 26.1587 45.2612 26.224C45.1865 26.2987 45.1025 26.336 45.0092 26.336ZM49.7393 25.678C49.4687 25.678 49.226 25.524 49.0113 25.216C48.7967 24.908 48.6893 24.5113 48.6893 24.026C48.6893 23.494 48.7593 22.9247 48.8993 22.318C49.0487 21.7113 49.2307 21.0953 49.4453 20.47C49.66 19.8353 49.87 19.224 50.0753 18.636C50.122 18.5147 50.1873 18.426 50.2713 18.37C50.3647 18.3047 50.5047 18.272 50.6913 18.272C51.0273 18.272 51.1953 18.4353 51.1953 18.762C51.1953 18.8367 51.158 19.0047 51.0833 19.266C51.0087 19.5273 50.9107 19.8493 50.7893 20.232C50.6773 20.6147 50.5607 21.03 50.4393 21.478C50.318 21.9167 50.2107 22.36 50.1173 22.808C50.024 23.256 49.9587 23.6713 49.9213 24.054C50.0707 23.8953 50.2387 23.6527 50.4253 23.326C50.6213 22.9993 50.8313 22.6307 51.0553 22.22C51.2793 21.8 51.5127 21.38 51.7553 20.96C51.998 20.5307 52.2407 20.1387 52.4833 19.784C52.7353 19.42 52.978 19.1307 53.2113 18.916C53.454 18.692 53.678 18.58 53.8833 18.58C54.182 18.58 54.434 18.6733 54.6393 18.86C54.854 19.0373 55.0173 19.3547 55.1293 19.812C55.2507 20.26 55.3113 20.8947 55.3113 21.716C55.3113 22.1547 55.3533 22.5653 55.4373 22.948C55.5307 23.3307 55.6753 23.6387 55.8713 23.872C56.0767 24.096 56.338 24.208 56.6553 24.208C57.1313 24.208 57.556 24.124 57.9293 23.956C58.3027 23.7787 58.6247 23.5827 58.8953 23.368C59.1753 23.144 59.4087 22.948 59.5953 22.78C59.782 22.6027 59.9267 22.514 60.0293 22.514C60.244 22.514 60.3513 22.626 60.3513 22.85C60.3513 22.9433 60.2813 23.0927 60.1413 23.298C60.0107 23.494 59.824 23.718 59.5813 23.97C59.348 24.2127 59.0773 24.4507 58.7693 24.684C58.4707 24.908 58.1487 25.0947 57.8033 25.244C57.4673 25.3933 57.1267 25.468 56.7813 25.468C56.1373 25.468 55.61 25.342 55.1993 25.09C54.798 24.838 54.4993 24.4227 54.3033 23.844C54.1167 23.2653 54.0233 22.4907 54.0233 21.52C54.0233 20.988 53.9907 20.6007 53.9253 20.358C53.8693 20.106 53.762 19.938 53.6033 19.854C53.4913 20.05 53.3467 20.33 53.1693 20.694C52.992 21.0487 52.7867 21.4453 52.5533 21.884C52.3293 22.3227 52.0913 22.766 51.8393 23.214C51.5967 23.6527 51.3493 24.0587 51.0973 24.432C50.8453 24.8053 50.6027 25.1087 50.3693 25.342C50.136 25.566 49.926 25.678 49.7393 25.678ZM64.8417 18.958C65.0937 18.3513 65.3317 17.726 65.5557 17.082C65.789 16.438 65.999 15.78 66.1857 15.108C66.2417 14.9213 66.3257 14.772 66.4377 14.66C66.559 14.5387 66.699 14.478 66.8577 14.478C66.9697 14.478 67.063 14.52 67.1377 14.604C67.2217 14.688 67.2637 14.8 67.2637 14.94C67.2637 15.1173 67.1937 15.4253 67.0537 15.864C66.923 16.3027 66.755 16.858 66.5497 17.53C66.3537 18.202 66.153 18.9767 65.9477 19.854C65.7517 20.722 65.5837 21.6833 65.4437 22.738C65.313 23.7927 65.2477 24.9173 65.2477 26.112C65.2477 26.3733 65.1917 26.588 65.0797 26.756C64.9677 26.9333 64.8324 27.022 64.6737 27.022C64.5804 27.022 64.4917 26.9987 64.4077 26.952C64.3237 26.9053 64.249 26.7933 64.1837 26.616C64.1277 26.448 64.081 26.182 64.0437 25.818C64.0064 25.4447 63.9877 24.9407 63.9877 24.306C63.9877 23.8207 64.0157 23.2933 64.0717 22.724C63.6424 23.4987 63.1757 24.1753 62.6717 24.754C62.177 25.3233 61.6964 25.762 61.2297 26.07C60.7724 26.378 60.3804 26.532 60.0537 26.532C59.6524 26.532 59.3257 26.3967 59.0737 26.126C58.831 25.8647 58.7097 25.4727 58.7097 24.95C58.7097 24.4927 58.817 24.0213 59.0317 23.536C59.2464 23.0507 59.531 22.5747 59.8857 22.108C60.2404 21.632 60.6324 21.184 61.0617 20.764C61.491 20.344 61.9204 19.9753 62.3497 19.658C62.7884 19.3313 63.1944 19.0793 63.5677 18.902C63.941 18.7153 64.2444 18.622 64.4777 18.622C64.571 18.622 64.655 18.6547 64.7297 18.72C64.8044 18.7853 64.8417 18.8647 64.8417 18.958ZM64.6597 19.392C64.5944 19.4573 64.515 19.5227 64.4217 19.588C64.3284 19.6533 64.2257 19.7233 64.1137 19.798C63.703 20.0873 63.2504 20.4233 62.7557 20.806C62.2704 21.1793 61.8037 21.59 61.3557 22.038C60.917 22.4767 60.5577 22.9387 60.2777 23.424C59.9977 23.9093 59.8577 24.4087 59.8577 24.922C59.8577 25.146 59.9697 25.258 60.1937 25.258C60.5017 25.258 60.8377 25.1133 61.2017 24.824C61.575 24.5253 61.9577 24.1147 62.3497 23.592C62.7417 23.06 63.1337 22.4393 63.5257 21.73C63.9177 21.0113 64.2957 20.232 64.6597 19.392ZM70.5875 20.554C70.1862 20.554 69.9015 20.4793 69.7335 20.33C69.5655 20.1807 69.4815 19.9753 69.4815 19.714C69.4815 19.4153 69.5468 19.1773 69.6775 19C69.8082 18.8227 69.9668 18.692 70.1535 18.608C70.3402 18.524 70.5222 18.482 70.6995 18.482C70.9422 18.482 71.1662 18.5567 71.3715 18.706C71.5768 18.846 71.6795 19.126 71.6795 19.546C71.6795 19.8447 71.5862 20.0873 71.3995 20.274C71.2128 20.4607 70.9422 20.554 70.5875 20.554ZM69.2715 26.434C69.0382 26.434 68.8282 26.3313 68.6415 26.126C68.4642 25.93 68.3755 25.692 68.3755 25.412C68.3755 25.188 68.4408 25.006 68.5715 24.866C68.7022 24.726 68.8608 24.6233 69.0475 24.558C69.2342 24.4833 69.4115 24.446 69.5795 24.446C69.7942 24.446 69.9948 24.5067 70.1815 24.628C70.3682 24.7493 70.4615 24.9687 70.4615 25.286C70.4615 25.4727 70.4055 25.6547 70.2935 25.832C70.1908 26.0093 70.0462 26.154 69.8595 26.266C69.6822 26.378 69.4862 26.434 69.2715 26.434ZM77.9576 26.252C77.2856 26.252 76.693 26.0653 76.1796 25.692C75.6756 25.3187 75.279 24.8053 74.9896 24.152C74.7096 23.4987 74.5696 22.752 74.5696 21.912C74.5696 21.4733 74.635 21.044 74.7656 20.624C74.9056 20.1947 75.0783 19.7933 75.2836 19.42C75.489 19.0373 75.699 18.6967 75.9136 18.398C75.839 18.286 75.8016 18.1133 75.8016 17.88C75.8016 17.6467 75.8996 17.3853 76.0956 17.096C76.2916 16.8067 76.5623 16.5267 76.9076 16.256C77.253 15.9853 77.6543 15.7613 78.1116 15.584C78.569 15.4067 79.0543 15.318 79.5676 15.318C80.417 15.318 81.1356 15.5 81.7236 15.864C82.3116 16.228 82.755 16.7087 83.0536 17.306C83.3616 17.894 83.5156 18.538 83.5156 19.238C83.5156 20.246 83.357 21.1747 83.0396 22.024C82.7223 22.8733 82.293 23.6153 81.7516 24.25C81.2196 24.8847 80.6223 25.3793 79.9596 25.734C79.3063 26.0793 78.639 26.252 77.9576 26.252ZM77.7476 17.25C77.785 17.2967 77.8036 17.3433 77.8036 17.39C77.8036 17.4553 77.7803 17.5207 77.7336 17.586C77.6963 17.6513 77.6496 17.726 77.5936 17.81C77.4163 18.034 77.225 18.328 77.0196 18.692C76.8236 19.056 76.637 19.4573 76.4596 19.896C76.2916 20.3347 76.1516 20.7873 76.0396 21.254C75.9276 21.7113 75.8716 22.15 75.8716 22.57C75.8716 23.2887 76.035 23.872 76.3616 24.32C76.6883 24.7587 77.1736 24.978 77.8176 24.978C78.303 24.978 78.765 24.8613 79.2036 24.628C79.6516 24.3947 80.0576 24.082 80.4216 23.69C80.795 23.2887 81.117 22.8453 81.3876 22.36C81.6583 21.8653 81.8683 21.3567 82.0176 20.834C82.167 20.3113 82.2416 19.812 82.2416 19.336C82.2416 18.8413 82.1436 18.3793 81.9476 17.95C81.7516 17.5207 81.467 17.1753 81.0936 16.914C80.7203 16.6527 80.2676 16.522 79.7356 16.522C79.2876 16.522 78.9003 16.5967 78.5736 16.746C78.2563 16.886 77.981 17.054 77.7476 17.25ZM87.1592 25.678C86.8886 25.678 86.6459 25.524 86.4312 25.216C86.2166 24.908 86.1092 24.5113 86.1092 24.026C86.1092 23.494 86.1792 22.9247 86.3192 22.318C86.4686 21.7113 86.6506 21.0953 86.8652 20.47C87.0799 19.8353 87.2899 19.224 87.4952 18.636C87.5419 18.5147 87.6072 18.426 87.6912 18.37C87.7846 18.3047 87.9246 18.272 88.1112 18.272C88.4472 18.272 88.6152 18.4353 88.6152 18.762C88.6152 18.8367 88.5779 19.0047 88.5032 19.266C88.4286 19.5273 88.3306 19.8493 88.2092 20.232C88.0972 20.6147 87.9806 21.03 87.8592 21.478C87.7379 21.9167 87.6306 22.36 87.5372 22.808C87.4439 23.256 87.3786 23.6713 87.3412 24.054C87.4906 23.8953 87.6586 23.6527 87.8452 23.326C88.0412 22.9993 88.2512 22.6307 88.4752 22.22C88.6992 21.8 88.9326 21.38 89.1752 20.96C89.4179 20.5307 89.6606 20.1387 89.9032 19.784C90.1552 19.42 90.3979 19.1307 90.6312 18.916C90.8739 18.692 91.0979 18.58 91.3032 18.58C91.6019 18.58 91.8539 18.6733 92.0592 18.86C92.2739 19.0373 92.4372 19.3547 92.5492 19.812C92.6706 20.26 92.7312 20.8947 92.7312 21.716C92.7312 22.1547 92.7732 22.5653 92.8572 22.948C92.9506 23.3307 93.0952 23.6387 93.2912 23.872C93.4966 24.096 93.7579 24.208 94.0752 24.208C94.5512 24.208 94.9759 24.124 95.3492 23.956C95.7226 23.7787 96.0446 23.5827 96.3152 23.368C96.5952 23.144 96.8286 22.948 97.0152 22.78C97.2019 22.6027 97.3466 22.514 97.4492 22.514C97.6639 22.514 97.7712 22.626 97.7712 22.85C97.7712 22.9433 97.7012 23.0927 97.5612 23.298C97.4306 23.494 97.2439 23.718 97.0012 23.97C96.7679 24.2127 96.4972 24.4507 96.1892 24.684C95.8906 24.908 95.5686 25.0947 95.2232 25.244C94.8872 25.3933 94.5466 25.468 94.2012 25.468C93.5572 25.468 93.0299 25.342 92.6192 25.09C92.2179 24.838 91.9192 24.4227 91.7232 23.844C91.5366 23.2653 91.4432 22.4907 91.4432 21.52C91.4432 20.988 91.4106 20.6007 91.3452 20.358C91.2892 20.106 91.1819 19.938 91.0232 19.854C90.9112 20.05 90.7666 20.33 90.5892 20.694C90.4119 21.0487 90.2066 21.4453 89.9732 21.884C89.7492 22.3227 89.5112 22.766 89.2592 23.214C89.0166 23.6527 88.7692 24.0587 88.5172 24.432C88.2652 24.8053 88.0226 25.1087 87.7892 25.342C87.5559 25.566 87.3459 25.678 87.1592 25.678Z" fill="black"/>
</svg>
