<svg version="1.1" xmlns="http://www.w3.org/2000/svg" xmlns:xlink="http://www.w3.org/1999/xlink" width="39.59885" height="39.91928" viewBox="0,0,39.59885,39.91928"><g transform="translate(-220.19846,-160.04194)"><g data-paper-data="{&quot;isPaintingLayer&quot;:true}" fill-rule="nonzero" stroke-linejoin="miter" stroke-miterlimit="10" stroke-dasharray="" stroke-dashoffset="0" style="mix-blend-mode: normal"><path d="M222.51216,197.68521v-35.50385h34.97571v35.50385z" fill="#f4f4f4" stroke="#000000" stroke-width="1" stroke-linecap="butt"/><path d="M239.44777,180.05918c0,-0.27813 0.21978,-0.5036 0.49088,-0.5036c0.27111,0 0.49088,0.22547 0.49088,0.5036c0,0.27813 -0.21978,0.5036 -0.49088,0.5036c-0.27111,0 -0.49088,-0.22547 -0.49088,-0.5036z" fill="#252525" stroke="none" stroke-width="1" stroke-linecap="butt"/><path d="M248.58956,164.44907v-0.5605h0.95183v2.5734h-0.61164v-2.01289z" fill="#000000" stroke="none" stroke-width="1" stroke-linecap="butt"/><path d="M253.81775,172.90351c0.07793,-0.06346 0.1134,-0.09282 0.10652,-0.08812c0.22446,-0.19036 0.40093,-0.34664 0.52918,-0.46886c0.13058,-0.12221 0.24053,-0.25028 0.32988,-0.38424c0.08934,-0.13396 0.13401,-0.26439 0.13401,-0.3913c0,-0.09635 -0.02172,-0.17156 -0.06529,-0.22562c-0.04356,-0.05405 -0.10885,-0.08108 -0.19587,-0.08108c-0.08701,0 -0.15574,0.03408 -0.20618,0.10224c-0.04811,0.06581 -0.07216,0.1598 -0.07216,0.28202h-0.56698c0.00454,-0.19976 0.04577,-0.36662 0.1237,-0.50058c0.08014,-0.13396 0.18445,-0.23266 0.3127,-0.29612c0.13058,-0.06346 0.2749,-0.09518 0.43297,-0.09518c0.27256,0 0.47763,0.07168 0.61509,0.21504c0.13978,0.14336 0.20961,0.3302 0.20961,0.5605c0,0.25146 -0.08357,0.4853 -0.25084,0.70152c-0.16727,0.21386 -0.38032,0.42302 -0.63913,0.62748h0.92778v0.49h-1.72497z" fill="#000000" stroke="none" stroke-width="1" stroke-linecap="butt"/><path d="M253.80021,179.09328c0.00921,-0.25142 0.08934,-0.44531 0.24053,-0.58166c0.15119,-0.13635 0.35626,-0.20446 0.61509,-0.20446c0.17181,0 0.31846,0.03059 0.43983,0.09166c0.1237,0.06106 0.21648,0.14454 0.27833,0.25028c0.06418,0.10576 0.09621,0.22448 0.09621,0.35604c0,0.1551 -0.0378,0.28202 -0.1134,0.38072c-0.0756,0.09631 -0.16371,0.16216 -0.26459,0.19742v0.0141c0.13058,0.04469 0.23367,0.11873 0.30925,0.22208c0.0756,0.10336 0.1134,0.23618 0.1134,0.39834c0,0.14567 -0.03313,0.27496 -0.09966,0.38778c-0.06407,0.11041 -0.15917,0.19742 -0.28521,0.26086c-0.1237,0.06346 -0.27147,0.09518 -0.44328,0.09518c-0.2749,0 -0.49481,-0.06937 -0.65975,-0.20798c-0.1626,-0.13862 -0.24852,-0.34786 -0.25771,-0.62748h0.57041c0.00233,0.10336 0.03092,0.1857 0.0859,0.24676c0.05498,0.05879 0.13524,0.08812 0.24053,0.08812c0.08934,0 0.15807,-0.02581 0.20618,-0.07756c0.05044,-0.05401 0.0756,-0.12451 0.0756,-0.21152c0,-0.1128 -0.03547,-0.19388 -0.10652,-0.24324c-0.06872,-0.05175 -0.17978,-0.07756 -0.33331,-0.07756h-0.10996v-0.49h0.10996c0.11683,0 0.21083,-0.02002 0.28177,-0.05992c0.07339,-0.0423 0.10996,-0.11634 0.10996,-0.22208c0,-0.0846 -0.02282,-0.15045 -0.06872,-0.19742c-0.04577,-0.04696 -0.10873,-0.0705 -0.18899,-0.0705c-0.08701,0 -0.15229,0.02707 -0.19587,0.08108c-0.04123,0.05401 -0.06529,0.12099 -0.07216,0.20094z" fill="#000000" stroke="none" stroke-width="1" stroke-linecap="butt"/><path d="M253.67085,188.03621v-0.48648l1.08584,-1.59339h0.65632v1.55814h0.28177v0.52173h-0.28177v0.45828h-0.58759v-0.45828zM254.86666,186.61909l-0.57729,0.8954h0.57729z" fill="#000000" stroke="none" stroke-width="1" stroke-linecap="butt"/><path d="M249.94624,194.00036h-1.0721v0.48648c0.04577,-0.05175 0.10996,-0.09405 0.19243,-0.1269c0.08247,-0.03286 0.17181,-0.04936 0.26802,-0.04936c0.17181,0 0.3138,0.03991 0.42609,0.11986c0.1145,0.07995 0.19808,0.18332 0.25084,0.31022c0.05265,0.1269 0.07903,0.26439 0.07903,0.41244c0,0.27496 -0.0756,0.49352 -0.22679,0.65568c-0.15119,0.15977 -0.36424,0.23972 -0.63913,0.23972c-0.18334,0 -0.34252,-0.03172 -0.47763,-0.09518c-0.13524,-0.06585 -0.23943,-0.15624 -0.3127,-0.27144c-0.07339,-0.1152 -0.1134,-0.2479 -0.12027,-0.39834h0.57384c0.01374,0.0729 0.04688,0.13396 0.09966,0.18332c0.05265,0.04696 0.1248,0.0705 0.21648,0.0705c0.10763,0 0.18777,-0.03526 0.24053,-0.10576c0.05265,-0.0705 0.07903,-0.16455 0.07903,-0.28202c0,-0.1152 -0.02749,-0.20333 -0.08247,-0.26439c-0.05498,-0.06106 -0.13524,-0.09166 -0.24053,-0.09166c-0.07793,0 -0.14211,0.02002 -0.19243,0.05992c-0.05044,0.03765 -0.0837,0.08812 -0.09966,0.15158h-0.56698v-1.53346h1.60471z" fill="#000000" stroke="none" stroke-width="1" stroke-linecap="butt"/><path d="M240.23982,194.16956c-0.01828,-0.087 -0.05044,-0.15158 -0.09621,-0.19388c-0.04577,-0.04469 -0.11106,-0.06698 -0.19587,-0.06698c-0.13058,0 -0.22446,0.05879 -0.28177,0.17626c-0.05731,0.1152 -0.08701,0.29851 -0.08934,0.54994c0.05044,-0.08221 0.12259,-0.14693 0.21648,-0.19388c0.09621,-0.04696 0.20163,-0.0705 0.31613,-0.0705c0.22446,0 0.40437,0.0729 0.53949,0.21856c0.13744,0.14567 0.20618,0.349 0.20618,0.60986c0,0.1716 -0.03437,0.32193 -0.10309,0.45122c-0.06639,0.1293 -0.16493,0.23027 -0.29551,0.30316c-0.12825,0.0729 -0.28066,0.10928 -0.45702,0.10928c-0.35283,0 -0.5979,-0.1128 -0.73535,-0.33842c-0.13744,-0.22801 -0.20618,-0.55459 -0.20618,-0.98c0,-0.44657 0.07216,-0.77793 0.21648,-0.9941c0.14665,-0.21856 0.38032,-0.32784 0.70099,-0.32784c0.17181,0 0.31613,0.03526 0.43297,0.10576c0.11916,0.06811 0.20851,0.15864 0.26802,0.27144c0.06186,0.1128 0.09855,0.23618 0.10996,0.37014zM239.96835,194.84641c-0.09855,0 -0.18102,0.03059 -0.24741,0.09166c-0.06418,0.05879 -0.09621,0.1434 -0.09621,0.25382c0,0.1128 0.02982,0.20094 0.08934,0.26439c0.06186,0.06346 0.14886,0.09518 0.26115,0.09518c0.10075,0 0.17978,-0.03059 0.2371,-0.09166c0.05952,-0.06346 0.08934,-0.14919 0.08934,-0.25734c0,-0.11041 -0.02859,-0.19742 -0.0859,-0.26086c-0.05731,-0.06346 -0.13978,-0.09518 -0.24741,-0.09518z" fill="#000000" stroke="none" stroke-width="1" stroke-linecap="butt"/><path d="M231.57096,193.92632l-0.86249,2.12217h-0.60133l0.8728,-2.05519h-1.06866v-0.51468h1.65968z" fill="#000000" stroke="none" stroke-width="1" stroke-linecap="butt"/><path d="M225.27854,187.11261c-0.21534,-0.11747 -0.323,-0.30203 -0.323,-0.55346c0,-0.1269 0.03207,-0.24211 0.09621,-0.34547c0.06413,-0.10576 0.1615,-0.18923 0.29208,-0.25028c0.13058,-0.06346 0.29093,-0.09518 0.48107,-0.09518c0.19014,0 0.34934,0.03172 0.47763,0.09518c0.13058,0.06106 0.22794,0.14454 0.29208,0.25028c0.06413,0.10336 0.09621,0.21856 0.09621,0.34547c0,0.1269 -0.02978,0.23732 -0.08934,0.33136c-0.05727,0.09405 -0.13517,0.16808 -0.23367,0.22208c0.1237,0.06106 0.21876,0.14567 0.28521,0.25382c0.06643,0.10576 0.09966,0.23027 0.09966,0.37368c0,0.16682 -0.04123,0.31135 -0.1237,0.4336c-0.08247,0.11986 -0.19472,0.21152 -0.33674,0.27496c-0.13974,0.06346 -0.29551,0.09518 -0.46732,0.09518c-0.17181,0 -0.32874,-0.03172 -0.47077,-0.09518c-0.13974,-0.06346 -0.25084,-0.1551 -0.33331,-0.27496c-0.08247,-0.12225 -0.1237,-0.26678 -0.1237,-0.4336c0,-0.14567 0.03321,-0.27144 0.09966,-0.3772c0.06643,-0.10815 0.16035,-0.19149 0.28177,-0.25028zM226.12042,186.65081c0,-0.09631 -0.02749,-0.17034 -0.08247,-0.22208c-0.05269,-0.05401 -0.1237,-0.08108 -0.21304,-0.08108c-0.08934,0 -0.1615,0.02707 -0.21648,0.08108c-0.05269,0.05401 -0.07903,0.1293 -0.07903,0.22562c0,0.09166 0.02749,0.16455 0.08247,0.21856c0.05498,0.05175 0.12599,0.07756 0.21304,0.07756c0.08705,0 0.15807,-0.02707 0.21304,-0.08108c0.05498,-0.05401 0.08247,-0.1269 0.08247,-0.21856zM225.82491,187.37347c-0.10768,0 -0.19472,0.03059 -0.26115,0.09166c-0.06644,0.05879 -0.09966,0.141 -0.09966,0.24676c0,0.0987 0.03207,0.17978 0.09621,0.24324c0.06643,0.06346 0.15463,0.09518 0.26459,0.09518c0.10996,0 0.19587,-0.03172 0.25771,-0.09518c0.06413,-0.06346 0.09621,-0.14454 0.09621,-0.24324c0,-0.10336 -0.03322,-0.1857 -0.09966,-0.24676c-0.06415,-0.06106 -0.14891,-0.09166 -0.25428,-0.09166z" fill="#000000" stroke="none" stroke-width="1" stroke-linecap="butt"/><path d="M225.5555,180.18608c0.03437,0.1857 0.13974,0.2785 0.31613,0.2785c0.12143,0 0.20733,-0.05527 0.25771,-0.16568c0.05041,-0.11041 0.0756,-0.2902 0.0756,-0.53936c-0.05039,0.0729 -0.11912,0.1293 -0.20618,0.1692c-0.08705,0.03991 -0.18441,0.05992 -0.29208,0.05992c-0.14661,0 -0.27718,-0.03059 -0.39173,-0.09166c-0.11454,-0.06346 -0.20502,-0.15624 -0.27147,-0.2785c-0.06413,-0.12451 -0.09621,-0.27496 -0.09621,-0.45122c0,-0.17387 0.03437,-0.32545 0.10309,-0.45476c0.07102,-0.1293 0.17067,-0.22914 0.29895,-0.29964c0.13058,-0.0705 0.28406,-0.10576 0.46045,-0.10576c0.33904,0 0.57614,0.10815 0.7113,0.32432c0.13517,0.21617 0.20273,0.5347 0.20273,0.95533c0,0.30556 -0.02749,0.55812 -0.08247,0.75792c-0.05268,0.19742 -0.14316,0.34786 -0.27147,0.45122c-0.12599,0.10336 -0.29895,0.1551 -0.51887,0.1551c-0.1741,0 -0.323,-0.03526 -0.44671,-0.10576c-0.1214,-0.0705 -0.21533,-0.16329 -0.28177,-0.2785c-0.06413,-0.1152 -0.10079,-0.24211 -0.10996,-0.38072zM225.84071,179.51278c0.09621,0 0.17297,-0.02933 0.23022,-0.08812c0.05727,-0.06106 0.0859,-0.1434 0.0859,-0.24676c0,-0.1128 -0.02977,-0.19981 -0.08934,-0.26086c-0.05956,-0.06106 -0.13973,-0.09166 -0.24053,-0.09166c-0.10079,0 -0.18096,0.03172 -0.24053,0.09518c-0.05726,0.06106 -0.0859,0.14567 -0.0859,0.25382c0,0.1011 0.02865,0.18332 0.0859,0.24676c0.05957,0.06106 0.14432,0.09166 0.25428,0.09166z" fill="#000000" stroke="none" stroke-width="1" stroke-linecap="butt"/><path d="M224.51983,171.37357v-0.5605h0.95183v2.5734h-0.61164v-2.01289zM225.87362,172.06451c0,-0.40423 0.0756,-0.72266 0.22679,-0.95533c0.15347,-0.23266 0.39975,-0.349 0.73879,-0.349c0.33903,0 0.58415,0.11634 0.73535,0.349c0.15347,0.23266 0.23022,0.5511 0.23022,0.95533c0,0.40892 -0.07675,0.72972 -0.23022,0.96238c-0.15119,0.23266 -0.39631,0.349 -0.73535,0.349c-0.33904,0 -0.58531,-0.11634 -0.73879,-0.349c-0.15119,-0.23266 -0.22679,-0.55346 -0.22679,-0.96238zM227.22749,172.06451c0,-0.23736 -0.0252,-0.4195 -0.0756,-0.5464c-0.05041,-0.12926 -0.15463,-0.19388 -0.3127,-0.19388c-0.15807,0 -0.2623,0.06462 -0.3127,0.19388c-0.05041,0.1269 -0.0756,0.30904 -0.0756,0.5464c0,0.1598 0.00915,0.2926 0.02749,0.39834c0.01833,0.1034 0.05498,0.18801 0.10996,0.25382c0.05726,0.06346 0.14089,0.09518 0.25084,0.09518c0.10996,0 0.19243,-0.03172 0.24741,-0.09518c0.05726,-0.06581 0.09506,-0.15042 0.1134,-0.25382c0.01833,-0.10576 0.02749,-0.23854 0.02749,-0.39834z" fill="#000000" stroke="none" stroke-width="1" stroke-linecap="butt" opacity="0.8"/><path d="M229.53537,164.44907v-0.5605h0.95183v2.5734h-0.61164v-2.01289zM230.8273,164.44907v-0.5605h0.95183v2.5734h-0.61164v-2.01289z" fill="#000000" stroke="none" stroke-width="1" stroke-linecap="butt"/><path d="M238.64934,164.44907v-0.5605h0.95183v2.5734h-0.61164v-2.01289zM239.98259,165.979c0.07781,-0.06346 0.1134,-0.09282 0.10652,-0.08812c0.22446,-0.19036 0.40081,-0.34664 0.52918,-0.46886c0.13058,-0.12221 0.24053,-0.25028 0.32988,-0.38424c0.08934,-0.13396 0.13401,-0.26439 0.13401,-0.3913c0,-0.09635 -0.02185,-0.17156 -0.06529,-0.22562c-0.04356,-0.05405 -0.10885,-0.08108 -0.19587,-0.08108c-0.08713,0 -0.15586,0.03408 -0.20618,0.10224c-0.04811,0.06581 -0.07216,0.1598 -0.07216,0.28202h-0.56698c0.00454,-0.19976 0.04577,-0.36662 0.1237,-0.50058c0.08014,-0.13396 0.18433,-0.23266 0.3127,-0.29612c0.13058,-0.06346 0.2749,-0.09518 0.43297,-0.09518c0.27256,0 0.47763,0.07168 0.61509,0.21504c0.13965,0.14336 0.20961,0.3302 0.20961,0.5605c0,0.25146 -0.0837,0.4853 -0.25084,0.70152c-0.16727,0.21386 -0.38032,0.42302 -0.63913,0.62748h0.92778v0.49h-1.72497z" fill="#000000" stroke="none" stroke-width="1" stroke-linecap="butt"/><path d="M239.87729,171.24616v8.68712" fill="none" stroke="#252525" stroke-width="1" stroke-linecap="butt"/><path d="M239.93804,180.12213l13.25396,-0.1259" fill="none" stroke="#252525" stroke-width="1" stroke-linecap="butt"/><path d="M239.62216,180.34498l-9.20415,14.73032" fill="none" stroke="#db6c6c" stroke-width="1" stroke-linecap="butt"/><path d="M259.04561,198.91637l-38.09122,0.28909l0.29958,-38.2789l37.7049,-0.132z" fill="none" stroke="#00ff08" stroke-width="1.5" stroke-linecap="round"/><path d="M228.58733,197.57911l-5.94525,0.082l-0.08172,-6.23476" fill="#62b073" stroke="#ffffff" stroke-width="0.5" stroke-linecap="round"/><path d="M222.47842,168.40922l-0.00222,-6.09978l6.07791,-0.00233" fill="#62b073" stroke="#ffffff" stroke-width="0.5" stroke-linecap="round"/><path d="M251.37693,162.21755l5.94464,0.11981l-0.11938,6.23412" fill="#62b073" stroke="#ffffff" stroke-width="0.5" stroke-linecap="round"/><path d="M257.44261,191.69351l-0.04539,6.0996l-6.07773,-0.04758" fill="#62b073" stroke="#ffffff" stroke-width="0.5" stroke-linecap="round"/></g></g></svg>