<svg width="25" height="25" viewBox="0 0 25 25" fill="none" xmlns="http://www.w3.org/2000/svg">
<circle cx="12.5" cy="12.5" r="12" fill="#63A1C1" stroke="black"/>
<path d="M12.072 17.06C11.576 17.06 11.164 16.968 10.836 16.784C10.516 16.592 10.276 16.3 10.116 15.908C10.004 15.636 9.92 15.308 9.864 14.924C9.816 14.532 9.792 14.084 9.792 13.58C9.792 12.716 9.82 12.004 9.876 11.444C9.932 10.876 10.012 10.42 10.116 10.076C10.228 9.724 10.352 9.44 10.488 9.224C10.704 8.896 11.048 8.632 11.52 8.432C11.992 8.232 12.66 8.132 13.524 8.132C14.1 8.132 14.56 8.22 14.904 8.396C15.256 8.564 15.508 8.788 15.66 9.068C15.82 9.348 15.9 9.66 15.9 10.004C15.9 10.548 15.74 10.996 15.42 11.348C15.1 11.7 14.68 11.98 14.16 12.188V12.236C14.728 12.3 15.168 12.484 15.48 12.788C15.8 13.084 15.96 13.508 15.96 14.06C15.96 14.5 15.848 14.904 15.624 15.272C15.408 15.632 15.112 15.948 14.736 16.22C14.368 16.484 13.952 16.692 13.488 16.844C13.024 16.988 12.552 17.06 12.072 17.06ZM12.444 15.62C12.828 15.62 13.168 15.556 13.464 15.428C13.768 15.3 14.004 15.128 14.172 14.912C14.348 14.688 14.436 14.436 14.436 14.156C14.436 13.852 14.288 13.6 13.992 13.4C13.704 13.192 13.252 13.088 12.636 13.088C12.22 13.088 11.888 13.188 11.64 13.388C11.4 13.58 11.28 13.912 11.28 14.384C11.28 14.832 11.376 15.152 11.568 15.344C11.76 15.528 12.052 15.62 12.444 15.62ZM12.492 11.816C13.036 11.816 13.488 11.696 13.848 11.456C14.216 11.208 14.4 10.888 14.4 10.496C14.4 10.208 14.284 9.976 14.052 9.8C13.82 9.624 13.48 9.536 13.032 9.536C12.544 9.536 12.144 9.632 11.832 9.824C11.52 10.016 11.364 10.344 11.364 10.808C11.364 11.184 11.464 11.448 11.664 11.6C11.872 11.744 12.148 11.816 12.492 11.816Z" fill="#0A0A0A"/>
</svg>
