<svg version="1.1" xmlns="http://www.w3.org/2000/svg" xmlns:xlink="http://www.w3.org/1999/xlink" width="39.49769" height="19.75878" viewBox="0,0,39.49769,19.75878"><g transform="translate(-220.25115,-170.12061)"><g data-paper-data="{&quot;isPaintingLayer&quot;:true}" fill-rule="nonzero" stroke-linecap="butt" stroke-linejoin="miter" stroke-miterlimit="10" stroke-dasharray="" stroke-dashoffset="0" style="mix-blend-mode: normal"><g><path d="" fill="#ececec" stroke="none" stroke-width="1"/><path d="" fill="none" stroke="#dcd6d6" stroke-width="1.5"/><path d="" fill="none" stroke="#dcd6d6" stroke-width="1.5"/><path d="" fill="none" stroke="#dcd6d6" stroke-width="1.5"/><path d="" fill="none" stroke="#dcd6d6" stroke-width="1.5"/><path d="" fill="none" stroke="#dcd6d6" stroke-width="1.5"/><path d="" fill="none" stroke="#dcd6d6" stroke-width="1.5"/><path d="" fill="none" stroke="#dcd6d6" stroke-width="1.5"/><path d="" fill="none" stroke="#dcd6d6" stroke-width="1.5"/><path d="" fill="none" stroke="#dcd6d6" stroke-width="1.5"/><path d="" fill="none" stroke="#dcd6d6" stroke-width="1.5"/><path d="" fill="none" stroke="#dcd6d6" stroke-width="1.5"/><path d="" fill="none" stroke="#dcd6d6" stroke-width="1.5"/><path d="" fill="none" stroke="#dcd6d6" stroke-width="1.5"/><path d="" fill="none" stroke="#dcd6d6" stroke-width="1.5"/><path d="" fill="none" stroke="#dcd6d6" stroke-width="1.5"/><path d="" fill="none" stroke="#dcd6d6" stroke-width="1.5"/><path d="" fill="none" stroke="#dcd6d6" stroke-width="1.5"/><path d="" fill="none" stroke="#dcd6d6" stroke-width="1.5"/><path d="" fill="none" stroke="#dcd6d6" stroke-width="1.5"/><path d="" fill="none" stroke="#dcd6d6" stroke-width="1.5"/><path d="" fill="none" stroke="#dcd6d6" stroke-width="1.5"/><path d="" fill="none" stroke="#dcd6d6" stroke-width="1.5"/><path d="" fill="none" stroke="#dcd6d6" stroke-width="1.5"/><path d="" fill="none" stroke="#dcd6d6" stroke-width="1.5"/><path d="" fill="none" stroke="#dcd6d6" stroke-width="1.5"/><path d="" fill="none" stroke="#dcd6d6" stroke-width="1.5"/><path d="" fill="none" stroke="#dcd6d6" stroke-width="1.5"/><path d="" fill="none" stroke="#dcd6d6" stroke-width="1.5"/><path d="" fill="none" stroke="#dcd6d6" stroke-width="1.5"/><path d="" fill="none" stroke="#dcd6d6" stroke-width="1.5"/><path d="" fill="none" stroke="#dcd6d6" stroke-width="1.5"/><path d="" fill="none" stroke="#dcd6d6" stroke-width="1.5"/><path d="" fill="none" stroke="#dcd6d6" stroke-width="1.5"/><path d="" fill="none" stroke="#dcd6d6" stroke-width="1.5"/><path d="" fill="none" stroke="#dcd6d6" stroke-width="1.5"/><path d="" fill="none" stroke="#dcd6d6" stroke-width="1.5"/><path d="" fill="none" stroke="#dcd6d6" stroke-width="1.5"/><path d="" fill="none" stroke="#dcd6d6" stroke-width="1.5"/><path d="" fill="none" stroke="#dcd6d6" stroke-width="1.5"/><path d="" fill="none" stroke="#dcd6d6" stroke-width="1.5"/><g><path d="" fill="#ebebeb" stroke="none" stroke-width="1"/><path d="" fill="none" stroke="#000000" stroke-width="0.5"/></g><path d="" fill="#737373" stroke="none" stroke-width="1"/><path d="" fill="#737373" stroke="none" stroke-width="1"/><path d="" fill="#737373" stroke="none" stroke-width="1"/><path d="" fill="#737373" stroke="none" stroke-width="1"/></g><path d="" fill="#000000" stroke="none" stroke-width="1"/><path d="" fill="#000000" stroke="none" stroke-width="1"/><path d="" fill="#a5a7a9" stroke="#000000" stroke-width="1"/><path d="" fill="#000000" stroke="none" stroke-width="1"/><path d="M223.33682,170.62061h33.32636c1.42786,0 2.58567,1.25996 2.58567,2.81382v13.13114c0,1.55385 -1.15781,2.81382 -2.58567,2.81382h-33.32636c-1.42786,0 -2.58567,-1.25996 -2.58567,-2.81382v-13.13114c0,-1.55385 1.15781,-2.81382 2.58567,-2.81382z" fill="#a5a7a9" stroke="#000000" stroke-width="1"/><path d="M232.50617,177.9234c0.13043,0 0.26316,0.08004 0.39819,0.24074c0.13905,0.1557 0.28443,0.38956 0.43612,0.70158c0.15169,0.31202 0.31602,0.69908 0.493,1.16242c0.181,0.46334 0.37923,0.99985 0.59413,1.6095h0.02528c-0.0293,-0.22011 -0.05688,-0.46084 -0.08216,-0.72222c-0.02528,-0.26137 -0.04826,-0.52525 -0.06953,-0.79099c-0.02126,-0.26575 -0.03792,-0.51336 -0.05057,-0.74285c-0.00862,-0.23386 -0.01264,-0.43333 -0.01264,-0.5984c0,-0.3808 0.0316,-0.64905 0.09481,-0.80475c0.06722,-0.1607 0.17065,-0.24074 0.30971,-0.24074c0.09711,0 0.17467,0.02751 0.23386,0.08254c0.05918,0.05503 0.10975,0.13506 0.15169,0.24074c0.09711,0.257 0.16663,0.60966 0.20857,1.05925c0.04195,0.44958 0.0632,0.96295 0.0632,1.54072c0,0.44459 -0.01667,0.82288 -0.05057,1.13491c-0.0339,0.31202 -0.09711,0.54776 -0.18961,0.70845c-0.09251,0.1607 -0.22754,0.24074 -0.40451,0.24074c-0.11779,0 -0.23788,-0.05065 -0.36027,-0.15132c-0.12239,-0.10567 -0.2465,-0.25887 -0.37291,-0.46084c-0.12239,-0.20634 -0.25052,-0.46334 -0.38555,-0.77036c-0.13043,-0.30702 -0.26948,-0.66468 -0.41716,-1.073c-0.14308,-0.41269 -0.29477,-0.87353 -0.45508,-1.38253h-0.02528c0.0293,0.23824 0.05459,0.52024 0.07585,0.84602c0.02126,0.32578 0.03792,0.65781 0.05057,0.99734c0.01264,0.33954 0.01896,0.65093 0.01896,0.93544c0,0.42645 -0.04022,0.72909 -0.12009,0.90793c-0.07585,0.17883 -0.19594,0.26825 -0.36027,0.26825c-0.181,0 -0.312,-0.09192 -0.39187,-0.27513c-0.07585,-0.18821 -0.11377,-0.47709 -0.11377,-0.86665c0,-0.24324 0.00402,-0.52024 0.01264,-0.83226c0.01264,-0.31202 0.0293,-0.6328 0.05057,-0.96295c0.02126,-0.33015 0.04826,-0.64405 0.08216,-0.94231c0.04195,-0.37142 0.10113,-0.63968 0.17698,-0.80475c0.07585,-0.16945 0.20455,-0.25449 0.38555,-0.25449zM237.86941,182.86883c-0.46772,0 -0.84063,-0.07566 -1.11873,-0.22698c-0.2781,-0.15132 -0.47806,-0.36893 -0.60045,-0.65343c-0.12239,-0.28451 -0.1833,-0.62342 -0.1833,-1.01798c0,-0.49961 0.08447,-0.92418 0.25282,-1.27247c0.17295,-0.35329 0.40854,-0.62342 0.7079,-0.81163c0.30339,-0.18821 0.64699,-0.282 1.03024,-0.282c0.45106,0 0.78144,0.11443 0.99232,0.34391c0.21088,0.22448 0.31602,0.52024 0.31602,0.88729c0,0.29326 -0.07182,0.54776 -0.2149,0.76348c-0.13905,0.21073 -0.33269,0.37392 -0.58149,0.48835c-0.2488,0.11443 -0.53495,0.17196 -0.85959,0.17196c-0.181,0 -0.35625,-0.02502 -0.52461,-0.07566c-0.16836,-0.05065 -0.32005,-0.11943 -0.45508,-0.20634l0.15169,-0.30264c-0.01264,0.11005 -0.01896,0.22011 -0.01896,0.33015c0,0.32077 0.09251,0.55276 0.2781,0.6947c0.18559,0.13757 0.44875,0.20634 0.79006,0.20634c0.26546,0 0.47806,-0.02502 0.63837,-0.07566c0.16031,-0.05065 0.29477,-0.0988 0.40451,-0.14444c0.10975,-0.05065 0.21719,-0.07566 0.32235,-0.07566c0.05918,0 0.11147,0.01813 0.15802,0.05503c0.05057,0.03189 0.09078,0.08004 0.12009,0.14444c0.0339,0.0644 0.05057,0.14194 0.05057,0.23386c0,0.13757 -0.0632,0.27075 -0.18961,0.39894c-0.12641,0.1238 -0.31373,0.22698 -0.56253,0.30952c-0.2442,0.07816 -0.54586,0.11693 -0.90383,0.11693zM237.50282,180.61966c0.29937,0 0.53954,-0.06878 0.72054,-0.20634c0.181,-0.13757 0.27178,-0.30702 0.27178,-0.50899c0,-0.1607 -0.05057,-0.29138 -0.15169,-0.39206c-0.09711,-0.10567 -0.25052,-0.1582 -0.4614,-0.1582c-0.19823,0 -0.37693,0.04127 -0.53724,0.1238c-0.15571,0.07816 -0.2781,0.18134 -0.36659,0.30952c-0.08849,0.12819 -0.13273,0.26825 -0.13273,0.41957c0,0.13318 0.05688,0.23636 0.17065,0.30952c0.11779,0.06878 0.2804,0.10317 0.48668,0.10317zM240.25799,182.87572c-0.11837,0 -0.2195,-0.04565 -0.30339,-0.13757c-0.08447,-0.09629 -0.12641,-0.21572 -0.12641,-0.35767c0,-0.16508 0.06091,-0.34391 0.1833,-0.5365c0.12181,-0.19697 0.29879,-0.38956 0.53092,-0.57777c0.23558,-0.18821 0.51599,-0.35329 0.84063,-0.49523v-0.02751c-0.53552,-0.24762 -0.92912,-0.52525 -1.18193,-0.83226c-0.2488,-0.30702 -0.37291,-0.58902 -0.37291,-0.84602c0,-0.10567 0.02069,-0.19509 0.0632,-0.26825c0.04597,-0.07316 0.10515,-0.13069 0.17698,-0.17196c0.07585,-0.04127 0.15342,-0.06191 0.23386,-0.06191c0.17238,0 0.33901,0.07129 0.49932,0.21323c0.16433,0.13757 0.32407,0.33703 0.48036,0.5984c0.15571,0.257 0.3074,0.56651 0.45508,0.92856h0.02528c0.2149,-0.62842 0.43784,-1.08426 0.66998,-1.36876c0.23558,-0.28888 0.48036,-0.43333 0.73318,-0.43333c0.12181,0 0.21662,0.04377 0.28443,0.13069c0.06722,0.08254 0.10113,0.18821 0.10113,0.3164c0,0.30264 -0.12009,0.5984 -0.36027,0.88729c-0.24018,0.28888 -0.60505,0.56151 -1.09345,0.81851v0.03439c0.45048,0.27075 0.78547,0.55276 1.00496,0.84602c0.22294,0.28888 0.33499,0.54338 0.33499,0.76348c0,0.13757 -0.03792,0.24762 -0.11377,0.33015c-0.07182,0.08254 -0.15802,0.1238 -0.25914,0.1238c-0.17698,0 -0.34131,-0.07129 -0.493,-0.21323c-0.15169,-0.14194 -0.29534,-0.33954 -0.42979,-0.59153c-0.13101,-0.257 -0.25512,-0.55026 -0.37291,-0.88042h-0.02528c-0.15629,0.41707 -0.31833,0.76098 -0.48668,1.03173c-0.16433,0.26575 -0.33096,0.46334 -0.49932,0.59153c-0.16893,0.1238 -0.33499,0.18571 -0.49932,0.18571zM245.12996,178.67312h-0.12641c-0.01264,-0.20197 -0.00805,-0.39206 0.01264,-0.57089c0.02126,-0.18321 0.0655,-0.33015 0.13273,-0.4402c0.07182,-0.11443 0.17295,-0.17196 0.30339,-0.17196c0.11837,0 0.20455,0.04127 0.25914,0.1238c0.05516,0.08254 0.08216,0.19697 0.08216,0.34391c0,0.28888 -0.05057,0.5365 -0.15169,0.74285l-0.11377,-0.01376c0.22754,-0.08691 0.48496,-0.13069 0.7711,-0.13069c0.18157,0 0.32464,0.03877 0.42979,0.11693c0.10975,0.07316 0.16433,0.19947 0.16433,0.37831c0,0.16945 -0.0632,0.29826 -0.18961,0.38518c-0.12641,0.08691 -0.28443,0.13069 -0.47404,0.13069c-0.11377,0 -0.23558,-0.00437 -0.36659,-0.01376c-0.12641,-0.01376 -0.25052,-0.03439 -0.37291,-0.06191l0.10745,-0.14444c0.03792,0.17446 0.07413,0.37392 0.10745,0.5984c0.03792,0.22011 0.07182,0.44958 0.10113,0.68782c0.02988,0.23824 0.05286,0.47022 0.06953,0.6947c0.01723,0.22448 0.02528,0.42645 0.02528,0.60528c0,0.29326 -0.04195,0.52525 -0.12641,0.6947c-0.08389,0.16945 -0.20857,0.25449 -0.37291,0.25449c-0.13043,0 -0.23386,-0.04377 -0.30971,-0.13069c-0.07125,-0.08691 -0.12411,-0.19697 -0.15802,-0.33015c-0.0293,-0.13757 -0.04826,-0.27951 -0.05688,-0.42645c-0.00402,-0.14694 -0.00632,-0.27951 -0.00632,-0.39894c0,-0.20197 0.00862,-0.42895 0.02528,-0.68094c0.01723,-0.257 0.04022,-0.52024 0.06953,-0.79099c0.0339,-0.27075 0.07182,-0.53212 0.11377,-0.78411l0.12641,0.11693c-0.2149,0.11943 -0.48036,0.17883 -0.79638,0.17883c-0.19364,0 -0.34303,-0.03877 -0.44875,-0.11693c-0.10515,-0.07816 -0.15802,-0.19947 -0.15802,-0.36454c0,-0.17883 0.05918,-0.3164 0.17698,-0.41269c0.11837,-0.10067 0.27638,-0.15132 0.47404,-0.15132c0.13101,0 0.25282,0.00938 0.36659,0.02751c0.11837,0.01376 0.22122,0.03189 0.30971,0.05503z" fill="#000000" stroke="none" stroke-width="1"/></g></g></svg>