<svg version="1.1" xmlns="http://www.w3.org/2000/svg" xmlns:xlink="http://www.w3.org/1999/xlink" width="29.8109" height="40.98998" viewBox="0,0,29.8109,40.98998"><defs><linearGradient x1="254.90545" y1="184.21377" x2="224.86866" y2="172.43556" gradientUnits="userSpaceOnUse" id="color-1"><stop offset="0" stop-color="#79b9c5"/><stop offset="1" stop-color="#7cbcc8"/></linearGradient><linearGradient x1="254.90545" y1="200.49499" x2="224.03834" y2="160.80528" gradientUnits="userSpaceOnUse" id="color-2"><stop offset="0" stop-color="#000000" stop-opacity="0.2"/><stop offset="0.33854" stop-color="#000000" stop-opacity="0"/><stop offset="0.63021" stop-color="#ffffff" stop-opacity="0"/><stop offset="1" stop-color="#ffffff" stop-opacity="0.3"/></linearGradient><clipPath id="clip-1"><path d="M232.18551,191.96981v-16.65371h16.78674v16.65371z" fill="none"/></clipPath><linearGradient x1="225.48045" y1="177.89847" x2="225.09455" y2="177.89847" gradientUnits="userSpaceOnUse" id="color-3"><stop offset="0" stop-color="#7cbcc8" stop-opacity="0"/><stop offset="0.61458" stop-color="#155662"/></linearGradient><linearGradient x1="254.51939" y1="177.89846" x2="254.90545" y2="177.89846" gradientUnits="userSpaceOnUse" id="color-4"><stop offset="0" stop-color="#7cbcc8" stop-opacity="0"/><stop offset="0.61458" stop-color="#155662"/></linearGradient><linearGradient x1="227.8923" y1="177.79727" x2="226.39699" y2="177.79727" gradientUnits="userSpaceOnUse" id="color-5"><stop offset="0" stop-color="#7cbcc8" stop-opacity="0"/><stop offset="0.35417" stop-color="#186d7d" stop-opacity="0.6"/><stop offset="0.64063" stop-color="#186d7d" stop-opacity="0.6"/><stop offset="1" stop-color="#7cbcc8" stop-opacity="0"/></linearGradient></defs><g transform="translate(-225.09455,-159.50501)"><g data-paper-data="{&quot;isPaintingLayer&quot;:true}" fill-rule="nonzero" stroke="none" stroke-width="1" stroke-linecap="butt" stroke-linejoin="miter" stroke-miterlimit="10" stroke-dasharray="" stroke-dashoffset="0" style="mix-blend-mode: normal"><path d="M225.09455,200.49499v-40.98998h29.8109v40.98998z" fill="url(#color-1)"/><path d="M225.09455,200.49499v-40.98998h29.8109v40.98998z" fill="url(#color-2)"/><g clip-path="url(#clip-1)" opacity="0.8"><path d="M247.09275,190.03807c0,0 0.01268,-0.27352 0.27575,-0.24221z" fill="#3f3d56"/><path d="M246.88705,189.64308c0,-0.07378 0.05888,-0.13415 0.13117,-0.13415c0.07303,0 0.13191,0.06036 0.13191,0.13415c0,0.07452 -0.05887,0.13416 -0.13191,0.13416c-0.07229,0 -0.13117,-0.05962 -0.13117,-0.13416z" fill="#ffffff"/><path d="M247.03463,190.13421h-0.03726v-0.26458h0.03726z" fill="#3f3d56"/><path d="M238.155,181.98241c0,0.06708 -0.00216,0.1334 -0.00641,0.19974c-0.02393,0.38084 -0.11828,0.75273 -0.27799,1.09779c-0.00127,0.00299 -0.00276,0.00595 -0.00395,0.0082c-0.00745,0.0164 -0.01506,0.03205 -0.02296,0.04769c-0.04747,0.09763 -0.10017,0.19228 -0.15784,0.28395c-0.26346,0.42108 -0.62454,0.76912 -1.05128,1.01432c-0.42682,0.24444 -0.90618,0.37859 -1.39581,0.38978l0.02951,1.72978l0.38494,-0.20644l0.0687,0.13266l-0.45075,0.24222l0.05507,3.21287l0.00067,0.04247l-0.29766,0.06781l0.0006,-0.04323l0.09376,-5.17815c-0.3941,-0.00595 -0.78313,-0.09167 -1.1446,-0.2519c-0.36139,-0.16023 -0.68796,-0.39201 -0.96073,-0.68192c-0.01879,-0.01939 -0.03734,-0.04024 -0.05553,-0.06036c-0.00082,-0.00075 -0.00142,-0.00149 -0.00201,-0.00223c-0.22731,-0.25265 -0.4111,-0.54256 -0.54367,-0.85706c0.0029,0.00299 0.00595,0.00595 0.00887,0.00969c-0.29968,-0.71397 -0.31995,-1.51811 -0.05679,-2.24699c0.26315,-0.72888 0.78992,-1.32734 1.47229,-1.67388c0.01029,-0.00522 0.02086,-0.00969 0.03115,-0.01491c0.67499,-0.33164 1.44754,-0.39276 2.16443,-0.17066c0.71688,0.22209 1.32584,0.71025 1.70624,1.36758c0.01811,0.03131 0.0357,0.06335 0.05262,0.09539c0.23626,0.44343 0.35974,0.94053 0.35914,1.44583z" fill="#e5e5e5"/><path d="M233.84113,179.30316c0,-2.20198 1.75147,-3.98706 3.91209,-3.98706c2.16032,0 3.91172,1.78507 3.91172,3.98706c0,2.20153 -1.75139,3.98721 -3.91172,3.98721c-2.16062,0 -3.91209,-1.78566 -3.91209,-3.98721z" fill="#ffffff"/><path d="M234.86461,176.64008c-0.84931,2.02513 0.07274,4.36826 2.05956,5.23352c0.75377,0.32866 1.58974,0.40767 2.39017,0.22508c0.79968,-0.18185 1.52333,-0.61485 2.06888,-1.23864c-0.84886,2.02491 -3.14833,2.96469 -5.13515,2.09869c-1.9869,-0.86526 -2.9091,-3.20839 -2.05987,-5.23331c0.16642,-0.39663 0.39484,-0.76323 0.67641,-1.08534z" fill="#000000" opacity="0.2"/><path d="M237.96487,190.40995l-0.39954,-0.11403l0.00082,-0.04397l0.11969,-6.63217l0.00595,-0.33015l0.00023,-0.00968l0.02086,-1.1589l0.03033,-1.6791v-0.00075l0.02064,-1.13803h0.01096l0.02102,1.23343l0.02743,1.60531l0.01959,1.13878v0.0082l0.00089,0.04696v0l0.03793,2.2209l0.00395,0.2206l0.0784,4.58865z" fill="#3f3d56"/><path d="M238.47629,185.45985l-0.64668,0.3473l-0.0901,-0.1744l0.64668,-0.3473z" fill="#3f3d56"/><path d="M237.67653,191.25435h-1.84462v-0.04174h1.84462z" fill="#cbcbcb"/><path d="M241.06126,191.96981h-1.84454v-0.04174h1.84454z" fill="#cbcbcb"/><path d="M246.32438,191.42277h-1.84455v-0.04174h1.84455z" fill="#cbcbcb"/><path d="M245.48221,189.66916v-1.22374c0,0 0.46804,0.86749 0,1.22374z" fill="#f1f1f1"/><path d="M245.51128,189.66916l-0.88464,-0.828c0,0 0.94351,0.2355 0.88464,0.828z" fill="#f1f1f1"/><path d="M236.33862,189.96354v-1.22374c0,0 0.46796,0.86749 0,1.22374z" fill="#f1f1f1"/><path d="M236.36754,189.96354l-0.88449,-0.828c0,0 0.94351,0.23551 0.88449,0.828z" fill="#f1f1f1"/><path d="M239.51705,190.84743v-1.52184c0,0 0.58206,1.07841 0,1.52184z" fill="#f1f1f1"/><path d="M239.55284,190.84668l-1.09959,-1.02922c0,0 1.17335,0.29289 1.09959,1.02922z" fill="#f1f1f1"/><path d="M248.97234,190.66111l-0.01118,0.04024l-3.46402,-1.00537l-2.60995,0.58653l-3.33733,0.58056l-0.00447,-0.00075l-1.5805,-0.45237l-0.39954,-0.11403l-1.22046,-0.34953l-1.01798,0.23103l-0.29766,0.06781l-0.64705,0.14682l-0.00887,-0.04099l0.65659,-0.14906l0.29638,-0.06708l1.01976,-0.23178l0.00499,0.00149l1.21509,0.3473l0.3979,0.11403l1.58802,0.45387l3.32689,-0.57909l2.61889,-0.58802l0.00522,0.00149z" fill="#cbcbcb"/><path d="M242.77465,177.87052c0.06111,0.04665 0.10732,0.11 0.13415,0.18251l-0.52839,-0.19549c0,0 0.1744,-0.08883 0.33463,-0.02102c0.03428,-0.09025 0.11849,-0.20428 0.3242,-0.18126z" fill="#3f3d56"/><path d="M233.07402,177.78639c0.06074,0.04665 0.10717,0.11 0.13377,0.18251l-0.52839,-0.19549c0,0 0.17454,-0.08883 0.33477,-0.02102c0.0345,-0.09025 0.11879,-0.20428 0.32397,-0.18126z" fill="#3f3d56"/><path d="M242.19705,181.88851c0.06036,0.04621 0.10732,0.10955 0.1334,0.18259l-0.52839,-0.19601c0,0 0.1744,-0.08869 0.33538,-0.02086c0.03428,-0.09018 0.11849,-0.20421 0.32345,-0.1811z" fill="#3f3d56"/><path d="M240.69235,190.35331l0.29811,0.11254l-0.38531,0.75719l-0.20197,-0.07676z" fill="#ffb7b7"/><path d="M240.37635,191.05984l0.39723,0.15055v0c0.06781,0.02534 0.12222,0.07677 0.15204,0.14385c0.02981,0.06632 0.0328,0.1416 0.00745,0.21016l-0.00299,0.0082l-0.65062,-0.24594z" fill="#2f2e41"/><path d="M242.38933,190.51354h0.31823l-0.10284,0.84664h-0.21465z" fill="#ffb7b7"/><path d="M242.35207,191.28863h0.42406v0c0.07229,0 0.14085,0.02906 0.19153,0.08049c0.05068,0.05141 0.079,0.12148 0.079,0.19452v0.00894h-0.69459z" fill="#2f2e41"/><path d="M241.40409,185.48967l0.07006,-0.14309l0.59696,0.30481l-0.01714,0.12522l0.11403,0.15204c0,0 0.19303,0.10732 0.158,0.46505l-0.03503,0.34059l-0.04397,0.43822l0.30706,1.08287l0.158,1.43167l0.11477,1.15443l-0.55373,-0.02683l-0.50902,-1.87883l-0.89582,2.02267l-0.61485,-0.16172l0.84291,-2.00403l0.10583,-0.84142c0,0 -0.07005,-0.44792 0.26308,-0.75199l-0.05218,-0.16098v-0.19824l-0.17589,-0.94725z" fill="#2f2e41"/><path d="M241.77374,188.93283l-0.01939,0.00521l-0.38679,-1.3959l0.02012,-0.00521z" fill="#000000" opacity="0.2"/><path d="M241.42122,187.17248h0.86079v0.08943h-0.86079z" fill="#3f3d56"/><path d="M242.24699,187.22615c0,-0.04918 0.01565,-0.08943 0.03502,-0.08943c0.01939,0 0.03503,0.04025 0.03503,0.08943c0,0.04918 -0.01565,0.08943 -0.03503,0.08943c-0.01939,0 -0.03502,-0.04025 -0.03502,-0.08943z" fill="#3f3d56"/><path d="M241.6694,185.25864c-0.22656,-0.1267 -0.31004,-0.41662 -0.18632,-0.64765c0.12446,-0.23103 0.40841,-0.31599 0.63572,-0.19004c0.22656,0.1267 0.31004,0.41662 0.18632,0.64765c-0.12446,0.23103 -0.40916,0.31599 -0.63572,0.19004z" fill="#ffb7b7"/><path d="M240.76316,184.2473c0,-0.23327 0.18557,-0.42183 0.41437,-0.42183c0.2288,0 0.41437,0.18855 0.41437,0.42183c0,0.23327 -0.18557,0.42258 -0.41437,0.42258c-0.2288,0 -0.41437,-0.18931 -0.41437,-0.42258z" fill="#2f2e41"/><path d="M240.6521,184.20259c-0.01268,0.10509 0.01341,0.21092 0.07378,0.29736c0.06036,0.08645 0.14979,0.14608 0.2519,0.16769c0.10136,0.02235 0.20793,0.00447 0.29736,-0.04994c0.08943,-0.0544 0.15501,-0.14085 0.18482,-0.24221c-0.00745,0.05739 -0.02609,0.11328 -0.05515,0.16395c-0.02981,0.04993 -0.06857,0.09315 -0.11551,0.1267c-0.04621,0.03428 -0.09986,0.05812 -0.15576,0.07005c-0.05589,0.01193 -0.11403,0.01193 -0.16992,-0.00075c-0.05589,-0.01193 -0.10882,-0.03577 -0.15576,-0.06931c-0.04621,-0.03428 -0.0857,-0.07751 -0.11477,-0.12745c-0.02906,-0.04993 -0.04769,-0.10583 -0.05515,-0.16395c-0.00671,-0.05812 -0.00223,-0.11626 0.01416,-0.17216z" fill="#2f2e41"/><path d="M242.28798,184.70713c0.01268,0.10955 -0.01118,0.21986 -0.06632,0.31376c-0.05589,0.09391 -0.14011,0.16694 -0.24072,0.20719c-0.09986,0.04025 -0.21016,0.04546 -0.31376,0.01565c-0.1036,-0.03056 -0.19452,-0.09465 -0.25861,-0.18259c-0.06409,-0.08869 -0.09838,-0.19601 -0.09614,-0.30556c0.00149,-0.10955 0.03875,-0.21614 0.10583,-0.30184c0.06708,-0.08645 0.15949,-0.14756 0.26383,-0.1744c0.10509,-0.02609 0.21538,-0.01714 0.31376,0.02609c0.08198,-0.06708 0.18334,-0.04621 0.26606,0.02459c0.09315,0.08049 0.12073,0.13564 0.19302,0.26755c-0.07155,0.00969 -0.09539,0.09986 -0.16694,0.10955z" fill="#2f2e41"/><path d="M240.56714,186.14252c-0.00149,-0.05366 0.00894,-0.10658 0.03205,-0.15428l0.24147,-0.50976c0.00969,-0.02012 0.02384,-0.03652 0.04174,-0.04769c0.01789,-0.01193 0.03875,-0.01789 0.06037,-0.01789h0.50381c0.00595,0 0.01193,0.00149 0.01714,0.00372c0.00522,0.00223 0.00969,0.00522 0.01341,0.00969c0.00447,0.00372 0.00744,0.00894 0.00894,0.01416c0.00223,0.00522 0.00372,0.01118 0.00299,0.01714l-0.04323,1.75214c-0.00075,0.02235 -0.00969,0.04248 -0.02459,0.05814c-0.01565,0.01565 -0.03577,0.02459 -0.05739,0.02459l-0.39052,0.00745c-0.0164,0 -0.03205,-0.00447 -0.04546,-0.01268c-0.01341,-0.0082 -0.02459,-0.02086 -0.03131,-0.03502c-0.00522,-0.01118 -0.01044,-0.02311 -0.01714,-0.03652v0c-0.08943,-0.18781 -0.29661,-0.62454 -0.29661,-0.63945c0,-0.01416 -0.01044,-0.29289 -0.01565,-0.43375z" fill="#ffffff"/><path d="M241.4257,187.03983c0.09465,-0.05962 0.18035,-0.13415 0.25339,-0.21986c0.16918,-0.19452 0.27202,-0.43971 0.29364,-0.69907c0.01789,-0.21465 -0.02162,-0.37264 -0.11776,-0.46804c-0.10509,-0.10434 -0.24818,-0.10434 -0.28321,-0.10284l-0.11477,0.09912l-0.03578,-0.04323l0.12745,-0.11105l0.00894,-0.00075c0.0082,-0.00075 0.19675,-0.02086 0.33612,0.11701c0.10882,0.10882 0.15428,0.28172 0.13489,0.51423c-0.02235,0.27277 -0.13116,0.52988 -0.30929,0.73409c-0.07602,0.09092 -0.16619,0.16843 -0.26681,0.23029z" fill="#ffffff"/><path d="M241.40781,186.56659l-0.00372,0.01863l-0.68267,-0.1431l0.00372,-0.01863z" fill="#3f3d56"/><path d="M241.19392,185.41365l-0.04472,1.10747l-0.01789,-0.00075l0.04397,-1.10747z" fill="#3f3d56"/><path d="M240.56714,186.14252c-0.00075,-0.02757 0.00149,-0.0544 0.00671,-0.08049c0.03578,0.01268 0.06781,0.03502 0.09167,0.06409c0.02459,0.02981 0.04099,0.06558 0.04695,0.1036l0.16694,0.98599c-0.08943,-0.18781 -0.29661,-0.62454 -0.29661,-0.63945c0,-0.01416 -0.01044,-0.29289 -0.01565,-0.43375z" fill="#3f3d56"/><path d="M241.59188,188.20992c-0.01491,-0.01939 -0.02534,-0.04174 -0.03055,-0.06632c-0.00522,-0.02385 -0.00595,-0.04845 -0.00075,-0.0723c0.00522,-0.02385 0.01565,-0.04695 0.02981,-0.06632c0.01491,-0.01939 0.03354,-0.03502 0.05515,-0.04695l-0.03428,-0.38158l0.22282,-0.07751l0.04025,0.53958c0.0164,0.03802 0.01863,0.08048 0.00671,0.11998c-0.01268,0.03951 -0.03875,0.07303 -0.07378,0.09391c-0.03428,0.02086 -0.07602,0.02832 -0.11552,0.02012c-0.04025,-0.00745 -0.07527,-0.02981 -0.09986,-0.0626z" fill="#ffb7b7"/><path d="M241.44582,185.90404c-0.00447,-0.05812 0.01043,-0.11552 0.04174,-0.16395c0.03131,-0.04845 0.07826,-0.08497 0.13192,-0.1036c0.04769,-0.0164 0.09912,-0.0164 0.14682,0c0.05141,0.01789 0.09539,0.05143 0.1267,0.09614c0.03131,0.04472 0.04769,0.09839 0.04769,0.15279l0.0164,1.93994l-0.39425,0.01491z" fill="#cbcbcb"/></g><path d="M233.75976,169.77754v-2.11657h0.89731c0.09741,0 0.18684,0.01983 0.2683,0.05962c0.08145,0.03973 0.15204,0.09339 0.21165,0.16098c0.06163,0.06752 0.10934,0.14309 0.1431,0.22656c0.03376,0.08348 0.05068,0.16888 0.05068,0.25638c0,0.11924 -0.0278,0.23252 -0.08348,0.33985c-0.05567,0.10732 -0.13213,0.19474 -0.22955,0.26233c-0.09741,0.06752 -0.21262,0.10136 -0.34581,0.10136h-0.50082v0.7095zM234.17115,168.70732h0.47698c0.04971,0 0.09442,-0.01393 0.13416,-0.04174c0.03973,-0.02787 0.07153,-0.0676 0.09539,-0.11924c0.02385,-0.05366 0.03578,-0.11432 0.03578,-0.18185c0,-0.07356 -0.01393,-0.13616 -0.04174,-0.18781c-0.02587,-0.05172 -0.0606,-0.09047 -0.10434,-0.11626c-0.04174,-0.02587 -0.08742,-0.03875 -0.13713,-0.03875h-0.45908zM236.14498,169.80734c-0.13318,0 -0.2604,-0.02191 -0.38158,-0.06558c-0.12125,-0.04375 -0.22559,-0.10837 -0.31301,-0.19377l0.14309,-0.25935c0.09338,0.0755 0.18482,0.13117 0.27426,0.16695c0.09137,0.03578 0.17886,0.05366 0.26233,0.05366c0.07751,0 0.13907,-0.01393 0.18482,-0.04174c0.04769,-0.02787 0.07155,-0.06961 0.07155,-0.1252c0,-0.03779 -0.01296,-0.06663 -0.03875,-0.08645c-0.02587,-0.02191 -0.06365,-0.04077 -0.11328,-0.05665c-0.04769,-0.01595 -0.10635,-0.03383 -0.17589,-0.05366c-0.1153,-0.03779 -0.21166,-0.07452 -0.28917,-0.1103c-0.07751,-0.03578 -0.13615,-0.08049 -0.17589,-0.13415c-0.03779,-0.05567 -0.05664,-0.12625 -0.05664,-0.21166c0,-0.10337 0.02579,-0.19183 0.07751,-0.26532c0.05366,-0.07557 0.12714,-0.13415 0.22059,-0.17589c0.09539,-0.04174 0.20667,-0.0626 0.33389,-0.0626c0.11127,0 0.21658,0.01789 0.31599,0.05366c0.09935,0.03376 0.18975,0.08943 0.27129,0.16694l-0.16098,0.25339c-0.07951,-0.06163 -0.15502,-0.10635 -0.22656,-0.13416c-0.07155,-0.02981 -0.14413,-0.04472 -0.21762,-0.04472c-0.04174,0 -0.08154,0.00492 -0.11924,0.01491c-0.03578,0.00992 -0.06558,0.02683 -0.08943,0.05068c-0.02191,0.02183 -0.03278,0.05366 -0.03278,0.09539c0,0.03771 0.00991,0.06752 0.02981,0.08943c0.02183,0.01983 0.05366,0.03771 0.09539,0.05366c0.04367,0.01587 0.09636,0.03376 0.158,0.05366c0.12522,0.03578 0.23052,0.07251 0.31599,0.11029c0.08742,0.03771 0.153,0.08445 0.19675,0.14011c0.04367,0.05366 0.06559,0.12818 0.06559,0.22358c0,0.15501 -0.05664,0.27619 -0.16992,0.36369c-0.11328,0.08742 -0.26532,0.13116 -0.4561,0.13116zM237.04267,169.77754v-1.56209h0.39946v1.56209zM237.04267,167.99782v-0.39649h0.39946v0.39649zM238.86942,169.77754l-0.45574,-0.67373l-0.21166,0.20868v0.46505h-0.39946v-2.1762h0.39946v1.31764l0.62864,-0.70056h0.42331l-0.58131,0.6618l0.62305,0.89731zM240.10508,169.80734c-0.12745,0 -0.24147,-0.02086 -0.34282,-0.0626c-0.10136,-0.04375 -0.18781,-0.10337 -0.25935,-0.17886c-0.07005,-0.07557 -0.12372,-0.16202 -0.16098,-0.25935c-0.03802,-0.09741 -0.05664,-0.19973 -0.05664,-0.30706c0,-0.10934 0.01862,-0.21271 0.05664,-0.31004c0.03726,-0.09741 0.09092,-0.18386 0.16098,-0.25935c0.07155,-0.07557 0.158,-0.13415 0.25935,-0.17589c0.10136,-0.04375 0.21538,-0.06558 0.34282,-0.06558c0.1267,0 0.23998,0.02183 0.33985,0.06558c0.10136,0.04174 0.18781,0.10031 0.25935,0.17589c0.07155,0.0755 0.12522,0.16194 0.16098,0.25935c0.03726,0.09733 0.05664,0.2007 0.05664,0.31004c0,0.10732 -0.01937,0.20964 -0.05664,0.30706c-0.03578,0.09733 -0.08943,0.18379 -0.16098,0.25935c-0.07005,0.0755 -0.15501,0.13512 -0.25638,0.17886c-0.10136,0.04174 -0.21612,0.0626 -0.34282,0.0626zM239.69667,168.99948c0,0.09137 0.01789,0.17291 0.05366,0.24444c0.03578,0.06953 0.08422,0.12416 0.14608,0.16395c0.06111,0.03973 0.13116,0.05962 0.20868,0.05962c0.07527,0 0.14385,-0.0199 0.20569,-0.05962c0.06111,-0.04174 0.11029,-0.09741 0.14607,-0.16694c0.03726,-0.07155 0.05665,-0.15307 0.05665,-0.24444c0,-0.08943 -0.01939,-0.16992 -0.05665,-0.24147c-0.03578,-0.07155 -0.08497,-0.12721 -0.14607,-0.16694c-0.06186,-0.0398 -0.13043,-0.05962 -0.20569,-0.05962c-0.07751,0 -0.14756,0.02086 -0.20868,0.0626c-0.06186,0.03973 -0.1103,0.0954 -0.14608,0.16695c-0.03578,0.06953 -0.05366,0.15002 -0.05366,0.24147zM241.18795,167.60135h0.39946v1.67538c0,0.07155 0.01193,0.12021 0.03578,0.14607c0.02385,0.02385 0.05664,0.03578 0.09838,0.03578c0.03205,0 0.06484,-0.00402 0.09838,-0.01193c0.03428,-0.00798 0.06409,-0.01789 0.08943,-0.02981l0.05366,0.30407c-0.05366,0.02579 -0.11626,0.04568 -0.18781,0.05962c-0.07155,0.01386 -0.13564,0.02086 -0.19377,0.02086c-0.12522,0 -0.22209,-0.0328 -0.29214,-0.09838c-0.06708,-0.06759 -0.10136,-0.16299 -0.10136,-0.28618zM242.85887,169.80734c-0.12745,0 -0.24147,-0.02086 -0.34282,-0.0626c-0.10136,-0.04375 -0.18781,-0.10337 -0.25935,-0.17886c-0.06931,-0.07557 -0.12297,-0.16202 -0.16098,-0.25935c-0.03802,-0.09741 -0.05664,-0.19973 -0.05664,-0.30706c0,-0.10934 0.01862,-0.21271 0.05664,-0.31004c0.03802,-0.09741 0.09168,-0.18386 0.16098,-0.25935c0.07155,-0.07557 0.158,-0.13415 0.25935,-0.17589c0.10136,-0.04375 0.21538,-0.06558 0.34282,-0.06558c0.12745,0 0.24072,0.02183 0.33985,0.06558c0.10136,0.04174 0.18781,0.10031 0.25935,0.17589c0.07155,0.0755 0.1252,0.16194 0.16098,0.25935c0.03802,0.09733 0.05664,0.2007 0.05664,0.31004c0,0.10732 -0.01862,0.20964 -0.05664,0.30706c-0.03578,0.09733 -0.08943,0.18379 -0.16098,0.25935c-0.06931,0.0755 -0.15501,0.13512 -0.25638,0.17886c-0.10136,0.04174 -0.21538,0.0626 -0.34282,0.0626zM242.45045,168.99948c0,0.09137 0.01789,0.17291 0.05366,0.24444c0.03578,0.06953 0.08421,0.12416 0.14607,0.16395c0.06186,0.03973 0.13117,0.05962 0.20868,0.05962c0.07527,0 0.14384,-0.0199 0.20569,-0.05962c0.06186,-0.04174 0.1103,-0.09741 0.14608,-0.16694c0.03802,-0.07155 0.05664,-0.15307 0.05664,-0.24444c0,-0.08943 -0.01862,-0.16992 -0.05664,-0.24147c-0.03578,-0.07155 -0.08422,-0.12721 -0.14608,-0.16694c-0.06186,-0.0398 -0.13043,-0.05962 -0.20569,-0.05962c-0.07751,0 -0.14682,0.02086 -0.20868,0.0626c-0.06186,0.03973 -0.11029,0.0954 -0.14607,0.16695c-0.03578,0.06953 -0.05366,0.15002 -0.05366,0.24147zM244.55659,169.78649c-0.1036,0 -0.19898,-0.0199 -0.28618,-0.05962c-0.08571,-0.04174 -0.16023,-0.09942 -0.22358,-0.17291c-0.06186,-0.07356 -0.10955,-0.158 -0.14309,-0.25339c-0.03428,-0.09539 -0.05068,-0.19675 -0.05068,-0.30407c0,-0.11328 0.01789,-0.21866 0.05366,-0.31599c0.03578,-0.09741 0.08497,-0.18289 0.14906,-0.25638c0.06558,-0.07557 0.1416,-0.13318 0.22955,-0.17291c0.08943,-0.04174 0.18781,-0.0626 0.29513,-0.0626c0.12073,0 0.22731,0.0278 0.31898,0.08348c0.09092,0.05366 0.16695,0.12618 0.22656,0.21762v-0.27426h0.34879v1.48757c0,0.15501 -0.03802,0.28715 -0.11328,0.39649c-0.07378,0.11127 -0.17589,0.1957 -0.30706,0.25339c-0.13116,0.05962 -0.28022,0.08943 -0.44716,0.08943c-0.16918,0 -0.31227,-0.02884 -0.42929,-0.08645c-0.11776,-0.05567 -0.21762,-0.13519 -0.30108,-0.23849l0.21762,-0.21166c0.05962,0.07349 0.13416,0.13116 0.22359,0.17291c0.09092,0.04174 0.18781,0.0626 0.28917,0.0626c0.08497,0 0.16247,-0.01595 0.23252,-0.04769c0.07155,-0.02981 0.12818,-0.07751 0.16992,-0.14309c0.04323,-0.06364 0.06558,-0.14607 0.06558,-0.24743v-0.19675c-0.05217,0.08943 -0.1252,0.15898 -0.22059,0.20868c-0.09391,0.04769 -0.19303,0.07155 -0.29811,0.07155zM244.69075,169.4675c0.04323,0 0.08495,-0.007 0.1252,-0.02086c0.03951,-0.01393 0.07602,-0.0328 0.1103,-0.05665c0.03354,-0.02385 0.06335,-0.05172 0.08943,-0.08348c0.02534,-0.03384 0.04546,-0.06759 0.05962,-0.10136v-0.37264c-0.02385,-0.06163 -0.05812,-0.1153 -0.10136,-0.16098c-0.04174,-0.04575 -0.08943,-0.08049 -0.14309,-0.10434c-0.05217,-0.02587 -0.10658,-0.03875 -0.16395,-0.03875c-0.06186,0 -0.11776,0.01289 -0.16694,0.03875c-0.04993,0.02579 -0.09242,0.0626 -0.12818,0.11029c-0.03578,0.04568 -0.06409,0.09734 -0.08348,0.15502c-0.01789,0.05559 -0.02683,0.11425 -0.02683,0.17589c0,0.06357 0.01043,0.12319 0.03278,0.17886c0.02162,0.05559 0.05141,0.10433 0.08943,0.14607c0.03951,0.04174 0.08497,0.07452 0.13713,0.09838c0.05366,0.02385 0.1103,0.03577 0.16992,0.03577zM245.83472,169.77754v-1.56209h0.39947v1.56209zM245.83472,167.99782v-0.39649h0.39947v0.39649z" fill-opacity="0.9" fill="#333333"/><path d="M225.09455,160.44674c0,0 0.04524,-0.27613 0.12059,-0.42131c0.07534,-0.14518 0.26532,-0.32218 0.26532,-0.32218v40.59349c0,0 -0.18997,-0.15204 -0.26532,-0.29736c-0.07534,-0.14532 -0.12059,-0.44642 -0.12059,-0.44642z" fill="url(#color-3)"/><path d="M254.90545,199.55295c0,0 -0.04546,0.30109 -0.12073,0.44642c-0.07527,0.14532 -0.26532,0.29736 -0.26532,0.29736v-40.59349c0,0 0.19004,0.177 0.26532,0.32218c0.07527,0.14518 0.12073,0.42131 0.12073,0.42131z" fill="url(#color-4)"/><path d="M226.39699,200.49499v-40.98998h1.49537v40.98998z" fill="url(#color-5)"/></g></g></svg>