<svg version="1.1" xmlns="http://www.w3.org/2000/svg" xmlns:xlink="http://www.w3.org/1999/xlink" width="39.71529" height="16.72808" viewBox="0,0,39.71529,16.72808"><g transform="translate(-220.14236,-171.63596)"><g data-paper-data="{&quot;isPaintingLayer&quot;:true}" fill-rule="nonzero" stroke-width="1" stroke-linecap="butt" stroke-linejoin="miter" stroke-miterlimit="10" stroke-dasharray="" stroke-dashoffset="0" style="mix-blend-mode: normal"><path d="M259.35764,176.85438v6.29123c0,2.6059 -1.77268,4.71843 -3.95948,4.71843h-30.79628c-2.18678,0 -3.95952,-2.11252 -3.95952,-4.71843v-6.29123c0,-2.60591 1.77274,-4.71843 3.95952,-4.71843h30.79628c2.18681,0 3.95948,2.11251 3.95948,4.71843z" fill="#af99a9" stroke="#000000"/><path d="M236.89618,177.45689c0.19358,0 0.3315,0.05323 0.41377,0.1597c0.08711,0.10647 0.13066,0.22987 0.13066,0.37021c0,0.17422 -0.05323,0.30972 -0.1597,0.40651c-0.10163,0.09195 -0.24681,0.13792 -0.43555,0.13792c-0.1839,0 -0.32182,-0.05081 -0.41377,-0.15244c-0.09195,-0.10647 -0.13792,-0.22987 -0.13792,-0.37021c0,-0.1839 0.05565,-0.32182 0.16696,-0.41377c0.11131,-0.09195 0.25649,-0.13792 0.43555,-0.13792zM236.93974,179.07567c0.15486,0 0.27585,0.14518 0.36296,0.43555c0.09195,0.29036 0.13792,0.75253 0.13792,1.38649c0,0.77915 -0.05565,1.34052 -0.16696,1.68411c-0.11131,0.3436 -0.28069,0.5154 -0.50814,0.5154c-0.17422,0 -0.30246,-0.12582 -0.38473,-0.37747c-0.08227,-0.25649 -0.1234,-0.70171 -0.1234,-1.33568c0,-0.77915 0.06291,-1.35745 0.18874,-1.73493c0.13066,-0.38231 0.2952,-0.57347 0.49362,-0.57347zM240.16387,178.48043c0.43071,0 0.74043,0.06291 0.92917,0.18874c0.18874,0.12582 0.28311,0.28794 0.28311,0.48636c0,0.11615 -0.04113,0.21293 -0.1234,0.29036c-0.07743,0.07259 -0.18874,0.10889 -0.33392,0.10889c-0.15002,0 -0.3073,-0.02178 -0.47184,-0.06533c-0.1597,-0.04355 -0.34602,-0.06533 -0.55895,-0.06533c-0.24681,0 -0.43071,0.04839 -0.55169,0.14518c-0.12099,0.09679 -0.18148,0.22019 -0.18148,0.37021c0,0.14034 0.05323,0.25165 0.1597,0.33392c0.11131,0.07743 0.32182,0.1355 0.63154,0.17422c0.3436,0.03872 0.6267,0.10163 0.84932,0.18874c0.22745,0.08227 0.39683,0.20809 0.50814,0.37747c0.11131,0.16454 0.16696,0.39199 0.16696,0.68236c0,0.45974 -0.16212,0.80092 -0.48636,1.02354c-0.32424,0.22261 -0.77189,0.33392 -1.34294,0.33392c-0.36296,0 -0.6509,-0.02904 -0.86383,-0.08711c-0.21293,-0.05807 -0.3678,-0.14034 -0.46458,-0.24681c-0.09195,-0.10647 -0.13792,-0.23229 -0.13792,-0.37747c0,-0.12582 0.04113,-0.22261 0.1234,-0.29036c0.08711,-0.07259 0.18874,-0.10889 0.30488,-0.10889c0.11131,0 0.22987,0.01452 0.3557,0.04355c0.12582,0.0242 0.25891,0.05081 0.39925,0.07985c0.14034,0.02904 0.28553,0.04355 0.43555,0.04355c0.48394,0 0.72591,-0.15002 0.72591,-0.45007c0,-0.10163 -0.0242,-0.1839 -0.07259,-0.24681c-0.04839,-0.06291 -0.1355,-0.11373 -0.26133,-0.15244c-0.12582,-0.04355 -0.30972,-0.07743 -0.55169,-0.10163c-0.29036,-0.02904 -0.54201,-0.07743 -0.75495,-0.14518c-0.21293,-0.07259 -0.37747,-0.18874 -0.49362,-0.34844c-0.11615,-0.16454 -0.17422,-0.38957 -0.17422,-0.6751c0,-0.45007 0.16938,-0.81302 0.50814,-1.08887c0.33876,-0.28069 0.82028,-0.42103 1.44456,-0.42103zM242.84382,177.45689c0.19358,0 0.3315,0.05323 0.41377,0.1597c0.08711,0.10647 0.13066,0.22987 0.13066,0.37021c0,0.17422 -0.05323,0.30972 -0.1597,0.40651c-0.10163,0.09195 -0.24681,0.13792 -0.43555,0.13792c-0.1839,0 -0.32182,-0.05081 -0.41377,-0.15244c-0.09195,-0.10647 -0.13792,-0.22987 -0.13792,-0.37021c0,-0.1839 0.05565,-0.32182 0.16696,-0.41377c0.11131,-0.09195 0.25649,-0.13792 0.43555,-0.13792zM242.88737,179.07567c0.15486,0 0.27585,0.14518 0.36296,0.43555c0.09195,0.29036 0.13792,0.75253 0.13792,1.38649c0,0.77915 -0.05565,1.34052 -0.16696,1.68411c-0.11131,0.3436 -0.28069,0.5154 -0.50814,0.5154c-0.17422,0 -0.30246,-0.12582 -0.38473,-0.37747c-0.08227,-0.25649 -0.1234,-0.70171 -0.1234,-1.33568c0,-0.77915 0.06291,-1.35745 0.18874,-1.73493c0.13066,-0.38231 0.2952,-0.57347 0.49362,-0.57347z" fill="#000000" stroke="none"/></g></g></svg>