<svg xmlns="http://www.w3.org/2000/svg" fill="none" viewBox="0 0 88 13" height="13" width="88">
<path fill="black" d="M6.372 6.664C6.132 6.696 5.908 6.716 5.7 6.724C5.5 6.732 5.308 6.736 5.124 6.736C4.588 6.736 4.228 6.696 4.044 6.616C3.86 6.528 3.768 6.38 3.768 6.172C3.768 6.036 3.812 5.912 3.9 5.8C3.996 5.688 4.132 5.592 4.308 5.512C4.516 5.424 4.82 5.344 5.22 5.272C5.628 5.192 6.048 5.152 6.48 5.152C7.04 5.152 7.472 5.2 7.776 5.296C8.088 5.384 8.244 5.556 8.244 5.812C8.244 6.012 8.164 6.184 8.004 6.328C7.844 6.464 7.58 6.552 7.212 6.592L6.372 6.664ZM7.26 6.424C7.468 6.688 7.616 6.956 7.704 7.228C7.792 7.5 7.836 7.744 7.836 7.96C7.836 8.32 7.728 8.668 7.512 9.004C7.304 9.332 6.976 9.604 6.528 9.82C6.08 10.028 5.492 10.132 4.764 10.132C3.828 10.132 3.048 9.96 2.424 9.616C1.808 9.264 1.348 8.772 1.044 8.14C0.74 7.5 0.588 6.756 0.588 5.908C0.588 4.996 0.78 4.188 1.164 3.484C1.548 2.78 2.092 2.232 2.796 1.84C3.5 1.44 4.324 1.24 5.268 1.24C6.052 1.24 6.652 1.38 7.068 1.66C7.492 1.932 7.704 2.252 7.704 2.62C7.704 2.844 7.628 3.02 7.476 3.148C7.332 3.268 7.12 3.328 6.84 3.328C6.672 3.328 6.496 3.3 6.312 3.244C6.136 3.188 5.936 3.136 5.712 3.088C5.496 3.032 5.248 3.004 4.968 3.004C4.456 3.004 3.984 3.1 3.552 3.292C3.12 3.476 2.772 3.784 2.508 4.216C2.252 4.64 2.124 5.212 2.124 5.932C2.124 6.548 2.24 7.052 2.472 7.444C2.712 7.828 3.044 8.112 3.468 8.296C3.892 8.472 4.376 8.56 4.92 8.56C5.288 8.56 5.576 8.52 5.784 8.44C6 8.36 6.152 8.24 6.24 8.08C6.336 7.92 6.384 7.716 6.384 7.468C6.384 7.332 6.364 7.164 6.324 6.964C6.292 6.764 6.24 6.564 6.168 6.364L7.26 6.424ZM14.4252 10.12C14.1532 10.12 13.9652 10.016 13.8612 9.808C13.7652 9.592 13.7092 9.252 13.6932 8.788L13.8132 8.848C13.3652 9.72 12.5172 10.156 11.2692 10.156C10.7012 10.156 10.2292 10.056 9.85322 9.856C9.47722 9.648 9.19722 9.376 9.01322 9.04C8.83722 8.696 8.74922 8.324 8.74922 7.924C8.74922 7.236 8.98922 6.692 9.46922 6.292C9.94922 5.884 10.5852 5.68 11.3772 5.68C11.8972 5.68 12.3492 5.756 12.7332 5.908C13.1172 6.06 13.4452 6.272 13.7172 6.544L13.5132 6.52C13.4572 5.712 13.2812 5.136 12.9852 4.792C12.6972 4.44 12.2852 4.264 11.7492 4.264C11.4372 4.264 11.1492 4.312 10.8852 4.408C10.6212 4.504 10.3772 4.604 10.1532 4.708C9.93722 4.804 9.73322 4.852 9.54122 4.852C9.34922 4.852 9.19722 4.788 9.08522 4.66C8.98122 4.532 8.92922 4.368 8.92922 4.168C8.92922 3.88 9.06522 3.608 9.33722 3.352C9.61722 3.096 9.98522 2.888 10.4412 2.728C10.8972 2.568 11.3932 2.488 11.9292 2.488C12.5772 2.488 13.1332 2.644 13.5972 2.956C14.0612 3.268 14.4132 3.724 14.6532 4.324C14.8612 4.836 15.0092 5.408 15.0972 6.04C15.1852 6.672 15.2292 7.348 15.2292 8.068C15.2292 8.612 15.2012 9.032 15.1452 9.328C15.0892 9.624 15.0012 9.832 14.8812 9.952C14.7692 10.064 14.6172 10.12 14.4252 10.12ZM11.7732 8.776C12.0372 8.776 12.3052 8.74 12.5772 8.668C12.8492 8.588 13.0772 8.472 13.2612 8.32C13.4452 8.168 13.5372 7.98 13.5372 7.756C13.5372 7.564 13.4572 7.408 13.2972 7.288C13.1452 7.16 12.9412 7.064 12.6852 7C12.4372 6.936 12.1692 6.904 11.8812 6.904C11.3932 6.904 11.0212 6.988 10.7652 7.156C10.5172 7.324 10.3932 7.548 10.3932 7.828C10.3932 8.132 10.5092 8.368 10.7412 8.536C10.9812 8.696 11.3252 8.776 11.7732 8.776ZM16.6929 4.588C16.6929 3.82 16.7649 3.268 16.9089 2.932C17.0529 2.588 17.2569 2.416 17.5209 2.416C17.7289 2.416 17.8929 2.504 18.0129 2.68C18.1329 2.848 18.2209 3.06 18.2769 3.316C18.3329 3.564 18.3609 3.816 18.3609 4.072L18.3009 4.048C18.4369 3.616 18.6449 3.244 18.9249 2.932C19.2129 2.62 19.5569 2.464 19.9569 2.464C20.4289 2.464 20.7769 2.66 21.0009 3.052C21.2249 3.436 21.3369 3.916 21.3369 4.492C21.3369 5.26 21.2489 5.796 21.0729 6.1C20.8969 6.404 20.6609 6.556 20.3649 6.556C20.1489 6.556 19.9889 6.468 19.8849 6.292C19.7889 6.116 19.7569 5.804 19.7889 5.356C19.8209 4.884 19.7929 4.556 19.7049 4.372C19.6169 4.188 19.4769 4.096 19.2849 4.096C19.0529 4.096 18.8609 4.244 18.7089 4.54C18.5649 4.828 18.4929 5.184 18.4929 5.608C18.4929 5.776 18.5129 5.988 18.5529 6.244C18.5929 6.5 18.6369 6.78 18.6849 7.084C18.7329 7.38 18.7769 7.676 18.8169 7.972C18.8569 8.268 18.8769 8.54 18.8769 8.788C18.8769 9.228 18.8089 9.544 18.6729 9.736C18.5369 9.928 18.3449 10.024 18.0969 10.024C17.8169 10.024 17.6009 9.936 17.4489 9.76C17.2969 9.576 17.1809 9.28 17.1009 8.872C17.0369 8.504 16.9729 8.068 16.9089 7.564C16.8449 7.06 16.7929 6.544 16.7529 6.016C16.7129 5.488 16.6929 5.012 16.6929 4.588ZM23.456 0.796C23.776 0.796 24.004 0.884 24.14 1.06C24.284 1.236 24.356 1.44 24.356 1.672C24.356 1.96 24.268 2.184 24.092 2.344C23.924 2.496 23.684 2.572 23.372 2.572C23.068 2.572 22.84 2.488 22.688 2.32C22.536 2.144 22.46 1.94 22.46 1.708C22.46 1.404 22.552 1.176 22.736 1.024C22.92 0.872 23.16 0.796 23.456 0.796ZM23.528 3.472C23.784 3.472 23.984 3.712 24.128 4.192C24.28 4.672 24.356 5.436 24.356 6.484C24.356 7.772 24.264 8.7 24.08 9.268C23.896 9.836 23.616 10.12 23.24 10.12C22.952 10.12 22.74 9.912 22.604 9.496C22.468 9.072 22.4 8.336 22.4 7.288C22.4 6 22.504 5.044 22.712 4.42C22.928 3.788 23.2 3.472 23.528 3.472ZM28.8578 2.488C29.5698 2.488 30.0818 2.592 30.3938 2.8C30.7058 3.008 30.8618 3.276 30.8618 3.604C30.8618 3.796 30.7938 3.956 30.6578 4.084C30.5298 4.204 30.3458 4.264 30.1058 4.264C29.8578 4.264 29.5978 4.228 29.3258 4.156C29.0618 4.084 28.7538 4.048 28.4018 4.048C27.9938 4.048 27.6898 4.128 27.4898 4.288C27.2898 4.448 27.1898 4.652 27.1898 4.9C27.1898 5.132 27.2778 5.316 27.4538 5.452C27.6378 5.58 27.9858 5.676 28.4978 5.74C29.0658 5.804 29.5338 5.908 29.9018 6.052C30.2778 6.188 30.5578 6.396 30.7418 6.676C30.9258 6.948 31.0178 7.324 31.0178 7.804C31.0178 8.564 30.7498 9.128 30.2138 9.496C29.6778 9.864 28.9378 10.048 27.9938 10.048C27.3938 10.048 26.9178 10 26.5658 9.904C26.2138 9.808 25.9578 9.672 25.7978 9.496C25.6458 9.32 25.5698 9.112 25.5698 8.872C25.5698 8.664 25.6378 8.504 25.7738 8.392C25.9178 8.272 26.0858 8.212 26.2778 8.212C26.4618 8.212 26.6578 8.236 26.8658 8.284C27.0738 8.324 27.2938 8.368 27.5258 8.416C27.7578 8.464 27.9978 8.488 28.2458 8.488C29.0458 8.488 29.4458 8.24 29.4458 7.744C29.4458 7.576 29.4058 7.44 29.3258 7.336C29.2458 7.232 29.1018 7.148 28.8938 7.084C28.6858 7.012 28.3818 6.956 27.9818 6.916C27.5018 6.868 27.0858 6.788 26.7338 6.676C26.3818 6.556 26.1098 6.364 25.9178 6.1C25.7258 5.828 25.6298 5.456 25.6298 4.984C25.6298 4.24 25.9098 3.64 26.4698 3.184C27.0298 2.72 27.8258 2.488 28.8578 2.488ZM36.3143 10.276C35.8103 10.276 35.4183 10.244 35.1383 10.18C34.8663 10.116 34.6783 10.028 34.5743 9.916C34.4703 9.796 34.4143 9.664 34.4063 9.52C34.4063 9.296 34.5383 9.108 34.8023 8.956C35.0743 8.804 35.5703 8.708 36.2903 8.668L36.0983 8.896C36.0103 8.488 35.9463 8.012 35.9063 7.468C35.8663 6.924 35.8503 6.36 35.8583 5.776C35.8663 5.192 35.8943 4.636 35.9423 4.108C35.9903 3.572 36.0583 3.116 36.1463 2.74L37.1903 2.668C37.0143 2.74 36.7943 2.804 36.5303 2.86C36.2663 2.908 35.9943 2.932 35.7143 2.932C35.2023 2.932 34.8223 2.876 34.5743 2.764C34.3343 2.652 34.2143 2.496 34.2143 2.296C34.2143 1.944 34.4263 1.672 34.8503 1.48C35.2823 1.28 35.9423 1.18 36.8303 1.18C37.8863 1.18 38.7743 1.356 39.4943 1.708C40.2223 2.052 40.7743 2.536 41.1503 3.16C41.5263 3.776 41.7143 4.496 41.7143 5.32C41.7143 6.04 41.5863 6.704 41.3303 7.312C41.0743 7.912 40.7063 8.436 40.2263 8.884C39.7543 9.324 39.1863 9.668 38.5223 9.916C37.8663 10.156 37.1303 10.276 36.3143 10.276ZM38.0183 8.428C38.2903 8.428 38.5783 8.32 38.8823 8.104C39.1943 7.88 39.4583 7.556 39.6743 7.132C39.8903 6.7 39.9983 6.168 39.9983 5.536C39.9983 5.072 39.9303 4.668 39.7943 4.324C39.6663 3.972 39.4983 3.68 39.2903 3.448C39.0823 3.216 38.8623 3.044 38.6303 2.932C38.3983 2.812 38.1783 2.752 37.9703 2.752C37.8023 2.752 37.6703 2.856 37.5743 3.064C37.4863 3.272 37.4223 3.584 37.3823 4C37.3423 4.408 37.3223 4.916 37.3223 5.524C37.3223 6.468 37.3703 7.188 37.4663 7.684C37.5623 8.18 37.7463 8.428 38.0183 8.428ZM44.0927 0.796C44.4127 0.796 44.6407 0.884 44.7767 1.06C44.9207 1.236 44.9927 1.44 44.9927 1.672C44.9927 1.96 44.9047 2.184 44.7287 2.344C44.5607 2.496 44.3207 2.572 44.0087 2.572C43.7047 2.572 43.4767 2.488 43.3247 2.32C43.1727 2.144 43.0967 1.94 43.0967 1.708C43.0967 1.404 43.1887 1.176 43.3727 1.024C43.5567 0.872 43.7967 0.796 44.0927 0.796ZM44.1647 3.472C44.4207 3.472 44.6207 3.712 44.7647 4.192C44.9167 4.672 44.9927 5.436 44.9927 6.484C44.9927 7.772 44.9007 8.7 44.7167 9.268C44.5327 9.836 44.2527 10.12 43.8767 10.12C43.5887 10.12 43.3767 9.912 43.2407 9.496C43.1047 9.072 43.0367 8.336 43.0367 7.288C43.0367 6 43.1407 5.044 43.3487 4.42C43.5647 3.788 43.8367 3.472 44.1647 3.472ZM51.7026 10.12C51.4306 10.12 51.2426 10.016 51.1386 9.808C51.0426 9.592 50.9866 9.252 50.9706 8.788L51.0906 8.848C50.6426 9.72 49.7946 10.156 48.5466 10.156C47.9786 10.156 47.5066 10.056 47.1306 9.856C46.7546 9.648 46.4746 9.376 46.2906 9.04C46.1146 8.696 46.0266 8.324 46.0266 7.924C46.0266 7.236 46.2666 6.692 46.7466 6.292C47.2266 5.884 47.8626 5.68 48.6546 5.68C49.1746 5.68 49.6266 5.756 50.0106 5.908C50.3946 6.06 50.7226 6.272 50.9946 6.544L50.7906 6.52C50.7346 5.712 50.5586 5.136 50.2626 4.792C49.9746 4.44 49.5626 4.264 49.0266 4.264C48.7146 4.264 48.4266 4.312 48.1626 4.408C47.8986 4.504 47.6546 4.604 47.4306 4.708C47.2146 4.804 47.0106 4.852 46.8186 4.852C46.6266 4.852 46.4746 4.788 46.3626 4.66C46.2586 4.532 46.2066 4.368 46.2066 4.168C46.2066 3.88 46.3426 3.608 46.6146 3.352C46.8946 3.096 47.2626 2.888 47.7186 2.728C48.1746 2.568 48.6706 2.488 49.2066 2.488C49.8546 2.488 50.4106 2.644 50.8746 2.956C51.3386 3.268 51.6906 3.724 51.9306 4.324C52.1386 4.836 52.2866 5.408 52.3746 6.04C52.4626 6.672 52.5066 7.348 52.5066 8.068C52.5066 8.612 52.4786 9.032 52.4226 9.328C52.3666 9.624 52.2786 9.832 52.1586 9.952C52.0466 10.064 51.8946 10.12 51.7026 10.12ZM49.0506 8.776C49.3146 8.776 49.5826 8.74 49.8546 8.668C50.1266 8.588 50.3546 8.472 50.5386 8.32C50.7226 8.168 50.8146 7.98 50.8146 7.756C50.8146 7.564 50.7346 7.408 50.5746 7.288C50.4226 7.16 50.2186 7.064 49.9626 7C49.7146 6.936 49.4466 6.904 49.1586 6.904C48.6706 6.904 48.2986 6.988 48.0426 7.156C47.7946 7.324 47.6706 7.548 47.6706 7.828C47.6706 8.132 47.7866 8.368 48.0186 8.536C48.2586 8.696 48.6026 8.776 49.0506 8.776ZM56.2623 9.808C55.5103 9.808 54.8983 9.52 54.4263 8.944C53.9543 8.36 53.7183 7.476 53.7183 6.292C53.7183 5.028 53.9463 4.104 54.4023 3.52C54.8583 2.936 55.4583 2.644 56.2023 2.644C56.6423 2.644 57.0303 2.756 57.3663 2.98C57.7023 3.204 57.9903 3.52 58.2303 3.928L58.1343 4.096C58.1103 3.984 58.0903 3.864 58.0743 3.736C58.0583 3.608 58.0503 3.512 58.0503 3.448C58.0503 3.12 58.1023 2.868 58.2063 2.692C58.3183 2.508 58.4903 2.416 58.7223 2.416C58.9783 2.416 59.1783 2.52 59.3223 2.728C59.4743 2.936 59.5903 3.232 59.6703 3.616C59.7743 4.008 59.8623 4.508 59.9343 5.116C60.0063 5.716 60.0423 6.324 60.0423 6.94C60.0423 7.708 60.0143 8.352 59.9583 8.872C59.9023 9.392 59.8103 9.824 59.6823 10.168C59.5543 10.512 59.3863 10.812 59.1783 11.068C58.8343 11.484 58.3903 11.8 57.8463 12.016C57.3103 12.24 56.6903 12.352 55.9863 12.352C55.4823 12.352 55.0783 12.304 54.7743 12.208C54.4703 12.12 54.2503 11.996 54.1143 11.836C53.9863 11.684 53.9223 11.512 53.9223 11.32C53.9223 11.12 53.9783 10.952 54.0903 10.816C54.2023 10.688 54.3703 10.624 54.5943 10.624C54.7943 10.624 55.0263 10.656 55.2903 10.72C55.5623 10.784 55.8823 10.816 56.2503 10.816C57.0263 10.816 57.5743 10.632 57.8943 10.264C58.2223 9.904 58.3863 9.384 58.3863 8.704C58.3863 8.52 58.3743 8.304 58.3503 8.056L58.5183 8.116C58.3183 8.628 58.0223 9.04 57.6303 9.352C57.2383 9.656 56.7823 9.808 56.2623 9.808ZM56.7183 8.332C56.9743 8.332 57.2303 8.264 57.4863 8.128C57.7423 7.992 57.9543 7.768 58.1223 7.456C58.2903 7.144 58.3743 6.724 58.3743 6.196C58.3743 5.564 58.2263 5.048 57.9303 4.648C57.6343 4.248 57.2183 4.048 56.6823 4.048C56.2183 4.048 55.8783 4.224 55.6623 4.576C55.4463 4.928 55.3383 5.46 55.3383 6.172C55.3383 6.852 55.4463 7.384 55.6623 7.768C55.8783 8.144 56.2303 8.332 56.7183 8.332ZM64.4214 10.036C63.7814 10.036 63.2214 9.896 62.7414 9.616C62.2694 9.328 61.9014 8.92 61.6374 8.392C61.3814 7.864 61.2534 7.236 61.2534 6.508C61.2534 5.748 61.3854 5.084 61.6494 4.516C61.9134 3.948 62.2854 3.504 62.7654 3.184C63.2534 2.864 63.8174 2.704 64.4574 2.704C65.1454 2.704 65.7414 2.86 66.2454 3.172C66.7494 3.476 67.1414 3.904 67.4214 4.456C67.7014 5.008 67.8414 5.652 67.8414 6.388C67.8414 7.14 67.7014 7.788 67.4214 8.332C67.1414 8.876 66.7454 9.296 66.2334 9.592C65.7214 9.888 65.1174 10.036 64.4214 10.036ZM64.5894 8.416C65.0854 8.416 65.4774 8.22 65.7654 7.828C66.0614 7.428 66.2094 6.9 66.2094 6.244C66.2094 5.58 66.0614 5.052 65.7654 4.66C65.4774 4.268 65.0854 4.072 64.5894 4.072C64.0774 4.072 63.6734 4.268 63.3774 4.66C63.0814 5.052 62.9334 5.58 62.9334 6.244C62.9334 6.9 63.0814 7.428 63.3774 7.828C63.6734 8.22 64.0774 8.416 64.5894 8.416ZM70.2763 2.536C70.5323 2.536 70.7043 2.64 70.7923 2.848C70.8883 3.056 70.9363 3.364 70.9363 3.772C70.9363 3.868 70.9283 3.972 70.9123 4.084C70.9043 4.188 70.8883 4.284 70.8643 4.372L70.8403 4.132C71.0323 3.612 71.3283 3.208 71.7283 2.92C72.1283 2.624 72.5523 2.476 73.0003 2.476C73.4963 2.476 73.9083 2.616 74.2363 2.896C74.5723 3.176 74.8203 3.568 74.9803 4.072C75.1483 4.576 75.2323 5.172 75.2323 5.86C75.2323 6.284 75.2123 6.704 75.1723 7.12C75.1403 7.528 75.0923 7.904 75.0283 8.248C74.9723 8.584 74.9083 8.86 74.8363 9.076C74.7403 9.348 74.6163 9.552 74.4643 9.688C74.3123 9.816 74.1323 9.88 73.9243 9.88C73.7163 9.88 73.5563 9.804 73.4443 9.652C73.3323 9.5 73.2763 9.296 73.2763 9.04C73.2763 8.768 73.2963 8.44 73.3363 8.056C73.3763 7.664 73.4123 7.268 73.4443 6.868C73.4843 6.46 73.5043 6.092 73.5043 5.764C73.5043 4.644 73.1363 4.084 72.4003 4.084C72.0083 4.084 71.6803 4.26 71.4163 4.612C71.1523 4.956 70.9763 5.448 70.8883 6.088C70.8643 6.304 70.8523 6.572 70.8523 6.892C70.8523 7.212 70.8523 7.532 70.8523 7.852C70.8603 8.164 70.8523 8.428 70.8283 8.644C70.7963 9.124 70.7043 9.468 70.5523 9.676C70.4083 9.884 70.2083 9.988 69.9523 9.988C69.6563 9.988 69.4323 9.852 69.2803 9.58C69.1283 9.3 69.0523 8.832 69.0523 8.176C69.0523 7.84 69.0603 7.464 69.0763 7.048C69.0923 6.632 69.1123 6.216 69.1363 5.8C69.1683 5.376 69.2043 4.992 69.2443 4.648C69.3243 4 69.4403 3.488 69.5923 3.112C69.7443 2.728 69.9723 2.536 70.2763 2.536ZM81.9369 10.12C81.6649 10.12 81.4769 10.016 81.3729 9.808C81.2769 9.592 81.2209 9.252 81.2049 8.788L81.3249 8.848C80.8769 9.72 80.0289 10.156 78.7809 10.156C78.2129 10.156 77.7409 10.056 77.3649 9.856C76.9889 9.648 76.7089 9.376 76.5249 9.04C76.3489 8.696 76.2609 8.324 76.2609 7.924C76.2609 7.236 76.5009 6.692 76.9809 6.292C77.4609 5.884 78.0969 5.68 78.8889 5.68C79.4089 5.68 79.8609 5.756 80.2449 5.908C80.6289 6.06 80.9569 6.272 81.2289 6.544L81.0249 6.52C80.9689 5.712 80.7929 5.136 80.4969 4.792C80.2089 4.44 79.7969 4.264 79.2609 4.264C78.9489 4.264 78.6609 4.312 78.3969 4.408C78.1329 4.504 77.8889 4.604 77.6649 4.708C77.4489 4.804 77.2449 4.852 77.0529 4.852C76.8609 4.852 76.7089 4.788 76.5969 4.66C76.4929 4.532 76.4409 4.368 76.4409 4.168C76.4409 3.88 76.5769 3.608 76.8489 3.352C77.1289 3.096 77.4969 2.888 77.9529 2.728C78.4089 2.568 78.9049 2.488 79.4409 2.488C80.0889 2.488 80.6449 2.644 81.1089 2.956C81.5729 3.268 81.9249 3.724 82.1649 4.324C82.3729 4.836 82.5209 5.408 82.6089 6.04C82.6969 6.672 82.7409 7.348 82.7409 8.068C82.7409 8.612 82.7129 9.032 82.6569 9.328C82.6009 9.624 82.5129 9.832 82.3929 9.952C82.2809 10.064 82.1289 10.12 81.9369 10.12ZM79.2849 8.776C79.5489 8.776 79.8169 8.74 80.0889 8.668C80.3609 8.588 80.5889 8.472 80.7729 8.32C80.9569 8.168 81.0489 7.98 81.0489 7.756C81.0489 7.564 80.9689 7.408 80.8089 7.288C80.6569 7.16 80.4529 7.064 80.1969 7C79.9489 6.936 79.6809 6.904 79.3929 6.904C78.9049 6.904 78.5329 6.988 78.2769 7.156C78.0289 7.324 77.9049 7.548 77.9049 7.828C77.9049 8.132 78.0209 8.368 78.2529 8.536C78.4929 8.696 78.8369 8.776 79.2849 8.776ZM85.5007 10.024C85.2527 10.024 85.0567 9.968 84.9127 9.856C84.7687 9.736 84.6527 9.54 84.5647 9.268C84.4447 8.868 84.3527 8.364 84.2887 7.756C84.2327 7.14 84.2047 6.384 84.2047 5.488C84.2047 4.936 84.2247 4.384 84.2647 3.832C84.3127 3.272 84.3727 2.764 84.4447 2.308C84.5167 1.844 84.5927 1.484 84.6727 1.228C84.7607 0.956 84.8647 0.767999 84.9847 0.663999C85.1047 0.56 85.2407 0.508 85.3927 0.508C85.5527 0.508 85.6807 0.564 85.7767 0.676C85.8727 0.779999 85.9487 0.967999 86.0047 1.24C86.0527 1.504 86.0887 1.828 86.1127 2.212C86.1447 2.596 86.1607 3.008 86.1607 3.448C86.1607 4.048 86.1327 4.68 86.0767 5.344C86.0207 6.008 85.9447 6.66 85.8487 7.3C85.7607 7.94 85.6527 8.528 85.5247 9.064L85.1887 8.896C85.3967 8.64 85.6327 8.44 85.8967 8.296C86.1687 8.152 86.4167 8.08 86.6407 8.08C86.8247 8.08 86.9647 8.132 87.0607 8.236C87.1647 8.332 87.2167 8.484 87.2167 8.692C87.2167 8.9 87.1247 9.108 86.9407 9.316C86.7647 9.524 86.5447 9.696 86.2807 9.832C86.0167 9.96 85.7567 10.024 85.5007 10.024Z"></path>
</svg>
