<svg xmlns="http://www.w3.org/2000/svg" fill="none" viewBox="0 0 130 13" height="13" width="130">
<path fill="black" d="M3.732 1.18C4.324 1.18 4.82 1.212 5.22 1.276C5.628 1.332 5.956 1.404 6.204 1.492C6.468 1.596 6.648 1.716 6.744 1.852C6.848 1.988 6.9 2.144 6.9 2.32C6.9 2.576 6.8 2.784 6.6 2.944C6.408 3.104 6.112 3.184 5.712 3.184C5.44 3.184 5.148 3.156 4.836 3.1C4.524 3.044 4.204 2.96 3.876 2.848L4.032 2.68C4.104 3.096 4.168 3.556 4.224 4.06C4.28 4.564 4.328 5.076 4.368 5.596C4.416 6.108 4.448 6.592 4.464 7.048C4.488 7.504 4.5 7.892 4.5 8.212C4.5 8.836 4.42 9.304 4.26 9.616C4.108 9.928 3.844 10.084 3.468 10.084C3.124 10.084 2.876 9.944 2.724 9.664C2.572 9.376 2.496 8.94 2.496 8.356C2.496 7.972 2.512 7.532 2.544 7.036C2.584 6.54 2.636 6.028 2.7 5.5C2.764 4.972 2.832 4.468 2.904 3.988C2.984 3.5 3.064 3.076 3.144 2.716L3.36 2.848C3.184 2.912 2.976 2.976 2.736 3.04C2.496 3.096 2.256 3.144 2.016 3.184C1.776 3.216 1.564 3.232 1.38 3.232C0.972 3.232 0.684 3.168 0.516 3.04C0.348 2.904 0.264 2.724 0.264 2.5C0.264 2.292 0.328 2.116 0.456 1.972C0.584 1.82 0.78 1.688 1.044 1.576C1.348 1.448 1.72 1.352 2.16 1.288C2.608 1.216 3.132 1.18 3.732 1.18ZM8.94816 0.796C9.26816 0.796 9.49616 0.884 9.63216 1.06C9.77616 1.236 9.84816 1.44 9.84816 1.672C9.84816 1.96 9.76016 2.184 9.58416 2.344C9.41616 2.496 9.17616 2.572 8.86416 2.572C8.56016 2.572 8.33216 2.488 8.18016 2.32C8.02816 2.144 7.95216 1.94 7.95216 1.708C7.95216 1.404 8.04416 1.176 8.22816 1.024C8.41216 0.872 8.65216 0.796 8.94816 0.796ZM9.02016 3.472C9.27616 3.472 9.47616 3.712 9.62016 4.192C9.77216 4.672 9.84816 5.436 9.84816 6.484C9.84816 7.772 9.75616 8.7 9.57216 9.268C9.38816 9.836 9.10816 10.12 8.73216 10.12C8.44416 10.12 8.23216 9.912 8.09616 9.496C7.96016 9.072 7.89216 8.336 7.89216 7.288C7.89216 6 7.99616 5.044 8.20416 4.42C8.42016 3.788 8.69216 3.472 9.02016 3.472ZM13.342 2.776H13.102C13.078 2.424 13.086 2.092 13.126 1.78C13.166 1.46 13.25 1.204 13.378 1.012C13.514 0.812 13.706 0.711999 13.954 0.711999C14.178 0.711999 14.342 0.783999 14.446 0.927999C14.55 1.072 14.602 1.272 14.602 1.528C14.602 2.032 14.506 2.464 14.314 2.824L14.098 2.8C14.53 2.648 15.018 2.572 15.562 2.572C15.906 2.572 16.178 2.64 16.378 2.776C16.586 2.904 16.69 3.124 16.69 3.436C16.69 3.732 16.57 3.956 16.33 4.108C16.09 4.26 15.79 4.336 15.43 4.336C15.214 4.336 14.982 4.328 14.734 4.312C14.494 4.288 14.258 4.252 14.026 4.204L14.23 3.952C14.302 4.256 14.37 4.604 14.434 4.996C14.506 5.38 14.57 5.78 14.626 6.196C14.682 6.612 14.726 7.016 14.758 7.408C14.79 7.8 14.806 8.152 14.806 8.464C14.806 8.976 14.726 9.38 14.566 9.676C14.406 9.972 14.17 10.12 13.858 10.12C13.61 10.12 13.414 10.044 13.27 9.892C13.134 9.74 13.034 9.548 12.97 9.316C12.914 9.076 12.878 8.828 12.862 8.572C12.854 8.316 12.85 8.084 12.85 7.876C12.85 7.524 12.866 7.128 12.898 6.688C12.93 6.24 12.974 5.78 13.03 5.308C13.094 4.836 13.166 4.38 13.246 3.94L13.486 4.144C13.078 4.352 12.574 4.456 11.974 4.456C11.606 4.456 11.322 4.388 11.122 4.252C10.922 4.116 10.822 3.904 10.822 3.616C10.822 3.304 10.934 3.064 11.158 2.896C11.382 2.72 11.682 2.632 12.058 2.632C12.306 2.632 12.538 2.648 12.754 2.68C12.978 2.704 13.174 2.736 13.342 2.776ZM18.7216 0.796C19.0416 0.796 19.2696 0.884 19.4056 1.06C19.5496 1.236 19.6216 1.44 19.6216 1.672C19.6216 1.96 19.5336 2.184 19.3576 2.344C19.1896 2.496 18.9496 2.572 18.6376 2.572C18.3336 2.572 18.1056 2.488 17.9536 2.32C17.8016 2.144 17.7256 1.94 17.7256 1.708C17.7256 1.404 17.8176 1.176 18.0016 1.024C18.1856 0.872 18.4256 0.796 18.7216 0.796ZM18.7936 3.472C19.0496 3.472 19.2496 3.712 19.3936 4.192C19.5456 4.672 19.6216 5.436 19.6216 6.484C19.6216 7.772 19.5296 8.7 19.3456 9.268C19.1616 9.836 18.8816 10.12 18.5056 10.12C18.2176 10.12 18.0056 9.912 17.8696 9.496C17.7336 9.072 17.6656 8.336 17.6656 7.288C17.6656 6 17.7696 5.044 17.9776 4.42C18.1936 3.788 18.4656 3.472 18.7936 3.472ZM21.9035 10.12C21.7515 10.12 21.6275 10.076 21.5315 9.988C21.4355 9.892 21.3675 9.756 21.3275 9.58C21.2635 9.284 21.2075 8.856 21.1595 8.296C21.1115 7.736 21.0875 7.116 21.0875 6.436C21.0875 5.596 21.1155 4.788 21.1715 4.012C21.2355 3.236 21.3155 2.6 21.4115 2.104C21.5155 1.568 21.6435 1.176 21.7955 0.927999C21.9475 0.671999 22.1475 0.543999 22.3955 0.543999C22.6195 0.543999 22.7915 0.648 22.9115 0.856C23.0315 1.056 23.0915 1.404 23.0915 1.9C23.0915 2.396 23.0715 2.928 23.0315 3.496C22.9995 4.064 22.9435 4.672 22.8635 5.32H22.9115C23.4315 4.616 23.9155 4.052 24.3635 3.628C24.8195 3.204 25.2355 2.896 25.6115 2.704C25.9955 2.512 26.3355 2.416 26.6315 2.416C26.8635 2.416 27.0355 2.488 27.1475 2.632C27.2595 2.776 27.3155 2.952 27.3155 3.16C27.3155 3.568 26.9875 4.024 26.3315 4.528C25.6835 5.032 24.7475 5.548 23.5235 6.076L23.5355 5.884C24.2955 6.276 24.9475 6.688 25.4915 7.12C26.0435 7.544 26.4635 7.948 26.7515 8.332C27.0475 8.708 27.1955 9.024 27.1955 9.28C27.1955 9.488 27.1275 9.66 26.9915 9.796C26.8635 9.924 26.6755 9.988 26.4275 9.988C26.1155 9.988 25.7675 9.872 25.3835 9.64C25.0075 9.4 24.6155 9.044 24.2075 8.572C23.7995 8.1 23.3915 7.508 22.9835 6.796H22.9355C22.9275 7.3 22.8955 7.792 22.8395 8.272C22.7915 8.744 22.7275 9.132 22.6475 9.436C22.5915 9.644 22.5035 9.812 22.3835 9.94C22.2715 10.06 22.1115 10.12 21.9035 10.12ZM34.0691 1.372C35.0211 1.372 35.7211 1.616 36.1691 2.104C36.6251 2.592 36.8531 3.232 36.8531 4.024C36.8531 4.568 36.7251 5.04 36.4691 5.44C36.2211 5.84 35.8811 6.152 35.4491 6.376C35.0171 6.592 34.5291 6.7 33.9851 6.7C33.7291 6.7 33.4571 6.672 33.1691 6.616C32.8891 6.56 32.5971 6.452 32.2931 6.292L32.3531 6.136C32.4171 6.336 32.4691 6.584 32.5091 6.88C32.5571 7.168 32.5931 7.468 32.6171 7.78C32.6491 8.084 32.6651 8.364 32.6651 8.62C32.6651 9.092 32.5851 9.456 32.4251 9.712C32.2731 9.96 32.0451 10.084 31.7411 10.084C31.4851 10.084 31.2811 10.004 31.1291 9.844C30.9851 9.684 30.8851 9.42 30.8291 9.052C30.7731 8.684 30.7451 8.192 30.7451 7.576C30.7451 6.392 30.7971 5.384 30.9011 4.552C31.0131 3.712 31.2011 3.052 31.4651 2.572C31.6731 2.204 31.9931 1.912 32.4251 1.696C32.8651 1.48 33.4131 1.372 34.0691 1.372ZM33.8411 5.284C34.3211 5.284 34.7091 5.156 35.0051 4.9C35.3091 4.644 35.4611 4.272 35.4611 3.784C35.4611 3.464 35.3531 3.2 35.1371 2.992C34.9291 2.776 34.6011 2.668 34.1531 2.668C33.8251 2.668 33.5411 2.744 33.3011 2.896C33.0611 3.04 32.8771 3.244 32.7491 3.508C32.6291 3.764 32.5691 4.06 32.5691 4.396C32.5691 4.708 32.6691 4.936 32.8691 5.08C33.0771 5.216 33.4011 5.284 33.8411 5.284ZM40.7964 10.036C40.1564 10.036 39.5964 9.896 39.1164 9.616C38.6444 9.328 38.2764 8.92 38.0124 8.392C37.7564 7.864 37.6284 7.236 37.6284 6.508C37.6284 5.748 37.7604 5.084 38.0244 4.516C38.2884 3.948 38.6604 3.504 39.1404 3.184C39.6284 2.864 40.1924 2.704 40.8324 2.704C41.5204 2.704 42.1164 2.86 42.6204 3.172C43.1244 3.476 43.5164 3.904 43.7964 4.456C44.0764 5.008 44.2164 5.652 44.2164 6.388C44.2164 7.14 44.0764 7.788 43.7964 8.332C43.5164 8.876 43.1204 9.296 42.6084 9.592C42.0964 9.888 41.4924 10.036 40.7964 10.036ZM40.9644 8.416C41.4604 8.416 41.8524 8.22 42.1404 7.828C42.4364 7.428 42.5844 6.9 42.5844 6.244C42.5844 5.58 42.4364 5.052 42.1404 4.66C41.8524 4.268 41.4604 4.072 40.9644 4.072C40.4524 4.072 40.0484 4.268 39.7524 4.66C39.4564 5.052 39.3084 5.58 39.3084 6.244C39.3084 6.9 39.4564 7.428 39.7524 7.828C40.0484 8.22 40.4524 8.416 40.9644 8.416ZM47.3381 2.776H47.0981C47.0741 2.424 47.0821 2.092 47.1221 1.78C47.1621 1.46 47.2461 1.204 47.3741 1.012C47.5101 0.812 47.7021 0.711999 47.9501 0.711999C48.1741 0.711999 48.3381 0.783999 48.4421 0.927999C48.5461 1.072 48.5981 1.272 48.5981 1.528C48.5981 2.032 48.5021 2.464 48.3101 2.824L48.0941 2.8C48.5261 2.648 49.0141 2.572 49.5581 2.572C49.9021 2.572 50.1741 2.64 50.3741 2.776C50.5821 2.904 50.6861 3.124 50.6861 3.436C50.6861 3.732 50.5661 3.956 50.3261 4.108C50.0861 4.26 49.7861 4.336 49.4261 4.336C49.2101 4.336 48.9781 4.328 48.7301 4.312C48.4901 4.288 48.2541 4.252 48.0221 4.204L48.2261 3.952C48.2981 4.256 48.3661 4.604 48.4301 4.996C48.5021 5.38 48.5661 5.78 48.6221 6.196C48.6781 6.612 48.7221 7.016 48.7541 7.408C48.7861 7.8 48.8021 8.152 48.8021 8.464C48.8021 8.976 48.7221 9.38 48.5621 9.676C48.4021 9.972 48.1661 10.12 47.8541 10.12C47.6061 10.12 47.4101 10.044 47.2661 9.892C47.1301 9.74 47.0301 9.548 46.9661 9.316C46.9101 9.076 46.8741 8.828 46.8581 8.572C46.8501 8.316 46.8461 8.084 46.8461 7.876C46.8461 7.524 46.8621 7.128 46.8941 6.688C46.9261 6.24 46.9701 5.78 47.0261 5.308C47.0901 4.836 47.1621 4.38 47.2421 3.94L47.4821 4.144C47.0741 4.352 46.5701 4.456 45.9701 4.456C45.6021 4.456 45.3181 4.388 45.1181 4.252C44.9181 4.116 44.8181 3.904 44.8181 3.616C44.8181 3.304 44.9301 3.064 45.1541 2.896C45.3781 2.72 45.6781 2.632 46.0541 2.632C46.3021 2.632 46.5341 2.648 46.7501 2.68C46.9741 2.704 47.1701 2.736 47.3381 2.776ZM54.4605 10.036C53.8205 10.036 53.2605 9.896 52.7805 9.616C52.3085 9.328 51.9405 8.92 51.6765 8.392C51.4205 7.864 51.2925 7.236 51.2925 6.508C51.2925 5.748 51.4245 5.084 51.6885 4.516C51.9525 3.948 52.3245 3.504 52.8045 3.184C53.2925 2.864 53.8565 2.704 54.4965 2.704C55.1845 2.704 55.7805 2.86 56.2845 3.172C56.7885 3.476 57.1805 3.904 57.4605 4.456C57.7405 5.008 57.8805 5.652 57.8805 6.388C57.8805 7.14 57.7405 7.788 57.4605 8.332C57.1805 8.876 56.7845 9.296 56.2725 9.592C55.7605 9.888 55.1565 10.036 54.4605 10.036ZM54.6285 8.416C55.1245 8.416 55.5165 8.22 55.8045 7.828C56.1005 7.428 56.2485 6.9 56.2485 6.244C56.2485 5.58 56.1005 5.052 55.8045 4.66C55.5165 4.268 55.1245 4.072 54.6285 4.072C54.1165 4.072 53.7125 4.268 53.4165 4.66C53.1205 5.052 52.9725 5.58 52.9725 6.244C52.9725 6.9 53.1205 7.428 53.4165 7.828C53.7125 8.22 54.1165 8.416 54.6285 8.416ZM60.3154 2.536C60.5714 2.536 60.7434 2.64 60.8314 2.848C60.9274 3.056 60.9754 3.364 60.9754 3.772C60.9754 3.868 60.9674 3.972 60.9514 4.084C60.9434 4.188 60.9274 4.284 60.9034 4.372L60.8794 4.132C61.0714 3.612 61.3674 3.208 61.7674 2.92C62.1674 2.624 62.5914 2.476 63.0394 2.476C63.5354 2.476 63.9474 2.616 64.2754 2.896C64.6114 3.176 64.8594 3.568 65.0194 4.072C65.1874 4.576 65.2714 5.172 65.2714 5.86C65.2714 6.284 65.2514 6.704 65.2114 7.12C65.1794 7.528 65.1314 7.904 65.0674 8.248C65.0114 8.584 64.9474 8.86 64.8754 9.076C64.7794 9.348 64.6554 9.552 64.5034 9.688C64.3514 9.816 64.1714 9.88 63.9634 9.88C63.7554 9.88 63.5954 9.804 63.4834 9.652C63.3714 9.5 63.3154 9.296 63.3154 9.04C63.3154 8.768 63.3354 8.44 63.3754 8.056C63.4154 7.664 63.4514 7.268 63.4834 6.868C63.5234 6.46 63.5434 6.092 63.5434 5.764C63.5434 4.644 63.1754 4.084 62.4394 4.084C62.0474 4.084 61.7194 4.26 61.4554 4.612C61.1914 4.956 61.0154 5.448 60.9274 6.088C60.9034 6.304 60.8914 6.572 60.8914 6.892C60.8914 7.212 60.8914 7.532 60.8914 7.852C60.8994 8.164 60.8914 8.428 60.8674 8.644C60.8354 9.124 60.7434 9.468 60.5914 9.676C60.4474 9.884 60.2474 9.988 59.9914 9.988C59.6954 9.988 59.4714 9.852 59.3194 9.58C59.1674 9.3 59.0914 8.832 59.0914 8.176C59.0914 7.84 59.0994 7.464 59.1154 7.048C59.1314 6.632 59.1514 6.216 59.1754 5.8C59.2074 5.376 59.2434 4.992 59.2834 4.648C59.3634 4 59.4794 3.488 59.6314 3.112C59.7834 2.728 60.0114 2.536 60.3154 2.536ZM69.024 9.808C68.272 9.808 67.66 9.52 67.188 8.944C66.716 8.36 66.48 7.476 66.48 6.292C66.48 5.028 66.708 4.104 67.164 3.52C67.62 2.936 68.22 2.644 68.964 2.644C69.404 2.644 69.792 2.756 70.128 2.98C70.464 3.204 70.752 3.52 70.992 3.928L70.896 4.096C70.872 3.984 70.852 3.864 70.836 3.736C70.82 3.608 70.812 3.512 70.812 3.448C70.812 3.12 70.864 2.868 70.968 2.692C71.08 2.508 71.252 2.416 71.484 2.416C71.74 2.416 71.94 2.52 72.084 2.728C72.236 2.936 72.352 3.232 72.432 3.616C72.536 4.008 72.624 4.508 72.696 5.116C72.768 5.716 72.804 6.324 72.804 6.94C72.804 7.708 72.776 8.352 72.72 8.872C72.664 9.392 72.572 9.824 72.444 10.168C72.316 10.512 72.148 10.812 71.94 11.068C71.596 11.484 71.152 11.8 70.608 12.016C70.072 12.24 69.452 12.352 68.748 12.352C68.244 12.352 67.84 12.304 67.536 12.208C67.232 12.12 67.012 11.996 66.876 11.836C66.748 11.684 66.684 11.512 66.684 11.32C66.684 11.12 66.74 10.952 66.852 10.816C66.964 10.688 67.132 10.624 67.356 10.624C67.556 10.624 67.788 10.656 68.052 10.72C68.324 10.784 68.644 10.816 69.012 10.816C69.788 10.816 70.336 10.632 70.656 10.264C70.984 9.904 71.148 9.384 71.148 8.704C71.148 8.52 71.136 8.304 71.112 8.056L71.28 8.116C71.08 8.628 70.784 9.04 70.392 9.352C70 9.656 69.544 9.808 69.024 9.808ZM69.48 8.332C69.736 8.332 69.992 8.264 70.248 8.128C70.504 7.992 70.716 7.768 70.884 7.456C71.052 7.144 71.136 6.724 71.136 6.196C71.136 5.564 70.988 5.048 70.692 4.648C70.396 4.248 69.98 4.048 69.444 4.048C68.98 4.048 68.64 4.224 68.424 4.576C68.208 4.928 68.1 5.46 68.1 6.172C68.1 6.852 68.208 7.384 68.424 7.768C68.64 8.144 68.992 8.332 69.48 8.332ZM78.3495 10.276C77.8455 10.276 77.4535 10.244 77.1735 10.18C76.9015 10.116 76.7135 10.028 76.6095 9.916C76.5055 9.796 76.4495 9.664 76.4415 9.52C76.4415 9.296 76.5735 9.108 76.8375 8.956C77.1095 8.804 77.6055 8.708 78.3255 8.668L78.1335 8.896C78.0455 8.488 77.9815 8.012 77.9415 7.468C77.9015 6.924 77.8855 6.36 77.8935 5.776C77.9015 5.192 77.9295 4.636 77.9775 4.108C78.0255 3.572 78.0935 3.116 78.1815 2.74L79.2255 2.668C79.0495 2.74 78.8295 2.804 78.5655 2.86C78.3015 2.908 78.0295 2.932 77.7495 2.932C77.2375 2.932 76.8575 2.876 76.6095 2.764C76.3695 2.652 76.2495 2.496 76.2495 2.296C76.2495 1.944 76.4615 1.672 76.8855 1.48C77.3175 1.28 77.9775 1.18 78.8655 1.18C79.9215 1.18 80.8095 1.356 81.5295 1.708C82.2575 2.052 82.8095 2.536 83.1855 3.16C83.5615 3.776 83.7495 4.496 83.7495 5.32C83.7495 6.04 83.6215 6.704 83.3655 7.312C83.1095 7.912 82.7415 8.436 82.2615 8.884C81.7895 9.324 81.2215 9.668 80.5575 9.916C79.9015 10.156 79.1655 10.276 78.3495 10.276ZM80.0535 8.428C80.3255 8.428 80.6135 8.32 80.9175 8.104C81.2295 7.88 81.4935 7.556 81.7095 7.132C81.9255 6.7 82.0335 6.168 82.0335 5.536C82.0335 5.072 81.9655 4.668 81.8295 4.324C81.7015 3.972 81.5335 3.68 81.3255 3.448C81.1175 3.216 80.8975 3.044 80.6655 2.932C80.4335 2.812 80.2135 2.752 80.0055 2.752C79.8375 2.752 79.7055 2.856 79.6095 3.064C79.5215 3.272 79.4575 3.584 79.4175 4C79.3775 4.408 79.3575 4.916 79.3575 5.524C79.3575 6.468 79.4055 7.188 79.5015 7.684C79.5975 8.18 79.7815 8.428 80.0535 8.428ZM86.1278 0.796C86.4478 0.796 86.6758 0.884 86.8118 1.06C86.9558 1.236 87.0278 1.44 87.0278 1.672C87.0278 1.96 86.9398 2.184 86.7638 2.344C86.5958 2.496 86.3558 2.572 86.0438 2.572C85.7398 2.572 85.5118 2.488 85.3598 2.32C85.2078 2.144 85.1318 1.94 85.1318 1.708C85.1318 1.404 85.2238 1.176 85.4078 1.024C85.5918 0.872 85.8318 0.796 86.1278 0.796ZM86.1998 3.472C86.4558 3.472 86.6558 3.712 86.7998 4.192C86.9518 4.672 87.0278 5.436 87.0278 6.484C87.0278 7.772 86.9358 8.7 86.7518 9.268C86.5678 9.836 86.2878 10.12 85.9118 10.12C85.6238 10.12 85.4118 9.912 85.2758 9.496C85.1398 9.072 85.0718 8.336 85.0718 7.288C85.0718 6 85.1758 5.044 85.3838 4.42C85.5998 3.788 85.8718 3.472 86.1998 3.472ZM93.7377 10.12C93.4657 10.12 93.2777 10.016 93.1737 9.808C93.0777 9.592 93.0217 9.252 93.0057 8.788L93.1257 8.848C92.6777 9.72 91.8297 10.156 90.5817 10.156C90.0137 10.156 89.5417 10.056 89.1657 9.856C88.7897 9.648 88.5097 9.376 88.3257 9.04C88.1497 8.696 88.0617 8.324 88.0617 7.924C88.0617 7.236 88.3017 6.692 88.7817 6.292C89.2617 5.884 89.8977 5.68 90.6897 5.68C91.2097 5.68 91.6617 5.756 92.0457 5.908C92.4297 6.06 92.7577 6.272 93.0297 6.544L92.8257 6.52C92.7697 5.712 92.5937 5.136 92.2977 4.792C92.0097 4.44 91.5977 4.264 91.0617 4.264C90.7497 4.264 90.4617 4.312 90.1977 4.408C89.9337 4.504 89.6897 4.604 89.4657 4.708C89.2497 4.804 89.0457 4.852 88.8537 4.852C88.6617 4.852 88.5097 4.788 88.3977 4.66C88.2937 4.532 88.2417 4.368 88.2417 4.168C88.2417 3.88 88.3777 3.608 88.6497 3.352C88.9297 3.096 89.2977 2.888 89.7537 2.728C90.2097 2.568 90.7057 2.488 91.2417 2.488C91.8897 2.488 92.4457 2.644 92.9097 2.956C93.3737 3.268 93.7257 3.724 93.9657 4.324C94.1737 4.836 94.3217 5.408 94.4097 6.04C94.4977 6.672 94.5417 7.348 94.5417 8.068C94.5417 8.612 94.5137 9.032 94.4577 9.328C94.4017 9.624 94.3137 9.832 94.1937 9.952C94.0817 10.064 93.9297 10.12 93.7377 10.12ZM91.0857 8.776C91.3497 8.776 91.6177 8.74 91.8897 8.668C92.1617 8.588 92.3897 8.472 92.5737 8.32C92.7577 8.168 92.8497 7.98 92.8497 7.756C92.8497 7.564 92.7697 7.408 92.6097 7.288C92.4577 7.16 92.2537 7.064 91.9977 7C91.7497 6.936 91.4817 6.904 91.1937 6.904C90.7057 6.904 90.3337 6.988 90.0777 7.156C89.8297 7.324 89.7057 7.548 89.7057 7.828C89.7057 8.132 89.8217 8.368 90.0537 8.536C90.2937 8.696 90.6377 8.776 91.0857 8.776ZM98.2974 9.808C97.5454 9.808 96.9334 9.52 96.4614 8.944C95.9894 8.36 95.7534 7.476 95.7534 6.292C95.7534 5.028 95.9814 4.104 96.4374 3.52C96.8934 2.936 97.4934 2.644 98.2374 2.644C98.6774 2.644 99.0654 2.756 99.4014 2.98C99.7374 3.204 100.025 3.52 100.265 3.928L100.169 4.096C100.145 3.984 100.125 3.864 100.109 3.736C100.093 3.608 100.085 3.512 100.085 3.448C100.085 3.12 100.137 2.868 100.241 2.692C100.353 2.508 100.525 2.416 100.757 2.416C101.013 2.416 101.213 2.52 101.357 2.728C101.509 2.936 101.625 3.232 101.705 3.616C101.809 4.008 101.897 4.508 101.969 5.116C102.041 5.716 102.077 6.324 102.077 6.94C102.077 7.708 102.049 8.352 101.993 8.872C101.937 9.392 101.845 9.824 101.717 10.168C101.589 10.512 101.421 10.812 101.213 11.068C100.869 11.484 100.425 11.8 99.8814 12.016C99.3454 12.24 98.7254 12.352 98.0214 12.352C97.5174 12.352 97.1134 12.304 96.8094 12.208C96.5054 12.12 96.2854 11.996 96.1494 11.836C96.0214 11.684 95.9574 11.512 95.9574 11.32C95.9574 11.12 96.0134 10.952 96.1254 10.816C96.2374 10.688 96.4054 10.624 96.6294 10.624C96.8294 10.624 97.0614 10.656 97.3254 10.72C97.5974 10.784 97.9174 10.816 98.2854 10.816C99.0614 10.816 99.6094 10.632 99.9294 10.264C100.257 9.904 100.421 9.384 100.421 8.704C100.421 8.52 100.409 8.304 100.385 8.056L100.553 8.116C100.353 8.628 100.057 9.04 99.6654 9.352C99.2734 9.656 98.8174 9.808 98.2974 9.808ZM98.7534 8.332C99.0094 8.332 99.2654 8.264 99.5214 8.128C99.7774 7.992 99.9894 7.768 100.157 7.456C100.325 7.144 100.409 6.724 100.409 6.196C100.409 5.564 100.261 5.048 99.9654 4.648C99.6694 4.248 99.2534 4.048 98.7174 4.048C98.2534 4.048 97.9134 4.224 97.6974 4.576C97.4814 4.928 97.3734 5.46 97.3734 6.172C97.3734 6.852 97.4814 7.384 97.6974 7.768C97.9134 8.144 98.2654 8.332 98.7534 8.332ZM106.457 10.036C105.817 10.036 105.257 9.896 104.777 9.616C104.305 9.328 103.937 8.92 103.673 8.392C103.417 7.864 103.289 7.236 103.289 6.508C103.289 5.748 103.421 5.084 103.685 4.516C103.949 3.948 104.321 3.504 104.801 3.184C105.289 2.864 105.853 2.704 106.493 2.704C107.181 2.704 107.777 2.86 108.281 3.172C108.785 3.476 109.177 3.904 109.457 4.456C109.737 5.008 109.877 5.652 109.877 6.388C109.877 7.14 109.737 7.788 109.457 8.332C109.177 8.876 108.781 9.296 108.269 9.592C107.757 9.888 107.153 10.036 106.457 10.036ZM106.625 8.416C107.121 8.416 107.513 8.22 107.801 7.828C108.097 7.428 108.245 6.9 108.245 6.244C108.245 5.58 108.097 5.052 107.801 4.66C107.513 4.268 107.121 4.072 106.625 4.072C106.113 4.072 105.709 4.268 105.413 4.66C105.117 5.052 104.969 5.58 104.969 6.244C104.969 6.9 105.117 7.428 105.413 7.828C105.709 8.22 106.113 8.416 106.625 8.416ZM112.311 2.536C112.567 2.536 112.739 2.64 112.827 2.848C112.923 3.056 112.971 3.364 112.971 3.772C112.971 3.868 112.963 3.972 112.947 4.084C112.939 4.188 112.923 4.284 112.899 4.372L112.875 4.132C113.067 3.612 113.363 3.208 113.763 2.92C114.163 2.624 114.587 2.476 115.035 2.476C115.531 2.476 115.943 2.616 116.271 2.896C116.607 3.176 116.855 3.568 117.015 4.072C117.183 4.576 117.267 5.172 117.267 5.86C117.267 6.284 117.247 6.704 117.207 7.12C117.175 7.528 117.127 7.904 117.063 8.248C117.007 8.584 116.943 8.86 116.871 9.076C116.775 9.348 116.651 9.552 116.499 9.688C116.347 9.816 116.167 9.88 115.959 9.88C115.751 9.88 115.591 9.804 115.479 9.652C115.367 9.5 115.311 9.296 115.311 9.04C115.311 8.768 115.331 8.44 115.371 8.056C115.411 7.664 115.447 7.268 115.479 6.868C115.519 6.46 115.539 6.092 115.539 5.764C115.539 4.644 115.171 4.084 114.435 4.084C114.043 4.084 113.715 4.26 113.451 4.612C113.187 4.956 113.011 5.448 112.923 6.088C112.899 6.304 112.887 6.572 112.887 6.892C112.887 7.212 112.887 7.532 112.887 7.852C112.895 8.164 112.887 8.428 112.863 8.644C112.831 9.124 112.739 9.468 112.587 9.676C112.443 9.884 112.243 9.988 111.987 9.988C111.691 9.988 111.467 9.852 111.315 9.58C111.163 9.3 111.087 8.832 111.087 8.176C111.087 7.84 111.095 7.464 111.111 7.048C111.127 6.632 111.147 6.216 111.171 5.8C111.203 5.376 111.239 4.992 111.279 4.648C111.359 4 111.475 3.488 111.627 3.112C111.779 2.728 112.007 2.536 112.311 2.536ZM123.972 10.12C123.7 10.12 123.512 10.016 123.408 9.808C123.312 9.592 123.256 9.252 123.24 8.788L123.36 8.848C122.912 9.72 122.064 10.156 120.816 10.156C120.248 10.156 119.776 10.056 119.4 9.856C119.024 9.648 118.744 9.376 118.56 9.04C118.384 8.696 118.296 8.324 118.296 7.924C118.296 7.236 118.536 6.692 119.016 6.292C119.496 5.884 120.132 5.68 120.924 5.68C121.444 5.68 121.896 5.756 122.28 5.908C122.664 6.06 122.992 6.272 123.264 6.544L123.06 6.52C123.004 5.712 122.828 5.136 122.532 4.792C122.244 4.44 121.832 4.264 121.296 4.264C120.984 4.264 120.696 4.312 120.432 4.408C120.168 4.504 119.924 4.604 119.7 4.708C119.484 4.804 119.28 4.852 119.088 4.852C118.896 4.852 118.744 4.788 118.632 4.66C118.528 4.532 118.476 4.368 118.476 4.168C118.476 3.88 118.612 3.608 118.884 3.352C119.164 3.096 119.532 2.888 119.988 2.728C120.444 2.568 120.94 2.488 121.476 2.488C122.124 2.488 122.68 2.644 123.144 2.956C123.608 3.268 123.96 3.724 124.2 4.324C124.408 4.836 124.556 5.408 124.644 6.04C124.732 6.672 124.776 7.348 124.776 8.068C124.776 8.612 124.748 9.032 124.692 9.328C124.636 9.624 124.548 9.832 124.428 9.952C124.316 10.064 124.164 10.12 123.972 10.12ZM121.32 8.776C121.584 8.776 121.852 8.74 122.124 8.668C122.396 8.588 122.624 8.472 122.808 8.32C122.992 8.168 123.084 7.98 123.084 7.756C123.084 7.564 123.004 7.408 122.844 7.288C122.692 7.16 122.488 7.064 122.232 7C121.984 6.936 121.716 6.904 121.428 6.904C120.94 6.904 120.568 6.988 120.312 7.156C120.064 7.324 119.94 7.548 119.94 7.828C119.94 8.132 120.056 8.368 120.288 8.536C120.528 8.696 120.872 8.776 121.32 8.776ZM127.536 10.024C127.288 10.024 127.092 9.968 126.948 9.856C126.804 9.736 126.688 9.54 126.6 9.268C126.48 8.868 126.388 8.364 126.324 7.756C126.268 7.14 126.24 6.384 126.24 5.488C126.24 4.936 126.26 4.384 126.3 3.832C126.348 3.272 126.408 2.764 126.48 2.308C126.552 1.844 126.628 1.484 126.708 1.228C126.796 0.956 126.9 0.767999 127.02 0.663999C127.14 0.56 127.276 0.508 127.428 0.508C127.588 0.508 127.716 0.564 127.812 0.676C127.908 0.779999 127.984 0.967999 128.04 1.24C128.088 1.504 128.124 1.828 128.148 2.212C128.18 2.596 128.196 3.008 128.196 3.448C128.196 4.048 128.168 4.68 128.112 5.344C128.056 6.008 127.98 6.66 127.884 7.3C127.796 7.94 127.688 8.528 127.56 9.064L127.224 8.896C127.432 8.64 127.668 8.44 127.932 8.296C128.204 8.152 128.452 8.08 128.676 8.08C128.86 8.08 129 8.132 129.096 8.236C129.2 8.332 129.252 8.484 129.252 8.692C129.252 8.9 129.16 9.108 128.976 9.316C128.8 9.524 128.58 9.696 128.316 9.832C128.052 9.96 127.792 10.024 127.536 10.024Z"></path>
</svg>
