<svg version="1.1" xmlns="http://www.w3.org/2000/svg" xmlns:xlink="http://www.w3.org/1999/xlink" width="304.25885" height="16.3054" viewBox="0,0,304.25885,16.3054"><g transform="translate(-87.87057,-171.8473)"><g data-paper-data="{&quot;isPaintingLayer&quot;:true}" fill="#060606" fill-rule="nonzero" stroke="none" stroke-width="1" stroke-linecap="butt" stroke-linejoin="miter" stroke-miterlimit="10" stroke-dasharray="" stroke-dashoffset="0" style="mix-blend-mode: normal"><path d="M93.43222,185.09957c-1.24326,0 -2.27747,-0.23105 -3.10264,-0.69315c-0.82517,-0.47307 -1.4413,-1.13321 -1.84838,-1.98041c-0.40708,-0.8472 -0.61062,-1.83741 -0.61062,-2.97062c0,-1.25426 0.22555,-2.34899 0.67664,-3.28418c0.46209,-0.9462 1.12773,-1.67785 1.99692,-2.19496c0.86917,-0.51711 1.9144,-0.77566 3.13566,-0.77566c1.14424,0 2.0574,0.20354 2.73957,0.61062c0.68217,0.39608 1.02321,0.90219 1.02321,1.51832c0,0.36308 -0.11553,0.65463 -0.34657,0.87468c-0.23105,0.20904 -0.56665,0.31357 -1.00671,0.31357c-0.28609,0 -0.56665,-0.06051 -0.84168,-0.18154c-0.27506,-0.12103 -0.57212,-0.23655 -0.89119,-0.34657c-0.30806,-0.12103 -0.67664,-0.18154 -1.10573,-0.18154c-0.55011,0 -1.06173,0.10453 -1.53481,0.31357c-0.46209,0.20904 -0.83617,0.56111 -1.12223,1.05622c-0.27506,0.48411 -0.41259,1.14424 -0.41259,1.98041c0,1.26523 0.27506,2.16195 0.82517,2.69006c0.56111,0.52811 1.29827,0.79217 2.21146,0.79217c0.31907,0 0.65463,-0.02748 1.00671,-0.08251c0.35207,-0.06602 0.68215,-0.1265 0.99021,-0.18154c0.30804,-0.06602 0.55559,-0.09902 0.74266,-0.09902c0.37405,0 0.67112,0.09349 0.89119,0.28056c0.22007,0.17601 0.33007,0.44006 0.33007,0.79217c0,0.50608 -0.31909,0.92419 -0.9572,1.25426c-0.6381,0.33007 -1.56783,0.4951 -2.78908,0.4951zM102.79651,184.96753c-0.88022,0 -1.65034,-0.19251 -2.31048,-0.57762c-0.64916,-0.39608 -1.15524,-0.9572 -1.51832,-1.68335c-0.3521,-0.72615 -0.52811,-1.58986 -0.52811,-2.59104c0,-1.04522 0.18154,-1.9584 0.54462,-2.73957c0.36308,-0.78117 0.87468,-1.39179 1.53481,-1.83188c0.67112,-0.44009 1.44678,-0.66013 2.32698,-0.66013c0.94614,0 1.76587,0.21455 2.45901,0.64364c0.69315,0.41809 1.23223,1.00671 1.61734,1.76587c0.38503,0.75915 0.57762,1.64484 0.57762,2.65705c0,1.03419 -0.19259,1.92537 -0.57762,2.67356c-0.38511,0.74818 -0.92972,1.3258 -1.63384,1.73286c-0.7042,0.40706 -1.53481,0.61062 -2.49202,0.61062zM103.02756,182.73957c0.68209,0 1.22125,-0.26958 1.61734,-0.80866c0.40706,-0.55014 0.61062,-1.27629 0.61062,-2.17845c0,-0.91319 -0.20357,-1.63934 -0.61062,-2.17845c-0.39608,-0.53911 -0.93525,-0.80866 -1.61734,-0.80866c-0.7042,0 -1.25979,0.26956 -1.66685,0.80866c-0.40714,0.53911 -0.61062,1.26526 -0.61062,2.17845c0,0.90216 0.20349,1.62831 0.61062,2.17845c0.40706,0.53908 0.96265,0.80866 1.66685,0.80866zM110.84862,174.65289c0.3521,0 0.58859,0.14302 0.70964,0.42909c0.13202,0.28606 0.19804,0.70964 0.19804,1.27077c0,0.13202 -0.01097,0.27506 -0.033,0.42909c-0.01097,0.14302 -0.033,0.27506 -0.06602,0.39608l-0.033,-0.33007c0.26406,-0.71515 0.67112,-1.27077 1.22125,-1.66685c0.55014,-0.40708 1.13321,-0.61062 1.74936,-0.61062c0.68217,0 1.24873,0.19253 1.69985,0.57762c0.46209,0.38509 0.80314,0.92419 1.02321,1.61734c0.23105,0.69315 0.34657,1.51281 0.34657,2.45901c0,0.58313 -0.02748,1.16077 -0.08251,1.73286c-0.04398,0.56111 -0.10999,1.07825 -0.19804,1.55132c-0.07699,0.46209 -0.16504,0.84168 -0.26406,1.13874c-0.13202,0.37405 -0.30259,0.65461 -0.5116,0.84168c-0.20902,0.17601 -0.45657,0.26406 -0.74266,0.26406c-0.28609,0 -0.50608,-0.10454 -0.66013,-0.31357c-0.15406,-0.20902 -0.23105,-0.48957 -0.23105,-0.84168c0,-0.37405 0.02748,-0.82517 0.08251,-1.35328c0.05503,-0.53908 0.10454,-1.0837 0.14853,-1.63384c0.05503,-0.56111 0.08251,-1.06722 0.08251,-1.51832c0,-1.54032 -0.50608,-2.31048 -1.51832,-2.31048c-0.53908,0 -0.99021,0.24204 -1.35328,0.72615c-0.36308,0.4731 -0.6051,1.14974 -0.72615,2.02992c-0.033,0.29706 -0.04951,0.66567 -0.04951,1.10573c0,0.44006 0,0.88022 0,1.32028c0.01097,0.42909 0,0.79217 -0.033,1.08923c-0.04398,0.66013 -0.17056,1.13321 -0.37958,1.4193c-0.19804,0.28609 -0.47307,0.42909 -0.82517,0.42909c-0.40706,0 -0.71518,-0.18707 -0.92419,-0.56111c-0.20902,-0.38511 -0.31357,-1.02874 -0.31357,-1.9309c0,-0.46209 0.01097,-0.97923 0.033,-1.55132c0.02203,-0.5721 0.04951,-1.14424 0.08251,-1.71636c0.04398,-0.58313 0.09349,-1.11124 0.14853,-1.58432c0.10999,-0.89119 0.26958,-1.59533 0.4786,-2.11244c0.20902,-0.52811 0.52258,-0.79217 0.9407,-0.79217zM122.46241,174.98297h-0.33007c-0.033,-0.48411 -0.02203,-0.9407 0.033,-1.36979c0.05496,-0.44009 0.17048,-0.79217 0.34657,-1.05622c0.18698,-0.27506 0.45104,-0.41259 0.79217,-0.41259c0.30804,0 0.53356,0.09902 0.67664,0.29706c0.143,0.19804 0.21455,0.4731 0.21455,0.82517c0,0.69315 -0.13202,1.28727 -0.39608,1.78237l-0.29706,-0.033c0.59413,-0.20904 1.26523,-0.31357 2.01342,-0.31357c0.47307,0 0.84712,0.09351 1.12223,0.28056c0.28601,0.17604 0.42909,0.4786 0.42909,0.90769c0,0.40708 -0.16504,0.71515 -0.4951,0.92419c-0.33007,0.20904 -0.74266,0.31357 -1.23776,0.31357c-0.29706,0 -0.61616,-0.011 -0.9572,-0.033c-0.33007,-0.033 -0.65469,-0.08251 -0.9737,-0.14853l0.28056,-0.34657c0.09902,0.41809 0.19251,0.89669 0.28056,1.43579c0.09902,0.52811 0.18698,1.07822 0.26406,1.65034c0.07699,0.5721 0.13747,1.12776 0.18154,1.66685c0.04398,0.53908 0.06602,1.02321 0.06602,1.4523c0,0.70412 -0.11008,1.25979 -0.33007,1.66685c-0.22007,0.40706 -0.54462,0.61062 -0.9737,0.61062c-0.34112,0 -0.61062,-0.10454 -0.80866,-0.31357c-0.18707,-0.20902 -0.32463,-0.47307 -0.41259,-0.79217c-0.07707,-0.33007 -0.12659,-0.67112 -0.14853,-1.02321c-0.01106,-0.3521 -0.01651,-0.67112 -0.01651,-0.9572c0,-0.48413 0.02195,-1.02874 0.06602,-1.63384c0.04398,-0.61613 0.10447,-1.24876 0.18154,-1.89789c0.08796,-0.64913 0.18698,-1.27626 0.29706,-1.88139l0.33007,0.28056c-0.56111,0.28606 -1.25426,0.42909 -2.07943,0.42909c-0.50616,0 -0.89671,-0.09351 -1.17174,-0.28056c-0.27512,-0.18704 -0.41259,-0.4786 -0.41259,-0.87468c0,-0.42909 0.15398,-0.75915 0.46209,-0.99021c0.30804,-0.24204 0.72063,-0.36308 1.23776,-0.36308c0.34104,0 0.66013,0.02201 0.9572,0.06602c0.30804,0.033 0.57762,0.07702 0.80866,0.13202zM132.25769,184.96753c-0.88022,0 -1.65034,-0.19251 -2.31048,-0.57762c-0.64916,-0.39608 -1.15524,-0.9572 -1.51832,-1.68335c-0.3521,-0.72615 -0.52811,-1.58986 -0.52811,-2.59104c0,-1.04522 0.18154,-1.9584 0.54462,-2.73957c0.36308,-0.78117 0.87468,-1.39179 1.53481,-1.83188c0.67112,-0.44009 1.44678,-0.66013 2.32698,-0.66013c0.94622,0 1.76587,0.21455 2.45901,0.64364c0.69315,0.41809 1.23223,1.00671 1.61734,1.76587c0.38511,0.75915 0.57762,1.64484 0.57762,2.65705c0,1.03419 -0.19251,1.92537 -0.57762,2.67356c-0.38511,0.74818 -0.92972,1.3258 -1.63384,1.73286c-0.70412,0.40706 -1.53481,0.61062 -2.49202,0.61062zM132.48873,182.73957c0.68217,0 1.22125,-0.26958 1.61734,-0.80866c0.40706,-0.55014 0.61062,-1.27629 0.61062,-2.17845c0,-0.91319 -0.20357,-1.63934 -0.61062,-2.17845c-0.39608,-0.53911 -0.93517,-0.80866 -1.61734,-0.80866c-0.70412,0 -1.25979,0.26956 -1.66685,0.80866c-0.40706,0.53911 -0.61062,1.26526 -0.61062,2.17845c0,0.90216 0.20357,1.62831 0.61062,2.17845c0.40706,0.53908 0.96273,0.80866 1.66685,0.80866zM140.3263,171.84731c0.3521,0 0.59413,0.13753 0.72615,0.41259c0.14308,0.27506 0.21455,0.68764 0.21455,1.23776c0,0.4731 -0.02748,1.06722 -0.08251,1.78237c-0.05496,0.71515 -0.1265,1.40279 -0.21455,2.06293h-0.09902c0.36308,-0.68215 0.8307,-1.23225 1.40279,-1.65034c0.57217,-0.41809 1.17727,-0.62713 1.81538,-0.62713c0.56111,0 1.06175,0.13753 1.50181,0.41259c0.44014,0.26406 0.79769,0.68215 1.07272,1.25426c0.25308,0.51711 0.44014,1.13323 0.56111,1.84838c0.12105,0.70414 0.18154,1.37528 0.18154,2.01342c0,1.02321 -0.07146,1.83741 -0.21455,2.44251c-0.13202,0.6051 -0.31901,1.04524 -0.56111,1.32028c-0.24202,0.26406 -0.52811,0.39608 -0.85817,0.39608c-0.69315,0 -1.03972,-0.56665 -1.03972,-1.69985c0,-0.55014 0.02756,-1.1167 0.08251,-1.69985c0.06602,-0.58315 0.09902,-1.1167 0.09902,-1.60083c0,-0.82517 -0.13202,-1.4413 -0.39608,-1.84838c-0.253,-0.41809 -0.62161,-0.62713 -1.10573,-0.62713c-0.6051,0 -1.09467,0.26956 -1.46881,0.80866c-0.37405,0.53911 -0.56111,1.28176 -0.56111,2.22796c0,0.4951 0.04406,1.03972 0.13202,1.63384c0.08805,0.58315 0.13202,1.1167 0.13202,1.60083c0,0.53908 -0.10447,0.92972 -0.31357,1.17174c-0.19804,0.23105 -0.45657,0.34657 -0.77566,0.34657c-0.24202,0 -0.45657,-0.04951 -0.64364,-0.14853c-0.17601,-0.08805 -0.33007,-0.26958 -0.46209,-0.54462c-0.12097,-0.28609 -0.22552,-0.70964 -0.31357,-1.27077c-0.06602,-0.42909 -0.13202,-0.92972 -0.19804,-1.50181c-0.06602,-0.5721 -0.12097,-1.17174 -0.16504,-1.79887c-0.04398,-0.62713 -0.08251,-1.23776 -0.11553,-1.83188c-0.02195,-0.60512 -0.033,-1.15524 -0.033,-1.65034c0,-1.56232 0.14853,-2.69556 0.44559,-3.39971c0.29706,-0.71515 0.71518,-1.07272 1.25426,-1.07272zM155.68266,185.01704c-0.67119,0 -1.17174,-0.08805 -1.50181,-0.26406c-0.33007,-0.17601 -0.60518,-0.4951 -0.82517,-0.9572c-0.15406,-0.3521 -0.28609,-0.92419 -0.39608,-1.71636c-0.09902,-0.80314 -0.14853,-1.84285 -0.14853,-3.11915c0,-0.89119 0.01651,-1.74385 0.04951,-2.55803c0.04398,-0.81417 0.10447,-1.4413 0.18154,-1.88139c0.08796,-0.56111 0.23105,-0.9627 0.42909,-1.20475c0.20902,-0.24204 0.46754,-0.36308 0.77566,-0.36308c0.27503,0 0.48957,0.12103 0.64364,0.36308c0.16504,0.24204 0.28056,0.57212 0.34657,0.99021c0.06602,0.40708 0.09902,0.85817 0.09902,1.35328c0,1.34228 -0.04951,2.70106 -0.14853,4.07635c-0.08805,1.37531 -0.21455,2.64055 -0.37958,3.79579l-0.21455,-0.29706c0.4951,-0.34104 1.02321,-0.63266 1.58432,-0.87468c0.5721,-0.24202 1.12768,-0.42909 1.66685,-0.56111c0.55005,-0.13202 1.02866,-0.19804 1.43579,-0.19804c0.40706,0 0.70412,0.08251 0.89119,0.24755c0.19804,0.16504 0.29706,0.40161 0.29706,0.70964c0,0.30804 -0.13756,0.62161 -0.41259,0.9407c-0.26406,0.30804 -0.64364,0.57762 -1.13874,0.80866c-0.27512,0.13202 -0.59965,0.25308 -0.9737,0.36308c-0.37414,0.09902 -0.75915,0.18154 -1.15524,0.24755c-0.38511,0.06602 -0.75371,0.09902 -1.10573,0.09902zM169.26093,184.819c-0.29706,0 -0.52811,-0.09902 -0.69315,-0.29706c-0.15398,-0.20902 -0.25853,-0.47307 -0.31357,-0.79217c-0.05496,-0.33007 -0.08251,-0.67664 -0.08251,-1.03972l0.08251,-0.06602c-0.10999,0.47307 -0.32454,0.88022 -0.64364,1.22125c-0.31901,0.34104 -0.68761,0.6051 -1.10573,0.79217c-0.41803,0.17601 -0.83614,0.26406 -1.25426,0.26406c-0.56111,0 -1.07272,-0.13202 -1.53481,-0.39608c-0.46209,-0.26406 -0.81965,-0.67112 -1.07272,-1.22125c-0.253,-0.58315 -0.45104,-1.31474 -0.59413,-2.19496c-0.143,-0.89119 -0.21455,-1.80438 -0.21455,-2.73957c0,-0.5061 0.02203,-0.9737 0.06602,-1.40279c0.04406,-0.42909 0.11553,-0.78117 0.21455,-1.05622c0.08805,-0.28606 0.22007,-0.4951 0.39608,-0.62713c0.1761,-0.14302 0.40161,-0.21455 0.67664,-0.21455c0.31909,0 0.56665,0.12653 0.74266,0.37958c0.18707,0.24204 0.30259,0.58313 0.34657,1.02321c0.04406,0.36308 0.07154,0.81417 0.08251,1.35328c0.02203,0.52811 0.03854,1.06173 0.04951,1.60083c0.02203,0.52811 0.04951,0.9737 0.08251,1.33678c0.06602,0.66013 0.23658,1.14971 0.5116,1.46881c0.27512,0.30804 0.61062,0.46209 1.00671,0.46209c0.58315,0 1.02874,-0.22007 1.33678,-0.66013c0.30812,-0.44006 0.46209,-1.05622 0.46209,-1.84838c0,-0.39608 -0.02195,-0.84168 -0.06602,-1.33678c-0.04398,-0.5061 -0.09349,-0.99571 -0.14853,-1.46881c-0.04398,-0.4731 -0.06602,-0.86368 -0.06602,-1.17174c0,-0.51711 0.08805,-0.88568 0.26406,-1.10573c0.1761,-0.23105 0.41811,-0.34657 0.72615,-0.34657c0.26406,0 0.48413,0.07152 0.66013,0.21455c0.18707,0.14302 0.3356,0.34106 0.446,0.59413c0.15349,0.33007 0.28551,0.78117 0.39608,1.35328c0.10975,0.57212 0.19804,1.22125 0.26406,1.94741c0.06602,0.72615 0.09902,1.49084 0.09902,2.29398c0,1.23223 -0.08251,2.15642 -0.24755,2.77258c-0.16504,0.6051 -0.45715,0.90769 -0.87509,0.90769zM179.60322,185.08306c-0.37463,0 -0.63291,-0.143 -0.77566,-0.42909c-0.13202,-0.29706 -0.20959,-0.76469 -0.23105,-1.40279l0.16504,0.08251c-0.6164,1.19922 -1.78237,1.79887 -3.49873,1.79887c-0.78144,0 -1.43085,-0.13756 -1.94741,-0.41259c-0.51739,-0.28609 -0.90274,-0.66013 -1.15524,-1.12223c-0.2426,-0.47307 -0.36308,-0.98468 -0.36308,-1.53481c0,-0.94622 0.33007,-1.69433 0.99021,-2.24447c0.66013,-0.56111 1.53481,-0.84168 2.62404,-0.84168c0.7146,0 1.33678,0.10453 1.86489,0.31357c0.52811,0.20904 0.97866,0.5006 1.35328,0.87468l-0.28056,-0.033c-0.07757,-1.11124 -0.31935,-1.9034 -0.72615,-2.37649c-0.39608,-0.48411 -0.96297,-0.72615 -1.69985,-0.72615c-0.42909,0 -0.82517,0.06602 -1.18825,0.19804c-0.36308,0.13202 -0.69892,0.26956 -1.00671,0.41259c-0.29706,0.13202 -0.57762,0.19804 -0.84168,0.19804c-0.26406,0 -0.47365,-0.08802 -0.62713,-0.26406c-0.14358,-0.17604 -0.21455,-0.40158 -0.21455,-0.67664c0,-0.39608 0.18649,-0.77016 0.56111,-1.12223c0.38453,-0.35207 0.89119,-0.63813 1.51832,-0.85817c0.62713,-0.22005 1.30872,-0.33007 2.04643,-0.33007c0.89119,0 1.6553,0.21455 2.29398,0.64364c0.63786,0.42909 1.12223,1.05622 1.4523,1.88139c0.28551,0.70414 0.48933,1.49081 0.61062,2.35999c0.12047,0.86916 0.18071,1.79887 0.18071,2.78908c0,0.74818 -0.03796,1.3258 -0.1147,1.73286c-0.07757,0.40706 -0.19804,0.69315 -0.36308,0.85817c-0.15431,0.15406 -0.36308,0.23105 -0.62713,0.23105zM175.95597,183.23468c0.36308,0 0.73111,-0.04951 1.10573,-0.14853c0.3738,-0.10999 0.68737,-0.26958 0.9407,-0.4786c0.25251,-0.20902 0.37958,-0.46762 0.37958,-0.77566c0,-0.26406 -0.11057,-0.4786 -0.33007,-0.64364c-0.20959,-0.17601 -0.49015,-0.30804 -0.84168,-0.39608c-0.34162,-0.08805 -0.70964,-0.13202 -1.10573,-0.13202c-0.67168,0 -1.1833,0.11553 -1.53481,0.34657c-0.34162,0.23105 -0.5116,0.53908 -0.5116,0.92419c0,0.41811 0.15926,0.74266 0.4786,0.9737c0.33007,0.22007 0.80289,0.33007 1.4193,0.33007zM186.89691,174.58688c0.97948,0 1.68335,0.14302 2.11244,0.42909c0.42909,0.28606 0.64364,0.65463 0.64364,1.10573c0,0.26406 -0.09325,0.48411 -0.28056,0.66013c-0.17576,0.16504 -0.42909,0.24755 -0.75915,0.24755c-0.3408,0 -0.69892,-0.04951 -1.07272,-0.14853c-0.36308,-0.09902 -0.78639,-0.14853 -1.27077,-0.14853c-0.56111,0 -0.97948,0.11002 -1.25426,0.33007c-0.27478,0.22005 -0.41259,0.5006 -0.41259,0.84168c0,0.31907 0.1213,0.57212 0.36308,0.75915c0.25333,0.17604 0.73193,0.30806 1.43579,0.39608c0.78144,0.08802 1.42507,0.23105 1.9309,0.42909c0.51739,0.18704 0.90191,0.4731 1.15524,0.85817c0.25333,0.37405 0.37958,0.89119 0.37958,1.55132c0,1.04524 -0.36886,1.8209 -1.10573,2.32698c-0.73688,0.50608 -1.75514,0.75915 -3.05313,0.75915c-0.82517,0 -1.47953,-0.06602 -1.96391,-0.19804c-0.48437,-0.13202 -0.8359,-0.31909 -1.05622,-0.56111c-0.20877,-0.24202 -0.31357,-0.52811 -0.31357,-0.85817c0,-0.28609 0.09325,-0.50608 0.28056,-0.66013c0.19804,-0.16504 0.42909,-0.24755 0.69315,-0.24755c0.25333,0 0.52233,0.033 0.80866,0.09902c0.28633,0.05503 0.58835,0.11553 0.90769,0.18154c0.31935,0.06602 0.64941,0.09902 0.99021,0.09902c1.09995,0 1.65034,-0.34104 1.65034,-1.02321c0,-0.23105 -0.05529,-0.41811 -0.16504,-0.56111c-0.10975,-0.143 -0.30779,-0.25853 -0.59413,-0.34657c-0.28633,-0.09902 -0.70387,-0.17601 -1.25426,-0.23105c-0.66013,-0.06602 -1.23199,-0.17601 -1.71636,-0.33007c-0.48437,-0.16504 -0.85817,-0.42909 -1.12223,-0.79217c-0.26406,-0.37408 -0.39608,-0.88568 -0.39608,-1.53481c0,-1.02321 0.38535,-1.84838 1.15524,-2.47551c0.76988,-0.63813 1.86489,-0.9572 3.28418,-0.9572zM198.05983,185.00055c-0.68242,0 -1.24931,-0.1265 -1.69985,-0.37958c-0.44064,-0.26406 -0.77071,-0.66567 -0.99021,-1.20475c-0.15431,-0.37405 -0.26984,-0.82517 -0.34657,-1.35328c-0.06602,-0.53908 -0.09902,-1.15524 -0.09902,-1.84838c0,-1.18825 0.03796,-2.16745 0.11553,-2.93761c0.07674,-0.78117 0.18649,-1.4083 0.33007,-1.88139c0.15349,-0.48411 0.32429,-0.87468 0.5116,-1.17174c0.29706,-0.45109 0.76988,-0.81417 1.4193,-1.08923c0.64858,-0.27506 1.56783,-0.41259 2.75607,-0.41259c0.79217,0 1.42424,0.12103 1.89789,0.36308c0.48355,0.23105 0.83013,0.53911 1.03972,0.92419c0.21949,0.38509 0.33007,0.81417 0.33007,1.28727c0,0.74816 -0.22032,1.36428 -0.66013,1.84838c-0.44064,0.48411 -1.01826,0.86917 -1.73286,1.15524v0.06602c0.78062,0.08802 1.38628,0.34106 1.81538,0.75915c0.43982,0.40708 0.66013,0.99021 0.66013,1.74936c0,0.6051 -0.15431,1.16077 -0.46209,1.66685c-0.29706,0.4951 -0.7047,0.92972 -1.22125,1.30377c-0.50666,0.36308 -1.0785,0.64916 -1.71636,0.85817c-0.63868,0.19804 -1.28727,0.29706 -1.94741,0.29706zM198.57144,183.02013c0.52811,0 0.99515,-0.08805 1.40279,-0.26406c0.41754,-0.17601 0.74266,-0.41259 0.9737,-0.70964c0.24178,-0.30804 0.36308,-0.65461 0.36308,-1.03972c0,-0.41811 -0.20382,-0.76469 -0.61062,-1.03972c-0.39608,-0.28606 -1.01826,-0.42909 -1.86489,-0.42909c-0.57267,0 -1.02899,0.13753 -1.36979,0.41259c-0.33007,0.26406 -0.4951,0.72063 -0.4951,1.36979c0,0.61616 0.13202,1.05622 0.39608,1.32028c0.26406,0.25308 0.66509,0.37958 1.20475,0.37958zM198.63745,177.78855c0.7476,0 1.36979,-0.16504 1.86489,-0.4951c0.50583,-0.34106 0.75915,-0.78117 0.75915,-1.32028c0,-0.39608 -0.16008,-0.71515 -0.4786,-0.9572c-0.31935,-0.24204 -0.78721,-0.36308 -1.40279,-0.36308c-0.67168,0 -1.22125,0.13202 -1.65034,0.39608c-0.42909,0.26406 -0.64364,0.71515 -0.64364,1.35328c0,0.51711 0.13698,0.88019 0.41259,1.08923c0.28551,0.19804 0.66509,0.29706 1.13874,0.29706zM212.44835,185.08306c-0.3738,0 -0.63208,-0.143 -0.77566,-0.42909c-0.13202,-0.29706 -0.20877,-0.76469 -0.23105,-1.40279l0.16504,0.08251c-0.61558,1.19922 -1.78237,1.79887 -3.49873,1.79887c-0.78062,0 -1.43002,-0.13756 -1.94741,-0.41259c-0.51656,-0.28609 -0.90191,-0.66013 -1.15524,-1.12223c-0.24178,-0.47307 -0.36308,-0.98468 -0.36308,-1.53481c0,-0.94622 0.33007,-1.69433 0.99021,-2.24447c0.66013,-0.56111 1.53481,-0.84168 2.62404,-0.84168c0.71542,0 1.33678,0.10453 1.86489,0.31357c0.52811,0.20904 0.97948,0.5006 1.35328,0.87468l-0.28056,-0.033c-0.07674,-1.11124 -0.31851,-1.9034 -0.72615,-2.37649c-0.39608,-0.48411 -0.96215,-0.72615 -1.69985,-0.72615c-0.42909,0 -0.82517,0.06602 -1.18825,0.19804c-0.36308,0.13202 -0.69809,0.26956 -1.00671,0.41259c-0.29706,0.13202 -0.57762,0.19804 -0.84168,0.19804c-0.26406,0 -0.47282,-0.08802 -0.62713,-0.26406c-0.14276,-0.17604 -0.21455,-0.40158 -0.21455,-0.67664c0,-0.39608 0.18731,-0.77016 0.56111,-1.12223c0.38535,-0.35207 0.89119,-0.63813 1.51832,-0.85817c0.62713,-0.22005 1.30954,-0.33007 2.04643,-0.33007c0.89119,0 1.65612,0.21455 2.29398,0.64364c0.63868,0.42909 1.12223,1.05622 1.4523,1.88139c0.28633,0.70414 0.49015,1.49081 0.61062,2.35999c0.1213,0.86916 0.18154,1.79887 0.18154,2.78908c0,0.74818 -0.03796,1.3258 -0.11553,1.73286c-0.07674,0.40706 -0.19804,0.69315 -0.36308,0.85817c-0.15349,0.15406 -0.36308,0.23105 -0.62713,0.23105zM208.80109,183.23468c0.36308,0 0.73193,-0.04951 1.10573,-0.14853c0.37463,-0.10999 0.68819,-0.26958 0.9407,-0.4786c0.25333,-0.20902 0.37958,-0.46762 0.37958,-0.77566c0,-0.26406 -0.10975,-0.4786 -0.33007,-0.64364c-0.20877,-0.17601 -0.48933,-0.30804 -0.84168,-0.39608c-0.3408,-0.08805 -0.70964,-0.13202 -1.10573,-0.13202c-0.67086,0 -1.18248,0.11553 -1.53481,0.34657c-0.3408,0.23105 -0.5116,0.53908 -0.5116,0.92419c0,0.41811 0.16008,0.74266 0.4786,0.9737c0.33007,0.22007 0.80372,0.33007 1.4193,0.33007zM217.25084,174.65289c0.35152,0 0.58835,0.14302 0.70964,0.42909c0.13202,0.28606 0.19804,0.70964 0.19804,1.27077c0,0.13202 -0.01155,0.27506 -0.033,0.42909c-0.01155,0.14302 -0.033,0.27506 -0.06602,0.39608l-0.033,-0.33007c0.26406,-0.71515 0.67086,-1.27077 1.22125,-1.66685c0.54956,-0.40708 1.13296,-0.61062 1.74936,-0.61062c0.68159,0 1.24848,0.19253 1.69985,0.57762c0.46209,0.38509 0.80289,0.92419 1.02321,1.61734c0.23105,0.69315 0.34657,1.51281 0.34657,2.45901c0,0.58313 -0.02806,1.16077 -0.08251,1.73286c-0.04456,0.56111 -0.11057,1.07825 -0.19804,1.55132c-0.07757,0.46209 -0.16504,0.84168 -0.26406,1.13874c-0.13202,0.37405 -0.30284,0.65461 -0.5116,0.84168c-0.20959,0.17601 -0.45715,0.26406 -0.74266,0.26406c-0.28633,0 -0.50666,-0.10454 -0.66013,-0.31357c-0.15431,-0.20902 -0.23105,-0.48957 -0.23105,-0.84168c0,-0.37405 0.02723,-0.82517 0.08251,-1.35328c0.05447,-0.53908 0.10398,-1.0837 0.14853,-1.63384c0.05447,-0.56111 0.08251,-1.06722 0.08251,-1.51832c0,-1.54032 -0.50666,-2.31048 -1.51832,-2.31048c-0.53966,0 -0.99021,0.24204 -1.35328,0.72615c-0.36308,0.4731 -0.60568,1.14974 -0.72615,2.02992c-0.033,0.29706 -0.04951,0.66567 -0.04951,1.10573c0,0.44006 0,0.88022 0,1.32028c0.01073,0.42909 0,0.79217 -0.033,1.08923c-0.04456,0.66013 -0.17081,1.13321 -0.37958,1.4193c-0.19804,0.28609 -0.47365,0.42909 -0.82517,0.42909c-0.40764,0 -0.71542,-0.18707 -0.92419,-0.56111c-0.20959,-0.38511 -0.31357,-1.02874 -0.31357,-1.9309c0,-0.46209 0.01073,-0.97923 0.033,-1.55132c0.02145,-0.5721 0.04951,-1.14424 0.08251,-1.71636c0.04373,-0.58313 0.09325,-1.11124 0.14853,-1.58432c0.10975,-0.89119 0.269,-1.59533 0.4786,-2.11244c0.20877,-0.52811 0.52233,-0.79217 0.9407,-0.79217zM229.22738,184.65397c-1.03394,0 -1.87561,-0.39608 -2.52502,-1.18825c-0.64941,-0.80314 -0.9737,-2.01895 -0.9737,-3.64726c0,-1.73836 0.31357,-3.00913 0.9407,-3.8123c0.62713,-0.80317 1.4523,-1.20475 2.47551,-1.20475c0.60485,0 1.13874,0.15403 1.60083,0.46209c0.46209,0.30806 0.85817,0.74266 1.18825,1.30377l-0.13202,0.23105c-0.033,-0.15403 -0.06024,-0.31907 -0.08251,-0.4951c-0.02228,-0.17604 -0.033,-0.30806 -0.033,-0.39608c0,-0.45109 0.07179,-0.79767 0.21455,-1.03972c0.15431,-0.25305 0.39031,-0.37958 0.70964,-0.37958c0.35235,0 0.62713,0.14302 0.82517,0.42909c0.20877,0.28606 0.36886,0.69315 0.4786,1.22125c0.14276,0.53911 0.26406,1.22675 0.36308,2.06293c0.09902,0.82517 0.14853,1.66134 0.14853,2.50852c0,1.05622 -0.03878,1.94187 -0.11553,2.65705c-0.07674,0.71518 -0.20382,1.3093 -0.37958,1.78237c-0.17576,0.47307 -0.4068,0.88565 -0.69315,1.23776c-0.47282,0.5721 -1.08345,1.00671 -1.83188,1.30377c-0.73688,0.30804 -1.5901,0.46209 -2.55803,0.46209c-0.69315,0 -1.24848,-0.06602 -1.66685,-0.19804c-0.41837,-0.12105 -0.72037,-0.29153 -0.90769,-0.5116c-0.17576,-0.20902 -0.26406,-0.44559 -0.26406,-0.70964c0,-0.27503 0.07674,-0.50608 0.23105,-0.69315c0.15431,-0.17601 0.38535,-0.26406 0.69315,-0.26406c0.27478,0 0.59413,0.04398 0.9572,0.13202c0.3738,0.08805 0.81444,0.13202 1.32028,0.13202c1.06695,0 1.82116,-0.25308 2.26097,-0.75915c0.45137,-0.4951 0.67664,-1.21028 0.67664,-2.14545c0,-0.25308 -0.01651,-0.55014 -0.04951,-0.89119l0.23105,0.08251c-0.27478,0.70412 -0.68242,1.27077 -1.22125,1.69985c-0.53884,0.41811 -1.16597,0.62713 -1.88139,0.62713zM229.85451,182.62406c0.35235,0 0.70387,-0.09349 1.05622,-0.28056c0.35235,-0.18707 0.64364,-0.4951 0.87468,-0.92419c0.23105,-0.42909 0.34657,-1.00671 0.34657,-1.73286c0,-0.86917 -0.20382,-1.57883 -0.61062,-2.12894c-0.4068,-0.55011 -0.97948,-0.82517 -1.71636,-0.82517c-0.63786,0 -1.10573,0.24204 -1.40279,0.72615c-0.29706,0.48411 -0.44559,1.21575 -0.44559,2.19496c0,0.93517 0.14853,1.66685 0.44559,2.19496c0.29706,0.51714 0.78144,0.77566 1.4523,0.77566zM243.8651,184.819c-0.29706,0 -0.52811,-0.09902 -0.69315,-0.29706c-0.15431,-0.20902 -0.2591,-0.47307 -0.31357,-0.79217c-0.05529,-0.33007 -0.08251,-0.67664 -0.08251,-1.03972l0.08251,-0.06602c-0.11057,0.47307 -0.32512,0.88022 -0.64364,1.22125c-0.31935,0.34104 -0.68819,0.6051 -1.10573,0.79217c-0.41837,0.17601 -0.83672,0.26406 -1.25426,0.26406c-0.56111,0 -1.07272,-0.13202 -1.53481,-0.39608c-0.46209,-0.26406 -0.82022,-0.67112 -1.07272,-1.22125c-0.25333,-0.58315 -0.45137,-1.31474 -0.59413,-2.19496c-0.14358,-0.89119 -0.21455,-1.80438 -0.21455,-2.73957c0,-0.5061 0.02145,-0.9737 0.06602,-1.40279c0.04373,-0.42909 0.11553,-0.78117 0.21455,-1.05622c0.08747,-0.28606 0.21949,-0.4951 0.39608,-0.62713c0.17576,-0.14302 0.40103,-0.21455 0.67664,-0.21455c0.31851,0 0.56607,0.12653 0.74266,0.37958c0.18649,0.24204 0.30201,0.58313 0.34657,1.02321c0.04373,0.36308 0.07096,0.81417 0.08251,1.35328c0.02145,0.52811 0.03796,1.06173 0.04951,1.60083c0.02145,0.52811 0.04951,0.9737 0.08251,1.33678c0.06602,0.66013 0.236,1.14971 0.5116,1.46881c0.27478,0.30804 0.61062,0.46209 1.00671,0.46209c0.58257,0 1.02817,-0.22007 1.33678,-0.66013c0.30779,-0.44006 0.46209,-1.05622 0.46209,-1.84838c0,-0.39608 -0.02228,-0.84168 -0.06602,-1.33678c-0.04456,-0.5061 -0.09407,-0.99571 -0.14853,-1.46881c-0.04456,-0.4731 -0.06602,-0.86368 -0.06602,-1.17174c0,-0.51711 0.08747,-0.88568 0.26406,-1.10573c0.17576,-0.23105 0.41754,-0.34657 0.72615,-0.34657c0.26406,0 0.48355,0.07152 0.66013,0.21455c0.18649,0.14302 0.33502,0.34106 0.44559,0.59413c0.15349,0.33007 0.28551,0.78117 0.39608,1.35328c0.10975,0.57212 0.19804,1.22125 0.26406,1.94741c0.06602,0.72615 0.09902,1.49084 0.09902,2.29398c0,1.23223 -0.08251,2.15642 -0.24755,2.77258c-0.16504,0.6051 -0.45715,0.90769 -0.87468,0.90769zM248.67833,174.65289c0.35152,0 0.58835,0.14302 0.70964,0.42909c0.13202,0.28606 0.19804,0.70964 0.19804,1.27077c0,0.13202 -0.01155,0.27506 -0.033,0.42909c-0.01155,0.14302 -0.033,0.27506 -0.06602,0.39608l-0.033,-0.33007c0.26406,-0.71515 0.67086,-1.27077 1.22125,-1.66685c0.54956,-0.40708 1.13296,-0.61062 1.74936,-0.61062c0.68159,0 1.24848,0.19253 1.69985,0.57762c0.46209,0.38509 0.80289,0.92419 1.02321,1.61734c0.23105,0.69315 0.34657,1.51281 0.34657,2.45901c0,0.58313 -0.02806,1.16077 -0.08251,1.73286c-0.04456,0.56111 -0.11057,1.07825 -0.19804,1.55132c-0.07757,0.46209 -0.16504,0.84168 -0.26406,1.13874c-0.13202,0.37405 -0.30284,0.65461 -0.5116,0.84168c-0.20959,0.17601 -0.45715,0.26406 -0.74266,0.26406c-0.28633,0 -0.50666,-0.10454 -0.66013,-0.31357c-0.15431,-0.20902 -0.23105,-0.48957 -0.23105,-0.84168c0,-0.37405 0.02723,-0.82517 0.08251,-1.35328c0.05447,-0.53908 0.10398,-1.0837 0.14853,-1.63384c0.05447,-0.56111 0.08251,-1.06722 0.08251,-1.51832c0,-1.54032 -0.50666,-2.31048 -1.51832,-2.31048c-0.53966,0 -0.99021,0.24204 -1.35328,0.72615c-0.36308,0.4731 -0.60568,1.14974 -0.72615,2.02992c-0.033,0.29706 -0.04951,0.66567 -0.04951,1.10573c0,0.44006 0,0.88022 0,1.32028c0.01073,0.42909 0,0.79217 -0.033,1.08923c-0.04456,0.66013 -0.17081,1.13321 -0.37958,1.4193c-0.19804,0.28609 -0.47365,0.42909 -0.82517,0.42909c-0.40764,0 -0.71542,-0.18707 -0.92419,-0.56111c-0.20959,-0.38511 -0.31357,-1.02874 -0.31357,-1.9309c0,-0.46209 0.01073,-0.97923 0.033,-1.55132c0.02145,-0.5721 0.04951,-1.14424 0.08251,-1.71636c0.04373,-0.58313 0.09325,-1.11124 0.14853,-1.58432c0.10975,-0.89119 0.269,-1.59533 0.4786,-2.11244c0.20877,-0.52811 0.52233,-0.79217 0.9407,-0.79217zM263.11717,185.29761c-0.69315,0 -1.23199,-0.04398 -1.61734,-0.13202c-0.3738,-0.08805 -0.63291,-0.20902 -0.77566,-0.36308c-0.14276,-0.16504 -0.22032,-0.34657 -0.23105,-0.54462c0,-0.30804 0.18154,-0.56665 0.54462,-0.77566c0.3738,-0.20902 1.05622,-0.34104 2.04643,-0.39608l-0.26406,0.31357c-0.1213,-0.56111 -0.20877,-1.21572 -0.26406,-1.96391c-0.05529,-0.74818 -0.07674,-1.52382 -0.06602,-2.32698c0.01073,-0.80317 0.04951,-1.56783 0.11553,-2.29398c0.06602,-0.73715 0.15926,-1.36428 0.28056,-1.88139l1.43579,-0.09902c-0.24178,0.09902 -0.54462,0.18704 -0.90769,0.26406c-0.36308,0.06602 -0.73688,0.09902 -1.12223,0.09902c-0.70387,0 -1.22703,-0.07702 -1.56783,-0.23105c-0.33007,-0.15403 -0.4951,-0.36858 -0.4951,-0.64364c0,-0.48411 0.29129,-0.85817 0.87468,-1.12223c0.59413,-0.27506 1.50181,-0.41259 2.72307,-0.41259c1.4523,0 2.67356,0.24204 3.66376,0.72615c1.00093,0.4731 1.76009,1.13874 2.27747,1.99692c0.51739,0.84718 0.77566,1.83739 0.77566,2.97062c0,0.99021 -0.17576,1.90342 -0.52811,2.73957c-0.35235,0.82517 -0.85817,1.5458 -1.51832,2.16195c-0.64941,0.6051 -1.43002,1.07825 -2.34349,1.4193c-0.90191,0.33007 -1.9144,0.4951 -3.03664,0.4951zM265.46066,182.75608c0.3738,0 0.76988,-0.14853 1.18825,-0.44559c0.42909,-0.30804 0.79217,-0.75363 1.08923,-1.33678c0.29706,-0.59413 0.44559,-1.32577 0.44559,-2.19496c0,-0.63813 -0.09325,-1.19375 -0.28056,-1.66685c-0.17576,-0.48411 -0.4068,-0.88568 -0.69315,-1.20475c-0.28633,-0.31907 -0.58835,-0.55561 -0.90769,-0.70964c-0.31935,-0.16504 -0.62135,-0.24755 -0.90769,-0.24755c-0.23105,0 -0.41259,0.14302 -0.54462,0.42909c-0.1213,0.28606 -0.20877,0.71515 -0.26406,1.28727c-0.05529,0.56111 -0.08251,1.25977 -0.08251,2.09594c0,1.29825 0.06602,2.28844 0.19804,2.97062c0.13202,0.68217 0.38535,1.02321 0.75915,1.02321zM279.57439,185.08306c-0.3738,0 -0.63291,-0.143 -0.77566,-0.42909c-0.13202,-0.29706 -0.20877,-0.76469 -0.23105,-1.40279l0.16504,0.08251c-0.6164,1.19922 -1.78237,1.79887 -3.49873,1.79887c-0.78144,0 -1.43002,-0.13756 -1.94741,-0.41259c-0.51739,-0.28609 -0.90191,-0.66013 -1.15524,-1.12223c-0.24178,-0.47307 -0.36308,-0.98468 -0.36308,-1.53481c0,-0.94622 0.33007,-1.69433 0.99021,-2.24447c0.66013,-0.56111 1.53481,-0.84168 2.62404,-0.84168c0.71542,0 1.33678,0.10453 1.86489,0.31357c0.52811,0.20904 0.97948,0.5006 1.35328,0.87468l-0.28056,-0.033c-0.07674,-1.11124 -0.31935,-1.9034 -0.72615,-2.37649c-0.39608,-0.48411 -0.96297,-0.72615 -1.69985,-0.72615c-0.42909,0 -0.82517,0.06602 -1.18825,0.19804c-0.36308,0.13202 -0.69892,0.26956 -1.00671,0.41259c-0.29706,0.13202 -0.57762,0.19804 -0.84168,0.19804c-0.26406,0 -0.47282,-0.08802 -0.62713,-0.26406c-0.14276,-0.17604 -0.21455,-0.40158 -0.21455,-0.67664c0,-0.39608 0.18731,-0.77016 0.56111,-1.12223c0.38535,-0.35207 0.89119,-0.63813 1.51832,-0.85817c0.62713,-0.22005 1.30954,-0.33007 2.04643,-0.33007c0.89119,0 1.65612,0.21455 2.29398,0.64364c0.63786,0.42909 1.12223,1.05622 1.4523,1.88139c0.28633,0.70414 0.48933,1.49081 0.61062,2.35999c0.1213,0.86916 0.18154,1.79887 0.18154,2.78908c0,0.74818 -0.03878,1.3258 -0.11553,1.73286c-0.07674,0.40706 -0.19804,0.69315 -0.36308,0.85817c-0.15431,0.15406 -0.36308,0.23105 -0.62713,0.23105zM275.92713,183.23468c0.36308,0 0.73193,-0.04951 1.10573,-0.14853c0.3738,-0.10999 0.68737,-0.26958 0.9407,-0.4786c0.25333,-0.20902 0.37958,-0.46762 0.37958,-0.77566c0,-0.26406 -0.10975,-0.4786 -0.33007,-0.64364c-0.20877,-0.17601 -0.48933,-0.30804 -0.84168,-0.39608c-0.3408,-0.08805 -0.70964,-0.13202 -1.10573,-0.13202c-0.67086,0 -1.18248,0.11553 -1.53481,0.34657c-0.3408,0.23105 -0.5116,0.53908 -0.5116,0.92419c0,0.41811 0.15926,0.74266 0.4786,0.9737c0.33007,0.22007 0.80289,0.33007 1.4193,0.33007zM284.98256,174.98297h-0.33007c-0.033,-0.48411 -0.02228,-0.9407 0.033,-1.36979c0.05529,-0.44009 0.17081,-0.79217 0.34657,-1.05622c0.18731,-0.27506 0.45137,-0.41259 0.79217,-0.41259c0.30779,0 0.53388,0.09902 0.67664,0.29706c0.14276,0.19804 0.21455,0.4731 0.21455,0.82517c0,0.69315 -0.13202,1.28727 -0.39608,1.78237l-0.29706,-0.033c0.59413,-0.20904 1.26499,-0.31357 2.01342,-0.31357c0.47282,0 0.84745,0.09351 1.12223,0.28056c0.28633,0.17604 0.42909,0.4786 0.42909,0.90769c0,0.40708 -0.16504,0.71515 -0.4951,0.92419c-0.33007,0.20904 -0.74266,0.31357 -1.23776,0.31357c-0.29706,0 -0.6164,-0.011 -0.9572,-0.033c-0.33007,-0.033 -0.65436,-0.08251 -0.9737,-0.14853l0.28056,-0.34657c0.09902,0.41809 0.19227,0.89669 0.28056,1.43579c0.09902,0.52811 0.18731,1.07822 0.26406,1.65034c0.07674,0.5721 0.1378,1.12776 0.18154,1.66685c0.04373,0.53908 0.06602,1.02321 0.06602,1.4523c0,0.70412 -0.10975,1.25979 -0.33007,1.66685c-0.22032,0.40706 -0.54462,0.61062 -0.9737,0.61062c-0.3408,0 -0.61062,-0.10454 -0.80866,-0.31357c-0.18731,-0.20902 -0.32429,-0.47307 -0.41259,-0.79217c-0.07674,-0.33007 -0.12625,-0.67112 -0.14853,-1.02321c-0.01073,-0.3521 -0.01651,-0.67112 -0.01651,-0.9572c0,-0.48413 0.02228,-1.02874 0.06602,-1.63384c0.04373,-0.61613 0.1048,-1.24876 0.18154,-1.89789c0.08829,-0.64913 0.18731,-1.27626 0.29706,-1.88139l0.33007,0.28056c-0.56111,0.28606 -1.25426,0.42909 -2.07943,0.42909c-0.50583,0 -0.89696,-0.09351 -1.17174,-0.28056c-0.27478,-0.18704 -0.41259,-0.4786 -0.41259,-0.87468c0,-0.42909 0.15431,-0.75915 0.46209,-0.99021c0.30779,-0.24204 0.72037,-0.36308 1.23776,-0.36308c0.3408,0 0.66013,0.02201 0.9572,0.06602c0.30779,0.033 0.57762,0.07702 0.80866,0.13202zM298.14075,185.08306c-0.3738,0 -0.63291,-0.143 -0.77566,-0.42909c-0.13202,-0.29706 -0.20877,-0.76469 -0.23105,-1.40279l0.16504,0.08251c-0.6164,1.19922 -1.78237,1.79887 -3.49873,1.79887c-0.78144,0 -1.43002,-0.13756 -1.94741,-0.41259c-0.51739,-0.28609 -0.90191,-0.66013 -1.15524,-1.12223c-0.24178,-0.47307 -0.36308,-0.98468 -0.36308,-1.53481c0,-0.94622 0.33007,-1.69433 0.99021,-2.24447c0.66013,-0.56111 1.53481,-0.84168 2.62404,-0.84168c0.71542,0 1.33678,0.10453 1.86489,0.31357c0.52811,0.20904 0.97948,0.5006 1.35328,0.87468l-0.28056,-0.033c-0.07674,-1.11124 -0.31935,-1.9034 -0.72615,-2.37649c-0.39608,-0.48411 -0.96297,-0.72615 -1.69985,-0.72615c-0.42909,0 -0.82517,0.06602 -1.18825,0.19804c-0.36308,0.13202 -0.69892,0.26956 -1.00671,0.41259c-0.29706,0.13202 -0.57762,0.19804 -0.84168,0.19804c-0.26406,0 -0.47282,-0.08802 -0.62713,-0.26406c-0.14276,-0.17604 -0.21455,-0.40158 -0.21455,-0.67664c0,-0.39608 0.18731,-0.77016 0.56111,-1.12223c0.38535,-0.35207 0.89119,-0.63813 1.51832,-0.85817c0.62713,-0.22005 1.30954,-0.33007 2.04643,-0.33007c0.89119,0 1.65612,0.21455 2.29398,0.64364c0.63786,0.42909 1.12223,1.05622 1.4523,1.88139c0.28633,0.70414 0.48933,1.49081 0.61062,2.35999c0.1213,0.86916 0.18154,1.79887 0.18154,2.78908c0,0.74818 -0.03878,1.3258 -0.11553,1.73286c-0.07674,0.40706 -0.19804,0.69315 -0.36308,0.85817c-0.15431,0.15406 -0.36308,0.23105 -0.62713,0.23105zM294.49349,183.23468c0.36308,0 0.73193,-0.04951 1.10573,-0.14853c0.3738,-0.10999 0.68737,-0.26958 0.9407,-0.4786c0.25333,-0.20902 0.37958,-0.46762 0.37958,-0.77566c0,-0.26406 -0.10975,-0.4786 -0.33007,-0.64364c-0.20877,-0.17601 -0.48933,-0.30804 -0.84168,-0.39608c-0.3408,-0.08805 -0.70964,-0.13202 -1.10573,-0.13202c-0.67086,0 -1.18248,0.11553 -1.53481,0.34657c-0.3408,0.23105 -0.5116,0.53908 -0.5116,0.92419c0,0.41811 0.15926,0.74266 0.4786,0.9737c0.33007,0.22007 0.80289,0.33007 1.4193,0.33007zM301.25907,177.47498c0,-1.05622 0.09902,-1.81538 0.29706,-2.27747c0.19804,-0.4731 0.4786,-0.70964 0.84168,-0.70964c0.28633,0 0.5116,0.12103 0.67664,0.36308c0.16504,0.23105 0.28633,0.52261 0.36308,0.87468c0.07757,0.34106 0.11553,0.68764 0.11553,1.03972l-0.08251,-0.033c0.18731,-0.59413 0.47365,-1.10573 0.85817,-1.53481c0.39608,-0.42909 0.86973,-0.64364 1.4193,-0.64364c0.64941,0 1.12801,0.26956 1.43579,0.80866c0.30861,0.52811 0.46209,1.18825 0.46209,1.98041c0,1.05622 -0.12047,1.79337 -0.36308,2.21146c-0.24178,0.41811 -0.56607,0.62713 -0.9737,0.62713c-0.29706,0 -0.51656,-0.12105 -0.66013,-0.36308c-0.13202,-0.24204 -0.17576,-0.67114 -0.13202,-1.28727c0.04456,-0.64913 0.00578,-1.10023 -0.11553,-1.35328c-0.12047,-0.25305 -0.31357,-0.37958 -0.57762,-0.37958c-0.31851,0 -0.58257,0.20354 -0.79217,0.61062c-0.19804,0.39608 -0.29706,0.88568 -0.29706,1.46881c0,0.23105 0.02806,0.52261 0.08251,0.87468c0.05529,0.3521 0.11553,0.73712 0.18154,1.15524c0.06602,0.40706 0.12708,0.8142 0.18154,1.22125c0.05529,0.40706 0.08251,0.78119 0.08251,1.12223c0,0.6051 -0.09325,1.03972 -0.28056,1.30377c-0.18649,0.26406 -0.45054,0.39608 -0.79217,0.39608c-0.38453,0 -0.68159,-0.12105 -0.89119,-0.36308c-0.20877,-0.25308 -0.36803,-0.66013 -0.4786,-1.22125c-0.08747,-0.50608 -0.17576,-1.10573 -0.26406,-1.79887c-0.08747,-0.69315 -0.15926,-1.40279 -0.21455,-2.12894c-0.05447,-0.72615 -0.08251,-1.38078 -0.08251,-1.96391zM314.72257,185.29761c-0.69315,0 -1.23199,-0.04398 -1.61734,-0.13202c-0.3738,-0.08805 -0.63291,-0.20902 -0.77566,-0.36308c-0.14276,-0.16504 -0.22032,-0.34657 -0.23105,-0.54462c0,-0.30804 0.18154,-0.56665 0.54462,-0.77566c0.3738,-0.20902 1.05622,-0.34104 2.04643,-0.39608l-0.26406,0.31357c-0.1213,-0.56111 -0.20877,-1.21572 -0.26406,-1.96391c-0.05529,-0.74818 -0.07674,-1.52382 -0.06602,-2.32698c0.01073,-0.80317 0.04951,-1.56783 0.11553,-2.29398c0.06602,-0.73715 0.15926,-1.36428 0.28056,-1.88139l1.43579,-0.09902c-0.24178,0.09902 -0.54462,0.18704 -0.90769,0.26406c-0.36308,0.06602 -0.73688,0.09902 -1.12223,0.09902c-0.70387,0 -1.22703,-0.07702 -1.56783,-0.23105c-0.33007,-0.15403 -0.4951,-0.36858 -0.4951,-0.64364c0,-0.48411 0.29129,-0.85817 0.87468,-1.12223c0.59413,-0.27506 1.50181,-0.41259 2.72307,-0.41259c1.4523,0 2.67356,0.24204 3.66376,0.72615c1.00093,0.4731 1.76009,1.13874 2.27747,1.99692c0.51739,0.84718 0.77566,1.83739 0.77566,2.97062c0,0.99021 -0.17576,1.90342 -0.52811,2.73957c-0.35235,0.82517 -0.85817,1.5458 -1.51832,2.16195c-0.64941,0.6051 -1.43002,1.07825 -2.34349,1.4193c-0.90191,0.33007 -1.9144,0.4951 -3.03664,0.4951zM317.06606,182.75608c0.3738,0 0.76988,-0.14853 1.18825,-0.44559c0.42909,-0.30804 0.79217,-0.75363 1.08923,-1.33678c0.29706,-0.59413 0.44559,-1.32577 0.44559,-2.19496c0,-0.63813 -0.09325,-1.19375 -0.28056,-1.66685c-0.17576,-0.48411 -0.4068,-0.88568 -0.69315,-1.20475c-0.28633,-0.31907 -0.58835,-0.55561 -0.90769,-0.70964c-0.31935,-0.16504 -0.62135,-0.24755 -0.90769,-0.24755c-0.23105,0 -0.41259,0.14302 -0.54462,0.42909c-0.1213,0.28606 -0.20877,0.71515 -0.26406,1.28727c-0.05529,0.56111 -0.08251,1.25977 -0.08251,2.09594c0,1.29825 0.06602,2.28844 0.19804,2.97062c0.13202,0.68217 0.38535,1.02321 0.75915,1.02321zM325.48611,173.94325c0.28633,0 0.5116,0.11002 0.67664,0.33007c0.16504,0.22005 0.28633,0.56111 0.36308,1.02321c0.07674,0.44009 0.1378,1.0177 0.18154,1.73286c0.05529,0.70414 0.08251,1.47981 0.08251,2.32698c0,0.73712 -0.02723,1.44133 -0.08251,2.11244c-0.04373,0.66013 -0.10975,1.28174 -0.19804,1.86489c-0.08829,0.6381 -0.22527,1.0837 -0.41259,1.33678c-0.18731,0.25308 -0.43982,0.37958 -0.75915,0.37958c-0.30779,0 -0.55039,-0.09902 -0.72615,-0.29706c-0.16504,-0.19804 -0.28056,-0.53364 -0.34657,-1.00671c-0.05529,-0.39608 -0.1048,-0.90769 -0.14853,-1.53481c-0.04373,-0.6381 -0.06602,-1.31474 -0.06602,-2.02992c0,-1.01221 0.033,-1.9254 0.09902,-2.73957c0.06602,-0.82517 0.15431,-1.51281 0.26406,-2.06293c0.09902,-0.4951 0.22527,-0.85817 0.37958,-1.08923c0.16504,-0.23105 0.39608,-0.34657 0.69315,-0.34657zM335.52102,184.96753c-0.36308,0 -0.76988,-0.02203 -1.22125,-0.06602c-0.43982,-0.04398 -0.86891,-0.1265 -1.28727,-0.24755c-0.4068,-0.13202 -0.74843,-0.30804 -1.02321,-0.52811c-0.26406,-0.23105 -0.39608,-0.52811 -0.39608,-0.89119c0,-0.37405 0.11553,-0.65461 0.34657,-0.84168c0.24178,-0.18707 0.63291,-0.28056 1.17174,-0.28056c0.3738,0 0.79217,0.04951 1.25426,0.14853c0.47282,0.09902 0.92419,0.14853 1.35328,0.14853c0.63786,0 1.10573,-0.09902 1.40279,-0.29706c0.30779,-0.19804 0.46209,-0.46762 0.46209,-0.80866c0,-0.20902 -0.06024,-0.39608 -0.18154,-0.56111c-0.10975,-0.16504 -0.33584,-0.33007 -0.67664,-0.4951c-0.3408,-0.16504 -0.8524,-0.34657 -1.53481,-0.54462c-0.78144,-0.20904 -1.41352,-0.44009 -1.89789,-0.69315c-0.48437,-0.26406 -0.8359,-0.57762 -1.05622,-0.9407c-0.22032,-0.36308 -0.33007,-0.79217 -0.33007,-1.28727c0,-0.60512 0.1048,-1.12773 0.31357,-1.56783c0.22032,-0.45109 0.5116,-0.83068 0.87468,-1.13874c0.36308,-0.31907 0.76988,-0.57212 1.22125,-0.75915c0.45137,-0.18704 0.90769,-0.32457 1.36979,-0.41259c0.47282,-0.08802 0.92419,-0.13202 1.35328,-0.13202c0.94647,0 1.71636,0.14853 2.31048,0.44559c0.60485,0.29706 0.90769,0.69315 0.90769,1.18825c0,0.35207 -0.11553,0.63813 -0.34657,0.85817c-0.22032,0.22005 -0.56111,0.33007 -1.02321,0.33007c-0.19804,0 -0.43486,-0.02751 -0.70964,-0.08251c-0.27478,-0.05502 -0.57762,-0.11002 -0.90769,-0.16504c-0.33007,-0.05502 -0.69315,-0.08251 -1.08923,-0.08251c-0.67086,0 -1.18825,0.10453 -1.55132,0.31357c-0.36308,0.20904 -0.54462,0.54462 -0.54462,1.00671c0,0.19804 0.04951,0.37958 0.14853,0.54462c0.10975,0.16504 0.33584,0.33557 0.67664,0.5116c0.3408,0.17604 0.86395,0.37958 1.56783,0.61062c0.86891,0.26406 1.55132,0.55561 2.04643,0.87468c0.4951,0.30806 0.84745,0.66013 1.05622,1.05622c0.20877,0.39608 0.31357,0.84168 0.31357,1.33678c0,0.68217 -0.18731,1.28727 -0.56111,1.81538c-0.36308,0.51714 -0.87468,0.91866 -1.53481,1.20475c-0.64941,0.28609 -1.40857,0.42909 -2.27747,0.42909zM346.30106,185.05006c-1.22125,0 -2.19496,-0.18154 -2.92111,-0.54462c-0.72615,-0.36308 -1.24931,-0.88565 -1.56783,-1.56783c-0.31935,-0.68217 -0.4786,-1.49629 -0.4786,-2.44251c0,-1.19925 0.21949,-2.21696 0.66013,-3.05313c0.45054,-0.84718 1.06695,-1.49631 1.84838,-1.94741c0.79217,-0.45109 1.6883,-0.67664 2.69006,-0.67664c1.1767,0 2.04065,0.27506 2.59104,0.82517c0.54956,0.53911 0.82517,1.24876 0.82517,2.12894c0,0.70414 -0.18731,1.31477 -0.56111,1.83188c-0.36308,0.50608 -0.86973,0.89671 -1.51832,1.17174c-0.64941,0.27503 -1.39784,0.41259 -2.24447,0.41259c-0.47365,0 -0.92997,-0.06048 -1.36979,-0.18154c-0.44064,-0.12105 -0.83672,-0.28609 -1.18825,-0.4951l0.39608,-0.72615c-0.033,0.26406 -0.04951,0.52811 -0.04951,0.79217c0,0.77014 0.24178,1.3258 0.72615,1.66685c0.48355,0.33007 1.17174,0.4951 2.06293,0.4951c0.69315,0 1.24848,-0.06048 1.66685,-0.18154c0.41754,-0.12105 0.76988,-0.23658 1.05622,-0.34657c0.28551,-0.12105 0.56607,-0.18154 0.84168,-0.18154c0.15349,0 0.29129,0.04398 0.41259,0.13202c0.13202,0.07699 0.236,0.19251 0.31357,0.34657c0.08747,0.15406 0.13202,0.34104 0.13202,0.56111c0,0.33007 -0.16504,0.64916 -0.4951,0.9572c-0.33007,0.29706 -0.82022,0.54462 -1.46881,0.74266c-0.63868,0.18707 -1.42507,0.28056 -2.35999,0.28056zM345.34386,179.65344c0.78062,0 1.40774,-0.16504 1.88139,-0.4951c0.47282,-0.33007 0.70964,-0.73715 0.70964,-1.22125c0,-0.38509 -0.13202,-0.69864 -0.39608,-0.9407c-0.25333,-0.25305 -0.65519,-0.37958 -1.20475,-0.37958c-0.51739,0 -0.98525,0.09902 -1.40279,0.29706c-0.40764,0.18704 -0.72615,0.4346 -0.9572,0.74266c-0.23105,0.30806 -0.34657,0.64364 -0.34657,1.00671c0,0.31907 0.14853,0.56662 0.44559,0.74266c0.30779,0.16504 0.73111,0.24755 1.27077,0.24755zM353.19702,185.08306c-0.20877,0 -0.37958,-0.06048 -0.5116,-0.18154c-0.13202,-0.13202 -0.22527,-0.31909 -0.28056,-0.56111c-0.08747,-0.40706 -0.16504,-0.99573 -0.23105,-1.76587c-0.06602,-0.77014 -0.09902,-1.62286 -0.09902,-2.55803c0,-1.15524 0.03878,-2.26647 0.11553,-3.33369c0.08829,-1.06722 0.19804,-1.9419 0.33007,-2.62404c0.14358,-0.73715 0.31935,-1.27626 0.52811,-1.61734c0.20959,-0.35207 0.48437,-0.52811 0.82517,-0.52811c0.30861,0 0.54462,0.14303 0.70964,0.42909c0.16504,0.27506 0.24755,0.75366 0.24755,1.43579c0,0.68215 -0.02723,1.41379 -0.08251,2.19496c-0.04373,0.78117 -0.12047,1.61734 -0.23105,2.50852h0.06602c0.71542,-0.96819 1.38134,-1.74385 1.99692,-2.32698c0.62713,-0.58313 1.1998,-1.00671 1.71636,-1.27077c0.52811,-0.26406 0.99599,-0.39608 1.40279,-0.39608c0.31935,0 0.55617,0.09902 0.70964,0.29706c0.15431,0.19804 0.23105,0.44009 0.23105,0.72615c0,0.56111 -0.45054,1.18825 -1.35328,1.88139c-0.89119,0.69315 -2.17845,1.40279 -3.86181,2.12894l0.01651,-0.26406c1.0455,0.53911 1.94245,1.10573 2.69006,1.69985c0.75915,0.58315 1.33678,1.13874 1.73286,1.66685c0.40764,0.51714 0.61062,0.95167 0.61062,1.30377c0,0.28609 -0.09325,0.52258 -0.28056,0.70964c-0.17576,0.17601 -0.43404,0.26406 -0.77566,0.26406c-0.42909,0 -0.90769,-0.1595 -1.43579,-0.4786c-0.51656,-0.33007 -1.05622,-0.81965 -1.61734,-1.46881c-0.56111,-0.64916 -1.12223,-1.46327 -1.68335,-2.44251h-0.06602c-0.01073,0.69315 -0.05447,1.36979 -0.13202,2.02992c-0.06602,0.64916 -0.15349,1.18272 -0.26406,1.60083c-0.07674,0.28609 -0.19804,0.51714 -0.36308,0.69315c-0.15349,0.16504 -0.3738,0.24755 -0.66013,0.24755zM363.42336,172.2599c0.43982,0 0.75338,0.12102 0.9407,0.36308c0.19804,0.24204 0.29706,0.52261 0.29706,0.84168c0,0.39608 -0.1213,0.70414 -0.36308,0.92419c-0.23105,0.20904 -0.56111,0.31357 -0.99021,0.31357c-0.41837,0 -0.73193,-0.11553 -0.9407,-0.34657c-0.20959,-0.24204 -0.31357,-0.52261 -0.31357,-0.84168c0,-0.41809 0.12625,-0.73166 0.37958,-0.9407c0.25251,-0.20904 0.58257,-0.31357 0.99021,-0.31357zM363.52238,175.94016c0.35152,0 0.62713,0.33007 0.82517,0.99021c0.20877,0.66013 0.31357,1.71085 0.31357,3.15215c0,1.77139 -0.12708,3.04761 -0.37958,3.82879c-0.25333,0.78119 -0.63868,1.17174 -1.15524,1.17174c-0.39608,0 -0.68819,-0.28609 -0.87468,-0.85817c-0.18731,-0.58315 -0.28056,-1.59531 -0.28056,-3.03664c0,-1.77137 0.14276,-3.08615 0.42909,-3.94432c0.29706,-0.86917 0.67086,-1.30377 1.12223,-1.30377zM369.46609,174.98297h-0.33007c-0.033,-0.48411 -0.02228,-0.9407 0.033,-1.36979c0.05447,-0.44009 0.16998,-0.79217 0.34657,-1.05622c0.18649,-0.27506 0.45054,-0.41259 0.79217,-0.41259c0.30779,0 0.53306,0.09902 0.67664,0.29706c0.14276,0.19804 0.21455,0.4731 0.21455,0.82517c0,0.69315 -0.13202,1.28727 -0.39608,1.78237l-0.29706,-0.033c0.59413,-0.20904 1.26499,-0.31357 2.01342,-0.31357c0.47282,0 0.84662,0.09351 1.12223,0.28056c0.28551,0.17604 0.42909,0.4786 0.42909,0.90769c0,0.40708 -0.16504,0.71515 -0.4951,0.92419c-0.33007,0.20904 -0.74266,0.31357 -1.23776,0.31357c-0.29706,0 -0.6164,-0.011 -0.9572,-0.033c-0.33007,-0.033 -0.65519,-0.08251 -0.9737,-0.14853l0.28056,-0.34657c0.09902,0.41809 0.19227,0.89669 0.28056,1.43579c0.09902,0.52811 0.18649,1.07822 0.26406,1.65034c0.07674,0.5721 0.13698,1.12776 0.18154,1.66685c0.04373,0.53908 0.06602,1.02321 0.06602,1.4523c0,0.70412 -0.11057,1.25979 -0.33007,1.66685c-0.22032,0.40706 -0.54462,0.61062 -0.9737,0.61062c-0.34162,0 -0.61062,-0.10454 -0.80866,-0.31357c-0.18731,-0.20902 -0.32512,-0.47307 -0.41259,-0.79217c-0.07757,-0.33007 -0.12708,-0.67112 -0.14853,-1.02321c-0.01155,-0.3521 -0.01651,-0.67112 -0.01651,-0.9572c0,-0.48413 0.02145,-1.02874 0.06602,-1.63384c0.04373,-0.61613 0.10398,-1.24876 0.18154,-1.89789c0.08747,-0.64913 0.18649,-1.27626 0.29706,-1.88139l0.33007,0.28056c-0.56111,0.28606 -1.25426,0.42909 -2.07943,0.42909c-0.50666,0 -0.89696,-0.09351 -1.17174,-0.28056c-0.27561,-0.18704 -0.41259,-0.4786 -0.41259,-0.87468c0,-0.42909 0.15349,-0.75915 0.46209,-0.99021c0.30779,-0.24204 0.72037,-0.36308 1.23776,-0.36308c0.3408,0 0.66013,0.02201 0.9572,0.06602c0.30779,0.033 0.57762,0.07702 0.80866,0.13202zM382.62427,185.08306c-0.37463,0 -0.63291,-0.143 -0.77566,-0.42909c-0.13202,-0.29706 -0.20959,-0.76469 -0.23105,-1.40279l0.16504,0.08251c-0.6164,1.19922 -1.78237,1.79887 -3.49873,1.79887c-0.78144,0 -1.43085,-0.13756 -1.94741,-0.41259c-0.51739,-0.28609 -0.90274,-0.66013 -1.15524,-1.12223c-0.2426,-0.47307 -0.36308,-0.98468 -0.36308,-1.53481c0,-0.94622 0.33007,-1.69433 0.99021,-2.24447c0.66013,-0.56111 1.53481,-0.84168 2.62404,-0.84168c0.7146,0 1.33678,0.10453 1.86489,0.31357c0.52811,0.20904 0.97866,0.5006 1.35328,0.87468l-0.28056,-0.033c-0.07757,-1.11124 -0.31935,-1.9034 -0.72615,-2.37649c-0.39608,-0.48411 -0.96297,-0.72615 -1.69985,-0.72615c-0.42909,0 -0.82517,0.06602 -1.18825,0.19804c-0.36308,0.13202 -0.69892,0.26956 -1.00671,0.41259c-0.29706,0.13202 -0.57762,0.19804 -0.84168,0.19804c-0.26406,0 -0.47365,-0.08802 -0.62713,-0.26406c-0.14358,-0.17604 -0.21455,-0.40158 -0.21455,-0.67664c0,-0.39608 0.18649,-0.77016 0.56111,-1.12223c0.38453,-0.35207 0.89119,-0.63813 1.51832,-0.85817c0.62713,-0.22005 1.30872,-0.33007 2.04643,-0.33007c0.89119,0 1.6553,0.21455 2.29398,0.64364c0.63786,0.42909 1.12223,1.05622 1.4523,1.88139c0.28551,0.70414 0.48933,1.49081 0.61062,2.35999c0.12047,0.86916 0.18154,1.79887 0.18154,2.78908c0,0.74818 -0.03878,1.3258 -0.11553,1.73286c-0.07757,0.40706 -0.19804,0.69315 -0.36308,0.85817c-0.15431,0.15406 -0.36308,0.23105 -0.62713,0.23105zM378.97702,183.23468c0.36308,0 0.73111,-0.04951 1.10573,-0.14853c0.3738,-0.10999 0.68737,-0.26958 0.9407,-0.4786c0.25251,-0.20902 0.37958,-0.46762 0.37958,-0.77566c0,-0.26406 -0.11057,-0.4786 -0.33007,-0.64364c-0.20959,-0.17601 -0.49015,-0.30804 -0.84168,-0.39608c-0.34162,-0.08805 -0.70964,-0.13202 -1.10573,-0.13202c-0.67168,0 -1.1833,0.11553 -1.53481,0.34657c-0.34162,0.23105 -0.5116,0.53908 -0.5116,0.92419c0,0.41811 0.15926,0.74266 0.4786,0.9737c0.33007,0.22007 0.80289,0.33007 1.4193,0.33007zM385.7426,177.47498c0,-1.05622 0.09902,-1.81538 0.29706,-2.27747c0.19804,-0.4731 0.4786,-0.70964 0.84168,-0.70964c0.28633,0 0.5116,0.12103 0.67664,0.36308c0.16504,0.23105 0.28633,0.52261 0.36308,0.87468c0.07757,0.34106 0.11553,0.68764 0.11553,1.03972l-0.08251,-0.033c0.18731,-0.59413 0.47365,-1.10573 0.85817,-1.53481c0.39608,-0.42909 0.86973,-0.64364 1.4193,-0.64364c0.64941,0 1.12801,0.26956 1.43579,0.80866c0.30861,0.52811 0.46209,1.18825 0.46209,1.98041c0,1.05622 -0.12047,1.79337 -0.36308,2.21146c-0.24178,0.41811 -0.56607,0.62713 -0.9737,0.62713c-0.29706,0 -0.51656,-0.12105 -0.66013,-0.36308c-0.13202,-0.24204 -0.17576,-0.67114 -0.13202,-1.28727c0.04456,-0.64913 0.00578,-1.10023 -0.11553,-1.35328c-0.12047,-0.25305 -0.31357,-0.37958 -0.57762,-0.37958c-0.31851,0 -0.58257,0.20354 -0.79217,0.61062c-0.19804,0.39608 -0.29706,0.88568 -0.29706,1.46881c0,0.23105 0.02806,0.52261 0.08251,0.87468c0.05529,0.3521 0.11553,0.73712 0.18154,1.15524c0.06602,0.40706 0.12708,0.8142 0.18154,1.22125c0.05529,0.40706 0.08251,0.78119 0.08251,1.12223c0,0.6051 -0.09325,1.03972 -0.28056,1.30377c-0.18649,0.26406 -0.45054,0.39608 -0.79217,0.39608c-0.38453,0 -0.68159,-0.12105 -0.89119,-0.36308c-0.20877,-0.25308 -0.36803,-0.66013 -0.4786,-1.22125c-0.08747,-0.50608 -0.17576,-1.10573 -0.26406,-1.79887c-0.08747,-0.69315 -0.15926,-1.40279 -0.21455,-2.12894c-0.05447,-0.72615 -0.08251,-1.38078 -0.08251,-1.96391z"/></g></g></svg>