<svg xmlns="http://www.w3.org/2000/svg" fill="none" viewBox="0 0 53 16" height="16" width="53">
<rect stroke="black" fill="#AF99A9" rx="4.5" height="15" width="52" y="0.5" x="0.5"></rect>
<path fill="black" d="M11.1204 10.03C10.9171 10.03 10.7654 10.0033 10.6654 9.95C10.5654 9.89667 10.4821 9.8 10.4154 9.66C10.3688 9.55333 10.3288 9.38 10.2954 9.14C10.2654 8.89667 10.2504 8.58167 10.2504 8.195C10.2504 7.925 10.2554 7.66667 10.2654 7.42C10.2788 7.17333 10.2971 6.98333 10.3204 6.85C10.3471 6.68 10.3904 6.55833 10.4504 6.485C10.5138 6.41167 10.5921 6.375 10.6854 6.375C10.7688 6.375 10.8338 6.41167 10.8804 6.485C10.9304 6.55833 10.9654 6.65833 10.9854 6.785C11.0054 6.90833 11.0154 7.045 11.0154 7.195C11.0154 7.60167 11.0004 8.01333 10.9704 8.43C10.9438 8.84667 10.9054 9.23 10.8554 9.58L10.7904 9.49C10.9404 9.38667 11.1004 9.29833 11.2704 9.225C11.4438 9.15167 11.6121 9.095 11.7754 9.055C11.9421 9.015 12.0871 8.995 12.2104 8.995C12.3338 8.995 12.4238 9.02 12.4804 9.07C12.5404 9.12 12.5704 9.19167 12.5704 9.285C12.5704 9.37833 12.5288 9.47333 12.4454 9.57C12.3654 9.66333 12.2504 9.745 12.1004 9.815C12.0171 9.855 11.9188 9.89167 11.8054 9.925C11.6921 9.955 11.5754 9.98 11.4554 10C11.3388 10.02 11.2271 10.03 11.1204 10.03ZM13.4242 6.165C13.5575 6.165 13.6525 6.20167 13.7092 6.275C13.7692 6.34833 13.7992 6.43333 13.7992 6.53C13.7992 6.65 13.7625 6.74333 13.6892 6.81C13.6192 6.87333 13.5192 6.905 13.3892 6.905C13.2625 6.905 13.1675 6.87 13.1042 6.8C13.0409 6.72667 13.0092 6.64167 13.0092 6.545C13.0092 6.41833 13.0475 6.32333 13.1242 6.26C13.2009 6.19667 13.3009 6.165 13.4242 6.165ZM13.4542 7.28C13.5609 7.28 13.6442 7.38 13.7042 7.58C13.7675 7.78 13.7992 8.09833 13.7992 8.535C13.7992 9.07167 13.7609 9.45833 13.6842 9.695C13.6075 9.93167 13.4909 10.05 13.3342 10.05C13.2142 10.05 13.1259 9.96333 13.0692 9.79C13.0125 9.61333 12.9842 9.30667 12.9842 8.87C12.9842 8.33333 13.0275 7.935 13.1142 7.675C13.2042 7.41167 13.3175 7.28 13.4542 7.28ZM15.675 6.87C15.9717 6.87 16.185 6.91333 16.315 7C16.445 7.08667 16.51 7.19833 16.51 7.335C16.51 7.415 16.4817 7.48167 16.425 7.535C16.3717 7.585 16.295 7.61 16.195 7.61C16.0917 7.61 15.9833 7.595 15.87 7.565C15.76 7.535 15.6317 7.52 15.485 7.52C15.315 7.52 15.1883 7.55333 15.105 7.62C15.0217 7.68667 14.98 7.77167 14.98 7.875C14.98 7.97167 15.0167 8.04833 15.09 8.105C15.1667 8.15833 15.3117 8.19833 15.525 8.225C15.7617 8.25167 15.9567 8.295 16.11 8.355C16.2667 8.41167 16.3833 8.49833 16.46 8.615C16.5367 8.72833 16.575 8.885 16.575 9.085C16.575 9.40167 16.4633 9.63667 16.24 9.79C16.0167 9.94333 15.7083 10.02 15.315 10.02C15.065 10.02 14.8667 10 14.72 9.96C14.5733 9.92 14.4667 9.86333 14.4 9.79C14.3367 9.71667 14.305 9.63 14.305 9.53C14.305 9.44333 14.3333 9.37667 14.39 9.33C14.45 9.28 14.52 9.255 14.6 9.255C14.6767 9.255 14.7583 9.265 14.845 9.285C14.9317 9.30167 15.0233 9.32 15.12 9.34C15.2167 9.36 15.3167 9.37 15.42 9.37C15.7533 9.37 15.92 9.26667 15.92 9.06C15.92 8.99 15.9033 8.93333 15.87 8.89C15.8367 8.84667 15.7767 8.81167 15.69 8.785C15.6033 8.755 15.4767 8.73167 15.31 8.715C15.11 8.695 14.9367 8.66167 14.79 8.615C14.6433 8.565 14.53 8.485 14.45 8.375C14.37 8.26167 14.33 8.10667 14.33 7.91C14.33 7.6 14.4467 7.35 14.68 7.16C14.9133 6.96667 15.245 6.87 15.675 6.87ZM17.9259 6.99H17.8259C17.8159 6.84333 17.8192 6.705 17.8359 6.575C17.8526 6.44167 17.8876 6.335 17.9409 6.255C17.9976 6.17167 18.0776 6.13 18.1809 6.13C18.2742 6.13 18.3426 6.16 18.3859 6.22C18.4292 6.28 18.4509 6.36333 18.4509 6.47C18.4509 6.68 18.4109 6.86 18.3309 7.01L18.2409 7C18.4209 6.93667 18.6242 6.905 18.8509 6.905C18.9942 6.905 19.1076 6.93333 19.1909 6.99C19.2776 7.04333 19.3209 7.135 19.3209 7.265C19.3209 7.38833 19.2709 7.48167 19.1709 7.545C19.0709 7.60833 18.9459 7.64 18.7959 7.64C18.7059 7.64 18.6092 7.63667 18.5059 7.63C18.4059 7.62 18.3076 7.605 18.2109 7.585L18.2959 7.48C18.3259 7.60667 18.3542 7.75167 18.3809 7.915C18.4109 8.075 18.4376 8.24167 18.4609 8.415C18.4842 8.58833 18.5026 8.75667 18.5159 8.92C18.5292 9.08333 18.5359 9.23 18.5359 9.36C18.5359 9.57333 18.5026 9.74167 18.4359 9.865C18.3692 9.98833 18.2709 10.05 18.1409 10.05C18.0376 10.05 17.9559 10.0183 17.8959 9.955C17.8392 9.89167 17.7976 9.81167 17.7709 9.715C17.7476 9.615 17.7326 9.51167 17.7259 9.405C17.7226 9.29833 17.7209 9.20167 17.7209 9.115C17.7209 8.96833 17.7276 8.80333 17.7409 8.62C17.7542 8.43333 17.7726 8.24167 17.7959 8.045C17.8226 7.84833 17.8526 7.65833 17.8859 7.475L17.9859 7.56C17.8159 7.64667 17.6059 7.69 17.3559 7.69C17.2026 7.69 17.0842 7.66167 17.0009 7.605C16.9176 7.54833 16.8759 7.46 16.8759 7.34C16.8759 7.21 16.9226 7.11 17.0159 7.04C17.1092 6.96667 17.2342 6.93 17.3909 6.93C17.4942 6.93 17.5909 6.93667 17.6809 6.95C17.7742 6.96 17.8559 6.97333 17.9259 6.99ZM22.1533 7.03C21.9967 7.07667 21.8517 7.11333 21.7183 7.14C21.585 7.16333 21.46 7.175 21.3433 7.175C21.2367 7.175 21.1533 7.15333 21.0933 7.11C21.0333 7.06667 21.0033 7.00167 21.0033 6.915C21.0033 6.84167 21.0283 6.77167 21.0783 6.705C21.1283 6.63833 21.205 6.57833 21.3083 6.525C21.4317 6.465 21.5883 6.415 21.7783 6.375C21.9683 6.335 22.19 6.315 22.4433 6.315C22.6133 6.315 22.7617 6.32667 22.8883 6.35C23.015 6.37 23.115 6.395 23.1883 6.425C23.285 6.465 23.3517 6.51167 23.3883 6.565C23.4283 6.615 23.4483 6.67333 23.4483 6.74C23.4483 6.82333 23.4183 6.89167 23.3583 6.945C23.2983 6.99833 23.2017 7.025 23.0683 7.025C22.9883 7.025 22.905 7.02 22.8183 7.01C22.735 7 22.6467 6.98667 22.5533 6.97L22.1533 7.03ZM22.4983 6.76C22.6683 6.97333 22.8 7.22167 22.8933 7.505C22.99 7.785 23.0383 8.07833 23.0383 8.385C23.0383 8.705 22.9933 8.99167 22.9033 9.245C22.8167 9.495 22.6767 9.69333 22.4833 9.84C22.29 9.98333 22.0333 10.055 21.7133 10.055C21.32 10.055 21.025 9.945 20.8283 9.725C20.6317 9.505 20.5333 9.20333 20.5333 8.82C20.5333 8.63333 20.5567 8.475 20.6033 8.345C20.6533 8.215 20.7183 8.11667 20.7983 8.05C20.8783 7.98 20.965 7.945 21.0583 7.945C21.145 7.945 21.21 7.97167 21.2533 8.025C21.3 8.075 21.3233 8.14667 21.3233 8.24C21.3233 8.31667 21.31 8.40167 21.2833 8.495C21.26 8.585 21.2483 8.67333 21.2483 8.76C21.2483 8.98333 21.2867 9.14667 21.3633 9.25C21.4433 9.35 21.57 9.4 21.7433 9.4C21.9733 9.4 22.135 9.30667 22.2283 9.12C22.325 8.93 22.3733 8.67167 22.3733 8.345C22.3733 8.10833 22.3483 7.87667 22.2983 7.65C22.2483 7.42333 22.1683 7.19167 22.0583 6.955L22.4983 6.76ZM26.0481 10.05C25.9348 10.05 25.8564 10.0067 25.8131 9.92C25.7731 9.83 25.7498 9.68833 25.7431 9.495L25.7931 9.52C25.6064 9.88333 25.2531 10.065 24.7331 10.065C24.4964 10.065 24.2998 10.0233 24.1431 9.94C23.9864 9.85333 23.8698 9.74 23.7931 9.6C23.7198 9.45667 23.6831 9.30167 23.6831 9.135C23.6831 8.84833 23.7831 8.62167 23.9831 8.455C24.1831 8.285 24.4481 8.2 24.7781 8.2C24.9948 8.2 25.1831 8.23167 25.3431 8.295C25.5031 8.35833 25.6398 8.44667 25.7531 8.56L25.6681 8.55C25.6448 8.21333 25.5714 7.97333 25.4481 7.83C25.3281 7.68333 25.1564 7.61 24.9331 7.61C24.8031 7.61 24.6831 7.63 24.5731 7.67C24.4631 7.71 24.3614 7.75167 24.2681 7.795C24.1781 7.835 24.0931 7.855 24.0131 7.855C23.9331 7.855 23.8698 7.82833 23.8231 7.775C23.7798 7.72167 23.7581 7.65333 23.7581 7.57C23.7581 7.45 23.8148 7.33667 23.9281 7.23C24.0448 7.12333 24.1981 7.03667 24.3881 6.97C24.5781 6.90333 24.7848 6.87 25.0081 6.87C25.2781 6.87 25.5098 6.935 25.7031 7.065C25.8964 7.195 26.0431 7.385 26.1431 7.635C26.2298 7.84833 26.2914 8.08667 26.3281 8.35C26.3648 8.61333 26.3831 8.895 26.3831 9.195C26.3831 9.42167 26.3714 9.59667 26.3481 9.72C26.3248 9.84333 26.2881 9.93 26.2381 9.98C26.1914 10.0267 26.1281 10.05 26.0481 10.05ZM24.9431 9.49C25.0531 9.49 25.1648 9.475 25.2781 9.445C25.3914 9.41167 25.4864 9.36333 25.5631 9.3C25.6398 9.23667 25.6781 9.15833 25.6781 9.065C25.6781 8.985 25.6448 8.92 25.5781 8.87C25.5148 8.81667 25.4298 8.77667 25.3231 8.75C25.2198 8.72333 25.1081 8.71 24.9881 8.71C24.7848 8.71 24.6298 8.745 24.5231 8.815C24.4198 8.885 24.3681 8.97833 24.3681 9.095C24.3681 9.22167 24.4164 9.32 24.5131 9.39C24.6131 9.45667 24.7564 9.49 24.9431 9.49ZM26.813 7.97C26.813 7.62333 26.853 7.37333 26.933 7.22C27.0163 7.06667 27.1247 6.99 27.258 6.99C27.3347 6.99 27.393 7.01833 27.433 7.075C27.4763 7.12833 27.5063 7.20167 27.523 7.295C27.5397 7.385 27.548 7.48667 27.548 7.6C27.548 7.74333 27.548 7.91167 27.548 8.105C27.5513 8.295 27.5547 8.49167 27.558 8.695C27.5647 8.895 27.5713 9.08167 27.578 9.255H27.598C27.7013 8.81833 27.8047 8.46 27.908 8.18C28.0147 7.9 28.123 7.69333 28.233 7.56C28.3463 7.42333 28.4597 7.355 28.573 7.355C28.6963 7.355 28.813 7.42333 28.923 7.56C29.0363 7.69333 29.1463 7.89667 29.253 8.17C29.363 8.44333 29.4747 8.78833 29.588 9.205H29.608C29.618 8.91833 29.6247 8.61667 29.628 8.3C29.6313 7.98333 29.633 7.69333 29.633 7.43C29.633 7.24 29.6647 7.1 29.728 7.01C29.7913 6.92 29.8797 6.875 29.993 6.875C30.1363 6.875 30.2397 6.95 30.303 7.1C30.3697 7.24667 30.403 7.445 30.403 7.695C30.403 7.87833 30.393 8.075 30.373 8.285C30.3563 8.49167 30.3313 8.69167 30.298 8.885C30.2647 9.07833 30.2247 9.24667 30.178 9.39C30.108 9.60333 30.0297 9.765 29.943 9.875C29.8597 9.985 29.7497 10.04 29.613 10.04C29.4897 10.04 29.3663 9.96833 29.243 9.825C29.123 9.67833 29.0097 9.46 28.903 9.17C28.7963 8.88 28.698 8.51833 28.608 8.085H28.588C28.5013 8.49833 28.398 8.845 28.278 9.125C28.1613 9.40167 28.0363 9.61 27.903 9.75C27.773 9.89 27.643 9.96 27.513 9.96C27.3763 9.96 27.2613 9.89833 27.168 9.775C27.078 9.65167 27.003 9.46167 26.943 9.205C26.9163 9.075 26.893 8.93667 26.873 8.79C26.853 8.64 26.838 8.49333 26.828 8.35C26.818 8.20667 26.813 8.08 26.813 7.97ZM33.0159 10.05C32.9026 10.05 32.8242 10.0067 32.7809 9.92C32.7409 9.83 32.7176 9.68833 32.7109 9.495L32.7609 9.52C32.5742 9.88333 32.2209 10.065 31.7009 10.065C31.4642 10.065 31.2676 10.0233 31.1109 9.94C30.9542 9.85333 30.8376 9.74 30.7609 9.6C30.6876 9.45667 30.6509 9.30167 30.6509 9.135C30.6509 8.84833 30.7509 8.62167 30.9509 8.455C31.1509 8.285 31.4159 8.2 31.7459 8.2C31.9626 8.2 32.1509 8.23167 32.3109 8.295C32.4709 8.35833 32.6076 8.44667 32.7209 8.56L32.6359 8.55C32.6126 8.21333 32.5392 7.97333 32.4159 7.83C32.2959 7.68333 32.1242 7.61 31.9009 7.61C31.7709 7.61 31.6509 7.63 31.5409 7.67C31.4309 7.71 31.3292 7.75167 31.2359 7.795C31.1459 7.835 31.0609 7.855 30.9809 7.855C30.9009 7.855 30.8376 7.82833 30.7909 7.775C30.7476 7.72167 30.7259 7.65333 30.7259 7.57C30.7259 7.45 30.7826 7.33667 30.8959 7.23C31.0126 7.12333 31.1659 7.03667 31.3559 6.97C31.5459 6.90333 31.7526 6.87 31.9759 6.87C32.2459 6.87 32.4776 6.935 32.6709 7.065C32.8642 7.195 33.0109 7.385 33.1109 7.635C33.1976 7.84833 33.2592 8.08667 33.2959 8.35C33.3326 8.61333 33.3509 8.895 33.3509 9.195C33.3509 9.42167 33.3392 9.59667 33.3159 9.72C33.2926 9.84333 33.2559 9.93 33.2059 9.98C33.1592 10.0267 33.0959 10.05 33.0159 10.05ZM31.9109 9.49C32.0209 9.49 32.1326 9.475 32.2459 9.445C32.3592 9.41167 32.4542 9.36333 32.5309 9.3C32.6076 9.23667 32.6459 9.15833 32.6459 9.065C32.6459 8.985 32.6126 8.92 32.5459 8.87C32.4826 8.81667 32.3976 8.77667 32.2909 8.75C32.1876 8.72333 32.0759 8.71 31.9559 8.71C31.7526 8.71 31.5976 8.745 31.4909 8.815C31.3876 8.885 31.3359 8.97833 31.3359 9.095C31.3359 9.22167 31.3842 9.32 31.4809 9.39C31.5809 9.45667 31.7242 9.49 31.9109 9.49ZM34.3408 10.05C34.2674 10.05 34.2074 10.025 34.1608 9.975C34.1174 9.925 34.0824 9.85333 34.0558 9.76C34.0291 9.62333 34.0058 9.445 33.9858 9.225C33.9691 9.00167 33.9608 8.76333 33.9608 8.51C33.9608 8.36667 33.9641 8.205 33.9708 8.025C33.9774 7.845 33.9858 7.66333 33.9958 7.48C34.0091 7.29333 34.0224 7.12 34.0358 6.96C34.0524 6.8 34.0691 6.67 34.0858 6.57C34.1124 6.42333 34.1508 6.30833 34.2008 6.225C34.2541 6.13833 34.3374 6.095 34.4508 6.095C34.5674 6.095 34.6524 6.14 34.7058 6.23C34.7591 6.31667 34.7858 6.425 34.7858 6.555C34.7858 6.70167 34.7741 6.875 34.7508 7.075C34.7308 7.275 34.6991 7.47833 34.6558 7.685L34.5558 7.805C34.5924 7.665 34.6524 7.53667 34.7358 7.42C34.8191 7.30333 34.9241 7.21167 35.0508 7.145C35.1774 7.075 35.3241 7.04 35.4908 7.04C35.8174 7.04 36.0774 7.15667 36.2708 7.39C36.4674 7.62 36.5658 7.98 36.5658 8.47C36.5658 8.81333 36.5141 9.1 36.4108 9.33C36.3108 9.56 36.1724 9.73333 35.9958 9.85C35.8224 9.96333 35.6241 10.02 35.4008 10.02C35.1908 10.02 35.0091 9.95833 34.8558 9.835C34.7058 9.71167 34.6091 9.53333 34.5658 9.3L34.6358 9.355C34.6224 9.595 34.5891 9.77167 34.5358 9.885C34.4858 9.995 34.4208 10.05 34.3408 10.05ZM35.2558 9.44C35.4224 9.44 35.5691 9.365 35.6958 9.215C35.8224 9.065 35.8858 8.83 35.8858 8.51C35.8858 8.24333 35.8358 8.02667 35.7358 7.86C35.6391 7.69333 35.4758 7.61 35.2458 7.61C35.0591 7.61 34.9091 7.685 34.7958 7.835C34.6824 7.98167 34.6258 8.205 34.6258 8.505C34.6258 8.77833 34.6824 9.00333 34.7958 9.18C34.9091 9.35333 35.0624 9.44 35.2558 9.44ZM39.2561 10.05C39.1428 10.05 39.0645 10.0067 39.0211 9.92C38.9811 9.83 38.9578 9.68833 38.9511 9.495L39.0011 9.52C38.8145 9.88333 38.4611 10.065 37.9411 10.065C37.7045 10.065 37.5078 10.0233 37.3511 9.94C37.1945 9.85333 37.0778 9.74 37.0011 9.6C36.9278 9.45667 36.8911 9.30167 36.8911 9.135C36.8911 8.84833 36.9911 8.62167 37.1911 8.455C37.3911 8.285 37.6561 8.2 37.9861 8.2C38.2028 8.2 38.3911 8.23167 38.5511 8.295C38.7111 8.35833 38.8478 8.44667 38.9611 8.56L38.8761 8.55C38.8528 8.21333 38.7795 7.97333 38.6561 7.83C38.5361 7.68333 38.3645 7.61 38.1411 7.61C38.0111 7.61 37.8911 7.63 37.7811 7.67C37.6711 7.71 37.5695 7.75167 37.4761 7.795C37.3861 7.835 37.3011 7.855 37.2211 7.855C37.1411 7.855 37.0778 7.82833 37.0311 7.775C36.9878 7.72167 36.9661 7.65333 36.9661 7.57C36.9661 7.45 37.0228 7.33667 37.1361 7.23C37.2528 7.12333 37.4061 7.03667 37.5961 6.97C37.7861 6.90333 37.9928 6.87 38.2161 6.87C38.4861 6.87 38.7178 6.935 38.9111 7.065C39.1045 7.195 39.2511 7.385 39.3511 7.635C39.4378 7.84833 39.4995 8.08667 39.5361 8.35C39.5728 8.61333 39.5911 8.895 39.5911 9.195C39.5911 9.42167 39.5795 9.59667 39.5561 9.72C39.5328 9.84333 39.4961 9.93 39.4461 9.98C39.3995 10.0267 39.3361 10.05 39.2561 10.05ZM38.1511 9.49C38.2611 9.49 38.3728 9.475 38.4861 9.445C38.5995 9.41167 38.6945 9.36333 38.7711 9.3C38.8478 9.23667 38.8861 9.15833 38.8861 9.065C38.8861 8.985 38.8528 8.92 38.7861 8.87C38.7228 8.81667 38.6378 8.77667 38.5311 8.75C38.4278 8.72333 38.3161 8.71 38.1961 8.71C37.9928 8.71 37.8378 8.745 37.7311 8.815C37.6278 8.885 37.5761 8.97833 37.5761 9.095C37.5761 9.22167 37.6245 9.32 37.7211 9.39C37.8211 9.45667 37.9645 9.49 38.1511 9.49ZM40.711 6.89C40.8177 6.89 40.8893 6.93333 40.926 7.02C40.966 7.10667 40.986 7.235 40.986 7.405C40.986 7.445 40.9827 7.48833 40.976 7.535C40.9727 7.57833 40.966 7.61833 40.956 7.655L40.946 7.555C41.026 7.33833 41.1493 7.17 41.316 7.05C41.4827 6.92667 41.6593 6.865 41.846 6.865C42.0527 6.865 42.2243 6.92333 42.361 7.04C42.501 7.15667 42.6043 7.32 42.671 7.53C42.741 7.74 42.776 7.98833 42.776 8.275C42.776 8.45167 42.7677 8.62667 42.751 8.8C42.7377 8.97 42.7177 9.12667 42.691 9.27C42.6677 9.41 42.641 9.525 42.611 9.615C42.571 9.72833 42.5193 9.81333 42.456 9.87C42.3927 9.92333 42.3177 9.95 42.231 9.95C42.1443 9.95 42.0777 9.91833 42.031 9.855C41.9843 9.79167 41.961 9.70667 41.961 9.6C41.961 9.48667 41.9693 9.35 41.986 9.19C42.0027 9.02667 42.0177 8.86167 42.031 8.695C42.0477 8.525 42.056 8.37167 42.056 8.235C42.056 7.76833 41.9027 7.535 41.596 7.535C41.4327 7.535 41.296 7.60833 41.186 7.755C41.076 7.89833 41.0027 8.10333 40.966 8.37C40.956 8.46 40.951 8.57167 40.951 8.705C40.951 8.83833 40.951 8.97167 40.951 9.105C40.9543 9.235 40.951 9.345 40.941 9.435C40.9277 9.635 40.8893 9.77833 40.826 9.865C40.766 9.95167 40.6827 9.995 40.576 9.995C40.4527 9.995 40.3593 9.93833 40.296 9.825C40.2327 9.70833 40.201 9.51333 40.201 9.24C40.201 9.1 40.2043 8.94333 40.211 8.77C40.2177 8.59667 40.226 8.42333 40.236 8.25C40.2493 8.07333 40.2643 7.91333 40.281 7.77C40.3143 7.5 40.3627 7.28667 40.426 7.13C40.4893 6.97 40.5843 6.89 40.711 6.89Z"></path>
</svg>
