<svg version="1.1" xmlns="http://www.w3.org/2000/svg" xmlns:xlink="http://www.w3.org/1999/xlink" width="84.31702" height="11.97435" viewBox="0,0,84.31702,11.97435"><g transform="translate(-197.84149,-174.01283)"><g data-paper-data="{&quot;isPaintingLayer&quot;:true}" fill="#000000" fill-rule="nonzero" stroke="none" stroke-width="1" stroke-linecap="butt" stroke-linejoin="miter" stroke-miterlimit="10" stroke-dasharray="" stroke-dashoffset="0" style="mix-blend-mode: normal"><path d="M200.18699,183.62934c-0.51025,0 -0.93409,-0.09467 -1.27151,-0.28392c-0.3292,-0.19751 -0.57609,-0.49788 -0.74069,-0.90116c-0.11521,-0.27984 -0.20163,-0.61723 -0.25924,-1.01227c-0.04938,-0.40327 -0.07407,-0.86413 -0.07407,-1.3826c0,-0.88881 0.0288,-1.62127 0.08641,-2.19735c0.05761,-0.58431 0.13991,-1.05341 0.2469,-1.40729c0.11521,-0.36211 0.24278,-0.65427 0.38269,-0.87647c0.22221,-0.33742 0.57608,-0.609 1.06164,-0.81475c0.48556,-0.20574 1.17275,-0.30862 2.06156,-0.30862c0.59255,0 1.06575,0.09052 1.41964,0.27158c0.36211,0.17283 0.62134,0.40327 0.77772,0.6913c0.16459,0.28804 0.2469,0.609 0.2469,0.96288c0,0.55962 -0.1646,1.0205 -0.49379,1.3826c-0.3292,0.36211 -0.76126,0.65016 -1.29619,0.86413v0.04938c0.58431,0.06584 1.03695,0.25513 1.35792,0.56786c0.32919,0.3045 0.49379,0.74069 0.49379,1.30854c0,0.45264 -0.11522,0.86821 -0.34565,1.24681c-0.22221,0.37034 -0.52671,0.69539 -0.91351,0.97523c-0.37857,0.27158 -0.80652,0.48553 -1.28385,0.64192c-0.47733,0.14814 -0.96288,0.22221 -1.45667,0.22221zM200.56967,182.14798c0.39503,0 0.7448,-0.06581 1.0493,-0.19751c0.31273,-0.1317 0.55551,-0.30862 0.72833,-0.53082c0.18105,-0.23044 0.27158,-0.48968 0.27158,-0.77772c0,-0.31273 -0.15226,-0.57197 -0.45675,-0.77772c-0.29627,-0.21397 -0.76126,-0.32096 -1.39495,-0.32096c-0.42795,0 -0.76949,0.10287 -1.02461,0.30862c-0.2469,0.19751 -0.37034,0.53905 -0.37034,1.02461c0,0.46085 0.09876,0.79006 0.29627,0.98757c0.19751,0.18926 0.4979,0.28392 0.90116,0.28392zM200.61906,178.23471c0.55962,0 1.02461,-0.12344 1.39495,-0.37034c0.37856,-0.25513 0.56786,-0.58431 0.56786,-0.98757c0,-0.29627 -0.11933,-0.53493 -0.35799,-0.71599c-0.23867,-0.18106 -0.58843,-0.27158 -1.0493,-0.27158c-0.50202,0 -0.91351,0.09876 -1.23447,0.29627c-0.32096,0.19751 -0.48145,0.53493 -0.48145,1.01227c0,0.3868 0.10287,0.65838 0.30862,0.81475c0.21397,0.14814 0.4979,0.22221 0.85178,0.22221zM210.95011,183.69106c-0.27984,0 -0.47319,-0.10701 -0.5802,-0.32096c-0.09876,-0.22221 -0.15639,-0.57195 -0.17283,-1.0493l0.12344,0.06173c-0.46085,0.89707 -1.33322,1.34558 -2.61707,1.34558c-0.58429,0 -1.0699,-0.10285 -1.45667,-0.30862c-0.38678,-0.21395 -0.67487,-0.49379 -0.86413,-0.83944c-0.18106,-0.35391 -0.27158,-0.73659 -0.27158,-1.14805c0,-0.70776 0.2469,-1.26739 0.74069,-1.67887c0.49379,-0.41972 1.14805,-0.62958 1.96281,-0.62958c0.53491,0 0.99992,0.07818 1.39495,0.23455c0.39503,0.15637 0.73243,0.37445 1.01227,0.65427l-0.20986,-0.02469c-0.05763,-0.83121 -0.23864,-1.42375 -0.54316,-1.77764c-0.29627,-0.36211 -0.72008,-0.54316 -1.27151,-0.54316c-0.32096,0 -0.61723,0.04938 -0.88881,0.14814c-0.27158,0.09876 -0.52256,0.20162 -0.75303,0.30862c-0.22221,0.09876 -0.43206,0.14814 -0.62958,0.14814c-0.19751,0 -0.35391,-0.06584 -0.46909,-0.19751c-0.10699,-0.13168 -0.16048,-0.30039 -0.16048,-0.50613c0,-0.29627 0.13988,-0.57609 0.41972,-0.83944c0.28802,-0.26335 0.66662,-0.47733 1.13571,-0.64192c0.46909,-0.16459 0.97932,-0.2469 1.53074,-0.2469c0.66662,0 1.23856,0.16048 1.71591,0.48145c0.47735,0.32096 0.83944,0.79006 1.08634,1.40729c0.21395,0.52671 0.36625,1.11513 0.45675,1.76529c0.0905,0.65016 0.1358,1.34558 0.1358,2.08625c0,0.5596 -0.02878,0.99167 -0.08641,1.29619c-0.05763,0.30453 -0.14814,0.51848 -0.27158,0.64192c-0.11519,0.11519 -0.27158,0.17283 -0.46909,0.17283zM208.22193,182.30846c0.27158,0 0.54726,-0.03703 0.8271,-0.1111c0.27984,-0.08233 0.51439,-0.20161 0.70365,-0.35799c0.18926,-0.15639 0.28392,-0.34974 0.28392,-0.5802c0,-0.19751 -0.08233,-0.35799 -0.2469,-0.48145c-0.15639,-0.13168 -0.36625,-0.23044 -0.62958,-0.29627c-0.25515,-0.06584 -0.53082,-0.09876 -0.8271,-0.09876c-0.50204,0 -0.88473,0.08641 -1.14805,0.25924c-0.25515,0.17283 -0.38268,0.40327 -0.38268,0.6913c0,0.31271 0.11936,0.55551 0.35799,0.72833c0.2469,0.16457 0.6008,0.2469 1.06164,0.2469zM214.54211,175.88922c0.2634,0 0.44032,0.10699 0.53082,0.32096c0.09876,0.21397 0.14814,0.53082 0.14814,0.95054c0,0.09876 -0.00818,0.20574 -0.02469,0.32096c-0.00818,0.10699 -0.02469,0.20574 -0.04938,0.29627l-0.02469,-0.2469c0.19751,-0.53493 0.50204,-0.95054 0.91351,-1.24681c0.41154,-0.3045 0.84769,-0.45675 1.30854,-0.45675c0.5103,0 0.9341,0.14403 1.27151,0.43206c0.34565,0.28804 0.6008,0.6913 0.76537,1.20978c0.17283,0.51848 0.25924,1.1316 0.25924,1.83936c0,0.43618 -0.02052,0.86824 -0.06173,1.29619c-0.03287,0.41972 -0.08225,0.8065 -0.14814,1.1604c-0.05755,0.34565 -0.12344,0.62958 -0.19751,0.85178c-0.09876,0.27984 -0.22629,0.4897 -0.38268,0.62958c-0.15632,0.1317 -0.34149,0.19751 -0.55551,0.19751c-0.21395,0 -0.37852,-0.07815 -0.49379,-0.23455c-0.11519,-0.15639 -0.17283,-0.36625 -0.17283,-0.62958c0,-0.27984 0.0206,-0.61723 0.06173,-1.01227c0.0412,-0.40327 0.07823,-0.81063 0.1111,-1.22212c0.0412,-0.41972 0.06173,-0.79829 0.06173,-1.13571c0,-1.15216 -0.37852,-1.72826 -1.13571,-1.72826c-0.4032,0 -0.74069,0.18106 -1.01227,0.54316c-0.27158,0.35388 -0.45259,0.86002 -0.54316,1.5184c-0.02469,0.22221 -0.03703,0.4979 -0.03703,0.8271c0,0.3292 0,0.65838 0,0.98757c0.00826,0.32096 0,0.59255 -0.02469,0.81475c-0.03287,0.49379 -0.12754,0.84769 -0.28392,1.06164c-0.14814,0.21395 -0.35383,0.32096 -0.61723,0.32096c-0.30445,0 -0.53491,-0.13988 -0.6913,-0.41972c-0.15632,-0.28802 -0.23455,-0.76946 -0.23455,-1.44433c0,-0.34565 0.00826,-0.73245 0.02469,-1.1604c0.01651,-0.42795 0.03703,-0.8559 0.06173,-1.28385c0.03294,-0.43618 0.06998,-0.83121 0.1111,-1.18509c0.08233,-0.66662 0.20169,-1.19332 0.35799,-1.58012c0.15639,-0.39503 0.39094,-0.59255 0.70365,-0.59255zM223.50088,183.3701c-0.77355,0 -1.40313,-0.29627 -1.88874,-0.88881c-0.48553,-0.6008 -0.72833,-1.51017 -0.72833,-2.72818c0,-1.3003 0.23455,-2.25084 0.70365,-2.85162c0.46909,-0.60078 1.08634,-0.90116 1.8517,-0.90116c0.45267,0 0.85178,0.11521 1.19744,0.34565c0.34565,0.23044 0.64192,0.55551 0.88881,0.97523l-0.09876,0.17283c-0.02469,-0.11521 -0.04521,-0.23866 -0.06173,-0.37034c-0.01644,-0.13168 -0.02469,-0.23044 -0.02469,-0.29627c0,-0.33742 0.05355,-0.59666 0.16048,-0.77772c0.11527,-0.18928 0.29218,-0.28392 0.53082,-0.28392c0.2634,0 0.46909,0.10699 0.61723,0.32096c0.15639,0.21397 0.27575,0.51848 0.35799,0.91351c0.10701,0.40327 0.19751,0.91762 0.27158,1.54309c0.07407,0.61723 0.1111,1.2427 0.1111,1.8764c0,0.79006 -0.02878,1.45258 -0.08641,1.98749c-0.05755,0.53491 -0.15222,0.97932 -0.28392,1.33322c-0.13162,0.35391 -0.30445,0.66252 -0.51848,0.92585c-0.35383,0.42798 -0.81058,0.75303 -1.37026,0.97523c-0.55134,0.23046 -1.18918,0.34565 -1.91343,0.34565c-0.51848,0 -0.93403,-0.04938 -1.24681,-0.14814c-0.31271,-0.0905 -0.539,-0.21811 -0.67896,-0.38268c-0.13162,-0.15639 -0.19751,-0.33331 -0.19751,-0.53082c0,-0.20577 0.05763,-0.3786 0.17283,-0.51848c0.11527,-0.1317 0.2881,-0.19751 0.51848,-0.19751c0.20577,0 0.44441,0.03294 0.71599,0.09876c0.27984,0.06581 0.60905,0.09876 0.98757,0.09876c0.79832,0 1.36208,-0.18926 1.69123,-0.56786c0.33747,-0.37034 0.50613,-0.90525 0.50613,-1.60481c0,-0.18926 -0.01234,-0.41146 -0.03703,-0.66662l0.17283,0.06173c-0.20569,0.52673 -0.51022,0.95054 -0.91351,1.27151c-0.4032,0.31271 -0.87231,0.46909 -1.40729,0.46909zM223.96998,181.8517c0.2634,0 0.52673,-0.06998 0.79006,-0.20986c0.2634,-0.13988 0.48145,-0.37034 0.65427,-0.6913c0.17283,-0.32096 0.25924,-0.75303 0.25924,-1.29619c0,-0.65016 -0.15222,-1.18098 -0.45675,-1.59246c-0.30445,-0.41149 -0.73243,-0.61723 -1.28385,-0.61723c-0.47727,0 -0.8271,0.18106 -1.0493,0.54316c-0.22221,0.36211 -0.33331,0.90939 -0.33331,1.64184c0,0.69953 0.1111,1.24681 0.33331,1.64184c0.22221,0.38678 0.58437,0.5802 1.08634,0.5802zM234.44977,183.49355c-0.22221,0 -0.39503,-0.07407 -0.51848,-0.22221c-0.11519,-0.15639 -0.19343,-0.35391 -0.23455,-0.59255c-0.04112,-0.2469 -0.06173,-0.50613 -0.06173,-0.77772l0.06173,-0.04938c-0.08233,0.35391 -0.2428,0.65836 -0.48145,0.91351c-0.23864,0.25515 -0.51439,0.45267 -0.8271,0.59255c-0.31271,0.1317 -0.62549,0.19751 -0.9382,0.19751c-0.41972,0 -0.8024,-0.09876 -1.14805,-0.29627c-0.34565,-0.19751 -0.61315,-0.50204 -0.8024,-0.91351c-0.18926,-0.43615 -0.33739,-0.98349 -0.44441,-1.64184c-0.10701,-0.66662 -0.16048,-1.34969 -0.16048,-2.04922c0,-0.37857 0.01644,-0.72833 0.04938,-1.0493c0.03294,-0.32096 0.08641,-0.58431 0.16048,-0.79006c0.06581,-0.21397 0.16457,-0.37034 0.29627,-0.46909c0.1317,-0.10699 0.30036,-0.16048 0.50613,-0.16048c0.23864,0 0.42381,0.09464 0.55551,0.28392c0.13988,0.18106 0.22629,0.43618 0.25924,0.76537c0.03294,0.27158 0.05347,0.609 0.06173,1.01227c0.01644,0.39503 0.02878,0.79417 0.03703,1.19744c0.01644,0.39503 0.03703,0.72833 0.06173,0.99992c0.04938,0.49379 0.17691,0.86004 0.38268,1.09868c0.20577,0.23046 0.45675,0.34565 0.75303,0.34565c0.43615,0 0.76946,-0.16457 0.99992,-0.49379c0.23046,-0.3292 0.34565,-0.79006 0.34565,-1.3826c0,-0.29627 -0.01644,-0.62958 -0.04938,-0.99992c-0.03294,-0.37857 -0.06998,-0.7448 -0.1111,-1.09868c-0.03294,-0.35388 -0.04938,-0.64604 -0.04938,-0.87647c0,-0.3868 0.06581,-0.6625 0.19751,-0.8271c0.1317,-0.17283 0.31271,-0.25924 0.54316,-0.25924c0.19751,0 0.36209,0.05349 0.49379,0.16048c0.13988,0.10699 0.25098,0.25513 0.33331,0.44441c0.11519,0.2469 0.21395,0.58431 0.29627,1.01227c0.08233,0.42795 0.14814,0.91351 0.19751,1.45667c0.04938,0.54316 0.07407,1.11513 0.07407,1.71591c0,0.92176 -0.06173,1.61306 -0.18517,2.07391c-0.12344,0.45267 -0.34157,0.67896 -0.65427,0.67896zM238.0501,175.88922c0.26332,0 0.44024,0.10699 0.53082,0.32096c0.09876,0.21397 0.14814,0.53082 0.14814,0.95054c0,0.09876 -0.00826,0.20574 -0.02469,0.32096c-0.00826,0.10699 -0.02469,0.20574 -0.04938,0.29627l-0.02469,-0.2469c0.19751,-0.53493 0.50197,-0.95054 0.91351,-1.24681c0.41146,-0.3045 0.84762,-0.45675 1.30854,-0.45675c0.51022,0 0.93403,0.14403 1.27151,0.43206c0.34565,0.28804 0.60073,0.6913 0.76537,1.20978c0.17283,0.51848 0.25924,1.1316 0.25924,1.83936c0,0.43618 -0.0206,0.86824 -0.06173,1.29619c-0.03294,0.41972 -0.08233,0.8065 -0.14814,1.1604c-0.05763,0.34565 -0.12344,0.62958 -0.19751,0.85178c-0.09876,0.27984 -0.22637,0.4897 -0.38268,0.62958c-0.15639,0.1317 -0.34157,0.19751 -0.55551,0.19751c-0.21403,0 -0.3786,-0.07815 -0.49379,-0.23455c-0.11527,-0.15639 -0.17283,-0.36625 -0.17283,-0.62958c0,-0.27984 0.02052,-0.61723 0.06173,-1.01227c0.04112,-0.40327 0.07815,-0.81063 0.1111,-1.22212c0.04112,-0.41972 0.06173,-0.79829 0.06173,-1.13571c0,-1.15216 -0.3786,-1.72826 -1.13571,-1.72826c-0.40328,0 -0.74069,0.18106 -1.01227,0.54316c-0.27158,0.35388 -0.45267,0.86002 -0.54316,1.5184c-0.02469,0.22221 -0.03703,0.4979 -0.03703,0.8271c0,0.3292 0,0.65838 0,0.98757c0.00818,0.32096 0,0.59255 -0.02469,0.81475c-0.03294,0.49379 -0.12762,0.84769 -0.28392,1.06164c-0.14814,0.21395 -0.35391,0.32096 -0.61723,0.32096c-0.30453,0 -0.53499,-0.13988 -0.6913,-0.41972c-0.15639,-0.28802 -0.23455,-0.76946 -0.23455,-1.44433c0,-0.34565 0.00818,-0.73245 0.02469,-1.1604c0.01644,-0.42795 0.03703,-0.8559 0.06173,-1.28385c0.03287,-0.43618 0.0699,-0.83121 0.1111,-1.18509c0.08225,-0.66662 0.20161,-1.19332 0.35799,-1.58012c0.15632,-0.39503 0.39086,-0.59255 0.70365,-0.59255zM248.85062,183.85155c-0.51848,0 -0.92176,-0.03294 -1.20978,-0.09876c-0.27984,-0.06581 -0.47319,-0.15639 -0.5802,-0.27158c-0.10701,-0.12344 -0.16457,-0.25924 -0.17283,-0.40738c0,-0.23046 0.1358,-0.42381 0.40738,-0.5802c0.27984,-0.15639 0.79006,-0.25515 1.53074,-0.29627l-0.19751,0.23455c-0.0905,-0.41972 -0.15639,-0.90942 -0.19751,-1.46902c-0.04112,-0.55962 -0.05763,-1.13982 -0.04938,-1.7406c0.00826,-0.60078 0.03703,-1.17275 0.08641,-1.71591c0.04938,-0.5514 0.11936,-1.0205 0.20986,-1.40729l1.07398,-0.07407c-0.18108,0.07407 -0.40738,0.13991 -0.67896,0.19751c-0.27158,0.04938 -0.55142,0.07407 -0.83944,0.07407c-0.52673,0 -0.9176,-0.05761 -1.17275,-0.17283c-0.2469,-0.11521 -0.37034,-0.27569 -0.37034,-0.48145c0,-0.36211 0.21811,-0.64192 0.65427,-0.83944c0.44441,-0.20574 1.12337,-0.30862 2.03688,-0.30862c1.08634,0 1.99984,0.18106 2.74052,0.54316c0.74893,0.35388 1.31679,0.85178 1.70357,1.4937c0.38678,0.63369 0.5802,1.37437 0.5802,2.22205c0,0.74069 -0.1317,1.42375 -0.39503,2.04922c-0.26332,0.61723 -0.64192,1.15631 -1.13571,1.61716c-0.48553,0.45267 -1.0699,0.8065 -1.75294,1.06164c-0.67487,0.2469 -1.43199,0.37034 -2.27142,0.37034zM250.60357,181.95047c0.27984,0 0.57611,-0.1111 0.88881,-0.33331c0.32096,-0.23046 0.59255,-0.56374 0.81475,-0.99992c0.22221,-0.44441 0.33331,-0.99169 0.33331,-1.64184c0,-0.47733 -0.06998,-0.89293 -0.20986,-1.24681c-0.1317,-0.36211 -0.30453,-0.6625 -0.51848,-0.90116c-0.21395,-0.23866 -0.44032,-0.41561 -0.67896,-0.53082c-0.23864,-0.12344 -0.46501,-0.18517 -0.67896,-0.18517c-0.17283,0 -0.30862,0.10699 -0.40738,0.32096c-0.0905,0.21397 -0.15639,0.53493 -0.19751,0.96288c-0.04112,0.41972 -0.06173,0.94231 -0.06173,1.56777c0,0.97112 0.04938,1.7118 0.14814,2.22205c0.09876,0.51022 0.28802,0.76537 0.56786,0.76537zM261.16066,183.69106c-0.27976,0 -0.47319,-0.10701 -0.5802,-0.32096c-0.09876,-0.22221 -0.15632,-0.57195 -0.17283,-1.0493l0.12344,0.06173c-0.46085,0.89707 -1.33322,1.34558 -2.61707,1.34558c-0.58429,0 -1.06982,-0.10285 -1.45667,-0.30862c-0.38678,-0.21395 -0.67479,-0.49379 -0.86413,-0.83944c-0.18101,-0.35391 -0.27158,-0.73659 -0.27158,-1.14805c0,-0.70776 0.2469,-1.26739 0.74069,-1.67887c0.49379,-0.41972 1.14805,-0.62958 1.96281,-0.62958c0.53499,0 0.99992,0.07818 1.39495,0.23455c0.39503,0.15637 0.73251,0.37445 1.01227,0.65427l-0.20986,-0.02469c-0.05755,-0.83121 -0.23864,-1.42375 -0.54316,-1.77764c-0.29627,-0.36211 -0.72008,-0.54316 -1.27151,-0.54316c-0.32096,0 -0.61723,0.04938 -0.88881,0.14814c-0.27158,0.09876 -0.52256,0.20162 -0.75303,0.30862c-0.22221,0.09876 -0.43206,0.14814 -0.62958,0.14814c-0.19751,0 -0.35383,-0.06584 -0.46909,-0.19751c-0.10694,-0.13168 -0.16048,-0.30039 -0.16048,-0.50613c0,-0.29627 0.13996,-0.57609 0.41972,-0.83944c0.2881,-0.26335 0.66662,-0.47733 1.13571,-0.64192c0.46909,-0.16459 0.9794,-0.2469 1.53074,-0.2469c0.66662,0 1.23864,0.16048 1.71591,0.48145c0.47735,0.32096 0.83944,0.79006 1.08634,1.40729c0.21403,0.52671 0.36625,1.11513 0.45675,1.76529c0.09058,0.65016 0.1358,1.34558 0.1358,2.08625c0,0.5596 -0.02878,0.99167 -0.08641,1.29619c-0.05755,0.30453 -0.14814,0.51848 -0.27158,0.64192c-0.11519,0.11519 -0.27158,0.17283 -0.46909,0.17283zM258.43249,182.30846c0.27158,0 0.54734,-0.03703 0.8271,-0.1111c0.27984,-0.08233 0.51439,-0.20161 0.70365,-0.35799c0.18934,-0.15639 0.28392,-0.34974 0.28392,-0.5802c0,-0.19751 -0.08225,-0.35799 -0.2469,-0.48145c-0.15632,-0.13168 -0.36617,-0.23044 -0.62958,-0.29627c-0.25508,-0.06584 -0.53082,-0.09876 -0.8271,-0.09876c-0.50197,0 -0.88465,0.08641 -1.14805,0.25924c-0.25508,0.17283 -0.38268,0.40327 -0.38268,0.6913c0,0.31271 0.11936,0.55551 0.35799,0.72833c0.2469,0.16457 0.6008,0.2469 1.06164,0.2469zM265.20609,176.13611h-0.2469c-0.02469,-0.36211 -0.01651,-0.70365 0.02469,-1.02461c0.04112,-0.3292 0.12754,-0.59255 0.25924,-0.79006c0.13988,-0.20574 0.33739,-0.30862 0.59255,-0.30862c0.23038,0 0.39912,0.07407 0.50613,0.22221c0.10694,0.14814 0.16048,0.35388 0.16048,0.61723c0,0.51848 -0.09876,0.96288 -0.29627,1.33322l-0.22221,-0.02469c0.44441,-0.15637 0.94638,-0.23455 1.50605,-0.23455c0.35383,0 0.63367,0.06996 0.83944,0.20986c0.21395,0.13168 0.32096,0.35799 0.32096,0.67896c0,0.3045 -0.12344,0.53493 -0.37034,0.6913c-0.2469,0.15637 -0.55551,0.23455 -0.92585,0.23455c-0.22221,0 -0.46092,-0.00823 -0.71599,-0.02469c-0.2469,-0.02469 -0.4897,-0.06173 -0.72833,-0.1111l0.20986,-0.25924c0.07407,0.31273 0.14397,0.67073 0.20986,1.07398c0.07407,0.39503 0.13988,0.80651 0.19751,1.23447c0.05755,0.42795 0.10285,0.84355 0.1358,1.24681c0.03287,0.40328 0.04938,0.76537 0.04938,1.08634c0,0.52673 -0.08233,0.94228 -0.2469,1.24681c-0.16465,0.30453 -0.40738,0.45675 -0.72833,0.45675c-0.25515,0 -0.45675,-0.07815 -0.60489,-0.23455c-0.13996,-0.15639 -0.2428,-0.35391 -0.30862,-0.59255c-0.05763,-0.2469 -0.09467,-0.50204 -0.1111,-0.76537c-0.00826,-0.26332 -0.01234,-0.50204 -0.01234,-0.71599c0,-0.36211 0.01644,-0.76948 0.04938,-1.22212c0.03287,-0.46086 0.07815,-0.93409 0.1358,-1.41964c0.06581,-0.48556 0.13988,-0.95465 0.22221,-1.40729l0.2469,0.20986c-0.41972,0.21397 -0.9382,0.32096 -1.55543,0.32096c-0.3786,0 -0.67078,-0.06996 -0.87647,-0.20986c-0.20577,-0.13991 -0.30862,-0.35799 -0.30862,-0.65427c0,-0.32096 0.11519,-0.56786 0.34565,-0.74069c0.23038,-0.18106 0.539,-0.27158 0.92585,-0.27158c0.25508,0 0.49379,0.01645 0.71599,0.04938c0.23038,0.02469 0.43206,0.05761 0.60489,0.09876zM275.04875,183.69106c-0.28007,0 -0.4735,-0.10701 -0.58051,-0.32096c-0.09876,-0.22221 -0.15632,-0.57195 -0.17283,-1.0493l0.12344,0.06173c-0.46085,0.89707 -1.33322,1.34558 -2.61707,1.34558c-0.58429,0 -1.06982,-0.10285 -1.45667,-0.30862c-0.38678,-0.21395 -0.67479,-0.49379 -0.86413,-0.83944c-0.18101,-0.35391 -0.27158,-0.73659 -0.27158,-1.14805c0,-0.70776 0.2469,-1.26739 0.74069,-1.67887c0.49379,-0.41972 1.14805,-0.62958 1.96281,-0.62958c0.53499,0 0.99992,0.07818 1.39495,0.23455c0.39503,0.15637 0.73251,0.37445 1.01227,0.65427l-0.20986,-0.02469c-0.05755,-0.83121 -0.23864,-1.42375 -0.54316,-1.77764c-0.29627,-0.36211 -0.72008,-0.54316 -1.27151,-0.54316c-0.32096,0 -0.61723,0.04938 -0.88881,0.14814c-0.27158,0.09876 -0.52256,0.20162 -0.75303,0.30862c-0.22221,0.09876 -0.43206,0.14814 -0.62958,0.14814c-0.19751,0 -0.35383,-0.06584 -0.46909,-0.19751c-0.10694,-0.13168 -0.16048,-0.30039 -0.16048,-0.50613c0,-0.29627 0.13996,-0.57609 0.41972,-0.83944c0.2881,-0.26335 0.66662,-0.47733 1.13571,-0.64192c0.46909,-0.16459 0.9794,-0.2469 1.53074,-0.2469c0.66662,0 1.23864,0.16048 1.71591,0.48145c0.47735,0.32096 0.83974,0.79006 1.08664,1.40729c0.21372,0.52671 0.36571,1.11513 0.45675,1.76529c0.09027,0.65016 0.1358,1.34558 0.1358,2.08625c0,0.5596 -0.02932,0.99167 -0.08641,1.29619c-0.05786,0.30453 -0.14814,0.51848 -0.27158,0.64192c-0.11573,0.11519 -0.27158,0.17283 -0.46909,0.17283zM272.32027,182.30846c0.27158,0 0.54734,-0.03703 0.8271,-0.1111c0.27984,-0.08233 0.51439,-0.20161 0.70365,-0.35799c0.18934,-0.15639 0.28392,-0.34974 0.28392,-0.5802c0,-0.19751 -0.08225,-0.35799 -0.2469,-0.48145c-0.15632,-0.13168 -0.36617,-0.23044 -0.62958,-0.29627c-0.25508,-0.06584 -0.53082,-0.09876 -0.8271,-0.09876c-0.50197,0 -0.88465,0.08641 -1.14805,0.25924c-0.25508,0.17283 -0.38268,0.40327 -0.38268,0.6913c0,0.31271 0.11936,0.55551 0.35799,0.72833c0.2469,0.16457 0.6008,0.2469 1.06164,0.2469zM277.38113,178.00016c0,-0.79006 0.07407,-1.35792 0.22221,-1.70357c0.14814,-0.35388 0.35799,-0.53082 0.62958,-0.53082c0.21449,0 0.38268,0.09052 0.50613,0.27158c0.12344,0.17283 0.21449,0.39092 0.27158,0.65427c0.05786,0.25513 0.08641,0.51437 0.08641,0.77772l-0.06173,-0.02469c0.14042,-0.44441 0.35414,-0.8271 0.64192,-1.14805c0.29627,-0.32096 0.65041,-0.48145 1.06164,-0.48145c0.48607,0 0.84407,0.20162 1.07398,0.60489c0.23069,0.39503 0.34565,0.88881 0.34565,1.48136c0,0.79006 -0.09027,1.34146 -0.27158,1.65419c-0.18054,0.31273 -0.42358,0.46909 -0.72833,0.46909c-0.22221,0 -0.38654,-0.09052 -0.49379,-0.27158c-0.09876,-0.18106 -0.13117,-0.50202 -0.09876,-0.96288c0.03318,-0.48556 0.00463,-0.82298 -0.08641,-1.01227c-0.09027,-0.18928 -0.23455,-0.28392 -0.43206,-0.28392c-0.2384,0 -0.43593,0.15225 -0.59255,0.45675c-0.14814,0.29627 -0.22221,0.6625 -0.22221,1.09868c0,0.17283 0.02083,0.39092 0.06173,0.65427c0.04166,0.26335 0.08641,0.5514 0.1358,0.86413c0.04938,0.3045 0.0949,0.609 0.1358,0.91351c0.04166,0.30453 0.06173,0.58429 0.06173,0.83944c0,0.45267 -0.06944,0.77772 -0.20986,0.97523c-0.13965,0.19751 -0.33716,0.29627 -0.59255,0.29627c-0.28779,0 -0.50999,-0.0905 -0.66662,-0.27158c-0.15585,-0.18926 -0.27544,-0.49379 -0.35799,-0.91351c-0.06558,-0.3786 -0.13117,-0.8271 -0.19751,-1.34558c-0.06558,-0.51848 -0.11882,-1.0493 -0.16048,-1.59246c-0.04089,-0.54316 -0.06173,-1.03284 -0.06173,-1.46902z"/></g></g></svg>