<svg version="1.1" xmlns="http://www.w3.org/2000/svg" xmlns:xlink="http://www.w3.org/1999/xlink" width="386.03861" height="12.41048" viewBox="0,0,386.03861,12.41048"><g transform="translate(-50.95306,-171.61406)"><g data-paper-data="{&quot;isPaintingLayer&quot;:true}" fill="#000000" fill-rule="nonzero" stroke="none" stroke-width="1" stroke-linecap="butt" stroke-linejoin="miter" stroke-miterlimit="10" stroke-dasharray="" stroke-dashoffset="0" style="mix-blend-mode: normal"><path d="M55.1354,181.57967c-0.93493,0 -1.71265,-0.17375 -2.33317,-0.52124c-0.62052,-0.35574 -1.08385,-0.85216 -1.38997,-1.48926c-0.30612,-0.63707 -0.45919,-1.3817 -0.45919,-2.23389c0,-0.9432 0.16961,-1.76643 0.50883,-2.46969c0.34749,-0.71154 0.84805,-1.26173 1.50167,-1.65059c0.65362,-0.38886 1.43962,-0.58329 2.35799,-0.58329c0.86046,0 1.54717,0.15307 2.06014,0.45919c0.51297,0.29785 0.76945,0.67844 0.76945,1.14176c0,0.27303 -0.08687,0.49228 -0.26062,0.65776c-0.17375,0.1572 -0.4261,0.2358 -0.75704,0.2358c-0.21512,0 -0.4261,-0.0455 -0.63293,-0.13652c-0.20684,-0.09101 -0.43023,-0.17789 -0.67017,-0.26062c-0.23166,-0.09101 -0.50883,-0.13652 -0.8315,-0.13652c-0.41369,0 -0.79841,0.0786 -1.15417,0.2358c-0.34749,0.1572 -0.62879,0.42196 -0.84391,0.79427c-0.20684,0.36404 -0.31026,0.86046 -0.31026,1.48926c0,0.95147 0.20684,1.62577 0.62052,2.02291c0.42196,0.39714 0.97629,0.5957 1.663,0.5957c0.23994,0 0.49228,-0.02065 0.75704,-0.06205c0.26476,-0.04964 0.51297,-0.09514 0.74463,-0.13652c0.23166,-0.04964 0.41782,-0.07446 0.55847,-0.07446c0.2813,0 0.50469,0.07032 0.67017,0.21098c0.16548,0.13235 0.24821,0.33092 0.24821,0.5957c0,0.38056 -0.23994,0.69499 -0.71981,0.9432c-0.47987,0.24821 -1.179,0.37231 -2.09737,0.37231zM62.17728,181.48039c-0.66192,0 -1.24105,-0.14476 -1.73747,-0.43437c-0.48818,-0.29785 -0.86873,-0.71981 -1.14176,-1.26587c-0.26476,-0.54606 -0.39714,-1.19555 -0.39714,-1.94845c0,-0.786 0.13652,-1.47271 0.40955,-2.06014c0.27303,-0.58743 0.65776,-1.04662 1.15417,-1.37756c0.50466,-0.33094 1.08796,-0.49642 1.74988,-0.49642c0.71156,0 1.32792,0.16134 1.84916,0.48401c0.52124,0.3144 0.92662,0.75704 1.21623,1.32792c0.28961,0.57088 0.43437,1.23691 0.43437,1.99809c0,0.77772 -0.14476,1.44789 -0.43437,2.0105c-0.28961,0.56264 -0.69915,0.997 -1.22864,1.3031c-0.52948,0.3061 -1.15417,0.45919 -1.87398,0.45919zM62.35103,179.80498c0.513,0 0.91838,-0.20271 1.21623,-0.60811c0.3061,-0.41369 0.45919,-0.95975 0.45919,-1.63818c0,-0.68672 -0.15309,-1.23278 -0.45919,-1.63818c-0.29785,-0.40541 -0.70323,-0.60811 -1.21623,-0.60811c-0.52948,0 -0.94736,0.20271 -1.25346,0.60811c-0.3061,0.40541 -0.45919,0.95147 -0.45919,1.63818c0,0.67844 0.15309,1.2245 0.45919,1.63818c0.3061,0.40541 0.72397,0.60811 1.25346,0.60811zM68.23244,173.72384c0.26479,0 0.44261,0.10755 0.53365,0.32267c0.09928,0.21512 0.14893,0.53365 0.14893,0.95561c0,0.09928 -0.00824,0.20684 -0.02482,0.32267c-0.00824,0.10755 -0.02482,0.20684 -0.04964,0.29785l-0.02482,-0.24821c0.19857,-0.53779 0.50466,-0.95561 0.91838,-1.25346c0.41371,-0.30612 0.85216,-0.45919 1.31551,-0.45919c0.513,0 0.93903,0.14479 1.27828,0.43437c0.34749,0.28958 0.60395,0.69499 0.76945,1.21623c0.17375,0.52124 0.26062,1.13762 0.26062,1.84916c0,0.43851 -0.02065,0.87287 -0.06205,1.3031c-0.03307,0.42196 -0.08271,0.81082 -0.14893,1.16659c-0.05789,0.34749 -0.1241,0.63293 -0.19857,0.85632c-0.09928,0.28127 -0.22756,0.49225 -0.38472,0.63293c-0.15717,0.13235 -0.34333,0.19857 -0.55847,0.19857c-0.21514,0 -0.38056,-0.07863 -0.49642,-0.2358c-0.11586,-0.15717 -0.17375,-0.36815 -0.17375,-0.63293c0,-0.28127 0.02065,-0.62052 0.06205,-1.01766c0.0414,-0.40541 0.07863,-0.81495 0.11169,-1.22864c0.0414,-0.42196 0.06205,-0.80254 0.06205,-1.14176c0,-1.15831 -0.38056,-1.73747 -1.14176,-1.73747c-0.40538,0 -0.74463,0.18202 -1.01766,0.54606c-0.27303,0.35576 -0.45502,0.86459 -0.54606,1.52649c-0.02482,0.22339 -0.03723,0.50056 -0.03723,0.8315c0,0.33094 0,0.6619 0,0.99284c0.00824,0.32267 0,0.5957 -0.02482,0.81909c-0.03307,0.49642 -0.12827,0.85216 -0.28544,1.0673c-0.14893,0.21514 -0.35574,0.32267 -0.62052,0.32267c-0.3061,0 -0.53782,-0.14068 -0.69499,-0.42196c-0.15717,-0.28961 -0.2358,-0.77362 -0.2358,-1.45203c0,-0.34749 0.00824,-0.73636 0.02482,-1.16659c0.01658,-0.43023 0.03723,-0.86046 0.06205,-1.29069c0.03307,-0.43851 0.0703,-0.83564 0.11169,-1.19141c0.08271,-0.67017 0.20273,-1.19968 0.3599,-1.58854c0.15717,-0.39714 0.39297,-0.5957 0.7074,-0.5957zM76.96587,173.97205h-0.24821c-0.02482,-0.36404 -0.01649,-0.7074 0.02482,-1.03007c0.0414,-0.33094 0.12827,-0.5957 0.26062,-0.79427c0.14068,-0.20684 0.33925,-0.31026 0.5957,-0.31026c0.23172,0 0.4013,0.07446 0.50883,0.22339c0.10762,0.14893 0.16134,0.35576 0.16134,0.62052c0,0.52124 -0.09928,0.96802 -0.29785,1.34033l-0.22339,-0.02482c0.44678,-0.1572 0.95153,-0.2358 1.51408,-0.2358c0.35583,0 0.6371,0.07032 0.84391,0.21098c0.21514,0.13238 0.32267,0.3599 0.32267,0.68258c0,0.30612 -0.1241,0.53779 -0.37231,0.69499c-0.24821,0.1572 -0.55847,0.2358 -0.93079,0.2358c-0.22339,0 -0.46327,-0.00827 -0.71981,-0.02482c-0.24821,-0.02482 -0.49225,-0.06205 -0.73222,-0.11169l0.21098,-0.26062c0.07446,0.3144 0.14485,0.67431 0.21098,1.07971c0.07446,0.39714 0.14068,0.81082 0.19857,1.24105c0.05797,0.43023 0.10345,0.84805 0.13652,1.25346c0.03315,0.40541 0.04964,0.76945 0.04964,1.09212c0,0.52948 -0.08271,0.94736 -0.24821,1.25346c-0.16541,0.3061 -0.40955,0.45919 -0.73222,0.45919c-0.25645,0 -0.45919,-0.07863 -0.60811,-0.2358c-0.14059,-0.15717 -0.24404,-0.35574 -0.31026,-0.5957c-0.05789,-0.24821 -0.09512,-0.50466 -0.11169,-0.76945c-0.00824,-0.26479 -0.01241,-0.50469 -0.01241,-0.71981c0,-0.36404 0.01658,-0.77359 0.04964,-1.22864c0.03315,-0.46333 0.07863,-0.93906 0.13652,-1.42721c0.06622,-0.48815 0.14068,-0.95975 0.22339,-1.41479l0.24821,0.21098c-0.42196,0.21512 -0.9432,0.32267 -1.56372,0.32267c-0.38056,0 -0.67424,-0.07032 -0.88114,-0.21098c-0.20681,-0.14066 -0.31026,-0.3599 -0.31026,-0.65776c0,-0.32267 0.11586,-0.57088 0.34749,-0.74463c0.23172,-0.18202 0.54198,-0.27303 0.93079,-0.27303c0.25654,0 0.49642,0.01655 0.71981,0.04964c0.23172,0.02482 0.43437,0.05791 0.60811,0.09928zM84.33194,181.48039c-0.66192,0 -1.24105,-0.14476 -1.73747,-0.43437c-0.48818,-0.29785 -0.86873,-0.71981 -1.14176,-1.26587c-0.26479,-0.54606 -0.39714,-1.19555 -0.39714,-1.94845c0,-0.786 0.13652,-1.47271 0.40955,-2.06014c0.27303,-0.58743 0.65776,-1.04662 1.15417,-1.37756c0.50466,-0.33094 1.08796,-0.49642 1.74988,-0.49642c0.71156,0 1.32792,0.16134 1.84916,0.48401c0.52124,0.3144 0.92662,0.75704 1.21623,1.32792c0.28961,0.57088 0.43437,1.23691 0.43437,1.99809c0,0.77772 -0.14476,1.44789 -0.43437,2.0105c-0.28961,0.56264 -0.69915,0.997 -1.22864,1.3031c-0.52948,0.3061 -1.15417,0.45919 -1.87398,0.45919zM84.50568,179.80498c0.513,0 0.91838,-0.20271 1.21623,-0.60811c0.3061,-0.41369 0.45919,-0.95975 0.45919,-1.63818c0,-0.68672 -0.15309,-1.23278 -0.45919,-1.63818c-0.29785,-0.40541 -0.70323,-0.60811 -1.21623,-0.60811c-0.52948,0 -0.94736,0.20271 -1.25346,0.60811c-0.3061,0.40541 -0.45919,0.95147 -0.45919,1.63818c0,0.67844 0.15309,1.2245 0.45919,1.63818c0.3061,0.40541 0.72397,0.60811 1.25346,0.60811zM90.39951,171.61406c0.2647,0 0.44678,0.10342 0.54606,0.31026c0.10753,0.20684 0.16134,0.5171 0.16134,0.93079c0,0.35576 -0.02074,0.80254 -0.06205,1.34033c-0.0414,0.53779 -0.09521,1.05489 -0.16134,1.55131h-0.07446c0.27303,-0.51297 0.6246,-0.92665 1.05489,-1.24105c0.4302,-0.3144 0.88522,-0.4716 1.36515,-0.4716c0.42196,0 0.79835,0.10342 1.12935,0.31026c0.33092,0.19857 0.59978,0.51297 0.80668,0.9432c0.19023,0.38886 0.33092,0.85218 0.42196,1.38997c0.09095,0.52951 0.13652,1.03421 0.13652,1.51408c0,0.76945 -0.05381,1.3817 -0.16134,1.83675c-0.09928,0.45502 -0.23997,0.78603 -0.42196,0.99284c-0.18208,0.19857 -0.39714,0.29785 -0.64534,0.29785c-0.52124,0 -0.78186,-0.42612 -0.78186,-1.27828c0,-0.41369 0.02065,-0.83977 0.06205,-1.27828c0.04964,-0.43851 0.07446,-0.83977 0.07446,-1.20382c0,-0.62052 -0.09928,-1.08385 -0.29785,-1.38997c-0.19032,-0.3144 -0.46752,-0.4716 -0.8315,-0.4716c-0.45511,0 -0.82326,0.20271 -1.10453,0.60811c-0.28136,0.40541 -0.42196,0.96388 -0.42196,1.67541c0,0.37231 0.03307,0.78186 0.09928,1.22864c0.06613,0.43851 0.09928,0.83975 0.09928,1.20382c0,0.40538 -0.07863,0.69915 -0.2358,0.88114c-0.14893,0.17375 -0.34342,0.26062 -0.58329,0.26062c-0.18208,0 -0.34342,-0.03723 -0.48401,-0.11169c-0.13244,-0.06622 -0.24821,-0.20273 -0.34749,-0.40955c-0.09104,-0.21514 -0.16967,-0.53365 -0.2358,-0.95561c-0.04964,-0.32267 -0.09928,-0.69913 -0.14893,-1.12935c-0.04964,-0.43023 -0.09104,-0.88114 -0.1241,-1.35274c-0.03315,-0.4716 -0.06205,-0.93079 -0.08687,-1.37756c-0.01658,-0.45505 -0.02482,-0.86873 -0.02482,-1.24105c0,-1.17486 0.11169,-2.02705 0.33508,-2.55656c0.22339,-0.53779 0.53773,-0.80668 0.9432,-0.80668zM102.14594,181.50521c-0.513,0 -0.93912,-0.09512 -1.27828,-0.28544c-0.33101,-0.19857 -0.57921,-0.50059 -0.74463,-0.90597c-0.11586,-0.28127 -0.20273,-0.62052 -0.26062,-1.01766c-0.04964,-0.40541 -0.07446,-0.86873 -0.07446,-1.38997c0,-0.89355 0.0289,-1.62991 0.08687,-2.20907c0.05789,-0.58743 0.14059,-1.05903 0.24821,-1.41479c0.11577,-0.36404 0.24404,-0.65776 0.38472,-0.88114c0.22339,-0.33922 0.57913,-0.61225 1.0673,-0.81909c0.48809,-0.20684 1.179,-0.31026 2.07255,-0.31026c0.5957,0 1.07138,0.09101 1.42721,0.27303c0.36398,0.17375 0.6246,0.40541 0.78186,0.69499c0.16541,0.28958 0.24821,0.61225 0.24821,0.96802c0,0.56261 -0.1655,1.02593 -0.49642,1.38997c-0.33101,0.36404 -0.76537,0.65362 -1.3031,0.86873v0.04964c0.58737,0.06619 1.04248,0.25648 1.36515,0.57088c0.33092,0.30612 0.49642,0.74463 0.49642,1.31551c0,0.45505 -0.11586,0.87287 -0.34749,1.25346c-0.22339,0.37231 -0.52957,0.69915 -0.91838,0.98043c-0.38065,0.27303 -0.81085,0.48818 -1.29069,0.64534c-0.47993,0.14893 -0.96802,0.22339 -1.46444,0.22339zM102.53066,180.01595c0.39714,0 0.74871,-0.06622 1.05489,-0.19857c0.31434,-0.13235 0.55847,-0.31026 0.73222,-0.53365c0.18199,-0.23166 0.27303,-0.49228 0.27303,-0.78186c0,-0.3144 -0.15309,-0.57502 -0.45919,-0.78186c-0.29785,-0.21512 -0.76537,-0.32267 -1.40238,-0.32267c-0.43029,0 -0.77362,0.10342 -1.03007,0.31026c-0.24821,0.19857 -0.37231,0.54192 -0.37231,1.03007c0,0.46333 0.09928,0.79427 0.29785,0.99284c0.19857,0.19032 0.5005,0.28544 0.90597,0.28544zM102.5803,176.08183c0.56255,0 1.03007,-0.1241 1.40238,-0.37231c0.38056,-0.25648 0.57088,-0.58743 0.57088,-0.99284c0,-0.29785 -0.12003,-0.53779 -0.3599,-0.71981c-0.23997,-0.18202 -0.59163,-0.27303 -1.05489,-0.27303c-0.50475,0 -0.91838,0.09928 -1.24105,0.29785c-0.32267,0.19857 -0.48401,0.53779 -0.48401,1.01766c0,0.38886 0.10336,0.6619 0.31026,0.81909c0.21506,0.14893 0.5005,0.22339 0.85632,0.22339zM112.96637,181.56726c-0.28127,0 -0.47568,-0.10753 -0.58329,-0.32267c-0.09928,-0.22339 -0.15717,-0.57505 -0.17375,-1.05489l0.1241,0.06205c-0.46327,0.9018 -1.34033,1.35274 -2.63102,1.35274c-0.58737,0 -1.07555,-0.10345 -1.46444,-0.31026c-0.3888,-0.21514 -0.67841,-0.49642 -0.86873,-0.84391c-0.18199,-0.35574 -0.27303,-0.74046 -0.27303,-1.15417c0,-0.71154 0.24821,-1.27414 0.74463,-1.68783c0.49642,-0.42196 1.15417,-0.63293 1.97327,-0.63293c0.53782,0 1.00525,0.0786 1.40238,0.2358c0.39714,0.1572 0.73638,0.37645 1.01766,0.65776l-0.21098,-0.02482c-0.05789,-0.83564 -0.23988,-1.43134 -0.54606,-1.78711c-0.29785,-0.36404 -0.72389,-0.54606 -1.27828,-0.54606c-0.32267,0 -0.62052,0.04964 -0.89355,0.14893c-0.27303,0.09928 -0.52532,0.20271 -0.75704,0.31026c-0.22339,0.09928 -0.43437,0.14893 -0.63293,0.14893c-0.19857,0 -0.35574,-0.06619 -0.4716,-0.19857c-0.10753,-0.13238 -0.16134,-0.30199 -0.16134,-0.50883c0,-0.29785 0.14068,-0.57915 0.42196,-0.84391c0.28961,-0.26476 0.67017,-0.47987 1.14176,-0.64534c0.4716,-0.16548 0.98459,-0.24821 1.5389,-0.24821c0.67017,0 1.24521,0.16134 1.72506,0.48401c0.47993,0.32267 0.84391,0.79427 1.09212,1.41479c0.21514,0.52951 0.36824,1.12108 0.45919,1.7747c0.09104,0.65362 0.13652,1.35274 0.13652,2.09737c0,0.56264 -0.0289,0.997 -0.08687,1.3031c-0.05789,0.3061 -0.14893,0.52124 -0.27303,0.64534c-0.11577,0.11586 -0.27303,0.17375 -0.4716,0.17375zM110.22365,180.17729c0.27303,0 0.55023,-0.03723 0.8315,-0.11169c0.28136,-0.08271 0.51716,-0.20273 0.7074,-0.3599c0.19032,-0.1572 0.28544,-0.35163 0.28544,-0.58329c0,-0.19857 -0.08271,-0.3599 -0.24821,-0.48401c-0.15717,-0.13238 -0.36815,-0.23166 -0.63293,-0.29785c-0.25645,-0.06619 -0.53365,-0.09928 -0.8315,-0.09928c-0.50466,0 -0.88939,0.08687 -1.15417,0.26062c-0.25645,0.17375 -0.38472,0.40541 -0.38472,0.69499c0,0.3144 0.12003,0.55847 0.3599,0.73222c0.24821,0.1655 0.60404,0.24821 1.0673,0.24821zM116.57755,173.72384c0.26479,0 0.44261,0.10755 0.53365,0.32267c0.09928,0.21512 0.14893,0.53365 0.14893,0.95561c0,0.09928 -0.00824,0.20684 -0.02482,0.32267c-0.00824,0.10755 -0.02482,0.20684 -0.04964,0.29785l-0.02482,-0.24821c0.19857,-0.53779 0.50466,-0.95561 0.91838,-1.25346c0.41371,-0.30612 0.85216,-0.45919 1.31551,-0.45919c0.513,0 0.93903,0.14479 1.27828,0.43437c0.34749,0.28958 0.60395,0.69499 0.76945,1.21623c0.17375,0.52124 0.26062,1.13762 0.26062,1.84916c0,0.43851 -0.02065,0.87287 -0.06205,1.3031c-0.03307,0.42196 -0.08271,0.81082 -0.14893,1.16659c-0.05789,0.34749 -0.1241,0.63293 -0.19857,0.85632c-0.09928,0.28127 -0.22756,0.49225 -0.38472,0.63293c-0.15717,0.13235 -0.34333,0.19857 -0.55847,0.19857c-0.21514,0 -0.38056,-0.07863 -0.49642,-0.2358c-0.11586,-0.15717 -0.17375,-0.36815 -0.17375,-0.63293c0,-0.28127 0.02065,-0.62052 0.06205,-1.01766c0.0414,-0.40541 0.07863,-0.81495 0.11169,-1.22864c0.0414,-0.42196 0.06205,-0.80254 0.06205,-1.14176c0,-1.15831 -0.38056,-1.73747 -1.14176,-1.73747c-0.40538,0 -0.74463,0.18202 -1.01766,0.54606c-0.27303,0.35576 -0.45502,0.86459 -0.54606,1.52649c-0.02482,0.22339 -0.03723,0.50056 -0.03723,0.8315c0,0.33094 0,0.6619 0,0.99284c0.00824,0.32267 0,0.5957 -0.02482,0.81909c-0.03307,0.49642 -0.12827,0.85216 -0.28544,1.0673c-0.14893,0.21514 -0.35574,0.32267 -0.62052,0.32267c-0.3061,0 -0.53782,-0.14068 -0.69499,-0.42196c-0.15717,-0.28961 -0.2358,-0.77362 -0.2358,-1.45203c0,-0.34749 0.00824,-0.73636 0.02482,-1.16659c0.01658,-0.43023 0.03723,-0.86046 0.06205,-1.29069c0.03307,-0.43851 0.0703,-0.83564 0.11169,-1.19141c0.08271,-0.67017 0.20273,-1.19968 0.3599,-1.58854c0.15717,-0.39714 0.39297,-0.5957 0.7074,-0.5957zM125.5841,181.24459c-0.77778,0 -1.41072,-0.29785 -1.8988,-0.89355c-0.48818,-0.60395 -0.73222,-1.51822 -0.73222,-2.74272c0,-1.30724 0.2358,-2.26285 0.7074,-2.86682c0.4716,-0.60397 1.09212,-0.90597 1.86157,-0.90597c0.45502,0 0.85632,0.11583 1.20382,0.34749c0.34749,0.23166 0.64534,0.55847 0.89355,0.98043l-0.09928,0.17375c-0.02482,-0.11583 -0.04556,-0.23994 -0.06205,-0.37231c-0.01658,-0.13238 -0.02482,-0.23166 -0.02482,-0.29785c0,-0.33922 0.05372,-0.59984 0.16134,-0.78186c0.11577,-0.1903 0.29369,-0.28544 0.53365,-0.28544c0.2647,0 0.4716,0.10755 0.62052,0.32267c0.15717,0.21512 0.27711,0.52124 0.3599,0.91838c0.10753,0.40541 0.19857,0.92252 0.27303,1.55131c0.07446,0.62052 0.11169,1.24932 0.11169,1.88639c0,0.79427 -0.02899,1.46027 -0.08687,1.99809c-0.05797,0.53782 -0.15309,0.98459 -0.28544,1.34033c-0.13244,0.35574 -0.30618,0.666 -0.52124,0.93079c-0.35583,0.4302 -0.81501,0.75704 -1.37756,0.98043c-0.55439,0.23163 -1.19557,0.34749 -1.92362,0.34749c-0.52124,0 -0.93912,-0.04964 -1.25346,-0.14893c-0.31443,-0.09104 -0.54198,-0.21922 -0.68258,-0.38472c-0.13244,-0.15717 -0.19857,-0.33508 -0.19857,-0.53365c0,-0.20681 0.05789,-0.38056 0.17375,-0.52124c0.11577,-0.13235 0.28952,-0.19857 0.52124,-0.19857c0.20681,0 0.44678,0.03307 0.71981,0.09928c0.28127,0.06622 0.61219,0.09928 0.99284,0.09928c0.80251,0 1.36923,-0.19032 1.70024,-0.57088c0.33916,-0.37231 0.50883,-0.91013 0.50883,-1.61336c0,-0.19032 -0.01241,-0.41371 -0.03723,-0.67017l0.17375,0.06205c-0.2069,0.52948 -0.513,0.95561 -0.91838,1.27828c-0.40547,0.31443 -0.87707,0.4716 -1.41479,0.4716zM126.0557,179.7181c0.2647,0 0.52948,-0.07032 0.79427,-0.21098c0.2647,-0.14066 0.48401,-0.37231 0.65776,-0.69499c0.17375,-0.32267 0.26062,-0.75704 0.26062,-1.3031c0,-0.65362 -0.15309,-1.18727 -0.45919,-1.60095c-0.30618,-0.41369 -0.73638,-0.62052 -1.29069,-0.62052c-0.47993,0 -0.8315,0.18202 -1.05489,0.54606c-0.22339,0.36404 -0.33508,0.91424 -0.33508,1.65059c0,0.70326 0.11169,1.25346 0.33508,1.65059c0.22339,0.38886 0.58737,0.58329 1.09212,0.58329zM136.59131,181.3687c-0.22339,0 -0.39714,-0.07446 -0.52124,-0.22339c-0.11586,-0.15717 -0.19449,-0.35574 -0.2358,-0.5957c-0.0414,-0.24821 -0.06205,-0.50883 -0.06205,-0.78186l0.06205,-0.04964c-0.0828,0.35574 -0.24413,0.66192 -0.48401,0.91838c-0.23997,0.25645 -0.51716,0.45502 -0.8315,0.5957c-0.31443,0.13235 -0.62886,0.19857 -0.9432,0.19857c-0.42196,0 -0.80668,-0.09928 -1.15417,-0.29785c-0.34749,-0.19857 -0.61645,-0.50466 -0.80668,-0.91838c-0.19032,-0.43853 -0.33925,-0.9887 -0.44678,-1.65059c-0.10762,-0.67017 -0.16134,-1.35688 -0.16134,-2.06014c0,-0.38059 0.01649,-0.73222 0.04964,-1.05489c0.03307,-0.32267 0.08687,-0.58743 0.16134,-0.79427c0.06613,-0.21512 0.16541,-0.37231 0.29785,-0.4716c0.13235,-0.10755 0.30193,-0.16134 0.50883,-0.16134c0.23988,0 0.42603,0.09514 0.55847,0.28544c0.14059,0.18202 0.22747,0.43851 0.26062,0.76945c0.03307,0.27303 0.05372,0.61225 0.06205,1.01766c0.01649,0.39714 0.0289,0.79841 0.03723,1.20382c0.01649,0.39714 0.03723,0.73222 0.06205,1.00525c0.04964,0.49642 0.17782,0.86459 0.38472,1.10453c0.20681,0.23166 0.45919,0.34749 0.75704,0.34749c0.43844,0 0.77353,-0.16548 1.00525,-0.49642c0.23163,-0.33094 0.34749,-0.79427 0.34749,-1.38997c0,-0.29785 -0.01658,-0.63293 -0.04964,-1.00525c-0.03315,-0.38059 -0.07039,-0.74877 -0.11169,-1.10453c-0.03315,-0.35576 -0.04964,-0.64948 -0.04964,-0.88114c0,-0.38886 0.06613,-0.66603 0.19857,-0.8315c0.13235,-0.17375 0.31434,-0.26062 0.54606,-0.26062c0.19857,0 0.36398,0.05378 0.49642,0.16134c0.14059,0.10755 0.25229,0.25648 0.33508,0.44678c0.11577,0.24821 0.21506,0.58743 0.29785,1.01766c0.08271,0.43023 0.14893,0.91838 0.19857,1.46444c0.04964,0.54606 0.07446,1.12108 0.07446,1.72506c0,0.92665 -0.06205,1.62161 -0.18616,2.08496c-0.1241,0.45502 -0.34342,0.68258 -0.65776,0.68258zM140.21101,173.72384c0.26417,0 0.44234,0.10755 0.53365,0.32267c0.09928,0.21512 0.14893,0.53365 0.14893,0.95561c0,0.09928 -0.00886,0.20684 -0.02482,0.32267c-0.00886,0.10755 -0.02482,0.20684 -0.04964,0.29785l-0.02482,-0.24821c0.19857,-0.53779 0.5044,-0.95561 0.91838,-1.25346c0.41309,-0.30612 0.85189,-0.45919 1.31551,-0.45919c0.51238,0 0.93876,0.14479 1.27828,0.43437c0.34749,0.28958 0.60368,0.69499 0.76945,1.21623c0.17375,0.52124 0.26062,1.13762 0.26062,1.84916c0,0.43851 -0.02128,0.87287 -0.06205,1.3031c-0.03369,0.42196 -0.08333,0.81082 -0.14893,1.16659c-0.05851,0.34749 -0.1241,0.63293 -0.19857,0.85632c-0.09928,0.28127 -0.22782,0.49225 -0.38472,0.63293c-0.15779,0.13235 -0.34395,0.19857 -0.55847,0.19857c-0.21541,0 -0.38118,-0.07863 -0.49642,-0.2358c-0.11613,-0.15717 -0.17375,-0.36815 -0.17375,-0.63293c0,-0.28127 0.02039,-0.62052 0.06205,-1.01766c0.04078,-0.40541 0.07801,-0.81495 0.11169,-1.22864c0.04078,-0.42196 0.06205,-0.80254 0.06205,-1.14176c0,-1.15831 -0.38118,-1.73747 -1.14176,-1.73747c-0.406,0 -0.74463,0.18202 -1.01766,0.54606c-0.27303,0.35576 -0.45564,0.86459 -0.54606,1.52649c-0.02482,0.22339 -0.03723,0.50056 -0.03723,0.8315c0,0.33094 0,0.6619 0,0.99284c0.00798,0.32267 0,0.5957 -0.02482,0.81909c-0.03369,0.49642 -0.12854,0.85216 -0.28544,1.0673c-0.14893,0.21514 -0.35636,0.32267 -0.62052,0.32267c-0.30672,0 -0.53808,-0.14068 -0.69499,-0.42196c-0.15779,-0.28961 -0.23598,-0.77362 -0.23598,-1.45203c0,-0.34749 0.00824,-0.73636 0.02482,-1.16659c0.01649,-0.43023 0.03741,-0.86046 0.06223,-1.29069c0.0328,-0.43851 0.07003,-0.83564 0.11169,-1.19141c0.08244,-0.67017 0.20211,-1.19968 0.3599,-1.58854c0.1569,-0.39714 0.3927,-0.5957 0.7074,-0.5957zM151.06929,181.7286c-0.52124,0 -0.92724,-0.03307 -1.21623,-0.09928c-0.2819,-0.06622 -0.47603,-0.15717 -0.58329,-0.27303c-0.10815,-0.1241 -0.16577,-0.26062 -0.17375,-0.40955c0,-0.23163 0.13652,-0.42612 0.40955,-0.58329c0.28101,-0.15717 0.79427,-0.25645 1.5389,-0.29785l-0.19857,0.2358c-0.09131,-0.42196 -0.15779,-0.91424 -0.19857,-1.47685c-0.04166,-0.56261 -0.05851,-1.1459 -0.04964,-1.74988c0.00798,-0.60397 0.03723,-1.179 0.08687,-1.72506c0.04964,-0.55433 0.11967,-1.02593 0.21098,-1.41479l1.07971,-0.07446c-0.18261,0.07446 -0.40955,0.14066 -0.68258,0.19857c-0.27303,0.04964 -0.55493,0.07446 -0.84391,0.07446c-0.5301,0 -0.92281,-0.05791 -1.179,-0.17375c-0.24821,-0.11583 -0.37231,-0.27717 -0.37231,-0.48401c0,-0.36404 0.21896,-0.64534 0.65776,-0.84391c0.44678,-0.20684 1.12935,-0.31026 2.04773,-0.31026c1.09212,0 2.0105,0.18202 2.75513,0.54606c0.75261,0.35576 1.32349,0.85632 1.71265,1.50167c0.38827,0.63707 0.58329,1.3817 0.58329,2.23389c0,0.74463 -0.13297,1.43134 -0.39714,2.06014c-0.26505,0.62052 -0.64534,1.16242 -1.14176,1.62577c-0.48844,0.45502 -1.07617,0.81085 -1.76229,1.0673c-0.67903,0.24821 -1.43962,0.37231 -2.28353,0.37231zM152.83158,179.81739c0.28101,0 0.57886,-0.11169 0.89355,-0.33508c0.32267,-0.23166 0.5957,-0.56674 0.81909,-1.00525c0.22339,-0.44678 0.33508,-0.99698 0.33508,-1.65059c0,-0.47987 -0.07092,-0.89769 -0.21098,-1.25346c-0.13297,-0.36404 -0.30672,-0.66603 -0.52124,-0.90597c-0.21541,-0.23994 -0.44323,-0.41782 -0.68258,-0.53365c-0.24023,-0.1241 -0.46805,-0.18616 -0.68258,-0.18616c-0.17375,0 -0.31026,0.10755 -0.40955,0.32267c-0.09131,0.21512 -0.15779,0.53779 -0.19857,0.96802c-0.04166,0.42196 -0.06205,0.94734 -0.06205,1.57613c0,0.97629 0.04964,1.72092 0.14893,2.23389c0.09928,0.51297 0.28899,0.76945 0.57088,0.76945zM163.44431,181.56726c-0.28101,0 -0.47514,-0.10753 -0.58329,-0.32267c-0.09928,-0.22339 -0.1569,-0.57505 -0.17375,-1.05489l0.1241,0.06205c-0.46273,0.9018 -1.34033,1.35274 -2.63102,1.35274c-0.58684,0 -1.07528,-0.10345 -1.46444,-0.31026c-0.38827,-0.21514 -0.67814,-0.49642 -0.86873,-0.84391c-0.18172,-0.35574 -0.27303,-0.74046 -0.27303,-1.15417c0,-0.71154 0.24821,-1.27414 0.74463,-1.68783c0.49642,-0.42196 1.15417,-0.63293 1.97327,-0.63293c0.53808,0 1.00525,0.0786 1.40238,0.2358c0.39714,0.1572 0.73665,0.37645 1.01766,0.65776l-0.21098,-0.02482c-0.05762,-0.83564 -0.23934,-1.43134 -0.54606,-1.78711c-0.29785,-0.36404 -0.72335,-0.54606 -1.27828,-0.54606c-0.32267,0 -0.62052,0.04964 -0.89355,0.14893c-0.27303,0.09928 -0.52479,0.20271 -0.75704,0.31026c-0.22339,0.09928 -0.43437,0.14893 -0.63293,0.14893c-0.19857,0 -0.35547,-0.06619 -0.4716,-0.19857c-0.10726,-0.13238 -0.16134,-0.30199 -0.16134,-0.50883c0,-0.29785 0.14095,-0.57915 0.42196,-0.84391c0.28987,-0.26476 0.67017,-0.47987 1.14176,-0.64534c0.4716,-0.16548 0.98486,-0.24821 1.5389,-0.24821c0.67017,0 1.24548,0.16134 1.72506,0.48401c0.48046,0.32267 0.84391,0.79427 1.09212,1.41479c0.21541,0.52951 0.36877,1.12108 0.45919,1.7747c0.09131,0.65362 0.13652,1.35274 0.13652,2.09737c0,0.56264 -0.02837,0.997 -0.08687,1.3031c-0.05762,0.3061 -0.14893,0.52124 -0.27303,0.64534c-0.11524,0.11586 -0.27303,0.17375 -0.4716,0.17375zM160.7016,180.17729c0.27303,0 0.55049,-0.03723 0.8315,-0.11169c0.2819,-0.08271 0.51769,-0.20273 0.7074,-0.3599c0.19059,-0.1572 0.28544,-0.35163 0.28544,-0.58329c0,-0.19857 -0.08244,-0.3599 -0.24821,-0.48401c-0.1569,-0.13238 -0.36788,-0.23166 -0.63293,-0.29785c-0.25619,-0.06619 -0.53365,-0.09928 -0.8315,-0.09928c-0.5044,0 -0.88912,0.08687 -1.15417,0.26062c-0.25619,0.17375 -0.38472,0.40541 -0.38472,0.69499c0,0.3144 0.12056,0.55847 0.3599,0.73222c0.24821,0.1655 0.60457,0.24821 1.0673,0.24821zM167.5114,173.97205h-0.24821c-0.02482,-0.36404 -0.01684,-0.7074 0.02482,-1.03007c0.04166,-0.33094 0.12854,-0.5957 0.26062,-0.79427c0.14095,-0.20684 0.33952,-0.31026 0.5957,-0.31026c0.23137,0 0.40157,0.07446 0.50883,0.22339c0.10726,0.14893 0.16134,0.35576 0.16134,0.62052c0,0.52124 -0.09928,0.96802 -0.29785,1.34033l-0.22339,-0.02482c0.44678,-0.1572 0.95117,-0.2358 1.51408,-0.2358c0.35547,0 0.63737,0.07032 0.84391,0.21098c0.21541,0.13238 0.32267,0.3599 0.32267,0.68258c0,0.30612 -0.1241,0.53779 -0.37231,0.69499c-0.24821,0.1572 -0.55847,0.2358 -0.93079,0.2358c-0.22339,0 -0.46362,-0.00827 -0.71981,-0.02482c-0.24821,-0.02482 -0.49199,-0.06205 -0.73222,-0.11169l0.21098,-0.26062c0.07446,0.3144 0.14449,0.67431 0.21098,1.07971c0.07446,0.39714 0.14095,0.81082 0.19857,1.24105c0.05762,0.43023 0.10372,0.84805 0.13652,1.25346c0.0328,0.40541 0.04964,0.76945 0.04964,1.09212c0,0.52948 -0.08244,0.94736 -0.24821,1.25346c-0.16577,0.3061 -0.40955,0.45919 -0.73222,0.45919c-0.25619,0 -0.45919,-0.07863 -0.60811,-0.2358c-0.14095,-0.15717 -0.24378,-0.35574 -0.31026,-0.5957c-0.05762,-0.24821 -0.09485,-0.50466 -0.11169,-0.76945c-0.00798,-0.26479 -0.01241,-0.50469 -0.01241,-0.71981c0,-0.36404 0.01684,-0.77359 0.04964,-1.22864c0.0328,-0.46333 0.0789,-0.93906 0.13652,-1.42721c0.06648,-0.48815 0.14095,-0.95975 0.22339,-1.41479l0.24821,0.21098c-0.42196,0.21512 -0.9432,0.32267 -1.56372,0.32267c-0.38029,0 -0.6746,-0.07032 -0.88114,-0.21098c-0.20655,-0.14066 -0.31026,-0.3599 -0.31026,-0.65776c0,-0.32267 0.11613,-0.57088 0.34749,-0.74463c0.23137,-0.18202 0.54163,-0.27303 0.93079,-0.27303c0.25619,0 0.49642,0.01655 0.71981,0.04964c0.23137,0.02482 0.43437,0.05791 0.60811,0.09928zM177.4061,181.56726c-0.28101,0 -0.47514,-0.10753 -0.58329,-0.32267c-0.09928,-0.22339 -0.1569,-0.57505 -0.17375,-1.05489l0.1241,0.06205c-0.46273,0.9018 -1.34033,1.35274 -2.63102,1.35274c-0.58684,0 -1.07528,-0.10345 -1.46444,-0.31026c-0.38827,-0.21514 -0.67814,-0.49642 -0.86873,-0.84391c-0.18172,-0.35574 -0.27303,-0.74046 -0.27303,-1.15417c0,-0.71154 0.24821,-1.27414 0.74463,-1.68783c0.49642,-0.42196 1.15417,-0.63293 1.97327,-0.63293c0.53808,0 1.00525,0.0786 1.40238,0.2358c0.39714,0.1572 0.73665,0.37645 1.01766,0.65776l-0.21098,-0.02482c-0.05762,-0.83564 -0.23934,-1.43134 -0.54606,-1.78711c-0.29785,-0.36404 -0.72335,-0.54606 -1.27828,-0.54606c-0.32267,0 -0.62052,0.04964 -0.89355,0.14893c-0.27303,0.09928 -0.52479,0.20271 -0.75704,0.31026c-0.22339,0.09928 -0.43437,0.14893 -0.63293,0.14893c-0.19857,0 -0.35547,-0.06619 -0.4716,-0.19857c-0.10726,-0.13238 -0.16134,-0.30199 -0.16134,-0.50883c0,-0.29785 0.14095,-0.57915 0.42196,-0.84391c0.28987,-0.26476 0.67017,-0.47987 1.14176,-0.64534c0.4716,-0.16548 0.98486,-0.24821 1.5389,-0.24821c0.67017,0 1.24548,0.16134 1.72506,0.48401c0.48046,0.32267 0.84391,0.79427 1.09212,1.41479c0.21541,0.52951 0.36877,1.12108 0.45919,1.7747c0.09131,0.65362 0.13652,1.35274 0.13652,2.09737c0,0.56264 -0.02837,0.997 -0.08687,1.3031c-0.05762,0.3061 -0.14893,0.52124 -0.27303,0.64534c-0.11524,0.11586 -0.27303,0.17375 -0.4716,0.17375zM174.66338,180.17729c0.27303,0 0.55049,-0.03723 0.8315,-0.11169c0.2819,-0.08271 0.51769,-0.20273 0.7074,-0.3599c0.19059,-0.1572 0.28544,-0.35163 0.28544,-0.58329c0,-0.19857 -0.08244,-0.3599 -0.24821,-0.48401c-0.1569,-0.13238 -0.36788,-0.23166 -0.63293,-0.29785c-0.25619,-0.06619 -0.53365,-0.09928 -0.8315,-0.09928c-0.5044,0 -0.88912,0.08687 -1.15417,0.26062c-0.25619,0.17375 -0.38472,0.40541 -0.38472,0.69499c0,0.3144 0.12056,0.55847 0.3599,0.73222c0.24821,0.1655 0.60457,0.24821 1.0673,0.24821zM179.75168,175.84603c0,-0.79427 0.07446,-1.36515 0.22339,-1.71265c0.14893,-0.35576 0.3599,-0.53365 0.63293,-0.53365c0.21541,0 0.38472,0.09101 0.50883,0.27303c0.1241,0.17375 0.21541,0.393 0.27303,0.65776c0.05762,0.25648 0.08687,0.5171 0.08687,0.78186l-0.06205,-0.02482c0.14095,-0.44678 0.35547,-0.8315 0.64534,-1.15417c0.29785,-0.32267 0.65332,-0.48401 1.0673,-0.48401c0.48844,0 0.84834,0.20271 1.07971,0.60811c0.23137,0.39714 0.34749,0.89355 0.34749,1.48926c0,0.79427 -0.09131,1.3486 -0.27303,1.663c-0.18172,0.3144 -0.42639,0.4716 -0.73222,0.4716c-0.22339,0 -0.38916,-0.09101 -0.49642,-0.27303c-0.09928,-0.18202 -0.13208,-0.50469 -0.09928,-0.96802c0.0328,-0.48815 0.00443,-0.82736 -0.08687,-1.01766c-0.09131,-0.1903 -0.2358,-0.28544 -0.43437,-0.28544c-0.24023,0 -0.4388,0.15307 -0.5957,0.45919c-0.14893,0.29785 -0.22339,0.66603 -0.22339,1.10453c0,0.17375 0.02039,0.393 0.06205,0.65776c0.04166,0.26476 0.08687,0.55433 0.13652,0.86873c0.04964,0.30612 0.09485,0.61225 0.13652,0.91838c0.04166,0.30612 0.06205,0.58746 0.06205,0.84391c0,0.45502 -0.07003,0.78186 -0.21098,0.98043c-0.14095,0.19857 -0.33952,0.29785 -0.5957,0.29785c-0.28987,0 -0.51326,-0.09104 -0.67017,-0.27303c-0.1569,-0.19032 -0.27746,-0.49642 -0.3599,-0.91838c-0.06648,-0.38056 -0.13208,-0.8315 -0.19857,-1.35274c-0.06648,-0.52124 -0.11967,-1.05489 -0.16134,-1.60095c-0.04166,-0.54606 -0.06205,-1.03834 -0.06205,-1.47685zM191.63826,172.52002c0.98486,0 1.70821,0.25235 2.17183,0.75704c0.4716,0.50469 0.7074,1.16659 0.7074,1.98568c0,0.56261 -0.13208,1.05075 -0.39714,1.46444c-0.25619,0.41369 -0.60811,0.73636 -1.05489,0.96802c-0.44678,0.22339 -0.95117,0.33508 -1.51408,0.33508c-0.26505,0 -0.54606,-0.02896 -0.84391,-0.08687c-0.28987,-0.05791 -0.59127,-0.16961 -0.90597,-0.33508l0.06205,-0.16134c0.06648,0.20684 0.11967,0.46333 0.16134,0.76945c0.04964,0.29785 0.08687,0.60811 0.11169,0.93079c0.0328,0.3144 0.04964,0.60395 0.04964,0.86873c0,0.48818 -0.08244,0.86457 -0.24821,1.12935c-0.1569,0.25645 -0.3927,0.38472 -0.7074,0.38472c-0.26505,0 -0.47603,-0.08271 -0.63293,-0.24821c-0.14893,-0.1655 -0.25264,-0.43853 -0.31026,-0.81909c-0.05762,-0.38056 -0.08687,-0.88941 -0.08687,-1.52649c0,-1.2245 0.05407,-2.26698 0.16134,-3.12744c0.11613,-0.86873 0.31026,-1.55131 0.58329,-2.04773c0.21541,-0.38059 0.54606,-0.68258 0.99284,-0.90597c0.45476,-0.22339 1.02209,-0.33508 1.70024,-0.33508zM191.40246,176.56584c0.49642,0 0.89799,-0.13238 1.20382,-0.39714c0.31469,-0.26476 0.4716,-0.64948 0.4716,-1.15417c0,-0.33094 -0.11169,-0.60397 -0.33508,-0.81909c-0.21541,-0.22339 -0.55404,-0.33508 -1.01766,-0.33508c-0.33952,0 -0.63293,0.0786 -0.88114,0.2358c-0.24821,0.14893 -0.4388,0.3599 -0.57088,0.63293c-0.1241,0.26476 -0.18616,0.57088 -0.18616,0.91838c0,0.32267 0.10372,0.55847 0.31026,0.7074c0.21541,0.14066 0.55049,0.21098 1.00525,0.21098zM199.05441,181.54244c-0.91838,0 -1.65059,-0.13652 -2.19665,-0.40955c-0.54606,-0.27303 -0.93876,-0.666 -1.179,-1.179c-0.23934,-0.51297 -0.3599,-1.12521 -0.3599,-1.83675c0,-0.90183 0.16577,-1.66714 0.49642,-2.29594c0.33952,-0.63707 0.80314,-1.12521 1.38997,-1.46444c0.5957,-0.33922 1.2703,-0.50883 2.02291,-0.50883c0.88558,0 1.53535,0.20684 1.94845,0.62052c0.41398,0.40541 0.62052,0.93906 0.62052,1.60095c0,0.52951 -0.14006,0.9887 -0.42196,1.37756c-0.27303,0.38059 -0.65332,0.67431 -1.14176,0.88114c-0.48755,0.20684 -1.05046,0.31026 -1.68783,0.31026c-0.35547,0 -0.69853,-0.0455 -1.03007,-0.13652c-0.33065,-0.09101 -0.6285,-0.21512 -0.89355,-0.37231l0.29785,-0.54606c-0.02482,0.19857 -0.03723,0.39714 -0.03723,0.5957c0,0.57915 0.18261,0.99698 0.54606,1.25346c0.36434,0.24821 0.88114,0.37231 1.55131,0.37231c0.52124,0 0.93965,-0.04548 1.25346,-0.13652c0.31469,-0.09101 0.57975,-0.17789 0.79427,-0.26062c0.21541,-0.09101 0.42639,-0.13652 0.63293,-0.13652c0.11613,0 0.21984,0.03309 0.31026,0.09928c0.09928,0.05791 0.17818,0.14479 0.2358,0.26062c0.06648,0.11586 0.09928,0.25645 0.09928,0.42196c0,0.24821 -0.1241,0.48818 -0.37231,0.71981c-0.24821,0.22339 -0.61609,0.40955 -1.10453,0.55847c-0.47958,0.14068 -1.07085,0.21098 -1.7747,0.21098zM198.3346,177.48422c0.58772,0 1.05932,-0.1241 1.41479,-0.37231c0.35636,-0.24821 0.53365,-0.55433 0.53365,-0.91838c0,-0.28958 -0.09928,-0.52538 -0.29785,-0.7074c-0.1897,-0.1903 -0.49199,-0.28544 -0.90597,-0.28544c-0.38827,0 -0.7402,0.07446 -1.05489,0.22339c-0.30583,0.14066 -0.54606,0.32681 -0.71981,0.55847c-0.17375,0.23166 -0.26062,0.48401 -0.26062,0.75704c0,0.23994 0.11169,0.4261 0.33508,0.55847c0.23225,0.1241 0.55049,0.18616 0.95561,0.18616zM203.39719,175.84603c0,-0.79427 0.07446,-1.36515 0.22339,-1.71265c0.14893,-0.35576 0.3599,-0.53365 0.63293,-0.53365c0.21452,0 0.38472,0.09101 0.50883,0.27303c0.1241,0.17375 0.21452,0.393 0.27303,0.65776c0.05762,0.25648 0.08687,0.5171 0.08687,0.78186l-0.06205,-0.02482c0.14006,-0.44678 0.35547,-0.8315 0.64534,-1.15417c0.29785,-0.32267 0.65332,-0.48401 1.0673,-0.48401c0.48755,0 0.84746,0.20271 1.07971,0.60811c0.23137,0.39714 0.34749,0.89355 0.34749,1.48926c0,0.79427 -0.09131,1.3486 -0.27303,1.663c-0.18261,0.3144 -0.42639,0.4716 -0.73222,0.4716c-0.22339,0 -0.38916,-0.09101 -0.49642,-0.27303c-0.09928,-0.18202 -0.13297,-0.50469 -0.09928,-0.96802c0.0328,-0.48815 0.00355,-0.82736 -0.08687,-1.01766c-0.09131,-0.1903 -0.2358,-0.28544 -0.43437,-0.28544c-0.24023,0 -0.4388,0.15307 -0.5957,0.45919c-0.14893,0.29785 -0.22339,0.66603 -0.22339,1.10453c0,0.17375 0.02039,0.393 0.06205,0.65776c0.04078,0.26476 0.08687,0.55433 0.13652,0.86873c0.04964,0.30612 0.09485,0.61225 0.13652,0.91838c0.04078,0.30612 0.06205,0.58746 0.06205,0.84391c0,0.45502 -0.07092,0.78186 -0.21098,0.98043c-0.14095,0.19857 -0.33952,0.29785 -0.5957,0.29785c-0.28987,0 -0.51326,-0.09104 -0.67017,-0.27303c-0.15779,-0.19032 -0.27746,-0.49642 -0.3599,-0.91838c-0.06648,-0.38056 -0.13297,-0.8315 -0.19857,-1.35274c-0.06648,-0.52124 -0.12056,-1.05489 -0.16134,-1.60095c-0.04166,-0.54606 -0.06205,-1.03834 -0.06205,-1.47685zM212.43911,173.6742c0.73665,0 1.26587,0.10755 1.58854,0.32267c0.32267,0.21512 0.48401,0.49228 0.48401,0.8315c0,0.19857 -0.07003,0.36404 -0.21098,0.49642c-0.13208,0.1241 -0.32267,0.18616 -0.57088,0.18616c-0.25619,0 -0.52567,-0.03723 -0.80668,-0.11169c-0.27303,-0.07446 -0.59127,-0.11169 -0.95561,-0.11169c-0.42196,0 -0.73665,0.08273 -0.9432,0.24821c-0.20655,0.16548 -0.31026,0.37645 -0.31026,0.63293c0,0.23994 0.09131,0.43023 0.27303,0.57088c0.19059,0.13238 0.55049,0.23166 1.07971,0.29785c0.58772,0.06619 1.07173,0.17375 1.45203,0.32267c0.38916,0.14066 0.67814,0.35576 0.86873,0.64534c0.19059,0.2813 0.28544,0.67017 0.28544,1.16659c0,0.78603 -0.27746,1.36932 -0.8315,1.74988c-0.55404,0.38056 -1.31994,0.57088 -2.29594,0.57088c-0.62052,0 -1.11251,-0.04964 -1.47685,-0.14893c-0.36434,-0.09928 -0.6285,-0.23997 -0.79427,-0.42196c-0.1569,-0.18199 -0.2358,-0.39714 -0.2358,-0.64534c0,-0.21514 0.07003,-0.38056 0.21098,-0.49642c0.14893,-0.1241 0.32267,-0.18616 0.52124,-0.18616c0.19059,0 0.3927,0.02482 0.60811,0.07446c0.21541,0.0414 0.44234,0.08687 0.68258,0.13652c0.24023,0.04964 0.48844,0.07446 0.74463,0.07446c0.82707,0 1.24105,-0.25648 1.24105,-0.76945c0,-0.17375 -0.04166,-0.3144 -0.1241,-0.42196c-0.08244,-0.10755 -0.23137,-0.19443 -0.44678,-0.26062c-0.21541,-0.07446 -0.52922,-0.13238 -0.9432,-0.17375c-0.49642,-0.04964 -0.92635,-0.13238 -1.29069,-0.24821c-0.36434,-0.1241 -0.64534,-0.32267 -0.84391,-0.5957c-0.19857,-0.2813 -0.29785,-0.66603 -0.29785,-1.15417c0,-0.76945 0.28987,-1.38997 0.86873,-1.86157c0.57886,-0.47987 1.40238,-0.71981 2.46969,-0.71981zM219.40405,181.54244c-0.91838,0 -1.65059,-0.13652 -2.19665,-0.40955c-0.54606,-0.27303 -0.93965,-0.666 -1.179,-1.179c-0.24023,-0.51297 -0.3599,-1.12521 -0.3599,-1.83675c0,-0.90183 0.16488,-1.66714 0.49642,-2.29594c0.33863,-0.63707 0.80225,-1.12521 1.38997,-1.46444c0.59482,-0.33922 1.26941,-0.50883 2.02291,-0.50883c0.88469,0 1.53447,0.20684 1.94845,0.62052c0.41309,0.40541 0.62052,0.93906 0.62052,1.60095c0,0.52951 -0.14095,0.9887 -0.42284,1.37756c-0.27214,0.38059 -0.65332,0.67431 -1.14088,0.88114c-0.48844,0.20684 -1.05134,0.31026 -1.68783,0.31026c-0.35636,0 -0.69942,-0.0455 -1.03007,-0.13652c-0.33154,-0.09101 -0.62939,-0.21512 -0.89355,-0.37231l0.29785,-0.54606c-0.02482,0.19857 -0.03723,0.39714 -0.03723,0.5957c0,0.57915 0.18172,0.99698 0.54606,1.25346c0.36345,0.24821 0.88114,0.37231 1.55131,0.37231c0.52124,0 0.93876,-0.04548 1.25346,-0.13652c0.31381,-0.09101 0.57886,-0.17789 0.79427,-0.26062c0.21452,-0.09101 0.4255,-0.13652 0.63205,-0.13652c0.11613,0 0.21984,0.03309 0.31115,0.09928c0.09928,0.05791 0.17729,0.14479 0.2358,0.26062c0.0656,0.11586 0.09928,0.25645 0.09928,0.42196c0,0.24821 -0.1241,0.48818 -0.37231,0.71981c-0.24821,0.22339 -0.61698,0.40955 -1.10453,0.55847c-0.48046,0.14068 -1.07173,0.21098 -1.7747,0.21098zM218.68424,177.48422c0.58684,0 1.05844,-0.1241 1.41479,-0.37231c0.35547,-0.24821 0.53365,-0.55433 0.53365,-0.91838c0,-0.28958 -0.09928,-0.52538 -0.29785,-0.7074c-0.19059,-0.1903 -0.49287,-0.28544 -0.90597,-0.28544c-0.38916,0 -0.74108,0.07446 -1.05489,0.22339c-0.30672,0.14066 -0.54606,0.32681 -0.71981,0.55847c-0.17375,0.23166 -0.26062,0.48401 -0.26062,0.75704c0,0.23994 0.11169,0.4261 0.33508,0.55847c0.23137,0.1241 0.54961,0.18616 0.95561,0.18616zM226.11635,181.24459c-0.77743,0 -1.41036,-0.29785 -1.8988,-0.89355c-0.48844,-0.60395 -0.73222,-1.51822 -0.73222,-2.74272c0,-1.30724 0.2358,-2.26285 0.7074,-2.86682c0.4716,-0.60397 1.09212,-0.90597 1.86157,-0.90597c0.45476,0 0.85632,0.11583 1.20382,0.34749c0.34749,0.23166 0.64534,0.55847 0.89355,0.98043l-0.09928,0.17375c-0.02482,-0.11583 -0.04521,-0.23994 -0.06205,-0.37231c-0.01684,-0.13238 -0.02482,-0.23166 -0.02482,-0.29785c0,-0.33922 0.05407,-0.59984 0.16134,-0.78186c0.11613,-0.1903 0.29342,-0.28544 0.53365,-0.28544c0.26505,0 0.4716,0.10755 0.62052,0.32267c0.1569,0.21512 0.27746,0.52124 0.3599,0.91838c0.10726,0.40541 0.19857,0.92252 0.27303,1.55131c0.07446,0.62052 0.11169,1.24932 0.11169,1.88639c0,0.79427 -0.02925,1.46027 -0.08687,1.99809c-0.05762,0.53782 -0.15336,0.98459 -0.28544,1.34033c-0.13208,0.35574 -0.30583,0.666 -0.52124,0.93079c-0.35547,0.4302 -0.81466,0.75704 -1.37756,0.98043c-0.55404,0.23163 -1.19584,0.34749 -1.92362,0.34749c-0.52124,0 -0.93876,-0.04964 -1.25346,-0.14893c-0.31469,-0.09104 -0.54163,-0.21922 -0.68258,-0.38472c-0.13208,-0.15717 -0.19857,-0.33508 -0.19857,-0.53365c0,-0.20681 0.05762,-0.38056 0.17375,-0.52124c0.11613,-0.13235 0.28987,-0.19857 0.52124,-0.19857c0.20655,0 0.44678,0.03307 0.71981,0.09928c0.28101,0.06622 0.61255,0.09928 0.99284,0.09928c0.80225,0 1.36959,-0.19032 1.70024,-0.57088c0.33952,-0.37231 0.50883,-0.91013 0.50883,-1.61336c0,-0.19032 -0.01241,-0.41371 -0.03723,-0.67017l0.17375,0.06205c-0.20655,0.52948 -0.51326,0.95561 -0.91838,1.27828c-0.40511,0.31443 -0.87671,0.4716 -1.41479,0.4716zM226.58795,179.7181c0.26505,0 0.52922,-0.07032 0.79427,-0.21098c0.26505,-0.14066 0.48401,-0.37231 0.65776,-0.69499c0.17375,-0.32267 0.26062,-0.75704 0.26062,-1.3031c0,-0.65362 -0.15336,-1.18727 -0.45919,-1.60095c-0.30583,-0.41369 -0.73665,-0.62052 -1.29069,-0.62052c-0.47958,0 -0.8315,0.18202 -1.05489,0.54606c-0.22339,0.36404 -0.33508,0.91424 -0.33508,1.65059c0,0.70326 0.11169,1.25346 0.33508,1.65059c0.22339,0.38886 0.58772,0.58329 1.09212,0.58329zM232.63096,171.92432c0.33065,0 0.56645,0.09101 0.7074,0.27303c0.14893,0.18202 0.22339,0.393 0.22339,0.63293c0,0.29785 -0.09131,0.52951 -0.27303,0.69499c-0.17375,0.1572 -0.42196,0.2358 -0.74463,0.2358c-0.31469,0 -0.55049,-0.08687 -0.7074,-0.26062c-0.1569,-0.18202 -0.2358,-0.393 -0.2358,-0.63293c0,-0.3144 0.09485,-0.5502 0.28544,-0.7074c0.19059,-0.1572 0.4388,-0.2358 0.74463,-0.2358zM232.70543,174.69186c0.26505,0 0.4716,0.24821 0.62052,0.74463c0.1569,0.49642 0.2358,1.28655 0.2358,2.3704c0,1.33206 -0.09485,2.29177 -0.28544,2.87923c-0.19059,0.58746 -0.47958,0.88114 -0.86873,0.88114c-0.29785,0 -0.51681,-0.21514 -0.65776,-0.64534c-0.14095,-0.43853 -0.21098,-1.19965 -0.21098,-2.28353c0,-1.33206 0.10726,-2.32076 0.32267,-2.9661c0.22339,-0.65362 0.5044,-0.98043 0.84391,-0.98043zM241.06211,172.52002c0.98397,0 1.70821,0.25235 2.17183,0.75704c0.4716,0.50469 0.7074,1.16659 0.7074,1.98568c0,0.56261 -0.13297,1.05075 -0.39714,1.46444c-0.25707,0.41369 -0.60811,0.73636 -1.05489,0.96802c-0.44678,0.22339 -0.95206,0.33508 -1.51408,0.33508c-0.26505,0 -0.54606,-0.02896 -0.84391,-0.08687c-0.28987,-0.05791 -0.59216,-0.16961 -0.90597,-0.33508l0.06205,-0.16134c0.0656,0.20684 0.11967,0.46333 0.16134,0.76945c0.04964,0.29785 0.08687,0.60811 0.11169,0.93079c0.0328,0.3144 0.04964,0.60395 0.04964,0.86873c0,0.48818 -0.08333,0.86457 -0.24821,1.12935c-0.15779,0.25645 -0.39359,0.38472 -0.7074,0.38472c-0.26505,0 -0.47603,-0.08271 -0.63293,-0.24821c-0.14893,-0.1655 -0.25264,-0.43853 -0.31026,-0.81909c-0.05851,-0.38056 -0.08687,-0.88941 -0.08687,-1.52649c0,-1.2245 0.05319,-2.26698 0.16134,-3.12744c0.11524,-0.86873 0.31026,-1.55131 0.58329,-2.04773c0.21452,-0.38059 0.54606,-0.68258 0.99284,-0.90597c0.45476,-0.22339 1.02121,-0.33508 1.70024,-0.33508zM240.82631,176.56584c0.49642,0 0.8971,-0.13238 1.20382,-0.39714c0.31381,-0.26476 0.4716,-0.64948 0.4716,-1.15417c0,-0.33094 -0.11169,-0.60397 -0.33508,-0.81909c-0.21541,-0.22339 -0.55493,-0.33508 -1.01766,-0.33508c-0.33952,0 -0.63293,0.0786 -0.88114,0.2358c-0.24821,0.14893 -0.4388,0.3599 -0.57088,0.63293c-0.1241,0.26476 -0.18616,0.57088 -0.18616,0.91838c0,0.32267 0.10283,0.55847 0.31026,0.7074c0.21452,0.14066 0.54961,0.21098 1.00525,0.21098zM250.4267,181.56726c-0.28101,0 -0.47514,-0.10753 -0.58329,-0.32267c-0.09928,-0.22339 -0.1569,-0.57505 -0.17375,-1.05489l0.1241,0.06205c-0.46273,0.9018 -1.34033,1.35274 -2.63102,1.35274c-0.58684,0 -1.07528,-0.10345 -1.46444,-0.31026c-0.38827,-0.21514 -0.67814,-0.49642 -0.86873,-0.84391c-0.18172,-0.35574 -0.27303,-0.74046 -0.27303,-1.15417c0,-0.71154 0.24821,-1.27414 0.74463,-1.68783c0.49642,-0.42196 1.15417,-0.63293 1.97327,-0.63293c0.53808,0 1.00525,0.0786 1.40238,0.2358c0.39714,0.1572 0.73665,0.37645 1.01766,0.65776l-0.21098,-0.02482c-0.05762,-0.83564 -0.23934,-1.43134 -0.54606,-1.78711c-0.29785,-0.36404 -0.72335,-0.54606 -1.27828,-0.54606c-0.32267,0 -0.62052,0.04964 -0.89355,0.14893c-0.27303,0.09928 -0.52479,0.20271 -0.75704,0.31026c-0.22339,0.09928 -0.43437,0.14893 -0.63293,0.14893c-0.19857,0 -0.35547,-0.06619 -0.4716,-0.19857c-0.10726,-0.13238 -0.16134,-0.30199 -0.16134,-0.50883c0,-0.29785 0.14095,-0.57915 0.42196,-0.84391c0.28987,-0.26476 0.67017,-0.47987 1.14176,-0.64534c0.4716,-0.16548 0.98486,-0.24821 1.5389,-0.24821c0.67017,0 1.24548,0.16134 1.72506,0.48401c0.48046,0.32267 0.84391,0.79427 1.09212,1.41479c0.21541,0.52951 0.36877,1.12108 0.45919,1.7747c0.09131,0.65362 0.13652,1.35274 0.13652,2.09737c0,0.56264 -0.02837,0.997 -0.08687,1.3031c-0.05762,0.3061 -0.14893,0.52124 -0.27303,0.64534c-0.11524,0.11586 -0.27303,0.17375 -0.4716,0.17375zM247.68399,180.17729c0.27303,0 0.55049,-0.03723 0.8315,-0.11169c0.2819,-0.08271 0.51769,-0.20273 0.7074,-0.3599c0.19059,-0.1572 0.28544,-0.35163 0.28544,-0.58329c0,-0.19857 -0.08244,-0.3599 -0.24821,-0.48401c-0.1569,-0.13238 -0.36788,-0.23166 -0.63293,-0.29785c-0.25619,-0.06619 -0.53365,-0.09928 -0.8315,-0.09928c-0.5044,0 -0.88912,0.08687 -1.15417,0.26062c-0.25619,0.17375 -0.38472,0.40541 -0.38472,0.69499c0,0.3144 0.12056,0.55847 0.3599,0.73222c0.24821,0.1655 0.60457,0.24821 1.0673,0.24821zM254.03815,173.72384c0.26505,0 0.44234,0.10755 0.53365,0.32267c0.09928,0.21512 0.14893,0.53365 0.14893,0.95561c0,0.09928 -0.00798,0.20684 -0.02482,0.32267c-0.00798,0.10755 -0.02482,0.20684 -0.04964,0.29785l-0.02482,-0.24821c0.19857,-0.53779 0.5044,-0.95561 0.91838,-1.25346c0.41398,-0.30612 0.85189,-0.45919 1.31551,-0.45919c0.51326,0 0.93876,0.14479 1.27828,0.43437c0.34749,0.28958 0.60368,0.69499 0.76945,1.21623c0.17375,0.52124 0.26062,1.13762 0.26062,1.84916c0,0.43851 -0.02039,0.87287 -0.06205,1.3031c-0.0328,0.42196 -0.08244,0.81082 -0.14893,1.16659c-0.05762,0.34749 -0.1241,0.63293 -0.19857,0.85632c-0.09928,0.28127 -0.22782,0.49225 -0.38472,0.63293c-0.1569,0.13235 -0.34306,0.19857 -0.55847,0.19857c-0.21541,0 -0.38029,-0.07863 -0.49642,-0.2358c-0.11613,-0.15717 -0.17375,-0.36815 -0.17375,-0.63293c0,-0.28127 0.02039,-0.62052 0.06205,-1.01766c0.04166,-0.40541 0.0789,-0.81495 0.11169,-1.22864c0.04166,-0.42196 0.06205,-0.80254 0.06205,-1.14176c0,-1.15831 -0.38029,-1.73747 -1.14176,-1.73747c-0.40511,0 -0.74463,0.18202 -1.01766,0.54606c-0.27303,0.35576 -0.45476,0.86459 -0.54606,1.52649c-0.02482,0.22339 -0.03723,0.50056 -0.03723,0.8315c0,0.33094 0,0.6619 0,0.99284c0.00798,0.32267 0,0.5957 -0.02482,0.81909c-0.0328,0.49642 -0.12854,0.85216 -0.28544,1.0673c-0.14893,0.21514 -0.35547,0.32267 -0.62052,0.32267c-0.30583,0 -0.53808,-0.14068 -0.69499,-0.42196c-0.1569,-0.28961 -0.2358,-0.77362 -0.2358,-1.45203c0,-0.34749 0.00798,-0.73636 0.02482,-1.16659c0.01684,-0.43023 0.03723,-0.86046 0.06205,-1.29069c0.0328,-0.43851 0.07003,-0.83564 0.11169,-1.19141c0.08244,-0.67017 0.203,-1.19968 0.3599,-1.58854c0.1569,-0.39714 0.3927,-0.5957 0.7074,-0.5957zM260.73627,184.02454c-0.33065,0 -0.6285,-0.0703 -0.89355,-0.21098c-0.26505,-0.14068 -0.47603,-0.31851 -0.63293,-0.53365c-0.1569,-0.21514 -0.2358,-0.43437 -0.2358,-0.65776c0,-0.19032 0.04964,-0.33925 0.14893,-0.44678c0.09928,-0.10753 0.22782,-0.16134 0.38472,-0.16134c0.27303,0 0.56645,0.10345 0.88114,0.31026c0.31469,0.20681 0.61255,0.49225 0.89355,0.85632l-0.18616,-0.02482c-0.14095,-1.15834 -0.24821,-2.26695 -0.32267,-3.32601c-0.06648,-1.0673 -0.09928,-2.02291 -0.09928,-2.86682c0,-0.76945 0.06205,-1.34447 0.18616,-1.72506c0.13208,-0.38886 0.34749,-0.58329 0.64534,-0.58329c0.33952,0 0.60811,0.26476 0.80668,0.79427c0.19857,0.52951 0.29785,1.42307 0.29785,2.68066c0,0.55433 -0.01684,1.12521 -0.04964,1.71265c-0.0328,0.57913 -0.08244,1.12935 -0.14893,1.65059c-0.05762,0.52124 -0.14095,0.95977 -0.24821,1.31551c-0.13208,0.4302 -0.31469,0.74046 -0.54606,0.93079c-0.22339,0.19032 -0.51681,0.28544 -0.88114,0.28544zM261.30715,173.62456c-0.26505,0 -0.47958,-0.05791 -0.64534,-0.17375c-0.1569,-0.1241 -0.2358,-0.31026 -0.2358,-0.55847c0,-0.2813 0.09485,-0.5171 0.28544,-0.7074c0.19857,-0.19857 0.47603,-0.29785 0.8315,-0.29785c0.29785,0 0.52567,0.07446 0.68258,0.22339c0.1569,0.14066 0.2358,0.33094 0.2358,0.57088c0,0.29785 -0.10726,0.52951 -0.32267,0.69499c-0.21541,0.16548 -0.49199,0.24821 -0.8315,0.24821zM269.55214,181.56726c-0.2819,0 -0.47603,-0.10753 -0.58329,-0.32267c-0.09928,-0.22339 -0.15779,-0.57505 -0.17375,-1.05489l0.1241,0.06205c-0.46362,0.9018 -1.34033,1.35274 -2.63102,1.35274c-0.58772,0 -1.07617,-0.10345 -1.46444,-0.31026c-0.38916,-0.21514 -0.67903,-0.49642 -0.86873,-0.84391c-0.18261,-0.35574 -0.27303,-0.74046 -0.27303,-1.15417c0,-0.71154 0.24821,-1.27414 0.74463,-1.68783c0.49642,-0.42196 1.15417,-0.63293 1.97327,-0.63293c0.5372,0 1.00525,0.0786 1.40238,0.2358c0.39714,0.1572 0.73576,0.37645 1.01766,0.65776l-0.21098,-0.02482c-0.05851,-0.83564 -0.24023,-1.43134 -0.54606,-1.78711c-0.29785,-0.36404 -0.72424,-0.54606 -1.27828,-0.54606c-0.32267,0 -0.62052,0.04964 -0.89355,0.14893c-0.27303,0.09928 -0.52567,0.20271 -0.75704,0.31026c-0.22339,0.09928 -0.43437,0.14893 -0.63293,0.14893c-0.19857,0 -0.35636,-0.06619 -0.4716,-0.19857c-0.10815,-0.13238 -0.16134,-0.30199 -0.16134,-0.50883c0,-0.29785 0.14006,-0.57915 0.42196,-0.84391c0.28899,-0.26476 0.67017,-0.47987 1.14176,-0.64534c0.4716,-0.16548 0.98397,-0.24821 1.5389,-0.24821c0.67017,0 1.24459,0.16134 1.72506,0.48401c0.47958,0.32267 0.84391,0.79427 1.09212,1.41479c0.21452,0.52951 0.36788,1.12108 0.45919,1.7747c0.09042,0.65362 0.13652,1.35274 0.13652,2.09737c0,0.56264 -0.02925,0.997 -0.08687,1.3031c-0.05851,0.3061 -0.14893,0.52124 -0.27303,0.64534c-0.11613,0.11586 -0.27303,0.17375 -0.4716,0.17375zM266.80942,180.17729c0.27303,0 0.54961,-0.03723 0.8315,-0.11169c0.28101,-0.08271 0.51681,-0.20273 0.7074,-0.3599c0.1897,-0.1572 0.28544,-0.35163 0.28544,-0.58329c0,-0.19857 -0.08333,-0.3599 -0.24821,-0.48401c-0.15779,-0.13238 -0.36877,-0.23166 -0.63293,-0.29785c-0.25707,-0.06619 -0.53365,-0.09928 -0.8315,-0.09928c-0.50528,0 -0.89001,0.08687 -1.15417,0.26062c-0.25707,0.17375 -0.38472,0.40541 -0.38472,0.69499c0,0.3144 0.11967,0.55847 0.3599,0.73222c0.24821,0.1655 0.60368,0.24821 1.0673,0.24821zM273.1627,173.72384c0.26505,0 0.44323,0.10755 0.53365,0.32267c0.09928,0.21512 0.14893,0.53365 0.14893,0.95561c0,0.09928 -0.00798,0.20684 -0.02482,0.32267c-0.00798,0.10755 -0.02482,0.20684 -0.04964,0.29785l-0.02482,-0.24821c0.19857,-0.53779 0.50528,-0.95561 0.91838,-1.25346c0.41398,-0.30612 0.85278,-0.45919 1.31551,-0.45919c0.51326,0 0.93965,0.14479 1.27828,0.43437c0.34749,0.28958 0.60457,0.69499 0.76945,1.21623c0.17375,0.52124 0.26062,1.13762 0.26062,1.84916c0,0.43851 -0.02039,0.87287 -0.06205,1.3031c-0.0328,0.42196 -0.08244,0.81082 -0.14893,1.16659c-0.05762,0.34749 -0.1241,0.63293 -0.19857,0.85632c-0.09928,0.28127 -0.22693,0.49225 -0.38472,0.63293c-0.1569,0.13235 -0.34306,0.19857 -0.55847,0.19857c-0.21452,0 -0.38029,-0.07863 -0.49642,-0.2358c-0.11524,-0.15717 -0.17375,-0.36815 -0.17375,-0.63293c0,-0.28127 0.02128,-0.62052 0.06205,-1.01766c0.04166,-0.40541 0.0789,-0.81495 0.11169,-1.22864c0.04166,-0.42196 0.06205,-0.80254 0.06205,-1.14176c0,-1.15831 -0.38029,-1.73747 -1.14176,-1.73747c-0.40511,0 -0.74463,0.18202 -1.01766,0.54606c-0.27303,0.35576 -0.45476,0.86459 -0.54606,1.52649c-0.02482,0.22339 -0.03723,0.50056 -0.03723,0.8315c0,0.33094 0,0.6619 0,0.99284c0.00886,0.32267 0,0.5957 -0.02482,0.81909c-0.0328,0.49642 -0.12765,0.85216 -0.28544,1.0673c-0.14893,0.21514 -0.35547,0.32267 -0.62052,0.32267c-0.30583,0 -0.5372,-0.14068 -0.69499,-0.42196c-0.1569,-0.28961 -0.2358,-0.77362 -0.2358,-1.45203c0,-0.34749 0.00886,-0.73636 0.02482,-1.16659c0.01684,-0.43023 0.03723,-0.86046 0.06205,-1.29069c0.03369,-0.43851 0.07092,-0.83564 0.11169,-1.19141c0.08333,-0.67017 0.203,-1.19968 0.3599,-1.58854c0.15779,-0.39714 0.39359,-0.5957 0.7074,-0.5957zM282.16917,181.24459c-0.77743,0 -1.41036,-0.29785 -1.8988,-0.89355c-0.48755,-0.60395 -0.73222,-1.51822 -0.73222,-2.74272c0,-1.30724 0.2358,-2.26285 0.7074,-2.86682c0.4716,-0.60397 1.09212,-0.90597 1.86157,-0.90597c0.45564,0 0.85632,0.11583 1.20382,0.34749c0.34749,0.23166 0.64534,0.55847 0.89355,0.98043l-0.09928,0.17375c-0.02482,-0.11583 -0.04521,-0.23994 -0.06205,-0.37231c-0.01596,-0.13238 -0.02482,-0.23166 -0.02482,-0.29785c0,-0.33922 0.05407,-0.59984 0.16134,-0.78186c0.11613,-0.1903 0.29431,-0.28544 0.53365,-0.28544c0.26505,0 0.4716,0.10755 0.62052,0.32267c0.15779,0.21512 0.27746,0.52124 0.3599,0.91838c0.10815,0.40541 0.19857,0.92252 0.27303,1.55131c0.07446,0.62052 0.11169,1.24932 0.11169,1.88639c0,0.79427 -0.02837,1.46027 -0.08687,1.99809c-0.05762,0.53782 -0.15247,0.98459 -0.28544,1.34033c-0.13208,0.35574 -0.30583,0.666 -0.52124,0.93079c-0.35547,0.4302 -0.81466,0.75704 -1.37756,0.98043c-0.55404,0.23163 -1.19495,0.34749 -1.92362,0.34749c-0.52124,0 -0.93876,-0.04964 -1.25346,-0.14893c-0.31381,-0.09104 -0.54163,-0.21922 -0.68258,-0.38472c-0.13208,-0.15717 -0.19857,-0.33508 -0.19857,-0.53365c0,-0.20681 0.05851,-0.38056 0.17375,-0.52124c0.11613,-0.13235 0.28987,-0.19857 0.52124,-0.19857c0.20743,0 0.44678,0.03307 0.71981,0.09928c0.2819,0.06622 0.61255,0.09928 0.99284,0.09928c0.80314,0 1.36959,-0.19032 1.70024,-0.57088c0.33952,-0.37231 0.50883,-0.91013 0.50883,-1.61336c0,-0.19032 -0.01241,-0.41371 -0.03723,-0.67017l0.17375,0.06205c-0.20655,0.52948 -0.51238,0.95561 -0.91838,1.27828c-0.40511,0.31443 -0.87671,0.4716 -1.41479,0.4716zM282.64076,179.7181c0.26505,0 0.5301,-0.07032 0.79427,-0.21098c0.26505,-0.14066 0.48401,-0.37231 0.65776,-0.69499c0.17375,-0.32267 0.26062,-0.75704 0.26062,-1.3031c0,-0.65362 -0.15247,-1.18727 -0.45919,-1.60095c-0.30583,-0.41369 -0.73576,-0.62052 -1.29069,-0.62052c-0.47958,0 -0.8315,0.18202 -1.05489,0.54606c-0.22339,0.36404 -0.33508,0.91424 -0.33508,1.65059c0,0.70326 0.11169,1.25346 0.33508,1.65059c0.22339,0.38886 0.58772,0.58329 1.09212,0.58329zM292.89359,181.55485c-0.29785,0 -0.54163,-0.10753 -0.73222,-0.32267c-0.18172,-0.22339 -0.27303,-0.62052 -0.27303,-1.19141c0,-0.40541 0.02925,-0.82323 0.08687,-1.25346c0.05762,-0.43023 0.13208,-0.83977 0.22339,-1.22864c0.09131,-0.38886 0.19059,-0.71567 0.29785,-0.98043l0.07446,0.34749c-0.77743,-0.56261 -1.382,-1.06316 -1.81193,-1.50167c-0.42993,-0.43851 -0.73222,-0.82323 -0.90597,-1.15417c-0.17375,-0.33922 -0.26062,-0.63293 -0.26062,-0.88114c0,-0.20684 0.04166,-0.38059 0.1241,-0.52124c0.09131,-0.14066 0.20655,-0.24821 0.34749,-0.32267c0.14095,-0.08273 0.29785,-0.1241 0.4716,-0.1241c0.39714,0 0.7987,0.30199 1.20382,0.90597c0.41398,0.60397 0.84391,1.50167 1.29069,2.69307h0.04964c0.37231,-0.85218 0.74906,-1.55131 1.12935,-2.09737c0.38916,-0.55433 0.76147,-0.96388 1.11694,-1.22864c0.35547,-0.27303 0.66573,-0.40955 0.93079,-0.40955c0.24023,0 0.42639,0.08273 0.55847,0.24821c0.13208,0.1572 0.19857,0.36404 0.19857,0.62052c0,0.37231 -0.14449,0.78186 -0.43437,1.22864c-0.28987,0.43851 -0.70297,0.88114 -1.24105,1.32792c-0.53808,0.44678 -1.18343,0.85632 -1.93603,1.22864l0.11169,-0.2358c0.10726,0.33094 0.203,0.69085 0.28544,1.07971c0.09131,0.38059 0.16134,0.76118 0.21098,1.14176c0.04964,0.37231 0.07446,0.7074 0.07446,1.00525c0,0.52948 -0.11169,0.93495 -0.33508,1.21623c-0.21541,0.27303 -0.50085,0.40955 -0.85632,0.40955zM303.22,181.56726c-0.28101,0 -0.47603,-0.10753 -0.58329,-0.32267c-0.09928,-0.22339 -0.1569,-0.57505 -0.17375,-1.05489l0.1241,0.06205c-0.46362,0.9018 -1.34033,1.35274 -2.63102,1.35274c-0.58772,0 -1.07528,-0.10345 -1.46444,-0.31026c-0.38916,-0.21514 -0.67814,-0.49642 -0.86873,-0.84391c-0.18172,-0.35574 -0.27303,-0.74046 -0.27303,-1.15417c0,-0.71154 0.24821,-1.27414 0.74463,-1.68783c0.49642,-0.42196 1.15417,-0.63293 1.97327,-0.63293c0.53808,0 1.00525,0.0786 1.40238,0.2358c0.39714,0.1572 0.73665,0.37645 1.01766,0.65776l-0.21098,-0.02482c-0.05762,-0.83564 -0.24023,-1.43134 -0.54606,-1.78711c-0.29785,-0.36404 -0.72424,-0.54606 -1.27828,-0.54606c-0.32267,0 -0.62052,0.04964 -0.89355,0.14893c-0.27303,0.09928 -0.52567,0.20271 -0.75704,0.31026c-0.22339,0.09928 -0.43437,0.14893 -0.63293,0.14893c-0.19857,0 -0.35547,-0.06619 -0.4716,-0.19857c-0.10726,-0.13238 -0.16134,-0.30199 -0.16134,-0.50883c0,-0.29785 0.14095,-0.57915 0.42196,-0.84391c0.28987,-0.26476 0.67017,-0.47987 1.14176,-0.64534c0.4716,-0.16548 0.98486,-0.24821 1.5389,-0.24821c0.67017,0 1.24548,0.16134 1.72506,0.48401c0.47958,0.32267 0.84391,0.79427 1.09212,1.41479c0.21541,0.52951 0.36788,1.12108 0.45919,1.7747c0.09131,0.65362 0.13652,1.35274 0.13652,2.09737c0,0.56264 -0.02925,0.997 -0.08687,1.3031c-0.05762,0.3061 -0.14893,0.52124 -0.27303,0.64534c-0.11613,0.11586 -0.27303,0.17375 -0.4716,0.17375zM300.47728,180.17729c0.27303,0 0.55049,-0.03723 0.8315,-0.11169c0.28101,-0.08271 0.51681,-0.20273 0.7074,-0.3599c0.19059,-0.1572 0.28544,-0.35163 0.28544,-0.58329c0,-0.19857 -0.08244,-0.3599 -0.24821,-0.48401c-0.1569,-0.13238 -0.36788,-0.23166 -0.63293,-0.29785c-0.25619,-0.06619 -0.53365,-0.09928 -0.8315,-0.09928c-0.5044,0 -0.88912,0.08687 -1.15417,0.26062c-0.25619,0.17375 -0.38472,0.40541 -0.38472,0.69499c0,0.3144 0.11967,0.55847 0.3599,0.73222c0.24821,0.1655 0.60368,0.24821 1.0673,0.24821zM306.83145,173.72384c0.26417,0 0.44234,0.10755 0.53365,0.32267c0.09928,0.21512 0.14893,0.53365 0.14893,0.95561c0,0.09928 -0.00886,0.20684 -0.02482,0.32267c-0.00886,0.10755 -0.02482,0.20684 -0.04964,0.29785l-0.02482,-0.24821c0.19857,-0.53779 0.5044,-0.95561 0.91838,-1.25346c0.41309,-0.30612 0.85189,-0.45919 1.31551,-0.45919c0.51238,0 0.93876,0.14479 1.27828,0.43437c0.34749,0.28958 0.60368,0.69499 0.76945,1.21623c0.17375,0.52124 0.26062,1.13762 0.26062,1.84916c0,0.43851 -0.02128,0.87287 -0.06205,1.3031c-0.03369,0.42196 -0.08333,0.81082 -0.14893,1.16659c-0.05851,0.34749 -0.1241,0.63293 -0.19857,0.85632c-0.09928,0.28127 -0.22782,0.49225 -0.38472,0.63293c-0.15779,0.13235 -0.34395,0.19857 -0.55847,0.19857c-0.21541,0 -0.38118,-0.07863 -0.49642,-0.2358c-0.11613,-0.15717 -0.17375,-0.36815 -0.17375,-0.63293c0,-0.28127 0.02039,-0.62052 0.06205,-1.01766c0.04078,-0.40541 0.07801,-0.81495 0.11169,-1.22864c0.04078,-0.42196 0.06205,-0.80254 0.06205,-1.14176c0,-1.15831 -0.38118,-1.73747 -1.14176,-1.73747c-0.406,0 -0.74463,0.18202 -1.01766,0.54606c-0.27303,0.35576 -0.45564,0.86459 -0.54606,1.52649c-0.02482,0.22339 -0.03723,0.50056 -0.03723,0.8315c0,0.33094 0,0.6619 0,0.99284c0.00798,0.32267 0,0.5957 -0.02482,0.81909c-0.03369,0.49642 -0.12854,0.85216 -0.28544,1.0673c-0.14893,0.21514 -0.35636,0.32267 -0.62052,0.32267c-0.30672,0 -0.53808,-0.14068 -0.69499,-0.42196c-0.15779,-0.28961 -0.2358,-0.77362 -0.2358,-1.45203c0,-0.34749 0.00798,-0.73636 0.02482,-1.16659c0.01596,-0.43023 0.03723,-0.86046 0.06205,-1.29069c0.0328,-0.43851 0.07003,-0.83564 0.11169,-1.19141c0.08244,-0.67017 0.20211,-1.19968 0.3599,-1.58854c0.1569,-0.39714 0.3927,-0.5957 0.7074,-0.5957zM315.83791,181.24459c-0.77831,0 -1.41125,-0.29785 -1.8988,-0.89355c-0.48844,-0.60395 -0.73222,-1.51822 -0.73222,-2.74272c0,-1.30724 0.2358,-2.26285 0.7074,-2.86682c0.4716,-0.60397 1.09212,-0.90597 1.86157,-0.90597c0.45476,0 0.85632,0.11583 1.20382,0.34749c0.34749,0.23166 0.64534,0.55847 0.89355,0.98043l-0.09928,0.17375c-0.02482,-0.11583 -0.0461,-0.23994 -0.06205,-0.37231c-0.01684,-0.13238 -0.02482,-0.23166 -0.02482,-0.29785c0,-0.33922 0.05319,-0.59984 0.16134,-0.78186c0.11524,-0.1903 0.29342,-0.28544 0.53365,-0.28544c0.26417,0 0.4716,0.10755 0.62052,0.32267c0.1569,0.21512 0.27658,0.52124 0.3599,0.91838c0.10726,0.40541 0.19857,0.92252 0.27303,1.55131c0.07446,0.62052 0.11169,1.24932 0.11169,1.88639c0,0.79427 -0.02925,1.46027 -0.08687,1.99809c-0.05851,0.53782 -0.15336,0.98459 -0.28544,1.34033c-0.13297,0.35574 -0.30672,0.666 -0.52124,0.93079c-0.35636,0.4302 -0.81555,0.75704 -1.37756,0.98043c-0.55493,0.23163 -1.19584,0.34749 -1.92362,0.34749c-0.52124,0 -0.93965,-0.04964 -1.25346,-0.14893c-0.31469,-0.09104 -0.54252,-0.21922 -0.68258,-0.38472c-0.13297,-0.15717 -0.19857,-0.33508 -0.19857,-0.53365c0,-0.20681 0.05762,-0.38056 0.17375,-0.52124c0.11524,-0.13235 0.28899,-0.19857 0.52124,-0.19857c0.20655,0 0.44678,0.03307 0.71981,0.09928c0.28101,0.06622 0.61166,0.09928 0.99284,0.09928c0.80225,0 1.3687,-0.19032 1.70024,-0.57088c0.33863,-0.37231 0.50883,-0.91013 0.50883,-1.61336c0,-0.19032 -0.01241,-0.41371 -0.03723,-0.67017l0.17375,0.06205c-0.20743,0.52948 -0.51326,0.95561 -0.91838,1.27828c-0.406,0.31443 -0.8776,0.4716 -1.41479,0.4716zM316.30951,179.7181c0.26417,0 0.52922,-0.07032 0.79427,-0.21098c0.26417,-0.14066 0.48401,-0.37231 0.65776,-0.69499c0.17375,-0.32267 0.26062,-0.75704 0.26062,-1.3031c0,-0.65362 -0.15336,-1.18727 -0.45919,-1.60095c-0.30672,-0.41369 -0.73665,-0.62052 -1.29069,-0.62052c-0.48046,0 -0.8315,0.18202 -1.05489,0.54606c-0.22339,0.36404 -0.33508,0.91424 -0.33508,1.65059c0,0.70326 0.11169,1.25346 0.33508,1.65059c0.22339,0.38886 0.58684,0.58329 1.09212,0.58329zM324.11747,181.53003c-0.24023,0 -0.42639,-0.09104 -0.55847,-0.27303c-0.13297,-0.18199 -0.19857,-0.513 -0.19857,-0.99284c0,-0.33925 0.03723,-0.74463 0.11169,-1.21623c0.08244,-0.47987 0.19414,-0.9887 0.3342,-1.52649c0.14095,-0.54606 0.30672,-1.08798 0.49731,-1.62577c0.1897,-0.54606 0.39714,-1.05489 0.62052,-1.52649c0.24821,-0.53779 0.48755,-0.95561 0.71981,-1.25346c0.23137,-0.30612 0.46717,-0.52124 0.7074,-0.64534c0.23934,-0.13238 0.49199,-0.19857 0.75704,-0.19857c0.39714,0 0.76059,0.1572 1.09212,0.4716c0.33863,0.3144 0.6613,0.83564 0.96802,1.56372c0.22339,0.55433 0.4255,1.16245 0.60811,1.82434c0.18172,0.6619 0.32267,1.33206 0.42196,2.0105c0.10726,0.67844 0.16134,1.31965 0.16134,1.92362c0,0.50466 -0.08687,0.87698 -0.26062,1.11694c-0.16577,0.23163 -0.39714,0.34749 -0.69499,0.34749c-0.28987,0 -0.51326,-0.12827 -0.67017,-0.38472c-0.15779,-0.25645 -0.26948,-0.68258 -0.33508,-1.27828c-0.03369,-0.36404 -0.04964,-0.74049 -0.04964,-1.12935c0,-0.39714 0.01596,-0.77359 0.04964,-1.12935l0.21098,0.95561c-0.28987,0.09928 -0.65421,0.16548 -1.09212,0.19857c-0.43082,0.02482 -0.88114,0.01655 -1.35274,-0.02482c-0.46362,-0.04964 -0.89799,-0.13652 -1.3031,-0.26062l0.65776,-0.84391c0.00798,0.39714 -0.01241,0.786 -0.06205,1.16659c-0.04964,0.37231 -0.10815,0.71567 -0.17375,1.03007c-0.06648,0.36407 -0.14538,0.67433 -0.2358,0.93079c-0.09131,0.25645 -0.21098,0.45094 -0.3599,0.58329c-0.14095,0.1241 -0.33154,0.18616 -0.57088,0.18616zM327.03394,177.29806c0.47958,0 0.82707,-0.07032 1.04248,-0.21098c0.22339,-0.14893 0.33508,-0.36404 0.33508,-0.64534c0,-0.19857 -0.03723,-0.44264 -0.11169,-0.73222c-0.06648,-0.29785 -0.16134,-0.58743 -0.28544,-0.86873c-0.1241,-0.2813 -0.26948,-0.5171 -0.43437,-0.7074c-0.15779,-0.1903 -0.33154,-0.28544 -0.52124,-0.28544c-0.18261,0 -0.35636,0.09928 -0.52124,0.29785c-0.15779,0.1903 -0.29785,0.43023 -0.42196,0.71981c-0.1241,0.28958 -0.22339,0.58743 -0.29785,0.89355c-0.07446,0.29785 -0.11169,0.55433 -0.11169,0.76945c0,0.24821 0.10726,0.43851 0.32267,0.57088c0.22339,0.13238 0.55847,0.19857 1.00525,0.19857zM333.81006,181.61691c-0.81111,0 -1.44405,-0.30202 -1.8988,-0.90597c-0.45564,-0.61228 -0.68258,-1.54304 -0.68258,-2.79236c0,-1.24105 0.22339,-2.14701 0.67017,-2.7179c0.45476,-0.57915 1.10453,-0.86873 1.94845,-0.86873c0.47958,0 0.8971,0.09928 1.25346,0.29785c0.36345,0.19857 0.68612,0.47987 0.96802,0.84391l-0.09928,0.04964c-0.07446,-0.33922 -0.14893,-0.69913 -0.22339,-1.07971c-0.07446,-0.38059 -0.13652,-0.74049 -0.18616,-1.07971c-0.04166,-0.34749 -0.06205,-0.62052 -0.06205,-0.81909c0,-0.2813 0.04521,-0.49642 0.13652,-0.64534c0.09042,-0.1572 0.2358,-0.2358 0.43437,-0.2358c0.28101,0 0.50883,0.11997 0.68258,0.3599c0.17375,0.23166 0.31824,0.59156 0.43437,1.07971c0.10726,0.43851 0.20211,0.95975 0.28544,1.56372c0.08244,0.5957 0.14893,1.22037 0.19857,1.87398c0.05762,0.64534 0.08687,1.26587 0.08687,1.86157c0,0.82736 -0.0461,1.47268 -0.13652,1.93603c-0.08333,0.45502 -0.203,0.77362 -0.3599,0.95561c-0.14893,0.18199 -0.3271,0.27303 -0.53365,0.27303c-0.25707,0 -0.43082,-0.12827 -0.52124,-0.38472c-0.09131,-0.25645 -0.12854,-0.67433 -0.11169,-1.25346h0.18616c-0.22339,0.513 -0.55049,0.92254 -0.98043,1.22864c-0.42196,0.3061 -0.91838,0.45919 -1.48926,0.45919zM334.46781,180.07801c0.29785,0 0.57088,-0.07446 0.81909,-0.22339c0.25619,-0.15717 0.45919,-0.39714 0.60811,-0.71981c0.1569,-0.32267 0.2358,-0.73222 0.2358,-1.22864c0,-0.63707 -0.14538,-1.15417 -0.43437,-1.55131c-0.28987,-0.40541 -0.7074,-0.60811 -1.25346,-0.60811c-0.43082,0 -0.78186,0.17789 -1.05489,0.53365c-0.26505,0.35576 -0.39714,0.89355 -0.39714,1.61336c0,0.63707 0.13208,1.16245 0.39714,1.57613c0.27303,0.40538 0.63293,0.60811 1.07971,0.60811zM344.69316,181.56726c-0.28101,0 -0.47514,-0.10753 -0.58329,-0.32267c-0.09928,-0.22339 -0.1569,-0.57505 -0.17375,-1.05489l0.1241,0.06205c-0.46273,0.9018 -1.34033,1.35274 -2.63102,1.35274c-0.58684,0 -1.07528,-0.10345 -1.46444,-0.31026c-0.38827,-0.21514 -0.67814,-0.49642 -0.86873,-0.84391c-0.18172,-0.35574 -0.27303,-0.74046 -0.27303,-1.15417c0,-0.71154 0.24821,-1.27414 0.74463,-1.68783c0.49642,-0.42196 1.15417,-0.63293 1.97327,-0.63293c0.53808,0 1.00525,0.0786 1.40238,0.2358c0.39714,0.1572 0.73665,0.37645 1.01766,0.65776l-0.21098,-0.02482c-0.05762,-0.83564 -0.23934,-1.43134 -0.54606,-1.78711c-0.29785,-0.36404 -0.72335,-0.54606 -1.27828,-0.54606c-0.32267,0 -0.62052,0.04964 -0.89355,0.14893c-0.27303,0.09928 -0.52479,0.20271 -0.75704,0.31026c-0.22339,0.09928 -0.43437,0.14893 -0.63293,0.14893c-0.19857,0 -0.35547,-0.06619 -0.4716,-0.19857c-0.10726,-0.13238 -0.16134,-0.30199 -0.16134,-0.50883c0,-0.29785 0.14095,-0.57915 0.42196,-0.84391c0.28987,-0.26476 0.67017,-0.47987 1.14176,-0.64534c0.4716,-0.16548 0.98486,-0.24821 1.5389,-0.24821c0.67017,0 1.24548,0.16134 1.72506,0.48401c0.48046,0.32267 0.84391,0.79427 1.09212,1.41479c0.21541,0.52951 0.36877,1.12108 0.45919,1.7747c0.09131,0.65362 0.13652,1.35274 0.13652,2.09737c0,0.56264 -0.02837,0.997 -0.08687,1.3031c-0.05762,0.3061 -0.14893,0.52124 -0.27303,0.64534c-0.11524,0.11586 -0.27303,0.17375 -0.4716,0.17375zM341.95045,180.17729c0.27303,0 0.55049,-0.03723 0.8315,-0.11169c0.2819,-0.08271 0.51769,-0.20273 0.7074,-0.3599c0.19059,-0.1572 0.28544,-0.35163 0.28544,-0.58329c0,-0.19857 -0.08244,-0.3599 -0.24821,-0.48401c-0.1569,-0.13238 -0.36788,-0.23166 -0.63293,-0.29785c-0.25619,-0.06619 -0.53365,-0.09928 -0.8315,-0.09928c-0.5044,0 -0.88912,0.08687 -1.15417,0.26062c-0.25619,0.17375 -0.38472,0.40541 -0.38472,0.69499c0,0.3144 0.12056,0.55847 0.3599,0.73222c0.24821,0.1655 0.60457,0.24821 1.0673,0.24821zM351.26097,181.7286c-0.52124,0 -0.92724,-0.03307 -1.21623,-0.09928c-0.2819,-0.06622 -0.47603,-0.15717 -0.58329,-0.27303c-0.10815,-0.1241 -0.16577,-0.26062 -0.17375,-0.40955c0,-0.23163 0.13652,-0.42612 0.40955,-0.58329c0.28101,-0.15717 0.79427,-0.25645 1.5389,-0.29785l-0.19857,0.2358c-0.09131,-0.42196 -0.15779,-0.91424 -0.19857,-1.47685c-0.04166,-0.56261 -0.05851,-1.1459 -0.04964,-1.74988c0.00798,-0.60397 0.03723,-1.179 0.08687,-1.72506c0.04964,-0.55433 0.11967,-1.02593 0.21098,-1.41479l1.07971,-0.07446c-0.18261,0.07446 -0.40955,0.14066 -0.68258,0.19857c-0.27303,0.04964 -0.55493,0.07446 -0.84391,0.07446c-0.5301,0 -0.92281,-0.05791 -1.179,-0.17375c-0.24821,-0.11583 -0.37231,-0.27717 -0.37231,-0.48401c0,-0.36404 0.21896,-0.64534 0.65776,-0.84391c0.44678,-0.20684 1.12935,-0.31026 2.04773,-0.31026c1.09212,0 2.0105,0.18202 2.75513,0.54606c0.75261,0.35576 1.32349,0.85632 1.71265,1.50167c0.38827,0.63707 0.58329,1.3817 0.58329,2.23389c0,0.74463 -0.13297,1.43134 -0.39714,2.06014c-0.26505,0.62052 -0.64534,1.16242 -1.14176,1.62577c-0.48844,0.45502 -1.07617,0.81085 -1.76229,1.0673c-0.67903,0.24821 -1.43962,0.37231 -2.28353,0.37231zM353.02325,179.81739c0.28101,0 0.57886,-0.11169 0.89355,-0.33508c0.32267,-0.23166 0.5957,-0.56674 0.81909,-1.00525c0.22339,-0.44678 0.33508,-0.99698 0.33508,-1.65059c0,-0.47987 -0.07092,-0.89769 -0.21098,-1.25346c-0.13297,-0.36404 -0.30672,-0.66603 -0.52124,-0.90597c-0.21541,-0.23994 -0.44323,-0.41782 -0.68258,-0.53365c-0.24023,-0.1241 -0.46805,-0.18616 -0.68258,-0.18616c-0.17375,0 -0.31026,0.10755 -0.40955,0.32267c-0.09131,0.21512 -0.15779,0.53779 -0.19857,0.96802c-0.04166,0.42196 -0.06205,0.94734 -0.06205,1.57613c0,0.97629 0.04964,1.72092 0.14893,2.23389c0.09928,0.51297 0.28899,0.76945 0.57088,0.76945zM359.30473,171.92432c0.33154,0 0.56734,0.09101 0.7074,0.27303c0.14893,0.18202 0.22339,0.393 0.22339,0.63293c0,0.29785 -0.09042,0.52951 -0.27303,0.69499c-0.17375,0.1572 -0.42196,0.2358 -0.74463,0.2358c-0.31381,0 -0.54961,-0.08687 -0.7074,-0.26062c-0.1569,-0.18202 -0.2358,-0.393 -0.2358,-0.63293c0,-0.3144 0.09574,-0.5502 0.28544,-0.7074c0.19059,-0.1572 0.4388,-0.2358 0.74463,-0.2358zM359.37919,174.69186c0.26505,0 0.4716,0.24821 0.62052,0.74463c0.15779,0.49642 0.2358,1.28655 0.2358,2.3704c0,1.33206 -0.09485,2.29177 -0.28544,2.87923c-0.1897,0.58746 -0.47958,0.88114 -0.86873,0.88114c-0.29785,0 -0.51681,-0.21514 -0.65776,-0.64534c-0.14006,-0.43853 -0.21098,-1.19965 -0.21098,-2.28353c0,-1.33206 0.10815,-2.32076 0.32267,-2.9661c0.22339,-0.65362 0.50528,-0.98043 0.84391,-0.98043zM366.74304,181.48039c-0.27303,0 -0.57886,-0.01658 -0.91838,-0.04964c-0.33065,-0.03307 -0.65332,-0.09512 -0.96802,-0.18616c-0.30583,-0.09928 -0.56202,-0.23163 -0.76945,-0.39714c-0.19857,-0.17375 -0.29785,-0.39714 -0.29785,-0.67017c0,-0.28127 0.08687,-0.49225 0.26062,-0.63293c0.18261,-0.14066 0.47603,-0.21098 0.88114,-0.21098c0.2819,0 0.5957,0.03723 0.9432,0.11169c0.35636,0.07446 0.69499,0.11169 1.01766,0.11169c0.48046,0 0.8315,-0.07446 1.05489,-0.22339c0.23225,-0.14893 0.34749,-0.35163 0.34749,-0.60811c0,-0.1572 -0.04521,-0.29785 -0.13652,-0.42196c-0.08244,-0.1241 -0.25176,-0.24821 -0.50883,-0.37231c-0.25619,-0.1241 -0.64091,-0.26062 -1.15417,-0.40955c-0.58684,-0.1572 -1.06287,-0.33094 -1.42721,-0.52124c-0.36345,-0.19857 -0.6285,-0.43437 -0.79427,-0.7074c-0.16488,-0.27303 -0.24821,-0.5957 -0.24821,-0.96802c0,-0.45505 0.0789,-0.84805 0.2358,-1.179c0.16577,-0.33922 0.38472,-0.62466 0.65776,-0.85632c0.27303,-0.23994 0.57975,-0.43023 0.91838,-0.57088c0.33952,-0.14066 0.68258,-0.24407 1.03007,-0.31026c0.35636,-0.06619 0.69499,-0.09928 1.01766,-0.09928c0.71183,0 1.29069,0.11169 1.73747,0.33508c0.45564,0.22339 0.68258,0.52124 0.68258,0.89355c0,0.26476 -0.08687,0.47987 -0.26062,0.64534c-0.16488,0.16548 -0.42196,0.24821 -0.76945,0.24821c-0.14893,0 -0.32622,-0.02068 -0.53365,-0.06205c-0.20655,-0.04137 -0.43437,-0.08273 -0.68258,-0.1241c-0.24821,-0.04137 -0.52124,-0.06205 -0.81909,-0.06205c-0.5044,0 -0.89355,0.0786 -1.16659,0.2358c-0.27303,0.1572 -0.40955,0.40955 -0.40955,0.75704c0,0.14893 0.03723,0.28544 0.11169,0.40955c0.08333,0.1241 0.25264,0.25235 0.50883,0.38472c0.25707,0.13238 0.64978,0.28544 1.179,0.45919c0.65421,0.19857 1.16659,0.41782 1.5389,0.65776c0.37231,0.23166 0.63737,0.49642 0.79427,0.79427c0.15779,0.29785 0.2358,0.63293 0.2358,1.00525c0,0.51297 -0.14006,0.96802 -0.42196,1.36515c-0.27303,0.38889 -0.65776,0.69082 -1.15417,0.90597c-0.48755,0.21514 -1.05844,0.32267 -1.71265,0.32267zM374.84974,181.54244c-0.91838,0 -1.65059,-0.13652 -2.19665,-0.40955c-0.54606,-0.27303 -0.93876,-0.666 -1.179,-1.179c-0.24023,-0.51297 -0.3599,-1.12521 -0.3599,-1.83675c0,-0.90183 0.16577,-1.66714 0.49642,-2.29594c0.33952,-0.63707 0.80225,-1.12521 1.38997,-1.46444c0.5957,-0.33922 1.2703,-0.50883 2.02291,-0.50883c0.88558,0 1.53447,0.20684 1.94845,0.62052c0.41398,0.40541 0.62052,0.93906 0.62052,1.60095c0,0.52951 -0.14095,0.9887 -0.42196,1.37756c-0.27303,0.38059 -0.65332,0.67431 -1.14176,0.88114c-0.48844,0.20684 -1.05046,0.31026 -1.68783,0.31026c-0.35547,0 -0.69942,-0.0455 -1.03007,-0.13652c-0.33065,-0.09101 -0.6285,-0.21512 -0.89355,-0.37231l0.29785,-0.54606c-0.02482,0.19857 -0.03723,0.39714 -0.03723,0.5957c0,0.57915 0.18172,0.99698 0.54606,1.25346c0.36434,0.24821 0.88114,0.37231 1.55131,0.37231c0.52124,0 0.93876,-0.04548 1.25346,-0.13652c0.31469,-0.09101 0.57886,-0.17789 0.79427,-0.26062c0.21541,-0.09101 0.42639,-0.13652 0.63293,-0.13652c0.11613,0 0.21896,0.03309 0.31026,0.09928c0.09928,0.05791 0.17818,0.14479 0.2358,0.26062c0.06648,0.11586 0.09928,0.25645 0.09928,0.42196c0,0.24821 -0.1241,0.48818 -0.37231,0.71981c-0.24821,0.22339 -0.61609,0.40955 -1.10453,0.55847c-0.47958,0.14068 -1.07173,0.21098 -1.7747,0.21098zM374.12993,177.48422c0.58772,0 1.05932,-0.1241 1.41479,-0.37231c0.35547,-0.24821 0.53365,-0.55433 0.53365,-0.91838c0,-0.28958 -0.09928,-0.52538 -0.29785,-0.7074c-0.19059,-0.1903 -0.49199,-0.28544 -0.90597,-0.28544c-0.38916,0 -0.7402,0.07446 -1.05489,0.22339c-0.30583,0.14066 -0.54606,0.32681 -0.71981,0.55847c-0.17375,0.23166 -0.26062,0.48401 -0.26062,0.75704c0,0.23994 0.11169,0.4261 0.33508,0.55847c0.23137,0.1241 0.55049,0.18616 0.95561,0.18616zM380.03555,181.56726c-0.1569,0 -0.28544,-0.04548 -0.38472,-0.13652c-0.09928,-0.09928 -0.16931,-0.23997 -0.21098,-0.42196c-0.0656,-0.3061 -0.1241,-0.7488 -0.17375,-1.32792c-0.04964,-0.57915 -0.07446,-1.22037 -0.07446,-1.92362c0,-0.86873 0.02925,-1.70438 0.08687,-2.50692c0.06648,-0.80254 0.14893,-1.4603 0.24821,-1.97327c0.10815,-0.55433 0.24023,-0.95975 0.39714,-1.21623c0.15779,-0.26476 0.36434,-0.39714 0.62052,-0.39714c0.23225,0 0.40955,0.10756 0.53365,0.32267c0.1241,0.20684 0.18616,0.56674 0.18616,1.07971c0,0.51297 -0.02039,1.06316 -0.06205,1.65059c-0.0328,0.58743 -0.09042,1.21623 -0.17375,1.88639h0.04964c0.53808,-0.72808 1.03893,-1.31137 1.50167,-1.74988c0.4716,-0.43851 0.90242,-0.75704 1.29069,-0.95561c0.39714,-0.19857 0.74906,-0.29785 1.05489,-0.29785c0.24023,0 0.41841,0.07446 0.53365,0.22339c0.11613,0.14893 0.17375,0.33094 0.17375,0.54606c0,0.42196 -0.33863,0.89355 -1.01766,1.41479c-0.67017,0.52124 -1.63818,1.05489 -2.90405,1.60095l0.01241,-0.19857c0.78629,0.40541 1.46089,0.8315 2.02291,1.27828c0.57088,0.43851 1.00525,0.85632 1.3031,1.25346c0.30672,0.38889 0.45919,0.71564 0.45919,0.98043c0,0.21514 -0.07003,0.39297 -0.21098,0.53365c-0.13208,0.13235 -0.32622,0.19857 -0.58329,0.19857c-0.32267,0 -0.68258,-0.11994 -1.07971,-0.3599c-0.38827,-0.24821 -0.79427,-0.61636 -1.21623,-1.10453c-0.42196,-0.48815 -0.84391,-1.10039 -1.26587,-1.83675h-0.04964c-0.00798,0.52124 -0.04078,1.03007 -0.09928,1.52649c-0.04964,0.48818 -0.11524,0.88939 -0.19857,1.20382c-0.05762,0.21514 -0.14893,0.38889 -0.27303,0.52124c-0.11524,0.1241 -0.28101,0.18616 -0.49642,0.18616zM387.72561,171.92432c0.33065,0 0.56645,0.09101 0.7074,0.27303c0.14893,0.18202 0.22339,0.393 0.22339,0.63293c0,0.29785 -0.09131,0.52951 -0.27303,0.69499c-0.17375,0.1572 -0.42196,0.2358 -0.74463,0.2358c-0.31469,0 -0.55049,-0.08687 -0.7074,-0.26062c-0.1569,-0.18202 -0.2358,-0.393 -0.2358,-0.63293c0,-0.3144 0.09485,-0.5502 0.28544,-0.7074c0.19059,-0.1572 0.4388,-0.2358 0.74463,-0.2358zM387.80008,174.69186c0.26505,0 0.4716,0.24821 0.62052,0.74463c0.1569,0.49642 0.2358,1.28655 0.2358,2.3704c0,1.33206 -0.09485,2.29177 -0.28544,2.87923c-0.19059,0.58746 -0.47958,0.88114 -0.86873,0.88114c-0.29785,0 -0.51681,-0.21514 -0.65776,-0.64534c-0.14095,-0.43853 -0.21098,-1.19965 -0.21098,-2.28353c0,-1.33206 0.10726,-2.32076 0.32267,-2.9661c0.22339,-0.65362 0.5044,-0.98043 0.84391,-0.98043zM392.26962,173.97205h-0.24821c-0.02482,-0.36404 -0.01684,-0.7074 0.02482,-1.03007c0.04166,-0.33094 0.12854,-0.5957 0.26062,-0.79427c0.14095,-0.20684 0.33952,-0.31026 0.5957,-0.31026c0.23137,0 0.40157,0.07446 0.50883,0.22339c0.10726,0.14893 0.16134,0.35576 0.16134,0.62052c0,0.52124 -0.09928,0.96802 -0.29785,1.34033l-0.22339,-0.02482c0.44678,-0.1572 0.95117,-0.2358 1.51408,-0.2358c0.35547,0 0.63737,0.07032 0.84391,0.21098c0.21541,0.13238 0.32267,0.3599 0.32267,0.68258c0,0.30612 -0.1241,0.53779 -0.37231,0.69499c-0.24821,0.1572 -0.55847,0.2358 -0.93079,0.2358c-0.22339,0 -0.46362,-0.00827 -0.71981,-0.02482c-0.24821,-0.02482 -0.49199,-0.06205 -0.73222,-0.11169l0.21098,-0.26062c0.07446,0.3144 0.14449,0.67431 0.21098,1.07971c0.07446,0.39714 0.14095,0.81082 0.19857,1.24105c0.05762,0.43023 0.10372,0.84805 0.13652,1.25346c0.0328,0.40541 0.04964,0.76945 0.04964,1.09212c0,0.52948 -0.08244,0.94736 -0.24821,1.25346c-0.16577,0.3061 -0.40955,0.45919 -0.73222,0.45919c-0.25619,0 -0.45919,-0.07863 -0.60811,-0.2358c-0.14095,-0.15717 -0.24378,-0.35574 -0.31026,-0.5957c-0.05762,-0.24821 -0.09485,-0.50466 -0.11169,-0.76945c-0.00798,-0.26479 -0.01241,-0.50469 -0.01241,-0.71981c0,-0.36404 0.01684,-0.77359 0.04964,-1.22864c0.0328,-0.46333 0.0789,-0.93906 0.13652,-1.42721c0.06648,-0.48815 0.14095,-0.95975 0.22339,-1.41479l0.24821,0.21098c-0.42196,0.21512 -0.9432,0.32267 -1.56372,0.32267c-0.38029,0 -0.6746,-0.07032 -0.88114,-0.21098c-0.20655,-0.14066 -0.31026,-0.3599 -0.31026,-0.65776c0,-0.32267 0.11613,-0.57088 0.34749,-0.74463c0.23137,-0.18202 0.54163,-0.27303 0.93079,-0.27303c0.25619,0 0.49642,0.01655 0.71981,0.04964c0.23137,0.02482 0.43437,0.05791 0.60811,0.09928zM402.16432,181.56726c-0.28101,0 -0.47514,-0.10753 -0.58329,-0.32267c-0.09928,-0.22339 -0.1569,-0.57505 -0.17375,-1.05489l0.1241,0.06205c-0.46273,0.9018 -1.34033,1.35274 -2.63102,1.35274c-0.58684,0 -1.07528,-0.10345 -1.46444,-0.31026c-0.38827,-0.21514 -0.67814,-0.49642 -0.86873,-0.84391c-0.18172,-0.35574 -0.27303,-0.74046 -0.27303,-1.15417c0,-0.71154 0.24821,-1.27414 0.74463,-1.68783c0.49642,-0.42196 1.15417,-0.63293 1.97327,-0.63293c0.53808,0 1.00525,0.0786 1.40238,0.2358c0.39714,0.1572 0.73665,0.37645 1.01766,0.65776l-0.21098,-0.02482c-0.05762,-0.83564 -0.23934,-1.43134 -0.54606,-1.78711c-0.29785,-0.36404 -0.72335,-0.54606 -1.27828,-0.54606c-0.32267,0 -0.62052,0.04964 -0.89355,0.14893c-0.27303,0.09928 -0.52479,0.20271 -0.75704,0.31026c-0.22339,0.09928 -0.43437,0.14893 -0.63293,0.14893c-0.19857,0 -0.35547,-0.06619 -0.4716,-0.19857c-0.10726,-0.13238 -0.16134,-0.30199 -0.16134,-0.50883c0,-0.29785 0.14095,-0.57915 0.42196,-0.84391c0.28987,-0.26476 0.67017,-0.47987 1.14176,-0.64534c0.4716,-0.16548 0.98486,-0.24821 1.5389,-0.24821c0.67017,0 1.24548,0.16134 1.72506,0.48401c0.48046,0.32267 0.84391,0.79427 1.09212,1.41479c0.21541,0.52951 0.36877,1.12108 0.45919,1.7747c0.09131,0.65362 0.13652,1.35274 0.13652,2.09737c0,0.56264 -0.02837,0.997 -0.08687,1.3031c-0.05762,0.3061 -0.14893,0.52124 -0.27303,0.64534c-0.11524,0.11586 -0.27303,0.17375 -0.4716,0.17375zM399.42161,180.17729c0.27303,0 0.55049,-0.03723 0.8315,-0.11169c0.2819,-0.08271 0.51769,-0.20273 0.7074,-0.3599c0.19059,-0.1572 0.28544,-0.35163 0.28544,-0.58329c0,-0.19857 -0.08244,-0.3599 -0.24821,-0.48401c-0.1569,-0.13238 -0.36788,-0.23166 -0.63293,-0.29785c-0.25619,-0.06619 -0.53365,-0.09928 -0.8315,-0.09928c-0.5044,0 -0.88912,0.08687 -1.15417,0.26062c-0.25619,0.17375 -0.38472,0.40541 -0.38472,0.69499c0,0.3144 0.12056,0.55847 0.3599,0.73222c0.24821,0.1655 0.60457,0.24821 1.0673,0.24821zM404.5099,175.84603c0,-0.79427 0.07446,-1.36515 0.22339,-1.71265c0.14893,-0.35576 0.3599,-0.53365 0.63293,-0.53365c0.21541,0 0.38472,0.09101 0.50883,0.27303c0.1241,0.17375 0.21541,0.393 0.27303,0.65776c0.05762,0.25648 0.08687,0.5171 0.08687,0.78186l-0.06205,-0.02482c0.14095,-0.44678 0.35547,-0.8315 0.64534,-1.15417c0.29785,-0.32267 0.65332,-0.48401 1.0673,-0.48401c0.48844,0 0.84834,0.20271 1.07971,0.60811c0.23137,0.39714 0.34749,0.89355 0.34749,1.48926c0,0.79427 -0.09131,1.3486 -0.27303,1.663c-0.18172,0.3144 -0.42639,0.4716 -0.73222,0.4716c-0.22339,0 -0.38916,-0.09101 -0.49642,-0.27303c-0.09928,-0.18202 -0.13208,-0.50469 -0.09928,-0.96802c0.0328,-0.48815 0.00443,-0.82736 -0.08687,-1.01766c-0.09131,-0.1903 -0.2358,-0.28544 -0.43437,-0.28544c-0.24023,0 -0.4388,0.15307 -0.5957,0.45919c-0.14893,0.29785 -0.22339,0.66603 -0.22339,1.10453c0,0.17375 0.02039,0.393 0.06205,0.65776c0.04166,0.26476 0.08687,0.55433 0.13652,0.86873c0.04964,0.30612 0.09485,0.61225 0.13652,0.91838c0.04166,0.30612 0.06205,0.58746 0.06205,0.84391c0,0.45502 -0.07003,0.78186 -0.21098,0.98043c-0.14095,0.19857 -0.33952,0.29785 -0.5957,0.29785c-0.28987,0 -0.51326,-0.09104 -0.67017,-0.27303c-0.1569,-0.19032 -0.27746,-0.49642 -0.3599,-0.91838c-0.06648,-0.38056 -0.13208,-0.8315 -0.19857,-1.35274c-0.06648,-0.52124 -0.11967,-1.05489 -0.16134,-1.60095c-0.04166,-0.54606 -0.06205,-1.03834 -0.06205,-1.47685zM413.77787,181.56726c-0.14893,0 -0.26948,-0.04964 -0.3599,-0.14893c-0.09131,-0.10753 -0.16577,-0.2772 -0.22339,-0.50883c-0.05851,-0.26479 -0.11169,-0.67841 -0.16134,-1.24105c-0.04964,-0.57088 -0.07446,-1.20796 -0.07446,-1.91121c0,-0.76118 0.02039,-1.50167 0.06205,-2.22148c0.04964,-0.72808 0.11967,-1.36929 0.21098,-1.92362c0.0656,-0.36404 0.16134,-0.63293 0.28544,-0.80668c0.13208,-0.18202 0.31381,-0.27303 0.54606,-0.27303c0.14893,0 0.28101,0.04964 0.39714,0.14893c0.11524,0.09928 0.20211,0.27717 0.26062,0.53365c0.0656,0.25648 0.09928,0.62052 0.09928,1.09212c0,0.23166 -0.00886,0.49642 -0.02482,0.79427c-0.01684,0.28958 -0.04166,0.61225 -0.07446,0.96802h0.04964c0.6613,-0.9101 1.24459,-1.63404 1.74988,-2.17183c0.5044,-0.54606 0.94674,-0.93906 1.32792,-1.179c0.38827,-0.23994 0.72779,-0.3599 1.01766,-0.3599c0.23137,0 0.40511,0.07446 0.52124,0.22339c0.1241,0.14893 0.18616,0.33094 0.18616,0.54606c0,0.45505 -0.34395,1.00111 -1.03007,1.63818c-0.67903,0.63707 -1.7747,1.40238 -3.28878,2.29594l0.09928,-0.2358c1.30665,0.82736 2.29594,1.55958 2.9661,2.19665c0.67017,0.62879 1.00525,1.18724 1.00525,1.67541c0,0.21514 -0.07092,0.39297 -0.21098,0.53365c-0.13297,0.13235 -0.33154,0.19857 -0.5957,0.19857c-0.33154,0 -0.68258,-0.11169 -1.05489,-0.33508c-0.37231,-0.23163 -0.78629,-0.61636 -1.24105,-1.15417c-0.44678,-0.54606 -0.95561,-1.28655 -1.52649,-2.22148h-0.04964c0.01596,0.1903 0.02837,0.38886 0.03723,0.5957c0.00798,0.19857 0.01241,0.39714 0.01241,0.5957c0,0.95144 -0.06648,1.63402 -0.19857,2.04773c-0.13297,0.40538 -0.37231,0.60811 -0.71981,0.60811zM421.72058,171.92432c0.33154,0 0.56734,0.09101 0.7074,0.27303c0.14893,0.18202 0.22339,0.393 0.22339,0.63293c0,0.29785 -0.09042,0.52951 -0.27303,0.69499c-0.17375,0.1572 -0.42196,0.2358 -0.74463,0.2358c-0.31381,0 -0.54961,-0.08687 -0.7074,-0.26062c-0.1569,-0.18202 -0.2358,-0.393 -0.2358,-0.63293c0,-0.3144 0.09574,-0.5502 0.28544,-0.7074c0.19059,-0.1572 0.4388,-0.2358 0.74463,-0.2358zM421.79504,174.69186c0.26505,0 0.4716,0.24821 0.62052,0.74463c0.15779,0.49642 0.2358,1.28655 0.2358,2.3704c0,1.33206 -0.09485,2.29177 -0.28544,2.87923c-0.1897,0.58746 -0.47958,0.88114 -0.86873,0.88114c-0.29785,0 -0.51681,-0.21514 -0.65776,-0.64534c-0.14006,-0.43853 -0.21098,-1.19965 -0.21098,-2.28353c0,-1.33206 0.10815,-2.32076 0.32267,-2.9661c0.22339,-0.65362 0.50528,-0.98043 0.84391,-0.98043zM426.26547,173.97205h-0.24821c-0.02482,-0.36404 -0.01684,-0.7074 0.02482,-1.03007c0.04078,-0.33094 0.12765,-0.5957 0.26062,-0.79427c0.14006,-0.20684 0.33863,-0.31026 0.5957,-0.31026c0.23137,0 0.40068,0.07446 0.50883,0.22339c0.10726,0.14893 0.16134,0.35576 0.16134,0.62052c0,0.52124 -0.09928,0.96802 -0.29785,1.34033l-0.22339,-0.02482c0.44678,-0.1572 0.95117,-0.2358 1.51408,-0.2358c0.35547,0 0.63648,0.07032 0.84391,0.21098c0.21452,0.13238 0.32267,0.3599 0.32267,0.68258c0,0.30612 -0.1241,0.53779 -0.37231,0.69499c-0.24821,0.1572 -0.55847,0.2358 -0.93079,0.2358c-0.22339,0 -0.46362,-0.00827 -0.71981,-0.02482c-0.24821,-0.02482 -0.49287,-0.06205 -0.73222,-0.11169l0.21098,-0.26062c0.07446,0.3144 0.14449,0.67431 0.21098,1.07971c0.07446,0.39714 0.14006,0.81082 0.19857,1.24105c0.05762,0.43023 0.10283,0.84805 0.13652,1.25346c0.0328,0.40541 0.04964,0.76945 0.04964,1.09212c0,0.52948 -0.08333,0.94736 -0.24821,1.25346c-0.16577,0.3061 -0.40955,0.45919 -0.73222,0.45919c-0.25707,0 -0.45919,-0.07863 -0.60811,-0.2358c-0.14095,-0.15717 -0.24466,-0.35574 -0.31026,-0.5957c-0.05851,-0.24821 -0.09574,-0.50466 -0.11169,-0.76945c-0.00886,-0.26479 -0.01241,-0.50469 -0.01241,-0.71981c0,-0.36404 0.01596,-0.77359 0.04964,-1.22864c0.0328,-0.46333 0.07801,-0.93906 0.13652,-1.42721c0.0656,-0.48815 0.14006,-0.95975 0.22339,-1.41479l0.24821,0.21098c-0.42196,0.21512 -0.9432,0.32267 -1.56372,0.32267c-0.38118,0 -0.6746,-0.07032 -0.88114,-0.21098c-0.20743,-0.14066 -0.31026,-0.3599 -0.31026,-0.65776c0,-0.32267 0.11524,-0.57088 0.34749,-0.74463c0.23137,-0.18202 0.54163,-0.27303 0.93079,-0.27303c0.25619,0 0.49642,0.01655 0.71981,0.04964c0.23137,0.02482 0.43437,0.05791 0.60811,0.09928zM436.16017,181.56726c-0.2819,0 -0.47603,-0.10753 -0.58329,-0.32267c-0.09928,-0.22339 -0.15779,-0.57505 -0.17375,-1.05489l0.1241,0.06205c-0.46362,0.9018 -1.34033,1.35274 -2.63102,1.35274c-0.58772,0 -1.07617,-0.10345 -1.46444,-0.31026c-0.38916,-0.21514 -0.67903,-0.49642 -0.86873,-0.84391c-0.18261,-0.35574 -0.27303,-0.74046 -0.27303,-1.15417c0,-0.71154 0.24821,-1.27414 0.74463,-1.68783c0.49642,-0.42196 1.15417,-0.63293 1.97327,-0.63293c0.5372,0 1.00525,0.0786 1.40238,0.2358c0.39714,0.1572 0.73576,0.37645 1.01766,0.65776l-0.21098,-0.02482c-0.05851,-0.83564 -0.24023,-1.43134 -0.54606,-1.78711c-0.29785,-0.36404 -0.72424,-0.54606 -1.27828,-0.54606c-0.32267,0 -0.62052,0.04964 -0.89355,0.14893c-0.27303,0.09928 -0.52567,0.20271 -0.75704,0.31026c-0.22339,0.09928 -0.43437,0.14893 -0.63293,0.14893c-0.19857,0 -0.35636,-0.06619 -0.4716,-0.19857c-0.10815,-0.13238 -0.16134,-0.30199 -0.16134,-0.50883c0,-0.29785 0.14006,-0.57915 0.42196,-0.84391c0.28899,-0.26476 0.67017,-0.47987 1.14176,-0.64534c0.4716,-0.16548 0.98397,-0.24821 1.5389,-0.24821c0.67017,0 1.24459,0.16134 1.72506,0.48401c0.47958,0.32267 0.84391,0.79427 1.09212,1.41479c0.21452,0.52951 0.36788,1.12108 0.45919,1.7747c0.09042,0.65362 0.13652,1.35274 0.13652,2.09737c0,0.56264 -0.02925,0.997 -0.08687,1.3031c-0.05851,0.3061 -0.14893,0.52124 -0.27303,0.64534c-0.11613,0.11586 -0.27303,0.17375 -0.4716,0.17375zM433.41745,180.17729c0.27303,0 0.54961,-0.03723 0.8315,-0.11169c0.28101,-0.08271 0.51681,-0.20273 0.7074,-0.3599c0.1897,-0.1572 0.28544,-0.35163 0.28544,-0.58329c0,-0.19857 -0.08333,-0.3599 -0.24821,-0.48401c-0.15779,-0.13238 -0.36877,-0.23166 -0.63293,-0.29785c-0.25707,-0.06619 -0.53365,-0.09928 -0.8315,-0.09928c-0.50528,0 -0.89001,0.08687 -1.15417,0.26062c-0.25707,0.17375 -0.38472,0.40541 -0.38472,0.69499c0,0.3144 0.11967,0.55847 0.3599,0.73222c0.24821,0.1655 0.60368,0.24821 1.0673,0.24821z"/></g></g></svg>