<svg version="1.1" xmlns="http://www.w3.org/2000/svg" xmlns:xlink="http://www.w3.org/1999/xlink" width="314.4918" height="15.65857" viewBox="0,0,314.4918,15.65857"><g transform="translate(-82.7541,-172.17071)"><g data-paper-data="{&quot;isPaintingLayer&quot;:true}" fill="#060606" fill-rule="nonzero" stroke="none" stroke-width="1" stroke-linecap="butt" stroke-linejoin="miter" stroke-miterlimit="10" stroke-dasharray="" stroke-dashoffset="0" style="mix-blend-mode: normal"><path d="M88.09513,184.89727c-1.19394,0 -2.18713,-0.22188 -2.97957,-0.66565c-0.79244,-0.45436 -1.38412,-1.08831 -1.77506,-1.90185c-0.39094,-0.81357 -0.5864,-1.76449 -0.5864,-2.85278c0,-1.20451 0.2166,-2.2558 0.6498,-3.1539c0.44377,-0.90866 1.08299,-1.61129 1.9177,-2.10788c0.8347,-0.49659 1.83846,-0.74489 3.01126,-0.74489c1.09884,0 1.97581,0.19546 2.63089,0.5864c0.65508,0.38037 0.98262,0.8664 0.98262,1.45809c0,0.34867 -0.11094,0.62867 -0.33282,0.83998c-0.22188,0.20075 -0.54414,0.30113 -0.96677,0.30113c-0.27471,0 -0.54414,-0.05812 -0.80829,-0.17434c-0.26415,-0.11622 -0.54943,-0.22716 -0.85583,-0.33282c-0.29585,-0.11622 -0.6498,-0.17434 -1.06187,-0.17434c-0.52829,0 -1.0196,0.10037 -1.47393,0.30113c-0.44377,0.20075 -0.80301,0.53886 -1.07772,1.01432c-0.26415,0.46489 -0.39622,1.09884 -0.39622,1.90185c0,1.21507 0.26415,2.07619 0.79244,2.58335c0.53886,0.50716 1.24677,0.76074 2.12373,0.76074c0.30641,0 0.62867,-0.02645 0.96677,-0.07924c0.3381,-0.0634 0.65508,-0.12154 0.95093,-0.17434c0.29585,-0.0634 0.53358,-0.09509 0.71319,-0.09509c0.35924,0 0.64452,0.08984 0.85583,0.26943c0.21131,0.16909 0.31698,0.42267 0.31698,0.76074c0,0.48606 -0.30641,0.88753 -0.91923,1.20451c-0.61282,0.31698 -1.50563,0.47546 -2.67844,0.47546zM97.08791,184.77048c-0.84523,0 -1.58488,-0.18494 -2.21883,-0.55471c-0.62335,-0.38037 -1.10941,-0.91923 -1.45809,-1.61657c-0.33807,-0.69735 -0.50716,-1.52676 -0.50716,-2.48825c0,-1.00375 0.17434,-1.88072 0.52301,-2.63089c0.34867,-0.75017 0.83998,-1.33658 1.47393,-1.75921c0.64455,-0.42264 1.38944,-0.63395 2.23467,-0.63395c0.90873,0 1.69582,0.20603 2.36146,0.6181c0.66565,0.4015 1.18341,0.96677 1.55318,1.69582c0.36987,0.72904 0.55471,1.5796 0.55471,2.55165c0,0.99319 -0.18484,1.84905 -0.55471,2.5675c-0.36977,0.71844 -0.89278,1.27315 -1.56903,1.66412c-0.67615,0.39097 -1.47393,0.5864 -2.39316,0.5864zM97.3098,182.63089c0.65515,0 1.17281,-0.25883 1.55318,-0.77659c0.39097,-0.52829 0.5864,-1.22563 0.5864,-2.09204c0,-0.87696 -0.19543,-1.57431 -0.5864,-2.09204c-0.38037,-0.51773 -0.89803,-0.77659 -1.55318,-0.77659c-0.67615,0 -1.20976,0.25886 -1.60072,0.77659c-0.39087,0.51773 -0.5864,1.21507 -0.5864,2.09204c0,0.8664 0.19553,1.56375 0.5864,2.09204c0.39097,0.51776 0.92458,0.77659 1.60072,0.77659zM104.82062,174.865c0.33817,0 0.56531,0.13736 0.6815,0.41207c0.12679,0.27471 0.19019,0.6815 0.19019,1.22035c0,0.12679 -0.0105,0.26415 -0.0317,0.41207c-0.0105,0.13736 -0.0317,0.26415 -0.0634,0.38037l-0.0317,-0.31698c0.25358,-0.68678 0.64455,-1.22035 1.17281,-1.60072c0.52836,-0.39094 1.08831,-0.5864 1.67997,-0.5864c0.65515,0 1.19926,0.18491 1.63242,0.55471c0.44377,0.3698 0.77134,0.88753 0.98262,1.55318c0.22188,0.66565 0.33282,1.45281 0.33282,2.36146c0,0.55999 -0.02635,1.11469 -0.07924,1.66412c-0.0422,0.53886 -0.10559,1.03542 -0.19019,1.48978c-0.07389,0.44377 -0.15849,0.80829 -0.25358,1.09356c-0.12679,0.35927 -0.29053,0.6287 -0.49131,0.80829c-0.20068,0.16909 -0.43842,0.25358 -0.71319,0.25358c-0.27468,0 -0.48596,-0.10034 -0.63395,-0.30113c-0.14789,-0.20078 -0.22188,-0.47021 -0.22188,-0.80829c0,-0.35927 0.02645,-0.79244 0.07924,-1.2996c0.0529,-0.51773 0.10044,-1.04074 0.14264,-1.56903c0.0529,-0.53886 0.07924,-1.02489 0.07924,-1.45809c0,-1.47921 -0.48596,-2.21883 -1.45809,-2.21883c-0.51766,0 -0.95093,0.23245 -1.2996,0.69735c-0.34867,0.45433 -0.58105,1.10413 -0.69735,1.9494c-0.0317,0.28528 -0.04755,0.63923 -0.04755,1.06187c0,0.42264 0,0.84526 0,1.2679c0.0106,0.41207 0,0.76074 -0.0317,1.04602c-0.0422,0.63395 -0.16374,1.08831 -0.36452,1.36299c-0.19019,0.27468 -0.45426,0.41207 -0.79244,0.41207c-0.39087,0 -0.68675,-0.17959 -0.88753,-0.53886c-0.20068,-0.36977 -0.30113,-0.98787 -0.30113,-1.8543c0,-0.44377 0.0106,-0.94036 0.0317,-1.48978c0.0212,-0.54943 0.04755,-1.09884 0.07924,-1.64827c0.0423,-0.55999 0.08984,-1.06715 0.14264,-1.52148c0.10569,-0.85583 0.25893,-1.53205 0.45961,-2.02864c0.20078,-0.50716 0.50191,-0.76074 0.90338,-0.76074zM115.97369,175.18198h-0.31698c-0.0317,-0.46489 -0.0211,-0.90338 0.0317,-1.31545c0.0529,-0.42264 0.16384,-0.76074 0.33282,-1.01432c0.17969,-0.26415 0.43327,-0.39622 0.76074,-0.39622c0.29588,0 0.51251,0.09509 0.6498,0.28528c0.13739,0.19019 0.20603,0.45434 0.20603,0.79244c0,0.66565 -0.12679,1.2362 -0.38037,1.71167l-0.28528,-0.0317c0.57056,-0.20075 1.2151,-0.30113 1.93355,-0.30113c0.45436,0 0.81364,0.08981 1.07772,0.26943c0.27478,0.16906 0.41207,0.45961 0.41207,0.87168c0,0.39094 -0.15849,0.68678 -0.47546,0.88753c-0.31698,0.20075 -0.71319,0.30113 -1.18866,0.30113c-0.28528,0 -0.59165,-0.01057 -0.91923,-0.0317c-0.31698,-0.0317 -0.6286,-0.07924 -0.93508,-0.14264l0.26943,-0.33282c0.09509,0.4015 0.18494,0.86111 0.26943,1.37884c0.09509,0.50716 0.17969,1.03545 0.25358,1.58488c0.07399,0.54943 0.13214,1.08299 0.17434,1.60072c0.0423,0.51776 0.0634,0.98262 0.0634,1.39469c0,0.67625 -0.10559,1.20976 -0.31698,1.60072c-0.21128,0.39097 -0.52301,0.5864 -0.93508,0.5864c-0.32747,0 -0.5864,-0.10034 -0.77659,-0.30113c-0.17959,-0.20078 -0.31163,-0.45436 -0.39622,-0.76074c-0.07389,-0.31698 -0.12144,-0.64455 -0.14264,-0.98262c-0.0105,-0.33807 -0.01585,-0.64455 -0.01585,-0.91923c0,-0.46489 0.0212,-0.9879 0.0634,-1.56903c0.0423,-0.59168 0.10044,-1.19923 0.17434,-1.82261c0.08459,-0.62338 0.17969,-1.22563 0.28528,-1.80676l0.31698,0.26943c-0.53886,0.27471 -1.20451,0.41207 -1.99694,0.41207c-0.48596,0 -0.86108,-0.08981 -1.12526,-0.26943c-0.26408,-0.17962 -0.39622,-0.45961 -0.39622,-0.83998c0,-0.41207 0.14799,-0.72904 0.44377,-0.95093c0.29588,-0.23245 0.6921,-0.34867 1.18866,-0.34867c0.32757,0 0.63395,0.02113 0.91923,0.0634c0.29588,0.0317 0.55471,0.07396 0.77659,0.12679zM125.38042,184.77048c-0.84523,0 -1.58488,-0.18494 -2.21883,-0.55471c-0.62335,-0.38037 -1.10941,-0.91923 -1.45809,-1.61657c-0.33807,-0.69735 -0.50716,-1.52676 -0.50716,-2.48825c0,-1.00375 0.17434,-1.88072 0.52301,-2.63089c0.34867,-0.75017 0.83998,-1.33658 1.47393,-1.75921c0.64455,-0.42264 1.38944,-0.63395 2.23467,-0.63395c0.90873,0 1.69582,0.20603 2.36146,0.6181c0.66565,0.4015 1.18341,0.96677 1.55318,1.69582c0.36987,0.72904 0.55471,1.5796 0.55471,2.55165c0,0.99319 -0.18484,1.84905 -0.55471,2.5675c-0.36977,0.71844 -0.89278,1.27315 -1.56903,1.66412c-0.67615,0.39097 -1.47393,0.5864 -2.39316,0.5864zM125.6023,182.63089c0.65515,0 1.17281,-0.25883 1.55318,-0.77659c0.39097,-0.52829 0.5864,-1.22563 0.5864,-2.09204c0,-0.87696 -0.19543,-1.57431 -0.5864,-2.09204c-0.38037,-0.51773 -0.89803,-0.77659 -1.55318,-0.77659c-0.67615,0 -1.20976,0.25886 -1.60072,0.77659c-0.39087,0.51773 -0.5864,1.21507 -0.5864,2.09204c0,0.8664 0.19553,1.56375 0.5864,2.09204c0.39097,0.51776 0.92458,0.77659 1.60072,0.77659zM133.12897,172.17071c0.33817,0 0.57056,0.13207 0.69735,0.39622c0.13739,0.26415 0.20603,0.66037 0.20603,1.18866c0,0.45433 -0.02635,1.02489 -0.07924,1.71167c-0.0528,0.68678 -0.12144,1.34714 -0.20603,1.98109h-0.09509c0.34867,-0.65508 0.79779,-1.18338 1.34714,-1.58488c0.54946,-0.4015 1.13061,-0.60225 1.74336,-0.60225c0.53886,0 1.01967,0.13207 1.44224,0.39622c0.42267,0.25358 0.76609,0.65508 1.03017,1.20451c0.24308,0.49659 0.42267,1.08828 0.53886,1.77506c0.11629,0.67622 0.17434,1.32073 0.17434,1.93355c0,0.98262 -0.06864,1.76446 -0.20603,2.34562c-0.12679,0.58115 -0.30638,1.00372 -0.53886,1.2679c-0.23238,0.25358 -0.50716,0.38037 -0.82414,0.38037c-0.66565,0 -0.99847,-0.54411 -0.99847,-1.63242c0,-0.52826 0.02645,-1.07247 0.07924,-1.63242c0.0634,-0.55999 0.09509,-1.07244 0.09509,-1.53733c0,-0.79244 -0.12679,-1.38412 -0.38037,-1.77506c-0.24298,-0.4015 -0.5969,-0.60225 -1.06187,-0.60225c-0.58105,0 -1.05127,0.25886 -1.41054,0.77659c-0.35917,0.51773 -0.53886,1.23092 -0.53886,2.13958c0,0.47546 0.0423,0.99847 0.12679,1.56903c0.08459,0.55996 0.12679,1.07247 0.12679,1.53733c0,0.51776 -0.10034,0.89278 -0.30113,1.12526c-0.19019,0.22188 -0.43842,0.33282 -0.74489,0.33282c-0.23238,0 -0.43842,-0.04755 -0.6181,-0.14264c-0.16899,-0.08449 -0.31698,-0.25883 -0.44377,-0.52301c-0.11619,-0.27468 -0.21653,-0.6815 -0.30113,-1.22035c-0.0634,-0.41207 -0.12679,-0.89278 -0.19019,-1.44224c-0.0634,-0.54943 -0.11619,-1.12526 -0.15849,-1.72751c-0.0422,-0.60225 -0.07924,-1.18866 -0.11094,-1.75921c-0.0211,-0.58112 -0.0317,-1.10941 -0.0317,-1.58488c0,-1.50035 0.14264,-2.58863 0.42792,-3.26484c0.28528,-0.68678 0.68685,-1.03017 1.20451,-1.03017zM146.16447,184.88142c-0.19019,0 -0.34342,-0.0634 -0.45961,-0.19019c-0.11619,-0.13739 -0.21128,-0.35392 -0.28528,-0.6498c-0.07399,-0.33807 -0.14264,-0.86643 -0.20603,-1.58488c-0.0634,-0.72904 -0.09509,-1.54261 -0.09509,-2.44071c0,-0.97205 0.02645,-1.9177 0.07924,-2.83693c0.0634,-0.9298 0.15324,-1.74864 0.26943,-2.45656c0.08449,-0.46489 0.20603,-0.80829 0.36452,-1.03017c0.16909,-0.23245 0.40147,-0.34867 0.69735,-0.34867c0.19019,0 0.35927,0.0634 0.50716,0.19019c0.14789,0.12679 0.25883,0.35395 0.33282,0.6815c0.08449,0.32754 0.12679,0.79244 0.12679,1.39469c0,0.29585 -0.0106,0.63395 -0.0317,1.01432c-0.0211,0.3698 -0.0528,0.78187 -0.09509,1.2362h0.0634c0.84523,-1.16224 1.59013,-2.08676 2.23467,-2.77353c0.64455,-0.69735 1.20976,-1.19923 1.69582,-1.50563c0.49656,-0.30641 0.92983,-0.45961 1.2996,-0.45961c0.29588,0 0.51776,0.09509 0.66565,0.28528c0.15849,0.19019 0.23773,0.42264 0.23773,0.69735c0,0.58112 -0.43852,1.27847 -1.31545,2.09204c-0.86643,0.81357 -2.26637,1.79091 -4.19992,2.93202l0.12679,-0.30113c1.66937,1.05659 2.93202,1.99166 3.78785,2.80523c0.85583,0.80304 1.28375,1.51623 1.28375,2.13958c0,0.27468 -0.08984,0.50191 -0.26943,0.6815c-0.16909,0.16909 -0.42267,0.25358 -0.76074,0.25358c-0.42267,0 -0.87168,-0.14264 -1.34714,-0.42792c-0.47546,-0.29588 -1.00372,-0.78719 -1.58488,-1.47393c-0.57056,-0.69735 -1.22035,-1.64299 -1.9494,-2.83693h-0.0634c0.0211,0.24301 0.03695,0.49659 0.04755,0.76074c0.0106,0.25358 0.01585,0.50716 0.01585,0.76074c0,1.2151 -0.08449,2.08679 -0.25358,2.61504c-0.16909,0.51776 -0.47546,0.77659 -0.91923,0.77659zM159.35143,184.84972c-1.17281,0 -2.10788,-0.17434 -2.80523,-0.52301c-0.69735,-0.34867 -1.19926,-0.85058 -1.50563,-1.50563c-0.30648,-0.65505 -0.45961,-1.43696 -0.45961,-2.34562c0,-1.15168 0.21128,-2.12901 0.63395,-2.93202c0.43317,-0.81357 1.02482,-1.43696 1.77506,-1.87015c0.76064,-0.4332 1.62182,-0.6498 2.58335,-0.6498c1.13051,0 1.9599,0.26415 2.48825,0.79244c0.52826,0.51773 0.79244,1.19923 0.79244,2.04449c0,0.67622 -0.17969,1.26262 -0.53896,1.75921c-0.34857,0.48603 -0.83464,0.86111 -1.45799,1.12526c-0.62345,0.26415 -1.34189,0.39622 -2.15543,0.39622c-0.45436,0 -0.89288,-0.05812 -1.31545,-0.17434c-0.42267,-0.11622 -0.80304,-0.27471 -1.14111,-0.47546l0.38037,-0.69735c-0.0317,0.25358 -0.04755,0.50716 -0.04755,0.76074c0,0.73961 0.23238,1.27315 0.69735,1.60072c0.46486,0.31698 1.12526,0.47546 1.98109,0.47546c0.66565,0 1.19916,-0.05815 1.60072,-0.17434c0.40147,-0.11619 0.73954,-0.22713 1.01422,-0.33282c0.27478,-0.11619 0.54421,-0.17434 0.80829,-0.17434c0.14799,0 0.28003,0.0423 0.39632,0.12679c0.12679,0.07399 0.22713,0.18494 0.30113,0.33282c0.08449,0.14789 0.12679,0.32757 0.12679,0.53886c0,0.31698 -0.15849,0.62335 -0.47546,0.91923c-0.31698,0.28528 -0.78719,0.52301 -1.41054,0.71319c-0.61285,0.17959 -1.36834,0.26943 -2.26637,0.26943zM158.4322,179.66718c0.75014,0 1.35239,-0.15849 1.80676,-0.47546c0.45426,-0.31698 0.6815,-0.70791 0.6815,-1.17281c0,-0.3698 -0.12679,-0.67093 -0.38037,-0.90338c-0.24308,-0.24301 -0.6287,-0.36452 -1.15696,-0.36452c-0.49666,0 -0.94568,0.09509 -1.34714,0.28528c-0.39097,0.17962 -0.69735,0.41735 -0.91923,0.71319c-0.22188,0.29585 -0.33282,0.6181 -0.33282,0.96677c0,0.30641 0.14264,0.54414 0.42792,0.71319c0.29578,0.15849 0.7026,0.23773 1.22035,0.23773zM166.60828,184.75463c-0.32757,0 -0.5864,-0.07399 -0.77659,-0.22188c-0.19019,-0.15849 -0.34342,-0.41732 -0.45961,-0.77659c-0.15849,-0.52826 -0.28003,-1.19391 -0.36452,-1.99694c-0.07399,-0.81357 -0.11094,-1.81204 -0.11094,-2.99541c0,-0.72904 0.02635,-1.45809 0.07924,-2.18713c0.0634,-0.73961 0.14264,-1.41054 0.23773,-2.01279c0.09509,-0.61282 0.19543,-1.08828 0.30113,-1.42639c0.11619,-0.35924 0.25358,-0.60754 0.41207,-0.74489c0.15849,-0.13736 0.33807,-0.20603 0.53886,-0.20603c0.21128,0 0.38037,0.07396 0.50716,0.22188c0.12679,0.13736 0.22713,0.38565 0.30113,0.74489c0.0634,0.34867 0.11094,0.77659 0.14264,1.28375c0.0422,0.50716 0.0634,1.0513 0.0634,1.63242c0,0.79244 -0.03705,1.62714 -0.11094,2.5041c-0.07399,0.87696 -0.17434,1.73808 -0.30113,2.58335c-0.11629,0.84523 -0.25893,1.62182 -0.42792,2.32977l-0.44377,-0.22188c0.27468,-0.33807 0.5864,-0.60225 0.93508,-0.79244c0.35917,-0.19019 0.68675,-0.28528 0.98262,-0.28528c0.24298,0 0.42792,0.06864 0.55471,0.20603c0.13729,0.12679 0.20603,0.32757 0.20603,0.60225c0,0.27468 -0.12154,0.54946 -0.36452,0.82414c-0.23248,0.27468 -0.52301,0.50191 -0.87168,0.6815c-0.34867,0.16909 -0.6921,0.25358 -1.03017,0.25358zM171.70831,172.56693c0.42267,0 0.72379,0.11622 0.90338,0.34867c0.19019,0.23245 0.28528,0.50188 0.28528,0.80829c0,0.38037 -0.11619,0.67622 -0.34867,0.88753c-0.22188,0.20075 -0.53886,0.30113 -0.95093,0.30113c-0.40147,0 -0.7026,-0.11094 -0.90338,-0.33282c-0.20068,-0.23245 -0.30113,-0.50188 -0.30113,-0.80829c0,-0.4015 0.12154,-0.70262 0.36452,-0.90338c0.24308,-0.20075 0.56006,-0.30113 0.95093,-0.30113zM171.8034,176.10121c0.33817,0 0.60225,0.31698 0.79244,0.95093c0.20078,0.63395 0.30113,1.64299 0.30113,3.02711c0,1.70107 -0.12144,2.92677 -0.36452,3.67691c-0.24298,0.75014 -0.61275,1.12526 -1.10941,1.12526c-0.38037,0 -0.6603,-0.27468 -0.83998,-0.82414c-0.17959,-0.55996 -0.26943,-1.53208 -0.26943,-2.91617c0,-1.7011 0.13739,-2.96372 0.41207,-3.78785c0.28528,-0.8347 0.64455,-1.25205 1.07772,-1.25205zM176.54466,184.75463c-0.32747,0 -0.5864,-0.07399 -0.77659,-0.22188c-0.19019,-0.15849 -0.34332,-0.41732 -0.45961,-0.77659c-0.15849,-0.52826 -0.27993,-1.19391 -0.36452,-1.99694c-0.07389,-0.81357 -0.11094,-1.81204 -0.11094,-2.99541c0,-0.72904 0.02645,-1.45809 0.07924,-2.18713c0.0634,-0.73961 0.14264,-1.41054 0.23773,-2.01279c0.09509,-0.61282 0.19553,-1.08828 0.30113,-1.42639c0.11629,-0.35924 0.25358,-0.60754 0.41207,-0.74489c0.15849,-0.13736 0.33817,-0.20603 0.53886,-0.20603c0.21138,0 0.38037,0.07396 0.50716,0.22188c0.12679,0.13736 0.22723,0.38565 0.30113,0.74489c0.0634,0.34867 0.11094,0.77659 0.14264,1.28375c0.0423,0.50716 0.0634,1.0513 0.0634,1.63242c0,0.79244 -0.03695,1.62714 -0.11094,2.5041c-0.07389,0.87696 -0.17434,1.73808 -0.30113,2.58335c-0.11619,0.84523 -0.25883,1.62182 -0.42792,2.32977l-0.44377,-0.22188c0.27478,-0.33807 0.5864,-0.60225 0.93508,-0.79244c0.35927,-0.19019 0.68685,-0.28528 0.98262,-0.28528c0.24308,0 0.42792,0.06864 0.55471,0.20603c0.13739,0.12679 0.20603,0.32757 0.20603,0.60225c0,0.27468 -0.12144,0.54946 -0.36452,0.82414c-0.23238,0.27468 -0.52301,0.50191 -0.87168,0.6815c-0.34867,0.16909 -0.692,0.25358 -1.03017,0.25358zM181.64439,172.56693c0.42296,0 0.72409,0.11622 0.90338,0.34867c0.19019,0.23245 0.28528,0.50188 0.28528,0.80829c0,0.38037 -0.11589,0.67622 -0.34867,0.88753c-0.22188,0.20075 -0.53886,0.30113 -0.95093,0.30113c-0.40117,0 -0.7023,-0.11094 -0.90298,-0.33282c-0.20078,-0.23245 -0.30113,-0.50188 -0.30113,-0.80829c0,-0.4015 0.12144,-0.70262 0.36452,-0.90338c0.24298,-0.20075 0.56025,-0.30113 0.95053,-0.30113zM181.73948,176.10121c0.33877,0 0.60225,0.31698 0.79244,0.95093c0.20108,0.63395 0.30113,1.64299 0.30113,3.02711c0,1.70107 -0.12085,2.92677 -0.36452,3.67691c-0.24268,0.75014 -0.61216,1.12526 -1.10941,1.12526c-0.37997,0 -0.66,-0.27468 -0.83959,-0.82414c-0.17969,-0.55996 -0.26943,-1.53208 -0.26943,-2.91617c0,-1.7011 0.13729,-2.96372 0.41207,-3.78785c0.28528,-0.8347 0.64445,-1.25205 1.07732,-1.25205zM186.38614,174.865c0.33778,0 0.5656,0.13736 0.6815,0.41207c0.12679,0.27471 0.19019,0.6815 0.19019,1.22035c0,0.12679 -0.0109,0.26415 -0.0317,0.41207c-0.0109,0.13736 -0.0317,0.26415 -0.0634,0.38037l-0.0317,-0.31698c0.25358,-0.68678 0.64485,-1.22035 1.17281,-1.60072c0.52796,-0.39094 1.08861,-0.5864 1.67997,-0.5864c0.65475,0 1.19955,0.18491 1.63242,0.55471c0.44377,0.3698 0.77164,0.88753 0.98262,1.55318c0.22188,0.66565 0.33282,1.45281 0.33282,2.36146c0,0.55999 -0.02674,1.11469 -0.07924,1.66412c-0.04259,0.53886 -0.10599,1.03542 -0.19019,1.48978c-0.07429,0.44377 -0.15849,0.80829 -0.25358,1.09356c-0.12679,0.35927 -0.29023,0.6287 -0.49131,0.80829c-0.20108,0.16909 -0.43881,0.25358 -0.71319,0.25358c-0.27438,0 -0.48636,-0.10034 -0.63395,-0.30113c-0.14759,-0.20078 -0.22188,-0.47021 -0.22188,-0.80829c0,-0.35927 0.02674,-0.79244 0.07924,-1.2996c0.0525,-0.51773 0.10005,-1.04074 0.14264,-1.56903c0.0525,-0.53886 0.07924,-1.02489 0.07924,-1.45809c0,-1.47921 -0.48636,-2.21883 -1.45809,-2.21883c-0.51806,0 -0.95093,0.23245 -1.2996,0.69735c-0.34867,0.45433 -0.58145,1.10413 -0.69735,1.9494c-0.0317,0.28528 -0.04755,0.63923 -0.04755,1.06187c0,0.42264 0,0.84526 0,1.2679c0.0109,0.41207 0,0.76074 -0.0317,1.04602c-0.04259,0.63395 -0.16344,1.08831 -0.36452,1.36299c-0.19019,0.27468 -0.45466,0.41207 -0.79244,0.41207c-0.39127,0 -0.68645,-0.17959 -0.88753,-0.53886c-0.20108,-0.36977 -0.30113,-0.98787 -0.30113,-1.8543c0,-0.44377 0.0109,-0.94036 0.0317,-1.48978c0.0208,-0.54943 0.04755,-1.09884 0.07924,-1.64827c0.04259,-0.55999 0.09014,-1.06715 0.14264,-1.52148c0.10599,-0.85583 0.25853,-1.53205 0.45961,-2.02864c0.20108,-0.50716 0.50221,-0.76074 0.90338,-0.76074zM197.88738,184.46935c-0.99253,0 -1.80081,-0.38037 -2.42486,-1.14111c-0.62305,-0.77134 -0.93508,-1.93883 -0.93508,-3.50257c0,-1.6694 0.30113,-2.88975 0.90338,-3.66106c0.60225,-0.77131 1.39469,-1.15696 2.37731,-1.15696c0.58145,0 1.09356,0.14792 1.53733,0.44377c0.44377,0.29585 0.82414,0.71319 1.14111,1.25205l-0.12679,0.22188c-0.0317,-0.14792 -0.05745,-0.30641 -0.07924,-0.47546c-0.0208,-0.16906 -0.0317,-0.29585 -0.0317,-0.38037c0,-0.4332 0.06934,-0.76602 0.20603,-0.99847c0.14858,-0.24301 0.37542,-0.36452 0.6815,-0.36452c0.33877,0 0.60225,0.13736 0.79244,0.41207c0.20108,0.27471 0.35462,0.66565 0.45961,1.17281c0.13769,0.51773 0.25358,1.17809 0.34867,1.98109c0.09509,0.79244 0.14264,1.59544 0.14264,2.40901c0,1.01432 -0.03665,1.8649 -0.11094,2.55165c-0.0733,0.68675 -0.19514,1.2573 -0.36452,1.71167c-0.16839,0.45436 -0.39028,0.85058 -0.66565,1.18866c-0.45367,0.54946 -1.04007,0.96677 -1.75921,1.25205c-0.70725,0.29588 -1.52643,0.44377 -2.45656,0.44377c-0.66565,0 -1.19856,-0.0634 -1.60072,-0.19019c-0.40117,-0.11619 -0.6914,-0.28003 -0.87168,-0.49131c-0.16839,-0.20078 -0.25358,-0.42792 -0.25358,-0.6815c0,-0.26418 0.07429,-0.48606 0.22188,-0.66565c0.14858,-0.16909 0.37046,-0.25358 0.66565,-0.25358c0.26448,0 0.57056,0.0423 0.91923,0.12679c0.35957,0.08449 0.78253,0.12679 1.2679,0.12679c1.02522,0 1.74931,-0.24298 2.17128,-0.72904c0.43386,-0.47546 0.6498,-1.16221 0.6498,-2.06034c0,-0.24298 -0.01585,-0.52826 -0.04755,-0.85583l0.22188,0.07924c-0.26349,0.67625 -0.65475,1.22035 -1.17281,1.63242c-0.51707,0.40147 -1.11932,0.60225 -1.80676,0.60225zM198.48963,182.51995c0.33877,0 0.67654,-0.08984 1.01432,-0.26943c0.33877,-0.17959 0.6181,-0.47546 0.83998,-0.88753c0.22188,-0.41207 0.33282,-0.96677 0.33282,-1.66412c0,-0.8347 -0.19514,-1.5162 -0.5864,-2.04449c-0.39028,-0.52829 -0.94003,-0.79244 -1.64827,-0.79244c-0.61216,0 -1.06187,0.23245 -1.34714,0.69735c-0.28528,0.46489 -0.42792,1.16753 -0.42792,2.10788c0,0.8981 0.14264,1.60072 0.42792,2.10788c0.28528,0.49656 0.75083,0.74489 1.39469,0.74489zM211.07553,184.80217c-0.65475,0 -1.19856,-0.12154 -1.63242,-0.36452c-0.42197,-0.25358 -0.73895,-0.6392 -0.95093,-1.15696c-0.14759,-0.35927 -0.25853,-0.79244 -0.33282,-1.2996c-0.0634,-0.51773 -0.09509,-1.10941 -0.09509,-1.77506c0,-1.14111 0.03764,-2.08147 0.11094,-2.82108c0.07429,-0.75017 0.18028,-1.35242 0.31698,-1.80676c0.14858,-0.46489 0.31202,-0.83998 0.49131,-1.12526c0.28528,-0.4332 0.73994,-0.78187 1.36299,-1.04602c0.62404,-0.26415 1.50563,-0.39622 2.64674,-0.39622c0.76074,0 1.36894,0.11622 1.82261,0.34867c0.46556,0.22188 0.79838,0.51773 0.99847,0.88753c0.21198,0.3698 0.31698,0.78187 0.31698,1.2362c0,0.71847 -0.21099,1.31017 -0.63395,1.77506c-0.42197,0.46489 -0.97668,0.8347 -1.66412,1.10941v0.0634c0.75083,0.08452 1.3313,0.32754 1.74336,0.72904c0.42296,0.39094 0.63395,0.95093 0.63395,1.67997c0,0.58112 -0.14759,1.11466 -0.44377,1.60072c-0.28528,0.47546 -0.67555,0.89278 -1.17281,1.25205c-0.48537,0.34867 -1.03512,0.62335 -1.64827,0.82414c-0.61216,0.19019 -1.2362,0.28528 -1.87015,0.28528zM211.56684,182.90032c0.50716,0 0.95687,-0.08449 1.34714,-0.25358c0.40216,-0.16909 0.71319,-0.39622 0.93508,-0.6815c0.23278,-0.29585 0.34867,-0.62867 0.34867,-0.99847c0,-0.4015 -0.19514,-0.73432 -0.5864,-0.99847c-0.38037,-0.27471 -0.97668,-0.41207 -1.79091,-0.41207c-0.54876,0 -0.98758,0.13207 -1.31545,0.39622c-0.31698,0.25358 -0.47546,0.69207 -0.47546,1.31545c0,0.59165 0.12679,1.01432 0.38037,1.2679c0.25358,0.24298 0.63989,0.36452 1.15696,0.36452zM211.63023,177.87627c0.71914,0 1.31545,-0.15849 1.79091,-0.47546c0.48636,-0.32754 0.72904,-0.75017 0.72904,-1.2679c0,-0.38037 -0.15254,-0.68678 -0.45961,-0.91923c-0.30608,-0.23245 -0.7548,-0.34867 -1.34714,-0.34867c-0.64386,0 -1.17281,0.12679 -1.58488,0.38037c-0.41207,0.25358 -0.6181,0.68678 -0.6181,1.2996c0,0.49659 0.13273,0.84526 0.39622,1.04602c0.27537,0.19019 0.63989,0.28528 1.09356,0.28528zM224.89465,184.88142c-0.35957,0 -0.6082,-0.13739 -0.74489,-0.41207c-0.12679,-0.28528 -0.20108,-0.73429 -0.22188,-1.34714l0.15849,0.07924c-0.59235,1.15171 -1.71167,1.72751 -3.35994,1.72751c-0.75083,0 -1.37389,-0.13204 -1.87015,-0.39622c-0.49725,-0.27468 -0.86673,-0.63395 -1.10941,-1.07772c-0.23278,-0.45436 -0.34867,-0.94568 -0.34867,-1.47393c0,-0.90866 0.31698,-1.62714 0.95093,-2.15543c0.63395,-0.53886 1.47393,-0.80829 2.51995,-0.80829c0.68645,0 1.28375,0.10037 1.79091,0.30113c0.50716,0.20075 0.94003,0.48074 1.2996,0.83998l-0.26943,-0.0317c-0.07429,-1.06715 -0.30707,-1.82789 -0.69735,-2.28222c-0.38037,-0.46489 -0.92517,-0.69735 -1.63242,-0.69735c-0.41207,0 -0.79244,0.0634 -1.14111,0.19019c-0.34867,0.12679 -0.67159,0.25886 -0.96677,0.39622c-0.28528,0.12679 -0.55471,0.19019 -0.80829,0.19019c-0.25358,0 -0.45466,-0.08452 -0.60225,-0.25358c-0.13769,-0.16906 -0.20603,-0.38565 -0.20603,-0.6498c0,-0.38037 0.17929,-0.73961 0.53886,-1.07772c0.36947,-0.3381 0.85583,-0.61282 1.45809,-0.82414c0.60225,-0.21131 1.257,-0.31698 1.96525,-0.31698c0.85583,0 1.58983,0.20603 2.20298,0.6181c0.61216,0.41207 1.07772,1.01432 1.39469,1.80676c0.27438,0.67622 0.46952,1.43167 0.5864,2.26637c0.11589,0.8347 0.17335,1.72751 0.17335,2.67844c0,0.71844 -0.03665,1.27315 -0.10995,1.66412c-0.07429,0.39097 -0.19019,0.66565 -0.34867,0.82414c-0.14858,0.14789 -0.34867,0.22188 -0.60225,0.22188zM221.39208,183.10636c0.34867,0 0.7023,-0.04755 1.06187,-0.14264c0.35858,-0.10569 0.6597,-0.25883 0.90338,-0.45961c0.24268,-0.20078 0.36452,-0.44902 0.36452,-0.74489c0,-0.25358 -0.10599,-0.45961 -0.31698,-0.6181c-0.20108,-0.16906 -0.47051,-0.29585 -0.80829,-0.38037c-0.32787,-0.08452 -0.6815,-0.12679 -1.06187,-0.12679c-0.64485,0 -1.13616,0.11094 -1.47393,0.33282c-0.32787,0.22188 -0.49131,0.51773 -0.49131,0.88753c0,0.40147 0.15254,0.71319 0.45961,0.93508c0.31698,0.21128 0.77065,0.31698 1.36299,0.31698zM229.50565,174.865c0.33778,0 0.5656,0.13736 0.6815,0.41207c0.12679,0.27471 0.19019,0.6815 0.19019,1.22035c0,0.12679 -0.0109,0.26415 -0.0317,0.41207c-0.0109,0.13736 -0.0317,0.26415 -0.0634,0.38037l-0.0317,-0.31698c0.25358,-0.68678 0.64485,-1.22035 1.17281,-1.60072c0.52796,-0.39094 1.08861,-0.5864 1.67997,-0.5864c0.65475,0 1.19955,0.18491 1.63242,0.55471c0.44377,0.3698 0.77164,0.88753 0.98262,1.55318c0.22188,0.66565 0.33282,1.45281 0.33282,2.36146c0,0.55999 -0.02674,1.11469 -0.07924,1.66412c-0.04259,0.53886 -0.10599,1.03542 -0.19019,1.48978c-0.07429,0.44377 -0.15849,0.80829 -0.25358,1.09356c-0.12679,0.35927 -0.29023,0.6287 -0.49131,0.80829c-0.20108,0.16909 -0.43881,0.25358 -0.71319,0.25358c-0.27438,0 -0.48636,-0.10034 -0.63395,-0.30113c-0.14759,-0.20078 -0.22188,-0.47021 -0.22188,-0.80829c0,-0.35927 0.02674,-0.79244 0.07924,-1.2996c0.0525,-0.51773 0.10005,-1.04074 0.14264,-1.56903c0.0525,-0.53886 0.07924,-1.02489 0.07924,-1.45809c0,-1.47921 -0.48636,-2.21883 -1.45809,-2.21883c-0.51806,0 -0.95093,0.23245 -1.2996,0.69735c-0.34867,0.45433 -0.58145,1.10413 -0.69735,1.9494c-0.0317,0.28528 -0.04755,0.63923 -0.04755,1.06187c0,0.42264 0,0.84526 0,1.2679c0.0109,0.41207 0,0.76074 -0.0317,1.04602c-0.04259,0.63395 -0.16344,1.08831 -0.36452,1.36299c-0.19019,0.27468 -0.45466,0.41207 -0.79244,0.41207c-0.39127,0 -0.68645,-0.17959 -0.88753,-0.53886c-0.20108,-0.36977 -0.30113,-0.98787 -0.30113,-1.8543c0,-0.44377 0.0109,-0.94036 0.0317,-1.48978c0.0208,-0.54943 0.04755,-1.09884 0.07924,-1.64827c0.04259,-0.55999 0.09014,-1.06715 0.14264,-1.52148c0.10599,-0.85583 0.25853,-1.53205 0.45961,-2.02864c0.20108,-0.50716 0.50221,-0.76074 0.90338,-0.76074zM241.00788,184.46935c-0.99352,0 -1.80181,-0.38037 -2.42486,-1.14111c-0.62404,-0.77134 -0.93508,-1.93883 -0.93508,-3.50257c0,-1.6694 0.30113,-2.88975 0.90338,-3.66106c0.60225,-0.77131 1.39469,-1.15696 2.37731,-1.15696c0.58046,0 1.09356,0.14792 1.53733,0.44377c0.44377,0.29585 0.82414,0.71319 1.14111,1.25205l-0.12679,0.22188c-0.0317,-0.14792 -0.05844,-0.30641 -0.07924,-0.47546c-0.02179,-0.16906 -0.0317,-0.29585 -0.0317,-0.38037c0,-0.4332 0.06835,-0.76602 0.20603,-0.99847c0.14759,-0.24301 0.37443,-0.36452 0.6815,-0.36452c0.33778,0 0.60225,0.13736 0.79244,0.41207c0.20009,0.27471 0.35363,0.66565 0.45961,1.17281c0.1367,0.51773 0.25358,1.17809 0.34867,1.98109c0.09509,0.79244 0.14264,1.59544 0.14264,2.40901c0,1.01432 -0.03764,1.8649 -0.11094,2.55165c-0.07429,0.68675 -0.19613,1.2573 -0.36452,1.71167c-0.16938,0.45436 -0.39127,0.85058 -0.66565,1.18866c-0.45466,0.54946 -1.04107,0.96677 -1.75921,1.25205c-0.70824,0.29588 -1.52742,0.44377 -2.45656,0.44377c-0.66565,0 -1.19955,-0.0634 -1.60072,-0.19019c-0.40216,-0.11619 -0.69239,-0.28003 -0.87168,-0.49131c-0.16938,-0.20078 -0.25358,-0.42792 -0.25358,-0.6815c0,-0.26418 0.0733,-0.48606 0.22188,-0.66565c0.14759,-0.16909 0.36947,-0.25358 0.66565,-0.25358c0.26349,0 0.57056,0.0423 0.91923,0.12679c0.35858,0.08449 0.78154,0.12679 1.2679,0.12679c1.02423,0 1.74832,-0.24298 2.17128,-0.72904c0.43287,-0.47546 0.6498,-1.16221 0.6498,-2.06034c0,-0.24298 -0.01585,-0.52826 -0.04755,-0.85583l0.22188,0.07924c-0.26448,0.67625 -0.65574,1.22035 -1.17281,1.63242c-0.51806,0.40147 -1.12031,0.60225 -1.80676,0.60225zM241.61013,182.51995c0.33778,0 0.67555,-0.08984 1.01432,-0.26943c0.33778,-0.17959 0.6181,-0.47546 0.83998,-0.88753c0.22188,-0.41207 0.33282,-0.96677 0.33282,-1.66412c0,-0.8347 -0.19613,-1.5162 -0.5864,-2.04449c-0.39127,-0.52829 -0.94102,-0.79244 -1.64827,-0.79244c-0.61315,0 -1.06187,0.23245 -1.34714,0.69735c-0.28528,0.46489 -0.42792,1.16753 -0.42792,2.10788c0,0.8981 0.14264,1.60072 0.42792,2.10788c0.28528,0.49656 0.74984,0.74489 1.39469,0.74489zM255.06474,184.62784c-0.28528,0 -0.50716,-0.09509 -0.66565,-0.28528c-0.14858,-0.20078 -0.24863,-0.45436 -0.30113,-0.76074c-0.05349,-0.31698 -0.07924,-0.6498 -0.07924,-0.99847l0.07924,-0.0634c-0.10599,0.45436 -0.31202,0.84523 -0.6181,1.17281c-0.30707,0.32757 -0.66069,0.58115 -1.06187,0.76074c-0.40216,0.16909 -0.80333,0.25358 -1.20451,0.25358c-0.53886,0 -1.03017,-0.12679 -1.47393,-0.38037c-0.44377,-0.25358 -0.78749,-0.64455 -1.03017,-1.17281c-0.24367,-0.55996 -0.43386,-1.26265 -0.57056,-2.10788c-0.13769,-0.85583 -0.20603,-1.73279 -0.20603,-2.63089c0,-0.48603 0.0208,-0.93508 0.0634,-1.34714c0.0416,-0.41207 0.11094,-0.75017 0.20603,-1.01432c0.0842,-0.27471 0.21099,-0.47546 0.38037,-0.60225c0.16839,-0.13736 0.38532,-0.20603 0.6498,-0.20603c0.30608,0 0.54381,0.12151 0.71319,0.36452c0.17929,0.23245 0.29023,0.55999 0.33282,0.98262c0.0416,0.34867 0.06835,0.78187 0.07924,1.2996c0.0208,0.50716 0.03665,1.0196 0.04755,1.53733c0.0208,0.50716 0.04755,0.93508 0.07924,1.28375c0.0634,0.63395 0.22684,1.10416 0.49131,1.41054c0.26349,0.29588 0.5864,0.44377 0.96677,0.44377c0.55966,0 0.98758,-0.21128 1.28375,-0.63395c0.29518,-0.42264 0.44377,-1.01432 0.44377,-1.77506c0,-0.38037 -0.02179,-0.80829 -0.0634,-1.28375c-0.04259,-0.48603 -0.09014,-0.9562 -0.14264,-1.41054c-0.04259,-0.45433 -0.0634,-0.82941 -0.0634,-1.12526c0,-0.49659 0.0842,-0.85055 0.25358,-1.06187c0.16839,-0.22188 0.40117,-0.33282 0.69735,-0.33282c0.25358,0 0.46457,0.06867 0.63395,0.20603c0.17929,0.13736 0.32193,0.32754 0.42792,0.57056c0.14759,0.31698 0.27438,0.75017 0.38037,1.2996c0.105,0.54943 0.19019,1.17281 0.25358,1.87015c0.0634,0.69735 0.09509,1.43167 0.09509,2.20298c0,1.18341 -0.07924,2.07094 -0.23773,2.66259c-0.15849,0.58115 -0.43881,0.87168 -0.83998,0.87168zM259.68663,174.865c0.33778,0 0.5656,0.13736 0.6815,0.41207c0.12679,0.27471 0.19019,0.6815 0.19019,1.22035c0,0.12679 -0.0109,0.26415 -0.0317,0.41207c-0.0109,0.13736 -0.0317,0.26415 -0.0634,0.38037l-0.0317,-0.31698c0.25358,-0.68678 0.64485,-1.22035 1.17281,-1.60072c0.52796,-0.39094 1.08861,-0.5864 1.67997,-0.5864c0.65475,0 1.19955,0.18491 1.63242,0.55471c0.44377,0.3698 0.77164,0.88753 0.98262,1.55318c0.22188,0.66565 0.33282,1.45281 0.33282,2.36146c0,0.55999 -0.02674,1.11469 -0.07924,1.66412c-0.04259,0.53886 -0.10599,1.03542 -0.19019,1.48978c-0.07429,0.44377 -0.15849,0.80829 -0.25358,1.09356c-0.12679,0.35927 -0.29023,0.6287 -0.49131,0.80829c-0.20108,0.16909 -0.43881,0.25358 -0.71319,0.25358c-0.27438,0 -0.48636,-0.10034 -0.63395,-0.30113c-0.14759,-0.20078 -0.22188,-0.47021 -0.22188,-0.80829c0,-0.35927 0.02674,-0.79244 0.07924,-1.2996c0.0525,-0.51773 0.10005,-1.04074 0.14264,-1.56903c0.0525,-0.53886 0.07924,-1.02489 0.07924,-1.45809c0,-1.47921 -0.48636,-2.21883 -1.45809,-2.21883c-0.51806,0 -0.95093,0.23245 -1.2996,0.69735c-0.34867,0.45433 -0.58145,1.10413 -0.69735,1.9494c-0.0317,0.28528 -0.04755,0.63923 -0.04755,1.06187c0,0.42264 0,0.84526 0,1.2679c0.0109,0.41207 0,0.76074 -0.0317,1.04602c-0.04259,0.63395 -0.16344,1.08831 -0.36452,1.36299c-0.19019,0.27468 -0.45466,0.41207 -0.79244,0.41207c-0.39127,0 -0.68645,-0.17959 -0.88753,-0.53886c-0.20108,-0.36977 -0.30113,-0.98787 -0.30113,-1.8543c0,-0.44377 0.0109,-0.94036 0.0317,-1.48978c0.0208,-0.54943 0.04755,-1.09884 0.07924,-1.64827c0.04259,-0.55999 0.09014,-1.06715 0.14264,-1.52148c0.10599,-0.85583 0.25853,-1.53205 0.45961,-2.02864c0.20108,-0.50716 0.50221,-0.76074 0.90338,-0.76074zM273.5533,185.08745c-0.66565,0 -1.1837,-0.0423 -1.55318,-0.12679c-0.35957,-0.08449 -0.6082,-0.20078 -0.74489,-0.34867c-0.13769,-0.15849 -0.21198,-0.33282 -0.22188,-0.52301c0,-0.29588 0.17434,-0.54411 0.52301,-0.74489c0.35858,-0.20078 1.01432,-0.32757 1.96525,-0.38037l-0.25358,0.30113c-0.11688,-0.53886 -0.20108,-1.16756 -0.25358,-1.886c-0.05349,-0.71847 -0.07429,-1.46337 -0.0634,-2.23467c0.00991,-0.77131 0.04755,-1.50563 0.11094,-2.20298c0.0634,-0.70791 0.15254,-1.31017 0.26943,-1.80676l1.37884,-0.09509c-0.23278,0.09509 -0.52301,0.17962 -0.87168,0.25358c-0.34867,0.0634 -0.70824,0.09509 -1.07772,0.09509c-0.67654,0 -1.17875,-0.07396 -1.50563,-0.22188c-0.31698,-0.14792 -0.47546,-0.35395 -0.47546,-0.6181c0,-0.46489 0.27933,-0.82414 0.83998,-1.07772c0.57056,-0.26415 1.44224,-0.39622 2.61504,-0.39622c1.39469,0 2.5675,0.23245 3.51842,0.69735c0.96083,0.45433 1.68987,1.09356 2.18713,1.9177c0.49626,0.81357 0.74489,1.76449 0.74489,2.85278c0,0.95093 -0.16938,1.82789 -0.50716,2.63089c-0.33877,0.79244 -0.82414,1.48453 -1.45809,2.07619c-0.62404,0.58115 -1.37389,1.03542 -2.25052,1.36299c-0.86673,0.31698 -1.83846,0.47546 -2.91617,0.47546zM275.80382,182.64674c0.35858,0 0.73895,-0.14264 1.14111,-0.42792c0.41207,-0.29588 0.76074,-0.72376 1.04602,-1.28375c0.28528,-0.57056 0.42792,-1.27318 0.42792,-2.10788c0,-0.61282 -0.09014,-1.14639 -0.26943,-1.60072c-0.16938,-0.46489 -0.39127,-0.85055 -0.66565,-1.15696c-0.27537,-0.30641 -0.5656,-0.53358 -0.87168,-0.6815c-0.30707,-0.15849 -0.5973,-0.23773 -0.87168,-0.23773c-0.22188,0 -0.39622,0.13736 -0.52301,0.41207c-0.11688,0.27471 -0.20108,0.68678 -0.25358,1.2362c-0.05349,0.53886 -0.07924,1.20979 -0.07924,2.01279c0,1.24677 0.0634,2.1977 0.19019,2.85278c0.12679,0.65505 0.36947,0.98262 0.72904,0.98262zM289.35748,184.88142c-0.35957,0 -0.6082,-0.13739 -0.74489,-0.41207c-0.12679,-0.28528 -0.20108,-0.73429 -0.22188,-1.34714l0.15849,0.07924c-0.59235,1.15171 -1.71167,1.72751 -3.35994,1.72751c-0.75083,0 -1.37389,-0.13204 -1.87015,-0.39622c-0.49725,-0.27468 -0.86673,-0.63395 -1.10941,-1.07772c-0.23278,-0.45436 -0.34867,-0.94568 -0.34867,-1.47393c0,-0.90866 0.31698,-1.62714 0.95093,-2.15543c0.63395,-0.53886 1.47393,-0.80829 2.51995,-0.80829c0.68645,0 1.28375,0.10037 1.79091,0.30113c0.50716,0.20075 0.94003,0.48074 1.2996,0.83998l-0.26943,-0.0317c-0.07429,-1.06715 -0.30707,-1.82789 -0.69735,-2.28222c-0.38037,-0.46489 -0.92517,-0.69735 -1.63242,-0.69735c-0.41207,0 -0.79244,0.0634 -1.14111,0.19019c-0.34867,0.12679 -0.67159,0.25886 -0.96677,0.39622c-0.28528,0.12679 -0.55471,0.19019 -0.80829,0.19019c-0.25358,0 -0.45466,-0.08452 -0.60225,-0.25358c-0.13769,-0.16906 -0.20603,-0.38565 -0.20603,-0.6498c0,-0.38037 0.17929,-0.73961 0.53886,-1.07772c0.36947,-0.3381 0.85583,-0.61282 1.45809,-0.82414c0.60225,-0.21131 1.257,-0.31698 1.96525,-0.31698c0.85583,0 1.58983,0.20603 2.20298,0.6181c0.61216,0.41207 1.07772,1.01432 1.39469,1.80676c0.27438,0.67622 0.46952,1.43167 0.5864,2.26637c0.11589,0.8347 0.17434,1.72751 0.17434,2.67844c0,0.71844 -0.03764,1.27315 -0.11094,1.66412c-0.07429,0.39097 -0.19019,0.66565 -0.34867,0.82414c-0.14858,0.14789 -0.34867,0.22188 -0.60225,0.22188zM285.85491,183.10636c0.34867,0 0.7023,-0.04755 1.06187,-0.14264c0.35858,-0.10569 0.6597,-0.25883 0.90338,-0.45961c0.24268,-0.20078 0.36452,-0.44902 0.36452,-0.74489c0,-0.25358 -0.10599,-0.45961 -0.31698,-0.6181c-0.20108,-0.16906 -0.47051,-0.29585 -0.80829,-0.38037c-0.32787,-0.08452 -0.6815,-0.12679 -1.06187,-0.12679c-0.64485,0 -1.13616,0.11094 -1.47393,0.33282c-0.32787,0.22188 -0.49131,0.51773 -0.49131,0.88753c0,0.40147 0.15254,0.71319 0.45961,0.93508c0.31698,0.21128 0.77065,0.31698 1.36299,0.31698zM294.55092,175.18198h-0.31698c-0.0317,-0.46489 -0.0208,-0.90338 0.0317,-1.31545c0.0525,-0.42264 0.16344,-0.76074 0.33282,-1.01432c0.17929,-0.26415 0.43287,-0.39622 0.76074,-0.39622c0.29617,0 0.51211,0.09509 0.6498,0.28528c0.13769,0.19019 0.20603,0.45434 0.20603,0.79244c0,0.66565 -0.12679,1.2362 -0.38037,1.71167l-0.28528,-0.0317c0.57056,-0.20075 1.2154,-0.30113 1.93355,-0.30113c0.45466,0 0.81324,0.08981 1.07772,0.26943c0.27438,0.16906 0.41207,0.45961 0.41207,0.87168c0,0.39094 -0.15849,0.68678 -0.47546,0.88753c-0.31698,0.20075 -0.71319,0.30113 -1.18866,0.30113c-0.28528,0 -0.59136,-0.01057 -0.91923,-0.0317c-0.31698,-0.0317 -0.629,-0.07924 -0.93508,-0.14264l0.26943,-0.33282c0.09509,0.4015 0.18523,0.86111 0.26943,1.37884c0.09509,0.50716 0.17929,1.03545 0.25358,1.58488c0.07429,0.54943 0.13174,1.08299 0.17434,1.60072c0.04259,0.51776 0.0634,0.98262 0.0634,1.39469c0,0.67625 -0.10599,1.20976 -0.31698,1.60072c-0.21099,0.39097 -0.52301,0.5864 -0.93508,0.5864c-0.32787,0 -0.5864,-0.10034 -0.77659,-0.30113c-0.17929,-0.20078 -0.31202,-0.45436 -0.39622,-0.76074c-0.07429,-0.31698 -0.12184,-0.64455 -0.14264,-0.98262c-0.0109,-0.33807 -0.01585,-0.64455 -0.01585,-0.91923c0,-0.46489 0.0208,-0.9879 0.0634,-1.56903c0.04259,-0.59168 0.10005,-1.19923 0.17434,-1.82261c0.0842,-0.62338 0.17929,-1.22563 0.28528,-1.80676l0.31698,0.26943c-0.53886,0.27471 -1.20451,0.41207 -1.99694,0.41207c-0.48636,0 -0.86079,-0.08981 -1.12526,-0.26943c-0.26448,-0.17962 -0.39622,-0.45961 -0.39622,-0.83998c0,-0.41207 0.14759,-0.72904 0.44377,-0.95093c0.29617,-0.23245 0.69239,-0.34867 1.18866,-0.34867c0.32787,0 0.63395,0.02113 0.91923,0.0634c0.29617,0.0317 0.55471,0.07396 0.77659,0.12679zM307.18733,184.88142c-0.35957,0 -0.6082,-0.13739 -0.74489,-0.41207c-0.12679,-0.28528 -0.20108,-0.73429 -0.22188,-1.34714l0.15849,0.07924c-0.59235,1.15171 -1.71167,1.72751 -3.35994,1.72751c-0.75083,0 -1.37389,-0.13204 -1.87015,-0.39622c-0.49725,-0.27468 -0.86673,-0.63395 -1.10941,-1.07772c-0.23278,-0.45436 -0.34867,-0.94568 -0.34867,-1.47393c0,-0.90866 0.31698,-1.62714 0.95093,-2.15543c0.63395,-0.53886 1.47393,-0.80829 2.51995,-0.80829c0.68645,0 1.28375,0.10037 1.79091,0.30113c0.50716,0.20075 0.94003,0.48074 1.2996,0.83998l-0.26943,-0.0317c-0.07429,-1.06715 -0.30707,-1.82789 -0.69735,-2.28222c-0.38037,-0.46489 -0.92517,-0.69735 -1.63242,-0.69735c-0.41207,0 -0.79244,0.0634 -1.14111,0.19019c-0.34867,0.12679 -0.67159,0.25886 -0.96677,0.39622c-0.28528,0.12679 -0.55471,0.19019 -0.80829,0.19019c-0.25358,0 -0.45466,-0.08452 -0.60225,-0.25358c-0.13769,-0.16906 -0.20603,-0.38565 -0.20603,-0.6498c0,-0.38037 0.17929,-0.73961 0.53886,-1.07772c0.36947,-0.3381 0.85583,-0.61282 1.45809,-0.82414c0.60225,-0.21131 1.257,-0.31698 1.96525,-0.31698c0.85583,0 1.58983,0.20603 2.20298,0.6181c0.61216,0.41207 1.07772,1.01432 1.39469,1.80676c0.27438,0.67622 0.46952,1.43167 0.5864,2.26637c0.11589,0.8347 0.17434,1.72751 0.17434,2.67844c0,0.71844 -0.03764,1.27315 -0.11094,1.66412c-0.07429,0.39097 -0.19019,0.66565 -0.34867,0.82414c-0.14858,0.14789 -0.34867,0.22188 -0.60225,0.22188zM303.68476,183.10636c0.34867,0 0.7023,-0.04755 1.06187,-0.14264c0.35858,-0.10569 0.6597,-0.25883 0.90338,-0.45961c0.24268,-0.20078 0.36452,-0.44902 0.36452,-0.74489c0,-0.25358 -0.10599,-0.45961 -0.31698,-0.6181c-0.20108,-0.16906 -0.47051,-0.29585 -0.80829,-0.38037c-0.32787,-0.08452 -0.6815,-0.12679 -1.06187,-0.12679c-0.64485,0 -1.13616,0.11094 -1.47393,0.33282c-0.32787,0.22188 -0.49131,0.51773 -0.49131,0.88753c0,0.40147 0.15254,0.71319 0.45961,0.93508c0.31698,0.21128 0.77065,0.31698 1.36299,0.31698zM310.18175,177.57514c0,-1.01432 0.09509,-1.74336 0.28528,-2.18713c0.19019,-0.45433 0.45961,-0.6815 0.80829,-0.6815c0.27537,0 0.49131,0.11622 0.6498,0.34867c0.15849,0.22188 0.27537,0.50188 0.34867,0.83998c0.07429,0.32754 0.11094,0.66037 0.11094,0.99847l-0.07924,-0.0317c0.18028,-0.57056 0.45466,-1.06187 0.82414,-1.47393c0.38037,-0.41207 0.83503,-0.6181 1.36299,-0.6181c0.62404,0 1.08366,0.25886 1.37884,0.77659c0.29617,0.50716 0.44377,1.14111 0.44377,1.90185c0,1.01432 -0.11589,1.72223 -0.34867,2.12373c-0.23179,0.4015 -0.54381,0.60225 -0.93508,0.60225c-0.28528,0 -0.49626,-0.11622 -0.63395,-0.34867c-0.12679,-0.23245 -0.16839,-0.64452 -0.12679,-1.2362c0.04259,-0.62338 0.00594,-1.05659 -0.11094,-1.2996c-0.11589,-0.24301 -0.30113,-0.36452 -0.55471,-0.36452c-0.30608,0 -0.55966,0.19546 -0.76074,0.5864c-0.19019,0.38037 -0.28528,0.85055 -0.28528,1.41054c0,0.22188 0.02674,0.50188 0.07924,0.83998c0.05349,0.3381 0.11094,0.70791 0.17434,1.10941c0.0634,0.39094 0.12184,0.78187 0.17434,1.17281c0.05349,0.39097 0.07924,0.75014 0.07924,1.07772c0,0.58115 -0.08915,0.99847 -0.26943,1.25205c-0.17929,0.25358 -0.43287,0.38037 -0.76074,0.38037c-0.36947,0 -0.65475,-0.11619 -0.85583,-0.34867c-0.20009,-0.24298 -0.35363,-0.63395 -0.45961,-1.17281c-0.0842,-0.48606 -0.16839,-1.06187 -0.25358,-1.72751c-0.0842,-0.66565 -0.15254,-1.34714 -0.20603,-2.04449c-0.0525,-0.69735 -0.07924,-1.32602 -0.07924,-1.886zM323.11137,185.08745c-0.66565,0 -1.1837,-0.0423 -1.55318,-0.12679c-0.35957,-0.08449 -0.6082,-0.20078 -0.74489,-0.34867c-0.13769,-0.15849 -0.21198,-0.33282 -0.22188,-0.52301c0,-0.29588 0.17434,-0.54411 0.52301,-0.74489c0.35858,-0.20078 1.01432,-0.32757 1.96525,-0.38037l-0.25358,0.30113c-0.11688,-0.53886 -0.20108,-1.16756 -0.25358,-1.886c-0.05349,-0.71847 -0.07429,-1.46337 -0.0634,-2.23467c0.00991,-0.77131 0.04755,-1.50563 0.11094,-2.20298c0.0634,-0.70791 0.15254,-1.31017 0.26943,-1.80676l1.37884,-0.09509c-0.23278,0.09509 -0.52301,0.17962 -0.87168,0.25358c-0.34867,0.0634 -0.70824,0.09509 -1.07772,0.09509c-0.67654,0 -1.17875,-0.07396 -1.50563,-0.22188c-0.31698,-0.14792 -0.47546,-0.35395 -0.47546,-0.6181c0,-0.46489 0.27933,-0.82414 0.83998,-1.07772c0.57056,-0.26415 1.44224,-0.39622 2.61504,-0.39622c1.39469,0 2.5675,0.23245 3.51842,0.69735c0.96083,0.45433 1.68987,1.09356 2.18713,1.9177c0.49626,0.81357 0.74489,1.76449 0.74489,2.85278c0,0.95093 -0.16938,1.82789 -0.50716,2.63089c-0.33877,0.79244 -0.82414,1.48453 -1.45809,2.07619c-0.62404,0.58115 -1.37389,1.03542 -2.25052,1.36299c-0.86673,0.31698 -1.83846,0.47546 -2.91617,0.47546zM325.36189,182.64674c0.35858,0 0.73895,-0.14264 1.14111,-0.42792c0.41207,-0.29588 0.76074,-0.72376 1.04602,-1.28375c0.28528,-0.57056 0.42792,-1.27318 0.42792,-2.10788c0,-0.61282 -0.09014,-1.14639 -0.26943,-1.60072c-0.16938,-0.46489 -0.39127,-0.85055 -0.66565,-1.15696c-0.27537,-0.30641 -0.5656,-0.53358 -0.87168,-0.6815c-0.30707,-0.15849 -0.5973,-0.23773 -0.87168,-0.23773c-0.22188,0 -0.39622,0.13736 -0.52301,0.41207c-0.11688,0.27471 -0.20108,0.68678 -0.25358,1.2362c-0.05349,0.53886 -0.07924,1.20979 -0.07924,2.01279c0,1.24677 0.0634,2.1977 0.19019,2.85278c0.12679,0.65505 0.36947,0.98262 0.72904,0.98262zM333.38433,172.56693c0.42296,0 0.72409,0.11622 0.90338,0.34867c0.19019,0.23245 0.28528,0.50188 0.28528,0.80829c0,0.38037 -0.11589,0.67622 -0.34867,0.88753c-0.22188,0.20075 -0.53886,0.30113 -0.95093,0.30113c-0.40117,0 -0.7023,-0.11094 -0.90338,-0.33282c-0.20108,-0.23245 -0.30113,-0.50188 -0.30113,-0.80829c0,-0.4015 0.12184,-0.70262 0.36452,-0.90338c0.24268,-0.20075 0.55966,-0.30113 0.95093,-0.30113zM333.47942,176.10121c0.33778,0 0.60225,0.31698 0.79244,0.95093c0.20108,0.63395 0.30113,1.64299 0.30113,3.02711c0,1.70107 -0.12184,2.92677 -0.36452,3.67691c-0.24268,0.75014 -0.61315,1.12526 -1.10941,1.12526c-0.38037,0 -0.66069,-0.27468 -0.83998,-0.82414c-0.17929,-0.55996 -0.26943,-1.53208 -0.26943,-2.91617c0,-1.7011 0.13769,-2.96372 0.41207,-3.78785c0.28528,-0.8347 0.64485,-1.25205 1.07772,-1.25205zM342.88368,184.77048c-0.34867,0 -0.73994,-0.0211 -1.17281,-0.0634c-0.42296,-0.0423 -0.83503,-0.12154 -1.2362,-0.23773c-0.39127,-0.12679 -0.71914,-0.29588 -0.98262,-0.50716c-0.25358,-0.22188 -0.38037,-0.50716 -0.38037,-0.85583c0,-0.35927 0.11094,-0.6287 0.33282,-0.80829c0.23179,-0.17959 0.60721,-0.26943 1.12526,-0.26943c0.35858,0 0.76074,0.04755 1.20451,0.14264c0.45367,0.09509 0.88753,0.14264 1.2996,0.14264c0.61216,0 1.06187,-0.09509 1.34714,-0.28528c0.29518,-0.19019 0.44377,-0.44904 0.44377,-0.77659c0,-0.20075 -0.05844,-0.38037 -0.17434,-0.53886c-0.10599,-0.15849 -0.32292,-0.31698 -0.6498,-0.47546c-0.32787,-0.15849 -0.81918,-0.33282 -1.47393,-0.52301c-0.75083,-0.20075 -1.35804,-0.42264 -1.82261,-0.66565c-0.46556,-0.25358 -0.80333,-0.55471 -1.01432,-0.90338c-0.21198,-0.34867 -0.31698,-0.76074 -0.31698,-1.2362c0,-0.58112 0.10005,-1.08299 0.30113,-1.50563c0.21099,-0.4332 0.49131,-0.79772 0.83998,-1.09356c0.34867,-0.30641 0.73895,-0.54943 1.17281,-0.72904c0.43287,-0.17962 0.87168,-0.3117 1.31545,-0.39622c0.45367,-0.08452 0.88753,-0.12679 1.2996,-0.12679c0.90833,0 1.64827,0.14264 2.21883,0.42792c0.58046,0.28528 0.87168,0.66565 0.87168,1.14111c0,0.3381 -0.11094,0.61282 -0.33282,0.82414c-0.21198,0.21131 -0.53886,0.31698 -0.98262,0.31698c-0.19019,0 -0.41801,-0.02642 -0.6815,-0.07924c-0.26448,-0.05283 -0.55471,-0.10566 -0.87168,-0.15849c-0.31698,-0.05283 -0.66565,-0.07924 -1.04602,-0.07924c-0.64485,0 -1.14111,0.10037 -1.48978,0.30113c-0.34867,0.20075 -0.52301,0.52301 -0.52301,0.96677c0,0.19019 0.04755,0.36452 0.14264,0.52301c0.105,0.15849 0.32193,0.32225 0.6498,0.49131c0.32688,0.16906 0.82909,0.36452 1.50563,0.5864c0.83404,0.25358 1.48978,0.53358 1.96525,0.83998c0.47546,0.29585 0.81324,0.63395 1.01432,1.01432c0.20009,0.38037 0.30014,0.80829 0.30014,1.28375c0,0.65505 -0.17929,1.2362 -0.53787,1.74336c-0.34867,0.49656 -0.83998,0.88228 -1.47393,1.15696c-0.62404,0.27468 -1.35309,0.41207 -2.18713,0.41207zM353.23589,184.84972c-1.17281,0 -2.10788,-0.17434 -2.80523,-0.52301c-0.69735,-0.34867 -1.19955,-0.85058 -1.50563,-1.50563c-0.30707,-0.65505 -0.45961,-1.43696 -0.45961,-2.34562c0,-1.15168 0.21099,-2.12901 0.63395,-2.93202c0.43287,-0.81357 1.02423,-1.43696 1.77506,-1.87015c0.76074,-0.4332 1.62153,-0.6498 2.58335,-0.6498c1.13021,0 1.9593,0.26415 2.48825,0.79244c0.52796,0.51773 0.79244,1.19923 0.79244,2.04449c0,0.67622 -0.18028,1.26262 -0.53886,1.75921c-0.34867,0.48603 -0.83503,0.86111 -1.45809,1.12526c-0.62404,0.26415 -1.34219,0.39622 -2.15543,0.39622c-0.45466,0 -0.89347,-0.05812 -1.31545,-0.17434c-0.42296,-0.11622 -0.80333,-0.27471 -1.14111,-0.47546l0.38037,-0.69735c-0.0317,0.25358 -0.04755,0.50716 -0.04755,0.76074c0,0.73961 0.23179,1.27315 0.69735,1.60072c0.46457,0.31698 1.12526,0.47546 1.98109,0.47546c0.66565,0 1.19856,-0.05815 1.60072,-0.17434c0.40117,-0.11619 0.73895,-0.22713 1.01432,-0.33282c0.27438,-0.11619 0.54381,-0.17434 0.80829,-0.17434c0.14759,0 0.27933,0.0423 0.39622,0.12679c0.12679,0.07399 0.22684,0.18494 0.30113,0.33282c0.0842,0.14789 0.12679,0.32757 0.12679,0.53886c0,0.31698 -0.15849,0.62335 -0.47546,0.91923c-0.31698,0.28528 -0.78749,0.52301 -1.41054,0.71319c-0.61315,0.17959 -1.36894,0.26943 -2.26637,0.26943zM352.31666,179.66718c0.74984,0 1.3521,-0.15849 1.80676,-0.47546c0.45367,-0.31698 0.6815,-0.70791 0.6815,-1.17281c0,-0.3698 -0.12679,-0.67093 -0.38037,-0.90338c-0.24367,-0.24301 -0.629,-0.36452 -1.15696,-0.36452c-0.49725,0 -0.94597,0.09509 -1.34714,0.28528c-0.39127,0.17962 -0.69735,0.41735 -0.91923,0.71319c-0.22188,0.29585 -0.33282,0.6181 -0.33282,0.96677c0,0.30641 0.14264,0.54414 0.42792,0.71319c0.29518,0.15849 0.7023,0.23773 1.22035,0.23773zM359.85869,184.88142c-0.20108,0 -0.36452,-0.05815 -0.49131,-0.17434c-0.12679,-0.12679 -0.21693,-0.30638 -0.26943,-0.53886c-0.08519,-0.39097 -0.15849,-0.95618 -0.22188,-1.69582c-0.0634,-0.73961 -0.09509,-1.55846 -0.09509,-2.45656c0,-1.10941 0.03665,-2.17656 0.11094,-3.20145c0.0842,-1.02489 0.19019,-1.86487 0.31698,-2.51995c0.1367,-0.70791 0.30608,-1.22563 0.50716,-1.55318c0.20009,-0.33811 0.46457,-0.50716 0.79244,-0.50716c0.29518,0 0.52301,0.13736 0.6815,0.41207c0.15849,0.26415 0.23773,0.72376 0.23773,1.37884c0,0.65508 -0.02674,1.35771 -0.07924,2.10788c-0.04259,0.75017 -0.11688,1.55318 -0.22188,2.40901h0.0634c0.68645,-0.9298 1.32535,-1.67469 1.9177,-2.23467c0.60225,-0.55999 1.15102,-0.96677 1.64827,-1.22035c0.50716,-0.25358 0.95588,-0.38037 1.34714,-0.38037c0.30608,0 0.53291,0.09509 0.6815,0.28528c0.14759,0.19019 0.22188,0.42264 0.22188,0.69735c0,0.53886 -0.43386,1.14111 -1.2996,1.80676c-0.85583,0.66565 -2.09204,1.34714 -3.70861,2.04449l0.01585,-0.25358c1.00342,0.51773 1.86421,1.06187 2.58335,1.63242c0.72904,0.55999 1.28375,1.09356 1.66412,1.60072c0.39028,0.49656 0.5864,0.91398 0.5864,1.25205c0,0.27468 -0.09014,0.50191 -0.26943,0.6815c-0.16938,0.16909 -0.41801,0.25358 -0.74489,0.25358c-0.41207,0 -0.87168,-0.15324 -1.37884,-0.45961c-0.49725,-0.31698 -1.01432,-0.78719 -1.55318,-1.41054c-0.53886,-0.62335 -1.07772,-1.40526 -1.61657,-2.34562h-0.0634c-0.0109,0.66565 -0.05349,1.31545 -0.12679,1.9494c-0.0634,0.62335 -0.14858,1.13586 -0.25358,1.53733c-0.07429,0.27468 -0.19019,0.49656 -0.34867,0.66565c-0.14858,0.15849 -0.35957,0.23773 -0.63395,0.23773zM369.67897,172.56693c0.42197,0 0.7231,0.11622 0.90338,0.34867c0.19019,0.23245 0.28528,0.50188 0.28528,0.80829c0,0.38037 -0.11688,0.67622 -0.34867,0.88753c-0.22188,0.20075 -0.53886,0.30113 -0.95093,0.30113c-0.40216,0 -0.70329,-0.11094 -0.90338,-0.33282c-0.20108,-0.23245 -0.30212,-0.50188 -0.30212,-0.80829c0,-0.4015 0.12184,-0.70262 0.36551,-0.90338c0.24268,-0.20075 0.55966,-0.30113 0.95093,-0.30113zM369.77406,176.10121c0.33778,0 0.60225,0.31698 0.79244,0.95093c0.20009,0.63395 0.30113,1.64299 0.30113,3.02711c0,1.70107 -0.12184,2.92677 -0.36452,3.67691c-0.24367,0.75014 -0.61315,1.12526 -1.10941,1.12526c-0.38037,0 -0.66069,-0.27468 -0.83998,-0.82414c-0.18028,-0.55996 -0.26943,-1.53208 -0.26943,-2.91617c0,-1.7011 0.1367,-2.96372 0.41207,-3.78785c0.28528,-0.8347 0.64386,-1.25205 1.07772,-1.25205zM375.4816,175.18198h-0.31698c-0.0317,-0.46489 -0.0208,-0.90338 0.0317,-1.31545c0.0525,-0.42264 0.16344,-0.76074 0.33282,-1.01432c0.17929,-0.26415 0.43287,-0.39622 0.76074,-0.39622c0.29617,0 0.51211,0.09509 0.6498,0.28528c0.13769,0.19019 0.20603,0.45434 0.20603,0.79244c0,0.66565 -0.12679,1.2362 -0.38037,1.71167l-0.28528,-0.0317c0.57056,-0.20075 1.2154,-0.30113 1.93355,-0.30113c0.45466,0 0.81324,0.08981 1.07772,0.26943c0.27438,0.16906 0.41207,0.45961 0.41207,0.87168c0,0.39094 -0.15849,0.68678 -0.47546,0.88753c-0.31698,0.20075 -0.71319,0.30113 -1.18866,0.30113c-0.28528,0 -0.59136,-0.01057 -0.91923,-0.0317c-0.31698,-0.0317 -0.629,-0.07924 -0.93508,-0.14264l0.26943,-0.33282c0.09509,0.4015 0.18523,0.86111 0.26943,1.37884c0.09509,0.50716 0.17929,1.03545 0.25358,1.58488c0.07429,0.54943 0.13174,1.08299 0.17434,1.60072c0.04259,0.51776 0.0634,0.98262 0.0634,1.39469c0,0.67625 -0.10599,1.20976 -0.31698,1.60072c-0.21099,0.39097 -0.52301,0.5864 -0.93508,0.5864c-0.32787,0 -0.5864,-0.10034 -0.77659,-0.30113c-0.17929,-0.20078 -0.31202,-0.45436 -0.39622,-0.76074c-0.07429,-0.31698 -0.12184,-0.64455 -0.14264,-0.98262c-0.0109,-0.33807 -0.01585,-0.64455 -0.01585,-0.91923c0,-0.46489 0.0208,-0.9879 0.0634,-1.56903c0.04259,-0.59168 0.10005,-1.19923 0.17434,-1.82261c0.0842,-0.62338 0.17929,-1.22563 0.28528,-1.80676l0.31698,0.26943c-0.53886,0.27471 -1.20451,0.41207 -1.99694,0.41207c-0.48636,0 -0.86079,-0.08981 -1.12526,-0.26943c-0.26448,-0.17962 -0.39622,-0.45961 -0.39622,-0.83998c0,-0.41207 0.14759,-0.72904 0.44377,-0.95093c0.29617,-0.23245 0.69239,-0.34867 1.18866,-0.34867c0.32787,0 0.63395,0.02113 0.91923,0.0634c0.29617,0.0317 0.55471,0.07396 0.77659,0.12679zM388.11801,184.88142c-0.35957,0 -0.6082,-0.13739 -0.74489,-0.41207c-0.12679,-0.28528 -0.20108,-0.73429 -0.22188,-1.34714l0.15849,0.07924c-0.59235,1.15171 -1.71167,1.72751 -3.35994,1.72751c-0.75083,0 -1.37389,-0.13204 -1.87015,-0.39622c-0.49725,-0.27468 -0.86673,-0.63395 -1.10941,-1.07772c-0.23278,-0.45436 -0.34867,-0.94568 -0.34867,-1.47393c0,-0.90866 0.31698,-1.62714 0.95093,-2.15543c0.63395,-0.53886 1.47393,-0.80829 2.51995,-0.80829c0.68645,0 1.28375,0.10037 1.79091,0.30113c0.50716,0.20075 0.94003,0.48074 1.2996,0.83998l-0.26943,-0.0317c-0.07429,-1.06715 -0.30707,-1.82789 -0.69735,-2.28222c-0.38037,-0.46489 -0.92517,-0.69735 -1.63242,-0.69735c-0.41207,0 -0.79244,0.0634 -1.14111,0.19019c-0.34867,0.12679 -0.67159,0.25886 -0.96677,0.39622c-0.28528,0.12679 -0.55471,0.19019 -0.80829,0.19019c-0.25358,0 -0.45466,-0.08452 -0.60225,-0.25358c-0.13769,-0.16906 -0.20603,-0.38565 -0.20603,-0.6498c0,-0.38037 0.17929,-0.73961 0.53886,-1.07772c0.36947,-0.3381 0.85583,-0.61282 1.45809,-0.82414c0.60225,-0.21131 1.257,-0.31698 1.96525,-0.31698c0.85583,0 1.58983,0.20603 2.20298,0.6181c0.61216,0.41207 1.07772,1.01432 1.39469,1.80676c0.27438,0.67622 0.46952,1.43167 0.5864,2.26637c0.11589,0.8347 0.17434,1.72751 0.17434,2.67844c0,0.71844 -0.03764,1.27315 -0.11094,1.66412c-0.07429,0.39097 -0.19019,0.66565 -0.34867,0.82414c-0.14858,0.14789 -0.34867,0.22188 -0.60225,0.22188zM384.61543,183.10636c0.34867,0 0.7023,-0.04755 1.06187,-0.14264c0.35858,-0.10569 0.6597,-0.25883 0.90338,-0.45961c0.24268,-0.20078 0.36452,-0.44902 0.36452,-0.74489c0,-0.25358 -0.10599,-0.45961 -0.31698,-0.6181c-0.20108,-0.16906 -0.47051,-0.29585 -0.80829,-0.38037c-0.32787,-0.08452 -0.6815,-0.12679 -1.06187,-0.12679c-0.64485,0 -1.13616,0.11094 -1.47393,0.33282c-0.32787,0.22188 -0.49131,0.51773 -0.49131,0.88753c0,0.40147 0.15254,0.71319 0.45961,0.93508c0.31698,0.21128 0.77065,0.31698 1.36299,0.31698zM391.11243,177.57514c0,-1.01432 0.09509,-1.74336 0.28528,-2.18713c0.19019,-0.45433 0.45961,-0.6815 0.80829,-0.6815c0.27537,0 0.49131,0.11622 0.6498,0.34867c0.15849,0.22188 0.27537,0.50188 0.34867,0.83998c0.07429,0.32754 0.11094,0.66037 0.11094,0.99847l-0.07924,-0.0317c0.18028,-0.57056 0.45466,-1.06187 0.82414,-1.47393c0.38037,-0.41207 0.83503,-0.6181 1.36299,-0.6181c0.62404,0 1.08366,0.25886 1.37884,0.77659c0.29617,0.50716 0.44377,1.14111 0.44377,1.90185c0,1.01432 -0.11589,1.72223 -0.34867,2.12373c-0.23179,0.4015 -0.54381,0.60225 -0.93508,0.60225c-0.28528,0 -0.49626,-0.11622 -0.63395,-0.34867c-0.12679,-0.23245 -0.16839,-0.64452 -0.12679,-1.2362c0.04259,-0.62338 0.00594,-1.05659 -0.11094,-1.2996c-0.11589,-0.24301 -0.30113,-0.36452 -0.55471,-0.36452c-0.30608,0 -0.55966,0.19546 -0.76074,0.5864c-0.19019,0.38037 -0.28528,0.85055 -0.28528,1.41054c0,0.22188 0.02674,0.50188 0.07924,0.83998c0.05349,0.3381 0.11094,0.70791 0.17434,1.10941c0.0634,0.39094 0.12184,0.78187 0.17434,1.17281c0.05349,0.39097 0.07924,0.75014 0.07924,1.07772c0,0.58115 -0.08915,0.99847 -0.26943,1.25205c-0.17929,0.25358 -0.43287,0.38037 -0.76074,0.38037c-0.36947,0 -0.65475,-0.11619 -0.85583,-0.34867c-0.20009,-0.24298 -0.35363,-0.63395 -0.45961,-1.17281c-0.0842,-0.48606 -0.16839,-1.06187 -0.25358,-1.72751c-0.0842,-0.66565 -0.15254,-1.34714 -0.20603,-2.04449c-0.0525,-0.69735 -0.07924,-1.32602 -0.07924,-1.886z"/></g></g></svg>