<svg width="187" height="112" viewBox="0 0 187 112" fill="none" xmlns="http://www.w3.org/2000/svg">
<path d="M10 96L37.3528 16H173L146.766 95.4L10 96Z" stroke="black" stroke-width="2"/>
<path d="M32.773 4.091C33.6457 4.091 34.2873 4.31467 34.698 4.762C35.116 5.20933 35.325 5.796 35.325 6.522C35.325 7.02067 35.2077 7.45333 34.973 7.82C34.7457 8.18667 34.434 8.47267 34.038 8.678C33.642 8.876 33.1947 8.975 32.696 8.975C32.4613 8.975 32.212 8.94933 31.948 8.898C31.6913 8.84667 31.4237 8.74767 31.145 8.601L31.2 8.458C31.2587 8.64133 31.3063 8.86867 31.343 9.14C31.387 9.404 31.42 9.679 31.442 9.965C31.4713 10.2437 31.486 10.5003 31.486 10.735C31.486 11.1677 31.4127 11.5013 31.266 11.736C31.1267 11.9633 30.9177 12.077 30.639 12.077C30.4043 12.077 30.2173 12.0037 30.078 11.857C29.946 11.7103 29.8543 11.4683 29.803 11.131C29.7517 10.7937 29.726 10.3427 29.726 9.778C29.726 8.69267 29.7737 7.76867 29.869 7.006C29.9717 6.236 30.144 5.631 30.386 5.191C30.5767 4.85367 30.87 4.586 31.266 4.388C31.6693 4.19 32.1717 4.091 32.773 4.091ZM32.564 7.677C33.004 7.677 33.3597 7.55967 33.631 7.325C33.9097 7.09033 34.049 6.74933 34.049 6.302C34.049 6.00867 33.95 5.76667 33.752 5.576C33.5613 5.378 33.2607 5.279 32.85 5.279C32.5493 5.279 32.289 5.34867 32.069 5.488C31.849 5.62 31.6803 5.807 31.563 6.049C31.453 6.28367 31.398 6.555 31.398 6.863C31.398 7.149 31.4897 7.358 31.673 7.49C31.8637 7.61467 32.1607 7.677 32.564 7.677Z" fill="#0C0C0C"/>
<path d="M181.059 10.923C180.333 10.923 179.706 10.7763 179.178 10.483C178.65 10.1897 178.243 9.77167 177.957 9.229C177.678 8.68633 177.539 8.041 177.539 7.293C177.539 6.44233 177.693 5.698 178.001 5.06C178.316 4.41467 178.756 3.91233 179.321 3.553C179.893 3.19367 180.564 3.014 181.334 3.014C181.891 3.014 182.394 3.11667 182.841 3.322C183.296 3.52 183.681 3.795 183.996 4.147C184.319 4.49167 184.564 4.895 184.733 5.357C184.909 5.81167 184.997 6.29933 184.997 6.82C184.997 7.33333 184.931 7.81 184.799 8.25C184.667 8.68267 184.48 9.03833 184.238 9.317L183.655 9.889C183.384 10.219 183.024 10.4757 182.577 10.659C182.13 10.835 181.624 10.923 181.059 10.923ZM185.063 11.198C184.814 11.198 184.553 11.0807 184.282 10.846C184.011 10.6113 183.728 10.274 183.435 9.834L184.106 9.196C184.597 9.40133 184.979 9.62867 185.25 9.878C185.529 10.1273 185.668 10.3767 185.668 10.626C185.668 10.7727 185.613 10.9047 185.503 11.022C185.4 11.1393 185.254 11.198 185.063 11.198ZM182.896 9.119C182.471 8.921 182.133 8.69 181.884 8.426C181.642 8.162 181.521 7.92733 181.521 7.722C181.521 7.546 181.572 7.414 181.675 7.326C181.778 7.23067 181.906 7.183 182.06 7.183C182.317 7.183 182.555 7.304 182.775 7.546C182.995 7.78067 183.204 8.118 183.402 8.558L182.896 9.119ZM181.356 9.361C181.657 9.361 181.935 9.317 182.192 9.229C182.456 9.141 182.698 9.00533 182.918 8.822L183.248 8.547C183.329 8.35633 183.395 8.14 183.446 7.898C183.497 7.656 183.523 7.392 183.523 7.106C183.523 6.26267 183.318 5.61367 182.907 5.159C182.504 4.697 181.968 4.466 181.301 4.466C180.883 4.466 180.513 4.57233 180.19 4.785C179.875 4.99033 179.629 5.28 179.453 5.654C179.277 6.028 179.189 6.468 179.189 6.974C179.189 7.458 179.277 7.87967 179.453 8.239C179.636 8.59833 179.889 8.877 180.212 9.075C180.542 9.26567 180.923 9.361 181.356 9.361Z" fill="#0C0C0C"/>
<path d="M149.65 107.077C149.408 107.077 149.221 107.004 149.089 106.857C148.957 106.703 148.862 106.457 148.803 106.12C148.752 105.775 148.726 105.317 148.726 104.745C148.726 103.638 148.788 102.688 148.913 101.896C149.038 101.097 149.25 100.477 149.551 100.037C149.844 99.6117 150.215 99.311 150.662 99.135C151.117 98.959 151.608 98.871 152.136 98.871C153.031 98.871 153.691 99.08 154.116 99.498C154.541 99.916 154.754 100.462 154.754 101.137C154.754 101.738 154.596 102.23 154.281 102.611C153.966 102.992 153.54 103.26 153.005 103.414C152.477 103.561 151.887 103.597 151.234 103.524V103.568C152.466 104.096 153.35 104.595 153.885 105.064C154.428 105.526 154.699 105.926 154.699 106.263C154.699 106.468 154.629 106.633 154.49 106.758C154.358 106.883 154.171 106.945 153.929 106.945C153.636 106.945 153.306 106.846 152.939 106.648C152.572 106.45 152.165 106.12 151.718 105.658C151.278 105.196 150.79 104.573 150.255 103.788H150.211C150.248 103.949 150.277 104.151 150.299 104.393C150.328 104.628 150.35 104.87 150.365 105.119C150.387 105.368 150.398 105.603 150.398 105.823C150.398 106.226 150.339 106.538 150.222 106.758C150.112 106.971 149.921 107.077 149.65 107.077ZM151.564 102.523C151.879 102.523 152.165 102.472 152.422 102.369C152.679 102.259 152.884 102.109 153.038 101.918C153.192 101.72 153.269 101.489 153.269 101.225C153.269 100.88 153.152 100.605 152.917 100.4C152.682 100.195 152.33 100.092 151.861 100.092C151.546 100.092 151.278 100.162 151.058 100.301C150.838 100.433 150.669 100.609 150.552 100.829C150.442 101.049 150.387 101.287 150.387 101.544C150.387 101.83 150.482 102.065 150.673 102.248C150.864 102.431 151.161 102.523 151.564 102.523Z" fill="#0C0C0C"/>
<path d="M2.893 111.033C2.651 111.033 2.37967 111.018 2.079 110.989C1.78567 110.96 1.49967 110.905 1.221 110.824C0.949667 110.736 0.722333 110.619 0.539 110.472C0.363 110.318 0.275 110.12 0.275 109.878C0.275 109.629 0.352 109.442 0.506 109.317C0.667333 109.192 0.927667 109.13 1.287 109.13C1.53633 109.13 1.815 109.163 2.123 109.229C2.43833 109.295 2.739 109.328 3.025 109.328C3.45033 109.328 3.762 109.262 3.96 109.13C4.16533 108.998 4.268 108.818 4.268 108.591C4.268 108.452 4.22767 108.327 4.147 108.217C4.07367 108.107 3.92333 107.997 3.696 107.887C3.46867 107.777 3.12767 107.656 2.673 107.524C2.15233 107.385 1.73067 107.231 1.408 107.062C1.08533 106.886 0.850667 106.677 0.704 106.435C0.557333 106.193 0.484 105.907 0.484 105.577C0.484 105.174 0.553667 104.825 0.693 104.532C0.839667 104.231 1.034 103.978 1.276 103.773C1.518 103.56 1.78933 103.392 2.09 103.267C2.39067 103.142 2.695 103.051 3.003 102.992C3.31833 102.933 3.619 102.904 3.905 102.904C4.53567 102.904 5.049 103.003 5.445 103.201C5.84833 103.399 6.05 103.663 6.05 103.993C6.05 104.228 5.973 104.418 5.819 104.565C5.67233 104.712 5.445 104.785 5.137 104.785C5.005 104.785 4.84733 104.767 4.664 104.73C4.48067 104.693 4.279 104.657 4.059 104.62C3.839 104.583 3.597 104.565 3.333 104.565C2.88567 104.565 2.541 104.635 2.299 104.774C2.057 104.913 1.936 105.137 1.936 105.445C1.936 105.577 1.969 105.698 2.035 105.808C2.10833 105.918 2.25867 106.032 2.486 106.149C2.71333 106.266 3.06167 106.402 3.531 106.556C4.11033 106.732 4.565 106.926 4.895 107.139C5.225 107.344 5.45967 107.579 5.599 107.843C5.73833 108.107 5.808 108.404 5.808 108.734C5.808 109.189 5.68333 109.592 5.434 109.944C5.192 110.289 4.851 110.556 4.411 110.747C3.97833 110.938 3.47233 111.033 2.893 111.033Z" fill="#0C0C0C"/>
</svg>
