<svg version="1.1" xmlns="http://www.w3.org/2000/svg" xmlns:xlink="http://www.w3.org/1999/xlink" width="25" height="25" viewBox="0,0,25,25"><g transform="translate(-227.5,-167.5)"><g data-paper-data="{&quot;isPaintingLayer&quot;:true}" fill-rule="nonzero" stroke-width="1" stroke-linecap="butt" stroke-linejoin="miter" stroke-miterlimit="10" stroke-dasharray="" stroke-dashoffset="0" style="mix-blend-mode: normal"><path d="M228,180c0,-6.62742 5.37258,-12 12,-12c6.62742,0 12,5.37258 12,12c0,6.62742 -5.37258,12 -12,12c-6.62742,0 -12,-5.37258 -12,-12z" fill="#c26363" stroke="#000000"/><path d="M239.572,184.56c-0.496,0 -0.908,-0.092 -1.236,-0.276c-0.32,-0.192 -0.56,-0.484 -0.72,-0.876c-0.112,-0.272 -0.196,-0.6 -0.252,-0.984c-0.048,-0.392 -0.072,-0.84 -0.072,-1.344c0,-0.864 0.028,-1.576 0.084,-2.136c0.056,-0.568 0.136,-1.024 0.24,-1.368c0.112,-0.352 0.236,-0.636 0.372,-0.852c0.216,-0.328 0.56,-0.592 1.032,-0.792c0.472,-0.2 1.14,-0.3 2.004,-0.3c0.576,0 1.036,0.088 1.38,0.264c0.352,0.168 0.604,0.392 0.756,0.672c0.16,0.28 0.24,0.592 0.24,0.936c0,0.544 -0.16,0.992 -0.48,1.344c-0.32,0.352 -0.74,0.632 -1.26,0.84v0.048c0.568,0.064 1.008,0.248 1.32,0.552c0.32,0.296 0.48,0.72 0.48,1.272c0,0.44 -0.112,0.844 -0.336,1.212c-0.216,0.36 -0.512,0.676 -0.888,0.948c-0.368,0.264 -0.784,0.472 -1.248,0.624c-0.464,0.144 -0.936,0.216 -1.416,0.216zM239.944,183.12c0.384,0 0.724,-0.064 1.02,-0.192c0.304,-0.128 0.54,-0.3 0.708,-0.516c0.176,-0.224 0.264,-0.476 0.264,-0.756c0,-0.304 -0.148,-0.556 -0.444,-0.756c-0.288,-0.208 -0.74,-0.312 -1.356,-0.312c-0.416,0 -0.748,0.1 -0.996,0.3c-0.24,0.192 -0.36,0.524 -0.36,0.996c0,0.448 0.096,0.768 0.288,0.96c0.192,0.184 0.484,0.276 0.876,0.276zM239.992,179.316c0.544,0 0.996,-0.12 1.356,-0.36c0.368,-0.248 0.552,-0.568 0.552,-0.96c0,-0.288 -0.116,-0.52 -0.348,-0.696c-0.232,-0.176 -0.572,-0.264 -1.02,-0.264c-0.488,0 -0.888,0.096 -1.2,0.288c-0.312,0.192 -0.468,0.52 -0.468,0.984c0,0.376 0.1,0.64 0.3,0.792c0.208,0.144 0.484,0.216 0.828,0.216z" fill="#0a0a0a" stroke="none"/></g></g></svg>