<svg xmlns="http://www.w3.org/2000/svg" fill="none" viewBox="0 0 53 16" height="16" width="53">
<rect stroke="black" fill="#AF99A9" rx="4.5" height="15" width="52" y="0.5" x="0.5"></rect>
<path fill="black" d="M17.3208 10.035C17.2108 10.035 17.1258 10.0017 17.0658 9.935C17.0058 9.865 16.9625 9.75333 16.9358 9.6C16.9125 9.44333 16.9008 9.235 16.9008 8.975C16.9008 8.47167 16.9291 8.04 16.9858 7.68C17.0425 7.31667 17.1391 7.035 17.2758 6.835C17.4091 6.64167 17.5775 6.505 17.7808 6.425C17.9875 6.345 18.2108 6.305 18.4508 6.305C18.8575 6.305 19.1575 6.4 19.3508 6.59C19.5441 6.78 19.6408 7.02833 19.6408 7.335C19.6408 7.60833 19.5691 7.83167 19.4258 8.005C19.2825 8.17833 19.0891 8.3 18.8458 8.37C18.6058 8.43667 18.3375 8.45333 18.0408 8.42V8.44C18.6008 8.68 19.0025 8.90667 19.2458 9.12C19.4925 9.33 19.6158 9.51167 19.6158 9.665C19.6158 9.75833 19.5841 9.83333 19.5208 9.89C19.4608 9.94667 19.3758 9.975 19.2658 9.975C19.1325 9.975 18.9825 9.93 18.8158 9.84C18.6491 9.75 18.4641 9.6 18.2608 9.39C18.0608 9.18 17.8391 8.89667 17.5958 8.54H17.5758C17.5925 8.61333 17.6058 8.705 17.6158 8.815C17.6291 8.92167 17.6391 9.03167 17.6458 9.145C17.6558 9.25833 17.6608 9.365 17.6608 9.465C17.6608 9.64833 17.6341 9.79 17.5808 9.89C17.5308 9.98667 17.4441 10.035 17.3208 10.035ZM18.1908 7.965C18.3341 7.965 18.4641 7.94167 18.5808 7.895C18.6975 7.845 18.7908 7.77667 18.8608 7.69C18.9308 7.6 18.9658 7.495 18.9658 7.375C18.9658 7.21833 18.9125 7.09333 18.8058 7C18.6991 6.90667 18.5391 6.86 18.3258 6.86C18.1825 6.86 18.0608 6.89167 17.9608 6.955C17.8608 7.015 17.7841 7.095 17.7308 7.195C17.6808 7.295 17.6558 7.40333 17.6558 7.52C17.6558 7.65 17.6991 7.75667 17.7858 7.84C17.8725 7.92333 18.0075 7.965 18.1908 7.965ZM21.5131 10.04C21.1431 10.04 20.8481 9.985 20.6281 9.875C20.4081 9.765 20.2498 9.60667 20.1531 9.4C20.0564 9.19333 20.0081 8.94667 20.0081 8.66C20.0081 8.29667 20.0748 7.98833 20.2081 7.735C20.3448 7.47833 20.5314 7.28167 20.7681 7.145C21.0081 7.00833 21.2798 6.94 21.5831 6.94C21.9398 6.94 22.2014 7.02333 22.3681 7.19C22.5348 7.35333 22.6181 7.56833 22.6181 7.835C22.6181 8.04833 22.5614 8.23333 22.4481 8.39C22.3381 8.54333 22.1848 8.66167 21.9881 8.745C21.7914 8.82833 21.5648 8.87 21.3081 8.87C21.1648 8.87 21.0264 8.85167 20.8931 8.815C20.7598 8.77833 20.6398 8.72833 20.5331 8.665L20.6531 8.445C20.6431 8.525 20.6381 8.605 20.6381 8.685C20.6381 8.91833 20.7114 9.08667 20.8581 9.19C21.0048 9.29 21.2131 9.34 21.4831 9.34C21.6931 9.34 21.8614 9.32167 21.9881 9.285C22.1148 9.24833 22.2214 9.21333 22.3081 9.18C22.3948 9.14333 22.4798 9.125 22.5631 9.125C22.6098 9.125 22.6514 9.13833 22.6881 9.165C22.7281 9.18833 22.7598 9.22333 22.7831 9.27C22.8098 9.31667 22.8231 9.37333 22.8231 9.44C22.8231 9.54 22.7731 9.63667 22.6731 9.73C22.5731 9.82 22.4248 9.895 22.2281 9.955C22.0348 10.0117 21.7964 10.04 21.5131 10.04ZM21.2231 8.405C21.4598 8.405 21.6498 8.355 21.7931 8.255C21.9364 8.155 22.0081 8.03167 22.0081 7.885C22.0081 7.76833 21.9681 7.67333 21.8881 7.6C21.8114 7.52333 21.6898 7.485 21.5231 7.485C21.3664 7.485 21.2248 7.515 21.0981 7.575C20.9748 7.63167 20.8781 7.70667 20.8081 7.8C20.7381 7.89333 20.7031 7.995 20.7031 8.105C20.7031 8.20167 20.7481 8.27667 20.8381 8.33C20.9314 8.38 21.0598 8.405 21.2231 8.405ZM24.5275 6.87C24.8242 6.87 25.0375 6.91333 25.1675 7C25.2975 7.08667 25.3625 7.19833 25.3625 7.335C25.3625 7.415 25.3342 7.48167 25.2775 7.535C25.2242 7.585 25.1475 7.61 25.0475 7.61C24.9442 7.61 24.8359 7.595 24.7225 7.565C24.6125 7.535 24.4842 7.52 24.3375 7.52C24.1675 7.52 24.0409 7.55333 23.9575 7.62C23.8742 7.68667 23.8325 7.77167 23.8325 7.875C23.8325 7.97167 23.8692 8.04833 23.9425 8.105C24.0192 8.15833 24.1642 8.19833 24.3775 8.225C24.6142 8.25167 24.8092 8.295 24.9625 8.355C25.1192 8.41167 25.2359 8.49833 25.3125 8.615C25.3892 8.72833 25.4275 8.885 25.4275 9.085C25.4275 9.40167 25.3159 9.63667 25.0925 9.79C24.8692 9.94333 24.5609 10.02 24.1675 10.02C23.9175 10.02 23.7192 10 23.5725 9.96C23.4259 9.92 23.3192 9.86333 23.2525 9.79C23.1892 9.71667 23.1575 9.63 23.1575 9.53C23.1575 9.44333 23.1859 9.37667 23.2425 9.33C23.3025 9.28 23.3725 9.255 23.4525 9.255C23.5292 9.255 23.6109 9.265 23.6975 9.285C23.7842 9.30167 23.8759 9.32 23.9725 9.34C24.0692 9.36 24.1692 9.37 24.2725 9.37C24.6059 9.37 24.7725 9.26667 24.7725 9.06C24.7725 8.99 24.7559 8.93333 24.7225 8.89C24.6892 8.84667 24.6292 8.81167 24.5425 8.785C24.4559 8.755 24.3292 8.73167 24.1625 8.715C23.9625 8.695 23.7892 8.66167 23.6425 8.615C23.4959 8.565 23.3825 8.485 23.3025 8.375C23.2225 8.26167 23.1825 8.10667 23.1825 7.91C23.1825 7.6 23.2992 7.35 23.5325 7.16C23.7659 6.96667 24.0975 6.87 24.5275 6.87ZM26.7784 6.99H26.6784C26.6684 6.84333 26.6718 6.705 26.6884 6.575C26.7051 6.44167 26.7401 6.335 26.7934 6.255C26.8501 6.17167 26.9301 6.13 27.0334 6.13C27.1268 6.13 27.1951 6.16 27.2384 6.22C27.2818 6.28 27.3034 6.36333 27.3034 6.47C27.3034 6.68 27.2634 6.86 27.1834 7.01L27.0934 7C27.2734 6.93667 27.4768 6.905 27.7034 6.905C27.8468 6.905 27.9601 6.93333 28.0434 6.99C28.1301 7.04333 28.1734 7.135 28.1734 7.265C28.1734 7.38833 28.1234 7.48167 28.0234 7.545C27.9234 7.60833 27.7984 7.64 27.6484 7.64C27.5584 7.64 27.4618 7.63667 27.3584 7.63C27.2584 7.62 27.1601 7.605 27.0634 7.585L27.1484 7.48C27.1784 7.60667 27.2068 7.75167 27.2334 7.915C27.2634 8.075 27.2901 8.24167 27.3134 8.415C27.3368 8.58833 27.3551 8.75667 27.3684 8.92C27.3818 9.08333 27.3884 9.23 27.3884 9.36C27.3884 9.57333 27.3551 9.74167 27.2884 9.865C27.2218 9.98833 27.1234 10.05 26.9934 10.05C26.8901 10.05 26.8084 10.0183 26.7484 9.955C26.6918 9.89167 26.6501 9.81167 26.6234 9.715C26.6001 9.615 26.5851 9.51167 26.5784 9.405C26.5751 9.29833 26.5734 9.20167 26.5734 9.115C26.5734 8.96833 26.5801 8.80333 26.5934 8.62C26.6068 8.43333 26.6251 8.24167 26.6484 8.045C26.6751 7.84833 26.7051 7.65833 26.7384 7.475L26.8384 7.56C26.6684 7.64667 26.4584 7.69 26.2084 7.69C26.0551 7.69 25.9368 7.66167 25.8534 7.605C25.7701 7.54833 25.7284 7.46 25.7284 7.34C25.7284 7.21 25.7751 7.11 25.8684 7.04C25.9618 6.96667 26.0868 6.93 26.2434 6.93C26.3468 6.93 26.4434 6.93667 26.5334 6.95C26.6268 6.96 26.7084 6.97333 26.7784 6.99ZM30.7649 10.05C30.6516 10.05 30.5732 10.0067 30.5299 9.92C30.4899 9.83 30.4666 9.68833 30.4599 9.495L30.5099 9.52C30.3232 9.88333 29.9699 10.065 29.4499 10.065C29.2132 10.065 29.0166 10.0233 28.8599 9.94C28.7032 9.85333 28.5866 9.74 28.5099 9.6C28.4366 9.45667 28.3999 9.30167 28.3999 9.135C28.3999 8.84833 28.4999 8.62167 28.6999 8.455C28.8999 8.285 29.1649 8.2 29.4949 8.2C29.7116 8.2 29.8999 8.23167 30.0599 8.295C30.2199 8.35833 30.3566 8.44667 30.4699 8.56L30.3849 8.55C30.3616 8.21333 30.2882 7.97333 30.1649 7.83C30.0449 7.68333 29.8732 7.61 29.6499 7.61C29.5199 7.61 29.3999 7.63 29.2899 7.67C29.1799 7.71 29.0782 7.75167 28.9849 7.795C28.8949 7.835 28.8099 7.855 28.7299 7.855C28.6499 7.855 28.5866 7.82833 28.5399 7.775C28.4966 7.72167 28.4749 7.65333 28.4749 7.57C28.4749 7.45 28.5316 7.33667 28.6449 7.23C28.7616 7.12333 28.9149 7.03667 29.1049 6.97C29.2949 6.90333 29.5016 6.87 29.7249 6.87C29.9949 6.87 30.2266 6.935 30.4199 7.065C30.6132 7.195 30.7599 7.385 30.8599 7.635C30.9466 7.84833 31.0082 8.08667 31.0449 8.35C31.0816 8.61333 31.0999 8.895 31.0999 9.195C31.0999 9.42167 31.0882 9.59667 31.0649 9.72C31.0416 9.84333 31.0049 9.93 30.9549 9.98C30.9082 10.0267 30.8449 10.05 30.7649 10.05ZM29.6599 9.49C29.7699 9.49 29.8816 9.475 29.9949 9.445C30.1082 9.41167 30.2032 9.36333 30.2799 9.3C30.3566 9.23667 30.3949 9.15833 30.3949 9.065C30.3949 8.985 30.3616 8.92 30.2949 8.87C30.2316 8.81667 30.1466 8.77667 30.0399 8.75C29.9366 8.72333 29.8249 8.71 29.7049 8.71C29.5016 8.71 29.3466 8.745 29.2399 8.815C29.1366 8.885 29.0849 8.97833 29.0849 9.095C29.0849 9.22167 29.1332 9.32 29.2299 9.39C29.3299 9.45667 29.4732 9.49 29.6599 9.49ZM31.7098 7.745C31.7098 7.425 31.7398 7.195 31.7998 7.055C31.8598 6.91167 31.9448 6.84 32.0548 6.84C32.1415 6.84 32.2098 6.87667 32.2598 6.95C32.3098 7.02 32.3465 7.10833 32.3698 7.215C32.3931 7.31833 32.4048 7.42333 32.4048 7.53L32.3798 7.52C32.4365 7.34 32.5231 7.185 32.6398 7.055C32.7598 6.925 32.9031 6.86 33.0698 6.86C33.2665 6.86 33.4115 6.94167 33.5048 7.105C33.5981 7.265 33.6448 7.465 33.6448 7.705C33.6448 8.025 33.6081 8.24833 33.5348 8.375C33.4615 8.50167 33.3631 8.565 33.2398 8.565C33.1498 8.565 33.0831 8.52833 33.0398 8.455C32.9998 8.38167 32.9865 8.25167 32.9998 8.065C33.0131 7.86833 33.0015 7.73167 32.9648 7.655C32.9281 7.57833 32.8698 7.54 32.7898 7.54C32.6931 7.54 32.6131 7.60167 32.5498 7.725C32.4898 7.845 32.4598 7.99333 32.4598 8.17C32.4598 8.24 32.4681 8.32833 32.4848 8.435C32.5015 8.54167 32.5198 8.65833 32.5398 8.785C32.5598 8.90833 32.5781 9.03167 32.5948 9.155C32.6115 9.27833 32.6198 9.39167 32.6198 9.495C32.6198 9.67833 32.5915 9.81 32.5348 9.89C32.4781 9.97 32.3981 10.01 32.2948 10.01C32.1781 10.01 32.0881 9.97333 32.0248 9.9C31.9615 9.82333 31.9131 9.7 31.8798 9.53C31.8531 9.37667 31.8265 9.195 31.7998 8.985C31.7731 8.775 31.7515 8.56 31.7348 8.34C31.7181 8.12 31.7098 7.92167 31.7098 7.745ZM34.9327 6.99H34.8327C34.8227 6.84333 34.8261 6.705 34.8427 6.575C34.8594 6.44167 34.8944 6.335 34.9477 6.255C35.0044 6.17167 35.0844 6.13 35.1877 6.13C35.2811 6.13 35.3494 6.16 35.3927 6.22C35.4361 6.28 35.4577 6.36333 35.4577 6.47C35.4577 6.68 35.4177 6.86 35.3377 7.01L35.2477 7C35.4277 6.93667 35.6311 6.905 35.8577 6.905C36.0011 6.905 36.1144 6.93333 36.1977 6.99C36.2844 7.04333 36.3277 7.135 36.3277 7.265C36.3277 7.38833 36.2777 7.48167 36.1777 7.545C36.0777 7.60833 35.9527 7.64 35.8027 7.64C35.7127 7.64 35.6161 7.63667 35.5127 7.63C35.4127 7.62 35.3144 7.605 35.2177 7.585L35.3027 7.48C35.3327 7.60667 35.3611 7.75167 35.3877 7.915C35.4177 8.075 35.4444 8.24167 35.4677 8.415C35.4911 8.58833 35.5094 8.75667 35.5227 8.92C35.5361 9.08333 35.5427 9.23 35.5427 9.36C35.5427 9.57333 35.5094 9.74167 35.4427 9.865C35.3761 9.98833 35.2777 10.05 35.1477 10.05C35.0444 10.05 34.9627 10.0183 34.9027 9.955C34.8461 9.89167 34.8044 9.81167 34.7777 9.715C34.7544 9.615 34.7394 9.51167 34.7327 9.405C34.7294 9.29833 34.7277 9.20167 34.7277 9.115C34.7277 8.96833 34.7344 8.80333 34.7477 8.62C34.7611 8.43333 34.7794 8.24167 34.8027 8.045C34.8294 7.84833 34.8594 7.65833 34.8927 7.475L34.9927 7.56C34.8227 7.64667 34.6127 7.69 34.3627 7.69C34.2094 7.69 34.0911 7.66167 34.0077 7.605C33.9244 7.54833 33.8827 7.46 33.8827 7.34C33.8827 7.21 33.9294 7.11 34.0227 7.04C34.1161 6.96667 34.2411 6.93 34.3977 6.93C34.5011 6.93 34.5977 6.93667 34.6877 6.95C34.7811 6.96 34.8627 6.97333 34.9327 6.99Z"></path>
</svg>
