<svg version="1.1" xmlns="http://www.w3.org/2000/svg" xmlns:xlink="http://www.w3.org/1999/xlink" width="44.82979" height="19.86313" viewBox="0,0,44.82979,19.86313"><g transform="translate(-217.58511,-170.06843)"><g data-paper-data="{&quot;isPaintingLayer&quot;:true}" fill-rule="nonzero" stroke-width="1" stroke-linecap="butt" stroke-linejoin="miter" stroke-miterlimit="10" stroke-dasharray="" stroke-dashoffset="0" style="mix-blend-mode: normal"><path d="M218.08511,173.3979c0,-1.56267 1.31798,-2.82947 2.94379,-2.82947h37.9422c1.62582,0 2.94379,1.2668 2.94379,2.82947v13.20419c0,1.56268 -1.31797,2.82947 -2.94379,2.82947h-37.9422c-1.62581,0 -2.94379,-1.26678 -2.94379,-2.82947z" fill="#a5a7a9" stroke="#000000"/><path d="M232.02952,182.86405c-0.29745,0 -0.54447,-0.05301 -0.74118,-0.15908c-0.19187,-0.11066 -0.33579,-0.27899 -0.43176,-0.5049c-0.06718,-0.15675 -0.11756,-0.34582 -0.15111,-0.56715c-0.02878,-0.22592 -0.04318,-0.48415 -0.04318,-0.77465c0,-0.49799 0.01681,-0.90839 0.05037,-1.23113c0.03356,-0.3274 0.08158,-0.59023 0.14392,-0.78848c0.06718,-0.2029 0.1415,-0.36657 0.22307,-0.49107c0.12953,-0.18907 0.33579,-0.34123 0.61885,-0.45649c0.28306,-0.11525 0.68361,-0.17291 1.20172,-0.17291c0.3454,0 0.62127,0.05074 0.82753,0.15216c0.2111,0.09683 0.36222,0.22592 0.45334,0.38732c0.09597,0.16141 0.14392,0.34123 0.14392,0.53949c0,0.31357 -0.09597,0.57174 -0.28784,0.77465c-0.19187,0.2029 -0.44373,0.36425 -0.75557,0.48415v0.02767c0.34063,0.03691 0.60446,0.14292 0.79155,0.31816c0.19187,0.17059 0.28784,0.41499 0.28784,0.73315c0,0.25358 -0.06718,0.48648 -0.20149,0.69856c-0.12953,0.20749 -0.307,0.38965 -0.5325,0.5464c-0.22065,0.15216 -0.47016,0.27207 -0.74838,0.35966c-0.27822,0.083 -0.56128,0.1245 -0.84912,0.1245zM232.25259,182.03407c0.23027,0 0.43418,-0.03691 0.61165,-0.11066c0.18232,-0.07375 0.32382,-0.17291 0.42456,-0.29741c0.10552,-0.12909 0.15831,-0.27433 0.15831,-0.43574c0,-0.17524 -0.08877,-0.32048 -0.26625,-0.43574c-0.1727,-0.11991 -0.44373,-0.17983 -0.81314,-0.17983c-0.24944,0 -0.44857,0.05766 -0.59726,0.17291c-0.14392,0.11066 -0.21588,0.302 -0.21588,0.57407c0,0.25824 0.05757,0.44265 0.1727,0.55332c0.11513,0.10607 0.29026,0.15908 0.5253,0.15908zM232.28138,179.84155c0.32624,0 0.59726,-0.06916 0.81314,-0.20749c0.22065,-0.14292 0.33101,-0.3274 0.33101,-0.55332c0,-0.166 -0.06954,-0.29974 -0.20868,-0.40116c-0.13914,-0.10142 -0.34298,-0.15216 -0.61165,-0.15216c-0.29261,0 -0.5325,0.05533 -0.71959,0.166c-0.18709,0.11066 -0.28064,0.29974 -0.28064,0.56715c0,0.21674 0.05999,0.3689 0.1799,0.45649c0.12475,0.083 0.29026,0.1245 0.49652,0.1245zM238.30353,182.89863c-0.16309,0 -0.27587,-0.05992 -0.33821,-0.17983c-0.05757,-0.1245 -0.09113,-0.32048 -0.10074,-0.5879l0.07196,0.03458c-0.26867,0.50258 -0.77716,0.7539 -1.52554,0.7539c-0.34063,0 -0.62363,-0.05766 -0.84912,-0.17291c-0.22549,-0.11991 -0.39336,-0.27666 -0.50372,-0.47032c-0.10552,-0.19825 -0.15831,-0.41266 -0.15831,-0.64323c0,-0.39657 0.14392,-0.71007 0.43176,-0.94064c0.28784,-0.23516 0.66922,-0.35274 1.14415,-0.35274c0.31185,0 0.58287,0.04383 0.81314,0.13141c0.23027,0.08759 0.42698,0.20982 0.59007,0.36657l-0.12233,-0.01383c-0.03356,-0.46573 -0.13914,-0.79772 -0.31662,-0.99597c-0.1727,-0.2029 -0.41978,-0.30433 -0.74118,-0.30433c-0.18709,0 -0.3598,0.02767 -0.51811,0.083c-0.15831,0.05533 -0.30465,0.11299 -0.43895,0.17291c-0.12953,0.05533 -0.25186,0.083 -0.36699,0.083c-0.11513,0 -0.20626,-0.03691 -0.27345,-0.11066c-0.06234,-0.07375 -0.09355,-0.16832 -0.09355,-0.28358c0,-0.166 0.08158,-0.32275 0.24466,-0.47032c0.16793,-0.14757 0.38858,-0.26742 0.66203,-0.35966c0.27345,-0.09224 0.5709,-0.13833 0.8923,-0.13833c0.38858,0 0.72201,0.08991 1.00023,0.26974c0.27822,0.17983 0.48932,0.44265 0.63324,0.78848c0.12475,0.29508 0.21346,0.62481 0.26625,0.98906c0.05279,0.36425 0.07916,0.7539 0.07916,1.16889c0,0.31357 -0.01681,0.55564 -0.05037,0.72623c-0.03356,0.17059 -0.08635,0.29049 -0.15831,0.35966c-0.06718,0.06457 -0.15831,0.09683 -0.27345,0.09683zM236.71322,182.12399c0.15831,0 0.31904,-0.02075 0.48213,-0.06225c0.16309,-0.04609 0.29981,-0.11299 0.41017,-0.20058c0.11036,-0.08759 0.16551,-0.19599 0.16551,-0.32507c0,-0.11066 -0.04795,-0.20058 -0.14392,-0.26974c-0.09113,-0.07375 -0.21346,-0.12909 -0.36699,-0.166c-0.14869,-0.03691 -0.30943,-0.05533 -0.48213,-0.05533c-0.29261,0 -0.51569,0.04842 -0.66922,0.14525c-0.14869,0.09683 -0.22307,0.22592 -0.22307,0.38732c0,0.17524 0.06954,0.31124 0.20868,0.40807c0.14392,0.09224 0.35018,0.13833 0.61885,0.13833zM241.43363,182.90555c-0.66203,0 -1.14899,-0.166 -1.46077,-0.49799c-0.30707,-0.33199 -0.46054,-0.79307 -0.46054,-1.3833c0,-0.45649 0.09113,-0.85997 0.27345,-1.21038c0.18709,-0.35507 0.45334,-0.63173 0.79875,-0.82998c0.35018,-0.2029 0.76754,-0.30433 1.25209,-0.30433c0.43653,0 0.76754,0.06916 0.99304,0.20749c0.23027,0.13374 0.3454,0.30665 0.3454,0.51874c0,0.12909 -0.04318,0.23283 -0.12953,0.31124c-0.08158,0.07375 -0.20391,0.11066 -0.36699,0.11066c-0.09119,0 -0.18474,-0.01383 -0.28064,-0.0415c-0.09119,-0.02767 -0.19194,-0.05533 -0.30223,-0.083c-0.11036,-0.02767 -0.24231,-0.0415 -0.39578,-0.0415c-0.3982,0 -0.69801,0.10142 -0.89949,0.30433c-0.19671,0.2029 -0.29503,0.49566 -0.29503,0.87839c0,0.36425 0.0959,0.6294 0.28784,0.7954c0.19187,0.16141 0.45334,0.24208 0.78436,0.24208c0.16309,0 0.30458,-0.01616 0.42456,-0.04842c0.12469,-0.03691 0.23982,-0.07149 0.3454,-0.10375c0.11029,-0.03691 0.22065,-0.05533 0.33101,-0.05533c0.11029,0 0.20149,0.03458 0.27345,0.10375c0.07196,0.06457 0.10794,0.15908 0.10794,0.28358c0,0.14292 -0.05999,0.27899 -0.1799,0.40807c-0.11998,0.12909 -0.29987,0.23516 -0.5397,0.31816c-0.23989,0.07841 -0.54212,0.11758 -0.90669,0.11758zM244.1372,182.89863c-0.09119,0 -0.16551,-0.02534 -0.22307,-0.07608c-0.05757,-0.05533 -0.09839,-0.13374 -0.12233,-0.23516c-0.0384,-0.17059 -0.07196,-0.41732 -0.10074,-0.74006c-0.02878,-0.32275 -0.04318,-0.68014 -0.04318,-1.07205c0,-0.48415 0.01675,-0.94988 0.05037,-1.39713c0.03833,-0.44724 0.08635,-0.81382 0.14392,-1.09972c0.06234,-0.30892 0.13908,-0.5349 0.23027,-0.67782c0.09113,-0.14757 0.21104,-0.22133 0.3598,-0.22133c0.1343,0 0.23747,0.05992 0.30943,0.17983c0.07196,0.11525 0.10794,0.31583 0.10794,0.60173c0,0.2859 -0.01204,0.59249 -0.03598,0.91989c-0.01923,0.3274 -0.05279,0.67782 -0.10074,1.05131h0.02878c0.31178,-0.40575 0.60204,-0.73082 0.87071,-0.97522c0.27345,-0.2444 0.52288,-0.42191 0.74838,-0.53257c0.23027,-0.11066 0.43411,-0.166 0.61165,-0.166c0.13908,0 0.24224,0.0415 0.30943,0.1245c0.06712,0.083 0.10074,0.18442 0.10074,0.30433c0,0.23516 -0.19671,0.49799 -0.59007,0.78848c-0.38858,0.29049 -0.94986,0.5879 -1.68385,0.89223l0.0072,-0.11066c0.4557,0.22592 0.8467,0.4634 1.17294,0.7124c0.33101,0.2444 0.58287,0.47724 0.75557,0.69856c0.17748,0.21674 0.26625,0.39883 0.26625,0.5464c0,0.11991 -0.04082,0.219 -0.12233,0.29741c-0.0768,0.07375 -0.18951,0.11066 -0.33821,0.11066c-0.18709,0 -0.39578,-0.06684 -0.62605,-0.20058c-0.22549,-0.13833 -0.46054,-0.3435 -0.7052,-0.61557c-0.24466,-0.27207 -0.48932,-0.61324 -0.73399,-1.02364h-0.02878c-0.00484,0.29049 -0.02401,0.57407 -0.05757,0.85073c-0.02878,0.27207 -0.06718,0.49566 -0.11513,0.6709c-0.03362,0.11991 -0.08635,0.21674 -0.15831,0.29049c-0.06718,0.06916 -0.16315,0.10375 -0.28784,0.10375z" fill="#000000" stroke="none"/></g></g></svg>