<svg version="1.1" xmlns="http://www.w3.org/2000/svg" xmlns:xlink="http://www.w3.org/1999/xlink" width="49.21346" height="24.48674" viewBox="0,0,49.21346,24.48674"><g transform="translate(-215.39327,-167.75663)"><g data-paper-data="{&quot;isPaintingLayer&quot;:true}" fill-rule="nonzero" stroke-linecap="butt" stroke-linejoin="miter" stroke-miterlimit="10" stroke-dasharray="" stroke-dashoffset="0" style="mix-blend-mode: normal"><g><path d="" fill="#ececec" stroke="none" stroke-width="1"/><path d="" fill="none" stroke="#dcd6d6" stroke-width="1.5"/><path d="" fill="none" stroke="#dcd6d6" stroke-width="1.5"/><path d="" fill="none" stroke="#dcd6d6" stroke-width="1.5"/><path d="" fill="none" stroke="#dcd6d6" stroke-width="1.5"/><path d="" fill="none" stroke="#dcd6d6" stroke-width="1.5"/><path d="" fill="none" stroke="#dcd6d6" stroke-width="1.5"/><path d="" fill="none" stroke="#dcd6d6" stroke-width="1.5"/><path d="" fill="none" stroke="#dcd6d6" stroke-width="1.5"/><path d="" fill="none" stroke="#dcd6d6" stroke-width="1.5"/><path d="" fill="none" stroke="#dcd6d6" stroke-width="1.5"/><path d="" fill="none" stroke="#dcd6d6" stroke-width="1.5"/><path d="" fill="none" stroke="#dcd6d6" stroke-width="1.5"/><path d="" fill="none" stroke="#dcd6d6" stroke-width="1.5"/><path d="" fill="none" stroke="#dcd6d6" stroke-width="1.5"/><path d="" fill="none" stroke="#dcd6d6" stroke-width="1.5"/><path d="" fill="none" stroke="#dcd6d6" stroke-width="1.5"/><path d="" fill="none" stroke="#dcd6d6" stroke-width="1.5"/><path d="" fill="none" stroke="#dcd6d6" stroke-width="1.5"/><path d="" fill="none" stroke="#dcd6d6" stroke-width="1.5"/><path d="" fill="none" stroke="#dcd6d6" stroke-width="1.5"/><path d="" fill="none" stroke="#dcd6d6" stroke-width="1.5"/><path d="" fill="none" stroke="#dcd6d6" stroke-width="1.5"/><path d="" fill="none" stroke="#dcd6d6" stroke-width="1.5"/><path d="" fill="none" stroke="#dcd6d6" stroke-width="1.5"/><path d="" fill="none" stroke="#dcd6d6" stroke-width="1.5"/><path d="" fill="none" stroke="#dcd6d6" stroke-width="1.5"/><path d="" fill="none" stroke="#dcd6d6" stroke-width="1.5"/><path d="" fill="none" stroke="#dcd6d6" stroke-width="1.5"/><path d="" fill="none" stroke="#dcd6d6" stroke-width="1.5"/><path d="" fill="none" stroke="#dcd6d6" stroke-width="1.5"/><path d="" fill="none" stroke="#dcd6d6" stroke-width="1.5"/><path d="" fill="none" stroke="#dcd6d6" stroke-width="1.5"/><path d="" fill="none" stroke="#dcd6d6" stroke-width="1.5"/><path d="" fill="none" stroke="#dcd6d6" stroke-width="1.5"/><path d="" fill="none" stroke="#dcd6d6" stroke-width="1.5"/><path d="" fill="none" stroke="#dcd6d6" stroke-width="1.5"/><path d="" fill="none" stroke="#dcd6d6" stroke-width="1.5"/><path d="" fill="none" stroke="#dcd6d6" stroke-width="1.5"/><path d="" fill="none" stroke="#dcd6d6" stroke-width="1.5"/><path d="" fill="none" stroke="#dcd6d6" stroke-width="1.5"/><g><path d="" fill="#ebebeb" stroke="none" stroke-width="1"/><path d="" fill="none" stroke="#000000" stroke-width="0.5"/></g><path d="" fill="#737373" stroke="none" stroke-width="1"/><path d="" fill="#737373" stroke="none" stroke-width="1"/><path d="" fill="#737373" stroke="none" stroke-width="1"/><path d="" fill="#737373" stroke="none" stroke-width="1"/></g><path d="" fill="#000000" stroke="none" stroke-width="1"/><path d="" fill="#000000" stroke="none" stroke-width="1"/><path d="M219.13148,168.25663h41.73704c1.78821,0 3.23821,1.57752 3.23821,3.52301v16.44072c0,1.94548 -1.45,3.52301 -3.23821,3.52301h-41.73704c-1.78844,0 -3.23821,-1.57752 -3.23821,-3.52301v-16.44072c0,-1.94548 1.44978,-3.52301 3.23821,-3.52301z" fill="#a5a7a9" stroke="#000000" stroke-width="1"/><path d="M231.23234,183.56607c-0.3272,0 -0.59892,-0.06577 -0.81532,-0.19807c-0.21106,-0.13779 -0.36938,-0.3476 -0.47495,-0.62866c-0.0739,-0.19495 -0.12932,-0.43058 -0.16623,-0.70617c-0.03167,-0.28106 -0.04749,-0.60283 -0.04749,-0.96452c0,-0.62005 0.0185,-1.13128 0.05541,-1.53291c0.03691,-0.40789 0.08973,-0.73514 0.15831,-0.98175c0.0739,-0.25288 0.15565,-0.45642 0.24538,-0.61144c0.14248,-0.23565 0.36938,-0.4251 0.68074,-0.56837c0.31138,-0.14327 0.75198,-0.21529 1.32191,-0.21529c0.37995,0 0.6834,0.06341 0.9103,0.18945c0.23222,0.12057 0.39845,0.28106 0.49869,0.48226c0.10557,0.2012 0.15831,0.4251 0.15831,0.67171c0,0.39066 -0.10557,0.71165 -0.31662,0.96452c-0.21106,0.25288 -0.4881,0.45329 -0.83114,0.60283v0.03445c0.3747,0.04619 0.66491,0.17772 0.87072,0.39614c0.21106,0.21216 0.31662,0.51671 0.31662,0.91286c0,0.3155 -0.0739,0.60596 -0.22164,0.86979c-0.14248,0.25836 -0.33771,0.48539 -0.58575,0.68033c-0.24273,0.18945 -0.51717,0.33899 -0.82323,0.44781c-0.30604,0.10334 -0.61742,0.15501 -0.93404,0.15501zM231.47773,182.53266c0.2533,0 0.47761,-0.04619 0.67282,-0.13779c0.20055,-0.0916 0.35621,-0.21529 0.46703,-0.3703c0.11607,-0.16049 0.17415,-0.34134 0.17415,-0.54255c0,-0.21843 -0.09765,-0.39928 -0.29288,-0.54255c-0.18998,-0.14953 -0.4881,-0.22391 -0.89447,-0.22391c-0.27438,0 -0.49343,0.07202 -0.657,0.21529c-0.15831,0.13779 -0.23746,0.37579 -0.23746,0.71478c0,0.32176 0.06333,0.55115 0.18998,0.68894c0.12665,0.13231 0.31929,0.19807 0.57784,0.19807zM231.50938,179.80271c0.35886,0 0.657,-0.08612 0.89447,-0.25836c0.24273,-0.17772 0.36413,-0.40789 0.36413,-0.68894c0,-0.20668 -0.0765,-0.37344 -0.22954,-0.49949c-0.15306,-0.12605 -0.37729,-0.18945 -0.67282,-0.18945c-0.32188,0 -0.58575,0.06889 -0.79157,0.20668c-0.20582,0.13779 -0.3087,0.37344 -0.3087,0.70617c0,0.2701 0.06598,0.45956 0.1979,0.56837c0.13724,0.10334 0.31929,0.15501 0.54618,0.15501zM238.13385,183.60913c-0.1794,0 -0.30346,-0.07437 -0.37203,-0.22391c-0.06333,-0.15501 -0.10025,-0.39928 -0.11082,-0.732l0.07915,0.04306c-0.29555,0.62553 -0.85488,0.93869 -1.67812,0.93869c-0.3747,0 -0.686,-0.07202 -0.93404,-0.21529c-0.24804,-0.14953 -0.43269,-0.34447 -0.5541,-0.5856c-0.11607,-0.24661 -0.17415,-0.51358 -0.17415,-0.80091c0,-0.49401 0.15831,-0.88389 0.47495,-1.1712c0.31662,-0.29279 0.73616,-0.4392 1.2586,-0.4392c0.34303,0 0.64117,0.05481 0.89447,0.16363c0.2533,0.10882 0.46969,0.26149 0.64909,0.45642l-0.13456,-0.01722c-0.03691,-0.58012 -0.15306,-0.99349 -0.34829,-1.24011c-0.18998,-0.25288 -0.46178,-0.37892 -0.81532,-0.37892c-0.20582,0 -0.39578,0.03445 -0.56993,0.10334c-0.17415,0.06889 -0.33511,0.14092 -0.48285,0.21529c-0.14248,0.06889 -0.27705,0.10334 -0.40369,0.10334c-0.12665,0 -0.22689,-0.04619 -0.3008,-0.13779c-0.06858,-0.0916 -0.1029,-0.20981 -0.1029,-0.35308c0,-0.20668 0.08973,-0.40162 0.26913,-0.5856c0.18472,-0.18397 0.42744,-0.33273 0.72824,-0.44781c0.3008,-0.11509 0.628,-0.17224 0.98154,-0.17224c0.42744,0 0.79422,0.11195 1.10027,0.33586c0.30604,0.22391 0.53826,0.55115 0.69657,0.98175c0.13724,0.36718 0.23481,0.7782 0.29288,1.23149c0.05807,0.45329 0.08707,0.93869 0.08707,1.4554c0,0.39066 -0.0185,0.69207 -0.05541,0.90423c-0.03691,0.21216 -0.09498,0.3617 -0.17415,0.44781c-0.0739,0.08064 -0.17415,0.12057 -0.3008,0.12057zM236.38449,182.6446c0.17415,0 0.35094,-0.02584 0.53034,-0.0775c0.1794,-0.05716 0.32979,-0.14092 0.45119,-0.24974c0.1214,-0.10882 0.18206,-0.24426 0.18206,-0.40476c0,-0.13779 -0.05275,-0.24974 -0.15831,-0.33586c-0.10025,-0.0916 -0.23481,-0.16049 -0.40369,-0.20668c-0.16356,-0.04619 -0.34037,-0.06889 -0.53034,-0.06889c-0.32188,0 -0.56725,0.06029 -0.73616,0.18084c-0.16356,0.12057 -0.24538,0.28106 -0.24538,0.48226c0,0.21843 0.0765,0.38753 0.22954,0.5081c0.15831,0.11509 0.3852,0.17224 0.68074,0.17224zM241.57702,183.61774c-0.72824,0 -1.26391,-0.20668 -1.60688,-0.62005c-0.33779,-0.41337 -0.5066,-0.98723 -0.5066,-1.72236c0,-0.56837 0.10025,-1.071 0.3008,-1.50707c0.20582,-0.44233 0.49869,-0.78681 0.87864,-1.03341c0.3852,-0.25288 0.84431,-0.37892 1.37732,-0.37892c0.48019,0 0.84431,0.08612 1.09237,0.25836c0.2533,0.16676 0.37995,0.38205 0.37995,0.64589c0,0.16049 -0.04749,0.28968 -0.14248,0.38753c-0.08973,0.0916 -0.2243,0.13779 -0.40369,0.13779c-0.10031,0 -0.20321,-0.01722 -0.3087,-0.05166c-0.10031,-0.03445 -0.21113,-0.06889 -0.33246,-0.10334c-0.1214,-0.03445 -0.26654,-0.05166 -0.43536,-0.05166c-0.43802,0 -0.76782,0.12605 -0.98945,0.37892c-0.21638,0.25288 -0.32454,0.61692 -0.32454,1.0937c0,0.45329 0.10549,0.78368 0.31662,0.99036c0.21106,0.2012 0.49869,0.30142 0.8628,0.30142c0.1794,0 0.33505,-0.02036 0.46703,-0.06029c0.13716,-0.04619 0.26381,-0.08925 0.37995,-0.12918c0.12133,-0.04619 0.24273,-0.06889 0.36413,-0.06889c0.12133,0 0.22164,0.04306 0.3008,0.12918c0.07915,0.08064 0.11874,0.19807 0.11874,0.35308c0,0.17772 -0.06598,0.3476 -0.1979,0.5081c-0.13198,0.16049 -0.32987,0.29279 -0.59367,0.39614c-0.26388,0.09786 -0.59633,0.14641 -0.99737,0.14641zM244.551,183.60913c-0.10031,0 -0.18206,-0.03132 -0.24538,-0.09473c-0.06333,-0.06889 -0.10823,-0.16676 -0.13456,-0.29279c-0.04224,-0.21216 -0.07915,-0.51984 -0.11082,-0.92146c-0.03167,-0.40162 -0.04749,-0.84709 -0.04749,-1.33483c0,-0.60283 0.01842,-1.18294 0.05541,-1.73959c0.04216,-0.55663 0.09498,-1.01306 0.15831,-1.36928c0.06858,-0.3844 0.15298,-0.66623 0.2533,-0.84396c0.10025,-0.18397 0.23214,-0.27558 0.39578,-0.27558c0.14773,0 0.26121,0.07437 0.34037,0.22391c0.07915,0.14327 0.11874,0.39302 0.11874,0.74923c0,0.35622 -0.01323,0.73748 -0.03957,1.14537c-0.02115,0.40789 -0.05807,0.84396 -0.11082,1.30899h0.03167c0.34296,-0.50497 0.66225,-0.90973 0.9578,-1.21426c0.3008,-0.30455 0.57546,-0.52533 0.82301,-0.66312c0.2533,-0.13779 0.47781,-0.20668 0.67282,-0.20668c0.15327,0 0.26697,0.05166 0.34037,0.15501c0.07412,0.10334 0.11082,0.22939 0.11082,0.37892c0,0.29279 -0.21588,0.62005 -0.64909,0.98175c-0.42744,0.3617 -1.04465,0.732 -1.85204,1.11092l0.00792,-0.13779c0.50127,0.28106 0.93167,0.57699 1.29004,0.88701c0.36413,0.30455 0.64117,0.59421 0.83114,0.86979c0.19572,0.2701 0.29288,0.49635 0.29288,0.68033c0,0.14953 -0.04461,0.27245 -0.13456,0.3703c-0.08419,0.0916 -0.20796,0.13779 -0.37203,0.13779c-0.20582,0 -0.43536,-0.08298 -0.68865,-0.24974c-0.24755,-0.17224 -0.50639,-0.42747 -0.77552,-0.76645c-0.26913,-0.33899 -0.53826,-0.76332 -0.8074,-1.27455h-0.03167c-0.00532,0.3617 -0.02642,0.71478 -0.06333,1.05925c-0.03167,0.33899 -0.0739,0.61692 -0.12665,0.83534c-0.03699,0.14953 -0.09498,0.2701 -0.17415,0.3617c-0.0739,0.08612 -0.17946,0.12918 -0.31662,0.12918z" fill="#000000" stroke="none" stroke-width="1"/><path d="" fill="#a5a7a9" stroke="#000000" stroke-width="1"/><path d="" fill="#000000" stroke="none" stroke-width="1"/></g></g></svg>