<svg version="1.1" xmlns="http://www.w3.org/2000/svg" xmlns:xlink="http://www.w3.org/1999/xlink" width="145.38186" height="95.50745" viewBox="0,0,145.38186,95.50745"><g transform="translate(-167.66435,-132.24628)"><g data-paper-data="{&quot;isPaintingLayer&quot;:true}" fill-rule="nonzero" stroke-linejoin="miter" stroke-miterlimit="10" stroke-dashoffset="0" style="mix-blend-mode: normal"><path d="M311.41385,216.60412h-140.79284l29.95916,-74.42178h72.88779z" fill="none" stroke="#000000" stroke-width="2" stroke-linecap="round" stroke-dasharray=""/><path d="M230.05432,139.01305c-0.19334,0 -0.41008,-0.01174 -0.65031,-0.03515c-0.23432,-0.02341 -0.46281,-0.06735 -0.68547,-0.13182c-0.21674,-0.0703 -0.39842,-0.16402 -0.54486,-0.28122c-0.14061,-0.12303 -0.21091,-0.28122 -0.21091,-0.47455c0,-0.19919 0.06152,-0.34859 0.18455,-0.44819c0.12886,-0.0996 0.3369,-0.1494 0.62395,-0.1494c0.19917,0 0.42183,0.02636 0.66789,0.07909c0.2519,0.05273 0.49213,0.07909 0.72062,0.07909c0.33978,0 0.5888,-0.05273 0.74698,-0.15818c0.16402,-0.10546 0.24606,-0.249 0.24606,-0.43061c0,-0.11131 -0.0322,-0.21091 -0.09667,-0.29879c-0.05856,-0.08788 -0.17872,-0.17576 -0.36031,-0.26364c-0.18159,-0.08788 -0.45402,-0.18455 -0.81729,-0.29c-0.41599,-0.11131 -0.75281,-0.23434 -1.01062,-0.3691c-0.25781,-0.14061 -0.44523,-0.30758 -0.56243,-0.50092c-0.1172,-0.19334 -0.17576,-0.42183 -0.17576,-0.68547c0,-0.32222 0.05568,-0.60052 0.16697,-0.83486c0.1172,-0.24021 0.27243,-0.44233 0.46577,-0.60637c0.19334,-0.1699 0.41008,-0.30465 0.65031,-0.40425c0.24023,-0.0996 0.48334,-0.17283 0.72941,-0.2197c0.2519,-0.04687 0.49213,-0.0703 0.72062,-0.0703c0.50387,0 0.91395,0.07909 1.23032,0.23728c0.3222,0.15818 0.48334,0.3691 0.48334,0.63274c0,0.18748 -0.06152,0.3398 -0.18455,0.45698c-0.1172,0.11718 -0.29879,0.17576 -0.54486,0.17576c-0.10546,0 -0.23144,-0.01464 -0.37789,-0.04394c-0.14644,-0.0293 -0.30758,-0.05858 -0.48334,-0.08788c-0.17576,-0.0293 -0.3691,-0.04394 -0.58001,-0.04394c-0.35735,0 -0.63274,0.05566 -0.82607,0.16697c-0.19334,0.11131 -0.29,0.29 -0.29,0.53607c0,0.10546 0.02636,0.20212 0.07909,0.29c0.05856,0.08788 0.17872,0.17869 0.36031,0.27243c0.18159,0.09374 0.45993,0.20212 0.83486,0.32516c0.46281,0.14061 0.82607,0.29586 1.08972,0.46577c0.26364,0.16404 0.45115,0.35152 0.56243,0.56243c0.11129,0.21091 0.16697,0.44819 0.16697,0.71183c0,0.36324 -0.09962,0.68547 -0.29879,0.96668c-0.19334,0.27538 -0.46577,0.48917 -0.81729,0.64153c-0.34569,0.15235 -0.74994,0.22849 -1.21275,0.22849zM234.10728,132.24628c0.2344,0 0.40137,0.06445 0.50092,0.19334c0.10546,0.12889 0.15818,0.27828 0.15818,0.44819c0,0.21091 -0.06439,0.37495 -0.19334,0.49213c-0.12303,0.11131 -0.29879,0.16697 -0.52728,0.16697c-0.22258,0 -0.38955,-0.06152 -0.50092,-0.18455c-0.11129,-0.12889 -0.16697,-0.27828 -0.16697,-0.44819c0,-0.22263 0.06743,-0.38961 0.20212,-0.50092c0.13478,-0.11131 0.31054,-0.16697 0.52728,-0.16697zM234.16001,134.20601c0.1875,0 0.33394,0.17576 0.4394,0.52728c0.11137,0.35152 0.16697,0.91102 0.16697,1.67851c0,0.94325 -0.06735,1.62285 -0.20212,2.03882c-0.1347,0.41599 -0.33978,0.62395 -0.61516,0.62395c-0.21091,0 -0.36614,-0.15235 -0.46577,-0.45698c-0.09954,-0.31054 -0.1494,-0.84951 -0.1494,-1.617c0,-0.94325 0.07622,-1.64336 0.22849,-2.10034c0.15818,-0.46283 0.35743,-0.69425 0.59759,-0.69425zM238.06333,133.48539c0.52137,0 0.89638,0.07616 1.12487,0.22849c0.22849,0.15233 0.34273,0.34859 0.34273,0.5888c0,0.14061 -0.04985,0.25778 -0.1494,0.35152c-0.09379,0.08788 -0.22849,0.13182 -0.40425,0.13182c-0.18167,0 -0.37205,-0.02636 -0.57122,-0.07909c-0.19334,-0.05273 -0.41895,-0.07909 -0.67668,-0.07909c-0.29879,0 -0.52145,0.05858 -0.66789,0.17576c-0.14652,0.11718 -0.2197,0.26657 -0.2197,0.44819c0,0.1699 0.06439,0.30465 0.19334,0.40425c0.1347,0.09374 0.38955,0.16404 0.76456,0.21091c0.41591,0.04687 0.75865,0.12303 1.0282,0.22849c0.2753,0.0996 0.48039,0.25192 0.61516,0.45698c0.1347,0.19919 0.20212,0.47455 0.20212,0.82607c0,0.55658 -0.19629,0.96964 -0.5888,1.23911c-0.39259,0.26947 -0.93449,0.40425 -1.62578,0.40425c-0.4394,0 -0.78805,-0.03515 -1.04577,-0.10546c-0.25781,-0.0703 -0.44531,-0.16993 -0.56243,-0.29879c-0.11137,-0.12886 -0.16697,-0.28122 -0.16697,-0.45698c0,-0.15233 0.04977,-0.2695 0.1494,-0.35152c0.10546,-0.08788 0.22849,-0.13182 0.3691,-0.13182c0.1347,0 0.27826,0.01758 0.43061,0.05273c0.15227,0.0293 0.31341,0.06152 0.48334,0.09667c0.16985,0.03515 0.34561,0.05273 0.52728,0.05273c0.58584,0 0.8788,-0.18162 0.8788,-0.54486c0,-0.12303 -0.02932,-0.22263 -0.08788,-0.29879c-0.05864,-0.07616 -0.1641,-0.13768 -0.31637,-0.18455c-0.15235,-0.05273 -0.37501,-0.09374 -0.66789,-0.12303c-0.35152,-0.03515 -0.65623,-0.09374 -0.91395,-0.17576c-0.25781,-0.08788 -0.45698,-0.22849 -0.59759,-0.42183c-0.14061,-0.19919 -0.21091,-0.47162 -0.21091,-0.81729c0,-0.54486 0.205,-0.98426 0.61516,-1.3182c0.41008,-0.3398 0.99305,-0.50971 1.74882,-0.50971zM241.30763,132.24628c0.2344,0 0.40137,0.06445 0.50092,0.19334c0.10546,0.12889 0.15818,0.27828 0.15818,0.44819c0,0.21091 -0.06439,0.37495 -0.19334,0.49213c-0.12303,0.11131 -0.29879,0.16697 -0.52728,0.16697c-0.22258,0 -0.38955,-0.06152 -0.50092,-0.18455c-0.11129,-0.12889 -0.16697,-0.27828 -0.16697,-0.44819c0,-0.22263 0.06743,-0.38961 0.20212,-0.50092c0.13478,-0.11131 0.31054,-0.16697 0.52728,-0.16697zM241.36035,134.20601c0.1875,0 0.33394,0.17576 0.4394,0.52728c0.11137,0.35152 0.16697,0.91102 0.16697,1.67851c0,0.94325 -0.06735,1.62285 -0.20212,2.03882c-0.1347,0.41599 -0.33978,0.62395 -0.61516,0.62395c-0.21091,0 -0.36614,-0.15235 -0.46577,-0.45698c-0.09954,-0.31054 -0.1494,-0.84951 -0.1494,-1.617c0,-0.94325 0.07622,-1.64336 0.22849,-2.10034c0.15818,-0.46283 0.35743,-0.69425 0.59759,-0.69425zM248.64019,139.07457c-0.19973,0 -0.33714,-0.07614 -0.41304,-0.22849c-0.0703,-0.15818 -0.11185,-0.40721 -0.12303,-0.74698l0.08788,0.04394c-0.32835,0.63857 -0.94911,0.95789 -1.86306,0.95789c-0.41623,0 -0.76216,-0.07326 -1.03699,-0.2197c-0.27562,-0.15235 -0.48094,-0.35152 -0.61516,-0.59759c-0.12942,-0.25192 -0.19358,-0.52435 -0.19358,-0.81729c0,-0.50385 0.176,-0.90223 0.52752,-1.19517c0.35152,-0.29879 0.81729,-0.44819 1.3973,-0.44819c0.38028,0 0.71183,0.05566 0.99305,0.16697c0.28122,0.11131 0.52089,0.26657 0.72062,0.46577l-0.1494,-0.01758c-0.04154,-0.59173 -0.17017,-1.01355 -0.38667,-1.26548c-0.21091,-0.25778 -0.5129,-0.38667 -0.90517,-0.38667c-0.22849,0 -0.4394,0.03515 -0.63274,0.10546c-0.19334,0.0703 -0.37229,0.14354 -0.53607,0.2197c-0.15818,0.0703 -0.30758,0.10546 -0.44819,0.10546c-0.14061,0 -0.25246,-0.04687 -0.33394,-0.14061c-0.0767,-0.09374 -0.11424,-0.21384 -0.11424,-0.36031c0,-0.21091 0.09907,-0.41011 0.29879,-0.59759c0.20452,-0.18748 0.47455,-0.3398 0.8085,-0.45698c0.33394,-0.11718 0.69665,-0.17576 1.08972,-0.17576c0.47455,0 0.8812,0.11424 1.22154,0.34273c0.33954,0.22849 0.59759,0.56243 0.77335,1.00183c0.15179,0.37495 0.26045,0.79385 0.32516,1.25669c0.06391,0.46283 0.09667,0.95789 0.09667,1.48518c0,0.39839 -0.02077,0.706 -0.06152,0.92274c-0.04154,0.21674 -0.10546,0.3691 -0.19334,0.45698c-0.08229,0.08205 -0.19334,0.12303 -0.33394,0.12303zM246.69804,138.09031c0.19334,0 0.38907,-0.02636 0.5888,-0.07909c0.19893,-0.05858 0.3659,-0.14354 0.50092,-0.25485c0.13422,-0.11131 0.20212,-0.249 0.20212,-0.41304c0,-0.14061 -0.05912,-0.25485 -0.17576,-0.34273c-0.11185,-0.09374 -0.26124,-0.16404 -0.44819,-0.21091c-0.18215,-0.04687 -0.37789,-0.0703 -0.5888,-0.0703c-0.35791,0 -0.63034,0.06152 -0.81729,0.18455c-0.18215,0.12303 -0.27243,0.28707 -0.27243,0.49213c0,0.22263 0.08468,0.39546 0.25485,0.51849c0.17576,0.11718 0.42742,0.17576 0.75577,0.17576z" fill="#0c0c0c" stroke="none" stroke-width="1" stroke-linecap="butt" stroke-dasharray=""/><path d="M230.05432,227.69221c-0.19334,0 -0.41008,-0.01198 -0.65031,-0.03515c-0.23432,-0.02317 -0.46281,-0.06711 -0.68547,-0.13182c-0.21674,-0.0703 -0.39842,-0.16378 -0.54486,-0.28122c-0.14061,-0.12303 -0.21091,-0.28122 -0.21091,-0.47455c0,-0.19893 0.06152,-0.34833 0.18455,-0.44819c0.12886,-0.09986 0.3369,-0.1494 0.62395,-0.1494c0.19917,0 0.42183,0.02636 0.66789,0.07909c0.2519,0.05273 0.49213,0.07909 0.72062,0.07909c0.33978,0 0.5888,-0.05273 0.74698,-0.15818c0.16402,-0.10546 0.24606,-0.24926 0.24606,-0.43061c0,-0.11105 -0.0322,-0.21091 -0.09667,-0.29879c-0.05856,-0.08788 -0.17872,-0.17576 -0.36031,-0.26364c-0.18159,-0.08788 -0.45402,-0.18455 -0.81729,-0.29c-0.41599,-0.11105 -0.75281,-0.23408 -1.01062,-0.3691c-0.25781,-0.14061 -0.44523,-0.30758 -0.56243,-0.50092c-0.1172,-0.19334 -0.17576,-0.42183 -0.17576,-0.68547c0,-0.32196 0.05568,-0.60078 0.16697,-0.83486c0.1172,-0.24047 0.27243,-0.4426 0.46577,-0.60637c0.19334,-0.17017 0.41008,-0.30439 0.65031,-0.40425c0.24023,-0.09986 0.48334,-0.17256 0.72941,-0.2197c0.2519,-0.04714 0.49213,-0.0703 0.72062,-0.0703c0.50387,0 0.91395,0.07909 1.23032,0.23728c0.3222,0.15818 0.48334,0.3691 0.48334,0.63274c0,0.18774 -0.06152,0.33954 -0.18455,0.45698c-0.1172,0.11744 -0.29879,0.17576 -0.54486,0.17576c-0.10546,0 -0.23144,-0.01438 -0.37789,-0.04394c-0.14644,-0.02956 -0.30758,-0.05832 -0.48334,-0.08788c-0.17576,-0.02956 -0.3691,-0.04394 -0.58001,-0.04394c-0.35735,0 -0.63274,0.05592 -0.82607,0.16697c-0.19334,0.11105 -0.29,0.29 -0.29,0.53607c0,0.10546 0.02636,0.20212 0.07909,0.29c0.05856,0.08788 0.17872,0.17896 0.36031,0.27243c0.18159,0.09347 0.45993,0.20212 0.83486,0.32516c0.46281,0.14061 0.82607,0.2956 1.08972,0.46577c0.26364,0.16378 0.45115,0.35152 0.56243,0.56243c0.11129,0.21091 0.16697,0.44819 0.16697,0.71183c0,0.3635 -0.09962,0.68547 -0.29879,0.96668c-0.19334,0.27562 -0.46577,0.48893 -0.81729,0.64153c-0.34569,0.15259 -0.74994,0.22849 -1.21275,0.22849zM234.10728,220.92543c0.2344,0 0.40137,0.06471 0.50092,0.19334c0.10546,0.12862 0.15818,0.27802 0.15818,0.44819c0,0.21091 -0.06439,0.37469 -0.19334,0.49213c-0.12303,0.11105 -0.29879,0.16697 -0.52728,0.16697c-0.22258,0 -0.38955,-0.06152 -0.50092,-0.18455c-0.11129,-0.12862 -0.16697,-0.27802 -0.16697,-0.44819c0,-0.2229 0.06743,-0.38987 0.20212,-0.50092c0.13478,-0.11105 0.31054,-0.16697 0.52728,-0.16697zM234.16001,222.88516c0.1875,0 0.33394,0.17576 0.4394,0.52728c0.11137,0.35152 0.16697,0.91076 0.16697,1.67851c0,0.94351 -0.06735,1.62259 -0.20212,2.03882c-0.1347,0.41623 -0.33978,0.62395 -0.61516,0.62395c-0.21091,0 -0.36614,-0.15259 -0.46577,-0.45698c-0.09954,-0.31078 -0.1494,-0.84924 -0.1494,-1.617c0,-0.94351 0.07622,-1.64336 0.22849,-2.10034c0.15818,-0.46257 0.35743,-0.69425 0.59759,-0.69425zM238.06333,222.16454c0.52137,0 0.89638,0.0759 1.12487,0.22849c0.22849,0.15259 0.34273,0.34833 0.34273,0.5888c0,0.14061 -0.04985,0.25805 -0.1494,0.35152c-0.09379,0.08788 -0.22849,0.13182 -0.40425,0.13182c-0.18167,0 -0.37205,-0.02636 -0.57122,-0.07909c-0.19334,-0.05273 -0.41895,-0.07909 -0.67668,-0.07909c-0.29879,0 -0.52145,0.05832 -0.66789,0.17576c-0.14652,0.11744 -0.2197,0.26684 -0.2197,0.44819c0,0.17017 0.06439,0.30439 0.19334,0.40425c0.1347,0.09347 0.38955,0.16378 0.76456,0.21091c0.41591,0.04714 0.75865,0.12303 1.0282,0.22849c0.2753,0.09986 0.48039,0.25166 0.61516,0.45698c0.1347,0.19893 0.20212,0.47455 0.20212,0.82607c0,0.55684 -0.19629,0.96988 -0.5888,1.23911c-0.39259,0.26923 -0.93449,0.40425 -1.62578,0.40425c-0.4394,0 -0.78805,-0.03515 -1.04577,-0.10546c-0.25781,-0.0703 -0.44531,-0.17017 -0.56243,-0.29879c-0.11137,-0.12862 -0.16697,-0.28122 -0.16697,-0.45698c0,-0.15259 0.04977,-0.26923 0.1494,-0.35152c0.10546,-0.08788 0.22849,-0.13182 0.3691,-0.13182c0.1347,0 0.27826,0.01758 0.43061,0.05273c0.15227,0.02956 0.31341,0.06152 0.48334,0.09667c0.16985,0.03515 0.34561,0.05273 0.52728,0.05273c0.58584,0 0.8788,-0.18135 0.8788,-0.54486c0,-0.12303 -0.02932,-0.2229 -0.08788,-0.29879c-0.05864,-0.0759 -0.1641,-0.13741 -0.31637,-0.18455c-0.15235,-0.05273 -0.37501,-0.09347 -0.66789,-0.12303c-0.35152,-0.03515 -0.65623,-0.09347 -0.91395,-0.17576c-0.25781,-0.08788 -0.45698,-0.22849 -0.59759,-0.42183c-0.14061,-0.19893 -0.21091,-0.47136 -0.21091,-0.81729c0,-0.54486 0.205,-0.98426 0.61516,-1.3182c0.41008,-0.33954 0.99305,-0.50971 1.74882,-0.50971zM241.30763,220.92543c0.2344,0 0.40137,0.06471 0.50092,0.19334c0.10546,0.12862 0.15818,0.27802 0.15818,0.44819c0,0.21091 -0.06439,0.37469 -0.19334,0.49213c-0.12303,0.11105 -0.29879,0.16697 -0.52728,0.16697c-0.22258,0 -0.38955,-0.06152 -0.50092,-0.18455c-0.11129,-0.12862 -0.16697,-0.27802 -0.16697,-0.44819c0,-0.2229 0.06743,-0.38987 0.20212,-0.50092c0.13478,-0.11105 0.31054,-0.16697 0.52728,-0.16697zM241.36035,222.88516c0.1875,0 0.33394,0.17576 0.4394,0.52728c0.11137,0.35152 0.16697,0.91076 0.16697,1.67851c0,0.94351 -0.06735,1.62259 -0.20212,2.03882c-0.1347,0.41623 -0.33978,0.62395 -0.61516,0.62395c-0.21091,0 -0.36614,-0.15259 -0.46577,-0.45698c-0.09954,-0.31078 -0.1494,-0.84924 -0.1494,-1.617c0,-0.94351 0.07622,-1.64336 0.22849,-2.10034c0.15818,-0.46257 0.35743,-0.69425 0.59759,-0.69425zM245.46772,227.75372c-0.12942,0 -0.23488,-0.04394 -0.31637,-0.13182c-0.0767,-0.08788 -0.13821,-0.21411 -0.18455,-0.37789c-0.04714,-0.24047 -0.08788,-0.55365 -0.12303,-0.94032c-0.02956,-0.39227 -0.04394,-0.81169 -0.04394,-1.25669c0,-0.25166 0.00559,-0.53607 0.01758,-0.85244c0.01118,-0.31637 0.02636,-0.63593 0.04394,-0.95789c0.02317,-0.32835 0.04634,-0.63274 0.0703,-0.91395c0.02876,-0.28122 0.05832,-0.50971 0.08788,-0.68547c0.04634,-0.25805 0.11424,-0.46017 0.20212,-0.60637c0.09347,-0.15259 0.23967,-0.22849 0.4394,-0.22849c0.20452,0 0.35392,0.07909 0.44819,0.23728c0.09347,0.15259 0.14061,0.34273 0.14061,0.57122c0,0.25805 -0.02077,0.56243 -0.06152,0.91395c-0.03515,0.35152 -0.09108,0.70863 -0.16697,1.07214l-0.17576,0.21091c0.06391,-0.24606 0.16937,-0.47136 0.31637,-0.67668c0.1462,-0.20532 0.33075,-0.3659 0.55365,-0.48334c0.2221,-0.12303 0.48015,-0.18455 0.77335,-0.18455c0.57362,0 1.0306,0.20532 1.37093,0.61516c0.34513,0.40425 0.51849,1.03699 0.51849,1.89821c0,0.60318 -0.09108,1.10729 -0.27243,1.51154c-0.17576,0.40425 -0.41943,0.70863 -0.72941,0.91395c-0.30518,0.19893 -0.65351,0.29879 -1.04577,0.29879c-0.3691,0 -0.68866,-0.10865 -0.95789,-0.32516c-0.26364,-0.2165 -0.43381,-0.53048 -0.50971,-0.94032l0.12303,0.09667c-0.02397,0.42183 -0.08229,0.7326 -0.17576,0.93153c-0.08788,0.19334 -0.20212,0.29 -0.34273,0.29zM247.07593,226.68159c0.2924,0 0.55045,-0.13182 0.77335,-0.39546c0.2221,-0.26364 0.33394,-0.67668 0.33394,-1.23911c0,-0.46896 -0.08788,-0.84924 -0.26364,-1.14244c-0.17017,-0.2932 -0.45698,-0.4394 -0.86123,-0.4394c-0.32835,0 -0.59199,0.13182 -0.79092,0.39546c-0.19973,0.25805 -0.29879,0.65031 -0.29879,1.1776c0,0.48015 0.09907,0.87561 0.29879,1.18638c0.19893,0.30439 0.46816,0.45698 0.8085,0.45698z" fill="#0c0c0c" stroke="none" stroke-width="1" stroke-linecap="butt" stroke-dasharray=""/><path d="M173.68402,197.16373c-0.06967,0.18031 -0.15874,0.37828 -0.26716,0.59391c-0.10634,0.21011 -0.22969,0.40744 -0.37006,0.59191c-0.14364,0.1768 -0.29656,0.31245 -0.45866,0.40681c-0.16544,0.08684 -0.33833,0.09539 -0.51868,0.02572c-0.1858,-0.07182 -0.30299,-0.18303 -0.35154,-0.33371c-0.04645,-0.15611 -0.01794,-0.36806 0.08554,-0.63585c0.0718,-0.18583 0.17663,-0.38396 0.31451,-0.59447c0.13999,-0.21603 0.25115,-0.43053 0.33351,-0.64368c0.12247,-0.31693 0.16303,-0.56819 0.12168,-0.75377c-0.03924,-0.19102 -0.14356,-0.31932 -0.31297,-0.38476c-0.10383,-0.04011 -0.20836,-0.04594 -0.31356,-0.0175c-0.10309,0.02293 -0.22835,0.1033 -0.37578,0.24103c-0.14744,0.13773 -0.3358,0.35703 -0.56509,0.65782c-0.25376,0.34793 -0.48994,0.6178 -0.70855,0.8097c-0.22408,0.18974 -0.4474,0.30447 -0.66997,0.34409c-0.22257,0.03955 -0.45682,0.0119 -0.70274,-0.08317c-0.30057,-0.11616 -0.54009,-0.26835 -0.71856,-0.45666c-0.18182,-0.19589 -0.3144,-0.41352 -0.39774,-0.65303c-0.0888,-0.24159 -0.13636,-0.49237 -0.14268,-0.75225c-0.00633,-0.25997 0.013,-0.51322 0.05797,-0.7596c0.04708,-0.2519 0.1118,-0.48438 0.19415,-0.69753c0.18161,-0.47 0.4032,-0.824 0.66478,-1.06207c0.2637,-0.24359 0.5185,-0.31781 0.76442,-0.22282c0.17487,0.06759 0.29479,0.17983 0.35974,0.33682c0.06707,0.15155 0.05625,0.34209 -0.03244,0.57162c-0.03801,0.09835 -0.09708,0.21059 -0.17719,0.33666c-0.08011,0.12607 -0.16551,0.2658 -0.25619,0.41919c-0.09068,0.15339 -0.17403,0.32843 -0.25004,0.5252c-0.12881,0.33331 -0.17614,0.61021 -0.142,0.83071c0.03415,0.22042 0.16598,0.37501 0.39551,0.46369c0.09837,0.03803 0.19804,0.04825 0.29902,0.03076c0.10308,-0.02293 0.23109,-0.10226 0.38398,-0.23792c0.1529,-0.13558 0.35431,-0.35607 0.60422,-0.6615c0.29798,-0.38108 0.57372,-0.6639 0.82723,-0.8486c0.24804,-0.18679 0.49049,-0.29408 0.72734,-0.32188c0.23686,-0.0278 0.47825,0.00575 0.72413,0.10082c0.3389,0.13086 0.6035,0.33994 0.79404,0.62715c0.18718,0.27954 0.28849,0.61077 0.30383,0.99353c0.0175,0.37733 -0.05712,0.78189 -0.22401,1.21363zM168.83295,190.94413c0.08447,-0.21858 0.20477,-0.35112 0.36089,-0.39754c0.15824,-0.05193 0.3166,-0.04722 0.47508,0.01398c0.19673,0.07606 0.32652,0.19525 0.38937,0.35775c0.05949,0.15483 0.04805,0.3389 -0.03431,0.55197c-0.08024,0.20772 -0.1978,0.34129 -0.35269,0.40073c-0.16035,0.05744 -0.31976,0.05544 -0.47825,-0.00575c-0.20766,-0.08029 -0.33913,-0.20324 -0.39439,-0.3691c-0.05527,-0.16577 -0.04383,-0.34984 0.0343,-0.55205zM170.67996,191.60131c0.06757,-0.17488 0.28432,-0.24814 0.65022,-0.21978c0.36802,0.02285 0.90998,0.17256 1.62587,0.44923c0.87984,0.33994 1.48949,0.64776 1.82895,0.92338c0.33946,0.27562 0.45953,0.5419 0.36023,0.79875c-0.07598,0.19669 -0.27403,0.28665 -0.59407,0.26971c-0.32556,-0.01901 -0.84629,-0.16681 -1.56219,-0.44348c-0.87984,-0.33994 -1.50544,-0.66334 -1.8768,-0.97012c-0.37471,-0.31437 -0.51878,-0.5836 -0.4322,-0.8077zM171.41466,187.70071c0.18794,-0.48638 0.39413,-0.80866 0.61857,-0.96692c0.22445,-0.15818 0.4487,-0.19406 0.67277,-0.10745c0.13118,0.05065 0.2225,0.13933 0.27403,0.26604c0.04817,0.11912 0.04058,0.26068 -0.02277,0.42462c-0.06543,0.16937 -0.15866,0.33746 -0.27962,0.50427c-0.11889,0.16138 -0.22477,0.36223 -0.31769,0.6027c-0.1077,0.27874 -0.13329,0.50747 -0.07679,0.68634c0.05651,0.17888 0.16947,0.30103 0.33887,0.36646c0.1585,0.06128 0.30742,0.04969 0.44675,-0.03459c0.13605,-0.09195 0.29344,-0.30431 0.47232,-0.63713c0.19366,-0.37117 0.38827,-0.66342 0.58376,-0.87681c0.19214,-0.2209 0.40808,-0.35727 0.648,-0.40904c0.23432,-0.05393 0.51546,-0.0175 0.84333,0.10921c0.51921,0.20061 0.83374,0.53255 0.94367,0.99584c0.10985,0.46329 0.04027,1.01733 -0.20892,1.66221c-0.15842,0.40984 -0.31685,0.7223 -0.47535,0.93744c-0.1585,0.21515 -0.31893,0.35408 -0.48142,0.41695c-0.16034,0.05736 -0.32252,0.05441 -0.48646,-0.00895c-0.14205,-0.05497 -0.23344,-0.14364 -0.27403,-0.26612c-0.04394,-0.12998 -0.04058,-0.2606 0.01007,-0.39179c0.04857,-0.12567 0.11672,-0.25325 0.20444,-0.38268c0.08221,-0.1315 0.17033,-0.27019 0.26436,-0.41599c0.09403,-0.1458 0.17376,-0.30343 0.23919,-0.4728c0.21123,-0.54654 0.1474,-0.88519 -0.19142,-1.01614c-0.1148,-0.04434 -0.21826,-0.05297 -0.31046,-0.02572c-0.09211,0.02716 -0.1875,0.10338 -0.28617,0.22857c-0.10402,0.12311 -0.22258,0.31597 -0.35544,0.57865c-0.15954,0.31525 -0.32396,0.57825 -0.49341,0.78916c-0.17488,0.20884 -0.37781,0.34393 -0.60885,0.40537c-0.23648,0.05936 -0.51594,0.02676 -0.83837,-0.09779c-0.50824,-0.19645 -0.84419,-0.54606 -1.00787,-1.04897c-0.16915,-0.50499 -0.11752,-1.11001 0.15489,-1.81497zM171.42821,184.22776c0.08447,-0.21858 0.20477,-0.35112 0.36089,-0.39754c0.15824,-0.05193 0.3166,-0.04722 0.47508,0.01398c0.19673,0.07606 0.32652,0.19525 0.38933,0.35775c0.05952,0.15483 0.04809,0.3389 -0.03427,0.55197c-0.08023,0.20772 -0.19779,0.34129 -0.35268,0.40073c-0.16035,0.05744 -0.31976,0.05544 -0.47824,-0.00575c-0.20767,-0.08029 -0.33914,-0.20324 -0.3944,-0.3691c-0.05527,-0.16577 -0.04383,-0.34984 0.0343,-0.55205zM173.27522,184.88494c0.06759,-0.17488 0.28433,-0.24814 0.65023,-0.21978c0.36798,0.02285 0.90996,0.17256 1.62586,0.44923c0.87984,0.33994 1.48949,0.64776 1.82895,0.92338c0.33938,0.27562 0.45953,0.5419 0.36023,0.79875c-0.07598,0.19669 -0.27403,0.28665 -0.59407,0.26971c-0.32556,-0.01901 -0.84629,-0.16681 -1.56219,-0.44348c-0.87984,-0.33994 -1.50547,-0.66334 -1.8768,-0.97012c-0.37469,-0.31437 -0.51881,-0.5836 -0.43221,-0.8077zM180.68057,179.1792c-0.04442,0.11472 -0.11456,0.20692 -0.21059,0.27658c-0.09387,0.06423 -0.22409,0.09243 -0.39067,0.0846c-0.17201,-0.00991 -0.39195,-0.06663 -0.65974,-0.17009c-0.38795,-0.14996 -0.80011,-0.31861 -1.23648,-0.50611c-0.4418,-0.1895 -0.88416,-0.38563 -1.32723,-0.58816c-0.44635,-0.21019 -0.87736,-0.41128 -1.29312,-0.60334l-0.01262,0.03276c0.71846,0.49748 1.24047,0.93473 1.56587,1.31165c0.31988,0.37485 0.42814,0.69617 0.32468,0.96397c-0.06335,0.16394 -0.19629,0.28849 -0.39874,0.37357c-0.2058,0.07749 -0.51162,0.11321 -0.91755,0.10705c-0.40928,-0.01366 -0.95222,-0.06327 -1.6289,-0.14892l-0.01262,0.03284c0.296,0.09547 0.61109,0.19837 0.94527,0.3087c0.33426,0.11033 0.67013,0.22441 1.00775,0.34225c0.3397,0.11249 0.66086,0.22401 0.96357,0.33466c0.30478,0.10522 0.57466,0.20324 0.80962,0.294c0.2022,0.07813 0.38068,0.16913 0.53527,0.27283c0.15675,0.09827 0.26636,0.21283 0.32883,0.34369c0.06455,0.12551 0.06623,0.26748 0.00503,0.4259c-0.08237,0.21315 -0.22833,0.3389 -0.43788,0.37733c-0.21499,0.03619 -0.52193,-0.02269 -0.92091,-0.17688c-0.23496,-0.09084 -0.50611,-0.20188 -0.81337,-0.33315c-0.31062,-0.13885 -0.62842,-0.28361 -0.95334,-0.43429c-0.33035,-0.15283 -0.64496,-0.30574 -0.94375,-0.45889c-0.30431,-0.15531 -0.56659,-0.29743 -0.78677,-0.42654c-0.34625,-0.20915 -0.57378,-0.40065 -0.68243,-0.57458c-0.11416,-0.176 -0.13422,-0.35967 -0.06032,-0.55093c0.0612,-0.15842 0.19246,-0.28673 0.3937,-0.38484c0.19573,-0.10026 0.49197,-0.16793 0.88863,-0.20308c0.39123,-0.03723 0.9114,-0.03411 1.56035,0.00935l0.01262,-0.03276c-0.52265,-0.40297 -0.93089,-0.75225 -1.22489,-1.04801c-0.29943,-0.29783 -0.49988,-0.55117 -0.60134,-0.76c-0.10146,-0.20876 -0.12687,-0.37876 -0.07622,-0.50987c0.08021,-0.20772 0.22346,-0.3345 0.42965,-0.38044c0.20069,-0.04809 0.46233,-0.05057 0.78493,-0.00759c0.37046,0.04897 0.79204,0.13645 1.2646,0.26252c0.47256,0.12607 0.95086,0.27003 1.43468,0.43189c0.48055,0.15435 0.92578,0.31062 1.33562,0.46904c0.47,0.18159 0.77694,0.37868 0.92091,0.59135c0.13845,0.21051 0.16442,0.42782 0.07789,0.65191zM175.2979,174.21325c0.08444,-0.21858 0.20476,-0.35112 0.36087,-0.39754c0.15826,-0.05193 0.31661,-0.04722 0.47511,0.01398c0.19669,0.07606 0.32652,0.19525 0.38931,0.35775c0.05952,0.15483 0.04809,0.3389 -0.03427,0.55197c-0.08021,0.20772 -0.19781,0.34129 -0.35272,0.40073c-0.16034,0.05744 -0.31972,0.05544 -0.47823,-0.00575c-0.20764,-0.08029 -0.33914,-0.20324 -0.39434,-0.3691c-0.05528,-0.16585 -0.04386,-0.34984 0.03427,-0.55205zM177.1449,174.87043c0.06759,-0.17488 0.28433,-0.24814 0.65023,-0.21978c0.36798,0.02285 0.90996,0.17256 1.62586,0.44923c0.87984,0.33994 1.48949,0.64776 1.82895,0.92338c0.33938,0.27562 0.45953,0.5419 0.36023,0.79875c-0.07598,0.19669 -0.27403,0.28665 -0.59415,0.26971c-0.32548,-0.01901 -0.84621,-0.16681 -1.56211,-0.44348c-0.87984,-0.33994 -1.50547,-0.66334 -1.8768,-0.97012c-0.37469,-0.31437 -0.51881,-0.5836 -0.43221,-0.8077zM178.51272,173.59808c-0.52457,-0.20276 -0.88264,-0.39762 -1.07422,-0.58472c-0.19693,-0.18918 -0.2606,-0.37389 -0.19094,-0.55428c0.05497,-0.14205 0.15834,-0.23089 0.31022,-0.26636c0.14644,-0.03763 0.31453,-0.04178 0.50419,-0.01246c0.18415,0.02716 0.36366,0.07462 0.53855,0.14213l-0.0322,0.03467c-0.25925,-0.20692 -0.45842,-0.44723 -0.59767,-0.72086c-0.13709,-0.27906 -0.15283,-0.55524 -0.0473,-0.82847c0.12463,-0.32244 0.35032,-0.50843 0.67724,-0.55796c0.32148,-0.05169 0.67891,-0.00144 1.07238,0.15059c0.52465,0.20268 0.86754,0.40433 1.02876,0.60478c0.16122,0.20045 0.20276,0.40177 0.12463,0.60398c-0.05704,0.14756 -0.15938,0.23368 -0.30702,0.25821c-0.14556,0.01917 -0.36718,-0.04138 -0.66477,-0.18143c-0.31397,-0.14644 -0.54542,-0.21395 -0.69433,-0.20236c-0.14892,0.0115 -0.2487,0.08285 -0.29943,0.21403c-0.0612,0.1585 -0.01079,0.32867 0.15131,0.51066c0.15874,0.1744 0.38292,0.31757 0.67252,0.42949c0.1148,0.04434 0.26484,0.0866 0.45027,0.12687c0.18543,0.04027 0.38835,0.08413 0.60869,0.13158c0.21491,0.0453 0.4287,0.09339 0.64145,0.1442c0.21275,0.05081 0.40385,0.10897 0.57322,0.1744c0.30063,0.11616 0.49852,0.24598 0.59375,0.38955c0.09531,0.14364 0.11017,0.30015 0.04474,0.46952c-0.0739,0.19126 -0.19102,0.31557 -0.35144,0.37301c-0.16577,0.0552 -0.39858,0.05632 -0.69841,0.00328c-0.26827,-0.05337 -0.58305,-0.12479 -0.94423,-0.21411c-0.36119,-0.08932 -0.72733,-0.18998 -1.09858,-0.30199c-0.37125,-0.11209 -0.70168,-0.22409 -0.99137,-0.33594zM177.70758,167.97718c0.08444,-0.21858 0.20476,-0.35112 0.36087,-0.39754c0.15826,-0.05193 0.31661,-0.04722 0.47511,0.01398c0.19669,0.07606 0.32652,0.19525 0.38931,0.35775c0.05952,0.15491 0.04809,0.3389 -0.03427,0.55205c-0.08029,0.20764 -0.19781,0.34122 -0.35272,0.40065c-0.16034,0.05744 -0.31972,0.05544 -0.47823,-0.00575c-0.20764,-0.08021 -0.33914,-0.20324 -0.39442,-0.3691c-0.0552,-0.16577 -0.04378,-0.34984 0.03435,-0.55205zM179.55458,168.63437c0.06759,-0.17488 0.28433,-0.24814 0.65023,-0.21978c0.36798,0.02285 0.90996,0.17256 1.62586,0.44923c0.87984,0.34002 1.48949,0.64776 1.82887,0.92338c0.33946,0.27562 0.45953,0.5419 0.36031,0.79875c-0.07598,0.19669 -0.27403,0.28665 -0.59415,0.26971c-0.32556,-0.01901 -0.84621,-0.16681 -1.56211,-0.44348c-0.87984,-0.33994 -1.50547,-0.66334 -1.8768,-0.97012c-0.37477,-0.31437 -0.51881,-0.5836 -0.43221,-0.8077zM179.84379,165.98422c0.06751,-0.17488 0.18399,-0.26492 0.34928,-0.27011c0.16745,-0.01071 0.39051,0.03779 0.66925,0.14548c0.06551,0.02541 0.13446,0.05832 0.20676,0.09875c0.06895,0.03292 0.1303,0.06919 0.18407,0.10881l-0.17025,-0.0469c-0.30454,-0.26843 -0.50244,-0.57729 -0.59359,-0.92658c-0.09659,-0.35136 -0.0858,-0.68003 0.03252,-0.9861c0.13086,-0.33882 0.3353,-0.58329 0.61308,-0.73348c0.28002,-0.15555 0.61324,-0.22154 0.99976,-0.19781c0.38867,0.0183 0.81793,0.11824 1.28792,0.29983c0.28961,0.11193 0.5713,0.23648 0.84485,0.37357c0.27027,0.12958 0.5145,0.26164 0.7326,0.3961c0.21475,0.12695 0.38635,0.24351 0.5149,0.34976c0.1605,0.13733 0.26708,0.27594 0.31988,0.41567c0.0473,0.13757 0.04354,0.27746 -0.01142,0.41951c-0.05489,0.14213 -0.149,0.23136 -0.28242,0.26772c-0.13342,0.03643 -0.28753,0.02077 -0.46241,-0.04674c-0.18583,-0.07182 -0.40457,-0.17209 -0.65631,-0.30079c-0.25725,-0.13078 -0.51825,-0.25989 -0.78309,-0.38731c-0.26811,-0.13502 -0.51426,-0.24583 -0.73827,-0.33243c-0.76512,-0.2956 -1.24478,-0.19206 -1.43908,0.3107c-0.10346,0.2678 -0.06982,0.53831 0.10098,0.81161c0.16529,0.27107 0.4549,0.52121 0.8689,0.75026c0.14125,0.07342 0.32116,0.15235 0.53974,0.2368c0.21858,0.08444 0.43716,0.16897 0.65575,0.25341c0.21523,0.07686 0.39346,0.15203 0.53471,0.22545c0.3194,0.14852 0.53016,0.30223 0.6321,0.46097c0.1041,0.15323 0.12231,0.31733 0.05481,0.49221c-0.07813,0.2022 -0.23017,0.31932 -0.4561,0.35136c-0.23144,0.02988 -0.57114,-0.0417 -1.01933,-0.21491c-0.22953,-0.08868 -0.48422,-0.19334 -0.76416,-0.31413c-0.27994,-0.12072 -0.55884,-0.24415 -0.8367,-0.37038c-0.28122,-0.13382 -0.53399,-0.25973 -0.75841,-0.37789c-0.42159,-0.22569 -0.74075,-0.44004 -0.95742,-0.64312c-0.22226,-0.20524 -0.2932,-0.41168 -0.21291,-0.61932zM187.11004,161.95475c-0.19845,0.5137 -0.55676,0.85579 -1.07486,1.02612c-0.52353,0.16833 -1.18966,0.09619 -1.99848,-0.21635c-0.86346,-0.33363 -1.43445,-0.73332 -1.71303,-1.19893c-0.27858,-0.46569 -0.31964,-0.95262 -0.12327,-1.46081c0.11616,-0.30063 0.29504,-0.53607 0.53679,-0.70648c0.24167,-0.17041 0.53359,-0.28369 0.87561,-0.34002l0.08948,0.10993c-0.08285,-0.0131 -0.17017,-0.03116 -0.2618,-0.05401c-0.09164,-0.02285 -0.1593,-0.04274 -0.20308,-0.0596c-0.22401,-0.0866 -0.38244,-0.18862 -0.47519,-0.30614c-0.09619,-0.12511 -0.11361,-0.26684 -0.05241,-0.42534c0.06759,-0.17488 0.19142,-0.28401 0.37157,-0.32755c0.18215,-0.04889 0.41503,-0.05001 0.69841,-0.00328c0.29528,0.03244 0.66006,0.10426 1.09435,0.21555c0.42886,0.10921 0.85372,0.24511 1.2745,0.40776c0.52465,0.20268 0.95718,0.39179 1.29759,0.56731c0.3405,0.17552 0.61125,0.3524 0.81249,0.53064c0.20117,0.17824 0.36175,0.37221 0.48174,0.58185c0.19342,0.34481 0.29208,0.73148 0.296,1.1601c0.01158,0.42534 -0.07558,0.8784 -0.2614,1.35935c-0.13302,0.34425 -0.27251,0.60757 -0.41831,0.78988c-0.14037,0.18447 -0.28313,0.30199 -0.4283,0.35264c-0.13765,0.04738 -0.27203,0.0457 -0.40321,-0.00503c-0.13661,-0.05281 -0.23656,-0.13542 -0.29991,-0.24782c-0.05792,-0.11025 -0.05728,-0.24191 0.00184,-0.3949c0.05281,-0.13661 0.13589,-0.28665 0.24934,-0.45011c0.11552,-0.16897 0.22186,-0.37908 0.31893,-0.6305c0.20484,-0.53008 0.22385,-0.95294 0.05688,-1.26875c-0.1593,-0.31909 -0.47128,-0.56835 -0.93576,-0.74786c-0.12567,-0.04857 -0.27642,-0.09739 -0.45218,-0.14644l0.08532,-0.09891c0.29696,0.27179 0.50028,0.58273 0.60997,0.93289c0.10418,0.34801 0.08764,0.69961 -0.04961,1.0548zM186.22213,161.25371c0.06759,-0.17488 0.08868,-0.36774 0.06335,-0.57849c-0.02533,-0.21075 -0.12239,-0.41471 -0.29112,-0.61189c-0.16881,-0.19709 -0.43357,-0.36534 -0.7942,-0.50467c-0.43173,-0.16689 -0.82328,-0.20196 -1.17472,-0.10538c-0.35136,0.09667 -0.59775,0.32803 -0.73923,0.69417c-0.12247,0.31701 -0.09203,0.59567 0.0914,0.83614c0.18343,0.24047 0.51841,0.45466 1.00479,0.64264c0.46449,0.17944 0.85643,0.24614 1.17576,0.19989c0.31381,-0.04825 0.53519,-0.23911 0.66398,-0.57242zM184.0872,153.29567c0.04011,-0.10386 0.1029,-0.17696 0.18838,-0.2193c0.08548,-0.04234 0.20979,-0.06343 0.37301,-0.06311c0.25022,0.00248 0.57514,0.05576 0.97451,0.15986c0.39946,0.1041 0.87241,0.26172 1.41895,0.47288c0.33882,0.13094 0.67404,0.2793 1.00559,0.44515c0.33379,0.16034 0.63322,0.32004 0.89838,0.47903c0.26516,0.15898 0.46704,0.30295 0.60565,0.43189c0.12982,0.1192 0.21754,0.22537 0.26324,0.31837c0.04027,0.09092 0.04035,0.1883 0.00016,0.29216c-0.04011,0.10378 -0.11384,0.17264 -0.22114,0.2066c-0.11065,0.02628 -0.26356,0.02373 -0.45865,-0.00767c-0.20604,-0.03563 -0.44451,-0.09323 -0.71527,-0.17272c-0.27411,-0.08708 -0.55868,-0.18766 -0.8538,-0.30167c-0.27874,-0.10769 -0.56475,-0.23704 -0.85811,-0.38811c-0.29336,-0.15107 -0.57602,-0.31365 -0.84788,-0.48782c-0.27187,-0.17408 -0.51594,-0.34697 -0.73236,-0.51849l0.02724,-0.04602c0.13126,0.24543 0.21147,0.49309 0.24047,0.74299c0.02908,0.2499 0.00767,0.46776 -0.06407,0.65359c-0.03595,0.09291 -0.089,0.15715 -0.1593,0.19278c-0.06823,0.0302 -0.14604,0.02844 -0.23344,-0.00535c-0.16945,-0.06551 -0.32092,-0.17744 -0.45442,-0.33578c-0.13685,-0.16593 -0.24575,-0.3556 -0.32659,-0.56898c-0.08628,-0.21547 -0.13621,-0.43581 -0.14972,-0.66086c-0.01901,-0.22713 0.00743,-0.43365 0.07917,-0.6194z" fill="#0c0c0c" stroke="none" stroke-width="1" stroke-linecap="butt" stroke-dasharray=""/><path d="M285.43645,157.15793c-0.09108,-0.17065 -0.18295,-0.36742 -0.27562,-0.5904c-0.08948,-0.21778 -0.15818,-0.44004 -0.20612,-0.66685c-0.03995,-0.22433 -0.04234,-0.4287 -0.00799,-0.61308c0.04234,-0.18191 0.1486,-0.31845 0.31956,-0.40944c0.17576,-0.09371 0.33634,-0.10977 0.48174,-0.04809c0.1486,0.06687 0.2908,0.22697 0.42582,0.48023c0.09347,0.17576 0.17496,0.3846 0.24447,0.62659c0.0719,0.24702 0.16218,0.47144 0.26923,0.673c0.15978,0.29983 0.32356,0.49469 0.49133,0.58464c0.17017,0.09515 0.33554,0.09994 0.49533,0.01446c0.09827,-0.05241 0.17097,-0.12767 0.2189,-0.22593c0.04953,-0.09299 0.0703,-0.24031 0.06232,-0.44196c-0.00719,-0.20165 -0.05033,-0.4875 -0.12862,-0.85763c-0.09747,-0.41935 -0.147,-0.77454 -0.1494,-1.06535c0.0024,-0.29368 0.06152,-0.53767 0.17656,-0.73204c0.11584,-0.19438 0.29,-0.3536 0.52249,-0.47767c0.28441,-0.15163 0.55604,-0.23352 0.81489,-0.24559c0.26764,-0.00967 0.51849,0.0322 0.75417,0.12559c0.24127,0.09068 0.46257,0.2185 0.6631,0.38356c0.20133,0.16506 0.38028,0.34513 0.53687,0.54022c0.16058,0.20021 0.294,0.40113 0.40105,0.6027c0.23728,0.44459 0.36111,0.84365 0.3699,1.19725c0.01198,0.35871 -0.09827,0.60014 -0.33075,0.72421c-0.16537,0.08828 -0.32835,0.10562 -0.48973,0.05225c-0.15898,-0.04825 -0.2956,-0.18095 -0.41144,-0.39802c-0.05033,-0.09307 -0.09667,-0.21107 -0.13901,-0.35416c-0.04314,-0.14301 -0.09347,-0.29895 -0.1502,-0.46776c-0.05672,-0.16889 -0.13502,-0.34641 -0.23408,-0.53247c-0.16857,-0.31533 -0.34673,-0.53207 -0.53607,-0.65031c-0.18934,-0.11816 -0.39227,-0.11936 -0.60957,-0.0036c-0.09347,0.04969 -0.16617,0.1184 -0.2189,0.20628c-0.04953,0.09307 -0.0735,0.24175 -0.0711,0.44611c0.0032,0.20436 0.03835,0.50092 0.10626,0.88967c0.09427,0.47455 0.12783,0.8681 0.10226,1.18071c-0.02077,0.30982 -0.09827,0.56347 -0.23168,0.76096c-0.13422,0.19749 -0.31717,0.35823 -0.54965,0.4823c-0.32036,0.17097 -0.65191,0.23472 -0.99385,0.19134c-0.33394,-0.04106 -0.65031,-0.18079 -0.9507,-0.41927c-0.2964,-0.23328 -0.55444,-0.55412 -0.77175,-0.96245zM293.31451,157.54939c0.11025,0.20676 0.13182,0.38444 0.06471,0.53295c-0.06391,0.15371 -0.17097,0.27059 -0.32116,0.35056c-0.18615,0.09922 -0.36111,0.1196 -0.52488,0.06096c-0.15579,-0.05616 -0.28761,-0.18503 -0.39546,-0.38667c-0.10466,-0.19637 -0.12942,-0.37269 -0.0727,-0.5288c0.06072,-0.1589 0.16697,-0.27826 0.31637,-0.35823c0.19653,-0.10482 0.37549,-0.12391 0.53767,-0.05744c0.16138,0.06655 0.2932,0.19541 0.39546,0.38667zM291.60964,158.51823c0.08868,0.16537 0.0024,0.37733 -0.25805,0.63585c-0.25805,0.26364 -0.72541,0.57609 -1.40289,0.93728c-0.83167,0.44388 -1.46361,0.70424 -1.89342,0.78118c-0.43061,0.07686 -0.71103,-0.00623 -0.84045,-0.24918c-0.09907,-0.18607 -0.03755,-0.39474 0.18375,-0.62603c0.22769,-0.234 0.67987,-0.5316 1.35655,-0.89278c0.83247,-0.44396 1.48598,-0.70624 1.96133,-0.78685c0.48254,-0.07829 0.78054,-0.01142 0.89318,0.20053zM294.08227,161.62304c0.24606,0.46009 0.35472,0.82679 0.32835,1.1001c-0.02716,0.27323 -0.1462,0.4664 -0.35871,0.57945c-0.12383,0.06623 -0.25086,0.07741 -0.38028,0.03363c-0.12143,-0.04138 -0.2237,-0.13957 -0.30678,-0.29464c-0.08548,-0.16026 -0.15179,-0.34066 -0.19893,-0.54126c-0.04394,-0.19541 -0.12703,-0.40681 -0.24846,-0.63426c-0.14061,-0.26364 -0.2972,-0.43253 -0.46976,-0.50659c-0.17177,-0.07406 -0.33794,-0.06839 -0.49852,0.0171c-0.1502,0.07997 -0.23808,0.20021 -0.26524,0.36079c-0.01997,0.16306 0.03835,0.42103 0.17336,0.77391c0.15419,0.38907 0.24846,0.72733 0.28202,1.0147c0.04234,0.28985 0.00399,0.54246 -0.11345,0.75785c-0.11265,0.21267 -0.32356,0.40169 -0.63354,0.56715c-0.49133,0.26196 -0.94831,0.28313 -1.37093,0.06359c-0.42262,-0.21946 -0.79651,-0.63426 -1.12167,-1.24422c-0.20692,-0.38771 -0.33954,-0.71183 -0.39866,-0.97235c-0.05992,-0.26052 -0.05992,-0.4728 -0.0016,-0.63689c0.06152,-0.15882 0.17017,-0.27962 0.32516,-0.36239c0.13422,-0.07166 0.26124,-0.08285 0.38028,-0.03355c0.12703,0.05169 0.2237,0.13957 0.29,0.26364c0.06311,0.11888 0.11504,0.25381 0.15579,0.40473c0.04634,0.1482 0.09347,0.3055 0.14221,0.47192c0.04953,0.16649 0.11664,0.32987 0.20212,0.49013c0.27562,0.5169 0.57362,0.68986 0.89398,0.51897c0.10865,-0.05792 0.18295,-0.13062 0.2221,-0.21818c0.03995,-0.08756 0.04474,-0.20955 0.01438,-0.36598c-0.02557,-0.15922 -0.09427,-0.37501 -0.20612,-0.6472c-0.13422,-0.32675 -0.22609,-0.62307 -0.27483,-0.88919c-0.04394,-0.26875 -0.01358,-0.51074 0.09108,-0.72573c0.10945,-0.21786 0.31637,-0.40808 0.62155,-0.57074c0.48094,-0.25645 0.96508,-0.28234 1.45242,-0.07757c0.49293,0.20188 0.91715,0.63625 1.27267,1.3031zM296.7027,163.9025c0.11025,0.20684 0.13182,0.38444 0.06551,0.53303c-0.06391,0.15363 -0.17097,0.27051 -0.32116,0.35048c-0.18615,0.09922 -0.36111,0.1196 -0.52488,0.06104c-0.15659,-0.05624 -0.28841,-0.18511 -0.39546,-0.38667c-0.10546,-0.19645 -0.12942,-0.37277 -0.0735,-0.52888c0.06152,-0.15882 0.16697,-0.27826 0.31717,-0.35823c0.19653,-0.10474 0.37549,-0.12391 0.53687,-0.05736c0.16138,0.06647 0.2932,0.19533 0.39546,0.38659zM294.99862,164.87134c0.08788,0.16545 0.0016,0.37741 -0.25885,0.63585c-0.25725,0.26364 -0.72461,0.57609 -1.40209,0.93728c-0.83247,0.44388 -1.46361,0.70432 -1.89422,0.78118c-0.43061,0.07686 -0.71023,-0.00623 -0.83966,-0.24918c-0.09986,-0.18607 -0.03835,-0.39474 0.18375,-0.62603c0.22689,-0.234 0.67907,-0.5316 1.35655,-0.89278c0.83247,-0.44388 1.48598,-0.70616 1.96053,-0.78685c0.48254,-0.07829 0.78054,-0.01142 0.89398,0.20053zM294.47933,174.20542c-0.05832,-0.10857 -0.08229,-0.22194 -0.0719,-0.34018c0.01278,-0.11305 0.0767,-0.23001 0.19094,-0.35096c0.11984,-0.12375 0.30678,-0.25317 0.56004,-0.38827c0.3667,-0.19573 0.76376,-0.39754 1.19118,-0.60534c0.43221,-0.21059 0.86922,-0.41743 1.31261,-0.62043c0.45059,-0.20061 0.88439,-0.39546 1.30143,-0.58472l-0.01678,-0.031c-0.84605,0.2189 -1.51793,0.32835 -2.01565,0.32835c-0.49293,-0.00272 -0.8069,-0.13078 -0.94192,-0.38404c-0.08309,-0.15507 -0.09028,-0.33706 -0.02237,-0.5459c0.0759,-0.20644 0.24846,-0.46129 0.51849,-0.76456c0.27802,-0.30095 0.67029,-0.67947 1.1768,-1.13581l-0.01598,-0.031c-0.26604,0.16162 -0.54965,0.33291 -0.85164,0.51386c-0.30199,0.18095 -0.60797,0.36071 -0.91795,0.53919c-0.30678,0.18375 -0.60078,0.354 -0.8828,0.51082c-0.27882,0.16194 -0.52888,0.30223 -0.75178,0.42079c-0.19094,0.10202 -0.37629,0.17768 -0.55604,0.22697c-0.17656,0.05449 -0.33474,0.06255 -0.47455,0.02429c-0.13741,-0.03307 -0.24606,-0.12455 -0.32596,-0.27451c-0.10785,-0.20157 -0.10785,-0.39418 0,-0.57793c0.11345,-0.18639 0.35871,-0.38028 0.7358,-0.58153c0.2221,-0.11856 0.48334,-0.25126 0.78373,-0.3981c0.30838,-0.14444 0.62555,-0.2904 0.9515,-0.43788c0.33155,-0.15028 0.65351,-0.28849 0.96429,-0.41463c0.31637,-0.12886 0.59519,-0.23456 0.83726,-0.31693c0.38428,-0.12543 0.67828,-0.17248 0.8804,-0.14117c0.20772,0.0286 0.36031,0.13342 0.45698,0.31429c0.07989,0.14996 0.09108,0.33307 0.03355,0.54949c-0.05193,0.21371 -0.19414,0.48214 -0.42662,0.80546c-0.22769,0.32052 -0.56962,0.71215 -1.0266,1.17504l0.01678,0.031c0.64632,-0.13238 1.1776,-0.21315 1.59303,-0.24247c0.42183,-0.03212 0.74459,-0.0183 0.96828,0.0413c0.22449,0.0596 0.3699,0.15147 0.43621,0.27546c0.10466,0.19645 0.10705,0.38771 0.00719,0.57386c-0.09507,0.18335 -0.26364,0.38308 -0.50731,0.5991c-0.27882,0.24854 -0.62075,0.51042 -1.025,0.78581c-0.40425,0.27538 -0.82528,0.54334 -1.26388,0.80394c-0.43141,0.26292 -0.84045,0.4978 -1.22793,0.70464c-0.44499,0.23712 -0.79492,0.34066 -1.04977,0.3107c-0.24926,-0.03276 -0.43141,-0.15507 -0.54406,-0.36702zM301.75581,173.37543c0.11025,0.20676 0.13182,0.38444 0.06471,0.53295c-0.06391,0.15371 -0.17097,0.27051 -0.32116,0.35048c-0.18615,0.0993 -0.36111,0.1196 -0.52488,0.06104c-0.15579,-0.05616 -0.28761,-0.18503 -0.39546,-0.38667c-0.10466,-0.19645 -0.12942,-0.37269 -0.0727,-0.5288c0.06072,-0.1589 0.16697,-0.27834 0.31637,-0.35823c0.19653,-0.10482 0.37549,-0.12391 0.53767,-0.05744c0.16138,0.06655 0.2932,0.19541 0.39546,0.38667zM300.05093,174.34427c0.08868,0.16537 0.0024,0.37733 -0.25805,0.63577c-0.25805,0.26372 -0.72541,0.57609 -1.40289,0.93728c-0.83167,0.44396 -1.46361,0.70432 -1.89342,0.78118c-0.43061,0.07686 -0.71103,-0.00615 -0.84045,-0.2491c-0.09907,-0.18615 -0.03755,-0.39482 0.18375,-0.62603c0.22769,-0.234 0.67987,-0.5316 1.35655,-0.89286c0.83247,-0.44388 1.48598,-0.70616 1.96133,-0.78685c0.48254,-0.07821 0.78054,-0.01134 0.89318,0.20061zM300.12044,176.21108c0.49612,-0.26468 0.878,-0.4084 1.14484,-0.43117c0.27163,-0.02549 0.45298,0.04706 0.54406,0.21762c0.0719,0.13438 0.0711,0.27067 -0.0008,0.40888c-0.06711,0.13542 -0.17416,0.2654 -0.32036,0.38979c-0.14061,0.12167 -0.294,0.22665 -0.45937,0.31485l-0.00479,-0.04706c0.32596,-0.06104 0.63753,-0.05481 0.93632,0.01861c0.30039,0.07853 0.52009,0.24702 0.6575,0.50555c0.16298,0.30494 0.15579,0.59735 -0.01997,0.8772c-0.17097,0.27706 -0.4426,0.5149 -0.81489,0.71343c-0.49612,0.26468 -0.87241,0.39259 -1.12966,0.38364c-0.25725,-0.00895 -0.437,-0.10905 -0.53847,-0.30039c-0.0751,-0.13957 -0.0727,-0.27323 0.00479,-0.40113c0.08069,-0.12263 0.27163,-0.25086 0.57202,-0.3846c0.31557,-0.14205 0.51769,-0.27315 0.60637,-0.39346c0.08868,-0.12024 0.09986,-0.24239 0.03355,-0.36646c-0.07989,-0.14996 -0.24127,-0.22298 -0.48494,-0.21914c-0.23568,0.00615 -0.49053,0.08237 -0.76456,0.22849c-0.10865,0.05792 -0.23887,0.14388 -0.39067,0.25797c-0.15179,0.11408 -0.31717,0.23903 -0.49692,0.37477c-0.17496,0.13302 -0.35072,0.26348 -0.52808,0.39139c-0.17816,0.12783 -0.34673,0.23448 -0.50731,0.31996c-0.28361,0.15163 -0.5113,0.21666 -0.68227,0.19493c-0.17097,-0.02173 -0.29959,-0.11265 -0.38508,-0.27291c-0.09667,-0.18095 -0.11424,-0.35088 -0.05273,-0.50971c0.06631,-0.16162 0.2181,-0.33866 0.45378,-0.53096c0.21571,-0.16817 0.47535,-0.35983 0.77894,-0.57482c0.30359,-0.21507 0.61916,-0.42654 0.94671,-0.63434c0.32755,-0.20788 0.62794,-0.38484 0.90197,-0.53096zM304.90192,179.27419c0.11025,0.20676 0.13182,0.38444 0.06471,0.53295c-0.06391,0.15371 -0.17097,0.27059 -0.32036,0.35056c-0.18615,0.09922 -0.36111,0.1196 -0.52568,0.06096c-0.15579,-0.05616 -0.28761,-0.18503 -0.39546,-0.38667c-0.10466,-0.19637 -0.12862,-0.37269 -0.0727,-0.5288c0.06152,-0.1589 0.16697,-0.27826 0.31717,-0.35823c0.19573,-0.10482 0.37549,-0.12391 0.53687,-0.05744c0.16138,0.06655 0.2932,0.19541 0.39546,0.38667zM303.19785,180.24303c0.08788,0.16537 0.0016,0.37733 -0.25885,0.63585c-0.25805,0.26364 -0.72541,0.57609 -1.40209,0.93728c-0.83247,0.44388 -1.46361,0.70424 -1.89422,0.78118c-0.43061,0.07686 -0.71023,-0.00623 -0.84045,-0.24918c-0.09907,-0.18607 -0.03755,-0.39474 0.18455,-0.62603c0.22689,-0.234 0.67907,-0.5316 1.35575,-0.89278c0.83247,-0.44396 1.48598,-0.70624 1.96133,-0.78685c0.48254,-0.07829 0.78054,-0.01142 0.89398,0.20053zM305.01457,182.19357c0.08868,0.16537 0.08069,0.31237 -0.02397,0.44092c-0.10066,0.13374 -0.28361,0.27091 -0.54725,0.41152c-0.06152,0.03307 -0.13182,0.06375 -0.20931,0.09203c-0.0703,0.03068 -0.13821,0.05345 -0.20292,0.06823l0.147,-0.09819c0.40185,-0.0552 0.76536,-0.0032 1.08892,0.15603c0.32915,0.15651 0.57122,0.3794 0.72541,0.66893c0.17097,0.32052 0.2221,0.63497 0.15419,0.94343c-0.06471,0.31357 -0.23248,0.60893 -0.50331,0.88599c-0.26764,0.28226 -0.62395,0.54198 -1.06814,0.7791c-0.27403,0.14612 -0.55285,0.27794 -0.83486,0.39546c-0.27483,0.12 -0.53447,0.21858 -0.77894,0.29576c-0.23648,0.07965 -0.43621,0.13342 -0.60078,0.1613c-0.20931,0.03172 -0.38348,0.02189 -0.52409,-0.0294c-0.13502,-0.05417 -0.23808,-0.14836 -0.30998,-0.28281c-0.0719,-0.13438 -0.07749,-0.26396 -0.01837,-0.38875c0.05992,-0.12471 0.17256,-0.2312 0.33794,-0.31948c0.17576,-0.09371 0.39466,-0.19382 0.65671,-0.30031c0.26684,-0.10929 0.53527,-0.2225 0.8045,-0.3397c0.27722,-0.11472 0.52249,-0.22865 0.7342,-0.34169c0.72381,-0.38603 0.95869,-0.81681 0.70464,-1.2924c-0.13502,-0.25333 -0.36191,-0.40457 -0.67987,-0.45386c-0.31317,-0.05201 -0.69186,0.00383 -1.13605,0.16753c-0.1478,0.05896 -0.32516,0.14356 -0.53128,0.25381c-0.20692,0.11033 -0.41384,0.22058 -0.62075,0.33091c-0.19893,0.11273 -0.37229,0.19853 -0.52009,0.25741c-0.32116,0.14476 -0.57522,0.20388 -0.76216,0.17736c-0.18375,-0.02133 -0.31956,-0.11472 -0.40824,-0.28018c-0.10226,-0.19126 -0.09108,-0.38284 0.03196,-0.57482c0.12862,-0.19469 0.40505,-0.40513 0.82847,-0.63122c0.2173,-0.11576 0.46337,-0.24023 0.7374,-0.37325c0.27483,-0.13302 0.55045,-0.26348 0.82687,-0.39139c0.28521,-0.12543 0.54566,-0.23448 0.78213,-0.32723c0.44579,-0.17161 0.81729,-0.27315 1.11208,-0.30454c0.30039,-0.03411 0.50331,0.04706 0.60797,0.24351zM303.31688,190.32705c-0.25885,-0.4859 -0.28361,-0.98058 -0.0743,-1.48414c0.21491,-0.50627 0.70464,-0.96341 1.47,-1.37149c0.81649,-0.43565 1.49237,-0.60677 2.02684,-0.51338c0.53447,0.09339 0.92993,0.38044 1.18638,0.86115c0.15179,0.28433 0.21251,0.5737 0.18375,0.86794c-0.02876,0.29432 -0.13342,0.58936 -0.31477,0.88503l-0.14141,-0.00407c0.06391,-0.05417 0.13502,-0.10841 0.21171,-0.1629c0.07749,-0.05441 0.13661,-0.09267 0.17816,-0.11472c0.21171,-0.11305 0.39227,-0.16633 0.54246,-0.15978c0.15739,0.00895 0.27562,0.08836 0.35552,0.23832c0.08868,0.16537 0.09028,0.33051 0.00559,0.49525c-0.08229,0.16985 -0.23328,0.34681 -0.45378,0.53088c-0.2173,0.20228 -0.5105,0.43149 -0.8788,0.68754c-0.36271,0.25333 -0.74299,0.48614 -1.14085,0.69849c-0.49612,0.26468 -0.92194,0.46856 -1.27746,0.61157c-0.35552,0.14301 -0.66629,0.23248 -0.93233,0.26835c-0.26684,0.03579 -0.51849,0.03068 -0.75577,-0.0155c-0.38747,-0.07893 -0.74459,-0.25693 -1.07134,-0.53399c-0.32915,-0.26915 -0.61596,-0.63114 -0.85803,-1.08604c-0.17416,-0.32564 -0.28202,-0.60326 -0.32516,-0.83279c-0.04793,-0.22673 -0.04314,-0.41168 0.01358,-0.55468c0.05353,-0.1351 0.14301,-0.23576 0.26684,-0.30191c0.12942,-0.06895 0.25725,-0.09068 0.38348,-0.06511c0.12143,0.0282 0.2205,0.11472 0.29799,0.25949c0.06871,0.12918 0.12783,0.29016 0.17816,0.48278c0.05193,0.19781 0.14141,0.41559 0.26843,0.65343c0.26764,0.5014 0.57522,0.79212 0.92354,0.87201c0.34513,0.08788 0.73819,0.01462 1.1776,-0.2197c0.11904,-0.06343 0.25405,-0.14564 0.40585,-0.24662l0.01917,0.12926c-0.39946,0.04722 -0.76775,-0.00208 -1.10489,-0.1478c-0.33155,-0.14852 -0.5864,-0.39083 -0.76616,-0.72685zM304.42817,190.11302c0.08788,0.16545 0.2205,0.30742 0.39626,0.42598c0.17656,0.11848 0.39386,0.17832 0.65351,0.17936c0.25965,0.00096 0.56004,-0.08948 0.90117,-0.27147c0.40824,-0.21778 0.69106,-0.49125 0.84685,-0.8204c0.15659,-0.32915 0.14301,-0.66685 -0.04234,-1.01318c-0.15978,-0.29983 -0.39067,-0.45889 -0.69266,-0.47711c-0.30199,-0.0183 -0.68227,0.09531 -1.14244,0.34066c-0.4394,0.2344 -0.74618,0.4875 -0.91955,0.75945c-0.16857,0.26915 -0.16937,0.56139 -0.0008,0.87673zM311.93314,193.94995c0.35232,0.66166 0.47375,1.2312 0.36271,1.70847c-0.10546,0.47455 -0.38508,0.83318 -0.84045,1.07581c-0.35631,0.19022 -0.74459,0.27123 -1.16481,0.24295c-0.41224,-0.0258 -0.8828,-0.16673 -1.41088,-0.42278c-0.52009,-0.25357 -1.12407,-0.62563 -1.81033,-1.116l0.23248,0.02533c0.50891,0.89087 0.8077,1.55788 0.89798,2.00103c0.09347,0.44835 0.01837,0.73732 -0.22449,0.8669c-0.16537,0.08828 -0.33075,0.09004 -0.49533,0.00519c-0.16218,-0.07957 -0.31637,-0.25637 -0.46257,-0.53032c-0.10146,-0.19126 -0.20612,-0.41136 -0.31158,-0.66014c-0.11185,-0.24606 -0.2165,-0.49884 -0.31477,-0.75833c-0.09347,-0.26228 -0.17336,-0.51178 -0.24047,-0.74858c-0.06951,-0.25501 -0.09028,-0.45626 -0.06311,-0.60374c0.03276,-0.15028 0.12942,-0.26811 0.29,-0.3536c0.11345,-0.06064 0.25166,-0.08133 0.41463,-0.06208c0.16298,0.01933 0.37868,0.08045 0.64552,0.18351c0.27323,0.10026 0.62635,0.24686 1.06175,0.43988c0.40824,0.18055 0.7366,0.31086 0.98506,0.39075c0.25166,0.08516 0.45698,0.12823 0.61676,0.12926c0.16537,-0.00176 0.31237,-0.03707 0.4418,-0.10602c0.19653,-0.10482 0.31158,-0.25589 0.34593,-0.45338c0.03675,-0.1923 -0.02077,-0.43061 -0.17256,-0.71495c-0.0719,-0.13438 -0.16138,-0.25917 -0.26923,-0.37421c-0.10546,-0.10993 -0.21171,-0.2225 -0.31956,-0.33754c-0.10546,-0.10993 -0.19334,-0.23216 -0.26524,-0.36654c-0.0743,-0.13957 -0.09986,-0.26204 -0.0767,-0.3675c0.02397,-0.10546 0.09187,-0.18854 0.20612,-0.24918c0.17017,-0.091 0.37069,-0.10809 0.59998,-0.05121c0.23728,0.05928 0.47296,0.18934 0.70624,0.39027c0.24127,0.20332 0.45298,0.47551 0.63513,0.81673z" fill="#0c0c0c" stroke="none" stroke-width="1" stroke-linecap="butt" stroke-dasharray=""/><path d="M244.94363,176.83751h-0.17576c-0.01758,-0.25781 -0.01198,-0.50092 0.01758,-0.72941c0.02956,-0.23432 0.09108,-0.42183 0.18455,-0.56243c0.09986,-0.14644 0.24047,-0.2197 0.42183,-0.2197c0.16378,0 0.28441,0.05273 0.36031,0.15818c0.0759,0.10546 0.11424,0.2519 0.11424,0.4394c0,0.3691 -0.0703,0.68547 -0.21091,0.94911l-0.15818,-0.01758c0.31637,-0.11129 0.67348,-0.16697 1.07214,-0.16697c0.25166,0 0.45138,0.04977 0.59759,0.1494c0.15259,0.09371 0.22849,0.25485 0.22849,0.48334c0,0.21674 -0.08788,0.38084 -0.26364,0.49213c-0.17576,0.11129 -0.39546,0.16697 -0.6591,0.16697c-0.15818,0 -0.32835,-0.00583 -0.50971,-0.01758c-0.17576,-0.01758 -0.34833,-0.04394 -0.51849,-0.07909l0.1494,-0.18455c0.05273,0.22266 0.10226,0.47751 0.1494,0.76456c0.05273,0.28122 0.09986,0.57418 0.14061,0.8788c0.04074,0.30462 0.0735,0.60054 0.09667,0.88759c0.02317,0.28705 0.03515,0.54486 0.03515,0.77335c0,0.37493 -0.05832,0.67085 -0.17576,0.88759c-0.11744,0.21674 -0.29,0.32516 -0.51849,0.32516c-0.18135,0 -0.32516,-0.05568 -0.43061,-0.16697c-0.09986,-0.11129 -0.17256,-0.2519 -0.2197,-0.42183c-0.04074,-0.17576 -0.06711,-0.35735 -0.07909,-0.54486c-0.00559,-0.1875 -0.00879,-0.35735 -0.00879,-0.50971c0,-0.25781 0.01198,-0.54781 0.03515,-0.87001c0.02317,-0.32811 0.05592,-0.66493 0.09667,-1.01062c0.04714,-0.34569 0.09986,-0.67963 0.15818,-1.00183l0.17576,0.1494c-0.29879,0.15235 -0.66789,0.22849 -1.10729,0.22849c-0.26947,0 -0.47751,-0.04977 -0.62395,-0.1494c-0.14644,-0.09962 -0.2197,-0.25485 -0.2197,-0.46577c0,-0.22849 0.08205,-0.40425 0.24606,-0.52728c0.16402,-0.12886 0.38372,-0.19334 0.6591,-0.19334c0.18159,0 0.35152,0.01174 0.50971,0.03515c0.16378,0.01758 0.30758,0.04098 0.43061,0.0703zM248.88306,175.38749c0.23488,0 0.40185,0.06447 0.50092,0.19334c0.10546,0.12886 0.15818,0.27826 0.15818,0.44819c0,0.21091 -0.06391,0.37493 -0.19334,0.49213c-0.12303,0.11129 -0.29879,0.16697 -0.52728,0.16697c-0.2221,0 -0.38907,-0.06152 -0.50092,-0.18455c-0.11105,-0.12886 -0.16697,-0.27826 -0.16697,-0.44819c0,-0.22266 0.06791,-0.38963 0.20212,-0.50092c0.13502,-0.11129 0.31078,-0.16697 0.52728,-0.16697zM248.93579,177.34722c0.18774,0 0.33394,0.17576 0.4394,0.52728c0.11185,0.35152 0.16697,0.911 0.16697,1.67851c0,0.94327 -0.06711,1.62283 -0.20212,2.03882c-0.13422,0.41599 -0.33954,0.62395 -0.61516,0.62395c-0.21091,0 -0.3659,-0.15235 -0.46577,-0.45698c-0.09907,-0.31054 -0.1494,-0.84948 -0.1494,-1.617c0,-0.94327 0.0767,-1.64336 0.22849,-2.10034c0.15818,-0.46281 0.35791,-0.69425 0.59759,-0.69425zM251.51228,176.66175c0.18774,0 0.31317,0.07614 0.37789,0.22849c0.0703,0.15235 0.10546,0.37789 0.10546,0.67668c0,0.0703 -0.00559,0.14644 -0.01758,0.22849c-0.00559,0.07614 -0.01758,0.14644 -0.03515,0.21091l-0.01758,-0.17576c0.14061,-0.38084 0.35711,-0.67668 0.65031,-0.88759c0.2932,-0.21674 0.60318,-0.32516 0.93153,-0.32516c0.3635,0 0.66469,0.1025 0.90517,0.30758c0.24606,0.20508 0.42742,0.49213 0.54486,0.86123c0.12303,0.3691 0.18455,0.80554 0.18455,1.30942c0,0.31054 -0.01438,0.61812 -0.04394,0.92274c-0.02317,0.29879 -0.05832,0.57418 -0.10546,0.82607c-0.04074,0.24606 -0.08788,0.44819 -0.14061,0.60637c-0.0703,0.19917 -0.16138,0.34856 -0.27243,0.44819c-0.11105,0.09371 -0.24287,0.14061 -0.39546,0.14061c-0.15259,0 -0.26923,-0.05568 -0.35152,-0.16697c-0.08229,-0.11129 -0.12303,-0.26068 -0.12303,-0.44819c0,-0.19917 0.01438,-0.4394 0.04394,-0.72062c0.02956,-0.28705 0.05592,-0.57705 0.07909,-0.87001c0.02956,-0.29879 0.04394,-0.56827 0.04394,-0.8085c0,-0.82024 -0.26923,-1.23032 -0.8085,-1.23032c-0.28681,0 -0.52728,0.12886 -0.72062,0.38667c-0.19334,0.2519 -0.32196,0.61221 -0.38667,1.08093c-0.01758,0.15818 -0.02636,0.35448 -0.02636,0.5888c0,0.23432 0,0.46872 0,0.70304c0.00559,0.22849 0,0.42183 -0.01758,0.58001c-0.02317,0.35152 -0.09108,0.60342 -0.20212,0.75577c-0.10546,0.15235 -0.25166,0.22849 -0.4394,0.22849c-0.2165,0 -0.38108,-0.09962 -0.49213,-0.29879c-0.11105,-0.20508 -0.16697,-0.54781 -0.16697,-1.0282c0,-0.24606 0.00559,-0.52145 0.01758,-0.82607c0.01198,-0.30462 0.02636,-0.60933 0.04394,-0.91395c0.02317,-0.31054 0.04953,-0.59175 0.07909,-0.84365c0.05832,-0.47455 0.1438,-0.84948 0.25485,-1.12487c0.11105,-0.28122 0.27802,-0.42183 0.50092,-0.42183zM257.88999,181.98729c-0.55045,0 -0.99864,-0.21091 -1.34457,-0.63274c-0.34593,-0.42766 -0.51849,-1.07509 -0.51849,-1.94215c0,-0.9257 0.16697,-1.60238 0.50092,-2.03003c0.33394,-0.42766 0.77335,-0.64153 1.3182,-0.64153c0.32196,0 0.60637,0.08205 0.85244,0.24606c0.24606,0.16402 0.45698,0.39546 0.63274,0.69425l-0.0703,0.12303c-0.01758,-0.08205 -0.03196,-0.16993 -0.04394,-0.26364c-0.01198,-0.09371 -0.01758,-0.16402 -0.01758,-0.21091c0,-0.24023 0.03835,-0.42478 0.11424,-0.55365c0.08229,-0.13478 0.20772,-0.20212 0.37789,-0.20212c0.18774,0 0.33394,0.07614 0.4394,0.22849c0.11105,0.15235 0.19653,0.3691 0.25485,0.65031c0.0759,0.28705 0.14061,0.65327 0.19334,1.0985c0.05273,0.4394 0.07909,0.88463 0.07909,1.33578c0,0.56243 -0.02077,1.03403 -0.06152,1.41487c-0.04074,0.38084 -0.10865,0.69721 -0.20212,0.94911c-0.09347,0.2519 -0.2165,0.4716 -0.3691,0.6591c-0.25166,0.30462 -0.57681,0.53607 -0.97547,0.69425c-0.39227,0.16402 -0.84685,0.24606 -1.36214,0.24606c-0.3691,0 -0.66469,-0.03515 -0.88759,-0.10546c-0.2229,-0.06447 -0.38348,-0.15523 -0.48334,-0.27243c-0.09347,-0.11129 -0.14061,-0.23728 -0.14061,-0.37789c0,-0.14644 0.04074,-0.26947 0.12303,-0.3691c0.08229,-0.09371 0.20532,-0.14061 0.3691,-0.14061c0.1462,0 0.31637,0.02341 0.50971,0.0703c0.19893,0.0469 0.43381,0.0703 0.70304,0.0703c0.56803,0 0.96988,-0.13478 1.20396,-0.40425c0.24047,-0.26364 0.36031,-0.64448 0.36031,-1.14244c0,-0.13478 -0.00879,-0.29296 -0.02636,-0.47455l0.12303,0.04394c-0.1462,0.37493 -0.3635,0.67668 -0.65031,0.90517c-0.28681,0.22266 -0.62075,0.33394 -1.00183,0.33394zM258.22393,180.90636c0.18774,0 0.37469,-0.04977 0.56243,-0.1494c0.18774,-0.09962 0.34273,-0.26364 0.46577,-0.49213c0.12303,-0.22849 0.18455,-0.53607 0.18455,-0.92274c0,-0.46281 -0.10865,-0.84069 -0.32516,-1.13366c-0.2165,-0.29296 -0.52169,-0.4394 -0.91395,-0.4394c-0.33954,0 -0.5888,0.12886 -0.74698,0.38667c-0.15818,0.25781 -0.23728,0.64736 -0.23728,1.16881c0,0.49796 0.07909,0.88759 0.23728,1.16881c0.15818,0.27538 0.41623,0.41304 0.77335,0.41304zM263.40807,181.98729c-0.55045,0 -0.99864,-0.21091 -1.34457,-0.63274c-0.34593,-0.42766 -0.51849,-1.07509 -0.51849,-1.94215c0,-0.9257 0.16697,-1.60238 0.50092,-2.03003c0.33394,-0.42766 0.77335,-0.64153 1.3182,-0.64153c0.32196,0 0.60637,0.08205 0.85244,0.24606c0.24606,0.16402 0.45698,0.39546 0.63274,0.69425l-0.0703,0.12303c-0.01758,-0.08205 -0.03196,-0.16993 -0.04394,-0.26364c-0.01198,-0.09371 -0.01758,-0.16402 -0.01758,-0.21091c0,-0.24023 0.03835,-0.42478 0.11424,-0.55365c0.08229,-0.13478 0.20772,-0.20212 0.37789,-0.20212c0.18774,0 0.33394,0.07614 0.4394,0.22849c0.11105,0.15235 0.19653,0.3691 0.25485,0.65031c0.0759,0.28705 0.14061,0.65327 0.19334,1.0985c0.05273,0.4394 0.07909,0.88463 0.07909,1.33578c0,0.56243 -0.02077,1.03403 -0.06152,1.41487c-0.04074,0.38084 -0.10865,0.69721 -0.20212,0.94911c-0.09347,0.2519 -0.2165,0.4716 -0.3691,0.6591c-0.25166,0.30462 -0.57681,0.53607 -0.97547,0.69425c-0.39227,0.16402 -0.84685,0.24606 -1.36214,0.24606c-0.3691,0 -0.66469,-0.03515 -0.88759,-0.10546c-0.2229,-0.06447 -0.38348,-0.15523 -0.48334,-0.27243c-0.09347,-0.11129 -0.14061,-0.23728 -0.14061,-0.37789c0,-0.14644 0.04074,-0.26947 0.12303,-0.3691c0.08229,-0.09371 0.20532,-0.14061 0.3691,-0.14061c0.1462,0 0.31637,0.02341 0.50971,0.0703c0.19893,0.0469 0.43381,0.0703 0.70304,0.0703c0.56803,0 0.96988,-0.13478 1.20396,-0.40425c0.24047,-0.26364 0.36031,-0.64448 0.36031,-1.14244c0,-0.13478 -0.00879,-0.29296 -0.02636,-0.47455l0.12303,0.04394c-0.1462,0.37493 -0.3635,0.67668 -0.65031,0.90517c-0.28681,0.22266 -0.62075,0.33394 -1.00183,0.33394zM263.74201,180.90636c0.18774,0 0.37469,-0.04977 0.56243,-0.1494c0.18774,-0.09962 0.34273,-0.26364 0.46577,-0.49213c0.12303,-0.22849 0.18455,-0.53607 0.18455,-0.92274c0,-0.46281 -0.10865,-0.84069 -0.32516,-1.13366c-0.2165,-0.29296 -0.52169,-0.4394 -0.91395,-0.4394c-0.33954,0 -0.5888,0.12886 -0.74698,0.38667c-0.15818,0.25781 -0.23728,0.64736 -0.23728,1.16881c0,0.49796 0.07909,0.88759 0.23728,1.16881c0.15818,0.27538 0.41623,0.41304 0.77335,0.41304zM268.02098,175.38749c0.23488,0 0.40185,0.06447 0.50092,0.19334c0.10546,0.12886 0.15818,0.27826 0.15818,0.44819c0,0.21091 -0.06391,0.37493 -0.19334,0.49213c-0.12303,0.11129 -0.29879,0.16697 -0.52728,0.16697c-0.2221,0 -0.38907,-0.06152 -0.50092,-0.18455c-0.11105,-0.12886 -0.16697,-0.27826 -0.16697,-0.44819c0,-0.22266 0.06791,-0.38963 0.20212,-0.50092c0.13502,-0.11129 0.31078,-0.16697 0.52728,-0.16697zM268.07371,177.34722c0.18774,0 0.33394,0.17576 0.4394,0.52728c0.11185,0.35152 0.16697,0.911 0.16697,1.67851c0,0.94327 -0.06711,1.62283 -0.20212,2.03882c-0.13422,0.41599 -0.33954,0.62395 -0.61516,0.62395c-0.21091,0 -0.3659,-0.15235 -0.46577,-0.45698c-0.09907,-0.31054 -0.1494,-0.84948 -0.1494,-1.617c0,-0.94327 0.0767,-1.64336 0.22849,-2.10034c0.15818,-0.46281 0.35791,-0.69425 0.59759,-0.69425z" fill="#0c0c0c" stroke="none" stroke-width="1" stroke-linecap="butt" stroke-dasharray=""/><path d="M274.87804,217.25443l-2.39673,-75.09758" fill="none" stroke="#070707" stroke-width="2" stroke-linecap="butt" stroke-dasharray="4,4"/></g></g></svg>