<svg version="1.1" xmlns="http://www.w3.org/2000/svg" xmlns:xlink="http://www.w3.org/1999/xlink" width="14.50684" height="23.02376" viewBox="0,0,14.50684,23.02376"><g transform="translate(-232.32876,-169.17672)"><g data-paper-data="{&quot;isPaintingLayer&quot;:true}" fill-rule="evenodd" stroke="none" stroke-width="1" stroke-linecap="butt" stroke-linejoin="miter" stroke-miterlimit="10" stroke-dasharray="" stroke-dashoffset="0" style="mix-blend-mode: normal"><g><g><path d="M236.03484,187.72259c-0.01567,-0.37104 -0.03135,-0.74208 -0.08081,-1.09637c-0.09918,-0.62426 -0.23228,-1.18959 0.46008,-1.49092c1.2581,-0.5609 1.91724,1.61657 1.7362,2.86387c-0.04297,0.25281 -2.11546,-0.27657 -2.11546,-0.27657z" fill="#dcaa78"/><path d="M236.27586,183.54127c1.63726,-0.47538 1.80076,1.12717 1.80076,1.12717l0.24715,1.81359l-3.05386,0.50457c0,0 -0.17513,-0.60765 -0.32458,-1.33324c0,0 -0.30674,-1.63672 1.33052,-2.11209z" fill="#f01446"/></g><g><path d="M232.92818,191.55749l-0.26173,0.10877c-0.02486,-0.13499 -0.14568,-1.90602 -0.14568,-1.90602c0.17701,0.01744 0.35402,0.03487 0.54792,0.0439l-0.11349,1.21379v0c-0.01756,0.21916 -0.02662,0.41307 -0.02702,0.53953z" fill="#000000"/><path d="M232.95519,191.01796l0.11349,-1.21379c0.69979,0.01067 1.46769,-0.1808 2.02546,-0.58375c0.52401,-0.38619 0.8295,-1.00072 0.82314,-1.64997l2.40259,0.13415c-0.16349,1.02813 -1.44983,2.508 -2.21799,2.78378c-0.03378,0.01676 -1.06461,0.69643 -3.11197,0.21771c-0.00028,0.08432 -0.00905,0.1939 -0.03472,0.31186z" fill="#00a08c"/><path d="M232.96358,191.03485c0,0 -0.00838,-0.01689 0,0z" fill="#000000"/></g><path d="M235.76596,187.43506l2.79025,0.19442l-0.10254,0.42969l-2.73972,-0.17739z" fill="#008264"/></g><g><path d="M241.69919,187.40292c-0.49347,0.08624 -1.70963,-0.18311 -1.70963,-0.18311c0,0 -0.96714,-3.34542 0.29193,-3.4322c1.25907,-0.08679 1.43473,3.40777 1.4177,3.61531z" fill="#dcaa78"/><path d="M240.45374,183.12868c1.43664,0.2121 1.51132,1.43079 1.51132,1.43079l-0.02412,2.00526l-2.75777,-0.53802l-0.1899,-1.98515c0,0 0.00848,-1.14678 1.46046,-0.91288z" fill="#f01446"/><g><path d="M242.87258,192.20048c-0.09287,-0.01619 -1.62323,-0.12978 -1.88002,-0.19368c-0.01857,-0.00323 -0.05164,-0.14296 -0.11214,-0.34489l1.07249,-0.00447c0.16393,0.04771 0.78163,0.34672 0.94556,0.39443c0.01534,0.02182 -0.02589,0.14859 -0.02589,0.14859z" fill="#000000"/><path d="M241.97148,191.6607l-1.07249,0.00447c-0.21455,-0.7455 -0.70657,-2.53449 -0.88552,-3.48429c-0.02982,-0.1583 -0.19036,-0.66471 -0.32585,-1.20505l2.21027,0.38519z" fill="#00a08c"/></g><path d="M242.04816,187.15754l-0.001,0.55481l-2.46144,-0.37155l-0.17264,-0.54681z" fill="#008264"/></g><path d="M235.18788,184.27786c0.13198,-0.49019 0.30166,-1.18777 0.43363,-1.60255c0.35822,-1.09351 0.75414,-1.69682 0.75414,-1.69682h5.07162l0.54676,3.1297z" fill="#f01446"/><g><path d="M242.62487,172.4673c0.16969,-0.2828 0.33937,-0.67873 0.75414,-0.56561c0.32051,0.07541 0.45249,0.49019 0.39593,0.79185c-0.05656,0.30166 -0.39593,0.58446 -0.71644,0.58446c-0.5279,-0.01886 -0.49019,-0.41478 -0.43363,-0.8107z" fill="#be8c64"/><path d="M243.24704,173.10832c-0.0377,0.35822 -1.01809,2.01734 -2.45097,2.01734c-1.43287,0 -2.319,-1.60255 -2.46982,-2.09275c-0.22625,-0.773 -0.35822,-1.8288 -0.01885,-2.56409c0.18854,-0.41478 0.22625,-0.35822 0.62217,-0.30166l1.62141,0.26395l2.65836,0.45249c0.13198,0.73529 0.13198,1.48944 0.03771,2.22473z" fill="#dcaa78"/><path d="M237.96803,170.35569c0,0 -0.73529,0.24509 -1.0558,0.67873c-0.37707,0.54675 -0.43363,1.16893 -0.60332,1.7911c-0.15083,0.56561 -0.43363,1.09351 -0.98039,1.33861c-0.56561,0.24509 -1.24433,0.07541 -1.546,-0.50905c-0.5279,-1.01809 -0.03771,-2.80919 0.90497,-3.43136c0.5279,-0.33936 1.16893,-0.35822 1.75339,-0.2828c0.5279,0.05656 1.03694,0.20739 1.52714,0.41478z" fill="#000000"/><path d="M238.30739,170.3934c0.56561,-1.0558 1.94192,-1.39517 3.14856,-1.13122c1.50829,0.32051 2.01733,1.37631 1.88536,2.65836c-0.8107,0.0377 -4.99621,-1.39516 -5.03391,-1.52714z" fill="#000000"/><path d="M238.13771,171.12869c-0.22625,-0.16968 -0.32051,-0.47134 -0.20739,-0.73529c0.18854,-0.47134 0.65987,-0.2828 0.65987,-0.2828z" fill="#f01446"/><path d="M241.75761,171.88284c0.07542,0.13198 0.13198,0.26395 0.16968,0.39593c0.01886,0.11312 0.07542,0.2451 -0.0377,0.35822c-0.05656,0.07541 -0.16968,0.09426 -0.26395,0.05656c-0.07542,-0.0377 -0.09427,-0.09427 -0.11312,-0.18854c0,-0.16968 0.0377,-0.35822 0.13198,-0.50905c0.0377,-0.0377 0.07542,-0.07542 0.11312,-0.11312z" fill="#be8c64"/><path d="M241.58792,173.57966c-0.22625,0.43364 -1.18778,0.43364 -1.39517,0c-0.09427,-0.20739 -0.11313,-0.60331 0.18854,-0.54675c0.13198,0.01886 0.2828,0.13198 0.41478,0.16968c0.16969,0.05656 0.32051,0.13198 0.47134,0.18854c0.11312,0.05656 0.22624,0.11312 0.32051,0.18854z" fill="#000000"/><path d="M240.72066,171.92054c0.07542,-0.01886 0.13198,0.00001 0.15083,0.03771c0.01885,0.07541 0.01885,0.32051 -0.05656,0.37707l-0.11312,-0.0377z" fill="#000000"/><path d="M242.68143,172.35418c-0.09427,-0.01886 -0.15083,-0.18854 -0.09427,-0.2828c0.01885,-0.0377 0.03771,-0.05656 0.07541,-0.05656c0.01886,0 0.05657,0.03771 0.05657,0.07542c0.01885,0.07541 0,0.16968 -0.03771,0.26395z" fill="#000000"/><path d="M240.07963,170.31799l-1.52714,2.41326l-0.43363,-0.05656c0,0 -0.96154,-3.05428 1.97963,-3.45021z" fill="#000000"/><path d="M240.32473,170.3934l-0.71644,1.96078l-0.50904,-2.26244z" fill="#000000"/><path d="M238.55249,171.78857c0,0 0.39593,0.82956 0.41478,1.18778c-0.20739,0 -0.75414,0.15083 -1.0181,0.07541c-0.20739,-0.05656 -0.43363,-0.20739 -0.49019,-0.43364c-0.03771,-0.20739 -0.15083,-0.62216 -0.07542,-0.79185c0.33936,-0.69759 1.16893,-0.03771 1.16893,-0.03771z" fill="#dcaa78"/></g><g><path d="M246.67584,182.79254c-0.0967,0.06976 -1.60226,0.03113 -2.79015,-0.54545c-1.43942,-0.71124 -2.62667,-2.03079 -3.12422,-2.59815l1.36611,-1.89718c0.43571,0.68547 0.87938,1.58577 1.0385,1.81651c0.27906,0.3868 1.35309,1.50868 1.34881,1.48237c0.21848,0.18056 0.46329,0.35682 0.72583,0.47618c0.20563,0.10162 0.63037,0.22158 0.81641,0.28585c0.50123,0.17506 0.78827,0.19588 0.7748,0.27911c-0.00245,0.06794 -0.69891,-0.06185 -0.6928,0.05872c0.00611,0.12057 0.72034,0.19344 0.69585,0.29196c-0.02448,0.09854 -0.75154,-0.05329 -0.72585,0.10461c0.03671,0.1426 0.81275,0.09735 0.56672,0.24545z" fill="#dcaa78"/><path d="M242.59943,178.16123l-1.81346,1.38919c0,0 -1.03241,-1.11514 -1.30657,-1.63781c0,0 -0.92835,-1.3887 0.22716,-2.09002c1.1292,-0.69702 1.5692,0.01476 1.5692,0.01476c-0.00428,-0.02632 1.32368,2.32388 1.32368,2.32388z" fill="#008264"/><path d="M242.81791,178.34179l-2.11887,1.58746l-0.30293,-0.45045l2.13051,-1.76495z" fill="#f01446"/><path d="M245.215,181.94972c-0.24908,-0.2026 -0.12299,-0.50675 -0.12299,-0.50675c0,0 1.12489,-0.14254 1.14202,-0.03727c0.03244,0.11628 -0.22645,0.18543 -0.46575,0.29191c0.14748,0.40822 -0.31949,0.44369 -0.55327,0.25212z" fill="#be8c64"/></g><path d="M241.74894,176.88725c0.22625,2.26244 0.33937,6.10857 0.33937,6.10857l-7.22094,0.56561c0,0 1.50829,-4.90194 2.14931,-6.41023c0.90497,-2.13046 2.37556,-1.92307 2.96002,-1.97963c0.75414,-0.05656 1.60256,0.07541 1.77224,1.71568z" fill="#0066a1"/><g><path d="M234.12618,184.30421c-0.42304,0.07665 -0.59429,-1.63835 -0.57422,-1.81508c0.14117,0.12062 0.71185,1.6658 0.57422,1.81508z" fill="#be8c64"/><path d="M235.62043,176.32001c0,0 1.00886,-0.2937 1.41123,0.76772c0.39425,1.04442 -0.85049,1.3254 -0.85049,1.3254c-0.64421,0.18226 -1.24429,0.71951 -1.5663,1.27024c-0.25244,0.43393 -0.49627,1.3234 -0.62302,1.80178c-0.26315,1.02405 -0.43323,3.42436 -0.50864,3.39769c-0.06728,-0.00965 -0.02761,-0.80163 -0.16218,-0.82094c-0.13457,-0.01931 -0.06129,1.053 -0.21211,0.99967c-0.16784,-0.04521 -0.09184,-0.97989 -0.3285,-0.95047c-0.23666,0.02944 -0.07447,0.85038 -0.2164,0.77191c-0.14194,-0.07848 -0.35522,-3.19411 -0.15094,-4.69147c0.11586,-0.80746 0.46608,-1.51791 0.91684,-2.1928c0.36418,-0.54996 1.64554,-1.45432 2.29052,-1.67873z" fill="#dcaa78"/><path d="M239.26761,175.16345c0.80087,0.01454 2.09607,0.67053 1.40145,2.23489c-0.69461,1.56436 -2.44687,1.00127 -2.44687,1.00127c-1.22438,-0.37642 -2.29775,0.2197 -2.29775,0.2197l-1.18718,-1.96113c0.69095,-0.4344 1.4233,-0.82589 2.18738,-1.10717c0.76407,-0.28128 1.68481,-0.36576 2.34297,-0.38755z" fill="#00a08c"/><path d="M234.97192,176.2745l1.49742,2.52335l-0.64651,0.30872l-1.48929,-2.50634z" fill="#f01446"/></g></g></g></svg>