<svg width="25" height="25" viewBox="0 0 25 25" fill="none" xmlns="http://www.w3.org/2000/svg">
<circle cx="12.5" cy="12.5" r="12" fill="#63A1C1" stroke="black"/>
<path d="M11.412 17.276C10.908 17.276 10.516 17.244 10.236 17.18C9.964 17.116 9.776 17.028 9.672 16.916C9.568 16.796 9.512 16.664 9.504 16.52C9.504 16.296 9.636 16.108 9.9 15.956C10.172 15.804 10.668 15.708 11.388 15.668L11.196 15.896C11.108 15.488 11.044 15.012 11.004 14.468C10.964 13.924 10.948 13.36 10.956 12.776C10.964 12.192 10.992 11.636 11.04 11.108C11.088 10.572 11.156 10.116 11.244 9.74L12.288 9.668C12.112 9.74 11.892 9.804 11.628 9.86C11.364 9.908 11.092 9.932 10.812 9.932C10.3 9.932 9.92 9.876 9.672 9.764C9.432 9.652 9.312 9.496 9.312 9.296C9.312 8.944 9.524 8.672 9.948 8.48C10.38 8.28 11.04 8.18 11.928 8.18C12.984 8.18 13.872 8.356 14.592 8.708C15.32 9.052 15.872 9.536 16.248 10.16C16.624 10.776 16.812 11.496 16.812 12.32C16.812 13.04 16.684 13.704 16.428 14.312C16.172 14.912 15.804 15.436 15.324 15.884C14.852 16.324 14.284 16.668 13.62 16.916C12.964 17.156 12.228 17.276 11.412 17.276ZM13.116 15.428C13.388 15.428 13.676 15.32 13.98 15.104C14.292 14.88 14.556 14.556 14.772 14.132C14.988 13.7 15.096 13.168 15.096 12.536C15.096 12.072 15.028 11.668 14.892 11.324C14.764 10.972 14.596 10.68 14.388 10.448C14.18 10.216 13.96 10.044 13.728 9.932C13.496 9.812 13.276 9.752 13.068 9.752C12.9 9.752 12.768 9.856 12.672 10.064C12.584 10.272 12.52 10.584 12.48 11C12.44 11.408 12.42 11.916 12.42 12.524C12.42 13.468 12.468 14.188 12.564 14.684C12.66 15.18 12.844 15.428 13.116 15.428Z" fill="#0A0A0A"/>
</svg>
