<svg version="1.1" xmlns="http://www.w3.org/2000/svg" xmlns:xlink="http://www.w3.org/1999/xlink" width="114" height="42" viewBox="0,0,114,42"><g transform="translate(-183,-159)"><g data-paper-data="{&quot;isPaintingLayer&quot;:true}" fill-rule="nonzero" stroke-linecap="butt" stroke-linejoin="miter" stroke-miterlimit="10" stroke-dasharray="" stroke-dashoffset="0" style="mix-blend-mode: normal"><g><path d="" fill="none" stroke="#dcd6d6" stroke-width="1.5"/><path d="" fill="none" stroke="#dcd6d6" stroke-width="1.5"/><path d="" fill="none" stroke="#dcd6d6" stroke-width="1.5"/><path d="" fill="none" stroke="#dcd6d6" stroke-width="1.5"/><path d="" fill="none" stroke="#dcd6d6" stroke-width="1.5"/><path d="" fill="none" stroke="#dcd6d6" stroke-width="1.5"/><g fill="none" stroke="none" stroke-width="1" font-family="&quot;Helvetica Neue&quot;, Helvetica, Arial, sans-serif" font-weight="400" font-size="16" text-anchor="start"/><path d="" fill="#737373" stroke="none" stroke-width="1"/><path d="" fill="#737373" stroke="none" stroke-width="1"/></g><path d="" fill="#000000" stroke="none" stroke-width="1"/><path d="" fill="#000000" stroke="none" stroke-width="1"/><path d="" fill="#000000" stroke="none" stroke-width="1"/><path d="M183,180c0,-11.59798 25.51977,-21 57,-21c31.48023,0 57,9.40202 57,21c0,11.59798 -25.51977,21 -57,21c-31.48023,0 -57,-9.40202 -57,-21z" fill="#e84343" stroke="none" stroke-width="1"/><path d="M227.53,185.028c-0.233,0 -0.481,-0.07 -0.742,-0.21c-0.261,-0.14 -0.504,-0.369 -0.728,-0.686c-0.215,-0.317 -0.392,-0.737 -0.532,-1.26c-0.14,-0.523 -0.21,-1.167 -0.21,-1.932c0,-0.607 0.075,-1.223 0.224,-1.848c0.159,-0.635 0.401,-1.232 0.728,-1.792c0.336,-0.569 0.765,-1.059 1.288,-1.47c0.532,-0.42 1.176,-0.709 1.932,-0.868c0.327,-0.075 0.695,-0.145 1.106,-0.21c0.42,-0.075 0.845,-0.14 1.274,-0.196c0.439,-0.065 0.849,-0.117 1.232,-0.154c0.392,-0.037 0.723,-0.056 0.994,-0.056c0.439,0 0.751,0.079 0.938,0.238c0.196,0.149 0.294,0.294 0.294,0.434c0,0.093 -0.037,0.182 -0.112,0.266c-0.075,0.075 -0.219,0.121 -0.434,0.14c-0.084,0.009 -0.261,0.033 -0.532,0.07c-0.271,0.028 -0.597,0.07 -0.98,0.126c-0.383,0.056 -0.784,0.117 -1.204,0.182c-0.411,0.056 -0.812,0.117 -1.204,0.182c-0.383,0.056 -0.714,0.107 -0.994,0.154c-0.775,0.149 -1.386,0.406 -1.834,0.77c-0.448,0.364 -0.775,0.793 -0.98,1.288c-0.205,0.495 -0.336,1.003 -0.392,1.526c0.373,-0.084 0.779,-0.173 1.218,-0.266c0.448,-0.093 0.877,-0.177 1.288,-0.252c0.411,-0.084 0.765,-0.149 1.064,-0.196c0.308,-0.047 0.513,-0.07 0.616,-0.07c0.196,0 0.317,0.042 0.364,0.126c0.056,0.084 0.084,0.191 0.084,0.322c0,0.252 -0.411,0.532 -1.232,0.84c-0.812,0.308 -1.965,0.569 -3.458,0.784c0,0.317 0.005,0.644 0.014,0.98c0.019,0.327 0.047,0.63 0.084,0.91c0.037,0.28 0.084,0.504 0.14,0.672c0.056,0.168 0.131,0.252 0.224,0.252c0.215,0 0.495,-0.065 0.84,-0.196c0.355,-0.131 0.723,-0.289 1.106,-0.476c0.383,-0.187 0.733,-0.369 1.05,-0.546c0.327,-0.177 0.565,-0.317 0.714,-0.42c0.177,-0.112 0.369,-0.233 0.574,-0.364c0.205,-0.131 0.359,-0.196 0.462,-0.196c0.131,0 0.196,0.075 0.196,0.224c0,0.084 -0.075,0.247 -0.224,0.49c-0.14,0.243 -0.345,0.518 -0.616,0.826c-0.271,0.299 -0.593,0.593 -0.966,0.882c-0.364,0.28 -0.775,0.513 -1.232,0.7c-0.448,0.187 -0.929,0.28 -1.442,0.28zM235.278,184.496c-0.14,0 -0.243,-0.051 -0.308,-0.154c-0.065,-0.103 -0.098,-0.233 -0.098,-0.392c0,-0.131 0.084,-0.317 0.252,-0.56c0.177,-0.252 0.406,-0.546 0.686,-0.882c0.289,-0.345 0.607,-0.714 0.952,-1.106c0.345,-0.392 0.695,-0.789 1.05,-1.19c-0.429,-0.728 -0.756,-1.302 -0.98,-1.722c-0.224,-0.429 -0.336,-0.765 -0.336,-1.008c0,-0.168 0.056,-0.322 0.168,-0.462c0.112,-0.149 0.224,-0.224 0.336,-0.224c0.131,0 0.257,0.079 0.378,0.238c0.131,0.149 0.289,0.406 0.476,0.77c0.187,0.355 0.439,0.845 0.756,1.47c0.513,-0.616 0.938,-1.12 1.274,-1.512c0.345,-0.392 0.621,-0.695 0.826,-0.91c0.215,-0.215 0.383,-0.364 0.504,-0.448c0.131,-0.093 0.243,-0.14 0.336,-0.14c0.112,0 0.205,0.047 0.28,0.14c0.075,0.084 0.112,0.224 0.112,0.42c0,0.187 -0.089,0.415 -0.266,0.686c-0.168,0.271 -0.392,0.565 -0.672,0.882c-0.28,0.317 -0.583,0.644 -0.91,0.98c-0.317,0.327 -0.621,0.644 -0.91,0.952c0.467,0.803 0.915,1.503 1.344,2.1c0.429,0.588 0.775,1.073 1.036,1.456c0.271,0.383 0.406,0.663 0.406,0.84c0,0.121 -0.028,0.215 -0.084,0.28c-0.056,0.056 -0.163,0.084 -0.322,0.084c-0.112,0 -0.243,-0.047 -0.392,-0.14c-0.149,-0.093 -0.341,-0.275 -0.574,-0.546c-0.224,-0.271 -0.518,-0.663 -0.882,-1.176c-0.355,-0.523 -0.793,-1.204 -1.316,-2.044c-0.327,0.364 -0.653,0.742 -0.98,1.134c-0.317,0.383 -0.621,0.742 -0.91,1.078c-0.28,0.327 -0.527,0.593 -0.742,0.798c-0.215,0.205 -0.378,0.308 -0.49,0.308zM246.229,185.35c-0.42,0 -0.793,-0.126 -1.12,-0.378c-0.317,-0.261 -0.565,-0.616 -0.742,-1.064c-0.177,-0.448 -0.266,-0.966 -0.266,-1.554c0,-0.616 0.07,-1.237 0.21,-1.862c0.14,-0.625 0.317,-1.199 0.532,-1.722c0.215,-0.523 0.434,-0.938 0.658,-1.246c0.224,-0.317 0.425,-0.476 0.602,-0.476c0.131,0 0.238,0.042 0.322,0.126c0.084,0.084 0.126,0.205 0.126,0.364c0,0.037 -0.037,0.168 -0.112,0.392c-0.075,0.215 -0.168,0.495 -0.28,0.84c-0.112,0.336 -0.224,0.709 -0.336,1.12c-0.112,0.411 -0.205,0.831 -0.28,1.26c-0.075,0.429 -0.112,0.835 -0.112,1.218c0,0.653 0.061,1.115 0.182,1.386c0.131,0.261 0.336,0.392 0.616,0.392c0.681,0 1.316,-0.177 1.904,-0.532c0.597,-0.364 1.148,-0.84 1.652,-1.428c0.513,-0.597 0.985,-1.255 1.414,-1.974c-0.327,0.047 -0.644,0.084 -0.952,0.112c-0.308,0.019 -0.602,0.033 -0.882,0.042c-0.271,0.009 -0.448,-0.023 -0.532,-0.098c-0.084,-0.075 -0.126,-0.191 -0.126,-0.35c-0.009,-0.14 0.047,-0.266 0.168,-0.378c0.131,-0.112 0.266,-0.173 0.406,-0.182c0.42,-0.037 0.849,-0.084 1.288,-0.14c0.439,-0.056 0.873,-0.121 1.302,-0.196c0.224,-0.429 0.439,-0.863 0.644,-1.302c0.205,-0.439 0.392,-0.859 0.56,-1.26c0.196,-0.607 0.401,-1.171 0.616,-1.694c0.215,-0.532 0.429,-0.961 0.644,-1.288c0.215,-0.336 0.415,-0.504 0.602,-0.504c0.317,0 0.476,0.159 0.476,0.476c0,0.065 -0.042,0.247 -0.126,0.546c-0.084,0.299 -0.201,0.686 -0.35,1.162c-0.14,0.476 -0.303,1.017 -0.49,1.624c-0.187,0.597 -0.378,1.227 -0.574,1.89c0.84,-0.168 1.605,-0.331 2.296,-0.49c0.7,-0.168 1.274,-0.303 1.722,-0.406c0.448,-0.112 0.714,-0.168 0.798,-0.168c0.121,0 0.219,0.061 0.294,0.182c0.075,0.112 0.112,0.219 0.112,0.322c0,0.084 -0.154,0.196 -0.462,0.336c-0.299,0.14 -0.714,0.294 -1.246,0.462c-0.523,0.159 -1.12,0.322 -1.792,0.49c-0.663,0.159 -1.353,0.308 -2.072,0.448c-0.233,0.793 -0.457,1.577 -0.672,2.352c-0.215,0.775 -0.397,1.484 -0.546,2.128c-0.084,0.411 -0.289,0.616 -0.616,0.616c-0.168,0 -0.294,-0.042 -0.378,-0.126c-0.075,-0.084 -0.112,-0.229 -0.112,-0.434c0,-0.028 0.023,-0.168 0.07,-0.42c0.056,-0.261 0.126,-0.583 0.21,-0.966c0.084,-0.392 0.173,-0.798 0.266,-1.218c0.093,-0.429 0.182,-0.826 0.266,-1.19c-0.495,0.877 -1.041,1.675 -1.638,2.394c-0.597,0.719 -1.246,1.293 -1.946,1.722c-0.691,0.429 -1.423,0.644 -2.198,0.644zM246.397,175.676c-0.224,0 -0.411,-0.07 -0.56,-0.21c-0.14,-0.14 -0.21,-0.313 -0.21,-0.518c0,-0.252 0.089,-0.462 0.266,-0.63c0.187,-0.177 0.401,-0.266 0.644,-0.266c0.271,0 0.476,0.079 0.616,0.238c0.14,0.149 0.21,0.345 0.21,0.588c0,0.196 -0.093,0.378 -0.28,0.546c-0.187,0.168 -0.415,0.252 -0.686,0.252z" fill="#000000" stroke="none" stroke-width="1"/></g></g></svg>