<svg version="1.1" xmlns="http://www.w3.org/2000/svg" xmlns:xlink="http://www.w3.org/1999/xlink" width="19.31352" height="22.9139" viewBox="0,0,19.31352,22.9139"><g transform="translate(-230.08121,-169.10491)"><g data-paper-data="{&quot;isPaintingLayer&quot;:true}" fill-rule="evenodd" stroke="none" stroke-width="1" stroke-linecap="butt" stroke-linejoin="miter" stroke-miterlimit="10" stroke-dasharray="" stroke-dashoffset="0" style="mix-blend-mode: normal"><path d="M238.44517,183.83613l0.54676,-3.1297h5.07162c0,0 0.39592,0.60331 0.75414,1.69682c0.13197,0.41478 0.30165,1.11236 0.43363,1.60255z" data-paper-data="{&quot;index&quot;:null}" fill="#f01446"/><g data-paper-data="{&quot;index&quot;:null}"><path d="M237.58094,173.20619c-0.32051,0 -0.65988,-0.2828 -0.71644,-0.58446c-0.05656,-0.30166 0.07542,-0.71644 0.39593,-0.79185c0.41477,-0.11312 0.58445,0.28281 0.75414,0.56561c0.05656,0.39592 0.09427,0.79184 -0.43363,0.8107z" fill="#be8c64"/><path d="M237.39239,173.03652c-0.09427,-0.73529 -0.09427,-1.48944 0.03771,-2.22473l2.65836,-0.45249l1.62141,-0.26395c0.39592,-0.05656 0.43363,-0.11312 0.62217,0.30166c0.33937,0.73529 0.2074,1.79109 -0.01885,2.56409c-0.15082,0.4902 -1.03695,2.09275 -2.46982,2.09275c-1.43288,0 -2.41327,-1.65912 -2.45097,-2.01734z" fill="#dcaa78"/><path d="M242.67142,170.28389c0.4902,-0.20739 0.99924,-0.35822 1.52714,-0.41478c0.58446,-0.07542 1.22549,-0.05656 1.75339,0.2828c0.94268,0.62217 1.43287,2.41327 0.90497,3.43136c-0.30167,0.58446 -0.98039,0.75414 -1.546,0.50905c-0.54676,-0.2451 -0.82956,-0.773 -0.98039,-1.33861c-0.16969,-0.62217 -0.22625,-1.24435 -0.60332,-1.7911c-0.32051,-0.43364 -1.0558,-0.67873 -1.0558,-0.67873z" fill="#000000"/><path d="M242.33204,170.32159c-0.0377,0.13198 -4.22321,1.56484 -5.03391,1.52714c-0.13197,-1.28205 0.37707,-2.33785 1.88536,-2.65836c1.20664,-0.26395 2.58295,0.07542 3.14856,1.13122z" fill="#000000"/><path d="M242.04925,170.03879c0,0 0.47133,-0.18854 0.65987,0.2828c0.11312,0.26395 0.01886,0.56561 -0.20739,0.73529z" fill="#f01446"/><path d="M238.88182,171.81103c0.0377,0.0377 0.07542,0.07542 0.11312,0.11312c0.09428,0.15083 0.13198,0.33937 0.13198,0.50905c-0.01885,0.09427 -0.0377,0.15084 -0.11312,0.18854c-0.09427,0.0377 -0.20739,0.01885 -0.26395,-0.05656c-0.11312,-0.11312 -0.05656,-0.2451 -0.0377,-0.35822c0.0377,-0.13198 0.09426,-0.26395 0.16968,-0.39593z" fill="#be8c64"/><path d="M239.05152,173.50786c0.09427,-0.07542 0.20739,-0.13198 0.32051,-0.18854c0.15083,-0.05656 0.30165,-0.13198 0.47134,-0.18854c0.13198,-0.0377 0.2828,-0.15082 0.41478,-0.16968c0.30167,-0.05656 0.28281,0.33936 0.18854,0.54675c-0.20739,0.43364 -1.16892,0.43364 -1.39517,0z" fill="#000000"/><path d="M239.93763,172.22581l-0.11312,0.0377c-0.07541,-0.05656 -0.07541,-0.30166 -0.05656,-0.37707c0.01885,-0.0377 0.07541,-0.05657 0.15083,-0.03771z" fill="#000000"/><path d="M237.95801,172.28238c-0.03771,-0.09427 -0.05656,-0.18854 -0.03771,-0.26395c0,-0.03771 0.03771,-0.07542 0.05657,-0.07542c0.0377,0 0.05656,0.01886 0.07541,0.05656c0.05656,0.09426 0,0.26394 -0.09427,0.2828z" fill="#000000"/><path d="M240.54095,169.15267c2.94117,0.39593 1.97963,3.45021 1.97963,3.45021l-0.43363,0.05656l-1.52714,-2.41326z" fill="#000000"/><path d="M241.54019,170.01993l-0.50904,2.26244l-0.71644,-1.96078z" fill="#000000"/><path d="M242.08695,171.71675c0,0 0.82957,-0.65988 1.16893,0.03771c0.07541,0.16969 -0.03771,0.58446 -0.07542,0.79185c-0.05656,0.22625 -0.2828,0.37708 -0.49019,0.43364c-0.26396,0.07542 -0.81071,-0.07541 -1.0181,-0.07541c0.01885,-0.35822 0.41478,-1.18778 0.41478,-1.18778z" fill="#dcaa78"/></g><g data-paper-data="{&quot;index&quot;:null}"><path d="M248.68438,180.62448c-0.06484,0.27975 -0.26155,-0.47232 -0.40852,-0.46318c-0.15811,0.02436 0.2109,0.66894 0.12474,0.72267c-0.08614,0.05372 -0.37608,-0.60305 -0.49264,-0.57161c-0.11656,0.03143 0.22202,0.65373 0.15817,0.67705c-0.07499,0.03852 -0.18346,-0.22804 -0.5048,-0.65068c-0.1186,-0.15709 -0.36392,-0.524 -0.52408,-0.68818c-0.19462,-0.21283 -0.43789,-0.3912 -0.67712,-0.54322c0.02636,-0.00406 -1.37244,-0.67899 -1.82653,-0.8249c-0.26862,-0.08004 -1.26192,-0.22389 -2.04847,-0.42653l1.38235,-1.88538c0.69331,0.29794 2.31509,1.01947 3.43621,2.16877c0.91535,0.95168 1.4172,2.37166 1.38072,2.48519z" fill="#dcaa78"/><path d="M240.40121,177.63714c0,0 -0.81291,-0.1986 -0.49881,-1.48788c0.31006,-1.31564 1.91762,-0.86171 1.91762,-0.86171c0.58181,0.09928 1.96134,0.73671 1.96134,0.73671l-0.76102,2.15392c0,0 -2.64548,-0.53697 -2.61913,-0.54104z" fill="#008264"/><path d="M242.57233,178.24714l1.02046,-2.57153l0.52201,0.14895l-0.85525,2.50563z" fill="#f01446"/><path d="M247.43151,179.49547c0.25442,0.16316 0.36495,0.61826 -0.06887,0.6041c-0.02734,0.26049 -0.01313,0.52807 -0.13374,0.53314c-0.10541,0.01623 -0.31735,-1.09767 -0.31735,-1.09767c0,0 0.25033,-0.21387 0.51997,-0.03957z" fill="#be8c64"/></g><path d="M240.4625,174.89951c0.58446,0.05656 2.05505,-0.15083 2.96002,1.97963c0.64102,1.50829 2.14931,6.41023 2.14931,6.41023l-7.22094,-0.56561c0,0 0.11312,-3.84613 0.33937,-6.10857c0.16968,-1.64027 1.0181,-1.77224 1.77224,-1.71568z" data-paper-data="{&quot;index&quot;:null}" fill="#0066a1"/><g data-paper-data="{&quot;index&quot;:null}"><path d="M232.62372,178.29026c-0.15861,-0.0805 -1.49632,-1.16727 -1.19952,-1.47831c0.20038,-0.03276 1.17649,1.29406 1.19952,1.47831z" fill="#be8c64"/><path d="M238.91301,179.9581c-0.54232,0.41503 -2.00257,0.98724 -2.66217,0.98867c-0.81156,0.00497 -1.59749,-0.09358 -2.33545,-0.44119c-1.36265,-0.65344 -3.84671,-2.54608 -3.83413,-2.70778c0.01259,-0.1617 0.60878,0.4255 0.7636,0.2441c0.1548,-0.18141 -0.66744,-0.63231 -0.61283,-0.79734c0.03847,-0.15528 0.89348,0.49601 0.95141,0.37302c0.05794,-0.12298 -0.62517,-0.52569 -0.5962,-0.58718c0.01923,-0.07764 2.11699,1.10126 3.11685,1.44508c0.46918,0.15743 1.34604,0.44332 1.84727,0.47134c0.63704,0.0342 1.41586,-0.17119 1.92255,-0.60878c0,0 0.9196,-0.88469 1.57469,0.01925c0.66481,0.92007 -0.1356,1.6008 -0.1356,1.6008z" fill="#dcaa78"/><path d="M241.88574,177.54929c-0.38039,0.53755 -0.95762,1.25984 -1.61295,1.74302c-0.65534,0.48318 -1.38524,0.87923 -2.12818,1.21709l-0.98415,-2.07048c0,0 1.08842,-0.56817 1.44791,-1.79763c0,0 0.49413,-1.77294 2.18256,-1.49203c1.68844,0.28091 1.5234,1.72334 1.09482,2.40004z" fill="#00a08c"/><path d="M237.97083,180.87838l-1.27313,-2.62276l0.61355,-0.36992l1.28286,2.63891z" fill="#f01446"/></g><g data-paper-data="{&quot;index&quot;:null}"><g><path d="M238.04464,186.84741c0,0 -1.84248,-1.08662 -1.69461,-1.29612c0.75148,-1.01186 2.75462,-2.0904 3.25078,-0.80538c0.27822,0.70196 -0.21489,1.00882 -0.72553,1.38136c-0.28495,0.21623 -0.55779,0.4682 -0.83062,0.72015z" fill="#dcaa78"/><path d="M240.82319,183.7135c0.82525,1.49183 -0.54667,2.43565 -0.54667,2.43565c-0.61775,0.40892 -1.1705,0.71611 -1.1705,0.71611l-1.80879,-2.51175l1.45443,-1.11121c0,0 1.24627,-1.02061 2.07152,0.47122z" fill="#f01446"/></g><g><path d="M237.54179,191.75709c0.08893,-0.08994 0.21929,-0.23377 0.36143,-0.40151v0l0.77573,-0.94044c0.14382,0.13037 0.28158,0.24287 0.41935,0.35536c0,0 -1.33486,1.17016 -1.4477,1.24831l-0.10881,-0.26171z" fill="#000000"/><path d="M237.90319,191.3556c0.06501,-0.10172 0.13609,-0.18559 0.19536,-0.24555c-1.78892,-1.10481 -2.0402,-2.31369 -2.05232,-2.3494c-0.34997,-0.73732 -0.21794,-2.69365 0.39139,-3.53776l1.79768,1.59961c-0.46246,0.45573 -0.6794,1.10683 -0.58036,1.75019c0.11116,0.67905 0.52042,1.35642 1.02398,1.84247l-0.77572,0.94043z" fill="#00a08c"/><path d="M237.88535,191.36165c0.01785,-0.00607 0,0 0,0z" fill="#000000"/></g><path d="M238.15986,187.18661l-2.06716,-1.80677l0.2304,-0.37691l2.11498,1.83034z" fill="#008264"/></g><g data-paper-data="{&quot;index&quot;:null}"><g><path d="M244.94776,187.02906c0,0 -1.79685,1.16051 -1.91792,0.93446c-0.56802,-1.12513 -0.63496,-3.39919 0.73617,-3.26714c0.75222,0.06571 0.80566,0.64404 0.90999,1.26746c0.06569,0.35163 0.16873,0.70844 0.27177,1.06522z" fill="#dcaa78"/><path d="M243.39056,183.14105c1.70345,-0.06953 1.9327,1.57983 1.9327,1.57983c0.08887,0.73548 0.11591,1.36728 0.11591,1.36728l-3.0559,0.49198l-0.34195,-1.79813c0,0 -0.35419,-1.57144 1.34926,-1.64097z" fill="#f01446"/></g><g><path d="M249.112,189.67799c-0.04057,-0.1198 -0.11077,-0.30076 -0.19707,-0.50299v0l-0.4933,-1.11482c0.18098,-0.07018 0.34327,-0.14295 0.50557,-0.21573c0,0 0.44821,1.71763 0.46753,1.85352l-0.28272,-0.01997z" fill="#000000"/><path d="M248.91496,189.17503c-0.06182,-0.1037 -0.10497,-0.2048 -0.13202,-0.28467c-1.78912,1.10447 -2.9825,0.7876 -3.01985,0.78244c-0.81597,-0.01739 -2.50589,-1.01181 -2.98761,-1.93471l2.23543,-0.89065c0.20027,0.61762 0.6852,1.10323 1.30477,1.30289c0.6569,0.20482 1.44583,0.14235 2.10597,-0.09013l0.4933,1.11482z" fill="#00a08c"/><path d="M248.91237,189.19369c0,0 0.00258,-0.01869 0,0z" fill="#000000"/></g><path d="M245.30262,187.07801l-2.54135,1.03879l-0.23377,-0.37484l2.58385,-1.07098z" fill="#008264"/></g></g></g></svg>