<svg version="1.1" xmlns="http://www.w3.org/2000/svg" xmlns:xlink="http://www.w3.org/1999/xlink" width="14.70444" height="11.09837" viewBox="0,0,14.70444,11.09837"><g transform="translate(-232.45362,-172.60368)"><g data-paper-data="{&quot;isPaintingLayer&quot;:true}" fill="#000000" fill-rule="nonzero" stroke="none" stroke-width="1" stroke-linecap="butt" stroke-linejoin="miter" stroke-miterlimit="10" stroke-dasharray="" stroke-dashoffset="0" style="mix-blend-mode: normal"><path d="M236.25283,178.92242c-0.14895,-0.02646 -0.30969,-0.03783 -0.40081,0.00511c-0.09112,0.04274 -0.2153,0.19109 -0.33556,0.30753c-0.56269,0.54396 -1.43718,0.67671 -2.15113,0.2694c-0.86684,-0.49432 -1.16839,-1.59803 -0.6739,-2.46462c0.49453,-0.86686 1.59784,-1.16862 2.46467,-0.6741c0.42853,0.24458 0.71857,0.63814 0.84282,1.07842c0.02086,0.0744 0.0323,0.1161 0.07749,0.17586c0.04538,0.05985 0.14844,0.10874 0.23225,0.13944c0.49219,0.18017 0.91817,0.24704 1.28311,0.24593l0.03763,0.17904c0.0118,0.05937 0.08353,0.42377 0.18979,0.95995c-0.42086,-0.06673 -1.03224,-0.12689 -1.56635,-0.22193zM234.74462,177.08664c-0.4684,-0.26714 -1.06493,-0.10408 -1.33228,0.36449c-0.26713,0.46854 -0.10403,1.06493 0.3643,1.33222c0.46854,0.26751 1.0649,0.10423 1.33242,-0.36409c0.26713,-0.46853 0.10406,-1.06511 -0.36446,-1.33264z" data-paper-data="{&quot;index&quot;:null}"/><path d="M247.15431,179.55518c-0.03929,0.29035 -0.34956,0.39611 -1.18498,0.38098c-0.4525,-0.00817 -2.56349,-0.12625 -4.40589,-0.23285c-0.38135,-0.83995 -0.7246,-1.59357 -0.92529,-2.03371c1.94808,0.41804 4.93801,1.06351 5.47547,1.20194c0.80952,0.20855 1.08042,0.39322 1.04069,0.68364z" data-paper-data="{&quot;index&quot;:null}"/><path d="M238.57534,175.06429c-0.06062,0.15603 -0.14923,0.32791 -0.1535,0.42857c-0.00395,0.1007 0.06881,0.24445 0.15099,0.37146c0.40258,0.6226 0.8017,1.40536 1.02834,1.67163c0,0 4.85621,4.34023 5.4554,4.92279c0.59932,0.58274 0.74263,0.87731 0.56448,1.10981c-0.17845,0.23245 -0.50023,0.17031 -1.2183,-0.25725c-0.71808,-0.42782 -6.16859,-3.99289 -6.16859,-3.99289c0,0 0.80056,-1.32466 -0.71208,-2.95184c-0.06058,-0.06516 -0.14566,-0.14125 -0.21837,-0.15986c-0.07277,-0.01875 -0.1155,-0.01314 -0.19216,-0.00363c-0.45385,0.05641 -0.92917,-0.0586 -1.32067,-0.359c-0.79183,-0.60722 -0.94134,-1.74142 -0.33431,-2.53318c0.60749,-0.79174 1.74168,-0.94128 2.53337,-0.33397c0.65224,0.50022 0.86874,1.35796 0.58537,2.08735zM239.1502,178.60541c-0.11501,0.14981 -0.08688,0.36432 0.06313,0.47923c0.1498,0.11496 0.36435,0.08683 0.47934,-0.06302c0.11489,-0.14998 0.08645,-0.36455 -0.06324,-0.47941c-0.14982,-0.11496 -0.3644,-0.08655 -0.47922,0.0632zM237.48485,173.63572c-0.42799,-0.32836 -1.04111,-0.24743 -1.36947,0.18057c-0.32833,0.42796 -0.24739,1.04108 0.18061,1.36944c0.42796,0.3283 1.04119,0.24727 1.36925,-0.18076c0.32849,-0.42782 0.24747,-1.04105 -0.18039,-1.36923z" data-paper-data="{&quot;index&quot;:null}"/></g></g></svg>