<svg version="1.1" xmlns="http://www.w3.org/2000/svg" xmlns:xlink="http://www.w3.org/1999/xlink" width="198.28101" height="13.82912" viewBox="0,0,198.28101,13.82912"><g transform="translate(-140.85949,-173.08544)"><g data-paper-data="{&quot;isPaintingLayer&quot;:true}" fill="#060606" fill-rule="nonzero" stroke="none" stroke-width="1" stroke-linecap="butt" stroke-linejoin="miter" stroke-miterlimit="10" stroke-dasharray="" stroke-dashoffset="0" style="mix-blend-mode: normal"><path d="M143.26576,184.12108c-0.56239,0 -0.98187,-0.07373 -1.25845,-0.22127c-0.27658,-0.14754 -0.50707,-0.41487 -0.69146,-0.80209c-0.12907,-0.29499 -0.2397,-0.77443 -0.3319,-1.43823c-0.08297,-0.67302 -0.12446,-1.54425 -0.12446,-2.6137c0,-0.74677 0.01383,-1.46128 0.04149,-2.14351c0.03688,-0.68223 0.08758,-1.20774 0.15212,-1.57652c0.07376,-0.47019 0.19361,-0.8067 0.35956,-1.00953c0.17517,-0.20283 0.39182,-0.30424 0.64997,-0.30424c0.23049,0 0.41027,0.10141 0.53934,0.30424c0.13829,0.20283 0.23509,0.47941 0.29041,0.82975c0.05532,0.34112 0.08297,0.71911 0.08297,1.13399c0,1.12477 -0.04149,2.26337 -0.12446,3.41579c-0.07375,1.15242 -0.17978,2.21266 -0.31807,3.1807l-0.17978,-0.24892c0.41487,-0.28583 0.85741,-0.53009 1.3276,-0.73294c0.47941,-0.20286 0.94499,-0.35956 1.39674,-0.47019c0.46097,-0.11063 0.86201,-0.16595 1.20313,-0.16595c0.34112,0 0.59005,0.06915 0.74677,0.20744c0.16595,0.13829 0.24892,0.33648 0.24892,0.59465c0,0.25817 -0.11524,0.52093 -0.34573,0.78826c-0.22127,0.25817 -0.53934,0.48402 -0.95421,0.67763c-0.23049,0.11063 -0.50246,0.21202 -0.81592,0.30424c-0.31346,0.08297 -0.63614,0.15212 -0.96804,0.20744c-0.32268,0.05532 -0.63153,0.08297 -0.92655,0.08297zM154.46397,184.17639c-0.3134,0 -0.53009,-0.11988 -0.64997,-0.35956c-0.11063,-0.24892 -0.17511,-0.64072 -0.19361,-1.17547l0.13829,0.06915c-0.51626,1.00494 -1.49354,1.50737 -2.93177,1.50737c-0.65455,0 -1.19847,-0.11521 -1.63181,-0.34573c-0.43332,-0.23968 -0.75599,-0.55316 -0.96804,-0.94038c-0.20283,-0.39646 -0.30424,-0.82517 -0.30424,-1.28611c0,-0.79287 0.27658,-1.41979 0.82975,-1.88076c0.55316,-0.47019 1.28608,-0.70528 2.1988,-0.70528c0.59932,0 1.12016,0.08758 1.56269,0.26275c0.44253,0.17517 0.82059,0.41948 1.13399,0.73294l-0.23509,-0.02766c-0.06448,-0.93116 -0.26733,-1.59496 -0.60848,-1.99139c-0.3319,-0.40565 -0.80667,-0.60848 -1.4244,-0.60848c-0.35956,0 -0.69146,0.05532 -0.9957,0.16595c-0.30424,0.11063 -0.5854,0.22587 -0.84358,0.34573c-0.2489,0.11063 -0.48399,0.16595 -0.70526,0.16595c-0.22127,0 -0.39644,-0.07375 -0.52551,-0.22127c-0.11986,-0.14751 -0.17978,-0.33651 -0.17978,-0.56699c0,-0.3319 0.15673,-0.64536 0.47019,-0.94038c0.32268,-0.29502 0.74677,-0.53473 1.27225,-0.71911c0.52551,-0.18439 1.09717,-0.27658 1.71481,-0.27658c0.74677,0 1.38758,0.17978 1.92225,0.53934c0.53475,0.35956 0.94038,0.88506 1.21696,1.57652c0.23976,0.59005 0.41029,1.24923 0.51168,1.97756c0.10147,0.72834 0.15212,1.50737 0.15212,2.33712c0,0.62689 -0.03224,1.11091 -0.0968,1.45206c-0.06448,0.34115 -0.16595,0.58082 -0.30424,0.71911c-0.12904,0.12904 -0.30424,0.19361 -0.52551,0.19361zM151.40774,182.62753c0.30424,0 0.61315,-0.04149 0.92655,-0.12446c0.31349,-0.09222 0.57624,-0.22585 0.78826,-0.40104c0.2121,-0.1752 0.31807,-0.3918 0.31807,-0.64997c0,-0.22127 -0.09214,-0.40104 -0.27658,-0.53934c-0.17511,-0.14751 -0.41021,-0.25815 -0.70528,-0.3319c-0.28574,-0.07375 -0.59465,-0.11063 -0.92655,-0.11063c-0.56233,0 -0.99103,0.0968 -1.28611,0.29041c-0.28574,0.19361 -0.4287,0.45175 -0.4287,0.77443c0,0.35031 0.13371,0.62231 0.40104,0.81592c0.27658,0.18436 0.67305,0.27658 1.1893,0.27658zM158.99586,175.71297h-0.27658c-0.02766,-0.40565 -0.0185,-0.78826 0.02766,-1.14782c0.04607,-0.36878 0.14287,-0.6638 0.29041,-0.88506c0.1567,-0.23049 0.37797,-0.34573 0.6638,-0.34573c0.25809,0 0.44711,0.08297 0.56699,0.24892c0.11979,0.16595 0.17978,0.39644 0.17978,0.69146c0,0.58082 -0.11063,1.07867 -0.3319,1.49354l-0.24892,-0.02766c0.49785,-0.17517 1.06017,-0.26275 1.68715,-0.26275c0.39638,0 0.70987,0.07837 0.94038,0.23509c0.23968,0.14751 0.35956,0.40104 0.35956,0.7606c0,0.34112 -0.13829,0.59926 -0.41487,0.77443c-0.27658,0.17517 -0.62231,0.26275 -1.03718,0.26275c-0.24892,0 -0.51634,-0.00922 -0.80209,-0.02766c-0.27658,-0.02766 -0.54858,-0.06915 -0.81592,-0.12446l0.23509,-0.29041c0.08297,0.35033 0.16128,0.75138 0.23509,1.20313c0.08297,0.44253 0.1567,0.9035 0.22127,1.38291c0.06448,0.47941 0.11521,0.94499 0.15212,1.39674c0.03682,0.45178 0.05532,0.85741 0.05532,1.21696c0,0.59007 -0.09222,1.05559 -0.27658,1.39674c-0.18445,0.34115 -0.45636,0.51168 -0.81592,0.51168c-0.28583,0 -0.51168,-0.08756 -0.67763,-0.26275c-0.15679,-0.1752 -0.272,-0.39646 -0.34573,-0.6638c-0.06456,-0.27658 -0.10605,-0.56241 -0.12446,-0.85741c-0.00925,-0.29499 -0.01383,-0.56241 -0.01383,-0.80209c0,-0.40565 0.01841,-0.86201 0.05532,-1.36908c0.03682,-0.51628 0.08756,-1.04641 0.15212,-1.59035c0.07373,-0.54394 0.1567,-1.06945 0.24892,-1.57652l0.27658,0.23509c-0.47019,0.2397 -1.05101,0.35956 -1.74247,0.35956c-0.42412,0 -0.75144,-0.07837 -0.98187,-0.23509c-0.23051,-0.15673 -0.34573,-0.40104 -0.34573,-0.73294c0,-0.35956 0.12904,-0.63614 0.38722,-0.82975c0.25809,-0.20283 0.60381,-0.30424 1.03718,-0.30424c0.28574,0 0.55316,0.01844 0.80209,0.05532c0.25809,0.02766 0.48402,0.06454 0.67763,0.11063zM165.19537,173.43117c0.36881,0 0.63156,0.10141 0.78826,0.30424c0.16595,0.20283 0.24892,0.43792 0.24892,0.70528c0,0.3319 -0.10138,0.59005 -0.30424,0.77443c-0.19361,0.17517 -0.47019,0.26275 -0.82975,0.26275c-0.35031,0 -0.61306,-0.0968 -0.78826,-0.29041c-0.17511,-0.20283 -0.26275,-0.43792 -0.26275,-0.70528c0,-0.35033 0.10605,-0.61309 0.31807,-0.78826c0.2121,-0.17517 0.48869,-0.26275 0.82975,-0.26275zM165.27834,176.51506c0.29508,0 0.52551,0.27658 0.69146,0.82975c0.1752,0.55316 0.26275,1.43362 0.26275,2.64136c0,1.4843 -0.10597,2.55381 -0.31807,3.20836c-0.21202,0.65455 -0.53467,0.98187 -0.96804,0.98187c-0.3319,0 -0.57616,-0.23968 -0.73294,-0.71911c-0.1567,-0.4886 -0.23509,-1.33684 -0.23509,-2.54456c0,-1.48432 0.11988,-2.58604 0.35956,-3.30516c0.24892,-0.72834 0.56241,-1.0925 0.94038,-1.0925zM169.34626,173.08544c0.29508,0 0.49785,0.11524 0.60848,0.34573c0.11988,0.23048 0.17978,0.57622 0.17978,1.03718c0,0.39644 -0.02299,0.89429 -0.06915,1.49354c-0.04607,0.59926 -0.10597,1.17547 -0.17978,1.72864h-0.08297c0.30424,-0.5716 0.69612,-1.03258 1.17547,-1.38291c0.47944,-0.35033 0.98653,-0.52551 1.5212,-0.52551c0.47019,0 0.88973,0.11524 1.25845,0.34573c0.36881,0.22127 0.66846,0.5716 0.89889,1.05101c0.2121,0.43331 0.36881,0.9496 0.47019,1.54886c0.10147,0.59005 0.15212,1.15242 0.15212,1.68715c0,0.85741 -0.0599,1.53961 -0.17978,2.04671c-0.11063,0.5071 -0.26733,0.87582 -0.47019,1.10633c-0.20277,0.22127 -0.44253,0.3319 -0.71911,0.3319c-0.58082,0 -0.87123,-0.47477 -0.87123,-1.4244c0,-0.46094 0.02308,-0.9358 0.06915,-1.4244c0.05532,-0.48863 0.08297,-0.93577 0.08297,-1.34142c0,-0.69146 -0.11063,-1.20774 -0.3319,-1.54886c-0.21202,-0.35033 -0.52084,-0.52551 -0.92655,-0.52551c-0.50701,0 -0.9173,0.22587 -1.23079,0.67763c-0.3134,0.45175 -0.47019,1.07406 -0.47019,1.86693c0,0.41487 0.03691,0.87123 0.11063,1.36908c0.07381,0.4886 0.11063,0.9358 0.11063,1.34142c0,0.45178 -0.08756,0.77901 -0.26275,0.98187c-0.16595,0.19361 -0.38255,0.29041 -0.64997,0.29041c-0.20277,0 -0.38255,-0.04149 -0.53934,-0.12446c-0.14745,-0.07373 -0.27658,-0.22585 -0.38722,-0.45636c-0.10138,-0.23968 -0.18894,-0.59465 -0.26275,-1.06484c-0.05532,-0.35956 -0.11063,-0.77901 -0.16595,-1.25845c-0.05532,-0.47941 -0.10138,-0.98187 -0.13829,-1.50737c-0.03682,-0.52551 -0.06915,-1.03718 -0.0968,-1.53503c-0.01841,-0.50707 -0.02766,-0.96804 -0.02766,-1.38291c0,-1.30916 0.12446,-2.25875 0.37339,-2.8488c0.24892,-0.59926 0.59932,-0.89889 1.05101,-0.89889zM183.01358,184.17639c-0.31349,0 -0.53017,-0.11988 -0.64997,-0.35956c-0.11063,-0.24892 -0.1752,-0.64072 -0.19361,-1.17547l0.13829,0.06915c-0.51634,1.00494 -1.49354,1.50737 -2.93177,1.50737c-0.65464,0 -1.19855,-0.11521 -1.63184,-0.34573c-0.43337,-0.23968 -0.75602,-0.55316 -0.96804,-0.94038c-0.20286,-0.39646 -0.30424,-0.82517 -0.30424,-1.28611c0,-0.79287 0.27658,-1.41979 0.82975,-1.88076c0.55316,-0.47019 1.28611,-0.70528 2.19883,-0.70528c0.59923,0 1.12016,0.08758 1.56269,0.26275c0.44253,0.17517 0.8205,0.41948 1.13399,0.73294l-0.23509,-0.02766c-0.06456,-0.93116 -0.26742,-1.59496 -0.60848,-1.99139c-0.3319,-0.40565 -0.80676,-0.60848 -1.4244,-0.60848c-0.35956,0 -0.69146,0.05532 -0.9957,0.16595c-0.30424,0.11063 -0.58549,0.22587 -0.84358,0.34573c-0.24892,0.11063 -0.48402,0.16595 -0.70528,0.16595c-0.22127,0 -0.39646,-0.07375 -0.52551,-0.22127c-0.11988,-0.14751 -0.17978,-0.33651 -0.17978,-0.56699c0,-0.3319 0.1567,-0.64536 0.47019,-0.94038c0.32265,-0.29502 0.74677,-0.53473 1.27228,-0.71911c0.52551,-0.18439 1.09708,-0.27658 1.71481,-0.27658c0.74677,0 1.38749,0.17978 1.92225,0.53934c0.53467,0.35956 0.94038,0.88506 1.21696,1.57652c0.23968,0.59005 0.41021,1.24923 0.51168,1.97756c0.10138,0.72834 0.15212,1.50737 0.15212,2.33712c0,0.62689 -0.03233,1.11091 -0.0968,1.45206c-0.06456,0.34115 -0.16595,0.58082 -0.30424,0.71911c-0.12913,0.12904 -0.30424,0.19361 -0.52551,0.19361zM179.95735,182.62753c0.30424,0 0.61306,-0.04149 0.92655,-0.12446c0.3134,-0.09222 0.57616,-0.22585 0.78826,-0.40104c0.21202,-0.1752 0.31807,-0.3918 0.31807,-0.64997c0,-0.22127 -0.09222,-0.40104 -0.27658,-0.53934c-0.1752,-0.14751 -0.41029,-0.25815 -0.70528,-0.3319c-0.28583,-0.07375 -0.59465,-0.11063 -0.92655,-0.11063c-0.56241,0 -0.99112,0.0968 -1.28611,0.29041c-0.28583,0.19361 -0.4287,0.45175 -0.4287,0.77443c0,0.35031 0.13362,0.62231 0.40104,0.81592c0.27658,0.18436 0.67296,0.27658 1.1893,0.27658zM187.03751,175.43639c0.29499,0 0.49327,0.11986 0.59465,0.35956c0.11063,0.2397 0.16595,0.59465 0.16595,1.06484c0,0.11063 -0.00925,0.23049 -0.02766,0.35956c-0.00925,0.11986 -0.02766,0.23049 -0.05532,0.3319l-0.02766,-0.27658c0.22127,-0.59926 0.56241,-1.06484 1.02335,-1.39674c0.46094,-0.34112 0.94963,-0.51168 1.46589,-0.51168c0.57157,0 1.04643,0.16134 1.4244,0.48402c0.38722,0.32268 0.67305,0.77443 0.85741,1.35525c0.19361,0.58082 0.29041,1.26767 0.29041,2.06054c0,0.48863 -0.02308,0.97265 -0.06915,1.45206c-0.03691,0.47019 -0.09222,0.90347 -0.16595,1.29994c-0.06456,0.38722 -0.13829,0.70528 -0.22127,0.95421c-0.11063,0.31349 -0.2535,0.54858 -0.4287,0.70528c-0.1752,0.14754 -0.38263,0.22127 -0.62231,0.22127c-0.23968,0 -0.42412,-0.08756 -0.55316,-0.26275c-0.12904,-0.1752 -0.19361,-0.41029 -0.19361,-0.70528c0,-0.31349 0.02308,-0.69146 0.06915,-1.13399c0.04607,-0.45175 0.08756,-0.90811 0.12446,-1.36908c0.04607,-0.47019 0.06915,-0.89429 0.06915,-1.27228c0,-1.29071 -0.42412,-1.93608 -1.27228,-1.93608c-0.45178,0 -0.82975,0.20283 -1.13399,0.60848c-0.30424,0.39644 -0.5071,0.96343 -0.60848,1.70098c-0.02766,0.24892 -0.04149,0.55777 -0.04149,0.92655c0,0.36878 0,0.73755 0,1.10633c0.00925,0.35956 0,0.6638 -0.02766,0.91272c-0.03691,0.55316 -0.14287,0.94963 -0.31807,1.1893c-0.16595,0.23968 -0.39646,0.35956 -0.69146,0.35956c-0.34115,0 -0.59923,-0.1567 -0.77443,-0.47019c-0.1752,-0.32265 -0.26275,-0.86199 -0.26275,-1.61801c0,-0.38722 0.00925,-0.82052 0.02766,-1.29994c0.01841,-0.47941 0.04149,-0.95882 0.06915,-1.43823c0.03691,-0.48863 0.07839,-0.93116 0.12446,-1.3276c0.09222,-0.74677 0.22585,-1.33682 0.40104,-1.77013c0.1752,-0.44253 0.43795,-0.6638 0.78826,-0.6638zM199.99418,184.07959c-0.30424,0 -0.6453,-0.01841 -1.02335,-0.05532c-0.36872,-0.03691 -0.72828,-0.10605 -1.07867,-0.20744c-0.34106,-0.11063 -0.62689,-0.25817 -0.85741,-0.44253c-0.22127,-0.19361 -0.3319,-0.44253 -0.3319,-0.74677c0,-0.31349 0.0968,-0.54858 0.29041,-0.70528c0.20286,-0.1567 0.53017,-0.23509 0.98187,-0.23509c0.31349,0 0.6638,0.04149 1.05101,0.12446c0.39646,0.08297 0.77443,0.12446 1.13399,0.12446c0.53475,0 0.92655,-0.08297 1.17547,-0.24892c0.25817,-0.16595 0.38722,-0.39182 0.38722,-0.67763c0,-0.17517 -0.05065,-0.3319 -0.15212,-0.47019c-0.09214,-0.13829 -0.28116,-0.27658 -0.56699,-0.41487c-0.28574,-0.13829 -0.71445,-0.29041 -1.28611,-0.45636c-0.65455,-0.17517 -1.18464,-0.36878 -1.59035,-0.58082c-0.40563,-0.22127 -0.70062,-0.48402 -0.88506,-0.78826c-0.18436,-0.30424 -0.27658,-0.6638 -0.27658,-1.07867c0,-0.50707 0.08764,-0.94499 0.26275,-1.31377c0.18445,-0.37799 0.4287,-0.69606 0.73294,-0.95421c0.30424,-0.26736 0.64539,-0.47941 1.02335,-0.63614c0.37805,-0.15673 0.7606,-0.27198 1.14782,-0.34573c0.39646,-0.07375 0.77443,-0.11063 1.13399,-0.11063c0.79293,0 1.43823,0.12446 1.93608,0.37339c0.5071,0.24892 0.7606,0.58082 0.7606,0.9957c0,0.29502 -0.0968,0.53473 -0.29041,0.71911c-0.18436,0.18439 -0.47019,0.27658 -0.85741,0.27658c-0.16595,0 -0.36414,-0.02305 -0.59465,-0.06915c-0.23043,-0.04609 -0.48402,-0.0922 -0.7606,-0.13829c-0.27658,-0.04609 -0.58082,-0.06915 -0.91272,-0.06915c-0.56233,0 -0.9957,0.08758 -1.29994,0.26275c-0.30424,0.17517 -0.45636,0.45636 -0.45636,0.84358c0,0.16595 0.04149,0.31807 0.12446,0.45636c0.09222,0.13829 0.28125,0.28119 0.56699,0.4287c0.28583,0.14751 0.72378,0.31807 1.31377,0.51168c0.72836,0.22127 1.29994,0.46558 1.71481,0.73294c0.41487,0.25815 0.70995,0.55316 0.88506,0.88506c0.1752,0.3319 0.26275,0.70528 0.26275,1.12016c0,0.57157 -0.1567,1.07867 -0.47019,1.5212c-0.30424,0.43328 -0.73294,0.76985 -1.28611,1.00953c-0.54392,0.23968 -1.18006,0.35956 -1.90842,0.35956zM208.51568,184.07959c-0.73761,0 -1.38291,-0.16137 -1.93608,-0.48402c-0.544,-0.3319 -0.96804,-0.80209 -1.27228,-1.41057c-0.29508,-0.60848 -0.44253,-1.3322 -0.44253,-2.17117c0,-0.87584 0.15212,-1.64106 0.45636,-2.29563c0.30424,-0.65458 0.73294,-1.16625 1.28611,-1.53503c0.56233,-0.36878 1.21229,-0.55316 1.94991,-0.55316c0.79284,0 1.47972,0.17978 2.06054,0.53934c0.58082,0.35033 1.03252,0.84358 1.35525,1.47972c0.32265,0.63614 0.48402,1.3783 0.48402,2.22649c0,0.86663 -0.16137,1.61343 -0.48402,2.24032c-0.32274,0.62689 -0.7791,1.11091 -1.36908,1.45206c-0.59007,0.34115 -1.28611,0.51168 -2.0882,0.51168zM208.70929,182.21266c0.57157,0 1.02335,-0.22585 1.35525,-0.67763c0.34106,-0.46097 0.51168,-1.06945 0.51168,-1.82544c0,-0.76521 -0.17062,-1.37369 -0.51168,-1.82544c-0.3319,-0.45175 -0.78368,-0.67763 -1.35525,-0.67763c-0.59007,0 -1.05568,0.22587 -1.39674,0.67763c-0.34115,0.45175 -0.51168,1.06024 -0.51168,1.82544c0,0.75599 0.17053,1.36448 0.51168,1.82544c0.34106,0.45178 0.80667,0.67763 1.39674,0.67763zM219.89575,184.17639c-0.31349,0 -0.53017,-0.11988 -0.64997,-0.35956c-0.11063,-0.24892 -0.1752,-0.64072 -0.19361,-1.17547l0.13829,0.06915c-0.51634,1.00494 -1.49354,1.50737 -2.93177,1.50737c-0.65464,0 -1.19855,-0.11521 -1.63184,-0.34573c-0.43337,-0.23968 -0.75602,-0.55316 -0.96804,-0.94038c-0.20286,-0.39646 -0.30424,-0.82517 -0.30424,-1.28611c0,-0.79287 0.27658,-1.41979 0.82975,-1.88076c0.55316,-0.47019 1.28611,-0.70528 2.19883,-0.70528c0.59923,0 1.12016,0.08758 1.56269,0.26275c0.44253,0.17517 0.8205,0.41948 1.13399,0.73294l-0.23509,-0.02766c-0.06456,-0.93116 -0.26742,-1.59496 -0.60848,-1.99139c-0.3319,-0.40565 -0.80676,-0.60848 -1.4244,-0.60848c-0.35956,0 -0.69146,0.05532 -0.9957,0.16595c-0.30424,0.11063 -0.58549,0.22587 -0.84358,0.34573c-0.24892,0.11063 -0.48402,0.16595 -0.70528,0.16595c-0.22127,0 -0.39646,-0.07375 -0.52551,-0.22127c-0.11988,-0.14751 -0.17978,-0.33651 -0.17978,-0.56699c0,-0.3319 0.1567,-0.64536 0.47019,-0.94038c0.32265,-0.29502 0.74677,-0.53473 1.27228,-0.71911c0.52551,-0.18439 1.09708,-0.27658 1.71481,-0.27658c0.74677,0 1.38749,0.17978 1.92225,0.53934c0.53467,0.35956 0.94038,0.88506 1.21696,1.57652c0.23968,0.59005 0.41021,1.24923 0.51168,1.97756c0.10138,0.72834 0.15203,1.50737 0.15203,2.33712c0,0.62689 -0.03224,1.11091 -0.09672,1.45206c-0.06456,0.34115 -0.16595,0.58082 -0.30424,0.71911c-0.12913,0.12904 -0.30424,0.19361 -0.52551,0.19361zM216.83951,182.62753c0.30424,0 0.61306,-0.04149 0.92655,-0.12446c0.3134,-0.09222 0.57616,-0.22585 0.78826,-0.40104c0.21202,-0.1752 0.31807,-0.3918 0.31807,-0.64997c0,-0.22127 -0.09222,-0.40104 -0.27658,-0.53934c-0.1752,-0.14751 -0.41029,-0.25815 -0.70528,-0.3319c-0.28583,-0.07375 -0.59465,-0.11063 -0.92655,-0.11063c-0.56241,0 -0.99112,0.0968 -1.28611,0.29041c-0.28583,0.19361 -0.4287,0.45175 -0.4287,0.77443c0,0.35031 0.13362,0.62231 0.40104,0.81592c0.27658,0.18436 0.67296,0.27658 1.1893,0.27658zM224.00265,184.06576c-0.28583,0 -0.51168,-0.06456 -0.67763,-0.19361c-0.16595,-0.13829 -0.29966,-0.36414 -0.40104,-0.67763c-0.13829,-0.46094 -0.24434,-1.04176 -0.31807,-1.74247c-0.06456,-0.70989 -0.0968,-1.58113 -0.0968,-2.6137c0,-0.63614 0.02299,-1.27228 0.06915,-1.90842c0.05532,-0.64536 0.12446,-1.23079 0.20744,-1.7563c0.08297,-0.53473 0.17053,-0.9496 0.26275,-1.24462c0.10138,-0.31346 0.22127,-0.53012 0.35956,-0.64997c0.13829,-0.11985 0.29499,-0.17978 0.47019,-0.17978c0.18436,0 0.3319,0.06454 0.44253,0.19361c0.11063,0.11985 0.19819,0.33651 0.26275,0.64997c0.05532,0.30424 0.0968,0.67763 0.12446,1.12016c0.03682,0.44253 0.05532,0.91733 0.05532,1.4244c0,0.69146 -0.03233,1.41979 -0.0968,2.185c-0.06456,0.76521 -0.15212,1.5166 -0.26275,2.25415c-0.10147,0.73752 -0.22593,1.41515 -0.37339,2.03288l-0.38722,-0.19361c0.23968,-0.29499 0.51168,-0.52551 0.81592,-0.69146c0.3134,-0.16595 0.59923,-0.24892 0.85741,-0.24892c0.21202,0 0.37339,0.0599 0.48402,0.17978c0.11979,0.11063 0.17978,0.28583 0.17978,0.52551c0,0.23968 -0.10605,0.47944 -0.31807,0.71911c-0.20286,0.23968 -0.45636,0.43795 -0.7606,0.59465c-0.30424,0.14754 -0.6039,0.22127 -0.89889,0.22127zM233.90438,174.09497c1.09682,0 1.90323,0.28119 2.4201,0.84358c0.52551,0.56239 0.78826,1.29994 0.78826,2.21266c0,0.62692 -0.1478,1.17087 -0.44253,1.63184c-0.28609,0.46097 -0.67763,0.82052 -1.17547,1.07867c-0.49785,0.24892 -1.06052,0.37339 -1.68715,0.37339c-0.2956,0 -0.60848,-0.03227 -0.94038,-0.0968c-0.32326,-0.06454 -0.65948,-0.189 -1.00953,-0.37339l0.06915,-0.17978c0.07347,0.23049 0.13311,0.51628 0.17978,0.85741c0.05532,0.3319 0.0968,0.67763 0.12446,1.03718c0.0363,0.35031 0.05532,0.67305 0.05532,0.96804c0,0.54392 -0.09248,0.96346 -0.27658,1.25845c-0.17546,0.28583 -0.43821,0.4287 -0.78826,0.4287c-0.2956,0 -0.53069,-0.09222 -0.70528,-0.27658c-0.16595,-0.18436 -0.28177,-0.4886 -0.34573,-0.91272c-0.06482,-0.42412 -0.0968,-0.99112 -0.0968,-1.70098c0,-1.36448 0.05964,-2.52612 0.17978,-3.48494c0.12878,-0.96804 0.34573,-1.72864 0.64997,-2.2818c0.23942,-0.4241 0.60848,-0.7606 1.10633,-1.00953c0.50649,-0.24892 1.13831,-0.37339 1.89459,-0.37339zM233.64163,178.60326c0.55316,0 1.00002,-0.14751 1.34142,-0.44253c0.35005,-0.29502 0.52551,-0.72372 0.52551,-1.28611c0,-0.36878 -0.12446,-0.67302 -0.37339,-0.91272c-0.24028,-0.24892 -0.61799,-0.37339 -1.13399,-0.37339c-0.37857,0 -0.70528,0.08758 -0.98187,0.26275c-0.27658,0.16595 -0.48921,0.40104 -0.63614,0.70528c-0.13829,0.29502 -0.20744,0.63614 -0.20744,1.02335c0,0.35956 0.11495,0.62231 0.34573,0.78826c0.23942,0.15673 0.6128,0.23509 1.12016,0.23509zM242.16901,184.14874c-1.02335,0 -1.83927,-0.15212 -2.44775,-0.45636c-0.60848,-0.30424 -1.04669,-0.74219 -1.31377,-1.31377c-0.26794,-0.57157 -0.40104,-1.25384 -0.40104,-2.04671c0,-1.00492 0.1841,-1.85771 0.55316,-2.55839c0.37771,-0.70989 0.89371,-1.25384 1.54886,-1.63184c0.66293,-0.37799 1.41489,-0.56699 2.25415,-0.56699c0.98619,0 1.70962,0.23049 2.17117,0.69146c0.46068,0.45175 0.69146,1.04641 0.69146,1.78396c0,0.59005 -0.15731,1.10172 -0.47105,1.53503c-0.30338,0.4241 -0.72776,0.75138 -1.27141,0.98187c-0.54452,0.23049 -1.17115,0.34573 -1.88076,0.34573c-0.39672,0 -0.77962,-0.05071 -1.14782,-0.15212c-0.36906,-0.10141 -0.70096,-0.2397 -0.9957,-0.41487l0.3319,-0.60848c-0.02766,0.22127 -0.04149,0.44253 -0.04149,0.6638c0,0.64536 0.20225,1.11091 0.60848,1.39674c0.40537,0.27658 0.98187,0.41487 1.72864,0.41487c0.58082,0 1.04583,-0.05074 1.39674,-0.15212c0.35005,-0.10138 0.64478,-0.19819 0.8842,-0.29041c0.24028,-0.10138 0.47538,-0.15212 0.70528,-0.15212c0.12965,0 0.2446,0.03691 0.34659,0.11063c0.11063,0.06456 0.19793,0.16137 0.26275,0.29041c0.07347,0.12904 0.11063,0.28583 0.11063,0.47019c0,0.27658 -0.13829,0.54392 -0.41487,0.80209c-0.27658,0.24892 -0.68713,0.45636 -1.23079,0.62231c-0.53501,0.1567 -1.19449,0.23509 -1.97756,0.23509zM241.36692,179.62661c0.65429,0 1.1798,-0.13829 1.57652,-0.41487c0.39586,-0.27658 0.59465,-0.6177 0.59465,-1.02335c0,-0.32268 -0.11063,-0.58543 -0.3319,-0.78826c-0.21262,-0.21204 -0.54884,-0.31807 -1.00953,-0.31807c-0.43389,0 -0.82543,0.08297 -1.17547,0.24892c-0.34141,0.15673 -0.60848,0.36416 -0.80209,0.62231c-0.19361,0.25815 -0.29041,0.53934 -0.29041,0.84358c0,0.26736 0.12446,0.4748 0.37339,0.62231c0.25757,0.13829 0.6128,0.20744 1.06484,0.20744zM247.00747,177.80117c0,-0.88506 0.08297,-1.5212 0.24892,-1.90842c0.16595,-0.39644 0.40104,-0.59465 0.70528,-0.59465c0.23942,0 0.4287,0.10141 0.56699,0.30424c0.13829,0.19361 0.23942,0.43792 0.30424,0.73294c0.06396,0.2858 0.0968,0.57622 0.0968,0.87123l-0.06915,-0.02766c0.15644,-0.49785 0.39586,-0.92655 0.71911,-1.28611c0.3319,-0.35956 0.72776,-0.53934 1.1893,-0.53934c0.54366,0 0.9447,0.22587 1.20313,0.67763c0.25757,0.44253 0.38722,0.9957 0.38722,1.65949c0,0.88506 -0.10199,1.50277 -0.30424,1.8531c-0.20312,0.35033 -0.47538,0.52551 -0.81592,0.52551c-0.24892,0 -0.43389,-0.10141 -0.55316,-0.30424c-0.11063,-0.20283 -0.1478,-0.56239 -0.11063,-1.07867c0.0363,-0.54394 0.00432,-0.92194 -0.0968,-1.13399c-0.10199,-0.21204 -0.26275,-0.31807 -0.48402,-0.31807c-0.26794,0 -0.48921,0.17056 -0.6638,0.51168c-0.16595,0.3319 -0.24892,0.74217 -0.24892,1.23079c0,0.19361 0.02247,0.43792 0.06915,0.73294c0.04581,0.29502 0.0968,0.6177 0.15212,0.96804c0.05532,0.34112 0.10545,0.68223 0.15212,1.02335c0.04581,0.34115 0.06915,0.65455 0.06915,0.94038c0,0.5071 -0.07865,0.87123 -0.23509,1.0925c-0.15731,0.22127 -0.37857,0.3319 -0.6638,0.3319c-0.32326,0 -0.57218,-0.10138 -0.74677,-0.30424c-0.17546,-0.21202 -0.30943,-0.55316 -0.40104,-1.02335c-0.07433,-0.42412 -0.1478,-0.92655 -0.22127,-1.50737c-0.07433,-0.58082 -0.13397,-1.17547 -0.17978,-1.78396c-0.04667,-0.60848 -0.06915,-1.15704 -0.06915,-1.64566zM257.08285,175.38108c0.82024,0 1.41057,0.11986 1.77013,0.35956c0.35956,0.2397 0.53934,0.54856 0.53934,0.92655c0,0.22127 -0.07865,0.40565 -0.23509,0.55316c-0.1478,0.13829 -0.35956,0.20744 -0.63614,0.20744c-0.28609,0 -0.58514,-0.04149 -0.89889,-0.12446c-0.30424,-0.08297 -0.65948,-0.12446 -1.06484,-0.12446c-0.47019,0 -0.82024,0.0922 -1.05101,0.27658c-0.23077,0.18439 -0.34573,0.41948 -0.34573,0.70528c0,0.26736 0.10113,0.47941 0.30424,0.63614c0.21176,0.14751 0.6128,0.25815 1.20313,0.3319c0.65429,0.07375 1.19363,0.19361 1.61801,0.35956c0.43302,0.15673 0.75628,0.39644 0.96804,0.71911c0.21176,0.31346 0.31807,0.74677 0.31807,1.29994c0,0.87582 -0.30856,1.52578 -0.92655,1.94991c-0.61799,0.42412 -1.47021,0.63614 -2.55839,0.63614c-0.69146,0 -1.2403,-0.05532 -1.64566,-0.16595c-0.40537,-0.11063 -0.70096,-0.26733 -0.88506,-0.47019c-0.17546,-0.20286 -0.26275,-0.44253 -0.26275,-0.71911c0,-0.23968 0.07865,-0.42412 0.23509,-0.55316c0.16595,-0.13829 0.35956,-0.20744 0.58082,-0.20744c0.21176,0 0.43821,0.02766 0.67763,0.08297c0.23942,0.04607 0.49353,0.0968 0.7606,0.15212c0.26707,0.05532 0.54366,0.08297 0.82975,0.08297c0.92223,0 1.38291,-0.28583 1.38291,-0.85741c0,-0.19361 -0.04581,-0.35033 -0.13829,-0.47019c-0.09248,-0.11986 -0.25843,-0.21666 -0.49785,-0.29041c-0.23942,-0.08297 -0.59033,-0.14751 -1.05101,-0.19361c-0.55316,-0.05532 -1.03286,-0.14751 -1.43823,-0.27658c-0.40537,-0.13829 -0.71911,-0.35956 -0.94038,-0.6638c-0.22127,-0.31346 -0.3319,-0.74217 -0.3319,-1.28611c0,-0.85741 0.32239,-1.54886 0.96804,-2.07437c0.64565,-0.53473 1.56269,-0.80209 2.75199,-0.80209zM264.84358,184.14874c-1.02335,0 -1.83927,-0.15212 -2.44775,-0.45636c-0.60848,-0.30424 -1.04669,-0.74219 -1.31377,-1.31377c-0.26707,-0.57157 -0.40104,-1.25384 -0.40104,-2.04671c0,-1.00492 0.1841,-1.85771 0.55316,-2.55839c0.37771,-0.70989 0.89457,-1.25384 1.54886,-1.63184c0.6638,-0.37799 1.41489,-0.56699 2.25415,-0.56699c0.98619,0 1.71049,0.23049 2.17117,0.69146c0.46068,0.45175 0.69146,1.04641 0.69146,1.78396c0,0.59005 -0.15644,1.10172 -0.47019,1.53503c-0.30424,0.4241 -0.72862,0.75138 -1.27228,0.98187c-0.54366,0.23049 -1.17115,0.34573 -1.88076,0.34573c-0.39672,0 -0.77875,-0.05071 -1.14782,-0.15212c-0.36906,-0.10141 -0.70096,-0.2397 -0.9957,-0.41487l0.3319,-0.60848c-0.02766,0.22127 -0.04149,0.44253 -0.04149,0.6638c0,0.64536 0.20312,1.11091 0.60848,1.39674c0.40537,0.27658 0.98187,0.41487 1.72864,0.41487c0.58082,0 1.04669,-0.05074 1.39674,-0.15212c0.35005,-0.10138 0.64565,-0.19819 0.88506,-0.29041c0.23942,-0.10138 0.47451,-0.15212 0.70528,-0.15212c0.12878,0 0.2446,0.03691 0.34573,0.11063c0.11063,0.06456 0.19793,0.16137 0.26275,0.29041c0.07347,0.12904 0.11063,0.28583 0.11063,0.47019c0,0.27658 -0.13829,0.54392 -0.41487,0.80209c-0.27658,0.24892 -0.68713,0.45636 -1.23079,0.62231c-0.53501,0.1567 -1.19363,0.23509 -1.97756,0.23509zM264.04149,179.62661c0.65429,0 1.1798,-0.13829 1.57652,-0.41487c0.39672,-0.27658 0.59465,-0.6177 0.59465,-1.02335c0,-0.32268 -0.11063,-0.58543 -0.3319,-0.78826c-0.21176,-0.21204 -0.54884,-0.31807 -1.00953,-0.31807c-0.43302,0 -0.82543,0.08297 -1.17547,0.24892c-0.34141,0.15673 -0.60848,0.36416 -0.80209,0.62231c-0.19361,0.25815 -0.29041,0.53934 -0.29041,0.84358c0,0.26736 0.12446,0.4748 0.37339,0.62231c0.25843,0.13829 0.6128,0.20744 1.06484,0.20744zM272.3234,183.81684c-0.86691,0 -1.5722,-0.3319 -2.11585,-0.9957c-0.54366,-0.67305 -0.81592,-1.69176 -0.81592,-3.05623c0,-1.45666 0.26275,-2.52151 0.78826,-3.19453c0.52551,-0.67302 1.21696,-1.00953 2.07437,-1.00953c0.50736,0 0.95421,0.12907 1.34142,0.38722c0.38722,0.25815 0.71911,0.62231 0.9957,1.0925l-0.11063,0.19361c-0.02766,-0.12907 -0.05099,-0.26736 -0.06915,-0.41487c-0.01815,-0.14751 -0.02766,-0.25815 -0.02766,-0.3319c0,-0.37799 0.05964,-0.6684 0.17978,-0.87123c0.12878,-0.21204 0.32758,-0.31807 0.59465,-0.31807c0.29473,0 0.52551,0.11986 0.69146,0.35956c0.17546,0.2397 0.30856,0.58082 0.40104,1.02335c0.12014,0.45175 0.22127,1.02796 0.30424,1.72864c0.08297,0.69146 0.12446,1.39213 0.12446,2.10203c0,0.88506 -0.03198,1.62725 -0.0968,2.22649c-0.06482,0.59923 -0.17027,1.09708 -0.31807,1.49354c-0.1478,0.39646 -0.34141,0.74219 -0.58082,1.03718c-0.39672,0.47944 -0.9084,0.84358 -1.53503,1.0925c-0.61799,0.25817 -1.33192,0.38722 -2.14351,0.38722c-0.58082,0 -1.04669,-0.05532 -1.39674,-0.16595c-0.35005,-0.10138 -0.60416,-0.24434 -0.7606,-0.4287c-0.1478,-0.1752 -0.22127,-0.37339 -0.22127,-0.59465c0,-0.23051 0.06482,-0.42412 0.19361,-0.58082c0.12878,-0.14754 0.32239,-0.22127 0.58082,-0.22127c0.23077,0 0.49785,0.03691 0.80209,0.11063c0.31375,0.07373 0.68195,0.11063 1.10633,0.11063c0.89457,0 1.52552,-0.21202 1.89459,-0.63614c0.37771,-0.41487 0.56699,-1.01411 0.56699,-1.79779c0,-0.21202 -0.01383,-0.46094 -0.04149,-0.74677l0.19361,0.06915c-0.23077,0.59007 -0.57132,1.06484 -1.02335,1.4244c-0.45204,0.35031 -0.97755,0.52551 -1.57652,0.52551zM272.84891,182.11586c0.29473,0 0.59033,-0.07839 0.88506,-0.23509c0.29473,-0.1567 0.53934,-0.41487 0.73294,-0.77443c0.19361,-0.35956 0.29041,-0.84358 0.29041,-1.45206c0,-0.72834 -0.17027,-1.32299 -0.51168,-1.78396c-0.34141,-0.46097 -0.82024,-0.69146 -1.43823,-0.69146c-0.53501,0 -0.92655,0.20283 -1.17547,0.60848c-0.24892,0.40565 -0.37339,1.01875 -0.37339,1.83927c0,0.78365 0.12446,1.39674 0.37339,1.83927c0.24892,0.43328 0.65429,0.64997 1.21696,0.64997zM279.58282,173.43117c0.36906,0 0.63182,0.10141 0.78826,0.30424c0.16595,0.20283 0.24892,0.43792 0.24892,0.70528c0,0.3319 -0.10113,0.59005 -0.30424,0.77443c-0.19361,0.17517 -0.47019,0.26275 -0.82975,0.26275c-0.35005,0 -0.6128,-0.0968 -0.78826,-0.29041c-0.17546,-0.20283 -0.26275,-0.43792 -0.26275,-0.70528c0,-0.35033 0.10631,-0.61309 0.31807,-0.78826c0.21176,-0.17517 0.48834,-0.26275 0.82975,-0.26275zM279.6658,176.51506c0.29473,0 0.52551,0.27658 0.69146,0.82975c0.17546,0.55316 0.26275,1.43362 0.26275,2.64136c0,1.4843 -0.10631,2.55381 -0.31807,3.20836c-0.21176,0.65455 -0.53501,0.98187 -0.96804,0.98187c-0.3319,0 -0.5765,-0.23968 -0.73294,-0.71911c-0.15644,-0.4886 -0.23509,-1.33684 -0.23509,-2.54456c0,-1.48432 0.12014,-2.58604 0.35956,-3.30516c0.24892,-0.72834 0.56267,-1.0925 0.94038,-1.0925zM288.97798,174.09497c1.09682,0 1.90323,0.28119 2.4201,0.84358c0.52551,0.56239 0.78826,1.29994 0.78826,2.21266c0,0.62692 -0.1478,1.17087 -0.44253,1.63184c-0.28609,0.46097 -0.67763,0.82052 -1.17547,1.07867c-0.49785,0.24892 -1.06052,0.37339 -1.68715,0.37339c-0.2956,0 -0.60848,-0.03227 -0.94038,-0.0968c-0.32326,-0.06454 -0.65948,-0.189 -1.00953,-0.37339l0.06915,-0.17978c0.07347,0.23049 0.13311,0.51628 0.17978,0.85741c0.05532,0.3319 0.0968,0.67763 0.12446,1.03718c0.0363,0.35031 0.05532,0.67305 0.05532,0.96804c0,0.54392 -0.09248,0.96346 -0.27658,1.25845c-0.17546,0.28583 -0.43821,0.4287 -0.78826,0.4287c-0.2956,0 -0.53069,-0.09222 -0.70528,-0.27658c-0.16595,-0.18436 -0.28177,-0.4886 -0.34573,-0.91272c-0.06482,-0.42412 -0.09767,-0.99112 -0.09767,-1.70098c0,-1.36448 0.0605,-2.52612 0.18064,-3.48494c0.12878,-0.96804 0.34573,-1.72864 0.64997,-2.2818c0.23942,-0.4241 0.60848,-0.7606 1.10633,-1.00953c0.50649,-0.24892 1.13831,-0.37339 1.89459,-0.37339zM288.71522,178.60326c0.55316,0 1.00002,-0.14751 1.34142,-0.44253c0.35005,-0.29502 0.52551,-0.72372 0.52551,-1.28611c0,-0.36878 -0.12446,-0.67302 -0.37339,-0.91272c-0.24028,-0.24892 -0.61799,-0.37339 -1.13399,-0.37339c-0.37857,0 -0.70528,0.08758 -0.98187,0.26275c-0.27658,0.16595 -0.48921,0.40104 -0.63614,0.70528c-0.13829,0.29502 -0.20744,0.63614 -0.20744,1.02335c0,0.35956 0.11495,0.62231 0.34573,0.78826c0.23942,0.15673 0.6128,0.23509 1.12016,0.23509zM299.41291,184.17639c-0.31288,0 -0.52983,-0.11988 -0.64997,-0.35956c-0.11063,-0.24892 -0.17459,-0.64072 -0.19361,-1.17547l0.13829,0.06915c-0.516,1.00494 -1.49354,1.50737 -2.93177,1.50737c-0.65429,0 -1.19795,-0.11521 -1.63184,-0.34573c-0.43302,-0.23968 -0.75542,-0.55316 -0.96804,-0.94038c-0.20225,-0.39646 -0.30424,-0.82517 -0.30424,-1.28611c0,-0.79287 0.27658,-1.41979 0.82975,-1.88076c0.55316,-0.47019 1.28611,-0.70528 2.19883,-0.70528c0.59984,0 1.12016,0.08758 1.56269,0.26275c0.44253,0.17517 0.8211,0.41948 1.13399,0.73294l-0.23509,-0.02766c-0.06396,-0.93116 -0.26707,-1.59496 -0.60848,-1.99139c-0.3319,-0.40565 -0.80641,-0.60848 -1.4244,-0.60848c-0.35956,0 -0.69146,0.05532 -0.9957,0.16595c-0.30424,0.11063 -0.58514,0.22587 -0.84358,0.34573c-0.24892,0.11063 -0.48402,0.16595 -0.70528,0.16595c-0.22127,0 -0.39586,-0.07375 -0.52551,-0.22127c-0.11928,-0.14751 -0.17978,-0.33651 -0.17978,-0.56699c0,-0.3319 0.15731,-0.64536 0.47019,-0.94038c0.32326,-0.29502 0.74677,-0.53473 1.27228,-0.71911c0.52551,-0.18439 1.09769,-0.27658 1.71481,-0.27658c0.74677,0 1.3881,0.17978 1.92225,0.53934c0.53501,0.35956 0.94038,0.88506 1.21696,1.57652c0.24028,0.59005 0.41055,1.24923 0.51168,1.97756c0.10199,0.72834 0.15212,1.50737 0.15212,2.33712c0,0.62689 -0.03198,1.11091 -0.0968,1.45206c-0.06396,0.34115 -0.16595,0.58082 -0.30424,0.71911c-0.12878,0.12904 -0.30424,0.19361 -0.52551,0.19361zM296.35668,182.62753c0.30424,0 0.61367,-0.04149 0.92655,-0.12446c0.31375,-0.09222 0.5765,-0.22585 0.78826,-0.40104c0.21262,-0.1752 0.31807,-0.3918 0.31807,-0.64997c0,-0.22127 -0.09162,-0.40104 -0.27658,-0.53934c-0.17459,-0.14751 -0.40969,-0.25815 -0.70528,-0.3319c-0.28523,-0.07375 -0.59465,-0.11063 -0.92655,-0.11063c-0.56181,0 -0.99051,0.0968 -1.28611,0.29041c-0.28523,0.19361 -0.4287,0.45175 -0.4287,0.77443c0,0.35031 0.13397,0.62231 0.40104,0.81592c0.27658,0.18436 0.67331,0.27658 1.1893,0.27658zM303.43718,175.43639c0.29473,0 0.49353,0.11986 0.59465,0.35956c0.11063,0.2397 0.16595,0.59465 0.16595,1.06484c0,0.11063 -0.00951,0.23049 -0.02766,0.35956c-0.00951,0.11986 -0.02766,0.23049 -0.05532,0.3319l-0.02766,-0.27658c0.22127,-0.59926 0.56267,-1.06484 1.02335,-1.39674c0.46068,-0.34112 0.94989,-0.51168 1.46589,-0.51168c0.57132,0 1.04669,0.16134 1.4244,0.48402c0.38722,0.32268 0.67331,0.77443 0.85741,1.35525c0.19361,0.58082 0.29041,1.26767 0.29041,2.06054c0,0.48863 -0.02334,0.97265 -0.06915,1.45206c-0.03717,0.47019 -0.09248,0.90347 -0.16595,1.29994c-0.06482,0.38722 -0.13829,0.70528 -0.22127,0.95421c-0.11063,0.31349 -0.25325,0.54858 -0.4287,0.70528c-0.17546,0.14754 -0.38289,0.22127 -0.62231,0.22127c-0.23942,0 -0.42438,-0.08756 -0.55316,-0.26275c-0.12878,-0.1752 -0.19361,-0.41029 -0.19361,-0.70528c0,-0.31349 0.02334,-0.69146 0.06915,-1.13399c0.04581,-0.45175 0.0873,-0.90811 0.12446,-1.36908c0.04581,-0.47019 0.06915,-0.89429 0.06915,-1.27228c0,-1.29071 -0.42438,-1.93608 -1.27228,-1.93608c-0.45204,0 -0.82975,0.20283 -1.13399,0.60848c-0.30424,0.39644 -0.50736,0.96343 -0.60848,1.70098c-0.02766,0.24892 -0.04149,0.55777 -0.04149,0.92655c0,0.36878 0,0.73755 0,1.10633c0.00951,0.35956 0,0.6638 -0.02766,0.91272c-0.03717,0.55316 -0.14261,0.94963 -0.31807,1.1893c-0.16595,0.23968 -0.39672,0.35956 -0.69146,0.35956c-0.34141,0 -0.59897,-0.1567 -0.77443,-0.47019c-0.17546,-0.32265 -0.26275,-0.86199 -0.26275,-1.61801c0,-0.38722 0.00951,-0.82052 0.02766,-1.29994c0.01815,-0.47941 0.04149,-0.95882 0.06915,-1.43823c0.03717,-0.48863 0.07865,-0.93116 0.12446,-1.3276c0.09248,-0.74677 0.22559,-1.33682 0.40104,-1.77013c0.17546,-0.44253 0.43821,-0.6638 0.78826,-0.6638zM310.90059,186.91456c-0.3682,0 -0.7001,-0.07839 -0.9957,-0.23509c-0.29473,-0.1567 -0.52983,-0.35498 -0.70528,-0.59465c-0.17459,-0.23968 -0.26275,-0.48402 -0.26275,-0.73294c0,-0.21202 0.05532,-0.37797 0.16595,-0.49785c0.11063,-0.11988 0.25411,-0.17978 0.4287,-0.17978c0.30424,0 0.63182,0.11521 0.98187,0.34573c0.35091,0.23051 0.68281,0.54858 0.9957,0.95421l-0.20744,-0.02766c-0.15644,-1.29069 -0.27658,-2.52615 -0.35956,-3.7062c-0.07347,-1.1893 -0.11063,-2.25415 -0.11063,-3.19453c0,-0.85741 0.06915,-1.49815 0.20744,-1.92225c0.1478,-0.43331 0.38722,-0.64997 0.71911,-0.64997c0.37857,0 0.67763,0.29502 0.89889,0.88506c0.22127,0.59005 0.3319,1.58574 0.3319,2.98709c0,0.6177 -0.01815,1.25387 -0.05532,1.90842c-0.0363,0.64539 -0.09162,1.25845 -0.16595,1.83927c-0.06396,0.58082 -0.15644,1.06942 -0.27658,1.46589c-0.14693,0.47944 -0.35005,0.82517 -0.60848,1.03718c-0.24892,0.21202 -0.57564,0.31807 -0.98187,0.31807zM311.53673,175.32576c-0.29473,0 -0.53415,-0.06454 -0.71911,-0.19361c-0.17459,-0.13829 -0.26275,-0.34573 -0.26275,-0.62231c0,-0.31346 0.10631,-0.57622 0.31807,-0.78826c0.22127,-0.22127 0.53069,-0.3319 0.92655,-0.3319c0.3319,0 0.58601,0.08297 0.7606,0.24892c0.17546,0.15673 0.26275,0.36878 0.26275,0.63614c0,0.3319 -0.11928,0.59005 -0.35956,0.77443c-0.23942,0.18439 -0.54798,0.27658 -0.92655,0.27658zM320.72444,184.17639c-0.31375,0 -0.53069,-0.11988 -0.64997,-0.35956c-0.11063,-0.24892 -0.17546,-0.64072 -0.19361,-1.17547l0.13829,0.06915c-0.51686,1.00494 -1.49354,1.50737 -2.93177,1.50737c-0.65515,0 -1.19881,-0.11521 -1.63184,-0.34573c-0.43389,-0.23968 -0.75628,-0.55316 -0.96804,-0.94038c-0.20312,-0.39646 -0.30424,-0.82517 -0.30424,-1.28611c0,-0.79287 0.27658,-1.41979 0.82975,-1.88076c0.55316,-0.47019 1.28611,-0.70528 2.19883,-0.70528c0.59897,0 1.12016,0.08758 1.56269,0.26275c0.44253,0.17517 0.82024,0.41948 1.13399,0.73294l-0.23509,-0.02766c-0.06482,-0.93116 -0.26794,-1.59496 -0.60848,-1.99139c-0.3319,-0.40565 -0.80727,-0.60848 -1.4244,-0.60848c-0.35956,0 -0.69146,0.05532 -0.9957,0.16595c-0.30424,0.11063 -0.58601,0.22587 -0.84358,0.34573c-0.24892,0.11063 -0.48402,0.16595 -0.70528,0.16595c-0.22127,0 -0.39672,-0.07375 -0.52551,-0.22127c-0.12014,-0.14751 -0.17978,-0.33651 -0.17978,-0.56699c0,-0.3319 0.15644,-0.64536 0.47019,-0.94038c0.32239,-0.29502 0.74677,-0.53473 1.27228,-0.71911c0.52551,-0.18439 1.09682,-0.27658 1.71481,-0.27658c0.74677,0 1.38723,0.17978 1.92225,0.53934c0.53415,0.35956 0.94038,0.88506 1.21696,1.57652c0.23942,0.59005 0.40969,1.24923 0.51168,1.97756c0.10113,0.72834 0.15126,1.50737 0.15126,2.33712c0,0.62689 -0.03198,1.11091 -0.09594,1.45206c-0.06482,0.34115 -0.16595,0.58082 -0.30424,0.71911c-0.12965,0.12904 -0.30424,0.19361 -0.52551,0.19361zM317.66821,182.62753c0.30424,0 0.6128,-0.04149 0.92655,-0.12446c0.31288,-0.09222 0.57564,-0.22585 0.78826,-0.40104c0.21176,-0.1752 0.31807,-0.3918 0.31807,-0.64997c0,-0.22127 -0.09248,-0.40104 -0.27658,-0.53934c-0.17546,-0.14751 -0.41055,-0.25815 -0.70528,-0.3319c-0.28609,-0.07375 -0.59465,-0.11063 -0.92655,-0.11063c-0.56267,0 -0.99137,0.0968 -1.28611,0.29041c-0.28609,0.19361 -0.4287,0.45175 -0.4287,0.77443c0,0.35031 0.13311,0.62231 0.40104,0.81592c0.27658,0.18436 0.67244,0.27658 1.1893,0.27658zM324.74785,175.43639c0.29473,0 0.49353,0.11986 0.59465,0.35956c0.11063,0.2397 0.16595,0.59465 0.16595,1.06484c0,0.11063 -0.00951,0.23049 -0.02766,0.35956c-0.00951,0.11986 -0.02766,0.23049 -0.05532,0.3319l-0.02766,-0.27658c0.22127,-0.59926 0.56267,-1.06484 1.02335,-1.39674c0.46068,-0.34112 0.94989,-0.51168 1.46589,-0.51168c0.57132,0 1.04669,0.16134 1.4244,0.48402c0.38722,0.32268 0.67331,0.77443 0.85741,1.35525c0.19361,0.58082 0.29041,1.26767 0.29041,2.06054c0,0.48863 -0.02334,0.97265 -0.06915,1.45206c-0.03717,0.47019 -0.09248,0.90347 -0.16595,1.29994c-0.06482,0.38722 -0.13829,0.70528 -0.22127,0.95421c-0.11063,0.31349 -0.25325,0.54858 -0.4287,0.70528c-0.17546,0.14754 -0.38289,0.22127 -0.62231,0.22127c-0.23942,0 -0.42438,-0.08756 -0.55316,-0.26275c-0.12878,-0.1752 -0.19361,-0.41029 -0.19361,-0.70528c0,-0.31349 0.02334,-0.69146 0.06915,-1.13399c0.04581,-0.45175 0.0873,-0.90811 0.12446,-1.36908c0.04581,-0.47019 0.06915,-0.89429 0.06915,-1.27228c0,-1.29071 -0.42438,-1.93608 -1.27228,-1.93608c-0.45204,0 -0.82975,0.20283 -1.13399,0.60848c-0.30424,0.39644 -0.50736,0.96343 -0.60848,1.70098c-0.02766,0.24892 -0.04149,0.55777 -0.04149,0.92655c0,0.36878 0,0.73755 0,1.10633c0.00951,0.35956 0,0.6638 -0.02766,0.91272c-0.03717,0.55316 -0.14261,0.94963 -0.31807,1.1893c-0.16595,0.23968 -0.39672,0.35956 -0.69146,0.35956c-0.34141,0 -0.59897,-0.1567 -0.77443,-0.47019c-0.17546,-0.32265 -0.26275,-0.86199 -0.26275,-1.61801c0,-0.38722 0.00951,-0.82052 0.02766,-1.29994c0.01815,-0.47941 0.04149,-0.95882 0.06915,-1.43823c0.03717,-0.48863 0.07865,-0.93116 0.12446,-1.3276c0.09248,-0.74677 0.22559,-1.33682 0.40104,-1.77013c0.17546,-0.44253 0.43821,-0.6638 0.78826,-0.6638zM334.78433,183.81684c-0.86691,0 -1.5722,-0.3319 -2.11585,-0.9957c-0.54452,-0.67305 -0.81592,-1.69176 -0.81592,-3.05623c0,-1.45666 0.26275,-2.52151 0.78826,-3.19453c0.52551,-0.67302 1.21696,-1.00953 2.07437,-1.00953c0.50649,0 0.95421,0.12907 1.34142,0.38722c0.38722,0.25815 0.71911,0.62231 0.9957,1.0925l-0.11063,0.19361c-0.02766,-0.12907 -0.05099,-0.26736 -0.06915,-0.41487c-0.01902,-0.14751 -0.02766,-0.25815 -0.02766,-0.3319c0,-0.37799 0.05964,-0.6684 0.17978,-0.87123c0.12878,-0.21204 0.32671,-0.31807 0.59465,-0.31807c0.29473,0 0.52551,0.11986 0.69146,0.35956c0.17459,0.2397 0.30856,0.58082 0.40104,1.02335c0.11928,0.45175 0.22127,1.02796 0.30424,1.72864c0.08297,0.69146 0.12446,1.39213 0.12446,2.10203c0,0.88506 -0.03284,1.62725 -0.0968,2.22649c-0.06482,0.59923 -0.17114,1.09708 -0.31807,1.49354c-0.1478,0.39646 -0.34141,0.74219 -0.58082,1.03718c-0.39672,0.47944 -0.9084,0.84358 -1.53503,1.0925c-0.61799,0.25817 -1.33278,0.38722 -2.14351,0.38722c-0.58082,0 -1.04669,-0.05532 -1.39674,-0.16595c-0.35091,-0.10138 -0.60416,-0.24434 -0.7606,-0.4287c-0.1478,-0.1752 -0.22127,-0.37339 -0.22127,-0.59465c0,-0.23051 0.06396,-0.42412 0.19361,-0.58082c0.12878,-0.14754 0.32239,-0.22127 0.58082,-0.22127c0.22991,0 0.49785,0.03691 0.80209,0.11063c0.31288,0.07373 0.68195,0.11063 1.10633,0.11063c0.89371,0 1.52552,-0.21202 1.89459,-0.63614c0.37771,-0.41487 0.56699,-1.01411 0.56699,-1.79779c0,-0.21202 -0.01383,-0.46094 -0.04149,-0.74677l0.19361,0.06915c-0.23077,0.59007 -0.57218,1.06484 -1.02335,1.4244c-0.45204,0.35031 -0.97755,0.52551 -1.57652,0.52551zM335.30984,182.11586c0.29473,0 0.58947,-0.07839 0.88506,-0.23509c0.29473,-0.1567 0.53934,-0.41487 0.73294,-0.77443c0.19361,-0.35956 0.29041,-0.84358 0.29041,-1.45206c0,-0.72834 -0.17114,-1.32299 -0.51168,-1.78396c-0.34141,-0.46097 -0.8211,-0.69146 -1.43823,-0.69146c-0.53501,0 -0.92655,0.20283 -1.17547,0.60848c-0.24892,0.40565 -0.37339,1.01875 -0.37339,1.83927c0,0.78365 0.12446,1.39674 0.37339,1.83927c0.24892,0.43328 0.65429,0.64997 1.21696,0.64997z"/></g></g></svg>