<svg xmlns="http://www.w3.org/2000/svg" fill="none" viewBox="0 0 280 15" height="15" width="280">
<path fill="black" d="M5.08326 3.684C4.64459 3.81467 4.23859 3.91733 3.86526 3.992C3.49192 4.05733 3.14192 4.09 2.81526 4.09C2.51659 4.09 2.28326 4.02933 2.11526 3.908C1.94726 3.78667 1.86326 3.60467 1.86326 3.362C1.86326 3.15667 1.93326 2.96067 2.07326 2.774C2.21326 2.58733 2.42792 2.41933 2.71726 2.27C3.06259 2.102 3.50126 1.962 4.03326 1.85C4.56526 1.738 5.18592 1.682 5.89526 1.682C6.37126 1.682 6.78659 1.71467 7.14126 1.78C7.49592 1.836 7.77592 1.906 7.98126 1.99C8.25192 2.102 8.43859 2.23267 8.54126 2.382C8.65326 2.522 8.70926 2.68533 8.70926 2.872C8.70926 3.10533 8.62526 3.29667 8.45726 3.446C8.28926 3.59533 8.01859 3.67 7.64526 3.67C7.42126 3.67 7.18792 3.656 6.94526 3.628C6.71192 3.6 6.46459 3.56267 6.20326 3.516L5.08326 3.684ZM6.04926 2.928C6.52526 3.52533 6.89392 4.22067 7.15526 5.014C7.42592 5.798 7.56126 6.61933 7.56126 7.478C7.56126 8.374 7.43526 9.17667 7.18326 9.886C6.94059 10.586 6.54859 11.1413 6.00726 11.552C5.46592 11.9533 4.74726 12.154 3.85126 12.154C2.74992 12.154 1.92392 11.846 1.37326 11.23C0.822591 10.614 0.547258 9.76933 0.547258 8.696C0.547258 8.17333 0.612591 7.73 0.743258 7.366C0.883258 7.002 1.06526 6.72667 1.28926 6.54C1.51326 6.344 1.75592 6.246 2.01726 6.246C2.25992 6.246 2.44192 6.32067 2.56326 6.47C2.69392 6.61 2.75926 6.81067 2.75926 7.072C2.75926 7.28667 2.72192 7.52467 2.64726 7.786C2.58192 8.038 2.54926 8.28533 2.54926 8.528C2.54926 9.15333 2.65659 9.61067 2.87126 9.9C3.09526 10.18 3.44992 10.32 3.93526 10.32C4.57926 10.32 5.03192 10.0587 5.29326 9.536C5.56392 9.004 5.69926 8.28067 5.69926 7.366C5.69926 6.70333 5.62926 6.05467 5.48926 5.42C5.34926 4.78533 5.12526 4.13667 4.81726 3.474L6.04926 2.928ZM15.9886 12.14C15.6713 12.14 15.4519 12.0187 15.3306 11.776C15.2186 11.524 15.1533 11.1273 15.1346 10.586L15.2746 10.656C14.7519 11.6733 13.7626 12.182 12.3066 12.182C11.6439 12.182 11.0933 12.0653 10.6546 11.832C10.2159 11.5893 9.88927 11.272 9.6746 10.88C9.46927 10.4787 9.3666 10.0447 9.3666 9.578C9.3666 8.77533 9.6466 8.14067 10.2066 7.674C10.7666 7.198 11.5086 6.96 12.4326 6.96C13.0393 6.96 13.5666 7.04867 14.0146 7.226C14.4626 7.40333 14.8453 7.65067 15.1626 7.968L14.9246 7.94C14.8593 6.99733 14.6539 6.32533 14.3086 5.924C13.9726 5.51333 13.4919 5.308 12.8666 5.308C12.5026 5.308 12.1666 5.364 11.8586 5.476C11.5506 5.588 11.2659 5.70467 11.0046 5.826C10.7526 5.938 10.5146 5.994 10.2906 5.994C10.0666 5.994 9.88927 5.91933 9.7586 5.77C9.63727 5.62067 9.5766 5.42933 9.5766 5.196C9.5766 4.86 9.73527 4.54267 10.0526 4.244C10.3793 3.94533 10.8086 3.70267 11.3406 3.516C11.8726 3.32933 12.4513 3.236 13.0766 3.236C13.8326 3.236 14.4813 3.418 15.0226 3.782C15.5639 4.146 15.9746 4.678 16.2546 5.378C16.4973 5.97533 16.6699 6.64267 16.7726 7.38C16.8753 8.11733 16.9266 8.906 16.9266 9.746C16.9266 10.3807 16.8939 10.8707 16.8286 11.216C16.7633 11.5613 16.6606 11.804 16.5206 11.944C16.3899 12.0747 16.2126 12.14 15.9886 12.14ZM12.8946 10.572C13.2026 10.572 13.5153 10.53 13.8326 10.446C14.1499 10.3527 14.4159 10.2173 14.6306 10.04C14.8453 9.86267 14.9526 9.64333 14.9526 9.382C14.9526 9.158 14.8593 8.976 14.6726 8.836C14.4953 8.68667 14.2573 8.57467 13.9586 8.5C13.6693 8.42533 13.3566 8.388 13.0206 8.388C12.4513 8.388 12.0173 8.486 11.7186 8.682C11.4293 8.878 11.2846 9.13933 11.2846 9.466C11.2846 9.82067 11.4199 10.096 11.6906 10.292C11.9706 10.4787 12.3719 10.572 12.8946 10.572ZM18.1303 6.316C18.1303 5.34533 18.2423 4.64533 18.4663 4.216C18.6996 3.78667 19.0029 3.572 19.3763 3.572C19.5909 3.572 19.7543 3.65133 19.8663 3.81C19.9876 3.95933 20.0716 4.16467 20.1183 4.426C20.1649 4.678 20.1883 4.96267 20.1883 5.28C20.1883 5.68133 20.1883 6.15267 20.1883 6.694C20.1976 7.226 20.2069 7.77667 20.2163 8.346C20.2349 8.906 20.2536 9.42867 20.2723 9.914H20.3283C20.6176 8.69133 20.9069 7.688 21.1963 6.904C21.4949 6.12 21.7983 5.54133 22.1063 5.168C22.4236 4.78533 22.7409 4.594 23.0583 4.594C23.4036 4.594 23.7303 4.78533 24.0383 5.168C24.3556 5.54133 24.6636 6.11067 24.9623 6.876C25.2703 7.64133 25.5829 8.60733 25.9003 9.774H25.9563C25.9843 8.97133 26.0029 8.12667 26.0123 7.24C26.0216 6.35333 26.0263 5.54133 26.0263 4.804C26.0263 4.272 26.1149 3.88 26.2923 3.628C26.4696 3.376 26.7169 3.25 27.0343 3.25C27.4356 3.25 27.7249 3.46 27.9023 3.88C28.0889 4.29067 28.1823 4.846 28.1823 5.546C28.1823 6.05933 28.1543 6.61 28.0983 7.198C28.0516 7.77667 27.9816 8.33667 27.8883 8.878C27.7949 9.41933 27.6829 9.89067 27.5523 10.292C27.3563 10.8893 27.1369 11.342 26.8943 11.65C26.6609 11.958 26.3529 12.112 25.9703 12.112C25.6249 12.112 25.2796 11.9113 24.9343 11.51C24.5983 11.0993 24.2809 10.488 23.9823 9.676C23.6836 8.864 23.4083 7.85133 23.1563 6.638H23.1003C22.8576 7.79533 22.5683 8.766 22.2323 9.55C21.9056 10.3247 21.5556 10.908 21.1823 11.3C20.8183 11.692 20.4543 11.888 20.0903 11.888C19.7076 11.888 19.3856 11.7153 19.1243 11.37C18.8723 11.0247 18.6623 10.4927 18.4943 9.774C18.4196 9.41 18.3543 9.02267 18.2983 8.612C18.2423 8.192 18.2003 7.78133 18.1723 7.38C18.1443 6.97867 18.1303 6.624 18.1303 6.316ZM35.4984 12.14C35.181 12.14 34.9617 12.0187 34.8404 11.776C34.7284 11.524 34.663 11.1273 34.6444 10.586L34.7844 10.656C34.2617 11.6733 33.2724 12.182 31.8164 12.182C31.1537 12.182 30.603 12.0653 30.1644 11.832C29.7257 11.5893 29.399 11.272 29.1844 10.88C28.979 10.4787 28.8764 10.0447 28.8764 9.578C28.8764 8.77533 29.1564 8.14067 29.7164 7.674C30.2764 7.198 31.0184 6.96 31.9424 6.96C32.549 6.96 33.0764 7.04867 33.5244 7.226C33.9724 7.40333 34.355 7.65067 34.6724 7.968L34.4344 7.94C34.369 6.99733 34.1637 6.32533 33.8184 5.924C33.4824 5.51333 33.0017 5.308 32.3764 5.308C32.0124 5.308 31.6764 5.364 31.3684 5.476C31.0604 5.588 30.7757 5.70467 30.5144 5.826C30.2624 5.938 30.0244 5.994 29.8004 5.994C29.5764 5.994 29.399 5.91933 29.2684 5.77C29.147 5.62067 29.0864 5.42933 29.0864 5.196C29.0864 4.86 29.245 4.54267 29.5624 4.244C29.889 3.94533 30.3184 3.70267 30.8504 3.516C31.3824 3.32933 31.961 3.236 32.5864 3.236C33.3424 3.236 33.991 3.418 34.5324 3.782C35.0737 4.146 35.4844 4.678 35.7644 5.378C36.007 5.97533 36.1797 6.64267 36.2824 7.38C36.385 8.11733 36.4364 8.906 36.4364 9.746C36.4364 10.3807 36.4037 10.8707 36.3384 11.216C36.273 11.5613 36.1704 11.804 36.0304 11.944C35.8997 12.0747 35.7224 12.14 35.4984 12.14ZM32.4044 10.572C32.7124 10.572 33.025 10.53 33.3424 10.446C33.6597 10.3527 33.9257 10.2173 34.1404 10.04C34.355 9.86267 34.4624 9.64333 34.4624 9.382C34.4624 9.158 34.369 8.976 34.1824 8.836C34.005 8.68667 33.767 8.57467 33.4684 8.5C33.179 8.42533 32.8664 8.388 32.5304 8.388C31.961 8.388 31.527 8.486 31.2284 8.682C30.939 8.878 30.7944 9.13933 30.7944 9.466C30.7944 9.82067 30.9297 10.096 31.2004 10.292C31.4804 10.4787 31.8817 10.572 32.4044 10.572ZM39.208 12.14C39.0027 12.14 38.8347 12.07 38.704 11.93C38.5827 11.79 38.4847 11.5893 38.41 11.328C38.3354 10.9453 38.27 10.446 38.214 9.83C38.1674 9.20467 38.144 8.53733 38.144 7.828C38.144 7.42667 38.1534 6.974 38.172 6.47C38.1907 5.966 38.214 5.45733 38.242 4.944C38.2794 4.42133 38.3167 3.936 38.354 3.488C38.4007 3.04 38.4474 2.676 38.494 2.396C38.5687 1.98533 38.676 1.66333 38.816 1.43C38.9654 1.18733 39.1987 1.066 39.516 1.066C39.8427 1.066 40.0807 1.192 40.23 1.444C40.3794 1.68667 40.454 1.99 40.454 2.354C40.454 2.76467 40.4214 3.25 40.356 3.81C40.3 4.37 40.2114 4.93933 40.09 5.518L39.81 5.854C39.9127 5.462 40.0807 5.10267 40.314 4.776C40.5474 4.44933 40.8414 4.19267 41.196 4.006C41.5507 3.81 41.9614 3.712 42.428 3.712C43.3427 3.712 44.0707 4.03867 44.612 4.692C45.1627 5.336 45.438 6.344 45.438 7.716C45.438 8.67733 45.2934 9.48 45.004 10.124C44.724 10.768 44.3367 11.2533 43.842 11.58C43.3567 11.8973 42.8014 12.056 42.176 12.056C41.588 12.056 41.0794 11.8833 40.65 11.538C40.23 11.1927 39.9594 10.6933 39.838 10.04L40.034 10.194C39.9967 10.866 39.9034 11.3607 39.754 11.678C39.614 11.986 39.432 12.14 39.208 12.14ZM41.77 10.432C42.2367 10.432 42.6474 10.222 43.002 9.802C43.3567 9.382 43.534 8.724 43.534 7.828C43.534 7.08133 43.394 6.47467 43.114 6.008C42.8434 5.54133 42.386 5.308 41.742 5.308C41.2194 5.308 40.7994 5.518 40.482 5.938C40.1647 6.34867 40.006 6.974 40.006 7.814C40.006 8.57933 40.1647 9.20933 40.482 9.704C40.7994 10.1893 41.2287 10.432 41.77 10.432ZM52.971 12.14C52.6537 12.14 52.4344 12.0187 52.313 11.776C52.201 11.524 52.1357 11.1273 52.117 10.586L52.257 10.656C51.7344 11.6733 50.745 12.182 49.289 12.182C48.6264 12.182 48.0757 12.0653 47.637 11.832C47.1984 11.5893 46.8717 11.272 46.657 10.88C46.4517 10.4787 46.349 10.0447 46.349 9.578C46.349 8.77533 46.629 8.14067 47.189 7.674C47.749 7.198 48.491 6.96 49.415 6.96C50.0217 6.96 50.549 7.04867 50.997 7.226C51.445 7.40333 51.8277 7.65067 52.145 7.968L51.907 7.94C51.8417 6.99733 51.6364 6.32533 51.291 5.924C50.955 5.51333 50.4744 5.308 49.849 5.308C49.485 5.308 49.149 5.364 48.841 5.476C48.533 5.588 48.2484 5.70467 47.987 5.826C47.735 5.938 47.497 5.994 47.273 5.994C47.049 5.994 46.8717 5.91933 46.741 5.77C46.6197 5.62067 46.559 5.42933 46.559 5.196C46.559 4.86 46.7177 4.54267 47.035 4.244C47.3617 3.94533 47.791 3.70267 48.323 3.516C48.855 3.32933 49.4337 3.236 50.059 3.236C50.815 3.236 51.4637 3.418 52.005 3.782C52.5464 4.146 52.957 4.678 53.237 5.378C53.4797 5.97533 53.6524 6.64267 53.755 7.38C53.8577 8.11733 53.909 8.906 53.909 9.746C53.909 10.3807 53.8764 10.8707 53.811 11.216C53.7457 11.5613 53.643 11.804 53.503 11.944C53.3724 12.0747 53.195 12.14 52.971 12.14ZM49.877 10.572C50.185 10.572 50.4977 10.53 50.815 10.446C51.1324 10.3527 51.3984 10.2173 51.613 10.04C51.8277 9.86267 51.935 9.64333 51.935 9.382C51.935 9.158 51.8417 8.976 51.655 8.836C51.4777 8.68667 51.2397 8.57467 50.941 8.5C50.6517 8.42533 50.339 8.388 50.003 8.388C49.4337 8.388 48.9997 8.486 48.701 8.682C48.4117 8.878 48.267 9.13933 48.267 9.466C48.267 9.82067 48.4024 10.096 48.673 10.292C48.953 10.4787 49.3544 10.572 49.877 10.572ZM57.0447 3.292C57.3434 3.292 57.544 3.41333 57.6467 3.656C57.7587 3.89867 57.8147 4.258 57.8147 4.734C57.8147 4.846 57.8054 4.96733 57.7867 5.098C57.7774 5.21933 57.7587 5.33133 57.7307 5.434L57.7027 5.154C57.9267 4.54733 58.272 4.076 58.7387 3.74C59.2054 3.39467 59.7 3.222 60.2227 3.222C60.8014 3.222 61.282 3.38533 61.6647 3.712C62.0567 4.03867 62.346 4.496 62.5327 5.084C62.7287 5.672 62.8267 6.36733 62.8267 7.17C62.8267 7.66467 62.8034 8.15467 62.7567 8.64C62.7194 9.116 62.6634 9.55467 62.5887 9.956C62.5234 10.348 62.4487 10.67 62.3647 10.922C62.2527 11.2393 62.108 11.4773 61.9307 11.636C61.7534 11.7853 61.5434 11.86 61.3007 11.86C61.058 11.86 60.8714 11.7713 60.7407 11.594C60.61 11.4167 60.5447 11.1787 60.5447 10.88C60.5447 10.5627 60.568 10.18 60.6147 9.732C60.6614 9.27467 60.7034 8.81267 60.7407 8.346C60.7874 7.87 60.8107 7.44067 60.8107 7.058C60.8107 5.75133 60.3814 5.098 59.5227 5.098C59.0654 5.098 58.6827 5.30333 58.3747 5.714C58.0667 6.11533 57.8614 6.68933 57.7587 7.436C57.7307 7.688 57.7167 8.00067 57.7167 8.374C57.7167 8.74733 57.7167 9.12067 57.7167 9.494C57.726 9.858 57.7167 10.166 57.6887 10.418C57.6514 10.978 57.544 11.3793 57.3667 11.622C57.1987 11.8647 56.9654 11.986 56.6667 11.986C56.3214 11.986 56.06 11.8273 55.8827 11.51C55.7054 11.1833 55.6167 10.6373 55.6167 9.872C55.6167 9.48 55.626 9.04133 55.6447 8.556C55.6634 8.07067 55.6867 7.58533 55.7147 7.1C55.752 6.60533 55.794 6.15733 55.8407 5.756C55.934 5 56.0694 4.40267 56.2467 3.964C56.424 3.516 56.69 3.292 57.0447 3.292ZM71.2815 1.934C72.3922 1.934 73.2088 2.21867 73.7315 2.788C74.2635 3.35733 74.5295 4.104 74.5295 5.028C74.5295 5.66267 74.3802 6.21333 74.0815 6.68C73.7922 7.14667 73.3955 7.51067 72.8915 7.772C72.3875 8.024 71.8182 8.15 71.1835 8.15C70.8848 8.15 70.5675 8.11733 70.2315 8.052C69.9048 7.98667 69.5642 7.86067 69.2095 7.674L69.2795 7.492C69.3542 7.72533 69.4148 8.01467 69.4615 8.36C69.5175 8.696 69.5595 9.046 69.5875 9.41C69.6248 9.76467 69.6435 10.0913 69.6435 10.39C69.6435 10.9407 69.5502 11.3653 69.3635 11.664C69.1862 11.9533 68.9202 12.098 68.5655 12.098C68.2668 12.098 68.0288 12.0047 67.8515 11.818C67.6835 11.6313 67.5668 11.3233 67.5015 10.894C67.4362 10.4647 67.4035 9.89067 67.4035 9.172C67.4035 7.79067 67.4642 6.61467 67.5855 5.644C67.7162 4.664 67.9355 3.894 68.2435 3.334C68.4862 2.90467 68.8595 2.564 69.3635 2.312C69.8768 2.06 70.5162 1.934 71.2815 1.934ZM71.0155 6.498C71.5755 6.498 72.0282 6.34867 72.3735 6.05C72.7282 5.75133 72.9055 5.31733 72.9055 4.748C72.9055 4.37467 72.7795 4.06667 72.5275 3.824C72.2848 3.572 71.9022 3.446 71.3795 3.446C70.9968 3.446 70.6655 3.53467 70.3855 3.712C70.1055 3.88 69.8908 4.118 69.7415 4.426C69.6015 4.72467 69.5315 5.07 69.5315 5.462C69.5315 5.826 69.6482 6.092 69.8815 6.26C70.1242 6.41867 70.5022 6.498 71.0155 6.498ZM79.648 12.112C78.612 12.112 77.786 11.958 77.17 11.65C76.554 11.342 76.1107 10.8987 75.84 10.32C75.5694 9.74133 75.434 9.05067 75.434 8.248C75.434 7.23067 75.6207 6.36733 75.994 5.658C76.3767 4.93933 76.8994 4.38867 77.562 4.006C78.234 3.62333 78.9947 3.432 79.844 3.432C80.8427 3.432 81.5754 3.66533 82.042 4.132C82.5087 4.58933 82.742 5.19133 82.742 5.938C82.742 6.53533 82.5834 7.05333 82.266 7.492C81.958 7.92133 81.5287 8.25267 80.978 8.486C80.4274 8.71933 79.7927 8.836 79.074 8.836C78.6727 8.836 78.2854 8.78467 77.912 8.682C77.5387 8.57933 77.2027 8.43933 76.904 8.262L77.24 7.646C77.212 7.87 77.198 8.094 77.198 8.318C77.198 8.97133 77.4034 9.44267 77.814 9.732C78.2247 10.012 78.808 10.152 79.564 10.152C80.152 10.152 80.6234 10.1007 80.978 9.998C81.3327 9.89533 81.6314 9.79733 81.874 9.704C82.1167 9.60133 82.3547 9.55 82.588 9.55C82.7187 9.55 82.8354 9.58733 82.938 9.662C83.05 9.72733 83.1387 9.82533 83.204 9.956C83.2787 10.0867 83.316 10.2453 83.316 10.432C83.316 10.712 83.176 10.9827 82.896 11.244C82.616 11.496 82.2007 11.706 81.65 11.874C81.1087 12.0327 80.4414 12.112 79.648 12.112ZM78.836 7.534C79.4987 7.534 80.0307 7.394 80.432 7.114C80.8334 6.834 81.034 6.48867 81.034 6.078C81.034 5.75133 80.922 5.48533 80.698 5.28C80.4834 5.06533 80.1427 4.958 79.676 4.958C79.2374 4.958 78.8407 5.042 78.486 5.21C78.1407 5.36867 77.87 5.57867 77.674 5.84C77.478 6.10133 77.38 6.386 77.38 6.694C77.38 6.96467 77.506 7.17467 77.758 7.324C78.0194 7.464 78.3787 7.534 78.836 7.534ZM85.9744 3.292C86.273 3.292 86.4737 3.41333 86.5764 3.656C86.6884 3.89867 86.7444 4.258 86.7444 4.734C86.7444 4.846 86.735 4.96733 86.7164 5.098C86.707 5.21933 86.6884 5.33133 86.6604 5.434L86.6324 5.154C86.8564 4.54733 87.2017 4.076 87.6684 3.74C88.135 3.39467 88.6297 3.222 89.1524 3.222C89.731 3.222 90.2117 3.38533 90.5944 3.712C90.9864 4.03867 91.2757 4.496 91.4624 5.084C91.6584 5.672 91.7564 6.36733 91.7564 7.17C91.7564 7.66467 91.733 8.15467 91.6864 8.64C91.649 9.116 91.593 9.55467 91.5184 9.956C91.453 10.348 91.3784 10.67 91.2944 10.922C91.1824 11.2393 91.0377 11.4773 90.8604 11.636C90.683 11.7853 90.473 11.86 90.2304 11.86C89.9877 11.86 89.801 11.7713 89.6704 11.594C89.5397 11.4167 89.4744 11.1787 89.4744 10.88C89.4744 10.5627 89.4977 10.18 89.5444 9.732C89.591 9.27467 89.633 8.81267 89.6704 8.346C89.717 7.87 89.7404 7.44067 89.7404 7.058C89.7404 5.75133 89.311 5.098 88.4524 5.098C87.995 5.098 87.6124 5.30333 87.3044 5.714C86.9964 6.11533 86.791 6.68933 86.6884 7.436C86.6604 7.688 86.6464 8.00067 86.6464 8.374C86.6464 8.74733 86.6464 9.12067 86.6464 9.494C86.6557 9.858 86.6464 10.166 86.6184 10.418C86.581 10.978 86.4737 11.3793 86.2964 11.622C86.1284 11.8647 85.895 11.986 85.5964 11.986C85.251 11.986 84.9897 11.8273 84.8124 11.51C84.635 11.1833 84.5464 10.6373 84.5464 9.872C84.5464 9.48 84.5557 9.04133 84.5744 8.556C84.593 8.07067 84.6164 7.58533 84.6444 7.1C84.6817 6.60533 84.7237 6.15733 84.7704 5.756C84.8637 5 84.999 4.40267 85.1764 3.964C85.3537 3.516 85.6197 3.292 85.9744 3.292ZM96.1344 11.776C95.2571 11.776 94.5431 11.44 93.9924 10.768C93.4418 10.0867 93.1664 9.05533 93.1664 7.674C93.1664 6.19933 93.4324 5.12133 93.9644 4.44C94.4964 3.75867 95.1964 3.418 96.0644 3.418C96.5778 3.418 97.0304 3.54867 97.4224 3.81C97.8144 4.07133 98.1504 4.44 98.4304 4.916L98.3184 5.112C98.2904 4.98133 98.2671 4.84133 98.2484 4.692C98.2298 4.54267 98.2204 4.43067 98.2204 4.356C98.2204 3.97333 98.2811 3.67933 98.4024 3.474C98.5331 3.25933 98.7338 3.152 99.0044 3.152C99.3031 3.152 99.5364 3.27333 99.7044 3.516C99.8818 3.75867 100.017 4.104 100.11 4.552C100.232 5.00933 100.334 5.59267 100.418 6.302C100.502 7.002 100.544 7.71133 100.544 8.43C100.544 9.326 100.512 10.0773 100.446 10.684C100.381 11.2907 100.274 11.7947 100.124 12.196C99.9751 12.5973 99.7791 12.9473 99.5364 13.246C99.1351 13.7313 98.6171 14.1 97.9824 14.352C97.3571 14.6133 96.6338 14.744 95.8124 14.744C95.2244 14.744 94.7531 14.688 94.3984 14.576C94.0438 14.4733 93.7871 14.3287 93.6284 14.142C93.4791 13.9647 93.4044 13.764 93.4044 13.54C93.4044 13.3067 93.4698 13.1107 93.6004 12.952C93.7311 12.8027 93.9271 12.728 94.1884 12.728C94.4218 12.728 94.6924 12.7653 95.0004 12.84C95.3178 12.9147 95.6911 12.952 96.1204 12.952C97.0258 12.952 97.6651 12.7373 98.0384 12.308C98.4211 11.888 98.6124 11.2813 98.6124 10.488C98.6124 10.2733 98.5984 10.0213 98.5704 9.732L98.7664 9.802C98.5331 10.3993 98.1878 10.88 97.7304 11.244C97.2731 11.5987 96.7411 11.776 96.1344 11.776ZM96.6664 10.054C96.9651 10.054 97.2638 9.97467 97.5624 9.816C97.8611 9.65733 98.1084 9.396 98.3044 9.032C98.5004 8.668 98.5984 8.178 98.5984 7.562C98.5984 6.82467 98.4258 6.22267 98.0804 5.756C97.7351 5.28933 97.2498 5.056 96.6244 5.056C96.0831 5.056 95.6864 5.26133 95.4344 5.672C95.1824 6.08267 95.0564 6.70333 95.0564 7.534C95.0564 8.32733 95.1824 8.948 95.4344 9.396C95.6864 9.83467 96.0971 10.054 96.6664 10.054ZM106.171 12.112C105.135 12.112 104.309 11.958 103.693 11.65C103.077 11.342 102.634 10.8987 102.363 10.32C102.093 9.74133 101.957 9.05067 101.957 8.248C101.957 7.23067 102.144 6.36733 102.517 5.658C102.9 4.93933 103.423 4.38867 104.085 4.006C104.757 3.62333 105.518 3.432 106.367 3.432C107.366 3.432 108.099 3.66533 108.565 4.132C109.032 4.58933 109.265 5.19133 109.265 5.938C109.265 6.53533 109.107 7.05333 108.789 7.492C108.481 7.92133 108.052 8.25267 107.501 8.486C106.951 8.71933 106.316 8.836 105.597 8.836C105.196 8.836 104.809 8.78467 104.435 8.682C104.062 8.57933 103.726 8.43933 103.427 8.262L103.763 7.646C103.735 7.87 103.721 8.094 103.721 8.318C103.721 8.97133 103.927 9.44267 104.337 9.732C104.748 10.012 105.331 10.152 106.087 10.152C106.675 10.152 107.147 10.1007 107.501 9.998C107.856 9.89533 108.155 9.79733 108.397 9.704C108.64 9.60133 108.878 9.55 109.111 9.55C109.242 9.55 109.359 9.58733 109.461 9.662C109.573 9.72733 109.662 9.82533 109.727 9.956C109.802 10.0867 109.839 10.2453 109.839 10.432C109.839 10.712 109.699 10.9827 109.419 11.244C109.139 11.496 108.724 11.706 108.173 11.874C107.632 12.0327 106.965 12.112 106.171 12.112ZM105.359 7.534C106.022 7.534 106.554 7.394 106.955 7.114C107.357 6.834 107.557 6.48867 107.557 6.078C107.557 5.75133 107.445 5.48533 107.221 5.28C107.007 5.06533 106.666 4.958 106.199 4.958C105.761 4.958 105.364 5.042 105.009 5.21C104.664 5.36867 104.393 5.57867 104.197 5.84C104.001 6.10133 103.903 6.386 103.903 6.694C103.903 6.96467 104.029 7.17467 104.281 7.324C104.543 7.464 104.902 7.534 105.359 7.534ZM112.582 12.028C112.292 12.028 112.064 11.9627 111.896 11.832C111.728 11.692 111.592 11.4633 111.49 11.146C111.35 10.6793 111.242 10.0913 111.168 9.382C111.102 8.66333 111.07 7.78133 111.07 6.736C111.07 6.092 111.093 5.448 111.14 4.804C111.196 4.15067 111.266 3.558 111.35 3.026C111.434 2.48467 111.522 2.06467 111.616 1.766C111.718 1.44867 111.84 1.22933 111.98 1.108C112.12 0.986666 112.278 0.926 112.456 0.926C112.642 0.926 112.792 0.991333 112.904 1.122C113.016 1.24333 113.104 1.46267 113.17 1.78C113.226 2.088 113.268 2.466 113.296 2.914C113.333 3.362 113.352 3.84267 113.352 4.356C113.352 5.056 113.319 5.79333 113.254 6.568C113.188 7.34267 113.1 8.10333 112.988 8.85C112.885 9.59667 112.759 10.2827 112.61 10.908L112.218 10.712C112.46 10.4133 112.736 10.18 113.044 10.012C113.361 9.844 113.65 9.76 113.912 9.76C114.126 9.76 114.29 9.82067 114.402 9.942C114.523 10.054 114.584 10.2313 114.584 10.474C114.584 10.7167 114.476 10.9593 114.262 11.202C114.056 11.4447 113.8 11.6453 113.492 11.804C113.184 11.9533 112.88 12.028 112.582 12.028ZM119.257 12.042C118.51 12.042 117.857 11.8787 117.297 11.552C116.746 11.216 116.317 10.74 116.009 10.124C115.71 9.508 115.561 8.77533 115.561 7.926C115.561 7.03933 115.715 6.26467 116.023 5.602C116.331 4.93933 116.765 4.42133 117.325 4.048C117.894 3.67467 118.552 3.488 119.299 3.488C120.102 3.488 120.797 3.67 121.385 4.034C121.973 4.38867 122.43 4.888 122.757 5.532C123.084 6.176 123.247 6.92733 123.247 7.786C123.247 8.66333 123.084 9.41933 122.757 10.054C122.43 10.6887 121.968 11.1787 121.371 11.524C120.774 11.8693 120.069 12.042 119.257 12.042ZM119.453 10.152C120.032 10.152 120.489 9.92333 120.825 9.466C121.17 8.99933 121.343 8.38333 121.343 7.618C121.343 6.84333 121.17 6.22733 120.825 5.77C120.489 5.31267 120.032 5.084 119.453 5.084C118.856 5.084 118.384 5.31267 118.039 5.77C117.694 6.22733 117.521 6.84333 117.521 7.618C117.521 8.38333 117.694 8.99933 118.039 9.466C118.384 9.92333 118.856 10.152 119.453 10.152ZM130.694 5.588C130.787 5.20533 130.95 4.86 131.184 4.552C131.426 4.244 131.716 4.00133 132.052 3.824C132.397 3.63733 132.775 3.544 133.186 3.544C133.671 3.544 134.1 3.66067 134.474 3.894C134.847 4.12733 135.141 4.51 135.356 5.042C135.58 5.574 135.692 6.28333 135.692 7.17C135.692 7.62733 135.673 8.08933 135.636 8.556C135.598 9.02267 135.552 9.45667 135.496 9.858C135.44 10.2593 135.379 10.5953 135.314 10.866C135.22 11.2393 135.076 11.524 134.88 11.72C134.693 11.916 134.455 12.014 134.166 12.014C133.923 12.014 133.732 11.9067 133.592 11.692C133.452 11.4773 133.382 11.1693 133.382 10.768C133.382 10.5813 133.405 10.3433 133.452 10.054C133.498 9.75533 133.55 9.43333 133.606 9.088C133.662 8.73333 133.713 8.374 133.76 8.01C133.806 7.646 133.83 7.30067 133.83 6.974C133.83 6.48867 133.732 6.11533 133.536 5.854C133.34 5.58333 133.064 5.448 132.71 5.448C132.318 5.448 131.991 5.65333 131.73 6.064C131.478 6.46533 131.328 7.05333 131.282 7.828C131.244 8.51867 131.212 9.13467 131.184 9.676C131.156 10.208 131.086 10.6467 130.974 10.992C130.899 11.2347 130.792 11.4167 130.652 11.538C130.521 11.6593 130.344 11.72 130.12 11.72C129.868 11.72 129.667 11.6267 129.518 11.44C129.378 11.2533 129.298 10.9593 129.28 10.558C129.261 10.222 129.256 9.82533 129.266 9.368C129.275 8.91067 129.28 8.458 129.28 8.01C129.289 7.55267 129.284 7.17467 129.266 6.876C129.228 6.27867 129.121 5.84 128.944 5.56C128.776 5.28 128.519 5.14 128.174 5.14C127.772 5.14 127.45 5.32667 127.208 5.7C126.974 6.07333 126.83 6.59133 126.774 7.254C126.755 7.52467 126.746 7.86067 126.746 8.262C126.755 8.654 126.764 9.046 126.774 9.438C126.783 9.83 126.778 10.1567 126.76 10.418C126.75 10.978 126.662 11.3793 126.494 11.622C126.335 11.8647 126.111 11.986 125.822 11.986C125.476 11.986 125.224 11.874 125.066 11.65C124.916 11.426 124.818 11.0667 124.772 10.572C124.734 10.1333 124.706 9.69933 124.688 9.27C124.669 8.83133 124.66 8.39733 124.66 7.968C124.66 7.52933 124.669 7.05333 124.688 6.54C124.716 6.02667 124.753 5.54133 124.8 5.084C124.856 4.61733 124.954 4.22533 125.094 3.908C125.234 3.59067 125.467 3.432 125.794 3.432C126.064 3.432 126.256 3.56733 126.368 3.838C126.48 4.09933 126.536 4.50533 126.536 5.056C126.536 5.24267 126.522 5.41533 126.494 5.574L126.452 5.294C126.638 4.68733 126.937 4.216 127.348 3.88C127.758 3.53467 128.216 3.362 128.72 3.362C129.382 3.362 129.9 3.57667 130.274 4.006C130.647 4.426 130.852 5.00933 130.89 5.756L130.694 5.588ZM138.354 3.32C138.606 3.32 138.816 3.46933 138.984 3.768C139.152 4.05733 139.269 4.51933 139.334 5.154L139.04 5.42C139.208 4.76667 139.521 4.26733 139.978 3.922C140.435 3.57667 140.977 3.404 141.602 3.404C142.181 3.404 142.694 3.55333 143.142 3.852C143.59 4.15067 143.94 4.60333 144.192 5.21C144.453 5.80733 144.584 6.55867 144.584 7.464C144.584 8.92933 144.318 10.012 143.786 10.712C143.263 11.4027 142.549 11.748 141.644 11.748C140.991 11.748 140.477 11.608 140.104 11.328C139.731 11.048 139.469 10.7073 139.32 10.306L139.488 10.222C139.563 10.782 139.623 11.3373 139.67 11.888C139.726 12.4293 139.754 12.9053 139.754 13.316C139.754 13.736 139.679 14.0907 139.53 14.38C139.381 14.6693 139.143 14.814 138.816 14.814C138.499 14.814 138.261 14.6927 138.102 14.45C137.943 14.2073 137.827 13.8853 137.752 13.484C137.696 13.0733 137.64 12.546 137.584 11.902C137.528 11.258 137.481 10.5627 137.444 9.816C137.416 9.06933 137.402 8.34133 137.402 7.632C137.402 6.904 137.425 6.22267 137.472 5.588C137.528 4.944 137.593 4.42133 137.668 4.02C137.733 3.78667 137.817 3.614 137.92 3.502C138.032 3.38067 138.177 3.32 138.354 3.32ZM141.028 5.014C140.524 5.014 140.118 5.266 139.81 5.77C139.511 6.26467 139.362 6.89933 139.362 7.674C139.362 8.46733 139.511 9.06 139.81 9.452C140.118 9.844 140.515 10.04 141 10.04C141.56 10.04 141.961 9.82067 142.204 9.382C142.456 8.934 142.582 8.35533 142.582 7.646C142.582 6.74067 142.428 6.078 142.12 5.658C141.812 5.22867 141.448 5.014 141.028 5.014ZM149.403 12.042C148.657 12.042 148.003 11.8787 147.443 11.552C146.893 11.216 146.463 10.74 146.155 10.124C145.857 9.508 145.707 8.77533 145.707 7.926C145.707 7.03933 145.861 6.26467 146.169 5.602C146.477 4.93933 146.911 4.42133 147.471 4.048C148.041 3.67467 148.699 3.488 149.445 3.488C150.248 3.488 150.943 3.67 151.531 4.034C152.119 4.38867 152.577 4.888 152.903 5.532C153.23 6.176 153.393 6.92733 153.393 7.786C153.393 8.66333 153.23 9.41933 152.903 10.054C152.577 10.6887 152.115 11.1787 151.517 11.524C150.92 11.8693 150.215 12.042 149.403 12.042ZM149.599 10.152C150.178 10.152 150.635 9.92333 150.971 9.466C151.317 8.99933 151.489 8.38333 151.489 7.618C151.489 6.84333 151.317 6.22733 150.971 5.77C150.635 5.31267 150.178 5.084 149.599 5.084C149.002 5.084 148.531 5.31267 148.185 5.77C147.84 6.22733 147.667 6.84333 147.667 7.618C147.667 8.38333 147.84 8.99933 148.185 9.466C148.531 9.92333 149.002 10.152 149.599 10.152ZM155.758 12.14C155.581 12.14 155.436 12.0887 155.324 11.986C155.212 11.874 155.133 11.7153 155.086 11.51C155.011 11.1647 154.946 10.6653 154.89 10.012C154.834 9.35867 154.806 8.63533 154.806 7.842C154.806 6.862 154.839 5.91933 154.904 5.014C154.979 4.10867 155.072 3.36667 155.184 2.788C155.305 2.16267 155.455 1.70533 155.632 1.416C155.809 1.11733 156.043 0.967999 156.332 0.967999C156.593 0.967999 156.794 1.08933 156.934 1.332C157.074 1.56533 157.144 1.97133 157.144 2.55C157.144 3.12867 157.121 3.74933 157.074 4.412C157.037 5.07467 156.971 5.784 156.878 6.54H156.934C157.541 5.71867 158.105 5.06067 158.628 4.566C159.16 4.07133 159.645 3.712 160.084 3.488C160.532 3.264 160.929 3.152 161.274 3.152C161.545 3.152 161.745 3.236 161.876 3.404C162.007 3.572 162.072 3.77733 162.072 4.02C162.072 4.496 161.689 5.028 160.924 5.616C160.168 6.204 159.076 6.806 157.648 7.422L157.662 7.198C158.549 7.65533 159.309 8.136 159.944 8.64C160.588 9.13467 161.078 9.606 161.414 10.054C161.759 10.4927 161.932 10.8613 161.932 11.16C161.932 11.4027 161.853 11.6033 161.694 11.762C161.545 11.9113 161.325 11.986 161.036 11.986C160.672 11.986 160.266 11.8507 159.818 11.58C159.379 11.3 158.922 10.8847 158.446 10.334C157.97 9.78333 157.494 9.09267 157.018 8.262H156.962C156.953 8.85 156.915 9.424 156.85 9.984C156.794 10.5347 156.719 10.9873 156.626 11.342C156.561 11.5847 156.458 11.7807 156.318 11.93C156.187 12.07 156.001 12.14 155.758 12.14ZM169.319 12.14C169.001 12.14 168.782 12.0187 168.661 11.776C168.549 11.524 168.483 11.1273 168.465 10.586L168.605 10.656C168.082 11.6733 167.093 12.182 165.637 12.182C164.974 12.182 164.423 12.0653 163.985 11.832C163.546 11.5893 163.219 11.272 163.005 10.88C162.799 10.4787 162.697 10.0447 162.697 9.578C162.697 8.77533 162.977 8.14067 163.537 7.674C164.097 7.198 164.839 6.96 165.763 6.96C166.369 6.96 166.897 7.04867 167.345 7.226C167.793 7.40333 168.175 7.65067 168.493 7.968L168.255 7.94C168.189 6.99733 167.984 6.32533 167.639 5.924C167.303 5.51333 166.822 5.308 166.197 5.308C165.833 5.308 165.497 5.364 165.189 5.476C164.881 5.588 164.596 5.70467 164.335 5.826C164.083 5.938 163.845 5.994 163.621 5.994C163.397 5.994 163.219 5.91933 163.089 5.77C162.967 5.62067 162.907 5.42933 162.907 5.196C162.907 4.86 163.065 4.54267 163.383 4.244C163.709 3.94533 164.139 3.70267 164.671 3.516C165.203 3.32933 165.781 3.236 166.407 3.236C167.163 3.236 167.811 3.418 168.353 3.782C168.894 4.146 169.305 4.678 169.585 5.378C169.827 5.97533 170 6.64267 170.103 7.38C170.205 8.11733 170.257 8.906 170.257 9.746C170.257 10.3807 170.224 10.8707 170.159 11.216C170.093 11.5613 169.991 11.804 169.851 11.944C169.72 12.0747 169.543 12.14 169.319 12.14ZM166.225 10.572C166.533 10.572 166.845 10.53 167.163 10.446C167.48 10.3527 167.746 10.2173 167.961 10.04C168.175 9.86267 168.283 9.64333 168.283 9.382C168.283 9.158 168.189 8.976 168.003 8.836C167.825 8.68667 167.587 8.57467 167.289 8.5C166.999 8.42533 166.687 8.388 166.351 8.388C165.781 8.388 165.347 8.486 165.049 8.682C164.759 8.878 164.615 9.13933 164.615 9.466C164.615 9.82067 164.75 10.096 165.021 10.292C165.301 10.4787 165.702 10.572 166.225 10.572ZM173.392 3.292C173.691 3.292 173.892 3.41333 173.994 3.656C174.106 3.89867 174.162 4.258 174.162 4.734C174.162 4.846 174.153 4.96733 174.134 5.098C174.125 5.21933 174.106 5.33133 174.078 5.434L174.05 5.154C174.274 4.54733 174.62 4.076 175.086 3.74C175.553 3.39467 176.048 3.222 176.57 3.222C177.149 3.222 177.63 3.38533 178.012 3.712C178.404 4.03867 178.694 4.496 178.88 5.084C179.076 5.672 179.174 6.36733 179.174 7.17C179.174 7.66467 179.151 8.15467 179.104 8.64C179.067 9.116 179.011 9.55467 178.936 9.956C178.871 10.348 178.796 10.67 178.712 10.922C178.6 11.2393 178.456 11.4773 178.278 11.636C178.101 11.7853 177.891 11.86 177.648 11.86C177.406 11.86 177.219 11.7713 177.088 11.594C176.958 11.4167 176.892 11.1787 176.892 10.88C176.892 10.5627 176.916 10.18 176.962 9.732C177.009 9.27467 177.051 8.81267 177.088 8.346C177.135 7.87 177.158 7.44067 177.158 7.058C177.158 5.75133 176.729 5.098 175.87 5.098C175.413 5.098 175.03 5.30333 174.722 5.714C174.414 6.11533 174.209 6.68933 174.106 7.436C174.078 7.688 174.064 8.00067 174.064 8.374C174.064 8.74733 174.064 9.12067 174.064 9.494C174.074 9.858 174.064 10.166 174.036 10.418C173.999 10.978 173.892 11.3793 173.714 11.622C173.546 11.8647 173.313 11.986 173.014 11.986C172.669 11.986 172.408 11.8273 172.23 11.51C172.053 11.1833 171.964 10.6373 171.964 9.872C171.964 9.48 171.974 9.04133 171.992 8.556C172.011 8.07067 172.034 7.58533 172.062 7.1C172.1 6.60533 172.142 6.15733 172.188 5.756C172.282 5 172.417 4.40267 172.594 3.964C172.772 3.516 173.038 3.292 173.392 3.292ZM186.411 12.07C185.832 12.07 185.352 11.9627 184.969 11.748C184.596 11.524 184.316 11.1833 184.129 10.726C183.998 10.4087 183.9 10.026 183.835 9.578C183.779 9.12067 183.751 8.598 183.751 8.01C183.751 7.002 183.784 6.17133 183.849 5.518C183.914 4.85533 184.008 4.32333 184.129 3.922C184.26 3.51133 184.404 3.18 184.563 2.928C184.815 2.54533 185.216 2.23733 185.767 2.004C186.318 1.77067 187.097 1.654 188.105 1.654C188.777 1.654 189.314 1.75667 189.715 1.962C190.126 2.158 190.42 2.41933 190.597 2.746C190.784 3.07267 190.877 3.43667 190.877 3.838C190.877 4.47267 190.69 4.99533 190.317 5.406C189.944 5.81667 189.454 6.14333 188.847 6.386V6.442C189.51 6.51667 190.023 6.73133 190.387 7.086C190.76 7.43133 190.947 7.926 190.947 8.57C190.947 9.08333 190.816 9.55467 190.555 9.984C190.303 10.404 189.958 10.7727 189.519 11.09C189.09 11.398 188.604 11.6407 188.063 11.818C187.522 11.986 186.971 12.07 186.411 12.07ZM186.845 10.39C187.293 10.39 187.69 10.3153 188.035 10.166C188.39 10.0167 188.665 9.816 188.861 9.564C189.066 9.30267 189.169 9.00867 189.169 8.682C189.169 8.32733 188.996 8.03333 188.651 7.8C188.315 7.55733 187.788 7.436 187.069 7.436C186.584 7.436 186.196 7.55267 185.907 7.786C185.627 8.01 185.487 8.39733 185.487 8.948C185.487 9.47067 185.599 9.844 185.823 10.068C186.047 10.2827 186.388 10.39 186.845 10.39ZM186.901 5.952C187.536 5.952 188.063 5.812 188.483 5.532C188.912 5.24267 189.127 4.86933 189.127 4.412C189.127 4.076 188.992 3.80533 188.721 3.6C188.45 3.39467 188.054 3.292 187.531 3.292C186.962 3.292 186.495 3.404 186.131 3.628C185.767 3.852 185.585 4.23467 185.585 4.776C185.585 5.21467 185.702 5.52267 185.935 5.7C186.178 5.868 186.5 5.952 186.901 5.952ZM198.618 12.14C198.3 12.14 198.081 12.0187 197.96 11.776C197.848 11.524 197.782 11.1273 197.764 10.586L197.904 10.656C197.381 11.6733 196.392 12.182 194.936 12.182C194.273 12.182 193.722 12.0653 193.284 11.832C192.845 11.5893 192.518 11.272 192.304 10.88C192.098 10.4787 191.996 10.0447 191.996 9.578C191.996 8.77533 192.276 8.14067 192.836 7.674C193.396 7.198 194.138 6.96 195.062 6.96C195.668 6.96 196.196 7.04867 196.644 7.226C197.092 7.40333 197.474 7.65067 197.792 7.968L197.554 7.94C197.488 6.99733 197.283 6.32533 196.938 5.924C196.602 5.51333 196.121 5.308 195.496 5.308C195.132 5.308 194.796 5.364 194.488 5.476C194.18 5.588 193.895 5.70467 193.634 5.826C193.382 5.938 193.144 5.994 192.92 5.994C192.696 5.994 192.518 5.91933 192.388 5.77C192.266 5.62067 192.206 5.42933 192.206 5.196C192.206 4.86 192.364 4.54267 192.682 4.244C193.008 3.94533 193.438 3.70267 193.97 3.516C194.502 3.32933 195.08 3.236 195.706 3.236C196.462 3.236 197.11 3.418 197.652 3.782C198.193 4.146 198.604 4.678 198.884 5.378C199.126 5.97533 199.299 6.64267 199.402 7.38C199.504 8.11733 199.556 8.906 199.556 9.746C199.556 10.3807 199.523 10.8707 199.458 11.216C199.392 11.5613 199.29 11.804 199.15 11.944C199.019 12.0747 198.842 12.14 198.618 12.14ZM195.524 10.572C195.832 10.572 196.144 10.53 196.462 10.446C196.779 10.3527 197.045 10.2173 197.26 10.04C197.474 9.86267 197.582 9.64333 197.582 9.382C197.582 9.158 197.488 8.976 197.302 8.836C197.124 8.68667 196.886 8.57467 196.588 8.5C196.298 8.42533 195.986 8.388 195.65 8.388C195.08 8.388 194.646 8.486 194.348 8.682C194.058 8.878 193.914 9.13933 193.914 9.466C193.914 9.82067 194.049 10.096 194.32 10.292C194.6 10.4787 195.001 10.572 195.524 10.572ZM202.691 3.292C202.99 3.292 203.191 3.41333 203.293 3.656C203.405 3.89867 203.461 4.258 203.461 4.734C203.461 4.846 203.452 4.96733 203.433 5.098C203.424 5.21933 203.405 5.33133 203.377 5.434L203.349 5.154C203.573 4.54733 203.919 4.076 204.385 3.74C204.852 3.39467 205.347 3.222 205.869 3.222C206.448 3.222 206.929 3.38533 207.311 3.712C207.703 4.03867 207.993 4.496 208.179 5.084C208.375 5.672 208.473 6.36733 208.473 7.17C208.473 7.66467 208.45 8.15467 208.403 8.64C208.366 9.116 208.31 9.55467 208.235 9.956C208.17 10.348 208.095 10.67 208.011 10.922C207.899 11.2393 207.755 11.4773 207.577 11.636C207.4 11.7853 207.19 11.86 206.947 11.86C206.705 11.86 206.518 11.7713 206.387 11.594C206.257 11.4167 206.191 11.1787 206.191 10.88C206.191 10.5627 206.215 10.18 206.261 9.732C206.308 9.27467 206.35 8.81267 206.387 8.346C206.434 7.87 206.457 7.44067 206.457 7.058C206.457 5.75133 206.028 5.098 205.169 5.098C204.712 5.098 204.329 5.30333 204.021 5.714C203.713 6.11533 203.508 6.68933 203.405 7.436C203.377 7.688 203.363 8.00067 203.363 8.374C203.363 8.74733 203.363 9.12067 203.363 9.494C203.373 9.858 203.363 10.166 203.335 10.418C203.298 10.978 203.191 11.3793 203.013 11.622C202.845 11.8647 202.612 11.986 202.313 11.986C201.968 11.986 201.707 11.8273 201.529 11.51C201.352 11.1833 201.263 10.6373 201.263 9.872C201.263 9.48 201.273 9.04133 201.291 8.556C201.31 8.07067 201.333 7.58533 201.361 7.1C201.399 6.60533 201.441 6.15733 201.487 5.756C201.581 5 201.716 4.40267 201.893 3.964C202.071 3.516 202.337 3.292 202.691 3.292ZM212.851 11.776C211.974 11.776 211.26 11.44 210.709 10.768C210.159 10.0867 209.883 9.05533 209.883 7.674C209.883 6.19933 210.149 5.12133 210.681 4.44C211.213 3.75867 211.913 3.418 212.781 3.418C213.295 3.418 213.747 3.54867 214.139 3.81C214.531 4.07133 214.867 4.44 215.147 4.916L215.035 5.112C215.007 4.98133 214.984 4.84133 214.965 4.692C214.947 4.54267 214.937 4.43067 214.937 4.356C214.937 3.97333 214.998 3.67933 215.119 3.474C215.25 3.25933 215.451 3.152 215.721 3.152C216.02 3.152 216.253 3.27333 216.421 3.516C216.599 3.75867 216.734 4.104 216.827 4.552C216.949 5.00933 217.051 5.59267 217.135 6.302C217.219 7.002 217.261 7.71133 217.261 8.43C217.261 9.326 217.229 10.0773 217.163 10.684C217.098 11.2907 216.991 11.7947 216.841 12.196C216.692 12.5973 216.496 12.9473 216.253 13.246C215.852 13.7313 215.334 14.1 214.699 14.352C214.074 14.6133 213.351 14.744 212.529 14.744C211.941 14.744 211.47 14.688 211.115 14.576C210.761 14.4733 210.504 14.3287 210.345 14.142C210.196 13.9647 210.121 13.764 210.121 13.54C210.121 13.3067 210.187 13.1107 210.317 12.952C210.448 12.8027 210.644 12.728 210.905 12.728C211.139 12.728 211.409 12.7653 211.717 12.84C212.035 12.9147 212.408 12.952 212.837 12.952C213.743 12.952 214.382 12.7373 214.755 12.308C215.138 11.888 215.329 11.2813 215.329 10.488C215.329 10.2733 215.315 10.0213 215.287 9.732L215.483 9.802C215.25 10.3993 214.905 10.88 214.447 11.244C213.99 11.5987 213.458 11.776 212.851 11.776ZM213.383 10.054C213.682 10.054 213.981 9.97467 214.279 9.816C214.578 9.65733 214.825 9.396 215.021 9.032C215.217 8.668 215.315 8.178 215.315 7.562C215.315 6.82467 215.143 6.22267 214.797 5.756C214.452 5.28933 213.967 5.056 213.341 5.056C212.8 5.056 212.403 5.26133 212.151 5.672C211.899 6.08267 211.773 6.70333 211.773 7.534C211.773 8.32733 211.899 8.948 212.151 9.396C212.403 9.83467 212.814 10.054 213.383 10.054ZM225.268 11.916C225.016 11.916 224.82 11.832 224.68 11.664C224.55 11.4867 224.461 11.2627 224.414 10.992C224.368 10.712 224.344 10.418 224.344 10.11L224.414 10.054C224.321 10.4553 224.139 10.8007 223.868 11.09C223.598 11.3793 223.285 11.6033 222.93 11.762C222.576 11.9113 222.221 11.986 221.866 11.986C221.39 11.986 220.956 11.874 220.564 11.65C220.172 11.426 219.869 11.0807 219.654 10.614C219.44 10.1193 219.272 9.49867 219.15 8.752C219.029 7.996 218.968 7.22133 218.968 6.428C218.968 5.99867 218.987 5.602 219.024 5.238C219.062 4.874 219.122 4.57533 219.206 4.342C219.281 4.09933 219.393 3.922 219.542 3.81C219.692 3.68867 219.883 3.628 220.116 3.628C220.387 3.628 220.597 3.73533 220.746 3.95C220.905 4.15533 221.003 4.44467 221.04 4.818C221.078 5.126 221.101 5.50867 221.11 5.966C221.129 6.414 221.143 6.86667 221.152 7.324C221.171 7.772 221.194 8.15 221.222 8.458C221.278 9.018 221.423 9.43333 221.656 9.704C221.89 9.96533 222.174 10.096 222.51 10.096C223.005 10.096 223.383 9.90933 223.644 9.536C223.906 9.16267 224.036 8.64 224.036 7.968C224.036 7.632 224.018 7.254 223.98 6.834C223.943 6.40467 223.901 5.98933 223.854 5.588C223.817 5.18667 223.798 4.85533 223.798 4.594C223.798 4.15533 223.873 3.84267 224.022 3.656C224.172 3.46 224.377 3.362 224.638 3.362C224.862 3.362 225.049 3.42267 225.198 3.544C225.357 3.66533 225.483 3.83333 225.576 4.048C225.707 4.328 225.819 4.71067 225.912 5.196C226.006 5.68133 226.08 6.232 226.136 6.848C226.192 7.464 226.22 8.11267 226.22 8.794C226.22 9.83933 226.15 10.6233 226.01 11.146C225.87 11.6593 225.623 11.916 225.268 11.916ZM229.351 3.292C229.65 3.292 229.851 3.41333 229.953 3.656C230.065 3.89867 230.121 4.258 230.121 4.734C230.121 4.846 230.112 4.96733 230.093 5.098C230.084 5.21933 230.065 5.33133 230.037 5.434L230.009 5.154C230.233 4.54733 230.579 4.076 231.045 3.74C231.512 3.39467 232.007 3.222 232.529 3.222C233.108 3.222 233.589 3.38533 233.971 3.712C234.363 4.03867 234.653 4.496 234.839 5.084C235.035 5.672 235.133 6.36733 235.133 7.17C235.133 7.66467 235.11 8.15467 235.063 8.64C235.026 9.116 234.97 9.55467 234.895 9.956C234.83 10.348 234.755 10.67 234.671 10.922C234.559 11.2393 234.415 11.4773 234.237 11.636C234.06 11.7853 233.85 11.86 233.607 11.86C233.365 11.86 233.178 11.7713 233.047 11.594C232.917 11.4167 232.851 11.1787 232.851 10.88C232.851 10.5627 232.875 10.18 232.921 9.732C232.968 9.27467 233.01 8.81267 233.047 8.346C233.094 7.87 233.117 7.44067 233.117 7.058C233.117 5.75133 232.688 5.098 231.829 5.098C231.372 5.098 230.989 5.30333 230.681 5.714C230.373 6.11533 230.168 6.68933 230.065 7.436C230.037 7.688 230.023 8.00067 230.023 8.374C230.023 8.74733 230.023 9.12067 230.023 9.494C230.033 9.858 230.023 10.166 229.995 10.418C229.958 10.978 229.851 11.3793 229.673 11.622C229.505 11.8647 229.272 11.986 228.973 11.986C228.628 11.986 228.367 11.8273 228.189 11.51C228.012 11.1833 227.923 10.6373 227.923 9.872C227.923 9.48 227.933 9.04133 227.951 8.556C227.97 8.07067 227.993 7.58533 228.021 7.1C228.059 6.60533 228.101 6.15733 228.147 5.756C228.241 5 228.376 4.40267 228.553 3.964C228.731 3.516 228.997 3.292 229.351 3.292ZM241.6 12.322C241.012 12.322 240.555 12.2847 240.228 12.21C239.911 12.1353 239.691 12.0327 239.57 11.902C239.449 11.762 239.383 11.608 239.374 11.44C239.374 11.1787 239.528 10.9593 239.836 10.782C240.153 10.6047 240.732 10.4927 241.572 10.446L241.348 10.712C241.245 10.236 241.171 9.68067 241.124 9.046C241.077 8.41133 241.059 7.75333 241.068 7.072C241.077 6.39067 241.11 5.742 241.166 5.126C241.222 4.50067 241.301 3.96867 241.404 3.53L242.622 3.446C242.417 3.53 242.16 3.60467 241.852 3.67C241.544 3.726 241.227 3.754 240.9 3.754C240.303 3.754 239.859 3.68867 239.57 3.558C239.29 3.42733 239.15 3.24533 239.15 3.012C239.15 2.60133 239.397 2.284 239.892 2.06C240.396 1.82667 241.166 1.71 242.202 1.71C243.434 1.71 244.47 1.91533 245.31 2.326C246.159 2.72733 246.803 3.292 247.242 4.02C247.681 4.73867 247.9 5.57867 247.9 6.54C247.9 7.38 247.751 8.15467 247.452 8.864C247.153 9.564 246.724 10.1753 246.164 10.698C245.613 11.2113 244.951 11.6127 244.176 11.902C243.411 12.182 242.552 12.322 241.6 12.322ZM243.588 10.166C243.905 10.166 244.241 10.04 244.596 9.788C244.96 9.52667 245.268 9.14867 245.52 8.654C245.772 8.15 245.898 7.52933 245.898 6.792C245.898 6.25067 245.819 5.77933 245.66 5.378C245.511 4.96733 245.315 4.62667 245.072 4.356C244.829 4.08533 244.573 3.88467 244.302 3.754C244.031 3.614 243.775 3.544 243.532 3.544C243.336 3.544 243.182 3.66533 243.07 3.908C242.967 4.15067 242.893 4.51467 242.846 5C242.799 5.476 242.776 6.06867 242.776 6.778C242.776 7.87933 242.832 8.71933 242.944 9.298C243.056 9.87667 243.271 10.166 243.588 10.166ZM255.561 12.14C255.244 12.14 255.024 12.0187 254.903 11.776C254.791 11.524 254.726 11.1273 254.707 10.586L254.847 10.656C254.324 11.6733 253.335 12.182 251.879 12.182C251.216 12.182 250.666 12.0653 250.227 11.832C249.788 11.5893 249.462 11.272 249.247 10.88C249.042 10.4787 248.939 10.0447 248.939 9.578C248.939 8.77533 249.219 8.14067 249.779 7.674C250.339 7.198 251.081 6.96 252.005 6.96C252.612 6.96 253.139 7.04867 253.587 7.226C254.035 7.40333 254.418 7.65067 254.735 7.968L254.497 7.94C254.432 6.99733 254.226 6.32533 253.881 5.924C253.545 5.51333 253.064 5.308 252.439 5.308C252.075 5.308 251.739 5.364 251.431 5.476C251.123 5.588 250.838 5.70467 250.577 5.826C250.325 5.938 250.087 5.994 249.863 5.994C249.639 5.994 249.462 5.91933 249.331 5.77C249.21 5.62067 249.149 5.42933 249.149 5.196C249.149 4.86 249.308 4.54267 249.625 4.244C249.952 3.94533 250.381 3.70267 250.913 3.516C251.445 3.32933 252.024 3.236 252.649 3.236C253.405 3.236 254.054 3.418 254.595 3.782C255.136 4.146 255.547 4.678 255.827 5.378C256.07 5.97533 256.242 6.64267 256.345 7.38C256.448 8.11733 256.499 8.906 256.499 9.746C256.499 10.3807 256.466 10.8707 256.401 11.216C256.336 11.5613 256.233 11.804 256.093 11.944C255.962 12.0747 255.785 12.14 255.561 12.14ZM252.467 10.572C252.775 10.572 253.088 10.53 253.405 10.446C253.722 10.3527 253.988 10.2173 254.203 10.04C254.418 9.86267 254.525 9.64333 254.525 9.382C254.525 9.158 254.432 8.976 254.245 8.836C254.068 8.68667 253.83 8.57467 253.531 8.5C253.242 8.42533 252.929 8.388 252.593 8.388C252.024 8.388 251.59 8.486 251.291 8.682C251.002 8.878 250.857 9.13933 250.857 9.466C250.857 9.82067 250.992 10.096 251.263 10.292C251.543 10.4787 251.944 10.572 252.467 10.572ZM260.149 3.572H259.869C259.841 3.16133 259.85 2.774 259.897 2.41C259.943 2.03667 260.041 1.738 260.191 1.514C260.349 1.28067 260.573 1.164 260.863 1.164C261.124 1.164 261.315 1.248 261.437 1.416C261.558 1.584 261.619 1.81733 261.619 2.116C261.619 2.704 261.507 3.208 261.283 3.628L261.031 3.6C261.535 3.42267 262.104 3.334 262.739 3.334C263.14 3.334 263.457 3.41333 263.691 3.572C263.933 3.72133 264.055 3.978 264.055 4.342C264.055 4.68733 263.915 4.94867 263.635 5.126C263.355 5.30333 263.005 5.392 262.585 5.392C262.333 5.392 262.062 5.38267 261.773 5.364C261.493 5.336 261.217 5.294 260.947 5.238L261.185 4.944C261.269 5.29867 261.348 5.70467 261.423 6.162C261.507 6.61 261.581 7.07667 261.647 7.562C261.712 8.04733 261.763 8.51867 261.801 8.976C261.838 9.43333 261.857 9.844 261.857 10.208C261.857 10.8053 261.763 11.2767 261.577 11.622C261.39 11.9673 261.115 12.14 260.751 12.14C260.461 12.14 260.233 12.0513 260.065 11.874C259.906 11.6967 259.789 11.4727 259.715 11.202C259.649 10.922 259.607 10.6327 259.589 10.334C259.579 10.0353 259.575 9.76467 259.575 9.522C259.575 9.11133 259.593 8.64933 259.631 8.136C259.668 7.61333 259.719 7.07667 259.785 6.526C259.859 5.97533 259.943 5.44333 260.037 4.93L260.317 5.168C259.841 5.41067 259.253 5.532 258.553 5.532C258.123 5.532 257.792 5.45267 257.559 5.294C257.325 5.13533 257.209 4.888 257.209 4.552C257.209 4.188 257.339 3.908 257.601 3.712C257.862 3.50667 258.212 3.404 258.651 3.404C258.94 3.404 259.211 3.42267 259.463 3.46C259.724 3.488 259.953 3.52533 260.149 3.572ZM271.311 12.14C270.994 12.14 270.774 12.0187 270.653 11.776C270.541 11.524 270.476 11.1273 270.457 10.586L270.597 10.656C270.074 11.6733 269.085 12.182 267.629 12.182C266.966 12.182 266.416 12.0653 265.977 11.832C265.538 11.5893 265.212 11.272 264.997 10.88C264.792 10.4787 264.689 10.0447 264.689 9.578C264.689 8.77533 264.969 8.14067 265.529 7.674C266.089 7.198 266.831 6.96 267.755 6.96C268.362 6.96 268.889 7.04867 269.337 7.226C269.785 7.40333 270.168 7.65067 270.485 7.968L270.247 7.94C270.182 6.99733 269.976 6.32533 269.631 5.924C269.295 5.51333 268.814 5.308 268.189 5.308C267.825 5.308 267.489 5.364 267.181 5.476C266.873 5.588 266.588 5.70467 266.327 5.826C266.075 5.938 265.837 5.994 265.613 5.994C265.389 5.994 265.212 5.91933 265.081 5.77C264.96 5.62067 264.899 5.42933 264.899 5.196C264.899 4.86 265.058 4.54267 265.375 4.244C265.702 3.94533 266.131 3.70267 266.663 3.516C267.195 3.32933 267.774 3.236 268.399 3.236C269.155 3.236 269.804 3.418 270.345 3.782C270.886 4.146 271.297 4.678 271.577 5.378C271.82 5.97533 271.992 6.64267 272.095 7.38C272.198 8.11733 272.249 8.906 272.249 9.746C272.249 10.3807 272.216 10.8707 272.151 11.216C272.086 11.5613 271.983 11.804 271.843 11.944C271.712 12.0747 271.535 12.14 271.311 12.14ZM268.217 10.572C268.525 10.572 268.838 10.53 269.155 10.446C269.472 10.3527 269.738 10.2173 269.953 10.04C270.168 9.86267 270.275 9.64333 270.275 9.382C270.275 9.158 270.182 8.976 269.995 8.836C269.818 8.68667 269.58 8.57467 269.281 8.5C268.992 8.42533 268.679 8.388 268.343 8.388C267.774 8.388 267.34 8.486 267.041 8.682C266.752 8.878 266.607 9.13933 266.607 9.466C266.607 9.82067 266.742 10.096 267.013 10.292C267.293 10.4787 267.694 10.572 268.217 10.572ZM273.957 5.686C273.957 4.79 274.041 4.146 274.209 3.754C274.377 3.35267 274.615 3.152 274.923 3.152C275.165 3.152 275.357 3.25467 275.497 3.46C275.637 3.656 275.739 3.90333 275.805 4.202C275.87 4.49133 275.903 4.78533 275.903 5.084L275.833 5.056C275.991 4.552 276.234 4.118 276.561 3.754C276.897 3.39 277.298 3.208 277.765 3.208C278.315 3.208 278.721 3.43667 278.983 3.894C279.244 4.342 279.375 4.902 279.375 5.574C279.375 6.47 279.272 7.09533 279.067 7.45C278.861 7.80467 278.586 7.982 278.241 7.982C277.989 7.982 277.802 7.87933 277.681 7.674C277.569 7.46867 277.531 7.10467 277.569 6.582C277.606 6.03133 277.573 5.64867 277.471 5.434C277.368 5.21933 277.205 5.112 276.981 5.112C276.71 5.112 276.486 5.28467 276.309 5.63C276.141 5.966 276.057 6.38133 276.057 6.876C276.057 7.072 276.08 7.31933 276.127 7.618C276.173 7.91667 276.225 8.24333 276.281 8.598C276.337 8.94333 276.388 9.28867 276.435 9.634C276.481 9.97933 276.505 10.2967 276.505 10.586C276.505 11.0993 276.425 11.468 276.267 11.692C276.108 11.916 275.884 12.028 275.595 12.028C275.268 12.028 275.016 11.9253 274.839 11.72C274.661 11.5053 274.526 11.16 274.433 10.684C274.358 10.2547 274.283 9.746 274.209 9.158C274.134 8.57 274.073 7.968 274.027 7.352C273.98 6.736 273.957 6.18067 273.957 5.686Z"></path>
</svg>
