<svg version="1.1" xmlns="http://www.w3.org/2000/svg" xmlns:xlink="http://www.w3.org/1999/xlink" width="161.88521" height="17.57676" viewBox="0,0,161.88521,17.57676"><g transform="translate(-159.0574,-171.21162)"><g data-paper-data="{&quot;isPaintingLayer&quot;:true}" fill="#000000" fill-rule="nonzero" stroke="none" stroke-width="1" stroke-linecap="butt" stroke-linejoin="miter" stroke-miterlimit="10" stroke-dasharray="" stroke-dashoffset="0" style="mix-blend-mode: normal"><path d="M160.22681,185.40414c-0.21262,0 -0.3839,-0.07088 -0.51384,-0.21262c-0.12994,-0.15351 -0.23625,-0.39576 -0.31893,-0.72646c-0.08268,-0.37804 -0.15947,-0.96857 -0.23034,-1.77185c-0.07088,-0.81505 -0.10631,-1.72461 -0.10631,-2.72865c0,-1.08673 0.02954,-2.14394 0.08859,-3.17162c0.07088,-1.03948 0.17128,-1.95495 0.30122,-2.74636c0.0945,-0.51975 0.23034,-0.90365 0.40753,-1.1517c0.189,-0.25986 0.44887,-0.38981 0.77962,-0.38981c0.21262,0 0.40162,0.07088 0.56699,0.21262c0.16538,0.14174 0.28941,0.39572 0.37209,0.76189c0.0945,0.36618 0.14174,0.88593 0.14174,1.55923c0,0.33074 -0.01181,0.70874 -0.03543,1.13399c-0.02363,0.41344 -0.05907,0.87411 -0.10631,1.38204h0.07088c0.94499,-1.29937 1.77776,-2.33293 2.49831,-3.10074c0.72055,-0.77962 1.35252,-1.3407 1.89588,-1.68326c0.55518,-0.34256 1.03948,-0.51384 1.45292,-0.51384c0.33074,0 0.57881,0.10631 0.74418,0.31893c0.17719,0.21262 0.26578,0.4725 0.26578,0.77962c0,0.64967 -0.49021,1.42929 -1.47063,2.33885c-0.9686,0.90956 -2.53374,2.00219 -4.6954,3.27793l0.14174,-0.33665c1.86635,1.18123 3.27793,2.22662 4.23473,3.13617c0.9568,0.89774 1.4352,1.69503 1.4352,2.392c0,0.30716 -0.1004,0.56104 -0.30122,0.76189c-0.189,0.18896 -0.4725,0.2835 -0.85049,0.2835c-0.4725,0 -0.97451,-0.15947 -1.50608,-0.4784c-0.53155,-0.3307 -1.12218,-0.87997 -1.77185,-1.64782c-0.63786,-0.77962 -1.36432,-1.83682 -2.17938,-3.17162h-0.07088c0.02363,0.27169 0.04134,0.55518 0.05316,0.85049c0.01181,0.2835 0.01772,0.56699 0.01772,0.85049c0,1.35838 -0.0945,2.33289 -0.2835,2.92355c-0.189,0.57876 -0.53155,0.8682 -1.02767,0.8682zM174.9695,185.36871c-1.31117,0 -2.35657,-0.19491 -3.13617,-0.58472c-0.77962,-0.38981 -1.34076,-0.95085 -1.6833,-1.68326c-0.34256,-0.73237 -0.51384,-1.60647 -0.51384,-2.62234c0,-1.28754 0.23624,-2.38019 0.70874,-3.27793c0.48428,-0.90956 1.1458,-1.60647 1.98452,-2.09078c0.85049,-0.48431 1.81311,-0.72646 2.88812,-0.72646c1.26384,0 2.19115,0.29531 2.78181,0.88593c0.59053,0.57881 0.88593,1.3407 0.88593,2.28569c0,0.75598 -0.20085,1.41158 -0.60243,1.96676c-0.38981,0.54336 -0.93326,0.96271 -1.63011,1.25801c-0.69697,0.29531 -1.50026,0.44296 -2.40971,0.44296c-0.50801,0 -0.99819,-0.06497 -1.47063,-0.19491c-0.47258,-0.12994 -0.89782,-0.30713 -1.27573,-0.53155l0.42524,-0.77962c-0.03543,0.2835 -0.05316,0.56699 -0.05316,0.85049c0,0.82686 0.25982,1.42339 0.77962,1.78957c0.51966,0.35437 1.25801,0.53155 2.21481,0.53155c0.74418,0 1.34066,-0.06492 1.78957,-0.19491c0.44878,-0.12994 0.82682,-0.25396 1.13399,-0.37209c0.30704,-0.12994 0.60826,-0.19491 0.90365,-0.19491c0.16528,0 0.31299,0.04724 0.44296,0.14174c0.14174,0.08268 0.25388,0.20671 0.33665,0.37209c0.09442,0.16542 0.14174,0.36614 0.14174,0.60243c0,0.35437 -0.17719,0.69697 -0.53155,1.02767c-0.35437,0.31893 -0.88011,0.58472 -1.57695,0.79734c-0.6852,0.20085 -1.52974,0.30122 -2.53374,0.30122zM173.94183,179.57475c0.83859,0 1.51189,-0.17719 2.0199,-0.53155c0.50789,-0.35437 0.76189,-0.79143 0.76189,-1.31117c0,-0.41344 -0.14174,-0.75008 -0.42524,-1.00996c-0.27173,-0.27169 -0.70292,-0.40753 -1.29345,-0.40753c-0.55522,0 -1.05728,0.10631 -1.50608,0.31893c-0.43714,0.20081 -0.77962,0.4666 -1.02767,0.79734c-0.24805,0.33074 -0.37209,0.69103 -0.37209,1.08082c0,0.34256 0.15947,0.60834 0.4784,0.79734c0.3307,0.17719 0.78543,0.26578 1.36432,0.26578zM183.08244,185.2624c-0.36614,0 -0.65558,-0.08265 -0.8682,-0.24805c-0.21262,-0.17719 -0.38386,-0.46663 -0.51384,-0.8682c-0.17719,-0.59066 -0.31299,-1.33484 -0.40753,-2.23254c-0.08265,-0.90956 -0.12403,-2.02583 -0.12403,-3.3488c0,-0.81505 0.02949,-1.63011 0.08859,-2.44516c0.07088,-0.82686 0.15947,-1.57695 0.26578,-2.25025c0.10631,-0.68512 0.21857,-1.21667 0.33665,-1.59466c0.12997,-0.40162 0.2835,-0.67922 0.46068,-0.83277c0.17719,-0.15356 0.37804,-0.23034 0.60243,-0.23034c0.23628,0 0.42524,0.08268 0.56699,0.24805c0.14174,0.15355 0.25401,0.43115 0.33665,0.83277c0.07088,0.38981 0.12403,0.8682 0.15947,1.4352c0.0472,0.56699 0.07088,1.17533 0.07088,1.82501c0,0.88593 -0.04139,1.8191 -0.12403,2.79953c-0.08265,0.98042 -0.19491,1.94313 -0.33665,2.88812c-0.12997,0.94499 -0.28945,1.81324 -0.4784,2.60462l-0.49612,-0.24805c0.30716,-0.37804 0.65558,-0.6733 1.04539,-0.88593c0.40158,-0.21262 0.76785,-0.31893 1.09855,-0.31893c0.27173,0 0.4784,0.07679 0.62015,0.23034c0.15351,0.14174 0.23034,0.36614 0.23034,0.6733c0,0.30716 -0.1358,0.6142 -0.40753,0.92136c-0.25982,0.30716 -0.58472,0.56104 -0.97451,0.76189c-0.38981,0.18896 -0.77366,0.2835 -1.1517,0.2835zM188.78425,171.63685c0.47245,0 0.80911,0.12994 1.00996,0.38981c0.21262,0.25986 0.31893,0.56108 0.31893,0.90365c0,0.42524 -0.12997,0.75598 -0.38981,0.99224c-0.24805,0.22443 -0.60243,0.33665 -1.06311,0.33665c-0.44891,0 -0.78557,-0.12403 -1.00996,-0.37209c-0.22451,-0.25986 -0.33665,-0.56108 -0.33665,-0.90365c0,-0.44887 0.1358,-0.78553 0.40753,-1.00996c0.2716,-0.22443 0.62597,-0.33665 1.06311,-0.33665zM188.89056,175.58808c0.37791,0 0.6733,0.35437 0.88593,1.06311c0.22439,0.70874 0.33665,1.83682 0.33665,3.38424c0,1.90179 -0.13593,3.27197 -0.40753,4.1107c-0.27173,0.83872 -0.6852,1.25801 -1.2403,1.25801c-0.42524,0 -0.73835,-0.30716 -0.93908,-0.92136c-0.20085,-0.62609 -0.30122,-1.71274 -0.30122,-3.2602c0,-1.90179 0.15351,-3.31336 0.46068,-4.23473c0.31893,-0.93317 0.72051,-1.39976 1.20486,-1.39976zM194.19119,185.2624c-0.36627,0 -0.65558,-0.08265 -0.8682,-0.24805c-0.21262,-0.17719 -0.38399,-0.46663 -0.51384,-0.8682c-0.17719,-0.59066 -0.31311,-1.33484 -0.40753,-2.23254c-0.08277,-0.90956 -0.12403,-2.02583 -0.12403,-3.3488c0,-0.81505 0.02949,-1.63011 0.08859,-2.44516c0.07088,-0.82686 0.15947,-1.57695 0.26578,-2.25025c0.10631,-0.68512 0.21845,-1.21667 0.33665,-1.59466c0.12985,-0.40162 0.2835,-0.67922 0.46068,-0.83277c0.17719,-0.15356 0.37791,-0.23034 0.60243,-0.23034c0.23616,0 0.42524,0.08268 0.56699,0.24805c0.14174,0.15355 0.25388,0.43115 0.33665,0.83277c0.07088,0.38981 0.12403,0.8682 0.15947,1.4352c0.0472,0.56699 0.07088,1.17533 0.07088,1.82501c0,0.88593 -0.04139,1.8191 -0.12403,2.79953c-0.08277,0.98042 -0.19491,1.94313 -0.33665,2.88812c-0.12997,0.94499 -0.28945,1.81324 -0.4784,2.60462l-0.49612,-0.24805c0.30704,-0.37804 0.65558,-0.6733 1.04539,-0.88593c0.40158,-0.21262 0.76772,-0.31893 1.09855,-0.31893c0.2716,0 0.4784,0.07679 0.62015,0.23034c0.15351,0.14174 0.23034,0.36614 0.23034,0.6733c0,0.30716 -0.13593,0.6142 -0.40753,0.92136c-0.25996,0.30716 -0.58472,0.56104 -0.97451,0.76189c-0.38981,0.18896 -0.7738,0.2835 -1.1517,0.2835zM199.89287,171.63685c0.47245,0 0.80911,0.12994 1.00996,0.38981c0.21262,0.25986 0.31893,0.56108 0.31893,0.90365c0,0.42524 -0.12997,0.75598 -0.38981,0.99224c-0.24805,0.22443 -0.60243,0.33665 -1.06311,0.33665c-0.44891,0 -0.78557,-0.12403 -1.00996,-0.37209c-0.22439,-0.25986 -0.33665,-0.56108 -0.33665,-0.90365c0,-0.44887 0.1358,-0.78553 0.40753,-1.00996c0.27173,-0.22443 0.62609,-0.33665 1.06311,-0.33665zM199.99918,175.58808c0.37804,0 0.6733,0.35437 0.88593,1.06311c0.22439,0.70874 0.33665,1.83682 0.33665,3.38424c0,1.90179 -0.1358,3.27197 -0.40753,4.1107c-0.27173,0.83872 -0.68507,1.25801 -1.2403,1.25801c-0.42524,0 -0.73823,-0.30716 -0.93908,-0.92136c-0.20085,-0.62609 -0.30122,-1.71274 -0.30122,-3.2602c0,-1.90179 0.15351,-3.31336 0.46068,-4.23473c0.31893,-0.93317 0.72051,-1.39976 1.20486,-1.39976zM205.19349,174.20604c0.37804,0 0.63192,0.15355 0.76189,0.46068c0.14174,0.30713 0.21262,0.76189 0.21262,1.36432c0,0.14174 -0.01177,0.29531 -0.03543,0.46068c-0.01177,0.15355 -0.03543,0.29531 -0.07088,0.42524l-0.03543,-0.35437c0.2835,-0.7678 0.72051,-1.36432 1.31117,-1.78957c0.59066,-0.43705 1.21663,-0.65558 1.87816,-0.65558c0.73241,0 1.34066,0.20671 1.82501,0.62015c0.49612,0.41344 0.86226,0.99224 1.09855,1.73642c0.24805,0.74418 0.37209,1.6242 0.37209,2.64005c0,0.62606 -0.02949,1.24621 -0.08859,1.86044c-0.0472,0.60243 -0.11808,1.15761 -0.21262,1.66554c-0.08265,0.49612 -0.17719,0.90365 -0.2835,1.22258c-0.14174,0.40158 -0.32488,0.7028 -0.54927,0.90365c-0.22439,0.18896 -0.49017,0.2835 -0.79734,0.2835c-0.30716,0 -0.54332,-0.11226 -0.70874,-0.33665c-0.16542,-0.22439 -0.24805,-0.52561 -0.24805,-0.90365c0,-0.40158 0.02949,-0.88593 0.08859,-1.45292c0.05911,-0.57881 0.11226,-1.16351 0.15947,-1.75413c0.05911,-0.60243 0.08859,-1.14579 0.08859,-1.63011c0,-1.65373 -0.54332,-2.48059 -1.63011,-2.48059c-0.57876,0 -1.06311,0.25986 -1.45292,0.77962c-0.38981,0.50793 -0.64963,1.23439 -0.77962,2.17938c-0.03543,0.31893 -0.05316,0.71465 -0.05316,1.18713c0,0.4725 0,0.94499 0,1.41749c0.01177,0.46068 0,0.85049 -0.03543,1.16942c-0.0472,0.70874 -0.18313,1.21663 -0.40753,1.5238c-0.21262,0.30716 -0.50789,0.46068 -0.88593,0.46068c-0.43701,0 -0.76785,-0.20085 -0.99224,-0.60243c-0.22439,-0.41347 -0.33665,-1.1045 -0.33665,-2.07307c0,-0.49612 0.01177,-1.0513 0.03543,-1.66554c0.02366,-0.61424 0.05316,-1.22849 0.08859,-1.84273c0.0472,-0.62606 0.10036,-1.19306 0.15947,-1.70097c0.11808,-0.9568 0.28945,-1.71279 0.51384,-2.26797c0.22439,-0.56699 0.56104,-0.85049 1.00996,-0.85049zM218.0522,184.94346c-1.11044,0 -2.01409,-0.42524 -2.71093,-1.27573c-0.69697,-0.86226 -1.04539,-2.16757 -1.04539,-3.91579c0,-1.86635 0.33665,-3.23068 1.00996,-4.09297c0.6733,-0.86229 1.55923,-1.29345 2.65778,-1.29345c0.64963,0 1.22258,0.16538 1.7187,0.49612c0.49612,0.33074 0.92136,0.79734 1.27573,1.39976l-0.14174,0.24805c-0.03543,-0.16538 -0.06505,-0.34256 -0.08859,-0.53155c-0.02366,-0.189 -0.03543,-0.33074 -0.03543,-0.42524c0,-0.48431 0.07669,-0.8564 0.23034,-1.11627c0.16528,-0.27169 0.4193,-0.40753 0.76189,-0.40753c0.37791,0 0.6733,0.15355 0.88593,0.46068c0.22439,0.30713 0.39563,0.74418 0.51384,1.31117c0.15351,0.57881 0.2835,1.31708 0.38981,2.21481c0.10631,0.88593 0.15947,1.78366 0.15947,2.69321c0,1.13399 -0.04139,2.08484 -0.12403,2.85269c-0.08277,0.76785 -0.21857,1.40571 -0.40753,1.91359c-0.18908,0.50789 -0.43714,0.95085 -0.74418,1.32889c-0.50801,0.6142 -1.16359,1.08082 -1.96676,1.39976c-0.79151,0.3307 -1.70693,0.49612 -2.74636,0.49612c-0.74418,0 -1.34078,-0.07088 -1.78957,-0.21262c-0.44891,-0.12997 -0.7738,-0.31299 -0.97451,-0.54927c-0.18908,-0.22439 -0.2835,-0.4784 -0.2835,-0.76189c0,-0.29527 0.08265,-0.54332 0.24805,-0.74418c0.16528,-0.18896 0.41335,-0.2835 0.74418,-0.2835c0.29527,0 0.63786,0.0472 1.02767,0.14174c0.40158,0.09454 0.87403,0.14174 1.41749,0.14174c1.14576,0 1.95486,-0.27173 2.42743,-0.81505c0.48422,-0.53155 0.72646,-1.2994 0.72646,-2.3034c0,-0.27173 -0.01772,-0.59066 -0.05316,-0.9568l0.24805,0.08859c-0.29539,0.75595 -0.73241,1.36432 -1.31117,1.82501c-0.57889,0.44891 -1.25219,0.6733 -2.0199,0.6733zM218.7255,182.76409c0.37791,0 0.75595,-0.1004 1.13399,-0.30122c0.37791,-0.20081 0.69103,-0.53155 0.93908,-0.99224c0.24805,-0.46068 0.37209,-1.08082 0.37209,-1.86044c0,-0.93317 -0.21857,-1.69506 -0.65558,-2.28569c-0.43714,-0.59062 -1.05134,-0.88593 -1.84273,-0.88593c-0.6852,0 -1.18713,0.25986 -1.50608,0.77962c-0.31893,0.51975 -0.4784,1.30526 -0.4784,2.35657c0,1.00405 0.15947,1.78957 0.4784,2.35657c0.31893,0.55518 0.83859,0.83277 1.55923,0.83277zM233.77067,172.20385c0.87416,0 1.60643,0.04724 2.19709,0.14174c0.60243,0.08268 1.08678,0.189 1.45292,0.31893c0.38981,0.15355 0.65558,0.33074 0.79734,0.53155c0.15351,0.20081 0.23034,0.43115 0.23034,0.69103c0,0.378 -0.1477,0.68512 -0.44296,0.92136c-0.2835,0.23625 -0.72051,0.35437 -1.31117,0.35437c-0.40158,0 -0.83277,-0.04134 -1.29345,-0.12403c-0.46068,-0.08268 -0.93313,-0.20671 -1.41749,-0.37209l0.23034,-0.24805c0.10631,0.61424 0.20085,1.29345 0.2835,2.03763c0.08265,0.74418 0.15351,1.50016 0.21262,2.26797c0.07088,0.75598 0.11808,1.47063 0.14174,2.14394c0.03543,0.6733 0.05316,1.24621 0.05316,1.7187c0,0.92136 -0.11808,1.61239 -0.35437,2.07307c-0.22439,0.46068 -0.6142,0.69103 -1.16942,0.69103c-0.50789,0 -0.87416,-0.20668 -1.09855,-0.62015c-0.22439,-0.42524 -0.33665,-1.06905 -0.33665,-1.93132c0,-0.56699 0.02366,-1.21667 0.07088,-1.94904c0.05911,-0.73237 0.1358,-1.48835 0.23034,-2.26797c0.09454,-0.77962 0.19491,-1.5238 0.30122,-2.23254c0.11808,-0.72055 0.23628,-1.34661 0.35437,-1.87816l0.31893,0.19491c-0.25982,0.0945 -0.56699,0.189 -0.92136,0.2835c-0.35437,0.08268 -0.70874,0.15355 -1.06311,0.21262c-0.35437,0.04724 -0.66735,0.07088 -0.93908,0.07088c-0.60243,0 -1.02767,-0.0945 -1.27573,-0.2835c-0.24805,-0.20081 -0.37209,-0.4666 -0.37209,-0.79734c0,-0.30713 0.09454,-0.56699 0.2835,-0.77962c0.18896,-0.22443 0.4784,-0.41933 0.8682,-0.58472c0.44891,-0.189 0.99819,-0.33074 1.64782,-0.42524c0.66154,-0.10631 1.4352,-0.15947 2.32112,-0.15947zM239.56728,177.2359c0,-1.13399 0.10631,-1.94904 0.31893,-2.44516c0.21262,-0.50793 0.51384,-0.76189 0.90365,-0.76189c0.30716,0 0.54927,0.12994 0.72646,0.38981c0.17719,0.24805 0.30716,0.56108 0.38981,0.93908c0.08265,0.36618 0.12403,0.73827 0.12403,1.11627l-0.08859,-0.03543c0.20085,-0.63786 0.50789,-1.18713 0.92136,-1.64782c0.42524,-0.46068 0.93313,-0.69103 1.5238,-0.69103c0.69697,0 1.21081,0.28941 1.54151,0.8682c0.3307,0.56699 0.49612,1.27573 0.49612,2.12623c0,1.13399 -0.12997,1.92541 -0.38981,2.37428c-0.25982,0.44887 -0.60838,0.6733 -1.04539,0.6733c-0.31893,0 -0.55522,-0.12994 -0.70874,-0.38981c-0.14174,-0.25986 -0.18896,-0.72055 -0.14174,-1.38204c0.0472,-0.69694 0.00595,-1.18123 -0.12403,-1.45292c-0.12997,-0.27169 -0.33665,-0.40753 -0.62015,-0.40753c-0.34259,0 -0.62609,0.21853 -0.85049,0.65558c-0.21262,0.42524 -0.31893,0.95089 -0.31893,1.57695c0,0.24805 0.02949,0.56108 0.08859,0.93908c0.05911,0.378 0.12403,0.79143 0.19491,1.2403c0.07088,0.43705 0.1358,0.87411 0.19491,1.31117c0.05911,0.43705 0.08859,0.83872 0.08859,1.20486c0,0.64963 -0.10036,1.11627 -0.30122,1.39976c-0.20085,0.2835 -0.48435,0.42524 -0.85049,0.42524c-0.41347,0 -0.73241,-0.12997 -0.9568,-0.38981c-0.22439,-0.27173 -0.39576,-0.70874 -0.51384,-1.31117c-0.09454,-0.54332 -0.18896,-1.18713 -0.2835,-1.93132c-0.09454,-0.74418 -0.17124,-1.50608 -0.23034,-2.28569c-0.05911,-0.77962 -0.08859,-1.48244 -0.08859,-2.1085zM255.73695,185.40414c-0.40158,0 -0.67926,-0.15351 -0.83277,-0.46068c-0.14174,-0.31893 -0.22439,-0.821 -0.24805,-1.50608l0.17719,0.08859c-0.66154,1.2875 -1.91359,1.93132 -3.75632,1.93132c-0.83872,0 -1.53557,-0.1477 -2.09078,-0.44296c-0.55522,-0.30716 -0.96857,-0.70874 -1.2403,-1.20486c-0.25982,-0.50789 -0.38981,-1.05716 -0.38981,-1.64782c0,-1.01587 0.35437,-1.8191 1.06311,-2.40971c0.70874,-0.60243 1.64782,-0.90365 2.81724,-0.90365c0.76785,0 1.4352,0.11222 2.00219,0.33665c0.56699,0.22443 1.05134,0.53746 1.45292,0.93908l-0.30122,-0.03543c-0.08265,-1.19306 -0.34259,-2.04354 -0.77962,-2.55147c-0.42524,-0.51975 -1.03362,-0.77962 -1.82501,-0.77962c-0.46068,0 -0.88593,0.07088 -1.27573,0.21262c-0.38981,0.14174 -0.75012,0.28941 -1.08082,0.44296c-0.31893,0.14174 -0.62015,0.21262 -0.90365,0.21262c-0.2835,0 -0.50789,-0.0945 -0.6733,-0.2835c-0.15351,-0.189 -0.23034,-0.43115 -0.23034,-0.72646c0,-0.42524 0.20085,-0.82686 0.60243,-1.20486c0.41347,-0.378 0.9568,-0.68512 1.63011,-0.92136c0.6733,-0.23625 1.40571,-0.35437 2.19709,-0.35437c0.9568,0 1.7778,0.23034 2.46288,0.69103c0.68507,0.46068 1.20486,1.13399 1.55923,2.0199c0.30716,0.75598 0.52561,1.60057 0.65558,2.53374c0.12997,0.93317 0.19491,1.93132 0.19491,2.99443c0,0.80328 -0.04139,1.42343 -0.12403,1.86044c-0.08265,0.43701 -0.21262,0.74418 -0.38981,0.92136c-0.16542,0.16542 -0.38981,0.24805 -0.6733,0.24805zM251.82115,183.41967c0.38981,0 0.78557,-0.05316 1.18713,-0.15947c0.40158,-0.11808 0.73823,-0.28945 1.00996,-0.51384c0.27173,-0.22443 0.40753,-0.50203 0.40753,-0.83277c0,-0.2835 -0.11808,-0.51384 -0.35437,-0.69103c-0.22439,-0.189 -0.52561,-0.33074 -0.90365,-0.42524c-0.36614,-0.0945 -0.76189,-0.14174 -1.18713,-0.14174c-0.72051,0 -1.26978,0.12403 -1.64782,0.37209c-0.36614,0.24805 -0.54927,0.57881 -0.54927,0.99224c0,0.44887 0.17124,0.79734 0.51384,1.04539c0.35437,0.23628 0.86226,0.35437 1.5238,0.35437zM260.29022,174.24147c0.31893,0 0.58472,0.189 0.79734,0.56699c0.21262,0.36618 0.36019,0.95089 0.44296,1.75413l-0.37209,0.33665c0.21262,-0.82686 0.60826,-1.45883 1.18713,-1.89588c0.57876,-0.43705 1.26384,-0.65558 2.05535,-0.65558c0.73228,0 1.38204,0.189 1.94904,0.56699c0.56699,0.378 1.00996,0.95089 1.32889,1.7187c0.3307,0.75598 0.49612,1.70688 0.49612,2.85269c0,1.85454 -0.33665,3.22477 -1.00996,4.1107c-0.66154,0.87416 -1.56517,1.31117 -2.71093,1.31117c-0.82695,0 -1.47658,-0.17719 -1.94904,-0.53155c-0.47258,-0.35437 -0.80328,-0.78557 -0.99224,-1.29345l0.21262,-0.10631c0.09442,0.70874 0.17124,1.41153 0.23034,2.1085c0.07088,0.68507 0.10631,1.2875 0.10631,1.80728c0,0.53155 -0.09454,0.98047 -0.2835,1.34661c-0.18908,0.36614 -0.4903,0.54927 -0.90365,0.54927c-0.4017,0 -0.70292,-0.15351 -0.90365,-0.46068c-0.20085,-0.30716 -0.34855,-0.71469 -0.44296,-1.22258c-0.07088,-0.51978 -0.14174,-1.18713 -0.21262,-2.00219c-0.07088,-0.81505 -0.12997,-1.69503 -0.17719,-2.64005c-0.03543,-0.94499 -0.05316,-1.86635 -0.05316,-2.76409c0,-0.92136 0.02949,-1.78366 0.08859,-2.5869c0.07088,-0.81505 0.15351,-1.47654 0.24805,-1.98447c0.08265,-0.29531 0.18896,-0.51384 0.31893,-0.65558c0.14174,-0.15355 0.32476,-0.23034 0.54927,-0.23034zM263.67446,176.38542c-0.63786,0 -1.1517,0.31893 -1.54151,0.9568c-0.37804,0.62606 -0.56699,1.42929 -0.56699,2.40971c0,1.00405 0.18896,1.75413 0.56699,2.25025c0.38981,0.49612 0.89174,0.74418 1.50608,0.74418c0.70874,0 1.21663,-0.27759 1.5238,-0.83277c0.31893,-0.56699 0.4784,-1.29937 0.4784,-2.19709c0,-1.14579 -0.19491,-1.98447 -0.58472,-2.51603c-0.38981,-0.54336 -0.85049,-0.81505 -1.38204,-0.81505zM274.93027,185.36871c-1.31117,0 -2.35657,-0.19491 -3.13617,-0.58472c-0.77962,-0.38981 -1.34078,-0.95085 -1.68326,-1.68326c-0.34259,-0.73237 -0.51384,-1.60647 -0.51384,-2.62234c0,-1.28754 0.23616,-2.38019 0.70874,-3.27793c0.48422,-0.90956 1.14576,-1.60647 1.98447,-2.09078c0.85049,-0.48431 1.81311,-0.72646 2.88812,-0.72646c1.26384,0 2.19115,0.29531 2.78181,0.88593c0.59053,0.57881 0.88593,1.3407 0.88593,2.28569c0,0.75598 -0.20085,1.41158 -0.60243,1.96676c-0.38981,0.54336 -0.93326,0.96271 -1.63011,1.25801c-0.69697,0.29531 -1.50026,0.44296 -2.40971,0.44296c-0.50801,0 -0.99819,-0.06497 -1.47063,-0.19491c-0.47258,-0.12994 -0.89782,-0.30713 -1.27573,-0.53155l0.42524,-0.77962c-0.03543,0.2835 -0.05316,0.56699 -0.05316,0.85049c0,0.82686 0.25982,1.42339 0.77962,1.78957c0.51966,0.35437 1.25801,0.53155 2.21481,0.53155c0.74418,0 1.34066,-0.06492 1.78957,-0.19491c0.44878,-0.12994 0.82682,-0.25396 1.13399,-0.37209c0.30704,-0.12994 0.60826,-0.19491 0.90365,-0.19491c0.16528,0 0.31299,0.04724 0.44296,0.14174c0.14174,0.08268 0.25388,0.20671 0.33665,0.37209c0.09442,0.16542 0.14174,0.36614 0.14174,0.60243c0,0.35437 -0.17719,0.69697 -0.53155,1.02767c-0.35437,0.31893 -0.88011,0.58472 -1.57695,0.79734c-0.6852,0.20085 -1.52974,0.30122 -2.53374,0.30122zM273.90259,179.57475c0.83859,0 1.51189,-0.17719 2.0199,-0.53155c0.50789,-0.35437 0.76189,-0.79143 0.76189,-1.31117c0,-0.41344 -0.14174,-0.75008 -0.42524,-1.00996c-0.27173,-0.27169 -0.70292,-0.40753 -1.29345,-0.40753c-0.55522,0 -1.05728,0.10631 -1.50608,0.31893c-0.43714,0.20081 -0.77962,0.4666 -1.02767,0.79734c-0.24805,0.33074 -0.37209,0.69103 -0.37209,1.08082c0,0.34256 0.15947,0.60834 0.4784,0.79734c0.3307,0.17719 0.78543,0.26578 1.36432,0.26578zM285.61187,174.13516c1.05172,0 1.80728,0.15355 2.26797,0.46068c0.46068,0.30713 0.69103,0.70283 0.69103,1.18713c0,0.2835 -0.09999,0.51975 -0.30122,0.70874c-0.18858,0.17719 -0.46068,0.26578 -0.81505,0.26578c-0.36576,0 -0.74924,-0.05316 -1.1517,-0.15947c-0.38981,-0.10631 -0.84416,-0.15947 -1.36432,-0.15947c-0.60192,0 -1.0507,0.11812 -1.3461,0.35437c-0.29527,0.23625 -0.44296,0.53746 -0.44296,0.90365c0,0.34256 0.12997,0.61424 0.38981,0.81505c0.27173,0.189 0.78557,0.33074 1.541,0.42524c0.83909,0.0945 1.53012,0.24805 2.07307,0.46068c0.55561,0.20081 0.96946,0.50793 1.2403,0.92136c0.27211,0.40162 0.40753,0.9568 0.40753,1.66554c0,1.12222 -0.39487,1.95499 -1.18713,2.49831c-0.791,0.54332 -1.88323,0.81505 -3.27742,0.81505c-0.88593,0 -1.58872,-0.07088 -2.1085,-0.21262c-0.51966,-0.14174 -0.8977,-0.34259 -1.13399,-0.60243c-0.22439,-0.25982 -0.33665,-0.56699 -0.33665,-0.92136c0,-0.30716 0.10049,-0.54332 0.30122,-0.70874c0.21262,-0.17719 0.46068,-0.26578 0.74418,-0.26578c0.27173,0 0.56117,0.03543 0.8682,0.10631c0.30716,0.05911 0.63204,0.12403 0.97451,0.19491c0.34259,0.07088 0.69697,0.10631 1.06261,0.10631c1.18208,0 1.77185,-0.36618 1.77185,-1.09855c0,-0.24805 -0.05822,-0.44887 -0.17719,-0.60243c-0.1177,-0.15355 -0.33032,-0.27759 -0.63786,-0.37209c-0.30627,-0.10631 -0.75557,-0.189 -1.3461,-0.24805c-0.70874,-0.07088 -1.32294,-0.189 -1.84273,-0.35437c-0.51966,-0.17719 -0.92136,-0.46068 -1.20486,-0.85049c-0.2835,-0.40162 -0.42524,-0.95089 -0.42524,-1.64782c0,-1.09855 0.41347,-1.98447 1.2403,-2.65778c0.82695,-0.68512 2.00219,-1.02767 3.52547,-1.02767zM292.15381,171.63685c0.47207,0 0.80873,0.12994 1.00996,0.38981c0.21262,0.25986 0.31893,0.56108 0.31893,0.90365c0,0.42524 -0.13036,0.75598 -0.38981,0.99224c-0.24805,0.22443 -0.60243,0.33665 -1.06311,0.33665c-0.4493,0 -0.78594,-0.12403 -1.00996,-0.37209c-0.22401,-0.25986 -0.33665,-0.56108 -0.33665,-0.90365c0,-0.44887 0.13542,-0.78553 0.40753,-1.00996c0.27211,-0.22443 0.62647,-0.33665 1.06311,-0.33665zM292.26012,175.58808c0.37842,0 0.6733,0.35437 0.88593,1.06311c0.22401,0.70874 0.33665,1.83682 0.33665,3.38424c0,1.90179 -0.13542,3.27197 -0.40753,4.1107c-0.27211,0.83872 -0.68469,1.25801 -1.2403,1.25801c-0.42524,0 -0.73785,-0.30716 -0.93908,-0.92136c-0.20123,-0.62609 -0.30122,-1.71274 -0.30122,-3.2602c0,-1.90179 0.15314,-3.31336 0.46068,-4.23473c0.31893,-0.93317 0.72014,-1.39976 1.20486,-1.39976zM303.62021,185.12064c-0.31893,0 -0.56699,-0.10631 -0.74418,-0.31893c-0.1658,-0.22439 -0.27716,-0.50789 -0.33665,-0.85049c-0.05949,-0.35437 -0.08859,-0.72646 -0.08859,-1.11627l0.08859,-0.07088c-0.1177,0.50789 -0.34804,0.94503 -0.69103,1.31117c-0.34298,0.36614 -0.73785,0.64963 -1.18713,0.85049c-0.4493,0.18896 -0.89731,0.2835 -1.34661,0.2835c-0.60243,0 -1.1517,-0.14174 -1.64782,-0.42524c-0.49612,-0.2835 -0.8796,-0.72051 -1.1517,-1.31117c-0.27211,-0.62609 -0.48473,-1.41158 -0.63786,-2.35657c-0.15314,-0.9568 -0.23034,-1.93723 -0.23034,-2.94127c0,-0.54336 0.02405,-1.04539 0.07088,-1.50608c0.04683,-0.46068 0.12403,-0.83868 0.23034,-1.13399c0.09492,-0.30713 0.23667,-0.53155 0.42524,-0.6733c0.18858,-0.15355 0.43157,-0.23034 0.72646,-0.23034c0.34298,0 0.60876,0.13583 0.79734,0.40753c0.20123,0.25986 0.32526,0.62606 0.37209,1.09855c0.04683,0.38981 0.0772,0.87411 0.08859,1.45292c0.02405,0.56699 0.04177,1.1399 0.05316,1.7187c0.02405,0.56699 0.05316,1.04539 0.08859,1.4352c0.07088,0.70874 0.25439,1.23439 0.54927,1.57695c0.29489,0.33074 0.65558,0.49612 1.08082,0.49612c0.62647,0 1.10488,-0.23625 1.4352,-0.70874c0.33032,-0.4725 0.49612,-1.13399 0.49612,-1.98447c0,-0.42524 -0.02405,-0.90365 -0.07088,-1.4352c-0.04683,-0.54336 -0.09999,-1.06902 -0.15947,-1.57695c-0.04683,-0.50793 -0.07088,-0.92727 -0.07088,-1.25801c0,-0.55518 0.09492,-0.95089 0.2835,-1.18713c0.18858,-0.24805 0.4493,-0.37209 0.77962,-0.37209c0.2835,0 0.52016,0.07679 0.70874,0.23034c0.20123,0.15355 0.3607,0.36618 0.4784,0.63786c0.1658,0.35437 0.30754,0.83868 0.42524,1.45292c0.1177,0.61424 0.21262,1.31117 0.2835,2.09078c0.07088,0.77962 0.10631,1.60057 0.10631,2.46288c0,1.32298 -0.08859,2.31517 -0.26578,2.97671c-0.17719,0.64963 -0.48979,0.97451 -0.93908,0.97451zM314.61708,177.11187c0.11897,-0.48431 0.32526,-0.92136 0.62015,-1.31117c0.30754,-0.38981 0.6733,-0.69694 1.09855,-0.92136c0.4379,-0.23625 0.9163,-0.35437 1.4352,-0.35437c0.61509,0 1.15803,0.14765 1.63011,0.44296c0.47334,0.29531 0.84543,0.77962 1.11627,1.45292c0.2835,0.6733 0.42524,1.57104 0.42524,2.69321c0,0.57881 -0.02279,1.16351 -0.07088,1.75413c-0.04683,0.59062 -0.10631,1.1399 -0.17719,1.64782c-0.07088,0.50789 -0.14681,0.93313 -0.23034,1.27573c-0.1177,0.47245 -0.30122,0.83277 -0.54927,1.08082c-0.23541,0.24805 -0.53662,0.37209 -0.90365,0.37209c-0.30627,0 -0.54927,-0.1358 -0.72646,-0.40753c-0.17719,-0.27173 -0.26578,-0.66154 -0.26578,-1.16942c0,-0.23628 0.03038,-0.5375 0.08859,-0.90365c0.05949,-0.378 0.12403,-0.78553 0.19491,-1.22258c0.07088,-0.44887 0.13669,-0.90365 0.19491,-1.36432c0.05949,-0.46068 0.08859,-0.89774 0.08859,-1.31117c0,-0.61424 -0.12403,-1.08673 -0.37209,-1.41749c-0.24805,-0.34256 -0.5961,-0.51384 -1.04539,-0.51384c-0.49612,0 -0.9087,0.25986 -1.2403,0.77962c-0.31893,0.50793 -0.50751,1.2521 -0.56699,2.23254c-0.04683,0.87411 -0.08859,1.65373 -0.12403,2.33885c-0.03543,0.6733 -0.12403,1.22853 -0.26578,1.66554c-0.09365,0.30716 -0.23034,0.5375 -0.40753,0.69103c-0.16453,0.15351 -0.38981,0.23034 -0.6733,0.23034c-0.31893,0 -0.57206,-0.11808 -0.76189,-0.35437c-0.17719,-0.23628 -0.27716,-0.60838 -0.30122,-1.11627c-0.02279,-0.42524 -0.02911,-0.92727 -0.01772,-1.50608c0.01266,-0.57881 0.01772,-1.1517 0.01772,-1.7187c0.01266,-0.57881 0.00632,-1.0572 -0.01772,-1.4352c-0.04683,-0.75598 -0.18225,-1.31117 -0.40753,-1.66554c-0.21262,-0.35437 -0.53662,-0.53155 -0.97451,-0.53155c-0.50751,0 -0.91504,0.23625 -1.22258,0.70874c-0.29489,0.4725 -0.4784,1.12808 -0.54927,1.96676c-0.02279,0.34256 -0.03543,0.7678 -0.03543,1.27573c0.01266,0.49612 0.02405,0.99224 0.03543,1.48835c0.01266,0.49612 0.00632,0.90959 -0.01772,1.2403c-0.01139,0.70874 -0.12403,1.21663 -0.33665,1.5238c-0.19996,0.30716 -0.48346,0.46068 -0.85049,0.46068c-0.43664,0 -0.75557,-0.14174 -0.9568,-0.42524c-0.18858,-0.2835 -0.31261,-0.73823 -0.37209,-1.36432c-0.04683,-0.55522 -0.08227,-1.10446 -0.10631,-1.64782c-0.02279,-0.55518 -0.03543,-1.10446 -0.03543,-1.64782c0,-0.55518 0.01266,-1.15761 0.03543,-1.80728c0.03543,-0.64967 0.08353,-1.26392 0.14174,-1.84273c0.07088,-0.59062 0.19491,-1.08673 0.37209,-1.48835c0.17719,-0.40162 0.47334,-0.60243 0.88593,-0.60243c0.34298,0 0.58472,0.17128 0.72646,0.51384c0.14174,0.33074 0.21262,0.84458 0.21262,1.54151c0,0.23625 -0.01772,0.45477 -0.05316,0.65558l-0.05316,-0.35437c0.23667,-0.7678 0.61509,-1.36432 1.13399,-1.78957c0.52016,-0.43705 1.09855,-0.65558 1.73642,-0.65558c0.83909,0 1.49469,0.27169 1.96676,0.81505c0.47334,0.53155 0.73278,1.26982 0.77962,2.21481z"/></g></g></svg>