<svg viewBox="0,0,480,361.2868" height="361.2868" width="480" xmlns:xlink="http://www.w3.org/1999/xlink" xmlns="http://www.w3.org/2000/svg" version="1.1"><g transform="translate(0,0.2868)"><g style="mix-blend-mode: normal" stroke-dashoffset="0" stroke-dasharray="" stroke-miterlimit="10" stroke-linejoin="miter" stroke-linecap="butt" fill-rule="nonzero" data-paper-data="{&quot;isPaintingLayer&quot;:true}"><g><path stroke-width="1" stroke="none" fill="#ececec" d="M0,-0.28254h480v361.28254h-480z"></path><path stroke-width="1.5" stroke="#dcd6d6" fill="none" d="M40.75,-0.28461l1.0452,361.28168"></path><path stroke-width="1.5" stroke="#dcd6d6" fill="none" d="M60.75,-0.28461l1.0452,361.28168"></path><path stroke-width="1.5" stroke="#dcd6d6" fill="none" d="M20.75,-0.28487l0.92797,361.28244"></path><path stroke-width="1.5" stroke="#dcd6d6" fill="none" d="M100.75,-0.28461l1.045,361.28168"></path><path stroke-width="1.5" stroke="#dcd6d6" fill="none" d="M120.75,-0.28461l1.045,361.28168"></path><path stroke-width="1.5" stroke="#dcd6d6" fill="none" d="M80.75,-0.28461l1.0452,361.28168"></path><path stroke-width="1.5" stroke="#dcd6d6" fill="none" d="M160.75,-0.28461l1.045,361.28168"></path><path stroke-width="1.5" stroke="#dcd6d6" fill="none" d="M180.75,-0.28461l1.045,361.28168"></path><path stroke-width="1.5" stroke="#dcd6d6" fill="none" d="M140.75,-0.28461l1.045,361.28168"></path><path stroke-width="1.5" stroke="#dcd6d6" fill="none" d="M220.75,-0.28461l1.045,361.28168"></path><path stroke-width="1.5" stroke="#dcd6d6" fill="none" d="M240.75,-0.28461l1.045,361.28168"></path><path stroke-width="1.5" stroke="#dcd6d6" fill="none" d="M201.795,360.99707l-1.045,-361.28168"></path><path stroke-width="1.5" stroke="#dcd6d6" fill="none" d="M280.75,-0.28461l1.045,361.28168"></path><path stroke-width="1.5" stroke="#dcd6d6" fill="none" d="M300.75,-0.28461l1.045,361.28168"></path><path stroke-width="1.5" stroke="#dcd6d6" fill="none" d="M260.75,-0.28461l1.045,361.28168"></path><path stroke-width="1.5" stroke="#dcd6d6" fill="none" d="M340.75,-0.28461l1.045,361.28168"></path><path stroke-width="1.5" stroke="#dcd6d6" fill="none" d="M360.75,-0.28461l1.045,361.28168"></path><path stroke-width="1.5" stroke="#dcd6d6" fill="none" d="M320.75,-0.28461l1.045,361.28168"></path><path stroke-width="1.5" stroke="#dcd6d6" fill="none" d="M400.75,-0.28461l1.045,361.28168"></path><path stroke-width="1.5" stroke="#dcd6d6" fill="none" d="M420.75,-0.28461l1.045,361.28168"></path><path stroke-width="1.5" stroke="#dcd6d6" fill="none" d="M380.75,-0.28461l1.045,361.28168"></path><path stroke-width="1.5" stroke="#dcd6d6" fill="none" d="M460.75,-0.28461l1.045,361.28168"></path><path stroke-width="1.5" stroke="#dcd6d6" fill="none" d="M440.75,-0.28461l1.045,361.28168"></path><path stroke-width="1.5" stroke="#dcd6d6" fill="none" d="M0,19.05642h480"></path><path stroke-width="1.5" stroke="#dcd6d6" fill="none" d="M480,39.12772l-480,0.0001"></path><path stroke-width="1.5" stroke="#dcd6d6" fill="none" d="M480,59.19892h-480"></path><path stroke-width="1.5" stroke="#dcd6d6" fill="none" d="M0,79.27031h480"></path><path stroke-width="1.5" stroke="#dcd6d6" fill="none" d="M0,99.34161h480"></path><path stroke-width="1.5" stroke="#dcd6d6" fill="none" d="M0,119.41232h480"></path><path stroke-width="1.5" stroke="#dcd6d6" fill="none" d="M0,139.484h480"></path><path stroke-width="1.5" stroke="#dcd6d6" fill="none" d="M0,159.55569l480,-0.00098"></path><path stroke-width="1.5" stroke="#dcd6d6" fill="none" d="M0,179.6264h480"></path><path stroke-width="1.5" stroke="#dcd6d6" fill="none" d="M0,199.69809h480"></path><path stroke-width="1.5" stroke="#dcd6d6" fill="none" d="M0,219.7688h480"></path><path stroke-width="1.5" stroke="#dcd6d6" fill="none" d="M0,239.84048h480"></path><path stroke-width="1.5" stroke="#dcd6d6" fill="none" d="M0,259.91119h480"></path><path stroke-width="1.5" stroke="#dcd6d6" fill="none" d="M0,279.98288h480"></path><path stroke-width="1.5" stroke="#dcd6d6" fill="none" d="M0,300.05359h480"></path><path stroke-width="1.5" stroke="#dcd6d6" fill="none" d="M0,320.12527h480"></path><path stroke-width="1.5" stroke="#dcd6d6" fill="none" d="M480,340.19598h-480"></path><g><path stroke-width="1" stroke="none" fill="#ebebeb" d="M21,340.49477v-320.27209h439v320.27209z"></path><path stroke-width="0.5" stroke="#000000" fill="none" d="M20.75,340.73888v-320.76031h439.5v320.76031z"></path></g><path stroke-width="1" stroke="none" fill="#737373" d="M442.48389,32.91464c0,-2.6954 2.13028,-4.88045 4.75811,-4.88045c2.62783,0 4.75811,2.18505 4.75811,4.88045c0,2.6954 -2.13028,4.88045 -4.75811,4.88045c-2.62783,0 -4.75811,-2.18505 -4.75811,-4.88045z"></path><path stroke-width="1" stroke="none" fill="#737373" d="M27.99999,32.91464c0,-2.6954 2.13028,-4.88045 4.75811,-4.88045c2.62783,0 4.75811,2.18505 4.75811,4.88045c0,2.6954 -2.13028,4.88045 -4.75811,4.88045c-2.62783,0 -4.75811,-2.18505 -4.75811,-4.88045z"></path><path stroke-width="1" stroke="none" fill="#737373" d="M27.99999,326.82658c0,-2.6954 2.13028,-4.88045 4.75811,-4.88045c2.62783,0 4.75811,2.18505 4.75811,4.88045c0,2.6954 -2.13028,4.88045 -4.75811,4.88045c-2.62783,0 -4.75811,-2.18505 -4.75811,-4.88045z"></path><path stroke-width="1" stroke="none" fill="#737373" d="M442.48389,326.82658c0,-2.6954 2.13028,-4.88045 4.75811,-4.88045c2.62783,0 4.75811,2.18505 4.75811,4.88045c0,2.6954 -2.13028,4.88045 -4.75811,4.88045c-2.62783,0 -4.75811,-2.18505 -4.75811,-4.88045z"></path></g><path stroke-width="1" stroke="none" fill="#010101" fill-opacity="0.2" d="M0,361v-361.28254h480v361.28254z"></path><path stroke-width="1" stroke="none" fill="#ebebeb" d="M20,344.40053v-324.17785h441v324.17785z"></path></g></g></svg>