<svg width="25" height="25" viewBox="0 0 25 25" fill="none" xmlns="http://www.w3.org/2000/svg">
<circle cx="12.5" cy="12.5" r="12" fill="#63A1C1" stroke="black"/>
<path d="M10.092 17.084C9.86 17.084 9.68 16.996 9.552 16.82C9.424 16.644 9.36 16.324 9.36 15.86C9.36 15.532 9.396 15.14 9.468 14.684C9.548 14.22 9.656 13.728 9.792 13.208C9.928 12.68 10.088 12.156 10.272 11.636C10.456 11.108 10.656 10.616 10.872 10.16C11.112 9.64 11.344 9.236 11.568 8.948C11.792 8.652 12.02 8.444 12.252 8.324C12.484 8.196 12.728 8.132 12.984 8.132C13.368 8.132 13.72 8.284 14.04 8.588C14.368 8.892 14.68 9.396 14.976 10.1C15.192 10.636 15.388 11.224 15.564 11.864C15.74 12.504 15.876 13.152 15.972 13.808C16.076 14.464 16.128 15.084 16.128 15.668C16.128 16.156 16.044 16.516 15.876 16.748C15.716 16.972 15.492 17.084 15.204 17.084C14.924 17.084 14.708 16.96 14.556 16.712C14.404 16.464 14.296 16.052 14.232 15.476C14.2 15.124 14.184 14.76 14.184 14.384C14.184 14 14.2 13.636 14.232 13.292L14.436 14.216C14.156 14.312 13.804 14.376 13.38 14.408C12.964 14.432 12.528 14.424 12.072 14.384C11.624 14.336 11.204 14.252 10.812 14.132L11.448 13.316C11.456 13.7 11.436 14.076 11.388 14.444C11.34 14.804 11.284 15.136 11.22 15.44C11.156 15.792 11.08 16.092 10.992 16.34C10.904 16.588 10.788 16.776 10.644 16.904C10.508 17.024 10.324 17.084 10.092 17.084ZM12.912 12.992C13.376 12.992 13.712 12.924 13.92 12.788C14.136 12.644 14.244 12.436 14.244 12.164C14.244 11.972 14.208 11.736 14.136 11.456C14.072 11.168 13.98 10.888 13.86 10.616C13.74 10.344 13.6 10.116 13.44 9.932C13.288 9.748 13.12 9.656 12.936 9.656C12.76 9.656 12.592 9.752 12.432 9.944C12.28 10.128 12.144 10.36 12.024 10.64C11.904 10.92 11.808 11.208 11.736 11.504C11.664 11.792 11.628 12.04 11.628 12.248C11.628 12.488 11.732 12.672 11.94 12.8C12.156 12.928 12.48 12.992 12.912 12.992Z" fill="#0A0A0A"/>
</svg>
