<svg width="114" height="42" viewBox="0 0 114 42" fill="none" xmlns="http://www.w3.org/2000/svg">
<ellipse cx="57" cy="21" rx="57" ry="21" fill="#8475E3"/>
<path d="M25.3514 26.462C25.118 26.462 24.9267 26.3967 24.7774 26.266C24.6374 26.1447 24.5674 26.0093 24.5674 25.86C24.5674 25.692 24.5907 25.566 24.6374 25.482C24.6934 25.3887 24.81 25.3233 24.9874 25.286C25.426 25.1833 25.8787 25.062 26.3454 24.922C26.8214 24.7727 27.2647 24.6187 27.6754 24.46C28.086 24.292 28.4174 24.1287 28.6694 23.97C28.9307 23.8113 29.0614 23.6713 29.0614 23.55C29.0614 23.438 28.9587 23.3307 28.7534 23.228C28.548 23.116 28.2867 22.9947 27.9694 22.864C27.652 22.7333 27.3114 22.5887 26.9474 22.43C26.5834 22.2713 26.2427 22.0893 25.9254 21.884C25.608 21.6787 25.3467 21.4453 25.1414 21.184C24.936 20.9133 24.8334 20.6053 24.8334 20.26C24.8334 19.7187 24.964 19.2147 25.2254 18.748C25.496 18.272 25.846 17.8333 26.2754 17.432C26.7047 17.0307 27.176 16.662 27.6894 16.326C28.212 15.9807 28.7254 15.6773 29.2294 15.416C29.7427 15.1453 30.2 14.9073 30.6014 14.702C30.732 14.6273 30.858 14.576 30.9794 14.548C31.1007 14.52 31.208 14.506 31.3014 14.506C31.572 14.506 31.768 14.5667 31.8894 14.688C32.0107 14.8093 32.0714 14.9493 32.0714 15.108C32.0714 15.2387 32.0014 15.3927 31.8614 15.57C31.7214 15.738 31.5207 15.8873 31.2594 16.018C30.998 16.1487 30.6854 16.214 30.3214 16.214H30.2094C29.892 16.382 29.5467 16.5827 29.1734 16.816C28.8 17.0493 28.4314 17.306 28.0674 17.586C27.7034 17.866 27.3674 18.1553 27.0594 18.454C26.7607 18.7433 26.518 19.0233 26.3314 19.294C26.154 19.5647 26.0654 19.812 26.0654 20.036C26.0654 20.3067 26.168 20.5493 26.3734 20.764C26.5787 20.9787 26.84 21.17 27.1574 21.338C27.484 21.506 27.8247 21.6693 28.1794 21.828C28.5434 21.9867 28.884 22.15 29.2014 22.318C29.528 22.4767 29.794 22.654 29.9994 22.85C30.2047 23.0367 30.3074 23.256 30.3074 23.508C30.3074 23.7973 30.2047 24.0727 29.9994 24.334C29.8034 24.5953 29.542 24.838 29.2154 25.062C28.8887 25.2767 28.5294 25.4727 28.1374 25.65C27.7547 25.818 27.3767 25.9627 27.0034 26.084C26.63 26.2053 26.294 26.2987 25.9954 26.364C25.706 26.4293 25.4914 26.462 25.3514 26.462ZM34.7652 26.14C34.2145 26.14 33.7805 25.93 33.4632 25.51C33.1458 25.09 32.9872 24.544 32.9872 23.872C32.9872 23.6293 33.0198 23.3727 33.0852 23.102C33.1598 22.822 33.2532 22.57 33.3652 22.346C33.2998 22.2807 33.2485 22.192 33.2112 22.08C33.1738 21.9587 33.1552 21.8093 33.1552 21.632C33.1552 21.0813 33.2485 20.5773 33.4352 20.12C33.6218 19.6627 33.8692 19.266 34.1772 18.93C34.4852 18.5847 34.8258 18.3187 35.1992 18.132C35.5818 17.9453 35.9692 17.852 36.3612 17.852C37.0052 17.852 37.5278 18.0853 37.9292 18.552C38.3305 19.0093 38.5312 19.7093 38.5312 20.652C38.5312 21.1467 38.4565 21.6507 38.3072 22.164C38.1672 22.6773 37.9712 23.172 37.7192 23.648C37.4765 24.124 37.1918 24.5487 36.8652 24.922C36.5478 25.2953 36.2072 25.594 35.8432 25.818C35.4885 26.0327 35.1292 26.14 34.7652 26.14ZM34.2892 21.87C34.3452 21.9447 34.3732 22.0427 34.3732 22.164C34.3732 22.304 34.3452 22.444 34.2892 22.584C34.2425 22.724 34.1912 22.9153 34.1352 23.158C34.0792 23.4007 34.0512 23.746 34.0512 24.194C34.0512 24.642 34.2285 24.866 34.5832 24.866C34.9752 24.866 35.3392 24.712 35.6752 24.404C36.0112 24.0867 36.3098 23.6807 36.5712 23.186C36.8325 22.6913 37.0332 22.164 37.1732 21.604C37.3225 21.0347 37.3972 20.498 37.3972 19.994C37.3972 19.6673 37.3365 19.4387 37.2152 19.308C37.0938 19.168 36.8745 19.098 36.5572 19.098C36.2305 19.098 35.8898 19.21 35.5352 19.434C35.1898 19.6487 34.9005 19.9427 34.6672 20.316C34.4338 20.6893 34.3172 21.1093 34.3172 21.576C34.3172 21.6787 34.3078 21.7767 34.2892 21.87ZM44.5238 26.336C44.3652 26.336 44.2298 26.266 44.1178 26.126C44.0058 25.986 43.9498 25.7807 43.9498 25.51C43.9498 25.1927 43.9965 24.74 44.0898 24.152C44.1925 23.564 44.3418 22.7847 44.5378 21.814C44.2858 22.4113 44.0058 22.976 43.6978 23.508C43.3992 24.04 43.0818 24.474 42.7458 24.81C42.4098 25.146 42.0645 25.314 41.7098 25.314C41.3645 25.314 41.0565 25.1787 40.7858 24.908C40.5245 24.6373 40.3938 24.1613 40.3938 23.48C40.3938 23.0973 40.4265 22.668 40.4918 22.192C40.5572 21.7067 40.6412 21.226 40.7438 20.75C40.8465 20.274 40.9492 19.8493 41.0518 19.476C41.1545 19.0933 41.2478 18.8133 41.3318 18.636C41.3972 18.4867 41.4625 18.3887 41.5278 18.342C41.5932 18.286 41.6818 18.258 41.7938 18.258C41.9245 18.258 42.0645 18.314 42.2138 18.426C42.3632 18.538 42.4378 18.7247 42.4378 18.986C42.4378 19.0513 42.4052 19.2053 42.3398 19.448C42.2838 19.6813 42.2092 19.9707 42.1158 20.316C42.0318 20.652 41.9432 21.016 41.8498 21.408C41.7565 21.8 41.6772 22.192 41.6118 22.584C41.5558 22.976 41.5278 23.3353 41.5278 23.662C41.5278 23.8393 41.5465 23.984 41.5838 24.096C41.6212 24.208 41.7145 24.264 41.8638 24.264C41.9945 24.264 42.1578 24.1333 42.3538 23.872C42.5592 23.6107 42.7785 23.2653 43.0118 22.836C43.2545 22.3973 43.5018 21.912 43.7538 21.38C44.0152 20.848 44.2672 20.302 44.5098 19.742C44.7618 19.182 44.9905 18.65 45.1958 18.146C45.2705 17.978 45.3498 17.8753 45.4338 17.838C45.5178 17.7913 45.6112 17.768 45.7138 17.768C45.8818 17.768 46.0312 17.838 46.1618 17.978C46.3018 18.1087 46.3718 18.2813 46.3718 18.496C46.3718 18.636 46.3438 18.8787 46.2878 19.224C46.2412 19.5693 46.1712 19.9753 46.0778 20.442C45.9938 20.8993 45.8958 21.3847 45.7838 21.898C45.6812 22.4113 45.5785 22.92 45.4758 23.424C45.3732 23.9187 45.2752 24.3713 45.1818 24.782C45.0978 25.1927 45.0278 25.524 44.9718 25.776C44.9252 26.0093 44.8598 26.1587 44.7758 26.224C44.7012 26.2987 44.6172 26.336 44.5238 26.336ZM49.254 25.678C48.9833 25.678 48.7406 25.524 48.526 25.216C48.3113 24.908 48.204 24.5113 48.204 24.026C48.204 23.494 48.274 22.9247 48.414 22.318C48.5633 21.7113 48.7453 21.0953 48.96 20.47C49.1746 19.8353 49.3846 19.224 49.59 18.636C49.6366 18.5147 49.702 18.426 49.786 18.37C49.8793 18.3047 50.0193 18.272 50.206 18.272C50.542 18.272 50.71 18.4353 50.71 18.762C50.71 18.8367 50.6726 19.0047 50.598 19.266C50.5233 19.5273 50.4253 19.8493 50.304 20.232C50.192 20.6147 50.0753 21.03 49.954 21.478C49.8326 21.9167 49.7253 22.36 49.632 22.808C49.5386 23.256 49.4733 23.6713 49.436 24.054C49.5853 23.8953 49.7533 23.6527 49.94 23.326C50.136 22.9993 50.346 22.6307 50.57 22.22C50.794 21.8 51.0273 21.38 51.27 20.96C51.5126 20.5307 51.7553 20.1387 51.998 19.784C52.25 19.42 52.4926 19.1307 52.726 18.916C52.9686 18.692 53.1926 18.58 53.398 18.58C53.6966 18.58 53.9486 18.6733 54.154 18.86C54.3686 19.0373 54.532 19.3547 54.644 19.812C54.7653 20.26 54.826 20.8947 54.826 21.716C54.826 22.1547 54.868 22.5653 54.952 22.948C55.0453 23.3307 55.19 23.6387 55.386 23.872C55.5913 24.096 55.8526 24.208 56.17 24.208C56.646 24.208 57.0706 24.124 57.444 23.956C57.8173 23.7787 58.1393 23.5827 58.41 23.368C58.69 23.144 58.9233 22.948 59.11 22.78C59.2966 22.6027 59.4413 22.514 59.544 22.514C59.7586 22.514 59.866 22.626 59.866 22.85C59.866 22.9433 59.796 23.0927 59.656 23.298C59.5253 23.494 59.3386 23.718 59.096 23.97C58.8626 24.2127 58.592 24.4507 58.284 24.684C57.9853 24.908 57.6633 25.0947 57.318 25.244C56.982 25.3933 56.6413 25.468 56.296 25.468C55.652 25.468 55.1246 25.342 54.714 25.09C54.3126 24.838 54.014 24.4227 53.818 23.844C53.6313 23.2653 53.538 22.4907 53.538 21.52C53.538 20.988 53.5053 20.6007 53.44 20.358C53.384 20.106 53.2766 19.938 53.118 19.854C53.006 20.05 52.8613 20.33 52.684 20.694C52.5066 21.0487 52.3013 21.4453 52.068 21.884C51.844 22.3227 51.606 22.766 51.354 23.214C51.1113 23.6527 50.864 24.0587 50.612 24.432C50.36 24.8053 50.1173 25.1087 49.884 25.342C49.6506 25.566 49.4406 25.678 49.254 25.678ZM64.3564 18.958C64.6084 18.3513 64.8464 17.726 65.0704 17.082C65.3037 16.438 65.5137 15.78 65.7004 15.108C65.7564 14.9213 65.8404 14.772 65.9524 14.66C66.0737 14.5387 66.2137 14.478 66.3724 14.478C66.4844 14.478 66.5777 14.52 66.6524 14.604C66.7364 14.688 66.7784 14.8 66.7784 14.94C66.7784 15.1173 66.7084 15.4253 66.5684 15.864C66.4377 16.3027 66.2697 16.858 66.0644 17.53C65.8684 18.202 65.6677 18.9767 65.4624 19.854C65.2664 20.722 65.0984 21.6833 64.9584 22.738C64.8277 23.7927 64.7624 24.9173 64.7624 26.112C64.7624 26.3733 64.7064 26.588 64.5944 26.756C64.4824 26.9333 64.347 27.022 64.1884 27.022C64.095 27.022 64.0064 26.9987 63.9224 26.952C63.8384 26.9053 63.7637 26.7933 63.6984 26.616C63.6424 26.448 63.5957 26.182 63.5584 25.818C63.521 25.4447 63.5024 24.9407 63.5024 24.306C63.5024 23.8207 63.5304 23.2933 63.5864 22.724C63.157 23.4987 62.6904 24.1753 62.1864 24.754C61.6917 25.3233 61.211 25.762 60.7444 26.07C60.287 26.378 59.895 26.532 59.5684 26.532C59.167 26.532 58.8404 26.3967 58.5884 26.126C58.3457 25.8647 58.2244 25.4727 58.2244 24.95C58.2244 24.4927 58.3317 24.0213 58.5464 23.536C58.761 23.0507 59.0457 22.5747 59.4004 22.108C59.755 21.632 60.147 21.184 60.5764 20.764C61.0057 20.344 61.435 19.9753 61.8644 19.658C62.303 19.3313 62.709 19.0793 63.0824 18.902C63.4557 18.7153 63.759 18.622 63.9924 18.622C64.0857 18.622 64.1697 18.6547 64.2444 18.72C64.319 18.7853 64.3564 18.8647 64.3564 18.958ZM64.1744 19.392C64.109 19.4573 64.0297 19.5227 63.9364 19.588C63.843 19.6533 63.7404 19.7233 63.6284 19.798C63.2177 20.0873 62.765 20.4233 62.2704 20.806C61.785 21.1793 61.3184 21.59 60.8704 22.038C60.4317 22.4767 60.0724 22.9387 59.7924 23.424C59.5124 23.9093 59.3724 24.4087 59.3724 24.922C59.3724 25.146 59.4844 25.258 59.7084 25.258C60.0164 25.258 60.3524 25.1133 60.7164 24.824C61.0897 24.5253 61.4724 24.1147 61.8644 23.592C62.2564 23.06 62.6484 22.4393 63.0404 21.73C63.4324 21.0113 63.8104 20.232 64.1744 19.392ZM70.1022 20.554C69.7008 20.554 69.4162 20.4793 69.2482 20.33C69.0802 20.1807 68.9962 19.9753 68.9962 19.714C68.9962 19.4153 69.0615 19.1773 69.1922 19C69.3228 18.8227 69.4815 18.692 69.6682 18.608C69.8548 18.524 70.0368 18.482 70.2142 18.482C70.4568 18.482 70.6808 18.5567 70.8862 18.706C71.0915 18.846 71.1942 19.126 71.1942 19.546C71.1942 19.8447 71.1008 20.0873 70.9142 20.274C70.7275 20.4607 70.4568 20.554 70.1022 20.554ZM68.7862 26.434C68.5528 26.434 68.3428 26.3313 68.1562 26.126C67.9788 25.93 67.8902 25.692 67.8902 25.412C67.8902 25.188 67.9555 25.006 68.0862 24.866C68.2168 24.726 68.3755 24.6233 68.5622 24.558C68.7488 24.4833 68.9262 24.446 69.0942 24.446C69.3088 24.446 69.5095 24.5067 69.6962 24.628C69.8828 24.7493 69.9762 24.9687 69.9762 25.286C69.9762 25.4727 69.9202 25.6547 69.8082 25.832C69.7055 26.0093 69.5608 26.154 69.3742 26.266C69.1968 26.378 69.0008 26.434 68.7862 26.434ZM77.4723 26.252C76.8003 26.252 76.2076 26.0653 75.6943 25.692C75.1903 25.3187 74.7936 24.8053 74.5043 24.152C74.2243 23.4987 74.0843 22.752 74.0843 21.912C74.0843 21.4733 74.1496 21.044 74.2803 20.624C74.4203 20.1947 74.5929 19.7933 74.7983 19.42C75.0036 19.0373 75.2136 18.6967 75.4283 18.398C75.3536 18.286 75.3163 18.1133 75.3163 17.88C75.3163 17.6467 75.4143 17.3853 75.6103 17.096C75.8063 16.8067 76.0769 16.5267 76.4223 16.256C76.7676 15.9853 77.1689 15.7613 77.6263 15.584C78.0836 15.4067 78.5689 15.318 79.0823 15.318C79.9316 15.318 80.6503 15.5 81.2383 15.864C81.8263 16.228 82.2696 16.7087 82.5683 17.306C82.8763 17.894 83.0303 18.538 83.0303 19.238C83.0303 20.246 82.8716 21.1747 82.5543 22.024C82.2369 22.8733 81.8076 23.6153 81.2663 24.25C80.7343 24.8847 80.1369 25.3793 79.4743 25.734C78.8209 26.0793 78.1536 26.252 77.4723 26.252ZM77.2623 17.25C77.2996 17.2967 77.3183 17.3433 77.3183 17.39C77.3183 17.4553 77.2949 17.5207 77.2483 17.586C77.2109 17.6513 77.1643 17.726 77.1083 17.81C76.9309 18.034 76.7396 18.328 76.5343 18.692C76.3383 19.056 76.1516 19.4573 75.9743 19.896C75.8063 20.3347 75.6663 20.7873 75.5543 21.254C75.4423 21.7113 75.3863 22.15 75.3863 22.57C75.3863 23.2887 75.5496 23.872 75.8763 24.32C76.2029 24.7587 76.6883 24.978 77.3323 24.978C77.8176 24.978 78.2796 24.8613 78.7183 24.628C79.1663 24.3947 79.5723 24.082 79.9363 23.69C80.3096 23.2887 80.6316 22.8453 80.9023 22.36C81.1729 21.8653 81.3829 21.3567 81.5323 20.834C81.6816 20.3113 81.7563 19.812 81.7563 19.336C81.7563 18.8413 81.6583 18.3793 81.4623 17.95C81.2663 17.5207 80.9816 17.1753 80.6083 16.914C80.2349 16.6527 79.7823 16.522 79.2503 16.522C78.8023 16.522 78.4149 16.5967 78.0883 16.746C77.7709 16.886 77.4956 17.054 77.2623 17.25ZM86.4746 27.204C86.2693 27.204 86.1106 27.1433 85.9986 27.022C85.8959 26.9007 85.8446 26.6953 85.8446 26.406C85.8446 26.2287 85.8586 25.9767 85.8866 25.65C85.9146 25.314 85.9519 24.9407 85.9986 24.53C86.0546 24.11 86.1106 23.6807 86.1666 23.242C86.2319 22.8033 86.2926 22.3927 86.3486 22.01C86.2179 22.01 86.0966 22.01 85.9846 22.01C85.9379 22.01 85.8959 22.01 85.8586 22.01C85.5879 22.2247 85.2426 22.332 84.8226 22.332C84.6453 22.332 84.5053 22.2807 84.4026 22.178C84.2999 22.066 84.2486 21.9213 84.2486 21.744C84.2486 21.5573 84.3186 21.3987 84.4586 21.268C84.5893 21.1373 84.8133 21.0673 85.1306 21.058C85.5599 21.0393 86.0173 21.002 86.5026 20.946C86.5493 20.6567 86.5866 20.4513 86.6146 20.33C86.9599 18.7433 87.3986 17.4787 87.9306 16.536C88.4719 15.584 89.0879 14.898 89.7786 14.478C90.4786 14.0487 91.2346 13.834 92.0466 13.834C92.2613 13.834 92.4059 13.8667 92.4806 13.932C92.5553 13.9973 92.5926 14.0907 92.5926 14.212C92.5926 14.3613 92.5413 14.5153 92.4386 14.674C92.3453 14.8327 92.1539 14.94 91.8646 14.996C91.1646 15.1173 90.5486 15.3647 90.0166 15.738C89.4846 16.1113 89.0319 16.6667 88.6586 17.404C88.2946 18.132 87.9959 19.1073 87.7626 20.33C87.7346 20.4793 87.7066 20.638 87.6786 20.806C88.3413 20.7127 89.0133 20.6053 89.6946 20.484C90.3853 20.3627 91.0666 20.2367 91.7386 20.106C92.0186 18.846 92.3546 17.7773 92.7466 16.9C93.1386 16.0227 93.5633 15.318 94.0206 14.786C94.4873 14.254 94.9633 13.8667 95.4486 13.624C95.9433 13.3813 96.4286 13.26 96.9046 13.26C97.1286 13.26 97.3059 13.3113 97.4366 13.414C97.5673 13.5073 97.6326 13.624 97.6326 13.764C97.6326 13.9133 97.5906 14.0347 97.5066 14.128C97.4226 14.212 97.2733 14.2773 97.0586 14.324C96.4706 14.436 95.9199 14.688 95.4066 15.08C94.8933 15.4627 94.4359 16.0413 94.0346 16.816C93.6333 17.5813 93.2973 18.5893 93.0266 19.84C93.8573 19.6533 94.6366 19.476 95.3646 19.308C96.1019 19.1307 96.7599 18.972 97.3386 18.832C97.9173 18.6827 98.3839 18.566 98.7386 18.482C99.1026 18.398 99.3219 18.356 99.3966 18.356C99.4713 18.356 99.5366 18.3793 99.5926 18.426C99.6486 18.4727 99.6766 18.58 99.6766 18.748C99.6766 18.916 99.4853 19.098 99.1026 19.294C98.7199 19.49 98.2019 19.6953 97.5486 19.91C96.9046 20.1153 96.1719 20.3207 95.3506 20.526C94.5293 20.7313 93.6799 20.9227 92.8026 21.1C92.7279 21.5667 92.6533 22.08 92.5786 22.64C92.5039 23.1907 92.4339 23.7507 92.3686 24.32C92.3033 24.8893 92.2426 25.4353 92.1866 25.958C92.1399 26.4713 92.1026 26.924 92.0746 27.316C92.0466 27.7173 92.0326 28.016 92.0326 28.212C92.0326 28.4267 91.9626 28.5993 91.8226 28.73C91.6919 28.87 91.5239 28.94 91.3186 28.94C91.1879 28.94 91.0619 28.884 90.9406 28.772C90.8286 28.6693 90.7726 28.4827 90.7726 28.212C90.7726 28.1093 90.7866 27.8807 90.8146 27.526C90.8426 27.1807 90.8799 26.7513 90.9266 26.238C90.9826 25.734 91.0433 25.1927 91.1086 24.614C91.1739 24.0353 91.2393 23.4613 91.3046 22.892C91.3793 22.3227 91.4539 21.8047 91.5286 21.338C90.8006 21.478 90.0913 21.5993 89.4006 21.702C88.7099 21.7953 88.0753 21.87 87.4966 21.926C87.4033 22.5607 87.3146 23.214 87.2306 23.886C87.1466 24.5487 87.0766 25.1833 87.0206 25.79C87.0206 25.79 87.0253 25.79 87.0346 25.79C87.1373 25.79 87.2306 25.8273 87.3146 25.902C87.3986 25.9673 87.4406 26.07 87.4406 26.21C87.4406 26.434 87.3473 26.6533 87.1606 26.868C86.9739 27.092 86.7453 27.204 86.4746 27.204Z" fill="black"/>
</svg>
