<svg version="1.1" xmlns="http://www.w3.org/2000/svg" xmlns:xlink="http://www.w3.org/1999/xlink" width="29.5991" height="29.21801" viewBox="0,0,29.5991,29.21801"><g transform="translate(-225.20045,-165.39099)"><g data-paper-data="{&quot;isPaintingLayer&quot;:true}" fill-rule="nonzero" stroke-linecap="butt" stroke-linejoin="miter" stroke-miterlimit="10" stroke-dasharray="" stroke-dashoffset="0" style="mix-blend-mode: normal"><path d="M225.95045,193.85901v-27.71801h28.0991v27.71801z" fill="#f4f4f4" stroke="#000000" stroke-width="1.5"/><path d="M239.55635,180.0983c0,-0.21714 0.17656,-0.39316 0.39436,-0.39316c0.21781,0 0.39437,0.17602 0.39437,0.39316c0,0.21714 -0.17657,0.39316 -0.39437,0.39316c-0.21781,0 -0.39436,-0.17603 -0.39436,-0.39316z" fill="#252525" stroke="none" stroke-width="1"/><path d="M246.90076,167.91142v-0.43759h0.7647v2.00906h-0.49139v-1.57147z" fill="#000000" stroke="none" stroke-width="1"/><path d="M251.10103,174.51183c0.06261,-0.04954 0.0911,-0.07247 0.08558,-0.0688c0.18033,-0.14861 0.3221,-0.27062 0.42513,-0.36604c0.10491,-0.09541 0.19324,-0.1954 0.26503,-0.29998c0.07178,-0.10458 0.10766,-0.20641 0.10766,-0.30549c0,-0.07521 -0.01744,-0.13394 -0.05245,-0.17615c-0.035,-0.04219 -0.08745,-0.06329 -0.15736,-0.06329c-0.06989,0 -0.12512,0.0266 -0.16564,0.07982c-0.03865,0.05138 -0.05797,0.12476 -0.05797,0.22018h-0.45551c0.00365,-0.15595 0.03677,-0.28622 0.09938,-0.39081c0.06438,-0.10458 0.14818,-0.18164 0.25122,-0.23118c0.10491,-0.04954 0.22085,-0.07431 0.34784,-0.07431c0.21897,0 0.38372,0.05596 0.49415,0.16788c0.1123,0.11192 0.1684,0.25779 0.1684,0.43759c0,0.19632 -0.06714,0.37888 -0.20152,0.54769c-0.13439,0.16697 -0.30555,0.33025 -0.51347,0.48988h0.74536v0.38255h-1.38582z" fill="#000000" stroke="none" stroke-width="1"/><path d="M251.08693,179.34421c0.0074,-0.19629 0.07178,-0.34765 0.19324,-0.4541c0.12146,-0.10645 0.28621,-0.15962 0.49415,-0.15962c0.13803,0 0.25585,0.02388 0.35335,0.07156c0.09938,0.04767 0.17391,0.11284 0.22361,0.19539c0.05156,0.08256 0.07729,0.17525 0.07729,0.27796c0,0.12109 -0.03037,0.22018 -0.0911,0.29723c-0.06074,0.07519 -0.13152,0.1266 -0.21257,0.15412v0.011c0.10491,0.03489 0.18772,0.09269 0.24845,0.17338c0.06074,0.0807 0.0911,0.1844 0.0911,0.31099c0,0.11372 -0.02662,0.21466 -0.08006,0.30274c-0.05147,0.0862 -0.12788,0.15412 -0.22914,0.20366c-0.09938,0.04954 -0.21809,0.07431 -0.35612,0.07431c-0.22085,0 -0.39753,-0.05415 -0.53004,-0.16237c-0.13064,-0.10822 -0.19965,-0.27158 -0.20704,-0.48988h0.45826c0.00187,0.0807 0.02484,0.14498 0.06901,0.19265c0.04417,0.0459 0.10865,0.0688 0.19324,0.0688c0.07178,0 0.12699,-0.02015 0.16564,-0.06055c0.04052,-0.04216 0.06073,-0.09721 0.06073,-0.16513c0,-0.08807 -0.02849,-0.15137 -0.08558,-0.1899c-0.05521,-0.0404 -0.14443,-0.06055 -0.26777,-0.06055h-0.08833v-0.38254h0.08833c0.09387,0 0.16938,-0.01563 0.22636,-0.04678c0.05896,-0.03302 0.08834,-0.09082 0.08834,-0.17338c0,-0.06605 -0.01834,-0.11746 -0.05521,-0.15412c-0.03677,-0.03666 -0.08735,-0.05504 -0.15183,-0.05504c-0.06989,0 -0.12235,0.02113 -0.15736,0.0633c-0.03312,0.04216 -0.05245,0.09446 -0.05797,0.15688z" fill="#000000" stroke="none" stroke-width="1"/><path d="M250.98301,186.326v-0.3798l0.87235,-1.24396h0.52728v1.21645h0.22637v0.40731h-0.22637v0.35778h-0.47206v-0.35778zM251.94371,185.21964l-0.46378,0.69905h0.46378z" fill="#000000" stroke="none" stroke-width="1"/><path d="M247.9907,190.98223h-0.86132v0.3798c0.03677,-0.0404 0.08834,-0.07343 0.1546,-0.09908c0.06625,-0.02565 0.13803,-0.03853 0.21532,-0.03853c0.13803,0 0.25211,0.03116 0.34232,0.09358c0.09199,0.06242 0.15912,0.14312 0.20152,0.24219c0.0423,0.09908 0.0635,0.20641 0.0635,0.322c0,0.21466 -0.06074,0.38529 -0.1822,0.51189c-0.12146,0.12474 -0.29263,0.18715 -0.51347,0.18715c-0.1473,0 -0.27517,-0.02476 -0.38372,-0.07431c-0.10865,-0.0514 -0.19235,-0.12197 -0.25122,-0.21191c-0.05896,-0.08994 -0.0911,-0.19353 -0.09662,-0.31098h0.46102c0.01105,0.05691 0.03766,0.10458 0.08006,0.14312c0.0423,0.03666 0.10027,0.05504 0.17391,0.05504c0.08647,0 0.15085,-0.02753 0.19324,-0.08256c0.0423,-0.05504 0.0635,-0.12846 0.0635,-0.22017c0,-0.08994 -0.02209,-0.15874 -0.06626,-0.20641c-0.04417,-0.04767 -0.10865,-0.07156 -0.19324,-0.07156c-0.06261,0 -0.11417,0.01563 -0.15459,0.04678c-0.04052,0.02939 -0.06724,0.0688 -0.08006,0.11834h-0.45551v-1.19718h1.28921z" fill="#000000" stroke="none" stroke-width="1"/><path d="M240.19266,191.11433c-0.01469,-0.06792 -0.04052,-0.11835 -0.07729,-0.15137c-0.03677,-0.03489 -0.08923,-0.05229 -0.15736,-0.05229c-0.10491,0 -0.18033,0.0459 -0.22636,0.13761c-0.04604,0.08994 -0.0699,0.23304 -0.07178,0.42934c0.04052,-0.06419 0.0985,-0.1147 0.17392,-0.15136c0.07729,-0.03666 0.16198,-0.05504 0.25397,-0.05504c0.18033,0 0.32487,0.05691 0.43342,0.17063c0.11042,0.11372 0.16564,0.27246 0.16564,0.47612c0,0.13397 -0.02761,0.25133 -0.08282,0.35227c-0.05334,0.10095 -0.13251,0.17977 -0.23741,0.23669c-0.10303,0.05691 -0.22548,0.08532 -0.36716,0.08532c-0.28346,0 -0.48034,-0.08807 -0.59077,-0.2642c-0.11042,-0.17801 -0.16564,-0.43297 -0.16564,-0.76509c0,-0.34864 0.05797,-0.60734 0.17391,-0.77611c0.11782,-0.17063 0.30554,-0.25595 0.56316,-0.25595c0.13803,0 0.25398,0.02753 0.34784,0.08256c0.09573,0.05318 0.1675,0.12385 0.21532,0.21191c0.0497,0.08807 0.07918,0.18439 0.08834,0.28897zM239.97457,191.64274c-0.07917,0 -0.14542,0.02388 -0.19877,0.07156c-0.05156,0.0459 -0.07729,0.11196 -0.07729,0.19816c0,0.08807 0.02395,0.15687 0.07178,0.20641c0.0497,0.04954 0.1196,0.07431 0.20981,0.07431c0.08094,0 0.14443,-0.02388 0.19049,-0.07156c0.04782,-0.04954 0.07178,-0.11647 0.07178,-0.2009c0,-0.0862 -0.02297,-0.15412 -0.06901,-0.20366c-0.04604,-0.04954 -0.11231,-0.07431 -0.19877,-0.07431z" fill="#000000" stroke="none" stroke-width="1"/><path d="M233.2282,190.92443l-0.69292,1.65679h-0.4831l0.7012,-1.6045h-0.85855v-0.40181h1.33337z" fill="#000000" stroke="none" stroke-width="1"/><path d="M228.17293,185.60493c-0.173,-0.09171 -0.25949,-0.23579 -0.25949,-0.43209c0,-0.09908 0.02577,-0.18901 0.07729,-0.26971c0.05152,-0.08256 0.12974,-0.14773 0.23465,-0.1954c0.10491,-0.04954 0.23373,-0.07431 0.38648,-0.07431c0.15275,0 0.28066,0.02476 0.38373,0.07431c0.10491,0.04767 0.18312,0.11284 0.23465,0.1954c0.05152,0.0807 0.07729,0.17063 0.07729,0.26971c0,0.09908 -0.02394,0.18528 -0.07178,0.25869c-0.04602,0.07342 -0.10858,0.13122 -0.18772,0.17338c0.09938,0.04767 0.17575,0.11372 0.22913,0.19816c0.05337,0.08256 0.08006,0.17977 0.08006,0.29173c0,0.13023 -0.03313,0.24307 -0.09938,0.33851c-0.06625,0.09358 -0.15643,0.16513 -0.27054,0.21467c-0.11227,0.04954 -0.23741,0.07431 -0.37544,0.07431c-0.13803,0 -0.26411,-0.02476 -0.37821,-0.07431c-0.11227,-0.04954 -0.20153,-0.12109 -0.26777,-0.21467c-0.06625,-0.09544 -0.09938,-0.20828 -0.09938,-0.33851c0,-0.11372 0.02668,-0.21191 0.08007,-0.29449c0.05337,-0.08443 0.12883,-0.1495 0.22636,-0.1954zM228.84929,185.24441c0,-0.07519 -0.02208,-0.13299 -0.06625,-0.17338c-0.04233,-0.04216 -0.09938,-0.0633 -0.17116,-0.0633c-0.07178,0 -0.12975,0.02113 -0.17391,0.0633c-0.04233,0.04216 -0.0635,0.10095 -0.0635,0.17614c0,0.07156 0.02209,0.12846 0.06625,0.17064c0.04417,0.0404 0.10121,0.06055 0.17116,0.06055c0.06994,0 0.12699,-0.02113 0.17116,-0.06329c0.04417,-0.04216 0.06625,-0.09907 0.06625,-0.17063zM228.61188,185.80859c-0.08651,0 -0.15643,0.02388 -0.20981,0.07156c-0.05337,0.0459 -0.08006,0.11008 -0.08006,0.19265c0,0.07705 0.02577,0.14036 0.07729,0.1899c0.05337,0.04954 0.12423,0.07431 0.21257,0.07431c0.08833,0 0.15735,-0.02476 0.20704,-0.07431c0.05152,-0.04954 0.0773,-0.11284 0.0773,-0.1899c0,-0.0807 -0.02669,-0.14498 -0.08006,-0.19265c-0.05154,-0.04767 -0.11963,-0.07156 -0.20428,-0.07156z" fill="#000000" stroke="none" stroke-width="1"/><path d="M228.39544,180.19737c0.02761,0.14498 0.11227,0.21742 0.25398,0.21742c0.09755,0 0.16657,-0.04315 0.20704,-0.12935c0.04049,-0.0862 0.06074,-0.22656 0.06074,-0.42108c-0.04048,0.05691 -0.0957,0.10095 -0.16564,0.1321c-0.06994,0.03116 -0.14815,0.04678 -0.23465,0.04678c-0.11779,0 -0.22269,-0.02388 -0.31471,-0.07156c-0.09202,-0.04954 -0.16471,-0.12198 -0.21809,-0.21742c-0.05152,-0.09721 -0.07729,-0.21466 -0.07729,-0.35227c0,-0.13574 0.02761,-0.25408 0.08282,-0.35503c0.05706,-0.10095 0.13712,-0.17889 0.24017,-0.23393c0.10491,-0.05504 0.22821,-0.08257 0.36993,-0.08257c0.27238,0 0.46286,0.08443 0.57145,0.2532c0.10859,0.16877 0.16288,0.41745 0.16288,0.74583c0,0.23855 -0.02209,0.43572 -0.06625,0.59171c-0.04232,0.15412 -0.11501,0.27158 -0.21809,0.35227c-0.10121,0.0807 -0.24017,0.12109 -0.41685,0.12109c-0.13986,0 -0.2595,-0.02753 -0.35888,-0.08256c-0.09754,-0.05504 -0.17299,-0.12748 -0.22636,-0.21742c-0.05152,-0.08994 -0.08098,-0.18901 -0.08833,-0.29723zM228.62457,179.67172c0.07729,0 0.13897,-0.0229 0.18496,-0.0688c0.04602,-0.04767 0.06901,-0.11195 0.06901,-0.19265c0,-0.08807 -0.02391,-0.15599 -0.07178,-0.20366c-0.04785,-0.04767 -0.11226,-0.07156 -0.19324,-0.07156c-0.08097,0 -0.14539,0.02476 -0.19324,0.07431c-0.046,0.04767 -0.06901,0.11372 -0.06901,0.19816c0,0.07893 0.02302,0.14312 0.06901,0.19265c0.04786,0.04767 0.11594,0.07156 0.20428,0.07156z" fill="#000000" stroke="none" stroke-width="1"/><path d="M227.56339,173.31741v-0.43759h0.76469v2.00906h-0.49139v-1.57147zM228.65101,173.85682c0,-0.31559 0.06074,-0.56418 0.18219,-0.74583c0.1233,-0.18164 0.32115,-0.27247 0.59354,-0.27247c0.27237,0 0.4693,0.09083 0.59077,0.27247c0.1233,0.18164 0.18496,0.43025 0.18496,0.74583c0,0.31925 -0.06166,0.56969 -0.18496,0.75134c-0.12146,0.18164 -0.31839,0.27246 -0.59077,0.27246c-0.27238,0 -0.47023,-0.09082 -0.59354,-0.27246c-0.12146,-0.18164 -0.18219,-0.43209 -0.18219,-0.75134zM229.7387,173.85682c0,-0.18531 -0.02024,-0.3275 -0.06074,-0.42658c-0.04049,-0.10092 -0.12423,-0.15137 -0.25122,-0.15137c-0.12699,0 -0.21073,0.05045 -0.25122,0.15137c-0.04049,0.09908 -0.06074,0.24127 -0.06074,0.42658c0,0.12476 0.00735,0.22843 0.02208,0.31098c0.01472,0.08072 0.04417,0.14677 0.08834,0.19816c0.046,0.04954 0.11319,0.07431 0.20153,0.07431c0.08833,0 0.15459,-0.02477 0.19877,-0.07431c0.046,-0.05138 0.07637,-0.11743 0.0911,-0.19816c0.01472,-0.08256 0.02209,-0.18623 0.02209,-0.31098z" fill="#000000" stroke="none" stroke-width="1" opacity="0.8"/><path d="M231.59283,167.91142v-0.43759h0.76469v2.00906h-0.49139v-1.57147zM232.63074,167.91142v-0.43759h0.76469v2.00906h-0.49138v-1.57147z" fill="#000000" stroke="none" stroke-width="1"/><path d="M238.91489,167.91142v-0.43759h0.7647v2.00906h-0.49138v-1.57147zM239.98601,169.10584c0.06252,-0.04954 0.0911,-0.07247 0.08558,-0.0688c0.18033,-0.14861 0.322,-0.27063 0.42513,-0.36604c0.10491,-0.09541 0.19324,-0.19539 0.26503,-0.29998c0.07178,-0.10458 0.10766,-0.20641 0.10766,-0.30549c0,-0.07521 -0.01755,-0.13394 -0.05246,-0.17615c-0.035,-0.04219 -0.08745,-0.06329 -0.15736,-0.06329c-0.07,0 -0.12522,0.0266 -0.16564,0.07982c-0.03865,0.05138 -0.05797,0.12476 -0.05797,0.22017h-0.4555c0.00364,-0.15595 0.03677,-0.28622 0.09938,-0.3908c0.06438,-0.10458 0.14809,-0.18164 0.25122,-0.23118c0.10491,-0.04954 0.22085,-0.07431 0.34784,-0.07431c0.21897,0 0.38373,0.05596 0.49416,0.16788c0.1122,0.11192 0.1684,0.25779 0.1684,0.43759c0,0.19632 -0.06724,0.37888 -0.20152,0.54769c-0.13439,0.16697 -0.30554,0.33025 -0.51347,0.48988h0.74537v0.38255h-1.38582z" fill="#000000" stroke="none" stroke-width="1"/><path d="M239.90141,173.21794v6.78207" fill="none" stroke="#252525" stroke-width="1"/><path d="M239.95022,180.14744l10.64808,-0.09829" fill="none" stroke="#252525" stroke-width="1"/><path d="M239.69644,180.32142l-7.39451,11.50002" fill="none" stroke="#db6c6c" stroke-width="1"/></g></g></svg>