<svg version="1.1" xmlns="http://www.w3.org/2000/svg" xmlns:xlink="http://www.w3.org/1999/xlink" width="14.97992" height="25.80263" viewBox="0,0,14.97992,25.80263"><g transform="translate(-232.51004,-167.09869)"><g data-paper-data="{&quot;isPaintingLayer&quot;:true}" fill-rule="evenodd" stroke="none" stroke-width="1" stroke-linecap="butt" stroke-linejoin="miter" stroke-miterlimit="10" stroke-dasharray="" stroke-dashoffset="0" style="mix-blend-mode: normal"><path d="M245.30363,184.35981l-0.49225,-2.10724l-6.44139,1.25029l-0.33754,2.07914c0.22503,-0.04215 7.27118,-1.23625 7.27118,-1.2222z" fill="#000000"/><g><path d="M237.49314,172.71249c-0.21095,-0.54789 -1.8424,-0.87099 -1.50485,0.23883c0.33753,1.10982 1.50485,0.7867 1.50485,0.7867c0,0 0.11252,-0.7586 0,-1.02552z" fill="#824600"/><path d="M236.39615,171.95387c-0.01406,1.1941 0.49226,2.26176 0.99855,2.80966c0.87199,0.91313 2.5878,0.73051 3.03787,0.59004c0.82979,-0.26692 1.61737,-1.44698 2.08149,-2.54275c0.14064,-0.42147 0.26722,-0.85694 0.36567,-1.30651l-3.95203,-2.16344c0,0 -1.8002,0.37931 -1.89865,0.51979c-0.14064,0.16857 -0.6329,1.26435 -0.6329,2.09321z" fill="#a0640a"/><path d="M243.27353,168.96159l-0.12657,-0.08431c0.19689,-0.49168 0.60474,-1.25029 -0.19692,-1.41887c-0.49224,-0.09833 -1.19545,0.44954 -1.33609,0.88504c-0.08439,0.04215 -0.08439,0.04216 -0.16877,-0.01403c0.05628,-0.36525 0.22503,-0.82885 -0.08438,-1.10982c-0.91418,-0.51979 -1.35017,0.77266 -1.88459,1.29242l-0.12659,-0.01404c-0.09845,-0.40741 0.18284,-0.96933 -0.42193,-0.98339c-0.40787,-0.01404 -0.5907,0.33716 -0.7876,0.60408c-0.49224,0.63218 -1.16733,1.75606 -1.16733,1.75606c0,0 0,0.70241 1.05482,0.88504c0.52038,0.09833 1.43454,-0.44956 2.82689,0.09833c1.39234,0.54789 1.37829,2.44439 1.37829,2.44439c0,0 1.533,-2.82371 1.71585,-3.23109c0.14064,-0.30908 0.52038,-1.19413 0.19689,-1.46103c-0.23909,-0.19667 -0.66101,0.22477 -0.87199,0.35122z" fill="#000000"/><path d="M242.02181,173.63968c0,0 1.16731,0.3231 1.50486,-0.78672c0.33753,-1.10982 -1.29391,-0.7867 -1.50486,-0.23881c-0.09845,0.2669 0,1.02552 0,1.02552z" fill="#a0640a"/><path d="M239.84185,173.35869c-0.60474,0.05619 -1.15325,0.28097 -1.71583,0.51979c0.28129,0.95529 2.27839,0.35122 1.71583,-0.51979z" fill="#000000"/><path d="M238.74486,173.06369c0.33753,-0.60408 -0.97043,-1.15197 -1.13919,-0.26692c-0.11252,0.68837 0.73132,0.36525 1.13919,0.26692z" fill="#824600"/><g fill="#000000"><path d="M239.88065,172.45776l0.08439,0.19667h0.14064c0.0422,-0.23883 -0.14064,-0.60408 -0.22503,-0.19667z"/><path d="M236.84278,172.9635l0.12659,-0.01404l0.0422,-0.28096c-0.08439,-0.09835 -0.08439,-0.09835 -0.16877,-0.07025c-0.0422,0.11239 -0.0422,0.23883 0,0.36526z"/></g></g><g><path d="M247.46033,184.53425c0.06858,-0.09854 0.06545,-1.73642 -0.54431,-3.0414c-0.75067,-1.58363 -2.16388,-2.91546 -2.76132,-3.46018l-2.08177,1.43545c0.76017,0.48374 1.71941,0.98398 1.96002,1.15974c0.41026,0.29798 1.59521,1.49678 1.57568,1.49317c0.19519,0.25833 0.37877,0.52461 0.50818,0.81125c0.10103,0.22075 0.21773,0.68696 0.28324,0.88097c0.19214,0.55085 0.20505,0.86654 0.29838,0.85341c0.06579,-0.0283 -0.05939,-0.77905 0.06948,-0.76542c0.12884,0.01362 0.20777,0.79632 0.31269,0.77523c0.13245,-0.00591 -0.03267,-0.81458 0.14327,-0.78212c0.16796,0.02085 0.09573,0.85648 0.23645,0.63987z" fill="#a0640a"/><path d="M242.9969,180.43686c0.04626,-0.0319 2.01356,-2.27677 2.01356,-2.27677c0,0 -1.83173,-1.41908 -2.38237,-1.72275c0,0 -2.39783,-1.47288 -3.28485,-0.16081c-0.88703,1.31205 0.71785,2.20421 0.71785,2.20421c-0.0391,-0.00723 2.7706,1.86504 2.93582,1.95612z" fill="#be0a3c"/><path d="M246.59952,182.88988c-0.20316,-0.2699 -0.54022,-0.14002 -0.54022,-0.14002c0,0 -0.17937,1.19997 -0.04612,1.24473c0.12527,0.03319 0.20654,-0.24492 0.33489,-0.50426c0.40779,0.14591 0.47417,-0.32695 0.25146,-0.60046z" fill="#824600"/></g><g><g><path d="M241.69456,187.81579c-0.22765,-0.3354 -0.24476,-0.72862 -0.27571,-1.09366c-0.28304,-0.22257 -2.15022,0.21341 -2.50073,0.35665c0.14611,0.70131 0.33463,1.43038 0.78936,2.03092c0.30928,-0.01645 0.69969,-0.45499 0.96569,-0.61159c0.32183,-0.21325 0.70002,-0.41287 1.02141,-0.6823z" fill="#a0640a"/><path d="M237.97646,185.35809l0.44028,2.35678l3.551,-0.94079l-0.55289,-2.36994c0,0 -0.40495,-1.42982 -2.11756,-1.00907c-1.74073,0.42097 -1.32097,1.949 -1.32086,1.96303z" fill="#000000"/></g><g><path d="M245.70717,188.30397l0.31696,0.96689c0.12799,0.18163 0.35629,0.60129 0.45605,0.76914l0.16888,0.01273c-0.04351,-0.16824 -0.4358,-1.7808 -0.57689,-1.83589l-0.21097,0.00163c-0.07009,0.02863 -0.07009,0.02863 -0.15403,0.08549z" fill="#000000"/><path d="M244.18951,190.2826c0.68695,-0.28634 1.24708,-0.59978 1.84855,-1.0259l-0.31696,-0.96689c-0.67146,0.46883 -1.68165,0.78578 -2.49909,0.56736c-0.49353,-0.16472 -0.93182,-0.45636 -1.24438,-0.86136c-0.0568,-0.0698 -0.19918,-0.29345 -0.24204,-0.37742l-2.40837,1.38147c0.22755,0.32136 0.78106,0.96329 1.10627,1.18553c0.19797,0.13895 0.57858,0.24836 1.02907,0.30107c0.46505,0.12282 0.91533,0.14743 1.37935,0.12975c0.0703,-0.00055 0.95512,-0.16196 1.34759,-0.3336z" fill="#f01446"/></g><path d="M239.86802,189.81088l2.27904,-1.73167l-0.2271,-0.26517l-2.4065,1.62029z" fill="#f5cfcf"/><path d="M240.88563,190.44921l1.65817,-1.99379l-0.28304,-0.22257l-2.02405,1.96852z" fill="#f5cfcf"/></g><g><path d="M233.1875,184.91063c0.05236,0.46454 1.88736,0.12241 2.05571,0.05009c-0.16666,-0.11267 -1.92699,-0.22861 -2.05571,-0.05009z" fill="#824600"/><path d="M241.0496,180.8628l-2.57495,0.07901c0.00712,0.74213 -0.37594,1.52046 -0.84083,2.01465c-0.37517,0.38059 -1.23025,0.91094 -1.68665,1.17852c-0.98185,0.60943 -3.41779,1.49484 -3.3759,1.58716c0.04189,0.09232 0.84459,-0.20432 0.90972,-0.07971c0.06507,0.12462 -1.0543,0.35538 -0.96599,0.51226c0.08829,0.1569 1.02006,-0.2327 1.07414,0.04685c0.05408,0.27954 -0.85567,0.35925 -0.73285,0.47902c0.12281,0.11977 3.43002,-0.60935 4.90365,-1.26686c0.78179,-0.34279 1.47983,-0.87024 2.01572,-1.53813c0.4578,-0.5381 1.22563,-2.27967 1.27398,-3.0128z" fill="#a0640a"/><path d="M240.80168,175.83497c0,0 -0.57984,-0.72152 -1.94649,0.15294c-1.36665,0.87445 -0.80115,2.8191 -0.80115,2.8191c0.302,1.20347 0.1493,2.48955 0.1493,2.48955l2.7875,0.62539c0,0 0.29621,-0.50746 0.41581,-2.02694c0.1196,-1.5195 -0.5979,-4.01615 -0.60496,-4.06006z" fill="#f01446"/></g><g><g><path d="M241.42957,187.60423c0.28421,-0.28903 0.66643,-0.38297 1.0183,-0.48494c0.16272,-0.32121 -0.63115,-2.06655 -0.84037,-2.38215c-0.65901,0.28087 -1.33692,0.60877 -1.83657,1.17252c0.07682,0.30004 0.58343,0.5968 0.78917,0.82692c0.27226,0.27373 0.5422,0.60541 0.86945,0.86769z" fill="#a0640a"/><path d="M243.10997,183.47618l-2.22458,0.89414l1.61925,3.29738l2.21539,-1.00715c0,0 1.32257,-0.67762 0.57397,-2.27439c-0.75434,-1.62429 -2.17029,-0.91287 -2.18404,-0.91001z" fill="#000000"/></g><g><path d="M241.7382,191.63463l-0.88591,0.5005c-0.15299,0.16114 -0.5197,0.46735 -0.66471,0.59809l0.02064,0.16809c0.15643,-0.07567 1.66067,-0.77674 1.687,-0.92589l-0.043,-0.20656c-0.04183,-0.06312 -0.04183,-0.06312 -0.11405,-0.13427z" fill="#000000"/><path d="M239.50025,190.53471c0.41555,0.61741 0.8328,1.10515 1.36867,1.61133l0.88591,-0.5005c-0.59147,-0.56642 -1.10046,-1.49479 -1.04667,-2.33919c0.0647,-0.51626 0.26465,-1.00325 0.60045,-1.3892c0.05729,-0.06939 0.24867,-0.2529 0.3226,-0.31138l-1.82716,-2.09049c-0.27047,0.28617 -0.79132,0.95489 -0.94542,1.31738c-0.0974,0.22138 -0.13001,0.61608 -0.0933,1.06813c-0.02919,0.48011 0.03503,0.92647 0.14341,1.378c0.01434,0.06882 0.34621,0.90477 0.59152,1.25594z" fill="#f01446"/></g><path d="M239.11488,186.20466l2.14518,1.89497l0.21545,-0.27471l-2.06097,-2.04181z" fill="#f5cfcf"/><path d="M238.68863,187.32775l2.28038,1.23474l0.16272,-0.32121l-2.32738,-1.59846z" fill="#f5cfcf"/></g><path d="M238.11684,183.9243l7.56652,-0.66027c0,0 -1.42049,-3.97567 -2.20808,-5.57717c-0.1547,-0.33716 -1.19545,-1.48912 -1.2517,-1.53127c-0.53444,-0.39334 -1.32204,-0.57598 -1.96899,-0.63217c-1.94085,-0.16857 -2.99567,1.93867 -2.95348,3.65256c0.02813,0.91313 0.82979,4.74831 0.81571,4.74831z" fill="#f01446"/></g></g></svg>