<svg version="1.1" xmlns="http://www.w3.org/2000/svg" xmlns:xlink="http://www.w3.org/1999/xlink" width="122.70622" height="19.99133" viewBox="0,0,122.70622,19.99133"><g transform="translate(-178.64689,-170.00433)"><g data-paper-data="{&quot;isPaintingLayer&quot;:true}" fill="#060606" fill-rule="nonzero" stroke="none" stroke-width="1" stroke-linecap="butt" stroke-linejoin="miter" stroke-miterlimit="10" stroke-dasharray="" stroke-dashoffset="0" style="mix-blend-mode: normal"><path d="M181.17952,170.66264c0.72535,0 1.2587,0.1859 1.60004,0.55773c0.34743,0.37182 0.52115,0.85945 0.52115,1.46289c0,0.41449 -0.09752,0.77412 -0.29258,1.07888c-0.18895,0.30477 -0.44801,0.54249 -0.77716,0.71316c-0.32915,0.16458 -0.70096,0.24686 -1.11546,0.24686c-0.19505,0 -0.40229,-0.02133 -0.62173,-0.064c-0.21333,-0.04267 -0.43581,-0.12495 -0.66744,-0.24686l0.04572,-0.11886c0.04877,0.15239 0.08839,0.34134 0.11886,0.56687c0.03657,0.21943 0.064,0.44801 0.08229,0.68573c0.02438,0.23161 0.03657,0.44498 0.03657,0.64001c0,0.35961 -0.06095,0.63699 -0.18286,0.83202c-0.11581,0.18897 -0.28952,0.28344 -0.52115,0.28344c-0.19505,0 -0.35048,-0.06097 -0.4663,-0.18286c-0.10971,-0.12189 -0.18591,-0.32303 -0.22857,-0.60344c-0.04267,-0.2804 -0.064,-0.65528 -0.064,-1.1246c0,-0.90212 0.03962,-1.67014 0.11886,-2.30405c0.08533,-0.64001 0.22857,-1.14288 0.42972,-1.50861c0.15848,-0.28039 0.40229,-0.50287 0.73145,-0.66744c0.33525,-0.16458 0.75278,-0.24686 1.2526,-0.24686zM181.0058,173.64328c0.36572,0 0.66135,-0.09753 0.88688,-0.29258c0.23163,-0.19505 0.34743,-0.47848 0.34743,-0.85031c0,-0.24382 -0.08229,-0.44497 -0.24686,-0.60344c-0.15848,-0.16458 -0.40839,-0.24686 -0.74973,-0.24686c-0.24991,0 -0.4663,0.0579 -0.64916,0.17372c-0.18286,0.10971 -0.32305,0.26515 -0.42058,0.4663c-0.09143,0.19505 -0.13715,0.42058 -0.13715,0.67659c0,0.23772 0.0762,0.41144 0.22857,0.52115c0.15848,0.10362 0.40535,0.15543 0.74059,0.15543zM186.64349,177.30965c-0.67659,0 -1.21603,-0.10057 -1.61832,-0.30172c-0.40229,-0.20115 -0.69184,-0.4907 -0.86859,-0.86859c-0.17676,-0.3779 -0.26515,-0.82897 -0.26515,-1.35317c0,-0.66439 0.12191,-1.22822 0.36572,-1.69147c0.24989,-0.46934 0.59126,-0.82897 1.02402,-1.07888c0.43887,-0.24991 0.93562,-0.37486 1.49032,-0.37486c0.65219,0 1.13071,0.15239 1.43546,0.45716c0.30475,0.29868 0.45716,0.69183 0.45716,1.17945c0,0.3901 -0.1036,0.7284 -0.31087,1.01488c-0.20115,0.28039 -0.48155,0.49677 -0.84116,0.64916c-0.35961,0.15239 -0.77413,0.22857 -1.24346,0.22857c-0.26212,0 -0.51504,-0.03353 -0.75887,-0.10057c-0.24384,-0.06704 -0.46327,-0.15848 -0.6583,-0.27429l0.21943,-0.40229c-0.01829,0.14629 -0.02743,0.29258 -0.02743,0.43887c0,0.42668 0.13412,0.73447 0.40229,0.92345c0.26818,0.18286 0.64916,0.27429 1.14288,0.27429c0.38401,0 0.69184,-0.03354 0.92345,-0.10057c0.23161,-0.06703 0.42669,-0.13103 0.58516,-0.19201c0.15846,-0.06703 0.31389,-0.10057 0.4663,-0.10057c0.08532,0 0.16154,0.0244 0.22857,0.07314c0.07314,0.04268 0.13103,0.10669 0.17372,0.19201c0.04874,0.08532 0.07314,0.18897 0.07314,0.31087c0,0.18286 -0.09143,0.35961 -0.27429,0.5303c-0.18286,0.16458 -0.45412,0.30172 -0.81373,0.41144c-0.35355,0.1036 -0.78934,0.15543 -1.30746,0.15543zM186.11319,174.31986c0.43275,0 0.78019,-0.09143 1.04231,-0.27429c0.26212,-0.18286 0.39315,-0.40839 0.39315,-0.67659c0,-0.21333 -0.07314,-0.38706 -0.21943,-0.52115c-0.14017,-0.14019 -0.3627,-0.21029 -0.66744,-0.21029c-0.28646,0 -0.54555,0.05486 -0.77716,0.16458c-0.22555,0.10362 -0.40229,0.24077 -0.5303,0.41144c-0.128,0.17067 -0.19201,0.35658 -0.19201,0.55773c0,0.17676 0.08229,0.31391 0.24686,0.41144c0.17069,0.09143 0.40532,0.13715 0.70402,0.13715zM189.84248,173.11298c0,-0.58516 0.05486,-1.00574 0.16458,-1.26175c0.10971,-0.2621 0.26515,-0.39315 0.4663,-0.39315c0.15852,0 0.28344,0.06704 0.37486,0.20115c0.09143,0.128 0.15852,0.28953 0.20115,0.48458c0.04268,0.18896 0.064,0.38096 0.064,0.57602l-0.04572,-0.01829c0.10366,-0.32915 0.26212,-0.61258 0.47544,-0.85031c0.21943,-0.23772 0.48155,-0.35658 0.7863,-0.35658c0.35966,0 0.62481,0.14934 0.79545,0.44801c0.17069,0.29258 0.256,0.6583 0.256,1.09717c0,0.58516 -0.06703,0.99355 -0.20115,1.22517c-0.13406,0.23162 -0.31389,0.34743 -0.53944,0.34743c-0.16458,0 -0.28646,-0.06704 -0.36572,-0.20115c-0.07314,-0.1341 -0.09748,-0.37182 -0.07314,-0.71316c0.0244,-0.35962 0.00309,-0.60954 -0.064,-0.74973c-0.06703,-0.14019 -0.17372,-0.21029 -0.32001,-0.21029c-0.17674,0 -0.32303,0.11276 -0.43887,0.33829c-0.10971,0.21943 -0.16458,0.49068 -0.16458,0.81373c0,0.128 0.01525,0.28953 0.04572,0.48458c0.03052,0.19505 0.064,0.40839 0.10057,0.64001c0.03657,0.22553 0.07012,0.45105 0.10057,0.67659c0.03052,0.22555 0.04572,0.43275 0.04572,0.62173c0,0.33526 -0.05178,0.57602 -0.15543,0.72231c-0.1036,0.14629 -0.24989,0.21943 -0.43887,0.21943c-0.21332,0 -0.3779,-0.06703 -0.49372,-0.20115c-0.11577,-0.14017 -0.20418,-0.36572 -0.26515,-0.67659c-0.04874,-0.2804 -0.09748,-0.61258 -0.14629,-0.9966c-0.04874,-0.38401 -0.08834,-0.77716 -0.11886,-1.17945c-0.03045,-0.40229 -0.04572,-0.76497 -0.04572,-1.08803zM196.50401,171.51294c0.54247,0 0.93259,0.07925 1.17031,0.23772c0.23772,0.15848 0.35658,0.36268 0.35658,0.61258c0,0.14629 -0.05183,0.2682 -0.15543,0.36572c-0.09755,0.09143 -0.23772,0.13715 -0.42058,0.13715c-0.18897,0 -0.38704,-0.02743 -0.5943,-0.08229c-0.20115,-0.05486 -0.43584,-0.08229 -0.70402,-0.08229c-0.31087,0 -0.54247,0.06096 -0.69487,0.18286c-0.1524,0.12191 -0.22857,0.27734 -0.22857,0.4663c0,0.17676 0.06703,0.31696 0.20115,0.42058c0.14017,0.09753 0.40532,0.17067 0.79545,0.21943c0.43275,0.04876 0.78934,0.128 1.06974,0.23772c0.28646,0.10362 0.49984,0.2621 0.64001,0.47544c0.14017,0.20725 0.21029,0.49372 0.21029,0.85945c0,0.57904 -0.20418,1.00877 -0.61258,1.28917c-0.40841,0.2804 -0.97219,0.42058 -1.69147,0.42058c-0.45716,0 -0.81985,-0.03657 -1.08803,-0.10971c-0.26818,-0.07314 -0.46327,-0.17674 -0.58516,-0.31087c-0.11583,-0.13412 -0.17372,-0.29258 -0.17372,-0.47544c0,-0.15846 0.05183,-0.2804 0.15543,-0.36572c0.10971,-0.09143 0.23772,-0.13715 0.38401,-0.13715c0.14017,0 0.28955,0.01829 0.44801,0.05486c0.15846,0.03045 0.32612,0.064 0.50287,0.10057c0.17674,0.03657 0.35961,0.05486 0.54858,0.05486c0.60956,0 0.9143,-0.18897 0.9143,-0.56687c0,-0.128 -0.03045,-0.23162 -0.09143,-0.31087c-0.06097,-0.07925 -0.17069,-0.14324 -0.32915,-0.19201c-0.15846,-0.05486 -0.39013,-0.09753 -0.69487,-0.128c-0.36572,-0.03657 -0.6827,-0.09753 -0.95088,-0.18286c-0.26818,-0.09143 -0.47544,-0.23772 -0.62173,-0.43887c-0.14629,-0.20725 -0.21943,-0.49068 -0.21943,-0.85031c0,-0.56687 0.21332,-1.02402 0.64001,-1.37146c0.42669,-0.35354 1.03316,-0.5303 1.81947,-0.5303zM201.63492,177.30965c-0.67659,0 -1.21603,-0.10057 -1.61832,-0.30172c-0.40229,-0.20115 -0.69184,-0.4907 -0.86859,-0.86859c-0.17674,-0.3779 -0.26515,-0.82897 -0.26515,-1.35317c0,-0.66439 0.12189,-1.22822 0.36572,-1.69147c0.24989,-0.46934 0.59127,-0.82897 1.02402,-1.07888c0.43887,-0.24991 0.93562,-0.37486 1.49032,-0.37486c0.65219,0 1.13071,0.15239 1.43546,0.45716c0.30475,0.29868 0.45716,0.69183 0.45716,1.17945c0,0.3901 -0.1036,0.7284 -0.31087,1.01488c-0.20115,0.28039 -0.48155,0.49677 -0.84116,0.64916c-0.35961,0.15239 -0.77413,0.22857 -1.24346,0.22857c-0.26212,0 -0.51504,-0.03353 -0.75887,-0.10057c-0.24384,-0.06704 -0.46327,-0.15848 -0.6583,-0.27429l0.21943,-0.40229c-0.01829,0.14629 -0.02743,0.29258 -0.02743,0.43887c0,0.42668 0.13412,0.73447 0.40229,0.92345c0.26818,0.18286 0.64916,0.27429 1.14288,0.27429c0.38401,0 0.69184,-0.03354 0.92345,-0.10057c0.23161,-0.06703 0.42669,-0.13103 0.58516,-0.19201c0.15846,-0.06703 0.31389,-0.10057 0.4663,-0.10057c0.08532,0 0.16154,0.0244 0.22857,0.07314c0.07314,0.04268 0.13103,0.10669 0.17372,0.19201c0.04874,0.08532 0.07314,0.18897 0.07314,0.31087c0,0.18286 -0.09143,0.35961 -0.27429,0.5303c-0.18286,0.16458 -0.45412,0.30172 -0.81373,0.41144c-0.35355,0.1036 -0.78934,0.15543 -1.30746,0.15543zM201.10463,174.31986c0.43275,0 0.78019,-0.09143 1.04231,-0.27429c0.26212,-0.18286 0.39315,-0.40839 0.39315,-0.67659c0,-0.21333 -0.07314,-0.38706 -0.21943,-0.52115c-0.14017,-0.14019 -0.3627,-0.21029 -0.66744,-0.21029c-0.28646,0 -0.54555,0.05486 -0.77716,0.16458c-0.22555,0.10362 -0.40229,0.24077 -0.5303,0.41144c-0.128,0.17067 -0.19201,0.35658 -0.19201,0.55773c0,0.17676 0.08229,0.31391 0.24686,0.41144c0.17069,0.09143 0.40532,0.13715 0.70402,0.13715zM206.58024,177.09022c-0.57298,0 -1.03928,-0.21943 -1.39889,-0.6583c-0.35961,-0.44498 -0.53944,-1.1185 -0.53944,-2.02062c0,-0.96307 0.17372,-1.66708 0.52115,-2.11205c0.34743,-0.44497 0.80459,-0.66744 1.37146,-0.66744c0.33526,0 0.63087,0.08533 0.88688,0.256c0.256,0.17067 0.47544,0.41144 0.6583,0.72231l-0.07314,0.128c-0.01829,-0.08533 -0.03354,-0.17676 -0.04572,-0.27429c-0.01217,-0.09753 -0.01829,-0.17067 -0.01829,-0.21943c0,-0.24991 0.0396,-0.44191 0.11886,-0.57602c0.08532,-0.14019 0.21641,-0.21029 0.39315,-0.21029c0.19503,0 0.34743,0.07925 0.45716,0.23772c0.11583,0.15848 0.20418,0.38401 0.26515,0.67659c0.07926,0.29868 0.14629,0.67964 0.20115,1.14288c0.05486,0.45716 0.08229,0.9204 0.08229,1.38975c0,0.58516 -0.02131,1.07585 -0.064,1.47203c-0.04268,0.39618 -0.11275,0.72533 -0.21029,0.98745c-0.09755,0.26212 -0.22555,0.4907 -0.38401,0.68573c-0.26212,0.31698 -0.60041,0.55773 -1.01488,0.72231c-0.40841,0.17069 -0.88076,0.256 -1.41718,0.256c-0.38401,0 -0.69184,-0.03657 -0.92345,-0.10971c-0.23161,-0.06703 -0.39927,-0.16154 -0.50287,-0.28344c-0.09755,-0.11583 -0.14629,-0.24686 -0.14629,-0.39315c0,-0.1524 0.04268,-0.2804 0.128,-0.38401c0.08532,-0.09755 0.21332,-0.14629 0.38401,-0.14629c0.1524,0 0.32915,0.0244 0.5303,0.07314c0.20726,0.04874 0.45104,0.07314 0.73145,0.07314c0.59127,0 1.00877,-0.14017 1.2526,-0.42058c0.24989,-0.27429 0.37486,-0.67047 0.37486,-1.1886c0,-0.14017 -0.00914,-0.30475 -0.02743,-0.49372l0.128,0.04572c-0.1524,0.39013 -0.3779,0.70402 -0.67659,0.94174c-0.29869,0.23161 -0.64613,0.34743 -1.04231,0.34743zM206.92767,175.96562c0.19503,0 0.39013,-0.05183 0.58516,-0.15543c0.19503,-0.1036 0.35658,-0.27429 0.48458,-0.51201c0.128,-0.23772 0.19201,-0.55773 0.19201,-0.96002c0,-0.48154 -0.11275,-0.87469 -0.33829,-1.17945c-0.22555,-0.30477 -0.54247,-0.45716 -0.95088,-0.45716c-0.35355,0 -0.61258,0.1341 -0.77716,0.40229c-0.16458,0.2682 -0.24686,0.67354 -0.24686,1.21603c0,0.51811 0.08229,0.92345 0.24686,1.21603c0.16458,0.28646 0.43275,0.42973 0.80459,0.42973zM211.37972,170.22377c0.24384,0 0.41755,0.06705 0.52115,0.20115c0.10971,0.1341 0.16458,0.28953 0.16458,0.4663c0,0.21943 -0.06703,0.3901 -0.20115,0.51201c-0.128,0.11581 -0.31087,0.17372 -0.54858,0.17372c-0.23161,0 -0.40532,-0.064 -0.52115,-0.19201c-0.11583,-0.1341 -0.17372,-0.28953 -0.17372,-0.4663c0,-0.23162 0.07012,-0.40534 0.21029,-0.52115c0.14017,-0.11581 0.32303,-0.17372 0.54858,-0.17372zM211.43457,172.26268c0.19503,0 0.34743,0.18286 0.45716,0.54858c0.11583,0.36572 0.17372,0.94783 0.17372,1.74633c0,0.98133 -0.07012,1.68844 -0.21029,2.12119c-0.14017,0.43275 -0.35355,0.64916 -0.64001,0.64916c-0.21943,0 -0.38098,-0.15846 -0.48458,-0.47544c-0.1036,-0.32303 -0.15543,-0.88385 -0.15543,-1.68233c0,-0.98135 0.07926,-1.70975 0.23772,-2.1852c0.16458,-0.48154 0.37184,-0.72231 0.62173,-0.72231zM218.95338,173.04898c0.06097,-0.24991 0.1676,-0.47544 0.32001,-0.67659c0.15846,-0.20115 0.34743,-0.35962 0.56687,-0.47544c0.22555,-0.12191 0.47241,-0.18286 0.74059,-0.18286c0.31698,0 0.59733,0.07619 0.84116,0.22857c0.24384,0.15239 0.43584,0.40229 0.57602,0.74973c0.14629,0.34743 0.21943,0.81068 0.21943,1.38975c0,0.29868 -0.01217,0.6004 -0.03657,0.90516c-0.0244,0.30477 -0.05486,0.58818 -0.09143,0.85031c-0.03657,0.26212 -0.07617,0.48155 -0.11886,0.6583c-0.06097,0.24384 -0.15543,0.42973 -0.28344,0.55773c-0.12189,0.128 -0.27732,0.19201 -0.4663,0.19201c-0.15846,0 -0.28344,-0.07012 -0.37486,-0.21029c-0.09143,-0.14017 -0.13715,-0.34132 -0.13715,-0.60344c0,-0.12189 0.01525,-0.27732 0.04572,-0.4663c0.03045,-0.19503 0.064,-0.40532 0.10057,-0.63087c0.03657,-0.23162 0.07012,-0.4663 0.10057,-0.70402c0.03045,-0.23772 0.04572,-0.46325 0.04572,-0.67659c0,-0.31696 -0.064,-0.56078 -0.19201,-0.73145c-0.128,-0.17676 -0.30783,-0.26515 -0.53944,-0.26515c-0.256,0 -0.46932,0.1341 -0.64001,0.40229c-0.16458,0.2621 -0.26212,0.64611 -0.29258,1.15203c-0.0244,0.45105 -0.04572,0.85335 -0.064,1.20688c-0.01829,0.34743 -0.064,0.6339 -0.13715,0.85945c-0.04874,0.15846 -0.11886,0.27732 -0.21029,0.35658c-0.08532,0.07926 -0.20115,0.11886 -0.34743,0.11886c-0.16458,0 -0.2956,-0.06097 -0.39315,-0.18286c-0.09143,-0.12189 -0.14326,-0.31389 -0.15543,-0.57602c-0.01217,-0.21943 -0.01525,-0.47847 -0.00914,-0.77716c0.00611,-0.29868 0.00914,-0.5943 0.00914,-0.88688c0.00611,-0.29868 0.00303,-0.54554 -0.00914,-0.74059c-0.0244,-0.3901 -0.09446,-0.67659 -0.21029,-0.85945c-0.10971,-0.18286 -0.27732,-0.27429 -0.50287,-0.27429c-0.26212,0 -0.47241,0.12191 -0.63087,0.36572c-0.1524,0.24382 -0.24686,0.58211 -0.28344,1.01488c-0.01217,0.17676 -0.01829,0.3962 -0.01829,0.6583c0.00611,0.256 0.01217,0.51201 0.01829,0.76801c0.00611,0.256 0.00303,0.46932 -0.00914,0.64001c-0.00611,0.36572 -0.064,0.62784 -0.17372,0.7863c-0.1036,0.15846 -0.24989,0.23772 -0.43887,0.23772c-0.22555,0 -0.39013,-0.07314 -0.49372,-0.21943c-0.09755,-0.14629 -0.16154,-0.38098 -0.19201,-0.70402c-0.0244,-0.28646 -0.04268,-0.5699 -0.05486,-0.85031c-0.01217,-0.28648 -0.01829,-0.56992 -0.01829,-0.85031c0,-0.28648 0.00611,-0.59734 0.01829,-0.93259c0.01829,-0.33525 0.04268,-0.6522 0.07314,-0.95088c0.03657,-0.30477 0.10057,-0.56078 0.19201,-0.76801c0.09143,-0.20725 0.24384,-0.31087 0.45716,-0.31087c0.17674,0 0.30172,0.08839 0.37486,0.26515c0.07314,0.17067 0.10971,0.43582 0.10971,0.79545c0,0.12191 -0.00914,0.23467 -0.02743,0.33829l-0.02743,-0.18286c0.12189,-0.3962 0.31698,-0.70402 0.58516,-0.92345c0.26818,-0.22553 0.56687,-0.33829 0.89602,-0.33829c0.43275,0 0.77105,0.14019 1.01488,0.42058c0.24384,0.27429 0.3779,0.65525 0.40229,1.14288zM225.8944,177.30965c-0.67659,0 -1.21603,-0.10057 -1.61832,-0.30172c-0.40229,-0.20115 -0.69184,-0.4907 -0.86859,-0.86859c-0.17674,-0.3779 -0.26515,-0.82897 -0.26515,-1.35317c0,-0.66439 0.12189,-1.22822 0.36572,-1.69147c0.24989,-0.46934 0.59127,-0.82897 1.02402,-1.07888c0.43887,-0.24991 0.93562,-0.37486 1.49032,-0.37486c0.65219,0 1.13071,0.15239 1.43546,0.45716c0.30475,0.29868 0.45716,0.69183 0.45716,1.17945c0,0.3901 -0.1036,0.7284 -0.31087,1.01488c-0.20115,0.28039 -0.48155,0.49677 -0.84116,0.64916c-0.35961,0.15239 -0.77413,0.22857 -1.24346,0.22857c-0.26212,0 -0.51504,-0.03353 -0.75887,-0.10057c-0.24384,-0.06704 -0.46327,-0.15848 -0.6583,-0.27429l0.21943,-0.40229c-0.01829,0.14629 -0.02743,0.29258 -0.02743,0.43887c0,0.42668 0.13412,0.73447 0.40229,0.92345c0.26818,0.18286 0.64916,0.27429 1.14288,0.27429c0.38401,0 0.69184,-0.03354 0.92345,-0.10057c0.23161,-0.06703 0.42669,-0.13103 0.58516,-0.19201c0.15846,-0.06703 0.31389,-0.10057 0.4663,-0.10057c0.08532,0 0.16154,0.0244 0.22857,0.07314c0.07314,0.04268 0.13103,0.10669 0.17372,0.19201c0.04874,0.08532 0.07314,0.18897 0.07314,0.31087c0,0.18286 -0.09143,0.35961 -0.27429,0.5303c-0.18286,0.16458 -0.45412,0.30172 -0.81373,0.41144c-0.35355,0.1036 -0.78934,0.15543 -1.30746,0.15543zM225.3641,174.31986c0.43275,0 0.78019,-0.09143 1.04231,-0.27429c0.26212,-0.18286 0.39315,-0.40839 0.39315,-0.67659c0,-0.21333 -0.07314,-0.38706 -0.21943,-0.52115c-0.14017,-0.14019 -0.3627,-0.21029 -0.66744,-0.21029c-0.28646,0 -0.54555,0.05486 -0.77716,0.16458c-0.22555,0.10362 -0.40229,0.24077 -0.5303,0.41144c-0.128,0.17067 -0.19201,0.35658 -0.19201,0.55773c0,0.17676 0.08229,0.31391 0.24686,0.41144c0.17069,0.09143 0.40532,0.13715 0.70402,0.13715zM233.03405,173.04898c0.06097,-0.24991 0.16766,-0.47544 0.32001,-0.67659c0.15852,-0.20115 0.34743,-0.35962 0.56687,-0.47544c0.22555,-0.12191 0.47241,-0.18286 0.74059,-0.18286c0.31698,0 0.59739,0.07619 0.84116,0.22857c0.24377,0.15239 0.43578,0.40229 0.57579,0.74973c0.14629,0.34743 0.21943,0.81068 0.21943,1.38975c0,0.29868 -0.012,0.6004 -0.03657,0.90516c-0.024,0.30477 -0.05486,0.58818 -0.09143,0.85031c-0.03657,0.26212 -0.076,0.48155 -0.11886,0.6583c-0.06057,0.24384 -0.15543,0.42973 -0.28344,0.55773c-0.12166,0.128 -0.27709,0.19201 -0.46607,0.19201c-0.15846,0 -0.28344,-0.07012 -0.37486,-0.21029c-0.09143,-0.14017 -0.13715,-0.34132 -0.13715,-0.60344c0,-0.12189 0.01525,-0.27732 0.04572,-0.4663c0.03052,-0.19503 0.064,-0.40532 0.10057,-0.63087c0.03657,-0.23162 0.07012,-0.4663 0.10057,-0.70402c0.03052,-0.23772 0.04572,-0.46325 0.04572,-0.67659c0,-0.31696 -0.064,-0.56078 -0.19201,-0.73145c-0.128,-0.17676 -0.30778,-0.26515 -0.53944,-0.26515c-0.256,0 -0.46932,0.1341 -0.64001,0.40229c-0.16458,0.2621 -0.26206,0.64611 -0.29258,1.15203c-0.02434,0.45105 -0.04572,0.85335 -0.064,1.20688c-0.01829,0.34743 -0.064,0.6339 -0.13715,0.85945c-0.04874,0.15846 -0.11886,0.27732 -0.21029,0.35658c-0.08532,0.07926 -0.20115,0.11886 -0.34743,0.11886c-0.16458,0 -0.2956,-0.06097 -0.39315,-0.18286c-0.09143,-0.12189 -0.1432,-0.31389 -0.15543,-0.57602c-0.01217,-0.21943 -0.0152,-0.47847 -0.00914,-0.77716c0.00611,-0.29868 0.00914,-0.5943 0.00914,-0.88688c0.00611,-0.29868 0.00309,-0.54554 -0.00914,-0.74059c-0.02434,-0.3901 -0.09446,-0.67659 -0.21029,-0.85945c-0.10971,-0.18286 -0.27732,-0.27429 -0.50287,-0.27429c-0.26206,0 -0.47235,0.12191 -0.63087,0.36572c-0.15235,0.24382 -0.24686,0.58211 -0.28344,1.01488c-0.01217,0.17676 -0.01829,0.3962 -0.01829,0.6583c0.00611,0.256 0.01223,0.51201 0.01829,0.76801c0.00611,0.256 0.00309,0.46932 -0.00914,0.64001c-0.00606,0.36572 -0.064,0.62784 -0.17372,0.7863c-0.1036,0.15846 -0.24989,0.23772 -0.43887,0.23772c-0.22549,0 -0.39006,-0.07314 -0.49372,-0.21943c-0.09748,-0.14629 -0.16149,-0.38098 -0.19201,-0.70402c-0.02434,-0.28646 -0.04263,-0.5699 -0.05486,-0.85031c-0.01217,-0.28648 -0.01829,-0.56992 -0.01829,-0.85031c0,-0.28648 0.00611,-0.59734 0.01829,-0.93259c0.01829,-0.33525 0.04268,-0.6522 0.07314,-0.95088c0.03657,-0.30477 0.10057,-0.56078 0.19201,-0.76801c0.09143,-0.20725 0.24384,-0.31087 0.45716,-0.31087c0.17681,0 0.30172,0.08839 0.37486,0.26515c0.07314,0.17067 0.10971,0.43582 0.10971,0.79545c0,0.12191 -0.00914,0.23467 -0.02743,0.33829l-0.02743,-0.18286c0.12194,-0.3962 0.31698,-0.70402 0.58516,-0.92345c0.26823,-0.22553 0.56687,-0.33829 0.89602,-0.33829c0.43281,0 0.7711,0.14019 1.01488,0.42058c0.24384,0.27429 0.37795,0.65525 0.40229,1.14288zM238.21965,170.22377c0.244,0 0.41773,0.06705 0.52115,0.20115c0.10971,0.1341 0.16458,0.28953 0.16458,0.4663c0,0.21943 -0.06686,0.3901 -0.20115,0.51201c-0.128,0.11581 -0.31087,0.17372 -0.54858,0.17372c-0.23143,0 -0.40515,-0.064 -0.52115,-0.19201c-0.116,-0.1341 -0.17372,-0.28953 -0.17372,-0.4663c0,-0.23162 0.07028,-0.40534 0.21029,-0.52115c0.14,-0.11581 0.32287,-0.17372 0.54858,-0.17372zM238.27451,172.26268c0.19486,0 0.34743,0.18286 0.45716,0.54858c0.116,0.36572 0.17372,0.94783 0.17372,1.74633c0,0.98133 -0.07028,1.68844 -0.21029,2.12119c-0.14,0.43275 -0.35372,0.64916 -0.64001,0.64916c-0.21943,0 -0.38115,-0.15846 -0.48458,-0.47544c-0.10343,-0.32303 -0.15543,-0.88385 -0.15543,-1.68233c0,-0.98135 0.07943,-1.70975 0.23772,-2.1852c0.16458,-0.48154 0.37201,-0.72231 0.62173,-0.72231zM241.00943,177.25479c-0.18858,0 -0.33829,-0.04268 -0.44801,-0.128c-0.10971,-0.09143 -0.19772,-0.24075 -0.26515,-0.44801c-0.09143,-0.30475 -0.16115,-0.68876 -0.21029,-1.15203c-0.04229,-0.46934 -0.064,-1.04536 -0.064,-1.72804c0,-0.42058 0.01543,-0.84116 0.04572,-1.26175c0.03657,-0.42668 0.08229,-0.81373 0.13715,-1.16117c0.05486,-0.35354 0.11315,-0.62783 0.17372,-0.82288c0.06743,-0.20725 0.14629,-0.35048 0.23772,-0.42973c0.09143,-0.07924 0.19543,-0.11886 0.31087,-0.11886c0.12229,0 0.21943,0.04267 0.29258,0.128c0.07314,0.07924 0.13143,0.22248 0.17372,0.42973c0.03657,0.20115 0.064,0.44801 0.08229,0.74059c0.02458,0.29258 0.03657,0.60649 0.03657,0.94174c0,0.45716 -0.02114,0.93869 -0.064,1.4446c-0.04229,0.50591 -0.10057,1.00269 -0.17372,1.49032c-0.06686,0.48761 -0.14915,0.93562 -0.24686,1.34403l-0.256,-0.128c0.15886,-0.19503 0.33829,-0.34743 0.53944,-0.45716c0.20743,-0.10971 0.39658,-0.16458 0.56687,-0.16458c0.14058,0 0.24686,0.0396 0.32001,0.11886c0.07943,0.07314 0.11886,0.18897 0.11886,0.34743c0,0.15846 -0.06972,0.31698 -0.21029,0.47544c-0.13371,0.15846 -0.30172,0.28955 -0.50287,0.39315c-0.20115,0.09755 -0.39886,0.14629 -0.5943,0.14629zM243.95178,170.22377c0.244,0 0.41773,0.06705 0.52115,0.20115c0.10971,0.1341 0.16458,0.28953 0.16458,0.4663c0,0.21943 -0.06686,0.3901 -0.20115,0.51201c-0.128,0.11581 -0.31087,0.17372 -0.54858,0.17372c-0.23143,0 -0.40515,-0.064 -0.52115,-0.19201c-0.11543,-0.1341 -0.17372,-0.28953 -0.17372,-0.4663c0,-0.23162 0.07028,-0.40534 0.21029,-0.52115c0.14058,-0.11581 0.32343,-0.17372 0.54858,-0.17372zM244.00664,172.26268c0.19543,0 0.34743,0.18286 0.45716,0.54858c0.116,0.36572 0.17372,0.94783 0.17372,1.74633c0,0.98133 -0.06972,1.68844 -0.21029,2.12119c-0.14,0.43275 -0.35315,0.64916 -0.64001,0.64916c-0.21943,0 -0.38058,-0.15846 -0.48458,-0.47544c-0.10343,-0.32303 -0.15543,-0.88385 -0.15543,-1.68233c0,-0.98135 0.07943,-1.70975 0.23772,-2.1852c0.16458,-0.48154 0.37201,-0.72231 0.62173,-0.72231zM246.37641,177.32794c-0.116,0 -0.21029,-0.03354 -0.28344,-0.10057c-0.07314,-0.07314 -0.12515,-0.17674 -0.15543,-0.31087c-0.04914,-0.22555 -0.09143,-0.55161 -0.128,-0.97831c-0.03657,-0.42668 -0.05486,-0.89907 -0.05486,-1.41718c0,-0.64001 0.02114,-1.25564 0.064,-1.8469c0.04857,-0.59125 0.10971,-1.07583 0.18286,-1.45375c0.07886,-0.40839 0.17658,-0.70706 0.29258,-0.89602c0.11543,-0.19505 0.268,-0.29258 0.45716,-0.29258c0.17029,0 0.30172,0.07924 0.39315,0.23772c0.09143,0.15239 0.13715,0.41753 0.13715,0.79545c0,0.37791 -0.01543,0.78326 -0.04572,1.21603c-0.02458,0.43277 -0.06743,0.89602 -0.128,1.38975h0.03657c0.39601,-0.53639 0.76459,-0.96612 1.10631,-1.28917c0.34743,-0.32305 0.66401,-0.55773 0.95088,-0.70402c0.29258,-0.14629 0.55144,-0.21943 0.77716,-0.21943c0.17658,0 0.30744,0.05486 0.39315,0.16458c0.08514,0.10971 0.128,0.24382 0.128,0.40229c0,0.31087 -0.25029,0.6583 -0.74973,1.04231c-0.49372,0.38401 -1.20688,0.77716 -2.13948,1.17945l0.00914,-0.14629c0.57887,0.29868 1.07545,0.61258 1.49032,0.94174c0.42058,0.32305 0.74059,0.63087 0.96002,0.92345c0.22515,0.28646 0.33829,0.52727 0.33829,0.72231c0,0.15846 -0.052,0.28955 -0.15543,0.39315c-0.09772,0.09755 -0.24115,0.14629 -0.42973,0.14629c-0.23772,0 -0.50287,-0.0884 -0.79545,-0.26515c-0.28687,-0.18286 -0.58516,-0.45412 -0.89602,-0.81373c-0.31087,-0.35961 -0.62173,-0.81068 -0.93259,-1.35317h-0.03657c-0.00629,0.38401 -0.03086,0.75887 -0.07314,1.1246c-0.03657,0.35961 -0.08572,0.65528 -0.14629,0.88688c-0.04286,0.15846 -0.10971,0.28646 -0.20115,0.38401c-0.08572,0.09143 -0.20743,0.13715 -0.36572,0.13715zM252.04112,170.22377c0.244,0 0.41773,0.06705 0.52115,0.20115c0.10971,0.1341 0.16458,0.28953 0.16458,0.4663c0,0.21943 -0.06686,0.3901 -0.20115,0.51201c-0.128,0.11581 -0.31087,0.17372 -0.54858,0.17372c-0.23143,0 -0.40515,-0.064 -0.52115,-0.19201c-0.11543,-0.1341 -0.17372,-0.28953 -0.17372,-0.4663c0,-0.23162 0.07028,-0.40534 0.21029,-0.52115c0.14058,-0.11581 0.32343,-0.17372 0.54858,-0.17372zM252.09597,172.26268c0.19543,0 0.34743,0.18286 0.45716,0.54858c0.116,0.36572 0.17372,0.94783 0.17372,1.74633c0,0.98133 -0.06972,1.68844 -0.21029,2.12119c-0.14,0.43275 -0.35315,0.64916 -0.64001,0.64916c-0.21943,0 -0.38058,-0.15846 -0.48458,-0.47544c-0.10343,-0.32303 -0.15543,-0.88385 -0.15543,-1.68233c0,-0.98135 0.07943,-1.70975 0.23772,-2.1852c0.16458,-0.48154 0.37201,-0.72231 0.62173,-0.72231zM258.2344,177.30965c-0.67659,0 -1.21603,-0.10057 -1.61832,-0.30172c-0.40229,-0.20115 -0.69202,-0.4907 -0.86859,-0.86859c-0.17658,-0.3779 -0.26515,-0.82897 -0.26515,-1.35317c0,-0.66439 0.12171,-1.22822 0.36572,-1.69147c0.24972,-0.46934 0.59144,-0.82897 1.02402,-1.07888c0.43887,-0.24991 0.93545,-0.37486 1.49032,-0.37486c0.65201,0 1.13088,0.15239 1.43546,0.45716c0.30458,0.29868 0.45716,0.69183 0.45716,1.17945c0,0.3901 -0.10343,0.7284 -0.31087,1.01488c-0.20115,0.28039 -0.48172,0.49677 -0.84116,0.64916c-0.35944,0.15239 -0.7743,0.22857 -1.24346,0.22857c-0.26229,0 -0.51487,-0.03353 -0.75887,-0.10057c-0.244,-0.06704 -0.46344,-0.15848 -0.6583,-0.27429l0.21943,-0.40229c-0.01829,0.14629 -0.02743,0.29258 -0.02743,0.43887c0,0.42668 0.13429,0.73447 0.40229,0.92345c0.268,0.18286 0.64916,0.27429 1.14288,0.27429c0.38401,0 0.69202,-0.03354 0.92345,-0.10057c0.23143,-0.06703 0.42687,-0.13103 0.58516,-0.19201c0.15829,-0.06703 0.31372,-0.10057 0.4663,-0.10057c0.08514,0 0.16172,0.0244 0.22857,0.07314c0.07314,0.04268 0.13086,0.10669 0.17372,0.19201c0.04857,0.08532 0.07314,0.18897 0.07314,0.31087c0,0.18286 -0.09143,0.35961 -0.27429,0.5303c-0.18286,0.16458 -0.4543,0.30172 -0.81373,0.41144c-0.35372,0.1036 -0.78916,0.15543 -1.30746,0.15543zM257.7041,174.31986c0.43258,0 0.78001,-0.09143 1.04231,-0.27429c0.26229,-0.18286 0.39315,-0.40839 0.39315,-0.67659c0,-0.21333 -0.07314,-0.38706 -0.21943,-0.52115c-0.14,-0.14019 -0.36286,-0.21029 -0.66744,-0.21029c-0.28629,0 -0.54573,0.05486 -0.77716,0.16458c-0.22572,0.10362 -0.40229,0.24077 -0.5303,0.41144c-0.128,0.17067 -0.19201,0.35658 -0.19201,0.55773c0,0.17676 0.08229,0.31391 0.24686,0.41144c0.17086,0.09143 0.40515,0.13715 0.70402,0.13715zM265.37399,173.04898c0.06114,-0.24991 0.168,-0.47544 0.32001,-0.67659c0.15886,-0.20115 0.34743,-0.35962 0.56687,-0.47544c0.22572,-0.12191 0.47258,-0.18286 0.74059,-0.18286c0.31715,0 0.59772,0.07619 0.84116,0.22857c0.244,0.15239 0.43601,0.40229 0.57602,0.74973c0.14629,0.34743 0.21943,0.81068 0.21943,1.38975c0,0.29868 -0.012,0.6004 -0.03657,0.90516c-0.024,0.30477 -0.05486,0.58818 -0.09143,0.85031c-0.03657,0.26212 -0.076,0.48155 -0.11886,0.6583c-0.06057,0.24384 -0.15543,0.42973 -0.28344,0.55773c-0.12171,0.128 -0.27715,0.19201 -0.4663,0.19201c-0.15829,0 -0.28344,-0.07012 -0.37486,-0.21029c-0.09143,-0.14017 -0.13715,-0.34132 -0.13715,-0.60344c0,-0.12189 0.01543,-0.27732 0.04572,-0.4663c0.03086,-0.19503 0.064,-0.40532 0.10057,-0.63087c0.03657,-0.23162 0.07028,-0.4663 0.10057,-0.70402c0.03086,-0.23772 0.04572,-0.46325 0.04572,-0.67659c0,-0.31696 -0.064,-0.56078 -0.19201,-0.73145c-0.128,-0.17676 -0.30744,-0.26515 -0.53944,-0.26515c-0.256,0 -0.46916,0.1341 -0.64001,0.40229c-0.16458,0.2621 -0.26172,0.64611 -0.29258,1.15203c-0.024,0.45105 -0.04572,0.85335 -0.064,1.20688c-0.01829,0.34743 -0.064,0.6339 -0.13715,0.85945c-0.04857,0.15846 -0.11886,0.27732 -0.21029,0.35658c-0.08514,0.07926 -0.20115,0.11886 -0.34743,0.11886c-0.16458,0 -0.29544,-0.06097 -0.39315,-0.18286c-0.09143,-0.12189 -0.14286,-0.31389 -0.15543,-0.57602c-0.012,-0.21943 -0.01486,-0.47847 -0.00914,-0.77716c0.00629,-0.29868 0.00914,-0.5943 0.00914,-0.88688c0.00629,-0.29868 0.00343,-0.54554 -0.00914,-0.74059c-0.024,-0.3901 -0.09429,-0.67659 -0.21029,-0.85945c-0.10971,-0.18286 -0.27715,-0.27429 -0.50287,-0.27429c-0.26172,0 -0.47201,0.12191 -0.63087,0.36572c-0.152,0.24382 -0.24686,0.58211 -0.28344,1.01488c-0.012,0.17676 -0.01829,0.3962 -0.01829,0.6583c0.00629,0.256 0.01258,0.51201 0.01829,0.76801c0.00629,0.256 0.00343,0.46932 -0.00914,0.64001c-0.00571,0.36572 -0.064,0.62784 -0.17372,0.7863c-0.10343,0.15846 -0.24972,0.23772 -0.43887,0.23772c-0.22515,0 -0.38972,-0.07314 -0.49372,-0.21943c-0.09715,-0.14629 -0.16115,-0.38098 -0.19201,-0.70402c-0.024,-0.28646 -0.04229,-0.5699 -0.05486,-0.85031c-0.012,-0.28648 -0.01829,-0.56992 -0.01829,-0.85031c0,-0.28648 0.00629,-0.59734 0.01829,-0.93259c0.01829,-0.33525 0.04286,-0.6522 0.07314,-0.95088c0.03657,-0.30477 0.10057,-0.56078 0.19201,-0.76801c0.09143,-0.20725 0.244,-0.31087 0.45716,-0.31087c0.17715,0 0.30172,0.08839 0.37486,0.26515c0.07314,0.17067 0.10971,0.43582 0.10971,0.79545c0,0.12191 -0.00914,0.23467 -0.02743,0.33829l-0.02743,-0.18286c0.12229,-0.3962 0.31715,-0.70402 0.58516,-0.92345c0.26858,-0.22553 0.56687,-0.33829 0.89602,-0.33829c0.43315,0 0.77145,0.14019 1.01488,0.42058c0.244,0.27429 0.37829,0.65525 0.40229,1.14288zM270.37696,171.56781c0.16458,0 0.30172,0.09753 0.41144,0.29258c0.10971,0.18896 0.18572,0.49068 0.22857,0.90516l-0.19201,0.17372c0.10971,-0.42668 0.31372,-0.75278 0.61258,-0.97831c0.29829,-0.22553 0.65201,-0.33829 1.06059,-0.33829c0.37772,0 0.71316,0.09753 1.00574,0.29258c0.29258,0.19505 0.52115,0.49068 0.68573,0.88688c0.17029,0.3901 0.256,0.88078 0.256,1.47203c0,0.95697 -0.17372,1.66404 -0.52115,2.12119c-0.34172,0.45104 -0.80802,0.67659 -1.39889,0.67659c-0.42687,0 -0.7623,-0.09143 -1.00574,-0.27429c-0.244,-0.18286 -0.41487,-0.40532 -0.51201,-0.66744l0.10971,-0.05486c0.04857,0.36572 0.088,0.72842 0.11886,1.08803c0.03657,0.35355 0.05486,0.66442 0.05486,0.93259c0,0.27429 -0.04914,0.5059 -0.14629,0.69487c-0.09772,0.18897 -0.25315,0.28344 -0.4663,0.28344c-0.20743,0 -0.36286,-0.07926 -0.4663,-0.23772c-0.104,-0.15846 -0.18001,-0.36875 -0.22857,-0.63087c-0.03657,-0.26818 -0.07314,-0.61258 -0.10971,-1.03316c-0.03657,-0.42058 -0.06743,-0.87471 -0.09143,-1.36232c-0.01829,-0.48763 -0.02743,-0.96307 -0.02743,-1.42632c0,-0.47544 0.01486,-0.9204 0.04572,-1.33489c0.03657,-0.42058 0.07886,-0.76192 0.128,-1.02402c0.04229,-0.15239 0.09715,-0.26515 0.16458,-0.33829c0.07314,-0.07925 0.16743,-0.11886 0.28344,-0.11886zM272.12329,172.67411c-0.32915,0 -0.5943,0.16458 -0.79545,0.49372c-0.19543,0.32305 -0.29258,0.73754 -0.29258,1.24346c0,0.51811 0.09715,0.90516 0.29258,1.16117c0.20115,0.256 0.46001,0.38401 0.77716,0.38401c0.36572,0 0.62745,-0.14326 0.7863,-0.42973c0.16458,-0.29258 0.24686,-0.67049 0.24686,-1.13374c0,-0.59125 -0.10057,-1.02402 -0.30172,-1.29831c-0.20115,-0.28039 -0.43887,-0.42058 -0.71316,-0.42058zM279.36689,177.32794c-0.20743,0 -0.35086,-0.07926 -0.42973,-0.23772c-0.07314,-0.16458 -0.116,-0.42361 -0.128,-0.77716l0.09143,0.04572c-0.34172,0.66442 -0.98745,0.9966 -1.93833,0.9966c-0.43315,0 -0.79259,-0.07617 -1.07888,-0.22857c-0.28687,-0.15846 -0.50001,-0.36572 -0.64001,-0.62173c-0.13429,-0.26212 -0.20115,-0.54555 -0.20115,-0.85031c0,-0.5242 0.18286,-0.93869 0.54858,-1.24346c0.36572,-0.31087 0.85031,-0.4663 1.45375,-0.4663c0.39601,0 0.74059,0.0579 1.03316,0.17372c0.29258,0.11581 0.5423,0.27734 0.74973,0.48458l-0.15543,-0.01829c-0.04286,-0.61563 -0.17715,-1.0545 -0.40229,-1.3166c-0.21943,-0.2682 -0.53373,-0.40229 -0.94174,-0.40229c-0.23772,0 -0.45716,0.03657 -0.6583,0.10971c-0.20115,0.07314 -0.38744,0.14934 -0.55773,0.22857c-0.16458,0.07314 -0.32001,0.10971 -0.4663,0.10971c-0.14629,0 -0.26229,-0.04876 -0.34743,-0.14629c-0.07943,-0.09753 -0.11886,-0.22248 -0.11886,-0.37486c0,-0.21943 0.10343,-0.42668 0.31087,-0.62173c0.21315,-0.19505 0.49372,-0.35354 0.84116,-0.47544c0.34743,-0.12191 0.72516,-0.18286 1.13374,-0.18286c0.49372,0 0.91716,0.11886 1.27089,0.35658c0.35315,0.23772 0.62173,0.58516 0.80459,1.04231c0.15829,0.3901 0.27086,0.82592 0.33829,1.30746c0.06686,0.48154 0.10057,0.9966 0.10057,1.54518c0,0.41447 -0.02172,0.73447 -0.064,0.96002c-0.04286,0.22555 -0.10971,0.38401 -0.20115,0.47544c-0.08572,0.08532 -0.20115,0.128 -0.34743,0.128zM277.34627,176.30391c0.20115,0 0.40515,-0.02743 0.61258,-0.08229c0.20686,-0.06097 0.38058,-0.14932 0.52115,-0.26515c0.14,-0.11583 0.21029,-0.25904 0.21029,-0.42973c0,-0.14629 -0.06114,-0.26515 -0.18286,-0.35658c-0.116,-0.09753 -0.27144,-0.17067 -0.4663,-0.21943c-0.18915,-0.04876 -0.39315,-0.07314 -0.61258,-0.07314c-0.37201,0 -0.65544,0.064 -0.85031,0.19201c-0.18915,0.128 -0.28344,0.29868 -0.28344,0.51201c0,0.23161 0.088,0.41144 0.26515,0.53944c0.18286,0.12189 0.44458,0.18286 0.7863,0.18286zM282.36296,171.73238h-0.18286c-0.01829,-0.2682 -0.012,-0.52115 0.01829,-0.75887c0.03029,-0.24382 0.09429,-0.43887 0.19201,-0.58516c0.10343,-0.15238 0.24972,-0.22857 0.43887,-0.22857c0.17086,0 0.29544,0.05486 0.37486,0.16458c0.07943,0.10972 0.11886,0.2621 0.11886,0.45716c0,0.38401 -0.07314,0.71316 -0.21943,0.98745l-0.16458,-0.01829c0.32915,-0.11581 0.70116,-0.17372 1.11546,-0.17372c0.26229,0 0.46916,0.05181 0.62173,0.15543c0.15829,0.09753 0.23772,0.26515 0.23772,0.50287c0,0.22553 -0.09143,0.3962 -0.27429,0.51201c-0.18286,0.11581 -0.41144,0.17372 -0.68573,0.17372c-0.16458,0 -0.34115,-0.0061 -0.5303,-0.01829c-0.18286,-0.01829 -0.36286,-0.04572 -0.53944,-0.08229l0.15543,-0.19201c0.05486,0.23162 0.10686,0.49677 0.15543,0.79545c0.05486,0.29258 0.10343,0.59734 0.14629,0.9143c0.04286,0.31696 0.076,0.62477 0.10057,0.92345c0.02458,0.29869 0.03657,0.56687 0.03657,0.80459c0,0.39013 -0.06114,0.6979 -0.18286,0.92345c-0.12171,0.22555 -0.30172,0.33829 -0.53944,0.33829c-0.18915,0 -0.33829,-0.05789 -0.44801,-0.17372c-0.10343,-0.11583 -0.18001,-0.26212 -0.22857,-0.43887c-0.04286,-0.18286 -0.07028,-0.37184 -0.08229,-0.56687c-0.00629,-0.19503 -0.00914,-0.37184 -0.00914,-0.5303c0,-0.2682 0.012,-0.56992 0.03657,-0.90516c0.02458,-0.34134 0.05772,-0.69183 0.10057,-1.05145c0.04857,-0.35962 0.10343,-0.70706 0.16458,-1.04231l0.18286,0.15543c-0.31087,0.15848 -0.69487,0.23772 -1.15203,0.23772c-0.28058,0 -0.49658,-0.05181 -0.64916,-0.15543c-0.15258,-0.10362 -0.22857,-0.26515 -0.22857,-0.48458c0,-0.23772 0.08514,-0.42058 0.256,-0.54858c0.17086,-0.1341 0.39944,-0.20115 0.68573,-0.20115c0.18915,0 0.36572,0.01219 0.5303,0.03657c0.17086,0.01829 0.32001,0.04267 0.44801,0.07314zM289.80084,171.51294c0.5423,0 0.93259,0.07925 1.17031,0.23772c0.23772,0.15848 0.35658,0.36268 0.35658,0.61258c0,0.14629 -0.052,0.2682 -0.15543,0.36572c-0.09772,0.09143 -0.23772,0.13715 -0.42058,0.13715c-0.18915,0 -0.38686,-0.02743 -0.5943,-0.08229c-0.20115,-0.05486 -0.43601,-0.08229 -0.70402,-0.08229c-0.31087,0 -0.5423,0.06096 -0.69487,0.18286c-0.15258,0.12191 -0.22857,0.27734 -0.22857,0.4663c0,0.17676 0.06686,0.31696 0.20115,0.42058c0.14,0.09753 0.40515,0.17067 0.79545,0.21943c0.43258,0.04876 0.78916,0.128 1.06974,0.23772c0.28629,0.10362 0.50001,0.2621 0.64001,0.47544c0.14,0.20725 0.21029,0.49372 0.21029,0.85945c0,0.57904 -0.20401,1.00877 -0.61258,1.28917c-0.40858,0.2804 -0.97202,0.42058 -1.69147,0.42058c-0.45716,0 -0.82002,-0.03657 -1.08803,-0.10971c-0.268,-0.07314 -0.46344,-0.17674 -0.58516,-0.31087c-0.116,-0.13412 -0.17372,-0.29258 -0.17372,-0.47544c0,-0.15846 0.052,-0.2804 0.15543,-0.36572c0.10971,-0.09143 0.23772,-0.13715 0.38401,-0.13715c0.14,0 0.28972,0.01829 0.44801,0.05486c0.15829,0.03045 0.32629,0.064 0.50287,0.10057c0.17658,0.03657 0.35944,0.05486 0.54858,0.05486c0.60973,0 0.9143,-0.18897 0.9143,-0.56687c0,-0.128 -0.03029,-0.23162 -0.09143,-0.31087c-0.06114,-0.07925 -0.17086,-0.14324 -0.32915,-0.19201c-0.15829,-0.05486 -0.39029,-0.09753 -0.69487,-0.128c-0.36572,-0.03657 -0.68287,-0.09753 -0.95088,-0.18286c-0.268,-0.09143 -0.47544,-0.23772 -0.62173,-0.43887c-0.14629,-0.20725 -0.21943,-0.49068 -0.21943,-0.85031c0,-0.56687 0.21315,-1.02402 0.64001,-1.37146c0.42687,-0.35354 1.03316,-0.5303 1.81947,-0.5303zM293.17635,170.22377c0.24343,0 0.41715,0.06705 0.52115,0.20115c0.10971,0.1341 0.16458,0.28953 0.16458,0.4663c0,0.21943 -0.06743,0.3901 -0.20115,0.51201c-0.128,0.11581 -0.31087,0.17372 -0.54858,0.17372c-0.23201,0 -0.40573,-0.064 -0.52115,-0.19201c-0.116,-0.1341 -0.17372,-0.28953 -0.17372,-0.4663c0,-0.23162 0.06972,-0.40534 0.21029,-0.52115c0.14,-0.11581 0.32287,-0.17372 0.54858,-0.17372zM293.23121,172.26268c0.19486,0 0.34743,0.18286 0.45716,0.54858c0.11543,0.36572 0.17372,0.94783 0.17372,1.74633c0,0.98133 -0.07028,1.68844 -0.21029,2.12119c-0.14058,0.43275 -0.35372,0.64916 -0.64001,0.64916c-0.21943,0 -0.38115,-0.15846 -0.48458,-0.47544c-0.104,-0.32303 -0.15543,-0.88385 -0.15543,-1.68233c0,-0.98135 0.07886,-1.70975 0.23772,-2.1852c0.16458,-0.48154 0.37144,-0.72231 0.62173,-0.72231zM297.29187,171.51294c0.54287,0 0.93259,0.07925 1.17031,0.23772c0.23772,0.15848 0.35658,0.36268 0.35658,0.61258c0,0.14629 -0.05143,0.2682 -0.15543,0.36572c-0.09715,0.09143 -0.23772,0.13715 -0.42058,0.13715c-0.18858,0 -0.38686,-0.02743 -0.5943,-0.08229c-0.20115,-0.05486 -0.43544,-0.08229 -0.70402,-0.08229c-0.31087,0 -0.5423,0.06096 -0.69487,0.18286c-0.152,0.12191 -0.22857,0.27734 -0.22857,0.4663c0,0.17676 0.06743,0.31696 0.20115,0.42058c0.14058,0.09753 0.40573,0.17067 0.79545,0.21943c0.43315,0.04876 0.78973,0.128 1.06974,0.23772c0.28687,0.10362 0.50001,0.2621 0.64001,0.47544c0.14058,0.20725 0.21029,0.49372 0.21029,0.85945c0,0.57904 -0.20401,1.00877 -0.61258,1.28917c-0.40801,0.2804 -0.97202,0.42058 -1.69147,0.42058c-0.45716,0 -0.81945,-0.03657 -1.08803,-0.10971c-0.268,-0.07314 -0.46287,-0.17674 -0.58516,-0.31087c-0.11543,-0.13412 -0.17372,-0.29258 -0.17372,-0.47544c0,-0.15846 0.052,-0.2804 0.15543,-0.36572c0.10971,-0.09143 0.23772,-0.13715 0.38401,-0.13715c0.14058,0 0.28972,0.01829 0.44801,0.05486c0.15886,0.03045 0.32629,0.064 0.50287,0.10057c0.17715,0.03657 0.36001,0.05486 0.54858,0.05486c0.60973,0 0.9143,-0.18897 0.9143,-0.56687c0,-0.128 -0.03029,-0.23162 -0.09143,-0.31087c-0.06057,-0.07925 -0.17029,-0.14324 -0.32915,-0.19201c-0.15829,-0.05486 -0.38972,-0.09753 -0.69487,-0.128c-0.36572,-0.03657 -0.6823,-0.09753 -0.95088,-0.18286c-0.268,-0.09143 -0.47544,-0.23772 -0.62173,-0.43887c-0.14629,-0.20725 -0.21943,-0.49068 -0.21943,-0.85031c0,-0.56687 0.21372,-1.02402 0.64001,-1.37146c0.42687,-0.35354 1.03316,-0.5303 1.81947,-0.5303zM300.66738,170.22377c0.244,0 0.41773,0.06705 0.52115,0.20115c0.10971,0.1341 0.16458,0.28953 0.16458,0.4663c0,0.21943 -0.06686,0.3901 -0.20115,0.51201c-0.128,0.11581 -0.31087,0.17372 -0.54858,0.17372c-0.23143,0 -0.40515,-0.064 -0.52115,-0.19201c-0.11543,-0.1341 -0.17372,-0.28953 -0.17372,-0.4663c0,-0.23162 0.07028,-0.40534 0.21029,-0.52115c0.14058,-0.11581 0.32343,-0.17372 0.54858,-0.17372zM300.72224,172.26268c0.19543,0 0.34743,0.18286 0.45716,0.54858c0.116,0.36572 0.17372,0.94783 0.17372,1.74633c0,0.98133 -0.06972,1.68844 -0.21029,2.12119c-0.14,0.43275 -0.35315,0.64916 -0.64001,0.64916c-0.21943,0 -0.38058,-0.15846 -0.48458,-0.47544c-0.10343,-0.32303 -0.15543,-0.88385 -0.15543,-1.68233c0,-0.98135 0.07943,-1.70975 0.23772,-2.1852c0.16458,-0.48154 0.37201,-0.72231 0.62173,-0.72231zM197.47105,189.91337c-0.32915,0 -0.49372,-0.17674 -0.49372,-0.5303c0,-0.19503 0.06703,-0.42669 0.20115,-0.69487c0.13406,-0.26818 0.32915,-0.55773 0.58516,-0.86859c0.26206,-0.31087 0.57904,-0.62784 0.95088,-0.95088l-0.00914,0.07314c-0.8107,-0.80459 -1.42632,-1.51163 -1.8469,-2.12119c-0.41452,-0.60956 -0.62173,-1.13677 -0.62173,-1.58175c0,-0.21943 0.05486,-0.39013 0.16458,-0.51201c0.11577,-0.12189 0.26818,-0.18286 0.45716,-0.18286c0.40229,0 0.8015,0.29258 1.19774,0.87773c0.39618,0.58516 0.77105,1.47506 1.1246,2.66977h0.03657c0.23161,-1.25563 0.47847,-2.17605 0.74059,-2.76121c0.26206,-0.59127 0.57293,-0.88688 0.93259,-0.88688c0.17063,0 0.2956,0.06097 0.37486,0.18286c0.08532,0.11583 0.128,0.2804 0.128,0.49372c0,0.17674 -0.03966,0.41144 -0.11886,0.70402c-0.07314,0.28646 -0.17983,0.61258 -0.32001,0.97831c-0.13412,0.35961 -0.29258,0.73447 -0.47544,1.1246c-0.17681,0.39013 -0.37184,0.77413 -0.58516,1.15203c-0.54253,0.98133 -1.00574,1.69758 -1.38975,2.14862c-0.38401,0.45716 -0.72842,0.68573 -1.03316,0.68573zM206.1776,188.18533c-0.20726,0 -0.35047,-0.07926 -0.42973,-0.23772c-0.07314,-0.16458 -0.11583,-0.42361 -0.128,-0.77716l0.09143,0.04572c-0.34132,0.66442 -0.98745,0.9966 -1.93833,0.9966c-0.43275,0 -0.79242,-0.07617 -1.07888,-0.22857c-0.28646,-0.15846 -0.49984,-0.36572 -0.64001,-0.62173c-0.13412,-0.26212 -0.20115,-0.54555 -0.20115,-0.85031c0,-0.52419 0.18286,-0.93871 0.54858,-1.24346c0.36572,-0.31087 0.85031,-0.4663 1.45375,-0.4663c0.39618,0 0.74059,0.05789 1.03316,0.17372c0.29258,0.11583 0.54247,0.27732 0.74973,0.48458l-0.15543,-0.01829c-0.04268,-0.61561 -0.17674,-1.05448 -0.40229,-1.3166c-0.21943,-0.26818 -0.53333,-0.40229 -0.94174,-0.40229c-0.23772,0 -0.45716,0.03657 -0.6583,0.10971c-0.20115,0.07314 -0.38704,0.14932 -0.55773,0.22857c-0.16458,0.07314 -0.32001,0.10971 -0.4663,0.10971c-0.14629,0 -0.26212,-0.04874 -0.34743,-0.14629c-0.07926,-0.09755 -0.11886,-0.22246 -0.11886,-0.37486c0,-0.21943 0.1036,-0.42669 0.31087,-0.62173c0.21332,-0.19503 0.49372,-0.35355 0.84116,-0.47544c0.34743,-0.12189 0.72533,-0.18286 1.13374,-0.18286c0.49372,0 0.91734,0.11886 1.27089,0.35658c0.35355,0.23772 0.62173,0.58516 0.80459,1.04231c0.15846,0.39013 0.27126,0.8259 0.33829,1.30746c0.06703,0.48155 0.10057,0.9966 0.10057,1.54518c0,0.41447 -0.02131,0.73447 -0.064,0.96002c-0.04268,0.22555 -0.10971,0.38401 -0.20115,0.47544c-0.08532,0.08532 -0.20115,0.128 -0.34743,0.128zM204.15698,187.1613c0.20115,0 0.40532,-0.02743 0.61258,-0.08229c0.20726,-0.06097 0.38098,-0.14932 0.52115,-0.26515c0.14017,-0.11583 0.21029,-0.25904 0.21029,-0.42973c0,-0.14629 -0.06097,-0.26515 -0.18286,-0.35658c-0.11583,-0.09755 -0.27126,-0.17069 -0.4663,-0.21943c-0.18897,-0.04874 -0.39315,-0.07314 -0.61258,-0.07314c-0.37184,0 -0.65528,0.064 -0.85031,0.19201c-0.18897,0.128 -0.28344,0.29869 -0.28344,0.51201c0,0.23161 0.0884,0.41144 0.26515,0.53944c0.18286,0.12189 0.44498,0.18286 0.7863,0.18286zM208.838,182.40691c0.19503,0 0.32612,0.07926 0.39315,0.23772c0.07314,0.15846 0.10971,0.39315 0.10971,0.70402c0,0.07314 -0.00611,0.1524 -0.01829,0.23772c-0.00611,0.07926 -0.01829,0.1524 -0.03657,0.21943l-0.01829,-0.18286c0.14629,-0.39618 0.37184,-0.70402 0.67659,-0.92345c0.30475,-0.22555 0.62784,-0.33829 0.96917,-0.33829c0.3779,0 0.69184,0.10669 0.94174,0.32001c0.256,0.21332 0.44498,0.51201 0.56687,0.89602c0.128,0.38401 0.19201,0.83813 0.19201,1.36232c0,0.32303 -0.01525,0.64305 -0.04572,0.96002c-0.0244,0.31087 -0.06097,0.59733 -0.10971,0.85945c-0.04268,0.256 -0.09143,0.4663 -0.14629,0.63087c-0.07314,0.20726 -0.1676,0.3627 -0.28344,0.4663c-0.11583,0.09755 -0.25298,0.14629 -0.41144,0.14629c-0.15846,0 -0.2804,-0.05789 -0.36572,-0.17372c-0.08532,-0.11583 -0.128,-0.27126 -0.128,-0.4663c0,-0.20726 0.01525,-0.45716 0.04572,-0.74973c0.03045,-0.29869 0.05789,-0.60041 0.08229,-0.90516c0.03045,-0.31087 0.04572,-0.59127 0.04572,-0.84116c0,-0.85333 -0.2804,-1.28003 -0.84116,-1.28003c-0.29869,0 -0.54858,0.13412 -0.74973,0.40229c-0.20115,0.26212 -0.33526,0.63699 -0.40229,1.1246c-0.01829,0.16458 -0.02743,0.36875 -0.02743,0.61258c0,0.24384 0,0.48761 0,0.73145c0.00611,0.23772 0,0.43887 -0.01829,0.60344c-0.0244,0.36572 -0.09446,0.62784 -0.21029,0.7863c-0.10971,0.15846 -0.26212,0.23772 -0.45716,0.23772c-0.22555,0 -0.39618,-0.1036 -0.51201,-0.31087c-0.11583,-0.21332 -0.17372,-0.5699 -0.17372,-1.06974c0,-0.256 0.00611,-0.54247 0.01829,-0.85945c0.01217,-0.31698 0.02743,-0.6339 0.04572,-0.95088c0.0244,-0.32303 0.05183,-0.61561 0.08229,-0.87773c0.06097,-0.49372 0.14932,-0.88385 0.26515,-1.17031c0.11583,-0.29258 0.28955,-0.43887 0.52115,-0.43887zM215.4733,187.94761c-0.57298,0 -1.03928,-0.21943 -1.39889,-0.6583c-0.35961,-0.44498 -0.53944,-1.11848 -0.53944,-2.02062c0,-0.96305 0.17372,-1.66707 0.52115,-2.11205c0.34743,-0.44498 0.80459,-0.66744 1.37146,-0.66744c0.33526,0 0.63087,0.08532 0.88688,0.256c0.256,0.17069 0.47544,0.41144 0.6583,0.72231l-0.07314,0.128c-0.01829,-0.08532 -0.03354,-0.17674 -0.04572,-0.27429c-0.01217,-0.09755 -0.01829,-0.17069 -0.01829,-0.21943c0,-0.24989 0.0396,-0.44189 0.11886,-0.57602c0.08532,-0.14017 0.21641,-0.21029 0.39315,-0.21029c0.19503,0 0.34743,0.07926 0.45716,0.23772c0.11583,0.15846 0.20418,0.38401 0.26515,0.67659c0.07926,0.29869 0.14629,0.67962 0.20115,1.14288c0.05486,0.45716 0.08229,0.92042 0.08229,1.38975c0,0.58516 -0.02131,1.07585 -0.064,1.47203c-0.04268,0.39618 -0.11275,0.72533 -0.21029,0.98745c-0.09755,0.26212 -0.22555,0.4907 -0.38401,0.68573c-0.26212,0.31698 -0.60041,0.55773 -1.01488,0.72231c-0.40841,0.17069 -0.88076,0.256 -1.41718,0.256c-0.38401,0 -0.69184,-0.03657 -0.92345,-0.10971c-0.23161,-0.06703 -0.39927,-0.16154 -0.50287,-0.28344c-0.09755,-0.11583 -0.14629,-0.24686 -0.14629,-0.39315c0,-0.1524 0.04268,-0.2804 0.128,-0.38401c0.08532,-0.09755 0.21332,-0.14629 0.38401,-0.14629c0.1524,0 0.32915,0.0244 0.5303,0.07314c0.20726,0.04874 0.45104,0.07314 0.73145,0.07314c0.59127,0 1.00877,-0.14017 1.2526,-0.42058c0.24989,-0.27429 0.37486,-0.67047 0.37486,-1.1886c0,-0.14017 -0.00914,-0.30475 -0.02743,-0.49372l0.128,0.04572c-0.1524,0.39013 -0.3779,0.70402 -0.67659,0.94174c-0.29869,0.23161 -0.64613,0.34743 -1.04231,0.34743zM215.82074,186.82301c0.19503,0 0.39013,-0.05183 0.58516,-0.15543c0.19503,-0.1036 0.35658,-0.27429 0.48458,-0.51201c0.128,-0.23772 0.19201,-0.55773 0.19201,-0.96002c0,-0.48155 -0.11275,-0.87471 -0.33829,-1.17945c-0.22555,-0.30475 -0.54247,-0.45716 -0.95088,-0.45716c-0.35355,0 -0.61258,0.13412 -0.77716,0.40229c-0.16458,0.26818 -0.24686,0.67356 -0.24686,1.21603c0,0.51813 0.08229,0.92345 0.24686,1.21603c0.16458,0.28646 0.43275,0.42973 0.80459,0.42973zM223.61177,182.37034c0.54247,0 0.93259,0.07926 1.17031,0.23772c0.23772,0.15846 0.35658,0.3627 0.35658,0.61258c0,0.14629 -0.05183,0.26818 -0.15543,0.36572c-0.09755,0.09143 -0.23772,0.13715 -0.42058,0.13715c-0.18897,0 -0.38704,-0.02743 -0.5943,-0.08229c-0.20115,-0.05486 -0.43584,-0.08229 -0.70402,-0.08229c-0.31087,0 -0.54247,0.06097 -0.69487,0.18286c-0.1524,0.12189 -0.22857,0.27732 -0.22857,0.4663c0,0.17674 0.06703,0.31698 0.20115,0.42058c0.14017,0.09755 0.40532,0.17069 0.79545,0.21943c0.43275,0.04874 0.78934,0.128 1.06974,0.23772c0.28646,0.1036 0.49984,0.26212 0.64001,0.47544c0.14017,0.20726 0.21029,0.49372 0.21029,0.85945c0,0.57904 -0.20418,1.00877 -0.61258,1.28917c-0.40841,0.2804 -0.97219,0.42058 -1.69147,0.42058c-0.45716,0 -0.81985,-0.03657 -1.08803,-0.10971c-0.26818,-0.07314 -0.46327,-0.17674 -0.58516,-0.31087c-0.11583,-0.13412 -0.17372,-0.29258 -0.17372,-0.47544c0,-0.15846 0.05183,-0.2804 0.15543,-0.36572c0.10971,-0.09143 0.23772,-0.13715 0.38401,-0.13715c0.14017,0 0.28955,0.01829 0.44801,0.05486c0.15846,0.03045 0.32612,0.064 0.50287,0.10057c0.17674,0.03657 0.35961,0.05486 0.54858,0.05486c0.60956,0 0.9143,-0.18897 0.9143,-0.56687c0,-0.128 -0.03045,-0.23161 -0.09143,-0.31087c-0.06097,-0.07926 -0.17069,-0.14326 -0.32915,-0.19201c-0.15846,-0.05486 -0.39013,-0.09755 -0.69487,-0.128c-0.36572,-0.03657 -0.6827,-0.09755 -0.95088,-0.18286c-0.26818,-0.09143 -0.47544,-0.23772 -0.62173,-0.43887c-0.14629,-0.20726 -0.21943,-0.4907 -0.21943,-0.85031c0,-0.56687 0.21332,-1.02402 0.64001,-1.37146c0.42669,-0.35355 1.03316,-0.5303 1.81947,-0.5303zM230.17816,188.18533c-0.20726,0 -0.35047,-0.07926 -0.42973,-0.23772c-0.07314,-0.16458 -0.11583,-0.42361 -0.128,-0.77716l0.09143,0.04572c-0.34132,0.66442 -0.98745,0.9966 -1.93833,0.9966c-0.43275,0 -0.79242,-0.07617 -1.07888,-0.22857c-0.28646,-0.15846 -0.49984,-0.36572 -0.64001,-0.62173c-0.13412,-0.26212 -0.20115,-0.54555 -0.20115,-0.85031c0,-0.52419 0.18286,-0.93871 0.54858,-1.24346c0.36572,-0.31087 0.85031,-0.4663 1.45375,-0.4663c0.39618,0 0.74059,0.05789 1.03316,0.17372c0.29258,0.11583 0.54247,0.27732 0.74973,0.48458l-0.15543,-0.01829c-0.04268,-0.61561 -0.17674,-1.05448 -0.40229,-1.3166c-0.21943,-0.26818 -0.53333,-0.40229 -0.94174,-0.40229c-0.23772,0 -0.45716,0.03657 -0.6583,0.10971c-0.20115,0.07314 -0.38704,0.14932 -0.55773,0.22857c-0.16458,0.07314 -0.32001,0.10971 -0.4663,0.10971c-0.14629,0 -0.26212,-0.04874 -0.34743,-0.14629c-0.07926,-0.09755 -0.11886,-0.22246 -0.11886,-0.37486c0,-0.21943 0.1036,-0.42669 0.31087,-0.62173c0.21332,-0.19503 0.49372,-0.35355 0.84116,-0.47544c0.34743,-0.12189 0.72533,-0.18286 1.13374,-0.18286c0.49372,0 0.91734,0.11886 1.27089,0.35658c0.35355,0.23772 0.62173,0.58516 0.80459,1.04231c0.15846,0.39013 0.27126,0.8259 0.33829,1.30746c0.06703,0.48155 0.10057,0.9966 0.10057,1.54518c0,0.41447 -0.02131,0.73447 -0.064,0.96002c-0.04268,0.22555 -0.10971,0.38401 -0.20115,0.47544c-0.08532,0.08532 -0.20115,0.128 -0.34743,0.128zM228.15754,187.1613c0.20115,0 0.40532,-0.02743 0.61258,-0.08229c0.20726,-0.06097 0.38098,-0.14932 0.52115,-0.26515c0.14017,-0.11583 0.21029,-0.25904 0.21029,-0.42973c0,-0.14629 -0.06097,-0.26515 -0.18286,-0.35658c-0.11583,-0.09755 -0.27126,-0.17069 -0.4663,-0.21943c-0.18897,-0.04874 -0.39315,-0.07314 -0.61258,-0.07314c-0.37184,0 -0.65528,0.064 -0.85031,0.19201c-0.18897,0.128 -0.28344,0.29869 -0.28344,0.51201c0,0.23161 0.0884,0.41144 0.26515,0.53944c0.18286,0.12189 0.44498,0.18286 0.7863,0.18286zM235.84645,183.90637c0.06114,-0.24989 0.168,-0.47544 0.32001,-0.67659c0.15886,-0.20115 0.34743,-0.35961 0.56687,-0.47544c0.22572,-0.12189 0.47258,-0.18286 0.74059,-0.18286c0.31715,0 0.59772,0.07617 0.84116,0.22857c0.244,0.1524 0.43601,0.40229 0.57602,0.74973c0.14629,0.34743 0.21943,0.8107 0.21943,1.38975c0,0.29869 -0.012,0.60041 -0.03657,0.90516c-0.024,0.30475 -0.05486,0.58818 -0.09143,0.85031c-0.03657,0.26212 -0.076,0.48155 -0.11886,0.6583c-0.06057,0.24384 -0.15543,0.42973 -0.28344,0.55773c-0.12171,0.128 -0.27715,0.19201 -0.4663,0.19201c-0.15829,0 -0.28344,-0.07012 -0.37486,-0.21029c-0.09143,-0.14017 -0.13715,-0.34132 -0.13715,-0.60344c0,-0.12189 0.01543,-0.27732 0.04572,-0.4663c0.03086,-0.19503 0.064,-0.40532 0.10057,-0.63087c0.03657,-0.23161 0.07028,-0.4663 0.10057,-0.70402c0.03086,-0.23772 0.04572,-0.46327 0.04572,-0.67659c0,-0.31698 -0.064,-0.56075 -0.19201,-0.73145c-0.128,-0.17674 -0.30744,-0.26515 -0.53944,-0.26515c-0.256,0 -0.46916,0.13412 -0.64001,0.40229c-0.16458,0.26212 -0.26172,0.64613 -0.29258,1.15203c-0.024,0.45104 -0.04572,0.85333 -0.064,1.20688c-0.01829,0.34743 -0.064,0.6339 -0.13715,0.85945c-0.04857,0.15846 -0.11886,0.27732 -0.21029,0.35658c-0.08514,0.07926 -0.20097,0.11886 -0.34726,0.11886c-0.16458,0 -0.2956,-0.06097 -0.39315,-0.18286c-0.09143,-0.12189 -0.14326,-0.31389 -0.15543,-0.57602c-0.01217,-0.21943 -0.01525,-0.47847 -0.00914,-0.77716c0.00611,-0.29869 0.00914,-0.5943 0.00914,-0.88688c0.00611,-0.29869 0.00303,-0.54555 -0.00914,-0.74059c-0.0244,-0.39013 -0.09446,-0.67659 -0.21029,-0.85945c-0.10971,-0.18286 -0.27732,-0.27429 -0.50287,-0.27429c-0.26212,0 -0.47241,0.12189 -0.63087,0.36572c-0.1524,0.24384 -0.24686,0.58213 -0.28344,1.01488c-0.01217,0.17674 -0.01829,0.39618 -0.01829,0.6583c0.00611,0.256 0.01217,0.51201 0.01829,0.76801c0.00611,0.256 0.00303,0.46932 -0.00914,0.64001c-0.00611,0.36572 -0.064,0.62784 -0.17372,0.7863c-0.1036,0.15846 -0.24989,0.23772 -0.43887,0.23772c-0.22555,0 -0.39013,-0.07314 -0.49372,-0.21943c-0.09755,-0.14629 -0.16154,-0.38098 -0.19201,-0.70402c-0.0244,-0.28646 -0.04268,-0.5699 -0.05486,-0.85031c-0.01217,-0.28646 -0.01829,-0.5699 -0.01829,-0.85031c0,-0.28646 0.00611,-0.59733 0.01829,-0.93259c0.01829,-0.33526 0.04268,-0.65219 0.07314,-0.95088c0.03657,-0.30475 0.10057,-0.56075 0.19201,-0.76801c0.09143,-0.20726 0.24384,-0.31087 0.45716,-0.31087c0.17674,0 0.30172,0.0884 0.37486,0.26515c0.07314,0.17069 0.10971,0.43584 0.10971,0.79545c0,0.12189 -0.00914,0.23469 -0.02743,0.33829l-0.02743,-0.18286c0.12189,-0.39618 0.31698,-0.70402 0.58516,-0.92345c0.26818,-0.22555 0.56687,-0.33829 0.89602,-0.33829c0.43275,0 0.77105,0.14017 1.01488,0.42058c0.24384,0.27429 0.37812,0.65528 0.40213,1.14288zM244.22322,188.18533c-0.20743,0 -0.35086,-0.07926 -0.42973,-0.23772c-0.07314,-0.16458 -0.116,-0.42361 -0.128,-0.77716l0.09143,0.04572c-0.34172,0.66442 -0.98745,0.9966 -1.93833,0.9966c-0.43315,0 -0.79259,-0.07617 -1.07888,-0.22857c-0.28687,-0.15846 -0.50001,-0.36572 -0.64001,-0.62173c-0.13429,-0.26212 -0.20115,-0.54555 -0.20115,-0.85031c0,-0.52419 0.18286,-0.93871 0.54858,-1.24346c0.36572,-0.31087 0.85031,-0.4663 1.45375,-0.4663c0.39601,0 0.74059,0.05789 1.03316,0.17372c0.29258,0.11583 0.5423,0.27732 0.74973,0.48458l-0.15543,-0.01829c-0.04286,-0.61561 -0.17715,-1.05448 -0.40229,-1.3166c-0.21943,-0.26818 -0.53373,-0.40229 -0.94174,-0.40229c-0.23772,0 -0.45716,0.03657 -0.6583,0.10971c-0.20115,0.07314 -0.38744,0.14932 -0.55773,0.22857c-0.16458,0.07314 -0.32001,0.10971 -0.4663,0.10971c-0.14629,0 -0.26229,-0.04874 -0.34743,-0.14629c-0.07943,-0.09755 -0.11886,-0.22246 -0.11886,-0.37486c0,-0.21943 0.10343,-0.42669 0.31087,-0.62173c0.21315,-0.19503 0.49372,-0.35355 0.84116,-0.47544c0.34743,-0.12189 0.72516,-0.18286 1.13374,-0.18286c0.49372,0 0.91716,0.11886 1.27089,0.35658c0.35315,0.23772 0.62173,0.58516 0.80459,1.04231c0.15829,0.39013 0.27086,0.8259 0.33829,1.30746c0.06686,0.48155 0.10057,0.9966 0.10057,1.54518c0,0.41447 -0.02172,0.73447 -0.064,0.96002c-0.04286,0.22555 -0.10971,0.38401 -0.20115,0.47544c-0.08572,0.08532 -0.20115,0.128 -0.34743,0.128zM242.2026,187.1613c0.20115,0 0.40515,-0.02743 0.61258,-0.08229c0.20686,-0.06097 0.38058,-0.14932 0.52115,-0.26515c0.14,-0.11583 0.21029,-0.25904 0.21029,-0.42973c0,-0.14629 -0.06114,-0.26515 -0.18286,-0.35658c-0.116,-0.09755 -0.27144,-0.17069 -0.4663,-0.21943c-0.18915,-0.04874 -0.39315,-0.07314 -0.61258,-0.07314c-0.37201,0 -0.65544,0.064 -0.85031,0.19201c-0.18915,0.128 -0.28344,0.29869 -0.28344,0.51201c0,0.23161 0.088,0.41144 0.26515,0.53944c0.18286,0.12189 0.44458,0.18286 0.7863,0.18286zM248.40331,182.42519c0.16458,0 0.30172,0.09755 0.41144,0.29258c0.10971,0.18897 0.18572,0.4907 0.22857,0.90516l-0.19201,0.17372c0.10971,-0.42669 0.31372,-0.75276 0.61258,-0.97831c0.29829,-0.22555 0.65201,-0.33829 1.06059,-0.33829c0.37772,0 0.71316,0.09755 1.00574,0.29258c0.29258,0.19503 0.52115,0.4907 0.68573,0.88688c0.17029,0.39013 0.256,0.88076 0.256,1.47203c0,0.95699 -0.17372,1.66404 -0.52115,2.12119c-0.34172,0.45104 -0.80802,0.67659 -1.39889,0.67659c-0.42687,0 -0.7623,-0.09143 -1.00574,-0.27429c-0.244,-0.18286 -0.41487,-0.40532 -0.51201,-0.66744l0.10971,-0.05486c0.04857,0.36572 0.088,0.72842 0.11886,1.08803c0.03657,0.35355 0.05486,0.66442 0.05486,0.93259c0,0.27429 -0.04914,0.5059 -0.14629,0.69487c-0.09772,0.18897 -0.25315,0.28344 -0.4663,0.28344c-0.20743,0 -0.36286,-0.07926 -0.4663,-0.23772c-0.104,-0.15846 -0.18001,-0.36875 -0.22857,-0.63087c-0.03657,-0.26818 -0.07314,-0.61258 -0.10971,-1.03316c-0.03657,-0.42058 -0.06743,-0.87471 -0.09143,-1.36232c-0.01829,-0.48761 -0.02743,-0.96305 -0.02743,-1.42632c0,-0.47544 0.01486,-0.92042 0.04572,-1.33489c0.03657,-0.42058 0.07886,-0.7619 0.128,-1.02402c0.04229,-0.1524 0.09715,-0.26515 0.16458,-0.33829c0.07314,-0.07926 0.16743,-0.11886 0.28344,-0.11886zM250.14964,183.53151c-0.32915,0 -0.5943,0.16458 -0.79545,0.49372c-0.19543,0.32303 -0.29258,0.73756 -0.29258,1.24346c0,0.51813 0.09715,0.90516 0.29258,1.16117c0.20115,0.256 0.46001,0.38401 0.77716,0.38401c0.36572,0 0.62745,-0.14326 0.7863,-0.42973c0.16458,-0.29258 0.24686,-0.67047 0.24686,-1.13374c0,-0.59127 -0.10057,-1.02402 -0.30172,-1.29831c-0.20115,-0.2804 -0.43887,-0.42058 -0.71316,-0.42058zM257.39324,188.18533c-0.20743,0 -0.35086,-0.07926 -0.42973,-0.23772c-0.07314,-0.16458 -0.116,-0.42361 -0.128,-0.77716l0.09143,0.04572c-0.34172,0.66442 -0.98745,0.9966 -1.93833,0.9966c-0.43315,0 -0.79259,-0.07617 -1.07888,-0.22857c-0.28687,-0.15846 -0.50001,-0.36572 -0.64001,-0.62173c-0.13429,-0.26212 -0.20115,-0.54555 -0.20115,-0.85031c0,-0.52419 0.18286,-0.93871 0.54858,-1.24346c0.36572,-0.31087 0.85031,-0.4663 1.45375,-0.4663c0.39601,0 0.74059,0.05789 1.03316,0.17372c0.29258,0.11583 0.5423,0.27732 0.74973,0.48458l-0.15543,-0.01829c-0.04286,-0.61561 -0.17715,-1.05448 -0.40229,-1.3166c-0.21943,-0.26818 -0.53373,-0.40229 -0.94174,-0.40229c-0.23772,0 -0.45716,0.03657 -0.6583,0.10971c-0.20115,0.07314 -0.38744,0.14932 -0.55773,0.22857c-0.16458,0.07314 -0.32001,0.10971 -0.4663,0.10971c-0.14629,0 -0.26229,-0.04874 -0.34743,-0.14629c-0.07943,-0.09755 -0.11886,-0.22246 -0.11886,-0.37486c0,-0.21943 0.10343,-0.42669 0.31087,-0.62173c0.21315,-0.19503 0.49372,-0.35355 0.84116,-0.47544c0.34743,-0.12189 0.72516,-0.18286 1.13374,-0.18286c0.49372,0 0.91716,0.11886 1.27089,0.35658c0.35315,0.23772 0.62173,0.58516 0.80459,1.04231c0.15829,0.39013 0.27086,0.8259 0.33829,1.30746c0.06686,0.48155 0.10057,0.9966 0.10057,1.54518c0,0.41447 -0.02172,0.73447 -0.064,0.96002c-0.04286,0.22555 -0.10971,0.38401 -0.20115,0.47544c-0.08572,0.08532 -0.20115,0.128 -0.34743,0.128zM255.37262,187.1613c0.20115,0 0.40515,-0.02743 0.61258,-0.08229c0.20686,-0.06097 0.38058,-0.14932 0.52115,-0.26515c0.14,-0.11583 0.21029,-0.25904 0.21029,-0.42973c0,-0.14629 -0.06114,-0.26515 -0.18286,-0.35658c-0.116,-0.09755 -0.27144,-0.17069 -0.4663,-0.21943c-0.18915,-0.04874 -0.39315,-0.07314 -0.61258,-0.07314c-0.37201,0 -0.65544,0.064 -0.85031,0.19201c-0.18915,0.128 -0.28344,0.29869 -0.28344,0.51201c0,0.23161 0.088,0.41144 0.26515,0.53944c0.18286,0.12189 0.44458,0.18286 0.7863,0.18286zM260.0533,182.40691c0.19543,0 0.32629,0.07926 0.39315,0.23772c0.07314,0.15846 0.10971,0.39315 0.10971,0.70402c0,0.07314 -0.00571,0.1524 -0.01829,0.23772c-0.00571,0.07926 -0.01829,0.1524 -0.03657,0.21943l-0.01829,-0.18286c0.14629,-0.39618 0.37201,-0.70402 0.67659,-0.92345c0.30515,-0.22555 0.62801,-0.33829 0.96917,-0.33829c0.37829,0 0.69202,0.10669 0.94174,0.32001c0.256,0.21332 0.44515,0.51201 0.56687,0.89602c0.128,0.38401 0.19201,0.83813 0.19201,1.36232c0,0.32303 -0.01486,0.64305 -0.04572,0.96002c-0.024,0.31087 -0.06057,0.59733 -0.10971,0.85945c-0.04229,0.256 -0.09143,0.4663 -0.14629,0.63087c-0.07314,0.20726 -0.16743,0.3627 -0.28344,0.4663c-0.11543,0.09755 -0.25257,0.14629 -0.41144,0.14629c-0.15829,0 -0.28,-0.05789 -0.36572,-0.17372c-0.08514,-0.11583 -0.128,-0.27126 -0.128,-0.4663c0,-0.20726 0.01543,-0.45716 0.04572,-0.74973c0.03086,-0.29869 0.05828,-0.60041 0.08229,-0.90516c0.03086,-0.31087 0.04572,-0.59127 0.04572,-0.84116c0,-0.85333 -0.28,-1.28003 -0.84116,-1.28003c-0.29829,0 -0.54858,0.13412 -0.74973,0.40229c-0.20115,0.26212 -0.33487,0.63699 -0.40229,1.1246c-0.01829,0.16458 -0.02743,0.36875 -0.02743,0.61258c0,0.24384 0,0.48761 0,0.73145c0.00629,0.23772 0,0.43887 -0.01829,0.60344c-0.024,0.36572 -0.09429,0.62784 -0.21029,0.7863c-0.10971,0.15846 -0.26172,0.23772 -0.45716,0.23772c-0.22515,0 -0.39601,-0.1036 -0.51201,-0.31087c-0.11543,-0.21332 -0.17372,-0.5699 -0.17372,-1.06974c0,-0.256 0.00629,-0.54247 0.01829,-0.85945c0.01258,-0.31698 0.02743,-0.6339 0.04572,-0.95088c0.02458,-0.32303 0.052,-0.61561 0.08229,-0.87773c0.06114,-0.49372 0.14972,-0.88385 0.26515,-1.17031c0.116,-0.29258 0.28972,-0.43887 0.52115,-0.43887zM264.98827,189.99566c-0.244,0 -0.46344,-0.05183 -0.6583,-0.15543c-0.19543,-0.1036 -0.35086,-0.23469 -0.4663,-0.39315c-0.116,-0.15846 -0.17372,-0.32001 -0.17372,-0.48458c0,-0.14017 0.03657,-0.24989 0.10971,-0.32915c0.07314,-0.07926 0.16743,-0.11886 0.28344,-0.11886c0.20115,0 0.41715,0.07617 0.64916,0.22857c0.23143,0.1524 0.45087,0.3627 0.6583,0.63087l-0.13715,-0.01829c-0.104,-0.85333 -0.18286,-1.67015 -0.23772,-2.45034c-0.04914,-0.7863 -0.07314,-1.49032 -0.07314,-2.11205c0,-0.56687 0.04572,-0.99048 0.13715,-1.27089c0.09715,-0.28646 0.256,-0.42973 0.47544,-0.42973c0.24972,0 0.44801,0.19503 0.5943,0.58516c0.14629,0.39013 0.21943,1.04843 0.21943,1.9749c0,0.40841 -0.01258,0.82899 -0.03657,1.26175c-0.02458,0.42669 -0.06114,0.83202 -0.10971,1.21603c-0.04286,0.38401 -0.104,0.70704 -0.18286,0.96917c-0.09772,0.31698 -0.23201,0.54555 -0.40229,0.68573c-0.16458,0.14017 -0.38115,0.21029 -0.64916,0.21029zM265.40885,182.33377c-0.19543,0 -0.35372,-0.04268 -0.47544,-0.128c-0.116,-0.09143 -0.17372,-0.22857 -0.17372,-0.41144c0,-0.20726 0.06972,-0.38098 0.21029,-0.52115c0.14629,-0.14629 0.35029,-0.21943 0.61258,-0.21943c0.21943,0 0.38686,0.05486 0.50287,0.16458c0.11543,0.1036 0.17372,0.24384 0.17372,0.42058c0,0.21943 -0.07943,0.39013 -0.23772,0.51201c-0.15886,0.12189 -0.36286,0.18286 -0.61258,0.18286zM271.4827,188.18533c-0.20743,0 -0.35029,-0.07926 -0.42973,-0.23772c-0.07314,-0.16458 -0.116,-0.42361 -0.128,-0.77716l0.09143,0.04572c-0.34115,0.66442 -0.98745,0.9966 -1.93833,0.9966c-0.43258,0 -0.79259,-0.07617 -1.07888,-0.22857c-0.28629,-0.15846 -0.50001,-0.36572 -0.64001,-0.62173c-0.13429,-0.26212 -0.20115,-0.54555 -0.20115,-0.85031c0,-0.52419 0.18286,-0.93871 0.54858,-1.24346c0.36572,-0.31087 0.85031,-0.4663 1.45375,-0.4663c0.39601,0 0.74059,0.05789 1.03316,0.17372c0.29258,0.11583 0.5423,0.27732 0.74973,0.48458l-0.15543,-0.01829c-0.04286,-0.61561 -0.17658,-1.05448 -0.40229,-1.3166c-0.21943,-0.26818 -0.53315,-0.40229 -0.94174,-0.40229c-0.23772,0 -0.45716,0.03657 -0.6583,0.10971c-0.20115,0.07314 -0.38686,0.14932 -0.55773,0.22857c-0.16458,0.07314 -0.32001,0.10971 -0.4663,0.10971c-0.14629,0 -0.26229,-0.04874 -0.34743,-0.14629c-0.07943,-0.09755 -0.11886,-0.22246 -0.11886,-0.37486c0,-0.21943 0.10343,-0.42669 0.31087,-0.62173c0.21315,-0.19503 0.49372,-0.35355 0.84116,-0.47544c0.34743,-0.12189 0.72516,-0.18286 1.13374,-0.18286c0.49372,0 0.91716,0.11886 1.27089,0.35658c0.35372,0.23772 0.62173,0.58516 0.80459,1.04231c0.15829,0.39013 0.27144,0.8259 0.33829,1.30746c0.06686,0.48155 0.10057,0.9966 0.10057,1.54518c0,0.41447 -0.02114,0.73447 -0.064,0.96002c-0.04286,0.22555 -0.10971,0.38401 -0.20115,0.47544c-0.08514,0.08532 -0.20115,0.128 -0.34743,0.128zM269.46208,187.1613c0.20115,0 0.40515,-0.02743 0.61258,-0.08229c0.20743,-0.06097 0.38115,-0.14932 0.52115,-0.26515c0.14,-0.11583 0.21029,-0.25904 0.21029,-0.42973c0,-0.14629 -0.06114,-0.26515 -0.18286,-0.35658c-0.116,-0.09755 -0.27144,-0.17069 -0.4663,-0.21943c-0.18915,-0.04874 -0.39315,-0.07314 -0.61258,-0.07314c-0.37201,0 -0.65544,0.064 -0.85031,0.19201c-0.18915,0.128 -0.28344,0.29869 -0.28344,0.51201c0,0.23161 0.08857,0.41144 0.26515,0.53944c0.18286,0.12189 0.44515,0.18286 0.7863,0.18286zM274.14334,182.40691c0.19486,0 0.32572,0.07926 0.39315,0.23772c0.07314,0.15846 0.10971,0.39315 0.10971,0.70402c0,0.07314 -0.00629,0.1524 -0.01829,0.23772c-0.00629,0.07926 -0.01829,0.1524 -0.03657,0.21943l-0.01829,-0.18286c0.14629,-0.39618 0.37144,-0.70402 0.67659,-0.92345c0.30458,-0.22555 0.62745,-0.33829 0.96917,-0.33829c0.37772,0 0.69144,0.10669 0.94174,0.32001c0.256,0.21332 0.44458,0.51201 0.56687,0.89602c0.128,0.38401 0.19201,0.83813 0.19201,1.36232c0,0.32303 -0.01543,0.64305 -0.04572,0.96002c-0.02458,0.31087 -0.06114,0.59733 -0.10971,0.85945c-0.04286,0.256 -0.09143,0.4663 -0.14629,0.63087c-0.07314,0.20726 -0.168,0.3627 -0.28344,0.4663c-0.116,0.09755 -0.25315,0.14629 -0.41144,0.14629c-0.15886,0 -0.28058,-0.05789 -0.36572,-0.17372c-0.08572,-0.11583 -0.128,-0.27126 -0.128,-0.4663c0,-0.20726 0.01486,-0.45716 0.04572,-0.74973c0.03029,-0.29869 0.05772,-0.60041 0.08229,-0.90516c0.03029,-0.31087 0.04572,-0.59127 0.04572,-0.84116c0,-0.85333 -0.28058,-1.28003 -0.84116,-1.28003c-0.29887,0 -0.54858,0.13412 -0.74973,0.40229c-0.20115,0.26212 -0.33543,0.63699 -0.40229,1.1246c-0.01829,0.16458 -0.02743,0.36875 -0.02743,0.61258c0,0.24384 0,0.48761 0,0.73145c0.00571,0.23772 0,0.43887 -0.01829,0.60344c-0.02458,0.36572 -0.09486,0.62784 -0.21029,0.7863c-0.10971,0.15846 -0.26229,0.23772 -0.45716,0.23772c-0.22572,0 -0.39658,-0.1036 -0.51201,-0.31087c-0.116,-0.21332 -0.17372,-0.5699 -0.17372,-1.06974c0,-0.256 0.00571,-0.54247 0.01829,-0.85945c0.012,-0.31698 0.02743,-0.6339 0.04572,-0.95088c0.024,-0.32303 0.05143,-0.61561 0.08229,-0.87773c0.06057,-0.49372 0.14915,-0.88385 0.26515,-1.17031c0.11543,-0.29258 0.28915,-0.43887 0.52115,-0.43887zM280.77834,187.94761c-0.57316,0 -1.03945,-0.21943 -1.39889,-0.6583c-0.35944,-0.44498 -0.53944,-1.11848 -0.53944,-2.02062c0,-0.96305 0.17372,-1.66707 0.52115,-2.11205c0.34743,-0.44498 0.80459,-0.66744 1.37146,-0.66744c0.33543,0 0.63087,0.08532 0.88688,0.256c0.256,0.17069 0.47544,0.41144 0.6583,0.72231l-0.07314,0.128c-0.01829,-0.08532 -0.03372,-0.17674 -0.04572,-0.27429c-0.012,-0.09755 -0.01829,-0.17069 -0.01829,-0.21943c0,-0.24989 0.03943,-0.44189 0.11886,-0.57602c0.08514,-0.14017 0.21657,-0.21029 0.39315,-0.21029c0.19486,0 0.34743,0.07926 0.45716,0.23772c0.116,0.15846 0.20401,0.38401 0.26515,0.67659c0.07943,0.29869 0.14629,0.67962 0.20115,1.14288c0.05486,0.45716 0.08229,0.92042 0.08229,1.38975c0,0.58516 -0.02114,1.07585 -0.064,1.47203c-0.04286,0.39618 -0.11257,0.72533 -0.21029,0.98745c-0.09772,0.26212 -0.22572,0.4907 -0.38401,0.68573c-0.26229,0.31698 -0.60058,0.55773 -1.01488,0.72231c-0.40858,0.17069 -0.88059,0.256 -1.41718,0.256c-0.38401,0 -0.69202,-0.03657 -0.92345,-0.10971c-0.23143,-0.06703 -0.39944,-0.16154 -0.50287,-0.28344c-0.09772,-0.11583 -0.14629,-0.24686 -0.14629,-0.39315c0,-0.1524 0.04286,-0.2804 0.128,-0.38401c0.08514,-0.09755 0.21315,-0.14629 0.38401,-0.14629c0.15258,0 0.32915,0.0244 0.5303,0.07314c0.20743,0.04874 0.45087,0.07314 0.73145,0.07314c0.59144,0 1.0086,-0.14017 1.2526,-0.42058c0.24972,-0.27429 0.37486,-0.67047 0.37486,-1.1886c0,-0.14017 -0.00914,-0.30475 -0.02743,-0.49372l0.128,0.04572c-0.15258,0.39013 -0.37772,0.70402 -0.67659,0.94174c-0.29887,0.23161 -0.6463,0.34743 -1.04231,0.34743zM281.12579,186.82301c0.19486,0 0.39029,-0.05183 0.58516,-0.15543c0.19486,-0.1036 0.35658,-0.27429 0.48458,-0.51201c0.128,-0.23772 0.19201,-0.55773 0.19201,-0.96002c0,-0.48155 -0.11257,-0.87471 -0.33829,-1.17945c-0.22572,-0.30475 -0.5423,-0.45716 -0.95088,-0.45716c-0.35372,0 -0.61258,0.13412 -0.77716,0.40229c-0.16458,0.26818 -0.24686,0.67356 -0.24686,1.21603c0,0.51813 0.08229,0.92345 0.24686,1.21603c0.16458,0.28646 0.43258,0.42973 0.80459,0.42973zM285.27616,186.12814c0.244,0 0.43887,0.08532 0.58516,0.256c0.15258,0.16458 0.22857,0.40841 0.22857,0.73145c0,0.29869 -0.07314,0.55161 -0.21943,0.75887c-0.14,0.20726 -0.36858,0.31087 -0.68573,0.31087c-0.256,0 -0.44515,-0.08532 -0.56687,-0.256c-0.116,-0.17069 -0.17372,-0.41144 -0.17372,-0.72231c0,-0.18286 0.02458,-0.35658 0.07314,-0.52115c0.04857,-0.16458 0.13429,-0.29869 0.256,-0.40229c0.12171,-0.1036 0.28972,-0.15543 0.50287,-0.15543z"/></g></g></svg>