<svg version="1.1" xmlns="http://www.w3.org/2000/svg" xmlns:xlink="http://www.w3.org/1999/xlink" width="209.5593" height="55.17178" viewBox="0,0,209.5593,55.17178"><g transform="translate(-135.22035,-152.41411)"><g data-paper-data="{&quot;isPaintingLayer&quot;:true}" fill="#060606" fill-rule="nonzero" stroke="none" stroke-width="1" stroke-linecap="butt" stroke-linejoin="miter" stroke-miterlimit="10" stroke-dasharray="" stroke-dashoffset="0" style="mix-blend-mode: normal"><path d="M136.88535,172.62106c-0.30273,0 -0.5466,-0.10091 -0.73159,-0.30273c-0.185,-0.21859 -0.33636,-0.56345 -0.45409,-1.03431c-0.11773,-0.53822 -0.22704,-1.37904 -0.32795,-2.52272c-0.10091,-1.16045 -0.15137,-2.45548 -0.15137,-3.88498c0,-1.54727 0.04205,-3.05249 0.12613,-4.51566c0.10091,-1.47999 0.24386,-2.7834 0.42886,-3.91021c0.13454,-0.74 0.32795,-1.28658 0.58023,-1.63977c0.26908,-0.36999 0.63908,-0.555 1.10999,-0.555c0.30273,0 0.57181,0.10091 0.80727,0.30273c0.23544,0.20182 0.41204,0.56341 0.52977,1.08477c0.13454,0.52136 0.20182,1.26136 0.20182,2.21999c0,0.4709 -0.01682,1.00908 -0.05046,1.61453c-0.03364,0.58864 -0.08409,1.24454 -0.15137,1.96772h0.10091c1.34544,-1.84999 2.53111,-3.32157 3.55703,-4.41475c1.0259,-1.10999 1.92566,-1.90885 2.6993,-2.39658c0.79044,-0.48773 1.47999,-0.73158 2.06863,-0.73158c0.47087,0 0.82406,0.15137 1.05956,0.45409c0.25228,0.30273 0.37841,0.67272 0.37841,1.10999c0,0.92499 -0.69791,2.03499 -2.09387,3.32999c-1.37909,1.295 -3.60749,2.85067 -6.6852,4.66702l0.20182,-0.47932c2.65726,1.6818 4.66702,3.17017 6.02929,4.4652c1.36227,1.27814 2.04342,2.41335 2.04342,3.40567c0,0.43732 -0.14291,0.79882 -0.42886,1.08477c-0.26911,0.26905 -0.67275,0.40363 -1.21091,0.40363c-0.67273,0 -1.38749,-0.22704 -2.14431,-0.68113c-0.75682,-0.47087 -1.59773,-1.25291 -2.52272,-2.34613c-0.90818,-1.10999 -1.94249,-2.61517 -3.10294,-4.51566h-0.10091c0.03363,0.38686 0.05885,0.79049 0.07568,1.2109c0.01682,0.40363 0.02522,0.80727 0.02522,1.2109c0,1.93404 -0.13455,3.32154 -0.40363,4.16248c-0.2691,0.82404 -0.75682,1.23614 -1.46318,1.23614zM157.8755,172.57061c-1.86681,0 -3.35521,-0.2775 -4.4652,-0.83249c-1.10999,-0.555 -1.90881,-1.35382 -2.39658,-2.39658c-0.48765,-1.04277 -0.73158,-2.28722 -0.73158,-3.73362c0,-1.83317 0.33641,-3.38885 1.00908,-4.66702c0.68958,-1.295 1.63144,-2.28726 2.82545,-2.9768c1.2109,-0.68955 2.58162,-1.03431 4.11203,-1.03431c1.79958,0 3.11984,0.42045 3.96066,1.26136c0.84095,0.82409 1.26136,1.90885 1.26136,3.2543c0,1.07635 -0.28582,2.00976 -0.85773,2.80021c-0.555,0.77359 -1.32859,1.37072 -2.3209,1.79113c-0.99219,0.42041 -2.13586,0.63067 -3.4309,0.63067c-0.72314,0 -1.42105,-0.09246 -2.09385,-0.2775c-0.67269,-0.18504 -1.27814,-0.43732 -1.81635,-0.75682l0.60545,-1.10999c-0.05046,0.40363 -0.07568,0.80727 -0.07568,1.2109c0,1.17723 0.37008,2.02663 1.10999,2.54794c0.74004,0.50454 1.79113,0.75682 3.15339,0.75682c1.05954,0 1.90894,-0.09246 2.54794,-0.2775c0.63913,-0.18504 1.17735,-0.36163 1.61453,-0.52977c0.43732,-0.18504 0.86617,-0.2775 1.28658,-0.2775c0.2355,0 0.44576,0.06723 0.63067,0.20182c0.20182,0.11768 0.36163,0.29428 0.47932,0.52977c0.13459,0.2355 0.20182,0.52132 0.20182,0.85773c0,0.50454 -0.25228,0.99231 -0.75682,1.46318c-0.50454,0.45409 -1.25291,0.83249 -2.24522,1.13523c-0.97541,0.28595 -2.17786,0.42886 -3.60749,0.42886zM156.41232,164.32133c1.19412,0 2.15276,-0.25228 2.87589,-0.75682c0.72327,-0.50454 1.08477,-1.12681 1.08477,-1.86681c0,-0.58864 -0.20182,-1.06795 -0.60545,-1.43795c-0.38674,-0.38683 -1.00064,-0.58023 -1.84159,-0.58023c-0.79037,0 -1.50518,0.15137 -2.14431,0.45409c-0.62223,0.28591 -1.10999,0.66432 -1.46318,1.13523c-0.35318,0.4709 -0.52977,0.98386 -0.52977,1.53886c0,0.48773 0.22704,0.86613 0.68113,1.13523c0.47099,0.25228 1.11845,0.37841 1.94249,0.37841zM169.42664,172.41924c-0.52145,0 -0.9334,-0.11768 -1.23614,-0.35318c-0.30273,-0.25228 -0.54667,-0.66436 -0.73158,-1.23614c-0.25228,-0.84095 -0.44576,-1.90049 -0.58023,-3.17862c-0.11781,-1.29503 -0.17659,-2.88431 -0.17659,-4.76793c0,-1.16045 0.042,-2.3209 0.12613,-3.48134c0.10091,-1.17726 0.22704,-2.24522 0.37841,-3.20385c0.15137,-0.97544 0.31105,-1.73226 0.47932,-2.27044c0.18491,-0.57182 0.40363,-0.96704 0.65591,-1.18568c0.25228,-0.21864 0.53809,-0.32795 0.85773,-0.32795c0.33628,0 0.60545,0.11773 0.80727,0.35318c0.20182,0.21864 0.3615,0.61386 0.47932,1.18568c0.10091,0.555 0.17659,1.23614 0.22704,2.0434c0.06723,0.80727 0.10091,1.67341 0.10091,2.59839c0,1.26136 -0.05891,2.58999 -0.17659,3.98589c-0.11781,1.39591 -0.2775,2.76654 -0.47932,4.11203c-0.18504,1.34549 -0.41208,2.58162 -0.68113,3.7084l-0.70636,-0.35318c0.43719,-0.53822 0.9334,-0.95863 1.4884,-1.26136c0.57178,-0.30273 1.0931,-0.45409 1.56409,-0.45409c0.38674,0 0.68113,0.10936 0.88295,0.32795c0.21859,0.20182 0.32795,0.52132 0.32795,0.95863c0,0.43732 -0.19349,0.8745 -0.58023,1.31181c-0.37008,0.43732 -0.83249,0.79882 -1.38749,1.08477c-0.555,0.26905 -1.10167,0.40363 -1.63977,0.40363zM177.54462,153.01956c0.67281,0 1.15212,0.185 1.43795,0.555c0.30273,0.36999 0.45409,0.79886 0.45409,1.28658c0,0.60545 -0.18491,1.07635 -0.555,1.41272c-0.35318,0.31954 -0.85773,0.47932 -1.51363,0.47932c-0.639,0 -1.11832,-0.17659 -1.43795,-0.52977c-0.3195,-0.36999 -0.47932,-0.79886 -0.47932,-1.28658c0,-0.63909 0.19349,-1.11841 0.58023,-1.43795c0.38686,-0.31955 0.8914,-0.47932 1.51363,-0.47932zM177.69597,158.64521c0.53822,0 0.95863,0.50454 1.26136,1.51363c0.31963,1.00908 0.47932,2.61521 0.47932,4.81839c0,2.70776 -0.19337,4.65857 -0.58023,5.8527c-0.38674,1.19412 -0.97541,1.79113 -1.7659,1.79113c-0.60545,0 -1.05109,-0.43732 -1.33704,-1.31181c-0.28582,-0.8914 -0.42886,-2.43859 -0.42886,-4.6418c0,-2.70772 0.21872,-4.71748 0.65591,-6.02929c0.45409,-1.32863 1.02599,-1.99294 1.71544,-1.99294zM185.24281,172.41924c-0.52132,0 -0.9334,-0.11768 -1.23614,-0.35318c-0.30273,-0.25228 -0.54654,-0.66436 -0.73158,-1.23614c-0.25228,-0.84095 -0.44563,-1.90049 -0.58023,-3.17862c-0.11768,-1.29503 -0.17659,-2.88431 -0.17659,-4.76793c0,-1.16045 0.04213,-2.3209 0.12613,-3.48134c0.10091,-1.17726 0.22704,-2.24522 0.37841,-3.20385c0.15137,-0.97544 0.31117,-1.73226 0.47932,-2.27044c0.18504,-0.57182 0.40363,-0.96704 0.65591,-1.18568c0.25228,-0.21864 0.53822,-0.32795 0.85773,-0.32795c0.33641,0 0.60545,0.11773 0.80727,0.35318c0.20182,0.21864 0.36163,0.61386 0.47932,1.18568c0.10091,0.555 0.17659,1.23614 0.22704,2.0434c0.06736,0.80727 0.10091,1.67341 0.10091,2.59839c0,1.26136 -0.05878,2.58999 -0.17659,3.98589c-0.11768,1.39591 -0.2775,2.76654 -0.47932,4.11203c-0.18491,1.34549 -0.41196,2.58162 -0.68113,3.7084l-0.70636,-0.35318c0.43732,-0.53822 0.9334,-0.95863 1.4884,-1.26136c0.5719,-0.30273 1.09322,-0.45409 1.56409,-0.45409c0.38686,0 0.68113,0.10936 0.88295,0.32795c0.21872,0.20182 0.32795,0.52132 0.32795,0.95863c0,0.43732 -0.19337,0.8745 -0.58023,1.31181c-0.36996,0.43732 -0.83249,0.79882 -1.38749,1.08477c-0.555,0.26905 -1.10154,0.40363 -1.63977,0.40363zM193.36091,153.01956c0.67269,0 1.152,0.185 1.43795,0.555c0.30273,0.36999 0.45409,0.79886 0.45409,1.28658c0,0.60545 -0.18504,1.07635 -0.555,1.41272c-0.35318,0.31954 -0.85773,0.47932 -1.51363,0.47932c-0.63913,0 -1.11845,-0.17659 -1.43795,-0.52977c-0.31963,-0.36999 -0.47932,-0.79886 -0.47932,-1.28658c0,-0.63909 0.19337,-1.11841 0.58023,-1.43795c0.38674,-0.31955 0.89128,-0.47932 1.51363,-0.47932zM193.51228,158.64521c0.53809,0 0.95863,0.50454 1.26136,1.51363c0.3195,1.00908 0.47932,2.61521 0.47932,4.81839c0,2.70776 -0.19349,4.65857 -0.58023,5.8527c-0.38686,1.19412 -0.97553,1.79113 -1.7659,1.79113c-0.60545,0 -1.05122,-0.43732 -1.33704,-1.31181c-0.28595,-0.8914 -0.42886,-2.43859 -0.42886,-4.6418c0,-2.70772 0.21859,-4.71748 0.65591,-6.02929c0.45409,-1.32863 1.02586,-1.99294 1.71544,-1.99294zM200.90774,156.67749c0.53822,0 0.89973,0.21864 1.08477,0.65591c0.20182,0.43727 0.30273,1.08477 0.30273,1.94249c0,0.20182 -0.01678,0.42045 -0.05046,0.65591c-0.01678,0.21864 -0.05046,0.42045 -0.10091,0.60545l-0.05046,-0.50454c0.40363,-1.09318 1.02586,-1.94249 1.86681,-2.54794c0.84095,-0.62227 1.73222,-0.9334 2.67408,-0.9334c1.04277,0 1.90881,0.29431 2.59839,0.88295c0.70636,0.58864 1.22768,1.41272 1.56409,2.47226c0.35318,1.05954 0.52977,2.31249 0.52977,3.75885c0,0.89137 -0.042,1.77435 -0.12613,2.64885c-0.06723,0.85773 -0.16814,1.64822 -0.30273,2.37135c-0.11768,0.70636 -0.25228,1.28658 -0.40363,1.74068c-0.20182,0.57178 -0.46254,1.00064 -0.78204,1.28658c-0.3195,0.26905 -0.69791,0.40363 -1.13523,0.40363c-0.43732,0 -0.77359,-0.15982 -1.00908,-0.47932c-0.2355,-0.3195 -0.35318,-0.74836 -0.35318,-1.28658c0,-0.57178 0.042,-1.26136 0.12613,-2.06863c0.08413,-0.82404 0.15982,-1.65655 0.22704,-2.49749c0.08413,-0.85773 0.12613,-1.63135 0.12613,-2.3209c0,-2.35454 -0.77359,-3.5318 -2.3209,-3.5318c-0.82404,0 -1.51363,0.36999 -2.06863,1.10999c-0.555,0.72318 -0.92495,1.75749 -1.10999,3.10294c-0.05046,0.45409 -0.07568,1.01754 -0.07568,1.69022c0,0.67269 0,1.34549 0,2.01817c0.01678,0.65591 0,1.2109 -0.05046,1.66499c-0.06723,1.00908 -0.26072,1.73222 -0.58023,2.16954c-0.30273,0.43732 -0.72314,0.65591 -1.26136,0.65591c-0.62223,0 -1.09322,-0.28595 -1.41272,-0.85773c-0.3195,-0.58867 -0.47932,-1.57253 -0.47932,-2.95158c0,-0.70636 0.01678,-1.49685 0.05046,-2.37135c0.03368,-0.8745 0.07568,-1.74908 0.12613,-2.62363c0.06723,-0.89137 0.14291,-1.69863 0.22704,-2.42181c0.16814,-1.36227 0.41208,-2.43862 0.73158,-3.22908c0.3195,-0.80727 0.79882,-1.2109 1.43795,-1.2109zM219.2156,171.96516c-1.58098,0 -2.86757,-0.60545 -3.85975,-1.81635c-0.99231,-1.22768 -1.4884,-3.08617 -1.4884,-5.57521c0,-2.65727 0.47932,-4.59975 1.43795,-5.82747c0.95863,-1.22772 2.21999,-1.84159 3.78407,-1.84159c0.92495,0 1.74068,0.23546 2.44704,0.70636c0.70636,0.4709 1.31181,1.13523 1.81635,1.99294l-0.20182,0.35318c-0.05046,-0.23546 -0.09258,-0.48773 -0.12613,-0.75682c-0.03368,-0.26908 -0.05046,-0.4709 -0.05046,-0.60545c0,-0.68955 0.10924,-1.21932 0.32795,-1.58931c0.23537,-0.38683 0.597,-0.58023 1.08477,-0.58023c0.53809,0 0.95863,0.21864 1.26136,0.65591c0.3195,0.43727 0.56332,1.05954 0.73158,1.86681c0.21859,0.82409 0.40363,1.87523 0.555,3.15339c0.15137,1.26136 0.22704,2.53953 0.22704,3.83453c0,1.61453 -0.05891,2.96835 -0.17659,4.06157c-0.11781,1.09322 -0.31117,2.0014 -0.58023,2.72454c-0.26917,0.72314 -0.62236,1.35382 -1.05954,1.89203c-0.72327,0.8745 -1.65667,1.53886 -2.80021,1.99294c-1.1269,0.47087 -2.43026,0.70636 -3.91021,0.70636c-1.05954,0 -1.90894,-0.10091 -2.54794,-0.30273c-0.63913,-0.18504 -1.10167,-0.44563 -1.38749,-0.78204c-0.26917,-0.3195 -0.40363,-0.68113 -0.40363,-1.08477c0,-0.42041 0.11768,-0.77359 0.35318,-1.05954c0.23537,-0.26905 0.58855,-0.40363 1.05954,-0.40363c0.42041,0 0.90818,0.06723 1.46318,0.20182c0.57178,0.13459 1.24445,0.20182 2.01817,0.20182c1.63131,0 2.78331,-0.38686 3.45612,-1.16045c0.68946,-0.75682 1.03431,-1.85003 1.03431,-3.27953c0,-0.38686 -0.02522,-0.84095 -0.07568,-1.36227l0.35318,0.12613c-0.42054,1.07632 -1.04277,1.94249 -1.86681,2.59839c-0.82417,0.63913 -1.7828,0.95863 -2.87589,0.95863zM220.17423,168.86221c0.53809,0 1.07632,-0.14291 1.61453,-0.42886c0.53809,-0.28595 0.98386,-0.75682 1.33704,-1.41272c0.35318,-0.65591 0.52977,-1.53886 0.52977,-2.64885c0,-1.32863 -0.31117,-2.4134 -0.9334,-3.2543c-0.62236,-0.84091 -1.49685,-1.26136 -2.62363,-1.26136c-0.97553,0 -1.69022,0.36999 -2.14431,1.10999c-0.45409,0.74 -0.68113,1.85839 -0.68113,3.35521c0,1.42949 0.22704,2.54794 0.68113,3.35521c0.45409,0.79049 1.194,1.18568 2.21999,1.18568zM240.00593,172.72197c-1.64822,0 -2.9348,-0.6139 -3.85975,-1.84159c-0.92508,-1.24458 -1.38749,-3.13662 -1.38749,-5.67611c0,-2.52272 0.45409,-4.3643 1.36227,-5.52475c0.92495,-1.17726 2.24522,-1.7659 3.96066,-1.7659c0.97541,0 1.82468,0.20182 2.54794,0.60545c0.73991,0.40363 1.39582,0.97544 1.96772,1.71544l-0.20182,0.10091c-0.15137,-0.68955 -0.30273,-1.42113 -0.45409,-2.19476c-0.15137,-0.77363 -0.2775,-1.50522 -0.37841,-2.19476c-0.08413,-0.70636 -0.12613,-1.26136 -0.12613,-1.66499c0,-0.57181 0.09246,-1.00909 0.2775,-1.31181c0.18491,-0.31955 0.47932,-0.47932 0.88295,-0.47932c0.57178,0 1.03431,0.24386 1.38749,0.73158c0.35318,0.4709 0.64745,1.2025 0.88295,2.19476c0.21859,0.89137 0.41196,1.9509 0.58023,3.17862c0.16814,1.2109 0.30273,2.48068 0.40363,3.8093c0.11768,1.31181 0.17659,2.57317 0.17659,3.78407c0,1.68177 -0.09258,2.99358 -0.2775,3.93544c-0.16826,0.92495 -0.41208,1.57253 -0.73158,1.94249c-0.30273,0.36996 -0.66436,0.555 -1.08477,0.555c-0.52145,0 -0.87462,-0.26072 -1.05954,-0.78204c-0.18504,-0.52132 -0.26072,-1.37072 -0.22704,-2.54794h0.37841c-0.45409,1.04277 -1.11845,1.87526 -1.99294,2.49749c-0.85773,0.62223 -1.86681,0.9334 -3.02726,0.9334zM241.34298,169.59381c0.60545,0 1.16045,-0.15137 1.66499,-0.45409c0.52132,-0.3195 0.9334,-0.80727 1.23614,-1.46318c0.3195,-0.65591 0.47932,-1.4884 0.47932,-2.49749c0,-1.295 -0.2944,-2.34613 -0.88295,-3.15339c-0.58867,-0.82409 -1.43795,-1.23614 -2.54794,-1.23614c-0.87462,0 -1.58931,0.36159 -2.14431,1.08477c-0.53822,0.72318 -0.80727,1.81635 -0.80727,3.27953c0,1.29503 0.26905,2.3629 0.80727,3.20385c0.555,0.82404 1.28658,1.23614 2.19476,1.23614zM262.12914,172.62106c-0.5714,0 -0.96746,-0.21859 -1.18593,-0.65591c-0.20182,-0.45409 -0.3195,-1.1689 -0.35318,-2.14431l0.25228,0.12613c-0.94173,1.83313 -2.72454,2.74976 -5.34816,2.74976c-1.194,0 -2.18631,-0.21027 -2.9768,-0.63067c-0.79037,-0.43732 -1.37904,-1.00908 -1.7659,-1.71544c-0.36996,-0.72314 -0.555,-1.50518 -0.555,-2.34613c0,-1.4464 0.50454,-2.58995 1.51363,-3.4309c1.00908,-0.85773 2.34613,-1.28658 4.01112,-1.28658c1.09322,0 2.0434,0.15977 2.85067,0.47932c0.80727,0.31954 1.49685,0.76522 2.06863,1.33704l-0.42886,-0.05046c-0.11768,-1.69863 -0.48765,-2.90954 -1.10999,-3.63271c-0.60545,-0.74 -1.4715,-1.10999 -2.59839,-1.10999c-0.65591,0 -1.26136,0.10091 -1.81635,0.30273c-0.555,0.20182 -1.06786,0.41205 -1.53886,0.63067c-0.45409,0.20182 -0.88295,0.30273 -1.28658,0.30273c-0.40363,0 -0.72314,-0.13455 -0.95863,-0.40363c-0.21859,-0.26908 -0.32795,-0.61387 -0.32795,-1.03431c0,-0.60545 0.28595,-1.17726 0.85773,-1.71544c0.58867,-0.53818 1.36227,-0.97544 2.3209,-1.31181c0.95863,-0.33637 2.0014,-0.50454 3.12817,-0.50454c1.36227,0 2.53117,0.32795 3.50658,0.98386c0.97528,0.65591 1.7157,1.61453 2.22025,2.87589c0.43769,1.07635 0.74799,2.27886 0.9334,3.60749c0.18542,1.32859 0.2775,2.74976 0.2775,4.26339c0,1.14368 -0.05929,2.02663 -0.17659,2.64885c-0.1173,0.62223 -0.30273,1.05954 -0.555,1.31181c-0.23587,0.2355 -0.555,0.35318 -0.95863,0.35318zM256.55369,169.79562c0.555,0 1.11845,-0.07568 1.69022,-0.22704c0.5719,-0.16814 1.05122,-0.41208 1.43795,-0.73158c0.38686,-0.3195 0.58023,-0.71481 0.58023,-1.18568c0,-0.40363 -0.16814,-0.73158 -0.50454,-0.98386c-0.3195,-0.26905 -0.74836,-0.47087 -1.28658,-0.60545c-0.52132,-0.13459 -1.08477,-0.20182 -1.69022,-0.20182c-1.02586,0 -1.8079,0.17659 -2.34613,0.52977c-0.52132,0.35318 -0.78204,0.82404 -0.78204,1.41272c0,0.63913 0.24395,1.13523 0.73158,1.4884c0.50454,0.33641 1.22781,0.50454 2.16954,0.50454zM269.46899,156.67749c0.5386,0 0.90061,0.21864 1.08477,0.65591c0.20182,0.43727 0.30273,1.08477 0.30273,1.94249c0,0.20182 -0.0164,0.42045 -0.05046,0.65591c-0.0164,0.21864 -0.05046,0.42045 -0.10091,0.60545l-0.05046,-0.50454c0.40363,-1.09318 1.02674,-1.94249 1.86681,-2.54794c0.84133,-0.62227 1.73311,-0.9334 2.67408,-0.9334c1.04315,0 1.90969,0.29431 2.59839,0.88295c0.70636,0.58864 1.22856,1.41272 1.56409,2.47226c0.35318,1.05954 0.52977,2.31249 0.52977,3.75885c0,0.89137 -0.04162,1.77435 -0.12613,2.64885c-0.06685,0.85773 -0.16776,1.64822 -0.30273,2.37135c-0.1173,0.70636 -0.25228,1.28658 -0.40363,1.74068c-0.20182,0.57178 -0.46166,1.00064 -0.78204,1.28658c-0.31912,0.26905 -0.69753,0.40363 -1.13523,0.40363c-0.43643,0 -0.77321,-0.15982 -1.00908,-0.47932c-0.23461,-0.3195 -0.35318,-0.74836 -0.35318,-1.28658c0,-0.57178 0.04288,-1.26136 0.12613,-2.06863c0.08451,-0.82404 0.1602,-1.65655 0.22704,-2.49749c0.08451,-0.85773 0.12613,-1.63135 0.12613,-2.3209c0,-2.35454 -0.77321,-3.5318 -2.3209,-3.5318c-0.82366,0 -1.51363,0.36999 -2.06863,1.10999c-0.555,0.72318 -0.92457,1.75749 -1.10999,3.10294c-0.05046,0.45409 -0.07568,1.01754 -0.07568,1.69022c0,0.67269 0,1.34549 0,2.01817c0.01766,0.65591 0,1.2109 -0.05046,1.66499c-0.06685,1.00908 -0.25984,1.73222 -0.58023,2.16954c-0.30273,0.43732 -0.72275,0.65591 -1.26136,0.65591c-0.62185,0 -1.09233,-0.28595 -1.41272,-0.85773c-0.31912,-0.58867 -0.47932,-1.57253 -0.47932,-2.95158c0,-0.70636 0.01766,-1.49685 0.05046,-2.37135c0.03405,-0.8745 0.07568,-1.74908 0.12613,-2.62363c0.06812,-0.89137 0.14379,-1.69863 0.22704,-2.42181c0.16903,-1.36227 0.41246,-2.43862 0.73158,-3.22908c0.32038,-0.80727 0.7997,-1.2109 1.43795,-1.2109zM292.52535,172.52015c-1.02674,0 -1.79113,-0.13459 -2.29567,-0.40363c-0.50454,-0.26905 -0.92583,-0.75682 -1.26136,-1.46318c-0.23587,-0.53822 -0.43769,-1.41272 -0.60545,-2.62363c-0.15137,-1.22768 -0.22704,-2.81699 -0.22704,-4.76793c0,-1.36227 0.02522,-2.66566 0.07568,-3.91021c0.06685,-1.24454 0.15893,-2.20318 0.2775,-2.87589c0.1337,-0.85773 0.35318,-1.47159 0.65591,-1.84159c0.31912,-0.36999 0.71393,-0.555 1.18568,-0.555c0.42003,0 0.74799,0.185 0.98386,0.555c0.25228,0.36999 0.42886,0.87453 0.52977,1.51363c0.10091,0.62227 0.15137,1.31181 0.15137,2.06863c0,2.05181 -0.07568,4.12884 -0.22704,6.23111c-0.13496,2.10231 -0.32795,4.03635 -0.58023,5.80225l-0.32795,-0.45409c0.75682,-0.52132 1.56409,-0.96708 2.42181,-1.33704c0.87412,-0.36996 1.72302,-0.65591 2.54794,-0.85773c0.84007,-0.20182 1.57165,-0.30273 2.19476,-0.30273c0.62185,0 1.07594,0.12613 1.36227,0.37841c0.30273,0.25228 0.45409,0.6139 0.45409,1.08477c0,0.47087 -0.21065,0.95018 -0.63067,1.43795c-0.40363,0.47087 -0.98386,0.88295 -1.74068,1.23614c-0.42129,0.20182 -0.917,0.38686 -1.4884,0.555c-0.57266,0.15137 -1.16045,0.2775 -1.7659,0.37841c-0.58905,0.10091 -1.15289,0.15137 -1.69022,0.15137zM313.281,172.21743c-0.45409,0 -0.80727,-0.15137 -1.05954,-0.45409c-0.23587,-0.3195 -0.39607,-0.72314 -0.47932,-1.2109c-0.08451,-0.50454 -0.12613,-1.03431 -0.12613,-1.58931l0.12613,-0.10091c-0.16903,0.72314 -0.49698,1.34549 -0.98386,1.86681c-0.48815,0.52132 -1.05198,0.92495 -1.69022,1.2109c-0.6395,0.26905 -1.27902,0.40363 -1.91726,0.40363c-0.85773,0 -1.63977,-0.20182 -2.34613,-0.60545c-0.70636,-0.40363 -1.25379,-1.02586 -1.63977,-1.86681c-0.38724,-0.8914 -0.68996,-2.00972 -0.90818,-3.35521c-0.21948,-1.36227 -0.32795,-2.75818 -0.32795,-4.18771c0,-0.77363 0.03279,-1.4884 0.10091,-2.14431c0.06685,-0.65591 0.17659,-1.19409 0.32795,-1.61453c0.1337,-0.43727 0.33552,-0.75682 0.60545,-0.95863c0.26867,-0.21864 0.61302,-0.32795 1.03431,-0.32795c0.48688,0 0.86529,0.1934 1.13523,0.58023c0.28507,0.36999 0.46166,0.89137 0.52977,1.56409c0.06685,0.555 0.10847,1.24454 0.12613,2.06863c0.03279,0.80727 0.05803,1.62295 0.07568,2.44704c0.03279,0.80727 0.07568,1.4884 0.12613,2.0434c0.10091,1.00908 0.36075,1.75745 0.78204,2.24522c0.42003,0.47087 0.9334,0.70636 1.53886,0.70636c0.89052,0 1.57165,-0.33641 2.0434,-1.00908c0.47049,-0.67269 0.70636,-1.61453 0.70636,-2.82545c0,-0.60545 -0.03405,-1.28658 -0.10091,-2.0434c-0.06812,-0.77363 -0.14379,-1.52204 -0.22704,-2.24522c-0.06812,-0.72318 -0.10091,-1.32023 -0.10091,-1.79113c0,-0.79046 0.1337,-1.35385 0.40363,-1.69022c0.26867,-0.35318 0.63825,-0.52977 1.10999,-0.52977c0.40363,0 0.73916,0.10932 1.00908,0.32795c0.28507,0.21864 0.51211,0.52136 0.68113,0.90818c0.23461,0.50454 0.43643,1.19409 0.60545,2.06863c0.16776,0.87453 0.30273,1.86681 0.40363,2.9768c0.10091,1.10999 0.15137,2.27889 0.15137,3.50658c0,1.88359 -0.12613,3.2963 -0.37841,4.23816c-0.25228,0.92495 -0.69879,1.38749 -1.33704,1.38749zM329.0896,172.62106c-0.57266,0 -0.96746,-0.21859 -1.18568,-0.65591c-0.20182,-0.45409 -0.32038,-1.1689 -0.35318,-2.14431l0.25228,0.12613c-0.94224,1.83313 -2.72454,2.74976 -5.34816,2.74976c-1.19451,0 -2.18719,-0.21027 -2.9768,-0.63067c-0.79087,-0.43732 -1.37993,-1.00908 -1.7659,-1.71544c-0.37084,-0.72314 -0.555,-1.50518 -0.555,-2.34613c0,-1.4464 0.50454,-2.58995 1.51363,-3.4309c1.00908,-0.85773 2.34613,-1.28658 4.01112,-1.28658c1.09233,0 2.0434,0.15977 2.85067,0.47932c0.80727,0.31954 1.49597,0.76522 2.06863,1.33704l-0.42886,-0.05046c-0.11857,-1.69863 -0.48815,-2.90954 -1.10999,-3.63271c-0.60545,-0.74 -1.47201,-1.10999 -2.59839,-1.10999c-0.65591,0 -1.26136,0.10091 -1.81635,0.30273c-0.555,0.20182 -1.06837,0.41205 -1.53886,0.63067c-0.45409,0.20182 -0.88295,0.30273 -1.28658,0.30273c-0.40363,0 -0.72402,-0.13455 -0.95863,-0.40363c-0.21948,-0.26908 -0.32795,-0.61387 -0.32795,-1.03431c0,-0.60545 0.28507,-1.17726 0.85773,-1.71544c0.58779,-0.53818 1.36227,-0.97544 2.3209,-1.31181c0.95863,-0.33637 2.00051,-0.50454 3.12817,-0.50454c1.36227,0 2.53029,0.32795 3.50658,0.98386c0.97503,0.65591 1.71544,1.61453 2.21999,2.87589c0.43643,1.07635 0.74799,2.27886 0.9334,3.60749c0.18416,1.32859 0.2775,2.74976 0.2775,4.26339c0,1.14368 -0.05929,2.02663 -0.17659,2.64885c-0.11857,0.62223 -0.30273,1.05954 -0.555,1.31181c-0.23587,0.2355 -0.555,0.35318 -0.95863,0.35318zM323.5144,169.79562c0.555,0 1.11756,-0.07568 1.69022,-0.22704c0.5714,-0.16814 1.05071,-0.41208 1.43795,-0.73158c0.38598,-0.3195 0.58023,-0.71481 0.58023,-1.18568c0,-0.40363 -0.16903,-0.73158 -0.50454,-0.98386c-0.32038,-0.26905 -0.74925,-0.47087 -1.28658,-0.60545c-0.5222,-0.13459 -1.08477,-0.20182 -1.69022,-0.20182c-1.02674,0 -1.80878,0.17659 -2.34613,0.52977c-0.5222,0.35318 -0.78204,0.82404 -0.78204,1.41272c0,0.63913 0.24344,1.13523 0.73158,1.4884c0.50454,0.33641 1.2273,0.50454 2.16954,0.50454zM340.23875,156.57658c1.49723,0 2.57317,0.21864 3.22908,0.65591c0.65591,0.43727 0.98386,1.00068 0.98386,1.69022c0,0.40363 -0.14253,0.74 -0.42886,1.00908c-0.26867,0.25228 -0.65591,0.37841 -1.16045,0.37841c-0.52094,0 -1.06711,-0.07568 -1.63977,-0.22704c-0.555,-0.15137 -1.20207,-0.22704 -1.94249,-0.22704c-0.85773,0 -1.49597,0.16818 -1.91726,0.50454c-0.42003,0.33637 -0.63067,0.76522 -0.63067,1.28658c0,0.48773 0.18542,0.87453 0.555,1.16045c0.38724,0.26908 1.11882,0.4709 2.19476,0.60545c1.19451,0.13455 2.17836,0.35318 2.95158,0.65591c0.79087,0.28591 1.37993,0.72318 1.7659,1.31181c0.38724,0.57178 0.58023,1.36227 0.58023,2.37135c0,1.59776 -0.56257,2.78344 -1.69022,3.55703c-1.12639,0.77359 -2.68164,1.16045 -4.66702,1.16045c-1.26136,0 -2.26161,-0.10091 -3.00203,-0.30273c-0.73916,-0.20182 -1.27776,-0.48777 -1.61453,-0.85773c-0.31912,-0.36996 -0.47932,-0.80727 -0.47932,-1.31181c0,-0.43732 0.14379,-0.77359 0.42886,-1.00908c0.30273,-0.25228 0.65591,-0.37841 1.05954,-0.37841c0.38724,0 0.7997,0.05046 1.23614,0.15137c0.43769,0.08413 0.90061,0.17659 1.38749,0.2775c0.48815,0.10091 0.99269,0.15137 1.51363,0.15137c1.68265,0 2.52272,-0.52132 2.52272,-1.56409c0,-0.35318 -0.08325,-0.63913 -0.25228,-0.85773c-0.16776,-0.21859 -0.47049,-0.39519 -0.90818,-0.52977c-0.43643,-0.15137 -1.07594,-0.26905 -1.91726,-0.35318c-1.00908,-0.10091 -1.88321,-0.26905 -2.62363,-0.50454c-0.73916,-0.25228 -1.31181,-0.65591 -1.71544,-1.2109c-0.40363,-0.57181 -0.60545,-1.35385 -0.60545,-2.34613c0,-1.56409 0.58905,-2.82545 1.7659,-3.78407c1.17811,-0.97544 2.85067,-1.46318 5.02021,-1.46318zM161.32355,202.76753c-1.04264,0 -1.90881,-0.19337 -2.59839,-0.58023c-0.67269,-0.40363 -1.17723,-1.01754 -1.51363,-1.84159c-0.23537,-0.57178 -0.41196,-1.26136 -0.52977,-2.06863c-0.10091,-0.82404 -0.15137,-1.7659 -0.15137,-2.82545c0,-1.81635 0.05891,-3.31321 0.17659,-4.49044c0.11781,-1.19412 0.28595,-2.15276 0.50454,-2.87589c0.2355,-0.74004 0.49621,-1.33704 0.78204,-1.79113c0.45409,-0.68958 1.17735,-1.24458 2.16954,-1.66499c0.99231,-0.42041 2.39658,-0.63067 4.21294,-0.63067c1.2109,0 2.17798,0.18504 2.90112,0.555c0.74004,0.35318 1.26981,0.82404 1.58931,1.41272c0.33641,0.58867 0.50454,1.24458 0.50454,1.96772c0,1.14368 -0.33628,2.0854 -1.00908,2.82545c-0.67269,0.74004 -1.55564,1.32859 -2.64885,1.7659v0.10091c1.19412,0.13459 2.11908,0.52132 2.77499,1.16045c0.67281,0.62223 1.00908,1.51363 1.00908,2.67408c0,0.92495 -0.23537,1.77435 -0.70636,2.54794c-0.45409,0.75682 -1.07632,1.42118 -1.86681,1.99294c-0.77359,0.555 -1.64809,0.99231 -2.62363,1.31181c-0.97541,0.30273 -1.96772,0.45409 -2.9768,0.45409zM162.10559,199.74026c0.80727,0 1.52208,-0.13459 2.14431,-0.40363c0.63913,-0.26905 1.13523,-0.63067 1.4884,-1.08477c0.37008,-0.47087 0.555,-1.00064 0.555,-1.58931c0,-0.63913 -0.31105,-1.1689 -0.9334,-1.58931c-0.60545,-0.43732 -1.55564,-0.65591 -2.85067,-0.65591c-0.8745,0 -1.57241,0.21027 -2.09385,0.63067c-0.50454,0.40363 -0.75682,1.10154 -0.75682,2.09385c0,0.94186 0.20182,1.61453 0.60545,2.01817c0.40363,0.38686 1.01754,0.58023 1.84159,0.58023zM162.2065,191.74326c1.14368,0 2.09385,-0.25228 2.85067,-0.75682c0.77371,-0.52132 1.16045,-1.19412 1.16045,-2.01817c0,-0.60545 -0.24382,-1.09322 -0.73158,-1.46318c-0.48765,-0.36996 -1.20245,-0.555 -2.14431,-0.555c-1.02586,0 -1.86681,0.20182 -2.52272,0.60545c-0.65591,0.40363 -0.98386,1.09322 -0.98386,2.06863c0,0.79049 0.21027,1.34549 0.63067,1.66499c0.43732,0.30273 1.01754,0.45409 1.74068,0.45409zM183.31873,202.89366c-0.5719,0 -0.96708,-0.21859 -1.18568,-0.65591c-0.20182,-0.45409 -0.31963,-1.1689 -0.35318,-2.14431l0.25228,0.12613c-0.94186,1.83313 -2.72454,2.74976 -5.34816,2.74976c-1.19412,0 -2.18644,-0.21027 -2.9768,-0.63067c-0.79049,-0.43732 -1.37916,-1.00908 -1.7659,-1.71544c-0.37008,-0.72314 -0.555,-1.50518 -0.555,-2.34613c0,-1.4464 0.50454,-2.58995 1.51363,-3.4309c1.00908,-0.85773 2.34613,-1.28658 4.01112,-1.28658c1.0931,0 2.0434,0.15982 2.85067,0.47932c0.80727,0.3195 1.49673,0.76527 2.06863,1.33704l-0.42886,-0.05046c-0.11781,-1.69867 -0.48777,-2.90958 -1.10999,-3.63271c-0.60545,-0.74004 -1.47163,-1.10999 -2.59839,-1.10999c-0.65591,0 -1.26136,0.10091 -1.81635,0.30273c-0.555,0.20182 -1.06799,0.41208 -1.53886,0.63067c-0.45409,0.20182 -0.88295,0.30273 -1.28658,0.30273c-0.40363,0 -0.72327,-0.13459 -0.95863,-0.40363c-0.21872,-0.26905 -0.32795,-0.6139 -0.32795,-1.03431c0,-0.60545 0.28582,-1.17723 0.85773,-1.71544c0.58855,-0.53822 1.36227,-0.97541 2.3209,-1.31181c0.95863,-0.33641 2.00127,-0.50454 3.12817,-0.50454c1.36227,0 2.53104,0.32795 3.50658,0.98386c0.97541,0.65591 1.71544,1.61453 2.21999,2.87589c0.43719,1.07632 0.74836,2.27889 0.9334,3.60749c0.18491,1.32859 0.2775,2.74976 0.2775,4.26339c0,1.14368 -0.05891,2.02663 -0.17659,2.64885c-0.11781,0.62223 -0.30273,1.05954 -0.555,1.31181c-0.2355,0.2355 -0.555,0.35318 -0.95863,0.35318zM177.74353,200.06821c0.555,0 1.11832,-0.07568 1.69022,-0.22704c0.57178,-0.16814 1.05109,-0.41208 1.43795,-0.73158c0.38674,-0.3195 0.58023,-0.71481 0.58023,-1.18568c0,-0.40363 -0.16826,-0.73158 -0.50454,-0.98386c-0.31963,-0.26905 -0.74849,-0.47087 -1.28658,-0.60545c-0.52145,-0.13459 -1.08477,-0.20182 -1.69022,-0.20182c-1.02599,0 -1.80803,0.17659 -2.34613,0.52977c-0.52145,0.35318 -0.78204,0.82404 -0.78204,1.41272c0,0.63913 0.24382,1.13523 0.73158,1.4884c0.50454,0.33641 1.22768,0.50454 2.16954,0.50454zM190.65921,186.95009c0.53822,0 0.89973,0.21859 1.08477,0.65591c0.20182,0.43732 0.30273,1.08477 0.30273,1.94249c0,0.20182 -0.01678,0.42041 -0.05046,0.65591c-0.01678,0.21859 -0.05046,0.42041 -0.10091,0.60545l-0.05046,-0.50454c0.40363,-1.09322 1.02586,-1.94249 1.86681,-2.54794c0.84095,-0.62223 1.73222,-0.9334 2.67408,-0.9334c1.04277,0 1.90881,0.29428 2.59839,0.88295c0.70636,0.58867 1.22768,1.41272 1.56409,2.47226c0.35318,1.05954 0.52977,2.31244 0.52977,3.75885c0,0.8914 -0.042,1.77435 -0.12613,2.64885c-0.06723,0.85773 -0.16814,1.64822 -0.30273,2.37135c-0.11768,0.70636 -0.25228,1.28658 -0.40363,1.74068c-0.20182,0.57178 -0.46254,1.00064 -0.78204,1.28658c-0.3195,0.26905 -0.69791,0.40363 -1.13523,0.40363c-0.43732,0 -0.77359,-0.15982 -1.00908,-0.47932c-0.2355,-0.3195 -0.35318,-0.74836 -0.35318,-1.28658c0,-0.57178 0.042,-1.26136 0.12613,-2.06863c0.08413,-0.82404 0.15982,-1.65655 0.22704,-2.49749c0.08413,-0.85773 0.12613,-1.63131 0.12613,-2.3209c0,-2.35458 -0.77359,-3.5318 -2.3209,-3.5318c-0.82404,0 -1.51363,0.36996 -2.06863,1.10999c-0.555,0.72314 -0.92495,1.75745 -1.10999,3.10294c-0.05046,0.45409 -0.07568,1.01754 -0.07568,1.69022c0,0.67269 0,1.34549 0,2.01817c0.01678,0.65591 0,1.2109 -0.05046,1.66499c-0.06723,1.00908 -0.26072,1.73222 -0.58023,2.16954c-0.30273,0.43732 -0.72314,0.65591 -1.26136,0.65591c-0.62223,0 -1.09322,-0.28595 -1.41272,-0.85773c-0.3195,-0.58867 -0.47932,-1.57253 -0.47932,-2.95158c0,-0.70636 0.01678,-1.49685 0.05046,-2.37135c0.03368,-0.8745 0.07568,-1.74913 0.12613,-2.62363c0.06723,-0.8914 0.14291,-1.69867 0.22704,-2.42181c0.16814,-1.36227 0.41208,-2.43859 0.73158,-3.22908c0.3195,-0.80727 0.79882,-1.2109 1.43795,-1.2109zM208.96706,202.23775c-1.58098,0 -2.86757,-0.60545 -3.85975,-1.81635c-0.99231,-1.22768 -1.4884,-3.08617 -1.4884,-5.57521c0,-2.6573 0.47932,-4.5998 1.43795,-5.82747c0.95863,-1.22768 2.21999,-1.84159 3.78407,-1.84159c0.92495,0 1.74068,0.2355 2.44704,0.70636c0.70636,0.47087 1.31181,1.13523 1.81635,1.99294l-0.20182,0.35318c-0.05046,-0.2355 -0.09258,-0.48777 -0.12613,-0.75682c-0.03368,-0.26905 -0.05046,-0.47087 -0.05046,-0.60545c0,-0.68958 0.10924,-1.21936 0.32795,-1.58931c0.23537,-0.38686 0.597,-0.58023 1.08477,-0.58023c0.53809,0 0.95863,0.21859 1.26136,0.65591c0.3195,0.43732 0.56332,1.05954 0.73158,1.86681c0.21859,0.82404 0.40363,1.87526 0.555,3.15339c0.15137,1.26136 0.22704,2.5395 0.22704,3.83453c0,1.61453 -0.05891,2.96835 -0.17659,4.06157c-0.11781,1.09322 -0.31117,2.0014 -0.58023,2.72454c-0.26917,0.72314 -0.62236,1.35382 -1.05954,1.89203c-0.72327,0.8745 -1.65667,1.53886 -2.80021,1.99294c-1.1269,0.47087 -2.43026,0.70636 -3.91021,0.70636c-1.05954,0 -1.90894,-0.10091 -2.54794,-0.30273c-0.63913,-0.18504 -1.10167,-0.44563 -1.38749,-0.78204c-0.26917,-0.3195 -0.40363,-0.68113 -0.40363,-1.08477c0,-0.42041 0.11768,-0.77359 0.35318,-1.05954c0.23537,-0.26905 0.58855,-0.40363 1.05954,-0.40363c0.42041,0 0.90818,0.06723 1.46318,0.20182c0.57178,0.13459 1.24445,0.20182 2.01817,0.20182c1.63131,0 2.78331,-0.38686 3.45612,-1.16045c0.68946,-0.75682 1.03431,-1.85003 1.03431,-3.27953c0,-0.38686 -0.02522,-0.84095 -0.07568,-1.36227l0.35318,0.12613c-0.42054,1.07632 -1.04277,1.94249 -1.86681,2.59839c-0.82417,0.63913 -1.7828,0.95863 -2.87589,0.95863zM209.9257,199.13481c0.53809,0 1.07632,-0.14291 1.61453,-0.42886c0.53809,-0.28595 0.98386,-0.75682 1.33704,-1.41272c0.35318,-0.65591 0.52977,-1.53886 0.52977,-2.64885c0,-1.32859 -0.31117,-2.41335 -0.9334,-3.2543c-0.62236,-0.84095 -1.49685,-1.26136 -2.62363,-1.26136c-0.97553,0 -1.69022,0.36996 -2.14431,1.10999c-0.45409,0.74004 -0.68113,1.85836 -0.68113,3.35521c0,1.42949 0.22704,2.54794 0.68113,3.35521c0.45409,0.79049 1.194,1.18568 2.21999,1.18568zM231.34179,202.49003c-0.45409,0 -0.80727,-0.15137 -1.05954,-0.45409c-0.2355,-0.3195 -0.39531,-0.72314 -0.47932,-1.2109c-0.08413,-0.50454 -0.12613,-1.03431 -0.12613,-1.58931l0.12613,-0.10091c-0.16826,0.72314 -0.49621,1.34549 -0.98386,1.86681c-0.48777,0.52132 -1.05122,0.92495 -1.69022,1.2109c-0.63913,0.26905 -1.27826,0.40363 -1.91726,0.40363c-0.85773,0 -1.63977,-0.20182 -2.34613,-0.60545c-0.70636,-0.40363 -1.25303,-1.02586 -1.63977,-1.86681c-0.38686,-0.8914 -0.68958,-2.00972 -0.90818,-3.35521c-0.21872,-1.36227 -0.32795,-2.75821 -0.32795,-4.18771c0,-0.77359 0.03355,-1.4884 0.10091,-2.14431c0.06723,-0.65591 0.17659,-1.19412 0.32795,-1.61453c0.13446,-0.43732 0.33628,-0.75682 0.60545,-0.95863c0.26905,-0.21859 0.61378,-0.32795 1.03431,-0.32795c0.48765,0 0.86604,0.19337 1.13523,0.58023c0.28582,0.36996 0.46241,0.8914 0.52977,1.56409c0.06723,0.555 0.10924,1.24458 0.12613,2.06863c0.03355,0.80727 0.05878,1.62299 0.07568,2.44704c0.03355,0.80727 0.07568,1.4884 0.12613,2.0434c0.10091,1.00908 0.3615,1.75745 0.78204,2.24522c0.42041,0.47087 0.9334,0.70636 1.53886,0.70636c0.89128,0 1.57241,-0.33641 2.0434,-1.00908c0.47087,-0.67269 0.70636,-1.61453 0.70636,-2.82545c0,-0.60545 -0.03368,-1.28658 -0.10091,-2.0434c-0.06736,-0.77359 -0.14304,-1.52208 -0.22704,-2.24522c-0.06736,-0.72314 -0.10091,-1.32027 -0.10091,-1.79113c0,-0.79049 0.13446,-1.35382 0.40363,-1.69022c0.26905,-0.35318 0.639,-0.52977 1.10999,-0.52977c0.40363,0 0.73991,0.10936 1.00908,0.32795c0.28582,0.21859 0.51287,0.52132 0.68113,0.90818c0.23537,0.50454 0.43719,1.19412 0.60545,2.06863c0.16814,0.8745 0.30273,1.86681 0.40363,2.9768c0.10091,1.10999 0.15137,2.27889 0.15137,3.50658c0,1.88359 -0.12613,3.2963 -0.37841,4.23816c-0.25228,0.92495 -0.69803,1.38749 -1.33704,1.38749zM238.69916,186.95009c0.53822,0 0.89986,0.21859 1.08477,0.65591c0.20182,0.43732 0.30273,1.08477 0.30273,1.94249c0,0.20182 -0.01678,0.42041 -0.05046,0.65591c-0.01678,0.21859 -0.05046,0.42041 -0.10091,0.60545l-0.05046,-0.50454c0.40363,-1.09322 1.02599,-1.94249 1.86681,-2.54794c0.84095,-0.62223 1.73235,-0.9334 2.67408,-0.9334c1.04277,0 1.90894,0.29428 2.59839,0.88295c0.70636,0.58867 1.22781,1.41272 1.56409,2.47226c0.35318,1.05954 0.52977,2.31244 0.52977,3.75885c0,0.8914 -0.042,1.77435 -0.12613,2.64885c-0.06723,0.85773 -0.16814,1.64822 -0.30273,2.37135c-0.11768,0.70636 -0.25228,1.28658 -0.40363,1.74068c-0.20182,0.57178 -0.46241,1.00064 -0.78204,1.28658c-0.3195,0.26905 -0.69791,0.40363 -1.13523,0.40363c-0.43719,0 -0.77359,-0.15982 -1.00908,-0.47932c-0.23537,-0.3195 -0.35318,-0.74836 -0.35318,-1.28658c0,-0.57178 0.04213,-1.26136 0.12613,-2.06863c0.08413,-0.82404 0.15982,-1.65655 0.22704,-2.49749c0.08413,-0.85773 0.12613,-1.63131 0.12613,-2.3209c0,-2.35458 -0.77359,-3.5318 -2.3209,-3.5318c-0.82404,0 -1.51363,0.36996 -2.06863,1.10999c-0.555,0.72314 -0.92495,1.75745 -1.10999,3.10294c-0.05046,0.45409 -0.07568,1.01754 -0.07568,1.69022c0,0.67269 0,1.34549 0,2.01817c0.01691,0.65591 0,1.2109 -0.05046,1.66499c-0.06723,1.00908 -0.26059,1.73222 -0.58023,2.16954c-0.30273,0.43732 -0.72314,0.65591 -1.26136,0.65591c-0.62223,0 -1.0931,-0.28595 -1.41272,-0.85773c-0.3195,-0.58867 -0.47932,-1.57253 -0.47932,-2.95158c0,-0.70636 0.01691,-1.49685 0.05046,-2.37135c0.03368,-0.8745 0.07568,-1.74913 0.12613,-2.62363c0.06736,-0.8914 0.14304,-1.69867 0.22704,-2.42181c0.16826,-1.36227 0.41208,-2.43859 0.73158,-3.22908c0.31963,-0.80727 0.79894,-1.2109 1.43795,-1.2109zM260.77078,203.22161c-1.05954,0 -1.88359,-0.06723 -2.47226,-0.20182c-0.57178,-0.13459 -0.96695,-0.3195 -1.18568,-0.555c-0.21859,-0.25228 -0.33628,-0.52977 -0.35318,-0.83249c0,-0.47087 0.2775,-0.86617 0.83249,-1.18568c0.5719,-0.3195 1.61453,-0.52132 3.12817,-0.60545l-0.40363,0.47932c-0.18491,-0.85773 -0.3195,-1.85836 -0.40363,-3.00203c-0.084,-1.14368 -0.11768,-2.32935 -0.10091,-3.55703c0.01691,-1.22768 0.07568,-2.39658 0.17659,-3.50658c0.10091,-1.12677 0.24395,-2.0854 0.42886,-2.87589l2.19464,-0.15137c-0.36958,0.15137 -0.83249,0.28595 -1.38749,0.40363c-0.55487,0.10091 -1.12665,0.15137 -1.71532,0.15137c-1.07632,0 -1.87514,-0.11768 -2.39658,-0.35318c-0.50454,-0.2355 -0.75682,-0.56345 -0.75682,-0.98386c0,-0.74004 0.44576,-1.31181 1.33704,-1.71544c0.90818,-0.42041 2.29567,-0.63067 4.16236,-0.63067c2.21999,0 4.0868,0.36996 5.60043,1.10999c1.53003,0.72314 2.69047,1.74068 3.48134,3.05249c0.79087,1.29503 1.18568,2.80867 1.18568,4.54089c0,1.51363 -0.26867,2.90958 -0.80727,4.18771c-0.5386,1.26136 -1.31181,2.3629 -2.3209,3.30476c-0.99269,0.92495 -2.18593,1.64822 -3.58225,2.16954c-1.37866,0.50454 -2.92635,0.75682 -4.64168,0.75682zM264.35292,199.33663c0.5714,0 1.17685,-0.22704 1.81635,-0.68113c0.65591,-0.47087 1.2109,-1.152 1.66499,-2.0434c0.45409,-0.90818 0.68113,-2.02663 0.68113,-3.35521c0,-0.97541 -0.14253,-1.82481 -0.42886,-2.54794c-0.26867,-0.74004 -0.62185,-1.35382 -1.05954,-1.84159c-0.43769,-0.48777 -0.89935,-0.84927 -1.38749,-1.08477c-0.48815,-0.25228 -0.94981,-0.37841 -1.38749,-0.37841c-0.35318,0 -0.63067,0.21859 -0.83249,0.65591c-0.18542,0.43732 -0.31912,1.09322 -0.40363,1.96772c-0.08451,0.85773 -0.12613,1.92572 -0.12613,3.20385c0,1.9845 0.10091,3.49812 0.30273,4.54089c0.20182,1.04277 0.58905,1.56409 1.16045,1.56409zM285.92719,202.89366c-0.5714,0 -0.96746,-0.21859 -1.18568,-0.65591c-0.20182,-0.45409 -0.31912,-1.1689 -0.35318,-2.14431l0.25228,0.12613c-0.94224,1.83313 -2.72454,2.74976 -5.34816,2.74976c-1.19451,0 -2.18593,-0.21027 -2.9768,-0.63067c-0.79087,-0.43732 -1.37866,-1.00908 -1.7659,-1.71544c-0.36958,-0.72314 -0.555,-1.50518 -0.555,-2.34613c0,-1.4464 0.50454,-2.58995 1.51363,-3.4309c1.00908,-0.85773 2.34613,-1.28658 4.01112,-1.28658c1.0936,0 2.0434,0.15982 2.85067,0.47932c0.80727,0.3195 1.49723,0.76527 2.06863,1.33704l-0.42886,-0.05046c-0.1173,-1.69867 -0.48815,-2.90958 -1.10999,-3.63271c-0.60545,-0.74004 -1.47201,-1.10999 -2.59839,-1.10999c-0.65591,0 -1.26136,0.10091 -1.81635,0.30273c-0.555,0.20182 -1.06837,0.41208 -1.53886,0.63067c-0.45409,0.20182 -0.88295,0.30273 -1.28658,0.30273c-0.40363,0 -0.72275,-0.13459 -0.95863,-0.40363c-0.21821,-0.26905 -0.32795,-0.6139 -0.32795,-1.03431c0,-0.60545 0.28633,-1.17723 0.85773,-1.71544c0.58905,-0.53822 1.36227,-0.97541 2.3209,-1.31181c0.95863,-0.33641 2.00177,-0.50454 3.12817,-0.50454c1.36227,0 2.53155,0.32795 3.50658,0.98386c0.97503,0.65591 1.71544,1.61453 2.21999,2.87589c0.43769,1.07632 0.74799,2.27889 0.9334,3.60749c0.18542,1.32859 0.2775,2.74976 0.2775,4.26339c0,1.14368 -0.05929,2.02663 -0.17659,2.64885c-0.1173,0.62223 -0.30273,1.05954 -0.555,1.31181c-0.23587,0.2355 -0.555,0.35318 -0.95863,0.35318zM280.35198,200.06821c0.555,0 1.11882,-0.07568 1.69022,-0.22704c0.5714,-0.16814 1.05071,-0.41208 1.43795,-0.73158c0.38724,-0.3195 0.58023,-0.71481 0.58023,-1.18568c0,-0.40363 -0.16776,-0.73158 -0.50454,-0.98386c-0.31912,-0.26905 -0.74799,-0.47087 -1.28658,-0.60545c-0.52094,-0.13459 -1.08477,-0.20182 -1.69022,-0.20182c-1.02548,0 -1.80752,0.17659 -2.34613,0.52977c-0.52094,0.35318 -0.78204,0.82404 -0.78204,1.41272c0,0.63913 0.24344,1.13523 0.73158,1.4884c0.50454,0.33641 1.2273,0.50454 2.16954,0.50454zM294.19413,187.45463h-0.50454c-0.05046,-0.74004 -0.03405,-1.43795 0.05046,-2.09385c0.08451,-0.67269 0.26111,-1.2109 0.52977,-1.61453c0.28633,-0.42041 0.68996,-0.63067 1.2109,-0.63067c0.47049,0 0.8161,0.15137 1.03431,0.45409c0.21821,0.30273 0.32795,0.72314 0.32795,1.26136c0,1.05954 -0.20182,1.96772 -0.60545,2.72454l-0.45409,-0.05046c0.90818,-0.3195 1.93367,-0.47932 3.07771,-0.47932c0.72275,0 1.29541,0.14291 1.71544,0.42886c0.43769,0.26905 0.65591,0.73158 0.65591,1.38749c0,0.62223 -0.25228,1.09322 -0.75682,1.41272c-0.50454,0.3195 -1.13523,0.47932 -1.89203,0.47932c-0.45409,0 -0.94224,-0.01678 -1.46318,-0.05046c-0.50454,-0.05046 -1.00025,-0.12613 -1.4884,-0.22704l0.42886,-0.52977c0.15137,0.63913 0.2939,1.37072 0.42886,2.19476c0.15137,0.80727 0.28633,1.64822 0.40363,2.52272c0.1173,0.8745 0.21065,1.7239 0.2775,2.54794c0.06685,0.82404 0.10091,1.56409 0.10091,2.21999c0,1.07632 -0.16776,1.92572 -0.50454,2.54794c-0.33678,0.62223 -0.83249,0.9334 -1.4884,0.9334c-0.52094,0 -0.9334,-0.15982 -1.23614,-0.47932c-0.28633,-0.3195 -0.49571,-0.72314 -0.63067,-1.2109c-0.1173,-0.50454 -0.19299,-1.02586 -0.22704,-1.56409c-0.0164,-0.53822 -0.02522,-1.02586 -0.02522,-1.46318c0,-0.74004 0.03405,-1.57253 0.10091,-2.49749c0.06685,-0.94186 0.1602,-1.90881 0.2775,-2.90112c0.13496,-0.99231 0.28633,-1.95094 0.45409,-2.87589l0.50454,0.42886c-0.85773,0.43732 -1.91726,0.65591 -3.17862,0.65591c-0.77321,0 -1.3711,-0.14291 -1.79113,-0.42886c-0.42003,-0.28595 -0.63067,-0.73158 -0.63067,-1.33704c0,-0.65591 0.23587,-1.16045 0.70636,-1.51363c0.47049,-0.36996 1.10116,-0.555 1.89203,-0.555c0.52094,0 1.00908,0.03368 1.46318,0.10091c0.47049,0.05046 0.88295,0.11768 1.23614,0.20182zM314.30774,202.89366c-0.5714,0 -0.96746,-0.21859 -1.18568,-0.65591c-0.20182,-0.45409 -0.31912,-1.1689 -0.35318,-2.14431l0.25228,0.12613c-0.94224,1.83313 -2.72454,2.74976 -5.34816,2.74976c-1.19451,0 -2.18593,-0.21027 -2.9768,-0.63067c-0.79087,-0.43732 -1.37866,-1.00908 -1.7659,-1.71544c-0.36958,-0.72314 -0.555,-1.50518 -0.555,-2.34613c0,-1.4464 0.50454,-2.58995 1.51363,-3.4309c1.00908,-0.85773 2.34613,-1.28658 4.01112,-1.28658c1.0936,0 2.0434,0.15982 2.85067,0.47932c0.80727,0.3195 1.49723,0.76527 2.06863,1.33704l-0.42886,-0.05046c-0.1173,-1.69867 -0.48815,-2.90958 -1.10999,-3.63271c-0.60545,-0.74004 -1.47201,-1.10999 -2.59839,-1.10999c-0.65591,0 -1.26136,0.10091 -1.81635,0.30273c-0.555,0.20182 -1.06837,0.41208 -1.53886,0.63067c-0.45409,0.20182 -0.88295,0.30273 -1.28658,0.30273c-0.40363,0 -0.72275,-0.13459 -0.95863,-0.40363c-0.21821,-0.26905 -0.32795,-0.6139 -0.32795,-1.03431c0,-0.60545 0.28633,-1.17723 0.85773,-1.71544c0.58905,-0.53822 1.36227,-0.97541 2.3209,-1.31181c0.95863,-0.33641 2.00177,-0.50454 3.12817,-0.50454c1.36227,0 2.53155,0.32795 3.50658,0.98386c0.97503,0.65591 1.71544,1.61453 2.21999,2.87589c0.43769,1.07632 0.74799,2.27889 0.9334,3.60749c0.18542,1.32859 0.2775,2.74976 0.2775,4.26339c0,1.14368 -0.05929,2.02663 -0.17659,2.64885c-0.1173,0.62223 -0.30273,1.05954 -0.555,1.31181c-0.23587,0.2355 -0.555,0.35318 -0.95863,0.35318zM308.73255,200.06821c0.555,0 1.11882,-0.07568 1.69022,-0.22704c0.5714,-0.16814 1.05071,-0.41208 1.43795,-0.73158c0.38724,-0.3195 0.58023,-0.71481 0.58023,-1.18568c0,-0.40363 -0.16776,-0.73158 -0.50454,-0.98386c-0.31912,-0.26905 -0.74799,-0.47087 -1.28658,-0.60545c-0.52094,-0.13459 -1.08477,-0.20182 -1.69022,-0.20182c-1.02548,0 -1.80752,0.17659 -2.34613,0.52977c-0.52094,0.35318 -0.78204,0.82404 -0.78204,1.41272c0,0.63913 0.24344,1.13523 0.73158,1.4884c0.50454,0.33641 1.2273,0.50454 2.16954,0.50454zM319.07568,191.26394c0,-1.61453 0.15137,-2.77499 0.45409,-3.48134c0.30273,-0.72314 0.73158,-1.08477 1.28658,-1.08477c0.43643,0 0.78204,0.18504 1.03431,0.555c0.25228,0.35318 0.43643,0.79882 0.555,1.33704c0.1173,0.52132 0.17659,1.05109 0.17659,1.58931l-0.12613,-0.05046c0.28507,-0.90818 0.72275,-1.69022 1.31181,-2.34613c0.60545,-0.65591 1.32821,-0.98386 2.16954,-0.98386c0.99143,0 1.72302,0.41208 2.19476,1.23614c0.47049,0.80727 0.70636,1.81635 0.70636,3.02726c0,1.61453 -0.18542,2.74131 -0.555,3.38044c-0.37084,0.63913 -0.86656,0.95863 -1.4884,0.95863c-0.45409,0 -0.79087,-0.18504 -1.00908,-0.555c-0.20182,-0.36996 -0.26993,-1.02586 -0.20182,-1.96772c0.06685,-0.99231 0.00757,-1.68177 -0.17659,-2.06863c-0.18542,-0.38686 -0.47932,-0.58023 -0.88295,-0.58023c-0.48815,0 -0.89178,0.31117 -1.2109,0.9334c-0.30273,0.60545 -0.45409,1.35382 -0.45409,2.24522c0,0.35318 0.04162,0.79882 0.12613,1.33704c0.08325,0.53822 0.17659,1.12677 0.2775,1.7659c0.10091,0.62223 0.19299,1.24458 0.2775,1.86681c0.08325,0.62223 0.12613,1.19412 0.12613,1.71544c0,0.92495 -0.14379,1.58931 -0.42886,1.99294c-0.28633,0.40363 -0.68996,0.60545 -1.2109,0.60545c-0.58905,0 -1.04315,-0.18504 -1.36227,-0.555c-0.32038,-0.38686 -0.56383,-1.00908 -0.73158,-1.86681c-0.13496,-0.77359 -0.26993,-1.69022 -0.40363,-2.74976c-0.13496,-1.05954 -0.2447,-2.14431 -0.32795,-3.2543c-0.08451,-1.10999 -0.12613,-2.11063 -0.12613,-3.00203z"/></g></g></svg>