<svg version="1.1" xmlns="http://www.w3.org/2000/svg" xmlns:xlink="http://www.w3.org/1999/xlink" width="44.05394" height="19.59891" viewBox="0,0,44.05394,19.59891"><g transform="translate(-217.97303,-170.20055)"><g data-paper-data="{&quot;isPaintingLayer&quot;:true}" fill-rule="nonzero" stroke-linecap="butt" stroke-linejoin="miter" stroke-miterlimit="10" stroke-dasharray="" stroke-dashoffset="0" style="mix-blend-mode: normal"><g><path d="" fill="#ececec" stroke="none" stroke-width="1"/><path d="" fill="none" stroke="#dcd6d6" stroke-width="1.5"/><path d="" fill="none" stroke="#dcd6d6" stroke-width="1.5"/><path d="" fill="none" stroke="#dcd6d6" stroke-width="1.5"/><path d="" fill="none" stroke="#dcd6d6" stroke-width="1.5"/><path d="" fill="none" stroke="#dcd6d6" stroke-width="1.5"/><path d="" fill="none" stroke="#dcd6d6" stroke-width="1.5"/><path d="" fill="none" stroke="#dcd6d6" stroke-width="1.5"/><path d="" fill="none" stroke="#dcd6d6" stroke-width="1.5"/><path d="" fill="none" stroke="#dcd6d6" stroke-width="1.5"/><path d="" fill="none" stroke="#dcd6d6" stroke-width="1.5"/><path d="" fill="none" stroke="#dcd6d6" stroke-width="1.5"/><path d="" fill="none" stroke="#dcd6d6" stroke-width="1.5"/><path d="" fill="none" stroke="#dcd6d6" stroke-width="1.5"/><path d="" fill="none" stroke="#dcd6d6" stroke-width="1.5"/><path d="" fill="none" stroke="#dcd6d6" stroke-width="1.5"/><path d="" fill="none" stroke="#dcd6d6" stroke-width="1.5"/><path d="" fill="none" stroke="#dcd6d6" stroke-width="1.5"/><path d="" fill="none" stroke="#dcd6d6" stroke-width="1.5"/><path d="" fill="none" stroke="#dcd6d6" stroke-width="1.5"/><path d="" fill="none" stroke="#dcd6d6" stroke-width="1.5"/><path d="" fill="none" stroke="#dcd6d6" stroke-width="1.5"/><path d="" fill="none" stroke="#dcd6d6" stroke-width="1.5"/><path d="" fill="none" stroke="#dcd6d6" stroke-width="1.5"/><path d="" fill="none" stroke="#dcd6d6" stroke-width="1.5"/><path d="" fill="none" stroke="#dcd6d6" stroke-width="1.5"/><path d="" fill="none" stroke="#dcd6d6" stroke-width="1.5"/><path d="" fill="none" stroke="#dcd6d6" stroke-width="1.5"/><path d="" fill="none" stroke="#dcd6d6" stroke-width="1.5"/><path d="" fill="none" stroke="#dcd6d6" stroke-width="1.5"/><path d="" fill="none" stroke="#dcd6d6" stroke-width="1.5"/><path d="" fill="none" stroke="#dcd6d6" stroke-width="1.5"/><path d="" fill="none" stroke="#dcd6d6" stroke-width="1.5"/><path d="" fill="none" stroke="#dcd6d6" stroke-width="1.5"/><path d="" fill="none" stroke="#dcd6d6" stroke-width="1.5"/><path d="" fill="none" stroke="#dcd6d6" stroke-width="1.5"/><path d="" fill="none" stroke="#dcd6d6" stroke-width="1.5"/><path d="" fill="none" stroke="#dcd6d6" stroke-width="1.5"/><path d="" fill="none" stroke="#dcd6d6" stroke-width="1.5"/><path d="" fill="none" stroke="#dcd6d6" stroke-width="1.5"/><path d="" fill="none" stroke="#dcd6d6" stroke-width="1.5"/><g><path d="" fill="#ebebeb" stroke="none" stroke-width="1"/><path d="" fill="none" stroke="#000000" stroke-width="0.5"/></g><path d="" fill="#737373" stroke="none" stroke-width="1"/><path d="" fill="#737373" stroke="none" stroke-width="1"/><path d="" fill="#737373" stroke="none" stroke-width="1"/><path d="" fill="#737373" stroke="none" stroke-width="1"/></g><path d="" fill="#000000" stroke="none" stroke-width="1"/><path d="" fill="#000000" stroke="none" stroke-width="1"/><path d="" fill="#a5a7a9" stroke="#000000" stroke-width="1"/><path d="" fill="#000000" stroke="none" stroke-width="1"/><path d="M221.36471,170.70055h37.27058c1.59685,0 2.89168,1.24922 2.89168,2.78983v13.01923c0,1.54061 -1.29483,2.78984 -2.89168,2.78984h-37.27058c-1.59685,0 -2.89167,-1.24924 -2.89167,-2.78984v-13.01923c0,-1.54061 1.29483,-2.78983 2.89167,-2.78983z" fill="#a5a7a9" stroke="#000000" stroke-width="1"/><path d="M231.61926,177.9411c0.14587,0 0.29431,0.07935 0.44532,0.23868c0.15551,0.15437 0.31809,0.38624 0.48772,0.69561c0.16965,0.30937 0.35341,0.69313 0.55133,1.15252c0.20242,0.4594 0.42412,0.99131 0.66446,1.59578h0.02828c-0.03277,-0.21822 -0.06361,-0.45691 -0.09188,-0.71606c-0.02827,-0.25914 -0.05398,-0.52077 -0.07775,-0.78426c-0.02377,-0.26348 -0.04241,-0.50898 -0.05656,-0.73651c-0.00964,-0.23187 -0.01414,-0.42965 -0.01414,-0.59331c0,-0.37756 0.03534,-0.64352 0.10603,-0.79789c0.07518,-0.15933 0.19085,-0.23869 0.34636,-0.23869c0.1086,0 0.19534,0.02728 0.26154,0.08183c0.06619,0.05457 0.12274,0.13391 0.16965,0.23868c0.1086,0.25481 0.18635,0.60445 0.23326,1.05022c0.04691,0.44575 0.07068,0.95476 0.07068,1.52761c0,0.44079 -0.01864,0.81587 -0.05656,1.12524c-0.03791,0.30937 -0.10859,0.54308 -0.21205,0.70242c-0.10345,0.15933 -0.25446,0.23869 -0.45239,0.23869c-0.13172,0 -0.26603,-0.05021 -0.40291,-0.15002c-0.13688,-0.10478 -0.27567,-0.25667 -0.41705,-0.45691c-0.13688,-0.2046 -0.28017,-0.4594 -0.43118,-0.76381c-0.14587,-0.3044 -0.30138,-0.65902 -0.46652,-1.06385c-0.16001,-0.40918 -0.32966,-0.8661 -0.50894,-1.37074h-0.02829c0.03277,0.23621 0.06104,0.51581 0.08481,0.83882c0.02377,0.323 0.04241,0.6522 0.05656,0.98884c0.01414,0.33664 0.0212,0.64538 0.0212,0.92747c0,0.42281 -0.04498,0.72288 -0.13431,0.90019c-0.08481,0.17731 -0.21912,0.26596 -0.40291,0.26596c-0.20242,0 -0.34893,-0.09114 -0.43825,-0.27278c-0.08481,-0.18661 -0.12724,-0.47304 -0.12724,-0.85927c0,-0.24118 0.0045,-0.51582 0.01414,-0.82517c0.01414,-0.30937 0.03277,-0.6274 0.05656,-0.95475c0.02377,-0.32734 0.05397,-0.63855 0.09188,-0.93429c0.04691,-0.36826 0.11311,-0.63423 0.19792,-0.79789c0.08481,-0.168 0.22876,-0.25232 0.43118,-0.25232zM237.61726,182.84439c-0.52307,0 -0.94012,-0.07502 -1.25114,-0.22505c-0.31101,-0.15003 -0.53463,-0.36577 -0.67151,-0.64785c-0.13688,-0.28209 -0.20498,-0.61811 -0.20498,-1.0093c0,-0.49535 0.09445,-0.91631 0.28273,-1.26162c0.19342,-0.35028 0.45688,-0.61811 0.79168,-0.80471c0.33929,-0.18661 0.72356,-0.27961 1.15218,-0.27961c0.50445,0 0.87393,0.11345 1.10976,0.34099c0.23584,0.22257 0.35343,0.51581 0.35343,0.87972c0,0.29077 -0.08033,0.54308 -0.24033,0.75698c-0.15551,0.20893 -0.37205,0.37072 -0.65031,0.48418c-0.27823,0.11346 -0.59826,0.17049 -0.96133,0.17049c-0.20242,0 -0.39841,-0.02479 -0.58668,-0.07502c-0.18829,-0.05023 -0.35793,-0.1184 -0.50894,-0.20459l0.16965,-0.30007c-0.01414,0.10912 -0.02121,0.21822 -0.02121,0.32734c0,0.31803 0.10345,0.54805 0.31102,0.68879c0.20756,0.1364 0.50186,0.20459 0.88357,0.20459c0.29689,0 0.53465,-0.02479 0.71393,-0.07501c0.17928,-0.05023 0.32964,-0.09796 0.45238,-0.14322c0.12274,-0.05023 0.2429,-0.07501 0.3605,-0.07501c0.06619,0 0.12465,0.01798 0.17672,0.05457c0.05656,0.03162 0.10153,0.07935 0.13431,0.14321c0.03791,0.06386 0.05654,0.14073 0.05654,0.23187c0,0.1364 -0.07068,0.26845 -0.21206,0.39554c-0.14138,0.12274 -0.35086,0.22505 -0.6291,0.30688c-0.2731,0.0775 -0.61047,0.11594 -1.01081,0.11594zM237.20728,180.61439c0.3348,0 0.60338,-0.06821 0.80582,-0.2046c0.20242,-0.1364 0.30394,-0.3044 0.30394,-0.50464c0,-0.15933 -0.05653,-0.2889 -0.16965,-0.38872c-0.1086,-0.10478 -0.28018,-0.15685 -0.51602,-0.15685c-0.22169,0 -0.42155,0.04093 -0.60084,0.12275c-0.17414,0.0775 -0.31101,0.17979 -0.40998,0.30688c-0.09895,0.12709 -0.14845,0.26596 -0.14845,0.41599c0,0.13205 0.06361,0.23435 0.19085,0.30688c0.13172,0.06821 0.31359,0.1023 0.54428,0.1023zM240.28853,182.85121c-0.13237,0 -0.24547,-0.04526 -0.33929,-0.1364c-0.09447,-0.09547 -0.14138,-0.21389 -0.14138,-0.35461c0,-0.16367 0.06811,-0.34099 0.20498,-0.53192c0.13624,-0.19529 0.33416,-0.38624 0.59376,-0.57285c0.26346,-0.18661 0.57706,-0.35028 0.94012,-0.49102v-0.02728c-0.59889,-0.2455 -1.03907,-0.52077 -1.32182,-0.82517c-0.27823,-0.3044 -0.41705,-0.58401 -0.41705,-0.83881c0,-0.10478 0.02314,-0.19344 0.0707,-0.26598c0.05141,-0.07253 0.11759,-0.12957 0.19792,-0.17049c0.08481,-0.04092 0.17158,-0.06137 0.26154,-0.06137c0.19278,0 0.37914,0.07067 0.55842,0.21141c0.18379,0.1364 0.36243,0.33416 0.53722,0.5933c0.17414,0.25481 0.3438,0.56169 0.50894,0.92064h0.02828c0.24033,-0.62306 0.48965,-1.07502 0.74927,-1.3571c0.26346,-0.28643 0.53722,-0.42964 0.81995,-0.42964c0.13624,0 0.24226,0.0434 0.31807,0.12958c0.07518,0.08183 0.11309,0.18661 0.11309,0.31371c0,0.30006 -0.13431,0.5933 -0.40291,0.87972c-0.2686,0.28643 -0.67666,0.55674 -1.22286,0.81153v0.0341c0.50379,0.26844 0.87843,0.54805 1.1239,0.83882c0.24933,0.28643 0.37463,0.53876 0.37463,0.75698c0,0.1364 -0.04241,0.2455 -0.12722,0.32734c-0.08033,0.08183 -0.17672,0.12274 -0.28981,0.12274c-0.19792,0 -0.38171,-0.07067 -0.55134,-0.21141c-0.16965,-0.14074 -0.3303,-0.33666 -0.48067,-0.5865c-0.14651,-0.25481 -0.28532,-0.54557 -0.41705,-0.8729h-0.02827c-0.17479,0.41352 -0.356,0.7545 -0.54429,1.02294c-0.18379,0.26348 -0.37014,0.4594 -0.55842,0.58649c-0.18892,0.12274 -0.37463,0.18413 -0.55842,0.18413zM245.73711,178.68443h-0.14137c-0.01414,-0.20024 -0.00899,-0.38872 0.01413,-0.56602c0.02377,-0.18165 0.07325,-0.32734 0.14845,-0.43647c0.08033,-0.11346 0.19342,-0.17049 0.33929,-0.17049c0.13237,0 0.22876,0.04093 0.28981,0.12276c0.06169,0.08183 0.09188,0.19528 0.09188,0.34098c0,0.28643 -0.05653,0.53192 -0.16965,0.73652l-0.12724,-0.01364c0.25447,-0.08617 0.54236,-0.12957 0.86237,-0.12957c0.20306,0 0.36307,0.03844 0.48067,0.11594c0.12274,0.07253 0.18379,0.19777 0.18379,0.37508c0,0.168 -0.0707,0.29572 -0.21207,0.3819c-0.14138,0.08617 -0.31808,0.12957 -0.53014,0.12957c-0.12723,0 -0.26347,-0.00434 -0.40998,-0.01364c-0.14138,-0.01364 -0.28017,-0.0341 -0.41705,-0.06137l0.12017,-0.14321c0.04241,0.17297 0.08288,0.37072 0.12016,0.59329c0.04241,0.21822 0.08033,0.44575 0.1131,0.68195c0.03341,0.23621 0.05912,0.46622 0.07775,0.68879c0.01928,0.22257 0.02828,0.42281 0.02828,0.60013c0,0.29077 -0.04691,0.52077 -0.14137,0.68879c-0.09382,0.168 -0.23327,0.25232 -0.41706,0.25232c-0.14587,0 -0.26154,-0.04339 -0.34635,-0.12957c-0.07968,-0.08617 -0.13879,-0.19529 -0.17672,-0.32734c-0.03277,-0.1364 -0.05398,-0.27712 -0.06361,-0.42281c-0.0045,-0.14569 -0.00707,-0.27713 -0.00707,-0.39555c0,-0.20024 0.00964,-0.4253 0.02828,-0.67513c0.01928,-0.25481 0.04498,-0.51582 0.07776,-0.78426c0.03791,-0.26844 0.08033,-0.52759 0.12723,-0.77743l0.14138,0.11592c-0.24033,0.11842 -0.53721,0.17731 -0.89064,0.17731c-0.21655,0 -0.38362,-0.03844 -0.50186,-0.11592c-0.1176,-0.0775 -0.17673,-0.19777 -0.17673,-0.36145c0,-0.17731 0.0662,-0.3137 0.19792,-0.40917c0.13237,-0.09981 0.30909,-0.15003 0.53015,-0.15003c0.14651,0 0.28274,0.0093 0.40998,0.02727c0.13237,0.01364 0.2474,0.03162 0.34636,0.05455z" fill="#000000" stroke="none" stroke-width="1"/></g></g></svg>