<svg version="1.1" xmlns="http://www.w3.org/2000/svg" xmlns:xlink="http://www.w3.org/1999/xlink" width="279.54244" height="30.80483" viewBox="0,0,279.54244,30.80483"><g transform="translate(-100.22878,-164.59758)"><g data-paper-data="{&quot;isPaintingLayer&quot;:true}" fill="#000000" fill-rule="nonzero" stroke="none" stroke-width="1" stroke-linecap="butt" stroke-linejoin="miter" stroke-miterlimit="10" stroke-dasharray="" stroke-dashoffset="0" style="mix-blend-mode: normal"><path d="M107.40773,175.77882c-0.19591,0 -0.37318,-0.05128 -0.53177,-0.15394c-0.14928,-0.10266 -0.26589,-0.27988 -0.34985,-0.53177c-0.08396,-0.26119 -0.12594,-0.62044 -0.12594,-1.07754c0,-0.66238 0.014,-1.37141 0.04198,-2.12709c0.02799,-0.765 0.0653,-1.53467 0.11196,-2.30901c0.05598,-0.78367 0.10728,-1.53935 0.15394,-2.26703h-0.05598c-0.32654,1.35275 -0.67638,2.37898 -1.04955,3.07868c-0.37318,0.69038 -0.78834,1.03556 -1.24547,1.03556c-0.27988,0 -0.54111,-0.12594 -0.78367,-0.37784c-0.23324,-0.26122 -0.4618,-0.69503 -0.68571,-1.30145c-0.21458,-0.61574 -0.45248,-1.45071 -0.7137,-2.50493h-0.05598c0.02799,0.49446 0.05598,1.02157 0.08396,1.58133c0.02799,0.55976 0.0513,1.12419 0.06997,1.69327c0.02799,0.56909 0.04663,1.1102 0.05598,1.62331c0.01866,0.51311 0.02799,0.97025 0.02799,1.37141c0,0.34516 -0.03266,0.66242 -0.09796,0.9516c-0.05598,0.28918 -0.16327,0.51778 -0.32186,0.68571c-0.14928,0.16793 -0.35918,0.2519 -0.62974,0.2519c-0.36385,0 -0.6344,-0.14464 -0.81166,-0.43381c-0.17726,-0.29858 -0.26589,-0.78836 -0.26589,-1.46937c0,-0.40116 0.00932,-0.86763 0.02799,-1.39941c0.02799,-0.5411 0.06064,-1.0962 0.09796,-1.66529c0.03732,-0.57842 0.08396,-1.13351 0.13994,-1.66529c0.05598,-0.5411 0.11662,-1.01224 0.18192,-1.4134c0.11196,-0.6344 0.26589,-1.08221 0.4618,-1.34343c0.19591,-0.27055 0.45713,-0.40583 0.78367,-0.40583c0.27055,0 0.53643,0.12127 0.79766,0.36384c0.26122,0.23323 0.53177,0.6344 0.81165,1.20349c0.27988,0.55976 0.57376,1.3341 0.88162,2.32301h0.05598c0.29853,-1.00757 0.58307,-1.81456 0.85364,-2.42097c0.27055,-0.61574 0.53177,-1.05887 0.78367,-1.32943c0.2519,-0.27055 0.4898,-0.40583 0.7137,-0.40583c0.35451,0 0.62506,0.13994 0.81165,0.41982c0.18658,0.27055 0.34052,0.65771 0.4618,1.16151c0.13994,0.57842 0.2519,1.2548 0.33586,2.02913c0.08396,0.77434 0.14459,1.56733 0.18192,2.37898c0.04663,0.80234 0.06997,1.55334 0.06997,2.25304c0,0.80236 -0.11662,1.37141 -0.34985,1.70727c-0.23324,0.32656 -0.54111,0.4898 -0.92361,0.4898zM116.57838,175.80681c-0.31716,0 -0.53637,-0.12125 -0.65771,-0.36384c-0.11196,-0.2519 -0.17722,-0.64842 -0.19591,-1.1895l0.13994,0.06997c-0.52238,1.01687 -1.51135,1.52535 -2.96674,1.52535c-0.66231,0 -1.21279,-0.11664 -1.6513,-0.34985c-0.43841,-0.24259 -0.76497,-0.55976 -0.97958,-0.9516c-0.20522,-0.40113 -0.30785,-0.83495 -0.30785,-1.30145c0,-0.80234 0.27987,-1.43671 0.83962,-1.90319c0.55976,-0.4758 1.30145,-0.7137 2.22505,-0.7137c0.60644,0 1.13351,0.08864 1.58133,0.26589c0.44781,0.17726 0.83034,0.42448 1.14751,0.74168l-0.2379,-0.02799c-0.06528,-0.94227 -0.27048,-1.61398 -0.61574,-2.01515c-0.33586,-0.4105 -0.81625,-0.61574 -1.44139,-0.61574c-0.36384,0 -0.6997,0.05598 -1.00757,0.16793c-0.30787,0.11196 -0.59235,0.22858 -0.85364,0.34985c-0.2519,0.11196 -0.4898,0.16793 -0.7137,0.16793c-0.2239,0 -0.40113,-0.07464 -0.53177,-0.2239c-0.12125,-0.14926 -0.18192,-0.34053 -0.18192,-0.57376c0,-0.33586 0.15864,-0.65306 0.4758,-0.9516c0.32656,-0.29854 0.75567,-0.5411 1.28745,-0.7277c0.53177,-0.1866 1.11022,-0.27988 1.73527,-0.27988c0.75567,0 1.40409,0.18192 1.94517,0.54577c0.54116,0.36384 0.9516,0.89561 1.23147,1.59531c0.24259,0.59707 0.41522,1.26414 0.51778,2.00115c0.10266,0.73701 0.15394,1.52535 0.15394,2.36499c0,0.63442 -0.03258,1.12422 -0.09796,1.46937c-0.06528,0.34516 -0.16793,0.58775 -0.30787,0.7277c-0.13054,0.13064 -0.30787,0.19591 -0.53177,0.19591zM113.4857,174.23948c0.30787,0 0.62044,-0.04198 0.9376,-0.12594c0.31726,-0.09326 0.58316,-0.2286 0.79766,-0.40583c0.21461,-0.17726 0.32186,-0.3965 0.32186,-0.65771c0,-0.2239 -0.09326,-0.40583 -0.27988,-0.54577c-0.17722,-0.14926 -0.41512,-0.26122 -0.7137,-0.33586c-0.28918,-0.07464 -0.60174,-0.11196 -0.9376,-0.11196c-0.56906,0 -1.00287,0.09796 -1.30145,0.29387c-0.28918,0.19591 -0.43381,0.45713 -0.43381,0.78367c0,0.35452 0.13535,0.62974 0.40583,0.82565c0.27988,0.18662 0.6811,0.27988 1.20349,0.27988zM119.22295,169.35555c0,-0.89561 0.08396,-1.53935 0.2519,-1.93117c0.16793,-0.40116 0.40583,-0.60174 0.7137,-0.60174c0.24259,0 0.43381,0.10263 0.57376,0.30787c0.13994,0.19591 0.24259,0.44314 0.30787,0.74168c0.06528,0.2892 0.09796,0.58307 0.09796,0.88162l-0.06997,-0.02799c0.15864,-0.50378 0.40113,-0.9376 0.7277,-1.30145c0.33586,-0.36384 0.73699,-0.54577 1.20349,-0.54577c0.55047,0 0.95629,0.22858 1.21748,0.68571c0.26119,0.44781 0.39184,1.00757 0.39184,1.67928c0,0.89561 -0.10266,1.52067 -0.30787,1.87521c-0.20522,0.35452 -0.48049,0.53177 -0.82565,0.53177c-0.2519,0 -0.43852,-0.10263 -0.55976,-0.30787c-0.11196,-0.20524 -0.14923,-0.56909 -0.11196,-1.09154c0.03728,-0.55044 0.0047,-0.93293 -0.09796,-1.14751c-0.10266,-0.21458 -0.26589,-0.32186 -0.4898,-0.32186c-0.27058,0 -0.49448,0.1726 -0.67171,0.51778c-0.16793,0.33586 -0.2519,0.75101 -0.2519,1.24547c0,0.19591 0.02329,0.44314 0.06997,0.74168c0.04668,0.29854 0.09796,0.62506 0.15394,0.97958c0.05598,0.34518 0.10726,0.69038 0.15394,1.03556c0.04668,0.34518 0.06997,0.66242 0.06997,0.9516c0,0.51308 -0.07926,0.88162 -0.2379,1.10553c-0.15864,0.2239 -0.38254,0.33586 -0.67171,0.33586c-0.32656,0 -0.57845,-0.10266 -0.75567,-0.30787c-0.17722,-0.21461 -0.31257,-0.55976 -0.40583,-1.03556c-0.07467,-0.42912 -0.14923,-0.9376 -0.2239,-1.52535c-0.07467,-0.58775 -0.13524,-1.1895 -0.18192,-1.80523c-0.04668,-0.61574 -0.06997,-1.17083 -0.06997,-1.66529zM127.10979,164.93345c0.37314,0 0.63903,0.10263 0.79766,0.30787c0.16793,0.20524 0.2519,0.44314 0.2519,0.7137c0,0.33586 -0.10266,0.59707 -0.30787,0.78367c-0.19591,0.17726 -0.4758,0.26589 -0.83964,0.26589c-0.35454,0 -0.62044,-0.09796 -0.79766,-0.29387c-0.17722,-0.20524 -0.26589,-0.44314 -0.26589,-0.7137c0,-0.35452 0.10726,-0.6204 0.32186,-0.79766c0.21461,-0.17726 0.49448,-0.26589 0.83964,-0.26589zM127.19374,168.05411c0.29858,0 0.53177,0.27988 0.6997,0.83964c0.17722,0.55976 0.26589,1.45071 0.26589,2.67286c0,1.50203 -0.10726,2.5842 -0.32186,3.24662c-0.21461,0.66242 -0.54107,0.99357 -0.97958,0.99357c-0.33586,0 -0.58306,-0.24259 -0.74168,-0.7277c-0.15864,-0.49448 -0.2379,-1.35273 -0.2379,-2.57491c0,-1.50203 0.12125,-2.61688 0.36384,-3.34458c0.2519,-0.73701 0.56906,-1.10553 0.9516,-1.10553zM136.6586,167.35441c-0.43841,0.13062 -0.84424,0.23323 -1.21748,0.30787c-0.37314,0.0653 -0.72299,0.09796 -1.04955,0.09796c-0.29848,0 -0.53177,-0.06064 -0.6997,-0.18192c-0.16793,-0.12127 -0.2519,-0.3032 -0.2519,-0.54577c0,-0.20524 0.06997,-0.40116 0.20991,-0.58775c0.13994,-0.1866 0.35454,-0.35452 0.64372,-0.50378c0.34526,-0.16793 0.78367,-0.30787 1.31544,-0.41982c0.53177,-0.11196 1.15221,-0.16793 1.86121,-0.16793c0.4758,0 0.89102,0.03266 1.24547,0.09796c0.35454,0.05598 0.63442,0.12594 0.83964,0.20991c0.27058,0.11196 0.4572,0.24257 0.55976,0.39184c0.11196,0.13994 0.16793,0.3032 0.16793,0.4898c0,0.23323 -0.08396,0.42448 -0.2519,0.57376c-0.16793,0.14926 -0.43841,0.2239 -0.81165,0.2239c-0.2239,0 -0.4571,-0.014 -0.6997,-0.04198c-0.2332,-0.02799 -0.48039,-0.0653 -0.74168,-0.11196zM137.6242,166.59874c0.4758,0.59707 0.84434,1.29212 1.10553,2.08511c0.27058,0.78367 0.40583,1.60464 0.40583,2.46295c0,0.89561 -0.12594,1.69795 -0.37784,2.40697c-0.2425,0.6997 -0.63433,1.25477 -1.1755,1.66529c-0.54107,0.40113 -1.25947,0.60174 -2.15508,0.60174c-1.10083,0 -1.92647,-0.30787 -2.47695,-0.92361c-0.55037,-0.61574 -0.82565,-1.46005 -0.82565,-2.53292c0,-0.52244 0.06536,-0.96559 0.19591,-1.32943c0.13994,-0.36384 0.32186,-0.63906 0.54577,-0.82565c0.2239,-0.19591 0.4665,-0.29387 0.7277,-0.29387c0.24259,0 0.42452,0.07464 0.54577,0.2239c0.13064,0.13994 0.19591,0.34053 0.19591,0.60174c0,0.21458 -0.03728,0.45248 -0.11196,0.7137c-0.06528,0.2519 -0.09796,0.49912 -0.09796,0.74168c0,0.62506 0.10736,1.08221 0.32186,1.37141c0.2239,0.27988 0.57845,0.41982 1.06355,0.41982c0.64372,0 1.09623,-0.26119 1.35741,-0.78367c0.27058,-0.53177 0.40583,-1.2548 0.40583,-2.16907c0,-0.66238 -0.06997,-1.31077 -0.20991,-1.94517c-0.13994,-0.6344 -0.36384,-1.28277 -0.67171,-1.94517zM147.55934,175.80681c-0.31726,0 -0.53648,-0.12125 -0.65771,-0.36384c-0.11196,-0.2519 -0.17732,-0.64842 -0.19591,-1.1895l0.13994,0.06997c-0.52248,1.01687 -1.51135,1.52535 -2.96674,1.52535c-0.66242,0 -1.21288,-0.11664 -1.6513,-0.34985c-0.43852,-0.24259 -0.76507,-0.55976 -0.97958,-0.9516c-0.20532,-0.40113 -0.30787,-0.83495 -0.30787,-1.30145c0,-0.80234 0.27988,-1.43671 0.83964,-1.90319c0.55976,-0.4758 1.30145,-0.7137 2.22505,-0.7137c0.60634,0 1.13351,0.08864 1.58133,0.26589c0.44781,0.17726 0.83025,0.42448 1.14751,0.74168l-0.2379,-0.02799c-0.06536,-0.94227 -0.27058,-1.61398 -0.61574,-2.01515c-0.33586,-0.4105 -0.81635,-0.61574 -1.44139,-0.61574c-0.36384,0 -0.6997,0.05598 -1.00757,0.16793c-0.30787,0.11196 -0.59244,0.22858 -0.85364,0.34985c-0.2519,0.11196 -0.4898,0.16793 -0.7137,0.16793c-0.2239,0 -0.40122,-0.07464 -0.53177,-0.2239c-0.12135,-0.14926 -0.18192,-0.34053 -0.18192,-0.57376c0,-0.33586 0.15854,-0.65306 0.4758,-0.9516c0.32645,-0.29854 0.75567,-0.5411 1.28745,-0.7277c0.53177,-0.1866 1.11013,-0.27988 1.73527,-0.27988c0.75567,0 1.40401,0.18192 1.94517,0.54577c0.54107,0.36384 0.9516,0.89561 1.23147,1.59531c0.2425,0.59707 0.41512,1.26414 0.51778,2.00115c0.10255,0.73701 0.15394,1.52535 0.15394,2.36499c0,0.63442 -0.03268,1.12422 -0.09796,1.46937c-0.06536,0.34516 -0.16793,0.58775 -0.30787,0.7277c-0.13064,0.13064 -0.30787,0.19591 -0.53177,0.19591zM144.46667,174.23948c0.30787,0 0.62034,-0.04198 0.9376,-0.12594c0.31716,-0.09326 0.58306,-0.2286 0.79766,-0.40583c0.21451,-0.17726 0.32186,-0.3965 0.32186,-0.65771c0,-0.2239 -0.09336,-0.40583 -0.27988,-0.54577c-0.17732,-0.14926 -0.41522,-0.26122 -0.7137,-0.33586c-0.28928,-0.07464 -0.60174,-0.11196 -0.9376,-0.11196c-0.56916,0 -1.00297,0.09796 -1.30145,0.29387c-0.28928,0.19591 -0.43381,0.45713 -0.43381,0.78367c0,0.35452 0.13524,0.62974 0.40583,0.82565c0.27988,0.18662 0.68102,0.27988 1.20349,0.27988zM149.70003,169.98529c0,-0.97025 0.11196,-1.66995 0.33586,-2.09911c0.2333,-0.42914 0.53648,-0.64372 0.90961,-0.64372c0.21461,0 0.37784,0.0793 0.4898,0.2379c0.12135,0.14926 0.20532,0.35452 0.2519,0.61574c0.04668,0.2519 0.06997,0.53644 0.06997,0.85364c0,0.40116 0,0.8723 0,1.4134c0.0094,0.53177 0.01868,1.08221 0.02799,1.6513c0.01868,0.55976 0.03739,1.08221 0.05598,1.56733h0.05598c0.28928,-1.22215 0.57845,-2.22505 0.86763,-3.00872c0.29858,-0.78367 0.60174,-1.36209 0.90961,-1.73527c0.31726,-0.3825 0.63442,-0.57376 0.9516,-0.57376c0.34526,0 0.67171,0.19126 0.97958,0.57376c0.31726,0.37317 0.62513,0.94227 0.92361,1.70727c0.30787,0.765 0.62044,1.73059 0.9376,2.89676h0.05598c0.02799,-0.80234 0.04668,-1.64663 0.05598,-2.53292c0.0094,-0.88629 0.014,-1.69795 0.014,-2.43496c0,-0.53177 0.08866,-0.92361 0.26589,-1.1755c0.17732,-0.2519 0.42452,-0.37784 0.74168,-0.37784c0.40122,0 0.6904,0.20991 0.86763,0.62974c0.18662,0.4105 0.27988,0.96559 0.27988,1.66529c0,0.51311 -0.02799,1.06355 -0.08396,1.6513c-0.04658,0.57842 -0.11655,1.13818 -0.20991,1.67928c-0.09326,0.5411 -0.20522,1.01224 -0.33586,1.4134c-0.19591,0.59705 -0.41512,1.04955 -0.65771,1.35741c-0.2332,0.30787 -0.54107,0.4618 -0.92361,0.4618c-0.34516,0 -0.69031,-0.20062 -1.03556,-0.60174c-0.33586,-0.41052 -0.65302,-1.02157 -0.9516,-1.83321c-0.29848,-0.81165 -0.57376,-1.82389 -0.82565,-3.03671h-0.05598c-0.2425,1.15683 -0.53177,2.12709 -0.86763,2.91076c-0.32645,0.77438 -0.67631,1.35741 -1.04955,1.74925c-0.36384,0.39184 -0.7277,0.58775 -1.09154,0.58775c-0.38244,0 -0.7043,-0.17262 -0.96559,-0.51778c-0.2519,-0.34516 -0.4618,-0.87693 -0.62974,-1.59531c-0.07457,-0.36384 -0.13994,-0.75101 -0.19591,-1.16151c-0.05598,-0.41982 -0.09796,-0.83031 -0.12594,-1.23147c-0.02799,-0.40116 -0.04198,-0.75567 -0.04198,-1.06355zM167.06073,175.80681c-0.31716,0 -0.53637,-0.12125 -0.65771,-0.36384c-0.11196,-0.2519 -0.17722,-0.64842 -0.19591,-1.1895l0.13994,0.06997c-0.52238,1.01687 -1.51135,1.52535 -2.96674,1.52535c-0.66231,0 -1.21279,-0.11664 -1.6513,-0.34985c-0.43841,-0.24259 -0.76497,-0.55976 -0.97958,-0.9516c-0.20522,-0.40113 -0.30787,-0.83495 -0.30787,-1.30145c0,-0.80234 0.27988,-1.43671 0.83964,-1.90319c0.55976,-0.4758 1.30145,-0.7137 2.22505,-0.7137c0.60644,0 1.13351,0.08864 1.58133,0.26589c0.44781,0.17726 0.83034,0.42448 1.14751,0.74168l-0.2379,-0.02799c-0.06528,-0.94227 -0.27048,-1.61398 -0.61574,-2.01515c-0.33586,-0.4105 -0.81625,-0.61574 -1.44139,-0.61574c-0.36384,0 -0.6997,0.05598 -1.00757,0.16793c-0.30787,0.11196 -0.59235,0.22858 -0.85364,0.34985c-0.2519,0.11196 -0.4898,0.16793 -0.7137,0.16793c-0.2239,0 -0.40113,-0.07464 -0.53177,-0.2239c-0.12125,-0.14926 -0.18192,-0.34053 -0.18192,-0.57376c0,-0.33586 0.15864,-0.65306 0.4758,-0.9516c0.32656,-0.29854 0.75567,-0.5411 1.28745,-0.7277c0.53177,-0.1866 1.11022,-0.27988 1.73527,-0.27988c0.75567,0 1.40409,0.18192 1.94517,0.54577c0.54116,0.36384 0.9516,0.89561 1.23147,1.59531c0.24259,0.59707 0.41522,1.26414 0.51778,2.00115c0.10266,0.73701 0.15394,1.52535 0.15394,2.36499c0,0.63442 -0.03258,1.12422 -0.09796,1.46937c-0.06528,0.34516 -0.16793,0.58775 -0.30787,0.7277c-0.13054,0.13064 -0.30787,0.19591 -0.53177,0.19591zM163.96804,174.23948c0.30787,0 0.62044,-0.04198 0.9376,-0.12594c0.31726,-0.09326 0.58316,-0.2286 0.79766,-0.40583c0.21461,-0.17726 0.32186,-0.3965 0.32186,-0.65771c0,-0.2239 -0.09326,-0.40583 -0.27988,-0.54577c-0.17722,-0.14926 -0.41512,-0.26122 -0.7137,-0.33586c-0.28918,-0.07464 -0.60174,-0.11196 -0.9376,-0.11196c-0.56906,0 -1.00287,0.09796 -1.30145,0.29387c-0.28918,0.19591 -0.43381,0.45713 -0.43381,0.78367c0,0.35452 0.13535,0.62974 0.40583,0.82565c0.27988,0.18662 0.6811,0.27988 1.20349,0.27988zM170.76884,175.80681c-0.20522,0 -0.37314,-0.06997 -0.50378,-0.20991c-0.12125,-0.13994 -0.21922,-0.34055 -0.29387,-0.60174c-0.07467,-0.38254 -0.13994,-0.88162 -0.19591,-1.49737c-0.04668,-0.62506 -0.06997,-1.29212 -0.06997,-2.00115c0,-0.40116 0.00929,-0.85364 0.02799,-1.35741c0.01868,-0.50378 0.04198,-1.01224 0.06997,-1.52535c0.03728,-0.52244 0.07467,-1.00757 0.11196,-1.45537c0.04668,-0.44781 0.09326,-0.81165 0.13994,-1.09154c0.07467,-0.4105 0.18192,-0.73235 0.32186,-0.96559c0.14923,-0.24257 0.38254,-0.36384 0.6997,-0.36384c0.32656,0 0.56446,0.12594 0.7137,0.37784c0.14923,0.24257 0.2239,0.54577 0.2239,0.90961c0,0.4105 -0.03268,0.89561 -0.09796,1.45537c-0.05598,0.55976 -0.14464,1.12885 -0.26589,1.70727l-0.27988,0.33586c0.10266,-0.39184 0.27058,-0.75101 0.50378,-1.07754c0.2332,-0.32654 0.52708,-0.58307 0.88162,-0.76967c0.35454,-0.19591 0.76497,-0.29387 1.23147,-0.29387c0.91431,0 1.64199,0.32654 2.18307,0.97958c0.55047,0.64372 0.82565,1.6513 0.82565,3.02271c0,0.96092 -0.14464,1.76325 -0.43381,2.40697c-0.27988,0.64372 -0.66702,1.12882 -1.16151,1.45537c-0.48509,0.31716 -1.04025,0.4758 -1.66529,0.4758c-0.58775,0 -1.09623,-0.17262 -1.52535,-0.51778c-0.41982,-0.34516 -0.6904,-0.84434 -0.81165,-1.49737l0.19591,0.15394c-0.03728,0.67171 -0.13064,1.1662 -0.27988,1.48337c-0.13994,0.30787 -0.32186,0.4618 -0.54577,0.4618zM173.32975,174.09954c0.4665,0 0.87693,-0.20991 1.23147,-0.62974c0.35454,-0.41982 0.53177,-1.07754 0.53177,-1.97315c0,-0.74635 -0.13994,-1.35275 -0.41982,-1.81922c-0.27058,-0.46648 -0.7277,-0.6997 -1.37141,-0.6997c-0.52248,0 -0.94229,0.20991 -1.25947,0.62974c-0.31716,0.4105 -0.4758,1.03556 -0.4758,1.87521c0,0.765 0.15864,1.39473 0.4758,1.8892c0.31716,0.48509 0.74638,0.7277 1.28745,0.7277zM185.1584,165.60517c1.11022,0 1.92657,0.28454 2.44895,0.85364c0.53177,0.56909 0.79766,1.31544 0.79766,2.23905c0,0.6344 -0.14923,1.18483 -0.44781,1.6513c-0.28918,0.46648 -0.68571,0.83031 -1.1895,1.09154c-0.50378,0.2519 -1.07283,0.37784 -1.70727,0.37784c-0.29848,0 -0.61574,-0.03266 -0.9516,-0.09796c-0.32645,-0.0653 -0.66702,-0.19126 -1.02157,-0.37784l0.06997,-0.18192c0.07467,0.23323 0.13535,0.52244 0.18192,0.86763c0.05598,0.33586 0.09796,0.68571 0.12594,1.04955c0.03739,0.35452 0.05598,0.68102 0.05598,0.97958c0,0.55047 -0.09326,0.97489 -0.27988,1.27345c-0.17722,0.28918 -0.44312,0.43381 -0.79766,0.43381c-0.29848,0 -0.53637,-0.09326 -0.7137,-0.27988c-0.16793,-0.18662 -0.28448,-0.49448 -0.34985,-0.92361c-0.06528,-0.42912 -0.09796,-1.0029 -0.09796,-1.72127c0,-1.38073 0.06068,-2.55624 0.18192,-3.5265c0.13064,-0.97958 0.34985,-1.74925 0.65771,-2.30901c0.24259,-0.42914 0.61574,-0.76967 1.11951,-1.02157c0.51318,-0.2519 1.15221,-0.37784 1.91718,-0.37784zM184.8925,170.16721c0.55976,0 1.01228,-0.14926 1.35741,-0.44781c0.35454,-0.29854 0.53177,-0.73235 0.53177,-1.30145c0,-0.37317 -0.12594,-0.68104 -0.37784,-0.92361c-0.2425,-0.2519 -0.62503,-0.37784 -1.14751,-0.37784c-0.38244,0 -0.7137,0.08864 -0.99357,0.26589c-0.27988,0.16793 -0.49439,0.40583 -0.64372,0.7137c-0.13994,0.29854 -0.20991,0.64372 -0.20991,1.03556c0,0.36384 0.11664,0.62974 0.34985,0.79766c0.24259,0.1586 0.62044,0.2379 1.13351,0.2379zM193.52133,175.77882c-1.03556,0 -1.86121,-0.15394 -2.47695,-0.4618c-0.61574,-0.30787 -1.05885,-0.75098 -1.32943,-1.32943c-0.27048,-0.57842 -0.40583,-1.26879 -0.40583,-2.07111c0,-1.0169 0.18662,-1.87987 0.55976,-2.58889c0.38254,-0.71836 0.90502,-1.26879 1.56733,-1.6513c0.67171,-0.3825 1.43209,-0.57376 2.28102,-0.57376c0.99828,0 1.73066,0.23323 2.19707,0.6997c0.4665,0.45713 0.6997,1.05887 0.6997,1.80523c0,0.59707 -0.15854,1.11486 -0.4758,1.55334c-0.30787,0.42914 -0.73699,0.76034 -1.28745,0.99357c-0.55037,0.23323 -1.18479,0.34985 -1.90319,0.34985c-0.40113,0 -0.78825,-0.0513 -1.16151,-0.15394c-0.37314,-0.10263 -0.70899,-0.24257 -1.00757,-0.41982l0.33586,-0.61574c-0.02799,0.2239 -0.04198,0.44781 -0.04198,0.67171c0,0.65306 0.20532,1.12419 0.61574,1.4134c0.41052,0.27988 0.99357,0.41982 1.74925,0.41982c0.58775,0 1.05896,-0.05128 1.4134,-0.15394c0.35454,-0.10263 0.65312,-0.20058 0.89561,-0.29387c0.24259,-0.10263 0.48049,-0.15394 0.7137,-0.15394c0.13064,0 0.2473,0.03732 0.34985,0.11196c0.11196,0.0653 0.20062,0.16326 0.26589,0.29387c0.07467,0.13064 0.11196,0.28918 0.11196,0.4758c0,0.27988 -0.13994,0.55047 -0.41982,0.81165c-0.27988,0.2519 -0.695,0.4618 -1.24547,0.62974c-0.54107,0.15864 -1.20809,0.2379 -2.00115,0.2379zM192.70967,171.20277c0.66242,0 1.19419,-0.13994 1.59531,-0.41982c0.40122,-0.27988 0.60174,-0.62506 0.60174,-1.03556c0,-0.32654 -0.11196,-0.59242 -0.33586,-0.79766c-0.21451,-0.21458 -0.55506,-0.32186 -1.02157,-0.32186c-0.43841,0 -0.83495,0.08396 -1.1895,0.2519c-0.34516,0.1586 -0.61574,0.36851 -0.81165,0.62974c-0.19591,0.26122 -0.29387,0.54577 -0.29387,0.85364c0,0.27055 0.12594,0.48046 0.37784,0.62974c0.26129,0.13994 0.62044,0.20991 1.07754,0.20991zM198.41763,169.35555c0,-0.89561 0.08396,-1.53935 0.2519,-1.93117c0.16793,-0.40116 0.40583,-0.60174 0.7137,-0.60174c0.24259,0 0.43381,0.10263 0.57376,0.30787c0.13994,0.19591 0.24289,0.44314 0.30787,0.74168c0.06497,0.2892 0.09796,0.58307 0.09796,0.88162l-0.06997,-0.02799c0.15893,-0.50378 0.40082,-0.9376 0.7277,-1.30145c0.33586,-0.36384 0.73668,-0.54577 1.20349,-0.54577c0.55077,0 0.95659,0.22858 1.21748,0.68571c0.26088,0.44781 0.39184,1.00757 0.39184,1.67928c0,0.89561 -0.10295,1.52067 -0.30787,1.87521c-0.20491,0.35452 -0.48079,0.53177 -0.82565,0.53177c-0.2519,0 -0.43881,-0.10263 -0.55976,-0.30787c-0.11196,-0.20524 -0.14894,-0.56909 -0.11196,-1.09154c0.03698,-0.55044 0.00499,-0.93293 -0.09796,-1.14751c-0.10295,-0.21458 -0.26589,-0.32186 -0.4898,-0.32186c-0.27089,0 -0.49479,0.1726 -0.67171,0.51778c-0.16793,0.33586 -0.2519,0.75101 -0.2519,1.24547c0,0.19591 0.02299,0.44314 0.06997,0.74168c0.04698,0.29854 0.09796,0.62506 0.15394,0.97958c0.05598,0.34518 0.10695,0.69038 0.15394,1.03556c0.04698,0.34518 0.06997,0.66242 0.06997,0.9516c0,0.51308 -0.07897,0.88162 -0.2379,1.10553c-0.15893,0.2239 -0.38283,0.33586 -0.67171,0.33586c-0.32656,0 -0.57845,-0.10266 -0.75567,-0.30787c-0.17722,-0.21461 -0.31257,-0.55976 -0.40583,-1.03556c-0.07467,-0.42912 -0.14923,-0.9376 -0.2239,-1.52535c-0.07467,-0.58775 -0.13524,-1.1895 -0.18192,-1.80523c-0.04668,-0.61574 -0.06997,-1.17083 -0.06997,-1.66529zM207.43779,167.24246h-0.27988c-0.02799,-0.4105 -0.01799,-0.79766 0.02799,-1.16151c0.04698,-0.37317 0.14494,-0.67171 0.29387,-0.89561c0.15893,-0.23323 0.38283,-0.34985 0.67171,-0.34985c0.26188,0 0.45281,0.08396 0.57376,0.2519c0.12195,0.16793 0.18192,0.40116 0.18192,0.6997c0,0.58775 -0.11196,1.09154 -0.33586,1.51135l-0.2519,-0.02799c0.50378,-0.17726 1.07354,-0.26589 1.70727,-0.26589c0.40183,0 0.71869,0.0793 0.9516,0.2379c0.24289,0.14926 0.36384,0.40583 0.36384,0.76967c0,0.34518 -0.13994,0.60641 -0.41982,0.78367c-0.27988,0.17726 -0.62974,0.26589 -1.04955,0.26589c-0.2519,0 -0.52177,-0.00932 -0.81165,-0.02799c-0.27988,-0.02799 -0.55476,-0.06997 -0.82565,-0.12594l0.2379,-0.29387c0.08396,0.35452 0.16393,0.76034 0.2379,1.21748c0.08396,0.44781 0.15893,0.91428 0.2239,1.39941c0.06597,0.48512 0.11695,0.95626 0.15394,1.4134c0.03798,0.45713 0.05598,0.86763 0.05598,1.23147c0,0.59705 -0.09296,1.06824 -0.27988,1.4134c-0.18593,0.34516 -0.4618,0.51778 -0.82565,0.51778c-0.28888,0 -0.51778,-0.08866 -0.68571,-0.26589c-0.15793,-0.17722 -0.27488,-0.40113 -0.34985,-0.67171c-0.06497,-0.27988 -0.10695,-0.56906 -0.12594,-0.86763c-0.00899,-0.29858 -0.014,-0.56909 -0.014,-0.81165c0,-0.4105 0.01899,-0.8723 0.05598,-1.38541c0.03798,-0.52244 0.08896,-1.05887 0.15394,-1.60931c0.07497,-0.55044 0.15893,-1.08221 0.2519,-1.59531l0.27988,0.2379c-0.4758,0.24257 -1.06355,0.36384 -1.76325,0.36384c-0.42882,0 -0.75967,-0.0793 -0.99357,-0.2379c-0.23291,-0.1586 -0.34985,-0.40583 -0.34985,-0.74168c0,-0.36384 0.13095,-0.64372 0.39184,-0.83964c0.26188,-0.20524 0.61174,-0.30787 1.04955,-0.30787c0.28987,0 0.55976,0.01866 0.81165,0.05598c0.26188,0.02799 0.4898,0.0653 0.68571,0.11196zM218.59502,175.80681c-0.31686,0 -0.53577,-0.12125 -0.65771,-0.36384c-0.11196,-0.2519 -0.17692,-0.64842 -0.19591,-1.1895l0.13994,0.06997c-0.52177,1.01687 -1.51135,1.52535 -2.96674,1.52535c-0.66173,0 -1.21248,-0.11664 -1.6513,-0.34985c-0.43781,-0.24259 -0.76468,-0.55976 -0.97958,-0.9516c-0.20491,-0.40113 -0.30787,-0.83495 -0.30787,-1.30145c0,-0.80234 0.27988,-1.43671 0.83964,-1.90319c0.55976,-0.4758 1.30145,-0.7137 2.22505,-0.7137c0.60675,0 1.13351,0.08864 1.58133,0.26589c0.44781,0.17726 0.83065,0.42448 1.14751,0.74168l-0.2379,-0.02799c-0.06497,-0.94227 -0.26989,-1.61398 -0.61574,-2.01515c-0.33586,-0.4105 -0.81565,-0.61574 -1.44139,-0.61574c-0.36384,0 -0.6997,0.05598 -1.00757,0.16793c-0.30787,0.11196 -0.59174,0.22858 -0.85364,0.34985c-0.2519,0.11196 -0.4898,0.16793 -0.7137,0.16793c-0.2239,0 -0.40082,-0.07464 -0.53177,-0.2239c-0.12095,-0.14926 -0.18192,-0.34053 -0.18192,-0.57376c0,-0.33586 0.15893,-0.65306 0.4758,-0.9516c0.32685,-0.29854 0.75567,-0.5411 1.28745,-0.7277c0.53177,-0.1866 1.11053,-0.27988 1.73527,-0.27988c0.75567,0 1.4044,0.18192 1.94517,0.54577c0.54177,0.36384 0.9516,0.89561 1.23147,1.59531c0.24289,0.59707 0.41582,1.26414 0.51778,2.00115c0.10295,0.73701 0.15394,1.52535 0.15394,2.36499c0,0.63442 -0.03199,1.12422 -0.09796,1.46937c-0.06497,0.34516 -0.16793,0.58775 -0.30787,0.7277c-0.12994,0.13064 -0.30787,0.19591 -0.53177,0.19591zM215.50234,174.23948c0.30787,0 0.62073,-0.04198 0.9376,-0.12594c0.31787,-0.09326 0.58375,-0.2286 0.79766,-0.40583c0.21491,-0.17726 0.32186,-0.3965 0.32186,-0.65771c0,-0.2239 -0.09296,-0.40583 -0.27988,-0.54577c-0.17692,-0.14926 -0.41482,-0.26122 -0.7137,-0.33586c-0.28888,-0.07464 -0.60174,-0.11196 -0.9376,-0.11196c-0.56876,0 -1.00258,0.09796 -1.30145,0.29387c-0.28888,0.19591 -0.43381,0.45713 -0.43381,0.78367c0,0.35452 0.13594,0.62974 0.40583,0.82565c0.27988,0.18662 0.68171,0.27988 1.20349,0.27988zM222.66728,166.96258c0.29888,0 0.49878,0.12127 0.60174,0.36384c0.11196,0.24257 0.16793,0.60174 0.16793,1.07754c0,0.11196 -0.00899,0.23323 -0.02799,0.36384c-0.00899,0.12127 -0.02799,0.23323 -0.05598,0.33586l-0.02799,-0.27988c0.2239,-0.60641 0.56876,-1.07754 1.03556,-1.4134c0.46679,-0.34518 0.96058,-0.51778 1.48337,-0.51778c0.57875,0 1.05855,0.16326 1.44139,0.4898c0.39184,0.32654 0.68071,0.78367 0.86763,1.37141c0.19591,0.58775 0.29387,1.28277 0.29387,2.08511c0,0.49446 -0.02299,0.98425 -0.06997,1.46937c-0.03698,0.4758 -0.09296,0.91428 -0.16793,1.31544c-0.06497,0.39184 -0.13994,0.7137 -0.2239,0.96559c-0.11196,0.31716 -0.25689,0.55506 -0.43381,0.7137c-0.17692,0.14923 -0.38684,0.2239 -0.62974,0.2239c-0.24289,0 -0.42882,-0.08866 -0.55976,-0.26589c-0.13095,-0.17722 -0.19591,-0.41512 -0.19591,-0.7137c0,-0.31716 0.02299,-0.6997 0.06997,-1.14751c0.04698,-0.45713 0.08896,-0.91893 0.12594,-1.38541c0.04698,-0.4758 0.06997,-0.90494 0.06997,-1.28745c0,-1.30611 -0.42882,-1.95917 -1.28745,-1.95917c-0.45681,0 -0.83964,0.20524 -1.14751,0.61574c-0.30787,0.40116 -0.51278,0.97491 -0.61574,1.72127c-0.02799,0.2519 -0.04198,0.56444 -0.04198,0.9376c0,0.37317 0,0.74635 0,1.11951c0.00899,0.36384 0,0.67171 -0.02799,0.92361c-0.03698,0.55976 -0.14494,0.96089 -0.32186,1.20349c-0.16793,0.24259 -0.40082,0.36384 -0.6997,0.36384c-0.34485,0 -0.60675,-0.15864 -0.78367,-0.4758c-0.17692,-0.32656 -0.26589,-0.87232 -0.26589,-1.63731c0,-0.39184 0.00899,-0.83031 0.02799,-1.31544c0.01899,-0.48512 0.04198,-0.97025 0.06997,-1.45537c0.03698,-0.49446 0.07897,-0.94227 0.12594,-1.34343c0.09296,-0.75567 0.22889,-1.35275 0.40583,-1.79124c0.17692,-0.44781 0.44281,-0.67171 0.79766,-0.67171zM231.5355,178.45168c-0.50378,0 -0.75567,-0.27058 -0.75567,-0.81165c0,-0.29858 0.10295,-0.65302 0.30787,-1.06355c0.20491,-0.41052 0.50378,-0.85364 0.89561,-1.32943c0.40082,-0.4758 0.88663,-0.96089 1.45537,-1.45537l-0.014,0.11196c-1.24046,-1.23147 -2.18307,-2.31369 -2.82679,-3.24662c-0.63473,-0.93293 -0.9516,-1.73993 -0.9516,-2.42097c0,-0.33586 0.08396,-0.59707 0.2519,-0.78367c0.17692,-0.1866 0.41083,-0.27988 0.6997,-0.27988c0.61574,0 1.22648,0.44781 1.83321,1.34343c0.60675,0.89561 1.18049,2.25771 1.72127,4.08626h0.05598c0.35485,-1.92185 0.73269,-3.33058 1.13351,-4.22619c0.40082,-0.90494 0.87662,-1.35741 1.42739,-1.35741c0.26088,0 0.45281,0.0933 0.57376,0.27988c0.13095,0.17726 0.19591,0.42914 0.19591,0.75567c0,0.27055 -0.06098,0.62974 -0.18192,1.07754c-0.11196,0.43848 -0.27488,0.9376 -0.4898,1.49737c-0.20491,0.55044 -0.44781,1.12419 -0.7277,1.72127c-0.27089,0.59707 -0.56876,1.18483 -0.89561,1.76325c-0.83065,1.50205 -1.53935,2.59819 -2.12709,3.2886c-0.58775,0.6997 -1.11452,1.04955 -1.58133,1.04955zM244.86181,175.80681c-0.31787,0 -0.53677,-0.12125 -0.65771,-0.36384c-0.11196,-0.2519 -0.17793,-0.64842 -0.19591,-1.1895l0.13994,0.06997c-0.52278,1.01687 -1.51135,1.52535 -2.96674,1.52535c-0.66272,0 -1.21348,-0.11664 -1.6513,-0.34985c-0.43881,-0.24259 -0.76567,-0.55976 -0.97958,-0.9516c-0.20591,-0.40113 -0.30787,-0.83495 -0.30787,-1.30145c0,-0.80234 0.27988,-1.43671 0.83964,-1.90319c0.55976,-0.4758 1.30145,-0.7137 2.22505,-0.7137c0.60574,0 1.13351,0.08864 1.58133,0.26589c0.44781,0.17726 0.82964,0.42448 1.14751,0.74168l-0.2379,-0.02799c-0.06597,-0.94227 -0.27089,-1.61398 -0.61574,-2.01515c-0.33586,-0.4105 -0.81665,-0.61574 -1.44139,-0.61574c-0.36384,0 -0.6997,0.05598 -1.00757,0.16793c-0.30787,0.11196 -0.59275,0.22858 -0.85364,0.34985c-0.2519,0.11196 -0.4898,0.16793 -0.7137,0.16793c-0.2239,0 -0.40183,-0.07464 -0.53177,-0.2239c-0.12195,-0.14926 -0.18192,-0.34053 -0.18192,-0.57376c0,-0.33586 0.15793,-0.65306 0.4758,-0.9516c0.32587,-0.29854 0.75567,-0.5411 1.28745,-0.7277c0.53177,-0.1866 1.10953,-0.27988 1.73527,-0.27988c0.75567,0 1.4034,0.18192 1.94517,0.54577c0.54077,0.36384 0.9516,0.89561 1.23147,1.59531c0.24189,0.59707 0.41482,1.26414 0.51778,2.00115c0.10196,0.73701 0.15394,1.52535 0.15394,2.36499c0,0.63442 -0.03299,1.12422 -0.09796,1.46937c-0.06597,0.34516 -0.16793,0.58775 -0.30787,0.7277c-0.13095,0.13064 -0.30787,0.19591 -0.53177,0.19591zM241.76913,174.23948c0.30787,0 0.61973,-0.04198 0.9376,-0.12594c0.31686,-0.09326 0.58275,-0.2286 0.79766,-0.40583c0.21391,-0.17726 0.32186,-0.3965 0.32186,-0.65771c0,-0.2239 -0.09397,-0.40583 -0.27988,-0.54577c-0.17793,-0.14926 -0.41582,-0.26122 -0.7137,-0.33586c-0.28987,-0.07464 -0.60174,-0.11196 -0.9376,-0.11196c-0.56975,0 -1.00357,0.09796 -1.30145,0.29387c-0.28987,0.19591 -0.43381,0.45713 -0.43381,0.78367c0,0.35452 0.13495,0.62974 0.40583,0.82565c0.27988,0.18662 0.68071,0.27988 1.20349,0.27988zM253.62106,175.80681c-0.31686,0 -0.53577,-0.12125 -0.65771,-0.36384c-0.11196,-0.2519 -0.17692,-0.64842 -0.19591,-1.1895l0.13994,0.06997c-0.52177,1.01687 -1.51135,1.52535 -2.96674,1.52535c-0.66173,0 -1.21248,-0.11664 -1.6513,-0.34985c-0.43781,-0.24259 -0.76468,-0.55976 -0.97958,-0.9516c-0.20491,-0.40113 -0.30787,-0.83495 -0.30787,-1.30145c0,-0.80234 0.27988,-1.43671 0.83964,-1.90319c0.55976,-0.4758 1.30145,-0.7137 2.22505,-0.7137c0.60675,0 1.13351,0.08864 1.58133,0.26589c0.44781,0.17726 0.83065,0.42448 1.14751,0.74168l-0.2379,-0.02799c-0.06497,-0.94227 -0.26989,-1.61398 -0.61574,-2.01515c-0.33586,-0.4105 -0.81565,-0.61574 -1.44139,-0.61574c-0.36384,0 -0.6997,0.05598 -1.00757,0.16793c-0.30787,0.11196 -0.59174,0.22858 -0.85364,0.34985c-0.2519,0.11196 -0.4898,0.16793 -0.7137,0.16793c-0.2239,0 -0.40082,-0.07464 -0.53177,-0.2239c-0.12095,-0.14926 -0.18192,-0.34053 -0.18192,-0.57376c0,-0.33586 0.15893,-0.65306 0.4758,-0.9516c0.32685,-0.29854 0.75567,-0.5411 1.28745,-0.7277c0.53177,-0.1866 1.11053,-0.27988 1.73527,-0.27988c0.75567,0 1.4044,0.18192 1.94517,0.54577c0.54177,0.36384 0.9516,0.89561 1.23147,1.59531c0.24289,0.59707 0.41582,1.26414 0.51778,2.00115c0.10295,0.73701 0.15394,1.52535 0.15394,2.36499c0,0.63442 -0.03199,1.12422 -0.09796,1.46937c-0.06497,0.34516 -0.16793,0.58775 -0.30787,0.7277c-0.12994,0.13064 -0.30787,0.19591 -0.53177,0.19591zM250.52839,174.23948c0.30787,0 0.62073,-0.04198 0.9376,-0.12594c0.31787,-0.09326 0.58375,-0.2286 0.79766,-0.40583c0.21491,-0.17726 0.32186,-0.3965 0.32186,-0.65771c0,-0.2239 -0.09296,-0.40583 -0.27988,-0.54577c-0.17692,-0.14926 -0.41482,-0.26122 -0.7137,-0.33586c-0.28888,-0.07464 -0.60174,-0.11196 -0.9376,-0.11196c-0.56876,0 -1.00258,0.09796 -1.30145,0.29387c-0.28888,0.19591 -0.43381,0.45713 -0.43381,0.78367c0,0.35452 0.13594,0.62974 0.40583,0.82565c0.27988,0.18662 0.68171,0.27988 1.20349,0.27988zM257.69333,166.96258c0.29888,0 0.49878,0.12127 0.60174,0.36384c0.11196,0.24257 0.16793,0.60174 0.16793,1.07754c0,0.11196 -0.00899,0.23323 -0.02799,0.36384c-0.00899,0.12127 -0.02799,0.23323 -0.05598,0.33586l-0.02799,-0.27988c0.2239,-0.60641 0.56876,-1.07754 1.03556,-1.4134c0.46679,-0.34518 0.96058,-0.51778 1.48337,-0.51778c0.57875,0 1.05855,0.16326 1.44139,0.4898c0.39184,0.32654 0.68071,0.78367 0.86763,1.37141c0.19591,0.58775 0.29387,1.28277 0.29387,2.08511c0,0.49446 -0.02299,0.98425 -0.06997,1.46937c-0.03698,0.4758 -0.09296,0.91428 -0.16793,1.31544c-0.06497,0.39184 -0.13994,0.7137 -0.2239,0.96559c-0.11196,0.31716 -0.25689,0.55506 -0.43381,0.7137c-0.17692,0.14923 -0.38684,0.2239 -0.62974,0.2239c-0.24289,0 -0.42882,-0.08866 -0.55976,-0.26589c-0.13095,-0.17722 -0.19591,-0.41512 -0.19591,-0.7137c0,-0.31716 0.02299,-0.6997 0.06997,-1.14751c0.04698,-0.45713 0.08896,-0.91893 0.12594,-1.38541c0.04698,-0.4758 0.06997,-0.90494 0.06997,-1.28745c0,-1.30611 -0.42882,-1.95917 -1.28745,-1.95917c-0.45681,0 -0.83964,0.20524 -1.14751,0.61574c-0.30787,0.40116 -0.51278,0.97491 -0.61574,1.72127c-0.02799,0.2519 -0.04198,0.56444 -0.04198,0.9376c0,0.37317 0,0.74635 0,1.11951c0.00899,0.36384 0,0.67171 -0.02799,0.92361c-0.03698,0.55976 -0.14494,0.96089 -0.32186,1.20349c-0.16793,0.24259 -0.40082,0.36384 -0.6997,0.36384c-0.34485,0 -0.60675,-0.15864 -0.78367,-0.4758c-0.17692,-0.32656 -0.26589,-0.87232 -0.26589,-1.63731c0,-0.39184 0.00899,-0.83031 0.02799,-1.31544c0.01899,-0.48512 0.04198,-0.97025 0.06997,-1.45537c0.03698,-0.49446 0.07897,-0.94227 0.12594,-1.34343c0.09296,-0.75567 0.22889,-1.35275 0.40583,-1.79124c0.17692,-0.44781 0.44281,-0.67171 0.79766,-0.67171zM271.92424,165.60517c1.11053,0 1.92618,0.28454 2.44895,0.85364c0.53177,0.56909 0.79766,1.31544 0.79766,2.23905c0,0.6344 -0.14894,1.18483 -0.44781,1.6513c-0.28888,0.46648 -0.68571,0.83031 -1.1895,1.09154c-0.50378,0.2519 -1.07254,0.37784 -1.70727,0.37784c-0.29888,0 -0.61574,-0.03266 -0.9516,-0.09796c-0.32685,-0.0653 -0.66672,-0.19126 -1.02157,-0.37784l0.06997,-0.18192c0.07497,0.23323 0.13495,0.52244 0.18192,0.86763c0.05598,0.33586 0.09796,0.68571 0.12594,1.04955c0.03698,0.35452 0.05598,0.68102 0.05598,0.97958c0,0.55047 -0.09296,0.97489 -0.27988,1.27345c-0.17692,0.28918 -0.44281,0.43381 -0.79766,0.43381c-0.29888,0 -0.53677,-0.09326 -0.7137,-0.27988c-0.16793,-0.18662 -0.28488,-0.49448 -0.34985,-0.92361c-0.06497,-0.42912 -0.09796,-1.0029 -0.09796,-1.72127c0,-1.38073 0.06098,-2.55624 0.18192,-3.5265c0.13095,-0.97958 0.34985,-1.74925 0.65771,-2.30901c0.24289,-0.42914 0.61574,-0.76967 1.11951,-1.02157c0.51278,-0.2519 1.1525,-0.37784 1.91718,-0.37784zM271.65837,170.16721c0.55976,0 1.01257,-0.14926 1.35741,-0.44781c0.35485,-0.29854 0.53177,-0.73235 0.53177,-1.30145c0,-0.37317 -0.12594,-0.68104 -0.37784,-0.92361c-0.24289,-0.2519 -0.62472,-0.37784 -1.14751,-0.37784c-0.38283,0 -0.7137,0.08864 -0.99357,0.26589c-0.27988,0.16793 -0.49479,0.40583 -0.64372,0.7137c-0.13994,0.29854 -0.20991,0.64372 -0.20991,1.03556c0,0.36384 0.11695,0.62974 0.34985,0.79766c0.24289,0.1586 0.62073,0.2379 1.13351,0.2379zM280.28668,175.77882c-1.03556,0 -1.86121,-0.15394 -2.47695,-0.4618c-0.61574,-0.30787 -1.05855,-0.75098 -1.32943,-1.32943c-0.26989,-0.57842 -0.40583,-1.26879 -0.40583,-2.07111c0,-1.0169 0.18692,-1.87987 0.55976,-2.58889c0.38283,-0.71836 0.90561,-1.26879 1.56733,-1.6513c0.67171,-0.3825 1.43239,-0.57376 2.28102,-0.57376c0.99857,0 1.73126,0.23323 2.19707,0.6997c0.46679,0.45713 0.6997,1.05887 0.6997,1.80523c0,0.59707 -0.15793,1.11486 -0.4758,1.55334c-0.30787,0.42914 -0.73668,0.76034 -1.28745,0.99357c-0.54977,0.23323 -1.18449,0.34985 -1.90319,0.34985c-0.40082,0 -0.78767,-0.0513 -1.16151,-0.15394c-0.37284,-0.10263 -0.7087,-0.24257 -1.00757,-0.41982l0.33586,-0.61574c-0.02799,0.2239 -0.04198,0.44781 -0.04198,0.67171c0,0.65306 0.20591,1.12419 0.61574,1.4134c0.41083,0.27988 0.99357,0.41982 1.74925,0.41982c0.58775,0 1.05954,-0.05128 1.4134,-0.15394c0.35485,-0.10263 0.65372,-0.20058 0.89561,-0.29387c0.24289,-0.10263 0.48079,-0.15394 0.7137,-0.15394c0.13095,0 0.24789,0.03732 0.34985,0.11196c0.11196,0.0653 0.20092,0.16326 0.26589,0.29387c0.07497,0.13064 0.11196,0.28918 0.11196,0.4758c0,0.27988 -0.13994,0.55047 -0.41982,0.81165c-0.27988,0.2519 -0.69471,0.4618 -1.24547,0.62974c-0.54077,0.15864 -1.20748,0.2379 -2.00115,0.2379zM279.47503,171.20277c0.66272,0 1.19449,-0.13994 1.59531,-0.41982c0.40183,-0.27988 0.60174,-0.62506 0.60174,-1.03556c0,-0.32654 -0.11196,-0.59242 -0.33586,-0.79766c-0.21391,-0.21458 -0.55476,-0.32186 -1.02157,-0.32186c-0.43781,0 -0.83464,0.08396 -1.1895,0.2519c-0.34485,0.1586 -0.61574,0.36851 -0.81165,0.62974c-0.19591,0.26122 -0.29387,0.54577 -0.29387,0.85364c0,0.27055 0.12594,0.48046 0.37784,0.62974c0.26188,0.13994 0.62073,0.20991 1.07754,0.20991zM286.61098,166.96258c0.29787,0 0.49878,0.12127 0.60174,0.36384c0.11196,0.24257 0.16793,0.60174 0.16793,1.07754c0,0.11196 -0.00999,0.23323 -0.02799,0.36384c-0.00999,0.12127 -0.02799,0.23323 -0.05598,0.33586l-0.02799,-0.27988c0.2239,-0.60641 0.56876,-1.07754 1.03556,-1.4134c0.4658,-0.34518 0.96058,-0.51778 1.48337,-0.51778c0.57775,0 1.05855,0.16326 1.44139,0.4898c0.39184,0.32654 0.68071,0.78367 0.86763,1.37141c0.19591,0.58775 0.29387,1.28277 0.29387,2.08511c0,0.49446 -0.02399,0.98425 -0.06997,1.46937c-0.03798,0.4758 -0.09397,0.91428 -0.16793,1.31544c-0.06597,0.39184 -0.13994,0.7137 -0.2239,0.96559c-0.11196,0.31716 -0.25689,0.55506 -0.43381,0.7137c-0.17793,0.14923 -0.38783,0.2239 -0.62974,0.2239c-0.24289,0 -0.42981,-0.08866 -0.55976,-0.26589c-0.13095,-0.17722 -0.19591,-0.41512 -0.19591,-0.7137c0,-0.31716 0.02299,-0.6997 0.06997,-1.14751c0.04599,-0.45713 0.08797,-0.91893 0.12594,-1.38541c0.04599,-0.4758 0.06997,-0.90494 0.06997,-1.28745c0,-1.30611 -0.42981,-1.95917 -1.28745,-1.95917c-0.45781,0 -0.83964,0.20524 -1.14751,0.61574c-0.30787,0.40116 -0.51378,0.97491 -0.61574,1.72127c-0.02799,0.2519 -0.04198,0.56444 -0.04198,0.9376c0,0.37317 0,0.74635 0,1.11951c0.00899,0.36384 0,0.67171 -0.02799,0.92361c-0.03798,0.55976 -0.14494,0.96089 -0.32186,1.20349c-0.16793,0.24259 -0.40183,0.36384 -0.6997,0.36384c-0.34585,0 -0.60675,-0.15864 -0.78367,-0.4758c-0.17793,-0.32656 -0.26589,-0.87232 -0.26589,-1.63731c0,-0.39184 0.00899,-0.83031 0.02799,-1.31544c0.01799,-0.48512 0.04198,-0.97025 0.06997,-1.45537c0.03698,-0.49446 0.07897,-0.94227 0.12594,-1.34343c0.09296,-0.75567 0.2279,-1.35275 0.40583,-1.79124c0.17692,-0.44781 0.44281,-0.67171 0.79766,-0.67171zM296.76664,175.44297c-0.87762,0 -1.59132,-0.33586 -2.14109,-1.00757c-0.55077,-0.68102 -0.82565,-1.71194 -0.82565,-3.09268c0,-1.47404 0.26589,-2.55159 0.79766,-3.23262c0.53177,-0.68104 1.23147,-1.02157 2.09911,-1.02157c0.51278,0 0.96559,0.13062 1.35741,0.39184c0.39184,0.26122 0.7277,0.62974 1.00757,1.10553l-0.11196,0.19591c-0.02799,-0.13062 -0.05197,-0.27055 -0.06997,-0.41982c-0.01899,-0.14926 -0.02799,-0.26122 -0.02799,-0.33586c0,-0.3825 0.05997,-0.67638 0.18192,-0.88162c0.12994,-0.21458 0.33086,-0.32186 0.60174,-0.32186c0.29787,0 0.53177,0.12127 0.6997,0.36384c0.17692,0.24257 0.31187,0.58775 0.40583,1.03556c0.12095,0.45713 0.2239,1.04022 0.30787,1.74925c0.08396,0.6997 0.12594,1.40873 0.12594,2.12709c0,0.89561 -0.03299,1.64659 -0.09796,2.25304c-0.06597,0.60644 -0.17293,1.11022 -0.32186,1.51135c-0.14993,0.40113 -0.34585,0.75098 -0.58775,1.04955c-0.40183,0.48509 -0.91961,0.85364 -1.55334,1.10553c-0.62573,0.26119 -1.34843,0.39184 -2.16907,0.39184c-0.58775,0 -1.05954,-0.05598 -1.4134,-0.16793c-0.35485,-0.10266 -0.61174,-0.24719 -0.76967,-0.43381c-0.14993,-0.17722 -0.2239,-0.37784 -0.2239,-0.60174c0,-0.2332 0.06497,-0.42912 0.19591,-0.58775c0.12994,-0.14923 0.32587,-0.2239 0.58775,-0.2239c0.23291,0 0.50378,0.03728 0.81165,0.11196c0.31686,0.07467 0.6897,0.11196 1.11951,0.11196c0.90462,0 1.54334,-0.21461 1.91718,-0.64372c0.38183,-0.41982 0.57376,-1.02626 0.57376,-1.81922c0,-0.21461 -0.014,-0.4665 -0.04198,-0.75567l0.19591,0.06997c-0.23391,0.59705 -0.57875,1.07754 -1.03556,1.44139c-0.45781,0.35454 -0.98958,0.53177 -1.59531,0.53177zM297.29842,173.7217c0.29787,0 0.59675,-0.0793 0.89561,-0.2379c0.29787,-0.1586 0.54577,-0.41982 0.74168,-0.78367c0.19591,-0.36384 0.29387,-0.85364 0.29387,-1.46937c0,-0.73701 -0.17293,-1.33876 -0.51778,-1.80523c-0.34585,-0.46648 -0.83065,-0.6997 -1.45537,-0.6997c-0.54177,0 -0.9376,0.20524 -1.1895,0.61574c-0.2519,0.4105 -0.37784,1.03089 -0.37784,1.86121c0,0.79299 0.12594,1.4134 0.37784,1.86121c0.2519,0.43848 0.66173,0.65771 1.23147,0.65771zM306.79937,175.77882c-1.03556,0 -1.86121,-0.15394 -2.47695,-0.4618c-0.61574,-0.30787 -1.05954,-0.75098 -1.32943,-1.32943c-0.27089,-0.57842 -0.40583,-1.26879 -0.40583,-2.07111c0,-1.0169 0.18593,-1.87987 0.55976,-2.58889c0.38183,-0.71836 0.90462,-1.26879 1.56733,-1.6513c0.67171,-0.3825 1.43139,-0.57376 2.28102,-0.57376c0.99757,0 1.73026,0.23323 2.19707,0.6997c0.4658,0.45713 0.6997,1.05887 0.6997,1.80523c0,0.59707 -0.15893,1.11486 -0.4758,1.55334c-0.30787,0.42914 -0.73768,0.76034 -1.28745,0.99357c-0.55077,0.23323 -1.18548,0.34985 -1.90319,0.34985c-0.40183,0 -0.78866,-0.0513 -1.16151,-0.15394c-0.37384,-0.10263 -0.7097,-0.24257 -1.00757,-0.41982l0.33586,-0.61574c-0.02799,0.2239 -0.04198,0.44781 -0.04198,0.67171c0,0.65306 0.20491,1.12419 0.61574,1.4134c0.40983,0.27988 0.99357,0.41982 1.74925,0.41982c0.58775,0 1.05855,-0.05128 1.4134,-0.15394c0.35385,-0.10263 0.65272,-0.20058 0.89561,-0.29387c0.24189,-0.10263 0.47979,-0.15394 0.7137,-0.15394c0.12994,0 0.24689,0.03732 0.34985,0.11196c0.11196,0.0653 0.19992,0.16326 0.26589,0.29387c0.07397,0.13064 0.11196,0.28918 0.11196,0.4758c0,0.27988 -0.13994,0.55047 -0.41982,0.81165c-0.27988,0.2519 -0.69571,0.4618 -1.24547,0.62974c-0.54177,0.15864 -1.20849,0.2379 -2.00115,0.2379zM305.98771,171.20277c0.66173,0 1.19349,-0.13994 1.59531,-0.41982c0.40082,-0.27988 0.60174,-0.62506 0.60174,-1.03556c0,-0.32654 -0.11196,-0.59242 -0.33586,-0.79766c-0.21491,-0.21458 -0.55577,-0.32186 -1.02157,-0.32186c-0.43881,0 -0.83564,0.08396 -1.1895,0.2519c-0.34585,0.1586 -0.61574,0.36851 -0.81165,0.62974c-0.19591,0.26122 -0.29387,0.54577 -0.29387,0.85364c0,0.27055 0.12594,0.48046 0.37784,0.62974c0.26088,0.13994 0.61973,0.20991 1.07754,0.20991zM313.20663,175.69485c-0.28888,0 -0.51778,-0.06528 -0.68571,-0.19591c-0.16793,-0.13994 -0.30287,-0.36854 -0.40583,-0.68571c-0.13994,-0.4665 -0.24689,-1.05425 -0.32186,-1.76325c-0.06497,-0.71836 -0.09796,-1.59999 -0.09796,-2.64487c0,-0.64372 0.02399,-1.28745 0.06997,-1.93117c0.05598,-0.65306 0.12594,-1.24547 0.20991,-1.77725c0.08396,-0.5411 0.17293,-0.96092 0.26589,-1.25947c0.10295,-0.3172 0.2239,-0.53644 0.36384,-0.65771c0.13994,-0.12128 0.29888,-0.18192 0.4758,-0.18192c0.18692,0 0.33586,0.0653 0.44781,0.19591c0.11196,0.12127 0.20092,0.34053 0.26589,0.65771c0.05598,0.30787 0.09796,0.68571 0.12594,1.13351c0.03798,0.44781 0.05598,0.92828 0.05598,1.44139c0,0.6997 -0.03199,1.43671 -0.09796,2.21105c-0.06497,0.77434 -0.15394,1.53467 -0.26589,2.28102c-0.10196,0.74635 -0.2279,1.43209 -0.37784,2.05712l-0.39184,-0.19591c0.24289,-0.29858 0.51778,-0.53177 0.82565,-0.6997c0.31787,-0.16793 0.60675,-0.2519 0.86763,-0.2519c0.21491,0 0.37784,0.06064 0.4898,0.18192c0.12195,0.11196 0.18192,0.28918 0.18192,0.53177c0,0.24259 -0.10695,0.48509 -0.32186,0.7277c-0.20491,0.24259 -0.4618,0.44312 -0.76967,0.60174c-0.30787,0.14923 -0.61074,0.2239 -0.90961,0.2239zM319.87878,175.70885c-0.74568,0 -1.39941,-0.16323 -1.95917,-0.4898c-0.54977,-0.33586 -0.97958,-0.81165 -1.28745,-1.42739c-0.29787,-0.61574 -0.44781,-1.34809 -0.44781,-2.19707c0,-0.88629 0.15394,-1.66063 0.4618,-2.32301c0.30787,-0.66238 0.74168,-1.18017 1.30145,-1.55334c0.56975,-0.37317 1.22748,-0.55976 1.97315,-0.55976c0.80265,0 1.49737,0.18192 2.08511,0.54577c0.58775,0.35452 1.04555,0.85364 1.37141,1.49737c0.32685,0.64372 0.4898,1.39473 0.4898,2.25304c0,0.87696 -0.16292,1.63263 -0.4898,2.26703c-0.32587,0.63442 -0.78767,1.12422 -1.38541,1.46937c-0.59675,0.34516 -1.30145,0.51778 -2.11311,0.51778zM320.07469,173.81967c0.57875,0 1.03556,-0.22858 1.37141,-0.68571c0.34585,-0.46648 0.51778,-1.08221 0.51778,-1.84721c0,-0.77434 -0.17193,-1.39008 -0.51778,-1.84721c-0.33586,-0.45713 -0.79266,-0.68571 -1.37141,-0.68571c-0.59675,0 -1.06754,0.22858 -1.4134,0.68571c-0.34485,0.45713 -0.51778,1.07287 -0.51778,1.84721c0,0.765 0.17293,1.38073 0.51778,1.84721c0.34585,0.45713 0.81665,0.68571 1.4134,0.68571zM331.3109,169.25761c0.09296,-0.3825 0.25689,-0.7277 0.4898,-1.03556c0.24289,-0.30787 0.53177,-0.55044 0.86763,-0.7277c0.34485,-0.1866 0.72269,-0.27988 1.13351,-0.27988c0.48479,0 0.91461,0.11662 1.28745,0.34985c0.37284,0.23323 0.66672,0.61574 0.88162,1.14751c0.2239,0.53177 0.33586,1.2408 0.33586,2.12709c0,0.45713 -0.01899,0.91893 -0.05598,1.38541c-0.03698,0.46648 -0.08396,0.90028 -0.13994,1.30145c-0.05598,0.40113 -0.11695,0.73699 -0.18192,1.00757c-0.09296,0.37314 -0.2379,0.65771 -0.43381,0.85364c-0.18692,0.19591 -0.42482,0.29387 -0.7137,0.29387c-0.24289,0 -0.43381,-0.10726 -0.57376,-0.32186c-0.13994,-0.21461 -0.20991,-0.52248 -0.20991,-0.92361c0,-0.18662 0.02299,-0.42452 0.06997,-0.7137c0.04698,-0.29854 0.09796,-0.6204 0.15394,-0.96559c0.05598,-0.35452 0.10695,-0.7137 0.15394,-1.07754c0.04698,-0.36384 0.06997,-0.70903 0.06997,-1.03556c0,-0.48512 -0.09796,-0.8583 -0.29387,-1.11951c-0.19591,-0.27055 -0.4708,-0.40583 -0.82565,-0.40583c-0.39184,0 -0.71869,0.20524 -0.97958,0.61574c-0.2519,0.40116 -0.40082,0.98891 -0.44781,1.76325c-0.03698,0.69038 -0.06997,1.30611 -0.09796,1.84721c-0.02799,0.53177 -0.09796,0.97028 -0.20991,1.31544c-0.07497,0.24259 -0.18192,0.42452 -0.32186,0.54577c-0.13095,0.12125 -0.30787,0.18192 -0.53177,0.18192c-0.2519,0 -0.45281,-0.09326 -0.60174,-0.27988c-0.13994,-0.18662 -0.21891,-0.48049 -0.2379,-0.88162c-0.01899,-0.33586 -0.02299,-0.73235 -0.014,-1.1895c0.00899,-0.45713 0.014,-0.90961 0.014,-1.35741c0.00899,-0.45713 0.00499,-0.83497 -0.014,-1.13351c-0.03698,-0.59707 -0.14494,-1.03556 -0.32186,-1.31544c-0.16793,-0.27988 -0.42482,-0.41982 -0.76967,-0.41982c-0.40082,0 -0.72269,0.1866 -0.96559,0.55976c-0.23291,0.37317 -0.37784,0.89095 -0.43381,1.55334c-0.01899,0.27055 -0.02799,0.60641 -0.02799,1.00757c0.00899,0.39184 0.01899,0.78367 0.02799,1.1755c0.00899,0.39184 0.00499,0.71839 -0.014,0.97958c-0.00899,0.55976 -0.09796,0.96089 -0.26589,1.20349c-0.15893,0.24259 -0.38283,0.36384 -0.67171,0.36384c-0.34485,0 -0.59675,-0.11196 -0.75567,-0.33586c-0.14894,-0.2239 -0.24689,-0.58306 -0.29387,-1.07754c-0.03698,-0.43852 -0.06497,-0.8723 -0.08396,-1.30145c-0.01899,-0.43848 -0.02799,-0.8723 -0.02799,-1.30145c0,-0.43848 0.00899,-0.91428 0.02799,-1.42739c0.02799,-0.51311 0.06497,-0.99824 0.11196,-1.45537c0.05598,-0.46648 0.15394,-0.8583 0.29387,-1.1755c0.13994,-0.3172 0.37284,-0.4758 0.6997,-0.4758c0.27089,0 0.4618,0.13527 0.57376,0.40583c0.11196,0.26122 0.16793,0.66704 0.16793,1.21748c0,0.1866 -0.014,0.35917 -0.04198,0.51778l-0.04198,-0.27988c0.18692,-0.60641 0.48479,-1.07754 0.89561,-1.4134c0.41083,-0.34518 0.86763,-0.51778 1.37141,-0.51778c0.66272,0 1.18049,0.21458 1.55334,0.64372c0.37284,0.41982 0.57875,1.0029 0.61574,1.74925zM338.96762,166.99057c0.2519,0 0.4618,0.14926 0.62974,0.44781c0.16793,0.2892 0.28488,0.75101 0.34985,1.38541l-0.29387,0.26589c0.16793,-0.65306 0.48079,-1.15218 0.9376,-1.49737c0.45781,-0.34518 0.99857,-0.51778 1.62331,-0.51778c0.57875,0 1.09154,0.14926 1.53935,0.44781c0.44781,0.29854 0.79766,0.75101 1.04955,1.35741c0.26188,0.59707 0.39184,1.34809 0.39184,2.25304c0,1.46471 -0.26589,2.54691 -0.79766,3.24662c-0.52177,0.6904 -1.23547,1.03556 -2.14109,1.03556c-0.65272,0 -1.1655,-0.13994 -1.53935,-0.41982c-0.37284,-0.27988 -0.63373,-0.62044 -0.78367,-1.02157l0.16793,-0.08396c0.07497,0.55976 0.13594,1.11483 0.18192,1.66529c0.05598,0.54107 0.08396,1.01687 0.08396,1.42739c0,0.41982 -0.07397,0.77438 -0.2239,1.06355c-0.14894,0.28918 -0.38684,0.43381 -0.7137,0.43381c-0.31686,0 -0.55476,-0.12125 -0.7137,-0.36384c-0.15793,-0.24259 -0.27488,-0.56446 -0.34985,-0.96559c-0.05598,-0.41052 -0.11196,-0.9376 -0.16793,-1.58133c-0.05598,-0.64372 -0.10196,-1.33873 -0.13994,-2.08511c-0.02799,-0.74635 -0.04198,-1.47404 -0.04198,-2.18307c0,-0.7277 0.02399,-1.40873 0.06997,-2.04313c0.05598,-0.64372 0.12195,-1.16618 0.19591,-1.56733c0.06597,-0.23323 0.14993,-0.40583 0.2519,-0.51778c0.11196,-0.12127 0.25689,-0.18192 0.43381,-0.18192zM341.64049,168.68385c-0.50378,0 -0.90961,0.2519 -1.21748,0.75567c-0.29787,0.49446 -0.44781,1.12885 -0.44781,1.90319c0,0.79299 0.14993,1.38541 0.44781,1.77725c0.30787,0.39184 0.70469,0.58775 1.1895,0.58775c0.55976,0 0.96158,-0.21923 1.20349,-0.65771c0.2519,-0.44781 0.37784,-1.02624 0.37784,-1.73527c0,-0.90494 -0.15394,-1.56733 -0.4618,-1.98715c-0.30787,-0.42914 -0.67171,-0.64372 -1.09154,-0.64372zM350.0129,175.70885c-0.74669,0 -1.39941,-0.16323 -1.95917,-0.4898c-0.55077,-0.33586 -0.97958,-0.81165 -1.28745,-1.42739c-0.29888,-0.61574 -0.44781,-1.34809 -0.44781,-2.19707c0,-0.88629 0.15394,-1.66063 0.4618,-2.32301c0.30787,-0.66238 0.74168,-1.18017 1.30145,-1.55334c0.56876,-0.37317 1.22648,-0.55976 1.97315,-0.55976c0.80166,0 1.49737,0.18192 2.08511,0.54577c0.58775,0.35452 1.04456,0.85364 1.37141,1.49737c0.32587,0.64372 0.4898,1.39473 0.4898,2.25304c0,0.87696 -0.16393,1.63263 -0.4898,2.26703c-0.32685,0.63442 -0.78866,1.12422 -1.38541,1.46937c-0.59774,0.34516 -1.30145,0.51778 -2.11311,0.51778zM350.20883,173.81967c0.57775,0 1.03556,-0.22858 1.37141,-0.68571c0.34485,-0.46648 0.51778,-1.08221 0.51778,-1.84721c0,-0.77434 -0.17293,-1.39008 -0.51778,-1.84721c-0.33586,-0.45713 -0.79367,-0.68571 -1.37141,-0.68571c-0.59774,0 -1.06855,0.22858 -1.4134,0.68571c-0.34585,0.45713 -0.51778,1.07287 -0.51778,1.84721c0,0.765 0.17193,1.38073 0.51778,1.84721c0.34485,0.45713 0.81565,0.68571 1.4134,0.68571zM356.3652,175.80681c-0.17793,0 -0.32186,-0.05128 -0.43381,-0.15394c-0.11196,-0.11196 -0.19191,-0.27058 -0.2379,-0.4758c-0.07497,-0.34516 -0.13994,-0.84434 -0.19591,-1.49737c-0.05598,-0.65306 -0.08396,-1.37608 -0.08396,-2.16907c0,-0.97958 0.03199,-1.92185 0.09796,-2.82679c0.07397,-0.90494 0.16793,-1.64663 0.27988,-2.22505c0.12095,-0.62506 0.26989,-1.08221 0.44781,-1.37141c0.17692,-0.29854 0.40983,-0.44781 0.6997,-0.44781c0.26088,0 0.4618,0.12128 0.60174,0.36384c0.13994,0.23323 0.20991,0.63906 0.20991,1.21748c0,0.57842 -0.02399,1.19881 -0.06997,1.86121c-0.03798,0.66238 -0.10295,1.37141 -0.19591,2.12709h0.05598c0.60574,-0.82097 1.1705,-1.4787 1.69327,-1.97315c0.53177,-0.49446 1.01656,-0.85364 1.45537,-1.07754c0.44781,-0.2239 0.84364,-0.33586 1.1895,-0.33586c0.26989,0 0.4708,0.08396 0.60174,0.2519c0.12994,0.16793 0.19591,0.37317 0.19591,0.61574c0,0.4758 -0.38283,1.00757 -1.14751,1.59531c-0.75567,0.58775 -1.84721,1.1895 -3.27461,1.80523l0.014,-0.2239c0.88563,0.45713 1.6463,0.9376 2.28102,1.44139c0.64372,0.49446 1.13351,0.96559 1.46937,1.4134c0.34485,0.43852 0.51778,0.80696 0.51778,1.10553c0,0.24259 -0.07997,0.44312 -0.2379,0.60174c-0.14993,0.14923 -0.36885,0.2239 -0.65771,0.2239c-0.36384,0 -0.76967,-0.13524 -1.21748,-0.40583c-0.43881,-0.27988 -0.89561,-0.695 -1.37141,-1.24547c-0.4758,-0.55044 -0.9516,-1.2408 -1.42739,-2.07111h-0.05598c-0.00999,0.58775 -0.04698,1.16151 -0.11196,1.72127c-0.05598,0.55047 -0.13095,1.00287 -0.2239,1.35741c-0.06597,0.24259 -0.16793,0.43852 -0.30787,0.58775c-0.13095,0.13994 -0.31787,0.20991 -0.55976,0.20991zM369.9194,175.80681c-0.31686,0 -0.53677,-0.12125 -0.65771,-0.36384c-0.11196,-0.2519 -0.17692,-0.64842 -0.19591,-1.1895l0.13994,0.06997c-0.52278,1.01687 -1.51135,1.52535 -2.96674,1.52535c-0.66272,0 -1.21248,-0.11664 -1.6513,-0.34985c-0.43881,-0.24259 -0.76468,-0.55976 -0.97958,-0.9516c-0.20491,-0.40113 -0.30787,-0.83495 -0.30787,-1.30145c0,-0.80234 0.27988,-1.43671 0.83964,-1.90319c0.55976,-0.4758 1.30145,-0.7137 2.22505,-0.7137c0.60675,0 1.13351,0.08864 1.58133,0.26589c0.44781,0.17726 0.83065,0.42448 1.14751,0.74168l-0.2379,-0.02799c-0.06497,-0.94227 -0.27089,-1.61398 -0.61574,-2.01515c-0.33586,-0.4105 -0.81665,-0.61574 -1.44139,-0.61574c-0.36384,0 -0.6997,0.05598 -1.00757,0.16793c-0.30787,0.11196 -0.59275,0.22858 -0.85364,0.34985c-0.2519,0.11196 -0.4898,0.16793 -0.7137,0.16793c-0.2239,0 -0.40082,-0.07464 -0.53177,-0.2239c-0.12095,-0.14926 -0.18192,-0.34053 -0.18192,-0.57376c0,-0.33586 0.15893,-0.65306 0.4758,-0.9516c0.32685,-0.29854 0.75567,-0.5411 1.28745,-0.7277c0.53177,-0.1866 1.11053,-0.27988 1.73527,-0.27988c0.75567,0 1.4044,0.18192 1.94517,0.54577c0.54077,0.36384 0.9516,0.89561 1.23147,1.59531c0.24289,0.59707 0.41482,1.26414 0.51778,2.00115c0.10295,0.73701 0.15394,1.52535 0.15394,2.36499c0,0.63442 -0.03299,1.12422 -0.09796,1.46937c-0.06497,0.34516 -0.16793,0.58775 -0.30787,0.7277c-0.13095,0.13064 -0.30787,0.19591 -0.53177,0.19591zM366.82673,174.23948c0.30787,0 0.62073,-0.04198 0.9376,-0.12594c0.31686,-0.09326 0.58275,-0.2286 0.79766,-0.40583c0.21491,-0.17726 0.32186,-0.3965 0.32186,-0.65771c0,-0.2239 -0.09296,-0.40583 -0.27988,-0.54577c-0.17692,-0.14926 -0.41482,-0.26122 -0.7137,-0.33586c-0.28888,-0.07464 -0.60174,-0.11196 -0.9376,-0.11196c-0.56876,0 -1.00258,0.09796 -1.30145,0.29387c-0.28888,0.19591 -0.43381,0.45713 -0.43381,0.78367c0,0.35452 0.13495,0.62974 0.40583,0.82565c0.27988,0.18662 0.68071,0.27988 1.20349,0.27988zM373.99168,166.96258c0.29787,0 0.49878,0.12127 0.60174,0.36384c0.11196,0.24257 0.16793,0.60174 0.16793,1.07754c0,0.11196 -0.00999,0.23323 -0.02799,0.36384c-0.00999,0.12127 -0.02799,0.23323 -0.05598,0.33586l-0.02799,-0.27988c0.2239,-0.60641 0.56876,-1.07754 1.03556,-1.4134c0.4658,-0.34518 0.96058,-0.51778 1.48337,-0.51778c0.57775,0 1.05855,0.16326 1.44139,0.4898c0.39184,0.32654 0.68071,0.78367 0.86763,1.37141c0.19591,0.58775 0.29387,1.28277 0.29387,2.08511c0,0.49446 -0.02399,0.98425 -0.06997,1.46937c-0.03798,0.4758 -0.09397,0.91428 -0.16793,1.31544c-0.06597,0.39184 -0.13994,0.7137 -0.2239,0.96559c-0.11196,0.31716 -0.25689,0.55506 -0.43381,0.7137c-0.17793,0.14923 -0.38783,0.2239 -0.62974,0.2239c-0.24289,0 -0.42981,-0.08866 -0.55976,-0.26589c-0.13095,-0.17722 -0.19591,-0.41512 -0.19591,-0.7137c0,-0.31716 0.02299,-0.6997 0.06997,-1.14751c0.04599,-0.45713 0.08797,-0.91893 0.12594,-1.38541c0.04599,-0.4758 0.06997,-0.90494 0.06997,-1.28745c0,-1.30611 -0.42981,-1.95917 -1.28745,-1.95917c-0.45781,0 -0.83964,0.20524 -1.14751,0.61574c-0.30787,0.40116 -0.51378,0.97491 -0.61574,1.72127c-0.02799,0.2519 -0.04198,0.56444 -0.04198,0.9376c0,0.37317 0,0.74635 0,1.11951c0.00899,0.36384 0,0.67171 -0.02799,0.92361c-0.03798,0.55976 -0.14494,0.96089 -0.32186,1.20349c-0.16793,0.24259 -0.40183,0.36384 -0.6997,0.36384c-0.34585,0 -0.60675,-0.15864 -0.78367,-0.4758c-0.17793,-0.32656 -0.26589,-0.87232 -0.26589,-1.63731c0,-0.39184 0.00899,-0.83031 0.02799,-1.31544c0.01799,-0.48512 0.04198,-0.97025 0.06997,-1.45537c0.03698,-0.49446 0.07897,-0.94227 0.12594,-1.34343c0.09296,-0.75567 0.2279,-1.35275 0.40583,-1.79124c0.17692,-0.44781 0.44281,-0.67171 0.79766,-0.67171zM167.18638,192.72959c-0.57845,0 -1.05885,-0.10726 -1.44139,-0.32186c-0.37314,-0.2239 -0.65302,-0.56446 -0.83964,-1.02157c-0.13064,-0.31716 -0.2286,-0.6997 -0.29387,-1.14751c-0.05598,-0.4571 -0.08396,-0.97958 -0.08396,-1.56733c0,-1.00757 0.03268,-1.83792 0.09796,-2.49094c0.06528,-0.66242 0.15864,-1.19419 0.27988,-1.59531c0.13064,-0.41052 0.27518,-0.74168 0.43381,-0.99357c0.2519,-0.38254 0.65302,-0.6904 1.20349,-0.92361c0.55047,-0.2332 1.32943,-0.34985 2.33701,-0.34985c0.67171,0 1.20818,0.10266 1.60931,0.30787c0.41052,0.19591 0.7044,0.4571 0.88162,0.78367c0.18662,0.32656 0.27988,0.6904 0.27988,1.09154c0,0.63442 -0.18662,1.15681 -0.55976,1.56733c-0.37314,0.41052 -0.86293,0.73699 -1.46937,0.97958v0.05598c0.66242,0.07467 1.1755,0.28918 1.53935,0.64372c0.37314,0.34516 0.55976,0.83964 0.55976,1.48337c0,0.51308 -0.13064,0.98428 -0.39184,1.4134c-0.2519,0.41982 -0.59705,0.78836 -1.03556,1.10553c-0.42912,0.30787 -0.91431,0.55047 -1.45537,0.7277c-0.54107,0.16793 -1.09154,0.2519 -1.6513,0.2519zM167.62018,191.05029c0.44781,0 0.84434,-0.07467 1.1895,-0.2239c0.35454,-0.14923 0.62974,-0.34985 0.82565,-0.60174c0.20522,-0.26119 0.30787,-0.55506 0.30787,-0.88162c0,-0.35454 -0.17262,-0.64842 -0.51778,-0.88162c-0.33586,-0.24259 -0.86293,-0.36384 -1.58133,-0.36384c-0.48509,0 -0.87232,0.11664 -1.16151,0.34985c-0.27988,0.2239 -0.41982,0.61103 -0.41982,1.16151c0,0.52248 0.11196,0.89561 0.33586,1.11951c0.2239,0.21461 0.56446,0.32186 1.02157,0.32186zM167.67615,186.61419c0.63442,0 1.16151,-0.13994 1.58133,-0.41982c0.42912,-0.28918 0.64372,-0.66242 0.64372,-1.11951c0,-0.33586 -0.13524,-0.60644 -0.40583,-0.81165c-0.27058,-0.20522 -0.66702,-0.30787 -1.1895,-0.30787c-0.56906,0 -1.03556,0.11196 -1.39941,0.33586c-0.36384,0.2239 -0.54577,0.60644 -0.54577,1.14751c0,0.43852 0.11664,0.74638 0.34985,0.92361c0.24259,0.16793 0.56446,0.2519 0.96559,0.2519zM179.38757,192.79956c-0.31726,0 -0.53648,-0.12125 -0.65771,-0.36384c-0.11196,-0.2519 -0.17732,-0.64842 -0.19591,-1.1895l0.13994,0.06997c-0.52248,1.01687 -1.51135,1.52535 -2.96674,1.52535c-0.66242,0 -1.21288,-0.11664 -1.6513,-0.34985c-0.43852,-0.24259 -0.76507,-0.55976 -0.97958,-0.9516c-0.20532,-0.40113 -0.30787,-0.83495 -0.30787,-1.30145c0,-0.80236 0.27988,-1.43669 0.83964,-1.90319c0.55976,-0.4758 1.30145,-0.7137 2.22505,-0.7137c0.60634,0 1.13351,0.08866 1.58133,0.26589c0.44781,0.17722 0.83025,0.42452 1.14751,0.74168l-0.2379,-0.02799c-0.06536,-0.94229 -0.27058,-1.61401 -0.61574,-2.01515c-0.33586,-0.41052 -0.81635,-0.61574 -1.44139,-0.61574c-0.36384,0 -0.6997,0.05598 -1.00757,0.16793c-0.30787,0.11196 -0.59244,0.2286 -0.85364,0.34985c-0.2519,0.11196 -0.4898,0.16793 -0.7137,0.16793c-0.2239,0 -0.40122,-0.07467 -0.53177,-0.2239c-0.12135,-0.14923 -0.18192,-0.34055 -0.18192,-0.57376c0,-0.33586 0.15854,-0.65302 0.4758,-0.9516c0.32645,-0.29858 0.75567,-0.54107 1.28745,-0.7277c0.53177,-0.18662 1.11013,-0.27988 1.73527,-0.27988c0.75567,0 1.40401,0.18192 1.94517,0.54577c0.54107,0.36384 0.9516,0.89561 1.23147,1.59531c0.2425,0.59705 0.41512,1.26416 0.51778,2.00115c0.10255,0.73699 0.15394,1.52535 0.15394,2.36499c0,0.63442 -0.03268,1.12422 -0.09796,1.46937c-0.06536,0.34516 -0.16793,0.58775 -0.30787,0.7277c-0.13064,0.13064 -0.30787,0.19591 -0.53177,0.19591zM176.29488,191.23222c0.30787,0 0.62034,-0.04198 0.9376,-0.12594c0.31716,-0.09326 0.58306,-0.2286 0.79766,-0.40583c0.21451,-0.17722 0.32186,-0.39654 0.32186,-0.65771c0,-0.2239 -0.09336,-0.40583 -0.27988,-0.54577c-0.17732,-0.14923 -0.41522,-0.26119 -0.7137,-0.33586c-0.28928,-0.07467 -0.60174,-0.11196 -0.9376,-0.11196c-0.56916,0 -1.00297,0.09796 -1.30145,0.29387c-0.28928,0.19591 -0.43381,0.4571 -0.43381,0.78367c0,0.35454 0.13524,0.62974 0.40583,0.82565c0.27988,0.18662 0.68102,0.27988 1.20349,0.27988zM183.45942,183.95532c0.29858,0 0.49919,0.12125 0.60174,0.36384c0.11196,0.24259 0.16793,0.60174 0.16793,1.07754c0,0.11196 -0.00929,0.2332 -0.02799,0.36384c-0.00929,0.12125 -0.02799,0.2332 -0.05598,0.33586l-0.02799,-0.27988c0.2239,-0.60644 0.56916,-1.07754 1.03556,-1.4134c0.4665,-0.34516 0.961,-0.51778 1.48337,-0.51778c0.57845,0 1.05896,0.16323 1.44139,0.4898c0.39184,0.32656 0.6811,0.78367 0.86763,1.37141c0.19591,0.58775 0.29387,1.28275 0.29387,2.08511c0,0.49448 -0.02329,0.98428 -0.06997,1.46937c-0.03728,0.4758 -0.09326,0.91431 -0.16793,1.31544c-0.06528,0.39184 -0.13994,0.7137 -0.2239,0.96559c-0.11196,0.31716 -0.25649,0.55506 -0.43381,0.7137c-0.17722,0.14923 -0.38713,0.2239 -0.62974,0.2239c-0.2425,0 -0.42912,-0.08866 -0.55976,-0.26589c-0.13054,-0.17722 -0.19591,-0.41512 -0.19591,-0.7137c0,-0.31716 0.02339,-0.6997 0.06997,-1.14751c0.04668,-0.4571 0.08866,-0.91891 0.12594,-1.38541c0.04668,-0.4758 0.06997,-0.90492 0.06997,-1.28745c0,-1.30614 -0.42912,-1.95917 -1.28745,-1.95917c-0.4571,0 -0.83964,0.20522 -1.14751,0.61574c-0.30787,0.40113 -0.51308,0.97489 -0.61574,1.72127c-0.02799,0.2519 -0.04198,0.56446 -0.04198,0.9376c0,0.37314 0,0.74638 0,1.11951c0.0094,0.36384 0,0.67171 -0.02799,0.92361c-0.03728,0.55976 -0.14454,0.96089 -0.32186,1.20349c-0.16793,0.24259 -0.40113,0.36384 -0.6997,0.36384c-0.34516,0 -0.60634,-0.15864 -0.78367,-0.4758c-0.17722,-0.32656 -0.26589,-0.87232 -0.26589,-1.63731c0,-0.39184 0.0094,-0.83034 0.02799,-1.31544c0.01868,-0.48509 0.04198,-0.97028 0.06997,-1.45537c0.03739,-0.49448 0.07936,-0.94229 0.12594,-1.34343c0.09336,-0.75567 0.2286,-1.35273 0.40583,-1.79124c0.17732,-0.44781 0.44322,-0.67171 0.79766,-0.67171zM193.61518,192.4357c-0.87693,0 -1.59063,-0.33586 -2.14109,-1.00757c-0.55047,-0.68102 -0.82565,-1.71197 -0.82565,-3.09268c0,-1.47408 0.26589,-2.55161 0.79766,-3.23262c0.53177,-0.68102 1.23147,-1.02157 2.09911,-1.02157c0.51308,0 0.96559,0.13064 1.35741,0.39184c0.39184,0.26119 0.7277,0.62974 1.00757,1.10553l-0.11196,0.19591c-0.02799,-0.13064 -0.05128,-0.27058 -0.06997,-0.41982c-0.01868,-0.14923 -0.02799,-0.26119 -0.02799,-0.33586c0,-0.38254 0.06068,-0.67642 0.18192,-0.88162c0.13064,-0.21461 0.33116,-0.32186 0.60174,-0.32186c0.29858,0 0.53177,0.12125 0.6997,0.36384c0.17722,0.24259 0.31257,0.58775 0.40583,1.03556c0.12125,0.4571 0.2239,1.04025 0.30787,1.74925c0.08396,0.6997 0.12594,1.40869 0.12594,2.12709c0,0.89561 -0.03268,1.64659 -0.09796,2.25304c-0.06528,0.60644 -0.17262,1.11022 -0.32186,1.51135c-0.14923,0.40113 -0.34516,0.75098 -0.58775,1.04955c-0.40113,0.48509 -0.91891,0.85364 -1.55334,1.10553c-0.62503,0.26119 -1.34812,0.39184 -2.16907,0.39184c-0.58775,0 -1.05885,-0.05598 -1.4134,-0.16793c-0.35454,-0.10266 -0.61103,-0.24719 -0.76967,-0.43381c-0.14923,-0.17722 -0.2239,-0.37784 -0.2239,-0.60174c0,-0.2332 0.06528,-0.42912 0.19591,-0.58775c0.13064,-0.14923 0.32656,-0.2239 0.58775,-0.2239c0.2332,0 0.50378,0.03728 0.81165,0.11196c0.31716,0.07467 0.6904,0.11196 1.11951,0.11196c0.90492,0 1.54404,-0.21461 1.91718,-0.64372c0.38254,-0.41982 0.57376,-1.02626 0.57376,-1.81922c0,-0.21461 -0.014,-0.4665 -0.04198,-0.75567l0.19591,0.06997c-0.2332,0.59705 -0.57845,1.07754 -1.03556,1.44139c-0.4571,0.35454 -0.98888,0.53177 -1.59531,0.53177zM194.14696,190.71445c0.29858,0 0.59705,-0.07926 0.89561,-0.2379c0.29858,-0.15864 0.54577,-0.41982 0.74168,-0.78367c0.19591,-0.36384 0.29387,-0.85364 0.29387,-1.46937c0,-0.73699 -0.17262,-1.33873 -0.51778,-1.80523c-0.34516,-0.4665 -0.83034,-0.6997 -1.45537,-0.6997c-0.54107,0 -0.9376,0.20522 -1.1895,0.61574c-0.2519,0.41052 -0.37784,1.03086 -0.37784,1.86121c0,0.79296 0.12594,1.4134 0.37784,1.86121c0.2519,0.43852 0.66242,0.65771 1.23147,0.65771zM206.02739,192.57565c-0.2519,0 -0.44781,-0.08396 -0.58775,-0.2519c-0.13095,-0.17722 -0.21991,-0.40113 -0.26589,-0.67171c-0.04698,-0.27988 -0.06997,-0.57376 -0.06997,-0.88162l0.06997,-0.05598c-0.09397,0.40113 -0.27588,0.74638 -0.54577,1.03556c-0.27089,0.28918 -0.58375,0.51308 -0.9376,0.67171c-0.35485,0.14923 -0.7097,0.2239 -1.06355,0.2239c-0.4758,0 -0.90961,-0.11196 -1.30145,-0.33586c-0.39184,-0.2239 -0.69571,-0.56906 -0.90961,-1.03556c-0.21491,-0.49448 -0.38283,-1.11483 -0.50428,-1.86121c-0.12125,-0.75567 -0.18192,-1.53005 -0.18192,-2.32301c0,-0.42912 0.01868,-0.82565 0.05598,-1.1895c0.03728,-0.36384 0.09796,-0.66242 0.18192,-0.89561c0.07447,-0.24259 0.18641,-0.41982 0.33636,-0.53177c0.14894,-0.12125 0.33985,-0.18192 0.57376,-0.18192c0.26989,0 0.47979,0.10726 0.62974,0.32186c0.15793,0.20522 0.25589,0.49448 0.29387,0.86763c0.03698,0.30787 0.05997,0.6904 0.06997,1.14751c0.01799,0.44781 0.03199,0.90032 0.04198,1.35741c0.01799,0.44781 0.04198,0.82565 0.06997,1.13351c0.05598,0.55976 0.19992,0.97489 0.43381,1.24547c0.23291,0.26119 0.51778,0.39184 0.85364,0.39184c0.49379,0 0.87163,-0.18662 1.13351,-0.55976c0.26088,-0.37314 0.39184,-0.89561 0.39184,-1.56733c0,-0.33586 -0.01899,-0.7137 -0.05598,-1.13351c-0.03798,-0.42912 -0.07997,-0.84434 -0.12594,-1.24547c-0.03798,-0.40113 -0.05598,-0.73238 -0.05598,-0.99357c0,-0.43852 0.07397,-0.75098 0.2239,-0.9376c0.14894,-0.19591 0.35385,-0.29387 0.61574,-0.29387c0.2239,0 0.40983,0.06068 0.55976,0.18192c0.15793,0.12125 0.28387,0.28918 0.37784,0.50378c0.12994,0.27988 0.24189,0.66242 0.33586,1.14751c0.09296,0.48509 0.16793,1.03556 0.2239,1.6513c0.05598,0.61574 0.08396,1.26416 0.08396,1.94517c0,1.04486 -0.06997,1.82853 -0.20991,2.35101c-0.13994,0.51308 -0.38783,0.76967 -0.74168,0.76967zM210.10864,183.95532c0.29787,0 0.49878,0.12125 0.60174,0.36384c0.11196,0.24259 0.16793,0.60174 0.16793,1.07754c0,0.11196 -0.00999,0.2332 -0.02799,0.36384c-0.00999,0.12125 -0.02799,0.2332 -0.05598,0.33586l-0.02799,-0.27988c0.2239,-0.60644 0.56876,-1.07754 1.03556,-1.4134c0.4658,-0.34516 0.96058,-0.51778 1.48337,-0.51778c0.57775,0 1.05855,0.16323 1.44139,0.4898c0.39184,0.32656 0.68071,0.78367 0.86763,1.37141c0.19591,0.58775 0.29387,1.28275 0.29387,2.08511c0,0.49448 -0.02399,0.98428 -0.06997,1.46937c-0.03798,0.4758 -0.09397,0.91431 -0.16793,1.31544c-0.06597,0.39184 -0.13994,0.7137 -0.2239,0.96559c-0.11196,0.31716 -0.25689,0.55506 -0.43381,0.7137c-0.17793,0.14923 -0.38783,0.2239 -0.62974,0.2239c-0.24289,0 -0.42981,-0.08866 -0.55976,-0.26589c-0.13095,-0.17722 -0.19591,-0.41512 -0.19591,-0.7137c0,-0.31716 0.02299,-0.6997 0.06997,-1.14751c0.04599,-0.4571 0.08797,-0.91891 0.12594,-1.38541c0.04599,-0.4758 0.06997,-0.90492 0.06997,-1.28745c0,-1.30614 -0.42981,-1.95917 -1.28745,-1.95917c-0.45781,0 -0.83964,0.20522 -1.14751,0.61574c-0.30787,0.40113 -0.51378,0.97489 -0.61574,1.72127c-0.02799,0.2519 -0.04198,0.56446 -0.04198,0.9376c0,0.37314 0,0.74638 0,1.11951c0.00899,0.36384 0,0.67171 -0.02799,0.92361c-0.03798,0.55976 -0.14494,0.96089 -0.32186,1.20349c-0.16793,0.24259 -0.40183,0.36384 -0.6997,0.36384c-0.34585,0 -0.60675,-0.15864 -0.78367,-0.4758c-0.17793,-0.32656 -0.26589,-0.87232 -0.26589,-1.63731c0,-0.39184 0.00899,-0.83034 0.02799,-1.31544c0.01799,-0.48509 0.04198,-0.97028 0.06997,-1.45537c0.03698,-0.49448 0.07897,-0.94229 0.12594,-1.34343c0.09296,-0.75567 0.2279,-1.35273 0.40583,-1.79124c0.17692,-0.44781 0.44281,-0.67171 0.79766,-0.67171zM222.35142,192.98147c-0.58775,0 -1.04456,-0.03728 -1.37141,-0.11196c-0.31686,-0.07467 -0.53577,-0.17722 -0.65771,-0.30787c-0.12095,-0.13994 -0.18593,-0.29387 -0.19591,-0.4618c0,-0.26119 0.15394,-0.48049 0.4618,-0.65771c0.31787,-0.17722 0.89561,-0.28918 1.73527,-0.33586l-0.2239,0.26589c-0.10196,-0.4758 -0.17692,-1.03086 -0.2239,-1.66529c-0.04599,-0.63442 -0.06497,-1.29215 -0.05598,-1.97315c0.00999,-0.68102 0.04198,-1.32943 0.09796,-1.94517c0.05598,-0.62503 0.13594,-1.15681 0.2379,-1.59531l1.21748,-0.08396c-0.20491,0.08396 -0.4618,0.15864 -0.76967,0.2239c-0.30787,0.05598 -0.62472,0.08396 -0.9516,0.08396c-0.59675,0 -1.03956,-0.06528 -1.32943,-0.19591c-0.27988,-0.13064 -0.41982,-0.31257 -0.41982,-0.54577c0,-0.41052 0.24789,-0.7277 0.74168,-0.9516c0.50378,-0.2332 1.27345,-0.34985 2.30901,-0.34985c1.23147,0 2.26703,0.20522 3.10668,0.61574c0.84964,0.40113 1.49336,0.96559 1.93117,1.69327c0.43881,0.71839 0.65771,1.55803 0.65771,2.51892c0,0.83964 -0.14894,1.61401 -0.44781,2.32301c-0.29787,0.6997 -0.7277,1.31073 -1.28745,1.83321c-0.54977,0.51308 -1.21248,0.91431 -1.98715,1.20349c-0.76468,0.27988 -1.62331,0.41982 -2.57491,0.41982zM224.33856,190.82639c0.31787,0 0.65372,-0.12594 1.00757,-0.37784c0.36384,-0.26119 0.67171,-0.63903 0.92361,-1.13351c0.2519,-0.50378 0.37784,-1.12422 0.37784,-1.86121c0,-0.54107 -0.07897,-1.01228 -0.2379,-1.4134c-0.14894,-0.41052 -0.34485,-0.75098 -0.58775,-1.02157c-0.24189,-0.27058 -0.49878,-0.4711 -0.76967,-0.60174c-0.26989,-0.13994 -0.52678,-0.20991 -0.76967,-0.20991c-0.19591,0 -0.34985,0.12125 -0.4618,0.36384c-0.10196,0.24259 -0.17692,0.60644 -0.2239,1.09154c-0.04599,0.4758 -0.06997,1.06824 -0.06997,1.77725c0,1.10083 0.05598,1.94047 0.16793,2.51892c0.11196,0.57845 0.32685,0.86763 0.64372,0.86763zM236.30646,192.79956c-0.31686,0 -0.53677,-0.12125 -0.65771,-0.36384c-0.11196,-0.2519 -0.17692,-0.64842 -0.19591,-1.1895l0.13994,0.06997c-0.52278,1.01687 -1.51135,1.52535 -2.96674,1.52535c-0.66272,0 -1.21248,-0.11664 -1.6513,-0.34985c-0.43881,-0.24259 -0.76468,-0.55976 -0.97958,-0.9516c-0.20491,-0.40113 -0.30787,-0.83495 -0.30787,-1.30145c0,-0.80236 0.27988,-1.43669 0.83964,-1.90319c0.55976,-0.4758 1.30145,-0.7137 2.22505,-0.7137c0.60675,0 1.13351,0.08866 1.58133,0.26589c0.44781,0.17722 0.83065,0.42452 1.14751,0.74168l-0.2379,-0.02799c-0.06497,-0.94229 -0.27089,-1.61401 -0.61574,-2.01515c-0.33586,-0.41052 -0.81665,-0.61574 -1.44139,-0.61574c-0.36384,0 -0.6997,0.05598 -1.00757,0.16793c-0.30787,0.11196 -0.59275,0.2286 -0.85364,0.34985c-0.2519,0.11196 -0.4898,0.16793 -0.7137,0.16793c-0.2239,0 -0.40082,-0.07467 -0.53177,-0.2239c-0.12095,-0.14923 -0.18192,-0.34055 -0.18192,-0.57376c0,-0.33586 0.15893,-0.65302 0.4758,-0.9516c0.32685,-0.29858 0.75567,-0.54107 1.28745,-0.7277c0.53177,-0.18662 1.11053,-0.27988 1.73527,-0.27988c0.75567,0 1.4044,0.18192 1.94517,0.54577c0.54077,0.36384 0.9516,0.89561 1.23147,1.59531c0.24289,0.59705 0.41482,1.26416 0.51778,2.00115c0.10295,0.73699 0.15394,1.52535 0.15394,2.36499c0,0.63442 -0.03299,1.12422 -0.09796,1.46937c-0.06497,0.34516 -0.16793,0.58775 -0.30787,0.7277c-0.13095,0.13064 -0.30787,0.19591 -0.53177,0.19591zM233.21377,191.23222c0.30787,0 0.62073,-0.04198 0.9376,-0.12594c0.31686,-0.09326 0.58275,-0.2286 0.79766,-0.40583c0.21491,-0.17722 0.32186,-0.39654 0.32186,-0.65771c0,-0.2239 -0.09296,-0.40583 -0.27988,-0.54577c-0.17692,-0.14923 -0.41482,-0.26119 -0.7137,-0.33586c-0.28888,-0.07467 -0.60174,-0.11196 -0.9376,-0.11196c-0.56876,0 -1.00258,0.09796 -1.30145,0.29387c-0.28888,0.19591 -0.43381,0.4571 -0.43381,0.78367c0,0.35454 0.13495,0.62974 0.40583,0.82565c0.27988,0.18662 0.68071,0.27988 1.20349,0.27988zM240.8925,184.23521h-0.27988c-0.02799,-0.41052 -0.01899,-0.79766 0.02799,-1.16151c0.04698,-0.37314 0.14494,-0.67171 0.29387,-0.89561c0.15893,-0.2332 0.38283,-0.34985 0.67171,-0.34985c0.26088,0 0.45281,0.08396 0.57376,0.2519c0.12095,0.16793 0.18192,0.40113 0.18192,0.6997c0,0.58775 -0.11196,1.09154 -0.33586,1.51135l-0.2519,-0.02799c0.50378,-0.17722 1.07254,-0.26589 1.70727,-0.26589c0.40082,0 0.71869,0.07926 0.9516,0.2379c0.24289,0.14923 0.36384,0.40583 0.36384,0.76967c0,0.34516 -0.13994,0.60644 -0.41982,0.78367c-0.27988,0.17722 -0.62974,0.26589 -1.04955,0.26589c-0.2519,0 -0.52278,-0.00929 -0.81165,-0.02799c-0.27988,-0.02799 -0.55476,-0.06997 -0.82565,-0.12594l0.2379,-0.29387c0.08396,0.35454 0.16292,0.76038 0.2379,1.21748c0.08396,0.44781 0.15893,0.91431 0.2239,1.39941c0.06497,0.48509 0.11695,0.95629 0.15394,1.4134c0.03698,0.4571 0.05598,0.86763 0.05598,1.23147c0,0.59705 -0.09296,1.06824 -0.27988,1.4134c-0.18692,0.34516 -0.4618,0.51778 -0.82565,0.51778c-0.28888,0 -0.51778,-0.08866 -0.68571,-0.26589c-0.15893,-0.17722 -0.27488,-0.40113 -0.34985,-0.67171c-0.06497,-0.27988 -0.10695,-0.56906 -0.12594,-0.86763c-0.00899,-0.29858 -0.014,-0.56906 -0.014,-0.81165c0,-0.41052 0.01899,-0.87232 0.05598,-1.38541c0.03698,-0.52248 0.08896,-1.05885 0.15394,-1.60931c0.07497,-0.55047 0.15893,-1.08224 0.2519,-1.59531l0.27988,0.2379c-0.4758,0.24259 -1.06355,0.36384 -1.76325,0.36384c-0.42882,0 -0.76068,-0.07926 -0.99357,-0.2379c-0.23291,-0.15864 -0.34985,-0.40583 -0.34985,-0.74168c0,-0.36384 0.13095,-0.64372 0.39184,-0.83964c0.26088,-0.20522 0.61074,-0.30787 1.04955,-0.30787c0.28888,0 0.55976,0.01868 0.81165,0.05598c0.26088,0.02799 0.4898,0.06528 0.68571,0.11196zM252.04974,192.79956c-0.31686,0 -0.53677,-0.12125 -0.65771,-0.36384c-0.11196,-0.2519 -0.17692,-0.64842 -0.19591,-1.1895l0.13994,0.06997c-0.52278,1.01687 -1.51135,1.52535 -2.96674,1.52535c-0.66272,0 -1.21248,-0.11664 -1.6513,-0.34985c-0.43881,-0.24259 -0.76468,-0.55976 -0.97958,-0.9516c-0.20491,-0.40113 -0.30787,-0.83495 -0.30787,-1.30145c0,-0.80236 0.27988,-1.43669 0.83964,-1.90319c0.55976,-0.4758 1.30145,-0.7137 2.22505,-0.7137c0.60675,0 1.13351,0.08866 1.58133,0.26589c0.44781,0.17722 0.83065,0.42452 1.14751,0.74168l-0.2379,-0.02799c-0.06497,-0.94229 -0.27089,-1.61401 -0.61574,-2.01515c-0.33586,-0.41052 -0.81665,-0.61574 -1.44139,-0.61574c-0.36384,0 -0.6997,0.05598 -1.00757,0.16793c-0.30787,0.11196 -0.59275,0.2286 -0.85364,0.34985c-0.2519,0.11196 -0.4898,0.16793 -0.7137,0.16793c-0.2239,0 -0.40082,-0.07467 -0.53177,-0.2239c-0.12095,-0.14923 -0.18192,-0.34055 -0.18192,-0.57376c0,-0.33586 0.15893,-0.65302 0.4758,-0.9516c0.32685,-0.29858 0.75567,-0.54107 1.28745,-0.7277c0.53177,-0.18662 1.11053,-0.27988 1.73527,-0.27988c0.75567,0 1.4044,0.18192 1.94517,0.54577c0.54077,0.36384 0.9516,0.89561 1.23147,1.59531c0.24289,0.59705 0.41482,1.26416 0.51778,2.00115c0.10295,0.73699 0.15394,1.52535 0.15394,2.36499c0,0.63442 -0.03299,1.12422 -0.09796,1.46937c-0.06497,0.34516 -0.16793,0.58775 -0.30787,0.7277c-0.13095,0.13064 -0.30787,0.19591 -0.53177,0.19591zM248.95705,191.23222c0.30787,0 0.62073,-0.04198 0.9376,-0.12594c0.31686,-0.09326 0.58275,-0.2286 0.79766,-0.40583c0.21491,-0.17722 0.32186,-0.39654 0.32186,-0.65771c0,-0.2239 -0.09296,-0.40583 -0.27988,-0.54577c-0.17692,-0.14923 -0.41482,-0.26119 -0.7137,-0.33586c-0.28888,-0.07467 -0.60174,-0.11196 -0.9376,-0.11196c-0.56876,0 -1.00258,0.09796 -1.30145,0.29387c-0.28888,0.19591 -0.43381,0.4571 -0.43381,0.78367c0,0.35454 0.13495,0.62974 0.40583,0.82565c0.27988,0.18662 0.68071,0.27988 1.20349,0.27988zM254.69461,186.34831c0,-0.89561 0.08396,-1.53935 0.2519,-1.93117c0.16793,-0.40113 0.40583,-0.60174 0.7137,-0.60174c0.24189,0 0.43381,0.10266 0.57376,0.30787c0.13994,0.19591 0.24189,0.44312 0.30787,0.74168c0.06497,0.28918 0.09796,0.58306 0.09796,0.88162l-0.06997,-0.02799c0.15793,-0.50378 0.40082,-0.9376 0.7277,-1.30145c0.33586,-0.36384 0.73668,-0.54577 1.20349,-0.54577c0.54977,0 0.95559,0.2286 1.21748,0.68571c0.26088,0.44781 0.39184,1.00757 0.39184,1.67928c0,0.89561 -0.10295,1.52065 -0.30787,1.87521c-0.20591,0.35454 -0.48079,0.53177 -0.82565,0.53177c-0.2519,0 -0.43881,-0.10266 -0.55976,-0.30787c-0.11196,-0.20522 -0.14993,-0.56906 -0.11196,-1.09154c0.03698,-0.55047 0.00399,-0.9329 -0.09796,-1.14751c-0.10295,-0.21461 -0.26589,-0.32186 -0.4898,-0.32186c-0.27089,0 -0.49479,0.17262 -0.67171,0.51778c-0.16793,0.33586 -0.2519,0.75098 -0.2519,1.24547c0,0.19591 0.02299,0.44312 0.06997,0.74168c0.04599,0.29858 0.09796,0.62503 0.15394,0.97958c0.05598,0.34516 0.10695,0.6904 0.15394,1.03556c0.04599,0.34516 0.06997,0.66242 0.06997,0.9516c0,0.51308 -0.07997,0.88162 -0.2379,1.10553c-0.15893,0.2239 -0.38283,0.33586 -0.67171,0.33586c-0.32685,0 -0.57875,-0.10266 -0.75567,-0.30787c-0.17793,-0.21461 -0.31287,-0.55976 -0.40583,-1.03556c-0.07497,-0.42912 -0.14993,-0.9376 -0.2239,-1.52535c-0.07497,-0.58775 -0.13594,-1.1895 -0.18192,-1.80523c-0.04698,-0.61574 -0.06997,-1.17079 -0.06997,-1.66529zM266.88041,192.72959c-0.57875,0 -1.05954,-0.10726 -1.44139,-0.32186c-0.37384,-0.2239 -0.65372,-0.56446 -0.83964,-1.02157c-0.13095,-0.31716 -0.22889,-0.6997 -0.29387,-1.14751c-0.05598,-0.4571 -0.08396,-0.97958 -0.08396,-1.56733c0,-1.00757 0.03199,-1.83792 0.09796,-2.49094c0.06497,-0.66242 0.15793,-1.19419 0.27988,-1.59531c0.12994,-0.41052 0.27488,-0.74168 0.43381,-0.99357c0.2519,-0.38254 0.65272,-0.6904 1.20349,-0.92361c0.54977,-0.2332 1.32943,-0.34985 2.33701,-0.34985c0.67171,0 1.20748,0.10266 1.60931,0.30787c0.40983,0.19591 0.7037,0.4571 0.88162,0.78367c0.18593,0.32656 0.27988,0.6904 0.27988,1.09154c0,0.63442 -0.18692,1.15681 -0.55976,1.56733c-0.37384,0.41052 -0.86363,0.73699 -1.46937,0.97958v0.05598c0.66173,0.07467 1.1755,0.28918 1.53935,0.64372c0.37284,0.34516 0.55976,0.83964 0.55976,1.48337c0,0.51308 -0.13095,0.98428 -0.39184,1.4134c-0.2519,0.41982 -0.59774,0.78836 -1.03556,1.10553c-0.42981,0.30787 -0.91461,0.55047 -1.45537,0.7277c-0.54177,0.16793 -1.09154,0.2519 -1.6513,0.2519zM267.31422,191.05029c0.44781,0 0.84364,-0.07467 1.1895,-0.2239c0.35385,-0.14923 0.62974,-0.34985 0.82565,-0.60174c0.20491,-0.26119 0.30787,-0.55506 0.30787,-0.88162c0,-0.35454 -0.17293,-0.64842 -0.51778,-0.88162c-0.33586,-0.24259 -0.86363,-0.36384 -1.58133,-0.36384c-0.48579,0 -0.87263,0.11664 -1.16151,0.34985c-0.27988,0.2239 -0.41982,0.61103 -0.41982,1.16151c0,0.52248 0.11196,0.89561 0.33586,1.11951c0.2239,0.21461 0.56377,0.32186 1.02157,0.32186zM267.37019,186.61419c0.63373,0 1.16151,-0.13994 1.58133,-0.41982c0.42882,-0.28918 0.64372,-0.66242 0.64372,-1.11951c0,-0.33586 -0.13594,-0.60644 -0.40583,-0.81165c-0.27089,-0.20522 -0.66771,-0.30787 -1.1895,-0.30787c-0.56975,0 -1.03556,0.11196 -1.39941,0.33586c-0.36384,0.2239 -0.54577,0.60644 -0.54577,1.14751c0,0.43852 0.11595,0.74638 0.34985,0.92361c0.24189,0.16793 0.56377,0.2519 0.96559,0.2519zM276.88414,192.77156c-1.03556,0 -1.86121,-0.15394 -2.47695,-0.4618c-0.61574,-0.30787 -1.05855,-0.75098 -1.32943,-1.32943c-0.27089,-0.57845 -0.40583,-1.26876 -0.40583,-2.07111c0,-1.01687 0.18692,-1.87989 0.55976,-2.58889c0.38283,-0.71839 0.90462,-1.26876 1.56733,-1.6513c0.67171,-0.38254 1.43239,-0.57376 2.28102,-0.57376c0.99857,0 1.73026,0.2332 2.19707,0.6997c0.46679,0.4571 0.6997,1.05885 0.6997,1.80523c0,0.59705 -0.15893,1.11483 -0.4758,1.55334c-0.30787,0.42912 -0.73668,0.76038 -1.28745,0.99357c-0.55077,0.2332 -1.18449,0.34985 -1.90319,0.34985c-0.40082,0 -0.78866,-0.05128 -1.16151,-0.15394c-0.37284,-0.10266 -0.7087,-0.24259 -1.00757,-0.41982l0.33586,-0.61574c-0.02799,0.2239 -0.04198,0.44781 -0.04198,0.67171c0,0.65302 0.20491,1.12422 0.61574,1.4134c0.41083,0.27988 0.99357,0.41982 1.74925,0.41982c0.58775,0 1.05855,-0.05128 1.4134,-0.15394c0.35485,-0.10266 0.65272,-0.20062 0.89561,-0.29387c0.24289,-0.10266 0.48079,-0.15394 0.7137,-0.15394c0.13095,0 0.24689,0.03728 0.34985,0.11196c0.11196,0.06528 0.20092,0.16323 0.26589,0.29387c0.07497,0.13064 0.11196,0.28918 0.11196,0.4758c0,0.27988 -0.13994,0.55047 -0.41982,0.81165c-0.27988,0.2519 -0.69471,0.4618 -1.24547,0.62974c-0.54077,0.15864 -1.20849,0.2379 -2.00115,0.2379zM276.07248,188.19552c0.66272,0 1.19449,-0.13994 1.59531,-0.41982c0.40082,-0.27988 0.60174,-0.62503 0.60174,-1.03556c0,-0.32656 -0.11196,-0.59244 -0.33586,-0.79766c-0.21491,-0.21461 -0.55476,-0.32186 -1.02157,-0.32186c-0.43881,0 -0.83464,0.08396 -1.1895,0.2519c-0.34485,0.15864 -0.61574,0.36854 -0.81165,0.62974c-0.19591,0.26119 -0.29387,0.54577 -0.29387,0.85364c0,0.27058 0.12594,0.48049 0.37784,0.62974c0.26088,0.13994 0.62073,0.20991 1.07754,0.20991zM281.78005,186.34831c0,-0.89561 0.08396,-1.53935 0.2519,-1.93117c0.16793,-0.40113 0.40583,-0.60174 0.7137,-0.60174c0.24289,0 0.43381,0.10266 0.57376,0.30787c0.13994,0.19591 0.24289,0.44312 0.30787,0.74168c0.06597,0.28918 0.09796,0.58306 0.09796,0.88162l-0.06997,-0.02799c0.15893,-0.50378 0.40183,-0.9376 0.7277,-1.30145c0.33586,-0.36384 0.73768,-0.54577 1.20349,-0.54577c0.55077,0 0.95659,0.2286 1.21748,0.68571c0.26188,0.44781 0.39184,1.00757 0.39184,1.67928c0,0.89561 -0.10196,1.52065 -0.30787,1.87521c-0.20491,0.35454 -0.47979,0.53177 -0.82565,0.53177c-0.2519,0 -0.43781,-0.10266 -0.55976,-0.30787c-0.11196,-0.20522 -0.14894,-0.56906 -0.11196,-1.09154c0.03798,-0.55047 0.00499,-0.9329 -0.09796,-1.14751c-0.10196,-0.21461 -0.26589,-0.32186 -0.4898,-0.32186c-0.26989,0 -0.49379,0.17262 -0.67171,0.51778c-0.16793,0.33586 -0.2519,0.75098 -0.2519,1.24547c0,0.19591 0.02399,0.44312 0.06997,0.74168c0.04698,0.29858 0.09796,0.62503 0.15394,0.97958c0.05598,0.34516 0.10795,0.6904 0.15394,1.03556c0.04698,0.34516 0.06997,0.66242 0.06997,0.9516c0,0.51308 -0.07897,0.88162 -0.2379,1.10553c-0.15793,0.2239 -0.38183,0.33586 -0.67171,0.33586c-0.32587,0 -0.57775,-0.10266 -0.75567,-0.30787c-0.17692,-0.21461 -0.31187,-0.55976 -0.40583,-1.03556c-0.07397,-0.42912 -0.14894,-0.9376 -0.2239,-1.52535c-0.07397,-0.58775 -0.13495,-1.1895 -0.18192,-1.80523c-0.04599,-0.61574 -0.06997,-1.17079 -0.06997,-1.66529zM289.66767,181.9262c0.37284,0 0.63872,0.10266 0.79766,0.30787c0.16793,0.20522 0.2519,0.44312 0.2519,0.7137c0,0.33586 -0.10295,0.59705 -0.30787,0.78367c-0.19591,0.17722 -0.4758,0.26589 -0.83964,0.26589c-0.35485,0 -0.62073,-0.09796 -0.79766,-0.29387c-0.17793,-0.20522 -0.26589,-0.44312 -0.26589,-0.7137c0,-0.35454 0.10695,-0.62044 0.32186,-0.79766c0.21391,-0.17722 0.49379,-0.26589 0.83964,-0.26589zM289.75164,185.04686c0.29787,0 0.53177,0.27988 0.6997,0.83964c0.17692,0.55976 0.26589,1.45069 0.26589,2.67286c0,1.50205 -0.10795,2.5842 -0.32186,3.24662c-0.21491,0.66242 -0.54177,0.99357 -0.97958,0.99357c-0.33586,0 -0.58375,-0.24259 -0.74168,-0.7277c-0.15893,-0.49448 -0.2379,-1.35273 -0.2379,-2.57491c0,-1.50205 0.12095,-2.61688 0.36384,-3.34458c0.2519,-0.73699 0.56876,-1.10553 0.9516,-1.10553zM293.37809,192.79956c-0.17692,0 -0.32186,-0.05128 -0.43381,-0.15394c-0.11196,-0.11196 -0.19092,-0.27058 -0.2379,-0.4758c-0.07497,-0.34516 -0.13994,-0.84434 -0.19591,-1.49737c-0.05598,-0.65302 -0.08396,-1.37612 -0.08396,-2.16907c0,-0.97958 0.03299,-1.92188 0.09796,-2.82679c0.07497,-0.90492 0.16793,-1.64659 0.27988,-2.22505c0.12095,-0.62503 0.27089,-1.08224 0.44781,-1.37141c0.17692,-0.29858 0.41083,-0.44781 0.6997,-0.44781c0.26088,0 0.4618,0.12125 0.60174,0.36384c0.13994,0.2332 0.20991,0.63903 0.20991,1.21748c0,0.57845 -0.02299,1.19879 -0.06997,1.86121c-0.03698,0.66242 -0.10295,1.37141 -0.19591,2.12709h0.05598c0.60675,-0.82095 1.1705,-1.47867 1.69327,-1.97315c0.53177,-0.49448 1.01656,-0.85364 1.45537,-1.07754c0.44781,-0.2239 0.84463,-0.33586 1.1895,-0.33586c0.27089,0 0.4708,0.08396 0.60174,0.2519c0.13095,0.16793 0.19591,0.37314 0.19591,0.61574c0,0.4758 -0.38283,1.00757 -1.14751,1.59531c-0.75567,0.58775 -1.84721,1.1895 -3.27461,1.80523l0.014,-0.2239c0.88663,0.4571 1.6463,0.9376 2.28102,1.44139c0.64372,0.49448 1.13351,0.96559 1.46937,1.4134c0.34485,0.43852 0.51778,0.80696 0.51778,1.10553c0,0.24259 -0.07897,0.44312 -0.2379,0.60174c-0.14894,0.14923 -0.36885,0.2239 -0.65771,0.2239c-0.36384,0 -0.76967,-0.13524 -1.21748,-0.40583c-0.43881,-0.27988 -0.89561,-0.695 -1.37141,-1.24547c-0.4758,-0.55047 -0.9516,-1.24077 -1.42739,-2.07111h-0.05598c-0.00899,0.58775 -0.04698,1.16151 -0.11196,1.72127c-0.05598,0.55047 -0.13095,1.00287 -0.2239,1.35741c-0.06497,0.24259 -0.16793,0.43852 -0.30787,0.58775c-0.13095,0.13994 -0.31686,0.20991 -0.55976,0.20991zM307.11423,192.57565c-0.2519,0 -0.44781,-0.08396 -0.58775,-0.2519c-0.12994,-0.17722 -0.21891,-0.40113 -0.26589,-0.67171c-0.04599,-0.27988 -0.06997,-0.57376 -0.06997,-0.88162l0.06997,-0.05598c-0.09296,0.40113 -0.27488,0.74638 -0.54577,1.03556c-0.26989,0.28918 -0.58275,0.51308 -0.9376,0.67171c-0.35385,0.14923 -0.7087,0.2239 -1.06355,0.2239c-0.4758,0 -0.90961,-0.11196 -1.30145,-0.33586c-0.39184,-0.2239 -0.69471,-0.56906 -0.90961,-1.03556c-0.21391,-0.49448 -0.38183,-1.11483 -0.50378,-1.86121c-0.12095,-0.75567 -0.18192,-1.53005 -0.18192,-2.32301c0,-0.42912 0.01899,-0.82565 0.05598,-1.1895c0.03798,-0.36384 0.09796,-0.66242 0.18192,-0.89561c0.07497,-0.24259 0.18692,-0.41982 0.33586,-0.53177c0.14993,-0.12125 0.34085,-0.18192 0.57376,-0.18192c0.27089,0 0.48079,0.10726 0.62974,0.32186c0.15893,0.20522 0.25689,0.49448 0.29387,0.86763c0.03798,0.30787 0.06098,0.6904 0.06997,1.14751c0.01899,0.44781 0.03299,0.90032 0.04198,1.35741c0.01899,0.44781 0.04198,0.82565 0.06997,1.13351c0.05598,0.55976 0.20092,0.97489 0.43381,1.24547c0.23391,0.26119 0.51778,0.39184 0.85364,0.39184c0.49479,0 0.87263,-0.18662 1.13351,-0.55976c0.26188,-0.37314 0.39184,-0.89561 0.39184,-1.56733c0,-0.33586 -0.01799,-0.7137 -0.05598,-1.13351c-0.03698,-0.42912 -0.07897,-0.84434 -0.12594,-1.24547c-0.03698,-0.40113 -0.05598,-0.73238 -0.05598,-0.99357c0,-0.43852 0.07497,-0.75098 0.2239,-0.9376c0.14993,-0.19591 0.35485,-0.29387 0.61574,-0.29387c0.2239,0 0.41083,0.06068 0.55976,0.18192c0.15893,0.12125 0.28488,0.28918 0.37784,0.50378c0.13095,0.27988 0.24289,0.66242 0.33586,1.14751c0.09397,0.48509 0.16793,1.03556 0.2239,1.6513c0.05598,0.61574 0.08396,1.26416 0.08396,1.94517c0,1.04486 -0.06997,1.82853 -0.20991,2.35101c-0.13994,0.51308 -0.38684,0.76967 -0.74168,0.76967zM312.13308,184.23521h-0.27988c-0.02799,-0.41052 -0.01799,-0.79766 0.02799,-1.16151c0.04698,-0.37314 0.14494,-0.67171 0.29387,-0.89561c0.15893,-0.2332 0.38283,-0.34985 0.67171,-0.34985c0.26188,0 0.45281,0.08396 0.57376,0.2519c0.12195,0.16793 0.18192,0.40113 0.18192,0.6997c0,0.58775 -0.11196,1.09154 -0.33586,1.51135l-0.2519,-0.02799c0.50378,-0.17722 1.07354,-0.26589 1.70727,-0.26589c0.40183,0 0.71869,0.07926 0.9516,0.2379c0.24289,0.14923 0.36384,0.40583 0.36384,0.76967c0,0.34516 -0.13994,0.60644 -0.41982,0.78367c-0.27988,0.17722 -0.62974,0.26589 -1.04955,0.26589c-0.2519,0 -0.52177,-0.00929 -0.81165,-0.02799c-0.27988,-0.02799 -0.55476,-0.06997 -0.82565,-0.12594l0.2379,-0.29387c0.08396,0.35454 0.16393,0.76038 0.2379,1.21748c0.08396,0.44781 0.15893,0.91431 0.2239,1.39941c0.06597,0.48509 0.11695,0.95629 0.15394,1.4134c0.03798,0.4571 0.05598,0.86763 0.05598,1.23147c0,0.59705 -0.09296,1.06824 -0.27988,1.4134c-0.18593,0.34516 -0.4618,0.51778 -0.82565,0.51778c-0.28888,0 -0.51778,-0.08866 -0.68571,-0.26589c-0.15793,-0.17722 -0.27488,-0.40113 -0.34985,-0.67171c-0.06497,-0.27988 -0.10695,-0.56906 -0.12594,-0.86763c-0.00899,-0.29858 -0.014,-0.56906 -0.014,-0.81165c0,-0.41052 0.01899,-0.87232 0.05598,-1.38541c0.03798,-0.52248 0.08896,-1.05885 0.15394,-1.60931c0.07497,-0.55047 0.15893,-1.08224 0.2519,-1.59531l0.27988,0.2379c-0.4758,0.24259 -1.06355,0.36384 -1.76325,0.36384c-0.42882,0 -0.75967,-0.07926 -0.99357,-0.2379c-0.23291,-0.15864 -0.34985,-0.40583 -0.34985,-0.74168c0,-0.36384 0.13095,-0.64372 0.39184,-0.83964c0.26188,-0.20522 0.61174,-0.30787 1.04955,-0.30787c0.28987,0 0.55976,0.01868 0.81165,0.05598c0.26188,0.02799 0.4898,0.06528 0.68571,0.11196z"/></g></g></svg>