<svg version="1.1" xmlns="http://www.w3.org/2000/svg" xmlns:xlink="http://www.w3.org/1999/xlink" width="356.49563" height="13.10605" viewBox="0,0,356.49563,13.10605"><g transform="translate(-61.75219,-173.44697)"><g data-paper-data="{&quot;isPaintingLayer&quot;:true}" fill="#000000" fill-rule="nonzero" stroke="none" stroke-width="1" stroke-linecap="butt" stroke-linejoin="miter" stroke-miterlimit="10" stroke-dasharray="" stroke-dashoffset="0" style="mix-blend-mode: normal"><path d="M66.22257,184.09896c-0.99932,0 -1.8306,-0.18571 -2.49386,-0.55714c-0.66326,-0.38024 -1.1585,-0.91085 -1.48571,-1.59183c-0.32721,-0.68095 -0.49081,-1.47687 -0.49081,-2.38774c0,-1.00816 0.18129,-1.88809 0.54387,-2.63978c0.37143,-0.76054 0.90646,-1.34863 1.60509,-1.76428c0.69863,-0.41565 1.53877,-0.62347 2.52039,-0.62347c0.91973,0 1.65373,0.16361 2.20203,0.49081c0.5483,0.31837 0.82244,0.72516 0.82244,1.2204c0,0.29184 -0.09286,0.52618 -0.27857,0.70306c-0.18571,0.16802 -0.45544,0.25204 -0.80918,0.25204c-0.22993,0 -0.45544,-0.04864 -0.67653,-0.14592c-0.22108,-0.09728 -0.45986,-0.19014 -0.71632,-0.27857c-0.24761,-0.09728 -0.54387,-0.14592 -0.88877,-0.14592c-0.44218,0 -0.8534,0.08402 -1.23367,0.25204c-0.37143,0.16802 -0.6721,0.45102 -0.90204,0.84898c-0.22108,0.38912 -0.33163,0.91973 -0.33163,1.59183c0,1.017 0.22108,1.73775 0.66326,2.16223c0.45102,0.42449 1.04353,0.63673 1.77754,0.63673c0.25646,0 0.52618,-0.02208 0.80918,-0.06633c0.28299,-0.05306 0.5483,-0.1017 0.79591,-0.14592c0.24761,-0.05306 0.44659,-0.07959 0.59694,-0.07959c0.30068,0 0.53945,0.07517 0.71632,0.22551c0.17687,0.14146 0.2653,0.35371 0.2653,0.63673c0,0.40677 -0.25646,0.74285 -0.76938,1.00816c-0.51292,0.2653 -1.2602,0.39796 -2.24182,0.39796zM73.74945,183.99284c-0.70751,0 -1.32652,-0.15473 -1.85713,-0.46428c-0.5218,-0.31837 -0.92857,-0.76938 -1.2204,-1.35305c-0.28299,-0.58367 -0.42449,-1.27789 -0.42449,-2.08264c0,-0.84013 0.14592,-1.57414 0.43775,-2.20203c0.29184,-0.62789 0.70306,-1.1187 1.23367,-1.47244c0.53942,-0.35374 1.16289,-0.53061 1.8704,-0.53061c0.76057,0 1.41938,0.17245 1.97652,0.51734c0.55714,0.33606 0.99044,0.80918 1.29999,1.41938c0.30955,0.6102 0.46428,1.3221 0.46428,2.1357c0,0.83128 -0.15473,1.54761 -0.46428,2.14897c-0.30955,0.60139 -0.74731,1.06567 -1.31326,1.39285c-0.56595,0.32718 -1.23367,0.49081 -2.00305,0.49081zM73.93517,182.20203c0.54833,0 0.98163,-0.21667 1.29999,-0.65c0.32718,-0.44218 0.49081,-1.02585 0.49081,-1.75101c0,-0.73401 -0.16364,-1.31768 -0.49081,-1.75101c-0.31837,-0.43333 -0.75167,-0.65 -1.29999,-0.65c-0.56595,0 -1.01261,0.21667 -1.33979,0.65c-0.32718,0.43333 -0.49081,1.017 -0.49081,1.75101c0,0.72516 0.16364,1.30883 0.49081,1.75101c0.32718,0.43333 0.77384,0.65 1.33979,0.65zM80.22166,175.70206c0.28302,0 0.4731,0.11496 0.57041,0.3449c0.10612,0.22993 0.15918,0.57041 0.15918,1.02142c0,0.10612 -0.00881,0.22108 -0.02653,0.3449c-0.00881,0.11496 -0.02653,0.22108 -0.05306,0.31837l-0.02653,-0.2653c0.21224,-0.57483 0.53942,-1.02142 0.98163,-1.33979c0.44221,-0.32721 0.91085,-0.49081 1.40611,-0.49081c0.54833,0 1.0037,0.15476 1.36632,0.46428c0.37143,0.30953 0.64554,0.74285 0.82244,1.29999c0.18571,0.55714 0.27857,1.21598 0.27857,1.97652c0,0.46871 -0.02208,0.93299 -0.06633,1.39285c-0.03534,0.45102 -0.0884,0.86667 -0.15918,1.24693c-0.06187,0.37143 -0.13265,0.67653 -0.21224,0.9153c-0.10612,0.30065 -0.24323,0.52616 -0.41122,0.67653c-0.16799,0.14146 -0.36697,0.21224 -0.59694,0.21224c-0.22996,0 -0.40677,-0.08404 -0.53061,-0.25204c-0.12384,-0.16799 -0.18571,-0.3935 -0.18571,-0.67653c0,-0.30065 0.02208,-0.66326 0.06633,-1.08775c0.04425,-0.43333 0.08404,-0.87108 0.11939,-1.31326c0.04425,-0.45102 0.06633,-0.85782 0.06633,-1.2204c0,-1.23809 -0.40677,-1.85713 -1.2204,-1.85713c-0.4333,0 -0.79591,0.19455 -1.08775,0.58367c-0.29184,0.38027 -0.48636,0.92414 -0.58367,1.63162c-0.02653,0.23877 -0.0398,0.53503 -0.0398,0.88877c0,0.35374 0,0.70748 0,1.06122c0.00881,0.3449 0,0.63673 -0.02653,0.87551c-0.03534,0.53061 -0.13711,0.91085 -0.3051,1.14081c-0.15918,0.22996 -0.38024,0.3449 -0.66326,0.3449c-0.32718,0 -0.57486,-0.15037 -0.74285,-0.45102c-0.16799,-0.30955 -0.25204,-0.8269 -0.25204,-1.55203c0,-0.37143 0.00881,-0.78707 0.02653,-1.24693c0.01772,-0.45986 0.0398,-0.91973 0.06633,-1.37958c0.03534,-0.46871 0.07514,-0.8932 0.11939,-1.27346c0.0884,-0.71632 0.2167,-1.2823 0.38469,-1.69795c0.16799,-0.42449 0.42003,-0.63673 0.75612,-0.63673zM89.55659,175.96737h-0.2653c-0.02653,-0.38912 -0.01762,-0.75612 0.02653,-1.10101c0.04425,-0.35374 0.13711,-0.63673 0.27857,-0.84898c0.15037,-0.22108 0.36261,-0.33163 0.63673,-0.33163c0.24768,0 0.42894,0.07959 0.54387,0.23877c0.11503,0.15918 0.17245,0.38027 0.17245,0.66326c0,0.55714 -0.10612,1.03469 -0.31837,1.43265l-0.23877,-0.02653c0.47755,-0.16802 1.01706,-0.25204 1.61836,-0.25204c0.38033,0 0.68098,0.07517 0.90204,0.22551c0.22996,0.14149 0.3449,0.38469 0.3449,0.72959c0,0.32721 -0.13265,0.57483 -0.39796,0.74285c-0.2653,0.16802 -0.59694,0.25204 -0.99489,0.25204c-0.23877,0 -0.49517,-0.00884 -0.76938,-0.02653c-0.2653,-0.02653 -0.52616,-0.06633 -0.78265,-0.11939l0.22551,-0.27857c0.07959,0.33606 0.15482,0.72075 0.22551,1.15408c0.07959,0.42449 0.15037,0.86667 0.21224,1.32652c0.06197,0.45986 0.11058,0.90646 0.14592,1.33979c0.03544,0.43333 0.05306,0.82244 0.05306,1.16734c0,0.56595 -0.0884,1.01261 -0.2653,1.33979c-0.17681,0.32718 -0.43775,0.49081 -0.78265,0.49081c-0.27412,0 -0.49081,-0.08404 -0.65,-0.25204c-0.15028,-0.16799 -0.26085,-0.38024 -0.33163,-0.63673c-0.06187,-0.2653 -0.10167,-0.53942 -0.11939,-0.82244c-0.00881,-0.28302 -0.01327,-0.53945 -0.01327,-0.76938c0,-0.38912 0.01772,-0.82687 0.05306,-1.31326c0.03544,-0.49524 0.08404,-1.00373 0.14592,-1.5255c0.07078,-0.52177 0.15037,-1.02585 0.23877,-1.51224l0.2653,0.22551c-0.45102,0.22993 -1.00816,0.3449 -1.67142,0.3449c-0.40677,0 -0.72068,-0.07517 -0.94183,-0.22551c-0.22106,-0.15034 -0.33163,-0.38469 -0.33163,-0.70306c0,-0.3449 0.12384,-0.6102 0.37143,-0.79591c0.24768,-0.19455 0.57931,-0.29184 0.99489,-0.29184c0.27421,0 0.53061,0.01769 0.76938,0.05306c0.24768,0.02653 0.46428,0.0619 0.65,0.10612zM97.42998,183.99284c-0.70751,0 -1.32652,-0.15473 -1.85713,-0.46428c-0.5218,-0.31837 -0.92857,-0.76938 -1.2204,-1.35305c-0.28302,-0.58367 -0.42449,-1.27789 -0.42449,-2.08264c0,-0.84013 0.14592,-1.57414 0.43775,-2.20203c0.29184,-0.62789 0.70306,-1.1187 1.23367,-1.47244c0.53942,-0.35374 1.16289,-0.53061 1.8704,-0.53061c0.76057,0 1.41938,0.17245 1.97652,0.51734c0.55714,0.33606 0.99044,0.80918 1.29999,1.41938c0.30955,0.6102 0.46428,1.3221 0.46428,2.1357c0,0.83128 -0.15473,1.54761 -0.46428,2.14897c-0.30955,0.60139 -0.74731,1.06567 -1.31326,1.39285c-0.56595,0.32718 -1.23367,0.49081 -2.00305,0.49081zM97.6157,182.20203c0.54833,0 0.98163,-0.21667 1.29999,-0.65c0.32718,-0.44218 0.49081,-1.02585 0.49081,-1.75101c0,-0.73401 -0.16364,-1.31768 -0.49081,-1.75101c-0.31837,-0.43333 -0.75167,-0.65 -1.29999,-0.65c-0.56595,0 -1.01261,0.21667 -1.33979,0.65c-0.32718,0.43333 -0.49081,1.017 -0.49081,1.75101c0,0.72516 0.16364,1.30883 0.49081,1.75101c0.32718,0.43333 0.77384,0.65 1.33979,0.65zM103.91545,173.44697c0.28293,0 0.47755,0.11055 0.58367,0.33163c0.11493,0.22108 0.17245,0.55271 0.17245,0.99489c0,0.38027 -0.02217,0.85782 -0.06633,1.43265c-0.04425,0.57483 -0.10176,1.12755 -0.17245,1.65815h-0.07959c0.29184,-0.5483 0.66762,-0.99047 1.12755,-1.32652c0.45983,-0.33606 0.94619,-0.50408 1.45918,-0.50408c0.45102,0 0.85333,0.11055 1.20714,0.33163c0.35371,0.21224 0.64109,0.5483 0.86224,1.00816c0.20334,0.41565 0.35371,0.91088 0.45102,1.48571c0.09722,0.56598 0.14592,1.10544 0.14592,1.61836c0,0.82244 -0.05751,1.47687 -0.17245,1.96325c-0.10612,0.48636 -0.25649,0.84016 -0.45102,1.06122c-0.19462,0.21224 -0.42449,0.31837 -0.68979,0.31837c-0.55714,0 -0.83571,-0.45547 -0.83571,-1.36632c0,-0.44218 0.02208,-0.89761 0.06633,-1.36632c0.05306,-0.46871 0.07959,-0.89761 0.07959,-1.28673c0,-0.66326 -0.10612,-1.1585 -0.31837,-1.48571c-0.20343,-0.33606 -0.49972,-0.50408 -0.88877,-0.50408c-0.48646,0 -0.87996,0.21667 -1.18061,0.65c-0.30074,0.43333 -0.45102,1.03026 -0.45102,1.79081c0,0.39796 0.03534,0.83571 0.10612,1.31326c0.07068,0.46871 0.10612,0.89758 0.10612,1.28673c0,0.4333 -0.08404,0.74731 -0.25204,0.94183c-0.15918,0.18571 -0.36707,0.27857 -0.62347,0.27857c-0.19462,0 -0.36707,-0.0398 -0.51734,-0.11939c-0.14156,-0.07078 -0.2653,-0.2167 -0.37143,-0.43775c-0.09731,-0.22996 -0.18135,-0.57041 -0.25204,-1.02142c-0.05306,-0.3449 -0.10612,-0.74728 -0.15918,-1.20714c-0.05306,-0.45986 -0.09731,-0.94183 -0.13265,-1.44591c-0.03544,-0.50408 -0.06633,-0.99489 -0.09286,-1.47244c-0.01772,-0.48639 -0.02653,-0.92857 -0.02653,-1.32652c0,-1.25577 0.11939,-2.16666 0.35816,-2.73264c0.23877,-0.57483 0.57476,-0.86224 1.00816,-0.86224zM116.4709,184.01937c-0.54833,0 -1.0038,-0.10167 -1.36632,-0.3051c-0.3538,-0.21224 -0.61911,-0.53506 -0.79591,-0.96836c-0.12384,-0.30065 -0.2167,-0.66326 -0.27857,-1.08775c-0.05306,-0.43333 -0.07959,-0.92857 -0.07959,-1.48571c0,-0.9551 0.03089,-1.74217 0.09286,-2.36121c0.06187,-0.62789 0.15028,-1.13197 0.2653,-1.51224c0.12375,-0.38912 0.26085,-0.70306 0.41122,-0.94183c0.23877,-0.36259 0.61901,-0.65442 1.14081,-0.87551c0.5217,-0.22108 1.2602,-0.33163 2.21529,-0.33163c0.63673,0 1.14517,0.09728 1.5255,0.29184c0.38905,0.18571 0.66762,0.43333 0.83571,0.74285c0.17681,0.30953 0.2653,0.65442 0.2653,1.03469c0,0.60136 -0.1769,1.09659 -0.53061,1.48571c-0.3538,0.38912 -0.81809,0.69863 -1.39285,0.92857v0.05306c0.62782,0.07075 1.11428,0.27415 1.45918,0.6102c0.35371,0.32721 0.53061,0.79591 0.53061,1.40611c0,0.48639 -0.12384,0.93299 -0.37143,1.33979c-0.23877,0.39796 -0.56605,0.74731 -0.98163,1.04795c-0.40686,0.29184 -0.86669,0.5218 -1.37958,0.68979c-0.51299,0.15918 -1.03469,0.23877 -1.5653,0.23877zM116.88213,182.42754c0.42449,0 0.80027,-0.07078 1.12755,-0.21224c0.33599,-0.14146 0.59694,-0.33163 0.78265,-0.57041c0.19453,-0.24761 0.29184,-0.52618 0.29184,-0.83571c0,-0.33606 -0.16364,-0.61463 -0.49081,-0.83571c-0.31837,-0.22993 -0.81809,-0.3449 -1.49897,-0.3449c-0.45992,0 -0.8269,0.11055 -1.10101,0.33163c-0.2653,0.21224 -0.39796,0.57925 -0.39796,1.10101c0,0.49524 0.10612,0.84898 0.31837,1.06122c0.21224,0.20343 0.53497,0.3051 0.96836,0.3051zM116.93519,178.22246c0.60129,0 1.10101,-0.13265 1.49897,-0.39796c0.40677,-0.27415 0.6102,-0.62789 0.6102,-1.06122c0,-0.31837 -0.12829,-0.57483 -0.38469,-0.76938c-0.25649,-0.19455 -0.63237,-0.29184 -1.12755,-0.29184c-0.53952,0 -0.98163,0.10612 -1.32652,0.31837c-0.3449,0.21224 -0.51734,0.57483 -0.51734,1.08775c0,0.41565 0.11048,0.70748 0.33163,0.87551c0.22987,0.15918 0.53497,0.23877 0.9153,0.23877zM128.03658,184.08569c-0.30065,0 -0.50844,-0.11493 -0.62347,-0.3449c-0.10612,-0.23877 -0.16799,-0.61465 -0.18571,-1.12755l0.13265,0.06633c-0.49517,0.96391 -1.43265,1.44591 -2.81223,1.44591c-0.62782,0 -1.14962,-0.11058 -1.5653,-0.33163c-0.41558,-0.22996 -0.72513,-0.53061 -0.92857,-0.90204c-0.19453,-0.38024 -0.29184,-0.79146 -0.29184,-1.23367c0,-0.76054 0.2653,-1.36189 0.79591,-1.80407c0.53061,-0.45102 1.23367,-0.67653 2.10917,-0.67653c0.57486,0 1.07448,0.08402 1.49897,0.25204c0.42449,0.16802 0.7871,0.40238 1.08775,0.70306l-0.22551,-0.02653c-0.06187,-0.8932 -0.2564,-1.52993 -0.58367,-1.91019c-0.31837,-0.38912 -0.77374,-0.58367 -1.36632,-0.58367c-0.3449,0 -0.66326,0.05306 -0.9551,0.15918c-0.29184,0.10612 -0.5615,0.21667 -0.80918,0.33163c-0.23877,0.10612 -0.46428,0.15918 -0.67653,0.15918c-0.21224,0 -0.38024,-0.07075 -0.50408,-0.21224c-0.11493,-0.14149 -0.17245,-0.32279 -0.17245,-0.54387c0,-0.31837 0.15037,-0.61904 0.45102,-0.90204c0.30955,-0.28299 0.71632,-0.51292 1.2204,-0.68979c0.50408,-0.17687 1.05241,-0.2653 1.64489,-0.2653c0.71632,0 1.33098,0.17245 1.84387,0.51734c0.51299,0.3449 0.90204,0.84898 1.16734,1.51224c0.22996,0.56598 0.3936,1.1983 0.49081,1.89693c0.09731,0.69863 0.14592,1.44591 0.14592,2.24182c0,0.60139 -0.03089,1.06567 -0.09286,1.39285c-0.06187,0.32718 -0.15918,0.55714 -0.29184,0.68979c-0.12375,0.12384 -0.29184,0.18571 -0.50408,0.18571zM125.10496,182.59999c0.29184,0 0.58812,-0.0398 0.88877,-0.11939c0.30074,-0.0884 0.55278,-0.2167 0.75612,-0.38469c0.20343,-0.16802 0.3051,-0.37585 0.3051,-0.62347c0,-0.21224 -0.0884,-0.38469 -0.2653,-0.51734c-0.16799,-0.14149 -0.3935,-0.24761 -0.67653,-0.31837c-0.27412,-0.07075 -0.57041,-0.10612 -0.88877,-0.10612c-0.53942,0 -0.95064,0.09286 -1.23367,0.27857c-0.27412,0.18571 -0.41122,0.43333 -0.41122,0.74285c0,0.33606 0.12829,0.59694 0.38469,0.78265c0.2653,0.1769 0.64564,0.2653 1.14081,0.2653zM131.89648,175.70206c0.28302,0 0.4731,0.11496 0.57041,0.3449c0.10612,0.22993 0.15918,0.57041 0.15918,1.02142c0,0.10612 -0.00881,0.22108 -0.02653,0.3449c-0.00881,0.11496 -0.02653,0.22108 -0.05306,0.31837l-0.02653,-0.2653c0.21224,-0.57483 0.53942,-1.02142 0.98163,-1.33979c0.44221,-0.32721 0.91085,-0.49081 1.40611,-0.49081c0.54833,0 1.0037,0.15476 1.36632,0.46428c0.37143,0.30953 0.64554,0.74285 0.82244,1.29999c0.18571,0.55714 0.27857,1.21598 0.27857,1.97652c0,0.46871 -0.02208,0.93299 -0.06633,1.39285c-0.03534,0.45102 -0.0884,0.86667 -0.15918,1.24693c-0.06187,0.37143 -0.13265,0.67653 -0.21224,0.9153c-0.10612,0.30065 -0.24323,0.52616 -0.41122,0.67653c-0.16799,0.14146 -0.36697,0.21224 -0.59694,0.21224c-0.22996,0 -0.40677,-0.08404 -0.53061,-0.25204c-0.12384,-0.16799 -0.18571,-0.3935 -0.18571,-0.67653c0,-0.30065 0.02208,-0.66326 0.06633,-1.08775c0.04425,-0.43333 0.08404,-0.87108 0.11939,-1.31326c0.04425,-0.45102 0.06633,-0.85782 0.06633,-1.2204c0,-1.23809 -0.40677,-1.85713 -1.2204,-1.85713c-0.4333,0 -0.79591,0.19455 -1.08775,0.58367c-0.29184,0.38027 -0.48636,0.92414 -0.58367,1.63162c-0.02653,0.23877 -0.0398,0.53503 -0.0398,0.88877c0,0.35374 0,0.70748 0,1.06122c0.00881,0.3449 0,0.63673 -0.02653,0.87551c-0.03534,0.53061 -0.13711,0.91085 -0.3051,1.14081c-0.15918,0.22996 -0.38024,0.3449 -0.66326,0.3449c-0.32718,0 -0.57486,-0.15037 -0.74285,-0.45102c-0.16799,-0.30955 -0.25204,-0.8269 -0.25204,-1.55203c0,-0.37143 0.00881,-0.78707 0.02653,-1.24693c0.01772,-0.45986 0.0398,-0.91973 0.06633,-1.37958c0.03534,-0.46871 0.07514,-0.8932 0.11939,-1.27346c0.0884,-0.71632 0.2167,-1.2823 0.38469,-1.69795c0.16799,-0.42449 0.42003,-0.63673 0.75612,-0.63673zM141.52334,183.7408c-0.83135,0 -1.50788,-0.31837 -2.02958,-0.9551c-0.5218,-0.64554 -0.78265,-1.62278 -0.78265,-2.93162c0,-1.39727 0.25204,-2.4187 0.75612,-3.06427c0.50408,-0.64557 1.16734,-0.96836 1.98979,-0.96836c0.48636,0 0.9153,0.12381 1.28673,0.37143c0.37143,0.24761 0.68979,0.59694 0.9551,1.04795l-0.10612,0.18571c-0.02653,-0.12381 -0.0487,-0.25646 -0.06633,-0.39796c-0.01772,-0.14149 -0.02653,-0.24761 -0.02653,-0.31837c0,-0.36259 0.05742,-0.64116 0.17245,-0.83571c0.12375,-0.2034 0.31391,-0.3051 0.57041,-0.3051c0.28293,0 0.50408,0.11496 0.66326,0.3449c0.16799,0.22993 0.29619,0.55714 0.38469,0.98163c0.11493,0.43333 0.21224,0.98605 0.29184,1.65815c0.07959,0.66326 0.11939,1.33536 0.11939,2.01632c0,0.84898 -0.03098,1.56084 -0.09286,2.1357c-0.06197,0.57486 -0.16364,1.05241 -0.3051,1.43265c-0.14156,0.38024 -0.32727,0.71187 -0.55714,0.99489c-0.38033,0.45983 -0.87115,0.80918 -1.47244,1.04795c-0.59258,0.24759 -1.27792,0.37143 -2.05611,0.37143c-0.55714,0 -1.0038,-0.05306 -1.33979,-0.15918c-0.33608,-0.09731 -0.57931,-0.23432 -0.72959,-0.41122c-0.14156,-0.16799 -0.21224,-0.35816 -0.21224,-0.57041c0,-0.22106 0.06187,-0.40677 0.18571,-0.55714c0.12375,-0.14146 0.30946,-0.21224 0.55714,-0.21224c0.22106,0 0.47755,0.03534 0.76938,0.10612c0.30065,0.07078 0.65436,0.10612 1.06122,0.10612c0.85779,0 1.46353,-0.20343 1.81734,-0.6102c0.36252,-0.39796 0.54387,-0.97282 0.54387,-1.72448c0,-0.20343 -0.01327,-0.44221 -0.0398,-0.71632l0.18571,0.06633c-0.22115,0.56595 -0.54833,1.02142 -0.98163,1.36632c-0.43339,0.33608 -0.93747,0.50408 -1.51224,0.50408zM142.02742,182.10917c0.28293,0 0.56595,-0.07517 0.84898,-0.22551c0.28293,-0.15034 0.51734,-0.39796 0.70306,-0.74285c0.18571,-0.3449 0.27857,-0.80918 0.27857,-1.39285c0,-0.69863 -0.16364,-1.26904 -0.49081,-1.71122c-0.32727,-0.44218 -0.7871,-0.66326 -1.37958,-0.66326c-0.51299,0 -0.88877,0.19455 -1.12755,0.58367c-0.23877,0.38912 -0.35816,0.9772 -0.35816,1.76428c0,0.75169 0.11939,1.33979 0.35816,1.76428c0.23877,0.41565 0.62782,0.62347 1.16734,0.62347zM153.28866,183.87345c-0.23877,0 -0.42449,-0.07959 -0.55714,-0.23877c-0.12384,-0.16799 -0.20789,-0.38024 -0.25204,-0.63673c-0.04425,-0.2653 -0.06633,-0.54387 -0.06633,-0.83571l0.06633,-0.05306c-0.0885,0.38024 -0.26095,0.70751 -0.51734,0.98163c-0.25649,0.27412 -0.55278,0.48636 -0.88877,0.63673c-0.33608,0.14146 -0.67217,0.21224 -1.00816,0.21224c-0.45102,0 -0.86224,-0.10612 -1.23367,-0.31837c-0.37143,-0.21224 -0.6589,-0.53942 -0.86224,-0.98163c-0.20343,-0.46874 -0.36261,-1.05679 -0.47755,-1.76428c-0.11503,-0.71632 -0.17245,-1.45034 -0.17245,-2.20203c0,-0.4068 0.01762,-0.78265 0.05306,-1.12755c0.03534,-0.3449 0.09286,-0.62789 0.17245,-0.84898c0.07068,-0.22993 0.17681,-0.39796 0.31837,-0.50408c0.14146,-0.11496 0.32272,-0.17245 0.54387,-0.17245c0.2564,0 0.45538,0.1017 0.59694,0.3051c0.15028,0.19455 0.24313,0.46871 0.27857,0.82244c0.03534,0.29184 0.05742,0.65442 0.06633,1.08775c0.01762,0.42449 0.03089,0.8534 0.0398,1.28673c0.01762,0.42449 0.0398,0.78265 0.06633,1.07448c0.05306,0.53061 0.19007,0.92414 0.41122,1.18061c0.22106,0.24761 0.49081,0.37143 0.80918,0.37143c0.46864,0 0.8268,-0.17687 1.07448,-0.53061c0.24759,-0.35374 0.37143,-0.84898 0.37143,-1.48571c0,-0.31837 -0.01772,-0.67653 -0.05306,-1.07448c-0.03544,-0.4068 -0.07523,-0.80034 -0.11939,-1.18061c-0.03544,-0.38027 -0.05306,-0.69422 -0.05306,-0.94183c0,-0.41565 0.07068,-0.7119 0.21224,-0.88877c0.14146,-0.18571 0.33599,-0.27857 0.58367,-0.27857c0.21224,0 0.38905,0.05749 0.53061,0.17245c0.15028,0.11496 0.26966,0.27415 0.35816,0.47755c0.12375,0.2653 0.22987,0.62789 0.31837,1.08775c0.0884,0.45986 0.15918,0.98163 0.21224,1.5653c0.05306,0.58367 0.07959,1.1983 0.07959,1.84387c0,0.99047 -0.06633,1.73329 -0.19898,2.22856c-0.13265,0.48636 -0.36707,0.72959 -0.70306,0.72959zM157.15766,175.70206c0.28236,0 0.47281,0.11496 0.57041,0.3449c0.10612,0.22993 0.15918,0.57041 0.15918,1.02142c0,0.10612 -0.00948,0.22108 -0.02653,0.3449c-0.00948,0.11496 -0.02653,0.22108 -0.05306,0.31837l-0.02653,-0.2653c0.21224,-0.57483 0.53914,-1.02142 0.98163,-1.33979c0.44154,-0.32721 0.91056,-0.49081 1.40611,-0.49081c0.54766,0 1.00342,0.15476 1.36632,0.46428c0.37143,0.30953 0.64526,0.74285 0.82244,1.29999c0.18571,0.55714 0.27857,1.21598 0.27857,1.97652c0,0.46871 -0.02274,0.93299 -0.06633,1.39285c-0.03601,0.45102 -0.08907,0.86667 -0.15918,1.24693c-0.06254,0.37143 -0.13265,0.67653 -0.21224,0.9153c-0.10612,0.30065 -0.24351,0.52616 -0.41122,0.67653c-0.16866,0.14146 -0.36764,0.21224 -0.59694,0.21224c-0.23025,0 -0.40743,-0.08404 -0.53061,-0.25204c-0.12412,-0.16799 -0.18571,-0.3935 -0.18571,-0.67653c0,-0.30065 0.02179,-0.66326 0.06633,-1.08775c0.04359,-0.43333 0.08338,-0.87108 0.11939,-1.31326c0.04359,-0.45102 0.06633,-0.85782 0.06633,-1.2204c0,-1.23809 -0.40743,-1.85713 -1.2204,-1.85713c-0.43396,0 -0.79591,0.19455 -1.08775,0.58367c-0.29184,0.38027 -0.48702,0.92414 -0.58367,1.63162c-0.02653,0.23877 -0.0398,0.53503 -0.0398,0.88877c0,0.35374 0,0.70748 0,1.06122c0.00853,0.3449 0,0.63673 -0.02653,0.87551c-0.03601,0.53061 -0.13739,0.91085 -0.3051,1.14081c-0.15918,0.22996 -0.3809,0.3449 -0.66326,0.3449c-0.32784,0 -0.57514,-0.15037 -0.74285,-0.45102c-0.16866,-0.30955 -0.25223,-0.8269 -0.25223,-1.55203c0,-0.37143 0.00881,-0.78707 0.02653,-1.24693c0.01762,-0.45986 0.03999,-0.91973 0.06652,-1.37958c0.03506,-0.46871 0.07485,-0.8932 0.11939,-1.27346c0.08812,-0.71632 0.21603,-1.2823 0.38469,-1.69795c0.16771,-0.42449 0.41975,-0.63673 0.75612,-0.63673zM168.76379,184.25814c-0.55714,0 -0.9911,-0.03534 -1.29999,-0.10612c-0.30131,-0.07078 -0.50882,-0.16799 -0.62347,-0.29184c-0.1156,-0.13265 -0.17719,-0.27857 -0.18571,-0.43775c0,-0.24759 0.14592,-0.45547 0.43775,-0.62347c0.30036,-0.16799 0.84898,-0.27412 1.64489,-0.31837l-0.21224,0.25204c-0.09759,-0.45102 -0.16866,-0.9772 -0.21224,-1.57856c-0.04453,-0.60136 -0.06254,-1.22483 -0.05306,-1.8704c0.00853,-0.64557 0.0398,-1.2602 0.09286,-1.84387c0.05306,-0.59251 0.12791,-1.09659 0.22551,-1.51224l1.15408,-0.07959c-0.19519,0.07959 -0.43775,0.15034 -0.72959,0.21224c-0.29184,0.05306 -0.59315,0.07959 -0.90204,0.07959c-0.56662,0 -0.98637,-0.0619 -1.2602,-0.18571c-0.2653,-0.12381 -0.39796,-0.29626 -0.39796,-0.51734c0,-0.38912 0.23404,-0.68979 0.70306,-0.90204c0.47755,-0.22108 1.20714,-0.33163 2.18876,-0.33163c1.16734,0 2.14897,0.19455 2.94488,0.58367c0.80444,0.38027 1.41464,0.9153 1.8306,1.60509c0.41501,0.68095 0.62347,1.47687 0.62347,2.38774c0,0.79591 -0.14213,1.52993 -0.42449,2.20203c-0.28331,0.66326 -0.68979,1.24248 -1.2204,1.73775c-0.52208,0.48636 -1.15029,0.86669 -1.88366,1.14081c-0.7258,0.2653 -1.53877,0.39796 -2.4408,0.39796zM170.64745,182.21529c0.30036,0 0.61873,-0.11939 0.9551,-0.35816c0.3449,-0.24761 0.63673,-0.60578 0.87551,-1.07448c0.23877,-0.47755 0.35816,-1.06564 0.35816,-1.76428c0,-0.51292 -0.0758,-0.95952 -0.22551,-1.33979c-0.14213,-0.38912 -0.32784,-0.7119 -0.55714,-0.96836c-0.23025,-0.25646 -0.47376,-0.44659 -0.72959,-0.57041c-0.25678,-0.13265 -0.50029,-0.19898 -0.72959,-0.19898c-0.18571,0 -0.33163,0.11496 -0.43775,0.3449c-0.09759,0.22993 -0.16866,0.57483 -0.21224,1.03469c-0.04453,0.45102 -0.06633,1.01258 -0.06633,1.68468c0,1.04353 0.05306,1.83944 0.15918,2.38774c0.10612,0.5483 0.30889,0.82244 0.6102,0.82244zM181.99112,184.08569c-0.30036,0 -0.50787,-0.11493 -0.62347,-0.3449c-0.10612,-0.23877 -0.16771,-0.61465 -0.18571,-1.12755l0.13265,0.06633c-0.4946,0.96391 -1.43265,1.44591 -2.81223,1.44591c-0.62726,0 -1.14934,-0.11058 -1.5653,-0.33163c-0.41501,-0.22996 -0.72485,-0.53061 -0.92857,-0.90204c-0.19424,-0.38024 -0.29184,-0.79146 -0.29184,-1.23367c0,-0.76054 0.2653,-1.36189 0.79591,-1.80407c0.53061,-0.45102 1.23367,-0.67653 2.10917,-0.67653c0.57514,0 1.07448,0.08402 1.49897,0.25204c0.42449,0.16802 0.78739,0.40238 1.08775,0.70306l-0.22551,-0.02653c-0.06159,-0.8932 -0.25583,-1.52993 -0.58367,-1.91019c-0.31837,-0.38912 -0.77317,-0.58367 -1.36632,-0.58367c-0.3449,0 -0.66326,0.05306 -0.9551,0.15918c-0.29184,0.10612 -0.56093,0.21667 -0.80918,0.33163c-0.23877,0.10612 -0.46428,0.15918 -0.67653,0.15918c-0.21224,0 -0.37995,-0.07075 -0.50408,-0.21224c-0.11465,-0.14149 -0.17245,-0.32279 -0.17245,-0.54387c0,-0.31837 0.15066,-0.61904 0.45102,-0.90204c0.30984,-0.28299 0.71632,-0.51292 1.2204,-0.68979c0.50408,-0.17687 1.05269,-0.2653 1.64489,-0.2653c0.71632,0 1.33126,0.17245 1.84387,0.51734c0.51355,0.3449 0.90204,0.84898 1.16734,1.51224c0.23025,0.56598 0.39417,1.1983 0.49081,1.89693c0.09759,0.69863 0.14592,1.44591 0.14592,2.24182c0,0.60139 -0.03032,1.06567 -0.09286,1.39285c-0.06159,0.32718 -0.15918,0.55714 -0.29184,0.68979c-0.12318,0.12384 -0.29184,0.18571 -0.50408,0.18571zM179.05951,182.59999c0.29184,0 0.58841,-0.0398 0.88877,-0.11939c0.30131,-0.0884 0.55335,-0.2167 0.75612,-0.38469c0.20372,-0.16802 0.3051,-0.37585 0.3051,-0.62347c0,-0.21224 -0.08812,-0.38469 -0.2653,-0.51734c-0.16771,-0.14149 -0.39322,-0.24761 -0.67653,-0.31837c-0.27383,-0.07075 -0.57041,-0.10612 -0.88877,-0.10612c-0.53914,0 -0.95036,0.09286 -1.23367,0.27857c-0.27383,0.18571 -0.41122,0.43333 -0.41122,0.74285c0,0.33606 0.12886,0.59694 0.38469,0.78265c0.2653,0.1769 0.64621,0.2653 1.14081,0.2653zM186.33833,175.96737h-0.2653c-0.02653,-0.38912 -0.018,-0.75612 0.02653,-1.10101c0.04453,-0.35374 0.13739,-0.63673 0.27857,-0.84898c0.15066,-0.22108 0.3629,-0.33163 0.63673,-0.33163c0.2473,0 0.42923,0.07959 0.54387,0.23877c0.11465,0.15918 0.17245,0.38027 0.17245,0.66326c0,0.55714 -0.10612,1.03469 -0.31837,1.43265l-0.23877,-0.02653c0.47755,-0.16802 1.01669,-0.25204 1.61836,-0.25204c0.37995,0 0.68126,0.07517 0.90204,0.22551c0.23025,0.14149 0.3449,0.38469 0.3449,0.72959c0,0.32721 -0.13265,0.57483 -0.39796,0.74285c-0.2653,0.16802 -0.59694,0.25204 -0.99489,0.25204c-0.23877,0 -0.49555,-0.00884 -0.76938,-0.02653c-0.2653,-0.02653 -0.52587,-0.06633 -0.78265,-0.11939l0.22551,-0.27857c0.07959,0.33606 0.15445,0.72075 0.22551,1.15408c0.07959,0.42449 0.15066,0.86667 0.21224,1.32652c0.06159,0.45986 0.11086,0.90646 0.14592,1.33979c0.03506,0.43333 0.05306,0.82244 0.05306,1.16734c0,0.56595 -0.08812,1.01261 -0.2653,1.33979c-0.17719,0.32718 -0.43775,0.49081 -0.78265,0.49081c-0.27383,0 -0.49081,-0.08404 -0.65,-0.25204c-0.15066,-0.16799 -0.26057,-0.38024 -0.33163,-0.63673c-0.06159,-0.2653 -0.10138,-0.53942 -0.11939,-0.82244c-0.00853,-0.28302 -0.01327,-0.53945 -0.01327,-0.76938c0,-0.38912 0.018,-0.82687 0.05306,-1.31326c0.03506,-0.49524 0.08433,-1.00373 0.14592,-1.5255c0.07106,-0.52177 0.15066,-1.02585 0.23877,-1.51224l0.2653,0.22551c-0.45102,0.22993 -1.00816,0.3449 -1.67142,0.3449c-0.40648,0 -0.72106,-0.07517 -0.94183,-0.22551c-0.22077,-0.15034 -0.33163,-0.38469 -0.33163,-0.70306c0,-0.3449 0.12412,-0.6102 0.37143,-0.79591c0.2473,-0.19455 0.57893,-0.29184 0.99489,-0.29184c0.27383,0 0.53061,0.01769 0.76938,0.05306c0.2473,0.02653 0.46428,0.0619 0.65,0.10612zM196.91451,184.08569c-0.30036,0 -0.50787,-0.11493 -0.62347,-0.3449c-0.10612,-0.23877 -0.16771,-0.61465 -0.18571,-1.12755l0.13265,0.06633c-0.4946,0.96391 -1.43265,1.44591 -2.81223,1.44591c-0.62726,0 -1.14934,-0.11058 -1.5653,-0.33163c-0.41501,-0.22996 -0.72485,-0.53061 -0.92857,-0.90204c-0.19424,-0.38024 -0.29184,-0.79146 -0.29184,-1.23367c0,-0.76054 0.2653,-1.36189 0.79591,-1.80407c0.53061,-0.45102 1.23367,-0.67653 2.10917,-0.67653c0.57514,0 1.07448,0.08402 1.49897,0.25204c0.42449,0.16802 0.78739,0.40238 1.08775,0.70306l-0.22551,-0.02653c-0.06159,-0.8932 -0.25583,-1.52993 -0.58367,-1.91019c-0.31837,-0.38912 -0.77317,-0.58367 -1.36632,-0.58367c-0.3449,0 -0.66326,0.05306 -0.9551,0.15918c-0.29184,0.10612 -0.56093,0.21667 -0.80918,0.33163c-0.23877,0.10612 -0.46428,0.15918 -0.67653,0.15918c-0.21224,0 -0.37995,-0.07075 -0.50408,-0.21224c-0.11465,-0.14149 -0.17245,-0.32279 -0.17245,-0.54387c0,-0.31837 0.15066,-0.61904 0.45102,-0.90204c0.30984,-0.28299 0.71632,-0.51292 1.2204,-0.68979c0.50408,-0.17687 1.05269,-0.2653 1.64489,-0.2653c0.71632,0 1.33126,0.17245 1.84387,0.51734c0.51355,0.3449 0.90204,0.84898 1.16734,1.51224c0.23025,0.56598 0.39417,1.1983 0.49081,1.89693c0.09759,0.69863 0.14592,1.44591 0.14592,2.24182c0,0.60139 -0.03032,1.06567 -0.09286,1.39285c-0.06159,0.32718 -0.15918,0.55714 -0.29184,0.68979c-0.12318,0.12384 -0.29184,0.18571 -0.50408,0.18571zM193.9829,182.59999c0.29184,0 0.58841,-0.0398 0.88877,-0.11939c0.30131,-0.0884 0.55335,-0.2167 0.75612,-0.38469c0.20372,-0.16802 0.3051,-0.37585 0.3051,-0.62347c0,-0.21224 -0.08812,-0.38469 -0.2653,-0.51734c-0.16771,-0.14149 -0.39322,-0.24761 -0.67653,-0.31837c-0.27383,-0.07075 -0.57041,-0.10612 -0.88877,-0.10612c-0.53914,0 -0.95036,0.09286 -1.23367,0.27857c-0.27383,0.18571 -0.41122,0.43333 -0.41122,0.74285c0,0.33606 0.12886,0.59694 0.38469,0.78265c0.2653,0.1769 0.64621,0.2653 1.14081,0.2653zM199.42164,177.97042c0,-0.84898 0.07959,-1.45918 0.23877,-1.8306c0.15918,-0.38027 0.38469,-0.57041 0.67653,-0.57041c0.23025,0 0.41122,0.09728 0.54387,0.29184c0.13265,0.18571 0.23025,0.42006 0.29184,0.70306c0.06159,0.27415 0.09286,0.55271 0.09286,0.83571l-0.06633,-0.02653c0.15066,-0.47755 0.37995,-0.88877 0.68979,-1.23367c0.31837,-0.3449 0.69832,-0.51734 1.14081,-0.51734c0.52208,0 0.90677,0.21667 1.15408,0.65c0.2473,0.42449 0.37143,0.9551 0.37143,1.59183c0,0.84898 -0.09759,1.44149 -0.29184,1.77754c-0.19424,0.33606 -0.45576,0.50408 -0.78265,0.50408c-0.23877,0 -0.41596,-0.09728 -0.53061,-0.29184c-0.10612,-0.19455 -0.14118,-0.53945 -0.10612,-1.03469c0.03506,-0.52177 0.00474,-0.88435 -0.09286,-1.08775c-0.09759,-0.2034 -0.25204,-0.3051 -0.46428,-0.3051c-0.25678,0 -0.46902,0.16361 -0.63673,0.49081c-0.15918,0.31837 -0.23877,0.7119 -0.23877,1.18061c0,0.18571 0.02179,0.42006 0.06633,0.70306c0.04453,0.28299 0.09286,0.59251 0.14592,0.92857c0.05306,0.32721 0.10138,0.65442 0.14592,0.98163c0.04453,0.32721 0.06633,0.62792 0.06633,0.90204c0,0.48636 -0.07485,0.83571 -0.22551,1.04795c-0.15066,0.21224 -0.3629,0.31837 -0.63673,0.31837c-0.30984,0 -0.54861,-0.09731 -0.71632,-0.29184c-0.16771,-0.20343 -0.29657,-0.53061 -0.38469,-0.98163c-0.07106,-0.40677 -0.14118,-0.88877 -0.21224,-1.44591c-0.07106,-0.55714 -0.12791,-1.12755 -0.17245,-1.71122c-0.04453,-0.58367 -0.06633,-1.10985 -0.06633,-1.57856zM212.1269,174.41534c1.05269,0 1.82586,0.26973 2.32142,0.80918c0.50408,0.53945 0.75612,1.24693 0.75612,2.12244c0,0.60136 -0.14118,1.12312 -0.42449,1.5653c-0.27383,0.44218 -0.65,0.78707 -1.12755,1.03469c-0.47755,0.23877 -1.01669,0.35816 -1.61836,0.35816c-0.28331,0 -0.58367,-0.03096 -0.90204,-0.09286c-0.30984,-0.0619 -0.63199,-0.18129 -0.96836,-0.35816l0.06633,-0.17245c0.07106,0.22108 0.12791,0.49524 0.17245,0.82244c0.05306,0.31837 0.09286,0.65 0.11939,0.99489c0.03506,0.33606 0.05306,0.64554 0.05306,0.92857c0,0.5218 -0.08812,0.92411 -0.2653,1.20714c-0.16771,0.27412 -0.41975,0.41122 -0.75612,0.41122c-0.28331,0 -0.50882,-0.0884 -0.67653,-0.2653c-0.15918,-0.1769 -0.27004,-0.46874 -0.33163,-0.87551c-0.06159,-0.40677 -0.09286,-0.95067 -0.09286,-1.63162c0,-1.30883 0.0578,-2.42311 0.17245,-3.34284c0.12412,-0.92857 0.33163,-1.65815 0.62347,-2.18876c0.23025,-0.4068 0.58367,-0.72959 1.06122,-0.96836c0.48608,-0.23877 1.09249,-0.35816 1.81734,-0.35816zM211.87486,178.7398c0.53061,0 0.95983,-0.14149 1.28673,-0.42449c0.33637,-0.28299 0.50408,-0.69422 0.50408,-1.23367c0,-0.35374 -0.11939,-0.64557 -0.35816,-0.87551c-0.23025,-0.23877 -0.5922,-0.35816 -1.08775,-0.35816c-0.3629,0 -0.67653,0.08402 -0.94183,0.25204c-0.2653,0.15918 -0.46902,0.38469 -0.6102,0.67653c-0.13265,0.28299 -0.19898,0.6102 -0.19898,0.98163c0,0.3449 0.11086,0.59694 0.33163,0.75612c0.23025,0.15034 0.58841,0.22551 1.07448,0.22551zM220.05382,184.05916c-0.98163,0 -1.76428,-0.14592 -2.34795,-0.43775c-0.58367,-0.29184 -1.00342,-0.71187 -1.2602,-1.2602c-0.25583,-0.5483 -0.38469,-1.20271 -0.38469,-1.96325c0,-0.96394 0.17719,-1.78197 0.53061,-2.45407c0.3629,-0.68095 0.85845,-1.20271 1.48571,-1.5653c0.63673,-0.36259 1.35779,-0.54387 2.16223,-0.54387c0.94657,0 1.6411,0.22108 2.08264,0.66326c0.44249,0.43333 0.66326,1.00373 0.66326,1.71122c0,0.56598 -0.14971,1.05679 -0.45102,1.47244c-0.29184,0.4068 -0.69832,0.72075 -1.2204,0.94183c-0.52113,0.22108 -1.12281,0.33163 -1.80407,0.33163c-0.37995,0 -0.74664,-0.04864 -1.10101,-0.14592c-0.35342,-0.09728 -0.67179,-0.22993 -0.9551,-0.39796l0.31837,-0.58367c-0.02653,0.21224 -0.0398,0.42449 -0.0398,0.63673c0,0.61904 0.19519,1.06564 0.58367,1.33979c0.38943,0.2653 0.94183,0.39796 1.65815,0.39796c0.55714,0 1.00437,-0.04861 1.33979,-0.14592c0.33637,-0.09728 0.61968,-0.19014 0.84898,-0.27857c0.23025,-0.09728 0.45576,-0.14592 0.67653,-0.14592c0.12412,0 0.23498,0.03537 0.33163,0.10612c0.10612,0.0619 0.19045,0.15476 0.25204,0.27857c0.07106,0.12384 0.10612,0.27412 0.10612,0.45102c0,0.2653 -0.13265,0.5218 -0.39796,0.76938c-0.2653,0.23877 -0.65852,0.43775 -1.18061,0.59694c-0.51261,0.15037 -1.1446,0.22551 -1.89693,0.22551zM219.28444,179.72143c0.6282,0 1.13228,-0.13265 1.51224,-0.39796c0.3809,-0.2653 0.57041,-0.59251 0.57041,-0.98163c0,-0.30953 -0.10612,-0.56156 -0.31837,-0.75612c-0.20277,-0.2034 -0.52587,-0.3051 -0.96836,-0.3051c-0.41501,0 -0.79118,0.07959 -1.12755,0.23877c-0.32689,0.15034 -0.58367,0.34932 -0.76938,0.59694c-0.18571,0.24761 -0.27857,0.51734 -0.27857,0.80918c0,0.25646 0.11939,0.45544 0.35816,0.59694c0.24825,0.13265 0.58841,0.19898 1.02142,0.19898zM224.69571,177.97042c0,-0.84898 0.07959,-1.45918 0.23877,-1.8306c0.15918,-0.38027 0.38469,-0.57041 0.67653,-0.57041c0.2293,0 0.41122,0.09728 0.54387,0.29184c0.13265,0.18571 0.2293,0.42006 0.29184,0.70306c0.06159,0.27415 0.09286,0.55271 0.09286,0.83571l-0.06633,-0.02653c0.14971,-0.47755 0.37995,-0.88877 0.68979,-1.23367c0.31837,-0.3449 0.69832,-0.51734 1.14081,-0.51734c0.52113,0 0.90583,0.21667 1.15408,0.65c0.2473,0.42449 0.37143,0.9551 0.37143,1.59183c0,0.84898 -0.09759,1.44149 -0.29184,1.77754c-0.19519,0.33606 -0.45576,0.50408 -0.78265,0.50408c-0.23877,0 -0.41596,-0.09728 -0.53061,-0.29184c-0.10612,-0.19455 -0.14213,-0.53945 -0.10612,-1.03469c0.03506,-0.52177 0.00379,-0.88435 -0.09286,-1.08775c-0.09759,-0.2034 -0.25204,-0.3051 -0.46428,-0.3051c-0.25678,0 -0.46902,0.16361 -0.63673,0.49081c-0.15918,0.31837 -0.23877,0.7119 -0.23877,1.18061c0,0.18571 0.02179,0.42006 0.06633,0.70306c0.04359,0.28299 0.09286,0.59251 0.14592,0.92857c0.05306,0.32721 0.10138,0.65442 0.14592,0.98163c0.04359,0.32721 0.06633,0.62792 0.06633,0.90204c0,0.48636 -0.0758,0.83571 -0.22551,1.04795c-0.15066,0.21224 -0.3629,0.31837 -0.63673,0.31837c-0.30984,0 -0.54861,-0.09731 -0.71632,-0.29184c-0.16866,-0.20343 -0.29657,-0.53061 -0.38469,-0.98163c-0.07106,-0.40677 -0.14213,-0.88877 -0.21224,-1.44591c-0.07106,-0.55714 -0.12886,-1.12755 -0.17245,-1.71122c-0.04453,-0.58367 -0.06633,-1.10985 -0.06633,-1.57856zM234.36038,175.649c0.78739,0 1.35305,0.11496 1.69795,0.3449c0.3449,0.22993 0.51734,0.52618 0.51734,0.88877c0,0.21224 -0.07485,0.38912 -0.22551,0.53061c-0.14118,0.13265 -0.3449,0.19898 -0.6102,0.19898c-0.27383,0 -0.56188,-0.0398 -0.86224,-0.11939c-0.29184,-0.07959 -0.63199,-0.11939 -1.02142,-0.11939c-0.45102,0 -0.78739,0.08843 -1.00816,0.2653c-0.22077,0.17687 -0.33163,0.40238 -0.33163,0.67653c0,0.25646 0.09759,0.45986 0.29184,0.6102c0.20372,0.14149 0.58841,0.24761 1.15408,0.31837c0.6282,0.07075 1.14555,0.18571 1.55203,0.3449c0.41596,0.15034 0.72485,0.38027 0.92857,0.68979c0.20372,0.30068 0.3051,0.71632 0.3051,1.24693c0,0.84016 -0.29657,1.46363 -0.88877,1.8704c-0.5922,0.40677 -1.41085,0.6102 -2.45407,0.6102c-0.66326,0 -1.18913,-0.05306 -1.57856,-0.15918c-0.38943,-0.10612 -0.67179,-0.25649 -0.84898,-0.45102c-0.16771,-0.19453 -0.25204,-0.42449 -0.25204,-0.68979c0,-0.22996 0.07485,-0.40677 0.22551,-0.53061c0.15918,-0.13265 0.3449,-0.19898 0.55714,-0.19898c0.20372,0 0.41975,0.02653 0.65,0.07959c0.23025,0.04425 0.47281,0.09286 0.72959,0.14592c0.25678,0.05306 0.52208,0.07959 0.79591,0.07959c0.88403,0 1.32652,-0.27415 1.32652,-0.82244c0,-0.18571 -0.04453,-0.33606 -0.13265,-0.45102c-0.08812,-0.11496 -0.2473,-0.20782 -0.47755,-0.27857c-0.23025,-0.07959 -0.56567,-0.14149 -1.00816,-0.18571c-0.53061,-0.05306 -0.99016,-0.14149 -1.37958,-0.2653c-0.38943,-0.13265 -0.68979,-0.3449 -0.90204,-0.63673c-0.21224,-0.30068 -0.31837,-0.7119 -0.31837,-1.23367c0,-0.82244 0.30984,-1.48571 0.92857,-1.98979c0.61873,-0.51292 1.49897,-0.76938 2.63978,-0.76938zM241.80502,184.05916c-0.98163,0 -1.76428,-0.14592 -2.34795,-0.43775c-0.58367,-0.29184 -1.00437,-0.71187 -1.2602,-1.2602c-0.25678,-0.5483 -0.38469,-1.20271 -0.38469,-1.96325c0,-0.96394 0.17624,-1.78197 0.53061,-2.45407c0.36195,-0.68095 0.8575,-1.20271 1.48571,-1.5653c0.63578,-0.36259 1.35684,-0.54387 2.16223,-0.54387c0.94562,0 1.64015,0.22108 2.08264,0.66326c0.44154,0.43333 0.66326,1.00373 0.66326,1.71122c0,0.56598 -0.15066,1.05679 -0.45197,1.47244c-0.29089,0.4068 -0.69832,0.72075 -1.21945,0.94183c-0.52208,0.22108 -1.12375,0.33163 -1.80407,0.33163c-0.3809,0 -0.74759,-0.04864 -1.10101,-0.14592c-0.35437,-0.09728 -0.67274,-0.22993 -0.9551,-0.39796l0.31837,-0.58367c-0.02653,0.21224 -0.0398,0.42449 -0.0398,0.63673c0,0.61904 0.19424,1.06564 0.58367,1.33979c0.38848,0.2653 0.94183,0.39796 1.65815,0.39796c0.55714,0 1.00342,-0.04861 1.33979,-0.14592c0.33542,-0.09728 0.61873,-0.19014 0.84898,-0.27857c0.2293,-0.09728 0.45481,-0.14592 0.67558,-0.14592c0.12412,0 0.23498,0.03537 0.33258,0.10612c0.10612,0.0619 0.1895,0.15476 0.25204,0.27857c0.07012,0.12384 0.10612,0.27412 0.10612,0.45102c0,0.2653 -0.13265,0.5218 -0.39796,0.76938c-0.2653,0.23877 -0.65947,0.43775 -1.18061,0.59694c-0.51355,0.15037 -1.14555,0.22551 -1.89693,0.22551zM241.03564,179.72143c0.62726,0 1.13134,-0.13265 1.51224,-0.39796c0.37995,-0.2653 0.57041,-0.59251 0.57041,-0.98163c0,-0.30953 -0.10612,-0.56156 -0.31837,-0.75612c-0.20372,-0.2034 -0.52682,-0.3051 -0.96836,-0.3051c-0.41596,0 -0.79212,0.07959 -1.12755,0.23877c-0.32784,0.15034 -0.58367,0.34932 -0.76938,0.59694c-0.18571,0.24761 -0.27857,0.51734 -0.27857,0.80918c0,0.25646 0.11939,0.45544 0.35816,0.59694c0.2473,0.13265 0.58746,0.19898 1.02142,0.19898zM248.97962,183.7408c-0.83097,0 -1.5075,-0.31837 -2.02958,-0.9551c-0.52208,-0.64554 -0.78265,-1.62278 -0.78265,-2.93162c0,-1.39727 0.25204,-2.4187 0.75612,-3.06427c0.50408,-0.64557 1.16734,-0.96836 1.98979,-0.96836c0.48608,0 0.9153,0.12381 1.28673,0.37143c0.37143,0.24761 0.68979,0.59694 0.9551,1.04795l-0.10612,0.18571c-0.02653,-0.12381 -0.04832,-0.25646 -0.06633,-0.39796c-0.018,-0.14149 -0.02653,-0.24761 -0.02653,-0.31837c0,-0.36259 0.0578,-0.64116 0.17245,-0.83571c0.12412,-0.2034 0.31363,-0.3051 0.57041,-0.3051c0.28331,0 0.50408,0.11496 0.66326,0.3449c0.16771,0.22993 0.29657,0.55714 0.38469,0.98163c0.11465,0.43333 0.21224,0.98605 0.29184,1.65815c0.07959,0.66326 0.11939,1.33536 0.11939,2.01632c0,0.84898 -0.03127,1.56084 -0.09286,2.1357c-0.06159,0.57486 -0.16392,1.05241 -0.3051,1.43265c-0.14118,0.38024 -0.32689,0.71187 -0.55714,0.99489c-0.37995,0.45983 -0.87077,0.80918 -1.47244,1.04795c-0.5922,0.24759 -1.2782,0.37143 -2.05611,0.37143c-0.55714,0 -1.00342,-0.05306 -1.33979,-0.15918c-0.33637,-0.09731 -0.57893,-0.23432 -0.72959,-0.41122c-0.14118,-0.16799 -0.21224,-0.35816 -0.21224,-0.57041c0,-0.22106 0.06159,-0.40677 0.18571,-0.55714c0.12412,-0.14146 0.30984,-0.21224 0.55714,-0.21224c0.22077,0 0.47755,0.03534 0.76938,0.10612c0.30036,0.07078 0.65473,0.10612 1.06122,0.10612c0.8575,0 1.46391,-0.20343 1.81734,-0.6102c0.3629,-0.39796 0.54387,-0.97282 0.54387,-1.72448c0,-0.20343 -0.01327,-0.44221 -0.0398,-0.71632l0.18571,0.06633c-0.22077,0.56595 -0.54861,1.02142 -0.98163,1.36632c-0.43302,0.33608 -0.93709,0.50408 -1.51224,0.50408zM249.4837,182.10917c0.28331,0 0.56567,-0.07517 0.84898,-0.22551c0.28331,-0.15034 0.51734,-0.39796 0.70306,-0.74285c0.18571,-0.3449 0.27857,-0.80918 0.27857,-1.39285c0,-0.69863 -0.16392,-1.26904 -0.49081,-1.71122c-0.32689,-0.44218 -0.78739,-0.66326 -1.37958,-0.66326c-0.51261,0 -0.88877,0.19455 -1.12755,0.58367c-0.23877,0.38912 -0.35816,0.9772 -0.35816,1.76428c0,0.75169 0.11939,1.33979 0.35816,1.76428c0.23877,0.41565 0.6282,0.62347 1.16734,0.62347zM255.94292,173.7786c0.35342,0 0.60546,0.09728 0.75612,0.29184c0.15918,0.19455 0.23877,0.42006 0.23877,0.67653c0,0.31837 -0.09759,0.56598 -0.29184,0.74285c-0.18571,0.16802 -0.45102,0.25204 -0.79591,0.25204c-0.33637,0 -0.58841,-0.09286 -0.75612,-0.27857c-0.16771,-0.19455 -0.25204,-0.42006 -0.25204,-0.67653c0,-0.33606 0.10138,-0.5881 0.3051,-0.75612c0.20372,-0.16802 0.46902,-0.25204 0.79591,-0.25204zM256.02251,176.73675c0.28331,0 0.50408,0.2653 0.66326,0.79591c0.16771,0.53061 0.25204,1.37516 0.25204,2.53366c0,1.42381 -0.10138,2.44962 -0.3051,3.07753c-0.20372,0.62792 -0.51261,0.94183 -0.92857,0.94183c-0.31837,0 -0.5524,-0.22996 -0.70306,-0.68979c-0.15066,-0.46874 -0.22551,-1.28227 -0.22551,-2.4408c0,-1.42381 0.11465,-2.4806 0.3449,-3.17039c0.23877,-0.69863 0.53914,-1.04795 0.90204,-1.04795zM264.22516,184.07243c-0.31837,0 -0.57988,-0.11493 -0.78265,-0.3449c-0.19519,-0.23877 -0.29184,-0.66326 -0.29184,-1.27346c0,-0.43333 0.03032,-0.87993 0.09286,-1.33979c0.06159,-0.45986 0.14118,-0.89761 0.23877,-1.31326c0.09665,-0.41565 0.20277,-0.76496 0.31837,-1.04795l0.07959,0.37143c-0.83192,-0.60136 -1.47718,-1.13639 -1.93672,-1.60509c-0.46049,-0.46871 -0.78265,-0.87993 -0.96836,-1.23367c-0.18571,-0.36259 -0.27857,-0.67653 -0.27857,-0.94183c0,-0.22108 0.04359,-0.4068 0.13265,-0.55714c0.09665,-0.15034 0.22077,-0.2653 0.37143,-0.3449c0.14971,-0.08843 0.31837,-0.13265 0.50408,-0.13265c0.42449,0 0.85277,0.32279 1.28673,0.96836c0.44154,0.64557 0.90204,1.60509 1.37958,2.87856h0.05306c0.39796,-0.91088 0.7997,-1.65815 1.20714,-2.24182c0.41501,-0.59251 0.81297,-1.03026 1.19387,-1.31326c0.37995,-0.29184 0.71159,-0.43775 0.99489,-0.43775c0.25583,0 0.45481,0.08843 0.59694,0.2653c0.14118,0.16802 0.21224,0.38912 0.21224,0.66326c0,0.39796 -0.15539,0.83571 -0.46428,1.31326c-0.30984,0.46871 -0.75233,0.94183 -1.32652,1.41938c-0.57514,0.47755 -1.26493,0.9153 -2.06938,1.31326l0.11939,-0.25204c0.11465,0.35374 0.21603,0.73843 0.3051,1.15408c0.09665,0.4068 0.17245,0.8136 0.22551,1.2204c0.05306,0.39796 0.07959,0.75612 0.07959,1.07448c0,0.56595 -0.11939,0.99935 -0.35816,1.29999c-0.23025,0.29184 -0.53535,0.43775 -0.9153,0.43775zM275.26279,184.08569c-0.30131,0 -0.50882,-0.11493 -0.62347,-0.3449c-0.10612,-0.23877 -0.16866,-0.61465 -0.18571,-1.12755l0.13265,0.06633c-0.49555,0.96391 -1.43265,1.44591 -2.81223,1.44591c-0.6282,0 -1.15029,-0.11058 -1.5653,-0.33163c-0.41596,-0.22996 -0.7258,-0.53061 -0.92857,-0.90204c-0.19519,-0.38024 -0.29184,-0.79146 -0.29184,-1.23367c0,-0.76054 0.2653,-1.36189 0.79591,-1.80407c0.53061,-0.45102 1.23367,-0.67653 2.10917,-0.67653c0.5742,0 1.07448,0.08402 1.49897,0.25204c0.42449,0.16802 0.78644,0.40238 1.08775,0.70306l-0.22551,-0.02653c-0.06254,-0.8932 -0.25678,-1.52993 -0.58367,-1.91019c-0.31837,-0.38912 -0.77412,-0.58367 -1.36632,-0.58367c-0.3449,0 -0.66326,0.05306 -0.9551,0.15918c-0.29184,0.10612 -0.56188,0.21667 -0.80918,0.33163c-0.23877,0.10612 -0.46428,0.15918 -0.67653,0.15918c-0.21224,0 -0.3809,-0.07075 -0.50408,-0.21224c-0.1156,-0.14149 -0.17245,-0.32279 -0.17245,-0.54387c0,-0.31837 0.14971,-0.61904 0.45102,-0.90204c0.30889,-0.28299 0.71632,-0.51292 1.2204,-0.68979c0.50408,-0.17687 1.05174,-0.2653 1.64489,-0.2653c0.71632,0 1.33031,0.17245 1.84387,0.51734c0.51261,0.3449 0.90204,0.84898 1.16734,1.51224c0.2293,0.56598 0.39322,1.1983 0.49081,1.89693c0.09665,0.69863 0.14592,1.44591 0.14592,2.24182c0,0.60139 -0.03127,1.06567 -0.09286,1.39285c-0.06254,0.32718 -0.15918,0.55714 -0.29184,0.68979c-0.12412,0.12384 -0.29184,0.18571 -0.50408,0.18571zM272.33117,182.59999c0.29184,0 0.58746,-0.0398 0.88877,-0.11939c0.30036,-0.0884 0.5524,-0.2167 0.75612,-0.38469c0.20277,-0.16802 0.3051,-0.37585 0.3051,-0.62347c0,-0.21224 -0.08907,-0.38469 -0.2653,-0.51734c-0.16866,-0.14149 -0.39417,-0.24761 -0.67653,-0.31837c-0.27478,-0.07075 -0.57041,-0.10612 -0.88877,-0.10612c-0.54008,0 -0.95131,0.09286 -1.23367,0.27857c-0.27478,0.18571 -0.41122,0.43333 -0.41122,0.74285c0,0.33606 0.12791,0.59694 0.38469,0.78265c0.2653,0.1769 0.64526,0.2653 1.14081,0.2653zM279.12202,175.70206c0.28331,0 0.47376,0.11496 0.57041,0.3449c0.10612,0.22993 0.15918,0.57041 0.15918,1.02142c0,0.10612 -0.00853,0.22108 -0.02653,0.3449c-0.00853,0.11496 -0.02653,0.22108 -0.05306,0.31837l-0.02653,-0.2653c0.21224,-0.57483 0.54008,-1.02142 0.98163,-1.33979c0.44249,-0.32721 0.91151,-0.49081 1.40611,-0.49081c0.54861,0 1.00437,0.15476 1.36632,0.46428c0.37143,0.30953 0.64621,0.74285 0.82244,1.29999c0.18571,0.55714 0.27857,1.21598 0.27857,1.97652c0,0.46871 -0.02179,0.93299 -0.06633,1.39285c-0.03506,0.45102 -0.08812,0.86667 -0.15918,1.24693c-0.06159,0.37143 -0.13265,0.67653 -0.21224,0.9153c-0.10612,0.30065 -0.24256,0.52616 -0.41122,0.67653c-0.16771,0.14146 -0.36669,0.21224 -0.59694,0.21224c-0.2293,0 -0.40648,-0.08404 -0.53061,-0.25204c-0.12318,-0.16799 -0.18571,-0.3935 -0.18571,-0.67653c0,-0.30065 0.02274,-0.66326 0.06633,-1.08775c0.04453,-0.43333 0.08433,-0.87108 0.11939,-1.31326c0.04453,-0.45102 0.06633,-0.85782 0.06633,-1.2204c0,-1.23809 -0.40648,-1.85713 -1.2204,-1.85713c-0.43302,0 -0.79591,0.19455 -1.08775,0.58367c-0.29184,0.38027 -0.48608,0.92414 -0.58367,1.63162c-0.02653,0.23877 -0.0398,0.53503 -0.0398,0.88877c0,0.35374 0,0.70748 0,1.06122c0.00948,0.3449 0,0.63673 -0.02653,0.87551c-0.03506,0.53061 -0.13644,0.91085 -0.3051,1.14081c-0.15918,0.22996 -0.37995,0.3449 -0.66326,0.3449c-0.32689,0 -0.5742,-0.15037 -0.74285,-0.45102c-0.16771,-0.30955 -0.25204,-0.8269 -0.25204,-1.55203c0,-0.37143 0.00948,-0.78707 0.02653,-1.24693c0.018,-0.45986 0.0398,-0.91973 0.06633,-1.37958c0.03601,-0.46871 0.0758,-0.8932 0.11939,-1.27346c0.08907,-0.71632 0.21698,-1.2823 0.38469,-1.69795c0.16866,-0.42449 0.4207,-0.63673 0.75612,-0.63673zM288.74974,183.7408c-0.83192,0 -1.50845,-0.31837 -2.02958,-0.9551c-0.52208,-0.64554 -0.78265,-1.62278 -0.78265,-2.93162c0,-1.39727 0.25204,-2.4187 0.75612,-3.06427c0.50408,-0.64557 1.16734,-0.96836 1.98979,-0.96836c0.48608,0 0.9153,0.12381 1.28673,0.37143c0.37143,0.24761 0.68979,0.59694 0.9551,1.04795l-0.10612,0.18571c-0.02653,-0.12381 -0.04927,-0.25646 -0.06633,-0.39796c-0.018,-0.14149 -0.02653,-0.24761 -0.02653,-0.31837c0,-0.36259 0.05685,-0.64116 0.17245,-0.83571c0.12318,-0.2034 0.31363,-0.3051 0.57041,-0.3051c0.28236,0 0.50408,0.11496 0.66326,0.3449c0.16771,0.22993 0.29563,0.55714 0.38469,0.98163c0.11465,0.43333 0.21224,0.98605 0.29184,1.65815c0.07959,0.66326 0.11939,1.33536 0.11939,2.01632c0,0.84898 -0.03127,1.56084 -0.09286,2.1357c-0.06254,0.57486 -0.16392,1.05241 -0.3051,1.43265c-0.14213,0.38024 -0.32784,0.71187 -0.55714,0.99489c-0.3809,0.45983 -0.87172,0.80918 -1.47244,1.04795c-0.59315,0.24759 -1.2782,0.37143 -2.05611,0.37143c-0.55714,0 -1.00437,-0.05306 -1.33979,-0.15918c-0.33637,-0.09731 -0.57988,-0.23432 -0.72959,-0.41122c-0.14213,-0.16799 -0.21224,-0.35816 -0.21224,-0.57041c0,-0.22106 0.06159,-0.40677 0.18571,-0.55714c0.12318,-0.14146 0.30889,-0.21224 0.55714,-0.21224c0.22077,0 0.47755,0.03534 0.76938,0.10612c0.30036,0.07078 0.65379,0.10612 1.06122,0.10612c0.8575,0 1.46297,-0.20343 1.81734,-0.6102c0.36195,-0.39796 0.54387,-0.97282 0.54387,-1.72448c0,-0.20343 -0.01327,-0.44221 -0.0398,-0.71632l0.18571,0.06633c-0.22172,0.56595 -0.54861,1.02142 -0.98163,1.36632c-0.43396,0.33608 -0.93804,0.50408 -1.51224,0.50408zM289.25382,182.10917c0.28236,0 0.56567,-0.07517 0.84898,-0.22551c0.28236,-0.15034 0.51734,-0.39796 0.70306,-0.74285c0.18571,-0.3449 0.27857,-0.80918 0.27857,-1.39285c0,-0.69863 -0.16392,-1.26904 -0.49081,-1.71122c-0.32784,-0.44218 -0.78739,-0.66326 -1.37958,-0.66326c-0.51355,0 -0.88877,0.19455 -1.12755,0.58367c-0.23877,0.38912 -0.35816,0.9772 -0.35816,1.76428c0,0.75169 0.11939,1.33979 0.35816,1.76428c0.23877,0.41565 0.62726,0.62347 1.16734,0.62347zM297.5986,184.0459c-0.25583,0 -0.45481,-0.09731 -0.59694,-0.29184c-0.14118,-0.19453 -0.21224,-0.54833 -0.21224,-1.06122c0,-0.36261 0.0398,-0.79591 0.11939,-1.29999c0.08907,-0.51292 0.20845,-1.05679 0.35816,-1.63162c0.15066,-0.58367 0.32784,-1.16292 0.53061,-1.73775c0.20372,-0.58367 0.42449,-1.12755 0.66326,-1.63162c0.2653,-0.57483 0.52208,-1.02142 0.76938,-1.33979c0.24825,-0.32721 0.50029,-0.55714 0.75612,-0.68979c0.25678,-0.14149 0.52682,-0.21224 0.80918,-0.21224c0.42449,0 0.81392,0.16802 1.16734,0.50408c0.3629,0.33606 0.7078,0.8932 1.03469,1.67142c0.23877,0.59251 0.45576,1.24251 0.65,1.94999c0.19519,0.70748 0.3449,1.42381 0.45102,2.14897c0.1156,0.72516 0.17245,1.41054 0.17245,2.05611c0,0.53942 -0.09286,0.93738 -0.27857,1.19387c-0.17624,0.24759 -0.42449,0.37143 -0.74285,0.37143c-0.30889,0 -0.54766,-0.13711 -0.71632,-0.41122c-0.16771,-0.27412 -0.2871,-0.72959 -0.35816,-1.36632c-0.03506,-0.38912 -0.05306,-0.79149 -0.05306,-1.20714c0,-0.42449 0.018,-0.82687 0.05306,-1.20714l0.22551,1.02142c-0.30889,0.10612 -0.69832,0.17687 -1.16734,0.21224c-0.45955,0.02653 -0.94183,0.01769 -1.44591,-0.02653c-0.4946,-0.05306 -0.95889,-0.14592 -1.39285,-0.27857l0.70306,-0.90204c0.00948,0.42449 -0.01327,0.84013 -0.06633,1.24693c-0.05306,0.39796 -0.11465,0.76496 -0.18571,1.10101c-0.07012,0.38915 -0.15445,0.72078 -0.25204,0.99489c-0.09665,0.27412 -0.22551,0.482 -0.38469,0.62347c-0.14971,0.13265 -0.35342,0.19898 -0.6102,0.19898zM300.71593,179.52245c0.51355,0 0.88498,-0.07517 1.11428,-0.22551c0.23877,-0.15918 0.35816,-0.38912 0.35816,-0.68979c0,-0.21224 -0.0398,-0.47312 -0.11939,-0.78265c-0.07012,-0.31837 -0.17245,-0.62789 -0.3051,-0.92857c-0.13265,-0.30068 -0.2871,-0.55271 -0.46428,-0.75612c-0.16771,-0.2034 -0.35342,-0.3051 -0.55714,-0.3051c-0.19424,0 -0.37995,0.10612 -0.55714,0.31837c-0.16771,0.2034 -0.31837,0.45986 -0.45102,0.76938c-0.13265,0.30953 -0.23877,0.62789 -0.31837,0.9551c-0.07959,0.31837 -0.11939,0.59251 -0.11939,0.82244c0,0.2653 0.1156,0.46871 0.3449,0.6102c0.23877,0.14149 0.59694,0.21224 1.07448,0.21224zM307.9597,184.13875c-0.86698,0 -1.5435,-0.32282 -2.02958,-0.96836c-0.48702,-0.65445 -0.72959,-1.64931 -0.72959,-2.98468c0,-1.32652 0.23877,-2.29489 0.71632,-2.90509c0.48608,-0.61904 1.18061,-0.92857 2.08264,-0.92857c0.51261,0 0.95889,0.10612 1.33979,0.31837c0.38848,0.21224 0.73338,0.51292 1.03469,0.90204l-0.10612,0.05306c-0.07959,-0.36259 -0.15918,-0.74728 -0.23877,-1.15408c-0.07959,-0.4068 -0.14592,-0.79149 -0.19898,-1.15408c-0.04453,-0.37143 -0.06633,-0.66326 -0.06633,-0.87551c0,-0.30068 0.04832,-0.53061 0.14592,-0.68979c0.09665,-0.16802 0.25204,-0.25204 0.46428,-0.25204c0.30036,0 0.54387,0.12823 0.72959,0.38469c0.18571,0.24761 0.34016,0.63231 0.46428,1.15408c0.11465,0.46871 0.21603,1.02585 0.3051,1.67142c0.08812,0.63673 0.15918,1.30442 0.21224,2.00305c0.06159,0.68979 0.09286,1.35305 0.09286,1.98979c0,0.88435 -0.04927,1.57411 -0.14592,2.06938c-0.08907,0.48636 -0.21698,0.8269 -0.38469,1.02142c-0.15918,0.19453 -0.34963,0.29184 -0.57041,0.29184c-0.27478,0 -0.46049,-0.13711 -0.55714,-0.41122c-0.09759,-0.27412 -0.13739,-0.72078 -0.11939,-1.33979h0.19898c-0.23877,0.54833 -0.58841,0.98608 -1.04795,1.31326c-0.45102,0.32718 -0.98163,0.49081 -1.59183,0.49081zM308.66276,182.49386c0.31837,0 0.6102,-0.07959 0.87551,-0.23877c0.27383,-0.16799 0.49081,-0.42449 0.65,-0.76938c0.16771,-0.3449 0.25204,-0.78265 0.25204,-1.31326c0,-0.68095 -0.15539,-1.23367 -0.46428,-1.65815c-0.30984,-0.43333 -0.75612,-0.65 -1.33979,-0.65c-0.46049,0 -0.83571,0.19014 -1.12755,0.57041c-0.28331,0.38027 -0.42449,0.9551 -0.42449,1.72448c0,0.68095 0.14118,1.24251 0.42449,1.68468c0.29184,0.4333 0.67653,0.65 1.15408,0.65zM319.59236,184.08569c-0.30036,0 -0.50882,-0.11493 -0.62347,-0.3449c-0.10612,-0.23877 -0.16771,-0.61465 -0.18571,-1.12755l0.13265,0.06633c-0.49555,0.96391 -1.43265,1.44591 -2.81223,1.44591c-0.6282,0 -1.14934,-0.11058 -1.5653,-0.33163c-0.41596,-0.22996 -0.72485,-0.53061 -0.92857,-0.90204c-0.19424,-0.38024 -0.29184,-0.79146 -0.29184,-1.23367c0,-0.76054 0.2653,-1.36189 0.79591,-1.80407c0.53061,-0.45102 1.23367,-0.67653 2.10917,-0.67653c0.57514,0 1.07448,0.08402 1.49897,0.25204c0.42449,0.16802 0.78739,0.40238 1.08775,0.70306l-0.22551,-0.02653c-0.06159,-0.8932 -0.25678,-1.52993 -0.58367,-1.91019c-0.31837,-0.38912 -0.77412,-0.58367 -1.36632,-0.58367c-0.3449,0 -0.66326,0.05306 -0.9551,0.15918c-0.29184,0.10612 -0.56188,0.21667 -0.80918,0.33163c-0.23877,0.10612 -0.46428,0.15918 -0.67653,0.15918c-0.21224,0 -0.37995,-0.07075 -0.50408,-0.21224c-0.11465,-0.14149 -0.17245,-0.32279 -0.17245,-0.54387c0,-0.31837 0.15066,-0.61904 0.45102,-0.90204c0.30984,-0.28299 0.71632,-0.51292 1.2204,-0.68979c0.50408,-0.17687 1.05269,-0.2653 1.64489,-0.2653c0.71632,0 1.33126,0.17245 1.84387,0.51734c0.51261,0.3449 0.90204,0.84898 1.16734,1.51224c0.23025,0.56598 0.39322,1.1983 0.49081,1.89693c0.09759,0.69863 0.14592,1.44591 0.14592,2.24182c0,0.60139 -0.03127,1.06567 -0.09286,1.39285c-0.06159,0.32718 -0.15918,0.55714 -0.29184,0.68979c-0.12412,0.12384 -0.29184,0.18571 -0.50408,0.18571zM316.66074,182.59999c0.29184,0 0.58841,-0.0398 0.88877,-0.11939c0.30036,-0.0884 0.5524,-0.2167 0.75612,-0.38469c0.20372,-0.16802 0.3051,-0.37585 0.3051,-0.62347c0,-0.21224 -0.08812,-0.38469 -0.2653,-0.51734c-0.16771,-0.14149 -0.39322,-0.24761 -0.67653,-0.31837c-0.27383,-0.07075 -0.57041,-0.10612 -0.88877,-0.10612c-0.53914,0 -0.95036,0.09286 -1.23367,0.27857c-0.27383,0.18571 -0.41122,0.43333 -0.41122,0.74285c0,0.33606 0.12791,0.59694 0.38469,0.78265c0.2653,0.1769 0.64526,0.2653 1.14081,0.2653zM326.61157,184.25814c-0.55714,0 -0.99016,-0.03534 -1.29999,-0.10612c-0.30036,-0.07078 -0.50787,-0.16799 -0.62347,-0.29184c-0.11465,-0.13265 -0.17624,-0.27857 -0.18571,-0.43775c0,-0.24759 0.14592,-0.45547 0.43775,-0.62347c0.30131,-0.16799 0.84898,-0.27412 1.64489,-0.31837l-0.21224,0.25204c-0.09665,-0.45102 -0.16771,-0.9772 -0.21224,-1.57856c-0.04359,-0.60136 -0.06159,-1.22483 -0.05306,-1.8704c0.00948,-0.64557 0.0398,-1.2602 0.09286,-1.84387c0.05306,-0.59251 0.12886,-1.09659 0.22551,-1.51224l1.15408,-0.07959c-0.19424,0.07959 -0.43775,0.15034 -0.72959,0.21224c-0.29184,0.05306 -0.5922,0.07959 -0.90204,0.07959c-0.56567,0 -0.98542,-0.0619 -1.2602,-0.18571c-0.2653,-0.12381 -0.39796,-0.29626 -0.39796,-0.51734c0,-0.38912 0.23498,-0.68979 0.70306,-0.90204c0.47755,-0.22108 1.20714,-0.33163 2.18876,-0.33163c1.16734,0 2.14897,0.19455 2.94488,0.58367c0.80539,0.38027 1.41559,0.9153 1.8306,1.60509c0.41596,0.68095 0.62347,1.47687 0.62347,2.38774c0,0.79591 -0.14118,1.52993 -0.42449,2.20203c-0.28236,0.66326 -0.68979,1.24248 -1.2204,1.73775c-0.52113,0.48636 -1.14934,0.86669 -1.88366,1.14081c-0.72485,0.2653 -1.53877,0.39796 -2.4408,0.39796zM328.49523,182.21529c0.30131,0 0.61968,-0.11939 0.9551,-0.35816c0.3449,-0.24761 0.63673,-0.60578 0.87551,-1.07448c0.23877,-0.47755 0.35816,-1.06564 0.35816,-1.76428c0,-0.51292 -0.07485,-0.95952 -0.22551,-1.33979c-0.14118,-0.38912 -0.32689,-0.7119 -0.55714,-0.96836c-0.2293,-0.25646 -0.47281,-0.44659 -0.72959,-0.57041c-0.25583,-0.13265 -0.49934,-0.19898 -0.72959,-0.19898c-0.18571,0 -0.33163,0.11496 -0.43775,0.3449c-0.09665,0.22993 -0.16771,0.57483 -0.21224,1.03469c-0.04359,0.45102 -0.06633,1.01258 -0.06633,1.68468c0,1.04353 0.05306,1.83944 0.15918,2.38774c0.10612,0.5483 0.30984,0.82244 0.6102,0.82244zM335.21028,173.7786c0.35342,0 0.60546,0.09728 0.75612,0.29184c0.15918,0.19455 0.23877,0.42006 0.23877,0.67653c0,0.31837 -0.09759,0.56598 -0.29184,0.74285c-0.18571,0.16802 -0.45102,0.25204 -0.79591,0.25204c-0.33637,0 -0.58841,-0.09286 -0.75612,-0.27857c-0.16771,-0.19455 -0.25204,-0.42006 -0.25204,-0.67653c0,-0.33606 0.10138,-0.5881 0.3051,-0.75612c0.20372,-0.16802 0.46902,-0.25204 0.79591,-0.25204zM335.28987,176.73675c0.28331,0 0.50408,0.2653 0.66326,0.79591c0.16771,0.53061 0.25204,1.37516 0.25204,2.53366c0,1.42381 -0.10138,2.44962 -0.3051,3.07753c-0.20372,0.62792 -0.51261,0.94183 -0.92857,0.94183c-0.31837,0 -0.5524,-0.22996 -0.70306,-0.68979c-0.15066,-0.46874 -0.22551,-1.28227 -0.22551,-2.4408c0,-1.42381 0.11465,-2.4806 0.3449,-3.17039c0.23877,-0.69863 0.53914,-1.04795 0.90204,-1.04795zM343.1609,183.99284c-0.29184,0 -0.61873,-0.01772 -0.98163,-0.05306c-0.35342,-0.03534 -0.69832,-0.10167 -1.03469,-0.19898c-0.32689,-0.10612 -0.60167,-0.24759 -0.82244,-0.42449c-0.21224,-0.18571 -0.31837,-0.42449 -0.31837,-0.71632c0,-0.30065 0.09286,-0.52616 0.27857,-0.67653c0.19424,-0.15034 0.50882,-0.22551 0.94183,-0.22551c0.30036,0 0.63673,0.0398 1.00816,0.11939c0.37995,0.07959 0.74285,0.11939 1.08775,0.11939c0.51261,0 0.88877,-0.07959 1.12755,-0.23877c0.2473,-0.15918 0.37143,-0.37585 0.37143,-0.65c0,-0.16802 -0.04832,-0.31837 -0.14592,-0.45102c-0.08812,-0.13265 -0.27004,-0.2653 -0.54387,-0.39796c-0.27383,-0.13265 -0.68505,-0.27857 -1.23367,-0.43775c-0.6282,-0.16802 -1.13607,-0.35374 -1.5255,-0.55714c-0.38943,-0.21224 -0.67179,-0.46428 -0.84898,-0.75612c-0.17719,-0.29184 -0.2653,-0.63673 -0.2653,-1.03469c0,-0.48639 0.08433,-0.90646 0.25204,-1.2602c0.17719,-0.36259 0.41122,-0.66769 0.70306,-0.9153c0.29184,-0.25646 0.61873,-0.45986 0.98163,-0.6102c0.3629,-0.15034 0.72959,-0.26088 1.10101,-0.33163c0.37995,-0.07075 0.74285,-0.10612 1.08775,-0.10612c0.76086,0 1.37958,0.11939 1.85713,0.35816c0.48608,0.23877 0.72959,0.55714 0.72959,0.9551c0,0.28299 -0.09286,0.51292 -0.27857,0.68979c-0.17719,0.17687 -0.45102,0.2653 -0.82244,0.2653c-0.15918,0 -0.34963,-0.02211 -0.57041,-0.06633c-0.22077,-0.04422 -0.46428,-0.08843 -0.72959,-0.13265c-0.2653,-0.04422 -0.55714,-0.06633 -0.87551,-0.06633c-0.53914,0 -0.9551,0.08402 -1.24693,0.25204c-0.29184,0.16802 -0.43775,0.43775 -0.43775,0.80918c0,0.15918 0.0398,0.3051 0.11939,0.43775c0.08812,0.13265 0.27004,0.26973 0.54387,0.41122c0.27383,0.14149 0.69453,0.3051 1.2602,0.49081c0.69832,0.21224 1.24693,0.44659 1.64489,0.70306c0.39796,0.24761 0.68126,0.53061 0.84898,0.84898c0.16771,0.31837 0.25204,0.67653 0.25204,1.07448c0,0.5483 -0.15066,1.03469 -0.45102,1.45918c-0.29184,0.41568 -0.70306,0.7384 -1.23367,0.96836c-0.52208,0.22996 -1.13228,0.3449 -1.8306,0.3449zM351.82594,184.05916c-0.98163,0 -1.76428,-0.14592 -2.34795,-0.43775c-0.58367,-0.29184 -1.00437,-0.71187 -1.2602,-1.2602c-0.25678,-0.5483 -0.38469,-1.20271 -0.38469,-1.96325c0,-0.96394 0.17624,-1.78197 0.53061,-2.45407c0.36195,-0.68095 0.8575,-1.20271 1.48571,-1.5653c0.63673,-0.36259 1.35684,-0.54387 2.16223,-0.54387c0.94562,0 1.64015,0.22108 2.08264,0.66326c0.44154,0.43333 0.66326,1.00373 0.66326,1.71122c0,0.56598 -0.15066,1.05679 -0.45102,1.47244c-0.29184,0.4068 -0.69927,0.72075 -1.2204,0.94183c-0.52208,0.22108 -1.12375,0.33163 -1.80407,0.33163c-0.3809,0 -0.74759,-0.04864 -1.10101,-0.14592c-0.35437,-0.09728 -0.67274,-0.22993 -0.9551,-0.39796l0.31837,-0.58367c-0.02653,0.21224 -0.0398,0.42449 -0.0398,0.63673c0,0.61904 0.19424,1.06564 0.58367,1.33979c0.38848,0.2653 0.94183,0.39796 1.65815,0.39796c0.55714,0 1.00342,-0.04861 1.33979,-0.14592c0.33542,-0.09728 0.61873,-0.19014 0.84898,-0.27857c0.2293,-0.09728 0.45481,-0.14592 0.67653,-0.14592c0.12318,0 0.23404,0.03537 0.33163,0.10612c0.10612,0.0619 0.1895,0.15476 0.25204,0.27857c0.07012,0.12384 0.10612,0.27412 0.10612,0.45102c0,0.2653 -0.13265,0.5218 -0.39796,0.76938c-0.2653,0.23877 -0.65947,0.43775 -1.18061,0.59694c-0.51355,0.15037 -1.14555,0.22551 -1.89693,0.22551zM351.05655,179.72143c0.62726,0 1.13134,-0.13265 1.51224,-0.39796c0.37995,-0.2653 0.57041,-0.59251 0.57041,-0.98163c0,-0.30953 -0.10612,-0.56156 -0.31837,-0.75612c-0.20372,-0.2034 -0.52682,-0.3051 -0.96836,-0.3051c-0.41596,0 -0.79212,0.07959 -1.12755,0.23877c-0.32784,0.15034 -0.58367,0.34932 -0.76938,0.59694c-0.18571,0.24761 -0.27857,0.51734 -0.27857,0.80918c0,0.25646 0.11939,0.45544 0.35816,0.59694c0.2473,0.13265 0.58746,0.19898 1.02142,0.19898zM357.36891,184.08569c-0.16771,0 -0.3051,-0.04861 -0.41122,-0.14592c-0.10612,-0.10612 -0.18098,-0.25649 -0.22551,-0.45102c-0.07106,-0.32718 -0.13265,-0.80037 -0.18571,-1.41938c-0.05306,-0.61904 -0.07959,-1.30442 -0.07959,-2.05611c0,-0.92857 0.03127,-1.82176 0.09286,-2.67958c0.07106,-0.85782 0.15918,-1.56087 0.2653,-2.10917c0.11465,-0.59251 0.25678,-1.02585 0.42449,-1.29999c0.16771,-0.28299 0.38943,-0.42449 0.66326,-0.42449c0.2473,0 0.43775,0.11496 0.57041,0.3449c0.13265,0.22108 0.19898,0.60578 0.19898,1.15408c0,0.5483 -0.02179,1.13639 -0.06633,1.76428c-0.03506,0.62789 -0.09759,1.29999 -0.18571,2.01632h0.05306c0.57514,-0.77822 1.10954,-1.40169 1.60509,-1.8704c0.50408,-0.46871 0.96362,-0.80918 1.37958,-1.02142c0.42449,-0.21224 0.80065,-0.31837 1.12755,-0.31837c0.25678,0 0.44628,0.07959 0.57041,0.23877c0.12412,0.15918 0.18571,0.35374 0.18571,0.58367c0,0.45102 -0.3629,0.9551 -1.08775,1.51224c-0.71632,0.55714 -1.75101,1.12755 -3.10407,1.71122l0.01327,-0.21224c0.84045,0.43333 1.56056,0.88877 2.16223,1.36632c0.6102,0.46871 1.07448,0.9153 1.39285,1.33979c0.32689,0.41568 0.49081,0.76493 0.49081,1.04795c0,0.22996 -0.07485,0.42003 -0.22551,0.57041c-0.14118,0.14146 -0.34963,0.21224 -0.62347,0.21224c-0.3449,0 -0.72959,-0.1282 -1.15408,-0.38469c-0.41596,-0.2653 -0.84898,-0.65881 -1.29999,-1.18061c-0.45102,-0.52177 -0.90204,-1.17618 -1.35305,-1.96325h-0.05306c-0.00853,0.55714 -0.04453,1.10101 -0.10612,1.63162c-0.05306,0.5218 -0.12412,0.95064 -0.21224,1.28673c-0.06159,0.22996 -0.15918,0.41568 -0.29184,0.55714c-0.12412,0.13265 -0.30036,0.19898 -0.53061,0.19898zM365.58862,173.7786c0.35342,0 0.60546,0.09728 0.75612,0.29184c0.15918,0.19455 0.23877,0.42006 0.23877,0.67653c0,0.31837 -0.09759,0.56598 -0.29184,0.74285c-0.18571,0.16802 -0.45102,0.25204 -0.79591,0.25204c-0.33637,0 -0.58841,-0.09286 -0.75612,-0.27857c-0.16866,-0.19455 -0.25204,-0.42006 -0.25204,-0.67653c0,-0.33606 0.10138,-0.5881 0.3051,-0.75612c0.20277,-0.16802 0.46807,-0.25204 0.79591,-0.25204zM365.66821,176.73675c0.28236,0 0.50408,0.2653 0.66326,0.79591c0.16771,0.53061 0.25204,1.37516 0.25204,2.53366c0,1.42381 -0.10233,2.44962 -0.3051,3.07753c-0.20372,0.62792 -0.51355,0.94183 -0.92857,0.94183c-0.31837,0 -0.55335,-0.22996 -0.70306,-0.68979c-0.15066,-0.46874 -0.22551,-1.28227 -0.22551,-2.4408c0,-1.42381 0.11465,-2.4806 0.3449,-3.17039c0.23877,-0.69863 0.53914,-1.04795 0.90204,-1.04795zM370.44559,175.96737h-0.2653c-0.02653,-0.38912 -0.018,-0.75612 0.02653,-1.10101c0.04359,-0.35374 0.13644,-0.63673 0.27857,-0.84898c0.14971,-0.22108 0.36195,-0.33163 0.63673,-0.33163c0.2473,0 0.42828,0.07959 0.54387,0.23877c0.11465,0.15918 0.17245,0.38027 0.17245,0.66326c0,0.55714 -0.10612,1.03469 -0.31837,1.43265l-0.23877,-0.02653c0.47755,-0.16802 1.01669,-0.25204 1.61836,-0.25204c0.37995,0 0.68032,0.07517 0.90204,0.22551c0.2293,0.14149 0.3449,0.38469 0.3449,0.72959c0,0.32721 -0.13265,0.57483 -0.39796,0.74285c-0.2653,0.16802 -0.59694,0.25204 -0.99489,0.25204c-0.23877,0 -0.49555,-0.00884 -0.76938,-0.02653c-0.2653,-0.02653 -0.52682,-0.06633 -0.78265,-0.11939l0.22551,-0.27857c0.07959,0.33606 0.15445,0.72075 0.22551,1.15408c0.07959,0.42449 0.14971,0.86667 0.21224,1.32652c0.06159,0.45986 0.10991,0.90646 0.14592,1.33979c0.03506,0.43333 0.05306,0.82244 0.05306,1.16734c0,0.56595 -0.08907,1.01261 -0.2653,1.33979c-0.17719,0.32718 -0.43775,0.49081 -0.78265,0.49081c-0.27478,0 -0.49081,-0.08404 -0.65,-0.25204c-0.15066,-0.16799 -0.26151,-0.38024 -0.33163,-0.63673c-0.06254,-0.2653 -0.10233,-0.53942 -0.11939,-0.82244c-0.00948,-0.28302 -0.01327,-0.53945 -0.01327,-0.76938c0,-0.38912 0.01706,-0.82687 0.05306,-1.31326c0.03506,-0.49524 0.08338,-1.00373 0.14592,-1.5255c0.07012,-0.52177 0.14971,-1.02585 0.23877,-1.51224l0.2653,0.22551c-0.45102,0.22993 -1.00816,0.3449 -1.67142,0.3449c-0.40743,0 -0.72106,-0.07517 -0.94183,-0.22551c-0.22172,-0.15034 -0.33163,-0.38469 -0.33163,-0.70306c0,-0.3449 0.12318,-0.6102 0.37143,-0.79591c0.2473,-0.19455 0.57893,-0.29184 0.99489,-0.29184c0.27383,0 0.53061,0.01769 0.76938,0.05306c0.2473,0.02653 0.46428,0.0619 0.65,0.10612zM381.02177,184.08569c-0.30036,0 -0.50882,-0.11493 -0.62347,-0.3449c-0.10612,-0.23877 -0.16771,-0.61465 -0.18571,-1.12755l0.13265,0.06633c-0.49555,0.96391 -1.43265,1.44591 -2.81223,1.44591c-0.6282,0 -1.14934,-0.11058 -1.5653,-0.33163c-0.41596,-0.22996 -0.72485,-0.53061 -0.92857,-0.90204c-0.19424,-0.38024 -0.29184,-0.79146 -0.29184,-1.23367c0,-0.76054 0.2653,-1.36189 0.79591,-1.80407c0.53061,-0.45102 1.23367,-0.67653 2.10917,-0.67653c0.57514,0 1.07448,0.08402 1.49897,0.25204c0.42449,0.16802 0.78739,0.40238 1.08775,0.70306l-0.22551,-0.02653c-0.06159,-0.8932 -0.25678,-1.52993 -0.58367,-1.91019c-0.31837,-0.38912 -0.77412,-0.58367 -1.36632,-0.58367c-0.3449,0 -0.66326,0.05306 -0.9551,0.15918c-0.29184,0.10612 -0.56188,0.21667 -0.80918,0.33163c-0.23877,0.10612 -0.46428,0.15918 -0.67653,0.15918c-0.21224,0 -0.37995,-0.07075 -0.50408,-0.21224c-0.11465,-0.14149 -0.17245,-0.32279 -0.17245,-0.54387c0,-0.31837 0.15066,-0.61904 0.45102,-0.90204c0.30984,-0.28299 0.71632,-0.51292 1.2204,-0.68979c0.50408,-0.17687 1.05269,-0.2653 1.64489,-0.2653c0.71632,0 1.33126,0.17245 1.84387,0.51734c0.51261,0.3449 0.90204,0.84898 1.16734,1.51224c0.23025,0.56598 0.39322,1.1983 0.49081,1.89693c0.09759,0.69863 0.14592,1.44591 0.14592,2.24182c0,0.60139 -0.03127,1.06567 -0.09286,1.39285c-0.06159,0.32718 -0.15918,0.55714 -0.29184,0.68979c-0.12412,0.12384 -0.29184,0.18571 -0.50408,0.18571zM378.09016,182.59999c0.29184,0 0.58841,-0.0398 0.88877,-0.11939c0.30036,-0.0884 0.5524,-0.2167 0.75612,-0.38469c0.20372,-0.16802 0.3051,-0.37585 0.3051,-0.62347c0,-0.21224 -0.08812,-0.38469 -0.2653,-0.51734c-0.16771,-0.14149 -0.39322,-0.24761 -0.67653,-0.31837c-0.27383,-0.07075 -0.57041,-0.10612 -0.88877,-0.10612c-0.53914,0 -0.95036,0.09286 -1.23367,0.27857c-0.27383,0.18571 -0.41122,0.43333 -0.41122,0.74285c0,0.33606 0.12791,0.59694 0.38469,0.78265c0.2653,0.1769 0.64526,0.2653 1.14081,0.2653zM383.5289,177.97042c0,-0.84898 0.07959,-1.45918 0.23877,-1.8306c0.15918,-0.38027 0.38469,-0.57041 0.67653,-0.57041c0.2293,0 0.41122,0.09728 0.54387,0.29184c0.13265,0.18571 0.2293,0.42006 0.29184,0.70306c0.06159,0.27415 0.09286,0.55271 0.09286,0.83571l-0.06633,-0.02653c0.14971,-0.47755 0.37995,-0.88877 0.68979,-1.23367c0.31837,-0.3449 0.69832,-0.51734 1.14081,-0.51734c0.52113,0 0.90583,0.21667 1.15408,0.65c0.2473,0.42449 0.37143,0.9551 0.37143,1.59183c0,0.84898 -0.09759,1.44149 -0.29184,1.77754c-0.19519,0.33606 -0.45576,0.50408 -0.78265,0.50408c-0.23877,0 -0.41596,-0.09728 -0.53061,-0.29184c-0.10612,-0.19455 -0.14213,-0.53945 -0.10612,-1.03469c0.03506,-0.52177 0.00379,-0.88435 -0.09286,-1.08775c-0.09759,-0.2034 -0.25204,-0.3051 -0.46428,-0.3051c-0.25678,0 -0.46902,0.16361 -0.63673,0.49081c-0.15918,0.31837 -0.23877,0.7119 -0.23877,1.18061c0,0.18571 0.02179,0.42006 0.06633,0.70306c0.04359,0.28299 0.09286,0.59251 0.14592,0.92857c0.05306,0.32721 0.10138,0.65442 0.14592,0.98163c0.04359,0.32721 0.06633,0.62792 0.06633,0.90204c0,0.48636 -0.0758,0.83571 -0.22551,1.04795c-0.15066,0.21224 -0.3629,0.31837 -0.63673,0.31837c-0.30984,0 -0.54861,-0.09731 -0.71632,-0.29184c-0.16866,-0.20343 -0.29657,-0.53061 -0.38469,-0.98163c-0.07106,-0.40677 -0.14213,-0.88877 -0.21224,-1.44591c-0.07106,-0.55714 -0.12886,-1.12755 -0.17245,-1.71122c-0.04453,-0.58367 -0.06633,-1.10985 -0.06633,-1.57856zM393.43519,184.08569c-0.15918,0 -0.28805,-0.05306 -0.38469,-0.15918c-0.09759,-0.11493 -0.17719,-0.29629 -0.23877,-0.54387c-0.06254,-0.28302 -0.11939,-0.72513 -0.17245,-1.32652c-0.05306,-0.6102 -0.07959,-1.29115 -0.07959,-2.04285c0,-0.8136 0.02179,-1.60509 0.06633,-2.37448c0.05306,-0.77822 0.12791,-1.4636 0.22551,-2.05611c0.07012,-0.38912 0.17245,-0.67653 0.3051,-0.86224c0.14118,-0.19455 0.33542,-0.29184 0.58367,-0.29184c0.15918,0 0.30036,0.05306 0.42449,0.15918c0.12318,0.10612 0.21603,0.29626 0.27857,0.57041c0.07012,0.27415 0.10612,0.66326 0.10612,1.16734c0,0.24761 -0.00948,0.53061 -0.02653,0.84898c-0.018,0.30953 -0.04453,0.65442 -0.07959,1.03469h0.05306c0.70685,-0.97279 1.33031,-1.74659 1.8704,-2.32142c0.53914,-0.58367 1.01195,-1.00373 1.41938,-1.2602c0.41501,-0.25646 0.77791,-0.38469 1.08775,-0.38469c0.2473,0 0.43302,0.07959 0.55714,0.23877c0.13265,0.15918 0.19898,0.35374 0.19898,0.58367c0,0.48639 -0.36764,1.07006 -1.10101,1.75101c-0.7258,0.68095 -1.89693,1.49897 -3.51529,2.45407l0.10612,-0.25204c1.39664,0.88435 2.45407,1.66699 3.17039,2.34795c0.71632,0.6721 1.07448,1.26901 1.07448,1.79081c0,0.22996 -0.0758,0.42003 -0.22551,0.57041c-0.14213,0.14146 -0.35437,0.21224 -0.63673,0.21224c-0.35437,0 -0.72959,-0.11939 -1.12755,-0.35816c-0.39796,-0.24759 -0.84045,-0.65881 -1.32652,-1.23367c-0.47755,-0.58367 -1.02142,-1.37516 -1.63162,-2.37448h-0.05306c0.01706,0.2034 0.03032,0.41565 0.0398,0.63673c0.00853,0.21224 0.01327,0.42449 0.01327,0.63673c0,1.01697 -0.07106,1.74656 -0.21224,2.18876c-0.14213,0.4333 -0.39796,0.65 -0.76938,0.65zM401.92494,173.7786c0.35437,0 0.60641,0.09728 0.75612,0.29184c0.15918,0.19455 0.23877,0.42006 0.23877,0.67653c0,0.31837 -0.09665,0.56598 -0.29184,0.74285c-0.18571,0.16802 -0.45102,0.25204 -0.79591,0.25204c-0.33542,0 -0.58746,-0.09286 -0.75612,-0.27857c-0.16771,-0.19455 -0.25204,-0.42006 -0.25204,-0.67653c0,-0.33606 0.10233,-0.5881 0.3051,-0.75612c0.20372,-0.16802 0.46902,-0.25204 0.79591,-0.25204zM402.00453,176.73675c0.28331,0 0.50408,0.2653 0.66326,0.79591c0.16866,0.53061 0.25204,1.37516 0.25204,2.53366c0,1.42381 -0.10138,2.44962 -0.3051,3.07753c-0.20277,0.62792 -0.51261,0.94183 -0.92857,0.94183c-0.31837,0 -0.5524,-0.22996 -0.70306,-0.68979c-0.14971,-0.46874 -0.22551,-1.28227 -0.22551,-2.4408c0,-1.42381 0.1156,-2.4806 0.3449,-3.17039c0.23877,-0.69863 0.54008,-1.04795 0.90204,-1.04795zM406.78191,175.96737h-0.2653c-0.02653,-0.38912 -0.01706,-0.75612 0.02653,-1.10101c0.04453,-0.35374 0.13739,-0.63673 0.27857,-0.84898c0.15066,-0.22108 0.3629,-0.33163 0.63673,-0.33163c0.24825,0 0.42923,0.07959 0.54387,0.23877c0.1156,0.15918 0.17245,0.38027 0.17245,0.66326c0,0.55714 -0.10612,1.03469 -0.31837,1.43265l-0.23877,-0.02653c0.47755,-0.16802 1.01763,-0.25204 1.61836,-0.25204c0.3809,0 0.68126,0.07517 0.90204,0.22551c0.23025,0.14149 0.3449,0.38469 0.3449,0.72959c0,0.32721 -0.13265,0.57483 -0.39796,0.74285c-0.2653,0.16802 -0.59694,0.25204 -0.99489,0.25204c-0.23877,0 -0.4946,-0.00884 -0.76938,-0.02653c-0.2653,-0.02653 -0.52587,-0.06633 -0.78265,-0.11939l0.22551,-0.27857c0.07959,0.33606 0.15539,0.72075 0.22551,1.15408c0.07959,0.42449 0.15066,0.86667 0.21224,1.32652c0.06254,0.45986 0.11086,0.90646 0.14592,1.33979c0.03601,0.43333 0.05306,0.82244 0.05306,1.16734c0,0.56595 -0.08812,1.01261 -0.2653,1.33979c-0.17624,0.32718 -0.43775,0.49081 -0.78265,0.49081c-0.27383,0 -0.49081,-0.08404 -0.65,-0.25204c-0.14971,-0.16799 -0.26057,-0.38024 -0.33163,-0.63673c-0.06159,-0.2653 -0.10138,-0.53942 -0.11939,-0.82244c-0.00853,-0.28302 -0.01327,-0.53945 -0.01327,-0.76938c0,-0.38912 0.018,-0.82687 0.05306,-1.31326c0.03601,-0.49524 0.08433,-1.00373 0.14592,-1.5255c0.07106,-0.52177 0.15066,-1.02585 0.23877,-1.51224l0.2653,0.22551c-0.45102,0.22993 -1.00816,0.3449 -1.67142,0.3449c-0.40648,0 -0.72011,-0.07517 -0.94183,-0.22551c-0.22077,-0.15034 -0.33163,-0.38469 -0.33163,-0.70306c0,-0.3449 0.12412,-0.6102 0.37143,-0.79591c0.24825,-0.19455 0.57988,-0.29184 0.99489,-0.29184c0.27478,0 0.53061,0.01769 0.76938,0.05306c0.24825,0.02653 0.46428,0.0619 0.65,0.10612zM417.35904,184.08569c-0.30131,0 -0.50882,-0.11493 -0.62347,-0.3449c-0.10612,-0.23877 -0.16866,-0.61465 -0.18571,-1.12755l0.13265,0.06633c-0.49555,0.96391 -1.43265,1.44591 -2.81223,1.44591c-0.6282,0 -1.15029,-0.11058 -1.5653,-0.33163c-0.41596,-0.22996 -0.7258,-0.53061 -0.92857,-0.90204c-0.19519,-0.38024 -0.29184,-0.79146 -0.29184,-1.23367c0,-0.76054 0.2653,-1.36189 0.79591,-1.80407c0.53061,-0.45102 1.23367,-0.67653 2.10917,-0.67653c0.5742,0 1.07448,0.08402 1.49897,0.25204c0.42449,0.16802 0.78644,0.40238 1.08775,0.70306l-0.22551,-0.02653c-0.06254,-0.8932 -0.25678,-1.52993 -0.58367,-1.91019c-0.31837,-0.38912 -0.77412,-0.58367 -1.36632,-0.58367c-0.3449,0 -0.66326,0.05306 -0.9551,0.15918c-0.29184,0.10612 -0.56188,0.21667 -0.80918,0.33163c-0.23877,0.10612 -0.46428,0.15918 -0.67653,0.15918c-0.21224,0 -0.3809,-0.07075 -0.50408,-0.21224c-0.1156,-0.14149 -0.17245,-0.32279 -0.17245,-0.54387c0,-0.31837 0.14971,-0.61904 0.45102,-0.90204c0.30889,-0.28299 0.71632,-0.51292 1.2204,-0.68979c0.50408,-0.17687 1.05174,-0.2653 1.64489,-0.2653c0.71632,0 1.33031,0.17245 1.84387,0.51734c0.51261,0.3449 0.90204,0.84898 1.16734,1.51224c0.2293,0.56598 0.39322,1.1983 0.49081,1.89693c0.09665,0.69863 0.14592,1.44591 0.14592,2.24182c0,0.60139 -0.03127,1.06567 -0.09286,1.39285c-0.06254,0.32718 -0.15918,0.55714 -0.29184,0.68979c-0.12412,0.12384 -0.29184,0.18571 -0.50408,0.18571zM414.42743,182.59999c0.29184,0 0.58746,-0.0398 0.88877,-0.11939c0.30036,-0.0884 0.5524,-0.2167 0.75612,-0.38469c0.20277,-0.16802 0.3051,-0.37585 0.3051,-0.62347c0,-0.21224 -0.08907,-0.38469 -0.2653,-0.51734c-0.16866,-0.14149 -0.39417,-0.24761 -0.67653,-0.31837c-0.27478,-0.07075 -0.57041,-0.10612 -0.88877,-0.10612c-0.54008,0 -0.95131,0.09286 -1.23367,0.27857c-0.27478,0.18571 -0.41122,0.43333 -0.41122,0.74285c0,0.33606 0.12791,0.59694 0.38469,0.78265c0.2653,0.1769 0.64526,0.2653 1.14081,0.2653z"/></g></g></svg>