<svg version="1.1" xmlns="http://www.w3.org/2000/svg" xmlns:xlink="http://www.w3.org/1999/xlink" width="17.61" height="6.76898" viewBox="0,0,17.61,6.76898"><g transform="translate(-231.195,-176.61551)"><g data-paper-data="{&quot;isPaintingLayer&quot;:true}" fill="#000000" fill-rule="nonzero" stroke="none" stroke-width="1" stroke-linecap="butt" stroke-linejoin="miter" stroke-miterlimit="10" stroke-dasharray="" stroke-dashoffset="0" style="mix-blend-mode: normal"><path d="M233.25735,183.36737c-0.73024,0 -1.25795,-0.20538 -1.58313,-0.61614c-0.31948,-0.41076 -0.47922,-1.08966 -0.47922,-2.03668c0,-0.31948 0.00856,-0.64467 0.02567,-0.97556c0.02282,-0.3366 0.05134,-0.65893 0.08557,-0.967c0.03993,-0.31377 0.08557,-0.58477 0.13692,-0.81296c0.05134,-0.23961 0.13121,-0.42787 0.23961,-0.5648c0.1141,-0.14262 0.2824,-0.21394 0.50489,-0.21394c0.17115,0 0.30237,0.05134 0.39364,0.15403c0.09699,0.10269 0.14547,0.25958 0.14547,0.47066c0,0.13121 -0.01997,0.30522 -0.0599,0.522c-0.03993,0.2168 -0.08557,0.45354 -0.13692,0.71027c-0.04564,0.25673 -0.08843,0.5163 -0.12836,0.77873c-0.03993,0.25673 -0.0599,0.49633 -0.0599,0.71883c0,0.5705 0.08843,0.96985 0.26528,1.19805c0.18256,0.2225 0.44499,0.33374 0.78729,0.33374c0.33089,0 0.57621,-0.12266 0.73594,-0.36797c0.16544,-0.24531 0.24817,-0.63326 0.24817,-1.16382c0,-0.16544 -0.01141,-0.37653 -0.03423,-0.63326c-0.02282,-0.25673 -0.04849,-0.52486 -0.07702,-0.8044c-0.02853,-0.27954 -0.0542,-0.53627 -0.07702,-0.77017c-0.02282,-0.23961 -0.03423,-0.41932 -0.03423,-0.53912c0,-0.49633 0.174,-0.7445 0.522,-0.7445c0.19967,0 0.35371,0.06276 0.4621,0.18827c0.10839,0.1198 0.18256,0.30237 0.2225,0.54768c0.03993,0.2168 0.07416,0.47922 0.10269,0.78729c0.02853,0.30237 0.04849,0.619 0.0599,0.94988c0.01711,0.33089 0.02567,0.64181 0.02567,0.93277c0,0.6903 -0.07987,1.24939 -0.23961,1.67727c-0.15403,0.42787 -0.39935,0.74163 -0.73594,0.94133c-0.3366,0.1997 -0.77587,0.29951 -1.31786,0.29951zM237.28474,183.38448c-0.12555,0 -0.22824,-0.04279 -0.30807,-0.12836c-0.07421,-0.08557 -0.13411,-0.20825 -0.1797,-0.36797c-0.04566,-0.23391 -0.08561,-0.53912 -0.11983,-0.91565c-0.02853,-0.38223 -0.04279,-0.79014 -0.04279,-1.22372c0,-0.24531 0.0057,-0.522 0.01711,-0.83007c0.01141,-0.30807 0.02567,-0.619 0.04279,-0.93277c0.02282,-0.31948 0.04564,-0.61614 0.06849,-0.88997c0.02849,-0.27384 0.05703,-0.49633 0.08557,-0.66748c0.0456,-0.25102 0.11124,-0.44784 0.19683,-0.59047c0.09126,-0.14833 0.23386,-0.2225 0.42787,-0.2225c0.19963,0 0.34511,0.07702 0.43643,0.23105c0.09126,0.14833 0.13692,0.33374 0.13692,0.55624c0,0.25102 -0.01999,0.54768 -0.0599,0.88997c-0.03423,0.3423 -0.08844,0.6903 -0.16259,1.04401l-0.17115,0.20538c0.06272,-0.23961 0.1654,-0.45925 0.30807,-0.65893c0.1426,-0.19967 0.32231,-0.35656 0.53912,-0.47066c0.21675,-0.1198 0.46779,-0.1797 0.75306,-0.1797c0.55905,0 1.00403,0.19967 1.33497,0.59903c0.33656,0.39364 0.50489,1.00978 0.50489,1.84842c0,0.58761 -0.08844,1.07824 -0.26534,1.47189c-0.17109,0.39364 -0.40789,0.69029 -0.71021,0.88997c-0.2967,0.19395 -0.63613,0.29096 -1.01834,0.29096c-0.35941,0 -0.67036,-0.10556 -0.93277,-0.31663c-0.25673,-0.21106 -0.42219,-0.5163 -0.49633,-0.91565l0.1198,0.09413c-0.02286,0.41076 -0.07989,0.71314 -0.17115,0.9071c-0.08557,0.18827 -0.19683,0.2824 -0.33374,0.2824zM238.85076,182.34047c0.28521,0 0.53625,-0.12836 0.75306,-0.38509c0.21675,-0.25673 0.32519,-0.65893 0.32519,-1.2066c0,-0.4564 -0.08557,-0.82722 -0.25673,-1.11247c-0.16547,-0.28525 -0.44499,-0.42787 -0.83863,-0.42787c-0.3195,0 -0.57623,0.12836 -0.77017,0.38509c-0.19401,0.25102 -0.29096,0.63326 -0.29096,1.1467c0,0.4678 0.09694,0.85289 0.29096,1.15526c0.19395,0.29666 0.45636,0.44499 0.78729,0.44499zM242.71074,176.73532c0.22824,0 0.39083,0.06276 0.48777,0.18826c0.10269,0.12551 0.15403,0.27099 0.15403,0.43643c0,0.20538 -0.06272,0.36512 -0.18827,0.47922c-0.1198,0.10839 -0.29096,0.16259 -0.51345,0.16259c-0.21675,0 -0.37934,-0.0599 -0.48777,-0.1797c-0.10837,-0.1255 -0.16259,-0.27099 -0.16259,-0.43643c0,-0.21679 0.06565,-0.37938 0.19683,-0.48777c0.13124,-0.1084 0.30238,-0.16259 0.51345,-0.16259zM242.76208,178.64364c0.18258,0 0.32519,0.17115 0.42787,0.51345c0.10844,0.3423 0.16259,0.88713 0.16259,1.63448c0,0.9185 -0.06559,1.58028 -0.19683,1.98533c-0.13117,0.40507 -0.33087,0.60758 -0.59903,0.60758c-0.20538,0 -0.35654,-0.14835 -0.45354,-0.44499c-0.09694,-0.30237 -0.14547,-0.82722 -0.14547,-1.57457c0,-0.9185 0.07421,-1.60025 0.2225,-2.04524c0.15403,-0.45069 0.34804,-0.67604 0.58191,-0.67604zM245.27077,177.97615c0.18258,0 0.30526,0.07416 0.36797,0.2225c0.06846,0.14833 0.10269,0.36797 0.10269,0.65893c0,0.06846 -0.00569,0.14262 -0.01711,0.2225c-0.00569,0.07416 -0.01711,0.14262 -0.03423,0.20538l-0.01711,-0.17115c0.13692,-0.37083 0.34804,-0.65893 0.63326,-0.8643c0.28527,-0.21109 0.58765,-0.31663 0.9071,-0.31663c0.35373,0 0.64756,0.09983 0.88142,0.29951c0.23961,0.19967 0.41651,0.47922 0.53056,0.83863c0.1198,0.35941 0.1797,0.78443 0.1797,1.27507c0,0.30237 -0.01424,0.60188 -0.04279,0.89853c-0.0228,0.29096 -0.05703,0.55909 -0.10269,0.8044c-0.03992,0.23961 -0.08557,0.43643 -0.13692,0.59047c-0.06846,0.19395 -0.15685,0.33943 -0.26528,0.43643c-0.10837,0.09126 -0.23673,0.13692 -0.38509,0.13692c-0.14829,0 -0.26241,-0.05422 -0.3423,-0.16259c-0.07983,-0.10837 -0.1198,-0.25386 -0.1198,-0.43643c0,-0.19397 0.0143,-0.42787 0.04279,-0.70171c0.02854,-0.27954 0.05422,-0.56194 0.07702,-0.84719c0.02854,-0.29096 0.04279,-0.55339 0.04279,-0.78729c0,-0.7987 -0.26241,-1.19805 -0.78729,-1.19805c-0.27953,0 -0.51345,0.1255 -0.70171,0.37653c-0.18827,0.24531 -0.31376,0.59617 -0.37653,1.05257c-0.01711,0.15403 -0.02567,0.34515 -0.02567,0.57335c0,0.2282 0,0.4564 0,0.6846c0.00574,0.2225 0,0.41076 -0.01711,0.5648c-0.0228,0.3423 -0.08839,0.58759 -0.19683,0.73594c-0.10269,0.14835 -0.24529,0.2225 -0.42787,0.2225c-0.21106,0 -0.37079,-0.097 -0.47922,-0.29096c-0.10837,-0.1997 -0.16259,-0.53342 -0.16259,-1.00123c0,-0.23961 0.00574,-0.50774 0.01711,-0.8044c0.01143,-0.29666 0.02567,-0.59332 0.04279,-0.88997c0.02286,-0.30237 0.04854,-0.57621 0.07702,-0.82152c0.05709,-0.4621 0.1398,-0.82722 0.24817,-1.09536c0.10844,-0.27384 0.27103,-0.41076 0.48777,-0.41076z"/></g></g></svg>