<svg version="1.1" xmlns="http://www.w3.org/2000/svg" xmlns:xlink="http://www.w3.org/1999/xlink" width="44.45702" height="19.7794" viewBox="0,0,44.45702,19.7794"><g transform="translate(-217.77149,-170.1103)"><g data-paper-data="{&quot;isPaintingLayer&quot;:true}" fill-rule="nonzero" stroke-linecap="butt" stroke-linejoin="miter" stroke-miterlimit="10" stroke-dasharray="" stroke-dashoffset="0" style="mix-blend-mode: normal"><g><path d="" fill="#ececec" stroke="none" stroke-width="1"/><path d="" fill="none" stroke="#dcd6d6" stroke-width="1.5"/><path d="" fill="none" stroke="#dcd6d6" stroke-width="1.5"/><path d="" fill="none" stroke="#dcd6d6" stroke-width="1.5"/><path d="" fill="none" stroke="#dcd6d6" stroke-width="1.5"/><path d="" fill="none" stroke="#dcd6d6" stroke-width="1.5"/><path d="" fill="none" stroke="#dcd6d6" stroke-width="1.5"/><path d="" fill="none" stroke="#dcd6d6" stroke-width="1.5"/><path d="" fill="none" stroke="#dcd6d6" stroke-width="1.5"/><path d="" fill="none" stroke="#dcd6d6" stroke-width="1.5"/><path d="" fill="none" stroke="#dcd6d6" stroke-width="1.5"/><path d="" fill="none" stroke="#dcd6d6" stroke-width="1.5"/><path d="" fill="none" stroke="#dcd6d6" stroke-width="1.5"/><path d="" fill="none" stroke="#dcd6d6" stroke-width="1.5"/><path d="" fill="none" stroke="#dcd6d6" stroke-width="1.5"/><path d="" fill="none" stroke="#dcd6d6" stroke-width="1.5"/><path d="" fill="none" stroke="#dcd6d6" stroke-width="1.5"/><path d="" fill="none" stroke="#dcd6d6" stroke-width="1.5"/><path d="" fill="none" stroke="#dcd6d6" stroke-width="1.5"/><path d="" fill="none" stroke="#dcd6d6" stroke-width="1.5"/><path d="" fill="none" stroke="#dcd6d6" stroke-width="1.5"/><path d="" fill="none" stroke="#dcd6d6" stroke-width="1.5"/><path d="" fill="none" stroke="#dcd6d6" stroke-width="1.5"/><path d="" fill="none" stroke="#dcd6d6" stroke-width="1.5"/><path d="" fill="none" stroke="#dcd6d6" stroke-width="1.5"/><path d="" fill="none" stroke="#dcd6d6" stroke-width="1.5"/><path d="" fill="none" stroke="#dcd6d6" stroke-width="1.5"/><path d="" fill="none" stroke="#dcd6d6" stroke-width="1.5"/><path d="" fill="none" stroke="#dcd6d6" stroke-width="1.5"/><path d="" fill="none" stroke="#dcd6d6" stroke-width="1.5"/><path d="" fill="none" stroke="#dcd6d6" stroke-width="1.5"/><path d="" fill="none" stroke="#dcd6d6" stroke-width="1.5"/><path d="" fill="none" stroke="#dcd6d6" stroke-width="1.5"/><path d="" fill="none" stroke="#dcd6d6" stroke-width="1.5"/><path d="" fill="none" stroke="#dcd6d6" stroke-width="1.5"/><path d="" fill="none" stroke="#dcd6d6" stroke-width="1.5"/><path d="" fill="none" stroke="#dcd6d6" stroke-width="1.5"/><path d="" fill="none" stroke="#dcd6d6" stroke-width="1.5"/><path d="" fill="none" stroke="#dcd6d6" stroke-width="1.5"/><path d="" fill="none" stroke="#dcd6d6" stroke-width="1.5"/><path d="" fill="none" stroke="#dcd6d6" stroke-width="1.5"/><g><path d="" fill="#ebebeb" stroke="none" stroke-width="1"/><path d="" fill="none" stroke="#000000" stroke-width="0.5"/></g><path d="" fill="#737373" stroke="none" stroke-width="1"/><path d="" fill="#737373" stroke="none" stroke-width="1"/><path d="" fill="#737373" stroke="none" stroke-width="1"/><path d="" fill="#737373" stroke="none" stroke-width="1"/></g><path d="" fill="#000000" stroke="none" stroke-width="1"/><path d="" fill="#000000" stroke="none" stroke-width="1"/><path d="M221.19025,170.6103h37.61951c1.6118,0 2.91875,1.26135 2.91875,2.81691v13.14558c0,1.55556 -1.30695,2.81691 -2.91875,2.81691h-37.61951c-1.612,0 -2.91875,-1.26135 -2.91875,-2.81691v-13.14558c0,-1.55556 1.30676,-2.81691 2.91875,-2.81691z" fill="#a5a7a9" stroke="#000000" stroke-width="1"/><path d="M232.09731,182.85134c-0.29493,0 -0.53984,-0.05258 -0.73488,-0.15838c-0.19024,-0.11018 -0.33293,-0.27794 -0.42808,-0.50266c-0.06662,-0.15587 -0.11656,-0.34429 -0.14983,-0.56463c-0.02854,-0.22473 -0.04281,-0.48201 -0.04281,-0.77121c0,-0.49577 0.01667,-0.90454 0.04994,-1.22567c0.03327,-0.32614 0.08088,-0.58779 0.1427,-0.78498c0.06662,-0.20219 0.1403,-0.36495 0.22118,-0.48889c0.12842,-0.18842 0.33293,-0.33991 0.61358,-0.45446c0.28065,-0.11456 0.6778,-0.17214 1.1915,-0.17214c0.34247,0 0.61598,0.0507 0.8205,0.15149c0.2093,0.0964 0.35913,0.22473 0.44949,0.3856c0.09515,0.16088 0.1427,0.33991 0.1427,0.53709c0,0.31236 -0.09515,0.56901 -0.28539,0.77121c-0.19024,0.20219 -0.43995,0.36244 -0.74915,0.48201v0.02754c0.33773,0.03694 0.59932,0.1421 0.78482,0.31675c0.19024,0.16964 0.28539,0.41315 0.28539,0.72989c0,0.25227 -0.06662,0.48451 -0.19977,0.69547c-0.12842,0.20658 -0.30439,0.38811 -0.52797,0.54397c-0.21878,0.15149 -0.46616,0.27105 -0.74201,0.35806c-0.27586,0.08263 -0.55651,0.12394 -0.8419,0.12394zM232.31849,182.02504c0.22831,0 0.43048,-0.03694 0.60645,-0.11018c0.18077,-0.07324 0.32107,-0.17214 0.42095,-0.29609c0.10462,-0.12832 0.15696,-0.27293 0.15696,-0.43381c0,-0.17465 -0.08802,-0.31925 -0.26398,-0.43381c-0.17124,-0.11956 -0.43995,-0.17903 -0.80622,-0.17903c-0.24732,0 -0.44476,0.05759 -0.59219,0.17214c-0.1427,0.11018 -0.21405,0.30047 -0.21405,0.57152c0,0.25728 0.05708,0.44069 0.17124,0.55086c0.11416,0.10579 0.28779,0.15838 0.52084,0.15838zM232.34703,179.84225c0.32346,0 0.59219,-0.06886 0.80622,-0.20658c0.21878,-0.1421 0.3282,-0.32614 0.3282,-0.55086c0,-0.16526 -0.06895,-0.29859 -0.20691,-0.39937c-0.13796,-0.10078 -0.34007,-0.15149 -0.60645,-0.15149c-0.29013,0 -0.52797,0.05508 -0.71347,0.16526c-0.1855,0.11018 -0.27825,0.29859 -0.27825,0.56463c0,0.21596 0.05947,0.36745 0.17837,0.45446c0.12369,0.08263 0.28779,0.12394 0.4923,0.12394zM238.31796,182.88577c-0.1617,0 -0.27352,-0.05947 -0.33533,-0.17903c-0.05708,-0.12394 -0.09036,-0.31925 -0.09989,-0.58529l0.07135,0.03443c-0.26639,0.50016 -0.77055,0.75055 -1.51256,0.75055c-0.33773,0 -0.61833,-0.05759 -0.8419,-0.17214c-0.22358,-0.11956 -0.39001,-0.27543 -0.49943,-0.46823c-0.10462,-0.19718 -0.15696,-0.41064 -0.15696,-0.64037c0,-0.39499 0.1427,-0.70673 0.42808,-0.93647c0.28539,-0.23412 0.66353,-0.35117 1.13442,-0.35117c0.30919,0 0.57791,0.04382 0.80622,0.13083c0.22831,0.08701 0.42335,0.20908 0.58505,0.36495l-0.12129,-0.01377c-0.03327,-0.46385 -0.13796,-0.79437 -0.31392,-0.99155c-0.17124,-0.20219 -0.41622,-0.30297 -0.73488,-0.30297c-0.1855,0 -0.35674,0.02754 -0.5137,0.08263c-0.15696,0.05508 -0.30206,0.11268 -0.43522,0.17214c-0.12842,0.05508 -0.24972,0.08263 -0.36387,0.08263c-0.11416,0 -0.20451,-0.03694 -0.27112,-0.11018c-0.06181,-0.07324 -0.09275,-0.16776 -0.09275,-0.28232c0,-0.16526 0.08088,-0.32113 0.24258,-0.46823c0.1665,-0.1471 0.38527,-0.26604 0.65639,-0.35806c0.27112,-0.09202 0.56605,-0.13772 0.88471,-0.13772c0.38527,0 0.71587,0.08952 0.99172,0.26854c0.27586,0.17903 0.48516,0.44069 0.62786,0.78498c0.12369,0.29358 0.21164,0.62223 0.26398,0.98467c0.05234,0.36244 0.07848,0.75055 0.07848,1.1637c0,0.31236 -0.01667,0.55337 -0.04994,0.72301c-0.03327,0.16964 -0.08561,0.2892 -0.15696,0.35806c-0.06662,0.06448 -0.15696,0.0964 -0.27112,0.0964zM236.74118,182.11456c0.15696,0 0.31633,-0.02066 0.47803,-0.06198c0.1617,-0.0457 0.29726,-0.11268 0.40668,-0.19969c0.10942,-0.08701 0.1641,-0.1953 0.1641,-0.32363c0,-0.11018 -0.04754,-0.19969 -0.1427,-0.26854c-0.09036,-0.07324 -0.21164,-0.12832 -0.36387,-0.16526c-0.14743,-0.03694 -0.30679,-0.05508 -0.47803,-0.05508c-0.29013,0 -0.5113,0.0482 -0.66353,0.1446c-0.14743,0.0964 -0.22118,0.22473 -0.22118,0.3856c0,0.17465 0.06895,0.30986 0.20691,0.40626c0.1427,0.09202 0.3472,0.13772 0.61358,0.13772zM241.42144,182.89265c-0.65639,0 -1.13922,-0.16526 -1.44835,-0.49577c-0.30446,-0.33052 -0.45662,-0.78936 -0.45662,-1.37716c0,-0.45446 0.09036,-0.85634 0.27112,-1.20501c0.1855,-0.35368 0.44949,-0.62911 0.79195,-0.82629c0.3472,-0.20219 0.76101,-0.30297 1.24144,-0.30297c0.43282,0 0.76101,0.06886 0.98459,0.20658c0.22831,0.13334 0.34247,0.30548 0.34247,0.51643c0,0.12832 -0.04281,0.23161 -0.12842,0.30986c-0.08088,0.07324 -0.20217,0.11018 -0.36387,0.11018c-0.09042,0 -0.18317,-0.01377 -0.27825,-0.04132c-0.09042,-0.02754 -0.19031,-0.05508 -0.29966,-0.08263c-0.10942,-0.02754 -0.24025,-0.04132 -0.39241,-0.04132c-0.39481,0 -0.69207,0.10078 -0.89184,0.30297c-0.19504,0.20219 -0.29253,0.49327 -0.29253,0.87449c0,0.36244 0.09509,0.62661 0.28539,0.79187c0.19024,0.16088 0.44949,0.241 0.77769,0.241c0.1617,0 0.30199,-0.01628 0.42095,-0.0482c0.12363,-0.03694 0.23778,-0.07136 0.34247,-0.10328c0.10935,-0.03694 0.21878,-0.05508 0.3282,-0.05508c0.10935,0 0.19977,0.03443 0.27112,0.10328c0.07135,0.06448 0.10702,0.15838 0.10702,0.28232c0,0.1421 -0.05947,0.27794 -0.17837,0.40626c-0.11896,0.12832 -0.29733,0.23412 -0.5351,0.31675c-0.23784,0.07825 -0.5375,0.11706 -0.89898,0.11706zM244.10202,182.88577c-0.09042,0 -0.1641,-0.02504 -0.22118,-0.07574c-0.05708,-0.05508 -0.09755,-0.13334 -0.12129,-0.23412c-0.03808,-0.16964 -0.07135,-0.41565 -0.09989,-0.73678c-0.02854,-0.32113 -0.04281,-0.67731 -0.04281,-1.0673c0,-0.48201 0.01661,-0.94586 0.04994,-1.39093c0.038,-0.44507 0.08561,-0.81002 0.1427,-1.09484c0.06181,-0.30736 0.13789,-0.53271 0.22831,-0.67481c0.09036,-0.1471 0.20924,-0.22034 0.35674,-0.22034c0.13316,0 0.23544,0.05947 0.30679,0.17903c0.07135,0.11456 0.10702,0.31424 0.10702,0.59907c0,0.28482 -0.01193,0.58967 -0.03567,0.91581c-0.01907,0.32614 -0.05234,0.67481 -0.09989,1.04664h0.02854c0.30913,-0.40376 0.59692,-0.72739 0.8633,-0.9709c0.27112,-0.24351 0.5187,-0.42003 0.74181,-0.53021c0.22831,-0.11018 0.43068,-0.16526 0.60645,-0.16526c0.13816,0 0.24064,0.04132 0.30679,0.12394c0.06681,0.08263 0.09989,0.18341 0.09989,0.30297c0,0.23412 -0.19459,0.49577 -0.58505,0.78498c-0.38527,0.2892 -0.94159,0.58529 -1.66933,0.88827l0.00713,-0.11018c0.45182,0.22473 0.83975,0.46135 1.16277,0.70923c0.3282,0.24351 0.57791,0.47512 0.74915,0.69547c0.17642,0.21596 0.26398,0.39687 0.26398,0.54397c0,0.11956 -0.04022,0.21784 -0.12129,0.29609c-0.07589,0.07324 -0.18745,0.11018 -0.33533,0.11018c-0.1855,0 -0.39241,-0.06636 -0.62072,-0.19969c-0.22313,-0.13772 -0.45643,-0.34179 -0.69901,-0.61283c-0.24258,-0.27105 -0.48516,-0.61033 -0.72774,-1.0191h-0.02854c-0.0048,0.2892 -0.0238,0.57152 -0.05708,0.84695c-0.02854,0.27105 -0.06662,0.49327 -0.11416,0.66792c-0.03334,0.11956 -0.08561,0.21596 -0.15696,0.2892c-0.06662,0.06886 -0.16176,0.10328 -0.28539,0.10328z" fill="#000000" stroke="none" stroke-width="1"/><path d="" fill="#a5a7a9" stroke="#000000" stroke-width="1"/><path d="" fill="#000000" stroke="none" stroke-width="1"/></g></g></svg>