<svg version="1.1" xmlns="http://www.w3.org/2000/svg" xmlns:xlink="http://www.w3.org/1999/xlink" width="282.23797" height="25.78879" viewBox="0,0,282.23797,25.78879"><g transform="translate(-98.88102,-167.10561)"><g data-paper-data="{&quot;isPaintingLayer&quot;:true}" fill="#060606" fill-rule="nonzero" stroke="none" stroke-width="1" stroke-linecap="butt" stroke-linejoin="miter" stroke-miterlimit="10" stroke-dasharray="" stroke-dashoffset="0" style="mix-blend-mode: normal"><path d="M100.60549,188.0345c-0.31354,0 -0.56612,-0.10451 -0.75773,-0.31354c-0.19161,-0.2265 -0.34838,-0.58348 -0.47031,-1.07127c-0.12193,-0.55735 -0.23516,-1.42841 -0.33967,-2.61285c-0.10451,-1.20191 -0.15677,-2.54316 -0.15677,-4.02378c0,-1.60254 0.04355,-3.16154 0.13064,-4.67699c0.10451,-1.53287 0.25258,-2.88283 0.44418,-4.04991c0.13935,-0.76643 0.33967,-1.33255 0.60095,-1.69835c0.2787,-0.38322 0.66192,-0.57483 1.14965,-0.57483c0.31354,0 0.59225,0.10451 0.83611,0.31354c0.24386,0.20903 0.42676,0.58353 0.5487,1.12352c0.13935,0.53999 0.20903,1.30642 0.20903,2.2993c0,0.48774 -0.01742,1.04514 -0.05226,1.67222c-0.03483,0.60966 -0.08709,1.289 -0.15677,2.03802h0.10451c1.39351,-1.91608 2.62155,-3.44025 3.68411,-4.57248c1.06256,-1.14965 1.99447,-1.97706 2.79574,-2.4822c0.81869,-0.50514 1.53287,-0.75773 2.14253,-0.75773c0.48774,0 0.85354,0.15677 1.0974,0.47031c0.26128,0.31354 0.39193,0.69676 0.39193,1.14965c0,0.95805 -0.72289,2.1077 -2.16866,3.44896c-1.42836,1.34126 -3.73637,2.95252 -6.92404,4.83376l0.20903,-0.49644c2.75219,1.7419 4.83376,3.28348 6.2447,4.62474c1.41094,1.3239 2.11641,2.49968 2.11641,3.52734c0,0.45284 -0.14807,0.82746 -0.44418,1.12352c-0.27871,0.27876 -0.69676,0.41806 -1.25417,0.41806c-0.69676,0 -1.43707,-0.23516 -2.22092,-0.70547c-0.78385,-0.48779 -1.6548,-1.29777 -2.61285,-2.42995c-0.94062,-1.14965 -2.01189,-2.70866 -3.2138,-4.67699h-0.10451c0.03483,0.40063 0.06096,0.81869 0.07839,1.25417c0.01742,0.41806 0.02613,0.83611 0.02613,1.25417c0,2.00324 -0.13935,3.4403 -0.41806,4.3112c-0.27871,0.85358 -0.78385,1.28029 -1.51545,1.28029zM122.34568,187.98224c-1.93351,0 -3.47508,-0.28741 -4.62474,-0.86224c-1.14965,-0.57483 -1.97711,-1.40228 -2.4822,-2.4822c-0.50523,-1.07992 -0.75781,-2.36899 -0.75781,-3.86701c0,-1.89867 0.34837,-3.50992 1.04522,-4.83376c0.71412,-1.34126 1.68953,-2.36899 2.92639,-3.08316c1.254,-0.71417 2.67376,-1.07127 4.25894,-1.07127c1.86378,0 3.23111,0.43548 4.10217,1.30642c0.87089,0.85354 1.30642,1.97706 1.30642,3.37057c0,1.11482 -0.29623,2.08157 -0.88853,2.90026c-0.57466,0.80128 -1.37599,1.41964 -2.40365,1.85512c-1.02783,0.43548 -2.21226,0.65321 -3.55347,0.65321c-0.74907,0 -1.47201,-0.09581 -2.16866,-0.28741c-0.69681,-0.1916 -1.3239,-0.45289 -1.88125,-0.78385l0.62708,-1.14965c-0.05226,0.41806 -0.07839,0.83611 -0.07839,1.25417c0,1.21933 0.38311,2.09893 1.14965,2.63897c0.76638,0.52257 1.85512,0.78385 3.26606,0.78385c1.0974,0 1.97694,-0.09586 2.63897,-0.28741c0.66187,-0.19155 1.21922,-0.37445 1.67222,-0.5487c0.45284,-0.19155 0.89702,-0.28741 1.33239,-0.28741c0.24397,0 0.46166,0.06973 0.65337,0.20903c0.20903,0.12199 0.37445,0.30489 0.49644,0.5487c0.1393,0.24381 0.20903,0.54004 0.20903,0.88837c0,0.52257 -0.26128,1.02766 -0.78385,1.51545c-0.52257,0.47031 -1.29777,0.86224 -2.32543,1.17578c-1.01035,0.29607 -2.25587,0.44418 -3.73637,0.44418zM120.83023,179.43824c1.23669,0 2.22957,-0.26128 2.97864,-0.78385c0.74891,-0.52257 1.12352,-1.16708 1.12352,-1.93351c0,-0.60966 -0.20903,-1.1061 -0.62708,-1.48932c-0.40075,-0.40063 -1.03648,-0.60095 -1.90738,-0.60095c-0.8188,0 -1.55905,0.15677 -2.22092,0.47031c-0.64456,0.29612 -1.14965,0.68804 -1.51545,1.17578c-0.3658,0.48774 -0.5487,1.01901 -0.5487,1.59384c0,0.50514 0.23516,0.89707 0.70547,1.17578c0.48762,0.26128 1.15831,0.39193 2.01189,0.39193zM134.30941,187.82547c-0.54004,0 -0.96675,-0.12199 -1.28029,-0.3658c-0.31354,-0.26128 -0.56617,-0.68799 -0.75773,-1.28029c-0.26128,-0.87089 -0.46166,-1.96829 -0.60095,-3.29219c-0.12199,-1.34126 -0.1829,-2.98735 -0.1829,-4.93828c0,-1.20191 0.04344,-2.40382 0.13064,-3.60573c0.10451,-1.21933 0.23516,-2.32543 0.39193,-3.31831c0.15677,-1.01031 0.3222,-1.79416 0.49644,-2.35156c0.19155,-0.59225 0.41806,-1.00159 0.67934,-1.22804c0.26128,-0.22645 0.55735,-0.33967 0.88837,-0.33967c0.34833,0 0.62708,0.12193 0.83611,0.3658c0.20903,0.22645 0.37445,0.63579 0.49644,1.22804c0.10451,0.57483 0.1829,1.28029 0.23516,2.11641c0.06957,0.83611 0.10451,1.73318 0.10451,2.69123c0,1.30642 -0.06108,2.68253 -0.1829,4.1283c-0.12199,1.44577 -0.28741,2.86543 -0.49644,4.25894c-0.19172,1.39346 -0.42687,2.67376 -0.70547,3.84088l-0.7316,-0.3658c0.45284,-0.55735 0.96675,-0.99288 1.54158,-1.30642c0.59214,-0.31354 1.13218,-0.47031 1.61996,-0.47031c0.40058,0 0.70547,0.11317 0.9145,0.33967c0.22634,0.20903 0.33967,0.54004 0.33967,0.99288c0,0.45284 -0.20037,0.90584 -0.60095,1.35868c-0.38327,0.45284 -0.86224,0.82746 -1.43707,1.12352c-0.57483,0.27876 -1.141,0.41806 -1.69835,0.41806zM142.71738,167.73269c0.69681,0 1.19325,0.19161 1.48932,0.57483c0.31354,0.38322 0.47031,0.82741 0.47031,1.33255c0,0.62708 -0.19155,1.11482 -0.57483,1.46319c-0.3658,0.33097 -0.88837,0.49644 -1.56771,0.49644c-0.66187,0 -1.15831,-0.1829 -1.48932,-0.5487c-0.33085,-0.38322 -0.49644,-0.82741 -0.49644,-1.33255c0,-0.66192 0.20037,-1.15836 0.60095,-1.48932c0.40075,-0.33096 0.92331,-0.49644 1.56771,-0.49644zM142.87415,173.55934c0.55752,0 0.99288,0.52257 1.30642,1.56771c0.33101,1.04514 0.49644,2.70866 0.49644,4.99054c0,2.8044 -0.20021,4.82511 -0.60095,6.0618c-0.40058,1.23669 -1.01019,1.85512 -1.82899,1.85512c-0.62708,0 -1.08858,-0.45284 -1.38481,-1.35868c-0.29607,-0.92315 -0.44418,-2.52581 -0.44418,-4.80764c0,-2.80445 0.2265,-4.88602 0.67934,-6.2447c0.47031,-1.3761 1.06261,-2.06415 1.77674,-2.06415zM150.69065,187.82547c-0.53988,0 -0.96675,-0.12199 -1.28029,-0.3658c-0.31354,-0.26128 -0.56601,-0.68799 -0.75773,-1.28029c-0.26128,-0.87089 -0.46149,-1.96829 -0.60095,-3.29219c-0.12182,-1.34126 -0.1829,-2.98735 -0.1829,-4.93828c0,-1.20191 0.0436,-2.40382 0.13064,-3.60573c0.10451,-1.21933 0.23516,-2.32543 0.39193,-3.31831c0.15677,-1.01031 0.32236,-1.79416 0.49644,-2.35156c0.19172,-0.59225 0.41806,-1.00159 0.67934,-1.22804c0.26128,-0.22645 0.55752,-0.33967 0.88837,-0.33967c0.34849,0 0.62708,0.12193 0.83611,0.3658c0.20903,0.22645 0.37462,0.63579 0.49644,1.22804c0.10451,0.57483 0.1829,1.28029 0.23516,2.11641c0.06973,0.83611 0.10451,1.73318 0.10451,2.69123c0,1.30642 -0.06091,2.68253 -0.1829,4.1283c-0.12182,1.44577 -0.28741,2.86543 -0.49644,4.25894c-0.19155,1.39346 -0.42671,2.67376 -0.70547,3.84088l-0.7316,-0.3658c0.453,-0.55735 0.96675,-0.99288 1.54158,-1.30642c0.5923,-0.31354 1.13234,-0.47031 1.61996,-0.47031c0.40075,0 0.70547,0.11317 0.9145,0.33967c0.2265,0.20903 0.33967,0.54004 0.33967,0.99288c0,0.45284 -0.20021,0.90584 -0.60095,1.35868c-0.38311,0.45284 -0.86224,0.82746 -1.43707,1.12352c-0.57483,0.27876 -1.14083,0.41806 -1.69835,0.41806zM159.09878,167.73269c0.69665,0 1.19309,0.19161 1.48932,0.57483c0.31354,0.38322 0.47031,0.82741 0.47031,1.33255c0,0.62708 -0.19172,1.11482 -0.57483,1.46319c-0.3658,0.33097 -0.88837,0.49644 -1.56771,0.49644c-0.66203,0 -1.15847,-0.1829 -1.48932,-0.5487c-0.33101,-0.38322 -0.49644,-0.82741 -0.49644,-1.33255c0,-0.66192 0.20021,-1.15836 0.60095,-1.48932c0.40058,-0.33096 0.92315,-0.49644 1.56771,-0.49644zM159.25555,173.55934c0.55735,0 0.99288,0.52257 1.30642,1.56771c0.33085,1.04514 0.49644,2.70866 0.49644,4.99054c0,2.8044 -0.20037,4.82511 -0.60095,6.0618c-0.40075,1.23669 -1.01035,1.85512 -1.82899,1.85512c-0.62708,0 -1.08874,-0.45284 -1.38481,-1.35868c-0.29623,-0.92315 -0.44418,-2.52581 -0.44418,-4.80764c0,-2.80445 0.22634,-4.88602 0.67934,-6.2447c0.47031,-1.3761 1.06245,-2.06415 1.77674,-2.06415zM166.91527,171.52132c0.55735,0 0.93181,0.22645 1.12352,0.67934c0.20903,0.45289 0.31354,1.12352 0.31354,2.01189c0,0.20903 -0.01747,0.43548 -0.05226,0.67934c-0.01747,0.22645 -0.05226,0.43548 -0.10451,0.62708l-0.05226,-0.52257c0.41806,-1.13223 1.06245,-2.01189 1.93351,-2.63897c0.87089,-0.64451 1.79405,-0.96675 2.76962,-0.96675c1.07992,0 1.97694,0.30484 2.69123,0.9145c0.7316,0.60966 1.27148,1.46319 1.61996,2.56059c0.3658,1.0974 0.5487,2.39511 0.5487,3.89314c0,0.9232 -0.0436,1.8377 -0.13064,2.74349c-0.06973,0.88837 -0.17424,1.707 -0.31354,2.45608c-0.12199,0.7316 -0.26128,1.33255 -0.41806,1.80286c-0.20903,0.5923 -0.47913,1.03648 -0.80998,1.33255c-0.33101,0.27876 -0.72294,0.41806 -1.17578,0.41806c-0.453,0 -0.80133,-0.16543 -1.04514,-0.49644c-0.24397,-0.33101 -0.3658,-0.7752 -0.3658,-1.33255c0,-0.5923 0.04344,-1.30642 0.13064,-2.14253c0.08704,-0.85354 0.16543,-1.71577 0.23516,-2.58672c0.08704,-0.88837 0.13064,-1.68965 0.13064,-2.40382c0,-2.43865 -0.80133,-3.65798 -2.40382,-3.65798c-0.85358,0 -1.56771,0.38322 -2.14253,1.14965c-0.57483,0.74902 -0.9581,1.82029 -1.14965,3.2138c-0.05226,0.47031 -0.07839,1.05384 -0.07839,1.75061c0,0.69676 0,1.39351 0,2.09028c0.01731,0.67934 0,1.25417 -0.05226,1.72448c-0.06973,1.04514 -0.2701,1.79421 -0.60095,2.24705c-0.31354,0.45284 -0.74907,0.67934 -1.30642,0.67934c-0.64456,0 -1.13234,-0.29607 -1.46319,-0.88837c-0.33101,-0.60961 -0.49644,-1.62862 -0.49644,-3.05703c0,-0.7316 0.01731,-1.55028 0.05226,-2.45608c0.03478,-0.90579 0.07839,-1.81157 0.13064,-2.71736c0.06957,-0.9232 0.14795,-1.75931 0.23516,-2.50833c0.17408,-1.41094 0.42671,-2.52576 0.75773,-3.34444c0.33085,-0.83611 0.82729,-1.25417 1.48932,-1.25417zM185.87719,187.35516c-1.63744,0 -2.96999,-0.62708 -3.99765,-1.88125c-1.02783,-1.27164 -1.54158,-3.19638 -1.54158,-5.77439c0,-2.75219 0.49644,-4.76408 1.48932,-6.03567c0.99288,-1.27159 2.2993,-1.90738 3.91927,-1.90738c0.95793,0 1.80286,0.24386 2.53446,0.7316c0.7316,0.48774 1.35868,1.17578 1.88125,2.06415l-0.20903,0.3658c-0.05226,-0.24386 -0.09586,-0.50514 -0.13064,-0.78385c-0.03495,-0.27871 -0.05226,-0.48774 -0.05226,-0.62708c0,-0.71417 0.11317,-1.26287 0.33967,-1.64609c0.24381,-0.40063 0.61826,-0.60095 1.12352,-0.60095c0.55735,0 0.99288,0.22645 1.30642,0.67934c0.33085,0.45289 0.58348,1.0974 0.75773,1.93351c0.22634,0.85354 0.41806,1.94221 0.57483,3.26606c0.15677,1.30642 0.23516,2.63027 0.23516,3.97153c0,1.67222 -0.06108,3.0745 -0.1829,4.20668c-0.12199,1.13218 -0.32236,2.0728 -0.60095,2.82187c-0.27876,0.74907 -0.64456,1.40228 -1.0974,1.95963c-0.74907,0.90584 -1.71582,1.59384 -2.90026,2.06415c-1.16713,0.48779 -2.51715,0.7316 -4.04991,0.7316c-1.0974,0 -1.97711,-0.10451 -2.63897,-0.31354c-0.66203,-0.19155 -1.141,-0.46166 -1.43707,-0.80998c-0.27876,-0.33101 -0.41806,-0.70547 -0.41806,-1.12352c0,-0.43553 0.12182,-0.80133 0.3658,-1.0974c0.24381,-0.27876 0.60961,-0.41806 1.0974,-0.41806c0.43537,0 0.94062,0.06973 1.51545,0.20903c0.59214,0.1393 1.28895,0.20903 2.09028,0.20903c1.68953,0 2.88279,-0.40058 3.5796,-1.20191c0.71412,-0.78385 1.07127,-1.91603 1.07127,-3.3967c0,-0.40058 -0.02613,-0.87089 -0.07839,-1.41094l0.3658,0.13064c-0.43553,1.11487 -1.08009,2.01189 -1.93351,2.69123c-0.85358,0.66187 -1.84647,0.99288 -2.97864,0.99288zM186.87007,184.14136c0.55735,0 1.11471,-0.14812 1.67222,-0.44418c0.55735,-0.29607 1.01901,-0.78385 1.38481,-1.46319c0.3658,-0.67934 0.5487,-1.59384 0.5487,-2.74349c0,-1.3761 -0.32236,-2.49963 -0.96675,-3.37057c-0.64456,-0.87094 -1.5504,-1.30642 -2.71736,-1.30642c-1.01035,0 -1.75061,0.38322 -2.22092,1.14965c-0.47031,0.76643 -0.70547,1.9248 -0.70547,3.47508c0,1.48062 0.23516,2.63897 0.70547,3.47508c0.47031,0.81864 1.23669,1.22804 2.2993,1.22804zM207.61933,187.90386c-1.08009,0 -1.97711,-0.20037 -2.69123,-0.60095c-0.69681,-0.41806 -1.21938,-1.05379 -1.56771,-1.90738c-0.24397,-0.5923 -0.42687,-1.30642 -0.5487,-2.14253c-0.10451,-0.85354 -0.15677,-1.82899 -0.15677,-2.92639c0,-1.88125 0.06091,-3.43153 0.1829,-4.65087c0.12182,-1.23674 0.29607,-2.22962 0.52257,-2.97864c0.24381,-0.76643 0.51375,-1.38481 0.80998,-1.85512c0.47031,-0.71417 1.21922,-1.289 2.24705,-1.72448c1.02766,-0.43548 2.4822,-0.65321 4.36345,-0.65321c1.25417,0 2.2557,0.1916 3.00477,0.57483c0.76638,0.3658 1.31508,0.85354 1.64609,1.46319c0.34833,0.60966 0.52257,1.289 0.52257,2.03802c0,1.18448 -0.34849,2.15996 -1.04514,2.92639c-0.69681,0.76643 -1.61131,1.3761 -2.74349,1.82899v0.10451c1.23669,0.13935 2.19479,0.53999 2.87413,1.20191c0.69665,0.64451 1.04514,1.56771 1.04514,2.76962c0,0.95805 -0.24397,1.83765 -0.7316,2.63897c-0.47031,0.78385 -1.11487,1.47185 -1.93351,2.06415c-0.80133,0.57483 -1.70717,1.02766 -2.71736,1.35868c-1.01035,0.31354 -2.03802,0.47031 -3.08316,0.47031zM208.42931,184.76844c0.83611,0 1.57636,-0.1393 2.22092,-0.41806c0.66187,-0.27876 1.17578,-0.65321 1.54158,-1.12352c0.38311,-0.48774 0.57483,-1.03643 0.57483,-1.64609c0,-0.66192 -0.32236,-1.21061 -0.96675,-1.64609c-0.62708,-0.45289 -1.61131,-0.67934 -2.95252,-0.67934c-0.90584,0 -1.62878,0.21773 -2.16866,0.65321c-0.52257,0.41806 -0.78385,1.14095 -0.78385,2.16866c0,0.97541 0.20903,1.67222 0.62708,2.09028c0.41806,0.40058 1.05379,0.60095 1.90738,0.60095zM208.53382,176.48572c1.18444,0 2.16866,-0.26128 2.95252,-0.78385c0.80116,-0.53999 1.20191,-1.23674 1.20191,-2.09028c0,-0.62708 -0.25263,-1.13223 -0.75773,-1.51545c-0.50526,-0.38322 -1.24551,-0.57483 -2.22092,-0.57483c-1.06261,0 -1.93351,0.20903 -2.61285,0.62708c-0.67934,0.41806 -1.01901,1.13223 -1.01901,2.14253c0,0.81869 0.21768,1.39351 0.65321,1.72448c0.45284,0.31354 1.05379,0.47031 1.80286,0.47031zM230.40024,188.0345c-0.5923,0 -1.00154,-0.2265 -1.22804,-0.67934c-0.20903,-0.47031 -0.33101,-1.21056 -0.3658,-2.22092l0.26128,0.13064c-0.97541,1.89872 -2.82187,2.848 -5.53923,2.848c-1.23669,0 -2.26452,-0.21768 -3.08316,-0.65321c-0.81864,-0.45284 -1.42841,-1.04514 -1.82899,-1.77674c-0.38327,-0.74907 -0.57483,-1.55905 -0.57483,-2.42995c0,-1.49803 0.52257,-2.68253 1.56771,-3.55347c1.04514,-0.88837 2.42995,-1.33255 4.15442,-1.33255c1.13218,0 2.11641,0.16547 2.95252,0.49644c0.83611,0.33097 1.55023,0.79256 2.14253,1.38481l-0.44418,-0.05226c-0.12199,-1.75931 -0.5051,-3.01348 -1.14965,-3.7625c-0.62708,-0.76643 -1.52411,-1.14965 -2.69123,-1.14965c-0.67934,0 -1.30642,0.10451 -1.88125,0.31354c-0.57483,0.20903 -1.10605,0.42676 -1.59384,0.65321c-0.47031,0.20903 -0.9145,0.31354 -1.33255,0.31354c-0.41806,0 -0.74907,-0.13935 -0.99288,-0.41806c-0.2265,-0.27871 -0.33967,-0.63579 -0.33967,-1.07127c0,-0.62708 0.29607,-1.21933 0.88837,-1.77674c0.60961,-0.5574 1.41094,-1.01031 2.40382,-1.35868c0.99288,-0.34837 2.0728,-0.52257 3.23993,-0.52257c1.41094,0 2.6215,0.33967 3.63186,1.01901c1.01035,0.67934 1.77674,1.67222 2.2993,2.97864c0.45284,1.11482 0.7752,2.36027 0.96675,3.73637c0.19155,1.3761 0.28741,2.848 0.28741,4.41571c0,1.18444 -0.06091,2.09893 -0.1829,2.74349c-0.12199,0.64456 -0.31354,1.0974 -0.57483,1.35868c-0.24381,0.24381 -0.57483,0.3658 -0.99288,0.3658zM224.62585,185.10811c0.57483,0 1.15831,-0.07839 1.75061,-0.23516c0.5923,-0.17424 1.08874,-0.42671 1.48932,-0.75773c0.40058,-0.33101 0.60095,-0.74025 0.60095,-1.22804c0,-0.41806 -0.17424,-0.75773 -0.52257,-1.01901c-0.33101,-0.27871 -0.7752,-0.48774 -1.33255,-0.62708c-0.54004,-0.13935 -1.12352,-0.20903 -1.75061,-0.20903c-1.06261,0 -1.87259,0.1829 -2.42995,0.5487c-0.54004,0.3658 -0.80998,0.85354 -0.80998,1.46319c0,0.66187 0.25263,1.17578 0.75773,1.54158c0.52257,0.34833 1.27164,0.52257 2.24705,0.52257zM238.00297,171.52132c0.55752,0 0.93197,0.22645 1.12352,0.67934c0.20903,0.45289 0.31354,1.12352 0.31354,2.01189c0,0.20903 -0.01731,0.43548 -0.05226,0.67934c-0.01731,0.22645 -0.05226,0.43548 -0.10451,0.62708l-0.05226,-0.52257c0.41806,-1.13223 1.06261,-2.01189 1.93351,-2.63897c0.87106,-0.64451 1.79421,-0.96675 2.76962,-0.96675c1.08009,0 1.97711,0.30484 2.69123,0.9145c0.7316,0.60966 1.27164,1.46319 1.61996,2.56059c0.3658,1.0974 0.5487,2.39511 0.5487,3.89314c0,0.9232 -0.04344,1.8377 -0.13064,2.74349c-0.06957,0.88837 -0.17408,1.707 -0.31354,2.45608c-0.12182,0.7316 -0.26128,1.33255 -0.41806,1.80286c-0.20903,0.5923 -0.47897,1.03648 -0.80998,1.33255c-0.33085,0.27876 -0.72278,0.41806 -1.17578,0.41806c-0.45284,0 -0.80116,-0.16543 -1.04514,-0.49644c-0.24381,-0.33101 -0.3658,-0.7752 -0.3658,-1.33255c0,-0.5923 0.0436,-1.30642 0.13064,-2.14253c0.0872,-0.85354 0.16559,-1.71577 0.23516,-2.58672c0.0872,-0.88837 0.13064,-1.68965 0.13064,-2.40382c0,-2.43865 -0.80116,-3.65798 -2.40382,-3.65798c-0.85342,0 -1.56771,0.38322 -2.14253,1.14965c-0.57483,0.74902 -0.95793,1.82029 -1.14965,3.2138c-0.05226,0.47031 -0.07839,1.05384 -0.07839,1.75061c0,0.69676 0,1.39351 0,2.09028c0.01747,0.67934 0,1.25417 -0.05226,1.72448c-0.06957,1.04514 -0.26994,1.79421 -0.60095,2.24705c-0.31354,0.45284 -0.74891,0.67934 -1.30642,0.67934c-0.64439,0 -1.13218,-0.29607 -1.46319,-0.88837c-0.33085,-0.60961 -0.49644,-1.62862 -0.49644,-3.05703c0,-0.7316 0.01747,-1.55028 0.05226,-2.45608c0.03495,-0.90579 0.07839,-1.81157 0.13064,-2.71736c0.06973,-0.9232 0.14812,-1.75931 0.23516,-2.50833c0.17424,-1.41094 0.42687,-2.52576 0.75773,-3.34444c0.33101,-0.83611 0.82746,-1.25417 1.48932,-1.25417zM256.96488,187.35516c-1.63727,0 -2.96983,-0.62708 -3.99765,-1.88125c-1.02766,-1.27164 -1.54158,-3.19638 -1.54158,-5.77439c0,-2.75219 0.49644,-4.76408 1.48932,-6.03567c0.99288,-1.27159 2.2993,-1.90738 3.91927,-1.90738c0.9581,0 1.80286,0.24386 2.53446,0.7316c0.7316,0.48774 1.35868,1.17578 1.88125,2.06415l-0.20903,0.3658c-0.05226,-0.24386 -0.0957,-0.50514 -0.13064,-0.78385c-0.03478,-0.27871 -0.05226,-0.48774 -0.05226,-0.62708c0,-0.71417 0.11333,-1.26287 0.33967,-1.64609c0.24397,-0.40063 0.61843,-0.60095 1.12336,-0.60095c0.55686,0 0.99288,0.22645 1.30642,0.67934c0.3315,0.45289 0.58299,1.0974 0.75773,1.93351c0.22699,0.85354 0.41806,1.94221 0.57483,3.26606c0.15677,1.30642 0.23516,2.63027 0.23516,3.97153c0,1.67222 -0.06042,3.0745 -0.1829,4.20668c-0.12248,1.13218 -0.32171,2.0728 -0.60095,2.82187c-0.27925,0.74907 -0.64505,1.40228 -1.0974,1.95963c-0.74956,0.90584 -1.7155,1.59384 -2.9001,2.06415c-1.16696,0.48779 -2.51699,0.7316 -4.04991,0.7316c-1.0974,0 -1.97694,-0.10451 -2.63897,-0.31354c-0.66187,-0.19155 -1.14083,-0.46166 -1.43707,-0.80998c-0.27859,-0.33101 -0.41806,-0.70547 -0.41806,-1.12352c0,-0.43553 0.12199,-0.80133 0.3658,-1.0974c0.24397,-0.27876 0.60977,-0.41806 1.0974,-0.41806c0.43553,0 0.94062,0.06973 1.51545,0.20903c0.5923,0.1393 1.28911,0.20903 2.09028,0.20903c1.68969,0 2.88295,-0.40058 3.5796,-1.20191c0.71429,-0.78385 1.07127,-1.91603 1.07127,-3.3967c0,-0.40058 -0.02613,-0.87089 -0.07839,-1.41094l0.3658,0.13064c-0.43537,1.11487 -1.07992,2.01189 -1.93351,2.69123c-0.85342,0.66187 -1.8463,0.99288 -2.97864,0.99288zM257.95776,184.14136c0.55752,0 1.11487,-0.14812 1.67222,-0.44418c0.55752,-0.29607 1.01901,-0.78385 1.38481,-1.46319c0.3658,-0.67934 0.5487,-1.59384 0.5487,-2.74349c0,-1.3761 -0.3222,-2.49963 -0.96675,-3.37057c-0.64439,-0.87094 -1.55023,-1.30642 -2.71736,-1.30642c-1.01019,0 -1.75061,0.38322 -2.22092,1.14965c-0.47031,0.76643 -0.70547,1.9248 -0.70547,3.47508c0,1.48062 0.23516,2.63897 0.70547,3.47508c0.47031,0.81864 1.23686,1.22804 2.2993,1.22804zM280.13903,187.61645c-0.47031,0 -0.83611,-0.15677 -1.0974,-0.47031c-0.24332,-0.33101 -0.40989,-0.74907 -0.49644,-1.25417c-0.08655,-0.52257 -0.13064,-1.07127 -0.13064,-1.64609l0.13064,-0.10451c-0.17473,0.74907 -0.5144,1.39346 -1.01901,1.93351c-0.50461,0.54004 -1.08923,0.9581 -1.75061,1.25417c-0.66138,0.27876 -1.32439,0.41806 -1.98576,0.41806c-0.88837,0 -1.69835,-0.20903 -2.42995,-0.62708c-0.7316,-0.41806 -1.29826,-1.06261 -1.69835,-1.93351c-0.40009,-0.92315 -0.71363,-2.08162 -0.94062,-3.47508c-0.22699,-1.41094 -0.33967,-2.85671 -0.33967,-4.33732c0,-0.80128 0.03429,-1.54158 0.10451,-2.22092c0.07022,-0.67934 0.1829,-1.23674 0.33967,-1.67222c0.13881,-0.45289 0.34784,-0.78385 0.62708,-0.99288c0.27925,-0.22645 0.63525,-0.33967 1.07127,-0.33967c0.50461,0 0.89653,0.20032 1.17578,0.60095c0.29558,0.38322 0.47848,0.9232 0.5487,1.61996c0.07022,0.57483 0.11268,1.289 0.13064,2.14253c0.03429,0.83611 0.06042,1.68093 0.07839,2.53446c0.03429,0.83611 0.07839,1.54158 0.13064,2.11641c0.10451,1.04514 0.37396,1.82034 0.80998,2.32543c0.43602,0.48779 0.96675,0.7316 1.59384,0.7316c0.92266,0 1.62813,-0.34833 2.11641,-1.04514c0.48828,-0.69676 0.7316,-1.67222 0.7316,-2.92639c0,-0.62708 -0.03429,-1.33255 -0.10451,-2.11641c-0.07022,-0.80128 -0.14861,-1.57641 -0.23516,-2.32543c-0.07022,-0.74902 -0.10451,-1.36738 -0.10451,-1.85512c0,-0.81869 0.13881,-1.40223 0.41806,-1.75061c0.27925,-0.3658 0.66138,-0.5487 1.14965,-0.5487c0.41806,0 0.76589,0.11322 1.04514,0.33967c0.29558,0.22645 0.53073,0.53999 0.70547,0.94062c0.24332,0.52257 0.45235,1.23674 0.62708,2.14253c0.17473,0.90579 0.31354,1.93351 0.41806,3.08316c0.10451,1.14965 0.15677,2.36027 0.15677,3.63186c0,1.95098 -0.13064,3.41417 -0.39193,4.38958c-0.26128,0.9581 -0.72343,1.43707 -1.38481,1.43707zM287.75874,171.52132c0.5585,0 0.93246,0.22645 1.12352,0.67934c0.20903,0.45289 0.31354,1.12352 0.31354,2.01189c0,0.20903 -0.01633,0.43548 -0.05226,0.67934c-0.01633,0.22645 -0.05226,0.43548 -0.10451,0.62708l-0.05226,-0.52257c0.41806,-1.13223 1.0631,-2.01189 1.93351,-2.63897c0.87204,-0.64451 1.7947,-0.96675 2.76962,-0.96675c1.08106,0 1.9776,0.30484 2.69123,0.9145c0.7316,0.60966 1.27213,1.46319 1.61996,2.56059c0.3658,1.0974 0.5487,2.39511 0.5487,3.89314c0,0.9232 -0.04246,1.8377 -0.13064,2.74349c-0.06859,0.88837 -0.1731,1.707 -0.31354,2.45608c-0.12084,0.7316 -0.26128,1.33255 -0.41806,1.80286c-0.20903,0.5923 -0.47848,1.03648 -0.80998,1.33255c-0.32987,0.27876 -0.7218,0.41806 -1.17578,0.41806c-0.45235,0 -0.80018,-0.16543 -1.04514,-0.49644c-0.24332,-0.33101 -0.3658,-0.7752 -0.3658,-1.33255c0,-0.5923 0.04409,-1.30642 0.13064,-2.14253c0.08818,-0.85354 0.16657,-1.71577 0.23516,-2.58672c0.08818,-0.88837 0.13064,-1.68965 0.13064,-2.40382c0,-2.43865 -0.80018,-3.65798 -2.40382,-3.65798c-0.85244,0 -1.56771,0.38322 -2.14253,1.14965c-0.57483,0.74902 -0.95695,1.82029 -1.14965,3.2138c-0.05226,0.47031 -0.07839,1.05384 -0.07839,1.75061c0,0.69676 0,1.39351 0,2.09028c0.01796,0.67934 0,1.25417 -0.05226,1.72448c-0.06859,1.04514 -0.26945,1.79421 -0.60095,2.24705c-0.31354,0.45284 -0.74793,0.67934 -1.30642,0.67934c-0.64341,0 -1.13169,-0.29607 -1.46319,-0.88837c-0.32987,-0.60961 -0.49644,-1.62862 -0.49644,-3.05703c0,-0.7316 0.01796,-1.55028 0.05226,-2.45608c0.03593,-0.90579 0.07839,-1.81157 0.13064,-2.71736c0.07022,-0.9232 0.14861,-1.75931 0.23516,-2.50833c0.17473,-1.41094 0.42785,-2.52576 0.75773,-3.34444c0.3315,-0.83611 0.82795,-1.25417 1.48932,-1.25417zM310.61951,188.37417c-1.0974,0 -1.95147,-0.06973 -2.56059,-0.20903c-0.59279,-0.1393 -1.00105,-0.33101 -1.22804,-0.57483c-0.22699,-0.26128 -0.34784,-0.5487 -0.3658,-0.86224c0,-0.48779 0.28741,-0.89702 0.86224,-1.22804c0.59279,-0.33101 1.67222,-0.54004 3.23993,-0.62708l-0.41806,0.49644c-0.19106,-0.88837 -0.3315,-1.92485 -0.41806,-3.10929c-0.08655,-1.18448 -0.12248,-2.41252 -0.10451,-3.68411c0.01796,-1.27159 0.07839,-2.4822 0.1829,-3.63186c0.10451,-1.16708 0.25312,-2.15996 0.44418,-2.97864l2.27318,-0.15677c-0.38376,0.15677 -0.86224,0.29612 -1.43707,0.41806c-0.57483,0.10451 -1.16762,0.15677 -1.77674,0.15677c-1.11536,0 -1.94167,-0.12194 -2.4822,-0.3658c-0.52257,-0.24386 -0.78385,-0.58353 -0.78385,-1.01901c0,-0.76643 0.46215,-1.35868 1.38481,-1.77674c0.94062,-0.43548 2.37769,-0.65321 4.3112,-0.65321c2.2993,0 4.23281,0.38322 5.80052,1.14965c1.58567,0.74902 2.78758,1.80286 3.60573,3.16154c0.81815,1.34126 1.22804,2.90896 1.22804,4.70312c0,1.56771 -0.27925,3.01348 -0.83611,4.33732c-0.55686,1.30642 -1.35868,2.44742 -2.40382,3.42283c-1.02717,0.9581 -2.26501,1.707 -3.71024,2.24705c-1.4289,0.52257 -3.0309,0.78385 -4.80764,0.78385zM314.32975,184.35039c0.59279,0 1.21987,-0.23516 1.88125,-0.70547c0.67934,-0.48779 1.25417,-1.19321 1.72448,-2.11641c0.47031,-0.94062 0.70547,-2.09898 0.70547,-3.47508c0,-1.01031 -0.14861,-1.88995 -0.44418,-2.63897c-0.27925,-0.76643 -0.64505,-1.40223 -1.0974,-1.90738c-0.45235,-0.50514 -0.93246,-0.87966 -1.43707,-1.12352c-0.50461,-0.26128 -0.98472,-0.39193 -1.43707,-0.39193c-0.3658,0 -0.65321,0.22645 -0.86224,0.67934c-0.19106,0.45289 -0.3315,1.13223 -0.41806,2.03802c-0.08655,0.88837 -0.13064,1.99447 -0.13064,3.31831c0,2.05544 0.10451,3.62315 0.31354,4.70312c0.20903,1.07992 0.60912,1.61996 1.20191,1.61996zM336.67448,188.0345c-0.59279,0 -1.00105,-0.2265 -1.22804,-0.67934c-0.20903,-0.47031 -0.3315,-1.21056 -0.3658,-2.22092l0.26128,0.13064c-0.97492,1.89872 -2.82187,2.848 -5.53923,2.848c-1.2362,0 -2.26501,-0.21768 -3.08316,-0.65321c-0.81815,-0.45284 -1.4289,-1.04514 -1.82899,-1.77674c-0.38376,-0.74907 -0.57483,-1.55905 -0.57483,-2.42995c0,-1.49803 0.52257,-2.68253 1.56771,-3.55347c1.04514,-0.88837 2.42995,-1.33255 4.15442,-1.33255c1.13169,0 2.11641,0.16547 2.95252,0.49644c0.83611,0.33097 1.54974,0.79256 2.14253,1.38481l-0.44418,-0.05226c-0.12248,-1.75931 -0.50461,-3.01348 -1.14965,-3.7625c-0.62708,-0.76643 -1.52362,-1.14965 -2.69123,-1.14965c-0.67934,0 -1.30642,0.10451 -1.88125,0.31354c-0.57483,0.20903 -1.10556,0.42676 -1.59384,0.65321c-0.47031,0.20903 -0.9145,0.31354 -1.33255,0.31354c-0.41806,0 -0.74956,-0.13935 -0.99288,-0.41806c-0.22699,-0.27871 -0.33967,-0.63579 -0.33967,-1.07127c0,-0.62708 0.29558,-1.21933 0.88837,-1.77674c0.60912,-0.5574 1.41094,-1.01031 2.40382,-1.35868c0.99288,-0.34837 2.07231,-0.52257 3.23993,-0.52257c1.41094,0 2.62101,0.33967 3.63186,1.01901c1.01084,0.67934 1.77674,1.67222 2.2993,2.97864c0.45235,1.11482 0.77569,2.36027 0.96675,3.73637c0.19106,1.3761 0.28741,2.848 0.28741,4.41571c0,1.18444 -0.06042,2.09893 -0.1829,2.74349c-0.12248,0.64456 -0.31354,1.0974 -0.57483,1.35868c-0.24332,0.24381 -0.57483,0.3658 -0.99288,0.3658zM330.90009,185.10811c0.57483,0 1.15782,-0.07839 1.75061,-0.23516c0.59279,-0.17424 1.08923,-0.42671 1.48932,-0.75773c0.40009,-0.33101 0.60095,-0.74025 0.60095,-1.22804c0,-0.41806 -0.17473,-0.75773 -0.52257,-1.01901c-0.3315,-0.27871 -0.77569,-0.48774 -1.33255,-0.62708c-0.54053,-0.13935 -1.12352,-0.20903 -1.75061,-0.20903c-1.0631,0 -1.87308,0.1829 -2.42995,0.5487c-0.54053,0.3658 -0.80998,0.85354 -0.80998,1.46319c0,0.66187 0.25312,1.17578 0.75773,1.54158c0.52257,0.34833 1.27213,0.52257 2.24705,0.52257zM345.23645,172.04388h-0.52257c-0.05226,-0.76643 -0.03429,-1.48932 0.05226,-2.16866c0.08818,-0.69676 0.27108,-1.25417 0.5487,-1.67222c0.29721,-0.43547 0.71527,-0.65321 1.25417,-0.65321c0.48828,0 0.84591,0.15677 1.07127,0.47031c0.22699,0.31354 0.33967,0.74902 0.33967,1.30642c0,1.0974 -0.20903,2.03802 -0.62708,2.82187l-0.47031,-0.05226c0.94062,-0.33097 2.00373,-0.49644 3.18767,-0.49644c0.74956,0 1.34235,0.14807 1.77674,0.44418c0.45398,0.27871 0.67934,0.75773 0.67934,1.43707c0,0.64451 -0.26128,1.13223 -0.78385,1.46319c-0.52257,0.33097 -1.17578,0.49644 -1.95963,0.49644c-0.47031,0 -0.97492,-0.01742 -1.51545,-0.05226c-0.52257,-0.05226 -1.03534,-0.13064 -1.54158,-0.23516l0.44418,-0.5487c0.15677,0.66192 0.30538,1.41964 0.44418,2.27318c0.15677,0.83611 0.29721,1.70705 0.41806,2.61285c0.12248,0.90579 0.21883,1.78544 0.28741,2.63897c0.07022,0.85358 0.10451,1.61996 0.10451,2.2993c0,1.11487 -0.1731,1.99442 -0.52257,2.63897c-0.34784,0.64456 -0.86224,0.96675 -1.54158,0.96675c-0.5389,0 -0.96675,-0.16543 -1.28029,-0.49644c-0.29558,-0.33101 -0.51277,-0.74907 -0.65321,-1.25417c-0.12084,-0.52257 -0.19923,-1.06261 -0.23516,-1.61996c-0.01633,-0.55735 -0.02613,-1.06261 -0.02613,-1.51545c0,-0.76643 0.03593,-1.62867 0.10451,-2.58672c0.07022,-0.97546 0.16657,-1.97706 0.28741,-3.00477c0.14044,-1.02771 0.29721,-2.0206 0.47031,-2.97864l0.52257,0.44418c-0.88837,0.45289 -1.98576,0.67934 -3.29219,0.67934c-0.80018,0 -1.4191,-0.14807 -1.85512,-0.44418c-0.43439,-0.29612 -0.65321,-0.75773 -0.65321,-1.38481c0,-0.67934 0.24495,-1.20191 0.7316,-1.56771c0.48828,-0.38322 1.14149,-0.57483 1.95963,-0.57483c0.54053,0 1.04514,0.03483 1.51545,0.10451c0.48828,0.05226 0.9145,0.12194 1.28029,0.20903zM366.06899,188.0345c-0.59279,0 -1.00105,-0.2265 -1.22804,-0.67934c-0.20903,-0.47031 -0.3315,-1.21056 -0.3658,-2.22092l0.26128,0.13064c-0.97492,1.89872 -2.82187,2.848 -5.53923,2.848c-1.2362,0 -2.26501,-0.21768 -3.08316,-0.65321c-0.81815,-0.45284 -1.4289,-1.04514 -1.82899,-1.77674c-0.38376,-0.74907 -0.57483,-1.55905 -0.57483,-2.42995c0,-1.49803 0.52257,-2.68253 1.56771,-3.55347c1.04514,-0.88837 2.42995,-1.33255 4.15442,-1.33255c1.13169,0 2.11641,0.16547 2.95252,0.49644c0.83611,0.33097 1.54974,0.79256 2.14253,1.38481l-0.44418,-0.05226c-0.12248,-1.75931 -0.50461,-3.01348 -1.14965,-3.7625c-0.62708,-0.76643 -1.52362,-1.14965 -2.69123,-1.14965c-0.67934,0 -1.30642,0.10451 -1.88125,0.31354c-0.57483,0.20903 -1.10556,0.42676 -1.59384,0.65321c-0.47031,0.20903 -0.9145,0.31354 -1.33255,0.31354c-0.41806,0 -0.74956,-0.13935 -0.99288,-0.41806c-0.22699,-0.27871 -0.33967,-0.63579 -0.33967,-1.07127c0,-0.62708 0.29558,-1.21933 0.88837,-1.77674c0.60912,-0.5574 1.41094,-1.01031 2.40382,-1.35868c0.99288,-0.34837 2.07231,-0.52257 3.23993,-0.52257c1.41094,0 2.62101,0.33967 3.63186,1.01901c1.01084,0.67934 1.77674,1.67222 2.2993,2.97864c0.45235,1.11482 0.77569,2.36027 0.96675,3.73637c0.19106,1.3761 0.28741,2.848 0.28741,4.41571c0,1.18444 -0.06042,2.09893 -0.1829,2.74349c-0.12248,0.64456 -0.31354,1.0974 -0.57483,1.35868c-0.24332,0.24381 -0.57483,0.3658 -0.99288,0.3658zM360.2946,185.10811c0.57483,0 1.15782,-0.07839 1.75061,-0.23516c0.59279,-0.17424 1.08923,-0.42671 1.48932,-0.75773c0.40009,-0.33101 0.60095,-0.74025 0.60095,-1.22804c0,-0.41806 -0.17473,-0.75773 -0.52257,-1.01901c-0.3315,-0.27871 -0.77569,-0.48774 -1.33255,-0.62708c-0.54053,-0.13935 -1.12352,-0.20903 -1.75061,-0.20903c-1.0631,0 -1.87308,0.1829 -2.42995,0.5487c-0.54053,0.3658 -0.80998,0.85354 -0.80998,1.46319c0,0.66187 0.25312,1.17578 0.75773,1.54158c0.52257,0.34833 1.27213,0.52257 2.24705,0.52257zM371.00727,175.98928c0,-1.67222 0.15677,-2.87413 0.47031,-3.60573c0.31354,-0.74902 0.75773,-1.12352 1.33255,-1.12352c0.45235,0 0.80998,0.1916 1.07127,0.57483c0.26128,0.3658 0.45235,0.82741 0.57483,1.38481c0.12084,0.53999 0.1829,1.08869 0.1829,1.64609l-0.13064,-0.05226c0.29558,-0.94062 0.74793,-1.75061 1.35868,-2.42995c0.62708,-0.67934 1.37501,-1.01901 2.24705,-1.01901c1.02717,0 1.7849,0.42676 2.27318,1.28029c0.48664,0.83611 0.7316,1.88125 0.7316,3.13541c0,1.67222 -0.1927,2.8393 -0.57483,3.50121c-0.38376,0.66192 -0.89817,0.99288 -1.54158,0.99288c-0.47031,0 -0.81978,-0.1916 -1.04514,-0.57483c-0.20903,-0.38322 -0.27925,-1.06256 -0.20903,-2.03802c0.06859,-1.02771 0.00817,-1.7419 -0.1829,-2.14253c-0.1927,-0.40063 -0.49644,-0.60095 -0.9145,-0.60095c-0.50624,0 -0.92429,0.32225 -1.25417,0.96675c-0.31354,0.62708 -0.47031,1.40223 -0.47031,2.32543c0,0.3658 0.04246,0.82741 0.13064,1.38481c0.08655,0.5574 0.1829,1.16708 0.28741,1.82899c0.10451,0.64451 0.19923,1.289 0.28741,1.93351c0.08655,0.64456 0.13064,1.23669 0.13064,1.77674c0,0.9581 -0.14861,1.64609 -0.44418,2.06415c-0.29721,0.41806 -0.71527,0.62708 -1.25417,0.62708c-0.61075,0 -1.08106,-0.19155 -1.41094,-0.57483c-0.3315,-0.40058 -0.58462,-1.04514 -0.75773,-1.93351c-0.14044,-0.80133 -0.27925,-1.75061 -0.41806,-2.848c-0.14044,-1.0974 -0.25312,-2.22092 -0.33967,-3.37057c-0.08818,-1.14965 -0.13064,-2.18609 -0.13064,-3.10929z"/></g></g></svg>