<svg version="1.1" xmlns="http://www.w3.org/2000/svg" xmlns:xlink="http://www.w3.org/1999/xlink" width="289.20123" height="15.69149" viewBox="0,0,289.20123,15.69149"><g transform="translate(-95.39939,-172.15426)"><g data-paper-data="{&quot;isPaintingLayer&quot;:true}" fill="#000000" fill-rule="nonzero" stroke="none" stroke-width="1" stroke-linecap="butt" stroke-linejoin="miter" stroke-miterlimit="10" stroke-dasharray="" stroke-dashoffset="0" style="mix-blend-mode: normal"><path d="M96.42987,184.86358c-0.18735,0 -0.33829,-0.06245 -0.45279,-0.18736c-0.1145,-0.13528 -0.20817,-0.34874 -0.28104,-0.64015c-0.07286,-0.33312 -0.14052,-0.8535 -0.20298,-1.56134c-0.06245,-0.71822 -0.09368,-1.51971 -0.09368,-2.40447c0,-0.95762 0.02602,-1.88922 0.07807,-2.7948c0.06245,-0.91599 0.15093,-1.72269 0.26542,-2.42008c0.08327,-0.45799 0.20298,-0.79628 0.35911,-1.01487c0.16655,-0.22899 0.39554,-0.34349 0.68698,-0.34349c0.18736,0 0.35391,0.06245 0.49963,0.18736c0.14573,0.12491 0.25502,0.34871 0.32788,0.67138c0.08327,0.32267 0.12491,0.78067 0.12491,1.37398c0,0.29145 -0.01041,0.62454 -0.03123,0.99926c-0.02081,0.36432 -0.05204,0.77027 -0.09368,1.21785h0.06245c0.83272,-1.14499 1.56655,-2.05576 2.2015,-2.73234c0.63495,-0.68699 1.19183,-1.18141 1.67064,-1.48328c0.48922,-0.30187 0.916,-0.45279 1.2803,-0.45279c0.29146,0 0.51005,0.09368 0.65577,0.28104c0.15614,0.18736 0.23421,0.41636 0.23421,0.68699c0,0.57248 -0.43197,1.25948 -1.29591,2.06097c-0.85353,0.8015 -2.23271,1.76431 -4.13756,2.88848l0.12491,-0.29665c1.64462,1.0409 2.88848,1.96209 3.7316,2.76357c0.84312,0.79108 1.26468,1.49364 1.26468,2.10781c0,0.27067 -0.08847,0.49438 -0.26542,0.67138c-0.16654,0.16651 -0.41636,0.24981 -0.74944,0.24981c-0.41636,0 -0.85874,-0.14052 -1.32714,-0.42156c-0.4684,-0.29142 -0.98884,-0.77543 -1.56134,-1.45205c-0.56208,-0.68699 -1.20224,-1.61858 -1.92045,-2.7948h-0.06245c0.02082,0.23941 0.03643,0.48922 0.04684,0.74944c0.01042,0.24981 0.01561,0.49963 0.01561,0.74944c0,1.19699 -0.08326,2.05573 -0.24981,2.57622c-0.16654,0.51 -0.4684,0.76505 -0.90558,0.76505zM109.421,184.83235c-1.1554,0 -2.07659,-0.17175 -2.76357,-0.51524c-0.68702,-0.34349 -1.18143,-0.83789 -1.4833,-1.48328c-0.30187,-0.64536 -0.45279,-1.41562 -0.45279,-2.31078c0,-1.13457 0.20818,-2.09741 0.62454,-2.88848c0.42677,-0.8015 1.00967,-1.41562 1.74873,-1.84238c0.74944,-0.42677 1.5977,-0.64015 2.54499,-0.64015c1.11369,0 1.93082,0.26022 2.45131,0.78067c0.52038,0.51004 0.78067,1.18141 0.78067,2.01413c0,0.66617 -0.17699,1.24386 -0.53086,1.73308c-0.34349,0.47881 -0.82239,0.84834 -1.43643,1.10856c-0.61416,0.26022 -1.32202,0.39033 -2.12343,0.39033c-0.44766,0 -0.8796,-0.05725 -1.29591,-0.17175c-0.41643,-0.1145 -0.79116,-0.27064 -1.12419,-0.4684l0.37474,-0.68699c-0.03123,0.24981 -0.04684,0.49963 -0.04684,0.74944c0,0.72862 0.22896,1.25428 0.68699,1.57696c0.45792,0.31226 1.10856,0.4684 1.95168,0.4684c0.65577,0 1.18138,-0.05721 1.57696,-0.17175c0.39547,-0.1145 0.72859,-0.2238 0.99926,-0.32788c0.27056,-0.1145 0.53599,-0.17175 0.79628,-0.17175c0.14566,0 0.2758,0.04164 0.39033,0.12491c0.12491,0.07285 0.22371,0.18215 0.29665,0.32788c0.0832,0.14576 0.12491,0.32264 0.12491,0.53086c0,0.31226 -0.15614,0.61416 -0.4684,0.90558c-0.31226,0.28104 -0.77554,0.51524 -1.38959,0.70261c-0.60379,0.17699 -1.348,0.26542 -2.23271,0.26542zM108.51542,179.72676c0.73896,0 1.33227,-0.15614 1.77993,-0.4684c0.44754,-0.31226 0.67138,-0.69739 0.67138,-1.1554c0,-0.36432 -0.12491,-0.66097 -0.37472,-0.88996c-0.23944,-0.23941 -0.61941,-0.35911 -1.13978,-0.35911c-0.48926,0 -0.93167,0.09368 -1.32714,0.28104c-0.3852,0.17696 -0.68699,0.41116 -0.90558,0.70261c-0.21859,0.29145 -0.32788,0.60893 -0.32788,0.95242c0,0.30187 0.14052,0.53606 0.42156,0.70261c0.29142,0.15614 0.69212,0.23421 1.20224,0.23421zM118.834,174.93344c0.92644,0 1.59257,0.13531 1.99852,0.40595c0.40595,0.27064 0.60893,0.61932 0.60893,1.0461c0,0.24981 -0.08844,0.45799 -0.26542,0.62454c-0.16651,0.15614 -0.40595,0.23421 -0.71822,0.23421c-0.32264,0 -0.66089,-0.04684 -1.01487,-0.14052c-0.34349,-0.09368 -0.7442,-0.14052 -1.20224,-0.14052c-0.53086,0 -0.92632,0.10408 -1.18662,0.31226c-0.26019,0.20818 -0.39033,0.47361 -0.39033,0.79628c0,0.30187 0.11453,0.54127 0.34349,0.71822c0.23944,0.16654 0.69223,0.29145 1.35837,0.37472c0.73907,0.08327 1.348,0.21859 1.82677,0.40595c0.48926,0.17696 0.8536,0.44758 1.09294,0.81189c0.23944,0.3539 0.35911,0.84312 0.35911,1.46766c0,0.98889 -0.34862,1.72272 -1.0461,2.2015c-0.69736,0.47877 -1.66015,0.71822 -2.88848,0.71822c-0.78067,0 -1.39997,-0.06245 -1.85799,-0.18736c-0.45792,-0.12491 -0.79104,-0.3019 -0.99926,-0.53086c-0.19773,-0.22896 -0.29665,-0.49963 -0.29665,-0.81189c0,-0.27067 0.08855,-0.47877 0.26542,-0.62454c0.18736,-0.15614 0.40595,-0.23421 0.65577,-0.23421c0.23944,0 0.4945,0.03123 0.76505,0.09368c0.27067,0.05208 0.55695,0.1093 0.85874,0.17175c0.3019,0.06245 0.61416,0.09368 0.9368,0.09368c1.04097,0 1.56134,-0.32267 1.56134,-0.96803c0,-0.21859 -0.05197,-0.39555 -0.15614,-0.53086c-0.10405,-0.13531 -0.29142,-0.24461 -0.56208,-0.32788c-0.27056,-0.09368 -0.66613,-0.16654 -1.18662,-0.21859c-0.62454,-0.06245 -1.16576,-0.16654 -1.6238,-0.31226c-0.45792,-0.15614 -0.81189,-0.40595 -1.06171,-0.74944c-0.24981,-0.3539 -0.37472,-0.83792 -0.37472,-1.45205c0,-0.96803 0.36435,-1.7487 1.09294,-2.34201c0.7287,-0.60371 1.76431,-0.90558 3.10707,-0.90558zM124.59825,172.73195c0.41633,0 0.71298,0.1145 0.88996,0.34349c0.18736,0.22899 0.28104,0.49443 0.28104,0.79628c0,0.37472 -0.11453,0.66617 -0.34349,0.87435c-0.21859,0.19776 -0.53086,0.29665 -0.9368,0.29665c-0.39558,0 -0.69223,-0.1093 -0.88996,-0.32788c-0.19785,-0.22899 -0.29665,-0.49443 -0.29665,-0.79628c0,-0.39555 0.11966,-0.6922 0.35911,-0.88996c0.23933,-0.19776 0.5516,-0.29665 0.9368,-0.29665zM124.69194,176.21374c0.33301,0 0.59331,0.31226 0.78067,0.9368c0.19773,0.62454 0.29665,1.61858 0.29665,2.98216c0,1.67584 -0.11978,2.88325 -0.35911,3.62232c-0.23944,0.73907 -0.60379,1.10856 -1.09294,1.10856c-0.37472,0 -0.65063,-0.27067 -0.82751,-0.81189c-0.17699,-0.55171 -0.26542,-1.50926 -0.26542,-2.87287c0,-1.67584 0.13528,-2.91971 0.40595,-3.7316c0.28104,-0.8223 0.63491,-1.23346 1.06171,-1.23346zM134.40582,177.5565c0.10416,-0.42677 0.28628,-0.81189 0.54647,-1.1554c0.27067,-0.34349 0.59331,-0.61413 0.96803,-0.81189c0.3852,-0.20818 0.80677,-0.31226 1.26468,-0.31226c0.54134,0 1.02012,0.13011 1.43643,0.39033c0.41643,0.26022 0.74432,0.68699 0.98365,1.2803c0.24981,0.59331 0.37472,1.38439 0.37472,2.37324c0,0.51004 -0.02075,1.02528 -0.06245,1.54573c-0.0416,0.52045 -0.09368,1.00446 -0.15614,1.45205c-0.06245,0.44754 -0.13004,0.82227 -0.20298,1.12417c-0.10405,0.41633 -0.26542,0.73384 -0.48402,0.95242c-0.2081,0.21859 -0.47353,0.32788 -0.79628,0.32788c-0.27056,0 -0.48402,-0.11966 -0.64015,-0.35911c-0.15614,-0.23944 -0.23421,-0.58293 -0.23421,-1.03049c0,-0.20821 0.0261,-0.47365 0.07807,-0.79628c0.05208,-0.33309 0.1093,-0.6922 0.17175,-1.07733c0.06245,-0.39555 0.11978,-0.79628 0.17175,-1.20224c0.05208,-0.40595 0.07807,-0.79108 0.07807,-1.1554c0,-0.54127 -0.1093,-0.95762 -0.32788,-1.24907c-0.21859,-0.30187 -0.52561,-0.45279 -0.92119,-0.45279c-0.43717,0 -0.80141,0.22899 -1.09294,0.68699c-0.28104,0.44758 -0.44754,1.10334 -0.49963,1.96729c-0.0416,0.77027 -0.07807,1.45725 -0.1093,2.06097c-0.03123,0.59331 -0.1093,1.08256 -0.23421,1.46766c-0.0832,0.27067 -0.20298,0.47365 -0.35911,0.60893c-0.14566,0.13528 -0.34349,0.20298 -0.59331,0.20298c-0.28104,0 -0.50476,-0.10405 -0.67138,-0.31226c-0.15614,-0.20821 -0.24457,-0.5361 -0.26542,-0.98365c-0.02075,-0.37472 -0.02598,-0.81711 -0.01561,-1.32714c0.01048,-0.51004 0.01561,-1.01487 0.01561,-1.5145c0.01048,-0.51004 0.00525,-0.9316 -0.01561,-1.26468c-0.0416,-0.66617 -0.16126,-1.1554 -0.35911,-1.46766c-0.18736,-0.31226 -0.47353,-0.4684 -0.85874,-0.4684c-0.44754,0 -0.80666,0.20818 -1.07733,0.62454c-0.26019,0.41636 -0.42156,0.99405 -0.48402,1.73308c-0.02075,0.30187 -0.03123,0.67659 -0.03123,1.12417c0.01048,0.43717 0.02086,0.87435 0.03123,1.31152c0.01048,0.43717 0.00525,0.80153 -0.01561,1.09294c-0.01037,0.62454 -0.1093,1.07208 -0.29665,1.34275c-0.17687,0.27067 -0.42669,0.40595 -0.74944,0.40595c-0.3851,0 -0.66613,-0.12491 -0.84312,-0.37472c-0.16651,-0.24981 -0.2758,-0.65052 -0.32788,-1.20224c-0.0416,-0.48926 -0.07282,-0.97324 -0.09368,-1.45205c-0.02075,-0.48922 -0.03123,-0.97324 -0.03123,-1.45205c0,-0.48922 0.01048,-1.02008 0.03123,-1.59257c0.03123,-0.57248 0.07294,-1.11376 0.12491,-1.6238c0.06245,-0.52045 0.17175,-0.95762 0.32788,-1.31152c0.15614,-0.3539 0.41643,-0.53086 0.78067,-0.53086c0.3019,0 0.51524,0.15092 0.64015,0.45279c0.12491,0.29145 0.18736,0.74423 0.18736,1.35837c0,0.20818 -0.01561,0.40074 -0.04684,0.5777l-0.04684,-0.31226c0.20821,-0.67659 0.54134,-1.20224 0.99926,-1.57696c0.45803,-0.38513 0.96803,-0.5777 1.53012,-0.5777c0.73907,0 1.31677,0.23941 1.73308,0.71822c0.41643,0.4684 0.64539,1.11895 0.68699,1.95168zM142.94882,175.02712c0.28104,0 0.51524,0.16654 0.70261,0.49963c0.18736,0.32267 0.31751,0.83792 0.39033,1.54573l-0.32788,0.29665c0.18736,-0.72862 0.5361,-1.28551 1.0461,-1.67064c0.51011,-0.38513 1.11379,-0.5777 1.81115,-0.5777c0.64539,0 1.21785,0.16654 1.71748,0.49963c0.49963,0.33309 0.88996,0.83792 1.17101,1.5145c0.29153,0.66617 0.43717,1.50409 0.43717,2.51376c0,1.6342 -0.29665,2.84164 -0.88996,3.62232c-0.58283,0.7703 -1.37911,1.1554 -2.38885,1.1554c-0.72859,0 -1.30104,-0.15614 -1.71748,-0.4684c-0.41633,-0.31226 -0.70773,-0.69223 -0.87435,-1.13978l0.18736,-0.09368c0.0833,0.62454 0.15101,1.24383 0.20298,1.85799c0.06245,0.60368 0.09368,1.13454 0.09368,1.59257c0,0.4684 -0.0832,0.86398 -0.24981,1.18662c-0.16651,0.32264 -0.43194,0.48402 -0.79628,0.48402c-0.35387,0 -0.61929,-0.13528 -0.79628,-0.40595c-0.17687,-0.27067 -0.30703,-0.62978 -0.39033,-1.07733c-0.06245,-0.45803 -0.12491,-1.0461 -0.18736,-1.76431c-0.06245,-0.71822 -0.11443,-1.49364 -0.15614,-2.3264c-0.03123,-0.83272 -0.04684,-1.64462 -0.04684,-2.43569c0,-0.81189 0.0261,-1.57174 0.07807,-2.27956c0.06245,-0.71822 0.13539,-1.30113 0.21859,-1.7487c0.07294,-0.26022 0.16662,-0.45279 0.28104,-0.5777c0.12491,-0.13531 0.28628,-0.20298 0.48402,-0.20298zM145.93098,176.91635c-0.56208,0 -1.01487,0.28104 -1.35837,0.84312c-0.33301,0.55168 -0.49963,1.25948 -0.49963,2.12343c0,0.88476 0.16662,1.54573 0.49963,1.9829c0.34349,0.43717 0.78591,0.65577 1.32714,0.65577c0.62454,0 1.0722,-0.24461 1.34275,-0.73384c0.28104,-0.49963 0.42156,-1.14499 0.42156,-1.93606c0,-1.00967 -0.17175,-1.7487 -0.51524,-2.2171c-0.34349,-0.47881 -0.74944,-0.71822 -1.21785,-0.71822zM158.5038,184.61376c-0.28104,0 -0.49963,-0.09368 -0.65577,-0.28104c-0.14566,-0.19773 -0.24457,-0.44754 -0.29665,-0.74944c-0.05197,-0.31226 -0.07807,-0.64015 -0.07807,-0.98365l0.07807,-0.06245c-0.10405,0.44754 -0.30703,0.83275 -0.60893,1.1554c-0.30178,0.32264 -0.65052,0.57245 -1.0461,0.74944c-0.39547,0.16651 -0.79104,0.24981 -1.18662,0.24981c-0.53086,0 -1.01487,-0.12491 -1.45205,-0.37472c-0.43717,-0.24981 -0.77543,-0.63491 -1.01487,-1.1554c-0.23933,-0.55171 -0.42669,-1.24386 -0.56208,-2.07659c-0.13528,-0.84312 -0.20298,-1.70707 -0.20298,-2.59183c0,-0.47881 0.02086,-0.92119 0.06245,-1.32714c0.04171,-0.40595 0.1093,-0.73904 0.20298,-0.99926c0.0833,-0.27064 0.20821,-0.4684 0.37472,-0.59331c0.16662,-0.13531 0.37997,-0.20298 0.64015,-0.20298c0.3019,0 0.5361,0.1197 0.70261,0.35911c0.17699,0.22899 0.28628,0.55168 0.32788,0.96803c0.04171,0.34349 0.06769,0.77027 0.07807,1.2803c0.02086,0.49963 0.03647,1.00446 0.04684,1.5145c0.02086,0.49963 0.04684,0.92119 0.07807,1.26468c0.06245,0.62454 0.22383,1.08773 0.48402,1.38959c0.2603,0.29145 0.5777,0.43717 0.95242,0.43717c0.55171,0 0.97328,-0.20818 1.26468,-0.62454c0.29153,-0.41636 0.43717,-0.99926 0.43717,-1.7487c0,-0.37472 -0.02075,-0.79628 -0.06245,-1.26468c-0.0416,-0.47881 -0.08844,-0.94201 -0.14052,-1.38959c-0.0416,-0.44758 -0.06245,-0.81711 -0.06245,-1.10856c0,-0.48922 0.0833,-0.83792 0.24981,-1.0461c0.16662,-0.21859 0.39558,-0.32788 0.68699,-0.32788c0.24981,0 0.45803,0.06766 0.62454,0.20298c0.17699,0.13531 0.31751,0.32267 0.42156,0.56208c0.14576,0.31226 0.27067,0.73904 0.37472,1.2803c0.10416,0.54127 0.18736,1.1554 0.24981,1.84238c0.06245,0.68699 0.09368,1.41041 0.09368,2.17027c0,1.1658 -0.07807,2.04011 -0.23421,2.62306c-0.15614,0.57245 -0.43194,0.85874 -0.82751,0.85874zM163.15114,184.73867c-0.32264,0 -0.5777,-0.07282 -0.76505,-0.21859c-0.18736,-0.15614 -0.33826,-0.41119 -0.45279,-0.76505c-0.15614,-0.52049 -0.2758,-1.17625 -0.35911,-1.96729c-0.07282,-0.8015 -0.1093,-1.78514 -0.1093,-2.95094c0,-0.71822 0.0261,-1.43643 0.07807,-2.15466c0.06245,-0.72862 0.14052,-1.38959 0.23421,-1.9829c0.09368,-0.60371 0.1926,-1.07211 0.29665,-1.40521c0.11453,-0.3539 0.24981,-0.59852 0.40595,-0.73384c0.15614,-0.13532 0.33312,-0.20298 0.53086,-0.20298c0.20821,0 0.37472,0.07286 0.49963,0.21859c0.12491,0.13531 0.22383,0.37993 0.29665,0.73384c0.06245,0.34349 0.1093,0.76505 0.14052,1.26468c0.04171,0.49963 0.06245,1.03569 0.06245,1.60819c0,0.78067 -0.03636,1.60297 -0.1093,2.46692c-0.07282,0.86395 -0.17175,1.71227 -0.29665,2.54499c-0.11443,0.83272 -0.25494,1.59781 -0.42156,2.29517l-0.43717,-0.21859c0.27067,-0.33312 0.5777,-0.59331 0.92119,-0.78067c0.35397,-0.18736 0.67662,-0.28104 0.96803,-0.28104c0.23944,0 0.42156,0.06766 0.54647,0.20298c0.13539,0.12491 0.20298,0.32264 0.20298,0.59331c0,0.27067 -0.11966,0.54122 -0.35911,0.81189c-0.22896,0.27067 -0.51524,0.49438 -0.85874,0.67138c-0.34349,0.16651 -0.68175,0.24981 -1.01487,0.24981zM173.62462,184.86358c-0.35397,0 -0.59855,-0.13528 -0.73384,-0.40595c-0.12491,-0.28104 -0.19785,-0.72346 -0.21859,-1.32714l0.15614,0.07807c-0.58293,1.13454 -1.68625,1.70187 -3.31004,1.70187c-0.73907,0 -1.35323,-0.13015 -1.84238,-0.39033c-0.48926,-0.27067 -0.8536,-0.62454 -1.09294,-1.06171c-0.22907,-0.44754 -0.34349,-0.93157 -0.34349,-1.45205c0,-0.89518 0.31226,-1.60297 0.9368,-2.12343c0.62454,-0.53086 1.45205,-0.79628 2.48253,-0.79628c0.6765,0 1.26468,0.09889 1.76431,0.29665c0.49963,0.19776 0.92632,0.47361 1.2803,0.82751l-0.26542,-0.03123c-0.07294,-1.05131 -0.3019,-1.80075 -0.68699,-2.24833c-0.37472,-0.45799 -0.91082,-0.68699 -1.60819,-0.68699c-0.40595,0 -0.78067,0.06245 -1.12417,0.18736c-0.34349,0.12491 -0.661,0.25502 -0.95242,0.39033c-0.28104,0.12491 -0.54647,0.18736 -0.79628,0.18736c-0.24981,0 -0.44766,-0.08327 -0.59331,-0.24981c-0.13539,-0.16654 -0.20298,-0.37993 -0.20298,-0.64015c0,-0.37472 0.17687,-0.72862 0.53086,-1.06171c0.36424,-0.33309 0.84312,-0.60371 1.43643,-0.81189c0.59331,-0.20818 1.23859,-0.31226 1.93606,-0.31226c0.84312,0 1.56648,0.20298 2.17027,0.60893c0.60368,0.40595 1.06171,0.99926 1.37398,1.77993c0.27056,0.66617 0.46316,1.41041 0.5777,2.23271c0.11443,0.8223 0.17175,1.70187 0.17175,2.63867c0,0.70784 -0.03647,1.25431 -0.1093,1.63941c-0.07294,0.3851 -0.18736,0.65577 -0.34349,0.81189c-0.14576,0.14576 -0.34349,0.21859 -0.59331,0.21859zM170.17405,183.11487c0.34349,0 0.69212,-0.04684 1.0461,-0.14052c0.35387,-0.10405 0.65052,-0.25506 0.88996,-0.45279c0.23933,-0.19776 0.35911,-0.44238 0.35911,-0.73384c0,-0.24981 -0.10416,-0.45279 -0.31226,-0.60893c-0.19785,-0.16654 -0.46327,-0.29145 -0.79628,-0.37472c-0.32276,-0.08327 -0.67138,-0.12491 -1.0461,-0.12491c-0.63502,0 -1.11904,0.1093 -1.45205,0.32788c-0.32276,0.21859 -0.48402,0.51004 -0.48402,0.87435c0,0.39555 0.15089,0.70261 0.45279,0.92119c0.31226,0.20821 0.75982,0.31226 1.34275,0.31226zM178.16767,174.9959c0.33312,0 0.55695,0.13531 0.67138,0.40595c0.12491,0.27064 0.18736,0.67138 0.18736,1.20224c0,0.12491 -0.01037,0.26022 -0.03123,0.40595c-0.01037,0.13531 -0.03123,0.26022 -0.06245,0.37472l-0.03123,-0.31226c0.24981,-0.67659 0.63502,-1.20224 1.1554,-1.57696c0.52049,-0.38513 1.0722,-0.5777 1.65503,-0.5777c0.64539,0 1.18149,0.18215 1.60819,0.54647c0.43717,0.36432 0.75993,0.87435 0.96803,1.53012c0.21859,0.65577 0.32788,1.43123 0.32788,2.3264c0,0.55168 -0.02598,1.09815 -0.07807,1.63941c-0.0416,0.53086 -0.10405,1.02008 -0.18736,1.46766c-0.07282,0.43717 -0.15614,0.79628 -0.24981,1.07733c-0.12491,0.35387 -0.28617,0.61929 -0.48402,0.79628c-0.19773,0.16651 -0.43194,0.24981 -0.70261,0.24981c-0.27056,0 -0.47877,-0.09892 -0.62454,-0.29665c-0.14566,-0.19773 -0.21859,-0.46316 -0.21859,-0.79628c0,-0.35387 0.0261,-0.78067 0.07807,-1.2803c0.05208,-0.51004 0.09892,-1.02528 0.14052,-1.54573c0.05208,-0.53086 0.07807,-1.00967 0.07807,-1.43643c0,-1.45725 -0.47877,-2.18588 -1.43643,-2.18588c-0.51,0 -0.9368,0.22899 -1.2803,0.68699c-0.34349,0.44758 -0.57245,1.08773 -0.68699,1.92045c-0.03123,0.28104 -0.04684,0.62974 -0.04684,1.0461c0,0.41636 0,0.83272 0,1.24907c0.01048,0.40595 0,0.74944 -0.03123,1.03049c-0.0416,0.62454 -0.16126,1.07208 -0.35911,1.34275c-0.18736,0.27067 -0.44754,0.40595 -0.78067,0.40595c-0.3851,0 -0.6765,-0.17699 -0.87435,-0.53086c-0.19773,-0.36435 -0.29665,-0.97328 -0.29665,-1.82677c0,-0.43717 0.01048,-0.9264 0.03123,-1.46766c0.02086,-0.54127 0.04684,-1.08253 0.07807,-1.6238c0.04171,-0.55168 0.08855,-1.05131 0.14052,-1.49889c0.10416,-0.84312 0.25506,-1.5093 0.45279,-1.99852c0.19785,-0.49963 0.4945,-0.74944 0.88996,-0.74944zM192.79611,184.75428c-0.34349,0 -0.72859,-0.02086 -1.1554,-0.06245c-0.41633,-0.0416 -0.82227,-0.11966 -1.21785,-0.23421c-0.3851,-0.12491 -0.70773,-0.29142 -0.96803,-0.49963c-0.24981,-0.21859 -0.37472,-0.49963 -0.37472,-0.84312c0,-0.35387 0.1093,-0.61929 0.32788,-0.79628c0.22907,-0.17696 0.59855,-0.26542 1.10856,-0.26542c0.35397,0 0.74944,0.04684 1.18662,0.14052c0.44766,0.09368 0.87435,0.14052 1.2803,0.14052c0.60379,0 1.0461,-0.09368 1.32714,-0.28104c0.29153,-0.18736 0.43717,-0.44238 0.43717,-0.76505c0,-0.19776 -0.05721,-0.37472 -0.17175,-0.53086c-0.10405,-0.15614 -0.3174,-0.31226 -0.64015,-0.4684c-0.32264,-0.15614 -0.80666,-0.32788 -1.45205,-0.51524c-0.73896,-0.19776 -1.33752,-0.41636 -1.79554,-0.65577c-0.45792,-0.24981 -0.79104,-0.54647 -0.99926,-0.88996c-0.2081,-0.34349 -0.31226,-0.74944 -0.31226,-1.21785c0,-0.57248 0.09892,-1.06692 0.29665,-1.48328c0.20821,-0.42677 0.48402,-0.78588 0.82751,-1.07733c0.34349,-0.30187 0.7287,-0.54127 1.1554,-0.71822c0.42681,-0.17696 0.85874,-0.30706 1.29591,-0.39033c0.44766,-0.08327 0.87435,-0.12491 1.2803,-0.12491c0.89521,0 1.6238,0.14052 2.18588,0.42156c0.57257,0.28104 0.85874,0.65577 0.85874,1.12417c0,0.33309 -0.1093,0.60371 -0.32788,0.81189c-0.2081,0.20818 -0.53086,0.31226 -0.96803,0.31226c-0.18736,0 -0.41108,-0.02602 -0.67138,-0.07807c-0.26019,-0.05205 -0.54647,-0.10408 -0.85874,-0.15614c-0.31226,-0.05205 -0.65577,-0.07807 -1.03049,-0.07807c-0.63491,0 -1.12417,0.09889 -1.46766,0.29665c-0.34349,0.19776 -0.51524,0.51524 -0.51524,0.95242c0,0.18736 0.04684,0.35911 0.14052,0.51524c0.10416,0.15614 0.31751,0.31748 0.64015,0.48402c0.32276,0.16654 0.81714,0.35911 1.48328,0.5777c0.82239,0.24981 1.46766,0.52565 1.93606,0.82751c0.4684,0.29145 0.80153,0.62454 0.99926,0.99926c0.19785,0.37472 0.29665,0.79628 0.29665,1.26468c0,0.64536 -0.17687,1.21785 -0.53086,1.71748c-0.34349,0.48926 -0.82751,0.86911 -1.45205,1.13978c-0.61406,0.27067 -1.33227,0.40595 -2.15466,0.40595zM199.99702,172.73195c0.41633,0 0.71298,0.1145 0.88996,0.34349c0.18736,0.22899 0.28104,0.49443 0.28104,0.79628c0,0.37472 -0.11453,0.66617 -0.34349,0.87435c-0.21859,0.19776 -0.53086,0.29665 -0.9368,0.29665c-0.39558,0 -0.69223,-0.1093 -0.88996,-0.32788c-0.19785,-0.22899 -0.29665,-0.49443 -0.29665,-0.79628c0,-0.39555 0.11966,-0.6922 0.35911,-0.88996c0.23933,-0.19776 0.5516,-0.29665 0.9368,-0.29665zM200.09071,176.21374c0.33301,0 0.59331,0.31226 0.78067,0.9368c0.19773,0.62454 0.29665,1.61858 0.29665,2.98216c0,1.67584 -0.11978,2.88325 -0.35911,3.62232c-0.23944,0.73907 -0.60379,1.10856 -1.09294,1.10856c-0.37472,0 -0.65063,-0.27067 -0.82751,-0.81189c-0.17699,-0.55171 -0.26542,-1.50926 -0.26542,-2.87287c0,-1.67584 0.13528,-2.91971 0.40595,-3.7316c0.28104,-0.8223 0.63491,-1.23346 1.06171,-1.23346zM205.77644,175.9327h-0.17175c-0.09368,-0.45799 -0.14052,-0.90037 -0.14052,-1.32714c0,-0.75985 0.19773,-1.35837 0.59331,-1.79554c0.40595,-0.43717 1.0877,-0.65577 2.04569,-0.65577c0.58216,0 0.99926,0.09368 1.24907,0.28104c0.25985,0.17696 0.39033,0.44758 0.39033,0.81189c0,0.66617 -0.3803,1.03049 -1.13978,1.09294c-0.38587,0.04164 -0.68699,0.1145 -0.90558,0.21859c-0.20856,0.10408 -0.36468,0.27064 -0.4684,0.49963c-0.09368,0.21859 -0.15614,0.53086 -0.18736,0.9368l-0.28138,-0.03123c0.26019,-0.09368 0.55684,-0.16654 0.8903,-0.21859c0.33234,-0.05205 0.66023,-0.07807 0.98365,-0.07807c0.44721,0 0.80632,0.08327 1.07733,0.24981c0.28104,0.16654 0.42156,0.44758 0.42156,0.84312c0,0.38513 -0.1461,0.67659 -0.43717,0.87435c-0.29219,0.19776 -0.65131,0.29665 -1.07733,0.29665c-0.26096,0 -0.53643,-0.02082 -0.82751,-0.06245c-0.28104,-0.04164 -0.56208,-0.09889 -0.84312,-0.17175l0.07807,-0.23421c0.10372,0.53086 0.19183,1.11376 0.26542,1.7487c0.07249,0.62454 0.12937,1.25428 0.17175,1.88922c0.04126,0.62454 0.06245,1.21264 0.06245,1.76431c0,0.35387 -0.04684,0.68699 -0.14052,0.99926c-0.09368,0.3019 -0.23978,0.54647 -0.43717,0.73384c-0.1877,0.17699 -0.42714,0.26542 -0.71855,0.26542c-0.43717,0 -0.74944,-0.17175 -0.9368,-0.51524c-0.18736,-0.35387 -0.28104,-0.79104 -0.28104,-1.31152c0,-0.49963 0.02075,-1.06171 0.06245,-1.68625c0.05197,-0.63494 0.12491,-1.28551 0.21859,-1.95168c0.10405,-0.67659 0.22371,-1.32714 0.35911,-1.95168l0.18736,0.14052c-0.53086,0.22899 -1.20747,0.34349 -2.02975,0.34349c-0.43717,0 -0.77554,-0.08327 -1.01487,-0.24981c-0.23944,-0.16654 -0.35911,-0.42156 -0.35911,-0.76505c0,-0.37472 0.14566,-0.66097 0.43717,-0.85874c0.29142,-0.20818 0.68175,-0.31226 1.17101,-0.31226c0.33301,0 0.64528,0.02082 0.9368,0.06245c0.30178,0.03123 0.56722,0.07285 0.79628,0.12491zM218.22402,184.86358c-0.35464,0 -0.59889,-0.13528 -0.73384,-0.40595c-0.12491,-0.28104 -0.19852,-0.72346 -0.21859,-1.32714l0.15614,0.07807c-0.58327,1.13454 -1.68625,1.70187 -3.31004,1.70187c-0.7394,0 -1.3539,-0.13015 -1.84238,-0.39033c-0.48959,-0.27067 -0.85427,-0.62454 -1.09294,-1.06171c-0.22975,-0.44754 -0.34349,-0.93157 -0.34349,-1.45205c0,-0.89518 0.31226,-1.60297 0.9368,-2.12343c0.62454,-0.53086 1.45205,-0.79628 2.48253,-0.79628c0.67584,0 1.26468,0.09889 1.76431,0.29665c0.49963,0.19776 0.92565,0.47361 1.2803,0.82751l-0.26542,-0.03123c-0.07361,-1.05131 -0.30223,-1.80075 -0.68699,-2.24833c-0.37472,-0.45799 -0.91115,-0.68699 -1.60819,-0.68699c-0.40595,0 -0.78067,0.06245 -1.12417,0.18736c-0.34349,0.12491 -0.66134,0.25502 -0.95242,0.39033c-0.28104,0.12491 -0.54647,0.18736 -0.79628,0.18736c-0.24981,0 -0.44833,-0.08327 -0.59331,-0.24981c-0.13606,-0.16654 -0.20298,-0.37993 -0.20298,-0.64015c0,-0.37472 0.17621,-0.72862 0.53086,-1.06171c0.36357,-0.33309 0.84312,-0.60371 1.43643,-0.81189c0.59331,-0.20818 1.23792,-0.31226 1.93606,-0.31226c0.84312,0 1.5658,0.20298 2.17027,0.60893c0.60335,0.40595 1.06171,0.99926 1.37398,1.77993c0.26988,0.66617 0.46283,1.41041 0.5777,2.23271c0.11376,0.8223 0.17175,1.70187 0.17175,2.63867c0,0.70784 -0.0368,1.25431 -0.1093,1.63941c-0.07361,0.3851 -0.18736,0.65577 -0.34349,0.81189c-0.1461,0.14576 -0.34349,0.21859 -0.59331,0.21859zM214.77345,183.11487c0.34349,0 0.69146,-0.04684 1.0461,-0.14052c0.35353,-0.10405 0.65019,-0.25506 0.88996,-0.45279c0.23867,-0.19776 0.35911,-0.44238 0.35911,-0.73384c0,-0.24981 -0.10484,-0.45279 -0.31226,-0.60893c-0.19852,-0.16654 -0.46394,-0.29145 -0.79628,-0.37472c-0.32342,-0.08327 -0.67138,-0.12491 -1.0461,-0.12491c-0.63569,0 -1.11971,0.1093 -1.45205,0.32788c-0.32342,0.21859 -0.48402,0.51004 -0.48402,0.87435c0,0.39555 0.15056,0.70261 0.45279,0.92119c0.31226,0.20821 0.75948,0.31226 1.34275,0.31226zM223.33964,175.30816h-0.31226c-0.03123,-0.45799 -0.02007,-0.88996 0.03123,-1.29591c0.05242,-0.41636 0.16171,-0.74944 0.32788,-0.99926c0.17733,-0.26022 0.42714,-0.39033 0.74944,-0.39033c0.29219,0 0.50521,0.09368 0.64015,0.28104c0.13606,0.18736 0.20298,0.44758 0.20298,0.78067c0,0.65577 -0.12491,1.21785 -0.37472,1.68625l-0.28104,-0.03123c0.56208,-0.19776 1.19778,-0.29665 1.90484,-0.29665c0.44833,0 0.80186,0.08847 1.06171,0.26542c0.271,0.16654 0.40595,0.45279 0.40595,0.85874c0,0.38513 -0.15614,0.67659 -0.4684,0.87435c-0.31226,0.19776 -0.70261,0.29665 -1.17101,0.29665c-0.28104,0 -0.58216,-0.01041 -0.90558,-0.03123c-0.31226,-0.03123 -0.61896,-0.07807 -0.92119,-0.14052l0.26542,-0.32788c0.09368,0.39555 0.1829,0.84834 0.26542,1.35837c0.09368,0.49963 0.17733,1.02008 0.24981,1.56134c0.07361,0.54127 0.13049,1.06692 0.17175,1.57696c0.04238,0.51004 0.06245,0.96803 0.06245,1.37398c0,0.66613 -0.10372,1.19186 -0.31226,1.57696c-0.20744,0.3851 -0.51524,0.5777 -0.92119,0.5777c-0.3223,0 -0.5777,-0.09892 -0.76505,-0.29665c-0.17621,-0.19773 -0.30669,-0.44754 -0.39033,-0.74944c-0.07249,-0.31226 -0.11933,-0.63491 -0.14052,-0.96803c-0.01004,-0.33312 -0.01561,-0.63494 -0.01561,-0.90558c0,-0.45799 0.02119,-0.97324 0.06245,-1.54573c0.04238,-0.5829 0.09926,-1.18141 0.17175,-1.79554c0.08365,-0.61413 0.17733,-1.20744 0.28104,-1.77993l0.31226,0.26542c-0.53086,0.27064 -1.18662,0.40595 -1.96729,0.40595c-0.47844,0 -0.84758,-0.08847 -1.10856,-0.26542c-0.25985,-0.17696 -0.39033,-0.45279 -0.39033,-0.82751c0,-0.40595 0.1461,-0.71822 0.43717,-0.9368c0.29219,-0.22899 0.68253,-0.34349 1.17101,-0.34349c0.32342,0 0.62454,0.02082 0.90558,0.06245c0.29219,0.03123 0.54647,0.07285 0.76505,0.12491zM229.68427,180.44498c-0.43717,0 -0.76059,-0.07807 -0.96803,-0.23421c-0.20856,-0.16654 -0.31226,-0.37993 -0.31226,-0.64015c0,-0.24981 0.09368,-0.44758 0.28104,-0.59331c0.18736,-0.15614 0.49963,-0.29145 0.9368,-0.40595c0.42602,-0.1145 0.91561,-0.19257 1.46766,-0.23421c0.55093,-0.04164 1.05056,-0.06245 1.49889,-0.06245c0.54089,0 0.92565,0.07807 1.1554,0.23421c0.22863,0.15614 0.34349,0.36432 0.34349,0.62454c0,0.29145 -0.09926,0.52045 -0.29665,0.68699c-0.18736,0.15614 -0.46394,0.27583 -0.82751,0.35911c-0.29219,0.05205 -0.64015,0.09889 -1.0461,0.14052c-0.39591,0.04164 -0.79628,0.07285 -1.20224,0.09368c-0.39591,0.02082 -0.7394,0.03123 -1.03049,0.03123zM238.58392,184.75428c-0.34349,0 -0.72826,-0.02086 -1.1554,-0.06245c-0.41598,-0.0416 -0.82193,-0.11966 -1.21785,-0.23421c-0.38476,-0.12491 -0.70707,-0.29142 -0.96803,-0.49963c-0.24981,-0.21859 -0.37472,-0.49963 -0.37472,-0.84312c0,-0.35387 0.1093,-0.61929 0.32788,-0.79628c0.22975,-0.17696 0.59889,-0.26542 1.10856,-0.26542c0.35464,0 0.74944,0.04684 1.18662,0.14052c0.44833,0.09368 0.87435,0.14052 1.2803,0.14052c0.60446,0 1.0461,-0.09368 1.32714,-0.28104c0.29219,-0.18736 0.43717,-0.44238 0.43717,-0.76505c0,-0.19776 -0.05688,-0.37472 -0.17175,-0.53086c-0.10372,-0.15614 -0.31673,-0.31226 -0.64015,-0.4684c-0.3223,-0.15614 -0.80632,-0.32788 -1.45205,-0.51524c-0.7383,-0.19776 -1.33718,-0.41636 -1.79554,-0.65577c-0.45725,-0.24981 -0.7907,-0.54647 -0.99926,-0.88996c-0.20744,-0.34349 -0.31226,-0.74944 -0.31226,-1.21785c0,-0.57248 0.09926,-1.06692 0.29665,-1.48328c0.20856,-0.42677 0.48402,-0.78588 0.82751,-1.07733c0.34349,-0.30187 0.72937,-0.54127 1.1554,-0.71822c0.42714,-0.17696 0.85874,-0.30706 1.29591,-0.39033c0.44833,-0.08327 0.87435,-0.12491 1.2803,-0.12491c0.89554,0 1.6238,0.14052 2.18588,0.42156c0.57324,0.28104 0.85874,0.65577 0.85874,1.12417c0,0.33309 -0.1093,0.60371 -0.32788,0.81189c-0.20744,0.20818 -0.53086,0.31226 -0.96803,0.31226c-0.18736,0 -0.41041,-0.02602 -0.67138,-0.07807c-0.25985,-0.05205 -0.54647,-0.10408 -0.85874,-0.15614c-0.31226,-0.05205 -0.65577,-0.07807 -1.03049,-0.07807c-0.63458,0 -1.12417,0.09889 -1.46766,0.29665c-0.34349,0.19776 -0.51524,0.51524 -0.51524,0.95242c0,0.18736 0.04684,0.35911 0.14052,0.51524c0.10484,0.15614 0.31784,0.31748 0.64015,0.48402c0.32342,0.16654 0.81747,0.35911 1.48328,0.5777c0.82305,0.24981 1.46766,0.52565 1.93606,0.82751c0.4684,0.29145 0.80186,0.62454 0.99926,0.99926c0.19852,0.37472 0.29665,0.79628 0.29665,1.26468c0,0.64536 -0.17621,1.21785 -0.53086,1.71748c-0.34349,0.48926 -0.82751,0.86911 -1.45205,1.13978c-0.61339,0.27067 -1.3316,0.40595 -2.15466,0.40595zM245.78505,172.73195c0.41598,0 0.71265,0.1145 0.88996,0.34349c0.18736,0.22899 0.28104,0.49443 0.28104,0.79628c0,0.37472 -0.11487,0.66617 -0.34349,0.87435c-0.21859,0.19776 -0.53086,0.29665 -0.9368,0.29665c-0.39591,0 -0.69257,-0.1093 -0.88996,-0.32788c-0.1974,-0.22899 -0.29665,-0.49443 -0.29665,-0.79628c0,-0.39555 0.11933,-0.6922 0.35911,-0.88996c0.23978,-0.19776 0.55205,-0.29665 0.9368,-0.29665zM245.87874,176.21374c0.33345,0 0.59331,0.31226 0.78067,0.9368c0.1974,0.62454 0.29665,1.61858 0.29665,2.98216c0,1.67584 -0.11933,2.88325 -0.35911,3.62232c-0.23978,0.73907 -0.60335,1.10856 -1.09294,1.10856c-0.37472,0 -0.65019,-0.27067 -0.82751,-0.81189c-0.17733,-0.55171 -0.26542,-1.50926 -0.26542,-2.87287c0,-1.67584 0.13495,-2.91971 0.40595,-3.7316c0.28104,-0.8223 0.63458,-1.23346 1.06171,-1.23346zM251.56425,175.9327h-0.17175c-0.09368,-0.45799 -0.14052,-0.90037 -0.14052,-1.32714c0,-0.75985 0.19852,-1.35837 0.59331,-1.79554c0.40595,-0.43717 1.08848,-0.65577 2.04536,-0.65577c0.58327,0 0.99926,0.09368 1.24907,0.28104c0.26096,0.17696 0.39033,0.44758 0.39033,0.81189c0,0.66617 -0.37918,1.03049 -1.13978,1.09294c-0.38476,0.04164 -0.68699,0.1145 -0.90558,0.21859c-0.20744,0.10408 -0.36357,0.27064 -0.4684,0.49963c-0.09368,0.21859 -0.15614,0.53086 -0.18736,0.9368l-0.28104,-0.03123c0.26096,-0.09368 0.55762,-0.16654 0.88996,-0.21859c0.33345,-0.05205 0.66134,-0.07807 0.98365,-0.07807c0.44833,0 0.80743,0.08327 1.07733,0.24981c0.28104,0.16654 0.42156,0.44758 0.42156,0.84312c0,0.38513 -0.14498,0.67659 -0.43717,0.87435c-0.29107,0.19776 -0.65019,0.29665 -1.07733,0.29665c-0.25985,0 -0.53532,-0.02082 -0.82751,-0.06245c-0.28104,-0.04164 -0.56208,-0.09889 -0.84312,-0.17175l0.07807,-0.23421c0.10484,0.53086 0.19294,1.11376 0.26542,1.7487c0.07361,0.62454 0.13049,1.25428 0.17175,1.88922c0.04238,0.62454 0.06245,1.21264 0.06245,1.76431c0,0.35387 -0.04684,0.68699 -0.14052,0.99926c-0.09368,0.3019 -0.23867,0.54647 -0.43717,0.73384c-0.18736,0.17699 -0.42602,0.26542 -0.71822,0.26542c-0.43717,0 -0.74944,-0.17175 -0.9368,-0.51524c-0.18736,-0.35387 -0.28104,-0.79104 -0.28104,-1.31152c0,-0.49963 0.02119,-1.06171 0.06245,-1.68625c0.05242,-0.63494 0.12491,-1.28551 0.21859,-1.95168c0.10484,-0.67659 0.22417,-1.32714 0.35911,-1.95168l0.18736,0.14052c-0.53086,0.22899 -1.2067,0.34349 -2.02975,0.34349c-0.43717,0 -0.77509,-0.08327 -1.01487,-0.24981c-0.23867,-0.16654 -0.35911,-0.42156 -0.35911,-0.76505c0,-0.37472 0.1461,-0.66097 0.43717,-0.85874c0.29219,-0.20818 0.68253,-0.31226 1.17101,-0.31226c0.33345,0 0.64573,0.02082 0.9368,0.06245c0.30223,0.03123 0.56766,0.07285 0.79628,0.12491zM264.01149,184.86358c-0.35353,0 -0.59889,-0.13528 -0.73384,-0.40595c-0.12491,-0.28104 -0.1974,-0.72346 -0.21859,-1.32714l0.15614,0.07807c-0.58327,1.13454 -1.68625,1.70187 -3.31004,1.70187c-0.7394,0 -1.35279,-0.13015 -1.84238,-0.39033c-0.48959,-0.27067 -0.85316,-0.62454 -1.09294,-1.06171c-0.22863,-0.44754 -0.34349,-0.93157 -0.34349,-1.45205c0,-0.89518 0.31226,-1.60297 0.9368,-2.12343c0.62454,-0.53086 1.45205,-0.79628 2.48253,-0.79628c0.67696,0 1.26468,0.09889 1.76431,0.29665c0.49963,0.19776 0.92677,0.47361 1.2803,0.82751l-0.26542,-0.03123c-0.07249,-1.05131 -0.30223,-1.80075 -0.68699,-2.24833c-0.37472,-0.45799 -0.91115,-0.68699 -1.60819,-0.68699c-0.40595,0 -0.78067,0.06245 -1.12417,0.18736c-0.34349,0.12491 -0.66134,0.25502 -0.95242,0.39033c-0.28104,0.12491 -0.54647,0.18736 -0.79628,0.18736c-0.24981,0 -0.44721,-0.08327 -0.59331,-0.24981c-0.13495,-0.16654 -0.20298,-0.37993 -0.20298,-0.64015c0,-0.37472 0.17733,-0.72862 0.53086,-1.06171c0.36468,-0.33309 0.84312,-0.60371 1.43643,-0.81189c0.59331,-0.20818 1.23903,-0.31226 1.93606,-0.31226c0.84312,0 1.56692,0.20298 2.17027,0.60893c0.60335,0.40595 1.06171,0.99926 1.37398,1.77993c0.271,0.66617 0.46283,1.41041 0.5777,2.23271c0.11487,0.8223 0.17175,1.70187 0.17175,2.63867c0,0.70784 -0.0368,1.25431 -0.1093,1.63941c-0.07249,0.3851 -0.18736,0.65577 -0.34349,0.81189c-0.1461,0.14576 -0.34349,0.21859 -0.59331,0.21859zM260.56093,183.11487c0.34349,0 0.69257,-0.04684 1.0461,-0.14052c0.35353,-0.10405 0.65019,-0.25506 0.88996,-0.45279c0.23978,-0.19776 0.35911,-0.44238 0.35911,-0.73384c0,-0.24981 -0.10372,-0.45279 -0.31226,-0.60893c-0.1974,-0.16654 -0.46283,-0.29145 -0.79628,-0.37472c-0.3223,-0.08327 -0.67138,-0.12491 -1.0461,-0.12491c-0.63458,0 -1.11859,0.1093 -1.45205,0.32788c-0.3223,0.21859 -0.48402,0.51004 -0.48402,0.87435c0,0.39555 0.15056,0.70261 0.45279,0.92119c0.31226,0.20821 0.75948,0.31226 1.34275,0.31226zM269.12823,175.30816h-0.31226c-0.03123,-0.45799 -0.02119,-0.88996 0.03123,-1.29591c0.05242,-0.41636 0.16171,-0.74944 0.32788,-0.99926c0.17733,-0.26022 0.42714,-0.39033 0.74944,-0.39033c0.29107,0 0.50521,0.09368 0.64015,0.28104c0.13495,0.18736 0.20298,0.44758 0.20298,0.78067c0,0.65577 -0.12491,1.21785 -0.37472,1.68625l-0.28104,-0.03123c0.56208,-0.19776 1.19666,-0.29665 1.90484,-0.29665c0.44721,0 0.80186,0.08847 1.06171,0.26542c0.271,0.16654 0.40595,0.45279 0.40595,0.85874c0,0.38513 -0.15614,0.67659 -0.4684,0.87435c-0.31226,0.19776 -0.70261,0.29665 -1.17101,0.29665c-0.28104,0 -0.58327,-0.01041 -0.90558,-0.03123c-0.31226,-0.03123 -0.61896,-0.07807 -0.92119,-0.14052l0.26542,-0.32788c0.09368,0.39555 0.18179,0.84834 0.26542,1.35837c0.09368,0.49963 0.17733,1.02008 0.24981,1.56134c0.07249,0.54127 0.13049,1.06692 0.17175,1.57696c0.04126,0.51004 0.06245,0.96803 0.06245,1.37398c0,0.66613 -0.10372,1.19186 -0.31226,1.57696c-0.20856,0.3851 -0.51524,0.5777 -0.92119,0.5777c-0.3223,0 -0.5777,-0.09892 -0.76505,-0.29665c-0.17733,-0.19773 -0.30669,-0.44754 -0.39033,-0.74944c-0.07249,-0.31226 -0.11933,-0.63491 -0.14052,-0.96803c-0.01004,-0.33312 -0.01561,-0.63494 -0.01561,-0.90558c0,-0.45799 0.02119,-0.97324 0.06245,-1.54573c0.04126,-0.5829 0.09926,-1.18141 0.17175,-1.79554c0.08365,-0.61413 0.17733,-1.20744 0.28104,-1.77993l0.31226,0.26542c-0.53086,0.27064 -1.18662,0.40595 -1.96729,0.40595c-0.47844,0 -0.8487,-0.08847 -1.10856,-0.26542c-0.25985,-0.17696 -0.39033,-0.45279 -0.39033,-0.82751c0,-0.40595 0.1461,-0.71822 0.43717,-0.9368c0.29107,-0.22899 0.68142,-0.34349 1.17101,-0.34349c0.3223,0 0.62454,0.02082 0.90558,0.06245c0.29107,0.03123 0.54647,0.07285 0.76505,0.12491zM280.92418,184.78551c-0.64573,0 -1.18105,-0.11966 -1.60819,-0.35911c-0.41598,-0.24981 -0.72826,-0.62978 -0.9368,-1.13978c-0.1461,-0.35387 -0.25539,-0.78067 -0.32788,-1.2803c-0.06245,-0.51004 -0.09368,-1.09294 -0.09368,-1.7487c0,-1.12417 0.0368,-2.05056 0.1093,-2.77919c0.07249,-0.73904 0.17733,-1.33235 0.31226,-1.77993c0.1461,-0.45799 0.30669,-0.82751 0.48402,-1.10856c0.28104,-0.42677 0.72826,-0.77027 1.34275,-1.03049c0.6145,-0.26022 1.48328,-0.39033 2.60744,-0.39033c0.74944,0 1.34833,0.1145 1.79554,0.34349c0.45836,0.21859 0.78624,0.51004 0.98365,0.87435c0.20856,0.36432 0.31226,0.77027 0.31226,1.21785c0,0.70781 -0.20856,1.29071 -0.62454,1.7487c-0.41598,0.45799 -0.96246,0.8223 -1.63941,1.09294v0.06245c0.7394,0.08327 1.31152,0.32267 1.71748,0.71822c0.41598,0.38513 0.62454,0.9368 0.62454,1.65503c0,0.57248 -0.1461,1.09815 -0.43717,1.57696c-0.28104,0.4684 -0.6658,0.8796 -1.1554,1.23346c-0.47844,0.34349 -1.02045,0.61416 -1.6238,0.81189c-0.60335,0.18736 -1.21785,0.28104 -1.84238,0.28104zM281.40819,182.9119c0.49963,0 0.94238,-0.0833 1.32714,-0.24981c0.39591,-0.16651 0.70261,-0.39033 0.92119,-0.67138c0.22863,-0.29145 0.34349,-0.61932 0.34349,-0.98365c0,-0.39555 -0.19294,-0.72343 -0.5777,-0.98365c-0.37472,-0.27064 -0.96246,-0.40595 -1.76431,-0.40595c-0.54089,0 -0.97361,0.13011 -1.29591,0.39033c-0.31226,0.24981 -0.4684,0.68178 -0.4684,1.29591c0,0.5829 0.12491,0.99926 0.37472,1.24907c0.24981,0.23944 0.63012,0.35911 1.13978,0.35911zM281.47064,177.96245c0.70818,0 1.29591,-0.15614 1.76431,-0.4684c0.47844,-0.32267 0.71822,-0.73904 0.71822,-1.24907c0,-0.37472 -0.15056,-0.67659 -0.45279,-0.90558c-0.30223,-0.22899 -0.74386,-0.34349 -1.32714,-0.34349c-0.63458,0 -1.1554,0.12491 -1.56134,0.37472c-0.40595,0.24981 -0.60893,0.67659 -0.60893,1.2803c0,0.48922 0.13049,0.83272 0.39033,1.03049c0.271,0.18736 0.63012,0.28104 1.07733,0.28104zM294.53685,184.86358c-0.35353,0 -0.59777,-0.13528 -0.73384,-0.40595c-0.12491,-0.28104 -0.1974,-0.72346 -0.21859,-1.32714l0.15614,0.07807c-0.58216,1.13454 -1.68625,1.70187 -3.31004,1.70187c-0.7383,0 -1.35279,-0.13015 -1.84238,-0.39033c-0.48848,-0.27067 -0.85316,-0.62454 -1.09294,-1.06171c-0.22863,-0.44754 -0.34349,-0.93157 -0.34349,-1.45205c0,-0.89518 0.31226,-1.60297 0.9368,-2.12343c0.62454,-0.53086 1.45205,-0.79628 2.48253,-0.79628c0.67696,0 1.26468,0.09889 1.76431,0.29665c0.49963,0.19776 0.92677,0.47361 1.2803,0.82751l-0.26542,-0.03123c-0.07249,-1.05131 -0.30111,-1.80075 -0.68699,-2.24833c-0.37472,-0.45799 -0.91004,-0.68699 -1.60819,-0.68699c-0.40595,0 -0.78067,0.06245 -1.12417,0.18736c-0.34349,0.12491 -0.66023,0.25502 -0.95242,0.39033c-0.28104,0.12491 -0.54647,0.18736 -0.79628,0.18736c-0.24981,0 -0.44721,-0.08327 -0.59331,-0.24981c-0.13495,-0.16654 -0.20298,-0.37993 -0.20298,-0.64015c0,-0.37472 0.17733,-0.72862 0.53086,-1.06171c0.36468,-0.33309 0.84312,-0.60371 1.43643,-0.81189c0.59331,-0.20818 1.23903,-0.31226 1.93606,-0.31226c0.84312,0 1.56692,0.20298 2.17027,0.60893c0.60446,0.40595 1.06171,0.99926 1.37398,1.77993c0.271,0.66617 0.46394,1.41041 0.5777,2.23271c0.11487,0.8223 0.17175,1.70187 0.17175,2.63867c0,0.70784 -0.03569,1.25431 -0.1093,1.63941c-0.07249,0.3851 -0.18736,0.65577 -0.34349,0.81189c-0.14498,0.14576 -0.34349,0.21859 -0.59331,0.21859zM291.08628,183.11487c0.34349,0 0.69257,-0.04684 1.0461,-0.14052c0.35464,-0.10405 0.65131,-0.25506 0.88996,-0.45279c0.23978,-0.19776 0.35911,-0.44238 0.35911,-0.73384c0,-0.24981 -0.10372,-0.45279 -0.31226,-0.60893c-0.1974,-0.16654 -0.46283,-0.29145 -0.79628,-0.37472c-0.3223,-0.08327 -0.67138,-0.12491 -1.0461,-0.12491c-0.63458,0 -1.11859,0.1093 -1.45205,0.32788c-0.3223,0.21859 -0.48402,0.51004 -0.48402,0.87435c0,0.39555 0.15168,0.70261 0.45279,0.92119c0.31226,0.20821 0.76059,0.31226 1.34275,0.31226zM299.08035,174.9959c0.33345,0 0.55651,0.13531 0.67138,0.40595c0.12491,0.27064 0.18736,0.67138 0.18736,1.20224c0,0.12491 -0.01004,0.26022 -0.03123,0.40595c-0.01004,0.13531 -0.03123,0.26022 -0.06245,0.37472l-0.03123,-0.31226c0.24981,-0.67659 0.63458,-1.20224 1.1554,-1.57696c0.52082,-0.38513 1.07175,-0.5777 1.65503,-0.5777c0.64573,0 1.18105,0.18215 1.60819,0.54647c0.43717,0.36432 0.75948,0.87435 0.96803,1.53012c0.21859,0.65577 0.32788,1.43123 0.32788,2.3264c0,0.55168 -0.02565,1.09815 -0.07807,1.63941c-0.04126,0.53086 -0.10372,1.02008 -0.18736,1.46766c-0.07249,0.43717 -0.15614,0.79628 -0.24981,1.07733c-0.12491,0.35387 -0.28661,0.61929 -0.48402,0.79628c-0.1974,0.16651 -0.4316,0.24981 -0.70261,0.24981c-0.271,0 -0.47844,-0.09892 -0.62454,-0.29665c-0.1461,-0.19773 -0.21859,-0.46316 -0.21859,-0.79628c0,-0.35387 0.02565,-0.78067 0.07807,-1.2803c0.05242,-0.51004 0.09926,-1.02528 0.14052,-1.54573c0.05242,-0.53086 0.07807,-1.00967 0.07807,-1.43643c0,-1.45725 -0.47844,-2.18588 -1.43643,-2.18588c-0.50967,0 -0.9368,0.22899 -1.2803,0.68699c-0.34349,0.44758 -0.57212,1.08773 -0.68699,1.92045c-0.03123,0.28104 -0.04684,0.62974 -0.04684,1.0461c0,0.41636 0,0.83272 0,1.24907c0.01004,0.40595 0,0.74944 -0.03123,1.03049c-0.04126,0.62454 -0.16171,1.07208 -0.35911,1.34275c-0.18736,0.27067 -0.44721,0.40595 -0.78067,0.40595c-0.38476,0 -0.67696,-0.17699 -0.87435,-0.53086c-0.1974,-0.36435 -0.29665,-0.97328 -0.29665,-1.82677c0,-0.43717 0.01004,-0.9264 0.03123,-1.46766c0.02119,-0.54127 0.04684,-1.08253 0.07807,-1.6238c0.04126,-0.55168 0.08811,-1.05131 0.14052,-1.49889c0.10372,-0.84312 0.25539,-1.5093 0.45279,-1.99852c0.1974,-0.49963 0.49405,-0.74944 0.88996,-0.74944zM310.41124,184.45763c-0.97807,0 -1.77435,-0.37472 -2.38885,-1.12417c-0.6145,-0.75982 -0.92119,-1.91004 -0.92119,-3.45057c0,-1.64462 0.29665,-2.84686 0.88996,-3.6067c0.59331,-0.75985 1.37398,-1.13978 2.34201,-1.13978c0.57212,0 1.07733,0.14573 1.5145,0.43717c0.43717,0.29145 0.81189,0.70261 1.12417,1.23346l-0.12491,0.21859c-0.03123,-0.14573 -0.05688,-0.30187 -0.07807,-0.4684c-0.02119,-0.16654 -0.03123,-0.29145 -0.03123,-0.37472c0,-0.42677 0.06803,-0.75465 0.20298,-0.98365c0.1461,-0.23941 0.36914,-0.35911 0.67138,-0.35911c0.33345,0 0.59331,0.13531 0.78067,0.40595c0.1974,0.27064 0.34907,0.65577 0.45279,1.1554c0.13495,0.51004 0.24981,1.1606 0.34349,1.95168c0.09368,0.78067 0.14052,1.57174 0.14052,2.37324c0,0.99926 -0.0368,1.83715 -0.1093,2.51376c-0.07249,0.67662 -0.19294,1.2387 -0.35911,1.68625c-0.16617,0.44754 -0.38476,0.83789 -0.65577,1.17101c-0.44721,0.54122 -1.02491,0.95242 -1.73308,1.23346c-0.69703,0.29142 -1.50447,0.43717 -2.42008,0.43717c-0.65577,0 -1.18105,-0.06245 -1.57696,-0.18736c-0.39591,-0.11453 -0.68142,-0.2758 -0.85874,-0.48402c-0.16617,-0.19773 -0.24981,-0.42156 -0.24981,-0.67138c0,-0.26019 0.07249,-0.47877 0.21859,-0.65577c0.1461,-0.16651 0.36468,-0.24981 0.65577,-0.24981c0.25985,0 0.56208,0.0416 0.90558,0.12491c0.35353,0.0833 0.77063,0.12491 1.24907,0.12491c1.0093,0 1.72306,-0.23944 2.13904,-0.71822c0.42714,-0.4684 0.64015,-1.14502 0.64015,-2.02975c0,-0.23944 -0.01561,-0.52049 -0.04684,-0.84312l0.21859,0.07807c-0.25985,0.66613 -0.64573,1.20224 -1.1554,1.60819c-0.50967,0.39558 -1.10298,0.59331 -1.77993,0.59331zM311.00454,182.53718c0.33345,0 0.6658,-0.08847 0.99926,-0.26542c0.33345,-0.17696 0.60893,-0.4684 0.82751,-0.87435c0.21859,-0.40595 0.32788,-0.95242 0.32788,-1.63941c0,-0.8223 -0.19294,-1.49368 -0.5777,-2.01413c-0.38476,-0.52045 -0.92677,-0.78067 -1.6238,-0.78067c-0.60335,0 -1.0461,0.22899 -1.32714,0.68699c-0.28104,0.45799 -0.42156,1.15018 -0.42156,2.07659c0,0.88476 0.14052,1.57696 0.42156,2.07659c0.28104,0.48922 0.7394,0.73384 1.37398,0.73384zM324.25923,184.61376c-0.28104,0 -0.49963,-0.09368 -0.65577,-0.28104c-0.1461,-0.19773 -0.24424,-0.44754 -0.29665,-0.74944c-0.05242,-0.31226 -0.07807,-0.64015 -0.07807,-0.98365l0.07807,-0.06245c-0.10372,0.44754 -0.30669,0.83275 -0.60893,1.1554c-0.30223,0.32264 -0.65019,0.57245 -1.0461,0.74944c-0.39591,0.16651 -0.7907,0.24981 -1.18662,0.24981c-0.53086,0 -1.01487,-0.12491 -1.45205,-0.37472c-0.43717,-0.24981 -0.77509,-0.63491 -1.01487,-1.1554c-0.23978,-0.55171 -0.42714,-1.24386 -0.56208,-2.07659c-0.13495,-0.84312 -0.20298,-1.70707 -0.20298,-2.59183c0,-0.47881 0.02119,-0.92119 0.06245,-1.32714c0.04126,-0.40595 0.1093,-0.73904 0.20298,-0.99926c0.08365,-0.27064 0.20856,-0.4684 0.37472,-0.59331c0.16617,-0.13531 0.3803,-0.20298 0.64015,-0.20298c0.30223,0 0.53643,0.1197 0.70261,0.35911c0.17733,0.22899 0.28661,0.55168 0.32788,0.96803c0.04126,0.34349 0.06803,0.77027 0.07807,1.2803c0.02119,0.49963 0.0368,1.00446 0.04684,1.5145c0.02119,0.49963 0.04684,0.92119 0.07807,1.26468c0.06245,0.62454 0.22417,1.08773 0.48402,1.38959c0.25985,0.29145 0.5777,0.43717 0.95242,0.43717c0.55205,0 0.97361,-0.20818 1.26468,-0.62454c0.29107,-0.41636 0.43717,-0.99926 0.43717,-1.7487c0,-0.37472 -0.02119,-0.79628 -0.06245,-1.26468c-0.04126,-0.47881 -0.08811,-0.94201 -0.14052,-1.38959c-0.04126,-0.44758 -0.06245,-0.81711 -0.06245,-1.10856c0,-0.48922 0.08365,-0.83792 0.24981,-1.0461c0.16617,-0.21859 0.39591,-0.32788 0.68699,-0.32788c0.24981,0 0.45836,0.06766 0.62454,0.20298c0.17733,0.13531 0.31784,0.32267 0.42156,0.56208c0.1461,0.31226 0.271,0.73904 0.37472,1.2803c0.10372,0.54127 0.18736,1.1554 0.24981,1.84238c0.06245,0.68699 0.09368,1.41041 0.09368,2.17027c0,1.1658 -0.07807,2.04011 -0.23421,2.62306c-0.15614,0.57245 -0.4316,0.85874 -0.82751,0.85874zM328.81276,174.9959c0.33345,0 0.55651,0.13531 0.67138,0.40595c0.12491,0.27064 0.18736,0.67138 0.18736,1.20224c0,0.12491 -0.01004,0.26022 -0.03123,0.40595c-0.01004,0.13531 -0.03123,0.26022 -0.06245,0.37472l-0.03123,-0.31226c0.24981,-0.67659 0.63458,-1.20224 1.1554,-1.57696c0.52082,-0.38513 1.07175,-0.5777 1.65503,-0.5777c0.64573,0 1.18105,0.18215 1.60819,0.54647c0.43717,0.36432 0.75948,0.87435 0.96803,1.53012c0.21859,0.65577 0.32788,1.43123 0.32788,2.3264c0,0.55168 -0.02565,1.09815 -0.07807,1.63941c-0.04126,0.53086 -0.10372,1.02008 -0.18736,1.46766c-0.07249,0.43717 -0.15614,0.79628 -0.24981,1.07733c-0.12491,0.35387 -0.28661,0.61929 -0.48402,0.79628c-0.1974,0.16651 -0.4316,0.24981 -0.70261,0.24981c-0.271,0 -0.47844,-0.09892 -0.62454,-0.29665c-0.1461,-0.19773 -0.21859,-0.46316 -0.21859,-0.79628c0,-0.35387 0.02565,-0.78067 0.07807,-1.2803c0.05242,-0.51004 0.09926,-1.02528 0.14052,-1.54573c0.05242,-0.53086 0.07807,-1.00967 0.07807,-1.43643c0,-1.45725 -0.47844,-2.18588 -1.43643,-2.18588c-0.50967,0 -0.9368,0.22899 -1.2803,0.68699c-0.34349,0.44758 -0.57212,1.08773 -0.68699,1.92045c-0.03123,0.28104 -0.04684,0.62974 -0.04684,1.0461c0,0.41636 0,0.83272 0,1.24907c0.01004,0.40595 0,0.74944 -0.03123,1.03049c-0.04126,0.62454 -0.16171,1.07208 -0.35911,1.34275c-0.18736,0.27067 -0.44721,0.40595 -0.78067,0.40595c-0.38476,0 -0.67696,-0.17699 -0.87435,-0.53086c-0.1974,-0.36435 -0.29665,-0.97328 -0.29665,-1.82677c0,-0.43717 0.01004,-0.9264 0.03123,-1.46766c0.02119,-0.54127 0.04684,-1.08253 0.07807,-1.6238c0.04126,-0.55168 0.08811,-1.05131 0.14052,-1.49889c0.10372,-0.84312 0.25539,-1.5093 0.45279,-1.99852c0.1974,-0.49963 0.49405,-0.74944 0.88996,-0.74944zM342.4734,185.06655c-0.65577,0 -1.16543,-0.0416 -1.53012,-0.12491c-0.35353,-0.0833 -0.59889,-0.19773 -0.73384,-0.34349c-0.13495,-0.15614 -0.20856,-0.32788 -0.21859,-0.51524c0,-0.29142 0.17175,-0.5361 0.51524,-0.73384c0.35353,-0.19773 0.99926,-0.32264 1.93606,-0.37472l-0.24981,0.29665c-0.11487,-0.53086 -0.1974,-1.15018 -0.24981,-1.85799c-0.05242,-0.70781 -0.07249,-1.44164 -0.06245,-2.2015c0.01004,-0.75985 0.04684,-1.48328 0.1093,-2.17027c0.06245,-0.69739 0.15056,-1.29071 0.26542,-1.77993l1.35837,-0.09368c-0.22863,0.09368 -0.51524,0.17696 -0.85874,0.24981c-0.34349,0.06245 -0.69703,0.09368 -1.06171,0.09368c-0.6658,0 -1.16097,-0.07285 -1.48328,-0.21859c-0.31226,-0.14573 -0.4684,-0.34871 -0.4684,-0.60893c0,-0.45799 0.27546,-0.81189 0.82751,-1.06171c0.56208,-0.26022 1.42082,-0.39033 2.57622,-0.39033c1.37398,0 2.52938,0.22899 3.46618,0.68699c0.94684,0.44758 1.66506,1.07733 2.15466,1.88922c0.48959,0.8015 0.73384,1.7383 0.73384,2.81041c0,0.9368 -0.16617,1.80075 -0.49963,2.59183c-0.33345,0.78067 -0.81189,1.46242 -1.43643,2.04536c-0.6145,0.57245 -1.35279,1.02012 -2.2171,1.34275c-0.85316,0.31226 -1.81115,0.4684 -2.87287,0.4684zM344.6905,182.66208c0.35353,0 0.72826,-0.14052 1.12417,-0.42156c0.40595,-0.29145 0.74944,-0.71301 1.03049,-1.26468c0.28104,-0.56208 0.42156,-1.25428 0.42156,-2.07659c0,-0.60371 -0.08811,-1.12937 -0.26542,-1.57696c-0.16617,-0.45799 -0.38476,-0.83792 -0.65577,-1.13978c-0.271,-0.30187 -0.55651,-0.52565 -0.85874,-0.67138c-0.30223,-0.15614 -0.58774,-0.23421 -0.85874,-0.23421c-0.21859,0 -0.39033,0.13531 -0.51524,0.40595c-0.11487,0.27064 -0.1974,0.67659 -0.24981,1.21785c-0.05242,0.53086 -0.07807,1.19183 -0.07807,1.9829c0,1.22825 0.06245,2.16505 0.18736,2.81041c0.12491,0.64536 0.36468,0.96803 0.71822,0.96803zM358.04332,184.86358c-0.35464,0 -0.59889,-0.13528 -0.73384,-0.40595c-0.12491,-0.28104 -0.19852,-0.72346 -0.21859,-1.32714l0.15614,0.07807c-0.58327,1.13454 -1.68625,1.70187 -3.31004,1.70187c-0.7394,0 -1.3539,-0.13015 -1.84238,-0.39033c-0.48959,-0.27067 -0.85427,-0.62454 -1.09294,-1.06171c-0.22975,-0.44754 -0.34349,-0.93157 -0.34349,-1.45205c0,-0.89518 0.31226,-1.60297 0.9368,-2.12343c0.62454,-0.53086 1.45205,-0.79628 2.48253,-0.79628c0.67584,0 1.26468,0.09889 1.76431,0.29665c0.49963,0.19776 0.92565,0.47361 1.2803,0.82751l-0.26542,-0.03123c-0.07361,-1.05131 -0.30223,-1.80075 -0.68699,-2.24833c-0.37472,-0.45799 -0.91115,-0.68699 -1.60819,-0.68699c-0.40595,0 -0.78067,0.06245 -1.12417,0.18736c-0.34349,0.12491 -0.66134,0.25502 -0.95242,0.39033c-0.28104,0.12491 -0.54647,0.18736 -0.79628,0.18736c-0.24981,0 -0.44833,-0.08327 -0.59331,-0.24981c-0.13606,-0.16654 -0.20298,-0.37993 -0.20298,-0.64015c0,-0.37472 0.17621,-0.72862 0.53086,-1.06171c0.36357,-0.33309 0.84312,-0.60371 1.43643,-0.81189c0.59331,-0.20818 1.23792,-0.31226 1.93606,-0.31226c0.84312,0 1.5658,0.20298 2.17027,0.60893c0.60335,0.40595 1.06171,0.99926 1.37398,1.77993c0.26988,0.66617 0.46283,1.41041 0.5777,2.23271c0.11376,0.8223 0.17175,1.70187 0.17175,2.63867c0,0.70784 -0.0368,1.25431 -0.1093,1.63941c-0.07361,0.3851 -0.18736,0.65577 -0.34349,0.81189c-0.1461,0.14576 -0.34349,0.21859 -0.59331,0.21859zM354.59275,183.11487c0.34349,0 0.69146,-0.04684 1.0461,-0.14052c0.35353,-0.10405 0.65019,-0.25506 0.88996,-0.45279c0.23867,-0.19776 0.35911,-0.44238 0.35911,-0.73384c0,-0.24981 -0.10484,-0.45279 -0.31226,-0.60893c-0.19852,-0.16654 -0.46394,-0.29145 -0.79628,-0.37472c-0.32342,-0.08327 -0.67138,-0.12491 -1.0461,-0.12491c-0.63569,0 -1.11971,0.1093 -1.45205,0.32788c-0.32342,0.21859 -0.48402,0.51004 -0.48402,0.87435c0,0.39555 0.15056,0.70261 0.45279,0.92119c0.31226,0.20821 0.75948,0.31226 1.34275,0.31226zM363.15895,175.30816h-0.31226c-0.03123,-0.45799 -0.02007,-0.88996 0.03123,-1.29591c0.05242,-0.41636 0.16171,-0.74944 0.32788,-0.99926c0.17733,-0.26022 0.42714,-0.39033 0.74944,-0.39033c0.29219,0 0.50521,0.09368 0.64015,0.28104c0.13606,0.18736 0.20298,0.44758 0.20298,0.78067c0,0.65577 -0.12491,1.21785 -0.37472,1.68625l-0.28104,-0.03123c0.56208,-0.19776 1.19778,-0.29665 1.90484,-0.29665c0.44833,0 0.80186,0.08847 1.06171,0.26542c0.271,0.16654 0.40595,0.45279 0.40595,0.85874c0,0.38513 -0.15614,0.67659 -0.4684,0.87435c-0.31226,0.19776 -0.70261,0.29665 -1.17101,0.29665c-0.28104,0 -0.58216,-0.01041 -0.90558,-0.03123c-0.31226,-0.03123 -0.61896,-0.07807 -0.92119,-0.14052l0.26542,-0.32788c0.09368,0.39555 0.1829,0.84834 0.26542,1.35837c0.09368,0.49963 0.17733,1.02008 0.24981,1.56134c0.07361,0.54127 0.13049,1.06692 0.17175,1.57696c0.04238,0.51004 0.06245,0.96803 0.06245,1.37398c0,0.66613 -0.10372,1.19186 -0.31226,1.57696c-0.20744,0.3851 -0.51524,0.5777 -0.92119,0.5777c-0.3223,0 -0.5777,-0.09892 -0.76505,-0.29665c-0.17621,-0.19773 -0.30669,-0.44754 -0.39033,-0.74944c-0.07249,-0.31226 -0.11933,-0.63491 -0.14052,-0.96803c-0.01004,-0.33312 -0.01561,-0.63494 -0.01561,-0.90558c0,-0.45799 0.02119,-0.97324 0.06245,-1.54573c0.04238,-0.5829 0.09926,-1.18141 0.17175,-1.79554c0.08365,-0.61413 0.17733,-1.20744 0.28104,-1.77993l0.31226,0.26542c-0.53086,0.27064 -1.18662,0.40595 -1.96729,0.40595c-0.47844,0 -0.84758,-0.08847 -1.10856,-0.26542c-0.25985,-0.17696 -0.39033,-0.45279 -0.39033,-0.82751c0,-0.40595 0.1461,-0.71822 0.43717,-0.9368c0.29219,-0.22899 0.68253,-0.34349 1.17101,-0.34349c0.32342,0 0.62454,0.02082 0.90558,0.06245c0.29219,0.03123 0.54647,0.07285 0.76505,0.12491zM375.60842,184.86358c-0.35464,0 -0.59889,-0.13528 -0.73384,-0.40595c-0.12491,-0.28104 -0.19852,-0.72346 -0.21859,-1.32714l0.15614,0.07807c-0.58327,1.13454 -1.68625,1.70187 -3.31004,1.70187c-0.7394,0 -1.3539,-0.13015 -1.84238,-0.39033c-0.48959,-0.27067 -0.85427,-0.62454 -1.09294,-1.06171c-0.22975,-0.44754 -0.34349,-0.93157 -0.34349,-1.45205c0,-0.89518 0.31226,-1.60297 0.9368,-2.12343c0.62454,-0.53086 1.45205,-0.79628 2.48253,-0.79628c0.67584,0 1.26468,0.09889 1.76431,0.29665c0.49963,0.19776 0.92565,0.47361 1.2803,0.82751l-0.26542,-0.03123c-0.07361,-1.05131 -0.30223,-1.80075 -0.68699,-2.24833c-0.37472,-0.45799 -0.91115,-0.68699 -1.60819,-0.68699c-0.40595,0 -0.78067,0.06245 -1.12417,0.18736c-0.34349,0.12491 -0.66134,0.25502 -0.95242,0.39033c-0.28104,0.12491 -0.54647,0.18736 -0.79628,0.18736c-0.24981,0 -0.44833,-0.08327 -0.59331,-0.24981c-0.13606,-0.16654 -0.20298,-0.37993 -0.20298,-0.64015c0,-0.37472 0.17621,-0.72862 0.53086,-1.06171c0.36357,-0.33309 0.84312,-0.60371 1.43643,-0.81189c0.59331,-0.20818 1.23792,-0.31226 1.93606,-0.31226c0.84312,0 1.5658,0.20298 2.17027,0.60893c0.60335,0.40595 1.06171,0.99926 1.37398,1.77993c0.26988,0.66617 0.46283,1.41041 0.5777,2.23271c0.11376,0.8223 0.17175,1.70187 0.17175,2.63867c0,0.70784 -0.0368,1.25431 -0.1093,1.63941c-0.07361,0.3851 -0.18736,0.65577 -0.34349,0.81189c-0.1461,0.14576 -0.34349,0.21859 -0.59331,0.21859zM372.15785,183.11487c0.34349,0 0.69146,-0.04684 1.0461,-0.14052c0.35353,-0.10405 0.65019,-0.25506 0.88996,-0.45279c0.23867,-0.19776 0.35911,-0.44238 0.35911,-0.73384c0,-0.24981 -0.10484,-0.45279 -0.31226,-0.60893c-0.19852,-0.16654 -0.46394,-0.29145 -0.79628,-0.37472c-0.32342,-0.08327 -0.67138,-0.12491 -1.0461,-0.12491c-0.63569,0 -1.11971,0.1093 -1.45205,0.32788c-0.32342,0.21859 -0.48402,0.51004 -0.48402,0.87435c0,0.39555 0.15056,0.70261 0.45279,0.92119c0.31226,0.20821 0.75948,0.31226 1.34275,0.31226zM378.55824,177.6658c0,-0.99926 0.09368,-1.71748 0.28104,-2.15466c0.18736,-0.44758 0.45279,-0.67138 0.79628,-0.67138c0.271,0 0.48402,0.1145 0.64015,0.34349c0.15614,0.21859 0.271,0.49443 0.34349,0.82751c0.07361,0.32267 0.1093,0.65055 0.1093,0.98365l-0.07807,-0.03123c0.17733,-0.56208 0.44833,-1.0461 0.81189,-1.45205c0.37472,-0.40595 0.82305,-0.60893 1.34275,-0.60893c0.6145,0 1.06729,0.25502 1.35837,0.76505c0.29219,0.49963 0.43717,1.12417 0.43717,1.87361c0,0.99926 -0.11376,1.69665 -0.34349,2.0922c-0.22863,0.39555 -0.53532,0.59331 -0.92119,0.59331c-0.28104,0 -0.48848,-0.1145 -0.62454,-0.34349c-0.12491,-0.22899 -0.16617,-0.63494 -0.12491,-1.21785c0.04238,-0.61413 0.00558,-1.0409 -0.1093,-1.2803c-0.11376,-0.23941 -0.29665,-0.35911 -0.54647,-0.35911c-0.30111,0 -0.55093,0.19257 -0.74944,0.5777c-0.18736,0.37472 -0.28104,0.83792 -0.28104,1.38959c0,0.21859 0.02677,0.49443 0.07807,0.82751c0.05242,0.33309 0.1093,0.69739 0.17175,1.09294c0.06245,0.38513 0.12045,0.77027 0.17175,1.1554c0.05242,0.38513 0.07807,0.73907 0.07807,1.06171c0,0.57245 -0.08811,0.98365 -0.26542,1.23346c-0.17621,0.24981 -0.42602,0.37472 -0.74944,0.37472c-0.36357,0 -0.64461,-0.11453 -0.84312,-0.34349c-0.1974,-0.23944 -0.34795,-0.62454 -0.45279,-1.1554c-0.08253,-0.47877 -0.16617,-1.0461 -0.24981,-1.70187c-0.08253,-0.65577 -0.15056,-1.32714 -0.20298,-2.01413c-0.0513,-0.68699 -0.07807,-1.30632 -0.07807,-1.85799z"/></g></g></svg>