<svg version="1.1" xmlns="http://www.w3.org/2000/svg" xmlns:xlink="http://www.w3.org/1999/xlink" width="69.34359" height="8.50056" viewBox="0,0,69.34359,8.50056"><g transform="translate(-205.3282,-175.74972)"><g data-paper-data="{&quot;isPaintingLayer&quot;:true}" fill="#060606" fill-rule="nonzero" stroke="none" stroke-width="1" stroke-linecap="butt" stroke-linejoin="miter" stroke-miterlimit="10" stroke-dasharray="" stroke-dashoffset="0" style="mix-blend-mode: normal"><path d="M208.74955,177.84054c-0.33087,0.09855 -0.6371,0.176 -0.91869,0.23231c-0.28159,0.04928 -0.54559,0.07392 -0.79198,0.07392c-0.22527,0 -0.40127,-0.04575 -0.52799,-0.13728c-0.12672,-0.09152 -0.19008,-0.2288 -0.19008,-0.41183c0,-0.15488 0.0528,-0.30271 0.1584,-0.44351c0.1056,-0.14079 0.26751,-0.26751 0.48575,-0.38015c0.26048,-0.12672 0.59134,-0.23231 0.99261,-0.31679c0.40127,-0.08448 0.86942,-0.12672 1.40444,-0.12672c0.35903,0 0.6723,0.02464 0.93981,0.07392c0.26751,0.04224 0.4787,0.09504 0.63358,0.1584c0.20415,0.08448 0.34496,0.18303 0.42239,0.29567c0.08448,0.1056 0.12672,0.2288 0.12672,0.36959c0,0.176 -0.06336,0.32031 -0.19008,0.43295c-0.12672,0.11264 -0.33087,0.16895 -0.61246,0.16895c-0.16895,0 -0.34495,-0.01056 -0.52799,-0.03168c-0.176,-0.02112 -0.36255,-0.04928 -0.55966,-0.08448zM209.47817,177.27032c0.35903,0.45055 0.6371,0.97501 0.83422,1.5734c0.20415,0.59134 0.30623,1.21085 0.30623,1.85851c0,0.67582 -0.09504,1.28124 -0.28511,1.81627c-0.18303,0.52799 -0.47871,0.94688 -0.88702,1.25661c-0.40831,0.30273 -0.95037,0.45406 -1.62619,0.45406c-0.8307,0 -1.45372,-0.23231 -1.86907,-0.69694c-0.41535,-0.46463 -0.62302,-1.10171 -0.62302,-1.91131c0,-0.39423 0.04928,-0.72862 0.14784,-1.00317c0.1056,-0.27455 0.24287,-0.48223 0.41183,-0.62302c0.16895,-0.14783 0.35199,-0.22175 0.54911,-0.22175c0.18303,0 0.32031,0.05632 0.41183,0.16895c0.09855,0.1056 0.14784,0.25695 0.14784,0.45407c0,0.16191 -0.02816,0.34143 -0.08448,0.53854c-0.04928,0.19008 -0.07392,0.37663 -0.07392,0.55966c0,0.47167 0.08096,0.8166 0.24288,1.03485c0.16895,0.21119 0.43646,0.31679 0.80254,0.31679c0.48575,0 0.82717,-0.19714 1.02429,-0.59134c0.20415,-0.40127 0.30623,-0.94685 0.30623,-1.63675c0,-0.49982 -0.0528,-0.9891 -0.1584,-1.4678c-0.1056,-0.47871 -0.27455,-0.96797 -0.50686,-1.4678zM217.11237,184.04965c-0.19008,0 -0.33791,-0.06336 -0.44351,-0.19008c-0.0986,-0.13378 -0.16546,-0.30273 -0.20063,-0.50686c-0.03524,-0.21119 -0.0528,-0.43295 -0.0528,-0.66526l0.0528,-0.04224c-0.07042,0.30273 -0.20769,0.56316 -0.41183,0.78142c-0.2042,0.21826 -0.44001,0.38721 -0.7075,0.50686c-0.26756,0.11266 -0.53504,0.16895 -0.80254,0.16895c-0.35903,0 -0.68638,-0.08448 -0.98205,-0.25343c-0.29567,-0.16895 -0.52449,-0.42945 -0.68638,-0.78142c-0.16196,-0.37309 -0.28867,-0.84128 -0.38015,-1.40444c-0.09154,-0.57022 -0.13728,-1.15452 -0.13728,-1.75291c0,-0.32383 0.01406,-0.62302 0.04224,-0.89757c0.02812,-0.27455 0.07392,-0.49982 0.13728,-0.67582c0.0563,-0.18303 0.14077,-0.31679 0.25343,-0.40127c0.11259,-0.09152 0.25693,-0.13728 0.43295,-0.13728c0.20413,0 0.36253,0.08096 0.47518,0.24288c0.11965,0.15488 0.19358,0.37311 0.22175,0.6547c0.02812,0.23231 0.04574,0.52094 0.0528,0.86589c0.01406,0.33791 0.02462,0.67934 0.03168,1.02429c0.01406,0.33791 0.03168,0.62302 0.0528,0.85534c0.04224,0.42239 0.15133,0.73568 0.32735,0.93981c0.17595,0.19713 0.39071,0.29567 0.64414,0.29567c0.37309,0 0.6582,-0.14077 0.85533,-0.42239c0.19707,-0.28159 0.29567,-0.67582 0.29567,-1.18268c0,-0.25343 -0.01412,-0.53854 -0.04224,-0.85534c-0.02818,-0.32383 -0.05986,-0.6371 -0.09504,-0.93982c-0.02818,-0.30271 -0.04224,-0.55262 -0.04224,-0.74974c0,-0.33087 0.0563,-0.56671 0.16895,-0.7075c0.11259,-0.14783 0.26749,-0.22175 0.46463,-0.22175c0.16895,0 0.30973,0.04575 0.42239,0.13728c0.11965,0.09152 0.21469,0.21824 0.28511,0.38015c0.09854,0.21119 0.18301,0.49982 0.25343,0.86589c0.07035,0.36607 0.12672,0.78142 0.16895,1.24605c0.04224,0.46463 0.06336,0.95389 0.06336,1.4678c0,0.78848 -0.0528,1.37983 -0.15839,1.77403c-0.1056,0.38721 -0.29217,0.58079 -0.55966,0.58079zM223.66619,179.27666c0.07042,-0.28863 0.19364,-0.54911 0.36959,-0.78142c0.18308,-0.23231 0.40127,-0.41534 0.6547,-0.5491c0.26049,-0.14079 0.54561,-0.2112 0.85534,-0.2112c0.36609,0 0.68994,0.088 0.97149,0.26399c0.28161,0.176 0.50337,0.46463 0.66526,0.8659c0.16895,0.40127 0.25343,0.93629 0.25343,1.60507c0,0.34495 -0.01406,0.69342 -0.04224,1.04541c-0.02812,0.35199 -0.06336,0.67932 -0.1056,0.98205c-0.04224,0.30273 -0.08797,0.55616 -0.13728,0.7603c-0.07035,0.28161 -0.17952,0.49631 -0.32735,0.64414c-0.14077,0.14783 -0.32029,0.22175 -0.53855,0.22175c-0.18301,0 -0.32735,-0.08098 -0.43295,-0.24287c-0.1056,-0.16189 -0.15839,-0.3942 -0.15839,-0.69694c0,-0.14077 0.01762,-0.32029 0.0528,-0.53855c0.03524,-0.22525 0.07392,-0.46813 0.11616,-0.72862c0.04224,-0.26751 0.08098,-0.53854 0.11615,-0.81309c0.03524,-0.27455 0.0528,-0.53503 0.0528,-0.78142c0,-0.36607 -0.07392,-0.64766 -0.22175,-0.84478c-0.14783,-0.20415 -0.35547,-0.30623 -0.62302,-0.30623c-0.29567,0 -0.54204,0.15488 -0.73918,0.46463c-0.19008,0.30271 -0.30267,0.74622 -0.33791,1.33052c-0.02812,0.52094 -0.0528,0.98557 -0.07392,1.39388c-0.02112,0.40127 -0.07392,0.73212 -0.1584,0.99261c-0.0563,0.18301 -0.13728,0.32029 -0.24287,0.41183c-0.09854,0.09154 -0.23231,0.13728 -0.40127,0.13728c-0.19008,0 -0.34141,-0.07042 -0.45407,-0.21119c-0.1056,-0.14077 -0.16539,-0.36253 -0.17951,-0.66526c-0.01406,-0.25343 -0.01756,-0.5526 -0.01056,-0.89757c0.00706,-0.34495 0.01056,-0.68638 0.01056,-1.02429c0.00706,-0.34495 0.00356,-0.63006 -0.01056,-0.85534c-0.02812,-0.45055 -0.10909,-0.78142 -0.24287,-0.99261c-0.12672,-0.21119 -0.32029,-0.31679 -0.58079,-0.31679c-0.30267,0 -0.54554,0.1408 -0.72862,0.42239c-0.17595,0.28159 -0.28511,0.6723 -0.32735,1.17212c-0.01406,0.20415 -0.02112,0.45758 -0.02112,0.7603c0.00706,0.29567 0.01412,0.59134 0.02112,0.88702c0.00706,0.29567 0.00356,0.54205 -0.01056,0.73918c-0.00699,0.42239 -0.07392,0.72512 -0.20063,0.90813c-0.11965,0.18301 -0.28861,0.27455 -0.50686,0.27455c-0.26043,0 -0.4505,-0.08448 -0.57023,-0.25343c-0.11259,-0.16895 -0.18651,-0.44001 -0.22175,-0.8131c-0.02812,-0.33085 -0.04924,-0.6582 -0.06336,-0.98205c-0.01406,-0.33087 -0.02112,-0.65821 -0.02112,-0.98205c0,-0.33087 0.00706,-0.6899 0.02112,-1.07709c0.02112,-0.38719 0.0493,-0.75326 0.08448,-1.09821c0.04224,-0.35199 0.11616,-0.64766 0.22175,-0.88702c0.1056,-0.23936 0.28161,-0.35903 0.52799,-0.35903c0.2042,0 0.34847,0.10208 0.43295,0.30623c0.08448,0.19712 0.12672,0.50335 0.12672,0.91869c0,0.14079 -0.01056,0.27103 -0.03168,0.39071l-0.03168,-0.2112c0.14084,-0.45758 0.36609,-0.81309 0.67582,-1.06653c0.30979,-0.26048 0.6547,-0.39071 1.03485,-0.39071c0.49987,0 0.89057,0.16191 1.17212,0.48575c0.28161,0.31679 0.43652,0.75678 0.46463,1.31996zM229.86638,184.13412c-0.21819,0 -0.39071,-0.0493 -0.51743,-0.14783c-0.12672,-0.1056 -0.22875,-0.27805 -0.30623,-0.51743c-0.1056,-0.35197 -0.18651,-0.79547 -0.24288,-1.33052c-0.04924,-0.54206 -0.07392,-1.20732 -0.07392,-1.99579c0,-0.48575 0.01762,-0.97149 0.0528,-1.45724c0.04224,-0.49279 0.09503,-0.93981 0.15839,-1.34108c0.06336,-0.40831 0.13029,-0.7251 0.20064,-0.95037c0.07748,-0.23936 0.16895,-0.40479 0.27455,-0.49631c0.1056,-0.09152 0.22532,-0.13728 0.35903,-0.13728c0.14084,0 0.25343,0.04928 0.33791,0.14783c0.08448,0.09152 0.1514,0.25695 0.20063,0.49631c0.04224,0.23231 0.07392,0.51743 0.09504,0.85534c0.02818,0.33791 0.04224,0.70046 0.04224,1.08765c0,0.52799 -0.02462,1.08413 -0.07392,1.66843c-0.04924,0.5843 -0.11615,1.15805 -0.20063,1.72123c-0.07742,0.56316 -0.17245,1.08059 -0.28511,1.55228l-0.29567,-0.14784c0.18308,-0.22525 0.39071,-0.40127 0.62302,-0.52799c0.23938,-0.12672 0.45763,-0.19007 0.6547,-0.19007c0.16196,0 0.28511,0.04574 0.36959,0.13728c0.09154,0.08448 0.13728,0.21826 0.13728,0.40127c0,0.18301 -0.08091,0.36609 -0.24287,0.54911c-0.15483,0.18301 -0.34847,0.33441 -0.58079,0.45406c-0.23231,0.11266 -0.46106,0.16895 -0.68638,0.16895zM236.94983,184.2186c-0.23938,0 -0.40483,-0.09154 -0.49631,-0.27455c-0.08448,-0.19008 -0.13378,-0.48925 -0.14784,-0.89758l0.1056,0.0528c-0.39427,0.76736 -1.14045,1.15101 -2.23865,1.15101c-0.49987,0 -0.9152,-0.08797 -1.24605,-0.26399c-0.33091,-0.18301 -0.57729,-0.42239 -0.73918,-0.71806c-0.1549,-0.30273 -0.23231,-0.63009 -0.23231,-0.98205c0,-0.60542 0.2112,-1.08413 0.63359,-1.43612c0.42239,-0.35903 0.98205,-0.53854 1.67899,-0.53854c0.45756,0 0.85534,0.06688 1.19325,0.20063c0.33791,0.13376 0.62652,0.32031 0.86589,0.55966l-0.17952,-0.02112c-0.0493,-0.71102 -0.2042,-1.21788 -0.46463,-1.5206c-0.25343,-0.30975 -0.61603,-0.46463 -1.08765,-0.46463c-0.27455,0 -0.52799,0.04224 -0.7603,0.12672c-0.23231,0.08448 -0.44707,0.17247 -0.64414,0.26399c-0.19008,0.08448 -0.36959,0.12671 -0.53855,0.12671c-0.16895,0 -0.30273,-0.05632 -0.40127,-0.16895c-0.09154,-0.11264 -0.13728,-0.25695 -0.13728,-0.43295c0,-0.25343 0.11965,-0.49279 0.35903,-0.71806c0.24637,-0.22527 0.57022,-0.40831 0.97149,-0.5491c0.40127,-0.14079 0.83771,-0.2112 1.3094,-0.2112c0.57022,0 1.05947,0.13728 1.4678,0.41183c0.40826,0.27455 0.71806,0.67582 0.92925,1.2038c0.18301,0.45055 0.31323,0.95389 0.39071,1.51004c0.07742,0.55615 0.11615,1.15101 0.11615,1.78459c0,0.47868 -0.02468,0.84828 -0.07392,1.10877c-0.0493,0.26049 -0.12672,0.44351 -0.23231,0.5491c-0.0986,0.09854 -0.23231,0.14784 -0.40127,0.14784zM234.61614,183.03591c0.23231,0 0.46812,-0.03168 0.7075,-0.09504c0.23931,-0.07042 0.43995,-0.17245 0.60191,-0.30623c0.16189,-0.13378 0.24287,-0.29917 0.24287,-0.49631c0,-0.16895 -0.07042,-0.30623 -0.21119,-0.41183c-0.13378,-0.11264 -0.3133,-0.19711 -0.53855,-0.25343c-0.21826,-0.05632 -0.45406,-0.08448 -0.7075,-0.08448c-0.42945,0 -0.7568,0.07392 -0.98205,0.22175c-0.21826,0.14783 -0.32735,0.34495 -0.32735,0.59134c0,0.26749 0.10203,0.47519 0.30623,0.62302c0.21119,0.14077 0.51386,0.21119 0.90814,0.21119zM240.033,175.74972c0.22525,0 0.38015,0.088 0.46463,0.26399c0.09154,0.176 0.13728,0.43999 0.13728,0.79198c0,0.30271 -0.01762,0.68286 -0.0528,1.14045c-0.03518,0.45758 -0.08098,0.89757 -0.13728,1.31996h-0.06336c0.23231,-0.43646 0.53148,-0.78846 0.89757,-1.05597c0.36609,-0.26751 0.75324,-0.40127 1.16157,-0.40127c0.35903,0 0.67932,0.088 0.96094,0.26399c0.28161,0.16895 0.51036,0.43646 0.68638,0.80254c0.16189,0.33087 0.28161,0.7251 0.35903,1.18269c0.07742,0.45055 0.11616,0.87997 0.11616,1.28828c0,0.6547 -0.04574,1.17562 -0.13728,1.56283c-0.08448,0.38721 -0.20413,0.66876 -0.35903,0.84478c-0.1549,0.16895 -0.33791,0.25343 -0.54911,0.25343c-0.44351,0 -0.66526,-0.36253 -0.66526,-1.08765c0,-0.35197 0.01762,-0.71456 0.0528,-1.08765c0.04224,-0.37311 0.06335,-0.71454 0.06335,-1.02429c0,-0.52799 -0.08448,-0.92221 -0.25343,-1.18269c-0.16189,-0.26751 -0.39777,-0.40127 -0.7075,-0.40127c-0.38721,0 -0.70044,0.17247 -0.93981,0.51742c-0.23938,0.34495 -0.35903,0.82014 -0.35903,1.42556c0,0.31679 0.02818,0.66526 0.08448,1.04541c0.0563,0.37309 0.08448,0.71456 0.08448,1.02429c0,0.34497 -0.06685,0.59484 -0.20063,0.74974c-0.12672,0.14783 -0.29217,0.22175 -0.49631,0.22175c-0.1549,0 -0.29218,-0.03168 -0.41183,-0.09504c-0.11266,-0.0563 -0.21119,-0.17245 -0.29567,-0.34847c-0.07742,-0.18301 -0.14434,-0.45406 -0.20064,-0.81309c-0.04224,-0.27455 -0.08448,-0.59484 -0.12671,-0.96094c-0.04224,-0.36607 -0.07742,-0.74974 -0.1056,-1.151c-0.02818,-0.40127 -0.0528,-0.79198 -0.07392,-1.17213c-0.01406,-0.38719 -0.02112,-0.73918 -0.02112,-1.05597c0,-0.99965 0.09503,-1.72475 0.28511,-2.1753c0.19008,-0.45759 0.45757,-0.68638 0.80254,-0.68638zM250.56624,184.19748c-0.90114,0 -1.55228,-0.25343 -1.95354,-0.7603c-0.39427,-0.50686 -0.59134,-1.3446 -0.59134,-2.51321c0,-0.39423 0.01056,-0.79549 0.03168,-1.2038c0.02812,-0.41535 0.06336,-0.8131 0.1056,-1.19325c0.04924,-0.38719 0.1056,-0.72158 0.16896,-1.00317c0.06336,-0.29567 0.16189,-0.52799 0.29567,-0.69694c0.14077,-0.176 0.34847,-0.26399 0.62302,-0.26399c0.21119,0 0.37309,0.06336 0.48575,0.19008c0.11965,0.12672 0.17952,0.32031 0.17952,0.58078c0,0.16191 -0.02468,0.37663 -0.07392,0.64414c-0.0493,0.26751 -0.1056,0.55966 -0.16895,0.87645c-0.05636,0.31679 -0.10916,0.6371 -0.1584,0.96093c-0.0493,0.31679 -0.07392,0.61246 -0.07392,0.88702c0,0.70398 0.1091,1.19677 0.32735,1.47836c0.22525,0.27455 0.5491,0.41183 0.97149,0.41183c0.40826,0 0.711,-0.15133 0.90814,-0.45407c0.20413,-0.30271 0.30623,-0.78142 0.30623,-1.43612c0,-0.20415 -0.01412,-0.46462 -0.04224,-0.78142c-0.02818,-0.31679 -0.05986,-0.64766 -0.09504,-0.99261c-0.03524,-0.34495 -0.06692,-0.66174 -0.09504,-0.95037c-0.02818,-0.29567 -0.04224,-0.51743 -0.04224,-0.66526c0,-0.61246 0.21469,-0.91869 0.64414,-0.91869c0.24637,0 0.43645,0.07743 0.57023,0.23231c0.13371,0.14783 0.22525,0.37311 0.27455,0.67582c0.04924,0.26751 0.09147,0.59134 0.12672,0.9715c0.03518,0.37311 0.05979,0.76381 0.07392,1.17212c0.02112,0.40831 0.03168,0.79198 0.03168,1.15101c0,0.85182 -0.0986,1.54172 -0.29567,2.0697c-0.19008,0.52799 -0.49281,0.9152 -0.90813,1.16157c-0.41539,0.24637 -0.95744,0.36959 -1.6262,0.36959zM255.53589,184.2186c-0.1549,0 -0.28161,-0.0528 -0.38015,-0.1584c-0.09154,-0.1056 -0.16546,-0.25693 -0.22175,-0.45407c-0.05636,-0.28861 -0.1056,-0.66526 -0.14783,-1.12989c-0.03524,-0.47167 -0.0528,-0.97501 -0.0528,-1.51004c0,-0.30271 0.007,-0.64414 0.02112,-1.02429c0.01406,-0.38015 0.03168,-0.76381 0.0528,-1.15101c0.02812,-0.39423 0.0563,-0.7603 0.08448,-1.09821c0.03518,-0.33791 0.07035,-0.61246 0.1056,-0.82366c0.0563,-0.30975 0.13728,-0.55262 0.24288,-0.72862c0.11259,-0.18303 0.28861,-0.27455 0.52799,-0.27455c0.24637,0 0.42588,0.09503 0.53854,0.28511c0.11259,0.18303 0.16895,0.41183 0.16895,0.68638c0,0.30975 -0.02468,0.67582 -0.07392,1.09821c-0.04224,0.42239 -0.10916,0.85182 -0.20063,1.28828l-0.2112,0.25343c0.07742,-0.29567 0.20413,-0.5667 0.38015,-0.81309c0.17595,-0.24639 0.3977,-0.43999 0.66526,-0.58079c0.26749,-0.14783 0.57722,-0.22175 0.92925,-0.22175c0.68988,0 1.23898,0.24639 1.64731,0.73918c0.41533,0.48575 0.62302,1.24605 0.62302,2.2809c0,0.7251 -0.10916,1.33052 -0.32735,1.81627c-0.21119,0.48575 -0.50337,0.85184 -0.87646,1.09821c-0.36609,0.23938 -0.78498,0.35903 -1.2566,0.35903c-0.44351,0 -0.82722,-0.13022 -1.15101,-0.39071c-0.31679,-0.26049 -0.52099,-0.63708 -0.61246,-1.12989l0.14783,0.11615c-0.02818,0.50686 -0.0986,0.87995 -0.21119,1.11933c-0.1056,0.23231 -0.24288,0.34847 -0.41183,0.34847zM257.46832,182.93032c0.35197,0 0.6617,-0.1584 0.92925,-0.47519c0.26749,-0.31679 0.40127,-0.8131 0.40127,-1.48892c0,-0.56318 -0.1056,-1.02077 -0.31679,-1.37276c-0.2042,-0.35199 -0.54911,-0.52799 -1.03485,-0.52799c-0.39427,0 -0.71106,0.15839 -0.95037,0.47518c-0.23938,0.30975 -0.35903,0.78142 -0.35903,1.415c0,0.57726 0.11965,1.05245 0.35903,1.42556c0.23931,0.36609 0.56316,0.54911 0.97149,0.54911zM262.23147,176.01371c0.28161,0 0.48225,0.07744 0.6019,0.23231c0.12672,0.15488 0.19008,0.3344 0.19008,0.53855c0,0.25343 -0.07742,0.45055 -0.23231,0.59134c-0.14783,0.13376 -0.35903,0.20063 -0.63358,0.20063c-0.26749,0 -0.46812,-0.07392 -0.6019,-0.22175c-0.13378,-0.15488 -0.20063,-0.33439 -0.20063,-0.53854c0,-0.26751 0.08098,-0.46815 0.24287,-0.60191c0.16189,-0.13375 0.37309,-0.20063 0.63358,-0.20063zM262.29483,178.36853c0.22525,0 0.40127,0.21119 0.52799,0.63358c0.13378,0.42239 0.20063,1.09469 0.20063,2.0169c0,1.13339 -0.08098,1.95004 -0.24287,2.44985c-0.16189,0.49981 -0.40833,0.74974 -0.73918,0.74974c-0.25343,0 -0.44001,-0.18301 -0.55966,-0.54911c-0.11965,-0.37309 -0.17951,-1.0208 -0.17951,-1.94299c0,-1.13341 0.09154,-1.97466 0.27455,-2.52377c0.19008,-0.55615 0.42945,-0.83422 0.71806,-0.83422zM265.39048,177.54487c0.22525,0 0.37665,0.09152 0.45406,0.27455c0.08448,0.18303 0.12672,0.45407 0.12672,0.8131c0,0.08448 -0.00706,0.176 -0.02112,0.27455c-0.00706,0.09152 -0.02112,0.176 -0.04224,0.25343l-0.02112,-0.2112c0.16895,-0.45758 0.42945,-0.81309 0.78142,-1.06653c0.35197,-0.26048 0.72512,-0.39071 1.11933,-0.39071c0.43645,0 0.79904,0.1232 1.08765,0.36959c0.29567,0.24639 0.51393,0.59135 0.6547,1.03485c0.14783,0.44351 0.22175,0.96797 0.22175,1.57339c0,0.37311 -0.01762,0.7427 -0.0528,1.10877c-0.02818,0.35903 -0.07042,0.68988 -0.12672,0.99261c-0.0493,0.29567 -0.1056,0.53854 -0.16895,0.72862c-0.08448,0.23938 -0.19357,0.41889 -0.32735,0.53854c-0.13378,0.11266 -0.29217,0.16896 -0.47518,0.16896c-0.18301,0 -0.32385,-0.06686 -0.42239,-0.20064c-0.09854,-0.13378 -0.14783,-0.31329 -0.14783,-0.53854c0,-0.23938 0.01762,-0.52799 0.0528,-0.86589c0.03518,-0.34495 0.06686,-0.69342 0.09504,-1.04541c0.03518,-0.35903 0.0528,-0.68286 0.0528,-0.97149c0,-0.98557 -0.32386,-1.47836 -0.9715,-1.47836c-0.34497,0 -0.63358,0.15488 -0.86589,0.46463c-0.23231,0.30271 -0.38721,0.73566 -0.46463,1.29884c-0.02112,0.19008 -0.03168,0.42591 -0.03168,0.7075c0,0.28159 0,0.56318 0,0.84477c0.00706,0.27455 0,0.50687 -0.02112,0.69694c-0.02818,0.42239 -0.10909,0.72512 -0.24287,0.90813c-0.12672,0.18301 -0.30273,0.27455 -0.52799,0.27455c-0.26049,0 -0.45756,-0.11965 -0.59134,-0.35903c-0.13378,-0.24637 -0.20063,-0.6582 -0.20063,-1.23549c0,-0.29567 0.00706,-0.62654 0.02112,-0.99261c0.01406,-0.36607 0.03168,-0.73214 0.0528,-1.09821c0.02818,-0.37311 0.05986,-0.71102 0.09504,-1.01373c0.07042,-0.57022 0.17245,-1.02077 0.30623,-1.35164c0.13378,-0.33791 0.33441,-0.50686 0.60191,-0.50686zM273.73198,181.84267c0.28115,0 0.50687,0.09855 0.67582,0.29567c0.17556,0.19008 0.26399,0.47169 0.26399,0.84478c0,0.34497 -0.08448,0.63708 -0.25343,0.87645c-0.16235,0.23938 -0.42635,0.35903 -0.79198,0.35903c-0.29567,0 -0.51412,-0.09854 -0.6547,-0.29567c-0.13398,-0.19713 -0.20063,-0.47518 -0.20063,-0.83422c0,-0.21119 0.02772,-0.41183 0.08448,-0.60191c0.0561,-0.19008 0.15443,-0.34497 0.29567,-0.46463c0.14058,-0.11968 0.33395,-0.17951 0.58078,-0.17951zM273.73198,177.51319c0.28115,0 0.50687,0.09855 0.67582,0.29567c0.17556,0.19008 0.26399,0.47167 0.26399,0.84477c0,0.34495 -0.08448,0.6371 -0.25343,0.87646c-0.16235,0.23936 -0.42635,0.35903 -0.79198,0.35903c-0.29567,0 -0.51412,-0.09855 -0.6547,-0.29567c-0.13398,-0.19712 -0.20063,-0.47519 -0.20063,-0.83422c0,-0.21119 0.02772,-0.41183 0.08448,-0.6019c0.0561,-0.19008 0.15443,-0.34495 0.29567,-0.46463c0.14058,-0.11968 0.33395,-0.17951 0.58078,-0.17951z"/></g></g></svg>