<svg version="1.1" xmlns="http://www.w3.org/2000/svg" xmlns:xlink="http://www.w3.org/1999/xlink" width="16.6023" height="26.164" viewBox="0,0,16.6023,26.164"><g transform="translate(-231.69885,-166.918)"><g data-paper-data="{&quot;isPaintingLayer&quot;:true}" fill-rule="evenodd" stroke="none" stroke-width="1" stroke-linecap="butt" stroke-linejoin="miter" stroke-miterlimit="10" stroke-dasharray="" stroke-dashoffset="0" style="mix-blend-mode: normal"><g><g><path d="M238.01395,187.95208c0.54562,0.11347 1.86073,-0.10668 1.86073,-0.10668c0,0 0.5443,-1.57671 0.7665,-2.26106l-2.46495,0.30788c-0.06384,0.60867 -0.14847,1.83462 -0.16229,2.05985z" fill="#a0640a"/><path d="M237.82824,187.02534l2.98138,-0.42826l0.42755,-2.84738c0,0 -0.31309,-0.827 -1.83135,-0.4418c-1.51828,0.3852 -1.49796,1.89141 -1.49796,1.89141z" fill="#000000"/></g><g><g><path d="M236.61397,192.95141c0.09983,0.01547 1.86242,0.13059 1.86242,0.13059c0.05854,-0.09113 0.09644,-0.23556 0.12572,-0.33702l-1.08093,-0.14438c-0.14805,0.04643 -0.7333,0.1754 -0.89857,0.19605c0.00344,0.02751 -0.02414,0.14271 -0.00866,0.15476z" fill="#000000"/><path d="M238.61589,192.74327c0.07577,-0.1771 0.90085,-2.64106 1.2041,-3.90826c0.0379,-0.14444 0.20843,-0.68262 0.40307,-1.25174l-2.3961,0.29928l-0.30578,4.71806z" fill="#f01446"/></g><path d="M240.18858,187.86696l-2.40644,0.32851l-0.04142,0.45221l2.30143,-0.27349z" fill="#f5cfcf"/><path d="M239.95257,188.6648l-2.24979,0.23909l-0.04657,0.41094l2.13616,-0.14109z" fill="#f5cfcf"/></g></g><g><g><path d="M244.32709,187.94561c-0.1004,-0.38718 0.01404,-0.75832 0.10626,-1.10783c-0.18927,-0.30068 -2.06915,-0.51441 -2.4424,-0.49749c-0.09667,0.70022 -0.16314,1.44031 0.06044,2.14919c0.2929,0.08724 0.80111,-0.19095 1.10024,-0.24831c0.36979,-0.09151 0.78746,-0.15168 1.17547,-0.29555z" fill="#a0640a"/><path d="M241.68616,184.42896l-0.37202,2.33634l3.61216,0.3027l0.27172,-2.3859c0,0 0.09759,-1.4631 -1.63357,-1.63975c-1.75737,-0.18576 -1.87376,1.37354 -1.87831,1.38662z" fill="#000000"/></g><g><path d="M247.89459,189.72941l-0.02593,1.0037c0.05874,0.21123 0.13181,0.67695 0.16889,0.866l0.15274,0.0678c0.01533,-0.17079 0.18526,-1.79953 0.07241,-1.89749l-0.19662,-0.06841c-0.07464,0.00338 -0.07464,0.00338 -0.1715,0.02839z" fill="#000000"/><path d="M245.82821,191.06529c0.73336,-0.0384 1.35785,-0.14405 2.05811,-0.34072l0.02593,-1.0037c-0.77946,0.21316 -1.82338,0.17287 -2.51072,-0.30109c-0.40408,-0.3167 -0.71477,-0.73302 -0.87101,-1.21302c-0.02966,-0.08369 -0.08785,-0.33877 -0.09984,-0.431l-2.69627,0.48561c0.10495,0.3741 0.40661,1.15419 0.6352,1.46854c0.13794,0.19476 0.4554,0.42262 0.85662,0.62092c0.39152,0.26831 0.80185,0.44043 1.23895,0.57781c0.06553,0.0228 0.94138,0.16608 1.36303,0.13665z" fill="#f01446"/></g><path d="M241.96817,189.19439l2.69216,-0.85397l-0.12318,-0.32172l-2.77369,0.70819z" fill="#f5cfcf"/><path d="M242.70236,190.12497l2.202,-1.30337l-0.18927,-0.30068l-2.53367,1.15862z" fill="#f5cfcf"/></g><path d="M245.00209,183.80034l-0.48572,-2.07931l-6.356,1.23372l-0.33307,2.05158c0.22205,-0.04159 7.17479,-1.21986 7.17479,-1.206z" fill="#000000"/><g><path d="M237.22016,172.45738c-0.20815,-0.54063 -1.81798,-0.85944 -1.4849,0.23566c0.33306,1.09511 1.4849,0.77627 1.4849,0.77627c0,0 0.11103,-0.74854 0,-1.01193z" fill="#824600"/><path d="M236.13771,171.70882c-0.01387,1.17827 0.48573,2.23178 0.98531,2.77241c0.86043,0.90103 2.5535,0.72083 2.9976,0.58222c0.81879,-0.26338 1.59593,-1.4278 2.0539,-2.50904c0.13878,-0.41588 0.26368,-0.84558 0.36082,-1.28919l-3.89964,-2.13476c0,0 -1.77634,0.37428 -1.87348,0.5129c-0.13878,0.16634 -0.62451,1.24759 -0.62451,2.06546z" fill="#a0640a"/><path d="M242.92392,168.75621l-0.12489,-0.08319c0.19428,-0.48516 0.59672,-1.23372 -0.19431,-1.40006c-0.48571,-0.09703 -1.1796,0.44358 -1.31838,0.87331c-0.08327,0.04159 -0.08327,0.0416 -0.16653,-0.01384c0.05553,-0.36041 0.22205,-0.81786 -0.08326,-1.09511c-0.90206,-0.5129 -1.33227,0.76242 -1.85961,1.27529l-0.12491,-0.01385c-0.09714,-0.40201 0.18042,-0.95648 -0.41634,-0.97035c-0.40246,-0.01385 -0.58287,0.33269 -0.77716,0.59607c-0.48571,0.6238 -1.15186,1.73278 -1.15186,1.73278c0,0 0,0.6931 1.04084,0.87331c0.51348,0.09703 1.41552,-0.4436 2.78942,0.09703c1.37388,0.54063 1.36002,2.41199 1.36002,2.41199c0,0 1.51268,-2.78628 1.6931,-3.18826c0.13878,-0.30498 0.51348,-1.1783 0.19428,-1.44166c-0.23592,-0.19406 -0.65225,0.22179 -0.86043,0.34656z" fill="#000000"/><path d="M241.6888,173.37228c0,0 1.15184,0.31882 1.48491,-0.77629c0.33306,-1.09511 -1.27676,-0.77627 -1.48491,-0.23564c-0.09714,0.26336 0,1.01193 0,1.01193z" fill="#a0640a"/><path d="M239.53774,173.09502c-0.59672,0.05545 -1.13796,0.27725 -1.69308,0.5129c0.27756,0.94263 2.24819,0.34656 1.69308,-0.5129z" fill="#000000"/><path d="M238.45529,172.80393c0.33306,-0.59607 -0.95757,-1.1367 -1.12409,-0.26338c-0.11103,0.67924 0.72163,0.36041 1.12409,0.26338z" fill="#824600"/><g fill="#000000"><path d="M239.57602,172.20603l0.08327,0.19406h0.13878c0.04164,-0.23566 -0.13878,-0.59607 -0.22205,-0.19406z"/><path d="M236.57842,172.70507l0.12491,-0.01385l0.04164,-0.27724c-0.08327,-0.09705 -0.08327,-0.09705 -0.16653,-0.06932c-0.04164,0.1109 -0.04164,0.23566 0,0.36042z"/></g></g><g><path d="M231.83815,183.73945c0.09698,0.06804 1.71313,0.07113 3.00311,-0.52562c1.56545,-0.73475 2.88497,-2.12419 3.4247,-2.71166l-1.40856,-2.05955c-0.48019,0.74827 -0.97741,1.6929 -1.15175,1.92967c-0.29557,0.40368 -1.48293,1.5684 -1.4793,1.54914c-0.25564,0.19162 -0.5191,0.37179 -0.80241,0.49839c-0.21821,0.09887 -0.67866,0.21226 -0.87035,0.27617c-0.54427,0.18752 -0.85582,0.19905 -0.84322,0.29121c0.02767,0.06504 0.76895,-0.05567 0.755,0.07144c-0.01394,0.12709 -0.78654,0.20202 -0.76612,0.30562c0.00534,0.13071 0.80389,-0.02917 0.77121,0.14431c-0.0212,0.16565 -0.84549,0.09123 -0.63228,0.23091z" fill="#a0640a"/><path d="M235.898,179.35066c0.0313,0.04577 2.23899,1.99545 2.23899,1.99545c0,0 1.40717,-1.80208 1.70887,-2.34428c0,0 1.46239,-2.36047 0.17106,-3.24068c-1.29131,-0.88021 -2.17768,0.70002 -2.17768,0.70002c0.00727,-0.03856 -1.85074,2.72681 -1.94125,2.8895z" fill="#be0a3c"/><path d="M233.46395,182.89625c0.2671,-0.19945 0.1402,-0.53252 0.1402,-0.53252c0,0 -1.18336,-0.18152 -1.22804,-0.05021c-0.03323,0.12349 0.24089,0.20471 0.49631,0.33235c-0.14552,0.40182 0.32083,0.4691 0.59155,0.25038z" fill="#824600"/></g><g><path d="M246.43777,184.3661c0.45981,0.03683 0.47424,-1.80499 0.43592,-1.98167c-0.14053,0.1402 -0.58458,1.82336 -0.43592,1.98167z" fill="#824600"/><path d="M243.99873,175.98821l-0.40872,2.50895c0.72017,0.13296 1.40183,0.65066 1.7929,1.19407c0.29792,0.43511 0.65048,1.36327 0.82366,1.85574c0.40525,1.06585 0.80378,3.59211 0.90111,3.56894c0.09733,-0.02318 -0.03872,-0.85657 0.09423,-0.89616c0.13296,-0.03956 0.14554,1.08815 0.31414,1.0322c0.1686,-0.05596 -0.03318,-1.03188 0.2478,-1.03156c0.28095,0.00032 0.18672,0.89649 0.32587,0.80009c0.13915,-0.09639 0.0562,-3.43709 -0.30298,-4.98833c-0.18471,-0.82184 -0.56403,-1.59733 -1.10995,-2.24224c-0.43493,-0.54481 -1.97708,-1.61673 -2.67806,-1.80172z" fill="#a0640a"/><path d="M239.08213,175.28086c0,0 -0.80811,0.42566 -0.21868,1.91416c0.58944,1.4885 2.57955,1.30724 2.57955,1.30724c1.22259,-0.06572 2.43947,0.32455 2.43947,0.32455l1.13105,-2.58206c0,0 -0.43569,-0.38254 -1.8849,-0.78473c-1.44922,-0.40217 -4.00264,-0.17773 -4.0465,-0.17916z" fill="#f01446"/></g><path d="M237.91057,183.37061l7.46622,-0.65152c0,0 -1.40166,-3.92297 -2.17881,-5.50324c-0.15265,-0.33269 -1.1796,-1.46938 -1.23511,-1.51097c-0.52736,-0.38813 -1.30451,-0.56834 -1.94289,-0.62379c-1.91512,-0.16634 -2.95596,1.91297 -2.91433,3.60414c0.02776,0.90103 0.81879,4.68537 0.8049,4.68537z" fill="#f01446"/></g></g></svg>