<svg width="267" height="10" viewBox="0 0 267 10" fill="none" xmlns="http://www.w3.org/2000/svg">
<path d="M1.188 8.09C1.08 8.09 0.993 8.054 0.927 7.982C0.861 7.904 0.807 7.781 0.765 7.613C0.723 7.421 0.684 7.121 0.648 6.713C0.612 6.299 0.594 5.837 0.594 5.327C0.594 4.775 0.609 4.238 0.639 3.716C0.675 3.188 0.726 2.723 0.792 2.321C0.84 2.057 0.909 1.862 0.999 1.736C1.095 1.604 1.227 1.538 1.395 1.538C1.503 1.538 1.599 1.574 1.683 1.646C1.767 1.718 1.83 1.847 1.872 2.033C1.92 2.219 1.944 2.483 1.944 2.825C1.944 2.993 1.938 3.185 1.926 3.401C1.914 3.611 1.896 3.845 1.872 4.103H1.908C2.388 3.443 2.811 2.918 3.177 2.528C3.543 2.132 3.864 1.847 4.14 1.673C4.422 1.499 4.668 1.412 4.878 1.412C5.046 1.412 5.172 1.466 5.256 1.574C5.346 1.682 5.391 1.814 5.391 1.97C5.391 2.3 5.142 2.696 4.644 3.158C4.152 3.62 3.357 4.175 2.259 4.823L2.331 4.652C3.279 5.252 3.996 5.783 4.482 6.245C4.968 6.701 5.211 7.106 5.211 7.46C5.211 7.616 5.16 7.745 5.058 7.847C4.962 7.943 4.818 7.991 4.626 7.991C4.386 7.991 4.131 7.91 3.861 7.748C3.591 7.58 3.291 7.301 2.961 6.911C2.637 6.515 2.268 5.978 1.854 5.3H1.818C1.83 5.438 1.839 5.582 1.845 5.732C1.851 5.876 1.854 6.02 1.854 6.164C1.854 6.854 1.806 7.349 1.71 7.649C1.614 7.943 1.44 8.09 1.188 8.09ZM8.67642 8.072C8.01042 8.072 7.47942 7.973 7.08342 7.775C6.68742 7.577 6.40242 7.292 6.22842 6.92C6.05442 6.548 5.96742 6.104 5.96742 5.588C5.96742 4.934 6.08742 4.379 6.32742 3.923C6.57342 3.461 6.90942 3.107 7.33542 2.861C7.76742 2.615 8.25642 2.492 8.80242 2.492C9.44442 2.492 9.91542 2.642 10.2154 2.942C10.5154 3.236 10.6654 3.623 10.6654 4.103C10.6654 4.487 10.5634 4.82 10.3594 5.102C10.1614 5.378 9.88542 5.591 9.53142 5.741C9.17742 5.891 8.76942 5.966 8.30742 5.966C8.04942 5.966 7.80042 5.933 7.56042 5.867C7.32042 5.801 7.10442 5.711 6.91242 5.597L7.12842 5.201C7.11042 5.345 7.10142 5.489 7.10142 5.633C7.10142 6.053 7.23342 6.356 7.49742 6.542C7.76142 6.722 8.13642 6.812 8.62242 6.812C9.00042 6.812 9.30342 6.779 9.53142 6.713C9.75942 6.647 9.95142 6.584 10.1074 6.524C10.2634 6.458 10.4164 6.425 10.5664 6.425C10.6504 6.425 10.7254 6.449 10.7914 6.497C10.8634 6.539 10.9204 6.602 10.9624 6.686C11.0104 6.77 11.0344 6.872 11.0344 6.992C11.0344 7.172 10.9444 7.346 10.7644 7.514C10.5844 7.676 10.3174 7.811 9.96342 7.919C9.61542 8.021 9.18642 8.072 8.67642 8.072ZM8.15442 5.129C8.58042 5.129 8.92242 5.039 9.18042 4.859C9.43842 4.679 9.56742 4.457 9.56742 4.193C9.56742 3.983 9.49542 3.812 9.35142 3.68C9.21342 3.542 8.99442 3.473 8.69442 3.473C8.41242 3.473 8.15742 3.527 7.92942 3.635C7.70742 3.737 7.53342 3.872 7.40742 4.04C7.28142 4.208 7.21842 4.391 7.21842 4.589C7.21842 4.763 7.29942 4.898 7.46142 4.994C7.62942 5.084 7.86042 5.129 8.15442 5.129ZM12.7974 8.018C12.6114 8.018 12.4644 7.976 12.3564 7.892C12.2484 7.802 12.1614 7.655 12.0954 7.451C12.0054 7.151 11.9364 6.773 11.8884 6.317C11.8464 5.855 11.8254 5.288 11.8254 4.616C11.8254 4.202 11.8404 3.788 11.8704 3.374C11.9064 2.954 11.9514 2.573 12.0054 2.231C12.0594 1.883 12.1164 1.613 12.1764 1.421C12.2424 1.217 12.3204 1.076 12.4104 0.997999C12.5004 0.92 12.6024 0.881 12.7164 0.881C12.8364 0.881 12.9324 0.923 13.0044 1.007C13.0764 1.085 13.1334 1.226 13.1754 1.43C13.2114 1.628 13.2384 1.871 13.2564 2.159C13.2804 2.447 13.2924 2.756 13.2924 3.086C13.2924 3.536 13.2714 4.01 13.2294 4.508C13.1874 5.006 13.1304 5.495 13.0584 5.975C12.9924 6.455 12.9114 6.896 12.8154 7.298L12.5634 7.172C12.7194 6.98 12.8964 6.83 13.0944 6.722C13.2984 6.614 13.4844 6.56 13.6524 6.56C13.7904 6.56 13.8954 6.599 13.9674 6.677C14.0454 6.749 14.0844 6.863 14.0844 7.019C14.0844 7.175 14.0154 7.331 13.8774 7.487C13.7454 7.643 13.5804 7.772 13.3824 7.874C13.1844 7.97 12.9894 8.018 12.7974 8.018ZM17.0885 8.027C16.6085 8.027 16.1885 7.922 15.8285 7.712C15.4745 7.496 15.1985 7.19 15.0005 6.794C14.8085 6.398 14.7125 5.927 14.7125 5.381C14.7125 4.811 14.8115 4.313 15.0095 3.887C15.2075 3.461 15.4865 3.128 15.8465 2.888C16.2125 2.648 16.6355 2.528 17.1155 2.528C17.6315 2.528 18.0785 2.645 18.4565 2.879C18.8345 3.107 19.1285 3.428 19.3385 3.842C19.5485 4.256 19.6535 4.739 19.6535 5.291C19.6535 5.855 19.5485 6.341 19.3385 6.749C19.1285 7.157 18.8315 7.472 18.4475 7.694C18.0635 7.916 17.6105 8.027 17.0885 8.027ZM17.2145 6.812C17.5865 6.812 17.8805 6.665 18.0965 6.371C18.3185 6.071 18.4295 5.675 18.4295 5.183C18.4295 4.685 18.3185 4.289 18.0965 3.995C17.8805 3.701 17.5865 3.554 17.2145 3.554C16.8305 3.554 16.5275 3.701 16.3055 3.995C16.0835 4.289 15.9725 4.685 15.9725 5.183C15.9725 5.675 16.0835 6.071 16.3055 6.371C16.5275 6.665 16.8305 6.812 17.2145 6.812ZM24.4407 3.878C24.5007 3.632 24.6057 3.41 24.7557 3.212C24.9117 3.014 25.0977 2.858 25.3137 2.744C25.5357 2.624 25.7787 2.564 26.0427 2.564C26.3547 2.564 26.6307 2.639 26.8707 2.789C27.1107 2.939 27.2997 3.185 27.4377 3.527C27.5817 3.869 27.6537 4.325 27.6537 4.895C27.6537 5.189 27.6417 5.486 27.6177 5.786C27.5937 6.086 27.5637 6.365 27.5277 6.623C27.4917 6.881 27.4527 7.097 27.4107 7.271C27.3507 7.511 27.2577 7.694 27.1317 7.82C27.0117 7.946 26.8587 8.009 26.6727 8.009C26.5167 8.009 26.3937 7.94 26.3037 7.802C26.2137 7.664 26.1687 7.466 26.1687 7.208C26.1687 7.088 26.1837 6.935 26.2137 6.749C26.2437 6.557 26.2767 6.35 26.3127 6.128C26.3487 5.9 26.3817 5.669 26.4117 5.435C26.4417 5.201 26.4567 4.979 26.4567 4.769C26.4567 4.457 26.3937 4.217 26.2677 4.049C26.1417 3.875 25.9647 3.788 25.7367 3.788C25.4847 3.788 25.2747 3.92 25.1067 4.184C24.9447 4.442 24.8487 4.82 24.8187 5.318C24.7947 5.762 24.7737 6.158 24.7557 6.506C24.7377 6.848 24.6927 7.13 24.6207 7.352C24.5727 7.508 24.5037 7.625 24.4137 7.703C24.3297 7.781 24.2157 7.82 24.0717 7.82C23.9097 7.82 23.7807 7.76 23.6847 7.64C23.5947 7.52 23.5437 7.331 23.5317 7.073C23.5197 6.857 23.5167 6.602 23.5227 6.308C23.5287 6.014 23.5317 5.723 23.5317 5.435C23.5377 5.141 23.5347 4.898 23.5227 4.706C23.4987 4.322 23.4297 4.04 23.3157 3.86C23.2077 3.68 23.0427 3.59 22.8207 3.59C22.5627 3.59 22.3557 3.71 22.1997 3.95C22.0497 4.19 21.9567 4.523 21.9207 4.949C21.9087 5.123 21.9027 5.339 21.9027 5.597C21.9087 5.849 21.9147 6.101 21.9207 6.353C21.9267 6.605 21.9237 6.815 21.9117 6.983C21.9057 7.343 21.8487 7.601 21.7407 7.757C21.6387 7.913 21.4947 7.991 21.3087 7.991C21.0867 7.991 20.9247 7.919 20.8227 7.775C20.7267 7.631 20.6637 7.4 20.6337 7.082C20.6097 6.8 20.5917 6.521 20.5797 6.245C20.5677 5.963 20.5617 5.684 20.5617 5.408C20.5617 5.126 20.5677 4.82 20.5797 4.49C20.5977 4.16 20.6217 3.848 20.6517 3.554C20.6877 3.254 20.7507 3.002 20.8407 2.798C20.9307 2.594 21.0807 2.492 21.2907 2.492C21.4647 2.492 21.5877 2.579 21.6597 2.753C21.7317 2.921 21.7677 3.182 21.7677 3.536C21.7677 3.656 21.7587 3.767 21.7407 3.869L21.7137 3.689C21.8337 3.299 22.0257 2.996 22.2897 2.78C22.5537 2.558 22.8477 2.447 23.1717 2.447C23.5977 2.447 23.9307 2.585 24.1707 2.861C24.4107 3.131 24.5427 3.506 24.5667 3.986L24.4407 3.878ZM29.3651 2.42C29.5271 2.42 29.6621 2.516 29.7701 2.708C29.8781 2.894 29.9531 3.191 29.9951 3.599L29.8061 3.77C29.9141 3.35 30.1151 3.029 30.4091 2.807C30.7031 2.585 31.0511 2.474 31.4531 2.474C31.8251 2.474 32.1551 2.57 32.4431 2.762C32.7311 2.954 32.9561 3.245 33.1181 3.635C33.2861 4.019 33.3701 4.502 33.3701 5.084C33.3701 6.026 33.1991 6.722 32.8571 7.172C32.5211 7.616 32.0621 7.838 31.4801 7.838C31.0601 7.838 30.7301 7.748 30.4901 7.568C30.2501 7.388 30.0821 7.169 29.9861 6.911L30.0941 6.857C30.1421 7.217 30.1811 7.574 30.2111 7.928C30.2471 8.276 30.2651 8.582 30.2651 8.846C30.2651 9.116 30.2171 9.344 30.1211 9.53C30.0251 9.716 29.8721 9.809 29.6621 9.809C29.4581 9.809 29.3051 9.731 29.2031 9.575C29.1011 9.419 29.0261 9.212 28.9781 8.954C28.9421 8.69 28.9061 8.351 28.8701 7.937C28.8341 7.523 28.8041 7.076 28.7801 6.596C28.7621 6.116 28.7531 5.648 28.7531 5.192C28.7531 4.724 28.7681 4.286 28.7981 3.878C28.8341 3.464 28.8761 3.128 28.9241 2.87C28.9661 2.72 29.0201 2.609 29.0861 2.537C29.1581 2.459 29.2511 2.42 29.3651 2.42ZM31.0841 3.509C30.7601 3.509 30.4991 3.671 30.3011 3.995C30.1091 4.313 30.0131 4.721 30.0131 5.219C30.0131 5.729 30.1091 6.11 30.3011 6.362C30.4991 6.614 30.7541 6.74 31.0661 6.74C31.4261 6.74 31.6841 6.599 31.8401 6.317C32.0021 6.029 32.0831 5.657 32.0831 5.201C32.0831 4.619 31.9841 4.193 31.7861 3.923C31.5881 3.647 31.3541 3.509 31.0841 3.509ZM36.4684 8.027C35.9884 8.027 35.5684 7.922 35.2084 7.712C34.8544 7.496 34.5784 7.19 34.3804 6.794C34.1884 6.398 34.0924 5.927 34.0924 5.381C34.0924 4.811 34.1914 4.313 34.3894 3.887C34.5874 3.461 34.8664 3.128 35.2264 2.888C35.5924 2.648 36.0154 2.528 36.4954 2.528C37.0114 2.528 37.4584 2.645 37.8364 2.879C38.2144 3.107 38.5084 3.428 38.7184 3.842C38.9284 4.256 39.0334 4.739 39.0334 5.291C39.0334 5.855 38.9284 6.341 38.7184 6.749C38.5084 7.157 38.2114 7.472 37.8274 7.694C37.4434 7.916 36.9904 8.027 36.4684 8.027ZM36.5944 6.812C36.9664 6.812 37.2604 6.665 37.4764 6.371C37.6984 6.071 37.8094 5.675 37.8094 5.183C37.8094 4.685 37.6984 4.289 37.4764 3.995C37.2604 3.701 36.9664 3.554 36.5944 3.554C36.2104 3.554 35.9074 3.701 35.6854 3.995C35.4634 4.289 35.3524 4.685 35.3524 5.183C35.3524 5.675 35.4634 6.071 35.6854 6.371C35.9074 6.665 36.2104 6.812 36.5944 6.812ZM40.5536 8.09C40.4396 8.09 40.3466 8.057 40.2746 7.991C40.2026 7.919 40.1516 7.817 40.1216 7.685C40.0736 7.463 40.0316 7.142 39.9956 6.722C39.9596 6.302 39.9416 5.837 39.9416 5.327C39.9416 4.697 39.9626 4.091 40.0046 3.509C40.0526 2.927 40.1126 2.45 40.1846 2.078C40.2626 1.676 40.3586 1.382 40.4726 1.196C40.5866 1.004 40.7366 0.908 40.9226 0.908C41.0906 0.908 41.2196 0.986 41.3096 1.142C41.3996 1.292 41.4446 1.553 41.4446 1.925C41.4446 2.297 41.4296 2.696 41.3996 3.122C41.3756 3.548 41.3336 4.004 41.2736 4.49H41.3096C41.6996 3.962 42.0626 3.539 42.3986 3.221C42.7406 2.903 43.0526 2.672 43.3346 2.528C43.6226 2.384 43.8776 2.312 44.0996 2.312C44.2736 2.312 44.4026 2.366 44.4866 2.474C44.5706 2.582 44.6126 2.714 44.6126 2.87C44.6126 3.176 44.3666 3.518 43.8746 3.896C43.3886 4.274 42.6866 4.661 41.7686 5.057L41.7776 4.913C42.3476 5.207 42.8366 5.516 43.2446 5.84C43.6586 6.158 43.9736 6.461 44.1896 6.749C44.4116 7.031 44.5226 7.268 44.5226 7.46C44.5226 7.616 44.4716 7.745 44.3696 7.847C44.2736 7.943 44.1326 7.991 43.9466 7.991C43.7126 7.991 43.4516 7.904 43.1636 7.73C42.8816 7.55 42.5876 7.283 42.2816 6.929C41.9756 6.575 41.6696 6.131 41.3636 5.597H41.3276C41.3216 5.975 41.2976 6.344 41.2556 6.704C41.2196 7.058 41.1716 7.349 41.1116 7.577C41.0696 7.733 41.0036 7.859 40.9136 7.955C40.8296 8.045 40.7096 8.09 40.5536 8.09ZM49.5338 8.162C49.3238 8.162 49.1648 8.093 49.0568 7.955C48.9548 7.817 48.9038 7.619 48.9038 7.361C48.9038 7.181 48.9218 6.989 48.9578 6.785C48.9998 6.581 49.0568 6.38 49.1288 6.182L49.1828 6.308C48.9848 6.374 48.7418 6.428 48.4538 6.47C48.1658 6.512 47.8778 6.533 47.5898 6.533C47.3138 6.533 47.1098 6.488 46.9778 6.398C46.8518 6.302 46.7888 6.17 46.7888 6.002C46.7888 5.744 46.8398 5.444 46.9418 5.102C47.0438 4.76 47.1728 4.409 47.3288 4.049C47.4908 3.689 47.6558 3.362 47.8238 3.068C48.0878 2.606 48.3758 2.246 48.6878 1.988C48.9998 1.724 49.3568 1.592 49.7588 1.592C50.1488 1.592 50.4248 1.688 50.5868 1.88C50.7548 2.072 50.8388 2.351 50.8388 2.717C50.8388 3.071 50.8058 3.482 50.7398 3.95C50.6738 4.412 50.5778 4.883 50.4518 5.363L50.3348 5.264C50.4188 5.234 50.5088 5.213 50.6048 5.201C50.7008 5.183 50.7878 5.174 50.8658 5.174C51.3578 5.174 51.6038 5.372 51.6038 5.768C51.6038 5.972 51.5258 6.128 51.3698 6.236C51.2198 6.344 51.0218 6.398 50.7758 6.398C50.6678 6.398 50.5628 6.392 50.4608 6.38C50.3648 6.362 50.2808 6.341 50.2088 6.317L50.2808 6.272C50.2928 6.386 50.3048 6.53 50.3168 6.704C50.3288 6.872 50.3348 7.034 50.3348 7.19C50.3348 7.508 50.2628 7.751 50.1188 7.919C49.9808 8.081 49.7858 8.162 49.5338 8.162ZM48.4088 5.327C48.6008 5.327 48.7718 5.288 48.9218 5.21C49.0718 5.126 49.1978 5.009 49.2998 4.859C49.4078 4.703 49.4888 4.52 49.5428 4.31C49.6028 4.094 49.6328 3.854 49.6328 3.59C49.6328 3.374 49.5938 3.215 49.5158 3.113C49.4438 3.005 49.3478 2.951 49.2278 2.951C49.0658 2.951 48.9098 3.008 48.7598 3.122C48.6098 3.23 48.4718 3.374 48.3458 3.554C48.2258 3.728 48.1298 3.923 48.0578 4.139C47.9858 4.349 47.9498 4.556 47.9498 4.76C47.9498 4.964 47.9918 5.111 48.0758 5.201C48.1598 5.285 48.2708 5.327 48.4088 5.327ZM55.6745 2.582H55.4945C55.4765 2.318 55.4825 2.069 55.5125 1.835C55.5425 1.595 55.6055 1.403 55.7015 1.259C55.8035 1.109 55.9475 1.034 56.1335 1.034C56.3015 1.034 56.4245 1.088 56.5025 1.196C56.5805 1.304 56.6195 1.454 56.6195 1.646C56.6195 2.024 56.5475 2.348 56.4035 2.618L56.2415 2.6C56.5655 2.486 56.9315 2.429 57.3395 2.429C57.5975 2.429 57.8015 2.48 57.9515 2.582C58.1075 2.678 58.1855 2.843 58.1855 3.077C58.1855 3.299 58.0955 3.467 57.9155 3.581C57.7355 3.695 57.5105 3.752 57.2405 3.752C57.0785 3.752 56.9045 3.746 56.7185 3.734C56.5385 3.716 56.3615 3.689 56.1875 3.653L56.3405 3.464C56.3945 3.692 56.4455 3.953 56.4935 4.247C56.5475 4.535 56.5955 4.835 56.6375 5.147C56.6795 5.459 56.7125 5.762 56.7365 6.056C56.7605 6.35 56.7725 6.614 56.7725 6.848C56.7725 7.232 56.7125 7.535 56.5925 7.757C56.4725 7.979 56.2955 8.09 56.0615 8.09C55.8755 8.09 55.7285 8.033 55.6205 7.919C55.5185 7.805 55.4435 7.661 55.3955 7.487C55.3535 7.307 55.3265 7.121 55.3145 6.929C55.3085 6.737 55.3055 6.563 55.3055 6.407C55.3055 6.143 55.3175 5.846 55.3415 5.516C55.3655 5.18 55.3985 4.835 55.4405 4.481C55.4885 4.127 55.5425 3.785 55.6025 3.455L55.7825 3.608C55.4765 3.764 55.0985 3.842 54.6485 3.842C54.3725 3.842 54.1595 3.791 54.0095 3.689C53.8595 3.587 53.7845 3.428 53.7845 3.212C53.7845 2.978 53.8685 2.798 54.0365 2.672C54.2045 2.54 54.4295 2.474 54.7115 2.474C54.8975 2.474 55.0715 2.486 55.2335 2.51C55.4015 2.528 55.5485 2.552 55.6745 2.582ZM61.3493 8.072C60.6833 8.072 60.1523 7.973 59.7563 7.775C59.3603 7.577 59.0753 7.292 58.9013 6.92C58.7273 6.548 58.6403 6.104 58.6403 5.588C58.6403 4.934 58.7603 4.379 59.0003 3.923C59.2463 3.461 59.5823 3.107 60.0083 2.861C60.4403 2.615 60.9293 2.492 61.4753 2.492C62.1173 2.492 62.5883 2.642 62.8883 2.942C63.1883 3.236 63.3383 3.623 63.3383 4.103C63.3383 4.487 63.2363 4.82 63.0323 5.102C62.8343 5.378 62.5583 5.591 62.2043 5.741C61.8503 5.891 61.4423 5.966 60.9803 5.966C60.7223 5.966 60.4733 5.933 60.2333 5.867C59.9933 5.801 59.7773 5.711 59.5853 5.597L59.8013 5.201C59.7833 5.345 59.7743 5.489 59.7743 5.633C59.7743 6.053 59.9063 6.356 60.1703 6.542C60.4343 6.722 60.8093 6.812 61.2953 6.812C61.6733 6.812 61.9763 6.779 62.2043 6.713C62.4323 6.647 62.6243 6.584 62.7803 6.524C62.9363 6.458 63.0893 6.425 63.2393 6.425C63.3233 6.425 63.3983 6.449 63.4643 6.497C63.5363 6.539 63.5933 6.602 63.6353 6.686C63.6833 6.77 63.7073 6.872 63.7073 6.992C63.7073 7.172 63.6173 7.346 63.4373 7.514C63.2573 7.676 62.9903 7.811 62.6363 7.919C62.2883 8.021 61.8593 8.072 61.3493 8.072ZM60.8273 5.129C61.2533 5.129 61.5953 5.039 61.8533 4.859C62.1113 4.679 62.2403 4.457 62.2403 4.193C62.2403 3.983 62.1683 3.812 62.0243 3.68C61.8863 3.542 61.6673 3.473 61.3673 3.473C61.0853 3.473 60.8303 3.527 60.6023 3.635C60.3803 3.737 60.2063 3.872 60.0803 4.04C59.9543 4.208 59.8913 4.391 59.8913 4.589C59.8913 4.763 59.9723 4.898 60.1343 4.994C60.3023 5.084 60.5333 5.129 60.8273 5.129ZM64.4982 3.941C64.4982 3.365 64.5522 2.951 64.6602 2.699C64.7682 2.441 64.9212 2.312 65.1192 2.312C65.2752 2.312 65.3982 2.378 65.4882 2.51C65.5782 2.636 65.6442 2.795 65.6862 2.987C65.7282 3.173 65.7492 3.362 65.7492 3.554L65.7042 3.536C65.8062 3.212 65.9622 2.933 66.1722 2.699C66.3882 2.465 66.6462 2.348 66.9462 2.348C67.3002 2.348 67.5612 2.495 67.7292 2.789C67.8972 3.077 67.9812 3.437 67.9812 3.869C67.9812 4.445 67.9152 4.847 67.7832 5.075C67.6512 5.303 67.4742 5.417 67.2522 5.417C67.0902 5.417 66.9702 5.351 66.8922 5.219C66.8202 5.087 66.7962 4.853 66.8202 4.517C66.8442 4.163 66.8232 3.917 66.7572 3.779C66.6912 3.641 66.5862 3.572 66.4422 3.572C66.2682 3.572 66.1242 3.683 66.0102 3.905C65.9022 4.121 65.8482 4.388 65.8482 4.706C65.8482 4.832 65.8632 4.991 65.8932 5.183C65.9232 5.375 65.9562 5.585 65.9922 5.813C66.0282 6.035 66.0612 6.257 66.0912 6.479C66.1212 6.701 66.1362 6.905 66.1362 7.091C66.1362 7.421 66.0852 7.658 65.9832 7.802C65.8812 7.946 65.7372 8.018 65.5512 8.018C65.3412 8.018 65.1792 7.952 65.0652 7.82C64.9512 7.682 64.8642 7.46 64.8042 7.154C64.7562 6.878 64.7082 6.551 64.6602 6.173C64.6122 5.795 64.5732 5.408 64.5432 5.012C64.5132 4.616 64.4982 4.259 64.4982 3.941ZM72.6575 3.878C72.7175 3.632 72.8225 3.41 72.9725 3.212C73.1285 3.014 73.3145 2.858 73.5305 2.744C73.7525 2.624 73.9955 2.564 74.2595 2.564C74.5715 2.564 74.8475 2.639 75.0875 2.789C75.3275 2.939 75.5165 3.185 75.6545 3.527C75.7985 3.869 75.8705 4.325 75.8705 4.895C75.8705 5.189 75.8585 5.486 75.8345 5.786C75.8105 6.086 75.7805 6.365 75.7445 6.623C75.7085 6.881 75.6695 7.097 75.6275 7.271C75.5675 7.511 75.4745 7.694 75.3485 7.82C75.2285 7.946 75.0755 8.009 74.8895 8.009C74.7335 8.009 74.6105 7.94 74.5205 7.802C74.4305 7.664 74.3855 7.466 74.3855 7.208C74.3855 7.088 74.4005 6.935 74.4305 6.749C74.4605 6.557 74.4935 6.35 74.5295 6.128C74.5655 5.9 74.5985 5.669 74.6285 5.435C74.6585 5.201 74.6735 4.979 74.6735 4.769C74.6735 4.457 74.6105 4.217 74.4845 4.049C74.3585 3.875 74.1815 3.788 73.9535 3.788C73.7015 3.788 73.4915 3.92 73.3235 4.184C73.1615 4.442 73.0655 4.82 73.0355 5.318C73.0115 5.762 72.9905 6.158 72.9725 6.506C72.9545 6.848 72.9095 7.13 72.8375 7.352C72.7895 7.508 72.7205 7.625 72.6305 7.703C72.5465 7.781 72.4325 7.82 72.2885 7.82C72.1265 7.82 71.9975 7.76 71.9015 7.64C71.8115 7.52 71.7605 7.331 71.7485 7.073C71.7365 6.857 71.7335 6.602 71.7395 6.308C71.7455 6.014 71.7485 5.723 71.7485 5.435C71.7545 5.141 71.7515 4.898 71.7395 4.706C71.7155 4.322 71.6465 4.04 71.5325 3.86C71.4245 3.68 71.2595 3.59 71.0375 3.59C70.7795 3.59 70.5725 3.71 70.4165 3.95C70.2665 4.19 70.1735 4.523 70.1375 4.949C70.1255 5.123 70.1195 5.339 70.1195 5.597C70.1255 5.849 70.1315 6.101 70.1375 6.353C70.1435 6.605 70.1405 6.815 70.1285 6.983C70.1225 7.343 70.0655 7.601 69.9575 7.757C69.8555 7.913 69.7115 7.991 69.5255 7.991C69.3035 7.991 69.1415 7.919 69.0395 7.775C68.9435 7.631 68.8805 7.4 68.8505 7.082C68.8265 6.8 68.8085 6.521 68.7965 6.245C68.7845 5.963 68.7785 5.684 68.7785 5.408C68.7785 5.126 68.7845 4.82 68.7965 4.49C68.8145 4.16 68.8385 3.848 68.8685 3.554C68.9045 3.254 68.9675 3.002 69.0575 2.798C69.1475 2.594 69.2975 2.492 69.5075 2.492C69.6815 2.492 69.8045 2.579 69.8765 2.753C69.9485 2.921 69.9845 3.182 69.9845 3.536C69.9845 3.656 69.9755 3.767 69.9575 3.869L69.9305 3.689C70.0505 3.299 70.2425 2.996 70.5065 2.78C70.7705 2.558 71.0645 2.447 71.3885 2.447C71.8145 2.447 72.1475 2.585 72.3875 2.861C72.6275 3.131 72.7595 3.506 72.7835 3.986L72.6575 3.878ZM80.9029 8.09C80.6989 8.09 80.5579 8.012 80.4799 7.856C80.4079 7.694 80.3659 7.439 80.3539 7.091L80.4439 7.136C80.1079 7.79 79.4719 8.117 78.5359 8.117C78.1099 8.117 77.7559 8.042 77.4739 7.892C77.1919 7.736 76.9819 7.532 76.8439 7.28C76.7119 7.022 76.6459 6.743 76.6459 6.443C76.6459 5.927 76.8259 5.519 77.1859 5.219C77.5459 4.913 78.0229 4.76 78.6169 4.76C79.0069 4.76 79.3459 4.817 79.6339 4.931C79.9219 5.045 80.1679 5.204 80.3719 5.408L80.2189 5.39C80.1769 4.784 80.0449 4.352 79.8229 4.094C79.6069 3.83 79.2979 3.698 78.8959 3.698C78.6619 3.698 78.4459 3.734 78.2479 3.806C78.0499 3.878 77.8669 3.953 77.6989 4.031C77.5369 4.103 77.3839 4.139 77.2399 4.139C77.0959 4.139 76.9819 4.091 76.8979 3.995C76.8199 3.899 76.7809 3.776 76.7809 3.626C76.7809 3.41 76.8829 3.206 77.0869 3.014C77.2969 2.822 77.5729 2.666 77.9149 2.546C78.2569 2.426 78.6289 2.366 79.0309 2.366C79.5169 2.366 79.9339 2.483 80.2819 2.717C80.6299 2.951 80.8939 3.293 81.0739 3.743C81.2299 4.127 81.3409 4.556 81.4069 5.03C81.4729 5.504 81.5059 6.011 81.5059 6.551C81.5059 6.959 81.4849 7.274 81.4429 7.496C81.4009 7.718 81.3349 7.874 81.2449 7.964C81.1609 8.048 81.0469 8.09 80.9029 8.09ZM78.9139 7.082C79.1119 7.082 79.3129 7.055 79.5169 7.001C79.7209 6.941 79.8919 6.854 80.0299 6.74C80.1679 6.626 80.2369 6.485 80.2369 6.317C80.2369 6.173 80.1769 6.056 80.0569 5.966C79.9429 5.87 79.7899 5.798 79.5979 5.75C79.4119 5.702 79.2109 5.678 78.9949 5.678C78.6289 5.678 78.3499 5.741 78.1579 5.867C77.9719 5.993 77.8789 6.161 77.8789 6.371C77.8789 6.599 77.9659 6.776 78.1399 6.902C78.3199 7.022 78.5779 7.082 78.9139 7.082ZM84.8807 2.366C85.4147 2.366 85.7987 2.444 86.0327 2.6C86.2667 2.756 86.3837 2.957 86.3837 3.203C86.3837 3.347 86.3327 3.467 86.2307 3.563C86.1347 3.653 85.9967 3.698 85.8167 3.698C85.6307 3.698 85.4357 3.671 85.2317 3.617C85.0337 3.563 84.8027 3.536 84.5387 3.536C84.2327 3.536 84.0047 3.596 83.8547 3.716C83.7047 3.836 83.6297 3.989 83.6297 4.175C83.6297 4.349 83.6957 4.487 83.8277 4.589C83.9657 4.685 84.2267 4.757 84.6107 4.805C85.0367 4.853 85.3877 4.931 85.6637 5.039C85.9457 5.141 86.1557 5.297 86.2937 5.507C86.4317 5.711 86.5007 5.993 86.5007 6.353C86.5007 6.923 86.2997 7.346 85.8977 7.622C85.4957 7.898 84.9407 8.036 84.2327 8.036C83.7827 8.036 83.4257 8 83.1617 7.928C82.8977 7.856 82.7057 7.754 82.5857 7.622C82.4717 7.49 82.4147 7.334 82.4147 7.154C82.4147 6.998 82.4657 6.878 82.5677 6.794C82.6757 6.704 82.8017 6.659 82.9457 6.659C83.0837 6.659 83.2307 6.677 83.3867 6.713C83.5427 6.743 83.7077 6.776 83.8817 6.812C84.0557 6.848 84.2357 6.866 84.4217 6.866C85.0217 6.866 85.3217 6.68 85.3217 6.308C85.3217 6.182 85.2917 6.08 85.2317 6.002C85.1717 5.924 85.0637 5.861 84.9077 5.813C84.7517 5.759 84.5237 5.717 84.2237 5.687C83.8637 5.651 83.5517 5.591 83.2877 5.507C83.0237 5.417 82.8197 5.273 82.6757 5.075C82.5317 4.871 82.4597 4.592 82.4597 4.238C82.4597 3.68 82.6697 3.23 83.0897 2.888C83.5097 2.54 84.1067 2.366 84.8807 2.366ZM91.4613 7.946C91.2993 7.946 91.1733 7.892 91.0833 7.784C90.9993 7.67 90.9423 7.526 90.9123 7.352C90.8823 7.172 90.8673 6.983 90.8673 6.785L90.9123 6.749C90.8523 7.007 90.7353 7.229 90.5613 7.415C90.3873 7.601 90.1863 7.745 89.9583 7.847C89.7303 7.943 89.5023 7.991 89.2743 7.991C88.9683 7.991 88.6893 7.919 88.4373 7.775C88.1853 7.631 87.9903 7.409 87.8523 7.109C87.7143 6.791 87.6063 6.392 87.5283 5.912C87.4503 5.426 87.4113 4.928 87.4113 4.418C87.4113 4.142 87.4233 3.887 87.4473 3.653C87.4713 3.419 87.5103 3.227 87.5643 3.077C87.6123 2.921 87.6843 2.807 87.7803 2.735C87.8763 2.657 87.9993 2.618 88.1493 2.618C88.3233 2.618 88.4583 2.687 88.5543 2.825C88.6563 2.957 88.7193 3.143 88.7433 3.383C88.7673 3.581 88.7823 3.827 88.7883 4.121C88.8003 4.409 88.8093 4.7 88.8153 4.994C88.8273 5.282 88.8423 5.525 88.8603 5.723C88.8963 6.083 88.9893 6.35 89.1393 6.524C89.2893 6.692 89.4723 6.776 89.6883 6.776C90.0063 6.776 90.2493 6.656 90.4173 6.416C90.5853 6.176 90.6693 5.84 90.6693 5.408C90.6693 5.192 90.6573 4.949 90.6333 4.679C90.6093 4.403 90.5823 4.136 90.5523 3.878C90.5283 3.62 90.5163 3.407 90.5163 3.239C90.5163 2.957 90.5643 2.756 90.6603 2.636C90.7563 2.51 90.8883 2.447 91.0563 2.447C91.2003 2.447 91.3203 2.486 91.4163 2.564C91.5183 2.642 91.5993 2.75 91.6593 2.888C91.7433 3.068 91.8153 3.314 91.8753 3.626C91.9353 3.938 91.9833 4.292 92.0193 4.688C92.0553 5.084 92.0733 5.501 92.0733 5.939C92.0733 6.611 92.0283 7.115 91.9383 7.451C91.8483 7.781 91.6893 7.946 91.4613 7.946ZM93.7801 8.09C93.6661 8.09 93.5731 8.057 93.5011 7.991C93.4291 7.919 93.3781 7.817 93.3481 7.685C93.3001 7.463 93.2581 7.142 93.2221 6.722C93.1861 6.302 93.1681 5.837 93.1681 5.327C93.1681 4.697 93.1891 4.091 93.2311 3.509C93.2791 2.927 93.3391 2.45 93.4111 2.078C93.4891 1.676 93.5851 1.382 93.6991 1.196C93.8131 1.004 93.9631 0.908 94.1491 0.908C94.3171 0.908 94.4461 0.986 94.5361 1.142C94.6261 1.292 94.6711 1.553 94.6711 1.925C94.6711 2.297 94.6561 2.696 94.6261 3.122C94.6021 3.548 94.5601 4.004 94.5001 4.49H94.5361C94.9261 3.962 95.2891 3.539 95.6251 3.221C95.9671 2.903 96.2791 2.672 96.5611 2.528C96.8491 2.384 97.1041 2.312 97.3261 2.312C97.5001 2.312 97.6291 2.366 97.7131 2.474C97.7971 2.582 97.8391 2.714 97.8391 2.87C97.8391 3.176 97.5931 3.518 97.1011 3.896C96.6151 4.274 95.9131 4.661 94.9951 5.057L95.0041 4.913C95.5741 5.207 96.0631 5.516 96.4711 5.84C96.8851 6.158 97.2001 6.461 97.4161 6.749C97.6381 7.031 97.7491 7.268 97.7491 7.46C97.7491 7.616 97.6981 7.745 97.5961 7.847C97.5001 7.943 97.3591 7.991 97.1731 7.991C96.9391 7.991 96.6781 7.904 96.3901 7.73C96.1081 7.55 95.8141 7.283 95.5081 6.929C95.2021 6.575 94.8961 6.131 94.5901 5.597H94.5541C94.5481 5.975 94.5241 6.344 94.4821 6.704C94.4461 7.058 94.3981 7.349 94.3381 7.577C94.2961 7.733 94.2301 7.859 94.1401 7.955C94.0561 8.045 93.9361 8.09 93.7801 8.09ZM100.978 8.09C100.864 8.09 100.771 8.057 100.699 7.991C100.627 7.919 100.576 7.817 100.546 7.685C100.498 7.463 100.456 7.142 100.42 6.722C100.384 6.302 100.366 5.837 100.366 5.327C100.366 4.697 100.387 4.091 100.429 3.509C100.477 2.927 100.537 2.45 100.609 2.078C100.687 1.676 100.783 1.382 100.897 1.196C101.011 1.004 101.161 0.908 101.347 0.908C101.515 0.908 101.644 0.986 101.734 1.142C101.824 1.292 101.869 1.553 101.869 1.925C101.869 2.297 101.854 2.696 101.824 3.122C101.8 3.548 101.758 4.004 101.698 4.49H101.734C102.124 3.962 102.487 3.539 102.823 3.221C103.165 2.903 103.477 2.672 103.759 2.528C104.047 2.384 104.302 2.312 104.524 2.312C104.698 2.312 104.827 2.366 104.911 2.474C104.995 2.582 105.037 2.714 105.037 2.87C105.037 3.176 104.791 3.518 104.299 3.896C103.813 4.274 103.111 4.661 102.193 5.057L102.202 4.913C102.772 5.207 103.261 5.516 103.669 5.84C104.083 6.158 104.398 6.461 104.614 6.749C104.836 7.031 104.947 7.268 104.947 7.46C104.947 7.616 104.896 7.745 104.794 7.847C104.698 7.943 104.557 7.991 104.371 7.991C104.137 7.991 103.876 7.904 103.588 7.73C103.306 7.55 103.012 7.283 102.706 6.929C102.4 6.575 102.094 6.131 101.788 5.597H101.752C101.746 5.975 101.722 6.344 101.68 6.704C101.644 7.058 101.596 7.349 101.536 7.577C101.494 7.733 101.428 7.859 101.338 7.955C101.254 8.045 101.134 8.09 100.978 8.09ZM108.195 8.072C107.529 8.072 106.998 7.973 106.602 7.775C106.206 7.577 105.921 7.292 105.747 6.92C105.573 6.548 105.486 6.104 105.486 5.588C105.486 4.934 105.606 4.379 105.846 3.923C106.092 3.461 106.428 3.107 106.854 2.861C107.286 2.615 107.775 2.492 108.321 2.492C108.963 2.492 109.434 2.642 109.734 2.942C110.034 3.236 110.184 3.623 110.184 4.103C110.184 4.487 110.082 4.82 109.878 5.102C109.68 5.378 109.404 5.591 109.05 5.741C108.696 5.891 108.288 5.966 107.826 5.966C107.568 5.966 107.319 5.933 107.079 5.867C106.839 5.801 106.623 5.711 106.431 5.597L106.647 5.201C106.629 5.345 106.62 5.489 106.62 5.633C106.62 6.053 106.752 6.356 107.016 6.542C107.28 6.722 107.655 6.812 108.141 6.812C108.519 6.812 108.822 6.779 109.05 6.713C109.278 6.647 109.47 6.584 109.626 6.524C109.782 6.458 109.935 6.425 110.085 6.425C110.169 6.425 110.244 6.449 110.31 6.497C110.382 6.539 110.439 6.602 110.481 6.686C110.529 6.77 110.553 6.872 110.553 6.992C110.553 7.172 110.463 7.346 110.283 7.514C110.103 7.676 109.836 7.811 109.482 7.919C109.134 8.021 108.705 8.072 108.195 8.072ZM107.673 5.129C108.099 5.129 108.441 5.039 108.699 4.859C108.957 4.679 109.086 4.457 109.086 4.193C109.086 3.983 109.014 3.812 108.87 3.68C108.732 3.542 108.513 3.473 108.213 3.473C107.931 3.473 107.676 3.527 107.448 3.635C107.226 3.737 107.052 3.872 106.926 4.04C106.8 4.208 106.737 4.391 106.737 4.589C106.737 4.763 106.818 4.898 106.98 4.994C107.148 5.084 107.379 5.129 107.673 5.129ZM114.829 8.126C114.241 8.126 113.782 7.907 113.452 7.469C113.122 7.025 112.957 6.35 112.957 5.444C112.957 4.544 113.119 3.887 113.443 3.473C113.773 3.053 114.244 2.843 114.856 2.843C115.204 2.843 115.507 2.915 115.765 3.059C116.029 3.203 116.263 3.407 116.467 3.671L116.395 3.707C116.341 3.461 116.287 3.2 116.233 2.924C116.179 2.648 116.134 2.387 116.098 2.141C116.068 1.889 116.053 1.691 116.053 1.547C116.053 1.343 116.086 1.187 116.152 1.079C116.218 0.965 116.323 0.908 116.467 0.908C116.671 0.908 116.836 0.995 116.962 1.169C117.088 1.337 117.193 1.598 117.277 1.952C117.355 2.27 117.424 2.648 117.484 3.086C117.544 3.518 117.592 3.971 117.628 4.445C117.67 4.913 117.691 5.363 117.691 5.795C117.691 6.395 117.658 6.863 117.592 7.199C117.532 7.529 117.445 7.76 117.331 7.892C117.223 8.024 117.094 8.09 116.944 8.09C116.758 8.09 116.632 7.997 116.566 7.811C116.5 7.625 116.473 7.322 116.485 6.902H116.62C116.458 7.274 116.221 7.571 115.909 7.793C115.603 8.015 115.243 8.126 114.829 8.126ZM115.306 7.01C115.522 7.01 115.72 6.956 115.9 6.848C116.086 6.734 116.233 6.56 116.341 6.326C116.455 6.092 116.512 5.795 116.512 5.435C116.512 4.973 116.407 4.598 116.197 4.31C115.987 4.016 115.684 3.869 115.288 3.869C114.976 3.869 114.721 3.998 114.523 4.256C114.331 4.514 114.235 4.904 114.235 5.426C114.235 5.888 114.331 6.269 114.523 6.569C114.721 6.863 114.982 7.01 115.306 7.01ZM122.721 8.09C122.517 8.09 122.376 8.012 122.298 7.856C122.226 7.694 122.184 7.439 122.172 7.091L122.262 7.136C121.926 7.79 121.29 8.117 120.354 8.117C119.928 8.117 119.574 8.042 119.292 7.892C119.01 7.736 118.8 7.532 118.662 7.28C118.53 7.022 118.464 6.743 118.464 6.443C118.464 5.927 118.644 5.519 119.004 5.219C119.364 4.913 119.841 4.76 120.435 4.76C120.825 4.76 121.164 4.817 121.452 4.931C121.74 5.045 121.986 5.204 122.19 5.408L122.037 5.39C121.995 4.784 121.863 4.352 121.641 4.094C121.425 3.83 121.116 3.698 120.714 3.698C120.48 3.698 120.264 3.734 120.066 3.806C119.868 3.878 119.685 3.953 119.517 4.031C119.355 4.103 119.202 4.139 119.058 4.139C118.914 4.139 118.8 4.091 118.716 3.995C118.638 3.899 118.599 3.776 118.599 3.626C118.599 3.41 118.701 3.206 118.905 3.014C119.115 2.822 119.391 2.666 119.733 2.546C120.075 2.426 120.447 2.366 120.849 2.366C121.335 2.366 121.752 2.483 122.1 2.717C122.448 2.951 122.712 3.293 122.892 3.743C123.048 4.127 123.159 4.556 123.225 5.03C123.291 5.504 123.324 6.011 123.324 6.551C123.324 6.959 123.303 7.274 123.261 7.496C123.219 7.718 123.153 7.874 123.063 7.964C122.979 8.048 122.865 8.09 122.721 8.09ZM120.732 7.082C120.93 7.082 121.131 7.055 121.335 7.001C121.539 6.941 121.71 6.854 121.848 6.74C121.986 6.626 122.055 6.485 122.055 6.317C122.055 6.173 121.995 6.056 121.875 5.966C121.761 5.87 121.608 5.798 121.416 5.75C121.23 5.702 121.029 5.678 120.813 5.678C120.447 5.678 120.168 5.741 119.976 5.867C119.79 5.993 119.697 6.161 119.697 6.371C119.697 6.599 119.784 6.776 119.958 6.902C120.138 7.022 120.396 7.082 120.732 7.082ZM125.394 8.018C125.208 8.018 125.061 7.976 124.953 7.892C124.845 7.802 124.758 7.655 124.692 7.451C124.602 7.151 124.533 6.773 124.485 6.317C124.443 5.855 124.422 5.288 124.422 4.616C124.422 4.202 124.437 3.788 124.467 3.374C124.503 2.954 124.548 2.573 124.602 2.231C124.656 1.883 124.713 1.613 124.773 1.421C124.839 1.217 124.917 1.076 125.007 0.997999C125.097 0.92 125.199 0.881 125.313 0.881C125.433 0.881 125.529 0.923 125.601 1.007C125.673 1.085 125.73 1.226 125.772 1.43C125.808 1.628 125.835 1.871 125.853 2.159C125.877 2.447 125.889 2.756 125.889 3.086C125.889 3.536 125.868 4.01 125.826 4.508C125.784 5.006 125.727 5.495 125.655 5.975C125.589 6.455 125.508 6.896 125.412 7.298L125.16 7.172C125.316 6.98 125.493 6.83 125.691 6.722C125.895 6.614 126.081 6.56 126.249 6.56C126.387 6.56 126.492 6.599 126.564 6.677C126.642 6.749 126.681 6.863 126.681 7.019C126.681 7.175 126.612 7.331 126.474 7.487C126.342 7.643 126.177 7.772 125.979 7.874C125.781 7.97 125.586 8.018 125.394 8.018ZM131.431 8.09C131.227 8.09 131.086 8.012 131.008 7.856C130.936 7.694 130.894 7.439 130.882 7.091L130.972 7.136C130.636 7.79 130 8.117 129.064 8.117C128.638 8.117 128.284 8.042 128.002 7.892C127.72 7.736 127.51 7.532 127.372 7.28C127.24 7.022 127.174 6.743 127.174 6.443C127.174 5.927 127.354 5.519 127.714 5.219C128.074 4.913 128.551 4.76 129.145 4.76C129.535 4.76 129.874 4.817 130.162 4.931C130.45 5.045 130.696 5.204 130.9 5.408L130.747 5.39C130.705 4.784 130.573 4.352 130.351 4.094C130.135 3.83 129.826 3.698 129.424 3.698C129.19 3.698 128.974 3.734 128.776 3.806C128.578 3.878 128.395 3.953 128.227 4.031C128.065 4.103 127.912 4.139 127.768 4.139C127.624 4.139 127.51 4.091 127.426 3.995C127.348 3.899 127.309 3.776 127.309 3.626C127.309 3.41 127.411 3.206 127.615 3.014C127.825 2.822 128.101 2.666 128.443 2.546C128.785 2.426 129.157 2.366 129.559 2.366C130.045 2.366 130.462 2.483 130.81 2.717C131.158 2.951 131.422 3.293 131.602 3.743C131.758 4.127 131.869 4.556 131.935 5.03C132.001 5.504 132.034 6.011 132.034 6.551C132.034 6.959 132.013 7.274 131.971 7.496C131.929 7.718 131.863 7.874 131.773 7.964C131.689 8.048 131.575 8.09 131.431 8.09ZM129.442 7.082C129.64 7.082 129.841 7.055 130.045 7.001C130.249 6.941 130.42 6.854 130.558 6.74C130.696 6.626 130.765 6.485 130.765 6.317C130.765 6.173 130.705 6.056 130.585 5.966C130.471 5.87 130.318 5.798 130.126 5.75C129.94 5.702 129.739 5.678 129.523 5.678C129.157 5.678 128.878 5.741 128.686 5.867C128.5 5.993 128.407 6.161 128.407 6.371C128.407 6.599 128.494 6.776 128.668 6.902C128.848 7.022 129.106 7.082 129.442 7.082ZM137.011 3.878C137.071 3.632 137.176 3.41 137.326 3.212C137.482 3.014 137.668 2.858 137.884 2.744C138.106 2.624 138.349 2.564 138.613 2.564C138.925 2.564 139.201 2.639 139.441 2.789C139.681 2.939 139.87 3.185 140.008 3.527C140.152 3.869 140.224 4.325 140.224 4.895C140.224 5.189 140.212 5.486 140.188 5.786C140.164 6.086 140.134 6.365 140.098 6.623C140.062 6.881 140.023 7.097 139.981 7.271C139.921 7.511 139.828 7.694 139.702 7.82C139.582 7.946 139.429 8.009 139.243 8.009C139.087 8.009 138.964 7.94 138.874 7.802C138.784 7.664 138.739 7.466 138.739 7.208C138.739 7.088 138.754 6.935 138.784 6.749C138.814 6.557 138.847 6.35 138.883 6.128C138.919 5.9 138.952 5.669 138.982 5.435C139.012 5.201 139.027 4.979 139.027 4.769C139.027 4.457 138.964 4.217 138.838 4.049C138.712 3.875 138.535 3.788 138.307 3.788C138.055 3.788 137.845 3.92 137.677 4.184C137.515 4.442 137.419 4.82 137.389 5.318C137.365 5.762 137.344 6.158 137.326 6.506C137.308 6.848 137.263 7.13 137.191 7.352C137.143 7.508 137.074 7.625 136.984 7.703C136.9 7.781 136.786 7.82 136.642 7.82C136.48 7.82 136.351 7.76 136.255 7.64C136.165 7.52 136.114 7.331 136.102 7.073C136.09 6.857 136.087 6.602 136.093 6.308C136.099 6.014 136.102 5.723 136.102 5.435C136.108 5.141 136.105 4.898 136.093 4.706C136.069 4.322 136 4.04 135.886 3.86C135.778 3.68 135.613 3.59 135.391 3.59C135.133 3.59 134.926 3.71 134.77 3.95C134.62 4.19 134.527 4.523 134.491 4.949C134.479 5.123 134.473 5.339 134.473 5.597C134.479 5.849 134.485 6.101 134.491 6.353C134.497 6.605 134.494 6.815 134.482 6.983C134.476 7.343 134.419 7.601 134.311 7.757C134.209 7.913 134.065 7.991 133.879 7.991C133.657 7.991 133.495 7.919 133.393 7.775C133.297 7.631 133.234 7.4 133.204 7.082C133.18 6.8 133.162 6.521 133.15 6.245C133.138 5.963 133.132 5.684 133.132 5.408C133.132 5.126 133.138 4.82 133.15 4.49C133.168 4.16 133.192 3.848 133.222 3.554C133.258 3.254 133.321 3.002 133.411 2.798C133.501 2.594 133.651 2.492 133.861 2.492C134.035 2.492 134.158 2.579 134.23 2.753C134.302 2.921 134.338 3.182 134.338 3.536C134.338 3.656 134.329 3.767 134.311 3.869L134.284 3.689C134.404 3.299 134.596 2.996 134.86 2.78C135.124 2.558 135.418 2.447 135.742 2.447C136.168 2.447 136.501 2.585 136.741 2.861C136.981 3.131 137.113 3.506 137.137 3.986L137.011 3.878ZM143.809 8.09C143.677 8.09 143.569 8.045 143.485 7.955C143.407 7.865 143.344 7.736 143.296 7.568C143.248 7.322 143.206 7.001 143.17 6.605C143.14 6.203 143.125 5.774 143.125 5.318C143.125 5.06 143.131 4.769 143.143 4.445C143.155 4.121 143.17 3.794 143.188 3.464C143.212 3.128 143.236 2.816 143.26 2.528C143.29 2.24 143.32 2.006 143.35 1.826C143.398 1.562 143.467 1.355 143.557 1.205C143.653 1.049 143.803 0.971 144.007 0.971C144.217 0.971 144.37 1.052 144.466 1.214C144.562 1.37 144.61 1.565 144.61 1.799C144.61 2.063 144.589 2.375 144.547 2.735C144.511 3.095 144.454 3.461 144.376 3.833L144.196 4.049C144.262 3.797 144.37 3.566 144.52 3.356C144.67 3.146 144.859 2.981 145.087 2.861C145.315 2.735 145.579 2.672 145.879 2.672C146.467 2.672 146.935 2.882 147.283 3.302C147.637 3.716 147.814 4.364 147.814 5.246C147.814 5.864 147.721 6.38 147.535 6.794C147.355 7.208 147.106 7.52 146.788 7.73C146.476 7.934 146.119 8.036 145.717 8.036C145.339 8.036 145.012 7.925 144.736 7.703C144.466 7.481 144.292 7.16 144.214 6.74L144.34 6.839C144.316 7.271 144.256 7.589 144.16 7.793C144.07 7.991 143.953 8.09 143.809 8.09ZM145.456 6.992C145.756 6.992 146.02 6.857 146.248 6.587C146.476 6.317 146.59 5.894 146.59 5.318C146.59 4.838 146.5 4.448 146.32 4.148C146.146 3.848 145.852 3.698 145.438 3.698C145.102 3.698 144.832 3.833 144.628 4.103C144.424 4.367 144.322 4.769 144.322 5.309C144.322 5.801 144.424 6.206 144.628 6.524C144.832 6.836 145.108 6.992 145.456 6.992ZM152.657 8.09C152.453 8.09 152.312 8.012 152.234 7.856C152.162 7.694 152.12 7.439 152.108 7.091L152.198 7.136C151.862 7.79 151.226 8.117 150.29 8.117C149.864 8.117 149.51 8.042 149.228 7.892C148.946 7.736 148.736 7.532 148.598 7.28C148.466 7.022 148.4 6.743 148.4 6.443C148.4 5.927 148.58 5.519 148.94 5.219C149.3 4.913 149.777 4.76 150.371 4.76C150.761 4.76 151.1 4.817 151.388 4.931C151.676 5.045 151.922 5.204 152.126 5.408L151.973 5.39C151.931 4.784 151.799 4.352 151.577 4.094C151.361 3.83 151.052 3.698 150.65 3.698C150.416 3.698 150.2 3.734 150.002 3.806C149.804 3.878 149.621 3.953 149.453 4.031C149.291 4.103 149.138 4.139 148.994 4.139C148.85 4.139 148.736 4.091 148.652 3.995C148.574 3.899 148.535 3.776 148.535 3.626C148.535 3.41 148.637 3.206 148.841 3.014C149.051 2.822 149.327 2.666 149.669 2.546C150.011 2.426 150.383 2.366 150.785 2.366C151.271 2.366 151.688 2.483 152.036 2.717C152.384 2.951 152.648 3.293 152.828 3.743C152.984 4.127 153.095 4.556 153.161 5.03C153.227 5.504 153.26 6.011 153.26 6.551C153.26 6.959 153.239 7.274 153.197 7.496C153.155 7.718 153.089 7.874 152.999 7.964C152.915 8.048 152.801 8.09 152.657 8.09ZM150.668 7.082C150.866 7.082 151.067 7.055 151.271 7.001C151.475 6.941 151.646 6.854 151.784 6.74C151.922 6.626 151.991 6.485 151.991 6.317C151.991 6.173 151.931 6.056 151.811 5.966C151.697 5.87 151.544 5.798 151.352 5.75C151.166 5.702 150.965 5.678 150.749 5.678C150.383 5.678 150.104 5.741 149.912 5.867C149.726 5.993 149.633 6.161 149.633 6.371C149.633 6.599 149.72 6.776 149.894 6.902C150.074 7.022 150.332 7.082 150.668 7.082ZM155.276 2.402C155.468 2.402 155.597 2.48 155.663 2.636C155.735 2.792 155.771 3.023 155.771 3.329C155.771 3.401 155.765 3.479 155.753 3.563C155.747 3.641 155.735 3.713 155.717 3.779L155.699 3.599C155.843 3.209 156.065 2.906 156.365 2.69C156.665 2.468 156.983 2.357 157.319 2.357C157.691 2.357 158 2.462 158.246 2.672C158.498 2.882 158.684 3.176 158.804 3.554C158.93 3.932 158.993 4.379 158.993 4.895C158.993 5.213 158.978 5.528 158.948 5.84C158.924 6.146 158.888 6.428 158.84 6.686C158.798 6.938 158.75 7.145 158.696 7.307C158.624 7.511 158.531 7.664 158.417 7.766C158.303 7.862 158.168 7.91 158.012 7.91C157.856 7.91 157.736 7.853 157.652 7.739C157.568 7.625 157.526 7.472 157.526 7.28C157.526 7.076 157.541 6.83 157.571 6.542C157.601 6.248 157.628 5.951 157.652 5.651C157.682 5.345 157.697 5.069 157.697 4.823C157.697 3.983 157.421 3.563 156.869 3.563C156.575 3.563 156.329 3.695 156.131 3.959C155.933 4.217 155.801 4.586 155.735 5.066C155.717 5.228 155.708 5.429 155.708 5.669C155.708 5.909 155.708 6.149 155.708 6.389C155.714 6.623 155.708 6.821 155.69 6.983C155.666 7.343 155.597 7.601 155.483 7.757C155.375 7.913 155.225 7.991 155.033 7.991C154.811 7.991 154.643 7.889 154.529 7.685C154.415 7.475 154.358 7.124 154.358 6.632C154.358 6.38 154.364 6.098 154.376 5.786C154.388 5.474 154.403 5.162 154.421 4.85C154.445 4.532 154.472 4.244 154.502 3.986C154.562 3.5 154.649 3.116 154.763 2.834C154.877 2.546 155.048 2.402 155.276 2.402ZM161.807 7.856C161.243 7.856 160.784 7.64 160.43 7.208C160.076 6.77 159.899 6.107 159.899 5.219C159.899 4.271 160.07 3.578 160.412 3.14C160.754 2.702 161.204 2.483 161.762 2.483C162.092 2.483 162.383 2.567 162.635 2.735C162.887 2.903 163.103 3.14 163.283 3.446L163.211 3.572C163.193 3.488 163.178 3.398 163.166 3.302C163.154 3.206 163.148 3.134 163.148 3.086C163.148 2.84 163.187 2.651 163.265 2.519C163.349 2.381 163.478 2.312 163.652 2.312C163.844 2.312 163.994 2.39 164.102 2.546C164.216 2.702 164.303 2.924 164.363 3.212C164.441 3.506 164.507 3.881 164.561 4.337C164.615 4.787 164.642 5.243 164.642 5.705C164.642 6.281 164.621 6.764 164.579 7.154C164.537 7.544 164.468 7.868 164.372 8.126C164.276 8.384 164.15 8.609 163.994 8.801C163.736 9.113 163.403 9.35 162.995 9.512C162.593 9.68 162.128 9.764 161.6 9.764C161.222 9.764 160.919 9.728 160.691 9.656C160.463 9.59 160.298 9.497 160.196 9.377C160.1 9.263 160.052 9.134 160.052 8.99C160.052 8.84 160.094 8.714 160.178 8.612C160.262 8.516 160.388 8.468 160.556 8.468C160.706 8.468 160.88 8.492 161.078 8.54C161.282 8.588 161.522 8.612 161.798 8.612C162.38 8.612 162.791 8.474 163.031 8.198C163.277 7.928 163.4 7.538 163.4 7.028C163.4 6.89 163.391 6.728 163.373 6.542L163.499 6.587C163.349 6.971 163.127 7.28 162.833 7.514C162.539 7.742 162.197 7.856 161.807 7.856ZM162.149 6.749C162.341 6.749 162.533 6.698 162.725 6.596C162.917 6.494 163.076 6.326 163.202 6.092C163.328 5.858 163.391 5.543 163.391 5.147C163.391 4.673 163.28 4.286 163.058 3.986C162.836 3.686 162.524 3.536 162.122 3.536C161.774 3.536 161.519 3.668 161.357 3.932C161.195 4.196 161.114 4.595 161.114 5.129C161.114 5.639 161.195 6.038 161.357 6.326C161.519 6.608 161.783 6.749 162.149 6.749ZM169.789 7.946C169.627 7.946 169.501 7.892 169.411 7.784C169.327 7.67 169.27 7.526 169.24 7.352C169.21 7.172 169.195 6.983 169.195 6.785L169.24 6.749C169.18 7.007 169.063 7.229 168.889 7.415C168.715 7.601 168.514 7.745 168.286 7.847C168.058 7.943 167.83 7.991 167.602 7.991C167.296 7.991 167.017 7.919 166.765 7.775C166.513 7.631 166.318 7.409 166.18 7.109C166.042 6.791 165.934 6.392 165.856 5.912C165.778 5.426 165.739 4.928 165.739 4.418C165.739 4.142 165.751 3.887 165.775 3.653C165.799 3.419 165.838 3.227 165.892 3.077C165.94 2.921 166.012 2.807 166.108 2.735C166.204 2.657 166.327 2.618 166.477 2.618C166.651 2.618 166.786 2.687 166.882 2.825C166.984 2.957 167.047 3.143 167.071 3.383C167.095 3.581 167.11 3.827 167.116 4.121C167.128 4.409 167.137 4.7 167.143 4.994C167.155 5.282 167.17 5.525 167.188 5.723C167.224 6.083 167.317 6.35 167.467 6.524C167.617 6.692 167.8 6.776 168.016 6.776C168.334 6.776 168.577 6.656 168.745 6.416C168.913 6.176 168.997 5.84 168.997 5.408C168.997 5.192 168.985 4.949 168.961 4.679C168.937 4.403 168.91 4.136 168.88 3.878C168.856 3.62 168.844 3.407 168.844 3.239C168.844 2.957 168.892 2.756 168.988 2.636C169.084 2.51 169.216 2.447 169.384 2.447C169.528 2.447 169.648 2.486 169.744 2.564C169.846 2.642 169.927 2.75 169.987 2.888C170.071 3.068 170.143 3.314 170.203 3.626C170.263 3.938 170.311 4.292 170.347 4.688C170.383 5.084 170.401 5.501 170.401 5.939C170.401 6.611 170.356 7.115 170.266 7.451C170.176 7.781 170.017 7.946 169.789 7.946ZM172.414 2.402C172.606 2.402 172.735 2.48 172.801 2.636C172.873 2.792 172.909 3.023 172.909 3.329C172.909 3.401 172.903 3.479 172.891 3.563C172.885 3.641 172.873 3.713 172.855 3.779L172.837 3.599C172.981 3.209 173.203 2.906 173.503 2.69C173.803 2.468 174.121 2.357 174.457 2.357C174.829 2.357 175.138 2.462 175.384 2.672C175.636 2.882 175.822 3.176 175.942 3.554C176.068 3.932 176.131 4.379 176.131 4.895C176.131 5.213 176.116 5.528 176.086 5.84C176.062 6.146 176.026 6.428 175.978 6.686C175.936 6.938 175.888 7.145 175.834 7.307C175.762 7.511 175.669 7.664 175.555 7.766C175.441 7.862 175.306 7.91 175.15 7.91C174.994 7.91 174.874 7.853 174.79 7.739C174.706 7.625 174.664 7.472 174.664 7.28C174.664 7.076 174.679 6.83 174.709 6.542C174.739 6.248 174.766 5.951 174.79 5.651C174.82 5.345 174.835 5.069 174.835 4.823C174.835 3.983 174.559 3.563 174.007 3.563C173.713 3.563 173.467 3.695 173.269 3.959C173.071 4.217 172.939 4.586 172.873 5.066C172.855 5.228 172.846 5.429 172.846 5.669C172.846 5.909 172.846 6.149 172.846 6.389C172.852 6.623 172.846 6.821 172.828 6.983C172.804 7.343 172.735 7.601 172.621 7.757C172.513 7.913 172.363 7.991 172.171 7.991C171.949 7.991 171.781 7.889 171.667 7.685C171.553 7.475 171.496 7.124 171.496 6.632C171.496 6.38 171.502 6.098 171.514 5.786C171.526 5.474 171.541 5.162 171.559 4.85C171.583 4.532 171.61 4.244 171.64 3.986C171.7 3.5 171.787 3.116 171.901 2.834C172.015 2.546 172.186 2.402 172.414 2.402ZM180.711 8.126C180.123 8.126 179.664 7.907 179.334 7.469C179.004 7.025 178.839 6.35 178.839 5.444C178.839 4.544 179.001 3.887 179.325 3.473C179.655 3.053 180.126 2.843 180.738 2.843C181.086 2.843 181.389 2.915 181.647 3.059C181.911 3.203 182.145 3.407 182.349 3.671L182.277 3.707C182.223 3.461 182.169 3.2 182.115 2.924C182.061 2.648 182.016 2.387 181.98 2.141C181.95 1.889 181.935 1.691 181.935 1.547C181.935 1.343 181.968 1.187 182.034 1.079C182.1 0.965 182.205 0.908 182.349 0.908C182.553 0.908 182.718 0.995 182.844 1.169C182.97 1.337 183.075 1.598 183.159 1.952C183.237 2.27 183.306 2.648 183.366 3.086C183.426 3.518 183.474 3.971 183.51 4.445C183.552 4.913 183.573 5.363 183.573 5.795C183.573 6.395 183.54 6.863 183.474 7.199C183.414 7.529 183.327 7.76 183.213 7.892C183.105 8.024 182.976 8.09 182.826 8.09C182.64 8.09 182.514 7.997 182.448 7.811C182.382 7.625 182.355 7.322 182.367 6.902H182.502C182.34 7.274 182.103 7.571 181.791 7.793C181.485 8.015 181.125 8.126 180.711 8.126ZM181.188 7.01C181.404 7.01 181.602 6.956 181.782 6.848C181.968 6.734 182.115 6.56 182.223 6.326C182.337 6.092 182.394 5.795 182.394 5.435C182.394 4.973 182.289 4.598 182.079 4.31C181.869 4.016 181.566 3.869 181.17 3.869C180.858 3.869 180.603 3.998 180.405 4.256C180.213 4.514 180.117 4.904 180.117 5.426C180.117 5.888 180.213 6.269 180.405 6.569C180.603 6.863 180.864 7.01 181.188 7.01ZM188.604 8.09C188.4 8.09 188.259 8.012 188.181 7.856C188.109 7.694 188.067 7.439 188.055 7.091L188.145 7.136C187.809 7.79 187.173 8.117 186.237 8.117C185.811 8.117 185.457 8.042 185.175 7.892C184.893 7.736 184.683 7.532 184.545 7.28C184.413 7.022 184.347 6.743 184.347 6.443C184.347 5.927 184.527 5.519 184.887 5.219C185.247 4.913 185.724 4.76 186.318 4.76C186.708 4.76 187.047 4.817 187.335 4.931C187.623 5.045 187.869 5.204 188.073 5.408L187.92 5.39C187.878 4.784 187.746 4.352 187.524 4.094C187.308 3.83 186.999 3.698 186.597 3.698C186.363 3.698 186.147 3.734 185.949 3.806C185.751 3.878 185.568 3.953 185.4 4.031C185.238 4.103 185.085 4.139 184.941 4.139C184.797 4.139 184.683 4.091 184.599 3.995C184.521 3.899 184.482 3.776 184.482 3.626C184.482 3.41 184.584 3.206 184.788 3.014C184.998 2.822 185.274 2.666 185.616 2.546C185.958 2.426 186.33 2.366 186.732 2.366C187.218 2.366 187.635 2.483 187.983 2.717C188.331 2.951 188.595 3.293 188.775 3.743C188.931 4.127 189.042 4.556 189.108 5.03C189.174 5.504 189.207 6.011 189.207 6.551C189.207 6.959 189.186 7.274 189.144 7.496C189.102 7.718 189.036 7.874 188.946 7.964C188.862 8.048 188.748 8.09 188.604 8.09ZM186.615 7.082C186.813 7.082 187.014 7.055 187.218 7.001C187.422 6.941 187.593 6.854 187.731 6.74C187.869 6.626 187.938 6.485 187.938 6.317C187.938 6.173 187.878 6.056 187.758 5.966C187.644 5.87 187.491 5.798 187.299 5.75C187.113 5.702 186.912 5.678 186.696 5.678C186.33 5.678 186.051 5.741 185.859 5.867C185.673 5.993 185.58 6.161 185.58 6.371C185.58 6.599 185.667 6.776 185.841 6.902C186.021 7.022 186.279 7.082 186.615 7.082ZM191.553 2.582H191.373C191.355 2.318 191.361 2.069 191.391 1.835C191.421 1.595 191.484 1.403 191.58 1.259C191.682 1.109 191.826 1.034 192.012 1.034C192.18 1.034 192.303 1.088 192.381 1.196C192.459 1.304 192.498 1.454 192.498 1.646C192.498 2.024 192.426 2.348 192.282 2.618L192.12 2.6C192.444 2.486 192.81 2.429 193.218 2.429C193.476 2.429 193.68 2.48 193.83 2.582C193.986 2.678 194.064 2.843 194.064 3.077C194.064 3.299 193.974 3.467 193.794 3.581C193.614 3.695 193.389 3.752 193.119 3.752C192.957 3.752 192.783 3.746 192.597 3.734C192.417 3.716 192.24 3.689 192.066 3.653L192.219 3.464C192.273 3.692 192.324 3.953 192.372 4.247C192.426 4.535 192.474 4.835 192.516 5.147C192.558 5.459 192.591 5.762 192.615 6.056C192.639 6.35 192.651 6.614 192.651 6.848C192.651 7.232 192.591 7.535 192.471 7.757C192.351 7.979 192.174 8.09 191.94 8.09C191.754 8.09 191.607 8.033 191.499 7.919C191.397 7.805 191.322 7.661 191.274 7.487C191.232 7.307 191.205 7.121 191.193 6.929C191.187 6.737 191.184 6.563 191.184 6.407C191.184 6.143 191.196 5.846 191.22 5.516C191.244 5.18 191.277 4.835 191.319 4.481C191.367 4.127 191.421 3.785 191.481 3.455L191.661 3.608C191.355 3.764 190.977 3.842 190.527 3.842C190.251 3.842 190.038 3.791 189.888 3.689C189.738 3.587 189.663 3.428 189.663 3.212C189.663 2.978 189.747 2.798 189.915 2.672C190.083 2.54 190.308 2.474 190.59 2.474C190.776 2.474 190.95 2.486 191.112 2.51C191.28 2.528 191.427 2.552 191.553 2.582ZM198.729 8.09C198.525 8.09 198.384 8.012 198.306 7.856C198.234 7.694 198.192 7.439 198.18 7.091L198.27 7.136C197.934 7.79 197.298 8.117 196.362 8.117C195.936 8.117 195.582 8.042 195.3 7.892C195.018 7.736 194.808 7.532 194.67 7.28C194.538 7.022 194.472 6.743 194.472 6.443C194.472 5.927 194.652 5.519 195.012 5.219C195.372 4.913 195.849 4.76 196.443 4.76C196.833 4.76 197.172 4.817 197.46 4.931C197.748 5.045 197.994 5.204 198.198 5.408L198.045 5.39C198.003 4.784 197.871 4.352 197.649 4.094C197.433 3.83 197.124 3.698 196.722 3.698C196.488 3.698 196.272 3.734 196.074 3.806C195.876 3.878 195.693 3.953 195.525 4.031C195.363 4.103 195.21 4.139 195.066 4.139C194.922 4.139 194.808 4.091 194.724 3.995C194.646 3.899 194.607 3.776 194.607 3.626C194.607 3.41 194.709 3.206 194.913 3.014C195.123 2.822 195.399 2.666 195.741 2.546C196.083 2.426 196.455 2.366 196.857 2.366C197.343 2.366 197.76 2.483 198.108 2.717C198.456 2.951 198.72 3.293 198.9 3.743C199.056 4.127 199.167 4.556 199.233 5.03C199.299 5.504 199.332 6.011 199.332 6.551C199.332 6.959 199.311 7.274 199.269 7.496C199.227 7.718 199.161 7.874 199.071 7.964C198.987 8.048 198.873 8.09 198.729 8.09ZM196.74 7.082C196.938 7.082 197.139 7.055 197.343 7.001C197.547 6.941 197.718 6.854 197.856 6.74C197.994 6.626 198.063 6.485 198.063 6.317C198.063 6.173 198.003 6.056 197.883 5.966C197.769 5.87 197.616 5.798 197.424 5.75C197.238 5.702 197.037 5.678 196.821 5.678C196.455 5.678 196.176 5.741 195.984 5.867C195.798 5.993 195.705 6.161 195.705 6.371C195.705 6.599 195.792 6.776 195.966 6.902C196.146 7.022 196.404 7.082 196.74 7.082ZM200.43 3.941C200.43 3.365 200.484 2.951 200.592 2.699C200.7 2.441 200.853 2.312 201.051 2.312C201.207 2.312 201.33 2.378 201.42 2.51C201.51 2.636 201.576 2.795 201.618 2.987C201.66 3.173 201.681 3.362 201.681 3.554L201.636 3.536C201.738 3.212 201.894 2.933 202.104 2.699C202.32 2.465 202.578 2.348 202.878 2.348C203.232 2.348 203.493 2.495 203.661 2.789C203.829 3.077 203.913 3.437 203.913 3.869C203.913 4.445 203.847 4.847 203.715 5.075C203.583 5.303 203.406 5.417 203.184 5.417C203.022 5.417 202.902 5.351 202.824 5.219C202.752 5.087 202.728 4.853 202.752 4.517C202.776 4.163 202.755 3.917 202.689 3.779C202.623 3.641 202.518 3.572 202.374 3.572C202.2 3.572 202.056 3.683 201.942 3.905C201.834 4.121 201.78 4.388 201.78 4.706C201.78 4.832 201.795 4.991 201.825 5.183C201.855 5.375 201.888 5.585 201.924 5.813C201.96 6.035 201.993 6.257 202.023 6.479C202.053 6.701 202.068 6.905 202.068 7.091C202.068 7.421 202.017 7.658 201.915 7.802C201.813 7.946 201.669 8.018 201.483 8.018C201.273 8.018 201.111 7.952 200.997 7.82C200.883 7.682 200.796 7.46 200.736 7.154C200.688 6.878 200.64 6.551 200.592 6.173C200.544 5.795 200.505 5.408 200.475 5.012C200.445 4.616 200.43 4.259 200.43 3.941ZM208.359 9.872C208.119 9.872 207.903 9.821 207.711 9.719C207.519 9.617 207.366 9.488 207.252 9.332C207.138 9.176 207.081 9.017 207.081 8.855C207.081 8.717 207.117 8.609 207.189 8.531C207.261 8.453 207.354 8.414 207.468 8.414C207.666 8.414 207.879 8.489 208.107 8.639C208.335 8.789 208.551 8.996 208.755 9.26L208.62 9.242C208.518 8.402 208.44 7.598 208.386 6.83C208.338 6.056 208.314 5.363 208.314 4.751C208.314 4.193 208.359 3.776 208.449 3.5C208.545 3.218 208.701 3.077 208.917 3.077C209.163 3.077 209.358 3.269 209.502 3.653C209.646 4.037 209.718 4.685 209.718 5.597C209.718 5.999 209.706 6.413 209.682 6.839C209.658 7.259 209.622 7.658 209.574 8.036C209.532 8.414 209.472 8.732 209.394 8.99C209.298 9.302 209.166 9.527 208.998 9.665C208.836 9.803 208.623 9.872 208.359 9.872ZM208.773 2.33C208.581 2.33 208.425 2.288 208.305 2.204C208.191 2.114 208.134 1.979 208.134 1.799C208.134 1.595 208.203 1.424 208.341 1.286C208.485 1.142 208.686 1.07 208.944 1.07C209.16 1.07 209.325 1.124 209.439 1.232C209.553 1.334 209.61 1.472 209.61 1.646C209.61 1.862 209.532 2.03 209.376 2.15C209.22 2.27 209.019 2.33 208.773 2.33ZM214.752 8.09C214.548 8.09 214.407 8.012 214.329 7.856C214.257 7.694 214.215 7.439 214.203 7.091L214.293 7.136C213.957 7.79 213.321 8.117 212.385 8.117C211.959 8.117 211.605 8.042 211.323 7.892C211.041 7.736 210.831 7.532 210.693 7.28C210.561 7.022 210.495 6.743 210.495 6.443C210.495 5.927 210.675 5.519 211.035 5.219C211.395 4.913 211.872 4.76 212.466 4.76C212.856 4.76 213.195 4.817 213.483 4.931C213.771 5.045 214.017 5.204 214.221 5.408L214.068 5.39C214.026 4.784 213.894 4.352 213.672 4.094C213.456 3.83 213.147 3.698 212.745 3.698C212.511 3.698 212.295 3.734 212.097 3.806C211.899 3.878 211.716 3.953 211.548 4.031C211.386 4.103 211.233 4.139 211.089 4.139C210.945 4.139 210.831 4.091 210.747 3.995C210.669 3.899 210.63 3.776 210.63 3.626C210.63 3.41 210.732 3.206 210.936 3.014C211.146 2.822 211.422 2.666 211.764 2.546C212.106 2.426 212.478 2.366 212.88 2.366C213.366 2.366 213.783 2.483 214.131 2.717C214.479 2.951 214.743 3.293 214.923 3.743C215.079 4.127 215.19 4.556 215.256 5.03C215.322 5.504 215.355 6.011 215.355 6.551C215.355 6.959 215.334 7.274 215.292 7.496C215.25 7.718 215.184 7.874 215.094 7.964C215.01 8.048 214.896 8.09 214.752 8.09ZM212.763 7.082C212.961 7.082 213.162 7.055 213.366 7.001C213.57 6.941 213.741 6.854 213.879 6.74C214.017 6.626 214.086 6.485 214.086 6.317C214.086 6.173 214.026 6.056 213.906 5.966C213.792 5.87 213.639 5.798 213.447 5.75C213.261 5.702 213.06 5.678 212.844 5.678C212.478 5.678 212.199 5.741 212.007 5.867C211.821 5.993 211.728 6.161 211.728 6.371C211.728 6.599 211.815 6.776 211.989 6.902C212.169 7.022 212.427 7.082 212.763 7.082ZM216.497 9.872C216.257 9.872 216.041 9.821 215.849 9.719C215.657 9.617 215.504 9.488 215.39 9.332C215.276 9.176 215.219 9.017 215.219 8.855C215.219 8.717 215.255 8.609 215.327 8.531C215.399 8.453 215.492 8.414 215.606 8.414C215.804 8.414 216.017 8.489 216.245 8.639C216.473 8.789 216.689 8.996 216.893 9.26L216.758 9.242C216.656 8.402 216.578 7.598 216.524 6.83C216.476 6.056 216.452 5.363 216.452 4.751C216.452 4.193 216.497 3.776 216.587 3.5C216.683 3.218 216.839 3.077 217.055 3.077C217.301 3.077 217.496 3.269 217.64 3.653C217.784 4.037 217.856 4.685 217.856 5.597C217.856 5.999 217.844 6.413 217.82 6.839C217.796 7.259 217.76 7.658 217.712 8.036C217.67 8.414 217.61 8.732 217.532 8.99C217.436 9.302 217.304 9.527 217.136 9.665C216.974 9.803 216.761 9.872 216.497 9.872ZM216.911 2.33C216.719 2.33 216.563 2.288 216.443 2.204C216.329 2.114 216.272 1.979 216.272 1.799C216.272 1.595 216.341 1.424 216.479 1.286C216.623 1.142 216.824 1.07 217.082 1.07C217.298 1.07 217.463 1.124 217.577 1.232C217.691 1.334 217.748 1.472 217.748 1.646C217.748 1.862 217.67 2.03 217.514 2.15C217.358 2.27 217.157 2.33 216.911 2.33ZM222.89 8.09C222.686 8.09 222.545 8.012 222.467 7.856C222.395 7.694 222.353 7.439 222.341 7.091L222.431 7.136C222.095 7.79 221.459 8.117 220.523 8.117C220.097 8.117 219.743 8.042 219.461 7.892C219.179 7.736 218.969 7.532 218.831 7.28C218.699 7.022 218.633 6.743 218.633 6.443C218.633 5.927 218.813 5.519 219.173 5.219C219.533 4.913 220.01 4.76 220.604 4.76C220.994 4.76 221.333 4.817 221.621 4.931C221.909 5.045 222.155 5.204 222.359 5.408L222.206 5.39C222.164 4.784 222.032 4.352 221.81 4.094C221.594 3.83 221.285 3.698 220.883 3.698C220.649 3.698 220.433 3.734 220.235 3.806C220.037 3.878 219.854 3.953 219.686 4.031C219.524 4.103 219.371 4.139 219.227 4.139C219.083 4.139 218.969 4.091 218.885 3.995C218.807 3.899 218.768 3.776 218.768 3.626C218.768 3.41 218.87 3.206 219.074 3.014C219.284 2.822 219.56 2.666 219.902 2.546C220.244 2.426 220.616 2.366 221.018 2.366C221.504 2.366 221.921 2.483 222.269 2.717C222.617 2.951 222.881 3.293 223.061 3.743C223.217 4.127 223.328 4.556 223.394 5.03C223.46 5.504 223.493 6.011 223.493 6.551C223.493 6.959 223.472 7.274 223.43 7.496C223.388 7.718 223.322 7.874 223.232 7.964C223.148 8.048 223.034 8.09 222.89 8.09ZM220.901 7.082C221.099 7.082 221.3 7.055 221.504 7.001C221.708 6.941 221.879 6.854 222.017 6.74C222.155 6.626 222.224 6.485 222.224 6.317C222.224 6.173 222.164 6.056 222.044 5.966C221.93 5.87 221.777 5.798 221.585 5.75C221.399 5.702 221.198 5.678 220.982 5.678C220.616 5.678 220.337 5.741 220.145 5.867C219.959 5.993 219.866 6.161 219.866 6.371C219.866 6.599 219.953 6.776 220.127 6.902C220.307 7.022 220.565 7.082 220.901 7.082ZM224.591 3.941C224.591 3.365 224.645 2.951 224.753 2.699C224.861 2.441 225.014 2.312 225.212 2.312C225.368 2.312 225.491 2.378 225.581 2.51C225.671 2.636 225.737 2.795 225.779 2.987C225.821 3.173 225.842 3.362 225.842 3.554L225.797 3.536C225.899 3.212 226.055 2.933 226.265 2.699C226.481 2.465 226.739 2.348 227.039 2.348C227.393 2.348 227.654 2.495 227.822 2.789C227.99 3.077 228.074 3.437 228.074 3.869C228.074 4.445 228.008 4.847 227.876 5.075C227.744 5.303 227.567 5.417 227.345 5.417C227.183 5.417 227.063 5.351 226.985 5.219C226.913 5.087 226.889 4.853 226.913 4.517C226.937 4.163 226.916 3.917 226.85 3.779C226.784 3.641 226.679 3.572 226.535 3.572C226.361 3.572 226.217 3.683 226.103 3.905C225.995 4.121 225.941 4.388 225.941 4.706C225.941 4.832 225.956 4.991 225.986 5.183C226.016 5.375 226.049 5.585 226.085 5.813C226.121 6.035 226.154 6.257 226.184 6.479C226.214 6.701 226.229 6.905 226.229 7.091C226.229 7.421 226.178 7.658 226.076 7.802C225.974 7.946 225.83 8.018 225.644 8.018C225.434 8.018 225.272 7.952 225.158 7.82C225.044 7.682 224.957 7.46 224.897 7.154C224.849 6.878 224.801 6.551 224.753 6.173C224.705 5.795 224.666 5.408 224.636 5.012C224.606 4.616 224.591 4.259 224.591 3.941ZM232.392 7.856C231.828 7.856 231.369 7.64 231.015 7.208C230.661 6.77 230.484 6.107 230.484 5.219C230.484 4.271 230.655 3.578 230.997 3.14C231.339 2.702 231.789 2.483 232.347 2.483C232.677 2.483 232.968 2.567 233.22 2.735C233.472 2.903 233.688 3.14 233.868 3.446L233.796 3.572C233.778 3.488 233.763 3.398 233.751 3.302C233.739 3.206 233.733 3.134 233.733 3.086C233.733 2.84 233.772 2.651 233.85 2.519C233.934 2.381 234.063 2.312 234.237 2.312C234.429 2.312 234.579 2.39 234.687 2.546C234.801 2.702 234.888 2.924 234.948 3.212C235.026 3.506 235.092 3.881 235.146 4.337C235.2 4.787 235.227 5.243 235.227 5.705C235.227 6.281 235.206 6.764 235.164 7.154C235.122 7.544 235.053 7.868 234.957 8.126C234.861 8.384 234.735 8.609 234.579 8.801C234.321 9.113 233.988 9.35 233.58 9.512C233.178 9.68 232.713 9.764 232.185 9.764C231.807 9.764 231.504 9.728 231.276 9.656C231.048 9.59 230.883 9.497 230.781 9.377C230.685 9.263 230.637 9.134 230.637 8.99C230.637 8.84 230.679 8.714 230.763 8.612C230.847 8.516 230.973 8.468 231.141 8.468C231.291 8.468 231.465 8.492 231.663 8.54C231.867 8.588 232.107 8.612 232.383 8.612C232.965 8.612 233.376 8.474 233.616 8.198C233.862 7.928 233.985 7.538 233.985 7.028C233.985 6.89 233.976 6.728 233.958 6.542L234.084 6.587C233.934 6.971 233.712 7.28 233.418 7.514C233.124 7.742 232.782 7.856 232.392 7.856ZM232.734 6.749C232.926 6.749 233.118 6.698 233.31 6.596C233.502 6.494 233.661 6.326 233.787 6.092C233.913 5.858 233.976 5.543 233.976 5.147C233.976 4.673 233.865 4.286 233.643 3.986C233.421 3.686 233.109 3.536 232.707 3.536C232.359 3.536 232.104 3.668 231.942 3.932C231.78 4.196 231.699 4.595 231.699 5.129C231.699 5.639 231.78 6.038 231.942 6.326C232.104 6.608 232.368 6.749 232.734 6.749ZM238.844 8.072C238.178 8.072 237.647 7.973 237.251 7.775C236.855 7.577 236.57 7.292 236.396 6.92C236.222 6.548 236.135 6.104 236.135 5.588C236.135 4.934 236.255 4.379 236.495 3.923C236.741 3.461 237.077 3.107 237.503 2.861C237.935 2.615 238.424 2.492 238.97 2.492C239.612 2.492 240.083 2.642 240.383 2.942C240.683 3.236 240.833 3.623 240.833 4.103C240.833 4.487 240.731 4.82 240.527 5.102C240.329 5.378 240.053 5.591 239.699 5.741C239.345 5.891 238.937 5.966 238.475 5.966C238.217 5.966 237.968 5.933 237.728 5.867C237.488 5.801 237.272 5.711 237.08 5.597L237.296 5.201C237.278 5.345 237.269 5.489 237.269 5.633C237.269 6.053 237.401 6.356 237.665 6.542C237.929 6.722 238.304 6.812 238.79 6.812C239.168 6.812 239.471 6.779 239.699 6.713C239.927 6.647 240.119 6.584 240.275 6.524C240.431 6.458 240.584 6.425 240.734 6.425C240.818 6.425 240.893 6.449 240.959 6.497C241.031 6.539 241.088 6.602 241.13 6.686C241.178 6.77 241.202 6.872 241.202 6.992C241.202 7.172 241.112 7.346 240.932 7.514C240.752 7.676 240.485 7.811 240.131 7.919C239.783 8.021 239.354 8.072 238.844 8.072ZM238.322 5.129C238.748 5.129 239.09 5.039 239.348 4.859C239.606 4.679 239.735 4.457 239.735 4.193C239.735 3.983 239.663 3.812 239.519 3.68C239.381 3.542 239.162 3.473 238.862 3.473C238.58 3.473 238.325 3.527 238.097 3.635C237.875 3.737 237.701 3.872 237.575 4.04C237.449 4.208 237.386 4.391 237.386 4.589C237.386 4.763 237.467 4.898 237.629 4.994C237.797 5.084 238.028 5.129 238.322 5.129ZM242.911 2.402C243.103 2.402 243.232 2.48 243.298 2.636C243.37 2.792 243.406 3.023 243.406 3.329C243.406 3.401 243.4 3.479 243.388 3.563C243.382 3.641 243.37 3.713 243.352 3.779L243.334 3.599C243.478 3.209 243.7 2.906 244 2.69C244.3 2.468 244.618 2.357 244.954 2.357C245.326 2.357 245.635 2.462 245.881 2.672C246.133 2.882 246.319 3.176 246.439 3.554C246.565 3.932 246.628 4.379 246.628 4.895C246.628 5.213 246.613 5.528 246.583 5.84C246.559 6.146 246.523 6.428 246.475 6.686C246.433 6.938 246.385 7.145 246.331 7.307C246.259 7.511 246.166 7.664 246.052 7.766C245.938 7.862 245.803 7.91 245.647 7.91C245.491 7.91 245.371 7.853 245.287 7.739C245.203 7.625 245.161 7.472 245.161 7.28C245.161 7.076 245.176 6.83 245.206 6.542C245.236 6.248 245.263 5.951 245.287 5.651C245.317 5.345 245.332 5.069 245.332 4.823C245.332 3.983 245.056 3.563 244.504 3.563C244.21 3.563 243.964 3.695 243.766 3.959C243.568 4.217 243.436 4.586 243.37 5.066C243.352 5.228 243.343 5.429 243.343 5.669C243.343 5.909 243.343 6.149 243.343 6.389C243.349 6.623 243.343 6.821 243.325 6.983C243.301 7.343 243.232 7.601 243.118 7.757C243.01 7.913 242.86 7.991 242.668 7.991C242.446 7.991 242.278 7.889 242.164 7.685C242.05 7.475 241.993 7.124 241.993 6.632C241.993 6.38 241.999 6.098 242.011 5.786C242.023 5.474 242.038 5.162 242.056 4.85C242.08 4.532 242.107 4.244 242.137 3.986C242.197 3.5 242.284 3.116 242.398 2.834C242.512 2.546 242.683 2.402 242.911 2.402ZM247.769 9.872C247.529 9.872 247.313 9.821 247.121 9.719C246.929 9.617 246.776 9.488 246.662 9.332C246.548 9.176 246.491 9.017 246.491 8.855C246.491 8.717 246.527 8.609 246.599 8.531C246.671 8.453 246.764 8.414 246.878 8.414C247.076 8.414 247.289 8.489 247.517 8.639C247.745 8.789 247.961 8.996 248.165 9.26L248.03 9.242C247.928 8.402 247.85 7.598 247.796 6.83C247.748 6.056 247.724 5.363 247.724 4.751C247.724 4.193 247.769 3.776 247.859 3.5C247.955 3.218 248.111 3.077 248.327 3.077C248.573 3.077 248.768 3.269 248.912 3.653C249.056 4.037 249.128 4.685 249.128 5.597C249.128 5.999 249.116 6.413 249.092 6.839C249.068 7.259 249.032 7.658 248.984 8.036C248.942 8.414 248.882 8.732 248.804 8.99C248.708 9.302 248.576 9.527 248.408 9.665C248.246 9.803 248.033 9.872 247.769 9.872ZM248.183 2.33C247.991 2.33 247.835 2.288 247.715 2.204C247.601 2.114 247.544 1.979 247.544 1.799C247.544 1.595 247.613 1.424 247.751 1.286C247.895 1.142 248.096 1.07 248.354 1.07C248.57 1.07 248.735 1.124 248.849 1.232C248.963 1.334 249.02 1.472 249.02 1.646C249.02 1.862 248.942 2.03 248.786 2.15C248.63 2.27 248.429 2.33 248.183 2.33ZM254.162 8.09C253.958 8.09 253.817 8.012 253.739 7.856C253.667 7.694 253.625 7.439 253.613 7.091L253.703 7.136C253.367 7.79 252.731 8.117 251.795 8.117C251.369 8.117 251.015 8.042 250.733 7.892C250.451 7.736 250.241 7.532 250.103 7.28C249.971 7.022 249.905 6.743 249.905 6.443C249.905 5.927 250.085 5.519 250.445 5.219C250.805 4.913 251.282 4.76 251.876 4.76C252.266 4.76 252.605 4.817 252.893 4.931C253.181 5.045 253.427 5.204 253.631 5.408L253.478 5.39C253.436 4.784 253.304 4.352 253.082 4.094C252.866 3.83 252.557 3.698 252.155 3.698C251.921 3.698 251.705 3.734 251.507 3.806C251.309 3.878 251.126 3.953 250.958 4.031C250.796 4.103 250.643 4.139 250.499 4.139C250.355 4.139 250.241 4.091 250.157 3.995C250.079 3.899 250.04 3.776 250.04 3.626C250.04 3.41 250.142 3.206 250.346 3.014C250.556 2.822 250.832 2.666 251.174 2.546C251.516 2.426 251.888 2.366 252.29 2.366C252.776 2.366 253.193 2.483 253.541 2.717C253.889 2.951 254.153 3.293 254.333 3.743C254.489 4.127 254.6 4.556 254.666 5.03C254.732 5.504 254.765 6.011 254.765 6.551C254.765 6.959 254.744 7.274 254.702 7.496C254.66 7.718 254.594 7.874 254.504 7.964C254.42 8.048 254.306 8.09 254.162 8.09ZM252.173 7.082C252.371 7.082 252.572 7.055 252.776 7.001C252.98 6.941 253.151 6.854 253.289 6.74C253.427 6.626 253.496 6.485 253.496 6.317C253.496 6.173 253.436 6.056 253.316 5.966C253.202 5.87 253.049 5.798 252.857 5.75C252.671 5.702 252.47 5.678 252.254 5.678C251.888 5.678 251.609 5.741 251.417 5.867C251.231 5.993 251.138 6.161 251.138 6.371C251.138 6.599 251.225 6.776 251.399 6.902C251.579 7.022 251.837 7.082 252.173 7.082ZM256.78 2.402C256.972 2.402 257.101 2.48 257.167 2.636C257.239 2.792 257.275 3.023 257.275 3.329C257.275 3.401 257.269 3.479 257.257 3.563C257.251 3.641 257.239 3.713 257.221 3.779L257.203 3.599C257.347 3.209 257.569 2.906 257.869 2.69C258.169 2.468 258.487 2.357 258.823 2.357C259.195 2.357 259.504 2.462 259.75 2.672C260.002 2.882 260.188 3.176 260.308 3.554C260.434 3.932 260.497 4.379 260.497 4.895C260.497 5.213 260.482 5.528 260.452 5.84C260.428 6.146 260.392 6.428 260.344 6.686C260.302 6.938 260.254 7.145 260.2 7.307C260.128 7.511 260.035 7.664 259.921 7.766C259.807 7.862 259.672 7.91 259.516 7.91C259.36 7.91 259.24 7.853 259.156 7.739C259.072 7.625 259.03 7.472 259.03 7.28C259.03 7.076 259.045 6.83 259.075 6.542C259.105 6.248 259.132 5.951 259.156 5.651C259.186 5.345 259.201 5.069 259.201 4.823C259.201 3.983 258.925 3.563 258.373 3.563C258.079 3.563 257.833 3.695 257.635 3.959C257.437 4.217 257.305 4.586 257.239 5.066C257.221 5.228 257.212 5.429 257.212 5.669C257.212 5.909 257.212 6.149 257.212 6.389C257.218 6.623 257.212 6.821 257.194 6.983C257.17 7.343 257.101 7.601 256.987 7.757C256.879 7.913 256.729 7.991 256.537 7.991C256.315 7.991 256.147 7.889 256.033 7.685C255.919 7.475 255.862 7.124 255.862 6.632C255.862 6.38 255.868 6.098 255.88 5.786C255.892 5.474 255.907 5.162 255.925 4.85C255.949 4.532 255.976 4.244 256.006 3.986C256.066 3.5 256.153 3.116 256.267 2.834C256.381 2.546 256.552 2.402 256.78 2.402ZM263.312 7.856C262.748 7.856 262.289 7.64 261.935 7.208C261.581 6.77 261.404 6.107 261.404 5.219C261.404 4.271 261.575 3.578 261.917 3.14C262.259 2.702 262.709 2.483 263.267 2.483C263.597 2.483 263.888 2.567 264.14 2.735C264.392 2.903 264.608 3.14 264.788 3.446L264.716 3.572C264.698 3.488 264.683 3.398 264.671 3.302C264.659 3.206 264.653 3.134 264.653 3.086C264.653 2.84 264.692 2.651 264.77 2.519C264.854 2.381 264.983 2.312 265.157 2.312C265.349 2.312 265.499 2.39 265.607 2.546C265.721 2.702 265.808 2.924 265.868 3.212C265.946 3.506 266.012 3.881 266.066 4.337C266.12 4.787 266.147 5.243 266.147 5.705C266.147 6.281 266.126 6.764 266.084 7.154C266.042 7.544 265.973 7.868 265.877 8.126C265.781 8.384 265.655 8.609 265.499 8.801C265.241 9.113 264.908 9.35 264.5 9.512C264.098 9.68 263.633 9.764 263.105 9.764C262.727 9.764 262.424 9.728 262.196 9.656C261.968 9.59 261.803 9.497 261.701 9.377C261.605 9.263 261.557 9.134 261.557 8.99C261.557 8.84 261.599 8.714 261.683 8.612C261.767 8.516 261.893 8.468 262.061 8.468C262.211 8.468 262.385 8.492 262.583 8.54C262.787 8.588 263.027 8.612 263.303 8.612C263.885 8.612 264.296 8.474 264.536 8.198C264.782 7.928 264.905 7.538 264.905 7.028C264.905 6.89 264.896 6.728 264.878 6.542L265.004 6.587C264.854 6.971 264.632 7.28 264.338 7.514C264.044 7.742 263.702 7.856 263.312 7.856ZM263.654 6.749C263.846 6.749 264.038 6.698 264.23 6.596C264.422 6.494 264.581 6.326 264.707 6.092C264.833 5.858 264.896 5.543 264.896 5.147C264.896 4.673 264.785 4.286 264.563 3.986C264.341 3.686 264.029 3.536 263.627 3.536C263.279 3.536 263.024 3.668 262.862 3.932C262.7 4.196 262.619 4.595 262.619 5.129C262.619 5.639 262.7 6.038 262.862 6.326C263.024 6.608 263.288 6.749 263.654 6.749Z" fill="black"/>
</svg>
