<svg version="1.1" xmlns="http://www.w3.org/2000/svg" xmlns:xlink="http://www.w3.org/1999/xlink" width="44.91527" height="19.82595" viewBox="0,0,44.91527,19.82595"><g transform="translate(-217.54236,-170.08702)"><g data-paper-data="{&quot;isPaintingLayer&quot;:true}" fill-rule="nonzero" stroke-linecap="butt" stroke-linejoin="miter" stroke-miterlimit="10" stroke-dasharray="" stroke-dashoffset="0" style="mix-blend-mode: normal"><g><path d="" fill="#ececec" stroke="none" stroke-width="1"/><path d="" fill="none" stroke="#dcd6d6" stroke-width="1.5"/><path d="" fill="none" stroke="#dcd6d6" stroke-width="1.5"/><path d="" fill="none" stroke="#dcd6d6" stroke-width="1.5"/><path d="" fill="none" stroke="#dcd6d6" stroke-width="1.5"/><path d="" fill="none" stroke="#dcd6d6" stroke-width="1.5"/><path d="" fill="none" stroke="#dcd6d6" stroke-width="1.5"/><path d="" fill="none" stroke="#dcd6d6" stroke-width="1.5"/><path d="" fill="none" stroke="#dcd6d6" stroke-width="1.5"/><path d="" fill="none" stroke="#dcd6d6" stroke-width="1.5"/><path d="" fill="none" stroke="#dcd6d6" stroke-width="1.5"/><path d="" fill="none" stroke="#dcd6d6" stroke-width="1.5"/><path d="" fill="none" stroke="#dcd6d6" stroke-width="1.5"/><path d="" fill="none" stroke="#dcd6d6" stroke-width="1.5"/><path d="" fill="none" stroke="#dcd6d6" stroke-width="1.5"/><path d="" fill="none" stroke="#dcd6d6" stroke-width="1.5"/><path d="" fill="none" stroke="#dcd6d6" stroke-width="1.5"/><path d="" fill="none" stroke="#dcd6d6" stroke-width="1.5"/><path d="" fill="none" stroke="#dcd6d6" stroke-width="1.5"/><path d="" fill="none" stroke="#dcd6d6" stroke-width="1.5"/><path d="" fill="none" stroke="#dcd6d6" stroke-width="1.5"/><path d="" fill="none" stroke="#dcd6d6" stroke-width="1.5"/><path d="" fill="none" stroke="#dcd6d6" stroke-width="1.5"/><path d="" fill="none" stroke="#dcd6d6" stroke-width="1.5"/><path d="" fill="none" stroke="#dcd6d6" stroke-width="1.5"/><path d="" fill="none" stroke="#dcd6d6" stroke-width="1.5"/><path d="" fill="none" stroke="#dcd6d6" stroke-width="1.5"/><path d="" fill="none" stroke="#dcd6d6" stroke-width="1.5"/><path d="" fill="none" stroke="#dcd6d6" stroke-width="1.5"/><path d="" fill="none" stroke="#dcd6d6" stroke-width="1.5"/><path d="" fill="none" stroke="#dcd6d6" stroke-width="1.5"/><path d="" fill="none" stroke="#dcd6d6" stroke-width="1.5"/><path d="" fill="none" stroke="#dcd6d6" stroke-width="1.5"/><path d="" fill="none" stroke="#dcd6d6" stroke-width="1.5"/><path d="" fill="none" stroke="#dcd6d6" stroke-width="1.5"/><path d="" fill="none" stroke="#dcd6d6" stroke-width="1.5"/><path d="" fill="none" stroke="#dcd6d6" stroke-width="1.5"/><path d="" fill="none" stroke="#dcd6d6" stroke-width="1.5"/><path d="" fill="none" stroke="#dcd6d6" stroke-width="1.5"/><path d="" fill="none" stroke="#dcd6d6" stroke-width="1.5"/><path d="" fill="none" stroke="#dcd6d6" stroke-width="1.5"/><g><path d="" fill="#ebebeb" stroke="none" stroke-width="1"/><path d="" fill="none" stroke="#000000" stroke-width="0.5"/></g><path d="" fill="#737373" stroke="none" stroke-width="1"/><path d="" fill="#737373" stroke="none" stroke-width="1"/><path d="" fill="#737373" stroke="none" stroke-width="1"/><path d="" fill="#737373" stroke="none" stroke-width="1"/></g><path d="" fill="#000000" stroke="none" stroke-width="1"/><path d="" fill="#000000" stroke="none" stroke-width="1"/><path d="" fill="#a5a7a9" stroke="#000000" stroke-width="1"/><path d="" fill="#000000" stroke="none" stroke-width="1"/><path d="M220.99189,170.58702h38.01622c1.6288,0 2.94953,1.26448 2.94953,2.82389v13.17817c0,1.55941 -1.32073,2.82389 -2.94953,2.82389h-38.01622c-1.6288,0 -2.94953,-1.26448 -2.94953,-2.82389v-13.17817c0,-1.55941 1.32073,-2.82389 2.94953,-2.82389z" fill="#a5a7a9" stroke="#000000" stroke-width="1"/><path d="M231.45159,177.91596c0.14879,0 0.30019,0.08033 0.45423,0.2416c0.15862,0.15626 0.32444,0.39095 0.49749,0.70409c0.17304,0.31313 0.3605,0.70159 0.56238,1.16658c0.20647,0.465 0.43259,1.00342 0.67774,1.61527h0.02884c-0.03343,-0.22088 -0.06489,-0.46249 -0.09373,-0.72481c-0.02884,-0.2623 -0.05506,-0.52713 -0.07931,-0.79383c-0.02425,-0.2667 -0.04326,-0.5152 -0.05769,-0.74551c-0.00983,-0.2347 -0.01442,-0.43488 -0.01442,-0.60054c0,-0.38217 0.03604,-0.65137 0.10815,-0.80763c0.07668,-0.16127 0.19467,-0.2416 0.35329,-0.2416c0.11078,0 0.19925,0.02761 0.26677,0.08283c0.06751,0.05523 0.12519,0.13554 0.17304,0.2416c0.11078,0.25792 0.19008,0.61184 0.23793,1.06304c0.04785,0.45119 0.07211,0.96641 0.07211,1.54624c0,0.44618 -0.01902,0.82583 -0.05769,1.13898c-0.03867,0.31313 -0.11077,0.54971 -0.2163,0.71099c-0.10553,0.16127 -0.25956,0.2416 -0.46144,0.2416c-0.13437,0 -0.27135,-0.05083 -0.41097,-0.15186c-0.13961,-0.10605 -0.28119,-0.2598 -0.42539,-0.46249c-0.13961,-0.20709 -0.28577,-0.465 -0.43981,-0.77312c-0.14879,-0.30812 -0.30741,-0.66707 -0.47586,-1.07685c-0.16321,-0.41417 -0.33625,-0.87667 -0.51912,-1.38748h-0.02884c0.03343,0.23909 0.06226,0.5221 0.08652,0.84905c0.02425,0.32695 0.04326,0.66016 0.05769,1.00092c0.01442,0.34075 0.02162,0.65326 0.02162,0.93879c0,0.42797 -0.04588,0.7317 -0.13699,0.91118c-0.08652,0.17947 -0.22351,0.26922 -0.41097,0.26922c-0.20647,0 -0.35591,-0.09225 -0.44701,-0.27611c-0.08652,-0.18889 -0.12978,-0.47881 -0.12978,-0.86976c0,-0.24411 0.00459,-0.52211 0.01442,-0.83525c0.01442,-0.31313 0.03343,-0.63506 0.05769,-0.9664c0.02425,-0.33134 0.05506,-0.64635 0.09373,-0.94569c0.04785,-0.37275 0.11536,-0.64196 0.20188,-0.80763c0.08652,-0.17005 0.23334,-0.25541 0.43981,-0.25541zM237.56959,182.87911c-0.53353,0 -0.95893,-0.07593 -1.27617,-0.2278c-0.31724,-0.15186 -0.54533,-0.37025 -0.68495,-0.65577c-0.13961,-0.28553 -0.20909,-0.62564 -0.20909,-1.02162c0,-0.5014 0.09635,-0.9275 0.2884,-1.27703c0.19729,-0.35456 0.46603,-0.62564 0.80752,-0.81453c0.34608,-0.18889 0.73804,-0.28302 1.17523,-0.28302c0.51453,0 0.89141,0.11484 1.13196,0.34515c0.24055,0.22528 0.3605,0.52211 0.3605,0.89046c0,0.29432 -0.08193,0.54971 -0.24513,0.76622c-0.15862,0.21148 -0.3795,0.37526 -0.66332,0.4901c-0.2838,0.11484 -0.61023,0.17257 -0.98056,0.17257c-0.20647,0 -0.40638,-0.0251 -0.59842,-0.07593c-0.19205,-0.05083 -0.36508,-0.11986 -0.51912,-0.20709l0.17304,-0.30373c-0.01442,0.11044 -0.02162,0.22088 -0.02162,0.33134c0,0.32192 0.10553,0.55474 0.31724,0.69719c0.21172,0.13806 0.51191,0.20709 0.90124,0.20709c0.30282,0 0.54534,-0.0251 0.72821,-0.07593c0.18287,-0.05083 0.33624,-0.09915 0.46144,-0.14496c0.1252,-0.05083 0.24776,-0.07593 0.36771,-0.07593c0.06751,0 0.12716,0.0182 0.18025,0.05523c0.05769,0.032 0.10356,0.08033 0.13699,0.14496c0.03867,0.06463 0.05769,0.14246 0.05769,0.2347c0,0.13806 -0.07211,0.27172 -0.2163,0.40036c-0.14419,0.12425 -0.35788,0.2278 -0.64168,0.31063c-0.27857,0.07845 -0.62268,0.11735 -1.03103,0.11735zM237.15141,180.62189c0.34149,0 0.61547,-0.06903 0.82194,-0.20709c0.20647,-0.13806 0.31002,-0.30811 0.31002,-0.51081c0,-0.16127 -0.05768,-0.29243 -0.17304,-0.39346c-0.11078,-0.10605 -0.28577,-0.15877 -0.52633,-0.15877c-0.22613,0 -0.42999,0.04142 -0.61285,0.12425c-0.17762,0.07845 -0.31724,0.18199 -0.41817,0.31063c-0.10094,0.12864 -0.15141,0.26922 -0.15141,0.42108c0,0.13366 0.06489,0.2372 0.19467,0.31063c0.13437,0.06903 0.31987,0.10354 0.55517,0.10354zM240.29429,182.88601c-0.13502,0 -0.25039,-0.04582 -0.34608,-0.13806c-0.09635,-0.09664 -0.14419,-0.2165 -0.14419,-0.35894c0,-0.16567 0.06947,-0.34515 0.20909,-0.53842c0.13896,-0.19767 0.34084,-0.39095 0.60564,-0.57984c0.26874,-0.18889 0.58859,-0.35456 0.95893,-0.49701v-0.02761c-0.61088,-0.2485 -1.05987,-0.52713 -1.34826,-0.83525c-0.2838,-0.30812 -0.42539,-0.59113 -0.42539,-0.84905c0,-0.10605 0.02359,-0.19579 0.07211,-0.26922c0.05243,-0.07342 0.11995,-0.13116 0.20188,-0.17257c0.08652,-0.04142 0.17501,-0.06213 0.26677,-0.06213c0.19664,0 0.38672,0.07154 0.56959,0.21399c0.18746,0.13806 0.36968,0.33824 0.54795,0.60054c0.17762,0.25792 0.35067,0.56855 0.51912,0.93189h0.02884c0.24513,-0.63067 0.49945,-1.08815 0.76426,-1.37366c0.26874,-0.28992 0.54795,-0.43488 0.83635,-0.43488c0.13896,0 0.2471,0.04393 0.32444,0.13116c0.07668,0.08283 0.11536,0.18889 0.11536,0.31753c0,0.30373 -0.13699,0.60054 -0.41097,0.89046c-0.27398,0.28992 -0.6902,0.56352 -1.24732,0.82144v0.03451c0.51387,0.27172 0.896,0.55474 1.14638,0.84905c0.25431,0.28992 0.38213,0.54533 0.38213,0.76622c0,0.13806 -0.04326,0.2485 -0.12978,0.33134c-0.08193,0.08283 -0.18025,0.12425 -0.2956,0.12425c-0.20188,0 -0.38934,-0.07154 -0.56238,-0.21399c-0.17304,-0.14246 -0.3369,-0.34075 -0.49028,-0.59365c-0.14945,-0.25792 -0.29102,-0.55224 -0.42538,-0.88356h-0.02884c-0.17829,0.41857 -0.36311,0.76371 -0.55517,1.03543c-0.18746,0.2667 -0.37753,0.465 -0.56959,0.59365c-0.1927,0.12425 -0.38213,0.18637 -0.56959,0.18637zM245.85187,178.66838h-0.14419c-0.01442,-0.20269 -0.00917,-0.39346 0.01442,-0.57293c0.02425,-0.18387 0.07472,-0.33134 0.15141,-0.44179c0.08193,-0.11484 0.19729,-0.17257 0.34608,-0.17257c0.13502,0 0.23334,0.04142 0.2956,0.12425c0.06292,0.08283 0.09373,0.19767 0.09373,0.34515c0,0.28992 -0.05768,0.53842 -0.17304,0.74551l-0.12978,-0.0138c0.25956,-0.08723 0.55321,-0.13116 0.87962,-0.13116c0.20712,0 0.37033,0.03891 0.49028,0.11735c0.1252,0.07342 0.18746,0.20018 0.18746,0.37966c0,0.17005 -0.07211,0.29933 -0.2163,0.38656c-0.14419,0.08723 -0.32444,0.13116 -0.54074,0.13116c-0.12978,0 -0.26874,-0.0044 -0.41817,-0.0138c-0.14419,-0.0138 -0.28577,-0.03451 -0.42539,-0.06213l0.12257,-0.14496c0.04326,0.17508 0.08455,0.37526 0.12256,0.60054c0.04326,0.22088 0.08193,0.45119 0.11537,0.69029c0.03408,0.23909 0.0603,0.47191 0.07931,0.69719c0.01967,0.22528 0.02884,0.42797 0.02884,0.60745c0,0.29432 -0.04785,0.52713 -0.14419,0.69719c-0.0957,0.17005 -0.23793,0.25541 -0.42539,0.25541c-0.14879,0 -0.26677,-0.04393 -0.35329,-0.13116c-0.08128,-0.08723 -0.14158,-0.19767 -0.18025,-0.33134c-0.03343,-0.13806 -0.05506,-0.28051 -0.06489,-0.42797c-0.00459,-0.14747 -0.00721,-0.28051 -0.00721,-0.40037c0,-0.20269 0.00983,-0.43049 0.02884,-0.68339c0.01967,-0.25792 0.04589,-0.52211 0.07931,-0.79383c0.03867,-0.27172 0.08193,-0.53403 0.12978,-0.78692l0.14419,0.11734c-0.24513,0.11986 -0.54795,0.17947 -0.90846,0.17947c-0.22089,0 -0.3913,-0.03891 -0.51191,-0.11734c-0.11995,-0.07845 -0.18026,-0.20018 -0.18026,-0.36585c0,-0.17947 0.06751,-0.31753 0.20188,-0.41417c0.13502,-0.10103 0.31527,-0.15186 0.54074,-0.15186c0.14945,0 0.2884,0.00941 0.41817,0.02761c0.13502,0.0138 0.25235,0.032 0.35329,0.05522z" fill="#000000" stroke="none" stroke-width="1"/></g></g></svg>