<svg version="1.1" xmlns="http://www.w3.org/2000/svg" xmlns:xlink="http://www.w3.org/1999/xlink" width="74.90169" height="74.8291" viewBox="0,0,74.90169,74.8291"><g transform="translate(-203.21997,-141.87834)"><g data-paper-data="{&quot;isPaintingLayer&quot;:true}" fill-rule="nonzero" stroke="#000000" stroke-linejoin="miter" stroke-miterlimit="10" stroke-dasharray="" stroke-dashoffset="0" style="mix-blend-mode: normal"><path d="M273.17654,213.19106c0,1.91864 -1.67273,3.47401 -3.73615,3.47401c-2.06343,0 -3.73616,-1.55536 -3.73616,-3.47401c0,-1.91864 1.67274,-3.47402 3.73616,-3.47402c2.06343,0 3.73615,1.55537 3.73615,3.47402z" fill="#ff0000" stroke-width="0" stroke-linecap="butt"/><path d="M210.69229,150.58477c0,1.91864 -1.67272,3.47401 -3.73615,3.47401c-2.06343,0 -3.73616,-1.55536 -3.73616,-3.47401c0,-1.91864 1.67274,-3.47402 3.73617,-3.47402c2.06343,0 3.73615,1.55537 3.73615,3.47402z" fill="#ff0000" stroke-width="0" stroke-linecap="butt"/><path d="M204.29255,215.70745v-71.41489l71.4149,71.41489z" fill="none" stroke-width="2" stroke-linecap="butt"/><path d="M216.07236,213.3578l-9.29875,-0.00255l0.1474,-9.80192" fill="#adadad" stroke-width="1" stroke-linecap="round"/></g></g></svg>