<svg version="1.1" xmlns="http://www.w3.org/2000/svg" xmlns:xlink="http://www.w3.org/1999/xlink" width="69.06771" height="22.82648" viewBox="0,0,69.06771,22.82648"><g transform="translate(-205.46615,-168.58676)"><g data-paper-data="{&quot;isPaintingLayer&quot;:true}" fill="#000000" fill-rule="nonzero" stroke="none" stroke-width="1" stroke-linecap="butt" stroke-linejoin="miter" stroke-miterlimit="10" stroke-dasharray="" stroke-dashoffset="0" style="mix-blend-mode: normal"><path d="M206.32997,177.57739c-0.1667,0 -0.30309,-0.05683 -0.40918,-0.17049c-0.0985,-0.11366 -0.17807,-0.2766 -0.23869,-0.48874c-0.06062,-0.31068 -0.11366,-0.71607 -0.15913,-1.21618c-0.03789,-0.50769 -0.05683,-1.04948 -0.05683,-1.62536c0,-0.32583 0.00758,-0.69334 0.02273,-1.10252c0.01516,-0.40918 0.0341,-0.82215 0.05683,-1.23891c0.03031,-0.42434 0.06062,-0.81836 0.09093,-1.18208c0.03789,-0.36372 0.07577,-0.65924 0.11366,-0.88656c0.06062,-0.33341 0.14776,-0.59483 0.26142,-0.78427c0.12124,-0.19701 0.31068,-0.29552 0.56831,-0.29552c0.26521,0 0.45844,0.1023 0.57967,0.30689c0.12124,0.19701 0.18186,0.44328 0.18186,0.7388c0,0.33341 -0.02652,0.72743 -0.07956,1.18208c-0.04546,0.45465 -0.11745,0.91687 -0.21596,1.38667l-0.22732,0.27279c0.08335,-0.31825 0.21975,-0.60998 0.40918,-0.87519c0.18943,-0.26521 0.42812,-0.47359 0.71607,-0.62514c0.28795,-0.15913 0.62135,-0.23869 1.00022,-0.23869c0.74259,0 1.33363,0.26521 1.77312,0.79563c0.44707,0.52284 0.6706,1.34121 0.6706,2.45509c0,0.78047 -0.11745,1.43213 -0.35235,1.95498c-0.22732,0.52284 -0.54178,0.91684 -0.94339,1.18208c-0.39402,0.25761 -0.84489,0.38645 -1.35257,0.38645c-0.47738,0 -0.89035,-0.14021 -1.23891,-0.42055c-0.34098,-0.28034 -0.56073,-0.68576 -0.65924,-1.21618l0.15913,0.12503c-0.03031,0.54558 -0.10609,0.94721 -0.22732,1.20481c-0.11366,0.25006 -0.26142,0.37508 -0.44328,0.37508zM208.40998,176.19072c0.37887,0 0.71228,-0.17049 1.00022,-0.51148c0.28795,-0.34098 0.43191,-0.87519 0.43191,-1.60263c0,-0.6062 -0.11366,-1.09873 -0.34098,-1.4776c-0.21975,-0.37887 -0.59104,-0.56831 -1.11388,-0.56831c-0.42434,0 -0.76532,0.17049 -1.02295,0.51148c-0.25763,0.33341 -0.38645,0.8411 -0.38645,1.52306c0,0.62135 0.12882,1.13282 0.38645,1.53443c0.25763,0.39402 0.6062,0.59104 1.04569,0.59104zM213.16184,175.02c0.30307,0 0.54558,0.10609 0.72743,0.31825c0.18941,0.20459 0.28415,0.50769 0.28415,0.90929c0,0.37129 -0.09093,0.68578 -0.27279,0.94339c-0.17431,0.25761 -0.45846,0.38645 -0.85246,0.38645c-0.31827,0 -0.55317,-0.10611 -0.70472,-0.31825c-0.14397,-0.21214 -0.21596,-0.51148 -0.21596,-0.89793c0,-0.22732 0.03032,-0.44328 0.09093,-0.64787c0.06062,-0.20459 0.16671,-0.37129 0.31825,-0.50011c0.15155,-0.12882 0.35992,-0.19322 0.62515,-0.19322zM219.79586,169.54152c0.48493,0 0.91303,0.07199 1.28437,0.21596c0.37127,0.14397 0.66297,0.35993 0.87519,0.64787c0.21969,0.28795 0.32962,0.65166 0.32962,1.09115c0,0.50011 -0.18186,0.94718 -0.54558,1.34121c-0.35617,0.38645 -0.91311,0.66681 -1.67082,0.8411l-0.05683,-0.13639c0.788,0.0682 1.37149,0.27279 1.75039,0.61377c0.37882,0.34098 0.56831,0.78426 0.56831,1.32984c0,0.39402 -0.10993,0.75017 -0.32962,1.06842c-0.21222,0.31825 -0.53421,0.57212 -0.96612,0.76153c-0.42436,0.18186 -0.96239,0.27279 -1.61399,0.27279c-0.58349,0 -1.04569,-0.04546 -1.38667,-0.13639c-0.33343,-0.09093 -0.56831,-0.21214 -0.7047,-0.36372c-0.13639,-0.15913 -0.20459,-0.33343 -0.20459,-0.52284c0,-0.18943 0.05301,-0.34478 0.15913,-0.46601c0.11366,-0.12882 0.27652,-0.19322 0.48874,-0.19322c0.24242,0 0.49248,0.0341 0.75017,0.1023c0.25761,0.0682 0.53421,0.1023 0.82973,0.1023c0.37882,0 0.6706,-0.0682 0.87519,-0.20459c0.20459,-0.14397 0.30689,-0.32204 0.30689,-0.53421c0,-0.15155 -0.03791,-0.28036 -0.11366,-0.38645c-0.07583,-0.11366 -0.21596,-0.21217 -0.42055,-0.29552c-0.20459,-0.09093 -0.50393,-0.17807 -0.89793,-0.26142c-0.34862,-0.0682 -0.61377,-0.14776 -0.79563,-0.23869c-0.17431,-0.0985 -0.26142,-0.24626 -0.26142,-0.44328c0,-0.21975 0.09848,-0.39402 0.29552,-0.52284c0.19696,-0.12882 0.47356,-0.25385 0.82973,-0.37508c0.49248,-0.17428 0.84483,-0.34098 1.05705,-0.50011c0.21969,-0.15913 0.32962,-0.35235 0.32962,-0.57967c0,-0.22732 -0.09474,-0.39782 -0.28415,-0.51148c-0.18186,-0.11366 -0.4471,-0.17049 -0.79563,-0.17049c-0.28042,0 -0.55321,0.0341 -0.81836,0.1023c-0.26524,0.0682 -0.54939,0.1023 -0.85246,0.1023c-0.20459,0 -0.35998,-0.04546 -0.46601,-0.13639c-0.10611,-0.09093 -0.15913,-0.21975 -0.15913,-0.38645c0,-0.21975 0.10985,-0.42055 0.32962,-0.60241c0.21969,-0.18943 0.52658,-0.34098 0.92066,-0.45465c0.394,-0.11366 0.84865,-0.17049 1.36394,-0.17049zM223.79934,177.56602c-0.21222,0 -0.39408,-0.07575 -0.54558,-0.22732c-0.15158,-0.15913 -0.22732,-0.35617 -0.22732,-0.59104c0,-0.27279 0.10985,-0.56831 0.32962,-0.88656c0.21969,-0.32583 0.53794,-0.64408 0.95476,-0.95476c0.42428,-0.31068 0.92821,-0.58347 1.5117,-0.81836v-0.04546c-0.96239,-0.40918 -1.67082,-0.86762 -2.12547,-1.3753c-0.4471,-0.50769 -0.6706,-0.9737 -0.6706,-1.39804c0,-0.17428 0.03783,-0.32204 0.11366,-0.44328c0.0833,-0.12124 0.18941,-0.21596 0.31825,-0.28415c0.13639,-0.0682 0.27652,-0.1023 0.42055,-0.1023c0.31062,0 0.60996,0.11745 0.89793,0.35235c0.29552,0.22732 0.58341,0.55694 0.86383,0.98886c0.28034,0.42434 0.55313,0.93582 0.81836,1.53443h0.04546c0.38645,-1.03811 0.788,-1.79206 1.20481,-2.26186c0.42428,-0.47738 0.86383,-0.71607 1.31847,-0.71607c0.21969,0 0.39018,0.07199 0.51148,0.21596c0.12121,0.13639 0.18186,0.31068 0.18186,0.52284c0,0.50011 -0.21596,0.98886 -0.64787,1.46623c-0.43191,0.47738 -1.08742,0.92823 -1.96634,1.35257v0.05683c0.81073,0.44707 1.41314,0.91308 1.80722,1.39804c0.40155,0.47738 0.60241,0.89793 0.60241,1.26164c0,0.22732 -0.0682,0.40918 -0.20459,0.54558c-0.12884,0.13639 -0.28415,0.20459 -0.46601,0.20459c-0.31825,0 -0.61377,-0.11748 -0.88656,-0.35235c-0.27279,-0.23487 -0.53047,-0.56073 -0.7729,-0.97749c-0.23495,-0.42434 -0.45846,-0.90929 -0.6706,-1.45487h-0.04546c-0.28042,0.68954 -0.57212,1.25785 -0.87519,1.70492c-0.29552,0.43946 -0.59486,0.76535 -0.89793,0.97749c-0.30315,0.20459 -0.60241,0.30689 -0.89793,0.30689zM233.00454,169.54152c0.48493,0 0.91311,0.07199 1.28437,0.21596c0.37127,0.14397 0.66305,0.35993 0.87519,0.64787c0.21977,0.28795 0.32962,0.65166 0.32962,1.09115c0,0.50011 -0.18186,0.94718 -0.54558,1.34121c-0.35617,0.38645 -0.91311,0.66681 -1.67082,0.8411l-0.05683,-0.13639c0.78808,0.0682 1.37149,0.27279 1.75039,0.61377c0.3789,0.34098 0.56831,0.78426 0.56831,1.32984c0,0.39402 -0.10985,0.75017 -0.32962,1.06842c-0.21214,0.31825 -0.53421,0.57212 -0.96612,0.76153c-0.42436,0.18186 -0.96231,0.27279 -1.61399,0.27279c-0.58349,0 -1.04569,-0.04546 -1.38667,-0.13639c-0.33343,-0.09093 -0.56831,-0.21214 -0.7047,-0.36372c-0.13639,-0.15913 -0.20459,-0.33343 -0.20459,-0.52284c0,-0.18943 0.05301,-0.34478 0.15913,-0.46601c0.11366,-0.12882 0.2766,-0.19322 0.48874,-0.19322c0.2425,0 0.49256,0.0341 0.75017,0.1023c0.25761,0.0682 0.53421,0.1023 0.82973,0.1023c0.3789,0 0.6706,-0.0682 0.87519,-0.20459c0.20459,-0.14397 0.30689,-0.32204 0.30689,-0.53421c0,-0.15155 -0.03791,-0.28036 -0.11366,-0.38645c-0.07575,-0.11366 -0.21596,-0.21217 -0.42055,-0.29552c-0.20459,-0.09093 -0.50393,-0.17807 -0.89793,-0.26142c-0.34853,-0.0682 -0.61377,-0.14776 -0.79563,-0.23869c-0.17431,-0.0985 -0.26142,-0.24626 -0.26142,-0.44328c0,-0.21975 0.09848,-0.39402 0.29552,-0.52284c0.19704,-0.12882 0.47356,-0.25385 0.82973,-0.37508c0.49256,-0.17428 0.84491,-0.34098 1.05705,-0.50011c0.21977,-0.15913 0.32962,-0.35235 0.32962,-0.57967c0,-0.22732 -0.09474,-0.39782 -0.28415,-0.51148c-0.18186,-0.11366 -0.4471,-0.17049 -0.79563,-0.17049c-0.28034,0 -0.55313,0.0341 -0.81836,0.1023c-0.26524,0.0682 -0.54939,0.1023 -0.85246,0.1023c-0.20459,0 -0.3599,-0.04546 -0.46601,-0.13639c-0.10611,-0.09093 -0.15913,-0.21975 -0.15913,-0.38645c0,-0.21975 0.10985,-0.42055 0.32962,-0.60241c0.21977,-0.18943 0.52666,-0.34098 0.92066,-0.45465c0.394,-0.11366 0.84865,-0.17049 1.36394,-0.17049zM222.35819,184.51399c-0.35617,0.10611 -0.68578,0.18941 -0.98886,0.25006c-0.30307,0.05301 -0.58722,0.07956 -0.85246,0.07956c-0.2425,0 -0.43191,-0.04928 -0.56831,-0.14776c-0.13639,-0.09848 -0.20459,-0.24624 -0.20459,-0.44328c0,-0.16668 0.05683,-0.3258 0.17049,-0.47738c0.11366,-0.15158 0.28797,-0.28797 0.52284,-0.40918c0.28034,-0.13639 0.6365,-0.25006 1.06842,-0.34098c0.43191,-0.09093 0.93584,-0.13639 1.5117,-0.13639c0.38645,0 0.72362,0.02655 1.01159,0.07956c0.28797,0.04546 0.51529,0.1023 0.68197,0.17049c0.21977,0.09093 0.37127,0.19704 0.45465,0.31825c0.09093,0.11366 0.13639,0.24624 0.13639,0.39782c0,0.18941 -0.0682,0.3448 -0.20459,0.46601c-0.13639,0.12121 -0.35617,0.18186 -0.65924,0.18186c-0.18186,0 -0.37127,-0.01137 -0.56831,-0.0341c-0.18941,-0.02273 -0.39026,-0.05301 -0.60241,-0.09093zM223.14246,183.90021c0.38645,0.48493 0.68578,1.0495 0.89793,1.69356c0.21977,0.6365 0.32962,1.30329 0.32962,2.00044c0,0.72743 -0.1023,1.37912 -0.30689,1.95498c-0.19704,0.56831 -0.51529,1.01914 -0.95476,1.35257c-0.43946,0.3258 -1.02295,0.48874 -1.75039,0.48874c-0.89411,0 -1.56471,-0.25006 -2.01181,-0.75017c-0.4471,-0.50011 -0.6706,-1.1859 -0.6706,-2.05727c0,-0.42436 0.05301,-0.78426 0.15913,-1.07978c0.11366,-0.29552 0.26142,-0.51903 0.44328,-0.6706c0.18186,-0.15913 0.3789,-0.23869 0.59104,-0.23869c0.19704,0 0.3448,0.06065 0.44328,0.18186c0.10611,0.11366 0.15913,0.2766 0.15913,0.48874c0,0.17431 -0.03028,0.36753 -0.09093,0.57967c-0.05301,0.20459 -0.07956,0.40537 -0.07956,0.60241c0,0.50766 0.08711,0.87901 0.26142,1.11388c0.18186,0.22732 0.46983,0.34098 0.86383,0.34098c0.52284,0 0.89038,-0.21214 1.10252,-0.6365c0.21977,-0.43191 0.32962,-1.01914 0.32962,-1.76175c0,-0.53802 -0.05683,-1.0646 -0.17049,-1.57989c-0.11366,-0.51529 -0.29552,-1.04187 -0.54558,-1.57989zM231.21194,191.37914c-0.25769,0 -0.43573,-0.09848 -0.53421,-0.29552c-0.09093,-0.20459 -0.14403,-0.52666 -0.15913,-0.96612l0.11366,0.05683c-0.42436,0.82591 -1.22754,1.23891 -2.40962,1.23891c-0.53802,0 -0.98512,-0.09474 -1.34121,-0.28415c-0.35617,-0.19704 -0.6214,-0.45465 -0.79563,-0.7729c-0.16676,-0.3258 -0.25006,-0.67815 -0.25006,-1.05705c0,-0.65169 0.22732,-1.1669 0.68197,-1.5458c0.45465,-0.38645 1.05705,-0.57967 1.80722,-0.57967c0.49248,0 0.92066,0.07201 1.28437,0.21596c0.36372,0.14394 0.67434,0.3448 0.93202,0.60241l-0.19322,-0.02273c-0.0531,-0.76535 -0.21977,-1.31092 -0.50011,-1.63673c-0.27279,-0.33343 -0.66305,-0.50011 -1.17071,-0.50011c-0.29552,0 -0.56831,0.04546 -0.81836,0.13639c-0.25006,0.09093 -0.48119,0.18567 -0.69334,0.28415c-0.20459,0.09093 -0.39782,0.13639 -0.57967,0.13639c-0.18186,0 -0.32588,-0.06065 -0.43191,-0.18186c-0.09856,-0.12121 -0.14776,-0.2766 -0.14776,-0.46601c0,-0.27279 0.12876,-0.53039 0.38645,-0.7729c0.26516,-0.2425 0.61377,-0.43946 1.04569,-0.59104c0.43191,-0.15158 0.90166,-0.22732 1.4094,-0.22732c0.61377,0 1.14035,0.14776 1.57989,0.44328c0.43946,0.29552 0.7729,0.72743 1.00022,1.29574c0.19696,0.48493 0.33717,1.02677 0.42055,1.62536c0.0833,0.59859 0.12495,1.23891 0.12495,1.92088c0,0.51529 -0.02647,0.91311 -0.07948,1.19345c-0.0531,0.28034 -0.13639,0.47738 -0.25006,0.59104c-0.10611,0.10611 -0.25006,0.15913 -0.43191,0.15913zM228.70002,190.10613c0.25006,0 0.50385,-0.0341 0.76153,-0.1023c0.25761,-0.07575 0.47356,-0.18567 0.64787,-0.32962c0.17423,-0.14394 0.26142,-0.32207 0.26142,-0.53421c0,-0.18186 -0.07583,-0.32962 -0.22732,-0.44328c-0.14403,-0.12121 -0.33725,-0.21214 -0.57967,-0.27279c-0.23495,-0.06065 -0.48874,-0.09093 -0.76153,-0.09093c-0.46228,0 -0.81463,0.07956 -1.05705,0.23869c-0.23495,0.15913 -0.35235,0.37127 -0.35235,0.6365c0,0.28797 0.10985,0.51148 0.32962,0.6706c0.22732,0.15158 0.55313,0.22732 0.97749,0.22732zM232.95063,186.65082c0,-0.78808 0.09093,-1.35639 0.27279,-1.70492c0.18949,-0.34853 0.43573,-0.52284 0.7388,-0.52284c0.17431,0 0.30689,0.06438 0.39782,0.19322c0.09856,0.12121 0.16676,0.28797 0.20459,0.50011c0.03791,0.20459 0.05683,0.43573 0.05683,0.69334c0,0.3258 0,0.70852 0,1.14798c0.00763,0.43191 0.01518,0.87901 0.02273,1.34121c0.01518,0.45465 0.03036,0.87901 0.04546,1.27301h0.04546c0.23495,-0.99267 0.46983,-1.80722 0.7047,-2.44372c0.2425,-0.6365 0.48874,-1.10633 0.7388,-1.4094c0.25769,-0.3107 0.51529,-0.46601 0.7729,-0.46601c0.28042,0 0.54558,0.15531 0.79563,0.46601c0.25769,0.30307 0.50774,0.76535 0.75017,1.38667c0.25006,0.62132 0.50393,1.40559 0.76153,2.35279h0.04546c0.02273,-0.65169 0.03791,-1.33739 0.04546,-2.05727c0.00763,-0.71988 0.01137,-1.37912 0.01137,-1.97771c0,-0.43191 0.07201,-0.75017 0.21596,-0.95476c0.14403,-0.20459 0.3448,-0.30689 0.60241,-0.30689c0.32588,0 0.56076,0.17049 0.7047,0.51148c0.15158,0.33343 0.22732,0.78426 0.22732,1.35257c0,0.41673 -0.02273,0.86383 -0.0682,1.34121c-0.03783,0.46983 -0.09466,0.92447 -0.17049,1.36394c-0.07575,0.43946 -0.16668,0.82218 -0.27279,1.14798c-0.15913,0.48493 -0.33717,0.85246 -0.53421,1.10252c-0.18941,0.25006 -0.43946,0.37508 -0.75017,0.37508c-0.28034,0 -0.56068,-0.16294 -0.8411,-0.48874c-0.27279,-0.33343 -0.53039,-0.82973 -0.7729,-1.48897c-0.24242,-0.65924 -0.46601,-1.48142 -0.6706,-2.46645h-0.04546c-0.19696,0.93957 -0.43191,1.72765 -0.7047,2.36416c-0.26516,0.62895 -0.54931,1.10252 -0.85246,1.42077c-0.29552,0.31825 -0.59104,0.47738 -0.88656,0.47738c-0.31062,0 -0.57204,-0.14021 -0.78426,-0.42055c-0.20459,-0.28034 -0.37508,-0.71225 -0.51148,-1.29574c-0.06057,-0.29552 -0.11366,-0.60996 -0.15913,-0.94339c-0.04546,-0.34098 -0.07956,-0.67442 -0.1023,-1.00022c-0.02273,-0.3258 -0.0341,-0.61377 -0.0341,-0.86383zM247.05123,191.37914c-0.25761,0 -0.43573,-0.09848 -0.53421,-0.29552c-0.09093,-0.20459 -0.14394,-0.52666 -0.15913,-0.96612l0.11366,0.05683c-0.42436,0.82591 -1.22754,1.23891 -2.40962,1.23891c-0.53802,0 -0.98504,-0.09474 -1.34121,-0.28415c-0.35617,-0.19704 -0.62132,-0.45465 -0.79563,-0.7729c-0.16668,-0.3258 -0.25006,-0.67815 -0.25006,-1.05705c0,-0.65169 0.22732,-1.1669 0.68197,-1.5458c0.45465,-0.38645 1.05705,-0.57967 1.80722,-0.57967c0.49256,0 0.92066,0.07201 1.28437,0.21596c0.36372,0.14394 0.67442,0.3448 0.93202,0.60241l-0.19322,-0.02273c-0.05301,-0.76535 -0.21977,-1.31092 -0.50011,-1.63673c-0.27279,-0.33343 -0.66305,-0.50011 -1.17071,-0.50011c-0.29552,0 -0.56831,0.04546 -0.81836,0.13639c-0.25006,0.09093 -0.48119,0.18567 -0.69334,0.28415c-0.20459,0.09093 -0.39782,0.13639 -0.57967,0.13639c-0.18186,0 -0.3258,-0.06065 -0.43191,-0.18186c-0.09848,-0.12121 -0.14776,-0.2766 -0.14776,-0.46601c0,-0.27279 0.12884,-0.53039 0.38645,-0.7729c0.26524,-0.2425 0.61377,-0.43946 1.04569,-0.59104c0.43191,-0.15158 0.90174,-0.22732 1.4094,-0.22732c0.61377,0 1.14043,0.14776 1.57989,0.44328c0.43946,0.29552 0.7729,0.72743 1.00022,1.29574c0.19704,0.48493 0.33717,1.02677 0.42055,1.62536c0.08338,0.59859 0.12503,1.23891 0.12503,1.92088c0,0.51529 -0.02655,0.91311 -0.07956,1.19345c-0.05301,0.28034 -0.13639,0.47738 -0.25006,0.59104c-0.10611,0.10611 -0.25006,0.15913 -0.43191,0.15913zM244.53932,190.10613c0.25006,0 0.50393,-0.0341 0.76153,-0.1023c0.25761,-0.07575 0.47356,-0.18567 0.64787,-0.32962c0.17431,-0.14394 0.26142,-0.32207 0.26142,-0.53421c0,-0.18186 -0.07575,-0.32962 -0.22732,-0.44328c-0.14394,-0.12121 -0.33717,-0.21214 -0.57967,-0.27279c-0.23487,-0.06065 -0.48874,-0.09093 -0.76153,-0.09093c-0.4622,0 -0.81455,0.07956 -1.05705,0.23869c-0.23487,0.15913 -0.35235,0.37127 -0.35235,0.6365c0,0.28797 0.10985,0.51148 0.32962,0.6706c0.22732,0.15158 0.55313,0.22732 0.97749,0.22732zM250.06302,191.37914c-0.16668,0 -0.30307,-0.05683 -0.40918,-0.17049c-0.09848,-0.11366 -0.17804,-0.2766 -0.23869,-0.48874c-0.06065,-0.3107 -0.11366,-0.71607 -0.15913,-1.21618c-0.03791,-0.50766 -0.05683,-1.0495 -0.05683,-1.62536c0,-0.3258 0.00755,-0.69334 0.02273,-1.10252c0.01518,-0.40918 0.0341,-0.82218 0.05683,-1.23891c0.03028,-0.42436 0.06065,-0.81836 0.09093,-1.18208c0.03791,-0.36372 0.07575,-0.65924 0.11366,-0.88656c0.06065,-0.33343 0.14776,-0.59486 0.26142,-0.78426c0.12121,-0.19704 0.3107,-0.29552 0.56831,-0.29552c0.26524,0 0.45846,0.1023 0.57967,0.30689c0.12121,0.19704 0.18186,0.44328 0.18186,0.7388c0,0.33343 -0.02655,0.72743 -0.07956,1.18208c-0.04546,0.45465 -0.11748,0.91684 -0.21596,1.38667l-0.22732,0.27279c0.08338,-0.31825 0.21977,-0.60996 0.40918,-0.87519c0.18941,-0.26524 0.4281,-0.47356 0.71607,-0.62514c0.28797,-0.15913 0.62132,-0.23869 1.00022,-0.23869c0.74262,0 1.33366,0.26524 1.77312,0.79563c0.4471,0.52284 0.6706,1.34121 0.6706,2.45509c0,0.78045 -0.11748,1.43213 -0.35235,1.95498c-0.22732,0.52284 -0.54176,0.91684 -0.94339,1.18208c-0.394,0.25761 -0.84491,0.38645 -1.35257,0.38645c-0.47738,0 -0.89038,-0.14021 -1.23891,-0.42055c-0.34098,-0.28034 -0.56076,-0.68578 -0.65924,-1.21618l0.15913,0.12503c-0.03028,0.54558 -0.10611,0.94721 -0.22732,1.20481c-0.11366,0.25006 -0.26142,0.37508 -0.44328,0.37508zM252.14303,189.99247c0.3789,0 0.71225,-0.17049 1.00022,-0.51148c0.28797,-0.34098 0.43191,-0.87519 0.43191,-1.60263c0,-0.60622 -0.11366,-1.0987 -0.34098,-1.4776c-0.21977,-0.3789 -0.59104,-0.56831 -1.11388,-0.56831c-0.42436,0 -0.76535,0.17049 -1.02295,0.51148c-0.25761,0.33343 -0.38645,0.8411 -0.38645,1.52306c0,0.62132 0.12884,1.1328 0.38645,1.53443c0.25761,0.394 0.60622,0.59104 1.04569,0.59104zM261.23676,191.37914c-0.25769,0 -0.43573,-0.09848 -0.53421,-0.29552c-0.09093,-0.20459 -0.14403,-0.52666 -0.15913,-0.96612l0.11366,0.05683c-0.42436,0.82591 -1.22754,1.23891 -2.40962,1.23891c-0.53802,0 -0.98512,-0.09474 -1.34121,-0.28415c-0.35617,-0.19704 -0.6214,-0.45465 -0.79563,-0.7729c-0.16676,-0.3258 -0.25006,-0.67815 -0.25006,-1.05705c0,-0.65169 0.22732,-1.1669 0.68197,-1.5458c0.45465,-0.38645 1.05705,-0.57967 1.80722,-0.57967c0.49248,0 0.92066,0.07201 1.28437,0.21596c0.36372,0.14394 0.67434,0.3448 0.93202,0.60241l-0.19322,-0.02273c-0.0531,-0.76535 -0.21977,-1.31092 -0.50011,-1.63673c-0.27279,-0.33343 -0.66305,-0.50011 -1.17071,-0.50011c-0.29552,0 -0.56831,0.04546 -0.81836,0.13639c-0.25006,0.09093 -0.48119,0.18567 -0.69334,0.28415c-0.20459,0.09093 -0.39782,0.13639 -0.57967,0.13639c-0.18186,0 -0.32588,-0.06065 -0.43191,-0.18186c-0.09856,-0.12121 -0.14776,-0.2766 -0.14776,-0.46601c0,-0.27279 0.12876,-0.53039 0.38645,-0.7729c0.26516,-0.2425 0.61377,-0.43946 1.04569,-0.59104c0.43191,-0.15158 0.90166,-0.22732 1.4094,-0.22732c0.61377,0 1.14035,0.14776 1.57989,0.44328c0.43946,0.29552 0.7729,0.72743 1.00022,1.29574c0.19696,0.48493 0.33717,1.02677 0.42055,1.62536c0.0833,0.59859 0.12503,1.23891 0.12503,1.92088c0,0.51529 -0.02655,0.91311 -0.07956,1.19345c-0.0531,0.28034 -0.13639,0.47738 -0.25006,0.59104c-0.10611,0.10611 -0.25006,0.15913 -0.43191,0.15913zM258.72484,190.10613c0.25006,0 0.50385,-0.0341 0.76153,-0.1023c0.25761,-0.07575 0.47356,-0.18567 0.64787,-0.32962c0.17423,-0.14394 0.26142,-0.32207 0.26142,-0.53421c0,-0.18186 -0.07583,-0.32962 -0.22732,-0.44328c-0.14403,-0.12121 -0.33725,-0.21214 -0.57967,-0.27279c-0.23495,-0.06065 -0.48874,-0.09093 -0.76153,-0.09093c-0.46228,0 -0.81463,0.07956 -1.05705,0.23869c-0.23495,0.15913 -0.35235,0.37127 -0.35235,0.6365c0,0.28797 0.10985,0.51148 0.32962,0.6706c0.22732,0.15158 0.55313,0.22732 0.97749,0.22732zM264.54398,184.19573c0.2425,0 0.40545,0.09848 0.48874,0.29552c0.09093,0.19704 0.13639,0.48874 0.13639,0.87519c0,0.09093 -0.00755,0.18941 -0.02273,0.29552c-0.00755,0.09848 -0.02273,0.18941 -0.04546,0.27279l-0.02273,-0.22732c0.18186,-0.49256 0.46228,-0.87519 0.8411,-1.14798c0.3789,-0.28034 0.78053,-0.42055 1.20481,-0.42055c0.46983,0 0.86009,0.13258 1.17071,0.39782c0.31825,0.26524 0.55321,0.6365 0.7047,1.11388c0.15913,0.47738 0.23869,1.04187 0.23869,1.69356c0,0.40163 -0.01892,0.79945 -0.05683,1.19345c-0.03028,0.38645 -0.07575,0.74262 -0.13639,1.06842c-0.05301,0.31825 -0.11366,0.57967 -0.18186,0.78426c-0.09093,0.25761 -0.20833,0.45083 -0.35235,0.57967c-0.14394,0.12121 -0.31444,0.18186 -0.51148,0.18186c-0.19696,0 -0.34853,-0.07201 -0.45465,-0.21596c-0.10603,-0.14394 -0.15913,-0.33717 -0.15913,-0.57967c0,-0.25761 0.019,-0.56831 0.05683,-0.93202c0.03791,-0.37127 0.07201,-0.74635 0.1023,-1.12525c0.03791,-0.38645 0.05683,-0.73498 0.05683,-1.04569c0,-1.06087 -0.34853,-1.59126 -1.04569,-1.59126c-0.37127,0 -0.68197,0.16668 -0.93202,0.50011c-0.25006,0.3258 -0.41673,0.79181 -0.50011,1.39804c-0.02273,0.20459 -0.0341,0.45846 -0.0341,0.76153c0,0.30307 0,0.60622 0,0.90929c0.00763,0.29552 0,0.54558 -0.02273,0.75017c-0.03028,0.45465 -0.1174,0.78045 -0.26142,0.97749c-0.13639,0.19704 -0.3258,0.29552 -0.56831,0.29552c-0.28034,0 -0.49248,-0.12884 -0.6365,-0.38645c-0.14394,-0.26524 -0.21596,-0.70852 -0.21596,-1.32984c0,-0.31825 0.00763,-0.67442 0.02273,-1.06842c0.01518,-0.394 0.0341,-0.78808 0.05683,-1.18208c0.03036,-0.40163 0.06446,-0.76535 0.1023,-1.09115c0.07583,-0.61377 0.18567,-1.0987 0.32962,-1.45487c0.14403,-0.36372 0.35998,-0.54558 0.64787,-0.54558zM273.52227,188.82176c0.30315,0 0.54558,0.10611 0.72743,0.31825c0.18949,0.20459 0.28415,0.50766 0.28415,0.90929c0,0.37127 -0.09093,0.68578 -0.27279,0.94339c-0.17423,0.25761 -0.45838,0.38645 -0.85246,0.38645c-0.31825,0 -0.55313,-0.10611 -0.7047,-0.31825c-0.14394,-0.21214 -0.21596,-0.51148 -0.21596,-0.89793c0,-0.22732 0.03036,-0.44328 0.09093,-0.64787c0.06065,-0.20459 0.16676,-0.37127 0.31825,-0.50011c0.15158,-0.12884 0.35998,-0.19322 0.62514,-0.19322zM273.52227,184.16163c0.30315,0 0.54558,0.10611 0.72743,0.31825c0.18949,0.20459 0.28415,0.50766 0.28415,0.90929c0,0.37127 -0.09093,0.68578 -0.27279,0.94339c-0.17423,0.25761 -0.45838,0.38645 -0.85246,0.38645c-0.31825,0 -0.55313,-0.10611 -0.7047,-0.31825c-0.14394,-0.21214 -0.21596,-0.51148 -0.21596,-0.89793c0,-0.22732 0.03036,-0.44328 0.09093,-0.64787c0.06065,-0.20459 0.16676,-0.37127 0.31825,-0.50011c0.15158,-0.12884 0.35998,-0.19322 0.62514,-0.19322z"/></g></g></svg>