<svg version="1.1" xmlns="http://www.w3.org/2000/svg" xmlns:xlink="http://www.w3.org/1999/xlink" width="145.42204" height="17.36683" viewBox="0,0,145.42204,17.36683"><g transform="translate(-167.28898,-171.31658)"><g data-paper-data="{&quot;isPaintingLayer&quot;:true}" fill="#060606" fill-rule="nonzero" stroke="none" stroke-width="1" stroke-linecap="butt" stroke-linejoin="miter" stroke-miterlimit="10" stroke-dasharray="" stroke-dashoffset="0" style="mix-blend-mode: normal"><path d="M172.24836,172.3013c1.42038,0 2.46478,0.36404 3.13319,1.09213c0.68034,0.72809 1.02052,1.68297 1.02052,2.86463c0,0.81165 -0.19094,1.51586 -0.57293,2.11267c-0.37002,0.59681 -0.87729,1.06231 -1.52183,1.3965c-0.64454,0.32227 -1.37264,0.48341 -2.18428,0.48341c-0.38194,0 -0.78777,-0.0418 -1.21746,-0.12533c-0.41775,-0.08353 -0.85342,-0.24465 -1.30698,-0.48341l0.08952,-0.23275c0.09549,0.2984 0.17307,0.66844 0.23275,1.11004c0.07162,0.42969 0.12533,0.87729 0.16114,1.34279c0.04775,0.45359 0.07162,0.87129 0.07162,1.25327c0,0.70425 -0.11936,1.24727 -0.35808,1.62926c-0.22678,0.36998 -0.56695,0.55502 -1.02052,0.55502c-0.38194,0 -0.68633,-0.11933 -0.9131,-0.35808c-0.21485,-0.23875 -0.36404,-0.63264 -0.4476,-1.18165c-0.08355,-0.54903 -0.12533,-1.28308 -0.12533,-2.20219c0,-1.76652 0.07758,-3.27045 0.23275,-4.51179c0.1671,-1.25327 0.4476,-2.238 0.84148,-2.95415c0.31034,-0.54905 0.78777,-0.98472 1.43231,-1.30698c0.65647,-0.32227 1.4741,-0.48341 2.45284,-0.48341zM171.90819,178.13797c0.71615,0 1.29505,-0.19097 1.73669,-0.57293c0.45356,-0.38194 0.68034,-0.93698 0.68034,-1.66507c0,-0.47744 -0.16114,-0.87133 -0.48341,-1.18165c-0.31034,-0.32227 -0.79971,-0.48341 -1.46812,-0.48341c-0.48937,0 -0.9131,0.11339 -1.27117,0.34017c-0.35808,0.21485 -0.63262,0.51921 -0.82358,0.9131c-0.17904,0.38194 -0.26855,0.82358 -0.26855,1.32489c0,0.4655 0.1492,0.80567 0.4476,1.02052c0.31034,0.20291 0.79374,0.30436 1.45022,0.30436zM182.94793,185.31746c-1.32489,0 -2.38122,-0.19695 -3.169,-0.59083c-0.78777,-0.39388 -1.3547,-0.96082 -1.70088,-1.70088c-0.34617,-0.74005 -0.51921,-1.62325 -0.51921,-2.64979c0,-1.30102 0.23875,-2.4051 0.71615,-3.31222c0.4894,-0.91907 1.15775,-1.62329 2.00524,-2.11267c0.85939,-0.48937 1.8322,-0.73406 2.91834,-0.73406c1.27717,0 2.2141,0.2984 2.81091,0.89519c0.59683,0.58486 0.89519,1.35473 0.89519,2.30961c0,0.7639 -0.20294,1.42634 -0.60874,1.98734c-0.39388,0.54903 -0.94291,0.97281 -1.64717,1.27117c-0.70425,0.29837 -1.51583,0.4476 -2.43493,0.4476c-0.51322,0 -1.00862,-0.06562 -1.48603,-0.19695c-0.47741,-0.13133 -0.9071,-0.31036 -1.28908,-0.53712l0.42969,-0.78777c-0.03581,0.28646 -0.05371,0.57293 -0.05371,0.85939c0,0.83549 0.26256,1.43832 0.78777,1.8083c0.52521,0.35808 1.27117,0.53712 2.238,0.53712c0.75196,0 1.3547,-0.06562 1.8083,-0.19695c0.45359,-0.13133 0.83549,-0.25666 1.14584,-0.37598c0.31036,-0.13133 0.61473,-0.19695 0.9131,-0.19695c0.16713,0 0.31627,0.04772 0.4476,0.14323c0.14323,0.08353 0.25666,0.20885 0.34017,0.37598c0.09552,0.16713 0.14323,0.36998 0.14323,0.60874c0,0.35808 -0.17904,0.70425 -0.53712,1.03843c-0.35808,0.32227 -0.8892,0.59083 -1.59345,0.80567c-0.69225,0.20294 -1.54575,0.30436 -2.56026,0.30436zM181.90951,179.46287c0.84748,0 1.52784,-0.17904 2.04105,-0.53712c0.51322,-0.35808 0.76986,-0.79971 0.76986,-1.32489c0,-0.41775 -0.14323,-0.75795 -0.42969,-1.02052c-0.27456,-0.27453 -0.71016,-0.41179 -1.30698,-0.41179c-0.56102,0 -1.06823,0.10743 -1.52183,0.32227c-0.4416,0.20291 -0.78777,0.47147 -1.03843,0.80567c-0.25065,0.33421 -0.37598,0.69825 -0.37598,1.09213c0,0.34615 0.16114,0.61471 0.48341,0.80567c0.33418,0.17904 0.79376,0.26855 1.3786,0.26855zM191.03836,174.03798c0.38198,0 0.63863,0.15516 0.76986,0.4655c0.14323,0.31034 0.21485,0.76986 0.21485,1.3786c0,0.14323 -0.01191,0.2984 -0.03581,0.4655c-0.01191,0.15516 -0.03581,0.2984 -0.07162,0.42969l-0.03581,-0.35808c0.28646,-0.77584 0.72815,-1.3786 1.32489,-1.8083c0.59683,-0.44163 1.22946,-0.66244 1.89783,-0.66244c0.74005,0 1.35479,0.20888 1.84411,0.62664c0.50131,0.41775 0.87138,1.00262 1.11004,1.75459c0.25065,0.75196 0.37598,1.64119 0.37598,2.66769c0,0.63262 -0.02981,1.25927 -0.08952,1.87992c-0.04772,0.60874 -0.11933,1.16974 -0.21485,1.68297c-0.08353,0.50131 -0.17904,0.9131 -0.28646,1.23537c-0.14323,0.40579 -0.32818,0.71016 -0.55502,0.9131c-0.22675,0.19094 -0.49531,0.28646 -0.80567,0.28646c-0.31028,0 -0.54903,-0.11342 -0.71615,-0.34017c-0.16704,-0.22675 -0.25065,-0.53112 -0.25065,-0.9131c0,-0.40579 0.0299,-0.89519 0.08952,-1.46812c0.05971,-0.58483 0.11342,-1.17566 0.16114,-1.7725c0.05971,-0.60874 0.08952,-1.15778 0.08952,-1.64717c0,-1.67103 -0.54903,-2.50655 -1.64717,-2.50655c-0.58483,0 -1.07424,0.26259 -1.46812,0.78777c-0.39388,0.51324 -0.65644,1.24731 -0.78777,2.20219c-0.03581,0.32227 -0.05371,0.72215 -0.05371,1.19956c0,0.47741 0,0.9549 0,1.43231c0.01199,0.4655 0,0.85939 -0.03581,1.18165c-0.04772,0.71615 -0.18495,1.22937 -0.41179,1.53974c-0.21485,0.31036 -0.51322,0.4655 -0.89519,0.4655c-0.4416,0 -0.77578,-0.20294 -1.00262,-0.60874c-0.22675,-0.41778 -0.34017,-1.11604 -0.34017,-2.09476c0,-0.50131 0.01199,-1.06233 0.03581,-1.68297c0.0239,-0.62063 0.05371,-1.24134 0.08952,-1.86202c0.0478,-0.63262 0.10151,-1.20553 0.16114,-1.71878c0.11942,-0.96681 0.29245,-1.73071 0.51921,-2.29171c0.22684,-0.57293 0.56701,-0.85939 1.02052,-0.85939zM204.03161,184.88777c-1.12194,0 -2.03505,-0.42969 -2.73931,-1.28908c-0.70416,-0.87129 -1.05633,-2.19028 -1.05633,-3.95677c0,-1.88589 0.34017,-3.26449 1.02052,-4.1358c0.68034,-0.87133 1.57555,-1.30698 2.68559,-1.30698c0.65654,0 1.23537,0.1671 1.73669,0.50131c0.50131,0.33421 0.931,0.80567 1.28908,1.41441l-0.14323,0.25065c-0.03581,-0.1671 -0.06562,-0.34615 -0.08952,-0.53712c-0.02382,-0.19097 -0.03581,-0.33421 -0.03581,-0.42969c0,-0.48937 0.07761,-0.86536 0.23275,-1.12794c0.16713,-0.27453 0.42378,-0.41179 0.76986,-0.41179c0.38198,0 0.68034,0.15516 0.89519,0.4655c0.22684,0.31034 0.39988,0.75196 0.51921,1.32489c0.15523,0.58486 0.28646,1.33086 0.39388,2.238c0.10743,0.89519 0.16114,1.80233 0.16114,2.7214c0,1.14584 -0.04172,2.10667 -0.12533,2.88253c-0.08353,0.77586 -0.22075,1.42042 -0.41179,1.93362c-0.19094,0.51322 -0.4416,0.96082 -0.75196,1.34279c-0.51322,0.62063 -1.17566,1.09213 -1.98734,1.41441c-0.79968,0.33418 -1.72468,0.50131 -2.77512,0.50131c-0.75196,0 -1.3547,-0.07162 -1.8083,-0.21485c-0.45351,-0.13133 -0.78177,-0.31627 -0.98472,-0.55502c-0.19094,-0.22675 -0.28646,-0.48341 -0.28646,-0.76986c0,-0.29837 0.08361,-0.54903 0.25065,-0.75196c0.16713,-0.19094 0.41778,-0.28646 0.75196,-0.28646c0.29846,0 0.64454,0.04772 1.03843,0.14323c0.40588,0.09552 0.88329,0.14323 1.43231,0.14323c1.15786,0 1.97544,-0.27456 2.45284,-0.82358c0.4894,-0.53712 0.73406,-1.31298 0.73406,-2.32752c0,-0.27456 -0.0179,-0.59683 -0.05371,-0.96681l0.25065,0.08952c-0.29837,0.76387 -0.73997,1.3786 -1.32489,1.84411c-0.58483,0.45359 -1.26518,0.68034 -2.04105,0.68034zM204.71196,182.68558c0.38198,0 0.76396,-0.10143 1.14584,-0.30436c0.38198,-0.20294 0.69825,-0.53712 0.94891,-1.00262c0.25065,-0.4655 0.37598,-1.09213 0.37598,-1.87992c0,-0.94293 -0.22075,-1.71281 -0.66244,-2.30961c-0.4416,-0.59681 -1.06224,-0.89519 -1.86202,-0.89519c-0.69225,0 -1.19956,0.26259 -1.52183,0.78777c-0.32227,0.52518 -0.48341,1.31892 -0.48341,2.38122c0,1.01453 0.16114,1.8083 0.48341,2.38122c0.32227,0.56102 0.84748,0.84148 1.57555,0.84148zM216.86747,185.31746c-1.32489,0 -2.38122,-0.19695 -3.169,-0.59083c-0.78777,-0.39388 -1.3547,-0.96082 -1.70088,-1.70088c-0.34617,-0.74005 -0.51921,-1.62325 -0.51921,-2.64979c0,-1.30102 0.23875,-2.4051 0.71615,-3.31222c0.4894,-0.91907 1.15775,-1.62329 2.00524,-2.11267c0.85939,-0.48937 1.8322,-0.73406 2.91834,-0.73406c1.27717,0 2.2141,0.2984 2.81091,0.89519c0.59683,0.58486 0.89519,1.35473 0.89519,2.30961c0,0.7639 -0.20294,1.42634 -0.60874,1.98734c-0.39388,0.54903 -0.94291,0.97281 -1.64717,1.27117c-0.70425,0.29837 -1.51583,0.4476 -2.43493,0.4476c-0.51322,0 -1.00862,-0.06562 -1.48603,-0.19695c-0.47741,-0.13133 -0.9071,-0.31036 -1.28908,-0.53712l0.42969,-0.78777c-0.03581,0.28646 -0.05371,0.57293 -0.05371,0.85939c0,0.83549 0.26256,1.43832 0.78777,1.8083c0.52521,0.35808 1.27117,0.53712 2.238,0.53712c0.75196,0 1.3547,-0.06562 1.8083,-0.19695c0.45359,-0.13133 0.83549,-0.25666 1.14584,-0.37598c0.31036,-0.13133 0.61473,-0.19695 0.9131,-0.19695c0.16713,0 0.31627,0.04772 0.4476,0.14323c0.14323,0.08353 0.25666,0.20885 0.34017,0.37598c0.09552,0.16713 0.14323,0.36998 0.14323,0.60874c0,0.35808 -0.17904,0.70425 -0.53712,1.03843c-0.35808,0.32227 -0.8892,0.59083 -1.59345,0.80567c-0.69225,0.20294 -1.54575,0.30436 -2.56026,0.30436zM215.82905,179.46287c0.84748,0 1.52784,-0.17904 2.04105,-0.53712c0.51322,-0.35808 0.76986,-0.79971 0.76986,-1.32489c0,-0.41775 -0.14323,-0.75795 -0.42969,-1.02052c-0.27456,-0.27453 -0.71016,-0.41179 -1.30698,-0.41179c-0.56102,0 -1.06823,0.10743 -1.52183,0.32227c-0.4416,0.20291 -0.78777,0.47147 -1.03843,0.80567c-0.25065,0.33421 -0.37598,0.69825 -0.37598,1.09213c0,0.34615 0.16114,0.61471 0.48341,0.80567c0.33418,0.17904 0.79376,0.26855 1.3786,0.26855zM223.13179,177.09955c0,-1.14584 0.10743,-1.96943 0.32227,-2.47074c0.21485,-0.51324 0.51921,-0.76986 0.9131,-0.76986c0.31028,0 0.55502,0.13129 0.73406,0.39388c0.17904,0.25065 0.31028,0.56695 0.39388,0.94891c0.08353,0.37002 0.12533,0.746 0.12533,1.12794l-0.08952,-0.03581c0.20285,-0.64454 0.51322,-1.19956 0.931,-1.66507c0.42969,-0.4655 0.94291,-0.69825 1.53974,-0.69825c0.70416,0 1.22337,0.29243 1.55764,0.87729c0.33418,0.57293 0.50131,1.28908 0.50131,2.14848c0,1.14584 -0.13133,1.94555 -0.39388,2.39913c-0.26265,0.45359 -0.61473,0.68034 -1.05633,0.68034c-0.32227,0 -0.56102,-0.13133 -0.71615,-0.39388c-0.14323,-0.26259 -0.19103,-0.72809 -0.14323,-1.3965c0.04772,-0.70423 0.00591,-1.19359 -0.12533,-1.46812c-0.13133,-0.27453 -0.34017,-0.41179 -0.62664,-0.41179c-0.34617,0 -0.63264,0.22082 -0.85939,0.66244c-0.21485,0.42969 -0.32227,0.96084 -0.32227,1.59345c0,0.25065 0.02981,0.56695 0.08952,0.94891c0.05963,0.38198 0.12533,0.79968 0.19695,1.25327c0.07162,0.4416 0.13724,0.88329 0.19695,1.32489c0.05963,0.4416 0.08952,0.84748 0.08952,1.21746c0,0.65644 -0.10151,1.12794 -0.30436,1.41441c-0.20294,0.28646 -0.4894,0.42969 -0.85939,0.42969c-0.41778,0 -0.74005,-0.13133 -0.96681,-0.39388c-0.22684,-0.27456 -0.39988,-0.71615 -0.51921,-1.32489c-0.09552,-0.54903 -0.19103,-1.19956 -0.28646,-1.95153c-0.09552,-0.75196 -0.17313,-1.52183 -0.23275,-2.30961c-0.05971,-0.78777 -0.08952,-1.49796 -0.08952,-2.13057zM234.6724,174.39605h-0.35808c-0.03581,-0.52518 -0.0239,-1.02052 0.03581,-1.48603c0.05971,-0.47744 0.18504,-0.85939 0.37598,-1.14584c0.20294,-0.2984 0.4894,-0.4476 0.85939,-0.4476c0.33418,0 0.57892,0.10743 0.73406,0.32227c0.15513,0.21485 0.23275,0.51324 0.23275,0.89519c0,0.75196 -0.14323,1.3965 -0.42969,1.93362l-0.32227,-0.03581c0.64454,-0.22678 1.3726,-0.34017 2.18428,-0.34017c0.51322,0 0.91909,0.10145 1.21746,0.30436c0.31036,0.19097 0.4655,0.51921 0.4655,0.98472c0,0.44163 -0.17904,0.77584 -0.53712,1.00262c-0.35808,0.22678 -0.80567,0.34017 -1.34279,0.34017c-0.32227,0 -0.66844,-0.01194 -1.03843,-0.03581c-0.35808,-0.03581 -0.71016,-0.08952 -1.05633,-0.16114l0.30436,-0.37598c0.10743,0.45356 0.20885,0.97279 0.30436,1.55764c0.10743,0.57293 0.20294,1.16973 0.28646,1.7904c0.08353,0.62063 0.14923,1.22346 0.19695,1.8083c0.04772,0.58483 0.07162,1.11004 0.07162,1.57555c0,0.76387 -0.11933,1.3667 -0.35808,1.8083c-0.23875,0.4416 -0.59083,0.66244 -1.05633,0.66244c-0.36998,0 -0.66244,-0.11342 -0.87729,-0.34017c-0.20294,-0.22675 -0.35208,-0.51322 -0.4476,-0.85939c-0.08353,-0.35808 -0.13724,-0.72806 -0.16114,-1.11004c-0.01191,-0.38198 -0.0179,-0.72806 -0.0179,-1.03843c0,-0.52521 0.0239,-1.11604 0.07162,-1.7725c0.04772,-0.66842 0.11342,-1.35473 0.19695,-2.05895c0.09552,-0.70423 0.20294,-1.38458 0.32227,-2.04105l0.35808,0.30436c-0.60874,0.31034 -1.3607,0.4655 -2.2559,0.4655c-0.54903,0 -0.97281,-0.10145 -1.27117,-0.30436c-0.29837,-0.20291 -0.4476,-0.51921 -0.4476,-0.94891c0,-0.4655 0.16713,-0.82358 0.50131,-1.07424c0.33418,-0.26259 0.78177,-0.39388 1.34279,-0.39388c0.36998,0 0.71615,0.02387 1.03843,0.07162c0.33418,0.03581 0.62664,0.08355 0.87729,0.14323zM242.69864,171.4419c0.47749,0 0.81766,0.13129 1.02052,0.39388c0.21485,0.26259 0.32227,0.56695 0.32227,0.9131c0,0.42969 -0.13123,0.7639 -0.39388,1.00262c-0.25065,0.22678 -0.60874,0.34017 -1.07424,0.34017c-0.45351,0 -0.79368,-0.12533 -1.02052,-0.37598c-0.22675,-0.26259 -0.34017,-0.56695 -0.34017,-0.9131c0,-0.45356 0.13732,-0.79374 0.41179,-1.02052c0.27456,-0.22678 0.63264,-0.34017 1.07424,-0.34017zM242.80607,175.43449c0.38198,0 0.68034,0.35808 0.89519,1.07424c0.22684,0.71615 0.34017,1.85603 0.34017,3.41965c0,1.92173 -0.13724,3.30623 -0.41179,4.15371c-0.27447,0.84748 -0.69225,1.27117 -1.25327,1.27117c-0.42969,0 -0.74596,-0.31036 -0.94891,-0.931c-0.20285,-0.63264 -0.30436,-1.73069 -0.30436,-3.29432c0,-1.92169 0.15523,-3.34803 0.4655,-4.27904c0.32227,-0.94293 0.72815,-1.41441 1.21746,-1.41441zM254.0526,185.35327c-0.40588,0 -0.68635,-0.15513 -0.84148,-0.4655c-0.14323,-0.32227 -0.22684,-0.82957 -0.25065,-1.52183l0.17904,0.08952c-0.66844,1.30099 -1.93362,1.95153 -3.79563,1.95153c-0.84748,0 -1.55174,-0.14923 -2.11267,-0.4476c-0.56102,-0.31036 -0.9788,-0.71615 -1.25327,-1.21746c-0.26265,-0.51322 -0.39388,-1.06823 -0.39388,-1.66507c0,-1.02652 0.35808,-1.83812 1.07424,-2.43493c0.71615,-0.60874 1.66507,-0.9131 2.84672,-0.9131c0.77578,0 1.45022,0.11339 2.02315,0.34017c0.57293,0.22678 1.06224,0.54308 1.46812,0.94891l-0.30436,-0.03581c-0.08361,-1.20553 -0.34617,-2.06493 -0.78777,-2.57817c-0.42969,-0.52518 -1.04442,-0.78777 -1.84411,-0.78777c-0.4655,0 -0.89519,0.07162 -1.28908,0.21485c-0.39388,0.14323 -0.75796,0.29243 -1.09213,0.4476c-0.32227,0.14323 -0.62664,0.21485 -0.9131,0.21485c-0.28646,0 -0.5133,-0.09549 -0.68034,-0.28646c-0.15523,-0.19097 -0.23275,-0.43566 -0.23275,-0.73406c0,-0.42969 0.20285,-0.83552 0.60874,-1.21746c0.4177,-0.38194 0.96681,-0.69228 1.64717,-0.931c0.68034,-0.23872 1.42031,-0.35808 2.22009,-0.35808c0.96681,0 1.7963,0.23275 2.48865,0.69825c0.69225,0.4655 1.21746,1.14584 1.57555,2.04105c0.31028,0.7639 0.53112,1.61733 0.66244,2.56026c0.13123,0.94291 0.19685,1.95153 0.19685,3.02577c0,0.81167 -0.04172,1.43832 -0.12524,1.87992c-0.08361,0.4416 -0.21485,0.75196 -0.39388,0.931c-0.16713,0.16713 -0.39388,0.25065 -0.68034,0.25065zM250.09583,183.34802c0.39388,0 0.79368,-0.05371 1.19956,-0.16114c0.40579,-0.11933 0.74596,-0.29245 1.02052,-0.51921c0.27447,-0.22675 0.41179,-0.50731 0.41179,-0.84148c0,-0.28646 -0.11942,-0.51921 -0.35808,-0.69825c-0.22684,-0.19094 -0.53121,-0.33418 -0.9131,-0.42969c-0.37007,-0.09552 -0.76986,-0.14323 -1.19956,-0.14323c-0.72815,0 -1.28318,0.12533 -1.66507,0.37598c-0.37007,0.25065 -0.55502,0.58483 -0.55502,1.00262c0,0.45359 0.17304,0.80567 0.51921,1.05633c0.35808,0.23875 0.87129,0.35808 1.53974,0.35808zM259.26238,174.03798c0.38135,0 0.63828,0.15516 0.76986,0.4655c0.14323,0.31034 0.21485,0.76986 0.21485,1.3786c0,0.14323 -0.01253,0.2984 -0.03581,0.4655c-0.01253,0.15516 -0.03581,0.2984 -0.07162,0.42969l-0.03581,-0.35808c0.28646,-0.77584 0.7278,-1.3786 1.32489,-1.8083c0.59621,-0.44163 1.22911,-0.66244 1.89783,-0.66244c0.73943,0 1.35443,0.20888 1.84411,0.62664c0.50131,0.41775 0.87103,1.00262 1.11004,1.75459c0.25065,0.75196 0.37598,1.64119 0.37598,2.66769c0,0.63262 -0.03043,1.25927 -0.08952,1.87992c-0.04834,0.60874 -0.11996,1.16974 -0.21485,1.68297c-0.08415,0.50131 -0.17904,0.9131 -0.28646,1.23537c-0.14323,0.40579 -0.32854,0.71016 -0.55502,0.9131c-0.22737,0.19094 -0.49594,0.28646 -0.80567,0.28646c-0.31064,0 -0.54965,-0.11342 -0.71615,-0.34017c-0.1674,-0.22675 -0.25065,-0.53112 -0.25065,-0.9131c0,-0.40579 0.02953,-0.89519 0.08952,-1.46812c0.05909,-0.58483 0.1128,-1.17566 0.16114,-1.7725c0.05909,-0.60874 0.08952,-1.15778 0.08952,-1.64717c0,-1.67103 -0.54965,-2.50655 -1.64717,-2.50655c-0.58546,0 -1.07424,0.26259 -1.46812,0.78777c-0.39388,0.51324 -0.65707,1.24731 -0.78777,2.20219c-0.03581,0.32227 -0.05371,0.72215 -0.05371,1.19956c0,0.47741 0,0.9549 0,1.43231c0.01163,0.4655 0,0.85939 -0.03581,1.18165c-0.04834,0.71615 -0.18531,1.22937 -0.41179,1.53974c-0.21485,0.31036 -0.51384,0.4655 -0.89519,0.4655c-0.44222,0 -0.77614,-0.20294 -1.00262,-0.60874c-0.22737,-0.41778 -0.34017,-1.11604 -0.34017,-2.09476c0,-0.50131 0.01163,-1.06233 0.03581,-1.68297c0.02328,-0.62063 0.05371,-1.24134 0.08952,-1.86202c0.04744,-0.63262 0.10115,-1.20553 0.16114,-1.71878c0.11905,-0.96681 0.29183,-1.73071 0.51921,-2.29171c0.22648,-0.57293 0.56666,-0.85939 1.02052,-0.85939zM275.62479,185.28165c-0.7278,0 -1.27117,-0.09552 -1.62926,-0.28646c-0.35808,-0.19094 -0.65618,-0.53712 -0.89519,-1.03843c-0.1674,-0.38198 -0.31064,-1.00262 -0.42969,-1.86202c-0.10743,-0.87129 -0.16114,-1.99925 -0.16114,-3.38384c0,-0.96681 0.0179,-1.89184 0.05371,-2.77512c0.04744,-0.88327 0.11369,-1.56362 0.19695,-2.04105c0.09579,-0.60874 0.25065,-1.0444 0.4655,-1.30698c0.22648,-0.26259 0.50758,-0.39388 0.84148,-0.39388c0.2981,0 0.53085,0.13129 0.69825,0.39388c0.17904,0.26259 0.30436,0.62067 0.37598,1.07424c0.07162,0.44163 0.10743,0.931 0.10743,1.46812c0,1.45619 -0.05371,2.93028 -0.16114,4.42227c-0.09579,1.49203 -0.23275,2.86463 -0.41179,4.1179l-0.23275,-0.32227c0.53712,-0.36998 1.11004,-0.68635 1.71878,-0.94891c0.62038,-0.26256 1.22374,-0.4655 1.8083,-0.60874c0.5971,-0.14323 1.11631,-0.21485 1.55764,-0.21485c0.44133,0 0.76361,0.08952 0.96681,0.26855c0.21485,0.17904 0.32227,0.43569 0.32227,0.76986c0,0.33418 -0.1495,0.67435 -0.4476,1.02052c-0.28646,0.33418 -0.69825,0.62664 -1.23537,0.87729c-0.2981,0.14323 -0.65081,0.27456 -1.05633,0.39388c-0.40552,0.10743 -0.82358,0.19695 -1.25327,0.26855c-0.41806,0.07162 -0.81732,0.10743 -1.19956,0.10743zM290.35525,185.0668c-0.32227,0 -0.57293,-0.10743 -0.75196,-0.32227c-0.16651,-0.22675 -0.28019,-0.51322 -0.34017,-0.85939c-0.05909,-0.35808 -0.08952,-0.73406 -0.08952,-1.12794l0.08952,-0.07162c-0.11905,0.51322 -0.35181,0.9549 -0.69825,1.32489c-0.34555,0.36998 -0.74571,0.65644 -1.19956,0.85939c-0.45297,0.19094 -0.90683,0.28646 -1.3607,0.28646c-0.60874,0 -1.16375,-0.14323 -1.66507,-0.42969c-0.50131,-0.28646 -0.88893,-0.72806 -1.16375,-1.32489c-0.27393,-0.63264 -0.48878,-1.42632 -0.64454,-2.38122c-0.15486,-0.96681 -0.23275,-1.9575 -0.23275,-2.97205c0,-0.54905 0.02417,-1.05633 0.07162,-1.52183c0.04834,-0.4655 0.12533,-0.84746 0.23275,-1.14584c0.09579,-0.31034 0.23902,-0.53712 0.42969,-0.68034c0.19157,-0.15516 0.43596,-0.23275 0.73406,-0.23275c0.34645,0 0.615,0.13726 0.80567,0.41179c0.20321,0.26259 0.32854,0.63262 0.37598,1.11004c0.04834,0.39388 0.07788,0.88327 0.08952,1.46812c0.02417,0.57293 0.04207,1.15183 0.05371,1.73669c0.02417,0.57293 0.05371,1.05633 0.08952,1.45022c0.07162,0.71615 0.25693,1.24727 0.55502,1.59345c0.29899,0.33418 0.66244,0.50131 1.09213,0.50131c0.63291,0 1.11631,-0.23875 1.45022,-0.71615c0.3348,-0.47741 0.50131,-1.14584 0.50131,-2.00524c0,-0.42969 -0.02328,-0.9131 -0.07162,-1.45022c-0.04744,-0.54905 -0.10115,-1.08021 -0.16114,-1.59345c-0.04744,-0.51324 -0.07162,-0.93698 -0.07162,-1.27117c0,-0.56099 0.09579,-0.96084 0.28646,-1.19956c0.19157,-0.25065 0.45386,-0.37598 0.78777,-0.37598c0.28646,0 0.52548,0.07758 0.71615,0.23275c0.20321,0.15516 0.36435,0.37002 0.48341,0.64454c0.1674,0.35808 0.31064,0.84746 0.42969,1.46812c0.11996,0.62067 0.21485,1.32489 0.28646,2.11267c0.07162,0.78777 0.10743,1.61735 0.10743,2.48865c0,1.3368 -0.08952,2.33942 -0.26855,3.00786c-0.17904,0.65644 -0.49505,0.98472 -0.94891,0.98472zM301.57475,185.35327c-0.40552,0 -0.68572,-0.15513 -0.84148,-0.4655c-0.14323,-0.32227 -0.22648,-0.82957 -0.25065,-1.52183l0.17904,0.08952c-0.66781,1.30099 -1.93362,1.95153 -3.79563,1.95153c-0.84686,0 -1.55138,-0.14923 -2.11267,-0.4476c-0.5604,-0.31036 -0.97845,-0.71615 -1.25327,-1.21746c-0.26229,-0.51322 -0.39388,-1.06823 -0.39388,-1.66507c0,-1.02652 0.35808,-1.83812 1.07424,-2.43493c0.71615,-0.60874 1.66507,-0.9131 2.84672,-0.9131c0.77614,0 1.45022,0.11339 2.02315,0.34017c0.57293,0.22678 1.0626,0.54308 1.46812,0.94891l-0.30436,-0.03581c-0.08325,-1.20553 -0.34555,-2.06493 -0.78777,-2.57817c-0.42969,-0.52518 -1.0438,-0.78777 -1.84411,-0.78777c-0.4655,0 -0.89519,0.07162 -1.28908,0.21485c-0.39388,0.14323 -0.75733,0.29243 -1.09213,0.4476c-0.32227,0.14323 -0.62664,0.21485 -0.9131,0.21485c-0.28646,0 -0.51295,-0.09549 -0.68034,-0.28646c-0.15486,-0.19097 -0.23275,-0.43566 -0.23275,-0.73406c0,-0.42969 0.20321,-0.83552 0.60874,-1.21746c0.41806,-0.38194 0.96681,-0.69228 1.64717,-0.931c0.68034,-0.23872 1.42067,-0.35808 2.22009,-0.35808c0.96681,0 1.79665,0.23275 2.48865,0.69825c0.69288,0.4655 1.21746,1.14584 1.57555,2.04105c0.31064,0.7639 0.53174,1.61733 0.66244,2.56026c0.1316,0.94291 0.19695,1.95153 0.19695,3.02577c0,0.81167 -0.04118,1.43832 -0.12533,1.87992c-0.08325,0.4416 -0.21485,0.75196 -0.39388,0.931c-0.16651,0.16713 -0.39388,0.25065 -0.68034,0.25065zM297.61798,183.34802c0.39388,0 0.79404,-0.05371 1.19956,-0.16114c0.40641,-0.11933 0.7466,-0.29245 1.02052,-0.51921c0.27483,-0.22675 0.41179,-0.50731 0.41179,-0.84148c0,-0.28646 -0.11905,-0.51921 -0.35808,-0.69825c-0.22648,-0.19094 -0.53085,-0.33418 -0.9131,-0.42969c-0.36972,-0.09552 -0.76986,-0.14323 -1.19956,-0.14323c-0.7278,0 -1.28282,0.12533 -1.66507,0.37598c-0.36972,0.25065 -0.55502,0.58483 -0.55502,1.00262c0,0.45359 0.17367,0.80567 0.51921,1.05633c0.35808,0.23875 0.87193,0.35808 1.53974,0.35808zM309.4883,173.96636c1.06171,0 1.82621,0.15516 2.29171,0.4655c0.4655,0.31034 0.69825,0.71019 0.69825,1.19956c0,0.28646 -0.10205,0.52518 -0.30436,0.71615c-0.19157,0.17904 -0.4655,0.26855 -0.82358,0.26855c-0.37061,0 -0.75824,-0.05371 -1.16375,-0.16114c-0.39388,-0.10743 -0.85402,-0.16114 -1.3786,-0.16114c-0.60874,0 -1.0626,0.11936 -1.3607,0.35808c-0.29899,0.23872 -0.4476,0.54308 -0.4476,0.9131c0,0.34615 0.1307,0.62067 0.39388,0.82358c0.27393,0.19097 0.79314,0.33421 1.55764,0.42969c0.84686,0.09549 1.5451,0.25065 2.09476,0.4655c0.5604,0.20291 0.97845,0.51324 1.25327,0.931c0.27393,0.40579 0.41179,0.96681 0.41179,1.68297c0,1.13395 -0.40016,1.97544 -1.19956,2.52446c-0.80031,0.54903 -1.90408,0.82358 -3.31222,0.82358c-0.89519,0 -1.60598,-0.07162 -2.13057,-0.21485c-0.52548,-0.14323 -0.90773,-0.34617 -1.14584,-0.60874c-0.22737,-0.26256 -0.34017,-0.57293 -0.34017,-0.931c0,-0.31036 0.10115,-0.54903 0.30436,-0.71615c0.21485,-0.17904 0.4655,-0.26855 0.75196,-0.26855c0.27393,0 0.56666,0.03581 0.87729,0.10743c0.30974,0.05971 0.63828,0.12533 0.98472,0.19695c0.34555,0.07162 0.70362,0.10743 1.07424,0.10743c1.1933,0 1.7904,-0.36998 1.7904,-1.11004c0,-0.25065 -0.05998,-0.45359 -0.17904,-0.60874c-0.11996,-0.15513 -0.3348,-0.28046 -0.64454,-0.37598c-0.31064,-0.10743 -0.7645,-0.19094 -1.3607,-0.25065c-0.71615,-0.07162 -1.33743,-0.19094 -1.86202,-0.35808c-0.52548,-0.17904 -0.931,-0.4655 -1.21746,-0.85939c-0.28646,-0.40582 -0.42969,-0.96084 -0.42969,-1.66507c0,-1.11004 0.41716,-2.00524 1.25327,-2.68559c0.83523,-0.69228 2.02315,-1.03843 3.56288,-1.03843z"/></g></g></svg>