<svg width="129" height="17" viewBox="0 0 129 17" fill="none" xmlns="http://www.w3.org/2000/svg">
<path d="M1.112 13.16C0.92 13.16 0.765333 13.096 0.648 12.968C0.530667 12.8293 0.434667 12.6107 0.36 12.312C0.285333 11.9707 0.216 11.4373 0.152 10.712C0.088 9.976 0.056 9.15467 0.056 8.248C0.056 7.26667 0.0826667 6.312 0.136 5.384C0.2 4.44533 0.290667 3.61867 0.408 2.904C0.493333 2.43467 0.616 2.088 0.776 1.864C0.946667 1.62933 1.18133 1.512 1.48 1.512C1.672 1.512 1.84267 1.576 1.992 1.704C2.14133 1.832 2.25333 2.06133 2.328 2.392C2.41333 2.72267 2.456 3.192 2.456 3.8C2.456 4.09867 2.44533 4.44 2.424 4.824C2.40267 5.19733 2.37067 5.61333 2.328 6.072H2.392C3.24533 4.89867 3.99733 3.96533 4.648 3.272C5.29867 2.568 5.86933 2.06133 6.36 1.752C6.86133 1.44267 7.29867 1.288 7.672 1.288C7.97067 1.288 8.19467 1.384 8.344 1.576C8.504 1.768 8.584 2.00267 8.584 2.28C8.584 2.86667 8.14133 3.57067 7.256 4.392C6.38133 5.21333 4.968 6.2 3.016 7.352L3.144 7.048C4.82933 8.11467 6.104 9.05867 6.968 9.88C7.832 10.6907 8.264 11.4107 8.264 12.04C8.264 12.3173 8.17333 12.5467 7.992 12.728C7.82133 12.8987 7.56533 12.984 7.224 12.984C6.79733 12.984 6.344 12.84 5.864 12.552C5.384 12.2533 4.85067 11.7573 4.264 11.064C3.688 10.36 3.032 9.40533 2.296 8.2H2.232C2.25333 8.44533 2.26933 8.70133 2.28 8.968C2.29067 9.224 2.296 9.48 2.296 9.736C2.296 10.9627 2.21067 11.8427 2.04 12.376C1.86933 12.8987 1.56 13.16 1.112 13.16ZM14.4248 13.128C13.2408 13.128 12.2968 12.952 11.5928 12.6C10.8888 12.248 10.3821 11.7413 10.0728 11.08C9.76342 10.4187 9.60875 9.62933 9.60875 8.712C9.60875 7.54933 9.82208 6.56267 10.2488 5.752C10.6861 4.93067 11.2834 4.30133 12.0408 3.864C12.8087 3.42667 13.6781 3.208 14.6488 3.208C15.7901 3.208 16.6274 3.47467 17.1608 4.008C17.6941 4.53067 17.9608 5.21867 17.9608 6.072C17.9608 6.75467 17.7794 7.34667 17.4167 7.848C17.0648 8.33867 16.5741 8.71733 15.9448 8.984C15.3154 9.25067 14.5901 9.384 13.7688 9.384C13.3101 9.384 12.8674 9.32533 12.4408 9.208C12.0141 9.09067 11.6301 8.93067 11.2888 8.728L11.6728 8.024C11.6408 8.28 11.6248 8.536 11.6248 8.792C11.6248 9.53867 11.8594 10.0773 12.3288 10.408C12.7981 10.728 13.4648 10.888 14.3288 10.888C15.0008 10.888 15.5394 10.8293 15.9448 10.712C16.3501 10.5947 16.6914 10.4827 16.9688 10.376C17.2461 10.2587 17.5181 10.2 17.7847 10.2C17.9341 10.2 18.0674 10.2427 18.1848 10.328C18.3128 10.4027 18.4141 10.5147 18.4888 10.664C18.5741 10.8133 18.6168 10.9947 18.6168 11.208C18.6168 11.528 18.4568 11.8373 18.1368 12.136C17.8168 12.424 17.3421 12.664 16.7128 12.856C16.0941 13.0373 15.3314 13.128 14.4248 13.128ZM13.4968 7.896C14.2541 7.896 14.8621 7.736 15.3208 7.416C15.7794 7.096 16.0088 6.70133 16.0088 6.232C16.0088 5.85867 15.8808 5.55467 15.6248 5.32C15.3794 5.07467 14.9901 4.952 14.4568 4.952C13.9554 4.952 13.5021 5.048 13.0968 5.24C12.7021 5.42133 12.3928 5.66133 12.1688 5.96C11.9448 6.25867 11.8328 6.584 11.8328 6.936C11.8328 7.24533 11.9768 7.48533 12.2648 7.656C12.5634 7.816 12.9741 7.896 13.4968 7.896ZM21.7509 13.032C21.4202 13.032 21.1589 12.9573 20.9669 12.808C20.7749 12.648 20.6202 12.3867 20.5029 12.024C20.3429 11.4907 20.2202 10.8187 20.1349 10.008C20.0602 9.18667 20.0229 8.17867 20.0229 6.984C20.0229 6.248 20.0495 5.512 20.1029 4.776C20.1669 4.02933 20.2469 3.352 20.3429 2.744C20.4389 2.12533 20.5402 1.64533 20.6469 1.304C20.7642 0.941333 20.9029 0.690666 21.0629 0.551999C21.2229 0.413333 21.4042 0.344 21.6069 0.344C21.8202 0.344 21.9909 0.418667 22.1189 0.568C22.2469 0.706666 22.3482 0.957333 22.4229 1.32C22.4869 1.672 22.5349 2.104 22.5669 2.616C22.6095 3.128 22.6309 3.67733 22.6309 4.264C22.6309 5.064 22.5935 5.90667 22.5189 6.792C22.4442 7.67733 22.3429 8.54667 22.2149 9.4C22.0975 10.2533 21.9535 11.0373 21.7829 11.752L21.3349 11.528C21.6122 11.1867 21.9269 10.92 22.2789 10.728C22.6415 10.536 22.9722 10.44 23.2709 10.44C23.5162 10.44 23.7029 10.5093 23.8309 10.648C23.9695 10.776 24.0389 10.9787 24.0389 11.256C24.0389 11.5333 23.9162 11.8107 23.6709 12.088C23.4362 12.3653 23.1429 12.5947 22.7909 12.776C22.4389 12.9467 22.0922 13.032 21.7509 13.032ZM26.8996 0.728C27.3263 0.728 27.6303 0.845333 27.8116 1.08C28.0036 1.31467 28.0996 1.58667 28.0996 1.896C28.0996 2.28 27.9823 2.57867 27.7476 2.792C27.5236 2.99467 27.2036 3.096 26.7876 3.096C26.3823 3.096 26.0783 2.984 25.8756 2.76C25.673 2.52533 25.5716 2.25333 25.5716 1.944C25.5716 1.53867 25.6943 1.23467 25.9396 1.032C26.185 0.829333 26.505 0.728 26.8996 0.728ZM26.9956 4.296C27.337 4.296 27.6036 4.616 27.7956 5.256C27.9983 5.896 28.0996 6.91467 28.0996 8.312C28.0996 10.0293 27.977 11.2667 27.7316 12.024C27.4863 12.7813 27.113 13.16 26.6116 13.16C26.2276 13.16 25.945 12.8827 25.7636 12.328C25.5823 11.7627 25.4916 10.7813 25.4916 9.384C25.4916 7.66667 25.6303 6.392 25.9076 5.56C26.1956 4.71733 26.5583 4.296 26.9956 4.296ZM31.7821 13.032C31.4515 13.032 31.1901 12.9573 30.9981 12.808C30.8061 12.648 30.6515 12.3867 30.5341 12.024C30.3741 11.4907 30.2515 10.8187 30.1661 10.008C30.0915 9.18667 30.0541 8.17867 30.0541 6.984C30.0541 6.248 30.0808 5.512 30.1341 4.776C30.1981 4.02933 30.2781 3.352 30.3741 2.744C30.4701 2.12533 30.5715 1.64533 30.6781 1.304C30.7955 0.941333 30.9341 0.690666 31.0941 0.551999C31.2541 0.413333 31.4355 0.344 31.6381 0.344C31.8515 0.344 32.0221 0.418667 32.1501 0.568C32.2781 0.706666 32.3795 0.957333 32.4541 1.32C32.5181 1.672 32.5661 2.104 32.5981 2.616C32.6408 3.128 32.6621 3.67733 32.6621 4.264C32.6621 5.064 32.6248 5.90667 32.5501 6.792C32.4755 7.67733 32.3741 8.54667 32.2461 9.4C32.1288 10.2533 31.9848 11.0373 31.8141 11.752L31.3661 11.528C31.6435 11.1867 31.9581 10.92 32.3101 10.728C32.6728 10.536 33.0035 10.44 33.3021 10.44C33.5475 10.44 33.7341 10.5093 33.8621 10.648C34.0008 10.776 34.0701 10.9787 34.0701 11.256C34.0701 11.5333 33.9475 11.8107 33.7021 12.088C33.4675 12.3653 33.1741 12.5947 32.8221 12.776C32.4701 12.9467 32.1235 13.032 31.7821 13.032ZM36.9309 0.728C37.3575 0.728 37.6615 0.845333 37.8429 1.08C38.0349 1.31467 38.1309 1.58667 38.1309 1.896C38.1309 2.28 38.0135 2.57867 37.7789 2.792C37.5549 2.99467 37.2349 3.096 36.8189 3.096C36.4135 3.096 36.1095 2.984 35.9069 2.76C35.7042 2.52533 35.6029 2.25333 35.6029 1.944C35.6029 1.53867 35.7255 1.23467 35.9709 1.032C36.2162 0.829333 36.5362 0.728 36.9309 0.728ZM37.0269 4.296C37.3682 4.296 37.6349 4.616 37.8269 5.256C38.0295 5.896 38.1309 6.91467 38.1309 8.312C38.1309 10.0293 38.0082 11.2667 37.7629 12.024C37.5175 12.7813 37.1442 13.16 36.6429 13.16C36.2589 13.16 35.9762 12.8827 35.7949 12.328C35.6135 11.7627 35.5229 10.7813 35.5229 9.384C35.5229 7.66667 35.6615 6.392 35.9389 5.56C36.2269 4.71733 36.5895 4.296 37.0269 4.296ZM41.7174 3.048C42.0587 3.048 42.288 3.18667 42.4054 3.464C42.5334 3.74133 42.5974 4.152 42.5974 4.696C42.5974 4.824 42.5867 4.96267 42.5654 5.112C42.5547 5.25067 42.5334 5.37867 42.5014 5.496L42.4694 5.176C42.7254 4.48267 43.12 3.944 43.6534 3.56C44.1867 3.16533 44.752 2.968 45.3494 2.968C46.0107 2.968 46.56 3.15467 46.9974 3.528C47.4454 3.90133 47.776 4.424 47.9894 5.096C48.2134 5.768 48.3254 6.56267 48.3254 7.48C48.3254 8.04533 48.2987 8.60533 48.2454 9.16C48.2027 9.704 48.1387 10.2053 48.0534 10.664C47.9787 11.112 47.8934 11.48 47.7974 11.768C47.6694 12.1307 47.504 12.4027 47.3014 12.584C47.0987 12.7547 46.8587 12.84 46.5814 12.84C46.304 12.84 46.0907 12.7387 45.9414 12.536C45.792 12.3333 45.7174 12.0613 45.7174 11.72C45.7174 11.3573 45.744 10.92 45.7974 10.408C45.8507 9.88533 45.8987 9.35733 45.9414 8.824C45.9947 8.28 46.0214 7.78933 46.0214 7.352C46.0214 5.85867 45.5307 5.112 44.5494 5.112C44.0267 5.112 43.5894 5.34667 43.2374 5.816C42.8854 6.27467 42.6507 6.93067 42.5334 7.784C42.5014 8.072 42.4854 8.42933 42.4854 8.856C42.4854 9.28267 42.4854 9.70933 42.4854 10.136C42.496 10.552 42.4854 10.904 42.4534 11.192C42.4107 11.832 42.288 12.2907 42.0854 12.568C41.8934 12.8453 41.6267 12.984 41.2854 12.984C40.8907 12.984 40.592 12.8027 40.3894 12.44C40.1867 12.0667 40.0854 11.4427 40.0854 10.568C40.0854 10.12 40.096 9.61867 40.1174 9.064C40.1387 8.50933 40.1654 7.95467 40.1974 7.4C40.24 6.83467 40.288 6.32267 40.3414 5.864C40.448 5 40.6027 4.31733 40.8054 3.816C41.008 3.304 41.312 3.048 41.7174 3.048ZM53.3289 12.744C52.3262 12.744 51.5102 12.36 50.8809 11.592C50.2515 10.8133 49.9369 9.63467 49.9369 8.056C49.9369 6.37067 50.2409 5.13867 50.8489 4.36C51.4569 3.58133 52.2569 3.192 53.2489 3.192C53.8355 3.192 54.3529 3.34133 54.8009 3.64C55.2489 3.93867 55.6329 4.36 55.9529 4.904L55.8249 5.128C55.7929 4.97867 55.7662 4.81867 55.7449 4.648C55.7235 4.47733 55.7129 4.34933 55.7129 4.264C55.7129 3.82667 55.7822 3.49067 55.9209 3.256C56.0702 3.01067 56.2995 2.888 56.6089 2.888C56.9502 2.888 57.2169 3.02667 57.4089 3.304C57.6115 3.58133 57.7662 3.976 57.8729 4.488C58.0115 5.01067 58.1289 5.67733 58.2249 6.488C58.3209 7.288 58.3689 8.09867 58.3689 8.92C58.3689 9.944 58.3315 10.8027 58.2569 11.496C58.1822 12.1893 58.0595 12.7653 57.8889 13.224C57.7182 13.6827 57.4942 14.0827 57.2169 14.424C56.7582 14.9787 56.1662 15.4 55.4409 15.688C54.7262 15.9867 53.8995 16.136 52.9609 16.136C52.2889 16.136 51.7502 16.072 51.3449 15.944C50.9395 15.8267 50.6462 15.6613 50.4649 15.448C50.2942 15.2453 50.2089 15.016 50.2089 14.76C50.2089 14.4933 50.2835 14.2693 50.4329 14.088C50.5822 13.9173 50.8062 13.832 51.1049 13.832C51.3715 13.832 51.6809 13.8747 52.0329 13.96C52.3955 14.0453 52.8222 14.088 53.3129 14.088C54.3475 14.088 55.0782 13.8427 55.5049 13.352C55.9422 12.872 56.1609 12.1787 56.1609 11.272C56.1609 11.0267 56.1449 10.7387 56.1129 10.408L56.3369 10.488C56.0702 11.1707 55.6755 11.72 55.1529 12.136C54.6302 12.5413 54.0222 12.744 53.3289 12.744ZM53.9369 10.776C54.2782 10.776 54.6195 10.6853 54.9609 10.504C55.3022 10.3227 55.5849 10.024 55.8089 9.608C56.0329 9.192 56.1449 8.632 56.1449 7.928C56.1449 7.08533 55.9475 6.39733 55.5529 5.864C55.1582 5.33067 54.6035 5.064 53.8889 5.064C53.2702 5.064 52.8169 5.29867 52.5289 5.768C52.2409 6.23733 52.0969 6.94667 52.0969 7.896C52.0969 8.80267 52.2409 9.512 52.5289 10.024C52.8169 10.5253 53.2862 10.776 53.9369 10.776ZM66.7549 13.048C66.4029 13.048 66.0082 13.0267 65.5709 12.984C65.1442 12.9413 64.7282 12.8613 64.3229 12.744C63.9282 12.616 63.5975 12.4453 63.3309 12.232C63.0749 12.008 62.9469 11.72 62.9469 11.368C62.9469 11.0053 63.0589 10.7333 63.2829 10.552C63.5175 10.3707 63.8962 10.28 64.4189 10.28C64.7815 10.28 65.1869 10.328 65.6349 10.424C66.0935 10.52 66.5309 10.568 66.9469 10.568C67.5655 10.568 68.0189 10.472 68.3069 10.28C68.6055 10.088 68.7549 9.82667 68.7549 9.496C68.7549 9.29333 68.6962 9.112 68.5789 8.952C68.4722 8.792 68.2535 8.632 67.9229 8.472C67.5922 8.312 67.0962 8.136 66.4349 7.944C65.6775 7.74133 65.0642 7.51733 64.5949 7.272C64.1255 7.016 63.7842 6.712 63.5709 6.36C63.3575 6.008 63.2509 5.592 63.2509 5.112C63.2509 4.52533 63.3522 4.01867 63.5549 3.592C63.7682 3.15467 64.0509 2.78667 64.4029 2.488C64.7549 2.17867 65.1495 1.93333 65.5869 1.752C66.0242 1.57067 66.4669 1.43733 66.9149 1.352C67.3735 1.26667 67.8109 1.224 68.2269 1.224C69.1442 1.224 69.8909 1.368 70.4669 1.656C71.0535 1.944 71.3469 2.328 71.3469 2.808C71.3469 3.14933 71.2349 3.42667 71.0109 3.64C70.7975 3.85333 70.4669 3.96 70.0189 3.96C69.8269 3.96 69.5975 3.93333 69.3309 3.88C69.0642 3.82667 68.7709 3.77333 68.4509 3.72C68.1309 3.66667 67.7789 3.64 67.3949 3.64C66.7442 3.64 66.2429 3.74133 65.8909 3.944C65.5389 4.14667 65.3629 4.472 65.3629 4.92C65.3629 5.112 65.4109 5.288 65.5069 5.448C65.6135 5.608 65.8322 5.77333 66.1629 5.944C66.4935 6.11467 67.0002 6.312 67.6829 6.536C68.5255 6.792 69.1869 7.07467 69.6669 7.384C70.1469 7.68267 70.4882 8.024 70.6909 8.408C70.8935 8.792 70.9949 9.224 70.9949 9.704C70.9949 10.3653 70.8135 10.952 70.4509 11.464C70.0989 11.9653 69.6029 12.3547 68.9629 12.632C68.3335 12.9093 67.5975 13.048 66.7549 13.048ZM77.206 13.128C76.022 13.128 75.078 12.952 74.374 12.6C73.67 12.248 73.1633 11.7413 72.854 11.08C72.5447 10.4187 72.39 9.62933 72.39 8.712C72.39 7.54933 72.6033 6.56267 73.03 5.752C73.4673 4.93067 74.0647 4.30133 74.822 3.864C75.59 3.42667 76.4593 3.208 77.43 3.208C78.5713 3.208 79.4087 3.47467 79.942 4.008C80.4753 4.53067 80.742 5.21867 80.742 6.072C80.742 6.75467 80.5607 7.34667 80.198 7.848C79.846 8.33867 79.3553 8.71733 78.726 8.984C78.0967 9.25067 77.3713 9.384 76.55 9.384C76.0913 9.384 75.6487 9.32533 75.222 9.208C74.7953 9.09067 74.4113 8.93067 74.07 8.728L74.454 8.024C74.422 8.28 74.406 8.536 74.406 8.792C74.406 9.53867 74.6407 10.0773 75.11 10.408C75.5793 10.728 76.246 10.888 77.11 10.888C77.782 10.888 78.3207 10.8293 78.726 10.712C79.1313 10.5947 79.4727 10.4827 79.75 10.376C80.0273 10.2587 80.2993 10.2 80.566 10.2C80.7153 10.2 80.8487 10.2427 80.966 10.328C81.094 10.4027 81.1953 10.5147 81.27 10.664C81.3553 10.8133 81.398 10.9947 81.398 11.208C81.398 11.528 81.238 11.8373 80.918 12.136C80.598 12.424 80.1233 12.664 79.494 12.856C78.8753 13.0373 78.1127 13.128 77.206 13.128ZM76.278 7.896C77.0353 7.896 77.6433 7.736 78.102 7.416C78.5607 7.096 78.79 6.70133 78.79 6.232C78.79 5.85867 78.662 5.55467 78.406 5.32C78.1607 5.07467 77.7713 4.952 77.238 4.952C76.7367 4.952 76.2833 5.048 75.878 5.24C75.4833 5.42133 75.174 5.66133 74.95 5.96C74.726 6.25867 74.614 6.584 74.614 6.936C74.614 7.24533 74.758 7.48533 75.046 7.656C75.3447 7.816 75.7553 7.896 76.278 7.896ZM85.8601 12.744C84.8575 12.744 84.0415 12.36 83.4121 11.592C82.7828 10.8133 82.4681 9.63467 82.4681 8.056C82.4681 6.37067 82.7721 5.13867 83.3801 4.36C83.9881 3.58133 84.7881 3.192 85.7801 3.192C86.3668 3.192 86.8841 3.34133 87.3321 3.64C87.7801 3.93867 88.1641 4.36 88.4841 4.904L88.3561 5.128C88.3241 4.97867 88.2975 4.81867 88.2761 4.648C88.2548 4.47733 88.2441 4.34933 88.2441 4.264C88.2441 3.82667 88.3135 3.49067 88.4521 3.256C88.6015 3.01067 88.8308 2.888 89.1401 2.888C89.4815 2.888 89.7481 3.02667 89.9401 3.304C90.1428 3.58133 90.2975 3.976 90.4041 4.488C90.5428 5.01067 90.6601 5.67733 90.7561 6.488C90.8521 7.288 90.9001 8.09867 90.9001 8.92C90.9001 9.944 90.8628 10.8027 90.7881 11.496C90.7135 12.1893 90.5908 12.7653 90.4201 13.224C90.2495 13.6827 90.0255 14.0827 89.7481 14.424C89.2895 14.9787 88.6975 15.4 87.9721 15.688C87.2575 15.9867 86.4308 16.136 85.4921 16.136C84.8201 16.136 84.2815 16.072 83.8761 15.944C83.4708 15.8267 83.1775 15.6613 82.9961 15.448C82.8255 15.2453 82.7401 15.016 82.7401 14.76C82.7401 14.4933 82.8148 14.2693 82.9641 14.088C83.1135 13.9173 83.3375 13.832 83.6361 13.832C83.9028 13.832 84.2121 13.8747 84.5641 13.96C84.9268 14.0453 85.3535 14.088 85.8441 14.088C86.8788 14.088 87.6095 13.8427 88.0361 13.352C88.4735 12.872 88.6921 12.1787 88.6921 11.272C88.6921 11.0267 88.6761 10.7387 88.6441 10.408L88.8681 10.488C88.6015 11.1707 88.2068 11.72 87.6841 12.136C87.1615 12.5413 86.5535 12.744 85.8601 12.744ZM86.4681 10.776C86.8095 10.776 87.1508 10.6853 87.4921 10.504C87.8335 10.3227 88.1161 10.024 88.3401 9.608C88.5641 9.192 88.6761 8.632 88.6761 7.928C88.6761 7.08533 88.4788 6.39733 88.0841 5.864C87.6895 5.33067 87.1348 5.064 86.4201 5.064C85.8015 5.064 85.3481 5.29867 85.0601 5.768C84.7721 6.23733 84.6281 6.94667 84.6281 7.896C84.6281 8.80267 84.7721 9.512 85.0601 10.024C85.3481 10.5253 85.8175 10.776 86.4681 10.776ZM94.259 0.728C94.6857 0.728 94.9897 0.845333 95.171 1.08C95.363 1.31467 95.459 1.58667 95.459 1.896C95.459 2.28 95.3417 2.57867 95.107 2.792C94.883 2.99467 94.563 3.096 94.147 3.096C93.7417 3.096 93.4377 2.984 93.235 2.76C93.0323 2.52533 92.931 2.25333 92.931 1.944C92.931 1.53867 93.0537 1.23467 93.299 1.032C93.5443 0.829333 93.8643 0.728 94.259 0.728ZM94.355 4.296C94.6963 4.296 94.963 4.616 95.155 5.256C95.3577 5.896 95.459 6.91467 95.459 8.312C95.459 10.0293 95.3363 11.2667 95.091 12.024C94.8457 12.7813 94.4723 13.16 93.971 13.16C93.587 13.16 93.3043 12.8827 93.123 12.328C92.9417 11.7627 92.851 10.7813 92.851 9.384C92.851 7.66667 92.9897 6.392 93.267 5.56C93.555 4.71733 93.9177 4.296 94.355 4.296ZM100.118 3.368H99.7975C99.7655 2.89867 99.7762 2.456 99.8295 2.04C99.8828 1.61333 99.9948 1.272 100.166 1.016C100.347 0.749333 100.603 0.615999 100.934 0.615999C101.232 0.615999 101.451 0.711999 101.59 0.903999C101.728 1.096 101.798 1.36267 101.798 1.704C101.798 2.376 101.67 2.952 101.414 3.432L101.126 3.4C101.702 3.19733 102.352 3.096 103.078 3.096C103.536 3.096 103.899 3.18667 104.166 3.368C104.443 3.53867 104.582 3.832 104.582 4.248C104.582 4.64267 104.422 4.94133 104.102 5.144C103.782 5.34667 103.382 5.448 102.902 5.448C102.614 5.448 102.304 5.43733 101.974 5.416C101.654 5.384 101.339 5.336 101.03 5.272L101.302 4.936C101.398 5.34133 101.488 5.80533 101.574 6.328C101.67 6.84 101.755 7.37333 101.83 7.928C101.904 8.48267 101.963 9.02133 102.006 9.544C102.048 10.0667 102.07 10.536 102.07 10.952C102.07 11.6347 101.963 12.1733 101.75 12.568C101.536 12.9627 101.222 13.16 100.806 13.16C100.475 13.16 100.214 13.0587 100.022 12.856C99.8402 12.6533 99.7068 12.3973 99.6215 12.088C99.5468 11.768 99.4988 11.4373 99.4775 11.096C99.4668 10.7547 99.4615 10.4453 99.4615 10.168C99.4615 9.69867 99.4828 9.17067 99.5255 8.584C99.5682 7.98667 99.6268 7.37333 99.7015 6.744C99.7868 6.11467 99.8828 5.50667 99.9895 4.92L100.31 5.192C99.7655 5.46933 99.0935 5.608 98.2935 5.608C97.8028 5.608 97.4242 5.51733 97.1575 5.336C96.8908 5.15467 96.7575 4.872 96.7575 4.488C96.7575 4.072 96.9068 3.752 97.2055 3.528C97.5042 3.29333 97.9042 3.176 98.4055 3.176C98.7362 3.176 99.0455 3.19733 99.3335 3.24C99.6322 3.272 99.8935 3.31467 100.118 3.368ZM107.29 0.728C107.717 0.728 108.021 0.845333 108.202 1.08C108.394 1.31467 108.49 1.58667 108.49 1.896C108.49 2.28 108.373 2.57867 108.138 2.792C107.914 2.99467 107.594 3.096 107.178 3.096C106.773 3.096 106.469 2.984 106.266 2.76C106.064 2.52533 105.962 2.25333 105.962 1.944C105.962 1.53867 106.085 1.23467 106.33 1.032C106.576 0.829333 106.896 0.728 107.29 0.728ZM107.386 4.296C107.728 4.296 107.994 4.616 108.186 5.256C108.389 5.896 108.49 6.91467 108.49 8.312C108.49 10.0293 108.368 11.2667 108.122 12.024C107.877 12.7813 107.504 13.16 107.002 13.16C106.618 13.16 106.336 12.8827 106.154 12.328C105.973 11.7627 105.882 10.7813 105.882 9.384C105.882 7.66667 106.021 6.392 106.298 5.56C106.586 4.71733 106.949 4.296 107.386 4.296ZM113.501 12.744C112.498 12.744 111.682 12.36 111.053 11.592C110.423 10.8133 110.109 9.63467 110.109 8.056C110.109 6.37067 110.413 5.13867 111.021 4.36C111.629 3.58133 112.429 3.192 113.421 3.192C114.007 3.192 114.525 3.34133 114.973 3.64C115.421 3.93867 115.805 4.36 116.125 4.904L115.997 5.128C115.965 4.97867 115.938 4.81867 115.917 4.648C115.895 4.47733 115.885 4.34933 115.885 4.264C115.885 3.82667 115.954 3.49067 116.093 3.256C116.242 3.01067 116.471 2.888 116.781 2.888C117.122 2.888 117.389 3.02667 117.581 3.304C117.783 3.58133 117.938 3.976 118.045 4.488C118.183 5.01067 118.301 5.67733 118.397 6.488C118.493 7.288 118.541 8.09867 118.541 8.92C118.541 9.944 118.503 10.8027 118.429 11.496C118.354 12.1893 118.231 12.7653 118.061 13.224C117.89 13.6827 117.666 14.0827 117.389 14.424C116.93 14.9787 116.338 15.4 115.613 15.688C114.898 15.9867 114.071 16.136 113.133 16.136C112.461 16.136 111.922 16.072 111.517 15.944C111.111 15.8267 110.818 15.6613 110.637 15.448C110.466 15.2453 110.381 15.016 110.381 14.76C110.381 14.4933 110.455 14.2693 110.605 14.088C110.754 13.9173 110.978 13.832 111.277 13.832C111.543 13.832 111.853 13.8747 112.205 13.96C112.567 14.0453 112.994 14.088 113.485 14.088C114.519 14.088 115.25 13.8427 115.677 13.352C116.114 12.872 116.333 12.1787 116.333 11.272C116.333 11.0267 116.317 10.7387 116.285 10.408L116.509 10.488C116.242 11.1707 115.847 11.72 115.325 12.136C114.802 12.5413 114.194 12.744 113.501 12.744ZM114.109 10.776C114.45 10.776 114.791 10.6853 115.133 10.504C115.474 10.3227 115.757 10.024 115.981 9.608C116.205 9.192 116.317 8.632 116.317 7.928C116.317 7.08533 116.119 6.39733 115.725 5.864C115.33 5.33067 114.775 5.064 114.061 5.064C113.442 5.064 112.989 5.29867 112.701 5.768C112.413 6.23733 112.269 6.94667 112.269 7.896C112.269 8.80267 112.413 9.512 112.701 10.024C112.989 10.5253 113.458 10.776 114.109 10.776ZM127.484 13.16C127.121 13.16 126.87 13.0213 126.732 12.744C126.604 12.456 126.529 12.0027 126.508 11.384L126.668 11.464C126.07 12.6267 124.94 13.208 123.276 13.208C122.518 13.208 121.889 13.0747 121.388 12.808C120.886 12.5307 120.513 12.168 120.268 11.72C120.033 11.2613 119.916 10.7653 119.916 10.232C119.916 9.31467 120.236 8.58933 120.876 8.056C121.516 7.512 122.364 7.24 123.42 7.24C124.113 7.24 124.716 7.34133 125.228 7.544C125.74 7.74667 126.177 8.02933 126.54 8.392L126.268 8.36C126.193 7.28267 125.958 6.51467 125.564 6.056C125.18 5.58667 124.63 5.352 123.916 5.352C123.5 5.352 123.116 5.416 122.764 5.544C122.412 5.672 122.086 5.80533 121.788 5.944C121.5 6.072 121.228 6.136 120.972 6.136C120.716 6.136 120.513 6.05067 120.364 5.88C120.225 5.70933 120.156 5.49067 120.156 5.224C120.156 4.84 120.337 4.47733 120.7 4.136C121.073 3.79467 121.564 3.51733 122.172 3.304C122.78 3.09067 123.441 2.984 124.156 2.984C125.02 2.984 125.761 3.192 126.38 3.608C126.998 4.024 127.468 4.632 127.788 5.432C128.065 6.11467 128.262 6.87733 128.38 7.72C128.497 8.56267 128.556 9.464 128.556 10.424C128.556 11.1493 128.518 11.7093 128.444 12.104C128.369 12.4987 128.252 12.776 128.092 12.936C127.942 13.0853 127.74 13.16 127.484 13.16ZM123.948 11.368C124.3 11.368 124.657 11.32 125.02 11.224C125.382 11.1173 125.686 10.9627 125.932 10.76C126.177 10.5573 126.3 10.3067 126.3 10.008C126.3 9.752 126.193 9.544 125.98 9.384C125.777 9.21333 125.505 9.08533 125.164 9C124.833 8.91467 124.476 8.872 124.092 8.872C123.441 8.872 122.945 8.984 122.604 9.208C122.273 9.432 122.108 9.73067 122.108 10.104C122.108 10.5093 122.262 10.824 122.572 11.048C122.892 11.2613 123.35 11.368 123.948 11.368Z" fill="black"/>
</svg>
