<svg xmlns="http://www.w3.org/2000/svg" fill="none" viewBox="0 0 45 16" height="16" width="45">
<rect stroke="black" fill="#6DE997" rx="4.5" height="15" width="44" y="0.5" x="0.5"></rect>
<path fill="black" d="M16.6466 6.405C17.0433 6.405 17.335 6.50667 17.5216 6.71C17.7116 6.91333 17.8066 7.18 17.8066 7.51C17.8066 7.73667 17.7533 7.93333 17.6466 8.1C17.5433 8.26667 17.4016 8.39667 17.2216 8.49C17.0416 8.58 16.8383 8.625 16.6116 8.625C16.505 8.625 16.3916 8.61333 16.2716 8.59C16.155 8.56667 16.0333 8.52167 15.9066 8.455L15.9316 8.39C15.9583 8.47333 15.98 8.57667 15.9966 8.7C16.0166 8.82 16.0316 8.945 16.0416 9.075C16.055 9.20167 16.0616 9.31833 16.0616 9.425C16.0616 9.62167 16.0283 9.77333 15.9616 9.88C15.8983 9.98333 15.8033 10.035 15.6766 10.035C15.57 10.035 15.485 10.0017 15.4216 9.935C15.3616 9.86833 15.32 9.75833 15.2966 9.605C15.2733 9.45167 15.2616 9.24667 15.2616 8.99C15.2616 8.49667 15.2833 8.07667 15.3266 7.73C15.3733 7.38 15.4516 7.105 15.5616 6.905C15.6483 6.75167 15.7816 6.63 15.9616 6.54C16.145 6.45 16.3733 6.405 16.6466 6.405ZM16.5516 8.035C16.7516 8.035 16.9133 7.98167 17.0366 7.875C17.1633 7.76833 17.2266 7.61333 17.2266 7.41C17.2266 7.27667 17.1816 7.16667 17.0916 7.08C17.005 6.99 16.8683 6.945 16.6816 6.945C16.545 6.945 16.4266 6.97667 16.3266 7.04C16.2266 7.1 16.15 7.185 16.0966 7.295C16.0466 7.40167 16.0216 7.525 16.0216 7.665C16.0216 7.795 16.0633 7.89 16.1466 7.95C16.2333 8.00667 16.3683 8.035 16.5516 8.035ZM19.6347 10.04C19.2647 10.04 18.9697 9.985 18.7497 9.875C18.5297 9.765 18.3714 9.60667 18.2747 9.4C18.178 9.19333 18.1297 8.94667 18.1297 8.66C18.1297 8.29667 18.1964 7.98833 18.3297 7.735C18.4664 7.47833 18.653 7.28167 18.8897 7.145C19.1297 7.00833 19.4014 6.94 19.7047 6.94C20.0614 6.94 20.323 7.02333 20.4897 7.19C20.6564 7.35333 20.7397 7.56833 20.7397 7.835C20.7397 8.04833 20.683 8.23333 20.5697 8.39C20.4597 8.54333 20.3064 8.66167 20.1097 8.745C19.913 8.82833 19.6864 8.87 19.4297 8.87C19.2864 8.87 19.148 8.85167 19.0147 8.815C18.8814 8.77833 18.7614 8.72833 18.6547 8.665L18.7747 8.445C18.7647 8.525 18.7597 8.605 18.7597 8.685C18.7597 8.91833 18.833 9.08667 18.9797 9.19C19.1264 9.29 19.3347 9.34 19.6047 9.34C19.8147 9.34 19.983 9.32167 20.1097 9.285C20.2364 9.24833 20.343 9.21333 20.4297 9.18C20.5164 9.14333 20.6014 9.125 20.6847 9.125C20.7314 9.125 20.773 9.13833 20.8097 9.165C20.8497 9.18833 20.8814 9.22333 20.9047 9.27C20.9314 9.31667 20.9447 9.37333 20.9447 9.44C20.9447 9.54 20.8947 9.63667 20.7947 9.73C20.6947 9.82 20.5464 9.895 20.3497 9.955C20.1564 10.0117 19.918 10.04 19.6347 10.04ZM19.3447 8.405C19.5814 8.405 19.7714 8.355 19.9147 8.255C20.058 8.155 20.1297 8.03167 20.1297 7.885C20.1297 7.76833 20.0897 7.67333 20.0097 7.6C19.933 7.52333 19.8114 7.485 19.6447 7.485C19.488 7.485 19.3464 7.515 19.2197 7.575C19.0964 7.63167 18.9997 7.70667 18.9297 7.8C18.8597 7.89333 18.8247 7.995 18.8247 8.105C18.8247 8.20167 18.8697 8.27667 18.9597 8.33C19.053 8.38 19.1814 8.405 19.3447 8.405ZM21.8941 6.89C22.0008 6.89 22.0724 6.93333 22.1091 7.02C22.1491 7.10667 22.1691 7.235 22.1691 7.405C22.1691 7.445 22.1658 7.48833 22.1591 7.535C22.1558 7.57833 22.1491 7.61833 22.1391 7.655L22.1291 7.555C22.2091 7.33833 22.3324 7.17 22.4991 7.05C22.6658 6.92667 22.8424 6.865 23.0291 6.865C23.2358 6.865 23.4074 6.92333 23.5441 7.04C23.6841 7.15667 23.7874 7.32 23.8541 7.53C23.9241 7.74 23.9591 7.98833 23.9591 8.275C23.9591 8.45167 23.9508 8.62667 23.9341 8.8C23.9208 8.97 23.9008 9.12667 23.8741 9.27C23.8508 9.41 23.8241 9.525 23.7941 9.615C23.7541 9.72833 23.7024 9.81333 23.6391 9.87C23.5758 9.92333 23.5008 9.95 23.4141 9.95C23.3274 9.95 23.2608 9.91833 23.2141 9.855C23.1674 9.79167 23.1441 9.70667 23.1441 9.6C23.1441 9.48667 23.1524 9.35 23.1691 9.19C23.1858 9.02667 23.2008 8.86167 23.2141 8.695C23.2308 8.525 23.2391 8.37167 23.2391 8.235C23.2391 7.76833 23.0858 7.535 22.7791 7.535C22.6158 7.535 22.4791 7.60833 22.3691 7.755C22.2591 7.89833 22.1858 8.10333 22.1491 8.37C22.1391 8.46 22.1341 8.57167 22.1341 8.705C22.1341 8.83833 22.1341 8.97167 22.1341 9.105C22.1374 9.235 22.1341 9.345 22.1241 9.435C22.1108 9.635 22.0724 9.77833 22.0091 9.865C21.9491 9.95167 21.8658 9.995 21.7591 9.995C21.6358 9.995 21.5424 9.93833 21.4791 9.825C21.4158 9.70833 21.3841 9.51333 21.3841 9.24C21.3841 9.1 21.3874 8.94333 21.3941 8.77C21.4008 8.59667 21.4091 8.42333 21.4191 8.25C21.4324 8.07333 21.4474 7.91333 21.4641 7.77C21.4974 7.5 21.5458 7.28667 21.6091 7.13C21.6724 6.97 21.7674 6.89 21.8941 6.89ZM25.8327 6.87C26.1294 6.87 26.3427 6.91333 26.4727 7C26.6027 7.08667 26.6677 7.19833 26.6677 7.335C26.6677 7.415 26.6394 7.48167 26.5827 7.535C26.5294 7.585 26.4527 7.61 26.3527 7.61C26.2494 7.61 26.141 7.595 26.0277 7.565C25.9177 7.535 25.7894 7.52 25.6427 7.52C25.4727 7.52 25.346 7.55333 25.2627 7.62C25.1794 7.68667 25.1377 7.77167 25.1377 7.875C25.1377 7.97167 25.1744 8.04833 25.2477 8.105C25.3244 8.15833 25.4694 8.19833 25.6827 8.225C25.9194 8.25167 26.1144 8.295 26.2677 8.355C26.4244 8.41167 26.541 8.49833 26.6177 8.615C26.6944 8.72833 26.7327 8.885 26.7327 9.085C26.7327 9.40167 26.621 9.63667 26.3977 9.79C26.1744 9.94333 25.866 10.02 25.4727 10.02C25.2227 10.02 25.0244 10 24.8777 9.96C24.731 9.92 24.6244 9.86333 24.5577 9.79C24.4944 9.71667 24.4627 9.63 24.4627 9.53C24.4627 9.44333 24.491 9.37667 24.5477 9.33C24.6077 9.28 24.6777 9.255 24.7577 9.255C24.8344 9.255 24.916 9.265 25.0027 9.285C25.0894 9.30167 25.181 9.32 25.2777 9.34C25.3744 9.36 25.4744 9.37 25.5777 9.37C25.911 9.37 26.0777 9.26667 26.0777 9.06C26.0777 8.99 26.061 8.93333 26.0277 8.89C25.9944 8.84667 25.9344 8.81167 25.8477 8.785C25.761 8.755 25.6344 8.73167 25.4677 8.715C25.2677 8.695 25.0944 8.66167 24.9477 8.615C24.801 8.565 24.6877 8.485 24.6077 8.375C24.5277 8.26167 24.4877 8.10667 24.4877 7.91C24.4877 7.6 24.6044 7.35 24.8377 7.16C25.071 6.96667 25.4027 6.87 25.8327 6.87ZM27.6786 6.165C27.8119 6.165 27.9069 6.20167 27.9636 6.275C28.0236 6.34833 28.0536 6.43333 28.0536 6.53C28.0536 6.65 28.0169 6.74333 27.9436 6.81C27.8736 6.87333 27.7736 6.905 27.6436 6.905C27.5169 6.905 27.4219 6.87 27.3586 6.8C27.2953 6.72667 27.2636 6.64167 27.2636 6.545C27.2636 6.41833 27.3019 6.32333 27.3786 6.26C27.4553 6.19667 27.5553 6.165 27.6786 6.165ZM27.7086 7.28C27.8153 7.28 27.8986 7.38 27.9586 7.58C28.0219 7.78 28.0536 8.09833 28.0536 8.535C28.0536 9.07167 28.0153 9.45833 27.9386 9.695C27.8619 9.93167 27.7453 10.05 27.5886 10.05C27.4686 10.05 27.3803 9.96333 27.3236 9.79C27.2669 9.61333 27.2386 9.30667 27.2386 8.87C27.2386 8.33333 27.2819 7.935 27.3686 7.675C27.4586 7.41167 27.5719 7.28 27.7086 7.28ZM29.2044 10.01C29.101 10.01 29.0194 9.98667 28.9594 9.94C28.8994 9.89 28.851 9.80833 28.8144 9.695C28.7644 9.52833 28.726 9.31833 28.6994 9.065C28.676 8.80833 28.6644 8.49333 28.6644 8.12C28.6644 7.89 28.6727 7.66 28.6894 7.43C28.7094 7.19667 28.7344 6.985 28.7644 6.795C28.7944 6.60167 28.826 6.45167 28.8594 6.345C28.896 6.23167 28.9394 6.15333 28.9894 6.11C29.0394 6.06667 29.096 6.045 29.1594 6.045C29.226 6.045 29.2794 6.06833 29.3194 6.115C29.3594 6.15833 29.391 6.23667 29.4144 6.35C29.4344 6.46 29.4494 6.595 29.4594 6.755C29.4727 6.915 29.4794 7.08667 29.4794 7.27C29.4794 7.52 29.4677 7.78333 29.4444 8.06C29.421 8.33667 29.3894 8.60833 29.3494 8.875C29.3127 9.14167 29.2677 9.38667 29.2144 9.61L29.0744 9.54C29.161 9.43333 29.2594 9.35 29.3694 9.29C29.4827 9.23 29.586 9.2 29.6794 9.2C29.756 9.2 29.8144 9.22167 29.8544 9.265C29.8977 9.305 29.9194 9.36833 29.9194 9.455C29.9194 9.54167 29.881 9.62833 29.8044 9.715C29.731 9.80167 29.6394 9.87333 29.5294 9.93C29.4194 9.98333 29.311 10.01 29.2044 10.01Z"></path>
</svg>
