<svg version="1.1" xmlns="http://www.w3.org/2000/svg" xmlns:xlink="http://www.w3.org/1999/xlink" width="327.33832" height="16.28435" viewBox="0,0,327.33832,16.28435"><g transform="translate(-76.33084,-171.85782)"><g data-paper-data="{&quot;isPaintingLayer&quot;:true}" fill="#000000" fill-rule="nonzero" stroke="none" stroke-width="1" stroke-linecap="butt" stroke-linejoin="miter" stroke-miterlimit="10" stroke-dasharray="" stroke-dashoffset="0" style="mix-blend-mode: normal"><path d="M77.41427,185.00678c-0.19699,0 -0.35567,-0.06566 -0.47605,-0.19699c-0.12038,-0.1423 -0.21888,-0.36658 -0.29548,-0.67304c-0.07661,-0.35017 -0.14774,-0.89742 -0.2134,-1.64157c-0.06566,-0.75512 -0.0985,-1.59779 -0.0985,-2.52801c0,-1.00682 0.02736,-1.9863 0.08208,-2.93841c0.06566,-0.96306 0.15868,-1.81119 0.27907,-2.54443c0.08755,-0.48152 0.2134,-0.8372 0.37756,-1.06702c0.1751,-0.24077 0.41587,-0.36114 0.72229,-0.36114c0.19699,0 0.37209,0.06566 0.5253,0.19699c0.15322,0.13133 0.26813,0.36661 0.34473,0.70587c0.08756,0.33926 0.13133,0.82078 0.13133,1.44458c0,0.30643 -0.01094,0.65663 -0.03283,1.0506c-0.02188,0.38303 -0.05472,0.80984 -0.09849,1.28042h0.06566c0.87551,-1.20381 1.64705,-2.1614 2.31461,-2.87274c0.66757,-0.72229 1.25307,-1.24212 1.75648,-1.55949c0.51436,-0.31737 0.96306,-0.47605 1.34609,-0.47605c0.30643,0 0.53625,0.09849 0.68946,0.29548c0.16416,0.19699 0.24624,0.43775 0.24624,0.72229c0,0.60191 -0.45416,1.3242 -1.3625,2.16687c-0.89738,0.84267 -2.34744,1.85497 -4.35015,3.0369l0.13133,-0.3119c1.72913,1.09438 3.0369,2.06291 3.92335,2.90558c0.88645,0.83176 1.32967,1.57047 1.32967,2.21612c0,0.2845 -0.09302,0.51986 -0.27907,0.70587c-0.17509,0.17513 -0.43774,0.26265 -0.78795,0.26265c-0.43774,0 -0.90286,-0.14774 -1.39533,-0.44322c-0.49247,-0.30646 -1.03966,-0.81535 -1.64157,-1.52666c-0.59096,-0.72229 -1.26401,-1.70176 -2.01913,-2.93841h-0.06566c0.02189,0.2517 0.03831,0.51435 0.04925,0.78795c0.01095,0.26265 0.01642,0.5253 0.01642,0.78795c0,1.25857 -0.08755,2.16143 -0.26265,2.70859c-0.17509,0.53628 -0.49247,0.80437 -0.95211,0.80437zM91.07287,184.97395c-1.21476,0 -2.18329,-0.18057 -2.90558,-0.54172c-0.72229,-0.36114 -1.24215,-0.88101 -1.55949,-1.55949c-0.31736,-0.67848 -0.47604,-1.48836 -0.47604,-2.42952c0,-1.19288 0.21883,-2.20517 0.65662,-3.0369c0.44866,-0.84267 1.06158,-1.48836 1.83856,-1.93705c0.78795,-0.44869 1.67984,-0.67304 2.67576,-0.67304c1.17095,0 2.03011,0.2736 2.57726,0.82078c0.54716,0.53625 0.82078,1.24212 0.82078,2.11762c0,0.70041 -0.18601,1.30779 -0.55813,1.82214c-0.36114,0.50342 -0.86459,0.89192 -1.51024,1.16551c-0.64565,0.2736 -1.3899,0.41039 -2.23253,0.41039c-0.47062,0 -0.92472,-0.06019 -1.3625,-0.18057c-0.43779,-0.12038 -0.83176,-0.28454 -1.18193,-0.49247l0.39398,-0.72229c-0.03283,0.26265 -0.04925,0.5253 -0.04925,0.78795c0,0.76607 0.2408,1.31869 0.72229,1.65798c0.48149,0.32831 1.16551,0.49247 2.05196,0.49247c0.68946,0 1.24215,-0.06023 1.65798,-0.18057c0.41583,-0.12035 0.7661,-0.23526 1.0506,-0.34473c0.2845,-0.12035 0.56357,-0.18057 0.8372,-0.18057c0.15318,0 0.29004,0.04381 0.41039,0.13133c0.13133,0.07664 0.23526,0.19155 0.3119,0.34473c0.08752,0.15318 0.13133,0.33929 0.13133,0.55813c0,0.32831 -0.16416,0.64565 -0.49247,0.95211c-0.32831,0.29548 -0.81535,0.54172 -1.461,0.73871c-0.63477,0.18601 -1.41719,0.27907 -2.34744,0.27907zM90.12077,179.60602c0.77697,0 1.40077,-0.16416 1.87139,-0.49247c0.47062,-0.32831 0.70587,-0.73324 0.70587,-1.21476c0,-0.38303 -0.13133,-0.69493 -0.39398,-0.93569c-0.25167,-0.2517 -0.65119,-0.37756 -1.19834,-0.37756c-0.51432,0 -0.9795,0.09849 -1.39533,0.29548c-0.40495,0.18604 -0.72229,0.43228 -0.95211,0.73871c-0.22982,0.30643 -0.34473,0.64021 -0.34473,1.00136c0,0.31737 0.14774,0.5636 0.44322,0.73871c0.30646,0.16416 0.72773,0.24624 1.26401,0.24624zM100.96958,174.56641c0.97407,0 1.6744,0.14227 2.10121,0.42681c0.42681,0.28454 0.64021,0.65116 0.64021,1.09985c0,0.26265 -0.09295,0.48152 -0.27907,0.65663c-0.17503,0.16416 -0.42681,0.24624 -0.75512,0.24624c-0.33919,0 -0.6949,-0.04925 -1.06702,-0.14774c-0.36114,-0.09849 -0.78241,-0.14774 -1.26401,-0.14774c-0.55813,0 -0.97396,0.10944 -1.24759,0.32831c-0.27353,0.21887 -0.41039,0.49794 -0.41039,0.8372c0,0.31737 0.12045,0.56908 0.36114,0.75512c0.25178,0.1751 0.72783,0.30643 1.42816,0.39398c0.77708,0.08755 1.41729,0.22982 1.92063,0.42681c0.51443,0.18604 0.89742,0.47059 1.1491,0.85362c0.25178,0.37209 0.37756,0.88645 0.37756,1.54307c0,1.03963 -0.36658,1.81116 -1.09985,2.31461c-0.73317,0.50345 -1.7455,0.75512 -3.0369,0.75512c-0.82078,0 -1.47187,-0.06566 -1.95347,-0.19699c-0.48149,-0.13133 -0.83166,-0.31734 -1.0506,-0.55813c-0.20786,-0.2408 -0.3119,-0.5253 -0.3119,-0.85362c0,-0.2845 0.09306,-0.50345 0.27907,-0.65663c0.19699,-0.16416 0.42681,-0.24624 0.68946,-0.24624c0.25178,0 0.51986,0.03283 0.80437,0.09849c0.28461,0.05468 0.58553,0.11491 0.90286,0.18057c0.31744,0.06566 0.64575,0.09849 0.98494,0.09849c1.09441,0 1.64157,-0.33929 1.64157,-1.01777c0,-0.22982 -0.05468,-0.41586 -0.16416,-0.55813c-0.10937,-0.14227 -0.30636,-0.25718 -0.59096,-0.34473c-0.2845,-0.09849 -0.70033,-0.1751 -1.24759,-0.22982c-0.65663,-0.06566 -1.22564,-0.1751 -1.70723,-0.32831c-0.48149,-0.16416 -0.85362,-0.42681 -1.11627,-0.78795c-0.26265,-0.37209 -0.39398,-0.88098 -0.39398,-1.52666c0,-1.01777 0.3831,-1.83856 1.1491,-2.46235c0.7661,-0.63474 1.85497,-0.95211 3.26672,-0.95211zM107.02994,172.2518c0.43779,0 0.74968,0.12038 0.93569,0.36114c0.19699,0.24077 0.29548,0.51983 0.29548,0.8372c0,0.39398 -0.12035,0.70041 -0.36114,0.91928c-0.22982,0.20794 -0.55813,0.3119 -0.98494,0.3119c-0.41583,0 -0.72773,-0.11491 -0.93569,-0.34473c-0.20797,-0.24077 -0.3119,-0.51983 -0.3119,-0.8372c0,-0.41586 0.12589,-0.72776 0.37756,-0.93569c0.25167,-0.20793 0.57999,-0.3119 0.98494,-0.3119zM107.12844,175.9125c0.35017,0 0.6238,0.32831 0.82078,0.98494c0.20797,0.65663 0.3119,1.70176 0.3119,3.13539c0,1.76192 -0.12589,3.03146 -0.37756,3.80844c-0.25167,0.77697 -0.63477,1.16551 -1.1491,1.16551c-0.39398,0 -0.68402,-0.2845 -0.87003,-0.85362c-0.18601,-0.57999 -0.27907,-1.58688 -0.27907,-3.02048c0,-1.76195 0.1423,-3.06973 0.42681,-3.92335c0.29548,-0.86456 0.66761,-1.29684 1.11627,-1.29684zM117.34155,177.32424c0.10947,-0.44869 0.30092,-0.85362 0.57455,-1.21476c0.2845,-0.36114 0.6238,-0.64568 1.01777,-0.85362c0.40495,-0.21887 0.84818,-0.32831 1.32967,-0.32831c0.56911,0 1.07246,0.13679 1.51024,0.41039c0.43779,0.2736 0.78251,0.72229 1.03419,1.34609c0.26265,0.6238 0.39398,1.45553 0.39398,2.49518c0,0.53625 -0.02185,1.07797 -0.06566,1.62515c-0.04381,0.54719 -0.09849,1.05604 -0.16416,1.52666c-0.06566,0.47062 -0.13676,0.86459 -0.2134,1.18193c-0.10947,0.43779 -0.27907,0.77154 -0.50889,1.00136c-0.21884,0.22982 -0.49791,0.34473 -0.8372,0.34473c-0.2845,0 -0.50889,-0.12589 -0.67304,-0.37756c-0.16416,-0.25167 -0.24624,-0.61282 -0.24624,-1.08343c0,-0.21884 0.02739,-0.49791 0.08208,-0.8372c0.05468,-0.35017 0.11491,-0.72773 0.18057,-1.13268c0.06566,-0.41586 0.12589,-0.8372 0.18057,-1.26401c0.05468,-0.42681 0.08208,-0.83173 0.08208,-1.21476c0,-0.56908 -0.11491,-1.00682 -0.34473,-1.31325c-0.22982,-0.31737 -0.5527,-0.47605 -0.96853,-0.47605c-0.45964,0 -0.84264,0.24077 -1.1491,0.72229c-0.29548,0.47059 -0.47062,1.16004 -0.5253,2.06838c-0.04381,0.80984 -0.08208,1.53213 -0.11491,2.16687c-0.03283,0.6238 -0.11491,1.13812 -0.24624,1.54307c-0.08752,0.2845 -0.2134,0.49791 -0.37756,0.64021c-0.15318,0.1423 -0.36114,0.2134 -0.6238,0.2134c-0.29548,0 -0.53074,-0.10947 -0.70587,-0.32831c-0.16416,-0.21884 -0.25721,-0.56357 -0.27907,-1.03419c-0.02185,-0.39398 -0.02739,-0.85905 -0.01642,-1.39533c0.01098,-0.53625 0.01642,-1.06702 0.01642,-1.59232c0.01098,-0.53625 0.00544,-0.97947 -0.01642,-1.32967c-0.04381,-0.70041 -0.16959,-1.21476 -0.37756,-1.54307c-0.19699,-0.32831 -0.49791,-0.49247 -0.90286,-0.49247c-0.47062,0 -0.84818,0.21887 -1.13268,0.65663c-0.27363,0.43775 -0.44322,1.04513 -0.50889,1.82214c-0.02185,0.31737 -0.03283,0.71134 -0.03283,1.18193c0.01098,0.45964 0.02185,0.91928 0.03283,1.37892c0.01098,0.45964 0.00544,0.84264 -0.01642,1.1491c-0.01098,0.65663 -0.11491,1.12724 -0.3119,1.41175c-0.18601,0.2845 -0.44866,0.42681 -0.78795,0.42681c-0.40495,0 -0.70044,-0.13133 -0.88645,-0.39398c-0.17513,-0.26265 -0.29004,-0.68402 -0.34473,-1.26401c-0.04381,-0.51432 -0.07664,-1.02321 -0.09849,-1.52666c-0.02185,-0.51435 -0.03283,-1.02324 -0.03283,-1.52666c0,-0.51435 0.01098,-1.07249 0.03283,-1.6744c0.03283,-0.60191 0.07664,-1.17098 0.13133,-1.70723c0.06566,-0.54719 0.18057,-1.00682 0.34473,-1.37892c0.16416,-0.37209 0.43779,-0.55813 0.82078,-0.55813c0.31734,0 0.54172,0.15869 0.67304,0.47605c0.13133,0.30643 0.19699,0.78248 0.19699,1.42816c0,0.21887 -0.01642,0.42134 -0.04925,0.60738l-0.04925,-0.32831c0.21884,-0.71134 0.56911,-1.26401 1.0506,-1.65798c0.48149,-0.40492 1.01777,-0.60738 1.60874,-0.60738c0.77697,0 1.38435,0.2517 1.82214,0.75512c0.43779,0.49247 0.67848,1.17646 0.72229,2.05196zM126.32349,174.6649c0.29548,0 0.54172,0.1751 0.73871,0.5253c0.19699,0.33926 0.33375,0.88098 0.41039,1.62515l-0.34473,0.3119c0.19699,-0.76607 0.56357,-1.35155 1.09985,-1.75648c0.53628,-0.40492 1.17095,-0.60738 1.90422,-0.60738c0.67848,0 1.28042,0.1751 1.80572,0.5253c0.5253,0.3502 0.93569,0.88098 1.23118,1.59232c0.30646,0.70041 0.45964,1.58137 0.45964,2.64292c0,1.71818 -0.3119,2.98765 -0.93569,3.80844c-0.61282,0.80981 -1.45002,1.21476 -2.5116,1.21476c-0.7661,0 -1.36794,-0.16416 -1.80572,-0.49247c-0.43779,-0.32831 -0.74414,-0.72773 -0.91928,-1.19834l0.19699,-0.09849c0.08752,0.65663 0.15872,1.30782 0.2134,1.95347c0.06566,0.63477 0.09849,1.19291 0.09849,1.6744c0,0.49247 -0.08752,0.9083 -0.26265,1.24759c-0.17513,0.33929 -0.4542,0.50889 -0.8372,0.50889c-0.37212,0 -0.65119,-0.1423 -0.8372,-0.42681c-0.18601,-0.2845 -0.32288,-0.66206 -0.41039,-1.13268c-0.06566,-0.48149 -0.13133,-1.09985 -0.19699,-1.85497c-0.06566,-0.75512 -0.12035,-1.57047 -0.16416,-2.44594c-0.03283,-0.8755 -0.04925,-1.72911 -0.04925,-2.56085c0,-0.85362 0.02739,-1.65252 0.08208,-2.39669c0.06566,-0.75512 0.1423,-1.36797 0.22982,-1.83856c0.07664,-0.2736 0.17513,-0.47605 0.29548,-0.60738c0.13133,-0.14227 0.30092,-0.2134 0.50889,-0.2134zM129.45889,176.6512c-0.59096,0 -1.06702,0.29548 -1.42816,0.88645c-0.35017,0.58002 -0.5253,1.3242 -0.5253,2.23253c0,0.93023 0.17513,1.62515 0.5253,2.08479c0.36114,0.45964 0.82622,0.68946 1.39533,0.68946c0.65663,0 1.12724,-0.25721 1.41175,-0.77154c0.29548,-0.5253 0.44322,-1.20381 0.44322,-2.03554c0,-1.06155 -0.18057,-1.83856 -0.54172,-2.33103c-0.36114,-0.50342 -0.78795,-0.75512 -1.28042,-0.75512zM142.67772,184.74413c-0.29548,0 -0.5253,-0.09849 -0.68946,-0.29548c-0.15318,-0.20797 -0.25711,-0.47062 -0.3119,-0.78795c-0.05468,-0.32831 -0.08208,-0.67304 -0.08208,-1.03419l0.08208,-0.06566c-0.10937,0.47062 -0.32277,0.87547 -0.64021,1.21476c-0.31734,0.33929 -0.68392,0.60194 -1.09985,0.78795c-0.41583,0.17513 -0.83166,0.26265 -1.24759,0.26265c-0.55813,0 -1.06702,-0.13133 -1.52666,-0.39398c-0.45964,-0.26265 -0.81524,-0.66761 -1.06702,-1.21476c-0.25167,-0.57999 -0.44866,-1.30782 -0.59096,-2.18329c-0.1422,-0.88645 -0.2134,-1.79478 -0.2134,-2.725c0,-0.50342 0.02196,-0.96853 0.06566,-1.39533c0.04381,-0.42681 0.11491,-0.77701 0.2134,-1.0506c0.08762,-0.28454 0.21894,-0.49247 0.39398,-0.6238c0.17513,-0.14227 0.39952,-0.2134 0.67304,-0.2134c0.31744,0 0.56367,0.12586 0.73871,0.37756c0.18611,0.24077 0.30102,0.58002 0.34473,1.01777c0.04381,0.36114 0.0712,0.80984 0.08208,1.34609c0.02196,0.5253 0.03837,1.05607 0.04925,1.59232c0.02196,0.5253 0.04925,0.96853 0.08208,1.32967c0.06566,0.65663 0.23536,1.14366 0.50889,1.461c0.27363,0.30646 0.60738,0.45964 1.00136,0.45964c0.58009,0 1.02331,-0.21884 1.32967,-0.65663c0.30646,-0.43775 0.45964,-1.0506 0.45964,-1.83856c0,-0.39398 -0.02185,-0.8372 -0.06566,-1.32967c-0.04371,-0.50342 -0.09295,-0.99041 -0.14774,-1.461c-0.04371,-0.47059 -0.06566,-0.85908 -0.06566,-1.16551c0,-0.51435 0.08762,-0.88098 0.26265,-1.09985c0.17513,-0.22982 0.41593,-0.34473 0.72229,-0.34473c0.26265,0 0.48159,0.07113 0.65663,0.2134c0.18611,0.14227 0.33385,0.33926 0.44322,0.59096c0.15328,0.32831 0.28461,0.77701 0.39398,1.34609c0.10947,0.56908 0.19699,1.21476 0.26265,1.93705c0.06566,0.72229 0.09849,1.48288 0.09849,2.28178c0,1.22574 -0.08208,2.14502 -0.24624,2.75783c-0.16416,0.60194 -0.4541,0.90286 -0.87003,0.90286zM147.56384,184.87546c-0.33929,0 -0.60738,-0.07664 -0.80437,-0.22982c-0.19699,-0.16416 -0.35571,-0.43225 -0.47605,-0.80437c-0.16416,-0.54716 -0.29004,-1.23661 -0.37756,-2.06838c-0.07664,-0.84267 -0.11491,-1.87686 -0.11491,-3.10256c0,-0.75512 0.02739,-1.51024 0.08208,-2.26536c0.06566,-0.76607 0.14774,-1.461 0.24624,-2.08479c0.09849,-0.63474 0.20243,-1.12721 0.3119,-1.47741c0.12035,-0.37209 0.26265,-0.62927 0.42681,-0.77154c0.16416,-0.14227 0.35017,-0.2134 0.55813,-0.2134c0.21884,0 0.39398,0.07661 0.5253,0.22982c0.13133,0.14227 0.23526,0.39945 0.3119,0.77154c0.06566,0.36114 0.11491,0.80437 0.14774,1.32967c0.04381,0.5253 0.06566,1.0889 0.06566,1.69081c0,0.82078 -0.03827,1.68535 -0.11491,2.59368c-0.07664,0.90833 -0.18057,1.80026 -0.3119,2.67576c-0.12035,0.87547 -0.26809,1.67984 -0.44322,2.4131l-0.45964,-0.22982c0.2845,-0.35017 0.60738,-0.6238 0.96853,-0.82078c0.37212,-0.19699 0.71131,-0.29548 1.01777,-0.29548c0.25167,0 0.44322,0.0711 0.57455,0.2134c0.1423,0.13133 0.2134,0.33929 0.2134,0.6238c0,0.2845 -0.12589,0.56911 -0.37756,0.85362c-0.2408,0.2845 -0.54172,0.51986 -0.90286,0.70587c-0.36114,0.17513 -0.71685,0.26265 -1.06702,0.26265zM158.57548,185.00678c-0.37212,0 -0.62934,-0.1423 -0.77154,-0.42681c-0.13133,-0.29548 -0.20797,-0.76056 -0.22982,-1.39533l0.16416,0.08208c-0.61292,1.19291 -1.77289,1.78931 -3.48012,1.78931c-0.77708,0 -1.42273,-0.13676 -1.93705,-0.41039c-0.51443,-0.2845 -0.89742,-0.65663 -1.1491,-1.11627c-0.2408,-0.47062 -0.36114,-0.9795 -0.36114,-1.52666c0,-0.94116 0.32831,-1.68535 0.98494,-2.23253c0.65663,-0.55813 1.52666,-0.8372 2.61009,-0.8372c0.71131,0 1.32967,0.10396 1.85497,0.3119c0.5253,0.20794 0.97396,0.49794 1.34609,0.87003l-0.27907,-0.03283c-0.07664,-1.10532 -0.31744,-1.89327 -0.72229,-2.36386c-0.39398,-0.48152 -0.95765,-0.72229 -1.69081,-0.72229c-0.42681,0 -0.82078,0.06566 -1.18193,0.19699c-0.36114,0.13133 -0.695,0.26812 -1.00136,0.41039c-0.29548,0.13133 -0.57455,0.19699 -0.8372,0.19699c-0.26265,0 -0.47062,-0.08755 -0.6238,-0.26265c-0.1423,-0.1751 -0.2134,-0.39944 -0.2134,-0.67304c0,-0.39398 0.18601,-0.76607 0.55813,-1.11627c0.383,-0.3502 0.88645,-0.63474 1.51024,-0.85362c0.6238,-0.21887 1.30228,-0.32831 2.03554,-0.32831c0.88645,0 1.64701,0.2134 2.28178,0.64021c0.63467,0.42681 1.11627,1.0506 1.44458,1.87139c0.2845,0.70041 0.48693,1.48288 0.60738,2.34744c0.12035,0.86456 0.18057,1.78931 0.18057,2.77425c0,0.74414 -0.03837,1.31869 -0.11491,1.72365c-0.07664,0.40495 -0.19699,0.68946 -0.36114,0.85362c-0.15328,0.15318 -0.36114,0.22982 -0.6238,0.22982zM154.94762,183.16823c0.36114,0 0.72773,-0.04925 1.09985,-0.14774c0.37202,-0.10947 0.68392,-0.26809 0.93569,-0.47605c0.25167,-0.20797 0.37756,-0.46508 0.37756,-0.77154c0,-0.26265 -0.10947,-0.47605 -0.32831,-0.64021c-0.20797,-0.1751 -0.48703,-0.30643 -0.8372,-0.39398c-0.33929,-0.08755 -0.70587,-0.13133 -1.09985,-0.13133c-0.66761,0 -1.17649,0.11491 -1.52666,0.34473c-0.33929,0.22982 -0.50889,0.53625 -0.50889,0.91928c0,0.41583 0.15862,0.73871 0.47605,0.96853c0.32831,0.21884 0.79883,0.32831 1.41175,0.32831zM163.35203,174.63207c0.35017,0 0.58553,0.14227 0.70587,0.42681c0.13133,0.28454 0.19699,0.70587 0.19699,1.26401c0,0.13133 -0.01098,0.2736 -0.03283,0.42681c-0.01098,0.14227 -0.03283,0.2736 -0.06566,0.39398l-0.03283,-0.32831c0.26265,-0.71134 0.66761,-1.26401 1.21476,-1.65798c0.54716,-0.40492 1.12724,-0.60738 1.74006,-0.60738c0.67848,0 1.24215,0.19152 1.69081,0.57455c0.45964,0.38303 0.79893,0.91928 1.01777,1.60874c0.22982,0.68946 0.34473,1.50477 0.34473,2.44594c0,0.58002 -0.02739,1.15457 -0.08208,1.72365c-0.04381,0.55813 -0.10947,1.07246 -0.19699,1.54307c-0.07664,0.45964 -0.16416,0.8372 -0.26265,1.13268c-0.13133,0.37212 -0.30092,0.65119 -0.50889,0.8372c-0.20797,0.17513 -0.4542,0.26265 -0.73871,0.26265c-0.2845,0 -0.50345,-0.10393 -0.65663,-0.3119c-0.15318,-0.20797 -0.22982,-0.48703 -0.22982,-0.8372c0,-0.37212 0.02739,-0.82078 0.08208,-1.34609c0.05468,-0.53625 0.10393,-1.07797 0.14774,-1.62515c0.05468,-0.55813 0.08208,-1.06155 0.08208,-1.51024c0,-1.53213 -0.50345,-2.2982 -1.51024,-2.2982c-0.53628,0 -0.98494,0.24077 -1.34609,0.72229c-0.36114,0.47059 -0.60194,1.14363 -0.72229,2.01913c-0.03283,0.29548 -0.04925,0.6621 -0.04925,1.09985c0,0.43775 0,0.8755 0,1.31325c0.01098,0.42681 0,0.78795 -0.03283,1.08343c-0.04381,0.65663 -0.16959,1.12724 -0.37756,1.41175c-0.19699,0.2845 -0.47062,0.42681 -0.82078,0.42681c-0.40495,0 -0.71131,-0.18601 -0.91928,-0.55813c-0.20797,-0.383 -0.3119,-1.02321 -0.3119,-1.92063c0,-0.45964 0.01098,-0.97399 0.03283,-1.54307c0.02185,-0.56908 0.04925,-1.13815 0.08208,-1.70723c0.04381,-0.58002 0.09306,-1.10532 0.14774,-1.57591c0.10947,-0.88645 0.26809,-1.58685 0.47605,-2.10121c0.20797,-0.5253 0.51986,-0.78795 0.93569,-0.78795zM180.04555,173.03975c1.30197,0 2.25921,0.33378 2.87274,1.00136c0.6238,0.66757 0.93569,1.54307 0.93569,2.62651c0,0.74417 -0.17544,1.38986 -0.5253,1.93705c-0.3396,0.54719 -0.80437,0.97399 -1.39533,1.28042c-0.59096,0.29548 -1.25888,0.44322 -2.00271,0.44322c-0.35089,0 -0.72229,-0.0383 -1.11627,-0.11491c-0.3832,-0.07661 -0.78272,-0.22435 -1.19855,-0.44322l0.08208,-0.2134c0.08752,0.2736 0.15872,0.61285 0.2134,1.01777c0.06566,0.39398 0.11491,0.80437 0.14774,1.23118c0.04381,0.41583 0.06566,0.79893 0.06566,1.1491c0,0.64565 -0.10947,1.14366 -0.32831,1.49383c-0.20797,0.33929 -0.51986,0.50889 -0.93569,0.50889c-0.35017,0 -0.62923,-0.10947 -0.8372,-0.32831c-0.19699,-0.21884 -0.33375,-0.57999 -0.41039,-1.08343c-0.07664,-0.50345 -0.11491,-1.17649 -0.11491,-2.01913c0,-1.61968 0.0711,-2.9986 0.2134,-4.13675c0.15318,-1.1491 0.41039,-2.05196 0.77154,-2.70859c0.2845,-0.50342 0.72229,-0.90286 1.31325,-1.19834c0.60194,-0.29548 1.35142,-0.44322 2.24915,-0.44322zM179.73365,178.39126c0.65663,0 1.18706,-0.1751 1.59232,-0.5253c0.41552,-0.3502 0.6238,-0.85908 0.6238,-1.52666c0,-0.43775 -0.14774,-0.7989 -0.44322,-1.08343c-0.28522,-0.29548 -0.73358,-0.44322 -1.34609,-0.44322c-0.44938,0 -0.8372,0.10396 -1.16551,0.3119c-0.32831,0.19699 -0.58019,0.47605 -0.75533,0.8372c-0.16416,0.3502 -0.24624,0.75512 -0.24624,1.21476c0,0.42681 0.13676,0.73871 0.41039,0.93569c0.2844,0.18604 0.72762,0.27907 1.32988,0.27907zM189.24859,184.89187c-0.87619,0 -1.64157,-0.19155 -2.2982,-0.57455c-0.64637,-0.39398 -1.1491,-0.95211 -1.51024,-1.6744c-0.35089,-0.72229 -0.5253,-1.58137 -0.5253,-2.57726c0,-1.03966 0.18057,-1.948 0.54172,-2.725c0.36114,-0.77701 0.87003,-1.38439 1.52666,-1.82214c0.66689,-0.43775 1.43842,-0.65663 2.31461,-0.65663c0.94082,0 1.75648,0.2134 2.44594,0.64021c0.68946,0.41586 1.22502,1.00136 1.60874,1.75648c0.38269,0.75512 0.57455,1.6361 0.57455,2.64292c0,1.02872 -0.19186,1.9152 -0.57455,2.65934c-0.38372,0.74414 -0.92543,1.31869 -1.62515,1.72365c-0.70074,0.40495 -1.52666,0.60738 -2.47877,0.60738zM189.47841,182.67576c0.67817,0 1.21476,-0.26809 1.60874,-0.80437c0.40424,-0.54719 0.60738,-1.26948 0.60738,-2.16687c0,-0.90833 -0.20314,-1.63062 -0.60738,-2.16687c-0.39398,-0.53625 -0.93056,-0.80437 -1.60874,-0.80437c-0.70074,0 -1.25375,0.26812 -1.65798,0.80437c-0.40526,0.53625 -0.60738,1.25854 -0.60738,2.16687c0,0.89739 0.20212,1.61968 0.60738,2.16687c0.40424,0.53628 0.95724,0.80437 1.65798,0.80437zM197.35588,184.87546c-0.3396,0 -0.60738,-0.07664 -0.80437,-0.22982c-0.19699,-0.16416 -0.35602,-0.43225 -0.47605,-0.80437c-0.16416,-0.54716 -0.29035,-1.23661 -0.37756,-2.06838c-0.07695,-0.84267 -0.11491,-1.87686 -0.11491,-3.10256c0,-0.75512 0.0277,-1.51024 0.08208,-2.26536c0.06566,-0.76607 0.14774,-1.461 0.24624,-2.08479c0.09849,-0.63474 0.20212,-1.12721 0.3119,-1.47741c0.12004,-0.37209 0.26265,-0.62927 0.42681,-0.77154c0.16416,-0.14227 0.34986,-0.2134 0.55813,-0.2134c0.21853,0 0.39398,0.07661 0.5253,0.22982c0.13133,0.14227 0.23495,0.39945 0.3119,0.77154c0.06566,0.36114 0.11491,0.80437 0.14774,1.32967c0.04412,0.5253 0.06566,1.0889 0.06566,1.69081c0,0.82078 -0.03796,1.68535 -0.11491,2.59368c-0.07695,0.90833 -0.18057,1.80026 -0.3119,2.67576c-0.12004,0.87547 -0.26778,1.67984 -0.44322,2.4131l-0.45964,-0.22982c0.2842,-0.35017 0.60738,-0.6238 0.96853,-0.82078c0.37243,-0.19699 0.711,-0.29548 1.01777,-0.29548c0.25137,0 0.44322,0.0711 0.57455,0.2134c0.14261,0.13133 0.2134,0.33929 0.2134,0.6238c0,0.2845 -0.1262,0.56911 -0.37756,0.85362c-0.24111,0.2845 -0.54172,0.51986 -0.90286,0.70587c-0.36114,0.17513 -0.71716,0.26265 -1.06702,0.26265zM208.36772,185.00678c-0.37243,0 -0.62995,-0.1423 -0.77154,-0.42681c-0.13133,-0.29548 -0.20827,-0.76056 -0.22982,-1.39533l0.16416,0.08208c-0.61354,1.19291 -1.77289,1.78931 -3.48012,1.78931c-0.77769,0 -1.42303,-0.13676 -1.93705,-0.41039c-0.51504,-0.2845 -0.89773,-0.65663 -1.1491,-1.11627c-0.24111,-0.47062 -0.36114,-0.9795 -0.36114,-1.52666c0,-0.94116 0.32831,-1.68535 0.98494,-2.23253c0.65663,-0.55813 1.52666,-0.8372 2.61009,-0.8372c0.711,0 1.32967,0.10396 1.85497,0.3119c0.5253,0.20794 0.97365,0.49794 1.34609,0.87003l-0.27907,-0.03283c-0.07695,-1.10532 -0.31805,-1.89327 -0.72229,-2.36386c-0.39398,-0.48152 -0.95827,-0.72229 -1.69081,-0.72229c-0.42681,0 -0.82078,0.06566 -1.18193,0.19699c-0.36114,0.13133 -0.69561,0.26812 -1.00136,0.41039c-0.29548,0.13133 -0.57455,0.19699 -0.8372,0.19699c-0.26265,0 -0.47092,-0.08755 -0.6238,-0.26265c-0.14261,-0.1751 -0.2134,-0.39944 -0.2134,-0.67304c0,-0.39398 0.1857,-0.76607 0.55813,-1.11627c0.38269,-0.3502 0.88645,-0.63474 1.51024,-0.85362c0.6238,-0.21887 1.30197,-0.32831 2.03554,-0.32831c0.88645,0 1.6467,0.2134 2.28178,0.64021c0.63406,0.42681 1.11627,1.0506 1.44458,1.87139c0.2842,0.70041 0.48631,1.48288 0.60738,2.34744c0.12004,0.86456 0.18057,1.78931 0.18057,2.77425c0,0.74414 -0.03899,1.31869 -0.11491,1.72365c-0.07695,0.40495 -0.19699,0.68946 -0.36114,0.85362c-0.1539,0.15318 -0.36114,0.22982 -0.6238,0.22982zM204.73986,183.16823c0.36114,0 0.72742,-0.04925 1.09985,-0.14774c0.3714,-0.10947 0.6833,-0.26809 0.93569,-0.47605c0.25137,-0.20797 0.37756,-0.46508 0.37756,-0.77154c0,-0.26265 -0.10978,-0.47605 -0.32831,-0.64021c-0.20827,-0.1751 -0.48734,-0.30643 -0.8372,-0.39398c-0.3396,-0.08755 -0.70587,-0.13133 -1.09985,-0.13133c-0.66791,0 -1.1768,0.11491 -1.52666,0.34473c-0.3396,0.22982 -0.50889,0.53625 -0.50889,0.91928c0,0.41583 0.158,0.73871 0.47605,0.96853c0.32831,0.21884 0.79821,0.32831 1.41175,0.32831zM217.0547,185.22019c-0.68946,0 -1.22605,-0.04381 -1.60874,-0.13133c-0.37243,-0.08752 -0.62995,-0.20797 -0.77154,-0.36114c-0.14261,-0.16416 -0.21956,-0.34473 -0.22982,-0.54172c0,-0.30646 0.18057,-0.56357 0.54172,-0.77154c0.3714,-0.20797 1.0506,-0.33929 2.03554,-0.39398l-0.26265,0.3119c-0.12107,-0.55813 -0.20827,-1.20932 -0.26265,-1.95347c-0.0554,-0.74417 -0.07695,-1.51571 -0.06566,-2.31461c0.01026,-0.7989 0.04925,-1.55949 0.11491,-2.28178c0.06566,-0.73324 0.158,-1.35703 0.27907,-1.87139l1.42816,-0.09849c-0.24111,0.09849 -0.54172,0.18604 -0.90286,0.26265c-0.36114,0.06566 -0.73358,0.09849 -1.11627,0.09849c-0.70074,0 -1.22092,-0.07661 -1.55949,-0.22982c-0.32831,-0.15321 -0.49247,-0.36661 -0.49247,-0.64021c0,-0.48152 0.28933,-0.85362 0.87003,-1.11627c0.59096,-0.2736 1.49383,-0.41039 2.70859,-0.41039c1.44458,0 2.65934,0.24077 3.64428,0.72229c0.9952,0.47059 1.75032,1.13268 2.26536,1.9863c0.51402,0.84267 0.77154,1.82761 0.77154,2.95482c0,0.98494 -0.17544,1.89327 -0.5253,2.725c-0.35089,0.82078 -0.85362,1.53764 -1.51024,2.15045c-0.64637,0.60194 -1.42303,1.07246 -2.33103,1.41175c-0.89773,0.32831 -1.90422,0.49247 -3.02048,0.49247zM219.38572,182.69217c0.3714,0 0.76538,-0.14774 1.18193,-0.44322c0.42681,-0.30646 0.78795,-0.74965 1.08343,-1.32967c0.29548,-0.59096 0.44322,-1.31872 0.44322,-2.18329c0,-0.63474 -0.09336,-1.1874 -0.27907,-1.65798c-0.17544,-0.48152 -0.40526,-0.88098 -0.68946,-1.19834c-0.28522,-0.31737 -0.58583,-0.55266 -0.90286,-0.70587c-0.31805,-0.16416 -0.61867,-0.24624 -0.90286,-0.24624c-0.22982,0 -0.41039,0.14227 -0.54172,0.42681c-0.12107,0.28454 -0.20827,0.71134 -0.26265,1.28042c-0.0554,0.55813 -0.08208,1.25306 -0.08208,2.08479c0,1.29137 0.06566,2.27631 0.19699,2.95482c0.13133,0.67848 0.38269,1.01777 0.75512,1.01777zM227.69513,172.2518c0.43707,0 0.74897,0.12038 0.93569,0.36114c0.19699,0.24077 0.29548,0.51983 0.29548,0.8372c0,0.39398 -0.12107,0.70041 -0.36114,0.91928c-0.22982,0.20794 -0.55813,0.3119 -0.98494,0.3119c-0.41655,0 -0.72845,-0.11491 -0.93569,-0.34473c-0.20827,-0.24077 -0.3119,-0.51983 -0.3119,-0.8372c0,-0.41586 0.12517,-0.72776 0.37756,-0.93569c0.25137,-0.20793 0.57968,-0.3119 0.98494,-0.3119zM227.79363,175.9125c0.34986,0 0.6238,0.32831 0.82078,0.98494c0.20725,0.65663 0.3119,1.70176 0.3119,3.13539c0,1.76192 -0.1262,3.03146 -0.37756,3.80844c-0.25239,0.77697 -0.63508,1.16551 -1.1491,1.16551c-0.39398,0 -0.68433,-0.2845 -0.87003,-0.85362c-0.18673,-0.57999 -0.27907,-1.58688 -0.27907,-3.02048c0,-1.76195 0.14159,-3.06973 0.42681,-3.92335c0.29548,-0.86456 0.66689,-1.29684 1.11627,-1.29684zM238.10473,185.00678c-0.3714,0 -0.62893,-0.1423 -0.77154,-0.42681c-0.13133,-0.29548 -0.20725,-0.76056 -0.22982,-1.39533l0.16416,0.08208c-0.61251,1.19291 -1.77289,1.78931 -3.48012,1.78931c-0.77667,0 -1.42201,-0.13676 -1.93705,-0.41039c-0.51402,-0.2845 -0.89671,-0.65663 -1.1491,-1.11627c-0.24008,-0.47062 -0.36114,-0.9795 -0.36114,-1.52666c0,-0.94116 0.32831,-1.68535 0.98494,-2.23253c0.65663,-0.55813 1.52666,-0.8372 2.61009,-0.8372c0.71203,0 1.32967,0.10396 1.85497,0.3119c0.5253,0.20794 0.97468,0.49794 1.34609,0.87003l-0.27907,-0.03283c-0.07592,-1.10532 -0.31703,-1.89327 -0.72229,-2.36386c-0.39398,-0.48152 -0.95724,-0.72229 -1.69081,-0.72229c-0.42681,0 -0.82078,0.06566 -1.18193,0.19699c-0.36114,0.13133 -0.69459,0.26812 -1.00136,0.41039c-0.29548,0.13133 -0.57455,0.19699 -0.8372,0.19699c-0.26265,0 -0.4699,-0.08755 -0.6238,-0.26265c-0.14159,-0.1751 -0.2134,-0.39944 -0.2134,-0.67304c0,-0.39398 0.18673,-0.76607 0.55813,-1.11627c0.38372,-0.3502 0.88645,-0.63474 1.51024,-0.85362c0.6238,-0.21887 1.30299,-0.32831 2.03554,-0.32831c0.88645,0 1.64772,0.2134 2.28178,0.64021c0.63508,0.42681 1.11627,1.0506 1.44458,1.87139c0.28522,0.70041 0.48734,1.48288 0.60738,2.34744c0.12107,0.86456 0.18057,1.78931 0.18057,2.77425c0,0.74414 -0.03796,1.31869 -0.11491,1.72365c-0.07592,0.40495 -0.19699,0.68946 -0.36114,0.85362c-0.15287,0.15318 -0.36114,0.22982 -0.6238,0.22982zM234.47686,183.16823c0.36114,0 0.72845,-0.04925 1.09985,-0.14774c0.37243,-0.10947 0.68433,-0.26809 0.93569,-0.47605c0.25239,-0.20797 0.37756,-0.46508 0.37756,-0.77154c0,-0.26265 -0.10875,-0.47605 -0.32831,-0.64021c-0.20725,-0.1751 -0.48631,-0.30643 -0.8372,-0.39398c-0.33857,-0.08755 -0.70587,-0.13133 -1.09985,-0.13133c-0.66689,0 -1.17577,0.11491 -1.52666,0.34473c-0.33857,0.22982 -0.50889,0.53625 -0.50889,0.91928c0,0.41583 0.15903,0.73871 0.47605,0.96853c0.32831,0.21884 0.79924,0.32831 1.41175,0.32831zM244.34268,184.57997c-1.02906,0 -1.86626,-0.39398 -2.5116,-1.18193c-0.64637,-0.79893 -0.96853,-2.00818 -0.96853,-3.62787c0,-1.72911 0.3119,-2.99312 0.93569,-3.79202c0.6238,-0.7989 1.44458,-1.19834 2.46235,-1.19834c0.60122,0 1.13268,0.15321 1.59232,0.45964c0.45964,0.30643 0.85362,0.73871 1.18193,1.29684l-0.13133,0.22982c-0.03283,-0.15321 -0.06053,-0.31737 -0.08208,-0.49247c-0.02257,-0.1751 -0.03283,-0.30643 -0.03283,-0.39398c0,-0.44869 0.07079,-0.79342 0.2134,-1.03419c0.15287,-0.2517 0.38782,-0.37756 0.70587,-0.37756c0.34986,0 0.6238,0.14227 0.82078,0.42681c0.20725,0.28454 0.36627,0.68946 0.47605,1.21476c0.14159,0.53625 0.26265,1.22023 0.36114,2.05196c0.09849,0.82078 0.14774,1.65252 0.14774,2.49518c0,1.0506 -0.03899,1.93161 -0.11491,2.64292c-0.07695,0.71131 -0.20314,1.30228 -0.37756,1.77289c-0.17544,0.47062 -0.40526,0.88101 -0.68946,1.23118c-0.47092,0.56911 -1.0783,1.00136 -1.82214,1.29684c-0.73358,0.30646 -1.58206,0.45964 -2.54443,0.45964c-0.68946,0 -1.24246,-0.06566 -1.65798,-0.19699c-0.41655,-0.12035 -0.71716,-0.29004 -0.90286,-0.50889c-0.17544,-0.20797 -0.26265,-0.44322 -0.26265,-0.70587c0,-0.27363 0.07592,-0.50345 0.22982,-0.68946c0.15287,-0.17513 0.38269,-0.26265 0.68946,-0.26265c0.27291,0 0.59096,0.04381 0.95211,0.13133c0.3714,0.08752 0.8095,0.13133 1.31325,0.13133c1.06086,0 1.81085,-0.25167 2.24895,-0.75512c0.44835,-0.49247 0.67304,-1.20378 0.67304,-2.13404c0,-0.25167 -0.01642,-0.54716 -0.04925,-0.88645l0.22982,0.08208c-0.27394,0.70044 -0.6792,1.26401 -1.21476,1.69081c-0.53659,0.41583 -1.16038,0.6238 -1.87139,0.6238zM244.96648,182.56085c0.34986,0 0.69972,-0.09306 1.0506,-0.27907c0.34986,-0.18601 0.64021,-0.49247 0.87003,-0.91928c0.22982,-0.42681 0.34473,-1.00136 0.34473,-1.72365c0,-0.86456 -0.20314,-1.57044 -0.60738,-2.11762c-0.40526,-0.54719 -0.97468,-0.82078 -1.70723,-0.82078c-0.63508,0 -1.09985,0.24077 -1.39533,0.72229c-0.29548,0.48152 -0.44322,1.20929 -0.44322,2.18329c0,0.93023 0.14774,1.65798 0.44322,2.18329c0.29548,0.51432 0.77667,0.77154 1.44458,0.77154zM255.50432,184.89187c-0.87619,0 -1.64157,-0.19155 -2.2982,-0.57455c-0.64637,-0.39398 -1.1491,-0.95211 -1.51024,-1.6744c-0.35089,-0.72229 -0.5253,-1.58137 -0.5253,-2.57726c0,-1.03966 0.18057,-1.948 0.54172,-2.725c0.36114,-0.77701 0.87003,-1.38439 1.52666,-1.82214c0.66689,-0.43775 1.43842,-0.65663 2.31461,-0.65663c0.94082,0 1.75648,0.2134 2.44594,0.64021c0.68946,0.41586 1.22502,1.00136 1.60874,1.75648c0.38269,0.75512 0.57455,1.6361 0.57455,2.64292c0,1.02872 -0.19186,1.9152 -0.57455,2.65934c-0.38372,0.74414 -0.92543,1.31869 -1.62515,1.72365c-0.70074,0.40495 -1.52666,0.60738 -2.47877,0.60738zM255.73414,182.67576c0.67817,0 1.21476,-0.26809 1.60874,-0.80437c0.40424,-0.54719 0.60738,-1.26948 0.60738,-2.16687c0,-0.90833 -0.20314,-1.63062 -0.60738,-2.16687c-0.39398,-0.53625 -0.93056,-0.80437 -1.60874,-0.80437c-0.70074,0 -1.25375,0.26812 -1.65798,0.80437c-0.40526,0.53625 -0.60738,1.25854 -0.60738,2.16687c0,0.89739 0.20212,1.61968 0.60738,2.16687c0.40424,0.53628 0.95724,0.80437 1.65798,0.80437zM263.51312,174.63207c0.35089,0 0.58583,0.14227 0.70587,0.42681c0.13133,0.28454 0.19699,0.70587 0.19699,1.26401c0,0.13133 -0.01026,0.2736 -0.03283,0.42681c-0.01026,0.14227 -0.03283,0.2736 -0.06566,0.39398l-0.03283,-0.32831c0.26265,-0.71134 0.66791,-1.26401 1.21476,-1.65798c0.54787,-0.40492 1.12755,-0.60738 1.74006,-0.60738c0.6792,0 1.24246,0.19152 1.69081,0.57455c0.45964,0.38303 0.79924,0.91928 1.01777,1.60874c0.22982,0.68946 0.34473,1.50477 0.34473,2.44594c0,0.58002 -0.02668,1.15457 -0.08208,1.72365c-0.04309,0.55813 -0.10875,1.07246 -0.19699,1.54307c-0.07592,0.45964 -0.16416,0.8372 -0.26265,1.13268c-0.13133,0.37212 -0.30061,0.65119 -0.50889,0.8372c-0.20725,0.17513 -0.45348,0.26265 -0.73871,0.26265c-0.2842,0 -0.50273,-0.10393 -0.65663,-0.3119c-0.15287,-0.20797 -0.22982,-0.48703 -0.22982,-0.8372c0,-0.37212 0.0277,-0.82078 0.08208,-1.34609c0.0554,-0.53625 0.10465,-1.07797 0.14774,-1.62515c0.0554,-0.55813 0.08208,-1.06155 0.08208,-1.51024c0,-1.53213 -0.50273,-2.2982 -1.51024,-2.2982c-0.53556,0 -0.98494,0.24077 -1.34609,0.72229c-0.36114,0.47059 -0.60122,1.14363 -0.72229,2.01913c-0.03283,0.29548 -0.04925,0.6621 -0.04925,1.09985c0,0.43775 0,0.8755 0,1.31325c0.01129,0.42681 0,0.78795 -0.03283,1.08343c-0.04309,0.65663 -0.16929,1.12724 -0.37756,1.41175c-0.19699,0.2845 -0.4699,0.42681 -0.82078,0.42681c-0.40424,0 -0.711,-0.18601 -0.91928,-0.55813c-0.20725,-0.383 -0.3119,-1.02321 -0.3119,-1.92063c0,-0.45964 0.01129,-0.97399 0.03283,-1.54307c0.02257,-0.56908 0.04925,-1.13815 0.08208,-1.70723c0.04412,-0.58002 0.09336,-1.10532 0.14774,-1.57591c0.10978,-0.88645 0.26881,-1.58685 0.47605,-2.10121c0.20827,-0.5253 0.52017,-0.78795 0.93569,-0.78795zM279.46506,185.00678c-0.37243,0 -0.62995,-0.1423 -0.77154,-0.42681c-0.13133,-0.29548 -0.20827,-0.76056 -0.22982,-1.39533l0.16416,0.08208c-0.61354,1.19291 -1.77289,1.78931 -3.48012,1.78931c-0.77769,0 -1.42303,-0.13676 -1.93705,-0.41039c-0.51504,-0.2845 -0.89773,-0.65663 -1.1491,-1.11627c-0.24111,-0.47062 -0.36114,-0.9795 -0.36114,-1.52666c0,-0.94116 0.32831,-1.68535 0.98494,-2.23253c0.65663,-0.55813 1.52666,-0.8372 2.61009,-0.8372c0.711,0 1.32967,0.10396 1.85497,0.3119c0.5253,0.20794 0.97365,0.49794 1.34609,0.87003l-0.27907,-0.03283c-0.07695,-1.10532 -0.31805,-1.89327 -0.72229,-2.36386c-0.39398,-0.48152 -0.95827,-0.72229 -1.69081,-0.72229c-0.42681,0 -0.82078,0.06566 -1.18193,0.19699c-0.36114,0.13133 -0.69561,0.26812 -1.00136,0.41039c-0.29548,0.13133 -0.57455,0.19699 -0.8372,0.19699c-0.26265,0 -0.47092,-0.08755 -0.6238,-0.26265c-0.14261,-0.1751 -0.2134,-0.39944 -0.2134,-0.67304c0,-0.39398 0.1857,-0.76607 0.55813,-1.11627c0.38269,-0.3502 0.88645,-0.63474 1.51024,-0.85362c0.6238,-0.21887 1.30197,-0.32831 2.03554,-0.32831c0.88645,0 1.6467,0.2134 2.28178,0.64021c0.63406,0.42681 1.11627,1.0506 1.44458,1.87139c0.2842,0.70041 0.48631,1.48288 0.60738,2.34744c0.12004,0.86456 0.18057,1.78931 0.18057,2.77425c0,0.74414 -0.03899,1.31869 -0.11491,1.72365c-0.07695,0.40495 -0.19699,0.68946 -0.36114,0.85362c-0.1539,0.15318 -0.36114,0.22982 -0.6238,0.22982zM275.83719,183.16823c0.36114,0 0.72742,-0.04925 1.09985,-0.14774c0.3714,-0.10947 0.6833,-0.26809 0.93569,-0.47605c0.25137,-0.20797 0.37756,-0.46508 0.37756,-0.77154c0,-0.26265 -0.10978,-0.47605 -0.32831,-0.64021c-0.20827,-0.1751 -0.48734,-0.30643 -0.8372,-0.39398c-0.3396,-0.08755 -0.70587,-0.13133 -1.09985,-0.13133c-0.66791,0 -1.1768,0.11491 -1.52666,0.34473c-0.3396,0.22982 -0.50889,0.53625 -0.50889,0.91928c0,0.41583 0.158,0.73871 0.47605,0.96853c0.32831,0.21884 0.79821,0.32831 1.41175,0.32831zM284.33949,184.87546c-0.33857,0 -0.60738,-0.07664 -0.80437,-0.22982c-0.19699,-0.16416 -0.35499,-0.43225 -0.47605,-0.80437c-0.16416,-0.54716 -0.28933,-1.23661 -0.37756,-2.06838c-0.07592,-0.84267 -0.11491,-1.87686 -0.11491,-3.10256c0,-0.75512 0.0277,-1.51024 0.08208,-2.26536c0.06566,-0.76607 0.14774,-1.461 0.24624,-2.08479c0.09849,-0.63474 0.20314,-1.12721 0.3119,-1.47741c0.12107,-0.37209 0.26265,-0.62927 0.42681,-0.77154c0.16416,-0.14227 0.35089,-0.2134 0.55813,-0.2134c0.21956,0 0.39398,0.07661 0.5253,0.22982c0.13133,0.14227 0.23598,0.39945 0.3119,0.77154c0.06566,0.36114 0.11491,0.80437 0.14774,1.32967c0.04412,0.5253 0.06566,1.0889 0.06566,1.69081c0,0.82078 -0.03796,1.68535 -0.11491,2.59368c-0.07592,0.90833 -0.18057,1.80026 -0.3119,2.67576c-0.12004,0.87547 -0.26778,1.67984 -0.44322,2.4131l-0.45964,-0.22982c0.28522,-0.35017 0.60738,-0.6238 0.96853,-0.82078c0.37243,-0.19699 0.71203,-0.29548 1.01777,-0.29548c0.25239,0 0.44322,0.0711 0.57455,0.2134c0.14261,0.13133 0.2134,0.33929 0.2134,0.6238c0,0.2845 -0.12517,0.56911 -0.37756,0.85362c-0.24008,0.2845 -0.54172,0.51986 -0.90286,0.70587c-0.36114,0.17513 -0.71613,0.26265 -1.06702,0.26265zM294.66495,184.9247c-0.67817,0 -1.24144,-0.12589 -1.69081,-0.37756c-0.43707,-0.26265 -0.76538,-0.66206 -0.98494,-1.19834c-0.15287,-0.37212 -0.26778,-0.82078 -0.34473,-1.34609c-0.06566,-0.53625 -0.09849,-1.1491 -0.09849,-1.83856c0,-1.18193 0.03899,-2.15592 0.11491,-2.92199c0.07695,-0.77701 0.18673,-1.4008 0.32831,-1.87139c0.1539,-0.48152 0.32318,-0.87003 0.50889,-1.16551c0.29548,-0.44869 0.76641,-0.80984 1.41175,-1.08343c0.64637,-0.2736 1.55949,-0.41039 2.74142,-0.41039c0.78795,0 1.4179,0.12038 1.8878,0.36114c0.48221,0.22982 0.82694,0.53625 1.03419,0.91928c0.21956,0.38303 0.32831,0.80984 0.32831,1.28042c0,0.74417 -0.21853,1.35703 -0.65663,1.83856c-0.43707,0.48152 -1.01162,0.86456 -1.72365,1.1491v0.06566c0.77769,0.08755 1.37892,0.33926 1.80572,0.75512c0.43809,0.40492 0.65663,0.98494 0.65663,1.74006c0,0.60191 -0.15287,1.15454 -0.45964,1.65798c-0.29548,0.49247 -0.69972,0.92472 -1.21476,1.29684c-0.50273,0.36114 -1.07215,0.64565 -1.70723,0.85362c-0.63406,0.19699 -1.28042,0.29548 -1.93705,0.29548zM295.17384,182.95482c0.5253,0 0.9911,-0.08752 1.39533,-0.26265c0.41655,-0.17513 0.73871,-0.41039 0.96853,-0.70587c0.24111,-0.30643 0.36114,-0.65116 0.36114,-1.03419c0,-0.41586 -0.20212,-0.76059 -0.60738,-1.03419c-0.39398,-0.28454 -1.01162,-0.42681 -1.85497,-0.42681c-0.56839,0 -1.0229,0.13679 -1.3625,0.41039c-0.32831,0.26265 -0.49247,0.71682 -0.49247,1.3625c0,0.61282 0.13133,1.0506 0.39398,1.31325c0.26265,0.25167 0.66278,0.37756 1.19834,0.37756zM295.2395,177.75105c0.74486,0 1.3625,-0.16416 1.85497,-0.49247c0.50376,-0.33926 0.75512,-0.77701 0.75512,-1.31325c0,-0.39398 -0.158,-0.71134 -0.47605,-0.95211c-0.31703,-0.24077 -0.7818,-0.36114 -1.39533,-0.36114c-0.66689,0 -1.21476,0.13133 -1.64157,0.39398c-0.42681,0.26265 -0.64021,0.71134 -0.64021,1.34609c0,0.51435 0.13748,0.8755 0.41039,1.08343c0.28522,0.19699 0.66278,0.29548 1.13268,0.29548zM308.97737,185.00678c-0.3714,0 -0.62893,-0.1423 -0.77154,-0.42681c-0.13133,-0.29548 -0.20725,-0.76056 -0.22982,-1.39533l0.16416,0.08208c-0.61251,1.19291 -1.77289,1.78931 -3.48012,1.78931c-0.77667,0 -1.42201,-0.13676 -1.93705,-0.41039c-0.51402,-0.2845 -0.89671,-0.65663 -1.1491,-1.11627c-0.24008,-0.47062 -0.36114,-0.9795 -0.36114,-1.52666c0,-0.94116 0.32831,-1.68535 0.98494,-2.23253c0.65663,-0.55813 1.52666,-0.8372 2.61009,-0.8372c0.71203,0 1.32967,0.10396 1.85497,0.3119c0.5253,0.20794 0.97468,0.49794 1.34609,0.87003l-0.27907,-0.03283c-0.07592,-1.10532 -0.31703,-1.89327 -0.72229,-2.36386c-0.39398,-0.48152 -0.95724,-0.72229 -1.69081,-0.72229c-0.42681,0 -0.82078,0.06566 -1.18193,0.19699c-0.36114,0.13133 -0.69459,0.26812 -1.00136,0.41039c-0.29548,0.13133 -0.57455,0.19699 -0.8372,0.19699c-0.26265,0 -0.4699,-0.08755 -0.6238,-0.26265c-0.14159,-0.1751 -0.2134,-0.39944 -0.2134,-0.67304c0,-0.39398 0.18673,-0.76607 0.55813,-1.11627c0.38372,-0.3502 0.88645,-0.63474 1.51024,-0.85362c0.6238,-0.21887 1.30299,-0.32831 2.03554,-0.32831c0.88645,0 1.64772,0.2134 2.28178,0.64021c0.63508,0.42681 1.11627,1.0506 1.44458,1.87139c0.28522,0.70041 0.48734,1.48288 0.60738,2.34744c0.12107,0.86456 0.18057,1.78931 0.18057,2.77425c0,0.74414 -0.03796,1.31869 -0.11491,1.72365c-0.07592,0.40495 -0.19699,0.68946 -0.36114,0.85362c-0.15287,0.15318 -0.36114,0.22982 -0.6238,0.22982zM305.3495,183.16823c0.36114,0 0.72845,-0.04925 1.09985,-0.14774c0.37243,-0.10947 0.68433,-0.26809 0.93569,-0.47605c0.25239,-0.20797 0.37756,-0.46508 0.37756,-0.77154c0,-0.26265 -0.10875,-0.47605 -0.32831,-0.64021c-0.20725,-0.1751 -0.48631,-0.30643 -0.8372,-0.39398c-0.33857,-0.08755 -0.70587,-0.13133 -1.09985,-0.13133c-0.66689,0 -1.17577,0.11491 -1.52666,0.34473c-0.33857,0.22982 -0.50889,0.53625 -0.50889,0.91928c0,0.41583 0.15903,0.73871 0.47605,0.96853c0.32831,0.21884 0.79924,0.32831 1.41175,0.32831zM313.75433,174.63207c0.34986,0 0.58583,0.14227 0.70587,0.42681c0.13133,0.28454 0.19699,0.70587 0.19699,1.26401c0,0.13133 -0.01129,0.2736 -0.03283,0.42681c-0.01129,0.14227 -0.03283,0.2736 -0.06566,0.39398l-0.03283,-0.32831c0.26265,-0.71134 0.66791,-1.26401 1.21476,-1.65798c0.54685,-0.40492 1.12755,-0.60738 1.74006,-0.60738c0.67817,0 1.24246,0.19152 1.69081,0.57455c0.45964,0.38303 0.79924,0.91928 1.01777,1.60874c0.22982,0.68946 0.34473,1.50477 0.34473,2.44594c0,0.58002 -0.0277,1.15457 -0.08208,1.72365c-0.04412,0.55813 -0.10978,1.07246 -0.19699,1.54307c-0.07695,0.45964 -0.16416,0.8372 -0.26265,1.13268c-0.13133,0.37212 -0.30061,0.65119 -0.50889,0.8372c-0.20827,0.17513 -0.45451,0.26265 -0.73871,0.26265c-0.2842,0 -0.50376,-0.10393 -0.65663,-0.3119c-0.15287,-0.20797 -0.22982,-0.48703 -0.22982,-0.8372c0,-0.37212 0.0277,-0.82078 0.08208,-1.34609c0.05438,-0.53625 0.10362,-1.07797 0.14774,-1.62515c0.05438,-0.55813 0.08208,-1.06155 0.08208,-1.51024c0,-1.53213 -0.50376,-2.2982 -1.51024,-2.2982c-0.53659,0 -0.98494,0.24077 -1.34609,0.72229c-0.36114,0.47059 -0.60225,1.14363 -0.72229,2.01913c-0.03283,0.29548 -0.04925,0.6621 -0.04925,1.09985c0,0.43775 0,0.8755 0,1.31325c0.01129,0.42681 0,0.78795 -0.03283,1.08343c-0.04412,0.65663 -0.16929,1.12724 -0.37756,1.41175c-0.19699,0.2845 -0.47092,0.42681 -0.82078,0.42681c-0.40526,0 -0.711,-0.18601 -0.91928,-0.55813c-0.20827,-0.383 -0.3119,-1.02321 -0.3119,-1.92063c0,-0.45964 0.01129,-0.97399 0.03283,-1.54307c0.02155,-0.56908 0.04925,-1.13815 0.08208,-1.70723c0.04412,-0.58002 0.09336,-1.10532 0.14774,-1.57591c0.10978,-0.88645 0.26778,-1.58685 0.47605,-2.10121c0.20827,-0.5253 0.52017,-0.78795 0.93569,-0.78795zM325.66698,184.57997c-1.02803,0 -1.86523,-0.39398 -2.5116,-1.18193c-0.64534,-0.79893 -0.96853,-2.00818 -0.96853,-3.62787c0,-1.72911 0.3119,-2.99312 0.93569,-3.79202c0.6238,-0.7989 1.44458,-1.19834 2.46235,-1.19834c0.60225,0 1.13268,0.15321 1.59232,0.45964c0.45964,0.30643 0.85362,0.73871 1.18193,1.29684l-0.13133,0.22982c-0.03283,-0.15321 -0.05951,-0.31737 -0.08208,-0.49247c-0.02155,-0.1751 -0.03283,-0.30643 -0.03283,-0.39398c0,-0.44869 0.07182,-0.79342 0.2134,-1.03419c0.1539,-0.2517 0.38885,-0.37756 0.70587,-0.37756c0.35089,0 0.6238,0.14227 0.82078,0.42681c0.20827,0.28454 0.3673,0.68946 0.47605,1.21476c0.14261,0.53625 0.26265,1.22023 0.36114,2.05196c0.09849,0.82078 0.14774,1.65252 0.14774,2.49518c0,1.0506 -0.03796,1.93161 -0.11491,2.64292c-0.07592,0.71131 -0.20212,1.30228 -0.37756,1.77289c-0.17442,0.47062 -0.40424,0.88101 -0.68946,1.23118c-0.4699,0.56911 -1.07728,1.00136 -1.82214,1.29684c-0.73255,0.30646 -1.58104,0.45964 -2.54443,0.45964c-0.68946,0 -1.24144,-0.06566 -1.65798,-0.19699c-0.41552,-0.12035 -0.71613,-0.29004 -0.90286,-0.50889c-0.17442,-0.20797 -0.26265,-0.44322 -0.26265,-0.70587c0,-0.27363 0.07695,-0.50345 0.22982,-0.68946c0.1539,-0.17513 0.38372,-0.26265 0.68946,-0.26265c0.27394,0 0.59096,0.04381 0.95211,0.13133c0.37243,0.08752 0.81052,0.13133 1.31325,0.13133c1.06189,0 1.81188,-0.25167 2.24895,-0.75512c0.44938,-0.49247 0.67304,-1.20378 0.67304,-2.13404c0,-0.25167 -0.01642,-0.54716 -0.04925,-0.88645l0.22982,0.08208c-0.27291,0.70044 -0.67817,1.26401 -1.21476,1.69081c-0.53556,0.41583 -1.15936,0.6238 -1.87139,0.6238zM326.29078,182.56085c0.35089,0 0.70074,-0.09306 1.0506,-0.27907c0.35089,-0.18601 0.64021,-0.49247 0.87003,-0.91928c0.22982,-0.42681 0.34473,-1.00136 0.34473,-1.72365c0,-0.86456 -0.20212,-1.57044 -0.60738,-2.11762c-0.40424,-0.54719 -0.97365,-0.82078 -1.70723,-0.82078c-0.63406,0 -1.09985,0.24077 -1.39533,0.72229c-0.29548,0.48152 -0.44322,1.20929 -0.44322,2.18329c0,0.93023 0.14774,1.65798 0.44322,2.18329c0.29548,0.51432 0.77769,0.77154 1.44458,0.77154zM340.22667,184.74413c-0.29548,0 -0.5253,-0.09849 -0.68946,-0.29548c-0.15287,-0.20797 -0.25649,-0.47062 -0.3119,-0.78795c-0.05438,-0.32831 -0.08208,-0.67304 -0.08208,-1.03419l0.08208,-0.06566c-0.10875,0.47062 -0.32216,0.87547 -0.64021,1.21476c-0.31703,0.33929 -0.6833,0.60194 -1.09985,0.78795c-0.41552,0.17513 -0.83104,0.26265 -1.24759,0.26265c-0.55813,0 -1.06702,-0.13133 -1.52666,-0.39398c-0.45964,-0.26265 -0.81463,-0.66761 -1.06702,-1.21476c-0.25137,-0.57999 -0.44835,-1.30782 -0.59096,-2.18329c-0.14159,-0.88645 -0.2134,-1.79478 -0.2134,-2.725c0,-0.50342 0.02257,-0.96853 0.06566,-1.39533c0.04412,-0.42681 0.11491,-0.77701 0.2134,-1.0506c0.08823,-0.28454 0.21956,-0.49247 0.39398,-0.6238c0.17544,-0.14227 0.40013,-0.2134 0.67304,-0.2134c0.31805,0 0.56429,0.12586 0.73871,0.37756c0.18673,0.24077 0.30164,0.58002 0.34473,1.01777c0.04412,0.36114 0.07182,0.80984 0.08208,1.34609c0.02257,0.5253 0.03899,1.05607 0.04925,1.59232c0.02257,0.5253 0.04925,0.96853 0.08208,1.32967c0.06566,0.65663 0.23598,1.14366 0.50889,1.461c0.27394,0.30646 0.60738,0.45964 1.00136,0.45964c0.5807,0 1.02393,-0.21884 1.32967,-0.65663c0.30677,-0.43775 0.45964,-1.0506 0.45964,-1.83856c0,-0.39398 -0.02155,-0.8372 -0.06566,-1.32967c-0.04309,-0.50342 -0.09234,-0.99041 -0.14774,-1.461c-0.04309,-0.47059 -0.06566,-0.85908 -0.06566,-1.16551c0,-0.51435 0.08823,-0.88098 0.26265,-1.09985c0.17544,-0.22982 0.41655,-0.34473 0.72229,-0.34473c0.26265,0 0.48221,0.07113 0.65663,0.2134c0.18673,0.14227 0.33447,0.33926 0.44322,0.59096c0.1539,0.32831 0.28522,0.77701 0.39398,1.34609c0.10978,0.56908 0.19699,1.21476 0.26265,1.93705c0.06566,0.72229 0.09849,1.48288 0.09849,2.28178c0,1.22574 -0.08208,2.14502 -0.24624,2.75783c-0.16416,0.60194 -0.45348,0.90286 -0.87003,0.90286zM345.01491,174.63207c0.34986,0 0.58481,0.14227 0.70587,0.42681c0.13133,0.28454 0.19699,0.70587 0.19699,1.26401c0,0.13133 -0.01129,0.2736 -0.03283,0.42681c-0.01129,0.14227 -0.03283,0.2736 -0.06566,0.39398l-0.03283,-0.32831c0.26265,-0.71134 0.66689,-1.26401 1.21476,-1.65798c0.54685,-0.40492 1.12653,-0.60738 1.74006,-0.60738c0.67817,0 1.24144,0.19152 1.69081,0.57455c0.45964,0.38303 0.79821,0.91928 1.01777,1.60874c0.22982,0.68946 0.34473,1.50477 0.34473,2.44594c0,0.58002 -0.0277,1.15457 -0.08208,1.72365c-0.04412,0.55813 -0.10978,1.07246 -0.19699,1.54307c-0.07695,0.45964 -0.16416,0.8372 -0.26265,1.13268c-0.13133,0.37212 -0.30164,0.65119 -0.50889,0.8372c-0.20827,0.17513 -0.45451,0.26265 -0.73871,0.26265c-0.28522,0 -0.50376,-0.10393 -0.65663,-0.3119c-0.1539,-0.20797 -0.22982,-0.48703 -0.22982,-0.8372c0,-0.37212 0.02668,-0.82078 0.08208,-1.34609c0.05438,-0.53625 0.10362,-1.07797 0.14774,-1.62515c0.05438,-0.55813 0.08208,-1.06155 0.08208,-1.51024c0,-1.53213 -0.50376,-2.2982 -1.51024,-2.2982c-0.53659,0 -0.98494,0.24077 -1.34609,0.72229c-0.36114,0.47059 -0.60225,1.14363 -0.72229,2.01913c-0.03283,0.29548 -0.04925,0.6621 -0.04925,1.09985c0,0.43775 0,0.8755 0,1.31325c0.01026,0.42681 0,0.78795 -0.03283,1.08343c-0.04412,0.65663 -0.17031,1.12724 -0.37756,1.41175c-0.19699,0.2845 -0.47092,0.42681 -0.82078,0.42681c-0.40526,0 -0.71203,-0.18601 -0.91928,-0.55813c-0.20827,-0.383 -0.3119,-1.02321 -0.3119,-1.92063c0,-0.45964 0.01026,-0.97399 0.03283,-1.54307c0.02155,-0.56908 0.04925,-1.13815 0.08208,-1.70723c0.04309,-0.58002 0.09234,-1.10532 0.14774,-1.57591c0.10875,-0.88645 0.26778,-1.58685 0.47605,-2.10121c0.20725,-0.5253 0.51915,-0.78795 0.93569,-0.78795zM359.37658,185.22019c-0.68946,0 -1.22502,-0.04381 -1.60874,-0.13133c-0.3714,-0.08752 -0.62893,-0.20797 -0.77154,-0.36114c-0.14159,-0.16416 -0.21853,-0.34473 -0.22982,-0.54172c0,-0.30646 0.18057,-0.56357 0.54172,-0.77154c0.37243,-0.20797 1.0506,-0.33929 2.03554,-0.39398l-0.26265,0.3119c-0.12004,-0.55813 -0.20725,-1.20932 -0.26265,-1.95347c-0.05438,-0.74417 -0.07592,-1.51571 -0.06566,-2.31461c0.01129,-0.7989 0.04925,-1.55949 0.11491,-2.28178c0.06566,-0.73324 0.15903,-1.35703 0.27907,-1.87139l1.42816,-0.09849c-0.24008,0.09849 -0.54172,0.18604 -0.90286,0.26265c-0.36114,0.06566 -0.73255,0.09849 -1.11627,0.09849c-0.69972,0 -1.21989,-0.07661 -1.55949,-0.22982c-0.32831,-0.15321 -0.49247,-0.36661 -0.49247,-0.64021c0,-0.48152 0.29035,-0.85362 0.87003,-1.11627c0.59096,-0.2736 1.49383,-0.41039 2.70859,-0.41039c1.44458,0 2.65934,0.24077 3.64428,0.72229c0.99623,0.47059 1.75135,1.13268 2.26536,1.9863c0.51504,0.84267 0.77154,1.82761 0.77154,2.95482c0,0.98494 -0.17442,1.89327 -0.5253,2.725c-0.34986,0.82078 -0.85362,1.53764 -1.51024,2.15045c-0.64534,0.60194 -1.42201,1.07246 -2.33103,1.41175c-0.89671,0.32831 -1.90422,0.49247 -3.02048,0.49247zM361.70761,182.69217c0.37243,0 0.76641,-0.14774 1.18193,-0.44322c0.42681,-0.30646 0.78795,-0.74965 1.08343,-1.32967c0.29548,-0.59096 0.44322,-1.31872 0.44322,-2.18329c0,-0.63474 -0.09234,-1.1874 -0.27907,-1.65798c-0.17442,-0.48152 -0.40424,-0.88098 -0.68946,-1.19834c-0.2842,-0.31737 -0.58481,-0.55266 -0.90286,-0.70587c-0.31703,-0.16416 -0.61764,-0.24624 -0.90286,-0.24624c-0.22982,0 -0.41039,0.14227 -0.54172,0.42681c-0.12004,0.28454 -0.20725,0.71134 -0.26265,1.28042c-0.05438,0.55813 -0.08208,1.25306 -0.08208,2.08479c0,1.29137 0.06566,2.27631 0.19699,2.95482c0.13133,0.67848 0.38372,1.01777 0.75512,1.01777zM375.74609,185.00678c-0.3714,0 -0.62893,-0.1423 -0.77154,-0.42681c-0.13133,-0.29548 -0.20725,-0.76056 -0.22982,-1.39533l0.16416,0.08208c-0.61251,1.19291 -1.77289,1.78931 -3.48012,1.78931c-0.77667,0 -1.42201,-0.13676 -1.93705,-0.41039c-0.51402,-0.2845 -0.89671,-0.65663 -1.1491,-1.11627c-0.24008,-0.47062 -0.36114,-0.9795 -0.36114,-1.52666c0,-0.94116 0.32831,-1.68535 0.98494,-2.23253c0.65663,-0.55813 1.52666,-0.8372 2.61009,-0.8372c0.71203,0 1.32967,0.10396 1.85497,0.3119c0.5253,0.20794 0.97468,0.49794 1.34609,0.87003l-0.27907,-0.03283c-0.07592,-1.10532 -0.31703,-1.89327 -0.72229,-2.36386c-0.39398,-0.48152 -0.95724,-0.72229 -1.69081,-0.72229c-0.42681,0 -0.82078,0.06566 -1.18193,0.19699c-0.36114,0.13133 -0.69459,0.26812 -1.00136,0.41039c-0.29548,0.13133 -0.57455,0.19699 -0.8372,0.19699c-0.26265,0 -0.4699,-0.08755 -0.6238,-0.26265c-0.14159,-0.1751 -0.2134,-0.39944 -0.2134,-0.67304c0,-0.39398 0.18673,-0.76607 0.55813,-1.11627c0.38372,-0.3502 0.88645,-0.63474 1.51024,-0.85362c0.6238,-0.21887 1.30299,-0.32831 2.03554,-0.32831c0.88645,0 1.64772,0.2134 2.28178,0.64021c0.63508,0.42681 1.11627,1.0506 1.44458,1.87139c0.28522,0.70041 0.48734,1.48288 0.60738,2.34744c0.12107,0.86456 0.18057,1.78931 0.18057,2.77425c0,0.74414 -0.03796,1.31869 -0.11491,1.72365c-0.07592,0.40495 -0.19699,0.68946 -0.36114,0.85362c-0.15287,0.15318 -0.36114,0.22982 -0.6238,0.22982zM372.11823,183.16823c0.36114,0 0.72845,-0.04925 1.09985,-0.14774c0.37243,-0.10947 0.68433,-0.26809 0.93569,-0.47605c0.25239,-0.20797 0.37756,-0.46508 0.37756,-0.77154c0,-0.26265 -0.10875,-0.47605 -0.32831,-0.64021c-0.20725,-0.1751 -0.48631,-0.30643 -0.8372,-0.39398c-0.33857,-0.08755 -0.70587,-0.13133 -1.09985,-0.13133c-0.66689,0 -1.17577,0.11491 -1.52666,0.34473c-0.33857,0.22982 -0.50889,0.53625 -0.50889,0.91928c0,0.41583 0.15903,0.73871 0.47605,0.96853c0.32831,0.21884 0.79924,0.32831 1.41175,0.32831zM381.12633,174.96039h-0.32831c-0.03283,-0.48152 -0.02257,-0.93569 0.03283,-1.3625c0.05438,-0.43775 0.16929,-0.78795 0.34473,-1.0506c0.1857,-0.27359 0.44835,-0.41039 0.78795,-0.41039c0.30574,0 0.53043,0.09849 0.67304,0.29548c0.14159,0.19699 0.2134,0.47059 0.2134,0.82078c0,0.68946 -0.13133,1.28042 -0.39398,1.77289l-0.29548,-0.03283c0.59096,-0.20794 1.25785,-0.3119 2.00271,-0.3119c0.4699,0 0.84233,0.09303 1.11627,0.27907c0.2842,0.1751 0.42681,0.47605 0.42681,0.90286c0,0.40492 -0.16416,0.71134 -0.49247,0.91928c-0.32831,0.20794 -0.73871,0.3119 -1.23118,0.3119c-0.29548,0 -0.61354,-0.01095 -0.95211,-0.03283c-0.32831,-0.03283 -0.6515,-0.08208 -0.96853,-0.14774l0.27907,-0.34473c0.09849,0.41586 0.19083,0.89192 0.27907,1.42816c0.09849,0.5253 0.1857,1.07249 0.26265,1.64157c0.07592,0.56908 0.13646,1.12173 0.18057,1.65798c0.04309,0.53628 0.06566,1.01777 0.06566,1.44458c0,0.70044 -0.10978,1.25303 -0.32831,1.65798c-0.21956,0.40495 -0.54172,0.60738 -0.96853,0.60738c-0.3396,0 -0.60738,-0.10393 -0.80437,-0.3119c-0.18673,-0.20797 -0.32318,-0.47062 -0.41039,-0.78795c-0.07695,-0.32831 -0.1262,-0.66761 -0.14774,-1.01777c-0.01129,-0.35017 -0.01642,-0.66761 -0.01642,-0.95211c0,-0.48152 0.02155,-1.02324 0.06566,-1.62515c0.04309,-0.61285 0.10362,-1.24212 0.18057,-1.8878c0.08721,-0.64568 0.1857,-1.26948 0.29548,-1.87139l0.32831,0.27907c-0.55813,0.28454 -1.24759,0.42681 -2.06838,0.42681c-0.50376,0 -0.8926,-0.09303 -1.16551,-0.27907c-0.27394,-0.18604 -0.41039,-0.47605 -0.41039,-0.87003c0,-0.42681 0.15287,-0.75512 0.45964,-0.98494c0.30574,-0.24077 0.71613,-0.36114 1.23118,-0.36114c0.33857,0 0.65663,0.02188 0.95211,0.06566c0.30574,0.03283 0.57455,0.07661 0.80437,0.13133zM394.21373,185.00678c-0.3714,0 -0.62893,-0.1423 -0.77154,-0.42681c-0.13133,-0.29548 -0.20725,-0.76056 -0.22982,-1.39533l0.16416,0.08208c-0.61251,1.19291 -1.77289,1.78931 -3.48012,1.78931c-0.77667,0 -1.42201,-0.13676 -1.93705,-0.41039c-0.51402,-0.2845 -0.89671,-0.65663 -1.1491,-1.11627c-0.24008,-0.47062 -0.36114,-0.9795 -0.36114,-1.52666c0,-0.94116 0.32831,-1.68535 0.98494,-2.23253c0.65663,-0.55813 1.52666,-0.8372 2.61009,-0.8372c0.71203,0 1.32967,0.10396 1.85497,0.3119c0.5253,0.20794 0.97468,0.49794 1.34609,0.87003l-0.27907,-0.03283c-0.07592,-1.10532 -0.31703,-1.89327 -0.72229,-2.36386c-0.39398,-0.48152 -0.95724,-0.72229 -1.69081,-0.72229c-0.42681,0 -0.82078,0.06566 -1.18193,0.19699c-0.36114,0.13133 -0.69459,0.26812 -1.00136,0.41039c-0.29548,0.13133 -0.57455,0.19699 -0.8372,0.19699c-0.26265,0 -0.4699,-0.08755 -0.6238,-0.26265c-0.14159,-0.1751 -0.2134,-0.39944 -0.2134,-0.67304c0,-0.39398 0.18673,-0.76607 0.55813,-1.11627c0.38372,-0.3502 0.88645,-0.63474 1.51024,-0.85362c0.6238,-0.21887 1.30299,-0.32831 2.03554,-0.32831c0.88645,0 1.64772,0.2134 2.28178,0.64021c0.63508,0.42681 1.11627,1.0506 1.44458,1.87139c0.28522,0.70041 0.48734,1.48288 0.60738,2.34744c0.12107,0.86456 0.18057,1.78931 0.18057,2.77425c0,0.74414 -0.03796,1.31869 -0.11491,1.72365c-0.07592,0.40495 -0.19699,0.68946 -0.36114,0.85362c-0.15287,0.15318 -0.36114,0.22982 -0.6238,0.22982zM390.58587,183.16823c0.36114,0 0.72845,-0.04925 1.09985,-0.14774c0.37243,-0.10947 0.68433,-0.26809 0.93569,-0.47605c0.25239,-0.20797 0.37756,-0.46508 0.37756,-0.77154c0,-0.26265 -0.10875,-0.47605 -0.32831,-0.64021c-0.20725,-0.1751 -0.48631,-0.30643 -0.8372,-0.39398c-0.33857,-0.08755 -0.70587,-0.13133 -1.09985,-0.13133c-0.66689,0 -1.17577,0.11491 -1.52666,0.34473c-0.33857,0.22982 -0.50889,0.53625 -0.50889,0.91928c0,0.41583 0.15903,0.73871 0.47605,0.96853c0.32831,0.21884 0.79924,0.32831 1.41175,0.32831zM397.31629,177.43915c0,-1.0506 0.09849,-1.80572 0.29548,-2.26536c0.19699,-0.47059 0.47605,-0.70587 0.8372,-0.70587c0.2842,0 0.50889,0.12038 0.67304,0.36114c0.16416,0.22982 0.2842,0.51983 0.36114,0.87003c0.07695,0.33926 0.11491,0.68399 0.11491,1.03419l-0.08208,-0.03283c0.1857,-0.59096 0.47092,-1.09985 0.85362,-1.52666c0.39398,-0.42681 0.8649,-0.64021 1.41175,-0.64021c0.64534,0 1.1214,0.26812 1.42816,0.80437c0.30677,0.5253 0.45964,1.18193 0.45964,1.96988c0,1.0506 -0.12004,1.78384 -0.36114,2.1997c-0.24111,0.41586 -0.56326,0.6238 -0.96853,0.6238c-0.29548,0 -0.51402,-0.12038 -0.65663,-0.36114c-0.13133,-0.24077 -0.17544,-0.66757 -0.13133,-1.28042c0.04412,-0.64568 0.00513,-1.09438 -0.11491,-1.34609c-0.12004,-0.2517 -0.3119,-0.37756 -0.57455,-0.37756c-0.31703,0 -0.57968,0.20246 -0.78795,0.60738c-0.19699,0.39398 -0.29548,0.88098 -0.29548,1.461c0,0.22982 0.0277,0.51983 0.08208,0.87003c0.05438,0.3502 0.11491,0.73324 0.18057,1.1491c0.06566,0.40492 0.1262,0.80984 0.18057,1.21476c0.05438,0.40495 0.08208,0.77697 0.08208,1.11627c0,0.60194 -0.09336,1.03419 -0.27907,1.29684c-0.1857,0.26265 -0.44835,0.39398 -0.78795,0.39398c-0.38269,0 -0.67817,-0.12035 -0.88645,-0.36114c-0.20827,-0.25167 -0.36627,-0.65663 -0.47605,-1.21476c-0.08721,-0.50345 -0.17544,-1.09985 -0.26265,-1.78931c-0.08721,-0.68946 -0.15903,-1.39533 -0.2134,-2.11762c-0.05438,-0.72229 -0.08208,-1.37345 -0.08208,-1.95347z"/></g></g></svg>