<svg version="1.1" xmlns="http://www.w3.org/2000/svg" xmlns:xlink="http://www.w3.org/1999/xlink" width="34.35726" height="48.11989" viewBox="0,0,34.35726,48.11989"><defs><linearGradient x1="255.86432" y1="184.80079" x2="223.97586" y2="171.87387" gradientUnits="userSpaceOnUse" id="color-1"><stop offset="0" stop-color="#79b9c5"/><stop offset="1" stop-color="#7cbcc8"/></linearGradient><linearGradient x1="255.86432" y1="202.66987" x2="223.09436" y2="159.10933" gradientUnits="userSpaceOnUse" id="color-2"><stop offset="0" stop-color="#000000" stop-opacity="0.2"/><stop offset="0.33854" stop-color="#000000" stop-opacity="0"/><stop offset="0.63021" stop-color="#ffffff" stop-opacity="0"/><stop offset="1" stop-color="#ffffff" stop-opacity="0.3"/></linearGradient><clipPath id="clip-1"><path d="M231.74378,193.31326v-18.2779h17.82159v18.2779z" fill="none"/></clipPath><linearGradient x1="224.62537" y1="177.86958" x2="224.21567" y2="177.86958" gradientUnits="userSpaceOnUse" id="color-3"><stop offset="0" stop-color="#7cbcc8" stop-opacity="0"/><stop offset="0.61458" stop-color="#155662"/></linearGradient><linearGradient x1="255.45445" y1="177.86958" x2="255.86432" y2="177.86958" gradientUnits="userSpaceOnUse" id="color-4"><stop offset="0" stop-color="#7cbcc8" stop-opacity="0"/><stop offset="0.61458" stop-color="#155662"/></linearGradient><linearGradient x1="227.1859" y1="177.75851" x2="225.5984" y2="177.75851" gradientUnits="userSpaceOnUse" id="color-5"><stop offset="0" stop-color="#7cbcc8" stop-opacity="0"/><stop offset="0.35417" stop-color="#186d7d" stop-opacity="0.6"/><stop offset="0.64063" stop-color="#186d7d" stop-opacity="0.6"/><stop offset="1" stop-color="#7cbcc8" stop-opacity="0"/></linearGradient><linearGradient x1="224.62539" y1="177.86958" x2="224.2157" y2="177.86958" gradientUnits="userSpaceOnUse" id="color-6"><stop offset="0" stop-color="#7cbcc8" stop-opacity="0"/><stop offset="0.61458" stop-color="#155662"/></linearGradient><linearGradient x1="255.45447" y1="177.86958" x2="255.86432" y2="177.86958" gradientUnits="userSpaceOnUse" id="color-7"><stop offset="0" stop-color="#7cbcc8" stop-opacity="0"/><stop offset="0.61458" stop-color="#155662"/></linearGradient></defs><g transform="translate(-222.78278,-155.94004)"><g data-paper-data="{&quot;isPaintingLayer&quot;:true}" fill-rule="nonzero" stroke-linejoin="miter" stroke-miterlimit="10" stroke-dasharray="" stroke-dashoffset="0" style="mix-blend-mode: normal"><path d="M224.21567,202.66987v-44.98762h31.64863v44.98762z" fill="url(#color-1)" stroke="none" stroke-width="1" stroke-linecap="butt"/><path d="M224.21567,202.66987v-44.98762h31.64863v44.98762z" fill="url(#color-2)" stroke="none" stroke-width="1" stroke-linecap="butt"/><g clip-path="url(#clip-1)" stroke="none" stroke-width="1" stroke-linecap="butt" opacity="0.8"><path d="M247.57,191.19312c0,0 0.01345,-0.30019 0.29275,-0.26584z" fill="#3f3d56"/><path d="M247.35161,190.7596c0,-0.08098 0.06251,-0.14723 0.13926,-0.14723c0.07754,0 0.14004,0.06625 0.14004,0.14723c0,0.0818 -0.0625,0.14724 -0.14004,0.14724c-0.07674,0 -0.13926,-0.06543 -0.13926,-0.14724z" fill="#ffffff"/><path d="M247.50829,191.29863h-0.03956v-0.29037h0.03956z" fill="#3f3d56"/><path d="M238.08125,182.35182c0,0.07362 -0.0023,0.14642 -0.0068,0.21922c-0.0254,0.41798 -0.12557,0.82613 -0.29512,1.20484c-0.00134,0.00327 -0.00294,0.00654 -0.00419,0.009c-0.00791,0.018 -0.01598,0.03516 -0.02437,0.05236c-0.0504,0.10716 -0.10634,0.21104 -0.16759,0.31164c-0.27969,0.46214 -0.66304,0.84413 -1.11608,1.11323c-0.45313,0.26828 -0.96204,0.41552 -1.48188,0.4278l0.03134,1.89847l0.40866,-0.22658l0.07296,0.14559l-0.47854,0.26583l0.05849,3.52622l0.00071,0.04663l-0.31601,0.07444l0.00063,-0.04745l0.09953,-5.68316c-0.41841,-0.00654 -0.83141,-0.10061 -1.21515,-0.27648c-0.38366,-0.17587 -0.73037,-0.43024 -1.01995,-0.74843c-0.01994,-0.02125 -0.03965,-0.04417 -0.05895,-0.06626c-0.00088,-0.00082 -0.0015,-0.00164 -0.00213,-0.00245c-0.24132,-0.2773 -0.43644,-0.59548 -0.57719,-0.94065c0.00308,0.00327 0.00633,0.00654 0.00942,0.01064c-0.31814,-0.78361 -0.33967,-1.66619 -0.06029,-2.46615c0.27938,-0.79995 0.8386,-1.45677 1.56304,-1.83713c0.01092,-0.00572 0.02216,-0.01064 0.03307,-0.01636c0.7166,-0.36399 1.53679,-0.43106 2.29786,-0.18731c0.76106,0.24375 1.40756,0.77951 1.81139,1.50095c0.01922,0.03435 0.0379,0.06952 0.05587,0.1047c0.25081,0.48669 0.38192,1.03228 0.38129,1.58683z" fill="#e5e5e5"/><path d="M233.50147,179.41127c0,-2.41674 1.85943,-4.3759 4.15326,-4.3759c2.2935,0 4.15284,1.95918 4.15284,4.3759c0,2.41625 -1.85934,4.37606 -4.15284,4.37606c-2.29381,0 -4.15326,-1.95981 -4.15326,-4.37606z" fill="#ffffff"/><path d="M234.58805,176.48847c-0.90167,2.22263 0.07722,4.79429 2.18652,5.74393c0.80023,0.36072 1.68774,0.44742 2.53751,0.24702c0.84897,-0.19957 1.61725,-0.67481 2.19642,-1.35944c-0.9012,2.22238 -3.34242,3.25384 -5.45171,2.30336c-2.10937,-0.94965 -3.08843,-3.52131 -2.18685,-5.74369c0.17668,-0.43532 0.41918,-0.83767 0.7181,-1.19118z" fill="#000000" opacity="0.2"/><path d="M237.87941,191.60128l-0.42417,-0.12516l0.00088,-0.04826l0.12706,-7.27899l0.00632,-0.36236l0.00023,-0.01063l0.02217,-1.27192l0.0322,-1.84285v-0.00082l0.02192,-1.24901h0.01164l0.0223,1.35371l0.02911,1.76188l0.02081,1.24985v0.00899l0.00095,0.05154v0l0.04028,2.4375l0.00418,0.24213l0.08324,5.03616z" fill="#3f3d56"/><path d="M238.42236,186.1684l-0.68653,0.38117l-0.09566,-0.19141l0.68654,-0.38116z" fill="#3f3d56"/><path d="M237.57329,192.52803h-1.95833v-0.04581h1.95833z" fill="#cbcbcb"/><path d="M241.16669,193.31326h-1.95826v-0.0458h1.95826z" fill="#cbcbcb"/><path d="M246.75426,192.71288h-1.95826v-0.04581h1.95826z" fill="#cbcbcb"/><path d="M245.86017,190.78823v-1.34308c0,0 0.49688,0.9521 0,1.34308z" fill="#f1f1f1"/><path d="M245.89103,190.78823l-0.93918,-0.90875c0,0 1.00169,0.25846 0.93918,0.90875z" fill="#f1f1f1"/><path d="M236.1529,191.11132v-1.34309c0,0 0.4968,0.95211 0,1.34309z" fill="#f1f1f1"/><path d="M236.18361,191.11132l-0.93902,-0.90875c0,0 1.00168,0.25848 0.93902,0.90875z" fill="#f1f1f1"/><path d="M239.52727,192.08142v-1.67028c0,0 0.61795,1.18358 0,1.67028z" fill="#f1f1f1"/><path d="M239.56526,192.0806l-1.16735,-1.1296c0,0 1.2457,0.32145 1.16735,1.1296z" fill="#f1f1f1"/><path d="M249.56544,191.87692l-0.01188,0.04417l-3.67757,-1.10342l-2.77084,0.64374l-3.54306,0.63718l-0.00475,-0.00082l-1.67794,-0.49651l-0.42416,-0.12516l-1.29569,-0.38362l-1.08073,0.25356l-0.31601,0.07444l-0.68695,0.16114l-0.00942,-0.04499l0.69707,-0.16359l0.31466,-0.07362l1.08261,-0.25437l0.0053,0.00164l1.29,0.38117l0.42242,0.12516l1.68592,0.49813l3.53198,-0.63555l2.78034,-0.64536l0.00554,0.00164z" fill="#cbcbcb"/><path d="M242.98568,177.83891c0.06489,0.0512 0.11393,0.12074 0.14243,0.20031l-0.56097,-0.21454c0,0 0.18514,-0.09751 0.35525,-0.02307c0.03641,-0.09905 0.1258,-0.2242 0.34417,-0.19892z" fill="#3f3d56"/><path d="M232.68707,177.74656c0.06449,0.0512 0.11378,0.12074 0.14202,0.20031l-0.56097,-0.21454c0,0 0.18532,-0.09751 0.35542,-0.02307c0.03663,-0.09905 0.12611,-0.2242 0.34393,-0.19893z" fill="#3f3d56"/><path d="M242.3725,182.24876c0.06409,0.05072 0.11394,0.12025 0.14163,0.2004l-0.56097,-0.21512c0,0 0.18514,-0.09734 0.35606,-0.02291c0.03641,-0.09897 0.1258,-0.22412 0.34339,-0.19877z" fill="#3f3d56"/><path d="M240.77503,191.53912l0.31648,0.1235l-0.40905,0.83105l-0.21442,-0.08425z" fill="#ffb7b7"/><path d="M240.43956,192.31454l0.4217,0.16524v0c0.072,0.02781 0.12975,0.08425 0.16141,0.15787c0.03166,0.0728 0.03482,0.15541 0.00791,0.23067l-0.00316,0.009l-0.69072,-0.26993z" fill="#2f2e41"/><path d="M242.57663,191.71498h0.33785l-0.10918,0.9292h-0.22787z" fill="#ffb7b7"/><path d="M242.53707,192.56564h0.45021v0c0.07674,0 0.14953,0.03189 0.20334,0.08835c0.05381,0.05644 0.08387,0.13332 0.08387,0.21348v0.00981h-0.73741z" fill="#2f2e41"/><path d="M241.53064,186.20113l0.07438,-0.15705l0.63377,0.33455l-0.0182,0.13741l0.12107,0.16687c0,0 0.20494,0.11779 0.16775,0.51042l-0.0372,0.3738l-0.04668,0.48096l0.32598,1.18851l0.16773,1.57129l0.12185,1.26701l-0.58787,-0.02945l-0.54039,-2.06206l-0.95104,2.21994l-0.65275,-0.17749l0.89485,-2.19948l0.11236,-0.92347c0,0 -0.07436,-0.4916 0.27931,-0.82532l-0.0554,-0.17668v-0.21757l-0.18673,-1.03963z" fill="#2f2e41"/><path d="M241.92308,189.98009l-0.02057,0.00572l-0.41064,-1.53203l0.02137,-0.00572z" fill="#000000" opacity="0.2"/><path d="M241.54884,188.04806h0.91385v0.09816h-0.91385z" fill="#3f3d56"/><path d="M242.42551,188.10697c0,-0.05398 0.01661,-0.09816 0.03718,-0.09816c0.02056,0 0.03719,0.04417 0.03719,0.09816c0,0.05398 -0.01662,0.09816 -0.03719,0.09816c-0.02056,0 -0.03718,-0.04417 -0.03718,-0.09816z" fill="#3f3d56"/><path d="M241.81231,185.94756c-0.24053,-0.13905 -0.32915,-0.45723 -0.1978,-0.7108c0.13214,-0.25356 0.43358,-0.34681 0.6749,-0.20859c0.24053,0.13905 0.32916,0.45723 0.1978,0.71081c-0.13214,0.25356 -0.43438,0.34681 -0.67491,0.20858z" fill="#ffb7b7"/><path d="M240.8502,184.83759c0,-0.25601 0.19702,-0.46297 0.43992,-0.46297c0.2429,0 0.4399,0.20694 0.4399,0.46297c0,0.25601 -0.19701,0.46378 -0.4399,0.46378c-0.2429,0 -0.43992,-0.20777 -0.43992,-0.46378z" fill="#2f2e41"/><path d="M240.73231,184.78852c-0.01345,0.11534 0.01425,0.23148 0.07834,0.32636c0.06409,0.09488 0.15902,0.16032 0.26742,0.18404c0.10761,0.02454 0.22075,0.00492 0.31569,-0.0548c0.09495,-0.05971 0.16457,-0.1546 0.19622,-0.26583c-0.00791,0.06298 -0.02769,0.12432 -0.05854,0.17996c-0.03166,0.0548 -0.07279,0.10224 -0.12263,0.13906c-0.04906,0.03764 -0.10603,0.06381 -0.16537,0.07689c-0.05934,0.01308 -0.12107,0.01308 -0.18041,-0.00082c-0.05934,-0.01308 -0.11551,-0.03925 -0.16536,-0.07607c-0.04906,-0.03764 -0.09098,-0.08508 -0.12184,-0.13988c-0.03085,-0.0548 -0.05065,-0.11614 -0.05855,-0.17995c-0.00712,-0.06381 -0.00237,-0.12761 0.01504,-0.18895z" fill="#2f2e41"/><path d="M242.46902,185.34227c0.01345,0.12025 -0.01189,0.2413 -0.07043,0.34436c-0.05934,0.10306 -0.14875,0.18323 -0.25556,0.22739c-0.10602,0.04416 -0.22313,0.04989 -0.3331,0.01717c-0.10997,-0.03355 -0.2065,-0.10388 -0.27454,-0.2004c-0.06805,-0.09734 -0.10445,-0.21512 -0.10208,-0.33537c0.00159,-0.12025 0.04114,-0.23721 0.11235,-0.33128c0.07121,-0.09488 0.16932,-0.16196 0.28009,-0.1914c0.11157,-0.02863 0.22867,-0.01882 0.33311,0.02863c0.08703,-0.07362 0.19464,-0.05072 0.28247,0.02699c0.09891,0.08834 0.12818,0.14887 0.20492,0.29365c-0.07595,0.01063 -0.10127,0.1096 -0.17724,0.12023z" fill="#2f2e41"/><path d="M240.64211,186.91766c-0.00159,-0.05889 0.00949,-0.11696 0.03401,-0.16932l0.25635,-0.55948c0.01029,-0.02208 0.02533,-0.04008 0.0443,-0.05236c0.01899,-0.01308 0.04115,-0.01964 0.06409,-0.01964h0.53486c0.00633,0 0.01266,0.00164 0.01821,0.00409c0.00554,0.00245 0.01028,0.00573 0.01424,0.01064c0.00475,0.00409 0.00792,0.00981 0.0095,0.01554c0.00237,0.00572 0.00394,0.01228 0.00315,0.01882l-0.04588,1.92301c-0.0008,0.02454 -0.01028,0.04662 -0.02612,0.06381c-0.01662,0.01718 -0.03797,0.027 -0.06092,0.027l-0.4146,0.00817c-0.01741,0 -0.034,-0.0049 -0.04824,-0.01389c-0.01424,-0.009 -0.02612,-0.02291 -0.03324,-0.03845c-0.00554,-0.01228 -0.01109,-0.02534 -0.0182,-0.04007v0c-0.09495,-0.20612 -0.3149,-0.68544 -0.3149,-0.70181c0,-0.01555 -0.01108,-0.32146 -0.01662,-0.47605z" fill="#ffffff"/><path d="M241.55358,187.90247c0.10048,-0.06543 0.19148,-0.14723 0.26902,-0.2413c0.1796,-0.21348 0.2888,-0.4826 0.31174,-0.76724c0.01899,-0.23557 -0.02294,-0.40899 -0.12501,-0.51367c-0.11157,-0.11451 -0.26347,-0.11451 -0.30067,-0.11287l-0.12184,0.10879l-0.03797,-0.04744l0.1353,-0.12187l0.0095,-0.00082c0.00871,-0.00082 0.20888,-0.02289 0.35684,0.12843c0.11552,0.11942 0.16378,0.30918 0.14321,0.56438c-0.02373,0.29937 -0.13926,0.58156 -0.32835,0.80568c-0.0807,0.09979 -0.17644,0.18486 -0.28326,0.25276z" fill="#ffffff"/><path d="M241.5346,187.38307l-0.00396,0.02045l-0.72475,-0.15705l0.00396,-0.02045z" fill="#3f3d56"/><path d="M241.30752,186.1177l-0.04747,1.21548l-0.01899,-0.00082l0.04668,-1.21548z" fill="#3f3d56"/><path d="M240.64211,186.91766c-0.0008,-0.03026 0.00158,-0.05971 0.00712,-0.08834c0.03797,0.0139 0.07201,0.03844 0.09731,0.07034c0.02611,0.03272 0.04353,0.07198 0.04986,0.1137l0.17723,1.08216c-0.09495,-0.20612 -0.3149,-0.68543 -0.3149,-0.7018c0,-0.01555 -0.01108,-0.32146 -0.01662,-0.47605z" fill="#3f3d56"/><path d="M241.73003,189.18667c-0.01582,-0.02125 -0.02689,-0.04581 -0.03243,-0.07279c-0.00554,-0.02617 -0.00633,-0.05316 -0.0008,-0.07934c0.00554,-0.02617 0.01662,-0.05155 0.03166,-0.0728c0.01582,-0.02125 0.03561,-0.03844 0.05856,-0.05154l-0.03641,-0.4188l0.23658,-0.08506l0.04272,0.5922c0.01741,0.04171 0.01977,0.08833 0.00711,0.13169c-0.01345,0.04336 -0.04113,0.08017 -0.07833,0.10307c-0.03641,0.02291 -0.0807,0.03108 -0.12264,0.02208c-0.04272,-0.00818 -0.07993,-0.03272 -0.10603,-0.06871z" fill="#ffb7b7"/><path d="M241.57495,186.65591c-0.00475,-0.06381 0.01107,-0.12677 0.0443,-0.17995c0.03323,-0.05316 0.08308,-0.09325 0.14004,-0.11371c0.05065,-0.018 0.10522,-0.018 0.15587,0c0.0546,0.01964 0.10128,0.05644 0.13452,0.10552c0.03323,0.04908 0.05063,0.10797 0.05063,0.16769l0.01741,2.12915l-0.41856,0.01635z" fill="#cbcbcb"/></g><path d="M233.41506,168.95663v-2.32299h0.95263c0.10341,0 0.19836,0.02176 0.28484,0.06543c0.08648,0.04359 0.16141,0.10248 0.22471,0.17668c0.06544,0.07411 0.11607,0.15705 0.15191,0.24866c0.03583,0.09162 0.0538,0.18534 0.0538,0.28138c0,0.13087 -0.02951,0.25521 -0.08861,0.37299c-0.05911,0.11779 -0.14029,0.21374 -0.2437,0.28792c-0.10341,0.07411 -0.22574,0.11124 -0.36713,0.11124h-0.53169v0.77868zM233.85181,167.78204h0.50637c0.05277,0 0.10025,-0.01529 0.14243,-0.0458c0.04217,-0.03059 0.07595,-0.07418 0.10127,-0.13087c0.02532,-0.05889 0.03797,-0.12548 0.03797,-0.19957c0,-0.08072 -0.01479,-0.14944 -0.0443,-0.20611c-0.02746,-0.05677 -0.06432,-0.0993 -0.11077,-0.1276c-0.0443,-0.02839 -0.09281,-0.04254 -0.14558,-0.04254h-0.48739zM235.94734,168.98935c-0.14139,0 -0.27646,-0.02405 -0.40512,-0.07198c-0.12873,-0.04801 -0.23951,-0.11893 -0.33231,-0.21267l0.15192,-0.28466c0.09913,0.08287 0.19623,0.14397 0.29117,0.18323c0.097,0.03925 0.18989,0.05889 0.2785,0.05889c0.08229,0 0.14765,-0.01529 0.19622,-0.04581c0.05065,-0.03059 0.07595,-0.0764 0.07595,-0.13741c0,-0.04146 -0.01377,-0.07313 -0.04115,-0.09489c-0.02746,-0.02405 -0.06757,-0.04475 -0.12026,-0.06217c-0.05065,-0.01751 -0.11291,-0.03713 -0.18673,-0.05889c-0.1224,-0.04146 -0.22468,-0.0818 -0.307,-0.12107c-0.08229,-0.03925 -0.14455,-0.08835 -0.18672,-0.14724c-0.04011,-0.06111 -0.06013,-0.13856 -0.06013,-0.23229c0,-0.11345 0.02737,-0.21054 0.08228,-0.29119c0.05696,-0.08294 0.13498,-0.14724 0.23421,-0.19305c0.10127,-0.0458 0.21938,-0.06871 0.35446,-0.06871c0.11813,0 0.22993,0.01964 0.33548,0.05889c0.10547,0.03705 0.20145,0.09816 0.28799,0.18324l-0.1709,0.2781c-0.08443,-0.06765 -0.16457,-0.11673 -0.24054,-0.14723c-0.07595,-0.03272 -0.15301,-0.04908 -0.23103,-0.04908c-0.0443,0 -0.08656,0.00539 -0.12659,0.01635c-0.03797,0.01088 -0.06962,0.02945 -0.09495,0.05562c-0.02327,0.02396 -0.03481,0.05889 -0.03481,0.1047c0,0.04138 0.01053,0.07411 0.03166,0.09816c0.02318,0.02176 0.05697,0.04138 0.10127,0.05889c0.04637,0.01743 0.1023,0.03706 0.16774,0.0589c0.13292,0.03925 0.24473,0.07959 0.33549,0.12105c0.09282,0.04138 0.16242,0.09267 0.20887,0.15378c0.04637,0.05889 0.06963,0.1407 0.06963,0.2454c0,0.17013 -0.06014,0.30314 -0.1804,0.39916c-0.12027,0.09595 -0.28167,0.14397 -0.48424,0.14397zM236.90037,168.95663v-1.71443h0.42409v1.71443zM236.90037,167.00334v-0.43515h0.42409v0.43515zM238.83972,168.95663l-0.48383,-0.73943l-0.22471,0.22903v0.5104h-0.42409v-2.38842h0.42409v1.44614l0.6674,-0.76887h0.4494l-0.61715,0.72635l0.66146,0.98483zM240.15155,168.98935c-0.1353,0 -0.25634,-0.02291 -0.36395,-0.06871c-0.10761,-0.04801 -0.19938,-0.11345 -0.27534,-0.1963c-0.07438,-0.08294 -0.13134,-0.17781 -0.1709,-0.28465c-0.04035,-0.1069 -0.06013,-0.21922 -0.06013,-0.337c0,-0.11999 0.01978,-0.23344 0.06013,-0.34027c0.03956,-0.1069 0.09652,-0.20179 0.1709,-0.28466c0.07595,-0.08294 0.16774,-0.14724 0.27534,-0.19304c0.10761,-0.04801 0.22865,-0.07197 0.36395,-0.07197c0.1345,0 0.25479,0.02396 0.36081,0.07197c0.10761,0.0458 0.19938,0.11009 0.27534,0.19304c0.07595,0.08287 0.13291,0.17775 0.17089,0.28466c0.03956,0.10682 0.06014,0.22028 0.06014,0.34027c0,0.11779 -0.02058,0.23009 -0.06014,0.337c-0.03797,0.10682 -0.09494,0.2017 -0.17089,0.28465c-0.07438,0.08287 -0.16457,0.1483 -0.27218,0.1963c-0.10761,0.0458 -0.22947,0.06871 -0.36397,0.06871zM239.71797,168.10268c0,0.10028 0.01898,0.18977 0.05696,0.26828c0.03797,0.07631 0.08942,0.13627 0.15508,0.17996c0.06489,0.04359 0.13926,0.06543 0.22154,0.06543c0.07991,0 0.15271,-0.02184 0.21837,-0.06543c0.06489,-0.0458 0.11711,-0.1069 0.15508,-0.18322c0.03956,-0.07852 0.06013,-0.16801 0.06013,-0.26828c0,-0.09816 -0.02056,-0.18651 -0.06013,-0.26502c-0.03797,-0.07852 -0.09019,-0.13962 -0.15508,-0.18322c-0.06566,-0.04368 -0.13846,-0.06543 -0.21837,-0.06543c-0.08229,0 -0.15667,0.02291 -0.22154,0.06871c-0.06566,0.04359 -0.11711,0.10469 -0.15508,0.18322c-0.03797,0.07631 -0.05696,0.16465 -0.05696,0.26501zM241.30119,166.5682h0.42409v1.83877c0,0.07852 0.01265,0.13193 0.03797,0.16032c0.02532,0.02617 0.06013,0.03925 0.10443,0.03925c0.03401,0 0.06883,-0.00442 0.10443,-0.01309c0.03641,-0.00875 0.06805,-0.01964 0.09495,-0.03272l0.05697,0.33373c-0.05696,0.0283 -0.12343,0.05014 -0.19938,0.06543c-0.07595,0.01522 -0.14399,0.02291 -0.20571,0.02291c-0.13292,0 -0.23578,-0.03599 -0.31016,-0.10797c-0.07121,-0.07418 -0.10761,-0.17888 -0.10761,-0.31409zM243.0751,168.98935c-0.1353,0 -0.25635,-0.02291 -0.36397,-0.06871c-0.10761,-0.04801 -0.19939,-0.11345 -0.27535,-0.1963c-0.07358,-0.08294 -0.13056,-0.17781 -0.17091,-0.28465c-0.04035,-0.1069 -0.06013,-0.21922 -0.06013,-0.337c0,-0.11999 0.01978,-0.23344 0.06013,-0.34027c0.04035,-0.1069 0.09731,-0.20179 0.17091,-0.28466c0.07595,-0.08294 0.16773,-0.14724 0.27535,-0.19304c0.10761,-0.04801 0.22867,-0.07197 0.36397,-0.07197c0.1353,0 0.25556,0.02396 0.3608,0.07197c0.10761,0.0458 0.19938,0.11009 0.27534,0.19304c0.07595,0.08287 0.13292,0.17775 0.1709,0.28466c0.04035,0.10682 0.06012,0.22028 0.06012,0.34027c0,0.11779 -0.01978,0.23009 -0.06012,0.337c-0.03797,0.10682 -0.09495,0.2017 -0.1709,0.28465c-0.07358,0.08287 -0.16457,0.1483 -0.27218,0.1963c-0.10761,0.0458 -0.22866,0.06871 -0.36396,0.06871zM242.64151,168.10268c0,0.10028 0.019,0.18977 0.05697,0.26828c0.03797,0.07631 0.08942,0.13627 0.15508,0.17996c0.06566,0.04359 0.13926,0.06543 0.22154,0.06543c0.07991,0 0.15271,-0.02184 0.21837,-0.06543c0.06566,-0.0458 0.11711,-0.1069 0.15508,-0.18322c0.04035,-0.07852 0.06013,-0.16801 0.06013,-0.26828c0,-0.09816 -0.01978,-0.18651 -0.06013,-0.26502c-0.03797,-0.07852 -0.08942,-0.13962 -0.15508,-0.18322c-0.06566,-0.04368 -0.13846,-0.06543 -0.21837,-0.06543c-0.08229,0 -0.15588,0.02291 -0.22154,0.06871c-0.06566,0.04359 -0.11711,0.10469 -0.15508,0.18322c-0.03797,0.07631 -0.05697,0.16465 -0.05697,0.26501zM244.87749,168.96644c-0.10997,0 -0.21127,-0.02184 -0.30384,-0.06543c-0.09099,-0.0458 -0.17011,-0.10911 -0.23735,-0.18977c-0.06566,-0.08072 -0.11631,-0.17341 -0.15192,-0.27811c-0.03641,-0.10469 -0.05382,-0.21594 -0.05382,-0.33371c0,-0.12434 0.01899,-0.23999 0.05696,-0.34682c0.03797,-0.1069 0.0902,-0.20071 0.15825,-0.28137c0.06963,-0.08294 0.15032,-0.14617 0.2437,-0.18977c0.09495,-0.0458 0.19938,-0.06871 0.31331,-0.06871c0.12818,0 0.24132,0.03051 0.33865,0.09162c0.09653,0.05889 0.17723,0.13848 0.24052,0.23884v-0.301h0.37029v1.63264c0,0.17013 -0.04035,0.31517 -0.12026,0.43516c-0.07834,0.12212 -0.18674,0.21479 -0.32598,0.2781c-0.13926,0.06543 -0.29751,0.09816 -0.47472,0.09816c-0.1796,0 -0.33152,-0.03166 -0.45575,-0.09489c-0.12501,-0.06111 -0.23103,-0.14838 -0.31964,-0.26174l0.23103,-0.2323c0.0633,0.08066 0.14242,0.14397 0.23737,0.18977c0.09653,0.0458 0.19938,0.06871 0.307,0.06871c0.09019,0 0.17249,-0.01751 0.24687,-0.05236c0.07595,-0.03272 0.13608,-0.08507 0.1804,-0.15705c0.0459,-0.06984 0.06963,-0.16032 0.06963,-0.27156v-0.21594c-0.05538,0.09816 -0.13294,0.17447 -0.23421,0.22903c-0.09969,0.05236 -0.20493,0.07852 -0.31647,0.07852zM245.0199,168.61636c0.0459,0 0.0902,-0.00768 0.13292,-0.0229c0.04194,-0.01529 0.0807,-0.03599 0.11711,-0.06216c0.03561,-0.02617 0.06725,-0.05677 0.09495,-0.09162c0.0269,-0.03713 0.04826,-0.07418 0.0633,-0.11124v-0.40899c-0.02532,-0.06765 -0.06172,-0.12654 -0.10761,-0.17668c-0.0443,-0.05022 -0.09495,-0.08834 -0.15192,-0.11451c-0.05538,-0.02839 -0.11314,-0.04253 -0.17406,-0.04253c-0.06566,0 -0.12502,0.01415 -0.17724,0.04253c-0.05301,0.0283 -0.09812,0.06871 -0.13609,0.12107c-0.03797,0.05014 -0.06806,0.10682 -0.08862,0.17013c-0.01899,0.06101 -0.02849,0.12539 -0.02849,0.19304c0,0.06977 0.01109,0.13519 0.03482,0.1963c0.02294,0.06101 0.0546,0.11451 0.09494,0.16032c0.04194,0.0458 0.0902,0.0818 0.14559,0.10796c0.05696,0.02617 0.1171,0.03925 0.18039,0.03925zM246.23442,168.95663v-1.71443h0.4241v1.71443zM246.23442,167.00334v-0.43515h0.4241v0.43515z" fill-opacity="0.9" fill="#333333" stroke="none" stroke-width="1" stroke-linecap="butt"/><path d="M224.21567,158.7158c0,0 0.04802,-0.30305 0.12802,-0.46239c0.07999,-0.15934 0.28167,-0.3536 0.28167,-0.3536v44.55248c0,0 -0.20169,-0.16687 -0.28167,-0.32636c-0.07999,-0.1595 -0.12802,-0.48996 -0.12802,-0.48996z" fill="url(#color-3)" stroke="none" stroke-width="1" stroke-linecap="butt"/><path d="M255.86432,201.63598c0,0 -0.04826,0.33046 -0.12818,0.48996c-0.07991,0.1595 -0.28167,0.32636 -0.28167,0.32636v-44.55248c0,0 0.20177,0.19427 0.28167,0.3536c0.07991,0.15934 0.12818,0.46239 0.12818,0.46239z" fill="url(#color-4)" stroke="none" stroke-width="1" stroke-linecap="butt"/><path d="M225.5984,202.66987v-44.98762h1.58755v44.98762z" fill="url(#color-5)" stroke="none" stroke-width="1" stroke-linecap="butt"/><path d="M224.2157,158.7158c0,0 0.04801,-0.30305 0.12801,-0.46239c0.07999,-0.15934 0.28167,-0.3536 0.28167,-0.3536c0,0 0,9.42033 0,15.35361c0,8.18225 0,29.19887 0,29.19887c0,0 -0.20168,-0.16687 -0.28167,-0.32636c-0.07999,-0.1595 -0.12801,-0.48996 -0.12801,-0.48996z" fill="url(#color-6)" stroke="none" stroke-width="1" stroke-linecap="butt"/><path d="M255.86432,201.63598c0,0 -0.04826,0.33046 -0.12818,0.48996c-0.07991,0.1595 -0.28167,0.32636 -0.28167,0.32636v-44.55248c0,0 0.20176,0.19427 0.28167,0.3536c0.07991,0.15934 0.12818,0.46239 0.12818,0.46239z" fill="url(#color-7)" stroke="none" stroke-width="1" stroke-linecap="butt"/><path d="M224.25171,157.02107l31.34723,-0.08655" fill="none" stroke="#2d00ff" stroke-width="1.5" stroke-linecap="round"/><path d="M224.35113,203.29168l31.54816,0.01622" fill="none" stroke="#2800ff" stroke-width="1.5" stroke-linecap="round"/><path d="M224.06819,156.69004l-0.53541,46.61989" fill="none" stroke="#ff0000" stroke-width="1.5" stroke-linecap="round"/><path d="M256.00325,156.93898l0.38679,46.16416" fill="none" stroke="#ff0000" stroke-width="1.5" stroke-linecap="round"/><path d="M248.46658,158.06684h6.35922v6.72023" fill="#a5b5a9" stroke="#000000" stroke-width="0.5" stroke-linecap="round"/><path d="M225.32167,164.8077l-0.04367,-6.574l6.50037,-0.04615" fill="#a5b5a9" stroke="#000000" stroke-width="0.5" stroke-linecap="round"/><path d="M255.08628,195.58233l0.00102,6.57415l-6.50053,0.00108" fill="#a3b3a7" stroke="#000000" stroke-width="0.5" stroke-linecap="round"/><path d="M231.34835,202.03374l-6.35904,0.04893l-0.04839,-6.72005" fill="#a5b5a9" stroke="#000000" stroke-width="0.5" stroke-linecap="round"/></g></g></svg>