<svg version="1.1" xmlns="http://www.w3.org/2000/svg" xmlns:xlink="http://www.w3.org/1999/xlink" width="25" height="25" viewBox="0,0,25,25"><g transform="translate(-227.5,-167.5)"><g data-paper-data="{&quot;isPaintingLayer&quot;:true}" fill-rule="nonzero" stroke-width="1" stroke-linecap="butt" stroke-linejoin="miter" stroke-miterlimit="10" stroke-dasharray="" stroke-dashoffset="0" style="mix-blend-mode: normal"><path d="M228,180c0,-6.62742 5.37258,-12 12,-12c6.62742,0 12,5.37258 12,12c0,6.62742 -5.37258,12 -12,12c-6.62742,0 -12,-5.37258 -12,-12z" fill="#c26363" stroke="#000000"/><path d="M238.912,184.776c-0.504,0 -0.896,-0.032 -1.176,-0.096c-0.272,-0.064 -0.46,-0.152 -0.564,-0.264c-0.104,-0.12 -0.16,-0.252 -0.168,-0.396c0,-0.224 0.132,-0.412 0.396,-0.564c0.272,-0.152 0.768,-0.248 1.488,-0.288l-0.192,0.228c-0.088,-0.408 -0.152,-0.884 -0.192,-1.428c-0.04,-0.544 -0.056,-1.108 -0.048,-1.692c0.008,-0.584 0.036,-1.14 0.084,-1.668c0.048,-0.536 0.116,-0.992 0.204,-1.368l1.044,-0.072c-0.176,0.072 -0.396,0.136 -0.66,0.192c-0.264,0.048 -0.536,0.072 -0.816,0.072c-0.512,0 -0.892,-0.056 -1.14,-0.168c-0.24,-0.112 -0.36,-0.268 -0.36,-0.468c0,-0.352 0.212,-0.624 0.636,-0.816c0.432,-0.2 1.092,-0.3 1.98,-0.3c1.056,0 1.944,0.176 2.664,0.528c0.728,0.344 1.28,0.828 1.656,1.452c0.376,0.616 0.564,1.336 0.564,2.16c0,0.72 -0.128,1.384 -0.384,1.992c-0.256,0.6 -0.624,1.124 -1.104,1.572c-0.472,0.44 -1.04,0.784 -1.704,1.032c-0.656,0.24 -1.392,0.36 -2.208,0.36zM240.616,182.928c0.272,0 0.56,-0.108 0.864,-0.324c0.312,-0.224 0.576,-0.548 0.792,-0.972c0.216,-0.432 0.324,-0.964 0.324,-1.596c0,-0.464 -0.068,-0.868 -0.204,-1.212c-0.128,-0.352 -0.296,-0.644 -0.504,-0.876c-0.208,-0.232 -0.428,-0.404 -0.66,-0.516c-0.232,-0.12 -0.452,-0.18 -0.66,-0.18c-0.168,0 -0.3,0.104 -0.396,0.312c-0.088,0.208 -0.152,0.52 -0.192,0.936c-0.04,0.408 -0.06,0.916 -0.06,1.524c0,0.944 0.048,1.664 0.144,2.16c0.096,0.496 0.28,0.744 0.552,0.744z" fill="#0a0a0a" stroke="none"/></g></g></svg>