<svg version="1.1" xmlns="http://www.w3.org/2000/svg" xmlns:xlink="http://www.w3.org/1999/xlink" width="49.25489" height="48.75746" viewBox="0,0,49.25489,48.75746"><g transform="translate(-215.37256,-155.62127)"><g data-paper-data="{&quot;isPaintingLayer&quot;:true}" fill-rule="nonzero" stroke-linecap="butt" stroke-linejoin="miter" stroke-miterlimit="10" stroke-dasharray="" stroke-dashoffset="0" style="mix-blend-mode: normal"><path d="M216.37256,203.37873v-46.75746h47.25489v46.75746z" fill="#f4f4f4" stroke="#000000" stroke-width="2"/><path d="M239.25387,180.1658c0,-0.36629 0.29694,-0.66322 0.66322,-0.66322c0.36629,0 0.66322,0.29694 0.66322,0.66322c0,0.36629 -0.29694,0.66322 -0.66322,0.66322c-0.36629,0 -0.66322,-0.29694 -0.66322,-0.66322z" fill="#252525" stroke="none" stroke-width="1"/><path d="M251.60514,159.60774v-0.73817h1.28599v3.38908h-0.82638v-2.65092z" fill="#000000" stroke="none" stroke-width="1"/><path d="M258.66883,170.742c0.10529,-0.08357 0.15321,-0.12225 0.14392,-0.11607c0.30326,-0.2507 0.54169,-0.45651 0.71496,-0.61746c0.17642,-0.16095 0.32498,-0.32962 0.44569,-0.50604c0.12071,-0.17642 0.18106,-0.3482 0.18106,-0.51533c0,-0.12689 -0.02935,-0.22595 -0.08821,-0.29712c-0.05887,-0.07118 -0.14707,-0.10678 -0.26463,-0.10678c-0.11756,0 -0.21041,0.04488 -0.27855,0.13463c-0.065,0.08667 -0.0975,0.21046 -0.0975,0.37141h-0.76603c0.00613,-0.26308 0.06184,-0.48283 0.16713,-0.65925c0.10827,-0.17642 0.24921,-0.30641 0.42248,-0.38998c0.17642,-0.08357 0.37141,-0.12535 0.58496,-0.12535c0.36825,0 0.64532,0.09439 0.83102,0.2832c0.18885,0.18881 0.2832,0.43486 0.2832,0.73817c0,0.33117 -0.11291,0.63914 -0.33891,0.92387c-0.226,0.28166 -0.51383,0.55711 -0.86352,0.82638h1.25349v0.64532h-2.33058z" fill="#000000" stroke="none" stroke-width="1"/><path d="M258.64512,178.89374c0.01243,-0.33112 0.12071,-0.58646 0.32498,-0.76603c0.20428,-0.17957 0.48134,-0.26927 0.83102,-0.26927c0.23213,0 0.43026,0.04029 0.59425,0.12071c0.16713,0.08041 0.29249,0.19034 0.37605,0.32962c0.08672,0.13928 0.12999,0.29563 0.12999,0.4689c0,0.20428 -0.05107,0.37141 -0.15321,0.5014c-0.10213,0.12684 -0.22119,0.21355 -0.35748,0.25999v0.01857c0.17642,0.05887 0.3157,0.15635 0.41783,0.29249c0.10213,0.13613 0.15321,0.31105 0.15321,0.52461c0,0.19184 -0.04477,0.36212 -0.13463,0.51069c-0.08655,0.14541 -0.21505,0.25999 -0.38533,0.34355c-0.16713,0.08357 -0.36676,0.12535 -0.5989,0.12535c-0.37141,0 -0.66853,-0.09136 -0.89137,-0.27391c-0.21969,-0.18255 -0.33575,-0.45812 -0.3482,-0.82638h0.77067c0.00315,0.13613 0.04178,0.24457 0.11607,0.32498c0.07428,0.07743 0.18272,0.11607 0.32498,0.11607c0.12071,0 0.21355,-0.03399 0.27855,-0.10213c0.06814,-0.07113 0.10213,-0.16398 0.10213,-0.27855c0,-0.14857 -0.04792,-0.25534 -0.14392,-0.32034c-0.09285,-0.06814 -0.24291,-0.10213 -0.45033,-0.10213h-0.14857v-0.64532h0.14857c0.15784,0 0.28485,-0.02637 0.38069,-0.07892c0.09915,-0.05571 0.14857,-0.15321 0.14857,-0.29249c0,-0.11142 -0.03084,-0.19814 -0.09285,-0.25999c-0.06184,-0.06184 -0.1469,-0.09285 -0.25534,-0.09285c-0.11756,0 -0.20577,0.03564 -0.26463,0.10678c-0.05571,0.07113 -0.08821,0.15934 -0.0975,0.26463z" fill="#000000" stroke="none" stroke-width="1"/><path d="M258.47036,190.67131v-0.64067l1.46706,-2.09845h0.88673v2.05202h0.38069v0.68711h-0.38069v0.60354h-0.79388v-0.60354zM260.08598,188.80498l-0.77995,1.17922h0.77995z" fill="#000000" stroke="none" stroke-width="1"/><path d="M253.43813,198.5259h-1.44848v0.64067c0.06184,-0.06814 0.14857,-0.12385 0.25999,-0.16713c0.11142,-0.04328 0.23213,-0.065 0.36212,-0.065c0.23213,0 0.42397,0.05256 0.57568,0.15784c0.1547,0.10529 0.26761,0.24141 0.33891,0.40855c0.07113,0.16713 0.10678,0.3482 0.10678,0.54319c0,0.36212 -0.10213,0.64996 -0.30641,0.86352c-0.20428,0.21041 -0.49211,0.3157 -0.86352,0.3157c-0.24772,0 -0.46276,-0.04178 -0.64532,-0.12535c-0.18272,-0.08672 -0.32349,-0.20577 -0.42248,-0.35748c-0.09915,-0.15171 -0.15321,-0.32648 -0.16249,-0.52461h0.77531c0.01857,0.096 0.06333,0.17642 0.13463,0.24141c0.07113,0.06184 0.16862,0.09285 0.29249,0.09285c0.14541,0 0.25369,-0.04642 0.32498,-0.13928c0.07113,-0.09285 0.10678,-0.21671 0.10678,-0.37141c0,-0.15171 -0.03714,-0.26778 -0.11142,-0.3482c-0.07428,-0.08041 -0.18272,-0.12071 -0.32498,-0.12071c-0.10529,0 -0.19201,0.02637 -0.25999,0.07892c-0.06814,0.04958 -0.11308,0.11607 -0.13463,0.19963h-0.76603v-2.01952h2.16809z" fill="#000000" stroke="none" stroke-width="1"/><path d="M240.32398,198.74873c-0.0247,-0.11458 -0.06814,-0.19963 -0.12999,-0.25534c-0.06184,-0.05887 -0.15006,-0.08821 -0.26463,-0.08821c-0.17642,0 -0.30326,0.07743 -0.38069,0.23213c-0.07743,0.15171 -0.11756,0.39313 -0.12071,0.72424c0.06814,-0.10827 0.16564,-0.1935 0.29249,-0.25534c0.12999,-0.06184 0.27242,-0.09285 0.42712,-0.09285c0.30326,0 0.54633,0.096 0.72889,0.28784c0.1857,0.19184 0.27855,0.45962 0.27855,0.80316c0,0.226 -0.04642,0.42397 -0.13928,0.59425c-0.0897,0.17029 -0.22284,0.30326 -0.39926,0.39926c-0.17327,0.096 -0.3792,0.14392 -0.61746,0.14392c-0.4767,0 -0.80781,-0.14857 -0.99352,-0.44569c-0.1857,-0.30028 -0.27855,-0.73037 -0.27855,-1.29064c0,-0.58812 0.0975,-1.02452 0.29249,-1.3092c0.19814,-0.28784 0.51383,-0.43176 0.94708,-0.43176c0.23213,0 0.42712,0.04642 0.58496,0.13928c0.161,0.0897 0.28171,0.20892 0.36212,0.35748c0.08357,0.14857 0.13314,0.31105 0.14857,0.48747zM239.95722,199.6401c-0.13314,0 -0.24457,0.04029 -0.33427,0.12071c-0.08672,0.07743 -0.12999,0.18885 -0.12999,0.33427c0,0.14857 0.04029,0.26463 0.12071,0.3482c0.08357,0.08357 0.20112,0.12535 0.35283,0.12535c0.13613,0 0.24291,-0.04029 0.32034,-0.12071c0.08041,-0.08357 0.12071,-0.19648 0.12071,-0.33891c0,-0.14541 -0.03863,-0.25999 -0.11607,-0.34355c-0.07743,-0.08357 -0.18885,-0.12535 -0.33427,-0.12535z" fill="#000000" stroke="none" stroke-width="1"/><path d="M228.61171,198.4284l-1.16529,2.79484h-0.81245l1.17922,-2.70663h-1.44385v-0.67782h2.24237z" fill="#000000" stroke="none" stroke-width="1"/><path d="M220.11015,189.45495c-0.29094,-0.1547 -0.4364,-0.39777 -0.4364,-0.72889c0,-0.16713 0.04333,-0.31884 0.12999,-0.45498c0.08665,-0.13928 0.2182,-0.24921 0.39462,-0.32962c0.17642,-0.08357 0.39306,-0.12535 0.64996,-0.12535c0.25688,0 0.47198,0.04178 0.64532,0.12535c0.17642,0.08041 0.30795,0.19034 0.39462,0.32962c0.08665,0.13613 0.12999,0.28784 0.12999,0.45498c0,0.16713 -0.04024,0.31254 -0.12071,0.4364c-0.07738,0.12385 -0.18262,0.22135 -0.3157,0.29249c0.16713,0.08041 0.29556,0.19184 0.38533,0.33427c0.08975,0.13928 0.13463,0.30326 0.13463,0.49211c0,0.21969 -0.05571,0.41004 -0.16713,0.57104c-0.11142,0.15784 -0.26308,0.27855 -0.45498,0.36212c-0.18881,0.08357 -0.39926,0.12535 -0.63139,0.12535c-0.23213,0 -0.44415,-0.04178 -0.63603,-0.12535c-0.18881,-0.08357 -0.33891,-0.20428 -0.45033,-0.36212c-0.11142,-0.161 -0.16713,-0.35134 -0.16713,-0.57104c0,-0.19184 0.04486,-0.35748 0.13463,-0.49675c0.08975,-0.14243 0.21664,-0.25219 0.38069,-0.32962zM221.24759,188.84676c0,-0.12684 -0.03714,-0.22433 -0.11142,-0.29249c-0.0712,-0.07113 -0.16713,-0.10678 -0.28784,-0.10678c-0.12071,0 -0.2182,0.03564 -0.29249,0.10678c-0.0712,0.07113 -0.10678,0.17029 -0.10678,0.29712c0,0.12071 0.03714,0.21671 0.11142,0.28784c0.07428,0.06814 0.17022,0.10213 0.28784,0.10213c0.1176,0 0.21355,-0.03564 0.28784,-0.10678c0.07428,-0.07113 0.11142,-0.16713 0.11142,-0.28784zM220.84833,189.79849c-0.14548,0 -0.26308,0.04029 -0.35283,0.12071c-0.08977,0.07743 -0.13463,0.1857 -0.13463,0.32498c0,0.12999 0.04333,0.23678 0.12999,0.32034c0.08975,0.08357 0.20892,0.12535 0.35748,0.12535c0.14857,0 0.26463,-0.04178 0.3482,-0.12535c0.08665,-0.08357 0.12999,-0.19034 0.12999,-0.32034c0,-0.13613 -0.04488,-0.24457 -0.13463,-0.32498c-0.08667,-0.08041 -0.20119,-0.12071 -0.34355,-0.12071z" fill="#000000" stroke="none" stroke-width="1"/><path d="M220.48435,180.33293c0.04642,0.24457 0.18881,0.36676 0.42712,0.36676c0.16405,0 0.28011,-0.07279 0.3482,-0.2182c0.0681,-0.14541 0.10213,-0.38219 0.10213,-0.71032c-0.06808,0.096 -0.16093,0.17029 -0.27855,0.22284c-0.1176,0.05256 -0.24914,0.07892 -0.39462,0.07892c-0.19807,0 -0.37449,-0.04029 -0.52925,-0.12071c-0.15475,-0.08357 -0.277,-0.20577 -0.36676,-0.36676c-0.08665,-0.16398 -0.12999,-0.36212 -0.12999,-0.59425c0,-0.22898 0.04642,-0.42861 0.13928,-0.5989c0.09595,-0.17029 0.23058,-0.30177 0.40391,-0.39462c0.17642,-0.09285 0.38379,-0.13928 0.62211,-0.13928c0.45807,0 0.77841,0.14243 0.96102,0.42712c0.18262,0.28469 0.27391,0.70418 0.27391,1.25814c0,0.40241 -0.03714,0.73502 -0.11142,0.99815c-0.07118,0.25999 -0.19343,0.45812 -0.36676,0.59425c-0.17022,0.13613 -0.40391,0.20428 -0.70103,0.20428c-0.23521,0 -0.4364,-0.04642 -0.60354,-0.13928c-0.16404,-0.09285 -0.29092,-0.21505 -0.38069,-0.36676c-0.08665,-0.15171 -0.13618,-0.31884 -0.14857,-0.5014zM220.86968,179.44619c0.12999,0 0.23369,-0.03863 0.31105,-0.11607c0.07738,-0.08041 0.11607,-0.18885 0.11607,-0.32498c0,-0.14857 -0.04022,-0.26313 -0.12071,-0.34355c-0.08047,-0.08041 -0.18879,-0.12071 -0.32498,-0.12071c-0.13618,0 -0.2445,0.04178 -0.32498,0.12535c-0.07736,0.08041 -0.11607,0.19184 -0.11607,0.33427c0,0.13314 0.0387,0.24141 0.11607,0.32498c0.08048,0.08041 0.19499,0.12071 0.34355,0.12071z" fill="#000000" stroke="none" stroke-width="1"/><path d="M219.08507,168.72713v-0.73817h1.28599v3.38908h-0.82638v-2.65092zM220.91415,169.63708c0,-0.53236 0.10213,-0.95173 0.30641,-1.25814c0.20736,-0.30641 0.54008,-0.45962 0.99815,-0.45962c0.45806,0 0.78924,0.15321 0.99352,0.45962c0.20736,0.30641 0.31105,0.72579 0.31105,1.25814c0,0.53854 -0.10369,0.96102 -0.31105,1.26743c-0.20428,0.30641 -0.53546,0.45962 -0.99352,0.45962c-0.45807,0 -0.7908,-0.15321 -0.99815,-0.45962c-0.20428,-0.30641 -0.30641,-0.72889 -0.30641,-1.26743zM222.74332,169.63708c0,-0.31259 -0.03406,-0.55246 -0.10213,-0.7196c-0.0681,-0.17023 -0.20892,-0.25534 -0.42248,-0.25534c-0.21355,0 -0.3544,0.0851 -0.42248,0.25534c-0.0681,0.16713 -0.10213,0.407 -0.10213,0.7196c0,0.21046 0.01236,0.38533 0.03714,0.52461c0.02476,0.13618 0.07428,0.2476 0.14857,0.33427c0.07736,0.08357 0.19034,0.12535 0.33891,0.12535c0.14857,0 0.25999,-0.04178 0.33427,-0.12535c0.07736,-0.08667 0.12843,-0.19809 0.15321,-0.33427c0.02476,-0.13928 0.03714,-0.31415 0.03714,-0.52461z" fill="#000000" stroke="none" stroke-width="1" opacity="0.8"/><path d="M225.86146,159.60774v-0.73817h1.28599v3.38908h-0.82638v-2.65092zM227.60695,159.60774v-0.73817h1.28599v3.38908h-0.82638v-2.65092z" fill="#000000" stroke="none" stroke-width="1"/><path d="M238.17513,159.60774v-0.73817h1.28599v3.38908h-0.82638v-2.65092zM239.97646,161.62264c0.10512,-0.08357 0.15321,-0.12225 0.14392,-0.11607c0.30326,-0.2507 0.54152,-0.45651 0.71496,-0.61746c0.17642,-0.16095 0.32498,-0.32962 0.44569,-0.50604c0.12071,-0.17642 0.18106,-0.3482 0.18106,-0.51533c0,-0.12689 -0.02951,-0.22595 -0.08821,-0.29712c-0.05887,-0.07118 -0.14707,-0.10678 -0.26463,-0.10678c-0.11772,0 -0.21058,0.04488 -0.27855,0.13463c-0.065,0.08667 -0.0975,0.21046 -0.0975,0.37141h-0.76603c0.00613,-0.26308 0.06184,-0.48283 0.16713,-0.65925c0.10827,-0.17642 0.24904,-0.30641 0.42248,-0.38998c0.17642,-0.08357 0.37141,-0.12535 0.58496,-0.12535c0.36825,0 0.64532,0.09439 0.83102,0.2832c0.18869,0.18881 0.2832,0.43486 0.2832,0.73817c0,0.33117 -0.11308,0.63914 -0.33891,0.92387c-0.226,0.28166 -0.51383,0.55711 -0.86352,0.82638h1.25349v0.64532h-2.33058z" fill="#000000" stroke="none" stroke-width="1"/><path d="M239.83419,168.55934v11.44066" fill="none" stroke="#252525" stroke-width="1"/><path d="M257.82339,180.08288l-17.90712,0.16581" fill="none" stroke="#252525" stroke-width="1"/><path d="M239.48949,180.54217l-12.43552,19.39937" fill="none" stroke="#db6c6c" stroke-width="1"/></g></g></svg>