<svg width="106" height="17" viewBox="0 0 106 17" fill="none" xmlns="http://www.w3.org/2000/svg">
<path d="M2.84 13.096C2.18933 13.096 1.704 13.0107 1.384 12.84C1.064 12.6693 0.797333 12.36 0.584 11.912C0.434667 11.5707 0.306667 11.016 0.2 10.248C0.104 9.46933 0.056 8.46133 0.056 7.224C0.056 6.36 0.072 5.53333 0.104 4.744C0.146667 3.95467 0.205333 3.34667 0.28 2.92C0.365333 2.376 0.504 1.98667 0.696 1.752C0.898667 1.51733 1.14933 1.4 1.448 1.4C1.71467 1.4 1.92267 1.51733 2.072 1.752C2.232 1.98667 2.344 2.30667 2.408 2.712C2.472 3.10667 2.504 3.544 2.504 4.024C2.504 5.32533 2.456 6.64267 2.36 7.976C2.27467 9.30933 2.152 10.536 1.992 11.656L1.784 11.368C2.264 11.0373 2.776 10.7547 3.32 10.52C3.87467 10.2853 4.41333 10.104 4.936 9.976C5.46933 9.848 5.93333 9.784 6.328 9.784C6.72267 9.784 7.01067 9.864 7.192 10.024C7.384 10.184 7.48 10.4133 7.48 10.712C7.48 11.0107 7.34667 11.3147 7.08 11.624C6.824 11.9227 6.456 12.184 5.976 12.408C5.70933 12.536 5.39467 12.6533 5.032 12.76C4.66933 12.856 4.296 12.936 3.912 13C3.53867 13.064 3.18133 13.096 2.84 13.096ZM16.0041 12.904C15.7161 12.904 15.4921 12.808 15.3321 12.616C15.1828 12.4133 15.0815 12.1573 15.0281 11.848C14.9748 11.528 14.9481 11.192 14.9481 10.84L15.0281 10.776C14.9215 11.2347 14.7135 11.6293 14.4041 11.96C14.0948 12.2907 13.7375 12.5467 13.3321 12.728C12.9268 12.8987 12.5215 12.984 12.1161 12.984C11.5721 12.984 11.0761 12.856 10.6281 12.6C10.1801 12.344 9.83346 11.9493 9.58813 11.416C9.34279 10.8507 9.15079 10.1413 9.01213 9.288C8.87346 8.424 8.80413 7.53867 8.80413 6.632C8.80413 6.14133 8.82546 5.688 8.86813 5.272C8.91079 4.856 8.98013 4.51467 9.07613 4.248C9.16146 3.97067 9.28946 3.768 9.46013 3.64C9.63079 3.50133 9.84946 3.432 10.1161 3.432C10.4255 3.432 10.6655 3.55467 10.8361 3.8C11.0175 4.03467 11.1295 4.36533 11.1721 4.792C11.2148 5.144 11.2415 5.58133 11.2521 6.104C11.2735 6.616 11.2895 7.13333 11.3001 7.656C11.3215 8.168 11.3481 8.6 11.3801 8.952C11.4441 9.592 11.6095 10.0667 11.8761 10.376C12.1428 10.6747 12.4681 10.824 12.8521 10.824C13.4175 10.824 13.8495 10.6107 14.1481 10.184C14.4468 9.75733 14.5961 9.16 14.5961 8.392C14.5961 8.008 14.5748 7.576 14.5321 7.096C14.4895 6.60533 14.4415 6.13067 14.3881 5.672C14.3455 5.21333 14.3241 4.83467 14.3241 4.536C14.3241 4.03467 14.4095 3.67733 14.5801 3.464C14.7508 3.24 14.9855 3.128 15.2841 3.128C15.5401 3.128 15.7535 3.19733 15.9241 3.336C16.1055 3.47467 16.2495 3.66667 16.3561 3.912C16.5055 4.232 16.6335 4.66933 16.7401 5.224C16.8468 5.77867 16.9321 6.408 16.9961 7.112C17.0601 7.816 17.0921 8.55733 17.0921 9.336C17.0921 10.5307 17.0121 11.4267 16.8521 12.024C16.6921 12.6107 16.4095 12.904 16.0041 12.904ZM26.0305 13.16C25.6678 13.16 25.4172 13.0213 25.2785 12.744C25.1505 12.456 25.0758 12.0027 25.0545 11.384L25.2145 11.464C24.6172 12.6267 23.4865 13.208 21.8225 13.208C21.0652 13.208 20.4358 13.0747 19.9345 12.808C19.4332 12.5307 19.0598 12.168 18.8145 11.72C18.5798 11.2613 18.4625 10.7653 18.4625 10.232C18.4625 9.31467 18.7825 8.58933 19.4225 8.056C20.0625 7.512 20.9105 7.24 21.9665 7.24C22.6598 7.24 23.2625 7.34133 23.7745 7.544C24.2865 7.74667 24.7238 8.02933 25.0865 8.392L24.8145 8.36C24.7398 7.28267 24.5052 6.51467 24.1105 6.056C23.7265 5.58667 23.1772 5.352 22.4625 5.352C22.0465 5.352 21.6625 5.416 21.3105 5.544C20.9585 5.672 20.6332 5.80533 20.3345 5.944C20.0465 6.072 19.7745 6.136 19.5185 6.136C19.2625 6.136 19.0598 6.05067 18.9105 5.88C18.7718 5.70933 18.7025 5.49067 18.7025 5.224C18.7025 4.84 18.8838 4.47733 19.2465 4.136C19.6198 3.79467 20.1105 3.51733 20.7185 3.304C21.3265 3.09067 21.9878 2.984 22.7025 2.984C23.5665 2.984 24.3078 3.192 24.9265 3.608C25.5452 4.024 26.0145 4.632 26.3345 5.432C26.6118 6.11467 26.8092 6.87733 26.9265 7.72C27.0438 8.56267 27.1025 9.464 27.1025 10.424C27.1025 11.1493 27.0652 11.7093 26.9905 12.104C26.9158 12.4987 26.7985 12.776 26.6385 12.936C26.4892 13.0853 26.2865 13.16 26.0305 13.16ZM22.4945 11.368C22.8465 11.368 23.2038 11.32 23.5665 11.224C23.9292 11.1173 24.2332 10.9627 24.4785 10.76C24.7238 10.5573 24.8465 10.3067 24.8465 10.008C24.8465 9.752 24.7398 9.544 24.5265 9.384C24.3238 9.21333 24.0518 9.08533 23.7105 9C23.3798 8.91467 23.0225 8.872 22.6385 8.872C21.9878 8.872 21.4918 8.984 21.1505 9.208C20.8198 9.432 20.6545 9.73067 20.6545 10.104C20.6545 10.5093 20.8092 10.824 21.1185 11.048C21.4385 11.2613 21.8972 11.368 22.4945 11.368ZM33.1021 2.984C34.0515 2.984 34.7341 3.12267 35.1501 3.4C35.5661 3.67733 35.7741 4.03467 35.7741 4.472C35.7741 4.728 35.6835 4.94133 35.5021 5.112C35.3315 5.272 35.0861 5.352 34.7661 5.352C34.4355 5.352 34.0888 5.304 33.7261 5.208C33.3741 5.112 32.9635 5.064 32.4941 5.064C31.9501 5.064 31.5448 5.17067 31.2781 5.384C31.0115 5.59733 30.8781 5.86933 30.8781 6.2C30.8781 6.50933 30.9955 6.75467 31.2301 6.936C31.4755 7.10667 31.9395 7.23467 32.6221 7.32C33.3795 7.40533 34.0035 7.544 34.4941 7.736C34.9955 7.91733 35.3688 8.19467 35.6141 8.568C35.8595 8.93067 35.9821 9.432 35.9821 10.072C35.9821 11.0853 35.6248 11.8373 34.9101 12.328C34.1955 12.8187 33.2088 13.064 31.9501 13.064C31.1501 13.064 30.5155 13 30.0461 12.872C29.5768 12.744 29.2355 12.5627 29.0221 12.328C28.8195 12.0933 28.7181 11.816 28.7181 11.496C28.7181 11.2187 28.8088 11.0053 28.9901 10.856C29.1821 10.696 29.4061 10.616 29.6621 10.616C29.9075 10.616 30.1688 10.648 30.4461 10.712C30.7235 10.7653 31.0168 10.824 31.3261 10.888C31.6355 10.952 31.9555 10.984 32.2861 10.984C33.3528 10.984 33.8861 10.6533 33.8861 9.992C33.8861 9.768 33.8328 9.58667 33.7261 9.448C33.6195 9.30933 33.4275 9.19733 33.1501 9.112C32.8728 9.016 32.4675 8.94133 31.9341 8.888C31.2941 8.824 30.7395 8.71733 30.2701 8.568C29.8008 8.408 29.4381 8.152 29.1821 7.8C28.9261 7.43733 28.7981 6.94133 28.7981 6.312C28.7981 5.32 29.1715 4.52 29.9181 3.912C30.6648 3.29333 31.7261 2.984 33.1021 2.984ZM44.0361 13.048C43.6841 13.048 43.2895 13.0267 42.8521 12.984C42.4255 12.9413 42.0095 12.8613 41.6041 12.744C41.2095 12.616 40.8788 12.4453 40.6121 12.232C40.3561 12.008 40.2281 11.72 40.2281 11.368C40.2281 11.0053 40.3401 10.7333 40.5641 10.552C40.7988 10.3707 41.1775 10.28 41.7001 10.28C42.0628 10.28 42.4681 10.328 42.9161 10.424C43.3748 10.52 43.8121 10.568 44.2281 10.568C44.8468 10.568 45.3001 10.472 45.5881 10.28C45.8868 10.088 46.0361 9.82667 46.0361 9.496C46.0361 9.29333 45.9775 9.112 45.8601 8.952C45.7535 8.792 45.5348 8.632 45.2041 8.472C44.8735 8.312 44.3775 8.136 43.7161 7.944C42.9588 7.74133 42.3455 7.51733 41.8761 7.272C41.4068 7.016 41.0655 6.712 40.8521 6.36C40.6388 6.008 40.5321 5.592 40.5321 5.112C40.5321 4.52533 40.6335 4.01867 40.8361 3.592C41.0495 3.15467 41.3321 2.78667 41.6841 2.488C42.0361 2.17867 42.4308 1.93333 42.8681 1.752C43.3055 1.57067 43.7481 1.43733 44.1961 1.352C44.6548 1.26667 45.0921 1.224 45.5081 1.224C46.4255 1.224 47.1721 1.368 47.7481 1.656C48.3348 1.944 48.6281 2.328 48.6281 2.808C48.6281 3.14933 48.5161 3.42667 48.2921 3.64C48.0788 3.85333 47.7481 3.96 47.3001 3.96C47.1081 3.96 46.8788 3.93333 46.6121 3.88C46.3455 3.82667 46.0521 3.77333 45.7321 3.72C45.4121 3.66667 45.0601 3.64 44.6761 3.64C44.0255 3.64 43.5241 3.74133 43.1721 3.944C42.8201 4.14667 42.6441 4.472 42.6441 4.92C42.6441 5.112 42.6921 5.288 42.7881 5.448C42.8948 5.608 43.1135 5.77333 43.4441 5.944C43.7748 6.11467 44.2815 6.312 44.9641 6.536C45.8068 6.792 46.4681 7.07467 46.9481 7.384C47.4281 7.68267 47.7695 8.024 47.9721 8.408C48.1748 8.792 48.2761 9.224 48.2761 9.704C48.2761 10.3653 48.0948 10.952 47.7321 11.464C47.3801 11.9653 46.8841 12.3547 46.2441 12.632C45.6148 12.9093 44.8788 13.048 44.0361 13.048ZM54.4873 13.128C53.3033 13.128 52.3593 12.952 51.6553 12.6C50.9513 12.248 50.4446 11.7413 50.1353 11.08C49.8259 10.4187 49.6713 9.62933 49.6713 8.712C49.6713 7.54933 49.8846 6.56267 50.3113 5.752C50.7486 4.93067 51.3459 4.30133 52.1033 3.864C52.8712 3.42667 53.7406 3.208 54.7113 3.208C55.8526 3.208 56.6899 3.47467 57.2233 4.008C57.7566 4.53067 58.0233 5.21867 58.0233 6.072C58.0233 6.75467 57.8419 7.34667 57.4792 7.848C57.1273 8.33867 56.6366 8.71733 56.0073 8.984C55.3779 9.25067 54.6526 9.384 53.8313 9.384C53.3726 9.384 52.9299 9.32533 52.5033 9.208C52.0766 9.09067 51.6926 8.93067 51.3513 8.728L51.7353 8.024C51.7033 8.28 51.6873 8.536 51.6873 8.792C51.6873 9.53867 51.9219 10.0773 52.3913 10.408C52.8606 10.728 53.5273 10.888 54.3913 10.888C55.0633 10.888 55.6019 10.8293 56.0073 10.712C56.4126 10.5947 56.7539 10.4827 57.0312 10.376C57.3086 10.2587 57.5806 10.2 57.8472 10.2C57.9966 10.2 58.1299 10.2427 58.2473 10.328C58.3753 10.4027 58.4766 10.5147 58.5513 10.664C58.6366 10.8133 58.6793 10.9947 58.6793 11.208C58.6793 11.528 58.5193 11.8373 58.1993 12.136C57.8793 12.424 57.4046 12.664 56.7753 12.856C56.1566 13.0373 55.3939 13.128 54.4873 13.128ZM53.5593 7.896C54.3166 7.896 54.9246 7.736 55.3833 7.416C55.8419 7.096 56.0713 6.70133 56.0713 6.232C56.0713 5.85867 55.9433 5.55467 55.6873 5.32C55.4419 5.07467 55.0526 4.952 54.5193 4.952C54.0179 4.952 53.5646 5.048 53.1593 5.24C52.7646 5.42133 52.4553 5.66133 52.2313 5.96C52.0073 6.25867 51.8953 6.584 51.8953 6.936C51.8953 7.24533 52.0393 7.48533 52.3273 7.656C52.6259 7.816 53.0366 7.896 53.5593 7.896ZM63.1414 12.744C62.1387 12.744 61.3227 12.36 60.6934 11.592C60.064 10.8133 59.7494 9.63467 59.7494 8.056C59.7494 6.37067 60.0534 5.13867 60.6614 4.36C61.2694 3.58133 62.0694 3.192 63.0614 3.192C63.648 3.192 64.1654 3.34133 64.6134 3.64C65.0614 3.93867 65.4454 4.36 65.7654 4.904L65.6374 5.128C65.6054 4.97867 65.5787 4.81867 65.5574 4.648C65.536 4.47733 65.5254 4.34933 65.5254 4.264C65.5254 3.82667 65.5947 3.49067 65.7334 3.256C65.8827 3.01067 66.112 2.888 66.4214 2.888C66.7627 2.888 67.0294 3.02667 67.2214 3.304C67.424 3.58133 67.5787 3.976 67.6854 4.488C67.824 5.01067 67.9414 5.67733 68.0374 6.488C68.1334 7.288 68.1814 8.09867 68.1814 8.92C68.1814 9.944 68.144 10.8027 68.0694 11.496C67.9947 12.1893 67.872 12.7653 67.7014 13.224C67.5307 13.6827 67.3067 14.0827 67.0294 14.424C66.5707 14.9787 65.9787 15.4 65.2534 15.688C64.5387 15.9867 63.712 16.136 62.7734 16.136C62.1014 16.136 61.5627 16.072 61.1574 15.944C60.752 15.8267 60.4587 15.6613 60.2774 15.448C60.1067 15.2453 60.0214 15.016 60.0214 14.76C60.0214 14.4933 60.096 14.2693 60.2454 14.088C60.3947 13.9173 60.6187 13.832 60.9174 13.832C61.184 13.832 61.4934 13.8747 61.8454 13.96C62.208 14.0453 62.6347 14.088 63.1254 14.088C64.16 14.088 64.8907 13.8427 65.3174 13.352C65.7547 12.872 65.9734 12.1787 65.9734 11.272C65.9734 11.0267 65.9574 10.7387 65.9254 10.408L66.1494 10.488C65.8827 11.1707 65.488 11.72 64.9654 12.136C64.4427 12.5413 63.8347 12.744 63.1414 12.744ZM63.7494 10.776C64.0907 10.776 64.432 10.6853 64.7734 10.504C65.1147 10.3227 65.3974 10.024 65.6214 9.608C65.8454 9.192 65.9574 8.632 65.9574 7.928C65.9574 7.08533 65.76 6.39733 65.3654 5.864C64.9707 5.33067 64.416 5.064 63.7014 5.064C63.0827 5.064 62.6294 5.29867 62.3414 5.768C62.0534 6.23733 61.9094 6.94667 61.9094 7.896C61.9094 8.80267 62.0534 9.512 62.3414 10.024C62.6294 10.5253 63.0987 10.776 63.7494 10.776ZM71.5403 0.728C71.9669 0.728 72.2709 0.845333 72.4523 1.08C72.6443 1.31467 72.7403 1.58667 72.7403 1.896C72.7403 2.28 72.6229 2.57867 72.3883 2.792C72.1643 2.99467 71.8443 3.096 71.4283 3.096C71.0229 3.096 70.7189 2.984 70.5163 2.76C70.3136 2.52533 70.2122 2.25333 70.2122 1.944C70.2122 1.53867 70.3349 1.23467 70.5803 1.032C70.8256 0.829333 71.1456 0.728 71.5403 0.728ZM71.6363 4.296C71.9776 4.296 72.2443 4.616 72.4363 5.256C72.6389 5.896 72.7403 6.91467 72.7403 8.312C72.7403 10.0293 72.6176 11.2667 72.3723 12.024C72.1269 12.7813 71.7536 13.16 71.2523 13.16C70.8683 13.16 70.5856 12.8827 70.4043 12.328C70.2229 11.7627 70.1323 10.7813 70.1323 9.384C70.1323 7.66667 70.2709 6.392 70.5483 5.56C70.8363 4.71733 71.1989 4.296 71.6363 4.296ZM77.3988 3.368H77.0788C77.0468 2.89867 77.0574 2.456 77.1108 2.04C77.1641 1.61333 77.2761 1.272 77.4468 1.016C77.6281 0.749333 77.8841 0.615999 78.2148 0.615999C78.5134 0.615999 78.7321 0.711999 78.8708 0.903999C79.0094 1.096 79.0788 1.36267 79.0788 1.704C79.0788 2.376 78.9508 2.952 78.6948 3.432L78.4068 3.4C78.9828 3.19733 79.6334 3.096 80.3588 3.096C80.8174 3.096 81.1801 3.18667 81.4468 3.368C81.7241 3.53867 81.8628 3.832 81.8628 4.248C81.8628 4.64267 81.7028 4.94133 81.3828 5.144C81.0628 5.34667 80.6628 5.448 80.1828 5.448C79.8948 5.448 79.5854 5.43733 79.2548 5.416C78.9348 5.384 78.6201 5.336 78.3108 5.272L78.5828 4.936C78.6788 5.34133 78.7694 5.80533 78.8548 6.328C78.9508 6.84 79.0361 7.37333 79.1108 7.928C79.1854 8.48267 79.2441 9.02133 79.2868 9.544C79.3294 10.0667 79.3508 10.536 79.3508 10.952C79.3508 11.6347 79.2441 12.1733 79.0308 12.568C78.8174 12.9627 78.5028 13.16 78.0868 13.16C77.7561 13.16 77.4948 13.0587 77.3028 12.856C77.1214 12.6533 76.9881 12.3973 76.9028 12.088C76.8281 11.768 76.7801 11.4373 76.7588 11.096C76.7481 10.7547 76.7428 10.4453 76.7428 10.168C76.7428 9.69867 76.7641 9.17067 76.8068 8.584C76.8494 7.98667 76.9081 7.37333 76.9828 6.744C77.0681 6.11467 77.1641 5.50667 77.2708 4.92L77.5908 5.192C77.0468 5.46933 76.3748 5.608 75.5748 5.608C75.0841 5.608 74.7054 5.51733 74.4388 5.336C74.1721 5.15467 74.0388 4.872 74.0388 4.488C74.0388 4.072 74.1881 3.752 74.4868 3.528C74.7854 3.29333 75.1854 3.176 75.6868 3.176C76.0174 3.176 76.3268 3.19733 76.6148 3.24C76.9134 3.272 77.1748 3.31467 77.3988 3.368ZM84.5715 0.728C84.9982 0.728 85.3022 0.845333 85.4835 1.08C85.6755 1.31467 85.7715 1.58667 85.7715 1.896C85.7715 2.28 85.6542 2.57867 85.4195 2.792C85.1955 2.99467 84.8755 3.096 84.4595 3.096C84.0542 3.096 83.7502 2.984 83.5475 2.76C83.3448 2.52533 83.2435 2.25333 83.2435 1.944C83.2435 1.53867 83.3662 1.23467 83.6115 1.032C83.8568 0.829333 84.1768 0.728 84.5715 0.728ZM84.6675 4.296C85.0088 4.296 85.2755 4.616 85.4675 5.256C85.6702 5.896 85.7715 6.91467 85.7715 8.312C85.7715 10.0293 85.6488 11.2667 85.4035 12.024C85.1582 12.7813 84.7848 13.16 84.2835 13.16C83.8995 13.16 83.6168 12.8827 83.4355 12.328C83.2542 11.7627 83.1635 10.7813 83.1635 9.384C83.1635 7.66667 83.3022 6.392 83.5795 5.56C83.8675 4.71733 84.2302 4.296 84.6675 4.296ZM90.782 12.744C89.7793 12.744 88.9633 12.36 88.334 11.592C87.7047 10.8133 87.39 9.63467 87.39 8.056C87.39 6.37067 87.694 5.13867 88.302 4.36C88.91 3.58133 89.71 3.192 90.702 3.192C91.2887 3.192 91.806 3.34133 92.254 3.64C92.702 3.93867 93.086 4.36 93.406 4.904L93.278 5.128C93.246 4.97867 93.2193 4.81867 93.198 4.648C93.1767 4.47733 93.166 4.34933 93.166 4.264C93.166 3.82667 93.2353 3.49067 93.374 3.256C93.5233 3.01067 93.7527 2.888 94.062 2.888C94.4033 2.888 94.67 3.02667 94.862 3.304C95.0647 3.58133 95.2193 3.976 95.326 4.488C95.4647 5.01067 95.582 5.67733 95.678 6.488C95.774 7.288 95.822 8.09867 95.822 8.92C95.822 9.944 95.7847 10.8027 95.71 11.496C95.6353 12.1893 95.5127 12.7653 95.342 13.224C95.1713 13.6827 94.9473 14.0827 94.67 14.424C94.2113 14.9787 93.6193 15.4 92.894 15.688C92.1793 15.9867 91.3527 16.136 90.414 16.136C89.742 16.136 89.2033 16.072 88.798 15.944C88.3927 15.8267 88.0993 15.6613 87.918 15.448C87.7473 15.2453 87.662 15.016 87.662 14.76C87.662 14.4933 87.7367 14.2693 87.886 14.088C88.0353 13.9173 88.2593 13.832 88.558 13.832C88.8247 13.832 89.134 13.8747 89.486 13.96C89.8487 14.0453 90.2753 14.088 90.766 14.088C91.8007 14.088 92.5313 13.8427 92.958 13.352C93.3953 12.872 93.614 12.1787 93.614 11.272C93.614 11.0267 93.598 10.7387 93.566 10.408L93.79 10.488C93.5233 11.1707 93.1287 11.72 92.606 12.136C92.0833 12.5413 91.4753 12.744 90.782 12.744ZM91.39 10.776C91.7313 10.776 92.0727 10.6853 92.414 10.504C92.7553 10.3227 93.038 10.024 93.262 9.608C93.486 9.192 93.598 8.632 93.598 7.928C93.598 7.08533 93.4007 6.39733 93.006 5.864C92.6113 5.33067 92.0567 5.064 91.342 5.064C90.7233 5.064 90.27 5.29867 89.982 5.768C89.694 6.23733 89.55 6.94667 89.55 7.896C89.55 8.80267 89.694 9.512 89.982 10.024C90.27 10.5253 90.7393 10.776 91.39 10.776ZM104.765 13.16C104.402 13.16 104.152 13.0213 104.013 12.744C103.885 12.456 103.81 12.0027 103.789 11.384L103.949 11.464C103.352 12.6267 102.221 13.208 100.557 13.208C99.7995 13.208 99.1702 13.0747 98.6689 12.808C98.1675 12.5307 97.7942 12.168 97.5489 11.72C97.3142 11.2613 97.1969 10.7653 97.1969 10.232C97.1969 9.31467 97.5169 8.58933 98.1569 8.056C98.7969 7.512 99.6449 7.24 100.701 7.24C101.394 7.24 101.997 7.34133 102.509 7.544C103.021 7.74667 103.458 8.02933 103.821 8.392L103.549 8.36C103.474 7.28267 103.24 6.51467 102.845 6.056C102.461 5.58667 101.912 5.352 101.197 5.352C100.781 5.352 100.397 5.416 100.045 5.544C99.6929 5.672 99.3675 5.80533 99.0689 5.944C98.7809 6.072 98.5089 6.136 98.2529 6.136C97.9969 6.136 97.7942 6.05067 97.6449 5.88C97.5062 5.70933 97.4369 5.49067 97.4369 5.224C97.4369 4.84 97.6182 4.47733 97.9809 4.136C98.3542 3.79467 98.8449 3.51733 99.4529 3.304C100.061 3.09067 100.722 2.984 101.437 2.984C102.301 2.984 103.042 3.192 103.661 3.608C104.28 4.024 104.749 4.632 105.069 5.432C105.346 6.11467 105.544 6.87733 105.661 7.72C105.778 8.56267 105.837 9.464 105.837 10.424C105.837 11.1493 105.8 11.7093 105.725 12.104C105.65 12.4987 105.533 12.776 105.373 12.936C105.224 13.0853 105.021 13.16 104.765 13.16ZM101.229 11.368C101.581 11.368 101.938 11.32 102.301 11.224C102.664 11.1173 102.968 10.9627 103.213 10.76C103.458 10.5573 103.581 10.3067 103.581 10.008C103.581 9.752 103.474 9.544 103.261 9.384C103.058 9.21333 102.786 9.08533 102.445 9C102.114 8.91467 101.757 8.872 101.373 8.872C100.722 8.872 100.226 8.984 99.8849 9.208C99.5542 9.432 99.3889 9.73067 99.3889 10.104C99.3889 10.5093 99.5435 10.824 99.8529 11.048C100.173 11.2613 100.632 11.368 101.229 11.368Z" fill="black"/>
</svg>
