<svg version="1.1" xmlns="http://www.w3.org/2000/svg" xmlns:xlink="http://www.w3.org/1999/xlink" width="720" height="540" viewBox="0,0,720,540"><defs><clipPath id="clip-1"><rect x="-240" y="-180" transform="scale(0.5,0.5)" width="1440" height="1080" fill="none" stroke-width="0.5"/></clipPath></defs><g transform="translate(120,90)"><g clip-path="url(#clip-1)" data-paper-data="{&quot;isPaintingLayer&quot;:true}" fill-rule="nonzero" stroke="none" stroke-linecap="butt" stroke-linejoin="miter" stroke-miterlimit="10" stroke-dasharray="" stroke-dashoffset="0" style="mix-blend-mode: normal"><path d="M245.48438,168.3125c0.65056,0 1.27452,0.25846 1.7346,0.7185c0.46008,0.46006 0.71852,1.08401 0.71852,1.73462v14.71875c0,0.65056 -0.25844,1.27452 -0.71852,1.7346c-0.46008,0.46008 -1.08404,0.71852 -1.7346,0.71852h-14.71875c-0.65061,0 -1.27458,-0.25844 -1.73462,-0.71852c-0.46006,-0.46008 -0.7185,-1.08404 -0.7185,-1.7346v-14.71875c0,-0.65061 0.25846,-1.27458 0.7185,-1.73462c0.46006,-0.46006 1.08401,-0.7185 1.73462,-0.7185zM236.06438,175.71236c0.16927,0 0.30419,-0.13861 0.32627,-0.30663c0.10916,-0.80463 0.66113,-1.39092 1.64604,-1.39092c0.84142,0 1.61171,0.42071 1.61171,1.43263c0,0.77888 -0.45996,1.13703 -1.18362,1.68163c-0.82547,0.59979 -1.47923,1.30015 -1.43263,2.43718l0.0049,0.26616c0.00129,0.08047 0.03417,0.15721 0.09153,0.21368c0.05737,0.05645 0.13463,0.08808 0.21512,0.08808h0.99352c0.08132,0 0.15932,-0.0323 0.21682,-0.08981c0.05751,-0.05751 0.08981,-0.1355 0.08981,-0.21682v-0.12879c0,-0.88067 0.33486,-1.13703 1.23883,-1.82267c0.74697,-0.56789 1.52585,-1.19836 1.52585,-2.52304c0,-1.85212 -1.5651,-2.7475 -3.27738,-2.7475c-1.55529,0 -3.25653,0.72489 -3.37182,2.80392c-0.00167,0.03951 0.00474,0.07895 0.01883,0.11589c0.01409,0.03694 0.03557,0.07062 0.06312,0.09898c0.02757,0.02836 0.0606,0.05081 0.09713,0.06594c0.03653,0.01514 0.07576,0.02269 0.11529,0.02214zM239.16758,182.47807c0,-0.67706 -0.51393,-1.15296 -1.2609,-1.15296c-0.71754,0 -1.23883,0.4759 -1.23883,1.15296c0,0.65376 0.52129,1.13703 1.23761,1.13703c0.74697,0 1.26212,-0.48327 1.26212,-1.13703z" fill="#699bf7" stroke-width="1"/></g></g></svg>