<svg version="1.1" xmlns="http://www.w3.org/2000/svg" xmlns:xlink="http://www.w3.org/1999/xlink" width="21.91058" height="26.80214" viewBox="0,0,21.91058,26.80214"><g transform="translate(-229.04471,-166.59893)"><g data-paper-data="{&quot;isPaintingLayer&quot;:true}" fill-rule="evenodd" stroke="none" stroke-width="1" stroke-linecap="butt" stroke-linejoin="miter" stroke-miterlimit="10" stroke-dasharray="" stroke-dashoffset="0" style="mix-blend-mode: normal"><path d="M245.75671,183.88846l-0.49744,-2.12946l-6.50931,1.26348l-0.3411,2.10106c0.22741,-0.04259 7.34785,-1.24928 7.34785,-1.23509z" fill="#000000"/><g><path d="M237.78708,172.27192c-0.21317,-0.55367 -1.86183,-0.88017 -1.52072,0.24134c0.34109,1.12152 1.52072,0.79499 1.52072,0.79499c0,0 0.11371,-0.76659 0,-1.03634z" fill="#824600"/><path d="M236.67852,171.50531c-0.0142,1.20669 0.49745,2.28561 1.00908,2.83928c0.88118,0.92276 2.61509,0.73822 3.0699,0.59626c0.83854,-0.26973 1.63442,-1.46224 2.10344,-2.56956c0.14213,-0.42591 0.27004,-0.86598 0.36952,-1.32029l-3.9937,-2.18625c0,0 -1.81919,0.38331 -1.91867,0.52527c-0.14213,0.17035 -0.63957,1.27768 -0.63957,2.11528z" fill="#a0640a"/><path d="M243.62841,168.48148l-0.1279,-0.0852c0.19897,-0.49686 0.61111,-1.26348 -0.199,-1.43383c-0.49743,-0.09937 -1.20805,0.45428 -1.35018,0.89437c-0.08528,0.04259 -0.08528,0.0426 -0.17055,-0.01417c0.05687,-0.3691 0.22741,-0.83759 -0.08527,-1.12152c-0.92382,-0.52527 -1.3644,0.78081 -1.90446,1.30605l-0.12792,-0.01418c-0.09948,-0.41171 0.18477,-0.97955 -0.42638,-0.99375c-0.41217,-0.01418 -0.59693,0.34071 -0.79591,0.61045c-0.49743,0.63885 -1.17964,1.77457 -1.17964,1.77457c0,0 0,0.70982 1.06594,0.89437c0.52587,0.09937 1.44966,-0.4543 2.8567,0.09937c1.40702,0.55367 1.39282,2.47017 1.39282,2.47017c0,0 1.54917,-2.85348 1.73394,-3.26516c0.14213,-0.31234 0.52587,-1.20672 0.19897,-1.47643c-0.24161,-0.19874 -0.66798,0.22714 -0.88118,0.35492z" fill="#000000"/><path d="M242.3635,173.20889c0,0 1.17962,0.32651 1.52073,-0.79501c0.34109,-1.12152 -1.30756,-0.79499 -1.52073,-0.24132c-0.09948,0.26971 0,1.03634 0,1.03634z" fill="#a0640a"/><path d="M240.16056,172.92494c-0.61111,0.05679 -1.16541,0.28394 -1.73392,0.52527c0.28425,0.96537 2.30242,0.35492 1.73392,-0.52527z" fill="#000000"/><path d="M239.052,172.62683c0.34109,-0.61045 -0.98067,-1.16412 -1.1512,-0.26973c-0.11371,0.69562 0.73904,0.3691 1.1512,0.26973z" fill="#824600"/><g fill="#000000"><path d="M240.19976,172.01451l0.08528,0.19874h0.14213c0.04264,-0.24134 -0.14213,-0.61045 -0.22741,-0.19874z"/><path d="M237.12986,172.52559l0.12792,-0.01418l0.04264,-0.28393c-0.08528,-0.09939 -0.08528,-0.09939 -0.17055,-0.07099c-0.04264,0.11357 -0.04264,0.24134 0,0.36911z"/></g></g><g><path d="M250.95441,181.09634c0.0274,-0.11818 -0.58976,-1.65396 -1.65133,-2.64987c-1.2983,-1.20455 -3.12389,-1.92435 -3.88879,-2.21145l-1.41518,2.12769c0.89474,0.16886 1.98248,0.27855 2.27419,0.35325c0.49672,0.12576 2.05821,0.80633 2.03853,0.81027c0.28004,0.16922 0.5522,0.35025 0.78111,0.57069c0.17759,0.16926 0.46193,0.56298 0.59616,0.72047c0.38688,0.44486 0.51738,0.73625 0.60004,0.68894c0.05113,-0.05123 -0.34788,-0.70877 -0.22183,-0.74431c0.12602,-0.03553 0.49361,0.66933 0.58414,0.6102c0.12206,-0.05522 -0.33614,-0.75213 -0.15887,-0.78766c0.16543,-0.04342 0.41103,0.76781 0.46185,0.51177z" fill="#a0640a"/><path d="M245.22943,178.92528c0.03145,-0.04728 1.03568,-2.8916 1.03568,-2.8916c0,0 -2.25104,-0.64473 -2.88163,-0.72317c0,0 -2.80243,-0.48291 -3.14277,1.08096c-0.34034,1.56386 1.50022,1.79919 1.50022,1.79919c-0.0394,0.00789 3.29929,0.71112 3.48849,0.73463z" fill="#be0a3c"/><path d="M249.52998,179.87611c-0.29186,-0.17709 -0.55944,0.0712 -0.55944,0.0712c0,0 0.28167,1.19328 0.4235,1.18533c0.13,-0.01583 0.10196,-0.30728 0.12515,-0.59877c0.43737,-0.016 0.32234,-0.48462 0.01078,-0.65776z" fill="#824600"/></g><g><path d="M230.29953,179.9993c-0.21087,0.42274 1.53335,1.14094 1.71586,1.17213c-0.07943,-0.18714 -1.50861,-1.2528 -1.71586,-1.17213z" fill="#824600"/><path d="M239.19154,180.88678l-2.22718,-1.34798c-0.40177,0.63331 -1.15433,1.08287 -1.82016,1.24653c-0.52731,0.1166 -1.54392,0.0965 -2.07802,0.07265c-1.16757,-0.02269 -3.71997,-0.6104 -3.73519,-0.50908c-0.01522,0.10132 0.82855,0.29085 0.81531,0.43231c-0.01328,0.14145 -1.08942,-0.27796 -1.10073,-0.09639c-0.01134,0.18158 0.99297,0.36318 0.8852,0.62999c-0.10776,0.26678 -0.92309,-0.16552 -0.88474,0.00354c0.03834,0.16906 3.24377,1.36808 4.85483,1.62022c0.8514,0.13889 1.73322,0.07516 2.55471,-0.19678c0.68394,-0.20479 2.29213,-1.25984 2.73601,-1.85501z" fill="#a0640a"/><path d="M241.74414,176.48654c0,0 -0.09526,-0.93053 -1.73482,-0.93992c-1.63954,-0.00939 -2.22858,1.95057 -2.22858,1.95057c-0.4052,1.1866 -1.24143,2.19338 -1.24143,2.19338l2.02035,2.06215c0,0 0.53006,-0.26758 1.46648,-1.4905c0.93641,-1.22293 1.69988,-3.73456 1.71801,-3.77567z" fill="#f01446"/></g><g><g><path d="M238.41045,187.91008c0.22442,-0.34268 0.58461,-0.51141 0.91312,-0.68213c0.09768,-0.35052 -1.0345,-1.92296 -1.30431,-2.19429c-0.59745,0.40878 -1.20434,0.86792 -1.58789,1.52545c0.13551,0.28212 0.69629,0.47593 0.94573,0.66324c0.32398,0.21738 0.65714,0.4926 1.03335,0.68774z" fill="#a0640a"/><path d="M239.25857,183.48669l-2.0275,1.32641l2.2573,2.94709l1.99602,-1.43658c0,0 1.17651,-0.93329 0.11858,-2.36747c-1.06904,-1.4603 -2.3314,-0.47505 -2.34445,-0.46949z" fill="#000000"/></g><g><path d="M239.51406,191.84298l-0.77884,0.67135c-0.11971,0.18996 -0.4225,0.566 -0.54031,0.72427l0.05374,0.16248c0.14005,-0.10597 1.49192,-1.09843 1.4885,-1.25144l-0.0835,-0.19617c-0.05394,-0.05426 -0.05394,-0.05426 -0.1396,-0.11048z" fill="#000000"/><path d="M237.07861,191.19596c0.53401,0.52957 1.04404,0.93034 1.67525,1.32586l0.77884,-0.67135c-0.69824,-0.44421 -1.38639,-1.26346 -1.50024,-2.11088c-0.03807,-0.52441 0.06367,-1.04658 0.32004,-1.49549c0.04304,-0.08011 0.19635,-0.29983 0.25805,-0.37242l-2.22445,-1.70994c-0.21137,0.33713 -0.59516,1.1029 -0.67611,1.49262c-0.0527,0.23866 -0.00689,0.63623 0.11897,1.07696c0.06611,0.48155 0.21811,0.91116 0.41488,1.33715c0.02783,0.06536 0.52219,0.82808 0.83478,1.12752z" fill="#f01446"/></g><path d="M235.83963,186.9813l2.5009,1.45325l0.15913,-0.31487l-2.44651,-1.61543z" fill="#f5cfcf"/><path d="M235.63953,188.17863l2.5042,0.77222l0.09768,-0.35052l-2.62276,-1.12334z" fill="#f5cfcf"/></g><path d="M238.49414,183.44837l7.6463,-0.66723c0,0 -1.43547,-4.01759 -2.23136,-5.63598c-0.15633,-0.34071 -1.20805,-1.50482 -1.2649,-1.54741c-0.54008,-0.39749 -1.33597,-0.58205 -1.98975,-0.63884c-1.96131,-0.17035 -3.02726,1.95911 -2.98462,3.69107c0.02843,0.92276 0.83854,4.79838 0.82431,4.79838z" fill="#f01446"/><g><g><path d="M245.60413,187.7026c-0.17244,-0.37156 -0.12552,-0.76653 -0.09697,-1.13563c-0.24607,-0.26806 -2.17927,-0.13716 -2.55216,-0.05137c0.03156,0.72322 0.10091,1.48106 0.45669,2.15402c0.31115,0.03394 0.77189,-0.3399 1.06269,-0.45277c0.35569,-0.1603 0.76537,-0.29782 1.12976,-0.51424z" fill="#a0640a"/><path d="M242.29594,184.6462l0.0555,2.42219l3.69473,-0.36029l-0.16567,-2.45366c0,0 -0.17113,-1.49195 -1.94769,-1.35107c-1.80464,0.1365 -1.63472,1.72882 -1.63689,1.74284z" fill="#000000"/></g><g><path d="M249.52663,188.84262l0.15873,1.01593c0.09808,0.20199 0.25746,0.6577 0.32964,0.84134l0.16635,0.04019c-0.01602,-0.17488 -0.14477,-1.84701 -0.27651,-1.92492l-0.21068,-0.03271c-0.07456,0.01715 -0.07456,0.01715 -0.16754,0.06019z" fill="#000000"/><path d="M247.69093,190.56898c0.73173,-0.17375 1.34139,-0.39519 2.01064,-0.72228l-0.15873,-1.01593c-0.74599,0.3583 -1.80508,0.50997 -2.58481,0.15907c-0.46541,-0.24464 -0.85507,-0.60682 -1.10087,-1.06162c-0.04529,-0.07886 -0.15089,-0.32511 -0.17996,-0.4158l-2.62685,0.98579c0.17463,0.35754 0.62219,1.08787 0.91037,1.36247c0.17483,0.1708 0.53663,0.34188 0.97733,0.46777c0.44383,0.1982 0.88892,0.29604 1.35457,0.35394c0.0702,0.01091 0.97897,-0.00605 1.39831,-0.11336z" fill="#f01446"/></g><path d="M243.45768,189.39508l2.55488,-1.35612l-0.18333,-0.30143l-2.66387,1.22427z" fill="#f5cfcf"/><path d="M244.36871,190.19736l1.97831,-1.71859l-0.24607,-0.26806l-2.3391,1.63382z" fill="#f5cfcf"/></g></g></g></svg>