<svg version="1.1" xmlns="http://www.w3.org/2000/svg" xmlns:xlink="http://www.w3.org/1999/xlink" width="142.45879" height="74.70778" viewBox="0,0,142.45879,74.70778"><g transform="translate(-168.77061,-142.14489)"><g data-paper-data="{&quot;isPaintingLayer&quot;:true}" fill-rule="nonzero" stroke-linejoin="miter" stroke-miterlimit="10" stroke-dashoffset="0" style="mix-blend-mode: normal"><path d="M294.29823,204.91671l-124.24214,0.23584l15.64536,-61.76934l124.24245,-0.23588z" fill="none" stroke="#73d16e" stroke-width="2" stroke-linecap="round" stroke-dasharray=""/><path d="M230.13532,216.82158c-0.23491,0 -0.39718,-0.08984 -0.48702,-0.26941c-0.0829,-0.18652 -0.13129,-0.48007 -0.14507,-0.88078l0.10362,0.05181c-0.38682,0.75301 -1.1191,1.12946 -2.19676,1.12946c-0.49044,0 -0.89808,-0.08632 -1.22272,-0.25905c-0.32464,-0.17957 -0.56649,-0.41448 -0.72534,-0.70462c-0.15201,-0.29708 -0.22797,-0.6183 -0.22797,-0.96367c0,-0.59406 0.20724,-1.06387 0.62172,-1.40924c0.41448,-0.35231 0.96367,-0.52847 1.64757,-0.52847c0.44899,0 0.83933,0.06559 1.17091,0.19688c0.33159,0.13129 0.61478,0.31428 0.84969,0.54919l-0.17616,-0.02072c-0.04839,-0.69768 -0.2003,-1.19506 -0.45593,-1.49214c-0.24869,-0.30392 -0.60442,-0.45593 -1.06729,-0.45593c-0.26941,0 -0.5181,0.04145 -0.74607,0.12434c-0.22797,0.0829 -0.43863,0.16921 -0.63209,0.25905c-0.18652,0.0829 -0.36267,0.12434 -0.52847,0.12434c-0.16579,0 -0.29708,-0.05523 -0.39376,-0.16579c-0.08984,-0.11056 -0.13471,-0.25211 -0.13471,-0.42484c0,-0.24869 0.1174,-0.4836 0.35231,-0.70462c0.24175,-0.22102 0.55955,-0.4007 0.95331,-0.53883c0.39376,-0.13813 0.82202,-0.20724 1.2849,-0.20724c0.55955,0 1.03963,0.13471 1.44033,0.40412c0.4007,0.26941 0.70462,0.66317 0.91186,1.18127c0.17957,0.44215 0.30744,0.936 0.3834,1.48177c0.07595,0.54577 0.11398,1.12946 0.11398,1.75119c0,0.46971 -0.02414,0.83238 -0.07253,1.08802c-0.04839,0.25563 -0.12434,0.43521 -0.22797,0.53883c-0.09668,0.09668 -0.22797,0.14507 -0.39376,0.14507zM227.8453,215.66103c0.22797,0 0.45935,-0.03109 0.69426,-0.09326c0.23491,-0.06911 0.43179,-0.16921 0.59064,-0.3005c0.15885,-0.13129 0.23833,-0.29356 0.23833,-0.48702c0,-0.16579 -0.06911,-0.3005 -0.20724,-0.40412c-0.13129,-0.11056 -0.30744,-0.19346 -0.52847,-0.24869c-0.21418,-0.05523 -0.44557,-0.0829 -0.69426,-0.0829c-0.42143,0 -0.74265,0.07253 -0.96367,0.2176c-0.21418,0.14507 -0.32122,0.33853 -0.32122,0.58028c0,0.26247 0.1002,0.46629 0.3005,0.61136c0.20724,0.13813 0.50432,0.20724 0.89114,0.20724zM233.21264,216.73869c-0.21418,0 -0.3834,-0.04839 -0.50774,-0.14507c-0.12434,-0.10362 -0.22455,-0.27283 -0.3005,-0.50774c-0.10362,-0.34537 -0.1831,-0.78057 -0.23833,-1.30562c-0.04839,-0.53188 -0.07253,-1.18469 -0.07253,-1.95843c0,-0.47665 0.0172,-0.95331 0.05181,-1.42996c0.04145,-0.4836 0.09326,-0.92222 0.15543,-1.31598c0.06217,-0.4007 0.12776,-0.71156 0.19688,-0.93259c0.07595,-0.23491 0.16579,-0.39718 0.26941,-0.48702c0.10362,-0.08984 0.22102,-0.13471 0.35231,-0.13471c0.13813,0 0.24869,0.04839 0.33159,0.14507c0.0829,0.08984 0.14849,0.25211 0.19688,0.48702c0.04145,0.22797 0.07253,0.50774 0.09326,0.83933c0.02756,0.33159 0.04145,0.68732 0.04145,1.06729c0,0.5181 -0.02425,1.06387 -0.07253,1.63721c-0.04839,0.57333 -0.11398,1.13641 -0.19688,1.68902c-0.07606,0.55261 -0.16932,1.06035 -0.27978,1.52322l-0.29014,-0.14507c0.17957,-0.22102 0.3834,-0.39376 0.61136,-0.5181c0.2348,-0.12434 0.44899,-0.18652 0.64245,-0.18652c0.15885,0 0.27978,0.04487 0.36267,0.13471c0.08974,0.0829 0.13471,0.21418 0.13471,0.39376c0,0.17957 -0.07948,0.35925 -0.23833,0.53883c-0.15201,0.17957 -0.34195,0.32817 -0.56991,0.44557c-0.22797,0.11056 -0.45251,0.16579 -0.67353,0.16579zM240.16341,216.82158c-0.2348,0 -0.39718,-0.08984 -0.48702,-0.26941c-0.0829,-0.18652 -0.13118,-0.48007 -0.14507,-0.88078l0.10362,0.05181c-0.38682,0.75301 -1.1191,1.12946 -2.19676,1.12946c-0.49044,0 -0.89798,-0.08632 -1.22272,-0.25905c-0.32464,-0.17957 -0.56639,-0.41448 -0.72534,-0.70462c-0.15191,-0.29708 -0.22797,-0.6183 -0.22797,-0.96367c0,-0.59406 0.20724,-1.06387 0.62172,-1.40924c0.41448,-0.35231 0.96367,-0.52847 1.64757,-0.52847c0.44909,0 0.83933,0.06559 1.17091,0.19688c0.33159,0.13129 0.61488,0.31428 0.84969,0.54919l-0.17616,-0.02072c-0.04829,-0.69768 -0.2003,-1.19506 -0.45593,-1.49214c-0.24869,-0.30392 -0.60442,-0.45593 -1.06729,-0.45593c-0.26941,0 -0.5181,0.04145 -0.74607,0.12434c-0.22797,0.0829 -0.43863,0.16921 -0.63209,0.25905c-0.18652,0.0829 -0.36267,0.12434 -0.52847,0.12434c-0.16579,0 -0.29698,-0.05523 -0.39376,-0.16579c-0.08974,-0.11056 -0.13471,-0.25211 -0.13471,-0.42484c0,-0.24869 0.11751,-0.4836 0.35231,-0.70462c0.24185,-0.22102 0.55955,-0.4007 0.95331,-0.53883c0.39376,-0.13813 0.82213,-0.20724 1.2849,-0.20724c0.55955,0 1.03973,0.13471 1.44033,0.40412c0.4007,0.26941 0.70462,0.66317 0.91186,1.18127c0.17968,0.44215 0.30744,0.936 0.3834,1.48177c0.07606,0.54577 0.11398,1.12946 0.11398,1.75119c0,0.46971 -0.02414,0.83238 -0.07253,1.08802c-0.04829,0.25563 -0.12434,0.43521 -0.22797,0.53883c-0.09668,0.09668 -0.22797,0.14507 -0.39376,0.14507zM237.87339,215.66103c0.22797,0 0.45945,-0.03109 0.69426,-0.09326c0.23491,-0.06911 0.43179,-0.16921 0.59064,-0.3005c0.15895,-0.13129 0.23833,-0.29356 0.23833,-0.48702c0,-0.16579 -0.06901,-0.3005 -0.20724,-0.40412c-0.13118,-0.11056 -0.30734,-0.19346 -0.52847,-0.24869c-0.21408,-0.05523 -0.44557,-0.0829 -0.69426,-0.0829c-0.42132,0 -0.74255,0.07253 -0.96367,0.2176c-0.21408,0.14507 -0.32122,0.33853 -0.32122,0.58028c0,0.26247 0.1002,0.46629 0.3005,0.61136c0.20724,0.13813 0.50432,0.20724 0.89114,0.20724zM244.74323,210.23131c0.61478,0 1.05693,0.08984 1.32634,0.26941c0.26941,0.17957 0.40412,0.41106 0.40412,0.69426c0,0.16579 -0.05875,0.30392 -0.17616,0.41448c-0.11056,0.10362 -0.26941,0.15543 -0.47665,0.15543c-0.21418,0 -0.43863,-0.03109 -0.67353,-0.09326c-0.22797,-0.06217 -0.49396,-0.09326 -0.79788,-0.09326c-0.35231,0 -0.61478,0.06911 -0.78752,0.20724c-0.17274,0.13813 -0.25905,0.31428 -0.25905,0.52847c0,0.2003 0.07595,0.35925 0.22797,0.47665c0.15885,0.11056 0.45935,0.19346 0.9015,0.24869c0.49044,0.05523 0.89456,0.14507 1.21236,0.26941c0.32464,0.1174 0.56649,0.29708 0.72534,0.53883c0.15885,0.23491 0.23833,0.55955 0.23833,0.97403c0,0.65623 -0.23138,1.14325 -0.69426,1.46105c-0.46287,0.3178 -1.1018,0.47665 -1.91698,0.47665c-0.5181,0 -0.92917,-0.04145 -1.23309,-0.12434c-0.30392,-0.0829 -0.52505,-0.2003 -0.66317,-0.35231c-0.13129,-0.15201 -0.19688,-0.33159 -0.19688,-0.53883c0,-0.17957 0.05875,-0.3178 0.17616,-0.41448c0.12434,-0.10362 0.26941,-0.15543 0.43521,-0.15543c0.15885,0 0.32817,0.02072 0.50774,0.06217c0.17957,0.03451 0.36961,0.07253 0.56991,0.11398c0.2003,0.04145 0.40754,0.06217 0.62172,0.06217c0.69084,0 1.03621,-0.21418 1.03621,-0.64245c0,-0.14507 -0.03451,-0.26247 -0.10362,-0.35231c-0.06911,-0.08984 -0.19346,-0.16237 -0.37303,-0.2176c-0.17957,-0.06217 -0.44215,-0.11056 -0.78752,-0.14507c-0.41448,-0.04145 -0.77374,-0.11056 -1.07765,-0.20724c-0.30392,-0.10362 -0.53883,-0.26941 -0.70462,-0.49738c-0.16579,-0.23491 -0.24869,-0.55613 -0.24869,-0.96367c0,-0.64245 0.24175,-1.16055 0.72534,-1.55431c0.4836,-0.4007 1.17091,-0.601 2.06205,-0.601z" fill="#000000" stroke="none" stroke-width="1" stroke-linecap="butt" stroke-dasharray=""/><path d="M264.57487,143.14733v61.42028" fill="none" stroke="#ea3737" stroke-width="2" stroke-linecap="butt" stroke-dasharray="4,4"/><path d="M233.57552,170.06797h-0.20724c-0.02072,-0.30392 -0.01378,-0.59064 0.02072,-0.86005c0.03451,-0.27636 0.10704,-0.49738 0.2176,-0.66317c0.1174,-0.17274 0.2832,-0.25905 0.49738,-0.25905c0.19346,0 0.33501,0.06217 0.42484,0.18652c0.08984,0.12434 0.13471,0.29708 0.13471,0.5181c0,0.43521 -0.0829,0.80824 -0.24869,1.1191l-0.18652,-0.02072c0.37303,-0.13129 0.79446,-0.19688 1.26417,-0.19688c0.29708,0 0.53188,0.05875 0.70462,0.17616c0.17957,0.11056 0.26941,0.3005 0.26941,0.56991c0,0.25563 -0.10362,0.44899 -0.31086,0.58028c-0.20724,0.13129 -0.46629,0.19688 -0.77715,0.19688c-0.18652,0 -0.38682,-0.00694 -0.601,-0.02072c-0.20724,-0.02072 -0.41106,-0.05181 -0.61136,-0.09326l0.17616,-0.2176c0.06217,0.26247 0.12093,0.56297 0.17616,0.9015c0.06217,0.33159 0.1174,0.67695 0.16579,1.03621c0.04839,0.35925 0.08632,0.70804 0.11398,1.04657c0.02767,0.33853 0.04145,0.64245 0.04145,0.91186c0,0.44215 -0.06911,0.79094 -0.20724,1.04657c-0.13813,0.25563 -0.34195,0.3834 -0.61136,0.3834c-0.21418,0 -0.3834,-0.06559 -0.50774,-0.19688c-0.1174,-0.13129 -0.20382,-0.29708 -0.25905,-0.49738c-0.04839,-0.20724 -0.07948,-0.42143 -0.09326,-0.64245c-0.00694,-0.22102 -0.01036,-0.42143 -0.01036,-0.601c0,-0.30392 0.01378,-0.64587 0.04145,-1.02584c0.02767,-0.38682 0.06559,-0.7841 0.11398,-1.19164c0.05523,-0.40754 0.1174,-0.8013 0.18652,-1.18127l0.20724,0.17616c-0.35231,0.17957 -0.78752,0.26941 -1.30562,0.26941c-0.3178,0 -0.56297,-0.05875 -0.73571,-0.17616c-0.17274,-0.1174 -0.25905,-0.3005 -0.25905,-0.54919c0,-0.26941 0.09668,-0.47665 0.29014,-0.62172c0.19346,-0.15201 0.45251,-0.22797 0.77715,-0.22797c0.21418,0 0.41448,0.01378 0.601,0.04145c0.19346,0.02072 0.36267,0.04839 0.50774,0.0829zM238.22083,168.35823c0.27625,0 0.47313,0.07595 0.59064,0.22797c0.12434,0.15201 0.18652,0.32817 0.18652,0.52847c0,0.24869 -0.07606,0.44215 -0.22797,0.58028c-0.14507,0.13129 -0.35231,0.19688 -0.62172,0.19688c-0.26257,0 -0.45945,-0.07253 -0.59064,-0.2176c-0.13129,-0.15201 -0.19688,-0.32817 -0.19688,-0.52847c0,-0.26247 0.07937,-0.45935 0.23833,-0.59064c0.15885,-0.13129 0.36609,-0.19688 0.62172,-0.19688zM238.28301,170.66896c0.22102,0 0.39376,0.20724 0.5181,0.62172c0.13118,0.41448 0.19688,1.07423 0.19688,1.97915c0,1.11216 -0.07948,1.91356 -0.23833,2.404c-0.15895,0.49044 -0.4007,0.73571 -0.72534,0.73571c-0.24869,0 -0.43179,-0.17957 -0.54919,-0.53883c-0.11751,-0.36609 -0.17616,-1.0017 -0.17616,-1.90662c0,-1.11216 0.08974,-1.93771 0.26941,-2.47653c0.18652,-0.54577 0.42132,-0.8186 0.70462,-0.8186zM241.32064,169.86072c0.22113,0 0.36961,0.08984 0.44557,0.26941c0.0829,0.17957 0.12434,0.44557 0.12434,0.79788c0,0.0829 -0.00684,0.17274 -0.02072,0.26941c-0.00684,0.08984 -0.02072,0.17274 -0.04145,0.24869l-0.02072,-0.20724c0.16579,-0.44899 0.42143,-0.79788 0.76679,-1.04657c0.34547,-0.25563 0.71156,-0.3834 1.09838,-0.3834c0.42837,0 0.7841,0.12093 1.06729,0.36267c0.29014,0.24175 0.50432,0.58028 0.64245,1.01548c0.14507,0.43521 0.2176,0.94989 0.2176,1.54395c0,0.36609 -0.0172,0.72876 -0.05181,1.08802c-0.02756,0.35231 -0.06901,0.67695 -0.12434,0.97403c-0.04829,0.29014 -0.10362,0.52847 -0.16579,0.71498c-0.0829,0.23491 -0.18994,0.41106 -0.32122,0.52847c-0.13118,0.11056 -0.28661,0.16579 -0.46629,0.16579c-0.17957,0 -0.3177,-0.06559 -0.41448,-0.19688c-0.09668,-0.13129 -0.14507,-0.30744 -0.14507,-0.52847c0,-0.23491 0.0173,-0.5181 0.05181,-0.84969c0.03461,-0.33853 0.0657,-0.68048 0.09326,-1.02584c0.03461,-0.35231 0.05181,-0.67011 0.05181,-0.95331c0,-0.96709 -0.3177,-1.45069 -0.95331,-1.45069c-0.33842,0 -0.62172,0.15201 -0.84969,0.45593c-0.22797,0.29708 -0.37987,0.72192 -0.45593,1.27453c-0.02072,0.18652 -0.03109,0.4179 -0.03109,0.69426c0,0.27636 0,0.55261 0,0.82896c0.00694,0.26941 0,0.49738 -0.02072,0.6839c-0.02756,0.41448 -0.10704,0.71156 -0.23833,0.89114c-0.12434,0.17957 -0.29698,0.26941 -0.5181,0.26941c-0.25553,0 -0.44899,-0.1174 -0.58028,-0.35231c-0.13118,-0.24175 -0.19688,-0.64587 -0.19688,-1.21236c0,-0.29014 0.00694,-0.61478 0.02072,-0.97403c0.01389,-0.35925 0.03109,-0.7184 0.05181,-1.07765c0.02767,-0.36609 0.05875,-0.69768 0.09326,-0.99476c0.06911,-0.55955 0.16932,-1.0017 0.3005,-1.32634c0.13129,-0.33159 0.32817,-0.49738 0.59064,-0.49738zM248.8406,176.14013c-0.64929,0 -1.17775,-0.24869 -1.5854,-0.74607c-0.40754,-0.50432 -0.61136,-1.26759 -0.61136,-2.29002c0,-1.09144 0.19688,-1.88931 0.59064,-2.39364c0.39376,-0.50432 0.91186,-0.75643 1.55431,-0.75643c0.37998,0 0.71498,0.09668 1.00512,0.29014c0.29014,0.19346 0.53883,0.46629 0.74607,0.8186l-0.0829,0.14507c-0.02072,-0.09668 -0.03793,-0.2003 -0.05181,-0.31086c-0.01378,-0.11056 -0.02072,-0.19346 -0.02072,-0.24869c0,-0.2832 0.04497,-0.5008 0.13471,-0.65281c0.09678,-0.15885 0.24527,-0.23833 0.44557,-0.23833c0.22113,0 0.39376,0.08984 0.5181,0.26941c0.13129,0.17957 0.23149,0.43521 0.3005,0.76679c0.08984,0.33853 0.16579,0.77021 0.22797,1.29526c0.06217,0.5181 0.09326,1.04315 0.09326,1.57503c0,0.66317 -0.02414,1.2193 -0.07253,1.66829c-0.04829,0.44899 -0.12776,0.82202 -0.23833,1.1191c-0.11046,0.29708 -0.25553,0.55613 -0.43521,0.77715c-0.29698,0.35925 -0.68037,0.63209 -1.15019,0.8186c-0.46277,0.19346 -0.99818,0.29014 -1.60612,0.29014c-0.43521,0 -0.78399,-0.04145 -1.04657,-0.12434c-0.26247,-0.07595 -0.45241,-0.1831 -0.56991,-0.32122c-0.11046,-0.13129 -0.16579,-0.27978 -0.16579,-0.44557c0,-0.17274 0.04839,-0.3178 0.14507,-0.43521c0.09678,-0.11056 0.24185,-0.16579 0.43521,-0.16579c0.17274,0 0.37303,0.02767 0.601,0.0829c0.23491,0.05523 0.51126,0.0829 0.82896,0.0829c0.67011,0 1.14335,-0.15885 1.4196,-0.47665c0.2833,-0.31086 0.42484,-0.75985 0.42484,-1.34707c0,-0.15885 -0.01036,-0.34537 -0.03109,-0.55955l0.14507,0.05181c-0.17263,0.44215 -0.42826,0.79788 -0.76679,1.06729c-0.33842,0.26247 -0.73218,0.39376 -1.18127,0.39376zM249.23436,174.8656c0.22113,0 0.44215,-0.05875 0.66317,-0.17616c0.22113,-0.1174 0.40412,-0.31086 0.54919,-0.58028c0.14507,-0.26941 0.2176,-0.63209 0.2176,-1.08802c0,-0.54577 -0.12776,-0.99134 -0.3834,-1.33671c-0.25553,-0.34537 -0.61478,-0.5181 -1.07765,-0.5181c-0.4006,0 -0.69426,0.15201 -0.88078,0.45593c-0.18652,0.30392 -0.27978,0.76337 -0.27978,1.37815c0,0.58722 0.09326,1.04657 0.27978,1.37815c0.18652,0.32464 0.49054,0.48702 0.91186,0.48702zM255.34725,176.14013c-0.64939,0 -1.17786,-0.24869 -1.5854,-0.74607c-0.40754,-0.50432 -0.61136,-1.26759 -0.61136,-2.29002c0,-1.09144 0.19688,-1.88931 0.59064,-2.39364c0.39376,-0.50432 0.91186,-0.75643 1.55431,-0.75643c0.37998,0 0.71498,0.09668 1.00512,0.29014c0.29014,0.19346 0.53883,0.46629 0.74607,0.8186l-0.0829,0.14507c-0.02072,-0.09668 -0.03803,-0.2003 -0.05181,-0.31086c-0.01378,-0.11056 -0.02072,-0.19346 -0.02072,-0.24869c0,-0.2832 0.04487,-0.5008 0.13471,-0.65281c0.09668,-0.15885 0.24527,-0.23833 0.44557,-0.23833c0.22102,0 0.39376,0.08984 0.5181,0.26941c0.13129,0.17957 0.23138,0.43521 0.3005,0.76679c0.08984,0.33853 0.16579,0.77021 0.22797,1.29526c0.06217,0.5181 0.09326,1.04315 0.09326,1.57503c0,0.66317 -0.02414,1.2193 -0.07253,1.66829c-0.04839,0.44899 -0.12776,0.82202 -0.23833,1.1191c-0.11056,0.29708 -0.25563,0.55613 -0.43521,0.77715c-0.29708,0.35925 -0.68048,0.63209 -1.15019,0.8186c-0.46287,0.19346 -0.99818,0.29014 -1.60612,0.29014c-0.43521,0 -0.7841,-0.04145 -1.04657,-0.12434c-0.26247,-0.07595 -0.45251,-0.1831 -0.56991,-0.32122c-0.11056,-0.13129 -0.16579,-0.27978 -0.16579,-0.44557c0,-0.17274 0.04839,-0.3178 0.14507,-0.43521c0.09668,-0.11056 0.24175,-0.16579 0.43521,-0.16579c0.17274,0 0.37303,0.02767 0.601,0.0829c0.23491,0.05523 0.51116,0.0829 0.82896,0.0829c0.67011,0 1.14325,-0.15885 1.4196,-0.47665c0.2832,-0.31086 0.42484,-0.75985 0.42484,-1.34707c0,-0.15885 -0.01036,-0.34537 -0.03109,-0.55955l0.14507,0.05181c-0.17274,0.44215 -0.42826,0.79788 -0.76679,1.06729c-0.33853,0.26247 -0.73229,0.39376 -1.18127,0.39376zM255.74101,174.8656c0.22102,0 0.44215,-0.05875 0.66317,-0.17616c0.22102,-0.1174 0.40412,-0.31086 0.54919,-0.58028c0.14507,-0.26941 0.2176,-0.63209 0.2176,-1.08802c0,-0.54577 -0.12776,-0.99134 -0.3834,-1.33671c-0.25563,-0.34537 -0.61478,-0.5181 -1.07765,-0.5181c-0.4007,0 -0.69426,0.15201 -0.88078,0.45593c-0.18652,0.30392 -0.27978,0.76337 -0.27978,1.37815c0,0.58722 0.09326,1.04657 0.27978,1.37815c0.18652,0.32464 0.49044,0.48702 0.91186,0.48702zM260.7866,168.35823c0.27636,0 0.47324,0.07595 0.59064,0.22797c0.12434,0.15201 0.18652,0.32817 0.18652,0.52847c0,0.24869 -0.07595,0.44215 -0.22797,0.58028c-0.14507,0.13129 -0.35231,0.19688 -0.62172,0.19688c-0.26247,0 -0.45935,-0.07253 -0.59064,-0.2176c-0.13129,-0.15201 -0.19688,-0.32817 -0.19688,-0.52847c0,-0.26247 0.07948,-0.45935 0.23833,-0.59064c0.15885,-0.13129 0.36609,-0.19688 0.62172,-0.19688zM260.84878,170.66896c0.22102,0 0.39376,0.20724 0.5181,0.62172c0.13129,0.41448 0.19688,1.07423 0.19688,1.97915c0,1.11216 -0.07948,1.91356 -0.23833,2.404c-0.15885,0.49044 -0.4007,0.73571 -0.72534,0.73571c-0.24869,0 -0.43179,-0.17957 -0.54919,-0.53883c-0.1174,-0.36609 -0.17616,-1.0017 -0.17616,-1.90662c0,-1.11216 0.08984,-1.93771 0.26941,-2.47653c0.18652,-0.54577 0.42143,-0.8186 0.70462,-0.8186z" fill="#000000" stroke="none" stroke-width="1" stroke-linecap="butt" stroke-dasharray=""/></g></g></svg>