<svg width="278" height="10" viewBox="0 0 278 10" fill="none" xmlns="http://www.w3.org/2000/svg">
<path d="M1.188 8.09C1.08 8.09 0.993 8.054 0.927 7.982C0.861 7.904 0.807 7.781 0.765 7.613C0.723 7.421 0.684 7.121 0.648 6.713C0.612 6.299 0.594 5.837 0.594 5.327C0.594 4.775 0.609 4.238 0.639 3.716C0.675 3.188 0.726 2.723 0.792 2.321C0.84 2.057 0.909 1.862 0.999 1.736C1.095 1.604 1.227 1.538 1.395 1.538C1.503 1.538 1.599 1.574 1.683 1.646C1.767 1.718 1.83 1.847 1.872 2.033C1.92 2.219 1.944 2.483 1.944 2.825C1.944 2.993 1.938 3.185 1.926 3.401C1.914 3.611 1.896 3.845 1.872 4.103H1.908C2.388 3.443 2.811 2.918 3.177 2.528C3.543 2.132 3.864 1.847 4.14 1.673C4.422 1.499 4.668 1.412 4.878 1.412C5.046 1.412 5.172 1.466 5.256 1.574C5.346 1.682 5.391 1.814 5.391 1.97C5.391 2.3 5.142 2.696 4.644 3.158C4.152 3.62 3.357 4.175 2.259 4.823L2.331 4.652C3.279 5.252 3.996 5.783 4.482 6.245C4.968 6.701 5.211 7.106 5.211 7.46C5.211 7.616 5.16 7.745 5.058 7.847C4.962 7.943 4.818 7.991 4.626 7.991C4.386 7.991 4.131 7.91 3.861 7.748C3.591 7.58 3.291 7.301 2.961 6.911C2.637 6.515 2.268 5.978 1.854 5.3H1.818C1.83 5.438 1.839 5.582 1.845 5.732C1.851 5.876 1.854 6.02 1.854 6.164C1.854 6.854 1.806 7.349 1.71 7.649C1.614 7.943 1.44 8.09 1.188 8.09ZM8.67642 8.072C8.01042 8.072 7.47942 7.973 7.08342 7.775C6.68742 7.577 6.40242 7.292 6.22842 6.92C6.05442 6.548 5.96742 6.104 5.96742 5.588C5.96742 4.934 6.08742 4.379 6.32742 3.923C6.57342 3.461 6.90942 3.107 7.33542 2.861C7.76742 2.615 8.25642 2.492 8.80242 2.492C9.44442 2.492 9.91542 2.642 10.2154 2.942C10.5154 3.236 10.6654 3.623 10.6654 4.103C10.6654 4.487 10.5634 4.82 10.3594 5.102C10.1614 5.378 9.88542 5.591 9.53142 5.741C9.17742 5.891 8.76942 5.966 8.30742 5.966C8.04942 5.966 7.80042 5.933 7.56042 5.867C7.32042 5.801 7.10442 5.711 6.91242 5.597L7.12842 5.201C7.11042 5.345 7.10142 5.489 7.10142 5.633C7.10142 6.053 7.23342 6.356 7.49742 6.542C7.76142 6.722 8.13642 6.812 8.62242 6.812C9.00042 6.812 9.30342 6.779 9.53142 6.713C9.75942 6.647 9.95142 6.584 10.1074 6.524C10.2634 6.458 10.4164 6.425 10.5664 6.425C10.6504 6.425 10.7254 6.449 10.7914 6.497C10.8634 6.539 10.9204 6.602 10.9624 6.686C11.0104 6.77 11.0344 6.872 11.0344 6.992C11.0344 7.172 10.9444 7.346 10.7644 7.514C10.5844 7.676 10.3174 7.811 9.96342 7.919C9.61542 8.021 9.18642 8.072 8.67642 8.072ZM8.15442 5.129C8.58042 5.129 8.92242 5.039 9.18042 4.859C9.43842 4.679 9.56742 4.457 9.56742 4.193C9.56742 3.983 9.49542 3.812 9.35142 3.68C9.21342 3.542 8.99442 3.473 8.69442 3.473C8.41242 3.473 8.15742 3.527 7.92942 3.635C7.70742 3.737 7.53342 3.872 7.40742 4.04C7.28142 4.208 7.21842 4.391 7.21842 4.589C7.21842 4.763 7.29942 4.898 7.46142 4.994C7.62942 5.084 7.86042 5.129 8.15442 5.129ZM12.7974 8.018C12.6114 8.018 12.4644 7.976 12.3564 7.892C12.2484 7.802 12.1614 7.655 12.0954 7.451C12.0054 7.151 11.9364 6.773 11.8884 6.317C11.8464 5.855 11.8254 5.288 11.8254 4.616C11.8254 4.202 11.8404 3.788 11.8704 3.374C11.9064 2.954 11.9514 2.573 12.0054 2.231C12.0594 1.883 12.1164 1.613 12.1764 1.421C12.2424 1.217 12.3204 1.076 12.4104 0.997999C12.5004 0.92 12.6024 0.881 12.7164 0.881C12.8364 0.881 12.9324 0.923 13.0044 1.007C13.0764 1.085 13.1334 1.226 13.1754 1.43C13.2114 1.628 13.2384 1.871 13.2564 2.159C13.2804 2.447 13.2924 2.756 13.2924 3.086C13.2924 3.536 13.2714 4.01 13.2294 4.508C13.1874 5.006 13.1304 5.495 13.0584 5.975C12.9924 6.455 12.9114 6.896 12.8154 7.298L12.5634 7.172C12.7194 6.98 12.8964 6.83 13.0944 6.722C13.2984 6.614 13.4844 6.56 13.6524 6.56C13.7904 6.56 13.8954 6.599 13.9674 6.677C14.0454 6.749 14.0844 6.863 14.0844 7.019C14.0844 7.175 14.0154 7.331 13.8774 7.487C13.7454 7.643 13.5804 7.772 13.3824 7.874C13.1844 7.97 12.9894 8.018 12.7974 8.018ZM17.0885 8.027C16.6085 8.027 16.1885 7.922 15.8285 7.712C15.4745 7.496 15.1985 7.19 15.0005 6.794C14.8085 6.398 14.7125 5.927 14.7125 5.381C14.7125 4.811 14.8115 4.313 15.0095 3.887C15.2075 3.461 15.4865 3.128 15.8465 2.888C16.2125 2.648 16.6355 2.528 17.1155 2.528C17.6315 2.528 18.0785 2.645 18.4565 2.879C18.8345 3.107 19.1285 3.428 19.3385 3.842C19.5485 4.256 19.6535 4.739 19.6535 5.291C19.6535 5.855 19.5485 6.341 19.3385 6.749C19.1285 7.157 18.8315 7.472 18.4475 7.694C18.0635 7.916 17.6105 8.027 17.0885 8.027ZM17.2145 6.812C17.5865 6.812 17.8805 6.665 18.0965 6.371C18.3185 6.071 18.4295 5.675 18.4295 5.183C18.4295 4.685 18.3185 4.289 18.0965 3.995C17.8805 3.701 17.5865 3.554 17.2145 3.554C16.8305 3.554 16.5275 3.701 16.3055 3.995C16.0835 4.289 15.9725 4.685 15.9725 5.183C15.9725 5.675 16.0835 6.071 16.3055 6.371C16.5275 6.665 16.8305 6.812 17.2145 6.812ZM24.4407 3.878C24.5007 3.632 24.6057 3.41 24.7557 3.212C24.9117 3.014 25.0977 2.858 25.3137 2.744C25.5357 2.624 25.7787 2.564 26.0427 2.564C26.3547 2.564 26.6307 2.639 26.8707 2.789C27.1107 2.939 27.2997 3.185 27.4377 3.527C27.5817 3.869 27.6537 4.325 27.6537 4.895C27.6537 5.189 27.6417 5.486 27.6177 5.786C27.5937 6.086 27.5637 6.365 27.5277 6.623C27.4917 6.881 27.4527 7.097 27.4107 7.271C27.3507 7.511 27.2577 7.694 27.1317 7.82C27.0117 7.946 26.8587 8.009 26.6727 8.009C26.5167 8.009 26.3937 7.94 26.3037 7.802C26.2137 7.664 26.1687 7.466 26.1687 7.208C26.1687 7.088 26.1837 6.935 26.2137 6.749C26.2437 6.557 26.2767 6.35 26.3127 6.128C26.3487 5.9 26.3817 5.669 26.4117 5.435C26.4417 5.201 26.4567 4.979 26.4567 4.769C26.4567 4.457 26.3937 4.217 26.2677 4.049C26.1417 3.875 25.9647 3.788 25.7367 3.788C25.4847 3.788 25.2747 3.92 25.1067 4.184C24.9447 4.442 24.8487 4.82 24.8187 5.318C24.7947 5.762 24.7737 6.158 24.7557 6.506C24.7377 6.848 24.6927 7.13 24.6207 7.352C24.5727 7.508 24.5037 7.625 24.4137 7.703C24.3297 7.781 24.2157 7.82 24.0717 7.82C23.9097 7.82 23.7807 7.76 23.6847 7.64C23.5947 7.52 23.5437 7.331 23.5317 7.073C23.5197 6.857 23.5167 6.602 23.5227 6.308C23.5287 6.014 23.5317 5.723 23.5317 5.435C23.5377 5.141 23.5347 4.898 23.5227 4.706C23.4987 4.322 23.4297 4.04 23.3157 3.86C23.2077 3.68 23.0427 3.59 22.8207 3.59C22.5627 3.59 22.3557 3.71 22.1997 3.95C22.0497 4.19 21.9567 4.523 21.9207 4.949C21.9087 5.123 21.9027 5.339 21.9027 5.597C21.9087 5.849 21.9147 6.101 21.9207 6.353C21.9267 6.605 21.9237 6.815 21.9117 6.983C21.9057 7.343 21.8487 7.601 21.7407 7.757C21.6387 7.913 21.4947 7.991 21.3087 7.991C21.0867 7.991 20.9247 7.919 20.8227 7.775C20.7267 7.631 20.6637 7.4 20.6337 7.082C20.6097 6.8 20.5917 6.521 20.5797 6.245C20.5677 5.963 20.5617 5.684 20.5617 5.408C20.5617 5.126 20.5677 4.82 20.5797 4.49C20.5977 4.16 20.6217 3.848 20.6517 3.554C20.6877 3.254 20.7507 3.002 20.8407 2.798C20.9307 2.594 21.0807 2.492 21.2907 2.492C21.4647 2.492 21.5877 2.579 21.6597 2.753C21.7317 2.921 21.7677 3.182 21.7677 3.536C21.7677 3.656 21.7587 3.767 21.7407 3.869L21.7137 3.689C21.8337 3.299 22.0257 2.996 22.2897 2.78C22.5537 2.558 22.8477 2.447 23.1717 2.447C23.5977 2.447 23.9307 2.585 24.1707 2.861C24.4107 3.131 24.5427 3.506 24.5667 3.986L24.4407 3.878ZM29.3651 2.42C29.5271 2.42 29.6621 2.516 29.7701 2.708C29.8781 2.894 29.9531 3.191 29.9951 3.599L29.8061 3.77C29.9141 3.35 30.1151 3.029 30.4091 2.807C30.7031 2.585 31.0511 2.474 31.4531 2.474C31.8251 2.474 32.1551 2.57 32.4431 2.762C32.7311 2.954 32.9561 3.245 33.1181 3.635C33.2861 4.019 33.3701 4.502 33.3701 5.084C33.3701 6.026 33.1991 6.722 32.8571 7.172C32.5211 7.616 32.0621 7.838 31.4801 7.838C31.0601 7.838 30.7301 7.748 30.4901 7.568C30.2501 7.388 30.0821 7.169 29.9861 6.911L30.0941 6.857C30.1421 7.217 30.1811 7.574 30.2111 7.928C30.2471 8.276 30.2651 8.582 30.2651 8.846C30.2651 9.116 30.2171 9.344 30.1211 9.53C30.0251 9.716 29.8721 9.809 29.6621 9.809C29.4581 9.809 29.3051 9.731 29.2031 9.575C29.1011 9.419 29.0261 9.212 28.9781 8.954C28.9421 8.69 28.9061 8.351 28.8701 7.937C28.8341 7.523 28.8041 7.076 28.7801 6.596C28.7621 6.116 28.7531 5.648 28.7531 5.192C28.7531 4.724 28.7681 4.286 28.7981 3.878C28.8341 3.464 28.8761 3.128 28.9241 2.87C28.9661 2.72 29.0201 2.609 29.0861 2.537C29.1581 2.459 29.2511 2.42 29.3651 2.42ZM31.0841 3.509C30.7601 3.509 30.4991 3.671 30.3011 3.995C30.1091 4.313 30.0131 4.721 30.0131 5.219C30.0131 5.729 30.1091 6.11 30.3011 6.362C30.4991 6.614 30.7541 6.74 31.0661 6.74C31.4261 6.74 31.6841 6.599 31.8401 6.317C32.0021 6.029 32.0831 5.657 32.0831 5.201C32.0831 4.619 31.9841 4.193 31.7861 3.923C31.5881 3.647 31.3541 3.509 31.0841 3.509ZM36.4684 8.027C35.9884 8.027 35.5684 7.922 35.2084 7.712C34.8544 7.496 34.5784 7.19 34.3804 6.794C34.1884 6.398 34.0924 5.927 34.0924 5.381C34.0924 4.811 34.1914 4.313 34.3894 3.887C34.5874 3.461 34.8664 3.128 35.2264 2.888C35.5924 2.648 36.0154 2.528 36.4954 2.528C37.0114 2.528 37.4584 2.645 37.8364 2.879C38.2144 3.107 38.5084 3.428 38.7184 3.842C38.9284 4.256 39.0334 4.739 39.0334 5.291C39.0334 5.855 38.9284 6.341 38.7184 6.749C38.5084 7.157 38.2114 7.472 37.8274 7.694C37.4434 7.916 36.9904 8.027 36.4684 8.027ZM36.5944 6.812C36.9664 6.812 37.2604 6.665 37.4764 6.371C37.6984 6.071 37.8094 5.675 37.8094 5.183C37.8094 4.685 37.6984 4.289 37.4764 3.995C37.2604 3.701 36.9664 3.554 36.5944 3.554C36.2104 3.554 35.9074 3.701 35.6854 3.995C35.4634 4.289 35.3524 4.685 35.3524 5.183C35.3524 5.675 35.4634 6.071 35.6854 6.371C35.9074 6.665 36.2104 6.812 36.5944 6.812ZM40.5536 8.09C40.4396 8.09 40.3466 8.057 40.2746 7.991C40.2026 7.919 40.1516 7.817 40.1216 7.685C40.0736 7.463 40.0316 7.142 39.9956 6.722C39.9596 6.302 39.9416 5.837 39.9416 5.327C39.9416 4.697 39.9626 4.091 40.0046 3.509C40.0526 2.927 40.1126 2.45 40.1846 2.078C40.2626 1.676 40.3586 1.382 40.4726 1.196C40.5866 1.004 40.7366 0.908 40.9226 0.908C41.0906 0.908 41.2196 0.986 41.3096 1.142C41.3996 1.292 41.4446 1.553 41.4446 1.925C41.4446 2.297 41.4296 2.696 41.3996 3.122C41.3756 3.548 41.3336 4.004 41.2736 4.49H41.3096C41.6996 3.962 42.0626 3.539 42.3986 3.221C42.7406 2.903 43.0526 2.672 43.3346 2.528C43.6226 2.384 43.8776 2.312 44.0996 2.312C44.2736 2.312 44.4026 2.366 44.4866 2.474C44.5706 2.582 44.6126 2.714 44.6126 2.87C44.6126 3.176 44.3666 3.518 43.8746 3.896C43.3886 4.274 42.6866 4.661 41.7686 5.057L41.7776 4.913C42.3476 5.207 42.8366 5.516 43.2446 5.84C43.6586 6.158 43.9736 6.461 44.1896 6.749C44.4116 7.031 44.5226 7.268 44.5226 7.46C44.5226 7.616 44.4716 7.745 44.3696 7.847C44.2736 7.943 44.1326 7.991 43.9466 7.991C43.7126 7.991 43.4516 7.904 43.1636 7.73C42.8816 7.55 42.5876 7.283 42.2816 6.929C41.9756 6.575 41.6696 6.131 41.3636 5.597H41.3276C41.3216 5.975 41.2976 6.344 41.2556 6.704C41.2196 7.058 41.1716 7.349 41.1116 7.577C41.0696 7.733 41.0036 7.859 40.9136 7.955C40.8296 8.045 40.7096 8.09 40.5536 8.09ZM48.5618 1.772C48.6758 1.772 48.7688 1.805 48.8408 1.871C48.9128 1.937 48.9788 2.048 49.0388 2.204C49.1288 2.444 49.1978 2.774 49.2458 3.194C49.2938 3.614 49.3178 4.124 49.3178 4.724C49.3178 5.096 49.2998 5.471 49.2638 5.849C49.2338 6.227 49.1918 6.572 49.1378 6.884C49.0838 7.196 49.0208 7.442 48.9488 7.622C48.8828 7.79 48.8138 7.913 48.7418 7.991C48.6698 8.063 48.5768 8.099 48.4628 8.099C48.3488 8.099 48.2558 8.054 48.1838 7.964C48.1178 7.868 48.0638 7.721 48.0218 7.523C47.9798 7.313 47.9468 7.064 47.9228 6.776C47.9048 6.482 47.8958 6.173 47.8958 5.849C47.8958 5.543 47.9138 5.222 47.9498 4.886C47.9858 4.55 48.0368 4.22 48.1028 3.896C48.1688 3.572 48.2438 3.275 48.3278 3.005L48.3818 3.014C48.1958 3.23 47.9888 3.398 47.7608 3.518C47.5328 3.638 47.3168 3.698 47.1128 3.698C47.0108 3.698 46.9298 3.671 46.8698 3.617C46.8158 3.563 46.7888 3.488 46.7888 3.392C46.7888 3.206 46.8398 3.02 46.9418 2.834C47.0498 2.642 47.1908 2.468 47.3648 2.312C47.5388 2.15 47.7308 2.021 47.9408 1.925C48.1508 1.823 48.3578 1.772 48.5618 1.772ZM53.7848 2.582H53.6048C53.5868 2.318 53.5928 2.069 53.6228 1.835C53.6528 1.595 53.7158 1.403 53.8118 1.259C53.9138 1.109 54.0578 1.034 54.2438 1.034C54.4118 1.034 54.5348 1.088 54.6128 1.196C54.6908 1.304 54.7298 1.454 54.7298 1.646C54.7298 2.024 54.6578 2.348 54.5138 2.618L54.3518 2.6C54.6758 2.486 55.0418 2.429 55.4498 2.429C55.7078 2.429 55.9118 2.48 56.0618 2.582C56.2178 2.678 56.2958 2.843 56.2958 3.077C56.2958 3.299 56.2058 3.467 56.0258 3.581C55.8458 3.695 55.6208 3.752 55.3508 3.752C55.1888 3.752 55.0148 3.746 54.8288 3.734C54.6488 3.716 54.4718 3.689 54.2978 3.653L54.4508 3.464C54.5048 3.692 54.5558 3.953 54.6038 4.247C54.6578 4.535 54.7058 4.835 54.7478 5.147C54.7898 5.459 54.8228 5.762 54.8468 6.056C54.8708 6.35 54.8828 6.614 54.8828 6.848C54.8828 7.232 54.8228 7.535 54.7028 7.757C54.5828 7.979 54.4058 8.09 54.1718 8.09C53.9858 8.09 53.8388 8.033 53.7308 7.919C53.6288 7.805 53.5538 7.661 53.5058 7.487C53.4638 7.307 53.4368 7.121 53.4248 6.929C53.4188 6.737 53.4158 6.563 53.4158 6.407C53.4158 6.143 53.4278 5.846 53.4518 5.516C53.4758 5.18 53.5088 4.835 53.5508 4.481C53.5988 4.127 53.6528 3.785 53.7128 3.455L53.8928 3.608C53.5868 3.764 53.2088 3.842 52.7588 3.842C52.4828 3.842 52.2698 3.791 52.1198 3.689C51.9698 3.587 51.8948 3.428 51.8948 3.212C51.8948 2.978 51.9788 2.798 52.1468 2.672C52.3148 2.54 52.5398 2.474 52.8218 2.474C53.0078 2.474 53.1818 2.486 53.3438 2.51C53.5118 2.528 53.6588 2.552 53.7848 2.582ZM59.4596 8.072C58.7936 8.072 58.2626 7.973 57.8666 7.775C57.4706 7.577 57.1856 7.292 57.0116 6.92C56.8376 6.548 56.7506 6.104 56.7506 5.588C56.7506 4.934 56.8706 4.379 57.1106 3.923C57.3566 3.461 57.6926 3.107 58.1186 2.861C58.5506 2.615 59.0396 2.492 59.5856 2.492C60.2276 2.492 60.6986 2.642 60.9986 2.942C61.2986 3.236 61.4486 3.623 61.4486 4.103C61.4486 4.487 61.3466 4.82 61.1426 5.102C60.9446 5.378 60.6686 5.591 60.3146 5.741C59.9606 5.891 59.5526 5.966 59.0906 5.966C58.8326 5.966 58.5836 5.933 58.3436 5.867C58.1036 5.801 57.8876 5.711 57.6956 5.597L57.9116 5.201C57.8936 5.345 57.8846 5.489 57.8846 5.633C57.8846 6.053 58.0166 6.356 58.2806 6.542C58.5446 6.722 58.9196 6.812 59.4056 6.812C59.7836 6.812 60.0866 6.779 60.3146 6.713C60.5426 6.647 60.7346 6.584 60.8906 6.524C61.0466 6.458 61.1996 6.425 61.3496 6.425C61.4336 6.425 61.5086 6.449 61.5746 6.497C61.6466 6.539 61.7036 6.602 61.7456 6.686C61.7936 6.77 61.8176 6.872 61.8176 6.992C61.8176 7.172 61.7276 7.346 61.5476 7.514C61.3676 7.676 61.1006 7.811 60.7466 7.919C60.3986 8.021 59.9696 8.072 59.4596 8.072ZM58.9376 5.129C59.3636 5.129 59.7056 5.039 59.9636 4.859C60.2216 4.679 60.3506 4.457 60.3506 4.193C60.3506 3.983 60.2786 3.812 60.1346 3.68C59.9966 3.542 59.7776 3.473 59.4776 3.473C59.1956 3.473 58.9406 3.527 58.7126 3.635C58.4906 3.737 58.3166 3.872 58.1906 4.04C58.0646 4.208 58.0016 4.391 58.0016 4.589C58.0016 4.763 58.0826 4.898 58.2446 4.994C58.4126 5.084 58.6436 5.129 58.9376 5.129ZM62.6086 3.941C62.6086 3.365 62.6626 2.951 62.7706 2.699C62.8786 2.441 63.0316 2.312 63.2296 2.312C63.3856 2.312 63.5086 2.378 63.5986 2.51C63.6886 2.636 63.7546 2.795 63.7966 2.987C63.8386 3.173 63.8596 3.362 63.8596 3.554L63.8146 3.536C63.9166 3.212 64.0726 2.933 64.2826 2.699C64.4986 2.465 64.7566 2.348 65.0566 2.348C65.4106 2.348 65.6716 2.495 65.8396 2.789C66.0076 3.077 66.0916 3.437 66.0916 3.869C66.0916 4.445 66.0256 4.847 65.8936 5.075C65.7616 5.303 65.5846 5.417 65.3626 5.417C65.2006 5.417 65.0806 5.351 65.0026 5.219C64.9306 5.087 64.9066 4.853 64.9306 4.517C64.9546 4.163 64.9336 3.917 64.8676 3.779C64.8016 3.641 64.6966 3.572 64.5526 3.572C64.3786 3.572 64.2346 3.683 64.1206 3.905C64.0126 4.121 63.9586 4.388 63.9586 4.706C63.9586 4.832 63.9736 4.991 64.0036 5.183C64.0336 5.375 64.0666 5.585 64.1026 5.813C64.1386 6.035 64.1716 6.257 64.2016 6.479C64.2316 6.701 64.2466 6.905 64.2466 7.091C64.2466 7.421 64.1956 7.658 64.0936 7.802C63.9916 7.946 63.8476 8.018 63.6616 8.018C63.4516 8.018 63.2896 7.952 63.1756 7.82C63.0616 7.682 62.9746 7.46 62.9146 7.154C62.8666 6.878 62.8186 6.551 62.7706 6.173C62.7226 5.795 62.6836 5.408 62.6536 5.012C62.6236 4.616 62.6086 4.259 62.6086 3.941ZM70.7678 3.878C70.8278 3.632 70.9328 3.41 71.0828 3.212C71.2388 3.014 71.4248 2.858 71.6408 2.744C71.8628 2.624 72.1058 2.564 72.3698 2.564C72.6818 2.564 72.9578 2.639 73.1978 2.789C73.4378 2.939 73.6268 3.185 73.7648 3.527C73.9088 3.869 73.9808 4.325 73.9808 4.895C73.9808 5.189 73.9688 5.486 73.9448 5.786C73.9208 6.086 73.8908 6.365 73.8548 6.623C73.8188 6.881 73.7798 7.097 73.7378 7.271C73.6778 7.511 73.5848 7.694 73.4588 7.82C73.3388 7.946 73.1858 8.009 72.9998 8.009C72.8438 8.009 72.7208 7.94 72.6308 7.802C72.5408 7.664 72.4958 7.466 72.4958 7.208C72.4958 7.088 72.5108 6.935 72.5408 6.749C72.5708 6.557 72.6038 6.35 72.6398 6.128C72.6758 5.9 72.7088 5.669 72.7388 5.435C72.7688 5.201 72.7838 4.979 72.7838 4.769C72.7838 4.457 72.7208 4.217 72.5948 4.049C72.4688 3.875 72.2918 3.788 72.0638 3.788C71.8118 3.788 71.6018 3.92 71.4338 4.184C71.2718 4.442 71.1758 4.82 71.1458 5.318C71.1218 5.762 71.1008 6.158 71.0828 6.506C71.0648 6.848 71.0198 7.13 70.9478 7.352C70.8998 7.508 70.8308 7.625 70.7408 7.703C70.6568 7.781 70.5428 7.82 70.3988 7.82C70.2368 7.82 70.1078 7.76 70.0118 7.64C69.9218 7.52 69.8708 7.331 69.8588 7.073C69.8468 6.857 69.8438 6.602 69.8498 6.308C69.8558 6.014 69.8588 5.723 69.8588 5.435C69.8648 5.141 69.8618 4.898 69.8498 4.706C69.8258 4.322 69.7568 4.04 69.6428 3.86C69.5348 3.68 69.3698 3.59 69.1478 3.59C68.8898 3.59 68.6828 3.71 68.5268 3.95C68.3768 4.19 68.2838 4.523 68.2478 4.949C68.2358 5.123 68.2298 5.339 68.2298 5.597C68.2358 5.849 68.2418 6.101 68.2478 6.353C68.2538 6.605 68.2508 6.815 68.2388 6.983C68.2328 7.343 68.1758 7.601 68.0678 7.757C67.9658 7.913 67.8218 7.991 67.6358 7.991C67.4138 7.991 67.2518 7.919 67.1498 7.775C67.0538 7.631 66.9908 7.4 66.9608 7.082C66.9368 6.8 66.9188 6.521 66.9068 6.245C66.8948 5.963 66.8888 5.684 66.8888 5.408C66.8888 5.126 66.8948 4.82 66.9068 4.49C66.9248 4.16 66.9488 3.848 66.9788 3.554C67.0148 3.254 67.0778 3.002 67.1678 2.798C67.2578 2.594 67.4078 2.492 67.6178 2.492C67.7918 2.492 67.9148 2.579 67.9868 2.753C68.0588 2.921 68.0948 3.182 68.0948 3.536C68.0948 3.656 68.0858 3.767 68.0678 3.869L68.0408 3.689C68.1608 3.299 68.3528 2.996 68.6168 2.78C68.8808 2.558 69.1748 2.447 69.4988 2.447C69.9248 2.447 70.2578 2.585 70.4978 2.861C70.7378 3.131 70.8698 3.506 70.8938 3.986L70.7678 3.878ZM79.0133 8.09C78.8093 8.09 78.6683 8.012 78.5903 7.856C78.5183 7.694 78.4763 7.439 78.4643 7.091L78.5543 7.136C78.2183 7.79 77.5823 8.117 76.6463 8.117C76.2203 8.117 75.8663 8.042 75.5843 7.892C75.3023 7.736 75.0923 7.532 74.9543 7.28C74.8223 7.022 74.7563 6.743 74.7563 6.443C74.7563 5.927 74.9363 5.519 75.2963 5.219C75.6563 4.913 76.1333 4.76 76.7273 4.76C77.1173 4.76 77.4563 4.817 77.7443 4.931C78.0323 5.045 78.2783 5.204 78.4823 5.408L78.3293 5.39C78.2873 4.784 78.1553 4.352 77.9333 4.094C77.7173 3.83 77.4083 3.698 77.0063 3.698C76.7723 3.698 76.5563 3.734 76.3583 3.806C76.1603 3.878 75.9773 3.953 75.8093 4.031C75.6473 4.103 75.4943 4.139 75.3503 4.139C75.2063 4.139 75.0923 4.091 75.0083 3.995C74.9303 3.899 74.8913 3.776 74.8913 3.626C74.8913 3.41 74.9933 3.206 75.1973 3.014C75.4073 2.822 75.6833 2.666 76.0253 2.546C76.3673 2.426 76.7393 2.366 77.1413 2.366C77.6273 2.366 78.0443 2.483 78.3923 2.717C78.7403 2.951 79.0043 3.293 79.1843 3.743C79.3403 4.127 79.4513 4.556 79.5173 5.03C79.5833 5.504 79.6162 6.011 79.6162 6.551C79.6162 6.959 79.5953 7.274 79.5533 7.496C79.5113 7.718 79.4453 7.874 79.3553 7.964C79.2713 8.048 79.1573 8.09 79.0133 8.09ZM77.0243 7.082C77.2223 7.082 77.4233 7.055 77.6273 7.001C77.8313 6.941 78.0023 6.854 78.1403 6.74C78.2783 6.626 78.3473 6.485 78.3473 6.317C78.3473 6.173 78.2873 6.056 78.1673 5.966C78.0533 5.87 77.9003 5.798 77.7083 5.75C77.5223 5.702 77.3213 5.678 77.1053 5.678C76.7393 5.678 76.4603 5.741 76.2683 5.867C76.0823 5.993 75.9893 6.161 75.9893 6.371C75.9893 6.599 76.0763 6.776 76.2503 6.902C76.4303 7.022 76.6883 7.082 77.0243 7.082ZM82.991 2.366C83.525 2.366 83.909 2.444 84.143 2.6C84.377 2.756 84.494 2.957 84.494 3.203C84.494 3.347 84.443 3.467 84.341 3.563C84.245 3.653 84.107 3.698 83.927 3.698C83.741 3.698 83.546 3.671 83.342 3.617C83.144 3.563 82.913 3.536 82.649 3.536C82.343 3.536 82.115 3.596 81.965 3.716C81.815 3.836 81.74 3.989 81.74 4.175C81.74 4.349 81.806 4.487 81.938 4.589C82.076 4.685 82.337 4.757 82.721 4.805C83.147 4.853 83.498 4.931 83.774 5.039C84.056 5.141 84.266 5.297 84.404 5.507C84.542 5.711 84.611 5.993 84.611 6.353C84.611 6.923 84.41 7.346 84.008 7.622C83.606 7.898 83.051 8.036 82.343 8.036C81.893 8.036 81.536 8 81.272 7.928C81.008 7.856 80.816 7.754 80.696 7.622C80.582 7.49 80.525 7.334 80.525 7.154C80.525 6.998 80.576 6.878 80.678 6.794C80.786 6.704 80.912 6.659 81.056 6.659C81.194 6.659 81.341 6.677 81.497 6.713C81.653 6.743 81.818 6.776 81.992 6.812C82.166 6.848 82.346 6.866 82.532 6.866C83.132 6.866 83.432 6.68 83.432 6.308C83.432 6.182 83.402 6.08 83.342 6.002C83.282 5.924 83.174 5.861 83.018 5.813C82.862 5.759 82.634 5.717 82.334 5.687C81.974 5.651 81.662 5.591 81.398 5.507C81.134 5.417 80.93 5.273 80.786 5.075C80.642 4.871 80.57 4.592 80.57 4.238C80.57 3.68 80.78 3.23 81.2 2.888C81.62 2.54 82.217 2.366 82.991 2.366ZM89.5717 7.946C89.4097 7.946 89.2837 7.892 89.1937 7.784C89.1097 7.67 89.0527 7.526 89.0227 7.352C88.9927 7.172 88.9777 6.983 88.9777 6.785L89.0227 6.749C88.9627 7.007 88.8457 7.229 88.6717 7.415C88.4977 7.601 88.2967 7.745 88.0687 7.847C87.8407 7.943 87.6127 7.991 87.3847 7.991C87.0787 7.991 86.7997 7.919 86.5477 7.775C86.2957 7.631 86.1007 7.409 85.9627 7.109C85.8247 6.791 85.7167 6.392 85.6387 5.912C85.5607 5.426 85.5217 4.928 85.5217 4.418C85.5217 4.142 85.5337 3.887 85.5577 3.653C85.5817 3.419 85.6207 3.227 85.6747 3.077C85.7227 2.921 85.7947 2.807 85.8907 2.735C85.9867 2.657 86.1097 2.618 86.2597 2.618C86.4337 2.618 86.5687 2.687 86.6647 2.825C86.7667 2.957 86.8297 3.143 86.8537 3.383C86.8777 3.581 86.8927 3.827 86.8987 4.121C86.9107 4.409 86.9197 4.7 86.9257 4.994C86.9377 5.282 86.9527 5.525 86.9707 5.723C87.0067 6.083 87.0997 6.35 87.2497 6.524C87.3997 6.692 87.5827 6.776 87.7987 6.776C88.1167 6.776 88.3597 6.656 88.5277 6.416C88.6957 6.176 88.7797 5.84 88.7797 5.408C88.7797 5.192 88.7677 4.949 88.7437 4.679C88.7197 4.403 88.6927 4.136 88.6627 3.878C88.6387 3.62 88.6267 3.407 88.6267 3.239C88.6267 2.957 88.6747 2.756 88.7707 2.636C88.8667 2.51 88.9987 2.447 89.1667 2.447C89.3107 2.447 89.4307 2.486 89.5267 2.564C89.6287 2.642 89.7097 2.75 89.7697 2.888C89.8537 3.068 89.9257 3.314 89.9857 3.626C90.0457 3.938 90.0937 4.292 90.1297 4.688C90.1657 5.084 90.1837 5.501 90.1837 5.939C90.1837 6.611 90.1387 7.115 90.0487 7.451C89.9587 7.781 89.7997 7.946 89.5717 7.946ZM91.8905 8.09C91.7765 8.09 91.6835 8.057 91.6115 7.991C91.5395 7.919 91.4885 7.817 91.4585 7.685C91.4105 7.463 91.3685 7.142 91.3325 6.722C91.2965 6.302 91.2785 5.837 91.2785 5.327C91.2785 4.697 91.2995 4.091 91.3415 3.509C91.3895 2.927 91.4495 2.45 91.5215 2.078C91.5995 1.676 91.6955 1.382 91.8095 1.196C91.9235 1.004 92.0735 0.908 92.2595 0.908C92.4275 0.908 92.5565 0.986 92.6465 1.142C92.7365 1.292 92.7815 1.553 92.7815 1.925C92.7815 2.297 92.7665 2.696 92.7365 3.122C92.7125 3.548 92.6705 4.004 92.6105 4.49H92.6465C93.0365 3.962 93.3995 3.539 93.7355 3.221C94.0775 2.903 94.3895 2.672 94.6715 2.528C94.9595 2.384 95.2145 2.312 95.4365 2.312C95.6105 2.312 95.7395 2.366 95.8235 2.474C95.9075 2.582 95.9495 2.714 95.9495 2.87C95.9495 3.176 95.7035 3.518 95.2115 3.896C94.7255 4.274 94.0235 4.661 93.1055 5.057L93.1145 4.913C93.6845 5.207 94.1735 5.516 94.5815 5.84C94.9955 6.158 95.3105 6.461 95.5265 6.749C95.7485 7.031 95.8595 7.268 95.8595 7.46C95.8595 7.616 95.8085 7.745 95.7065 7.847C95.6105 7.943 95.4695 7.991 95.2835 7.991C95.0495 7.991 94.7885 7.904 94.5005 7.73C94.2185 7.55 93.9245 7.283 93.6185 6.929C93.3125 6.575 93.0065 6.131 92.7005 5.597H92.6645C92.6585 5.975 92.6345 6.344 92.5925 6.704C92.5565 7.058 92.5085 7.349 92.4485 7.577C92.4065 7.733 92.3405 7.859 92.2505 7.955C92.1665 8.045 92.0465 8.09 91.8905 8.09ZM99.0887 8.09C98.9747 8.09 98.8817 8.057 98.8097 7.991C98.7377 7.919 98.6867 7.817 98.6567 7.685C98.6087 7.463 98.5667 7.142 98.5307 6.722C98.4947 6.302 98.4767 5.837 98.4767 5.327C98.4767 4.697 98.4977 4.091 98.5397 3.509C98.5877 2.927 98.6477 2.45 98.7197 2.078C98.7977 1.676 98.8937 1.382 99.0077 1.196C99.1217 1.004 99.2717 0.908 99.4577 0.908C99.6257 0.908 99.7547 0.986 99.8447 1.142C99.9347 1.292 99.9797 1.553 99.9797 1.925C99.9797 2.297 99.9647 2.696 99.9347 3.122C99.9107 3.548 99.8687 4.004 99.8087 4.49H99.8447C100.235 3.962 100.598 3.539 100.934 3.221C101.276 2.903 101.588 2.672 101.87 2.528C102.158 2.384 102.413 2.312 102.635 2.312C102.809 2.312 102.938 2.366 103.022 2.474C103.106 2.582 103.148 2.714 103.148 2.87C103.148 3.176 102.902 3.518 102.41 3.896C101.924 4.274 101.222 4.661 100.304 5.057L100.313 4.913C100.883 5.207 101.372 5.516 101.78 5.84C102.194 6.158 102.509 6.461 102.725 6.749C102.947 7.031 103.058 7.268 103.058 7.46C103.058 7.616 103.007 7.745 102.905 7.847C102.809 7.943 102.668 7.991 102.482 7.991C102.248 7.991 101.987 7.904 101.699 7.73C101.417 7.55 101.123 7.283 100.817 6.929C100.511 6.575 100.205 6.131 99.8987 5.597H99.8627C99.8567 5.975 99.8327 6.344 99.7907 6.704C99.7547 7.058 99.7067 7.349 99.6467 7.577C99.6047 7.733 99.5387 7.859 99.4487 7.955C99.3647 8.045 99.2447 8.09 99.0887 8.09ZM106.305 8.072C105.639 8.072 105.108 7.973 104.712 7.775C104.316 7.577 104.031 7.292 103.857 6.92C103.683 6.548 103.596 6.104 103.596 5.588C103.596 4.934 103.716 4.379 103.956 3.923C104.202 3.461 104.538 3.107 104.964 2.861C105.396 2.615 105.885 2.492 106.431 2.492C107.073 2.492 107.544 2.642 107.844 2.942C108.144 3.236 108.294 3.623 108.294 4.103C108.294 4.487 108.192 4.82 107.988 5.102C107.79 5.378 107.514 5.591 107.16 5.741C106.806 5.891 106.398 5.966 105.936 5.966C105.678 5.966 105.429 5.933 105.189 5.867C104.949 5.801 104.733 5.711 104.541 5.597L104.757 5.201C104.739 5.345 104.73 5.489 104.73 5.633C104.73 6.053 104.862 6.356 105.126 6.542C105.39 6.722 105.765 6.812 106.251 6.812C106.629 6.812 106.932 6.779 107.16 6.713C107.388 6.647 107.58 6.584 107.736 6.524C107.892 6.458 108.045 6.425 108.195 6.425C108.279 6.425 108.354 6.449 108.42 6.497C108.492 6.539 108.549 6.602 108.591 6.686C108.639 6.77 108.663 6.872 108.663 6.992C108.663 7.172 108.573 7.346 108.393 7.514C108.213 7.676 107.946 7.811 107.592 7.919C107.244 8.021 106.815 8.072 106.305 8.072ZM105.783 5.129C106.209 5.129 106.551 5.039 106.809 4.859C107.067 4.679 107.196 4.457 107.196 4.193C107.196 3.983 107.124 3.812 106.98 3.68C106.842 3.542 106.623 3.473 106.323 3.473C106.041 3.473 105.786 3.527 105.558 3.635C105.336 3.737 105.162 3.872 105.036 4.04C104.91 4.208 104.847 4.391 104.847 4.589C104.847 4.763 104.928 4.898 105.09 4.994C105.258 5.084 105.489 5.129 105.783 5.129ZM112.939 8.126C112.351 8.126 111.892 7.907 111.562 7.469C111.232 7.025 111.067 6.35 111.067 5.444C111.067 4.544 111.229 3.887 111.553 3.473C111.883 3.053 112.354 2.843 112.966 2.843C113.314 2.843 113.617 2.915 113.875 3.059C114.139 3.203 114.373 3.407 114.577 3.671L114.505 3.707C114.451 3.461 114.397 3.2 114.343 2.924C114.289 2.648 114.244 2.387 114.208 2.141C114.178 1.889 114.163 1.691 114.163 1.547C114.163 1.343 114.196 1.187 114.262 1.079C114.328 0.965 114.433 0.908 114.577 0.908C114.781 0.908 114.946 0.995 115.072 1.169C115.198 1.337 115.303 1.598 115.387 1.952C115.465 2.27 115.534 2.648 115.594 3.086C115.654 3.518 115.702 3.971 115.738 4.445C115.78 4.913 115.801 5.363 115.801 5.795C115.801 6.395 115.768 6.863 115.702 7.199C115.642 7.529 115.555 7.76 115.441 7.892C115.333 8.024 115.204 8.09 115.054 8.09C114.868 8.09 114.742 7.997 114.676 7.811C114.61 7.625 114.583 7.322 114.595 6.902H114.73C114.568 7.274 114.331 7.571 114.019 7.793C113.713 8.015 113.353 8.126 112.939 8.126ZM113.416 7.01C113.632 7.01 113.83 6.956 114.01 6.848C114.196 6.734 114.343 6.56 114.451 6.326C114.565 6.092 114.622 5.795 114.622 5.435C114.622 4.973 114.517 4.598 114.307 4.31C114.097 4.016 113.794 3.869 113.398 3.869C113.086 3.869 112.831 3.998 112.633 4.256C112.441 4.514 112.345 4.904 112.345 5.426C112.345 5.888 112.441 6.269 112.633 6.569C112.831 6.863 113.092 7.01 113.416 7.01ZM120.832 8.09C120.628 8.09 120.487 8.012 120.409 7.856C120.337 7.694 120.295 7.439 120.283 7.091L120.373 7.136C120.037 7.79 119.401 8.117 118.465 8.117C118.039 8.117 117.685 8.042 117.403 7.892C117.121 7.736 116.911 7.532 116.773 7.28C116.641 7.022 116.575 6.743 116.575 6.443C116.575 5.927 116.755 5.519 117.115 5.219C117.475 4.913 117.952 4.76 118.546 4.76C118.936 4.76 119.275 4.817 119.563 4.931C119.851 5.045 120.097 5.204 120.301 5.408L120.148 5.39C120.106 4.784 119.974 4.352 119.752 4.094C119.536 3.83 119.227 3.698 118.825 3.698C118.591 3.698 118.375 3.734 118.177 3.806C117.979 3.878 117.796 3.953 117.628 4.031C117.466 4.103 117.313 4.139 117.169 4.139C117.025 4.139 116.911 4.091 116.827 3.995C116.749 3.899 116.71 3.776 116.71 3.626C116.71 3.41 116.812 3.206 117.016 3.014C117.226 2.822 117.502 2.666 117.844 2.546C118.186 2.426 118.558 2.366 118.96 2.366C119.446 2.366 119.863 2.483 120.211 2.717C120.559 2.951 120.823 3.293 121.003 3.743C121.159 4.127 121.27 4.556 121.336 5.03C121.402 5.504 121.435 6.011 121.435 6.551C121.435 6.959 121.414 7.274 121.372 7.496C121.33 7.718 121.264 7.874 121.174 7.964C121.09 8.048 120.976 8.09 120.832 8.09ZM118.843 7.082C119.041 7.082 119.242 7.055 119.446 7.001C119.65 6.941 119.821 6.854 119.959 6.74C120.097 6.626 120.166 6.485 120.166 6.317C120.166 6.173 120.106 6.056 119.986 5.966C119.872 5.87 119.719 5.798 119.527 5.75C119.341 5.702 119.14 5.678 118.924 5.678C118.558 5.678 118.279 5.741 118.087 5.867C117.901 5.993 117.808 6.161 117.808 6.371C117.808 6.599 117.895 6.776 118.069 6.902C118.249 7.022 118.507 7.082 118.843 7.082ZM123.504 8.018C123.318 8.018 123.171 7.976 123.063 7.892C122.955 7.802 122.868 7.655 122.802 7.451C122.712 7.151 122.643 6.773 122.595 6.317C122.553 5.855 122.532 5.288 122.532 4.616C122.532 4.202 122.547 3.788 122.577 3.374C122.613 2.954 122.658 2.573 122.712 2.231C122.766 1.883 122.823 1.613 122.883 1.421C122.949 1.217 123.027 1.076 123.117 0.997999C123.207 0.92 123.309 0.881 123.423 0.881C123.543 0.881 123.639 0.923 123.711 1.007C123.783 1.085 123.84 1.226 123.882 1.43C123.918 1.628 123.945 1.871 123.963 2.159C123.987 2.447 123.999 2.756 123.999 3.086C123.999 3.536 123.978 4.01 123.936 4.508C123.894 5.006 123.837 5.495 123.765 5.975C123.699 6.455 123.618 6.896 123.522 7.298L123.27 7.172C123.426 6.98 123.603 6.83 123.801 6.722C124.005 6.614 124.191 6.56 124.359 6.56C124.497 6.56 124.602 6.599 124.674 6.677C124.752 6.749 124.791 6.863 124.791 7.019C124.791 7.175 124.722 7.331 124.584 7.487C124.452 7.643 124.287 7.772 124.089 7.874C123.891 7.97 123.696 8.018 123.504 8.018ZM129.542 8.09C129.338 8.09 129.197 8.012 129.119 7.856C129.047 7.694 129.005 7.439 128.993 7.091L129.083 7.136C128.747 7.79 128.111 8.117 127.175 8.117C126.749 8.117 126.395 8.042 126.113 7.892C125.831 7.736 125.621 7.532 125.483 7.28C125.351 7.022 125.285 6.743 125.285 6.443C125.285 5.927 125.465 5.519 125.825 5.219C126.185 4.913 126.662 4.76 127.256 4.76C127.646 4.76 127.985 4.817 128.273 4.931C128.561 5.045 128.807 5.204 129.011 5.408L128.858 5.39C128.816 4.784 128.684 4.352 128.462 4.094C128.246 3.83 127.937 3.698 127.535 3.698C127.301 3.698 127.085 3.734 126.887 3.806C126.689 3.878 126.506 3.953 126.338 4.031C126.176 4.103 126.023 4.139 125.879 4.139C125.735 4.139 125.621 4.091 125.537 3.995C125.459 3.899 125.42 3.776 125.42 3.626C125.42 3.41 125.522 3.206 125.726 3.014C125.936 2.822 126.212 2.666 126.554 2.546C126.896 2.426 127.268 2.366 127.67 2.366C128.156 2.366 128.573 2.483 128.921 2.717C129.269 2.951 129.533 3.293 129.713 3.743C129.869 4.127 129.98 4.556 130.046 5.03C130.112 5.504 130.145 6.011 130.145 6.551C130.145 6.959 130.124 7.274 130.082 7.496C130.04 7.718 129.974 7.874 129.884 7.964C129.8 8.048 129.686 8.09 129.542 8.09ZM127.553 7.082C127.751 7.082 127.952 7.055 128.156 7.001C128.36 6.941 128.531 6.854 128.669 6.74C128.807 6.626 128.876 6.485 128.876 6.317C128.876 6.173 128.816 6.056 128.696 5.966C128.582 5.87 128.429 5.798 128.237 5.75C128.051 5.702 127.85 5.678 127.634 5.678C127.268 5.678 126.989 5.741 126.797 5.867C126.611 5.993 126.518 6.161 126.518 6.371C126.518 6.599 126.605 6.776 126.779 6.902C126.959 7.022 127.217 7.082 127.553 7.082ZM135.121 3.878C135.181 3.632 135.286 3.41 135.436 3.212C135.592 3.014 135.778 2.858 135.994 2.744C136.216 2.624 136.459 2.564 136.723 2.564C137.035 2.564 137.311 2.639 137.551 2.789C137.791 2.939 137.98 3.185 138.118 3.527C138.262 3.869 138.334 4.325 138.334 4.895C138.334 5.189 138.322 5.486 138.298 5.786C138.274 6.086 138.244 6.365 138.208 6.623C138.172 6.881 138.133 7.097 138.091 7.271C138.031 7.511 137.938 7.694 137.812 7.82C137.692 7.946 137.539 8.009 137.353 8.009C137.197 8.009 137.074 7.94 136.984 7.802C136.894 7.664 136.849 7.466 136.849 7.208C136.849 7.088 136.864 6.935 136.894 6.749C136.924 6.557 136.957 6.35 136.993 6.128C137.029 5.9 137.062 5.669 137.092 5.435C137.122 5.201 137.137 4.979 137.137 4.769C137.137 4.457 137.074 4.217 136.948 4.049C136.822 3.875 136.645 3.788 136.417 3.788C136.165 3.788 135.955 3.92 135.787 4.184C135.625 4.442 135.529 4.82 135.499 5.318C135.475 5.762 135.454 6.158 135.436 6.506C135.418 6.848 135.373 7.13 135.301 7.352C135.253 7.508 135.184 7.625 135.094 7.703C135.01 7.781 134.896 7.82 134.752 7.82C134.59 7.82 134.461 7.76 134.365 7.64C134.275 7.52 134.224 7.331 134.212 7.073C134.2 6.857 134.197 6.602 134.203 6.308C134.209 6.014 134.212 5.723 134.212 5.435C134.218 5.141 134.215 4.898 134.203 4.706C134.179 4.322 134.11 4.04 133.996 3.86C133.888 3.68 133.723 3.59 133.501 3.59C133.243 3.59 133.036 3.71 132.88 3.95C132.73 4.19 132.637 4.523 132.601 4.949C132.589 5.123 132.583 5.339 132.583 5.597C132.589 5.849 132.595 6.101 132.601 6.353C132.607 6.605 132.604 6.815 132.592 6.983C132.586 7.343 132.529 7.601 132.421 7.757C132.319 7.913 132.175 7.991 131.989 7.991C131.767 7.991 131.605 7.919 131.503 7.775C131.407 7.631 131.344 7.4 131.314 7.082C131.29 6.8 131.272 6.521 131.26 6.245C131.248 5.963 131.242 5.684 131.242 5.408C131.242 5.126 131.248 4.82 131.26 4.49C131.278 4.16 131.302 3.848 131.332 3.554C131.368 3.254 131.431 3.002 131.521 2.798C131.611 2.594 131.761 2.492 131.971 2.492C132.145 2.492 132.268 2.579 132.34 2.753C132.412 2.921 132.448 3.182 132.448 3.536C132.448 3.656 132.439 3.767 132.421 3.869L132.394 3.689C132.514 3.299 132.706 2.996 132.97 2.78C133.234 2.558 133.528 2.447 133.852 2.447C134.278 2.447 134.611 2.585 134.851 2.861C135.091 3.131 135.223 3.506 135.247 3.986L135.121 3.878ZM141.92 8.09C141.788 8.09 141.68 8.045 141.596 7.955C141.518 7.865 141.455 7.736 141.407 7.568C141.359 7.322 141.317 7.001 141.281 6.605C141.251 6.203 141.236 5.774 141.236 5.318C141.236 5.06 141.242 4.769 141.254 4.445C141.266 4.121 141.281 3.794 141.299 3.464C141.323 3.128 141.347 2.816 141.371 2.528C141.401 2.24 141.431 2.006 141.461 1.826C141.509 1.562 141.578 1.355 141.668 1.205C141.764 1.049 141.914 0.971 142.118 0.971C142.328 0.971 142.481 1.052 142.577 1.214C142.673 1.37 142.721 1.565 142.721 1.799C142.721 2.063 142.7 2.375 142.658 2.735C142.622 3.095 142.565 3.461 142.487 3.833L142.307 4.049C142.373 3.797 142.481 3.566 142.631 3.356C142.781 3.146 142.97 2.981 143.198 2.861C143.426 2.735 143.69 2.672 143.99 2.672C144.578 2.672 145.046 2.882 145.394 3.302C145.748 3.716 145.925 4.364 145.925 5.246C145.925 5.864 145.832 6.38 145.646 6.794C145.466 7.208 145.217 7.52 144.899 7.73C144.587 7.934 144.23 8.036 143.828 8.036C143.45 8.036 143.123 7.925 142.847 7.703C142.577 7.481 142.403 7.16 142.325 6.74L142.451 6.839C142.427 7.271 142.367 7.589 142.271 7.793C142.181 7.991 142.064 8.09 141.92 8.09ZM143.567 6.992C143.867 6.992 144.131 6.857 144.359 6.587C144.587 6.317 144.701 5.894 144.701 5.318C144.701 4.838 144.611 4.448 144.431 4.148C144.257 3.848 143.963 3.698 143.549 3.698C143.213 3.698 142.943 3.833 142.739 4.103C142.535 4.367 142.433 4.769 142.433 5.309C142.433 5.801 142.535 6.206 142.739 6.524C142.943 6.836 143.219 6.992 143.567 6.992ZM150.767 8.09C150.563 8.09 150.422 8.012 150.344 7.856C150.272 7.694 150.23 7.439 150.218 7.091L150.308 7.136C149.972 7.79 149.336 8.117 148.4 8.117C147.974 8.117 147.62 8.042 147.338 7.892C147.056 7.736 146.846 7.532 146.708 7.28C146.576 7.022 146.51 6.743 146.51 6.443C146.51 5.927 146.69 5.519 147.05 5.219C147.41 4.913 147.887 4.76 148.481 4.76C148.871 4.76 149.21 4.817 149.498 4.931C149.786 5.045 150.032 5.204 150.236 5.408L150.083 5.39C150.041 4.784 149.909 4.352 149.687 4.094C149.471 3.83 149.162 3.698 148.76 3.698C148.526 3.698 148.31 3.734 148.112 3.806C147.914 3.878 147.731 3.953 147.563 4.031C147.401 4.103 147.248 4.139 147.104 4.139C146.96 4.139 146.846 4.091 146.762 3.995C146.684 3.899 146.645 3.776 146.645 3.626C146.645 3.41 146.747 3.206 146.951 3.014C147.161 2.822 147.437 2.666 147.779 2.546C148.121 2.426 148.493 2.366 148.895 2.366C149.381 2.366 149.798 2.483 150.146 2.717C150.494 2.951 150.758 3.293 150.938 3.743C151.094 4.127 151.205 4.556 151.271 5.03C151.337 5.504 151.37 6.011 151.37 6.551C151.37 6.959 151.349 7.274 151.307 7.496C151.265 7.718 151.199 7.874 151.109 7.964C151.025 8.048 150.911 8.09 150.767 8.09ZM148.778 7.082C148.976 7.082 149.177 7.055 149.381 7.001C149.585 6.941 149.756 6.854 149.894 6.74C150.032 6.626 150.101 6.485 150.101 6.317C150.101 6.173 150.041 6.056 149.921 5.966C149.807 5.87 149.654 5.798 149.462 5.75C149.276 5.702 149.075 5.678 148.859 5.678C148.493 5.678 148.214 5.741 148.022 5.867C147.836 5.993 147.743 6.161 147.743 6.371C147.743 6.599 147.83 6.776 148.004 6.902C148.184 7.022 148.442 7.082 148.778 7.082ZM153.386 2.402C153.578 2.402 153.707 2.48 153.773 2.636C153.845 2.792 153.881 3.023 153.881 3.329C153.881 3.401 153.875 3.479 153.863 3.563C153.857 3.641 153.845 3.713 153.827 3.779L153.809 3.599C153.953 3.209 154.175 2.906 154.475 2.69C154.775 2.468 155.093 2.357 155.429 2.357C155.801 2.357 156.11 2.462 156.356 2.672C156.608 2.882 156.794 3.176 156.914 3.554C157.04 3.932 157.103 4.379 157.103 4.895C157.103 5.213 157.088 5.528 157.058 5.84C157.034 6.146 156.998 6.428 156.95 6.686C156.908 6.938 156.86 7.145 156.806 7.307C156.734 7.511 156.641 7.664 156.527 7.766C156.413 7.862 156.278 7.91 156.122 7.91C155.966 7.91 155.846 7.853 155.762 7.739C155.678 7.625 155.636 7.472 155.636 7.28C155.636 7.076 155.651 6.83 155.681 6.542C155.711 6.248 155.738 5.951 155.762 5.651C155.792 5.345 155.807 5.069 155.807 4.823C155.807 3.983 155.531 3.563 154.979 3.563C154.685 3.563 154.439 3.695 154.241 3.959C154.043 4.217 153.911 4.586 153.845 5.066C153.827 5.228 153.818 5.429 153.818 5.669C153.818 5.909 153.818 6.149 153.818 6.389C153.824 6.623 153.818 6.821 153.8 6.983C153.776 7.343 153.707 7.601 153.593 7.757C153.485 7.913 153.335 7.991 153.143 7.991C152.921 7.991 152.753 7.889 152.639 7.685C152.525 7.475 152.468 7.124 152.468 6.632C152.468 6.38 152.474 6.098 152.486 5.786C152.498 5.474 152.513 5.162 152.531 4.85C152.555 4.532 152.582 4.244 152.612 3.986C152.672 3.5 152.759 3.116 152.873 2.834C152.987 2.546 153.158 2.402 153.386 2.402ZM159.917 7.856C159.353 7.856 158.894 7.64 158.54 7.208C158.186 6.77 158.009 6.107 158.009 5.219C158.009 4.271 158.18 3.578 158.522 3.14C158.864 2.702 159.314 2.483 159.872 2.483C160.202 2.483 160.493 2.567 160.745 2.735C160.997 2.903 161.213 3.14 161.393 3.446L161.321 3.572C161.303 3.488 161.288 3.398 161.276 3.302C161.264 3.206 161.258 3.134 161.258 3.086C161.258 2.84 161.297 2.651 161.375 2.519C161.459 2.381 161.588 2.312 161.762 2.312C161.954 2.312 162.104 2.39 162.212 2.546C162.326 2.702 162.413 2.924 162.473 3.212C162.551 3.506 162.617 3.881 162.671 4.337C162.725 4.787 162.752 5.243 162.752 5.705C162.752 6.281 162.731 6.764 162.689 7.154C162.647 7.544 162.578 7.868 162.482 8.126C162.386 8.384 162.26 8.609 162.104 8.801C161.846 9.113 161.513 9.35 161.105 9.512C160.703 9.68 160.238 9.764 159.71 9.764C159.332 9.764 159.029 9.728 158.801 9.656C158.573 9.59 158.408 9.497 158.306 9.377C158.21 9.263 158.162 9.134 158.162 8.99C158.162 8.84 158.204 8.714 158.288 8.612C158.372 8.516 158.498 8.468 158.666 8.468C158.816 8.468 158.99 8.492 159.188 8.54C159.392 8.588 159.632 8.612 159.908 8.612C160.49 8.612 160.901 8.474 161.141 8.198C161.387 7.928 161.51 7.538 161.51 7.028C161.51 6.89 161.501 6.728 161.483 6.542L161.609 6.587C161.459 6.971 161.237 7.28 160.943 7.514C160.649 7.742 160.307 7.856 159.917 7.856ZM160.259 6.749C160.451 6.749 160.643 6.698 160.835 6.596C161.027 6.494 161.186 6.326 161.312 6.092C161.438 5.858 161.501 5.543 161.501 5.147C161.501 4.673 161.39 4.286 161.168 3.986C160.946 3.686 160.634 3.536 160.232 3.536C159.884 3.536 159.629 3.668 159.467 3.932C159.305 4.196 159.224 4.595 159.224 5.129C159.224 5.639 159.305 6.038 159.467 6.326C159.629 6.608 159.893 6.749 160.259 6.749ZM167.9 7.946C167.738 7.946 167.612 7.892 167.522 7.784C167.438 7.67 167.381 7.526 167.351 7.352C167.321 7.172 167.306 6.983 167.306 6.785L167.351 6.749C167.291 7.007 167.174 7.229 167 7.415C166.826 7.601 166.625 7.745 166.397 7.847C166.169 7.943 165.941 7.991 165.713 7.991C165.407 7.991 165.128 7.919 164.876 7.775C164.624 7.631 164.429 7.409 164.291 7.109C164.153 6.791 164.045 6.392 163.967 5.912C163.889 5.426 163.85 4.928 163.85 4.418C163.85 4.142 163.862 3.887 163.886 3.653C163.91 3.419 163.949 3.227 164.003 3.077C164.051 2.921 164.123 2.807 164.219 2.735C164.315 2.657 164.438 2.618 164.588 2.618C164.762 2.618 164.897 2.687 164.993 2.825C165.095 2.957 165.158 3.143 165.182 3.383C165.206 3.581 165.221 3.827 165.227 4.121C165.239 4.409 165.248 4.7 165.254 4.994C165.266 5.282 165.281 5.525 165.299 5.723C165.335 6.083 165.428 6.35 165.578 6.524C165.728 6.692 165.911 6.776 166.127 6.776C166.445 6.776 166.688 6.656 166.856 6.416C167.024 6.176 167.108 5.84 167.108 5.408C167.108 5.192 167.096 4.949 167.072 4.679C167.048 4.403 167.021 4.136 166.991 3.878C166.967 3.62 166.955 3.407 166.955 3.239C166.955 2.957 167.003 2.756 167.099 2.636C167.195 2.51 167.327 2.447 167.495 2.447C167.639 2.447 167.759 2.486 167.855 2.564C167.957 2.642 168.038 2.75 168.098 2.888C168.182 3.068 168.254 3.314 168.314 3.626C168.374 3.938 168.422 4.292 168.458 4.688C168.494 5.084 168.512 5.501 168.512 5.939C168.512 6.611 168.467 7.115 168.377 7.451C168.287 7.781 168.128 7.946 167.9 7.946ZM170.525 2.402C170.717 2.402 170.846 2.48 170.912 2.636C170.984 2.792 171.02 3.023 171.02 3.329C171.02 3.401 171.014 3.479 171.002 3.563C170.996 3.641 170.984 3.713 170.966 3.779L170.948 3.599C171.092 3.209 171.314 2.906 171.614 2.69C171.914 2.468 172.232 2.357 172.568 2.357C172.94 2.357 173.249 2.462 173.495 2.672C173.747 2.882 173.933 3.176 174.053 3.554C174.179 3.932 174.242 4.379 174.242 4.895C174.242 5.213 174.227 5.528 174.197 5.84C174.173 6.146 174.137 6.428 174.089 6.686C174.047 6.938 173.999 7.145 173.945 7.307C173.873 7.511 173.78 7.664 173.666 7.766C173.552 7.862 173.417 7.91 173.261 7.91C173.105 7.91 172.985 7.853 172.901 7.739C172.817 7.625 172.775 7.472 172.775 7.28C172.775 7.076 172.79 6.83 172.82 6.542C172.85 6.248 172.877 5.951 172.901 5.651C172.931 5.345 172.946 5.069 172.946 4.823C172.946 3.983 172.67 3.563 172.118 3.563C171.824 3.563 171.578 3.695 171.38 3.959C171.182 4.217 171.05 4.586 170.984 5.066C170.966 5.228 170.957 5.429 170.957 5.669C170.957 5.909 170.957 6.149 170.957 6.389C170.963 6.623 170.957 6.821 170.939 6.983C170.915 7.343 170.846 7.601 170.732 7.757C170.624 7.913 170.474 7.991 170.282 7.991C170.06 7.991 169.892 7.889 169.778 7.685C169.664 7.475 169.607 7.124 169.607 6.632C169.607 6.38 169.613 6.098 169.625 5.786C169.637 5.474 169.652 5.162 169.67 4.85C169.694 4.532 169.721 4.244 169.751 3.986C169.811 3.5 169.898 3.116 170.012 2.834C170.126 2.546 170.297 2.402 170.525 2.402ZM178.822 8.126C178.234 8.126 177.775 7.907 177.445 7.469C177.115 7.025 176.95 6.35 176.95 5.444C176.95 4.544 177.112 3.887 177.436 3.473C177.766 3.053 178.237 2.843 178.849 2.843C179.197 2.843 179.5 2.915 179.758 3.059C180.022 3.203 180.256 3.407 180.46 3.671L180.388 3.707C180.334 3.461 180.28 3.2 180.226 2.924C180.172 2.648 180.127 2.387 180.091 2.141C180.061 1.889 180.046 1.691 180.046 1.547C180.046 1.343 180.079 1.187 180.145 1.079C180.211 0.965 180.316 0.908 180.46 0.908C180.664 0.908 180.829 0.995 180.955 1.169C181.081 1.337 181.186 1.598 181.27 1.952C181.348 2.27 181.417 2.648 181.477 3.086C181.537 3.518 181.585 3.971 181.621 4.445C181.663 4.913 181.684 5.363 181.684 5.795C181.684 6.395 181.651 6.863 181.585 7.199C181.525 7.529 181.438 7.76 181.324 7.892C181.216 8.024 181.087 8.09 180.937 8.09C180.751 8.09 180.625 7.997 180.559 7.811C180.493 7.625 180.466 7.322 180.478 6.902H180.613C180.451 7.274 180.214 7.571 179.902 7.793C179.596 8.015 179.236 8.126 178.822 8.126ZM179.299 7.01C179.515 7.01 179.713 6.956 179.893 6.848C180.079 6.734 180.226 6.56 180.334 6.326C180.448 6.092 180.505 5.795 180.505 5.435C180.505 4.973 180.4 4.598 180.19 4.31C179.98 4.016 179.677 3.869 179.281 3.869C178.969 3.869 178.714 3.998 178.516 4.256C178.324 4.514 178.228 4.904 178.228 5.426C178.228 5.888 178.324 6.269 178.516 6.569C178.714 6.863 178.975 7.01 179.299 7.01ZM186.714 8.09C186.51 8.09 186.369 8.012 186.291 7.856C186.219 7.694 186.177 7.439 186.165 7.091L186.255 7.136C185.919 7.79 185.283 8.117 184.347 8.117C183.921 8.117 183.567 8.042 183.285 7.892C183.003 7.736 182.793 7.532 182.655 7.28C182.523 7.022 182.457 6.743 182.457 6.443C182.457 5.927 182.637 5.519 182.997 5.219C183.357 4.913 183.834 4.76 184.428 4.76C184.818 4.76 185.157 4.817 185.445 4.931C185.733 5.045 185.979 5.204 186.183 5.408L186.03 5.39C185.988 4.784 185.856 4.352 185.634 4.094C185.418 3.83 185.109 3.698 184.707 3.698C184.473 3.698 184.257 3.734 184.059 3.806C183.861 3.878 183.678 3.953 183.51 4.031C183.348 4.103 183.195 4.139 183.051 4.139C182.907 4.139 182.793 4.091 182.709 3.995C182.631 3.899 182.592 3.776 182.592 3.626C182.592 3.41 182.694 3.206 182.898 3.014C183.108 2.822 183.384 2.666 183.726 2.546C184.068 2.426 184.44 2.366 184.842 2.366C185.328 2.366 185.745 2.483 186.093 2.717C186.441 2.951 186.705 3.293 186.885 3.743C187.041 4.127 187.152 4.556 187.218 5.03C187.284 5.504 187.317 6.011 187.317 6.551C187.317 6.959 187.296 7.274 187.254 7.496C187.212 7.718 187.146 7.874 187.056 7.964C186.972 8.048 186.858 8.09 186.714 8.09ZM184.725 7.082C184.923 7.082 185.124 7.055 185.328 7.001C185.532 6.941 185.703 6.854 185.841 6.74C185.979 6.626 186.048 6.485 186.048 6.317C186.048 6.173 185.988 6.056 185.868 5.966C185.754 5.87 185.601 5.798 185.409 5.75C185.223 5.702 185.022 5.678 184.806 5.678C184.44 5.678 184.161 5.741 183.969 5.867C183.783 5.993 183.69 6.161 183.69 6.371C183.69 6.599 183.777 6.776 183.951 6.902C184.131 7.022 184.389 7.082 184.725 7.082ZM189.664 2.582H189.484C189.466 2.318 189.472 2.069 189.502 1.835C189.532 1.595 189.595 1.403 189.691 1.259C189.793 1.109 189.937 1.034 190.123 1.034C190.291 1.034 190.414 1.088 190.492 1.196C190.57 1.304 190.609 1.454 190.609 1.646C190.609 2.024 190.537 2.348 190.393 2.618L190.231 2.6C190.555 2.486 190.921 2.429 191.329 2.429C191.587 2.429 191.791 2.48 191.941 2.582C192.097 2.678 192.175 2.843 192.175 3.077C192.175 3.299 192.085 3.467 191.905 3.581C191.725 3.695 191.5 3.752 191.23 3.752C191.068 3.752 190.894 3.746 190.708 3.734C190.528 3.716 190.351 3.689 190.177 3.653L190.33 3.464C190.384 3.692 190.435 3.953 190.483 4.247C190.537 4.535 190.585 4.835 190.627 5.147C190.669 5.459 190.702 5.762 190.726 6.056C190.75 6.35 190.762 6.614 190.762 6.848C190.762 7.232 190.702 7.535 190.582 7.757C190.462 7.979 190.285 8.09 190.051 8.09C189.865 8.09 189.718 8.033 189.61 7.919C189.508 7.805 189.433 7.661 189.385 7.487C189.343 7.307 189.316 7.121 189.304 6.929C189.298 6.737 189.295 6.563 189.295 6.407C189.295 6.143 189.307 5.846 189.331 5.516C189.355 5.18 189.388 4.835 189.43 4.481C189.478 4.127 189.532 3.785 189.592 3.455L189.772 3.608C189.466 3.764 189.088 3.842 188.638 3.842C188.362 3.842 188.149 3.791 187.999 3.689C187.849 3.587 187.774 3.428 187.774 3.212C187.774 2.978 187.858 2.798 188.026 2.672C188.194 2.54 188.419 2.474 188.701 2.474C188.887 2.474 189.061 2.486 189.223 2.51C189.391 2.528 189.538 2.552 189.664 2.582ZM196.839 8.09C196.635 8.09 196.494 8.012 196.416 7.856C196.344 7.694 196.302 7.439 196.29 7.091L196.38 7.136C196.044 7.79 195.408 8.117 194.472 8.117C194.046 8.117 193.692 8.042 193.41 7.892C193.128 7.736 192.918 7.532 192.78 7.28C192.648 7.022 192.582 6.743 192.582 6.443C192.582 5.927 192.762 5.519 193.122 5.219C193.482 4.913 193.959 4.76 194.553 4.76C194.943 4.76 195.282 4.817 195.57 4.931C195.858 5.045 196.104 5.204 196.308 5.408L196.155 5.39C196.113 4.784 195.981 4.352 195.759 4.094C195.543 3.83 195.234 3.698 194.832 3.698C194.598 3.698 194.382 3.734 194.184 3.806C193.986 3.878 193.803 3.953 193.635 4.031C193.473 4.103 193.32 4.139 193.176 4.139C193.032 4.139 192.918 4.091 192.834 3.995C192.756 3.899 192.717 3.776 192.717 3.626C192.717 3.41 192.819 3.206 193.023 3.014C193.233 2.822 193.509 2.666 193.851 2.546C194.193 2.426 194.565 2.366 194.967 2.366C195.453 2.366 195.87 2.483 196.218 2.717C196.566 2.951 196.83 3.293 197.01 3.743C197.166 4.127 197.277 4.556 197.343 5.03C197.409 5.504 197.442 6.011 197.442 6.551C197.442 6.959 197.421 7.274 197.379 7.496C197.337 7.718 197.271 7.874 197.181 7.964C197.097 8.048 196.983 8.09 196.839 8.09ZM194.85 7.082C195.048 7.082 195.249 7.055 195.453 7.001C195.657 6.941 195.828 6.854 195.966 6.74C196.104 6.626 196.173 6.485 196.173 6.317C196.173 6.173 196.113 6.056 195.993 5.966C195.879 5.87 195.726 5.798 195.534 5.75C195.348 5.702 195.147 5.678 194.931 5.678C194.565 5.678 194.286 5.741 194.094 5.867C193.908 5.993 193.815 6.161 193.815 6.371C193.815 6.599 193.902 6.776 194.076 6.902C194.256 7.022 194.514 7.082 194.85 7.082ZM198.54 3.941C198.54 3.365 198.594 2.951 198.702 2.699C198.81 2.441 198.963 2.312 199.161 2.312C199.317 2.312 199.44 2.378 199.53 2.51C199.62 2.636 199.686 2.795 199.728 2.987C199.77 3.173 199.791 3.362 199.791 3.554L199.746 3.536C199.848 3.212 200.004 2.933 200.214 2.699C200.43 2.465 200.688 2.348 200.988 2.348C201.342 2.348 201.603 2.495 201.771 2.789C201.939 3.077 202.023 3.437 202.023 3.869C202.023 4.445 201.957 4.847 201.825 5.075C201.693 5.303 201.516 5.417 201.294 5.417C201.132 5.417 201.012 5.351 200.934 5.219C200.862 5.087 200.838 4.853 200.862 4.517C200.886 4.163 200.865 3.917 200.799 3.779C200.733 3.641 200.628 3.572 200.484 3.572C200.31 3.572 200.166 3.683 200.052 3.905C199.944 4.121 199.89 4.388 199.89 4.706C199.89 4.832 199.905 4.991 199.935 5.183C199.965 5.375 199.998 5.585 200.034 5.813C200.07 6.035 200.103 6.257 200.133 6.479C200.163 6.701 200.178 6.905 200.178 7.091C200.178 7.421 200.127 7.658 200.025 7.802C199.923 7.946 199.779 8.018 199.593 8.018C199.383 8.018 199.221 7.952 199.107 7.82C198.993 7.682 198.906 7.46 198.846 7.154C198.798 6.878 198.75 6.551 198.702 6.173C198.654 5.795 198.615 5.408 198.585 5.012C198.555 4.616 198.54 4.259 198.54 3.941ZM207.036 2.42C207.198 2.42 207.333 2.516 207.441 2.708C207.549 2.894 207.624 3.191 207.666 3.599L207.477 3.77C207.585 3.35 207.786 3.029 208.08 2.807C208.374 2.585 208.722 2.474 209.124 2.474C209.496 2.474 209.826 2.57 210.114 2.762C210.402 2.954 210.627 3.245 210.789 3.635C210.957 4.019 211.041 4.502 211.041 5.084C211.041 6.026 210.87 6.722 210.528 7.172C210.192 7.616 209.733 7.838 209.151 7.838C208.731 7.838 208.401 7.748 208.161 7.568C207.921 7.388 207.753 7.169 207.657 6.911L207.765 6.857C207.813 7.217 207.852 7.574 207.882 7.928C207.918 8.276 207.936 8.582 207.936 8.846C207.936 9.116 207.888 9.344 207.792 9.53C207.696 9.716 207.543 9.809 207.333 9.809C207.129 9.809 206.976 9.731 206.874 9.575C206.772 9.419 206.697 9.212 206.649 8.954C206.613 8.69 206.577 8.351 206.541 7.937C206.505 7.523 206.475 7.076 206.451 6.596C206.433 6.116 206.424 5.648 206.424 5.192C206.424 4.724 206.439 4.286 206.469 3.878C206.505 3.464 206.547 3.128 206.595 2.87C206.637 2.72 206.691 2.609 206.757 2.537C206.829 2.459 206.922 2.42 207.036 2.42ZM208.755 3.509C208.431 3.509 208.17 3.671 207.972 3.995C207.78 4.313 207.684 4.721 207.684 5.219C207.684 5.729 207.78 6.11 207.972 6.362C208.17 6.614 208.425 6.74 208.737 6.74C209.097 6.74 209.355 6.599 209.511 6.317C209.673 6.029 209.754 5.657 209.754 5.201C209.754 4.619 209.655 4.193 209.457 3.923C209.259 3.647 209.025 3.509 208.755 3.509ZM214.472 8.072C213.806 8.072 213.275 7.973 212.879 7.775C212.483 7.577 212.198 7.292 212.024 6.92C211.85 6.548 211.763 6.104 211.763 5.588C211.763 4.934 211.883 4.379 212.123 3.923C212.369 3.461 212.705 3.107 213.131 2.861C213.563 2.615 214.052 2.492 214.598 2.492C215.24 2.492 215.711 2.642 216.011 2.942C216.311 3.236 216.461 3.623 216.461 4.103C216.461 4.487 216.359 4.82 216.155 5.102C215.957 5.378 215.681 5.591 215.327 5.741C214.973 5.891 214.565 5.966 214.103 5.966C213.845 5.966 213.596 5.933 213.356 5.867C213.116 5.801 212.9 5.711 212.708 5.597L212.924 5.201C212.906 5.345 212.897 5.489 212.897 5.633C212.897 6.053 213.029 6.356 213.293 6.542C213.557 6.722 213.932 6.812 214.418 6.812C214.796 6.812 215.099 6.779 215.327 6.713C215.555 6.647 215.747 6.584 215.903 6.524C216.059 6.458 216.212 6.425 216.362 6.425C216.446 6.425 216.521 6.449 216.587 6.497C216.659 6.539 216.716 6.602 216.758 6.686C216.806 6.77 216.83 6.872 216.83 6.992C216.83 7.172 216.74 7.346 216.56 7.514C216.38 7.676 216.113 7.811 215.759 7.919C215.411 8.021 214.982 8.072 214.472 8.072ZM213.95 5.129C214.376 5.129 214.718 5.039 214.976 4.859C215.234 4.679 215.363 4.457 215.363 4.193C215.363 3.983 215.291 3.812 215.147 3.68C215.009 3.542 214.79 3.473 214.49 3.473C214.208 3.473 213.953 3.527 213.725 3.635C213.503 3.737 213.329 3.872 213.203 4.04C213.077 4.208 213.014 4.391 213.014 4.589C213.014 4.763 213.095 4.898 213.257 4.994C213.425 5.084 213.656 5.129 213.95 5.129ZM217.621 3.941C217.621 3.365 217.675 2.951 217.783 2.699C217.891 2.441 218.044 2.312 218.242 2.312C218.398 2.312 218.521 2.378 218.611 2.51C218.701 2.636 218.767 2.795 218.809 2.987C218.851 3.173 218.872 3.362 218.872 3.554L218.827 3.536C218.929 3.212 219.085 2.933 219.295 2.699C219.511 2.465 219.769 2.348 220.069 2.348C220.423 2.348 220.684 2.495 220.852 2.789C221.02 3.077 221.104 3.437 221.104 3.869C221.104 4.445 221.038 4.847 220.906 5.075C220.774 5.303 220.597 5.417 220.375 5.417C220.213 5.417 220.093 5.351 220.015 5.219C219.943 5.087 219.919 4.853 219.943 4.517C219.967 4.163 219.946 3.917 219.88 3.779C219.814 3.641 219.709 3.572 219.565 3.572C219.391 3.572 219.247 3.683 219.133 3.905C219.025 4.121 218.971 4.388 218.971 4.706C218.971 4.832 218.986 4.991 219.016 5.183C219.046 5.375 219.079 5.585 219.115 5.813C219.151 6.035 219.184 6.257 219.214 6.479C219.244 6.701 219.259 6.905 219.259 7.091C219.259 7.421 219.208 7.658 219.106 7.802C219.004 7.946 218.86 8.018 218.674 8.018C218.464 8.018 218.302 7.952 218.188 7.82C218.074 7.682 217.987 7.46 217.927 7.154C217.879 6.878 217.831 6.551 217.783 6.173C217.735 5.795 217.696 5.408 217.666 5.012C217.636 4.616 217.621 4.259 217.621 3.941ZM224.179 2.366C224.713 2.366 225.097 2.444 225.331 2.6C225.565 2.756 225.682 2.957 225.682 3.203C225.682 3.347 225.631 3.467 225.529 3.563C225.433 3.653 225.295 3.698 225.115 3.698C224.929 3.698 224.734 3.671 224.53 3.617C224.332 3.563 224.101 3.536 223.837 3.536C223.531 3.536 223.303 3.596 223.153 3.716C223.003 3.836 222.928 3.989 222.928 4.175C222.928 4.349 222.994 4.487 223.126 4.589C223.264 4.685 223.525 4.757 223.909 4.805C224.335 4.853 224.686 4.931 224.962 5.039C225.244 5.141 225.454 5.297 225.592 5.507C225.73 5.711 225.799 5.993 225.799 6.353C225.799 6.923 225.598 7.346 225.196 7.622C224.794 7.898 224.239 8.036 223.531 8.036C223.081 8.036 222.724 8 222.46 7.928C222.196 7.856 222.004 7.754 221.884 7.622C221.77 7.49 221.713 7.334 221.713 7.154C221.713 6.998 221.764 6.878 221.866 6.794C221.974 6.704 222.1 6.659 222.244 6.659C222.382 6.659 222.529 6.677 222.685 6.713C222.841 6.743 223.006 6.776 223.18 6.812C223.354 6.848 223.534 6.866 223.72 6.866C224.32 6.866 224.62 6.68 224.62 6.308C224.62 6.182 224.59 6.08 224.53 6.002C224.47 5.924 224.362 5.861 224.206 5.813C224.05 5.759 223.822 5.717 223.522 5.687C223.162 5.651 222.85 5.591 222.586 5.507C222.322 5.417 222.118 5.273 221.974 5.075C221.83 4.871 221.758 4.592 221.758 4.238C221.758 3.68 221.968 3.23 222.388 2.888C222.808 2.54 223.405 2.366 224.179 2.366ZM229.229 8.072C228.563 8.072 228.032 7.973 227.636 7.775C227.24 7.577 226.955 7.292 226.781 6.92C226.607 6.548 226.52 6.104 226.52 5.588C226.52 4.934 226.64 4.379 226.88 3.923C227.126 3.461 227.462 3.107 227.888 2.861C228.32 2.615 228.809 2.492 229.355 2.492C229.997 2.492 230.468 2.642 230.768 2.942C231.068 3.236 231.218 3.623 231.218 4.103C231.218 4.487 231.116 4.82 230.912 5.102C230.714 5.378 230.438 5.591 230.084 5.741C229.73 5.891 229.322 5.966 228.86 5.966C228.602 5.966 228.353 5.933 228.113 5.867C227.873 5.801 227.657 5.711 227.465 5.597L227.681 5.201C227.663 5.345 227.654 5.489 227.654 5.633C227.654 6.053 227.786 6.356 228.05 6.542C228.314 6.722 228.689 6.812 229.175 6.812C229.553 6.812 229.856 6.779 230.084 6.713C230.312 6.647 230.504 6.584 230.66 6.524C230.816 6.458 230.969 6.425 231.119 6.425C231.203 6.425 231.278 6.449 231.344 6.497C231.416 6.539 231.473 6.602 231.515 6.686C231.563 6.77 231.587 6.872 231.587 6.992C231.587 7.172 231.497 7.346 231.317 7.514C231.137 7.676 230.87 7.811 230.516 7.919C230.168 8.021 229.739 8.072 229.229 8.072ZM228.707 5.129C229.133 5.129 229.475 5.039 229.733 4.859C229.991 4.679 230.12 4.457 230.12 4.193C230.12 3.983 230.048 3.812 229.904 3.68C229.766 3.542 229.547 3.473 229.247 3.473C228.965 3.473 228.71 3.527 228.482 3.635C228.26 3.737 228.086 3.872 227.96 4.04C227.834 4.208 227.771 4.391 227.771 4.589C227.771 4.763 227.852 4.898 228.014 4.994C228.182 5.084 228.413 5.129 228.707 5.129ZM234.097 7.856C233.533 7.856 233.074 7.64 232.72 7.208C232.366 6.77 232.189 6.107 232.189 5.219C232.189 4.271 232.36 3.578 232.702 3.14C233.044 2.702 233.494 2.483 234.052 2.483C234.382 2.483 234.673 2.567 234.925 2.735C235.177 2.903 235.393 3.14 235.573 3.446L235.501 3.572C235.483 3.488 235.468 3.398 235.456 3.302C235.444 3.206 235.438 3.134 235.438 3.086C235.438 2.84 235.477 2.651 235.555 2.519C235.639 2.381 235.768 2.312 235.942 2.312C236.134 2.312 236.284 2.39 236.392 2.546C236.506 2.702 236.593 2.924 236.653 3.212C236.731 3.506 236.797 3.881 236.851 4.337C236.905 4.787 236.932 5.243 236.932 5.705C236.932 6.281 236.911 6.764 236.869 7.154C236.827 7.544 236.758 7.868 236.662 8.126C236.566 8.384 236.44 8.609 236.284 8.801C236.026 9.113 235.693 9.35 235.285 9.512C234.883 9.68 234.418 9.764 233.89 9.764C233.512 9.764 233.209 9.728 232.981 9.656C232.753 9.59 232.588 9.497 232.486 9.377C232.39 9.263 232.342 9.134 232.342 8.99C232.342 8.84 232.384 8.714 232.468 8.612C232.552 8.516 232.678 8.468 232.846 8.468C232.996 8.468 233.17 8.492 233.368 8.54C233.572 8.588 233.812 8.612 234.088 8.612C234.67 8.612 235.081 8.474 235.321 8.198C235.567 7.928 235.69 7.538 235.69 7.028C235.69 6.89 235.681 6.728 235.663 6.542L235.789 6.587C235.639 6.971 235.417 7.28 235.123 7.514C234.829 7.742 234.487 7.856 234.097 7.856ZM234.439 6.749C234.631 6.749 234.823 6.698 235.015 6.596C235.207 6.494 235.366 6.326 235.492 6.092C235.618 5.858 235.681 5.543 235.681 5.147C235.681 4.673 235.57 4.286 235.348 3.986C235.126 3.686 234.814 3.536 234.412 3.536C234.064 3.536 233.809 3.668 233.647 3.932C233.485 4.196 233.404 4.595 233.404 5.129C233.404 5.639 233.485 6.038 233.647 6.326C233.809 6.608 234.073 6.749 234.439 6.749ZM238.821 1.097C239.061 1.097 239.232 1.163 239.334 1.295C239.442 1.427 239.496 1.58 239.496 1.754C239.496 1.97 239.43 2.138 239.298 2.258C239.172 2.372 238.992 2.429 238.758 2.429C238.53 2.429 238.359 2.366 238.245 2.24C238.131 2.108 238.074 1.955 238.074 1.781C238.074 1.553 238.143 1.382 238.281 1.268C238.419 1.154 238.599 1.097 238.821 1.097ZM238.875 3.104C239.067 3.104 239.217 3.284 239.325 3.644C239.439 4.004 239.496 4.577 239.496 5.363C239.496 6.329 239.427 7.025 239.289 7.451C239.151 7.877 238.941 8.09 238.659 8.09C238.443 8.09 238.284 7.934 238.182 7.622C238.08 7.304 238.029 6.752 238.029 5.966C238.029 5 238.107 4.283 238.263 3.815C238.425 3.341 238.629 3.104 238.875 3.104ZM243.01 2.42C243.172 2.42 243.307 2.516 243.415 2.708C243.523 2.894 243.598 3.191 243.64 3.599L243.451 3.77C243.559 3.35 243.76 3.029 244.054 2.807C244.348 2.585 244.696 2.474 245.098 2.474C245.47 2.474 245.8 2.57 246.088 2.762C246.376 2.954 246.601 3.245 246.763 3.635C246.931 4.019 247.015 4.502 247.015 5.084C247.015 6.026 246.844 6.722 246.502 7.172C246.166 7.616 245.707 7.838 245.125 7.838C244.705 7.838 244.375 7.748 244.135 7.568C243.895 7.388 243.727 7.169 243.631 6.911L243.739 6.857C243.787 7.217 243.826 7.574 243.856 7.928C243.892 8.276 243.91 8.582 243.91 8.846C243.91 9.116 243.862 9.344 243.766 9.53C243.67 9.716 243.517 9.809 243.307 9.809C243.103 9.809 242.95 9.731 242.848 9.575C242.746 9.419 242.671 9.212 242.623 8.954C242.587 8.69 242.551 8.351 242.515 7.937C242.479 7.523 242.449 7.076 242.425 6.596C242.407 6.116 242.398 5.648 242.398 5.192C242.398 4.724 242.413 4.286 242.443 3.878C242.479 3.464 242.521 3.128 242.569 2.87C242.611 2.72 242.665 2.609 242.731 2.537C242.803 2.459 242.896 2.42 243.01 2.42ZM244.729 3.509C244.405 3.509 244.144 3.671 243.946 3.995C243.754 4.313 243.658 4.721 243.658 5.219C243.658 5.729 243.754 6.11 243.946 6.362C244.144 6.614 244.399 6.74 244.711 6.74C245.071 6.74 245.329 6.599 245.485 6.317C245.647 6.029 245.728 5.657 245.728 5.201C245.728 4.619 245.629 4.193 245.431 3.923C245.233 3.647 244.999 3.509 244.729 3.509ZM251.859 8.09C251.655 8.09 251.514 8.012 251.436 7.856C251.364 7.694 251.322 7.439 251.31 7.091L251.4 7.136C251.064 7.79 250.428 8.117 249.492 8.117C249.066 8.117 248.712 8.042 248.43 7.892C248.148 7.736 247.938 7.532 247.8 7.28C247.668 7.022 247.602 6.743 247.602 6.443C247.602 5.927 247.782 5.519 248.142 5.219C248.502 4.913 248.979 4.76 249.573 4.76C249.963 4.76 250.302 4.817 250.59 4.931C250.878 5.045 251.124 5.204 251.328 5.408L251.175 5.39C251.133 4.784 251.001 4.352 250.779 4.094C250.563 3.83 250.254 3.698 249.852 3.698C249.618 3.698 249.402 3.734 249.204 3.806C249.006 3.878 248.823 3.953 248.655 4.031C248.493 4.103 248.34 4.139 248.196 4.139C248.052 4.139 247.938 4.091 247.854 3.995C247.776 3.899 247.737 3.776 247.737 3.626C247.737 3.41 247.839 3.206 248.043 3.014C248.253 2.822 248.529 2.666 248.871 2.546C249.213 2.426 249.585 2.366 249.987 2.366C250.473 2.366 250.89 2.483 251.238 2.717C251.586 2.951 251.85 3.293 252.03 3.743C252.186 4.127 252.297 4.556 252.363 5.03C252.429 5.504 252.462 6.011 252.462 6.551C252.462 6.959 252.441 7.274 252.399 7.496C252.357 7.718 252.291 7.874 252.201 7.964C252.117 8.048 252.003 8.09 251.859 8.09ZM249.87 7.082C250.068 7.082 250.269 7.055 250.473 7.001C250.677 6.941 250.848 6.854 250.986 6.74C251.124 6.626 251.193 6.485 251.193 6.317C251.193 6.173 251.133 6.056 251.013 5.966C250.899 5.87 250.746 5.798 250.554 5.75C250.368 5.702 250.167 5.678 249.951 5.678C249.585 5.678 249.306 5.741 249.114 5.867C248.928 5.993 248.835 6.161 248.835 6.371C248.835 6.599 248.922 6.776 249.096 6.902C249.276 7.022 249.534 7.082 249.87 7.082ZM254.478 2.402C254.67 2.402 254.799 2.48 254.865 2.636C254.937 2.792 254.973 3.023 254.973 3.329C254.973 3.401 254.967 3.479 254.955 3.563C254.949 3.641 254.937 3.713 254.919 3.779L254.901 3.599C255.045 3.209 255.267 2.906 255.567 2.69C255.867 2.468 256.185 2.357 256.521 2.357C256.893 2.357 257.202 2.462 257.448 2.672C257.7 2.882 257.886 3.176 258.006 3.554C258.132 3.932 258.195 4.379 258.195 4.895C258.195 5.213 258.18 5.528 258.15 5.84C258.126 6.146 258.09 6.428 258.042 6.686C258 6.938 257.952 7.145 257.898 7.307C257.826 7.511 257.733 7.664 257.619 7.766C257.505 7.862 257.37 7.91 257.214 7.91C257.058 7.91 256.938 7.853 256.854 7.739C256.77 7.625 256.728 7.472 256.728 7.28C256.728 7.076 256.743 6.83 256.773 6.542C256.803 6.248 256.83 5.951 256.854 5.651C256.884 5.345 256.899 5.069 256.899 4.823C256.899 3.983 256.623 3.563 256.071 3.563C255.777 3.563 255.531 3.695 255.333 3.959C255.135 4.217 255.003 4.586 254.937 5.066C254.919 5.228 254.91 5.429 254.91 5.669C254.91 5.909 254.91 6.149 254.91 6.389C254.916 6.623 254.91 6.821 254.892 6.983C254.868 7.343 254.799 7.601 254.685 7.757C254.577 7.913 254.427 7.991 254.235 7.991C254.013 7.991 253.845 7.889 253.731 7.685C253.617 7.475 253.56 7.124 253.56 6.632C253.56 6.38 253.566 6.098 253.578 5.786C253.59 5.474 253.605 5.162 253.623 4.85C253.647 4.532 253.674 4.244 253.704 3.986C253.764 3.5 253.851 3.116 253.965 2.834C254.079 2.546 254.25 2.402 254.478 2.402ZM259.335 9.872C259.095 9.872 258.879 9.821 258.687 9.719C258.495 9.617 258.342 9.488 258.228 9.332C258.114 9.176 258.057 9.017 258.057 8.855C258.057 8.717 258.093 8.609 258.165 8.531C258.237 8.453 258.33 8.414 258.444 8.414C258.642 8.414 258.855 8.489 259.083 8.639C259.311 8.789 259.527 8.996 259.731 9.26L259.596 9.242C259.494 8.402 259.416 7.598 259.362 6.83C259.314 6.056 259.29 5.363 259.29 4.751C259.29 4.193 259.335 3.776 259.425 3.5C259.521 3.218 259.677 3.077 259.893 3.077C260.139 3.077 260.334 3.269 260.478 3.653C260.622 4.037 260.694 4.685 260.694 5.597C260.694 5.999 260.682 6.413 260.658 6.839C260.634 7.259 260.598 7.658 260.55 8.036C260.508 8.414 260.448 8.732 260.37 8.99C260.274 9.302 260.142 9.527 259.974 9.665C259.812 9.803 259.599 9.872 259.335 9.872ZM259.749 2.33C259.557 2.33 259.401 2.288 259.281 2.204C259.167 2.114 259.11 1.979 259.11 1.799C259.11 1.595 259.179 1.424 259.317 1.286C259.461 1.142 259.662 1.07 259.92 1.07C260.136 1.07 260.301 1.124 260.415 1.232C260.529 1.334 260.586 1.472 260.586 1.646C260.586 1.862 260.508 2.03 260.352 2.15C260.196 2.27 259.995 2.33 259.749 2.33ZM265.728 8.09C265.524 8.09 265.383 8.012 265.305 7.856C265.233 7.694 265.191 7.439 265.179 7.091L265.269 7.136C264.933 7.79 264.297 8.117 263.361 8.117C262.935 8.117 262.581 8.042 262.299 7.892C262.017 7.736 261.807 7.532 261.669 7.28C261.537 7.022 261.471 6.743 261.471 6.443C261.471 5.927 261.651 5.519 262.011 5.219C262.371 4.913 262.848 4.76 263.442 4.76C263.832 4.76 264.171 4.817 264.459 4.931C264.747 5.045 264.993 5.204 265.197 5.408L265.044 5.39C265.002 4.784 264.87 4.352 264.648 4.094C264.432 3.83 264.123 3.698 263.721 3.698C263.487 3.698 263.271 3.734 263.073 3.806C262.875 3.878 262.692 3.953 262.524 4.031C262.362 4.103 262.209 4.139 262.065 4.139C261.921 4.139 261.807 4.091 261.723 3.995C261.645 3.899 261.606 3.776 261.606 3.626C261.606 3.41 261.708 3.206 261.912 3.014C262.122 2.822 262.398 2.666 262.74 2.546C263.082 2.426 263.454 2.366 263.856 2.366C264.342 2.366 264.759 2.483 265.107 2.717C265.455 2.951 265.719 3.293 265.899 3.743C266.055 4.127 266.166 4.556 266.232 5.03C266.298 5.504 266.331 6.011 266.331 6.551C266.331 6.959 266.31 7.274 266.268 7.496C266.226 7.718 266.16 7.874 266.07 7.964C265.986 8.048 265.872 8.09 265.728 8.09ZM263.739 7.082C263.937 7.082 264.138 7.055 264.342 7.001C264.546 6.941 264.717 6.854 264.855 6.74C264.993 6.626 265.062 6.485 265.062 6.317C265.062 6.173 265.002 6.056 264.882 5.966C264.768 5.87 264.615 5.798 264.423 5.75C264.237 5.702 264.036 5.678 263.82 5.678C263.454 5.678 263.175 5.741 262.983 5.867C262.797 5.993 262.704 6.161 262.704 6.371C262.704 6.599 262.791 6.776 262.965 6.902C263.145 7.022 263.403 7.082 263.739 7.082ZM268.347 2.402C268.539 2.402 268.668 2.48 268.734 2.636C268.806 2.792 268.842 3.023 268.842 3.329C268.842 3.401 268.836 3.479 268.824 3.563C268.818 3.641 268.806 3.713 268.788 3.779L268.77 3.599C268.914 3.209 269.136 2.906 269.436 2.69C269.736 2.468 270.054 2.357 270.39 2.357C270.762 2.357 271.071 2.462 271.317 2.672C271.569 2.882 271.755 3.176 271.875 3.554C272.001 3.932 272.064 4.379 272.064 4.895C272.064 5.213 272.049 5.528 272.019 5.84C271.995 6.146 271.959 6.428 271.911 6.686C271.869 6.938 271.821 7.145 271.767 7.307C271.695 7.511 271.602 7.664 271.488 7.766C271.374 7.862 271.239 7.91 271.083 7.91C270.927 7.91 270.807 7.853 270.723 7.739C270.639 7.625 270.597 7.472 270.597 7.28C270.597 7.076 270.612 6.83 270.642 6.542C270.672 6.248 270.699 5.951 270.723 5.651C270.753 5.345 270.768 5.069 270.768 4.823C270.768 3.983 270.492 3.563 269.94 3.563C269.646 3.563 269.4 3.695 269.202 3.959C269.004 4.217 268.872 4.586 268.806 5.066C268.788 5.228 268.779 5.429 268.779 5.669C268.779 5.909 268.779 6.149 268.779 6.389C268.785 6.623 268.779 6.821 268.761 6.983C268.737 7.343 268.668 7.601 268.554 7.757C268.446 7.913 268.296 7.991 268.104 7.991C267.882 7.991 267.714 7.889 267.6 7.685C267.486 7.475 267.429 7.124 267.429 6.632C267.429 6.38 267.435 6.098 267.447 5.786C267.459 5.474 267.474 5.162 267.492 4.85C267.516 4.532 267.543 4.244 267.573 3.986C267.633 3.5 267.72 3.116 267.834 2.834C267.948 2.546 268.119 2.402 268.347 2.402ZM274.878 7.856C274.314 7.856 273.855 7.64 273.501 7.208C273.147 6.77 272.97 6.107 272.97 5.219C272.97 4.271 273.141 3.578 273.483 3.14C273.825 2.702 274.275 2.483 274.833 2.483C275.163 2.483 275.454 2.567 275.706 2.735C275.958 2.903 276.174 3.14 276.354 3.446L276.282 3.572C276.264 3.488 276.249 3.398 276.237 3.302C276.225 3.206 276.219 3.134 276.219 3.086C276.219 2.84 276.258 2.651 276.336 2.519C276.42 2.381 276.549 2.312 276.723 2.312C276.915 2.312 277.065 2.39 277.173 2.546C277.287 2.702 277.374 2.924 277.434 3.212C277.512 3.506 277.578 3.881 277.632 4.337C277.686 4.787 277.713 5.243 277.713 5.705C277.713 6.281 277.692 6.764 277.65 7.154C277.608 7.544 277.539 7.868 277.443 8.126C277.347 8.384 277.221 8.609 277.065 8.801C276.807 9.113 276.474 9.35 276.066 9.512C275.664 9.68 275.199 9.764 274.671 9.764C274.293 9.764 273.99 9.728 273.762 9.656C273.534 9.59 273.369 9.497 273.267 9.377C273.171 9.263 273.123 9.134 273.123 8.99C273.123 8.84 273.165 8.714 273.249 8.612C273.333 8.516 273.459 8.468 273.627 8.468C273.777 8.468 273.951 8.492 274.149 8.54C274.353 8.588 274.593 8.612 274.869 8.612C275.451 8.612 275.862 8.474 276.102 8.198C276.348 7.928 276.471 7.538 276.471 7.028C276.471 6.89 276.462 6.728 276.444 6.542L276.57 6.587C276.42 6.971 276.198 7.28 275.904 7.514C275.61 7.742 275.268 7.856 274.878 7.856ZM275.22 6.749C275.412 6.749 275.604 6.698 275.796 6.596C275.988 6.494 276.147 6.326 276.273 6.092C276.399 5.858 276.462 5.543 276.462 5.147C276.462 4.673 276.351 4.286 276.129 3.986C275.907 3.686 275.595 3.536 275.193 3.536C274.845 3.536 274.59 3.668 274.428 3.932C274.266 4.196 274.185 4.595 274.185 5.129C274.185 5.639 274.266 6.038 274.428 6.326C274.59 6.608 274.854 6.749 275.22 6.749Z" fill="black"/>
</svg>
