<svg version="1.1" xmlns="http://www.w3.org/2000/svg" xmlns:xlink="http://www.w3.org/1999/xlink" width="64.91873" height="15.94873" viewBox="0,0,64.91873,15.94873"><g transform="translate(-207.54064,-172.02564)"><g data-paper-data="{&quot;isPaintingLayer&quot;:true}" fill-rule="nonzero" stroke-width="1" stroke-linecap="butt" stroke-linejoin="miter" stroke-miterlimit="10" stroke-dasharray="" stroke-dashoffset="0" style="mix-blend-mode: normal"><path d="M212.93763,172.52564h54.12473c2.70469,0 4.897,2.19246 4.897,4.897v5.15474c0,2.70454 -2.19231,4.897 -4.897,4.897h-54.12473c-2.70454,0 -4.897,-2.19246 -4.897,-4.897v-5.15474c0,-2.70454 2.19246,-4.897 4.897,-4.897z" fill="#a5a7a9" stroke="#000000"/><path d="M218.56351,178.40977c0.10964,0 0.19279,0.03778 0.24949,0.1134c0.0567,0.0718 0.08505,0.19088 0.08505,0.35723c0,0.20789 -0.02459,0.44227 -0.07372,0.70311c-0.04912,0.26083 -0.11907,0.50841 -0.20979,0.7428l-0.09072,-0.1134c0.30243,-0.06428 0.61614,-0.09449 0.94126,-0.09072c0.32511,0.00376 0.61996,0.0416 0.88455,0.1134l-0.10207,0.05103c-0.04912,-0.25326 -0.08696,-0.50465 -0.1134,-0.75413c-0.02268,-0.24949 -0.03402,-0.47062 -0.03402,-0.66341c0,-0.17769 0.02645,-0.30428 0.07938,-0.3799c0.05294,-0.07562 0.13799,-0.1134 0.25516,-0.1134c0.12099,0 0.21547,0.04345 0.28351,0.13042c0.06804,0.08315 0.12099,0.21547 0.15877,0.39692c0.0416,0.18902 0.07372,0.41769 0.09639,0.6861c0.02645,0.26459 0.03969,0.53676 0.03969,0.81651c0,0.27593 -0.00758,0.55759 -0.02268,0.84486c-0.0151,0.28728 -0.04345,0.55377 -0.08505,0.7995c-0.03402,0.19655 -0.08882,0.33831 -0.16444,0.42527c-0.07562,0.08696 -0.17954,0.13042 -0.31186,0.13042c-0.13609,0 -0.23439,-0.04345 -0.29485,-0.13042c-0.0567,-0.08696 -0.08505,-0.24949 -0.08505,-0.48764c0,-0.23057 0.01701,-0.47062 0.05103,-0.72011c0.03778,-0.24949 0.08882,-0.49522 0.15309,-0.73713l0.11907,0.17578c-0.28728,0.06047 -0.58779,0.09072 -0.90157,0.09072c-0.30996,-0.00376 -0.61238,-0.03402 -0.90724,-0.09072l0.01134,-0.19279c0.07562,0.24573 0.14552,0.49897 0.20979,0.75981c0.06804,0.26083 0.10207,0.52166 0.10207,0.78249c0,0.20789 -0.03593,0.35531 -0.10774,0.44227c-0.0718,0.08315 -0.17387,0.12474 -0.30619,0.12474c-0.1134,0 -0.20413,-0.03212 -0.27217,-0.09639c-0.06804,-0.06428 -0.11717,-0.18336 -0.14742,-0.35723c-0.03026,-0.17011 -0.0548,-0.38181 -0.07372,-0.63506c-0.01892,-0.25706 -0.02835,-0.52733 -0.02835,-0.81084c0,-0.33645 0.0151,-0.66341 0.04537,-0.98094c0.03026,-0.31753 0.06995,-0.5897 0.11907,-0.81651c0.03778,-0.17769 0.09263,-0.3081 0.16444,-0.39125c0.0718,-0.08315 0.16634,-0.12474 0.28351,-0.12474zM224.21031,182.63408c-0.12851,0 -0.21732,-0.04912 -0.2665,-0.14742c-0.04537,-0.10207 -0.0718,-0.26274 -0.07938,-0.48197l0.0567,0.02835c-0.21166,0.41202 -0.61238,0.61806 -1.20208,0.61806c-0.26836,0 -0.4914,-0.04727 -0.66908,-0.14176c-0.17764,-0.0983 -0.30996,-0.22681 -0.39692,-0.38558c-0.08315,-0.16253 -0.12474,-0.33831 -0.12474,-0.52733c0,-0.32511 0.1134,-0.58212 0.34021,-0.77115c0.22681,-0.19279 0.52733,-0.28918 0.90157,-0.28918c0.24573,0 0.45929,0.03593 0.64073,0.10774c0.18144,0.0718 0.33645,0.17201 0.46495,0.30053l-0.09639,-0.01134c-0.02645,-0.38181 -0.10959,-0.65398 -0.24949,-0.81651c-0.13609,-0.16634 -0.33073,-0.24949 -0.58403,-0.24949c-0.14742,0 -0.28351,0.02268 -0.40825,0.06804c-0.12474,0.04537 -0.24001,0.09263 -0.34588,0.14176c-0.10207,0.04537 -0.19846,0.06804 -0.28918,0.06804c-0.09072,0 -0.16253,-0.03026 -0.21547,-0.09072c-0.04912,-0.06047 -0.07372,-0.13799 -0.07372,-0.23248c0,-0.13609 0.06428,-0.26459 0.19279,-0.38558c0.13232,-0.12099 0.30619,-0.21923 0.52166,-0.29485c0.21547,-0.07562 0.44985,-0.1134 0.70311,-0.1134c0.30619,0 0.56893,0.07372 0.78816,0.22114c0.21928,0.14742 0.38558,0.3629 0.49897,0.64641c0.0983,0.24191 0.16825,0.51222 0.20979,0.81084c0.0416,0.29861 0.06237,0.61806 0.06237,0.95827c0,0.25706 -0.0132,0.45552 -0.03969,0.59537c-0.02645,0.13985 -0.06804,0.23815 -0.12474,0.29485c-0.05289,0.05294 -0.12474,0.07938 -0.21547,0.07938zM222.9572,181.99901c0.12474,0 0.2514,-0.01701 0.3799,-0.05103c0.12856,-0.03778 0.23629,-0.09263 0.3232,-0.16444c0.08696,-0.0718 0.13042,-0.16067 0.13042,-0.2665c0,-0.09072 -0.03778,-0.16444 -0.1134,-0.22114c-0.0718,-0.06047 -0.1682,-0.10582 -0.28918,-0.13609c-0.11717,-0.03026 -0.24382,-0.04537 -0.3799,-0.04537c-0.23057,0 -0.40635,0.03969 -0.52733,0.11907c-0.11717,0.07938 -0.17578,0.18521 -0.17578,0.31753c0,0.14366 0.05485,0.25516 0.16444,0.33454c0.1134,0.07562 0.27598,0.1134 0.48764,0.1134zM225.66745,179.06184c0.10207,0 0.18712,0.06047 0.25516,0.18144c0.06804,0.11717 0.11526,0.30428 0.14176,0.56135l-0.11907,0.10774c0.06804,-0.26459 0.19464,-0.46687 0.3799,-0.60671c0.18521,-0.13985 0.40444,-0.20979 0.65774,-0.20979c0.23434,0 0.44227,0.06047 0.62372,0.18144c0.18144,0.12099 0.3232,0.30428 0.42527,0.55001c0.10582,0.24191 0.15877,0.54624 0.15877,0.9129c0,0.59346 -0.10774,1.03198 -0.3232,1.31549c-0.21171,0.27975 -0.50089,0.4196 -0.86754,0.4196c-0.26464,0 -0.47254,-0.0567 -0.62372,-0.17011c-0.15124,-0.1134 -0.25706,-0.2514 -0.31753,-0.41393l0.06804,-0.03402c0.0302,0.22681 0.0548,0.45171 0.07372,0.67476c0.02268,0.21923 0.03402,0.41202 0.03402,0.57836c0,0.17011 -0.03026,0.31377 -0.09072,0.43094c-0.06052,0.11717 -0.15691,0.17578 -0.28918,0.17578c-0.12856,0 -0.22496,-0.04912 -0.28918,-0.14742c-0.06428,-0.0983 -0.11155,-0.22871 -0.14176,-0.39125c-0.02268,-0.16634 -0.04537,-0.3799 -0.06804,-0.64073c-0.02268,-0.26083 -0.0416,-0.54244 -0.0567,-0.84486c-0.01134,-0.30243 -0.01701,-0.59728 -0.01701,-0.88455c0,-0.29485 0.00943,-0.57079 0.02835,-0.82785c0.02268,-0.26083 0.04912,-0.47254 0.07938,-0.63506c0.02645,-0.09449 0.06047,-0.16444 0.10207,-0.20979c0.04537,-0.04912 0.10392,-0.07372 0.17578,-0.07372zM226.75046,179.74793c-0.20413,0 -0.36856,0.10207 -0.49331,0.30619c-0.12099,0.20036 -0.18144,0.45738 -0.18144,0.77115c0,0.3213 0.06047,0.56135 0.18144,0.72011c0.12474,0.15877 0.28536,0.23815 0.48197,0.23815c0.22681,0 0.38933,-0.08882 0.48764,-0.2665c0.10207,-0.18144 0.15309,-0.41583 0.15309,-0.70311c0,-0.36666 -0.06237,-0.63506 -0.18712,-0.80517c-0.12474,-0.17387 -0.27217,-0.26083 -0.44227,-0.26083zM231.31643,182.54335c-0.10207,0 -0.18144,-0.03402 -0.23815,-0.10207c-0.05294,-0.0718 -0.08882,-0.16253 -0.10774,-0.27217c-0.01892,-0.1134 -0.02835,-0.23248 -0.02835,-0.35723l0.02835,-0.02268c-0.03778,0.16253 -0.1115,0.30243 -0.22114,0.4196c-0.10964,0.11717 -0.23624,0.20789 -0.3799,0.27217c-0.14366,0.06047 -0.28728,0.09072 -0.43094,0.09072c-0.19279,0 -0.36856,-0.04537 -0.52733,-0.13609c-0.15877,-0.09072 -0.28161,-0.23057 -0.36856,-0.4196c-0.08696,-0.20036 -0.15501,-0.45171 -0.20413,-0.75413c-0.04912,-0.30619 -0.07372,-0.61996 -0.07372,-0.94126c0,-0.17387 0.00758,-0.33454 0.02268,-0.48197c0.0151,-0.14742 0.03969,-0.26841 0.07372,-0.3629c0.03026,-0.0983 0.07562,-0.17011 0.13609,-0.21547c0.06047,-0.04912 0.13799,-0.07372 0.23248,-0.07372c0.10964,0 0.19469,0.04345 0.25516,0.13042c0.06428,0.08315 0.10397,0.20036 0.11907,0.35155c0.0151,0.12474 0.02459,0.27975 0.02835,0.46495c0.00758,0.18144 0.01325,0.3648 0.01701,0.55001c0.00758,0.18144 0.01701,0.33454 0.02835,0.45929c0.02268,0.22681 0.08129,0.39501 0.17578,0.50465c0.09449,0.10582 0.20979,0.15877 0.34588,0.15877c0.20036,0 0.35346,-0.07562 0.45929,-0.22681c0.10582,-0.15119 0.15877,-0.3629 0.15877,-0.63506c0,-0.13609 -0.00758,-0.28918 -0.02268,-0.45929c-0.0151,-0.17387 -0.03212,-0.34212 -0.05103,-0.50465c-0.0151,-0.16253 -0.02268,-0.29676 -0.02268,-0.40258c0,-0.17769 0.03026,-0.30428 0.09072,-0.3799c0.06047,-0.07938 0.14366,-0.11907 0.24949,-0.11907c0.09072,0 0.16634,0.02459 0.22681,0.07372c0.06428,0.04912 0.11531,0.11717 0.15309,0.20413c0.05294,0.1134 0.0983,0.26841 0.13609,0.46495c0.03778,0.19655 0.06804,0.4196 0.09072,0.66908c0.02268,0.24949 0.03402,0.51222 0.03402,0.78816c0,0.42336 -0.02835,0.74089 -0.08505,0.95259c-0.0567,0.20789 -0.15686,0.31186 -0.30053,0.31186zM233.82633,179.02782c0.33645,0 0.57836,0.04912 0.72578,0.14742c0.14742,0.0983 0.22114,0.2249 0.22114,0.3799c0,0.09072 -0.03212,0.16634 -0.09639,0.22681c-0.06047,0.0567 -0.14742,0.08505 -0.26083,0.08505c-0.11717,0 -0.24001,-0.01701 -0.36856,-0.05103c-0.12474,-0.03402 -0.27026,-0.05103 -0.4366,-0.05103c-0.19279,0 -0.3364,0.03778 -0.43094,0.1134c-0.09449,0.07562 -0.14176,0.17201 -0.14176,0.28918c0,0.10964 0.0416,0.19655 0.12474,0.26083c0.08696,0.06047 0.2514,0.10582 0.49331,0.13609c0.26841,0.03026 0.48954,0.07938 0.66341,0.14742c0.17769,0.06428 0.31,0.16253 0.39692,0.29485c0.08696,0.12851 0.13042,0.30619 0.13042,0.533c0,0.35913 -0.1266,0.62563 -0.3799,0.7995c-0.25326,0.17387 -0.60289,0.26083 -1.04899,0.26083c-0.28351,0 -0.50841,-0.02268 -0.67476,-0.06804c-0.16629,-0.04537 -0.28728,-0.10964 -0.3629,-0.19279c-0.0718,-0.08315 -0.10774,-0.18144 -0.10774,-0.29485c0,-0.0983 0.03217,-0.17387 0.09639,-0.22681c0.06804,-0.0567 0.14742,-0.08505 0.23815,-0.08505c0.08696,0 0.17959,0.01134 0.27784,0.03402c0.0983,0.01892 0.20227,0.03969 0.31186,0.06237c0.10964,0.02268 0.22304,0.03402 0.34021,0.03402c0.37805,0 0.56702,-0.11717 0.56702,-0.35155c0,-0.07938 -0.01887,-0.14366 -0.0567,-0.19279c-0.03778,-0.04912 -0.10582,-0.08882 -0.20413,-0.11907c-0.09825,-0.03402 -0.24191,-0.06047 -0.43094,-0.07938c-0.22681,-0.02268 -0.42336,-0.06047 -0.5897,-0.1134c-0.16629,-0.0567 -0.29485,-0.14742 -0.38558,-0.27217c-0.09072,-0.12851 -0.13609,-0.30428 -0.13609,-0.52733c0,-0.35155 0.13232,-0.63506 0.39692,-0.85053c0.26464,-0.21923 0.64073,-0.32888 1.12838,-0.32888zM238.17187,179.20927c-0.17769,0.05294 -0.34212,0.09449 -0.49331,0.12474c-0.15124,0.02645 -0.293,0.03969 -0.42527,0.03969c-0.12099,0 -0.21547,-0.02459 -0.28351,-0.07372c-0.06804,-0.04912 -0.10207,-0.12284 -0.10207,-0.22114c0,-0.08315 0.02835,-0.16253 0.08505,-0.23815c0.0567,-0.07562 0.14361,-0.14366 0.26083,-0.20413c0.13985,-0.06804 0.31753,-0.12474 0.533,-0.17011c0.21547,-0.04537 0.46682,-0.06804 0.75413,-0.06804c0.19279,0 0.36098,0.01325 0.50465,0.03969c0.14361,0.02268 0.25701,0.05103 0.34021,0.08505c0.10959,0.04537 0.18521,0.0983 0.22681,0.15877c0.04537,0.0567 0.06804,0.12284 0.06804,0.19846c0,0.09449 -0.03402,0.17201 -0.10207,0.23248c-0.06804,0.06047 -0.17769,0.09072 -0.32888,0.09072c-0.09072,0 -0.18526,-0.00567 -0.28351,-0.01701c-0.09454,-0.01134 -0.19469,-0.02645 -0.30053,-0.04537zM238.56312,178.90308c0.19279,0.24191 0.34207,0.52357 0.44795,0.84486c0.10959,0.31753 0.16444,0.65016 0.16444,0.99796c0,0.3629 -0.05103,0.688 -0.15309,0.97527c-0.0983,0.28351 -0.25706,0.50841 -0.4763,0.67476c-0.21928,0.16253 -0.51032,0.24382 -0.87322,0.24382c-0.44609,0 -0.78063,-0.12474 -1.00363,-0.37423c-0.22304,-0.24949 -0.33454,-0.59161 -0.33454,-1.02631c0,-0.21171 0.02645,-0.39125 0.07938,-0.53867c0.0567,-0.14742 0.13042,-0.25892 0.22114,-0.33454c0.09072,-0.07938 0.18897,-0.11907 0.29485,-0.11907c0.09825,0 0.17196,0.03026 0.22114,0.09072c0.05289,0.0567 0.07938,0.13799 0.07938,0.24382c0,0.08696 -0.01515,0.18336 -0.04537,0.28918c-0.0265,0.10207 -0.03969,0.20222 -0.03969,0.30053c0,0.25326 0.04345,0.43852 0.13042,0.55568c0.09072,0.1134 0.23434,0.17011 0.43094,0.17011c0.26083,0 0.44413,-0.10582 0.55001,-0.31753c0.10959,-0.21547 0.16444,-0.50841 0.16444,-0.87888c0,-0.26841 -0.02835,-0.53109 -0.08505,-0.78816c-0.0567,-0.25706 -0.14742,-0.51975 -0.27217,-0.78816zM242.58865,182.63408c-0.12851,0 -0.21732,-0.04912 -0.2665,-0.14742c-0.04537,-0.10207 -0.0718,-0.26274 -0.07938,-0.48197l0.0567,0.02835c-0.21166,0.41202 -0.61238,0.61806 -1.20208,0.61806c-0.26836,0 -0.4914,-0.04727 -0.66908,-0.14176c-0.17764,-0.0983 -0.30996,-0.22681 -0.39692,-0.38558c-0.08315,-0.16253 -0.12474,-0.33831 -0.12474,-0.52733c0,-0.32511 0.1134,-0.58212 0.34021,-0.77115c0.22681,-0.19279 0.52733,-0.28918 0.90157,-0.28918c0.24573,0 0.45929,0.03593 0.64073,0.10774c0.18144,0.0718 0.33645,0.17201 0.46495,0.30053l-0.09639,-0.01134c-0.02645,-0.38181 -0.10959,-0.65398 -0.24949,-0.81651c-0.13609,-0.16634 -0.33073,-0.24949 -0.58403,-0.24949c-0.14742,0 -0.28351,0.02268 -0.40825,0.06804c-0.12474,0.04537 -0.24001,0.09263 -0.34588,0.14176c-0.10207,0.04537 -0.19846,0.06804 -0.28918,0.06804c-0.09072,0 -0.16253,-0.03026 -0.21547,-0.09072c-0.04912,-0.06047 -0.07372,-0.13799 -0.07372,-0.23248c0,-0.13609 0.06428,-0.26459 0.19279,-0.38558c0.13232,-0.12099 0.30619,-0.21923 0.52166,-0.29485c0.21547,-0.07562 0.44985,-0.1134 0.70311,-0.1134c0.30619,0 0.56893,0.07372 0.78816,0.22114c0.21928,0.14742 0.38558,0.3629 0.49897,0.64641c0.0983,0.24191 0.16825,0.51222 0.20979,0.81084c0.0416,0.29861 0.06237,0.61806 0.06237,0.95827c0,0.25706 -0.0132,0.45552 -0.03969,0.59537c-0.02645,0.13985 -0.06804,0.23815 -0.12474,0.29485c-0.05289,0.05294 -0.12474,0.07938 -0.21547,0.07938zM241.33554,181.99901c0.12474,0 0.2514,-0.01701 0.3799,-0.05103c0.12856,-0.03778 0.23629,-0.09263 0.3232,-0.16444c0.08696,-0.0718 0.13042,-0.16067 0.13042,-0.2665c0,-0.09072 -0.03778,-0.16444 -0.1134,-0.22114c-0.0718,-0.06047 -0.1682,-0.10582 -0.28918,-0.13609c-0.11717,-0.03026 -0.24382,-0.04537 -0.3799,-0.04537c-0.23057,0 -0.40635,0.03969 -0.52733,0.11907c-0.11717,0.07938 -0.17578,0.18521 -0.17578,0.31753c0,0.14366 0.05485,0.25516 0.16444,0.33454c0.1134,0.07562 0.27598,0.1134 0.48764,0.1134zM243.45609,180.27527c0,-0.39315 0.04537,-0.67666 0.13609,-0.85053c0.09449,-0.17387 0.21738,-0.26083 0.36856,-0.26083c0.08696,0 0.15309,0.03212 0.19846,0.09639c0.04912,0.06047 0.08315,0.14366 0.10207,0.24949c0.01892,0.10207 0.02835,0.21738 0.02835,0.34588c0,0.16253 0,0.35346 0,0.57269c0.00376,0.21547 0.00758,0.43852 0.01134,0.66908c0.00758,0.22681 0.0151,0.43852 0.02268,0.63506h0.02268c0.11717,-0.49522 0.23439,-0.90157 0.35155,-1.2191c0.12099,-0.31753 0.24382,-0.55192 0.36856,-0.70311c0.12851,-0.15501 0.25706,-0.23248 0.38558,-0.23248c0.13985,0 0.27217,0.07747 0.39692,0.23248c0.12851,0.15119 0.25326,0.38181 0.37423,0.69176c0.12474,0.30996 0.2514,0.7012 0.3799,1.17373h0.02268c0.01134,-0.32511 0.01892,-0.66718 0.02268,-1.02631c0.00376,-0.35913 0.00567,-0.688 0.00567,-0.98662c0,-0.21547 0.03593,-0.37423 0.10774,-0.4763c0.0718,-0.10207 0.17201,-0.15309 0.30053,-0.15309c0.16253,0 0.27975,0.08505 0.35155,0.25516c0.07562,0.16634 0.1134,0.39125 0.1134,0.67476c0,0.20789 -0.01134,0.43094 -0.03402,0.66908c-0.01892,0.23439 -0.04727,0.46119 -0.08505,0.68043c-0.03778,0.21923 -0.08315,0.41017 -0.13609,0.57269c-0.07938,0.24191 -0.1682,0.42527 -0.2665,0.55001c-0.09449,0.12474 -0.21923,0.18712 -0.37423,0.18712c-0.13985,0 -0.27975,-0.08129 -0.4196,-0.24382c-0.13609,-0.16634 -0.26459,-0.41393 -0.38558,-0.7428c-0.12099,-0.32888 -0.23248,-0.73903 -0.33454,-1.23043h-0.02268c-0.0983,0.46872 -0.21547,0.86187 -0.35155,1.1794c-0.13232,0.31377 -0.27408,0.55001 -0.42527,0.70878c-0.14742,0.15877 -0.29485,0.23815 -0.44227,0.23815c-0.15501,0 -0.28542,-0.06995 -0.39125,-0.20979c-0.10207,-0.13985 -0.18712,-0.35531 -0.25516,-0.64641c-0.03026,-0.14742 -0.0567,-0.30428 -0.07938,-0.47062c-0.02268,-0.17011 -0.03969,-0.33645 -0.05103,-0.49897c-0.01134,-0.16253 -0.01701,-0.30619 -0.01701,-0.43094zM250.4904,182.63408c-0.12851,0 -0.21732,-0.04912 -0.2665,-0.14742c-0.04537,-0.10207 -0.0718,-0.26274 -0.07938,-0.48197l0.0567,0.02835c-0.21166,0.41202 -0.61238,0.61806 -1.20208,0.61806c-0.26836,0 -0.4914,-0.04727 -0.66908,-0.14176c-0.17764,-0.0983 -0.30996,-0.22681 -0.39692,-0.38558c-0.08315,-0.16253 -0.12474,-0.33831 -0.12474,-0.52733c0,-0.32511 0.1134,-0.58212 0.34021,-0.77115c0.22681,-0.19279 0.52733,-0.28918 0.90157,-0.28918c0.24573,0 0.45929,0.03593 0.64073,0.10774c0.18144,0.0718 0.33645,0.17201 0.46495,0.30053l-0.09639,-0.01134c-0.02645,-0.38181 -0.10959,-0.65398 -0.24949,-0.81651c-0.13609,-0.16634 -0.33073,-0.24949 -0.58403,-0.24949c-0.14742,0 -0.28351,0.02268 -0.40825,0.06804c-0.12474,0.04537 -0.24001,0.09263 -0.34588,0.14176c-0.10207,0.04537 -0.19846,0.06804 -0.28918,0.06804c-0.09072,0 -0.16253,-0.03026 -0.21547,-0.09072c-0.04912,-0.06047 -0.07372,-0.13799 -0.07372,-0.23248c0,-0.13609 0.06428,-0.26459 0.19279,-0.38558c0.13232,-0.12099 0.30619,-0.21923 0.52166,-0.29485c0.21547,-0.07562 0.44985,-0.1134 0.70311,-0.1134c0.30619,0 0.56893,0.07372 0.78816,0.22114c0.21928,0.14742 0.38558,0.3629 0.49897,0.64641c0.0983,0.24191 0.16825,0.51222 0.20979,0.81084c0.0416,0.29861 0.06237,0.61806 0.06237,0.95827c0,0.25706 -0.0132,0.45552 -0.03969,0.59537c-0.02645,0.13985 -0.06804,0.23815 -0.12474,0.29485c-0.05289,0.05294 -0.12474,0.07938 -0.21547,0.07938zM249.23728,181.99901c0.12474,0 0.2514,-0.01701 0.3799,-0.05103c0.12856,-0.03778 0.23629,-0.09263 0.3232,-0.16444c0.08696,-0.0718 0.13042,-0.16067 0.13042,-0.2665c0,-0.09072 -0.03778,-0.16444 -0.1134,-0.22114c-0.0718,-0.06047 -0.1682,-0.10582 -0.28918,-0.13609c-0.11717,-0.03026 -0.24382,-0.04537 -0.3799,-0.04537c-0.23057,0 -0.40635,0.03969 -0.52733,0.11907c-0.11717,0.07938 -0.17578,0.18521 -0.17578,0.31753c0,0.14366 0.05485,0.25516 0.16444,0.33454c0.1134,0.07562 0.27598,0.1134 0.48764,0.1134zM251.9929,182.63408c-0.08315,0 -0.15119,-0.02835 -0.20413,-0.08505c-0.04912,-0.0567 -0.08882,-0.13799 -0.11907,-0.24382c-0.03026,-0.15501 -0.0567,-0.35723 -0.07938,-0.60671c-0.01892,-0.25326 -0.02835,-0.52357 -0.02835,-0.81084c0,-0.16253 0.00376,-0.34588 0.01134,-0.55001c0.00758,-0.20413 0.01701,-0.41017 0.02835,-0.61806c0.0151,-0.21171 0.03026,-0.40825 0.04537,-0.5897c0.01892,-0.18144 0.03778,-0.32888 0.0567,-0.44227c0.03026,-0.16634 0.07372,-0.29676 0.13042,-0.39125c0.06047,-0.0983 0.15501,-0.14742 0.28351,-0.14742c0.13232,0 0.22871,0.05103 0.28918,0.15309c0.06047,0.0983 0.09072,0.22114 0.09072,0.36856c0,0.16634 -0.01325,0.3629 -0.03969,0.5897c-0.02268,0.22681 -0.05861,0.45738 -0.10774,0.69176l-0.1134,0.13609c0.0416,-0.15877 0.10964,-0.30428 0.20413,-0.4366c0.09449,-0.13232 0.21356,-0.23624 0.35723,-0.31186c0.14366,-0.07938 0.30996,-0.11907 0.49897,-0.11907c0.37047,0 0.66533,0.13232 0.88455,0.39692c0.22304,0.26083 0.33454,0.66908 0.33454,1.22477c0,0.38933 -0.05861,0.71445 -0.17578,0.97527c-0.1134,0.26083 -0.27026,0.45738 -0.47062,0.5897c-0.19655,0.12851 -0.4215,0.19279 -0.67476,0.19279c-0.23815,0 -0.44418,-0.06995 -0.61806,-0.20979c-0.17011,-0.13985 -0.27975,-0.34212 -0.32888,-0.60671l0.07938,0.06237c-0.0151,0.27217 -0.05294,0.47254 -0.1134,0.60104c-0.0567,0.12474 -0.13042,0.18712 -0.22114,0.18712zM253.03055,181.94231c0.18902,0 0.35531,-0.08505 0.49897,-0.25516c0.14366,-0.17011 0.21547,-0.4366 0.21547,-0.7995c0,-0.30243 -0.0567,-0.5481 -0.17011,-0.73713c-0.10964,-0.18902 -0.29485,-0.28351 -0.55568,-0.28351c-0.21171,0 -0.38181,0.08505 -0.51032,0.25516c-0.12851,0.16634 -0.19279,0.4196 -0.19279,0.75981c0,0.30996 0.06428,0.56511 0.19279,0.76548c0.12851,0.19655 0.30243,0.29485 0.52166,0.29485zM257.56713,182.63408c-0.12856,0 -0.21738,-0.04912 -0.2665,-0.14742c-0.04537,-0.10207 -0.07186,-0.26274 -0.07938,-0.48197l0.0567,0.02835c-0.21171,0.41202 -0.61238,0.61806 -1.20208,0.61806c-0.26841,0 -0.49145,-0.04727 -0.66908,-0.14176c-0.17769,-0.0983 -0.31,-0.22681 -0.39692,-0.38558c-0.0832,-0.16253 -0.12474,-0.33831 -0.12474,-0.52733c0,-0.32511 0.1134,-0.58212 0.34021,-0.77115c0.22681,-0.19279 0.52733,-0.28918 0.90157,-0.28918c0.24567,0 0.45929,0.03593 0.64073,0.10774c0.18144,0.0718 0.3364,0.17201 0.46495,0.30053l-0.09639,-0.01134c-0.0265,-0.38181 -0.10964,-0.65398 -0.24949,-0.81651c-0.13609,-0.16634 -0.33078,-0.24949 -0.58403,-0.24949c-0.14742,0 -0.28351,0.02268 -0.40825,0.06804c-0.12474,0.04537 -0.24006,0.09263 -0.34588,0.14176c-0.10207,0.04537 -0.19846,0.06804 -0.28918,0.06804c-0.09072,0 -0.16258,-0.03026 -0.21547,-0.09072c-0.04917,-0.06047 -0.07372,-0.13799 -0.07372,-0.23248c0,-0.13609 0.06423,-0.26459 0.19279,-0.38558c0.13227,-0.12099 0.30619,-0.21923 0.52166,-0.29485c0.21547,-0.07562 0.4498,-0.1134 0.70311,-0.1134c0.30619,0 0.56887,0.07372 0.78816,0.22114c0.21923,0.14742 0.38558,0.3629 0.49897,0.64641c0.09825,0.24191 0.1682,0.51222 0.20979,0.81084c0.04155,0.29861 0.06237,0.61806 0.06237,0.95827c0,0.25706 -0.01325,0.45552 -0.03969,0.59537c-0.0265,0.13985 -0.06804,0.23815 -0.12474,0.29485c-0.05294,0.05294 -0.12474,0.07938 -0.21547,0.07938zM256.31402,181.99901c0.12474,0 0.25134,-0.01701 0.3799,-0.05103c0.12851,-0.03778 0.23624,-0.09263 0.3232,-0.16444c0.08691,-0.0718 0.13042,-0.16067 0.13042,-0.2665c0,-0.09072 -0.03784,-0.16444 -0.1134,-0.22114c-0.07186,-0.06047 -0.16825,-0.10582 -0.28918,-0.13609c-0.11722,-0.03026 -0.24382,-0.04537 -0.3799,-0.04537c-0.23063,0 -0.4064,0.03969 -0.52733,0.11907c-0.11722,0.07938 -0.17578,0.18521 -0.17578,0.31753c0,0.14366 0.0548,0.25516 0.16444,0.33454c0.1134,0.07562 0.27593,0.1134 0.48764,0.1134zM259.21701,179.0505c0.12099,0 0.20243,0.04912 0.24367,0.14742c0.04537,0.0983 0.06804,0.24382 0.06804,0.4366c0,0.04537 -0.00361,0.09449 -0.01134,0.14742c-0.00361,0.04912 -0.01134,0.09449 -0.02268,0.13609l-0.01134,-0.1134c0.09072,-0.24573 0.23093,-0.4366 0.4196,-0.57269c0.18918,-0.13985 0.3897,-0.20979 0.60104,-0.20979c0.23454,0 0.42939,0.06614 0.58403,0.19846c0.15877,0.13232 0.27629,0.31753 0.35155,0.55568c0.07938,0.23815 0.11907,0.51975 0.11907,0.84486c0,0.20036 -0.00928,0.39882 -0.02835,0.59537c-0.01495,0.19279 -0.03763,0.37047 -0.06804,0.533c-0.02629,0.15877 -0.0567,0.28918 -0.09072,0.39125c-0.04537,0.12851 -0.10361,0.2249 -0.17578,0.28918c-0.07165,0.06047 -0.1567,0.09072 -0.25516,0.09072c-0.09794,0 -0.17372,-0.03593 -0.22681,-0.10774c-0.05257,-0.0718 -0.07938,-0.1682 -0.07938,-0.28918c0,-0.12851 0.0098,-0.28351 0.02835,-0.46495c0.01907,-0.18521 0.03608,-0.37233 0.05103,-0.56135c0.01907,-0.19279 0.02835,-0.36666 0.02835,-0.52166c0,-0.52924 -0.17372,-0.79383 -0.52166,-0.79383c-0.18505,0 -0.34021,0.08315 -0.46495,0.24949c-0.12474,0.16253 -0.20774,0.39501 -0.24949,0.69743c-0.01134,0.10207 -0.01701,0.22871 -0.01701,0.3799c0,0.15119 0,0.30243 0,0.45362c0.00413,0.14742 0,0.27217 -0.01134,0.37423c-0.01495,0.22681 -0.05825,0.38933 -0.13042,0.48764c-0.06789,0.0983 -0.16238,0.14742 -0.28336,0.14742c-0.13985,0 -0.24573,-0.06428 -0.31753,-0.19279c-0.0718,-0.13232 -0.10774,-0.35346 -0.10774,-0.66341c0,-0.15877 0.00376,-0.33645 0.01134,-0.533c0.00758,-0.19655 0.01701,-0.39315 0.02835,-0.5897c0.0151,-0.20036 0.03212,-0.38181 0.05103,-0.54434c0.03778,-0.30619 0.09263,-0.5481 0.16444,-0.72578c0.0718,-0.18144 0.17954,-0.27217 0.3232,-0.27217z" fill="#000000" stroke="none"/></g></g></svg>