<svg version="1.1" xmlns="http://www.w3.org/2000/svg" xmlns:xlink="http://www.w3.org/1999/xlink" width="46.54601" height="55.9826" viewBox="0,0,46.54601,55.9826"><g transform="translate(-238.769,-125.31827)"><g data-paper-data="{&quot;isPaintingLayer&quot;:true}" fill-rule="nonzero" stroke-linecap="round" stroke-linejoin="miter" stroke-miterlimit="10" stroke-dasharray="" stroke-dashoffset="0" style="mix-blend-mode: normal"><path d="M278.66802,126.09542c1.59785,-0.00276 3.35591,0.66566 4.60344,1.72629c1.06155,0.9032 2.08121,2.38136 1.95646,3.79783c-0.11509,1.28528 -1.67519,2.15808 -2.64698,3.10732c-0.77476,0.76279 -1.50302,2.50887 -2.64698,2.30172c-1.45883,-0.27713 -2.03334,-2.28054 -3.2224,-3.2224c-0.87051,-0.69052 -2.99177,-0.41661 -2.99223,-1.49612c0.05709,-1.80593 2.02551,-3.01986 3.10732,-4.37327c0.54137,-0.67717 0.97133,-1.84 1.84137,-1.84138z" fill="#ff9400" stroke="none" stroke-width="1"/><path d="M275.21544,130.81394c1.55596,-0.19334 3.1842,0.65369 4.42804,1.61029c0.98698,0.75865 2.29481,2.07017 2.01677,3.33841c-0.45574,2.06878 -2.33348,3.79369 -4.02801,5.17887c-0.41661,0.34341 -0.801,-0.63574 -1.26595,-0.92069c-0.62837,-0.52019 -1.25996,-1.05096 -2.01124,-1.49519c-1.22451,-0.72504 -3.10916,-0.79731 -3.74305,-2.07246c-0.48566,-0.98191 0.48797,-2.12034 1.15086,-2.87715c0.92483,-1.18814 2.0361,-2.58759 3.45257,-2.76207z" fill="#b5b5b5" stroke="none" stroke-width="1"/><path d="M243.33666,168.90737c1.48138,-1.03347 3.64316,-3.06635 5.06378,-1.95646c2.02874,1.54997 2.65572,5.00301 1.95646,7.48058c-0.49901,1.76864 -3.21044,1.90398 -4.83361,2.87715c-1.02196,0.52203 -2.07108,0.99664 -3.10731,1.6112c-0.69558,0.41109 -1.26364,0.94554 -2.07155,1.26594c-0.22787,0.08976 -0.83875,0.505 -0.69052,-0.23017c0.59476,-2.93193 1.57852,-5.80263 2.53189,-8.63144c0.27391,-0.81388 0.4249,-1.89754 1.15086,-2.4168z" fill="#ffffcc" stroke="none" stroke-width="1"/><path d="M252.08318,157.97421c5.87306,-7.15696 11.77927,-14.33325 17.72323,-21.52105c1.49151,-1.79626 0.73655,-1.26595 1.38103,-1.49612c0.87465,-0.34526 1.91042,-0.29923 2.87714,0c1.08181,0.32224 2.09456,0.96671 2.87715,1.84137c0.75957,0.82862 1.4731,1.93345 1.6112,3.10732c0.06905,0.71353 0.43732,0.04603 -1.03578,1.95646c-5.91541,7.41153 -12.07112,14.72225 -18.06848,22.09649c-2.52222,3.10134 -4.96481,6.18242 -7.48058,9.20687c-0.60627,0.81481 -0.53906,1.24339 -1.03577,1.26594c-0.48336,0.01611 -0.65507,-0.73103 -1.03578,-1.03578c-0.39037,-0.31212 -0.77384,-0.71998 -1.26595,-0.8056c-0.46725,-0.08102 -0.90872,0.30751 -1.38103,0.34526c-0.49809,0.04005 -1.23971,0.3029 -1.49612,-0.11509c-0.31856,-0.52479 0.20071,-1.3373 0.23017,-2.07155c0.04558,-0.34158 0.25365,-0.77246 0,-1.15086c-0.24352,-0.3204 -0.79502,-0.19611 -1.15086,-0.34526c-0.50914,-0.21821 -2.1139,0.37334 -1.49612,-0.57543c2.46146,-3.81763 5.80539,-7.12934 8.74652,-10.70299z" fill="#ffff00" stroke="#000000" stroke-width="2"/><path d="M270.53556,141.40184l-24.97363,31.18827" fill="none" stroke="#000000" stroke-width="2"/><path d="M239.769,179.84052c0,0 0.06583,-0.38623 0.11508,-0.57543c0.18091,-0.69281 0.36965,-1.38564 0.57543,-2.07155c0.13949,-0.46448 0.31442,-0.91884 0.46035,-1.38103c0.31395,-0.99434 0.63067,-1.99099 0.92068,-2.99223c0.13166,-0.45528 0.209,-0.92713 0.34526,-1.38103c0.20899,-0.6965 0.69052,-2.07155 0.69052,-2.07155" fill="none" stroke="#000000" stroke-width="2"/><path d="M239.88408,180.30087c0,0 0.15973,0.03131 0.23017,0c0.28219,-0.12568 0.54551,-0.29324 0.80561,-0.46035c0.27713,-0.17816 0.52847,-0.39727 0.8056,-0.57543c0.2601,-0.1671 0.5363,-0.30889 0.8056,-0.46034c0.95705,-0.53814 1.89477,-1.12002 2.87715,-1.6112c0.70663,-0.35354 1.47311,-0.58187 2.18663,-0.92068c0.82079,-0.38991 1.61534,-0.83828 2.4168,-1.26594c0.34802,-0.18552 1.03578,-0.57543 1.03578,-0.57543" fill="none" stroke="#000000" stroke-width="2"/><path d="M271.18744,134.61178c0,0 1.78567,-2.39517 2.76206,-3.56766c0.21314,-0.26147 0.29047,-0.45574 0.57543,-0.46034c0.93127,-0.01703 1.90536,0.05432 2.76206,0.46034c1.18769,0.56484 2.2856,1.44778 3.10732,2.53189c0.68039,0.77337 0.83599,1.89662 1.26595,2.87715c0.10772,0.2449 0.21452,-0.03131 0.11509,0.11508c-0.37518,0.56806 -0.83,1.0505 -1.26595,1.6112c-0.63712,0.78074 -1.95646,2.4168 -1.95646,2.4168" fill="none" stroke="#000000" stroke-width="2"/><path d="M274.64365,130.46625c0,0 1.89951,-2.6467 2.98012,-3.80387c0.24375,-0.3019 0.43222,-0.65562 0.79952,-0.6784c0.81941,-0.07752 1.68053,-0.06155 2.4471,0.29075c1.24003,0.57032 2.46403,1.30254 3.39199,2.30172c0.67988,0.73895 0.99825,1.72748 1.18723,2.68937c0.11191,0.31934 -0.17493,0.63868 -0.33922,0.92069c-0.35469,0.60908 -0.7278,1.20803 -1.16296,1.72021c-0.754,0.95172 -2.39862,2.66515 -2.39862,2.66515" fill="none" stroke="#000000" stroke-width="2.10527"/><path d="M275.67579,133.23075c0,0 -0.07688,-0.02854 0,0c0.30659,0.11508 0.63159,0.19105 0.92068,0.34526c0.29093,0.15514 0.54642,0.37195 0.8056,0.57542c0.27804,0.21821 0.54689,0.45022 0.8056,0.69052c0.27805,0.25825 0.58142,0.49947 0.80561,0.8056c0.20255,0.27621 0.32132,0.60765 0.46034,0.92068c0.16757,0.37702 0.46035,1.15086 0.46035,1.15086" fill="none" stroke="#000000" stroke-width="2"/><path d="M242.07071,176.27286c0.296,0.02532 0.59154,0.15928 0.81343,0.354c0.24536,0.2159 0.40787,0.50592 0.54459,0.79685c0.09115,0.19473 0.16572,0.45574 0.06905,0.69052c-0.03038,0.12982 -0.15421,0.093 -0.39129,0.23018c-0.95061,0.55011 -2.28469,1.91779 -2.87715,1.6112c-0.54321,-0.30659 -0.01289,-1.77462 0.11508,-2.64697c0.05202,-0.32132 0.05938,-0.74576 0.34526,-0.92069c0.39083,-0.23109 0.93864,-0.15514 1.38103,-0.11508z" fill="#000000" stroke="none" stroke-width="1"/></g></g></svg>