<svg version="1.1" xmlns="http://www.w3.org/2000/svg" xmlns:xlink="http://www.w3.org/1999/xlink" width="147.01628" height="82.50427" viewBox="0,0,147.01628,82.50427"><g transform="translate(-166.48322,-138.24787)"><g data-paper-data="{&quot;isPaintingLayer&quot;:true}" fill-rule="nonzero" stroke-linecap="butt" stroke-linejoin="miter" stroke-miterlimit="10" stroke-dashoffset="0" style="mix-blend-mode: normal"><path d="M167.88407,210.0365l24.20334,-70.78864h120.02851l-23.21336,70.25772z" fill="none" stroke="#000000" stroke-width="2" stroke-dasharray=""/><path d="M243.06072,168.74284c0.41526,0 0.78195,0.06167 1.09988,0.18494c0.31793,0.12326 0.56781,0.3082 0.74947,0.55481c0.18821,0.24661 0.28227,0.55808 0.28227,0.93441c0,0.42827 -0.15574,0.81115 -0.46721,1.14855c-0.30501,0.33094 -0.78195,0.571 -1.43082,0.72027l-0.04867,-0.1168c0.67488,0.0584 1.17447,0.2336 1.49895,0.52561c0.32448,0.292 0.48667,0.67161 0.48667,1.13881c0,0.3374 -0.09406,0.64241 -0.28227,0.91494c-0.18166,0.27254 -0.45747,0.48995 -0.82734,0.65214c-0.36341,0.15574 -0.82407,0.2336 -1.38215,0.2336c-0.49968,0 -0.89548,-0.03893 -1.18748,-0.1168c-0.28554,-0.07787 -0.48667,-0.18166 -0.60347,-0.31147c-0.1168,-0.13627 -0.1752,-0.28554 -0.1752,-0.44774c0,-0.16219 0.04539,-0.29528 0.13627,-0.39907c0.09733,-0.11034 0.23688,-0.16547 0.41854,-0.16547c0.20768,0 0.42181,0.0292 0.64241,0.0876c0.2206,0.0584 0.45747,0.0876 0.71054,0.0876c0.32448,0 0.57427,-0.0584 0.74947,-0.1752c0.1752,-0.12326 0.2628,-0.27581 0.2628,-0.45747c0,-0.12981 -0.03247,-0.24006 -0.09733,-0.33094c-0.06486,-0.09733 -0.18494,-0.18166 -0.36014,-0.25307c-0.1752,-0.07787 -0.43155,-0.15246 -0.76894,-0.22387c-0.29846,-0.0584 -0.52561,-0.12653 -0.68134,-0.2044c-0.14928,-0.08433 -0.22387,-0.21086 -0.22387,-0.3796c0,-0.18821 0.08433,-0.3374 0.25307,-0.44774c0.16874,-0.11034 0.40553,-0.21741 0.71054,-0.3212c0.42181,-0.14928 0.72355,-0.292 0.90521,-0.42827c0.18821,-0.13627 0.28227,-0.30174 0.28227,-0.49641c0,-0.19467 -0.08114,-0.34067 -0.24334,-0.438c-0.15574,-0.09733 -0.38288,-0.146 -0.68134,-0.146c-0.24006,0 -0.47366,0.0292 -0.70081,0.0876c-0.22714,0.0584 -0.47048,0.0876 -0.73001,0.0876c-0.1752,0 -0.3082,-0.03893 -0.39907,-0.1168c-0.09087,-0.07787 -0.13627,-0.18821 -0.13627,-0.33094c0,-0.18821 0.09406,-0.36014 0.28227,-0.51587c0.18821,-0.16219 0.45101,-0.292 0.78841,-0.38934c0.3374,-0.09733 0.72673,-0.146 1.16801,-0.146zM252.36023,171.06913c0.06495,-0.26608 0.17848,-0.50614 0.34067,-0.72027c0.16874,-0.21414 0.36987,-0.38288 0.60347,-0.50614c0.24015,-0.12981 0.50295,-0.19467 0.78841,-0.19467c0.33748,0 0.63568,0.08114 0.89583,0.24334c0.25926,0.16219 0.46367,0.42827 0.61321,0.79814c0.15574,0.36987 0.2336,0.863 0.2336,1.47948c0,0.31793 -0.01327,0.63913 -0.03893,0.96361c-0.02655,0.32448 -0.0584,0.62621 -0.09733,0.90521c-0.03893,0.279 -0.08141,0.5126 -0.12653,0.70081c-0.06548,0.25953 -0.16547,0.45747 -0.30174,0.59374c-0.13007,0.13627 -0.29554,0.2044 -0.49641,0.2044c-0.16901,0 -0.30209,-0.07459 -0.39942,-0.22387c-0.09733,-0.14928 -0.146,-0.36341 -0.146,-0.64241c0,-0.12981 0.01628,-0.29528 0.04867,-0.49641c0.03247,-0.20768 0.06813,-0.43155 0.10707,-0.67161c0.03893,-0.24661 0.07468,-0.49641 0.10707,-0.74947c0.03247,-0.25307 0.04867,-0.49313 0.04867,-0.72027c0,-0.3374 -0.06813,-0.59701 -0.2044,-0.77868c-0.13627,-0.18821 -0.32766,-0.28227 -0.57427,-0.28227c-0.27254,0 -0.49959,0.14273 -0.68134,0.42827c-0.1752,0.279 -0.279,0.6878 -0.31147,1.22641c-0.02593,0.48021 -0.04867,0.90848 -0.06813,1.28481c-0.01947,0.36987 -0.06813,0.67488 -0.146,0.91494c-0.05185,0.16874 -0.12653,0.29528 -0.22387,0.3796c-0.09079,0.08433 -0.21414,0.12653 -0.36987,0.12653c-0.1752,0 -0.31466,-0.06486 -0.41854,-0.19467c-0.09733,-0.12981 -0.15246,-0.33421 -0.16547,-0.61321c-0.01292,-0.2336 -0.01619,-0.50941 -0.00973,-0.82734c0.00655,-0.31793 0.00973,-0.63267 0.00973,-0.94414c0.00655,-0.31793 0.00327,-0.58073 -0.00973,-0.78841c-0.02593,-0.41526 -0.10052,-0.72027 -0.22387,-0.91494c-0.1168,-0.19467 -0.29519,-0.292 -0.53534,-0.292c-0.279,0 -0.50286,0.12981 -0.67161,0.38934c-0.16219,0.25953 -0.2628,0.61967 -0.30174,1.08041c-0.01292,0.18821 -0.01947,0.42181 -0.01947,0.70081c0.00655,0.27254 0.01301,0.54507 0.01947,0.81761c0.00655,0.27254 0.00327,0.49968 -0.00973,0.68134c-0.00646,0.38934 -0.06813,0.66833 -0.18494,0.83708c-0.11025,0.16874 -0.26599,0.25307 -0.46721,0.25307c-0.24006,0 -0.41526,-0.07787 -0.52561,-0.2336c-0.10379,-0.15574 -0.17193,-0.40553 -0.2044,-0.74947c-0.02593,-0.30501 -0.04539,-0.60675 -0.0584,-0.90521c-0.01292,-0.30501 -0.01947,-0.60675 -0.01947,-0.90521c0,-0.30501 0.00655,-0.63595 0.01947,-0.99281c0.01947,-0.35686 0.04548,-0.69435 0.07787,-1.01228c0.03893,-0.32448 0.10707,-0.59701 0.2044,-0.81761c0.09733,-0.2206 0.25962,-0.33094 0.48667,-0.33094c0.18821,0 0.3212,0.09406 0.39907,0.28227c0.07787,0.18166 0.1168,0.46393 0.1168,0.84681c0,0.12981 -0.00973,0.2498 -0.0292,0.36014l-0.0292,-0.19467c0.12981,-0.42181 0.33748,-0.74947 0.62294,-0.98308c0.28554,-0.24006 0.60347,-0.36014 0.95388,-0.36014c0.46075,0 0.82088,0.14928 1.08041,0.44774c0.25962,0.292 0.40234,0.69753 0.42827,1.21668zM259.74915,175.60491c-0.72027,0 -1.29455,-0.10707 -1.72282,-0.3212c-0.42827,-0.21414 -0.7362,-0.52233 -0.92468,-0.92468c-0.18759,-0.40234 -0.28227,-0.88247 -0.28227,-1.44055c0,-0.70727 0.13007,-1.30755 0.38934,-1.80069c0.26634,-0.49968 0.63002,-0.88247 1.09015,-1.14855c0.46721,-0.26608 0.99635,-0.39907 1.58655,-0.39907c0.69461,0 1.20429,0.16219 1.52815,0.48667c0.32474,0.31793 0.48667,0.73647 0.48667,1.25561c0,0.41526 -0.10972,0.7754 -0.33094,1.08041c-0.21414,0.29846 -0.51233,0.52888 -0.89548,0.69107c-0.38226,0.16219 -0.8238,0.24334 -1.32375,0.24334c-0.27873,0 -0.54773,-0.03566 -0.80788,-0.10707c-0.25926,-0.07141 -0.49287,-0.16874 -0.70081,-0.292l0.2336,-0.42827c-0.01947,0.15574 -0.0292,0.31147 -0.0292,0.46721c0,0.4542 0.14335,0.78195 0.42827,0.98308c0.28581,0.19467 0.69107,0.292 1.21668,0.292c0.4088,0 0.73709,-0.03566 0.98308,-0.10707c0.24688,-0.07141 0.45482,-0.13954 0.62294,-0.2044c0.16901,-0.07141 0.33448,-0.10707 0.49641,-0.10707c0.09114,0 0.17255,0.02593 0.24334,0.07787c0.07787,0.04539 0.13981,0.11353 0.18494,0.2044c0.05221,0.09087 0.07787,0.20113 0.07787,0.33094c0,0.19467 -0.09733,0.38288 -0.292,0.56454c-0.19467,0.1752 -0.48313,0.3212 -0.86628,0.438c-0.37606,0.11034 -0.83973,0.16547 -1.39188,0.16547zM259.18461,172.42208c0.46101,0 0.83088,-0.09733 1.10961,-0.292c0.27962,-0.19467 0.41854,-0.43473 0.41854,-0.72027c0,-0.22714 -0.07787,-0.41208 -0.2336,-0.55481c-0.14866,-0.14928 -0.3858,-0.22387 -0.71054,-0.22387c-0.30439,0 -0.58047,0.0584 -0.82734,0.1752c-0.2398,0.11034 -0.42827,0.25634 -0.56454,0.438c-0.13627,0.18166 -0.2044,0.3796 -0.2044,0.59374c0,0.18821 0.0876,0.33421 0.2628,0.438c0.18228,0.09733 0.43181,0.146 0.74947,0.146zM264.79991,169.66751h-0.19467c-0.01947,-0.28554 -0.01327,-0.55481 0.01947,-0.80788c0.03274,-0.25953 0.10087,-0.46721 0.2044,-0.62294c0.11061,-0.16219 0.26634,-0.24334 0.46721,-0.24334c0.1814,0 0.31501,0.0584 0.39907,0.1752c0.08406,0.1168 0.12653,0.279 0.12653,0.48667c0,0.4088 -0.07787,0.75921 -0.2336,1.05121l-0.1752,-0.01947c0.3504,-0.12326 0.74594,-0.18494 1.18748,-0.18494c0.27873,0 0.49994,0.05513 0.66187,0.16547c0.16901,0.10379 0.25307,0.28227 0.25307,0.53534c0,0.24006 -0.09733,0.42181 -0.292,0.54507c-0.19467,0.12326 -0.438,0.18494 -0.73001,0.18494c-0.1752,0 -0.36368,-0.00646 -0.56454,-0.01947c-0.19467,-0.01947 -0.3858,-0.04867 -0.57427,-0.0876l0.16547,-0.2044c0.0584,0.24661 0.11326,0.52888 0.16547,0.84681c0.0584,0.31147 0.11061,0.63595 0.15574,0.97334c0.04513,0.3374 0.08141,0.66515 0.10707,0.98308c0.02566,0.31793 0.03893,0.60347 0.03893,0.85654c0,0.41526 -0.06459,0.74302 -0.19467,0.98308c-0.13007,0.24006 -0.3212,0.36014 -0.57427,0.36014c-0.20086,0 -0.36014,-0.06167 -0.47694,-0.18494c-0.11061,-0.12326 -0.19113,-0.279 -0.24334,-0.46721c-0.04513,-0.19467 -0.07433,-0.3958 -0.0876,-0.60347c-0.00619,-0.20768 -0.00973,-0.3958 -0.00973,-0.56454c0,-0.28554 0.01327,-0.60675 0.03893,-0.96361c0.02566,-0.36341 0.06194,-0.73647 0.10707,-1.11935c0.05221,-0.38288 0.11061,-0.75275 0.1752,-1.10961l0.19467,0.16547c-0.33094,0.16874 -0.73974,0.25307 -1.22641,0.25307c-0.2982,0 -0.52915,-0.05513 -0.69107,-0.16547c-0.16193,-0.11034 -0.24334,-0.28227 -0.24334,-0.51587c0,-0.25307 0.09114,-0.44774 0.27254,-0.58401c0.1814,-0.14273 0.42473,-0.21414 0.73001,-0.21414c0.20086,0 0.38934,0.01301 0.56454,0.03893c0.1814,0.01947 0.34067,0.04539 0.47694,0.07787zM270.93729,175.60491c-0.72027,0 -1.29455,-0.10707 -1.72282,-0.3212c-0.42827,-0.21414 -0.7362,-0.52233 -0.92468,-0.92468c-0.18847,-0.40234 -0.28227,-0.88247 -0.28227,-1.44055c0,-0.70727 0.13007,-1.30755 0.38934,-1.80069c0.26634,-0.49968 0.62913,-0.88247 1.09015,-1.14855c0.46721,-0.26608 0.99635,-0.39907 1.58655,-0.39907c0.69461,0 1.20341,0.16219 1.52815,0.48667c0.32474,0.31793 0.48667,0.73647 0.48667,1.25561c0,0.41526 -0.11061,0.7754 -0.33094,1.08041c-0.21414,0.29846 -0.51233,0.52888 -0.89548,0.69107c-0.38314,0.16219 -0.8238,0.24334 -1.32375,0.24334c-0.27873,0 -0.54861,-0.03566 -0.80788,-0.10707c-0.25926,-0.07141 -0.49287,-0.16874 -0.70081,-0.292l0.2336,-0.42827c-0.01947,0.15574 -0.0292,0.31147 -0.0292,0.46721c0,0.4542 0.14246,0.78195 0.42827,0.98308c0.28581,0.19467 0.69107,0.292 1.21668,0.292c0.4088,0 0.7362,-0.03566 0.98308,-0.10707c0.24688,-0.07141 0.45393,-0.13954 0.62294,-0.2044c0.16901,-0.07141 0.33448,-0.10707 0.49641,-0.10707c0.09114,0 0.17166,0.02593 0.24334,0.07787c0.07787,0.04539 0.13981,0.11353 0.18494,0.2044c0.05221,0.09087 0.07787,0.20113 0.07787,0.33094c0,0.19467 -0.09733,0.38288 -0.292,0.56454c-0.19467,0.1752 -0.48313,0.3212 -0.86628,0.438c-0.37606,0.11034 -0.84062,0.16547 -1.39188,0.16547zM270.37275,172.42208c0.46101,0 0.83088,-0.09733 1.10961,-0.292c0.27873,-0.19467 0.41854,-0.43473 0.41854,-0.72027c0,-0.22714 -0.07787,-0.41208 -0.2336,-0.55481c-0.14954,-0.14928 -0.3858,-0.22387 -0.71054,-0.22387c-0.30528,0 -0.58047,0.0584 -0.82734,0.1752c-0.2398,0.11034 -0.42827,0.25634 -0.56454,0.438c-0.13627,0.18166 -0.2044,0.3796 -0.2044,0.59374c0,0.18821 0.0876,0.33421 0.2628,0.438c0.1814,0.09733 0.43181,0.146 0.74947,0.146zM274.34311,171.13726c0,-0.62294 0.0584,-1.07068 0.1752,-1.34321c0.1168,-0.279 0.28227,-0.41854 0.49641,-0.41854c0.16812,0 0.30174,0.07141 0.39907,0.21414c0.09733,0.13627 0.16812,0.3082 0.21414,0.51587c0.04513,0.20113 0.06813,0.40553 0.06813,0.61321l-0.04867,-0.01947c0.10972,-0.3504 0.27873,-0.65214 0.50614,-0.90521c0.2336,-0.25307 0.51233,-0.3796 0.83708,-0.3796c0.38226,0 0.66453,0.15901 0.84681,0.47694c0.1814,0.31147 0.27254,0.70081 0.27254,1.16801c0,0.62294 -0.07167,1.05767 -0.21414,1.30428c-0.14335,0.24661 -0.33448,0.36987 -0.57427,0.36987c-0.1752,0 -0.30528,-0.07141 -0.38934,-0.21414c-0.07787,-0.14273 -0.10441,-0.3958 -0.07787,-0.75921c0.02566,-0.38288 0.00265,-0.64887 -0.06813,-0.79814c-0.07167,-0.14928 -0.18494,-0.22387 -0.34067,-0.22387c-0.18847,0 -0.34421,0.12008 -0.46721,0.36014c-0.1168,0.2336 -0.1752,0.52233 -0.1752,0.86628c0,0.13627 0.01593,0.3082 0.04867,0.51587c0.03185,0.20768 0.06813,0.43473 0.10707,0.68134c0.03893,0.24006 0.07433,0.48021 0.10707,0.72027c0.03185,0.24006 0.04867,0.46075 0.04867,0.66187c0,0.35686 -0.05575,0.61321 -0.16547,0.76894c-0.11061,0.15574 -0.26634,0.2336 -0.46721,0.2336c-0.22741,0 -0.40261,-0.07141 -0.52561,-0.21414c-0.12388,-0.14928 -0.21768,-0.38934 -0.28227,-0.72027c-0.05221,-0.29846 -0.10441,-0.65214 -0.15574,-1.06094c-0.05221,-0.4088 -0.09468,-0.82734 -0.12653,-1.25561c-0.03274,-0.42827 -0.04867,-0.81433 -0.04867,-1.15828z" fill="#0c0c0c" stroke="none" stroke-width="1" stroke-dasharray=""/><path d="M226.73686,214.34753c0,0.29846 -0.22387,0.64887 -0.67161,1.05121c-0.44774,0.3958 -1.14527,0.81761 -2.09269,1.26535l-0.06813,0.00973c0.14928,-0.05194 0.30174,-0.0876 0.45747,-0.10707c0.16219,-0.01947 0.31474,-0.0292 0.45747,-0.0292c0.52561,0 0.96361,0.09087 1.31401,0.27254c0.3504,0.1752 0.61321,0.41526 0.78841,0.72027c0.18166,0.30501 0.27254,0.65214 0.27254,1.04148c0,0.46075 -0.10707,0.85654 -0.3212,1.18748c-0.21414,0.32448 -0.50286,0.571 -0.86628,0.73974c-0.36341,0.16874 -0.7754,0.25307 -1.23615,0.25307c-0.60993,0 -1.10961,-0.0876 -1.49895,-0.2628c-0.38288,-0.1752 -0.66515,-0.41854 -0.84681,-0.73001c-0.18166,-0.31147 -0.27254,-0.67161 -0.27254,-1.08041c0,-0.38288 0.05194,-0.74947 0.15574,-1.09988c0.11034,-0.3504 0.27581,-0.70081 0.49641,-1.05121c0.22714,-0.35686 0.5126,-0.73001 0.85654,-1.11935c0.31793,-0.36341 0.62294,-0.66187 0.91494,-0.89548c0.29846,-0.24006 0.57755,-0.41854 0.83708,-0.53534c0.25953,-0.1168 0.49641,-0.1752 0.71054,-0.1752c0.18821,0 0.3374,0.04867 0.44774,0.146c0.11034,0.09733 0.16547,0.23033 0.16547,0.39907zM224.68311,217.58877c-0.38934,0 -0.69107,0.09087 -0.90521,0.27254c-0.21414,0.1752 -0.3212,0.40234 -0.3212,0.68134c0,0.25953 0.10061,0.46721 0.30174,0.62294c0.20768,0.15574 0.48667,0.2336 0.83708,0.2336c0.38288,0 0.68134,-0.09087 0.89548,-0.27254c0.2206,-0.18166 0.33094,-0.41208 0.33094,-0.69107c0,-0.26608 -0.10707,-0.47366 -0.3212,-0.62294c-0.20768,-0.14928 -0.48021,-0.22387 -0.81761,-0.22387zM234.22497,216.19689c0.06495,-0.26608 0.17848,-0.50614 0.34067,-0.72027c0.16874,-0.21414 0.36987,-0.38288 0.60347,-0.50614c0.24015,-0.12981 0.50295,-0.19467 0.78841,-0.19467c0.33748,0 0.63595,0.08114 0.89548,0.24334c0.25962,0.16219 0.46402,0.42827 0.61321,0.79814c0.15574,0.36987 0.2336,0.863 0.2336,1.47948c0,0.31793 -0.01292,0.63913 -0.03893,0.96361c-0.02593,0.32448 -0.0584,0.62621 -0.09733,0.90521c-0.03893,0.279 -0.08105,0.5126 -0.12653,0.70081c-0.06486,0.25953 -0.16547,0.45747 -0.30174,0.59374c-0.12972,0.13627 -0.29519,0.2044 -0.49641,0.2044c-0.16865,0 -0.30174,-0.07459 -0.39907,-0.22387c-0.09733,-0.14928 -0.146,-0.36341 -0.146,-0.64241c0,-0.12981 0.01628,-0.29528 0.04867,-0.49641c0.03247,-0.20768 0.06813,-0.43155 0.10707,-0.67161c0.03893,-0.24661 0.07468,-0.49641 0.10707,-0.74947c0.03247,-0.25307 0.04867,-0.49313 0.04867,-0.72027c0,-0.3374 -0.06813,-0.59701 -0.2044,-0.77868c-0.13627,-0.18821 -0.32766,-0.28227 -0.57427,-0.28227c-0.27254,0 -0.49959,0.14273 -0.68134,0.42827c-0.1752,0.279 -0.279,0.6878 -0.31147,1.22641c-0.02593,0.48021 -0.04867,0.90848 -0.06813,1.28481c-0.01947,0.36987 -0.06813,0.67488 -0.146,0.91494c-0.05185,0.16874 -0.12653,0.29528 -0.22387,0.3796c-0.09079,0.08433 -0.21414,0.12653 -0.36987,0.12653c-0.1752,0 -0.31466,-0.06486 -0.41854,-0.19467c-0.09733,-0.12981 -0.15246,-0.33421 -0.16547,-0.61321c-0.01292,-0.2336 -0.01619,-0.50941 -0.00973,-0.82734c0.00655,-0.31793 0.00973,-0.63267 0.00973,-0.94414c0.00655,-0.31793 0.00327,-0.58073 -0.00973,-0.78841c-0.02593,-0.41526 -0.10052,-0.72027 -0.22387,-0.91494c-0.1168,-0.19467 -0.29519,-0.292 -0.53534,-0.292c-0.279,0 -0.50286,0.12981 -0.67161,0.38934c-0.16219,0.25953 -0.2628,0.61967 -0.30174,1.08041c-0.01292,0.18821 -0.01947,0.42181 -0.01947,0.70081c0.00655,0.27254 0.01301,0.54507 0.01947,0.81761c0.00655,0.27254 0.00327,0.49968 -0.00973,0.68134c-0.00646,0.38934 -0.06813,0.66833 -0.18494,0.83708c-0.11025,0.16874 -0.26599,0.25307 -0.46721,0.25307c-0.24006,0 -0.41526,-0.07787 -0.52561,-0.2336c-0.10379,-0.15574 -0.17193,-0.40553 -0.2044,-0.74947c-0.02593,-0.30501 -0.04539,-0.60675 -0.0584,-0.90521c-0.01292,-0.30501 -0.01947,-0.60675 -0.01947,-0.90521c0,-0.30501 0.00655,-0.63595 0.01947,-0.99281c0.01947,-0.35686 0.04548,-0.69435 0.07787,-1.01228c0.03893,-0.32448 0.10707,-0.59701 0.2044,-0.81761c0.09733,-0.2206 0.25962,-0.33094 0.48667,-0.33094c0.18821,0 0.3212,0.09406 0.39907,0.28227c0.07787,0.18166 0.1168,0.46393 0.1168,0.84681c0,0.12981 -0.00973,0.2498 -0.0292,0.36014l-0.0292,-0.19467c0.12981,-0.42181 0.33748,-0.74947 0.62294,-0.98308c0.28554,-0.24006 0.60347,-0.36014 0.95388,-0.36014c0.46075,0 0.82088,0.14928 1.08041,0.44774c0.25962,0.292 0.40234,0.69753 0.42827,1.21668zM241.61416,220.73267c-0.72027,0 -1.29455,-0.10707 -1.72282,-0.3212c-0.42827,-0.21414 -0.73647,-0.52233 -0.92468,-0.92468c-0.18812,-0.40234 -0.28227,-0.88247 -0.28227,-1.44055c0,-0.70727 0.12981,-1.30755 0.38934,-1.80069c0.26608,-0.49968 0.62949,-0.88247 1.09015,-1.14855c0.46721,-0.26608 0.99608,-0.39907 1.58655,-0.39907c0.69435,0 1.20376,0.16219 1.52815,0.48667c0.32448,0.31793 0.48667,0.73647 0.48667,1.25561c0,0.41526 -0.11025,0.7754 -0.33094,1.08041c-0.21414,0.29846 -0.5126,0.52888 -0.89548,0.69107c-0.38279,0.16219 -0.82407,0.24334 -1.32375,0.24334c-0.279,0 -0.54826,-0.03566 -0.80788,-0.10707c-0.25953,-0.07141 -0.49313,-0.16874 -0.70081,-0.292l0.2336,-0.42827c-0.01947,0.15574 -0.0292,0.31147 -0.0292,0.46721c0,0.4542 0.14282,0.78195 0.42827,0.98308c0.28554,0.19467 0.69107,0.292 1.21668,0.292c0.4088,0 0.73656,-0.03566 0.98308,-0.10707c0.24661,-0.07141 0.45429,-0.13954 0.62294,-0.2044c0.16874,-0.07141 0.33421,-0.10707 0.49641,-0.10707c0.09087,0 0.17202,0.02593 0.24334,0.07787c0.07787,0.04539 0.13954,0.11353 0.18494,0.2044c0.05194,0.09087 0.07787,0.20113 0.07787,0.33094c0,0.19467 -0.09733,0.38288 -0.292,0.56454c-0.19467,0.1752 -0.4834,0.3212 -0.86628,0.438c-0.37633,0.11034 -0.84026,0.16547 -1.39188,0.16547zM241.04962,217.54983c0.46075,0 0.83062,-0.09733 1.10961,-0.292c0.27908,-0.19467 0.41854,-0.43473 0.41854,-0.72027c0,-0.22714 -0.07787,-0.41208 -0.2336,-0.55481c-0.14919,-0.14928 -0.38606,-0.22387 -0.71054,-0.22387c-0.30492,0 -0.58073,0.0584 -0.82734,0.1752c-0.24006,0.11034 -0.42827,0.25634 -0.56454,0.438c-0.13627,0.18166 -0.2044,0.3796 -0.2044,0.59374c0,0.18821 0.0876,0.33421 0.2628,0.438c0.18175,0.09733 0.43155,0.146 0.74947,0.146zM246.66475,214.79527h-0.19467c-0.01947,-0.28554 -0.01301,-0.55481 0.01947,-0.80788c0.03239,-0.25953 0.10052,-0.46721 0.2044,-0.62294c0.11025,-0.16219 0.26599,-0.24334 0.46721,-0.24334c0.18166,0 0.31466,0.0584 0.39907,0.1752c0.08433,0.1168 0.12653,0.279 0.12653,0.48667c0,0.4088 -0.07787,0.75921 -0.2336,1.05121l-0.1752,-0.01947c0.3504,-0.12326 0.7462,-0.18494 1.18748,-0.18494c0.279,0 0.49959,0.05513 0.66187,0.16547c0.16865,0.10379 0.25307,0.28227 0.25307,0.53534c0,0.24006 -0.09733,0.42181 -0.292,0.54507c-0.19467,0.12326 -0.438,0.18494 -0.73001,0.18494c-0.1752,0 -0.36341,-0.00646 -0.56454,-0.01947c-0.19467,-0.01947 -0.38615,-0.04867 -0.57427,-0.0876l0.16547,-0.2044c0.0584,0.24661 0.11353,0.52888 0.16547,0.84681c0.0584,0.31147 0.11025,0.63595 0.15574,0.97334c0.04539,0.3374 0.08105,0.66515 0.10707,0.98308c0.02593,0.31793 0.03893,0.60347 0.03893,0.85654c0,0.41526 -0.06495,0.74302 -0.19467,0.98308c-0.12981,0.24006 -0.3212,0.36014 -0.57427,0.36014c-0.20122,0 -0.36014,-0.06167 -0.47694,-0.18494c-0.11034,-0.12326 -0.19148,-0.279 -0.24334,-0.46721c-0.04548,-0.19467 -0.07468,-0.3958 -0.0876,-0.60347c-0.00655,-0.20768 -0.00973,-0.3958 -0.00973,-0.56454c0,-0.28554 0.01292,-0.60675 0.03893,-0.96361c0.02593,-0.36341 0.06159,-0.73647 0.10707,-1.11935c0.05185,-0.38288 0.11025,-0.75275 0.1752,-1.10961l0.19467,0.16547c-0.33094,0.16874 -0.73974,0.25307 -1.22641,0.25307c-0.29855,0 -0.52888,-0.05513 -0.69107,-0.16547c-0.16228,-0.11034 -0.24334,-0.28227 -0.24334,-0.51587c0,-0.25307 0.09079,-0.44774 0.27254,-0.58401c0.18166,-0.14273 0.425,-0.21414 0.73001,-0.21414c0.20113,0 0.38934,0.01301 0.56454,0.03893c0.18166,0.01947 0.34067,0.04539 0.47694,0.07787zM252.80195,220.73267c-0.72027,0 -1.29455,-0.10707 -1.72282,-0.3212c-0.42827,-0.21414 -0.73647,-0.52233 -0.92468,-0.92468c-0.18821,-0.40234 -0.28227,-0.88247 -0.28227,-1.44055c0,-0.70727 0.12981,-1.30755 0.38934,-1.80069c0.26608,-0.49968 0.6294,-0.88247 1.09015,-1.14855c0.46721,-0.26608 0.99608,-0.39907 1.58655,-0.39907c0.69435,0 1.20367,0.16219 1.52815,0.48667c0.32403,0.31793 0.48685,0.73647 0.48685,1.25561c0,0.41526 -0.11061,0.7754 -0.33094,1.08041c-0.21431,0.29846 -0.51278,0.52888 -0.89565,0.69107c-0.38288,0.16219 -0.82407,0.24334 -1.32375,0.24334c-0.279,0 -0.54835,-0.03566 -0.80788,-0.10707c-0.25953,-0.07141 -0.49313,-0.16874 -0.70081,-0.292l0.2336,-0.42827c-0.01947,0.15574 -0.0292,0.31147 -0.0292,0.46721c0,0.4542 0.14273,0.78195 0.42827,0.98308c0.28554,0.19467 0.69107,0.292 1.21668,0.292c0.4088,0 0.73647,-0.03566 0.98308,-0.10707c0.24661,-0.07141 0.4542,-0.13954 0.62294,-0.2044c0.16874,-0.07141 0.33377,-0.10707 0.49658,-0.10707c0.09026,0 0.17166,0.02593 0.24334,0.07787c0.07787,0.04539 0.13892,0.11353 0.18494,0.2044c0.05132,0.09087 0.07787,0.20113 0.07787,0.33094c0,0.19467 -0.09733,0.38288 -0.292,0.56454c-0.19467,0.1752 -0.48357,0.3212 -0.86645,0.438c-0.37633,0.11034 -0.84035,0.16547 -1.39188,0.16547zM252.23741,217.54983c0.46075,0 0.83062,-0.09733 1.10961,-0.292c0.279,-0.19467 0.41854,-0.43473 0.41854,-0.72027c0,-0.22714 -0.07787,-0.41208 -0.2336,-0.55481c-0.14928,-0.14928 -0.38606,-0.22387 -0.71054,-0.22387c-0.30501,0 -0.58073,0.0584 -0.82734,0.1752c-0.24006,0.11034 -0.42827,0.25634 -0.56454,0.438c-0.13627,0.18166 -0.2044,0.3796 -0.2044,0.59374c0,0.18821 0.0876,0.33421 0.2628,0.438c0.18166,0.09733 0.43155,0.146 0.74947,0.146zM256.20794,216.26502c0,-0.62294 0.0584,-1.07068 0.1752,-1.34321c0.1168,-0.279 0.28227,-0.41854 0.49641,-0.41854c0.16812,0 0.30174,0.07141 0.39907,0.21414c0.09733,0.13627 0.16812,0.3082 0.21414,0.51587c0.04513,0.20113 0.06813,0.40553 0.06813,0.61321l-0.04867,-0.01947c0.10972,-0.3504 0.27873,-0.65214 0.50614,-0.90521c0.2336,-0.25307 0.51233,-0.3796 0.83708,-0.3796c0.38226,0 0.66453,0.15901 0.84681,0.47694c0.1814,0.31147 0.27254,0.70081 0.27254,1.16801c0,0.62294 -0.07167,1.05767 -0.21414,1.30428c-0.14335,0.24661 -0.33448,0.36987 -0.57427,0.36987c-0.1752,0 -0.30528,-0.07141 -0.38934,-0.21414c-0.07787,-0.14273 -0.10441,-0.3958 -0.07787,-0.75921c0.02566,-0.38288 0.00265,-0.64887 -0.06813,-0.79814c-0.07167,-0.14928 -0.18494,-0.22387 -0.34067,-0.22387c-0.18847,0 -0.34421,0.12008 -0.46721,0.36014c-0.1168,0.2336 -0.1752,0.52233 -0.1752,0.86628c0,0.13627 0.01593,0.3082 0.04867,0.51587c0.03185,0.20768 0.06813,0.43473 0.10707,0.68134c0.03893,0.24006 0.07433,0.48021 0.10707,0.72027c0.03185,0.24006 0.04867,0.46075 0.04867,0.66187c0,0.35686 -0.05575,0.61321 -0.16547,0.76894c-0.11061,0.15574 -0.26634,0.2336 -0.46721,0.2336c-0.22741,0 -0.40261,-0.07141 -0.52561,-0.21414c-0.12388,-0.14928 -0.21768,-0.38934 -0.28227,-0.72027c-0.05221,-0.29846 -0.10441,-0.65214 -0.15574,-1.06094c-0.05221,-0.4088 -0.09468,-0.82734 -0.12653,-1.25561c-0.03274,-0.42827 -0.04867,-0.81433 -0.04867,-1.15828z" fill="#0c0c0c" stroke="none" stroke-width="1" stroke-dasharray=""/><path d="M281.1459,140.13272v69.90936" fill="none" stroke="#000000" stroke-width="2" stroke-dasharray="4,4"/></g></g></svg>