<svg version="1.1" xmlns="http://www.w3.org/2000/svg" xmlns:xlink="http://www.w3.org/1999/xlink" width="44.69465" height="19.54632" viewBox="0,0,44.69465,19.54632"><g transform="translate(-217.65267,-170.22684)"><g data-paper-data="{&quot;isPaintingLayer&quot;:true}" fill-rule="nonzero" stroke-linecap="butt" stroke-linejoin="miter" stroke-miterlimit="10" stroke-dasharray="" stroke-dashoffset="0" style="mix-blend-mode: normal"><g><path d="" fill="#ececec" stroke="none" stroke-width="1"/><path d="" fill="none" stroke="#dcd6d6" stroke-width="1.5"/><path d="" fill="none" stroke="#dcd6d6" stroke-width="1.5"/><path d="" fill="none" stroke="#dcd6d6" stroke-width="1.5"/><path d="" fill="none" stroke="#dcd6d6" stroke-width="1.5"/><path d="" fill="none" stroke="#dcd6d6" stroke-width="1.5"/><path d="" fill="none" stroke="#dcd6d6" stroke-width="1.5"/><path d="" fill="none" stroke="#dcd6d6" stroke-width="1.5"/><path d="" fill="none" stroke="#dcd6d6" stroke-width="1.5"/><path d="" fill="none" stroke="#dcd6d6" stroke-width="1.5"/><path d="" fill="none" stroke="#dcd6d6" stroke-width="1.5"/><path d="" fill="none" stroke="#dcd6d6" stroke-width="1.5"/><path d="" fill="none" stroke="#dcd6d6" stroke-width="1.5"/><path d="" fill="none" stroke="#dcd6d6" stroke-width="1.5"/><path d="" fill="none" stroke="#dcd6d6" stroke-width="1.5"/><path d="" fill="none" stroke="#dcd6d6" stroke-width="1.5"/><path d="" fill="none" stroke="#dcd6d6" stroke-width="1.5"/><path d="" fill="none" stroke="#dcd6d6" stroke-width="1.5"/><path d="" fill="none" stroke="#dcd6d6" stroke-width="1.5"/><path d="" fill="none" stroke="#dcd6d6" stroke-width="1.5"/><path d="" fill="none" stroke="#dcd6d6" stroke-width="1.5"/><path d="" fill="none" stroke="#dcd6d6" stroke-width="1.5"/><path d="" fill="none" stroke="#dcd6d6" stroke-width="1.5"/><path d="" fill="none" stroke="#dcd6d6" stroke-width="1.5"/><path d="" fill="none" stroke="#dcd6d6" stroke-width="1.5"/><path d="" fill="none" stroke="#dcd6d6" stroke-width="1.5"/><path d="" fill="none" stroke="#dcd6d6" stroke-width="1.5"/><path d="" fill="none" stroke="#dcd6d6" stroke-width="1.5"/><path d="" fill="none" stroke="#dcd6d6" stroke-width="1.5"/><path d="" fill="none" stroke="#dcd6d6" stroke-width="1.5"/><path d="" fill="none" stroke="#dcd6d6" stroke-width="1.5"/><path d="" fill="none" stroke="#dcd6d6" stroke-width="1.5"/><path d="" fill="none" stroke="#dcd6d6" stroke-width="1.5"/><path d="" fill="none" stroke="#dcd6d6" stroke-width="1.5"/><path d="" fill="none" stroke="#dcd6d6" stroke-width="1.5"/><path d="" fill="none" stroke="#dcd6d6" stroke-width="1.5"/><path d="" fill="none" stroke="#dcd6d6" stroke-width="1.5"/><path d="" fill="none" stroke="#dcd6d6" stroke-width="1.5"/><path d="" fill="none" stroke="#dcd6d6" stroke-width="1.5"/><path d="" fill="none" stroke="#dcd6d6" stroke-width="1.5"/><path d="" fill="none" stroke="#dcd6d6" stroke-width="1.5"/><g><path d="" fill="#ebebeb" stroke="none" stroke-width="1"/><path d="" fill="none" stroke="#000000" stroke-width="0.5"/></g><path d="" fill="#737373" stroke="none" stroke-width="1"/><path d="" fill="#737373" stroke="none" stroke-width="1"/><path d="" fill="#737373" stroke="none" stroke-width="1"/><path d="" fill="#737373" stroke="none" stroke-width="1"/></g><path d="" fill="#000000" stroke="none" stroke-width="1"/><path d="" fill="#000000" stroke="none" stroke-width="1"/><path d="M221.08739,170.72684h37.82523c1.62062,0 2.93471,1.24569 2.93471,2.78195v12.98243c0,1.53626 -1.3141,2.78195 -2.93471,2.78195h-37.82523c-1.62081,0 -2.93471,-1.24569 -2.93471,-2.78195v-12.98243c0,-1.53626 1.3139,-2.78195 2.93471,-2.78195z" fill="#a5a7a9" stroke="#000000" stroke-width="1"/><path d="M232.0541,182.81595c-0.29654,0 -0.54279,-0.05193 -0.73889,-0.15641c-0.19128,-0.10881 -0.33475,-0.27449 -0.43042,-0.49643c-0.06698,-0.15393 -0.1172,-0.34001 -0.15065,-0.55762c-0.02869,-0.22194 -0.04304,-0.47602 -0.04304,-0.76164c0,-0.48962 0.01676,-0.89331 0.05022,-1.21045c0.03345,-0.32209 0.08132,-0.5805 0.14348,-0.77523c0.06698,-0.19968 0.14107,-0.36042 0.22239,-0.48282c0.12913,-0.18608 0.33475,-0.33569 0.61694,-0.44882c0.28219,-0.11314 0.68151,-0.17001 1.19801,-0.17001c0.34434,0 0.61935,0.05007 0.82498,0.14961c0.21045,0.0952 0.3611,0.22194 0.45195,0.38082c0.09567,0.15888 0.14348,0.33569 0.14348,0.53042c0,0.30849 -0.09567,0.56195 -0.28695,0.76164c-0.19128,0.19968 -0.44236,0.35795 -0.75325,0.47602v0.0272c0.33958,0.03648 0.6026,0.14034 0.78911,0.31281c0.19128,0.16754 0.28695,0.40802 0.28695,0.72083c0,0.24914 -0.06698,0.47849 -0.20087,0.68683c-0.12913,0.20401 -0.30606,0.38329 -0.53086,0.53722c-0.21998,0.14961 -0.46871,0.26768 -0.74607,0.35362c-0.27736,0.0816 -0.55955,0.1224 -0.8465,0.1224zM232.27649,181.99991c0.22956,0 0.43284,-0.03648 0.60977,-0.10881c0.18176,-0.07233 0.32282,-0.17001 0.42325,-0.29241c0.10519,-0.12673 0.15782,-0.26954 0.15782,-0.42842c0,-0.17248 -0.0885,-0.31529 -0.26542,-0.42842c-0.17217,-0.11808 -0.44236,-0.17681 -0.81063,-0.17681c-0.24867,0 -0.44719,0.05687 -0.59543,0.17001c-0.14348,0.10881 -0.21522,0.29674 -0.21522,0.56443c0,0.25409 0.05739,0.43522 0.17217,0.54403c0.11478,0.10447 0.28936,0.15641 0.52369,0.15641zM232.30518,179.84421c0.32523,0 0.59543,-0.068 0.81063,-0.20401c0.21998,-0.14034 0.32999,-0.32209 0.32999,-0.54403c0,-0.16321 -0.06933,-0.29488 -0.20804,-0.39441c-0.13871,-0.09953 -0.34193,-0.14961 -0.60977,-0.14961c-0.29171,0 -0.53086,0.0544 -0.71737,0.16321c-0.18651,0.10881 -0.27978,0.29488 -0.27978,0.55762c0,0.21328 0.0598,0.36289 0.17934,0.44882c0.12437,0.0816 0.28936,0.1224 0.49499,0.1224zM238.30876,182.84995c-0.16258,0 -0.27502,-0.05873 -0.33716,-0.17681c-0.05739,-0.1224 -0.09085,-0.31529 -0.10043,-0.57803l0.07174,0.034c-0.26785,0.49395 -0.77477,0.74124 -1.52083,0.74124c-0.33958,0 -0.62171,-0.05687 -0.8465,-0.17001c-0.2248,-0.11808 -0.39214,-0.27201 -0.50216,-0.46242c-0.10519,-0.19474 -0.15782,-0.40555 -0.15782,-0.63243c0,-0.39009 0.14348,-0.69796 0.43042,-0.92485c0.28695,-0.23121 0.66716,-0.34681 1.14063,-0.34681c0.31088,0 0.58107,0.04328 0.81063,0.1292c0.22956,0.08593 0.42567,0.20648 0.58825,0.36042l-0.12196,-0.0136c-0.03345,-0.45809 -0.13871,-0.78451 -0.31564,-0.97925c-0.17217,-0.19968 -0.41849,-0.29921 -0.73889,-0.29921c-0.18651,0 -0.35869,0.0272 -0.51651,0.0816c-0.15782,0.0544 -0.30371,0.11128 -0.4376,0.17001c-0.12913,0.0544 -0.25108,0.0816 -0.36586,0.0816c-0.11478,0 -0.20562,-0.03648 -0.2726,-0.10881c-0.06215,-0.07233 -0.09326,-0.16568 -0.09326,-0.27882c0,-0.16321 0.08132,-0.31714 0.24391,-0.46242c0.16741,-0.14528 0.38738,-0.26274 0.65998,-0.35362c0.2726,-0.09088 0.56914,-0.13601 0.88954,-0.13601c0.38738,0 0.71978,0.08841 0.99715,0.26521c0.27736,0.17681 0.48781,0.43522 0.63129,0.77523c0.12437,0.28994 0.2128,0.6145 0.26542,0.97245c0.05263,0.35795 0.07891,0.74124 0.07891,1.14925c0,0.30849 -0.01676,0.5465 -0.05022,0.71404c-0.03345,0.16754 -0.08608,0.28561 -0.15782,0.35362c-0.06698,0.06368 -0.15782,0.0952 -0.2726,0.0952zM236.72336,182.08832c0.15782,0 0.31806,-0.0204 0.48064,-0.06121c0.16258,-0.04513 0.29889,-0.11128 0.4089,-0.19721c0.11002,-0.08593 0.165,-0.19288 0.165,-0.31961c0,-0.10881 -0.0478,-0.19721 -0.14348,-0.26521c-0.09085,-0.07233 -0.2128,-0.12673 -0.36586,-0.16321c-0.14824,-0.03648 -0.30847,-0.0544 -0.48064,-0.0544c-0.29171,0 -0.51409,0.0476 -0.66716,0.14281c-0.14824,0.0952 -0.22239,0.22194 -0.22239,0.38082c0,0.17248 0.06933,0.30602 0.20804,0.40122c0.14348,0.09088 0.3491,0.13601 0.61694,0.13601zM241.42921,182.85675c-0.65998,0 -1.14545,-0.16321 -1.45627,-0.48962c-0.30612,-0.32642 -0.45912,-0.77956 -0.45912,-1.36007c0,-0.44882 0.09085,-0.84571 0.2726,-1.19006c0.18651,-0.34929 0.45195,-0.6213 0.79628,-0.81604c0.3491,-0.19968 0.76518,-0.29921 1.24823,-0.29921c0.43518,0 0.76518,0.068 0.98998,0.20401c0.22956,0.13168 0.34434,0.30169 0.34434,0.51002c0,0.12673 -0.04304,0.22873 -0.12913,0.30602c-0.08132,0.07233 -0.20328,0.10881 -0.36586,0.10881c-0.09091,0 -0.18417,-0.0136 -0.27978,-0.0408c-0.09091,-0.0272 -0.19135,-0.0544 -0.3013,-0.0816c-0.11002,-0.0272 -0.24156,-0.0408 -0.39456,-0.0408c-0.39697,0 -0.69586,0.09953 -0.89672,0.29921c-0.19611,0.19968 -0.29413,0.48715 -0.29413,0.86364c0,0.35795 0.09561,0.61883 0.28695,0.78204c0.19128,0.15888 0.45195,0.23801 0.78194,0.23801c0.16258,0 0.30365,-0.01608 0.42325,-0.0476c0.1243,-0.03648 0.23908,-0.07048 0.34434,-0.102c0.10995,-0.03648 0.21998,-0.0544 0.32999,-0.0544c0.10995,0 0.20087,0.034 0.2726,0.102c0.07174,0.06368 0.1076,0.15641 0.1076,0.27882c0,0.14034 -0.0598,0.27449 -0.17934,0.40122c-0.11961,0.12673 -0.29895,0.23121 -0.53803,0.31281c-0.23914,0.07727 -0.54044,0.11561 -0.90389,0.11561zM244.12446,182.84995c-0.09091,0 -0.165,-0.02473 -0.22239,-0.0748c-0.05739,-0.0544 -0.09809,-0.13168 -0.12196,-0.23121c-0.03829,-0.16754 -0.07174,-0.41049 -0.10043,-0.72763c-0.02869,-0.31714 -0.04304,-0.6689 -0.04304,-1.05405c0,-0.47602 0.0167,-0.93412 0.05022,-1.37366c0.03821,-0.43955 0.08608,-0.79996 0.14348,-1.08125c0.06215,-0.30354 0.13865,-0.5261 0.22956,-0.66643c0.09085,-0.14528 0.21038,-0.21761 0.35869,-0.21761c0.13389,0 0.23673,0.05873 0.30847,0.17681c0.07174,0.11314 0.1076,0.31034 0.1076,0.59163c0,0.28129 -0.012,0.58235 -0.03587,0.90444c-0.01918,0.32209 -0.05263,0.66643 -0.10043,1.03365h0.02869c0.31082,-0.39875 0.60018,-0.71836 0.86802,-0.95884c0.2726,-0.24048 0.52153,-0.41482 0.74587,-0.52363c0.22956,-0.10881 0.43303,-0.16321 0.60977,-0.16321c0.13891,0 0.24195,0.0408 0.30847,0.1224c0.06717,0.0816 0.10043,0.18113 0.10043,0.29921c0,0.23121 -0.19565,0.48962 -0.58825,0.77523c-0.38738,0.28561 -0.94674,0.57803 -1.67846,0.87724l0.00717,-0.10881c0.45429,0.22194 0.84435,0.45562 1.16912,0.70043c0.32999,0.24048 0.58107,0.46923 0.75325,0.68683c0.17739,0.21328 0.26542,0.39194 0.26542,0.53722c0,0.11808 -0.04044,0.21514 -0.12196,0.29241c-0.0763,0.07233 -0.18847,0.10881 -0.33716,0.10881c-0.18651,0 -0.39456,-0.06553 -0.62412,-0.19721c-0.22435,-0.13601 -0.45892,-0.33754 -0.70283,-0.60523c-0.24391,-0.26768 -0.48781,-0.60276 -0.73172,-1.00645h-0.02869c-0.00482,0.28561 -0.02393,0.56443 -0.05739,0.83644c-0.02869,0.26768 -0.06698,0.48715 -0.11478,0.65963c-0.03352,0.11808 -0.08608,0.21328 -0.15782,0.28561c-0.06698,0.068 -0.16264,0.102 -0.28695,0.102z" fill="#000000" stroke="none" stroke-width="1"/><path d="" fill="#a5a7a9" stroke="#000000" stroke-width="1"/><path d="" fill="#000000" stroke="none" stroke-width="1"/></g></g></svg>