<svg xmlns="http://www.w3.org/2000/svg" fill="none" viewBox="0 0 45 16" height="16" width="45">
<rect stroke="black" fill="#AF99A9" rx="4.5" height="15" width="44" y="0.5" x="0.5"></rect>
<path fill="black" d="M16.0586 7.03C15.9019 7.07667 15.7569 7.11333 15.6236 7.14C15.4903 7.16333 15.3653 7.175 15.2486 7.175C15.1419 7.175 15.0586 7.15333 14.9986 7.11C14.9386 7.06667 14.9086 7.00167 14.9086 6.915C14.9086 6.84167 14.9336 6.77167 14.9836 6.705C15.0336 6.63833 15.1103 6.57833 15.2136 6.525C15.3369 6.465 15.4936 6.415 15.6836 6.375C15.8736 6.335 16.0953 6.315 16.3486 6.315C16.5186 6.315 16.6669 6.32667 16.7936 6.35C16.9203 6.37 17.0203 6.395 17.0936 6.425C17.1903 6.465 17.2569 6.51167 17.2936 6.565C17.3336 6.615 17.3536 6.67333 17.3536 6.74C17.3536 6.82333 17.3236 6.89167 17.2636 6.945C17.2036 6.99833 17.1069 7.025 16.9736 7.025C16.8936 7.025 16.8103 7.02 16.7236 7.01C16.6403 7 16.5519 6.98667 16.4586 6.97L16.0586 7.03ZM16.4036 6.76C16.5736 6.97333 16.7053 7.22167 16.7986 7.505C16.8953 7.785 16.9436 8.07833 16.9436 8.385C16.9436 8.705 16.8986 8.99167 16.8086 9.245C16.7219 9.495 16.5819 9.69333 16.3886 9.84C16.1953 9.98333 15.9386 10.055 15.6186 10.055C15.2253 10.055 14.9303 9.945 14.7336 9.725C14.5369 9.505 14.4386 9.20333 14.4386 8.82C14.4386 8.63333 14.4619 8.475 14.5086 8.345C14.5586 8.215 14.6236 8.11667 14.7036 8.05C14.7836 7.98 14.8703 7.945 14.9636 7.945C15.0503 7.945 15.1153 7.97167 15.1586 8.025C15.2053 8.075 15.2286 8.14667 15.2286 8.24C15.2286 8.31667 15.2153 8.40167 15.1886 8.495C15.1653 8.585 15.1536 8.67333 15.1536 8.76C15.1536 8.98333 15.1919 9.14667 15.2686 9.25C15.3486 9.35 15.4753 9.4 15.6486 9.4C15.8786 9.4 16.0403 9.30667 16.1336 9.12C16.2303 8.93 16.2786 8.67167 16.2786 8.345C16.2786 8.10833 16.2536 7.87667 16.2036 7.65C16.1536 7.42333 16.0736 7.19167 15.9636 6.955L16.4036 6.76ZM19.9534 10.05C19.84 10.05 19.7617 10.0067 19.7184 9.92C19.6784 9.83 19.655 9.68833 19.6484 9.495L19.6984 9.52C19.5117 9.88333 19.1584 10.065 18.6384 10.065C18.4017 10.065 18.205 10.0233 18.0484 9.94C17.8917 9.85333 17.775 9.74 17.6984 9.6C17.625 9.45667 17.5884 9.30167 17.5884 9.135C17.5884 8.84833 17.6884 8.62167 17.8884 8.455C18.0884 8.285 18.3534 8.2 18.6834 8.2C18.9 8.2 19.0884 8.23167 19.2484 8.295C19.4084 8.35833 19.545 8.44667 19.6584 8.56L19.5734 8.55C19.55 8.21333 19.4767 7.97333 19.3534 7.83C19.2334 7.68333 19.0617 7.61 18.8384 7.61C18.7084 7.61 18.5884 7.63 18.4784 7.67C18.3684 7.71 18.2667 7.75167 18.1734 7.795C18.0834 7.835 17.9984 7.855 17.9184 7.855C17.8384 7.855 17.775 7.82833 17.7284 7.775C17.685 7.72167 17.6634 7.65333 17.6634 7.57C17.6634 7.45 17.72 7.33667 17.8334 7.23C17.95 7.12333 18.1034 7.03667 18.2934 6.97C18.4834 6.90333 18.69 6.87 18.9134 6.87C19.1834 6.87 19.415 6.935 19.6084 7.065C19.8017 7.195 19.9484 7.385 20.0484 7.635C20.135 7.84833 20.1967 8.08667 20.2334 8.35C20.27 8.61333 20.2884 8.895 20.2884 9.195C20.2884 9.42167 20.2767 9.59667 20.2534 9.72C20.23 9.84333 20.1934 9.93 20.1434 9.98C20.0967 10.0267 20.0334 10.05 19.9534 10.05ZM18.8484 9.49C18.9584 9.49 19.07 9.475 19.1834 9.445C19.2967 9.41167 19.3917 9.36333 19.4684 9.3C19.545 9.23667 19.5834 9.15833 19.5834 9.065C19.5834 8.985 19.55 8.92 19.4834 8.87C19.42 8.81667 19.335 8.77667 19.2284 8.75C19.125 8.72333 19.0134 8.71 18.8934 8.71C18.69 8.71 18.535 8.745 18.4284 8.815C18.325 8.885 18.2734 8.97833 18.2734 9.095C18.2734 9.22167 18.3217 9.32 18.4184 9.39C18.5184 9.45667 18.6617 9.49 18.8484 9.49ZM20.7183 7.97C20.7183 7.62333 20.7583 7.37333 20.8383 7.22C20.9216 7.06667 21.0299 6.99 21.1633 6.99C21.2399 6.99 21.2983 7.01833 21.3383 7.075C21.3816 7.12833 21.4116 7.20167 21.4283 7.295C21.4449 7.385 21.4533 7.48667 21.4533 7.6C21.4533 7.74333 21.4533 7.91167 21.4533 8.105C21.4566 8.295 21.4599 8.49167 21.4633 8.695C21.4699 8.895 21.4766 9.08167 21.4833 9.255H21.5033C21.6066 8.81833 21.7099 8.46 21.8133 8.18C21.9199 7.9 22.0283 7.69333 22.1383 7.56C22.2516 7.42333 22.3649 7.355 22.4783 7.355C22.6016 7.355 22.7183 7.42333 22.8283 7.56C22.9416 7.69333 23.0516 7.89667 23.1583 8.17C23.2683 8.44333 23.3799 8.78833 23.4933 9.205H23.5133C23.5233 8.91833 23.5299 8.61667 23.5333 8.3C23.5366 7.98333 23.5383 7.69333 23.5383 7.43C23.5383 7.24 23.5699 7.1 23.6333 7.01C23.6966 6.92 23.7849 6.875 23.8983 6.875C24.0416 6.875 24.1449 6.95 24.2083 7.1C24.2749 7.24667 24.3083 7.445 24.3083 7.695C24.3083 7.87833 24.2983 8.075 24.2783 8.285C24.2616 8.49167 24.2366 8.69167 24.2033 8.885C24.1699 9.07833 24.1299 9.24667 24.0833 9.39C24.0133 9.60333 23.9349 9.765 23.8483 9.875C23.7649 9.985 23.6549 10.04 23.5183 10.04C23.3949 10.04 23.2716 9.96833 23.1483 9.825C23.0283 9.67833 22.9149 9.46 22.8083 9.17C22.7016 8.88 22.6033 8.51833 22.5133 8.085H22.4933C22.4066 8.49833 22.3033 8.845 22.1833 9.125C22.0666 9.40167 21.9416 9.61 21.8083 9.75C21.6783 9.89 21.5483 9.96 21.4183 9.96C21.2816 9.96 21.1666 9.89833 21.0733 9.775C20.9833 9.65167 20.9083 9.46167 20.8483 9.205C20.8216 9.075 20.7983 8.93667 20.7783 8.79C20.7583 8.64 20.7433 8.49333 20.7333 8.35C20.7233 8.20667 20.7183 8.08 20.7183 7.97ZM26.9212 10.05C26.8078 10.05 26.7295 10.0067 26.6862 9.92C26.6462 9.83 26.6228 9.68833 26.6162 9.495L26.6662 9.52C26.4795 9.88333 26.1262 10.065 25.6062 10.065C25.3695 10.065 25.1728 10.0233 25.0162 9.94C24.8595 9.85333 24.7428 9.74 24.6662 9.6C24.5928 9.45667 24.5562 9.30167 24.5562 9.135C24.5562 8.84833 24.6562 8.62167 24.8562 8.455C25.0562 8.285 25.3212 8.2 25.6512 8.2C25.8678 8.2 26.0562 8.23167 26.2162 8.295C26.3762 8.35833 26.5128 8.44667 26.6262 8.56L26.5412 8.55C26.5178 8.21333 26.4445 7.97333 26.3212 7.83C26.2012 7.68333 26.0295 7.61 25.8062 7.61C25.6762 7.61 25.5562 7.63 25.4462 7.67C25.3362 7.71 25.2345 7.75167 25.1412 7.795C25.0512 7.835 24.9662 7.855 24.8862 7.855C24.8062 7.855 24.7428 7.82833 24.6962 7.775C24.6528 7.72167 24.6312 7.65333 24.6312 7.57C24.6312 7.45 24.6878 7.33667 24.8012 7.23C24.9178 7.12333 25.0712 7.03667 25.2612 6.97C25.4512 6.90333 25.6578 6.87 25.8812 6.87C26.1512 6.87 26.3828 6.935 26.5762 7.065C26.7695 7.195 26.9162 7.385 27.0162 7.635C27.1028 7.84833 27.1645 8.08667 27.2012 8.35C27.2378 8.61333 27.2562 8.895 27.2562 9.195C27.2562 9.42167 27.2445 9.59667 27.2212 9.72C27.1978 9.84333 27.1612 9.93 27.1112 9.98C27.0645 10.0267 27.0012 10.05 26.9212 10.05ZM25.8162 9.49C25.9262 9.49 26.0378 9.475 26.1512 9.445C26.2645 9.41167 26.3595 9.36333 26.4362 9.3C26.5128 9.23667 26.5512 9.15833 26.5512 9.065C26.5512 8.985 26.5178 8.92 26.4512 8.87C26.3878 8.81667 26.3028 8.77667 26.1962 8.75C26.0928 8.72333 25.9812 8.71 25.8612 8.71C25.6578 8.71 25.5028 8.745 25.3962 8.815C25.2928 8.885 25.2412 8.97833 25.2412 9.095C25.2412 9.22167 25.2895 9.32 25.3862 9.39C25.4862 9.45667 25.6295 9.49 25.8162 9.49ZM28.246 10.05C28.1727 10.05 28.1127 10.025 28.066 9.975C28.0227 9.925 27.9877 9.85333 27.961 9.76C27.9344 9.62333 27.911 9.445 27.891 9.225C27.8744 9.00167 27.866 8.76333 27.866 8.51C27.866 8.36667 27.8694 8.205 27.876 8.025C27.8827 7.845 27.891 7.66333 27.901 7.48C27.9144 7.29333 27.9277 7.12 27.941 6.96C27.9577 6.8 27.9744 6.67 27.991 6.57C28.0177 6.42333 28.056 6.30833 28.106 6.225C28.1594 6.13833 28.2427 6.095 28.356 6.095C28.4727 6.095 28.5577 6.14 28.611 6.23C28.6644 6.31667 28.691 6.425 28.691 6.555C28.691 6.70167 28.6794 6.875 28.656 7.075C28.636 7.275 28.6044 7.47833 28.561 7.685L28.461 7.805C28.4977 7.665 28.5577 7.53667 28.641 7.42C28.7244 7.30333 28.8294 7.21167 28.956 7.145C29.0827 7.075 29.2294 7.04 29.396 7.04C29.7227 7.04 29.9827 7.15667 30.176 7.39C30.3727 7.62 30.471 7.98 30.471 8.47C30.471 8.81333 30.4194 9.1 30.316 9.33C30.216 9.56 30.0777 9.73333 29.901 9.85C29.7277 9.96333 29.5294 10.02 29.306 10.02C29.096 10.02 28.9144 9.95833 28.761 9.835C28.611 9.71167 28.5144 9.53333 28.471 9.3L28.541 9.355C28.5277 9.595 28.4944 9.77167 28.441 9.885C28.391 9.995 28.326 10.05 28.246 10.05ZM29.161 9.44C29.3277 9.44 29.4744 9.365 29.601 9.215C29.7277 9.065 29.791 8.83 29.791 8.51C29.791 8.24333 29.741 8.02667 29.641 7.86C29.5444 7.69333 29.381 7.61 29.151 7.61C28.9644 7.61 28.8144 7.685 28.701 7.835C28.5877 7.98167 28.531 8.205 28.531 8.505C28.531 8.77833 28.5877 9.00333 28.701 9.18C28.8144 9.35333 28.9677 9.44 29.161 9.44Z"></path>
</svg>
