<svg version="1.1" xmlns="http://www.w3.org/2000/svg" xmlns:xlink="http://www.w3.org/1999/xlink" width="44.02424" height="20.26459" viewBox="0,0,44.02424,20.26459"><g transform="translate(-217.98788,-169.86771)"><g data-paper-data="{&quot;isPaintingLayer&quot;:true}" fill-rule="nonzero" stroke-width="1" stroke-linecap="butt" stroke-linejoin="miter" stroke-miterlimit="10" stroke-dasharray="" stroke-dashoffset="0" style="mix-blend-mode: normal"><path d="M221.37757,170.36771h37.24487c1.59594,0 2.88969,1.29376 2.88969,2.88969v13.48521c0,1.59594 -1.29375,2.88969 -2.88969,2.88969h-37.24487c-1.59593,0 -2.88969,-1.29375 -2.88969,-2.88969v-13.48521c0,-1.59593 1.29376,-2.88969 2.88969,-2.88969z" fill="#a5a7a9" stroke="#000000"/><path d="M232.42388,177.18994c0.31549,0 0.53922,0.04945 0.67105,0.14834c0.13659,0.0942 0.20485,0.22366 0.20485,0.3885c0,0.1931 -0.09183,0.33437 -0.27548,0.42382c-0.17897,0.08945 -0.45676,0.13421 -0.83351,0.13421c-0.1554,0 -0.33199,-0.00238 -0.52978,-0.00706c-0.19778,-0.00944 -0.40025,-0.02119 -0.60748,-0.03532l0.07064,-0.13421c0.03294,0.16484 0.04707,0.36731 0.04238,0.60748c-0.00469,0.23548 -0.02825,0.46152 -0.07064,0.67811l-0.07064,-0.10596c0.54628,0.03769 0.97716,0.10127 1.29265,0.19072c0.31549,0.08945 0.53922,0.19541 0.67105,0.31787c0.13659,0.12246 0.20485,0.25898 0.20485,0.40969c0,0.11771 -0.04001,0.2166 -0.12008,0.29667c-0.08008,0.07532 -0.20247,0.11302 -0.36731,0.11302c-0.23548,0 -0.50859,-0.05651 -0.81939,-0.16953c-0.30611,-0.11771 -0.62398,-0.28492 -0.9536,-0.50152l0.1554,-0.01413c0.04238,0.12246 0.08239,0.28723 0.12008,0.49446c0.04238,0.20247 0.07532,0.41913 0.09889,0.64986c0.02825,0.22604 0.04238,0.43557 0.04238,0.62867c0,0.2496 -0.04707,0.43326 -0.14127,0.55097c-0.08945,0.11771 -0.21429,0.17659 -0.37438,0.17659c-0.11302,0 -0.20722,-0.03063 -0.28255,-0.09183c-0.07532,-0.05651 -0.13421,-0.14365 -0.17659,-0.26136c-0.05182,-0.16009 -0.09652,-0.40263 -0.13421,-0.72756c-0.03294,-0.32493 -0.04945,-0.71581 -0.04945,-1.17257c0,-0.67343 0.03769,-1.20789 0.11302,-1.60346c0.07532,-0.40025 0.1719,-0.6828 0.28961,-0.84764c0.09889,-0.13183 0.24485,-0.23548 0.43795,-0.3108c0.1931,-0.08008 0.41207,-0.13659 0.65692,-0.16953c0.24485,-0.03769 0.48977,-0.05651 0.73462,-0.05651zM234.50991,176.82969c0.18841,0 0.32262,0.05182 0.40263,0.1554c0.08476,0.10358 0.12715,0.22366 0.12715,0.36025c0,0.16953 -0.05176,0.30136 -0.1554,0.39557c-0.09889,0.08945 -0.24017,0.13421 -0.42382,0.13421c-0.1789,0 -0.31311,-0.04945 -0.40263,-0.14834c-0.08945,-0.10358 -0.13421,-0.22366 -0.13421,-0.36025c0,-0.17897 0.0542,-0.31318 0.16246,-0.40263c0.10833,-0.08945 0.2496,-0.13421 0.42382,-0.13421zM234.5523,178.40489c0.15071,0 0.26842,0.14127 0.35318,0.42382c0.08952,0.28255 0.13421,0.73225 0.13421,1.34916c0,0.75819 -0.05413,1.30441 -0.16246,1.63877c-0.10827,0.33437 -0.27311,0.50152 -0.49446,0.50152c-0.16953,0 -0.2943,-0.12246 -0.37438,-0.36731c-0.08001,-0.2496 -0.12008,-0.6828 -0.12008,-1.29972c0,-0.75819 0.06126,-1.32091 0.18366,-1.68822c0.12715,-0.372 0.2873,-0.55803 0.48033,-0.55803zM236.62305,177.85393c0.15071,0 0.25198,0.0612 0.30374,0.18366c0.05651,0.12246 0.08476,0.30374 0.08476,0.5439c0,0.05651 -0.00469,0.11771 -0.01413,0.18366c-0.00469,0.0612 -0.01413,0.11771 -0.02825,0.16953l-0.01413,-0.14127c0.11302,-0.30611 0.2873,-0.5439 0.52271,-0.71343c0.23548,-0.17422 0.48508,-0.26136 0.74875,-0.26136c0.29199,0 0.53453,0.08239 0.72756,0.24723c0.19778,0.16484 0.34381,0.39557 0.43795,0.69224c0.09889,0.29667 0.14834,0.64748 0.14834,1.05249c0,0.2496 -0.01175,0.49683 -0.03532,0.74169c-0.01882,0.24017 -0.04707,0.46152 -0.08476,0.66399c-0.03294,0.19778 -0.07064,0.36025 -0.11302,0.48739c-0.05651,0.16009 -0.12946,0.28017 -0.21897,0.36025c-0.08945,0.07532 -0.19541,0.11302 -0.31787,0.11302c-0.12239,0 -0.2166,-0.04476 -0.28255,-0.13421c-0.06588,-0.08945 -0.09889,-0.20953 -0.09889,-0.36025c0,-0.16009 0.01182,-0.35318 0.03532,-0.57922c0.02357,-0.23073 0.04476,-0.46383 0.06357,-0.6993c0.02357,-0.24017 0.03532,-0.45676 0.03532,-0.64986c0,-0.6593 -0.2166,-0.98892 -0.64986,-0.98892c-0.23073,0 -0.42382,0.10358 -0.57922,0.3108c-0.1554,0.20247 -0.25898,0.49208 -0.3108,0.86883c-0.01413,0.12715 -0.02119,0.28492 -0.02119,0.47327c0,0.18834 0,0.37675 0,0.56509c0.00475,0.18366 0,0.33906 -0.01413,0.4662c-0.01882,0.28255 -0.07295,0.48502 -0.16246,0.60748c-0.08476,0.12246 -0.20247,0.18366 -0.35318,0.18366c-0.17422,0 -0.30605,-0.08008 -0.39557,-0.24017c-0.08945,-0.16484 -0.13421,-0.44032 -0.13421,-0.82645c0,-0.19778 0.00475,-0.41913 0.01413,-0.66399c0.00944,-0.24485 0.02119,-0.48977 0.03532,-0.73462c0.01888,-0.2496 0.04007,-0.47564 0.06357,-0.67811c0.04713,-0.38144 0.11539,-0.6828 0.20485,-0.90415c0.08952,-0.22604 0.22373,-0.33906 0.40263,-0.33906zM241.02173,176.82969c0.18841,0 0.32262,0.05182 0.40263,0.1554c0.08476,0.10358 0.12715,0.22366 0.12715,0.36025c0,0.16953 -0.05176,0.30136 -0.1554,0.39557c-0.09889,0.08945 -0.24017,0.13421 -0.42382,0.13421c-0.1789,0 -0.31311,-0.04945 -0.40263,-0.14834c-0.08945,-0.10358 -0.13421,-0.22366 -0.13421,-0.36025c0,-0.17897 0.0542,-0.31318 0.16246,-0.40263c0.10833,-0.08945 0.2496,-0.13421 0.42382,-0.13421zM241.06411,178.40489c0.15071,0 0.26842,0.14127 0.35318,0.42382c0.08952,0.28255 0.13421,0.73225 0.13421,1.34916c0,0.75819 -0.05413,1.30441 -0.16246,1.63877c-0.10827,0.33437 -0.27311,0.50152 -0.49446,0.50152c-0.16953,0 -0.2943,-0.12246 -0.37438,-0.36731c-0.08001,-0.2496 -0.12008,-0.6828 -0.12008,-1.29972c0,-0.75819 0.06126,-1.32091 0.18366,-1.68822c0.12715,-0.372 0.2873,-0.55803 0.48033,-0.55803zM244.20154,177.82567c0.41907,0 0.7205,0.0612 0.90415,0.18366c0.18366,0.12246 0.27548,0.28017 0.27548,0.47327c0,0.11302 -0.04007,0.20722 -0.12008,0.28255c-0.07539,0.07064 -0.18366,0.10596 -0.32493,0.10596c-0.14603,0 -0.29905,-0.02119 -0.45914,-0.06357c-0.1554,-0.04238 -0.33674,-0.06357 -0.5439,-0.06357c-0.24017,0 -0.41913,0.04707 -0.53684,0.14127c-0.11777,0.0942 -0.17659,0.21429 -0.17659,0.36025c0,0.13659 0.05176,0.24485 0.1554,0.32493c0.10827,0.07532 0.31311,0.13183 0.61454,0.16953c0.3343,0.03769 0.60979,0.09889 0.82645,0.18366c0.22129,0.08008 0.38613,0.20247 0.49446,0.36731c0.10827,0.16009 0.16246,0.38144 0.16246,0.66399c0,0.44739 -0.15778,0.77938 -0.47327,0.99598c-0.31555,0.2166 -0.75113,0.32493 -1.30678,0.32493c-0.35318,0 -0.63342,-0.02825 -0.84058,-0.08476c-0.20722,-0.05651 -0.35794,-0.13659 -0.45208,-0.24017c-0.08952,-0.10358 -0.13421,-0.22604 -0.13421,-0.36731c0,-0.12246 0.04001,-0.2166 0.12008,-0.28255c0.08476,-0.07064 0.18366,-0.10596 0.29667,-0.10596c0.10827,0 0.22366,0.01413 0.34612,0.04238c0.12239,0.02357 0.25192,0.04945 0.3885,0.0777c0.13652,0.02825 0.2778,0.04238 0.42382,0.04238c0.47089,0 0.70637,-0.14596 0.70637,-0.43795c0,-0.09889 -0.02357,-0.17897 -0.07064,-0.24017c-0.04713,-0.0612 -0.1319,-0.11064 -0.25429,-0.14834c-0.12246,-0.04238 -0.30143,-0.07532 -0.53684,-0.09889c-0.28255,-0.02825 -0.52746,-0.07532 -0.73462,-0.14127c-0.20722,-0.07064 -0.36731,-0.18366 -0.48033,-0.33906c-0.11302,-0.16009 -0.16953,-0.37906 -0.16953,-0.65692c0,-0.43795 0.16478,-0.79113 0.49446,-1.05955c0.32962,-0.27311 0.7982,-0.40969 1.40567,-0.40969zM246.91522,176.6531c0.15071,0 0.25429,0.05889 0.3108,0.17659c0.06126,0.11771 0.09183,0.2943 0.09183,0.52978c0,0.20247 -0.01175,0.45676 -0.03532,0.76288c-0.0235,0.30611 -0.05413,0.60041 -0.09183,0.88296h-0.04238c0.1554,-0.29199 0.35556,-0.5274 0.60041,-0.70637c0.24492,-0.17897 0.5039,-0.26842 0.777,-0.26842c0.24017,0 0.45445,0.05889 0.6428,0.17659c0.18841,0.11302 0.34143,0.29199 0.45914,0.53684c0.10833,0.22135 0.18841,0.48502 0.24017,0.79113c0.05182,0.30136 0.0777,0.58866 0.0777,0.86177c0,0.43795 -0.03057,0.78644 -0.09183,1.04542c-0.05651,0.25898 -0.13652,0.44739 -0.24017,0.56509c-0.10358,0.11302 -0.22604,0.16953 -0.36731,0.16953c-0.29667,0 -0.44501,-0.24254 -0.44501,-0.72756c0,-0.23548 0.01182,-0.47795 0.03532,-0.72756c0.02825,-0.2496 0.04238,-0.47795 0.04238,-0.68518c0,-0.35318 -0.05651,-0.61692 -0.16953,-0.79113c-0.10827,-0.17897 -0.26604,-0.26842 -0.47327,-0.26842c-0.25898,0 -0.46851,0.11539 -0.62867,0.34612c-0.16009,0.23073 -0.24017,0.54859 -0.24017,0.9536c0,0.21191 0.01888,0.44501 0.05651,0.6993c0.03769,0.2496 0.05651,0.47795 0.05651,0.68518c0,0.23073 -0.04469,0.39794 -0.13421,0.50152c-0.08476,0.09889 -0.19541,0.14834 -0.33199,0.14834c-0.10358,0 -0.19541,-0.02119 -0.27548,-0.06357c-0.07532,-0.03769 -0.14127,-0.11539 -0.19778,-0.2331c-0.05176,-0.12246 -0.09652,-0.30374 -0.13421,-0.5439c-0.02825,-0.18366 -0.05651,-0.39794 -0.08476,-0.6428c-0.02825,-0.24485 -0.05176,-0.50152 -0.07064,-0.76994c-0.01882,-0.26842 -0.03532,-0.52978 -0.04945,-0.78407c-0.00938,-0.25898 -0.01413,-0.49446 -0.01413,-0.70637c0,-0.66867 0.06357,-1.15376 0.19072,-1.45512c0.12715,-0.30611 0.30611,-0.45914 0.53684,-0.45914z" fill="#000000" stroke="none"/></g></g></svg>