<svg version="1.1" xmlns="http://www.w3.org/2000/svg" xmlns:xlink="http://www.w3.org/1999/xlink" width="19.31353" height="22.9139" viewBox="0,0,19.31353,22.9139"><g transform="translate(-230.0812,-169.10491)"><g data-paper-data="{&quot;isPaintingLayer&quot;:true}" fill-rule="evenodd" stroke="none" stroke-width="1" stroke-linecap="butt" stroke-linejoin="miter" stroke-miterlimit="10" stroke-dasharray="" stroke-dashoffset="0" style="mix-blend-mode: normal"><path d="M234.22462,184.0058c0.13198,-0.49019 0.30166,-1.18777 0.43363,-1.60255c0.35822,-1.09351 0.75414,-1.69682 0.75414,-1.69682h5.07162l0.54676,3.1297z" fill="#f01446"/><g><path d="M241.46137,172.39549c0.16969,-0.2828 0.33937,-0.67873 0.75414,-0.56561c0.32051,0.07541 0.45249,0.49019 0.39593,0.79185c-0.05656,0.30166 -0.39593,0.58446 -0.71644,0.58446c-0.5279,-0.01886 -0.49019,-0.41478 -0.43363,-0.8107z" fill="#be8c64"/><path d="M242.08354,173.03651c-0.0377,0.35822 -1.01809,2.01734 -2.45097,2.01734c-1.43287,0 -2.319,-1.60255 -2.46982,-2.09275c-0.22625,-0.773 -0.35822,-1.8288 -0.01885,-2.56409c0.18854,-0.41478 0.22625,-0.35822 0.62217,-0.30166l1.62141,0.26395l2.65836,0.45249c0.13198,0.73529 0.13198,1.48944 0.03771,2.22473z" fill="#dcaa78"/><path d="M236.80453,170.28388c0,0 -0.73529,0.24509 -1.0558,0.67873c-0.37707,0.54675 -0.43363,1.16893 -0.60332,1.7911c-0.15083,0.56561 -0.43363,1.09351 -0.98039,1.33861c-0.56561,0.24509 -1.24433,0.07541 -1.546,-0.50905c-0.5279,-1.01809 -0.03771,-2.80919 0.90497,-3.43136c0.5279,-0.33936 1.16893,-0.35822 1.75339,-0.2828c0.5279,0.05656 1.03694,0.20739 1.52714,0.41478z" fill="#000000"/><path d="M237.14389,170.32159c0.56561,-1.0558 1.94192,-1.39517 3.14856,-1.13122c1.50829,0.32051 2.01733,1.37631 1.88536,2.65836c-0.8107,0.0377 -4.99621,-1.39516 -5.03391,-1.52714z" fill="#000000"/><path d="M236.97421,171.05688c-0.22625,-0.16968 -0.32051,-0.47134 -0.20739,-0.73529c0.18854,-0.47134 0.65987,-0.2828 0.65987,-0.2828z" fill="#f01446"/><path d="M240.59411,171.81103c0.07542,0.13198 0.13198,0.26395 0.16968,0.39593c0.01886,0.11312 0.07542,0.2451 -0.0377,0.35822c-0.05656,0.07541 -0.16968,0.09426 -0.26395,0.05656c-0.07542,-0.0377 -0.09427,-0.09427 -0.11312,-0.18854c0,-0.16968 0.0377,-0.35822 0.13198,-0.50905c0.0377,-0.0377 0.07542,-0.07542 0.11312,-0.11312z" fill="#be8c64"/><path d="M240.42442,173.50785c-0.22625,0.43364 -1.18778,0.43364 -1.39517,0c-0.09427,-0.20739 -0.11313,-0.60331 0.18854,-0.54675c0.13198,0.01886 0.2828,0.13198 0.41478,0.16968c0.16969,0.05656 0.32051,0.13198 0.47134,0.18854c0.11312,0.05656 0.22624,0.11312 0.32051,0.18854z" fill="#000000"/><path d="M239.55716,171.84873c0.07542,-0.01886 0.13198,0.00001 0.15083,0.03771c0.01885,0.07541 0.01885,0.32051 -0.05656,0.37707l-0.11312,-0.0377z" fill="#000000"/><path d="M241.51793,172.28237c-0.09427,-0.01886 -0.15083,-0.18854 -0.09427,-0.2828c0.01885,-0.0377 0.03771,-0.05656 0.07541,-0.05656c0.01886,0 0.05657,0.03771 0.05657,0.07542c0.01885,0.07541 0,0.16968 -0.03771,0.26395z" fill="#000000"/><path d="M238.91613,170.24618l-1.52714,2.41326l-0.43363,-0.05656c0,0 -0.96154,-3.05428 1.97963,-3.45021z" fill="#000000"/><path d="M239.16123,170.32159l-0.71644,1.96078l-0.50904,-2.26244z" fill="#000000"/><path d="M237.38899,171.71676c0,0 0.39593,0.82956 0.41478,1.18778c-0.20739,0 -0.75414,0.15083 -1.0181,0.07541c-0.20739,-0.05656 -0.43363,-0.20739 -0.49019,-0.43364c-0.03771,-0.20739 -0.15083,-0.62216 -0.07542,-0.79185c0.33936,-0.69759 1.16893,-0.03771 1.16893,-0.03771z" fill="#dcaa78"/></g><g><path d="M230.79153,180.62448c-0.03648,-0.11353 0.46537,-1.53351 1.38072,-2.48519c1.12112,-1.1493 2.7429,-1.87083 3.43621,-2.16877l1.38235,1.88538c-0.78655,0.20264 -1.77985,0.34649 -2.04847,0.42653c-0.45409,0.14591 -1.85289,0.82084 -1.82653,0.8249c-0.23923,0.15202 -0.4825,0.33039 -0.67712,0.54322c-0.16016,0.16418 -0.40548,0.53109 -0.52408,0.68818c-0.32134,0.42264 -0.42981,0.6892 -0.5048,0.65068c-0.06385,-0.02332 0.27473,-0.64562 0.15817,-0.67705c-0.11656,-0.03144 -0.4065,0.62533 -0.49264,0.57161c-0.08616,-0.05373 0.28285,-0.69831 0.12474,-0.72267c-0.14697,-0.00914 -0.34368,0.74293 -0.40852,0.46318z" fill="#dcaa78"/><path d="M236.4556,178.17818l-0.76102,-2.15392c0,0 1.37953,-0.63743 1.96134,-0.73671c0,0 1.60756,-0.45393 1.91762,0.86171c0.3141,1.28928 -0.49881,1.48788 -0.49881,1.48788c0.02635,0.00407 -2.61913,0.54104 -2.61913,0.54104z" fill="#008264"/><path d="M236.21639,178.33019l-0.85525,-2.50563l0.52201,-0.14895l1.02046,2.57153z" fill="#f01446"/><path d="M232.04442,179.49547c0.26964,-0.1743 0.51997,0.03957 0.51997,0.03957c0,0 -0.21194,1.1139 -0.31735,1.09767c-0.12061,-0.00507 -0.1064,-0.27265 -0.13374,-0.53314c-0.43382,0.01416 -0.32329,-0.44094 -0.06887,-0.6041z" fill="#be8c64"/></g><path d="M240.78568,176.61519c0.22625,2.26244 0.33937,6.10857 0.33937,6.10857l-7.22094,0.56561c0,0 1.50829,-4.90194 2.14931,-6.41023c0.90497,-2.13046 2.37556,-1.92307 2.96002,-1.97963c0.75414,-0.05656 1.60256,0.07541 1.77224,1.71568z" fill="#0066a1"/><g><path d="M248.05174,176.81195c0.2968,0.31104 -1.04091,1.39781 -1.19952,1.47831c0.02303,-0.18425 0.99914,-1.51107 1.19952,-1.47831z" fill="#be8c64"/><path d="M240.56294,179.95809c0,0 -0.80041,-0.68073 -0.1356,-1.6008c0.65509,-0.90394 1.57469,-0.01925 1.57469,-0.01925c0.50669,0.43759 1.28551,0.64298 1.92255,0.60878c0.50123,-0.02802 1.37809,-0.31391 1.84727,-0.47134c0.99986,-0.34382 3.09762,-1.52272 3.11685,-1.44508c0.02897,0.06149 -0.65414,0.4642 -0.5962,0.58718c0.05793,0.12299 0.91294,-0.5283 0.95141,-0.37302c0.05461,0.16503 -0.76763,0.61593 -0.61283,0.79734c0.15482,0.1814 0.75101,-0.4058 0.7636,-0.2441c0.01258,0.1617 -2.47148,2.05434 -3.83413,2.70778c-0.73796,0.34761 -1.52389,0.44616 -2.33545,0.44119c-0.6596,-0.00143 -2.11985,-0.57364 -2.66217,-0.98867z" fill="#dcaa78"/><path d="M237.59019,177.5493c-0.42858,-0.6767 -0.59362,-2.11913 1.09482,-2.40004c1.68843,-0.28091 2.18256,1.49203 2.18256,1.49203c0.35949,1.22946 1.44791,1.79763 1.44791,1.79763l-0.98415,2.07048c-0.74294,-0.33786 -1.47284,-0.73391 -2.12818,-1.21709c-0.65533,-0.48318 -1.23256,-1.20547 -1.61295,-1.74302z" fill="#00a08c"/><path d="M240.88183,180.52461l1.28286,-2.63891l0.61355,0.36992l-1.27313,2.62276z" fill="#f01446"/></g><g><g><path d="M241.43128,186.84742c-0.27283,-0.25195 -0.54567,-0.50392 -0.83062,-0.72015c-0.51064,-0.37254 -1.00375,-0.6794 -0.72553,-1.38136c0.49616,-1.28502 2.4993,-0.20648 3.25078,0.80538c0.14787,0.2095 -1.69461,1.29612 -1.69461,1.29612z" fill="#dcaa78"/><path d="M238.65276,183.71352c0.82525,-1.49183 2.07152,-0.47122 2.07152,-0.47122l1.45443,1.11121l-1.80879,2.51175c0,0 -0.55275,-0.30719 -1.1705,-0.71611c0,0 -1.37192,-0.94382 -0.54667,-2.43565z" fill="#f01446"/></g><g><path d="M241.93415,191.7571l-0.10881,0.26171c-0.11284,-0.07815 -1.4477,-1.24831 -1.4477,-1.24831c0.13777,-0.11249 0.27553,-0.22499 0.41935,-0.35536l0.77573,0.94044v0c0.14214,0.16774 0.2725,0.31157 0.36143,0.40151z" fill="#000000"/><path d="M241.57274,191.35559l-0.77572,-0.94043c0.50356,-0.48605 0.91282,-1.16342 1.02398,-1.84247c0.09904,-0.64336 -0.1179,-1.29446 -0.58036,-1.75019l1.79768,-1.59961c0.60933,0.84411 0.74136,2.80044 0.39139,3.53776c-0.01212,0.03571 -0.2634,1.24459 -2.05232,2.3494c0.05927,0.05996 0.13035,0.14383 0.19536,0.24555z" fill="#00a08c"/><path d="M241.59059,191.36165c0,0 -0.01785,-0.00607 0,0z" fill="#000000"/></g><path d="M241.03786,186.83327l2.11498,-1.83034l0.2304,0.37691l-2.06716,1.80677z" fill="#008264"/></g><g><g><path d="M234.52817,187.02906c0.10304,-0.35678 0.20608,-0.71359 0.27177,-1.06522c0.10433,-0.62342 0.15777,-1.20175 0.90999,-1.26746c1.37113,-0.13205 1.30419,2.14201 0.73617,3.26714c-0.12107,0.22605 -1.91792,-0.93446 -1.91792,-0.93446z" fill="#dcaa78"/><path d="M236.08536,183.14104c1.70345,0.06953 1.34926,1.64097 1.34926,1.64097l-0.34195,1.79813l-3.0559,-0.49198c0,0 0.02704,-0.6318 0.11591,-1.36728c0,0 0.22925,-1.64936 1.9327,-1.57983z" fill="#f01446"/></g><g><path d="M230.36393,189.678l-0.28272,0.01997c0.01932,-0.13589 0.46753,-1.85352 0.46753,-1.85352c0.1623,0.07278 0.32459,0.14555 0.50557,0.21573l-0.4933,1.11482v0c-0.0863,0.20223 -0.1565,0.38319 -0.19707,0.50299z" fill="#000000"/><path d="M230.56099,189.17502l0.4933,-1.11482c0.66014,0.23248 1.44907,0.29495 2.10597,0.09013c0.61957,-0.19966 1.1045,-0.68527 1.30477,-1.30289l2.23543,0.89065c-0.48172,0.9229 -2.17164,1.91732 -2.98761,1.93471c-0.03735,0.00516 -1.23073,0.32203 -3.01985,-0.78244c-0.02705,0.07987 -0.0702,0.18097 -0.13202,0.28467z" fill="#00a08c"/><path d="M230.56357,189.19369c0,0 -0.00258,-0.01869 0,0z" fill="#000000"/></g><path d="M234.36459,186.67098l2.58385,1.07098l-0.23377,0.37484l-2.54135,-1.03879z" fill="#008264"/></g></g></g></svg>