<svg version="1.1" xmlns="http://www.w3.org/2000/svg" xmlns:xlink="http://www.w3.org/1999/xlink" width="124.47276" height="17.66896" viewBox="0,0,124.47276,17.66896"><g transform="translate(-177.76362,-171.16552)"><g data-paper-data="{&quot;isPaintingLayer&quot;:true}" fill="#000000" fill-rule="nonzero" stroke="none" stroke-width="1" stroke-linecap="butt" stroke-linejoin="miter" stroke-miterlimit="10" stroke-dasharray="" stroke-dashoffset="0" style="mix-blend-mode: normal"><path d="M183.61714,174.34521c-0.56609,0.16862 -1.09001,0.3011 -1.57178,0.39746c-0.48177,0.08431 -0.93343,0.12646 -1.35498,0.12646c-0.38542,0 -0.68652,-0.07829 -0.90332,-0.23486c-0.2168,-0.15657 -0.3252,-0.39143 -0.3252,-0.70459c0,-0.26497 0.09033,-0.5179 0.271,-0.75879c0.18066,-0.24089 0.45769,-0.45769 0.83106,-0.65039c0.44563,-0.2168 1.01172,-0.39746 1.69824,-0.54199c0.68652,-0.14453 1.48747,-0.2168 2.40283,-0.2168c0.61426,0 1.15022,0.04216 1.60791,0.12647c0.45769,0.07227 0.81902,0.1626 1.08399,0.271c0.34929,0.14453 0.59017,0.31316 0.72266,0.50586c0.14453,0.18066 0.2168,0.39143 0.2168,0.63232c0,0.3011 -0.1084,0.54802 -0.3252,0.74072c-0.2168,0.1927 -0.56609,0.28906 -1.04785,0.28906c-0.28906,0 -0.59017,-0.01807 -0.90332,-0.0542c-0.3011,-0.03613 -0.62028,-0.08431 -0.95752,-0.14453zM184.86373,173.36962c0.61426,0.77083 1.09001,1.66814 1.42725,2.6919c0.34929,1.01172 0.52393,2.07161 0.52393,3.17969c0,1.15625 -0.1626,2.19206 -0.48779,3.10742c-0.31316,0.90332 -0.81902,1.61991 -1.51758,2.1499c-0.69856,0.51786 -1.62598,0.77686 -2.78223,0.77686c-1.42122,0 -2.48714,-0.39746 -3.19776,-1.19238c-0.71061,-0.79492 -1.06592,-1.88493 -1.06592,-3.27002c0,-0.67448 0.08431,-1.24658 0.25293,-1.71631c0.18066,-0.46973 0.41553,-0.82503 0.70459,-1.06592c0.28906,-0.25293 0.60222,-0.37939 0.93945,-0.37939c0.31316,0 0.54802,0.09636 0.70459,0.28906c0.16862,0.18066 0.25293,0.43962 0.25293,0.77686c0,0.27702 -0.04817,0.58415 -0.14453,0.92139c-0.08431,0.3252 -0.12646,0.64436 -0.12646,0.95752c0,0.80696 0.1385,1.39714 0.41553,1.77051c0.28906,0.36133 0.74675,0.54199 1.37305,0.54199c0.83106,0 1.41521,-0.33724 1.75244,-1.01172c0.34929,-0.68652 0.52393,-1.61995 0.52393,-2.8003c0,-0.85515 -0.09033,-1.69222 -0.271,-2.51123c-0.18066,-0.81902 -0.46973,-1.65608 -0.86719,-2.51123zM197.68998,185.25733c-0.40946,0 -0.69246,-0.15653 -0.84912,-0.46973c-0.14453,-0.3252 -0.2288,-0.83712 -0.25293,-1.53565l0.18066,0.09033c-0.67439,1.31278 -1.95117,1.96924 -3.83008,1.96924c-0.85506,0 -1.56571,-0.1506 -2.13184,-0.45166c-0.56602,-0.31319 -0.98758,-0.72266 -1.2646,-1.22852c-0.26497,-0.5179 -0.39746,-1.07796 -0.39746,-1.68018c0,-1.03581 0.36133,-1.85482 1.08399,-2.45703c0.72261,-0.61426 1.68013,-0.92139 2.87251,-0.92139c0.78292,0 1.46338,0.11442 2.04151,0.34326c0.57813,0.22884 1.07198,0.54802 1.48145,0.95752l-0.30713,-0.03613c-0.08427,-1.21648 -0.3492,-2.08367 -0.79492,-2.60157c-0.43359,-0.52995 -1.05379,-0.79492 -1.86084,-0.79492c-0.46973,0 -0.90332,0.07227 -1.30078,0.2168c-0.39746,0.14453 -0.76473,0.29509 -1.10205,0.45166c-0.3252,0.14453 -0.63232,0.2168 -0.92139,0.2168c-0.28901,0 -0.51785,-0.09636 -0.68647,-0.28906c-0.15657,-0.1927 -0.23486,-0.43962 -0.23486,-0.74072c0,-0.43359 0.20476,-0.8431 0.61426,-1.22852c0.42154,-0.38542 0.97554,-0.69856 1.66206,-0.93945c0.68652,-0.24089 1.43331,-0.36133 2.24024,-0.36133c0.97559,0 1.81271,0.23486 2.51123,0.70459c0.69865,0.46973 1.22852,1.15625 1.58985,2.05957c0.31319,0.77083 0.53606,1.632 0.66846,2.5835c0.13253,0.95149 0.19873,1.96924 0.19873,3.05323c0,0.81902 -0.04207,1.45134 -0.12646,1.89697c-0.08427,0.4456 -0.2168,0.75879 -0.39746,0.93945c-0.16853,0.16866 -0.39746,0.25293 -0.68652,0.25293zM193.6973,183.23389c0.39746,0 0.80099,-0.0542 1.21045,-0.1626c0.40959,-0.12044 0.75285,-0.29509 1.02979,-0.52393c0.27706,-0.22884 0.41553,-0.51189 0.41553,-0.84912c0,-0.28906 -0.1204,-0.52393 -0.36133,-0.70459c-0.2288,-0.1927 -0.53593,-0.33724 -0.92139,-0.43359c-0.37333,-0.09636 -0.77686,-0.14453 -1.21045,-0.14453c-0.73466,0 -1.29472,0.12646 -1.68018,0.37939c-0.37333,0.25293 -0.56006,0.59017 -0.56006,1.01172c0,0.45769 0.17473,0.81299 0.52393,1.06592c0.36133,0.24089 0.87932,0.36133 1.55371,0.36133zM201.19448,188.83448c-0.48173,0 -0.91532,-0.10233 -1.30078,-0.30713c-0.38546,-0.2048 -0.69259,-0.46366 -0.92139,-0.77686c-0.2288,-0.31319 -0.34326,-0.63232 -0.34326,-0.95752c0,-0.27706 0.07227,-0.49386 0.2168,-0.65039c0.14453,-0.15653 0.33126,-0.23486 0.56006,-0.23486c0.39746,0 0.82499,0.1506 1.28272,0.45166c0.45773,0.30106 0.89132,0.71659 1.30078,1.24658l-0.271,-0.03613c-0.2048,-1.68624 -0.36133,-3.30009 -0.46973,-4.8418c-0.0964,-1.55371 -0.14453,-2.94483 -0.14453,-4.17334c0,-1.12012 0.09033,-1.9572 0.271,-2.51123c0.19267,-0.56609 0.50586,-0.84912 0.93945,-0.84912c0.49386,0 0.88525,0.38542 1.17432,1.15625c0.28906,0.77083 0.43359,2.07161 0.43359,3.90235c0,0.80696 -0.02413,1.63802 -0.07227,2.49317c-0.04813,0.8431 -0.1204,1.64404 -0.2168,2.40283c-0.08427,0.75879 -0.2048,1.39718 -0.36133,1.91504c-0.19267,0.62626 -0.45773,1.07792 -0.79492,1.35498c-0.3252,0.27706 -0.75272,0.41553 -1.28272,0.41553zM202.02554,173.69482c-0.38546,0 -0.69853,-0.08431 -0.93945,-0.25293c-0.2288,-0.18066 -0.34326,-0.45166 -0.34326,-0.81299c0,-0.4095 0.13847,-0.75277 0.41553,-1.02979c0.28906,-0.28906 0.69259,-0.43359 1.21045,-0.43359c0.43359,0 0.76485,0.1084 0.99365,0.3252c0.2288,0.20475 0.34326,0.48177 0.34326,0.83106c0,0.43359 -0.15653,0.77083 -0.46973,1.01172c-0.31319,0.24089 -0.71659,0.36133 -1.21045,0.36133zM214.02745,185.25733c-0.40946,0 -0.69259,-0.15653 -0.84912,-0.46973c-0.14453,-0.3252 -0.2288,-0.83712 -0.25293,-1.53565l0.18066,0.09033c-0.67452,1.31278 -1.95117,1.96924 -3.83008,1.96924c-0.85519,0 -1.56571,-0.1506 -2.13184,-0.45166c-0.56612,-0.31319 -0.98759,-0.72266 -1.26465,-1.22852c-0.26493,-0.5179 -0.39746,-1.07796 -0.39746,-1.68018c0,-1.03581 0.36133,-1.85482 1.08399,-2.45703c0.72266,-0.61426 1.68018,-0.92139 2.87256,-0.92139c0.78292,0 1.46338,0.11442 2.04151,0.34326c0.57813,0.22884 1.07198,0.54802 1.48145,0.95752l-0.30713,-0.03613c-0.08427,-1.21648 -0.34933,-2.08367 -0.79492,-2.60157c-0.43359,-0.52995 -1.05392,-0.79492 -1.86084,-0.79492c-0.46973,0 -0.90332,0.07227 -1.30078,0.2168c-0.39746,0.14453 -0.76485,0.29509 -1.10205,0.45166c-0.3252,0.14453 -0.63232,0.2168 -0.92139,0.2168c-0.28906,0 -0.51786,-0.09636 -0.68652,-0.28906c-0.15653,-0.1927 -0.23486,-0.43962 -0.23486,-0.74072c0,-0.43359 0.2048,-0.8431 0.61426,-1.22852c0.42159,-0.38542 0.97559,-0.69856 1.66211,-0.93945c0.68652,-0.24089 1.43331,-0.36133 2.24024,-0.36133c0.97559,0 1.81271,0.23486 2.51123,0.70459c0.69853,0.46973 1.22852,1.15625 1.58985,2.05957c0.31319,0.77083 0.53593,1.632 0.66846,2.5835c0.13253,0.95149 0.19873,1.96924 0.19873,3.05323c0,0.81902 -0.0422,1.45134 -0.12646,1.89697c-0.08427,0.4456 -0.2168,0.75879 -0.39746,0.93945c-0.16866,0.16866 -0.39746,0.25293 -0.68652,0.25293zM210.03477,183.23389c0.39746,0 0.80099,-0.0542 1.21045,-0.1626c0.40946,-0.12044 0.75272,-0.29509 1.02979,-0.52393c0.27706,-0.22884 0.41553,-0.51189 0.41553,-0.84912c0,-0.28906 -0.1204,-0.52393 -0.36133,-0.70459c-0.2288,-0.1927 -0.53593,-0.33724 -0.92139,-0.43359c-0.37333,-0.09636 -0.77686,-0.14453 -1.21045,-0.14453c-0.73466,0 -1.29472,0.12646 -1.68018,0.37939c-0.37333,0.25293 -0.56006,0.59017 -0.56006,1.01172c0,0.45769 0.1746,0.81299 0.52393,1.06592c0.36133,0.24089 0.87919,0.36133 1.55371,0.36133zM217.44162,176.92871c0,-1.15625 0.1084,-1.98731 0.3252,-2.49317c0.2168,-0.5179 0.52393,-0.77686 0.92139,-0.77686c0.31307,0 0.56006,0.13249 0.74072,0.39746c0.18066,0.25293 0.31307,0.5721 0.39746,0.95752c0.08427,0.37337 0.12646,0.75276 0.12646,1.13818l-0.09033,-0.03613c0.20467,-0.65039 0.51786,-1.21045 0.93945,-1.68018c0.43359,-0.46973 0.95146,-0.70459 1.55371,-0.70459c0.71053,0 1.23445,0.29509 1.57178,0.88525c0.3372,0.57813 0.50586,1.30078 0.50586,2.16797c0,1.15625 -0.13253,1.96321 -0.39746,2.4209c-0.26506,0.45769 -0.62032,0.68652 -1.06592,0.68652c-0.3252,0 -0.56612,-0.13249 -0.72266,-0.39746c-0.14453,-0.26497 -0.19279,-0.7347 -0.14453,-1.40918c0.04813,-0.71062 0.00594,-1.20442 -0.12646,-1.48145c-0.13253,-0.27702 -0.34326,-0.41553 -0.63232,-0.41553c-0.34933,0 -0.63839,0.22282 -0.86719,0.66846c-0.2168,0.43359 -0.3252,0.96956 -0.3252,1.60791c0,0.25293 0.03007,0.5721 0.09033,0.95752c0.06014,0.38542 0.12646,0.80696 0.19873,1.26465c0.07227,0.44563 0.13847,0.89128 0.19873,1.33692c0.06014,0.44563 0.09033,0.85515 0.09033,1.22852c0,0.66239 -0.10246,1.13818 -0.30713,1.42725c-0.2048,0.28906 -0.49386,0.43359 -0.86719,0.43359c-0.42159,0 -0.74679,-0.13253 -0.97559,-0.39746c-0.22893,-0.27706 -0.40353,-0.72266 -0.52393,-1.33692c-0.0964,-0.55403 -0.19279,-1.21045 -0.28906,-1.96924c-0.0964,-0.75879 -0.17473,-1.53565 -0.23486,-2.33057c-0.06026,-0.79492 -0.09033,-1.51155 -0.09033,-2.1499zM238.14174,180.0542c-0.36133,0.04817 -0.69853,0.07829 -1.01172,0.09033c-0.30106,0.01204 -0.59013,0.01807 -0.86719,0.01807c-0.80692,0 -1.34892,-0.06023 -1.62598,-0.18066c-0.27706,-0.13249 -0.41553,-0.3553 -0.41553,-0.66846c0,-0.20476 0.0662,-0.39143 0.19873,-0.56006c0.14453,-0.16862 0.34933,-0.31316 0.61426,-0.43359c0.31319,-0.13249 0.77079,-0.25293 1.37305,-0.36133c0.61426,-0.12044 1.24658,-0.18066 1.89697,-0.18066c0.84306,0 1.49345,0.07227 1.95117,0.2168c0.46973,0.13249 0.70459,0.39143 0.70459,0.77686c0,0.3011 -0.1204,0.56006 -0.36133,0.77686c-0.24093,0.20476 -0.63839,0.33724 -1.19238,0.39746zM239.47865,179.69287c0.31319,0.39746 0.53593,0.80095 0.66846,1.21045c0.13253,0.4095 0.19873,0.77686 0.19873,1.10205c0,0.54199 -0.1626,1.06592 -0.48779,1.57178c-0.31319,0.49386 -0.80692,0.90332 -1.48145,1.22852c-0.67452,0.31319 -1.55978,0.46973 -2.65576,0.46973c-1.40918,0 -2.5835,-0.259 -3.52295,-0.77686c-0.92745,-0.52999 -1.61991,-1.27068 -2.07764,-2.22217c-0.45773,-0.96355 -0.68652,-2.08367 -0.68652,-3.36035c0,-1.37305 0.28906,-2.58953 0.86719,-3.64942c0.57813,-1.05989 1.39718,-1.88493 2.45703,-2.4751c1.05985,-0.60222 2.3005,-0.90332 3.72168,-0.90332c1.18038,0 2.0837,0.21077 2.70996,0.63232c0.63839,0.4095 0.95752,0.89128 0.95752,1.44531c0,0.33724 -0.11446,0.60222 -0.34326,0.79492c-0.2168,0.18066 -0.53593,0.271 -0.95752,0.271c-0.25293,0 -0.51786,-0.04216 -0.79492,-0.12646c-0.26493,-0.08431 -0.56612,-0.1626 -0.90332,-0.23486c-0.3252,-0.08431 -0.69853,-0.12646 -1.12012,-0.12646c-0.77079,0 -1.48145,0.14453 -2.13184,0.43359c-0.65039,0.27702 -1.17432,0.74072 -1.57178,1.39111c-0.38546,0.63835 -0.57813,1.49951 -0.57813,2.5835c0,0.92741 0.1746,1.6862 0.52393,2.27637c0.36133,0.57813 0.86112,1.00569 1.49951,1.28272c0.63839,0.26497 1.36698,0.39746 2.18604,0.39746c0.55399,0 0.98759,-0.06023 1.30078,-0.18066c0.3252,-0.12044 0.55399,-0.3011 0.68652,-0.54199c0.14453,-0.24089 0.2168,-0.54802 0.2168,-0.92139c0,-0.20476 -0.03007,-0.45769 -0.09033,-0.75879c-0.04813,-0.3011 -0.12646,-0.60222 -0.23486,-0.90332zM247.42969,185.2212c-1.33692,0 -2.40283,-0.19873 -3.19776,-0.59619c-0.79492,-0.39746 -1.36698,-0.96956 -1.71631,-1.71631c-0.3492,-0.74675 -0.52393,-1.63802 -0.52393,-2.67383c0,-1.31282 0.24093,-2.42693 0.72266,-3.34229c0.49386,-0.92741 1.16838,-1.63802 2.02344,-2.13184c0.86719,-0.49382 1.84884,-0.74072 2.94483,-0.74072c1.28878,0 2.2343,0.3011 2.83643,0.90332c0.60226,0.59017 0.90332,1.36702 0.90332,2.33057c0,0.77083 -0.20467,1.43929 -0.61426,2.00537c-0.39746,0.55403 -0.95146,0.98161 -1.66211,1.28272c-0.71053,0.3011 -1.52958,0.45166 -2.45703,0.45166c-0.51786,0 -1.01766,-0.06624 -1.49951,-0.19873c-0.48173,-0.13249 -0.91532,-0.31316 -1.30078,-0.54199l0.43359,-0.79492c-0.03613,0.28906 -0.0542,0.57813 -0.0542,0.86719c0,0.8431 0.26506,1.45134 0.79492,1.82471c0.52999,0.36133 1.28272,0.54199 2.2583,0.54199c0.75879,0 1.36711,-0.06624 1.82471,-0.19873c0.45773,-0.13249 0.84319,-0.25896 1.15625,-0.37939c0.31319,-0.13249 0.62032,-0.19873 0.92139,-0.19873c0.16866,0 0.31926,0.04817 0.45166,0.14453c0.14453,0.08431 0.259,0.21077 0.34326,0.37939c0.0964,0.16862 0.14453,0.37337 0.14453,0.61426c0,0.36133 -0.18066,0.71062 -0.54199,1.04785c-0.36133,0.3252 -0.89726,0.59619 -1.60791,0.81299c-0.69853,0.2048 -1.55965,0.30713 -2.5835,0.30713zM246.38184,179.31348c0.85519,0 1.54171,-0.18066 2.05957,-0.54199c0.51799,-0.36133 0.77686,-0.80696 0.77686,-1.33692c0,-0.42155 -0.14453,-0.76482 -0.43359,-1.02979c-0.27693,-0.27702 -0.71659,-0.41553 -1.31885,-0.41553c-0.566,0 -1.07792,0.1084 -1.53565,0.3252c-0.4456,0.20476 -0.79492,0.47575 -1.04785,0.81299c-0.25293,0.33724 -0.37939,0.70459 -0.37939,1.10205c0,0.34929 0.1626,0.62028 0.48779,0.81299c0.33733,0.18066 0.80099,0.271 1.39111,0.271zM255.59365,173.83935c0.38546,0 0.64433,0.15657 0.77686,0.46973c0.14453,0.31316 0.2168,0.77686 0.2168,1.39111c0,0.14453 -0.012,0.3011 -0.03613,0.46973c-0.012,0.15657 -0.03613,0.3011 -0.07227,0.43359l-0.03613,-0.36133c0.28906,-0.78288 0.73466,-1.39111 1.33692,-1.82471c0.60226,-0.44563 1.24052,-0.66846 1.91504,-0.66846c0.74679,0 1.36698,0.21077 1.86084,0.63232c0.50586,0.42155 0.87919,1.01172 1.12012,1.77051c0.25293,0.75879 0.37939,1.65608 0.37939,2.6919c0,0.63835 -0.03007,1.27068 -0.09033,1.89697c-0.04813,0.61426 -0.1204,1.18034 -0.2168,1.69824c-0.08427,0.50586 -0.18066,0.92139 -0.28906,1.24658c-0.14453,0.40946 -0.33126,0.71659 -0.56006,0.92139c-0.2288,0.19267 -0.49979,0.28906 -0.81299,0.28906c-0.31319,0 -0.55399,-0.11446 -0.72266,-0.34326c-0.16866,-0.2288 -0.25293,-0.53593 -0.25293,-0.92139c0,-0.4095 0.03007,-0.90332 0.09033,-1.48145c0.06026,-0.59017 0.11446,-1.18636 0.1626,-1.78858c0.06026,-0.61426 0.09033,-1.16829 0.09033,-1.66211c0,-1.6862 -0.55399,-2.5293 -1.66211,-2.5293c-0.59013,0 -1.08399,0.26497 -1.48145,0.79492c-0.39746,0.5179 -0.66239,1.25862 -0.79492,2.22217c-0.03613,0.3252 -0.0542,0.72868 -0.0542,1.21045c0,0.48177 0,0.96355 0,1.44531c0.012,0.46973 0,0.86719 -0.03613,1.19238c-0.04813,0.72266 -0.18673,1.24052 -0.41553,1.55371c-0.2168,0.31319 -0.51786,0.46973 -0.90332,0.46973c-0.4456,0 -0.78292,-0.2048 -1.01172,-0.61426c-0.2288,-0.42159 -0.34326,-1.12614 -0.34326,-2.11377c0,-0.50586 0.012,-1.07195 0.03613,-1.69824c0.02413,-0.6263 0.0542,-1.25261 0.09033,-1.87891c0.04813,-0.63835 0.10233,-1.21648 0.1626,-1.73438c0.1204,-0.97559 0.29513,-1.74642 0.52393,-2.3125c0.2288,-0.57813 0.57206,-0.86719 1.02979,-0.86719zM265.34448,188.83448c-0.48186,0 -0.91545,-0.10233 -1.30078,-0.30713c-0.38546,-0.2048 -0.69259,-0.46366 -0.92139,-0.77686c-0.22893,-0.31319 -0.34326,-0.63232 -0.34326,-0.95752c0,-0.27706 0.07227,-0.49386 0.2168,-0.65039c0.14453,-0.15653 0.33113,-0.23486 0.56006,-0.23486c0.39746,0 0.82499,0.1506 1.28272,0.45166c0.4576,0.30106 0.89119,0.71659 1.30078,1.24658l-0.271,-0.03613c-0.2048,-1.68624 -0.36133,-3.30009 -0.46973,-4.8418c-0.0964,-1.55371 -0.14453,-2.94483 -0.14453,-4.17334c0,-1.12012 0.09033,-1.9572 0.271,-2.51123c0.19267,-0.56609 0.50586,-0.84912 0.93945,-0.84912c0.49373,0 0.88525,0.38542 1.17432,1.15625c0.28906,0.77083 0.43359,2.07161 0.43359,3.90235c0,0.80696 -0.02413,1.63802 -0.07227,2.49317c-0.04826,0.8431 -0.12053,1.64404 -0.2168,2.40283c-0.0844,0.75879 -0.2048,1.39718 -0.36133,1.91504c-0.19279,0.62626 -0.45773,1.07792 -0.79492,1.35498c-0.3252,0.27706 -0.75285,0.41553 -1.28272,0.41553zM266.17554,173.69482c-0.38546,0 -0.69865,-0.08431 -0.93945,-0.25293c-0.22893,-0.18066 -0.34326,-0.45166 -0.34326,-0.81299c0,-0.4095 0.13847,-0.75277 0.41553,-1.02979c0.28906,-0.28906 0.69246,-0.43359 1.21045,-0.43359c0.43359,0 0.76473,0.1084 0.99365,0.3252c0.2288,0.20475 0.34326,0.48177 0.34326,0.83106c0,0.43359 -0.15666,0.77083 -0.46973,1.01172c-0.31319,0.24089 -0.71672,0.36133 -1.21045,0.36133zM278.17732,185.25733c-0.40946,0 -0.69246,-0.15653 -0.84912,-0.46973c-0.14453,-0.3252 -0.2288,-0.83712 -0.25293,-1.53565l0.18066,0.09033c-0.67439,1.31278 -1.95117,1.96924 -3.83008,1.96924c-0.85506,0 -1.56571,-0.1506 -2.13184,-0.45166c-0.566,-0.31319 -0.98759,-0.72266 -1.26465,-1.22852c-0.26493,-0.5179 -0.39746,-1.07796 -0.39746,-1.68018c0,-1.03581 0.36133,-1.85482 1.08399,-2.45703c0.72266,-0.61426 1.68018,-0.92139 2.87256,-0.92139c0.78292,0 1.46338,0.11442 2.04151,0.34326c0.57813,0.22884 1.07198,0.54802 1.48145,0.95752l-0.30713,-0.03613c-0.08427,-1.21648 -0.3492,-2.08367 -0.79492,-2.60157c-0.43359,-0.52995 -1.05379,-0.79492 -1.86084,-0.79492c-0.46973,0 -0.90332,0.07227 -1.30078,0.2168c-0.39746,0.14453 -0.76473,0.29509 -1.10205,0.45166c-0.3252,0.14453 -0.63232,0.2168 -0.92139,0.2168c-0.28906,0 -0.51786,-0.09636 -0.68652,-0.28906c-0.15653,-0.1927 -0.23486,-0.43962 -0.23486,-0.74072c0,-0.43359 0.2048,-0.8431 0.61426,-1.22852c0.42159,-0.38542 0.97559,-0.69856 1.66211,-0.93945c0.68652,-0.24089 1.43331,-0.36133 2.24024,-0.36133c0.97559,0 1.81271,0.23486 2.51123,0.70459c0.69865,0.46973 1.22852,1.15625 1.58985,2.05957c0.31319,0.77083 0.53606,1.632 0.66846,2.5835c0.13253,0.95149 0.19873,1.96924 0.19873,3.05323c0,0.81902 -0.04207,1.45134 -0.12646,1.89697c-0.08427,0.4456 -0.2168,0.75879 -0.39746,0.93945c-0.16853,0.16866 -0.39746,0.25293 -0.68652,0.25293zM274.18464,183.23389c0.39746,0 0.80099,-0.0542 1.21045,-0.1626c0.40959,-0.12044 0.75285,-0.29509 1.02979,-0.52393c0.27706,-0.22884 0.41553,-0.51189 0.41553,-0.84912c0,-0.28906 -0.1204,-0.52393 -0.36133,-0.70459c-0.2288,-0.1927 -0.53593,-0.33724 -0.92139,-0.43359c-0.37333,-0.09636 -0.77686,-0.14453 -1.21045,-0.14453c-0.73466,0 -1.29472,0.12646 -1.68018,0.37939c-0.37333,0.25293 -0.56006,0.59017 -0.56006,1.01172c0,0.45769 0.17473,0.81299 0.52393,1.06592c0.36133,0.24089 0.87932,0.36133 1.55371,0.36133zM283.43426,173.83935c0.38546,0 0.64433,0.15657 0.77686,0.46973c0.14453,0.31316 0.2168,0.77686 0.2168,1.39111c0,0.14453 -0.012,0.3011 -0.03613,0.46973c-0.012,0.15657 -0.03613,0.3011 -0.07227,0.43359l-0.03613,-0.36133c0.28906,-0.78288 0.73466,-1.39111 1.33692,-1.82471c0.60226,-0.44563 1.24052,-0.66846 1.91504,-0.66846c0.74679,0 1.36698,0.21077 1.86084,0.63232c0.50586,0.42155 0.87919,1.01172 1.12012,1.77051c0.25293,0.75879 0.37939,1.65608 0.37939,2.6919c0,0.63835 -0.03007,1.27068 -0.09033,1.89697c-0.04813,0.61426 -0.1204,1.18034 -0.2168,1.69824c-0.08427,0.50586 -0.18066,0.92139 -0.28906,1.24658c-0.14453,0.40946 -0.33126,0.71659 -0.56006,0.92139c-0.2288,0.19267 -0.49979,0.28906 -0.81299,0.28906c-0.31319,0 -0.55399,-0.11446 -0.72266,-0.34326c-0.16866,-0.2288 -0.25293,-0.53593 -0.25293,-0.92139c0,-0.4095 0.03007,-0.90332 0.09033,-1.48145c0.06026,-0.59017 0.11446,-1.18636 0.1626,-1.78858c0.06026,-0.61426 0.09033,-1.16829 0.09033,-1.66211c0,-1.6862 -0.55399,-2.5293 -1.66211,-2.5293c-0.59013,0 -1.08399,0.26497 -1.48145,0.79492c-0.39746,0.5179 -0.66239,1.25862 -0.79492,2.22217c-0.03613,0.3252 -0.0542,0.72868 -0.0542,1.21045c0,0.48177 0,0.96355 0,1.44531c0.012,0.46973 0,0.86719 -0.03613,1.19238c-0.04813,0.72266 -0.18673,1.24052 -0.41553,1.55371c-0.2168,0.31319 -0.51786,0.46973 -0.90332,0.46973c-0.4456,0 -0.78292,-0.2048 -1.01172,-0.61426c-0.2288,-0.42159 -0.34326,-1.12614 -0.34326,-2.11377c0,-0.50586 0.012,-1.07195 0.03613,-1.69824c0.02413,-0.6263 0.0542,-1.25261 0.09033,-1.87891c0.04813,-0.63835 0.10233,-1.21648 0.1626,-1.73438c0.1204,-0.97559 0.29513,-1.74642 0.52393,-2.3125c0.2288,-0.57813 0.57206,-0.86719 1.02979,-0.86719zM296.54545,184.7876c-1.13225,0 -2.05364,-0.43359 -2.76416,-1.30078c-0.71066,-0.87923 -1.06592,-2.21013 -1.06592,-3.99268c0,-1.903 0.34326,-3.29412 1.02979,-4.17334c0.68652,-0.87923 1.58985,-1.31885 2.70996,-1.31885c0.66239,0 1.24658,0.16862 1.75244,0.50586c0.50586,0.33724 0.93945,0.81299 1.30078,1.42725l-0.14453,0.25293c-0.03613,-0.16862 -0.06633,-0.34929 -0.09033,-0.54199c-0.02413,-0.1927 -0.03613,-0.33724 -0.03613,-0.43359c0,-0.49382 0.0782,-0.87321 0.23486,-1.13818c0.16853,-0.27702 0.42753,-0.41553 0.77686,-0.41553c0.38533,0 0.68652,0.15657 0.90332,0.46973c0.2288,0.31316 0.4034,0.75879 0.52393,1.33692c0.15653,0.59017 0.28906,1.34294 0.39746,2.2583c0.1084,0.90332 0.1626,1.81868 0.1626,2.7461c0,1.15625 -0.0422,2.12581 -0.12646,2.90869c-0.0844,0.78292 -0.22286,1.43331 -0.41553,1.95117c-0.19279,0.51786 -0.44572,0.96952 -0.75879,1.35498c-0.51799,0.62626 -1.18645,1.10205 -2.00537,1.42725c-0.80705,0.3372 -1.74044,0.50586 -2.8003,0.50586c-0.75879,0 -1.36711,-0.07227 -1.82471,-0.2168c-0.45773,-0.13253 -0.78899,-0.31913 -0.99365,-0.56006c-0.19279,-0.2288 -0.28906,-0.48779 -0.28906,-0.77686c0,-0.30106 0.08427,-0.55399 0.25293,-0.75879c0.16853,-0.19267 0.42146,-0.28906 0.75879,-0.28906c0.30106,0 0.65039,0.04813 1.04785,0.14453c0.40946,0.0964 0.89119,0.14453 1.44531,0.14453c1.16825,0 1.99324,-0.27706 2.4751,-0.83106c0.49373,-0.54199 0.74072,-1.32491 0.74072,-2.34864c0,-0.27702 -0.01807,-0.60222 -0.0542,-0.97559l0.25293,0.09033c-0.30119,0.77083 -0.74679,1.39111 -1.33692,1.86084c-0.59026,0.45773 -1.27678,0.68652 -2.05957,0.68652zM297.23198,182.56543c0.38533,0 0.77079,-0.10237 1.15625,-0.30713c0.38533,-0.20476 0.70459,-0.54199 0.95752,-1.01172c0.25293,-0.46973 0.37939,-1.10205 0.37939,-1.89697c0,-0.95149 -0.22286,-1.72835 -0.66846,-2.33057c-0.44572,-0.60222 -1.07198,-0.90332 -1.87891,-0.90332c-0.69865,0 -1.21045,0.26497 -1.53565,0.79492c-0.3252,0.52995 -0.48779,1.33089 -0.48779,2.40283c0,1.02376 0.1626,1.82471 0.48779,2.40283c0.3252,0.56609 0.85506,0.84912 1.58985,0.84912z"/></g></g></svg>