<svg version="1.1" xmlns="http://www.w3.org/2000/svg" xmlns:xlink="http://www.w3.org/1999/xlink" width="124.21885" height="16.58241" viewBox="0,0,124.21885,16.58241"><g transform="translate(-177.89057,-171.7088)"><g fill="#fb0606" stroke="none" stroke-miterlimit="10"><path d="M180.07587,172.13981c0.37304,0 0.68558,0.02016 0.93763,0.06049c0.25709,0.03529 0.46378,0.08066 0.62005,0.13611c0.16635,0.06553 0.27978,0.14115 0.34027,0.22685c0.06553,0.0857 0.0983,0.184 0.0983,0.2949c0,0.16131 -0.06301,0.29238 -0.18904,0.3932c-0.12099,0.10082 -0.30749,0.15123 -0.55956,0.15123c-0.17139,0 -0.35539,-0.01764 -0.552,-0.05293c-0.1966,-0.03529 -0.39823,-0.08822 -0.60493,-0.15879l0.0983,-0.10586c0.04537,0.26213 0.0857,0.552 0.12099,0.86957c0.03529,0.31759 0.06553,0.64021 0.09074,0.96787c0.03025,0.32263 0.05041,0.6276 0.06049,0.91494c0.01512,0.28734 0.02268,0.53182 0.02268,0.73346c0,0.3932 -0.0504,0.68809 -0.15123,0.88469c-0.09577,0.1966 -0.26212,0.2949 -0.49906,0.2949c-0.21675,0 -0.37303,-0.08822 -0.46882,-0.26466c-0.09577,-0.18148 -0.14367,-0.4562 -0.14367,-0.8242c0,-0.24197 0.01008,-0.51923 0.03025,-0.83176c0.02521,-0.31255 0.05797,-0.63516 0.0983,-0.96787c0.04033,-0.33271 0.08318,-0.65029 0.12855,-0.95275c0.05041,-0.3075 0.10082,-0.57468 0.15123,-0.80152l0.13611,0.08318c-0.11089,0.04033 -0.24197,0.08066 -0.3932,0.12099c-0.15123,0.03529 -0.30246,0.06553 -0.45369,0.09074c-0.15123,0.02016 -0.28481,0.03025 -0.40076,0.03025c-0.25709,0 -0.43856,-0.04033 -0.54442,-0.12099c-0.10586,-0.0857 -0.15879,-0.19912 -0.15879,-0.34027c0,-0.13107 0.04033,-0.24197 0.12099,-0.33271c0.08066,-0.09578 0.20416,-0.17896 0.37052,-0.24953c0.19156,-0.08066 0.42597,-0.14115 0.70322,-0.18148c0.2823,-0.04537 0.61249,-0.06805 0.99056,-0.06805zM184.51177,177.75801c-0.55956,0 -1.00568,-0.08318 -1.33839,-0.24953c-0.33271,-0.16635 -0.57216,-0.4058 -0.71834,-0.71834c-0.14619,-0.31255 -0.21929,-0.68558 -0.21929,-1.1191c0,-0.54947 0.10082,-1.01576 0.30246,-1.39888c0.20668,-0.38815 0.48898,-0.68558 0.84689,-0.89226c0.36296,-0.20668 0.77379,-0.31002 1.23253,-0.31002c0.53938,0 0.93512,0.12603 1.18715,0.37808c0.2521,0.24701 0.37808,0.57216 0.37808,0.97543c0,0.32263 -0.08568,0.60241 -0.25709,0.83932c-0.16635,0.23189 -0.39819,0.41084 -0.69564,0.53687c-0.29742,0.12603 -0.64021,0.18904 -1.02836,0.18904c-0.21677,0 -0.42596,-0.02773 -0.6276,-0.08318c-0.20164,-0.05545 -0.38312,-0.13107 -0.54443,-0.22685l0.18148,-0.33271c-0.01512,0.12099 -0.02268,0.24197 -0.02268,0.36296c0,0.35287 0.1109,0.60744 0.33271,0.76371c0.22181,0.15123 0.53687,0.22685 0.94519,0.22685c0.31759,0 0.57216,-0.02773 0.76371,-0.08318c0.19159,-0.05545 0.35288,-0.10838 0.48392,-0.15879c0.13112,-0.05545 0.25967,-0.08318 0.38564,-0.08318c0.07063,0 0.13361,0.02016 0.18904,0.06049c0.06049,0.03529 0.10843,0.08822 0.14367,0.15879c0.04038,0.07057 0.06049,0.15627 0.06049,0.25709c0,0.15123 -0.07562,0.29742 -0.22685,0.43857c-0.15123,0.13611 -0.37551,0.24953 -0.67297,0.34027c-0.29237,0.0857 -0.6528,0.12855 -1.08129,0.12855zM184.0732,175.28539c0.3579,0 0.64524,-0.07562 0.86201,-0.22685c0.21677,-0.15123 0.32515,-0.33775 0.32515,-0.55956c0,-0.17644 -0.06049,-0.32011 -0.18148,-0.43101c-0.11594,-0.11594 -0.29994,-0.17392 -0.552,-0.17392c-0.23693,0 -0.45117,0.04537 -0.64272,0.13611c-0.18652,0.0857 -0.33271,0.19912 -0.43857,0.34027c-0.10586,0.14115 -0.15879,0.2949 -0.15879,0.46126c0,0.14619 0.06805,0.25961 0.20416,0.34027c0.14115,0.07562 0.33522,0.11342 0.58224,0.11342zM187.15738,174.28727c0,-0.48394 0.04537,-0.83176 0.13611,-1.04349c0.09074,-0.21677 0.21929,-0.32515 0.38564,-0.32515c0.13112,0 0.23441,0.05545 0.31002,0.16635c0.07562,0.10586 0.13112,0.23945 0.16635,0.40076c0.03531,0.15627 0.05293,0.31507 0.05293,0.47638l-0.03781,-0.01512c0.08575,-0.27222 0.21679,-0.50663 0.3932,-0.70322c0.18148,-0.1966 0.39826,-0.2949 0.65029,-0.2949c0.29747,0 0.51675,0.12351 0.65785,0.37052c0.14117,0.24197 0.21172,0.54443 0.21172,0.90738c0,0.48394 -0.05543,0.82169 -0.16635,1.01324c-0.11085,0.19156 -0.25958,0.28734 -0.44613,0.28734c-0.13611,0 -0.2369,-0.05545 -0.30246,-0.16635c-0.06049,-0.1109 -0.0806,-0.3075 -0.06049,-0.5898c0.02018,-0.29742 0.00257,-0.50411 -0.05293,-0.62005c-0.05543,-0.11594 -0.14367,-0.17392 -0.26466,-0.17392c-0.14616,0 -0.26714,0.09326 -0.36296,0.27978c-0.09074,0.18148 -0.13611,0.4058 -0.13611,0.67297c0,0.10586 0.01262,0.23945 0.03781,0.40076c0.02526,0.16131 0.05293,0.33775 0.08318,0.52931c0.03025,0.18652 0.05799,0.37303 0.08318,0.55956c0.02526,0.18652 0.03781,0.3579 0.03781,0.51419c0,0.27726 -0.0428,0.47638 -0.12855,0.59736c-0.08568,0.12099 -0.20665,0.18148 -0.36296,0.18148c-0.17641,0 -0.31251,-0.05545 -0.40833,-0.16635c-0.09573,-0.11594 -0.16884,-0.30246 -0.21929,-0.55956c-0.04031,-0.23189 -0.0806,-0.50663 -0.12099,-0.8242c-0.04031,-0.31759 -0.07304,-0.64272 -0.0983,-0.97543c-0.02518,-0.33271 -0.03781,-0.63265 -0.03781,-0.89982zM192.16756,177.80338c-0.49399,0 -0.87963,-0.184 -1.15691,-0.552c-0.27728,-0.37303 -0.41589,-0.94015 -0.41589,-1.70135c0,-0.75615 0.13611,-1.30814 0.40833,-1.65598c0.27728,-0.35287 0.67297,-0.52931 1.18716,-0.52931c0.2924,0 0.54692,0.06049 0.76371,0.18148c0.22178,0.12099 0.41838,0.29238 0.5898,0.51419l-0.06049,0.03025c-0.04537,-0.20668 -0.09074,-0.42596 -0.13611,-0.65785c-0.04537,-0.23189 -0.08318,-0.45117 -0.11342,-0.65785c-0.02518,-0.21172 -0.03781,-0.37808 -0.03781,-0.49906c0,-0.1714 0.02775,-0.30246 0.08318,-0.3932c0.05543,-0.09578 0.14367,-0.14367 0.26466,-0.14367c0.17142,0 0.31002,0.0731 0.41589,0.21929c0.10586,0.14115 0.1941,0.36044 0.26466,0.65786c0.06555,0.26718 0.12347,0.58475 0.17392,0.95275c0.05043,0.36296 0.09074,0.74354 0.12099,1.14179c0.03531,0.3932 0.05293,0.77127 0.05293,1.13423c0,0.50411 -0.02775,0.89731 -0.08318,1.1796c-0.05043,0.27726 -0.12347,0.47133 -0.21929,0.58224c-0.09074,0.1109 -0.19909,0.16635 -0.32515,0.16635c-0.15629,0 -0.26216,-0.07814 -0.31759,-0.23441c-0.05543,-0.15627 -0.07812,-0.41084 -0.06805,-0.76371h0.11342c-0.13611,0.31255 -0.3352,0.56207 -0.59736,0.74859c-0.25709,0.18652 -0.55956,0.27978 -0.90738,0.27978zM192.56832,176.86575c0.18148,0 0.34783,-0.04537 0.49906,-0.13611c0.15629,-0.09578 0.27978,-0.24197 0.37052,-0.43857c0.0958,-0.1966 0.14367,-0.44613 0.14367,-0.74859c0,-0.38815 -0.08824,-0.70322 -0.26466,-0.94519c-0.17641,-0.24701 -0.43101,-0.37052 -0.76371,-0.37052c-0.26216,0 -0.47638,0.10838 -0.64272,0.32515c-0.16128,0.21677 -0.24197,0.54443 -0.24197,0.98299c0,0.38815 0.08068,0.70827 0.24197,0.96031c0.16635,0.24701 0.38564,0.37052 0.65785,0.37052zM198.79863,177.77313c-0.17134,0 -0.28983,-0.06553 -0.35539,-0.1966c-0.06049,-0.13611 -0.09573,-0.35034 -0.10586,-0.64272l0.07562,0.03781c-0.28227,0.54947 -0.81664,0.8242 -1.60304,0.8242c-0.35788,0 -0.65529,-0.06301 -0.89226,-0.18904c-0.2369,-0.13107 -0.41331,-0.30246 -0.52931,-0.51419c-0.11085,-0.21677 -0.16635,-0.45117 -0.16635,-0.70322c0,-0.43352 0.15123,-0.77632 0.45369,-1.02836c0.30246,-0.25709 0.70322,-0.38564 1.20228,-0.38564c0.32772,0 0.61249,0.04789 0.85445,0.14367c0.24197,0.09578 0.44871,0.22937 0.62005,0.40076l-0.12855,-0.01512c-0.03524,-0.50914 -0.14616,-0.87209 -0.33271,-1.08886c-0.18148,-0.22181 -0.44106,-0.33271 -0.77883,-0.33271c-0.1966,0 -0.37808,0.03025 -0.54443,0.09074c-0.16635,0.06049 -0.32008,0.12351 -0.46126,0.18904c-0.13611,0.06049 -0.26466,0.09074 -0.38564,0.09074c-0.12099,0 -0.21671,-0.04033 -0.28734,-0.12099c-0.06548,-0.08066 -0.0983,-0.184 -0.0983,-0.31002c0,-0.18148 0.08575,-0.35287 0.25709,-0.51419c0.17649,-0.16131 0.40833,-0.29238 0.69565,-0.3932c0.28734,-0.10082 0.59993,-0.15123 0.93763,-0.15123c0.40833,0 0.75872,0.0983 1.05105,0.2949c0.2924,0.1966 0.51419,0.48394 0.66541,0.86201c0.13112,0.32263 0.22435,0.68305 0.27978,1.0813c0.0555,0.39824 0.08318,0.8242 0.08318,1.2779c0,0.34278 -0.01762,0.60744 -0.05293,0.79396c-0.03524,0.18652 -0.09074,0.31759 -0.16635,0.3932c-0.07055,0.07057 -0.16635,0.10586 -0.28734,0.10586zM197.12753,176.92624c0.16635,0 0.33528,-0.02268 0.50663,-0.06805c0.17142,-0.05041 0.31509,-0.12351 0.43101,-0.21929c0.116,-0.09578 0.17392,-0.21424 0.17392,-0.35539c0,-0.12099 -0.05036,-0.21929 -0.15123,-0.2949c-0.09573,-0.08066 -0.22428,-0.14115 -0.38564,-0.18148c-0.15622,-0.04033 -0.32515,-0.06049 -0.50663,-0.06049c-0.30745,0 -0.54186,0.05293 -0.70322,0.15879c-0.15622,0.10586 -0.23441,0.24701 -0.23441,0.42345c0,0.19156 0.07312,0.34027 0.21929,0.44613c0.15123,0.10082 0.36802,0.15123 0.65029,0.15123zM200.74179,173.00938c0.13611,0 0.24953,0.08066 0.34027,0.24197c0.09074,0.15627 0.15372,0.4058 0.18904,0.74859l-0.15879,0.14367c0.09074,-0.35287 0.25958,-0.62256 0.50663,-0.80908c0.24703,-0.18652 0.53936,-0.27978 0.87713,-0.27978c0.31251,0 0.5898,0.08066 0.83176,0.24197c0.24197,0.16131 0.43101,0.4058 0.56712,0.73346c0.14117,0.32263 0.21172,0.72842 0.21172,1.2174c0,0.79145 -0.14367,1.3762 -0.43101,1.75428c-0.28227,0.37303 -0.66791,0.55956 -1.15691,0.55956c-0.35289,0 -0.6301,-0.07562 -0.83176,-0.22685c-0.20166,-0.15123 -0.34276,-0.33522 -0.42345,-0.552l0.09074,-0.04537c0.04031,0.30246 0.07312,0.60241 0.0983,0.89982c0.03025,0.29238 0.04537,0.54947 0.04537,0.77127c0,0.22685 -0.04031,0.4184 -0.12099,0.57468c-0.08068,0.15627 -0.20922,0.23441 -0.38564,0.23441c-0.17142,0 -0.29996,-0.06553 -0.38564,-0.1966c-0.08568,-0.13107 -0.14873,-0.30498 -0.18904,-0.52175c-0.03025,-0.22181 -0.06049,-0.50663 -0.09074,-0.85445c-0.03025,-0.34783 -0.05543,-0.72339 -0.07562,-1.12667c-0.01512,-0.40327 -0.02268,-0.79648 -0.02268,-1.1796c0,-0.3932 0.01262,-0.7612 0.03781,-1.10398c0.03025,-0.34783 0.06555,-0.63012 0.10586,-0.84689c0.03531,-0.12603 0.08068,-0.21929 0.13611,-0.27978c0.06049,-0.06553 0.1386,-0.0983 0.23441,-0.0983zM202.18604,173.92432c-0.27222,0 -0.4915,0.13611 -0.65785,0.40833c-0.16128,0.26718 -0.24197,0.60997 -0.24197,1.02836c0,0.42849 0.08068,0.74859 0.24197,0.96031c0.16635,0.21172 0.38057,0.31759 0.64272,0.31759c0.30246,0 0.51925,-0.11846 0.65029,-0.35539c0.13611,-0.24197 0.20416,-0.55451 0.20416,-0.93763c0,-0.48898 -0.08318,-0.84689 -0.24953,-1.07373c-0.16635,-0.23189 -0.36296,-0.34783 -0.5898,-0.34783zM208.17672,177.77313c-0.17142,0 -0.28991,-0.06553 -0.35539,-0.1966c-0.06049,-0.13611 -0.0958,-0.35034 -0.10586,-0.64272l0.07562,0.03781c-0.28235,0.54947 -0.81664,0.8242 -1.60304,0.8242c-0.35797,0 -0.65536,-0.06301 -0.89226,-0.18904c-0.23698,-0.13107 -0.41339,-0.30246 -0.52931,-0.51419c-0.11092,-0.21677 -0.16635,-0.45117 -0.16635,-0.70322c0,-0.43352 0.15123,-0.77632 0.45369,-1.02836c0.30246,-0.25709 0.70322,-0.38564 1.20228,-0.38564c0.32764,0 0.61249,0.04789 0.85445,0.14367c0.24197,0.09578 0.44862,0.22937 0.62005,0.40076l-0.12855,-0.01512c-0.03531,-0.50914 -0.14624,-0.87209 -0.33271,-1.08886c-0.18148,-0.22181 -0.44114,-0.33271 -0.77883,-0.33271c-0.1966,0 -0.37808,0.03025 -0.54443,0.09074c-0.16635,0.06049 -0.32016,0.12351 -0.46126,0.18904c-0.13611,0.06049 -0.26466,0.09074 -0.38564,0.09074c-0.12099,0 -0.21679,-0.04033 -0.28734,-0.12099c-0.06555,-0.08066 -0.0983,-0.184 -0.0983,-0.31002c0,-0.18148 0.08568,-0.35287 0.25709,-0.51419c0.17641,-0.16131 0.40833,-0.29238 0.69565,-0.3932c0.28734,-0.10082 0.59985,-0.15123 0.93763,-0.15123c0.40833,0 0.75865,0.0983 1.05105,0.2949c0.29233,0.1966 0.51419,0.48394 0.66541,0.86201c0.13104,0.32263 0.22428,0.68305 0.27978,1.0813c0.05543,0.39824 0.08318,0.8242 0.08318,1.2779c0,0.34278 -0.0177,0.60744 -0.05293,0.79396c-0.03531,0.18652 -0.09074,0.31759 -0.16635,0.3932c-0.07063,0.07057 -0.16635,0.10586 -0.28734,0.10586zM206.50563,176.92624c0.16635,0 0.3352,-0.02268 0.50663,-0.06805c0.17134,-0.05041 0.31501,-0.12351 0.43101,-0.21929c0.11591,-0.09578 0.17392,-0.21424 0.17392,-0.35539c0,-0.12099 -0.05043,-0.21929 -0.15123,-0.2949c-0.0958,-0.08066 -0.22435,-0.14115 -0.38564,-0.18148c-0.15629,-0.04033 -0.32515,-0.06049 -0.50663,-0.06049c-0.30752,0 -0.54193,0.05293 -0.70322,0.15879c-0.15629,0.10586 -0.23441,0.24701 -0.23441,0.42345c0,0.19156 0.07304,0.34027 0.21929,0.44613c0.15123,0.10082 0.36795,0.15123 0.65029,0.15123zM210.65464,173.14548h-0.15123c-0.01512,-0.22181 -0.01006,-0.43101 0.01512,-0.6276c0.02518,-0.20164 0.07812,-0.36296 0.15879,-0.48394c0.08568,-0.12603 0.20665,-0.18904 0.36296,-0.18904c0.14117,0 0.24446,0.04537 0.31002,0.13611c0.06555,0.09074 0.0983,0.21677 0.0983,0.37808c0,0.31759 -0.06049,0.5898 -0.18148,0.81664l-0.13611,-0.01512c0.27222,-0.09578 0.57974,-0.14367 0.9225,-0.14367c0.21679,0 0.38813,0.04285 0.51419,0.12855c0.13104,0.08066 0.1966,0.21929 0.1966,0.41589c0,0.18652 -0.07562,0.32766 -0.22685,0.42345c-0.15123,0.09578 -0.34027,0.14367 -0.56712,0.14367c-0.13611,0 -0.28227,-0.00504 -0.43857,-0.01512c-0.15123,-0.01512 -0.29996,-0.03781 -0.44613,-0.06805l0.12855,-0.15879c0.04537,0.19156 0.08824,0.41084 0.12855,0.65785c0.04537,0.24197 0.08568,0.49401 0.12099,0.75615c0.03531,0.26213 0.06299,0.5167 0.08318,0.76371c0.02018,0.24701 0.03025,0.46882 0.03025,0.66541c0,0.32263 -0.05043,0.57719 -0.15123,0.76371c-0.10079,0.18652 -0.24953,0.27978 -0.44613,0.27978c-0.15629,0 -0.27978,-0.04789 -0.37052,-0.14367c-0.08568,-0.09578 -0.14873,-0.21677 -0.18904,-0.36296c-0.03531,-0.15123 -0.05799,-0.3075 -0.06805,-0.46882c-0.00506,-0.16131 -0.00756,-0.3075 -0.00756,-0.43857c0,-0.22181 0.01006,-0.47133 0.03025,-0.74859c0.02018,-0.2823 0.04787,-0.57216 0.08318,-0.86957c0.04031,-0.29742 0.08568,-0.58475 0.13611,-0.86201l0.15123,0.12855c-0.25709,0.13107 -0.57468,0.1966 -0.95275,0.1966c-0.23191,0 -0.41081,-0.04285 -0.53687,-0.12855c-0.12605,-0.0857 -0.18904,-0.21929 -0.18904,-0.40076c0,-0.1966 0.07055,-0.34783 0.21172,-0.45369c0.14117,-0.1109 0.33021,-0.16635 0.56712,-0.16635c0.15629,0 0.30246,0.01008 0.43857,0.03025c0.14117,0.01512 0.26466,0.03529 0.37052,0.06049zM215.42966,177.77313c-0.09074,0 -0.16378,-0.03025 -0.21929,-0.09074c-0.05543,-0.06553 -0.10079,-0.16888 -0.13611,-0.31002c-0.03524,-0.16131 -0.06805,-0.41337 -0.0983,-0.75615c-0.03025,-0.34783 -0.04537,-0.73598 -0.04537,-1.16447c0,-0.46377 0.01262,-0.91494 0.03781,-1.35351c0.03025,-0.44361 0.07312,-0.83428 0.12855,-1.17203c0.04038,-0.22181 0.0983,-0.38564 0.17392,-0.4915c0.08068,-0.1109 0.19161,-0.16635 0.33271,-0.16635c0.09074,0 0.17142,0.03025 0.24197,0.09074c0.07063,0.06049 0.12356,0.16888 0.15879,0.32515c0.04038,0.15627 0.06049,0.37808 0.06049,0.66541c0,0.14115 -0.00499,0.30246 -0.01512,0.48394c-0.01006,0.17644 -0.02518,0.37303 -0.04537,0.5898h0.03025c0.40334,-0.55451 0.75872,-0.9956 1.06617,-1.32327c0.30752,-0.33271 0.57724,-0.57216 0.80908,-0.71834c0.23698,-0.14619 0.44363,-0.21929 0.62005,-0.21929c0.14117,0 0.24703,0.04537 0.31759,0.13611c0.07562,0.09074 0.11342,0.20164 0.11342,0.33271c0,0.27726 -0.20915,0.60997 -0.6276,0.99812c-0.41331,0.38815 -1.0813,0.85445 -2.0038,1.39888l0.06049,-0.14367c0.79653,0.50411 1.39888,0.95023 1.80721,1.33839c0.40833,0.38312 0.61249,0.72339 0.61249,1.0208c0,0.13107 -0.0428,0.23945 -0.12855,0.32515c-0.0806,0.08066 -0.20159,0.12099 -0.36296,0.12099c-0.20159,0 -0.41589,-0.06805 -0.64272,-0.20416c-0.22685,-0.14115 -0.47887,-0.37556 -0.75615,-0.70322c-0.27222,-0.33271 -0.58224,-0.78388 -0.93006,-1.35351h-0.03025c0.01013,0.11594 0.0177,0.23693 0.02268,0.36296c0.00506,0.12099 0.00756,0.24197 0.00756,0.36296c0,0.57972 -0.04031,0.9956 -0.12099,1.24765c-0.0806,0.24701 -0.22685,0.37052 -0.43857,0.37052zM221.72122,177.75801c-0.55956,0 -1.00568,-0.08318 -1.33839,-0.24953c-0.33271,-0.16635 -0.57218,-0.4058 -0.71834,-0.71834c-0.14616,-0.31255 -0.21929,-0.68558 -0.21929,-1.1191c0,-0.54947 0.10079,-1.01576 0.30246,-1.39888c0.20665,-0.38815 0.489,-0.68558 0.84689,-0.89226c0.36296,-0.20668 0.77377,-0.31002 1.23253,-0.31002c0.53936,0 0.93514,0.12603 1.18716,0.37808c0.25202,0.24701 0.37808,0.57216 0.37808,0.97543c0,0.32263 -0.08568,0.60241 -0.25709,0.83932c-0.16635,0.23189 -0.39826,0.41084 -0.69565,0.53687c-0.29739,0.12603 -0.64023,0.18904 -1.02836,0.18904c-0.21679,0 -0.42594,-0.02773 -0.6276,-0.08318c-0.20166,-0.05545 -0.38314,-0.13107 -0.54443,-0.22685l0.18148,-0.33271c-0.01512,0.12099 -0.02268,0.24197 -0.02268,0.36296c0,0.35287 0.11092,0.60744 0.33271,0.76371c0.22178,0.15123 0.53687,0.22685 0.94519,0.22685c0.31759,0 0.57218,-0.02773 0.76371,-0.08318c0.19153,-0.05545 0.35289,-0.10838 0.48394,-0.15879c0.13104,-0.05545 0.25958,-0.08318 0.38564,-0.08318c0.07055,0 0.13361,0.02016 0.18904,0.06049c0.06049,0.03529 0.10835,0.08822 0.14367,0.15879c0.04031,0.07057 0.06049,0.15627 0.06049,0.25709c0,0.15123 -0.07562,0.29742 -0.22685,0.43857c-0.15123,0.13611 -0.37558,0.24953 -0.67297,0.34027c-0.2924,0.0857 -0.65279,0.12855 -1.0813,0.12855zM221.28265,175.28539c0.35788,0 0.64522,-0.07562 0.86201,-0.22685c0.21679,-0.15123 0.32515,-0.33775 0.32515,-0.55956c0,-0.17644 -0.06049,-0.32011 -0.18148,-0.43101c-0.11591,-0.11594 -0.29996,-0.17392 -0.552,-0.17392c-0.2369,0 -0.4512,0.04537 -0.64272,0.13611c-0.18654,0.0857 -0.33271,0.19912 -0.43857,0.34027c-0.10586,0.14115 -0.15879,0.2949 -0.15879,0.46126c0,0.14619 0.06805,0.25961 0.20416,0.34027c0.14117,0.07562 0.3352,0.11342 0.58224,0.11342zM226.2799,172.96401c0.44871,0 0.77127,0.06553 0.96787,0.1966c0.1966,0.13107 0.2949,0.29994 0.2949,0.50663c0,0.12099 -0.0428,0.22181 -0.12855,0.30246c-0.0806,0.07562 -0.1966,0.11342 -0.34783,0.11342c-0.15622,0 -0.32008,-0.02268 -0.4915,-0.06805c-0.16635,-0.04537 -0.36038,-0.06805 -0.58224,-0.06805c-0.25709,0 -0.44862,0.05041 -0.57468,0.15123c-0.12597,0.10082 -0.18904,0.22937 -0.18904,0.38564c0,0.14619 0.0555,0.26213 0.16635,0.34783c0.116,0.08066 0.33528,0.14115 0.65785,0.18148c0.35797,0.04033 0.65286,0.10586 0.88469,0.1966c0.23698,0.0857 0.41339,0.21677 0.52931,0.3932c0.116,0.1714 0.17392,0.40833 0.17392,0.71078c0,0.47889 -0.16884,0.83428 -0.50663,1.06617c-0.3377,0.23189 -0.80402,0.34783 -1.39888,0.34783c-0.37808,0 -0.67797,-0.03025 -0.89982,-0.09074c-0.22178,-0.06049 -0.38307,-0.14619 -0.48394,-0.25709c-0.09573,-0.1109 -0.14367,-0.24197 -0.14367,-0.3932c0,-0.13107 0.04287,-0.23189 0.12855,-0.30246c0.09074,-0.07562 0.1966,-0.11342 0.31759,-0.11342c0.116,0 0.23947,0.01512 0.37052,0.04537c0.13112,0.02521 0.26972,0.05293 0.41589,0.08318c0.14624,0.03025 0.29747,0.04537 0.45369,0.04537c0.50413,0 0.75615,-0.15627 0.75615,-0.46882c0,-0.10586 -0.02518,-0.19156 -0.07562,-0.25709c-0.05036,-0.06553 -0.1411,-0.11846 -0.27222,-0.15879c-0.13104,-0.04537 -0.32258,-0.08066 -0.57468,-0.10586c-0.30246,-0.03025 -0.56455,-0.08066 -0.78639,-0.15123c-0.22178,-0.07562 -0.3932,-0.1966 -0.51419,-0.36296c-0.12099,-0.1714 -0.18148,-0.4058 -0.18148,-0.70322c0,-0.46882 0.17649,-0.84689 0.52931,-1.13423c0.35289,-0.29238 0.85445,-0.43857 1.50474,-0.43857zM231.71043,177.77313c-0.17134,0 -0.28983,-0.06553 -0.35539,-0.1966c-0.06049,-0.13611 -0.09573,-0.35034 -0.10586,-0.64272l0.07562,0.03781c-0.28227,0.54947 -0.81664,0.8242 -1.60304,0.8242c-0.35788,0 -0.65529,-0.06301 -0.89226,-0.18904c-0.2369,-0.13107 -0.41331,-0.30246 -0.52931,-0.51419c-0.11085,-0.21677 -0.16635,-0.45117 -0.16635,-0.70322c0,-0.43352 0.15123,-0.77632 0.45369,-1.02836c0.30246,-0.25709 0.70322,-0.38564 1.20228,-0.38564c0.32772,0 0.61249,0.04789 0.85445,0.14367c0.24197,0.09578 0.44871,0.22937 0.62005,0.40076l-0.12855,-0.01512c-0.03524,-0.50914 -0.14616,-0.87209 -0.33271,-1.08886c-0.18148,-0.22181 -0.44106,-0.33271 -0.77883,-0.33271c-0.1966,0 -0.37808,0.03025 -0.54443,0.09074c-0.16635,0.06049 -0.32008,0.12351 -0.46126,0.18904c-0.13611,0.06049 -0.26466,0.09074 -0.38564,0.09074c-0.12099,0 -0.21671,-0.04033 -0.28734,-0.12099c-0.06548,-0.08066 -0.0983,-0.184 -0.0983,-0.31002c0,-0.18148 0.08575,-0.35287 0.25709,-0.51419c0.17649,-0.16131 0.40833,-0.29238 0.69565,-0.3932c0.28734,-0.10082 0.59993,-0.15123 0.93763,-0.15123c0.40833,0 0.75872,0.0983 1.05105,0.2949c0.2924,0.1966 0.51419,0.48394 0.66541,0.86201c0.13112,0.32263 0.22435,0.68305 0.27978,1.0813c0.0555,0.39824 0.08318,0.8242 0.08318,1.2779c0,0.34278 -0.01762,0.60744 -0.05293,0.79396c-0.03524,0.18652 -0.09074,0.31759 -0.16635,0.3932c-0.07055,0.07057 -0.16635,0.10586 -0.28734,0.10586zM230.03935,176.92624c0.16635,0 0.33528,-0.02268 0.50663,-0.06805c0.17142,-0.05041 0.31509,-0.12351 0.43101,-0.21929c0.116,-0.09578 0.17392,-0.21424 0.17392,-0.35539c0,-0.12099 -0.05036,-0.21929 -0.15123,-0.2949c-0.09573,-0.08066 -0.22428,-0.14115 -0.38564,-0.18148c-0.15622,-0.04033 -0.32515,-0.06049 -0.50663,-0.06049c-0.30745,0 -0.54186,0.05293 -0.70322,0.15879c-0.15622,0.10586 -0.23441,0.24701 -0.23441,0.42345c0,0.19156 0.07312,0.34027 0.21929,0.44613c0.15123,0.10082 0.36802,0.15123 0.65029,0.15123zM233.95606,177.71264c-0.15629,0 -0.27978,-0.03529 -0.37052,-0.10586c-0.09074,-0.07562 -0.16385,-0.19912 -0.21929,-0.37052c-0.07562,-0.25205 -0.13361,-0.56963 -0.17392,-0.95275c-0.03531,-0.38815 -0.05293,-0.86453 -0.05293,-1.42913c0,-0.34783 0.01262,-0.69565 0.03781,-1.04349c0.03025,-0.35287 0.06805,-0.67297 0.11342,-0.96031c0.04537,-0.29238 0.09323,-0.51923 0.14367,-0.68053c0.05543,-0.1714 0.12099,-0.28986 0.1966,-0.35539c0.07562,-0.06553 0.16128,-0.0983 0.25709,-0.0983c0.10079,0 0.18148,0.03529 0.24197,0.10586c0.06049,0.06553 0.10835,0.184 0.14367,0.35539c0.03025,0.16635 0.05293,0.37052 0.06805,0.61249c0.02018,0.24197 0.03025,0.50157 0.03025,0.77883c0,0.37808 -0.01762,0.77632 -0.05293,1.19472c-0.03531,0.4184 -0.08318,0.82925 -0.14367,1.23253c-0.05543,0.40327 -0.12347,0.77379 -0.20416,1.11154l-0.21172,-0.10586c0.13104,-0.16131 0.27978,-0.28734 0.44613,-0.37808c0.17142,-0.09074 0.32764,-0.13611 0.46882,-0.13611c0.11591,0 0.20416,0.03277 0.26466,0.0983c0.06555,0.06049 0.0983,0.15627 0.0983,0.28734c0,0.13107 -0.05799,0.26213 -0.17392,0.3932c-0.11092,0.13107 -0.24953,0.23945 -0.41589,0.32515c-0.16635,0.08066 -0.33021,0.12099 -0.4915,0.12099zM239.02832,177.77313c-0.17142,0 -0.28991,-0.06553 -0.35539,-0.1966c-0.06049,-0.13611 -0.0958,-0.35034 -0.10586,-0.64272l0.07562,0.03781c-0.28235,0.54947 -0.81664,0.8242 -1.60304,0.8242c-0.35797,0 -0.65536,-0.06301 -0.89226,-0.18904c-0.23698,-0.13107 -0.41339,-0.30246 -0.52931,-0.51419c-0.11092,-0.21677 -0.16635,-0.45117 -0.16635,-0.70322c0,-0.43352 0.15123,-0.77632 0.45369,-1.02836c0.30246,-0.25709 0.70322,-0.38564 1.20228,-0.38564c0.32764,0 0.61249,0.04789 0.85445,0.14367c0.24197,0.09578 0.44862,0.22937 0.62005,0.40076l-0.12855,-0.01512c-0.03531,-0.50914 -0.14624,-0.87209 -0.33271,-1.08886c-0.18148,-0.22181 -0.44114,-0.33271 -0.77883,-0.33271c-0.1966,0 -0.37808,0.03025 -0.54443,0.09074c-0.16635,0.06049 -0.32016,0.12351 -0.46126,0.18904c-0.13611,0.06049 -0.26466,0.09074 -0.38564,0.09074c-0.12099,0 -0.21679,-0.04033 -0.28734,-0.12099c-0.06555,-0.08066 -0.0983,-0.184 -0.0983,-0.31002c0,-0.18148 0.08568,-0.35287 0.25709,-0.51419c0.17641,-0.16131 0.40833,-0.29238 0.69565,-0.3932c0.28734,-0.10082 0.59985,-0.15123 0.93763,-0.15123c0.40833,0 0.75865,0.0983 1.05105,0.2949c0.29233,0.1966 0.51419,0.48394 0.66541,0.86201c0.13104,0.32263 0.22428,0.68305 0.27978,1.0813c0.05543,0.39824 0.08318,0.8242 0.08318,1.2779c0,0.34278 -0.0177,0.60744 -0.05293,0.79396c-0.03531,0.18652 -0.09074,0.31759 -0.16635,0.3932c-0.07063,0.07057 -0.16635,0.10586 -0.28734,0.10586zM237.35722,176.92624c0.16635,0 0.3352,-0.02268 0.50663,-0.06805c0.17134,-0.05041 0.31501,-0.12351 0.43101,-0.21929c0.11591,-0.09578 0.17392,-0.21424 0.17392,-0.35539c0,-0.12099 -0.05043,-0.21929 -0.15123,-0.2949c-0.0958,-0.08066 -0.22435,-0.14115 -0.38564,-0.18148c-0.15629,-0.04033 -0.32515,-0.06049 -0.50663,-0.06049c-0.30752,0 -0.54193,0.05293 -0.70322,0.15879c-0.15629,0.10586 -0.23441,0.24701 -0.23441,0.42345c0,0.19156 0.07304,0.34027 0.21929,0.44613c0.15123,0.10082 0.36795,0.15123 0.65029,0.15123zM241.23606,171.7088c0.16137,0 0.27222,0.06301 0.33271,0.18904c0.06555,0.12603 0.0983,0.31507 0.0983,0.56712c0,0.21677 -0.01255,0.48898 -0.03781,0.81664c-0.02518,0.32766 -0.05792,0.64272 -0.0983,0.94519h-0.04537c0.16635,-0.31255 0.38065,-0.5646 0.64272,-0.75615c0.26216,-0.19156 0.53943,-0.28734 0.83176,-0.28734c0.25709,0 0.4865,0.06301 0.68809,0.18904c0.20166,0.12099 0.36553,0.31255 0.4915,0.57468c0.116,0.23693 0.20166,0.51923 0.25709,0.84689c0.0555,0.32263 0.08318,0.63012 0.08318,0.9225c0,0.46882 -0.03275,0.84185 -0.0983,1.1191c-0.06049,0.27726 -0.14616,0.47889 -0.25709,0.60493c-0.11085,0.12099 -0.24197,0.18148 -0.3932,0.18148c-0.31759,0 -0.47638,-0.25961 -0.47638,-0.77883c0,-0.25205 0.01262,-0.51167 0.03781,-0.77883c0.03025,-0.26718 0.04537,-0.51167 0.04537,-0.73346c0,-0.37808 -0.06049,-0.66037 -0.18148,-0.84689c-0.11591,-0.19156 -0.28477,-0.28734 -0.50663,-0.28734c-0.27721,0 -0.50155,0.12351 -0.67297,0.37052c-0.17134,0.24701 -0.25709,0.58728 -0.25709,1.0208c0,0.22685 0.02018,0.47638 0.06049,0.74859c0.04038,0.26718 0.06049,0.51167 0.06049,0.73346c0,0.24701 -0.04787,0.42596 -0.14367,0.53687c-0.09074,0.10586 -0.20915,0.15879 -0.35539,0.15879c-0.11085,0 -0.20915,-0.02268 -0.2949,-0.06805c-0.0806,-0.04033 -0.15123,-0.12351 -0.21172,-0.24953c-0.05543,-0.13107 -0.10329,-0.32515 -0.14367,-0.58224c-0.03025,-0.1966 -0.06049,-0.42596 -0.09074,-0.68809c-0.03025,-0.26213 -0.05543,-0.53687 -0.07562,-0.8242c-0.02011,-0.28734 -0.03781,-0.56712 -0.05293,-0.83932c-0.01006,-0.27726 -0.01512,-0.52931 -0.01512,-0.75615c0,-0.71583 0.06805,-1.23505 0.20416,-1.55768c0.13611,-0.32767 0.32772,-0.4915 0.57468,-0.4915zM248.7091,177.77313c-0.17142,0 -0.28983,-0.06553 -0.35539,-0.1966c-0.06049,-0.13611 -0.0958,-0.35034 -0.10586,-0.64272l0.07562,0.03781c-0.28227,0.54947 -0.81664,0.8242 -1.60304,0.8242c-0.35788,0 -0.65536,-0.06301 -0.89226,-0.18904c-0.2369,-0.13107 -0.41339,-0.30246 -0.52931,-0.51419c-0.11092,-0.21677 -0.16635,-0.45117 -0.16635,-0.70322c0,-0.43352 0.15123,-0.77632 0.45369,-1.02836c0.30246,-0.25709 0.70322,-0.38564 1.20228,-0.38564c0.32764,0 0.61249,0.04789 0.85445,0.14367c0.24197,0.09578 0.44862,0.22937 0.62005,0.40076l-0.12855,-0.01512c-0.03531,-0.50914 -0.14616,-0.87209 -0.33271,-1.08886c-0.18148,-0.22181 -0.44106,-0.33271 -0.77883,-0.33271c-0.1966,0 -0.37808,0.03025 -0.54443,0.09074c-0.16635,0.06049 -0.32008,0.12351 -0.46126,0.18904c-0.13611,0.06049 -0.26466,0.09074 -0.38564,0.09074c-0.12099,0 -0.21679,-0.04033 -0.28734,-0.12099c-0.06555,-0.08066 -0.0983,-0.184 -0.0983,-0.31002c0,-0.18148 0.08568,-0.35287 0.25709,-0.51419c0.17641,-0.16131 0.40833,-0.29238 0.69565,-0.3932c0.28734,-0.10082 0.59985,-0.15123 0.93763,-0.15123c0.40833,0 0.75865,0.0983 1.05105,0.2949c0.2924,0.1966 0.51419,0.48394 0.66541,0.86201c0.13104,0.32263 0.22435,0.68305 0.27978,1.0813c0.05543,0.39824 0.08318,0.8242 0.08318,1.2779c0,0.34278 -0.01762,0.60744 -0.05293,0.79396c-0.03531,0.18652 -0.09074,0.31759 -0.16635,0.3932c-0.07055,0.07057 -0.16635,0.10586 -0.28734,0.10586zM247.03802,176.92624c0.16635,0 0.3352,-0.02268 0.50663,-0.06805c0.17142,-0.05041 0.31509,-0.12351 0.43101,-0.21929c0.11591,-0.09578 0.17392,-0.21424 0.17392,-0.35539c0,-0.12099 -0.05043,-0.21929 -0.15123,-0.2949c-0.0958,-0.08066 -0.22435,-0.14115 -0.38564,-0.18148c-0.15629,-0.04033 -0.32515,-0.06049 -0.50663,-0.06049c-0.30752,0 -0.54193,0.05293 -0.70322,0.15879c-0.15629,0.10586 -0.23441,0.24701 -0.23441,0.42345c0,0.19156 0.07312,0.34027 0.21929,0.44613c0.15123,0.10082 0.36802,0.15123 0.65029,0.15123zM250.90936,172.99425c0.16128,0 0.26964,0.06553 0.32515,0.1966c0.06049,0.13107 0.09074,0.32515 0.09074,0.58224c0,0.06049 -0.00506,0.12603 -0.01512,0.1966c-0.00506,0.06553 -0.01512,0.12603 -0.03025,0.18148l-0.01512,-0.15123c0.12099,-0.32766 0.30745,-0.58224 0.55956,-0.76371c0.25202,-0.18652 0.51918,-0.27978 0.80152,-0.27978c0.31251,0 0.57211,0.08822 0.77914,0.26466c0.21172,0.17644 0.36749,0.42345 0.46882,0.74102c0.10586,0.31759 0.15879,0.69314 0.15879,1.12667c0,0.26718 -0.01285,0.53182 -0.03781,0.79396c-0.02041,0.25709 -0.05066,0.49401 -0.09074,0.71078c-0.03554,0.21172 -0.07562,0.38564 -0.12099,0.52175c-0.06049,0.1714 -0.13913,0.29994 -0.23441,0.38564c-0.09603,0.08066 -0.20953,0.12099 -0.34057,0.12099c-0.13112,0 -0.23191,-0.04789 -0.30246,-0.14367c-0.07063,-0.09578 -0.10586,-0.22433 -0.10586,-0.38564c0,-0.1714 0.01255,-0.37808 0.03781,-0.62005c0.02518,-0.24701 0.04787,-0.49654 0.06805,-0.74859c0.02518,-0.25709 0.03781,-0.48898 0.03781,-0.69565c0,-0.70574 -0.23191,-1.05861 -0.69565,-1.05861c-0.24703,0 -0.45369,0.1109 -0.62005,0.33271c-0.16635,0.21677 -0.27728,0.52679 -0.33271,0.93006c-0.01512,0.13611 -0.02268,0.30498 -0.02268,0.50663c0,0.20164 0,0.40327 0,0.60493c0.00499,0.1966 0,0.36296 -0.01512,0.49906c-0.02018,0.30246 -0.07819,0.51923 -0.17392,0.65029c-0.09074,0.13107 -0.21679,0.1966 -0.37808,0.1966c-0.18654,0 -0.32772,-0.0857 -0.42345,-0.25709c-0.0958,-0.17644 -0.14367,-0.47133 -0.14367,-0.88469c0,-0.21172 0.00499,-0.44864 0.01512,-0.71078c0.01006,-0.26213 0.02268,-0.52426 0.03781,-0.78639c0.02011,-0.26718 0.0428,-0.50914 0.06805,-0.7259c0.05036,-0.40833 0.12347,-0.73095 0.21929,-0.96787c0.09573,-0.24197 0.2394,-0.36296 0.43101,-0.36296zM254.73352,177.16065c0,-0.16635 0.03478,-0.29994 0.10586,-0.40076c0.07033,-0.10586 0.15879,-0.184 0.26466,-0.23441c0.11039,-0.05041 0.22685,-0.07562 0.34783,-0.07562c0.20113,0 0.35539,0.05797 0.46126,0.17392c0.11039,0.11594 0.16635,0.27222 0.16635,0.46882c0,0.24197 -0.06805,0.4184 -0.20416,0.52931c-0.13611,0.10586 -0.30246,0.15879 -0.49906,0.15879c-0.20718,0 -0.36597,-0.05545 -0.47638,-0.16635c-0.11115,-0.11594 -0.16635,-0.26718 -0.16635,-0.45369zM255.48967,172.07931c0.20113,0 0.34253,0.10334 0.42345,0.31002c0.08545,0.20164 0.12855,0.4915 0.12855,0.86957c0,0.35287 -0.01815,0.70827 -0.05293,1.06617c-0.03554,0.3579 -0.08318,0.65785 -0.14367,0.89982c-0.06578,0.26718 -0.13913,0.46377 -0.21929,0.5898c-0.08091,0.12099 -0.18677,0.18148 -0.31759,0.18148c-0.19206,0 -0.32515,-0.17896 -0.40076,-0.53687c-0.07562,-0.3579 -0.11342,-0.94015 -0.11342,-1.74671c0,-0.40327 0.01966,-0.72339 0.06049,-0.96031c0.04008,-0.23693 0.11039,-0.40833 0.21172,-0.51419c0.10057,-0.10586 0.24197,-0.15879 0.42345,-0.15879zM262.21488,177.75801c-0.10586,0 -0.20189,-0.02773 -0.28734,-0.08318c-0.08091,-0.05545 -0.14367,-0.15123 -0.18904,-0.28734c-0.04537,-0.14115 -0.06805,-0.33522 -0.06805,-0.58224c0,-0.3579 0.00756,-0.74102 0.02268,-1.14935c0.01512,-0.41337 0.03478,-0.82925 0.06049,-1.24765c0.03025,-0.42345 0.05746,-0.83176 0.08318,-1.22497h-0.03025c-0.17693,0.73095 -0.36597,1.28546 -0.56712,1.66354c-0.20189,0.37303 -0.42647,0.55956 -0.67297,0.55956c-0.15123,0 -0.29263,-0.06805 -0.42345,-0.20416c-0.12628,-0.14115 -0.24953,-0.37556 -0.37052,-0.70322c-0.11645,-0.33271 -0.24499,-0.78388 -0.38564,-1.35351h-0.03025c0.01512,0.26718 0.03025,0.552 0.04537,0.85445c0.01512,0.30246 0.02722,0.60744 0.03781,0.91494c0.01512,0.3075 0.02496,0.59987 0.03025,0.87713c0.00983,0.27726 0.01512,0.52426 0.01512,0.74102c0,0.18652 -0.01815,0.3579 -0.05293,0.51419c-0.03025,0.15627 -0.08847,0.27978 -0.17392,0.37052c-0.08091,0.09074 -0.19433,0.13611 -0.34027,0.13611c-0.1966,0 -0.34329,-0.07814 -0.43857,-0.23441c-0.09603,-0.16131 -0.14367,-0.42596 -0.14367,-0.79396c0,-0.21677 0.00453,-0.46882 0.01512,-0.75615c0.01512,-0.29238 0.03252,-0.59231 0.05293,-0.89982c0.01966,-0.31255 0.04537,-0.61249 0.07562,-0.89982c0.03025,-0.29238 0.06276,-0.54694 0.0983,-0.76371c0.06049,-0.34278 0.14367,-0.58475 0.24953,-0.7259c0.10586,-0.14619 0.2465,-0.21929 0.42345,-0.21929c0.14594,0 0.2896,0.06553 0.43101,0.1966c0.14064,0.12603 0.28734,0.34278 0.43857,0.65029c0.15123,0.30246 0.31002,0.72086 0.47638,1.25521h0.03025c0.16106,-0.54443 0.31456,-0.98047 0.46126,-1.30814c0.14594,-0.33271 0.28734,-0.57216 0.42345,-0.71834c0.13611,-0.14619 0.26466,-0.21929 0.38564,-0.21929c0.19131,0 0.33724,0.07562 0.43857,0.22685c0.10057,0.14619 0.18375,0.35539 0.24953,0.6276c0.07562,0.31255 0.13611,0.67802 0.18148,1.09642c0.04537,0.4184 0.07789,0.84689 0.0983,1.28546c0.02496,0.43352 0.03781,0.83932 0.03781,1.2174c0,0.43352 -0.06352,0.74102 -0.18904,0.9225c-0.12628,0.17644 -0.29263,0.26466 -0.49906,0.26466zM265.70301,177.7202c-0.40302,0 -0.75615,-0.08822 -1.05861,-0.26466c-0.29716,-0.18148 -0.52931,-0.43857 -0.69565,-0.77127c-0.16106,-0.33271 -0.24197,-0.72842 -0.24197,-1.18716c0,-0.47889 0.08318,-0.89731 0.24953,-1.25521c0.16635,-0.3579 0.40076,-0.63768 0.70322,-0.83932c0.30775,-0.20164 0.66315,-0.30246 1.06617,-0.30246c0.43327,0 0.80908,0.0983 1.12667,0.2949c0.31759,0.19156 0.56485,0.46126 0.74102,0.80908c0.17619,0.34783 0.26466,0.75364 0.26466,1.2174c0,0.47386 -0.08847,0.88218 -0.26466,1.22497c-0.17619,0.34278 -0.42571,0.60744 -0.74859,0.79396c-0.32288,0.18652 -0.70322,0.27978 -1.14179,0.27978zM265.80888,176.6994c0.31229,0 0.55956,-0.12351 0.74102,-0.37052c0.18677,-0.25205 0.27978,-0.58475 0.27978,-0.99812c0,-0.4184 -0.09301,-0.75111 -0.27978,-0.99812c-0.18148,-0.24701 -0.42874,-0.37052 -0.74102,-0.37052c-0.32288,0 -0.57694,0.12351 -0.76371,0.37052c-0.18677,0.24701 -0.27978,0.57972 -0.27978,0.99812c0,0.41337 0.09301,0.74608 0.27978,0.99812c0.18677,0.24701 0.44083,0.37052 0.76371,0.37052zM269.39984,171.7088c0.16106,0 0.27222,0.06301 0.33271,0.18904c0.06578,0.12603 0.0983,0.31507 0.0983,0.56712c0,0.21677 -0.01285,0.48898 -0.03781,0.81664c-0.02496,0.32766 -0.05822,0.64272 -0.0983,0.94519h-0.04537c0.16635,-0.31255 0.38034,-0.5646 0.64272,-0.75615c0.26238,-0.19156 0.53913,-0.28734 0.83176,-0.28734c0.25709,0 0.4862,0.06301 0.68809,0.18904c0.20189,0.12099 0.36522,0.31255 0.4915,0.57468c0.1157,0.23693 0.20189,0.51923 0.25709,0.84689c0.0552,0.32263 0.08318,0.63012 0.08318,0.9225c0,0.46882 -0.03252,0.84185 -0.0983,1.1191c-0.06049,0.27726 -0.14594,0.47889 -0.25709,0.60493c-0.11115,0.12099 -0.24197,0.18148 -0.3932,0.18148c-0.31759,0 -0.47638,-0.25961 -0.47638,-0.77883c0,-0.25205 0.01285,-0.51167 0.03781,-0.77883c0.03025,-0.26718 0.04537,-0.51167 0.04537,-0.73346c0,-0.37808 -0.06049,-0.66037 -0.18148,-0.84689c-0.1157,-0.19156 -0.28507,-0.28734 -0.50663,-0.28734c-0.27751,0 -0.50133,0.12351 -0.67297,0.37052c-0.17164,0.24701 -0.25709,0.58728 -0.25709,1.0208c0,0.22685 0.02041,0.47638 0.06049,0.74859c0.04008,0.26718 0.06049,0.51167 0.06049,0.73346c0,0.24701 -0.04764,0.42596 -0.14367,0.53687c-0.09074,0.10586 -0.20945,0.15879 -0.35539,0.15879c-0.11115,0 -0.20945,-0.02268 -0.2949,-0.06805c-0.08091,-0.04033 -0.15123,-0.12351 -0.21172,-0.24953c-0.0552,-0.13107 -0.10359,-0.32515 -0.14367,-0.58224c-0.03025,-0.1966 -0.06049,-0.42596 -0.09074,-0.68809c-0.03025,-0.26213 -0.0552,-0.53687 -0.07562,-0.8242c-0.02041,-0.28734 -0.03781,-0.56712 -0.05293,-0.83932c-0.00983,-0.27726 -0.01512,-0.52931 -0.01512,-0.75615c0,-0.71583 0.06805,-1.23505 0.20416,-1.55768c0.13611,-0.32767 0.32741,-0.4915 0.57468,-0.4915zM275.40595,177.7202c-0.40302,0 -0.75615,-0.08822 -1.05861,-0.26466c-0.29716,-0.18148 -0.52931,-0.43857 -0.69565,-0.77127c-0.16106,-0.33271 -0.24197,-0.72842 -0.24197,-1.18716c0,-0.47889 0.08318,-0.89731 0.24953,-1.25521c0.16635,-0.3579 0.40076,-0.63768 0.70322,-0.83932c0.30775,-0.20164 0.66315,-0.30246 1.06617,-0.30246c0.43327,0 0.80908,0.0983 1.12667,0.2949c0.31759,0.19156 0.56485,0.46126 0.74102,0.80908c0.17619,0.34783 0.26466,0.75364 0.26466,1.2174c0,0.47386 -0.08847,0.88218 -0.26466,1.22497c-0.17619,0.34278 -0.42571,0.60744 -0.74859,0.79396c-0.32288,0.18652 -0.70322,0.27978 -1.14179,0.27978zM275.51181,176.6994c0.31229,0 0.55956,-0.12351 0.74102,-0.37052c0.18677,-0.25205 0.27978,-0.58475 0.27978,-0.99812c0,-0.4184 -0.09301,-0.75111 -0.27978,-0.99812c-0.18148,-0.24701 -0.42874,-0.37052 -0.74102,-0.37052c-0.32288,0 -0.57694,0.12351 -0.76371,0.37052c-0.18677,0.24701 -0.27978,0.57972 -0.27978,0.99812c0,0.41337 0.09301,0.74608 0.27978,0.99812c0.18677,0.24701 0.44083,0.37052 0.76371,0.37052zM279.09521,172.99425c0.16106,0 0.26995,0.06553 0.32515,0.1966c0.06049,0.13107 0.09074,0.32515 0.09074,0.58224c0,0.06049 -0.00529,0.12603 -0.01512,0.1966c-0.00529,0.06553 -0.01512,0.12603 -0.03025,0.18148l-0.01512,-0.15123c0.12099,-0.32766 0.30775,-0.58224 0.55956,-0.76371c0.25179,-0.18652 0.51948,-0.27978 0.80152,-0.27978c0.31229,0 0.57241,0.08822 0.77883,0.26466c0.21172,0.17644 0.36825,0.42345 0.46882,0.74102c0.10586,0.31759 0.15879,0.69314 0.15879,1.12667c0,0.26718 -0.01285,0.53182 -0.03781,0.79396c-0.02041,0.25709 -0.05066,0.49401 -0.09074,0.71078c-0.03554,0.21172 -0.07562,0.38564 -0.12099,0.52175c-0.06049,0.1714 -0.13838,0.29994 -0.23441,0.38564c-0.09603,0.08066 -0.20945,0.12099 -0.34027,0.12099c-0.13082,0 -0.23214,-0.04789 -0.30246,-0.14367c-0.07033,-0.09578 -0.10586,-0.22433 -0.10586,-0.38564c0,-0.1714 0.01285,-0.37808 0.03781,-0.62005c0.02496,-0.24701 0.04764,-0.49654 0.06805,-0.74859c0.02496,-0.25709 0.03781,-0.48898 0.03781,-0.69565c0,-0.70574 -0.23214,-1.05861 -0.69565,-1.05861c-0.24726,0 -0.45369,0.1109 -0.62005,0.33271c-0.16635,0.21677 -0.27751,0.52679 -0.33271,0.93006c-0.01512,0.13611 -0.02268,0.30498 -0.02268,0.50663c0,0.20164 0,0.40327 0,0.60493c0.00529,0.1966 0,0.36296 -0.01512,0.49906c-0.02041,0.30246 -0.07789,0.51923 -0.17392,0.65029c-0.09074,0.13107 -0.21701,0.1966 -0.37808,0.1966c-0.18677,0 -0.32741,-0.0857 -0.42345,-0.25709c-0.09603,-0.17644 -0.14367,-0.47133 -0.14367,-0.88469c0,-0.21172 0.00529,-0.44864 0.01512,-0.71078c0.00983,-0.26213 0.02268,-0.52426 0.03781,-0.78639c0.02041,-0.26718 0.0431,-0.50914 0.06805,-0.7259c0.05066,-0.40833 0.12326,-0.73095 0.21929,-0.96787c0.09603,-0.24197 0.2397,-0.36296 0.43101,-0.36296zM286.5123,177.78069c-0.69565,0 -1.20757,-0.18148 -1.53499,-0.54443c-0.32288,-0.36296 -0.48394,-0.86706 -0.48394,-1.51231c0,-0.49906 0.09603,-0.94015 0.28734,-1.32327c0.1966,-0.38815 0.47638,-0.69061 0.83932,-0.90738c0.36825,-0.22181 0.80682,-0.33271 1.3157,-0.33271c0.45898,0 0.80682,0.07562 1.04349,0.22685c0.24197,0.14619 0.36296,0.33522 0.36296,0.56712c0,0.14115 -0.04537,0.25457 -0.13611,0.34027c-0.08545,0.08066 -0.214,0.12099 -0.38564,0.12099c-0.09603,0 -0.19433,-0.01512 -0.2949,-0.04537c-0.09603,-0.03025 -0.20189,-0.06049 -0.31759,-0.09074c-0.1157,-0.03025 -0.25482,-0.04537 -0.41589,-0.04537c-0.41815,0 -0.73346,0.1109 -0.94519,0.33271c-0.20643,0.22181 -0.31002,0.54191 -0.31002,0.96031c0,0.39824 0.10057,0.68809 0.30246,0.86957c0.20189,0.17644 0.47638,0.26466 0.8242,0.26466c0.17164,0 0.31985,-0.01764 0.44613,-0.05293c0.13082,-0.04033 0.25179,-0.07814 0.36296,-0.11342c0.1157,-0.04033 0.23214,-0.06049 0.34783,-0.06049c0.1157,0 0.21172,0.03781 0.28734,0.11342c0.07562,0.07057 0.11342,0.17392 0.11342,0.31002c0,0.15627 -0.06276,0.30498 -0.18904,0.44613c-0.12628,0.14115 -0.31531,0.25709 -0.56712,0.34783c-0.25179,0.0857 -0.56938,0.12855 -0.95275,0.12855zM290.67643,177.7202c-0.40302,0 -0.75615,-0.08822 -1.05861,-0.26466c-0.29716,-0.18148 -0.52931,-0.43857 -0.69565,-0.77127c-0.16106,-0.33271 -0.24197,-0.72842 -0.24197,-1.18716c0,-0.47889 0.08318,-0.89731 0.24953,-1.25521c0.16635,-0.3579 0.40076,-0.63768 0.70322,-0.83932c0.30775,-0.20164 0.66315,-0.30246 1.06617,-0.30246c0.43403,0 0.80908,0.0983 1.12667,0.2949c0.31759,0.19156 0.56485,0.46126 0.74102,0.80908c0.17693,0.34783 0.26466,0.75364 0.26466,1.2174c0,0.47386 -0.08771,0.88218 -0.26466,1.22497c-0.17619,0.34278 -0.42571,0.60744 -0.74859,0.79396c-0.32212,0.18652 -0.70322,0.27978 -1.14179,0.27978zM290.78229,176.6994c0.31304,0 0.55956,-0.12351 0.74102,-0.37052c0.18677,-0.25205 0.27978,-0.58475 0.27978,-0.99812c0,-0.4184 -0.09301,-0.75111 -0.27978,-0.99812c-0.18148,-0.24701 -0.42798,-0.37052 -0.74102,-0.37052c-0.32212,0 -0.57694,0.12351 -0.76371,0.37052c-0.18601,0.24701 -0.27978,0.57972 -0.27978,0.99812c0,0.41337 0.09377,0.74608 0.27978,0.99812c0.18677,0.24701 0.44159,0.37052 0.76371,0.37052zM294.1691,177.77313c-0.11039,0 -0.20113,-0.03781 -0.27222,-0.11342c-0.06503,-0.07562 -0.11796,-0.184 -0.15879,-0.32515c-0.04008,-0.20668 -0.07562,-0.47638 -0.10586,-0.80908c-0.02496,-0.33775 -0.03781,-0.69818 -0.03781,-1.0813c0,-0.21677 0.00529,-0.46126 0.01512,-0.73346c0.01059,-0.27222 0.02268,-0.54694 0.03781,-0.8242c0.02041,-0.2823 0.04084,-0.54443 0.06049,-0.78639c0.02571,-0.24197 0.05066,-0.43857 0.07562,-0.5898c0.04084,-0.22181 0.0983,-0.39572 0.17392,-0.52175c0.08091,-0.13107 0.20718,-0.1966 0.37808,-0.1966c0.17693,0 0.30548,0.06805 0.38564,0.20416c0.08091,0.13107 0.12099,0.2949 0.12099,0.4915c0,0.22181 -0.01739,0.48394 -0.05293,0.78639c-0.03025,0.30246 -0.07789,0.60997 -0.14367,0.9225l-0.15123,0.18148c0.05596,-0.21172 0.14669,-0.4058 0.27222,-0.58224c0.12628,-0.17644 0.28507,-0.31507 0.47638,-0.41589c0.19206,-0.10586 0.41362,-0.15879 0.66541,-0.15879c0.49452,0 0.88772,0.17644 1.1796,0.52931c0.29792,0.34783 0.44613,0.89226 0.44613,1.63329c0,0.51923 -0.07789,0.95275 -0.23441,1.30058c-0.15123,0.34783 -0.35993,0.60997 -0.6276,0.78639c-0.26163,0.1714 -0.56182,0.25709 -0.89982,0.25709c-0.31759,0 -0.59206,-0.09326 -0.8242,-0.27978c-0.22685,-0.18652 -0.37278,-0.4562 -0.43857,-0.80908l0.10586,0.08318c-0.01966,0.36296 -0.07033,0.63012 -0.15123,0.80152c-0.07562,0.16635 -0.17392,0.24953 -0.2949,0.24953zM295.55285,176.85063c0.25255,0 0.47411,-0.11342 0.66541,-0.34027c0.19206,-0.22685 0.28734,-0.58224 0.28734,-1.06617c0,-0.40327 -0.07562,-0.73095 -0.22685,-0.98299c-0.14594,-0.25205 -0.3932,-0.37808 -0.74102,-0.37808c-0.28204,0 -0.50889,0.11342 -0.68053,0.34027c-0.17089,0.22181 -0.25709,0.55956 -0.25709,1.01324c0,0.41337 0.08621,0.75364 0.25709,1.0208c0.17164,0.26213 0.40378,0.3932 0.69565,0.3932zM301.60283,177.77313c-0.17164,0 -0.2896,-0.06553 -0.35539,-0.1966c-0.06049,-0.13611 -0.09603,-0.35034 -0.10586,-0.64272l0.07562,0.03781c-0.28204,0.54947 -0.81664,0.8242 -1.60304,0.8242c-0.35766,0 -0.65559,-0.06301 -0.89226,-0.18904c-0.23668,-0.13107 -0.41362,-0.30246 -0.52931,-0.51419c-0.11115,-0.21677 -0.16635,-0.45117 -0.16635,-0.70322c0,-0.43352 0.15123,-0.77632 0.45369,-1.02836c0.30246,-0.25709 0.70322,-0.38564 1.20228,-0.38564c0.32741,0 0.61249,0.04789 0.85445,0.14367c0.24197,0.09578 0.44839,0.22937 0.62005,0.40076l-0.12855,-0.01512c-0.03554,-0.50914 -0.14594,-0.87209 -0.33271,-1.08886c-0.18148,-0.22181 -0.44083,-0.33271 -0.77883,-0.33271c-0.1966,0 -0.37808,0.03025 -0.54443,0.09074c-0.16635,0.06049 -0.31985,0.12351 -0.46126,0.18904c-0.13611,0.06049 -0.26466,0.09074 -0.38564,0.09074c-0.12099,0 -0.21701,-0.04033 -0.28734,-0.12099c-0.06578,-0.08066 -0.0983,-0.184 -0.0983,-0.31002c0,-0.18148 0.08545,-0.35287 0.25709,-0.51419c0.17619,-0.16131 0.40833,-0.29238 0.69565,-0.3932c0.28734,-0.10082 0.59963,-0.15123 0.93763,-0.15123c0.40833,0 0.75842,0.0983 1.05105,0.2949c0.29263,0.1966 0.51419,0.48394 0.66541,0.86201c0.13082,0.32263 0.22458,0.68305 0.27978,1.0813c0.0552,0.39824 0.08318,0.8242 0.08318,1.2779c0,0.34278 -0.01739,0.60744 -0.05293,0.79396c-0.03554,0.18652 -0.09074,0.31759 -0.16635,0.3932c-0.07033,0.07057 -0.16635,0.10586 -0.28734,0.10586zM299.93173,176.92624c0.16635,0 0.33497,-0.02268 0.50663,-0.06805c0.17164,-0.05041 0.31531,-0.12351 0.43101,-0.21929c0.1157,-0.09578 0.17392,-0.21424 0.17392,-0.35539c0,-0.12099 -0.05066,-0.21929 -0.15123,-0.2949c-0.09603,-0.08066 -0.22458,-0.14115 -0.38564,-0.18148c-0.15652,-0.04033 -0.32515,-0.06049 -0.50663,-0.06049c-0.30775,0 -0.54216,0.05293 -0.70322,0.15879c-0.15652,0.10586 -0.23441,0.24701 -0.23441,0.42345c0,0.19156 0.07334,0.34027 0.21929,0.44613c0.15123,0.10082 0.36825,0.15123 0.65029,0.15123zM184.9874,186.84695c-0.09577,0 -0.17392,-0.02775 -0.23441,-0.08318c-0.06049,-0.06049 -0.10333,-0.14616 -0.12855,-0.25709c-0.04033,-0.18654 -0.07562,-0.45618 -0.10586,-0.80908c-0.03025,-0.35289 -0.04537,-0.74352 -0.04537,-1.17203c0,-0.52931 0.01764,-1.03843 0.05293,-1.52743c0.04033,-0.489 0.09074,-0.88977 0.15123,-1.20228c0.06553,-0.33777 0.14619,-0.58473 0.24197,-0.74102c0.09578,-0.16128 0.22181,-0.24197 0.37808,-0.24197c0.14114,0 0.2495,0.06555 0.32512,0.1966c0.07562,0.12605 0.11342,0.34533 0.11342,0.65785c0,0.31251 -0.01255,0.6478 -0.03781,1.00568c-0.02011,0.35788 -0.05543,0.74102 -0.10586,1.14935h0.03025c0.32772,-0.44363 0.63267,-0.79903 0.91494,-1.06617c0.28734,-0.26714 0.5495,-0.46126 0.78639,-0.58224c0.24197,-0.12099 0.45626,-0.18148 0.64272,-0.18148c0.14624,0 0.25459,0.04537 0.32515,0.13611c0.07063,0.09074 0.10586,0.20166 0.10586,0.33271c0,0.25709 -0.20665,0.54443 -0.62005,0.86201c-0.40833,0.31759 -0.99812,0.64272 -1.7694,0.97543l0.00756,-0.12099c0.47894,0.24703 0.88977,0.50663 1.23253,0.77883c0.34783,0.26714 0.61249,0.52175 0.79396,0.76371c0.18654,0.2369 0.27978,0.43607 0.27978,0.59736c0,0.13104 -0.0428,0.23947 -0.12855,0.32515c-0.0806,0.08068 -0.19909,0.12099 -0.35539,0.12099c-0.1966,0 -0.41589,-0.07312 -0.65785,-0.21929c-0.2369,-0.15123 -0.48394,-0.37558 -0.74102,-0.67297c-0.25709,-0.29739 -0.51419,-0.67048 -0.77127,-1.1191h-0.03025c-0.00499,0.31759 -0.02518,0.6276 -0.06049,0.93006c-0.03025,0.29739 -0.07055,0.54193 -0.12099,0.73346c-0.03524,0.13104 -0.09074,0.2369 -0.16632,0.31759c-0.07057,0.07562 -0.17139,0.11342 -0.30246,0.11342zM191.05057,186.83183c-0.55956,0 -1.00568,-0.08318 -1.33839,-0.24953c-0.33271,-0.16635 -0.57218,-0.40583 -0.71834,-0.71834c-0.14624,-0.31251 -0.21929,-0.6856 -0.21929,-1.1191c0,-0.5495 0.10079,-1.01574 0.30246,-1.39888c0.20665,-0.38813 0.48893,-0.6856 0.84689,-0.89226c0.36296,-0.20665 0.77377,-0.31002 1.23253,-0.31002c0.53936,0 0.93505,0.12605 1.18716,0.37808c0.25202,0.24703 0.37808,0.57218 0.37808,0.97543c0,0.32265 -0.08575,0.60243 -0.25709,0.83932c-0.16635,0.23191 -0.39826,0.41081 -0.69565,0.53687c-0.29747,0.12605 -0.64023,0.18904 -1.02836,0.18904c-0.21679,0 -0.42602,-0.02775 -0.6276,-0.08318c-0.20166,-0.05543 -0.38314,-0.13104 -0.54443,-0.22685l0.18148,-0.33271c-0.01512,0.12099 -0.02268,0.24197 -0.02268,0.36296c0,0.35289 0.11085,0.60742 0.33271,0.76371c0.22178,0.15123 0.53687,0.22685 0.94519,0.22685c0.31759,0 0.57211,-0.02775 0.76371,-0.08318c0.19153,-0.05543 0.35282,-0.10835 0.48394,-0.15879c0.13104,-0.05543 0.25958,-0.08318 0.38564,-0.08318c0.07055,0 0.13354,0.02018 0.18904,0.06049c0.06049,0.03531 0.10835,0.08824 0.14367,0.15879c0.04031,0.07055 0.06049,0.15629 0.06049,0.25709c0,0.15123 -0.07562,0.29739 -0.22685,0.43857c-0.15123,0.13611 -0.37558,0.24953 -0.67297,0.34027c-0.2924,0.08568 -0.65286,0.12855 -1.0813,0.12855zM190.612,184.35921c0.35788,0 0.64522,-0.07562 0.86201,-0.22685c0.21671,-0.15123 0.32515,-0.33777 0.32515,-0.55956c0,-0.17641 -0.06049,-0.32008 -0.18148,-0.43101c-0.116,-0.11591 -0.29996,-0.17392 -0.552,-0.17392c-0.23698,0 -0.4512,0.04537 -0.64272,0.13611c-0.18654,0.08568 -0.33271,0.19909 -0.43857,0.34027c-0.10586,0.14117 -0.15879,0.2949 -0.15879,0.46126c0,0.14616 0.06805,0.25958 0.20416,0.34027c0.1411,0.07562 0.3352,0.11342 0.58224,0.11342zM196.95521,183.30817c0.05043,-0.20665 0.1386,-0.3932 0.26466,-0.55956c0.13104,-0.16635 0.28734,-0.29739 0.46882,-0.3932c0.18654,-0.10079 0.3907,-0.15123 0.61249,-0.15123c0.26216,0 0.49399,0.06299 0.69565,0.18904c0.20166,0.12605 0.36046,0.33271 0.47638,0.62005c0.12099,0.28734 0.18148,0.67048 0.18148,1.14935c0,0.24703 -0.01006,0.49656 -0.03025,0.74859c-0.02018,0.25202 -0.04537,0.48643 -0.07562,0.70322c-0.03025,0.21679 -0.06299,0.39826 -0.0983,0.54443c-0.05043,0.20166 -0.12855,0.35539 -0.23441,0.46126c-0.10079,0.10586 -0.22934,0.15879 -0.38564,0.15879c-0.13104,0 -0.23441,-0.05799 -0.31002,-0.17392c-0.07562,-0.11591 -0.11342,-0.28227 -0.11342,-0.49906c0,-0.10079 0.01262,-0.22934 0.03781,-0.38564c0.02518,-0.16128 0.05293,-0.3352 0.08318,-0.52175c0.03025,-0.19153 0.05799,-0.38564 0.08318,-0.58224c0.02518,-0.1966 0.03781,-0.38314 0.03781,-0.55956c0,-0.26216 -0.05293,-0.46375 -0.15879,-0.60493c-0.10586,-0.14616 -0.25459,-0.21929 -0.44613,-0.21929c-0.21172,0 -0.38813,0.11092 -0.52931,0.33271c-0.13611,0.21679 -0.21679,0.53437 -0.24197,0.95275c-0.02018,0.37301 -0.03781,0.70572 -0.05293,0.99812c-0.01512,0.28734 -0.05293,0.52424 -0.11342,0.71078c-0.04031,0.13104 -0.0983,0.22934 -0.17392,0.2949c-0.07055,0.06555 -0.16635,0.0983 -0.28734,0.0983c-0.13611,0 -0.24446,-0.05043 -0.32515,-0.15123c-0.07562,-0.10079 -0.11849,-0.25958 -0.12855,-0.47638c-0.01006,-0.18148 -0.01262,-0.39569 -0.00756,-0.64272c0.00506,-0.24703 0.00756,-0.4915 0.00756,-0.73346c0.00506,-0.24703 0.0025,-0.4512 -0.00756,-0.61249c-0.02018,-0.32265 -0.07812,-0.55956 -0.17392,-0.71078c-0.09074,-0.15123 -0.22934,-0.22685 -0.41589,-0.22685c-0.21679,0 -0.3907,0.10079 -0.52175,0.30246c-0.12605,0.20166 -0.20416,0.48144 -0.23441,0.83932c-0.01006,0.14616 -0.01512,0.32764 -0.01512,0.54443c0.00506,0.21172 0.01006,0.42345 0.01512,0.63516c0.00506,0.21172 0.0025,0.38813 -0.00756,0.52931c-0.00506,0.30246 -0.05293,0.51925 -0.14367,0.65029c-0.08568,0.13104 -0.20665,0.1966 -0.36296,0.1966c-0.18654,0 -0.32265,-0.06049 -0.40833,-0.18148c-0.08068,-0.12099 -0.13361,-0.31509 -0.15879,-0.58224c-0.02018,-0.2369 -0.03531,-0.47131 -0.04537,-0.70322c-0.01006,-0.2369 -0.01512,-0.47131 -0.01512,-0.70322c0,-0.2369 0.00506,-0.49399 0.01512,-0.77127c0.01512,-0.27728 0.03531,-0.53936 0.06049,-0.78639c0.03025,-0.25202 0.08318,-0.46375 0.15879,-0.63516c0.07562,-0.17142 0.20166,-0.25709 0.37808,-0.25709c0.14616,0 0.24953,0.07312 0.31002,0.21929c0.06049,0.14117 0.09074,0.36046 0.09074,0.65785c0,0.10079 -0.00756,0.1941 -0.02268,0.27978l-0.02268,-0.15123c0.10079,-0.32764 0.26216,-0.58224 0.48394,-0.76371c0.22178,-0.18654 0.46882,-0.27978 0.74102,-0.27978c0.35788,0 0.63766,0.11591 0.83932,0.34783c0.20166,0.22685 0.31251,0.54193 0.33271,0.94519zM201.15306,186.84695c-0.11092,0 -0.20166,-0.03781 -0.27222,-0.11342c-0.06555,-0.07562 -0.11849,-0.18397 -0.15879,-0.32515c-0.04038,-0.20665 -0.07562,-0.47638 -0.10586,-0.80908c-0.02526,-0.33777 -0.03781,-0.69815 -0.03781,-1.0813c0,-0.21679 0.00499,-0.46126 0.01512,-0.73346c0.01006,-0.27222 0.02268,-0.54692 0.03781,-0.8242c0.02011,-0.28227 0.04031,-0.54443 0.06049,-0.78639c0.02518,-0.24197 0.05036,-0.43857 0.07562,-0.5898c0.04031,-0.22178 0.0983,-0.39569 0.17392,-0.52175c0.0806,-0.13104 0.20665,-0.1966 0.37808,-0.1966c0.17641,0 0.30495,0.06805 0.38564,0.20416c0.0806,0.13104 0.12099,0.2949 0.12099,0.4915c0,0.22178 -0.0177,0.48394 -0.05293,0.78639c-0.03025,0.30246 -0.07819,0.60999 -0.14367,0.9225l-0.15123,0.18148c0.05543,-0.21172 0.14616,-0.40583 0.27222,-0.58224c0.12597,-0.17641 0.28477,-0.31509 0.47638,-0.41589c0.19153,-0.10586 0.41331,-0.15879 0.66541,-0.15879c0.49399,0 0.88719,0.17641 1.1796,0.52931c0.29739,0.34783 0.44613,0.89226 0.44613,1.63329c0,0.51925 -0.07819,0.95275 -0.23441,1.30058c-0.15123,0.34783 -0.36046,0.60999 -0.6276,0.78639c-0.26216,0.17142 -0.56212,0.25709 -0.89982,0.25709c-0.31759,0 -0.59237,-0.09323 -0.8242,-0.27978c-0.22685,-0.18654 -0.37309,-0.45618 -0.43857,-0.80908l0.10586,0.08318c-0.02018,0.36296 -0.07063,0.6301 -0.15123,0.80152c-0.07562,0.16635 -0.17392,0.24953 -0.2949,0.24953zM202.53682,185.92445c0.25202,0 0.47381,-0.11342 0.66541,-0.34027c0.19153,-0.22685 0.28734,-0.58224 0.28734,-1.06617c0,-0.40325 -0.07562,-0.73097 -0.22685,-0.98299c-0.14624,-0.25202 -0.3932,-0.37808 -0.74102,-0.37808c-0.28235,0 -0.50919,0.11342 -0.68053,0.34027c-0.17142,0.22178 -0.25709,0.55956 -0.25709,1.01324c0,0.41339 0.08568,0.75366 0.25709,1.0208c0.17134,0.26216 0.40325,0.3932 0.69565,0.3932zM208.58656,186.84695c-0.17142,0 -0.28991,-0.06555 -0.35539,-0.1966c-0.06049,-0.13611 -0.0958,-0.35032 -0.10586,-0.64272l0.07562,0.03781c-0.28235,0.5495 -0.81664,0.8242 -1.60304,0.8242c-0.35797,0 -0.65536,-0.06299 -0.89226,-0.18904c-0.23698,-0.13104 -0.41339,-0.30246 -0.52931,-0.51419c-0.11092,-0.21679 -0.16635,-0.4512 -0.16635,-0.70322c0,-0.4335 0.15123,-0.77634 0.45369,-1.02836c0.30246,-0.25709 0.70322,-0.38564 1.20228,-0.38564c0.32764,0 0.61249,0.04787 0.85445,0.14367c0.24197,0.0958 0.44862,0.22934 0.62005,0.40076l-0.12855,-0.01512c-0.03531,-0.50912 -0.14624,-0.87207 -0.33271,-1.08886c-0.18148,-0.22178 -0.44114,-0.33271 -0.77883,-0.33271c-0.1966,0 -0.37808,0.03025 -0.54443,0.09074c-0.16635,0.06049 -0.32016,0.12347 -0.46126,0.18904c-0.13611,0.06049 -0.26466,0.09074 -0.38564,0.09074c-0.12099,0 -0.21679,-0.04031 -0.28734,-0.12099c-0.06555,-0.08068 -0.0983,-0.18397 -0.0983,-0.31002c0,-0.18148 0.08568,-0.35289 0.25709,-0.51419c0.17641,-0.16128 0.40833,-0.2924 0.69565,-0.3932c0.28734,-0.10079 0.59985,-0.15123 0.93763,-0.15123c0.40833,0 0.75865,0.0983 1.05105,0.2949c0.29233,0.1966 0.51419,0.48394 0.66541,0.86201c0.13104,0.32265 0.22428,0.68303 0.27978,1.0813c0.05543,0.39826 0.08318,0.8242 0.08318,1.2779c0,0.34276 -0.0177,0.60742 -0.05293,0.79396c-0.03531,0.18654 -0.09074,0.31759 -0.16635,0.3932c-0.07063,0.07055 -0.16635,0.10586 -0.28734,0.10586zM206.91546,186.00007c0.16635,0 0.3352,-0.02268 0.50663,-0.06805c0.17134,-0.05043 0.31501,-0.12347 0.43101,-0.21929c0.11591,-0.0958 0.17392,-0.21421 0.17392,-0.35539c0,-0.12099 -0.05043,-0.21929 -0.15123,-0.2949c-0.0958,-0.08068 -0.22435,-0.14117 -0.38564,-0.18148c-0.15629,-0.04031 -0.32515,-0.06049 -0.50663,-0.06049c-0.30752,0 -0.54193,0.05293 -0.70322,0.15879c-0.15629,0.10586 -0.23441,0.24703 -0.23441,0.42345c0,0.19153 0.07304,0.34027 0.21929,0.44613c0.15123,0.10079 0.36795,0.15123 0.65029,0.15123zM210.8321,186.78646c-0.15622,0 -0.27978,-0.03531 -0.37052,-0.10586c-0.09074,-0.07562 -0.16378,-0.19909 -0.21929,-0.37052c-0.07562,-0.25202 -0.13354,-0.56961 -0.17392,-0.95275c-0.03524,-0.38813 -0.05293,-0.86451 -0.05293,-1.42913c0,-0.34783 0.01262,-0.69565 0.03781,-1.04349c0.03025,-0.35289 0.06805,-0.67297 0.11342,-0.96031c0.04537,-0.2924 0.09331,-0.51925 0.14367,-0.68053c0.0555,-0.17142 0.12099,-0.28983 0.1966,-0.35539c0.07562,-0.06555 0.16137,-0.0983 0.25709,-0.0983c0.10087,0 0.18148,0.03531 0.24197,0.10586c0.06049,0.06555 0.10843,0.18397 0.14367,0.35539c0.03025,0.16635 0.05293,0.37052 0.06805,0.61249c0.02018,0.24197 0.03025,0.50155 0.03025,0.77883c0,0.37808 -0.01762,0.77634 -0.05293,1.19472c-0.03524,0.41838 -0.08318,0.82927 -0.14367,1.23253c-0.05543,0.40325 -0.12347,0.77377 -0.20416,1.11154l-0.21172,-0.10586c0.13112,-0.16128 0.27978,-0.28734 0.44613,-0.37808c0.17142,-0.09074 0.32772,-0.13611 0.46882,-0.13611c0.116,0 0.20416,0.03275 0.26466,0.0983c0.06555,0.06049 0.0983,0.15629 0.0983,0.28734c0,0.13104 -0.05792,0.26216 -0.17392,0.3932c-0.11085,0.13104 -0.24953,0.23947 -0.41589,0.32515c-0.16635,0.08068 -0.33014,0.12099 -0.4915,0.12099zM213.26541,180.97166c0.20166,0 0.34533,0.05543 0.43101,0.16635c0.09074,0.11092 0.13611,0.23947 0.13611,0.38564c0,0.18148 -0.05543,0.32265 -0.16635,0.42345c-0.10586,0.0958 -0.25709,0.14367 -0.45369,0.14367c-0.19153,0 -0.3352,-0.05293 -0.43101,-0.15879c-0.0958,-0.11092 -0.14367,-0.23947 -0.14367,-0.38564c0,-0.19153 0.05799,-0.3352 0.17392,-0.43101c0.11591,-0.0958 0.26714,-0.14367 0.45369,-0.14367zM213.31077,182.65787c0.16128,0 0.28734,0.15123 0.37808,0.45369c0.0958,0.30246 0.14367,0.7839 0.14367,1.44425c0,0.81158 -0.05799,1.39638 -0.17392,1.75428c-0.11591,0.35788 -0.2924,0.53687 -0.52931,0.53687c-0.18148,0 -0.31509,-0.13104 -0.40076,-0.3932c-0.08568,-0.26714 -0.12855,-0.73097 -0.12855,-1.39132c0,-0.81158 0.06555,-1.41401 0.1966,-1.80721c0.13611,-0.39826 0.30752,-0.59736 0.51419,-0.59736zM217.68397,186.8772c-0.49399,0 -0.87963,-0.18397 -1.15691,-0.552c-0.27721,-0.37301 -0.41589,-0.94013 -0.41589,-1.70135c0,-0.75615 0.13611,-1.30814 0.40833,-1.65598c0.27728,-0.35289 0.67297,-0.52931 1.18716,-0.52931c0.2924,0 0.547,0.06049 0.76371,0.18148c0.22186,0.12099 0.41846,0.2924 0.5898,0.51419l-0.06049,0.03025c-0.04537,-0.20665 -0.09074,-0.42594 -0.13611,-0.65785c-0.04537,-0.23191 -0.08318,-0.4512 -0.11342,-0.65785c-0.02518,-0.21172 -0.03781,-0.37808 -0.03781,-0.49906c0,-0.17142 0.02775,-0.30246 0.08318,-0.3932c0.0555,-0.0958 0.14367,-0.14367 0.26466,-0.14367c0.17142,0 0.31002,0.07312 0.41589,0.21929c0.10586,0.14117 0.1941,0.36046 0.26466,0.65785c0.06555,0.26714 0.12356,0.58473 0.17392,0.95275c0.05043,0.36296 0.09074,0.74352 0.12099,1.14179c0.03531,0.3932 0.05293,0.77127 0.05293,1.13423c0,0.50413 -0.02767,0.89733 -0.08318,1.1796c-0.05036,0.27728 -0.12347,0.47131 -0.21929,0.58224c-0.09074,0.11092 -0.19909,0.16635 -0.32515,0.16635c-0.15622,0 -0.26208,-0.07812 -0.31759,-0.23441c-0.05543,-0.15629 -0.07812,-0.41081 -0.06805,-0.76371h0.11342c-0.13611,0.31251 -0.3352,0.56205 -0.59736,0.74859c-0.25709,0.18654 -0.55956,0.27978 -0.90738,0.27978zM218.08474,185.93957c0.18148,0 0.34783,-0.04537 0.49906,-0.13611c0.15629,-0.0958 0.27978,-0.24197 0.37052,-0.43857c0.0958,-0.1966 0.14367,-0.44613 0.14367,-0.74859c0,-0.38813 -0.08817,-0.70322 -0.26466,-0.94519c-0.17641,-0.24703 -0.43101,-0.37052 -0.76371,-0.37052c-0.26208,0 -0.47638,0.10835 -0.64272,0.32515c-0.16128,0.21679 -0.24197,0.54443 -0.24197,0.98299c0,0.38813 0.08068,0.70829 0.24197,0.96031c0.16635,0.24703 0.38564,0.37052 0.65785,0.37052zM224.31513,186.84695c-0.17142,0 -0.28991,-0.06555 -0.35539,-0.1966c-0.06049,-0.13611 -0.0958,-0.35032 -0.10586,-0.64272l0.07562,0.03781c-0.28235,0.5495 -0.81664,0.8242 -1.60304,0.8242c-0.35797,0 -0.65536,-0.06299 -0.89226,-0.18904c-0.23698,-0.13104 -0.41339,-0.30246 -0.52931,-0.51419c-0.11092,-0.21679 -0.16635,-0.4512 -0.16635,-0.70322c0,-0.4335 0.15123,-0.77634 0.45369,-1.02836c0.30246,-0.25709 0.70322,-0.38564 1.20228,-0.38564c0.32764,0 0.61249,0.04787 0.85445,0.14367c0.24197,0.0958 0.44862,0.22934 0.62005,0.40076l-0.12855,-0.01512c-0.03531,-0.50912 -0.14624,-0.87207 -0.33271,-1.08886c-0.18148,-0.22178 -0.44114,-0.33271 -0.77883,-0.33271c-0.1966,0 -0.37808,0.03025 -0.54443,0.09074c-0.16635,0.06049 -0.32016,0.12347 -0.46126,0.18904c-0.13611,0.06049 -0.26466,0.09074 -0.38564,0.09074c-0.12099,0 -0.21679,-0.04031 -0.28734,-0.12099c-0.06555,-0.08068 -0.0983,-0.18397 -0.0983,-0.31002c0,-0.18148 0.08568,-0.35289 0.25709,-0.51419c0.17641,-0.16128 0.40833,-0.2924 0.69565,-0.3932c0.28734,-0.10079 0.59985,-0.15123 0.93763,-0.15123c0.40833,0 0.75865,0.0983 1.05105,0.2949c0.29233,0.1966 0.51419,0.48394 0.66541,0.86201c0.13104,0.32265 0.22428,0.68303 0.27978,1.0813c0.05543,0.39826 0.08318,0.8242 0.08318,1.2779c0,0.34276 -0.0177,0.60742 -0.05293,0.79396c-0.03531,0.18654 -0.09074,0.31759 -0.16635,0.3932c-0.07063,0.07055 -0.16635,0.10586 -0.28734,0.10586zM222.64403,186.00007c0.16635,0 0.3352,-0.02268 0.50663,-0.06805c0.17134,-0.05043 0.31501,-0.12347 0.43101,-0.21929c0.11591,-0.0958 0.17392,-0.21421 0.17392,-0.35539c0,-0.12099 -0.05043,-0.21929 -0.15123,-0.2949c-0.0958,-0.08068 -0.22435,-0.14117 -0.38564,-0.18148c-0.15629,-0.04031 -0.32515,-0.06049 -0.50663,-0.06049c-0.30752,0 -0.54193,0.05293 -0.70322,0.15879c-0.15629,0.10586 -0.23441,0.24703 -0.23441,0.42345c0,0.19153 0.07304,0.34027 0.21929,0.44613c0.15123,0.10079 0.36795,0.15123 0.65029,0.15123zM226.56067,186.78646c-0.15622,0 -0.27978,-0.03531 -0.37052,-0.10586c-0.09074,-0.07562 -0.16378,-0.19909 -0.21929,-0.37052c-0.07562,-0.25202 -0.13354,-0.56961 -0.17392,-0.95275c-0.03524,-0.38813 -0.05293,-0.86451 -0.05293,-1.42913c0,-0.34783 0.01262,-0.69565 0.03781,-1.04349c0.03025,-0.35289 0.06805,-0.67297 0.11342,-0.96031c0.04537,-0.2924 0.09331,-0.51925 0.14367,-0.68053c0.0555,-0.17142 0.12099,-0.28983 0.1966,-0.35539c0.07562,-0.06555 0.16137,-0.0983 0.25709,-0.0983c0.10087,0 0.18148,0.03531 0.24197,0.10586c0.06049,0.06555 0.10843,0.18397 0.14367,0.35539c0.03025,0.16635 0.05293,0.37052 0.06805,0.61249c0.02018,0.24197 0.03025,0.50155 0.03025,0.77883c0,0.37808 -0.01762,0.77634 -0.05293,1.19472c-0.03524,0.41838 -0.08318,0.82927 -0.14367,1.23253c-0.05543,0.40325 -0.12347,0.77377 -0.20416,1.11154l-0.21172,-0.10586c0.13112,-0.16128 0.27978,-0.28734 0.44613,-0.37808c0.17142,-0.09074 0.32772,-0.13611 0.46882,-0.13611c0.116,0 0.20416,0.03275 0.26466,0.0983c0.06555,0.06049 0.0983,0.15629 0.0983,0.28734c0,0.13104 -0.05792,0.26216 -0.17392,0.3932c-0.11085,0.13104 -0.24953,0.23947 -0.41589,0.32515c-0.16635,0.08068 -0.33014,0.12099 -0.4915,0.12099zM231.63293,186.84695c-0.17142,0 -0.28983,-0.06555 -0.35539,-0.1966c-0.06049,-0.13611 -0.0958,-0.35032 -0.10586,-0.64272l0.07562,0.03781c-0.28227,0.5495 -0.81664,0.8242 -1.60304,0.8242c-0.35788,0 -0.65536,-0.06299 -0.89226,-0.18904c-0.2369,-0.13104 -0.41339,-0.30246 -0.52931,-0.51419c-0.11092,-0.21679 -0.16635,-0.4512 -0.16635,-0.70322c0,-0.4335 0.15123,-0.77634 0.45369,-1.02836c0.30246,-0.25709 0.70322,-0.38564 1.20228,-0.38564c0.32764,0 0.61249,0.04787 0.85445,0.14367c0.24197,0.0958 0.44862,0.22934 0.62005,0.40076l-0.12855,-0.01512c-0.03531,-0.50912 -0.14616,-0.87207 -0.33271,-1.08886c-0.18148,-0.22178 -0.44106,-0.33271 -0.77883,-0.33271c-0.1966,0 -0.37808,0.03025 -0.54443,0.09074c-0.16635,0.06049 -0.32008,0.12347 -0.46126,0.18904c-0.13611,0.06049 -0.26466,0.09074 -0.38564,0.09074c-0.12099,0 -0.21679,-0.04031 -0.28734,-0.12099c-0.06555,-0.08068 -0.0983,-0.18397 -0.0983,-0.31002c0,-0.18148 0.08568,-0.35289 0.25709,-0.51419c0.17641,-0.16128 0.40833,-0.2924 0.69565,-0.3932c0.28734,-0.10079 0.59985,-0.15123 0.93763,-0.15123c0.40833,0 0.75865,0.0983 1.05105,0.2949c0.2924,0.1966 0.51419,0.48394 0.66541,0.86201c0.13104,0.32265 0.22435,0.68303 0.27978,1.0813c0.05543,0.39826 0.08318,0.8242 0.08318,1.2779c0,0.34276 -0.01762,0.60742 -0.05293,0.79396c-0.03531,0.18654 -0.09074,0.31759 -0.16635,0.3932c-0.07055,0.07055 -0.16635,0.10586 -0.28734,0.10586zM229.96184,186.00007c0.16635,0 0.3352,-0.02268 0.50663,-0.06805c0.17142,-0.05043 0.31509,-0.12347 0.43101,-0.21929c0.11591,-0.0958 0.17392,-0.21421 0.17392,-0.35539c0,-0.12099 -0.05043,-0.21929 -0.15123,-0.2949c-0.0958,-0.08068 -0.22435,-0.14117 -0.38564,-0.18148c-0.15629,-0.04031 -0.32515,-0.06049 -0.50663,-0.06049c-0.30752,0 -0.54193,0.05293 -0.70322,0.15879c-0.15629,0.10586 -0.23441,0.24703 -0.23441,0.42345c0,0.19153 0.07312,0.34027 0.21929,0.44613c0.15123,0.10079 0.36802,0.15123 0.65029,0.15123zM236.32092,183.30817c0.05036,-0.20665 0.1386,-0.3932 0.26466,-0.55956c0.13104,-0.16635 0.28734,-0.29739 0.46882,-0.3932c0.18647,-0.10079 0.39063,-0.15123 0.61249,-0.15123c0.26208,0 0.49399,0.06299 0.69565,0.18904c0.20159,0.12605 0.36038,0.33271 0.47638,0.62005c0.12099,0.28734 0.18148,0.67048 0.18148,1.14935c0,0.24703 -0.01013,0.49656 -0.03025,0.74859c-0.02018,0.25202 -0.04537,0.48643 -0.07562,0.70322c-0.03025,0.21679 -0.06307,0.39826 -0.0983,0.54443c-0.05043,0.20166 -0.12855,0.35539 -0.23441,0.46126c-0.10087,0.10586 -0.22942,0.15879 -0.38564,0.15879c-0.13112,0 -0.23441,-0.05799 -0.31002,-0.17392c-0.07562,-0.11591 -0.11342,-0.28227 -0.11342,-0.49906c0,-0.10079 0.01255,-0.22934 0.03781,-0.38564c0.02518,-0.16128 0.05293,-0.3352 0.08318,-0.52175c0.03025,-0.19153 0.05792,-0.38564 0.08318,-0.58224c0.02518,-0.1966 0.03781,-0.38314 0.03781,-0.55956c0,-0.26216 -0.05293,-0.46375 -0.15879,-0.60493c-0.10586,-0.14616 -0.25459,-0.21929 -0.44613,-0.21929c-0.21172,0 -0.38821,0.11092 -0.52931,0.33271c-0.13611,0.21679 -0.21679,0.53437 -0.24197,0.95275c-0.02018,0.37301 -0.03781,0.70572 -0.05293,0.99812c-0.01512,0.28734 -0.05293,0.52424 -0.11342,0.71078c-0.04038,0.13104 -0.0983,0.22934 -0.17392,0.2949c-0.07063,0.06555 -0.16635,0.0983 -0.28734,0.0983c-0.13611,0 -0.24454,-0.05043 -0.32515,-0.15123c-0.07562,-0.10079 -0.11849,-0.25958 -0.12855,-0.47638c-0.01013,-0.18148 -0.01262,-0.39569 -0.00756,-0.64272c0.00499,-0.24703 0.00756,-0.4915 0.00756,-0.73346c0.00499,-0.24703 0.0025,-0.4512 -0.00756,-0.61249c-0.02018,-0.32265 -0.07819,-0.55956 -0.17392,-0.71078c-0.09074,-0.15123 -0.22942,-0.22685 -0.41589,-0.22685c-0.21679,0 -0.3907,0.10079 -0.52175,0.30246c-0.12605,0.20166 -0.20416,0.48144 -0.23441,0.83932c-0.01013,0.14616 -0.01512,0.32764 -0.01512,0.54443c0.00499,0.21172 0.01006,0.42345 0.01512,0.63516c0.00499,0.21172 0.0025,0.38813 -0.00756,0.52931c-0.00506,0.30246 -0.05293,0.51925 -0.14367,0.65029c-0.08575,0.13104 -0.20674,0.1966 -0.36296,0.1966c-0.18654,0 -0.32265,-0.06049 -0.40833,-0.18148c-0.08068,-0.12099 -0.13361,-0.31509 -0.15879,-0.58224c-0.02018,-0.2369 -0.03531,-0.47131 -0.04537,-0.70322c-0.01013,-0.2369 -0.01512,-0.47131 -0.01512,-0.70322c0,-0.2369 0.00499,-0.49399 0.01512,-0.77127c0.01512,-0.27728 0.03524,-0.53936 0.06049,-0.78639c0.03025,-0.25202 0.08318,-0.46375 0.15879,-0.63516c0.07562,-0.17142 0.20159,-0.25709 0.37808,-0.25709c0.14616,0 0.24953,0.07312 0.31002,0.21929c0.06049,0.14117 0.09074,0.36046 0.09074,0.65785c0,0.10079 -0.00756,0.1941 -0.02268,0.27978l-0.02268,-0.15123c0.10079,-0.32764 0.26208,-0.58224 0.48394,-0.76371c0.22178,-0.18654 0.46882,-0.27978 0.74102,-0.27978c0.35788,0 0.63766,0.11591 0.83932,0.34783c0.20159,0.22685 0.31251,0.54193 0.33271,0.94519zM242.03251,186.84695c-0.11092,0 -0.20166,-0.03781 -0.27222,-0.11342c-0.06555,-0.07562 -0.11849,-0.18397 -0.15879,-0.32515c-0.04038,-0.20665 -0.07562,-0.47638 -0.10586,-0.80908c-0.02526,-0.33777 -0.03781,-0.69815 -0.03781,-1.0813c0,-0.21679 0.00499,-0.46126 0.01512,-0.73346c0.01006,-0.27222 0.02268,-0.54692 0.03781,-0.8242c0.02011,-0.28227 0.04031,-0.54443 0.06049,-0.78639c0.02518,-0.24197 0.05036,-0.43857 0.07562,-0.5898c0.04031,-0.22178 0.0983,-0.39569 0.17392,-0.52175c0.0806,-0.13104 0.20665,-0.1966 0.37808,-0.1966c0.17641,0 0.30495,0.06805 0.38564,0.20416c0.0806,0.13104 0.12099,0.2949 0.12099,0.4915c0,0.22178 -0.0177,0.48394 -0.05293,0.78639c-0.03025,0.30246 -0.07819,0.60999 -0.14367,0.9225l-0.15123,0.18148c0.05543,-0.21172 0.14616,-0.40583 0.27222,-0.58224c0.12597,-0.17641 0.28477,-0.31509 0.47638,-0.41589c0.19153,-0.10586 0.41331,-0.15879 0.66541,-0.15879c0.49399,0 0.88719,0.17641 1.1796,0.52931c0.29739,0.34783 0.44613,0.89226 0.44613,1.63329c0,0.51925 -0.07819,0.95275 -0.23441,1.30058c-0.15123,0.34783 -0.36046,0.60999 -0.6276,0.78639c-0.26216,0.17142 -0.56212,0.25709 -0.89982,0.25709c-0.31759,0 -0.59237,-0.09323 -0.8242,-0.27978c-0.22685,-0.18654 -0.37309,-0.45618 -0.43857,-0.80908l0.10586,0.08318c-0.02018,0.36296 -0.07063,0.6301 -0.15123,0.80152c-0.07562,0.16635 -0.17392,0.24953 -0.2949,0.24953zM243.41627,185.92445c0.25202,0 0.47381,-0.11342 0.66541,-0.34027c0.19153,-0.22685 0.28734,-0.58224 0.28734,-1.06617c0,-0.40325 -0.07562,-0.73097 -0.22685,-0.98299c-0.14624,-0.25202 -0.3932,-0.37808 -0.74102,-0.37808c-0.28235,0 -0.50919,0.11342 -0.68053,0.34027c-0.17142,0.22178 -0.25709,0.55956 -0.25709,1.01324c0,0.41339 0.08568,0.75366 0.25709,1.0208c0.17134,0.26216 0.40325,0.3932 0.69565,0.3932zM248.27886,186.83183c-0.55956,0 -1.00568,-0.08318 -1.33839,-0.24953c-0.33271,-0.16635 -0.57218,-0.40583 -0.71834,-0.71834c-0.14624,-0.31251 -0.21929,-0.6856 -0.21929,-1.1191c0,-0.5495 0.10079,-1.01574 0.30246,-1.39888c0.20665,-0.38813 0.48893,-0.6856 0.84689,-0.89226c0.36296,-0.20665 0.77377,-0.31002 1.23253,-0.31002c0.53936,0 0.93505,0.12605 1.18716,0.37808c0.25202,0.24703 0.37808,0.57218 0.37808,0.97543c0,0.32265 -0.08575,0.60243 -0.25709,0.83932c-0.16635,0.23191 -0.39826,0.41081 -0.69565,0.53687c-0.29747,0.12605 -0.64023,0.18904 -1.02836,0.18904c-0.21679,0 -0.42602,-0.02775 -0.6276,-0.08318c-0.20166,-0.05543 -0.38314,-0.13104 -0.54443,-0.22685l0.18148,-0.33271c-0.01512,0.12099 -0.02268,0.24197 -0.02268,0.36296c0,0.35289 0.11085,0.60742 0.33271,0.76371c0.22178,0.15123 0.53687,0.22685 0.94519,0.22685c0.31759,0 0.57211,-0.02775 0.76371,-0.08318c0.19153,-0.05543 0.35282,-0.10835 0.48394,-0.15879c0.13104,-0.05543 0.25958,-0.08318 0.38564,-0.08318c0.07055,0 0.13354,0.02018 0.18904,0.06049c0.06049,0.03531 0.10835,0.08824 0.14367,0.15879c0.04031,0.07055 0.06049,0.15629 0.06049,0.25709c0,0.15123 -0.07562,0.29739 -0.22685,0.43857c-0.15123,0.13611 -0.37558,0.24953 -0.67297,0.34027c-0.2924,0.08568 -0.65286,0.12855 -1.0813,0.12855zM247.84029,184.35921c0.35788,0 0.64522,-0.07562 0.86201,-0.22685c0.21671,-0.15123 0.32515,-0.33777 0.32515,-0.55956c0,-0.17641 -0.06049,-0.32008 -0.18148,-0.43101c-0.116,-0.11591 -0.29996,-0.17392 -0.552,-0.17392c-0.23698,0 -0.4512,0.04537 -0.64272,0.13611c-0.18654,0.08568 -0.33271,0.19909 -0.43857,0.34027c-0.10586,0.14117 -0.15879,0.2949 -0.15879,0.46126c0,0.14616 0.06805,0.25958 0.20416,0.34027c0.1411,0.07562 0.3352,0.11342 0.58224,0.11342zM251.49915,186.84695c-0.11092,0 -0.20166,-0.03781 -0.27222,-0.11342c-0.06555,-0.07562 -0.11849,-0.18397 -0.15879,-0.32515c-0.04031,-0.20665 -0.07562,-0.47638 -0.10586,-0.80908c-0.02518,-0.33777 -0.03781,-0.69815 -0.03781,-1.0813c0,-0.21679 0.00506,-0.46126 0.01512,-0.73346c0.01006,-0.27222 0.02268,-0.54692 0.03781,-0.8242c0.02018,-0.28227 0.04031,-0.54443 0.06049,-0.78639c0.02518,-0.24197 0.05043,-0.43857 0.07562,-0.5898c0.04031,-0.22178 0.0983,-0.39569 0.17392,-0.52175c0.08068,-0.13104 0.20665,-0.1966 0.37808,-0.1966c0.17641,0 0.30495,0.06805 0.38564,0.20416c0.08068,0.13104 0.12099,0.2949 0.12099,0.4915c0,0.22178 -0.01762,0.48394 -0.05293,0.78639c-0.03025,0.30246 -0.07812,0.60999 -0.14367,0.9225l-0.15123,0.18148c0.05543,-0.21172 0.14616,-0.40583 0.27222,-0.58224c0.12605,-0.17641 0.28484,-0.31509 0.47638,-0.41589c0.19153,-0.10586 0.41339,-0.15879 0.66541,-0.15879c0.49406,0 0.88727,0.17641 1.1799,0.52931c0.29716,0.34783 0.44613,0.89226 0.44613,1.63329c0,0.51925 -0.07864,0.95275 -0.23441,1.30058c-0.15123,0.34783 -0.36068,0.60999 -0.6276,0.78639c-0.26238,0.17142 -0.56258,0.25709 -0.90012,0.25709c-0.31759,0 -0.59229,-0.09323 -0.8242,-0.27978c-0.22685,-0.18654 -0.37301,-0.45618 -0.43857,-0.80908l0.10586,0.08318c-0.02018,0.36296 -0.07055,0.6301 -0.15123,0.80152c-0.07562,0.16635 -0.17392,0.24953 -0.2949,0.24953zM252.88291,185.92445c0.25202,0 0.47388,-0.11342 0.66572,-0.34027c0.19131,-0.22685 0.28734,-0.58224 0.28734,-1.06617c0,-0.40325 -0.07562,-0.73097 -0.22685,-0.98299c-0.14669,-0.25202 -0.3935,-0.37808 -0.74134,-0.37808c-0.28227,0 -0.50912,0.11342 -0.68053,0.34027c-0.17142,0.22178 -0.25709,0.55956 -0.25709,1.01324c0,0.41339 0.08568,0.75366 0.25709,1.0208c0.17142,0.26216 0.40325,0.3932 0.69565,0.3932zM257.74527,186.83183c-0.55956,0 -1.00568,-0.08318 -1.33839,-0.24953c-0.33271,-0.16635 -0.57165,-0.40583 -0.71834,-0.71834c-0.14594,-0.31251 -0.21929,-0.6856 -0.21929,-1.1191c0,-0.5495 0.10133,-1.01574 0.30246,-1.39888c0.20718,-0.38813 0.48923,-0.6856 0.84689,-0.89226c0.36296,-0.20665 0.7743,-0.31002 1.23253,-0.31002c0.53989,0 0.93536,0.12605 1.18716,0.37808c0.25255,0.24703 0.37808,0.57218 0.37808,0.97543c0,0.32265 -0.08545,0.60243 -0.25709,0.83932c-0.16635,0.23191 -0.39773,0.41081 -0.69565,0.53687c-0.29716,0.12605 -0.63971,0.18904 -1.02836,0.18904c-0.21626,0 -0.42571,-0.02775 -0.6276,-0.08318c-0.20113,-0.05543 -0.38261,-0.13104 -0.54443,-0.22685l0.18148,-0.33271c-0.01512,0.12099 -0.02268,0.24197 -0.02268,0.36296c0,0.35289 0.11115,0.60742 0.33271,0.76371c0.2223,0.15123 0.53687,0.22685 0.94519,0.22685c0.31759,0 0.57241,-0.02775 0.76371,-0.08318c0.19206,-0.05543 0.35312,-0.10835 0.48394,-0.15879c0.13157,-0.05543 0.26011,-0.08318 0.38564,-0.08318c0.07108,0 0.13384,0.02018 0.18904,0.06049c0.06049,0.03531 0.10889,0.08824 0.14367,0.15879c0.04084,0.07055 0.06049,0.15629 0.06049,0.25709c0,0.15123 -0.07562,0.29739 -0.22685,0.43857c-0.15123,0.13611 -0.37505,0.24953 -0.67297,0.34027c-0.29187,0.08568 -0.65256,0.12855 -1.0813,0.12855zM257.3067,184.35921c0.35841,0 0.64575,-0.07562 0.86201,-0.22685c0.21701,-0.15123 0.32515,-0.33777 0.32515,-0.55956c0,-0.17641 -0.06049,-0.32008 -0.18148,-0.43101c-0.1157,-0.11591 -0.29943,-0.17392 -0.552,-0.17392c-0.23668,0 -0.45067,0.04537 -0.64272,0.13611c-0.18601,0.08568 -0.33271,0.19909 -0.43857,0.34027c-0.10586,0.14117 -0.15879,0.2949 -0.15879,0.46126c0,0.14616 0.06805,0.25958 0.20416,0.34027c0.1414,0.07562 0.33573,0.11342 0.58224,0.11342zM260.39105,183.3611c0,-0.48394 0.04537,-0.83176 0.13611,-1.04349c0.09074,-0.21679 0.21929,-0.32515 0.38564,-0.32515c0.13082,0 0.23441,0.05543 0.31002,0.16635c0.07562,0.10586 0.13082,0.23947 0.16635,0.40076c0.03554,0.15629 0.05293,0.31509 0.05293,0.47638l-0.03781,-0.01512c0.08545,-0.27222 0.21701,-0.50663 0.3932,-0.70322c0.18148,-0.1966 0.39849,-0.2949 0.65029,-0.2949c0.29716,0 0.51645,0.12347 0.65785,0.37052c0.1414,0.24197 0.21172,0.54443 0.21172,0.90738c0,0.48394 -0.0552,0.82171 -0.16635,1.01324c-0.11115,0.19153 -0.25935,0.28734 -0.44613,0.28734c-0.13611,0 -0.23668,-0.05543 -0.30246,-0.16635c-0.06049,-0.11092 -0.08091,-0.30752 -0.06049,-0.5898c0.02041,-0.29739 0.00227,-0.50413 -0.05293,-0.62005c-0.0552,-0.11591 -0.14367,-0.17392 -0.26466,-0.17392c-0.14594,0 -0.26692,0.09323 -0.36296,0.27978c-0.09074,0.18148 -0.13611,0.40583 -0.13611,0.67297c0,0.10586 0.01285,0.23947 0.03781,0.40076c0.02496,0.16128 0.05293,0.33777 0.08318,0.52931c0.03025,0.18654 0.05822,0.37301 0.08318,0.55956c0.02496,0.18654 0.03781,0.35788 0.03781,0.51419c0,0.27728 -0.0431,0.47638 -0.12855,0.59736c-0.08545,0.12099 -0.20643,0.18148 -0.36296,0.18148c-0.17619,0 -0.31229,-0.05543 -0.40833,-0.16635c-0.09603,-0.11591 -0.16863,-0.30246 -0.21929,-0.55956c-0.04008,-0.23191 -0.08091,-0.50663 -0.12099,-0.8242c-0.04008,-0.31759 -0.07334,-0.64272 -0.0983,-0.97543c-0.02496,-0.33271 -0.03781,-0.63267 -0.03781,-0.89982zM267.29169,186.84695c-0.17164,0 -0.2896,-0.06555 -0.35539,-0.1966c-0.06049,-0.13611 -0.09603,-0.35032 -0.10586,-0.64272l0.07562,0.03781c-0.28204,0.5495 -0.81664,0.8242 -1.60304,0.8242c-0.35766,0 -0.65559,-0.06299 -0.89226,-0.18904c-0.23668,-0.13104 -0.41362,-0.30246 -0.52931,-0.51419c-0.11115,-0.21679 -0.16635,-0.4512 -0.16635,-0.70322c0,-0.4335 0.15123,-0.77634 0.45369,-1.02836c0.30246,-0.25709 0.70322,-0.38564 1.20228,-0.38564c0.32741,0 0.61249,0.04787 0.85445,0.14367c0.24197,0.0958 0.44839,0.22934 0.62005,0.40076l-0.12855,-0.01512c-0.03554,-0.50912 -0.14594,-0.87207 -0.33271,-1.08886c-0.18148,-0.22178 -0.44083,-0.33271 -0.77883,-0.33271c-0.1966,0 -0.37808,0.03025 -0.54443,0.09074c-0.16635,0.06049 -0.31985,0.12347 -0.46126,0.18904c-0.13611,0.06049 -0.26466,0.09074 -0.38564,0.09074c-0.12099,0 -0.21701,-0.04031 -0.28734,-0.12099c-0.06578,-0.08068 -0.0983,-0.18397 -0.0983,-0.31002c0,-0.18148 0.08545,-0.35289 0.25709,-0.51419c0.17619,-0.16128 0.40833,-0.2924 0.69565,-0.3932c0.28734,-0.10079 0.59963,-0.15123 0.93763,-0.15123c0.40833,0 0.75842,0.0983 1.05105,0.2949c0.29263,0.1966 0.51419,0.48394 0.66541,0.86201c0.13082,0.32265 0.22458,0.68303 0.27978,1.0813c0.0552,0.39826 0.08318,0.8242 0.08318,1.2779c0,0.34276 -0.01739,0.60742 -0.05293,0.79396c-0.03554,0.18654 -0.09074,0.31759 -0.16635,0.3932c-0.07033,0.07055 -0.16635,0.10586 -0.28734,0.10586zM265.62059,186.00007c0.16635,0 0.33497,-0.02268 0.50663,-0.06805c0.17164,-0.05043 0.31531,-0.12347 0.43101,-0.21929c0.1157,-0.0958 0.17392,-0.21421 0.17392,-0.35539c0,-0.12099 -0.05066,-0.21929 -0.15123,-0.2949c-0.09603,-0.08068 -0.22458,-0.14117 -0.38564,-0.18148c-0.15652,-0.04031 -0.32515,-0.06049 -0.50663,-0.06049c-0.30775,0 -0.54216,0.05293 -0.70322,0.15879c-0.15652,0.10586 -0.23441,0.24703 -0.23441,0.42345c0,0.19153 0.07334,0.34027 0.21929,0.44613c0.15123,0.10079 0.36825,0.15123 0.65029,0.15123zM269.235,182.0832c0.13611,0 0.24953,0.08068 0.34027,0.24197c0.09074,0.15629 0.1535,0.40583 0.18904,0.74859l-0.15879,0.14367c0.09074,-0.35289 0.25935,-0.62254 0.50663,-0.80908c0.2465,-0.18654 0.53913,-0.27978 0.87713,-0.27978c0.31229,0 0.5898,0.08068 0.83176,0.24197c0.24197,0.16128 0.43101,0.40583 0.56712,0.73346c0.14064,0.32265 0.21172,0.7284 0.21172,1.2174c0,0.79147 -0.14367,1.3762 -0.43101,1.75428c-0.2828,0.37301 -0.66844,0.55956 -1.15691,0.55956c-0.35312,0 -0.63063,-0.07562 -0.83176,-0.22685c-0.20189,-0.15123 -0.34329,-0.3352 -0.42345,-0.552l0.09074,-0.04537c0.04008,0.30246 0.07259,0.60243 0.0983,0.89982c0.03025,0.2924 0.04537,0.5495 0.04537,0.77127c0,0.22685 -0.04084,0.41838 -0.12099,0.57468c-0.08091,0.15629 -0.20945,0.23441 -0.38564,0.23441c-0.17164,0 -0.30019,-0.06555 -0.38564,-0.1966c-0.08621,-0.13104 -0.14896,-0.30495 -0.18904,-0.52175c-0.03025,-0.22178 -0.06049,-0.50663 -0.09074,-0.85445c-0.03025,-0.34783 -0.05596,-0.72341 -0.07562,-1.12667c-0.01512,-0.40325 -0.02268,-0.79646 -0.02268,-1.1796c0,-0.3932 0.01209,-0.76122 0.03781,-1.10398c0.03025,-0.34783 0.06503,-0.6301 0.10586,-0.84689c0.03478,-0.12605 0.08015,-0.21929 0.13611,-0.27978c0.06049,-0.06555 0.13838,-0.0983 0.23441,-0.0983zM270.67925,182.99814c-0.27222,0 -0.4915,0.13611 -0.65785,0.40833c-0.16181,0.26714 -0.24197,0.60999 -0.24197,1.02836c0,0.42851 0.08015,0.74859 0.24197,0.96031c0.16635,0.21172 0.38034,0.31759 0.64272,0.31759c0.30246,0 0.51872,-0.11849 0.65029,-0.35539c0.13611,-0.24197 0.20416,-0.55448 0.20416,-0.93763c0,-0.489 -0.08318,-0.84689 -0.24953,-1.07373c-0.16635,-0.23191 -0.36296,-0.34783 -0.5898,-0.34783zM276.66948,186.84695c-0.17089,0 -0.2896,-0.06555 -0.35539,-0.1966c-0.06049,-0.13611 -0.09527,-0.35032 -0.10586,-0.64272l0.07562,0.03781c-0.28204,0.5495 -0.81664,0.8242 -1.60304,0.8242c-0.35766,0 -0.65483,-0.06299 -0.89226,-0.18904c-0.23668,-0.13104 -0.41286,-0.30246 -0.52931,-0.51419c-0.11039,-0.21679 -0.16635,-0.4512 -0.16635,-0.70322c0,-0.4335 0.15123,-0.77634 0.45369,-1.02836c0.30246,-0.25709 0.70322,-0.38564 1.20228,-0.38564c0.32817,0 0.61249,0.04787 0.85445,0.14367c0.24197,0.0958 0.44915,0.22934 0.62005,0.40076l-0.12855,-0.01512c-0.03478,-0.50912 -0.14594,-0.87207 -0.33271,-1.08886c-0.18148,-0.22178 -0.44083,-0.33271 -0.77883,-0.33271c-0.1966,0 -0.37808,0.03025 -0.54443,0.09074c-0.16635,0.06049 -0.31985,0.12347 -0.46126,0.18904c-0.13611,0.06049 -0.26466,0.09074 -0.38564,0.09074c-0.12099,0 -0.21626,-0.04031 -0.28734,-0.12099c-0.06503,-0.08068 -0.0983,-0.18397 -0.0983,-0.31002c0,-0.18148 0.08621,-0.35289 0.25709,-0.51419c0.17693,-0.16128 0.40833,-0.2924 0.69565,-0.3932c0.28734,-0.10079 0.60038,-0.15123 0.93763,-0.15123c0.40833,0 0.75918,0.0983 1.05105,0.2949c0.29263,0.1966 0.51419,0.48394 0.66541,0.86201c0.13157,0.32265 0.22458,0.68303 0.27978,1.0813c0.05596,0.39826 0.08318,0.8242 0.08318,1.2779c0,0.34276 -0.01739,0.60742 -0.05293,0.79396c-0.03478,0.18654 -0.09074,0.31759 -0.16635,0.3932c-0.07033,0.07055 -0.16635,0.10586 -0.28734,0.10586zM274.99838,186.00007c0.16635,0 0.33573,-0.02268 0.50663,-0.06805c0.17164,-0.05043 0.31531,-0.12347 0.43101,-0.21929c0.11645,-0.0958 0.17392,-0.21421 0.17392,-0.35539c0,-0.12099 -0.0499,-0.21929 -0.15123,-0.2949c-0.09527,-0.08068 -0.22382,-0.14117 -0.38564,-0.18148c-0.15576,-0.04031 -0.32515,-0.06049 -0.50663,-0.06049c-0.307,0 -0.5414,0.05293 -0.70322,0.15879c-0.15576,0.10586 -0.23441,0.24703 -0.23441,0.42345c0,0.19153 0.07334,0.34027 0.21929,0.44613c0.15123,0.10079 0.36825,0.15123 0.65029,0.15123zM281.52549,182.03783c0.44839,0 0.77127,0.06555 0.96787,0.1966c0.1966,0.13104 0.2949,0.29996 0.2949,0.50663c0,0.12099 -0.0431,0.22178 -0.12855,0.30246c-0.08091,0.07562 -0.1966,0.11342 -0.34783,0.11342c-0.15652,0 -0.31985,-0.02268 -0.4915,-0.06805c-0.16635,-0.04537 -0.36068,-0.06805 -0.58224,-0.06805c-0.25709,0 -0.44839,0.05043 -0.57468,0.15123c-0.12628,0.10079 -0.18904,0.22934 -0.18904,0.38564c0,0.14616 0.0552,0.26216 0.16635,0.34783c0.1157,0.08068 0.33497,0.14117 0.65785,0.18148c0.35766,0.04031 0.65256,0.10586 0.88469,0.1966c0.23668,0.08568 0.41362,0.21679 0.52931,0.3932c0.1157,0.17142 0.17392,0.40833 0.17392,0.71078c0,0.47887 -0.16863,0.83426 -0.50663,1.06617c-0.338,0.23191 -0.80379,0.34783 -1.39888,0.34783c-0.37808,0 -0.67827,-0.03025 -0.89982,-0.09074c-0.22156,-0.06049 -0.38337,-0.14616 -0.48394,-0.25709c-0.09603,-0.11092 -0.14367,-0.24197 -0.14367,-0.3932c0,-0.13104 0.0431,-0.23191 0.12855,-0.30246c0.09074,-0.07562 0.1966,-0.11342 0.31759,-0.11342c0.1157,0 0.2397,0.01512 0.37052,0.04537c0.13082,0.02518 0.26995,0.05293 0.41589,0.08318c0.14594,0.03025 0.29716,0.04537 0.45369,0.04537c0.50435,0 0.75615,-0.15629 0.75615,-0.46882c0,-0.10586 -0.02496,-0.19153 -0.07562,-0.25709c-0.05066,-0.06555 -0.1414,-0.11849 -0.27222,-0.15879c-0.13082,-0.04537 -0.32288,-0.08068 -0.57468,-0.10586c-0.30246,-0.03025 -0.56485,-0.08068 -0.78639,-0.15123c-0.22156,-0.07562 -0.3932,-0.1966 -0.51419,-0.36296c-0.12099,-0.17142 -0.18148,-0.40583 -0.18148,-0.70322c0,-0.46882 0.17619,-0.84689 0.52931,-1.13423c0.35312,-0.2924 0.85445,-0.43857 1.50474,-0.43857zM286.95617,186.84695c-0.17164,0 -0.2896,-0.06555 -0.35539,-0.1966c-0.06049,-0.13611 -0.09603,-0.35032 -0.10586,-0.64272l0.07562,0.03781c-0.28204,0.5495 -0.81664,0.8242 -1.60304,0.8242c-0.35766,0 -0.65559,-0.06299 -0.89226,-0.18904c-0.23668,-0.13104 -0.41362,-0.30246 -0.52931,-0.51419c-0.11115,-0.21679 -0.16635,-0.4512 -0.16635,-0.70322c0,-0.4335 0.15123,-0.77634 0.45369,-1.02836c0.30246,-0.25709 0.70322,-0.38564 1.20228,-0.38564c0.32741,0 0.61249,0.04787 0.85445,0.14367c0.24197,0.0958 0.44839,0.22934 0.62005,0.40076l-0.12855,-0.01512c-0.03554,-0.50912 -0.14594,-0.87207 -0.33271,-1.08886c-0.18148,-0.22178 -0.44083,-0.33271 -0.77883,-0.33271c-0.1966,0 -0.37808,0.03025 -0.54443,0.09074c-0.16635,0.06049 -0.31985,0.12347 -0.46126,0.18904c-0.13611,0.06049 -0.26466,0.09074 -0.38564,0.09074c-0.12099,0 -0.21701,-0.04031 -0.28734,-0.12099c-0.06578,-0.08068 -0.0983,-0.18397 -0.0983,-0.31002c0,-0.18148 0.08545,-0.35289 0.25709,-0.51419c0.17619,-0.16128 0.40833,-0.2924 0.69565,-0.3932c0.28734,-0.10079 0.59963,-0.15123 0.93763,-0.15123c0.40833,0 0.75842,0.0983 1.05105,0.2949c0.29263,0.1966 0.51419,0.48394 0.66541,0.86201c0.13082,0.32265 0.22458,0.68303 0.27978,1.0813c0.0552,0.39826 0.08318,0.8242 0.08318,1.2779c0,0.34276 -0.01739,0.60742 -0.05293,0.79396c-0.03554,0.18654 -0.09074,0.31759 -0.16635,0.3932c-0.07033,0.07055 -0.16635,0.10586 -0.28734,0.10586zM285.28508,186.00007c0.16635,0 0.33497,-0.02268 0.50663,-0.06805c0.17164,-0.05043 0.31531,-0.12347 0.43101,-0.21929c0.1157,-0.0958 0.17392,-0.21421 0.17392,-0.35539c0,-0.12099 -0.05066,-0.21929 -0.15123,-0.2949c-0.09603,-0.08068 -0.22458,-0.14117 -0.38564,-0.18148c-0.15652,-0.04031 -0.32515,-0.06049 -0.50663,-0.06049c-0.30775,0 -0.54216,0.05293 -0.70322,0.15879c-0.15652,0.10586 -0.23441,0.24703 -0.23441,0.42345c0,0.19153 0.07334,0.34027 0.21929,0.44613c0.15123,0.10079 0.36825,0.15123 0.65029,0.15123zM291.68967,186.84695c-0.17164,0 -0.29036,-0.06555 -0.35539,-0.1966c-0.06049,-0.13611 -0.09603,-0.35032 -0.10586,-0.64272l0.07562,0.03781c-0.2828,0.5495 -0.81664,0.8242 -1.60304,0.8242c-0.35841,0 -0.65559,-0.06299 -0.89226,-0.18904c-0.23743,-0.13104 -0.41362,-0.30246 -0.52931,-0.51419c-0.11115,-0.21679 -0.16635,-0.4512 -0.16635,-0.70322c0,-0.4335 0.15123,-0.77634 0.45369,-1.02836c0.30246,-0.25709 0.70322,-0.38564 1.20228,-0.38564c0.32741,0 0.61249,0.04787 0.85445,0.14367c0.24197,0.0958 0.44839,0.22934 0.62005,0.40076l-0.12855,-0.01512c-0.03554,-0.50912 -0.14669,-0.87207 -0.33271,-1.08886c-0.18148,-0.22178 -0.44159,-0.33271 -0.77883,-0.33271c-0.1966,0 -0.37808,0.03025 -0.54443,0.09074c-0.16635,0.06049 -0.3206,0.12347 -0.46126,0.18904c-0.13611,0.06049 -0.26466,0.09074 -0.38564,0.09074c-0.12099,0 -0.21701,-0.04031 -0.28734,-0.12099c-0.06578,-0.08068 -0.0983,-0.18397 -0.0983,-0.31002c0,-0.18148 0.08545,-0.35289 0.25709,-0.51419c0.17619,-0.16128 0.40833,-0.2924 0.69565,-0.3932c0.28734,-0.10079 0.59963,-0.15123 0.93763,-0.15123c0.40833,0 0.75842,0.0983 1.05105,0.2949c0.29187,0.1966 0.51419,0.48394 0.66541,0.86201c0.13082,0.32265 0.22382,0.68303 0.27978,1.0813c0.0552,0.39826 0.08318,0.8242 0.08318,1.2779c0,0.34276 -0.01815,0.60742 -0.05293,0.79396c-0.03554,0.18654 -0.09074,0.31759 -0.16635,0.3932c-0.07108,0.07055 -0.16635,0.10586 -0.28734,0.10586zM290.01858,186.00007c0.16635,0 0.33497,-0.02268 0.50663,-0.06805c0.17089,-0.05043 0.31456,-0.12347 0.43101,-0.21929c0.1157,-0.0958 0.17392,-0.21421 0.17392,-0.35539c0,-0.12099 -0.05066,-0.21929 -0.15123,-0.2949c-0.09603,-0.08068 -0.22458,-0.14117 -0.38564,-0.18148c-0.15652,-0.04031 -0.32515,-0.06049 -0.50663,-0.06049c-0.30775,0 -0.54216,0.05293 -0.70322,0.15879c-0.15652,0.10586 -0.23441,0.24703 -0.23441,0.42345c0,0.19153 0.07259,0.34027 0.21929,0.44613c0.15123,0.10079 0.36749,0.15123 0.65029,0.15123zM294.16759,182.21931h-0.15123c-0.01512,-0.22178 -0.01059,-0.43101 0.01512,-0.6276c0.02496,-0.20166 0.07789,-0.36296 0.15879,-0.48394c0.08545,-0.12605 0.20643,-0.18904 0.36296,-0.18904c0.14064,0 0.24424,0.04537 0.31002,0.13611c0.06503,0.09074 0.0983,0.21679 0.0983,0.37808c0,0.31759 -0.06049,0.5898 -0.18148,0.81664l-0.13611,-0.01512c0.27222,-0.0958 0.57921,-0.14367 0.9225,-0.14367c0.21626,0 0.3879,0.04287 0.51419,0.12855c0.13082,0.08068 0.1966,0.21929 0.1966,0.41589c0,0.18654 -0.07562,0.32764 -0.22685,0.42345c-0.15123,0.0958 -0.34027,0.14367 -0.56712,0.14367c-0.13611,0 -0.2828,-0.00506 -0.43857,-0.01512c-0.15123,-0.01512 -0.30019,-0.03781 -0.44613,-0.06805l0.12855,-0.15879c0.04537,0.19153 0.08771,0.41081 0.12855,0.65785c0.04537,0.24197 0.08545,0.49399 0.12099,0.75615c0.03478,0.26216 0.06276,0.51668 0.08318,0.76371c0.01966,0.24703 0.03025,0.46882 0.03025,0.66541c0,0.32265 -0.05066,0.57717 -0.15123,0.76371c-0.10133,0.18654 -0.24953,0.27978 -0.44613,0.27978c-0.15652,0 -0.27978,-0.04787 -0.37052,-0.14367c-0.08621,-0.0958 -0.14896,-0.21679 -0.18904,-0.36296c-0.03554,-0.15123 -0.05822,-0.30752 -0.06805,-0.46882c-0.00529,-0.16128 -0.00756,-0.30752 -0.00756,-0.43857c0,-0.22178 0.00983,-0.47131 0.03025,-0.74859c0.01966,-0.28227 0.04764,-0.57218 0.08318,-0.86957c0.04008,-0.29739 0.08545,-0.58473 0.13611,-0.86201l0.15123,0.12855c-0.25709,0.13104 -0.57468,0.1966 -0.95275,0.1966c-0.23214,0 -0.41134,-0.04287 -0.53687,-0.12855c-0.12628,-0.08568 -0.18904,-0.21929 -0.18904,-0.40076c0,-0.1966 0.07033,-0.34783 0.21172,-0.45369c0.14064,-0.11092 0.32968,-0.16635 0.56712,-0.16635c0.15576,0 0.30246,0.01006 0.43857,0.03025c0.14064,0.01512 0.26466,0.03531 0.37052,0.06049zM296.93132,185.14561c0.20113,0 0.36296,0.07055 0.48394,0.21172c0.12552,0.13611 0.18904,0.33777 0.18904,0.60493c0,0.24703 -0.06049,0.45618 -0.18148,0.6276c-0.11645,0.17142 -0.30548,0.25709 -0.56712,0.25709c-0.21172,0 -0.36825,-0.07055 -0.46882,-0.21172c-0.09603,-0.14117 -0.14367,-0.34027 -0.14367,-0.59736c0,-0.15123 0.01966,-0.2949 0.06049,-0.43101c0.04008,-0.13611 0.11039,-0.24703 0.21172,-0.33271c0.10057,-0.08568 0.23894,-0.12855 0.41589,-0.12855z"/></g></g></svg>