<svg version="1.1" xmlns="http://www.w3.org/2000/svg" xmlns:xlink="http://www.w3.org/1999/xlink" width="44.72159" height="19.8168" viewBox="0,0,44.72159,19.8168"><g transform="translate(-217.6392,-170.0916)"><g data-paper-data="{&quot;isPaintingLayer&quot;:true}" fill-rule="nonzero" stroke-linecap="butt" stroke-linejoin="miter" stroke-miterlimit="10" stroke-dasharray="" stroke-dashoffset="0" style="mix-blend-mode: normal"><g><path d="" fill="#ececec" stroke="none" stroke-width="1"/><path d="" fill="none" stroke="#dcd6d6" stroke-width="1.5"/><path d="" fill="none" stroke="#dcd6d6" stroke-width="1.5"/><path d="" fill="none" stroke="#dcd6d6" stroke-width="1.5"/><path d="" fill="none" stroke="#dcd6d6" stroke-width="1.5"/><path d="" fill="none" stroke="#dcd6d6" stroke-width="1.5"/><path d="" fill="none" stroke="#dcd6d6" stroke-width="1.5"/><path d="" fill="none" stroke="#dcd6d6" stroke-width="1.5"/><path d="" fill="none" stroke="#dcd6d6" stroke-width="1.5"/><path d="" fill="none" stroke="#dcd6d6" stroke-width="1.5"/><path d="" fill="none" stroke="#dcd6d6" stroke-width="1.5"/><path d="" fill="none" stroke="#dcd6d6" stroke-width="1.5"/><path d="" fill="none" stroke="#dcd6d6" stroke-width="1.5"/><path d="" fill="none" stroke="#dcd6d6" stroke-width="1.5"/><path d="" fill="none" stroke="#dcd6d6" stroke-width="1.5"/><path d="" fill="none" stroke="#dcd6d6" stroke-width="1.5"/><path d="" fill="none" stroke="#dcd6d6" stroke-width="1.5"/><path d="" fill="none" stroke="#dcd6d6" stroke-width="1.5"/><path d="" fill="none" stroke="#dcd6d6" stroke-width="1.5"/><path d="" fill="none" stroke="#dcd6d6" stroke-width="1.5"/><path d="" fill="none" stroke="#dcd6d6" stroke-width="1.5"/><path d="" fill="none" stroke="#dcd6d6" stroke-width="1.5"/><path d="" fill="none" stroke="#dcd6d6" stroke-width="1.5"/><path d="" fill="none" stroke="#dcd6d6" stroke-width="1.5"/><path d="" fill="none" stroke="#dcd6d6" stroke-width="1.5"/><path d="" fill="none" stroke="#dcd6d6" stroke-width="1.5"/><path d="" fill="none" stroke="#dcd6d6" stroke-width="1.5"/><path d="" fill="none" stroke="#dcd6d6" stroke-width="1.5"/><path d="" fill="none" stroke="#dcd6d6" stroke-width="1.5"/><path d="" fill="none" stroke="#dcd6d6" stroke-width="1.5"/><path d="" fill="none" stroke="#dcd6d6" stroke-width="1.5"/><path d="" fill="none" stroke="#dcd6d6" stroke-width="1.5"/><path d="" fill="none" stroke="#dcd6d6" stroke-width="1.5"/><path d="" fill="none" stroke="#dcd6d6" stroke-width="1.5"/><path d="" fill="none" stroke="#dcd6d6" stroke-width="1.5"/><path d="" fill="none" stroke="#dcd6d6" stroke-width="1.5"/><path d="" fill="none" stroke="#dcd6d6" stroke-width="1.5"/><path d="" fill="none" stroke="#dcd6d6" stroke-width="1.5"/><path d="" fill="none" stroke="#dcd6d6" stroke-width="1.5"/><path d="" fill="none" stroke="#dcd6d6" stroke-width="1.5"/><path d="" fill="none" stroke="#dcd6d6" stroke-width="1.5"/><g><path d="" fill="#ebebeb" stroke="none" stroke-width="1"/><path d="" fill="none" stroke="#000000" stroke-width="0.5"/></g><path d="" fill="#737373" stroke="none" stroke-width="1"/><path d="" fill="#737373" stroke="none" stroke-width="1"/><path d="" fill="#737373" stroke="none" stroke-width="1"/><path d="" fill="#737373" stroke="none" stroke-width="1"/></g><path d="" fill="#000000" stroke="none" stroke-width="1"/><path d="" fill="#000000" stroke="none" stroke-width="1"/><path d="" fill="#a5a7a9" stroke="#000000" stroke-width="1"/><path d="" fill="#000000" stroke="none" stroke-width="1"/><path d="M221.07573,170.5916h37.84854c1.62162,0 2.93653,1.26386 2.93653,2.82252v13.17176c0,1.55866 -1.31491,2.82252 -2.93653,2.82252h-37.84854c-1.62162,0 -2.93653,-1.26386 -2.93653,-2.82252v-13.17176c0,-1.55866 1.31491,-2.82252 2.93653,-2.82252z" fill="#a5a7a9" stroke="#000000" stroke-width="1"/><path d="M231.4893,177.91697c0.14813,0 0.29887,0.08029 0.45223,0.24148c0.15792,0.15618 0.32301,0.39076 0.49529,0.70375c0.17228,0.31298 0.3589,0.70124 0.5599,1.16602c0.20555,0.46477 0.43069,1.00293 0.67476,1.61448h0.02871c-0.03327,-0.22078 -0.0646,-0.46226 -0.09331,-0.72445c-0.02871,-0.26218 -0.05482,-0.52687 -0.07896,-0.79344c-0.02415,-0.26657 -0.04307,-0.51495 -0.05743,-0.74515c-0.00979,-0.23458 -0.01436,-0.43467 -0.01436,-0.60025c0,-0.38198 0.03589,-0.65106 0.10767,-0.80724c0.07634,-0.1612 0.1938,-0.24148 0.35173,-0.24148c0.11028,0 0.19838,0.0276 0.26559,0.08279c0.06722,0.0552 0.12464,0.13548 0.17228,0.24148c0.11028,0.25779 0.18925,0.61154 0.23688,1.06252c0.04763,0.45097 0.07179,0.96593 0.07179,1.54549c0,0.44596 -0.01892,0.82543 -0.05743,1.13842c-0.0385,0.31298 -0.11028,0.54945 -0.21535,0.71065c-0.10506,0.1612 -0.25841,0.24148 -0.45941,0.24148c-0.13377,0 -0.27016,-0.05081 -0.40915,-0.15179c-0.139,-0.106 -0.27995,-0.25967 -0.42351,-0.46226c-0.139,-0.20699 -0.28452,-0.46477 -0.43787,-0.77275c-0.14813,-0.30797 -0.30604,-0.66674 -0.47376,-1.07632c-0.16249,-0.41397 -0.33477,-0.87624 -0.51684,-1.3868h-0.02871c0.03327,0.23897 0.06199,0.52185 0.08613,0.84864c0.02415,0.32678 0.04307,0.65984 0.05743,1.00043c0.01436,0.34058 0.02154,0.65294 0.02154,0.93833c0,0.42777 -0.04567,0.73135 -0.13638,0.91073c-0.08613,0.17939 -0.22252,0.26908 -0.40915,0.26908c-0.20555,0 -0.35434,-0.0922 -0.44505,-0.27598c-0.08613,-0.18879 -0.12921,-0.47857 -0.12921,-0.86934c0,-0.24399 0.00457,-0.52186 0.01436,-0.83484c0.01436,-0.31298 0.03327,-0.63476 0.05743,-0.96593c0.02415,-0.33118 0.05482,-0.64604 0.09331,-0.94523c0.04763,-0.37257 0.11485,-0.64165 0.20099,-0.80724c0.08613,-0.16997 0.23231,-0.25528 0.43787,-0.25528zM237.58031,182.8777c-0.53118,0 -0.9547,-0.07589 -1.27054,-0.22768c-0.31584,-0.15179 -0.54293,-0.37007 -0.68192,-0.65545c-0.139,-0.28539 -0.20816,-0.62534 -0.20816,-1.02112c0,-0.50115 0.09592,-0.92704 0.28713,-1.27641c0.19642,-0.35438 0.46397,-0.62534 0.80396,-0.81414c0.34456,-0.18879 0.73479,-0.28288 1.17005,-0.28288c0.51226,0 0.88749,0.11478 1.12697,0.34498c0.23949,0.22517 0.3589,0.52186 0.3589,0.89003c0,0.29417 -0.08158,0.54945 -0.24406,0.76584c-0.15792,0.21137 -0.37783,0.37508 -0.6604,0.48986c-0.28256,0.11478 -0.60754,0.17248 -0.97623,0.17248c-0.20555,0 -0.40459,-0.02509 -0.59578,-0.07589c-0.1912,-0.05081 -0.36347,-0.1198 -0.51684,-0.20699l0.17228,-0.30358c-0.01436,0.11039 -0.02154,0.22078 -0.02154,0.33118c0,0.32176 0.10506,0.55447 0.31584,0.69685c0.21077,0.13799 0.50965,0.20699 0.89726,0.20699c0.30148,0 0.54294,-0.02509 0.725,-0.07589c0.18207,-0.05081 0.33476,-0.0991 0.45941,-0.14489c0.12464,-0.05081 0.24667,-0.07589 0.36608,-0.07589c0.06722,0 0.12659,0.01819 0.17945,0.0552c0.05743,0.03198 0.1031,0.08029 0.13638,0.14489c0.0385,0.06461 0.05743,0.14238 0.05743,0.23459c0,0.13799 -0.07179,0.27159 -0.21535,0.40017c-0.14356,0.12419 -0.3563,0.22768 -0.63885,0.31047c-0.27734,0.07841 -0.61994,0.11729 -1.02648,0.11729zM237.16398,180.62157c0.33998,0 0.61275,-0.069 0.81832,-0.20699c0.20555,-0.13799 0.30865,-0.30796 0.30865,-0.51056c0,-0.1612 -0.05742,-0.29229 -0.17228,-0.39327c-0.11028,-0.106 -0.28452,-0.15869 -0.524,-0.15869c-0.22513,0 -0.42809,0.0414 -0.61015,0.12419c-0.17684,0.07841 -0.31584,0.1819 -0.41633,0.31047c-0.10049,0.12858 -0.15074,0.26908 -0.15074,0.42087c0,0.1336 0.0646,0.23709 0.1938,0.31047c0.13377,0.069 0.31845,0.10349 0.55272,0.10349zM240.29301,182.8846c-0.13443,0 -0.24928,-0.04579 -0.34456,-0.13799c-0.09592,-0.09659 -0.14356,-0.21639 -0.14356,-0.35877c0,-0.16559 0.06917,-0.34498 0.20816,-0.53816c0.13835,-0.19757 0.33933,-0.39076 0.60297,-0.57956c0.26756,-0.18879 0.586,-0.35438 0.95469,-0.49677v-0.0276c-0.60819,-0.24838 -1.0552,-0.52687 -1.34232,-0.83484c-0.28256,-0.30797 -0.42351,-0.59085 -0.42351,-0.84864c0,-0.106 0.02349,-0.1957 0.07179,-0.26908c0.05221,-0.07338 0.11942,-0.13109 0.20099,-0.17248c0.08613,-0.0414 0.17423,-0.06209 0.26559,-0.06209c0.19577,0 0.38502,0.0715 0.56708,0.21388c0.18664,0.13799 0.36805,0.33807 0.54554,0.60025c0.17684,0.25779 0.34912,0.56827 0.51684,0.93143h0.02871c0.24406,-0.63036 0.49726,-1.08761 0.76089,-1.373c0.26756,-0.28978 0.54554,-0.43467 0.83267,-0.43467c0.13835,0 0.24601,0.0439 0.32301,0.13109c0.07634,0.08279 0.11485,0.18879 0.11485,0.31738c0,0.30358 -0.13638,0.60025 -0.40915,0.89003c-0.27277,0.28978 -0.68715,0.56325 -1.24182,0.82104v0.0345c0.51161,0.27159 0.89205,0.55447 1.14133,0.84864c0.2532,0.28978 0.38044,0.54506 0.38044,0.76584c0,0.13799 -0.04307,0.24838 -0.12921,0.33118c-0.08158,0.08279 -0.17945,0.12419 -0.2943,0.12419c-0.20099,0 -0.38762,-0.0715 -0.5599,-0.21388c-0.17228,-0.14238 -0.33541,-0.34058 -0.48812,-0.59336c-0.14879,-0.25779 -0.28974,-0.55197 -0.4235,-0.88314h-0.02871c-0.1775,0.41836 -0.36152,0.76334 -0.55272,1.03492c-0.18664,0.26657 -0.37587,0.46477 -0.56708,0.59336c-0.19185,0.12419 -0.38044,0.18628 -0.56708,0.18628zM245.82607,178.66902h-0.14356c-0.01436,-0.20259 -0.00913,-0.39327 0.01436,-0.57265c0.02415,-0.18378 0.07439,-0.33118 0.15074,-0.44157c0.08158,-0.11478 0.19642,-0.17248 0.34456,-0.17248c0.13443,0 0.23231,0.0414 0.2943,0.12419c0.06264,0.08279 0.09331,0.19757 0.09331,0.34498c0,0.28978 -0.05742,0.53816 -0.17228,0.74515l-0.12921,-0.0138c0.25841,-0.08718 0.55076,-0.13109 0.87574,-0.13109c0.20621,0 0.36869,0.03889 0.48812,0.11729c0.12464,0.07338 0.18664,0.20008 0.18664,0.37947c0,0.16997 -0.07179,0.29918 -0.21535,0.38637c-0.14356,0.08718 -0.32301,0.13109 -0.53836,0.13109c-0.12921,0 -0.26756,-0.00439 -0.41633,-0.0138c-0.14356,-0.0138 -0.28452,-0.0345 -0.42351,-0.06209l0.12203,-0.14489c0.04307,0.175 0.08418,0.37508 0.12203,0.60025c0.04307,0.22078 0.08158,0.45097 0.11486,0.68995c0.03393,0.23897 0.06003,0.47168 0.07896,0.69685c0.01958,0.22517 0.02871,0.42777 0.02871,0.60716c0,0.29417 -0.04763,0.52687 -0.14356,0.69685c-0.09528,0.16997 -0.23688,0.25528 -0.42351,0.25528c-0.14813,0 -0.26559,-0.0439 -0.35173,-0.13109c-0.08092,-0.08718 -0.14095,-0.19757 -0.17945,-0.33118c-0.03327,-0.13799 -0.05482,-0.28037 -0.0646,-0.42777c-0.00457,-0.1474 -0.00718,-0.28037 -0.00718,-0.40018c0,-0.20259 0.00979,-0.43028 0.02871,-0.68305c0.01958,-0.25779 0.04568,-0.52186 0.07896,-0.79344c0.0385,-0.27159 0.08158,-0.53377 0.12921,-0.78655l0.14356,0.11729c-0.24406,0.1198 -0.54554,0.17939 -0.90445,0.17939c-0.21991,0 -0.38957,-0.03889 -0.50965,-0.11729c-0.11942,-0.07841 -0.17946,-0.20008 -0.17946,-0.36567c0,-0.17939 0.06722,-0.31738 0.20099,-0.41397c0.13443,-0.10098 0.31389,-0.15179 0.53836,-0.15179c0.14879,0 0.28713,0.00941 0.41633,0.0276c0.13443,0.0138 0.25123,0.03198 0.35173,0.05519z" fill="#000000" stroke="none" stroke-width="1"/></g></g></svg>