<svg xmlns="http://www.w3.org/2000/svg" fill="none" viewBox="0 0 247 44" height="44" width="247">
<path fill="black" d="M5.28539 16.06C4.84539 16.06 4.35206 16.0333 3.80539 15.98C3.27206 15.9267 2.75206 15.8267 2.24539 15.68C1.75206 15.52 1.33872 15.3067 1.00539 15.04C0.685391 14.76 0.525391 14.4 0.525391 13.96C0.525391 13.5067 0.665391 13.1667 0.945391 12.94C1.23872 12.7133 1.71206 12.6 2.36539 12.6C2.81872 12.6 3.32539 12.66 3.88539 12.78C4.45872 12.9 5.00539 12.96 5.52539 12.96C6.29872 12.96 6.86539 12.84 7.22539 12.6C7.59872 12.36 7.78539 12.0333 7.78539 11.62C7.78539 11.3667 7.71206 11.14 7.56539 10.94C7.43206 10.74 7.15872 10.54 6.74539 10.34C6.33206 10.14 5.71206 9.92 4.88539 9.68C3.93872 9.42667 3.17206 9.14667 2.58539 8.84C1.99872 8.52 1.57206 8.14 1.30539 7.7C1.03872 7.26 0.905391 6.74 0.905391 6.14C0.905391 5.40667 1.03206 4.77333 1.28539 4.24C1.55206 3.69333 1.90539 3.23333 2.34539 2.86C2.78539 2.47333 3.27872 2.16667 3.82539 1.94C4.37206 1.71333 4.92539 1.54667 5.48539 1.44C6.05872 1.33333 6.60539 1.28 7.12539 1.28C8.27206 1.28 9.20539 1.46 9.92539 1.82C10.6587 2.18 11.0254 2.66 11.0254 3.26C11.0254 3.68667 10.8854 4.03333 10.6054 4.3C10.3387 4.56667 9.92539 4.7 9.36539 4.7C9.12539 4.7 8.83872 4.66667 8.50539 4.6C8.17206 4.53333 7.80539 4.46667 7.40539 4.4C7.00539 4.33333 6.56539 4.3 6.08539 4.3C5.27206 4.3 4.64539 4.42667 4.20539 4.68C3.76539 4.93333 3.54539 5.34 3.54539 5.9C3.54539 6.14 3.60539 6.36 3.72539 6.56C3.85872 6.76 4.13206 6.96667 4.54539 7.18C4.95872 7.39333 5.59206 7.64 6.44539 7.92C7.49872 8.24 8.32539 8.59333 8.92539 8.98C9.52539 9.35333 9.95206 9.78 10.2054 10.26C10.4587 10.74 10.5854 11.28 10.5854 11.88C10.5854 12.7067 10.3587 13.44 9.90539 14.08C9.46539 14.7067 8.84539 15.1933 8.04539 15.54C7.25872 15.8867 6.33872 16.06 5.28539 16.06ZM18.3493 16.16C16.8693 16.16 15.6893 15.94 14.8093 15.5C13.9293 15.06 13.296 14.4267 12.9093 13.6C12.5226 12.7733 12.3293 11.7867 12.3293 10.64C12.3293 9.18667 12.596 7.95333 13.1293 6.94C13.676 5.91333 14.4226 5.12667 15.3693 4.58C16.3293 4.03333 17.416 3.76 18.6293 3.76C20.056 3.76 21.1026 4.09333 21.7693 4.76C22.436 5.41333 22.7693 6.27333 22.7693 7.34C22.7693 8.19333 22.5426 8.93333 22.0893 9.56C21.6493 10.1733 21.036 10.6467 20.2493 10.98C19.4626 11.3133 18.556 11.48 17.5293 11.48C16.956 11.48 16.4026 11.4067 15.8693 11.26C15.336 11.1133 14.856 10.9133 14.4293 10.66L14.9093 9.78C14.8693 10.1 14.8493 10.42 14.8493 10.74C14.8493 11.6733 15.1426 12.3467 15.7293 12.76C16.316 13.16 17.1493 13.36 18.2293 13.36C19.0693 13.36 19.7426 13.2867 20.2493 13.14C20.756 12.9933 21.1826 12.8533 21.5293 12.72C21.876 12.5733 22.216 12.5 22.5493 12.5C22.736 12.5 22.9026 12.5533 23.0493 12.66C23.2093 12.7533 23.336 12.8933 23.4293 13.08C23.536 13.2667 23.5893 13.4933 23.5893 13.76C23.5893 14.16 23.3893 14.5467 22.9893 14.92C22.5893 15.28 21.996 15.58 21.2093 15.82C20.436 16.0467 19.4826 16.16 18.3493 16.16ZM17.1893 9.62C18.136 9.62 18.896 9.42 19.4693 9.02C20.0426 8.62 20.3293 8.12667 20.3293 7.54C20.3293 7.07333 20.1693 6.69333 19.8493 6.4C19.5426 6.09333 19.056 5.94 18.3893 5.94C17.7626 5.94 17.196 6.06 16.6893 6.3C16.196 6.52667 15.8093 6.82667 15.5293 7.2C15.2493 7.57333 15.1093 7.98 15.1093 8.42C15.1093 8.80667 15.2893 9.10667 15.6493 9.32C16.0226 9.52 16.536 9.62 17.1893 9.62ZM27.507 16.04C27.0936 16.04 26.767 15.9467 26.527 15.76C26.287 15.56 26.0936 15.2333 25.947 14.78C25.747 14.1133 25.5936 13.2733 25.487 12.26C25.3936 11.2333 25.347 9.97333 25.347 8.48C25.347 7.56 25.3803 6.64 25.447 5.72C25.527 4.78667 25.627 3.94 25.747 3.18C25.867 2.40667 25.9936 1.80667 26.127 1.38C26.2736 0.926666 26.447 0.613332 26.647 0.439999C26.847 0.266666 27.0736 0.18 27.327 0.18C27.5936 0.18 27.807 0.273333 27.967 0.46C28.127 0.633332 28.2536 0.946666 28.347 1.4C28.427 1.84 28.487 2.38 28.527 3.02C28.5803 3.66 28.607 4.34667 28.607 5.08C28.607 6.08 28.5603 7.13333 28.467 8.24C28.3736 9.34667 28.247 10.4333 28.087 11.5C27.9403 12.5667 27.7603 13.5467 27.547 14.44L26.987 14.16C27.3336 13.7333 27.727 13.4 28.167 13.16C28.6203 12.92 29.0336 12.8 29.407 12.8C29.7136 12.8 29.947 12.8867 30.107 13.06C30.2803 13.22 30.367 13.4733 30.367 13.82C30.367 14.1667 30.2136 14.5133 29.907 14.86C29.6136 15.2067 29.247 15.4933 28.807 15.72C28.367 15.9333 27.9336 16.04 27.507 16.04ZM40.9229 16.2C40.4696 16.2 40.1562 16.0267 39.9829 15.68C39.8229 15.32 39.7296 14.7533 39.7029 13.98L39.9029 14.08C39.1562 15.5333 37.7429 16.26 35.6629 16.26C34.7162 16.26 33.9296 16.0933 33.3029 15.76C32.6762 15.4133 32.2096 14.96 31.9029 14.4C31.6096 13.8267 31.4629 13.2067 31.4629 12.54C31.4629 11.3933 31.8629 10.4867 32.6629 9.82C33.4629 9.14 34.5229 8.8 35.8429 8.8C36.7096 8.8 37.4629 8.92667 38.1029 9.18C38.7429 9.43333 39.2896 9.78667 39.7429 10.24L39.4029 10.2C39.3096 8.85333 39.0162 7.89333 38.5229 7.32C38.0429 6.73333 37.3562 6.44 36.4629 6.44C35.9429 6.44 35.4629 6.52 35.0229 6.68C34.5829 6.84 34.1762 7.00667 33.8029 7.18C33.4429 7.34 33.1029 7.42 32.7829 7.42C32.4629 7.42 32.2096 7.31333 32.0229 7.1C31.8496 6.88667 31.7629 6.61333 31.7629 6.28C31.7629 5.8 31.9896 5.34667 32.4429 4.92C32.9096 4.49333 33.5229 4.14667 34.2829 3.88C35.0429 3.61333 35.8696 3.48 36.7629 3.48C37.8429 3.48 38.7696 3.74 39.5429 4.26C40.3162 4.78 40.9029 5.54 41.3029 6.54C41.6496 7.39333 41.8962 8.34667 42.0429 9.4C42.1896 10.4533 42.2629 11.58 42.2629 12.78C42.2629 13.6867 42.2162 14.3867 42.1229 14.88C42.0296 15.3733 41.8829 15.72 41.6829 15.92C41.4962 16.1067 41.2429 16.2 40.9229 16.2ZM36.5029 13.96C36.9429 13.96 37.3896 13.9 37.8429 13.78C38.2962 13.6467 38.6762 13.4533 38.9829 13.2C39.2896 12.9467 39.4429 12.6333 39.4429 12.26C39.4429 11.94 39.3096 11.68 39.0429 11.48C38.7896 11.2667 38.4496 11.1067 38.0229 11C37.6096 10.8933 37.1629 10.84 36.6829 10.84C35.8696 10.84 35.2496 10.98 34.8229 11.26C34.4096 11.54 34.2029 11.9133 34.2029 12.38C34.2029 12.8867 34.3962 13.28 34.7829 13.56C35.1829 13.8267 35.7562 13.96 36.5029 13.96ZM53.3224 6.84C53.4558 6.29333 53.6891 5.8 54.0224 5.36C54.3691 4.92 54.7824 4.57333 55.2624 4.32C55.7558 4.05333 56.2958 3.92 56.8824 3.92C57.5758 3.92 58.1891 4.08667 58.7224 4.42C59.2558 4.75333 59.6758 5.3 59.9824 6.06C60.3024 6.82 60.4624 7.83333 60.4624 9.1C60.4624 9.75333 60.4358 10.4133 60.3824 11.08C60.3291 11.7467 60.2624 12.3667 60.1824 12.94C60.1024 13.5133 60.0158 13.9933 59.9224 14.38C59.7891 14.9133 59.5824 15.32 59.3024 15.6C59.0358 15.88 58.6958 16.02 58.2824 16.02C57.9358 16.02 57.6624 15.8667 57.4624 15.56C57.2624 15.2533 57.1624 14.8133 57.1624 14.24C57.1624 13.9733 57.1958 13.6333 57.2624 13.22C57.3291 12.7933 57.4024 12.3333 57.4824 11.84C57.5624 11.3333 57.6358 10.82 57.7024 10.3C57.7691 9.78 57.8024 9.28667 57.8024 8.82C57.8024 8.12667 57.6624 7.59333 57.3824 7.22C57.1024 6.83333 56.7091 6.64 56.2024 6.64C55.6424 6.64 55.1758 6.93333 54.8024 7.52C54.4424 8.09333 54.2291 8.93333 54.1624 10.04C54.1091 11.0267 54.0624 11.9067 54.0224 12.68C53.9824 13.44 53.8824 14.0667 53.7224 14.56C53.6158 14.9067 53.4624 15.1667 53.2624 15.34C53.0758 15.5133 52.8224 15.6 52.5024 15.6C52.1424 15.6 51.8558 15.4667 51.6424 15.2C51.4424 14.9333 51.3291 14.5133 51.3024 13.94C51.2758 13.46 51.2691 12.8933 51.2824 12.24C51.2958 11.5867 51.3024 10.94 51.3024 10.3C51.3158 9.64667 51.3091 9.10667 51.2824 8.68C51.2291 7.82667 51.0758 7.2 50.8224 6.8C50.5824 6.4 50.2158 6.2 49.7224 6.2C49.1491 6.2 48.6891 6.46667 48.3424 7C48.0091 7.53333 47.8024 8.27333 47.7224 9.22C47.6958 9.60667 47.6824 10.0867 47.6824 10.66C47.6958 11.22 47.7091 11.78 47.7224 12.34C47.7358 12.9 47.7291 13.3667 47.7024 13.74C47.6891 14.54 47.5624 15.1133 47.3224 15.46C47.0958 15.8067 46.7758 15.98 46.3624 15.98C45.8691 15.98 45.5091 15.82 45.2824 15.5C45.0691 15.18 44.9291 14.6667 44.8624 13.96C44.8091 13.3333 44.7691 12.7133 44.7424 12.1C44.7158 11.4733 44.7024 10.8533 44.7024 10.24C44.7024 9.61333 44.7158 8.93333 44.7424 8.2C44.7824 7.46667 44.8358 6.77333 44.9024 6.12C44.9824 5.45333 45.1224 4.89333 45.3224 4.44C45.5224 3.98667 45.8558 3.76 46.3224 3.76C46.7091 3.76 46.9824 3.95333 47.1424 4.34C47.3024 4.71333 47.3824 5.29333 47.3824 6.08C47.3824 6.34667 47.3624 6.59333 47.3224 6.82L47.2624 6.42C47.5291 5.55333 47.9558 4.88 48.5424 4.4C49.1291 3.90667 49.7824 3.66 50.5024 3.66C51.4491 3.66 52.1891 3.96667 52.7224 4.58C53.2558 5.18 53.5491 6.01333 53.6024 7.08L53.3224 6.84ZM71.6455 16.2C71.1922 16.2 70.8789 16.0267 70.7055 15.68C70.5455 15.32 70.4522 14.7533 70.4255 13.98L70.6255 14.08C69.8789 15.5333 68.4655 16.26 66.3855 16.26C65.4389 16.26 64.6522 16.0933 64.0255 15.76C63.3989 15.4133 62.9322 14.96 62.6255 14.4C62.3322 13.8267 62.1855 13.2067 62.1855 12.54C62.1855 11.3933 62.5855 10.4867 63.3855 9.82C64.1855 9.14 65.2455 8.8 66.5655 8.8C67.4322 8.8 68.1855 8.92667 68.8255 9.18C69.4655 9.43333 70.0122 9.78667 70.4655 10.24L70.1255 10.2C70.0322 8.85333 69.7389 7.89333 69.2455 7.32C68.7655 6.73333 68.0789 6.44 67.1855 6.44C66.6655 6.44 66.1855 6.52 65.7455 6.68C65.3055 6.84 64.8989 7.00667 64.5255 7.18C64.1655 7.34 63.8255 7.42 63.5055 7.42C63.1855 7.42 62.9322 7.31333 62.7455 7.1C62.5722 6.88667 62.4855 6.61333 62.4855 6.28C62.4855 5.8 62.7122 5.34667 63.1655 4.92C63.6322 4.49333 64.2455 4.14667 65.0055 3.88C65.7655 3.61333 66.5922 3.48 67.4855 3.48C68.5655 3.48 69.4922 3.74 70.2655 4.26C71.0389 4.78 71.6255 5.54 72.0255 6.54C72.3722 7.39333 72.6189 8.34667 72.7655 9.4C72.9122 10.4533 72.9855 11.58 72.9855 12.78C72.9855 13.6867 72.9389 14.3867 72.8455 14.88C72.7522 15.3733 72.6055 15.72 72.4055 15.92C72.2189 16.1067 71.9655 16.2 71.6455 16.2ZM67.2255 13.96C67.6655 13.96 68.1122 13.9 68.5655 13.78C69.0189 13.6467 69.3989 13.4533 69.7055 13.2C70.0122 12.9467 70.1655 12.6333 70.1655 12.26C70.1655 11.94 70.0322 11.68 69.7655 11.48C69.5122 11.2667 69.1722 11.1067 68.7455 11C68.3322 10.8933 67.8855 10.84 67.4055 10.84C66.5922 10.84 65.9722 10.98 65.5455 11.26C65.1322 11.54 64.9255 11.9133 64.9255 12.38C64.9255 12.8867 65.1189 13.28 65.5055 13.56C65.9055 13.8267 66.4789 13.96 67.2255 13.96ZM78.1996 3.96H77.7996C77.7596 3.37333 77.7729 2.82 77.8396 2.3C77.9063 1.76667 78.0463 1.34 78.2596 1.02C78.4863 0.686666 78.8063 0.519999 79.2196 0.519999C79.5929 0.519999 79.8663 0.639999 80.0396 0.879999C80.2129 1.12 80.2996 1.45333 80.2996 1.88C80.2996 2.72 80.1396 3.44 79.8196 4.04L79.4596 4C80.1796 3.74667 80.9929 3.62 81.8996 3.62C82.4729 3.62 82.9263 3.73333 83.2596 3.96C83.6063 4.17333 83.7796 4.54 83.7796 5.06C83.7796 5.55333 83.5796 5.92667 83.1796 6.18C82.7796 6.43333 82.2796 6.56 81.6796 6.56C81.3196 6.56 80.9329 6.54667 80.5196 6.52C80.1196 6.48 79.7263 6.42 79.3396 6.34L79.6796 5.92C79.7996 6.42667 79.9129 7.00667 80.0196 7.66C80.1396 8.3 80.2463 8.96667 80.3396 9.66C80.4329 10.3533 80.5063 11.0267 80.5596 11.68C80.6129 12.3333 80.6396 12.92 80.6396 13.44C80.6396 14.2933 80.5063 14.9667 80.2396 15.46C79.9729 15.9533 79.5796 16.2 79.0596 16.2C78.6463 16.2 78.3196 16.0733 78.0796 15.82C77.8529 15.5667 77.6863 15.2467 77.5796 14.86C77.4863 14.46 77.4263 14.0467 77.3996 13.62C77.3863 13.1933 77.3796 12.8067 77.3796 12.46C77.3796 11.8733 77.4063 11.2133 77.4596 10.48C77.5129 9.73333 77.5863 8.96667 77.6796 8.18C77.7863 7.39333 77.9063 6.63333 78.0396 5.9L78.4396 6.24C77.7596 6.58667 76.9196 6.76 75.9196 6.76C75.3063 6.76 74.8329 6.64667 74.4996 6.42C74.1663 6.19333 73.9996 5.84 73.9996 5.36C73.9996 4.84 74.1863 4.44 74.5596 4.16C74.9329 3.86667 75.4329 3.72 76.0596 3.72C76.4729 3.72 76.8596 3.74667 77.2196 3.8C77.5929 3.84 77.9196 3.89333 78.1996 3.96ZM92.2095 16.46C91.3695 16.46 90.7161 16.4067 90.2495 16.3C89.7961 16.1933 89.4828 16.0467 89.3095 15.86C89.1361 15.66 89.0428 15.44 89.0295 15.2C89.0295 14.8267 89.2495 14.5133 89.6895 14.26C90.1428 14.0067 90.9695 13.8467 92.1695 13.78L91.8495 14.16C91.7028 13.48 91.5961 12.6867 91.5295 11.78C91.4628 10.8733 91.4361 9.93333 91.4495 8.96C91.4628 7.98667 91.5095 7.06 91.5895 6.18C91.6695 5.28667 91.7828 4.52667 91.9295 3.9L93.6695 3.78C93.3761 3.9 93.0095 4.00667 92.5695 4.1C92.1295 4.18 91.6761 4.22 91.2095 4.22C90.3561 4.22 89.7228 4.12667 89.3095 3.94C88.9095 3.75333 88.7095 3.49333 88.7095 3.16C88.7095 2.57333 89.0628 2.12 89.7695 1.8C90.4895 1.46667 91.5895 1.3 93.0695 1.3C94.8295 1.3 96.3095 1.59333 97.5095 2.18C98.7228 2.75333 99.6428 3.56 100.269 4.6C100.896 5.62667 101.209 6.82667 101.209 8.2C101.209 9.4 100.996 10.5067 100.569 11.52C100.143 12.52 99.5295 13.3933 98.7295 14.14C97.9428 14.8733 96.9961 15.4467 95.8895 15.86C94.7961 16.26 93.5695 16.46 92.2095 16.46ZM95.0495 13.38C95.5028 13.38 95.9828 13.2 96.4895 12.84C97.0095 12.4667 97.4495 11.9267 97.8095 11.22C98.1695 10.5 98.3495 9.61333 98.3495 8.56C98.3495 7.78667 98.2361 7.11333 98.0095 6.54C97.7961 5.95333 97.5161 5.46667 97.1695 5.08C96.8228 4.69333 96.4561 4.40667 96.0695 4.22C95.6828 4.02 95.3161 3.92 94.9695 3.92C94.6895 3.92 94.4695 4.09333 94.3095 4.44C94.1628 4.78667 94.0561 5.30667 93.9895 6C93.9228 6.68 93.8895 7.52667 93.8895 8.54C93.8895 10.1133 93.9695 11.3133 94.1295 12.14C94.2895 12.9667 94.5961 13.38 95.0495 13.38ZM112.153 16.2C111.7 16.2 111.387 16.0267 111.213 15.68C111.053 15.32 110.96 14.7533 110.933 13.98L111.133 14.08C110.387 15.5333 108.973 16.26 106.893 16.26C105.947 16.26 105.16 16.0933 104.533 15.76C103.907 15.4133 103.44 14.96 103.133 14.4C102.84 13.8267 102.693 13.2067 102.693 12.54C102.693 11.3933 103.093 10.4867 103.893 9.82C104.693 9.14 105.753 8.8 107.073 8.8C107.94 8.8 108.693 8.92667 109.333 9.18C109.973 9.43333 110.52 9.78667 110.973 10.24L110.633 10.2C110.54 8.85333 110.247 7.89333 109.753 7.32C109.273 6.73333 108.587 6.44 107.693 6.44C107.173 6.44 106.693 6.52 106.253 6.68C105.813 6.84 105.407 7.00667 105.033 7.18C104.673 7.34 104.333 7.42 104.013 7.42C103.693 7.42 103.44 7.31333 103.253 7.1C103.08 6.88667 102.993 6.61333 102.993 6.28C102.993 5.8 103.22 5.34667 103.673 4.92C104.14 4.49333 104.753 4.14667 105.513 3.88C106.273 3.61333 107.1 3.48 107.993 3.48C109.073 3.48 110 3.74 110.773 4.26C111.547 4.78 112.133 5.54 112.533 6.54C112.88 7.39333 113.127 8.34667 113.273 9.4C113.42 10.4533 113.493 11.58 113.493 12.78C113.493 13.6867 113.447 14.3867 113.353 14.88C113.26 15.3733 113.113 15.72 112.913 15.92C112.727 16.1067 112.473 16.2 112.153 16.2ZM107.733 13.96C108.173 13.96 108.62 13.9 109.073 13.78C109.527 13.6467 109.907 13.4533 110.213 13.2C110.52 12.9467 110.673 12.6333 110.673 12.26C110.673 11.94 110.54 11.68 110.273 11.48C110.02 11.2667 109.68 11.1067 109.253 11C108.84 10.8933 108.393 10.84 107.913 10.84C107.1 10.84 106.48 10.98 106.053 11.26C105.64 11.54 105.433 11.9133 105.433 12.38C105.433 12.8867 105.627 13.28 106.013 13.56C106.413 13.8267 106.987 13.96 107.733 13.96ZM118.707 3.96H118.307C118.267 3.37333 118.281 2.82 118.347 2.3C118.414 1.76667 118.554 1.34 118.767 1.02C118.994 0.686666 119.314 0.519999 119.727 0.519999C120.101 0.519999 120.374 0.639999 120.547 0.879999C120.721 1.12 120.807 1.45333 120.807 1.88C120.807 2.72 120.647 3.44 120.327 4.04L119.967 4C120.687 3.74667 121.501 3.62 122.407 3.62C122.981 3.62 123.434 3.73333 123.767 3.96C124.114 4.17333 124.287 4.54 124.287 5.06C124.287 5.55333 124.087 5.92667 123.687 6.18C123.287 6.43333 122.787 6.56 122.187 6.56C121.827 6.56 121.441 6.54667 121.027 6.52C120.627 6.48 120.234 6.42 119.847 6.34L120.187 5.92C120.307 6.42667 120.421 7.00667 120.527 7.66C120.647 8.3 120.754 8.96667 120.847 9.66C120.941 10.3533 121.014 11.0267 121.067 11.68C121.121 12.3333 121.147 12.92 121.147 13.44C121.147 14.2933 121.014 14.9667 120.747 15.46C120.481 15.9533 120.087 16.2 119.567 16.2C119.154 16.2 118.827 16.0733 118.587 15.82C118.361 15.5667 118.194 15.2467 118.087 14.86C117.994 14.46 117.934 14.0467 117.907 13.62C117.894 13.1933 117.887 12.8067 117.887 12.46C117.887 11.8733 117.914 11.2133 117.967 10.48C118.021 9.73333 118.094 8.96667 118.187 8.18C118.294 7.39333 118.414 6.63333 118.547 5.9L118.947 6.24C118.267 6.58667 117.427 6.76 116.427 6.76C115.814 6.76 115.341 6.64667 115.007 6.42C114.674 6.19333 114.507 5.84 114.507 5.36C114.507 4.84 114.694 4.44 115.067 4.16C115.441 3.86667 115.941 3.72 116.567 3.72C116.981 3.72 117.367 3.74667 117.727 3.8C118.101 3.84 118.427 3.89333 118.707 3.96ZM134.653 16.2C134.2 16.2 133.887 16.0267 133.713 15.68C133.553 15.32 133.46 14.7533 133.433 13.98L133.633 14.08C132.887 15.5333 131.473 16.26 129.393 16.26C128.447 16.26 127.66 16.0933 127.033 15.76C126.407 15.4133 125.94 14.96 125.633 14.4C125.34 13.8267 125.193 13.2067 125.193 12.54C125.193 11.3933 125.593 10.4867 126.393 9.82C127.193 9.14 128.253 8.8 129.573 8.8C130.44 8.8 131.193 8.92667 131.833 9.18C132.473 9.43333 133.02 9.78667 133.473 10.24L133.133 10.2C133.04 8.85333 132.747 7.89333 132.253 7.32C131.773 6.73333 131.087 6.44 130.193 6.44C129.673 6.44 129.193 6.52 128.753 6.68C128.313 6.84 127.907 7.00667 127.533 7.18C127.173 7.34 126.833 7.42 126.513 7.42C126.193 7.42 125.94 7.31333 125.753 7.1C125.58 6.88667 125.493 6.61333 125.493 6.28C125.493 5.8 125.72 5.34667 126.173 4.92C126.64 4.49333 127.253 4.14667 128.013 3.88C128.773 3.61333 129.6 3.48 130.493 3.48C131.573 3.48 132.5 3.74 133.273 4.26C134.047 4.78 134.633 5.54 135.033 6.54C135.38 7.39333 135.627 8.34667 135.773 9.4C135.92 10.4533 135.993 11.58 135.993 12.78C135.993 13.6867 135.947 14.3867 135.853 14.88C135.76 15.3733 135.613 15.72 135.413 15.92C135.227 16.1067 134.973 16.2 134.653 16.2ZM130.233 13.96C130.673 13.96 131.12 13.9 131.573 13.78C132.027 13.6467 132.407 13.4533 132.713 13.2C133.02 12.9467 133.173 12.6333 133.173 12.26C133.173 11.94 133.04 11.68 132.773 11.48C132.52 11.2667 132.18 11.1067 131.753 11C131.34 10.8933 130.893 10.84 130.413 10.84C129.6 10.84 128.98 10.98 128.553 11.26C128.14 11.54 127.933 11.9133 127.933 12.38C127.933 12.8867 128.127 13.28 128.513 13.56C128.913 13.8267 129.487 13.96 130.233 13.96ZM140.473 3.56C140.9 3.56 141.186 3.73333 141.333 4.08C141.493 4.42667 141.573 4.94 141.573 5.62C141.573 5.78 141.56 5.95333 141.533 6.14C141.52 6.31333 141.493 6.47333 141.453 6.62L141.413 6.22C141.733 5.35333 142.226 4.68 142.893 4.2C143.56 3.70667 144.266 3.46 145.013 3.46C145.84 3.46 146.526 3.69333 147.073 4.16C147.633 4.62667 148.046 5.28 148.313 6.12C148.593 6.96 148.733 7.95333 148.733 9.1C148.733 9.80667 148.7 10.5067 148.633 11.2C148.58 11.88 148.5 12.5067 148.393 13.08C148.3 13.64 148.193 14.1 148.073 14.46C147.913 14.9133 147.706 15.2533 147.453 15.48C147.2 15.6933 146.9 15.8 146.553 15.8C146.206 15.8 145.94 15.6733 145.753 15.42C145.566 15.1667 145.473 14.8267 145.473 14.4C145.473 13.9467 145.506 13.4 145.573 12.76C145.64 12.1067 145.7 11.4467 145.753 10.78C145.82 10.1 145.853 9.48667 145.853 8.94C145.853 7.07333 145.24 6.14 144.013 6.14C143.36 6.14 142.813 6.43333 142.373 7.02C141.933 7.59333 141.64 8.41333 141.493 9.48C141.453 9.84 141.433 10.2867 141.433 10.82C141.433 11.3533 141.433 11.8867 141.433 12.42C141.446 12.94 141.433 13.38 141.393 13.74C141.34 14.54 141.186 15.1133 140.933 15.46C140.693 15.8067 140.36 15.98 139.933 15.98C139.44 15.98 139.066 15.7533 138.813 15.3C138.56 14.8333 138.433 14.0533 138.433 12.96C138.433 12.4 138.446 11.7733 138.473 11.08C138.5 10.3867 138.533 9.69333 138.573 9C138.626 8.29333 138.686 7.65333 138.753 7.08C138.886 6 139.08 5.14667 139.333 4.52C139.586 3.88 139.966 3.56 140.473 3.56ZM154.987 15.68C153.734 15.68 152.714 15.2 151.927 14.24C151.141 13.2667 150.747 11.7933 150.747 9.82C150.747 7.71333 151.127 6.17333 151.887 5.2C152.647 4.22667 153.647 3.74 154.887 3.74C155.621 3.74 156.267 3.92667 156.827 4.3C157.387 4.67333 157.867 5.2 158.267 5.88L158.107 6.16C158.067 5.97333 158.034 5.77333 158.007 5.56C157.981 5.34667 157.967 5.18667 157.967 5.08C157.967 4.53333 158.054 4.11333 158.227 3.82C158.414 3.51333 158.701 3.36 159.087 3.36C159.514 3.36 159.847 3.53333 160.087 3.88C160.341 4.22667 160.534 4.72 160.667 5.36C160.841 6.01333 160.987 6.84667 161.107 7.86C161.227 8.86 161.287 9.87333 161.287 10.9C161.287 12.18 161.241 13.2533 161.147 14.12C161.054 14.9867 160.901 15.7067 160.687 16.28C160.474 16.8533 160.194 17.3533 159.847 17.78C159.274 18.4733 158.534 19 157.627 19.36C156.734 19.7333 155.701 19.92 154.527 19.92C153.687 19.92 153.014 19.84 152.507 19.68C152.001 19.5333 151.634 19.3267 151.407 19.06C151.194 18.8067 151.087 18.52 151.087 18.2C151.087 17.8667 151.181 17.5867 151.367 17.36C151.554 17.1467 151.834 17.04 152.207 17.04C152.541 17.04 152.927 17.0933 153.367 17.2C153.821 17.3067 154.354 17.36 154.967 17.36C156.261 17.36 157.174 17.0533 157.707 16.44C158.254 15.84 158.527 14.9733 158.527 13.84C158.527 13.5333 158.507 13.1733 158.467 12.76L158.747 12.86C158.414 13.7133 157.921 14.4 157.267 14.92C156.614 15.4267 155.854 15.68 154.987 15.68ZM155.747 13.22C156.174 13.22 156.601 13.1067 157.027 12.88C157.454 12.6533 157.807 12.28 158.087 11.76C158.367 11.24 158.507 10.54 158.507 9.66C158.507 8.60667 158.261 7.74667 157.767 7.08C157.274 6.41333 156.581 6.08 155.687 6.08C154.914 6.08 154.347 6.37333 153.987 6.96C153.627 7.54667 153.447 8.43333 153.447 9.62C153.447 10.7533 153.627 11.64 153.987 12.28C154.347 12.9067 154.934 13.22 155.747 13.22ZM170.53 16.46C169.69 16.46 169.036 16.4067 168.57 16.3C168.116 16.1933 167.803 16.0467 167.63 15.86C167.456 15.66 167.363 15.44 167.35 15.2C167.35 14.8267 167.57 14.5133 168.01 14.26C168.463 14.0067 169.29 13.8467 170.49 13.78L170.17 14.16C170.023 13.48 169.916 12.6867 169.85 11.78C169.783 10.8733 169.756 9.93333 169.77 8.96C169.783 7.98667 169.83 7.06 169.91 6.18C169.99 5.28667 170.103 4.52667 170.25 3.9L171.99 3.78C171.696 3.9 171.33 4.00667 170.89 4.1C170.45 4.18 169.996 4.22 169.53 4.22C168.676 4.22 168.043 4.12667 167.63 3.94C167.23 3.75333 167.03 3.49333 167.03 3.16C167.03 2.57333 167.383 2.12 168.09 1.8C168.81 1.46667 169.91 1.3 171.39 1.3C173.15 1.3 174.63 1.59333 175.83 2.18C177.043 2.75333 177.963 3.56 178.59 4.6C179.216 5.62667 179.53 6.82667 179.53 8.2C179.53 9.4 179.316 10.5067 178.89 11.52C178.463 12.52 177.85 13.3933 177.05 14.14C176.263 14.8733 175.316 15.4467 174.21 15.86C173.116 16.26 171.89 16.46 170.53 16.46ZM173.37 13.38C173.823 13.38 174.303 13.2 174.81 12.84C175.33 12.4667 175.77 11.9267 176.13 11.22C176.49 10.5 176.67 9.61333 176.67 8.56C176.67 7.78667 176.556 7.11333 176.33 6.54C176.116 5.95333 175.836 5.46667 175.49 5.08C175.143 4.69333 174.776 4.40667 174.39 4.22C174.003 4.02 173.636 3.92 173.29 3.92C173.01 3.92 172.79 4.09333 172.63 4.44C172.483 4.78667 172.376 5.30667 172.31 6C172.243 6.68 172.21 7.52667 172.21 8.54C172.21 10.1133 172.29 11.3133 172.45 12.14C172.61 12.9667 172.916 13.38 173.37 13.38ZM183.494 0.66C184.027 0.66 184.407 0.806666 184.634 1.1C184.874 1.39333 184.994 1.73333 184.994 2.12C184.994 2.6 184.847 2.97333 184.554 3.24C184.274 3.49333 183.874 3.62 183.354 3.62C182.847 3.62 182.467 3.48 182.214 3.2C181.96 2.90667 181.834 2.56667 181.834 2.18C181.834 1.67333 181.987 1.29333 182.294 1.04C182.6 0.786666 183 0.66 183.494 0.66ZM183.614 5.12C184.04 5.12 184.374 5.52 184.614 6.32C184.867 7.12 184.994 8.39333 184.994 10.14C184.994 12.2867 184.84 13.8333 184.534 14.78C184.227 15.7267 183.76 16.2 183.134 16.2C182.654 16.2 182.3 15.8533 182.074 15.16C181.847 14.4533 181.734 13.2267 181.734 11.48C181.734 9.33333 181.907 7.74 182.254 6.7C182.614 5.64667 183.067 5.12 183.614 5.12ZM194.241 16.46C193.401 16.46 192.747 16.4067 192.281 16.3C191.827 16.1933 191.514 16.0467 191.341 15.86C191.167 15.66 191.074 15.44 191.061 15.2C191.061 14.8267 191.281 14.5133 191.721 14.26C192.174 14.0067 193.001 13.8467 194.201 13.78L193.881 14.16C193.734 13.48 193.627 12.6867 193.561 11.78C193.494 10.8733 193.467 9.93333 193.481 8.96C193.494 7.98667 193.541 7.06 193.621 6.18C193.701 5.28667 193.814 4.52667 193.961 3.9L195.701 3.78C195.407 3.9 195.041 4.00667 194.601 4.1C194.161 4.18 193.707 4.22 193.241 4.22C192.387 4.22 191.754 4.12667 191.341 3.94C190.941 3.75333 190.741 3.49333 190.741 3.16C190.741 2.57333 191.094 2.12 191.801 1.8C192.521 1.46667 193.621 1.3 195.101 1.3C196.861 1.3 198.341 1.59333 199.541 2.18C200.754 2.75333 201.674 3.56 202.301 4.6C202.927 5.62667 203.241 6.82667 203.241 8.2C203.241 9.4 203.027 10.5067 202.601 11.52C202.174 12.52 201.561 13.3933 200.761 14.14C199.974 14.8733 199.027 15.4467 197.921 15.86C196.827 16.26 195.601 16.46 194.241 16.46ZM197.081 13.38C197.534 13.38 198.014 13.2 198.521 12.84C199.041 12.4667 199.481 11.9267 199.841 11.22C200.201 10.5 200.381 9.61333 200.381 8.56C200.381 7.78667 200.267 7.11333 200.041 6.54C199.827 5.95333 199.547 5.46667 199.201 5.08C198.854 4.69333 198.487 4.40667 198.101 4.22C197.714 4.02 197.347 3.92 197.001 3.92C196.721 3.92 196.501 4.09333 196.341 4.44C196.194 4.78667 196.087 5.30667 196.021 6C195.954 6.68 195.921 7.52667 195.921 8.54C195.921 10.1133 196.001 11.3133 196.161 12.14C196.321 12.9667 196.627 13.38 197.081 13.38ZM214.445 15.88C214.085 15.88 213.805 15.76 213.605 15.52C213.418 15.2667 213.291 14.9467 213.225 14.56C213.158 14.16 213.125 13.74 213.125 13.3L213.225 13.22C213.091 13.7933 212.831 14.2867 212.445 14.7C212.058 15.1133 211.611 15.4333 211.105 15.66C210.598 15.8733 210.091 15.98 209.585 15.98C208.905 15.98 208.285 15.82 207.725 15.5C207.165 15.18 206.731 14.6867 206.425 14.02C206.118 13.3133 205.878 12.4267 205.705 11.36C205.531 10.28 205.445 9.17333 205.445 8.04C205.445 7.42667 205.471 6.86 205.525 6.34C205.578 5.82 205.665 5.39333 205.785 5.06C205.891 4.71333 206.051 4.46 206.265 4.3C206.478 4.12667 206.751 4.04 207.085 4.04C207.471 4.04 207.771 4.19333 207.985 4.5C208.211 4.79333 208.351 5.20667 208.405 5.74C208.458 6.18 208.491 6.72667 208.505 7.38C208.531 8.02 208.551 8.66667 208.565 9.32C208.591 9.96 208.625 10.5 208.665 10.94C208.745 11.74 208.951 12.3333 209.285 12.72C209.618 13.0933 210.025 13.28 210.505 13.28C211.211 13.28 211.751 13.0133 212.125 12.48C212.498 11.9467 212.685 11.2 212.685 10.24C212.685 9.76 212.658 9.22 212.605 8.62C212.551 8.00667 212.491 7.41333 212.425 6.84C212.371 6.26667 212.345 5.79333 212.345 5.42C212.345 4.79333 212.451 4.34667 212.665 4.08C212.878 3.8 213.171 3.66 213.545 3.66C213.865 3.66 214.131 3.74667 214.345 3.92C214.571 4.09333 214.751 4.33333 214.885 4.64C215.071 5.04 215.231 5.58667 215.365 6.28C215.498 6.97333 215.605 7.76 215.685 8.64C215.765 9.52 215.805 10.4467 215.805 11.42C215.805 12.9133 215.705 14.0333 215.505 14.78C215.305 15.5133 214.951 15.88 214.445 15.88ZM220.278 3.56C220.704 3.56 220.991 3.73333 221.138 4.08C221.298 4.42667 221.378 4.94 221.378 5.62C221.378 5.78 221.364 5.95333 221.338 6.14C221.324 6.31333 221.298 6.47333 221.258 6.62L221.218 6.22C221.538 5.35333 222.031 4.68 222.698 4.2C223.364 3.70667 224.071 3.46 224.818 3.46C225.644 3.46 226.331 3.69333 226.878 4.16C227.438 4.62667 227.851 5.28 228.118 6.12C228.398 6.96 228.538 7.95333 228.538 9.1C228.538 9.80667 228.504 10.5067 228.438 11.2C228.384 11.88 228.304 12.5067 228.198 13.08C228.104 13.64 227.998 14.1 227.878 14.46C227.718 14.9133 227.511 15.2533 227.258 15.48C227.004 15.6933 226.704 15.8 226.358 15.8C226.011 15.8 225.744 15.6733 225.558 15.42C225.371 15.1667 225.278 14.8267 225.278 14.4C225.278 13.9467 225.311 13.4 225.378 12.76C225.444 12.1067 225.504 11.4467 225.558 10.78C225.624 10.1 225.658 9.48667 225.658 8.94C225.658 7.07333 225.044 6.14 223.818 6.14C223.164 6.14 222.618 6.43333 222.178 7.02C221.738 7.59333 221.444 8.41333 221.298 9.48C221.258 9.84 221.238 10.2867 221.238 10.82C221.238 11.3533 221.238 11.8867 221.238 12.42C221.251 12.94 221.238 13.38 221.198 13.74C221.144 14.54 220.991 15.1133 220.738 15.46C220.498 15.8067 220.164 15.98 219.738 15.98C219.244 15.98 218.871 15.7533 218.618 15.3C218.364 14.8333 218.238 14.0533 218.238 12.96C218.238 12.4 218.251 11.7733 218.278 11.08C218.304 10.3867 218.338 9.69333 218.378 9C218.431 8.29333 218.491 7.65333 218.558 7.08C218.691 6 218.884 5.14667 219.138 4.52C219.391 3.88 219.771 3.56 220.278 3.56ZM232.732 0.66C233.265 0.66 233.645 0.806666 233.872 1.1C234.112 1.39333 234.232 1.73333 234.232 2.12C234.232 2.6 234.085 2.97333 233.792 3.24C233.512 3.49333 233.112 3.62 232.592 3.62C232.085 3.62 231.705 3.48 231.452 3.2C231.199 2.90667 231.072 2.56667 231.072 2.18C231.072 1.67333 231.225 1.29333 231.532 1.04C231.839 0.786666 232.239 0.66 232.732 0.66ZM232.852 5.12C233.279 5.12 233.612 5.52 233.852 6.32C234.105 7.12 234.232 8.39333 234.232 10.14C234.232 12.2867 234.079 13.8333 233.772 14.78C233.465 15.7267 232.999 16.2 232.372 16.2C231.892 16.2 231.539 15.8533 231.312 15.16C231.085 14.4533 230.972 13.2267 230.972 11.48C230.972 9.33333 231.145 7.74 231.492 6.7C231.852 5.64667 232.305 5.12 232.852 5.12ZM245.415 16.2C244.962 16.2 244.648 16.0267 244.475 15.68C244.315 15.32 244.222 14.7533 244.195 13.98L244.395 14.08C243.648 15.5333 242.235 16.26 240.155 16.26C239.208 16.26 238.422 16.0933 237.795 15.76C237.168 15.4133 236.702 14.96 236.395 14.4C236.102 13.8267 235.955 13.2067 235.955 12.54C235.955 11.3933 236.355 10.4867 237.155 9.82C237.955 9.14 239.015 8.8 240.335 8.8C241.202 8.8 241.955 8.92667 242.595 9.18C243.235 9.43333 243.782 9.78667 244.235 10.24L243.895 10.2C243.802 8.85333 243.508 7.89333 243.015 7.32C242.535 6.73333 241.848 6.44 240.955 6.44C240.435 6.44 239.955 6.52 239.515 6.68C239.075 6.84 238.668 7.00667 238.295 7.18C237.935 7.34 237.595 7.42 237.275 7.42C236.955 7.42 236.702 7.31333 236.515 7.1C236.342 6.88667 236.255 6.61333 236.255 6.28C236.255 5.8 236.482 5.34667 236.935 4.92C237.402 4.49333 238.015 4.14667 238.775 3.88C239.535 3.61333 240.362 3.48 241.255 3.48C242.335 3.48 243.262 3.74 244.035 4.26C244.808 4.78 245.395 5.54 245.795 6.54C246.142 7.39333 246.388 8.34667 246.535 9.4C246.682 10.4533 246.755 11.58 246.755 12.78C246.755 13.6867 246.708 14.3867 246.615 14.88C246.522 15.3733 246.375 15.72 246.175 15.92C245.988 16.1067 245.735 16.2 245.415 16.2ZM240.995 13.96C241.435 13.96 241.882 13.9 242.335 13.78C242.788 13.6467 243.168 13.4533 243.475 13.2C243.782 12.9467 243.935 12.6333 243.935 12.26C243.935 11.94 243.802 11.68 243.535 11.48C243.282 11.2667 242.942 11.1067 242.515 11C242.102 10.8933 241.655 10.84 241.175 10.84C240.362 10.84 239.742 10.98 239.315 11.26C238.902 11.54 238.695 11.9133 238.695 12.38C238.695 12.8867 238.888 13.28 239.275 13.56C239.675 13.8267 240.248 13.96 240.995 13.96ZM59.8817 40.1C59.0551 40.1 58.3684 39.9467 57.8217 39.64C57.2884 39.32 56.8884 38.8333 56.6217 38.18C56.4351 37.7267 56.2951 37.18 56.2017 36.54C56.1217 35.8867 56.0817 35.14 56.0817 34.3C56.0817 32.86 56.1284 31.6733 56.2217 30.74C56.3151 29.7933 56.4484 29.0333 56.6217 28.46C56.8084 27.8733 57.0151 27.4 57.2417 27.04C57.6017 26.4933 58.1751 26.0533 58.9617 25.72C59.7484 25.3867 60.8617 25.22 62.3017 25.22C63.2617 25.22 64.0284 25.3667 64.6017 25.66C65.1884 25.94 65.6084 26.3133 65.8617 26.78C66.1284 27.2467 66.2617 27.7667 66.2617 28.34C66.2617 29.2467 65.9951 29.9933 65.4617 30.58C64.9284 31.1667 64.2284 31.6333 63.3617 31.98V32.06C64.3084 32.1667 65.0417 32.4733 65.5617 32.98C66.0951 33.4733 66.3617 34.18 66.3617 35.1C66.3617 35.8333 66.1751 36.5067 65.8017 37.12C65.4417 37.72 64.9484 38.2467 64.3217 38.7C63.7084 39.14 63.0151 39.4867 62.2417 39.74C61.4684 39.98 60.6817 40.1 59.8817 40.1ZM60.5017 37.7C61.1417 37.7 61.7084 37.5933 62.2017 37.38C62.7084 37.1667 63.1017 36.88 63.3817 36.52C63.6751 36.1467 63.8217 35.7267 63.8217 35.26C63.8217 34.7533 63.5751 34.3333 63.0817 34C62.6017 33.6533 61.8484 33.48 60.8217 33.48C60.1284 33.48 59.5751 33.6467 59.1617 33.98C58.7617 34.3 58.5617 34.8533 58.5617 35.64C58.5617 36.3867 58.7217 36.92 59.0417 37.24C59.3617 37.5467 59.8484 37.7 60.5017 37.7ZM60.5817 31.36C61.4884 31.36 62.2417 31.16 62.8417 30.76C63.4551 30.3467 63.7617 29.8133 63.7617 29.16C63.7617 28.68 63.5684 28.2933 63.1817 28C62.7951 27.7067 62.2284 27.56 61.4817 27.56C60.6684 27.56 60.0017 27.72 59.4817 28.04C58.9617 28.36 58.7017 28.9067 58.7017 29.68C58.7017 30.3067 58.8684 30.7467 59.2017 31C59.5484 31.24 60.0084 31.36 60.5817 31.36ZM77.3194 40.2C76.866 40.2 76.5527 40.0267 76.3794 39.68C76.2194 39.32 76.126 38.7533 76.0994 37.98L76.2994 38.08C75.5527 39.5333 74.1394 40.26 72.0594 40.26C71.1127 40.26 70.326 40.0933 69.6994 39.76C69.0727 39.4133 68.606 38.96 68.2994 38.4C68.006 37.8267 67.8594 37.2067 67.8594 36.54C67.8594 35.3933 68.2594 34.4867 69.0594 33.82C69.8594 33.14 70.9194 32.8 72.2394 32.8C73.106 32.8 73.8594 32.9267 74.4994 33.18C75.1394 33.4333 75.686 33.7867 76.1394 34.24L75.7994 34.2C75.706 32.8533 75.4127 31.8933 74.9194 31.32C74.4394 30.7333 73.7527 30.44 72.8594 30.44C72.3394 30.44 71.8594 30.52 71.4194 30.68C70.9794 30.84 70.5727 31.0067 70.1994 31.18C69.8394 31.34 69.4994 31.42 69.1794 31.42C68.8594 31.42 68.606 31.3133 68.4194 31.1C68.246 30.8867 68.1594 30.6133 68.1594 30.28C68.1594 29.8 68.386 29.3467 68.8394 28.92C69.306 28.4933 69.9194 28.1467 70.6794 27.88C71.4394 27.6133 72.266 27.48 73.1594 27.48C74.2394 27.48 75.166 27.74 75.9394 28.26C76.7127 28.78 77.2994 29.54 77.6994 30.54C78.046 31.3933 78.2927 32.3467 78.4394 33.4C78.586 34.4533 78.6594 35.58 78.6594 36.78C78.6594 37.6867 78.6127 38.3867 78.5194 38.88C78.426 39.3733 78.2794 39.72 78.0794 39.92C77.8927 40.1067 77.6394 40.2 77.3194 40.2ZM72.8994 37.96C73.3394 37.96 73.786 37.9 74.2394 37.78C74.6927 37.6467 75.0727 37.4533 75.3794 37.2C75.686 36.9467 75.8394 36.6333 75.8394 36.26C75.8394 35.94 75.706 35.68 75.4394 35.48C75.186 35.2667 74.846 35.1067 74.4194 35C74.006 34.8933 73.5594 34.84 73.0794 34.84C72.266 34.84 71.646 34.98 71.2194 35.26C70.806 35.54 70.5994 35.9133 70.5994 36.38C70.5994 36.8867 70.7927 37.28 71.1794 37.56C71.5794 37.8267 72.1527 37.96 72.8994 37.96ZM83.1389 27.56C83.5656 27.56 83.8522 27.7333 83.9989 28.08C84.1589 28.4267 84.2389 28.94 84.2389 29.62C84.2389 29.78 84.2256 29.9533 84.1989 30.14C84.1856 30.3133 84.1589 30.4733 84.1189 30.62L84.0789 30.22C84.3989 29.3533 84.8922 28.68 85.5589 28.2C86.2256 27.7067 86.9322 27.46 87.6789 27.46C88.5056 27.46 89.1922 27.6933 89.7389 28.16C90.2989 28.6267 90.7122 29.28 90.9789 30.12C91.2589 30.96 91.3989 31.9533 91.3989 33.1C91.3989 33.8067 91.3656 34.5067 91.2989 35.2C91.2456 35.88 91.1656 36.5067 91.0589 37.08C90.9656 37.64 90.8589 38.1 90.7389 38.46C90.5789 38.9133 90.3722 39.2533 90.1189 39.48C89.8656 39.6933 89.5656 39.8 89.2189 39.8C88.8722 39.8 88.6056 39.6733 88.4189 39.42C88.2322 39.1667 88.1389 38.8267 88.1389 38.4C88.1389 37.9467 88.1722 37.4 88.2389 36.76C88.3056 36.1067 88.3656 35.4467 88.4189 34.78C88.4856 34.1 88.5189 33.4867 88.5189 32.94C88.5189 31.0733 87.9056 30.14 86.6789 30.14C86.0256 30.14 85.4789 30.4333 85.0389 31.02C84.5989 31.5933 84.3056 32.4133 84.1589 33.48C84.1189 33.84 84.0989 34.2867 84.0989 34.82C84.0989 35.3533 84.0989 35.8867 84.0989 36.42C84.1122 36.94 84.0989 37.38 84.0589 37.74C84.0056 38.54 83.8522 39.1133 83.5989 39.46C83.3589 39.8067 83.0256 39.98 82.5989 39.98C82.1056 39.98 81.7322 39.7533 81.4789 39.3C81.2256 38.8333 81.0989 38.0533 81.0989 36.96C81.0989 36.4 81.1122 35.7733 81.1389 35.08C81.1656 34.3867 81.1989 33.6933 81.2389 33C81.2922 32.2933 81.3522 31.6533 81.4189 31.08C81.5522 30 81.7456 29.1467 81.9989 28.52C82.2522 27.88 82.6322 27.56 83.1389 27.56ZM97.6533 39.68C96.3999 39.68 95.3799 39.2 94.5933 38.24C93.8066 37.2667 93.4133 35.7933 93.4133 33.82C93.4133 31.7133 93.7933 30.1733 94.5533 29.2C95.3133 28.2267 96.3133 27.74 97.5533 27.74C98.2866 27.74 98.9333 27.9267 99.4933 28.3C100.053 28.6733 100.533 29.2 100.933 29.88L100.773 30.16C100.733 29.9733 100.7 29.7733 100.673 29.56C100.647 29.3467 100.633 29.1867 100.633 29.08C100.633 28.5333 100.72 28.1133 100.893 27.82C101.08 27.5133 101.367 27.36 101.753 27.36C102.18 27.36 102.513 27.5333 102.753 27.88C103.007 28.2267 103.2 28.72 103.333 29.36C103.507 30.0133 103.653 30.8467 103.773 31.86C103.893 32.86 103.953 33.8733 103.953 34.9C103.953 36.18 103.907 37.2533 103.813 38.12C103.72 38.9867 103.567 39.7067 103.353 40.28C103.14 40.8533 102.86 41.3533 102.513 41.78C101.94 42.4733 101.2 43 100.293 43.36C99.3999 43.7333 98.3666 43.92 97.1933 43.92C96.3533 43.92 95.6799 43.84 95.1733 43.68C94.6666 43.5333 94.2999 43.3267 94.0733 43.06C93.8599 42.8067 93.7533 42.52 93.7533 42.2C93.7533 41.8667 93.8466 41.5867 94.0333 41.36C94.2199 41.1467 94.4999 41.04 94.8733 41.04C95.2066 41.04 95.5933 41.0933 96.0333 41.2C96.4866 41.3067 97.0199 41.36 97.6333 41.36C98.9266 41.36 99.8399 41.0533 100.373 40.44C100.92 39.84 101.193 38.9733 101.193 37.84C101.193 37.5333 101.173 37.1733 101.133 36.76L101.413 36.86C101.08 37.7133 100.587 38.4 99.9333 38.92C99.2799 39.4267 98.5199 39.68 97.6533 39.68ZM98.4133 37.22C98.8399 37.22 99.2666 37.1067 99.6933 36.88C100.12 36.6533 100.473 36.28 100.753 35.76C101.033 35.24 101.173 34.54 101.173 33.66C101.173 32.6067 100.927 31.7467 100.433 31.08C99.9399 30.4133 99.2466 30.08 98.3533 30.08C97.5799 30.08 97.0133 30.3733 96.6533 30.96C96.2933 31.5467 96.1133 32.4333 96.1133 33.62C96.1133 34.7533 96.2933 35.64 96.6533 36.28C97.0133 36.9067 97.5999 37.22 98.4133 37.22ZM115.392 39.88C115.032 39.88 114.752 39.76 114.552 39.52C114.365 39.2667 114.239 38.9467 114.172 38.56C114.105 38.16 114.072 37.74 114.072 37.3L114.172 37.22C114.039 37.7933 113.779 38.2867 113.392 38.7C113.005 39.1133 112.559 39.4333 112.052 39.66C111.545 39.8733 111.039 39.98 110.532 39.98C109.852 39.98 109.232 39.82 108.672 39.5C108.112 39.18 107.679 38.6867 107.372 38.02C107.065 37.3133 106.825 36.4267 106.652 35.36C106.479 34.28 106.392 33.1733 106.392 32.04C106.392 31.4267 106.419 30.86 106.472 30.34C106.525 29.82 106.612 29.3933 106.732 29.06C106.839 28.7133 106.999 28.46 107.212 28.3C107.425 28.1267 107.699 28.04 108.032 28.04C108.419 28.04 108.719 28.1933 108.932 28.5C109.159 28.7933 109.299 29.2067 109.352 29.74C109.405 30.18 109.439 30.7267 109.452 31.38C109.479 32.02 109.499 32.6667 109.512 33.32C109.539 33.96 109.572 34.5 109.612 34.94C109.692 35.74 109.899 36.3333 110.232 36.72C110.565 37.0933 110.972 37.28 111.452 37.28C112.159 37.28 112.699 37.0133 113.072 36.48C113.445 35.9467 113.632 35.2 113.632 34.24C113.632 33.76 113.605 33.22 113.552 32.62C113.499 32.0067 113.439 31.4133 113.372 30.84C113.319 30.2667 113.292 29.7933 113.292 29.42C113.292 28.7933 113.399 28.3467 113.612 28.08C113.825 27.8 114.119 27.66 114.492 27.66C114.812 27.66 115.079 27.7467 115.292 27.92C115.519 28.0933 115.699 28.3333 115.832 28.64C116.019 29.04 116.179 29.5867 116.312 30.28C116.445 30.9733 116.552 31.76 116.632 32.64C116.712 33.52 116.752 34.4467 116.752 35.42C116.752 36.9133 116.652 38.0333 116.452 38.78C116.252 39.5133 115.899 39.88 115.392 39.88ZM121.225 27.56C121.652 27.56 121.938 27.7333 122.085 28.08C122.245 28.4267 122.325 28.94 122.325 29.62C122.325 29.78 122.312 29.9533 122.285 30.14C122.272 30.3133 122.245 30.4733 122.205 30.62L122.165 30.22C122.485 29.3533 122.978 28.68 123.645 28.2C124.312 27.7067 125.018 27.46 125.765 27.46C126.592 27.46 127.278 27.6933 127.825 28.16C128.385 28.6267 128.798 29.28 129.065 30.12C129.345 30.96 129.485 31.9533 129.485 33.1C129.485 33.8067 129.452 34.5067 129.385 35.2C129.332 35.88 129.252 36.5067 129.145 37.08C129.052 37.64 128.945 38.1 128.825 38.46C128.665 38.9133 128.458 39.2533 128.205 39.48C127.952 39.6933 127.652 39.8 127.305 39.8C126.958 39.8 126.692 39.6733 126.505 39.42C126.318 39.1667 126.225 38.8267 126.225 38.4C126.225 37.9467 126.258 37.4 126.325 36.76C126.392 36.1067 126.452 35.4467 126.505 34.78C126.572 34.1 126.605 33.4867 126.605 32.94C126.605 31.0733 125.992 30.14 124.765 30.14C124.112 30.14 123.565 30.4333 123.125 31.02C122.685 31.5933 122.392 32.4133 122.245 33.48C122.205 33.84 122.185 34.2867 122.185 34.82C122.185 35.3533 122.185 35.8867 122.185 36.42C122.198 36.94 122.185 37.38 122.145 37.74C122.092 38.54 121.938 39.1133 121.685 39.46C121.445 39.8067 121.112 39.98 120.685 39.98C120.192 39.98 119.818 39.7533 119.565 39.3C119.312 38.8333 119.185 38.0533 119.185 36.96C119.185 36.4 119.198 35.7733 119.225 35.08C119.252 34.3867 119.285 33.6933 119.325 33C119.378 32.2933 119.438 31.6533 119.505 31.08C119.638 30 119.832 29.1467 120.085 28.52C120.338 27.88 120.718 27.56 121.225 27.56ZM138.723 40.46C137.883 40.46 137.23 40.4067 136.763 40.3C136.31 40.1933 135.996 40.0467 135.823 39.86C135.65 39.66 135.556 39.44 135.543 39.2C135.543 38.8267 135.763 38.5133 136.203 38.26C136.656 38.0067 137.483 37.8467 138.683 37.78L138.363 38.16C138.216 37.48 138.11 36.6867 138.043 35.78C137.976 34.8733 137.95 33.9333 137.963 32.96C137.976 31.9867 138.023 31.06 138.103 30.18C138.183 29.2867 138.296 28.5267 138.443 27.9L140.183 27.78C139.89 27.9 139.523 28.0067 139.083 28.1C138.643 28.18 138.19 28.22 137.723 28.22C136.87 28.22 136.236 28.1267 135.823 27.94C135.423 27.7533 135.223 27.4933 135.223 27.16C135.223 26.5733 135.576 26.12 136.283 25.8C137.003 25.4667 138.103 25.3 139.583 25.3C141.343 25.3 142.823 25.5933 144.023 26.18C145.236 26.7533 146.156 27.56 146.783 28.6C147.41 29.6267 147.723 30.8267 147.723 32.2C147.723 33.4 147.51 34.5067 147.083 35.52C146.656 36.52 146.043 37.3933 145.243 38.14C144.456 38.8733 143.51 39.4467 142.403 39.86C141.31 40.26 140.083 40.46 138.723 40.46ZM141.563 37.38C142.016 37.38 142.496 37.2 143.003 36.84C143.523 36.4667 143.963 35.9267 144.323 35.22C144.683 34.5 144.863 33.6133 144.863 32.56C144.863 31.7867 144.75 31.1133 144.523 30.54C144.31 29.9533 144.03 29.4667 143.683 29.08C143.336 28.6933 142.97 28.4067 142.583 28.22C142.196 28.02 141.83 27.92 141.483 27.92C141.203 27.92 140.983 28.0933 140.823 28.44C140.676 28.7867 140.57 29.3067 140.503 30C140.436 30.68 140.403 31.5267 140.403 32.54C140.403 34.1133 140.483 35.3133 140.643 36.14C140.803 36.9667 141.11 37.38 141.563 37.38ZM158.667 40.2C158.214 40.2 157.9 40.0267 157.727 39.68C157.567 39.32 157.474 38.7533 157.447 37.98L157.647 38.08C156.9 39.5333 155.487 40.26 153.407 40.26C152.46 40.26 151.674 40.0933 151.047 39.76C150.42 39.4133 149.954 38.96 149.647 38.4C149.354 37.8267 149.207 37.2067 149.207 36.54C149.207 35.3933 149.607 34.4867 150.407 33.82C151.207 33.14 152.267 32.8 153.587 32.8C154.454 32.8 155.207 32.9267 155.847 33.18C156.487 33.4333 157.034 33.7867 157.487 34.24L157.147 34.2C157.054 32.8533 156.76 31.8933 156.267 31.32C155.787 30.7333 155.1 30.44 154.207 30.44C153.687 30.44 153.207 30.52 152.767 30.68C152.327 30.84 151.92 31.0067 151.547 31.18C151.187 31.34 150.847 31.42 150.527 31.42C150.207 31.42 149.954 31.3133 149.767 31.1C149.594 30.8867 149.507 30.6133 149.507 30.28C149.507 29.8 149.734 29.3467 150.187 28.92C150.654 28.4933 151.267 28.1467 152.027 27.88C152.787 27.6133 153.614 27.48 154.507 27.48C155.587 27.48 156.514 27.74 157.287 28.26C158.06 28.78 158.647 29.54 159.047 30.54C159.394 31.3933 159.64 32.3467 159.787 33.4C159.934 34.4533 160.007 35.58 160.007 36.78C160.007 37.6867 159.96 38.3867 159.867 38.88C159.774 39.3733 159.627 39.72 159.427 39.92C159.24 40.1067 158.987 40.2 158.667 40.2ZM154.247 37.96C154.687 37.96 155.134 37.9 155.587 37.78C156.04 37.6467 156.42 37.4533 156.727 37.2C157.034 36.9467 157.187 36.6333 157.187 36.26C157.187 35.94 157.054 35.68 156.787 35.48C156.534 35.2667 156.194 35.1067 155.767 35C155.354 34.8933 154.907 34.84 154.427 34.84C153.614 34.84 152.994 34.98 152.567 35.26C152.154 35.54 151.947 35.9133 151.947 36.38C151.947 36.8867 152.14 37.28 152.527 37.56C152.927 37.8267 153.5 37.96 154.247 37.96ZM165.221 27.96H164.821C164.781 27.3733 164.794 26.82 164.861 26.3C164.928 25.7667 165.068 25.34 165.281 25.02C165.508 24.6867 165.828 24.52 166.241 24.52C166.614 24.52 166.888 24.64 167.061 24.88C167.234 25.12 167.321 25.4533 167.321 25.88C167.321 26.72 167.161 27.44 166.841 28.04L166.481 28C167.201 27.7467 168.014 27.62 168.921 27.62C169.494 27.62 169.948 27.7333 170.281 27.96C170.628 28.1733 170.801 28.54 170.801 29.06C170.801 29.5533 170.601 29.9267 170.201 30.18C169.801 30.4333 169.301 30.56 168.701 30.56C168.341 30.56 167.954 30.5467 167.541 30.52C167.141 30.48 166.748 30.42 166.361 30.34L166.701 29.92C166.821 30.4267 166.934 31.0067 167.041 31.66C167.161 32.3 167.268 32.9667 167.361 33.66C167.454 34.3533 167.528 35.0267 167.581 35.68C167.634 36.3333 167.661 36.92 167.661 37.44C167.661 38.2933 167.528 38.9667 167.261 39.46C166.994 39.9533 166.601 40.2 166.081 40.2C165.668 40.2 165.341 40.0733 165.101 39.82C164.874 39.5667 164.708 39.2467 164.601 38.86C164.508 38.46 164.448 38.0467 164.421 37.62C164.408 37.1933 164.401 36.8067 164.401 36.46C164.401 35.8733 164.428 35.2133 164.481 34.48C164.534 33.7333 164.608 32.9667 164.701 32.18C164.808 31.3933 164.928 30.6333 165.061 29.9L165.461 30.24C164.781 30.5867 163.941 30.76 162.941 30.76C162.328 30.76 161.854 30.6467 161.521 30.42C161.188 30.1933 161.021 29.84 161.021 29.36C161.021 28.84 161.208 28.44 161.581 28.16C161.954 27.8667 162.454 27.72 163.081 27.72C163.494 27.72 163.881 27.7467 164.241 27.8C164.614 27.84 164.941 27.8933 165.221 27.96ZM181.167 40.2C180.714 40.2 180.4 40.0267 180.227 39.68C180.067 39.32 179.974 38.7533 179.947 37.98L180.147 38.08C179.4 39.5333 177.987 40.26 175.907 40.26C174.96 40.26 174.174 40.0933 173.547 39.76C172.92 39.4133 172.454 38.96 172.147 38.4C171.854 37.8267 171.707 37.2067 171.707 36.54C171.707 35.3933 172.107 34.4867 172.907 33.82C173.707 33.14 174.767 32.8 176.087 32.8C176.954 32.8 177.707 32.9267 178.347 33.18C178.987 33.4333 179.534 33.7867 179.987 34.24L179.647 34.2C179.554 32.8533 179.26 31.8933 178.767 31.32C178.287 30.7333 177.6 30.44 176.707 30.44C176.187 30.44 175.707 30.52 175.267 30.68C174.827 30.84 174.42 31.0067 174.047 31.18C173.687 31.34 173.347 31.42 173.027 31.42C172.707 31.42 172.454 31.3133 172.267 31.1C172.094 30.8867 172.007 30.6133 172.007 30.28C172.007 29.8 172.234 29.3467 172.687 28.92C173.154 28.4933 173.767 28.1467 174.527 27.88C175.287 27.6133 176.114 27.48 177.007 27.48C178.087 27.48 179.014 27.74 179.787 28.26C180.56 28.78 181.147 29.54 181.547 30.54C181.894 31.3933 182.14 32.3467 182.287 33.4C182.434 34.4533 182.507 35.58 182.507 36.78C182.507 37.6867 182.46 38.3867 182.367 38.88C182.274 39.3733 182.127 39.72 181.927 39.92C181.74 40.1067 181.487 40.2 181.167 40.2ZM176.747 37.96C177.187 37.96 177.634 37.9 178.087 37.78C178.54 37.6467 178.92 37.4533 179.227 37.2C179.534 36.9467 179.687 36.6333 179.687 36.26C179.687 35.94 179.554 35.68 179.287 35.48C179.034 35.2667 178.694 35.1067 178.267 35C177.854 34.8933 177.407 34.84 176.927 34.84C176.114 34.84 175.494 34.98 175.067 35.26C174.654 35.54 174.447 35.9133 174.447 36.38C174.447 36.8867 174.64 37.28 175.027 37.56C175.427 37.8267 176 37.96 176.747 37.96ZM184.947 30.98C184.947 29.7 185.067 28.78 185.307 28.22C185.547 27.6467 185.887 27.36 186.327 27.36C186.673 27.36 186.947 27.5067 187.147 27.8C187.347 28.08 187.493 28.4333 187.587 28.86C187.68 29.2733 187.727 29.6933 187.727 30.12L187.627 30.08C187.853 29.36 188.2 28.74 188.667 28.22C189.147 27.7 189.72 27.44 190.387 27.44C191.173 27.44 191.753 27.7667 192.127 28.42C192.5 29.06 192.687 29.86 192.687 30.82C192.687 32.1 192.54 32.9933 192.247 33.5C191.953 34.0067 191.56 34.26 191.067 34.26C190.707 34.26 190.44 34.1133 190.267 33.82C190.107 33.5267 190.053 33.0067 190.107 32.26C190.16 31.4733 190.113 30.9267 189.967 30.62C189.82 30.3133 189.587 30.16 189.267 30.16C188.88 30.16 188.56 30.4067 188.307 30.9C188.067 31.38 187.947 31.9733 187.947 32.68C187.947 32.96 187.98 33.3133 188.047 33.74C188.113 34.1667 188.187 34.6333 188.267 35.14C188.347 35.6333 188.42 36.1267 188.487 36.62C188.553 37.1133 188.587 37.5667 188.587 37.98C188.587 38.7133 188.473 39.24 188.247 39.56C188.02 39.88 187.7 40.04 187.287 40.04C186.82 40.04 186.46 39.8933 186.207 39.6C185.953 39.2933 185.76 38.8 185.627 38.12C185.52 37.5067 185.413 36.78 185.307 35.94C185.2 35.1 185.113 34.24 185.047 33.36C184.98 32.48 184.947 31.6867 184.947 30.98Z"></path>
</svg>
