<svg xmlns="http://www.w3.org/2000/svg" fill="none" viewBox="0 0 129 13" height="13" width="129">
<path fill="black" d="M3.156 10.036C2.892 10.036 2.596 10.02 2.268 9.988C1.948 9.956 1.636 9.896 1.332 9.808C1.036 9.712 0.788 9.584 0.588 9.424C0.396 9.256 0.3 9.04 0.3 8.776C0.3 8.504 0.384 8.3 0.552 8.164C0.728 8.028 1.012 7.96 1.404 7.96C1.676 7.96 1.98 7.996 2.316 8.068C2.66 8.14 2.988 8.176 3.3 8.176C3.764 8.176 4.104 8.104 4.32 7.96C4.544 7.816 4.656 7.62 4.656 7.372C4.656 7.22 4.612 7.084 4.524 6.964C4.444 6.844 4.28 6.724 4.032 6.604C3.784 6.484 3.412 6.352 2.916 6.208C2.348 6.056 1.888 5.888 1.536 5.704C1.184 5.512 0.928 5.284 0.768 5.02C0.608 4.756 0.528 4.444 0.528 4.084C0.528 3.644 0.604 3.264 0.756 2.944C0.916 2.616 1.128 2.34 1.392 2.116C1.656 1.884 1.952 1.7 2.28 1.564C2.608 1.428 2.94 1.328 3.276 1.264C3.62 1.2 3.948 1.168 4.26 1.168C4.948 1.168 5.508 1.276 5.94 1.492C6.38 1.708 6.6 1.996 6.6 2.356C6.6 2.612 6.516 2.82 6.348 2.98C6.188 3.14 5.94 3.22 5.604 3.22C5.46 3.22 5.288 3.2 5.088 3.16C4.888 3.12 4.668 3.08 4.428 3.04C4.188 3 3.924 2.98 3.636 2.98C3.148 2.98 2.772 3.056 2.508 3.208C2.244 3.36 2.112 3.604 2.112 3.94C2.112 4.084 2.148 4.216 2.22 4.336C2.3 4.456 2.464 4.58 2.712 4.708C2.96 4.836 3.34 4.984 3.852 5.152C4.484 5.344 4.98 5.556 5.34 5.788C5.7 6.012 5.956 6.268 6.108 6.556C6.26 6.844 6.336 7.168 6.336 7.528C6.336 8.024 6.2 8.464 5.928 8.848C5.664 9.224 5.292 9.516 4.812 9.724C4.34 9.932 3.788 10.036 3.156 10.036ZM13.0343 9.928C12.8183 9.928 12.6503 9.856 12.5303 9.712C12.4183 9.56 12.3423 9.368 12.3023 9.136C12.2623 8.896 12.2423 8.644 12.2423 8.38L12.3023 8.332C12.2223 8.676 12.0663 8.972 11.8343 9.22C11.6023 9.468 11.3343 9.66 11.0303 9.796C10.7263 9.924 10.4223 9.988 10.1183 9.988C9.71034 9.988 9.33834 9.892 9.00234 9.7C8.66634 9.508 8.40634 9.212 8.22234 8.812C8.03834 8.388 7.89434 7.856 7.79034 7.216C7.68634 6.568 7.63434 5.904 7.63434 5.224C7.63434 4.856 7.65034 4.516 7.68234 4.204C7.71434 3.892 7.76634 3.636 7.83834 3.436C7.90234 3.228 7.99834 3.076 8.12634 2.98C8.25434 2.876 8.41834 2.824 8.61834 2.824C8.85034 2.824 9.03034 2.916 9.15834 3.1C9.29434 3.276 9.37834 3.524 9.41034 3.844C9.44234 4.108 9.46234 4.436 9.47034 4.828C9.48634 5.212 9.49834 5.6 9.50634 5.992C9.52234 6.376 9.54234 6.7 9.56634 6.964C9.61434 7.444 9.73834 7.8 9.93834 8.032C10.1383 8.256 10.3823 8.368 10.6703 8.368C11.0943 8.368 11.4183 8.208 11.6423 7.888C11.8663 7.568 11.9783 7.12 11.9783 6.544C11.9783 6.256 11.9623 5.932 11.9303 5.572C11.8983 5.204 11.8623 4.848 11.8223 4.504C11.7903 4.16 11.7743 3.876 11.7743 3.652C11.7743 3.276 11.8383 3.008 11.9663 2.848C12.0943 2.68 12.2703 2.596 12.4943 2.596C12.6863 2.596 12.8463 2.648 12.9743 2.752C13.1103 2.856 13.2183 3 13.2983 3.184C13.4103 3.424 13.5063 3.752 13.5863 4.168C13.6663 4.584 13.7303 5.056 13.7783 5.584C13.8263 6.112 13.8503 6.668 13.8503 7.252C13.8503 8.148 13.7903 8.82 13.6703 9.268C13.5503 9.708 13.3383 9.928 13.0343 9.928ZM17.5541 10.168C16.7701 10.168 16.1581 9.876 15.7181 9.292C15.2781 8.7 15.0581 7.8 15.0581 6.592C15.0581 5.392 15.2741 4.516 15.7061 3.964C16.1461 3.404 16.7741 3.124 17.5901 3.124C18.0541 3.124 18.4581 3.22 18.8021 3.412C19.1541 3.604 19.4661 3.876 19.7381 4.228L19.6421 4.276C19.5701 3.948 19.4981 3.6 19.4261 3.232C19.3541 2.864 19.2941 2.516 19.2461 2.188C19.2061 1.852 19.1861 1.588 19.1861 1.396C19.1861 1.124 19.2301 0.915999 19.3181 0.771999C19.4061 0.619999 19.5461 0.543999 19.7381 0.543999C20.0101 0.543999 20.2301 0.659999 20.3981 0.891999C20.5661 1.116 20.7061 1.464 20.8181 1.936C20.9221 2.36 21.0141 2.864 21.0941 3.448C21.1741 4.024 21.2381 4.628 21.2861 5.26C21.3421 5.884 21.3701 6.484 21.3701 7.06C21.3701 7.86 21.3261 8.484 21.2381 8.932C21.1581 9.372 21.0421 9.68 20.8901 9.856C20.7461 10.032 20.5741 10.12 20.3741 10.12C20.1261 10.12 19.9581 9.996 19.8701 9.748C19.7821 9.5 19.7461 9.096 19.7621 8.536H19.9421C19.7261 9.032 19.4101 9.428 18.9941 9.724C18.5861 10.02 18.1061 10.168 17.5541 10.168ZM18.1901 8.68C18.4781 8.68 18.7421 8.608 18.9821 8.464C19.2301 8.312 19.4261 8.08 19.5701 7.768C19.7221 7.456 19.7981 7.06 19.7981 6.58C19.7981 5.964 19.6581 5.464 19.3781 5.08C19.0981 4.688 18.6941 4.492 18.1661 4.492C17.7501 4.492 17.4101 4.664 17.1461 5.008C16.8901 5.352 16.7621 5.872 16.7621 6.568C16.7621 7.184 16.8901 7.692 17.1461 8.092C17.4101 8.484 17.7581 8.68 18.1901 8.68ZM28.2336 9.928C28.0176 9.928 27.8496 9.856 27.7296 9.712C27.6176 9.56 27.5416 9.368 27.5016 9.136C27.4616 8.896 27.4416 8.644 27.4416 8.38L27.5016 8.332C27.4216 8.676 27.2656 8.972 27.0336 9.22C26.8016 9.468 26.5336 9.66 26.2296 9.796C25.9256 9.924 25.6216 9.988 25.3176 9.988C24.9096 9.988 24.5376 9.892 24.2016 9.7C23.8656 9.508 23.6056 9.212 23.4216 8.812C23.2376 8.388 23.0936 7.856 22.9896 7.216C22.8856 6.568 22.8336 5.904 22.8336 5.224C22.8336 4.856 22.8496 4.516 22.8816 4.204C22.9136 3.892 22.9656 3.636 23.0376 3.436C23.1016 3.228 23.1976 3.076 23.3256 2.98C23.4536 2.876 23.6176 2.824 23.8176 2.824C24.0496 2.824 24.2296 2.916 24.3576 3.1C24.4936 3.276 24.5776 3.524 24.6096 3.844C24.6416 4.108 24.6616 4.436 24.6696 4.828C24.6856 5.212 24.6976 5.6 24.7056 5.992C24.7216 6.376 24.7416 6.7 24.7656 6.964C24.8136 7.444 24.9376 7.8 25.1376 8.032C25.3376 8.256 25.5816 8.368 25.8696 8.368C26.2936 8.368 26.6176 8.208 26.8416 7.888C27.0656 7.568 27.1776 7.12 27.1776 6.544C27.1776 6.256 27.1616 5.932 27.1296 5.572C27.0976 5.204 27.0616 4.848 27.0216 4.504C26.9896 4.16 26.9736 3.876 26.9736 3.652C26.9736 3.276 27.0376 3.008 27.1656 2.848C27.2936 2.68 27.4696 2.596 27.6936 2.596C27.8856 2.596 28.0456 2.648 28.1736 2.752C28.3096 2.856 28.4176 3 28.4976 3.184C28.6096 3.424 28.7056 3.752 28.7856 4.168C28.8656 4.584 28.9296 5.056 28.9776 5.584C29.0256 6.112 29.0496 6.668 29.0496 7.252C29.0496 8.148 28.9896 8.82 28.8696 9.268C28.7496 9.708 28.5376 9.928 28.2336 9.928ZM32.5373 2.776H32.2973C32.2733 2.424 32.2813 2.092 32.3213 1.78C32.3613 1.46 32.4453 1.204 32.5733 1.012C32.7093 0.812 32.9013 0.711999 33.1493 0.711999C33.3733 0.711999 33.5373 0.783999 33.6413 0.927999C33.7453 1.072 33.7973 1.272 33.7973 1.528C33.7973 2.032 33.7013 2.464 33.5093 2.824L33.2933 2.8C33.7253 2.648 34.2133 2.572 34.7573 2.572C35.1013 2.572 35.3733 2.64 35.5733 2.776C35.7813 2.904 35.8853 3.124 35.8853 3.436C35.8853 3.732 35.7653 3.956 35.5253 4.108C35.2853 4.26 34.9853 4.336 34.6253 4.336C34.4093 4.336 34.1773 4.328 33.9293 4.312C33.6893 4.288 33.4533 4.252 33.2213 4.204L33.4253 3.952C33.4973 4.256 33.5653 4.604 33.6293 4.996C33.7013 5.38 33.7653 5.78 33.8213 6.196C33.8773 6.612 33.9213 7.016 33.9533 7.408C33.9853 7.8 34.0013 8.152 34.0013 8.464C34.0013 8.976 33.9213 9.38 33.7613 9.676C33.6013 9.972 33.3653 10.12 33.0533 10.12C32.8053 10.12 32.6093 10.044 32.4653 9.892C32.3293 9.74 32.2293 9.548 32.1653 9.316C32.1093 9.076 32.0733 8.828 32.0573 8.572C32.0493 8.316 32.0453 8.084 32.0453 7.876C32.0453 7.524 32.0613 7.128 32.0933 6.688C32.1253 6.24 32.1693 5.78 32.2253 5.308C32.2893 4.836 32.3613 4.38 32.4413 3.94L32.6813 4.144C32.2733 4.352 31.7693 4.456 31.1693 4.456C30.8013 4.456 30.5173 4.388 30.3173 4.252C30.1173 4.116 30.0173 3.904 30.0173 3.616C30.0173 3.304 30.1293 3.064 30.3533 2.896C30.5773 2.72 30.8773 2.632 31.2533 2.632C31.5013 2.632 31.7333 2.648 31.9493 2.68C32.1733 2.704 32.3693 2.736 32.5373 2.776ZM39.6233 10.084C39.3913 10.084 39.2113 9.996 39.0833 9.82C38.9553 9.644 38.8913 9.324 38.8913 8.86C38.8913 8.532 38.9273 8.14 38.9993 7.684C39.0793 7.22 39.1873 6.728 39.3232 6.208C39.4593 5.68 39.6193 5.156 39.8033 4.636C39.9873 4.108 40.1873 3.616 40.4033 3.16C40.6433 2.64 40.8753 2.236 41.0993 1.948C41.3233 1.652 41.5513 1.444 41.7833 1.324C42.0153 1.196 42.2593 1.132 42.5153 1.132C42.8993 1.132 43.2513 1.284 43.5713 1.588C43.8993 1.892 44.2113 2.396 44.5073 3.1C44.7233 3.636 44.9193 4.224 45.0953 4.864C45.2713 5.504 45.4073 6.152 45.5033 6.808C45.6073 7.464 45.6593 8.084 45.6593 8.668C45.6593 9.156 45.5753 9.516 45.4073 9.748C45.2473 9.972 45.0233 10.084 44.7353 10.084C44.4553 10.084 44.2393 9.96 44.0873 9.712C43.9353 9.464 43.8273 9.052 43.7633 8.476C43.7313 8.124 43.7153 7.76 43.7153 7.384C43.7153 7 43.7313 6.636 43.7633 6.292L43.9673 7.216C43.6873 7.312 43.3353 7.376 42.9113 7.408C42.4953 7.432 42.0593 7.424 41.6033 7.384C41.1553 7.336 40.7353 7.252 40.3433 7.132L40.9793 6.316C40.9873 6.7 40.9673 7.076 40.9193 7.444C40.8713 7.804 40.8153 8.136 40.7513 8.44C40.6873 8.792 40.6113 9.092 40.5233 9.34C40.4353 9.588 40.3193 9.776 40.1753 9.904C40.0393 10.024 39.8553 10.084 39.6233 10.084ZM42.4433 5.992C42.9073 5.992 43.2433 5.924 43.4513 5.788C43.6673 5.644 43.7753 5.436 43.7753 5.164C43.7753 4.972 43.7393 4.736 43.6673 4.456C43.6033 4.168 43.5113 3.888 43.3913 3.616C43.2713 3.344 43.1313 3.116 42.9713 2.932C42.8193 2.748 42.6513 2.656 42.4673 2.656C42.2913 2.656 42.1233 2.752 41.9633 2.944C41.8113 3.128 41.6753 3.36 41.5553 3.64C41.4353 3.92 41.3393 4.208 41.2673 4.504C41.1953 4.792 41.1593 5.04 41.1593 5.248C41.1593 5.488 41.2633 5.672 41.4713 5.8C41.6873 5.928 42.0113 5.992 42.4433 5.992ZM47.9755 2.536C48.2315 2.536 48.4035 2.64 48.4915 2.848C48.5875 3.056 48.6355 3.364 48.6355 3.772C48.6355 3.868 48.6275 3.972 48.6115 4.084C48.6035 4.188 48.5875 4.284 48.5635 4.372L48.5395 4.132C48.7315 3.612 49.0275 3.208 49.4275 2.92C49.8275 2.624 50.2515 2.476 50.6995 2.476C51.1955 2.476 51.6075 2.616 51.9355 2.896C52.2715 3.176 52.5195 3.568 52.6795 4.072C52.8475 4.576 52.9315 5.172 52.9315 5.86C52.9315 6.284 52.9115 6.704 52.8715 7.12C52.8395 7.528 52.7915 7.904 52.7275 8.248C52.6715 8.584 52.6075 8.86 52.5355 9.076C52.4395 9.348 52.3155 9.552 52.1635 9.688C52.0115 9.816 51.8315 9.88 51.6235 9.88C51.4155 9.88 51.2555 9.804 51.1435 9.652C51.0315 9.5 50.9755 9.296 50.9755 9.04C50.9755 8.768 50.9955 8.44 51.0355 8.056C51.0755 7.664 51.1115 7.268 51.1435 6.868C51.1835 6.46 51.2035 6.092 51.2035 5.764C51.2035 4.644 50.8355 4.084 50.0995 4.084C49.7075 4.084 49.3795 4.26 49.1155 4.612C48.8515 4.956 48.6755 5.448 48.5875 6.088C48.5635 6.304 48.5515 6.572 48.5515 6.892C48.5515 7.212 48.5515 7.532 48.5515 7.852C48.5595 8.164 48.5515 8.428 48.5275 8.644C48.4955 9.124 48.4035 9.468 48.2515 9.676C48.1075 9.884 47.9075 9.988 47.6515 9.988C47.3555 9.988 47.1315 9.852 46.9795 9.58C46.8275 9.3 46.7515 8.832 46.7515 8.176C46.7515 7.84 46.7595 7.464 46.7755 7.048C46.7915 6.632 46.8115 6.216 46.8355 5.8C46.8675 5.376 46.9035 4.992 46.9435 4.648C47.0235 4 47.1395 3.488 47.2915 3.112C47.4435 2.728 47.6715 2.536 47.9755 2.536ZM56.4202 2.776H56.1802C56.1562 2.424 56.1642 2.092 56.2042 1.78C56.2442 1.46 56.3282 1.204 56.4562 1.012C56.5922 0.812 56.7842 0.711999 57.0322 0.711999C57.2562 0.711999 57.4202 0.783999 57.5242 0.927999C57.6282 1.072 57.6802 1.272 57.6802 1.528C57.6802 2.032 57.5842 2.464 57.3922 2.824L57.1762 2.8C57.6082 2.648 58.0962 2.572 58.6402 2.572C58.9842 2.572 59.2562 2.64 59.4562 2.776C59.6642 2.904 59.7682 3.124 59.7682 3.436C59.7682 3.732 59.6482 3.956 59.4082 4.108C59.1682 4.26 58.8682 4.336 58.5082 4.336C58.2922 4.336 58.0602 4.328 57.8122 4.312C57.5722 4.288 57.3362 4.252 57.1042 4.204L57.3082 3.952C57.3802 4.256 57.4482 4.604 57.5122 4.996C57.5842 5.38 57.6482 5.78 57.7042 6.196C57.7602 6.612 57.8042 7.016 57.8362 7.408C57.8682 7.8 57.8842 8.152 57.8842 8.464C57.8842 8.976 57.8042 9.38 57.6442 9.676C57.4842 9.972 57.2482 10.12 56.9362 10.12C56.6882 10.12 56.4922 10.044 56.3482 9.892C56.2122 9.74 56.1122 9.548 56.0482 9.316C55.9922 9.076 55.9562 8.828 55.9402 8.572C55.9322 8.316 55.9282 8.084 55.9282 7.876C55.9282 7.524 55.9442 7.128 55.9762 6.688C56.0082 6.24 56.0522 5.78 56.1082 5.308C56.1722 4.836 56.2442 4.38 56.3242 3.94L56.5642 4.144C56.1562 4.352 55.6522 4.456 55.0522 4.456C54.6842 4.456 54.4002 4.388 54.2002 4.252C54.0002 4.116 53.9002 3.904 53.9002 3.616C53.9002 3.304 54.0122 3.064 54.2362 2.896C54.4602 2.72 54.7602 2.632 55.1362 2.632C55.3842 2.632 55.6162 2.648 55.8322 2.68C56.0562 2.704 56.2522 2.736 56.4202 2.776ZM65.9877 10.12C65.7157 10.12 65.5277 10.016 65.4237 9.808C65.3277 9.592 65.2717 9.252 65.2557 8.788L65.3757 8.848C64.9277 9.72 64.0797 10.156 62.8317 10.156C62.2637 10.156 61.7917 10.056 61.4157 9.856C61.0397 9.648 60.7597 9.376 60.5757 9.04C60.3997 8.696 60.3117 8.324 60.3117 7.924C60.3117 7.236 60.5517 6.692 61.0317 6.292C61.5117 5.884 62.1477 5.68 62.9397 5.68C63.4597 5.68 63.9117 5.756 64.2957 5.908C64.6797 6.06 65.0077 6.272 65.2797 6.544L65.0757 6.52C65.0197 5.712 64.8437 5.136 64.5477 4.792C64.2597 4.44 63.8477 4.264 63.3117 4.264C62.9997 4.264 62.7117 4.312 62.4477 4.408C62.1837 4.504 61.9397 4.604 61.7157 4.708C61.4997 4.804 61.2957 4.852 61.1037 4.852C60.9117 4.852 60.7597 4.788 60.6477 4.66C60.5437 4.532 60.4917 4.368 60.4917 4.168C60.4917 3.88 60.6277 3.608 60.8997 3.352C61.1797 3.096 61.5477 2.888 62.0037 2.728C62.4597 2.568 62.9557 2.488 63.4917 2.488C64.1397 2.488 64.6957 2.644 65.1597 2.956C65.6237 3.268 65.9757 3.724 66.2157 4.324C66.4237 4.836 66.5717 5.408 66.6597 6.04C66.7477 6.672 66.7917 7.348 66.7917 8.068C66.7917 8.612 66.7637 9.032 66.7077 9.328C66.6517 9.624 66.5637 9.832 66.4437 9.952C66.3317 10.064 66.1797 10.12 65.9877 10.12ZM63.3357 8.776C63.5997 8.776 63.8677 8.74 64.1397 8.668C64.4117 8.588 64.6397 8.472 64.8237 8.32C65.0077 8.168 65.0997 7.98 65.0997 7.756C65.0997 7.564 65.0197 7.408 64.8597 7.288C64.7077 7.16 64.5037 7.064 64.2477 7C63.9997 6.936 63.7317 6.904 63.4437 6.904C62.9557 6.904 62.5837 6.988 62.3277 7.156C62.0797 7.324 61.9557 7.548 61.9557 7.828C61.9557 8.132 62.0717 8.368 62.3037 8.536C62.5437 8.696 62.8877 8.776 63.3357 8.776ZM68.2554 4.588C68.2554 3.82 68.3274 3.268 68.4714 2.932C68.6154 2.588 68.8194 2.416 69.0834 2.416C69.2914 2.416 69.4554 2.504 69.5754 2.68C69.6954 2.848 69.7834 3.06 69.8394 3.316C69.8954 3.564 69.9234 3.816 69.9234 4.072L69.8634 4.048C69.9994 3.616 70.2074 3.244 70.4874 2.932C70.7754 2.62 71.1194 2.464 71.5194 2.464C71.9914 2.464 72.3394 2.66 72.5634 3.052C72.7874 3.436 72.8994 3.916 72.8994 4.492C72.8994 5.26 72.8114 5.796 72.6354 6.1C72.4594 6.404 72.2234 6.556 71.9274 6.556C71.7114 6.556 71.5514 6.468 71.4474 6.292C71.3514 6.116 71.3194 5.804 71.3514 5.356C71.3834 4.884 71.3554 4.556 71.2674 4.372C71.1794 4.188 71.0394 4.096 70.8474 4.096C70.6154 4.096 70.4234 4.244 70.2714 4.54C70.1274 4.828 70.0554 5.184 70.0554 5.608C70.0554 5.776 70.0754 5.988 70.1154 6.244C70.1554 6.5 70.1994 6.78 70.2474 7.084C70.2954 7.38 70.3394 7.676 70.3794 7.972C70.4194 8.268 70.4394 8.54 70.4394 8.788C70.4394 9.228 70.3714 9.544 70.2354 9.736C70.0994 9.928 69.9074 10.024 69.6594 10.024C69.3794 10.024 69.1634 9.936 69.0114 9.76C68.8594 9.576 68.7434 9.28 68.6634 8.872C68.5994 8.504 68.5354 8.068 68.4714 7.564C68.4074 7.06 68.3554 6.544 68.3154 6.016C68.2754 5.488 68.2554 5.012 68.2554 4.588ZM78.0448 10.276C77.5408 10.276 77.1488 10.244 76.8688 10.18C76.5968 10.116 76.4088 10.028 76.3048 9.916C76.2008 9.796 76.1448 9.664 76.1368 9.52C76.1368 9.296 76.2688 9.108 76.5328 8.956C76.8048 8.804 77.3008 8.708 78.0208 8.668L77.8288 8.896C77.7408 8.488 77.6768 8.012 77.6368 7.468C77.5968 6.924 77.5808 6.36 77.5888 5.776C77.5968 5.192 77.6248 4.636 77.6728 4.108C77.7208 3.572 77.7888 3.116 77.8768 2.74L78.9208 2.668C78.7448 2.74 78.5248 2.804 78.2608 2.86C77.9968 2.908 77.7248 2.932 77.4448 2.932C76.9328 2.932 76.5528 2.876 76.3048 2.764C76.0648 2.652 75.9448 2.496 75.9448 2.296C75.9448 1.944 76.1568 1.672 76.5808 1.48C77.0128 1.28 77.6728 1.18 78.5608 1.18C79.6168 1.18 80.5048 1.356 81.2248 1.708C81.9528 2.052 82.5048 2.536 82.8808 3.16C83.2568 3.776 83.4448 4.496 83.4448 5.32C83.4448 6.04 83.3168 6.704 83.0608 7.312C82.8048 7.912 82.4368 8.436 81.9568 8.884C81.4848 9.324 80.9168 9.668 80.2528 9.916C79.5968 10.156 78.8608 10.276 78.0448 10.276ZM79.7488 8.428C80.0208 8.428 80.3088 8.32 80.6128 8.104C80.9248 7.88 81.1888 7.556 81.4048 7.132C81.6208 6.7 81.7288 6.168 81.7288 5.536C81.7288 5.072 81.6608 4.668 81.5248 4.324C81.3968 3.972 81.2288 3.68 81.0208 3.448C80.8128 3.216 80.5928 3.044 80.3608 2.932C80.1288 2.812 79.9088 2.752 79.7008 2.752C79.5328 2.752 79.4008 2.856 79.3048 3.064C79.2168 3.272 79.1528 3.584 79.1128 4C79.0728 4.408 79.0528 4.916 79.0528 5.524C79.0528 6.468 79.1008 7.188 79.1968 7.684C79.2928 8.18 79.4768 8.428 79.7488 8.428ZM85.8232 0.796C86.1432 0.796 86.3712 0.884 86.5072 1.06C86.6512 1.236 86.7232 1.44 86.7232 1.672C86.7232 1.96 86.6352 2.184 86.4592 2.344C86.2912 2.496 86.0512 2.572 85.7392 2.572C85.4352 2.572 85.2072 2.488 85.0552 2.32C84.9032 2.144 84.8272 1.94 84.8272 1.708C84.8272 1.404 84.9192 1.176 85.1032 1.024C85.2872 0.872 85.5272 0.796 85.8232 0.796ZM85.8952 3.472C86.1512 3.472 86.3512 3.712 86.4952 4.192C86.6472 4.672 86.7232 5.436 86.7232 6.484C86.7232 7.772 86.6312 8.7 86.4472 9.268C86.2632 9.836 85.9832 10.12 85.6072 10.12C85.3192 10.12 85.1072 9.912 84.9712 9.496C84.8352 9.072 84.7672 8.336 84.7672 7.288C84.7672 6 84.8712 5.044 85.0792 4.42C85.2952 3.788 85.5672 3.472 85.8952 3.472ZM93.433 10.12C93.161 10.12 92.973 10.016 92.869 9.808C92.773 9.592 92.717 9.252 92.701 8.788L92.821 8.848C92.373 9.72 91.525 10.156 90.277 10.156C89.709 10.156 89.237 10.056 88.861 9.856C88.485 9.648 88.205 9.376 88.021 9.04C87.845 8.696 87.757 8.324 87.757 7.924C87.757 7.236 87.997 6.692 88.477 6.292C88.957 5.884 89.593 5.68 90.385 5.68C90.905 5.68 91.357 5.756 91.741 5.908C92.125 6.06 92.453 6.272 92.725 6.544L92.521 6.52C92.465 5.712 92.289 5.136 91.993 4.792C91.705 4.44 91.293 4.264 90.757 4.264C90.445 4.264 90.157 4.312 89.893 4.408C89.629 4.504 89.385 4.604 89.161 4.708C88.945 4.804 88.741 4.852 88.549 4.852C88.357 4.852 88.205 4.788 88.093 4.66C87.989 4.532 87.937 4.368 87.937 4.168C87.937 3.88 88.073 3.608 88.345 3.352C88.625 3.096 88.993 2.888 89.449 2.728C89.905 2.568 90.401 2.488 90.937 2.488C91.585 2.488 92.141 2.644 92.605 2.956C93.069 3.268 93.421 3.724 93.661 4.324C93.869 4.836 94.017 5.408 94.105 6.04C94.193 6.672 94.237 7.348 94.237 8.068C94.237 8.612 94.209 9.032 94.153 9.328C94.097 9.624 94.009 9.832 93.889 9.952C93.777 10.064 93.625 10.12 93.433 10.12ZM90.781 8.776C91.045 8.776 91.313 8.74 91.585 8.668C91.857 8.588 92.085 8.472 92.269 8.32C92.453 8.168 92.545 7.98 92.545 7.756C92.545 7.564 92.465 7.408 92.305 7.288C92.153 7.16 91.949 7.064 91.693 7C91.445 6.936 91.177 6.904 90.889 6.904C90.401 6.904 90.029 6.988 89.773 7.156C89.525 7.324 89.401 7.548 89.401 7.828C89.401 8.132 89.517 8.368 89.749 8.536C89.989 8.696 90.333 8.776 90.781 8.776ZM97.9928 9.808C97.2408 9.808 96.6288 9.52 96.1568 8.944C95.6848 8.36 95.4488 7.476 95.4488 6.292C95.4488 5.028 95.6768 4.104 96.1328 3.52C96.5888 2.936 97.1888 2.644 97.9328 2.644C98.3728 2.644 98.7608 2.756 99.0968 2.98C99.4328 3.204 99.7208 3.52 99.9608 3.928L99.8648 4.096C99.8408 3.984 99.8208 3.864 99.8048 3.736C99.7888 3.608 99.7808 3.512 99.7808 3.448C99.7808 3.12 99.8328 2.868 99.9368 2.692C100.049 2.508 100.221 2.416 100.453 2.416C100.709 2.416 100.909 2.52 101.053 2.728C101.205 2.936 101.321 3.232 101.401 3.616C101.505 4.008 101.593 4.508 101.665 5.116C101.737 5.716 101.773 6.324 101.773 6.94C101.773 7.708 101.745 8.352 101.689 8.872C101.633 9.392 101.541 9.824 101.413 10.168C101.285 10.512 101.117 10.812 100.909 11.068C100.565 11.484 100.121 11.8 99.5768 12.016C99.0408 12.24 98.4208 12.352 97.7168 12.352C97.2128 12.352 96.8088 12.304 96.5048 12.208C96.2008 12.12 95.9808 11.996 95.8448 11.836C95.7168 11.684 95.6528 11.512 95.6528 11.32C95.6528 11.12 95.7088 10.952 95.8208 10.816C95.9328 10.688 96.1008 10.624 96.3248 10.624C96.5248 10.624 96.7568 10.656 97.0208 10.72C97.2928 10.784 97.6128 10.816 97.9808 10.816C98.7568 10.816 99.3048 10.632 99.6248 10.264C99.9528 9.904 100.117 9.384 100.117 8.704C100.117 8.52 100.105 8.304 100.081 8.056L100.249 8.116C100.049 8.628 99.7528 9.04 99.3608 9.352C98.9688 9.656 98.5128 9.808 97.9928 9.808ZM98.4488 8.332C98.7048 8.332 98.9608 8.264 99.2168 8.128C99.4728 7.992 99.6848 7.768 99.8528 7.456C100.021 7.144 100.105 6.724 100.105 6.196C100.105 5.564 99.9568 5.048 99.6608 4.648C99.3648 4.248 98.9488 4.048 98.4128 4.048C97.9488 4.048 97.6088 4.224 97.3928 4.576C97.1768 4.928 97.0688 5.46 97.0688 6.172C97.0688 6.852 97.1768 7.384 97.3928 7.768C97.6088 8.144 97.9608 8.332 98.4488 8.332ZM106.152 10.036C105.512 10.036 104.952 9.896 104.472 9.616C104 9.328 103.632 8.92 103.368 8.392C103.112 7.864 102.984 7.236 102.984 6.508C102.984 5.748 103.116 5.084 103.38 4.516C103.644 3.948 104.016 3.504 104.496 3.184C104.984 2.864 105.548 2.704 106.188 2.704C106.876 2.704 107.472 2.86 107.976 3.172C108.48 3.476 108.872 3.904 109.152 4.456C109.432 5.008 109.572 5.652 109.572 6.388C109.572 7.14 109.432 7.788 109.152 8.332C108.872 8.876 108.476 9.296 107.964 9.592C107.452 9.888 106.848 10.036 106.152 10.036ZM106.32 8.416C106.816 8.416 107.208 8.22 107.496 7.828C107.792 7.428 107.94 6.9 107.94 6.244C107.94 5.58 107.792 5.052 107.496 4.66C107.208 4.268 106.816 4.072 106.32 4.072C105.808 4.072 105.404 4.268 105.108 4.66C104.812 5.052 104.664 5.58 104.664 6.244C104.664 6.9 104.812 7.428 105.108 7.828C105.404 8.22 105.808 8.416 106.32 8.416ZM112.007 2.536C112.263 2.536 112.435 2.64 112.523 2.848C112.619 3.056 112.667 3.364 112.667 3.772C112.667 3.868 112.659 3.972 112.643 4.084C112.635 4.188 112.619 4.284 112.595 4.372L112.571 4.132C112.763 3.612 113.059 3.208 113.459 2.92C113.859 2.624 114.283 2.476 114.731 2.476C115.227 2.476 115.639 2.616 115.967 2.896C116.303 3.176 116.551 3.568 116.711 4.072C116.879 4.576 116.963 5.172 116.963 5.86C116.963 6.284 116.943 6.704 116.903 7.12C116.871 7.528 116.823 7.904 116.759 8.248C116.703 8.584 116.639 8.86 116.567 9.076C116.471 9.348 116.347 9.552 116.195 9.688C116.043 9.816 115.863 9.88 115.655 9.88C115.447 9.88 115.287 9.804 115.175 9.652C115.063 9.5 115.007 9.296 115.007 9.04C115.007 8.768 115.027 8.44 115.067 8.056C115.107 7.664 115.143 7.268 115.175 6.868C115.215 6.46 115.235 6.092 115.235 5.764C115.235 4.644 114.867 4.084 114.131 4.084C113.739 4.084 113.411 4.26 113.147 4.612C112.883 4.956 112.707 5.448 112.619 6.088C112.595 6.304 112.583 6.572 112.583 6.892C112.583 7.212 112.583 7.532 112.583 7.852C112.591 8.164 112.583 8.428 112.559 8.644C112.527 9.124 112.435 9.468 112.283 9.676C112.139 9.884 111.939 9.988 111.683 9.988C111.387 9.988 111.163 9.852 111.011 9.58C110.859 9.3 110.783 8.832 110.783 8.176C110.783 7.84 110.791 7.464 110.807 7.048C110.823 6.632 110.843 6.216 110.867 5.8C110.899 5.376 110.935 4.992 110.975 4.648C111.055 4 111.171 3.488 111.323 3.112C111.475 2.728 111.703 2.536 112.007 2.536ZM123.667 10.12C123.395 10.12 123.207 10.016 123.103 9.808C123.007 9.592 122.951 9.252 122.935 8.788L123.055 8.848C122.607 9.72 121.759 10.156 120.511 10.156C119.943 10.156 119.471 10.056 119.095 9.856C118.719 9.648 118.439 9.376 118.255 9.04C118.079 8.696 117.991 8.324 117.991 7.924C117.991 7.236 118.231 6.692 118.711 6.292C119.191 5.884 119.827 5.68 120.619 5.68C121.139 5.68 121.591 5.756 121.975 5.908C122.359 6.06 122.687 6.272 122.959 6.544L122.755 6.52C122.699 5.712 122.523 5.136 122.227 4.792C121.939 4.44 121.527 4.264 120.991 4.264C120.679 4.264 120.391 4.312 120.127 4.408C119.863 4.504 119.619 4.604 119.395 4.708C119.179 4.804 118.975 4.852 118.783 4.852C118.591 4.852 118.439 4.788 118.327 4.66C118.223 4.532 118.171 4.368 118.171 4.168C118.171 3.88 118.307 3.608 118.579 3.352C118.859 3.096 119.227 2.888 119.683 2.728C120.139 2.568 120.635 2.488 121.171 2.488C121.819 2.488 122.375 2.644 122.839 2.956C123.303 3.268 123.655 3.724 123.895 4.324C124.103 4.836 124.251 5.408 124.339 6.04C124.427 6.672 124.471 7.348 124.471 8.068C124.471 8.612 124.443 9.032 124.387 9.328C124.331 9.624 124.243 9.832 124.123 9.952C124.011 10.064 123.859 10.12 123.667 10.12ZM121.015 8.776C121.279 8.776 121.547 8.74 121.819 8.668C122.091 8.588 122.319 8.472 122.503 8.32C122.687 8.168 122.779 7.98 122.779 7.756C122.779 7.564 122.699 7.408 122.539 7.288C122.387 7.16 122.183 7.064 121.927 7C121.679 6.936 121.411 6.904 121.123 6.904C120.635 6.904 120.263 6.988 120.007 7.156C119.759 7.324 119.635 7.548 119.635 7.828C119.635 8.132 119.751 8.368 119.983 8.536C120.223 8.696 120.567 8.776 121.015 8.776ZM127.231 10.024C126.983 10.024 126.787 9.968 126.643 9.856C126.499 9.736 126.383 9.54 126.295 9.268C126.175 8.868 126.083 8.364 126.019 7.756C125.963 7.14 125.935 6.384 125.935 5.488C125.935 4.936 125.955 4.384 125.995 3.832C126.043 3.272 126.103 2.764 126.175 2.308C126.247 1.844 126.323 1.484 126.403 1.228C126.491 0.956 126.595 0.767999 126.715 0.663999C126.835 0.56 126.971 0.508 127.123 0.508C127.283 0.508 127.411 0.564 127.507 0.676C127.603 0.779999 127.679 0.967999 127.735 1.24C127.783 1.504 127.819 1.828 127.843 2.212C127.875 2.596 127.891 3.008 127.891 3.448C127.891 4.048 127.863 4.68 127.807 5.344C127.751 6.008 127.675 6.66 127.579 7.3C127.491 7.94 127.383 8.528 127.255 9.064L126.919 8.896C127.127 8.64 127.363 8.44 127.627 8.296C127.899 8.152 128.147 8.08 128.371 8.08C128.555 8.08 128.695 8.132 128.791 8.236C128.895 8.332 128.947 8.484 128.947 8.692C128.947 8.9 128.855 9.108 128.671 9.316C128.495 9.524 128.275 9.696 128.011 9.832C127.747 9.96 127.487 10.024 127.231 10.024Z"></path>
</svg>
