<svg version="1.1" xmlns="http://www.w3.org/2000/svg" xmlns:xlink="http://www.w3.org/1999/xlink" width="113.6184" height="42" viewBox="0,0,113.6184,42"><g transform="translate(-183.1908,-159)"><g data-paper-data="{&quot;isPaintingLayer&quot;:true}" fill-rule="nonzero" stroke-linecap="butt" stroke-linejoin="miter" stroke-miterlimit="10" stroke-dasharray="" stroke-dashoffset="0" style="mix-blend-mode: normal"><g><path d="" fill="#ececec" stroke="none" stroke-width="1"/><path d="" fill="none" stroke="#dcd6d6" stroke-width="1.5"/><path d="" fill="none" stroke="#dcd6d6" stroke-width="1.5"/><path d="" fill="none" stroke="#dcd6d6" stroke-width="1.5"/><path d="" fill="none" stroke="#dcd6d6" stroke-width="1.5"/><path d="" fill="none" stroke="#dcd6d6" stroke-width="1.5"/><path d="" fill="none" stroke="#dcd6d6" stroke-width="1.5"/><path d="" fill="none" stroke="#dcd6d6" stroke-width="1.5"/><path d="" fill="none" stroke="#dcd6d6" stroke-width="1.5"/><path d="" fill="none" stroke="#dcd6d6" stroke-width="1.5"/><path d="" fill="none" stroke="#dcd6d6" stroke-width="1.5"/><path d="" fill="none" stroke="#dcd6d6" stroke-width="1.5"/><path d="" fill="none" stroke="#dcd6d6" stroke-width="1.5"/><path d="" fill="none" stroke="#dcd6d6" stroke-width="1.5"/><path d="" fill="none" stroke="#dcd6d6" stroke-width="1.5"/><path d="" fill="none" stroke="#dcd6d6" stroke-width="1.5"/><path d="" fill="none" stroke="#dcd6d6" stroke-width="1.5"/><path d="" fill="none" stroke="#dcd6d6" stroke-width="1.5"/><path d="" fill="none" stroke="#dcd6d6" stroke-width="1.5"/><path d="" fill="none" stroke="#dcd6d6" stroke-width="1.5"/><path d="" fill="none" stroke="#dcd6d6" stroke-width="1.5"/><path d="" fill="none" stroke="#dcd6d6" stroke-width="1.5"/><path d="" fill="none" stroke="#dcd6d6" stroke-width="1.5"/><path d="" fill="none" stroke="#dcd6d6" stroke-width="1.5"/><path d="" fill="none" stroke="#dcd6d6" stroke-width="1.5"/><path d="" fill="none" stroke="#dcd6d6" stroke-width="1.5"/><path d="" fill="none" stroke="#dcd6d6" stroke-width="1.5"/><path d="" fill="none" stroke="#dcd6d6" stroke-width="1.5"/><path d="" fill="none" stroke="#dcd6d6" stroke-width="1.5"/><path d="" fill="none" stroke="#dcd6d6" stroke-width="1.5"/><path d="" fill="none" stroke="#dcd6d6" stroke-width="1.5"/><path d="" fill="none" stroke="#dcd6d6" stroke-width="1.5"/><path d="" fill="none" stroke="#dcd6d6" stroke-width="1.5"/><path d="" fill="none" stroke="#dcd6d6" stroke-width="1.5"/><path d="" fill="none" stroke="#dcd6d6" stroke-width="1.5"/><path d="" fill="none" stroke="#dcd6d6" stroke-width="1.5"/><path d="" fill="none" stroke="#dcd6d6" stroke-width="1.5"/><path d="" fill="none" stroke="#dcd6d6" stroke-width="1.5"/><path d="" fill="none" stroke="#dcd6d6" stroke-width="1.5"/><path d="" fill="none" stroke="#dcd6d6" stroke-width="1.5"/><path d="" fill="none" stroke="#dcd6d6" stroke-width="1.5"/><g><path d="" fill="#ebebeb" stroke="none" stroke-width="1"/><path d="" fill="none" stroke="#000000" stroke-width="0.2"/></g><path d="" fill="#737373" stroke="none" stroke-width="1"/><path d="" fill="#737373" stroke="none" stroke-width="1"/><path d="" fill="#737373" stroke="none" stroke-width="1"/><path d="" fill="#737373" stroke="none" stroke-width="1"/></g><path d="" fill="#000000" stroke="none" stroke-width="1"/><path d="M183.1908,180c0,-11.59798 25.43435,-21 56.8092,-21c31.37485,0 56.8092,9.40202 56.8092,21c0,11.59798 -25.43435,21 -56.8092,21c-31.37485,0 -56.8092,-9.40202 -56.8092,-21z" fill="#61c56b" stroke="none" stroke-width="1"/><path d="M222.594,185.462c-0.233,0 -0.425,-0.065 -0.574,-0.196c-0.14,-0.121 -0.21,-0.257 -0.21,-0.406c0,-0.168 0.023,-0.294 0.07,-0.378c0.056,-0.093 0.173,-0.159 0.35,-0.196c0.439,-0.103 0.891,-0.224 1.358,-0.364c0.476,-0.149 0.919,-0.303 1.33,-0.462c0.411,-0.168 0.742,-0.331 0.994,-0.49c0.261,-0.159 0.392,-0.299 0.392,-0.42c0,-0.112 -0.103,-0.219 -0.308,-0.322c-0.205,-0.112 -0.467,-0.233 -0.784,-0.364c-0.317,-0.131 -0.658,-0.275 -1.022,-0.434c-0.364,-0.159 -0.705,-0.341 -1.022,-0.546c-0.317,-0.205 -0.579,-0.439 -0.784,-0.7c-0.205,-0.271 -0.308,-0.579 -0.308,-0.924c0,-0.541 0.131,-1.045 0.392,-1.512c0.271,-0.476 0.621,-0.915 1.05,-1.316c0.429,-0.401 0.901,-0.77 1.414,-1.106c0.523,-0.345 1.036,-0.649 1.54,-0.91c0.513,-0.271 0.971,-0.509 1.372,-0.714c0.131,-0.075 0.257,-0.126 0.378,-0.154c0.121,-0.028 0.229,-0.042 0.322,-0.042c0.271,0 0.467,0.061 0.588,0.182c0.121,0.121 0.182,0.261 0.182,0.42c0,0.131 -0.07,0.285 -0.21,0.462c-0.14,0.168 -0.341,0.317 -0.602,0.448c-0.261,0.131 -0.574,0.196 -0.938,0.196h-0.112c-0.317,0.168 -0.663,0.369 -1.036,0.602c-0.373,0.233 -0.742,0.49 -1.106,0.77c-0.364,0.28 -0.7,0.569 -1.008,0.868c-0.299,0.289 -0.541,0.569 -0.728,0.84c-0.177,0.271 -0.266,0.518 -0.266,0.742c0,0.271 0.103,0.513 0.308,0.728c0.205,0.215 0.467,0.406 0.784,0.574c0.327,0.168 0.667,0.331 1.022,0.49c0.364,0.159 0.705,0.322 1.022,0.49c0.327,0.159 0.593,0.336 0.798,0.532c0.205,0.187 0.308,0.406 0.308,0.658c0,0.289 -0.103,0.565 -0.308,0.826c-0.196,0.261 -0.457,0.504 -0.784,0.728c-0.327,0.215 -0.686,0.411 -1.078,0.588c-0.383,0.168 -0.761,0.313 -1.134,0.434c-0.373,0.121 -0.709,0.215 -1.008,0.28c-0.289,0.065 -0.504,0.098 -0.644,0.098zM229.516,180.52c-0.252,-0.019 -0.368,-0.182 -0.35,-0.49c0.01,-0.075 0.061,-0.163 0.154,-0.266c0.094,-0.112 0.201,-0.173 0.322,-0.182c0.29,-0.028 0.644,-0.07 1.064,-0.126c0.43,-0.065 0.901,-0.14 1.414,-0.224c0.094,-0.457 0.206,-0.938 0.336,-1.442c0.131,-0.504 0.276,-0.994 0.434,-1.47c0.159,-0.485 0.327,-0.924 0.504,-1.316c0.178,-0.392 0.364,-0.7 0.56,-0.924c0.103,-0.103 0.196,-0.173 0.28,-0.21c0.084,-0.047 0.159,-0.07 0.224,-0.07c0.131,0 0.234,0.056 0.308,0.168c0.084,0.112 0.126,0.238 0.126,0.378c0,0.075 -0.014,0.149 -0.042,0.224c-0.186,0.523 -0.387,1.167 -0.602,1.932c-0.214,0.765 -0.443,1.601 -0.686,2.506c0.859,-0.14 1.718,-0.289 2.576,-0.448c0.859,-0.159 1.596,-0.303 2.212,-0.434c0.178,-0.075 0.313,-0.061 0.406,0.042c0.103,0.103 0.154,0.205 0.154,0.308c0,0.131 -0.037,0.229 -0.112,0.294c-0.065,0.065 -0.135,0.121 -0.21,0.168l-0.014,0.014c-0.186,0.075 -0.466,0.163 -0.84,0.266c-0.373,0.093 -0.802,0.196 -1.288,0.308c-0.485,0.103 -1.003,0.205 -1.554,0.308c-0.541,0.103 -1.078,0.196 -1.61,0.28c-0.214,0.821 -0.434,1.666 -0.658,2.534c-0.214,0.859 -0.429,1.703 -0.644,2.534c-0.093,0.336 -0.2,0.546 -0.322,0.63c-0.112,0.093 -0.233,0.14 -0.364,0.14c-0.149,0 -0.28,-0.056 -0.392,-0.168c-0.102,-0.112 -0.116,-0.341 -0.042,-0.686l1.022,-4.774c-0.56,0.084 -1.054,0.145 -1.484,0.182c-0.42,0.037 -0.714,0.042 -0.882,0.014zM238.044,185.364c-0.354,0 -0.648,-0.163 -0.882,-0.49c-0.224,-0.336 -0.336,-0.77 -0.336,-1.302c0,-0.495 0.122,-0.985 0.364,-1.47c0.252,-0.485 0.584,-0.952 0.994,-1.4c0.411,-0.448 0.859,-0.859 1.344,-1.232c0.486,-0.383 0.971,-0.714 1.456,-0.994c0.495,-0.28 0.948,-0.499 1.358,-0.658c0.411,-0.159 0.738,-0.238 0.98,-0.238c0.131,0 0.238,0.028 0.322,0.084c0.084,0.047 0.126,0.135 0.126,0.266c0,0.084 -0.032,0.163 -0.098,0.238c0.01,0 0.019,0 0.028,0c0.206,0 0.308,0.121 0.308,0.364c0,0.084 -0.032,0.257 -0.098,0.518c-0.065,0.252 -0.14,0.569 -0.224,0.952c-0.084,0.383 -0.158,0.807 -0.224,1.274c-0.065,0.457 -0.098,0.924 -0.098,1.4c0,0.401 0.154,0.602 0.462,0.602c0.346,0 0.696,-0.079 1.05,-0.238c0.355,-0.159 0.7,-0.35 1.036,-0.574c0.336,-0.233 0.644,-0.462 0.924,-0.686c0.28,-0.233 0.518,-0.429 0.714,-0.588c0.196,-0.159 0.336,-0.238 0.42,-0.238c0.075,0 0.14,0.023 0.196,0.07c0.056,0.047 0.084,0.121 0.084,0.224c0,0.093 -0.093,0.261 -0.28,0.504c-0.186,0.243 -0.434,0.518 -0.742,0.826c-0.308,0.308 -0.653,0.607 -1.036,0.896c-0.382,0.289 -0.774,0.527 -1.176,0.714c-0.401,0.187 -0.784,0.28 -1.148,0.28c-0.28,0 -0.536,-0.084 -0.77,-0.252c-0.224,-0.177 -0.406,-0.476 -0.546,-0.896c-0.13,-0.42 -0.196,-0.999 -0.196,-1.736v-0.35c-0.457,0.756 -0.938,1.447 -1.442,2.072c-0.494,0.625 -0.989,1.125 -1.484,1.498c-0.485,0.373 -0.947,0.56 -1.386,0.56zM243.056,178.588c-0.046,0.019 -0.112,0.047 -0.196,0.084c-0.429,0.196 -0.877,0.439 -1.344,0.728c-0.457,0.289 -0.905,0.611 -1.344,0.966c-0.429,0.355 -0.816,0.723 -1.162,1.106c-0.345,0.383 -0.62,0.77 -0.826,1.162c-0.205,0.392 -0.308,0.775 -0.308,1.148c0,0.121 0.024,0.215 0.07,0.28c0.056,0.065 0.15,0.098 0.28,0.098c0.187,0 0.43,-0.117 0.728,-0.35c0.299,-0.243 0.626,-0.56 0.98,-0.952c0.364,-0.392 0.728,-0.826 1.092,-1.302c0.364,-0.476 0.71,-0.957 1.036,-1.442c0.336,-0.485 0.626,-0.933 0.868,-1.344c0.038,-0.065 0.08,-0.126 0.126,-0.182zM247.962,185.266c-0.149,0 -0.275,-0.061 -0.378,-0.182c-0.102,-0.121 -0.154,-0.289 -0.154,-0.504c0,-0.159 0.033,-0.42 0.098,-0.784c0.075,-0.373 0.154,-0.807 0.238,-1.302c0.094,-0.495 0.173,-1.008 0.238,-1.54c0.066,-0.541 0.098,-1.059 0.098,-1.554c0,-0.243 0.061,-0.42 0.182,-0.532c0.131,-0.121 0.276,-0.182 0.434,-0.182c0.15,0 0.262,0.093 0.336,0.28c0.075,0.187 0.089,0.56 0.042,1.12c0.43,-0.952 0.901,-1.717 1.414,-2.296c0.523,-0.588 1.041,-1.008 1.554,-1.26c0.514,-0.261 0.976,-0.392 1.386,-0.392c0.271,0 0.467,0.056 0.588,0.168c0.131,0.103 0.196,0.219 0.196,0.35c0,0.177 -0.074,0.317 -0.224,0.42c-0.14,0.093 -0.387,0.205 -0.742,0.336c-0.41,0.159 -0.788,0.345 -1.134,0.56c-0.336,0.205 -0.658,0.476 -0.966,0.812c-0.298,0.336 -0.592,0.765 -0.882,1.288c-0.289,0.513 -0.578,1.148 -0.868,1.904c-0.289,0.756 -0.597,1.666 -0.924,2.73c-0.056,0.205 -0.13,0.35 -0.224,0.434c-0.084,0.084 -0.186,0.126 -0.308,0.126zM252.594,180.52c-0.252,-0.019 -0.368,-0.182 -0.35,-0.49c0.01,-0.075 0.061,-0.163 0.154,-0.266c0.094,-0.112 0.201,-0.173 0.322,-0.182c0.29,-0.028 0.644,-0.07 1.064,-0.126c0.43,-0.065 0.901,-0.14 1.414,-0.224c0.094,-0.457 0.206,-0.938 0.336,-1.442c0.131,-0.504 0.276,-0.994 0.434,-1.47c0.159,-0.485 0.327,-0.924 0.504,-1.316c0.178,-0.392 0.364,-0.7 0.56,-0.924c0.103,-0.103 0.196,-0.173 0.28,-0.21c0.084,-0.047 0.159,-0.07 0.224,-0.07c0.131,0 0.234,0.056 0.308,0.168c0.084,0.112 0.126,0.238 0.126,0.378c0,0.075 -0.014,0.149 -0.042,0.224c-0.186,0.523 -0.387,1.167 -0.602,1.932c-0.214,0.765 -0.443,1.601 -0.686,2.506c0.859,-0.14 1.718,-0.289 2.576,-0.448c0.859,-0.159 1.596,-0.303 2.212,-0.434c0.178,-0.075 0.313,-0.061 0.406,0.042c0.103,0.103 0.154,0.205 0.154,0.308c0,0.131 -0.037,0.229 -0.112,0.294c-0.065,0.065 -0.135,0.121 -0.21,0.168l-0.014,0.014c-0.186,0.075 -0.466,0.163 -0.84,0.266c-0.373,0.093 -0.802,0.196 -1.288,0.308c-0.485,0.103 -1.003,0.205 -1.554,0.308c-0.541,0.103 -1.078,0.196 -1.61,0.28c-0.214,0.821 -0.434,1.666 -0.658,2.534c-0.214,0.859 -0.429,1.703 -0.644,2.534c-0.093,0.336 -0.2,0.546 -0.322,0.63c-0.112,0.093 -0.233,0.14 -0.364,0.14c-0.149,0 -0.28,-0.056 -0.392,-0.168c-0.102,-0.112 -0.116,-0.341 -0.042,-0.686l1.022,-4.774c-0.56,0.084 -1.054,0.145 -1.484,0.182c-0.42,0.037 -0.714,0.042 -0.882,0.014z" fill="#000000" stroke="none" stroke-width="1"/><path d="" fill="#8475e3" stroke="none" stroke-width="1"/><path d="" fill="#000000" stroke="none" stroke-width="1"/><path d="" fill="#e84343" stroke="none" stroke-width="1"/><path d="" fill="#000000" stroke="none" stroke-width="1"/></g></g></svg>