<svg xmlns="http://www.w3.org/2000/svg" fill="none" viewBox="0 0 45 16" height="16" width="45">
<rect stroke="black" fill="#AF99A9" rx="4.5" height="15" width="44" y="0.5" x="0.5"></rect>
<path fill="black" d="M6.39475 10.025C6.18808 10.025 6.01641 9.98667 5.87975 9.91C5.74641 9.83 5.64641 9.70833 5.57975 9.545C5.53308 9.43167 5.49808 9.295 5.47475 9.135C5.45475 8.97167 5.44475 8.785 5.44475 8.575C5.44475 8.215 5.45641 7.91833 5.47975 7.685C5.50308 7.44833 5.53641 7.25833 5.57975 7.115C5.62641 6.96833 5.67808 6.85 5.73475 6.76C5.82475 6.62333 5.96808 6.51333 6.16475 6.43C6.36141 6.34667 6.63975 6.305 6.99975 6.305C7.23975 6.305 7.43141 6.34167 7.57475 6.415C7.72141 6.485 7.82641 6.57833 7.88975 6.695C7.95641 6.81167 7.98975 6.94167 7.98975 7.085C7.98975 7.31167 7.92308 7.49833 7.78975 7.645C7.65641 7.79167 7.48141 7.90833 7.26475 7.995V8.015C7.50141 8.04167 7.68475 8.11833 7.81475 8.245C7.94808 8.36833 8.01475 8.545 8.01475 8.775C8.01475 8.95833 7.96808 9.12667 7.87475 9.28C7.78475 9.43 7.66141 9.56167 7.50475 9.675C7.35141 9.785 7.17808 9.87167 6.98475 9.935C6.79141 9.995 6.59475 10.025 6.39475 10.025ZM6.54975 9.425C6.70975 9.425 6.85141 9.39833 6.97475 9.345C7.10141 9.29167 7.19975 9.22 7.26975 9.13C7.34308 9.03667 7.37975 8.93167 7.37975 8.815C7.37975 8.68833 7.31808 8.58333 7.19475 8.5C7.07475 8.41333 6.88641 8.37 6.62975 8.37C6.45641 8.37 6.31808 8.41167 6.21475 8.495C6.11475 8.575 6.06475 8.71333 6.06475 8.91C6.06475 9.09667 6.10475 9.23 6.18475 9.31C6.26475 9.38667 6.38641 9.425 6.54975 9.425ZM6.56975 7.84C6.79641 7.84 6.98475 7.79 7.13475 7.69C7.28808 7.58667 7.36475 7.45333 7.36475 7.29C7.36475 7.17 7.31641 7.07333 7.21975 7C7.12308 6.92667 6.98141 6.89 6.79475 6.89C6.59141 6.89 6.42475 6.93 6.29475 7.01C6.16475 7.09 6.09975 7.22667 6.09975 7.42C6.09975 7.57667 6.14141 7.68667 6.22475 7.75C6.31141 7.81 6.42641 7.84 6.56975 7.84ZM10.8192 9.97C10.7292 9.97 10.6592 9.94 10.6092 9.88C10.5625 9.81667 10.5308 9.73667 10.5142 9.64C10.4975 9.54 10.4892 9.435 10.4892 9.325L10.5142 9.305C10.4808 9.44833 10.4158 9.57167 10.3192 9.675C10.2225 9.77833 10.1108 9.85833 9.98416 9.915C9.85749 9.96833 9.73083 9.995 9.60416 9.995C9.43416 9.995 9.27916 9.955 9.13916 9.875C8.99916 9.795 8.89083 9.67167 8.81416 9.505C8.73749 9.32833 8.67749 9.10667 8.63416 8.84C8.59083 8.57 8.56916 8.29333 8.56916 8.01C8.56916 7.85667 8.57583 7.715 8.58916 7.585C8.60249 7.455 8.62416 7.34833 8.65416 7.265C8.68083 7.17833 8.72083 7.115 8.77416 7.075C8.82749 7.03167 8.89583 7.01 8.97916 7.01C9.07583 7.01 9.15083 7.04833 9.20416 7.125C9.26083 7.19833 9.29583 7.30167 9.30916 7.435C9.32249 7.545 9.33083 7.68167 9.33416 7.845C9.34083 8.005 9.34583 8.16667 9.34916 8.33C9.35583 8.49 9.36416 8.625 9.37416 8.735C9.39416 8.935 9.44583 9.08333 9.52916 9.18C9.61249 9.27333 9.71416 9.32 9.83416 9.32C10.0108 9.32 10.1458 9.25333 10.2392 9.12C10.3325 8.98667 10.3792 8.8 10.3792 8.56C10.3792 8.44 10.3725 8.305 10.3592 8.155C10.3458 8.00167 10.3308 7.85333 10.3142 7.71C10.3008 7.56667 10.2942 7.44833 10.2942 7.355C10.2942 7.19833 10.3208 7.08667 10.3742 7.02C10.4275 6.95 10.5008 6.915 10.5942 6.915C10.6742 6.915 10.7408 6.93667 10.7942 6.98C10.8508 7.02333 10.8958 7.08333 10.9292 7.16C10.9758 7.26 11.0158 7.39667 11.0492 7.57C11.0825 7.74333 11.1092 7.94 11.1292 8.16C11.1492 8.38 11.1592 8.61167 11.1592 8.855C11.1592 9.22833 11.1342 9.50833 11.0842 9.695C11.0342 9.87833 10.9458 9.97 10.8192 9.97ZM13.0324 6.87C13.3291 6.87 13.5424 6.91333 13.6724 7C13.8024 7.08667 13.8674 7.19833 13.8674 7.335C13.8674 7.415 13.8391 7.48167 13.7824 7.535C13.7291 7.585 13.6524 7.61 13.5524 7.61C13.4491 7.61 13.3407 7.595 13.2274 7.565C13.1174 7.535 12.9891 7.52 12.8424 7.52C12.6724 7.52 12.5457 7.55333 12.4624 7.62C12.3791 7.68667 12.3374 7.77167 12.3374 7.875C12.3374 7.97167 12.3741 8.04833 12.4474 8.105C12.5241 8.15833 12.6691 8.19833 12.8824 8.225C13.1191 8.25167 13.3141 8.295 13.4674 8.355C13.6241 8.41167 13.7407 8.49833 13.8174 8.615C13.8941 8.72833 13.9324 8.885 13.9324 9.085C13.9324 9.40167 13.8207 9.63667 13.5974 9.79C13.3741 9.94333 13.0657 10.02 12.6724 10.02C12.4224 10.02 12.2241 10 12.0774 9.96C11.9307 9.92 11.8241 9.86333 11.7574 9.79C11.6941 9.71667 11.6624 9.63 11.6624 9.53C11.6624 9.44333 11.6907 9.37667 11.7474 9.33C11.8074 9.28 11.8774 9.255 11.9574 9.255C12.0341 9.255 12.1157 9.265 12.2024 9.285C12.2891 9.30167 12.3807 9.32 12.4774 9.34C12.5741 9.36 12.6741 9.37 12.7774 9.37C13.1107 9.37 13.2774 9.26667 13.2774 9.06C13.2774 8.99 13.2607 8.93333 13.2274 8.89C13.1941 8.84667 13.1341 8.81167 13.0474 8.785C12.9607 8.755 12.8341 8.73167 12.6674 8.715C12.4674 8.695 12.2941 8.66167 12.1474 8.615C12.0007 8.565 11.8874 8.485 11.8074 8.375C11.7274 8.26167 11.6874 8.10667 11.6874 7.91C11.6874 7.6 11.8041 7.35 12.0374 7.16C12.2707 6.96667 12.6024 6.87 13.0324 6.87ZM16.6883 9.97C16.5983 9.97 16.5283 9.94 16.4783 9.88C16.4316 9.81667 16.4 9.73667 16.3833 9.64C16.3666 9.54 16.3583 9.435 16.3583 9.325L16.3833 9.305C16.35 9.44833 16.285 9.57167 16.1883 9.675C16.0916 9.77833 15.98 9.85833 15.8533 9.915C15.7266 9.96833 15.6 9.995 15.4733 9.995C15.3033 9.995 15.1483 9.955 15.0083 9.875C14.8683 9.795 14.76 9.67167 14.6833 9.505C14.6066 9.32833 14.5466 9.10667 14.5033 8.84C14.46 8.57 14.4383 8.29333 14.4383 8.01C14.4383 7.85667 14.445 7.715 14.4583 7.585C14.4716 7.455 14.4933 7.34833 14.5233 7.265C14.55 7.17833 14.59 7.115 14.6433 7.075C14.6966 7.03167 14.765 7.01 14.8483 7.01C14.945 7.01 15.02 7.04833 15.0733 7.125C15.13 7.19833 15.165 7.30167 15.1783 7.435C15.1916 7.545 15.2 7.68167 15.2033 7.845C15.21 8.005 15.215 8.16667 15.2183 8.33C15.225 8.49 15.2333 8.625 15.2433 8.735C15.2633 8.935 15.315 9.08333 15.3983 9.18C15.4816 9.27333 15.5833 9.32 15.7033 9.32C15.88 9.32 16.015 9.25333 16.1083 9.12C16.2016 8.98667 16.2483 8.8 16.2483 8.56C16.2483 8.44 16.2416 8.305 16.2283 8.155C16.215 8.00167 16.2 7.85333 16.1833 7.71C16.17 7.56667 16.1633 7.44833 16.1633 7.355C16.1633 7.19833 16.19 7.08667 16.2433 7.02C16.2966 6.95 16.37 6.915 16.4633 6.915C16.5433 6.915 16.61 6.93667 16.6633 6.98C16.72 7.02333 16.765 7.08333 16.7983 7.16C16.845 7.26 16.885 7.39667 16.9183 7.57C16.9516 7.74333 16.9783 7.94 16.9983 8.16C17.0183 8.38 17.0283 8.61167 17.0283 8.855C17.0283 9.22833 17.0033 9.50833 16.9533 9.695C16.9033 9.87833 16.815 9.97 16.6883 9.97ZM17.6365 7.745C17.6365 7.425 17.6665 7.195 17.7265 7.055C17.7865 6.91167 17.8715 6.84 17.9815 6.84C18.0682 6.84 18.1365 6.87667 18.1865 6.95C18.2365 7.02 18.2732 7.10833 18.2965 7.215C18.3199 7.31833 18.3315 7.42333 18.3315 7.53L18.3065 7.52C18.3632 7.34 18.4499 7.185 18.5665 7.055C18.6865 6.925 18.8299 6.86 18.9965 6.86C19.1932 6.86 19.3382 6.94167 19.4315 7.105C19.5249 7.265 19.5715 7.465 19.5715 7.705C19.5715 8.025 19.5349 8.24833 19.4615 8.375C19.3882 8.50167 19.2899 8.565 19.1665 8.565C19.0765 8.565 19.0099 8.52833 18.9665 8.455C18.9265 8.38167 18.9132 8.25167 18.9265 8.065C18.9399 7.86833 18.9282 7.73167 18.8915 7.655C18.8549 7.57833 18.7965 7.54 18.7165 7.54C18.6199 7.54 18.5399 7.60167 18.4765 7.725C18.4165 7.845 18.3865 7.99333 18.3865 8.17C18.3865 8.24 18.3949 8.32833 18.4115 8.435C18.4282 8.54167 18.4465 8.65833 18.4665 8.785C18.4865 8.90833 18.5049 9.03167 18.5215 9.155C18.5382 9.27833 18.5465 9.39167 18.5465 9.495C18.5465 9.67833 18.5182 9.81 18.4615 9.89C18.4049 9.97 18.3249 10.01 18.2215 10.01C18.1049 10.01 18.0149 9.97333 17.9515 9.9C17.8882 9.82333 17.8399 9.7 17.8065 9.53C17.7799 9.37667 17.7532 9.195 17.7265 8.985C17.6999 8.775 17.6782 8.56 17.6615 8.34C17.6449 8.12 17.6365 7.92167 17.6365 7.745ZM21.7154 10.115C21.5054 10.115 21.3421 10.1017 21.2254 10.075C21.1121 10.0483 21.0338 10.0117 20.9904 9.965C20.9471 9.915 20.9238 9.86 20.9204 9.8C20.9204 9.70667 20.9754 9.62833 21.0854 9.565C21.1988 9.50167 21.4054 9.46167 21.7054 9.445L21.6254 9.54C21.5888 9.37 21.5621 9.17167 21.5454 8.945C21.5288 8.71833 21.5221 8.48333 21.5254 8.24C21.5288 7.99667 21.5404 7.765 21.5604 7.545C21.5804 7.32167 21.6088 7.13167 21.6454 6.975L22.0804 6.945C22.0071 6.975 21.9154 7.00167 21.8054 7.025C21.6954 7.045 21.5821 7.055 21.4654 7.055C21.2521 7.055 21.0938 7.03167 20.9904 6.985C20.8904 6.93833 20.8404 6.87333 20.8404 6.79C20.8404 6.64333 20.9288 6.53 21.1054 6.45C21.2854 6.36667 21.5604 6.325 21.9304 6.325C22.3704 6.325 22.7404 6.39833 23.0404 6.545C23.3438 6.68833 23.5738 6.89 23.7304 7.15C23.8871 7.40667 23.9654 7.70667 23.9654 8.05C23.9654 8.35 23.9121 8.62667 23.8054 8.88C23.6988 9.13 23.5454 9.34833 23.3454 9.535C23.1488 9.71833 22.9121 9.86167 22.6354 9.965C22.3621 10.065 22.0554 10.115 21.7154 10.115ZM22.4254 9.345C22.5388 9.345 22.6588 9.3 22.7854 9.21C22.9154 9.11667 23.0254 8.98167 23.1154 8.805C23.2054 8.625 23.2504 8.40333 23.2504 8.14C23.2504 7.94667 23.2221 7.77833 23.1654 7.635C23.1121 7.48833 23.0421 7.36667 22.9554 7.27C22.8688 7.17333 22.7771 7.10167 22.6804 7.055C22.5838 7.005 22.4921 6.98 22.4054 6.98C22.3354 6.98 22.2804 7.02333 22.2404 7.11C22.2038 7.19667 22.1771 7.32667 22.1604 7.5C22.1438 7.67 22.1354 7.88167 22.1354 8.135C22.1354 8.52833 22.1554 8.82833 22.1954 9.035C22.2354 9.24167 22.3121 9.345 22.4254 9.345ZM25.9164 10.04C25.5464 10.04 25.2514 9.985 25.0314 9.875C24.8114 9.765 24.6531 9.60667 24.5564 9.4C24.4598 9.19333 24.4114 8.94667 24.4114 8.66C24.4114 8.29667 24.4781 7.98833 24.6114 7.735C24.7481 7.47833 24.9348 7.28167 25.1714 7.145C25.4114 7.00833 25.6831 6.94 25.9864 6.94C26.3431 6.94 26.6048 7.02333 26.7714 7.19C26.9381 7.35333 27.0214 7.56833 27.0214 7.835C27.0214 8.04833 26.9648 8.23333 26.8514 8.39C26.7414 8.54333 26.5881 8.66167 26.3914 8.745C26.1948 8.82833 25.9681 8.87 25.7114 8.87C25.5681 8.87 25.4298 8.85167 25.2964 8.815C25.1631 8.77833 25.0431 8.72833 24.9364 8.665L25.0564 8.445C25.0464 8.525 25.0414 8.605 25.0414 8.685C25.0414 8.91833 25.1148 9.08667 25.2614 9.19C25.4081 9.29 25.6164 9.34 25.8864 9.34C26.0964 9.34 26.2648 9.32167 26.3914 9.285C26.5181 9.24833 26.6248 9.21333 26.7114 9.18C26.7981 9.14333 26.8831 9.125 26.9664 9.125C27.0131 9.125 27.0548 9.13833 27.0914 9.165C27.1314 9.18833 27.1631 9.22333 27.1864 9.27C27.2131 9.31667 27.2264 9.37333 27.2264 9.44C27.2264 9.54 27.1764 9.63667 27.0764 9.73C26.9764 9.82 26.8281 9.895 26.6314 9.955C26.4381 10.0117 26.1998 10.04 25.9164 10.04ZM25.6264 8.405C25.8631 8.405 26.0531 8.355 26.1964 8.255C26.3398 8.155 26.4114 8.03167 26.4114 7.885C26.4114 7.76833 26.3714 7.67333 26.2914 7.6C26.2148 7.52333 26.0931 7.485 25.9264 7.485C25.7698 7.485 25.6281 7.515 25.5014 7.575C25.3781 7.63167 25.2814 7.70667 25.2114 7.8C25.1414 7.89333 25.1064 7.995 25.1064 8.105C25.1064 8.20167 25.1514 8.27667 25.2414 8.33C25.3348 8.38 25.4631 8.405 25.6264 8.405ZM27.6658 7.745C27.6658 7.425 27.6958 7.195 27.7558 7.055C27.8158 6.91167 27.9008 6.84 28.0108 6.84C28.0975 6.84 28.1658 6.87667 28.2158 6.95C28.2658 7.02 28.3025 7.10833 28.3258 7.215C28.3492 7.31833 28.3608 7.42333 28.3608 7.53L28.3358 7.52C28.3925 7.34 28.4792 7.185 28.5958 7.055C28.7158 6.925 28.8592 6.86 29.0258 6.86C29.2225 6.86 29.3675 6.94167 29.4608 7.105C29.5542 7.265 29.6008 7.465 29.6008 7.705C29.6008 8.025 29.5642 8.24833 29.4908 8.375C29.4175 8.50167 29.3192 8.565 29.1958 8.565C29.1058 8.565 29.0392 8.52833 28.9958 8.455C28.9558 8.38167 28.9425 8.25167 28.9558 8.065C28.9692 7.86833 28.9575 7.73167 28.9208 7.655C28.8842 7.57833 28.8258 7.54 28.7458 7.54C28.6492 7.54 28.5692 7.60167 28.5058 7.725C28.4458 7.845 28.4158 7.99333 28.4158 8.17C28.4158 8.24 28.4242 8.32833 28.4408 8.435C28.4575 8.54167 28.4758 8.65833 28.4958 8.785C28.5158 8.90833 28.5342 9.03167 28.5508 9.155C28.5675 9.27833 28.5758 9.39167 28.5758 9.495C28.5758 9.67833 28.5475 9.81 28.4908 9.89C28.4342 9.97 28.3542 10.01 28.2508 10.01C28.1342 10.01 28.0442 9.97333 27.9808 9.9C27.9175 9.82333 27.8692 9.7 27.8358 9.53C27.8092 9.37667 27.7825 9.195 27.7558 8.985C27.7292 8.775 27.7075 8.56 27.6908 8.34C27.6742 8.12 27.6658 7.92167 27.6658 7.745ZM32.2288 10.05C32.1154 10.05 32.0371 10.0067 31.9938 9.92C31.9538 9.83 31.9304 9.68833 31.9238 9.495L31.9738 9.52C31.7871 9.88333 31.4338 10.065 30.9138 10.065C30.6771 10.065 30.4804 10.0233 30.3238 9.94C30.1671 9.85333 30.0504 9.74 29.9738 9.6C29.9004 9.45667 29.8638 9.30167 29.8638 9.135C29.8638 8.84833 29.9638 8.62167 30.1638 8.455C30.3638 8.285 30.6288 8.2 30.9588 8.2C31.1754 8.2 31.3638 8.23167 31.5238 8.295C31.6838 8.35833 31.8204 8.44667 31.9338 8.56L31.8488 8.55C31.8254 8.21333 31.7521 7.97333 31.6288 7.83C31.5088 7.68333 31.3371 7.61 31.1138 7.61C30.9838 7.61 30.8638 7.63 30.7538 7.67C30.6438 7.71 30.5421 7.75167 30.4488 7.795C30.3588 7.835 30.2738 7.855 30.1938 7.855C30.1138 7.855 30.0504 7.82833 30.0038 7.775C29.9604 7.72167 29.9388 7.65333 29.9388 7.57C29.9388 7.45 29.9954 7.33667 30.1088 7.23C30.2254 7.12333 30.3788 7.03667 30.5688 6.97C30.7588 6.90333 30.9654 6.87 31.1888 6.87C31.4588 6.87 31.6904 6.935 31.8838 7.065C32.0771 7.195 32.2238 7.385 32.3238 7.635C32.4104 7.84833 32.4721 8.08667 32.5088 8.35C32.5454 8.61333 32.5638 8.895 32.5638 9.195C32.5638 9.42167 32.5521 9.59667 32.5288 9.72C32.5054 9.84333 32.4688 9.93 32.4188 9.98C32.3721 10.0267 32.3088 10.05 32.2288 10.05ZM31.1238 9.49C31.2338 9.49 31.3454 9.475 31.4588 9.445C31.5721 9.41167 31.6671 9.36333 31.7438 9.3C31.8204 9.23667 31.8588 9.15833 31.8588 9.065C31.8588 8.985 31.8254 8.92 31.7588 8.87C31.6954 8.81667 31.6104 8.77667 31.5038 8.75C31.4004 8.72333 31.2888 8.71 31.1688 8.71C30.9654 8.71 30.8104 8.745 30.7038 8.815C30.6004 8.885 30.5488 8.97833 30.5488 9.095C30.5488 9.22167 30.5971 9.32 30.6938 9.39C30.7938 9.45667 30.9371 9.49 31.1238 9.49ZM33.1987 11.04C33.0653 11.04 32.9453 11.0117 32.8387 10.955C32.732 10.8983 32.647 10.8267 32.5837 10.74C32.5203 10.6533 32.4887 10.565 32.4887 10.475C32.4887 10.3983 32.5087 10.3383 32.5487 10.295C32.5887 10.2517 32.6403 10.23 32.7037 10.23C32.8137 10.23 32.932 10.2717 33.0587 10.355C33.1853 10.4383 33.3053 10.5533 33.4187 10.7L33.3437 10.69C33.287 10.2233 33.2437 9.77667 33.2137 9.35C33.187 8.92 33.1737 8.535 33.1737 8.195C33.1737 7.885 33.1987 7.65333 33.2487 7.5C33.302 7.34333 33.3887 7.265 33.5087 7.265C33.6453 7.265 33.7537 7.37167 33.8337 7.585C33.9137 7.79833 33.9537 8.15833 33.9537 8.665C33.9537 8.88833 33.947 9.11833 33.9337 9.355C33.9203 9.58833 33.9003 9.81 33.8737 10.02C33.8503 10.23 33.817 10.4067 33.7737 10.55C33.7203 10.7233 33.647 10.8483 33.5537 10.925C33.4637 11.0017 33.3453 11.04 33.1987 11.04ZM33.4287 6.85C33.322 6.85 33.2353 6.82667 33.1687 6.78C33.1053 6.73 33.0737 6.655 33.0737 6.555C33.0737 6.44167 33.112 6.34667 33.1887 6.27C33.2687 6.19 33.3803 6.15 33.5237 6.15C33.6437 6.15 33.7353 6.18 33.7987 6.24C33.862 6.29667 33.8937 6.37333 33.8937 6.47C33.8937 6.59 33.8503 6.68333 33.7637 6.75C33.677 6.81667 33.5653 6.85 33.4287 6.85ZM36.7503 10.05C36.6369 10.05 36.5586 10.0067 36.5153 9.92C36.4753 9.83 36.4519 9.68833 36.4453 9.495L36.4953 9.52C36.3086 9.88333 35.9553 10.065 35.4353 10.065C35.1986 10.065 35.0019 10.0233 34.8453 9.94C34.6886 9.85333 34.5719 9.74 34.4953 9.6C34.4219 9.45667 34.3853 9.30167 34.3853 9.135C34.3853 8.84833 34.4853 8.62167 34.6853 8.455C34.8853 8.285 35.1503 8.2 35.4803 8.2C35.6969 8.2 35.8853 8.23167 36.0453 8.295C36.2053 8.35833 36.3419 8.44667 36.4553 8.56L36.3703 8.55C36.3469 8.21333 36.2736 7.97333 36.1503 7.83C36.0303 7.68333 35.8586 7.61 35.6353 7.61C35.5053 7.61 35.3853 7.63 35.2753 7.67C35.1653 7.71 35.0636 7.75167 34.9703 7.795C34.8803 7.835 34.7953 7.855 34.7153 7.855C34.6353 7.855 34.5719 7.82833 34.5253 7.775C34.4819 7.72167 34.4603 7.65333 34.4603 7.57C34.4603 7.45 34.5169 7.33667 34.6303 7.23C34.7469 7.12333 34.9003 7.03667 35.0903 6.97C35.2803 6.90333 35.4869 6.87 35.7103 6.87C35.9803 6.87 36.2119 6.935 36.4053 7.065C36.5986 7.195 36.7453 7.385 36.8453 7.635C36.9319 7.84833 36.9936 8.08667 37.0303 8.35C37.0669 8.61333 37.0853 8.895 37.0853 9.195C37.0853 9.42167 37.0736 9.59667 37.0503 9.72C37.0269 9.84333 36.9903 9.93 36.9403 9.98C36.8936 10.0267 36.8303 10.05 36.7503 10.05ZM35.6453 9.49C35.7553 9.49 35.8669 9.475 35.9803 9.445C36.0936 9.41167 36.1886 9.36333 36.2653 9.3C36.3419 9.23667 36.3803 9.15833 36.3803 9.065C36.3803 8.985 36.3469 8.92 36.2803 8.87C36.2169 8.81667 36.1319 8.77667 36.0253 8.75C35.9219 8.72333 35.8103 8.71 35.6903 8.71C35.4869 8.71 35.3319 8.745 35.2253 8.815C35.1219 8.885 35.0703 8.97833 35.0703 9.095C35.0703 9.22167 35.1186 9.32 35.2153 9.39C35.3153 9.45667 35.4586 9.49 35.6453 9.49ZM38.3888 6.99H38.2888C38.2788 6.84333 38.2821 6.705 38.2988 6.575C38.3154 6.44167 38.3504 6.335 38.4038 6.255C38.4604 6.17167 38.5404 6.13 38.6438 6.13C38.7371 6.13 38.8054 6.16 38.8488 6.22C38.8921 6.28 38.9138 6.36333 38.9138 6.47C38.9138 6.68 38.8738 6.86 38.7938 7.01L38.7038 7C38.8838 6.93667 39.0871 6.905 39.3138 6.905C39.4571 6.905 39.5704 6.93333 39.6538 6.99C39.7404 7.04333 39.7838 7.135 39.7838 7.265C39.7838 7.38833 39.7338 7.48167 39.6338 7.545C39.5338 7.60833 39.4088 7.64 39.2588 7.64C39.1688 7.64 39.0721 7.63667 38.9688 7.63C38.8688 7.62 38.7704 7.605 38.6738 7.585L38.7588 7.48C38.7888 7.60667 38.8171 7.75167 38.8438 7.915C38.8738 8.075 38.9004 8.24167 38.9238 8.415C38.9471 8.58833 38.9654 8.75667 38.9788 8.92C38.9921 9.08333 38.9988 9.23 38.9988 9.36C38.9988 9.57333 38.9654 9.74167 38.8988 9.865C38.8321 9.98833 38.7338 10.05 38.6038 10.05C38.5004 10.05 38.4188 10.0183 38.3588 9.955C38.3021 9.89167 38.2604 9.81167 38.2338 9.715C38.2104 9.615 38.1954 9.51167 38.1888 9.405C38.1854 9.29833 38.1838 9.20167 38.1838 9.115C38.1838 8.96833 38.1904 8.80333 38.2038 8.62C38.2171 8.43333 38.2354 8.24167 38.2588 8.045C38.2854 7.84833 38.3154 7.65833 38.3488 7.475L38.4488 7.56C38.2788 7.64667 38.0688 7.69 37.8188 7.69C37.6654 7.69 37.5471 7.66167 37.4638 7.605C37.3804 7.54833 37.3388 7.46 37.3388 7.34C37.3388 7.21 37.3854 7.11 37.4788 7.04C37.5721 6.96667 37.6971 6.93 37.8538 6.93C37.9571 6.93 38.0538 6.93667 38.1438 6.95C38.2371 6.96 38.3188 6.97333 38.3888 6.99Z"></path>
</svg>
