<svg version="1.1" xmlns="http://www.w3.org/2000/svg" xmlns:xlink="http://www.w3.org/1999/xlink" width="263.596" height="15.792" viewBox="0,0,263.596,15.792"><g transform="translate(-108.202,-172.104)"><g data-paper-data="{&quot;isPaintingLayer&quot;:true}" fill="#060606" fill-rule="nonzero" stroke="none" stroke-width="1" stroke-linecap="butt" stroke-linejoin="miter" stroke-miterlimit="10" stroke-dasharray="" stroke-dashoffset="0" style="mix-blend-mode: normal"><path d="M112.634,173.256c1.26933,0 2.20267,0.32533 2.8,0.976c0.608,0.65067 0.912,1.504 0.912,2.56c0,0.72533 -0.17067,1.35467 -0.512,1.888c-0.33067,0.53333 -0.784,0.94933 -1.36,1.248c-0.576,0.288 -1.22667,0.432 -1.952,0.432c-0.34133,0 -0.704,-0.03733 -1.088,-0.112c-0.37333,-0.07467 -0.76267,-0.21867 -1.168,-0.432l0.08,-0.208c0.08533,0.26667 0.15467,0.59733 0.208,0.992c0.064,0.384 0.112,0.784 0.144,1.2c0.04267,0.4053 0.064,0.7787 0.064,1.12c0,0.6293 -0.10667,1.1147 -0.32,1.456c-0.20267,0.3307 -0.50667,0.496 -0.912,0.496c-0.34133,0 -0.61333,-0.1067 -0.816,-0.32c-0.192,-0.2133 -0.32533,-0.5653 -0.4,-1.056c-0.07467,-0.4907 -0.112,-1.1467 -0.112,-1.968c0,-1.57867 0.06933,-2.92267 0.208,-4.032c0.14933,-1.12 0.4,-2 0.752,-2.64c0.27733,-0.49067 0.704,-0.88 1.28,-1.168c0.58667,-0.288 1.31733,-0.432 2.192,-0.432zM112.33,178.472c0.64,0 1.15733,-0.17067 1.552,-0.512c0.40533,-0.34133 0.608,-0.83733 0.608,-1.488c0,-0.42667 -0.144,-0.77867 -0.432,-1.056c-0.27733,-0.288 -0.71467,-0.432 -1.312,-0.432c-0.43733,0 -0.816,0.10133 -1.136,0.304c-0.32,0.192 -0.56533,0.464 -0.736,0.816c-0.16,0.34133 -0.24,0.736 -0.24,1.184c0,0.416 0.13333,0.72 0.4,0.912c0.27733,0.18133 0.70933,0.272 1.296,0.272zM122.1958,184.888c-1.184,0 -2.128,-0.176 -2.832,-0.528c-0.704,-0.352 -1.2107,-0.8587 -1.52005,-1.52c-0.30933,-0.6613 -0.464,-1.45067 -0.464,-2.368c0,-1.16267 0.21333,-2.14933 0.64,-2.96c0.43735,-0.82133 1.03465,-1.45067 1.79205,-1.888c0.7679,-0.43733 1.6373,-0.656 2.608,-0.656c1.1413,0 1.9786,0.26667 2.512,0.8c0.5333,0.52267 0.8,1.21067 0.8,2.064c0,0.68267 -0.1814,1.27467 -0.5441,1.776c-0.3519,0.49067 -0.8426,0.86933 -1.4719,1.136c-0.6294,0.26667 -1.3547,0.4 -2.176,0.4c-0.4587,0 -0.9014,-0.05867 -1.328,-0.176c-0.4267,-0.11733 -0.8107,-0.27733 -1.152,-0.48l0.384,-0.704c-0.032,0.256 -0.048,0.512 -0.048,0.768c0,0.74667 0.2346,1.2853 0.704,1.616c0.4693,0.32 1.136,0.48 2,0.48c0.672,0 1.2106,-0.0587 1.616,-0.176c0.4053,-0.1173 0.7466,-0.2293 1.024,-0.336c0.2773,-0.1173 0.5493,-0.176 0.8159,-0.176c0.1494,0 0.2827,0.0427 0.4001,0.128c0.128,0.0747 0.2293,0.1867 0.304,0.336c0.0853,0.1493 0.128,0.3307 0.128,0.544c0,0.32 -0.16,0.6293 -0.48,0.928c-0.32,0.288 -0.7947,0.528 -1.424,0.72c-0.6187,0.1813 -1.3814,0.272 -2.288,0.272zM121.2678,179.656c0.7573,0 1.3653,-0.16 1.824,-0.48c0.4586,-0.32 0.688,-0.71467 0.688,-1.184c0,-0.37333 -0.128,-0.67733 -0.384,-0.912c-0.2454,-0.24533 -0.6347,-0.368 -1.168,-0.368c-0.5014,0 -0.9547,0.096 -1.36,0.288c-0.3947,0.18133 -0.704,0.42133 -0.928,0.72c-0.224,0.29867 -0.336,0.624 -0.336,0.976c0,0.30933 0.144,0.54933 0.432,0.72c0.2986,0.16 0.7093,0.24 1.232,0.24zM127.7939,177.544c0,-1.024 0.096,-1.76 0.288,-2.208c0.192,-0.45867 0.464,-0.688 0.816,-0.688c0.2773,0 0.496,0.11733 0.656,0.352c0.16,0.224 0.2773,0.50667 0.352,0.848c0.0746,0.33067 0.112,0.66667 0.112,1.008l-0.08,-0.032c0.1813,-0.576 0.4586,-1.072 0.832,-1.488c0.384,-0.416 0.8426,-0.624 1.376,-0.624c0.6293,0 1.0933,0.26133 1.392,0.784c0.2986,0.512 0.448,1.152 0.448,1.92c0,1.024 -0.1174,1.73867 -0.352,2.144c-0.2347,0.40533 -0.5494,0.608 -0.944,0.608c-0.288,0 -0.5014,-0.11733 -0.64,-0.352c-0.128,-0.23467 -0.1707,-0.65067 -0.128,-1.248c0.0426,-0.62933 0.0053,-1.06667 -0.112,-1.312c-0.1174,-0.24533 -0.304,-0.368 -0.56,-0.368c-0.3094,0 -0.5654,0.19733 -0.768,0.592c-0.192,0.384 -0.288,0.85867 -0.288,1.424c0,0.224 0.0266,0.50667 0.08,0.848c0.0533,0.34133 0.112,0.71467 0.176,1.12c0.064,0.39467 0.1226,0.78933 0.176,1.184c0.0533,0.3947 0.08,0.7573 0.08,1.088c0,0.5867 -0.0907,1.008 -0.272,1.264c-0.1814,0.256 -0.4374,0.384 -0.768,0.384c-0.3734,0 -0.6614,-0.1173 -0.864,-0.352c-0.2027,-0.2453 -0.3574,-0.64 -0.464,-1.184c-0.0854,-0.4907 -0.1707,-1.072 -0.256,-1.744c-0.0854,-0.672 -0.1547,-1.36 -0.208,-2.064c-0.0534,-0.704 -0.08,-1.33867 -0.08,-1.904zM136.6193,184.92c-0.2347,0 -0.4267,-0.08 -0.576,-0.24c-0.1387,-0.16 -0.2507,-0.3893 -0.336,-0.688c-0.0854,-0.4373 -0.16,-1.008 -0.2241,-1.712c-0.0533,-0.71467 -0.0799,-1.47733 -0.0799,-2.288c0,-0.45867 0.0106,-0.976 0.032,-1.552c0.0213,-0.576 0.048,-1.15733 0.08,-1.744c0.0426,-0.59733 0.0853,-1.152 0.128,-1.664c0.0533,-0.512 0.1066,-0.928 0.16,-1.248c0.0853,-0.46933 0.208,-0.83733 0.368,-1.104c0.1706,-0.27733 0.4373,-0.416 0.8,-0.416c0.3733,0 0.6453,0.144 0.816,0.432c0.1706,0.27733 0.256,0.624 0.256,1.04c0,0.46933 -0.0374,1.024 -0.112,1.664c-0.064,0.64 -0.1654,1.29067 -0.304,1.952l-0.32,0.384c0.1173,-0.448 0.3093,-0.85867 0.576,-1.232c0.2666,-0.37333 0.6026,-0.66667 1.008,-0.88c0.4053,-0.224 0.8746,-0.336 1.408,-0.336c1.0453,0 1.8773,0.37333 2.496,1.12c0.6293,0.736 0.944,1.888 0.944,3.456c0,1.09867 -0.1654,2.016 -0.4961,2.752c-0.3199,0.736 -0.7626,1.2907 -1.3279,1.664c-0.5547,0.3627 -1.1894,0.544 -1.904,0.544c-0.672,0 -1.2534,-0.1973 -1.744,-0.592c-0.48,-0.3947 -0.7894,-0.9653 -0.928,-1.712l0.224,0.176c-0.0427,0.768 -0.1494,1.3333 -0.32,1.696c-0.16,0.352 -0.368,0.528 -0.624,0.528zM139.5473,182.968c0.5333,0 1.0026,-0.24 1.408,-0.72c0.4053,-0.48 0.608,-1.232 0.608,-2.256c0,-0.85333 -0.16,-1.54667 -0.48,-2.08c-0.3094,-0.53333 -0.832,-0.8 -1.568,-0.8c-0.5974,0 -1.0774,0.24 -1.44,0.72c-0.3627,0.46933 -0.544,1.184 -0.544,2.144c0,0.87467 0.1813,1.59467 0.544,2.16c0.3626,0.5547 0.8533,0.832 1.472,0.832zM149.8364,184.888c-1.184,0 -2.128,-0.176 -2.832,-0.528c-0.704,-0.352 -1.2107,-0.8587 -1.52,-1.52c-0.3094,-0.6613 -0.464,-1.45067 -0.464,-2.368c0,-1.16267 0.2133,-2.14933 0.64,-2.96c0.4373,-0.82133 1.0346,-1.45067 1.792,-1.888c0.768,-0.43733 1.6373,-0.656 2.608,-0.656c1.1413,0 1.9786,0.26667 2.512,0.8c0.5333,0.52267 0.8,1.21067 0.8,2.064c0,0.68267 -0.1814,1.27467 -0.544,1.776c-0.352,0.49067 -0.8427,0.86933 -1.472,1.136c-0.6294,0.26667 -1.3547,0.4 -2.176,0.4c-0.4587,0 -0.9014,-0.05867 -1.328,-0.176c-0.4267,-0.11733 -0.8107,-0.27733 -1.152,-0.48l0.384,-0.704c-0.032,0.256 -0.048,0.512 -0.048,0.768c0,0.74667 0.2346,1.2853 0.704,1.616c0.4693,0.32 1.136,0.48 2,0.48c0.672,0 1.2106,-0.0587 1.616,-0.176c0.4053,-0.1173 0.7466,-0.2293 1.024,-0.336c0.2773,-0.1173 0.5493,-0.176 0.816,-0.176c0.1493,0 0.2826,0.0427 0.4,0.128c0.128,0.0747 0.2293,0.1867 0.304,0.336c0.0853,0.1493 0.128,0.3307 0.128,0.544c0,0.32 -0.16,0.6293 -0.48,0.928c-0.32,0.288 -0.7947,0.528 -1.424,0.72c-0.6187,0.1813 -1.3814,0.272 -2.288,0.272zM148.9084,179.656c0.7573,0 1.3653,-0.16 1.824,-0.48c0.4586,-0.32 0.688,-0.71467 0.688,-1.184c0,-0.37333 -0.128,-0.67733 -0.384,-0.912c-0.2454,-0.24533 -0.6347,-0.368 -1.168,-0.368c-0.5014,0 -0.9547,0.096 -1.36,0.288c-0.3947,0.18133 -0.704,0.42133 -0.928,0.72c-0.224,0.29867 -0.336,0.624 -0.336,0.976c0,0.30933 0.144,0.54933 0.432,0.72c0.2986,0.16 0.7093,0.24 1.232,0.24zM158.4265,184.984c-1.0453,0 -1.8613,-0.3893 -2.448,-1.168c-0.5867,-0.7893 -0.88,-1.9893 -0.88,-3.6c0,-1.6 0.288,-2.768 0.864,-3.504c0.5867,-0.74667 1.424,-1.12 2.512,-1.12c0.6187,0 1.1573,0.128 1.616,0.384c0.4693,0.256 0.8853,0.61867 1.248,1.088l-0.128,0.064c-0.096,-0.43733 -0.192,-0.90133 -0.288,-1.392c-0.096,-0.49067 -0.176,-0.95467 -0.24,-1.392c-0.0533,-0.448 -0.08,-0.8 -0.08,-1.056c0,-0.36267 0.0587,-0.64 0.176,-0.832c0.1173,-0.20267 0.304,-0.304 0.56,-0.304c0.3627,0 0.656,0.15467 0.88,0.464c0.224,0.29867 0.4107,0.76267 0.56,1.392c0.1387,0.56533 0.2613,1.23733 0.368,2.016c0.1067,0.768 0.192,1.57333 0.256,2.416c0.0747,0.832 0.112,1.632 0.112,2.4c0,1.0667 -0.0587,1.8987 -0.176,2.496c-0.1067,0.5867 -0.2613,0.9973 -0.464,1.232c-0.192,0.2347 -0.4213,0.352 -0.688,0.352c-0.3307,0 -0.5547,-0.1653 -0.672,-0.496c-0.1173,-0.3307 -0.1653,-0.8693 -0.144,-1.616h0.24c-0.288,0.6613 -0.7093,1.1893 -1.264,1.584c-0.544,0.3947 -1.184,0.592 -1.92,0.592zM159.2745,183c0.384,0 0.736,-0.096 1.056,-0.288c0.3307,-0.2027 0.592,-0.512 0.784,-0.928c0.2027,-0.416 0.304,-0.944 0.304,-1.584c0,-0.82133 -0.1867,-1.488 -0.56,-2c-0.3733,-0.52267 -0.912,-0.784 -1.616,-0.784c-0.5547,0 -1.008,0.22933 -1.36,0.688c-0.3413,0.45867 -0.512,1.152 -0.512,2.08c0,0.82133 0.1707,1.49867 0.512,2.032c0.352,0.5227 0.816,0.784 1.392,0.784zM172.4578,184.92c-0.3627,0 -0.6134,-0.1387 -0.752,-0.416c-0.128,-0.288 -0.2027,-0.7413 -0.224,-1.36l0.16,0.08c-0.5974,1.1627 -1.728,1.744 -3.392,1.744c-0.7574,0 -1.3867,-0.1333 -1.888,-0.4c-0.5014,-0.2773 -0.8747,-0.64 -1.12,-1.088c-0.2347,-0.4587 -0.352,-0.9547 -0.352,-1.488c0,-0.91733 0.32,-1.64267 0.96,-2.176c0.64,-0.544 1.488,-0.816 2.544,-0.816c0.6933,0 1.296,0.10133 1.808,0.304c0.512,0.20267 0.9493,0.48533 1.312,0.848l-0.272,-0.032c-0.0747,-1.07733 -0.3094,-1.84533 -0.704,-2.304c-0.384,-0.46933 -0.9334,-0.704 -1.648,-0.704c-0.416,0 -0.8,0.064 -1.152,0.192c-0.352,0.128 -0.6774,0.26133 -0.976,0.4c-0.288,0.128 -0.56,0.192 -0.816,0.192c-0.256,0 -0.4587,-0.08533 -0.608,-0.256c-0.1387,-0.17067 -0.208,-0.38933 -0.208,-0.656c0,-0.384 0.1813,-0.74667 0.544,-1.088c0.3733,-0.34133 0.864,-0.61867 1.472,-0.832c0.608,-0.21333 1.2693,-0.32 1.984,-0.32c0.864,0 1.6053,0.208 2.224,0.624c0.6186,0.416 1.088,1.024 1.408,1.824c0.2773,0.68267 0.4746,1.44533 0.592,2.288c0.1173,0.84267 0.1759,1.744 0.1759,2.704c0,0.7253 -0.0373,1.2853 -0.1119,1.68c-0.0747,0.3947 -0.192,0.672 -0.352,0.832c-0.1494,0.1493 -0.352,0.224 -0.608,0.224zM168.9218,183.128c0.352,0 0.7093,-0.048 1.072,-0.144c0.3626,-0.1067 0.6666,-0.2613 0.912,-0.464c0.2453,-0.2027 0.368,-0.4533 0.368,-0.752c0,-0.256 -0.1067,-0.464 -0.32,-0.624c-0.2027,-0.17067 -0.4747,-0.29867 -0.816,-0.384c-0.3307,-0.08533 -0.688,-0.128 -1.072,-0.128c-0.6507,0 -1.1467,0.112 -1.488,0.336c-0.3307,0.224 -0.496,0.52267 -0.496,0.896c0,0.4053 0.1546,0.72 0.464,0.944c0.32,0.2133 0.7786,0.32 1.376,0.32zM182.4734,184.92c-0.3627,0 -0.6134,-0.1387 -0.752,-0.416c-0.128,-0.288 -0.2027,-0.7413 -0.224,-1.36l0.16,0.08c-0.5974,1.1627 -1.728,1.744 -3.392,1.744c-0.7574,0 -1.3867,-0.1333 -1.888,-0.4c-0.5014,-0.2773 -0.8747,-0.64 -1.12,-1.088c-0.2347,-0.4587 -0.352,-0.9547 -0.352,-1.488c0,-0.91733 0.32,-1.64267 0.96,-2.176c0.64,-0.544 1.488,-0.816 2.544,-0.816c0.6933,0 1.296,0.10133 1.808,0.304c0.512,0.20267 0.9493,0.48533 1.312,0.848l-0.272,-0.032c-0.0747,-1.07733 -0.3094,-1.84533 -0.704,-2.304c-0.384,-0.46933 -0.9334,-0.704 -1.648,-0.704c-0.416,0 -0.8,0.064 -1.152,0.192c-0.352,0.128 -0.6774,0.26133 -0.976,0.4c-0.288,0.128 -0.56,0.192 -0.816,0.192c-0.256,0 -0.4587,-0.08533 -0.608,-0.256c-0.1387,-0.17067 -0.208,-0.38933 -0.208,-0.656c0,-0.384 0.1813,-0.74667 0.544,-1.088c0.3733,-0.34133 0.864,-0.61867 1.472,-0.832c0.608,-0.21333 1.2693,-0.32 1.984,-0.32c0.864,0 1.6053,0.208 2.224,0.624c0.6186,0.416 1.088,1.024 1.408,1.824c0.2773,0.68267 0.4746,1.44533 0.592,2.288c0.1173,0.84267 0.176,1.744 0.176,2.704c0,0.7253 -0.0374,1.2853 -0.112,1.68c-0.0747,0.3947 -0.192,0.672 -0.352,0.832c-0.1494,0.1493 -0.352,0.224 -0.608,0.224zM178.9374,183.128c0.352,0 0.7093,-0.048 1.072,-0.144c0.3626,-0.1067 0.6666,-0.2613 0.912,-0.464c0.2453,-0.2027 0.368,-0.4533 0.368,-0.752c0,-0.256 -0.1067,-0.464 -0.32,-0.624c-0.2027,-0.17067 -0.4747,-0.29867 -0.816,-0.384c-0.3307,-0.08533 -0.688,-0.128 -1.072,-0.128c-0.6507,0 -1.1467,0.112 -1.488,0.336c-0.3307,0.224 -0.496,0.52267 -0.496,0.896c0,0.4053 0.1546,0.72 0.464,0.944c0.32,0.2133 0.7786,0.32 1.376,0.32zM187.129,174.808c0.3413,0 0.5707,0.13867 0.688,0.416c0.128,0.27733 0.192,0.688 0.192,1.232c0,0.128 -0.0107,0.26667 -0.032,0.416c-0.0107,0.13867 -0.032,0.26667 -0.064,0.384l-0.032,-0.32c0.256,-0.69333 0.6507,-1.232 1.184,-1.616c0.5333,-0.39467 1.0987,-0.592 1.696,-0.592c0.6613,0 1.2107,0.18667 1.648,0.56c0.448,0.37333 0.7787,0.896 0.992,1.568c0.224,0.672 0.336,1.46667 0.336,2.384c0,0.56533 -0.0267,1.12533 -0.08,1.68c-0.0427,0.544 -0.1067,1.0453 -0.192,1.504c-0.0747,0.448 -0.16,0.816 -0.256,1.104c-0.128,0.3627 -0.2933,0.6347 -0.496,0.816c-0.2027,0.1707 -0.4427,0.256 -0.72,0.256c-0.2773,0 -0.4907,-0.1013 -0.64,-0.304c-0.1493,-0.2027 -0.224,-0.4747 -0.224,-0.816c0,-0.3627 0.0267,-0.8 0.08,-1.312c0.0533,-0.52267 0.1013,-1.05067 0.144,-1.584c0.0533,-0.544 0.08,-1.03467 0.08,-1.472c0,-1.49333 -0.4907,-2.24 -1.472,-2.24c-0.5227,0 -0.96,0.23467 -1.312,0.704c-0.352,0.45867 -0.5867,1.11467 -0.704,1.968c-0.032,0.288 -0.048,0.64533 -0.048,1.072c0,0.42667 0,0.85333 0,1.28c0.0107,0.416 0,0.768 -0.032,1.056c-0.0427,0.64 -0.1653,1.0987 -0.368,1.376c-0.192,0.2773 -0.4587,0.416 -0.8,0.416c-0.3947,0 -0.6933,-0.1813 -0.896,-0.544c-0.2027,-0.3733 -0.304,-0.9973 -0.304,-1.872c0,-0.448 0.0107,-0.94933 0.032,-1.504c0.0213,-0.55467 0.048,-1.10933 0.08,-1.664c0.0427,-0.56533 0.0907,-1.07733 0.144,-1.536c0.1067,-0.864 0.2613,-1.54667 0.464,-2.048c0.2027,-0.512 0.5067,-0.768 0.912,-0.768zM200.0236,184.92c-0.192,0 -0.3466,-0.064 -0.464,-0.192c-0.1173,-0.1387 -0.2133,-0.3573 -0.288,-0.656c-0.0746,-0.3413 -0.144,-0.8747 -0.208,-1.6c-0.064,-0.736 -0.096,-1.55733 -0.096,-2.464c0,-0.98133 0.0267,-1.936 0.08,-2.864c0.064,-0.93867 0.1547,-1.76533 0.272,-2.48c0.0854,-0.46933 0.208,-0.816 0.368,-1.04c0.1707,-0.23467 0.4054,-0.352 0.704,-0.352c0.192,0 0.3627,0.064 0.512,0.192c0.1494,0.128 0.2614,0.35733 0.336,0.688c0.0854,0.33067 0.128,0.8 0.128,1.408c0,0.29867 -0.0106,0.64 -0.032,1.024c-0.0213,0.37333 -0.0533,0.78933 -0.096,1.248h0.064c0.8534,-1.17333 1.6054,-2.10667 2.256,-2.8c0.6507,-0.704 1.2214,-1.21067 1.712,-1.52c0.5014,-0.30933 0.9387,-0.464 1.312,-0.464c0.2987,0 0.5227,0.096 0.672,0.288c0.16,0.192 0.24,0.42667 0.24,0.704c0,0.58667 -0.4426,1.29067 -1.328,2.112c-0.8746,0.82133 -2.288,1.808 -4.24,2.96l0.128,-0.304c1.6854,1.06667 2.96,2.01067 3.824,2.832c0.864,0.8107 1.296,1.5307 1.296,2.16c0,0.2773 -0.0906,0.5067 -0.272,0.688c-0.1706,0.1707 -0.4266,0.256 -0.768,0.256c-0.4266,0 -0.88,-0.144 -1.36,-0.432c-0.48,-0.2987 -1.0133,-0.7947 -1.6,-1.488c-0.576,-0.704 -1.232,-1.65867 -1.968,-2.864h-0.064c0.0214,0.24533 0.0374,0.50133 0.048,0.768c0.0107,0.256 0.016,0.512 0.016,0.768c0,1.2267 -0.0853,2.1067 -0.256,2.64c-0.1706,0.5227 -0.48,0.784 -0.928,0.784zM213.336,184.888c-1.184,0 -2.128,-0.176 -2.832,-0.528c-0.704,-0.352 -1.21,-0.8587 -1.52,-1.52c-0.309,-0.6613 -0.464,-1.45067 -0.464,-2.368c0,-1.16267 0.214,-2.14933 0.64,-2.96c0.438,-0.82133 1.035,-1.45067 1.792,-1.888c0.768,-0.43733 1.638,-0.656 2.608,-0.656c1.142,0 1.979,0.26667 2.512,0.8c0.534,0.52267 0.8,1.21067 0.8,2.064c0,0.68267 -0.181,1.27467 -0.544,1.776c-0.352,0.49067 -0.842,0.86933 -1.472,1.136c-0.629,0.26667 -1.354,0.4 -2.176,0.4c-0.458,0 -0.901,-0.05867 -1.328,-0.176c-0.426,-0.11733 -0.81,-0.27733 -1.152,-0.48l0.384,-0.704c-0.032,0.256 -0.048,0.512 -0.048,0.768c0,0.74667 0.235,1.2853 0.704,1.616c0.47,0.32 1.136,0.48 2,0.48c0.672,0 1.211,-0.0587 1.616,-0.176c0.406,-0.1173 0.747,-0.2293 1.024,-0.336c0.278,-0.1173 0.55,-0.176 0.816,-0.176c0.15,0 0.283,0.0427 0.4,0.128c0.128,0.0747 0.23,0.1867 0.304,0.336c0.086,0.1493 0.128,0.3307 0.128,0.544c0,0.32 -0.16,0.6293 -0.48,0.928c-0.32,0.288 -0.794,0.528 -1.424,0.72c-0.618,0.1813 -1.381,0.272 -2.288,0.272zM212.408,179.656c0.758,0 1.366,-0.16 1.824,-0.48c0.459,-0.32 0.688,-0.71467 0.688,-1.184c0,-0.37333 -0.128,-0.67733 -0.384,-0.912c-0.245,-0.24533 -0.634,-0.368 -1.168,-0.368c-0.501,0 -0.954,0.096 -1.36,0.288c-0.394,0.18133 -0.704,0.42133 -0.928,0.72c-0.224,0.29867 -0.336,0.624 -0.336,0.976c0,0.30933 0.144,0.54933 0.432,0.72c0.299,0.16 0.71,0.24 1.232,0.24zM220.663,184.792c-0.331,0 -0.592,-0.0747 -0.784,-0.224c-0.192,-0.16 -0.347,-0.4213 -0.464,-0.784c-0.16,-0.5333 -0.283,-1.2053 -0.368,-2.016c-0.075,-0.82133 -0.112,-1.82933 -0.112,-3.024c0,-0.736 0.026,-1.472 0.079,-2.208c0.065,-0.74667 0.145,-1.424 0.241,-2.032c0.096,-0.61867 0.197,-1.09867 0.304,-1.44c0.117,-0.36267 0.256,-0.61333 0.416,-0.752c0.16,-0.13867 0.341,-0.208 0.544,-0.208c0.213,0 0.384,0.07467 0.512,0.224c0.128,0.13867 0.229,0.38933 0.304,0.752c0.064,0.352 0.112,0.784 0.144,1.296c0.042,0.512 0.064,1.06133 0.064,1.648c0,0.8 -0.038,1.64267 -0.112,2.528c-0.075,0.88533 -0.176,1.75467 -0.304,2.608c-0.118,0.8533 -0.262,1.6373 -0.432,2.352l-0.448,-0.224c0.277,-0.3413 0.592,-0.608 0.944,-0.8c0.362,-0.192 0.693,-0.288 0.991,-0.288c0.246,0 0.433,0.0693 0.561,0.208c0.138,0.128 0.208,0.3307 0.208,0.608c0,0.2773 -0.123,0.5547 -0.368,0.832c-0.235,0.2773 -0.528,0.5067 -0.88,0.688c-0.352,0.1707 -0.699,0.256 -1.04,0.256zM225.811,172.488c0.427,0 0.731,0.11733 0.912,0.352c0.192,0.23467 0.288,0.50667 0.288,0.816c0,0.384 -0.117,0.68267 -0.352,0.896c-0.224,0.20267 -0.544,0.304 -0.96,0.304c-0.405,0 -0.709,-0.112 -0.912,-0.336c-0.202,-0.23467 -0.304,-0.50667 -0.304,-0.816c0,-0.40533 0.123,-0.70933 0.368,-0.912c0.246,-0.20267 0.566,-0.304 0.96,-0.304zM225.907,176.056c0.342,0 0.608,0.32 0.8,0.96c0.203,0.64 0.304,1.65867 0.304,3.056c0,1.7173 -0.122,2.9547 -0.368,3.712c-0.245,0.7573 -0.618,1.136 -1.12,1.136c-0.384,0 -0.666,-0.2773 -0.848,-0.832c-0.181,-0.5653 -0.272,-1.5467 -0.272,-2.944c0,-1.71733 0.139,-2.992 0.416,-3.824c0.288,-0.84267 0.651,-1.264 1.088,-1.264zM230.694,184.792c-0.331,0 -0.592,-0.0747 -0.784,-0.224c-0.192,-0.16 -0.347,-0.4213 -0.464,-0.784c-0.16,-0.5333 -0.283,-1.2053 -0.368,-2.016c-0.075,-0.82133 -0.112,-1.82933 -0.112,-3.024c0,-0.736 0.026,-1.472 0.08,-2.208c0.064,-0.74667 0.144,-1.424 0.24,-2.032c0.096,-0.61867 0.197,-1.09867 0.304,-1.44c0.117,-0.36267 0.256,-0.61333 0.416,-0.752c0.16,-0.13867 0.341,-0.208 0.544,-0.208c0.213,0 0.384,0.07467 0.512,0.224c0.128,0.13867 0.229,0.38933 0.304,0.752c0.064,0.352 0.112,0.784 0.144,1.296c0.042,0.512 0.064,1.06133 0.064,1.648c0,0.8 -0.038,1.64267 -0.112,2.528c-0.075,0.88533 -0.176,1.75467 -0.304,2.608c-0.118,0.8533 -0.262,1.6373 -0.432,2.352l-0.448,-0.224c0.277,-0.3413 0.592,-0.608 0.944,-0.8c0.362,-0.192 0.693,-0.288 0.992,-0.288c0.245,0 0.432,0.0693 0.56,0.208c0.138,0.128 0.208,0.3307 0.208,0.608c0,0.2773 -0.123,0.5547 -0.368,0.832c-0.235,0.2773 -0.528,0.5067 -0.88,0.688c-0.352,0.1707 -0.699,0.256 -1.04,0.256zM235.843,172.488c0.426,0 0.73,0.11733 0.912,0.352c0.192,0.23467 0.288,0.50667 0.288,0.816c0,0.384 -0.118,0.68267 -0.352,0.896c-0.224,0.20267 -0.544,0.304 -0.96,0.304c-0.406,0 -0.71,-0.112 -0.912,-0.336c-0.203,-0.23467 -0.305,-0.50667 -0.305,-0.816c0,-0.40533 0.123,-0.70933 0.369,-0.912c0.245,-0.20267 0.565,-0.304 0.96,-0.304zM235.939,176.056c0.341,0 0.608,0.32 0.8,0.96c0.202,0.64 0.304,1.65867 0.304,3.056c0,1.7173 -0.123,2.9547 -0.368,3.712c-0.246,0.7573 -0.619,1.136 -1.12,1.136c-0.384,0 -0.667,-0.2773 -0.848,-0.832c-0.182,-0.5653 -0.272,-1.5467 -0.272,-2.944c0,-1.71733 0.138,-2.992 0.416,-3.824c0.288,-0.84267 0.65,-1.264 1.088,-1.264zM240.629,174.808c0.341,0 0.571,0.13867 0.688,0.416c0.128,0.27733 0.192,0.688 0.192,1.232c0,0.128 -0.011,0.26667 -0.032,0.416c-0.011,0.13867 -0.032,0.26667 -0.064,0.384l-0.032,-0.32c0.256,-0.69333 0.651,-1.232 1.184,-1.616c0.533,-0.39467 1.099,-0.592 1.696,-0.592c0.661,0 1.211,0.18667 1.648,0.56c0.448,0.37333 0.779,0.896 0.992,1.568c0.224,0.672 0.336,1.46667 0.336,2.384c0,0.56533 -0.027,1.12533 -0.08,1.68c-0.043,0.544 -0.107,1.0453 -0.192,1.504c-0.075,0.448 -0.16,0.816 -0.256,1.104c-0.128,0.3627 -0.293,0.6347 -0.496,0.816c-0.203,0.1707 -0.443,0.256 -0.72,0.256c-0.277,0 -0.491,-0.1013 -0.64,-0.304c-0.149,-0.2027 -0.224,-0.4747 -0.224,-0.816c0,-0.3627 0.027,-0.8 0.08,-1.312c0.053,-0.52267 0.101,-1.05067 0.144,-1.584c0.053,-0.544 0.08,-1.03467 0.08,-1.472c0,-1.49333 -0.491,-2.24 -1.472,-2.24c-0.523,0 -0.96,0.23467 -1.312,0.704c-0.352,0.45867 -0.587,1.11467 -0.704,1.968c-0.032,0.288 -0.048,0.64533 -0.048,1.072c0,0.42667 0,0.85333 0,1.28c0.011,0.416 0,0.768 -0.032,1.056c-0.043,0.64 -0.165,1.0987 -0.368,1.376c-0.192,0.2773 -0.459,0.416 -0.8,0.416c-0.395,0 -0.693,-0.1813 -0.896,-0.544c-0.203,-0.3733 -0.304,-0.9973 -0.304,-1.872c0,-0.448 0.011,-0.94933 0.032,-1.504c0.021,-0.55467 0.048,-1.10933 0.08,-1.664c0.043,-0.56533 0.091,-1.07733 0.144,-1.536c0.107,-0.864 0.261,-1.54667 0.464,-2.048c0.203,-0.512 0.507,-0.768 0.912,-0.768zM252.241,184.504c-1.003,0 -1.819,-0.384 -2.448,-1.152c-0.63,-0.7787 -0.944,-1.95733 -0.944,-3.536c0,-1.68533 0.304,-2.91733 0.912,-3.696c0.608,-0.77867 1.408,-1.168 2.4,-1.168c0.586,0 1.104,0.14933 1.552,0.448c0.448,0.29867 0.832,0.72 1.152,1.264l-0.128,0.224c-0.032,-0.14933 -0.059,-0.30933 -0.08,-0.48c-0.022,-0.17067 -0.032,-0.29867 -0.032,-0.384c0,-0.43733 0.069,-0.77333 0.208,-1.008c0.149,-0.24533 0.378,-0.368 0.688,-0.368c0.341,0 0.608,0.13867 0.8,0.416c0.202,0.27733 0.357,0.672 0.464,1.184c0.138,0.52267 0.256,1.18933 0.352,2c0.096,0.8 0.144,1.61067 0.144,2.432c0,1.024 -0.038,1.8827 -0.112,2.576c-0.075,0.6933 -0.198,1.2693 -0.368,1.728c-0.171,0.4587 -0.395,0.8587 -0.672,1.2c-0.459,0.5547 -1.051,0.976 -1.776,1.264c-0.715,0.2987 -1.542,0.448 -2.48,0.448c-0.672,0 -1.211,-0.064 -1.616,-0.192c-0.406,-0.1173 -0.699,-0.2827 -0.88,-0.496c-0.171,-0.2027 -0.256,-0.432 -0.256,-0.688c0,-0.2667 0.074,-0.4907 0.224,-0.672c0.149,-0.1707 0.373,-0.256 0.672,-0.256c0.266,0 0.576,0.0427 0.928,0.128c0.362,0.0853 0.789,0.128 1.28,0.128c1.034,0 1.765,-0.2453 2.192,-0.736c0.437,-0.48 0.656,-1.1733 0.656,-2.08c0,-0.2453 -0.016,-0.5333 -0.048,-0.864l0.224,0.08c-0.267,0.6827 -0.662,1.232 -1.184,1.648c-0.523,0.4053 -1.131,0.608 -1.824,0.608zM252.849,182.536c0.341,0 0.682,-0.0907 1.024,-0.272c0.341,-0.1813 0.624,-0.48 0.848,-0.896c0.224,-0.416 0.336,-0.976 0.336,-1.68c0,-0.84267 -0.198,-1.53067 -0.592,-2.064c-0.395,-0.53333 -0.95,-0.8 -1.664,-0.8c-0.619,0 -1.072,0.23467 -1.36,0.704c-0.288,0.46933 -0.432,1.17867 -0.432,2.128c0,0.90667 0.144,1.616 0.432,2.128c0.288,0.5013 0.757,0.752 1.408,0.752zM265.555,184.84c-0.662,0 -1.211,-0.1227 -1.648,-0.368c-0.427,-0.256 -0.747,-0.6453 -0.96,-1.168c-0.15,-0.3627 -0.262,-0.8 -0.336,-1.312c-0.064,-0.52267 -0.097,-1.12 -0.097,-1.792c0,-1.152 0.038,-2.10133 0.113,-2.848c0.074,-0.75733 0.181,-1.36533 0.32,-1.824c0.149,-0.46933 0.314,-0.848 0.496,-1.136c0.288,-0.43733 0.746,-0.78933 1.376,-1.056c0.629,-0.26667 1.52,-0.4 2.672,-0.4c0.768,0 1.381,0.11733 1.84,0.352c0.469,0.224 0.805,0.52267 1.008,0.896c0.213,0.37333 0.32,0.78933 0.32,1.248c0,0.72533 -0.214,1.32267 -0.64,1.792c-0.427,0.46933 -0.987,0.84267 -1.68,1.12v0.064c0.757,0.08533 1.344,0.33067 1.76,0.736c0.426,0.39467 0.64,0.96 0.64,1.696c0,0.58667 -0.15,1.1253 -0.448,1.616c-0.288,0.48 -0.683,0.9013 -1.184,1.264c-0.491,0.352 -1.046,0.6293 -1.664,0.832c-0.619,0.192 -1.248,0.288 -1.888,0.288zM266.051,182.92c0.512,0 0.965,-0.0853 1.36,-0.256c0.405,-0.1707 0.72,-0.4 0.944,-0.688c0.234,-0.29867 0.352,-0.63467 0.352,-1.008c0,-0.40533 -0.198,-0.74133 -0.592,-1.008c-0.384,-0.27733 -0.987,-0.416 -1.808,-0.416c-0.555,0 -0.998,0.13333 -1.328,0.4c-0.32,0.256 -0.48,0.69867 -0.48,1.328c0,0.5973 0.128,1.024 0.384,1.28c0.256,0.2453 0.645,0.368 1.168,0.368zM266.115,177.848c0.725,0 1.328,-0.16 1.808,-0.48c0.49,-0.33067 0.736,-0.75733 0.736,-1.28c0,-0.384 -0.155,-0.69333 -0.464,-0.928c-0.31,-0.23467 -0.763,-0.352 -1.36,-0.352c-0.651,0 -1.184,0.128 -1.6,0.384c-0.416,0.256 -0.624,0.69333 -0.624,1.312c0,0.50133 0.133,0.85333 0.4,1.056c0.277,0.192 0.645,0.288 1.104,0.288zM279.505,184.92c-0.363,0 -0.614,-0.1387 -0.752,-0.416c-0.128,-0.288 -0.203,-0.7413 -0.224,-1.36l0.16,0.08c-0.598,1.1627 -1.728,1.744 -3.392,1.744c-0.758,0 -1.387,-0.1333 -1.888,-0.4c-0.502,-0.2773 -0.875,-0.64 -1.12,-1.088c-0.235,-0.4587 -0.352,-0.9547 -0.352,-1.488c0,-0.91733 0.32,-1.64267 0.96,-2.176c0.64,-0.544 1.488,-0.816 2.544,-0.816c0.693,0 1.296,0.10133 1.808,0.304c0.512,0.20267 0.949,0.48533 1.312,0.848l-0.272,-0.032c-0.075,-1.07733 -0.31,-1.84533 -0.704,-2.304c-0.384,-0.46933 -0.934,-0.704 -1.648,-0.704c-0.416,0 -0.8,0.064 -1.152,0.192c-0.352,0.128 -0.678,0.26133 -0.976,0.4c-0.288,0.128 -0.56,0.192 -0.816,0.192c-0.256,0 -0.459,-0.08533 -0.608,-0.256c-0.139,-0.17067 -0.208,-0.38933 -0.208,-0.656c0,-0.384 0.181,-0.74667 0.544,-1.088c0.373,-0.34133 0.864,-0.61867 1.472,-0.832c0.608,-0.21333 1.269,-0.32 1.984,-0.32c0.864,0 1.605,0.208 2.224,0.624c0.618,0.416 1.088,1.024 1.408,1.824c0.277,0.68267 0.474,1.44533 0.592,2.288c0.117,0.84267 0.176,1.744 0.176,2.704c0,0.7253 -0.038,1.2853 -0.112,1.68c-0.075,0.3947 -0.192,0.672 -0.352,0.832c-0.15,0.1493 -0.352,0.224 -0.608,0.224zM275.969,183.128c0.352,0 0.709,-0.048 1.072,-0.144c0.362,-0.1067 0.666,-0.2613 0.912,-0.464c0.245,-0.2027 0.368,-0.4533 0.368,-0.752c0,-0.256 -0.107,-0.464 -0.32,-0.624c-0.203,-0.17067 -0.475,-0.29867 -0.816,-0.384c-0.331,-0.08533 -0.688,-0.128 -1.072,-0.128c-0.651,0 -1.147,0.112 -1.488,0.336c-0.331,0.224 -0.496,0.52267 -0.496,0.896c0,0.4053 0.154,0.72 0.464,0.944c0.32,0.2133 0.778,0.32 1.376,0.32zM284.16,174.808c0.342,0 0.571,0.13867 0.688,0.416c0.128,0.27733 0.192,0.688 0.192,1.232c0,0.128 -0.01,0.26667 -0.032,0.416c-0.01,0.13867 -0.032,0.26667 -0.064,0.384l-0.032,-0.32c0.256,-0.69333 0.651,-1.232 1.184,-1.616c0.534,-0.39467 1.099,-0.592 1.696,-0.592c0.662,0 1.211,0.18667 1.648,0.56c0.448,0.37333 0.779,0.896 0.992,1.568c0.224,0.672 0.336,1.46667 0.336,2.384c0,0.56533 -0.026,1.12533 -0.08,1.68c-0.042,0.544 -0.106,1.0453 -0.192,1.504c-0.074,0.448 -0.16,0.816 -0.256,1.104c-0.128,0.3627 -0.293,0.6347 -0.496,0.816c-0.202,0.1707 -0.442,0.256 -0.72,0.256c-0.277,0 -0.49,-0.1013 -0.64,-0.304c-0.149,-0.2027 -0.224,-0.4747 -0.224,-0.816c0,-0.3627 0.027,-0.8 0.08,-1.312c0.054,-0.52267 0.102,-1.05067 0.144,-1.584c0.054,-0.544 0.08,-1.03467 0.08,-1.472c0,-1.49333 -0.49,-2.24 -1.472,-2.24c-0.522,0 -0.96,0.23467 -1.312,0.704c-0.352,0.45867 -0.586,1.11467 -0.704,1.968c-0.032,0.288 -0.048,0.64533 -0.048,1.072c0,0.42667 0,0.85333 0,1.28c0.011,0.416 0,0.768 -0.032,1.056c-0.042,0.64 -0.165,1.0987 -0.368,1.376c-0.192,0.2773 -0.458,0.416 -0.8,0.416c-0.394,0 -0.693,-0.1813 -0.896,-0.544c-0.202,-0.3733 -0.304,-0.9973 -0.304,-1.872c0,-0.448 0.011,-0.94933 0.032,-1.504c0.022,-0.55467 0.048,-1.10933 0.08,-1.664c0.043,-0.56533 0.091,-1.07733 0.144,-1.536c0.107,-0.864 0.262,-1.54667 0.464,-2.048c0.203,-0.512 0.507,-0.768 0.912,-0.768zM295.772,184.504c-1.003,0 -1.819,-0.384 -2.448,-1.152c-0.63,-0.7787 -0.944,-1.95733 -0.944,-3.536c0,-1.68533 0.304,-2.91733 0.912,-3.696c0.608,-0.77867 1.408,-1.168 2.4,-1.168c0.586,0 1.104,0.14933 1.552,0.448c0.448,0.29867 0.832,0.72 1.152,1.264l-0.128,0.224c-0.032,-0.14933 -0.059,-0.30933 -0.08,-0.48c-0.022,-0.17067 -0.032,-0.29867 -0.032,-0.384c0,-0.43733 0.069,-0.77333 0.208,-1.008c0.149,-0.24533 0.378,-0.368 0.688,-0.368c0.341,0 0.608,0.13867 0.8,0.416c0.202,0.27733 0.357,0.672 0.464,1.184c0.138,0.52267 0.256,1.18933 0.352,2c0.096,0.8 0.144,1.61067 0.144,2.432c0,1.024 -0.038,1.8827 -0.112,2.576c-0.075,0.6933 -0.198,1.2693 -0.368,1.728c-0.171,0.4587 -0.395,0.8587 -0.672,1.2c-0.459,0.5547 -1.051,0.976 -1.776,1.264c-0.715,0.2987 -1.542,0.448 -2.48,0.448c-0.672,0 -1.211,-0.064 -1.616,-0.192c-0.406,-0.1173 -0.699,-0.2827 -0.88,-0.496c-0.171,-0.2027 -0.256,-0.432 -0.256,-0.688c0,-0.2667 0.074,-0.4907 0.224,-0.672c0.149,-0.1707 0.373,-0.256 0.672,-0.256c0.266,0 0.576,0.0427 0.928,0.128c0.362,0.0853 0.789,0.128 1.28,0.128c1.034,0 1.765,-0.2453 2.192,-0.736c0.437,-0.48 0.656,-1.1733 0.656,-2.08c0,-0.2453 -0.016,-0.5333 -0.048,-0.864l0.224,0.08c-0.267,0.6827 -0.662,1.232 -1.184,1.648c-0.523,0.4053 -1.131,0.608 -1.824,0.608zM296.38,182.536c0.341,0 0.682,-0.0907 1.024,-0.272c0.341,-0.1813 0.624,-0.48 0.848,-0.896c0.224,-0.416 0.336,-0.976 0.336,-1.68c0,-0.84267 -0.198,-1.53067 -0.592,-2.064c-0.395,-0.53333 -0.95,-0.8 -1.664,-0.8c-0.619,0 -1.072,0.23467 -1.36,0.704c-0.288,0.46933 -0.432,1.17867 -0.432,2.128c0,0.90667 0.144,1.616 0.432,2.128c0.288,0.5013 0.757,0.752 1.408,0.752zM309.963,184.664c-0.288,0 -0.512,-0.096 -0.672,-0.288c-0.15,-0.2027 -0.251,-0.4587 -0.304,-0.768c-0.054,-0.32 -0.08,-0.656 -0.08,-1.008l0.08,-0.064c-0.107,0.4587 -0.315,0.8533 -0.624,1.184c-0.31,0.3307 -0.667,0.5867 -1.072,0.768c-0.406,0.1707 -0.811,0.256 -1.216,0.256c-0.544,0 -1.04,-0.128 -1.488,-0.384c-0.448,-0.256 -0.795,-0.6507 -1.04,-1.184c-0.246,-0.5653 -0.438,-1.2747 -0.576,-2.128c-0.139,-0.864 -0.208,-1.74933 -0.208,-2.656c0,-0.49067 0.021,-0.944 0.064,-1.36c0.042,-0.416 0.112,-0.75733 0.208,-1.024c0.085,-0.27733 0.213,-0.48 0.384,-0.608c0.17,-0.13867 0.389,-0.208 0.656,-0.208c0.309,0 0.549,0.12267 0.72,0.368c0.181,0.23467 0.293,0.56533 0.336,0.992c0.042,0.352 0.069,0.78933 0.08,1.312c0.021,0.512 0.037,1.02933 0.048,1.552c0.021,0.512 0.048,0.944 0.08,1.296c0.064,0.64 0.229,1.1147 0.496,1.424c0.266,0.2987 0.592,0.448 0.976,0.448c0.565,0 0.997,-0.2133 1.296,-0.64c0.298,-0.42667 0.448,-1.024 0.448,-1.792c0,-0.384 -0.022,-0.816 -0.064,-1.296c-0.043,-0.49067 -0.091,-0.96533 -0.144,-1.424c-0.043,-0.45867 -0.064,-0.83733 -0.064,-1.136c0,-0.50133 0.085,-0.85867 0.256,-1.072c0.17,-0.224 0.405,-0.336 0.704,-0.336c0.256,0 0.469,0.06933 0.64,0.208c0.181,0.13867 0.325,0.33067 0.432,0.576c0.149,0.32 0.277,0.75733 0.384,1.312c0.106,0.55467 0.192,1.184 0.256,1.888c0.064,0.704 0.096,1.44533 0.096,2.224c0,1.1947 -0.08,2.0907 -0.24,2.688c-0.16,0.5867 -0.443,0.88 -0.848,0.88zM314.629,174.808c0.341,0 0.571,0.13867 0.688,0.416c0.128,0.27733 0.192,0.688 0.192,1.232c0,0.128 -0.011,0.26667 -0.032,0.416c-0.011,0.13867 -0.032,0.26667 -0.064,0.384l-0.032,-0.32c0.256,-0.69333 0.651,-1.232 1.184,-1.616c0.533,-0.39467 1.099,-0.592 1.696,-0.592c0.661,0 1.211,0.18667 1.648,0.56c0.448,0.37333 0.779,0.896 0.992,1.568c0.224,0.672 0.336,1.46667 0.336,2.384c0,0.56533 -0.027,1.12533 -0.08,1.68c-0.043,0.544 -0.107,1.0453 -0.192,1.504c-0.075,0.448 -0.16,0.816 -0.256,1.104c-0.128,0.3627 -0.293,0.6347 -0.496,0.816c-0.203,0.1707 -0.443,0.256 -0.72,0.256c-0.277,0 -0.491,-0.1013 -0.64,-0.304c-0.149,-0.2027 -0.224,-0.4747 -0.224,-0.816c0,-0.3627 0.027,-0.8 0.08,-1.312c0.053,-0.52267 0.101,-1.05067 0.144,-1.584c0.053,-0.544 0.08,-1.03467 0.08,-1.472c0,-1.49333 -0.491,-2.24 -1.472,-2.24c-0.523,0 -0.96,0.23467 -1.312,0.704c-0.352,0.45867 -0.587,1.11467 -0.704,1.968c-0.032,0.288 -0.048,0.64533 -0.048,1.072c0,0.42667 0,0.85333 0,1.28c0.011,0.416 0,0.768 -0.032,1.056c-0.043,0.64 -0.165,1.0987 -0.368,1.376c-0.192,0.2773 -0.459,0.416 -0.8,0.416c-0.395,0 -0.693,-0.1813 -0.896,-0.544c-0.203,-0.3733 -0.304,-0.9973 -0.304,-1.872c0,-0.448 0.011,-0.94933 0.032,-1.504c0.021,-0.55467 0.048,-1.10933 0.08,-1.664c0.043,-0.56533 0.091,-1.07733 0.144,-1.536c0.107,-0.864 0.261,-1.54667 0.464,-2.048c0.203,-0.512 0.507,-0.768 0.912,-0.768zM328.628,185.128c-0.672,0 -1.195,-0.0427 -1.568,-0.128c-0.363,-0.0853 -0.614,-0.2027 -0.752,-0.352c-0.139,-0.16 -0.214,-0.336 -0.224,-0.528c0,-0.2987 0.176,-0.5493 0.528,-0.752c0.362,-0.2027 1.024,-0.3307 1.984,-0.384l-0.256,0.304c-0.118,-0.544 -0.203,-1.1787 -0.256,-1.904c-0.054,-0.72533 -0.075,-1.47733 -0.064,-2.256c0.01,-0.77867 0.048,-1.52 0.112,-2.224c0.064,-0.71467 0.154,-1.32267 0.272,-1.824l1.392,-0.096c-0.235,0.096 -0.528,0.18133 -0.88,0.256c-0.352,0.064 -0.715,0.096 -1.088,0.096c-0.683,0 -1.19,-0.07467 -1.52,-0.224c-0.32,-0.14933 -0.48,-0.35733 -0.48,-0.624c0,-0.46933 0.282,-0.832 0.848,-1.088c0.576,-0.26667 1.456,-0.4 2.64,-0.4c1.408,0 2.592,0.23467 3.552,0.704c0.97,0.45867 1.706,1.104 2.208,1.936c0.501,0.82133 0.752,1.78133 0.752,2.88c0,0.96 -0.171,1.84533 -0.512,2.656c-0.342,0.8 -0.832,1.4987 -1.472,2.096c-0.63,0.5867 -1.387,1.0453 -2.272,1.376c-0.875,0.32 -1.856,0.48 -2.944,0.48zM330.9,182.664c0.362,0 0.746,-0.144 1.152,-0.432c0.416,-0.2987 0.768,-0.73067 1.056,-1.296c0.288,-0.576 0.432,-1.28533 0.432,-2.128c0,-0.61867 -0.091,-1.15733 -0.272,-1.616c-0.171,-0.46933 -0.395,-0.85867 -0.672,-1.168c-0.278,-0.30933 -0.571,-0.53867 -0.88,-0.688c-0.31,-0.16 -0.603,-0.24 -0.88,-0.24c-0.224,0 -0.4,0.13867 -0.528,0.416c-0.118,0.27733 -0.203,0.69333 -0.256,1.248c-0.054,0.544 -0.08,1.22133 -0.08,2.032c0,1.25867 0.064,2.21867 0.192,2.88c0.128,0.6613 0.373,0.992 0.736,0.992zM344.583,184.92c-0.363,0 -0.614,-0.1387 -0.752,-0.416c-0.128,-0.288 -0.203,-0.7413 -0.224,-1.36l0.16,0.08c-0.598,1.1627 -1.728,1.744 -3.392,1.744c-0.758,0 -1.387,-0.1333 -1.888,-0.4c-0.502,-0.2773 -0.875,-0.64 -1.12,-1.088c-0.235,-0.4587 -0.352,-0.9547 -0.352,-1.488c0,-0.91733 0.32,-1.64267 0.96,-2.176c0.64,-0.544 1.488,-0.816 2.544,-0.816c0.693,0 1.296,0.10133 1.808,0.304c0.512,0.20267 0.949,0.48533 1.312,0.848l-0.272,-0.032c-0.075,-1.07733 -0.31,-1.84533 -0.704,-2.304c-0.384,-0.46933 -0.934,-0.704 -1.648,-0.704c-0.416,0 -0.8,0.064 -1.152,0.192c-0.352,0.128 -0.678,0.26133 -0.976,0.4c-0.288,0.128 -0.56,0.192 -0.816,0.192c-0.256,0 -0.459,-0.08533 -0.608,-0.256c-0.139,-0.17067 -0.208,-0.38933 -0.208,-0.656c0,-0.384 0.181,-0.74667 0.544,-1.088c0.373,-0.34133 0.864,-0.61867 1.472,-0.832c0.608,-0.21333 1.269,-0.32 1.984,-0.32c0.864,0 1.605,0.208 2.224,0.624c0.618,0.416 1.088,1.024 1.408,1.824c0.277,0.68267 0.474,1.44533 0.592,2.288c0.117,0.84267 0.176,1.744 0.176,2.704c0,0.7253 -0.038,1.2853 -0.112,1.68c-0.075,0.3947 -0.192,0.672 -0.352,0.832c-0.15,0.1493 -0.352,0.224 -0.608,0.224zM341.047,183.128c0.352,0 0.709,-0.048 1.072,-0.144c0.362,-0.1067 0.666,-0.2613 0.912,-0.464c0.245,-0.2027 0.368,-0.4533 0.368,-0.752c0,-0.256 -0.107,-0.464 -0.32,-0.624c-0.203,-0.17067 -0.475,-0.29867 -0.816,-0.384c-0.331,-0.08533 -0.688,-0.128 -1.072,-0.128c-0.651,0 -1.147,0.112 -1.488,0.336c-0.331,0.224 -0.496,0.52267 -0.496,0.896c0,0.4053 0.154,0.72 0.464,0.944c0.32,0.2133 0.778,0.32 1.376,0.32zM349.826,175.128h-0.32c-0.032,-0.46933 -0.021,-0.912 0.032,-1.328c0.053,-0.42667 0.165,-0.768 0.336,-1.024c0.181,-0.26667 0.437,-0.4 0.768,-0.4c0.299,0 0.517,0.096 0.656,0.288c0.139,0.192 0.208,0.45867 0.208,0.8c0,0.672 -0.128,1.248 -0.384,1.728l-0.288,-0.032c0.576,-0.20267 1.227,-0.304 1.952,-0.304c0.459,0 0.821,0.09067 1.088,0.272c0.277,0.17067 0.416,0.464 0.416,0.88c0,0.39467 -0.16,0.69333 -0.48,0.896c-0.32,0.20267 -0.72,0.304 -1.2,0.304c-0.288,0 -0.597,-0.01067 -0.928,-0.032c-0.32,-0.032 -0.635,-0.08 -0.944,-0.144l0.272,-0.336c0.096,0.40533 0.187,0.86933 0.272,1.392c0.096,0.512 0.181,1.04533 0.256,1.6c0.075,0.55467 0.133,1.09333 0.176,1.616c0.043,0.5227 0.064,0.992 0.064,1.408c0,0.6827 -0.107,1.2213 -0.32,1.616c-0.213,0.3947 -0.528,0.592 -0.944,0.592c-0.331,0 -0.592,-0.1013 -0.784,-0.304c-0.181,-0.2027 -0.315,-0.4587 -0.4,-0.768c-0.075,-0.32 -0.123,-0.6507 -0.144,-0.992c-0.011,-0.3413 -0.016,-0.6507 -0.016,-0.928c0,-0.46933 0.021,-0.99733 0.064,-1.584c0.043,-0.59733 0.101,-1.21067 0.176,-1.84c0.085,-0.62933 0.181,-1.23733 0.288,-1.824l0.32,0.272c-0.544,0.27733 -1.216,0.416 -2.016,0.416c-0.491,0 -0.869,-0.09067 -1.136,-0.272c-0.267,-0.18133 -0.4,-0.464 -0.4,-0.848c0,-0.416 0.149,-0.736 0.448,-0.96c0.299,-0.23467 0.699,-0.352 1.2,-0.352c0.331,0 0.64,0.02133 0.928,0.064c0.299,0.032 0.56,0.07467 0.784,0.128zM362.583,184.92c-0.363,0 -0.614,-0.1387 -0.752,-0.416c-0.128,-0.288 -0.203,-0.7413 -0.224,-1.36l0.16,0.08c-0.598,1.1627 -1.728,1.744 -3.392,1.744c-0.758,0 -1.387,-0.1333 -1.888,-0.4c-0.502,-0.2773 -0.875,-0.64 -1.12,-1.088c-0.235,-0.4587 -0.352,-0.9547 -0.352,-1.488c0,-0.91733 0.32,-1.64267 0.96,-2.176c0.64,-0.544 1.488,-0.816 2.544,-0.816c0.693,0 1.296,0.10133 1.808,0.304c0.512,0.20267 0.949,0.48533 1.312,0.848l-0.272,-0.032c-0.075,-1.07733 -0.31,-1.84533 -0.704,-2.304c-0.384,-0.46933 -0.934,-0.704 -1.648,-0.704c-0.416,0 -0.8,0.064 -1.152,0.192c-0.352,0.128 -0.678,0.26133 -0.976,0.4c-0.288,0.128 -0.56,0.192 -0.816,0.192c-0.256,0 -0.459,-0.08533 -0.608,-0.256c-0.139,-0.17067 -0.208,-0.38933 -0.208,-0.656c0,-0.384 0.181,-0.74667 0.544,-1.088c0.373,-0.34133 0.864,-0.61867 1.472,-0.832c0.608,-0.21333 1.269,-0.32 1.984,-0.32c0.864,0 1.605,0.208 2.224,0.624c0.618,0.416 1.088,1.024 1.408,1.824c0.277,0.68267 0.474,1.44533 0.592,2.288c0.117,0.84267 0.176,1.744 0.176,2.704c0,0.7253 -0.038,1.2853 -0.112,1.68c-0.075,0.3947 -0.192,0.672 -0.352,0.832c-0.15,0.1493 -0.352,0.224 -0.608,0.224zM359.047,183.128c0.352,0 0.709,-0.048 1.072,-0.144c0.362,-0.1067 0.666,-0.2613 0.912,-0.464c0.245,-0.2027 0.368,-0.4533 0.368,-0.752c0,-0.256 -0.107,-0.464 -0.32,-0.624c-0.203,-0.17067 -0.475,-0.29867 -0.816,-0.384c-0.331,-0.08533 -0.688,-0.128 -1.072,-0.128c-0.651,0 -1.147,0.112 -1.488,0.336c-0.331,0.224 -0.496,0.52267 -0.496,0.896c0,0.4053 0.154,0.72 0.464,0.944c0.32,0.2133 0.778,0.32 1.376,0.32zM365.606,177.544c0,-1.024 0.096,-1.76 0.288,-2.208c0.192,-0.45867 0.464,-0.688 0.816,-0.688c0.278,0 0.496,0.11733 0.656,0.352c0.16,0.224 0.278,0.50667 0.352,0.848c0.075,0.33067 0.112,0.66667 0.112,1.008l-0.08,-0.032c0.182,-0.576 0.459,-1.072 0.832,-1.488c0.384,-0.416 0.843,-0.624 1.376,-0.624c0.63,0 1.094,0.26133 1.392,0.784c0.299,0.512 0.448,1.152 0.448,1.92c0,1.024 -0.117,1.73867 -0.352,2.144c-0.234,0.40533 -0.549,0.608 -0.944,0.608c-0.288,0 -0.501,-0.11733 -0.64,-0.352c-0.128,-0.23467 -0.17,-0.65067 -0.128,-1.248c0.043,-0.62933 0.006,-1.06667 -0.112,-1.312c-0.117,-0.24533 -0.304,-0.368 -0.56,-0.368c-0.309,0 -0.565,0.19733 -0.768,0.592c-0.192,0.384 -0.288,0.85867 -0.288,1.424c0,0.224 0.027,0.50667 0.08,0.848c0.054,0.34133 0.112,0.71467 0.176,1.12c0.064,0.39467 0.123,0.78933 0.176,1.184c0.054,0.3947 0.08,0.7573 0.08,1.088c0,0.5867 -0.09,1.008 -0.272,1.264c-0.181,0.256 -0.437,0.384 -0.768,0.384c-0.373,0 -0.661,-0.1173 -0.864,-0.352c-0.202,-0.2453 -0.357,-0.64 -0.464,-1.184c-0.085,-0.4907 -0.17,-1.072 -0.256,-1.744c-0.085,-0.672 -0.154,-1.36 -0.208,-2.064c-0.053,-0.704 -0.08,-1.33867 -0.08,-1.904z"/></g></g></svg>