<svg xmlns="http://www.w3.org/2000/svg" fill="none" viewBox="0 0 235 32" height="32" width="235">
<path fill="black" d="M4.76098 1.934C5.87165 1.934 6.68832 2.21867 7.21098 2.788C7.74298 3.35733 8.00899 4.104 8.00899 5.028C8.00899 5.66267 7.85965 6.21333 7.56098 6.68C7.27165 7.14667 6.87498 7.51067 6.37098 7.772C5.86698 8.024 5.29765 8.15 4.66298 8.15C4.36432 8.15 4.04698 8.11733 3.71098 8.052C3.38432 7.98667 3.04365 7.86067 2.68898 7.674L2.75898 7.492C2.83365 7.72533 2.89432 8.01467 2.94098 8.36C2.99698 8.696 3.03898 9.046 3.06698 9.41C3.10432 9.76467 3.12298 10.0913 3.12298 10.39C3.12298 10.9407 3.02965 11.3653 2.84298 11.664C2.66565 11.9533 2.39965 12.098 2.04498 12.098C1.74632 12.098 1.50832 12.0047 1.33098 11.818C1.16298 11.6313 1.04632 11.3233 0.980984 10.894C0.915651 10.4647 0.882984 9.89067 0.882984 9.172C0.882984 7.79067 0.943651 6.61467 1.06498 5.644C1.19565 4.664 1.41498 3.894 1.72298 3.334C1.96565 2.90467 2.33898 2.564 2.84298 2.312C3.35632 2.06 3.99565 1.934 4.76098 1.934ZM4.49498 6.498C5.05498 6.498 5.50765 6.34867 5.85298 6.05C6.20765 5.75133 6.38498 5.31733 6.38498 4.748C6.38498 4.37467 6.25898 4.06667 6.00698 3.824C5.76432 3.572 5.38165 3.446 4.85898 3.446C4.47632 3.446 4.14498 3.53467 3.86498 3.712C3.58498 3.88 3.37032 4.118 3.22098 4.426C3.08098 4.72467 3.01098 5.07 3.01098 5.462C3.01098 5.826 3.12765 6.092 3.36098 6.26C3.60365 6.41867 3.98165 6.498 4.49498 6.498ZM13.1275 12.112C12.0915 12.112 11.2655 11.958 10.6495 11.65C10.0335 11.342 9.59018 10.8987 9.31952 10.32C9.04885 9.74133 8.91352 9.05067 8.91352 8.248C8.91352 7.23067 9.10018 6.36733 9.47352 5.658C9.85618 4.93933 10.3788 4.38867 11.0415 4.006C11.7135 3.62333 12.4742 3.432 13.3235 3.432C14.3222 3.432 15.0548 3.66533 15.5215 4.132C15.9882 4.58933 16.2215 5.19133 16.2215 5.938C16.2215 6.53533 16.0628 7.05333 15.7455 7.492C15.4375 7.92133 15.0082 8.25267 14.4575 8.486C13.9068 8.71933 13.2722 8.836 12.5535 8.836C12.1522 8.836 11.7648 8.78467 11.3915 8.682C11.0182 8.57933 10.6822 8.43933 10.3835 8.262L10.7195 7.646C10.6915 7.87 10.6775 8.094 10.6775 8.318C10.6775 8.97133 10.8828 9.44267 11.2935 9.732C11.7042 10.012 12.2875 10.152 13.0435 10.152C13.6315 10.152 14.1028 10.1007 14.4575 9.998C14.8122 9.89533 15.1108 9.79733 15.3535 9.704C15.5962 9.60133 15.8342 9.55 16.0675 9.55C16.1982 9.55 16.3148 9.58733 16.4175 9.662C16.5295 9.72733 16.6182 9.82533 16.6835 9.956C16.7582 10.0867 16.7955 10.2453 16.7955 10.432C16.7955 10.712 16.6555 10.9827 16.3755 11.244C16.0955 11.496 15.6802 11.706 15.1295 11.874C14.5882 12.0327 13.9208 12.112 13.1275 12.112ZM12.3155 7.534C12.9782 7.534 13.5102 7.394 13.9115 7.114C14.3128 6.834 14.5135 6.48867 14.5135 6.078C14.5135 5.75133 14.4015 5.48533 14.1775 5.28C13.9628 5.06533 13.6222 4.958 13.1555 4.958C12.7168 4.958 12.3202 5.042 11.9655 5.21C11.6202 5.36867 11.3495 5.57867 11.1535 5.84C10.9575 6.10133 10.8595 6.386 10.8595 6.694C10.8595 6.96467 10.9855 7.17467 11.2375 7.324C11.4988 7.464 11.8582 7.534 12.3155 7.534ZM18.0259 5.686C18.0259 4.79 18.1099 4.146 18.2779 3.754C18.4459 3.35267 18.6839 3.152 18.9919 3.152C19.2345 3.152 19.4259 3.25467 19.5659 3.46C19.7059 3.656 19.8085 3.90333 19.8739 4.202C19.9392 4.49133 19.9719 4.78533 19.9719 5.084L19.9019 5.056C20.0605 4.552 20.3032 4.118 20.6299 3.754C20.9659 3.39 21.3672 3.208 21.8339 3.208C22.3845 3.208 22.7905 3.43667 23.0519 3.894C23.3132 4.342 23.4439 4.902 23.4439 5.574C23.4439 6.47 23.3412 7.09533 23.1359 7.45C22.9305 7.80467 22.6552 7.982 22.3099 7.982C22.0579 7.982 21.8712 7.87933 21.7499 7.674C21.6379 7.46867 21.6005 7.10467 21.6379 6.582C21.6752 6.03133 21.6425 5.64867 21.5399 5.434C21.4372 5.21933 21.2739 5.112 21.0499 5.112C20.7792 5.112 20.5552 5.28467 20.3779 5.63C20.2099 5.966 20.1259 6.38133 20.1259 6.876C20.1259 7.072 20.1492 7.31933 20.1959 7.618C20.2425 7.91667 20.2939 8.24333 20.3499 8.598C20.4059 8.94333 20.4572 9.28867 20.5039 9.634C20.5505 9.97933 20.5739 10.2967 20.5739 10.586C20.5739 11.0993 20.4945 11.468 20.3359 11.692C20.1772 11.916 19.9532 12.028 19.6639 12.028C19.3372 12.028 19.0852 11.9253 18.9079 11.72C18.7305 11.5053 18.5952 11.16 18.5019 10.684C18.4272 10.2547 18.3525 9.746 18.2779 9.158C18.2032 8.57 18.1425 7.968 18.0959 7.352C18.0492 6.736 18.0259 6.18067 18.0259 5.686ZM26.1121 3.292C26.4107 3.292 26.6114 3.41333 26.7141 3.656C26.8261 3.89867 26.8821 4.258 26.8821 4.734C26.8821 4.846 26.8727 4.96733 26.8541 5.098C26.8447 5.21933 26.8261 5.33133 26.7981 5.434L26.7701 5.154C26.9941 4.54733 27.3394 4.076 27.8061 3.74C28.2727 3.39467 28.7674 3.222 29.2901 3.222C29.8687 3.222 30.3494 3.38533 30.7321 3.712C31.1241 4.03867 31.4134 4.496 31.6001 5.084C31.7961 5.672 31.8941 6.36733 31.8941 7.17C31.8941 7.66467 31.8707 8.15467 31.8241 8.64C31.7867 9.116 31.7307 9.55467 31.6561 9.956C31.5907 10.348 31.5161 10.67 31.4321 10.922C31.3201 11.2393 31.1754 11.4773 30.9981 11.636C30.8207 11.7853 30.6107 11.86 30.3681 11.86C30.1254 11.86 29.9387 11.7713 29.8081 11.594C29.6774 11.4167 29.6121 11.1787 29.6121 10.88C29.6121 10.5627 29.6354 10.18 29.6821 9.732C29.7287 9.27467 29.7707 8.81267 29.8081 8.346C29.8547 7.87 29.8781 7.44067 29.8781 7.058C29.8781 5.75133 29.4487 5.098 28.5901 5.098C28.1327 5.098 27.7501 5.30333 27.4421 5.714C27.1341 6.11533 26.9287 6.68933 26.8261 7.436C26.7981 7.688 26.7841 8.00067 26.7841 8.374C26.7841 8.74733 26.7841 9.12067 26.7841 9.494C26.7934 9.858 26.7841 10.166 26.7561 10.418C26.7187 10.978 26.6114 11.3793 26.4341 11.622C26.2661 11.8647 26.0327 11.986 25.7341 11.986C25.3887 11.986 25.1274 11.8273 24.9501 11.51C24.7727 11.1833 24.6841 10.6373 24.6841 9.872C24.6841 9.48 24.6934 9.04133 24.7121 8.556C24.7307 8.07067 24.7541 7.58533 24.7821 7.1C24.8194 6.60533 24.8614 6.15733 24.9081 5.756C25.0014 5 25.1367 4.40267 25.3141 3.964C25.4914 3.516 25.7574 3.292 26.1121 3.292ZM39.7161 12.14C39.3988 12.14 39.1795 12.0187 39.0581 11.776C38.9461 11.524 38.8808 11.1273 38.8621 10.586L39.0021 10.656C38.4795 11.6733 37.4901 12.182 36.0341 12.182C35.3715 12.182 34.8208 12.0653 34.3821 11.832C33.9435 11.5893 33.6168 11.272 33.4021 10.88C33.1968 10.4787 33.0941 10.0447 33.0941 9.578C33.0941 8.77533 33.3741 8.14067 33.9341 7.674C34.4941 7.198 35.2361 6.96 36.1601 6.96C36.7668 6.96 37.2941 7.04867 37.7421 7.226C38.1901 7.40333 38.5728 7.65067 38.8901 7.968L38.6521 7.94C38.5868 6.99733 38.3815 6.32533 38.0361 5.924C37.7001 5.51333 37.2195 5.308 36.5941 5.308C36.2301 5.308 35.8941 5.364 35.5861 5.476C35.2781 5.588 34.9935 5.70467 34.7321 5.826C34.4801 5.938 34.2421 5.994 34.0181 5.994C33.7941 5.994 33.6168 5.91933 33.4861 5.77C33.3648 5.62067 33.3041 5.42933 33.3041 5.196C33.3041 4.86 33.4628 4.54267 33.7801 4.244C34.1068 3.94533 34.5361 3.70267 35.0681 3.516C35.6001 3.32933 36.1788 3.236 36.8041 3.236C37.5601 3.236 38.2088 3.418 38.7501 3.782C39.2915 4.146 39.7021 4.678 39.9821 5.378C40.2248 5.97533 40.3975 6.64267 40.5001 7.38C40.6028 8.11733 40.6541 8.906 40.6541 9.746C40.6541 10.3807 40.6215 10.8707 40.5561 11.216C40.4908 11.5613 40.3881 11.804 40.2481 11.944C40.1175 12.0747 39.9401 12.14 39.7161 12.14ZM36.6221 10.572C36.9301 10.572 37.2428 10.53 37.5601 10.446C37.8775 10.3527 38.1435 10.2173 38.3581 10.04C38.5728 9.86267 38.6801 9.64333 38.6801 9.382C38.6801 9.158 38.5868 8.976 38.4001 8.836C38.2228 8.68667 37.9848 8.57467 37.6861 8.5C37.3968 8.42533 37.0841 8.388 36.7481 8.388C36.1788 8.388 35.7448 8.486 35.4461 8.682C35.1568 8.878 35.0121 9.13933 35.0121 9.466C35.0121 9.82067 35.1475 10.096 35.4181 10.292C35.6981 10.4787 36.0995 10.572 36.6221 10.572ZM43.8038 0.911999C44.1025 0.911999 44.3078 1.02867 44.4198 1.262C44.5411 1.49533 44.6018 1.84533 44.6018 2.312C44.6018 2.71333 44.5785 3.21733 44.5318 3.824C44.4851 4.43067 44.4245 5.014 44.3498 5.574H44.2658C44.5738 4.99533 44.9705 4.52867 45.4558 4.174C45.9411 3.81933 46.4545 3.642 46.9958 3.642C47.4718 3.642 47.8965 3.75867 48.2698 3.992C48.6431 4.216 48.9465 4.57067 49.1798 5.056C49.3945 5.49467 49.5531 6.01733 49.6558 6.624C49.7585 7.22133 49.8098 7.79067 49.8098 8.332C49.8098 9.2 49.7491 9.89067 49.6278 10.404C49.5158 10.9173 49.3571 11.2907 49.1518 11.524C48.9465 11.748 48.7038 11.86 48.4238 11.86C47.8358 11.86 47.5418 11.3793 47.5418 10.418C47.5418 9.95133 47.5651 9.47067 47.6118 8.976C47.6678 8.48133 47.6958 8.02867 47.6958 7.618C47.6958 6.918 47.5838 6.39533 47.3598 6.05C47.1451 5.69533 46.8325 5.518 46.4218 5.518C45.9085 5.518 45.4931 5.74667 45.1758 6.204C44.8585 6.66133 44.6998 7.29133 44.6998 8.094C44.6998 8.514 44.7371 8.976 44.8118 9.48C44.8865 9.97467 44.9238 10.4273 44.9238 10.838C44.9238 11.2953 44.8351 11.6267 44.6578 11.832C44.4898 12.028 44.2705 12.126 43.9998 12.126C43.7945 12.126 43.6125 12.084 43.4538 12C43.3045 11.9253 43.1738 11.7713 43.0618 11.538C42.9591 11.2953 42.8705 10.936 42.7958 10.46C42.7398 10.096 42.6838 9.67133 42.6278 9.186C42.5718 8.70067 42.5251 8.192 42.4878 7.66C42.4505 7.128 42.4178 6.61 42.3898 6.106C42.3711 5.59267 42.3618 5.126 42.3618 4.706C42.3618 3.38067 42.4878 2.41933 42.7398 1.822C42.9918 1.21533 43.3465 0.911999 43.8038 0.911999ZM52.474 12.14C52.2966 12.14 52.152 12.0887 52.04 11.986C51.928 11.874 51.8486 11.7153 51.802 11.51C51.7273 11.1647 51.662 10.6653 51.606 10.012C51.55 9.35867 51.522 8.63533 51.522 7.842C51.522 6.862 51.5546 5.91933 51.62 5.014C51.6946 4.10867 51.788 3.36667 51.9 2.788C52.0213 2.16267 52.1706 1.70533 52.348 1.416C52.5253 1.11733 52.7586 0.967999 53.048 0.967999C53.3093 0.967999 53.51 1.08933 53.65 1.332C53.79 1.56533 53.86 1.97133 53.86 2.55C53.86 3.12867 53.8366 3.74933 53.79 4.412C53.7526 5.07467 53.6873 5.784 53.594 6.54H53.65C54.2566 5.71867 54.8213 5.06067 55.344 4.566C55.876 4.07133 56.3613 3.712 56.8 3.488C57.248 3.264 57.6446 3.152 57.99 3.152C58.2606 3.152 58.4613 3.236 58.592 3.404C58.7226 3.572 58.788 3.77733 58.788 4.02C58.788 4.496 58.4053 5.028 57.64 5.616C56.884 6.204 55.792 6.806 54.364 7.422L54.378 7.198C55.2646 7.65533 56.0253 8.136 56.66 8.64C57.304 9.13467 57.794 9.606 58.13 10.054C58.4753 10.4927 58.648 10.8613 58.648 11.16C58.648 11.4027 58.5686 11.6033 58.41 11.762C58.2606 11.9113 58.0413 11.986 57.752 11.986C57.388 11.986 56.982 11.8507 56.534 11.58C56.0953 11.3 55.638 10.8847 55.162 10.334C54.686 9.78333 54.21 9.09267 53.734 8.262H53.678C53.6686 8.85 53.6313 9.424 53.566 9.984C53.51 10.5347 53.4353 10.9873 53.342 11.342C53.2766 11.5847 53.174 11.7807 53.034 11.93C52.9033 12.07 52.7166 12.14 52.474 12.14ZM66.0345 12.14C65.7172 12.14 65.4978 12.0187 65.3765 11.776C65.2645 11.524 65.1992 11.1273 65.1805 10.586L65.3205 10.656C64.7978 11.6733 63.8085 12.182 62.3525 12.182C61.6898 12.182 61.1392 12.0653 60.7005 11.832C60.2618 11.5893 59.9352 11.272 59.7205 10.88C59.5152 10.4787 59.4125 10.0447 59.4125 9.578C59.4125 8.77533 59.6925 8.14067 60.2525 7.674C60.8125 7.198 61.5545 6.96 62.4785 6.96C63.0852 6.96 63.6125 7.04867 64.0605 7.226C64.5085 7.40333 64.8912 7.65067 65.2085 7.968L64.9705 7.94C64.9052 6.99733 64.6998 6.32533 64.3545 5.924C64.0185 5.51333 63.5378 5.308 62.9125 5.308C62.5485 5.308 62.2125 5.364 61.9045 5.476C61.5965 5.588 61.3118 5.70467 61.0505 5.826C60.7985 5.938 60.5605 5.994 60.3365 5.994C60.1125 5.994 59.9352 5.91933 59.8045 5.77C59.6832 5.62067 59.6225 5.42933 59.6225 5.196C59.6225 4.86 59.7812 4.54267 60.0985 4.244C60.4252 3.94533 60.8545 3.70267 61.3865 3.516C61.9185 3.32933 62.4972 3.236 63.1225 3.236C63.8785 3.236 64.5272 3.418 65.0685 3.782C65.6098 4.146 66.0205 4.678 66.3005 5.378C66.5432 5.97533 66.7158 6.64267 66.8185 7.38C66.9212 8.11733 66.9725 8.906 66.9725 9.746C66.9725 10.3807 66.9398 10.8707 66.8745 11.216C66.8092 11.5613 66.7065 11.804 66.5665 11.944C66.4358 12.0747 66.2585 12.14 66.0345 12.14ZM62.9405 10.572C63.2485 10.572 63.5612 10.53 63.8785 10.446C64.1958 10.3527 64.4618 10.2173 64.6765 10.04C64.8912 9.86267 64.9985 9.64333 64.9985 9.382C64.9985 9.158 64.9052 8.976 64.7185 8.836C64.5412 8.68667 64.3032 8.57467 64.0045 8.5C63.7152 8.42533 63.4025 8.388 63.0665 8.388C62.4972 8.388 62.0632 8.486 61.7645 8.682C61.4752 8.878 61.3305 9.13933 61.3305 9.466C61.3305 9.82067 61.4658 10.096 61.7365 10.292C62.0165 10.4787 62.4178 10.572 62.9405 10.572ZM70.1082 3.292C70.4068 3.292 70.6075 3.41333 70.7102 3.656C70.8222 3.89867 70.8782 4.258 70.8782 4.734C70.8782 4.846 70.8688 4.96733 70.8502 5.098C70.8408 5.21933 70.8222 5.33133 70.7942 5.434L70.7662 5.154C70.9902 4.54733 71.3355 4.076 71.8022 3.74C72.2688 3.39467 72.7635 3.222 73.2862 3.222C73.8648 3.222 74.3455 3.38533 74.7282 3.712C75.1202 4.03867 75.4095 4.496 75.5962 5.084C75.7922 5.672 75.8902 6.36733 75.8902 7.17C75.8902 7.66467 75.8668 8.15467 75.8202 8.64C75.7828 9.116 75.7268 9.55467 75.6522 9.956C75.5868 10.348 75.5122 10.67 75.4282 10.922C75.3162 11.2393 75.1715 11.4773 74.9942 11.636C74.8168 11.7853 74.6068 11.86 74.3642 11.86C74.1215 11.86 73.9348 11.7713 73.8042 11.594C73.6735 11.4167 73.6082 11.1787 73.6082 10.88C73.6082 10.5627 73.6315 10.18 73.6782 9.732C73.7248 9.27467 73.7668 8.81267 73.8042 8.346C73.8508 7.87 73.8742 7.44067 73.8742 7.058C73.8742 5.75133 73.4448 5.098 72.5862 5.098C72.1288 5.098 71.7462 5.30333 71.4382 5.714C71.1302 6.11533 70.9248 6.68933 70.8222 7.436C70.7942 7.688 70.7802 8.00067 70.7802 8.374C70.7802 8.74733 70.7802 9.12067 70.7802 9.494C70.7895 9.858 70.7802 10.166 70.7522 10.418C70.7148 10.978 70.6075 11.3793 70.4302 11.622C70.2622 11.8647 70.0288 11.986 69.7302 11.986C69.3848 11.986 69.1235 11.8273 68.9462 11.51C68.7688 11.1833 68.6802 10.6373 68.6802 9.872C68.6802 9.48 68.6895 9.04133 68.7082 8.556C68.7268 8.07067 68.7502 7.58533 68.7782 7.1C68.8155 6.60533 68.8575 6.15733 68.9042 5.756C68.9975 5 69.1328 4.40267 69.3102 3.964C69.4875 3.516 69.7535 3.292 70.1082 3.292ZM81.349 12.14C81.1716 12.14 81.027 12.0887 80.915 11.986C80.803 11.874 80.7236 11.7153 80.677 11.51C80.6023 11.1647 80.537 10.6653 80.481 10.012C80.425 9.35867 80.397 8.63533 80.397 7.842C80.397 6.862 80.4296 5.91933 80.495 5.014C80.5696 4.10867 80.663 3.36667 80.775 2.788C80.8963 2.16267 81.0456 1.70533 81.223 1.416C81.4003 1.11733 81.6336 0.967999 81.923 0.967999C82.1843 0.967999 82.385 1.08933 82.525 1.332C82.665 1.56533 82.735 1.97133 82.735 2.55C82.735 3.12867 82.7116 3.74933 82.665 4.412C82.6276 5.07467 82.5623 5.784 82.469 6.54H82.525C83.1316 5.71867 83.6963 5.06067 84.219 4.566C84.751 4.07133 85.2363 3.712 85.675 3.488C86.123 3.264 86.5196 3.152 86.865 3.152C87.1356 3.152 87.3363 3.236 87.467 3.404C87.5976 3.572 87.663 3.77733 87.663 4.02C87.663 4.496 87.2803 5.028 86.515 5.616C85.759 6.204 84.667 6.806 83.239 7.422L83.253 7.198C84.1396 7.65533 84.9003 8.136 85.535 8.64C86.179 9.13467 86.669 9.606 87.005 10.054C87.3503 10.4927 87.523 10.8613 87.523 11.16C87.523 11.4027 87.4436 11.6033 87.285 11.762C87.1356 11.9113 86.9163 11.986 86.627 11.986C86.263 11.986 85.857 11.8507 85.409 11.58C84.9703 11.3 84.513 10.8847 84.037 10.334C83.561 9.78333 83.085 9.09267 82.609 8.262H82.553C82.5436 8.85 82.5063 9.424 82.441 9.984C82.385 10.5347 82.3103 10.9873 82.217 11.342C82.1516 11.5847 82.049 11.7807 81.909 11.93C81.7783 12.07 81.5916 12.14 81.349 12.14ZM94.9095 12.14C94.5922 12.14 94.3728 12.0187 94.2515 11.776C94.1395 11.524 94.0742 11.1273 94.0555 10.586L94.1955 10.656C93.6728 11.6733 92.6835 12.182 91.2275 12.182C90.5648 12.182 90.0142 12.0653 89.5755 11.832C89.1368 11.5893 88.8102 11.272 88.5955 10.88C88.3902 10.4787 88.2875 10.0447 88.2875 9.578C88.2875 8.77533 88.5675 8.14067 89.1275 7.674C89.6875 7.198 90.4295 6.96 91.3535 6.96C91.9602 6.96 92.4875 7.04867 92.9355 7.226C93.3835 7.40333 93.7662 7.65067 94.0835 7.968L93.8455 7.94C93.7802 6.99733 93.5748 6.32533 93.2295 5.924C92.8935 5.51333 92.4128 5.308 91.7875 5.308C91.4235 5.308 91.0875 5.364 90.7795 5.476C90.4715 5.588 90.1868 5.70467 89.9255 5.826C89.6735 5.938 89.4355 5.994 89.2115 5.994C88.9875 5.994 88.8102 5.91933 88.6795 5.77C88.5582 5.62067 88.4975 5.42933 88.4975 5.196C88.4975 4.86 88.6562 4.54267 88.9735 4.244C89.3002 3.94533 89.7295 3.70267 90.2615 3.516C90.7935 3.32933 91.3722 3.236 91.9975 3.236C92.7535 3.236 93.4022 3.418 93.9435 3.782C94.4848 4.146 94.8955 4.678 95.1755 5.378C95.4182 5.97533 95.5908 6.64267 95.6935 7.38C95.7962 8.11733 95.8475 8.906 95.8475 9.746C95.8475 10.3807 95.8148 10.8707 95.7495 11.216C95.6842 11.5613 95.5815 11.804 95.4415 11.944C95.3108 12.0747 95.1335 12.14 94.9095 12.14ZM91.8155 10.572C92.1235 10.572 92.4362 10.53 92.7535 10.446C93.0708 10.3527 93.3368 10.2173 93.5515 10.04C93.7662 9.86267 93.8735 9.64333 93.8735 9.382C93.8735 9.158 93.7802 8.976 93.5935 8.836C93.4162 8.68667 93.1782 8.57467 92.8795 8.5C92.5902 8.42533 92.2775 8.388 91.9415 8.388C91.3722 8.388 90.9382 8.486 90.6395 8.682C90.3502 8.878 90.2055 9.13933 90.2055 9.466C90.2055 9.82067 90.3408 10.096 90.6115 10.292C90.8915 10.4787 91.2928 10.572 91.8155 10.572ZM99.0672 12.028C98.7778 12.028 98.5492 11.9627 98.3812 11.832C98.2132 11.692 98.0778 11.4633 97.9752 11.146C97.8352 10.6793 97.7278 10.0913 97.6532 9.382C97.5878 8.66333 97.5552 7.78133 97.5552 6.736C97.5552 6.092 97.5785 5.448 97.6252 4.804C97.6812 4.15067 97.7512 3.558 97.8352 3.026C97.9192 2.48467 98.0078 2.06467 98.1012 1.766C98.2038 1.44867 98.3252 1.22933 98.4652 1.108C98.6052 0.986666 98.7638 0.926 98.9412 0.926C99.1278 0.926 99.2772 0.991333 99.3892 1.122C99.5012 1.24333 99.5898 1.46267 99.6552 1.78C99.7112 2.088 99.7532 2.466 99.7812 2.914C99.8185 3.362 99.8372 3.84267 99.8372 4.356C99.8372 5.056 99.8045 5.79333 99.7392 6.568C99.6738 7.34267 99.5852 8.10333 99.4732 8.85C99.3705 9.59667 99.2445 10.2827 99.0952 10.908L98.7032 10.712C98.9458 10.4133 99.2212 10.18 99.5292 10.012C99.8465 9.844 100.136 9.76 100.397 9.76C100.612 9.76 100.775 9.82067 100.887 9.942C101.009 10.054 101.069 10.2313 101.069 10.474C101.069 10.7167 100.962 10.9593 100.747 11.202C100.542 11.4447 100.285 11.6453 99.9772 11.804C99.6692 11.9533 99.3658 12.028 99.0672 12.028ZM103.572 1.262C103.946 1.262 104.212 1.36467 104.37 1.57C104.538 1.77533 104.622 2.01333 104.622 2.284C104.622 2.62 104.52 2.88133 104.314 3.068C104.118 3.24533 103.838 3.334 103.474 3.334C103.12 3.334 102.854 3.236 102.676 3.04C102.499 2.83467 102.41 2.59667 102.41 2.326C102.41 1.97133 102.518 1.70533 102.732 1.528C102.947 1.35067 103.227 1.262 103.572 1.262ZM103.656 4.384C103.955 4.384 104.188 4.664 104.356 5.224C104.534 5.784 104.622 6.67533 104.622 7.898C104.622 9.40067 104.515 10.4833 104.3 11.146C104.086 11.8087 103.759 12.14 103.32 12.14C102.984 12.14 102.737 11.8973 102.578 11.412C102.42 10.9173 102.34 10.0587 102.34 8.836C102.34 7.33333 102.462 6.218 102.704 5.49C102.956 4.75267 103.274 4.384 103.656 4.384ZM112.451 12.14C112.133 12.14 111.914 12.0187 111.793 11.776C111.681 11.524 111.615 11.1273 111.597 10.586L111.737 10.656C111.214 11.6733 110.225 12.182 108.769 12.182C108.106 12.182 107.555 12.0653 107.117 11.832C106.678 11.5893 106.351 11.272 106.137 10.88C105.931 10.4787 105.829 10.0447 105.829 9.578C105.829 8.77533 106.109 8.14067 106.669 7.674C107.229 7.198 107.971 6.96 108.895 6.96C109.501 6.96 110.029 7.04867 110.477 7.226C110.925 7.40333 111.307 7.65067 111.625 7.968L111.387 7.94C111.321 6.99733 111.116 6.32533 110.771 5.924C110.435 5.51333 109.954 5.308 109.329 5.308C108.965 5.308 108.629 5.364 108.321 5.476C108.013 5.588 107.728 5.70467 107.467 5.826C107.215 5.938 106.977 5.994 106.753 5.994C106.529 5.994 106.351 5.91933 106.221 5.77C106.099 5.62067 106.039 5.42933 106.039 5.196C106.039 4.86 106.197 4.54267 106.515 4.244C106.841 3.94533 107.271 3.70267 107.803 3.516C108.335 3.32933 108.913 3.236 109.539 3.236C110.295 3.236 110.943 3.418 111.485 3.782C112.026 4.146 112.437 4.678 112.717 5.378C112.959 5.97533 113.132 6.64267 113.235 7.38C113.337 8.11733 113.389 8.906 113.389 9.746C113.389 10.3807 113.356 10.8707 113.291 11.216C113.225 11.5613 113.123 11.804 112.983 11.944C112.852 12.0747 112.675 12.14 112.451 12.14ZM109.357 10.572C109.665 10.572 109.977 10.53 110.295 10.446C110.612 10.3527 110.878 10.2173 111.093 10.04C111.307 9.86267 111.415 9.64333 111.415 9.382C111.415 9.158 111.321 8.976 111.135 8.836C110.957 8.68667 110.719 8.57467 110.421 8.5C110.131 8.42533 109.819 8.388 109.483 8.388C108.913 8.388 108.479 8.486 108.181 8.682C107.891 8.878 107.747 9.13933 107.747 9.466C107.747 9.82067 107.882 10.096 108.153 10.292C108.433 10.4787 108.834 10.572 109.357 10.572ZM116.524 3.292C116.823 3.292 117.024 3.41333 117.126 3.656C117.238 3.89867 117.294 4.258 117.294 4.734C117.294 4.846 117.285 4.96733 117.266 5.098C117.257 5.21933 117.238 5.33133 117.21 5.434L117.182 5.154C117.406 4.54733 117.752 4.076 118.218 3.74C118.685 3.39467 119.18 3.222 119.702 3.222C120.281 3.222 120.762 3.38533 121.144 3.712C121.536 4.03867 121.826 4.496 122.012 5.084C122.208 5.672 122.306 6.36733 122.306 7.17C122.306 7.66467 122.283 8.15467 122.236 8.64C122.199 9.116 122.143 9.55467 122.068 9.956C122.003 10.348 121.928 10.67 121.844 10.922C121.732 11.2393 121.588 11.4773 121.41 11.636C121.233 11.7853 121.023 11.86 120.78 11.86C120.538 11.86 120.351 11.7713 120.22 11.594C120.09 11.4167 120.024 11.1787 120.024 10.88C120.024 10.5627 120.048 10.18 120.094 9.732C120.141 9.27467 120.183 8.81267 120.22 8.346C120.267 7.87 120.29 7.44067 120.29 7.058C120.29 5.75133 119.861 5.098 119.002 5.098C118.545 5.098 118.162 5.30333 117.854 5.714C117.546 6.11533 117.341 6.68933 117.238 7.436C117.21 7.688 117.196 8.00067 117.196 8.374C117.196 8.74733 117.196 9.12067 117.196 9.494C117.206 9.858 117.196 10.166 117.168 10.418C117.131 10.978 117.024 11.3793 116.846 11.622C116.678 11.8647 116.445 11.986 116.146 11.986C115.801 11.986 115.54 11.8273 115.362 11.51C115.185 11.1833 115.096 10.6373 115.096 9.872C115.096 9.48 115.106 9.04133 115.124 8.556C115.143 8.07067 115.166 7.58533 115.194 7.1C115.232 6.60533 115.274 6.15733 115.32 5.756C115.414 5 115.549 4.40267 115.726 3.964C115.904 3.516 116.17 3.292 116.524 3.292ZM132.847 5.588C132.94 5.20533 133.104 4.86 133.337 4.552C133.58 4.244 133.869 4.00133 134.205 3.824C134.55 3.63733 134.928 3.544 135.339 3.544C135.824 3.544 136.254 3.66067 136.627 3.894C137 4.12733 137.294 4.51 137.509 5.042C137.733 5.574 137.845 6.28333 137.845 7.17C137.845 7.62733 137.826 8.08933 137.789 8.556C137.752 9.02267 137.705 9.45667 137.649 9.858C137.593 10.2593 137.532 10.5953 137.467 10.866C137.374 11.2393 137.229 11.524 137.033 11.72C136.846 11.916 136.608 12.014 136.319 12.014C136.076 12.014 135.885 11.9067 135.745 11.692C135.605 11.4773 135.535 11.1693 135.535 10.768C135.535 10.5813 135.558 10.3433 135.605 10.054C135.652 9.75533 135.703 9.43333 135.759 9.088C135.815 8.73333 135.866 8.374 135.913 8.01C135.96 7.646 135.983 7.30067 135.983 6.974C135.983 6.48867 135.885 6.11533 135.689 5.854C135.493 5.58333 135.218 5.448 134.863 5.448C134.471 5.448 134.144 5.65333 133.883 6.064C133.631 6.46533 133.482 7.05333 133.435 7.828C133.398 8.51867 133.365 9.13467 133.337 9.676C133.309 10.208 133.239 10.6467 133.127 10.992C133.052 11.2347 132.945 11.4167 132.805 11.538C132.674 11.6593 132.497 11.72 132.273 11.72C132.021 11.72 131.82 11.6267 131.671 11.44C131.531 11.2533 131.452 10.9593 131.433 10.558C131.414 10.222 131.41 9.82533 131.419 9.368C131.428 8.91067 131.433 8.458 131.433 8.01C131.442 7.55267 131.438 7.17467 131.419 6.876C131.382 6.27867 131.274 5.84 131.097 5.56C130.929 5.28 130.672 5.14 130.327 5.14C129.926 5.14 129.604 5.32667 129.361 5.7C129.128 6.07333 128.983 6.59133 128.927 7.254C128.908 7.52467 128.899 7.86067 128.899 8.262C128.908 8.654 128.918 9.046 128.927 9.438C128.936 9.83 128.932 10.1567 128.913 10.418C128.904 10.978 128.815 11.3793 128.647 11.622C128.488 11.8647 128.264 11.986 127.975 11.986C127.63 11.986 127.378 11.874 127.219 11.65C127.07 11.426 126.972 11.0667 126.925 10.572C126.888 10.1333 126.86 9.69933 126.841 9.27C126.822 8.83133 126.813 8.39733 126.813 7.968C126.813 7.52933 126.822 7.05333 126.841 6.54C126.869 6.02667 126.906 5.54133 126.953 5.084C127.009 4.61733 127.107 4.22533 127.247 3.908C127.387 3.59067 127.62 3.432 127.947 3.432C128.218 3.432 128.409 3.56733 128.521 3.838C128.633 4.09933 128.689 4.50533 128.689 5.056C128.689 5.24267 128.675 5.41533 128.647 5.574L128.605 5.294C128.792 4.68733 129.09 4.216 129.501 3.88C129.912 3.53467 130.369 3.362 130.873 3.362C131.536 3.362 132.054 3.57667 132.427 4.006C132.8 4.426 133.006 5.00933 133.043 5.756L132.847 5.588ZM143.475 12.112C142.439 12.112 141.613 11.958 140.997 11.65C140.381 11.342 139.938 10.8987 139.667 10.32C139.397 9.74133 139.261 9.05067 139.261 8.248C139.261 7.23067 139.448 6.36733 139.821 5.658C140.204 4.93933 140.727 4.38867 141.389 4.006C142.061 3.62333 142.822 3.432 143.671 3.432C144.67 3.432 145.403 3.66533 145.869 4.132C146.336 4.58933 146.569 5.19133 146.569 5.938C146.569 6.53533 146.411 7.05333 146.093 7.492C145.785 7.92133 145.356 8.25267 144.805 8.486C144.255 8.71933 143.62 8.836 142.901 8.836C142.5 8.836 142.113 8.78467 141.739 8.682C141.366 8.57933 141.03 8.43933 140.731 8.262L141.067 7.646C141.039 7.87 141.025 8.094 141.025 8.318C141.025 8.97133 141.231 9.44267 141.641 9.732C142.052 10.012 142.635 10.152 143.391 10.152C143.979 10.152 144.451 10.1007 144.805 9.998C145.16 9.89533 145.459 9.79733 145.701 9.704C145.944 9.60133 146.182 9.55 146.415 9.55C146.546 9.55 146.663 9.58733 146.765 9.662C146.877 9.72733 146.966 9.82533 147.031 9.956C147.106 10.0867 147.143 10.2453 147.143 10.432C147.143 10.712 147.003 10.9827 146.723 11.244C146.443 11.496 146.028 11.706 145.477 11.874C144.936 12.0327 144.269 12.112 143.475 12.112ZM142.663 7.534C143.326 7.534 143.858 7.394 144.259 7.114C144.661 6.834 144.861 6.48867 144.861 6.078C144.861 5.75133 144.749 5.48533 144.525 5.28C144.311 5.06533 143.97 4.958 143.503 4.958C143.065 4.958 142.668 5.042 142.313 5.21C141.968 5.36867 141.697 5.57867 141.501 5.84C141.305 6.10133 141.207 6.386 141.207 6.694C141.207 6.96467 141.333 7.17467 141.585 7.324C141.847 7.464 142.206 7.534 142.663 7.534ZM149.886 12.028C149.596 12.028 149.368 11.9627 149.2 11.832C149.032 11.692 148.896 11.4633 148.794 11.146C148.654 10.6793 148.546 10.0913 148.472 9.382C148.406 8.66333 148.374 7.78133 148.374 6.736C148.374 6.092 148.397 5.448 148.444 4.804C148.5 4.15067 148.57 3.558 148.654 3.026C148.738 2.48467 148.826 2.06467 148.92 1.766C149.022 1.44867 149.144 1.22933 149.284 1.108C149.424 0.986666 149.582 0.926 149.76 0.926C149.946 0.926 150.096 0.991333 150.208 1.122C150.32 1.24333 150.408 1.46267 150.474 1.78C150.53 2.088 150.572 2.466 150.6 2.914C150.637 3.362 150.656 3.84267 150.656 4.356C150.656 5.056 150.623 5.79333 150.558 6.568C150.492 7.34267 150.404 8.10333 150.292 8.85C150.189 9.59667 150.063 10.2827 149.914 10.908L149.522 10.712C149.764 10.4133 150.04 10.18 150.348 10.012C150.665 9.844 150.954 9.76 151.216 9.76C151.43 9.76 151.594 9.82067 151.706 9.942C151.827 10.054 151.888 10.2313 151.888 10.474C151.888 10.7167 151.78 10.9593 151.566 11.202C151.36 11.4447 151.104 11.6453 150.796 11.804C150.488 11.9533 150.184 12.028 149.886 12.028ZM154.391 1.262C154.764 1.262 155.03 1.36467 155.189 1.57C155.357 1.77533 155.441 2.01333 155.441 2.284C155.441 2.62 155.338 2.88133 155.133 3.068C154.937 3.24533 154.657 3.334 154.293 3.334C153.938 3.334 153.672 3.236 153.495 3.04C153.317 2.83467 153.229 2.59667 153.229 2.326C153.229 1.97133 153.336 1.70533 153.551 1.528C153.765 1.35067 154.045 1.262 154.391 1.262ZM154.475 4.384C154.773 4.384 155.007 4.664 155.175 5.224C155.352 5.784 155.441 6.67533 155.441 7.898C155.441 9.40067 155.333 10.4833 155.119 11.146C154.904 11.8087 154.577 12.14 154.139 12.14C153.803 12.14 153.555 11.8973 153.397 11.412C153.238 10.9173 153.159 10.0587 153.159 8.836C153.159 7.33333 153.28 6.218 153.523 5.49C153.775 4.75267 154.092 4.384 154.475 4.384ZM158.593 0.911999C158.892 0.911999 159.097 1.02867 159.209 1.262C159.33 1.49533 159.391 1.84533 159.391 2.312C159.391 2.71333 159.368 3.21733 159.321 3.824C159.274 4.43067 159.214 5.014 159.139 5.574H159.055C159.363 4.99533 159.76 4.52867 160.245 4.174C160.73 3.81933 161.244 3.642 161.785 3.642C162.261 3.642 162.686 3.75867 163.059 3.992C163.432 4.216 163.736 4.57067 163.969 5.056C164.184 5.49467 164.342 6.01733 164.445 6.624C164.548 7.22133 164.599 7.79067 164.599 8.332C164.599 9.2 164.538 9.89067 164.417 10.404C164.305 10.9173 164.146 11.2907 163.941 11.524C163.736 11.748 163.493 11.86 163.213 11.86C162.625 11.86 162.331 11.3793 162.331 10.418C162.331 9.95133 162.354 9.47067 162.401 8.976C162.457 8.48133 162.485 8.02867 162.485 7.618C162.485 6.918 162.373 6.39533 162.149 6.05C161.934 5.69533 161.622 5.518 161.211 5.518C160.698 5.518 160.282 5.74667 159.965 6.204C159.648 6.66133 159.489 7.29133 159.489 8.094C159.489 8.514 159.526 8.976 159.601 9.48C159.676 9.97467 159.713 10.4273 159.713 10.838C159.713 11.2953 159.624 11.6267 159.447 11.832C159.279 12.028 159.06 12.126 158.789 12.126C158.584 12.126 158.402 12.084 158.243 12C158.094 11.9253 157.963 11.7713 157.851 11.538C157.748 11.2953 157.66 10.936 157.585 10.46C157.529 10.096 157.473 9.67133 157.417 9.186C157.361 8.70067 157.314 8.192 157.277 7.66C157.24 7.128 157.207 6.61 157.179 6.106C157.16 5.59267 157.151 5.126 157.151 4.706C157.151 3.38067 157.277 2.41933 157.529 1.822C157.781 1.21533 158.136 0.911999 158.593 0.911999ZM172.429 12.14C172.112 12.14 171.892 12.0187 171.771 11.776C171.659 11.524 171.594 11.1273 171.575 10.586L171.715 10.656C171.192 11.6733 170.203 12.182 168.747 12.182C168.084 12.182 167.534 12.0653 167.095 11.832C166.656 11.5893 166.33 11.272 166.115 10.88C165.91 10.4787 165.807 10.0447 165.807 9.578C165.807 8.77533 166.087 8.14067 166.647 7.674C167.207 7.198 167.949 6.96 168.873 6.96C169.48 6.96 170.007 7.04867 170.455 7.226C170.903 7.40333 171.286 7.65067 171.603 7.968L171.365 7.94C171.3 6.99733 171.094 6.32533 170.749 5.924C170.413 5.51333 169.932 5.308 169.307 5.308C168.943 5.308 168.607 5.364 168.299 5.476C167.991 5.588 167.706 5.70467 167.445 5.826C167.193 5.938 166.955 5.994 166.731 5.994C166.507 5.994 166.33 5.91933 166.199 5.77C166.078 5.62067 166.017 5.42933 166.017 5.196C166.017 4.86 166.176 4.54267 166.493 4.244C166.82 3.94533 167.249 3.70267 167.781 3.516C168.313 3.32933 168.892 3.236 169.517 3.236C170.273 3.236 170.922 3.418 171.463 3.782C172.004 4.146 172.415 4.678 172.695 5.378C172.938 5.97533 173.11 6.64267 173.213 7.38C173.316 8.11733 173.367 8.906 173.367 9.746C173.367 10.3807 173.334 10.8707 173.269 11.216C173.204 11.5613 173.101 11.804 172.961 11.944C172.83 12.0747 172.653 12.14 172.429 12.14ZM169.335 10.572C169.643 10.572 169.956 10.53 170.273 10.446C170.59 10.3527 170.856 10.2173 171.071 10.04C171.286 9.86267 171.393 9.64333 171.393 9.382C171.393 9.158 171.3 8.976 171.113 8.836C170.936 8.68667 170.698 8.57467 170.399 8.5C170.11 8.42533 169.797 8.388 169.461 8.388C168.892 8.388 168.458 8.486 168.159 8.682C167.87 8.878 167.725 9.13933 167.725 9.466C167.725 9.82067 167.86 10.096 168.131 10.292C168.411 10.4787 168.812 10.572 169.335 10.572ZM177.017 3.572H176.737C176.709 3.16133 176.718 2.774 176.765 2.41C176.812 2.03667 176.91 1.738 177.059 1.514C177.218 1.28067 177.442 1.164 177.731 1.164C177.992 1.164 178.184 1.248 178.305 1.416C178.426 1.584 178.487 1.81733 178.487 2.116C178.487 2.704 178.375 3.208 178.151 3.628L177.899 3.6C178.403 3.42267 178.972 3.334 179.607 3.334C180.008 3.334 180.326 3.41333 180.559 3.572C180.802 3.72133 180.923 3.978 180.923 4.342C180.923 4.68733 180.783 4.94867 180.503 5.126C180.223 5.30333 179.873 5.392 179.453 5.392C179.201 5.392 178.93 5.38267 178.641 5.364C178.361 5.336 178.086 5.294 177.815 5.238L178.053 4.944C178.137 5.29867 178.216 5.70467 178.291 6.162C178.375 6.61 178.45 7.07667 178.515 7.562C178.58 8.04733 178.632 8.51867 178.669 8.976C178.706 9.43333 178.725 9.844 178.725 10.208C178.725 10.8053 178.632 11.2767 178.445 11.622C178.258 11.9673 177.983 12.14 177.619 12.14C177.33 12.14 177.101 12.0513 176.933 11.874C176.774 11.6967 176.658 11.4727 176.583 11.202C176.518 10.922 176.476 10.6327 176.457 10.334C176.448 10.0353 176.443 9.76467 176.443 9.522C176.443 9.11133 176.462 8.64933 176.499 8.136C176.536 7.61333 176.588 7.07667 176.653 6.526C176.728 5.97533 176.812 5.44333 176.905 4.93L177.185 5.168C176.709 5.41067 176.121 5.532 175.421 5.532C174.992 5.532 174.66 5.45267 174.427 5.294C174.194 5.13533 174.077 4.888 174.077 4.552C174.077 4.188 174.208 3.908 174.469 3.712C174.73 3.50667 175.08 3.404 175.519 3.404C175.808 3.404 176.079 3.42267 176.331 3.46C176.592 3.488 176.821 3.52533 177.017 3.572ZM187.23 3.572H186.95C186.922 3.16133 186.931 2.774 186.978 2.41C187.024 2.03667 187.122 1.738 187.272 1.514C187.43 1.28067 187.654 1.164 187.944 1.164C188.205 1.164 188.396 1.248 188.518 1.416C188.639 1.584 188.7 1.81733 188.7 2.116C188.7 2.704 188.588 3.208 188.364 3.628L188.112 3.6C188.616 3.42267 189.185 3.334 189.82 3.334C190.221 3.334 190.538 3.41333 190.772 3.572C191.014 3.72133 191.136 3.978 191.136 4.342C191.136 4.68733 190.996 4.94867 190.716 5.126C190.436 5.30333 190.086 5.392 189.666 5.392C189.414 5.392 189.143 5.38267 188.854 5.364C188.574 5.336 188.298 5.294 188.028 5.238L188.266 4.944C188.35 5.29867 188.429 5.70467 188.504 6.162C188.588 6.61 188.662 7.07667 188.728 7.562C188.793 8.04733 188.844 8.51867 188.882 8.976C188.919 9.43333 188.938 9.844 188.938 10.208C188.938 10.8053 188.844 11.2767 188.658 11.622C188.471 11.9673 188.196 12.14 187.832 12.14C187.542 12.14 187.314 12.0513 187.146 11.874C186.987 11.6967 186.87 11.4727 186.796 11.202C186.73 10.922 186.688 10.6327 186.67 10.334C186.66 10.0353 186.656 9.76467 186.656 9.522C186.656 9.11133 186.674 8.64933 186.712 8.136C186.749 7.61333 186.8 7.07667 186.866 6.526C186.94 5.97533 187.024 5.44333 187.118 4.93L187.398 5.168C186.922 5.41067 186.334 5.532 185.634 5.532C185.204 5.532 184.873 5.45267 184.64 5.294C184.406 5.13533 184.29 4.888 184.29 4.552C184.29 4.188 184.42 3.908 184.682 3.712C184.943 3.50667 185.293 3.404 185.732 3.404C186.021 3.404 186.292 3.42267 186.544 3.46C186.805 3.488 187.034 3.52533 187.23 3.572ZM198.574 11.916C198.322 11.916 198.126 11.832 197.986 11.664C197.855 11.4867 197.767 11.2627 197.72 10.992C197.673 10.712 197.65 10.418 197.65 10.11L197.72 10.054C197.627 10.4553 197.445 10.8007 197.174 11.09C196.903 11.3793 196.591 11.6033 196.236 11.762C195.881 11.9113 195.527 11.986 195.172 11.986C194.696 11.986 194.262 11.874 193.87 11.65C193.478 11.426 193.175 11.0807 192.96 10.614C192.745 10.1193 192.577 9.49867 192.456 8.752C192.335 7.996 192.274 7.22133 192.274 6.428C192.274 5.99867 192.293 5.602 192.33 5.238C192.367 4.874 192.428 4.57533 192.512 4.342C192.587 4.09933 192.699 3.922 192.848 3.81C192.997 3.68867 193.189 3.628 193.422 3.628C193.693 3.628 193.903 3.73533 194.052 3.95C194.211 4.15533 194.309 4.44467 194.346 4.818C194.383 5.126 194.407 5.50867 194.416 5.966C194.435 6.414 194.449 6.86667 194.458 7.324C194.477 7.772 194.5 8.15 194.528 8.458C194.584 9.018 194.729 9.43333 194.962 9.704C195.195 9.96533 195.48 10.096 195.816 10.096C196.311 10.096 196.689 9.90933 196.95 9.536C197.211 9.16267 197.342 8.64 197.342 7.968C197.342 7.632 197.323 7.254 197.286 6.834C197.249 6.40467 197.207 5.98933 197.16 5.588C197.123 5.18667 197.104 4.85533 197.104 4.594C197.104 4.15533 197.179 3.84267 197.328 3.656C197.477 3.46 197.683 3.362 197.944 3.362C198.168 3.362 198.355 3.42267 198.504 3.544C198.663 3.66533 198.789 3.83333 198.882 4.048C199.013 4.328 199.125 4.71067 199.218 5.196C199.311 5.68133 199.386 6.232 199.442 6.848C199.498 7.464 199.526 8.11267 199.526 8.794C199.526 9.83933 199.456 10.6233 199.316 11.146C199.176 11.6593 198.929 11.916 198.574 11.916ZM202.181 12.14C202.004 12.14 201.859 12.0887 201.747 11.986C201.635 11.874 201.556 11.7153 201.509 11.51C201.434 11.1647 201.369 10.6653 201.313 10.012C201.257 9.35867 201.229 8.63533 201.229 7.842C201.229 6.862 201.262 5.91933 201.327 5.014C201.402 4.10867 201.495 3.36667 201.607 2.788C201.728 2.16267 201.878 1.70533 202.055 1.416C202.232 1.11733 202.466 0.967999 202.755 0.967999C203.016 0.967999 203.217 1.08933 203.357 1.332C203.497 1.56533 203.567 1.97133 203.567 2.55C203.567 3.12867 203.544 3.74933 203.497 4.412C203.46 5.07467 203.394 5.784 203.301 6.54H203.357C203.964 5.71867 204.528 5.06067 205.051 4.566C205.583 4.07133 206.068 3.712 206.507 3.488C206.955 3.264 207.352 3.152 207.697 3.152C207.968 3.152 208.168 3.236 208.299 3.404C208.43 3.572 208.495 3.77733 208.495 4.02C208.495 4.496 208.112 5.028 207.347 5.616C206.591 6.204 205.499 6.806 204.071 7.422L204.085 7.198C204.972 7.65533 205.732 8.136 206.367 8.64C207.011 9.13467 207.501 9.606 207.837 10.054C208.182 10.4927 208.355 10.8613 208.355 11.16C208.355 11.4027 208.276 11.6033 208.117 11.762C207.968 11.9113 207.748 11.986 207.459 11.986C207.095 11.986 206.689 11.8507 206.241 11.58C205.802 11.3 205.345 10.8847 204.869 10.334C204.393 9.78333 203.917 9.09267 203.441 8.262H203.385C203.376 8.85 203.338 9.424 203.273 9.984C203.217 10.5347 203.142 10.9873 203.049 11.342C202.984 11.5847 202.881 11.7807 202.741 11.93C202.61 12.07 202.424 12.14 202.181 12.14ZM215.742 12.14C215.424 12.14 215.205 12.0187 215.084 11.776C214.972 11.524 214.906 11.1273 214.888 10.586L215.028 10.656C214.505 11.6733 213.516 12.182 212.06 12.182C211.397 12.182 210.846 12.0653 210.408 11.832C209.969 11.5893 209.642 11.272 209.428 10.88C209.222 10.4787 209.12 10.0447 209.12 9.578C209.12 8.77533 209.4 8.14067 209.96 7.674C210.52 7.198 211.262 6.96 212.186 6.96C212.792 6.96 213.32 7.04867 213.768 7.226C214.216 7.40333 214.598 7.65067 214.916 7.968L214.678 7.94C214.612 6.99733 214.407 6.32533 214.062 5.924C213.726 5.51333 213.245 5.308 212.62 5.308C212.256 5.308 211.92 5.364 211.612 5.476C211.304 5.588 211.019 5.70467 210.758 5.826C210.506 5.938 210.268 5.994 210.044 5.994C209.82 5.994 209.642 5.91933 209.512 5.77C209.39 5.62067 209.33 5.42933 209.33 5.196C209.33 4.86 209.488 4.54267 209.806 4.244C210.132 3.94533 210.562 3.70267 211.094 3.516C211.626 3.32933 212.204 3.236 212.83 3.236C213.586 3.236 214.234 3.418 214.776 3.782C215.317 4.146 215.728 4.678 216.008 5.378C216.25 5.97533 216.423 6.64267 216.526 7.38C216.628 8.11733 216.68 8.906 216.68 9.746C216.68 10.3807 216.647 10.8707 216.582 11.216C216.516 11.5613 216.414 11.804 216.274 11.944C216.143 12.0747 215.966 12.14 215.742 12.14ZM212.648 10.572C212.956 10.572 213.268 10.53 213.586 10.446C213.903 10.3527 214.169 10.2173 214.384 10.04C214.598 9.86267 214.706 9.64333 214.706 9.382C214.706 9.158 214.612 8.976 214.426 8.836C214.248 8.68667 214.01 8.57467 213.712 8.5C213.422 8.42533 213.11 8.388 212.774 8.388C212.204 8.388 211.77 8.486 211.472 8.682C211.182 8.878 211.038 9.13933 211.038 9.466C211.038 9.82067 211.173 10.096 211.444 10.292C211.724 10.4787 212.125 10.572 212.648 10.572ZM219.815 3.292C220.114 3.292 220.315 3.41333 220.417 3.656C220.529 3.89867 220.585 4.258 220.585 4.734C220.585 4.846 220.576 4.96733 220.557 5.098C220.548 5.21933 220.529 5.33133 220.501 5.434L220.473 5.154C220.697 4.54733 221.043 4.076 221.509 3.74C221.976 3.39467 222.471 3.222 222.993 3.222C223.572 3.222 224.053 3.38533 224.435 3.712C224.827 4.03867 225.117 4.496 225.303 5.084C225.499 5.672 225.597 6.36733 225.597 7.17C225.597 7.66467 225.574 8.15467 225.527 8.64C225.49 9.116 225.434 9.55467 225.359 9.956C225.294 10.348 225.219 10.67 225.135 10.922C225.023 11.2393 224.879 11.4773 224.701 11.636C224.524 11.7853 224.314 11.86 224.071 11.86C223.829 11.86 223.642 11.7713 223.511 11.594C223.381 11.4167 223.315 11.1787 223.315 10.88C223.315 10.5627 223.339 10.18 223.385 9.732C223.432 9.27467 223.474 8.81267 223.511 8.346C223.558 7.87 223.581 7.44067 223.581 7.058C223.581 5.75133 223.152 5.098 222.293 5.098C221.836 5.098 221.453 5.30333 221.145 5.714C220.837 6.11533 220.632 6.68933 220.529 7.436C220.501 7.688 220.487 8.00067 220.487 8.374C220.487 8.74733 220.487 9.12067 220.487 9.494C220.497 9.858 220.487 10.166 220.459 10.418C220.422 10.978 220.315 11.3793 220.137 11.622C219.969 11.8647 219.736 11.986 219.437 11.986C219.092 11.986 218.831 11.8273 218.653 11.51C218.476 11.1833 218.387 10.6373 218.387 9.872C218.387 9.48 218.397 9.04133 218.415 8.556C218.434 8.07067 218.457 7.58533 218.485 7.1C218.523 6.60533 218.565 6.15733 218.611 5.756C218.705 5 218.84 4.40267 219.017 3.964C219.195 3.516 219.461 3.292 219.815 3.292ZM229.975 11.776C229.098 11.776 228.384 11.44 227.833 10.768C227.283 10.0867 227.007 9.05533 227.007 7.674C227.007 6.19933 227.273 5.12133 227.805 4.44C228.337 3.75867 229.037 3.418 229.905 3.418C230.419 3.418 230.871 3.54867 231.263 3.81C231.655 4.07133 231.991 4.44 232.271 4.916L232.159 5.112C232.131 4.98133 232.108 4.84133 232.089 4.692C232.071 4.54267 232.061 4.43067 232.061 4.356C232.061 3.97333 232.122 3.67933 232.243 3.474C232.374 3.25933 232.575 3.152 232.845 3.152C233.144 3.152 233.377 3.27333 233.545 3.516C233.723 3.75867 233.858 4.104 233.951 4.552C234.073 5.00933 234.175 5.59267 234.259 6.302C234.343 7.002 234.385 7.71133 234.385 8.43C234.385 9.326 234.353 10.0773 234.287 10.684C234.222 11.2907 234.115 11.7947 233.965 12.196C233.816 12.5973 233.62 12.9473 233.377 13.246C232.976 13.7313 232.458 14.1 231.823 14.352C231.198 14.6133 230.475 14.744 229.653 14.744C229.065 14.744 228.594 14.688 228.239 14.576C227.885 14.4733 227.628 14.3287 227.469 14.142C227.32 13.9647 227.245 13.764 227.245 13.54C227.245 13.3067 227.311 13.1107 227.441 12.952C227.572 12.8027 227.768 12.728 228.029 12.728C228.263 12.728 228.533 12.7653 228.841 12.84C229.159 12.9147 229.532 12.952 229.961 12.952C230.867 12.952 231.506 12.7373 231.879 12.308C232.262 11.888 232.453 11.2813 232.453 10.488C232.453 10.2733 232.439 10.0213 232.411 9.732L232.607 9.802C232.374 10.3993 232.029 10.88 231.571 11.244C231.114 11.5987 230.582 11.776 229.975 11.776ZM230.507 10.054C230.806 10.054 231.105 9.97467 231.403 9.816C231.702 9.65733 231.949 9.396 232.145 9.032C232.341 8.668 232.439 8.178 232.439 7.562C232.439 6.82467 232.267 6.22267 231.921 5.756C231.576 5.28933 231.091 5.056 230.465 5.056C229.924 5.056 229.527 5.26133 229.275 5.672C229.023 6.08267 228.897 6.70333 228.897 7.534C228.897 8.32733 229.023 8.948 229.275 9.396C229.527 9.83467 229.938 10.054 230.507 10.054ZM44.6907 22.588C44.7841 22.2053 44.9474 21.86 45.1807 21.552C45.4234 21.244 45.7127 21.0013 46.0487 20.824C46.3941 20.6373 46.7721 20.544 47.1827 20.544C47.6681 20.544 48.0974 20.6607 48.4707 20.894C48.8441 21.1273 49.1381 21.51 49.3527 22.042C49.5767 22.574 49.6887 23.2833 49.6887 24.17C49.6887 24.6273 49.6701 25.0893 49.6327 25.556C49.5954 26.0227 49.5487 26.4567 49.4927 26.858C49.4367 27.2593 49.3761 27.5953 49.3107 27.866C49.2174 28.2393 49.0727 28.524 48.8767 28.72C48.6901 28.916 48.4521 29.014 48.1627 29.014C47.9201 29.014 47.7287 28.9067 47.5887 28.692C47.4487 28.4773 47.3787 28.1693 47.3787 27.768C47.3787 27.5813 47.4021 27.3433 47.4487 27.054C47.4954 26.7553 47.5467 26.4333 47.6027 26.088C47.6587 25.7333 47.7101 25.374 47.7567 25.01C47.8034 24.646 47.8267 24.3007 47.8267 23.974C47.8267 23.4887 47.7287 23.1153 47.5327 22.854C47.3367 22.5833 47.0614 22.448 46.7067 22.448C46.3147 22.448 45.9881 22.6533 45.7267 23.064C45.4747 23.4653 45.3254 24.0533 45.2787 24.828C45.2414 25.5187 45.2087 26.1347 45.1807 26.676C45.1527 27.208 45.0827 27.6467 44.9707 27.992C44.8961 28.2347 44.7887 28.4167 44.6487 28.538C44.5181 28.6593 44.3407 28.72 44.1167 28.72C43.8647 28.72 43.6641 28.6267 43.5147 28.44C43.3747 28.2533 43.2954 27.9593 43.2767 27.558C43.2581 27.222 43.2534 26.8253 43.2627 26.368C43.2721 25.9107 43.2767 25.458 43.2767 25.01C43.2861 24.5527 43.2814 24.1747 43.2627 23.876C43.2254 23.2787 43.1181 22.84 42.9407 22.56C42.7727 22.28 42.5161 22.14 42.1707 22.14C41.7694 22.14 41.4474 22.3267 41.2047 22.7C40.9714 23.0733 40.8267 23.5913 40.7707 24.254C40.7521 24.5247 40.7427 24.8607 40.7427 25.262C40.7521 25.654 40.7614 26.046 40.7707 26.438C40.7801 26.83 40.7754 27.1567 40.7567 27.418C40.7474 27.978 40.6587 28.3793 40.4907 28.622C40.3321 28.8647 40.1081 28.986 39.8187 28.986C39.4734 28.986 39.2214 28.874 39.0627 28.65C38.9134 28.426 38.8154 28.0667 38.7687 27.572C38.7314 27.1333 38.7034 26.6993 38.6847 26.27C38.6661 25.8313 38.6567 25.3973 38.6567 24.968C38.6567 24.5293 38.6661 24.0533 38.6847 23.54C38.7127 23.0267 38.7501 22.5413 38.7967 22.084C38.8527 21.6173 38.9507 21.2253 39.0907 20.908C39.2307 20.5907 39.4641 20.432 39.7907 20.432C40.0614 20.432 40.2527 20.5673 40.3647 20.838C40.4767 21.0993 40.5327 21.5053 40.5327 22.056C40.5327 22.2427 40.5187 22.4153 40.4907 22.574L40.4487 22.294C40.6354 21.6873 40.9341 21.216 41.3447 20.88C41.7554 20.5347 42.2127 20.362 42.7167 20.362C43.3794 20.362 43.8974 20.5767 44.2707 21.006C44.6441 21.426 44.8494 22.0093 44.8867 22.756L44.6907 22.588ZM55.3189 29.112C54.2829 29.112 53.4569 28.958 52.8409 28.65C52.2249 28.342 51.7816 27.8987 51.5109 27.32C51.2403 26.7413 51.1049 26.0507 51.1049 25.248C51.1049 24.2307 51.2916 23.3673 51.6649 22.658C52.0476 21.9393 52.5703 21.3887 53.2329 21.006C53.9049 20.6233 54.6656 20.432 55.5149 20.432C56.5136 20.432 57.2463 20.6653 57.7129 21.132C58.1796 21.5893 58.4129 22.1913 58.4129 22.938C58.4129 23.5353 58.2543 24.0533 57.9369 24.492C57.6289 24.9213 57.1996 25.2527 56.6489 25.486C56.0983 25.7193 55.4636 25.836 54.7449 25.836C54.3436 25.836 53.9563 25.7847 53.5829 25.682C53.2096 25.5793 52.8736 25.4393 52.5749 25.262L52.9109 24.646C52.8829 24.87 52.8689 25.094 52.8689 25.318C52.8689 25.9713 53.0743 26.4427 53.4849 26.732C53.8956 27.012 54.4789 27.152 55.2349 27.152C55.8229 27.152 56.2943 27.1007 56.6489 26.998C57.0036 26.8953 57.3023 26.7973 57.5449 26.704C57.7876 26.6013 58.0256 26.55 58.2589 26.55C58.3896 26.55 58.5063 26.5873 58.6089 26.662C58.7209 26.7273 58.8096 26.8253 58.8749 26.956C58.9496 27.0867 58.9869 27.2453 58.9869 27.432C58.9869 27.712 58.8469 27.9827 58.5669 28.244C58.2869 28.496 57.8716 28.706 57.3209 28.874C56.7796 29.0327 56.1123 29.112 55.3189 29.112ZM54.5069 24.534C55.1696 24.534 55.7016 24.394 56.1029 24.114C56.5043 23.834 56.7049 23.4887 56.7049 23.078C56.7049 22.7513 56.5929 22.4853 56.3689 22.28C56.1543 22.0653 55.8136 21.958 55.3469 21.958C54.9083 21.958 54.5116 22.042 54.1569 22.21C53.8116 22.3687 53.5409 22.5787 53.3449 22.84C53.1489 23.1013 53.0509 23.386 53.0509 23.694C53.0509 23.9647 53.1769 24.1747 53.4289 24.324C53.6903 24.464 54.0496 24.534 54.5069 24.534ZM66.2513 22.588C66.3446 22.2053 66.5079 21.86 66.7413 21.552C66.9839 21.244 67.2733 21.0013 67.6093 20.824C67.9546 20.6373 68.3326 20.544 68.7433 20.544C69.2286 20.544 69.6579 20.6607 70.0313 20.894C70.4046 21.1273 70.6986 21.51 70.9133 22.042C71.1373 22.574 71.2493 23.2833 71.2493 24.17C71.2493 24.6273 71.2306 25.0893 71.1933 25.556C71.1559 26.0227 71.1093 26.4567 71.0533 26.858C70.9973 27.2593 70.9366 27.5953 70.8713 27.866C70.7779 28.2393 70.6333 28.524 70.4373 28.72C70.2506 28.916 70.0126 29.014 69.7233 29.014C69.4806 29.014 69.2893 28.9067 69.1493 28.692C69.0093 28.4773 68.9393 28.1693 68.9393 27.768C68.9393 27.5813 68.9626 27.3433 69.0093 27.054C69.0559 26.7553 69.1073 26.4333 69.1633 26.088C69.2193 25.7333 69.2706 25.374 69.3173 25.01C69.3639 24.646 69.3873 24.3007 69.3873 23.974C69.3873 23.4887 69.2893 23.1153 69.0933 22.854C68.8973 22.5833 68.6219 22.448 68.2673 22.448C67.8753 22.448 67.5486 22.6533 67.2873 23.064C67.0353 23.4653 66.8859 24.0533 66.8393 24.828C66.8019 25.5187 66.7693 26.1347 66.7413 26.676C66.7133 27.208 66.6433 27.6467 66.5313 27.992C66.4566 28.2347 66.3493 28.4167 66.2093 28.538C66.0786 28.6593 65.9013 28.72 65.6773 28.72C65.4253 28.72 65.2246 28.6267 65.0753 28.44C64.9353 28.2533 64.8559 27.9593 64.8373 27.558C64.8186 27.222 64.8139 26.8253 64.8233 26.368C64.8326 25.9107 64.8373 25.458 64.8373 25.01C64.8466 24.5527 64.8419 24.1747 64.8233 23.876C64.7859 23.2787 64.6786 22.84 64.5013 22.56C64.3333 22.28 64.0766 22.14 63.7313 22.14C63.3299 22.14 63.0079 22.3267 62.7653 22.7C62.5319 23.0733 62.3873 23.5913 62.3313 24.254C62.3126 24.5247 62.3033 24.8607 62.3033 25.262C62.3126 25.654 62.3219 26.046 62.3313 26.438C62.3406 26.83 62.3359 27.1567 62.3173 27.418C62.3079 27.978 62.2193 28.3793 62.0513 28.622C61.8926 28.8647 61.6686 28.986 61.3793 28.986C61.0339 28.986 60.7819 28.874 60.6233 28.65C60.4739 28.426 60.3759 28.0667 60.3293 27.572C60.2919 27.1333 60.2639 26.6993 60.2453 26.27C60.2266 25.8313 60.2173 25.3973 60.2173 24.968C60.2173 24.5293 60.2266 24.0533 60.2453 23.54C60.2733 23.0267 60.3106 22.5413 60.3573 22.084C60.4133 21.6173 60.5113 21.2253 60.6513 20.908C60.7913 20.5907 61.0246 20.432 61.3513 20.432C61.6219 20.432 61.8133 20.5673 61.9253 20.838C62.0373 21.0993 62.0933 21.5053 62.0933 22.056C62.0933 22.2427 62.0793 22.4153 62.0513 22.574L62.0093 22.294C62.1959 21.6873 62.4946 21.216 62.9053 20.88C63.3159 20.5347 63.7733 20.362 64.2773 20.362C64.9399 20.362 65.4579 20.5767 65.8313 21.006C66.2046 21.426 66.4099 22.0093 66.4473 22.756L66.2513 22.588ZM79.0775 29.14C78.7601 29.14 78.5408 29.0187 78.4195 28.776C78.3075 28.524 78.2421 28.1273 78.2235 27.586L78.3635 27.656C77.8408 28.6733 76.8515 29.182 75.3955 29.182C74.7328 29.182 74.1821 29.0653 73.7435 28.832C73.3048 28.5893 72.9781 28.272 72.7635 27.88C72.5581 27.4787 72.4555 27.0447 72.4555 26.578C72.4555 25.7753 72.7355 25.1407 73.2955 24.674C73.8555 24.198 74.5975 23.96 75.5215 23.96C76.1281 23.96 76.6555 24.0487 77.1035 24.226C77.5515 24.4033 77.9341 24.6507 78.2515 24.968L78.0135 24.94C77.9481 23.9973 77.7428 23.3253 77.3975 22.924C77.0615 22.5133 76.5808 22.308 75.9555 22.308C75.5915 22.308 75.2555 22.364 74.9475 22.476C74.6395 22.588 74.3548 22.7047 74.0935 22.826C73.8415 22.938 73.6035 22.994 73.3795 22.994C73.1555 22.994 72.9781 22.9193 72.8475 22.77C72.7261 22.6207 72.6655 22.4293 72.6655 22.196C72.6655 21.86 72.8241 21.5427 73.1415 21.244C73.4681 20.9453 73.8975 20.7027 74.4295 20.516C74.9615 20.3293 75.5401 20.236 76.1655 20.236C76.9215 20.236 77.5701 20.418 78.1115 20.782C78.6528 21.146 79.0635 21.678 79.3435 22.378C79.5861 22.9753 79.7588 23.6427 79.8615 24.38C79.9641 25.1173 80.0155 25.906 80.0155 26.746C80.0155 27.3807 79.9828 27.8707 79.9175 28.216C79.8521 28.5613 79.7495 28.804 79.6095 28.944C79.4788 29.0747 79.3015 29.14 79.0775 29.14ZM75.9835 27.572C76.2915 27.572 76.6041 27.53 76.9215 27.446C77.2388 27.3527 77.5048 27.2173 77.7195 27.04C77.9341 26.8627 78.0415 26.6433 78.0415 26.382C78.0415 26.158 77.9481 25.976 77.7615 25.836C77.5841 25.6867 77.3461 25.5747 77.0475 25.5C76.7581 25.4253 76.4455 25.388 76.1095 25.388C75.5401 25.388 75.1061 25.486 74.8075 25.682C74.5181 25.878 74.3735 26.1393 74.3735 26.466C74.3735 26.8207 74.5088 27.096 74.7795 27.292C75.0595 27.4787 75.4608 27.572 75.9835 27.572ZM85.2651 20.236C86.0958 20.236 86.6931 20.3573 87.0571 20.6C87.4211 20.8427 87.6031 21.1553 87.6031 21.538C87.6031 21.762 87.5238 21.9487 87.3651 22.098C87.2158 22.238 87.0011 22.308 86.7211 22.308C86.4318 22.308 86.1285 22.266 85.8111 22.182C85.5031 22.098 85.1438 22.056 84.7331 22.056C84.2571 22.056 83.9025 22.1493 83.6691 22.336C83.4358 22.5227 83.3191 22.7607 83.3191 23.05C83.3191 23.3207 83.4218 23.5353 83.6271 23.694C83.8418 23.8433 84.2478 23.9553 84.8451 24.03C85.5078 24.1047 86.0538 24.226 86.4831 24.394C86.9218 24.5527 87.2485 24.7953 87.4631 25.122C87.6778 25.4393 87.7851 25.878 87.7851 26.438C87.7851 27.3247 87.4725 27.9827 86.8471 28.412C86.2218 28.8413 85.3585 29.056 84.2571 29.056C83.5571 29.056 83.0018 29 82.5911 28.888C82.1805 28.776 81.8818 28.6173 81.6951 28.412C81.5178 28.2067 81.4291 27.964 81.4291 27.684C81.4291 27.4413 81.5085 27.2547 81.6671 27.124C81.8351 26.984 82.0311 26.914 82.2551 26.914C82.4698 26.914 82.6985 26.942 82.9411 26.998C83.1838 27.0447 83.4405 27.096 83.7111 27.152C83.9818 27.208 84.2618 27.236 84.5511 27.236C85.4845 27.236 85.9511 26.9467 85.9511 26.368C85.9511 26.172 85.9045 26.0133 85.8111 25.892C85.7178 25.7707 85.5498 25.6727 85.3071 25.598C85.0645 25.514 84.7098 25.4487 84.2431 25.402C83.6831 25.346 83.1978 25.2527 82.7871 25.122C82.3765 24.982 82.0591 24.758 81.8351 24.45C81.6111 24.1327 81.4991 23.6987 81.4991 23.148C81.4991 22.28 81.8258 21.58 82.4791 21.048C83.1325 20.5067 84.0611 20.236 85.2651 20.236ZM95.3197 29.14C95.0023 29.14 94.783 29.0187 94.6617 28.776C94.5497 28.524 94.4843 28.1273 94.4657 27.586L94.6057 27.656C94.083 28.6733 93.0937 29.182 91.6377 29.182C90.975 29.182 90.4243 29.0653 89.9857 28.832C89.547 28.5893 89.2203 28.272 89.0057 27.88C88.8003 27.4787 88.6977 27.0447 88.6977 26.578C88.6977 25.7753 88.9777 25.1407 89.5377 24.674C90.0977 24.198 90.8397 23.96 91.7637 23.96C92.3703 23.96 92.8977 24.0487 93.3457 24.226C93.7937 24.4033 94.1763 24.6507 94.4937 24.968L94.2557 24.94C94.1903 23.9973 93.985 23.3253 93.6397 22.924C93.3037 22.5133 92.823 22.308 92.1977 22.308C91.8337 22.308 91.4977 22.364 91.1897 22.476C90.8817 22.588 90.597 22.7047 90.3357 22.826C90.0837 22.938 89.8457 22.994 89.6217 22.994C89.3977 22.994 89.2203 22.9193 89.0897 22.77C88.9683 22.6207 88.9077 22.4293 88.9077 22.196C88.9077 21.86 89.0663 21.5427 89.3837 21.244C89.7103 20.9453 90.1397 20.7027 90.6717 20.516C91.2037 20.3293 91.7823 20.236 92.4077 20.236C93.1637 20.236 93.8123 20.418 94.3537 20.782C94.895 21.146 95.3057 21.678 95.5857 22.378C95.8283 22.9753 96.001 23.6427 96.1037 24.38C96.2063 25.1173 96.2577 25.906 96.2577 26.746C96.2577 27.3807 96.225 27.8707 96.1597 28.216C96.0943 28.5613 95.9917 28.804 95.8517 28.944C95.721 29.0747 95.5437 29.14 95.3197 29.14ZM92.2257 27.572C92.5337 27.572 92.8463 27.53 93.1637 27.446C93.481 27.3527 93.747 27.2173 93.9617 27.04C94.1763 26.8627 94.2837 26.6433 94.2837 26.382C94.2837 26.158 94.1903 25.976 94.0037 25.836C93.8263 25.6867 93.5883 25.5747 93.2897 25.5C93.0003 25.4253 92.6877 25.388 92.3517 25.388C91.7823 25.388 91.3483 25.486 91.0497 25.682C90.7603 25.878 90.6157 26.1393 90.6157 26.466C90.6157 26.8207 90.751 27.096 91.0217 27.292C91.3017 27.4787 91.703 27.572 92.2257 27.572ZM99.3933 20.292C99.692 20.292 99.8927 20.4133 99.9953 20.656C100.107 20.8987 100.163 21.258 100.163 21.734C100.163 21.846 100.154 21.9673 100.135 22.098C100.126 22.2193 100.107 22.3313 100.079 22.434L100.051 22.154C100.275 21.5473 100.621 21.076 101.087 20.74C101.554 20.3947 102.049 20.222 102.571 20.222C103.15 20.222 103.631 20.3853 104.013 20.712C104.405 21.0387 104.695 21.496 104.881 22.084C105.077 22.672 105.175 23.3673 105.175 24.17C105.175 24.6647 105.152 25.1547 105.105 25.64C105.068 26.116 105.012 26.5547 104.937 26.956C104.872 27.348 104.797 27.67 104.713 27.922C104.601 28.2393 104.457 28.4773 104.279 28.636C104.102 28.7853 103.892 28.86 103.649 28.86C103.407 28.86 103.22 28.7713 103.089 28.594C102.959 28.4167 102.893 28.1787 102.893 27.88C102.893 27.5627 102.917 27.18 102.963 26.732C103.01 26.2747 103.052 25.8127 103.089 25.346C103.136 24.87 103.159 24.4407 103.159 24.058C103.159 22.7513 102.73 22.098 101.871 22.098C101.414 22.098 101.031 22.3033 100.723 22.714C100.415 23.1153 100.21 23.6893 100.107 24.436C100.079 24.688 100.065 25.0007 100.065 25.374C100.065 25.7473 100.065 26.1207 100.065 26.494C100.075 26.858 100.065 27.166 100.037 27.418C100 27.978 99.8927 28.3793 99.7153 28.622C99.5473 28.8647 99.314 28.986 99.0153 28.986C98.67 28.986 98.4087 28.8273 98.2313 28.51C98.054 28.1833 97.9653 27.6373 97.9653 26.872C97.9653 26.48 97.9747 26.0413 97.9933 25.556C98.012 25.0707 98.0353 24.5853 98.0633 24.1C98.1007 23.6053 98.1427 23.1573 98.1893 22.756C98.2827 22 98.418 21.4027 98.5953 20.964C98.7727 20.516 99.0387 20.292 99.3933 20.292ZM109.553 28.776C108.676 28.776 107.962 28.44 107.411 27.768C106.861 27.0867 106.585 26.0553 106.585 24.674C106.585 23.1993 106.851 22.1213 107.383 21.44C107.915 20.7587 108.615 20.418 109.483 20.418C109.997 20.418 110.449 20.5487 110.841 20.81C111.233 21.0713 111.569 21.44 111.849 21.916L111.737 22.112C111.709 21.9813 111.686 21.8413 111.667 21.692C111.649 21.5427 111.639 21.4307 111.639 21.356C111.639 20.9733 111.7 20.6793 111.821 20.474C111.952 20.2593 112.153 20.152 112.423 20.152C112.722 20.152 112.955 20.2733 113.123 20.516C113.301 20.7587 113.436 21.104 113.529 21.552C113.651 22.0093 113.753 22.5927 113.837 23.302C113.921 24.002 113.963 24.7113 113.963 25.43C113.963 26.326 113.931 27.0773 113.865 27.684C113.8 28.2907 113.693 28.7947 113.543 29.196C113.394 29.5973 113.198 29.9473 112.955 30.246C112.554 30.7313 112.036 31.1 111.401 31.352C110.776 31.6133 110.053 31.744 109.231 31.744C108.643 31.744 108.172 31.688 107.817 31.576C107.463 31.4733 107.206 31.3287 107.047 31.142C106.898 30.9647 106.823 30.764 106.823 30.54C106.823 30.3067 106.889 30.1107 107.019 29.952C107.15 29.8027 107.346 29.728 107.607 29.728C107.841 29.728 108.111 29.7653 108.419 29.84C108.737 29.9147 109.11 29.952 109.539 29.952C110.445 29.952 111.084 29.7373 111.457 29.308C111.84 28.888 112.031 28.2813 112.031 27.488C112.031 27.2733 112.017 27.0213 111.989 26.732L112.185 26.802C111.952 27.3993 111.607 27.88 111.149 28.244C110.692 28.5987 110.16 28.776 109.553 28.776ZM110.085 27.054C110.384 27.054 110.683 26.9747 110.981 26.816C111.28 26.6573 111.527 26.396 111.723 26.032C111.919 25.668 112.017 25.178 112.017 24.562C112.017 23.8247 111.845 23.2227 111.499 22.756C111.154 22.2893 110.669 22.056 110.043 22.056C109.502 22.056 109.105 22.2613 108.853 22.672C108.601 23.0827 108.475 23.7033 108.475 24.534C108.475 25.3273 108.601 25.948 108.853 26.396C109.105 26.8347 109.516 27.054 110.085 27.054ZM124.773 28.916C124.521 28.916 124.325 28.832 124.185 28.664C124.054 28.4867 123.966 28.2627 123.919 27.992C123.872 27.712 123.849 27.418 123.849 27.11L123.919 27.054C123.826 27.4553 123.644 27.8007 123.373 28.09C123.102 28.3793 122.79 28.6033 122.435 28.762C122.08 28.9113 121.726 28.986 121.371 28.986C120.895 28.986 120.461 28.874 120.069 28.65C119.677 28.426 119.374 28.0807 119.159 27.614C118.944 27.1193 118.776 26.4987 118.655 25.752C118.534 24.996 118.473 24.2213 118.473 23.428C118.473 22.9987 118.492 22.602 118.529 22.238C118.566 21.874 118.627 21.5753 118.711 21.342C118.786 21.0993 118.898 20.922 119.047 20.81C119.196 20.6887 119.388 20.628 119.621 20.628C119.892 20.628 120.102 20.7353 120.251 20.95C120.41 21.1553 120.508 21.4447 120.545 21.818C120.582 22.126 120.606 22.5087 120.615 22.966C120.634 23.414 120.648 23.8667 120.657 24.324C120.676 24.772 120.699 25.15 120.727 25.458C120.783 26.018 120.928 26.4333 121.161 26.704C121.394 26.9653 121.679 27.096 122.015 27.096C122.51 27.096 122.888 26.9093 123.149 26.536C123.41 26.1627 123.541 25.64 123.541 24.968C123.541 24.632 123.522 24.254 123.485 23.834C123.448 23.4047 123.406 22.9893 123.359 22.588C123.322 22.1867 123.303 21.8553 123.303 21.594C123.303 21.1553 123.378 20.8427 123.527 20.656C123.676 20.46 123.882 20.362 124.143 20.362C124.367 20.362 124.554 20.4227 124.703 20.544C124.862 20.6653 124.988 20.8333 125.081 21.048C125.212 21.328 125.324 21.7107 125.417 22.196C125.51 22.6813 125.585 23.232 125.641 23.848C125.697 24.464 125.725 25.1127 125.725 25.794C125.725 26.8393 125.655 27.6233 125.515 28.146C125.375 28.6593 125.128 28.916 124.773 28.916ZM128.492 29.14C128.287 29.14 128.119 29.07 127.988 28.93C127.867 28.79 127.769 28.5893 127.694 28.328C127.62 27.9453 127.554 27.446 127.498 26.83C127.452 26.2047 127.428 25.5373 127.428 24.828C127.428 24.4267 127.438 23.974 127.456 23.47C127.475 22.966 127.498 22.4573 127.526 21.944C127.564 21.4213 127.601 20.936 127.638 20.488C127.685 20.04 127.732 19.676 127.778 19.396C127.853 18.9853 127.96 18.6633 128.1 18.43C128.25 18.1873 128.483 18.066 128.8 18.066C129.127 18.066 129.365 18.192 129.514 18.444C129.664 18.6867 129.738 18.99 129.738 19.354C129.738 19.7647 129.706 20.25 129.64 20.81C129.584 21.37 129.496 21.9393 129.374 22.518L129.094 22.854C129.197 22.462 129.365 22.1027 129.598 21.776C129.832 21.4493 130.126 21.1927 130.48 21.006C130.835 20.81 131.246 20.712 131.712 20.712C132.627 20.712 133.355 21.0387 133.896 21.692C134.447 22.336 134.722 23.344 134.722 24.716C134.722 25.6773 134.578 26.48 134.288 27.124C134.008 27.768 133.621 28.2533 133.126 28.58C132.641 28.8973 132.086 29.056 131.46 29.056C130.872 29.056 130.364 28.8833 129.934 28.538C129.514 28.1927 129.244 27.6933 129.122 27.04L129.318 27.194C129.281 27.866 129.188 28.3607 129.038 28.678C128.898 28.986 128.716 29.14 128.492 29.14ZM131.054 27.432C131.521 27.432 131.932 27.222 132.286 26.802C132.641 26.382 132.818 25.724 132.818 24.828C132.818 24.0813 132.678 23.4747 132.398 23.008C132.128 22.5413 131.67 22.308 131.026 22.308C130.504 22.308 130.084 22.518 129.766 22.938C129.449 23.3487 129.29 23.974 129.29 24.814C129.29 25.5793 129.449 26.2093 129.766 26.704C130.084 27.1893 130.513 27.432 131.054 27.432ZM137.369 18.262C137.743 18.262 138.009 18.3647 138.167 18.57C138.335 18.7753 138.419 19.0133 138.419 19.284C138.419 19.62 138.317 19.8813 138.111 20.068C137.915 20.2453 137.635 20.334 137.271 20.334C136.917 20.334 136.651 20.236 136.473 20.04C136.296 19.8347 136.207 19.5967 136.207 19.326C136.207 18.9713 136.315 18.7053 136.529 18.528C136.744 18.3507 137.024 18.262 137.369 18.262ZM137.453 21.384C137.752 21.384 137.985 21.664 138.153 22.224C138.331 22.784 138.419 23.6753 138.419 24.898C138.419 26.4007 138.312 27.4833 138.097 28.146C137.883 28.8087 137.556 29.14 137.117 29.14C136.781 29.14 136.534 28.8973 136.375 28.412C136.217 27.9173 136.137 27.0587 136.137 25.836C136.137 24.3333 136.259 23.218 136.501 22.49C136.753 21.7527 137.071 21.384 137.453 21.384ZM141.557 20.292C141.856 20.292 142.057 20.4133 142.159 20.656C142.271 20.8987 142.327 21.258 142.327 21.734C142.327 21.846 142.318 21.9673 142.299 22.098C142.29 22.2193 142.271 22.3313 142.243 22.434L142.215 22.154C142.439 21.5473 142.785 21.076 143.251 20.74C143.718 20.3947 144.213 20.222 144.735 20.222C145.314 20.222 145.795 20.3853 146.177 20.712C146.569 21.0387 146.859 21.496 147.045 22.084C147.241 22.672 147.339 23.3673 147.339 24.17C147.339 24.6647 147.316 25.1547 147.269 25.64C147.232 26.116 147.176 26.5547 147.101 26.956C147.036 27.348 146.961 27.67 146.877 27.922C146.765 28.2393 146.621 28.4773 146.443 28.636C146.266 28.7853 146.056 28.86 145.813 28.86C145.571 28.86 145.384 28.7713 145.253 28.594C145.123 28.4167 145.057 28.1787 145.057 27.88C145.057 27.5627 145.081 27.18 145.127 26.732C145.174 26.2747 145.216 25.8127 145.253 25.346C145.3 24.87 145.323 24.4407 145.323 24.058C145.323 22.7513 144.894 22.098 144.035 22.098C143.578 22.098 143.195 22.3033 142.887 22.714C142.579 23.1153 142.374 23.6893 142.271 24.436C142.243 24.688 142.229 25.0007 142.229 25.374C142.229 25.7473 142.229 26.1207 142.229 26.494C142.239 26.858 142.229 27.166 142.201 27.418C142.164 27.978 142.057 28.3793 141.879 28.622C141.711 28.8647 141.478 28.986 141.179 28.986C140.834 28.986 140.573 28.8273 140.395 28.51C140.218 28.1833 140.129 27.6373 140.129 26.872C140.129 26.48 140.139 26.0413 140.157 25.556C140.176 25.0707 140.199 24.5853 140.227 24.1C140.265 23.6053 140.307 23.1573 140.353 22.756C140.447 22 140.582 21.4027 140.759 20.964C140.937 20.516 141.203 20.292 141.557 20.292ZM153.358 29.028C153.069 29.028 152.84 28.9627 152.672 28.832C152.504 28.692 152.369 28.4633 152.266 28.146C152.126 27.6793 152.019 27.0913 151.944 26.382C151.879 25.6633 151.846 24.7813 151.846 23.736C151.846 23.092 151.87 22.448 151.916 21.804C151.972 21.1507 152.042 20.558 152.126 20.026C152.21 19.4847 152.299 19.0647 152.392 18.766C152.495 18.4487 152.616 18.2293 152.756 18.108C152.896 17.9867 153.055 17.926 153.232 17.926C153.419 17.926 153.568 17.9913 153.68 18.122C153.792 18.2433 153.881 18.4627 153.946 18.78C154.002 19.088 154.044 19.466 154.072 19.914C154.11 20.362 154.128 20.8427 154.128 21.356C154.128 22.056 154.096 22.7933 154.03 23.568C153.965 24.3427 153.876 25.1033 153.764 25.85C153.662 26.5967 153.536 27.2827 153.386 27.908L152.994 27.712C153.237 27.4133 153.512 27.18 153.82 27.012C154.138 26.844 154.427 26.76 154.688 26.76C154.903 26.76 155.066 26.8207 155.178 26.942C155.3 27.054 155.36 27.2313 155.36 27.474C155.36 27.7167 155.253 27.9593 155.038 28.202C154.833 28.4447 154.576 28.6453 154.268 28.804C153.96 28.9533 153.657 29.028 153.358 29.028ZM162.749 29.14C162.432 29.14 162.213 29.0187 162.091 28.776C161.979 28.524 161.914 28.1273 161.895 27.586L162.035 27.656C161.513 28.6733 160.523 29.182 159.067 29.182C158.405 29.182 157.854 29.0653 157.415 28.832C156.977 28.5893 156.65 28.272 156.435 27.88C156.23 27.4787 156.127 27.0447 156.127 26.578C156.127 25.7753 156.407 25.1407 156.967 24.674C157.527 24.198 158.269 23.96 159.193 23.96C159.8 23.96 160.327 24.0487 160.775 24.226C161.223 24.4033 161.606 24.6507 161.923 24.968L161.685 24.94C161.62 23.9973 161.415 23.3253 161.069 22.924C160.733 22.5133 160.253 22.308 159.627 22.308C159.263 22.308 158.927 22.364 158.619 22.476C158.311 22.588 158.027 22.7047 157.765 22.826C157.513 22.938 157.275 22.994 157.051 22.994C156.827 22.994 156.65 22.9193 156.519 22.77C156.398 22.6207 156.337 22.4293 156.337 22.196C156.337 21.86 156.496 21.5427 156.813 21.244C157.14 20.9453 157.569 20.7027 158.101 20.516C158.633 20.3293 159.212 20.236 159.837 20.236C160.593 20.236 161.242 20.418 161.783 20.782C162.325 21.146 162.735 21.678 163.015 22.378C163.258 22.9753 163.431 23.6427 163.533 24.38C163.636 25.1173 163.687 25.906 163.687 26.746C163.687 27.3807 163.655 27.8707 163.589 28.216C163.524 28.5613 163.421 28.804 163.281 28.944C163.151 29.0747 162.973 29.14 162.749 29.14ZM159.655 27.572C159.963 27.572 160.276 27.53 160.593 27.446C160.911 27.3527 161.177 27.2173 161.391 27.04C161.606 26.8627 161.713 26.6433 161.713 26.382C161.713 26.158 161.62 25.976 161.433 25.836C161.256 25.6867 161.018 25.5747 160.719 25.5C160.43 25.4253 160.117 25.388 159.781 25.388C159.212 25.388 158.778 25.486 158.479 25.682C158.19 25.878 158.045 26.1393 158.045 26.466C158.045 26.8207 158.181 27.096 158.451 27.292C158.731 27.4787 159.133 27.572 159.655 27.572ZM166.823 20.292C167.122 20.292 167.322 20.4133 167.425 20.656C167.537 20.8987 167.593 21.258 167.593 21.734C167.593 21.846 167.584 21.9673 167.565 22.098C167.556 22.2193 167.537 22.3313 167.509 22.434L167.481 22.154C167.705 21.5473 168.05 21.076 168.517 20.74C168.984 20.3947 169.478 20.222 170.001 20.222C170.58 20.222 171.06 20.3853 171.443 20.712C171.835 21.0387 172.124 21.496 172.311 22.084C172.507 22.672 172.605 23.3673 172.605 24.17C172.605 24.6647 172.582 25.1547 172.535 25.64C172.498 26.116 172.442 26.5547 172.367 26.956C172.302 27.348 172.227 27.67 172.143 27.922C172.031 28.2393 171.886 28.4773 171.709 28.636C171.532 28.7853 171.322 28.86 171.079 28.86C170.836 28.86 170.65 28.7713 170.519 28.594C170.388 28.4167 170.323 28.1787 170.323 27.88C170.323 27.5627 170.346 27.18 170.393 26.732C170.44 26.2747 170.482 25.8127 170.519 25.346C170.566 24.87 170.589 24.4407 170.589 24.058C170.589 22.7513 170.16 22.098 169.301 22.098C168.844 22.098 168.461 22.3033 168.153 22.714C167.845 23.1153 167.64 23.6893 167.537 24.436C167.509 24.688 167.495 25.0007 167.495 25.374C167.495 25.7473 167.495 26.1207 167.495 26.494C167.504 26.858 167.495 27.166 167.467 27.418C167.43 27.978 167.322 28.3793 167.145 28.622C166.977 28.8647 166.744 28.986 166.445 28.986C166.1 28.986 165.838 28.8273 165.661 28.51C165.484 28.1833 165.395 27.6373 165.395 26.872C165.395 26.48 165.404 26.0413 165.423 25.556C165.442 25.0707 165.465 24.5853 165.493 24.1C165.53 23.6053 165.572 23.1573 165.619 22.756C165.712 22 165.848 21.4027 166.025 20.964C166.202 20.516 166.468 20.292 166.823 20.292ZM176.675 20.572H176.395C176.367 20.1613 176.376 19.774 176.423 19.41C176.47 19.0367 176.568 18.738 176.717 18.514C176.876 18.2807 177.1 18.164 177.389 18.164C177.65 18.164 177.842 18.248 177.963 18.416C178.084 18.584 178.145 18.8173 178.145 19.116C178.145 19.704 178.033 20.208 177.809 20.628L177.557 20.6C178.061 20.4227 178.63 20.334 179.265 20.334C179.666 20.334 179.984 20.4133 180.217 20.572C180.46 20.7213 180.581 20.978 180.581 21.342C180.581 21.6873 180.441 21.9487 180.161 22.126C179.881 22.3033 179.531 22.392 179.111 22.392C178.859 22.392 178.588 22.3827 178.299 22.364C178.019 22.336 177.744 22.294 177.473 22.238L177.711 21.944C177.795 22.2987 177.874 22.7047 177.949 23.162C178.033 23.61 178.108 24.0767 178.173 24.562C178.238 25.0473 178.29 25.5187 178.327 25.976C178.364 26.4333 178.383 26.844 178.383 27.208C178.383 27.8053 178.29 28.2767 178.103 28.622C177.916 28.9673 177.641 29.14 177.277 29.14C176.988 29.14 176.759 29.0513 176.591 28.874C176.432 28.6967 176.316 28.4727 176.241 28.202C176.176 27.922 176.134 27.6327 176.115 27.334C176.106 27.0353 176.101 26.7647 176.101 26.522C176.101 26.1113 176.12 25.6493 176.157 25.136C176.194 24.6133 176.246 24.0767 176.311 23.526C176.386 22.9753 176.47 22.4433 176.563 21.93L176.843 22.168C176.367 22.4107 175.779 22.532 175.079 22.532C174.65 22.532 174.318 22.4527 174.085 22.294C173.852 22.1353 173.735 21.888 173.735 21.552C173.735 21.188 173.866 20.908 174.127 20.712C174.388 20.5067 174.738 20.404 175.177 20.404C175.466 20.404 175.737 20.4227 175.989 20.46C176.25 20.488 176.479 20.5253 176.675 20.572ZM187.837 29.14C187.52 29.14 187.301 29.0187 187.179 28.776C187.067 28.524 187.002 28.1273 186.983 27.586L187.123 27.656C186.601 28.6733 185.611 29.182 184.155 29.182C183.493 29.182 182.942 29.0653 182.503 28.832C182.065 28.5893 181.738 28.272 181.523 27.88C181.318 27.4787 181.215 27.0447 181.215 26.578C181.215 25.7753 181.495 25.1407 182.055 24.674C182.615 24.198 183.357 23.96 184.281 23.96C184.888 23.96 185.415 24.0487 185.863 24.226C186.311 24.4033 186.694 24.6507 187.011 24.968L186.773 24.94C186.708 23.9973 186.503 23.3253 186.157 22.924C185.821 22.5133 185.341 22.308 184.715 22.308C184.351 22.308 184.015 22.364 183.707 22.476C183.399 22.588 183.115 22.7047 182.853 22.826C182.601 22.938 182.363 22.994 182.139 22.994C181.915 22.994 181.738 22.9193 181.607 22.77C181.486 22.6207 181.425 22.4293 181.425 22.196C181.425 21.86 181.584 21.5427 181.901 21.244C182.228 20.9453 182.657 20.7027 183.189 20.516C183.721 20.3293 184.3 20.236 184.925 20.236C185.681 20.236 186.33 20.418 186.871 20.782C187.413 21.146 187.823 21.678 188.103 22.378C188.346 22.9753 188.519 23.6427 188.621 24.38C188.724 25.1173 188.775 25.906 188.775 26.746C188.775 27.3807 188.743 27.8707 188.677 28.216C188.612 28.5613 188.509 28.804 188.369 28.944C188.239 29.0747 188.061 29.14 187.837 29.14ZM184.743 27.572C185.051 27.572 185.364 27.53 185.681 27.446C185.999 27.3527 186.265 27.2173 186.479 27.04C186.694 26.8627 186.801 26.6433 186.801 26.382C186.801 26.158 186.708 25.976 186.521 25.836C186.344 25.6867 186.106 25.5747 185.807 25.5C185.518 25.4253 185.205 25.388 184.869 25.388C184.3 25.388 183.866 25.486 183.567 25.682C183.278 25.878 183.133 26.1393 183.133 26.466C183.133 26.8207 183.269 27.096 183.539 27.292C183.819 27.4787 184.221 27.572 184.743 27.572ZM191.715 18.262C192.088 18.262 192.354 18.3647 192.513 18.57C192.681 18.7753 192.765 19.0133 192.765 19.284C192.765 19.62 192.662 19.8813 192.457 20.068C192.261 20.2453 191.981 20.334 191.617 20.334C191.262 20.334 190.996 20.236 190.819 20.04C190.642 19.8347 190.553 19.5967 190.553 19.326C190.553 18.9713 190.66 18.7053 190.875 18.528C191.09 18.3507 191.37 18.262 191.715 18.262ZM191.799 21.384C192.098 21.384 192.331 21.664 192.499 22.224C192.676 22.784 192.765 23.6753 192.765 24.898C192.765 26.4007 192.658 27.4833 192.443 28.146C192.228 28.8087 191.902 29.14 191.463 29.14C191.127 29.14 190.88 28.8973 190.721 28.412C190.562 27.9173 190.483 27.0587 190.483 25.836C190.483 24.3333 190.604 23.218 190.847 22.49C191.099 21.7527 191.416 21.384 191.799 21.384ZM196.617 18.626C197.746 18.626 198.6 18.92 199.179 19.508C199.767 20.0867 200.061 20.8427 200.061 21.776C200.061 22.3173 199.954 22.7933 199.739 23.204C199.534 23.6147 199.244 23.9833 198.871 24.31C198.507 24.6367 198.082 24.9447 197.597 25.234C197.224 25.458 196.883 25.6167 196.575 25.71C196.267 25.8033 195.982 25.85 195.721 25.85C195.516 25.85 195.343 25.7987 195.203 25.696C195.072 25.584 195.007 25.4393 195.007 25.262C195.007 25.038 195.11 24.8327 195.315 24.646C195.53 24.45 195.847 24.226 196.267 23.974C196.874 23.6193 197.35 23.2787 197.695 22.952C198.04 22.6253 198.213 22.2613 198.213 21.86C198.213 21.5427 198.12 21.3 197.933 21.132C197.756 20.9547 197.448 20.866 197.009 20.866C196.673 20.866 196.342 20.922 196.015 21.034C195.688 21.146 195.362 21.202 195.035 21.202C194.634 21.202 194.321 21.118 194.097 20.95C193.873 20.782 193.761 20.5393 193.761 20.222C193.761 19.886 193.887 19.6013 194.139 19.368C194.4 19.1253 194.746 18.9433 195.175 18.822C195.614 18.6913 196.094 18.626 196.617 18.626ZM194.881 28.146C194.881 27.8753 194.946 27.656 195.077 27.488C195.208 27.3107 195.371 27.18 195.567 27.096C195.772 27.012 195.987 26.97 196.211 26.97C196.584 26.97 196.869 27.0633 197.065 27.25C197.27 27.4367 197.373 27.6933 197.373 28.02C197.373 28.4213 197.247 28.7107 196.995 28.888C196.743 29.0653 196.435 29.154 196.071 29.154C195.688 29.154 195.394 29.0607 195.189 28.874C194.984 28.6873 194.881 28.4447 194.881 28.146Z"></path>
</svg>
