<svg version="1.1" xmlns="http://www.w3.org/2000/svg" xmlns:xlink="http://www.w3.org/1999/xlink" width="74.85876" height="18.27342" viewBox="0,0,74.85876,18.27342"><g transform="translate(-202.57062,-170.86329)"><g data-paper-data="{&quot;isPaintingLayer&quot;:true}" fill-rule="nonzero" stroke-width="1" stroke-linecap="butt" stroke-linejoin="miter" stroke-miterlimit="10" stroke-dasharray="" stroke-dashoffset="0" style="mix-blend-mode: normal"><path d="M208.72916,171.36329h62.54169c3.1253,0 5.65853,2.53341 5.65853,5.65853v5.95635c0,3.12512 -2.53324,5.65853 -5.65853,5.65853h-62.54169c-3.12512,0 -5.65853,-2.53341 -5.65853,-5.65853v-5.95635c0,-3.12512 2.53341,-5.65853 5.65853,-5.65853z" fill="#a5a7a9" stroke="#000000"/><path d="M215.22992,178.16247c0.12669,0 0.22277,0.04366 0.28829,0.13104c0.06552,0.08297 0.09828,0.22056 0.09828,0.41278c0,0.24022 -0.02841,0.51105 -0.08518,0.81245c-0.05676,0.30139 -0.13759,0.58747 -0.24242,0.85831l-0.10483,-0.13104c0.34946,-0.07428 0.71196,-0.10918 1.08763,-0.10483c0.37567,0.00435 0.71637,0.04807 1.02211,0.13104l-0.11794,0.05897c-0.05676,-0.29264 -0.10048,-0.58313 -0.13104,-0.87141c-0.02621,-0.28829 -0.03931,-0.54381 -0.03931,-0.76658c0,-0.20532 0.03056,-0.3516 0.09173,-0.43898c0.06117,-0.08738 0.15945,-0.13104 0.29484,-0.13104c0.1398,0 0.24898,0.05021 0.3276,0.1507c0.07862,0.09608 0.1398,0.24898 0.18346,0.45864c0.04807,0.21842 0.08518,0.48264 0.11138,0.79279c0.03056,0.30574 0.04586,0.62023 0.04586,0.94349c0,0.31884 -0.00876,0.6443 -0.02621,0.97625c-0.01745,0.33195 -0.05021,0.63989 -0.09828,0.92383c-0.03931,0.22712 -0.10263,0.39092 -0.19001,0.4914c-0.08738,0.10048 -0.20746,0.1507 -0.36036,0.1507c-0.15725,0 -0.27084,-0.05021 -0.3407,-0.1507c-0.06552,-0.10048 -0.09828,-0.28829 -0.09828,-0.56347c0,-0.26643 0.01966,-0.54381 0.05897,-0.8321c0.04366,-0.28829 0.10263,-0.57223 0.1769,-0.85176l0.13759,0.20311c-0.33195,0.06987 -0.6792,0.10483 -1.04177,0.10483c-0.35816,-0.00435 -0.70761,-0.03931 -1.04832,-0.10483l0.0131,-0.22277c0.08738,0.28394 0.16815,0.57657 0.24242,0.87797c0.07862,0.30139 0.11794,0.60278 0.11794,0.90417c0,0.24022 -0.04152,0.41057 -0.12449,0.51105c-0.08297,0.09608 -0.20091,0.14414 -0.35381,0.14414c-0.13104,0 -0.23587,-0.03711 -0.3145,-0.11138c-0.07862,-0.07428 -0.13539,-0.21187 -0.17035,-0.41278c-0.03496,-0.19656 -0.06332,-0.44119 -0.08518,-0.73382c-0.02186,-0.29704 -0.03276,-0.60933 -0.03276,-0.93693c0,-0.38877 0.01745,-0.76658 0.05242,-1.13349c0.03496,-0.36691 0.08083,-0.68141 0.13759,-0.94349c0.04366,-0.20532 0.10704,-0.35601 0.19001,-0.45209c0.08297,-0.09608 0.19221,-0.14414 0.3276,-0.14414zM221.75486,183.0437c-0.14849,0 -0.25112,-0.05676 -0.30794,-0.17035c-0.05242,-0.11794 -0.08297,-0.3036 -0.09173,-0.55692l0.06552,0.03276c-0.24457,0.47609 -0.70761,0.71417 -1.38902,0.71417c-0.31009,0 -0.56782,-0.05462 -0.77313,-0.1638c-0.20526,-0.11359 -0.35816,-0.26208 -0.45864,-0.44554c-0.09608,-0.1878 -0.14414,-0.39092 -0.14414,-0.60933c0,-0.37567 0.13104,-0.67265 0.39312,-0.89107c0.26208,-0.22277 0.60933,-0.33415 1.04177,-0.33415c0.28394,0 0.53071,0.04152 0.74037,0.12449c0.20966,0.08297 0.38877,0.19876 0.53726,0.34726l-0.11138,-0.0131c-0.03056,-0.44119 -0.12663,-0.75568 -0.28829,-0.94349c-0.15725,-0.19221 -0.38216,-0.28829 -0.67485,-0.28829c-0.17035,0 -0.3276,0.02621 -0.47174,0.07862c-0.14414,0.05242 -0.27733,0.10704 -0.39967,0.1638c-0.11794,0.05242 -0.22932,0.07862 -0.33415,0.07862c-0.10483,0 -0.1878,-0.03496 -0.24898,-0.10483c-0.05676,-0.06987 -0.08518,-0.15945 -0.08518,-0.26863c0,-0.15725 0.07428,-0.30574 0.22277,-0.44554c0.1529,-0.1398 0.35381,-0.25332 0.60278,-0.3407c0.24898,-0.08738 0.51981,-0.13104 0.81245,-0.13104c0.35381,0 0.6574,0.08518 0.91073,0.25553c0.25338,0.17035 0.44554,0.41933 0.57657,0.74693c0.11359,0.27953 0.19442,0.59188 0.24242,0.93693c0.04807,0.34505 0.07207,0.71417 0.07207,1.10729c0,0.29704 -0.01525,0.52636 -0.04586,0.68796c-0.03056,0.1616 -0.07862,0.27518 -0.14414,0.3407c-0.06111,0.06117 -0.14414,0.09173 -0.24898,0.09173zM220.30687,182.30987c0.14414,0 0.29049,-0.01966 0.43898,-0.05897c0.14855,-0.04366 0.27304,-0.10704 0.37346,-0.19001c0.10048,-0.08297 0.1507,-0.18566 0.1507,-0.30794c0,-0.10483 -0.04366,-0.19001 -0.13104,-0.25553c-0.08297,-0.06987 -0.19436,-0.12228 -0.33415,-0.15725c-0.13539,-0.03496 -0.28174,-0.05242 -0.43898,-0.05242c-0.26643,0 -0.46954,0.04586 -0.60933,0.13759c-0.13539,0.09173 -0.20311,0.21401 -0.20311,0.36691c0,0.166 0.06338,0.29484 0.19001,0.38657c0.13104,0.08738 0.3189,0.13104 0.56347,0.13104zM223.4386,178.91594c0.11794,0 0.21622,0.06987 0.29484,0.20966c0.07862,0.13539 0.13318,0.3516 0.1638,0.64865l-0.13759,0.12449c0.07862,-0.30574 0.22491,-0.53947 0.43898,-0.70106c0.21401,-0.1616 0.46734,-0.24242 0.76003,-0.24242c0.27078,0 0.51105,0.06987 0.72072,0.20966c0.20966,0.1398 0.37346,0.3516 0.4914,0.63554c0.12228,0.27953 0.18346,0.63119 0.18346,1.05487c0,0.68575 -0.12449,1.19246 -0.37346,1.52006c-0.24463,0.32325 -0.57878,0.48485 -1.00245,0.48485c-0.3058,0 -0.54602,-0.06552 -0.72072,-0.19656c-0.17476,-0.13104 -0.29704,-0.29049 -0.36691,-0.4783l0.07862,-0.03931c0.0349,0.26208 0.06332,0.52196 0.08518,0.77969c0.02621,0.25332 0.03931,0.47609 0.03931,0.6683c0,0.19656 -0.03496,0.36256 -0.10483,0.49795c-0.06993,0.13539 -0.18131,0.20311 -0.33415,0.20311c-0.14855,0 -0.25994,-0.05676 -0.33415,-0.17035c-0.07428,-0.11359 -0.1289,-0.26428 -0.1638,-0.45209c-0.02621,-0.19221 -0.05242,-0.43898 -0.07862,-0.74037c-0.02621,-0.30139 -0.04807,-0.62679 -0.06552,-0.97625c-0.0131,-0.34946 -0.01966,-0.69016 -0.01966,-1.02211c0,-0.3407 0.0109,-0.65955 0.03276,-0.95659c0.02621,-0.30139 0.05676,-0.54602 0.09173,-0.73382c0.03056,-0.10918 0.06987,-0.19001 0.11794,-0.24242c0.05242,-0.05676 0.12008,-0.08518 0.20311,-0.08518zM224.69003,179.70873c-0.23587,0 -0.42588,0.11794 -0.57002,0.35381c-0.1398,0.23152 -0.20966,0.52851 -0.20966,0.89107c0,0.37126 0.06987,0.64865 0.20966,0.8321c0.14414,0.18346 0.32974,0.27518 0.55692,0.27518c0.26208,0 0.44988,-0.10263 0.56347,-0.30794c0.11794,-0.20966 0.1769,-0.4805 0.1769,-0.81245c0,-0.42368 -0.07207,-0.73382 -0.21622,-0.93038c-0.14414,-0.20091 -0.3145,-0.30139 -0.51105,-0.30139zM229.96605,182.93886c-0.11794,0 -0.20966,-0.03931 -0.27518,-0.11794c-0.06117,-0.08297 -0.10263,-0.1878 -0.12449,-0.3145c-0.02186,-0.13104 -0.03276,-0.26863 -0.03276,-0.41278l0.03276,-0.02621c-0.04366,0.1878 -0.12884,0.34946 -0.25553,0.48485c-0.12669,0.13539 -0.27298,0.24022 -0.43898,0.3145c-0.166,0.06987 -0.33195,0.10483 -0.49795,0.10483c-0.22277,0 -0.42588,-0.05242 -0.60933,-0.15725c-0.18346,-0.10483 -0.3254,-0.26643 -0.42588,-0.48485c-0.10048,-0.23152 -0.17911,-0.52196 -0.23587,-0.87141c-0.05676,-0.35381 -0.08518,-0.71637 -0.08518,-1.08763c0,-0.20091 0.00876,-0.38657 0.02621,-0.55692c0.01745,-0.17035 0.04586,-0.31015 0.08518,-0.41933c0.03496,-0.11359 0.08738,-0.19656 0.15725,-0.24898c0.06987,-0.05676 0.15945,-0.08518 0.26863,-0.08518c0.12669,0 0.22497,0.05021 0.29484,0.1507c0.07428,0.09608 0.12014,0.23152 0.13759,0.40622c0.01745,0.14414 0.02841,0.32325 0.03276,0.53726c0.00876,0.20966 0.01531,0.42153 0.01966,0.63554c0.00876,0.20966 0.01966,0.38657 0.03276,0.53071c0.02621,0.26208 0.09393,0.45644 0.20311,0.58313c0.10918,0.12228 0.24242,0.18346 0.39967,0.18346c0.23152,0 0.40843,-0.08738 0.53071,-0.26208c0.12228,-0.1747 0.18346,-0.41933 0.18346,-0.73382c0,-0.15725 -0.00876,-0.33415 -0.02621,-0.53071c-0.01745,-0.20091 -0.03711,-0.39532 -0.05897,-0.58313c-0.01745,-0.1878 -0.02621,-0.34291 -0.02621,-0.46519c0,-0.20532 0.03496,-0.3516 0.10483,-0.43898c0.06987,-0.09173 0.166,-0.13759 0.28829,-0.13759c0.10483,0 0.19221,0.02841 0.26208,0.08518c0.07428,0.05676 0.13324,0.13539 0.1769,0.23587c0.06117,0.13104 0.11359,0.31015 0.15725,0.53726c0.04366,0.22712 0.07862,0.48485 0.10483,0.77313c0.02621,0.28829 0.03931,0.59188 0.03931,0.91073c0,0.4892 -0.03276,0.85611 -0.09828,1.10073c-0.06552,0.24022 -0.18125,0.36036 -0.34726,0.36036zM232.86626,178.87663c0.38877,0 0.6683,0.05676 0.83865,0.17035c0.17035,0.11359 0.25553,0.25988 0.25553,0.43898c0,0.10483 -0.03711,0.19221 -0.11138,0.26208c-0.06987,0.06552 -0.17035,0.09828 -0.30139,0.09828c-0.13539,0 -0.27733,-0.01966 -0.42588,-0.05897c-0.14414,-0.03931 -0.31229,-0.05897 -0.5045,-0.05897c-0.22277,0 -0.38871,0.04366 -0.49795,0.13104c-0.10918,0.08738 -0.1638,0.19876 -0.1638,0.33415c0,0.12669 0.04807,0.22712 0.14414,0.30139c0.10048,0.06987 0.29049,0.12228 0.57002,0.15725c0.31015,0.03496 0.56567,0.09173 0.76658,0.17035c0.20532,0.07428 0.35821,0.1878 0.45864,0.3407c0.10048,0.14849 0.1507,0.35381 0.1507,0.61589c0,0.41498 -0.14629,0.72292 -0.43898,0.92383c-0.29264,0.20091 -0.69665,0.30139 -1.21212,0.30139c-0.3276,0 -0.58747,-0.02621 -0.77969,-0.07862c-0.19215,-0.05242 -0.33195,-0.12669 -0.41933,-0.22277c-0.08297,-0.09608 -0.12449,-0.20966 -0.12449,-0.3407c0,-0.11359 0.03717,-0.20091 0.11138,-0.26208c0.07862,-0.06552 0.17035,-0.09828 0.27518,-0.09828c0.10048,0 0.20752,0.0131 0.32105,0.03931c0.11359,0.02186 0.23373,0.04586 0.36036,0.07207c0.12669,0.02621 0.25773,0.03931 0.39312,0.03931c0.43684,0 0.6552,-0.13539 0.6552,-0.40622c0,-0.09173 -0.0218,-0.166 -0.06552,-0.22277c-0.04366,-0.05676 -0.12228,-0.10263 -0.23587,-0.13759c-0.11353,-0.03931 -0.27953,-0.06987 -0.49795,-0.09173c-0.26208,-0.02621 -0.4892,-0.06987 -0.68141,-0.13104c-0.19215,-0.06552 -0.3407,-0.17035 -0.44554,-0.3145c-0.10483,-0.14849 -0.15725,-0.3516 -0.15725,-0.60933c0,-0.40622 0.1529,-0.73382 0.45864,-0.9828c0.3058,-0.25332 0.74037,-0.38002 1.30385,-0.38002zM237.88758,179.0863c-0.20532,0.06117 -0.39532,0.10918 -0.57002,0.14414c-0.17476,0.03056 -0.33856,0.04586 -0.4914,0.04586c-0.1398,0 -0.24898,-0.02841 -0.3276,-0.08518c-0.07862,-0.05676 -0.11794,-0.14194 -0.11794,-0.25553c0,-0.09608 0.03276,-0.1878 0.09828,-0.27518c0.06552,-0.08738 0.16594,-0.166 0.30139,-0.23587c0.1616,-0.07862 0.36691,-0.14414 0.61589,-0.19656c0.24898,-0.05242 0.53941,-0.07862 0.87141,-0.07862c0.22277,0 0.41712,0.01531 0.58313,0.04586c0.16594,0.02621 0.29698,0.05897 0.39312,0.09828c0.12663,0.05242 0.21401,0.11359 0.26208,0.18346c0.05242,0.06552 0.07862,0.14194 0.07862,0.22932c0,0.10918 -0.03931,0.19876 -0.11794,0.26863c-0.07862,0.06987 -0.20532,0.10483 -0.38002,0.10483c-0.10483,0 -0.21407,-0.00655 -0.3276,-0.01966c-0.10924,-0.0131 -0.22497,-0.03056 -0.34726,-0.05242zM238.33967,178.73249c0.22277,0.27953 0.39526,0.60499 0.51761,0.97625c0.12663,0.36691 0.19001,0.75127 0.19001,1.15315c0,0.41933 -0.05897,0.79499 -0.1769,1.12694c-0.11359,0.3276 -0.29704,0.58747 -0.55037,0.77969c-0.25338,0.1878 -0.58968,0.28174 -1.00901,0.28174c-0.51546,0 -0.90203,-0.14414 -1.1597,-0.43243c-0.25773,-0.28829 -0.38657,-0.68361 -0.38657,-1.18591c0,-0.24463 0.03056,-0.45209 0.09173,-0.62244c0.06552,-0.17035 0.1507,-0.29919 0.25553,-0.38657c0.10483,-0.09173 0.21836,-0.13759 0.3407,-0.13759c0.11353,0 0.1987,0.03496 0.25553,0.10483c0.06111,0.06552 0.09173,0.15945 0.09173,0.28174c0,0.10048 -0.01751,0.21187 -0.05242,0.33415c-0.03062,0.11794 -0.04586,0.23367 -0.04586,0.34726c0,0.29264 0.05021,0.50671 0.1507,0.64209c0.10483,0.13104 0.27078,0.19656 0.49795,0.19656c0.30139,0 0.5132,-0.12228 0.63554,-0.36691c0.12663,-0.24898 0.19001,-0.58747 0.19001,-1.01556c0,-0.31015 -0.03276,-0.61368 -0.09828,-0.91073c-0.06552,-0.29704 -0.17035,-0.60058 -0.3145,-0.91073zM242.99122,183.0437c-0.14849,0 -0.25112,-0.05676 -0.30794,-0.17035c-0.05242,-0.11794 -0.08297,-0.3036 -0.09173,-0.55692l0.06552,0.03276c-0.24457,0.47609 -0.70761,0.71417 -1.38902,0.71417c-0.31009,0 -0.56782,-0.05462 -0.77313,-0.1638c-0.20526,-0.11359 -0.35816,-0.26208 -0.45864,-0.44554c-0.09608,-0.1878 -0.14414,-0.39092 -0.14414,-0.60933c0,-0.37567 0.13104,-0.67265 0.39312,-0.89107c0.26208,-0.22277 0.60933,-0.33415 1.04177,-0.33415c0.28394,0 0.53071,0.04152 0.74037,0.12449c0.20966,0.08297 0.38877,0.19876 0.53726,0.34726l-0.11138,-0.0131c-0.03056,-0.44119 -0.12663,-0.75568 -0.28829,-0.94349c-0.15725,-0.19221 -0.38216,-0.28829 -0.67485,-0.28829c-0.17035,0 -0.3276,0.02621 -0.47174,0.07862c-0.14414,0.05242 -0.27733,0.10704 -0.39967,0.1638c-0.11794,0.05242 -0.22932,0.07862 -0.33415,0.07862c-0.10483,0 -0.1878,-0.03496 -0.24898,-0.10483c-0.05676,-0.06987 -0.08518,-0.15945 -0.08518,-0.26863c0,-0.15725 0.07428,-0.30574 0.22277,-0.44554c0.1529,-0.1398 0.35381,-0.25332 0.60278,-0.3407c0.24898,-0.08738 0.51981,-0.13104 0.81245,-0.13104c0.35381,0 0.6574,0.08518 0.91073,0.25553c0.25338,0.17035 0.44554,0.41933 0.57657,0.74693c0.11359,0.27953 0.19442,0.59188 0.24242,0.93693c0.04807,0.34505 0.07207,0.71417 0.07207,1.10729c0,0.29704 -0.01525,0.52636 -0.04586,0.68796c-0.03056,0.1616 -0.07862,0.27518 -0.14414,0.3407c-0.06111,0.06117 -0.14414,0.09173 -0.24898,0.09173zM241.54323,182.30987c0.14414,0 0.29049,-0.01966 0.43898,-0.05897c0.14855,-0.04366 0.27304,-0.10704 0.37346,-0.19001c0.10048,-0.08297 0.1507,-0.18566 0.1507,-0.30794c0,-0.10483 -0.04366,-0.19001 -0.13104,-0.25553c-0.08297,-0.06987 -0.19436,-0.12228 -0.33415,-0.15725c-0.13539,-0.03496 -0.28174,-0.05242 -0.43898,-0.05242c-0.26643,0 -0.46954,0.04586 -0.60933,0.13759c-0.13539,0.09173 -0.20311,0.21401 -0.20311,0.36691c0,0.166 0.06338,0.29484 0.19001,0.38657c0.13104,0.08738 0.3189,0.13104 0.56347,0.13104zM243.99355,180.31807c0,-0.45429 0.05242,-0.78189 0.15725,-0.9828c0.10918,-0.20091 0.25118,-0.30139 0.42588,-0.30139c0.10048,0 0.1769,0.03711 0.22932,0.11138c0.05676,0.06987 0.09608,0.166 0.11794,0.28829c0.02186,0.11794 0.03276,0.25118 0.03276,0.39967c0,0.1878 0,0.40843 0,0.66175c0.00435,0.24898 0.00876,0.50671 0.0131,0.77313c0.00876,0.26208 0.01745,0.50671 0.02621,0.73382h0.02621c0.13539,-0.57223 0.27084,-1.04177 0.40622,-1.40868c0.1398,-0.36691 0.28174,-0.63775 0.42588,-0.81245c0.14849,-0.17911 0.29704,-0.26863 0.44554,-0.26863c0.1616,0 0.3145,0.08952 0.45864,0.26863c0.14849,0.1747 0.29264,0.44119 0.43243,0.79934c0.14414,0.35816 0.29049,0.81024 0.43898,1.35626h0.02621c0.0131,-0.37567 0.02186,-0.77093 0.02621,-1.18591c0.00435,-0.41498 0.00655,-0.79499 0.00655,-1.14005c0,-0.24898 0.04152,-0.43243 0.12449,-0.55037c0.08297,-0.11794 0.19876,-0.1769 0.34726,-0.1769c0.1878,0 0.32325,0.09828 0.40622,0.29484c0.08738,0.19221 0.13104,0.45209 0.13104,0.77969c0,0.24022 -0.0131,0.49795 -0.03931,0.77313c-0.02186,0.27084 -0.05462,0.53291 -0.09828,0.78624c-0.04366,0.25332 -0.09608,0.47395 -0.15725,0.66175c-0.09173,0.27953 -0.19436,0.4914 -0.30794,0.63554c-0.10918,0.14414 -0.25332,0.21622 -0.43243,0.21622c-0.1616,0 -0.32325,-0.09393 -0.48485,-0.28174c-0.15725,-0.19221 -0.30574,-0.4783 -0.44554,-0.85831c-0.1398,-0.38002 -0.26863,-0.85396 -0.38657,-1.42178h-0.02621c-0.11359,0.54161 -0.24898,0.9959 -0.40622,1.36281c-0.1529,0.36256 -0.3167,0.63554 -0.4914,0.819c-0.17035,0.18346 -0.3407,0.27518 -0.51105,0.27518c-0.17911,0 -0.3298,-0.08083 -0.45209,-0.24242c-0.11794,-0.1616 -0.21622,-0.41057 -0.29484,-0.74693c-0.03496,-0.17035 -0.06552,-0.3516 -0.09173,-0.54381c-0.02621,-0.19656 -0.04586,-0.38877 -0.05897,-0.57657c-0.0131,-0.1878 -0.01966,-0.35381 -0.01966,-0.49795zM252.12177,183.0437c-0.14849,0 -0.25112,-0.05676 -0.30794,-0.17035c-0.05242,-0.11794 -0.08297,-0.3036 -0.09173,-0.55692l0.06552,0.03276c-0.24457,0.47609 -0.70761,0.71417 -1.38902,0.71417c-0.31009,0 -0.56782,-0.05462 -0.77313,-0.1638c-0.20526,-0.11359 -0.35816,-0.26208 -0.45864,-0.44554c-0.09608,-0.1878 -0.14414,-0.39092 -0.14414,-0.60933c0,-0.37567 0.13104,-0.67265 0.39312,-0.89107c0.26208,-0.22277 0.60933,-0.33415 1.04177,-0.33415c0.28394,0 0.53071,0.04152 0.74037,0.12449c0.20966,0.08297 0.38877,0.19876 0.53726,0.34726l-0.11138,-0.0131c-0.03056,-0.44119 -0.12663,-0.75568 -0.28829,-0.94349c-0.15725,-0.19221 -0.38216,-0.28829 -0.67485,-0.28829c-0.17035,0 -0.3276,0.02621 -0.47174,0.07862c-0.14414,0.05242 -0.27733,0.10704 -0.39967,0.1638c-0.11794,0.05242 -0.22932,0.07862 -0.33415,0.07862c-0.10483,0 -0.1878,-0.03496 -0.24898,-0.10483c-0.05676,-0.06987 -0.08518,-0.15945 -0.08518,-0.26863c0,-0.15725 0.07428,-0.30574 0.22277,-0.44554c0.1529,-0.1398 0.35381,-0.25332 0.60278,-0.3407c0.24898,-0.08738 0.51981,-0.13104 0.81245,-0.13104c0.35381,0 0.6574,0.08518 0.91073,0.25553c0.25338,0.17035 0.44554,0.41933 0.57657,0.74693c0.11359,0.27953 0.19442,0.59188 0.24242,0.93693c0.04807,0.34505 0.07207,0.71417 0.07207,1.10729c0,0.29704 -0.01525,0.52636 -0.04586,0.68796c-0.03056,0.1616 -0.07862,0.27518 -0.14414,0.3407c-0.06111,0.06117 -0.14414,0.09173 -0.24898,0.09173zM250.67378,182.30987c0.14414,0 0.29049,-0.01966 0.43898,-0.05897c0.14855,-0.04366 0.27304,-0.10704 0.37346,-0.19001c0.10048,-0.08297 0.1507,-0.18566 0.1507,-0.30794c0,-0.10483 -0.04366,-0.19001 -0.13104,-0.25553c-0.08297,-0.06987 -0.19436,-0.12228 -0.33415,-0.15725c-0.13539,-0.03496 -0.28174,-0.05242 -0.43898,-0.05242c-0.26643,0 -0.46954,0.04586 -0.60933,0.13759c-0.13539,0.09173 -0.20311,0.21401 -0.20311,0.36691c0,0.166 0.06338,0.29484 0.19001,0.38657c0.13104,0.08738 0.3189,0.13104 0.56347,0.13104zM253.85793,183.0437c-0.09608,0 -0.1747,-0.03276 -0.23587,-0.09828c-0.05676,-0.06552 -0.10263,-0.15945 -0.13759,-0.28174c-0.03496,-0.17911 -0.06552,-0.41278 -0.09173,-0.70106c-0.02186,-0.29264 -0.03276,-0.60499 -0.03276,-0.93693c0,-0.1878 0.00435,-0.39967 0.0131,-0.63554c0.00876,-0.23587 0.01966,-0.47395 0.03276,-0.71417c0.01745,-0.24463 0.03496,-0.47174 0.05242,-0.68141c0.02186,-0.20966 0.04366,-0.38002 0.06552,-0.51105c0.03496,-0.19221 0.08518,-0.34291 0.1507,-0.45209c0.06987,-0.11359 0.17911,-0.17035 0.3276,-0.17035c0.1529,0 0.26428,0.05897 0.33415,0.1769c0.06987,0.11359 0.10483,0.25553 0.10483,0.42588c0,0.19221 -0.01531,0.41933 -0.04586,0.68141c-0.02621,0.26208 -0.06772,0.52851 -0.12449,0.79934l-0.13104,0.15725c0.04807,-0.18346 0.12669,-0.3516 0.23587,-0.5045c0.10918,-0.1529 0.24677,-0.27298 0.41278,-0.36036c0.166,-0.09173 0.35816,-0.13759 0.57657,-0.13759c0.42808,0 0.76879,0.1529 1.02211,0.45864c0.25773,0.30139 0.38657,0.77313 0.38657,1.41523c0,0.44988 -0.06772,0.82555 -0.20311,1.12694c-0.13104,0.30139 -0.31229,0.52851 -0.54381,0.68141c-0.22712,0.14849 -0.48705,0.22277 -0.77969,0.22277c-0.27518,0 -0.51326,-0.08083 -0.71417,-0.24242c-0.19656,-0.1616 -0.32325,-0.39532 -0.38002,-0.70106l0.09173,0.07207c-0.01745,0.3145 -0.06117,0.54602 -0.13104,0.69451c-0.06552,0.14414 -0.1507,0.21622 -0.25553,0.21622zM255.05694,182.24435c0.21842,0 0.41057,-0.09828 0.57657,-0.29484c0.166,-0.19656 0.24898,-0.5045 0.24898,-0.92383c0,-0.34946 -0.06552,-0.63334 -0.19656,-0.85176c-0.12669,-0.21842 -0.3407,-0.3276 -0.64209,-0.3276c-0.24463,0 -0.44119,0.09828 -0.58968,0.29484c-0.14849,0.19221 -0.22277,0.48485 -0.22277,0.87797c0,0.35816 0.07428,0.65299 0.22277,0.88452c0.14849,0.22712 0.34946,0.3407 0.60278,0.3407zM260.29901,183.0437c-0.14855,0 -0.25118,-0.05676 -0.30794,-0.17035c-0.05242,-0.11794 -0.08303,-0.3036 -0.09173,-0.55692l0.06552,0.03276c-0.24463,0.47609 -0.70761,0.71417 -1.38902,0.71417c-0.31015,0 -0.56788,-0.05462 -0.77313,-0.1638c-0.20532,-0.11359 -0.35821,-0.26208 -0.45864,-0.44554c-0.09614,-0.1878 -0.14414,-0.39092 -0.14414,-0.60933c0,-0.37567 0.13104,-0.67265 0.39312,-0.89107c0.26208,-0.22277 0.60933,-0.33415 1.04177,-0.33415c0.28388,0 0.53071,0.04152 0.74037,0.12449c0.20966,0.08297 0.38871,0.19876 0.53726,0.34726l-0.11138,-0.0131c-0.03062,-0.44119 -0.12669,-0.75568 -0.28829,-0.94349c-0.15725,-0.19221 -0.38222,-0.28829 -0.67485,-0.28829c-0.17035,0 -0.3276,0.02621 -0.47174,0.07862c-0.14414,0.05242 -0.27739,0.10704 -0.39967,0.1638c-0.11794,0.05242 -0.22932,0.07862 -0.33415,0.07862c-0.10483,0 -0.18786,-0.03496 -0.24898,-0.10483c-0.05682,-0.06987 -0.08518,-0.15945 -0.08518,-0.26863c0,-0.15725 0.07422,-0.30574 0.22277,-0.44554c0.15284,-0.1398 0.35381,-0.25332 0.60278,-0.3407c0.24898,-0.08738 0.51975,-0.13104 0.81245,-0.13104c0.35381,0 0.65734,0.08518 0.91073,0.25553c0.25332,0.17035 0.44554,0.41933 0.57657,0.74693c0.11353,0.27953 0.19436,0.59188 0.24242,0.93693c0.04801,0.34505 0.07207,0.71417 0.07207,1.10729c0,0.29704 -0.01531,0.52636 -0.04586,0.68796c-0.03062,0.1616 -0.07862,0.27518 -0.14414,0.3407c-0.06117,0.06117 -0.14414,0.09173 -0.24898,0.09173zM258.85102,182.30987c0.14414,0 0.29043,-0.01966 0.43898,-0.05897c0.14849,-0.04366 0.27298,-0.10704 0.37346,-0.19001c0.10042,-0.08297 0.1507,-0.18566 0.1507,-0.30794c0,-0.10483 -0.04372,-0.19001 -0.13104,-0.25553c-0.08303,-0.06987 -0.19442,-0.12228 -0.33415,-0.15725c-0.13545,-0.03496 -0.28174,-0.05242 -0.43898,-0.05242c-0.26649,0 -0.4696,0.04586 -0.60933,0.13759c-0.13545,0.09173 -0.20311,0.21401 -0.20311,0.36691c0,0.166 0.06332,0.29484 0.19001,0.38657c0.13104,0.08738 0.31884,0.13104 0.56347,0.13104zM262.20546,178.90284c0.1398,0 0.23391,0.05676 0.28156,0.17035c0.05242,0.11359 0.07862,0.28174 0.07862,0.5045c0,0.05242 -0.00417,0.10918 -0.0131,0.17035c-0.00417,0.05676 -0.0131,0.10918 -0.02621,0.15725l-0.0131,-0.13104c0.10483,-0.28394 0.26684,-0.5045 0.48485,-0.66175c0.2186,-0.1616 0.4503,-0.24242 0.69451,-0.24242c0.27101,0 0.49616,0.07642 0.67485,0.22932c0.18346,0.1529 0.31926,0.36691 0.40622,0.64209c0.09173,0.27518 0.13759,0.60058 0.13759,0.97625c0,0.23152 -0.01072,0.46084 -0.03276,0.68796c-0.01727,0.22277 -0.04348,0.42808 -0.07862,0.61589c-0.03038,0.18346 -0.06552,0.33415 -0.10483,0.45209c-0.05242,0.14849 -0.11972,0.25988 -0.20311,0.33415c-0.08279,0.06987 -0.18107,0.10483 -0.29484,0.10483c-0.11317,0 -0.20073,-0.04152 -0.26208,-0.12449c-0.06075,-0.08297 -0.09173,-0.19436 -0.09173,-0.33415c0,-0.14849 0.01132,-0.3276 0.03276,-0.53726c0.02204,-0.21401 0.04169,-0.43023 0.05897,-0.64865c0.02204,-0.22277 0.03276,-0.42368 0.03276,-0.60278c0,-0.61154 -0.20073,-0.91728 -0.60278,-0.91728c-0.21383,0 -0.39312,0.09608 -0.53726,0.28829c-0.14414,0.1878 -0.24004,0.45644 -0.28829,0.80589c-0.0131,0.11794 -0.01966,0.26428 -0.01966,0.43898c0,0.1747 0,0.34946 0,0.52416c0.00477,0.17035 0,0.3145 -0.0131,0.43243c-0.01727,0.26208 -0.06731,0.44988 -0.1507,0.56347c-0.07845,0.11359 -0.18763,0.17035 -0.32742,0.17035c-0.1616,0 -0.28394,-0.07428 -0.36691,-0.22277c-0.08297,-0.1529 -0.12449,-0.40843 -0.12449,-0.76658c0,-0.18346 0.00435,-0.38877 0.0131,-0.61589c0.00876,-0.22712 0.01966,-0.45429 0.03276,-0.68141c0.01745,-0.23152 0.03711,-0.44119 0.05897,-0.62899c0.04366,-0.35381 0.10704,-0.63334 0.19001,-0.83865c0.08297,-0.20966 0.20746,-0.3145 0.37346,-0.3145z" fill="#000000" stroke="none"/></g></g></svg>