<svg width="280" height="10" viewBox="0 0 280 10" fill="none" xmlns="http://www.w3.org/2000/svg">
<path d="M1.188 8.09C1.08 8.09 0.993 8.054 0.927 7.982C0.861 7.904 0.807 7.781 0.765 7.613C0.723 7.421 0.684 7.121 0.648 6.713C0.612 6.299 0.594 5.837 0.594 5.327C0.594 4.775 0.609 4.238 0.639 3.716C0.675 3.188 0.726 2.723 0.792 2.321C0.84 2.057 0.909 1.862 0.999 1.736C1.095 1.604 1.227 1.538 1.395 1.538C1.503 1.538 1.599 1.574 1.683 1.646C1.767 1.718 1.83 1.847 1.872 2.033C1.92 2.219 1.944 2.483 1.944 2.825C1.944 2.993 1.938 3.185 1.926 3.401C1.914 3.611 1.896 3.845 1.872 4.103H1.908C2.388 3.443 2.811 2.918 3.177 2.528C3.543 2.132 3.864 1.847 4.14 1.673C4.422 1.499 4.668 1.412 4.878 1.412C5.046 1.412 5.172 1.466 5.256 1.574C5.346 1.682 5.391 1.814 5.391 1.97C5.391 2.3 5.142 2.696 4.644 3.158C4.152 3.62 3.357 4.175 2.259 4.823L2.331 4.652C3.279 5.252 3.996 5.783 4.482 6.245C4.968 6.701 5.211 7.106 5.211 7.46C5.211 7.616 5.16 7.745 5.058 7.847C4.962 7.943 4.818 7.991 4.626 7.991C4.386 7.991 4.131 7.91 3.861 7.748C3.591 7.58 3.291 7.301 2.961 6.911C2.637 6.515 2.268 5.978 1.854 5.3H1.818C1.83 5.438 1.839 5.582 1.845 5.732C1.851 5.876 1.854 6.02 1.854 6.164C1.854 6.854 1.806 7.349 1.71 7.649C1.614 7.943 1.44 8.09 1.188 8.09ZM8.67642 8.072C8.01042 8.072 7.47942 7.973 7.08342 7.775C6.68742 7.577 6.40242 7.292 6.22842 6.92C6.05442 6.548 5.96742 6.104 5.96742 5.588C5.96742 4.934 6.08742 4.379 6.32742 3.923C6.57342 3.461 6.90942 3.107 7.33542 2.861C7.76742 2.615 8.25642 2.492 8.80242 2.492C9.44442 2.492 9.91542 2.642 10.2154 2.942C10.5154 3.236 10.6654 3.623 10.6654 4.103C10.6654 4.487 10.5634 4.82 10.3594 5.102C10.1614 5.378 9.88542 5.591 9.53142 5.741C9.17742 5.891 8.76942 5.966 8.30742 5.966C8.04942 5.966 7.80042 5.933 7.56042 5.867C7.32042 5.801 7.10442 5.711 6.91242 5.597L7.12842 5.201C7.11042 5.345 7.10142 5.489 7.10142 5.633C7.10142 6.053 7.23342 6.356 7.49742 6.542C7.76142 6.722 8.13642 6.812 8.62242 6.812C9.00042 6.812 9.30342 6.779 9.53142 6.713C9.75942 6.647 9.95142 6.584 10.1074 6.524C10.2634 6.458 10.4164 6.425 10.5664 6.425C10.6504 6.425 10.7254 6.449 10.7914 6.497C10.8634 6.539 10.9204 6.602 10.9624 6.686C11.0104 6.77 11.0344 6.872 11.0344 6.992C11.0344 7.172 10.9444 7.346 10.7644 7.514C10.5844 7.676 10.3174 7.811 9.96342 7.919C9.61542 8.021 9.18642 8.072 8.67642 8.072ZM8.15442 5.129C8.58042 5.129 8.92242 5.039 9.18042 4.859C9.43842 4.679 9.56742 4.457 9.56742 4.193C9.56742 3.983 9.49542 3.812 9.35142 3.68C9.21342 3.542 8.99442 3.473 8.69442 3.473C8.41242 3.473 8.15742 3.527 7.92942 3.635C7.70742 3.737 7.53342 3.872 7.40742 4.04C7.28142 4.208 7.21842 4.391 7.21842 4.589C7.21842 4.763 7.29942 4.898 7.46142 4.994C7.62942 5.084 7.86042 5.129 8.15442 5.129ZM12.7974 8.018C12.6114 8.018 12.4644 7.976 12.3564 7.892C12.2484 7.802 12.1614 7.655 12.0954 7.451C12.0054 7.151 11.9364 6.773 11.8884 6.317C11.8464 5.855 11.8254 5.288 11.8254 4.616C11.8254 4.202 11.8404 3.788 11.8704 3.374C11.9064 2.954 11.9514 2.573 12.0054 2.231C12.0594 1.883 12.1164 1.613 12.1764 1.421C12.2424 1.217 12.3204 1.076 12.4104 0.997999C12.5004 0.92 12.6024 0.881 12.7164 0.881C12.8364 0.881 12.9324 0.923 13.0044 1.007C13.0764 1.085 13.1334 1.226 13.1754 1.43C13.2114 1.628 13.2384 1.871 13.2564 2.159C13.2804 2.447 13.2924 2.756 13.2924 3.086C13.2924 3.536 13.2714 4.01 13.2294 4.508C13.1874 5.006 13.1304 5.495 13.0584 5.975C12.9924 6.455 12.9114 6.896 12.8154 7.298L12.5634 7.172C12.7194 6.98 12.8964 6.83 13.0944 6.722C13.2984 6.614 13.4844 6.56 13.6524 6.56C13.7904 6.56 13.8954 6.599 13.9674 6.677C14.0454 6.749 14.0844 6.863 14.0844 7.019C14.0844 7.175 14.0154 7.331 13.8774 7.487C13.7454 7.643 13.5804 7.772 13.3824 7.874C13.1844 7.97 12.9894 8.018 12.7974 8.018ZM17.0885 8.027C16.6085 8.027 16.1885 7.922 15.8285 7.712C15.4745 7.496 15.1985 7.19 15.0005 6.794C14.8085 6.398 14.7125 5.927 14.7125 5.381C14.7125 4.811 14.8115 4.313 15.0095 3.887C15.2075 3.461 15.4865 3.128 15.8465 2.888C16.2125 2.648 16.6355 2.528 17.1155 2.528C17.6315 2.528 18.0785 2.645 18.4565 2.879C18.8345 3.107 19.1285 3.428 19.3385 3.842C19.5485 4.256 19.6535 4.739 19.6535 5.291C19.6535 5.855 19.5485 6.341 19.3385 6.749C19.1285 7.157 18.8315 7.472 18.4475 7.694C18.0635 7.916 17.6105 8.027 17.0885 8.027ZM17.2145 6.812C17.5865 6.812 17.8805 6.665 18.0965 6.371C18.3185 6.071 18.4295 5.675 18.4295 5.183C18.4295 4.685 18.3185 4.289 18.0965 3.995C17.8805 3.701 17.5865 3.554 17.2145 3.554C16.8305 3.554 16.5275 3.701 16.3055 3.995C16.0835 4.289 15.9725 4.685 15.9725 5.183C15.9725 5.675 16.0835 6.071 16.3055 6.371C16.5275 6.665 16.8305 6.812 17.2145 6.812ZM24.4407 3.878C24.5007 3.632 24.6057 3.41 24.7557 3.212C24.9117 3.014 25.0977 2.858 25.3137 2.744C25.5357 2.624 25.7787 2.564 26.0427 2.564C26.3547 2.564 26.6307 2.639 26.8707 2.789C27.1107 2.939 27.2997 3.185 27.4377 3.527C27.5817 3.869 27.6537 4.325 27.6537 4.895C27.6537 5.189 27.6417 5.486 27.6177 5.786C27.5937 6.086 27.5637 6.365 27.5277 6.623C27.4917 6.881 27.4527 7.097 27.4107 7.271C27.3507 7.511 27.2577 7.694 27.1317 7.82C27.0117 7.946 26.8587 8.009 26.6727 8.009C26.5167 8.009 26.3937 7.94 26.3037 7.802C26.2137 7.664 26.1687 7.466 26.1687 7.208C26.1687 7.088 26.1837 6.935 26.2137 6.749C26.2437 6.557 26.2767 6.35 26.3127 6.128C26.3487 5.9 26.3817 5.669 26.4117 5.435C26.4417 5.201 26.4567 4.979 26.4567 4.769C26.4567 4.457 26.3937 4.217 26.2677 4.049C26.1417 3.875 25.9647 3.788 25.7367 3.788C25.4847 3.788 25.2747 3.92 25.1067 4.184C24.9447 4.442 24.8487 4.82 24.8187 5.318C24.7947 5.762 24.7737 6.158 24.7557 6.506C24.7377 6.848 24.6927 7.13 24.6207 7.352C24.5727 7.508 24.5037 7.625 24.4137 7.703C24.3297 7.781 24.2157 7.82 24.0717 7.82C23.9097 7.82 23.7807 7.76 23.6847 7.64C23.5947 7.52 23.5437 7.331 23.5317 7.073C23.5197 6.857 23.5167 6.602 23.5227 6.308C23.5287 6.014 23.5317 5.723 23.5317 5.435C23.5377 5.141 23.5347 4.898 23.5227 4.706C23.4987 4.322 23.4297 4.04 23.3157 3.86C23.2077 3.68 23.0427 3.59 22.8207 3.59C22.5627 3.59 22.3557 3.71 22.1997 3.95C22.0497 4.19 21.9567 4.523 21.9207 4.949C21.9087 5.123 21.9027 5.339 21.9027 5.597C21.9087 5.849 21.9147 6.101 21.9207 6.353C21.9267 6.605 21.9237 6.815 21.9117 6.983C21.9057 7.343 21.8487 7.601 21.7407 7.757C21.6387 7.913 21.4947 7.991 21.3087 7.991C21.0867 7.991 20.9247 7.919 20.8227 7.775C20.7267 7.631 20.6637 7.4 20.6337 7.082C20.6097 6.8 20.5917 6.521 20.5797 6.245C20.5677 5.963 20.5617 5.684 20.5617 5.408C20.5617 5.126 20.5677 4.82 20.5797 4.49C20.5977 4.16 20.6217 3.848 20.6517 3.554C20.6877 3.254 20.7507 3.002 20.8407 2.798C20.9307 2.594 21.0807 2.492 21.2907 2.492C21.4647 2.492 21.5877 2.579 21.6597 2.753C21.7317 2.921 21.7677 3.182 21.7677 3.536C21.7677 3.656 21.7587 3.767 21.7407 3.869L21.7137 3.689C21.8337 3.299 22.0257 2.996 22.2897 2.78C22.5537 2.558 22.8477 2.447 23.1717 2.447C23.5977 2.447 23.9307 2.585 24.1707 2.861C24.4107 3.131 24.5427 3.506 24.5667 3.986L24.4407 3.878ZM29.3651 2.42C29.5271 2.42 29.6621 2.516 29.7701 2.708C29.8781 2.894 29.9531 3.191 29.9951 3.599L29.8061 3.77C29.9141 3.35 30.1151 3.029 30.4091 2.807C30.7031 2.585 31.0511 2.474 31.4531 2.474C31.8251 2.474 32.1551 2.57 32.4431 2.762C32.7311 2.954 32.9561 3.245 33.1181 3.635C33.2861 4.019 33.3701 4.502 33.3701 5.084C33.3701 6.026 33.1991 6.722 32.8571 7.172C32.5211 7.616 32.0621 7.838 31.4801 7.838C31.0601 7.838 30.7301 7.748 30.4901 7.568C30.2501 7.388 30.0821 7.169 29.9861 6.911L30.0941 6.857C30.1421 7.217 30.1811 7.574 30.2111 7.928C30.2471 8.276 30.2651 8.582 30.2651 8.846C30.2651 9.116 30.2171 9.344 30.1211 9.53C30.0251 9.716 29.8721 9.809 29.6621 9.809C29.4581 9.809 29.3051 9.731 29.2031 9.575C29.1011 9.419 29.0261 9.212 28.9781 8.954C28.9421 8.69 28.9061 8.351 28.8701 7.937C28.8341 7.523 28.8041 7.076 28.7801 6.596C28.7621 6.116 28.7531 5.648 28.7531 5.192C28.7531 4.724 28.7681 4.286 28.7981 3.878C28.8341 3.464 28.8761 3.128 28.9241 2.87C28.9661 2.72 29.0201 2.609 29.0861 2.537C29.1581 2.459 29.2511 2.42 29.3651 2.42ZM31.0841 3.509C30.7601 3.509 30.4991 3.671 30.3011 3.995C30.1091 4.313 30.0131 4.721 30.0131 5.219C30.0131 5.729 30.1091 6.11 30.3011 6.362C30.4991 6.614 30.7541 6.74 31.0661 6.74C31.4261 6.74 31.6841 6.599 31.8401 6.317C32.0021 6.029 32.0831 5.657 32.0831 5.201C32.0831 4.619 31.9841 4.193 31.7861 3.923C31.5881 3.647 31.3541 3.509 31.0841 3.509ZM36.4684 8.027C35.9884 8.027 35.5684 7.922 35.2084 7.712C34.8544 7.496 34.5784 7.19 34.3804 6.794C34.1884 6.398 34.0924 5.927 34.0924 5.381C34.0924 4.811 34.1914 4.313 34.3894 3.887C34.5874 3.461 34.8664 3.128 35.2264 2.888C35.5924 2.648 36.0154 2.528 36.4954 2.528C37.0114 2.528 37.4584 2.645 37.8364 2.879C38.2144 3.107 38.5084 3.428 38.7184 3.842C38.9284 4.256 39.0334 4.739 39.0334 5.291C39.0334 5.855 38.9284 6.341 38.7184 6.749C38.5084 7.157 38.2114 7.472 37.8274 7.694C37.4434 7.916 36.9904 8.027 36.4684 8.027ZM36.5944 6.812C36.9664 6.812 37.2604 6.665 37.4764 6.371C37.6984 6.071 37.8094 5.675 37.8094 5.183C37.8094 4.685 37.6984 4.289 37.4764 3.995C37.2604 3.701 36.9664 3.554 36.5944 3.554C36.2104 3.554 35.9074 3.701 35.6854 3.995C35.4634 4.289 35.3524 4.685 35.3524 5.183C35.3524 5.675 35.4634 6.071 35.6854 6.371C35.9074 6.665 36.2104 6.812 36.5944 6.812ZM40.5536 8.09C40.4396 8.09 40.3466 8.057 40.2746 7.991C40.2026 7.919 40.1516 7.817 40.1216 7.685C40.0736 7.463 40.0316 7.142 39.9956 6.722C39.9596 6.302 39.9416 5.837 39.9416 5.327C39.9416 4.697 39.9626 4.091 40.0046 3.509C40.0526 2.927 40.1126 2.45 40.1846 2.078C40.2626 1.676 40.3586 1.382 40.4726 1.196C40.5866 1.004 40.7366 0.908 40.9226 0.908C41.0906 0.908 41.2196 0.986 41.3096 1.142C41.3996 1.292 41.4446 1.553 41.4446 1.925C41.4446 2.297 41.4296 2.696 41.3996 3.122C41.3756 3.548 41.3336 4.004 41.2736 4.49H41.3096C41.6996 3.962 42.0626 3.539 42.3986 3.221C42.7406 2.903 43.0526 2.672 43.3346 2.528C43.6226 2.384 43.8776 2.312 44.0996 2.312C44.2736 2.312 44.4026 2.366 44.4866 2.474C44.5706 2.582 44.6126 2.714 44.6126 2.87C44.6126 3.176 44.3666 3.518 43.8746 3.896C43.3886 4.274 42.6866 4.661 41.7686 5.057L41.7776 4.913C42.3476 5.207 42.8366 5.516 43.2446 5.84C43.6586 6.158 43.9736 6.461 44.1896 6.749C44.4116 7.031 44.5226 7.268 44.5226 7.46C44.5226 7.616 44.4716 7.745 44.3696 7.847C44.2736 7.943 44.1326 7.991 43.9466 7.991C43.7126 7.991 43.4516 7.904 43.1636 7.73C42.8816 7.55 42.5876 7.283 42.2816 6.929C41.9756 6.575 41.6696 6.131 41.3636 5.597H41.3276C41.3216 5.975 41.2976 6.344 41.2556 6.704C41.2196 7.058 41.1716 7.349 41.1116 7.577C41.0696 7.733 41.0036 7.859 40.9136 7.955C40.8296 8.045 40.7096 8.09 40.5536 8.09ZM49.0118 1.727C49.3958 1.727 49.7348 1.784 50.0288 1.898C50.3228 2.012 50.5538 2.183 50.7218 2.411C50.8958 2.639 50.9828 2.927 50.9828 3.275C50.9828 3.671 50.8388 4.025 50.5508 4.337C50.2688 4.643 49.8278 4.865 49.2278 5.003L49.1828 4.895C49.8068 4.949 50.2688 5.111 50.5688 5.381C50.8688 5.651 51.0188 6.002 51.0188 6.434C51.0188 6.746 50.9318 7.028 50.7578 7.28C50.5898 7.532 50.3348 7.733 49.9928 7.883C49.6568 8.027 49.2308 8.099 48.7148 8.099C48.2528 8.099 47.8868 8.063 47.6168 7.991C47.3528 7.919 47.1668 7.823 47.0588 7.703C46.9508 7.577 46.8968 7.439 46.8968 7.289C46.8968 7.139 46.9388 7.016 47.0228 6.92C47.1128 6.818 47.2418 6.767 47.4098 6.767C47.6018 6.767 47.7998 6.794 48.0038 6.848C48.2078 6.902 48.4268 6.929 48.6608 6.929C48.9608 6.929 49.1918 6.875 49.3538 6.767C49.5158 6.653 49.5968 6.512 49.5968 6.344C49.5968 6.224 49.5668 6.122 49.5068 6.038C49.4468 5.948 49.3358 5.87 49.1738 5.804C49.0118 5.732 48.7748 5.663 48.4628 5.597C48.1868 5.543 47.9768 5.48 47.8328 5.408C47.6948 5.33 47.6258 5.213 47.6258 5.057C47.6258 4.883 47.7038 4.745 47.8598 4.643C48.0158 4.541 48.2348 4.442 48.5168 4.346C48.9068 4.208 49.1858 4.076 49.3538 3.95C49.5278 3.824 49.6148 3.671 49.6148 3.491C49.6148 3.311 49.5398 3.176 49.3898 3.086C49.2458 2.996 49.0358 2.951 48.7598 2.951C48.5378 2.951 48.3218 2.978 48.1118 3.032C47.9018 3.086 47.6768 3.113 47.4368 3.113C47.2748 3.113 47.1518 3.077 47.0678 3.005C46.9838 2.933 46.9418 2.831 46.9418 2.699C46.9418 2.525 47.0288 2.366 47.2028 2.222C47.3768 2.072 47.6198 1.952 47.9318 1.862C48.2438 1.772 48.6038 1.727 49.0118 1.727ZM55.2526 2.582H55.0726C55.0546 2.318 55.0606 2.069 55.0906 1.835C55.1206 1.595 55.1836 1.403 55.2796 1.259C55.3816 1.109 55.5256 1.034 55.7116 1.034C55.8796 1.034 56.0026 1.088 56.0806 1.196C56.1586 1.304 56.1976 1.454 56.1976 1.646C56.1976 2.024 56.1256 2.348 55.9816 2.618L55.8196 2.6C56.1436 2.486 56.5096 2.429 56.9176 2.429C57.1756 2.429 57.3796 2.48 57.5296 2.582C57.6856 2.678 57.7636 2.843 57.7636 3.077C57.7636 3.299 57.6736 3.467 57.4936 3.581C57.3136 3.695 57.0886 3.752 56.8186 3.752C56.6566 3.752 56.4826 3.746 56.2966 3.734C56.1166 3.716 55.9396 3.689 55.7656 3.653L55.9186 3.464C55.9726 3.692 56.0236 3.953 56.0716 4.247C56.1256 4.535 56.1736 4.835 56.2156 5.147C56.2576 5.459 56.2906 5.762 56.3146 6.056C56.3386 6.35 56.3506 6.614 56.3506 6.848C56.3506 7.232 56.2906 7.535 56.1706 7.757C56.0506 7.979 55.8736 8.09 55.6396 8.09C55.4536 8.09 55.3066 8.033 55.1986 7.919C55.0966 7.805 55.0216 7.661 54.9736 7.487C54.9316 7.307 54.9046 7.121 54.8926 6.929C54.8866 6.737 54.8836 6.563 54.8836 6.407C54.8836 6.143 54.8956 5.846 54.9196 5.516C54.9436 5.18 54.9766 4.835 55.0186 4.481C55.0666 4.127 55.1206 3.785 55.1806 3.455L55.3606 3.608C55.0546 3.764 54.6766 3.842 54.2266 3.842C53.9506 3.842 53.7376 3.791 53.5876 3.689C53.4376 3.587 53.3626 3.428 53.3626 3.212C53.3626 2.978 53.4466 2.798 53.6146 2.672C53.7826 2.54 54.0076 2.474 54.2896 2.474C54.4756 2.474 54.6496 2.486 54.8116 2.51C54.9796 2.528 55.1266 2.552 55.2526 2.582ZM60.9274 8.072C60.2614 8.072 59.7304 7.973 59.3344 7.775C58.9384 7.577 58.6534 7.292 58.4794 6.92C58.3054 6.548 58.2184 6.104 58.2184 5.588C58.2184 4.934 58.3384 4.379 58.5784 3.923C58.8244 3.461 59.1604 3.107 59.5864 2.861C60.0184 2.615 60.5074 2.492 61.0534 2.492C61.6954 2.492 62.1664 2.642 62.4664 2.942C62.7664 3.236 62.9164 3.623 62.9164 4.103C62.9164 4.487 62.8144 4.82 62.6104 5.102C62.4124 5.378 62.1364 5.591 61.7824 5.741C61.4284 5.891 61.0204 5.966 60.5584 5.966C60.3004 5.966 60.0514 5.933 59.8114 5.867C59.5714 5.801 59.3554 5.711 59.1634 5.597L59.3794 5.201C59.3614 5.345 59.3524 5.489 59.3524 5.633C59.3524 6.053 59.4844 6.356 59.7484 6.542C60.0124 6.722 60.3874 6.812 60.8734 6.812C61.2514 6.812 61.5544 6.779 61.7824 6.713C62.0104 6.647 62.2024 6.584 62.3584 6.524C62.5144 6.458 62.6674 6.425 62.8174 6.425C62.9014 6.425 62.9764 6.449 63.0424 6.497C63.1144 6.539 63.1714 6.602 63.2134 6.686C63.2614 6.77 63.2854 6.872 63.2854 6.992C63.2854 7.172 63.1954 7.346 63.0154 7.514C62.8354 7.676 62.5684 7.811 62.2144 7.919C61.8664 8.021 61.4374 8.072 60.9274 8.072ZM60.4054 5.129C60.8314 5.129 61.1734 5.039 61.4314 4.859C61.6894 4.679 61.8184 4.457 61.8184 4.193C61.8184 3.983 61.7464 3.812 61.6024 3.68C61.4644 3.542 61.2454 3.473 60.9454 3.473C60.6634 3.473 60.4084 3.527 60.1804 3.635C59.9584 3.737 59.7844 3.872 59.6584 4.04C59.5324 4.208 59.4694 4.391 59.4694 4.589C59.4694 4.763 59.5504 4.898 59.7124 4.994C59.8804 5.084 60.1114 5.129 60.4054 5.129ZM64.0763 3.941C64.0763 3.365 64.1303 2.951 64.2383 2.699C64.3463 2.441 64.4993 2.312 64.6973 2.312C64.8533 2.312 64.9763 2.378 65.0663 2.51C65.1563 2.636 65.2223 2.795 65.2643 2.987C65.3063 3.173 65.3273 3.362 65.3273 3.554L65.2823 3.536C65.3843 3.212 65.5403 2.933 65.7503 2.699C65.9663 2.465 66.2243 2.348 66.5243 2.348C66.8783 2.348 67.1393 2.495 67.3073 2.789C67.4753 3.077 67.5593 3.437 67.5593 3.869C67.5593 4.445 67.4933 4.847 67.3613 5.075C67.2293 5.303 67.0523 5.417 66.8303 5.417C66.6683 5.417 66.5483 5.351 66.4703 5.219C66.3983 5.087 66.3743 4.853 66.3983 4.517C66.4223 4.163 66.4013 3.917 66.3353 3.779C66.2693 3.641 66.1643 3.572 66.0203 3.572C65.8463 3.572 65.7023 3.683 65.5883 3.905C65.4803 4.121 65.4263 4.388 65.4263 4.706C65.4263 4.832 65.4413 4.991 65.4713 5.183C65.5013 5.375 65.5343 5.585 65.5703 5.813C65.6063 6.035 65.6393 6.257 65.6693 6.479C65.6993 6.701 65.7143 6.905 65.7143 7.091C65.7143 7.421 65.6633 7.658 65.5613 7.802C65.4593 7.946 65.3153 8.018 65.1293 8.018C64.9193 8.018 64.7573 7.952 64.6433 7.82C64.5293 7.682 64.4423 7.46 64.3823 7.154C64.3343 6.878 64.2863 6.551 64.2383 6.173C64.1903 5.795 64.1513 5.408 64.1213 5.012C64.0913 4.616 64.0763 4.259 64.0763 3.941ZM72.2356 3.878C72.2956 3.632 72.4006 3.41 72.5506 3.212C72.7066 3.014 72.8926 2.858 73.1086 2.744C73.3306 2.624 73.5736 2.564 73.8376 2.564C74.1496 2.564 74.4256 2.639 74.6656 2.789C74.9056 2.939 75.0946 3.185 75.2326 3.527C75.3766 3.869 75.4486 4.325 75.4486 4.895C75.4486 5.189 75.4366 5.486 75.4126 5.786C75.3886 6.086 75.3586 6.365 75.3226 6.623C75.2866 6.881 75.2476 7.097 75.2056 7.271C75.1456 7.511 75.0526 7.694 74.9266 7.82C74.8066 7.946 74.6536 8.009 74.4676 8.009C74.3116 8.009 74.1886 7.94 74.0986 7.802C74.0086 7.664 73.9636 7.466 73.9636 7.208C73.9636 7.088 73.9786 6.935 74.0086 6.749C74.0386 6.557 74.0716 6.35 74.1076 6.128C74.1436 5.9 74.1766 5.669 74.2066 5.435C74.2366 5.201 74.2516 4.979 74.2516 4.769C74.2516 4.457 74.1886 4.217 74.0626 4.049C73.9366 3.875 73.7596 3.788 73.5316 3.788C73.2796 3.788 73.0696 3.92 72.9016 4.184C72.7396 4.442 72.6436 4.82 72.6136 5.318C72.5896 5.762 72.5686 6.158 72.5506 6.506C72.5326 6.848 72.4876 7.13 72.4156 7.352C72.3676 7.508 72.2986 7.625 72.2086 7.703C72.1246 7.781 72.0106 7.82 71.8666 7.82C71.7046 7.82 71.5756 7.76 71.4796 7.64C71.3896 7.52 71.3386 7.331 71.3266 7.073C71.3146 6.857 71.3116 6.602 71.3176 6.308C71.3236 6.014 71.3266 5.723 71.3266 5.435C71.3326 5.141 71.3296 4.898 71.3176 4.706C71.2936 4.322 71.2246 4.04 71.1106 3.86C71.0026 3.68 70.8376 3.59 70.6156 3.59C70.3576 3.59 70.1506 3.71 69.9946 3.95C69.8446 4.19 69.7516 4.523 69.7156 4.949C69.7036 5.123 69.6976 5.339 69.6976 5.597C69.7036 5.849 69.7096 6.101 69.7156 6.353C69.7216 6.605 69.7186 6.815 69.7066 6.983C69.7006 7.343 69.6436 7.601 69.5356 7.757C69.4336 7.913 69.2896 7.991 69.1036 7.991C68.8816 7.991 68.7196 7.919 68.6176 7.775C68.5216 7.631 68.4586 7.4 68.4286 7.082C68.4046 6.8 68.3866 6.521 68.3746 6.245C68.3626 5.963 68.3566 5.684 68.3566 5.408C68.3566 5.126 68.3626 4.82 68.3746 4.49C68.3926 4.16 68.4166 3.848 68.4466 3.554C68.4826 3.254 68.5456 3.002 68.6356 2.798C68.7256 2.594 68.8756 2.492 69.0856 2.492C69.2596 2.492 69.3826 2.579 69.4546 2.753C69.5266 2.921 69.5626 3.182 69.5626 3.536C69.5626 3.656 69.5536 3.767 69.5356 3.869L69.5086 3.689C69.6286 3.299 69.8206 2.996 70.0846 2.78C70.3486 2.558 70.6426 2.447 70.9666 2.447C71.3926 2.447 71.7256 2.585 71.9656 2.861C72.2056 3.131 72.3376 3.506 72.3616 3.986L72.2356 3.878ZM80.481 8.09C80.277 8.09 80.136 8.012 80.058 7.856C79.986 7.694 79.944 7.439 79.932 7.091L80.022 7.136C79.686 7.79 79.05 8.117 78.114 8.117C77.688 8.117 77.334 8.042 77.052 7.892C76.77 7.736 76.56 7.532 76.422 7.28C76.29 7.022 76.224 6.743 76.224 6.443C76.224 5.927 76.404 5.519 76.764 5.219C77.124 4.913 77.601 4.76 78.195 4.76C78.585 4.76 78.924 4.817 79.212 4.931C79.5 5.045 79.746 5.204 79.95 5.408L79.797 5.39C79.755 4.784 79.623 4.352 79.401 4.094C79.185 3.83 78.876 3.698 78.474 3.698C78.24 3.698 78.024 3.734 77.826 3.806C77.628 3.878 77.445 3.953 77.277 4.031C77.115 4.103 76.962 4.139 76.818 4.139C76.674 4.139 76.56 4.091 76.476 3.995C76.398 3.899 76.359 3.776 76.359 3.626C76.359 3.41 76.461 3.206 76.665 3.014C76.875 2.822 77.151 2.666 77.493 2.546C77.835 2.426 78.207 2.366 78.609 2.366C79.095 2.366 79.512 2.483 79.86 2.717C80.208 2.951 80.472 3.293 80.652 3.743C80.808 4.127 80.919 4.556 80.985 5.03C81.051 5.504 81.084 6.011 81.084 6.551C81.084 6.959 81.063 7.274 81.021 7.496C80.979 7.718 80.913 7.874 80.823 7.964C80.739 8.048 80.625 8.09 80.481 8.09ZM78.492 7.082C78.69 7.082 78.891 7.055 79.095 7.001C79.299 6.941 79.47 6.854 79.608 6.74C79.746 6.626 79.815 6.485 79.815 6.317C79.815 6.173 79.755 6.056 79.635 5.966C79.521 5.87 79.368 5.798 79.176 5.75C78.99 5.702 78.789 5.678 78.573 5.678C78.207 5.678 77.928 5.741 77.736 5.867C77.55 5.993 77.457 6.161 77.457 6.371C77.457 6.599 77.544 6.776 77.718 6.902C77.898 7.022 78.156 7.082 78.492 7.082ZM84.4588 2.366C84.9928 2.366 85.3768 2.444 85.6108 2.6C85.8448 2.756 85.9618 2.957 85.9618 3.203C85.9618 3.347 85.9108 3.467 85.8088 3.563C85.7128 3.653 85.5748 3.698 85.3948 3.698C85.2088 3.698 85.0138 3.671 84.8098 3.617C84.6118 3.563 84.3808 3.536 84.1168 3.536C83.8108 3.536 83.5828 3.596 83.4328 3.716C83.2828 3.836 83.2078 3.989 83.2078 4.175C83.2078 4.349 83.2738 4.487 83.4058 4.589C83.5438 4.685 83.8048 4.757 84.1888 4.805C84.6148 4.853 84.9658 4.931 85.2418 5.039C85.5238 5.141 85.7338 5.297 85.8718 5.507C86.0098 5.711 86.0788 5.993 86.0788 6.353C86.0788 6.923 85.8778 7.346 85.4758 7.622C85.0738 7.898 84.5188 8.036 83.8108 8.036C83.3608 8.036 83.0038 8 82.7398 7.928C82.4758 7.856 82.2838 7.754 82.1638 7.622C82.0498 7.49 81.9928 7.334 81.9928 7.154C81.9928 6.998 82.0438 6.878 82.1458 6.794C82.2538 6.704 82.3798 6.659 82.5238 6.659C82.6618 6.659 82.8088 6.677 82.9648 6.713C83.1208 6.743 83.2858 6.776 83.4598 6.812C83.6338 6.848 83.8138 6.866 83.9998 6.866C84.5998 6.866 84.8998 6.68 84.8998 6.308C84.8998 6.182 84.8698 6.08 84.8098 6.002C84.7498 5.924 84.6418 5.861 84.4858 5.813C84.3298 5.759 84.1018 5.717 83.8018 5.687C83.4418 5.651 83.1298 5.591 82.8658 5.507C82.6018 5.417 82.3978 5.273 82.2538 5.075C82.1098 4.871 82.0378 4.592 82.0378 4.238C82.0378 3.68 82.2478 3.23 82.6678 2.888C83.0878 2.54 83.6848 2.366 84.4588 2.366ZM91.0394 7.946C90.8774 7.946 90.7514 7.892 90.6614 7.784C90.5774 7.67 90.5204 7.526 90.4904 7.352C90.4604 7.172 90.4454 6.983 90.4454 6.785L90.4904 6.749C90.4304 7.007 90.3134 7.229 90.1394 7.415C89.9654 7.601 89.7644 7.745 89.5364 7.847C89.3084 7.943 89.0804 7.991 88.8524 7.991C88.5464 7.991 88.2674 7.919 88.0154 7.775C87.7634 7.631 87.5684 7.409 87.4304 7.109C87.2924 6.791 87.1844 6.392 87.1064 5.912C87.0284 5.426 86.9894 4.928 86.9894 4.418C86.9894 4.142 87.0014 3.887 87.0254 3.653C87.0494 3.419 87.0884 3.227 87.1424 3.077C87.1904 2.921 87.2624 2.807 87.3584 2.735C87.4544 2.657 87.5774 2.618 87.7274 2.618C87.9014 2.618 88.0364 2.687 88.1324 2.825C88.2344 2.957 88.2974 3.143 88.3214 3.383C88.3454 3.581 88.3604 3.827 88.3664 4.121C88.3784 4.409 88.3874 4.7 88.3934 4.994C88.4054 5.282 88.4204 5.525 88.4384 5.723C88.4744 6.083 88.5674 6.35 88.7174 6.524C88.8674 6.692 89.0504 6.776 89.2664 6.776C89.5844 6.776 89.8274 6.656 89.9954 6.416C90.1634 6.176 90.2474 5.84 90.2474 5.408C90.2474 5.192 90.2354 4.949 90.2114 4.679C90.1874 4.403 90.1604 4.136 90.1304 3.878C90.1064 3.62 90.0944 3.407 90.0944 3.239C90.0944 2.957 90.1424 2.756 90.2384 2.636C90.3344 2.51 90.4664 2.447 90.6344 2.447C90.7784 2.447 90.8984 2.486 90.9944 2.564C91.0964 2.642 91.1774 2.75 91.2374 2.888C91.3214 3.068 91.3934 3.314 91.4534 3.626C91.5134 3.938 91.5614 4.292 91.5974 4.688C91.6334 5.084 91.6514 5.501 91.6514 5.939C91.6514 6.611 91.6064 7.115 91.5164 7.451C91.4264 7.781 91.2674 7.946 91.0394 7.946ZM93.3583 8.09C93.2443 8.09 93.1513 8.057 93.0793 7.991C93.0073 7.919 92.9563 7.817 92.9263 7.685C92.8783 7.463 92.8363 7.142 92.8003 6.722C92.7643 6.302 92.7463 5.837 92.7463 5.327C92.7463 4.697 92.7673 4.091 92.8093 3.509C92.8573 2.927 92.9173 2.45 92.9893 2.078C93.0673 1.676 93.1633 1.382 93.2773 1.196C93.3913 1.004 93.5413 0.908 93.7273 0.908C93.8953 0.908 94.0243 0.986 94.1143 1.142C94.2043 1.292 94.2493 1.553 94.2493 1.925C94.2493 2.297 94.2343 2.696 94.2043 3.122C94.1803 3.548 94.1383 4.004 94.0783 4.49H94.1143C94.5043 3.962 94.8673 3.539 95.2033 3.221C95.5453 2.903 95.8573 2.672 96.1393 2.528C96.4273 2.384 96.6823 2.312 96.9043 2.312C97.0783 2.312 97.2073 2.366 97.2913 2.474C97.3753 2.582 97.4173 2.714 97.4173 2.87C97.4173 3.176 97.1713 3.518 96.6793 3.896C96.1933 4.274 95.4913 4.661 94.5733 5.057L94.5823 4.913C95.1523 5.207 95.6413 5.516 96.0493 5.84C96.4633 6.158 96.7783 6.461 96.9943 6.749C97.2163 7.031 97.3273 7.268 97.3273 7.46C97.3273 7.616 97.2763 7.745 97.1743 7.847C97.0783 7.943 96.9373 7.991 96.7513 7.991C96.5173 7.991 96.2563 7.904 95.9683 7.73C95.6863 7.55 95.3923 7.283 95.0863 6.929C94.7803 6.575 94.4743 6.131 94.1683 5.597H94.1323C94.1263 5.975 94.1023 6.344 94.0603 6.704C94.0243 7.058 93.9763 7.349 93.9163 7.577C93.8743 7.733 93.8083 7.859 93.7183 7.955C93.6343 8.045 93.5143 8.09 93.3583 8.09ZM100.557 8.09C100.443 8.09 100.35 8.057 100.278 7.991C100.206 7.919 100.155 7.817 100.125 7.685C100.077 7.463 100.035 7.142 99.9985 6.722C99.9625 6.302 99.9445 5.837 99.9445 5.327C99.9445 4.697 99.9655 4.091 100.008 3.509C100.056 2.927 100.116 2.45 100.188 2.078C100.266 1.676 100.362 1.382 100.476 1.196C100.59 1.004 100.74 0.908 100.926 0.908C101.094 0.908 101.223 0.986 101.313 1.142C101.403 1.292 101.448 1.553 101.448 1.925C101.448 2.297 101.433 2.696 101.403 3.122C101.379 3.548 101.337 4.004 101.277 4.49H101.313C101.703 3.962 102.066 3.539 102.402 3.221C102.744 2.903 103.056 2.672 103.338 2.528C103.626 2.384 103.881 2.312 104.103 2.312C104.277 2.312 104.406 2.366 104.49 2.474C104.574 2.582 104.616 2.714 104.616 2.87C104.616 3.176 104.37 3.518 103.878 3.896C103.392 4.274 102.69 4.661 101.772 5.057L101.781 4.913C102.351 5.207 102.84 5.516 103.248 5.84C103.662 6.158 103.977 6.461 104.193 6.749C104.415 7.031 104.526 7.268 104.526 7.46C104.526 7.616 104.475 7.745 104.373 7.847C104.277 7.943 104.136 7.991 103.95 7.991C103.716 7.991 103.455 7.904 103.167 7.73C102.885 7.55 102.591 7.283 102.285 6.929C101.979 6.575 101.673 6.131 101.367 5.597H101.331C101.325 5.975 101.301 6.344 101.259 6.704C101.223 7.058 101.175 7.349 101.115 7.577C101.073 7.733 101.007 7.859 100.917 7.955C100.833 8.045 100.713 8.09 100.557 8.09ZM107.773 8.072C107.107 8.072 106.576 7.973 106.18 7.775C105.784 7.577 105.499 7.292 105.325 6.92C105.151 6.548 105.064 6.104 105.064 5.588C105.064 4.934 105.184 4.379 105.424 3.923C105.67 3.461 106.006 3.107 106.432 2.861C106.864 2.615 107.353 2.492 107.899 2.492C108.541 2.492 109.012 2.642 109.312 2.942C109.612 3.236 109.762 3.623 109.762 4.103C109.762 4.487 109.66 4.82 109.456 5.102C109.258 5.378 108.982 5.591 108.628 5.741C108.274 5.891 107.866 5.966 107.404 5.966C107.146 5.966 106.897 5.933 106.657 5.867C106.417 5.801 106.201 5.711 106.009 5.597L106.225 5.201C106.207 5.345 106.198 5.489 106.198 5.633C106.198 6.053 106.33 6.356 106.594 6.542C106.858 6.722 107.233 6.812 107.719 6.812C108.097 6.812 108.4 6.779 108.628 6.713C108.856 6.647 109.048 6.584 109.204 6.524C109.36 6.458 109.513 6.425 109.663 6.425C109.747 6.425 109.822 6.449 109.888 6.497C109.96 6.539 110.017 6.602 110.059 6.686C110.107 6.77 110.131 6.872 110.131 6.992C110.131 7.172 110.041 7.346 109.861 7.514C109.681 7.676 109.414 7.811 109.06 7.919C108.712 8.021 108.283 8.072 107.773 8.072ZM107.251 5.129C107.677 5.129 108.019 5.039 108.277 4.859C108.535 4.679 108.664 4.457 108.664 4.193C108.664 3.983 108.592 3.812 108.448 3.68C108.31 3.542 108.091 3.473 107.791 3.473C107.509 3.473 107.254 3.527 107.026 3.635C106.804 3.737 106.63 3.872 106.504 4.04C106.378 4.208 106.315 4.391 106.315 4.589C106.315 4.763 106.396 4.898 106.558 4.994C106.726 5.084 106.957 5.129 107.251 5.129ZM114.407 8.126C113.819 8.126 113.36 7.907 113.03 7.469C112.7 7.025 112.535 6.35 112.535 5.444C112.535 4.544 112.697 3.887 113.021 3.473C113.351 3.053 113.822 2.843 114.434 2.843C114.782 2.843 115.085 2.915 115.343 3.059C115.607 3.203 115.841 3.407 116.045 3.671L115.973 3.707C115.919 3.461 115.865 3.2 115.811 2.924C115.757 2.648 115.712 2.387 115.676 2.141C115.646 1.889 115.631 1.691 115.631 1.547C115.631 1.343 115.664 1.187 115.73 1.079C115.796 0.965 115.901 0.908 116.045 0.908C116.249 0.908 116.414 0.995 116.54 1.169C116.666 1.337 116.771 1.598 116.855 1.952C116.933 2.27 117.002 2.648 117.062 3.086C117.122 3.518 117.17 3.971 117.206 4.445C117.248 4.913 117.269 5.363 117.269 5.795C117.269 6.395 117.236 6.863 117.17 7.199C117.11 7.529 117.023 7.76 116.909 7.892C116.801 8.024 116.672 8.09 116.522 8.09C116.336 8.09 116.21 7.997 116.144 7.811C116.078 7.625 116.051 7.322 116.063 6.902H116.198C116.036 7.274 115.799 7.571 115.487 7.793C115.181 8.015 114.821 8.126 114.407 8.126ZM114.884 7.01C115.1 7.01 115.298 6.956 115.478 6.848C115.664 6.734 115.811 6.56 115.919 6.326C116.033 6.092 116.09 5.795 116.09 5.435C116.09 4.973 115.985 4.598 115.775 4.31C115.565 4.016 115.262 3.869 114.866 3.869C114.554 3.869 114.299 3.998 114.101 4.256C113.909 4.514 113.813 4.904 113.813 5.426C113.813 5.888 113.909 6.269 114.101 6.569C114.299 6.863 114.56 7.01 114.884 7.01ZM122.299 8.09C122.095 8.09 121.954 8.012 121.876 7.856C121.804 7.694 121.762 7.439 121.75 7.091L121.84 7.136C121.504 7.79 120.868 8.117 119.932 8.117C119.506 8.117 119.152 8.042 118.87 7.892C118.588 7.736 118.378 7.532 118.24 7.28C118.108 7.022 118.042 6.743 118.042 6.443C118.042 5.927 118.222 5.519 118.582 5.219C118.942 4.913 119.419 4.76 120.013 4.76C120.403 4.76 120.742 4.817 121.03 4.931C121.318 5.045 121.564 5.204 121.768 5.408L121.615 5.39C121.573 4.784 121.441 4.352 121.219 4.094C121.003 3.83 120.694 3.698 120.292 3.698C120.058 3.698 119.842 3.734 119.644 3.806C119.446 3.878 119.263 3.953 119.095 4.031C118.933 4.103 118.78 4.139 118.636 4.139C118.492 4.139 118.378 4.091 118.294 3.995C118.216 3.899 118.177 3.776 118.177 3.626C118.177 3.41 118.279 3.206 118.483 3.014C118.693 2.822 118.969 2.666 119.311 2.546C119.653 2.426 120.025 2.366 120.427 2.366C120.913 2.366 121.33 2.483 121.678 2.717C122.026 2.951 122.29 3.293 122.47 3.743C122.626 4.127 122.737 4.556 122.803 5.03C122.869 5.504 122.902 6.011 122.902 6.551C122.902 6.959 122.881 7.274 122.839 7.496C122.797 7.718 122.731 7.874 122.641 7.964C122.557 8.048 122.443 8.09 122.299 8.09ZM120.31 7.082C120.508 7.082 120.709 7.055 120.913 7.001C121.117 6.941 121.288 6.854 121.426 6.74C121.564 6.626 121.633 6.485 121.633 6.317C121.633 6.173 121.573 6.056 121.453 5.966C121.339 5.87 121.186 5.798 120.994 5.75C120.808 5.702 120.607 5.678 120.391 5.678C120.025 5.678 119.746 5.741 119.554 5.867C119.368 5.993 119.275 6.161 119.275 6.371C119.275 6.599 119.362 6.776 119.536 6.902C119.716 7.022 119.974 7.082 120.31 7.082ZM124.972 8.018C124.786 8.018 124.639 7.976 124.531 7.892C124.423 7.802 124.336 7.655 124.27 7.451C124.18 7.151 124.111 6.773 124.063 6.317C124.021 5.855 124 5.288 124 4.616C124 4.202 124.015 3.788 124.045 3.374C124.081 2.954 124.126 2.573 124.18 2.231C124.234 1.883 124.291 1.613 124.351 1.421C124.417 1.217 124.495 1.076 124.585 0.997999C124.675 0.92 124.777 0.881 124.891 0.881C125.011 0.881 125.107 0.923 125.179 1.007C125.251 1.085 125.308 1.226 125.35 1.43C125.386 1.628 125.413 1.871 125.431 2.159C125.455 2.447 125.467 2.756 125.467 3.086C125.467 3.536 125.446 4.01 125.404 4.508C125.362 5.006 125.305 5.495 125.233 5.975C125.167 6.455 125.086 6.896 124.99 7.298L124.738 7.172C124.894 6.98 125.071 6.83 125.269 6.722C125.473 6.614 125.659 6.56 125.827 6.56C125.965 6.56 126.07 6.599 126.142 6.677C126.22 6.749 126.259 6.863 126.259 7.019C126.259 7.175 126.19 7.331 126.052 7.487C125.92 7.643 125.755 7.772 125.557 7.874C125.359 7.97 125.164 8.018 124.972 8.018ZM131.009 8.09C130.805 8.09 130.664 8.012 130.586 7.856C130.514 7.694 130.472 7.439 130.46 7.091L130.55 7.136C130.214 7.79 129.578 8.117 128.642 8.117C128.216 8.117 127.862 8.042 127.58 7.892C127.298 7.736 127.088 7.532 126.95 7.28C126.818 7.022 126.752 6.743 126.752 6.443C126.752 5.927 126.932 5.519 127.292 5.219C127.652 4.913 128.129 4.76 128.723 4.76C129.113 4.76 129.452 4.817 129.74 4.931C130.028 5.045 130.274 5.204 130.478 5.408L130.325 5.39C130.283 4.784 130.151 4.352 129.929 4.094C129.713 3.83 129.404 3.698 129.002 3.698C128.768 3.698 128.552 3.734 128.354 3.806C128.156 3.878 127.973 3.953 127.805 4.031C127.643 4.103 127.49 4.139 127.346 4.139C127.202 4.139 127.088 4.091 127.004 3.995C126.926 3.899 126.887 3.776 126.887 3.626C126.887 3.41 126.989 3.206 127.193 3.014C127.403 2.822 127.679 2.666 128.021 2.546C128.363 2.426 128.735 2.366 129.137 2.366C129.623 2.366 130.04 2.483 130.388 2.717C130.736 2.951 131 3.293 131.18 3.743C131.336 4.127 131.447 4.556 131.513 5.03C131.579 5.504 131.612 6.011 131.612 6.551C131.612 6.959 131.591 7.274 131.549 7.496C131.507 7.718 131.441 7.874 131.351 7.964C131.267 8.048 131.153 8.09 131.009 8.09ZM129.02 7.082C129.218 7.082 129.419 7.055 129.623 7.001C129.827 6.941 129.998 6.854 130.136 6.74C130.274 6.626 130.343 6.485 130.343 6.317C130.343 6.173 130.283 6.056 130.163 5.966C130.049 5.87 129.896 5.798 129.704 5.75C129.518 5.702 129.317 5.678 129.101 5.678C128.735 5.678 128.456 5.741 128.264 5.867C128.078 5.993 127.985 6.161 127.985 6.371C127.985 6.599 128.072 6.776 128.246 6.902C128.426 7.022 128.684 7.082 129.02 7.082ZM136.589 3.878C136.649 3.632 136.754 3.41 136.904 3.212C137.06 3.014 137.246 2.858 137.462 2.744C137.684 2.624 137.927 2.564 138.191 2.564C138.503 2.564 138.779 2.639 139.019 2.789C139.259 2.939 139.448 3.185 139.586 3.527C139.73 3.869 139.802 4.325 139.802 4.895C139.802 5.189 139.79 5.486 139.766 5.786C139.742 6.086 139.712 6.365 139.676 6.623C139.64 6.881 139.601 7.097 139.559 7.271C139.499 7.511 139.406 7.694 139.28 7.82C139.16 7.946 139.007 8.009 138.821 8.009C138.665 8.009 138.542 7.94 138.452 7.802C138.362 7.664 138.317 7.466 138.317 7.208C138.317 7.088 138.332 6.935 138.362 6.749C138.392 6.557 138.425 6.35 138.461 6.128C138.497 5.9 138.53 5.669 138.56 5.435C138.59 5.201 138.605 4.979 138.605 4.769C138.605 4.457 138.542 4.217 138.416 4.049C138.29 3.875 138.113 3.788 137.885 3.788C137.633 3.788 137.423 3.92 137.255 4.184C137.093 4.442 136.997 4.82 136.967 5.318C136.943 5.762 136.922 6.158 136.904 6.506C136.886 6.848 136.841 7.13 136.769 7.352C136.721 7.508 136.652 7.625 136.562 7.703C136.478 7.781 136.364 7.82 136.22 7.82C136.058 7.82 135.929 7.76 135.833 7.64C135.743 7.52 135.692 7.331 135.68 7.073C135.668 6.857 135.665 6.602 135.671 6.308C135.677 6.014 135.68 5.723 135.68 5.435C135.686 5.141 135.683 4.898 135.671 4.706C135.647 4.322 135.578 4.04 135.464 3.86C135.356 3.68 135.191 3.59 134.969 3.59C134.711 3.59 134.504 3.71 134.348 3.95C134.198 4.19 134.105 4.523 134.069 4.949C134.057 5.123 134.051 5.339 134.051 5.597C134.057 5.849 134.063 6.101 134.069 6.353C134.075 6.605 134.072 6.815 134.06 6.983C134.054 7.343 133.997 7.601 133.889 7.757C133.787 7.913 133.643 7.991 133.457 7.991C133.235 7.991 133.073 7.919 132.971 7.775C132.875 7.631 132.812 7.4 132.782 7.082C132.758 6.8 132.74 6.521 132.728 6.245C132.716 5.963 132.71 5.684 132.71 5.408C132.71 5.126 132.716 4.82 132.728 4.49C132.746 4.16 132.77 3.848 132.8 3.554C132.836 3.254 132.899 3.002 132.989 2.798C133.079 2.594 133.229 2.492 133.439 2.492C133.613 2.492 133.736 2.579 133.808 2.753C133.88 2.921 133.916 3.182 133.916 3.536C133.916 3.656 133.907 3.767 133.889 3.869L133.862 3.689C133.982 3.299 134.174 2.996 134.438 2.78C134.702 2.558 134.996 2.447 135.32 2.447C135.746 2.447 136.079 2.585 136.319 2.861C136.559 3.131 136.691 3.506 136.715 3.986L136.589 3.878ZM143.387 8.09C143.255 8.09 143.147 8.045 143.063 7.955C142.985 7.865 142.922 7.736 142.874 7.568C142.826 7.322 142.784 7.001 142.748 6.605C142.718 6.203 142.703 5.774 142.703 5.318C142.703 5.06 142.709 4.769 142.721 4.445C142.733 4.121 142.748 3.794 142.766 3.464C142.79 3.128 142.814 2.816 142.838 2.528C142.868 2.24 142.898 2.006 142.928 1.826C142.976 1.562 143.045 1.355 143.135 1.205C143.231 1.049 143.381 0.971 143.585 0.971C143.795 0.971 143.948 1.052 144.044 1.214C144.14 1.37 144.188 1.565 144.188 1.799C144.188 2.063 144.167 2.375 144.125 2.735C144.089 3.095 144.032 3.461 143.954 3.833L143.774 4.049C143.84 3.797 143.948 3.566 144.098 3.356C144.248 3.146 144.437 2.981 144.665 2.861C144.893 2.735 145.157 2.672 145.457 2.672C146.045 2.672 146.513 2.882 146.861 3.302C147.215 3.716 147.392 4.364 147.392 5.246C147.392 5.864 147.299 6.38 147.113 6.794C146.933 7.208 146.684 7.52 146.366 7.73C146.054 7.934 145.697 8.036 145.295 8.036C144.917 8.036 144.59 7.925 144.314 7.703C144.044 7.481 143.87 7.16 143.792 6.74L143.918 6.839C143.894 7.271 143.834 7.589 143.738 7.793C143.648 7.991 143.531 8.09 143.387 8.09ZM145.034 6.992C145.334 6.992 145.598 6.857 145.826 6.587C146.054 6.317 146.168 5.894 146.168 5.318C146.168 4.838 146.078 4.448 145.898 4.148C145.724 3.848 145.43 3.698 145.016 3.698C144.68 3.698 144.41 3.833 144.206 4.103C144.002 4.367 143.9 4.769 143.9 5.309C143.9 5.801 144.002 6.206 144.206 6.524C144.41 6.836 144.686 6.992 145.034 6.992ZM152.235 8.09C152.031 8.09 151.89 8.012 151.812 7.856C151.74 7.694 151.698 7.439 151.686 7.091L151.776 7.136C151.44 7.79 150.804 8.117 149.868 8.117C149.442 8.117 149.088 8.042 148.806 7.892C148.524 7.736 148.314 7.532 148.176 7.28C148.044 7.022 147.978 6.743 147.978 6.443C147.978 5.927 148.158 5.519 148.518 5.219C148.878 4.913 149.355 4.76 149.949 4.76C150.339 4.76 150.678 4.817 150.966 4.931C151.254 5.045 151.5 5.204 151.704 5.408L151.551 5.39C151.509 4.784 151.377 4.352 151.155 4.094C150.939 3.83 150.63 3.698 150.228 3.698C149.994 3.698 149.778 3.734 149.58 3.806C149.382 3.878 149.199 3.953 149.031 4.031C148.869 4.103 148.716 4.139 148.572 4.139C148.428 4.139 148.314 4.091 148.23 3.995C148.152 3.899 148.113 3.776 148.113 3.626C148.113 3.41 148.215 3.206 148.419 3.014C148.629 2.822 148.905 2.666 149.247 2.546C149.589 2.426 149.961 2.366 150.363 2.366C150.849 2.366 151.266 2.483 151.614 2.717C151.962 2.951 152.226 3.293 152.406 3.743C152.562 4.127 152.673 4.556 152.739 5.03C152.805 5.504 152.838 6.011 152.838 6.551C152.838 6.959 152.817 7.274 152.775 7.496C152.733 7.718 152.667 7.874 152.577 7.964C152.493 8.048 152.379 8.09 152.235 8.09ZM150.246 7.082C150.444 7.082 150.645 7.055 150.849 7.001C151.053 6.941 151.224 6.854 151.362 6.74C151.5 6.626 151.569 6.485 151.569 6.317C151.569 6.173 151.509 6.056 151.389 5.966C151.275 5.87 151.122 5.798 150.93 5.75C150.744 5.702 150.543 5.678 150.327 5.678C149.961 5.678 149.682 5.741 149.49 5.867C149.304 5.993 149.211 6.161 149.211 6.371C149.211 6.599 149.298 6.776 149.472 6.902C149.652 7.022 149.91 7.082 150.246 7.082ZM154.854 2.402C155.046 2.402 155.175 2.48 155.241 2.636C155.313 2.792 155.349 3.023 155.349 3.329C155.349 3.401 155.343 3.479 155.331 3.563C155.325 3.641 155.313 3.713 155.295 3.779L155.277 3.599C155.421 3.209 155.643 2.906 155.943 2.69C156.243 2.468 156.561 2.357 156.897 2.357C157.269 2.357 157.578 2.462 157.824 2.672C158.076 2.882 158.262 3.176 158.382 3.554C158.508 3.932 158.571 4.379 158.571 4.895C158.571 5.213 158.556 5.528 158.526 5.84C158.502 6.146 158.466 6.428 158.418 6.686C158.376 6.938 158.328 7.145 158.274 7.307C158.202 7.511 158.109 7.664 157.995 7.766C157.881 7.862 157.746 7.91 157.59 7.91C157.434 7.91 157.314 7.853 157.23 7.739C157.146 7.625 157.104 7.472 157.104 7.28C157.104 7.076 157.119 6.83 157.149 6.542C157.179 6.248 157.206 5.951 157.23 5.651C157.26 5.345 157.275 5.069 157.275 4.823C157.275 3.983 156.999 3.563 156.447 3.563C156.153 3.563 155.907 3.695 155.709 3.959C155.511 4.217 155.379 4.586 155.313 5.066C155.295 5.228 155.286 5.429 155.286 5.669C155.286 5.909 155.286 6.149 155.286 6.389C155.292 6.623 155.286 6.821 155.268 6.983C155.244 7.343 155.175 7.601 155.061 7.757C154.953 7.913 154.803 7.991 154.611 7.991C154.389 7.991 154.221 7.889 154.107 7.685C153.993 7.475 153.936 7.124 153.936 6.632C153.936 6.38 153.942 6.098 153.954 5.786C153.966 5.474 153.981 5.162 153.999 4.85C154.023 4.532 154.05 4.244 154.08 3.986C154.14 3.5 154.227 3.116 154.341 2.834C154.455 2.546 154.626 2.402 154.854 2.402ZM161.385 7.856C160.821 7.856 160.362 7.64 160.008 7.208C159.654 6.77 159.477 6.107 159.477 5.219C159.477 4.271 159.648 3.578 159.99 3.14C160.332 2.702 160.782 2.483 161.34 2.483C161.67 2.483 161.961 2.567 162.213 2.735C162.465 2.903 162.681 3.14 162.861 3.446L162.789 3.572C162.771 3.488 162.756 3.398 162.744 3.302C162.732 3.206 162.726 3.134 162.726 3.086C162.726 2.84 162.765 2.651 162.843 2.519C162.927 2.381 163.056 2.312 163.23 2.312C163.422 2.312 163.572 2.39 163.68 2.546C163.794 2.702 163.881 2.924 163.941 3.212C164.019 3.506 164.085 3.881 164.139 4.337C164.193 4.787 164.22 5.243 164.22 5.705C164.22 6.281 164.199 6.764 164.157 7.154C164.115 7.544 164.046 7.868 163.95 8.126C163.854 8.384 163.728 8.609 163.572 8.801C163.314 9.113 162.981 9.35 162.573 9.512C162.171 9.68 161.706 9.764 161.178 9.764C160.8 9.764 160.497 9.728 160.269 9.656C160.041 9.59 159.876 9.497 159.774 9.377C159.678 9.263 159.63 9.134 159.63 8.99C159.63 8.84 159.672 8.714 159.756 8.612C159.84 8.516 159.966 8.468 160.134 8.468C160.284 8.468 160.458 8.492 160.656 8.54C160.86 8.588 161.1 8.612 161.376 8.612C161.958 8.612 162.369 8.474 162.609 8.198C162.855 7.928 162.978 7.538 162.978 7.028C162.978 6.89 162.969 6.728 162.951 6.542L163.077 6.587C162.927 6.971 162.705 7.28 162.411 7.514C162.117 7.742 161.775 7.856 161.385 7.856ZM161.727 6.749C161.919 6.749 162.111 6.698 162.303 6.596C162.495 6.494 162.654 6.326 162.78 6.092C162.906 5.858 162.969 5.543 162.969 5.147C162.969 4.673 162.858 4.286 162.636 3.986C162.414 3.686 162.102 3.536 161.7 3.536C161.352 3.536 161.097 3.668 160.935 3.932C160.773 4.196 160.692 4.595 160.692 5.129C160.692 5.639 160.773 6.038 160.935 6.326C161.097 6.608 161.361 6.749 161.727 6.749ZM169.368 7.946C169.206 7.946 169.08 7.892 168.99 7.784C168.906 7.67 168.849 7.526 168.819 7.352C168.789 7.172 168.774 6.983 168.774 6.785L168.819 6.749C168.759 7.007 168.642 7.229 168.468 7.415C168.294 7.601 168.093 7.745 167.865 7.847C167.637 7.943 167.409 7.991 167.181 7.991C166.875 7.991 166.596 7.919 166.344 7.775C166.092 7.631 165.897 7.409 165.759 7.109C165.621 6.791 165.513 6.392 165.435 5.912C165.357 5.426 165.318 4.928 165.318 4.418C165.318 4.142 165.33 3.887 165.354 3.653C165.378 3.419 165.417 3.227 165.471 3.077C165.519 2.921 165.591 2.807 165.687 2.735C165.783 2.657 165.906 2.618 166.056 2.618C166.23 2.618 166.365 2.687 166.461 2.825C166.563 2.957 166.626 3.143 166.65 3.383C166.674 3.581 166.689 3.827 166.695 4.121C166.707 4.409 166.716 4.7 166.722 4.994C166.734 5.282 166.749 5.525 166.767 5.723C166.803 6.083 166.896 6.35 167.046 6.524C167.196 6.692 167.379 6.776 167.595 6.776C167.913 6.776 168.156 6.656 168.324 6.416C168.492 6.176 168.576 5.84 168.576 5.408C168.576 5.192 168.564 4.949 168.54 4.679C168.516 4.403 168.489 4.136 168.459 3.878C168.435 3.62 168.423 3.407 168.423 3.239C168.423 2.957 168.471 2.756 168.567 2.636C168.663 2.51 168.795 2.447 168.963 2.447C169.107 2.447 169.227 2.486 169.323 2.564C169.425 2.642 169.506 2.75 169.566 2.888C169.65 3.068 169.722 3.314 169.782 3.626C169.842 3.938 169.89 4.292 169.926 4.688C169.962 5.084 169.98 5.501 169.98 5.939C169.98 6.611 169.935 7.115 169.845 7.451C169.755 7.781 169.596 7.946 169.368 7.946ZM171.992 2.402C172.184 2.402 172.313 2.48 172.379 2.636C172.451 2.792 172.487 3.023 172.487 3.329C172.487 3.401 172.481 3.479 172.469 3.563C172.463 3.641 172.451 3.713 172.433 3.779L172.415 3.599C172.559 3.209 172.781 2.906 173.081 2.69C173.381 2.468 173.699 2.357 174.035 2.357C174.407 2.357 174.716 2.462 174.962 2.672C175.214 2.882 175.4 3.176 175.52 3.554C175.646 3.932 175.709 4.379 175.709 4.895C175.709 5.213 175.694 5.528 175.664 5.84C175.64 6.146 175.604 6.428 175.556 6.686C175.514 6.938 175.466 7.145 175.412 7.307C175.34 7.511 175.247 7.664 175.133 7.766C175.019 7.862 174.884 7.91 174.728 7.91C174.572 7.91 174.452 7.853 174.368 7.739C174.284 7.625 174.242 7.472 174.242 7.28C174.242 7.076 174.257 6.83 174.287 6.542C174.317 6.248 174.344 5.951 174.368 5.651C174.398 5.345 174.413 5.069 174.413 4.823C174.413 3.983 174.137 3.563 173.585 3.563C173.291 3.563 173.045 3.695 172.847 3.959C172.649 4.217 172.517 4.586 172.451 5.066C172.433 5.228 172.424 5.429 172.424 5.669C172.424 5.909 172.424 6.149 172.424 6.389C172.43 6.623 172.424 6.821 172.406 6.983C172.382 7.343 172.313 7.601 172.199 7.757C172.091 7.913 171.941 7.991 171.749 7.991C171.527 7.991 171.359 7.889 171.245 7.685C171.131 7.475 171.074 7.124 171.074 6.632C171.074 6.38 171.08 6.098 171.092 5.786C171.104 5.474 171.119 5.162 171.137 4.85C171.161 4.532 171.188 4.244 171.218 3.986C171.278 3.5 171.365 3.116 171.479 2.834C171.593 2.546 171.764 2.402 171.992 2.402ZM180.29 8.126C179.702 8.126 179.243 7.907 178.913 7.469C178.583 7.025 178.418 6.35 178.418 5.444C178.418 4.544 178.58 3.887 178.904 3.473C179.234 3.053 179.705 2.843 180.317 2.843C180.665 2.843 180.968 2.915 181.226 3.059C181.49 3.203 181.724 3.407 181.928 3.671L181.856 3.707C181.802 3.461 181.748 3.2 181.694 2.924C181.64 2.648 181.595 2.387 181.559 2.141C181.529 1.889 181.514 1.691 181.514 1.547C181.514 1.343 181.547 1.187 181.613 1.079C181.679 0.965 181.784 0.908 181.928 0.908C182.132 0.908 182.297 0.995 182.423 1.169C182.549 1.337 182.654 1.598 182.738 1.952C182.816 2.27 182.885 2.648 182.945 3.086C183.005 3.518 183.053 3.971 183.089 4.445C183.131 4.913 183.152 5.363 183.152 5.795C183.152 6.395 183.119 6.863 183.053 7.199C182.993 7.529 182.906 7.76 182.792 7.892C182.684 8.024 182.555 8.09 182.405 8.09C182.219 8.09 182.093 7.997 182.027 7.811C181.961 7.625 181.934 7.322 181.946 6.902H182.081C181.919 7.274 181.682 7.571 181.37 7.793C181.064 8.015 180.704 8.126 180.29 8.126ZM180.767 7.01C180.983 7.01 181.181 6.956 181.361 6.848C181.547 6.734 181.694 6.56 181.802 6.326C181.916 6.092 181.973 5.795 181.973 5.435C181.973 4.973 181.868 4.598 181.658 4.31C181.448 4.016 181.145 3.869 180.749 3.869C180.437 3.869 180.182 3.998 179.984 4.256C179.792 4.514 179.696 4.904 179.696 5.426C179.696 5.888 179.792 6.269 179.984 6.569C180.182 6.863 180.443 7.01 180.767 7.01ZM188.182 8.09C187.978 8.09 187.837 8.012 187.759 7.856C187.687 7.694 187.645 7.439 187.633 7.091L187.723 7.136C187.387 7.79 186.751 8.117 185.815 8.117C185.389 8.117 185.035 8.042 184.753 7.892C184.471 7.736 184.261 7.532 184.123 7.28C183.991 7.022 183.925 6.743 183.925 6.443C183.925 5.927 184.105 5.519 184.465 5.219C184.825 4.913 185.302 4.76 185.896 4.76C186.286 4.76 186.625 4.817 186.913 4.931C187.201 5.045 187.447 5.204 187.651 5.408L187.498 5.39C187.456 4.784 187.324 4.352 187.102 4.094C186.886 3.83 186.577 3.698 186.175 3.698C185.941 3.698 185.725 3.734 185.527 3.806C185.329 3.878 185.146 3.953 184.978 4.031C184.816 4.103 184.663 4.139 184.519 4.139C184.375 4.139 184.261 4.091 184.177 3.995C184.099 3.899 184.06 3.776 184.06 3.626C184.06 3.41 184.162 3.206 184.366 3.014C184.576 2.822 184.852 2.666 185.194 2.546C185.536 2.426 185.908 2.366 186.31 2.366C186.796 2.366 187.213 2.483 187.561 2.717C187.909 2.951 188.173 3.293 188.353 3.743C188.509 4.127 188.62 4.556 188.686 5.03C188.752 5.504 188.785 6.011 188.785 6.551C188.785 6.959 188.764 7.274 188.722 7.496C188.68 7.718 188.614 7.874 188.524 7.964C188.44 8.048 188.326 8.09 188.182 8.09ZM186.193 7.082C186.391 7.082 186.592 7.055 186.796 7.001C187 6.941 187.171 6.854 187.309 6.74C187.447 6.626 187.516 6.485 187.516 6.317C187.516 6.173 187.456 6.056 187.336 5.966C187.222 5.87 187.069 5.798 186.877 5.75C186.691 5.702 186.49 5.678 186.274 5.678C185.908 5.678 185.629 5.741 185.437 5.867C185.251 5.993 185.158 6.161 185.158 6.371C185.158 6.599 185.245 6.776 185.419 6.902C185.599 7.022 185.857 7.082 186.193 7.082ZM191.132 2.582H190.952C190.934 2.318 190.94 2.069 190.97 1.835C191 1.595 191.063 1.403 191.159 1.259C191.261 1.109 191.405 1.034 191.591 1.034C191.759 1.034 191.882 1.088 191.96 1.196C192.038 1.304 192.077 1.454 192.077 1.646C192.077 2.024 192.005 2.348 191.861 2.618L191.699 2.6C192.023 2.486 192.389 2.429 192.797 2.429C193.055 2.429 193.259 2.48 193.409 2.582C193.565 2.678 193.643 2.843 193.643 3.077C193.643 3.299 193.553 3.467 193.373 3.581C193.193 3.695 192.968 3.752 192.698 3.752C192.536 3.752 192.362 3.746 192.176 3.734C191.996 3.716 191.819 3.689 191.645 3.653L191.798 3.464C191.852 3.692 191.903 3.953 191.951 4.247C192.005 4.535 192.053 4.835 192.095 5.147C192.137 5.459 192.17 5.762 192.194 6.056C192.218 6.35 192.23 6.614 192.23 6.848C192.23 7.232 192.17 7.535 192.05 7.757C191.93 7.979 191.753 8.09 191.519 8.09C191.333 8.09 191.186 8.033 191.078 7.919C190.976 7.805 190.901 7.661 190.853 7.487C190.811 7.307 190.784 7.121 190.772 6.929C190.766 6.737 190.763 6.563 190.763 6.407C190.763 6.143 190.775 5.846 190.799 5.516C190.823 5.18 190.856 4.835 190.898 4.481C190.946 4.127 191 3.785 191.06 3.455L191.24 3.608C190.934 3.764 190.556 3.842 190.106 3.842C189.83 3.842 189.617 3.791 189.467 3.689C189.317 3.587 189.242 3.428 189.242 3.212C189.242 2.978 189.326 2.798 189.494 2.672C189.662 2.54 189.887 2.474 190.169 2.474C190.355 2.474 190.529 2.486 190.691 2.51C190.859 2.528 191.006 2.552 191.132 2.582ZM198.307 8.09C198.103 8.09 197.962 8.012 197.884 7.856C197.812 7.694 197.77 7.439 197.758 7.091L197.848 7.136C197.512 7.79 196.876 8.117 195.94 8.117C195.514 8.117 195.16 8.042 194.878 7.892C194.596 7.736 194.386 7.532 194.248 7.28C194.116 7.022 194.05 6.743 194.05 6.443C194.05 5.927 194.23 5.519 194.59 5.219C194.95 4.913 195.427 4.76 196.021 4.76C196.411 4.76 196.75 4.817 197.038 4.931C197.326 5.045 197.572 5.204 197.776 5.408L197.623 5.39C197.581 4.784 197.449 4.352 197.227 4.094C197.011 3.83 196.702 3.698 196.3 3.698C196.066 3.698 195.85 3.734 195.652 3.806C195.454 3.878 195.271 3.953 195.103 4.031C194.941 4.103 194.788 4.139 194.644 4.139C194.5 4.139 194.386 4.091 194.302 3.995C194.224 3.899 194.185 3.776 194.185 3.626C194.185 3.41 194.287 3.206 194.491 3.014C194.701 2.822 194.977 2.666 195.319 2.546C195.661 2.426 196.033 2.366 196.435 2.366C196.921 2.366 197.338 2.483 197.686 2.717C198.034 2.951 198.298 3.293 198.478 3.743C198.634 4.127 198.745 4.556 198.811 5.03C198.877 5.504 198.91 6.011 198.91 6.551C198.91 6.959 198.889 7.274 198.847 7.496C198.805 7.718 198.739 7.874 198.649 7.964C198.565 8.048 198.451 8.09 198.307 8.09ZM196.318 7.082C196.516 7.082 196.717 7.055 196.921 7.001C197.125 6.941 197.296 6.854 197.434 6.74C197.572 6.626 197.641 6.485 197.641 6.317C197.641 6.173 197.581 6.056 197.461 5.966C197.347 5.87 197.194 5.798 197.002 5.75C196.816 5.702 196.615 5.678 196.399 5.678C196.033 5.678 195.754 5.741 195.562 5.867C195.376 5.993 195.283 6.161 195.283 6.371C195.283 6.599 195.37 6.776 195.544 6.902C195.724 7.022 195.982 7.082 196.318 7.082ZM200.008 3.941C200.008 3.365 200.062 2.951 200.17 2.699C200.278 2.441 200.431 2.312 200.629 2.312C200.785 2.312 200.908 2.378 200.998 2.51C201.088 2.636 201.154 2.795 201.196 2.987C201.238 3.173 201.259 3.362 201.259 3.554L201.214 3.536C201.316 3.212 201.472 2.933 201.682 2.699C201.898 2.465 202.156 2.348 202.456 2.348C202.81 2.348 203.071 2.495 203.239 2.789C203.407 3.077 203.491 3.437 203.491 3.869C203.491 4.445 203.425 4.847 203.293 5.075C203.161 5.303 202.984 5.417 202.762 5.417C202.6 5.417 202.48 5.351 202.402 5.219C202.33 5.087 202.306 4.853 202.33 4.517C202.354 4.163 202.333 3.917 202.267 3.779C202.201 3.641 202.096 3.572 201.952 3.572C201.778 3.572 201.634 3.683 201.52 3.905C201.412 4.121 201.358 4.388 201.358 4.706C201.358 4.832 201.373 4.991 201.403 5.183C201.433 5.375 201.466 5.585 201.502 5.813C201.538 6.035 201.571 6.257 201.601 6.479C201.631 6.701 201.646 6.905 201.646 7.091C201.646 7.421 201.595 7.658 201.493 7.802C201.391 7.946 201.247 8.018 201.061 8.018C200.851 8.018 200.689 7.952 200.575 7.82C200.461 7.682 200.374 7.46 200.314 7.154C200.266 6.878 200.218 6.551 200.17 6.173C200.122 5.795 200.083 5.408 200.053 5.012C200.023 4.616 200.008 4.259 200.008 3.941ZM208.504 2.42C208.666 2.42 208.801 2.516 208.909 2.708C209.017 2.894 209.092 3.191 209.134 3.599L208.945 3.77C209.053 3.35 209.254 3.029 209.548 2.807C209.842 2.585 210.19 2.474 210.592 2.474C210.964 2.474 211.294 2.57 211.582 2.762C211.87 2.954 212.095 3.245 212.257 3.635C212.425 4.019 212.509 4.502 212.509 5.084C212.509 6.026 212.338 6.722 211.996 7.172C211.66 7.616 211.201 7.838 210.619 7.838C210.199 7.838 209.869 7.748 209.629 7.568C209.389 7.388 209.221 7.169 209.125 6.911L209.233 6.857C209.281 7.217 209.32 7.574 209.35 7.928C209.386 8.276 209.404 8.582 209.404 8.846C209.404 9.116 209.356 9.344 209.26 9.53C209.164 9.716 209.011 9.809 208.801 9.809C208.597 9.809 208.444 9.731 208.342 9.575C208.24 9.419 208.165 9.212 208.117 8.954C208.081 8.69 208.045 8.351 208.009 7.937C207.973 7.523 207.943 7.076 207.919 6.596C207.901 6.116 207.892 5.648 207.892 5.192C207.892 4.724 207.907 4.286 207.937 3.878C207.973 3.464 208.015 3.128 208.063 2.87C208.105 2.72 208.159 2.609 208.225 2.537C208.297 2.459 208.39 2.42 208.504 2.42ZM210.223 3.509C209.899 3.509 209.638 3.671 209.44 3.995C209.248 4.313 209.152 4.721 209.152 5.219C209.152 5.729 209.248 6.11 209.44 6.362C209.638 6.614 209.893 6.74 210.205 6.74C210.565 6.74 210.823 6.599 210.979 6.317C211.141 6.029 211.222 5.657 211.222 5.201C211.222 4.619 211.123 4.193 210.925 3.923C210.727 3.647 210.493 3.509 210.223 3.509ZM215.94 8.072C215.274 8.072 214.743 7.973 214.347 7.775C213.951 7.577 213.666 7.292 213.492 6.92C213.318 6.548 213.231 6.104 213.231 5.588C213.231 4.934 213.351 4.379 213.591 3.923C213.837 3.461 214.173 3.107 214.599 2.861C215.031 2.615 215.52 2.492 216.066 2.492C216.708 2.492 217.179 2.642 217.479 2.942C217.779 3.236 217.929 3.623 217.929 4.103C217.929 4.487 217.827 4.82 217.623 5.102C217.425 5.378 217.149 5.591 216.795 5.741C216.441 5.891 216.033 5.966 215.571 5.966C215.313 5.966 215.064 5.933 214.824 5.867C214.584 5.801 214.368 5.711 214.176 5.597L214.392 5.201C214.374 5.345 214.365 5.489 214.365 5.633C214.365 6.053 214.497 6.356 214.761 6.542C215.025 6.722 215.4 6.812 215.886 6.812C216.264 6.812 216.567 6.779 216.795 6.713C217.023 6.647 217.215 6.584 217.371 6.524C217.527 6.458 217.68 6.425 217.83 6.425C217.914 6.425 217.989 6.449 218.055 6.497C218.127 6.539 218.184 6.602 218.226 6.686C218.274 6.77 218.298 6.872 218.298 6.992C218.298 7.172 218.208 7.346 218.028 7.514C217.848 7.676 217.581 7.811 217.227 7.919C216.879 8.021 216.45 8.072 215.94 8.072ZM215.418 5.129C215.844 5.129 216.186 5.039 216.444 4.859C216.702 4.679 216.831 4.457 216.831 4.193C216.831 3.983 216.759 3.812 216.615 3.68C216.477 3.542 216.258 3.473 215.958 3.473C215.676 3.473 215.421 3.527 215.193 3.635C214.971 3.737 214.797 3.872 214.671 4.04C214.545 4.208 214.482 4.391 214.482 4.589C214.482 4.763 214.563 4.898 214.725 4.994C214.893 5.084 215.124 5.129 215.418 5.129ZM219.089 3.941C219.089 3.365 219.143 2.951 219.251 2.699C219.359 2.441 219.512 2.312 219.71 2.312C219.866 2.312 219.989 2.378 220.079 2.51C220.169 2.636 220.235 2.795 220.277 2.987C220.319 3.173 220.34 3.362 220.34 3.554L220.295 3.536C220.397 3.212 220.553 2.933 220.763 2.699C220.979 2.465 221.237 2.348 221.537 2.348C221.891 2.348 222.152 2.495 222.32 2.789C222.488 3.077 222.572 3.437 222.572 3.869C222.572 4.445 222.506 4.847 222.374 5.075C222.242 5.303 222.065 5.417 221.843 5.417C221.681 5.417 221.561 5.351 221.483 5.219C221.411 5.087 221.387 4.853 221.411 4.517C221.435 4.163 221.414 3.917 221.348 3.779C221.282 3.641 221.177 3.572 221.033 3.572C220.859 3.572 220.715 3.683 220.601 3.905C220.493 4.121 220.439 4.388 220.439 4.706C220.439 4.832 220.454 4.991 220.484 5.183C220.514 5.375 220.547 5.585 220.583 5.813C220.619 6.035 220.652 6.257 220.682 6.479C220.712 6.701 220.727 6.905 220.727 7.091C220.727 7.421 220.676 7.658 220.574 7.802C220.472 7.946 220.328 8.018 220.142 8.018C219.932 8.018 219.77 7.952 219.656 7.82C219.542 7.682 219.455 7.46 219.395 7.154C219.347 6.878 219.299 6.551 219.251 6.173C219.203 5.795 219.164 5.408 219.134 5.012C219.104 4.616 219.089 4.259 219.089 3.941ZM225.646 2.366C226.18 2.366 226.564 2.444 226.798 2.6C227.032 2.756 227.149 2.957 227.149 3.203C227.149 3.347 227.098 3.467 226.996 3.563C226.9 3.653 226.762 3.698 226.582 3.698C226.396 3.698 226.201 3.671 225.997 3.617C225.799 3.563 225.568 3.536 225.304 3.536C224.998 3.536 224.77 3.596 224.62 3.716C224.47 3.836 224.395 3.989 224.395 4.175C224.395 4.349 224.461 4.487 224.593 4.589C224.731 4.685 224.992 4.757 225.376 4.805C225.802 4.853 226.153 4.931 226.429 5.039C226.711 5.141 226.921 5.297 227.059 5.507C227.197 5.711 227.266 5.993 227.266 6.353C227.266 6.923 227.065 7.346 226.663 7.622C226.261 7.898 225.706 8.036 224.998 8.036C224.548 8.036 224.191 8 223.927 7.928C223.663 7.856 223.471 7.754 223.351 7.622C223.237 7.49 223.18 7.334 223.18 7.154C223.18 6.998 223.231 6.878 223.333 6.794C223.441 6.704 223.567 6.659 223.711 6.659C223.849 6.659 223.996 6.677 224.152 6.713C224.308 6.743 224.473 6.776 224.647 6.812C224.821 6.848 225.001 6.866 225.187 6.866C225.787 6.866 226.087 6.68 226.087 6.308C226.087 6.182 226.057 6.08 225.997 6.002C225.937 5.924 225.829 5.861 225.673 5.813C225.517 5.759 225.289 5.717 224.989 5.687C224.629 5.651 224.317 5.591 224.053 5.507C223.789 5.417 223.585 5.273 223.441 5.075C223.297 4.871 223.225 4.592 223.225 4.238C223.225 3.68 223.435 3.23 223.855 2.888C224.275 2.54 224.872 2.366 225.646 2.366ZM230.697 8.072C230.031 8.072 229.5 7.973 229.104 7.775C228.708 7.577 228.423 7.292 228.249 6.92C228.075 6.548 227.988 6.104 227.988 5.588C227.988 4.934 228.108 4.379 228.348 3.923C228.594 3.461 228.93 3.107 229.356 2.861C229.788 2.615 230.277 2.492 230.823 2.492C231.465 2.492 231.936 2.642 232.236 2.942C232.536 3.236 232.686 3.623 232.686 4.103C232.686 4.487 232.584 4.82 232.38 5.102C232.182 5.378 231.906 5.591 231.552 5.741C231.198 5.891 230.79 5.966 230.328 5.966C230.07 5.966 229.821 5.933 229.581 5.867C229.341 5.801 229.125 5.711 228.933 5.597L229.149 5.201C229.131 5.345 229.122 5.489 229.122 5.633C229.122 6.053 229.254 6.356 229.518 6.542C229.782 6.722 230.157 6.812 230.643 6.812C231.021 6.812 231.324 6.779 231.552 6.713C231.78 6.647 231.972 6.584 232.128 6.524C232.284 6.458 232.437 6.425 232.587 6.425C232.671 6.425 232.746 6.449 232.812 6.497C232.884 6.539 232.941 6.602 232.983 6.686C233.031 6.77 233.055 6.872 233.055 6.992C233.055 7.172 232.965 7.346 232.785 7.514C232.605 7.676 232.338 7.811 231.984 7.919C231.636 8.021 231.207 8.072 230.697 8.072ZM230.175 5.129C230.601 5.129 230.943 5.039 231.201 4.859C231.459 4.679 231.588 4.457 231.588 4.193C231.588 3.983 231.516 3.812 231.372 3.68C231.234 3.542 231.015 3.473 230.715 3.473C230.433 3.473 230.178 3.527 229.95 3.635C229.728 3.737 229.554 3.872 229.428 4.04C229.302 4.208 229.239 4.391 229.239 4.589C229.239 4.763 229.32 4.898 229.482 4.994C229.65 5.084 229.881 5.129 230.175 5.129ZM235.565 7.856C235.001 7.856 234.542 7.64 234.188 7.208C233.834 6.77 233.657 6.107 233.657 5.219C233.657 4.271 233.828 3.578 234.17 3.14C234.512 2.702 234.962 2.483 235.52 2.483C235.85 2.483 236.141 2.567 236.393 2.735C236.645 2.903 236.861 3.14 237.041 3.446L236.969 3.572C236.951 3.488 236.936 3.398 236.924 3.302C236.912 3.206 236.906 3.134 236.906 3.086C236.906 2.84 236.945 2.651 237.023 2.519C237.107 2.381 237.236 2.312 237.41 2.312C237.602 2.312 237.752 2.39 237.86 2.546C237.974 2.702 238.061 2.924 238.121 3.212C238.199 3.506 238.265 3.881 238.319 4.337C238.373 4.787 238.4 5.243 238.4 5.705C238.4 6.281 238.379 6.764 238.337 7.154C238.295 7.544 238.226 7.868 238.13 8.126C238.034 8.384 237.908 8.609 237.752 8.801C237.494 9.113 237.161 9.35 236.753 9.512C236.351 9.68 235.886 9.764 235.358 9.764C234.98 9.764 234.677 9.728 234.449 9.656C234.221 9.59 234.056 9.497 233.954 9.377C233.858 9.263 233.81 9.134 233.81 8.99C233.81 8.84 233.852 8.714 233.936 8.612C234.02 8.516 234.146 8.468 234.314 8.468C234.464 8.468 234.638 8.492 234.836 8.54C235.04 8.588 235.28 8.612 235.556 8.612C236.138 8.612 236.549 8.474 236.789 8.198C237.035 7.928 237.158 7.538 237.158 7.028C237.158 6.89 237.149 6.728 237.131 6.542L237.257 6.587C237.107 6.971 236.885 7.28 236.591 7.514C236.297 7.742 235.955 7.856 235.565 7.856ZM235.907 6.749C236.099 6.749 236.291 6.698 236.483 6.596C236.675 6.494 236.834 6.326 236.96 6.092C237.086 5.858 237.149 5.543 237.149 5.147C237.149 4.673 237.038 4.286 236.816 3.986C236.594 3.686 236.282 3.536 235.88 3.536C235.532 3.536 235.277 3.668 235.115 3.932C234.953 4.196 234.872 4.595 234.872 5.129C234.872 5.639 234.953 6.038 235.115 6.326C235.277 6.608 235.541 6.749 235.907 6.749ZM240.289 1.097C240.529 1.097 240.7 1.163 240.802 1.295C240.91 1.427 240.964 1.58 240.964 1.754C240.964 1.97 240.898 2.138 240.766 2.258C240.64 2.372 240.46 2.429 240.226 2.429C239.998 2.429 239.827 2.366 239.713 2.24C239.599 2.108 239.542 1.955 239.542 1.781C239.542 1.553 239.611 1.382 239.749 1.268C239.887 1.154 240.067 1.097 240.289 1.097ZM240.343 3.104C240.535 3.104 240.685 3.284 240.793 3.644C240.907 4.004 240.964 4.577 240.964 5.363C240.964 6.329 240.895 7.025 240.757 7.451C240.619 7.877 240.409 8.09 240.127 8.09C239.911 8.09 239.752 7.934 239.65 7.622C239.548 7.304 239.497 6.752 239.497 5.966C239.497 5 239.575 4.283 239.731 3.815C239.893 3.341 240.097 3.104 240.343 3.104ZM244.477 2.42C244.639 2.42 244.774 2.516 244.882 2.708C244.99 2.894 245.065 3.191 245.107 3.599L244.918 3.77C245.026 3.35 245.227 3.029 245.521 2.807C245.815 2.585 246.163 2.474 246.565 2.474C246.937 2.474 247.267 2.57 247.555 2.762C247.843 2.954 248.068 3.245 248.23 3.635C248.398 4.019 248.482 4.502 248.482 5.084C248.482 6.026 248.311 6.722 247.969 7.172C247.633 7.616 247.174 7.838 246.592 7.838C246.172 7.838 245.842 7.748 245.602 7.568C245.362 7.388 245.194 7.169 245.098 6.911L245.206 6.857C245.254 7.217 245.293 7.574 245.323 7.928C245.359 8.276 245.377 8.582 245.377 8.846C245.377 9.116 245.329 9.344 245.233 9.53C245.137 9.716 244.984 9.809 244.774 9.809C244.57 9.809 244.417 9.731 244.315 9.575C244.213 9.419 244.138 9.212 244.09 8.954C244.054 8.69 244.018 8.351 243.982 7.937C243.946 7.523 243.916 7.076 243.892 6.596C243.874 6.116 243.865 5.648 243.865 5.192C243.865 4.724 243.88 4.286 243.91 3.878C243.946 3.464 243.988 3.128 244.036 2.87C244.078 2.72 244.132 2.609 244.198 2.537C244.27 2.459 244.363 2.42 244.477 2.42ZM246.196 3.509C245.872 3.509 245.611 3.671 245.413 3.995C245.221 4.313 245.125 4.721 245.125 5.219C245.125 5.729 245.221 6.11 245.413 6.362C245.611 6.614 245.866 6.74 246.178 6.74C246.538 6.74 246.796 6.599 246.952 6.317C247.114 6.029 247.195 5.657 247.195 5.201C247.195 4.619 247.096 4.193 246.898 3.923C246.7 3.647 246.466 3.509 246.196 3.509ZM253.327 8.09C253.123 8.09 252.982 8.012 252.904 7.856C252.832 7.694 252.79 7.439 252.778 7.091L252.868 7.136C252.532 7.79 251.896 8.117 250.96 8.117C250.534 8.117 250.18 8.042 249.898 7.892C249.616 7.736 249.406 7.532 249.268 7.28C249.136 7.022 249.07 6.743 249.07 6.443C249.07 5.927 249.25 5.519 249.61 5.219C249.97 4.913 250.447 4.76 251.041 4.76C251.431 4.76 251.77 4.817 252.058 4.931C252.346 5.045 252.592 5.204 252.796 5.408L252.643 5.39C252.601 4.784 252.469 4.352 252.247 4.094C252.031 3.83 251.722 3.698 251.32 3.698C251.086 3.698 250.87 3.734 250.672 3.806C250.474 3.878 250.291 3.953 250.123 4.031C249.961 4.103 249.808 4.139 249.664 4.139C249.52 4.139 249.406 4.091 249.322 3.995C249.244 3.899 249.205 3.776 249.205 3.626C249.205 3.41 249.307 3.206 249.511 3.014C249.721 2.822 249.997 2.666 250.339 2.546C250.681 2.426 251.053 2.366 251.455 2.366C251.941 2.366 252.358 2.483 252.706 2.717C253.054 2.951 253.318 3.293 253.498 3.743C253.654 4.127 253.765 4.556 253.831 5.03C253.897 5.504 253.93 6.011 253.93 6.551C253.93 6.959 253.909 7.274 253.867 7.496C253.825 7.718 253.759 7.874 253.669 7.964C253.585 8.048 253.471 8.09 253.327 8.09ZM251.338 7.082C251.536 7.082 251.737 7.055 251.941 7.001C252.145 6.941 252.316 6.854 252.454 6.74C252.592 6.626 252.661 6.485 252.661 6.317C252.661 6.173 252.601 6.056 252.481 5.966C252.367 5.87 252.214 5.798 252.022 5.75C251.836 5.702 251.635 5.678 251.419 5.678C251.053 5.678 250.774 5.741 250.582 5.867C250.396 5.993 250.303 6.161 250.303 6.371C250.303 6.599 250.39 6.776 250.564 6.902C250.744 7.022 251.002 7.082 251.338 7.082ZM255.946 2.402C256.138 2.402 256.267 2.48 256.333 2.636C256.405 2.792 256.441 3.023 256.441 3.329C256.441 3.401 256.435 3.479 256.423 3.563C256.417 3.641 256.405 3.713 256.387 3.779L256.369 3.599C256.513 3.209 256.735 2.906 257.035 2.69C257.335 2.468 257.653 2.357 257.989 2.357C258.361 2.357 258.67 2.462 258.916 2.672C259.168 2.882 259.354 3.176 259.474 3.554C259.6 3.932 259.663 4.379 259.663 4.895C259.663 5.213 259.648 5.528 259.618 5.84C259.594 6.146 259.558 6.428 259.51 6.686C259.468 6.938 259.42 7.145 259.366 7.307C259.294 7.511 259.201 7.664 259.087 7.766C258.973 7.862 258.838 7.91 258.682 7.91C258.526 7.91 258.406 7.853 258.322 7.739C258.238 7.625 258.196 7.472 258.196 7.28C258.196 7.076 258.211 6.83 258.241 6.542C258.271 6.248 258.298 5.951 258.322 5.651C258.352 5.345 258.367 5.069 258.367 4.823C258.367 3.983 258.091 3.563 257.539 3.563C257.245 3.563 256.999 3.695 256.801 3.959C256.603 4.217 256.471 4.586 256.405 5.066C256.387 5.228 256.378 5.429 256.378 5.669C256.378 5.909 256.378 6.149 256.378 6.389C256.384 6.623 256.378 6.821 256.36 6.983C256.336 7.343 256.267 7.601 256.153 7.757C256.045 7.913 255.895 7.991 255.703 7.991C255.481 7.991 255.313 7.889 255.199 7.685C255.085 7.475 255.028 7.124 255.028 6.632C255.028 6.38 255.034 6.098 255.046 5.786C255.058 5.474 255.073 5.162 255.091 4.85C255.115 4.532 255.142 4.244 255.172 3.986C255.232 3.5 255.319 3.116 255.433 2.834C255.547 2.546 255.718 2.402 255.946 2.402ZM260.803 9.872C260.563 9.872 260.347 9.821 260.155 9.719C259.963 9.617 259.81 9.488 259.696 9.332C259.582 9.176 259.525 9.017 259.525 8.855C259.525 8.717 259.561 8.609 259.633 8.531C259.705 8.453 259.798 8.414 259.912 8.414C260.11 8.414 260.323 8.489 260.551 8.639C260.779 8.789 260.995 8.996 261.199 9.26L261.064 9.242C260.962 8.402 260.884 7.598 260.83 6.83C260.782 6.056 260.758 5.363 260.758 4.751C260.758 4.193 260.803 3.776 260.893 3.5C260.989 3.218 261.145 3.077 261.361 3.077C261.607 3.077 261.802 3.269 261.946 3.653C262.09 4.037 262.162 4.685 262.162 5.597C262.162 5.999 262.15 6.413 262.126 6.839C262.102 7.259 262.066 7.658 262.018 8.036C261.976 8.414 261.916 8.732 261.838 8.99C261.742 9.302 261.61 9.527 261.442 9.665C261.28 9.803 261.067 9.872 260.803 9.872ZM261.217 2.33C261.025 2.33 260.869 2.288 260.749 2.204C260.635 2.114 260.578 1.979 260.578 1.799C260.578 1.595 260.647 1.424 260.785 1.286C260.929 1.142 261.13 1.07 261.388 1.07C261.604 1.07 261.769 1.124 261.883 1.232C261.997 1.334 262.054 1.472 262.054 1.646C262.054 1.862 261.976 2.03 261.82 2.15C261.664 2.27 261.463 2.33 261.217 2.33ZM267.196 8.09C266.992 8.09 266.851 8.012 266.773 7.856C266.701 7.694 266.659 7.439 266.647 7.091L266.737 7.136C266.401 7.79 265.765 8.117 264.829 8.117C264.403 8.117 264.049 8.042 263.767 7.892C263.485 7.736 263.275 7.532 263.137 7.28C263.005 7.022 262.939 6.743 262.939 6.443C262.939 5.927 263.119 5.519 263.479 5.219C263.839 4.913 264.316 4.76 264.91 4.76C265.3 4.76 265.639 4.817 265.927 4.931C266.215 5.045 266.461 5.204 266.665 5.408L266.512 5.39C266.47 4.784 266.338 4.352 266.116 4.094C265.9 3.83 265.591 3.698 265.189 3.698C264.955 3.698 264.739 3.734 264.541 3.806C264.343 3.878 264.16 3.953 263.992 4.031C263.83 4.103 263.677 4.139 263.533 4.139C263.389 4.139 263.275 4.091 263.191 3.995C263.113 3.899 263.074 3.776 263.074 3.626C263.074 3.41 263.176 3.206 263.38 3.014C263.59 2.822 263.866 2.666 264.208 2.546C264.55 2.426 264.922 2.366 265.324 2.366C265.81 2.366 266.227 2.483 266.575 2.717C266.923 2.951 267.187 3.293 267.367 3.743C267.523 4.127 267.634 4.556 267.7 5.03C267.766 5.504 267.799 6.011 267.799 6.551C267.799 6.959 267.778 7.274 267.736 7.496C267.694 7.718 267.628 7.874 267.538 7.964C267.454 8.048 267.34 8.09 267.196 8.09ZM265.207 7.082C265.405 7.082 265.606 7.055 265.81 7.001C266.014 6.941 266.185 6.854 266.323 6.74C266.461 6.626 266.53 6.485 266.53 6.317C266.53 6.173 266.47 6.056 266.35 5.966C266.236 5.87 266.083 5.798 265.891 5.75C265.705 5.702 265.504 5.678 265.288 5.678C264.922 5.678 264.643 5.741 264.451 5.867C264.265 5.993 264.172 6.161 264.172 6.371C264.172 6.599 264.259 6.776 264.433 6.902C264.613 7.022 264.871 7.082 265.207 7.082ZM269.815 2.402C270.007 2.402 270.136 2.48 270.202 2.636C270.274 2.792 270.31 3.023 270.31 3.329C270.31 3.401 270.304 3.479 270.292 3.563C270.286 3.641 270.274 3.713 270.256 3.779L270.238 3.599C270.382 3.209 270.604 2.906 270.904 2.69C271.204 2.468 271.522 2.357 271.858 2.357C272.23 2.357 272.539 2.462 272.785 2.672C273.037 2.882 273.223 3.176 273.343 3.554C273.469 3.932 273.532 4.379 273.532 4.895C273.532 5.213 273.517 5.528 273.487 5.84C273.463 6.146 273.427 6.428 273.379 6.686C273.337 6.938 273.289 7.145 273.235 7.307C273.163 7.511 273.07 7.664 272.956 7.766C272.842 7.862 272.707 7.91 272.551 7.91C272.395 7.91 272.275 7.853 272.191 7.739C272.107 7.625 272.065 7.472 272.065 7.28C272.065 7.076 272.08 6.83 272.11 6.542C272.14 6.248 272.167 5.951 272.191 5.651C272.221 5.345 272.236 5.069 272.236 4.823C272.236 3.983 271.96 3.563 271.408 3.563C271.114 3.563 270.868 3.695 270.67 3.959C270.472 4.217 270.34 4.586 270.274 5.066C270.256 5.228 270.247 5.429 270.247 5.669C270.247 5.909 270.247 6.149 270.247 6.389C270.253 6.623 270.247 6.821 270.229 6.983C270.205 7.343 270.136 7.601 270.022 7.757C269.914 7.913 269.764 7.991 269.572 7.991C269.35 7.991 269.182 7.889 269.068 7.685C268.954 7.475 268.897 7.124 268.897 6.632C268.897 6.38 268.903 6.098 268.915 5.786C268.927 5.474 268.942 5.162 268.96 4.85C268.984 4.532 269.011 4.244 269.041 3.986C269.101 3.5 269.188 3.116 269.302 2.834C269.416 2.546 269.587 2.402 269.815 2.402ZM276.346 7.856C275.782 7.856 275.323 7.64 274.969 7.208C274.615 6.77 274.438 6.107 274.438 5.219C274.438 4.271 274.609 3.578 274.951 3.14C275.293 2.702 275.743 2.483 276.301 2.483C276.631 2.483 276.922 2.567 277.174 2.735C277.426 2.903 277.642 3.14 277.822 3.446L277.75 3.572C277.732 3.488 277.717 3.398 277.705 3.302C277.693 3.206 277.687 3.134 277.687 3.086C277.687 2.84 277.726 2.651 277.804 2.519C277.888 2.381 278.017 2.312 278.191 2.312C278.383 2.312 278.533 2.39 278.641 2.546C278.755 2.702 278.842 2.924 278.902 3.212C278.98 3.506 279.046 3.881 279.1 4.337C279.154 4.787 279.181 5.243 279.181 5.705C279.181 6.281 279.16 6.764 279.118 7.154C279.076 7.544 279.007 7.868 278.911 8.126C278.815 8.384 278.689 8.609 278.533 8.801C278.275 9.113 277.942 9.35 277.534 9.512C277.132 9.68 276.667 9.764 276.139 9.764C275.761 9.764 275.458 9.728 275.23 9.656C275.002 9.59 274.837 9.497 274.735 9.377C274.639 9.263 274.591 9.134 274.591 8.99C274.591 8.84 274.633 8.714 274.717 8.612C274.801 8.516 274.927 8.468 275.095 8.468C275.245 8.468 275.419 8.492 275.617 8.54C275.821 8.588 276.061 8.612 276.337 8.612C276.919 8.612 277.33 8.474 277.57 8.198C277.816 7.928 277.939 7.538 277.939 7.028C277.939 6.89 277.93 6.728 277.912 6.542L278.038 6.587C277.888 6.971 277.666 7.28 277.372 7.514C277.078 7.742 276.736 7.856 276.346 7.856ZM276.688 6.749C276.88 6.749 277.072 6.698 277.264 6.596C277.456 6.494 277.615 6.326 277.741 6.092C277.867 5.858 277.93 5.543 277.93 5.147C277.93 4.673 277.819 4.286 277.597 3.986C277.375 3.686 277.063 3.536 276.661 3.536C276.313 3.536 276.058 3.668 275.896 3.932C275.734 4.196 275.653 4.595 275.653 5.129C275.653 5.639 275.734 6.038 275.896 6.326C276.058 6.608 276.322 6.749 276.688 6.749Z" fill="black"/>
</svg>
