<svg width="162" height="17" viewBox="0 0 162 17" fill="none" xmlns="http://www.w3.org/2000/svg">
<path d="M1.112 13.16C0.92 13.16 0.765333 13.096 0.648 12.968C0.530667 12.8293 0.434667 12.6107 0.36 12.312C0.285333 11.9707 0.216 11.4373 0.152 10.712C0.088 9.976 0.056 9.15467 0.056 8.248C0.056 7.26667 0.0826667 6.312 0.136 5.384C0.2 4.44533 0.290667 3.61867 0.408 2.904C0.493333 2.43467 0.616 2.088 0.776 1.864C0.946667 1.62933 1.18133 1.512 1.48 1.512C1.672 1.512 1.84267 1.576 1.992 1.704C2.14133 1.832 2.25333 2.06133 2.328 2.392C2.41333 2.72267 2.456 3.192 2.456 3.8C2.456 4.09867 2.44533 4.44 2.424 4.824C2.40267 5.19733 2.37067 5.61333 2.328 6.072H2.392C3.24533 4.89867 3.99733 3.96533 4.648 3.272C5.29867 2.568 5.86933 2.06133 6.36 1.752C6.86133 1.44267 7.29867 1.288 7.672 1.288C7.97067 1.288 8.19467 1.384 8.344 1.576C8.504 1.768 8.584 2.00267 8.584 2.28C8.584 2.86667 8.14133 3.57067 7.256 4.392C6.38133 5.21333 4.968 6.2 3.016 7.352L3.144 7.048C4.82933 8.11467 6.104 9.05867 6.968 9.88C7.832 10.6907 8.264 11.4107 8.264 12.04C8.264 12.3173 8.17333 12.5467 7.992 12.728C7.82133 12.8987 7.56533 12.984 7.224 12.984C6.79733 12.984 6.344 12.84 5.864 12.552C5.384 12.2533 4.85067 11.7573 4.264 11.064C3.688 10.36 3.032 9.40533 2.296 8.2H2.232C2.25333 8.44533 2.26933 8.70133 2.28 8.968C2.29067 9.224 2.296 9.48 2.296 9.736C2.296 10.9627 2.21067 11.8427 2.04 12.376C1.86933 12.8987 1.56 13.16 1.112 13.16ZM14.4248 13.128C13.2408 13.128 12.2968 12.952 11.5928 12.6C10.8888 12.248 10.3821 11.7413 10.0728 11.08C9.76342 10.4187 9.60875 9.62933 9.60875 8.712C9.60875 7.54933 9.82208 6.56267 10.2488 5.752C10.6861 4.93067 11.2834 4.30133 12.0408 3.864C12.8087 3.42667 13.6781 3.208 14.6488 3.208C15.7901 3.208 16.6274 3.47467 17.1608 4.008C17.6941 4.53067 17.9608 5.21867 17.9608 6.072C17.9608 6.75467 17.7794 7.34667 17.4167 7.848C17.0648 8.33867 16.5741 8.71733 15.9448 8.984C15.3154 9.25067 14.5901 9.384 13.7688 9.384C13.3101 9.384 12.8674 9.32533 12.4408 9.208C12.0141 9.09067 11.6301 8.93067 11.2888 8.728L11.6728 8.024C11.6408 8.28 11.6248 8.536 11.6248 8.792C11.6248 9.53867 11.8594 10.0773 12.3288 10.408C12.7981 10.728 13.4648 10.888 14.3288 10.888C15.0008 10.888 15.5394 10.8293 15.9448 10.712C16.3501 10.5947 16.6914 10.4827 16.9688 10.376C17.2461 10.2587 17.5181 10.2 17.7847 10.2C17.9341 10.2 18.0674 10.2427 18.1848 10.328C18.3128 10.4027 18.4141 10.5147 18.4888 10.664C18.5741 10.8133 18.6168 10.9947 18.6168 11.208C18.6168 11.528 18.4568 11.8373 18.1368 12.136C17.8168 12.424 17.3421 12.664 16.7128 12.856C16.0941 13.0373 15.3314 13.128 14.4248 13.128ZM13.4968 7.896C14.2541 7.896 14.8621 7.736 15.3208 7.416C15.7794 7.096 16.0088 6.70133 16.0088 6.232C16.0088 5.85867 15.8808 5.55467 15.6248 5.32C15.3794 5.07467 14.9901 4.952 14.4568 4.952C13.9554 4.952 13.5021 5.048 13.0968 5.24C12.7021 5.42133 12.3928 5.66133 12.1688 5.96C11.9448 6.25867 11.8328 6.584 11.8328 6.936C11.8328 7.24533 11.9768 7.48533 12.2648 7.656C12.5634 7.816 12.9741 7.896 13.4968 7.896ZM24.0709 2.984C25.0202 2.984 25.7029 3.12267 26.1189 3.4C26.5349 3.67733 26.7429 4.03467 26.7429 4.472C26.7429 4.728 26.6522 4.94133 26.4709 5.112C26.3002 5.272 26.0549 5.352 25.7349 5.352C25.4042 5.352 25.0575 5.304 24.6949 5.208C24.3429 5.112 23.9322 5.064 23.4629 5.064C22.9189 5.064 22.5135 5.17067 22.2469 5.384C21.9802 5.59733 21.8469 5.86933 21.8469 6.2C21.8469 6.50933 21.9642 6.75467 22.1989 6.936C22.4442 7.10667 22.9082 7.23467 23.5909 7.32C24.3482 7.40533 24.9722 7.544 25.4629 7.736C25.9642 7.91733 26.3375 8.19467 26.5829 8.568C26.8282 8.93067 26.9509 9.432 26.9509 10.072C26.9509 11.0853 26.5935 11.8373 25.8789 12.328C25.1642 12.8187 24.1775 13.064 22.9189 13.064C22.1189 13.064 21.4842 13 21.0149 12.872C20.5455 12.744 20.2042 12.5627 19.9909 12.328C19.7882 12.0933 19.6869 11.816 19.6869 11.496C19.6869 11.2187 19.7775 11.0053 19.9589 10.856C20.1509 10.696 20.3749 10.616 20.6309 10.616C20.8762 10.616 21.1375 10.648 21.4149 10.712C21.6922 10.7653 21.9855 10.824 22.2949 10.888C22.6042 10.952 22.9242 10.984 23.2549 10.984C24.3215 10.984 24.8549 10.6533 24.8549 9.992C24.8549 9.768 24.8015 9.58667 24.6949 9.448C24.5882 9.30933 24.3962 9.19733 24.1189 9.112C23.8415 9.016 23.4362 8.94133 22.9029 8.888C22.2629 8.824 21.7082 8.71733 21.2389 8.568C20.7695 8.408 20.4069 8.152 20.1509 7.8C19.8949 7.43733 19.7669 6.94133 19.7669 6.312C19.7669 5.32 20.1402 4.52 20.8869 3.912C21.6335 3.29333 22.6949 2.984 24.0709 2.984ZM29.9778 0.728C30.4044 0.728 30.7084 0.845333 30.8898 1.08C31.0818 1.31467 31.1778 1.58667 31.1778 1.896C31.1778 2.28 31.0604 2.57867 30.8258 2.792C30.6018 2.99467 30.2818 3.096 29.8658 3.096C29.4604 3.096 29.1564 2.984 28.9538 2.76C28.7511 2.52533 28.6497 2.25333 28.6497 1.944C28.6497 1.53867 28.7724 1.23467 29.0178 1.032C29.2631 0.829333 29.5831 0.728 29.9778 0.728ZM30.0738 4.296C30.4151 4.296 30.6818 4.616 30.8738 5.256C31.0764 5.896 31.1778 6.91467 31.1778 8.312C31.1778 10.0293 31.0551 11.2667 30.8098 12.024C30.5644 12.7813 30.1911 13.16 29.6898 13.16C29.3058 13.16 29.0231 12.8827 28.8418 12.328C28.6604 11.7627 28.5698 10.7813 28.5698 9.384C28.5698 7.66667 28.7084 6.392 28.9858 5.56C29.2738 4.71733 29.6364 4.296 30.0738 4.296ZM40.0283 5.672C40.1349 5.23467 40.3216 4.84 40.5883 4.488C40.8656 4.136 41.1963 3.85867 41.5803 3.656C41.9749 3.44267 42.4069 3.336 42.8763 3.336C43.4309 3.336 43.9216 3.46933 44.3483 3.736C44.7749 4.00267 45.1109 4.44 45.3563 5.048C45.6123 5.656 45.7403 6.46667 45.7403 7.48C45.7403 8.00267 45.7189 8.53067 45.6763 9.064C45.6336 9.59733 45.5803 10.0933 45.5163 10.552C45.4523 11.0107 45.3829 11.3947 45.3083 11.704C45.2016 12.1307 45.0363 12.456 44.8123 12.68C44.5989 12.904 44.3269 13.016 43.9963 13.016C43.7189 13.016 43.5003 12.8933 43.3403 12.648C43.1803 12.4027 43.1003 12.0507 43.1003 11.592C43.1003 11.3787 43.1269 11.1067 43.1803 10.776C43.2336 10.4347 43.2923 10.0667 43.3563 9.672C43.4203 9.26667 43.4789 8.856 43.5323 8.44C43.5856 8.024 43.6123 7.62933 43.6123 7.256C43.6123 6.70133 43.5003 6.27467 43.2763 5.976C43.0523 5.66667 42.7376 5.512 42.3323 5.512C41.8843 5.512 41.5109 5.74667 41.2123 6.216C40.9243 6.67467 40.7536 7.34667 40.7003 8.232C40.6576 9.02133 40.6203 9.72533 40.5883 10.344C40.5563 10.952 40.4763 11.4533 40.3483 11.848C40.2629 12.1253 40.1403 12.3333 39.9803 12.472C39.8309 12.6107 39.6283 12.68 39.3723 12.68C39.0843 12.68 38.8549 12.5733 38.6843 12.36C38.5243 12.1467 38.4336 11.8107 38.4123 11.352C38.3909 10.968 38.3856 10.5147 38.3963 9.992C38.4069 9.46933 38.4123 8.952 38.4123 8.44C38.4229 7.91733 38.4176 7.48533 38.3963 7.144C38.3536 6.46133 38.2309 5.96 38.0283 5.64C37.8363 5.32 37.5429 5.16 37.1483 5.16C36.6896 5.16 36.3216 5.37333 36.0443 5.8C35.7776 6.22667 35.6123 6.81867 35.5483 7.576C35.5269 7.88533 35.5163 8.26933 35.5163 8.728C35.5269 9.176 35.5376 9.624 35.5483 10.072C35.5589 10.52 35.5536 10.8933 35.5323 11.192C35.5216 11.832 35.4203 12.2907 35.2283 12.568C35.0469 12.8453 34.7909 12.984 34.4603 12.984C34.0656 12.984 33.7776 12.856 33.5963 12.6C33.4256 12.344 33.3136 11.9333 33.2603 11.368C33.2176 10.8667 33.1856 10.3707 33.1643 9.88C33.1429 9.37867 33.1323 8.88267 33.1323 8.392C33.1323 7.89067 33.1429 7.34667 33.1643 6.76C33.1963 6.17333 33.2389 5.61867 33.2923 5.096C33.3563 4.56267 33.4683 4.11467 33.6283 3.752C33.7883 3.38933 34.0549 3.208 34.4283 3.208C34.7376 3.208 34.9563 3.36267 35.0843 3.672C35.2123 3.97067 35.2763 4.43467 35.2763 5.064C35.2763 5.27733 35.2603 5.47467 35.2283 5.656L35.1803 5.336C35.3936 4.64267 35.7349 4.104 36.2043 3.72C36.6736 3.32533 37.1963 3.128 37.7723 3.128C38.5296 3.128 39.1216 3.37333 39.5483 3.864C39.9749 4.344 40.2096 5.01067 40.2523 5.864L40.0283 5.672ZM48.7828 3.08C49.0708 3.08 49.3108 3.25067 49.5028 3.592C49.6948 3.92267 49.8281 4.45067 49.9028 5.176L49.5668 5.48C49.7588 4.73333 50.1161 4.16267 50.6388 3.768C51.1614 3.37333 51.7801 3.176 52.4948 3.176C53.1561 3.176 53.7428 3.34667 54.2548 3.688C54.7668 4.02933 55.1668 4.54667 55.4548 5.24C55.7534 5.92267 55.9028 6.78133 55.9028 7.816C55.9028 9.49067 55.5988 10.728 54.9908 11.528C54.3934 12.3173 53.5774 12.712 52.5428 12.712C51.7961 12.712 51.2094 12.552 50.7828 12.232C50.3561 11.912 50.0574 11.5227 49.8868 11.064L50.0788 10.968C50.1641 11.608 50.2334 12.2427 50.2868 12.872C50.3508 13.4907 50.3828 14.0347 50.3828 14.504C50.3828 14.984 50.2974 15.3893 50.1268 15.72C49.9561 16.0507 49.6841 16.216 49.3108 16.216C48.9481 16.216 48.6761 16.0773 48.4948 15.8C48.3134 15.5227 48.1801 15.1547 48.0948 14.696C48.0308 14.2267 47.9668 13.624 47.9028 12.888C47.8388 12.152 47.7854 11.3573 47.7428 10.504C47.7108 9.65067 47.6948 8.81867 47.6948 8.008C47.6948 7.176 47.7214 6.39733 47.7747 5.672C47.8388 4.936 47.9134 4.33867 47.9988 3.88C48.0734 3.61333 48.1694 3.416 48.2868 3.288C48.4148 3.14933 48.5801 3.08 48.7828 3.08ZM51.8388 5.016C51.2628 5.016 50.7988 5.304 50.4468 5.88C50.1054 6.44533 49.9348 7.17067 49.9348 8.056C49.9348 8.96267 50.1054 9.64 50.4468 10.088C50.7988 10.536 51.2521 10.76 51.8068 10.76C52.4468 10.76 52.9054 10.5093 53.1828 10.008C53.4708 9.496 53.6148 8.83467 53.6148 8.024C53.6148 6.98933 53.4388 6.232 53.0868 5.752C52.7348 5.26133 52.3188 5.016 51.8388 5.016ZM64.7229 12.904C64.4349 12.904 64.2109 12.808 64.0509 12.616C63.9015 12.4133 63.8002 12.1573 63.7469 11.848C63.6935 11.528 63.6669 11.192 63.6669 10.84L63.7469 10.776C63.6402 11.2347 63.4322 11.6293 63.1229 11.96C62.8135 12.2907 62.4562 12.5467 62.0509 12.728C61.6455 12.8987 61.2402 12.984 60.8349 12.984C60.2909 12.984 59.7949 12.856 59.3469 12.6C58.8989 12.344 58.5522 11.9493 58.3069 11.416C58.0615 10.8507 57.8695 10.1413 57.7309 9.288C57.5922 8.424 57.5229 7.53867 57.5229 6.632C57.5229 6.14133 57.5442 5.688 57.5869 5.272C57.6295 4.856 57.6989 4.51467 57.7949 4.248C57.8802 3.97067 58.0082 3.768 58.1789 3.64C58.3495 3.50133 58.5682 3.432 58.8349 3.432C59.1442 3.432 59.3842 3.55467 59.5549 3.8C59.7362 4.03467 59.8482 4.36533 59.8909 4.792C59.9335 5.144 59.9602 5.58133 59.9709 6.104C59.9922 6.616 60.0082 7.13333 60.0189 7.656C60.0402 8.168 60.0669 8.6 60.0989 8.952C60.1629 9.592 60.3282 10.0667 60.5949 10.376C60.8615 10.6747 61.1869 10.824 61.5709 10.824C62.1362 10.824 62.5682 10.6107 62.8669 10.184C63.1655 9.75733 63.3149 9.16 63.3149 8.392C63.3149 8.008 63.2935 7.576 63.2509 7.096C63.2082 6.60533 63.1602 6.13067 63.1069 5.672C63.0642 5.21333 63.0429 4.83467 63.0429 4.536C63.0429 4.03467 63.1282 3.67733 63.2989 3.464C63.4695 3.24 63.7042 3.128 64.0029 3.128C64.2589 3.128 64.4722 3.19733 64.6429 3.336C64.8242 3.47467 64.9682 3.66667 65.0749 3.912C65.2242 4.232 65.3522 4.66933 65.4589 5.224C65.5655 5.77867 65.6509 6.408 65.7149 7.112C65.7789 7.816 65.8109 8.55733 65.8109 9.336C65.8109 10.5307 65.7309 11.4267 65.5709 12.024C65.4109 12.6107 65.1282 12.904 64.7229 12.904ZM69.4853 13.032C69.1546 13.032 68.8933 12.9573 68.7013 12.808C68.5093 12.648 68.3546 12.3867 68.2373 12.024C68.0773 11.4907 67.9546 10.8187 67.8693 10.008C67.7946 9.18667 67.7573 8.17867 67.7573 6.984C67.7573 6.248 67.7839 5.512 67.8372 4.776C67.9013 4.02933 67.9813 3.352 68.0773 2.744C68.1733 2.12533 68.2746 1.64533 68.3813 1.304C68.4986 0.941333 68.6373 0.690666 68.7973 0.551999C68.9573 0.413333 69.1386 0.344 69.3413 0.344C69.5546 0.344 69.7253 0.418667 69.8533 0.568C69.9813 0.706666 70.0826 0.957333 70.1573 1.32C70.2213 1.672 70.2693 2.104 70.3013 2.616C70.3439 3.128 70.3653 3.67733 70.3653 4.264C70.3653 5.064 70.3279 5.90667 70.2533 6.792C70.1786 7.67733 70.0773 8.54667 69.9493 9.4C69.8319 10.2533 69.6879 11.0373 69.5173 11.752L69.0693 11.528C69.3466 11.1867 69.6613 10.92 70.0133 10.728C70.3759 10.536 70.7066 10.44 71.0052 10.44C71.2506 10.44 71.4373 10.5093 71.5653 10.648C71.7039 10.776 71.7733 10.9787 71.7733 11.256C71.7733 11.5333 71.6506 11.8107 71.4053 12.088C71.1706 12.3653 70.8773 12.5947 70.5253 12.776C70.1733 12.9467 69.8266 13.032 69.4853 13.032ZM80.218 13.16C79.8553 13.16 79.6047 13.0213 79.466 12.744C79.338 12.456 79.2633 12.0027 79.242 11.384L79.402 11.464C78.8047 12.6267 77.674 13.208 76.01 13.208C75.2527 13.208 74.6233 13.0747 74.122 12.808C73.6207 12.5307 73.2473 12.168 73.002 11.72C72.7673 11.2613 72.65 10.7653 72.65 10.232C72.65 9.31467 72.97 8.58933 73.61 8.056C74.25 7.512 75.098 7.24 76.154 7.24C76.8473 7.24 77.45 7.34133 77.962 7.544C78.474 7.74667 78.9113 8.02933 79.274 8.392L79.002 8.36C78.9273 7.28267 78.6927 6.51467 78.298 6.056C77.914 5.58667 77.3647 5.352 76.65 5.352C76.234 5.352 75.85 5.416 75.498 5.544C75.146 5.672 74.8207 5.80533 74.522 5.944C74.234 6.072 73.962 6.136 73.706 6.136C73.45 6.136 73.2473 6.05067 73.098 5.88C72.9593 5.70933 72.89 5.49067 72.89 5.224C72.89 4.84 73.0713 4.47733 73.434 4.136C73.8073 3.79467 74.298 3.51733 74.906 3.304C75.514 3.09067 76.1753 2.984 76.89 2.984C77.754 2.984 78.4953 3.192 79.114 3.608C79.7327 4.024 80.202 4.632 80.522 5.432C80.7993 6.11467 80.9967 6.87733 81.114 7.72C81.2313 8.56267 81.29 9.464 81.29 10.424C81.29 11.1493 81.2527 11.7093 81.178 12.104C81.1033 12.4987 80.986 12.776 80.826 12.936C80.6767 13.0853 80.474 13.16 80.218 13.16ZM76.682 11.368C77.034 11.368 77.3913 11.32 77.754 11.224C78.1167 11.1173 78.4207 10.9627 78.666 10.76C78.9113 10.5573 79.034 10.3067 79.034 10.008C79.034 9.752 78.9273 9.544 78.714 9.384C78.5113 9.21333 78.2393 9.08533 77.898 9C77.5673 8.91467 77.21 8.872 76.826 8.872C76.1753 8.872 75.6793 8.984 75.338 9.208C75.0073 9.432 74.842 9.73067 74.842 10.104C74.842 10.5093 74.9967 10.824 75.306 11.048C75.626 11.2613 76.0847 11.368 76.682 11.368ZM84.8736 3.048C85.215 3.048 85.4443 3.18667 85.5616 3.464C85.6896 3.74133 85.7536 4.152 85.7536 4.696C85.7536 4.824 85.743 4.96267 85.7216 5.112C85.711 5.25067 85.6896 5.37867 85.6576 5.496L85.6256 5.176C85.8816 4.48267 86.2763 3.944 86.8096 3.56C87.343 3.16533 87.9083 2.968 88.5056 2.968C89.167 2.968 89.7163 3.15467 90.1536 3.528C90.6016 3.90133 90.9323 4.424 91.1456 5.096C91.3696 5.768 91.4816 6.56267 91.4816 7.48C91.4816 8.04533 91.455 8.60533 91.4016 9.16C91.359 9.704 91.295 10.2053 91.2096 10.664C91.135 11.112 91.0496 11.48 90.9536 11.768C90.8256 12.1307 90.6603 12.4027 90.4576 12.584C90.255 12.7547 90.015 12.84 89.7376 12.84C89.4603 12.84 89.247 12.7387 89.0976 12.536C88.9483 12.3333 88.8736 12.0613 88.8736 11.72C88.8736 11.3573 88.9003 10.92 88.9536 10.408C89.007 9.88533 89.055 9.35733 89.0976 8.824C89.151 8.28 89.1776 7.78933 89.1776 7.352C89.1776 5.85867 88.687 5.112 87.7056 5.112C87.183 5.112 86.7456 5.34667 86.3936 5.816C86.0416 6.27467 85.807 6.93067 85.6896 7.784C85.6576 8.072 85.6416 8.42933 85.6416 8.856C85.6416 9.28267 85.6416 9.70933 85.6416 10.136C85.6523 10.552 85.6416 10.904 85.6096 11.192C85.567 11.832 85.4443 12.2907 85.2416 12.568C85.0496 12.8453 84.783 12.984 84.4416 12.984C84.047 12.984 83.7483 12.8027 83.5456 12.44C83.343 12.0667 83.2416 11.4427 83.2416 10.568C83.2416 10.12 83.2523 9.61867 83.2736 9.064C83.295 8.50933 83.3216 7.95467 83.3536 7.4C83.3963 6.83467 83.4443 6.32267 83.4976 5.864C83.6043 5 83.759 4.31733 83.9616 3.816C84.1643 3.304 84.4683 3.048 84.8736 3.048ZM99.8643 13.048C99.5123 13.048 99.1176 13.0267 98.6803 12.984C98.2536 12.9413 97.8376 12.8613 97.4323 12.744C97.0376 12.616 96.7069 12.4453 96.4403 12.232C96.1843 12.008 96.0563 11.72 96.0563 11.368C96.0563 11.0053 96.1683 10.7333 96.3923 10.552C96.6269 10.3707 97.0056 10.28 97.5283 10.28C97.8909 10.28 98.2963 10.328 98.7443 10.424C99.2029 10.52 99.6403 10.568 100.056 10.568C100.675 10.568 101.128 10.472 101.416 10.28C101.715 10.088 101.864 9.82667 101.864 9.496C101.864 9.29333 101.806 9.112 101.688 8.952C101.582 8.792 101.363 8.632 101.032 8.472C100.702 8.312 100.206 8.136 99.5443 7.944C98.7869 7.74133 98.1736 7.51733 97.7043 7.272C97.2349 7.016 96.8936 6.712 96.6803 6.36C96.4669 6.008 96.3603 5.592 96.3603 5.112C96.3603 4.52533 96.4616 4.01867 96.6643 3.592C96.8776 3.15467 97.1603 2.78667 97.5123 2.488C97.8643 2.17867 98.2589 1.93333 98.6963 1.752C99.1336 1.57067 99.5763 1.43733 100.024 1.352C100.483 1.26667 100.92 1.224 101.336 1.224C102.254 1.224 103 1.368 103.576 1.656C104.163 1.944 104.456 2.328 104.456 2.808C104.456 3.14933 104.344 3.42667 104.12 3.64C103.907 3.85333 103.576 3.96 103.128 3.96C102.936 3.96 102.707 3.93333 102.44 3.88C102.174 3.82667 101.88 3.77333 101.56 3.72C101.24 3.66667 100.888 3.64 100.504 3.64C99.8536 3.64 99.3523 3.74133 99.0003 3.944C98.6483 4.14667 98.4723 4.472 98.4723 4.92C98.4723 5.112 98.5203 5.288 98.6163 5.448C98.7229 5.608 98.9416 5.77333 99.2723 5.944C99.6029 6.11467 100.11 6.312 100.792 6.536C101.635 6.792 102.296 7.07467 102.776 7.384C103.256 7.68267 103.598 8.024 103.8 8.408C104.003 8.792 104.104 9.224 104.104 9.704C104.104 10.3653 103.923 10.952 103.56 11.464C103.208 11.9653 102.712 12.3547 102.072 12.632C101.443 12.9093 100.707 13.048 99.8643 13.048ZM110.315 13.128C109.131 13.128 108.187 12.952 107.483 12.6C106.779 12.248 106.273 11.7413 105.963 11.08C105.654 10.4187 105.499 9.62933 105.499 8.712C105.499 7.54933 105.713 6.56267 106.139 5.752C106.577 4.93067 107.174 4.30133 107.931 3.864C108.699 3.42667 109.569 3.208 110.539 3.208C111.681 3.208 112.518 3.47467 113.051 4.008C113.585 4.53067 113.851 5.21867 113.851 6.072C113.851 6.75467 113.67 7.34667 113.307 7.848C112.955 8.33867 112.465 8.71733 111.835 8.984C111.206 9.25067 110.481 9.384 109.659 9.384C109.201 9.384 108.758 9.32533 108.331 9.208C107.905 9.09067 107.521 8.93067 107.179 8.728L107.563 8.024C107.531 8.28 107.515 8.536 107.515 8.792C107.515 9.53867 107.75 10.0773 108.219 10.408C108.689 10.728 109.355 10.888 110.219 10.888C110.891 10.888 111.43 10.8293 111.835 10.712C112.241 10.5947 112.582 10.4827 112.859 10.376C113.137 10.2587 113.409 10.2 113.675 10.2C113.825 10.2 113.958 10.2427 114.075 10.328C114.203 10.4027 114.305 10.5147 114.379 10.664C114.465 10.8133 114.507 10.9947 114.507 11.208C114.507 11.528 114.347 11.8373 114.027 12.136C113.707 12.424 113.233 12.664 112.603 12.856C111.985 13.0373 111.222 13.128 110.315 13.128ZM109.387 7.896C110.145 7.896 110.753 7.736 111.211 7.416C111.67 7.096 111.899 6.70133 111.899 6.232C111.899 5.85867 111.771 5.55467 111.515 5.32C111.27 5.07467 110.881 4.952 110.347 4.952C109.846 4.952 109.393 5.048 108.987 5.24C108.593 5.42133 108.283 5.66133 108.059 5.96C107.835 6.25867 107.723 6.584 107.723 6.936C107.723 7.24533 107.867 7.48533 108.155 7.656C108.454 7.816 108.865 7.896 109.387 7.896ZM118.97 12.744C117.967 12.744 117.151 12.36 116.522 11.592C115.892 10.8133 115.578 9.63467 115.578 8.056C115.578 6.37067 115.882 5.13867 116.49 4.36C117.098 3.58133 117.898 3.192 118.89 3.192C119.476 3.192 119.994 3.34133 120.442 3.64C120.89 3.93867 121.274 4.36 121.594 4.904L121.466 5.128C121.434 4.97867 121.407 4.81867 121.386 4.648C121.364 4.47733 121.354 4.34933 121.354 4.264C121.354 3.82667 121.423 3.49067 121.562 3.256C121.711 3.01067 121.94 2.888 122.25 2.888C122.591 2.888 122.858 3.02667 123.05 3.304C123.252 3.58133 123.407 3.976 123.514 4.488C123.652 5.01067 123.77 5.67733 123.866 6.488C123.962 7.288 124.01 8.09867 124.01 8.92C124.01 9.944 123.972 10.8027 123.898 11.496C123.823 12.1893 123.7 12.7653 123.53 13.224C123.359 13.6827 123.135 14.0827 122.858 14.424C122.399 14.9787 121.807 15.4 121.082 15.688C120.367 15.9867 119.54 16.136 118.602 16.136C117.93 16.136 117.391 16.072 116.986 15.944C116.58 15.8267 116.287 15.6613 116.106 15.448C115.935 15.2453 115.85 15.016 115.85 14.76C115.85 14.4933 115.924 14.2693 116.074 14.088C116.223 13.9173 116.447 13.832 116.746 13.832C117.012 13.832 117.322 13.8747 117.674 13.96C118.036 14.0453 118.463 14.088 118.954 14.088C119.988 14.088 120.719 13.8427 121.146 13.352C121.583 12.872 121.802 12.1787 121.802 11.272C121.802 11.0267 121.786 10.7387 121.754 10.408L121.978 10.488C121.711 11.1707 121.316 11.72 120.794 12.136C120.271 12.5413 119.663 12.744 118.97 12.744ZM119.578 10.776C119.919 10.776 120.26 10.6853 120.602 10.504C120.943 10.3227 121.226 10.024 121.45 9.608C121.674 9.192 121.786 8.632 121.786 7.928C121.786 7.08533 121.588 6.39733 121.194 5.864C120.799 5.33067 120.244 5.064 119.53 5.064C118.911 5.064 118.458 5.29867 118.17 5.768C117.882 6.23733 117.738 6.94667 117.738 7.896C117.738 8.80267 117.882 9.512 118.17 10.024C118.458 10.5253 118.927 10.776 119.578 10.776ZM127.368 0.728C127.795 0.728 128.099 0.845333 128.28 1.08C128.472 1.31467 128.568 1.58667 128.568 1.896C128.568 2.28 128.451 2.57867 128.216 2.792C127.992 2.99467 127.672 3.096 127.256 3.096C126.851 3.096 126.547 2.984 126.344 2.76C126.142 2.52533 126.04 2.25333 126.04 1.944C126.04 1.53867 126.163 1.23467 126.408 1.032C126.654 0.829333 126.974 0.728 127.368 0.728ZM127.464 4.296C127.806 4.296 128.072 4.616 128.264 5.256C128.467 5.896 128.568 6.91467 128.568 8.312C128.568 10.0293 128.446 11.2667 128.2 12.024C127.955 12.7813 127.582 13.16 127.08 13.16C126.696 13.16 126.414 12.8827 126.232 12.328C126.051 11.7627 125.96 10.7813 125.96 9.384C125.96 7.66667 126.099 6.392 126.376 5.56C126.664 4.71733 127.027 4.296 127.464 4.296ZM133.227 3.368H132.907C132.875 2.89867 132.886 2.456 132.939 2.04C132.992 1.61333 133.104 1.272 133.275 1.016C133.456 0.749333 133.712 0.615999 134.043 0.615999C134.342 0.615999 134.56 0.711999 134.699 0.903999C134.838 1.096 134.907 1.36267 134.907 1.704C134.907 2.376 134.779 2.952 134.523 3.432L134.235 3.4C134.811 3.19733 135.462 3.096 136.187 3.096C136.646 3.096 137.008 3.18667 137.275 3.368C137.552 3.53867 137.691 3.832 137.691 4.248C137.691 4.64267 137.531 4.94133 137.211 5.144C136.891 5.34667 136.491 5.448 136.011 5.448C135.723 5.448 135.414 5.43733 135.083 5.416C134.763 5.384 134.448 5.336 134.139 5.272L134.411 4.936C134.507 5.34133 134.598 5.80533 134.683 6.328C134.779 6.84 134.864 7.37333 134.939 7.928C135.014 8.48267 135.072 9.02133 135.115 9.544C135.158 10.0667 135.179 10.536 135.179 10.952C135.179 11.6347 135.072 12.1733 134.859 12.568C134.646 12.9627 134.331 13.16 133.915 13.16C133.584 13.16 133.323 13.0587 133.131 12.856C132.95 12.6533 132.816 12.3973 132.731 12.088C132.656 11.768 132.608 11.4373 132.587 11.096C132.576 10.7547 132.571 10.4453 132.571 10.168C132.571 9.69867 132.592 9.17067 132.635 8.584C132.678 7.98667 132.736 7.37333 132.811 6.744C132.896 6.11467 132.992 5.50667 133.099 4.92L133.419 5.192C132.875 5.46933 132.203 5.608 131.403 5.608C130.912 5.608 130.534 5.51733 130.267 5.336C130 5.15467 129.867 4.872 129.867 4.488C129.867 4.072 130.016 3.752 130.315 3.528C130.614 3.29333 131.014 3.176 131.515 3.176C131.846 3.176 132.155 3.19733 132.443 3.24C132.742 3.272 133.003 3.31467 133.227 3.368ZM140.4 0.728C140.826 0.728 141.13 0.845333 141.312 1.08C141.504 1.31467 141.6 1.58667 141.6 1.896C141.6 2.28 141.482 2.57867 141.248 2.792C141.024 2.99467 140.704 3.096 140.288 3.096C139.882 3.096 139.578 2.984 139.376 2.76C139.173 2.52533 139.072 2.25333 139.072 1.944C139.072 1.53867 139.194 1.23467 139.44 1.032C139.685 0.829333 140.005 0.728 140.4 0.728ZM140.496 4.296C140.837 4.296 141.104 4.616 141.296 5.256C141.498 5.896 141.6 6.91467 141.6 8.312C141.6 10.0293 141.477 11.2667 141.232 12.024C140.986 12.7813 140.613 13.16 140.112 13.16C139.728 13.16 139.445 12.8827 139.264 12.328C139.082 11.7627 138.992 10.7813 138.992 9.384C138.992 7.66667 139.13 6.392 139.408 5.56C139.696 4.71733 140.058 4.296 140.496 4.296ZM146.61 12.744C145.607 12.744 144.791 12.36 144.162 11.592C143.533 10.8133 143.218 9.63467 143.218 8.056C143.218 6.37067 143.522 5.13867 144.13 4.36C144.738 3.58133 145.538 3.192 146.53 3.192C147.117 3.192 147.634 3.34133 148.082 3.64C148.53 3.93867 148.914 4.36 149.234 4.904L149.106 5.128C149.074 4.97867 149.047 4.81867 149.026 4.648C149.005 4.47733 148.994 4.34933 148.994 4.264C148.994 3.82667 149.063 3.49067 149.202 3.256C149.351 3.01067 149.581 2.888 149.89 2.888C150.231 2.888 150.498 3.02667 150.69 3.304C150.893 3.58133 151.047 3.976 151.154 4.488C151.293 5.01067 151.41 5.67733 151.506 6.488C151.602 7.288 151.65 8.09867 151.65 8.92C151.65 9.944 151.613 10.8027 151.538 11.496C151.463 12.1893 151.341 12.7653 151.17 13.224C150.999 13.6827 150.775 14.0827 150.498 14.424C150.039 14.9787 149.447 15.4 148.722 15.688C148.007 15.9867 147.181 16.136 146.242 16.136C145.57 16.136 145.031 16.072 144.626 15.944C144.221 15.8267 143.927 15.6613 143.746 15.448C143.575 15.2453 143.49 15.016 143.49 14.76C143.49 14.4933 143.565 14.2693 143.714 14.088C143.863 13.9173 144.087 13.832 144.386 13.832C144.653 13.832 144.962 13.8747 145.314 13.96C145.677 14.0453 146.103 14.088 146.594 14.088C147.629 14.088 148.359 13.8427 148.786 13.352C149.223 12.872 149.442 12.1787 149.442 11.272C149.442 11.0267 149.426 10.7387 149.394 10.408L149.618 10.488C149.351 11.1707 148.957 11.72 148.434 12.136C147.911 12.5413 147.303 12.744 146.61 12.744ZM147.218 10.776C147.559 10.776 147.901 10.6853 148.242 10.504C148.583 10.3227 148.866 10.024 149.09 9.608C149.314 9.192 149.426 8.632 149.426 7.928C149.426 7.08533 149.229 6.39733 148.834 5.864C148.439 5.33067 147.885 5.064 147.17 5.064C146.551 5.064 146.098 5.29867 145.81 5.768C145.522 6.23733 145.378 6.94667 145.378 7.896C145.378 8.80267 145.522 9.512 145.81 10.024C146.098 10.5253 146.567 10.776 147.218 10.776ZM160.593 13.16C160.23 13.16 159.98 13.0213 159.841 12.744C159.713 12.456 159.638 12.0027 159.617 11.384L159.777 11.464C159.18 12.6267 158.049 13.208 156.385 13.208C155.628 13.208 154.998 13.0747 154.497 12.808C153.996 12.5307 153.622 12.168 153.377 11.72C153.142 11.2613 153.025 10.7653 153.025 10.232C153.025 9.31467 153.345 8.58933 153.985 8.056C154.625 7.512 155.473 7.24 156.529 7.24C157.222 7.24 157.825 7.34133 158.337 7.544C158.849 7.74667 159.286 8.02933 159.649 8.392L159.377 8.36C159.302 7.28267 159.068 6.51467 158.673 6.056C158.289 5.58667 157.74 5.352 157.025 5.352C156.609 5.352 156.225 5.416 155.873 5.544C155.521 5.672 155.196 5.80533 154.897 5.944C154.609 6.072 154.337 6.136 154.081 6.136C153.825 6.136 153.622 6.05067 153.473 5.88C153.334 5.70933 153.265 5.49067 153.265 5.224C153.265 4.84 153.446 4.47733 153.809 4.136C154.182 3.79467 154.673 3.51733 155.281 3.304C155.889 3.09067 156.55 2.984 157.265 2.984C158.129 2.984 158.87 3.192 159.489 3.608C160.108 4.024 160.577 4.632 160.897 5.432C161.174 6.11467 161.372 6.87733 161.489 7.72C161.606 8.56267 161.665 9.464 161.665 10.424C161.665 11.1493 161.628 11.7093 161.553 12.104C161.478 12.4987 161.361 12.776 161.201 12.936C161.052 13.0853 160.849 13.16 160.593 13.16ZM157.057 11.368C157.409 11.368 157.766 11.32 158.129 11.224C158.492 11.1173 158.796 10.9627 159.041 10.76C159.286 10.5573 159.409 10.3067 159.409 10.008C159.409 9.752 159.302 9.544 159.089 9.384C158.886 9.21333 158.614 9.08533 158.273 9C157.942 8.91467 157.585 8.872 157.201 8.872C156.55 8.872 156.054 8.984 155.713 9.208C155.382 9.432 155.217 9.73067 155.217 10.104C155.217 10.5093 155.372 10.824 155.681 11.048C156.001 11.2613 156.46 11.368 157.057 11.368Z" fill="black"/>
</svg>
