<svg version="1.1" xmlns="http://www.w3.org/2000/svg" xmlns:xlink="http://www.w3.org/1999/xlink" width="54.36491" height="24.89474" viewBox="0,0,54.36491,24.89474"><g transform="translate(-206,-164.5)"><g data-paper-data="{&quot;isPaintingLayer&quot;:true}" fill-rule="nonzero" stroke-width="1" stroke-linecap="butt" stroke-linejoin="miter" stroke-miterlimit="10" stroke-dasharray="" stroke-dashoffset="0" style="mix-blend-mode: normal"><path d="M210.08421,165h46.19649c1.97952,0 3.58421,1.60471 3.58421,3.58421v16.72632c0,1.97952 -1.60469,3.58421 -3.58421,3.58421h-46.19649c-1.9795,0 -3.58421,-1.60469 -3.58421,-3.58421v-16.72632c0,-1.9795 1.60471,-3.58421 3.58421,-3.58421z" fill="#a5a7a9" stroke="#000000"/><path d="M223.17627,173.93213c0.37753,0 0.64524,0.05917 0.803,0.17751c0.16344,0.11273 0.24513,0.26764 0.24513,0.46489c0,0.23106 -0.10988,0.40012 -0.32965,0.50716c-0.21416,0.10704 -0.54658,0.1606 -0.99741,0.1606c-0.18596,0 -0.39727,-0.00284 -0.63395,-0.00845c-0.23667,-0.0113 -0.47896,-0.02536 -0.72693,-0.04226l0.08453,-0.1606c0.03942,0.19725 0.05633,0.43954 0.05072,0.72693c-0.00561,0.28178 -0.03381,0.55226 -0.08453,0.81145l-0.08453,-0.12679c0.6537,0.04511 1.16931,0.12118 1.54683,0.22822c0.37753,0.10704 0.64524,0.23383 0.803,0.38037c0.16344,0.14654 0.24513,0.3099 0.24513,0.49025c0,0.14085 -0.04787,0.25919 -0.14369,0.35501c-0.09582,0.09014 -0.24228,0.13524 -0.43954,0.13524c-0.28178,0 -0.60859,-0.06762 -0.98051,-0.20286c-0.36631,-0.14085 -0.74667,-0.34095 -1.14111,-0.60014l0.18596,-0.01691c0.05072,0.14654 0.09859,0.34371 0.14369,0.59168c0.05072,0.24228 0.09014,0.50155 0.11834,0.77764c0.03381,0.27048 0.05072,0.52122 0.05072,0.75228c0,0.29869 -0.05633,0.51845 -0.16905,0.65931c-0.10704,0.14085 -0.25642,0.21132 -0.44799,0.21132c-0.13524,0 -0.24797,-0.03665 -0.33811,-0.10988c-0.09014,-0.06762 -0.1606,-0.1719 -0.21132,-0.31275c-0.06201,-0.19157 -0.11549,-0.4818 -0.1606,-0.87062c-0.03942,-0.38882 -0.05917,-0.85656 -0.05917,-1.40314c0,-0.80584 0.04511,-1.4454 0.13524,-1.91875c0.09014,-0.47896 0.20571,-0.81706 0.34656,-1.01432c0.11834,-0.15776 0.293,-0.28178 0.52406,-0.37192c0.23106,-0.09582 0.4931,-0.16344 0.78609,-0.20286c0.293,-0.04511 0.58607,-0.06762 0.87907,-0.06762zM225.67249,173.50104c0.22545,0 0.38605,0.06201 0.4818,0.18596c0.10143,0.12395 0.15215,0.26764 0.15215,0.43108c0,0.20286 -0.06193,0.36062 -0.18596,0.47335c-0.11834,0.10704 -0.28739,0.1606 -0.50716,0.1606c-0.21408,0 -0.37468,-0.05917 -0.4818,-0.17751c-0.10704,-0.12395 -0.1606,-0.26764 -0.1606,-0.43108c0,-0.21416 0.06485,-0.37476 0.19441,-0.4818c0.12963,-0.10704 0.29869,-0.1606 0.50716,-0.1606zM225.72321,175.38598c0.18035,0 0.3212,0.16905 0.42263,0.50716c0.10712,0.33811 0.1606,0.87623 0.1606,1.61445c0,0.90727 -0.06478,1.56089 -0.19441,1.96101c-0.12956,0.40012 -0.32681,0.60014 -0.59168,0.60014c-0.20286,0 -0.35217,-0.14654 -0.44799,-0.43954c-0.09575,-0.29869 -0.14369,-0.81706 -0.14369,-1.55528c0,-0.90727 0.07331,-1.58064 0.21977,-2.02018c0.15215,-0.44515 0.34379,-0.66776 0.57478,-0.66776zM228.20113,174.72667c0.18035,0 0.30153,0.07323 0.36346,0.21977c0.06762,0.14654 0.10143,0.36346 0.10143,0.65085c0,0.06762 -0.00561,0.14085 -0.01691,0.21977c-0.00561,0.07323 -0.01691,0.14085 -0.03381,0.20286l-0.01691,-0.16905c0.13524,-0.36631 0.34379,-0.65085 0.62549,-0.85372c0.28178,-0.20847 0.58047,-0.31275 0.89598,-0.31275c0.3494,0 0.63963,0.09859 0.87062,0.29584c0.23667,0.19725 0.41141,0.47335 0.52406,0.82836c0.11834,0.35501 0.17751,0.7748 0.17751,1.25944c0,0.29869 -0.01406,0.59453 -0.04226,0.88753c-0.02251,0.28739 -0.05633,0.55226 -0.10143,0.79455c-0.03942,0.23667 -0.08453,0.43108 -0.13524,0.58323c-0.06762,0.19157 -0.15491,0.33526 -0.26203,0.43108c-0.10704,0.09014 -0.23383,0.13524 -0.38037,0.13524c-0.14646,0 -0.25919,-0.05356 -0.33811,-0.1606c-0.07884,-0.10704 -0.11834,-0.25074 -0.11834,-0.43108c0,-0.19157 0.01414,-0.42263 0.04226,-0.69312c0.0282,-0.27609 0.05356,-0.55503 0.07607,-0.83681c0.0282,-0.28739 0.04226,-0.54658 0.04226,-0.77764c0,-0.78894 -0.25919,-1.18337 -0.77764,-1.18337c-0.27609,0 -0.50716,0.12395 -0.69312,0.37192c-0.18596,0.24228 -0.3099,0.58884 -0.37192,1.03967c-0.01691,0.15215 -0.02536,0.34095 -0.02536,0.56633c0,0.22538 0,0.45083 0,0.67621c0.00569,0.21977 0,0.40573 -0.01691,0.55787c-0.02251,0.33811 -0.08729,0.58039 -0.19441,0.72693c-0.10143,0.14654 -0.24228,0.21977 -0.42263,0.21977c-0.20847,0 -0.36623,-0.09582 -0.47335,-0.28739c-0.10704,-0.19725 -0.1606,-0.52691 -0.1606,-0.98896c0,-0.23667 0.00569,-0.50155 0.01691,-0.79455c0.0113,-0.293 0.02536,-0.58607 0.04226,-0.87907c0.02259,-0.29869 0.04795,-0.56917 0.07607,-0.81145c0.0564,-0.45644 0.13809,-0.81706 0.24513,-1.08194c0.10712,-0.27048 0.26772,-0.40573 0.4818,-0.40573zM233.46474,173.50104c0.22545,0 0.38605,0.06201 0.4818,0.18596c0.10143,0.12395 0.15215,0.26764 0.15215,0.43108c0,0.20286 -0.06193,0.36062 -0.18596,0.47335c-0.11834,0.10704 -0.28739,0.1606 -0.50716,0.1606c-0.21408,0 -0.37468,-0.05917 -0.4818,-0.17751c-0.10704,-0.12395 -0.1606,-0.26764 -0.1606,-0.43108c0,-0.21416 0.06485,-0.37476 0.19441,-0.4818c0.12963,-0.10704 0.29869,-0.1606 0.50716,-0.1606zM233.51546,175.38598c0.18035,0 0.3212,0.16905 0.42263,0.50716c0.10712,0.33811 0.1606,0.87623 0.1606,1.61445c0,0.90727 -0.06478,1.56089 -0.19441,1.96101c-0.12956,0.40012 -0.32681,0.60014 -0.59168,0.60014c-0.20286,0 -0.35217,-0.14654 -0.44799,-0.43954c-0.09575,-0.29869 -0.14369,-0.81706 -0.14369,-1.55528c0,-0.90727 0.07331,-1.58064 0.21977,-2.02018c0.15215,-0.44515 0.34379,-0.66776 0.57478,-0.66776zM237.26981,174.69286c0.50147,0 0.86217,0.07323 1.08194,0.21977c0.21977,0.14654 0.32965,0.33526 0.32965,0.56633c0,0.13524 -0.04795,0.24797 -0.14369,0.33811c-0.09021,0.08453 -0.21977,0.12679 -0.38882,0.12679c-0.17474,0 -0.35785,-0.02536 -0.54942,-0.07607c-0.18596,-0.05072 -0.40296,-0.07607 -0.65085,-0.07607c-0.28739,0 -0.50155,0.05633 -0.6424,0.16905c-0.14093,0.11273 -0.21132,0.25642 -0.21132,0.43108c0,0.16344 0.06193,0.293 0.18596,0.38882c0.12956,0.09014 0.37468,0.15776 0.73538,0.20286c0.40004,0.04511 0.72969,0.11834 0.98896,0.21977c0.2648,0.09582 0.46205,0.24228 0.59168,0.43954c0.12956,0.19157 0.19441,0.45644 0.19441,0.79455c0,0.53536 -0.1888,0.93263 -0.56633,1.19182c-0.3776,0.25919 -0.89882,0.38882 -1.56374,0.38882c-0.42263,0 -0.75797,-0.03381 -1.00586,-0.10143c-0.24797,-0.06762 -0.42832,-0.16344 -0.54097,-0.28739c-0.10712,-0.12395 -0.1606,-0.27048 -0.1606,-0.43954c0,-0.14654 0.04787,-0.25919 0.14369,-0.33811c0.10143,-0.08453 0.21977,-0.12679 0.35501,-0.12679c0.12956,0 0.26764,0.01691 0.41418,0.05072c0.14646,0.0282 0.30145,0.05917 0.46489,0.09298c0.16337,0.03381 0.33242,0.05072 0.50716,0.05072c0.56348,0 0.84526,-0.17466 0.84526,-0.52406c0,-0.11834 -0.0282,-0.21416 -0.08453,-0.28739c-0.0564,-0.07323 -0.15783,-0.1324 -0.30429,-0.17751c-0.14654,-0.05072 -0.3607,-0.09014 -0.6424,-0.11834c-0.33811,-0.03381 -0.63118,-0.09014 -0.87907,-0.16905c-0.24797,-0.08453 -0.43954,-0.21977 -0.57478,-0.40573c-0.13524,-0.19157 -0.20286,-0.4536 -0.20286,-0.78609c0,-0.52406 0.19718,-0.94669 0.59168,-1.26789c0.39443,-0.32681 0.95515,-0.49025 1.68207,-0.49025zM240.51708,173.28973c0.18035,0 0.30429,0.07046 0.37192,0.21132c0.07331,0.14085 0.10988,0.35217 0.10988,0.63395c0,0.24228 -0.01406,0.54658 -0.04226,0.91288c-0.02812,0.36631 -0.06478,0.71847 -0.10988,1.05658h-0.05072c0.18596,-0.3494 0.42547,-0.6311 0.71847,-0.84526c0.29308,-0.21416 0.60298,-0.3212 0.92979,-0.3212c0.28739,0 0.54381,0.07046 0.76919,0.21132c0.22545,0.13524 0.40857,0.3494 0.54942,0.6424c0.12963,0.26487 0.22545,0.58039 0.28739,0.94669c0.06201,0.36062 0.09298,0.70441 0.09298,1.03122c0,0.52406 -0.03658,0.94109 -0.10988,1.25099c-0.06762,0.3099 -0.16337,0.53536 -0.28739,0.67621c-0.12395,0.13524 -0.27048,0.20286 -0.43954,0.20286c-0.35501,0 -0.53252,-0.29023 -0.53252,-0.87062c0,-0.28178 0.01414,-0.57194 0.04226,-0.87062c0.03381,-0.29869 0.05072,-0.57194 0.05072,-0.81991c0,-0.42263 -0.06762,-0.73822 -0.20286,-0.94669c-0.12956,-0.21416 -0.31836,-0.3212 -0.56633,-0.3212c-0.3099,0 -0.56064,0.13809 -0.75228,0.41418c-0.19157,0.27609 -0.28739,0.65646 -0.28739,1.14111c0,0.25358 0.02259,0.53252 0.06762,0.83681c0.04511,0.29869 0.06762,0.57194 0.06762,0.81991c0,0.27609 -0.05348,0.47619 -0.1606,0.60014c-0.10143,0.11834 -0.23383,0.17751 -0.39727,0.17751c-0.12395,0 -0.23383,-0.02536 -0.32965,-0.07607c-0.09014,-0.04511 -0.16905,-0.13809 -0.23667,-0.27894c-0.06193,-0.14654 -0.11549,-0.36346 -0.1606,-0.65085c-0.03381,-0.21977 -0.06762,-0.47619 -0.10143,-0.76919c-0.03381,-0.293 -0.06193,-0.60014 -0.08453,-0.92134c-0.02251,-0.3212 -0.04226,-0.63395 -0.05917,-0.93824c-0.01122,-0.3099 -0.01691,-0.59168 -0.01691,-0.84526c0,-0.80016 0.07607,-1.38062 0.22822,-1.74124c0.15215,-0.36631 0.36631,-0.54942 0.6424,-0.54942z" fill="#000000" stroke="none"/></g></g></svg>