<svg width="238" height="10" viewBox="0 0 238 10" fill="none" xmlns="http://www.w3.org/2000/svg">
<path d="M2.799 1.385C3.243 1.385 3.615 1.409 3.915 1.457C4.221 1.499 4.467 1.553 4.653 1.619C4.851 1.697 4.986 1.787 5.058 1.889C5.136 1.991 5.175 2.108 5.175 2.24C5.175 2.432 5.1 2.588 4.95 2.708C4.806 2.828 4.584 2.888 4.284 2.888C4.08 2.888 3.861 2.867 3.627 2.825C3.393 2.783 3.153 2.72 2.907 2.636L3.024 2.51C3.078 2.822 3.126 3.167 3.168 3.545C3.21 3.923 3.246 4.307 3.276 4.697C3.312 5.081 3.336 5.444 3.348 5.786C3.366 6.128 3.375 6.419 3.375 6.659C3.375 7.127 3.315 7.478 3.195 7.712C3.081 7.946 2.883 8.063 2.601 8.063C2.343 8.063 2.157 7.958 2.043 7.748C1.929 7.532 1.872 7.205 1.872 6.767C1.872 6.479 1.884 6.149 1.908 5.777C1.938 5.405 1.977 5.021 2.025 4.625C2.073 4.229 2.124 3.851 2.178 3.491C2.238 3.125 2.298 2.807 2.358 2.537L2.52 2.636C2.388 2.684 2.232 2.732 2.052 2.78C1.872 2.822 1.692 2.858 1.512 2.888C1.332 2.912 1.173 2.924 1.035 2.924C0.729 2.924 0.513 2.876 0.387 2.78C0.261 2.678 0.198 2.543 0.198 2.375C0.198 2.219 0.246 2.087 0.342 1.979C0.438 1.865 0.585 1.766 0.783 1.682C1.011 1.586 1.29 1.514 1.62 1.466C1.956 1.412 2.349 1.385 2.799 1.385ZM6.71112 1.097C6.95112 1.097 7.12212 1.163 7.22412 1.295C7.33212 1.427 7.38612 1.58 7.38612 1.754C7.38612 1.97 7.32012 2.138 7.18812 2.258C7.06212 2.372 6.88212 2.429 6.64812 2.429C6.42012 2.429 6.24912 2.366 6.13512 2.24C6.02112 2.108 5.96412 1.955 5.96412 1.781C5.96412 1.553 6.03312 1.382 6.17112 1.268C6.30912 1.154 6.48912 1.097 6.71112 1.097ZM6.76512 3.104C6.95712 3.104 7.10712 3.284 7.21512 3.644C7.32912 4.004 7.38612 4.577 7.38612 5.363C7.38612 6.329 7.31712 7.025 7.17912 7.451C7.04112 7.877 6.83112 8.09 6.54912 8.09C6.33312 8.09 6.17412 7.934 6.07212 7.622C5.97012 7.304 5.91912 6.752 5.91912 5.966C5.91912 5 5.99712 4.283 6.15312 3.815C6.31512 3.341 6.51912 3.104 6.76512 3.104ZM10.1685 8.126C9.58052 8.126 9.12152 7.907 8.79152 7.469C8.46152 7.025 8.29652 6.35 8.29652 5.444C8.29652 4.544 8.45852 3.887 8.78252 3.473C9.11252 3.053 9.58352 2.843 10.1955 2.843C10.5435 2.843 10.8465 2.915 11.1045 3.059C11.3685 3.203 11.6025 3.407 11.8065 3.671L11.7345 3.707C11.6805 3.461 11.6265 3.2 11.5725 2.924C11.5185 2.648 11.4735 2.387 11.4375 2.141C11.4075 1.889 11.3925 1.691 11.3925 1.547C11.3925 1.343 11.4255 1.187 11.4915 1.079C11.5575 0.965 11.6625 0.908 11.8065 0.908C12.0105 0.908 12.1755 0.995 12.3015 1.169C12.4275 1.337 12.5325 1.598 12.6165 1.952C12.6945 2.27 12.7635 2.648 12.8235 3.086C12.8835 3.518 12.9315 3.971 12.9675 4.445C13.0095 4.913 13.0305 5.363 13.0305 5.795C13.0305 6.395 12.9975 6.863 12.9315 7.199C12.8715 7.529 12.7845 7.76 12.6705 7.892C12.5625 8.024 12.4335 8.09 12.2835 8.09C12.0975 8.09 11.9715 7.997 11.9055 7.811C11.8395 7.625 11.8125 7.322 11.8245 6.902H11.9595C11.7975 7.274 11.5605 7.571 11.2485 7.793C10.9425 8.015 10.5825 8.126 10.1685 8.126ZM10.6455 7.01C10.8615 7.01 11.0595 6.956 11.2395 6.848C11.4255 6.734 11.5725 6.56 11.6805 6.326C11.7945 6.092 11.8515 5.795 11.8515 5.435C11.8515 4.973 11.7465 4.598 11.5365 4.31C11.3265 4.016 11.0235 3.869 10.6275 3.869C10.3155 3.869 10.0605 3.998 9.86252 4.256C9.67052 4.514 9.57452 4.904 9.57452 5.426C9.57452 5.888 9.67052 6.269 9.86252 6.569C10.0605 6.863 10.3215 7.01 10.6455 7.01ZM18.0611 8.09C17.8571 8.09 17.7161 8.012 17.6381 7.856C17.5661 7.694 17.5241 7.439 17.5121 7.091L17.6021 7.136C17.2661 7.79 16.6301 8.117 15.6941 8.117C15.2681 8.117 14.9141 8.042 14.6321 7.892C14.3501 7.736 14.1401 7.532 14.0021 7.28C13.8701 7.022 13.8041 6.743 13.8041 6.443C13.8041 5.927 13.9841 5.519 14.3441 5.219C14.7041 4.913 15.1811 4.76 15.7751 4.76C16.1651 4.76 16.5041 4.817 16.7921 4.931C17.0801 5.045 17.3261 5.204 17.5301 5.408L17.3771 5.39C17.3351 4.784 17.2031 4.352 16.9811 4.094C16.7651 3.83 16.4561 3.698 16.0541 3.698C15.8201 3.698 15.6041 3.734 15.4061 3.806C15.2081 3.878 15.0251 3.953 14.8571 4.031C14.6951 4.103 14.5421 4.139 14.3981 4.139C14.2541 4.139 14.1401 4.091 14.0561 3.995C13.9781 3.899 13.9391 3.776 13.9391 3.626C13.9391 3.41 14.0411 3.206 14.2451 3.014C14.4551 2.822 14.7311 2.666 15.0731 2.546C15.4151 2.426 15.7871 2.366 16.1891 2.366C16.6751 2.366 17.0921 2.483 17.4401 2.717C17.7881 2.951 18.0521 3.293 18.2321 3.743C18.3881 4.127 18.4991 4.556 18.5651 5.03C18.6311 5.504 18.6641 6.011 18.6641 6.551C18.6641 6.959 18.6431 7.274 18.6011 7.496C18.5591 7.718 18.4931 7.874 18.4031 7.964C18.3191 8.048 18.2051 8.09 18.0611 8.09ZM16.0721 7.082C16.2701 7.082 16.4711 7.055 16.6751 7.001C16.8791 6.941 17.0501 6.854 17.1881 6.74C17.3261 6.626 17.3951 6.485 17.3951 6.317C17.3951 6.173 17.3351 6.056 17.2151 5.966C17.1011 5.87 16.9481 5.798 16.7561 5.75C16.5701 5.702 16.3691 5.678 16.1531 5.678C15.7871 5.678 15.5081 5.741 15.3161 5.867C15.1301 5.993 15.0371 6.161 15.0371 6.371C15.0371 6.599 15.1241 6.776 15.2981 6.902C15.4781 7.022 15.7361 7.082 16.0721 7.082ZM20.3739 8.09C20.2599 8.09 20.1669 8.057 20.0949 7.991C20.0229 7.919 19.9719 7.817 19.9419 7.685C19.8939 7.463 19.8519 7.142 19.8159 6.722C19.7799 6.302 19.7619 5.837 19.7619 5.327C19.7619 4.697 19.7829 4.091 19.8249 3.509C19.8729 2.927 19.9329 2.45 20.0049 2.078C20.0829 1.676 20.1789 1.382 20.2929 1.196C20.4069 1.004 20.5569 0.908 20.7429 0.908C20.9109 0.908 21.0399 0.986 21.1299 1.142C21.2199 1.292 21.2649 1.553 21.2649 1.925C21.2649 2.297 21.2499 2.696 21.2199 3.122C21.1959 3.548 21.1539 4.004 21.0939 4.49H21.1299C21.5199 3.962 21.8829 3.539 22.2189 3.221C22.5609 2.903 22.8729 2.672 23.1549 2.528C23.4429 2.384 23.6979 2.312 23.9199 2.312C24.0939 2.312 24.2229 2.366 24.3069 2.474C24.3909 2.582 24.4329 2.714 24.4329 2.87C24.4329 3.176 24.1869 3.518 23.6949 3.896C23.2089 4.274 22.5069 4.661 21.5889 5.057L21.5979 4.913C22.1679 5.207 22.6569 5.516 23.0649 5.84C23.4789 6.158 23.7939 6.461 24.0099 6.749C24.2319 7.031 24.3429 7.268 24.3429 7.46C24.3429 7.616 24.2919 7.745 24.1899 7.847C24.0939 7.943 23.9529 7.991 23.7669 7.991C23.5329 7.991 23.2719 7.904 22.9839 7.73C22.7019 7.55 22.4079 7.283 22.1019 6.929C21.7959 6.575 21.4899 6.131 21.1839 5.597H21.1479C21.1419 5.975 21.1179 6.344 21.0759 6.704C21.0399 7.058 20.9919 7.349 20.9319 7.577C20.8899 7.733 20.8239 7.859 20.7339 7.955C20.6499 8.045 20.5299 8.09 20.3739 8.09ZM30.8931 8.09C30.6891 8.09 30.5481 8.012 30.4701 7.856C30.3981 7.694 30.3561 7.439 30.3441 7.091L30.4341 7.136C30.0981 7.79 29.4621 8.117 28.5261 8.117C28.1001 8.117 27.7461 8.042 27.4641 7.892C27.1821 7.736 26.9721 7.532 26.8341 7.28C26.7021 7.022 26.6361 6.743 26.6361 6.443C26.6361 5.927 26.8161 5.519 27.1761 5.219C27.5361 4.913 28.0131 4.76 28.6071 4.76C28.9971 4.76 29.3361 4.817 29.6241 4.931C29.9121 5.045 30.1581 5.204 30.3621 5.408L30.2091 5.39C30.1671 4.784 30.0351 4.352 29.8131 4.094C29.5971 3.83 29.2881 3.698 28.8861 3.698C28.6521 3.698 28.4361 3.734 28.2381 3.806C28.0401 3.878 27.8571 3.953 27.6891 4.031C27.5271 4.103 27.3741 4.139 27.2301 4.139C27.0861 4.139 26.9721 4.091 26.8881 3.995C26.8101 3.899 26.7711 3.776 26.7711 3.626C26.7711 3.41 26.8731 3.206 27.0771 3.014C27.2871 2.822 27.5631 2.666 27.9051 2.546C28.2471 2.426 28.6191 2.366 29.0211 2.366C29.5071 2.366 29.9241 2.483 30.2721 2.717C30.6201 2.951 30.8841 3.293 31.0641 3.743C31.2201 4.127 31.3311 4.556 31.3971 5.03C31.4631 5.504 31.4961 6.011 31.4961 6.551C31.4961 6.959 31.4751 7.274 31.4331 7.496C31.3911 7.718 31.3251 7.874 31.2351 7.964C31.1511 8.048 31.0371 8.09 30.8931 8.09ZM28.9041 7.082C29.1021 7.082 29.3031 7.055 29.5071 7.001C29.7111 6.941 29.8821 6.854 30.0201 6.74C30.1581 6.626 30.2271 6.485 30.2271 6.317C30.2271 6.173 30.1671 6.056 30.0471 5.966C29.9331 5.87 29.7801 5.798 29.5881 5.75C29.4021 5.702 29.2011 5.678 28.9851 5.678C28.6191 5.678 28.3401 5.741 28.1481 5.867C27.9621 5.993 27.8691 6.161 27.8691 6.371C27.8691 6.599 27.9561 6.776 28.1301 6.902C28.3101 7.022 28.5681 7.082 28.9041 7.082ZM34.2769 8.126C33.6889 8.126 33.2299 7.907 32.8999 7.469C32.5699 7.025 32.4049 6.35 32.4049 5.444C32.4049 4.544 32.5669 3.887 32.8909 3.473C33.2209 3.053 33.6919 2.843 34.3039 2.843C34.6519 2.843 34.9549 2.915 35.2129 3.059C35.4769 3.203 35.7109 3.407 35.9149 3.671L35.8429 3.707C35.7889 3.461 35.7349 3.2 35.6809 2.924C35.6269 2.648 35.5819 2.387 35.5459 2.141C35.5159 1.889 35.5009 1.691 35.5009 1.547C35.5009 1.343 35.5339 1.187 35.5999 1.079C35.6659 0.965 35.7709 0.908 35.9149 0.908C36.1189 0.908 36.2839 0.995 36.4099 1.169C36.5359 1.337 36.6409 1.598 36.7249 1.952C36.8029 2.27 36.8719 2.648 36.9319 3.086C36.9919 3.518 37.0399 3.971 37.0759 4.445C37.1179 4.913 37.1389 5.363 37.1389 5.795C37.1389 6.395 37.1059 6.863 37.0399 7.199C36.9799 7.529 36.8929 7.76 36.7789 7.892C36.6709 8.024 36.5419 8.09 36.3919 8.09C36.2059 8.09 36.0799 7.997 36.0139 7.811C35.9479 7.625 35.9209 7.322 35.9329 6.902H36.0679C35.9059 7.274 35.6689 7.571 35.3569 7.793C35.0509 8.015 34.6909 8.126 34.2769 8.126ZM34.7539 7.01C34.9699 7.01 35.1679 6.956 35.3479 6.848C35.5339 6.734 35.6809 6.56 35.7889 6.326C35.9029 6.092 35.9599 5.795 35.9599 5.435C35.9599 4.973 35.8549 4.598 35.6449 4.31C35.4349 4.016 35.1319 3.869 34.7359 3.869C34.4239 3.869 34.1689 3.998 33.9709 4.256C33.7789 4.514 33.6829 4.904 33.6829 5.426C33.6829 5.888 33.7789 6.269 33.9709 6.569C34.1689 6.863 34.4299 7.01 34.7539 7.01ZM42.1695 8.09C41.9655 8.09 41.8245 8.012 41.7465 7.856C41.6745 7.694 41.6325 7.439 41.6205 7.091L41.7105 7.136C41.3745 7.79 40.7385 8.117 39.8025 8.117C39.3765 8.117 39.0225 8.042 38.7405 7.892C38.4585 7.736 38.2485 7.532 38.1105 7.28C37.9785 7.022 37.9125 6.743 37.9125 6.443C37.9125 5.927 38.0925 5.519 38.4525 5.219C38.8125 4.913 39.2895 4.76 39.8835 4.76C40.2735 4.76 40.6125 4.817 40.9005 4.931C41.1885 5.045 41.4345 5.204 41.6385 5.408L41.4855 5.39C41.4435 4.784 41.3115 4.352 41.0895 4.094C40.8735 3.83 40.5645 3.698 40.1625 3.698C39.9285 3.698 39.7125 3.734 39.5145 3.806C39.3165 3.878 39.1335 3.953 38.9655 4.031C38.8035 4.103 38.6505 4.139 38.5065 4.139C38.3625 4.139 38.2485 4.091 38.1645 3.995C38.0865 3.899 38.0475 3.776 38.0475 3.626C38.0475 3.41 38.1495 3.206 38.3535 3.014C38.5635 2.822 38.8395 2.666 39.1815 2.546C39.5235 2.426 39.8955 2.366 40.2975 2.366C40.7835 2.366 41.2005 2.483 41.5485 2.717C41.8965 2.951 42.1605 3.293 42.3405 3.743C42.4965 4.127 42.6075 4.556 42.6735 5.03C42.7395 5.504 42.7725 6.011 42.7725 6.551C42.7725 6.959 42.7515 7.274 42.7095 7.496C42.6675 7.718 42.6015 7.874 42.5115 7.964C42.4275 8.048 42.3135 8.09 42.1695 8.09ZM40.1805 7.082C40.3785 7.082 40.5795 7.055 40.7835 7.001C40.9875 6.941 41.1585 6.854 41.2965 6.74C41.4345 6.626 41.5035 6.485 41.5035 6.317C41.5035 6.173 41.4435 6.056 41.3235 5.966C41.2095 5.87 41.0565 5.798 40.8645 5.75C40.6785 5.702 40.4775 5.678 40.2615 5.678C39.8955 5.678 39.6165 5.741 39.4245 5.867C39.2385 5.993 39.1455 6.161 39.1455 6.371C39.1455 6.599 39.2325 6.776 39.4065 6.902C39.5865 7.022 39.8445 7.082 40.1805 7.082ZM46.356 8.09C46.224 8.09 46.116 8.045 46.032 7.955C45.954 7.865 45.891 7.736 45.843 7.568C45.795 7.322 45.753 7.001 45.717 6.605C45.687 6.203 45.672 5.774 45.672 5.318C45.672 5.06 45.678 4.769 45.69 4.445C45.702 4.121 45.717 3.794 45.735 3.464C45.759 3.128 45.783 2.816 45.807 2.528C45.837 2.24 45.867 2.006 45.897 1.826C45.945 1.562 46.014 1.355 46.104 1.205C46.2 1.049 46.35 0.971 46.554 0.971C46.764 0.971 46.917 1.052 47.013 1.214C47.109 1.37 47.157 1.565 47.157 1.799C47.157 2.063 47.136 2.375 47.094 2.735C47.058 3.095 47.001 3.461 46.923 3.833L46.743 4.049C46.809 3.797 46.917 3.566 47.067 3.356C47.217 3.146 47.406 2.981 47.634 2.861C47.862 2.735 48.126 2.672 48.426 2.672C49.014 2.672 49.482 2.882 49.83 3.302C50.184 3.716 50.361 4.364 50.361 5.246C50.361 5.864 50.268 6.38 50.082 6.794C49.902 7.208 49.653 7.52 49.335 7.73C49.023 7.934 48.666 8.036 48.264 8.036C47.886 8.036 47.559 7.925 47.283 7.703C47.013 7.481 46.839 7.16 46.761 6.74L46.887 6.839C46.863 7.271 46.803 7.589 46.707 7.793C46.617 7.991 46.5 8.09 46.356 8.09ZM48.003 6.992C48.303 6.992 48.567 6.857 48.795 6.587C49.023 6.317 49.137 5.894 49.137 5.318C49.137 4.838 49.047 4.448 48.867 4.148C48.693 3.848 48.399 3.698 47.985 3.698C47.649 3.698 47.379 3.833 47.175 4.103C46.971 4.367 46.869 4.769 46.869 5.309C46.869 5.801 46.971 6.206 47.175 6.524C47.379 6.836 47.655 6.992 48.003 6.992ZM55.2037 8.09C54.9997 8.09 54.8587 8.012 54.7807 7.856C54.7087 7.694 54.6667 7.439 54.6547 7.091L54.7447 7.136C54.4087 7.79 53.7727 8.117 52.8367 8.117C52.4107 8.117 52.0567 8.042 51.7747 7.892C51.4927 7.736 51.2827 7.532 51.1447 7.28C51.0127 7.022 50.9467 6.743 50.9467 6.443C50.9467 5.927 51.1267 5.519 51.4867 5.219C51.8467 4.913 52.3237 4.76 52.9177 4.76C53.3077 4.76 53.6467 4.817 53.9347 4.931C54.2227 5.045 54.4687 5.204 54.6727 5.408L54.5197 5.39C54.4777 4.784 54.3457 4.352 54.1237 4.094C53.9077 3.83 53.5987 3.698 53.1967 3.698C52.9627 3.698 52.7467 3.734 52.5487 3.806C52.3507 3.878 52.1677 3.953 51.9997 4.031C51.8377 4.103 51.6847 4.139 51.5407 4.139C51.3967 4.139 51.2827 4.091 51.1987 3.995C51.1207 3.899 51.0817 3.776 51.0817 3.626C51.0817 3.41 51.1837 3.206 51.3877 3.014C51.5977 2.822 51.8737 2.666 52.2157 2.546C52.5577 2.426 52.9297 2.366 53.3317 2.366C53.8177 2.366 54.2347 2.483 54.5827 2.717C54.9307 2.951 55.1947 3.293 55.3747 3.743C55.5307 4.127 55.6417 4.556 55.7077 5.03C55.7737 5.504 55.8067 6.011 55.8067 6.551C55.8067 6.959 55.7857 7.274 55.7437 7.496C55.7017 7.718 55.6357 7.874 55.5457 7.964C55.4617 8.048 55.3477 8.09 55.2037 8.09ZM53.2147 7.082C53.4127 7.082 53.6137 7.055 53.8177 7.001C54.0217 6.941 54.1927 6.854 54.3307 6.74C54.4687 6.626 54.5377 6.485 54.5377 6.317C54.5377 6.173 54.4777 6.056 54.3577 5.966C54.2437 5.87 54.0907 5.798 53.8987 5.75C53.7127 5.702 53.5117 5.678 53.2957 5.678C52.9297 5.678 52.6507 5.741 52.4587 5.867C52.2727 5.993 52.1797 6.161 52.1797 6.371C52.1797 6.599 52.2667 6.776 52.4407 6.902C52.6207 7.022 52.8787 7.082 53.2147 7.082ZM57.8225 2.402C58.0145 2.402 58.1435 2.48 58.2095 2.636C58.2815 2.792 58.3175 3.023 58.3175 3.329C58.3175 3.401 58.3115 3.479 58.2995 3.563C58.2935 3.641 58.2815 3.713 58.2635 3.779L58.2455 3.599C58.3895 3.209 58.6115 2.906 58.9115 2.69C59.2115 2.468 59.5295 2.357 59.8655 2.357C60.2375 2.357 60.5465 2.462 60.7925 2.672C61.0445 2.882 61.2305 3.176 61.3505 3.554C61.4765 3.932 61.5395 4.379 61.5395 4.895C61.5395 5.213 61.5245 5.528 61.4945 5.84C61.4705 6.146 61.4345 6.428 61.3865 6.686C61.3445 6.938 61.2965 7.145 61.2425 7.307C61.1705 7.511 61.0775 7.664 60.9635 7.766C60.8495 7.862 60.7145 7.91 60.5585 7.91C60.4025 7.91 60.2825 7.853 60.1985 7.739C60.1145 7.625 60.0725 7.472 60.0725 7.28C60.0725 7.076 60.0875 6.83 60.1175 6.542C60.1475 6.248 60.1745 5.951 60.1985 5.651C60.2285 5.345 60.2435 5.069 60.2435 4.823C60.2435 3.983 59.9675 3.563 59.4155 3.563C59.1215 3.563 58.8755 3.695 58.6775 3.959C58.4795 4.217 58.3475 4.586 58.2815 5.066C58.2635 5.228 58.2545 5.429 58.2545 5.669C58.2545 5.909 58.2545 6.149 58.2545 6.389C58.2605 6.623 58.2545 6.821 58.2365 6.983C58.2125 7.343 58.1435 7.601 58.0295 7.757C57.9215 7.913 57.7715 7.991 57.5795 7.991C57.3575 7.991 57.1895 7.889 57.0755 7.685C56.9615 7.475 56.9045 7.124 56.9045 6.632C56.9045 6.38 56.9105 6.098 56.9225 5.786C56.9345 5.474 56.9495 5.162 56.9675 4.85C56.9915 4.532 57.0185 4.244 57.0485 3.986C57.1085 3.5 57.1955 3.116 57.3095 2.834C57.4235 2.546 57.5945 2.402 57.8225 2.402ZM64.3539 7.856C63.7899 7.856 63.3309 7.64 62.9769 7.208C62.6229 6.77 62.4459 6.107 62.4459 5.219C62.4459 4.271 62.6169 3.578 62.9589 3.14C63.3009 2.702 63.7509 2.483 64.3089 2.483C64.6389 2.483 64.9299 2.567 65.1819 2.735C65.4339 2.903 65.6499 3.14 65.8299 3.446L65.7579 3.572C65.7399 3.488 65.7249 3.398 65.7129 3.302C65.7009 3.206 65.6949 3.134 65.6949 3.086C65.6949 2.84 65.7339 2.651 65.8119 2.519C65.8959 2.381 66.0249 2.312 66.1989 2.312C66.3909 2.312 66.5409 2.39 66.6489 2.546C66.7629 2.702 66.8499 2.924 66.9099 3.212C66.9879 3.506 67.0539 3.881 67.1079 4.337C67.1619 4.787 67.1889 5.243 67.1889 5.705C67.1889 6.281 67.1679 6.764 67.1259 7.154C67.0839 7.544 67.0149 7.868 66.9189 8.126C66.8229 8.384 66.6969 8.609 66.5409 8.801C66.2829 9.113 65.9499 9.35 65.5419 9.512C65.1399 9.68 64.6749 9.764 64.1469 9.764C63.7689 9.764 63.4659 9.728 63.2379 9.656C63.0099 9.59 62.8449 9.497 62.7429 9.377C62.6469 9.263 62.5989 9.134 62.5989 8.99C62.5989 8.84 62.6409 8.714 62.7249 8.612C62.8089 8.516 62.9349 8.468 63.1029 8.468C63.2529 8.468 63.4269 8.492 63.6249 8.54C63.8289 8.588 64.0689 8.612 64.3449 8.612C64.9269 8.612 65.3379 8.474 65.5779 8.198C65.8239 7.928 65.9469 7.538 65.9469 7.028C65.9469 6.89 65.9379 6.728 65.9199 6.542L66.0459 6.587C65.8959 6.971 65.6739 7.28 65.3799 7.514C65.0859 7.742 64.7439 7.856 64.3539 7.856ZM64.6959 6.749C64.8879 6.749 65.0799 6.698 65.2719 6.596C65.4639 6.494 65.6229 6.326 65.7489 6.092C65.8749 5.858 65.9379 5.543 65.9379 5.147C65.9379 4.673 65.8269 4.286 65.6049 3.986C65.3829 3.686 65.0709 3.536 64.6689 3.536C64.3209 3.536 64.0659 3.668 63.9039 3.932C63.7419 4.196 63.6609 4.595 63.6609 5.129C63.6609 5.639 63.7419 6.038 63.9039 6.326C64.0659 6.608 64.3299 6.749 64.6959 6.749ZM72.3363 7.946C72.1743 7.946 72.0483 7.892 71.9583 7.784C71.8743 7.67 71.8173 7.526 71.7873 7.352C71.7573 7.172 71.7423 6.983 71.7423 6.785L71.7873 6.749C71.7273 7.007 71.6103 7.229 71.4363 7.415C71.2623 7.601 71.0613 7.745 70.8333 7.847C70.6053 7.943 70.3773 7.991 70.1493 7.991C69.8433 7.991 69.5643 7.919 69.3123 7.775C69.0603 7.631 68.8653 7.409 68.7273 7.109C68.5893 6.791 68.4813 6.392 68.4033 5.912C68.3253 5.426 68.2863 4.928 68.2863 4.418C68.2863 4.142 68.2983 3.887 68.3223 3.653C68.3463 3.419 68.3853 3.227 68.4393 3.077C68.4873 2.921 68.5593 2.807 68.6553 2.735C68.7513 2.657 68.8743 2.618 69.0243 2.618C69.1983 2.618 69.3333 2.687 69.4293 2.825C69.5313 2.957 69.5943 3.143 69.6183 3.383C69.6423 3.581 69.6573 3.827 69.6633 4.121C69.6753 4.409 69.6843 4.7 69.6903 4.994C69.7023 5.282 69.7173 5.525 69.7353 5.723C69.7713 6.083 69.8643 6.35 70.0143 6.524C70.1643 6.692 70.3473 6.776 70.5633 6.776C70.8813 6.776 71.1243 6.656 71.2923 6.416C71.4603 6.176 71.5443 5.84 71.5443 5.408C71.5443 5.192 71.5323 4.949 71.5083 4.679C71.4843 4.403 71.4573 4.136 71.4273 3.878C71.4033 3.62 71.3913 3.407 71.3913 3.239C71.3913 2.957 71.4393 2.756 71.5353 2.636C71.6313 2.51 71.7633 2.447 71.9313 2.447C72.0753 2.447 72.1953 2.486 72.2913 2.564C72.3933 2.642 72.4743 2.75 72.5343 2.888C72.6183 3.068 72.6903 3.314 72.7503 3.626C72.8103 3.938 72.8583 4.292 72.8943 4.688C72.9303 5.084 72.9483 5.501 72.9483 5.939C72.9483 6.611 72.9033 7.115 72.8133 7.451C72.7233 7.781 72.5643 7.946 72.3363 7.946ZM74.9611 2.402C75.1531 2.402 75.2821 2.48 75.3481 2.636C75.4201 2.792 75.4561 3.023 75.4561 3.329C75.4561 3.401 75.4501 3.479 75.4381 3.563C75.4321 3.641 75.4201 3.713 75.4021 3.779L75.3841 3.599C75.5281 3.209 75.7501 2.906 76.0501 2.69C76.3501 2.468 76.6681 2.357 77.0041 2.357C77.3761 2.357 77.6851 2.462 77.9311 2.672C78.1831 2.882 78.3691 3.176 78.4891 3.554C78.6151 3.932 78.6781 4.379 78.6781 4.895C78.6781 5.213 78.6631 5.528 78.6331 5.84C78.6091 6.146 78.5731 6.428 78.5251 6.686C78.4831 6.938 78.4351 7.145 78.3811 7.307C78.3091 7.511 78.2161 7.664 78.1021 7.766C77.9881 7.862 77.8531 7.91 77.6971 7.91C77.5411 7.91 77.4211 7.853 77.3371 7.739C77.2531 7.625 77.2111 7.472 77.2111 7.28C77.2111 7.076 77.2261 6.83 77.2561 6.542C77.2861 6.248 77.3131 5.951 77.3371 5.651C77.3671 5.345 77.3821 5.069 77.3821 4.823C77.3821 3.983 77.1061 3.563 76.5541 3.563C76.2601 3.563 76.0141 3.695 75.8161 3.959C75.6181 4.217 75.4861 4.586 75.4201 5.066C75.4021 5.228 75.3931 5.429 75.3931 5.669C75.3931 5.909 75.3931 6.149 75.3931 6.389C75.3991 6.623 75.3931 6.821 75.3751 6.983C75.3511 7.343 75.2821 7.601 75.1681 7.757C75.0601 7.913 74.9101 7.991 74.7181 7.991C74.4961 7.991 74.3281 7.889 74.2141 7.685C74.1001 7.475 74.0431 7.124 74.0431 6.632C74.0431 6.38 74.0491 6.098 74.0611 5.786C74.0731 5.474 74.0881 5.162 74.1061 4.85C74.1301 4.532 74.1571 4.244 74.1871 3.986C74.2471 3.5 74.3341 3.116 74.4481 2.834C74.5621 2.546 74.7331 2.402 74.9611 2.402ZM83.2584 8.126C82.6704 8.126 82.2114 7.907 81.8814 7.469C81.5514 7.025 81.3864 6.35 81.3864 5.444C81.3864 4.544 81.5484 3.887 81.8724 3.473C82.2024 3.053 82.6734 2.843 83.2854 2.843C83.6334 2.843 83.9364 2.915 84.1944 3.059C84.4584 3.203 84.6924 3.407 84.8964 3.671L84.8244 3.707C84.7704 3.461 84.7164 3.2 84.6624 2.924C84.6084 2.648 84.5634 2.387 84.5274 2.141C84.4974 1.889 84.4824 1.691 84.4824 1.547C84.4824 1.343 84.5154 1.187 84.5814 1.079C84.6474 0.965 84.7524 0.908 84.8964 0.908C85.1004 0.908 85.2654 0.995 85.3914 1.169C85.5174 1.337 85.6224 1.598 85.7064 1.952C85.7844 2.27 85.8534 2.648 85.9134 3.086C85.9734 3.518 86.0214 3.971 86.0574 4.445C86.0994 4.913 86.1204 5.363 86.1204 5.795C86.1204 6.395 86.0874 6.863 86.0214 7.199C85.9614 7.529 85.8744 7.76 85.7604 7.892C85.6524 8.024 85.5234 8.09 85.3734 8.09C85.1874 8.09 85.0614 7.997 84.9954 7.811C84.9294 7.625 84.9024 7.322 84.9144 6.902H85.0494C84.8874 7.274 84.6504 7.571 84.3384 7.793C84.0324 8.015 83.6724 8.126 83.2584 8.126ZM83.7354 7.01C83.9514 7.01 84.1494 6.956 84.3294 6.848C84.5154 6.734 84.6624 6.56 84.7704 6.326C84.8844 6.092 84.9414 5.795 84.9414 5.435C84.9414 4.973 84.8364 4.598 84.6264 4.31C84.4164 4.016 84.1134 3.869 83.7174 3.869C83.4054 3.869 83.1504 3.998 82.9524 4.256C82.7604 4.514 82.6644 4.904 82.6644 5.426C82.6644 5.888 82.7604 6.269 82.9524 6.569C83.1504 6.863 83.4114 7.01 83.7354 7.01ZM91.1509 8.09C90.9469 8.09 90.8059 8.012 90.7279 7.856C90.6559 7.694 90.6139 7.439 90.6019 7.091L90.6919 7.136C90.3559 7.79 89.7199 8.117 88.7839 8.117C88.3579 8.117 88.0039 8.042 87.7219 7.892C87.4399 7.736 87.2299 7.532 87.0919 7.28C86.9599 7.022 86.8939 6.743 86.8939 6.443C86.8939 5.927 87.0739 5.519 87.4339 5.219C87.7939 4.913 88.2709 4.76 88.8649 4.76C89.2549 4.76 89.5939 4.817 89.8819 4.931C90.1699 5.045 90.4159 5.204 90.6199 5.408L90.4669 5.39C90.4249 4.784 90.2929 4.352 90.0709 4.094C89.8549 3.83 89.5459 3.698 89.1439 3.698C88.9099 3.698 88.6939 3.734 88.4959 3.806C88.2979 3.878 88.1149 3.953 87.9469 4.031C87.7849 4.103 87.6319 4.139 87.4879 4.139C87.3439 4.139 87.2299 4.091 87.1459 3.995C87.0679 3.899 87.0289 3.776 87.0289 3.626C87.0289 3.41 87.1309 3.206 87.3349 3.014C87.5449 2.822 87.8209 2.666 88.1629 2.546C88.5049 2.426 88.8769 2.366 89.2789 2.366C89.7649 2.366 90.1819 2.483 90.5299 2.717C90.8779 2.951 91.1419 3.293 91.3219 3.743C91.4779 4.127 91.5889 4.556 91.6549 5.03C91.7209 5.504 91.7539 6.011 91.7539 6.551C91.7539 6.959 91.7329 7.274 91.6909 7.496C91.6489 7.718 91.5829 7.874 91.4929 7.964C91.4089 8.048 91.2949 8.09 91.1509 8.09ZM89.1619 7.082C89.3599 7.082 89.5609 7.055 89.7649 7.001C89.9689 6.941 90.1399 6.854 90.2779 6.74C90.4159 6.626 90.4849 6.485 90.4849 6.317C90.4849 6.173 90.4249 6.056 90.3049 5.966C90.1909 5.87 90.0379 5.798 89.8459 5.75C89.6599 5.702 89.4589 5.678 89.2429 5.678C88.8769 5.678 88.5979 5.741 88.4059 5.867C88.2199 5.993 88.1269 6.161 88.1269 6.371C88.1269 6.599 88.2139 6.776 88.3879 6.902C88.5679 7.022 88.8259 7.082 89.1619 7.082ZM94.1003 2.582H93.9203C93.9023 2.318 93.9083 2.069 93.9383 1.835C93.9683 1.595 94.0313 1.403 94.1273 1.259C94.2293 1.109 94.3733 1.034 94.5593 1.034C94.7273 1.034 94.8503 1.088 94.9283 1.196C95.0063 1.304 95.0453 1.454 95.0453 1.646C95.0453 2.024 94.9733 2.348 94.8293 2.618L94.6673 2.6C94.9913 2.486 95.3573 2.429 95.7653 2.429C96.0233 2.429 96.2273 2.48 96.3773 2.582C96.5333 2.678 96.6113 2.843 96.6113 3.077C96.6113 3.299 96.5213 3.467 96.3413 3.581C96.1613 3.695 95.9363 3.752 95.6663 3.752C95.5043 3.752 95.3303 3.746 95.1443 3.734C94.9643 3.716 94.7873 3.689 94.6133 3.653L94.7663 3.464C94.8203 3.692 94.8713 3.953 94.9193 4.247C94.9733 4.535 95.0213 4.835 95.0633 5.147C95.1053 5.459 95.1383 5.762 95.1623 6.056C95.1863 6.35 95.1983 6.614 95.1983 6.848C95.1983 7.232 95.1383 7.535 95.0183 7.757C94.8983 7.979 94.7213 8.09 94.4873 8.09C94.3013 8.09 94.1543 8.033 94.0463 7.919C93.9443 7.805 93.8693 7.661 93.8213 7.487C93.7793 7.307 93.7523 7.121 93.7403 6.929C93.7343 6.737 93.7313 6.563 93.7313 6.407C93.7313 6.143 93.7433 5.846 93.7673 5.516C93.7913 5.18 93.8243 4.835 93.8663 4.481C93.9143 4.127 93.9683 3.785 94.0283 3.455L94.2083 3.608C93.9023 3.764 93.5243 3.842 93.0743 3.842C92.7983 3.842 92.5853 3.791 92.4353 3.689C92.2853 3.587 92.2103 3.428 92.2103 3.212C92.2103 2.978 92.2943 2.798 92.4623 2.672C92.6303 2.54 92.8553 2.474 93.1373 2.474C93.3233 2.474 93.4973 2.486 93.6593 2.51C93.8273 2.528 93.9743 2.552 94.1003 2.582ZM101.276 8.09C101.072 8.09 100.931 8.012 100.853 7.856C100.781 7.694 100.739 7.439 100.727 7.091L100.817 7.136C100.481 7.79 99.8449 8.117 98.9089 8.117C98.4829 8.117 98.1289 8.042 97.8469 7.892C97.5649 7.736 97.3549 7.532 97.2169 7.28C97.0849 7.022 97.0189 6.743 97.0189 6.443C97.0189 5.927 97.1989 5.519 97.5589 5.219C97.9189 4.913 98.3959 4.76 98.9899 4.76C99.3799 4.76 99.7189 4.817 100.007 4.931C100.295 5.045 100.541 5.204 100.745 5.408L100.592 5.39C100.55 4.784 100.418 4.352 100.196 4.094C99.9799 3.83 99.6709 3.698 99.2689 3.698C99.0349 3.698 98.8189 3.734 98.6209 3.806C98.4229 3.878 98.2399 3.953 98.0719 4.031C97.9099 4.103 97.7569 4.139 97.6129 4.139C97.4689 4.139 97.3549 4.091 97.2709 3.995C97.1929 3.899 97.1539 3.776 97.1539 3.626C97.1539 3.41 97.2559 3.206 97.4599 3.014C97.6699 2.822 97.9459 2.666 98.2879 2.546C98.6299 2.426 99.0019 2.366 99.4039 2.366C99.8899 2.366 100.307 2.483 100.655 2.717C101.003 2.951 101.267 3.293 101.447 3.743C101.603 4.127 101.714 4.556 101.78 5.03C101.846 5.504 101.879 6.011 101.879 6.551C101.879 6.959 101.858 7.274 101.816 7.496C101.774 7.718 101.708 7.874 101.618 7.964C101.534 8.048 101.42 8.09 101.276 8.09ZM99.2869 7.082C99.4849 7.082 99.6859 7.055 99.8899 7.001C100.094 6.941 100.265 6.854 100.403 6.74C100.541 6.626 100.61 6.485 100.61 6.317C100.61 6.173 100.55 6.056 100.43 5.966C100.316 5.87 100.163 5.798 99.9709 5.75C99.7849 5.702 99.5839 5.678 99.3679 5.678C99.0019 5.678 98.7229 5.741 98.5309 5.867C98.3449 5.993 98.2519 6.161 98.2519 6.371C98.2519 6.599 98.3389 6.776 98.5129 6.902C98.6929 7.022 98.9509 7.082 99.2869 7.082ZM102.977 3.941C102.977 3.365 103.031 2.951 103.139 2.699C103.247 2.441 103.4 2.312 103.598 2.312C103.754 2.312 103.877 2.378 103.967 2.51C104.057 2.636 104.123 2.795 104.165 2.987C104.207 3.173 104.228 3.362 104.228 3.554L104.183 3.536C104.285 3.212 104.441 2.933 104.651 2.699C104.867 2.465 105.125 2.348 105.425 2.348C105.779 2.348 106.04 2.495 106.208 2.789C106.376 3.077 106.46 3.437 106.46 3.869C106.46 4.445 106.394 4.847 106.262 5.075C106.13 5.303 105.953 5.417 105.731 5.417C105.569 5.417 105.449 5.351 105.371 5.219C105.299 5.087 105.275 4.853 105.299 4.517C105.323 4.163 105.302 3.917 105.236 3.779C105.17 3.641 105.065 3.572 104.921 3.572C104.747 3.572 104.603 3.683 104.489 3.905C104.381 4.121 104.327 4.388 104.327 4.706C104.327 4.832 104.342 4.991 104.372 5.183C104.402 5.375 104.435 5.585 104.471 5.813C104.507 6.035 104.54 6.257 104.57 6.479C104.6 6.701 104.615 6.905 104.615 7.091C104.615 7.421 104.564 7.658 104.462 7.802C104.36 7.946 104.216 8.018 104.03 8.018C103.82 8.018 103.658 7.952 103.544 7.82C103.43 7.682 103.343 7.46 103.283 7.154C103.235 6.878 103.187 6.551 103.139 6.173C103.091 5.795 103.052 5.408 103.022 5.012C102.992 4.616 102.977 4.259 102.977 3.941ZM109.95 9.791C109.626 9.791 109.464 9.617 109.464 9.269C109.464 9.077 109.53 8.849 109.662 8.585C109.794 8.321 109.986 8.036 110.238 7.73C110.496 7.424 110.808 7.112 111.174 6.794L111.165 6.866C110.367 6.074 109.761 5.378 109.347 4.778C108.939 4.178 108.735 3.659 108.735 3.221C108.735 3.005 108.789 2.837 108.897 2.717C109.011 2.597 109.161 2.537 109.347 2.537C109.743 2.537 110.136 2.825 110.526 3.401C110.916 3.977 111.285 4.853 111.633 6.029H111.669C111.897 4.793 112.14 3.887 112.398 3.311C112.656 2.729 112.962 2.438 113.316 2.438C113.484 2.438 113.607 2.498 113.685 2.618C113.769 2.732 113.811 2.894 113.811 3.104C113.811 3.278 113.772 3.509 113.694 3.797C113.622 4.079 113.517 4.4 113.379 4.76C113.247 5.114 113.091 5.483 112.911 5.867C112.737 6.251 112.545 6.629 112.335 7.001C111.801 7.967 111.345 8.672 110.967 9.116C110.589 9.566 110.25 9.791 109.95 9.791ZM118.52 8.09C118.316 8.09 118.175 8.012 118.097 7.856C118.025 7.694 117.983 7.439 117.971 7.091L118.061 7.136C117.725 7.79 117.089 8.117 116.153 8.117C115.727 8.117 115.373 8.042 115.091 7.892C114.809 7.736 114.599 7.532 114.461 7.28C114.329 7.022 114.263 6.743 114.263 6.443C114.263 5.927 114.443 5.519 114.803 5.219C115.163 4.913 115.64 4.76 116.234 4.76C116.624 4.76 116.963 4.817 117.251 4.931C117.539 5.045 117.785 5.204 117.989 5.408L117.836 5.39C117.794 4.784 117.662 4.352 117.44 4.094C117.224 3.83 116.915 3.698 116.513 3.698C116.279 3.698 116.063 3.734 115.865 3.806C115.667 3.878 115.484 3.953 115.316 4.031C115.154 4.103 115.001 4.139 114.857 4.139C114.713 4.139 114.599 4.091 114.515 3.995C114.437 3.899 114.398 3.776 114.398 3.626C114.398 3.41 114.5 3.206 114.704 3.014C114.914 2.822 115.19 2.666 115.532 2.546C115.874 2.426 116.246 2.366 116.648 2.366C117.134 2.366 117.551 2.483 117.899 2.717C118.247 2.951 118.511 3.293 118.691 3.743C118.847 4.127 118.958 4.556 119.024 5.03C119.09 5.504 119.123 6.011 119.123 6.551C119.123 6.959 119.102 7.274 119.06 7.496C119.018 7.718 118.952 7.874 118.862 7.964C118.778 8.048 118.664 8.09 118.52 8.09ZM116.531 7.082C116.729 7.082 116.93 7.055 117.134 7.001C117.338 6.941 117.509 6.854 117.647 6.74C117.785 6.626 117.854 6.485 117.854 6.317C117.854 6.173 117.794 6.056 117.674 5.966C117.56 5.87 117.407 5.798 117.215 5.75C117.029 5.702 116.828 5.678 116.612 5.678C116.246 5.678 115.967 5.741 115.775 5.867C115.589 5.993 115.496 6.161 115.496 6.371C115.496 6.599 115.583 6.776 115.757 6.902C115.937 7.022 116.195 7.082 116.531 7.082ZM121.139 2.402C121.331 2.402 121.46 2.48 121.526 2.636C121.598 2.792 121.634 3.023 121.634 3.329C121.634 3.401 121.628 3.479 121.616 3.563C121.61 3.641 121.598 3.713 121.58 3.779L121.562 3.599C121.706 3.209 121.928 2.906 122.228 2.69C122.528 2.468 122.846 2.357 123.182 2.357C123.554 2.357 123.863 2.462 124.109 2.672C124.361 2.882 124.547 3.176 124.667 3.554C124.793 3.932 124.856 4.379 124.856 4.895C124.856 5.213 124.841 5.528 124.811 5.84C124.787 6.146 124.751 6.428 124.703 6.686C124.661 6.938 124.613 7.145 124.559 7.307C124.487 7.511 124.394 7.664 124.28 7.766C124.166 7.862 124.031 7.91 123.875 7.91C123.719 7.91 123.599 7.853 123.515 7.739C123.431 7.625 123.389 7.472 123.389 7.28C123.389 7.076 123.404 6.83 123.434 6.542C123.464 6.248 123.491 5.951 123.515 5.651C123.545 5.345 123.56 5.069 123.56 4.823C123.56 3.983 123.284 3.563 122.732 3.563C122.438 3.563 122.192 3.695 121.994 3.959C121.796 4.217 121.664 4.586 121.598 5.066C121.58 5.228 121.571 5.429 121.571 5.669C121.571 5.909 121.571 6.149 121.571 6.389C121.577 6.623 121.571 6.821 121.553 6.983C121.529 7.343 121.46 7.601 121.346 7.757C121.238 7.913 121.088 7.991 120.896 7.991C120.674 7.991 120.506 7.889 120.392 7.685C120.278 7.475 120.221 7.124 120.221 6.632C120.221 6.38 120.227 6.098 120.239 5.786C120.251 5.474 120.266 5.162 120.284 4.85C120.308 4.532 120.335 4.244 120.365 3.986C120.425 3.5 120.512 3.116 120.626 2.834C120.74 2.546 120.911 2.402 121.139 2.402ZM127.67 7.856C127.106 7.856 126.647 7.64 126.293 7.208C125.939 6.77 125.762 6.107 125.762 5.219C125.762 4.271 125.933 3.578 126.275 3.14C126.617 2.702 127.067 2.483 127.625 2.483C127.955 2.483 128.246 2.567 128.498 2.735C128.75 2.903 128.966 3.14 129.146 3.446L129.074 3.572C129.056 3.488 129.041 3.398 129.029 3.302C129.017 3.206 129.011 3.134 129.011 3.086C129.011 2.84 129.05 2.651 129.128 2.519C129.212 2.381 129.341 2.312 129.515 2.312C129.707 2.312 129.857 2.39 129.965 2.546C130.079 2.702 130.166 2.924 130.226 3.212C130.304 3.506 130.37 3.881 130.424 4.337C130.478 4.787 130.505 5.243 130.505 5.705C130.505 6.281 130.484 6.764 130.442 7.154C130.4 7.544 130.331 7.868 130.235 8.126C130.139 8.384 130.013 8.609 129.857 8.801C129.599 9.113 129.266 9.35 128.858 9.512C128.456 9.68 127.991 9.764 127.463 9.764C127.085 9.764 126.782 9.728 126.554 9.656C126.326 9.59 126.161 9.497 126.059 9.377C125.963 9.263 125.915 9.134 125.915 8.99C125.915 8.84 125.957 8.714 126.041 8.612C126.125 8.516 126.251 8.468 126.419 8.468C126.569 8.468 126.743 8.492 126.941 8.54C127.145 8.588 127.385 8.612 127.661 8.612C128.243 8.612 128.654 8.474 128.894 8.198C129.14 7.928 129.263 7.538 129.263 7.028C129.263 6.89 129.254 6.728 129.236 6.542L129.362 6.587C129.212 6.971 128.99 7.28 128.696 7.514C128.402 7.742 128.06 7.856 127.67 7.856ZM128.012 6.749C128.204 6.749 128.396 6.698 128.588 6.596C128.78 6.494 128.939 6.326 129.065 6.092C129.191 5.858 129.254 5.543 129.254 5.147C129.254 4.673 129.143 4.286 128.921 3.986C128.699 3.686 128.387 3.536 127.985 3.536C127.637 3.536 127.382 3.668 127.22 3.932C127.058 4.196 126.977 4.595 126.977 5.129C126.977 5.639 127.058 6.038 127.22 6.326C127.382 6.608 127.646 6.749 128.012 6.749ZM135.087 8.126C134.499 8.126 134.04 7.907 133.71 7.469C133.38 7.025 133.215 6.35 133.215 5.444C133.215 4.544 133.377 3.887 133.701 3.473C134.031 3.053 134.502 2.843 135.114 2.843C135.462 2.843 135.765 2.915 136.023 3.059C136.287 3.203 136.521 3.407 136.725 3.671L136.653 3.707C136.599 3.461 136.545 3.2 136.491 2.924C136.437 2.648 136.392 2.387 136.356 2.141C136.326 1.889 136.311 1.691 136.311 1.547C136.311 1.343 136.344 1.187 136.41 1.079C136.476 0.965 136.581 0.908 136.725 0.908C136.929 0.908 137.094 0.995 137.22 1.169C137.346 1.337 137.451 1.598 137.535 1.952C137.613 2.27 137.682 2.648 137.742 3.086C137.802 3.518 137.85 3.971 137.886 4.445C137.928 4.913 137.949 5.363 137.949 5.795C137.949 6.395 137.916 6.863 137.85 7.199C137.79 7.529 137.703 7.76 137.589 7.892C137.481 8.024 137.352 8.09 137.202 8.09C137.016 8.09 136.89 7.997 136.824 7.811C136.758 7.625 136.731 7.322 136.743 6.902H136.878C136.716 7.274 136.479 7.571 136.167 7.793C135.861 8.015 135.501 8.126 135.087 8.126ZM135.564 7.01C135.78 7.01 135.978 6.956 136.158 6.848C136.344 6.734 136.491 6.56 136.599 6.326C136.713 6.092 136.77 5.795 136.77 5.435C136.77 4.973 136.665 4.598 136.455 4.31C136.245 4.016 135.942 3.869 135.546 3.869C135.234 3.869 134.979 3.998 134.781 4.256C134.589 4.514 134.493 4.904 134.493 5.426C134.493 5.888 134.589 6.269 134.781 6.569C134.979 6.863 135.24 7.01 135.564 7.01ZM139.839 1.097C140.079 1.097 140.25 1.163 140.352 1.295C140.46 1.427 140.514 1.58 140.514 1.754C140.514 1.97 140.448 2.138 140.316 2.258C140.19 2.372 140.01 2.429 139.776 2.429C139.548 2.429 139.377 2.366 139.263 2.24C139.149 2.108 139.092 1.955 139.092 1.781C139.092 1.553 139.161 1.382 139.299 1.268C139.437 1.154 139.617 1.097 139.839 1.097ZM139.893 3.104C140.085 3.104 140.235 3.284 140.343 3.644C140.457 4.004 140.514 4.577 140.514 5.363C140.514 6.329 140.445 7.025 140.307 7.451C140.169 7.877 139.959 8.09 139.677 8.09C139.461 8.09 139.302 7.934 139.2 7.622C139.098 7.304 139.047 6.752 139.047 5.966C139.047 5 139.125 4.283 139.281 3.815C139.443 3.341 139.647 3.104 139.893 3.104ZM142.225 2.42C142.387 2.42 142.522 2.516 142.63 2.708C142.738 2.894 142.813 3.191 142.855 3.599L142.666 3.77C142.774 3.35 142.975 3.029 143.269 2.807C143.563 2.585 143.911 2.474 144.313 2.474C144.685 2.474 145.015 2.57 145.303 2.762C145.591 2.954 145.816 3.245 145.978 3.635C146.146 4.019 146.23 4.502 146.23 5.084C146.23 6.026 146.059 6.722 145.717 7.172C145.381 7.616 144.922 7.838 144.34 7.838C143.92 7.838 143.59 7.748 143.35 7.568C143.11 7.388 142.942 7.169 142.846 6.911L142.954 6.857C143.002 7.217 143.041 7.574 143.071 7.928C143.107 8.276 143.125 8.582 143.125 8.846C143.125 9.116 143.077 9.344 142.981 9.53C142.885 9.716 142.732 9.809 142.522 9.809C142.318 9.809 142.165 9.731 142.063 9.575C141.961 9.419 141.886 9.212 141.838 8.954C141.802 8.69 141.766 8.351 141.73 7.937C141.694 7.523 141.664 7.076 141.64 6.596C141.622 6.116 141.613 5.648 141.613 5.192C141.613 4.724 141.628 4.286 141.658 3.878C141.694 3.464 141.736 3.128 141.784 2.87C141.826 2.72 141.88 2.609 141.946 2.537C142.018 2.459 142.111 2.42 142.225 2.42ZM143.944 3.509C143.62 3.509 143.359 3.671 143.161 3.995C142.969 4.313 142.873 4.721 142.873 5.219C142.873 5.729 142.969 6.11 143.161 6.362C143.359 6.614 143.614 6.74 143.926 6.74C144.286 6.74 144.544 6.599 144.7 6.317C144.862 6.029 144.943 5.657 144.943 5.201C144.943 4.619 144.844 4.193 144.646 3.923C144.448 3.647 144.214 3.509 143.944 3.509ZM147.934 1.097C148.174 1.097 148.345 1.163 148.447 1.295C148.555 1.427 148.609 1.58 148.609 1.754C148.609 1.97 148.543 2.138 148.411 2.258C148.285 2.372 148.105 2.429 147.871 2.429C147.643 2.429 147.472 2.366 147.358 2.24C147.244 2.108 147.187 1.955 147.187 1.781C147.187 1.553 147.256 1.382 147.394 1.268C147.532 1.154 147.712 1.097 147.934 1.097ZM147.988 3.104C148.18 3.104 148.33 3.284 148.438 3.644C148.552 4.004 148.609 4.577 148.609 5.363C148.609 6.329 148.54 7.025 148.402 7.451C148.264 7.877 148.054 8.09 147.772 8.09C147.556 8.09 147.397 7.934 147.295 7.622C147.193 7.304 147.142 6.752 147.142 5.966C147.142 5 147.22 4.283 147.376 3.815C147.538 3.341 147.742 3.104 147.988 3.104ZM150.68 8.018C150.494 8.018 150.347 7.976 150.239 7.892C150.131 7.802 150.044 7.655 149.978 7.451C149.888 7.151 149.819 6.773 149.771 6.317C149.729 5.855 149.708 5.288 149.708 4.616C149.708 4.202 149.723 3.788 149.753 3.374C149.789 2.954 149.834 2.573 149.888 2.231C149.942 1.883 149.999 1.613 150.059 1.421C150.125 1.217 150.203 1.076 150.293 0.997999C150.383 0.92 150.485 0.881 150.599 0.881C150.719 0.881 150.815 0.923 150.887 1.007C150.959 1.085 151.016 1.226 151.058 1.43C151.094 1.628 151.121 1.871 151.139 2.159C151.163 2.447 151.175 2.756 151.175 3.086C151.175 3.536 151.154 4.01 151.112 4.508C151.07 5.006 151.013 5.495 150.941 5.975C150.875 6.455 150.794 6.896 150.698 7.298L150.446 7.172C150.602 6.98 150.779 6.83 150.977 6.722C151.181 6.614 151.367 6.56 151.535 6.56C151.673 6.56 151.778 6.599 151.85 6.677C151.928 6.749 151.967 6.863 151.967 7.019C151.967 7.175 151.898 7.331 151.76 7.487C151.628 7.643 151.463 7.772 151.265 7.874C151.067 7.97 150.872 8.018 150.68 8.018ZM153.576 1.097C153.816 1.097 153.987 1.163 154.089 1.295C154.197 1.427 154.251 1.58 154.251 1.754C154.251 1.97 154.185 2.138 154.053 2.258C153.927 2.372 153.747 2.429 153.513 2.429C153.285 2.429 153.114 2.366 153 2.24C152.886 2.108 152.829 1.955 152.829 1.781C152.829 1.553 152.898 1.382 153.036 1.268C153.174 1.154 153.354 1.097 153.576 1.097ZM153.63 3.104C153.822 3.104 153.972 3.284 154.08 3.644C154.194 4.004 154.251 4.577 154.251 5.363C154.251 6.329 154.182 7.025 154.044 7.451C153.906 7.877 153.696 8.09 153.414 8.09C153.198 8.09 153.039 7.934 152.937 7.622C152.835 7.304 152.784 6.752 152.784 5.966C152.784 5 152.862 4.283 153.018 3.815C153.18 3.341 153.384 3.104 153.63 3.104ZM156.278 0.872C156.47 0.872 156.602 0.947 156.674 1.097C156.752 1.247 156.791 1.472 156.791 1.772C156.791 2.03 156.776 2.354 156.746 2.744C156.716 3.134 156.677 3.509 156.629 3.869H156.575C156.773 3.497 157.028 3.197 157.34 2.969C157.652 2.741 157.982 2.627 158.33 2.627C158.636 2.627 158.909 2.702 159.149 2.852C159.389 2.996 159.584 3.224 159.734 3.536C159.872 3.818 159.974 4.154 160.04 4.544C160.106 4.928 160.139 5.294 160.139 5.642C160.139 6.2 160.1 6.644 160.022 6.974C159.95 7.304 159.848 7.544 159.716 7.694C159.584 7.838 159.428 7.91 159.248 7.91C158.87 7.91 158.681 7.601 158.681 6.983C158.681 6.683 158.696 6.374 158.726 6.056C158.762 5.738 158.78 5.447 158.78 5.183C158.78 4.733 158.708 4.397 158.564 4.175C158.426 3.947 158.225 3.833 157.961 3.833C157.631 3.833 157.364 3.98 157.16 4.274C156.956 4.568 156.854 4.973 156.854 5.489C156.854 5.759 156.878 6.056 156.926 6.38C156.974 6.698 156.998 6.989 156.998 7.253C156.998 7.547 156.941 7.76 156.827 7.892C156.719 8.018 156.578 8.081 156.404 8.081C156.272 8.081 156.155 8.054 156.053 8C155.957 7.952 155.873 7.853 155.801 7.703C155.735 7.547 155.678 7.316 155.63 7.01C155.594 6.776 155.558 6.503 155.522 6.191C155.486 5.879 155.456 5.552 155.432 5.21C155.408 4.868 155.387 4.535 155.369 4.211C155.357 3.881 155.351 3.581 155.351 3.311C155.351 2.459 155.432 1.841 155.594 1.457C155.756 1.067 155.984 0.872 156.278 0.872ZM163.653 2.42C163.815 2.42 163.95 2.516 164.058 2.708C164.166 2.894 164.241 3.191 164.283 3.599L164.094 3.77C164.202 3.35 164.403 3.029 164.697 2.807C164.991 2.585 165.339 2.474 165.741 2.474C166.113 2.474 166.443 2.57 166.731 2.762C167.019 2.954 167.244 3.245 167.406 3.635C167.574 4.019 167.658 4.502 167.658 5.084C167.658 6.026 167.487 6.722 167.145 7.172C166.809 7.616 166.35 7.838 165.768 7.838C165.348 7.838 165.018 7.748 164.778 7.568C164.538 7.388 164.37 7.169 164.274 6.911L164.382 6.857C164.43 7.217 164.469 7.574 164.499 7.928C164.535 8.276 164.553 8.582 164.553 8.846C164.553 9.116 164.505 9.344 164.409 9.53C164.313 9.716 164.16 9.809 163.95 9.809C163.746 9.809 163.593 9.731 163.491 9.575C163.389 9.419 163.314 9.212 163.266 8.954C163.23 8.69 163.194 8.351 163.158 7.937C163.122 7.523 163.092 7.076 163.068 6.596C163.05 6.116 163.041 5.648 163.041 5.192C163.041 4.724 163.056 4.286 163.086 3.878C163.122 3.464 163.164 3.128 163.212 2.87C163.254 2.72 163.308 2.609 163.374 2.537C163.446 2.459 163.539 2.42 163.653 2.42ZM165.372 3.509C165.048 3.509 164.787 3.671 164.589 3.995C164.397 4.313 164.301 4.721 164.301 5.219C164.301 5.729 164.397 6.11 164.589 6.362C164.787 6.614 165.042 6.74 165.354 6.74C165.714 6.74 165.972 6.599 166.128 6.317C166.29 6.029 166.371 5.657 166.371 5.201C166.371 4.619 166.272 4.193 166.074 3.923C165.876 3.647 165.642 3.509 165.372 3.509ZM172.503 8.09C172.299 8.09 172.158 8.012 172.08 7.856C172.008 7.694 171.966 7.439 171.954 7.091L172.044 7.136C171.708 7.79 171.072 8.117 170.136 8.117C169.71 8.117 169.356 8.042 169.074 7.892C168.792 7.736 168.582 7.532 168.444 7.28C168.312 7.022 168.246 6.743 168.246 6.443C168.246 5.927 168.426 5.519 168.786 5.219C169.146 4.913 169.623 4.76 170.217 4.76C170.607 4.76 170.946 4.817 171.234 4.931C171.522 5.045 171.768 5.204 171.972 5.408L171.819 5.39C171.777 4.784 171.645 4.352 171.423 4.094C171.207 3.83 170.898 3.698 170.496 3.698C170.262 3.698 170.046 3.734 169.848 3.806C169.65 3.878 169.467 3.953 169.299 4.031C169.137 4.103 168.984 4.139 168.84 4.139C168.696 4.139 168.582 4.091 168.498 3.995C168.42 3.899 168.381 3.776 168.381 3.626C168.381 3.41 168.483 3.206 168.687 3.014C168.897 2.822 169.173 2.666 169.515 2.546C169.857 2.426 170.229 2.366 170.631 2.366C171.117 2.366 171.534 2.483 171.882 2.717C172.23 2.951 172.494 3.293 172.674 3.743C172.83 4.127 172.941 4.556 173.007 5.03C173.073 5.504 173.106 6.011 173.106 6.551C173.106 6.959 173.085 7.274 173.043 7.496C173.001 7.718 172.935 7.874 172.845 7.964C172.761 8.048 172.647 8.09 172.503 8.09ZM170.514 7.082C170.712 7.082 170.913 7.055 171.117 7.001C171.321 6.941 171.492 6.854 171.63 6.74C171.768 6.626 171.837 6.485 171.837 6.317C171.837 6.173 171.777 6.056 171.657 5.966C171.543 5.87 171.39 5.798 171.198 5.75C171.012 5.702 170.811 5.678 170.595 5.678C170.229 5.678 169.95 5.741 169.758 5.867C169.572 5.993 169.479 6.161 169.479 6.371C169.479 6.599 169.566 6.776 169.74 6.902C169.92 7.022 170.178 7.082 170.514 7.082ZM175.886 8.126C175.298 8.126 174.839 7.907 174.509 7.469C174.179 7.025 174.014 6.35 174.014 5.444C174.014 4.544 174.176 3.887 174.5 3.473C174.83 3.053 175.301 2.843 175.913 2.843C176.261 2.843 176.564 2.915 176.822 3.059C177.086 3.203 177.32 3.407 177.524 3.671L177.452 3.707C177.398 3.461 177.344 3.2 177.29 2.924C177.236 2.648 177.191 2.387 177.155 2.141C177.125 1.889 177.11 1.691 177.11 1.547C177.11 1.343 177.143 1.187 177.209 1.079C177.275 0.965 177.38 0.908 177.524 0.908C177.728 0.908 177.893 0.995 178.019 1.169C178.145 1.337 178.25 1.598 178.334 1.952C178.412 2.27 178.481 2.648 178.541 3.086C178.601 3.518 178.649 3.971 178.685 4.445C178.727 4.913 178.748 5.363 178.748 5.795C178.748 6.395 178.715 6.863 178.649 7.199C178.589 7.529 178.502 7.76 178.388 7.892C178.28 8.024 178.151 8.09 178.001 8.09C177.815 8.09 177.689 7.997 177.623 7.811C177.557 7.625 177.53 7.322 177.542 6.902H177.677C177.515 7.274 177.278 7.571 176.966 7.793C176.66 8.015 176.3 8.126 175.886 8.126ZM176.363 7.01C176.579 7.01 176.777 6.956 176.957 6.848C177.143 6.734 177.29 6.56 177.398 6.326C177.512 6.092 177.569 5.795 177.569 5.435C177.569 4.973 177.464 4.598 177.254 4.31C177.044 4.016 176.741 3.869 176.345 3.869C176.033 3.869 175.778 3.998 175.58 4.256C175.388 4.514 175.292 4.904 175.292 5.426C175.292 5.888 175.388 6.269 175.58 6.569C175.778 6.863 176.039 7.01 176.363 7.01ZM183.779 8.09C183.575 8.09 183.434 8.012 183.356 7.856C183.284 7.694 183.242 7.439 183.23 7.091L183.32 7.136C182.984 7.79 182.348 8.117 181.412 8.117C180.986 8.117 180.632 8.042 180.35 7.892C180.068 7.736 179.858 7.532 179.72 7.28C179.588 7.022 179.522 6.743 179.522 6.443C179.522 5.927 179.702 5.519 180.062 5.219C180.422 4.913 180.899 4.76 181.493 4.76C181.883 4.76 182.222 4.817 182.51 4.931C182.798 5.045 183.044 5.204 183.248 5.408L183.095 5.39C183.053 4.784 182.921 4.352 182.699 4.094C182.483 3.83 182.174 3.698 181.772 3.698C181.538 3.698 181.322 3.734 181.124 3.806C180.926 3.878 180.743 3.953 180.575 4.031C180.413 4.103 180.26 4.139 180.116 4.139C179.972 4.139 179.858 4.091 179.774 3.995C179.696 3.899 179.657 3.776 179.657 3.626C179.657 3.41 179.759 3.206 179.963 3.014C180.173 2.822 180.449 2.666 180.791 2.546C181.133 2.426 181.505 2.366 181.907 2.366C182.393 2.366 182.81 2.483 183.158 2.717C183.506 2.951 183.77 3.293 183.95 3.743C184.106 4.127 184.217 4.556 184.283 5.03C184.349 5.504 184.382 6.011 184.382 6.551C184.382 6.959 184.361 7.274 184.319 7.496C184.277 7.718 184.211 7.874 184.121 7.964C184.037 8.048 183.923 8.09 183.779 8.09ZM181.79 7.082C181.988 7.082 182.189 7.055 182.393 7.001C182.597 6.941 182.768 6.854 182.906 6.74C183.044 6.626 183.113 6.485 183.113 6.317C183.113 6.173 183.053 6.056 182.933 5.966C182.819 5.87 182.666 5.798 182.474 5.75C182.288 5.702 182.087 5.678 181.871 5.678C181.505 5.678 181.226 5.741 181.034 5.867C180.848 5.993 180.755 6.161 180.755 6.371C180.755 6.599 180.842 6.776 181.016 6.902C181.196 7.022 181.454 7.082 181.79 7.082ZM187.893 8.09C187.779 8.09 187.686 8.057 187.614 7.991C187.542 7.919 187.491 7.817 187.461 7.685C187.413 7.463 187.371 7.142 187.335 6.722C187.299 6.302 187.281 5.837 187.281 5.327C187.281 4.697 187.302 4.091 187.344 3.509C187.392 2.927 187.452 2.45 187.524 2.078C187.602 1.676 187.698 1.382 187.812 1.196C187.926 1.004 188.076 0.908 188.262 0.908C188.43 0.908 188.559 0.986 188.649 1.142C188.739 1.292 188.784 1.553 188.784 1.925C188.784 2.297 188.769 2.696 188.739 3.122C188.715 3.548 188.673 4.004 188.613 4.49H188.649C189.039 3.962 189.402 3.539 189.738 3.221C190.08 2.903 190.392 2.672 190.674 2.528C190.962 2.384 191.217 2.312 191.439 2.312C191.613 2.312 191.742 2.366 191.826 2.474C191.91 2.582 191.952 2.714 191.952 2.87C191.952 3.176 191.706 3.518 191.214 3.896C190.728 4.274 190.026 4.661 189.108 5.057L189.117 4.913C189.687 5.207 190.176 5.516 190.584 5.84C190.998 6.158 191.313 6.461 191.529 6.749C191.751 7.031 191.862 7.268 191.862 7.46C191.862 7.616 191.811 7.745 191.709 7.847C191.613 7.943 191.472 7.991 191.286 7.991C191.052 7.991 190.791 7.904 190.503 7.73C190.221 7.55 189.927 7.283 189.621 6.929C189.315 6.575 189.009 6.131 188.703 5.597H188.667C188.661 5.975 188.637 6.344 188.595 6.704C188.559 7.058 188.511 7.349 188.451 7.577C188.409 7.733 188.343 7.859 188.253 7.955C188.169 8.045 188.049 8.09 187.893 8.09ZM195.11 8.072C194.444 8.072 193.913 7.973 193.517 7.775C193.121 7.577 192.836 7.292 192.662 6.92C192.488 6.548 192.401 6.104 192.401 5.588C192.401 4.934 192.521 4.379 192.761 3.923C193.007 3.461 193.343 3.107 193.769 2.861C194.201 2.615 194.69 2.492 195.236 2.492C195.878 2.492 196.349 2.642 196.649 2.942C196.949 3.236 197.099 3.623 197.099 4.103C197.099 4.487 196.997 4.82 196.793 5.102C196.595 5.378 196.319 5.591 195.965 5.741C195.611 5.891 195.203 5.966 194.741 5.966C194.483 5.966 194.234 5.933 193.994 5.867C193.754 5.801 193.538 5.711 193.346 5.597L193.562 5.201C193.544 5.345 193.535 5.489 193.535 5.633C193.535 6.053 193.667 6.356 193.931 6.542C194.195 6.722 194.57 6.812 195.056 6.812C195.434 6.812 195.737 6.779 195.965 6.713C196.193 6.647 196.385 6.584 196.541 6.524C196.697 6.458 196.85 6.425 197 6.425C197.084 6.425 197.159 6.449 197.225 6.497C197.297 6.539 197.354 6.602 197.396 6.686C197.444 6.77 197.468 6.872 197.468 6.992C197.468 7.172 197.378 7.346 197.198 7.514C197.018 7.676 196.751 7.811 196.397 7.919C196.049 8.021 195.62 8.072 195.11 8.072ZM194.588 5.129C195.014 5.129 195.356 5.039 195.614 4.859C195.872 4.679 196.001 4.457 196.001 4.193C196.001 3.983 195.929 3.812 195.785 3.68C195.647 3.542 195.428 3.473 195.128 3.473C194.846 3.473 194.591 3.527 194.363 3.635C194.141 3.737 193.967 3.872 193.841 4.04C193.715 4.208 193.652 4.391 193.652 4.589C193.652 4.763 193.733 4.898 193.895 4.994C194.063 5.084 194.294 5.129 194.588 5.129ZM199.231 8.018C199.045 8.018 198.898 7.976 198.79 7.892C198.682 7.802 198.595 7.655 198.529 7.451C198.439 7.151 198.37 6.773 198.322 6.317C198.28 5.855 198.259 5.288 198.259 4.616C198.259 4.202 198.274 3.788 198.304 3.374C198.34 2.954 198.385 2.573 198.439 2.231C198.493 1.883 198.55 1.613 198.61 1.421C198.676 1.217 198.754 1.076 198.844 0.997999C198.934 0.92 199.036 0.881 199.15 0.881C199.27 0.881 199.366 0.923 199.438 1.007C199.51 1.085 199.567 1.226 199.609 1.43C199.645 1.628 199.672 1.871 199.69 2.159C199.714 2.447 199.726 2.756 199.726 3.086C199.726 3.536 199.705 4.01 199.663 4.508C199.621 5.006 199.564 5.495 199.492 5.975C199.426 6.455 199.345 6.896 199.249 7.298L198.997 7.172C199.153 6.98 199.33 6.83 199.528 6.722C199.732 6.614 199.918 6.56 200.086 6.56C200.224 6.56 200.329 6.599 200.401 6.677C200.479 6.749 200.518 6.863 200.518 7.019C200.518 7.175 200.449 7.331 200.311 7.487C200.179 7.643 200.014 7.772 199.816 7.874C199.618 7.97 199.423 8.018 199.231 8.018ZM203.522 8.027C203.042 8.027 202.622 7.922 202.262 7.712C201.908 7.496 201.632 7.19 201.434 6.794C201.242 6.398 201.146 5.927 201.146 5.381C201.146 4.811 201.245 4.313 201.443 3.887C201.641 3.461 201.92 3.128 202.28 2.888C202.646 2.648 203.069 2.528 203.549 2.528C204.065 2.528 204.512 2.645 204.89 2.879C205.268 3.107 205.562 3.428 205.772 3.842C205.982 4.256 206.087 4.739 206.087 5.291C206.087 5.855 205.982 6.341 205.772 6.749C205.562 7.157 205.265 7.472 204.881 7.694C204.497 7.916 204.044 8.027 203.522 8.027ZM203.648 6.812C204.02 6.812 204.314 6.665 204.53 6.371C204.752 6.071 204.863 5.675 204.863 5.183C204.863 4.685 204.752 4.289 204.53 3.995C204.314 3.701 204.02 3.554 203.648 3.554C203.264 3.554 202.961 3.701 202.739 3.995C202.517 4.289 202.406 4.685 202.406 5.183C202.406 5.675 202.517 6.071 202.739 6.371C202.961 6.665 203.264 6.812 203.648 6.812ZM210.874 3.878C210.934 3.632 211.039 3.41 211.189 3.212C211.345 3.014 211.531 2.858 211.747 2.744C211.969 2.624 212.212 2.564 212.476 2.564C212.788 2.564 213.064 2.639 213.304 2.789C213.544 2.939 213.733 3.185 213.871 3.527C214.015 3.869 214.087 4.325 214.087 4.895C214.087 5.189 214.075 5.486 214.051 5.786C214.027 6.086 213.997 6.365 213.961 6.623C213.925 6.881 213.886 7.097 213.844 7.271C213.784 7.511 213.691 7.694 213.565 7.82C213.445 7.946 213.292 8.009 213.106 8.009C212.95 8.009 212.827 7.94 212.737 7.802C212.647 7.664 212.602 7.466 212.602 7.208C212.602 7.088 212.617 6.935 212.647 6.749C212.677 6.557 212.71 6.35 212.746 6.128C212.782 5.9 212.815 5.669 212.845 5.435C212.875 5.201 212.89 4.979 212.89 4.769C212.89 4.457 212.827 4.217 212.701 4.049C212.575 3.875 212.398 3.788 212.17 3.788C211.918 3.788 211.708 3.92 211.54 4.184C211.378 4.442 211.282 4.82 211.252 5.318C211.228 5.762 211.207 6.158 211.189 6.506C211.171 6.848 211.126 7.13 211.054 7.352C211.006 7.508 210.937 7.625 210.847 7.703C210.763 7.781 210.649 7.82 210.505 7.82C210.343 7.82 210.214 7.76 210.118 7.64C210.028 7.52 209.977 7.331 209.965 7.073C209.953 6.857 209.95 6.602 209.956 6.308C209.962 6.014 209.965 5.723 209.965 5.435C209.971 5.141 209.968 4.898 209.956 4.706C209.932 4.322 209.863 4.04 209.749 3.86C209.641 3.68 209.476 3.59 209.254 3.59C208.996 3.59 208.789 3.71 208.633 3.95C208.483 4.19 208.39 4.523 208.354 4.949C208.342 5.123 208.336 5.339 208.336 5.597C208.342 5.849 208.348 6.101 208.354 6.353C208.36 6.605 208.357 6.815 208.345 6.983C208.339 7.343 208.282 7.601 208.174 7.757C208.072 7.913 207.928 7.991 207.742 7.991C207.52 7.991 207.358 7.919 207.256 7.775C207.16 7.631 207.097 7.4 207.067 7.082C207.043 6.8 207.025 6.521 207.013 6.245C207.001 5.963 206.995 5.684 206.995 5.408C206.995 5.126 207.001 4.82 207.013 4.49C207.031 4.16 207.055 3.848 207.085 3.554C207.121 3.254 207.184 3.002 207.274 2.798C207.364 2.594 207.514 2.492 207.724 2.492C207.898 2.492 208.021 2.579 208.093 2.753C208.165 2.921 208.201 3.182 208.201 3.536C208.201 3.656 208.192 3.767 208.174 3.869L208.147 3.689C208.267 3.299 208.459 2.996 208.723 2.78C208.987 2.558 209.281 2.447 209.605 2.447C210.031 2.447 210.364 2.585 210.604 2.861C210.844 3.131 210.976 3.506 211 3.986L210.874 3.878ZM215.799 2.42C215.961 2.42 216.096 2.516 216.204 2.708C216.312 2.894 216.387 3.191 216.429 3.599L216.24 3.77C216.348 3.35 216.549 3.029 216.843 2.807C217.137 2.585 217.485 2.474 217.887 2.474C218.259 2.474 218.589 2.57 218.877 2.762C219.165 2.954 219.39 3.245 219.552 3.635C219.72 4.019 219.804 4.502 219.804 5.084C219.804 6.026 219.633 6.722 219.291 7.172C218.955 7.616 218.496 7.838 217.914 7.838C217.494 7.838 217.164 7.748 216.924 7.568C216.684 7.388 216.516 7.169 216.42 6.911L216.528 6.857C216.576 7.217 216.615 7.574 216.645 7.928C216.681 8.276 216.699 8.582 216.699 8.846C216.699 9.116 216.651 9.344 216.555 9.53C216.459 9.716 216.306 9.809 216.096 9.809C215.892 9.809 215.739 9.731 215.637 9.575C215.535 9.419 215.46 9.212 215.412 8.954C215.376 8.69 215.34 8.351 215.304 7.937C215.268 7.523 215.238 7.076 215.214 6.596C215.196 6.116 215.187 5.648 215.187 5.192C215.187 4.724 215.202 4.286 215.232 3.878C215.268 3.464 215.31 3.128 215.358 2.87C215.4 2.72 215.454 2.609 215.52 2.537C215.592 2.459 215.685 2.42 215.799 2.42ZM217.518 3.509C217.194 3.509 216.933 3.671 216.735 3.995C216.543 4.313 216.447 4.721 216.447 5.219C216.447 5.729 216.543 6.11 216.735 6.362C216.933 6.614 217.188 6.74 217.5 6.74C217.86 6.74 218.118 6.599 218.274 6.317C218.436 6.029 218.517 5.657 218.517 5.201C218.517 4.619 218.418 4.193 218.22 3.923C218.022 3.647 217.788 3.509 217.518 3.509ZM222.902 8.027C222.422 8.027 222.002 7.922 221.642 7.712C221.288 7.496 221.012 7.19 220.814 6.794C220.622 6.398 220.526 5.927 220.526 5.381C220.526 4.811 220.625 4.313 220.823 3.887C221.021 3.461 221.3 3.128 221.66 2.888C222.026 2.648 222.449 2.528 222.929 2.528C223.445 2.528 223.892 2.645 224.27 2.879C224.648 3.107 224.942 3.428 225.152 3.842C225.362 4.256 225.467 4.739 225.467 5.291C225.467 5.855 225.362 6.341 225.152 6.749C224.942 7.157 224.645 7.472 224.261 7.694C223.877 7.916 223.424 8.027 222.902 8.027ZM223.028 6.812C223.4 6.812 223.694 6.665 223.91 6.371C224.132 6.071 224.243 5.675 224.243 5.183C224.243 4.685 224.132 4.289 223.91 3.995C223.694 3.701 223.4 3.554 223.028 3.554C222.644 3.554 222.341 3.701 222.119 3.995C221.897 4.289 221.786 4.685 221.786 5.183C221.786 5.675 221.897 6.071 222.119 6.371C222.341 6.665 222.644 6.812 223.028 6.812ZM226.987 8.09C226.873 8.09 226.78 8.057 226.708 7.991C226.636 7.919 226.585 7.817 226.555 7.685C226.507 7.463 226.465 7.142 226.429 6.722C226.393 6.302 226.375 5.837 226.375 5.327C226.375 4.697 226.396 4.091 226.438 3.509C226.486 2.927 226.546 2.45 226.618 2.078C226.696 1.676 226.792 1.382 226.906 1.196C227.02 1.004 227.17 0.908 227.356 0.908C227.524 0.908 227.653 0.986 227.743 1.142C227.833 1.292 227.878 1.553 227.878 1.925C227.878 2.297 227.863 2.696 227.833 3.122C227.809 3.548 227.767 4.004 227.707 4.49H227.743C228.133 3.962 228.496 3.539 228.832 3.221C229.174 2.903 229.486 2.672 229.768 2.528C230.056 2.384 230.311 2.312 230.533 2.312C230.707 2.312 230.836 2.366 230.92 2.474C231.004 2.582 231.046 2.714 231.046 2.87C231.046 3.176 230.8 3.518 230.308 3.896C229.822 4.274 229.12 4.661 228.202 5.057L228.211 4.913C228.781 5.207 229.27 5.516 229.678 5.84C230.092 6.158 230.407 6.461 230.623 6.749C230.845 7.031 230.956 7.268 230.956 7.46C230.956 7.616 230.905 7.745 230.803 7.847C230.707 7.943 230.566 7.991 230.38 7.991C230.146 7.991 229.885 7.904 229.597 7.73C229.315 7.55 229.021 7.283 228.715 6.929C228.409 6.575 228.103 6.131 227.797 5.597H227.761C227.755 5.975 227.731 6.344 227.689 6.704C227.653 7.058 227.605 7.349 227.545 7.577C227.503 7.733 227.437 7.859 227.347 7.955C227.263 8.045 227.143 8.09 226.987 8.09ZM235.445 1.727C235.829 1.727 236.168 1.784 236.462 1.898C236.756 2.012 236.987 2.183 237.155 2.411C237.329 2.639 237.416 2.927 237.416 3.275C237.416 3.671 237.272 4.025 236.984 4.337C236.702 4.643 236.261 4.865 235.661 5.003L235.616 4.895C236.24 4.949 236.702 5.111 237.002 5.381C237.302 5.651 237.452 6.002 237.452 6.434C237.452 6.746 237.365 7.028 237.191 7.28C237.023 7.532 236.768 7.733 236.426 7.883C236.09 8.027 235.664 8.099 235.148 8.099C234.686 8.099 234.32 8.063 234.05 7.991C233.786 7.919 233.6 7.823 233.492 7.703C233.384 7.577 233.33 7.439 233.33 7.289C233.33 7.139 233.372 7.016 233.456 6.92C233.546 6.818 233.675 6.767 233.843 6.767C234.035 6.767 234.233 6.794 234.437 6.848C234.641 6.902 234.86 6.929 235.094 6.929C235.394 6.929 235.625 6.875 235.787 6.767C235.949 6.653 236.03 6.512 236.03 6.344C236.03 6.224 236 6.122 235.94 6.038C235.88 5.948 235.769 5.87 235.607 5.804C235.445 5.732 235.208 5.663 234.896 5.597C234.62 5.543 234.41 5.48 234.266 5.408C234.128 5.33 234.059 5.213 234.059 5.057C234.059 4.883 234.137 4.745 234.293 4.643C234.449 4.541 234.668 4.442 234.95 4.346C235.34 4.208 235.619 4.076 235.787 3.95C235.961 3.824 236.048 3.671 236.048 3.491C236.048 3.311 235.973 3.176 235.823 3.086C235.679 2.996 235.469 2.951 235.193 2.951C234.971 2.951 234.755 2.978 234.545 3.032C234.335 3.086 234.11 3.113 233.87 3.113C233.708 3.113 233.585 3.077 233.501 3.005C233.417 2.933 233.375 2.831 233.375 2.699C233.375 2.525 233.462 2.366 233.636 2.222C233.81 2.072 234.053 1.952 234.365 1.862C234.677 1.772 235.037 1.727 235.445 1.727Z" fill="black"/>
</svg>
