<svg version="1.1" xmlns="http://www.w3.org/2000/svg" xmlns:xlink="http://www.w3.org/1999/xlink" width="342.89626" height="12.01339" viewBox="0,0,342.89626,12.01339"><g transform="translate(-68.55187,-173.99331)"><g data-paper-data="{&quot;isPaintingLayer&quot;:true}" fill="#0b0b0b" fill-rule="nonzero" stroke="none" stroke-width="1" stroke-linecap="butt" stroke-linejoin="miter" stroke-miterlimit="10" stroke-dasharray="" stroke-dashoffset="0" style="mix-blend-mode: normal"><path d="M72.62891,183.70806c-0.91138,0 -1.66953,-0.16937 -2.27444,-0.50812c-0.60491,-0.34682 -1.05656,-0.83073 -1.35498,-1.45176c-0.29842,-0.62103 -0.44763,-1.34691 -0.44763,-2.17765c0,-0.91945 0.16534,-1.72195 0.49602,-2.40751c0.33874,-0.69362 0.8267,-1.22997 1.46386,-1.60904c0.63717,-0.37907 1.40337,-0.56861 2.29863,-0.56861c0.8388,0 1.50823,0.14921 2.00827,0.44763c0.50005,0.29035 0.75008,0.66136 0.75008,1.11302c0,0.26616 -0.08469,0.47989 -0.25406,0.6412c-0.16937,0.15325 -0.41536,0.22987 -0.73798,0.22987c-0.20969,0 -0.41536,-0.04436 -0.617,-0.13308c-0.20164,-0.08872 -0.4194,-0.1734 -0.65329,-0.25406c-0.22583,-0.08872 -0.49602,-0.13308 -0.81057,-0.13308c-0.40326,0 -0.7783,0.07662 -1.12512,0.22987c-0.33874,0.15325 -0.61297,0.41134 -0.82267,0.77428c-0.20164,0.35487 -0.30245,0.8388 -0.30245,1.45176c0,0.92752 0.20164,1.58484 0.60491,1.97198c0.41134,0.38714 0.95172,0.58071 1.62114,0.58071c0.23389,0 0.47989,-0.02017 0.73798,-0.06049c0.25809,-0.04839 0.50005,-0.09275 0.72588,-0.13308c0.22583,-0.04839 0.4073,-0.07259 0.54441,-0.07259c0.27422,0 0.49199,0.06856 0.65329,0.20567c0.1613,0.12905 0.24196,0.32262 0.24196,0.58071c0,0.37101 -0.23389,0.67749 -0.70168,0.91945c-0.46779,0.24196 -1.14932,0.36294 -2.04457,0.36294zM79.49351,183.61127c-0.64523,0 -1.2098,-0.14115 -1.69373,-0.42343c-0.47586,-0.29035 -0.84686,-0.70168 -1.11302,-1.234c-0.25809,-0.53231 -0.38714,-1.16544 -0.38714,-1.8994c0,-0.7662 0.13308,-1.43564 0.39924,-2.00827c0.26616,-0.57263 0.6412,-1.02027 1.12512,-1.34289c0.49199,-0.32262 1.0606,-0.48392 1.70583,-0.48392c0.69366,0 1.29445,0.15727 1.80256,0.47182c0.50812,0.30648 0.90336,0.73798 1.18561,1.29449c0.28237,0.55651 0.42343,1.20577 0.42343,1.94779c0,0.75815 -0.14106,1.41144 -0.42343,1.95988c-0.28225,0.54844 -0.68148,0.97187 -1.19771,1.27029c-0.5161,0.29842 -1.12512,0.44763 -1.82676,0.44763zM79.66289,181.97804c0.50009,0 0.89521,-0.19759 1.18556,-0.59281c0.29846,-0.40326 0.44763,-0.93558 0.44763,-1.59694c0,-0.66942 -0.14917,-1.20174 -0.44763,-1.59694c-0.29035,-0.39521 -0.68548,-0.59281 -1.18556,-0.59281c-0.51619,0 -0.92348,0.19759 -1.2219,0.59281c-0.29842,0.39521 -0.44763,0.92752 -0.44763,1.59694c0,0.66136 0.14921,1.19368 0.44763,1.59694c0.29842,0.39521 0.70572,0.59281 1.2219,0.59281zM85.39623,176.04999c0.25805,0 0.43154,0.10485 0.52021,0.31455c0.09678,0.20969 0.14517,0.52021 0.14517,0.93155c0,0.09678 -0.00811,0.20164 -0.0242,0.31455c-0.00811,0.10485 -0.0242,0.20164 -0.04839,0.29035l-0.0242,-0.24196c0.19357,-0.52424 0.49203,-0.93155 0.89525,-1.2219c0.40323,-0.29842 0.83077,-0.44763 1.28239,-0.44763c0.50001,0 0.91546,0.14115 1.2461,0.42343c0.33874,0.28229 0.58881,0.67749 0.75008,1.18561c0.16937,0.50812 0.25406,1.10899 0.25406,1.80261c0,0.42746 -0.02021,0.85089 -0.06049,1.27029c-0.0323,0.41134 -0.08069,0.7904 -0.14517,1.13722c-0.0565,0.33874 -0.12098,0.617 -0.19357,0.83477c-0.09678,0.27422 -0.22176,0.47989 -0.37504,0.617c-0.15328,0.12905 -0.33475,0.19357 -0.54441,0.19357c-0.20966,0 -0.37105,-0.07662 -0.48392,-0.22987c-0.11287,-0.15325 -0.16937,-0.35892 -0.16937,-0.617c0,-0.27422 0.02021,-0.60491 0.06049,-0.99204c0.04029,-0.39521 0.07658,-0.79444 0.10888,-1.19771c0.04029,-0.41134 0.06049,-0.78234 0.06049,-1.11302c0,-1.12914 -0.37105,-1.69373 -1.11302,-1.69373c-0.39525,0 -0.72588,0.17744 -0.99204,0.53231c-0.26616,0.34682 -0.44364,0.84283 -0.53231,1.48806c-0.0242,0.21777 -0.0363,0.48795 -0.0363,0.81057c0,0.32262 0,0.64523 0,0.96785c0.00811,0.31455 0,0.58071 -0.0242,0.79847c-0.0323,0.48392 -0.12497,0.83073 -0.27826,1.04043c-0.14517,0.20969 -0.34685,0.31455 -0.60491,0.31455c-0.29846,0 -0.52421,-0.13711 -0.67749,-0.41134c-0.15328,-0.28229 -0.22987,-0.75411 -0.22987,-1.41547c0,-0.33874 0.00811,-0.71781 0.0242,-1.13722c0.01609,-0.4194 0.0363,-0.8388 0.06049,-1.25819c0.0323,-0.42746 0.0686,-0.8146 0.10888,-1.16142c0.08069,-0.65329 0.19756,-1.16948 0.35084,-1.54855c0.15328,-0.38714 0.38315,-0.58071 0.68959,-0.58071zM93.90987,176.29195h-0.24196c-0.0242,-0.35487 -0.01609,-0.68959 0.0242,-1.00414c0.04029,-0.32262 0.12497,-0.58071 0.25406,-0.77428c0.13707,-0.20164 0.33064,-0.30245 0.58071,-0.30245c0.22587,0 0.39113,0.07259 0.49602,0.21777c0.10489,0.14517 0.15727,0.34681 0.15727,0.60491c0,0.50812 -0.09678,0.94365 -0.29035,1.30659l-0.21777,-0.0242c0.43553,-0.15325 0.92756,-0.22987 1.47596,-0.22987c0.34685,0 0.621,0.06856 0.82267,0.20567c0.20966,0.12905 0.31455,0.35084 0.31455,0.66539c0,0.29842 -0.12098,0.52424 -0.36294,0.67749c-0.24196,0.15325 -0.54441,0.22987 -0.90735,0.22987c-0.21777,0 -0.45162,-0.00807 -0.70168,-0.0242c-0.24196,-0.0242 -0.47993,-0.06049 -0.71378,-0.10888l0.20567,-0.25406c0.07259,0.30648 0.14118,0.65733 0.20567,1.05253c0.07259,0.38714 0.13707,0.7904 0.19357,1.2098c0.0565,0.4194 0.10078,0.8267 0.13308,1.2219c0.0323,0.39521 0.04839,0.75008 0.04839,1.06463c0,0.51619 -0.08069,0.92348 -0.24196,1.2219c-0.16126,0.29842 -0.39924,0.44763 -0.71378,0.44763c-0.25007,0 -0.44763,-0.07662 -0.59281,-0.22987c-0.13707,-0.15325 -0.23797,-0.34682 -0.30245,-0.58071c-0.0565,-0.24196 -0.09279,-0.49199 -0.10888,-0.75008c-0.00811,-0.25809 -0.0121,-0.49199 -0.0121,-0.70168c0,-0.35487 0.01609,-0.75411 0.04839,-1.19771c0.0323,-0.45166 0.07658,-0.91543 0.13308,-1.39128c0.06449,-0.47586 0.13707,-0.93558 0.21777,-1.37918l0.24196,0.20567c-0.41134,0.20969 -0.91945,0.31455 -1.52436,0.31455c-0.37105,0 -0.65729,-0.06856 -0.85896,-0.20567c-0.20168,-0.13711 -0.30245,-0.35084 -0.30245,-0.6412c0,-0.31455 0.11287,-0.55651 0.33874,-0.72588c0.22587,-0.17744 0.52832,-0.26616 0.90735,-0.26616c0.25007,0 0.48392,0.01612 0.70168,0.04839c0.22587,0.0242 0.42343,0.05646 0.59281,0.09678zM101.09042,183.61127c-0.64519,0 -1.2098,-0.14115 -1.69373,-0.42343c-0.47582,-0.29035 -0.84686,-0.70168 -1.11302,-1.234c-0.25805,-0.53231 -0.38714,-1.16544 -0.38714,-1.8994c0,-0.7662 0.13308,-1.43564 0.39924,-2.00827c0.26616,-0.57263 0.6412,-1.02027 1.12512,-1.34289c0.49203,-0.32262 1.06063,-0.48392 1.70583,-0.48392c0.69358,0 1.29449,0.15727 1.80261,0.47182c0.50812,0.30648 0.90336,0.73798 1.18561,1.29449c0.28225,0.55651 0.42343,1.20577 0.42343,1.94779c0,0.75815 -0.14118,1.41144 -0.42343,1.95988c-0.28225,0.54844 -0.68148,0.97187 -1.19771,1.27029c-0.51622,0.29842 -1.12512,0.44763 -1.8268,0.44763zM101.2598,181.97804c0.50001,0 0.89525,-0.19759 1.18561,-0.59281c0.29846,-0.40326 0.44763,-0.93558 0.44763,-1.59694c0,-0.66942 -0.14917,-1.20174 -0.44763,-1.59694c-0.29035,-0.39521 -0.68559,-0.59281 -1.18561,-0.59281c-0.51622,0 -0.92344,0.19759 -1.2219,0.59281c-0.29846,0.39521 -0.44763,0.92752 -0.44763,1.59694c0,0.66136 0.14917,1.19368 0.44763,1.59694c0.29846,0.39521 0.70568,0.59281 1.2219,0.59281zM107.00528,173.99332c0.25805,0 0.43553,0.10082 0.53231,0.30245c0.10477,0.20164 0.15727,0.50409 0.15727,0.90735c0,0.34682 -0.02021,0.78234 -0.06049,1.30659c-0.04041,0.52424 -0.09279,1.02833 -0.15727,1.51226h-0.07259c0.26616,-0.50005 0.6089,-0.90333 1.02833,-1.2098c0.41932,-0.30648 0.86295,-0.45973 1.33079,-0.45973c0.41134,0 0.77827,0.10082 1.10092,0.30245c0.32253,0.19357 0.5847,0.50005 0.78638,0.91945c0.18546,0.37907 0.32253,0.83073 0.41134,1.35498c0.08868,0.51619 0.13308,1.00817 0.13308,1.47596c0,0.75008 -0.05251,1.34691 -0.15727,1.79051c-0.09678,0.4436 -0.23398,0.7662 -0.41134,0.96785c-0.17748,0.19357 -0.38714,0.29035 -0.6291,0.29035c-0.50812,0 -0.76218,-0.41536 -0.76218,-1.2461c0,-0.40326 0.02008,-0.81864 0.06049,-1.2461c0.04839,-0.42746 0.07259,-0.81864 0.07259,-1.17351c0,-0.60491 -0.09678,-1.05656 -0.29035,-1.35498c-0.18559,-0.30648 -0.45573,-0.45973 -0.81057,-0.45973c-0.44364,0 -0.80258,0.19759 -1.07672,0.59281c-0.27426,0.39521 -0.41134,0.93962 -0.41134,1.63323c0,0.36294 0.03218,0.76218 0.09678,1.19771c0.06449,0.42746 0.09678,0.81864 0.09678,1.17351c0,0.39521 -0.0767,0.68152 -0.22987,0.85896c-0.14517,0.16937 -0.33475,0.25406 -0.56861,0.25406c-0.17748,0 -0.33475,-0.0363 -0.47182,-0.10888c-0.12908,-0.06452 -0.24196,-0.19759 -0.33874,-0.39924c-0.0888,-0.20969 -0.16538,-0.52021 -0.22987,-0.93155c-0.04839,-0.31455 -0.09678,-0.68152 -0.14517,-1.10092c-0.04839,-0.4194 -0.0888,-0.85896 -0.12098,-1.31869c-0.0323,-0.45973 -0.06049,-0.90735 -0.08469,-1.34289c-0.01621,-0.4436 -0.0242,-0.84686 -0.0242,-1.2098c0,-1.14529 0.10888,-1.97601 0.32664,-2.4922c0.21777,-0.52424 0.52421,-0.78638 0.91945,-0.78638zM118.45597,183.63547c-0.50001,0 -0.91546,-0.09275 -1.2461,-0.27826c-0.32265,-0.19357 -0.56462,-0.48795 -0.72588,-0.88316c-0.11287,-0.27422 -0.19756,-0.60491 -0.25406,-0.99204c-0.04839,-0.39521 -0.07259,-0.84686 -0.07259,-1.35498c0,-0.87106 0.02819,-1.58888 0.08469,-2.15345c0.0565,-0.57263 0.13707,-1.03237 0.24196,-1.37918c0.11287,-0.35487 0.23797,-0.6412 0.37504,-0.85896c0.21777,-0.33068 0.56462,-0.59683 1.04043,-0.79847c0.47582,-0.20164 1.14932,-0.30245 2.02037,-0.30245c0.58071,0 1.04442,0.08872 1.39128,0.26616c0.35483,0.16937 0.6089,0.39521 0.76218,0.67749c0.16126,0.28229 0.24196,0.59683 0.24196,0.94365c0,0.54844 -0.16126,1.00011 -0.48392,1.35498c-0.32265,0.35487 -0.74609,0.63717 -1.27029,0.84686v0.04839c0.5726,0.06452 1.01624,0.25003 1.33079,0.55651c0.32265,0.29842 0.48392,0.72588 0.48392,1.28239c0,0.4436 -0.11287,0.85089 -0.33874,1.2219c-0.21777,0.36294 -0.51622,0.68152 -0.89525,0.95575c-0.37105,0.26616 -0.79037,0.47586 -1.25819,0.6291c-0.46783,0.14517 -0.94365,0.21777 -1.42757,0.21777zM118.83101,182.18371c0.38714,0 0.72987,-0.06452 1.02833,-0.19357c0.30644,-0.12905 0.54441,-0.30245 0.71378,-0.52021c0.17748,-0.22583 0.26616,-0.47989 0.26616,-0.76218c0,-0.30648 -0.14917,-0.56054 -0.44763,-0.76218c-0.29035,-0.20969 -0.74609,-0.31455 -1.36708,-0.31455c-0.41944,0 -0.75407,0.10082 -1.00414,0.30245c-0.24196,0.19357 -0.36294,0.52829 -0.36294,1.00414c0,0.45166 0.09678,0.77428 0.29035,0.96785c0.19357,0.1855 0.48791,0.27826 0.88316,0.27826zM118.87939,178.34862c0.5484,0 1.00414,-0.12098 1.36708,-0.36294c0.37105,-0.25003 0.55651,-0.57263 0.55651,-0.96785c0,-0.29035 -0.11699,-0.52424 -0.35084,-0.70168c-0.23386,-0.17744 -0.57672,-0.26616 -1.02833,-0.26616c-0.49203,0 -0.89525,0.09678 -1.2098,0.29035c-0.31455,0.19357 -0.47182,0.52424 -0.47182,0.99204c0,0.37907 0.10078,0.64523 0.30245,0.79847c0.20966,0.14517 0.48791,0.21777 0.83477,0.21777zM129.00402,183.69596c-0.27426,0 -0.46372,-0.10485 -0.56861,-0.31455c-0.09678,-0.21777 -0.15328,-0.56054 -0.16937,-1.02833l0.12098,0.06049c-0.45162,0.87913 -1.30659,1.31869 -2.56478,1.31869c-0.5726,0 -1.04854,-0.10082 -1.42757,-0.30245c-0.37903,-0.20969 -0.6614,-0.48392 -0.84686,-0.82267c-0.17748,-0.34682 -0.26616,-0.72186 -0.26616,-1.12512c0,-0.69362 0.24196,-1.24207 0.72588,-1.64533c0.48392,-0.41134 1.12512,-0.617 1.92359,-0.617c0.52421,0 0.97994,0.07662 1.36708,0.22987c0.38714,0.15325 0.71777,0.36697 0.99204,0.6412l-0.20567,-0.0242c-0.0565,-0.8146 -0.23386,-1.39531 -0.53231,-1.74212c-0.29035,-0.35487 -0.70568,-0.53231 -1.2461,-0.53231c-0.31455,0 -0.60491,0.04839 -0.87106,0.14517c-0.26616,0.09678 -0.51211,0.19759 -0.73798,0.30245c-0.21777,0.09678 -0.42343,0.14517 -0.617,0.14517c-0.19357,0 -0.34685,-0.06452 -0.45973,-0.19357c-0.10489,-0.12905 -0.15727,-0.29438 -0.15727,-0.49602c0,-0.29035 0.13707,-0.56458 0.41134,-0.82267c0.28225,-0.25809 0.65329,-0.46779 1.11302,-0.6291c0.45973,-0.1613 0.95974,-0.24196 1.50016,-0.24196c0.65329,0 1.2138,0.15727 1.68163,0.47182c0.46783,0.31455 0.82267,0.77428 1.06463,1.37918c0.20966,0.51619 0.35895,1.09285 0.44763,1.73002c0.08868,0.63717 0.13308,1.31869 0.13308,2.04457c0,0.54844 -0.02819,0.97187 -0.08469,1.27029c-0.0565,0.29842 -0.14517,0.50812 -0.26616,0.6291c-0.11287,0.11291 -0.26616,0.16937 -0.45973,0.16937zM126.33035,182.34098c0.26616,0 0.5363,-0.0363 0.81057,-0.10888c0.27426,-0.08066 0.50412,-0.19759 0.68959,-0.35084c0.18546,-0.15325 0.27826,-0.34277 0.27826,-0.56861c0,-0.19357 -0.08069,-0.35084 -0.24196,-0.47182c-0.15328,-0.12905 -0.35895,-0.22583 -0.617,-0.29035c-0.25007,-0.06452 -0.52021,-0.09678 -0.81057,-0.09678c-0.49203,0 -0.86706,0.08469 -1.12512,0.25406c-0.25007,0.16937 -0.37504,0.39521 -0.37504,0.67749c0,0.30648 0.11699,0.54441 0.35084,0.71378c0.24196,0.1613 0.58881,0.24196 1.04043,0.24196zM132.5243,176.04999c0.25805,0 0.43142,0.10485 0.52021,0.31455c0.09678,0.20969 0.14517,0.52021 0.14517,0.93155c0,0.09678 -0.00811,0.20164 -0.0242,0.31455c-0.00811,0.10485 -0.0242,0.20164 -0.04839,0.29035l-0.0242,-0.24196c0.19357,-0.52424 0.49191,-0.93155 0.89525,-1.2219c0.40323,-0.29842 0.83065,-0.44763 1.28239,-0.44763c0.50001,0 0.91534,0.14115 1.2461,0.42343c0.33874,0.28229 0.58869,0.67749 0.75008,1.18561c0.16937,0.50812 0.25406,1.10899 0.25406,1.80261c0,0.42746 -0.02021,0.85089 -0.06049,1.27029c-0.0323,0.41134 -0.08069,0.7904 -0.14517,1.13722c-0.0565,0.33874 -0.12098,0.617 -0.19357,0.83477c-0.09678,0.27422 -0.22188,0.47989 -0.37504,0.617c-0.15328,0.12905 -0.33475,0.19357 -0.54441,0.19357c-0.20978,0 -0.37105,-0.07662 -0.48392,-0.22987c-0.11299,-0.15325 -0.16937,-0.35892 -0.16937,-0.617c0,-0.27422 0.02008,-0.60491 0.06049,-0.99204c0.04029,-0.39521 0.07658,-0.79444 0.10888,-1.19771c0.04029,-0.41134 0.06049,-0.78234 0.06049,-1.11302c0,-1.12914 -0.37105,-1.69373 -1.11302,-1.69373c-0.39525,0 -0.72588,0.17744 -0.99204,0.53231c-0.26616,0.34682 -0.44364,0.84283 -0.53231,1.48806c-0.0242,0.21777 -0.0363,0.48795 -0.0363,0.81057c0,0.32262 0,0.64523 0,0.96785c0.00798,0.31455 0,0.58071 -0.0242,0.79847c-0.0323,0.48392 -0.12509,0.83073 -0.27826,1.04043c-0.14517,0.20969 -0.34685,0.31455 -0.60491,0.31455c-0.29846,0 -0.52433,-0.13711 -0.67749,-0.41134c-0.15328,-0.28229 -0.22987,-0.75411 -0.22987,-1.41547c0,-0.33874 0.00798,-0.71781 0.0242,-1.13722c0.01609,-0.4194 0.0363,-0.8388 0.06049,-1.25819c0.03218,-0.42746 0.06848,-0.8146 0.10888,-1.16142c0.08058,-0.65329 0.19756,-1.16948 0.35084,-1.54855c0.15316,-0.38714 0.38302,-0.58071 0.68959,-0.58071zM141.3041,183.38141c-0.75819,0 -1.37519,-0.29035 -1.851,-0.87106c-0.47593,-0.58878 -0.71378,-1.47999 -0.71378,-2.67367c0,-1.27432 0.22987,-2.20587 0.68959,-2.79465c0.45973,-0.58878 1.06463,-0.88316 1.81471,-0.88316c0.44352,0 0.83477,0.11291 1.17351,0.33874c0.33874,0.22583 0.6291,0.54441 0.87106,0.95575l-0.09678,0.16937c-0.0242,-0.11291 -0.0444,-0.23389 -0.06049,-0.36294c-0.01621,-0.12905 -0.0242,-0.22583 -0.0242,-0.29035c0,-0.33068 0.05239,-0.58473 0.15727,-0.76218c0.11287,-0.1855 0.28624,-0.27826 0.52021,-0.27826c0.25805,0 0.45973,0.10485 0.60491,0.31455c0.15316,0.20969 0.27015,0.50812 0.35084,0.89525c0.10477,0.39521 0.19357,0.89928 0.26616,1.51226c0.07259,0.60491 0.10888,1.21787 0.10888,1.8389c0,0.77428 -0.02831,1.42354 -0.08469,1.94779c-0.0565,0.52424 -0.14929,0.95977 -0.27826,1.30659c-0.12908,0.34682 -0.29846,0.64926 -0.50812,0.90735c-0.34685,0.4194 -0.79448,0.73798 -1.34289,0.95575c-0.54042,0.22583 -1.16553,0.33874 -1.8752,0.33874c-0.50812,0 -0.91546,-0.04839 -1.2219,-0.14517c-0.30656,-0.08872 -0.52832,-0.21374 -0.66539,-0.37504c-0.12908,-0.15325 -0.19357,-0.32664 -0.19357,-0.52021c0,-0.20164 0.05638,-0.37101 0.16937,-0.50812c0.11287,-0.12905 0.28225,-0.19357 0.50812,-0.19357c0.20155,0 0.43553,0.03227 0.70168,0.09678c0.27414,0.06452 0.5968,0.09678 0.96785,0.09678c0.78226,0 1.33478,-0.1855 1.65743,-0.55651c0.33064,-0.36294 0.49602,-0.88719 0.49602,-1.57275c0,-0.1855 -0.0121,-0.40326 -0.0363,-0.65329l0.16937,0.06049c-0.20168,0.51619 -0.50013,0.93155 -0.89525,1.2461c-0.39525,0.30648 -0.85497,0.45973 -1.37918,0.45973zM141.76383,181.89335c0.25805,0 0.5161,-0.06856 0.77428,-0.20567c0.25805,-0.13711 0.47182,-0.36294 0.6412,-0.67749c0.16937,-0.31455 0.25406,-0.73798 0.25406,-1.27029c0,-0.63717 -0.14929,-1.15738 -0.44763,-1.56065c-0.29846,-0.40326 -0.7179,-0.60491 -1.25819,-0.60491c-0.46783,0 -0.81057,0.17744 -1.02833,0.53231c-0.21777,0.35487 -0.32664,0.89123 -0.32664,1.60904c0,0.68556 0.10888,1.2219 0.32664,1.60904c0.21777,0.37907 0.5726,0.56861 1.06463,0.56861zM152.03423,183.50239c-0.21777,0 -0.38714,-0.07259 -0.50812,-0.21777c-0.11299,-0.15325 -0.18958,-0.34682 -0.22987,-0.58071c-0.04041,-0.24196 -0.06049,-0.49602 -0.06049,-0.76218l0.06049,-0.04839c-0.08069,0.34682 -0.23797,0.64523 -0.47182,0.89525c-0.23398,0.25003 -0.50412,0.4436 -0.81057,0.58071c-0.30656,0.12905 -0.61301,0.19357 -0.91945,0.19357c-0.41134,0 -0.78638,-0.09678 -1.12512,-0.29035c-0.33874,-0.19357 -0.60091,-0.49199 -0.78638,-0.89525c-0.18559,-0.42746 -0.33076,-0.96382 -0.43553,-1.60904c-0.10489,-0.65329 -0.15727,-1.32271 -0.15727,-2.00827c0,-0.37101 0.01609,-0.71378 0.04839,-1.02833c0.03218,-0.31455 0.08469,-0.57263 0.15727,-0.77428c0.06449,-0.20969 0.16126,-0.36294 0.29035,-0.45973c0.12897,-0.10485 0.29435,-0.15727 0.49602,-0.15727c0.23386,0 0.41533,0.09275 0.54441,0.27826c0.13707,0.17744 0.22176,0.42746 0.25406,0.75008c0.03218,0.26616 0.05239,0.59683 0.06049,0.99204c0.01609,0.38714 0.02819,0.7783 0.0363,1.17351c0.01609,0.38714 0.0363,0.71378 0.06049,0.97994c0.04839,0.48392 0.17336,0.84283 0.37504,1.07672c0.20155,0.22583 0.44763,0.33874 0.73798,0.33874c0.42743,0 0.75407,-0.1613 0.97994,-0.48392c0.22575,-0.32262 0.33874,-0.77428 0.33874,-1.35498c0,-0.29035 -0.01621,-0.617 -0.04839,-0.97994c-0.0323,-0.37101 -0.0686,-0.72991 -0.10888,-1.07672c-0.0323,-0.34682 -0.04839,-0.63313 -0.04839,-0.85896c0,-0.37907 0.06449,-0.64926 0.19357,-0.81057c0.12897,-0.16937 0.30644,-0.25406 0.53231,-0.25406c0.19357,0 0.35483,0.05242 0.48392,0.15727c0.13707,0.10485 0.24596,0.25003 0.32664,0.43553c0.11287,0.24196 0.20966,0.57263 0.29035,0.99204c0.08058,0.4194 0.14517,0.89525 0.19357,1.42757c0.04839,0.53231 0.07259,1.09285 0.07259,1.68163c0,0.90333 -0.06049,1.58081 -0.18147,2.03247c-0.12098,0.4436 -0.33475,0.66539 -0.6412,0.66539zM155.56262,176.04999c0.25805,0 0.43142,0.10485 0.52021,0.31455c0.09678,0.20969 0.14517,0.52021 0.14517,0.93155c0,0.09678 -0.00811,0.20164 -0.0242,0.31455c-0.00811,0.10485 -0.0242,0.20164 -0.04839,0.29035l-0.0242,-0.24196c0.19357,-0.52424 0.49191,-0.93155 0.89525,-1.2219c0.40323,-0.29842 0.83065,-0.44763 1.28239,-0.44763c0.50001,0 0.91534,0.14115 1.2461,0.42343c0.33874,0.28229 0.58869,0.67749 0.75008,1.18561c0.16937,0.50812 0.25406,1.10899 0.25406,1.80261c0,0.42746 -0.02021,0.85089 -0.06049,1.27029c-0.0323,0.41134 -0.08069,0.7904 -0.14517,1.13722c-0.0565,0.33874 -0.12098,0.617 -0.19357,0.83477c-0.09678,0.27422 -0.22188,0.47989 -0.37504,0.617c-0.15328,0.12905 -0.33475,0.19357 -0.54441,0.19357c-0.20978,0 -0.37105,-0.07662 -0.48392,-0.22987c-0.11299,-0.15325 -0.16937,-0.35892 -0.16937,-0.617c0,-0.27422 0.02008,-0.60491 0.06049,-0.99204c0.04029,-0.39521 0.07658,-0.79444 0.10888,-1.19771c0.04029,-0.41134 0.06049,-0.78234 0.06049,-1.11302c0,-1.12914 -0.37105,-1.69373 -1.11302,-1.69373c-0.39525,0 -0.72588,0.17744 -0.99204,0.53231c-0.26616,0.34682 -0.44364,0.84283 -0.53231,1.48806c-0.0242,0.21777 -0.0363,0.48795 -0.0363,0.81057c0,0.32262 0,0.64523 0,0.96785c0.00798,0.31455 0,0.58071 -0.0242,0.79847c-0.0323,0.48392 -0.12509,0.83073 -0.27826,1.04043c-0.14517,0.20969 -0.34685,0.31455 -0.60491,0.31455c-0.29846,0 -0.52433,-0.13711 -0.67749,-0.41134c-0.15328,-0.28229 -0.22987,-0.75411 -0.22987,-1.41547c0,-0.33874 0.00798,-0.71781 0.0242,-1.13722c0.01609,-0.4194 0.0363,-0.8388 0.06049,-1.25819c0.03218,-0.42746 0.06848,-0.8146 0.10888,-1.16142c0.08058,-0.65329 0.19756,-1.16948 0.35084,-1.54855c0.15316,-0.38714 0.38302,-0.58071 0.68959,-0.58071zM166.14733,183.85324c-0.50812,0 -0.90336,-0.03227 -1.18561,-0.09678c-0.27426,-0.06452 -0.46372,-0.15325 -0.56861,-0.26616c-0.10489,-0.12098 -0.16126,-0.25406 -0.16937,-0.39924c0,-0.22583 0.13308,-0.41536 0.39924,-0.56861c0.27426,-0.15325 0.77428,-0.25003 1.50016,-0.29035l-0.19357,0.22987c-0.08868,-0.41134 -0.15328,-0.89123 -0.19357,-1.43967c-0.04029,-0.54844 -0.0565,-1.11705 -0.04839,-1.70583c0.00811,-0.58878 0.0363,-1.14932 0.08469,-1.68163c0.04839,-0.54039 0.11699,-1.00011 0.20567,-1.37918l1.05253,-0.07259c-0.17748,0.07259 -0.39924,0.13711 -0.66539,0.19357c-0.26616,0.04839 -0.54042,0.07259 -0.82267,0.07259c-0.51622,0 -0.89925,-0.05646 -1.14932,-0.16937c-0.24196,-0.11291 -0.36294,-0.27019 -0.36294,-0.47182c0,-0.35487 0.21378,-0.6291 0.6412,-0.82267c0.43553,-0.20164 1.10092,-0.30245 1.99618,-0.30245c1.06463,0 1.95988,0.17744 2.68577,0.53231c0.73399,0.34682 1.2905,0.83477 1.66953,1.46386c0.37903,0.62103 0.56861,1.34691 0.56861,2.17765c0,0.72588 -0.12908,1.39531 -0.38714,2.00827c-0.25805,0.60491 -0.6291,1.13319 -1.11302,1.58484c-0.47582,0.4436 -1.04854,0.7904 -1.71793,1.04043c-0.6614,0.24196 -1.40337,0.36294 -2.22604,0.36294zM167.86525,181.99014c0.27426,0 0.56462,-0.10888 0.87106,-0.32664c0.31455,-0.22583 0.58071,-0.55248 0.79847,-0.97994c0.21777,-0.43553 0.32664,-0.97187 0.32664,-1.60904c0,-0.46779 -0.0686,-0.87509 -0.20567,-1.2219c-0.12908,-0.35487 -0.29846,-0.64926 -0.50812,-0.88316c-0.20966,-0.23389 -0.43154,-0.4073 -0.66539,-0.52021c-0.23386,-0.12098 -0.45573,-0.18147 -0.66539,-0.18147c-0.16937,0 -0.30245,0.10485 -0.39924,0.31455c-0.08868,0.20969 -0.15328,0.52424 -0.19357,0.94365c-0.04029,0.41134 -0.06049,0.92348 -0.06049,1.53646c0,0.95172 0.04839,1.6776 0.14517,2.17765c0.09678,0.50005 0.28225,0.75008 0.55651,0.75008zM178.21138,183.69596c-0.27414,0 -0.46372,-0.10485 -0.56861,-0.31455c-0.09678,-0.21777 -0.15316,-0.56054 -0.16937,-1.02833l0.12098,0.06049c-0.45162,0.87913 -1.30659,1.31869 -2.56478,1.31869c-0.5726,0 -1.04842,-0.10082 -1.42757,-0.30245c-0.37903,-0.20969 -0.66128,-0.48392 -0.84686,-0.82267c-0.17735,-0.34682 -0.26616,-0.72186 -0.26616,-1.12512c0,-0.69362 0.24196,-1.24207 0.72588,-1.64533c0.48392,-0.41134 1.12512,-0.617 1.92359,-0.617c0.52433,0 0.97994,0.07662 1.36708,0.22987c0.38714,0.15325 0.7179,0.36697 0.99204,0.6412l-0.20567,-0.0242c-0.05638,-0.8146 -0.23386,-1.39531 -0.53231,-1.74212c-0.29035,-0.35487 -0.70568,-0.53231 -1.2461,-0.53231c-0.31455,0 -0.60491,0.04839 -0.87106,0.14517c-0.26616,0.09678 -0.51211,0.19759 -0.73798,0.30245c-0.21777,0.09678 -0.42343,0.14517 -0.617,0.14517c-0.19357,0 -0.34673,-0.06452 -0.45973,-0.19357c-0.10477,-0.12905 -0.15727,-0.29438 -0.15727,-0.49602c0,-0.29035 0.13719,-0.56458 0.41134,-0.82267c0.28237,-0.25809 0.65329,-0.46779 1.11302,-0.6291c0.45973,-0.1613 0.95986,-0.24196 1.50016,-0.24196c0.65329,0 1.21392,0.15727 1.68163,0.47182c0.46783,0.31455 0.82267,0.77428 1.06463,1.37918c0.20978,0.51619 0.35895,1.09285 0.44763,1.73002c0.0888,0.63717 0.13308,1.31869 0.13308,2.04457c0,0.54844 -0.02819,0.97187 -0.08469,1.27029c-0.05638,0.29842 -0.14517,0.50812 -0.26616,0.6291c-0.11287,0.11291 -0.26616,0.16937 -0.45973,0.16937zM175.53771,182.34098c0.26616,0 0.53643,-0.0363 0.81057,-0.10888c0.27426,-0.08066 0.50412,-0.19759 0.68959,-0.35084c0.18559,-0.15325 0.27826,-0.34277 0.27826,-0.56861c0,-0.19357 -0.08058,-0.35084 -0.24196,-0.47182c-0.15316,-0.12905 -0.35883,-0.22583 -0.617,-0.29035c-0.24995,-0.06452 -0.52021,-0.09678 -0.81057,-0.09678c-0.49191,0 -0.86695,0.08469 -1.12512,0.25406c-0.24995,0.16937 -0.37504,0.39521 -0.37504,0.67749c0,0.30648 0.11699,0.54441 0.35084,0.71378c0.24196,0.1613 0.58881,0.24196 1.04043,0.24196zM182.17604,176.29195h-0.24196c-0.0242,-0.35487 -0.01621,-0.68959 0.0242,-1.00414c0.04029,-0.32262 0.12497,-0.58071 0.25406,-0.77428c0.13707,-0.20164 0.33064,-0.30245 0.58071,-0.30245c0.22575,0 0.39113,0.07259 0.49602,0.21777c0.10477,0.14517 0.15727,0.34681 0.15727,0.60491c0,0.50812 -0.09678,0.94365 -0.29035,1.30659l-0.21777,-0.0242c0.43553,-0.15325 0.92743,-0.22987 1.47596,-0.22987c0.34673,0 0.621,0.06856 0.82267,0.20567c0.20966,0.12905 0.31455,0.35084 0.31455,0.66539c0,0.29842 -0.12098,0.52424 -0.36294,0.67749c-0.24196,0.15325 -0.54441,0.22987 -0.90735,0.22987c-0.21777,0 -0.45174,-0.00807 -0.70168,-0.0242c-0.24196,-0.0242 -0.47993,-0.06049 -0.71378,-0.10888l0.20567,-0.25406c0.07259,0.30648 0.14106,0.65733 0.20567,1.05253c0.07259,0.38714 0.13707,0.7904 0.19357,1.2098c0.05638,0.4194 0.10078,0.8267 0.13308,1.2219c0.03218,0.39521 0.04839,0.75008 0.04839,1.06463c0,0.51619 -0.08069,0.92348 -0.24196,1.2219c-0.16139,0.29842 -0.39924,0.44763 -0.71378,0.44763c-0.25007,0 -0.44763,-0.07662 -0.59281,-0.22987c-0.13719,-0.15325 -0.23797,-0.34682 -0.30245,-0.58071c-0.0565,-0.24196 -0.09279,-0.49199 -0.10888,-0.75008c-0.00811,-0.25809 -0.0121,-0.49199 -0.0121,-0.70168c0,-0.35487 0.01609,-0.75411 0.04839,-1.19771c0.03218,-0.45166 0.07658,-0.91543 0.13308,-1.39128c0.06449,-0.47586 0.13707,-0.93558 0.21777,-1.37918l0.24196,0.20567c-0.41134,0.20969 -0.91945,0.31455 -1.52436,0.31455c-0.37105,0 -0.65741,-0.06856 -0.85896,-0.20567c-0.20168,-0.13711 -0.30245,-0.35084 -0.30245,-0.6412c0,-0.31455 0.11287,-0.55651 0.33874,-0.72588c0.22575,-0.17744 0.5282,-0.26616 0.90735,-0.26616c0.24995,0 0.48392,0.01612 0.70168,0.04839c0.22575,0.0242 0.42343,0.05646 0.59281,0.09678zM191.82132,183.69596c-0.27342,0 -0.46336,-0.10485 -0.56861,-0.31455c-0.09678,-0.21777 -0.15243,-0.56054 -0.16937,-1.02833l0.12098,0.06049c-0.45126,0.87913 -1.30659,1.31869 -2.56442,1.31869c-0.5726,0 -1.04842,-0.10082 -1.42757,-0.30245c-0.37903,-0.20969 -0.66128,-0.48392 -0.84686,-0.82267c-0.17735,-0.34682 -0.26616,-0.72186 -0.26616,-1.12512c0,-0.69362 0.24196,-1.24207 0.72588,-1.64533c0.48392,-0.41134 1.12512,-0.617 1.92359,-0.617c0.52469,0 0.97958,0.07662 1.36672,0.22987c0.38714,0.15325 0.71862,0.36697 0.99204,0.6412l-0.20567,-0.0242c-0.05565,-0.8146 -0.23349,-1.39531 -0.53231,-1.74212c-0.29035,-0.35487 -0.70531,-0.53231 -1.2461,-0.53231c-0.31418,0 -0.60454,0.04839 -0.87069,0.14517c-0.26616,0.09678 -0.51211,0.19759 -0.73798,0.30245c-0.21777,0.09678 -0.42343,0.14517 -0.617,0.14517c-0.19357,0 -0.34673,-0.06452 -0.45973,-0.19357c-0.10477,-0.12905 -0.15727,-0.29438 -0.15727,-0.49602c0,-0.29035 0.13719,-0.56458 0.41134,-0.82267c0.28237,-0.25809 0.65329,-0.46779 1.11302,-0.6291c0.45973,-0.1613 0.95986,-0.24196 1.4998,-0.24196c0.65329,0 1.21464,0.15727 1.68163,0.47182c0.46819,0.31455 0.82267,0.77428 1.06463,1.37918c0.21051,0.51619 0.35931,1.09285 0.44763,1.73002c0.08953,0.63717 0.13308,1.31869 0.13308,2.04457c0,0.54844 -0.02783,0.97187 -0.08469,1.27029c-0.05565,0.29842 -0.14517,0.50812 -0.26616,0.6291c-0.11251,0.11291 -0.26616,0.16937 -0.45973,0.16937zM189.14765,182.34098c0.26616,0 0.53715,-0.0363 0.81057,-0.10888c0.27463,-0.08066 0.50449,-0.19759 0.68959,-0.35084c0.18631,-0.15325 0.27826,-0.34277 0.27826,-0.56861c0,-0.19357 -0.07985,-0.35084 -0.24196,-0.47182c-0.15243,-0.12905 -0.3581,-0.22583 -0.617,-0.29035c-0.24922,-0.06452 -0.52021,-0.09678 -0.81057,-0.09678c-0.49154,0 -0.86658,0.08469 -1.12476,0.25406c-0.24995,0.16937 -0.37504,0.39521 -0.37504,0.67749c0,0.30648 0.11699,0.54441 0.35084,0.71378c0.24196,0.1613 0.58881,0.24196 1.04007,0.24196zM194.10786,178.11876c0,-0.77428 0.07259,-1.33079 0.21777,-1.66953c0.14517,-0.34682 0.35084,-0.52021 0.617,-0.52021c0.2093,0 0.37504,0.08872 0.49602,0.26616c0.12098,0.16937 0.2093,0.38311 0.26616,0.6412c0.05686,0.25003 0.08469,0.50409 0.08469,0.76218l-0.06049,-0.0242c0.13671,-0.43553 0.34721,-0.81057 0.6291,-1.12512c0.29035,-0.31455 0.63757,-0.47182 1.04043,-0.47182c0.47545,0 0.8263,0.19759 1.05253,0.59281c0.22624,0.38714 0.33874,0.87106 0.33874,1.45176c0,0.77428 -0.08832,1.31466 -0.26616,1.62114c-0.17784,0.30648 -0.41497,0.45973 -0.71378,0.45973c-0.21777,0 -0.37867,-0.08872 -0.48392,-0.26616c-0.09678,-0.17744 -0.12945,-0.49199 -0.09678,-0.94365c0.03267,-0.47586 0.00363,-0.80654 -0.08469,-0.99204c-0.08832,-0.1855 -0.22987,-0.27826 -0.42343,-0.27826c-0.23349,0 -0.42706,0.14921 -0.58071,0.44763c-0.14517,0.29035 -0.21777,0.64926 -0.21777,1.07672c0,0.16937 0.02057,0.38311 0.06049,0.6412c0.03993,0.25809 0.08469,0.54039 0.13308,0.84686c0.04839,0.29842 0.09315,0.59683 0.13308,0.89525c0.03993,0.29842 0.06049,0.57263 0.06049,0.82267c0,0.4436 -0.06896,0.76218 -0.20567,0.95575c-0.13671,0.19357 -0.33027,0.29035 -0.58071,0.29035c-0.28188,0 -0.49965,-0.08872 -0.65329,-0.26616c-0.15364,-0.1855 -0.26979,-0.48392 -0.35084,-0.89525c-0.06412,-0.37101 -0.12945,-0.81057 -0.19357,-1.31869c-0.06412,-0.50812 -0.11735,-1.02833 -0.15727,-1.56065c-0.03993,-0.53231 -0.06049,-1.01221 -0.06049,-1.43967zM205.30824,174.68291c0.59644,0 1.09729,0.03227 1.50016,0.09678c0.41134,0.05645 0.74161,0.12905 0.99204,0.21777c0.26616,0.10485 0.44763,0.22583 0.54441,0.36294c0.10525,0.13711 0.15727,0.29438 0.15727,0.47182c0,0.25809 -0.10041,0.46779 -0.30245,0.6291c-0.19357,0.1613 -0.49239,0.24196 -0.89525,0.24196c-0.27463,0 -0.56861,-0.02822 -0.88316,-0.08469c-0.31455,-0.05646 -0.63757,-0.14115 -0.96785,-0.25406l0.15727,-0.16937c0.07259,0.4194 0.13671,0.88316 0.19357,1.39128c0.05686,0.50812 0.10525,1.0243 0.14517,1.54855c0.04839,0.51619 0.08106,1.00414 0.09678,1.46386c0.0242,0.45973 0.0363,0.85089 0.0363,1.17351c0,0.6291 -0.08106,1.10092 -0.24196,1.41547c-0.15364,0.31455 -0.4198,0.47182 -0.79847,0.47182c-0.34721,0 -0.59644,-0.14115 -0.75008,-0.42343c-0.15364,-0.29035 -0.22987,-0.72991 -0.22987,-1.31869c0,-0.38714 0.01573,-0.83073 0.04839,-1.33079c0.03993,-0.50005 0.09315,-1.01624 0.15727,-1.54855c0.06412,-0.53231 0.13308,-1.04043 0.20567,-1.52436c0.08106,-0.49199 0.1609,-0.91945 0.24196,-1.28239l0.21777,0.13308c-0.17784,0.06452 -0.38714,0.12905 -0.6291,0.19357c-0.24196,0.05646 -0.48392,0.10485 -0.72588,0.14517c-0.24196,0.03227 -0.4561,0.04839 -0.6412,0.04839c-0.41134,0 -0.70168,-0.06452 -0.87106,-0.19357c-0.16937,-0.13711 -0.25406,-0.31858 -0.25406,-0.54441c0,-0.20969 0.06412,-0.38714 0.19357,-0.53231c0.12945,-0.15325 0.32664,-0.28632 0.59281,-0.39924c0.30608,-0.12905 0.68112,-0.22583 1.12512,-0.29035c0.45126,-0.07259 0.97994,-0.10888 1.58484,-0.10888zM209.2655,178.11876c0,-0.77428 0.07259,-1.33079 0.21777,-1.66953c0.14517,-0.34682 0.35084,-0.52021 0.617,-0.52021c0.21051,0 0.37504,0.08872 0.49602,0.26616c0.12098,0.16937 0.21051,0.38311 0.26616,0.6412c0.05686,0.25003 0.08469,0.50409 0.08469,0.76218l-0.06049,-0.0242c0.13792,-0.43553 0.34721,-0.81057 0.6291,-1.12512c0.29035,-0.31455 0.63757,-0.47182 1.04043,-0.47182c0.47666,0 0.82751,0.19759 1.05253,0.59281c0.22624,0.38714 0.33874,0.87106 0.33874,1.45176c0,0.77428 -0.08832,1.31466 -0.26616,1.62114c-0.17663,0.30648 -0.41497,0.45973 -0.71378,0.45973c-0.21777,0 -0.37867,-0.08872 -0.48392,-0.26616c-0.09678,-0.17744 -0.12824,-0.49199 -0.09678,-0.94365c0.03267,-0.47586 0.00484,-0.80654 -0.08469,-0.99204c-0.08832,-0.1855 -0.22987,-0.27826 -0.42343,-0.27826c-0.23349,0 -0.42706,0.14921 -0.58071,0.44763c-0.14517,0.29035 -0.21777,0.64926 -0.21777,1.07672c0,0.16937 0.02057,0.38311 0.06049,0.6412c0.04114,0.25809 0.08469,0.54039 0.13308,0.84686c0.04839,0.29842 0.09315,0.59683 0.13308,0.89525c0.04114,0.29842 0.06049,0.57263 0.06049,0.82267c0,0.4436 -0.06775,0.76218 -0.20567,0.95575c-0.13671,0.19357 -0.33027,0.29035 -0.58071,0.29035c-0.28188,0 -0.49965,-0.08872 -0.65329,-0.26616c-0.15243,-0.1855 -0.26979,-0.48392 -0.35084,-0.89525c-0.06412,-0.37101 -0.12824,-0.81057 -0.19357,-1.31869c-0.06412,-0.50812 -0.11614,-1.02833 -0.15727,-1.56065c-0.03993,-0.53231 -0.06049,-1.01221 -0.06049,-1.43967zM220.30618,183.69596c-0.27342,0 -0.46336,-0.10485 -0.56861,-0.31455c-0.09678,-0.21777 -0.15243,-0.56054 -0.16937,-1.02833l0.12098,0.06049c-0.45126,0.87913 -1.30659,1.31869 -2.56478,1.31869c-0.57224,0 -1.04769,-0.10082 -1.42757,-0.30245c-0.37867,-0.20969 -0.66055,-0.48392 -0.84686,-0.82267c-0.17663,-0.34682 -0.26616,-0.72186 -0.26616,-1.12512c0,-0.69362 0.24196,-1.24207 0.72588,-1.64533c0.48392,-0.41134 1.12512,-0.617 1.92359,-0.617c0.52505,0 0.97994,0.07662 1.36708,0.22987c0.38714,0.15325 0.71862,0.36697 0.99204,0.6412l-0.20567,-0.0242c-0.05565,-0.8146 -0.23349,-1.39531 -0.53231,-1.74212c-0.29035,-0.35487 -0.70531,-0.53231 -1.2461,-0.53231c-0.31455,0 -0.60491,0.04839 -0.87106,0.14517c-0.26616,0.09678 -0.51175,0.19759 -0.73798,0.30245c-0.21777,0.09678 -0.42343,0.14517 -0.617,0.14517c-0.19357,0 -0.346,-0.06452 -0.45973,-0.19357c-0.10404,-0.12905 -0.15727,-0.29438 -0.15727,-0.49602c0,-0.29035 0.13792,-0.56458 0.41134,-0.82267c0.28309,-0.25809 0.65329,-0.46779 1.11302,-0.6291c0.45973,-0.1613 0.96059,-0.24196 1.50016,-0.24196c0.65329,0 1.21464,0.15727 1.68163,0.47182c0.46819,0.31455 0.82267,0.77428 1.06463,1.37918c0.21051,0.51619 0.35931,1.09285 0.44763,1.73002c0.08953,0.63717 0.13308,1.31869 0.13308,2.04457c0,0.54844 -0.02783,0.97187 -0.08469,1.27029c-0.05565,0.29842 -0.14517,0.50812 -0.26616,0.6291c-0.11251,0.11291 -0.26616,0.16937 -0.45973,0.16937zM217.63251,182.34098c0.26616,0 0.53715,-0.0363 0.81057,-0.10888c0.27463,-0.08066 0.50449,-0.19759 0.68959,-0.35084c0.18631,-0.15325 0.27826,-0.34277 0.27826,-0.56861c0,-0.19357 -0.07985,-0.35084 -0.24196,-0.47182c-0.15243,-0.12905 -0.3581,-0.22583 -0.617,-0.29035c-0.24922,-0.06452 -0.52021,-0.09678 -0.81057,-0.09678c-0.49118,0 -0.86622,0.08469 -1.12512,0.25406c-0.24922,0.16937 -0.37504,0.39521 -0.37504,0.67749c0,0.30648 0.11735,0.54441 0.35084,0.71378c0.24196,0.1613 0.58918,0.24196 1.04043,0.24196zM223.41538,176.07419c0.21777,0 0.39924,0.12905 0.54441,0.38714c0.14517,0.25003 0.24559,0.64926 0.30245,1.19771l-0.25406,0.22987c0.14517,-0.56458 0.41497,-0.99607 0.81057,-1.29449c0.39561,-0.29842 0.86259,-0.44763 1.40337,-0.44763c0.49965,0 0.94365,0.12905 1.33079,0.38714c0.38714,0.25809 0.68959,0.64926 0.90735,1.17351c0.22624,0.51619 0.33874,1.16544 0.33874,1.94779c0,1.26627 -0.22987,2.20184 -0.68959,2.80675c-0.45126,0.59683 -1.06826,0.89525 -1.851,0.89525c-0.56498,0 -1.00777,-0.12098 -1.33079,-0.36294c-0.32302,-0.24196 -0.54804,-0.53634 -0.67749,-0.88316l0.14517,-0.07259c0.06412,0.48392 0.11735,0.96382 0.15727,1.43967c0.04839,0.46779 0.07259,0.87913 0.07259,1.234c0,0.36294 -0.06412,0.66942 -0.19357,0.91945c-0.12945,0.25003 -0.33511,0.37504 -0.617,0.37504c-0.27463,0 -0.48029,-0.10485 -0.617,-0.31455c-0.13671,-0.20969 -0.23833,-0.48795 -0.30245,-0.83477c-0.04839,-0.35487 -0.09678,-0.81057 -0.14517,-1.36708c-0.04839,-0.55651 -0.08832,-1.15738 -0.12098,-1.80261c-0.0242,-0.64523 -0.0363,-1.27432 -0.0363,-1.8873c0,-0.6291 0.02057,-1.21787 0.06049,-1.76631c0.04839,-0.55651 0.10525,-1.00817 0.16937,-1.35498c0.05686,-0.20164 0.12945,-0.35084 0.21777,-0.44763c0.09678,-0.10485 0.2214,-0.15727 0.37504,-0.15727zM225.72611,177.53805c-0.43553,0 -0.78638,0.21777 -1.05253,0.65329c-0.25769,0.42746 -0.38714,0.97591 -0.38714,1.64533c0,0.68556 0.12945,1.19771 0.38714,1.53646c0.26616,0.33874 0.60853,0.50812 1.02833,0.50812c0.48392,0 0.83114,-0.18954 1.04043,-0.56861c0.21777,-0.38714 0.32664,-0.88719 0.32664,-1.50016c0,-0.78234 -0.13308,-1.35498 -0.39924,-1.71793c-0.26616,-0.37101 -0.58071,-0.55651 -0.94365,-0.55651zM233.412,183.67177c-0.89525,0 -1.60904,-0.13308 -2.14135,-0.39924c-0.53231,-0.26616 -0.91582,-0.64926 -1.14932,-1.14932c-0.2347,-0.50005 -0.35084,-1.0969 -0.35084,-1.79051c0,-0.87913 0.1609,-1.62517 0.48392,-2.23814c0.33027,-0.62103 0.78154,-1.0969 1.35498,-1.42757c0.58071,-0.33068 1.23763,-0.49602 1.97198,-0.49602c0.86259,0 1.49532,0.20164 1.8994,0.60491c0.40287,0.39521 0.60491,0.91543 0.60491,1.56065c0,0.51619 -0.13792,0.96382 -0.41134,1.34289c-0.26616,0.37101 -0.63757,0.65733 -1.11302,0.85896c-0.47666,0.20164 -1.0247,0.30245 -1.64533,0.30245c-0.34721,0 -0.68233,-0.04436 -1.00414,-0.13308c-0.32302,-0.08872 -0.61337,-0.20969 -0.87106,-0.36294l0.29035,-0.53231c-0.0242,0.19357 -0.0363,0.38714 -0.0363,0.58071c0,0.56458 0.17663,0.97187 0.53231,1.2219c0.35447,0.24196 0.85896,0.36294 1.51226,0.36294c0.50812,0 0.91461,-0.04436 1.2219,-0.13308c0.30608,-0.08872 0.56377,-0.1734 0.77428,-0.25406c0.2093,-0.08872 0.41497,-0.13308 0.617,-0.13308c0.11251,0 0.21293,0.03227 0.30245,0.09678c0.09678,0.05646 0.173,0.14115 0.22987,0.25406c0.06412,0.11291 0.09678,0.25003 0.09678,0.41134c0,0.24196 -0.12098,0.47586 -0.36294,0.70168c-0.24196,0.21777 -0.60128,0.39924 -1.07672,0.54441c-0.46819,0.13711 -1.04527,0.20567 -1.73002,0.20567zM232.71031,179.7157c0.57224,0 1.03196,-0.12098 1.37918,-0.36294c0.346,-0.24196 0.52021,-0.54039 0.52021,-0.89525c0,-0.28229 -0.09678,-0.51215 -0.29035,-0.68959c-0.18631,-0.1855 -0.48029,-0.27826 -0.88316,-0.27826c-0.37988,0 -0.72225,0.07259 -1.02833,0.21777c-0.29882,0.13711 -0.53231,0.31858 -0.70168,0.54441c-0.16937,0.22583 -0.25406,0.47182 -0.25406,0.73798c0,0.23389 0.10888,0.41536 0.32664,0.54441c0.22503,0.12098 0.53594,0.18147 0.93155,0.18147zM240.7047,176.0016c0.71862,0 1.234,0.10485 1.54855,0.31455c0.31455,0.20969 0.47182,0.47989 0.47182,0.81057c0,0.19357 -0.06775,0.35487 -0.20567,0.48392c-0.12824,0.12098 -0.31455,0.18147 -0.55651,0.18147c-0.24922,0 -0.51175,-0.0363 -0.78638,-0.10888c-0.26616,-0.07259 -0.57587,-0.10888 -0.93155,-0.10888c-0.41134,0 -0.71741,0.08066 -0.91945,0.24196c-0.20083,0.1613 -0.30245,0.36697 -0.30245,0.617c0,0.23389 0.08953,0.4194 0.26616,0.55651c0.18631,0.12905 0.53715,0.22583 1.05253,0.29035c0.57345,0.06452 1.04527,0.16937 1.41547,0.31455c0.37988,0.13711 0.66176,0.34682 0.84686,0.6291c0.18631,0.27422 0.27826,0.65329 0.27826,1.13722c0,0.7662 -0.26979,1.33481 -0.81057,1.70583c-0.53957,0.37101 -1.28602,0.55651 -2.23814,0.55651c-0.60491,0 -1.08398,-0.04839 -1.43967,-0.14517c-0.35447,-0.09678 -0.61216,-0.23389 -0.77428,-0.41134c-0.15243,-0.17744 -0.22987,-0.38714 -0.22987,-0.6291c0,-0.20969 0.06896,-0.37101 0.20567,-0.48392c0.14517,-0.12098 0.31455,-0.18147 0.50812,-0.18147c0.18631,0 0.38351,0.0242 0.59281,0.07259c0.21051,0.04032 0.4319,0.08469 0.66539,0.13308c0.2347,0.04839 0.47666,0.07259 0.72588,0.07259c0.80694,0 1.2098,-0.25003 1.2098,-0.75008c0,-0.16937 -0.03993,-0.30648 -0.12098,-0.41134c-0.07985,-0.10485 -0.22503,-0.18954 -0.43553,-0.25406c-0.2093,-0.07259 -0.51537,-0.12905 -0.91945,-0.16937c-0.48392,-0.04839 -0.90251,-0.12905 -1.25819,-0.24196c-0.35447,-0.12098 -0.6291,-0.31455 -0.82267,-0.58071c-0.19357,-0.27422 -0.29035,-0.64926 -0.29035,-1.12512c0,-0.75008 0.28309,-1.35498 0.84686,-1.81471c0.56498,-0.46779 1.36708,-0.70168 2.40751,-0.70168zM245.1713,174.29577c0.32302,0 0.55288,0.08872 0.68959,0.26616c0.14517,0.17744 0.21777,0.38311 0.21777,0.617c0,0.29035 -0.08832,0.51619 -0.26616,0.67749c-0.16937,0.15325 -0.41134,0.22987 -0.72588,0.22987c-0.30608,0 -0.53594,-0.08469 -0.68959,-0.25406c-0.15243,-0.17744 -0.22987,-0.38311 -0.22987,-0.617c0,-0.30649 0.09315,-0.53634 0.27826,-0.68959c0.18631,-0.15324 0.42827,-0.22987 0.72588,-0.22987zM245.2439,176.99364c0.2589,0 0.45973,0.24196 0.60491,0.72588c0.15364,0.48392 0.22987,1.25417 0.22987,2.31073c0,1.29852 -0.09195,2.23411 -0.27826,2.80675c-0.1851,0.57263 -0.46698,0.85896 -0.84686,0.85896c-0.29035,0 -0.50328,-0.20969 -0.6412,-0.6291c-0.13671,-0.42746 -0.20567,-1.16948 -0.20567,-2.22604c0,-1.29852 0.10525,-2.26234 0.31455,-2.89143c0.21777,-0.63717 0.49239,-0.95575 0.82267,-0.95575zM253.00116,183.50239c-0.21777,0 -0.38714,-0.07259 -0.50812,-0.21777c-0.11372,-0.15325 -0.18994,-0.34682 -0.22987,-0.58071c-0.04114,-0.24196 -0.06049,-0.49602 -0.06049,-0.76218l0.06049,-0.04839c-0.08106,0.34682 -0.23833,0.64523 -0.47182,0.89525c-0.2347,0.25003 -0.50449,0.4436 -0.81057,0.58071c-0.30729,0.12905 -0.61337,0.19357 -0.91945,0.19357c-0.41134,0 -0.78638,-0.09678 -1.12512,-0.29035c-0.33874,-0.19357 -0.60128,-0.49199 -0.78638,-0.89525c-0.18631,-0.42746 -0.33148,-0.96382 -0.43553,-1.60904c-0.10525,-0.65329 -0.15727,-1.32271 -0.15727,-2.00827c0,-0.37101 0.01573,-0.71378 0.04839,-1.02833c0.03146,-0.31455 0.08469,-0.57263 0.15727,-0.77428c0.06412,-0.20969 0.1609,-0.36294 0.29035,-0.45973c0.12824,-0.10485 0.29398,-0.15727 0.49602,-0.15727c0.23349,0 0.41497,0.09275 0.54441,0.27826c0.13671,0.17744 0.2214,0.42746 0.25406,0.75008c0.03146,0.26616 0.05202,0.59683 0.06049,0.99204c0.01573,0.38714 0.02783,0.7783 0.0363,1.17351c0.01573,0.38714 0.0363,0.71378 0.06049,0.97994c0.04839,0.48392 0.173,0.84283 0.37504,1.07672c0.20083,0.22583 0.44763,0.33874 0.73798,0.33874c0.42706,0 0.75371,-0.1613 0.97994,-0.48392c0.22503,-0.32262 0.33874,-0.77428 0.33874,-1.35498c0,-0.29035 -0.01694,-0.617 -0.04839,-0.97994c-0.03267,-0.37101 -0.06896,-0.72991 -0.10888,-1.07672c-0.03267,-0.34682 -0.04839,-0.63313 -0.04839,-0.85896c0,-0.37907 0.06412,-0.64926 0.19357,-0.81057c0.12824,-0.16937 0.30608,-0.25406 0.53231,-0.25406c0.19357,0 0.35447,0.05242 0.48392,0.15727c0.13671,0.10485 0.24559,0.25003 0.32664,0.43553c0.11251,0.24196 0.2093,0.57263 0.29035,0.99204c0.07985,0.4194 0.14517,0.89525 0.19357,1.42757c0.04839,0.53231 0.07259,1.09285 0.07259,1.68163c0,0.90333 -0.06049,1.58081 -0.18147,2.03247c-0.12098,0.4436 -0.33511,0.66539 -0.6412,0.66539zM260.50922,178.03407c0.08106,-0.33068 0.22261,-0.6291 0.42343,-0.89525c0.21051,-0.26616 0.45973,-0.47586 0.75008,-0.6291c0.29882,-0.1613 0.62547,-0.24196 0.97994,-0.24196c0.4198,0 0.79122,0.10082 1.11302,0.30245c0.32302,0.20164 0.57708,0.53231 0.76218,0.99204c0.19357,0.45973 0.29035,1.0727 0.29035,1.8389c0,0.39521 -0.01573,0.79444 -0.04839,1.19771c-0.03146,0.40326 -0.07259,0.7783 -0.12098,1.12512c-0.04839,0.34682 -0.10041,0.63717 -0.15727,0.87106c-0.07985,0.32262 -0.20567,0.56861 -0.37504,0.73798c-0.1609,0.16937 -0.36657,0.25406 -0.617,0.25406c-0.2093,0 -0.37504,-0.09275 -0.49602,-0.27826c-0.12098,-0.1855 -0.18147,-0.45166 -0.18147,-0.79847c0,-0.1613 0.02057,-0.36697 0.06049,-0.617c0.04114,-0.25809 0.08469,-0.53634 0.13308,-0.83477c0.04839,-0.30648 0.09315,-0.617 0.13308,-0.93155c0.04114,-0.31455 0.06049,-0.61297 0.06049,-0.89525c0,-0.4194 -0.08469,-0.74201 -0.25406,-0.96785c-0.16937,-0.23389 -0.4065,-0.35084 -0.71378,-0.35084c-0.33874,0 -0.62063,0.17744 -0.84686,0.53231c-0.21777,0.34682 -0.346,0.85493 -0.38714,1.52436c-0.03146,0.59683 -0.06049,1.12914 -0.08469,1.59694c-0.0242,0.45973 -0.08469,0.8388 -0.18147,1.13722c-0.06412,0.20969 -0.15727,0.36697 -0.27826,0.47182c-0.11251,0.10485 -0.26616,0.15727 -0.45973,0.15727c-0.21777,0 -0.39077,-0.08066 -0.52021,-0.24196c-0.12098,-0.1613 -0.18873,-0.41536 -0.20567,-0.76218c-0.01573,-0.29035 -0.01936,-0.63313 -0.0121,-1.02833c0.00847,-0.39521 0.0121,-0.78638 0.0121,-1.17351c0.00847,-0.39521 0.00484,-0.72186 -0.0121,-0.97994c-0.03146,-0.51619 -0.12461,-0.89525 -0.27826,-1.13722c-0.14517,-0.24196 -0.36657,-0.36294 -0.66539,-0.36294c-0.346,0 -0.62426,0.1613 -0.83477,0.48392c-0.20083,0.32262 -0.32664,0.77025 -0.37504,1.34289c-0.01573,0.23389 -0.0242,0.52424 -0.0242,0.87106c0.00847,0.33874 0.01694,0.67749 0.0242,1.01624c0.00847,0.33874 0.00484,0.62103 -0.0121,0.84686c-0.00726,0.48392 -0.08469,0.83073 -0.22987,1.04043c-0.13671,0.20969 -0.33027,0.31455 -0.58071,0.31455c-0.29761,0 -0.51537,-0.09678 -0.65329,-0.29035c-0.12824,-0.19357 -0.21293,-0.50409 -0.25406,-0.93155c-0.03146,-0.37907 -0.05565,-0.75411 -0.07259,-1.12512c-0.01573,-0.37907 -0.0242,-0.75411 -0.0242,-1.12512c0,-0.37907 0.00847,-0.7904 0.0242,-1.234c0.0242,-0.4436 0.05686,-0.86299 0.09678,-1.25819c0.04839,-0.40326 0.13308,-0.74201 0.25406,-1.01624c0.12098,-0.27422 0.32302,-0.41134 0.60491,-0.41134c0.2347,0 0.39924,0.11695 0.49602,0.35084c0.09678,0.22583 0.14517,0.57668 0.14517,1.05253c0,0.1613 -0.0121,0.31052 -0.0363,0.44763l-0.0363,-0.24196c0.16211,-0.52424 0.4198,-0.93155 0.77428,-1.2219c0.35568,-0.29842 0.75008,-0.44763 1.18561,-0.44763c0.57345,0 1.02108,0.1855 1.34289,0.55651c0.32302,0.36294 0.50086,0.86703 0.53231,1.51226zM271.47489,183.68386c-0.29035,0 -0.52868,-0.10485 -0.71378,-0.31455c-0.17784,-0.21777 -0.26616,-0.60491 -0.26616,-1.16142c0,-0.39521 0.02783,-0.8025 0.08469,-1.2219c0.05565,-0.4194 0.12824,-0.81864 0.21777,-1.19771c0.08832,-0.37907 0.1851,-0.69766 0.29035,-0.95575l0.07259,0.33874c-0.75855,-0.54844 -1.34773,-1.0364 -1.76631,-1.46386c-0.4198,-0.42746 -0.71378,-0.8025 -0.88316,-1.12512c-0.16937,-0.33068 -0.25406,-0.617 -0.25406,-0.85896c0,-0.20164 0.03993,-0.37101 0.12098,-0.50812c0.08832,-0.13712 0.20083,-0.24196 0.33874,-0.31455c0.13671,-0.08065 0.29035,-0.12098 0.45973,-0.12098c0.38714,0 0.77791,0.29439 1.17351,0.88316c0.40287,0.58878 0.82267,1.46386 1.25819,2.62528h0.04839c0.36294,-0.83073 0.72951,-1.51226 1.10092,-2.04457c0.37867,-0.54039 0.74161,-0.93962 1.08882,-1.19771c0.346,-0.26616 0.64846,-0.39924 0.90735,-0.39924c0.23349,0 0.41497,0.08065 0.54441,0.24196c0.12824,0.15324 0.19357,0.35487 0.19357,0.60491c0,0.36294 -0.14154,0.76218 -0.42343,1.19771c-0.28309,0.42746 -0.68596,0.85896 -1.2098,1.29449c-0.52505,0.43553 -1.15416,0.83477 -1.8873,1.19771l0.10888,-0.22987c0.10404,0.32262 0.1972,0.67346 0.27826,1.05253c0.08832,0.37101 0.15727,0.74201 0.20567,1.11302c0.04839,0.36294 0.07259,0.68959 0.07259,0.97994c0,0.51619 -0.10888,0.91138 -0.32664,1.18561c-0.21051,0.26616 -0.48876,0.39924 -0.83477,0.39924zM281.54168,183.69596c-0.27463,0 -0.46457,-0.10485 -0.56861,-0.31455c-0.09678,-0.21777 -0.15364,-0.56054 -0.16937,-1.02833l0.12098,0.06049c-0.45247,0.87913 -1.30659,1.31869 -2.56478,1.31869c-0.57345,0 -1.0489,-0.10082 -1.42757,-0.30245c-0.37988,-0.20969 -0.66176,-0.48392 -0.84686,-0.82267c-0.17784,-0.34682 -0.26616,-0.72186 -0.26616,-1.12512c0,-0.69362 0.24196,-1.24207 0.72588,-1.64533c0.48392,-0.41134 1.12512,-0.617 1.92359,-0.617c0.52384,0 0.97994,0.07662 1.36708,0.22987c0.38714,0.15325 0.71741,0.36697 0.99204,0.6412l-0.20567,-0.0242c-0.05686,-0.8146 -0.2347,-1.39531 -0.53231,-1.74212c-0.29035,-0.35487 -0.70652,-0.53231 -1.2461,-0.53231c-0.31455,0 -0.60491,0.04839 -0.87106,0.14517c-0.26616,0.09678 -0.51295,0.19759 -0.73798,0.30245c-0.21777,0.09678 -0.42343,0.14517 -0.617,0.14517c-0.19357,0 -0.34721,-0.06452 -0.45973,-0.19357c-0.10525,-0.12905 -0.15727,-0.29438 -0.15727,-0.49602c0,-0.29035 0.13671,-0.56458 0.41134,-0.82267c0.28188,-0.25809 0.65329,-0.46779 1.11302,-0.6291c0.45973,-0.1613 0.95938,-0.24196 1.50016,-0.24196c0.65329,0 1.21343,0.15727 1.68163,0.47182c0.46698,0.31455 0.82267,0.77428 1.06463,1.37918c0.2093,0.51619 0.3581,1.09285 0.44763,1.73002c0.08832,0.63717 0.13187,1.31869 0.13187,2.04457c0,0.54844 -0.02783,0.97187 -0.08348,1.27029c-0.05686,0.29842 -0.14517,0.50812 -0.26616,0.6291c-0.11372,0.11291 -0.26616,0.16937 -0.45973,0.16937zM278.86801,182.34098c0.26616,0 0.53594,-0.0363 0.81057,-0.10888c0.27342,-0.08066 0.50328,-0.19759 0.68959,-0.35084c0.1851,-0.15325 0.27826,-0.34277 0.27826,-0.56861c0,-0.19357 -0.08106,-0.35084 -0.24196,-0.47182c-0.15364,-0.12905 -0.35931,-0.22583 -0.617,-0.29035c-0.25043,-0.06452 -0.52021,-0.09678 -0.81057,-0.09678c-0.49239,0 -0.86743,0.08469 -1.12512,0.25406c-0.25043,0.16937 -0.37504,0.39521 -0.37504,0.67749c0,0.30648 0.11614,0.54441 0.35084,0.71378c0.24196,0.1613 0.58797,0.24196 1.04043,0.24196zM285.061,176.04999c0.2589,0 0.4319,0.10485 0.52021,0.31455c0.09678,0.20969 0.14517,0.52021 0.14517,0.93155c0,0.09678 -0.00726,0.20164 -0.0242,0.31455c-0.00726,0.10485 -0.0242,0.20164 -0.04839,0.29035l-0.0242,-0.24196c0.19357,-0.52424 0.49239,-0.93155 0.89525,-1.2219c0.40408,-0.29842 0.83114,-0.44763 1.28239,-0.44763c0.50086,0 0.91582,0.14115 1.2461,0.42343c0.33874,0.28229 0.58918,0.67749 0.75008,1.18561c0.16937,0.50812 0.25406,1.10899 0.25406,1.80261c0,0.42746 -0.01936,0.85089 -0.06049,1.27029c-0.03146,0.41134 -0.07985,0.7904 -0.14517,1.13722c-0.05565,0.33874 -0.12098,0.617 -0.19357,0.83477c-0.09678,0.27422 -0.2214,0.47989 -0.37504,0.617c-0.15243,0.12905 -0.3339,0.19357 -0.54441,0.19357c-0.2093,0 -0.3702,-0.07662 -0.48392,-0.22987c-0.11251,-0.15325 -0.16937,-0.35892 -0.16937,-0.617c0,-0.27422 0.02057,-0.60491 0.06049,-0.99204c0.04114,-0.39521 0.07743,-0.79444 0.10888,-1.19771c0.04114,-0.41134 0.06049,-0.78234 0.06049,-1.11302c0,-1.12914 -0.3702,-1.69373 -1.11302,-1.69373c-0.3944,0 -0.72588,0.17744 -0.99204,0.53231c-0.26616,0.34682 -0.44279,0.84283 -0.53231,1.48806c-0.0242,0.21777 -0.0363,0.48795 -0.0363,0.81057c0,0.32262 0,0.64523 0,0.96785c0.00847,0.31455 0,0.58071 -0.0242,0.79847c-0.03146,0.48392 -0.12461,0.83073 -0.27826,1.04043c-0.14517,0.20969 -0.346,0.31455 -0.60491,0.31455c-0.29761,0 -0.52384,-0.13711 -0.67749,-0.41134c-0.15243,-0.28229 -0.22987,-0.75411 -0.22987,-1.41547c0,-0.33874 0.00847,-0.71781 0.0242,-1.13722c0.01694,-0.4194 0.0363,-0.8388 0.06049,-1.25819c0.03267,-0.42746 0.06896,-0.8146 0.10888,-1.16142c0.08106,-0.65329 0.19841,-1.16948 0.35084,-1.54855c0.15364,-0.38714 0.38351,-0.58071 0.68959,-0.58071zM293.84055,183.38141c-0.75734,0 -1.37434,-0.29035 -1.851,-0.87106c-0.47545,-0.58878 -0.71378,-1.47999 -0.71378,-2.67367c0,-1.27432 0.22987,-2.20587 0.68959,-2.79465c0.45973,-0.58878 1.06463,-0.88316 1.81471,-0.88316c0.444,0 0.83477,0.11291 1.17351,0.33874c0.33874,0.22583 0.6291,0.54441 0.87106,0.95575l-0.09678,0.16937c-0.0242,-0.11291 -0.04356,-0.23389 -0.06049,-0.36294c-0.01573,-0.12905 -0.0242,-0.22583 -0.0242,-0.29035c0,-0.33068 0.05323,-0.58473 0.15727,-0.76218c0.11372,-0.1855 0.28672,-0.27826 0.52021,-0.27826c0.2589,0 0.45973,0.10485 0.60491,0.31455c0.15364,0.20969 0.271,0.50812 0.35084,0.89525c0.10525,0.39521 0.19357,0.89928 0.26616,1.51226c0.07259,0.60491 0.10888,1.21787 0.10888,1.8389c0,0.77428 -0.02783,1.42354 -0.08469,1.94779c-0.05565,0.52424 -0.1488,0.95977 -0.27826,1.30659c-0.12824,0.34682 -0.29761,0.64926 -0.50812,0.90735c-0.346,0.4194 -0.79363,0.73798 -1.34289,0.95575c-0.53957,0.22583 -1.16504,0.33874 -1.8752,0.33874c-0.50812,0 -0.91461,-0.04839 -1.2219,-0.14517c-0.30608,-0.08872 -0.52747,-0.21374 -0.66539,-0.37504c-0.12824,-0.15325 -0.19357,-0.32664 -0.19357,-0.52021c0,-0.20164 0.05686,-0.37101 0.16937,-0.50812c0.11372,-0.12905 0.28309,-0.19357 0.50812,-0.19357c0.20204,0 0.43553,0.03227 0.70168,0.09678c0.27463,0.06452 0.59765,0.09678 0.96785,0.09678c0.78275,0 1.33563,-0.1855 1.65743,-0.55651c0.33148,-0.36294 0.49602,-0.88719 0.49602,-1.57275c0,-0.1855 -0.0121,-0.40326 -0.0363,-0.65329l0.16937,0.06049c-0.20083,0.51619 -0.49965,0.93155 -0.89525,1.2461c-0.3944,0.30648 -0.85412,0.45973 -1.37918,0.45973zM294.30028,181.89335c0.2589,0 0.51658,-0.06856 0.77428,-0.20567c0.2589,-0.13711 0.47182,-0.36294 0.6412,-0.67749c0.16937,-0.31455 0.25406,-0.73798 0.25406,-1.27029c0,-0.63717 -0.1488,-1.15738 -0.44763,-1.56065c-0.29761,-0.40326 -0.71741,-0.60491 -1.25819,-0.60491c-0.46698,0 -0.81057,0.17744 -1.02833,0.53231c-0.21777,0.35487 -0.32664,0.89123 -0.32664,1.60904c0,0.68556 0.10888,1.2219 0.32664,1.60904c0.21777,0.37907 0.57345,0.56861 1.06463,0.56861zM301.91237,183.65967c-0.2347,0 -0.41618,-0.08872 -0.54441,-0.26616c-0.12945,-0.17744 -0.19357,-0.50005 -0.19357,-0.96785c0,-0.33068 0.0363,-0.72588 0.10888,-1.18561c0.07985,-0.46779 0.18873,-0.96382 0.32664,-1.48806c0.13671,-0.53231 0.29761,-1.0606 0.48392,-1.58484c0.1851,-0.53231 0.38714,-1.02833 0.60491,-1.48806c0.24196,-0.52424 0.47545,-0.93155 0.70168,-1.2219c0.22503,-0.29842 0.45489,-0.50812 0.68959,-0.6291c0.23349,-0.12905 0.47908,-0.19357 0.73798,-0.19357c0.38714,0 0.74161,0.15324 1.06463,0.45973c0.33027,0.30648 0.64483,0.8146 0.94365,1.52436c0.21777,0.54039 0.41497,1.13319 0.59281,1.77841c0.17663,0.64523 0.31455,1.29852 0.41134,1.95988c0.10404,0.66136 0.15727,1.28642 0.15727,1.8752c0,0.49199 -0.08469,0.85493 -0.25406,1.08882c-0.16211,0.22583 -0.38714,0.33874 -0.67749,0.33874c-0.28309,0 -0.50086,-0.12501 -0.65329,-0.37504c-0.15364,-0.25003 -0.26253,-0.66539 -0.32664,-1.2461c-0.03267,-0.35487 -0.04839,-0.72186 -0.04839,-1.10092c0,-0.38714 0.01573,-0.75411 0.04839,-1.10092l0.20567,0.93155c-0.28309,0.09678 -0.63757,0.1613 -1.06463,0.19357c-0.4198,0.0242 -0.85896,0.01612 -1.31869,-0.0242c-0.45247,-0.04839 -0.8759,-0.13308 -1.27029,-0.25406l0.6412,-0.82267c0.00726,0.38714 -0.0121,0.7662 -0.06049,1.13722c-0.04839,0.36294 -0.10525,0.69766 -0.16937,1.00414c-0.06533,0.35487 -0.14154,0.65733 -0.22987,0.90735c-0.08953,0.25003 -0.20567,0.43956 -0.35084,0.56861c-0.13792,0.12098 -0.32302,0.18147 -0.55651,0.18147zM304.75542,179.53423c0.46698,0 0.80573,-0.06856 1.01624,-0.20567c0.21777,-0.14517 0.32664,-0.35487 0.32664,-0.6291c0,-0.19357 -0.0363,-0.4315 -0.10888,-0.71378c-0.06533,-0.29035 -0.15727,-0.57263 -0.27826,-0.84686c-0.12098,-0.27422 -0.26253,-0.50409 -0.42343,-0.68959c-0.15364,-0.1855 -0.32302,-0.27826 -0.50812,-0.27826c-0.17784,0 -0.34721,0.09678 -0.50812,0.29035c-0.15364,0.1855 -0.29035,0.4194 -0.41134,0.70168c-0.12098,0.28229 -0.21777,0.57263 -0.29035,0.87106c-0.07259,0.29035 -0.10888,0.54039 -0.10888,0.75008c0,0.24196 0.10404,0.42746 0.31455,0.55651c0.21777,0.12905 0.54441,0.19357 0.97994,0.19357zM311.36095,183.74435c-0.79001,0 -1.407,-0.29438 -1.851,-0.88316c-0.444,-0.59683 -0.66539,-1.50418 -0.66539,-2.72206c0,-1.2098 0.21777,-2.09297 0.65329,-2.64948c0.444,-0.56458 1.07672,-0.84686 1.8994,-0.84686c0.46819,0 0.87469,0.09678 1.2219,0.29035c0.35447,0.19357 0.66902,0.46779 0.94365,0.82267l-0.09678,0.04839c-0.07259,-0.33068 -0.14517,-0.68152 -0.21777,-1.05253c-0.07259,-0.37101 -0.13308,-0.72186 -0.18147,-1.05253c-0.03993,-0.33874 -0.06049,-0.60491 -0.06049,-0.79847c0,-0.27422 0.04477,-0.48392 0.13308,-0.6291c0.08832,-0.15324 0.22987,-0.22986 0.42343,-0.22986c0.27463,0 0.49602,0.11695 0.66539,0.35084c0.16937,0.22583 0.31092,0.57668 0.42343,1.05253c0.10525,0.42746 0.1972,0.93558 0.27826,1.52436c0.08106,0.58071 0.14517,1.18964 0.19357,1.8268c0.05686,0.6291 0.08469,1.234 0.08469,1.81471c0,0.80654 -0.04477,1.43564 -0.13308,1.8873c-0.08106,0.4436 -0.1972,0.75411 -0.35084,0.93155c-0.14517,0.17744 -0.31818,0.26616 -0.52021,0.26616c-0.25043,0 -0.4198,-0.12501 -0.50812,-0.37504c-0.08832,-0.25003 -0.12461,-0.65733 -0.10888,-1.2219h0.18147c-0.21777,0.50005 -0.53594,0.89928 -0.95575,1.19771c-0.41134,0.29842 -0.89525,0.44763 -1.45176,0.44763zM312.00215,182.24419c0.29035,0 0.55651,-0.07259 0.79847,-0.21777c0.25043,-0.15325 0.44763,-0.38714 0.59281,-0.70168c0.15364,-0.31455 0.22987,-0.71378 0.22987,-1.19771c0,-0.62103 -0.14154,-1.12512 -0.42343,-1.51226c-0.28188,-0.39521 -0.68959,-0.59281 -1.2219,-0.59281c-0.4198,0 -0.76218,0.1734 -1.02833,0.52021c-0.25769,0.34682 -0.38714,0.87106 -0.38714,1.57275c0,0.62103 0.12945,1.13319 0.38714,1.53646c0.26616,0.39521 0.617,0.59281 1.05253,0.59281zM321.96973,183.69596c-0.27342,0 -0.46336,-0.10485 -0.56861,-0.31455c-0.09678,-0.21777 -0.15243,-0.56054 -0.16937,-1.02833l0.12098,0.06049c-0.45126,0.87913 -1.30659,1.31869 -2.56478,1.31869c-0.57224,0 -1.04769,-0.10082 -1.42757,-0.30245c-0.37867,-0.20969 -0.66055,-0.48392 -0.84686,-0.82267c-0.17663,-0.34682 -0.26616,-0.72186 -0.26616,-1.12512c0,-0.69362 0.24196,-1.24207 0.72588,-1.64533c0.48392,-0.41134 1.12512,-0.617 1.92359,-0.617c0.52505,0 0.97994,0.07662 1.36708,0.22987c0.38714,0.15325 0.71862,0.36697 0.99204,0.6412l-0.20567,-0.0242c-0.05565,-0.8146 -0.23349,-1.39531 -0.53231,-1.74212c-0.29035,-0.35487 -0.70531,-0.53231 -1.2461,-0.53231c-0.31455,0 -0.60491,0.04839 -0.87106,0.14517c-0.26616,0.09678 -0.51175,0.19759 -0.73798,0.30245c-0.21777,0.09678 -0.42343,0.14517 -0.617,0.14517c-0.19357,0 -0.346,-0.06452 -0.45973,-0.19357c-0.10404,-0.12905 -0.15727,-0.29438 -0.15727,-0.49602c0,-0.29035 0.13792,-0.56458 0.41134,-0.82267c0.28309,-0.25809 0.65329,-0.46779 1.11302,-0.6291c0.45973,-0.1613 0.96059,-0.24196 1.50016,-0.24196c0.65329,0 1.21464,0.15727 1.68163,0.47182c0.46819,0.31455 0.82267,0.77428 1.06463,1.37918c0.21051,0.51619 0.35931,1.09285 0.44763,1.73002c0.08953,0.63717 0.13308,1.31869 0.13308,2.04457c0,0.54844 -0.02783,0.97187 -0.08469,1.27029c-0.05565,0.29842 -0.14517,0.50812 -0.26616,0.6291c-0.11251,0.11291 -0.26616,0.16937 -0.45973,0.16937zM319.29606,182.34098c0.26616,0 0.53715,-0.0363 0.81057,-0.10888c0.27463,-0.08066 0.50449,-0.19759 0.68959,-0.35084c0.18631,-0.15325 0.27826,-0.34277 0.27826,-0.56861c0,-0.19357 -0.07985,-0.35084 -0.24196,-0.47182c-0.15243,-0.12905 -0.3581,-0.22583 -0.617,-0.29035c-0.24922,-0.06452 -0.52021,-0.09678 -0.81057,-0.09678c-0.49118,0 -0.86622,0.08469 -1.12512,0.25406c-0.24922,0.16937 -0.37504,0.39521 -0.37504,0.67749c0,0.30648 0.11735,0.54441 0.35084,0.71378c0.24196,0.1613 0.58918,0.24196 1.04043,0.24196zM328.37202,183.85324c-0.50812,0 -0.90251,-0.03227 -1.18561,-0.09678c-0.27342,-0.06452 -0.46336,-0.15325 -0.56861,-0.26616c-0.10404,-0.12098 -0.1609,-0.25406 -0.16937,-0.39924c0,-0.22583 0.13308,-0.41536 0.39924,-0.56861c0.27463,-0.15325 0.77428,-0.25003 1.50016,-0.29035l-0.19357,0.22987c-0.08832,-0.41134 -0.15243,-0.89123 -0.19357,-1.43967c-0.03993,-0.54844 -0.05565,-1.11705 -0.04839,-1.70583c0.00847,-0.58878 0.0363,-1.14932 0.08469,-1.68163c0.04839,-0.54039 0.11735,-1.00011 0.20567,-1.37918l1.05253,-0.07259c-0.17663,0.07259 -0.39924,0.13711 -0.66539,0.19357c-0.26616,0.04839 -0.53957,0.07259 -0.82267,0.07259c-0.51537,0 -0.89888,-0.05646 -1.14932,-0.16937c-0.24196,-0.11291 -0.36294,-0.27019 -0.36294,-0.47182c0,-0.35487 0.21414,-0.6291 0.6412,-0.82267c0.43553,-0.20164 1.10092,-0.30245 1.99618,-0.30245c1.06463,0 1.95988,0.17744 2.68577,0.53231c0.73435,0.34682 1.29086,0.83477 1.66953,1.46386c0.37988,0.62103 0.56861,1.34691 0.56861,2.17765c0,0.72588 -0.12824,1.39531 -0.38714,2.00827c-0.25769,0.60491 -0.6291,1.13319 -1.11302,1.58484c-0.47545,0.4436 -1.04769,0.7904 -1.71793,1.04043c-0.66055,0.24196 -1.40337,0.36294 -2.22604,0.36294zM330.08994,181.99014c0.27463,0 0.56498,-0.10888 0.87106,-0.32664c0.31455,-0.22583 0.58071,-0.55248 0.79847,-0.97994c0.21777,-0.43553 0.32664,-0.97187 0.32664,-1.60904c0,-0.46779 -0.06775,-0.87509 -0.20567,-1.2219c-0.12824,-0.35487 -0.29761,-0.64926 -0.50812,-0.88316c-0.2093,-0.23389 -0.43069,-0.4073 -0.66539,-0.52021c-0.23349,-0.12098 -0.45489,-0.18147 -0.66539,-0.18147c-0.16937,0 -0.30245,0.10485 -0.39924,0.31455c-0.08832,0.20969 -0.15243,0.52424 -0.19357,0.94365c-0.03993,0.41134 -0.06049,0.92348 -0.06049,1.53646c0,0.95172 0.04839,1.6776 0.14517,2.17765c0.09678,0.50005 0.28309,0.75008 0.55651,0.75008zM336.21397,174.29577c0.32302,0 0.55288,0.08872 0.68959,0.26616c0.14517,0.17744 0.21777,0.38311 0.21777,0.617c0,0.29035 -0.08832,0.51619 -0.26616,0.67749c-0.16937,0.15325 -0.41134,0.22987 -0.72588,0.22987c-0.30608,0 -0.53594,-0.08469 -0.68959,-0.25406c-0.15364,-0.17744 -0.22987,-0.38311 -0.22987,-0.617c0,-0.30649 0.09315,-0.53634 0.27826,-0.68959c0.1851,-0.15324 0.42706,-0.22987 0.72588,-0.22987zM336.28656,176.99364c0.25769,0 0.45973,0.24196 0.60491,0.72588c0.15364,0.48392 0.22987,1.25417 0.22987,2.31073c0,1.29852 -0.09315,2.23411 -0.27826,2.80675c-0.1851,0.57263 -0.46819,0.85896 -0.84686,0.85896c-0.29035,0 -0.50449,-0.20969 -0.6412,-0.6291c-0.13671,-0.42746 -0.20567,-1.16948 -0.20567,-2.22604c0,-1.29852 0.10525,-2.26234 0.31455,-2.89143c0.21777,-0.63717 0.49239,-0.95575 0.82267,-0.95575zM344.08254,176.0016c0.71741,0 1.234,0.10485 1.54855,0.31455c0.31455,0.20969 0.47182,0.47989 0.47182,0.81057c0,0.19357 -0.06896,0.35487 -0.20567,0.48392c-0.12945,0.12098 -0.31455,0.18147 -0.55651,0.18147c-0.25043,0 -0.51295,-0.0363 -0.78638,-0.10888c-0.26616,-0.07259 -0.57708,-0.10888 -0.93155,-0.10888c-0.41134,0 -0.71862,0.08066 -0.91945,0.24196c-0.20204,0.1613 -0.30245,0.36697 -0.30245,0.617c0,0.23389 0.08832,0.4194 0.26616,0.55651c0.1851,0.12905 0.53594,0.22583 1.05253,0.29035c0.57224,0.06452 1.04406,0.16937 1.41547,0.31455c0.37867,0.13711 0.66055,0.34682 0.84686,0.6291c0.1851,0.27422 0.27826,0.65329 0.27826,1.13722c0,0.7662 -0.271,1.33481 -0.81057,1.70583c-0.54078,0.37101 -1.28723,0.55651 -2.23814,0.55651c-0.60491,0 -1.08519,-0.04839 -1.43967,-0.14517c-0.35568,-0.09678 -0.61337,-0.23389 -0.77428,-0.41134c-0.15364,-0.17744 -0.22987,-0.38714 -0.22987,-0.6291c0,-0.20969 0.06775,-0.37101 0.20567,-0.48392c0.14517,-0.12098 0.31455,-0.18147 0.50812,-0.18147c0.1851,0 0.3823,0.0242 0.59281,0.07259c0.2093,0.04032 0.43069,0.08469 0.66539,0.13308c0.23349,0.04839 0.47545,0.07259 0.72588,0.07259c0.80573,0 1.2098,-0.25003 1.2098,-0.75008c0,-0.16937 -0.04114,-0.30648 -0.12098,-0.41134c-0.08106,-0.10485 -0.22624,-0.18954 -0.43553,-0.25406c-0.21051,-0.07259 -0.51658,-0.12905 -0.91945,-0.16937c-0.48392,-0.04839 -0.90372,-0.12905 -1.25819,-0.24196c-0.35568,-0.12098 -0.6291,-0.31455 -0.82267,-0.58071c-0.19357,-0.27422 -0.29035,-0.64926 -0.29035,-1.12512c0,-0.75008 0.28188,-1.35498 0.84686,-1.81471c0.56377,-0.46779 1.36708,-0.70168 2.40751,-0.70168zM350.87076,183.67177c-0.89525,0 -1.60904,-0.13308 -2.14135,-0.39924c-0.53231,-0.26616 -0.91461,-0.64926 -1.14932,-1.14932c-0.23349,-0.50005 -0.35084,-1.0969 -0.35084,-1.79051c0,-0.87913 0.16211,-1.62517 0.48392,-2.23814c0.33148,-0.62103 0.78275,-1.0969 1.35498,-1.42757c0.58071,-0.33068 1.23884,-0.49602 1.97198,-0.49602c0.8638,0 1.49653,0.20164 1.8994,0.60491c0.40408,0.39521 0.60491,0.91543 0.60491,1.56065c0,0.51619 -0.13671,0.96382 -0.41134,1.34289c-0.26616,0.37101 -0.63636,0.65733 -1.11302,0.85896c-0.47545,0.20164 -1.02349,0.30245 -1.64533,0.30245c-0.346,0 -0.68112,-0.04436 -1.00414,-0.13308c-0.32181,-0.08872 -0.61216,-0.20969 -0.87106,-0.36294l0.29035,-0.53231c-0.0242,0.19357 -0.0363,0.38714 -0.0363,0.58071c0,0.56458 0.17784,0.97187 0.53231,1.2219c0.35568,0.24196 0.85896,0.36294 1.51226,0.36294c0.50812,0 0.91582,-0.04436 1.2219,-0.13308c0.30729,-0.08872 0.56498,-0.1734 0.77428,-0.25406c0.21051,-0.08872 0.41618,-0.13308 0.617,-0.13308c0.11372,0 0.21414,0.03227 0.30245,0.09678c0.09678,0.05646 0.17421,0.14115 0.22987,0.25406c0.06533,0.11291 0.09678,0.25003 0.09678,0.41134c0,0.24196 -0.12098,0.47586 -0.36294,0.70168c-0.24196,0.21777 -0.60007,0.39924 -1.07672,0.54441c-0.46698,0.13711 -1.04406,0.20567 -1.73002,0.20567zM350.16907,179.7157c0.57345,0 1.03317,-0.12098 1.37918,-0.36294c0.34721,-0.24196 0.52021,-0.54039 0.52021,-0.89525c0,-0.28229 -0.09678,-0.51215 -0.29035,-0.68959c-0.1851,-0.1855 -0.47908,-0.27826 -0.88316,-0.27826c-0.37867,0 -0.72104,0.07259 -1.02833,0.21777c-0.29761,0.13711 -0.53231,0.31858 -0.70168,0.54441c-0.16937,0.22583 -0.25406,0.47182 -0.25406,0.73798c0,0.23389 0.10888,0.41536 0.32664,0.54441c0.22624,0.12098 0.53715,0.18147 0.93155,0.18147zM355.92653,183.69596c-0.15243,0 -0.27826,-0.04436 -0.37504,-0.13308c-0.09678,-0.09678 -0.16453,-0.23389 -0.20567,-0.41134c-0.06412,-0.29842 -0.12098,-0.72991 -0.16937,-1.29449c-0.04839,-0.56458 -0.07259,-1.18964 -0.07259,-1.8752c0,-0.84686 0.02904,-1.66146 0.08469,-2.44381c0.06533,-0.78234 0.14517,-1.42354 0.24196,-1.92359c0.10525,-0.54038 0.2347,-0.93558 0.38714,-1.18561c0.15364,-0.25809 0.35568,-0.38714 0.60491,-0.38714c0.22624,0 0.39924,0.10485 0.52021,0.31455c0.12098,0.20164 0.18147,0.55248 0.18147,1.05253c0,0.50005 -0.01936,1.0364 -0.06049,1.60904c-0.03146,0.57263 -0.08832,1.18561 -0.16937,1.8389h0.04839c0.52505,-0.70976 1.01261,-1.27837 1.46386,-1.70583c0.45973,-0.42746 0.87953,-0.73798 1.25819,-0.93155c0.38714,-0.19357 0.73072,-0.29035 1.02833,-0.29035c0.2347,0 0.40771,0.07259 0.52021,0.21777c0.11372,0.14517 0.16937,0.32262 0.16937,0.53231c0,0.41134 -0.33027,0.87106 -0.99204,1.37918c-0.65329,0.50812 -1.59694,1.02833 -2.83095,1.56065l0.0121,-0.19357c0.76702,0.39521 1.42394,0.81057 1.97198,1.2461c0.55651,0.42746 0.97994,0.83477 1.27029,1.2219c0.29882,0.37907 0.44763,0.69766 0.44763,0.95575c0,0.20969 -0.06775,0.38311 -0.20567,0.52021c-0.12824,0.12905 -0.31818,0.19357 -0.56861,0.19357c-0.31455,0 -0.66539,-0.11695 -1.05253,-0.35084c-0.37867,-0.24196 -0.77428,-0.60087 -1.18561,-1.07672c-0.41134,-0.47586 -0.82267,-1.0727 -1.234,-1.79051h-0.04839c-0.00726,0.50812 -0.03993,1.00414 -0.09678,1.48806c-0.04839,0.47586 -0.11251,0.86703 -0.19357,1.17351c-0.05565,0.20969 -0.14517,0.37907 -0.26616,0.50812c-0.11251,0.12098 -0.27342,0.18147 -0.48392,0.18147zM363.42249,174.29577c0.32302,0 0.55288,0.08872 0.68959,0.26616c0.14517,0.17744 0.21777,0.38311 0.21777,0.617c0,0.29035 -0.08832,0.51619 -0.26616,0.67749c-0.16937,0.15325 -0.41134,0.22987 -0.72588,0.22987c-0.30608,0 -0.53594,-0.08469 -0.68959,-0.25406c-0.15243,-0.17744 -0.22987,-0.38311 -0.22987,-0.617c0,-0.30649 0.09315,-0.53634 0.27826,-0.68959c0.18631,-0.15324 0.42827,-0.22987 0.72588,-0.22987zM363.49508,176.99364c0.2589,0 0.45973,0.24196 0.60491,0.72588c0.15364,0.48392 0.22987,1.25417 0.22987,2.31073c0,1.29852 -0.09195,2.23411 -0.27826,2.80675c-0.1851,0.57263 -0.46698,0.85896 -0.84686,0.85896c-0.29035,0 -0.50328,-0.20969 -0.6412,-0.6291c-0.13671,-0.42746 -0.20567,-1.16948 -0.20567,-2.22604c0,-1.29852 0.10525,-2.26234 0.31455,-2.89143c0.21777,-0.63717 0.49239,-0.95575 0.82267,-0.95575zM367.85279,176.29195h-0.24196c-0.0242,-0.35487 -0.01573,-0.68959 0.0242,-1.00414c0.03993,-0.32262 0.12461,-0.58071 0.25406,-0.77428c0.13671,-0.20164 0.33027,-0.30245 0.58071,-0.30245c0.22624,0 0.39077,0.07259 0.49602,0.21777c0.10525,0.14517 0.15727,0.34681 0.15727,0.60491c0,0.50812 -0.09678,0.94365 -0.29035,1.30659l-0.21777,-0.0242c0.43553,-0.15325 0.92792,-0.22987 1.47596,-0.22987c0.34721,0 0.62063,0.06856 0.82267,0.20567c0.2093,0.12905 0.31455,0.35084 0.31455,0.66539c0,0.29842 -0.12098,0.52424 -0.36294,0.67749c-0.24196,0.15325 -0.54441,0.22987 -0.90735,0.22987c-0.21777,0 -0.45126,-0.00807 -0.70168,-0.0242c-0.24196,-0.0242 -0.48029,-0.06049 -0.71378,-0.10888l0.20567,-0.25406c0.07259,0.30648 0.14154,0.65733 0.20567,1.05253c0.07259,0.38714 0.13671,0.7904 0.19357,1.2098c0.05686,0.4194 0.10041,0.8267 0.13308,1.2219c0.03267,0.39521 0.04839,0.75008 0.04839,1.06463c0,0.51619 -0.08106,0.92348 -0.24196,1.2219c-0.1609,0.29842 -0.39924,0.44763 -0.71378,0.44763c-0.25043,0 -0.44763,-0.07662 -0.59281,-0.22987c-0.13671,-0.15325 -0.23833,-0.34682 -0.30245,-0.58071c-0.05686,-0.24196 -0.09315,-0.49199 -0.10888,-0.75008c-0.00847,-0.25809 -0.0121,-0.49199 -0.0121,-0.70168c0,-0.35487 0.01573,-0.75411 0.04839,-1.19771c0.03267,-0.45166 0.07622,-0.91543 0.13308,-1.39128c0.06412,-0.47586 0.13671,-0.93558 0.21777,-1.37918l0.24196,0.20567c-0.41134,0.20969 -0.91945,0.31455 -1.52436,0.31455c-0.37141,0 -0.65692,-0.06856 -0.85896,-0.20567c-0.20204,-0.13711 -0.30245,-0.35084 -0.30245,-0.6412c0,-0.31455 0.11251,-0.55651 0.33874,-0.72588c0.22624,-0.17744 0.52868,-0.26616 0.90735,-0.26616c0.25043,0 0.48392,0.01612 0.70168,0.04839c0.22624,0.0242 0.42343,0.05646 0.59281,0.09678zM377.49857,183.69596c-0.27463,0 -0.46336,-0.10485 -0.56861,-0.31455c-0.09678,-0.21777 -0.15364,-0.56054 -0.16937,-1.02833l0.12098,0.06049c-0.45126,0.87913 -1.30659,1.31869 -2.56478,1.31869c-0.57224,0 -1.0489,-0.10082 -1.42757,-0.30245c-0.37867,-0.20969 -0.66176,-0.48392 -0.84686,-0.82267c-0.17784,-0.34682 -0.26616,-0.72186 -0.26616,-1.12512c0,-0.69362 0.24196,-1.24207 0.72588,-1.64533c0.48392,-0.41134 1.12512,-0.617 1.92359,-0.617c0.52384,0 0.97994,0.07662 1.36708,0.22987c0.38714,0.15325 0.71741,0.36697 0.99204,0.6412l-0.20567,-0.0242c-0.05686,-0.8146 -0.23349,-1.39531 -0.53231,-1.74212c-0.29035,-0.35487 -0.70531,-0.53231 -1.2461,-0.53231c-0.31455,0 -0.60491,0.04839 -0.87106,0.14517c-0.26616,0.09678 -0.51175,0.19759 -0.73798,0.30245c-0.21777,0.09678 -0.42343,0.14517 -0.617,0.14517c-0.19357,0 -0.34721,-0.06452 -0.45973,-0.19357c-0.10525,-0.12905 -0.15727,-0.29438 -0.15727,-0.49602c0,-0.29035 0.13671,-0.56458 0.41134,-0.82267c0.28188,-0.25809 0.65329,-0.46779 1.11302,-0.6291c0.45973,-0.1613 0.95938,-0.24196 1.50016,-0.24196c0.65329,0 1.21343,0.15727 1.68163,0.47182c0.46819,0.31455 0.82267,0.77428 1.06463,1.37918c0.2093,0.51619 0.35931,1.09285 0.44763,1.73002c0.08832,0.63717 0.13308,1.31869 0.13308,2.04457c0,0.54844 -0.02783,0.97187 -0.08469,1.27029c-0.05686,0.29842 -0.14517,0.50812 -0.26616,0.6291c-0.11251,0.11291 -0.26616,0.16937 -0.45973,0.16937zM374.8249,182.34098c0.26616,0 0.53594,-0.0363 0.81057,-0.10888c0.27463,-0.08066 0.50449,-0.19759 0.68959,-0.35084c0.1851,-0.15325 0.27826,-0.34277 0.27826,-0.56861c0,-0.19357 -0.08106,-0.35084 -0.24196,-0.47182c-0.15364,-0.12905 -0.35931,-0.22583 -0.617,-0.29035c-0.25043,-0.06452 -0.52021,-0.09678 -0.81057,-0.09678c-0.49239,0 -0.86743,0.08469 -1.12512,0.25406c-0.25043,0.16937 -0.37504,0.39521 -0.37504,0.67749c0,0.30648 0.11735,0.54441 0.35084,0.71378c0.24196,0.1613 0.58918,0.24196 1.04043,0.24196zM379.7851,178.11876c0,-0.77428 0.07259,-1.33079 0.21777,-1.66953c0.14517,-0.34682 0.35084,-0.52021 0.617,-0.52021c0.2093,0 0.37504,0.08872 0.49602,0.26616c0.12098,0.16937 0.2093,0.38311 0.26616,0.6412c0.05565,0.25003 0.08469,0.50409 0.08469,0.76218l-0.06049,-0.0242c0.13671,-0.43553 0.346,-0.81057 0.6291,-1.12512c0.29035,-0.31455 0.63636,-0.47182 1.04043,-0.47182c0.47545,0 0.8263,0.19759 1.05253,0.59281c0.22503,0.38714 0.33874,0.87106 0.33874,1.45176c0,0.77428 -0.08953,1.31466 -0.26616,1.62114c-0.17784,0.30648 -0.41618,0.45973 -0.71378,0.45973c-0.21777,0 -0.37988,-0.08872 -0.48392,-0.26616c-0.09678,-0.17744 -0.12945,-0.49199 -0.09678,-0.94365c0.03146,-0.47586 0.00363,-0.80654 -0.08469,-0.99204c-0.08953,-0.1855 -0.22987,-0.27826 -0.42343,-0.27826c-0.2347,0 -0.42827,0.14921 -0.58071,0.44763c-0.14517,0.29035 -0.21777,0.64926 -0.21777,1.07672c0,0.16937 0.01936,0.38311 0.06049,0.6412c0.03993,0.25809 0.08469,0.54039 0.13308,0.84686c0.04839,0.29842 0.09195,0.59683 0.13308,0.89525c0.03993,0.29842 0.06049,0.57263 0.06049,0.82267c0,0.4436 -0.06896,0.76218 -0.20567,0.95575c-0.13792,0.19357 -0.33148,0.29035 -0.58071,0.29035c-0.28309,0 -0.50086,-0.08872 -0.65329,-0.26616c-0.15364,-0.1855 -0.271,-0.48392 -0.35084,-0.89525c-0.06533,-0.37101 -0.12945,-0.81057 -0.19357,-1.31869c-0.06533,-0.50812 -0.11735,-1.02833 -0.15727,-1.56065c-0.04114,-0.53231 -0.06049,-1.01221 -0.06049,-1.43967zM388.81871,183.69596c-0.14517,0 -0.26132,-0.04839 -0.35084,-0.14517c-0.08832,-0.10485 -0.1609,-0.27019 -0.21777,-0.49602c-0.05565,-0.25809 -0.10888,-0.66136 -0.15727,-1.2098c-0.04839,-0.55651 -0.07259,-1.17754 -0.07259,-1.8631c0,-0.74201 0.02057,-1.46386 0.06049,-2.16555c0.04839,-0.70976 0.11735,-1.33481 0.20567,-1.8752c0.06533,-0.35487 0.15727,-0.617 0.27826,-0.78638c0.12945,-0.17744 0.30729,-0.26616 0.53231,-0.26616c0.14517,0 0.27463,0.0484 0.38714,0.14518c0.11372,0.09678 0.19841,0.27019 0.25406,0.52021c0.06533,0.25003 0.09678,0.60491 0.09678,1.06463c0,0.22583 -0.00726,0.48392 -0.0242,0.77428c-0.01573,0.28229 -0.03993,0.59683 -0.07259,0.94365h0.04839c0.64604,-0.88719 1.21464,-1.59291 1.70583,-2.11716c0.49239,-0.53231 0.92429,-0.91543 1.29449,-1.14932c0.37988,-0.2339 0.71015,-0.35084 0.99204,-0.35084c0.22624,0 0.39561,0.07259 0.50812,0.21777c0.12098,0.14517 0.18147,0.32262 0.18147,0.53231c0,0.4436 -0.3339,0.97591 -1.00414,1.59694c-0.66055,0.62103 -1.73002,1.36708 -3.20599,2.23814l0.09678,-0.22987c1.27513,0.80654 2.23814,1.52033 2.89143,2.14135c0.65329,0.61297 0.97994,1.15738 0.97994,1.63323c0,0.20969 -0.06775,0.38311 -0.20567,0.52021c-0.12824,0.12905 -0.32181,0.19357 -0.58071,0.19357c-0.32181,0 -0.66539,-0.10888 -1.02833,-0.32664c-0.36294,-0.22583 -0.76581,-0.60087 -1.2098,-1.12512c-0.43553,-0.53231 -0.93155,-1.25417 -1.48806,-2.16555h-0.04839c0.01694,0.1855 0.02904,0.37907 0.0363,0.58071c0.00847,0.19357 0.0121,0.38714 0.0121,0.58071c0,0.92752 -0.06412,1.59291 -0.19357,1.99618c-0.12824,0.39521 -0.36294,0.59281 -0.70168,0.59281zM396.56268,174.29577c0.32302,0 0.55288,0.08872 0.68959,0.26616c0.14517,0.17744 0.21777,0.38311 0.21777,0.617c0,0.29035 -0.08832,0.51619 -0.26616,0.67749c-0.16937,0.15325 -0.41134,0.22987 -0.72588,0.22987c-0.30608,0 -0.53594,-0.08469 -0.68959,-0.25406c-0.15364,-0.17744 -0.22987,-0.38311 -0.22987,-0.617c0,-0.30649 0.09315,-0.53634 0.27826,-0.68959c0.1851,-0.15324 0.42706,-0.22987 0.72588,-0.22987zM396.63526,176.99364c0.25769,0 0.45973,0.24196 0.60491,0.72588c0.15364,0.48392 0.22987,1.25417 0.22987,2.31073c0,1.29852 -0.09315,2.23411 -0.27826,2.80675c-0.1851,0.57263 -0.46819,0.85896 -0.84686,0.85896c-0.29035,0 -0.50449,-0.20969 -0.6412,-0.6291c-0.13671,-0.42746 -0.20567,-1.16948 -0.20567,-2.22604c0,-1.29852 0.10525,-2.26234 0.31455,-2.89143c0.21777,-0.63717 0.49239,-0.95575 0.82267,-0.95575zM400.99298,176.29195h-0.24196c-0.0242,-0.35487 -0.01694,-0.68959 0.0242,-1.00414c0.03993,-0.32262 0.12461,-0.58071 0.25406,-0.77428c0.13671,-0.20164 0.33027,-0.30245 0.58071,-0.30245c0.22503,0 0.39077,0.07259 0.49602,0.21777c0.10404,0.14517 0.15727,0.34681 0.15727,0.60491c0,0.50812 -0.09678,0.94365 -0.29035,1.30659l-0.21777,-0.0242c0.43553,-0.15325 0.92671,-0.22987 1.47596,-0.22987c0.346,0 0.62063,0.06856 0.82267,0.20567c0.2093,0.12905 0.31455,0.35084 0.31455,0.66539c0,0.29842 -0.12098,0.52424 -0.36294,0.67749c-0.24196,0.15325 -0.54441,0.22987 -0.90735,0.22987c-0.21777,0 -0.45247,-0.00807 -0.70168,-0.0242c-0.24196,-0.0242 -0.48029,-0.06049 -0.71378,-0.10888l0.20567,-0.25406c0.07259,0.30648 0.14033,0.65733 0.20567,1.05253c0.07259,0.38714 0.13671,0.7904 0.19357,1.2098c0.05565,0.4194 0.10041,0.8267 0.13308,1.2219c0.03146,0.39521 0.04839,0.75008 0.04839,1.06463c0,0.51619 -0.08106,0.92348 -0.24196,1.2219c-0.16211,0.29842 -0.39924,0.44763 -0.71378,0.44763c-0.25043,0 -0.44763,-0.07662 -0.59281,-0.22987c-0.13792,-0.15325 -0.23833,-0.34682 -0.30245,-0.58071c-0.05686,-0.24196 -0.09315,-0.49199 -0.10888,-0.75008c-0.00847,-0.25809 -0.0121,-0.49199 -0.0121,-0.70168c0,-0.35487 0.01573,-0.75411 0.04839,-1.19771c0.03146,-0.45166 0.07622,-0.91543 0.13308,-1.39128c0.06412,-0.47586 0.13671,-0.93558 0.21777,-1.37918l0.24196,0.20567c-0.41134,0.20969 -0.91945,0.31455 -1.52436,0.31455c-0.37141,0 -0.65813,-0.06856 -0.85896,-0.20567c-0.20204,-0.13711 -0.30245,-0.35084 -0.30245,-0.6412c0,-0.31455 0.11251,-0.55651 0.33874,-0.72588c0.22503,-0.17744 0.52747,-0.26616 0.90735,-0.26616c0.24922,0 0.48392,0.01612 0.70168,0.04839c0.22503,0.0242 0.42343,0.05646 0.59281,0.09678zM410.63755,183.69596c-0.27342,0 -0.46336,-0.10485 -0.56861,-0.31455c-0.09678,-0.21777 -0.15243,-0.56054 -0.16937,-1.02833l0.12098,0.06049c-0.45126,0.87913 -1.30659,1.31869 -2.56478,1.31869c-0.57224,0 -1.04769,-0.10082 -1.42757,-0.30245c-0.37867,-0.20969 -0.66055,-0.48392 -0.84686,-0.82267c-0.17663,-0.34682 -0.26616,-0.72186 -0.26616,-1.12512c0,-0.69362 0.24196,-1.24207 0.72588,-1.64533c0.48392,-0.41134 1.12512,-0.617 1.92359,-0.617c0.52505,0 0.97994,0.07662 1.36708,0.22987c0.38714,0.15325 0.71862,0.36697 0.99204,0.6412l-0.20567,-0.0242c-0.05565,-0.8146 -0.23349,-1.39531 -0.53231,-1.74212c-0.29035,-0.35487 -0.70531,-0.53231 -1.2461,-0.53231c-0.31455,0 -0.60491,0.04839 -0.87106,0.14517c-0.26616,0.09678 -0.51175,0.19759 -0.73798,0.30245c-0.21777,0.09678 -0.42343,0.14517 -0.617,0.14517c-0.19357,0 -0.346,-0.06452 -0.45973,-0.19357c-0.10404,-0.12905 -0.15727,-0.29438 -0.15727,-0.49602c0,-0.29035 0.13792,-0.56458 0.41134,-0.82267c0.28309,-0.25809 0.65329,-0.46779 1.11302,-0.6291c0.45973,-0.1613 0.96059,-0.24196 1.50016,-0.24196c0.65329,0 1.21464,0.15727 1.68163,0.47182c0.46819,0.31455 0.82267,0.77428 1.06463,1.37918c0.21051,0.51619 0.35931,1.09285 0.44763,1.73002c0.08953,0.63717 0.13308,1.31869 0.13308,2.04457c0,0.54844 -0.02783,0.97187 -0.08469,1.27029c-0.05565,0.29842 -0.14517,0.50812 -0.26616,0.6291c-0.11251,0.11291 -0.26616,0.16937 -0.45973,0.16937zM407.96387,182.34098c0.26616,0 0.53715,-0.0363 0.81057,-0.10888c0.27463,-0.08066 0.50449,-0.19759 0.68959,-0.35084c0.18631,-0.15325 0.27826,-0.34277 0.27826,-0.56861c0,-0.19357 -0.07985,-0.35084 -0.24196,-0.47182c-0.15243,-0.12905 -0.3581,-0.22583 -0.617,-0.29035c-0.24922,-0.06452 -0.52021,-0.09678 -0.81057,-0.09678c-0.49118,0 -0.86622,0.08469 -1.12512,0.25406c-0.24922,0.16937 -0.37504,0.39521 -0.37504,0.67749c0,0.30648 0.11735,0.54441 0.35084,0.71378c0.24196,0.1613 0.58918,0.24196 1.04043,0.24196z"/></g></g></svg>