<svg xmlns="http://www.w3.org/2000/svg" fill="none" viewBox="0 0 45 16" height="16" width="45">
<rect stroke="black" fill="#E46D82" rx="4.5" height="15" width="44" y="0.5" x="0.5"></rect>
<path fill="black" d="M15.6552 6.325C15.7518 6.325 15.8252 6.35833 15.8752 6.425C15.9252 6.48833 15.9502 6.59333 15.9502 6.74C15.9502 6.92333 15.9285 7.13 15.8852 7.36C15.8418 7.59 15.7802 7.80833 15.7002 8.015L15.6202 7.915C15.8868 7.85833 16.1635 7.83167 16.4502 7.835C16.7368 7.83833 16.9968 7.87167 17.2302 7.935L17.1402 7.98C17.0968 7.75667 17.0635 7.535 17.0402 7.315C17.0202 7.095 17.0102 6.9 17.0102 6.73C17.0102 6.57333 17.0335 6.46167 17.0802 6.395C17.1268 6.32833 17.2018 6.295 17.3052 6.295C17.4118 6.295 17.4952 6.33333 17.5552 6.41C17.6152 6.48333 17.6618 6.6 17.6952 6.76C17.7318 6.92667 17.7602 7.12833 17.7802 7.365C17.8035 7.59833 17.8152 7.83833 17.8152 8.085C17.8152 8.32833 17.8085 8.57667 17.7952 8.83C17.7818 9.08333 17.7568 9.31833 17.7202 9.535C17.6902 9.70833 17.6418 9.83333 17.5752 9.91C17.5085 9.98667 17.4168 10.025 17.3002 10.025C17.1802 10.025 17.0935 9.98667 17.0402 9.91C16.9902 9.83333 16.9652 9.69 16.9652 9.48C16.9652 9.27667 16.9802 9.065 17.0102 8.845C17.0435 8.625 17.0885 8.40833 17.1452 8.195L17.2502 8.35C16.9968 8.40333 16.7318 8.43 16.4552 8.43C16.1818 8.42667 15.9152 8.4 15.6552 8.35L15.6652 8.18C15.7318 8.39667 15.7935 8.62 15.8502 8.85C15.9102 9.08 15.9402 9.31 15.9402 9.54C15.9402 9.72333 15.9085 9.85333 15.8452 9.93C15.7818 10.0033 15.6918 10.04 15.5752 10.04C15.4752 10.04 15.3952 10.0117 15.3352 9.955C15.2752 9.89833 15.2318 9.79333 15.2052 9.64C15.1785 9.49 15.1568 9.30333 15.1402 9.08C15.1235 8.85333 15.1152 8.615 15.1152 8.365C15.1152 8.06833 15.1285 7.78 15.1552 7.5C15.1818 7.22 15.2168 6.98 15.2602 6.78C15.2935 6.62333 15.3418 6.50833 15.4052 6.435C15.4685 6.36167 15.5518 6.325 15.6552 6.325ZM20.6345 10.05C20.5212 10.05 20.4429 10.0067 20.3995 9.92C20.3595 9.83 20.3362 9.68833 20.3295 9.495L20.3795 9.52C20.1929 9.88333 19.8395 10.065 19.3195 10.065C19.0829 10.065 18.8862 10.0233 18.7295 9.94C18.5729 9.85333 18.4562 9.74 18.3795 9.6C18.3062 9.45667 18.2695 9.30167 18.2695 9.135C18.2695 8.84833 18.3695 8.62167 18.5695 8.455C18.7695 8.285 19.0345 8.2 19.3645 8.2C19.5812 8.2 19.7695 8.23167 19.9295 8.295C20.0895 8.35833 20.2262 8.44667 20.3395 8.56L20.2545 8.55C20.2312 8.21333 20.1579 7.97333 20.0345 7.83C19.9145 7.68333 19.7429 7.61 19.5195 7.61C19.3895 7.61 19.2695 7.63 19.1595 7.67C19.0495 7.71 18.9479 7.75167 18.8545 7.795C18.7645 7.835 18.6795 7.855 18.5995 7.855C18.5195 7.855 18.4562 7.82833 18.4095 7.775C18.3662 7.72167 18.3445 7.65333 18.3445 7.57C18.3445 7.45 18.4012 7.33667 18.5145 7.23C18.6312 7.12333 18.7845 7.03667 18.9745 6.97C19.1645 6.90333 19.3712 6.87 19.5945 6.87C19.8645 6.87 20.0962 6.935 20.2895 7.065C20.4829 7.195 20.6295 7.385 20.7295 7.635C20.8162 7.84833 20.8779 8.08667 20.9145 8.35C20.9512 8.61333 20.9695 8.895 20.9695 9.195C20.9695 9.42167 20.9579 9.59667 20.9345 9.72C20.9112 9.84333 20.8745 9.93 20.8245 9.98C20.7779 10.0267 20.7145 10.05 20.6345 10.05ZM19.5295 9.49C19.6395 9.49 19.7512 9.475 19.8645 9.445C19.9779 9.41167 20.0729 9.36333 20.1495 9.3C20.2262 9.23667 20.2645 9.15833 20.2645 9.065C20.2645 8.985 20.2312 8.92 20.1645 8.87C20.1012 8.81667 20.0162 8.77667 19.9095 8.75C19.8062 8.72333 19.6945 8.71 19.5745 8.71C19.3712 8.71 19.2162 8.745 19.1095 8.815C19.0062 8.885 18.9545 8.97833 18.9545 9.095C18.9545 9.22167 19.0029 9.32 19.0995 9.39C19.1995 9.45667 19.3429 9.49 19.5295 9.49ZM21.9194 6.9C22.0094 6.9 22.0844 6.95333 22.1444 7.06C22.2044 7.16333 22.2461 7.32833 22.2694 7.555L22.1644 7.65C22.2244 7.41667 22.3361 7.23833 22.4994 7.115C22.6627 6.99167 22.8561 6.93 23.0794 6.93C23.2861 6.93 23.4694 6.98333 23.6294 7.09C23.7894 7.19667 23.9144 7.35833 24.0044 7.575C24.0977 7.78833 24.1444 8.05667 24.1444 8.38C24.1444 8.90333 24.0494 9.29 23.8594 9.54C23.6727 9.78667 23.4177 9.91 23.0944 9.91C22.8611 9.91 22.6777 9.86 22.5444 9.76C22.4111 9.66 22.3177 9.53833 22.2644 9.395L22.3244 9.365C22.3511 9.565 22.3727 9.76333 22.3894 9.96C22.4094 10.1533 22.4194 10.3233 22.4194 10.47C22.4194 10.62 22.3927 10.7467 22.3394 10.85C22.2861 10.9533 22.2011 11.005 22.0844 11.005C21.9711 11.005 21.8861 10.9617 21.8294 10.875C21.7727 10.7883 21.7311 10.6733 21.7044 10.53C21.6844 10.3833 21.6644 10.195 21.6444 9.965C21.6244 9.735 21.6077 9.48667 21.5944 9.22C21.5844 8.95333 21.5794 8.69333 21.5794 8.44C21.5794 8.18 21.5877 7.93667 21.6044 7.71C21.6244 7.48 21.6477 7.29333 21.6744 7.15C21.6977 7.06667 21.7277 7.005 21.7644 6.965C21.8044 6.92167 21.8561 6.9 21.9194 6.9ZM22.8744 7.505C22.6944 7.505 22.5494 7.595 22.4394 7.775C22.3327 7.95167 22.2794 8.17833 22.2794 8.455C22.2794 8.73833 22.3327 8.95 22.4394 9.09C22.5494 9.23 22.6911 9.3 22.8644 9.3C23.0644 9.3 23.2077 9.22167 23.2944 9.065C23.3844 8.905 23.4294 8.69833 23.4294 8.445C23.4294 8.12167 23.3744 7.885 23.2644 7.735C23.1544 7.58167 23.0244 7.505 22.8744 7.505ZM26.9007 9.97C26.8107 9.97 26.7407 9.94 26.6907 9.88C26.644 9.81667 26.6124 9.73667 26.5957 9.64C26.579 9.54 26.5707 9.435 26.5707 9.325L26.5957 9.305C26.5624 9.44833 26.4974 9.57167 26.4007 9.675C26.304 9.77833 26.1924 9.85833 26.0657 9.915C25.939 9.96833 25.8124 9.995 25.6857 9.995C25.5157 9.995 25.3607 9.955 25.2207 9.875C25.0807 9.795 24.9724 9.67167 24.8957 9.505C24.819 9.32833 24.759 9.10667 24.7157 8.84C24.6724 8.57 24.6507 8.29333 24.6507 8.01C24.6507 7.85667 24.6574 7.715 24.6707 7.585C24.684 7.455 24.7057 7.34833 24.7357 7.265C24.7624 7.17833 24.8024 7.115 24.8557 7.075C24.909 7.03167 24.9774 7.01 25.0607 7.01C25.1574 7.01 25.2324 7.04833 25.2857 7.125C25.3424 7.19833 25.3774 7.30167 25.3907 7.435C25.404 7.545 25.4124 7.68167 25.4157 7.845C25.4224 8.005 25.4274 8.16667 25.4307 8.33C25.4374 8.49 25.4457 8.625 25.4557 8.735C25.4757 8.935 25.5274 9.08333 25.6107 9.18C25.694 9.27333 25.7957 9.32 25.9157 9.32C26.0924 9.32 26.2274 9.25333 26.3207 9.12C26.414 8.98667 26.4607 8.8 26.4607 8.56C26.4607 8.44 26.454 8.305 26.4407 8.155C26.4274 8.00167 26.4124 7.85333 26.3957 7.71C26.3824 7.56667 26.3757 7.44833 26.3757 7.355C26.3757 7.19833 26.4024 7.08667 26.4557 7.02C26.509 6.95 26.5824 6.915 26.6757 6.915C26.7557 6.915 26.8224 6.93667 26.8757 6.98C26.9324 7.02333 26.9774 7.08333 27.0107 7.16C27.0574 7.26 27.0974 7.39667 27.1307 7.57C27.164 7.74333 27.1907 7.94 27.2107 8.16C27.2307 8.38 27.2407 8.61167 27.2407 8.855C27.2407 9.22833 27.2157 9.50833 27.1657 9.695C27.1157 9.87833 27.0274 9.97 26.9007 9.97ZM29.1139 6.87C29.4106 6.87 29.6239 6.91333 29.7539 7C29.8839 7.08667 29.9489 7.19833 29.9489 7.335C29.9489 7.415 29.9206 7.48167 29.8639 7.535C29.8106 7.585 29.7339 7.61 29.6339 7.61C29.5306 7.61 29.4223 7.595 29.3089 7.565C29.1989 7.535 29.0706 7.52 28.9239 7.52C28.7539 7.52 28.6273 7.55333 28.5439 7.62C28.4606 7.68667 28.4189 7.77167 28.4189 7.875C28.4189 7.97167 28.4556 8.04833 28.5289 8.105C28.6056 8.15833 28.7506 8.19833 28.9639 8.225C29.2006 8.25167 29.3956 8.295 29.5489 8.355C29.7056 8.41167 29.8223 8.49833 29.8989 8.615C29.9756 8.72833 30.0139 8.885 30.0139 9.085C30.0139 9.40167 29.9023 9.63667 29.6789 9.79C29.4556 9.94333 29.1473 10.02 28.7539 10.02C28.5039 10.02 28.3056 10 28.1589 9.96C28.0123 9.92 27.9056 9.86333 27.8389 9.79C27.7756 9.71667 27.7439 9.63 27.7439 9.53C27.7439 9.44333 27.7723 9.37667 27.8289 9.33C27.8889 9.28 27.9589 9.255 28.0389 9.255C28.1156 9.255 28.1973 9.265 28.2839 9.285C28.3706 9.30167 28.4623 9.32 28.5589 9.34C28.6556 9.36 28.7556 9.37 28.8589 9.37C29.1923 9.37 29.3589 9.26667 29.3589 9.06C29.3589 8.99 29.3423 8.93333 29.3089 8.89C29.2756 8.84667 29.2156 8.81167 29.1289 8.785C29.0423 8.755 28.9156 8.73167 28.7489 8.715C28.5489 8.695 28.3756 8.66167 28.2289 8.615C28.0823 8.565 27.9689 8.485 27.8889 8.375C27.8089 8.26167 27.7689 8.10667 27.7689 7.91C27.7689 7.6 27.8856 7.35 28.1189 7.16C28.3523 6.96667 28.6839 6.87 29.1139 6.87Z"></path>
</svg>
