<svg version="1.1" xmlns="http://www.w3.org/2000/svg" xmlns:xlink="http://www.w3.org/1999/xlink" width="54.1873" height="21.2904" viewBox="0,0,54.1873,21.2904"><g transform="translate(-212.90635,-169.3548)"><g data-paper-data="{&quot;isPaintingLayer&quot;:true}" fill-rule="nonzero" stroke-width="1" stroke-linecap="butt" stroke-linejoin="miter" stroke-miterlimit="10" stroke-dasharray="" stroke-dashoffset="0" style="mix-blend-mode: normal"><path d="M216.59152,169.8548h46.81695c1.75914,0 3.18517,1.27749 3.18517,2.85334v14.58372c0,1.57587 -1.42604,2.85334 -3.18517,2.85334h-46.81695c-1.75912,0 -3.18517,-1.27747 -3.18517,-2.85334v-14.58372c0,-1.57585 1.42605,-2.85334 3.18517,-2.85334z" fill="#a5a7a9" stroke="#000000"/><path d="M225.52922,183.51747c-0.18399,0 -0.32616,-0.05573 -0.42651,-0.16726c-0.10036,-0.11708 -0.17281,-0.30388 -0.21744,-0.56032c-0.039,-0.26206 -0.05854,-0.6105 -0.05854,-1.04537c0,-0.84185 0.04736,-1.56387 0.14217,-2.16601c0.09481,-0.60768 0.25644,-1.07882 0.48505,-1.41334c0.22299,-0.32334 0.50459,-0.55196 0.84466,-0.68576c0.34569,-0.13381 0.71921,-0.20071 1.12064,-0.20071c0.68021,0 1.18199,0.1589 1.50533,0.47669c0.32334,0.31779 0.48505,0.73313 0.48505,1.24608c0,0.45715 -0.11989,0.83075 -0.35961,1.12064c-0.23971,0.28989 -0.56313,0.49341 -0.9701,0.6105c-0.40142,0.11153 -0.85021,0.13936 -1.34644,0.08363v0.03345c0.93665,0.40142 1.6085,0.78057 2.01547,1.13736c0.4126,0.35124 0.61886,0.65512 0.61886,0.91156c0,0.15608 -0.05299,0.28153 -0.1589,0.37633c-0.10036,0.09481 -0.24253,0.14217 -0.42651,0.14217c-0.22299,0 -0.47388,-0.07527 -0.75267,-0.2258c-0.27879,-0.15053 -0.58822,-0.40142 -0.92829,-0.75267c-0.33452,-0.35124 -0.7053,-0.82512 -1.11227,-1.4217h-0.03345c0.0279,0.12263 0.05018,0.27598 0.0669,0.45996c0.02228,0.17844 0.039,0.36242 0.05018,0.55196c0.01673,0.18954 0.02509,0.36797 0.02509,0.53523c0,0.30662 -0.04463,0.54359 -0.13381,0.71085c-0.08363,0.16171 -0.22861,0.24253 -0.43487,0.24253zM226.98438,180.05521c0.23971,0 0.45715,-0.039 0.65231,-0.11708c0.19516,-0.08363 0.35124,-0.1979 0.46833,-0.34288c0.11708,-0.15053 0.17562,-0.32616 0.17562,-0.52687c0,-0.26206 -0.08918,-0.47114 -0.26761,-0.62722c-0.17844,-0.15608 -0.44605,-0.23416 -0.80284,-0.23416c-0.23971,0 -0.44324,0.05299 -0.6105,0.1589c-0.16726,0.10036 -0.29552,0.23416 -0.3847,0.40142c-0.08363,0.16726 -0.12544,0.34843 -0.12544,0.54359c0,0.21744 0.07245,0.39587 0.21744,0.53523c0.14498,0.13936 0.37078,0.20907 0.6774,0.20907zM232.54126,183.52584c-0.61886,0 -1.11227,-0.09199 -1.48024,-0.27598c-0.36797,-0.18399 -0.63285,-0.44879 -0.79448,-0.79448c-0.16171,-0.34569 -0.24253,-0.75822 -0.24253,-1.23772c0,-0.60768 0.11146,-1.12345 0.33452,-1.54715c0.22854,-0.42932 0.54078,-0.75822 0.93665,-0.98683c0.40142,-0.22861 0.85576,-0.34288 1.36316,-0.34288c0.59651,0 1.03419,0.13936 1.31298,0.41815c0.27871,0.27316 0.41815,0.63277 0.41815,1.07882c0,0.35679 -0.09481,0.66622 -0.28434,0.92829c-0.18399,0.25644 -0.4405,0.45441 -0.76939,0.59377c-0.32897,0.13936 -0.70811,0.20907 -1.13736,0.20907c-0.23979,0 -0.47114,-0.03064 -0.69413,-0.09199c-0.22306,-0.06135 -0.42377,-0.14498 -0.60213,-0.25089l0.20071,-0.36797c-0.01673,0.13381 -0.02509,0.26761 -0.02509,0.40142c0,0.39025 0.12263,0.67185 0.36797,0.84466c0.24526,0.16726 0.59377,0.25089 1.04537,0.25089c0.35124,0 0.63277,-0.03064 0.84466,-0.09199c0.21181,-0.06135 0.39025,-0.11989 0.53523,-0.17562c0.14491,-0.06135 0.28708,-0.09199 0.42651,-0.09199c0.078,0 0.14772,0.02228 0.20907,0.0669c0.0669,0.039 0.11982,0.09754 0.1589,0.17562c0.04455,0.07808 0.0669,0.17281 0.0669,0.28434c0,0.16726 -0.08363,0.32897 -0.25089,0.48505c-0.16726,0.15053 -0.41541,0.27598 -0.7443,0.37633c-0.32342,0.09481 -0.72203,0.14217 -1.1959,0.14217zM232.05621,180.79115c0.3958,0 0.71359,-0.08363 0.95338,-0.25089c0.23971,-0.16726 0.35961,-0.37352 0.35961,-0.61886c0,-0.19516 -0.0669,-0.35406 -0.20071,-0.47669c-0.12826,-0.12826 -0.33178,-0.19235 -0.6105,-0.19235c-0.26206,0 -0.49904,0.05018 -0.71085,0.15053c-0.20634,0.09481 -0.36797,0.22025 -0.48505,0.37633c-0.11708,0.15608 -0.17562,0.32616 -0.17562,0.51014c0,0.16171 0.07527,0.28715 0.2258,0.37633c0.15608,0.08363 0.37071,0.12544 0.64395,0.12544zM237.58314,178.22372c0.49615,0 0.85302,0.07245 1.07046,0.21744c0.21744,0.14498 0.32616,0.33171 0.32616,0.56032c0,0.13381 -0.04744,0.24534 -0.14217,0.33452c-0.08926,0.08363 -0.21744,0.12544 -0.3847,0.12544c-0.17289,0 -0.35406,-0.02509 -0.54359,-0.07527c-0.18399,-0.05018 -0.39869,-0.07527 -0.64395,-0.07527c-0.28434,0 -0.49623,0.05573 -0.63559,0.16726c-0.13943,0.11153 -0.20907,0.2537 -0.20907,0.42651c0,0.16171 0.06128,0.28989 0.18399,0.3847c0.12818,0.08918 0.37071,0.15608 0.72758,0.20071c0.3958,0.04463 0.72195,0.11708 0.97847,0.21744c0.26199,0.09481 0.45715,0.23971 0.58541,0.43487c0.12818,0.18954 0.19235,0.4516 0.19235,0.78612c0,0.52968 -0.1868,0.92274 -0.56032,1.17918c-0.3736,0.25644 -0.88929,0.3847 -1.54715,0.3847c-0.41815,0 -0.74993,-0.03345 -0.99519,-0.10036c-0.24534,-0.0669 -0.42377,-0.16171 -0.53523,-0.28434c-0.10598,-0.12263 -0.1589,-0.26761 -0.1589,-0.43487c0,-0.14498 0.04736,-0.25644 0.14217,-0.33452c0.10036,-0.08363 0.21744,-0.12544 0.35124,-0.12544c0.12818,0 0.2648,0.01673 0.40979,0.05018c0.14491,0.0279 0.29825,0.05854 0.45996,0.09199c0.16163,0.03345 0.32889,0.05018 0.50178,0.05018c0.55751,0 0.8363,-0.17281 0.8363,-0.5185c0,-0.11708 -0.0279,-0.21189 -0.08363,-0.28434c-0.0558,-0.07245 -0.15616,-0.13099 -0.30107,-0.17562c-0.14498,-0.05018 -0.35687,-0.08918 -0.63559,-0.11708c-0.33452,-0.03345 -0.62449,-0.08918 -0.86975,-0.16726c-0.24534,-0.08363 -0.43487,-0.21744 -0.56868,-0.40142c-0.13381,-0.18954 -0.20071,-0.44879 -0.20071,-0.77776c0,-0.5185 0.19509,-0.93665 0.58541,-1.25444c0.39025,-0.32334 0.94501,-0.48505 1.66423,-0.48505zM241.34799,178.42443h-0.16726c-0.01673,-0.24534 -0.01118,-0.47669 0.01673,-0.69413c0.02783,-0.22299 0.08637,-0.40142 0.17562,-0.53523c0.09473,-0.13936 0.22854,-0.20907 0.40142,-0.20907c0.15608,0 0.27035,0.05018 0.34288,0.15053c0.07245,0.10036 0.10872,0.23971 0.10872,0.41815c0,0.35124 -0.0669,0.65231 -0.20071,0.9032l-0.15053,-0.01673c0.30107,-0.10591 0.64114,-0.1589 1.02028,-0.1589c0.23971,0 0.42925,0.04736 0.56868,0.14217c0.14491,0.08918 0.21744,0.24253 0.21744,0.45996c0,0.20626 -0.08363,0.36242 -0.25089,0.46833c-0.16726,0.10591 -0.37633,0.1589 -0.62722,0.1589c-0.15053,0 -0.31224,-0.00555 -0.48505,-0.01673c-0.16726,-0.01673 -0.33178,-0.04181 -0.49341,-0.07527l0.14217,-0.17562c0.05018,0.21189 0.09754,0.45441 0.14217,0.72758c0.05018,0.26761 0.09473,0.54641 0.13381,0.8363c0.039,0.28989 0.06964,0.57149 0.09199,0.84466c0.02228,0.27316 0.03345,0.5185 0.03345,0.73594c0,0.35679 -0.0558,0.6384 -0.16726,0.84466c-0.11153,0.20626 -0.27598,0.30943 -0.49341,0.30943c-0.17289,0 -0.30943,-0.05299 -0.40979,-0.1589c-0.09481,-0.10591 -0.16452,-0.23971 -0.20907,-0.40142c-0.03908,-0.16726 -0.06417,-0.34007 -0.07527,-0.5185c-0.00563,-0.17844 -0.00836,-0.34007 -0.00836,-0.48505c0,-0.24534 0.0111,-0.52132 0.03345,-0.82793c0.02228,-0.31224 0.05291,-0.63277 0.09199,-0.96174c0.04455,-0.32897 0.09473,-0.64676 0.15053,-0.95338l0.16726,0.14217c-0.28434,0.14498 -0.63559,0.21744 -1.05373,0.21744c-0.25651,0 -0.45441,-0.04736 -0.59377,-0.14217c-0.13943,-0.09481 -0.20907,-0.24253 -0.20907,-0.44324c0,-0.21744 0.078,-0.3847 0.23416,-0.50178c0.15608,-0.12263 0.36516,-0.18399 0.62722,-0.18399c0.17281,0 0.33452,0.01118 0.48505,0.03345c0.15608,0.01673 0.2927,0.039 0.40979,0.0669zM248.0157,183.54256c-0.18954,0 -0.32053,-0.07245 -0.39306,-0.21744c-0.0669,-0.15053 -0.10591,-0.38751 -0.11708,-0.71085l0.08363,0.04181c-0.31217,0.60768 -0.9032,0.91156 -1.77295,0.91156c-0.3958,0 -0.72476,-0.06972 -0.98683,-0.20907c-0.26199,-0.14498 -0.45715,-0.33452 -0.58541,-0.56868c-0.12263,-0.23971 -0.18399,-0.49896 -0.18399,-0.77776c0,-0.4795 0.16726,-0.85857 0.50178,-1.13736c0.33452,-0.28434 0.77776,-0.42651 1.32971,-0.42651c0.36242,0 0.6774,0.05299 0.94501,0.1589c0.26761,0.10591 0.49623,0.2537 0.68576,0.44324l-0.14217,-0.01673c-0.039,-0.56313 -0.16163,-0.96455 -0.36797,-1.20427c-0.20071,-0.24534 -0.48779,-0.36797 -0.86139,-0.36797c-0.21744,0 -0.41815,0.03345 -0.60213,0.10036c-0.18399,0.0669 -0.35398,0.13662 -0.51014,0.20907c-0.15053,0.0669 -0.2927,0.10036 -0.42651,0.10036c-0.13381,0 -0.23971,-0.04463 -0.31779,-0.13381c-0.07245,-0.08918 -0.10872,-0.20352 -0.10872,-0.34288c0,-0.20071 0.09481,-0.39025 0.28434,-0.56868c0.19516,-0.17844 0.4516,-0.32334 0.76939,-0.43487c0.31779,-0.11153 0.66349,-0.16726 1.03701,-0.16726c0.4516,0 0.83911,0.10872 1.16245,0.32616c0.32342,0.21744 0.56868,0.53523 0.73594,0.95338c0.14498,0.35679 0.24815,0.75548 0.30943,1.1959c0.06135,0.44042 0.09199,0.91156 0.09199,1.41334c0,0.37915 -0.01946,0.67185 -0.05854,0.87811c-0.039,0.20626 -0.10036,0.35124 -0.18399,0.43487c-0.078,0.07808 -0.18399,0.11708 -0.31779,0.11708zM246.16749,182.60591c0.18399,0 0.37078,-0.02509 0.56032,-0.07527c0.18961,-0.05573 0.34851,-0.13662 0.47669,-0.24253c0.12826,-0.10591 0.19235,-0.23698 0.19235,-0.39306c0,-0.13381 -0.05573,-0.24253 -0.16726,-0.32616c-0.10591,-0.08918 -0.24808,-0.15608 -0.42651,-0.20071c-0.17281,-0.04463 -0.35961,-0.0669 -0.56032,-0.0669c-0.34007,0 -0.59932,0.05854 -0.77776,0.17562c-0.17281,0.11708 -0.25925,0.27316 -0.25925,0.46833c0,0.21189 0.08089,0.37633 0.24253,0.49341c0.16726,0.11153 0.40705,0.16726 0.71921,0.16726zM249.59615,179.68724c0,-0.53523 0.05018,-0.91993 0.15053,-1.15409c0.10036,-0.23971 0.24253,-0.35961 0.42651,-0.35961c0.14491,0 0.25925,0.06135 0.34288,0.18399c0.08363,0.11708 0.14491,0.2648 0.18399,0.44324c0.039,0.17281 0.05854,0.34843 0.05854,0.52687l-0.04181,-0.01673c0.09473,-0.30107 0.23971,-0.56032 0.43487,-0.77776c0.20071,-0.21744 0.44042,-0.32616 0.71921,-0.32616c0.32889,0 0.57142,0.13662 0.72758,0.40979c0.15608,0.26761 0.23416,0.60213 0.23416,1.00356c0,0.53523 -0.06135,0.90875 -0.18399,1.12064c-0.12271,0.21189 -0.28715,0.31779 -0.49341,0.31779c-0.15053,0 -0.26206,-0.06135 -0.33452,-0.18399c-0.0669,-0.12263 -0.08926,-0.34007 -0.0669,-0.65231c0.02228,-0.32897 0.00274,-0.55751 -0.05854,-0.68576c-0.06135,-0.12826 -0.1589,-0.19235 -0.2927,-0.19235c-0.16171,0 -0.29552,0.10317 -0.40142,0.30943c-0.10036,0.20071 -0.15053,0.44879 -0.15053,0.7443c0,0.11708 0.01391,0.2648 0.04181,0.44324c0.02783,0.17844 0.05854,0.37352 0.09199,0.58541c0.03345,0.20626 0.06409,0.4126 0.09199,0.61886c0.02783,0.20626 0.04181,0.39587 0.04181,0.56868c0,0.30662 -0.04744,0.52687 -0.14217,0.66067c-0.09481,0.13381 -0.22861,0.20071 -0.40142,0.20071c-0.19516,0 -0.34569,-0.06135 -0.4516,-0.18399c-0.10598,-0.12826 -0.1868,-0.33452 -0.24253,-0.61886c-0.04463,-0.25644 -0.08926,-0.56032 -0.13381,-0.91156c-0.04463,-0.35124 -0.08089,-0.71085 -0.10872,-1.07882c-0.0279,-0.36797 -0.04181,-0.69968 -0.04181,-0.99519zM254.98676,178.42443h-0.16726c-0.01673,-0.24534 -0.01118,-0.47669 0.01673,-0.69413c0.0279,-0.22299 0.08644,-0.40142 0.17562,-0.53523c0.09481,-0.13936 0.22861,-0.20907 0.40142,-0.20907c0.15608,0 0.27043,0.05018 0.34288,0.15053c0.07245,0.10036 0.10872,0.23971 0.10872,0.41815c0,0.35124 -0.0669,0.65231 -0.20071,0.9032l-0.15053,-0.01673c0.30107,-0.10591 0.64114,-0.1589 1.02028,-0.1589c0.23971,0 0.42932,0.04736 0.56868,0.14217c0.14498,0.08918 0.21744,0.24253 0.21744,0.45996c0,0.20626 -0.08363,0.36242 -0.25089,0.46833c-0.16726,0.10591 -0.37633,0.1589 -0.62722,0.1589c-0.15053,0 -0.31224,-0.00555 -0.48505,-0.01673c-0.16726,-0.01673 -0.33171,-0.04181 -0.49341,-0.07527l0.14217,-0.17562c0.05018,0.21189 0.09754,0.45441 0.14217,0.72758c0.05018,0.26761 0.09481,0.54641 0.13381,0.8363c0.039,0.28989 0.06972,0.57149 0.09199,0.84466c0.02228,0.27316 0.03345,0.5185 0.03345,0.73594c0,0.35679 -0.05573,0.6384 -0.16726,0.84466c-0.11153,0.20626 -0.27598,0.30943 -0.49341,0.30943c-0.17281,0 -0.30943,-0.05299 -0.40979,-0.1589c-0.09481,-0.10591 -0.16445,-0.23971 -0.20907,-0.40142c-0.039,-0.16726 -0.06409,-0.34007 -0.07527,-0.5185c-0.00555,-0.17844 -0.00836,-0.34007 -0.00836,-0.48505c0,-0.24534 0.01118,-0.52132 0.03345,-0.82793c0.02228,-0.31224 0.05299,-0.63277 0.09199,-0.96174c0.04463,-0.32897 0.09481,-0.64676 0.15053,-0.95338l0.16726,0.14217c-0.28434,0.14498 -0.63559,0.21744 -1.05373,0.21744c-0.25644,0 -0.45441,-0.04736 -0.59377,-0.14217c-0.13936,-0.09481 -0.20907,-0.24253 -0.20907,-0.44324c0,-0.21744 0.07808,-0.3847 0.23416,-0.50178c0.15608,-0.12263 0.36516,-0.18399 0.62722,-0.18399c0.17281,0 0.33452,0.01118 0.48505,0.03345c0.15608,0.01673 0.2927,0.039 0.40979,0.0669z" fill="#000000" stroke="none"/></g></g></svg>