<svg width="249" height="20" viewBox="0 0 249 20" fill="none" xmlns="http://www.w3.org/2000/svg">
<path d="M3.8 16.12C2.98667 16.12 2.38 16.0133 1.98 15.8C1.58 15.5867 1.24667 15.2 0.98 14.64C0.793333 14.2133 0.633333 13.52 0.5 12.56C0.38 11.5867 0.32 10.3267 0.32 8.78C0.32 7.7 0.34 6.66667 0.38 5.68C0.433333 4.69333 0.506667 3.93333 0.6 3.4C0.706667 2.72 0.88 2.23333 1.12 1.94C1.37333 1.64667 1.68667 1.5 2.06 1.5C2.39333 1.5 2.65333 1.64667 2.84 1.94C3.04 2.23333 3.18 2.63333 3.26 3.14C3.34 3.63333 3.38 4.18 3.38 4.78C3.38 6.40667 3.32 8.05333 3.2 9.72C3.09333 11.3867 2.94 12.92 2.74 14.32L2.48 13.96C3.08 13.5467 3.72 13.1933 4.4 12.9C5.09333 12.6067 5.76667 12.38 6.42 12.22C7.08667 12.06 7.66667 11.98 8.16 11.98C8.65333 11.98 9.01333 12.08 9.24 12.28C9.48 12.48 9.6 12.7667 9.6 13.14C9.6 13.5133 9.43333 13.8933 9.1 14.28C8.78 14.6533 8.32 14.98 7.72 15.26C7.38667 15.42 6.99333 15.5667 6.54 15.7C6.08667 15.82 5.62 15.92 5.14 16C4.67333 16.08 4.22667 16.12 3.8 16.12ZM19.9952 16.2C19.5418 16.2 19.2285 16.0267 19.0552 15.68C18.8952 15.32 18.8018 14.7533 18.7752 13.98L18.9752 14.08C18.2285 15.5333 16.8152 16.26 14.7352 16.26C13.7885 16.26 13.0018 16.0933 12.3752 15.76C11.7485 15.4133 11.2818 14.96 10.9752 14.4C10.6818 13.8267 10.5352 13.2067 10.5352 12.54C10.5352 11.3933 10.9352 10.4867 11.7352 9.82C12.5352 9.14 13.5952 8.8 14.9152 8.8C15.7818 8.8 16.5352 8.92667 17.1752 9.18C17.8152 9.43333 18.3618 9.78667 18.8152 10.24L18.4752 10.2C18.3818 8.85333 18.0885 7.89333 17.5952 7.32C17.1152 6.73333 16.4285 6.44 15.5352 6.44C15.0152 6.44 14.5352 6.52 14.0952 6.68C13.6552 6.84 13.2485 7.00667 12.8752 7.18C12.5152 7.34 12.1752 7.42 11.8552 7.42C11.5352 7.42 11.2818 7.31333 11.0952 7.1C10.9218 6.88667 10.8352 6.61333 10.8352 6.28C10.8352 5.8 11.0618 5.34667 11.5152 4.92C11.9818 4.49333 12.5952 4.14667 13.3552 3.88C14.1152 3.61333 14.9418 3.48 15.8352 3.48C16.9152 3.48 17.8418 3.74 18.6152 4.26C19.3885 4.78 19.9752 5.54 20.3752 6.54C20.7218 7.39333 20.9685 8.34667 21.1152 9.4C21.2618 10.4533 21.3352 11.58 21.3352 12.78C21.3352 13.6867 21.2885 14.3867 21.1952 14.88C21.1018 15.3733 20.9552 15.72 20.7552 15.92C20.5685 16.1067 20.3152 16.2 19.9952 16.2ZM15.5752 13.96C16.0152 13.96 16.4618 13.9 16.9152 13.78C17.3685 13.6467 17.7485 13.4533 18.0552 13.2C18.3618 12.9467 18.5152 12.6333 18.5152 12.26C18.5152 11.94 18.3818 11.68 18.1152 11.48C17.8618 11.2667 17.5218 11.1067 17.0952 11C16.6818 10.8933 16.2352 10.84 15.7552 10.84C14.9418 10.84 14.3218 10.98 13.8952 11.26C13.4818 11.54 13.2752 11.9133 13.2752 12.38C13.2752 12.8867 13.4685 13.28 13.8552 13.56C14.2552 13.8267 14.8285 13.96 15.5752 13.96ZM26.5492 3.96H26.1492C26.1092 3.37333 26.1226 2.82 26.1892 2.3C26.2559 1.76667 26.3959 1.34 26.6092 1.02C26.8359 0.686666 27.1559 0.519999 27.5692 0.519999C27.9426 0.519999 28.2159 0.639999 28.3892 0.879999C28.5626 1.12 28.6492 1.45333 28.6492 1.88C28.6492 2.72 28.4892 3.44 28.1692 4.04L27.8092 4C28.5292 3.74667 29.3426 3.62 30.2492 3.62C30.8226 3.62 31.2759 3.73333 31.6092 3.96C31.9559 4.17333 32.1292 4.54 32.1292 5.06C32.1292 5.55333 31.9292 5.92667 31.5292 6.18C31.1292 6.43333 30.6292 6.56 30.0292 6.56C29.6692 6.56 29.2826 6.54667 28.8692 6.52C28.4692 6.48 28.0759 6.42 27.6892 6.34L28.0292 5.92C28.1492 6.42667 28.2626 7.00667 28.3692 7.66C28.4892 8.3 28.5959 8.96667 28.6892 9.66C28.7826 10.3533 28.8559 11.0267 28.9092 11.68C28.9626 12.3333 28.9892 12.92 28.9892 13.44C28.9892 14.2933 28.8559 14.9667 28.5892 15.46C28.3226 15.9533 27.9292 16.2 27.4092 16.2C26.9959 16.2 26.6692 16.0733 26.4292 15.82C26.2026 15.5667 26.0359 15.2467 25.9292 14.86C25.8359 14.46 25.7759 14.0467 25.7492 13.62C25.7359 13.1933 25.7292 12.8067 25.7292 12.46C25.7292 11.8733 25.7559 11.2133 25.8092 10.48C25.8626 9.73333 25.9359 8.96667 26.0292 8.18C26.1359 7.39333 26.2559 6.63333 26.3892 5.9L26.7892 6.24C26.1092 6.58667 25.2692 6.76 24.2692 6.76C23.6559 6.76 23.1826 6.64667 22.8492 6.42C22.5159 6.19333 22.3492 5.84 22.3492 5.36C22.3492 4.84 22.5359 4.44 22.9092 4.16C23.2826 3.86667 23.7826 3.72 24.4092 3.72C24.8226 3.72 25.2092 3.74667 25.5692 3.8C25.9426 3.84 26.2692 3.89333 26.5492 3.96ZM35.5152 0.66C36.0485 0.66 36.4285 0.806666 36.6552 1.1C36.8952 1.39333 37.0152 1.73333 37.0152 2.12C37.0152 2.6 36.8685 2.97333 36.5752 3.24C36.2952 3.49333 35.8952 3.62 35.3752 3.62C34.8685 3.62 34.4885 3.48 34.2352 3.2C33.9818 2.90667 33.8552 2.56667 33.8552 2.18C33.8552 1.67333 34.0085 1.29333 34.3152 1.04C34.6218 0.786666 35.0218 0.66 35.5152 0.66ZM35.6352 5.12C36.0618 5.12 36.3952 5.52 36.6352 6.32C36.8885 7.12 37.0152 8.39333 37.0152 10.14C37.0152 12.2867 36.8618 13.8333 36.5552 14.78C36.2485 15.7267 35.7818 16.2 35.1552 16.2C34.6752 16.2 34.3218 15.8533 34.0952 15.16C33.8685 14.4533 33.7552 13.2267 33.7552 11.48C33.7552 9.33333 33.9285 7.74 34.2752 6.7C34.6352 5.64667 35.0885 5.12 35.6352 5.12ZM41.5183 0.159999C41.9449 0.159999 42.2383 0.326666 42.3983 0.66C42.5716 0.993333 42.6583 1.49333 42.6583 2.16C42.6583 2.73333 42.6249 3.45333 42.5583 4.32C42.4916 5.18667 42.4049 6.02 42.2983 6.82H42.1783C42.6183 5.99333 43.1849 5.32667 43.8783 4.82C44.5716 4.31333 45.3049 4.06 46.0783 4.06C46.7583 4.06 47.3649 4.22667 47.8983 4.56C48.4316 4.88 48.8649 5.38667 49.1983 6.08C49.5049 6.70667 49.7316 7.45333 49.8783 8.32C50.0249 9.17333 50.0983 9.98667 50.0983 10.76C50.0983 12 50.0116 12.9867 49.8383 13.72C49.6783 14.4533 49.4516 14.9867 49.1583 15.32C48.8649 15.64 48.5183 15.8 48.1183 15.8C47.2783 15.8 46.8583 15.1133 46.8583 13.74C46.8583 13.0733 46.8916 12.3867 46.9583 11.68C47.0383 10.9733 47.0783 10.3267 47.0783 9.74C47.0783 8.74 46.9183 7.99333 46.5983 7.5C46.2916 6.99333 45.8449 6.74 45.2583 6.74C44.5249 6.74 43.9316 7.06667 43.4783 7.72C43.0249 8.37333 42.7983 9.27333 42.7983 10.42C42.7983 11.02 42.8516 11.68 42.9583 12.4C43.0649 13.1067 43.1183 13.7533 43.1183 14.34C43.1183 14.9933 42.9916 15.4667 42.7383 15.76C42.4983 16.04 42.1849 16.18 41.7983 16.18C41.5049 16.18 41.2449 16.12 41.0183 16C40.8049 15.8933 40.6183 15.6733 40.4583 15.34C40.3116 14.9933 40.1849 14.48 40.0783 13.8C39.9983 13.28 39.9183 12.6733 39.8383 11.98C39.7583 11.2867 39.6916 10.56 39.6383 9.8C39.5849 9.04 39.5383 8.3 39.4983 7.58C39.4716 6.84667 39.4583 6.18 39.4583 5.58C39.4583 3.68667 39.6383 2.31333 39.9983 1.46C40.3583 0.593332 40.8649 0.159999 41.5183 0.159999ZM61.2842 16.2C60.8309 16.2 60.5176 16.0267 60.3442 15.68C60.1842 15.32 60.0909 14.7533 60.0642 13.98L60.2642 14.08C59.5176 15.5333 58.1042 16.26 56.0242 16.26C55.0776 16.26 54.2909 16.0933 53.6642 15.76C53.0376 15.4133 52.5709 14.96 52.2642 14.4C51.9709 13.8267 51.8242 13.2067 51.8242 12.54C51.8242 11.3933 52.2242 10.4867 53.0242 9.82C53.8242 9.14 54.8842 8.8 56.2042 8.8C57.0709 8.8 57.8242 8.92667 58.4642 9.18C59.1042 9.43333 59.6509 9.78667 60.1042 10.24L59.7642 10.2C59.6709 8.85333 59.3776 7.89333 58.8842 7.32C58.4042 6.73333 57.7176 6.44 56.8242 6.44C56.3042 6.44 55.8242 6.52 55.3842 6.68C54.9442 6.84 54.5376 7.00667 54.1642 7.18C53.8042 7.34 53.4642 7.42 53.1442 7.42C52.8242 7.42 52.5709 7.31333 52.3842 7.1C52.2109 6.88667 52.1242 6.61333 52.1242 6.28C52.1242 5.8 52.3509 5.34667 52.8042 4.92C53.2709 4.49333 53.8842 4.14667 54.6442 3.88C55.4042 3.61333 56.2309 3.48 57.1242 3.48C58.2042 3.48 59.1309 3.74 59.9042 4.26C60.6776 4.78 61.2642 5.54 61.6642 6.54C62.0109 7.39333 62.2576 8.34667 62.4042 9.4C62.5509 10.4533 62.6242 11.58 62.6242 12.78C62.6242 13.6867 62.5776 14.3867 62.4842 14.88C62.3909 15.3733 62.2442 15.72 62.0442 15.92C61.8576 16.1067 61.6042 16.2 61.2842 16.2ZM56.8642 13.96C57.3042 13.96 57.7509 13.9 58.2042 13.78C58.6576 13.6467 59.0376 13.4533 59.3442 13.2C59.6509 12.9467 59.8042 12.6333 59.8042 12.26C59.8042 11.94 59.6709 11.68 59.4042 11.48C59.1509 11.2667 58.8109 11.1067 58.3842 11C57.9709 10.8933 57.5242 10.84 57.0442 10.84C56.2309 10.84 55.6109 10.98 55.1842 11.26C54.7709 11.54 54.5642 11.9133 54.5642 12.38C54.5642 12.8867 54.7576 13.28 55.1442 13.56C55.5442 13.8267 56.1176 13.96 56.8642 13.96ZM67.1038 3.56C67.5304 3.56 67.8171 3.73333 67.9638 4.08C68.1238 4.42667 68.2038 4.94 68.2038 5.62C68.2038 5.78 68.1904 5.95333 68.1638 6.14C68.1504 6.31333 68.1238 6.47333 68.0838 6.62L68.0438 6.22C68.3638 5.35333 68.8571 4.68 69.5238 4.2C70.1904 3.70667 70.8971 3.46 71.6438 3.46C72.4704 3.46 73.1571 3.69333 73.7038 4.16C74.2638 4.62667 74.6771 5.28 74.9438 6.12C75.2238 6.96 75.3638 7.95333 75.3638 9.1C75.3638 9.80667 75.3304 10.5067 75.2638 11.2C75.2104 11.88 75.1304 12.5067 75.0238 13.08C74.9304 13.64 74.8238 14.1 74.7038 14.46C74.5438 14.9133 74.3371 15.2533 74.0838 15.48C73.8304 15.6933 73.5304 15.8 73.1838 15.8C72.8371 15.8 72.5704 15.6733 72.3838 15.42C72.1971 15.1667 72.1038 14.8267 72.1038 14.4C72.1038 13.9467 72.1371 13.4 72.2038 12.76C72.2704 12.1067 72.3304 11.4467 72.3838 10.78C72.4504 10.1 72.4838 9.48667 72.4838 8.94C72.4838 7.07333 71.8704 6.14 70.6438 6.14C69.9904 6.14 69.4438 6.43333 69.0038 7.02C68.5638 7.59333 68.2704 8.41333 68.1238 9.48C68.0838 9.84 68.0638 10.2867 68.0638 10.82C68.0638 11.3533 68.0638 11.8867 68.0638 12.42C68.0771 12.94 68.0638 13.38 68.0238 13.74C67.9704 14.54 67.8171 15.1133 67.5638 15.46C67.3238 15.8067 66.9904 15.98 66.5638 15.98C66.0704 15.98 65.6971 15.7533 65.4438 15.3C65.1904 14.8333 65.0638 14.0533 65.0638 12.96C65.0638 12.4 65.0771 11.7733 65.1038 11.08C65.1304 10.3867 65.1638 9.69333 65.2038 9C65.2571 8.29333 65.3171 7.65333 65.3838 7.08C65.5171 6 65.7104 5.14667 65.9638 4.52C66.2171 3.88 66.5971 3.56 67.1038 3.56ZM83.222 16.2C82.982 16.2 82.7887 16.12 82.642 15.96C82.4954 15.7867 82.3754 15.5133 82.282 15.14C82.1887 14.7133 82.102 14.0467 82.022 13.14C81.942 12.22 81.902 11.1933 81.902 10.06C81.902 8.83333 81.9354 7.64 82.002 6.48C82.082 5.30667 82.1954 4.27333 82.342 3.38C82.4487 2.79333 82.602 2.36 82.802 2.08C83.0154 1.78667 83.3087 1.64 83.682 1.64C83.922 1.64 84.1354 1.72 84.322 1.88C84.5087 2.04 84.6487 2.32667 84.742 2.74C84.8487 3.15333 84.902 3.74 84.902 4.5C84.902 4.87333 84.8887 5.3 84.862 5.78C84.8354 6.24667 84.7954 6.76667 84.742 7.34H84.822C85.8887 5.87333 86.8287 4.70667 87.642 3.84C88.4554 2.96 89.1687 2.32667 89.782 1.94C90.4087 1.55333 90.9554 1.36 91.422 1.36C91.7954 1.36 92.0754 1.48 92.262 1.72C92.462 1.96 92.562 2.25333 92.562 2.6C92.562 3.33333 92.0087 4.21333 90.902 5.24C89.8087 6.26667 88.042 7.5 85.602 8.94L85.762 8.56C87.8687 9.89333 89.462 11.0733 90.542 12.1C91.622 13.1133 92.162 14.0133 92.162 14.8C92.162 15.1467 92.0487 15.4333 91.822 15.66C91.6087 15.8733 91.2887 15.98 90.862 15.98C90.3287 15.98 89.762 15.8 89.162 15.44C88.562 15.0667 87.8954 14.4467 87.162 13.58C86.442 12.7 85.622 11.5067 84.702 10H84.622C84.6487 10.3067 84.6687 10.6267 84.682 10.96C84.6954 11.28 84.702 11.6 84.702 11.92C84.702 13.4533 84.5954 14.5533 84.382 15.22C84.1687 15.8733 83.782 16.2 83.222 16.2ZM99.863 16.16C98.383 16.16 97.203 15.94 96.323 15.5C95.443 15.06 94.8096 14.4267 94.423 13.6C94.0363 12.7733 93.843 11.7867 93.843 10.64C93.843 9.18667 94.1096 7.95333 94.643 6.94C95.1896 5.91333 95.9363 5.12667 96.883 4.58C97.843 4.03333 98.9296 3.76 100.143 3.76C101.57 3.76 102.616 4.09333 103.283 4.76C103.95 5.41333 104.283 6.27333 104.283 7.34C104.283 8.19333 104.056 8.93333 103.603 9.56C103.163 10.1733 102.55 10.6467 101.763 10.98C100.976 11.3133 100.07 11.48 99.043 11.48C98.4696 11.48 97.9163 11.4067 97.383 11.26C96.8496 11.1133 96.3696 10.9133 95.943 10.66L96.423 9.78C96.383 10.1 96.363 10.42 96.363 10.74C96.363 11.6733 96.6563 12.3467 97.243 12.76C97.8296 13.16 98.663 13.36 99.743 13.36C100.583 13.36 101.256 13.2867 101.763 13.14C102.27 12.9933 102.696 12.8533 103.043 12.72C103.39 12.5733 103.73 12.5 104.063 12.5C104.25 12.5 104.416 12.5533 104.563 12.66C104.723 12.7533 104.85 12.8933 104.943 13.08C105.05 13.2667 105.103 13.4933 105.103 13.76C105.103 14.16 104.903 14.5467 104.503 14.92C104.103 15.28 103.51 15.58 102.723 15.82C101.95 16.0467 100.996 16.16 99.863 16.16ZM98.703 9.62C99.6496 9.62 100.41 9.42 100.983 9.02C101.556 8.62 101.843 8.12667 101.843 7.54C101.843 7.07333 101.683 6.69333 101.363 6.4C101.056 6.09333 100.57 5.94 99.903 5.94C99.2763 5.94 98.7096 6.06 98.203 6.3C97.7096 6.52667 97.323 6.82667 97.043 7.2C96.763 7.57333 96.623 7.98 96.623 8.42C96.623 8.80667 96.803 9.10667 97.163 9.32C97.5363 9.52 98.0496 9.62 98.703 9.62ZM109.021 16.04C108.607 16.04 108.281 15.9467 108.041 15.76C107.801 15.56 107.607 15.2333 107.461 14.78C107.261 14.1133 107.107 13.2733 107.001 12.26C106.907 11.2333 106.861 9.97333 106.861 8.48C106.861 7.56 106.894 6.64 106.961 5.72C107.041 4.78667 107.141 3.94 107.261 3.18C107.381 2.40667 107.507 1.80667 107.641 1.38C107.787 0.926666 107.961 0.613332 108.161 0.439999C108.361 0.266666 108.587 0.18 108.841 0.18C109.107 0.18 109.321 0.273333 109.481 0.46C109.641 0.633332 109.767 0.946666 109.861 1.4C109.941 1.84 110.001 2.38 110.041 3.02C110.094 3.66 110.121 4.34667 110.121 5.08C110.121 6.08 110.074 7.13333 109.981 8.24C109.887 9.34667 109.761 10.4333 109.601 11.5C109.454 12.5667 109.274 13.5467 109.061 14.44L108.501 14.16C108.847 13.7333 109.241 13.4 109.681 13.16C110.134 12.92 110.547 12.8 110.921 12.8C111.227 12.8 111.461 12.8867 111.621 13.06C111.794 13.22 111.881 13.4733 111.881 13.82C111.881 14.1667 111.727 14.5133 111.421 14.86C111.127 15.2067 110.761 15.4933 110.321 15.72C109.881 15.9333 109.447 16.04 109.021 16.04ZM115.457 0.66C115.99 0.66 116.37 0.806666 116.597 1.1C116.837 1.39333 116.957 1.73333 116.957 2.12C116.957 2.6 116.81 2.97333 116.517 3.24C116.237 3.49333 115.837 3.62 115.317 3.62C114.81 3.62 114.43 3.48 114.177 3.2C113.923 2.90667 113.797 2.56667 113.797 2.18C113.797 1.67333 113.95 1.29333 114.257 1.04C114.563 0.786666 114.963 0.66 115.457 0.66ZM115.577 5.12C116.003 5.12 116.337 5.52 116.577 6.32C116.83 7.12 116.957 8.39333 116.957 10.14C116.957 12.2867 116.803 13.8333 116.497 14.78C116.19 15.7267 115.723 16.2 115.097 16.2C114.617 16.2 114.263 15.8533 114.037 15.16C113.81 14.4533 113.697 13.2267 113.697 11.48C113.697 9.33333 113.87 7.74 114.217 6.7C114.577 5.64667 115.03 5.12 115.577 5.12ZM121.56 16.04C121.146 16.04 120.82 15.9467 120.58 15.76C120.34 15.56 120.146 15.2333 120 14.78C119.8 14.1133 119.646 13.2733 119.54 12.26C119.446 11.2333 119.4 9.97333 119.4 8.48C119.4 7.56 119.433 6.64 119.5 5.72C119.58 4.78667 119.68 3.94 119.8 3.18C119.92 2.40667 120.046 1.80667 120.18 1.38C120.326 0.926666 120.5 0.613332 120.7 0.439999C120.9 0.266666 121.126 0.18 121.38 0.18C121.646 0.18 121.86 0.273333 122.02 0.46C122.18 0.633332 122.306 0.946666 122.4 1.4C122.48 1.84 122.54 2.38 122.58 3.02C122.633 3.66 122.66 4.34667 122.66 5.08C122.66 6.08 122.613 7.13333 122.52 8.24C122.426 9.34667 122.3 10.4333 122.14 11.5C121.993 12.5667 121.813 13.5467 121.6 14.44L121.04 14.16C121.386 13.7333 121.78 13.4 122.22 13.16C122.673 12.92 123.086 12.8 123.46 12.8C123.766 12.8 124 12.8867 124.16 13.06C124.333 13.22 124.42 13.4733 124.42 13.82C124.42 14.1667 124.266 14.5133 123.96 14.86C123.666 15.2067 123.3 15.4933 122.86 15.72C122.42 15.9333 121.986 16.04 121.56 16.04ZM127.996 0.66C128.529 0.66 128.909 0.806666 129.136 1.1C129.376 1.39333 129.496 1.73333 129.496 2.12C129.496 2.6 129.349 2.97333 129.056 3.24C128.776 3.49333 128.376 3.62 127.856 3.62C127.349 3.62 126.969 3.48 126.716 3.2C126.462 2.90667 126.336 2.56667 126.336 2.18C126.336 1.67333 126.489 1.29333 126.796 1.04C127.102 0.786666 127.502 0.66 127.996 0.66ZM128.116 5.12C128.542 5.12 128.876 5.52 129.116 6.32C129.369 7.12 129.496 8.39333 129.496 10.14C129.496 12.2867 129.342 13.8333 129.036 14.78C128.729 15.7267 128.262 16.2 127.636 16.2C127.156 16.2 126.802 15.8533 126.576 15.16C126.349 14.4533 126.236 13.2267 126.236 11.48C126.236 9.33333 126.409 7.74 126.756 6.7C127.116 5.64667 127.569 5.12 128.116 5.12ZM133.979 3.56C134.405 3.56 134.692 3.73333 134.839 4.08C134.999 4.42667 135.079 4.94 135.079 5.62C135.079 5.78 135.065 5.95333 135.039 6.14C135.025 6.31333 134.999 6.47333 134.959 6.62L134.919 6.22C135.239 5.35333 135.732 4.68 136.399 4.2C137.065 3.70667 137.772 3.46 138.519 3.46C139.345 3.46 140.032 3.69333 140.579 4.16C141.139 4.62667 141.552 5.28 141.819 6.12C142.099 6.96 142.239 7.95333 142.239 9.1C142.239 9.80667 142.205 10.5067 142.139 11.2C142.085 11.88 142.005 12.5067 141.899 13.08C141.805 13.64 141.699 14.1 141.579 14.46C141.419 14.9133 141.212 15.2533 140.959 15.48C140.705 15.6933 140.405 15.8 140.059 15.8C139.712 15.8 139.445 15.6733 139.259 15.42C139.072 15.1667 138.979 14.8267 138.979 14.4C138.979 13.9467 139.012 13.4 139.079 12.76C139.145 12.1067 139.205 11.4467 139.259 10.78C139.325 10.1 139.359 9.48667 139.359 8.94C139.359 7.07333 138.745 6.14 137.519 6.14C136.865 6.14 136.319 6.43333 135.879 7.02C135.439 7.59333 135.145 8.41333 134.999 9.48C134.959 9.84 134.939 10.2867 134.939 10.82C134.939 11.3533 134.939 11.8867 134.939 12.42C134.952 12.94 134.939 13.38 134.899 13.74C134.845 14.54 134.692 15.1133 134.439 15.46C134.199 15.8067 133.865 15.98 133.439 15.98C132.945 15.98 132.572 15.7533 132.319 15.3C132.065 14.8333 131.939 14.0533 131.939 12.96C131.939 12.4 131.952 11.7733 131.979 11.08C132.005 10.3867 132.039 9.69333 132.079 9C132.132 8.29333 132.192 7.65333 132.259 7.08C132.392 6 132.585 5.14667 132.839 4.52C133.092 3.88 133.472 3.56 133.979 3.56ZM148.493 15.68C147.24 15.68 146.22 15.2 145.433 14.24C144.646 13.2667 144.253 11.7933 144.253 9.82C144.253 7.71333 144.633 6.17333 145.393 5.2C146.153 4.22667 147.153 3.74 148.393 3.74C149.126 3.74 149.773 3.92667 150.333 4.3C150.893 4.67333 151.373 5.2 151.773 5.88L151.613 6.16C151.573 5.97333 151.54 5.77333 151.513 5.56C151.486 5.34667 151.473 5.18667 151.473 5.08C151.473 4.53333 151.56 4.11333 151.733 3.82C151.92 3.51333 152.206 3.36 152.593 3.36C153.02 3.36 153.353 3.53333 153.593 3.88C153.846 4.22667 154.04 4.72 154.173 5.36C154.346 6.01333 154.493 6.84667 154.613 7.86C154.733 8.86 154.793 9.87333 154.793 10.9C154.793 12.18 154.746 13.2533 154.653 14.12C154.56 14.9867 154.406 15.7067 154.193 16.28C153.98 16.8533 153.7 17.3533 153.353 17.78C152.78 18.4733 152.04 19 151.133 19.36C150.24 19.7333 149.206 19.92 148.033 19.92C147.193 19.92 146.52 19.84 146.013 19.68C145.506 19.5333 145.14 19.3267 144.913 19.06C144.7 18.8067 144.593 18.52 144.593 18.2C144.593 17.8667 144.686 17.5867 144.873 17.36C145.06 17.1467 145.34 17.04 145.713 17.04C146.046 17.04 146.433 17.0933 146.873 17.2C147.326 17.3067 147.86 17.36 148.473 17.36C149.766 17.36 150.68 17.0533 151.213 16.44C151.76 15.84 152.033 14.9733 152.033 13.84C152.033 13.5333 152.013 13.1733 151.973 12.76L152.253 12.86C151.92 13.7133 151.426 14.4 150.773 14.92C150.12 15.4267 149.36 15.68 148.493 15.68ZM149.253 13.22C149.68 13.22 150.106 13.1067 150.533 12.88C150.96 12.6533 151.313 12.28 151.593 11.76C151.873 11.24 152.013 10.54 152.013 9.66C152.013 8.60667 151.766 7.74667 151.273 7.08C150.78 6.41333 150.086 6.08 149.193 6.08C148.42 6.08 147.853 6.37333 147.493 6.96C147.133 7.54667 146.953 8.43333 146.953 9.62C146.953 10.7533 147.133 11.64 147.493 12.28C147.853 12.9067 148.44 13.22 149.253 13.22ZM164.976 16.28C163.669 16.28 162.649 15.7933 161.916 14.82C161.182 13.8333 160.816 12.3333 160.816 10.32C160.816 8.32 161.176 6.86 161.896 5.94C162.629 5.00667 163.676 4.54 165.036 4.54C165.809 4.54 166.482 4.7 167.056 5.02C167.642 5.34 168.162 5.79333 168.616 6.38L168.456 6.46C168.336 5.91333 168.216 5.33333 168.096 4.72C167.976 4.10667 167.876 3.52667 167.796 2.98C167.729 2.42 167.696 1.98 167.696 1.66C167.696 1.20667 167.769 0.859999 167.916 0.619999C168.062 0.366666 168.296 0.239999 168.616 0.239999C169.069 0.239999 169.436 0.433332 169.716 0.819999C169.996 1.19333 170.229 1.77333 170.416 2.56C170.589 3.26667 170.742 4.10667 170.876 5.08C171.009 6.04 171.116 7.04667 171.196 8.1C171.289 9.14 171.336 10.14 171.336 11.1C171.336 12.4333 171.262 13.4733 171.116 14.22C170.982 14.9533 170.789 15.4667 170.536 15.76C170.296 16.0533 170.009 16.2 169.676 16.2C169.262 16.2 168.982 15.9933 168.836 15.58C168.689 15.1667 168.629 14.4933 168.656 13.56H168.956C168.596 14.3867 168.069 15.0467 167.376 15.54C166.696 16.0333 165.896 16.28 164.976 16.28ZM166.036 13.8C166.516 13.8 166.956 13.68 167.356 13.44C167.769 13.1867 168.096 12.8 168.336 12.28C168.589 11.76 168.716 11.1 168.716 10.3C168.716 9.27333 168.482 8.44 168.016 7.8C167.549 7.14667 166.876 6.82 165.996 6.82C165.302 6.82 164.736 7.10667 164.296 7.68C163.869 8.25333 163.656 9.12 163.656 10.28C163.656 11.3067 163.869 12.1533 164.296 12.82C164.736 13.4733 165.316 13.8 166.036 13.8ZM182.515 16.2C182.061 16.2 181.748 16.0267 181.575 15.68C181.415 15.32 181.321 14.7533 181.295 13.98L181.495 14.08C180.748 15.5333 179.335 16.26 177.255 16.26C176.308 16.26 175.521 16.0933 174.895 15.76C174.268 15.4133 173.801 14.96 173.495 14.4C173.201 13.8267 173.055 13.2067 173.055 12.54C173.055 11.3933 173.455 10.4867 174.255 9.82C175.055 9.14 176.115 8.8 177.435 8.8C178.301 8.8 179.055 8.92667 179.695 9.18C180.335 9.43333 180.881 9.78667 181.335 10.24L180.995 10.2C180.901 8.85333 180.608 7.89333 180.115 7.32C179.635 6.73333 178.948 6.44 178.055 6.44C177.535 6.44 177.055 6.52 176.615 6.68C176.175 6.84 175.768 7.00667 175.395 7.18C175.035 7.34 174.695 7.42 174.375 7.42C174.055 7.42 173.801 7.31333 173.615 7.1C173.441 6.88667 173.355 6.61333 173.355 6.28C173.355 5.8 173.581 5.34667 174.035 4.92C174.501 4.49333 175.115 4.14667 175.875 3.88C176.635 3.61333 177.461 3.48 178.355 3.48C179.435 3.48 180.361 3.74 181.135 4.26C181.908 4.78 182.495 5.54 182.895 6.54C183.241 7.39333 183.488 8.34667 183.635 9.4C183.781 10.4533 183.855 11.58 183.855 12.78C183.855 13.6867 183.808 14.3867 183.715 14.88C183.621 15.3733 183.475 15.72 183.275 15.92C183.088 16.1067 182.835 16.2 182.515 16.2ZM178.095 13.96C178.535 13.96 178.981 13.9 179.435 13.78C179.888 13.6467 180.268 13.4533 180.575 13.2C180.881 12.9467 181.035 12.6333 181.035 12.26C181.035 11.94 180.901 11.68 180.635 11.48C180.381 11.2667 180.041 11.1067 179.615 11C179.201 10.8933 178.755 10.84 178.275 10.84C177.461 10.84 176.841 10.98 176.415 11.26C176.001 11.54 175.795 11.9133 175.795 12.38C175.795 12.8867 175.988 13.28 176.375 13.56C176.775 13.8267 177.348 13.96 178.095 13.96ZM188.334 3.56C188.761 3.56 189.048 3.73333 189.194 4.08C189.354 4.42667 189.434 4.94 189.434 5.62C189.434 5.78 189.421 5.95333 189.394 6.14C189.381 6.31333 189.354 6.47333 189.314 6.62L189.274 6.22C189.594 5.35333 190.088 4.68 190.754 4.2C191.421 3.70667 192.128 3.46 192.874 3.46C193.701 3.46 194.388 3.69333 194.934 4.16C195.494 4.62667 195.908 5.28 196.174 6.12C196.454 6.96 196.594 7.95333 196.594 9.1C196.594 9.80667 196.561 10.5067 196.494 11.2C196.441 11.88 196.361 12.5067 196.254 13.08C196.161 13.64 196.054 14.1 195.934 14.46C195.774 14.9133 195.568 15.2533 195.314 15.48C195.061 15.6933 194.761 15.8 194.414 15.8C194.068 15.8 193.801 15.6733 193.614 15.42C193.428 15.1667 193.334 14.8267 193.334 14.4C193.334 13.9467 193.368 13.4 193.434 12.76C193.501 12.1067 193.561 11.4467 193.614 10.78C193.681 10.1 193.714 9.48667 193.714 8.94C193.714 7.07333 193.101 6.14 191.874 6.14C191.221 6.14 190.674 6.43333 190.234 7.02C189.794 7.59333 189.501 8.41333 189.354 9.48C189.314 9.84 189.294 10.2867 189.294 10.82C189.294 11.3533 189.294 11.8867 189.294 12.42C189.308 12.94 189.294 13.38 189.254 13.74C189.201 14.54 189.048 15.1133 188.794 15.46C188.554 15.8067 188.221 15.98 187.794 15.98C187.301 15.98 186.928 15.7533 186.674 15.3C186.421 14.8333 186.294 14.0533 186.294 12.96C186.294 12.4 186.308 11.7733 186.334 11.08C186.361 10.3867 186.394 9.69333 186.434 9C186.488 8.29333 186.548 7.65333 186.614 7.08C186.748 6 186.941 5.14667 187.194 4.52C187.448 3.88 187.828 3.56 188.334 3.56ZM206.613 16.12C205.799 16.12 205.193 16.0133 204.793 15.8C204.393 15.5867 204.059 15.2 203.793 14.64C203.606 14.2133 203.446 13.52 203.313 12.56C203.193 11.5867 203.132 10.3267 203.132 8.78C203.132 7.7 203.153 6.66667 203.193 5.68C203.246 4.69333 203.319 3.93333 203.413 3.4C203.519 2.72 203.693 2.23333 203.933 1.94C204.186 1.64667 204.499 1.5 204.873 1.5C205.206 1.5 205.466 1.64667 205.653 1.94C205.853 2.23333 205.993 2.63333 206.073 3.14C206.153 3.63333 206.193 4.18 206.193 4.78C206.193 6.40667 206.133 8.05333 206.013 9.72C205.906 11.3867 205.753 12.92 205.553 14.32L205.293 13.96C205.893 13.5467 206.533 13.1933 207.213 12.9C207.906 12.6067 208.579 12.38 209.233 12.22C209.899 12.06 210.479 11.98 210.973 11.98C211.466 11.98 211.826 12.08 212.053 12.28C212.293 12.48 212.413 12.7667 212.413 13.14C212.413 13.5133 212.246 13.8933 211.912 14.28C211.593 14.6533 211.133 14.98 210.533 15.26C210.199 15.42 209.806 15.5667 209.353 15.7C208.899 15.82 208.433 15.92 207.953 16C207.486 16.08 207.039 16.12 206.613 16.12ZM223.068 15.88C222.708 15.88 222.428 15.76 222.228 15.52C222.041 15.2667 221.914 14.9467 221.848 14.56C221.781 14.16 221.748 13.74 221.748 13.3L221.848 13.22C221.714 13.7933 221.454 14.2867 221.068 14.7C220.681 15.1133 220.234 15.4333 219.728 15.66C219.221 15.8733 218.714 15.98 218.208 15.98C217.528 15.98 216.908 15.82 216.348 15.5C215.788 15.18 215.354 14.6867 215.048 14.02C214.741 13.3133 214.501 12.4267 214.328 11.36C214.154 10.28 214.068 9.17333 214.068 8.04C214.068 7.42667 214.094 6.86 214.148 6.34C214.201 5.82 214.288 5.39333 214.408 5.06C214.514 4.71333 214.674 4.46 214.888 4.3C215.101 4.12667 215.374 4.04 215.708 4.04C216.094 4.04 216.394 4.19333 216.608 4.5C216.834 4.79333 216.974 5.20667 217.028 5.74C217.081 6.18 217.114 6.72667 217.128 7.38C217.154 8.02 217.174 8.66667 217.188 9.32C217.214 9.96 217.248 10.5 217.288 10.94C217.368 11.74 217.574 12.3333 217.908 12.72C218.241 13.0933 218.648 13.28 219.128 13.28C219.834 13.28 220.374 13.0133 220.748 12.48C221.121 11.9467 221.308 11.2 221.308 10.24C221.308 9.76 221.281 9.22 221.228 8.62C221.174 8.00667 221.114 7.41333 221.048 6.84C220.994 6.26667 220.968 5.79333 220.968 5.42C220.968 4.79333 221.074 4.34667 221.288 4.08C221.501 3.8 221.794 3.66 222.168 3.66C222.488 3.66 222.754 3.74667 222.968 3.92C223.194 4.09333 223.374 4.33333 223.508 4.64C223.694 5.04 223.854 5.58667 223.988 6.28C224.121 6.97333 224.228 7.76 224.308 8.64C224.388 9.52 224.428 10.4467 224.428 11.42C224.428 12.9133 224.328 14.0333 224.128 14.78C223.928 15.5133 223.574 15.88 223.068 15.88ZM235.601 16.2C235.147 16.2 234.834 16.0267 234.661 15.68C234.501 15.32 234.407 14.7533 234.381 13.98L234.581 14.08C233.834 15.5333 232.421 16.26 230.341 16.26C229.394 16.26 228.607 16.0933 227.981 15.76C227.354 15.4133 226.887 14.96 226.581 14.4C226.287 13.8267 226.141 13.2067 226.141 12.54C226.141 11.3933 226.541 10.4867 227.341 9.82C228.141 9.14 229.201 8.8 230.521 8.8C231.387 8.8 232.141 8.92667 232.781 9.18C233.421 9.43333 233.967 9.78667 234.421 10.24L234.081 10.2C233.987 8.85333 233.694 7.89333 233.201 7.32C232.721 6.73333 232.034 6.44 231.141 6.44C230.621 6.44 230.141 6.52 229.701 6.68C229.261 6.84 228.854 7.00667 228.481 7.18C228.121 7.34 227.781 7.42 227.461 7.42C227.141 7.42 226.887 7.31333 226.701 7.1C226.527 6.88667 226.441 6.61333 226.441 6.28C226.441 5.8 226.667 5.34667 227.121 4.92C227.587 4.49333 228.201 4.14667 228.961 3.88C229.721 3.61333 230.547 3.48 231.441 3.48C232.521 3.48 233.447 3.74 234.221 4.26C234.994 4.78 235.581 5.54 235.981 6.54C236.327 7.39333 236.574 8.34667 236.721 9.4C236.867 10.4533 236.941 11.58 236.941 12.78C236.941 13.6867 236.894 14.3867 236.801 14.88C236.707 15.3733 236.561 15.72 236.361 15.92C236.174 16.1067 235.921 16.2 235.601 16.2ZM231.181 13.96C231.621 13.96 232.067 13.9 232.521 13.78C232.974 13.6467 233.354 13.4533 233.661 13.2C233.967 12.9467 234.121 12.6333 234.121 12.26C234.121 11.94 233.987 11.68 233.721 11.48C233.467 11.2667 233.127 11.1067 232.701 11C232.287 10.8933 231.841 10.84 231.361 10.84C230.547 10.84 229.927 10.98 229.501 11.26C229.087 11.54 228.881 11.9133 228.881 12.38C228.881 12.8867 229.074 13.28 229.461 13.56C229.861 13.8267 230.434 13.96 231.181 13.96ZM244.44 3.48C245.627 3.48 246.48 3.65333 247 4C247.52 4.34667 247.78 4.79333 247.78 5.34C247.78 5.66 247.667 5.92667 247.44 6.14C247.227 6.34 246.92 6.44 246.52 6.44C246.107 6.44 245.673 6.38 245.22 6.26C244.78 6.14 244.267 6.08 243.68 6.08C243 6.08 242.493 6.21333 242.16 6.48C241.827 6.74667 241.66 7.08667 241.66 7.5C241.66 7.88667 241.807 8.19333 242.1 8.42C242.407 8.63333 242.987 8.79333 243.84 8.9C244.787 9.00667 245.567 9.18 246.18 9.42C246.807 9.64667 247.273 9.99333 247.58 10.46C247.887 10.9133 248.04 11.54 248.04 12.34C248.04 13.6067 247.593 14.5467 246.7 15.16C245.807 15.7733 244.573 16.08 243 16.08C242 16.08 241.207 16 240.62 15.84C240.033 15.68 239.607 15.4533 239.34 15.16C239.087 14.8667 238.96 14.52 238.96 14.12C238.96 13.7733 239.073 13.5067 239.3 13.32C239.54 13.12 239.82 13.02 240.14 13.02C240.447 13.02 240.773 13.06 241.12 13.14C241.467 13.2067 241.833 13.28 242.22 13.36C242.607 13.44 243.007 13.48 243.42 13.48C244.753 13.48 245.42 13.0667 245.42 12.24C245.42 11.96 245.353 11.7333 245.22 11.56C245.087 11.3867 244.847 11.2467 244.5 11.14C244.153 11.02 243.647 10.9267 242.98 10.86C242.18 10.78 241.487 10.6467 240.9 10.46C240.313 10.26 239.86 9.94 239.54 9.5C239.22 9.04667 239.06 8.42667 239.06 7.64C239.06 6.4 239.527 5.4 240.46 4.64C241.393 3.86667 242.72 3.48 244.44 3.48Z" fill="#060606"/>
</svg>
