<svg width="102" height="101" viewBox="0 0 102 101" fill="none" xmlns="http://www.w3.org/2000/svg">
<path d="M8.57334 74.75L51 1.98531L93.4267 74.75H8.57334Z" stroke="black" stroke-width="2"/>
<line x1="51" y1="2" x2="51" y2="74" stroke="black" stroke-width="2" stroke-dasharray="4 4"/>
<path d="M52.984 85.08C52.8027 85.08 52.6773 85.0107 52.608 84.872C52.544 84.728 52.5067 84.5013 52.496 84.192L52.576 84.232C52.2773 84.8133 51.712 85.104 50.88 85.104C50.5013 85.104 50.1867 85.0373 49.936 84.904C49.6853 84.7653 49.4987 84.584 49.376 84.36C49.2587 84.1307 49.2 83.8827 49.2 83.616C49.2 83.1573 49.36 82.7947 49.68 82.528C50 82.256 50.424 82.12 50.952 82.12C51.2987 82.12 51.6 82.1707 51.856 82.272C52.112 82.3733 52.3307 82.5147 52.512 82.696L52.376 82.68C52.3387 82.1413 52.2213 81.7573 52.024 81.528C51.832 81.2933 51.5573 81.176 51.2 81.176C50.992 81.176 50.8 81.208 50.624 81.272C50.448 81.336 50.2853 81.4027 50.136 81.472C49.992 81.536 49.856 81.568 49.728 81.568C49.6 81.568 49.4987 81.5253 49.424 81.44C49.3547 81.3547 49.32 81.2453 49.32 81.112C49.32 80.92 49.4107 80.7387 49.592 80.568C49.7787 80.3973 50.024 80.2587 50.328 80.152C50.632 80.0453 50.9627 79.992 51.32 79.992C51.752 79.992 52.1227 80.096 52.432 80.304C52.7413 80.512 52.976 80.816 53.136 81.216C53.2747 81.5573 53.3733 81.9387 53.432 82.36C53.4907 82.7813 53.52 83.232 53.52 83.712C53.52 84.0747 53.5013 84.3547 53.464 84.552C53.4267 84.7493 53.368 84.888 53.288 84.968C53.2133 85.0427 53.112 85.08 52.984 85.08ZM51.216 84.184C51.392 84.184 51.5707 84.16 51.752 84.112C51.9333 84.0587 52.0853 83.9813 52.208 83.88C52.3307 83.7787 52.392 83.6533 52.392 83.504C52.392 83.376 52.3387 83.272 52.232 83.192C52.1307 83.1067 51.9947 83.0427 51.824 83C51.6587 82.9573 51.48 82.936 51.288 82.936C50.9627 82.936 50.7147 82.992 50.544 83.104C50.3787 83.216 50.296 83.3653 50.296 83.552C50.296 83.7547 50.3733 83.912 50.528 84.024C50.688 84.1307 50.9173 84.184 51.216 84.184Z" fill="#030303"/>
<path d="M79.096 40.08C78.9787 40.08 78.8827 40.04 78.808 39.96C78.7387 39.88 78.6827 39.7653 78.64 39.616C78.5973 39.3973 78.56 39.112 78.528 38.76C78.5013 38.4027 78.488 38.0213 78.488 37.616C78.488 37.3867 78.4933 37.128 78.504 36.84C78.5147 36.552 78.528 36.2613 78.544 35.968C78.5653 35.6693 78.5867 35.392 78.608 35.136C78.6347 34.88 78.6613 34.672 78.688 34.512C78.7307 34.2773 78.792 34.0933 78.872 33.96C78.9573 33.8213 79.0907 33.752 79.272 33.752C79.4587 33.752 79.5947 33.824 79.68 33.968C79.7653 34.1067 79.808 34.28 79.808 34.488C79.808 34.7227 79.7893 35 79.752 35.32C79.72 35.64 79.6693 35.9653 79.6 36.296L79.44 36.488C79.4987 36.264 79.5947 36.0587 79.728 35.872C79.8613 35.6853 80.0293 35.5387 80.232 35.432C80.4347 35.32 80.6693 35.264 80.936 35.264C81.4587 35.264 81.8747 35.4507 82.184 35.824C82.4987 36.192 82.656 36.768 82.656 37.552C82.656 38.1013 82.5733 38.56 82.408 38.928C82.248 39.296 82.0267 39.5733 81.744 39.76C81.4667 39.9413 81.1493 40.032 80.792 40.032C80.456 40.032 80.1653 39.9333 79.92 39.736C79.68 39.5387 79.5253 39.2533 79.456 38.88L79.568 38.968C79.5467 39.352 79.4933 39.6347 79.408 39.816C79.328 39.992 79.224 40.08 79.096 40.08ZM80.56 39.104C80.8267 39.104 81.0613 38.984 81.264 38.744C81.4667 38.504 81.568 38.128 81.568 37.616C81.568 37.1893 81.488 36.8427 81.328 36.576C81.1733 36.3093 80.912 36.176 80.544 36.176C80.2453 36.176 80.0053 36.296 79.824 36.536C79.6427 36.7707 79.552 37.128 79.552 37.608C79.552 38.0453 79.6427 38.4053 79.824 38.688C80.0053 38.9653 80.2507 39.104 80.56 39.104Z" fill="#030303"/>
<path d="M23.456 40.088C22.72 40.088 22.1787 39.896 21.832 39.512C21.4907 39.128 21.32 38.5947 21.32 37.912C21.32 37.384 21.4213 36.9173 21.624 36.512C21.832 36.1013 22.128 35.7813 22.512 35.552C22.9013 35.3173 23.3653 35.2 23.904 35.2C24.3893 35.2 24.7573 35.28 25.008 35.44C25.264 35.5947 25.392 35.7947 25.392 36.04C25.392 36.1893 25.344 36.3093 25.248 36.4C25.1573 36.4853 25.0213 36.528 24.84 36.528C24.7387 36.528 24.6347 36.512 24.528 36.48C24.4267 36.448 24.3147 36.416 24.192 36.384C24.0693 36.352 23.9227 36.336 23.752 36.336C23.3093 36.336 22.976 36.4533 22.752 36.688C22.5333 36.9227 22.424 37.2613 22.424 37.704C22.424 38.1253 22.5307 38.432 22.744 38.624C22.9573 38.8107 23.248 38.904 23.616 38.904C23.7973 38.904 23.9547 38.8853 24.088 38.848C24.2267 38.8053 24.3547 38.7653 24.472 38.728C24.5947 38.6853 24.7173 38.664 24.84 38.664C24.9627 38.664 25.064 38.704 25.144 38.784C25.224 38.8587 25.264 38.968 25.264 39.112C25.264 39.2773 25.1973 39.4347 25.064 39.584C24.9307 39.7333 24.7307 39.856 24.464 39.952C24.1973 40.0427 23.8613 40.088 23.456 40.088Z" fill="#030303"/>
<path d="M57.84 44.184H57.68C57.664 43.9493 57.6693 43.728 57.696 43.52C57.7227 43.3067 57.7787 43.136 57.864 43.008C57.9547 42.8747 58.0827 42.808 58.248 42.808C58.3973 42.808 58.5067 42.856 58.576 42.952C58.6453 43.048 58.68 43.1813 58.68 43.352C58.68 43.688 58.616 43.976 58.488 44.216L58.344 44.2C58.632 44.0987 58.9573 44.048 59.32 44.048C59.5493 44.048 59.7307 44.0933 59.864 44.184C60.0027 44.2693 60.072 44.416 60.072 44.624C60.072 44.8213 59.992 44.9707 59.832 45.072C59.672 45.1733 59.472 45.224 59.232 45.224C59.088 45.224 58.9333 45.2187 58.768 45.208C58.608 45.192 58.4507 45.168 58.296 45.136L58.432 44.968C58.48 45.1707 58.5253 45.4027 58.568 45.664C58.616 45.92 58.6587 46.1867 58.696 46.464C58.7333 46.7413 58.7627 47.0107 58.784 47.272C58.8053 47.5333 58.816 47.768 58.816 47.976C58.816 48.3173 58.7627 48.5867 58.656 48.784C58.5493 48.9813 58.392 49.08 58.184 49.08C58.0187 49.08 57.888 49.0293 57.792 48.928C57.7013 48.8267 57.6347 48.6987 57.592 48.544C57.5547 48.384 57.5307 48.2187 57.52 48.048C57.5147 47.8773 57.512 47.7227 57.512 47.584C57.512 47.3493 57.5227 47.0853 57.544 46.792C57.5653 46.4933 57.5947 46.1867 57.632 45.872C57.6747 45.5573 57.7227 45.2533 57.776 44.96L57.936 45.096C57.664 45.2347 57.328 45.304 56.928 45.304C56.6827 45.304 56.4933 45.2587 56.36 45.168C56.2267 45.0773 56.16 44.936 56.16 44.744C56.16 44.536 56.2347 44.376 56.384 44.264C56.5333 44.1467 56.7333 44.088 56.984 44.088C57.1493 44.088 57.304 44.0987 57.448 44.12C57.5973 44.136 57.728 44.1573 57.84 44.184Z" fill="#030303"/>
</svg>
