<svg version="1.1" xmlns="http://www.w3.org/2000/svg" xmlns:xlink="http://www.w3.org/1999/xlink" width="74.52217" height="18.1947" viewBox="0,0,74.52217,18.1947"><g transform="translate(-202.73892,-170.90265)"><g stroke-miterlimit="10"><path d="M208.87166,171.40265h62.25667c3.11105,0 5.63275,2.52186 5.63275,5.63275v5.92921c0,3.11088 -2.52169,5.63275 -5.63275,5.63275h-62.25667c-3.11088,0 -5.63275,-2.52187 -5.63275,-5.63275v-5.92921c0,-3.11088 2.52187,-5.63275 5.63275,-5.63275z" fill="#a5a7a9" stroke="#000000"/><path d="M215.05583,178.10858c0.47036,0 0.81627,0.12054 1.03761,0.36168c0.22531,0.24114 0.33796,0.55735 0.33796,0.94867c0,0.26877 -0.06326,0.50203 -0.18973,0.69965c-0.12256,0.19762 -0.29053,0.35178 -0.50398,0.46248c-0.21345,0.10673 -0.45459,0.16009 -0.72336,0.16009c-0.12647,0 -0.26089,-0.01382 -0.40319,-0.0415c-0.13833,-0.02769 -0.28265,-0.08105 -0.43283,-0.16009l0.02965,-0.07708c0.0316,0.09884 0.05734,0.22134 0.07708,0.36761c0.02372,0.1423 0.0415,0.29053 0.05336,0.44469c0.01583,0.15019 0.02372,0.28857 0.02372,0.41504c0,0.2332 -0.03955,0.41309 -0.11858,0.53956c-0.07512,0.12256 -0.18778,0.18381 -0.33796,0.18381c-0.12647,0 -0.22727,-0.03955 -0.30239,-0.11858c-0.07115,-0.07904 -0.12054,-0.20948 -0.14823,-0.39133c-0.02769,-0.18185 -0.0415,-0.42495 -0.0415,-0.72929c0,-0.58503 0.02567,-1.08309 0.07708,-1.49416c0.05532,-0.41504 0.14823,-0.74115 0.27867,-0.97832c0.10275,-0.18185 0.26089,-0.32611 0.47434,-0.43283c0.21742,-0.10673 0.48815,-0.16009 0.8123,-0.16009zM214.94317,180.0415c0.23717,0 0.42886,-0.06326 0.57513,-0.18973c0.15019,-0.12647 0.22531,-0.31028 0.22531,-0.55142c0,-0.15813 -0.05336,-0.28857 -0.16009,-0.39133c-0.10275,-0.10673 -0.26486,-0.16009 -0.48619,-0.16009c-0.16205,0 -0.30239,0.03753 -0.42097,0.11265c-0.11858,0.07115 -0.20948,0.17195 -0.27274,0.30239c-0.05929,0.12647 -0.08894,0.27274 -0.08894,0.43876c0,0.15416 0.04939,0.26681 0.14823,0.33796c0.10275,0.06718 0.26284,0.1008 0.48027,0.1008zM218.59918,182.41912c-0.43876,0 -0.78858,-0.06522 -1.04947,-0.19566c-0.26089,-0.13044 -0.44866,-0.31822 -0.56327,-0.56327c-0.11461,-0.24505 -0.17195,-0.5376 -0.17195,-0.87752c0,-0.43088 0.07904,-0.79647 0.23717,-1.0969c0.16205,-0.30435 0.38344,-0.5376 0.66407,-0.69965c0.2846,-0.16205 0.60674,-0.2431 0.96646,-0.2431c0.42293,0 0.73327,0.09884 0.93089,0.29646c0.19762,0.19371 0.29646,0.44866 0.29646,0.76487c0,0.253 -0.06718,0.47238 -0.20159,0.65814c-0.13044,0.18185 -0.31229,0.32213 -0.54549,0.42097c-0.2332,0.09884 -0.50203,0.14823 -0.80637,0.14823c-0.16999,0 -0.33399,-0.02176 -0.49212,-0.06522c-0.15813,-0.04346 -0.30043,-0.10275 -0.4269,-0.17788l0.1423,-0.26089c-0.01186,0.09487 -0.01779,0.18973 -0.01779,0.2846c0,0.27672 0.08698,0.47629 0.26089,0.59885c0.1739,0.11858 0.42097,0.17788 0.74115,0.17788c0.24903,0 0.44866,-0.02176 0.59885,-0.06522c0.15019,-0.04346 0.27672,-0.08497 0.37947,-0.12451c0.10275,-0.04346 0.20355,-0.06522 0.30239,-0.06522c0.05532,0 0.10477,0.01583 0.14823,0.04743c0.04743,0.02769 0.08497,0.06919 0.11265,0.12451c0.0316,0.05532 0.04743,0.12256 0.04743,0.20159c0,0.11858 -0.05929,0.2332 -0.17788,0.34389c-0.11858,0.10673 -0.2945,0.19566 -0.5277,0.26681c-0.22928,0.06718 -0.51187,0.1008 -0.84788,0.1008zM218.25529,180.48027c0.28063,0 0.50594,-0.05929 0.67593,-0.17788c0.16999,-0.11858 0.25496,-0.26486 0.25496,-0.43876c0,-0.13833 -0.04743,-0.25098 -0.1423,-0.33796c-0.09089,-0.09089 -0.23521,-0.13637 -0.43283,-0.13637c-0.18576,0 -0.3538,0.03558 -0.50398,0.10673c-0.14627,0.06718 -0.26089,0.15612 -0.34389,0.26681c-0.08301,0.1107 -0.12451,0.23124 -0.12451,0.36168c0,0.11461 0.05336,0.20355 0.16009,0.26681c0.1107,0.05929 0.26284,0.08894 0.45655,0.08894zM220.67369,179.69761c0,-0.37947 0.03558,-0.65221 0.10673,-0.81823c0.07115,-0.16999 0.17195,-0.25496 0.30239,-0.25496c0.10281,0 0.18381,0.04346 0.2431,0.13044c0.05929,0.08301 0.10281,0.18778 0.13044,0.31425c0.02769,0.12256 0.0415,0.24707 0.0415,0.37354l-0.02965,-0.01186c0.06724,-0.21345 0.16999,-0.39726 0.30832,-0.55142c0.1423,-0.15416 0.31229,-0.23124 0.50991,-0.23124c0.23326,0 0.4052,0.09682 0.51584,0.29053c0.1107,0.18973 0.16602,0.4269 0.16602,0.7115c0,0.37947 -0.04346,0.64433 -0.13044,0.79451c-0.08692,0.15019 -0.20355,0.22531 -0.34982,0.22531c-0.10673,0 -0.18576,-0.04346 -0.23717,-0.13044c-0.04743,-0.08698 -0.06321,-0.24114 -0.04743,-0.46248c0.01583,-0.2332 0.00202,-0.3953 -0.0415,-0.48619c-0.04346,-0.09089 -0.11265,-0.13637 -0.20752,-0.13637c-0.11461,0 -0.20948,0.07311 -0.2846,0.21938c-0.07115,0.1423 -0.10673,0.31822 -0.10673,0.5277c0,0.08301 0.0099,0.18778 0.02965,0.31425c0.0198,0.12647 0.0415,0.26486 0.06522,0.41504c0.02372,0.14627 0.04548,0.29249 0.06522,0.43876c0.0198,0.14627 0.02965,0.28063 0.02965,0.40319c0,0.21742 -0.03356,0.37354 -0.1008,0.46841c-0.06718,0.09487 -0.16205,0.1423 -0.2846,0.1423c-0.13833,0 -0.24505,-0.04346 -0.32018,-0.13044c-0.07506,-0.09089 -0.1324,-0.23717 -0.17195,-0.43876c-0.0316,-0.18185 -0.06321,-0.39726 -0.09487,-0.64628c-0.0316,-0.24903 -0.05728,-0.50398 -0.07708,-0.76487c-0.01974,-0.26089 -0.02965,-0.4961 -0.02965,-0.70558zM223.94418,182.43097c-0.08698,0 -0.15813,-0.02965 -0.21345,-0.08894c-0.05141,-0.05929 -0.09291,-0.14426 -0.12451,-0.25496c-0.03166,-0.16205 -0.05929,-0.37354 -0.08301,-0.63443c-0.0198,-0.26486 -0.02965,-0.54744 -0.02965,-0.84788c0,-0.16999 0.00391,-0.36168 0.01186,-0.57513c0.00789,-0.21345 0.01779,-0.42886 0.02965,-0.64628c0.01577,-0.22134 0.0316,-0.4269 0.04743,-0.61664c0.01974,-0.18973 0.03949,-0.34389 0.05929,-0.46248c0.0316,-0.1739 0.07708,-0.31028 0.13637,-0.40912c0.06321,-0.10275 0.16205,-0.15416 0.29646,-0.15416c0.13833,0 0.23912,0.05336 0.30239,0.16009c0.06321,0.10275 0.09487,0.23124 0.09487,0.3854c0,0.1739 -0.01387,0.37947 -0.0415,0.61664c-0.02372,0.23717 -0.06131,0.47831 -0.11265,0.72336l-0.11858,0.1423c0.04346,-0.16602 0.11461,-0.31822 0.21345,-0.45655c0.09878,-0.13833 0.22329,-0.24707 0.37354,-0.32611c0.15019,-0.08301 0.32409,-0.12451 0.52177,-0.12451c0.38736,0 0.69567,0.13833 0.92496,0.41504c0.2332,0.27274 0.34982,0.69965 0.34982,1.28071c0,0.40716 -0.06131,0.74708 -0.18381,1.01982c-0.11858,0.27274 -0.28265,0.47831 -0.49212,0.61664c-0.20557,0.13442 -0.44078,0.20159 -0.70558,0.20159c-0.24903,0 -0.46449,-0.07311 -0.64628,-0.21938c-0.17788,-0.14627 -0.29255,-0.35771 -0.34389,-0.63443l0.08301,0.06522c-0.01583,0.2846 -0.05538,0.49408 -0.11858,0.6285c-0.05929,0.13044 -0.13637,0.19566 -0.23124,0.19566zM225.02923,181.70761c0.19762,0 0.37152,-0.08894 0.52177,-0.26681c0.15019,-0.17788 0.22531,-0.45655 0.22531,-0.83602c0,-0.3162 -0.05929,-0.57318 -0.17788,-0.7708c-0.11467,-0.19762 -0.30832,-0.29646 -0.58106,-0.29646c-0.2214,0 -0.39927,0.08894 -0.53363,0.26681c-0.13442,0.1739 -0.20159,0.43876 -0.20159,0.79451c0,0.32415 0.06718,0.59096 0.20159,0.80044c0.13436,0.20557 0.3162,0.30832 0.54549,0.30832zM229.77301,182.43097c-0.13442,0 -0.22727,-0.05141 -0.27867,-0.15416c-0.04743,-0.10673 -0.07512,-0.2747 -0.08301,-0.50398l0.05929,0.02965c-0.22134,0.43088 -0.64035,0.64628 -1.25699,0.64628c-0.28063,0 -0.51388,-0.04939 -0.69965,-0.14823c-0.18576,-0.10275 -0.32415,-0.23717 -0.41504,-0.40319c-0.08698,-0.16999 -0.13044,-0.3538 -0.13044,-0.55142c0,-0.33992 0.11858,-0.60875 0.35575,-0.80637c0.23717,-0.20159 0.55142,-0.30239 0.94274,-0.30239c0.25691,0 0.48027,0.03753 0.67,0.11265c0.18973,0.07512 0.35178,0.17983 0.48619,0.31425l-0.1008,-0.01186c-0.02769,-0.39921 -0.11461,-0.68382 -0.26089,-0.85381c-0.1423,-0.1739 -0.34585,-0.26089 -0.61071,-0.26089c-0.15416,0 -0.29646,0.02372 -0.4269,0.07115c-0.13044,0.04743 -0.25098,0.09682 -0.36168,0.14823c-0.10673,0.04743 -0.20752,0.07115 -0.30239,0.07115c-0.09487,0 -0.16999,-0.0316 -0.22531,-0.09487c-0.05141,-0.06326 -0.07708,-0.14426 -0.07708,-0.2431c0,-0.1423 0.06718,-0.27672 0.20159,-0.40319c0.13833,-0.12647 0.32018,-0.22928 0.54549,-0.30832c0.22531,-0.07904 0.47036,-0.11858 0.73522,-0.11858c0.32018,0 0.59488,0.07708 0.82416,0.23124c0.22928,0.15416 0.40319,0.37947 0.52177,0.67593c0.10275,0.253 0.17592,0.53559 0.21938,0.84788c0.04346,0.31229 0.06522,0.64628 0.06522,1.00204c0,0.26877 -0.01382,0.47629 -0.0415,0.62257c-0.02769,0.14627 -0.07115,0.24903 -0.13044,0.30832c-0.05532,0.05532 -0.13044,0.08301 -0.22531,0.08301zM228.46265,181.7669c0.13044,0 0.26284,-0.01779 0.39726,-0.05336c0.13442,-0.03955 0.24707,-0.09682 0.33796,-0.17195c0.09089,-0.07512 0.13637,-0.16797 0.13637,-0.27867c0,-0.09487 -0.03955,-0.17195 -0.11858,-0.23124c-0.07512,-0.06326 -0.17592,-0.1107 -0.30239,-0.1423c-0.12256,-0.0316 -0.25496,-0.04743 -0.39726,-0.04743c-0.24114,0 -0.42495,0.0415 -0.55142,0.12451c-0.12256,0.08301 -0.18381,0.19371 -0.18381,0.33204c0,0.15019 0.05734,0.26681 0.17195,0.34982c0.11858,0.07904 0.28857,0.11858 0.50991,0.11858zM231.41528,177.82398c0.15807,0 0.27073,0.04346 0.33796,0.13044c0.07115,0.08698 0.10673,0.18778 0.10673,0.30239c0,0.1423 -0.04352,0.253 -0.13044,0.33204c-0.08301,0.07512 -0.20159,0.11265 -0.35575,0.11265c-0.15025,0 -0.2629,-0.0415 -0.33796,-0.12451c-0.07512,-0.08698 -0.11271,-0.18778 -0.11271,-0.30239c0,-0.15019 0.04548,-0.26284 0.13643,-0.33796c0.09089,-0.07512 0.20948,-0.11265 0.35575,-0.11265zM231.45085,179.14619c0.12647,0 0.22531,0.11858 0.29646,0.35575c0.07506,0.23717 0.11265,0.61468 0.11265,1.13248c0,0.63638 -0.04548,1.09495 -0.13637,1.37558c-0.09095,0.28063 -0.22928,0.42097 -0.41504,0.42097c-0.1423,0 -0.24707,-0.10275 -0.31425,-0.30832c-0.06724,-0.20948 -0.1008,-0.57318 -0.1008,-1.09097c0,-0.63638 0.05135,-1.10876 0.15416,-1.41708c0.10673,-0.31229 0.24108,-0.46841 0.40319,-0.46841zM232.98741,182.43097c-0.07512,0 -0.13637,-0.02176 -0.18381,-0.06522c-0.04743,-0.04743 -0.08105,-0.11461 -0.1008,-0.20159c-0.0316,-0.14627 -0.05929,-0.35771 -0.08301,-0.63443c-0.02372,-0.27672 -0.03558,-0.58302 -0.03558,-0.91903c0,-0.41504 0.01382,-0.81426 0.0415,-1.1977c0.0316,-0.38344 0.07115,-0.69769 0.11858,-0.94274c0.05141,-0.26486 0.11461,-0.45851 0.18973,-0.58106c0.07512,-0.12647 0.1739,-0.18973 0.29646,-0.18973c0.1107,0 0.19566,0.05141 0.25496,0.15416c0.05929,0.09884 0.08894,0.27079 0.08894,0.51584c0,0.24505 -0.0099,0.50796 -0.02965,0.78858c-0.01583,0.28063 -0.04346,0.58106 -0.08301,0.90124h0.02372c0.25691,-0.34787 0.4961,-0.62654 0.71743,-0.83602c0.22531,-0.20948 0.43088,-0.36168 0.61664,-0.45655c0.18973,-0.09487 0.35771,-0.1423 0.50398,-0.1423c0.11461,0 0.19964,0.03558 0.25496,0.10673c0.05532,0.07115 0.08301,0.15813 0.08301,0.26089c0,0.20159 -0.16205,0.4269 -0.48619,0.67593c-0.32018,0.24903 -0.78266,0.50398 -1.38743,0.76487l0.00593,-0.09487c0.3755,0.19371 0.69769,0.39726 0.96646,0.61071c0.27274,0.20948 0.48027,0.40912 0.62257,0.59885c0.14627,0.18576 0.21938,0.34194 0.21938,0.46841c0,0.10275 -0.03362,0.18778 -0.1008,0.25496c-0.06326,0.06326 -0.15612,0.09487 -0.27867,0.09487c-0.15416,0 -0.32611,-0.05734 -0.51584,-0.17195c-0.18576,-0.11858 -0.37947,-0.2945 -0.58106,-0.5277c-0.20159,-0.2332 -0.40319,-0.52574 -0.60478,-0.87752h-0.02372c-0.00397,0.24903 -0.01974,0.49212 -0.04743,0.72929c-0.02372,0.2332 -0.05532,0.42495 -0.09487,0.57513c-0.02769,0.10275 -0.07115,0.18576 -0.13044,0.24903c-0.05532,0.05929 -0.13442,0.08894 -0.23717,0.08894zM236.6612,177.82398c0.15813,0 0.27079,0.04346 0.33796,0.13044c0.07115,0.08698 0.10673,0.18778 0.10673,0.30239c0,0.1423 -0.04346,0.253 -0.13044,0.33204c-0.08301,0.07512 -0.20159,0.11265 -0.35575,0.11265c-0.15019,0 -0.26284,-0.0415 -0.33796,-0.12451c-0.07512,-0.08698 -0.11265,-0.18778 -0.11265,-0.30239c0,-0.15019 0.04548,-0.26284 0.13637,-0.33796c0.09089,-0.07512 0.20948,-0.11265 0.35575,-0.11265zM236.69678,179.14619c0.12647,0 0.22531,0.11858 0.29646,0.35575c0.07512,0.23717 0.11265,0.61468 0.11265,1.13248c0,0.63638 -0.04548,1.09495 -0.13637,1.37558c-0.09089,0.28063 -0.22928,0.42097 -0.41504,0.42097c-0.1423,0 -0.24707,-0.10275 -0.31425,-0.30832c-0.06718,-0.20948 -0.1008,-0.57318 -0.1008,-1.09097c0,-0.63638 0.05141,-1.10876 0.15416,-1.41708c0.10673,-0.31229 0.24114,-0.46841 0.40319,-0.46841zM240.707,178.84973c-0.18576,0.05532 -0.35771,0.09884 -0.51584,0.13044c-0.15807,0.02769 -0.3063,0.0415 -0.44469,0.0415c-0.12647,0 -0.22531,-0.02567 -0.29646,-0.07708c-0.07115,-0.05141 -0.10673,-0.12849 -0.10673,-0.23124c0,-0.08698 0.02965,-0.16999 0.08894,-0.24903c0.05929,-0.07904 0.15025,-0.15019 0.27274,-0.21345c0.14627,-0.07115 0.33204,-0.13044 0.55735,-0.17788c0.22531,-0.04743 0.48821,-0.07115 0.78858,-0.07115c0.20159,0 0.37751,0.01382 0.5277,0.0415c0.15025,0.02372 0.26883,0.05336 0.35575,0.08894c0.11467,0.04743 0.19371,0.10275 0.23717,0.16602c0.04743,0.05929 0.07115,0.12849 0.07115,0.20752c0,0.09884 -0.03558,0.17983 -0.10673,0.2431c-0.07115,0.06326 -0.18576,0.09487 -0.34389,0.09487c-0.09487,0 -0.19365,-0.00593 -0.29646,-0.01779c-0.09878,-0.01186 -0.20355,-0.02769 -0.31425,-0.04743zM241.11611,178.52956c0.20159,0.253 0.35777,0.54744 0.46841,0.88345c0.11467,0.33204 0.17195,0.6799 0.17195,1.04354c0,0.37947 -0.05336,0.71939 -0.16009,1.01982c-0.10275,0.29646 -0.26877,0.53167 -0.49805,0.70558c-0.22922,0.16999 -0.53363,0.25496 -0.9131,0.25496c-0.46639,0 -0.81621,-0.13044 -1.04947,-0.39133c-0.2332,-0.26089 -0.34982,-0.61859 -0.34982,-1.07319c0,-0.22134 0.02769,-0.40912 0.08301,-0.56327c0.05929,-0.15416 0.13637,-0.27079 0.23124,-0.34982c0.09487,-0.08301 0.19768,-0.12451 0.30832,-0.12451c0.10281,0 0.17989,0.0316 0.23124,0.09487c0.05538,0.05929 0.08301,0.14426 0.08301,0.25496c0,0.09089 -0.01577,0.19169 -0.04743,0.30239c-0.02763,0.10673 -0.0415,0.21149 -0.0415,0.31425c0,0.26486 0.04548,0.45851 0.13637,0.58106c0.09487,0.11858 0.24511,0.17788 0.45062,0.17788c0.27274,0 0.46449,-0.1107 0.57513,-0.33204c0.11467,-0.22531 0.17195,-0.53167 0.17195,-0.91903c0,-0.28063 -0.02965,-0.55539 -0.08894,-0.82416c-0.05929,-0.26877 -0.15416,-0.54353 -0.2846,-0.82416zM245.32561,182.43097c-0.13442,0 -0.22733,-0.05141 -0.27867,-0.15416c-0.04743,-0.10673 -0.07512,-0.2747 -0.08301,-0.50398l0.05929,0.02965c-0.2214,0.43088 -0.64035,0.64628 -1.25699,0.64628c-0.28069,0 -0.51388,-0.04939 -0.69965,-0.14823c-0.18582,-0.10275 -0.32415,-0.23717 -0.41504,-0.40319c-0.08698,-0.16999 -0.13044,-0.3538 -0.13044,-0.55142c0,-0.33992 0.11858,-0.60875 0.35575,-0.80637c0.23717,-0.20159 0.55142,-0.30239 0.94274,-0.30239c0.25691,0 0.48027,0.03753 0.67,0.11265c0.18973,0.07512 0.35178,0.17983 0.48619,0.31425l-0.1008,-0.01186c-0.02769,-0.39921 -0.11467,-0.68382 -0.26089,-0.85381c-0.1423,-0.1739 -0.34591,-0.26089 -0.61071,-0.26089c-0.15416,0 -0.29646,0.02372 -0.4269,0.07115c-0.13044,0.04743 -0.25104,0.09682 -0.36168,0.14823c-0.10673,0.04743 -0.20752,0.07115 -0.30239,0.07115c-0.09487,0 -0.16999,-0.0316 -0.22531,-0.09487c-0.05141,-0.06326 -0.07708,-0.14426 -0.07708,-0.2431c0,-0.1423 0.06718,-0.27672 0.20159,-0.40319c0.13833,-0.12647 0.32018,-0.22928 0.54549,-0.30832c0.22531,-0.07904 0.47036,-0.11858 0.73522,-0.11858c0.32018,0 0.59488,0.07708 0.82416,0.23124c0.22922,0.15416 0.40319,0.37947 0.52177,0.67593c0.10275,0.253 0.17586,0.53559 0.21938,0.84788c0.04346,0.31229 0.06522,0.64628 0.06522,1.00204c0,0.26877 -0.01387,0.47629 -0.0415,0.62257c-0.02769,0.14627 -0.07115,0.24903 -0.13044,0.30832c-0.05538,0.05532 -0.13044,0.08301 -0.22531,0.08301zM244.01526,181.7669c0.13044,0 0.26284,-0.01779 0.39726,-0.05336c0.13436,-0.03955 0.24701,-0.09682 0.33796,-0.17195c0.09089,-0.07512 0.13637,-0.16797 0.13637,-0.27867c0,-0.09487 -0.03955,-0.17195 -0.11858,-0.23124c-0.07512,-0.06326 -0.17592,-0.1107 -0.30239,-0.1423c-0.12256,-0.0316 -0.25496,-0.04743 -0.39726,-0.04743c-0.24114,0 -0.42495,0.0415 -0.55142,0.12451c-0.12256,0.08301 -0.18381,0.19371 -0.18381,0.33204c0,0.15019 0.05728,0.26681 0.17195,0.34982c0.11858,0.07904 0.28852,0.11858 0.50991,0.11858zM246.2326,179.96442c0,-0.41107 0.04743,-0.70753 0.1423,-0.88938c0.09884,-0.18185 0.22733,-0.27274 0.3854,-0.27274c0.09095,0 0.16009,0.03362 0.20752,0.1008c0.05141,0.06326 0.08698,0.15019 0.10673,0.26089c0.0198,0.10673 0.02965,0.22727 0.02965,0.36168c0,0.16999 0,0.36957 0,0.59885c0.00397,0.22531 0.00795,0.45851 0.01186,0.69965c0.00795,0.23717 0.01583,0.45851 0.02372,0.66407h0.02372c0.12256,-0.5178 0.24511,-0.94274 0.36761,-1.27478c0.12653,-0.33204 0.25496,-0.57709 0.3854,-0.73522c0.13442,-0.16205 0.26883,-0.2431 0.40319,-0.2431c0.14627,0 0.2846,0.08105 0.41504,0.2431c0.13442,0.15813 0.26486,0.39921 0.39133,0.72336c0.13044,0.32415 0.2629,0.73327 0.39726,1.22735h0.02372c0.01186,-0.33992 0.0198,-0.69769 0.02372,-1.07319c0.00397,-0.3755 0.00593,-0.71939 0.00593,-1.03168c0,-0.22531 0.03759,-0.39133 0.11265,-0.49805c0.07512,-0.10673 0.17989,-0.16009 0.31425,-0.16009c0.16999,0 0.29255,0.08894 0.36761,0.26681c0.0791,0.1739 0.11858,0.40912 0.11858,0.70558c0,0.21742 -0.01186,0.45062 -0.03558,0.69965c-0.01974,0.24505 -0.04939,0.48222 -0.08894,0.7115c-0.03949,0.22928 -0.08692,0.42886 -0.1423,0.59885c-0.08301,0.253 -0.17586,0.44469 -0.27867,0.57513c-0.09878,0.13044 -0.22922,0.19566 -0.39133,0.19566c-0.14621,0 -0.29249,-0.08497 -0.43876,-0.25496c-0.1423,-0.1739 -0.27666,-0.43283 -0.40319,-0.77673c-0.12647,-0.34389 -0.2431,-0.77275 -0.34982,-1.28664h-0.02372c-0.10275,0.49017 -0.22531,0.90124 -0.36761,1.23328c-0.13833,0.32806 -0.28656,0.57513 -0.44469,0.74115c-0.15416,0.16602 -0.30832,0.24903 -0.46248,0.24903c-0.16205,0 -0.29842,-0.07311 -0.40912,-0.21938c-0.10673,-0.14627 -0.19566,-0.37158 -0.26681,-0.67593c-0.0316,-0.15416 -0.05929,-0.31822 -0.08301,-0.49212c-0.02372,-0.17788 -0.0415,-0.35178 -0.05336,-0.52177c-0.01186,-0.16999 -0.01779,-0.32018 -0.01779,-0.45062zM253.58826,182.43097c-0.13442,0 -0.22727,-0.05141 -0.27867,-0.15416c-0.04743,-0.10673 -0.07512,-0.2747 -0.08301,-0.50398l0.05929,0.02965c-0.22134,0.43088 -0.64035,0.64628 -1.25699,0.64628c-0.28063,0 -0.51388,-0.04939 -0.69965,-0.14823c-0.18576,-0.10275 -0.32415,-0.23717 -0.41504,-0.40319c-0.08698,-0.16999 -0.13044,-0.3538 -0.13044,-0.55142c0,-0.33992 0.11858,-0.60875 0.35575,-0.80637c0.23717,-0.20159 0.55142,-0.30239 0.94274,-0.30239c0.25691,0 0.48027,0.03753 0.67,0.11265c0.18973,0.07512 0.35178,0.17983 0.48619,0.31425l-0.1008,-0.01186c-0.02769,-0.39921 -0.11461,-0.68382 -0.26089,-0.85381c-0.1423,-0.1739 -0.34585,-0.26089 -0.61071,-0.26089c-0.15416,0 -0.29646,0.02372 -0.4269,0.07115c-0.13044,0.04743 -0.25098,0.09682 -0.36168,0.14823c-0.10673,0.04743 -0.20752,0.07115 -0.30239,0.07115c-0.09487,0 -0.16999,-0.0316 -0.22531,-0.09487c-0.05141,-0.06326 -0.07708,-0.14426 -0.07708,-0.2431c0,-0.1423 0.06718,-0.27672 0.20159,-0.40319c0.13833,-0.12647 0.32018,-0.22928 0.54549,-0.30832c0.22531,-0.07904 0.47036,-0.11858 0.73522,-0.11858c0.32018,0 0.59488,0.07708 0.82416,0.23124c0.22928,0.15416 0.40319,0.37947 0.52177,0.67593c0.10275,0.253 0.17592,0.53559 0.21938,0.84788c0.04346,0.31229 0.06522,0.64628 0.06522,1.00204c0,0.26877 -0.01382,0.47629 -0.0415,0.62257c-0.02769,0.14627 -0.07115,0.24903 -0.13044,0.30832c-0.05532,0.05532 -0.13044,0.08301 -0.22531,0.08301zM252.27791,181.7669c0.13044,0 0.26284,-0.01779 0.39726,-0.05336c0.13442,-0.03955 0.24707,-0.09682 0.33796,-0.17195c0.09089,-0.07512 0.13637,-0.16797 0.13637,-0.27867c0,-0.09487 -0.03955,-0.17195 -0.11858,-0.23124c-0.07512,-0.06326 -0.17592,-0.1107 -0.30239,-0.1423c-0.12256,-0.0316 -0.25496,-0.04743 -0.39726,-0.04743c-0.24114,0 -0.42495,0.0415 -0.55142,0.12451c-0.12256,0.08301 -0.18381,0.19371 -0.18381,0.33204c0,0.15019 0.05734,0.26681 0.17195,0.34982c0.11858,0.07904 0.28857,0.11858 0.50991,0.11858zM255.15938,182.43097c-0.08698,0 -0.15813,-0.02965 -0.21345,-0.08894c-0.05141,-0.05929 -0.09291,-0.14426 -0.12451,-0.25496c-0.03166,-0.16205 -0.05929,-0.37354 -0.08301,-0.63443c-0.0198,-0.26486 -0.02965,-0.54744 -0.02965,-0.84788c0,-0.16999 0.00391,-0.36168 0.01186,-0.57513c0.00789,-0.21345 0.01779,-0.42886 0.02965,-0.64628c0.01577,-0.22134 0.0316,-0.4269 0.04743,-0.61664c0.01974,-0.18973 0.03949,-0.34389 0.05929,-0.46248c0.0316,-0.1739 0.07708,-0.31028 0.13637,-0.40912c0.06321,-0.10275 0.16205,-0.15416 0.29646,-0.15416c0.13833,0 0.23912,0.05336 0.30239,0.16009c0.06321,0.10275 0.09487,0.23124 0.09487,0.3854c0,0.1739 -0.01387,0.37947 -0.0415,0.61664c-0.02372,0.23717 -0.06131,0.47831 -0.11265,0.72336l-0.11858,0.1423c0.04346,-0.16602 0.11461,-0.31822 0.21345,-0.45655c0.09878,-0.13833 0.22329,-0.24707 0.37354,-0.32611c0.15019,-0.08301 0.32409,-0.12451 0.52177,-0.12451c0.38736,0 0.69567,0.13833 0.92496,0.41504c0.2332,0.27274 0.34982,0.69965 0.34982,1.28071c0,0.40716 -0.06131,0.74708 -0.18381,1.01982c-0.11858,0.27274 -0.28265,0.47831 -0.49212,0.61664c-0.20557,0.13442 -0.44078,0.20159 -0.70558,0.20159c-0.24903,0 -0.46449,-0.07311 -0.64628,-0.21938c-0.17788,-0.14627 -0.29255,-0.35771 -0.34389,-0.63443l0.08301,0.06522c-0.01583,0.2846 -0.05538,0.49408 -0.11858,0.6285c-0.05929,0.13044 -0.13637,0.19566 -0.23124,0.19566zM256.24443,181.70761c0.19762,0 0.37152,-0.08894 0.52177,-0.26681c0.15019,-0.17788 0.22531,-0.45655 0.22531,-0.83602c0,-0.3162 -0.05929,-0.57318 -0.17788,-0.7708c-0.11467,-0.19762 -0.30832,-0.29646 -0.58106,-0.29646c-0.2214,0 -0.39927,0.08894 -0.53363,0.26681c-0.13442,0.1739 -0.20159,0.43876 -0.20159,0.79451c0,0.32415 0.06718,0.59096 0.20159,0.80044c0.13436,0.20557 0.3162,0.30832 0.54549,0.30832zM260.98821,182.43097c-0.13442,0 -0.22733,-0.05141 -0.27867,-0.15416c-0.04743,-0.10673 -0.07512,-0.2747 -0.08301,-0.50398l0.05929,0.02965c-0.2214,0.43088 -0.64035,0.64628 -1.25699,0.64628c-0.28069,0 -0.51388,-0.04939 -0.69965,-0.14823c-0.18582,-0.10275 -0.32415,-0.23717 -0.41504,-0.40319c-0.08698,-0.16999 -0.13044,-0.3538 -0.13044,-0.55142c0,-0.33992 0.11858,-0.60875 0.35575,-0.80637c0.23717,-0.20159 0.55142,-0.30239 0.94274,-0.30239c0.25691,0 0.48027,0.03753 0.67,0.11265c0.18973,0.07512 0.35178,0.17983 0.48619,0.31425l-0.1008,-0.01186c-0.02769,-0.39921 -0.11467,-0.68382 -0.26089,-0.85381c-0.1423,-0.1739 -0.34591,-0.26089 -0.61071,-0.26089c-0.15416,0 -0.29646,0.02372 -0.4269,0.07115c-0.13044,0.04743 -0.25104,0.09682 -0.36168,0.14823c-0.10673,0.04743 -0.20752,0.07115 -0.30239,0.07115c-0.09487,0 -0.16999,-0.0316 -0.22531,-0.09487c-0.05141,-0.06326 -0.07708,-0.14426 -0.07708,-0.2431c0,-0.1423 0.06718,-0.27672 0.20159,-0.40319c0.13833,-0.12647 0.32018,-0.22928 0.54549,-0.30832c0.22531,-0.07904 0.47036,-0.11858 0.73522,-0.11858c0.32018,0 0.59488,0.07708 0.82416,0.23124c0.22922,0.15416 0.40319,0.37947 0.52177,0.67593c0.10275,0.253 0.17586,0.53559 0.21938,0.84788c0.04346,0.31229 0.06522,0.64628 0.06522,1.00204c0,0.26877 -0.01387,0.47629 -0.0415,0.62257c-0.02769,0.14627 -0.07115,0.24903 -0.13044,0.30832c-0.05538,0.05532 -0.13044,0.08301 -0.22531,0.08301zM259.67785,181.7669c0.13044,0 0.26284,-0.01779 0.39726,-0.05336c0.13436,-0.03955 0.24701,-0.09682 0.33796,-0.17195c0.09089,-0.07512 0.13637,-0.16797 0.13637,-0.27867c0,-0.09487 -0.03955,-0.17195 -0.11858,-0.23124c-0.07512,-0.06326 -0.17592,-0.1107 -0.30239,-0.1423c-0.12256,-0.0316 -0.25496,-0.04743 -0.39726,-0.04743c-0.24114,0 -0.42495,0.0415 -0.55142,0.12451c-0.12256,0.08301 -0.18381,0.19371 -0.18381,0.33204c0,0.15019 0.05728,0.26681 0.17195,0.34982c0.11858,0.07904 0.28852,0.11858 0.50991,0.11858zM262.71361,178.68372c0.12629,0 0.21108,0.05141 0.25496,0.15416c0.04743,0.10275 0.07115,0.25496 0.07115,0.45655c0,0.04743 -0.00415,0.09884 -0.01186,0.15416c-0.00415,0.05141 -0.01186,0.09884 -0.02372,0.1423l-0.01186,-0.11858c0.09487,-0.25691 0.24073,-0.45655 0.43876,-0.59885c0.19744,-0.14627 0.40674,-0.21938 0.6285,-0.21938c0.24488,0 0.44825,0.06919 0.61071,0.20752c0.16602,0.13833 0.28816,0.33204 0.36761,0.58106c0.08301,0.24903 0.12451,0.54353 0.12451,0.88345c0,0.20948 -0.01008,0.417 -0.02965,0.62257c-0.01601,0.20159 -0.03973,0.38736 -0.07115,0.55735c-0.02787,0.16602 -0.05929,0.30239 -0.09487,0.40912c-0.04743,0.13442 -0.1091,0.23521 -0.18381,0.30239c-0.0753,0.06326 -0.16424,0.09487 -0.26681,0.09487c-0.10317,0 -0.18203,-0.03753 -0.23717,-0.11265c-0.05573,-0.07512 -0.08301,-0.17592 -0.08301,-0.30239c0,-0.13442 0.00949,-0.29646 0.02965,-0.48619c0.01957,-0.19371 0.03735,-0.38937 0.05336,-0.58699c0.01957,-0.20159 0.02965,-0.38344 0.02965,-0.54549c0,-0.55337 -0.18203,-0.83009 -0.54549,-0.83009c-0.19389,0 -0.35575,0.08698 -0.48619,0.26089c-0.13044,0.16999 -0.2176,0.41309 -0.26089,0.72929c-0.01186,0.10673 -0.01779,0.23912 -0.01779,0.39726c0,0.15813 0,0.3162 0,0.47434c0.00356,0.15416 0,0.2846 -0.01186,0.39133c-0.01601,0.23717 -0.06166,0.40716 -0.13637,0.50991c-0.07115,0.10275 -0.17017,0.15416 -0.29646,0.15416c-0.14645,0 -0.25733,-0.06718 -0.33221,-0.20159c-0.07506,-0.13833 -0.11265,-0.36957 -0.11265,-0.69372c0,-0.16602 0.00397,-0.35178 0.01186,-0.55735c0.00795,-0.20557 0.01779,-0.41107 0.02965,-0.61664c0.01583,-0.20948 0.03362,-0.39921 0.05336,-0.5692c0.03931,-0.32018 0.09682,-0.57318 0.17212,-0.75894c0.07471,-0.18973 0.18736,-0.2846 0.33796,-0.2846z" fill="#000000" stroke="none"/></g></g></svg>