<svg xmlns="http://www.w3.org/2000/svg" fill="none" viewBox="0 0 320 17" height="17" width="320">
<path fill="black" d="M1.33856 13.16C1.14656 13.16 0.991896 13.096 0.874563 12.968C0.757229 12.8293 0.661229 12.6107 0.586563 12.312C0.511896 11.9707 0.442563 11.4373 0.378563 10.712C0.314563 9.976 0.282562 9.15467 0.282562 8.248C0.282562 7.26667 0.309229 6.312 0.362563 5.384C0.426563 4.44533 0.517229 3.61867 0.634563 2.904C0.719896 2.43467 0.842563 2.088 1.00256 1.864C1.17323 1.62933 1.4079 1.512 1.70656 1.512C1.89856 1.512 2.06923 1.576 2.21856 1.704C2.3679 1.832 2.4799 2.06133 2.55456 2.392C2.6399 2.72267 2.68256 3.192 2.68256 3.8C2.68256 4.09867 2.6719 4.44 2.65056 4.824C2.62923 5.19733 2.59723 5.61333 2.55456 6.072H2.61856C3.4719 4.89867 4.2239 3.96533 4.87456 3.272C5.52523 2.568 6.0959 2.06133 6.58656 1.752C7.0879 1.44267 7.52523 1.288 7.89856 1.288C8.19723 1.288 8.42123 1.384 8.57056 1.576C8.73056 1.768 8.81056 2.00267 8.81056 2.28C8.81056 2.86667 8.3679 3.57067 7.48256 4.392C6.6079 5.21333 5.19456 6.2 3.24256 7.352L3.37056 7.048C5.0559 8.11467 6.33056 9.05867 7.19456 9.88C8.05856 10.6907 8.49056 11.4107 8.49056 12.04C8.49056 12.3173 8.3999 12.5467 8.21856 12.728C8.0479 12.8987 7.7919 12.984 7.45056 12.984C7.0239 12.984 6.57056 12.84 6.09056 12.552C5.61056 12.2533 5.07723 11.7573 4.49056 11.064C3.91456 10.36 3.25856 9.40533 2.52256 8.2H2.45856C2.4799 8.44533 2.4959 8.70133 2.50656 8.968C2.51723 9.224 2.52256 9.48 2.52256 9.736C2.52256 10.9627 2.43723 11.8427 2.26656 12.376C2.0959 12.8987 1.78656 13.16 1.33856 13.16ZM14.6513 13.128C13.4673 13.128 12.5233 12.952 11.8193 12.6C11.1153 12.248 10.6086 11.7413 10.2993 11.08C9.98998 10.4187 9.83531 9.62933 9.83531 8.712C9.83531 7.54933 10.0486 6.56267 10.4753 5.752C10.9126 4.93067 11.51 4.30133 12.2673 3.864C13.0353 3.42667 13.9046 3.208 14.8753 3.208C16.0166 3.208 16.854 3.47467 17.3873 4.008C17.9206 4.53067 18.1873 5.21867 18.1873 6.072C18.1873 6.75467 18.006 7.34667 17.6433 7.848C17.2913 8.33867 16.8006 8.71733 16.1713 8.984C15.542 9.25067 14.8166 9.384 13.9953 9.384C13.5366 9.384 13.094 9.32533 12.6673 9.208C12.2406 9.09067 11.8566 8.93067 11.5153 8.728L11.8993 8.024C11.8673 8.28 11.8513 8.536 11.8513 8.792C11.8513 9.53867 12.086 10.0773 12.5553 10.408C13.0246 10.728 13.6913 10.888 14.5553 10.888C15.2273 10.888 15.766 10.8293 16.1713 10.712C16.5766 10.5947 16.918 10.4827 17.1953 10.376C17.4726 10.2587 17.7446 10.2 18.0113 10.2C18.1606 10.2 18.294 10.2427 18.4113 10.328C18.5393 10.4027 18.6406 10.5147 18.7153 10.664C18.8006 10.8133 18.8433 10.9947 18.8433 11.208C18.8433 11.528 18.6833 11.8373 18.3633 12.136C18.0433 12.424 17.5686 12.664 16.9393 12.856C16.3206 13.0373 15.558 13.128 14.6513 13.128ZM13.7233 7.896C14.4806 7.896 15.0886 7.736 15.5473 7.416C16.006 7.096 16.2353 6.70133 16.2353 6.232C16.2353 5.85867 16.1073 5.55467 15.8513 5.32C15.606 5.07467 15.2166 4.952 14.6833 4.952C14.182 4.952 13.7286 5.048 13.3233 5.24C12.9286 5.42133 12.6193 5.66133 12.3953 5.96C12.1713 6.25867 12.0593 6.584 12.0593 6.936C12.0593 7.24533 12.2033 7.48533 12.4913 7.656C12.79 7.816 13.2006 7.896 13.7233 7.896ZM24.2974 2.984C25.2468 2.984 25.9294 3.12267 26.3454 3.4C26.7614 3.67733 26.9694 4.03467 26.9694 4.472C26.9694 4.728 26.8788 4.94133 26.6974 5.112C26.5268 5.272 26.2814 5.352 25.9614 5.352C25.6308 5.352 25.2841 5.304 24.9214 5.208C24.5694 5.112 24.1588 5.064 23.6894 5.064C23.1454 5.064 22.7401 5.17067 22.4734 5.384C22.2068 5.59733 22.0734 5.86933 22.0734 6.2C22.0734 6.50933 22.1908 6.75467 22.4254 6.936C22.6708 7.10667 23.1348 7.23467 23.8174 7.32C24.5748 7.40533 25.1988 7.544 25.6894 7.736C26.1908 7.91733 26.5641 8.19467 26.8094 8.568C27.0548 8.93067 27.1774 9.432 27.1774 10.072C27.1774 11.0853 26.8201 11.8373 26.1054 12.328C25.3908 12.8187 24.4041 13.064 23.1454 13.064C22.3454 13.064 21.7108 13 21.2414 12.872C20.7721 12.744 20.4308 12.5627 20.2174 12.328C20.0148 12.0933 19.9134 11.816 19.9134 11.496C19.9134 11.2187 20.0041 11.0053 20.1854 10.856C20.3774 10.696 20.6014 10.616 20.8574 10.616C21.1028 10.616 21.3641 10.648 21.6414 10.712C21.9188 10.7653 22.2121 10.824 22.5214 10.888C22.8308 10.952 23.1508 10.984 23.4814 10.984C24.5481 10.984 25.0814 10.6533 25.0814 9.992C25.0814 9.768 25.0281 9.58667 24.9214 9.448C24.8148 9.30933 24.6228 9.19733 24.3454 9.112C24.0681 9.016 23.6628 8.94133 23.1294 8.888C22.4894 8.824 21.9348 8.71733 21.4654 8.568C20.9961 8.408 20.6334 8.152 20.3774 7.8C20.1214 7.43733 19.9934 6.94133 19.9934 6.312C19.9934 5.32 20.3668 4.52 21.1134 3.912C21.8601 3.29333 22.9214 2.984 24.2974 2.984ZM30.2043 0.728C30.631 0.728 30.935 0.845333 31.1163 1.08C31.3083 1.31467 31.4043 1.58667 31.4043 1.896C31.4043 2.28 31.287 2.57867 31.0523 2.792C30.8283 2.99467 30.5083 3.096 30.0923 3.096C29.687 3.096 29.383 2.984 29.1803 2.76C28.9776 2.52533 28.8763 2.25333 28.8763 1.944C28.8763 1.53867 28.999 1.23467 29.2443 1.032C29.4896 0.829333 29.8096 0.728 30.2043 0.728ZM30.3003 4.296C30.6416 4.296 30.9083 4.616 31.1003 5.256C31.303 5.896 31.4043 6.91467 31.4043 8.312C31.4043 10.0293 31.2816 11.2667 31.0363 12.024C30.791 12.7813 30.4176 13.16 29.9163 13.16C29.5323 13.16 29.2496 12.8827 29.0683 12.328C28.887 11.7627 28.7963 10.7813 28.7963 9.384C28.7963 7.66667 28.935 6.392 29.2123 5.56C29.5003 4.71733 29.863 4.296 30.3003 4.296ZM40.2548 5.672C40.3615 5.23467 40.5481 4.84 40.8148 4.488C41.0921 4.136 41.4228 3.85867 41.8068 3.656C42.2015 3.44267 42.6335 3.336 43.1028 3.336C43.6575 3.336 44.1481 3.46933 44.5748 3.736C45.0015 4.00267 45.3375 4.44 45.5828 5.048C45.8388 5.656 45.9668 6.46667 45.9668 7.48C45.9668 8.00267 45.9455 8.53067 45.9028 9.064C45.8601 9.59733 45.8068 10.0933 45.7428 10.552C45.6788 11.0107 45.6095 11.3947 45.5348 11.704C45.4281 12.1307 45.2628 12.456 45.0388 12.68C44.8255 12.904 44.5535 13.016 44.2228 13.016C43.9455 13.016 43.7268 12.8933 43.5668 12.648C43.4068 12.4027 43.3268 12.0507 43.3268 11.592C43.3268 11.3787 43.3535 11.1067 43.4068 10.776C43.4601 10.4347 43.5188 10.0667 43.5828 9.672C43.6468 9.26667 43.7055 8.856 43.7588 8.44C43.8121 8.024 43.8388 7.62933 43.8388 7.256C43.8388 6.70133 43.7268 6.27467 43.5028 5.976C43.2788 5.66667 42.9641 5.512 42.5588 5.512C42.1108 5.512 41.7375 5.74667 41.4388 6.216C41.1508 6.67467 40.9801 7.34667 40.9268 8.232C40.8841 9.02133 40.8468 9.72533 40.8148 10.344C40.7828 10.952 40.7028 11.4533 40.5748 11.848C40.4895 12.1253 40.3668 12.3333 40.2068 12.472C40.0575 12.6107 39.8548 12.68 39.5988 12.68C39.3108 12.68 39.0815 12.5733 38.9108 12.36C38.7508 12.1467 38.6601 11.8107 38.6388 11.352C38.6175 10.968 38.6121 10.5147 38.6228 9.992C38.6335 9.46933 38.6388 8.952 38.6388 8.44C38.6495 7.91733 38.6441 7.48533 38.6228 7.144C38.5801 6.46133 38.4575 5.96 38.2548 5.64C38.0628 5.32 37.7695 5.16 37.3748 5.16C36.9161 5.16 36.5481 5.37333 36.2708 5.8C36.0041 6.22667 35.8388 6.81867 35.7748 7.576C35.7535 7.88533 35.7428 8.26933 35.7428 8.728C35.7535 9.176 35.7641 9.624 35.7748 10.072C35.7855 10.52 35.7801 10.8933 35.7588 11.192C35.7481 11.832 35.6468 12.2907 35.4548 12.568C35.2735 12.8453 35.0175 12.984 34.6868 12.984C34.2921 12.984 34.0041 12.856 33.8228 12.6C33.6521 12.344 33.5401 11.9333 33.4868 11.368C33.4441 10.8667 33.4121 10.3707 33.3908 9.88C33.3695 9.37867 33.3588 8.88267 33.3588 8.392C33.3588 7.89067 33.3695 7.34667 33.3908 6.76C33.4228 6.17333 33.4655 5.61867 33.5188 5.096C33.5828 4.56267 33.6948 4.11467 33.8548 3.752C34.0148 3.38933 34.2815 3.208 34.6548 3.208C34.9641 3.208 35.1828 3.36267 35.3108 3.672C35.4388 3.97067 35.5028 4.43467 35.5028 5.064C35.5028 5.27733 35.4868 5.47467 35.4548 5.656L35.4068 5.336C35.6201 4.64267 35.9615 4.104 36.4308 3.72C36.9001 3.32533 37.4228 3.128 37.9988 3.128C38.7561 3.128 39.3481 3.37333 39.7748 3.864C40.2015 4.344 40.4361 5.01067 40.4788 5.864L40.2548 5.672ZM49.0093 3.08C49.2973 3.08 49.5373 3.25067 49.7293 3.592C49.9213 3.92267 50.0546 4.45067 50.1293 5.176L49.7933 5.48C49.9853 4.73333 50.3426 4.16267 50.8653 3.768C51.388 3.37333 52.0066 3.176 52.7213 3.176C53.3826 3.176 53.9693 3.34667 54.4813 3.688C54.9933 4.02933 55.3933 4.54667 55.6813 5.24C55.98 5.92267 56.1293 6.78133 56.1293 7.816C56.1293 9.49067 55.8253 10.728 55.2173 11.528C54.62 12.3173 53.804 12.712 52.7693 12.712C52.0226 12.712 51.436 12.552 51.0093 12.232C50.5826 11.912 50.284 11.5227 50.1133 11.064L50.3053 10.968C50.3906 11.608 50.46 12.2427 50.5133 12.872C50.5773 13.4907 50.6093 14.0347 50.6093 14.504C50.6093 14.984 50.524 15.3893 50.3533 15.72C50.1826 16.0507 49.9106 16.216 49.5373 16.216C49.1746 16.216 48.9026 16.0773 48.7213 15.8C48.54 15.5227 48.4066 15.1547 48.3213 14.696C48.2573 14.2267 48.1933 13.624 48.1293 12.888C48.0653 12.152 48.012 11.3573 47.9693 10.504C47.9373 9.65067 47.9213 8.81867 47.9213 8.008C47.9213 7.176 47.948 6.39733 48.0013 5.672C48.0653 4.936 48.14 4.33867 48.2253 3.88C48.3 3.61333 48.396 3.416 48.5133 3.288C48.6413 3.14933 48.8066 3.08 49.0093 3.08ZM52.0653 5.016C51.4893 5.016 51.0253 5.304 50.6733 5.88C50.332 6.44533 50.1613 7.17067 50.1613 8.056C50.1613 8.96267 50.332 9.64 50.6733 10.088C51.0253 10.536 51.4786 10.76 52.0333 10.76C52.6733 10.76 53.132 10.5093 53.4093 10.008C53.6973 9.496 53.8413 8.83467 53.8413 8.024C53.8413 6.98933 53.6653 6.232 53.3133 5.752C52.9613 5.26133 52.5453 5.016 52.0653 5.016ZM64.9494 12.904C64.6614 12.904 64.4374 12.808 64.2774 12.616C64.1281 12.4133 64.0268 12.1573 63.9734 11.848C63.9201 11.528 63.8934 11.192 63.8934 10.84L63.9734 10.776C63.8668 11.2347 63.6588 11.6293 63.3494 11.96C63.0401 12.2907 62.6828 12.5467 62.2774 12.728C61.8721 12.8987 61.4668 12.984 61.0614 12.984C60.5174 12.984 60.0214 12.856 59.5734 12.6C59.1254 12.344 58.7788 11.9493 58.5334 11.416C58.2881 10.8507 58.0961 10.1413 57.9574 9.288C57.8188 8.424 57.7494 7.53867 57.7494 6.632C57.7494 6.14133 57.7708 5.688 57.8134 5.272C57.8561 4.856 57.9254 4.51467 58.0214 4.248C58.1068 3.97067 58.2348 3.768 58.4054 3.64C58.5761 3.50133 58.7948 3.432 59.0614 3.432C59.3708 3.432 59.6108 3.55467 59.7814 3.8C59.9628 4.03467 60.0748 4.36533 60.1174 4.792C60.1601 5.144 60.1868 5.58133 60.1974 6.104C60.2188 6.616 60.2348 7.13333 60.2454 7.656C60.2668 8.168 60.2934 8.6 60.3254 8.952C60.3894 9.592 60.5548 10.0667 60.8214 10.376C61.0881 10.6747 61.4134 10.824 61.7974 10.824C62.3628 10.824 62.7948 10.6107 63.0934 10.184C63.3921 9.75733 63.5414 9.16 63.5414 8.392C63.5414 8.008 63.5201 7.576 63.4774 7.096C63.4348 6.60533 63.3868 6.13067 63.3334 5.672C63.2908 5.21333 63.2694 4.83467 63.2694 4.536C63.2694 4.03467 63.3548 3.67733 63.5254 3.464C63.6961 3.24 63.9308 3.128 64.2294 3.128C64.4854 3.128 64.6988 3.19733 64.8694 3.336C65.0508 3.47467 65.1948 3.66667 65.3014 3.912C65.4508 4.232 65.5788 4.66933 65.6854 5.224C65.7921 5.77867 65.8774 6.408 65.9414 7.112C66.0054 7.816 66.0374 8.55733 66.0374 9.336C66.0374 10.5307 65.9574 11.4267 65.7974 12.024C65.6374 12.6107 65.3548 12.904 64.9494 12.904ZM69.7118 13.032C69.3811 13.032 69.1198 12.9573 68.9278 12.808C68.7358 12.648 68.5811 12.3867 68.4638 12.024C68.3038 11.4907 68.1811 10.8187 68.0958 10.008C68.0211 9.18667 67.9838 8.17867 67.9838 6.984C67.9838 6.248 68.0105 5.512 68.0638 4.776C68.1278 4.02933 68.2078 3.352 68.3038 2.744C68.3998 2.12533 68.5011 1.64533 68.6078 1.304C68.7251 0.941333 68.8638 0.690666 69.0238 0.551999C69.1838 0.413333 69.3651 0.344 69.5678 0.344C69.7811 0.344 69.9518 0.418667 70.0798 0.568C70.2078 0.706666 70.3091 0.957333 70.3838 1.32C70.4478 1.672 70.4958 2.104 70.5278 2.616C70.5705 3.128 70.5918 3.67733 70.5918 4.264C70.5918 5.064 70.5545 5.90667 70.4798 6.792C70.4051 7.67733 70.3038 8.54667 70.1758 9.4C70.0585 10.2533 69.9145 11.0373 69.7438 11.752L69.2958 11.528C69.5731 11.1867 69.8878 10.92 70.2398 10.728C70.6025 10.536 70.9331 10.44 71.2318 10.44C71.4771 10.44 71.6638 10.5093 71.7918 10.648C71.9305 10.776 71.9998 10.9787 71.9998 11.256C71.9998 11.5333 71.8771 11.8107 71.6318 12.088C71.3971 12.3653 71.1038 12.5947 70.7518 12.776C70.3998 12.9467 70.0531 13.032 69.7118 13.032ZM80.4446 13.16C80.0819 13.16 79.8312 13.0213 79.6926 12.744C79.5646 12.456 79.4899 12.0027 79.4686 11.384L79.6286 11.464C79.0312 12.6267 77.9006 13.208 76.2366 13.208C75.4792 13.208 74.8499 13.0747 74.3486 12.808C73.8472 12.5307 73.4739 12.168 73.2286 11.72C72.9939 11.2613 72.8766 10.7653 72.8766 10.232C72.8766 9.31467 73.1966 8.58933 73.8366 8.056C74.4766 7.512 75.3246 7.24 76.3806 7.24C77.0739 7.24 77.6766 7.34133 78.1886 7.544C78.7006 7.74667 79.1379 8.02933 79.5006 8.392L79.2286 8.36C79.1539 7.28267 78.9192 6.51467 78.5246 6.056C78.1406 5.58667 77.5912 5.352 76.8766 5.352C76.4606 5.352 76.0766 5.416 75.7246 5.544C75.3726 5.672 75.0472 5.80533 74.7486 5.944C74.4606 6.072 74.1886 6.136 73.9326 6.136C73.6766 6.136 73.4739 6.05067 73.3246 5.88C73.1859 5.70933 73.1166 5.49067 73.1166 5.224C73.1166 4.84 73.2979 4.47733 73.6606 4.136C74.0339 3.79467 74.5246 3.51733 75.1326 3.304C75.7406 3.09067 76.4019 2.984 77.1166 2.984C77.9806 2.984 78.7219 3.192 79.3406 3.608C79.9592 4.024 80.4286 4.632 80.7486 5.432C81.0259 6.11467 81.2232 6.87733 81.3406 7.72C81.4579 8.56267 81.5166 9.464 81.5166 10.424C81.5166 11.1493 81.4792 11.7093 81.4046 12.104C81.3299 12.4987 81.2126 12.776 81.0526 12.936C80.9032 13.0853 80.7006 13.16 80.4446 13.16ZM76.9086 11.368C77.2606 11.368 77.6179 11.32 77.9806 11.224C78.3432 11.1173 78.6472 10.9627 78.8926 10.76C79.1379 10.5573 79.2606 10.3067 79.2606 10.008C79.2606 9.752 79.1539 9.544 78.9406 9.384C78.7379 9.21333 78.4659 9.08533 78.1246 9C77.7939 8.91467 77.4366 8.872 77.0526 8.872C76.4019 8.872 75.9059 8.984 75.5646 9.208C75.2339 9.432 75.0686 9.73067 75.0686 10.104C75.0686 10.5093 75.2232 10.824 75.5326 11.048C75.8526 11.2613 76.3112 11.368 76.9086 11.368ZM85.1002 3.048C85.4415 3.048 85.6709 3.18667 85.7882 3.464C85.9162 3.74133 85.9802 4.152 85.9802 4.696C85.9802 4.824 85.9695 4.96267 85.9482 5.112C85.9375 5.25067 85.9162 5.37867 85.8842 5.496L85.8522 5.176C86.1082 4.48267 86.5029 3.944 87.0362 3.56C87.5695 3.16533 88.1349 2.968 88.7322 2.968C89.3935 2.968 89.9429 3.15467 90.3802 3.528C90.8282 3.90133 91.1589 4.424 91.3722 5.096C91.5962 5.768 91.7082 6.56267 91.7082 7.48C91.7082 8.04533 91.6815 8.60533 91.6282 9.16C91.5855 9.704 91.5215 10.2053 91.4362 10.664C91.3615 11.112 91.2762 11.48 91.1802 11.768C91.0522 12.1307 90.8869 12.4027 90.6842 12.584C90.4815 12.7547 90.2415 12.84 89.9642 12.84C89.6869 12.84 89.4735 12.7387 89.3242 12.536C89.1749 12.3333 89.1002 12.0613 89.1002 11.72C89.1002 11.3573 89.1269 10.92 89.1802 10.408C89.2335 9.88533 89.2815 9.35733 89.3242 8.824C89.3775 8.28 89.4042 7.78933 89.4042 7.352C89.4042 5.85867 88.9135 5.112 87.9322 5.112C87.4095 5.112 86.9722 5.34667 86.6202 5.816C86.2682 6.27467 86.0335 6.93067 85.9162 7.784C85.8842 8.072 85.8682 8.42933 85.8682 8.856C85.8682 9.28267 85.8682 9.70933 85.8682 10.136C85.8789 10.552 85.8682 10.904 85.8362 11.192C85.7935 11.832 85.6709 12.2907 85.4682 12.568C85.2762 12.8453 85.0095 12.984 84.6682 12.984C84.2735 12.984 83.9749 12.8027 83.7722 12.44C83.5695 12.0667 83.4682 11.4427 83.4682 10.568C83.4682 10.12 83.4789 9.61867 83.5002 9.064C83.5215 8.50933 83.5482 7.95467 83.5802 7.4C83.6229 6.83467 83.6709 6.32267 83.7242 5.864C83.8309 5 83.9855 4.31733 84.1882 3.816C84.3909 3.304 84.6949 3.048 85.1002 3.048ZM101.371 1.496C102.64 1.496 103.573 1.82133 104.171 2.472C104.779 3.12267 105.083 3.976 105.083 5.032C105.083 5.75733 104.912 6.38667 104.571 6.92C104.24 7.45333 103.787 7.86933 103.211 8.168C102.635 8.456 101.984 8.6 101.259 8.6C100.917 8.6 100.555 8.56267 100.171 8.488C99.7975 8.41333 99.4081 8.26933 99.0028 8.056L99.0828 7.848C99.1681 8.11467 99.2375 8.44533 99.2908 8.84C99.3548 9.224 99.4028 9.624 99.4348 10.04C99.4775 10.4453 99.4988 10.8187 99.4988 11.16C99.4988 11.7893 99.3921 12.2747 99.1788 12.616C98.9761 12.9467 98.6721 13.112 98.2668 13.112C97.9255 13.112 97.6535 13.0053 97.4508 12.792C97.2588 12.5787 97.1255 12.2267 97.0508 11.736C96.9761 11.2453 96.9388 10.5893 96.9388 9.768C96.9388 8.18933 97.0081 6.84533 97.1468 5.736C97.2961 4.616 97.5468 3.736 97.8988 3.096C98.1761 2.60533 98.6028 2.216 99.1788 1.928C99.7655 1.64 100.496 1.496 101.371 1.496ZM101.067 6.712C101.707 6.712 102.224 6.54133 102.619 6.2C103.024 5.85867 103.227 5.36267 103.227 4.712C103.227 4.28533 103.083 3.93333 102.795 3.656C102.517 3.368 102.08 3.224 101.483 3.224C101.045 3.224 100.667 3.32533 100.347 3.528C100.027 3.72 99.7815 3.992 99.6108 4.344C99.4508 4.68533 99.3708 5.08 99.3708 5.528C99.3708 5.944 99.5041 6.248 99.7708 6.44C100.048 6.62133 100.48 6.712 101.067 6.712ZM110.341 13.048C109.487 13.048 108.741 12.8613 108.101 12.488C107.471 12.104 106.981 11.56 106.629 10.856C106.287 10.152 106.117 9.31467 106.117 8.344C106.117 7.33067 106.293 6.44533 106.645 5.688C106.997 4.93067 107.493 4.33867 108.133 3.912C108.783 3.48533 109.535 3.272 110.389 3.272C111.306 3.272 112.101 3.48 112.773 3.896C113.445 4.30133 113.967 4.872 114.341 5.608C114.714 6.344 114.901 7.20267 114.901 8.184C114.901 9.18667 114.714 10.0507 114.341 10.776C113.967 11.5013 113.439 12.0613 112.757 12.456C112.074 12.8507 111.269 13.048 110.341 13.048ZM110.565 10.888C111.226 10.888 111.749 10.6267 112.133 10.104C112.527 9.57067 112.725 8.86667 112.725 7.992C112.725 7.10667 112.527 6.40267 112.133 5.88C111.749 5.35733 111.226 5.096 110.565 5.096C109.882 5.096 109.343 5.35733 108.949 5.88C108.554 6.40267 108.357 7.10667 108.357 7.992C108.357 8.86667 108.554 9.57067 108.949 10.104C109.343 10.6267 109.882 10.888 110.565 10.888ZM118.243 13.032C117.912 13.032 117.651 12.9573 117.459 12.808C117.267 12.648 117.112 12.3867 116.995 12.024C116.835 11.4907 116.712 10.8187 116.627 10.008C116.552 9.18667 116.515 8.17867 116.515 6.984C116.515 6.248 116.542 5.512 116.595 4.776C116.659 4.02933 116.739 3.352 116.835 2.744C116.931 2.12533 117.032 1.64533 117.139 1.304C117.256 0.941333 117.395 0.690666 117.555 0.551999C117.715 0.413333 117.896 0.344 118.099 0.344C118.312 0.344 118.483 0.418667 118.611 0.568C118.739 0.706666 118.84 0.957333 118.915 1.32C118.979 1.672 119.027 2.104 119.059 2.616C119.102 3.128 119.123 3.67733 119.123 4.264C119.123 5.064 119.086 5.90667 119.011 6.792C118.936 7.67733 118.835 8.54667 118.707 9.4C118.59 10.2533 118.446 11.0373 118.275 11.752L117.827 11.528C118.104 11.1867 118.419 10.92 118.771 10.728C119.134 10.536 119.464 10.44 119.763 10.44C120.008 10.44 120.195 10.5093 120.323 10.648C120.462 10.776 120.531 10.9787 120.531 11.256C120.531 11.5333 120.408 11.8107 120.163 12.088C119.928 12.3653 119.635 12.5947 119.283 12.776C118.931 12.9467 118.584 13.032 118.243 13.032ZM128.976 13.16C128.613 13.16 128.362 13.0213 128.224 12.744C128.096 12.456 128.021 12.0027 128 11.384L128.16 11.464C127.562 12.6267 126.432 13.208 124.768 13.208C124.01 13.208 123.381 13.0747 122.88 12.808C122.378 12.5307 122.005 12.168 121.76 11.72C121.525 11.2613 121.408 10.7653 121.408 10.232C121.408 9.31467 121.728 8.58933 122.368 8.056C123.008 7.512 123.856 7.24 124.912 7.24C125.605 7.24 126.208 7.34133 126.72 7.544C127.232 7.74667 127.669 8.02933 128.032 8.392L127.76 8.36C127.685 7.28267 127.45 6.51467 127.056 6.056C126.672 5.58667 126.122 5.352 125.408 5.352C124.992 5.352 124.608 5.416 124.256 5.544C123.904 5.672 123.578 5.80533 123.28 5.944C122.992 6.072 122.72 6.136 122.464 6.136C122.208 6.136 122.005 6.05067 121.856 5.88C121.717 5.70933 121.648 5.49067 121.648 5.224C121.648 4.84 121.829 4.47733 122.192 4.136C122.565 3.79467 123.056 3.51733 123.664 3.304C124.272 3.09067 124.933 2.984 125.648 2.984C126.512 2.984 127.253 3.192 127.872 3.608C128.49 4.024 128.96 4.632 129.28 5.432C129.557 6.11467 129.754 6.87733 129.872 7.72C129.989 8.56267 130.048 9.464 130.048 10.424C130.048 11.1493 130.01 11.7093 129.936 12.104C129.861 12.4987 129.744 12.776 129.584 12.936C129.434 13.0853 129.232 13.16 128.976 13.16ZM125.44 11.368C125.792 11.368 126.149 11.32 126.512 11.224C126.874 11.1173 127.178 10.9627 127.424 10.76C127.669 10.5573 127.792 10.3067 127.792 10.008C127.792 9.752 127.685 9.544 127.472 9.384C127.269 9.21333 126.997 9.08533 126.656 9C126.325 8.91467 125.968 8.872 125.584 8.872C124.933 8.872 124.437 8.984 124.096 9.208C123.765 9.432 123.6 9.73067 123.6 10.104C123.6 10.5093 123.754 10.824 124.064 11.048C124.384 11.2613 124.842 11.368 125.44 11.368ZM137.443 13.368C136.771 13.368 136.248 13.3253 135.875 13.24C135.512 13.1547 135.261 13.0373 135.123 12.888C134.984 12.728 134.909 12.552 134.899 12.36C134.899 12.0613 135.075 11.8107 135.427 11.608C135.789 11.4053 136.451 11.2773 137.411 11.224L137.155 11.528C137.037 10.984 136.952 10.3493 136.899 9.624C136.845 8.89867 136.824 8.14667 136.835 7.368C136.845 6.58933 136.883 5.848 136.947 5.144C137.011 4.42933 137.101 3.82133 137.219 3.32L138.611 3.224C138.376 3.32 138.083 3.40533 137.731 3.48C137.379 3.544 137.016 3.576 136.643 3.576C135.96 3.576 135.453 3.50133 135.123 3.352C134.803 3.20267 134.643 2.99467 134.643 2.728C134.643 2.25867 134.925 1.896 135.491 1.64C136.067 1.37333 136.947 1.24 138.131 1.24C139.539 1.24 140.723 1.47467 141.683 1.944C142.653 2.40267 143.389 3.048 143.891 3.88C144.392 4.70133 144.643 5.66133 144.643 6.76C144.643 7.72 144.472 8.60533 144.131 9.416C143.789 10.216 143.299 10.9147 142.659 11.512C142.029 12.0987 141.272 12.5573 140.387 12.888C139.512 13.208 138.531 13.368 137.443 13.368ZM139.715 10.904C140.077 10.904 140.461 10.76 140.867 10.472C141.283 10.1733 141.635 9.74133 141.923 9.176C142.211 8.6 142.355 7.89067 142.355 7.048C142.355 6.42933 142.264 5.89067 142.083 5.432C141.912 4.96267 141.688 4.57333 141.411 4.264C141.133 3.95467 140.84 3.72533 140.531 3.576C140.221 3.416 139.928 3.336 139.651 3.336C139.427 3.336 139.251 3.47467 139.123 3.752C139.005 4.02933 138.92 4.44533 138.867 5C138.813 5.544 138.787 6.22133 138.787 7.032C138.787 8.29067 138.851 9.25067 138.979 9.912C139.107 10.5733 139.352 10.904 139.715 10.904ZM147.814 0.728C148.24 0.728 148.544 0.845333 148.726 1.08C148.918 1.31467 149.014 1.58667 149.014 1.896C149.014 2.28 148.896 2.57867 148.662 2.792C148.438 2.99467 148.118 3.096 147.702 3.096C147.296 3.096 146.992 2.984 146.79 2.76C146.587 2.52533 146.486 2.25333 146.486 1.944C146.486 1.53867 146.608 1.23467 146.854 1.032C147.099 0.829333 147.419 0.728 147.814 0.728ZM147.91 4.296C148.251 4.296 148.518 4.616 148.71 5.256C148.912 5.896 149.014 6.91467 149.014 8.312C149.014 10.0293 148.891 11.2667 148.646 12.024C148.4 12.7813 148.027 13.16 147.526 13.16C147.142 13.16 146.859 12.8827 146.678 12.328C146.496 11.7627 146.406 10.7813 146.406 9.384C146.406 7.66667 146.544 6.392 146.822 5.56C147.11 4.71733 147.472 4.296 147.91 4.296ZM157.96 13.16C157.598 13.16 157.347 13.0213 157.208 12.744C157.08 12.456 157.006 12.0027 156.984 11.384L157.144 11.464C156.547 12.6267 155.416 13.208 153.752 13.208C152.995 13.208 152.366 13.0747 151.864 12.808C151.363 12.5307 150.99 12.168 150.744 11.72C150.51 11.2613 150.392 10.7653 150.392 10.232C150.392 9.31467 150.712 8.58933 151.352 8.056C151.992 7.512 152.84 7.24 153.896 7.24C154.59 7.24 155.192 7.34133 155.704 7.544C156.216 7.74667 156.654 8.02933 157.016 8.392L156.744 8.36C156.67 7.28267 156.435 6.51467 156.04 6.056C155.656 5.58667 155.107 5.352 154.392 5.352C153.976 5.352 153.592 5.416 153.24 5.544C152.888 5.672 152.563 5.80533 152.264 5.944C151.976 6.072 151.704 6.136 151.448 6.136C151.192 6.136 150.99 6.05067 150.84 5.88C150.702 5.70933 150.632 5.49067 150.632 5.224C150.632 4.84 150.814 4.47733 151.176 4.136C151.55 3.79467 152.04 3.51733 152.648 3.304C153.256 3.09067 153.918 2.984 154.632 2.984C155.496 2.984 156.238 3.192 156.856 3.608C157.475 4.024 157.944 4.632 158.264 5.432C158.542 6.11467 158.739 6.87733 158.856 7.72C158.974 8.56267 159.032 9.464 159.032 10.424C159.032 11.1493 158.995 11.7093 158.92 12.104C158.846 12.4987 158.728 12.776 158.568 12.936C158.419 13.0853 158.216 13.16 157.96 13.16ZM154.424 11.368C154.776 11.368 155.134 11.32 155.496 11.224C155.859 11.1173 156.163 10.9627 156.408 10.76C156.654 10.5573 156.776 10.3067 156.776 10.008C156.776 9.752 156.67 9.544 156.456 9.384C156.254 9.21333 155.982 9.08533 155.64 9C155.31 8.91467 154.952 8.872 154.568 8.872C153.918 8.872 153.422 8.984 153.08 9.208C152.75 9.432 152.584 9.73067 152.584 10.104C152.584 10.5093 152.739 10.824 153.048 11.048C153.368 11.2613 153.827 11.368 154.424 11.368ZM164.04 12.744C163.037 12.744 162.221 12.36 161.592 11.592C160.962 10.8133 160.648 9.63467 160.648 8.056C160.648 6.37067 160.952 5.13867 161.56 4.36C162.168 3.58133 162.968 3.192 163.96 3.192C164.546 3.192 165.064 3.34133 165.512 3.64C165.96 3.93867 166.344 4.36 166.664 4.904L166.536 5.128C166.504 4.97867 166.477 4.81867 166.456 4.648C166.434 4.47733 166.424 4.34933 166.424 4.264C166.424 3.82667 166.493 3.49067 166.632 3.256C166.781 3.01067 167.01 2.888 167.32 2.888C167.661 2.888 167.928 3.02667 168.12 3.304C168.322 3.58133 168.477 3.976 168.584 4.488C168.722 5.01067 168.84 5.67733 168.936 6.488C169.032 7.288 169.08 8.09867 169.08 8.92C169.08 9.944 169.042 10.8027 168.968 11.496C168.893 12.1893 168.77 12.7653 168.6 13.224C168.429 13.6827 168.205 14.0827 167.928 14.424C167.469 14.9787 166.877 15.4 166.152 15.688C165.437 15.9867 164.61 16.136 163.672 16.136C163 16.136 162.461 16.072 162.056 15.944C161.65 15.8267 161.357 15.6613 161.176 15.448C161.005 15.2453 160.92 15.016 160.92 14.76C160.92 14.4933 160.994 14.2693 161.144 14.088C161.293 13.9173 161.517 13.832 161.816 13.832C162.082 13.832 162.392 13.8747 162.744 13.96C163.106 14.0453 163.533 14.088 164.024 14.088C165.058 14.088 165.789 13.8427 166.216 13.352C166.653 12.872 166.872 12.1787 166.872 11.272C166.872 11.0267 166.856 10.7387 166.824 10.408L167.048 10.488C166.781 11.1707 166.386 11.72 165.864 12.136C165.341 12.5413 164.733 12.744 164.04 12.744ZM164.648 10.776C164.989 10.776 165.33 10.6853 165.672 10.504C166.013 10.3227 166.296 10.024 166.52 9.608C166.744 9.192 166.856 8.632 166.856 7.928C166.856 7.08533 166.658 6.39733 166.264 5.864C165.869 5.33067 165.314 5.064 164.6 5.064C163.981 5.064 163.528 5.29867 163.24 5.768C162.952 6.23733 162.808 6.94667 162.808 7.896C162.808 8.80267 162.952 9.512 163.24 10.024C163.528 10.5253 163.997 10.776 164.648 10.776ZM174.919 13.048C174.065 13.048 173.319 12.8613 172.679 12.488C172.049 12.104 171.559 11.56 171.207 10.856C170.865 10.152 170.695 9.31467 170.695 8.344C170.695 7.33067 170.871 6.44533 171.223 5.688C171.575 4.93067 172.071 4.33867 172.711 3.912C173.361 3.48533 174.113 3.272 174.967 3.272C175.884 3.272 176.679 3.48 177.351 3.896C178.023 4.30133 178.545 4.872 178.919 5.608C179.292 6.344 179.479 7.20267 179.479 8.184C179.479 9.18667 179.292 10.0507 178.919 10.776C178.545 11.5013 178.017 12.0613 177.335 12.456C176.652 12.8507 175.847 13.048 174.919 13.048ZM175.143 10.888C175.804 10.888 176.327 10.6267 176.711 10.104C177.105 9.57067 177.303 8.86667 177.303 7.992C177.303 7.10667 177.105 6.40267 176.711 5.88C176.327 5.35733 175.804 5.096 175.143 5.096C174.46 5.096 173.921 5.35733 173.527 5.88C173.132 6.40267 172.935 7.10667 172.935 7.992C172.935 8.86667 173.132 9.57067 173.527 10.104C173.921 10.6267 174.46 10.888 175.143 10.888ZM182.725 3.048C183.067 3.048 183.296 3.18667 183.413 3.464C183.541 3.74133 183.605 4.152 183.605 4.696C183.605 4.824 183.595 4.96267 183.573 5.112C183.563 5.25067 183.541 5.37867 183.509 5.496L183.477 5.176C183.733 4.48267 184.128 3.944 184.661 3.56C185.195 3.16533 185.76 2.968 186.357 2.968C187.019 2.968 187.568 3.15467 188.005 3.528C188.453 3.90133 188.784 4.424 188.997 5.096C189.221 5.768 189.333 6.56267 189.333 7.48C189.333 8.04533 189.307 8.60533 189.253 9.16C189.211 9.704 189.147 10.2053 189.061 10.664C188.987 11.112 188.901 11.48 188.805 11.768C188.677 12.1307 188.512 12.4027 188.309 12.584C188.107 12.7547 187.867 12.84 187.589 12.84C187.312 12.84 187.099 12.7387 186.949 12.536C186.8 12.3333 186.725 12.0613 186.725 11.72C186.725 11.3573 186.752 10.92 186.805 10.408C186.859 9.88533 186.907 9.35733 186.949 8.824C187.003 8.28 187.029 7.78933 187.029 7.352C187.029 5.85867 186.539 5.112 185.557 5.112C185.035 5.112 184.597 5.34667 184.245 5.816C183.893 6.27467 183.659 6.93067 183.541 7.784C183.509 8.072 183.493 8.42933 183.493 8.856C183.493 9.28267 183.493 9.70933 183.493 10.136C183.504 10.552 183.493 10.904 183.461 11.192C183.419 11.832 183.296 12.2907 183.093 12.568C182.901 12.8453 182.635 12.984 182.293 12.984C181.899 12.984 181.6 12.8027 181.397 12.44C181.195 12.0667 181.093 11.4427 181.093 10.568C181.093 10.12 181.104 9.61867 181.125 9.064C181.147 8.50933 181.173 7.95467 181.205 7.4C181.248 6.83467 181.296 6.32267 181.349 5.864C181.456 5 181.611 4.31733 181.813 3.816C182.016 3.304 182.32 3.048 182.725 3.048ZM198.273 13.16C197.91 13.16 197.659 13.0213 197.521 12.744C197.393 12.456 197.318 12.0027 197.297 11.384L197.457 11.464C196.859 12.6267 195.729 13.208 194.065 13.208C193.307 13.208 192.678 13.0747 192.177 12.808C191.675 12.5307 191.302 12.168 191.057 11.72C190.822 11.2613 190.705 10.7653 190.705 10.232C190.705 9.31467 191.025 8.58933 191.665 8.056C192.305 7.512 193.153 7.24 194.209 7.24C194.902 7.24 195.505 7.34133 196.017 7.544C196.529 7.74667 196.966 8.02933 197.329 8.392L197.057 8.36C196.982 7.28267 196.747 6.51467 196.353 6.056C195.969 5.58667 195.419 5.352 194.705 5.352C194.289 5.352 193.905 5.416 193.553 5.544C193.201 5.672 192.875 5.80533 192.577 5.944C192.289 6.072 192.017 6.136 191.761 6.136C191.505 6.136 191.302 6.05067 191.153 5.88C191.014 5.70933 190.945 5.49067 190.945 5.224C190.945 4.84 191.126 4.47733 191.489 4.136C191.862 3.79467 192.353 3.51733 192.961 3.304C193.569 3.09067 194.23 2.984 194.945 2.984C195.809 2.984 196.55 3.192 197.169 3.608C197.787 4.024 198.257 4.632 198.577 5.432C198.854 6.11467 199.051 6.87733 199.169 7.72C199.286 8.56267 199.345 9.464 199.345 10.424C199.345 11.1493 199.307 11.7093 199.233 12.104C199.158 12.4987 199.041 12.776 198.881 12.936C198.731 13.0853 198.529 13.16 198.273 13.16ZM194.737 11.368C195.089 11.368 195.446 11.32 195.809 11.224C196.171 11.1173 196.475 10.9627 196.721 10.76C196.966 10.5573 197.089 10.3067 197.089 10.008C197.089 9.752 196.982 9.544 196.769 9.384C196.566 9.21333 196.294 9.08533 195.953 9C195.622 8.91467 195.265 8.872 194.881 8.872C194.23 8.872 193.734 8.984 193.393 9.208C193.062 9.432 192.897 9.73067 192.897 10.104C192.897 10.5093 193.051 10.824 193.361 11.048C193.681 11.2613 194.139 11.368 194.737 11.368ZM203.024 13.032C202.694 13.032 202.432 12.9573 202.24 12.808C202.048 12.648 201.894 12.3867 201.776 12.024C201.616 11.4907 201.494 10.8187 201.408 10.008C201.334 9.18667 201.296 8.17867 201.296 6.984C201.296 6.248 201.323 5.512 201.376 4.776C201.44 4.02933 201.52 3.352 201.616 2.744C201.712 2.12533 201.814 1.64533 201.92 1.304C202.038 0.941333 202.176 0.690666 202.336 0.551999C202.496 0.413333 202.678 0.344 202.88 0.344C203.094 0.344 203.264 0.418667 203.392 0.568C203.52 0.706666 203.622 0.957333 203.696 1.32C203.76 1.672 203.808 2.104 203.84 2.616C203.883 3.128 203.904 3.67733 203.904 4.264C203.904 5.064 203.867 5.90667 203.792 6.792C203.718 7.67733 203.616 8.54667 203.488 9.4C203.371 10.2533 203.227 11.0373 203.056 11.752L202.608 11.528C202.886 11.1867 203.2 10.92 203.552 10.728C203.915 10.536 204.246 10.44 204.544 10.44C204.79 10.44 204.976 10.5093 205.104 10.648C205.243 10.776 205.312 10.9787 205.312 11.256C205.312 11.5333 205.19 11.8107 204.944 12.088C204.71 12.3653 204.416 12.5947 204.064 12.776C203.712 12.9467 203.366 13.032 203.024 13.032ZM213.088 13.08C212.427 13.08 211.878 12.9573 211.44 12.712C211.014 12.456 210.694 12.0667 210.48 11.544C210.331 11.1813 210.219 10.744 210.144 10.232C210.08 9.70933 210.048 9.112 210.048 8.44C210.048 7.288 210.086 6.33867 210.16 5.592C210.235 4.83467 210.342 4.22667 210.48 3.768C210.63 3.29867 210.795 2.92 210.976 2.632C211.264 2.19467 211.723 1.84267 212.352 1.576C212.982 1.30933 213.872 1.176 215.024 1.176C215.792 1.176 216.406 1.29333 216.864 1.528C217.334 1.752 217.67 2.05067 217.872 2.424C218.086 2.79733 218.192 3.21333 218.192 3.672C218.192 4.39733 217.979 4.99467 217.552 5.464C217.126 5.93333 216.566 6.30667 215.872 6.584V6.648C216.63 6.73333 217.216 6.97867 217.632 7.384C218.059 7.77867 218.272 8.344 218.272 9.08C218.272 9.66667 218.123 10.2053 217.824 10.696C217.536 11.176 217.142 11.5973 216.64 11.96C216.15 12.312 215.595 12.5893 214.976 12.792C214.358 12.984 213.728 13.08 213.088 13.08ZM213.584 11.16C214.096 11.16 214.55 11.0747 214.944 10.904C215.35 10.7333 215.664 10.504 215.888 10.216C216.123 9.91733 216.24 9.58133 216.24 9.208C216.24 8.80267 216.043 8.46667 215.648 8.2C215.264 7.92267 214.662 7.784 213.84 7.784C213.286 7.784 212.843 7.91733 212.512 8.184C212.192 8.44 212.032 8.88267 212.032 9.512C212.032 10.1093 212.16 10.536 212.416 10.792C212.672 11.0373 213.062 11.16 213.584 11.16ZM213.648 6.088C214.374 6.088 214.976 5.928 215.456 5.608C215.947 5.27733 216.192 4.85067 216.192 4.328C216.192 3.944 216.038 3.63467 215.728 3.4C215.419 3.16533 214.966 3.048 214.368 3.048C213.718 3.048 213.184 3.176 212.768 3.432C212.352 3.688 212.144 4.12533 212.144 4.744C212.144 5.24533 212.278 5.59733 212.544 5.8C212.822 5.992 213.19 6.088 213.648 6.088ZM227.038 13.16C226.676 13.16 226.425 13.0213 226.286 12.744C226.158 12.456 226.084 12.0027 226.062 11.384L226.222 11.464C225.625 12.6267 224.494 13.208 222.83 13.208C222.073 13.208 221.444 13.0747 220.942 12.808C220.441 12.5307 220.068 12.168 219.822 11.72C219.588 11.2613 219.47 10.7653 219.47 10.232C219.47 9.31467 219.79 8.58933 220.43 8.056C221.07 7.512 221.918 7.24 222.974 7.24C223.668 7.24 224.27 7.34133 224.782 7.544C225.294 7.74667 225.732 8.02933 226.094 8.392L225.822 8.36C225.748 7.28267 225.513 6.51467 225.118 6.056C224.734 5.58667 224.185 5.352 223.47 5.352C223.054 5.352 222.67 5.416 222.318 5.544C221.966 5.672 221.641 5.80533 221.342 5.944C221.054 6.072 220.782 6.136 220.526 6.136C220.27 6.136 220.068 6.05067 219.918 5.88C219.78 5.70933 219.71 5.49067 219.71 5.224C219.71 4.84 219.892 4.47733 220.254 4.136C220.628 3.79467 221.118 3.51733 221.726 3.304C222.334 3.09067 222.996 2.984 223.71 2.984C224.574 2.984 225.316 3.192 225.934 3.608C226.553 4.024 227.022 4.632 227.342 5.432C227.62 6.11467 227.817 6.87733 227.934 7.72C228.052 8.56267 228.11 9.464 228.11 10.424C228.11 11.1493 228.073 11.7093 227.998 12.104C227.924 12.4987 227.806 12.776 227.646 12.936C227.497 13.0853 227.294 13.16 227.038 13.16ZM223.502 11.368C223.854 11.368 224.212 11.32 224.574 11.224C224.937 11.1173 225.241 10.9627 225.486 10.76C225.732 10.5573 225.854 10.3067 225.854 10.008C225.854 9.752 225.748 9.544 225.534 9.384C225.332 9.21333 225.06 9.08533 224.718 9C224.388 8.91467 224.03 8.872 223.646 8.872C222.996 8.872 222.5 8.984 222.158 9.208C221.828 9.432 221.662 9.73067 221.662 10.104C221.662 10.5093 221.817 10.824 222.126 11.048C222.446 11.2613 222.905 11.368 223.502 11.368ZM231.694 3.048C232.035 3.048 232.265 3.18667 232.382 3.464C232.51 3.74133 232.574 4.152 232.574 4.696C232.574 4.824 232.563 4.96267 232.542 5.112C232.531 5.25067 232.51 5.37867 232.478 5.496L232.446 5.176C232.702 4.48267 233.097 3.944 233.63 3.56C234.163 3.16533 234.729 2.968 235.326 2.968C235.987 2.968 236.537 3.15467 236.974 3.528C237.422 3.90133 237.753 4.424 237.966 5.096C238.19 5.768 238.302 6.56267 238.302 7.48C238.302 8.04533 238.275 8.60533 238.222 9.16C238.179 9.704 238.115 10.2053 238.03 10.664C237.955 11.112 237.87 11.48 237.774 11.768C237.646 12.1307 237.481 12.4027 237.278 12.584C237.075 12.7547 236.835 12.84 236.558 12.84C236.281 12.84 236.067 12.7387 235.918 12.536C235.769 12.3333 235.694 12.0613 235.694 11.72C235.694 11.3573 235.721 10.92 235.774 10.408C235.827 9.88533 235.875 9.35733 235.918 8.824C235.971 8.28 235.998 7.78933 235.998 7.352C235.998 5.85867 235.507 5.112 234.526 5.112C234.003 5.112 233.566 5.34667 233.214 5.816C232.862 6.27467 232.627 6.93067 232.51 7.784C232.478 8.072 232.462 8.42933 232.462 8.856C232.462 9.28267 232.462 9.70933 232.462 10.136C232.473 10.552 232.462 10.904 232.43 11.192C232.387 11.832 232.265 12.2907 232.062 12.568C231.87 12.8453 231.603 12.984 231.262 12.984C230.867 12.984 230.569 12.8027 230.366 12.44C230.163 12.0667 230.062 11.4427 230.062 10.568C230.062 10.12 230.073 9.61867 230.094 9.064C230.115 8.50933 230.142 7.95467 230.174 7.4C230.217 6.83467 230.265 6.32267 230.318 5.864C230.425 5 230.579 4.31733 230.782 3.816C230.985 3.304 231.289 3.048 231.694 3.048ZM243.305 12.744C242.303 12.744 241.487 12.36 240.857 11.592C240.228 10.8133 239.913 9.63467 239.913 8.056C239.913 6.37067 240.217 5.13867 240.825 4.36C241.433 3.58133 242.233 3.192 243.225 3.192C243.812 3.192 244.329 3.34133 244.777 3.64C245.225 3.93867 245.609 4.36 245.929 4.904L245.801 5.128C245.769 4.97867 245.743 4.81867 245.721 4.648C245.7 4.47733 245.689 4.34933 245.689 4.264C245.689 3.82667 245.759 3.49067 245.897 3.256C246.047 3.01067 246.276 2.888 246.585 2.888C246.927 2.888 247.193 3.02667 247.385 3.304C247.588 3.58133 247.743 3.976 247.849 4.488C247.988 5.01067 248.105 5.67733 248.201 6.488C248.297 7.288 248.345 8.09867 248.345 8.92C248.345 9.944 248.308 10.8027 248.233 11.496C248.159 12.1893 248.036 12.7653 247.865 13.224C247.695 13.6827 247.471 14.0827 247.193 14.424C246.735 14.9787 246.143 15.4 245.417 15.688C244.703 15.9867 243.876 16.136 242.937 16.136C242.265 16.136 241.727 16.072 241.321 15.944C240.916 15.8267 240.623 15.6613 240.441 15.448C240.271 15.2453 240.185 15.016 240.185 14.76C240.185 14.4933 240.26 14.2693 240.409 14.088C240.559 13.9173 240.783 13.832 241.081 13.832C241.348 13.832 241.657 13.8747 242.009 13.96C242.372 14.0453 242.799 14.088 243.289 14.088C244.324 14.088 245.055 13.8427 245.481 13.352C245.919 12.872 246.137 12.1787 246.137 11.272C246.137 11.0267 246.121 10.7387 246.089 10.408L246.313 10.488C246.047 11.1707 245.652 11.72 245.129 12.136C244.607 12.5413 243.999 12.744 243.305 12.744ZM243.913 10.776C244.255 10.776 244.596 10.6853 244.937 10.504C245.279 10.3227 245.561 10.024 245.785 9.608C246.009 9.192 246.121 8.632 246.121 7.928C246.121 7.08533 245.924 6.39733 245.529 5.864C245.135 5.33067 244.58 5.064 243.865 5.064C243.247 5.064 242.793 5.29867 242.505 5.768C242.217 6.23733 242.073 6.94667 242.073 7.896C242.073 8.80267 242.217 9.512 242.505 10.024C242.793 10.5253 243.263 10.776 243.913 10.776ZM257.496 12.904C257.208 12.904 256.984 12.808 256.824 12.616C256.675 12.4133 256.574 12.1573 256.52 11.848C256.467 11.528 256.44 11.192 256.44 10.84L256.52 10.776C256.414 11.2347 256.206 11.6293 255.896 11.96C255.587 12.2907 255.23 12.5467 254.824 12.728C254.419 12.8987 254.014 12.984 253.608 12.984C253.064 12.984 252.568 12.856 252.12 12.6C251.672 12.344 251.326 11.9493 251.08 11.416C250.835 10.8507 250.643 10.1413 250.504 9.288C250.366 8.424 250.296 7.53867 250.296 6.632C250.296 6.14133 250.318 5.688 250.36 5.272C250.403 4.856 250.472 4.51467 250.568 4.248C250.654 3.97067 250.782 3.768 250.952 3.64C251.123 3.50133 251.342 3.432 251.608 3.432C251.918 3.432 252.158 3.55467 252.328 3.8C252.51 4.03467 252.622 4.36533 252.664 4.792C252.707 5.144 252.734 5.58133 252.744 6.104C252.766 6.616 252.782 7.13333 252.792 7.656C252.814 8.168 252.84 8.6 252.872 8.952C252.936 9.592 253.102 10.0667 253.368 10.376C253.635 10.6747 253.96 10.824 254.344 10.824C254.91 10.824 255.342 10.6107 255.64 10.184C255.939 9.75733 256.088 9.16 256.088 8.392C256.088 8.008 256.067 7.576 256.024 7.096C255.982 6.60533 255.934 6.13067 255.88 5.672C255.838 5.21333 255.816 4.83467 255.816 4.536C255.816 4.03467 255.902 3.67733 256.072 3.464C256.243 3.24 256.478 3.128 256.776 3.128C257.032 3.128 257.246 3.19733 257.416 3.336C257.598 3.47467 257.742 3.66667 257.848 3.912C257.998 4.232 258.126 4.66933 258.232 5.224C258.339 5.77867 258.424 6.408 258.488 7.112C258.552 7.816 258.584 8.55733 258.584 9.336C258.584 10.5307 258.504 11.4267 258.344 12.024C258.184 12.6107 257.902 12.904 257.496 12.904ZM262.163 3.048C262.504 3.048 262.733 3.18667 262.851 3.464C262.979 3.74133 263.043 4.152 263.043 4.696C263.043 4.824 263.032 4.96267 263.011 5.112C263 5.25067 262.979 5.37867 262.947 5.496L262.915 5.176C263.171 4.48267 263.565 3.944 264.099 3.56C264.632 3.16533 265.197 2.968 265.795 2.968C266.456 2.968 267.005 3.15467 267.443 3.528C267.891 3.90133 268.221 4.424 268.435 5.096C268.659 5.768 268.771 6.56267 268.771 7.48C268.771 8.04533 268.744 8.60533 268.691 9.16C268.648 9.704 268.584 10.2053 268.499 10.664C268.424 11.112 268.339 11.48 268.243 11.768C268.115 12.1307 267.949 12.4027 267.747 12.584C267.544 12.7547 267.304 12.84 267.027 12.84C266.749 12.84 266.536 12.7387 266.387 12.536C266.237 12.3333 266.163 12.0613 266.163 11.72C266.163 11.3573 266.189 10.92 266.243 10.408C266.296 9.88533 266.344 9.35733 266.387 8.824C266.44 8.28 266.467 7.78933 266.467 7.352C266.467 5.85867 265.976 5.112 264.995 5.112C264.472 5.112 264.035 5.34667 263.683 5.816C263.331 6.27467 263.096 6.93067 262.979 7.784C262.947 8.072 262.931 8.42933 262.931 8.856C262.931 9.28267 262.931 9.70933 262.931 10.136C262.941 10.552 262.931 10.904 262.899 11.192C262.856 11.832 262.733 12.2907 262.531 12.568C262.339 12.8453 262.072 12.984 261.731 12.984C261.336 12.984 261.037 12.8027 260.835 12.44C260.632 12.0667 260.531 11.4427 260.531 10.568C260.531 10.12 260.541 9.61867 260.563 9.064C260.584 8.50933 260.611 7.95467 260.643 7.4C260.685 6.83467 260.733 6.32267 260.787 5.864C260.893 5 261.048 4.31733 261.251 3.816C261.453 3.304 261.757 3.048 262.163 3.048ZM276.161 13.368C275.489 13.368 274.967 13.3253 274.593 13.24C274.231 13.1547 273.98 13.0373 273.841 12.888C273.703 12.728 273.628 12.552 273.617 12.36C273.617 12.0613 273.793 11.8107 274.145 11.608C274.508 11.4053 275.169 11.2773 276.129 11.224L275.873 11.528C275.756 10.984 275.671 10.3493 275.617 9.624C275.564 8.89867 275.543 8.14667 275.553 7.368C275.564 6.58933 275.601 5.848 275.665 5.144C275.729 4.42933 275.82 3.82133 275.937 3.32L277.329 3.224C277.095 3.32 276.801 3.40533 276.449 3.48C276.097 3.544 275.735 3.576 275.361 3.576C274.679 3.576 274.172 3.50133 273.841 3.352C273.521 3.20267 273.361 2.99467 273.361 2.728C273.361 2.25867 273.644 1.896 274.209 1.64C274.785 1.37333 275.665 1.24 276.849 1.24C278.257 1.24 279.441 1.47467 280.401 1.944C281.372 2.40267 282.108 3.048 282.609 3.88C283.111 4.70133 283.361 5.66133 283.361 6.76C283.361 7.72 283.191 8.60533 282.849 9.416C282.508 10.216 282.017 10.9147 281.377 11.512C280.748 12.0987 279.991 12.5573 279.105 12.888C278.231 13.208 277.249 13.368 276.161 13.368ZM278.433 10.904C278.796 10.904 279.18 10.76 279.585 10.472C280.001 10.1733 280.353 9.74133 280.641 9.176C280.929 8.6 281.073 7.89067 281.073 7.048C281.073 6.42933 280.983 5.89067 280.801 5.432C280.631 4.96267 280.407 4.57333 280.129 4.264C279.852 3.95467 279.559 3.72533 279.249 3.576C278.94 3.416 278.647 3.336 278.369 3.336C278.145 3.336 277.969 3.47467 277.841 3.752C277.724 4.02933 277.639 4.44533 277.585 5C277.532 5.544 277.505 6.22133 277.505 7.032C277.505 8.29067 277.569 9.25067 277.697 9.912C277.825 10.5733 278.071 10.904 278.433 10.904ZM292.116 13.16C291.754 13.16 291.503 13.0213 291.364 12.744C291.236 12.456 291.162 12.0027 291.14 11.384L291.3 11.464C290.703 12.6267 289.572 13.208 287.908 13.208C287.151 13.208 286.522 13.0747 286.02 12.808C285.519 12.5307 285.146 12.168 284.9 11.72C284.666 11.2613 284.548 10.7653 284.548 10.232C284.548 9.31467 284.868 8.58933 285.508 8.056C286.148 7.512 286.996 7.24 288.052 7.24C288.746 7.24 289.348 7.34133 289.86 7.544C290.372 7.74667 290.81 8.02933 291.172 8.392L290.9 8.36C290.826 7.28267 290.591 6.51467 290.196 6.056C289.812 5.58667 289.263 5.352 288.548 5.352C288.132 5.352 287.748 5.416 287.396 5.544C287.044 5.672 286.719 5.80533 286.42 5.944C286.132 6.072 285.86 6.136 285.604 6.136C285.348 6.136 285.146 6.05067 284.996 5.88C284.858 5.70933 284.788 5.49067 284.788 5.224C284.788 4.84 284.97 4.47733 285.332 4.136C285.706 3.79467 286.196 3.51733 286.804 3.304C287.412 3.09067 288.074 2.984 288.788 2.984C289.652 2.984 290.394 3.192 291.012 3.608C291.631 4.024 292.1 4.632 292.42 5.432C292.698 6.11467 292.895 6.87733 293.012 7.72C293.13 8.56267 293.188 9.464 293.188 10.424C293.188 11.1493 293.151 11.7093 293.076 12.104C293.002 12.4987 292.884 12.776 292.724 12.936C292.575 13.0853 292.372 13.16 292.116 13.16ZM288.58 11.368C288.932 11.368 289.29 11.32 289.652 11.224C290.015 11.1173 290.319 10.9627 290.564 10.76C290.81 10.5573 290.932 10.3067 290.932 10.008C290.932 9.752 290.826 9.544 290.612 9.384C290.41 9.21333 290.138 9.08533 289.796 9C289.466 8.91467 289.108 8.872 288.724 8.872C288.074 8.872 287.578 8.984 287.236 9.208C286.906 9.432 286.74 9.73067 286.74 10.104C286.74 10.5093 286.895 10.824 287.204 11.048C287.524 11.2613 287.983 11.368 288.58 11.368ZM297.36 3.368H297.04C297.008 2.89867 297.018 2.456 297.072 2.04C297.125 1.61333 297.237 1.272 297.408 1.016C297.589 0.749333 297.845 0.615999 298.176 0.615999C298.474 0.615999 298.693 0.711999 298.832 0.903999C298.97 1.096 299.04 1.36267 299.04 1.704C299.04 2.376 298.912 2.952 298.656 3.432L298.368 3.4C298.944 3.19733 299.594 3.096 300.32 3.096C300.778 3.096 301.141 3.18667 301.408 3.368C301.685 3.53867 301.824 3.832 301.824 4.248C301.824 4.64267 301.664 4.94133 301.344 5.144C301.024 5.34667 300.624 5.448 300.144 5.448C299.856 5.448 299.546 5.43733 299.216 5.416C298.896 5.384 298.581 5.336 298.272 5.272L298.544 4.936C298.64 5.34133 298.73 5.80533 298.816 6.328C298.912 6.84 298.997 7.37333 299.072 7.928C299.146 8.48267 299.205 9.02133 299.248 9.544C299.29 10.0667 299.312 10.536 299.312 10.952C299.312 11.6347 299.205 12.1733 298.992 12.568C298.778 12.9627 298.464 13.16 298.048 13.16C297.717 13.16 297.456 13.0587 297.264 12.856C297.082 12.6533 296.949 12.3973 296.864 12.088C296.789 11.768 296.741 11.4373 296.72 11.096C296.709 10.7547 296.704 10.4453 296.704 10.168C296.704 9.69867 296.725 9.17067 296.768 8.584C296.81 7.98667 296.869 7.37333 296.944 6.744C297.029 6.11467 297.125 5.50667 297.232 4.92L297.552 5.192C297.008 5.46933 296.336 5.608 295.536 5.608C295.045 5.608 294.666 5.51733 294.4 5.336C294.133 5.15467 294 4.872 294 4.488C294 4.072 294.149 3.752 294.448 3.528C294.746 3.29333 295.146 3.176 295.648 3.176C295.978 3.176 296.288 3.19733 296.576 3.24C296.874 3.272 297.136 3.31467 297.36 3.368ZM310.116 13.16C309.754 13.16 309.503 13.0213 309.364 12.744C309.236 12.456 309.162 12.0027 309.14 11.384L309.3 11.464C308.703 12.6267 307.572 13.208 305.908 13.208C305.151 13.208 304.522 13.0747 304.02 12.808C303.519 12.5307 303.146 12.168 302.9 11.72C302.666 11.2613 302.548 10.7653 302.548 10.232C302.548 9.31467 302.868 8.58933 303.508 8.056C304.148 7.512 304.996 7.24 306.052 7.24C306.746 7.24 307.348 7.34133 307.86 7.544C308.372 7.74667 308.81 8.02933 309.172 8.392L308.9 8.36C308.826 7.28267 308.591 6.51467 308.196 6.056C307.812 5.58667 307.263 5.352 306.548 5.352C306.132 5.352 305.748 5.416 305.396 5.544C305.044 5.672 304.719 5.80533 304.42 5.944C304.132 6.072 303.86 6.136 303.604 6.136C303.348 6.136 303.146 6.05067 302.996 5.88C302.858 5.70933 302.788 5.49067 302.788 5.224C302.788 4.84 302.97 4.47733 303.332 4.136C303.706 3.79467 304.196 3.51733 304.804 3.304C305.412 3.09067 306.074 2.984 306.788 2.984C307.652 2.984 308.394 3.192 309.012 3.608C309.631 4.024 310.1 4.632 310.42 5.432C310.698 6.11467 310.895 6.87733 311.012 7.72C311.13 8.56267 311.188 9.464 311.188 10.424C311.188 11.1493 311.151 11.7093 311.076 12.104C311.002 12.4987 310.884 12.776 310.724 12.936C310.575 13.0853 310.372 13.16 310.116 13.16ZM306.58 11.368C306.932 11.368 307.29 11.32 307.652 11.224C308.015 11.1173 308.319 10.9627 308.564 10.76C308.81 10.5573 308.932 10.3067 308.932 10.008C308.932 9.752 308.826 9.544 308.612 9.384C308.41 9.21333 308.138 9.08533 307.796 9C307.466 8.91467 307.108 8.872 306.724 8.872C306.074 8.872 305.578 8.984 305.236 9.208C304.906 9.432 304.74 9.73067 304.74 10.104C304.74 10.5093 304.895 10.824 305.204 11.048C305.524 11.2613 305.983 11.368 306.58 11.368ZM313.14 5.784C313.14 4.76 313.236 4.024 313.428 3.576C313.62 3.11733 313.892 2.888 314.244 2.888C314.521 2.888 314.74 3.00533 314.9 3.24C315.06 3.464 315.177 3.74667 315.252 4.088C315.327 4.41867 315.364 4.75467 315.364 5.096L315.284 5.064C315.465 4.488 315.743 3.992 316.116 3.576C316.5 3.16 316.959 2.952 317.492 2.952C318.121 2.952 318.585 3.21333 318.884 3.736C319.183 4.248 319.332 4.888 319.332 5.656C319.332 6.68 319.215 7.39467 318.98 7.8C318.745 8.20533 318.431 8.408 318.036 8.408C317.748 8.408 317.535 8.29067 317.396 8.056C317.268 7.82133 317.225 7.40533 317.268 6.808C317.311 6.17867 317.273 5.74133 317.156 5.496C317.039 5.25067 316.852 5.128 316.596 5.128C316.287 5.128 316.031 5.32533 315.828 5.72C315.636 6.104 315.54 6.57867 315.54 7.144C315.54 7.368 315.567 7.65067 315.62 7.992C315.673 8.33333 315.732 8.70667 315.796 9.112C315.86 9.50667 315.919 9.90133 315.972 10.296C316.025 10.6907 316.052 11.0533 316.052 11.384C316.052 11.9707 315.961 12.392 315.78 12.648C315.599 12.904 315.343 13.032 315.012 13.032C314.639 13.032 314.351 12.9147 314.148 12.68C313.945 12.4347 313.791 12.04 313.684 11.496C313.599 11.0053 313.513 10.424 313.428 9.752C313.343 9.08 313.273 8.392 313.22 7.688C313.167 6.984 313.14 6.34933 313.14 5.784Z"></path>
</svg>
