<svg version="1.1" xmlns="http://www.w3.org/2000/svg" xmlns:xlink="http://www.w3.org/1999/xlink" width="66.97856" height="27.04417" viewBox="0,0,66.97856,27.04417"><g transform="translate(-206.51072,-166.47791)"><g stroke-miterlimit="10"><path d="M215.25804,166.97792h49.48392c4.55486,0 8.24732,3.69244 8.24732,8.24732v9.54953c0,4.55487 -3.69245,8.24732 -8.24732,8.24732h-49.48392c-4.55488,0 -8.24732,-3.69245 -8.24732,-8.24732v-9.54953c0,-4.55488 3.69244,-8.24732 8.24732,-8.24732z" fill="#a5a7a9" stroke="#000000"/><path d="M224.71468,184.80341c-0.21009,0 -0.44562,-0.01276 -0.70667,-0.0382c-0.25463,-0.02543 -0.50291,-0.07318 -0.74486,-0.14324c-0.23552,-0.07639 -0.43294,-0.17823 -0.59207,-0.30559c-0.15279,-0.13369 -0.22919,-0.30558 -0.22919,-0.51567c0,-0.21642 0.06685,-0.37877 0.20054,-0.48703c0.14003,-0.10826 0.3661,-0.16234 0.67801,-0.16234c0.21642,0 0.45838,0.02865 0.72577,0.08595c0.27373,0.0573 0.53477,0.08594 0.78306,0.08594c0.36922,0 0.63982,-0.05729 0.81171,-0.17189c0.17823,-0.1146 0.26739,-0.2706 0.26739,-0.46793c0,-0.12093 -0.03498,-0.22919 -0.10504,-0.32468c-0.06364,-0.09549 -0.1942,-0.19099 -0.39153,-0.28649c-0.19733,-0.09549 -0.49336,-0.20054 -0.88811,-0.31514c-0.45204,-0.12093 -0.81805,-0.25462 -1.0982,-0.40108c-0.28015,-0.15279 -0.48382,-0.33423 -0.61117,-0.54432c-0.12735,-0.21009 -0.19099,-0.45838 -0.19099,-0.74487c0,-0.35012 0.06051,-0.65258 0.18144,-0.90721c0.12735,-0.26105 0.29603,-0.48068 0.50612,-0.65892c0.21009,-0.18465 0.44562,-0.33102 0.70667,-0.43928c0.26105,-0.10826 0.52523,-0.18778 0.79261,-0.23874c0.27373,-0.05096 0.53477,-0.07639 0.78306,-0.07639c0.54754,0 0.99315,0.08595 1.33694,0.25784c0.35012,0.17189 0.52522,0.40108 0.52522,0.68756c0,0.20375 -0.06685,0.36922 -0.20054,0.49658c-0.12735,0.12735 -0.32469,0.19099 -0.59207,0.19099c-0.1146,0 -0.2515,-0.01589 -0.41063,-0.04775c-0.15913,-0.03186 -0.33423,-0.06364 -0.52522,-0.09549c-0.19099,-0.03186 -0.40108,-0.04774 -0.63027,-0.04774c-0.38832,0 -0.68756,0.06051 -0.89765,0.18144c-0.21009,0.12093 -0.31513,0.31513 -0.31513,0.58252c0,0.1146 0.02865,0.21964 0.08594,0.31513c0.06364,0.09549 0.1942,0.1942 0.39153,0.29604c0.19733,0.10183 0.49979,0.21964 0.90721,0.35333c0.50292,0.15279 0.89765,0.32147 1.18414,0.50612c0.28648,0.17823 0.49024,0.38198 0.61117,0.61117c0.12093,0.22919 0.18144,0.48702 0.18144,0.77351c0,0.39475 -0.10826,0.74487 -0.32469,1.05045c-0.21009,0.29925 -0.50613,0.53156 -0.88811,0.69711c-0.37564,0.16556 -0.81492,0.24828 -1.31783,0.24828zM232.57576,184.71746c-0.17189,0 -0.30559,-0.0573 -0.40108,-0.17189c-0.08907,-0.12093 -0.14958,-0.27372 -0.18144,-0.45838c-0.03178,-0.19099 -0.04774,-0.39153 -0.04774,-0.60162l0.04774,-0.03819c-0.06364,0.27373 -0.18777,0.50933 -0.37243,0.70666c-0.18456,0.19733 -0.39787,0.35012 -0.63982,0.45837c-0.24186,0.10183 -0.48381,0.15279 -0.72576,0.15279c-0.32468,0 -0.62072,-0.0764 -0.8881,-0.22919c-0.26738,-0.15279 -0.47427,-0.38832 -0.62072,-0.70666c-0.14637,-0.33745 -0.26096,-0.76075 -0.34378,-1.27009c-0.08274,-0.51567 -0.12414,-1.04411 -0.12414,-1.58522c0,-0.29282 0.01277,-0.56342 0.0382,-0.81171c0.02552,-0.24829 0.06684,-0.45204 0.12414,-0.61117c0.05096,-0.16556 0.12736,-0.28648 0.22919,-0.36288c0.10192,-0.08274 0.2324,-0.12414 0.39153,-0.12414c0.18465,0 0.3279,0.07318 0.42973,0.21964c0.10826,0.14003 0.17511,0.33745 0.20054,0.59207c0.02552,0.21009 0.04142,0.47114 0.04775,0.78306c0.01276,0.30559 0.02231,0.61438 0.02864,0.9263c0.01276,0.30559 0.02865,0.56342 0.04775,0.77352c0.0382,0.38198 0.13691,0.66525 0.29604,0.84991c0.15921,0.17823 0.35333,0.26739 0.58252,0.26739c0.33745,0 0.59528,-0.12736 0.77351,-0.38199c0.17831,-0.25463 0.26739,-0.61117 0.26739,-1.06955c0,-0.22919 -0.01268,-0.48703 -0.0382,-0.77352c-0.02543,-0.29282 -0.05409,-0.57618 -0.08595,-0.8499c-0.02543,-0.27373 -0.0382,-0.49979 -0.0382,-0.67802c0,-0.29925 0.05096,-0.51246 0.15279,-0.63982c0.10192,-0.13369 0.24195,-0.20054 0.42018,-0.20054c0.15279,0 0.28015,0.04141 0.38198,0.12414c0.10826,0.08274 0.1942,0.19733 0.25784,0.34378c0.08916,0.19099 0.16556,0.45204 0.22919,0.78306c0.06372,0.33102 0.1146,0.70666 0.15279,1.12684c0.0382,0.42018 0.05729,0.86267 0.05729,1.32738c0,0.71301 -0.04774,1.24777 -0.14324,1.60432c-0.09549,0.35012 -0.26417,0.52523 -0.50612,0.52523zM235.11264,184.87026c-0.14012,0 -0.25472,-0.04775 -0.34378,-0.14325c-0.08282,-0.09549 -0.14967,-0.2324 -0.20054,-0.41063c-0.05096,-0.26105 -0.09549,-0.60162 -0.13369,-1.0218c-0.03186,-0.42651 -0.04774,-0.88177 -0.04774,-1.36558c0,-0.27373 0.00634,-0.58252 0.0191,-0.9263c0.01268,-0.34378 0.02865,-0.69078 0.04775,-1.0409c0.02543,-0.35655 0.05087,-0.68756 0.07639,-0.99315c0.03178,-0.30559 0.06364,-0.55388 0.09549,-0.74487c0.05087,-0.28015 0.12414,-0.49979 0.21964,-0.65892c0.10183,-0.16556 0.26096,-0.24829 0.47748,-0.24829c0.22277,0 0.38511,0.08595 0.48703,0.25784c0.10183,0.16556 0.15279,0.37243 0.15279,0.62072c0,0.28015 -0.02231,0.61117 -0.06685,0.99315c-0.0382,0.38198 -0.0987,0.7703 -0.18144,1.16504l-0.19099,0.22919c0.06997,-0.26738 0.18457,-0.51246 0.34378,-0.73531c0.15913,-0.22285 0.35967,-0.39787 0.60162,-0.52522c0.24186,-0.13369 0.52201,-0.20054 0.84036,-0.20054c0.62384,0 1.12042,0.22285 1.48973,0.66846c0.37555,0.43928 0.56342,1.12685 0.56342,2.0627c0,0.65571 -0.0987,1.20324 -0.29603,1.64252c-0.19099,0.43928 -0.45526,0.77031 -0.79262,0.99316c-0.33111,0.21642 -0.70988,0.32468 -1.13639,0.32468c-0.40108,0 -0.74807,-0.11781 -1.0409,-0.35333c-0.28648,-0.23552 -0.47114,-0.57619 -0.55388,-1.0218l0.13369,0.10505c-0.02552,0.45837 -0.08916,0.79583 -0.19099,1.01225c-0.09549,0.21009 -0.21964,0.31513 -0.37243,0.31513zM236.8602,183.70521c0.31826,0 0.59841,-0.14325 0.84036,-0.42973c0.24186,-0.28648 0.36288,-0.73531 0.36288,-1.34648c0,-0.50933 -0.09549,-0.92309 -0.28648,-1.24144c-0.18465,-0.31834 -0.49657,-0.47747 -0.93585,-0.47747c-0.35655,0 -0.64304,0.14324 -0.85946,0.42973c-0.21651,0.28015 -0.32468,0.70667 -0.32468,1.27964c0,0.52201 0.10817,0.95174 0.32468,1.28919c0.21642,0.33102 0.50925,0.49658 0.87856,0.49658zM244.44322,180.40108c0.06364,-0.26105 0.17502,-0.49658 0.33424,-0.70667c0.16547,-0.21009 0.36288,-0.37565 0.59207,-0.49658c0.23552,-0.12735 0.49337,-0.19099 0.77352,-0.19099c0.33102,0 0.62385,0.07961 0.87856,0.23874c0.25463,0.15913 0.45516,0.42019 0.60162,0.78306c0.15279,0.36288 0.22919,0.8467 0.22919,1.45153c0,0.31192 -0.01277,0.62706 -0.0382,0.9454c-0.02552,0.31834 -0.0573,0.61438 -0.09549,0.8881c-0.0382,0.27373 -0.07961,0.50291 -0.12414,0.68757c-0.06372,0.25463 -0.16234,0.44883 -0.29603,0.58253c-0.12735,0.13369 -0.2897,0.20054 -0.48703,0.20054c-0.16556,0 -0.29603,-0.07318 -0.39153,-0.21964c-0.09549,-0.14646 -0.14325,-0.35654 -0.14325,-0.63027c0,-0.12735 0.01589,-0.28969 0.04775,-0.48702c0.03178,-0.20375 0.06685,-0.4234 0.10504,-0.65892c0.0382,-0.24195 0.07319,-0.48702 0.10505,-0.73531c0.03178,-0.24829 0.04774,-0.48381 0.04774,-0.70666c0,-0.33102 -0.06685,-0.58573 -0.20054,-0.76397c-0.13369,-0.18465 -0.32156,-0.27693 -0.56342,-0.27693c-0.26738,0 -0.49024,0.14003 -0.66847,0.42018c-0.17189,0.27373 -0.27381,0.6748 -0.30558,1.20324c-0.02552,0.47114 -0.04774,0.89131 -0.06685,1.26054c-0.0191,0.36288 -0.06685,0.66213 -0.14324,0.89766c-0.05096,0.16556 -0.12414,0.2897 -0.21964,0.37243c-0.08916,0.08274 -0.21009,0.12414 -0.36289,0.12414c-0.17189,0 -0.3088,-0.06364 -0.41063,-0.191c-0.09549,-0.12735 -0.14966,-0.32789 -0.16234,-0.60162c-0.01276,-0.22919 -0.01597,-0.49979 -0.00955,-0.81171c0.00634,-0.31192 0.00955,-0.62071 0.00955,-0.9263c0.00634,-0.31192 0.00313,-0.56976 -0.00955,-0.77352c-0.02552,-0.40742 -0.09871,-0.70666 -0.21964,-0.89765c-0.1146,-0.19099 -0.2897,-0.28648 -0.52523,-0.28648c-0.27381,0 -0.49345,0.12735 -0.65892,0.38198c-0.15921,0.25463 -0.25784,0.60796 -0.29603,1.06c-0.01276,0.18465 -0.0191,0.41384 -0.0191,0.68757c0.00634,0.26738 0.01268,0.53477 0.0191,0.80216c0.00634,0.26738 0.00313,0.49023 -0.00955,0.66846c-0.00643,0.38198 -0.06685,0.6557 -0.18144,0.82126c-0.10826,0.16556 -0.26105,0.24829 -0.45838,0.24829c-0.23561,0 -0.4075,-0.0764 -0.51567,-0.22919c-0.10192,-0.15279 -0.16877,-0.39787 -0.20054,-0.73531c-0.02552,-0.29925 -0.04462,-0.59528 -0.05729,-0.88811c-0.01276,-0.29925 -0.0191,-0.59528 -0.0191,-0.8881c0,-0.29925 0.00634,-0.62393 0.0191,-0.97405c0.0191,-0.35012 0.04453,-0.68123 0.07639,-0.99315c0.0382,-0.31834 0.10504,-0.58573 0.20054,-0.80216c0.09549,-0.21642 0.25463,-0.32468 0.47748,-0.32468c0.18456,0 0.31514,0.09229 0.39153,0.27694c0.07639,0.17823 0.11459,0.45516 0.11459,0.8308c0,0.12735 -0.00955,0.24508 -0.02865,0.35333l-0.02865,-0.19099c0.12727,-0.41384 0.33102,-0.73532 0.61117,-0.96451c0.28006,-0.23552 0.59207,-0.35333 0.93586,-0.35333c0.45195,0 0.80529,0.14646 1.06,0.43928c0.25463,0.28648 0.39466,0.68436 0.42018,1.19369zM249.85928,177.45027c0.25463,0 0.43607,0.07006 0.54433,0.21009c0.1146,0.14003 0.17189,0.30237 0.17189,0.48703c0,0.22919 -0.07006,0.40742 -0.21009,0.53477c-0.13369,0.12093 -0.32468,0.18144 -0.57297,0.18144c-0.24195,0 -0.42339,-0.06685 -0.54432,-0.20054c-0.12102,-0.14003 -0.18144,-0.30237 -0.18144,-0.48702c0,-0.24195 0.07318,-0.4234 0.21964,-0.54433c0.14637,-0.12093 0.33736,-0.18144 0.57297,-0.18144zM249.91658,179.57982c0.20367,0 0.36288,0.19099 0.47747,0.57297c0.12093,0.38198 0.18144,0.98994 0.18144,1.82396c0,1.02501 -0.07327,1.76345 -0.21964,2.21549c-0.14646,0.45204 -0.3693,0.67802 -0.66846,0.67802c-0.22919,0 -0.39795,-0.16556 -0.50612,-0.49658c-0.10826,-0.33745 -0.16235,-0.92309 -0.16235,-1.75711c0,-1.02501 0.08274,-1.78576 0.24829,-2.28233c0.17189,-0.50292 0.38832,-0.75442 0.64937,-0.75442zM253.35589,179.02594h-0.19099c-0.0191,-0.28015 -0.01276,-0.54432 0.01909,-0.79261c0.03186,-0.25463 0.0987,-0.45838 0.20054,-0.61117c0.10825,-0.15913 0.26105,-0.23873 0.45838,-0.23873c0.17823,0 0.3088,0.05729 0.39153,0.17189c0.08274,0.1146 0.12415,0.27372 0.12415,0.47747c0,0.40108 -0.0764,0.74487 -0.22919,1.03135l-0.17189,-0.0191c0.34379,-0.12093 0.7321,-0.18144 1.16504,-0.18144c0.27373,0 0.49024,0.05408 0.64937,0.16234c0.16555,0.10183 0.24829,0.27693 0.24829,0.52522c0,0.23552 -0.0955,0.41385 -0.28649,0.53478c-0.19099,0.12093 -0.42973,0.18144 -0.71621,0.18144c-0.17189,0 -0.35654,-0.00634 -0.55387,-0.0191c-0.19099,-0.0191 -0.37877,-0.04775 -0.56342,-0.08595l0.16234,-0.20054c0.0573,0.24195 0.11138,0.51889 0.16234,0.83081c0.0573,0.30559 0.10826,0.62394 0.1528,0.95496c0.04453,0.33102 0.07961,0.65258 0.10505,0.9645c0.02543,0.31192 0.03819,0.59207 0.03819,0.84036c0,0.40742 -0.06363,0.72897 -0.19099,0.9645c-0.12735,0.23552 -0.31513,0.35334 -0.56342,0.35334c-0.19733,0 -0.35333,-0.06051 -0.46793,-0.18144c-0.10825,-0.12093 -0.18777,-0.27373 -0.23874,-0.45838c-0.04453,-0.19099 -0.07319,-0.38832 -0.08595,-0.59207c-0.00633,-0.20375 -0.00955,-0.38832 -0.00955,-0.55388c0,-0.28015 0.01276,-0.59528 0.0382,-0.9454c0.02543,-0.35655 0.06051,-0.72255 0.10505,-1.0982c0.05096,-0.37564 0.10825,-0.73853 0.17189,-1.08865l0.19099,0.16235c-0.32468,0.16556 -0.72577,0.24828 -1.20324,0.24828c-0.29283,0 -0.51889,-0.05408 -0.67802,-0.16234c-0.15913,-0.10826 -0.23873,-0.27694 -0.23873,-0.50612c0,-0.24829 0.08915,-0.43928 0.26738,-0.57297c0.17823,-0.14003 0.41697,-0.21009 0.71621,-0.21009c0.19733,0 0.38198,0.01276 0.55387,0.0382c0.17823,0.0191 0.33424,0.04454 0.46793,0.0764z" fill="#000000" stroke="none"/></g></g></svg>