<svg version="1.1" xmlns="http://www.w3.org/2000/svg" xmlns:xlink="http://www.w3.org/1999/xlink" width="21.44331" height="25.85949" viewBox="0,0,21.44331,25.85949"><g transform="translate(-229.27834,-167.07026)"><g data-paper-data="{&quot;isPaintingLayer&quot;:true}" fill-rule="evenodd" stroke="none" stroke-width="1" stroke-linecap="butt" stroke-linejoin="miter" stroke-miterlimit="10" stroke-dasharray="" stroke-dashoffset="0" style="mix-blend-mode: normal"><g><g><path d="M236.40692,187.94091c0.46989,0.31022 1.78676,0.59449 1.78676,0.59449c0,0 1.09963,-1.27709 1.56371,-1.83664l-2.42913,-0.63115c-0.28716,0.54762 -0.82428,1.66699 -0.92134,1.87329z" fill="#a0640a"/><path d="M236.57854,187.00152l2.95893,0.71092l1.46437,-2.51363c0,0 0.01479,-0.8933 -1.55442,-1.09845c-1.56923,-0.20515 -2.11244,1.21653 -2.11244,1.21653z" fill="#000000"/></g><g><g><path d="M233.22625,192.11187c0.08795,0.05179 1.69977,0.81787 1.69977,0.81787c0.08898,-0.0637 0.17848,-0.18516 0.24385,-0.26948l-0.96093,-0.53908c-0.15633,-0.01168 -0.75394,-0.10908 -0.9168,-0.15139c-0.00704,0.02711 -0.07594,0.12497 -0.0659,0.14206z" fill="#000000"/><path d="M235.18344,192.6638c0.13725,-0.13798 1.8317,-2.14325 2.58947,-3.21974c0.08951,-0.12145 0.45051,-0.56306 0.84572,-1.02472l-2.36129,-0.61352l-2.0484,4.31537z" fill="#f01446"/></g><path d="M238.48034,188.67282l-2.38191,-0.58994l-0.20771,0.40909l2.26278,0.6024z" fill="#f5cfcf"/><path d="M237.96092,189.33376l-2.20145,-0.61541l-0.19713,0.36842l2.05819,0.665z" fill="#f5cfcf"/></g></g><g><g><path d="M245.07237,187.95233c-0.22435,-0.33613 -0.23836,-0.72827 -0.26639,-1.09241c-0.28043,-0.22408 -2.14525,0.19607 -2.4958,0.33613c0.14022,0.70027 0.32249,1.42856 0.77118,2.03078c0.30846,-0.01399 0.70106,-0.44817 0.96745,-0.60221c0.32249,-0.21009 0.70107,-0.40617 1.02356,-0.67227z" fill="#a0640a"/><path d="M241.3848,185.47336l0.42065,2.35293l3.54736,-0.91035l-0.5328,-2.36693c0,0 -0.39261,-1.42855 -2.1032,-1.02239c-1.73863,0.40617 -1.33201,1.93275 -1.33201,1.94675z" fill="#000000"/></g><g><path d="M249.06883,188.47013l0.30848,0.96638c0.12618,0.18206 0.35052,0.60221 0.44866,0.7703l0.16826,0.01399c-0.04207,-0.16806 -0.42065,-1.77869 -0.56085,-1.8347h-0.21033c-0.0701,0.02801 -0.0701,0.02801 -0.15423,0.08403z" fill="#000000"/><path d="M247.54051,190.43089c0.68705,-0.28011 1.24789,-0.58825 1.85081,-1.0084l-0.30848,-0.96638c-0.67302,0.46218 -1.68255,0.7703 -2.49579,0.54622c-0.49073,-0.16806 -0.92541,-0.46218 -1.23386,-0.86835c-0.05608,-0.07002 -0.1963,-0.2941 -0.23836,-0.37813l-2.41167,1.35853c0.22435,0.32214 0.77118,0.96638 1.09367,1.19046c0.19629,0.14005 0.57486,0.25209 1.02356,0.30811c0.46268,0.12605 0.91138,0.15407 1.37409,0.14005c0.0701,0 0.95344,-0.15405 1.34602,-0.32212z" fill="#f01446"/></g><path d="M243.23598,189.9271l2.28545,-1.70866l-0.22435,-0.2661l-2.41166,1.59662z" fill="#f5cfcf"/><path d="M244.24552,190.57135l1.66853,-1.97477l-0.28043,-0.22408l-2.03308,1.94676z" fill="#f5cfcf"/></g><path d="M244.82728,184.35446l-0.49074,-2.10081l-6.42173,1.24648l-0.33651,2.0728c0.22435,-0.04202 7.24899,-1.23248 7.24899,-1.21847z" fill="#000000"/><g><path d="M236.96487,172.66693c-0.2103,-0.54622 -1.83678,-0.86833 -1.50026,0.2381c0.3365,1.10644 1.50026,0.7843 1.50026,0.7843c0,0 0.11218,-0.75628 0,-1.0224z" fill="#824600"/><path d="M235.87123,171.91062c-0.01401,1.19046 0.49075,2.25486 0.9955,2.80108c0.86933,0.91035 2.57991,0.72828 3.0286,0.58824c0.82726,-0.2661 1.61243,-1.44257 2.07514,-2.53499c0.14022,-0.42018 0.26641,-0.85432 0.36455,-1.30252l-3.93997,-2.15684c0,0 -1.79471,0.37815 -1.89286,0.5182c-0.14022,0.16806 -0.63097,1.26049 -0.63097,2.08682z" fill="#a0640a"/><path d="M242.72762,168.92748l-0.12618,-0.08405c0.19629,-0.49018 0.60289,-1.24648 -0.19632,-1.41454c-0.49073,-0.09803 -1.1918,0.44817 -1.33201,0.88234c-0.08413,0.04202 -0.08413,0.04203 -0.16825,-0.01398c0.0561,-0.36414 0.22435,-0.82632 -0.08412,-1.10644c-0.91139,-0.5182 -1.34605,0.7703 -1.87884,1.28848l-0.1262,-0.01399c-0.09814,-0.40617 0.18229,-0.96637 -0.42065,-0.98039c-0.40662,-0.01399 -0.5889,0.33613 -0.7852,0.60223c-0.49073,0.63025 -1.16377,1.7507 -1.16377,1.7507c0,0 0,0.70027 1.0516,0.88234c0.51879,0.09803 1.43016,-0.44819 2.81827,0.09803c1.38809,0.54622 1.37409,2.43693 1.37409,2.43693c0,0 1.52832,-2.8151 1.71061,-3.22123c0.14022,-0.30813 0.51879,-1.19049 0.19629,-1.45657c-0.23836,-0.19607 -0.659,0.22408 -0.86933,0.35014z" fill="#000000"/><path d="M241.47973,173.59129c0,0 1.16375,0.32212 1.50027,-0.78432c0.3365,-1.10644 -1.28996,-0.7843 -1.50027,-0.23808c-0.09814,0.26608 0,1.0224 0,1.0224z" fill="#a0640a"/><path d="M239.30642,173.31116c-0.60289,0.05602 -1.14973,0.28012 -1.71059,0.5182c0.28043,0.95238 2.27144,0.35014 1.71059,-0.5182z" fill="#000000"/><path d="M238.21278,173.01706c0.3365,-0.60223 -0.96747,-1.14846 -1.13572,-0.2661c-0.11218,0.68626 0.72909,0.36414 1.13572,0.2661z" fill="#824600"/><g fill="#000000"><path d="M239.3451,172.41298l0.08413,0.19607h0.14022c0.04207,-0.2381 -0.14022,-0.60223 -0.22435,-0.19607z"/><path d="M236.3165,172.91718l0.1262,-0.01399l0.04207,-0.28011c-0.08413,-0.09805 -0.08413,-0.09805 -0.16825,-0.07004c-0.04207,0.11205 -0.04207,0.2381 0,0.36415z"/></g></g><g><path d="M229.28847,178.55396c0.04207,0.11205 1.38811,1.03641 2.80425,1.27449c1.72459,0.28012 3.61748,-0.12603 4.40266,-0.30811v-2.52096c-0.82724,0.35014 -1.78068,0.85433 -2.06111,0.95236c-0.47674,0.16808 -2.13125,0.46218 -2.11723,0.44819c-0.32248,0.01399 -0.64496,0.01399 -0.95344,-0.04202c-0.23836,-0.042 -0.68703,-0.21007 -0.88334,-0.2661c-0.56085,-0.15405 -0.82725,-0.32212 -0.86931,-0.23808c-0.01401,0.07002 0.67302,0.39214 0.58889,0.4902c-0.08411,0.09803 -0.77116,-0.28013 -0.81322,-0.18208c-0.0701,0.11205 0.68705,0.43418 0.56085,0.56021c-0.11216,0.12605 -0.75714,-0.40615 -0.659,-0.16806z" fill="#a0640a"/><path d="M235.17738,177.20944c0,0.05602 0.72911,2.94114 0.72911,2.94114c0,0 2.20134,-0.70027 2.76219,-0.98036c0,0 2.56587,-1.13445 1.991,-2.60502c-0.57486,-1.47056 -2.21536,-0.65827 -2.21536,-0.65827c0.02806,-0.02801 -3.0987,1.21847 -3.26696,1.30252z" fill="#be0a3c"/><path d="M231.12524,178.77804c0.3365,-0.01399 0.42065,-0.36414 0.42065,-0.36414c0,0 -0.88334,-0.82632 -0.9955,-0.74229c-0.09814,0.08403 0.08413,0.30811 0.22435,0.56023c-0.35054,0.2521 0,0.5742 0.35052,0.5462z" fill="#824600"/></g><g><path d="M248.92149,181.75731c0.44869,-0.12603 -0.18228,-1.87672 -0.28043,-2.03077c-0.08413,0.18206 0.08413,1.93275 0.28043,2.03077z" fill="#824600"/><path d="M243.67753,174.67055l0.49076,2.52099c0.72909,-0.12605 1.55636,0.12603 2.1172,0.50419c0.43465,0.30811 1.09365,1.06442 1.43016,1.47056c0.75714,0.86835 2.01906,3.12321 2.10319,3.06719c0.08413,-0.05602 -0.3365,-0.79828 -0.22435,-0.88234c0.11218,-0.08403 0.51879,0.98039 0.659,0.86834c0.14022,-0.11205 -0.39259,-0.96637 -0.12618,-1.06442c0.26639,-0.09803 0.49074,0.78432 0.58889,0.64425c0.09814,-0.14005 -1.14973,-3.27728 -2.03308,-4.6218c-0.46271,-0.71428 -1.09364,-1.31652 -1.83678,-1.73668c-0.60291,-0.36414 -2.43969,-0.84031 -3.16882,-0.7703z" fill="#a0640a"/><path d="M238.77011,175.72097c0,0 -0.61693,0.68626 0.4627,1.89074c1.07963,1.20447 2.90239,0.33613 2.90239,0.33613c1.13574,-0.4902 2.42568,-0.54622 2.42568,-0.54622l0.16825,-2.8431c0,0 -0.54683,-0.21007 -2.06113,-0.08403c-1.51431,0.12605 -3.85584,1.23249 -3.89791,1.24648z" fill="#f01446"/></g><path d="M237.66242,183.92028l7.54343,-0.65826c0,0 -1.41616,-3.96354 -2.20134,-5.56015c-0.15423,-0.33613 -1.1918,-1.48458 -1.24788,-1.5266c-0.53281,-0.39214 -1.318,-0.57422 -1.96298,-0.63024c-1.93493,-0.16806 -2.98653,1.93275 -2.94447,3.64141c0.02805,0.91035 0.82726,4.73383 0.81322,4.73383z" fill="#f01446"/></g></g></svg>