<svg version="1.1" xmlns="http://www.w3.org/2000/svg" xmlns:xlink="http://www.w3.org/1999/xlink" width="118.5005" height="64.50709" viewBox="0,0,118.5005,64.50709"><g transform="translate(-180.49999,-147.50001)"><g data-paper-data="{&quot;isPaintingLayer&quot;:true}" fill-rule="nonzero" stroke="#000000" stroke-linecap="butt" stroke-linejoin="miter" stroke-miterlimit="10" stroke-dasharray="" stroke-dashoffset="0" style="mix-blend-mode: normal"><path d="M189.6429,208.53308c0,1.91864 -1.70005,3.47401 -3.79717,3.47401c-2.09713,0 -3.79718,-1.55536 -3.79718,-3.47401c0,-1.91864 1.70005,-3.47402 3.79718,-3.47402c2.09713,0 3.79717,1.55537 3.79717,3.47402z" fill="#ff0000" stroke-width="0"/><path d="M297.01454,208.48876c0,1.91864 -1.70005,3.47401 -3.79717,3.47401c-2.09713,0 -3.79718,-1.55536 -3.79718,-3.47401c0,-1.91864 1.70005,-3.47402 3.79718,-3.47402c2.09713,0 3.79717,1.55537 3.79717,3.47402z" fill="#ff0000" stroke-width="0"/><path d="M211.25067,151.11872c0,1.91864 -1.70005,3.47401 -3.79717,3.47401c-2.09713,0 -3.79718,-1.55536 -3.79718,-3.47401c0,-1.91864 1.70005,-3.47402 3.79718,-3.47402c2.09713,0 3.79717,1.55537 3.79717,3.47402z" fill="#0017ff" stroke-width="0"/><path d="M276.35316,151.80487c0,1.91864 -1.70005,3.47401 -3.79717,3.47401c-2.09713,0 -3.79718,-1.55536 -3.79718,-3.47401c0,-1.91864 1.70005,-3.47402 3.79718,-3.47402c2.09713,0 3.79717,1.55537 3.79717,3.47402z" fill="#0017ff" stroke-width="0"/><path d="M181.93906,211l23.25404,-62.49509l69.607,0.49019l22.7679,62.0049z" fill="none" stroke-width="2"/></g></g></svg>