<svg version="1.1" xmlns="http://www.w3.org/2000/svg" xmlns:xlink="http://www.w3.org/1999/xlink" width="44.25481" height="19.9674" viewBox="0,0,44.25481,19.9674"><g transform="translate(-218.09617,-170.0163)"><g data-paper-data="{&quot;isPaintingLayer&quot;:true}" fill-rule="nonzero" stroke-linecap="butt" stroke-linejoin="miter" stroke-miterlimit="10" stroke-dasharray="" stroke-dashoffset="0" style="mix-blend-mode: normal"><g><path d="" fill="#ececec" stroke="none" stroke-width="1"/><path d="" fill="none" stroke="#dcd6d6" stroke-width="1.5"/><path d="" fill="none" stroke="#dcd6d6" stroke-width="1.5"/><path d="" fill="none" stroke="#dcd6d6" stroke-width="1.5"/><path d="" fill="none" stroke="#dcd6d6" stroke-width="1.5"/><path d="" fill="none" stroke="#dcd6d6" stroke-width="1.5"/><path d="" fill="none" stroke="#dcd6d6" stroke-width="1.5"/><path d="" fill="none" stroke="#dcd6d6" stroke-width="1.5"/><path d="" fill="none" stroke="#dcd6d6" stroke-width="1.5"/><path d="" fill="none" stroke="#dcd6d6" stroke-width="1.5"/><path d="" fill="none" stroke="#dcd6d6" stroke-width="1.5"/><path d="" fill="none" stroke="#dcd6d6" stroke-width="1.5"/><path d="" fill="none" stroke="#dcd6d6" stroke-width="1.5"/><path d="" fill="none" stroke="#dcd6d6" stroke-width="1.5"/><path d="" fill="none" stroke="#dcd6d6" stroke-width="1.5"/><path d="" fill="none" stroke="#dcd6d6" stroke-width="1.5"/><path d="" fill="none" stroke="#dcd6d6" stroke-width="1.5"/><path d="" fill="none" stroke="#dcd6d6" stroke-width="1.5"/><path d="" fill="none" stroke="#dcd6d6" stroke-width="1.5"/><path d="" fill="none" stroke="#dcd6d6" stroke-width="1.5"/><path d="" fill="none" stroke="#dcd6d6" stroke-width="1.5"/><path d="" fill="none" stroke="#dcd6d6" stroke-width="1.5"/><path d="" fill="none" stroke="#dcd6d6" stroke-width="1.5"/><path d="" fill="none" stroke="#dcd6d6" stroke-width="1.5"/><path d="" fill="none" stroke="#dcd6d6" stroke-width="1.5"/><path d="" fill="none" stroke="#dcd6d6" stroke-width="1.5"/><path d="" fill="none" stroke="#dcd6d6" stroke-width="1.5"/><path d="" fill="none" stroke="#dcd6d6" stroke-width="1.5"/><path d="" fill="none" stroke="#dcd6d6" stroke-width="1.5"/><path d="" fill="none" stroke="#dcd6d6" stroke-width="1.5"/><path d="" fill="none" stroke="#dcd6d6" stroke-width="1.5"/><path d="" fill="none" stroke="#dcd6d6" stroke-width="1.5"/><path d="" fill="none" stroke="#dcd6d6" stroke-width="1.5"/><path d="" fill="none" stroke="#dcd6d6" stroke-width="1.5"/><path d="" fill="none" stroke="#dcd6d6" stroke-width="1.5"/><path d="" fill="none" stroke="#dcd6d6" stroke-width="1.5"/><path d="" fill="none" stroke="#dcd6d6" stroke-width="1.5"/><path d="" fill="none" stroke="#dcd6d6" stroke-width="1.5"/><path d="" fill="none" stroke="#dcd6d6" stroke-width="1.5"/><path d="" fill="none" stroke="#dcd6d6" stroke-width="1.5"/><path d="" fill="none" stroke="#dcd6d6" stroke-width="1.5"/><g><path d="" fill="#ebebeb" stroke="none" stroke-width="1"/><path d="" fill="none" stroke="#000000" stroke-width="0.5"/></g><path d="" fill="#737373" stroke="none" stroke-width="1"/><path d="" fill="#737373" stroke="none" stroke-width="1"/><path d="" fill="#737373" stroke="none" stroke-width="1"/><path d="" fill="#737373" stroke="none" stroke-width="1"/></g><path d="" fill="#000000" stroke="none" stroke-width="1"/><path d="" fill="#000000" stroke="none" stroke-width="1"/><path d="M221.50134,170.5163h37.44447c1.6043,0 2.90517,1.27397 2.90517,2.84511v13.27718c0,1.57113 -1.30087,2.84511 -2.90517,2.84511h-37.44447c-1.6045,0 -2.90517,-1.27397 -2.90517,-2.84511v-13.27718c0,-1.57113 1.30068,-2.84511 2.90517,-2.84511z" fill="#a5a7a9" stroke="#000000" stroke-width="1"/><path d="M232.35766,182.87988c-0.29355,0 -0.53732,-0.05311 -0.73146,-0.15996c-0.18936,-0.11128 -0.33138,-0.28072 -0.42609,-0.5077c-0.06631,-0.15743 -0.11602,-0.34773 -0.14913,-0.57028c-0.02841,-0.22698 -0.04261,-0.48683 -0.04261,-0.77893c0,-0.50074 0.01659,-0.91359 0.04971,-1.23794c0.03312,-0.3294 0.0805,-0.59368 0.14203,-0.79283c0.06631,-0.20421 0.13965,-0.3686 0.22015,-0.49378c0.12783,-0.19031 0.33138,-0.34331 0.61073,-0.45901c0.27935,-0.1157 0.67465,-0.17387 1.18595,-0.17387c0.34088,0 0.61312,0.05121 0.81668,0.153c0.20833,0.09737 0.35746,0.22698 0.4474,0.38946c0.09471,0.16249 0.14203,0.34331 0.14203,0.54247c0,0.31549 -0.09471,0.57471 -0.28406,0.77893c-0.18936,0.20421 -0.4379,0.36607 -0.74566,0.48683v0.02782c0.33616,0.03731 0.59653,0.14352 0.78117,0.31992c0.18936,0.17134 0.28406,0.41728 0.28406,0.7372c0,0.25479 -0.06631,0.48936 -0.19884,0.70243c-0.12783,0.20865 -0.30298,0.39199 -0.52551,0.54942c-0.21776,0.153 -0.46399,0.27376 -0.73856,0.36165c-0.27457,0.08345 -0.55392,0.12518 -0.83798,0.12518zM232.5778,182.04532c0.22725,0 0.42848,-0.03731 0.60363,-0.11128c0.17993,-0.07397 0.31957,-0.17387 0.41899,-0.29905c0.10413,-0.12961 0.15623,-0.27566 0.15623,-0.43815c0,-0.17639 -0.08761,-0.32244 -0.26275,-0.43815c-0.17044,-0.12076 -0.4379,-0.18082 -0.80247,-0.18082c-0.24617,0 -0.44269,0.05816 -0.58943,0.17387c-0.14203,0.11128 -0.21305,0.30348 -0.21305,0.57724c0,0.25986 0.05681,0.4451 0.17044,0.55638c0.11363,0.10685 0.28645,0.15996 0.51841,0.15996zM232.60621,179.84067c0.32196,0 0.58943,-0.06955 0.80247,-0.20865c0.21776,-0.14352 0.32667,-0.3294 0.32667,-0.55638c0,-0.16691 -0.06863,-0.30158 -0.20594,-0.40337c-0.13731,-0.10179 -0.33849,-0.153 -0.60363,-0.153c-0.28878,0 -0.52551,0.05564 -0.71015,0.16691c-0.18464,0.11128 -0.27696,0.30158 -0.27696,0.57028c0,0.21813 0.0592,0.37113 0.17754,0.45901c0.12312,0.08345 0.28645,0.12518 0.49001,0.12518zM238.54936,182.91466c-0.16094,0 -0.27225,-0.06006 -0.33377,-0.18082c-0.05681,-0.12518 -0.08993,-0.32244 -0.09942,-0.59115l0.07102,0.03477c-0.26515,0.50517 -0.76697,0.75806 -1.50553,0.75806c-0.33616,0 -0.61545,-0.05816 -0.83798,-0.17387c-0.22254,-0.12076 -0.38819,-0.27819 -0.49711,-0.47292c-0.10413,-0.19916 -0.15623,-0.41476 -0.15623,-0.64679c0,-0.39894 0.14203,-0.71381 0.42609,-0.94584c0.28406,-0.23646 0.66044,-0.35469 1.12914,-0.35469c0.30775,0 0.57522,0.04426 0.80247,0.13214c0.22725,0.08788 0.42138,0.21117 0.58232,0.3686l-0.12073,-0.01391c-0.03312,-0.46849 -0.13731,-0.80232 -0.31246,-1.00148c-0.17044,-0.20421 -0.41428,-0.306 -0.73146,-0.306c-0.18464,0 -0.35508,0.02782 -0.51131,0.08345c-0.15623,0.05564 -0.30065,0.11381 -0.43319,0.17387c-0.12783,0.05564 -0.24855,0.08345 -0.36217,0.08345c-0.11363,0 -0.20355,-0.03731 -0.26986,-0.11128c-0.06152,-0.07397 -0.09232,-0.16944 -0.09232,-0.28515c0,-0.16691 0.0805,-0.32434 0.24146,-0.47292c0.16573,-0.14858 0.38348,-0.26871 0.65334,-0.36165c0.26986,-0.09294 0.56341,-0.1391 0.88059,-0.1391c0.38348,0 0.71254,0.09041 0.98711,0.27123c0.27457,0.18082 0.4829,0.4451 0.62494,0.79283c0.12312,0.29652 0.21065,0.62846 0.26275,0.99453c0.0521,0.36607 0.07812,0.75806 0.07812,1.17535c0,0.31549 -0.01659,0.55891 -0.04971,0.73025c-0.03312,0.17134 -0.08522,0.2921 -0.15623,0.36165c-0.06631,0.06512 -0.15623,0.09737 -0.26986,0.09737zM236.97992,182.13573c0.15623,0 0.31486,-0.02087 0.4758,-0.0626c0.16094,-0.04616 0.29588,-0.11381 0.40479,-0.20168c0.10891,-0.08788 0.16334,-0.19726 0.16334,-0.32687c0,-0.11128 -0.04732,-0.20168 -0.14203,-0.27123c-0.08993,-0.07397 -0.21065,-0.12961 -0.36217,-0.16691c-0.14674,-0.03731 -0.30536,-0.05564 -0.4758,-0.05564c-0.28878,0 -0.50892,0.04868 -0.66044,0.14605c-0.14674,0.09737 -0.22015,0.22698 -0.22015,0.38946c0,0.17639 0.06863,0.31296 0.20594,0.41033c0.14203,0.09294 0.34559,0.1391 0.61073,0.1391zM241.6384,182.92161c-0.65334,0 -1.13392,-0.16691 -1.44162,-0.50074c-0.30304,-0.33383 -0.4545,-0.79726 -0.4545,-1.39095c0,-0.45901 0.08993,-0.86491 0.26986,-1.21708c0.18464,-0.35722 0.4474,-0.63541 0.78827,-0.83457c0.34559,-0.20421 0.75747,-0.306 1.23566,-0.306c0.4308,0 0.75747,0.06955 0.98001,0.20865c0.22725,0.13467 0.34088,0.30854 0.34088,0.5216c0,0.12961 -0.04261,0.23393 -0.12783,0.31296c-0.0805,0.07397 -0.20123,0.11128 -0.36217,0.11128c-0.09,0 -0.18231,-0.01391 -0.27696,-0.04173c-0.09,-0.02782 -0.18942,-0.05564 -0.29827,-0.08345c-0.10891,-0.02782 -0.23913,-0.04173 -0.39059,-0.04173c-0.39298,0 -0.68885,0.10179 -0.88769,0.306c-0.19413,0.20421 -0.29117,0.49821 -0.29117,0.88325c0,0.36607 0.09465,0.63288 0.28406,0.7998c0.18936,0.16249 0.4474,0.24342 0.77407,0.24342c0.16094,0 0.30059,-0.01644 0.41899,-0.04868c0.12305,-0.03731 0.23667,-0.07208 0.34088,-0.10432c0.10884,-0.03731 0.21776,-0.05564 0.32667,-0.05564c0.10884,0 0.19884,0.03477 0.26986,0.10432c0.07102,0.06512 0.10652,0.15996 0.10652,0.28515c0,0.14352 -0.0592,0.28072 -0.17754,0.41033c-0.1184,0.12961 -0.29594,0.23646 -0.53261,0.31992c-0.23674,0.07903 -0.535,0.11823 -0.8948,0.11823zM244.30651,182.91466c-0.09,0 -0.16334,-0.02529 -0.22015,-0.0765c-0.05681,-0.05564 -0.0971,-0.13467 -0.12073,-0.23646c-0.0379,-0.17134 -0.07102,-0.41981 -0.09942,-0.74415c-0.02841,-0.32434 -0.04261,-0.68409 -0.04261,-1.07798c0,-0.48683 0.01653,-0.95532 0.04971,-1.40485c0.03783,-0.44953 0.08522,-0.81813 0.14203,-1.1058c0.06152,-0.31044 0.13725,-0.53804 0.22725,-0.68156c0.08993,-0.14858 0.20827,-0.22255 0.35508,-0.22255c0.13254,0 0.23435,0.06006 0.30536,0.18082c0.07102,0.1157 0.10652,0.31739 0.10652,0.60506c0,0.28767 -0.01187,0.59557 -0.0355,0.92498c-0.01898,0.3294 -0.0521,0.68156 -0.09942,1.05712h0.02841c0.30769,-0.4078 0.59414,-0.73467 0.85928,-0.98061c0.26986,-0.24594 0.51628,-0.42424 0.73836,-0.53551c0.22725,-0.11128 0.42867,-0.16691 0.60363,-0.16691c0.13751,0 0.23952,0.04173 0.30536,0.12518c0.0665,0.08345 0.09942,0.18524 0.09942,0.306c0,0.23646 -0.19368,0.50074 -0.58232,0.79283c-0.38348,0.2921 -0.93721,0.59115 -1.66156,0.89716l0.0071,-0.11128c0.44972,0.22698 0.83585,0.46597 1.15736,0.71633c0.32667,0.24594 0.57522,0.47988 0.74566,0.70243c0.1756,0.21813 0.26275,0.40084 0.26275,0.54942c0,0.12076 -0.04003,0.22002 -0.12073,0.29905c-0.07554,0.07397 -0.18657,0.11128 -0.33377,0.11128c-0.18464,0 -0.39059,-0.06702 -0.61784,-0.20168c-0.22209,-0.1391 -0.4543,-0.34521 -0.69576,-0.61897c-0.24146,-0.27376 -0.4829,-0.61644 -0.72436,-1.0293h-0.02841c-0.00478,0.2921 -0.02369,0.57724 -0.05681,0.85543c-0.02841,0.27376 -0.06631,0.49821 -0.11363,0.67461c-0.03318,0.12076 -0.08522,0.21813 -0.15623,0.2921c-0.06631,0.06955 -0.16101,0.10432 -0.28406,0.10432z" fill="#000000" stroke="none" stroke-width="1"/><path d="" fill="#a5a7a9" stroke="#000000" stroke-width="1"/><path d="" fill="#000000" stroke="none" stroke-width="1"/></g></g></svg>