<svg version="1.1" xmlns="http://www.w3.org/2000/svg" xmlns:xlink="http://www.w3.org/1999/xlink" width="100.3674" height="11.92528" viewBox="0,0,100.3674,11.92528"><g transform="translate(-189.8163,-174.03736)"><g fill="#000000" stroke="none" stroke-miterlimit="10"><path d="M190.61373,183.71532c-0.14499,0 -0.26178,-0.04833 -0.35038,-0.14499c-0.08861,-0.10468 -0.16111,-0.26987 -0.21748,-0.49538c-0.05638,-0.25778 -0.10874,-0.66048 -0.15707,-1.20824c-0.04833,-0.55578 -0.0725,-1.17601 -0.0725,-1.86069c0,-0.74105 0.02014,-1.46197 0.06041,-2.16274c0.04833,-0.70883 0.11679,-1.33309 0.2054,-1.87276c0.06444,-0.35442 0.15707,-0.6162 0.2779,-0.78536c0.12888,-0.1772 0.3061,-0.26581 0.53162,-0.26581c0.14499,0 0.27387,0.04833 0.38664,0.14499c0.11277,0.09666 0.19735,0.26985 0.25373,0.51954c0.06444,0.24971 0.09666,0.60412 0.09666,1.06324c0,0.22553 -0.00805,0.48329 -0.02416,0.77327c-0.01611,0.28192 -0.04028,0.59607 -0.0725,0.94243h0.04833c0.64439,-0.88604 1.21226,-1.59084 1.70362,-2.11442c0.49134,-0.53162 0.92228,-0.91422 1.29281,-1.14783c0.37859,-0.23359 0.70883,-0.35038 0.99076,-0.35038c0.22553,0 0.39469,0.0725 0.50746,0.21748c0.12083,0.14499 0.18124,0.3222 0.18124,0.53162c0,0.44301 -0.33427,0.97464 -1.00284,1.59487c-0.6605,0.62023 -1.72778,1.36531 -3.20183,2.23524l0.09666,-0.22957c1.27268,0.80549 2.23524,1.51835 2.88769,2.13858c0.65245,0.61217 0.97867,1.15585 0.97867,1.63112c0,0.20946 -0.06847,0.38258 -0.2054,0.51954c-0.12888,0.12885 -0.3222,0.19332 -0.57995,0.19332c-0.3222,0 -0.66453,-0.10874 -1.027,-0.32622c-0.36248,-0.22552 -0.76522,-0.60006 -1.20824,-1.12366c-0.43497,-0.53162 -0.93034,-1.25254 -1.48613,-2.16274h-0.04833c0.01611,0.18526 0.02819,0.37859 0.03625,0.57995c0.00805,0.19332 0.01209,0.38664 0.01209,0.57995c0,0.92628 -0.06444,1.59082 -0.19332,1.9936c-0.12888,0.39466 -0.36248,0.59203 -0.70077,0.59203zM200.66688,183.69116c-0.8941,0 -1.60696,-0.13291 -2.13858,-0.39872c-0.53162,-0.26581 -0.91427,-0.64839 -1.14786,-1.14783c-0.23359,-0.4994 -0.35038,-1.09546 -0.35038,-1.7882c0,-0.87798 0.16109,-1.62307 0.48329,-2.23524c0.33023,-0.62023 0.78134,-1.09546 1.35326,-1.42572c0.57995,-0.33026 1.23637,-0.49538 1.96943,-0.49538c0.86181,0 1.49416,0.20136 1.89693,0.60412c0.40268,0.39469 0.60412,0.91422 0.60412,1.55862c0,0.51551 -0.13696,0.96256 -0.4108,1.34114c-0.26581,0.37053 -0.63639,0.65648 -1.11158,0.85785c-0.47527,0.20136 -1.02304,0.30206 -1.6432,0.30206c-0.34642,0 -0.68067,-0.0443 -1.00284,-0.13291c-0.32225,-0.08861 -0.61223,-0.20943 -0.86993,-0.36248l0.28998,-0.53162c-0.02416,0.19332 -0.03625,0.38664 -0.03625,0.57995c0,0.56384 0.17718,0.97062 0.53162,1.22032c0.35436,0.24165 0.85785,0.36248 1.5103,0.36248c0.50746,0 0.91421,-0.04428 1.22032,-0.13291c0.30603,-0.08861 0.56381,-0.17318 0.77327,-0.25373c0.20937,-0.08861 0.41477,-0.13291 0.6162,-0.13291c0.11271,0 0.21342,0.03222 0.30206,0.09666c0.09666,0.05638 0.17313,0.14096 0.22957,0.25373c0.06439,0.1128 0.09666,0.24968 0.09666,0.4108c0,0.24165 -0.12083,0.47527 -0.36248,0.70077c-0.24165,0.21748 -0.60015,0.39872 -1.07534,0.54372c-0.46724,0.13696 -1.04314,0.2054 -1.72778,0.2054zM199.9661,179.74023c0.57184,0 1.03098,-0.12083 1.37739,-0.36248c0.34634,-0.24165 0.51954,-0.53968 0.51954,-0.8941c0,-0.28192 -0.09666,-0.5115 -0.28998,-0.6887c-0.18529,-0.18526 -0.47932,-0.2779 -0.88201,-0.2779c-0.37861,0 -0.72097,0.0725 -1.027,0.21748c-0.29809,0.13693 -0.53162,0.31816 -0.70077,0.54372c-0.16914,0.22553 -0.25373,0.47121 -0.25373,0.73702c0,0.23359 0.10874,0.41483 0.32622,0.54372c0.22552,0.12083 0.53559,0.18124 0.93034,0.18124zM206.19914,183.61867c-0.24968,0 -0.44704,-0.05635 -0.59203,-0.16914c-0.14499,-0.12083 -0.26175,-0.3182 -0.35038,-0.59203c-0.12083,-0.40277 -0.21342,-0.91024 -0.2779,-1.52238c-0.05635,-0.62023 -0.08458,-1.38142 -0.08458,-2.28357c0,-0.55578 0.02012,-1.11158 0.06041,-1.66736c0.04833,-0.56384 0.10874,-1.07534 0.18124,-1.53446c0.0725,-0.46718 0.14905,-0.82965 0.22957,-1.08741c0.08863,-0.27387 0.19332,-0.46315 0.31414,-0.56788c0.12083,-0.10471 0.25778,-0.15707 0.4108,-0.15707c0.16112,0 0.28998,0.05638 0.38664,0.16914c0.09666,0.10471 0.17322,0.29401 0.22957,0.56788c0.04833,0.26581 0.08458,0.59203 0.10874,0.97867c0.03219,0.38664 0.04833,0.80147 0.04833,1.24448c0,0.60412 -0.02822,1.24046 -0.08458,1.90902c-0.05635,0.66856 -0.13291,1.32503 -0.22957,1.96943c-0.08863,0.64439 -0.19737,1.23646 -0.32622,1.7761l-0.33831,-0.16914c0.20946,-0.25778 0.44704,-0.45913 0.71286,-0.60412c0.27384,-0.14499 0.5236,-0.21748 0.74911,-0.21748c0.18529,0 0.32622,0.05236 0.42288,0.15707c0.10468,0.09666 0.15707,0.24968 0.15707,0.45913c0,0.20946 -0.09261,0.41883 -0.2779,0.62828c-0.17718,0.20946 -0.39872,0.38258 -0.66453,0.51954c-0.26581,0.12885 -0.52757,0.19332 -0.78536,0.19332zM210.08725,174.32733c0.32216,0 0.55174,0.08861 0.6887,0.26581c0.14499,0.1772 0.21748,0.3826 0.21748,0.6162c0,0.28998 -0.08863,0.51551 -0.26581,0.67661c-0.16914,0.15304 -0.4108,0.22957 -0.72495,0.22957c-0.30611,0 -0.53568,-0.08458 -0.6887,-0.25373c-0.1531,-0.1772 -0.22957,-0.3826 -0.22957,-0.6162c0,-0.3061 0.09261,-0.53566 0.2779,-0.6887c0.1852,-0.15304 0.42685,-0.22957 0.72495,-0.22957zM210.15974,177.0217c0.2577,0 0.45913,0.24165 0.60412,0.72495c0.15302,0.48329 0.22957,1.25254 0.22957,2.30773c0,1.29685 -0.09269,2.23119 -0.2779,2.80311c-0.18529,0.57193 -0.46724,0.85785 -0.84576,0.85785c-0.28998,0 -0.50349,-0.20946 -0.64036,-0.62828c-0.13696,-0.42694 -0.2054,-1.16793 -0.2054,-2.22316c0,-1.29685 0.10468,-2.2594 0.31414,-2.88769c0.21748,-0.63634 0.49132,-0.9545 0.8216,-0.9545zM213.77427,183.61867c-0.24975,0 -0.44704,-0.05635 -0.59203,-0.16914c-0.14499,-0.12083 -0.26185,-0.3182 -0.35038,-0.59203c-0.12083,-0.40277 -0.21351,-0.91024 -0.2779,-1.52238c-0.05645,-0.62023 -0.08458,-1.38142 -0.08458,-2.28357c0,-0.55578 0.02012,-1.11158 0.06041,-1.66736c0.04833,-0.56384 0.10874,-1.07534 0.18124,-1.53446c0.0725,-0.46718 0.14896,-0.82965 0.22957,-1.08741c0.08855,-0.27387 0.19332,-0.46315 0.31414,-0.56788c0.12083,-0.10471 0.2577,-0.15707 0.4108,-0.15707c0.16104,0 0.28998,0.05638 0.38664,0.16914c0.09666,0.10471 0.17313,0.29401 0.22957,0.56788c0.04833,0.26581 0.08458,0.59203 0.10874,0.97867c0.03219,0.38664 0.04833,0.80147 0.04833,1.24448c0,0.60412 -0.02822,1.24046 -0.08458,1.90902c-0.05645,0.66856 -0.13291,1.32503 -0.22957,1.96943c-0.08863,0.64439 -0.19737,1.23646 -0.32622,1.7761l-0.33831,-0.16914c0.20937,-0.25778 0.44704,-0.45913 0.71286,-0.60412c0.27384,-0.14499 0.52352,-0.21748 0.74911,-0.21748c0.1852,0 0.32622,0.05236 0.42288,0.15707c0.10468,0.09666 0.15707,0.24968 0.15707,0.45913c0,0.20946 -0.09269,0.41883 -0.2779,0.62828c-0.17727,0.20946 -0.39872,0.38258 -0.66453,0.51954c-0.26581,0.12885 -0.52766,0.19332 -0.78536,0.19332zM217.66229,174.32733c0.32216,0 0.55174,0.08861 0.6887,0.26581c0.14499,0.1772 0.21748,0.3826 0.21748,0.6162c0,0.28998 -0.08863,0.51551 -0.26581,0.67661c-0.16914,0.15304 -0.4108,0.22957 -0.72495,0.22957c-0.30611,0 -0.53568,-0.08458 -0.6887,-0.25373c-0.15302,-0.1772 -0.22957,-0.3826 -0.22957,-0.6162c0,-0.3061 0.09261,-0.53566 0.2779,-0.6887c0.18529,-0.15304 0.42694,-0.22957 0.72495,-0.22957zM217.73478,177.0217c0.25778,0 0.45913,0.24165 0.60412,0.72495c0.15302,0.48329 0.22957,1.25254 0.22957,2.30773c0,1.29685 -0.09261,2.23119 -0.2779,2.80311c-0.18529,0.57193 -0.46715,0.85785 -0.84576,0.85785c-0.28998,0 -0.5034,-0.20946 -0.64036,-0.62828c-0.13696,-0.42694 -0.2054,-1.16793 -0.2054,-2.22316c0,-1.29685 0.10468,-2.2594 0.31414,-2.88769c0.21748,-0.63634 0.49132,-0.9545 0.8216,-0.9545zM221.27681,176.07928c0.25778,0 0.43091,0.10471 0.51954,0.31414c0.09666,0.20943 0.14499,0.51954 0.14499,0.93034c0,0.09666 -0.00802,0.20136 -0.02416,0.31414c-0.00802,0.10471 -0.02416,0.20136 -0.04833,0.28998l-0.02416,-0.24165c0.19332,-0.52357 0.49132,-0.93034 0.8941,-1.22032c0.40277,-0.29803 0.82963,-0.44704 1.28074,-0.44704c0.49944,0 0.91421,0.14096 1.24448,0.42288c0.33831,0.28192 0.58797,0.67661 0.74911,1.18407c0.16914,0.50746 0.25373,1.10755 0.25373,1.80027c0,0.42692 -0.02012,0.84979 -0.06041,1.26864c-0.03219,0.4108 -0.08051,0.78938 -0.14499,1.13574c-0.05635,0.33831 -0.12083,0.6162 -0.19332,0.83369c-0.09666,0.27384 -0.22154,0.47924 -0.37455,0.6162c-0.15302,0.12885 -0.33425,0.19332 -0.54372,0.19332c-0.20946,0 -0.3705,-0.07655 -0.48329,-0.22957c-0.1128,-0.15302 -0.16914,-0.35841 -0.16914,-0.6162c0,-0.27384 0.02012,-0.60412 0.06041,-0.99076c0.0403,-0.39469 0.07655,-0.7934 0.10874,-1.19615c0.0403,-0.4108 0.06041,-0.78133 0.06041,-1.11158c0,-1.12769 -0.3705,-1.69153 -1.11158,-1.69153c-0.39466,0 -0.72495,0.1772 -0.99076,0.53162c-0.26581,0.34636 -0.44299,0.84174 -0.53162,1.48613c-0.02416,0.21748 -0.03625,0.48733 -0.03625,0.80952c0,0.3222 0,0.64439 0,0.96659c0.00802,0.31414 0,0.57995 -0.02416,0.79744c-0.03219,0.48329 -0.12488,0.82963 -0.2779,1.03908c-0.14499,0.20946 -0.34634,0.31414 -0.60412,0.31414c-0.298,0 -0.5236,-0.13696 -0.67661,-0.4108c-0.15302,-0.28195 -0.22957,-0.75316 -0.22957,-1.41363c0,-0.33831 0.00802,-0.71689 0.02416,-1.13574c0.01614,-0.41886 0.03625,-0.83772 0.06041,-1.25657c0.03219,-0.42692 0.06844,-0.81355 0.10874,-1.1599c0.08051,-0.65245 0.19737,-1.16796 0.35038,-1.54654c0.15302,-0.38664 0.38258,-0.57995 0.6887,-0.57995zM230.04525,183.40119c-0.75722,0 -1.37342,-0.28998 -1.8486,-0.86993c-0.47527,-0.58797 -0.71286,-1.47809 -0.71286,-2.6702c0,-1.27268 0.22957,-2.20302 0.6887,-2.79103c0.45913,-0.588 1.06324,-0.88201 1.81236,-0.88201c0.44299,0 0.83369,0.11277 1.17199,0.33831c0.33831,0.22553 0.62828,0.54372 0.86993,0.9545l-0.09666,0.16914c-0.02416,-0.11277 -0.04436,-0.23359 -0.06041,-0.36248c-0.01614,-0.12888 -0.02416,-0.22553 -0.02416,-0.28998c0,-0.33026 0.0523,-0.58399 0.15707,-0.76119c0.11271,-0.18526 0.28592,-0.2779 0.51954,-0.2779c0.2577,0 0.45913,0.10471 0.60412,0.31414c0.15302,0.20943 0.26978,0.50746 0.35038,0.8941c0.10468,0.39469 0.19332,0.89813 0.26581,1.5103c0.0725,0.60412 0.10874,1.21629 0.10874,1.83652c0,0.77327 -0.02822,1.42166 -0.08458,1.94526c-0.05645,0.5236 -0.14905,0.95857 -0.2779,1.3049c-0.12894,0.34634 -0.29809,0.64839 -0.50746,0.90617c-0.34642,0.41883 -0.79347,0.73702 -1.34114,0.9545c-0.53973,0.22552 -1.16397,0.33831 -1.87276,0.33831c-0.50746,0 -0.9143,-0.04833 -1.22032,-0.14499c-0.30611,-0.08863 -0.52766,-0.21342 -0.66453,-0.37455c-0.12894,-0.15302 -0.19332,-0.32622 -0.19332,-0.51954c0,-0.20135 0.05635,-0.3705 0.16914,-0.50746c0.11271,-0.12885 0.28187,-0.19332 0.50746,-0.19332c0.20135,0 0.43497,0.03219 0.70077,0.09666c0.27384,0.06447 0.59601,0.09666 0.96659,0.09666c0.7813,0 1.33303,-0.18529 1.65528,-0.55578c0.33019,-0.36248 0.49538,-0.88608 0.49538,-1.57071c0,-0.18529 -0.01209,-0.40277 -0.03625,-0.65245l0.16914,0.06041c-0.20144,0.51549 -0.49944,0.93034 -0.8941,1.24448c-0.39474,0.30611 -0.85387,0.45913 -1.37739,0.45913zM230.50437,181.91506c0.2577,0 0.51549,-0.06847 0.77327,-0.2054c0.2577,-0.13693 0.47121,-0.36248 0.64036,-0.67661c0.16914,-0.31414 0.25373,-0.73702 0.25373,-1.26864c0,-0.63634 -0.14905,-1.15588 -0.44704,-1.55862c-0.29809,-0.40275 -0.71692,-0.60412 -1.25657,-0.60412c-0.46724,0 -0.80952,0.1772 -1.027,0.53162c-0.21748,0.35442 -0.32622,0.89006 -0.32622,1.60696c0,0.68466 0.10874,1.22032 0.32622,1.60696c0.21748,0.37859 0.57184,0.56788 1.06324,0.56788zM240.00259,183.76366c-0.78941,0 -1.4056,-0.29403 -1.8486,-0.88201c-0.44299,-0.5961 -0.66453,-1.50224 -0.66453,-2.71853c0,-1.20824 0.21748,-2.09025 0.65245,-2.64604c0.44299,-0.56384 1.07534,-0.84576 1.89693,-0.84576c0.46715,0 0.87398,0.09666 1.22032,0.28998c0.35445,0.19332 0.66858,0.46718 0.94243,0.8216l-0.09666,0.04833c-0.0725,-0.33026 -0.14499,-0.68064 -0.21748,-1.05117c-0.0725,-0.37053 -0.13291,-0.72091 -0.18124,-1.05117c-0.0403,-0.33831 -0.06041,-0.60412 -0.06041,-0.79744c0,-0.27387 0.04428,-0.48329 0.13291,-0.62828c0.08863,-0.15304 0.22957,-0.22957 0.42288,-0.22957c0.27384,0 0.49538,0.11679 0.66453,0.35038c0.16914,0.22553 0.31009,0.57593 0.42288,1.05117c0.10468,0.42692 0.19737,0.93437 0.2779,1.52238c0.08051,0.57995 0.14499,1.18811 0.19332,1.82444c0.05635,0.62828 0.08458,1.2324 0.08458,1.81236c0,0.80549 -0.04428,1.43375 -0.13291,1.88485c-0.08051,0.44299 -0.19737,0.75316 -0.35038,0.93034c-0.14499,0.17718 -0.3182,0.26581 -0.51954,0.26581c-0.24968,0 -0.41883,-0.12488 -0.50746,-0.37455c-0.08863,-0.24968 -0.12488,-0.65651 -0.10874,-1.22032h0.18124c-0.21748,0.49944 -0.53568,0.89815 -0.9545,1.19615c-0.4108,0.298 -0.8941,0.44704 -1.44988,0.44704zM240.64295,182.26544c0.28998,0 0.55578,-0.0725 0.79744,-0.21748c0.24968,-0.15302 0.44704,-0.38664 0.59203,-0.70077c0.15302,-0.31414 0.22957,-0.71286 0.22957,-1.19615c0,-0.62023 -0.14093,-1.12366 -0.42288,-1.5103c-0.28195,-0.39469 -0.6887,-0.59203 -1.22032,-0.59203c-0.41883,0 -0.76119,0.17318 -1.027,0.51954c-0.25778,0.34636 -0.38664,0.86993 -0.38664,1.57071c0,0.62023 0.12885,1.13172 0.38664,1.53446c0.26581,0.39466 0.6162,0.59203 1.05117,0.59203zM250.59832,183.71532c-0.27392,0 -0.46319,-0.10468 -0.56788,-0.31414c-0.09666,-0.21748 -0.1531,-0.55984 -0.16914,-1.027l0.12083,0.06041c-0.45111,0.87796 -1.3049,1.31698 -2.56146,1.31698c-0.57193,0 -1.0472,-0.10071 -1.42572,-0.30206c-0.37861,-0.20946 -0.66056,-0.48329 -0.84576,-0.8216c-0.17727,-0.34634 -0.26581,-0.72088 -0.26581,-1.12366c0,-0.69273 0.24165,-1.24046 0.72495,-1.6432c0.48329,-0.4108 1.12366,-0.6162 1.92109,-0.6162c0.52352,0 0.97867,0.07652 1.36531,0.22957c0.38664,0.15304 0.71683,0.3665 0.99076,0.64036l-0.2054,-0.02416c-0.05645,-0.81355 -0.23362,-1.3935 -0.53162,-1.73986c-0.28998,-0.35442 -0.70484,-0.53162 -1.24448,-0.53162c-0.31414,0 -0.60412,0.04833 -0.86993,0.14499c-0.26581,0.09666 -0.51151,0.19735 -0.73702,0.30206c-0.21748,0.09666 -0.42288,0.14499 -0.6162,0.14499c-0.19332,0 -0.34642,-0.06444 -0.45913,-0.19332c-0.10477,-0.12888 -0.15707,-0.29401 -0.15707,-0.49538c0,-0.28998 0.13688,-0.56384 0.4108,-0.8216c0.28187,-0.25776 0.65245,-0.46718 1.11158,-0.62828c0.45913,-0.16111 0.95848,-0.24165 1.49821,-0.24165c0.65245,0 1.21221,0.15707 1.67945,0.47121c0.46715,0.31414 0.8216,0.77327 1.06324,1.37739c0.20937,0.51551 0.35841,1.09145 0.44704,1.72778c0.08855,0.63634 0.13291,1.31698 0.13291,2.04192c0,0.54776 -0.02822,0.97064 -0.08458,1.26864c-0.05645,0.298 -0.14499,0.50746 -0.26581,0.62828c-0.1128,0.1128 -0.26581,0.16914 -0.45913,0.16914zM247.92811,182.36211c0.26581,0 0.53559,-0.03625 0.80952,-0.10874c0.27384,-0.08051 0.5034,-0.19737 0.6887,-0.35038c0.1852,-0.15304 0.2779,-0.34233 0.2779,-0.56788c0,-0.19332 -0.08061,-0.35038 -0.24165,-0.47121c-0.1531,-0.12888 -0.3585,-0.22553 -0.6162,-0.28998c-0.24975,-0.06444 -0.51954,-0.09666 -0.80952,-0.09666c-0.49141,0 -0.86596,0.08458 -1.12366,0.25373c-0.24975,0.16914 -0.37455,0.39469 -0.37455,0.67661c0,0.3061 0.11677,0.54372 0.35038,0.71286c0.24165,0.16112 0.58797,0.24165 1.03908,0.24165zM254.11394,176.07928c0.25778,0 0.43099,0.10471 0.51954,0.31414c0.09666,0.20943 0.14499,0.51954 0.14499,0.93034c0,0.09666 -0.00802,0.20136 -0.02416,0.31414c-0.00802,0.10471 -0.02416,0.20136 -0.04833,0.28998l-0.02416,-0.24165c0.19332,-0.52357 0.49141,-0.93034 0.8941,-1.22032c0.40277,-0.29803 0.82971,-0.44704 1.28074,-0.44704c0.49944,0 0.9143,0.14096 1.24448,0.42288c0.33831,0.28192 0.58807,0.67661 0.74911,1.18407c0.16914,0.50746 0.25373,1.10755 0.25373,1.80027c0,0.42692 -0.02012,0.84979 -0.06041,1.26864c-0.03219,0.4108 -0.08051,0.78938 -0.14499,1.13574c-0.05635,0.33831 -0.12083,0.6162 -0.19332,0.83369c-0.09666,0.27384 -0.22145,0.47924 -0.37455,0.6162c-0.15302,0.12885 -0.33425,0.19332 -0.54372,0.19332c-0.20937,0 -0.3705,-0.07655 -0.48329,-0.22957c-0.11271,-0.15302 -0.16914,-0.35841 -0.16914,-0.6162c0,-0.27384 0.0202,-0.60412 0.06041,-0.99076c0.0403,-0.39469 0.07655,-0.7934 0.10874,-1.19615c0.0403,-0.4108 0.06041,-0.78133 0.06041,-1.11158c0,-1.12769 -0.3705,-1.69153 -1.11158,-1.69153c-0.39466,0 -0.72495,0.1772 -0.99076,0.53162c-0.26581,0.34636 -0.44299,0.84174 -0.53162,1.48613c-0.02416,0.21748 -0.03625,0.48733 -0.03625,0.80952c0,0.3222 0,0.64439 0,0.96659c0.00811,0.31414 0,0.57995 -0.02416,0.79744c-0.03219,0.48329 -0.12479,0.82963 -0.2779,1.03908c-0.14499,0.20946 -0.34634,0.31414 -0.60412,0.31414c-0.298,0 -0.52352,-0.13696 -0.67661,-0.4108c-0.15302,-0.28195 -0.22957,-0.75316 -0.22957,-1.41363c0,-0.33831 0.00811,-0.71689 0.02416,-1.13574c0.01614,-0.41886 0.03625,-0.83772 0.06041,-1.25657c0.03228,-0.42692 0.06852,-0.81355 0.10874,-1.1599c0.08061,-0.65245 0.19737,-1.16796 0.35038,-1.54654c0.1531,-0.38664 0.38267,-0.57995 0.6887,-0.57995zM265.15619,183.667c-0.49132,0 -0.85785,-0.06447 -1.0995,-0.19332c-0.24165,-0.12885 -0.44299,-0.36248 -0.60412,-0.70077c-0.11271,-0.25778 -0.20937,-0.67661 -0.28998,-1.25657c-0.0725,-0.588 -0.10874,-1.3492 -0.10874,-2.28357c0,-0.65245 0.01209,-1.2767 0.03625,-1.87276c0.03228,-0.59607 0.07655,-1.05519 0.13291,-1.37739c0.06447,-0.4108 0.16914,-0.70481 0.31414,-0.88201c0.1531,-0.1772 0.34236,-0.26581 0.56788,-0.26581c0.20144,0 0.3585,0.08861 0.47121,0.26581c0.12083,0.1772 0.2054,0.41886 0.25373,0.72495c0.04833,0.29803 0.0725,0.62828 0.0725,0.99076c0,0.98271 -0.03625,1.97748 -0.10874,2.98434c-0.06439,1.00687 -0.15707,1.93318 -0.2779,2.77895l-0.15707,-0.21748c0.36248,-0.24968 0.74911,-0.46319 1.1599,-0.64036c0.41891,-0.1772 0.82566,-0.31414 1.22032,-0.4108c0.40277,-0.09666 0.75316,-0.14499 1.05117,-0.14499c0.29809,0 0.51557,0.06041 0.65245,0.18124c0.14499,0.12083 0.21748,0.29401 0.21748,0.51954c0,0.22552 -0.10063,0.45507 -0.30206,0.6887c-0.19332,0.22552 -0.47121,0.42288 -0.83369,0.59203c-0.20135,0.09666 -0.43894,0.18529 -0.71286,0.26581c-0.27384,0.0725 -0.55578,0.13291 -0.84576,0.18124c-0.28187,0.04833 -0.55174,0.0725 -0.80952,0.0725zM275.09704,183.52201c-0.21748,0 -0.38664,-0.0725 -0.50746,-0.21748c-0.11271,-0.15302 -0.18926,-0.34634 -0.22957,-0.57995c-0.04022,-0.24165 -0.06041,-0.49538 -0.06041,-0.76119l0.06041,-0.04833c-0.08051,0.34634 -0.23759,0.64442 -0.47121,0.8941c-0.23354,0.24968 -0.5034,0.44299 -0.80952,0.57995c-0.30603,0.12885 -0.61214,0.19332 -0.91826,0.19332c-0.4108,0 -0.78536,-0.09666 -1.12366,-0.28998c-0.33831,-0.19332 -0.60006,-0.49132 -0.78536,-0.8941c-0.1852,-0.42694 -0.33019,-0.96256 -0.43497,-1.60696c-0.10468,-0.65245 -0.15707,-1.32101 -0.15707,-2.00567c0,-0.37053 0.01614,-0.71286 0.04833,-1.027c0.03228,-0.31414 0.08458,-0.5719 0.15707,-0.77327c0.06447,-0.20943 0.16112,-0.36248 0.28998,-0.45913c0.12894,-0.10471 0.29403,-0.15707 0.49538,-0.15707c0.23362,0 0.41486,0.09263 0.54372,0.2779c0.13696,0.1772 0.22154,0.42692 0.25373,0.74911c0.03228,0.26581 0.05238,0.59607 0.06041,0.99076c0.01614,0.38664 0.02822,0.7773 0.03625,1.17199c0.01614,0.38664 0.03625,0.71286 0.06041,0.97867c0.04833,0.48329 0.17322,0.84174 0.37455,1.07534c0.20144,0.22553 0.44704,0.33831 0.73702,0.33831c0.42694,0 0.75316,-0.16111 0.97867,-0.48329c0.22559,-0.3222 0.33831,-0.77327 0.33831,-1.35322c0,-0.28998 -0.01605,-0.6162 -0.04833,-0.97867c-0.03219,-0.37053 -0.06844,-0.72897 -0.10874,-1.07534c-0.03219,-0.34636 -0.04833,-0.63231 -0.04833,-0.85785c0,-0.37859 0.06447,-0.64842 0.19332,-0.80952c0.12894,-0.16914 0.30611,-0.25373 0.53162,-0.25373c0.19332,0 0.35445,0.05236 0.48329,0.15707c0.13696,0.10471 0.24571,0.24971 0.32631,0.43497c0.11306,0.24165 0.20971,0.5719 0.28998,0.99076c0.08026,0.41886 0.14499,0.8941 0.19332,1.42572c0.04833,0.53162 0.0725,1.09145 0.0725,1.67945c0,0.90215 -0.06041,1.57873 -0.18124,2.02984c-0.12083,0.44299 -0.33399,0.66453 -0.64045,0.66453zM282.66846,183.71532c-0.27358,0 -0.46345,-0.10468 -0.56788,-0.31414c-0.09666,-0.21748 -0.15276,-0.55984 -0.16914,-1.027l0.12083,0.06041c-0.45136,0.87796 -1.3049,1.31698 -2.56146,1.31698c-0.57219,0 -1.04685,-0.10071 -1.42572,-0.30206c-0.37887,-0.20946 -0.66022,-0.48329 -0.84576,-0.8216c-0.17692,-0.34634 -0.26581,-0.72088 -0.26581,-1.12366c0,-0.69273 0.24165,-1.24046 0.72495,-1.6432c0.48329,-0.4108 1.12366,-0.6162 1.92109,-0.6162c0.52385,0 0.97867,0.07652 1.36531,0.22957c0.38664,0.15304 0.71718,0.3665 0.99076,0.64036l-0.2054,-0.02416c-0.0561,-0.81355 -0.23387,-1.3935 -0.53162,-1.73986c-0.28998,-0.35442 -0.70509,-0.53162 -1.24448,-0.53162c-0.31414,0 -0.60412,0.04833 -0.86993,0.14499c-0.26581,0.09666 -0.51177,0.19735 -0.73702,0.30206c-0.21748,0.09666 -0.42288,0.14499 -0.6162,0.14499c-0.19332,0 -0.34607,-0.06444 -0.45913,-0.19332c-0.10442,-0.12888 -0.15707,-0.29401 -0.15707,-0.49538c0,-0.28998 0.13722,-0.56384 0.4108,-0.8216c0.28221,-0.25776 0.65245,-0.46718 1.11158,-0.62828c0.45913,-0.16111 0.95883,-0.24165 1.49821,-0.24165c0.65245,0 1.21255,0.15707 1.67945,0.47121c0.46689,0.31414 0.8216,0.77327 1.06324,1.37739c0.20971,0.51551 0.35815,1.09145 0.44704,1.72778c0.08889,0.63634 0.13291,1.31698 0.13291,2.04192c0,0.54776 -0.02847,0.97064 -0.08458,1.26864c-0.0561,0.298 -0.14499,0.50746 -0.26581,0.62828c-0.11306,0.1128 -0.26581,0.16914 -0.45913,0.16914zM279.99826,182.36211c0.26581,0 0.53594,-0.03625 0.80952,-0.10874c0.27358,-0.08051 0.50315,-0.19737 0.6887,-0.35038c0.18555,-0.15304 0.2779,-0.34233 0.2779,-0.56788c0,-0.19332 -0.08026,-0.35038 -0.24165,-0.47121c-0.15276,-0.12888 -0.35815,-0.22553 -0.6162,-0.28998c-0.24941,-0.06444 -0.51954,-0.09666 -0.80952,-0.09666c-0.49105,0 -0.86562,0.08458 -1.12366,0.25373c-0.24941,0.16914 -0.37455,0.39469 -0.37455,0.67661c0,0.3061 0.11651,0.54372 0.35038,0.71286c0.24165,0.16112 0.58772,0.24165 1.03908,0.24165zM288.00887,176.03094c0.71632,0 1.2324,0.10471 1.54654,0.31414c0.31414,0.20943 0.47121,0.47926 0.47121,0.80952c0,0.19332 -0.06904,0.35442 -0.2054,0.48329c-0.12945,0.12083 -0.31414,0.18124 -0.55578,0.18124c-0.25028,0 -0.51177,-0.03625 -0.78536,-0.10874c-0.26581,-0.0725 -0.5765,-0.10874 -0.93034,-0.10874c-0.4108,0 -0.71718,0.08054 -0.91826,0.24165c-0.20194,0.16111 -0.30206,0.3665 -0.30206,0.6162c0,0.23359 0.08804,0.41886 0.26581,0.55578c0.18469,0.12888 0.53508,0.22553 1.05117,0.28998c0.57132,0.06444 1.04254,0.16914 1.41363,0.31414c0.37801,0.13693 0.66022,0.34636 0.84576,0.62828c0.18469,0.27387 0.2779,0.65245 0.2779,1.13574c0,0.76524 -0.27013,1.33312 -0.80952,1.70362c-0.54026,0.3705 -1.28505,0.55578 -2.23524,0.55578c-0.60412,0 -1.08396,-0.04833 -1.43781,-0.14499c-0.35471,-0.09666 -0.61275,-0.23362 -0.77327,-0.4108c-0.15361,-0.17718 -0.22957,-0.38664 -0.22957,-0.62828c0,-0.20946 0.06818,-0.3705 0.2054,-0.48329c0.14499,-0.12083 0.31414,-0.18124 0.50746,-0.18124c0.18469,0 0.38232,0.02416 0.59203,0.0725c0.20885,0.0403 0.43065,0.08458 0.66453,0.13291c0.23302,0.04833 0.47466,0.0725 0.72495,0.0725c0.8052,0 1.20824,-0.24971 1.20824,-0.74911c0,-0.16914 -0.04057,-0.3061 -0.12083,-0.4108c-0.08113,-0.10471 -0.22611,-0.18929 -0.43497,-0.25373c-0.20971,-0.0725 -0.51609,-0.12888 -0.91826,-0.16914c-0.48329,-0.04833 -0.90272,-0.12888 -1.25657,-0.24165c-0.35471,-0.12083 -0.62828,-0.31414 -0.8216,-0.57995c-0.19332,-0.27387 -0.28998,-0.64842 -0.28998,-1.12366c0,-0.74911 0.28134,-1.35322 0.84576,-1.81236c0.56355,-0.46718 1.36531,-0.70077 2.40439,-0.70077z"/></g></g></svg>