<svg width="112" height="55" viewBox="0 0 112 55" fill="none" xmlns="http://www.w3.org/2000/svg">
<path d="M25 0.5H87C100.531 0.5 111.5 11.469 111.5 25V28C111.5 41.531 100.531 52.5 87 52.5H25C11.469 52.5 0.5 41.531 0.5 28V25C0.5 11.469 11.469 0.5 25 0.5Z" fill="#75F94C" stroke="black"/>
<path d="M36.7088 24.11C36.5768 24.11 36.4705 24.066 36.3898 23.978C36.3092 23.8827 36.2432 23.7323 36.1918 23.527C36.1405 23.2923 36.0928 22.9257 36.0488 22.427C36.0048 21.921 35.9828 21.3563 35.9828 20.733C35.9828 20.0583 36.0012 19.402 36.0378 18.764C36.0818 18.1187 36.1442 17.5503 36.2248 17.059C36.2835 16.7363 36.3678 16.498 36.4778 16.344C36.5952 16.1827 36.7565 16.102 36.9618 16.102C37.0938 16.102 37.2112 16.146 37.3138 16.234C37.4165 16.322 37.4935 16.4797 37.5448 16.707C37.6035 16.9343 37.6328 17.257 37.6328 17.675C37.6328 17.8803 37.6255 18.115 37.6108 18.379C37.5962 18.6357 37.5742 18.9217 37.5448 19.237H37.5888C38.1755 18.4303 38.6925 17.7887 39.1398 17.312C39.5872 16.828 39.9795 16.4797 40.3168 16.267C40.6615 16.0543 40.9622 15.948 41.2188 15.948C41.4242 15.948 41.5782 16.014 41.6808 16.146C41.7908 16.278 41.8458 16.4393 41.8458 16.63C41.8458 17.0333 41.5415 17.5173 40.9328 18.082C40.3315 18.6467 39.3598 19.325 38.0178 20.117L38.1058 19.908C39.2645 20.6413 40.1408 21.2903 40.7348 21.855C41.3288 22.4123 41.6258 22.9073 41.6258 23.34C41.6258 23.5307 41.5635 23.6883 41.4388 23.813C41.3215 23.9303 41.1455 23.989 40.9108 23.989C40.6175 23.989 40.3058 23.89 39.9758 23.692C39.6458 23.4867 39.2792 23.1457 38.8758 22.669C38.4798 22.185 38.0288 21.5287 37.5228 20.7H37.4788C37.4935 20.8687 37.5045 21.0447 37.5118 21.228C37.5192 21.404 37.5228 21.58 37.5228 21.756C37.5228 22.5993 37.4642 23.2043 37.3468 23.571C37.2295 23.9303 37.0168 24.11 36.7088 24.11ZM45.8614 24.088C45.0474 24.088 44.3984 23.967 43.9144 23.725C43.4304 23.483 43.082 23.1347 42.8694 22.68C42.6567 22.2253 42.5504 21.6827 42.5504 21.052C42.5504 20.2527 42.697 19.5743 42.9904 19.017C43.291 18.4523 43.7017 18.0197 44.2224 17.719C44.7504 17.4183 45.348 17.268 46.0154 17.268C46.8 17.268 47.3757 17.4513 47.7424 17.818C48.109 18.1773 48.2924 18.6503 48.2924 19.237C48.2924 19.7063 48.1677 20.1133 47.9184 20.458C47.6764 20.7953 47.339 21.0557 46.9064 21.239C46.4737 21.4223 45.975 21.514 45.4104 21.514C45.095 21.514 44.7907 21.4737 44.4974 21.393C44.204 21.3123 43.94 21.2023 43.7054 21.063L43.9694 20.579C43.9474 20.755 43.9364 20.931 43.9364 21.107C43.9364 21.6203 44.0977 21.9907 44.4204 22.218C44.743 22.438 45.2014 22.548 45.7954 22.548C46.2574 22.548 46.6277 22.5077 46.9064 22.427C47.185 22.3463 47.4197 22.2693 47.6104 22.196C47.801 22.1153 47.988 22.075 48.1714 22.075C48.274 22.075 48.3657 22.1043 48.4464 22.163C48.5344 22.2143 48.604 22.2913 48.6554 22.394C48.714 22.4967 48.7434 22.6213 48.7434 22.768C48.7434 22.988 48.6334 23.2007 48.4134 23.406C48.1934 23.604 47.867 23.769 47.4344 23.901C47.009 24.0257 46.4847 24.088 45.8614 24.088ZM45.2234 20.491C45.744 20.491 46.162 20.381 46.4774 20.161C46.7927 19.941 46.9504 19.6697 46.9504 19.347C46.9504 19.0903 46.8624 18.8813 46.6864 18.72C46.5177 18.5513 46.25 18.467 45.8834 18.467C45.5387 18.467 45.227 18.533 44.9484 18.665C44.677 18.7897 44.4644 18.9547 44.3104 19.16C44.1564 19.3653 44.0794 19.589 44.0794 19.831C44.0794 20.0437 44.1784 20.2087 44.3764 20.326C44.5817 20.436 44.864 20.491 45.2234 20.491ZM50.8981 24.022C50.6707 24.022 50.4911 23.9707 50.3591 23.868C50.2271 23.758 50.1207 23.5783 50.0401 23.329C49.9301 22.9623 49.8457 22.5003 49.7871 21.943C49.7357 21.3783 49.7101 20.6853 49.7101 19.864C49.7101 19.358 49.7284 18.852 49.7651 18.346C49.8091 17.8327 49.8641 17.367 49.9301 16.949C49.9961 16.5237 50.0657 16.1937 50.1391 15.959C50.2197 15.7097 50.3151 15.5373 50.4251 15.442C50.5351 15.3467 50.6597 15.299 50.7991 15.299C50.9457 15.299 51.0631 15.3503 51.1511 15.453C51.2391 15.5483 51.3087 15.7207 51.3601 15.97C51.4041 16.212 51.4371 16.509 51.4591 16.861C51.4884 17.213 51.5031 17.5907 51.5031 17.994C51.5031 18.544 51.4774 19.1233 51.4261 19.732C51.3747 20.3407 51.3051 20.9383 51.2171 21.525C51.1364 22.1117 51.0374 22.6507 50.9201 23.142L50.6121 22.988C50.8027 22.7533 51.0191 22.57 51.2611 22.438C51.5104 22.306 51.7377 22.24 51.9431 22.24C52.1117 22.24 52.2401 22.2877 52.3281 22.383C52.4234 22.471 52.4711 22.6103 52.4711 22.801C52.4711 22.9917 52.3867 23.1823 52.2181 23.373C52.0567 23.5637 51.8551 23.7213 51.6131 23.846C51.3711 23.9633 51.1327 24.022 50.8981 24.022ZM54.4378 15.563C54.7312 15.563 54.9402 15.6437 55.0648 15.805C55.1968 15.9663 55.2628 16.1533 55.2628 16.366C55.2628 16.63 55.1822 16.8353 55.0208 16.982C54.8668 17.1213 54.6468 17.191 54.3608 17.191C54.0822 17.191 53.8732 17.114 53.7338 16.96C53.5945 16.7987 53.5248 16.6117 53.5248 16.399C53.5248 16.1203 53.6092 15.9113 53.7778 15.772C53.9465 15.6327 54.1665 15.563 54.4378 15.563ZM54.5038 18.016C54.7385 18.016 54.9218 18.236 55.0538 18.676C55.1932 19.116 55.2628 19.8163 55.2628 20.777C55.2628 21.9577 55.1785 22.8083 55.0098 23.329C54.8412 23.8497 54.5845 24.11 54.2398 24.11C53.9758 24.11 53.7815 23.9193 53.6568 23.538C53.5322 23.1493 53.4698 22.4747 53.4698 21.514C53.4698 20.3333 53.5652 19.457 53.7558 18.885C53.9538 18.3057 54.2032 18.016 54.5038 18.016ZM57.7945 24.022C57.5672 24.022 57.3875 23.9707 57.2555 23.868C57.1235 23.758 57.0172 23.5783 56.9365 23.329C56.8265 22.9623 56.7422 22.5003 56.6835 21.943C56.6322 21.3783 56.6065 20.6853 56.6065 19.864C56.6065 19.358 56.6249 18.852 56.6615 18.346C56.7055 17.8327 56.7605 17.367 56.8265 16.949C56.8925 16.5237 56.9622 16.1937 57.0355 15.959C57.1162 15.7097 57.2115 15.5373 57.3215 15.442C57.4315 15.3467 57.5562 15.299 57.6955 15.299C57.8422 15.299 57.9595 15.3503 58.0475 15.453C58.1355 15.5483 58.2052 15.7207 58.2565 15.97C58.3005 16.212 58.3335 16.509 58.3555 16.861C58.3849 17.213 58.3995 17.5907 58.3995 17.994C58.3995 18.544 58.3739 19.1233 58.3225 19.732C58.2712 20.3407 58.2015 20.9383 58.1135 21.525C58.0329 22.1117 57.9339 22.6507 57.8165 23.142L57.5085 22.988C57.6992 22.7533 57.9155 22.57 58.1575 22.438C58.4069 22.306 58.6342 22.24 58.8395 22.24C59.0082 22.24 59.1365 22.2877 59.2245 22.383C59.3199 22.471 59.3675 22.6103 59.3675 22.801C59.3675 22.9917 59.2832 23.1823 59.1145 23.373C58.9532 23.5637 58.7515 23.7213 58.5095 23.846C58.2675 23.9633 58.0292 24.022 57.7945 24.022ZM61.3343 15.563C61.6276 15.563 61.8366 15.6437 61.9613 15.805C62.0933 15.9663 62.1593 16.1533 62.1593 16.366C62.1593 16.63 62.0786 16.8353 61.9173 16.982C61.7633 17.1213 61.5433 17.191 61.2573 17.191C60.9786 17.191 60.7696 17.114 60.6303 16.96C60.491 16.7987 60.4213 16.6117 60.4213 16.399C60.4213 16.1203 60.5056 15.9113 60.6743 15.772C60.843 15.6327 61.063 15.563 61.3343 15.563ZM61.4003 18.016C61.635 18.016 61.8183 18.236 61.9503 18.676C62.0896 19.116 62.1593 19.8163 62.1593 20.777C62.1593 21.9577 62.075 22.8083 61.9063 23.329C61.7376 23.8497 61.481 24.11 61.1363 24.11C60.8723 24.11 60.678 23.9193 60.5533 23.538C60.4286 23.1493 60.3663 22.4747 60.3663 21.514C60.3663 20.3333 60.4616 19.457 60.6523 18.885C60.8503 18.3057 61.0996 18.016 61.4003 18.016ZM64.625 17.158C64.8597 17.158 65.0174 17.2533 65.098 17.444C65.186 17.6347 65.23 17.917 65.23 18.291C65.23 18.379 65.2227 18.4743 65.208 18.577C65.2007 18.6723 65.186 18.7603 65.164 18.841L65.142 18.621C65.318 18.1443 65.5894 17.774 65.956 17.51C66.3227 17.2387 66.7114 17.103 67.122 17.103C67.5767 17.103 67.9544 17.2313 68.255 17.488C68.563 17.7447 68.7904 18.104 68.937 18.566C69.091 19.028 69.168 19.5743 69.168 20.205C69.168 20.5937 69.1497 20.9787 69.113 21.36C69.0837 21.734 69.0397 22.0787 68.981 22.394C68.9297 22.702 68.871 22.955 68.805 23.153C68.717 23.4023 68.6034 23.5893 68.464 23.714C68.3247 23.8313 68.1597 23.89 67.969 23.89C67.7784 23.89 67.6317 23.8203 67.529 23.681C67.4264 23.5417 67.375 23.3547 67.375 23.12C67.375 22.8707 67.3934 22.57 67.43 22.218C67.4667 21.8587 67.4997 21.4957 67.529 21.129C67.5657 20.755 67.584 20.4177 67.584 20.117C67.584 19.0903 67.2467 18.577 66.572 18.577C66.2127 18.577 65.912 18.7383 65.67 19.061C65.428 19.3763 65.2667 19.8273 65.186 20.414C65.164 20.612 65.153 20.8577 65.153 21.151C65.153 21.4443 65.153 21.7377 65.153 22.031C65.1604 22.317 65.153 22.559 65.131 22.757C65.1017 23.197 65.0174 23.5123 64.878 23.703C64.746 23.8937 64.5627 23.989 64.328 23.989C64.0567 23.989 63.8514 23.8643 63.712 23.615C63.5727 23.3583 63.503 22.9293 63.503 22.328C63.503 22.02 63.5104 21.6753 63.525 21.294C63.5397 20.9127 63.558 20.5313 63.58 20.15C63.6094 19.7613 63.6424 19.4093 63.679 19.094C63.7524 18.5 63.8587 18.0307 63.998 17.686C64.1374 17.334 64.3464 17.158 64.625 17.158ZM72.6079 23.824C71.9186 23.824 71.3576 23.56 70.9249 23.032C70.4923 22.4967 70.2759 21.6863 70.2759 20.601C70.2759 19.4423 70.4849 18.5953 70.9029 18.06C71.3209 17.5247 71.8709 17.257 72.5529 17.257C72.9563 17.257 73.3119 17.3597 73.6199 17.565C73.9279 17.7703 74.1919 18.06 74.4119 18.434L74.3239 18.588C74.3019 18.4853 74.2836 18.3753 74.2689 18.258C74.2543 18.1407 74.2469 18.0527 74.2469 17.994C74.2469 17.6933 74.2946 17.4623 74.3899 17.301C74.4926 17.1323 74.6503 17.048 74.8629 17.048C75.0976 17.048 75.2809 17.1433 75.4129 17.334C75.5523 17.5247 75.6586 17.796 75.7319 18.148C75.8273 18.5073 75.9079 18.9657 75.9739 19.523C76.0399 20.073 76.0729 20.6303 76.0729 21.195C76.0729 21.899 76.0473 22.4893 75.9959 22.966C75.9446 23.4427 75.8603 23.8387 75.7429 24.154C75.6256 24.4693 75.4716 24.7443 75.2809 24.979C74.9656 25.3603 74.5586 25.65 74.0599 25.848C73.5686 26.0533 73.0003 26.156 72.3549 26.156C71.8929 26.156 71.5226 26.112 71.2439 26.024C70.9653 25.9433 70.7636 25.8297 70.6389 25.683C70.5216 25.5437 70.4629 25.386 70.4629 25.21C70.4629 25.0267 70.5143 24.8727 70.6169 24.748C70.7196 24.6307 70.8736 24.572 71.0789 24.572C71.2623 24.572 71.4749 24.6013 71.7169 24.66C71.9663 24.7187 72.2596 24.748 72.5969 24.748C73.3083 24.748 73.8106 24.5793 74.1039 24.242C74.4046 23.912 74.5549 23.4353 74.5549 22.812C74.5549 22.6433 74.5439 22.4453 74.5219 22.218L74.6759 22.273C74.4926 22.7423 74.2213 23.12 73.8619 23.406C73.5026 23.6847 73.0846 23.824 72.6079 23.824ZM73.0259 22.471C73.2606 22.471 73.4953 22.4087 73.7299 22.284C73.9646 22.1593 74.1589 21.954 74.3129 21.668C74.4669 21.382 74.5439 20.997 74.5439 20.513C74.5439 19.9337 74.4083 19.4607 74.1369 19.094C73.8656 18.7273 73.4843 18.544 72.9929 18.544C72.5676 18.544 72.2559 18.7053 72.0579 19.028C71.8599 19.3507 71.7609 19.8383 71.7609 20.491C71.7609 21.1143 71.8599 21.602 72.0579 21.954C72.2559 22.2987 72.5786 22.471 73.0259 22.471ZM34.3003 37.154C33.5816 37.154 33.0206 36.8863 32.6173 36.351C32.2139 35.8083 32.0123 34.9833 32.0123 33.876C32.0123 32.776 32.2103 31.973 32.6063 31.467C33.0096 30.9537 33.5853 30.697 34.3333 30.697C34.7586 30.697 35.1289 30.785 35.4443 30.961C35.7669 31.137 36.0529 31.3863 36.3023 31.709L36.2143 31.753C36.1483 31.4523 36.0823 31.1333 36.0163 30.796C35.9503 30.4587 35.8953 30.1397 35.8513 29.839C35.8146 29.531 35.7963 29.289 35.7963 29.113C35.7963 28.8637 35.8366 28.673 35.9173 28.541C35.9979 28.4017 36.1263 28.332 36.3023 28.332C36.5516 28.332 36.7533 28.4383 36.9073 28.651C37.0613 28.8563 37.1896 29.1753 37.2923 29.608C37.3876 29.9967 37.4719 30.4587 37.5453 30.994C37.6186 31.522 37.6773 32.0757 37.7213 32.655C37.7726 33.227 37.7983 33.777 37.7983 34.305C37.7983 35.0383 37.7579 35.6103 37.6773 36.021C37.6039 36.4243 37.4976 36.7067 37.3583 36.868C37.2263 37.0293 37.0686 37.11 36.8853 37.11C36.6579 37.11 36.5039 36.9963 36.4233 36.769C36.3426 36.5417 36.3096 36.1713 36.3243 35.658H36.4893C36.2913 36.1127 36.0016 36.4757 35.6203 36.747C35.2463 37.0183 34.8063 37.154 34.3003 37.154ZM34.8833 35.79C35.1473 35.79 35.3893 35.724 35.6093 35.592C35.8366 35.4527 36.0163 35.24 36.1483 34.954C36.2876 34.668 36.3573 34.305 36.3573 33.865C36.3573 33.3003 36.2289 32.842 35.9723 32.49C35.7156 32.1307 35.3453 31.951 34.8613 31.951C34.4799 31.951 34.1683 32.1087 33.9263 32.424C33.6916 32.7393 33.5743 33.216 33.5743 33.854C33.5743 34.4187 33.6916 34.8843 33.9263 35.251C34.1683 35.6103 34.4873 35.79 34.8833 35.79ZM43.9468 37.11C43.6974 37.11 43.5251 37.0147 43.4298 36.824C43.3418 36.626 43.2904 36.3143 43.2758 35.889L43.3858 35.944C42.9751 36.7433 42.1978 37.143 41.0538 37.143C40.5331 37.143 40.1004 37.0513 39.7558 36.868C39.4111 36.6773 39.1544 36.428 38.9858 36.12C38.8244 35.8047 38.7438 35.4637 38.7438 35.097C38.7438 34.4663 38.9638 33.9677 39.4038 33.601C39.8438 33.227 40.4268 33.04 41.1528 33.04C41.6294 33.04 42.0438 33.1097 42.3958 33.249C42.7478 33.3883 43.0484 33.5827 43.2978 33.832L43.1108 33.81C43.0594 33.0693 42.8981 32.5413 42.6268 32.226C42.3628 31.9033 41.9851 31.742 41.4938 31.742C41.2078 31.742 40.9438 31.786 40.7018 31.874C40.4598 31.962 40.2361 32.0537 40.0308 32.149C39.8328 32.237 39.6458 32.281 39.4698 32.281C39.2938 32.281 39.1544 32.2223 39.0518 32.105C38.9564 31.9877 38.9088 31.8373 38.9088 31.654C38.9088 31.39 39.0334 31.1407 39.2828 30.906C39.5394 30.6713 39.8768 30.4807 40.2948 30.334C40.7128 30.1873 41.1674 30.114 41.6588 30.114C42.2528 30.114 42.7624 30.257 43.1878 30.543C43.6131 30.829 43.9358 31.247 44.1558 31.797C44.3464 32.2663 44.4821 32.7907 44.5628 33.37C44.6434 33.9493 44.6837 34.569 44.6837 35.229C44.6837 35.7277 44.6581 36.1127 44.6068 36.384C44.5554 36.6553 44.4748 36.846 44.3648 36.956C44.2621 37.0587 44.1228 37.11 43.9468 37.11ZM41.5158 35.878C41.7578 35.878 42.0034 35.845 42.2528 35.779C42.5021 35.7057 42.7111 35.5993 42.8798 35.46C43.0484 35.3207 43.1328 35.1483 43.1328 34.943C43.1328 34.767 43.0594 34.624 42.9128 34.514C42.7734 34.3967 42.5864 34.3087 42.3518 34.25C42.1244 34.1913 41.8788 34.162 41.6148 34.162C41.1674 34.162 40.8264 34.239 40.5918 34.393C40.3644 34.547 40.2508 34.7523 40.2508 35.009C40.2508 35.2877 40.3571 35.504 40.5698 35.658C40.7898 35.8047 41.1051 35.878 41.5158 35.878ZM47.1475 30.158C47.3822 30.158 47.5398 30.2533 47.6205 30.444C47.7085 30.6347 47.7525 30.917 47.7525 31.291C47.7525 31.379 47.7452 31.4743 47.7305 31.577C47.7232 31.6723 47.7085 31.7603 47.6865 31.841L47.6645 31.621C47.8405 31.1443 48.1118 30.774 48.4785 30.51C48.8452 30.2387 49.2338 30.103 49.6445 30.103C50.0992 30.103 50.4768 30.2313 50.7775 30.488C51.0855 30.7447 51.3128 31.104 51.4595 31.566C51.6135 32.028 51.6905 32.5743 51.6905 33.205C51.6905 33.5937 51.6722 33.9787 51.6355 34.36C51.6062 34.734 51.5622 35.0787 51.5035 35.394C51.4522 35.702 51.3935 35.955 51.3275 36.153C51.2395 36.4023 51.1258 36.5893 50.9865 36.714C50.8472 36.8313 50.6822 36.89 50.4915 36.89C50.3008 36.89 50.1542 36.8203 50.0515 36.681C49.9488 36.5417 49.8975 36.3547 49.8975 36.12C49.8975 35.8707 49.9158 35.57 49.9525 35.218C49.9892 34.8587 50.0222 34.4957 50.0515 34.129C50.0882 33.755 50.1065 33.4177 50.1065 33.117C50.1065 32.0903 49.7692 31.577 49.0945 31.577C48.7352 31.577 48.4345 31.7383 48.1925 32.061C47.9505 32.3763 47.7892 32.8273 47.7085 33.414C47.6865 33.612 47.6755 33.8577 47.6755 34.151C47.6755 34.4443 47.6755 34.7377 47.6755 35.031C47.6828 35.317 47.6755 35.559 47.6535 35.757C47.6242 36.197 47.5398 36.5123 47.4005 36.703C47.2685 36.8937 47.0852 36.989 46.8505 36.989C46.5792 36.989 46.3738 36.8643 46.2345 36.615C46.0952 36.3583 46.0255 35.9293 46.0255 35.328C46.0255 35.02 46.0328 34.6753 46.0475 34.294C46.0622 33.9127 46.0805 33.5313 46.1025 33.15C46.1318 32.7613 46.1648 32.4093 46.2015 32.094C46.2748 31.5 46.3812 31.0307 46.5205 30.686C46.6598 30.334 46.8688 30.158 47.1475 30.158ZM57.2005 37.066C56.7532 37.066 56.4195 37.0073 56.1995 36.89C55.9795 36.7727 55.7962 36.56 55.6495 36.252C55.5469 36.0173 55.4589 35.636 55.3855 35.108C55.3195 34.5727 55.2865 33.8797 55.2865 33.029C55.2865 32.435 55.2975 31.8667 55.3195 31.324C55.3489 30.7813 55.3892 30.3633 55.4405 30.07C55.4992 29.696 55.5945 29.4283 55.7265 29.267C55.8659 29.1057 56.0382 29.025 56.2435 29.025C56.4269 29.025 56.5699 29.1057 56.6725 29.267C56.7825 29.4283 56.8595 29.6483 56.9035 29.927C56.9475 30.1983 56.9695 30.499 56.9695 30.829C56.9695 31.7237 56.9365 32.6293 56.8705 33.546C56.8119 34.4627 56.7275 35.306 56.6175 36.076L56.4745 35.878C56.8045 35.6507 57.1565 35.4563 57.5305 35.295C57.9119 35.1337 58.2822 35.009 58.6415 34.921C59.0082 34.833 59.3272 34.789 59.5985 34.789C59.8699 34.789 60.0679 34.844 60.1925 34.954C60.3245 35.064 60.3905 35.2217 60.3905 35.427C60.3905 35.6323 60.2989 35.8413 60.1155 36.054C59.9395 36.2593 59.6865 36.439 59.3565 36.593C59.1732 36.681 58.9569 36.7617 58.7075 36.835C58.4582 36.901 58.2015 36.956 57.9375 37C57.6809 37.044 57.4352 37.066 57.2005 37.066ZM66.2509 36.934C66.0529 36.934 65.8989 36.868 65.7889 36.736C65.6862 36.5967 65.6165 36.4207 65.5799 36.208C65.5432 35.988 65.5249 35.757 65.5249 35.515L65.5799 35.471C65.5065 35.7863 65.3635 36.0577 65.1509 36.285C64.9382 36.5123 64.6925 36.6883 64.4139 36.813C64.1352 36.9303 63.8565 36.989 63.5779 36.989C63.2039 36.989 62.8629 36.901 62.5549 36.725C62.2469 36.549 62.0085 36.2777 61.8399 35.911C61.6712 35.5223 61.5392 35.0347 61.4439 34.448C61.3485 33.854 61.3009 33.2453 61.3009 32.622C61.3009 32.2847 61.3155 31.973 61.3449 31.687C61.3742 31.401 61.4219 31.1663 61.4879 30.983C61.5465 30.7923 61.6345 30.653 61.7519 30.565C61.8692 30.4697 62.0195 30.422 62.2029 30.422C62.4155 30.422 62.5805 30.5063 62.6979 30.675C62.8225 30.8363 62.8995 31.0637 62.9289 31.357C62.9582 31.599 62.9765 31.8997 62.9839 32.259C62.9985 32.611 63.0095 32.9667 63.0169 33.326C63.0315 33.678 63.0499 33.975 63.0719 34.217C63.1159 34.657 63.2295 34.9833 63.4129 35.196C63.5962 35.4013 63.8199 35.504 64.0839 35.504C64.4725 35.504 64.7695 35.3573 64.9749 35.064C65.1802 34.7707 65.2829 34.36 65.2829 33.832C65.2829 33.568 65.2682 33.271 65.2389 32.941C65.2095 32.6037 65.1765 32.2773 65.1399 31.962C65.1105 31.6467 65.0959 31.3863 65.0959 31.181C65.0959 30.8363 65.1545 30.5907 65.2719 30.444C65.3892 30.29 65.5505 30.213 65.7559 30.213C65.9319 30.213 66.0785 30.2607 66.1959 30.356C66.3205 30.4513 66.4195 30.5833 66.4929 30.752C66.5956 30.972 66.6836 31.2727 66.7569 31.654C66.8302 32.0353 66.8889 32.468 66.9329 32.952C66.9769 33.436 66.9989 33.9457 66.9989 34.481C66.9989 35.3023 66.9439 35.9183 66.8339 36.329C66.7239 36.7323 66.5295 36.934 66.2509 36.934ZM73.144 37.11C72.8947 37.11 72.7223 37.0147 72.627 36.824C72.539 36.626 72.4877 36.3143 72.473 35.889L72.583 35.944C72.1723 36.7433 71.395 37.143 70.251 37.143C69.7303 37.143 69.2977 37.0513 68.953 36.868C68.6083 36.6773 68.3517 36.428 68.183 36.12C68.0217 35.8047 67.941 35.4637 67.941 35.097C67.941 34.4663 68.161 33.9677 68.601 33.601C69.041 33.227 69.624 33.04 70.35 33.04C70.8267 33.04 71.241 33.1097 71.593 33.249C71.945 33.3883 72.2457 33.5827 72.495 33.832L72.308 33.81C72.2567 33.0693 72.0953 32.5413 71.824 32.226C71.56 31.9033 71.1823 31.742 70.691 31.742C70.405 31.742 70.141 31.786 69.899 31.874C69.657 31.962 69.4333 32.0537 69.228 32.149C69.03 32.237 68.843 32.281 68.667 32.281C68.491 32.281 68.3517 32.2223 68.249 32.105C68.1537 31.9877 68.106 31.8373 68.106 31.654C68.106 31.39 68.2307 31.1407 68.48 30.906C68.7367 30.6713 69.074 30.4807 69.492 30.334C69.91 30.1873 70.3647 30.114 70.856 30.114C71.45 30.114 71.9597 30.257 72.385 30.543C72.8103 30.829 73.133 31.247 73.353 31.797C73.5437 32.2663 73.6793 32.7907 73.76 33.37C73.8407 33.9493 73.881 34.569 73.881 35.229C73.881 35.7277 73.8553 36.1127 73.804 36.384C73.7527 36.6553 73.672 36.846 73.562 36.956C73.4593 37.0587 73.32 37.11 73.144 37.11ZM70.713 35.878C70.955 35.878 71.2007 35.845 71.45 35.779C71.6993 35.7057 71.9083 35.5993 72.077 35.46C72.2457 35.3207 72.33 35.1483 72.33 34.943C72.33 34.767 72.2567 34.624 72.11 34.514C71.9707 34.3967 71.7837 34.3087 71.549 34.25C71.3217 34.1913 71.076 34.162 70.812 34.162C70.3647 34.162 70.0237 34.239 69.789 34.393C69.5617 34.547 69.448 34.7523 69.448 35.009C69.448 35.2877 69.5543 35.504 69.767 35.658C69.987 35.8047 70.3023 35.878 70.713 35.878ZM78.0058 30.114C78.6584 30.114 79.1278 30.2093 79.4138 30.4C79.6998 30.5907 79.8428 30.8363 79.8428 31.137C79.8428 31.313 79.7804 31.4597 79.6558 31.577C79.5384 31.687 79.3698 31.742 79.1498 31.742C78.9224 31.742 78.6841 31.709 78.4348 31.643C78.1928 31.577 77.9104 31.544 77.5878 31.544C77.2138 31.544 76.9351 31.6173 76.7518 31.764C76.5684 31.9107 76.4768 32.0977 76.4768 32.325C76.4768 32.5377 76.5574 32.7063 76.7188 32.831C76.8874 32.9483 77.2064 33.0363 77.6758 33.095C78.1964 33.1537 78.6254 33.249 78.9628 33.381C79.3074 33.5057 79.5641 33.6963 79.7328 33.953C79.9014 34.2023 79.9858 34.547 79.9858 34.987C79.9858 35.6837 79.7401 36.2007 79.2488 36.538C78.7574 36.8753 78.0791 37.044 77.2138 37.044C76.6638 37.044 76.2274 37 75.9048 36.912C75.5821 36.824 75.3474 36.6993 75.2008 36.538C75.0614 36.3767 74.9918 36.186 74.9918 35.966C74.9918 35.7753 75.0541 35.6287 75.1788 35.526C75.3108 35.416 75.4648 35.361 75.6408 35.361C75.8094 35.361 75.9891 35.383 76.1798 35.427C76.3704 35.4637 76.5721 35.504 76.7848 35.548C76.9974 35.592 77.2174 35.614 77.4448 35.614C78.1781 35.614 78.5448 35.3867 78.5448 34.932C78.5448 34.778 78.5081 34.6533 78.4348 34.558C78.3614 34.4627 78.2294 34.3857 78.0388 34.327C77.8481 34.261 77.5694 34.2097 77.2028 34.173C76.7628 34.129 76.3814 34.0557 76.0588 33.953C75.7361 33.843 75.4868 33.667 75.3108 33.425C75.1348 33.1757 75.0468 32.8347 75.0468 32.402C75.0468 31.72 75.3034 31.17 75.8168 30.752C76.3301 30.3267 77.0598 30.114 78.0058 30.114Z" fill="black"/>
<circle cx="102" cy="45" r="10" fill="#D9D9D9"/>
<path d="M99.6464 50.3536L100 50.7071L100.354 50.3536L109.354 41.3536L109.706 41.0012L109.355 40.6477L107.945 39.2277L107.591 38.8716L107.236 39.2264L99.9995 46.4634L96.7631 43.236L96.4095 42.8834L96.0564 43.2364L94.6464 44.6464L94.2929 45L94.6464 45.3536L99.6464 50.3536ZM92.5 45C92.5 39.7561 96.7561 35.5 102 35.5C107.244 35.5 111.5 39.7561 111.5 45C111.5 50.2439 107.244 54.5 102 54.5C96.7561 54.5 92.5 50.2439 92.5 45Z" fill="#010101" stroke="black"/>
</svg>
