<svg version="1.1" xmlns="http://www.w3.org/2000/svg" xmlns:xlink="http://www.w3.org/1999/xlink" width="241.673" height="8.928" viewBox="0,0,241.673,8.928"><g transform="translate(-119.1635,-175.536)"><g data-paper-data="{&quot;isPaintingLayer&quot;:true}" fill="#000000" fill-rule="nonzero" stroke="none" stroke-width="1" stroke-linecap="butt" stroke-linejoin="miter" stroke-miterlimit="10" stroke-dasharray="" stroke-dashoffset="0" style="mix-blend-mode: normal"><path d="M119.7575,182.745c-0.108,0 -0.195,-0.036 -0.261,-0.108c-0.066,-0.078 -0.12,-0.201 -0.162,-0.369c-0.042,-0.192 -0.081,-0.492 -0.117,-0.9c-0.036,-0.414 -0.054,-0.876 -0.054,-1.386c0,-0.552 0.015,-1.089 0.045,-1.611c0.036,-0.528 0.087,-0.993 0.153,-1.395c0.048,-0.264 0.117,-0.459 0.207,-0.585c0.096,-0.132 0.228,-0.198 0.396,-0.198c0.108,0 0.204,0.036 0.288,0.108c0.084,0.072 0.147,0.201 0.189,0.387c0.048,0.186 0.072,0.45 0.072,0.792c0,0.168 -0.006,0.36 -0.018,0.576c-0.012,0.21 -0.03,0.444 -0.054,0.702h0.036c0.48,-0.66 0.903,-1.185 1.269,-1.575c0.366,-0.396 0.687,-0.681 0.963,-0.855c0.282,-0.174 0.528,-0.261 0.738,-0.261c0.168,0 0.294,0.054 0.378,0.162c0.09,0.108 0.135,0.24 0.135,0.396c0,0.33 -0.249,0.726 -0.747,1.188c-0.492,0.462 -1.287,1.017 -2.385,1.665l0.072,-0.171c0.948,0.6 1.665,1.131 2.151,1.593c0.486,0.456 0.729,0.861 0.729,1.215c0,0.156 -0.051,0.285 -0.153,0.387c-0.096,0.096 -0.24,0.144 -0.432,0.144c-0.24,0 -0.495,-0.081 -0.765,-0.243c-0.27,-0.168 -0.57,-0.447 -0.9,-0.837c-0.324,-0.396 -0.693,-0.933 -1.107,-1.611h-0.036c0.012,0.138 0.021,0.282 0.027,0.432c0.006,0.144 0.009,0.288 0.009,0.432c0,0.69 -0.048,1.185 -0.144,1.485c-0.096,0.294 -0.27,0.441 -0.522,0.441zM127.24592,182.727c-0.666,0 -1.197,-0.099 -1.593,-0.297c-0.396,-0.198 -0.681,-0.483 -0.855,-0.855c-0.174,-0.372 -0.261,-0.816 -0.261,-1.332c0,-0.654 0.12,-1.209 0.36,-1.665c0.246,-0.462 0.582,-0.816 1.008,-1.062c0.432,-0.246 0.921,-0.369 1.467,-0.369c0.642,0 1.113,0.15 1.41298,0.45c0.3,0.294 0.45,0.681 0.45,1.161c0,0.384 -0.102,0.717 -0.306,0.999c-0.198,0.276 -0.47398,0.489 -0.82798,0.639c-0.354,0.15 -0.762,0.225 -1.224,0.225c-0.258,0 -0.507,-0.033 -0.747,-0.099c-0.24,-0.066 -0.456,-0.156 -0.648,-0.27l0.216,-0.396c-0.018,0.144 -0.027,0.288 -0.027,0.432c0,0.42 0.132,0.723 0.396,0.909c0.264,0.18 0.639,0.27 1.125,0.27c0.378,0 0.681,-0.033 0.909,-0.099c0.228,-0.066 0.42,-0.129 0.57598,-0.189c0.156,-0.066 0.309,-0.099 0.459,-0.099c0.084,0 0.159,0.024 0.225,0.072c0.072,0.042 0.129,0.105 0.171,0.189c0.048,0.084 0.072,0.186 0.072,0.306c0,0.18 -0.09,0.354 -0.27,0.522c-0.18,0.162 -0.447,0.297 -0.80098,0.405c-0.348,0.102 -0.777,0.153 -1.287,0.153zM126.72392,179.784c0.426,0 0.768,-0.09 1.026,-0.27c0.258,-0.18 0.387,-0.402 0.387,-0.666c0,-0.21 -0.072,-0.381 -0.216,-0.513c-0.138,-0.138 -0.357,-0.207 -0.657,-0.207c-0.282,0 -0.537,0.054 -0.765,0.162c-0.222,0.102 -0.396,0.237 -0.522,0.405c-0.126,0.168 -0.189,0.351 -0.189,0.549c0,0.174 0.081,0.309 0.243,0.405c0.168,0.09 0.399,0.135 0.693,0.135zM131.3669,182.673c-0.186,0 -0.333,-0.042 -0.441,-0.126c-0.108,-0.09 -0.195,-0.237 -0.261,-0.441c-0.09,-0.3 -0.159,-0.678 -0.207,-1.134c-0.042,-0.462 -0.063,-1.029 -0.063,-1.701c0,-0.414 0.015,-0.828 0.045,-1.242c0.036,-0.42 0.081,-0.801 0.135,-1.143c0.054,-0.348 0.111,-0.618 0.171,-0.81c0.066,-0.204 0.144,-0.345 0.234,-0.423c0.09,-0.078 0.192,-0.117 0.306,-0.117c0.12,0 0.216,0.042 0.288,0.126c0.072,0.078 0.129,0.219 0.171,0.423c0.036,0.198 0.063,0.441 0.081,0.729c0.024,0.288 0.036,0.597 0.036,0.927c0,0.45 -0.021,0.924 -0.063,1.422c-0.042,0.498 -0.099,0.987 -0.171,1.467c-0.066,0.48 -0.147,0.921 -0.243,1.323l-0.252,-0.126c0.156,-0.192 0.333,-0.342 0.531,-0.45c0.204,-0.108 0.39,-0.162 0.558,-0.162c0.138,0 0.243,0.039 0.315,0.117c0.078,0.072 0.117,0.186 0.117,0.342c0,0.156 -0.069,0.312 -0.207,0.468c-0.132,0.156 -0.297,0.285 -0.495,0.387c-0.198,0.096 -0.393,0.144 -0.585,0.144zM135.658,182.682c-0.48,0 -0.9,-0.105 -1.26,-0.315c-0.354,-0.216 -0.63,-0.522 -0.828,-0.918c-0.192,-0.396 -0.288,-0.867 -0.288,-1.413c0,-0.57 0.099,-1.068 0.297,-1.494c0.198,-0.426 0.477,-0.759 0.837,-0.999c0.366,-0.24 0.789,-0.36 1.269,-0.36c0.516,0 0.963,0.117 1.341,0.351c0.378,0.228 0.672,0.549 0.882,0.963c0.21,0.414 0.315,0.897 0.315,1.449c0,0.564 -0.105,1.05 -0.315,1.458c-0.21,0.408 -0.507,0.723 -0.891,0.945c-0.384,0.222 -0.837,0.333 -1.359,0.333zM135.784,181.467c0.372,0 0.666,-0.147 0.882,-0.441c0.222,-0.3 0.333,-0.696 0.333,-1.188c0,-0.498 -0.111,-0.894 -0.333,-1.188c-0.216,-0.294 -0.51,-0.441 -0.882,-0.441c-0.384,0 -0.687,0.147 -0.909,0.441c-0.222,0.294 -0.333,0.69 -0.333,1.188c0,0.492 0.111,0.888 0.333,1.188c0.222,0.294 0.525,0.441 0.909,0.441zM143.0102,178.533c0.06,-0.246 0.165,-0.468 0.315,-0.666c0.156,-0.198 0.342,-0.354 0.558,-0.468c0.222,-0.12 0.465,-0.18 0.729,-0.18c0.312,0 0.588,0.075 0.828,0.225c0.24,0.15 0.429,0.396 0.567,0.738c0.144,0.342 0.216,0.798 0.216,1.368c0,0.294 -0.012,0.591 -0.036,0.891c-0.024,0.3 -0.054,0.579 -0.09,0.837c-0.036,0.258 -0.075,0.474 -0.117,0.648c-0.06,0.24 -0.153,0.423 -0.279,0.549c-0.12,0.126 -0.273,0.189 -0.459,0.189c-0.156,0 -0.279,-0.069 -0.369,-0.207c-0.09,-0.138 -0.135,-0.336 -0.135,-0.594c0,-0.12 0.015,-0.273 0.045,-0.459c0.03,-0.192 0.063,-0.399 0.099,-0.621c0.036,-0.228 0.069,-0.459 0.099,-0.693c0.03,-0.234 0.045,-0.456 0.045,-0.666c0,-0.312 -0.063,-0.552 -0.189,-0.72c-0.126,-0.174 -0.303,-0.261 -0.531,-0.261c-0.252,0 -0.462,0.132 -0.63,0.396c-0.162,0.258 -0.258,0.636 -0.288,1.134c-0.024,0.444 -0.045,0.84 -0.063,1.188c-0.018,0.342 -0.063,0.624 -0.135,0.846c-0.048,0.156 -0.117,0.273 -0.207,0.351c-0.084,0.078 -0.198,0.117 -0.342,0.117c-0.162,0 -0.291,-0.06 -0.387,-0.18c-0.09,-0.12 -0.141,-0.309 -0.153,-0.567c-0.012,-0.216 -0.015,-0.471 -0.009,-0.765c0.006,-0.294 0.009,-0.585 0.009,-0.873c0.006,-0.294 0.003,-0.537 -0.009,-0.729c-0.024,-0.384 -0.093,-0.666 -0.207,-0.846c-0.108,-0.18 -0.273,-0.27 -0.495,-0.27c-0.258,0 -0.465,0.12 -0.621,0.36c-0.15,0.24 -0.243,0.573 -0.279,0.999c-0.012,0.174 -0.018,0.39 -0.018,0.648c0.006,0.252 0.012,0.504 0.018,0.756c0.006,0.252 0.003,0.462 -0.009,0.63c-0.006,0.36 -0.063,0.618 -0.171,0.774c-0.102,0.156 -0.246,0.234 -0.432,0.234c-0.222,0 -0.384,-0.072 -0.486,-0.216c-0.096,-0.144 -0.159,-0.375 -0.189,-0.693c-0.024,-0.282 -0.042,-0.561 -0.054,-0.837c-0.012,-0.282 -0.018,-0.561 -0.018,-0.837c0,-0.282 0.006,-0.588 0.018,-0.918c0.018,-0.33 0.042,-0.642 0.072,-0.936c0.036,-0.3 0.099,-0.552 0.189,-0.756c0.09,-0.204 0.24,-0.306 0.45,-0.306c0.174,0 0.297,0.087 0.369,0.261c0.072,0.168 0.108,0.429 0.108,0.783c0,0.12 -0.009,0.231 -0.027,0.333l-0.027,-0.18c0.12,-0.39 0.312,-0.693 0.576,-0.909c0.264,-0.222 0.558,-0.333 0.882,-0.333c0.426,0 0.759,0.138 0.999,0.414c0.24,0.27 0.372,0.645 0.396,1.125zM147.9346,177.075c0.162,0 0.297,0.096 0.405,0.288c0.108,0.186 0.183,0.483 0.225,0.891l-0.189,0.171c0.108,-0.42 0.309,-0.741 0.603,-0.963c0.294,-0.222 0.642,-0.333 1.044,-0.333c0.372,0 0.702,0.096 0.99,0.288c0.288,0.192 0.513,0.483 0.675,0.873c0.168,0.384 0.252,0.867 0.252,1.449c0,0.942 -0.171,1.638 -0.513,2.088c-0.336,0.444 -0.795,0.666 -1.377,0.666c-0.42,0 -0.75,-0.09 -0.99,-0.27c-0.24,-0.18 -0.408,-0.399 -0.504,-0.657l0.108,-0.054c0.048,0.36 0.087,0.717 0.117,1.071c0.036,0.348 0.054,0.654 0.054,0.918c0,0.27 -0.048,0.498 -0.144,0.684c-0.096,0.186 -0.249,0.279 -0.459,0.279c-0.204,0 -0.357,-0.078 -0.459,-0.234c-0.102,-0.156 -0.177,-0.363 -0.225,-0.621c-0.036,-0.264 -0.072,-0.603 -0.108,-1.017c-0.036,-0.414 -0.066,-0.861 -0.09,-1.341c-0.018,-0.48 -0.027,-0.948 -0.027,-1.404c0,-0.468 0.015,-0.906 0.045,-1.314c0.036,-0.414 0.078,-0.75 0.126,-1.008c0.042,-0.15 0.096,-0.261 0.162,-0.333c0.072,-0.078 0.165,-0.117 0.279,-0.117zM149.6536,178.164c-0.324,0 -0.585,0.162 -0.783,0.486c-0.192,0.318 -0.288,0.726 -0.288,1.224c0,0.51 0.096,0.891 0.288,1.143c0.198,0.252 0.453,0.378 0.765,0.378c0.36,0 0.618,-0.141 0.774,-0.423c0.162,-0.288 0.243,-0.66 0.243,-1.116c0,-0.582 -0.099,-1.008 -0.297,-1.278c-0.198,-0.276 -0.432,-0.414 -0.702,-0.414zM155.0379,182.682c-0.48,0 -0.9,-0.105 -1.26,-0.315c-0.354,-0.216 -0.63,-0.522 -0.828,-0.918c-0.192,-0.396 -0.288,-0.867 -0.288,-1.413c0,-0.57 0.099,-1.068 0.297,-1.494c0.198,-0.426 0.477,-0.759 0.837,-0.999c0.366,-0.24 0.789,-0.36 1.269,-0.36c0.516,0 0.963,0.117 1.341,0.351c0.378,0.228 0.672,0.549 0.882,0.963c0.21,0.414 0.315,0.897 0.315,1.449c0,0.564 -0.105,1.05 -0.315,1.458c-0.21,0.408 -0.507,0.723 -0.891,0.945c-0.384,0.222 -0.837,0.333 -1.359,0.333zM155.1639,181.467c0.372,0 0.666,-0.147 0.882,-0.441c0.222,-0.3 0.333,-0.696 0.333,-1.188c0,-0.498 -0.111,-0.894 -0.333,-1.188c-0.216,-0.294 -0.51,-0.441 -0.882,-0.441c-0.384,0 -0.687,0.147 -0.909,0.441c-0.222,0.294 -0.333,0.69 -0.333,1.188c0,0.492 0.111,0.888 0.333,1.188c0.222,0.294 0.525,0.441 0.909,0.441zM159.1231,182.745c-0.114,0 -0.207,-0.033 -0.279,-0.099c-0.072,-0.072 -0.123,-0.174 -0.153,-0.306c-0.048,-0.222 -0.09,-0.543 -0.126,-0.963c-0.036,-0.42 -0.054,-0.885 -0.054,-1.395c0,-0.63 0.021,-1.236 0.063,-1.818c0.048,-0.582 0.108,-1.059 0.18,-1.431c0.078,-0.402 0.174,-0.696 0.288,-0.882c0.114,-0.192 0.264,-0.288 0.45,-0.288c0.168,0 0.297,0.078 0.387,0.234c0.09,0.15 0.135,0.411 0.135,0.783c0,0.372 -0.015,0.771 -0.045,1.197c-0.024,0.426 -0.066,0.882 -0.126,1.368h0.036c0.39,-0.528 0.753,-0.951 1.089,-1.269c0.342,-0.318 0.654,-0.549 0.936,-0.693c0.288,-0.144 0.543,-0.216 0.765,-0.216c0.174,0 0.303,0.054 0.387,0.162c0.084,0.108 0.126,0.24 0.126,0.396c0,0.306 -0.246,0.648 -0.738,1.026c-0.486,0.378 -1.188,0.765 -2.106,1.161l0.009,-0.144c0.57,0.294 1.059,0.603 1.467,0.927c0.414,0.318 0.729,0.621 0.945,0.909c0.222,0.282 0.333,0.519 0.333,0.711c0,0.156 -0.051,0.285 -0.153,0.387c-0.096,0.096 -0.237,0.144 -0.423,0.144c-0.234,0 -0.495,-0.087 -0.783,-0.261c-0.282,-0.18 -0.576,-0.447 -0.882,-0.801c-0.306,-0.354 -0.612,-0.798 -0.918,-1.332h-0.036c-0.006,0.378 -0.03,0.747 -0.072,1.107c-0.036,0.354 -0.084,0.645 -0.144,0.873c-0.042,0.156 -0.108,0.282 -0.198,0.378c-0.084,0.09 -0.204,0.135 -0.36,0.135zM169.5523,177.201c0,0.186 -0.072,0.339 -0.216,0.459c-0.138,0.114 -0.339,0.171 -0.603,0.171c-0.174,0 -0.378,-0.006 -0.612,-0.018c-0.228,-0.018 -0.462,-0.039 -0.702,-0.063c-0.234,-0.03 -0.45,-0.06 -0.648,-0.09l0.243,-0.135c-0.006,0.3 -0.033,0.609 -0.081,0.927c-0.042,0.318 -0.096,0.585 -0.162,0.801l-0.297,-0.054c0.264,-0.036 0.525,-0.054 0.783,-0.054c0.768,0 1.341,0.15 1.719,0.45c0.378,0.3 0.567,0.708 0.567,1.224c0,0.366 -0.084,0.696 -0.252,0.99c-0.168,0.288 -0.42,0.519 -0.756,0.693c-0.33,0.168 -0.747,0.252 -1.251,0.252c-0.462,0 -0.828,-0.036 -1.098,-0.108c-0.264,-0.078 -0.45,-0.18 -0.558,-0.306c-0.108,-0.132 -0.162,-0.279 -0.162,-0.441c0,-0.15 0.042,-0.273 0.126,-0.369c0.09,-0.102 0.219,-0.153 0.387,-0.153c0.204,0 0.426,0.027 0.666,0.081c0.246,0.054 0.471,0.081 0.675,0.081c0.33,0 0.582,-0.054 0.756,-0.162c0.18,-0.108 0.27,-0.261 0.27,-0.459c0,-0.234 -0.093,-0.405 -0.279,-0.513c-0.186,-0.108 -0.447,-0.162 -0.783,-0.162c-0.15,0 -0.309,0.003 -0.477,0.009c-0.168,0.006 -0.303,0.009 -0.405,0.009c-0.228,0 -0.396,-0.045 -0.504,-0.135c-0.102,-0.096 -0.153,-0.264 -0.153,-0.504c0,-0.216 0.009,-0.471 0.027,-0.765c0.018,-0.3 0.042,-0.594 0.072,-0.882c0.03,-0.294 0.06,-0.534 0.09,-0.72c0.048,-0.264 0.138,-0.465 0.27,-0.603c0.132,-0.138 0.336,-0.207 0.612,-0.207c0.198,0 0.423,0.006 0.675,0.018c0.258,0.006 0.513,0.021 0.765,0.045c0.258,0.018 0.483,0.042 0.675,0.072c0.414,0.06 0.621,0.267 0.621,0.621zM173.787,177.237h-0.18c-0.018,-0.264 -0.012,-0.513 0.018,-0.747c0.03,-0.24 0.093,-0.432 0.189,-0.576c0.102,-0.15 0.246,-0.225 0.432,-0.225c0.168,0 0.291,0.054 0.369,0.162c0.078,0.108 0.117,0.258 0.117,0.45c0,0.378 -0.072,0.702 -0.216,0.972l-0.162,-0.018c0.324,-0.114 0.69,-0.171 1.098,-0.171c0.258,0 0.462,0.051 0.612,0.153c0.156,0.096 0.234,0.261 0.234,0.495c0,0.222 -0.09,0.39 -0.27,0.504c-0.18,0.114 -0.405,0.171 -0.675,0.171c-0.162,0 -0.336,-0.006 -0.522,-0.018c-0.18,-0.018 -0.357,-0.045 -0.531,-0.081l0.153,-0.189c0.054,0.228 0.105,0.489 0.153,0.783c0.054,0.288 0.102,0.588 0.144,0.9c0.042,0.312 0.075,0.615 0.099,0.909c0.024,0.294 0.036,0.558 0.036,0.792c0,0.384 -0.06,0.687 -0.18,0.909c-0.12,0.222 -0.297,0.333 -0.531,0.333c-0.186,0 -0.333,-0.057 -0.441,-0.171c-0.102,-0.114 -0.177,-0.258 -0.225,-0.432c-0.042,-0.18 -0.069,-0.366 -0.081,-0.558c-0.006,-0.192 -0.009,-0.366 -0.009,-0.522c0,-0.264 0.012,-0.561 0.036,-0.891c0.024,-0.336 0.057,-0.681 0.099,-1.035c0.048,-0.354 0.102,-0.696 0.162,-1.026l0.18,0.153c-0.306,0.156 -0.684,0.234 -1.134,0.234c-0.276,0 -0.489,-0.051 -0.639,-0.153c-0.15,-0.102 -0.225,-0.261 -0.225,-0.477c0,-0.234 0.084,-0.414 0.252,-0.54c0.168,-0.132 0.393,-0.198 0.675,-0.198c0.186,0 0.36,0.012 0.522,0.036c0.168,0.018 0.315,0.042 0.441,0.072zM179.4617,182.727c-0.666,0 -1.197,-0.099 -1.593,-0.297c-0.396,-0.198 -0.681,-0.483 -0.855,-0.855c-0.174,-0.372 -0.261,-0.816 -0.261,-1.332c0,-0.654 0.12,-1.209 0.36,-1.665c0.246,-0.462 0.582,-0.816 1.008,-1.062c0.432,-0.246 0.921,-0.369 1.467,-0.369c0.642,0 1.113,0.15 1.413,0.45c0.3,0.294 0.45,0.681 0.45,1.161c0,0.384 -0.102,0.717 -0.306,0.999c-0.198,0.276 -0.474,0.489 -0.828,0.639c-0.354,0.15 -0.762,0.225 -1.224,0.225c-0.258,0 -0.507,-0.033 -0.747,-0.099c-0.24,-0.066 -0.456,-0.156 -0.648,-0.27l0.216,-0.396c-0.018,0.144 -0.027,0.288 -0.027,0.432c0,0.42 0.132,0.723 0.396,0.909c0.264,0.18 0.639,0.27 1.125,0.27c0.378,0 0.681,-0.033 0.909,-0.099c0.228,-0.066 0.42,-0.129 0.576,-0.189c0.156,-0.066 0.309,-0.099 0.459,-0.099c0.084,0 0.159,0.024 0.225,0.072c0.072,0.042 0.129,0.105 0.171,0.189c0.048,0.084 0.072,0.186 0.072,0.306c0,0.18 -0.09,0.354 -0.27,0.522c-0.18,0.162 -0.447,0.297 -0.801,0.405c-0.348,0.102 -0.777,0.153 -1.287,0.153zM178.9397,179.784c0.426,0 0.768,-0.09 1.026,-0.27c0.258,-0.18 0.387,-0.402 0.387,-0.666c0,-0.21 -0.072,-0.381 -0.216,-0.513c-0.138,-0.138 -0.357,-0.207 -0.657,-0.207c-0.282,0 -0.537,0.054 -0.765,0.162c-0.222,0.102 -0.396,0.237 -0.522,0.405c-0.126,0.168 -0.189,0.351 -0.189,0.549c0,0.174 0.081,0.309 0.243,0.405c0.168,0.09 0.399,0.135 0.693,0.135zM182.6107,178.596c0,-0.576 0.054,-0.99 0.162,-1.242c0.108,-0.258 0.261,-0.387 0.459,-0.387c0.156,0 0.279,0.066 0.369,0.198c0.09,0.126 0.156,0.285 0.198,0.477c0.042,0.186 0.063,0.375 0.063,0.567l-0.045,-0.018c0.102,-0.324 0.258,-0.603 0.468,-0.837c0.216,-0.234 0.474,-0.351 0.774,-0.351c0.354,0 0.615,0.147 0.783,0.441c0.168,0.288 0.252,0.648 0.252,1.08c0,0.576 -0.066,0.978 -0.198,1.206c-0.132,0.228 -0.309,0.342 -0.531,0.342c-0.162,0 -0.282,-0.066 -0.36,-0.198c-0.072,-0.132 -0.096,-0.366 -0.072,-0.702c0.024,-0.354 0.003,-0.6 -0.063,-0.738c-0.066,-0.138 -0.171,-0.207 -0.315,-0.207c-0.174,0 -0.318,0.111 -0.432,0.333c-0.108,0.216 -0.162,0.483 -0.162,0.801c0,0.126 0.015,0.285 0.045,0.477c0.03,0.192 0.063,0.402 0.099,0.63c0.036,0.222 0.069,0.444 0.099,0.666c0.03,0.222 0.045,0.426 0.045,0.612c0,0.33 -0.051,0.567 -0.153,0.711c-0.102,0.144 -0.246,0.216 -0.432,0.216c-0.21,0 -0.372,-0.066 -0.486,-0.198c-0.114,-0.138 -0.201,-0.36 -0.261,-0.666c-0.048,-0.276 -0.096,-0.603 -0.144,-0.981c-0.048,-0.378 -0.087,-0.765 -0.117,-1.161c-0.03,-0.396 -0.045,-0.753 -0.045,-1.071zM190.77,178.533c0.06,-0.246 0.165,-0.468 0.315,-0.666c0.156,-0.198 0.342,-0.354 0.558,-0.468c0.222,-0.12 0.465,-0.18 0.729,-0.18c0.312,0 0.588,0.075 0.828,0.225c0.24,0.15 0.429,0.396 0.567,0.738c0.144,0.342 0.216,0.798 0.216,1.368c0,0.294 -0.012,0.591 -0.036,0.891c-0.024,0.3 -0.054,0.579 -0.09,0.837c-0.036,0.258 -0.075,0.474 -0.117,0.648c-0.06,0.24 -0.153,0.423 -0.279,0.549c-0.12,0.126 -0.273,0.189 -0.459,0.189c-0.156,0 -0.279,-0.069 -0.369,-0.207c-0.09,-0.138 -0.135,-0.336 -0.135,-0.594c0,-0.12 0.015,-0.273 0.045,-0.459c0.03,-0.192 0.063,-0.399 0.099,-0.621c0.036,-0.228 0.069,-0.459 0.099,-0.693c0.03,-0.234 0.045,-0.456 0.045,-0.666c0,-0.312 -0.063,-0.552 -0.189,-0.72c-0.126,-0.174 -0.303,-0.261 -0.531,-0.261c-0.252,0 -0.462,0.132 -0.63,0.396c-0.162,0.258 -0.258,0.636 -0.288,1.134c-0.024,0.444 -0.045,0.84 -0.063,1.188c-0.018,0.342 -0.063,0.624 -0.135,0.846c-0.048,0.156 -0.117,0.273 -0.207,0.351c-0.084,0.078 -0.198,0.117 -0.342,0.117c-0.162,0 -0.291,-0.06 -0.387,-0.18c-0.09,-0.12 -0.141,-0.309 -0.153,-0.567c-0.012,-0.216 -0.015,-0.471 -0.009,-0.765c0.006,-0.294 0.009,-0.585 0.009,-0.873c0.006,-0.294 0.003,-0.537 -0.009,-0.729c-0.024,-0.384 -0.093,-0.666 -0.207,-0.846c-0.108,-0.18 -0.273,-0.27 -0.495,-0.27c-0.258,0 -0.465,0.12 -0.621,0.36c-0.15,0.24 -0.243,0.573 -0.279,0.999c-0.012,0.174 -0.018,0.39 -0.018,0.648c0.006,0.252 0.012,0.504 0.018,0.756c0.006,0.252 0.003,0.462 -0.009,0.63c-0.006,0.36 -0.063,0.618 -0.171,0.774c-0.102,0.156 -0.246,0.234 -0.432,0.234c-0.222,0 -0.384,-0.072 -0.486,-0.216c-0.096,-0.144 -0.159,-0.375 -0.189,-0.693c-0.024,-0.282 -0.042,-0.561 -0.054,-0.837c-0.012,-0.282 -0.018,-0.561 -0.018,-0.837c0,-0.282 0.006,-0.588 0.018,-0.918c0.018,-0.33 0.042,-0.642 0.072,-0.936c0.036,-0.3 0.099,-0.552 0.189,-0.756c0.09,-0.204 0.24,-0.306 0.45,-0.306c0.174,0 0.297,0.087 0.369,0.261c0.072,0.168 0.108,0.429 0.108,0.783c0,0.12 -0.009,0.231 -0.027,0.333l-0.027,-0.18c0.12,-0.39 0.312,-0.693 0.576,-0.909c0.264,-0.222 0.558,-0.333 0.882,-0.333c0.426,0 0.759,0.138 0.999,0.414c0.24,0.27 0.372,0.645 0.396,1.125zM199.0154,182.745c-0.204,0 -0.345,-0.078 -0.423,-0.234c-0.072,-0.162 -0.114,-0.417 -0.126,-0.765l0.09,0.045c-0.336,0.654 -0.972,0.981 -1.908,0.981c-0.426,0 -0.78,-0.075 -1.062,-0.225c-0.282,-0.156 -0.492,-0.36 -0.63,-0.612c-0.132,-0.258 -0.198,-0.537 -0.198,-0.837c0,-0.516 0.18,-0.924 0.54,-1.224c0.36,-0.306 0.837,-0.459 1.431,-0.459c0.39,0 0.729,0.057 1.017,0.171c0.288,0.114 0.534,0.273 0.738,0.477l-0.153,-0.018c-0.042,-0.606 -0.174,-1.038 -0.396,-1.296c-0.216,-0.264 -0.525,-0.396 -0.927,-0.396c-0.234,0 -0.45,0.036 -0.648,0.108c-0.198,0.072 -0.381,0.147 -0.549,0.225c-0.162,0.072 -0.315,0.108 -0.459,0.108c-0.144,0 -0.258,-0.048 -0.342,-0.144c-0.078,-0.096 -0.117,-0.219 -0.117,-0.369c0,-0.216 0.102,-0.42 0.306,-0.612c0.21,-0.192 0.486,-0.348 0.828,-0.468c0.342,-0.12 0.714,-0.18 1.116,-0.18c0.486,0 0.903,0.117 1.251,0.351c0.348,0.234 0.612,0.576 0.792,1.026c0.156,0.384 0.267,0.813 0.333,1.287c0.066,0.474 0.099,0.981 0.099,1.521c0,0.408 -0.021,0.723 -0.063,0.945c-0.042,0.222 -0.108,0.378 -0.198,0.468c-0.084,0.084 -0.198,0.126 -0.342,0.126zM197.0264,181.737c0.198,0 0.399,-0.027 0.603,-0.081c0.204,-0.06 0.375,-0.147 0.513,-0.261c0.138,-0.114 0.207,-0.255 0.207,-0.423c0,-0.144 -0.06,-0.261 -0.18,-0.351c-0.114,-0.096 -0.267,-0.168 -0.459,-0.216c-0.186,-0.048 -0.387,-0.072 -0.603,-0.072c-0.366,0 -0.645,0.063 -0.837,0.189c-0.186,0.126 -0.279,0.294 -0.279,0.504c0,0.228 0.087,0.405 0.261,0.531c0.18,0.12 0.438,0.18 0.774,0.18zM202.9932,177.021c0.534,0 0.918,0.078 1.152,0.234c0.234,0.156 0.351,0.357 0.351,0.603c0,0.144 -0.051,0.264 -0.153,0.36c-0.096,0.09 -0.234,0.135 -0.414,0.135c-0.186,0 -0.381,-0.027 -0.585,-0.081c-0.198,-0.054 -0.429,-0.081 -0.693,-0.081c-0.306,0 -0.534,0.06 -0.684,0.18c-0.15,0.12 -0.225,0.273 -0.225,0.459c0,0.174 0.066,0.312 0.198,0.414c0.138,0.096 0.399,0.168 0.783,0.216c0.426,0.048 0.777,0.126 1.053,0.234c0.282,0.102 0.492,0.258 0.63,0.468c0.138,0.204 0.207,0.486 0.207,0.846c0,0.57 -0.201,0.993 -0.603,1.269c-0.402,0.276 -0.957,0.414 -1.665,0.414c-0.45,0 -0.807,-0.036 -1.071,-0.108c-0.264,-0.072 -0.456,-0.174 -0.576,-0.306c-0.114,-0.132 -0.171,-0.288 -0.171,-0.468c0,-0.156 0.051,-0.276 0.153,-0.36c0.108,-0.09 0.234,-0.135 0.378,-0.135c0.138,0 0.285,0.018 0.441,0.054c0.156,0.03 0.321,0.063 0.495,0.099c0.174,0.036 0.354,0.054 0.54,0.054c0.6,0 0.9,-0.186 0.9,-0.558c0,-0.126 -0.03,-0.228 -0.09,-0.306c-0.06,-0.078 -0.168,-0.141 -0.324,-0.189c-0.156,-0.054 -0.384,-0.096 -0.684,-0.126c-0.36,-0.036 -0.672,-0.096 -0.936,-0.18c-0.264,-0.09 -0.468,-0.234 -0.612,-0.432c-0.144,-0.204 -0.216,-0.483 -0.216,-0.837c0,-0.558 0.21,-1.008 0.63,-1.35c0.42,-0.348 1.017,-0.522 1.791,-0.522zM209.5738,182.601c-0.162,0 -0.288,-0.054 -0.378,-0.162c-0.084,-0.114 -0.141,-0.258 -0.171,-0.432c-0.03,-0.18 -0.045,-0.369 -0.045,-0.567l0.045,-0.036c-0.06,0.258 -0.177,0.48 -0.351,0.666c-0.174,0.186 -0.375,0.33 -0.603,0.432c-0.228,0.096 -0.456,0.144 -0.684,0.144c-0.306,0 -0.585,-0.072 -0.837,-0.216c-0.252,-0.144 -0.447,-0.366 -0.585,-0.666c-0.138,-0.318 -0.246,-0.717 -0.324,-1.197c-0.078,-0.486 -0.117,-0.984 -0.117,-1.494c0,-0.276 0.012,-0.531 0.036,-0.765c0.024,-0.234 0.063,-0.426 0.117,-0.576c0.048,-0.156 0.12,-0.27 0.216,-0.342c0.096,-0.078 0.219,-0.117 0.369,-0.117c0.174,0 0.309,0.069 0.405,0.207c0.102,0.132 0.165,0.318 0.189,0.558c0.024,0.198 0.039,0.444 0.045,0.738c0.012,0.288 0.021,0.579 0.027,0.873c0.012,0.288 0.027,0.531 0.045,0.729c0.036,0.36 0.129,0.627 0.279,0.801c0.15,0.168 0.333,0.252 0.549,0.252c0.318,0 0.561,-0.12 0.729,-0.36c0.168,-0.24 0.252,-0.576 0.252,-1.008c0,-0.216 -0.012,-0.459 -0.036,-0.729c-0.024,-0.276 -0.051,-0.543 -0.081,-0.801c-0.024,-0.258 -0.036,-0.471 -0.036,-0.639c0,-0.282 0.048,-0.483 0.144,-0.603c0.096,-0.126 0.228,-0.189 0.396,-0.189c0.144,0 0.264,0.039 0.36,0.117c0.102,0.078 0.183,0.186 0.243,0.324c0.084,0.18 0.156,0.426 0.216,0.738c0.06,0.312 0.108,0.666 0.144,1.062c0.036,0.396 0.054,0.813 0.054,1.251c0,0.672 -0.045,1.176 -0.135,1.512c-0.09,0.33 -0.249,0.495 -0.477,0.495zM211.8926,182.745c-0.114,0 -0.207,-0.033 -0.279,-0.099c-0.072,-0.072 -0.123,-0.174 -0.153,-0.306c-0.048,-0.222 -0.09,-0.543 -0.126,-0.963c-0.036,-0.42 -0.054,-0.885 -0.054,-1.395c0,-0.63 0.021,-1.236 0.063,-1.818c0.048,-0.582 0.108,-1.059 0.18,-1.431c0.078,-0.402 0.174,-0.696 0.288,-0.882c0.114,-0.192 0.264,-0.288 0.45,-0.288c0.168,0 0.297,0.078 0.387,0.234c0.09,0.15 0.135,0.411 0.135,0.783c0,0.372 -0.015,0.771 -0.045,1.197c-0.024,0.426 -0.066,0.882 -0.126,1.368h0.036c0.39,-0.528 0.753,-0.951 1.089,-1.269c0.342,-0.318 0.654,-0.549 0.936,-0.693c0.288,-0.144 0.543,-0.216 0.765,-0.216c0.174,0 0.303,0.054 0.387,0.162c0.084,0.108 0.126,0.24 0.126,0.396c0,0.306 -0.246,0.648 -0.738,1.026c-0.486,0.378 -1.188,0.765 -2.106,1.161l0.009,-0.144c0.57,0.294 1.059,0.603 1.467,0.927c0.414,0.318 0.729,0.621 0.945,0.909c0.222,0.282 0.333,0.519 0.333,0.711c0,0.156 -0.051,0.285 -0.153,0.387c-0.096,0.096 -0.237,0.144 -0.423,0.144c-0.234,0 -0.495,-0.087 -0.783,-0.261c-0.282,-0.18 -0.576,-0.447 -0.882,-0.801c-0.306,-0.354 -0.612,-0.798 -0.918,-1.332h-0.036c-0.006,0.378 -0.03,0.747 -0.072,1.107c-0.036,0.354 -0.084,0.645 -0.144,0.873c-0.042,0.156 -0.108,0.282 -0.198,0.378c-0.084,0.09 -0.204,0.135 -0.36,0.135zM219.0905,182.745c-0.114,0 -0.207,-0.033 -0.279,-0.099c-0.072,-0.072 -0.123,-0.174 -0.153,-0.306c-0.048,-0.222 -0.0896,-0.543 -0.1256,-0.963c-0.036,-0.42 -0.054,-0.885 -0.054,-1.395c0,-0.63 0.021,-1.236 0.063,-1.818c0.0476,-0.582 0.1076,-1.059 0.1796,-1.431c0.078,-0.402 0.174,-0.696 0.288,-0.882c0.114,-0.192 0.264,-0.288 0.45,-0.288c0.168,0 0.297,0.078 0.387,0.234c0.09,0.15 0.135,0.411 0.135,0.783c0,0.372 -0.015,0.771 -0.045,1.197c-0.024,0.426 -0.066,0.882 -0.126,1.368h0.036c0.39,-0.528 0.753,-0.951 1.089,-1.269c0.342,-0.318 0.654,-0.549 0.936,-0.693c0.288,-0.144 0.543,-0.216 0.765,-0.216c0.174,0 0.303,0.054 0.387,0.162c0.084,0.108 0.126,0.24 0.126,0.396c0,0.306 -0.246,0.648 -0.738,1.026c-0.486,0.378 -1.188,0.765 -2.106,1.161l0.009,-0.144c0.57,0.294 1.059,0.603 1.467,0.927c0.414,0.318 0.729,0.621 0.945,0.909c0.222,0.282 0.333,0.519 0.333,0.711c0,0.156 -0.051,0.285 -0.153,0.387c-0.096,0.096 -0.237,0.144 -0.423,0.144c-0.234,0 -0.495,-0.087 -0.783,-0.261c-0.282,-0.18 -0.576,-0.447 -0.882,-0.801c-0.306,-0.354 -0.612,-0.798 -0.918,-1.332h-0.036c-0.006,0.378 -0.03,0.747 -0.072,1.107c-0.036,0.354 -0.084,0.645 -0.144,0.873c-0.042,0.156 -0.108,0.282 -0.198,0.378c-0.084,0.09 -0.204,0.135 -0.36,0.135zM226.3075,182.727c-0.666,0 -1.197,-0.099 -1.593,-0.297c-0.396,-0.198 -0.681,-0.483 -0.855,-0.855c-0.174,-0.372 -0.261,-0.816 -0.261,-1.332c0,-0.654 0.12,-1.209 0.36,-1.665c0.246,-0.462 0.582,-0.816 1.008,-1.062c0.432,-0.246 0.921,-0.369 1.467,-0.369c0.642,0 1.113,0.15 1.413,0.45c0.3,0.294 0.45,0.681 0.45,1.161c0,0.384 -0.102,0.717 -0.306,0.999c-0.198,0.276 -0.474,0.489 -0.828,0.639c-0.354,0.15 -0.762,0.225 -1.224,0.225c-0.258,0 -0.507,-0.033 -0.747,-0.099c-0.24,-0.066 -0.456,-0.156 -0.648,-0.27l0.216,-0.396c-0.018,0.144 -0.027,0.288 -0.027,0.432c0,0.42 0.132,0.723 0.396,0.909c0.264,0.18 0.639,0.27 1.125,0.27c0.378,0 0.681,-0.033 0.909,-0.099c0.228,-0.066 0.42,-0.129 0.576,-0.189c0.156,-0.066 0.309,-0.099 0.459,-0.099c0.084,0 0.159,0.024 0.225,0.072c0.072,0.042 0.129,0.105 0.171,0.189c0.048,0.084 0.072,0.186 0.072,0.306c0,0.18 -0.09,0.354 -0.27,0.522c-0.18,0.162 -0.447,0.297 -0.801,0.405c-0.348,0.102 -0.777,0.153 -1.287,0.153zM225.7855,179.784c0.426,0 0.768,-0.09 1.026,-0.27c0.258,-0.18 0.387,-0.402 0.387,-0.666c0,-0.21 -0.072,-0.381 -0.216,-0.513c-0.138,-0.138 -0.357,-0.207 -0.657,-0.207c-0.282,0 -0.537,0.054 -0.765,0.162c-0.222,0.102 -0.396,0.237 -0.522,0.405c-0.126,0.168 -0.189,0.351 -0.189,0.549c0,0.174 0.081,0.309 0.243,0.405c0.168,0.09 0.399,0.135 0.693,0.135zM232.9415,182.781c-0.588,0 -1.047,-0.219 -1.377,-0.657c-0.33,-0.444 -0.495,-1.119 -0.495,-2.025c0,-0.9 0.162,-1.557 0.486,-1.971c0.33,-0.42 0.801,-0.63 1.413,-0.63c0.348,0 0.651,0.072 0.909,0.216c0.264,0.144 0.498,0.348 0.702,0.612l-0.072,0.036c-0.054,-0.246 -0.108,-0.507 -0.162,-0.783c-0.054,-0.276 -0.099,-0.537 -0.135,-0.783c-0.03,-0.252 -0.045,-0.45 -0.045,-0.594c0,-0.204 0.033,-0.36 0.099,-0.468c0.066,-0.114 0.171,-0.171 0.315,-0.171c0.204,0 0.369,0.087 0.495,0.261c0.126,0.168 0.231,0.429 0.315,0.783c0.078,0.318 0.147,0.696 0.207,1.134c0.06,0.432 0.108,0.885 0.144,1.359c0.042,0.468 0.063,0.918 0.063,1.35c0,0.6 -0.033,1.068 -0.099,1.404c-0.06,0.33 -0.147,0.561 -0.261,0.693c-0.108,0.132 -0.237,0.198 -0.387,0.198c-0.186,0 -0.312,-0.093 -0.378,-0.279c-0.066,-0.186 -0.093,-0.489 -0.081,-0.909h0.135c-0.162,0.372 -0.399,0.669 -0.711,0.891c-0.306,0.222 -0.666,0.333 -1.08,0.333zM233.4185,181.665c0.216,0 0.414,-0.054 0.594,-0.162c0.186,-0.114 0.333,-0.288 0.441,-0.522c0.114,-0.234 0.171,-0.531 0.171,-0.891c0,-0.462 -0.105,-0.837 -0.315,-1.125c-0.21,-0.294 -0.513,-0.441 -0.909,-0.441c-0.312,0 -0.567,0.129 -0.765,0.387c-0.192,0.258 -0.288,0.648 -0.288,1.17c0,0.462 0.096,0.843 0.288,1.143c0.198,0.294 0.459,0.441 0.783,0.441zM240.8335,182.745c-0.204,0 -0.345,-0.078 -0.423,-0.234c-0.072,-0.162 -0.114,-0.417 -0.126,-0.765l0.09,0.045c-0.336,0.654 -0.972,0.981 -1.908,0.981c-0.426,0 -0.78,-0.075 -1.062,-0.225c-0.282,-0.156 -0.492,-0.36 -0.63,-0.612c-0.132,-0.258 -0.198,-0.537 -0.198,-0.837c0,-0.516 0.18,-0.924 0.54,-1.224c0.36,-0.306 0.837,-0.459 1.431,-0.459c0.39,0 0.729,0.057 1.017,0.171c0.288,0.114 0.534,0.273 0.738,0.477l-0.153,-0.018c-0.042,-0.606 -0.174,-1.038 -0.396,-1.296c-0.216,-0.264 -0.525,-0.396 -0.927,-0.396c-0.234,0 -0.45,0.036 -0.648,0.108c-0.198,0.072 -0.381,0.147 -0.549,0.225c-0.162,0.072 -0.315,0.108 -0.459,0.108c-0.144,0 -0.258,-0.048 -0.342,-0.144c-0.078,-0.096 -0.117,-0.219 -0.117,-0.369c0,-0.216 0.102,-0.42 0.306,-0.612c0.21,-0.192 0.486,-0.348 0.828,-0.468c0.342,-0.12 0.714,-0.18 1.116,-0.18c0.486,0 0.903,0.117 1.251,0.351c0.348,0.234 0.612,0.576 0.792,1.026c0.156,0.384 0.267,0.813 0.333,1.287c0.066,0.474 0.099,0.981 0.099,1.521c0,0.408 -0.021,0.723 -0.063,0.945c-0.042,0.222 -0.108,0.378 -0.198,0.468c-0.084,0.084 -0.198,0.126 -0.342,0.126zM238.8445,181.737c0.198,0 0.399,-0.027 0.603,-0.081c0.204,-0.06 0.375,-0.147 0.513,-0.261c0.138,-0.114 0.207,-0.255 0.207,-0.423c0,-0.144 -0.06,-0.261 -0.18,-0.351c-0.114,-0.096 -0.267,-0.168 -0.459,-0.216c-0.186,-0.048 -0.387,-0.072 -0.603,-0.072c-0.366,0 -0.645,0.063 -0.837,0.189c-0.186,0.126 -0.279,0.294 -0.279,0.504c0,0.228 0.087,0.405 0.261,0.531c0.18,0.12 0.438,0.18 0.774,0.18zM243.5065,182.673c-0.186,0 -0.333,-0.042 -0.441,-0.126c-0.108,-0.09 -0.195,-0.237 -0.261,-0.441c-0.09,-0.3 -0.159,-0.678 -0.207,-1.134c-0.042,-0.462 -0.063,-1.029 -0.063,-1.701c0,-0.414 0.015,-0.828 0.045,-1.242c0.036,-0.42 0.081,-0.801 0.135,-1.143c0.054,-0.348 0.111,-0.618 0.171,-0.81c0.066,-0.204 0.144,-0.345 0.234,-0.423c0.09,-0.078 0.192,-0.117 0.306,-0.117c0.12,0 0.216,0.042 0.288,0.126c0.072,0.078 0.129,0.219 0.171,0.423c0.036,0.198 0.063,0.441 0.081,0.729c0.024,0.288 0.036,0.597 0.036,0.927c0,0.45 -0.021,0.924 -0.063,1.422c-0.042,0.498 -0.099,0.987 -0.171,1.467c-0.066,0.48 -0.147,0.921 -0.243,1.323l-0.252,-0.126c0.156,-0.192 0.333,-0.342 0.531,-0.45c0.204,-0.108 0.39,-0.162 0.558,-0.162c0.138,0 0.243,0.039 0.315,0.117c0.078,0.072 0.117,0.186 0.117,0.342c0,0.156 -0.069,0.312 -0.207,0.468c-0.132,0.156 -0.297,0.285 -0.495,0.387c-0.198,0.096 -0.393,0.144 -0.585,0.144zM249.5435,182.745c-0.204,0 -0.345,-0.078 -0.423,-0.234c-0.072,-0.162 -0.114,-0.417 -0.126,-0.765l0.09,0.045c-0.336,0.654 -0.972,0.981 -1.908,0.981c-0.426,0 -0.78,-0.075 -1.062,-0.225c-0.282,-0.156 -0.492,-0.36 -0.63,-0.612c-0.132,-0.258 -0.198,-0.537 -0.198,-0.837c0,-0.516 0.18,-0.924 0.54,-1.224c0.36,-0.306 0.837,-0.459 1.431,-0.459c0.39,0 0.729,0.057 1.017,0.171c0.288,0.114 0.534,0.273 0.738,0.477l-0.153,-0.018c-0.042,-0.606 -0.174,-1.038 -0.396,-1.296c-0.216,-0.264 -0.525,-0.396 -0.927,-0.396c-0.234,0 -0.45,0.036 -0.648,0.108c-0.198,0.072 -0.381,0.147 -0.549,0.225c-0.162,0.072 -0.315,0.108 -0.459,0.108c-0.144,0 -0.258,-0.048 -0.342,-0.144c-0.078,-0.096 -0.117,-0.219 -0.117,-0.369c0,-0.216 0.102,-0.42 0.306,-0.612c0.21,-0.192 0.486,-0.348 0.828,-0.468c0.342,-0.12 0.714,-0.18 1.116,-0.18c0.486,0 0.903,0.117 1.251,0.351c0.348,0.234 0.612,0.576 0.792,1.026c0.156,0.384 0.267,0.813 0.333,1.287c0.066,0.474 0.099,0.981 0.099,1.521c0,0.408 -0.021,0.723 -0.063,0.945c-0.042,0.222 -0.108,0.378 -0.198,0.468c-0.084,0.084 -0.198,0.126 -0.342,0.126zM247.5545,181.737c0.198,0 0.399,-0.027 0.603,-0.081c0.204,-0.06 0.375,-0.147 0.513,-0.261c0.138,-0.114 0.207,-0.255 0.207,-0.423c0,-0.144 -0.06,-0.261 -0.18,-0.351c-0.114,-0.096 -0.267,-0.168 -0.459,-0.216c-0.186,-0.048 -0.387,-0.072 -0.603,-0.072c-0.366,0 -0.645,0.063 -0.837,0.189c-0.186,0.126 -0.279,0.294 -0.279,0.504c0,0.228 0.087,0.405 0.261,0.531c0.18,0.12 0.438,0.18 0.774,0.18zM255.1235,178.533c0.06,-0.246 0.165,-0.468 0.315,-0.666c0.156,-0.198 0.342,-0.354 0.558,-0.468c0.222,-0.12 0.465,-0.18 0.729,-0.18c0.312,0 0.588,0.075 0.828,0.225c0.24,0.15 0.429,0.396 0.567,0.738c0.144,0.342 0.216,0.798 0.216,1.368c0,0.294 -0.012,0.591 -0.036,0.891c-0.024,0.3 -0.054,0.579 -0.09,0.837c-0.036,0.258 -0.075,0.474 -0.117,0.648c-0.06,0.24 -0.153,0.423 -0.279,0.549c-0.12,0.126 -0.273,0.189 -0.459,0.189c-0.156,0 -0.279,-0.069 -0.369,-0.207c-0.09,-0.138 -0.135,-0.336 -0.135,-0.594c0,-0.12 0.015,-0.273 0.045,-0.459c0.03,-0.192 0.063,-0.399 0.099,-0.621c0.036,-0.228 0.069,-0.459 0.099,-0.693c0.03,-0.234 0.045,-0.456 0.045,-0.666c0,-0.312 -0.063,-0.552 -0.189,-0.72c-0.126,-0.174 -0.303,-0.261 -0.531,-0.261c-0.252,0 -0.462,0.132 -0.63,0.396c-0.162,0.258 -0.258,0.636 -0.288,1.134c-0.024,0.444 -0.045,0.84 -0.063,1.188c-0.018,0.342 -0.063,0.624 -0.135,0.846c-0.048,0.156 -0.117,0.273 -0.207,0.351c-0.084,0.078 -0.198,0.117 -0.342,0.117c-0.162,0 -0.291,-0.06 -0.387,-0.18c-0.09,-0.12 -0.141,-0.309 -0.153,-0.567c-0.012,-0.216 -0.015,-0.471 -0.009,-0.765c0.006,-0.294 0.009,-0.585 0.009,-0.873c0.006,-0.294 0.003,-0.537 -0.009,-0.729c-0.024,-0.384 -0.093,-0.666 -0.207,-0.846c-0.108,-0.18 -0.273,-0.27 -0.495,-0.27c-0.258,0 -0.465,0.12 -0.621,0.36c-0.15,0.24 -0.243,0.573 -0.279,0.999c-0.012,0.174 -0.018,0.39 -0.018,0.648c0.006,0.252 0.012,0.504 0.018,0.756c0.006,0.252 0.003,0.462 -0.009,0.63c-0.006,0.36 -0.063,0.618 -0.171,0.774c-0.102,0.156 -0.246,0.234 -0.432,0.234c-0.222,0 -0.384,-0.072 -0.486,-0.216c-0.096,-0.144 -0.159,-0.375 -0.189,-0.693c-0.024,-0.282 -0.042,-0.561 -0.054,-0.837c-0.012,-0.282 -0.018,-0.561 -0.018,-0.837c0,-0.282 0.006,-0.588 0.018,-0.918c0.018,-0.33 0.042,-0.642 0.072,-0.936c0.036,-0.3 0.099,-0.552 0.189,-0.756c0.09,-0.204 0.24,-0.306 0.45,-0.306c0.174,0 0.297,0.087 0.369,0.261c0.072,0.168 0.108,0.429 0.108,0.783c0,0.12 -0.009,0.231 -0.027,0.333l-0.027,-0.18c0.12,-0.39 0.312,-0.693 0.576,-0.909c0.264,-0.222 0.558,-0.333 0.882,-0.333c0.426,0 0.759,0.138 0.999,0.414c0.24,0.27 0.372,0.645 0.396,1.125zM261.9215,182.745c-0.132,0 -0.24,-0.045 -0.324,-0.135c-0.078,-0.09 -0.141,-0.219 -0.189,-0.387c-0.048,-0.246 -0.09,-0.567 -0.126,-0.963c-0.03,-0.402 -0.045,-0.831 -0.045,-1.287c0,-0.258 0.006,-0.549 0.018,-0.873c0.012,-0.324 0.027,-0.651 0.045,-0.981c0.024,-0.336 0.048,-0.648 0.072,-0.936c0.03,-0.288 0.06,-0.522 0.09,-0.702c0.048,-0.264 0.117,-0.471 0.207,-0.621c0.096,-0.156 0.246,-0.234 0.45,-0.234c0.21,0 0.363,0.081 0.459,0.243c0.096,0.156 0.144,0.351 0.144,0.585c0,0.264 -0.021,0.576 -0.063,0.936c-0.036,0.36 -0.093,0.726 -0.171,1.098l-0.18,0.216c0.066,-0.252 0.174,-0.483 0.324,-0.693c0.15,-0.21 0.339,-0.375 0.567,-0.495c0.228,-0.126 0.492,-0.189 0.792,-0.189c0.588,0 1.056,0.21 1.404,0.63c0.354,0.414 0.531,1.062 0.531,1.944c0,0.618 -0.093,1.134 -0.279,1.548c-0.18,0.414 -0.429,0.726 -0.747,0.936c-0.312,0.204 -0.669,0.306 -1.071,0.306c-0.378,0 -0.705,-0.111 -0.981,-0.333c-0.27,-0.222 -0.444,-0.543 -0.522,-0.963l0.126,0.099c-0.024,0.432 -0.084,0.75 -0.18,0.954c-0.09,0.198 -0.207,0.297 -0.351,0.297zM263.5685,181.647c0.3,0 0.564,-0.135 0.792,-0.405c0.228,-0.27 0.342,-0.693 0.342,-1.269c0,-0.48 -0.09,-0.87 -0.27,-1.17c-0.174,-0.3 -0.468,-0.45 -0.882,-0.45c-0.336,0 -0.606,0.135 -0.81,0.405c-0.204,0.264 -0.306,0.666 -0.306,1.206c0,0.492 0.102,0.897 0.306,1.215c0.204,0.312 0.48,0.468 0.828,0.468zM270.7695,182.745c-0.204,0 -0.345,-0.078 -0.423,-0.234c-0.072,-0.162 -0.114,-0.417 -0.126,-0.765l0.09,0.045c-0.336,0.654 -0.972,0.981 -1.908,0.981c-0.426,0 -0.78,-0.075 -1.062,-0.225c-0.282,-0.156 -0.492,-0.36 -0.63,-0.612c-0.132,-0.258 -0.198,-0.537 -0.198,-0.837c0,-0.516 0.18,-0.924 0.54,-1.224c0.36,-0.306 0.837,-0.459 1.431,-0.459c0.39,0 0.729,0.057 1.017,0.171c0.288,0.114 0.534,0.273 0.738,0.477l-0.153,-0.018c-0.042,-0.606 -0.174,-1.038 -0.396,-1.296c-0.216,-0.264 -0.525,-0.396 -0.927,-0.396c-0.234,0 -0.45,0.036 -0.648,0.108c-0.198,0.072 -0.381,0.147 -0.549,0.225c-0.162,0.072 -0.315,0.108 -0.459,0.108c-0.144,0 -0.258,-0.048 -0.342,-0.144c-0.078,-0.096 -0.117,-0.219 -0.117,-0.369c0,-0.216 0.102,-0.42 0.306,-0.612c0.21,-0.192 0.486,-0.348 0.828,-0.468c0.342,-0.12 0.714,-0.18 1.116,-0.18c0.486,0 0.903,0.117 1.251,0.351c0.348,0.234 0.612,0.576 0.792,1.026c0.156,0.384 0.267,0.813 0.333,1.287c0.066,0.474 0.099,0.981 0.099,1.521c0,0.408 -0.021,0.723 -0.063,0.945c-0.042,0.222 -0.108,0.378 -0.198,0.468c-0.084,0.084 -0.198,0.126 -0.342,0.126zM268.7805,181.737c0.198,0 0.399,-0.027 0.603,-0.081c0.204,-0.06 0.375,-0.147 0.513,-0.261c0.138,-0.114 0.207,-0.255 0.207,-0.423c0,-0.144 -0.06,-0.261 -0.18,-0.351c-0.114,-0.096 -0.267,-0.168 -0.459,-0.216c-0.186,-0.048 -0.387,-0.072 -0.603,-0.072c-0.366,0 -0.645,0.063 -0.837,0.189c-0.186,0.126 -0.279,0.294 -0.279,0.504c0,0.228 0.087,0.405 0.261,0.531c0.18,0.12 0.438,0.18 0.774,0.18zM273.3885,177.057c0.192,0 0.321,0.078 0.387,0.234c0.072,0.156 0.108,0.387 0.108,0.693c0,0.072 -0.006,0.15 -0.018,0.234c-0.006,0.078 -0.018,0.15 -0.036,0.216l-0.018,-0.18c0.144,-0.39 0.366,-0.693 0.666,-0.909c0.3,-0.222 0.618,-0.333 0.954,-0.333c0.372,0 0.681,0.105 0.927,0.315c0.252,0.21 0.438,0.504 0.558,0.882c0.126,0.378 0.189,0.825 0.189,1.341c0,0.318 -0.015,0.633 -0.045,0.945c-0.024,0.306 -0.06,0.588 -0.108,0.846c-0.042,0.252 -0.09,0.459 -0.144,0.621c-0.072,0.204 -0.165,0.357 -0.279,0.459c-0.114,0.096 -0.249,0.144 -0.405,0.144c-0.156,0 -0.276,-0.057 -0.36,-0.171c-0.084,-0.114 -0.126,-0.267 -0.126,-0.459c0,-0.204 0.015,-0.45 0.045,-0.738c0.03,-0.294 0.057,-0.591 0.081,-0.891c0.03,-0.306 0.045,-0.582 0.045,-0.828c0,-0.84 -0.276,-1.26 -0.828,-1.26c-0.294,0 -0.54,0.132 -0.738,0.396c-0.198,0.258 -0.33,0.627 -0.396,1.107c-0.018,0.162 -0.027,0.363 -0.027,0.603c0,0.24 0,0.48 0,0.72c0.006,0.234 0,0.432 -0.018,0.594c-0.024,0.36 -0.093,0.618 -0.207,0.774c-0.108,0.156 -0.258,0.234 -0.45,0.234c-0.222,0 -0.39,-0.102 -0.504,-0.306c-0.114,-0.21 -0.171,-0.561 -0.171,-1.053c0,-0.252 0.006,-0.534 0.018,-0.846c0.012,-0.312 0.027,-0.624 0.045,-0.936c0.024,-0.318 0.051,-0.606 0.081,-0.864c0.06,-0.486 0.147,-0.87 0.261,-1.152c0.114,-0.288 0.285,-0.432 0.513,-0.432zM279.9195,182.511c-0.564,0 -1.023,-0.216 -1.377,-0.648c-0.354,-0.438 -0.531,-1.101 -0.531,-1.989c0,-0.948 0.171,-1.641 0.513,-2.079c0.342,-0.438 0.792,-0.657 1.35,-0.657c0.33,0 0.621,0.084 0.873,0.252c0.252,0.168 0.468,0.405 0.648,0.711l-0.072,0.126c-0.018,-0.084 -0.033,-0.174 -0.045,-0.27c-0.012,-0.096 -0.018,-0.168 -0.018,-0.216c0,-0.246 0.039,-0.435 0.117,-0.567c0.084,-0.138 0.213,-0.207 0.387,-0.207c0.192,0 0.342,0.078 0.45,0.234c0.114,0.156 0.201,0.378 0.261,0.666c0.078,0.294 0.144,0.669 0.198,1.125c0.054,0.45 0.081,0.906 0.081,1.368c0,0.576 -0.021,1.059 -0.063,1.449c-0.042,0.39 -0.111,0.714 -0.207,0.972c-0.096,0.258 -0.222,0.483 -0.378,0.675c-0.258,0.312 -0.591,0.549 -0.999,0.711c-0.402,0.168 -0.867,0.252 -1.395,0.252c-0.378,0 -0.681,-0.036 -0.909,-0.108c-0.228,-0.066 -0.393,-0.159 -0.495,-0.279c-0.096,-0.114 -0.144,-0.243 -0.144,-0.387c0,-0.15 0.042,-0.276 0.126,-0.378c0.084,-0.096 0.21,-0.144 0.378,-0.144c0.15,0 0.324,0.024 0.522,0.072c0.204,0.048 0.444,0.072 0.72,0.072c0.582,0 0.993,-0.138 1.233,-0.414c0.246,-0.27 0.369,-0.66 0.369,-1.17c0,-0.138 -0.009,-0.3 -0.027,-0.486l0.126,0.045c-0.15,0.384 -0.372,0.693 -0.666,0.927c-0.294,0.228 -0.636,0.342 -1.026,0.342zM280.2615,181.404c0.192,0 0.384,-0.051 0.576,-0.153c0.192,-0.102 0.351,-0.27 0.477,-0.504c0.126,-0.234 0.189,-0.549 0.189,-0.945c0,-0.474 -0.111,-0.861 -0.333,-1.161c-0.222,-0.3 -0.534,-0.45 -0.936,-0.45c-0.348,0 -0.603,0.132 -0.765,0.396c-0.162,0.264 -0.243,0.663 -0.243,1.197c0,0.51 0.081,0.909 0.243,1.197c0.162,0.282 0.426,0.423 0.792,0.423zM287.9015,182.601c-0.162,0 -0.288,-0.054 -0.378,-0.162c-0.084,-0.114 -0.141,-0.258 -0.171,-0.432c-0.03,-0.18 -0.045,-0.369 -0.045,-0.567l0.045,-0.036c-0.06,0.258 -0.177,0.48 -0.351,0.666c-0.174,0.186 -0.375,0.33 -0.603,0.432c-0.228,0.096 -0.456,0.144 -0.684,0.144c-0.306,0 -0.585,-0.072 -0.837,-0.216c-0.252,-0.144 -0.447,-0.366 -0.585,-0.666c-0.138,-0.318 -0.246,-0.717 -0.324,-1.197c-0.078,-0.486 -0.117,-0.984 -0.117,-1.494c0,-0.276 0.012,-0.531 0.036,-0.765c0.024,-0.234 0.063,-0.426 0.117,-0.576c0.048,-0.156 0.12,-0.27 0.216,-0.342c0.096,-0.078 0.219,-0.117 0.369,-0.117c0.174,0 0.309,0.069 0.405,0.207c0.102,0.132 0.165,0.318 0.189,0.558c0.024,0.198 0.039,0.444 0.045,0.738c0.012,0.288 0.021,0.579 0.027,0.873c0.012,0.288 0.027,0.531 0.045,0.729c0.036,0.36 0.129,0.627 0.279,0.801c0.15,0.168 0.333,0.252 0.549,0.252c0.318,0 0.561,-0.12 0.729,-0.36c0.168,-0.24 0.252,-0.576 0.252,-1.008c0,-0.216 -0.012,-0.459 -0.036,-0.729c-0.024,-0.276 -0.051,-0.543 -0.081,-0.801c-0.024,-0.258 -0.036,-0.471 -0.036,-0.639c0,-0.282 0.048,-0.483 0.144,-0.603c0.096,-0.126 0.228,-0.189 0.396,-0.189c0.144,0 0.264,0.039 0.36,0.117c0.102,0.078 0.183,0.186 0.243,0.324c0.084,0.18 0.156,0.426 0.216,0.738c0.06,0.312 0.108,0.666 0.144,1.062c0.036,0.396 0.054,0.813 0.054,1.251c0,0.672 -0.045,1.176 -0.135,1.512c-0.09,0.33 -0.249,0.495 -0.477,0.495zM290.5265,177.057c0.192,0 0.321,0.078 0.387,0.234c0.072,0.156 0.108,0.387 0.108,0.693c0,0.072 -0.006,0.15 -0.018,0.234c-0.006,0.078 -0.018,0.15 -0.036,0.216l-0.018,-0.18c0.144,-0.39 0.366,-0.693 0.666,-0.909c0.3,-0.222 0.618,-0.333 0.954,-0.333c0.372,0 0.681,0.105 0.927,0.315c0.252,0.21 0.438,0.504 0.558,0.882c0.126,0.378 0.189,0.825 0.189,1.341c0,0.318 -0.015,0.633 -0.045,0.945c-0.024,0.306 -0.06,0.588 -0.108,0.846c-0.042,0.252 -0.09,0.459 -0.144,0.621c-0.072,0.204 -0.165,0.357 -0.279,0.459c-0.114,0.096 -0.249,0.144 -0.405,0.144c-0.156,0 -0.276,-0.057 -0.36,-0.171c-0.084,-0.114 -0.126,-0.267 -0.126,-0.459c0,-0.204 0.015,-0.45 0.045,-0.738c0.03,-0.294 0.057,-0.591 0.081,-0.891c0.03,-0.306 0.045,-0.582 0.045,-0.828c0,-0.84 -0.276,-1.26 -0.828,-1.26c-0.294,0 -0.54,0.132 -0.738,0.396c-0.198,0.258 -0.33,0.627 -0.396,1.107c-0.018,0.162 -0.027,0.363 -0.027,0.603c0,0.24 0,0.48 0,0.72c0.006,0.234 0,0.432 -0.018,0.594c-0.024,0.36 -0.093,0.618 -0.207,0.774c-0.108,0.156 -0.258,0.234 -0.45,0.234c-0.222,0 -0.39,-0.102 -0.504,-0.306c-0.114,-0.21 -0.171,-0.561 -0.171,-1.053c0,-0.252 0.006,-0.534 0.018,-0.846c0.012,-0.312 0.027,-0.624 0.045,-0.936c0.024,-0.318 0.051,-0.606 0.081,-0.864c0.06,-0.486 0.147,-0.87 0.261,-1.152c0.114,-0.288 0.285,-0.432 0.513,-0.432zM298.8235,182.781c-0.588,0 -1.047,-0.219 -1.377,-0.657c-0.33,-0.444 -0.495,-1.119 -0.495,-2.025c0,-0.9 0.162,-1.557 0.486,-1.971c0.33,-0.42 0.801,-0.63 1.413,-0.63c0.348,0 0.651,0.072 0.909,0.216c0.264,0.144 0.498,0.348 0.702,0.612l-0.072,0.036c-0.054,-0.246 -0.108,-0.507 -0.162,-0.783c-0.054,-0.276 -0.099,-0.537 -0.135,-0.783c-0.03,-0.252 -0.045,-0.45 -0.045,-0.594c0,-0.204 0.033,-0.36 0.099,-0.468c0.066,-0.114 0.171,-0.171 0.315,-0.171c0.204,0 0.369,0.087 0.495,0.261c0.126,0.168 0.231,0.429 0.315,0.783c0.078,0.318 0.147,0.696 0.207,1.134c0.06,0.432 0.108,0.885 0.144,1.359c0.042,0.468 0.063,0.918 0.063,1.35c0,0.6 -0.033,1.068 -0.099,1.404c-0.06,0.33 -0.147,0.561 -0.261,0.693c-0.108,0.132 -0.237,0.198 -0.387,0.198c-0.186,0 -0.312,-0.093 -0.378,-0.279c-0.066,-0.186 -0.093,-0.489 -0.081,-0.909h0.135c-0.162,0.372 -0.399,0.669 -0.711,0.891c-0.306,0.222 -0.666,0.333 -1.08,0.333zM299.3005,181.665c0.216,0 0.414,-0.054 0.594,-0.162c0.186,-0.114 0.333,-0.288 0.441,-0.522c0.114,-0.234 0.171,-0.531 0.171,-0.891c0,-0.462 -0.105,-0.837 -0.315,-1.125c-0.21,-0.294 -0.513,-0.441 -0.909,-0.441c-0.312,0 -0.567,0.129 -0.765,0.387c-0.192,0.258 -0.288,0.648 -0.288,1.17c0,0.462 0.096,0.843 0.288,1.143c0.198,0.294 0.459,0.441 0.783,0.441zM306.7165,182.745c-0.204,0 -0.345,-0.078 -0.423,-0.234c-0.072,-0.162 -0.114,-0.417 -0.126,-0.765l0.09,0.045c-0.336,0.654 -0.972,0.981 -1.908,0.981c-0.426,0 -0.78,-0.075 -1.062,-0.225c-0.282,-0.156 -0.492,-0.36 -0.63,-0.612c-0.132,-0.258 -0.198,-0.537 -0.198,-0.837c0,-0.516 0.18,-0.924 0.54,-1.224c0.36,-0.306 0.837,-0.459 1.431,-0.459c0.39,0 0.729,0.057 1.017,0.171c0.288,0.114 0.534,0.273 0.738,0.477l-0.153,-0.018c-0.042,-0.606 -0.174,-1.038 -0.396,-1.296c-0.216,-0.264 -0.525,-0.396 -0.927,-0.396c-0.234,0 -0.45,0.036 -0.648,0.108c-0.198,0.072 -0.381,0.147 -0.549,0.225c-0.162,0.072 -0.315,0.108 -0.459,0.108c-0.144,0 -0.258,-0.048 -0.342,-0.144c-0.078,-0.096 -0.117,-0.219 -0.117,-0.369c0,-0.216 0.102,-0.42 0.306,-0.612c0.21,-0.192 0.486,-0.348 0.828,-0.468c0.342,-0.12 0.714,-0.18 1.116,-0.18c0.486,0 0.903,0.117 1.251,0.351c0.348,0.234 0.612,0.576 0.792,1.026c0.156,0.384 0.267,0.813 0.333,1.287c0.066,0.474 0.099,0.981 0.099,1.521c0,0.408 -0.021,0.723 -0.063,0.945c-0.042,0.222 -0.108,0.378 -0.198,0.468c-0.084,0.084 -0.198,0.126 -0.342,0.126zM304.7275,181.737c0.198,0 0.399,-0.027 0.603,-0.081c0.204,-0.06 0.375,-0.147 0.513,-0.261c0.138,-0.114 0.207,-0.255 0.207,-0.423c0,-0.144 -0.06,-0.261 -0.18,-0.351c-0.114,-0.096 -0.267,-0.168 -0.459,-0.216c-0.186,-0.048 -0.387,-0.072 -0.603,-0.072c-0.366,0 -0.645,0.063 -0.837,0.189c-0.186,0.126 -0.279,0.294 -0.279,0.504c0,0.228 0.087,0.405 0.261,0.531c0.18,0.12 0.438,0.18 0.774,0.18zM309.6655,177.237h-0.18c-0.018,-0.264 -0.012,-0.513 0.018,-0.747c0.03,-0.24 0.093,-0.432 0.189,-0.576c0.102,-0.15 0.246,-0.225 0.432,-0.225c0.168,0 0.291,0.054 0.369,0.162c0.078,0.108 0.117,0.258 0.117,0.45c0,0.378 -0.072,0.702 -0.216,0.972l-0.162,-0.018c0.324,-0.114 0.69,-0.171 1.098,-0.171c0.258,0 0.462,0.051 0.612,0.153c0.156,0.096 0.234,0.261 0.234,0.495c0,0.222 -0.09,0.39 -0.27,0.504c-0.18,0.114 -0.405,0.171 -0.675,0.171c-0.162,0 -0.336,-0.006 -0.522,-0.018c-0.18,-0.018 -0.357,-0.045 -0.531,-0.081l0.153,-0.189c0.054,0.228 0.105,0.489 0.153,0.783c0.054,0.288 0.102,0.588 0.144,0.9c0.042,0.312 0.075,0.615 0.099,0.909c0.024,0.294 0.036,0.558 0.036,0.792c0,0.384 -0.06,0.687 -0.18,0.909c-0.12,0.222 -0.297,0.333 -0.531,0.333c-0.186,0 -0.333,-0.057 -0.441,-0.171c-0.102,-0.114 -0.177,-0.258 -0.225,-0.432c-0.042,-0.18 -0.069,-0.366 -0.081,-0.558c-0.006,-0.192 -0.009,-0.366 -0.009,-0.522c0,-0.264 0.012,-0.561 0.036,-0.891c0.024,-0.336 0.057,-0.681 0.099,-1.035c0.048,-0.354 0.102,-0.696 0.162,-1.026l0.18,0.153c-0.306,0.156 -0.684,0.234 -1.134,0.234c-0.276,0 -0.489,-0.051 -0.639,-0.153c-0.15,-0.102 -0.225,-0.261 -0.225,-0.477c0,-0.234 0.084,-0.414 0.252,-0.54c0.168,-0.132 0.393,-0.198 0.675,-0.198c0.186,0 0.36,0.012 0.522,0.036c0.168,0.018 0.315,0.042 0.441,0.072zM316.8415,182.745c-0.204,0 -0.345,-0.078 -0.423,-0.234c-0.072,-0.162 -0.114,-0.417 -0.126,-0.765l0.09,0.045c-0.336,0.654 -0.972,0.981 -1.908,0.981c-0.426,0 -0.78,-0.075 -1.062,-0.225c-0.282,-0.156 -0.492,-0.36 -0.63,-0.612c-0.132,-0.258 -0.198,-0.537 -0.198,-0.837c0,-0.516 0.18,-0.924 0.54,-1.224c0.36,-0.306 0.837,-0.459 1.431,-0.459c0.39,0 0.729,0.057 1.017,0.171c0.288,0.114 0.534,0.273 0.738,0.477l-0.153,-0.018c-0.042,-0.606 -0.174,-1.038 -0.396,-1.296c-0.216,-0.264 -0.525,-0.396 -0.927,-0.396c-0.234,0 -0.45,0.036 -0.648,0.108c-0.198,0.072 -0.381,0.147 -0.549,0.225c-0.162,0.072 -0.315,0.108 -0.459,0.108c-0.144,0 -0.258,-0.048 -0.342,-0.144c-0.078,-0.096 -0.117,-0.219 -0.117,-0.369c0,-0.216 0.102,-0.42 0.306,-0.612c0.21,-0.192 0.486,-0.348 0.828,-0.468c0.342,-0.12 0.714,-0.18 1.116,-0.18c0.486,0 0.903,0.117 1.251,0.351c0.348,0.234 0.612,0.576 0.792,1.026c0.156,0.384 0.267,0.813 0.333,1.287c0.066,0.474 0.099,0.981 0.099,1.521c0,0.408 -0.021,0.723 -0.063,0.945c-0.042,0.222 -0.108,0.378 -0.198,0.468c-0.084,0.084 -0.198,0.126 -0.342,0.126zM314.8525,181.737c0.198,0 0.399,-0.027 0.603,-0.081c0.204,-0.06 0.375,-0.147 0.513,-0.261c0.138,-0.114 0.207,-0.255 0.207,-0.423c0,-0.144 -0.06,-0.261 -0.18,-0.351c-0.114,-0.096 -0.267,-0.168 -0.459,-0.216c-0.186,-0.048 -0.387,-0.072 -0.603,-0.072c-0.366,0 -0.645,0.063 -0.837,0.189c-0.186,0.126 -0.279,0.294 -0.279,0.504c0,0.228 0.087,0.405 0.261,0.531c0.18,0.12 0.438,0.18 0.774,0.18zM318.5425,178.596c0,-0.576 0.054,-0.99 0.162,-1.242c0.108,-0.258 0.261,-0.387 0.459,-0.387c0.156,0 0.279,0.066 0.369,0.198c0.09,0.126 0.156,0.285 0.198,0.477c0.042,0.186 0.063,0.375 0.063,0.567l-0.045,-0.018c0.102,-0.324 0.258,-0.603 0.468,-0.837c0.216,-0.234 0.474,-0.351 0.774,-0.351c0.354,0 0.615,0.147 0.783,0.441c0.168,0.288 0.252,0.648 0.252,1.08c0,0.576 -0.066,0.978 -0.198,1.206c-0.132,0.228 -0.309,0.342 -0.531,0.342c-0.162,0 -0.282,-0.066 -0.36,-0.198c-0.072,-0.132 -0.096,-0.366 -0.072,-0.702c0.024,-0.354 0.003,-0.6 -0.063,-0.738c-0.066,-0.138 -0.171,-0.207 -0.315,-0.207c-0.174,0 -0.318,0.111 -0.432,0.333c-0.108,0.216 -0.162,0.483 -0.162,0.801c0,0.126 0.015,0.285 0.045,0.477c0.03,0.192 0.063,0.402 0.099,0.63c0.036,0.222 0.069,0.444 0.099,0.666c0.03,0.222 0.045,0.426 0.045,0.612c0,0.33 -0.051,0.567 -0.153,0.711c-0.102,0.144 -0.246,0.216 -0.432,0.216c-0.21,0 -0.372,-0.066 -0.486,-0.198c-0.114,-0.138 -0.201,-0.36 -0.261,-0.666c-0.048,-0.276 -0.096,-0.603 -0.144,-0.981c-0.048,-0.378 -0.087,-0.765 -0.117,-1.161c-0.03,-0.396 -0.045,-0.753 -0.045,-1.071zM326.9015,177.021c0.534,0 0.918,0.078 1.152,0.234c0.234,0.156 0.351,0.357 0.351,0.603c0,0.144 -0.051,0.264 -0.153,0.36c-0.096,0.09 -0.234,0.135 -0.414,0.135c-0.186,0 -0.381,-0.027 -0.585,-0.081c-0.198,-0.054 -0.429,-0.081 -0.693,-0.081c-0.306,0 -0.534,0.06 -0.684,0.18c-0.15,0.12 -0.225,0.273 -0.225,0.459c0,0.174 0.066,0.312 0.198,0.414c0.138,0.096 0.399,0.168 0.783,0.216c0.426,0.048 0.777,0.126 1.053,0.234c0.282,0.102 0.492,0.258 0.63,0.468c0.138,0.204 0.207,0.486 0.207,0.846c0,0.57 -0.201,0.993 -0.603,1.269c-0.402,0.276 -0.957,0.414 -1.665,0.414c-0.45,0 -0.807,-0.036 -1.071,-0.108c-0.264,-0.072 -0.456,-0.174 -0.576,-0.306c-0.114,-0.132 -0.171,-0.288 -0.171,-0.468c0,-0.156 0.051,-0.276 0.153,-0.36c0.108,-0.09 0.234,-0.135 0.378,-0.135c0.138,0 0.285,0.018 0.441,0.054c0.156,0.03 0.321,0.063 0.495,0.099c0.174,0.036 0.354,0.054 0.54,0.054c0.6,0 0.9,-0.186 0.9,-0.558c0,-0.126 -0.03,-0.228 -0.09,-0.306c-0.06,-0.078 -0.168,-0.141 -0.324,-0.189c-0.156,-0.054 -0.384,-0.096 -0.684,-0.126c-0.36,-0.036 -0.672,-0.096 -0.936,-0.18c-0.264,-0.09 -0.468,-0.234 -0.612,-0.432c-0.144,-0.204 -0.216,-0.483 -0.216,-0.837c0,-0.558 0.21,-1.008 0.63,-1.35c0.42,-0.348 1.017,-0.522 1.791,-0.522zM331.9515,182.727c-0.666,0 -1.197,-0.099 -1.593,-0.297c-0.396,-0.198 -0.681,-0.483 -0.855,-0.855c-0.174,-0.372 -0.261,-0.816 -0.261,-1.332c0,-0.654 0.12,-1.209 0.36,-1.665c0.246,-0.462 0.582,-0.816 1.008,-1.062c0.432,-0.246 0.921,-0.369 1.467,-0.369c0.642,0 1.113,0.15 1.413,0.45c0.3,0.294 0.45,0.681 0.45,1.161c0,0.384 -0.102,0.717 -0.306,0.999c-0.198,0.276 -0.474,0.489 -0.828,0.639c-0.354,0.15 -0.762,0.225 -1.224,0.225c-0.258,0 -0.507,-0.033 -0.747,-0.099c-0.24,-0.066 -0.456,-0.156 -0.648,-0.27l0.216,-0.396c-0.018,0.144 -0.027,0.288 -0.027,0.432c0,0.42 0.132,0.723 0.396,0.909c0.264,0.18 0.639,0.27 1.125,0.27c0.378,0 0.681,-0.033 0.909,-0.099c0.228,-0.066 0.42,-0.129 0.576,-0.189c0.156,-0.066 0.309,-0.099 0.459,-0.099c0.084,0 0.159,0.024 0.225,0.072c0.072,0.042 0.129,0.105 0.171,0.189c0.048,0.084 0.072,0.186 0.072,0.306c0,0.18 -0.09,0.354 -0.27,0.522c-0.18,0.162 -0.447,0.297 -0.801,0.405c-0.348,0.102 -0.777,0.153 -1.287,0.153zM331.4295,179.784c0.426,0 0.768,-0.09 1.026,-0.27c0.258,-0.18 0.387,-0.402 0.387,-0.666c0,-0.21 -0.072,-0.381 -0.216,-0.513c-0.138,-0.138 -0.357,-0.207 -0.657,-0.207c-0.282,0 -0.537,0.054 -0.765,0.162c-0.222,0.102 -0.396,0.237 -0.522,0.405c-0.126,0.168 -0.189,0.351 -0.189,0.549c0,0.174 0.081,0.309 0.243,0.405c0.168,0.09 0.399,0.135 0.693,0.135zM336.8195,182.511c-0.564,0 -1.023,-0.216 -1.377,-0.648c-0.354,-0.438 -0.531,-1.101 -0.531,-1.989c0,-0.948 0.171,-1.641 0.513,-2.079c0.342,-0.438 0.792,-0.657 1.35,-0.657c0.33,0 0.621,0.084 0.873,0.252c0.252,0.168 0.468,0.405 0.648,0.711l-0.072,0.126c-0.018,-0.084 -0.033,-0.174 -0.045,-0.27c-0.012,-0.096 -0.018,-0.168 -0.018,-0.216c0,-0.246 0.039,-0.435 0.117,-0.567c0.084,-0.138 0.213,-0.207 0.387,-0.207c0.192,0 0.342,0.078 0.45,0.234c0.114,0.156 0.201,0.378 0.261,0.666c0.078,0.294 0.144,0.669 0.198,1.125c0.054,0.45 0.081,0.906 0.081,1.368c0,0.576 -0.021,1.059 -0.063,1.449c-0.042,0.39 -0.111,0.714 -0.207,0.972c-0.096,0.258 -0.222,0.483 -0.378,0.675c-0.258,0.312 -0.591,0.549 -0.999,0.711c-0.402,0.168 -0.867,0.252 -1.395,0.252c-0.378,0 -0.681,-0.036 -0.909,-0.108c-0.228,-0.066 -0.393,-0.159 -0.495,-0.279c-0.096,-0.114 -0.144,-0.243 -0.144,-0.387c0,-0.15 0.042,-0.276 0.126,-0.378c0.084,-0.096 0.21,-0.144 0.378,-0.144c0.15,0 0.324,0.024 0.522,0.072c0.204,0.048 0.444,0.072 0.72,0.072c0.582,0 0.993,-0.138 1.233,-0.414c0.246,-0.27 0.369,-0.66 0.369,-1.17c0,-0.138 -0.009,-0.3 -0.027,-0.486l0.126,0.045c-0.15,0.384 -0.372,0.693 -0.666,0.927c-0.294,0.228 -0.636,0.342 -1.026,0.342zM337.1615,181.404c0.192,0 0.384,-0.051 0.576,-0.153c0.192,-0.102 0.351,-0.27 0.477,-0.504c0.126,-0.234 0.189,-0.549 0.189,-0.945c0,-0.474 -0.111,-0.861 -0.333,-1.161c-0.222,-0.3 -0.534,-0.45 -0.936,-0.45c-0.348,0 -0.603,0.132 -0.765,0.396c-0.162,0.264 -0.243,0.663 -0.243,1.197c0,0.51 0.081,0.909 0.243,1.197c0.162,0.282 0.426,0.423 0.792,0.423zM341.5445,175.752c0.24,0 0.411,0.066 0.513,0.198c0.108,0.132 0.162,0.285 0.162,0.459c0,0.216 -0.066,0.384 -0.198,0.504c-0.126,0.114 -0.306,0.171 -0.54,0.171c-0.228,0 -0.399,-0.063 -0.513,-0.189c-0.114,-0.132 -0.171,-0.285 -0.171,-0.459c0,-0.228 0.069,-0.399 0.207,-0.513c0.138,-0.114 0.318,-0.171 0.54,-0.171zM341.5985,177.759c0.192,0 0.342,0.18 0.45,0.54c0.114,0.36 0.171,0.933 0.171,1.719c0,0.966 -0.069,1.662 -0.207,2.088c-0.138,0.426 -0.348,0.639 -0.63,0.639c-0.216,0 -0.375,-0.156 -0.477,-0.468c-0.102,-0.318 -0.153,-0.87 -0.153,-1.656c0,-0.966 0.078,-1.683 0.234,-2.151c0.162,-0.474 0.366,-0.711 0.612,-0.711zM344.8395,177.237h-0.18c-0.018,-0.264 -0.012,-0.513 0.018,-0.747c0.03,-0.24 0.093,-0.432 0.189,-0.576c0.102,-0.15 0.246,-0.225 0.432,-0.225c0.168,0 0.291,0.054 0.369,0.162c0.078,0.108 0.117,0.258 0.117,0.45c0,0.378 -0.072,0.702 -0.216,0.972l-0.162,-0.018c0.324,-0.114 0.69,-0.171 1.098,-0.171c0.258,0 0.462,0.051 0.612,0.153c0.156,0.096 0.234,0.261 0.234,0.495c0,0.222 -0.09,0.39 -0.27,0.504c-0.18,0.114 -0.405,0.171 -0.675,0.171c-0.162,0 -0.336,-0.006 -0.522,-0.018c-0.18,-0.018 -0.357,-0.045 -0.531,-0.081l0.153,-0.189c0.054,0.228 0.105,0.489 0.153,0.783c0.054,0.288 0.102,0.588 0.144,0.9c0.042,0.312 0.075,0.615 0.099,0.909c0.024,0.294 0.036,0.558 0.036,0.792c0,0.384 -0.06,0.687 -0.18,0.909c-0.12,0.222 -0.297,0.333 -0.531,0.333c-0.186,0 -0.333,-0.057 -0.441,-0.171c-0.102,-0.114 -0.177,-0.258 -0.225,-0.432c-0.042,-0.18 -0.069,-0.366 -0.081,-0.558c-0.006,-0.192 -0.009,-0.366 -0.009,-0.522c0,-0.264 0.012,-0.561 0.036,-0.891c0.024,-0.336 0.057,-0.681 0.099,-1.035c0.048,-0.354 0.102,-0.696 0.162,-1.026l0.18,0.153c-0.306,0.156 -0.684,0.234 -1.134,0.234c-0.276,0 -0.489,-0.051 -0.639,-0.153c-0.15,-0.102 -0.225,-0.261 -0.225,-0.477c0,-0.234 0.084,-0.414 0.252,-0.54c0.168,-0.132 0.393,-0.198 0.675,-0.198c0.186,0 0.36,0.012 0.522,0.036c0.168,0.018 0.315,0.042 0.441,0.072zM348.8745,175.752c0.24,0 0.411,0.066 0.513,0.198c0.108,0.132 0.162,0.285 0.162,0.459c0,0.216 -0.066,0.384 -0.198,0.504c-0.126,0.114 -0.306,0.171 -0.54,0.171c-0.228,0 -0.399,-0.063 -0.513,-0.189c-0.114,-0.132 -0.171,-0.285 -0.171,-0.459c0,-0.228 0.069,-0.399 0.207,-0.513c0.138,-0.114 0.318,-0.171 0.54,-0.171zM348.9285,177.759c0.192,0 0.342,0.18 0.45,0.54c0.114,0.36 0.171,0.933 0.171,1.719c0,0.966 -0.069,1.662 -0.207,2.088c-0.138,0.426 -0.348,0.639 -0.63,0.639c-0.216,0 -0.375,-0.156 -0.477,-0.468c-0.102,-0.318 -0.153,-0.87 -0.153,-1.656c0,-0.966 0.078,-1.683 0.234,-2.151c0.162,-0.474 0.366,-0.711 0.612,-0.711zM352.3675,182.511c-0.564,0 -1.023,-0.216 -1.377,-0.648c-0.354,-0.438 -0.531,-1.101 -0.531,-1.989c0,-0.948 0.171,-1.641 0.513,-2.079c0.342,-0.438 0.792,-0.657 1.35,-0.657c0.33,0 0.621,0.084 0.873,0.252c0.252,0.168 0.468,0.405 0.648,0.711l-0.072,0.126c-0.018,-0.084 -0.033,-0.174 -0.045,-0.27c-0.012,-0.096 -0.018,-0.168 -0.018,-0.216c0,-0.246 0.039,-0.435 0.117,-0.567c0.084,-0.138 0.213,-0.207 0.387,-0.207c0.192,0 0.342,0.078 0.45,0.234c0.114,0.156 0.201,0.378 0.261,0.666c0.078,0.294 0.144,0.669 0.198,1.125c0.054,0.45 0.081,0.906 0.081,1.368c0,0.576 -0.021,1.059 -0.063,1.449c-0.042,0.39 -0.111,0.714 -0.207,0.972c-0.096,0.258 -0.222,0.483 -0.378,0.675c-0.258,0.312 -0.591,0.549 -0.999,0.711c-0.402,0.168 -0.867,0.252 -1.395,0.252c-0.378,0 -0.681,-0.036 -0.909,-0.108c-0.228,-0.066 -0.393,-0.159 -0.495,-0.279c-0.096,-0.114 -0.144,-0.243 -0.144,-0.387c0,-0.15 0.042,-0.276 0.126,-0.378c0.084,-0.096 0.21,-0.144 0.378,-0.144c0.15,0 0.324,0.024 0.522,0.072c0.204,0.048 0.444,0.072 0.72,0.072c0.582,0 0.993,-0.138 1.233,-0.414c0.246,-0.27 0.369,-0.66 0.369,-1.17c0,-0.138 -0.009,-0.3 -0.027,-0.486l0.126,0.045c-0.15,0.384 -0.372,0.693 -0.666,0.927c-0.294,0.228 -0.636,0.342 -1.026,0.342zM352.7095,181.404c0.192,0 0.384,-0.051 0.576,-0.153c0.192,-0.102 0.351,-0.27 0.477,-0.504c0.126,-0.234 0.189,-0.549 0.189,-0.945c0,-0.474 -0.111,-0.861 -0.333,-1.161c-0.222,-0.3 -0.534,-0.45 -0.936,-0.45c-0.348,0 -0.603,0.132 -0.765,0.396c-0.162,0.264 -0.243,0.663 -0.243,1.197c0,0.51 0.081,0.909 0.243,1.197c0.162,0.282 0.426,0.423 0.792,0.423zM360.2335,182.745c-0.204,0 -0.345,-0.078 -0.423,-0.234c-0.072,-0.162 -0.114,-0.417 -0.126,-0.765l0.09,0.045c-0.336,0.654 -0.972,0.981 -1.908,0.981c-0.426,0 -0.78,-0.075 -1.062,-0.225c-0.282,-0.156 -0.492,-0.36 -0.63,-0.612c-0.132,-0.258 -0.198,-0.537 -0.198,-0.837c0,-0.516 0.18,-0.924 0.54,-1.224c0.36,-0.306 0.837,-0.459 1.431,-0.459c0.39,0 0.729,0.057 1.017,0.171c0.288,0.114 0.534,0.273 0.738,0.477l-0.153,-0.018c-0.042,-0.606 -0.174,-1.038 -0.396,-1.296c-0.216,-0.264 -0.525,-0.396 -0.927,-0.396c-0.234,0 -0.45,0.036 -0.648,0.108c-0.198,0.072 -0.381,0.147 -0.549,0.225c-0.162,0.072 -0.315,0.108 -0.459,0.108c-0.144,0 -0.258,-0.048 -0.342,-0.144c-0.078,-0.096 -0.117,-0.219 -0.117,-0.369c0,-0.216 0.102,-0.42 0.306,-0.612c0.21,-0.192 0.486,-0.348 0.828,-0.468c0.342,-0.12 0.714,-0.18 1.116,-0.18c0.486,0 0.903,0.117 1.251,0.351c0.348,0.234 0.612,0.576 0.792,1.026c0.156,0.384 0.267,0.813 0.333,1.287c0.066,0.474 0.099,0.981 0.099,1.521c0,0.408 -0.021,0.723 -0.063,0.945c-0.042,0.222 -0.108,0.378 -0.198,0.468c-0.084,0.084 -0.198,0.126 -0.342,0.126zM358.2445,181.737c0.198,0 0.399,-0.027 0.603,-0.081c0.204,-0.06 0.375,-0.147 0.513,-0.261c0.138,-0.114 0.207,-0.255 0.207,-0.423c0,-0.144 -0.06,-0.261 -0.18,-0.351c-0.114,-0.096 -0.267,-0.168 -0.459,-0.216c-0.186,-0.048 -0.387,-0.072 -0.603,-0.072c-0.366,0 -0.645,0.063 -0.837,0.189c-0.186,0.126 -0.279,0.294 -0.279,0.504c0,0.228 0.087,0.405 0.261,0.531c0.18,0.12 0.438,0.18 0.774,0.18z"/></g></g></svg>