<svg version="1.1" xmlns="http://www.w3.org/2000/svg" xmlns:xlink="http://www.w3.org/1999/xlink" width="199.68704" height="16.82242" viewBox="0,0,199.68704,16.82242"><g transform="translate(-140.15648,-171.58879)"><g data-paper-data="{&quot;isPaintingLayer&quot;:true}" fill="#060606" fill-rule="nonzero" stroke="none" stroke-width="1" stroke-linecap="butt" stroke-linejoin="miter" stroke-miterlimit="10" stroke-dasharray="" stroke-dashoffset="0" style="mix-blend-mode: normal"><path d="M141.26787,185.07701c-0.20207,0 -0.36485,-0.06736 -0.48834,-0.20207c-0.12349,-0.14597 -0.22453,-0.37603 -0.30311,-0.6904c-0.07858,-0.3592 -0.15156,-0.92058 -0.2189,-1.68392c-0.06736,-0.77461 -0.10104,-1.63902 -0.10104,-2.59325c0,-1.0328 0.02806,-2.03755 0.08419,-3.01423c0.06736,-0.98791 0.16277,-1.85792 0.28628,-2.61008c0.0898,-0.49395 0.2189,-0.85881 0.3873,-1.09455c0.17962,-0.24698 0.4266,-0.37047 0.74093,-0.37047c0.20207,0 0.3817,0.06736 0.53886,0.20207c0.15716,0.13472 0.27504,0.37607 0.35361,0.72409c0.0898,0.34802 0.13472,0.84196 0.13472,1.48186c0,0.31433 -0.01124,0.67358 -0.03367,1.07771c-0.02245,0.39292 -0.05613,0.83072 -0.10104,1.31346h0.06736c0.89809,-1.23487 1.68953,-2.21717 2.37434,-2.94686c0.6848,-0.74093 1.28539,-1.27417 1.80181,-1.59972c0.52762,-0.32555 0.98791,-0.48834 1.38082,-0.48834c0.31433,0 0.55008,0.10104 0.70725,0.30311c0.16838,0.20207 0.2526,0.44905 0.2526,0.74093c0,0.61745 -0.46588,1.35838 -1.39765,2.22278c-0.92054,0.86442 -2.40802,1.90283 -4.46239,3.11525l0.13472,-0.31994c1.77372,1.12262 3.11525,2.11614 4.02458,2.98055c0.90933,0.85322 1.36397,1.61099 1.36397,2.2733c0,0.29184 -0.09543,0.53329 -0.28628,0.72409c-0.17962,0.17965 -0.44905,0.26942 -0.80828,0.26942c-0.44905,0 -0.92615,-0.15156 -1.43134,-0.45465c-0.50517,-0.31436 -1.06648,-0.83639 -1.68392,-1.56605c-0.60621,-0.74093 -1.29661,-1.74568 -2.07123,-3.01423h-0.06736c0.02245,0.2582 0.03928,0.52762 0.05052,0.80828c0.01124,0.26942 0.01684,0.53886 0.01684,0.80828c0,1.29105 -0.0898,2.21721 -0.26942,2.77847c-0.17962,0.55011 -0.50517,0.82512 -0.97667,0.82512zM155.27895,185.04333c-1.24611,0 -2.23961,-0.18523 -2.98055,-0.5557c-0.74093,-0.37047 -1.27421,-0.90374 -1.59972,-1.59972c-0.32561,-0.69598 -0.48839,-1.52677 -0.48839,-2.4922c0,-1.22365 0.22451,-2.26206 0.67363,-3.11525c0.46024,-0.86442 1.08887,-1.52677 1.886,-1.98703c0.80818,-0.46027 1.72317,-0.6904 2.7448,-0.6904c1.20115,0 2.08239,0.28066 2.64376,0.84196c0.56127,0.55008 0.84196,1.27417 0.84196,2.17226c0,0.71849 -0.19091,1.34152 -0.57265,1.86914c-0.37035,0.5164 -0.88679,0.91493 -1.5491,1.19559c-0.66241,0.28066 -1.42576,0.42098 -2.29014,0.42098c-0.48276,0 -0.94868,-0.06175 -1.39765,-0.18523c-0.44907,-0.12348 -0.85322,-0.29188 -1.21242,-0.50517l0.40414,-0.74093c-0.03367,0.26942 -0.05052,0.53886 -0.05052,0.80828c0,0.78582 0.24691,1.35271 0.74093,1.70077c0.49391,0.33678 1.19559,0.50517 2.1049,0.50517c0.70725,0 1.2741,-0.06179 1.70077,-0.18523c0.42656,-0.12345 0.78576,-0.24133 1.07771,-0.35361c0.29184,-0.12345 0.57812,-0.18523 0.8587,-0.18523c0.15724,0 0.29753,0.04494 0.42109,0.13472c0.13472,0.07862 0.24133,0.1965 0.31994,0.35361c0.08978,0.15714 0.13472,0.34805 0.13472,0.57253c0,0.33678 -0.16838,0.66231 -0.50517,0.97667c-0.33678,0.30311 -0.83639,0.5557 -1.4987,0.75777c-0.65116,0.19082 -1.45385,0.28628 -2.40802,0.28628zM154.30228,179.5369c0.79703,0 1.43691,-0.16838 1.91967,-0.50517c0.48266,-0.33678 0.72409,-0.75216 0.72409,-1.24611c0,-0.39292 -0.13472,-0.71285 -0.40414,-0.95983c-0.25828,-0.2582 -0.66799,-0.3873 -1.22926,-0.3873c-0.5277,0 -1.00478,0.10104 -1.43134,0.30311c-0.4154,0.19084 -0.74093,0.44343 -0.97667,0.75777c-0.23575,0.31433 -0.35361,0.65672 -0.35361,1.02719c0,0.32555 0.15156,0.57815 0.45465,0.75777c0.31426,0.16838 0.7465,0.2526 1.29661,0.2526zM162.98932,184.94229c-0.34805,0 -0.62305,-0.07862 -0.82512,-0.23575c-0.20207,-0.16838 -0.36488,-0.4434 -0.48834,-0.82512c-0.16838,-0.56127 -0.29753,-1.26851 -0.3873,-2.12174c-0.07862,-0.86442 -0.11787,-1.92528 -0.11787,-3.18261c0,-0.77461 0.02799,-1.5492 0.08419,-2.32382c0.06736,-0.78582 0.15156,-1.4987 0.2526,-2.13859c0.10104,-0.65112 0.20766,-1.15629 0.31994,-1.51553c0.12345,-0.3817 0.26942,-0.6455 0.43783,-0.79144c0.16838,-0.14595 0.3592,-0.2189 0.57253,-0.2189c0.22448,0 0.40414,0.07858 0.53886,0.23575c0.13472,0.14595 0.24133,0.40976 0.31994,0.79144c0.06736,0.37047 0.11787,0.82512 0.15156,1.36397c0.04484,0.53886 0.06736,1.11699 0.06736,1.73444c0,0.84196 -0.03935,1.72882 -0.11787,2.6606c-0.07862,0.93176 -0.18523,1.8467 -0.31994,2.7448c-0.12355,0.89806 -0.2751,1.72317 -0.45465,2.47536l-0.47149,-0.23575c0.29184,-0.3592 0.62305,-0.63989 0.99352,-0.84196c0.38162,-0.20207 0.72966,-0.30311 1.04404,-0.30311c0.25815,0 0.45465,0.07292 0.58937,0.2189c0.14587,0.13472 0.2189,0.34805 0.2189,0.63989c0,0.29184 -0.12913,0.5838 -0.3873,0.87564c-0.24702,0.29184 -0.5557,0.53329 -0.92615,0.72409c-0.37047,0.17965 -0.73534,0.26942 -1.09455,0.26942zM168.40808,171.99293c0.44907,0 0.76903,0.12349 0.95983,0.37047c0.20207,0.24698 0.30311,0.53326 0.30311,0.85881c0,0.40414 -0.12345,0.71849 -0.37047,0.943c-0.23575,0.21329 -0.57253,0.31994 -1.01036,0.31994c-0.42656,0 -0.7465,-0.11787 -0.95983,-0.35361c-0.21322,-0.24698 -0.31994,-0.53326 -0.31994,-0.85881c0,-0.4266 0.12913,-0.74653 0.3873,-0.95983c0.25828,-0.21329 0.59505,-0.31994 1.01036,-0.31994zM168.50912,175.74807c0.3593,0 0.63989,0.33678 0.84196,1.01036c0.21333,0.67358 0.31994,1.74568 0.31994,3.2163c0,1.80738 -0.12902,3.10969 -0.3873,3.9067c-0.25815,0.79703 -0.65104,1.19559 -1.17875,1.19559c-0.40414,0 -0.70157,-0.29184 -0.89248,-0.87564c-0.19082,-0.59495 -0.28628,-1.62783 -0.28628,-3.09842c0,-1.80741 0.14597,-3.14894 0.43783,-4.02458c0.30311,-0.88687 0.68483,-1.3303 1.14507,-1.3303zM173.54668,184.94229c-0.34795,0 -0.62305,-0.07862 -0.82512,-0.23575c-0.20207,-0.16838 -0.36478,-0.4434 -0.48834,-0.82512c-0.16838,-0.56127 -0.29743,-1.26851 -0.3873,-2.12174c-0.07851,-0.86442 -0.11787,-1.92528 -0.11787,-3.18261c0,-0.77461 0.02809,-1.5492 0.08419,-2.32382c0.06736,-0.78582 0.15156,-1.4987 0.2526,-2.13859c0.10104,-0.65112 0.20776,-1.15629 0.31994,-1.51553c0.12355,-0.3817 0.26942,-0.6455 0.43783,-0.79144c0.16838,-0.14595 0.3593,-0.2189 0.57253,-0.2189c0.22459,0 0.40414,0.07858 0.53886,0.23575c0.13472,0.14595 0.24143,0.40976 0.31994,0.79144c0.06736,0.37047 0.11787,0.82512 0.15156,1.36397c0.04494,0.53886 0.06736,1.11699 0.06736,1.73444c0,0.84196 -0.03926,1.72882 -0.11787,2.6606c-0.07851,0.93176 -0.18523,1.8467 -0.31994,2.7448c-0.12345,0.89806 -0.27501,1.72317 -0.45465,2.47536l-0.47149,-0.23575c0.29196,-0.3592 0.62305,-0.63989 0.99352,-0.84196c0.38173,-0.20207 0.72978,-0.30311 1.04404,-0.30311c0.25828,0 0.45465,0.07292 0.58937,0.2189c0.14597,0.13472 0.2189,0.34805 0.2189,0.63989c0,0.29184 -0.12902,0.5838 -0.3873,0.87564c-0.24691,0.29184 -0.5557,0.53329 -0.92615,0.72409c-0.37047,0.17965 -0.73523,0.26942 -1.09455,0.26942zM178.96554,171.99293c0.44897,0 0.76892,0.12349 0.95983,0.37047c0.20207,0.24698 0.30311,0.53326 0.30311,0.85881c0,0.40414 -0.12355,0.71849 -0.37047,0.943c-0.23575,0.21329 -0.57253,0.31994 -1.01036,0.31994c-0.42666,0 -0.74661,-0.11787 -0.95983,-0.35361c-0.21333,-0.24698 -0.31994,-0.53326 -0.31994,-0.85881c0,-0.4266 0.12902,-0.74653 0.3873,-0.95983c0.25815,-0.21329 0.59495,-0.31994 1.01036,-0.31994zM179.06658,175.74807c0.3592,0 0.63989,0.33678 0.84196,1.01036c0.21322,0.67358 0.31994,1.74568 0.31994,3.2163c0,1.80738 -0.12913,3.10969 -0.3873,3.9067c-0.25828,0.79703 -0.65116,1.19559 -1.17875,1.19559c-0.40414,0 -0.70166,-0.29184 -0.89248,-0.87564c-0.19091,-0.59495 -0.28628,-1.62783 -0.28628,-3.09842c0,-1.80741 0.14587,-3.14894 0.43783,-4.02458c0.30311,-0.88687 0.68472,-1.3303 1.14507,-1.3303zM184.0031,174.43461c0.3592,0 0.60052,0.14595 0.72409,0.43783c0.13472,0.29188 0.20207,0.72409 0.20207,1.29661c0,0.13472 -0.01127,0.28066 -0.03367,0.43783c-0.01127,0.14595 -0.03367,0.28066 -0.06736,0.40414l-0.03367,-0.33678c0.26942,-0.72971 0.68472,-1.29661 1.24611,-1.70077c0.56127,-0.41538 1.15622,-0.62305 1.78495,-0.62305c0.69598,0 1.2741,0.19646 1.73444,0.58937c0.47149,0.39292 0.81945,0.943 1.04404,1.65025c0.23575,0.70725 0.35361,1.54359 0.35361,2.50905c0,0.59498 -0.02809,1.18436 -0.08419,1.76812c-0.04494,0.57253 -0.1123,1.10014 -0.20207,1.58289c-0.07862,0.47149 -0.16838,0.85881 -0.26942,1.1619c-0.13472,0.38173 -0.30878,0.66799 -0.52202,0.85881c-0.21333,0.17965 -0.46592,0.26942 -0.75777,0.26942c-0.29196,0 -0.51644,-0.10661 -0.67358,-0.31994c-0.15724,-0.21333 -0.23575,-0.49959 -0.23575,-0.85881c0,-0.38173 0.02799,-0.84196 0.08419,-1.38082c0.0561,-0.55008 0.10661,-1.10577 0.15156,-1.66709c0.0561,-0.57253 0.08419,-1.08894 0.08419,-1.5492c0,-1.57167 -0.51644,-2.35749 -1.5492,-2.35749c-0.55011,0 -1.01036,0.24698 -1.38082,0.74093c-0.37047,0.48273 -0.61747,1.17314 -0.74093,2.07123c-0.03367,0.30311 -0.05052,0.67918 -0.05052,1.12823c0,0.44905 0,0.89809 0,1.34714c0.01115,0.43783 0,0.80828 -0.03367,1.11138c-0.04494,0.67358 -0.17408,1.15632 -0.3873,1.44817c-0.20207,0.29184 -0.48276,0.43783 -0.84196,0.43783c-0.4154,0 -0.72978,-0.19082 -0.943,-0.57253c-0.21333,-0.39289 -0.31994,-1.04961 -0.31994,-1.97019c0,-0.47149 0.01115,-0.99913 0.03367,-1.58289c0.02241,-0.58377 0.05052,-1.16751 0.08419,-1.75128c0.04484,-0.59498 0.09536,-1.13384 0.15156,-1.61658c0.1122,-0.90933 0.27501,-1.6278 0.48834,-2.15542c0.21322,-0.53886 0.53318,-0.80828 0.95983,-0.80828zM196.22366,184.63919c-1.05529,0 -1.91408,-0.40414 -2.57639,-1.21242c-0.66241,-0.81955 -0.99352,-2.05999 -0.99352,-3.72147c0,-1.77372 0.31994,-3.07035 0.95983,-3.88986c0.63989,-0.81951 1.48186,-1.22926 2.52589,-1.22926c0.61737,0 1.1619,0.15716 1.6334,0.47149c0.47149,0.31433 0.87564,0.75777 1.21242,1.3303l-0.13472,0.23575c-0.03367,-0.15716 -0.06179,-0.32555 -0.08419,-0.50517c-0.02254,-0.17962 -0.03367,-0.31433 -0.03367,-0.40414c0,-0.46027 0.07292,-0.8139 0.2189,-1.06086c0.15714,-0.2582 0.39846,-0.3873 0.72409,-0.3873c0.3592,0 0.63989,0.14595 0.84196,0.43783c0.21322,0.29188 0.37603,0.70725 0.48834,1.24611c0.14587,0.55008 0.26942,1.25172 0.37047,2.1049c0.10104,0.84196 0.15156,1.69515 0.15156,2.55958c0,1.07771 -0.03935,1.98146 -0.11787,2.71111c-0.07862,0.72966 -0.20776,1.33589 -0.3873,1.81863c-0.17965,0.48276 -0.4154,0.90374 -0.70725,1.26294c-0.48276,0.5838 -1.10582,1.02719 -1.86914,1.3303c-0.75218,0.31436 -1.62226,0.47149 -2.61008,0.47149c-0.70725,0 -1.27421,-0.06736 -1.70077,-0.20207c-0.42666,-0.12345 -0.73534,-0.29753 -0.92615,-0.52202c-0.17965,-0.21333 -0.26942,-0.45465 -0.26942,-0.72409c0,-0.28069 0.07851,-0.51644 0.23575,-0.70725c0.15714,-0.17965 0.39289,-0.26942 0.70725,-0.26942c0.28058,0 0.60621,0.04494 0.97667,0.13472c0.38162,0.08978 0.83069,0.13472 1.34714,0.13472c1.08887,0 1.8579,-0.25815 2.30697,-0.77461c0.46024,-0.50517 0.6904,-1.23484 0.6904,-2.18911c0,-0.25815 -0.01684,-0.56127 -0.05052,-0.90933l0.23575,0.08419c-0.28069,0.71851 -0.69609,1.29661 -1.24611,1.73444c-0.55011,0.42656 -1.19001,0.63989 -1.91967,0.63989zM196.86355,182.56797c0.3592,0 0.71841,-0.09546 1.07771,-0.28628c0.3592,-0.19082 0.65672,-0.50517 0.89248,-0.943c0.23575,-0.43783 0.35361,-1.02719 0.35361,-1.76812c0,-0.88687 -0.20776,-1.61096 -0.62305,-2.17226c-0.4154,-0.5613 -0.9992,-0.84196 -1.75128,-0.84196c-0.65116,0 -1.12823,0.24698 -1.43134,0.74093c-0.30311,0.49395 -0.45465,1.2405 -0.45465,2.23961c0,0.95423 0.15156,1.70077 0.45465,2.23961c0.30311,0.52759 0.79703,0.79144 1.48186,0.79144zM211.70103,172.8012c1.33589,0 2.31813,0.34239 2.94686,1.02719c0.63989,0.6848 0.95983,1.58289 0.95983,2.69428c0,0.76338 -0.17965,1.42573 -0.53886,1.98703c-0.34805,0.5613 -0.82512,0.99913 -1.43134,1.31346c-0.60621,0.30311 -1.29105,0.45465 -2.05438,0.45465c-0.3593,0 -0.74093,-0.03928 -1.14507,-0.11787c-0.39298,-0.07858 -0.80271,-0.23014 -1.22926,-0.45465l0.08419,-0.2189c0.08978,0.28066 0.1627,0.62867 0.2189,1.04404c0.06736,0.40414 0.11787,0.82512 0.15156,1.26294c0.04484,0.42656 0.06736,0.81955 0.06736,1.17875c0,0.66231 -0.1123,1.17317 -0.33678,1.53237c-0.21333,0.34805 -0.53329,0.52202 -0.95983,0.52202c-0.3593,0 -0.64557,-0.1123 -0.85881,-0.33678c-0.20207,-0.22448 -0.34248,-0.59495 -0.42098,-1.11138c-0.07862,-0.51644 -0.11787,-1.20683 -0.11787,-2.07123c0,-1.66149 0.07292,-3.07598 0.2189,-4.24349c0.15714,-1.17875 0.42098,-2.1049 0.79144,-2.77847c0.29184,-0.5164 0.74093,-0.92615 1.34714,-1.22926c0.61737,-0.30311 1.3864,-0.45465 2.30697,-0.45465zM211.38108,178.29079c0.67358,0 1.21801,-0.17962 1.6334,-0.53886c0.42656,-0.35923 0.63989,-0.88124 0.63989,-1.56605c0,-0.44905 -0.15156,-0.81951 -0.45465,-1.11138c-0.29196,-0.30311 -0.75218,-0.45465 -1.38082,-0.45465c-0.46034,0 -0.85881,0.10665 -1.19559,0.31994c-0.33678,0.20207 -0.59505,0.48834 -0.77461,0.85881c-0.16838,0.35923 -0.2526,0.77461 -0.2526,1.24611c0,0.43783 0.14029,0.75777 0.42098,0.95983c0.29184,0.19084 0.7465,0.28628 1.36397,0.28628zM221.76425,185.04333c-1.24611,0 -2.23961,-0.18523 -2.98055,-0.5557c-0.74093,-0.37047 -1.2741,-0.90374 -1.59972,-1.59972c-0.32553,-0.69598 -0.48834,-1.52677 -0.48834,-2.4922c0,-1.22365 0.22459,-2.26206 0.67358,-3.11525c0.46034,-0.86442 1.08897,-1.52677 1.886,-1.98703c0.80828,-0.46027 1.72328,-0.6904 2.7448,-0.6904c1.20128,0 2.08249,0.28066 2.64376,0.84196c0.56138,0.55008 0.84196,1.27417 0.84196,2.17226c0,0.71849 -0.19082,1.34152 -0.57253,1.86914c-0.37047,0.5164 -0.88679,0.91493 -1.5492,1.19559c-0.66231,0.28066 -1.42566,0.42098 -2.29014,0.42098c-0.48266,0 -0.94859,-0.06175 -1.39765,-0.18523c-0.44897,-0.12348 -0.85313,-0.29188 -1.21242,-0.50517l0.40414,-0.74093c-0.03367,0.26942 -0.05052,0.53886 -0.05052,0.80828c0,0.78582 0.24702,1.35271 0.74093,1.70077c0.49403,0.33678 1.19559,0.50517 2.1049,0.50517c0.70725,0 1.27421,-0.06179 1.70077,-0.18523c0.42666,-0.12345 0.78586,-0.24133 1.07771,-0.35361c0.29196,-0.12345 0.57822,-0.18523 0.85881,-0.18523c0.15724,0 0.29753,0.04494 0.42098,0.13472c0.13472,0.07862 0.24143,0.1965 0.31994,0.35361c0.08987,0.15714 0.13472,0.34805 0.13472,0.57253c0,0.33678 -0.16838,0.66231 -0.50517,0.97667c-0.33678,0.30311 -0.83627,0.5557 -1.4987,0.75777c-0.65104,0.19082 -1.45375,0.28628 -2.40802,0.28628zM220.78757,179.5369c0.79713,0 1.43703,-0.16838 1.91967,-0.50517c0.48276,-0.33678 0.72409,-0.75216 0.72409,-1.24611c0,-0.39292 -0.13472,-0.71285 -0.40414,-0.95983c-0.25815,-0.2582 -0.6679,-0.3873 -1.22926,-0.3873c-0.52759,0 -1.00468,0.10104 -1.43134,0.30311c-0.41529,0.19084 -0.74093,0.44343 -0.97667,0.75777c-0.23575,0.31433 -0.35361,0.65672 -0.35361,1.02719c0,0.32555 0.15156,0.57815 0.45465,0.75777c0.31436,0.16838 0.74661,0.2526 1.29661,0.2526zM227.65608,177.31412c0,-1.07771 0.10104,-1.85232 0.30311,-2.32382c0.20207,-0.48273 0.48834,-0.72409 0.85881,-0.72409c0.29184,0 0.52202,0.12348 0.6904,0.37047c0.16838,0.23575 0.29184,0.53326 0.37047,0.89248c0.07851,0.34802 0.11787,0.70163 0.11787,1.06086l-0.08419,-0.03367c0.19082,-0.60621 0.48266,-1.12823 0.87564,-1.56605c0.40414,-0.43783 0.88679,-0.65672 1.44817,-0.65672c0.66231,0 1.15065,0.27504 1.46502,0.82512c0.31426,0.53886 0.47149,1.21242 0.47149,2.0207c0,1.07771 -0.12355,1.82987 -0.37047,2.25646c-0.24702,0.4266 -0.57822,0.63989 -0.99352,0.63989c-0.30311,0 -0.5277,-0.12348 -0.67358,-0.37047c-0.13472,-0.24698 -0.17965,-0.6848 -0.13472,-1.31346c0.04484,-0.66234 0.00559,-1.12262 -0.11787,-1.38082c-0.12355,-0.2582 -0.31994,-0.3873 -0.58937,-0.3873c-0.32563,0 -0.59505,0.20768 -0.80828,0.62305c-0.20207,0.40414 -0.30311,0.90372 -0.30311,1.4987c0,0.23575 0.02799,0.53326 0.08419,0.89248c0.0561,0.35923 0.11787,0.75216 0.18523,1.17875c0.06736,0.41538 0.12902,0.83072 0.18523,1.24611c0.0561,0.4154 0.08419,0.79703 0.08419,1.14507c0,0.61747 -0.09546,1.06086 -0.28628,1.3303c-0.19091,0.26942 -0.46034,0.40414 -0.80828,0.40414c-0.39298,0 -0.69609,-0.12345 -0.90933,-0.37047c-0.21333,-0.25815 -0.37615,-0.67358 -0.48834,-1.24611c-0.08987,-0.51644 -0.17965,-1.12823 -0.26942,-1.83548c-0.08987,-0.70725 -0.16282,-1.43134 -0.21901,-2.17226c-0.0561,-0.74093 -0.08409,-1.40888 -0.08409,-2.00386zM239.92484,174.36726c0.9992,0 1.7176,0.14595 2.15542,0.43783c0.43783,0.29188 0.65672,0.66796 0.65672,1.12823c0,0.26942 -0.09536,0.49395 -0.28628,0.67358c-0.17955,0.16838 -0.43783,0.2526 -0.77461,0.2526c-0.34795,0 -0.71283,-0.05052 -1.09455,-0.15156c-0.37047,-0.10104 -0.8026,-0.15156 -1.29661,-0.15156c-0.57253,0 -0.99909,0.11227 -1.27978,0.33678c-0.28058,0.22451 -0.42098,0.51079 -0.42098,0.85881c0,0.32555 0.12355,0.58377 0.37047,0.77461c0.25828,0.17962 0.74661,0.31433 1.46502,0.40414c0.79713,0.0898 1.45385,0.23575 1.97019,0.43783c0.5277,0.19084 0.92058,0.48273 1.17875,0.87564c0.25828,0.3817 0.3873,0.90933 0.3873,1.58289c0,1.06645 -0.37603,1.8579 -1.12823,2.37434c-0.75209,0.51644 -1.79054,0.77461 -3.11525,0.77461c-0.84196,0 -1.50985,-0.06736 -2.00386,-0.20207c-0.49391,-0.13472 -0.85313,-0.32553 -1.07771,-0.57253c-0.21322,-0.24702 -0.31994,-0.53886 -0.31994,-0.87564c0,-0.29184 0.09546,-0.51644 0.28628,-0.67358c0.20207,-0.16838 0.43783,-0.2526 0.70725,-0.2526c0.25828,0 0.53329,0.03367 0.82512,0.10104c0.29196,0.0561 0.60063,0.11787 0.92615,0.18523c0.32563,0.06736 0.66241,0.10104 1.01036,0.10104c1.12265,0 1.68392,-0.34805 1.68392,-1.04404c0,-0.23575 -0.0561,-0.4266 -0.16838,-0.57253c-0.1122,-0.14595 -0.31426,-0.26382 -0.60621,-0.35361c-0.29184,-0.10104 -0.71841,-0.17962 -1.27978,-0.23575c-0.67358,-0.06736 -1.25726,-0.17962 -1.75128,-0.33678c-0.49391,-0.16838 -0.87564,-0.43783 -1.14507,-0.80828c-0.26942,-0.3817 -0.40414,-0.90372 -0.40414,-1.56605c0,-1.04404 0.39298,-1.886 1.17875,-2.52589c0.78586,-0.65112 1.90283,-0.97667 3.35101,-0.97667zM249.37471,185.04333c-1.24611,0 -2.23961,-0.18523 -2.98055,-0.5557c-0.74093,-0.37047 -1.27421,-0.90374 -1.59972,-1.59972c-0.32553,-0.69598 -0.48834,-1.52677 -0.48834,-2.4922c0,-1.22365 0.22448,-2.26206 0.67358,-3.11525c0.45992,-0.86442 1.08929,-1.52677 1.886,-1.98703c0.80828,-0.46027 1.72287,-0.6904 2.7448,-0.6904c1.20085,0 2.0828,0.28066 2.64376,0.84196c0.56096,0.55008 0.84196,1.27417 0.84196,2.17226c0,0.71849 -0.1905,1.34152 -0.57253,1.86914c-0.37047,0.5164 -0.88721,0.91493 -1.5492,1.19559c-0.662,0.28066 -1.42608,0.42098 -2.29014,0.42098c-0.48308,0 -0.94826,-0.06175 -1.39765,-0.18523c-0.4494,-0.12348 -0.85354,-0.29188 -1.21242,-0.50517l0.40414,-0.74093c-0.03367,0.26942 -0.05052,0.53886 -0.05052,0.80828c0,0.78582 0.24733,1.35271 0.74093,1.70077c0.4936,0.33678 1.19559,0.50517 2.1049,0.50517c0.70725,0 1.27452,-0.06179 1.70077,-0.18523c0.42625,-0.12345 0.78619,-0.24133 1.07771,-0.35361c0.29154,-0.12345 0.57779,-0.18523 0.85881,-0.18523c0.15681,0 0.29785,0.04494 0.42098,0.13472c0.13472,0.07862 0.24101,0.1965 0.31994,0.35361c0.08945,0.15714 0.13472,0.34805 0.13472,0.57253c0,0.33678 -0.16838,0.66231 -0.50517,0.97667c-0.33678,0.30311 -0.83669,0.5557 -1.4987,0.75777c-0.65146,0.19082 -1.45343,0.28628 -2.40802,0.28628zM248.39803,179.5369c0.79671,0 1.43659,-0.16838 1.91967,-0.50517c0.48308,-0.33678 0.72409,-0.75216 0.72409,-1.24611c0,-0.39292 -0.13472,-0.71285 -0.40414,-0.95983c-0.25785,-0.2582 -0.66831,-0.3873 -1.22926,-0.3873c-0.52729,0 -1.0051,0.10104 -1.43134,0.30311c-0.41571,0.19084 -0.74093,0.44343 -0.97667,0.75777c-0.23575,0.31433 -0.35361,0.65672 -0.35361,1.02719c0,0.32555 0.15156,0.57815 0.45465,0.75777c0.31468,0.16838 0.74619,0.2526 1.29661,0.2526zM258.48263,184.63919c-1.05561,0 -1.91443,-0.40414 -2.57639,-1.21242c-0.662,-0.81955 -0.99352,-2.05999 -0.99352,-3.72147c0,-1.77372 0.31994,-3.07035 0.95983,-3.88986c0.63989,-0.81951 1.48186,-1.22926 2.52589,-1.22926c0.61779,0 1.1619,0.15716 1.6334,0.47149c0.47149,0.31433 0.87564,0.75777 1.21242,1.3303l-0.13472,0.23575c-0.03367,-0.15716 -0.0621,-0.32555 -0.08419,-0.50517c-0.0221,-0.17962 -0.03367,-0.31433 -0.03367,-0.40414c0,-0.46027 0.07262,-0.8139 0.2189,-1.06086c0.15681,-0.2582 0.39888,-0.3873 0.72409,-0.3873c0.35888,0 0.63989,0.14595 0.84196,0.43783c0.21366,0.29188 0.37573,0.70725 0.48834,1.24611c0.14629,0.55008 0.26942,1.25172 0.37047,2.1049c0.10104,0.84196 0.15156,1.69515 0.15156,2.55958c0,1.07771 -0.03895,1.98146 -0.11787,2.71111c-0.07894,0.72966 -0.20733,1.33589 -0.3873,1.81863c-0.17997,0.48276 -0.41571,0.90374 -0.70725,1.26294c-0.48308,0.5838 -1.10613,1.02719 -1.86914,1.3303c-0.7525,0.31436 -1.62182,0.47149 -2.61008,0.47149c-0.70725,0 -1.27452,-0.06736 -1.70077,-0.20207c-0.42625,-0.12345 -0.73567,-0.29753 -0.92615,-0.52202c-0.17997,-0.21333 -0.26942,-0.45465 -0.26942,-0.72409c0,-0.28069 0.07894,-0.51644 0.23575,-0.70725c0.15681,-0.17965 0.39256,-0.26942 0.70725,-0.26942c0.28099,0 0.60621,0.04494 0.97667,0.13472c0.38204,0.08978 0.83038,0.13472 1.34714,0.13472c1.08929,0 1.85757,-0.25815 2.30697,-0.77461c0.45992,-0.50517 0.6904,-1.23484 0.6904,-2.18911c0,-0.25815 -0.01684,-0.56127 -0.05052,-0.90933l0.23575,0.08419c-0.28099,0.71851 -0.69567,1.29661 -1.24611,1.73444c-0.55044,0.42656 -1.19032,0.63989 -1.91967,0.63989zM259.12252,182.56797c0.35888,0 0.71882,-0.09546 1.07771,-0.28628c0.35888,-0.19082 0.65672,-0.50517 0.89248,-0.943c0.23575,-0.43783 0.35361,-1.02719 0.35361,-1.76812c0,-0.88687 -0.20733,-1.61096 -0.62305,-2.17226c-0.41571,-0.5613 -0.99878,-0.84196 -1.75128,-0.84196c-0.65146,0 -1.12823,0.24698 -1.43134,0.74093c-0.30311,0.49395 -0.45465,1.2405 -0.45465,2.23961c0,0.95423 0.15156,1.70077 0.45465,2.23961c0.30311,0.52759 0.79671,0.79144 1.48186,0.79144zM267.32218,171.99293c0.4494,0 0.76934,0.12349 0.95983,0.37047c0.20207,0.24698 0.30311,0.53326 0.30311,0.85881c0,0.40414 -0.12313,0.71849 -0.37047,0.943c-0.23575,0.21329 -0.57253,0.31994 -1.01036,0.31994c-0.42625,0 -0.74619,-0.11787 -0.95983,-0.35361c-0.21366,-0.24698 -0.31994,-0.53326 -0.31994,-0.85881c0,-0.4266 0.12945,-0.74653 0.3873,-0.95983c0.25785,-0.21329 0.59463,-0.31994 1.01036,-0.31994zM267.42321,175.74807c0.35888,0 0.63989,0.33678 0.84196,1.01036c0.21366,0.67358 0.31994,1.74568 0.31994,3.2163c0,1.80738 -0.12945,3.10969 -0.3873,3.9067c-0.25785,0.79703 -0.65146,1.19559 -1.17875,1.19559c-0.40414,0 -0.70199,-0.29184 -0.89248,-0.87564c-0.1905,-0.59495 -0.28628,-1.62783 -0.28628,-3.09842c0,-1.80741 0.14629,-3.14894 0.43783,-4.02458c0.30311,-0.88687 0.68515,-1.3303 1.14507,-1.3303zM278.76234,172.8012c1.33555,0 2.31749,0.34239 2.94686,1.02719c0.63989,0.6848 0.95983,1.58289 0.95983,2.69428c0,0.76338 -0.17997,1.42573 -0.53886,1.98703c-0.34837,0.5613 -0.82512,0.99913 -1.43134,1.31346c-0.60621,0.30311 -1.29136,0.45465 -2.05438,0.45465c-0.35994,0 -0.74093,-0.03928 -1.14507,-0.11787c-0.39361,-0.07858 -0.80302,-0.23014 -1.22926,-0.45465l0.08419,-0.2189c0.08945,0.28066 0.16207,0.62867 0.2189,1.04404c0.06736,0.40414 0.11787,0.82512 0.15156,1.26294c0.04421,0.42656 0.06736,0.81955 0.06736,1.17875c0,0.66231 -0.11262,1.17317 -0.33678,1.53237c-0.21366,0.34805 -0.5336,0.52202 -0.95983,0.52202c-0.35994,0 -0.6462,-0.1123 -0.85881,-0.33678c-0.20207,-0.22448 -0.34309,-0.59495 -0.42098,-1.11138c-0.07894,-0.51644 -0.11787,-1.20683 -0.11787,-2.07123c0,-1.66149 0.07262,-3.07598 0.2189,-4.24349c0.15681,-1.17875 0.42098,-2.1049 0.79144,-2.77847c0.29154,-0.5164 0.74093,-0.92615 1.34714,-1.22926c0.61672,-0.30311 1.38608,-0.45465 2.30697,-0.45465zM278.44239,178.29079c0.67358,0 1.21768,-0.17962 1.6334,-0.53886c0.42625,-0.35923 0.63989,-0.88124 0.63989,-1.56605c0,-0.44905 -0.15156,-0.81951 -0.45465,-1.11138c-0.29258,-0.30311 -0.7525,-0.45465 -1.38082,-0.45465c-0.46098,0 -0.85881,0.10665 -1.19559,0.31994c-0.33678,0.20207 -0.5957,0.48834 -0.77461,0.85881c-0.16838,0.35923 -0.2526,0.77461 -0.2526,1.24611c0,0.43783 0.13998,0.75777 0.42098,0.95983c0.29154,0.19084 0.74619,0.28628 1.36397,0.28628zM291.46859,185.07701c-0.38098,0 -0.64515,-0.14597 -0.79144,-0.43783c-0.13472,-0.30311 -0.2126,-0.78018 -0.23575,-1.43134l0.16838,0.08419c-0.62832,1.22369 -1.81863,1.83548 -3.56991,1.83548c-0.79671,0 -1.45871,-0.14029 -1.98703,-0.42098c-0.52729,-0.29184 -0.91984,-0.67358 -1.17875,-1.14507c-0.24628,-0.48276 -0.37047,-1.00478 -0.37047,-1.56605c0,-0.96545 0.33678,-1.72882 1.01036,-2.29014c0.67358,-0.57253 1.56605,-0.85881 2.67744,-0.85881c0.7304,0 1.36397,0.10665 1.90283,0.31994c0.53886,0.21329 0.99982,0.51079 1.38082,0.89248l-0.28628,-0.03367c-0.07788,-1.13384 -0.32521,-1.94213 -0.74093,-2.42486c-0.40414,-0.49395 -0.98194,-0.74093 -1.73444,-0.74093c-0.43783,0 -0.84196,0.06736 -1.21242,0.20207c-0.37047,0.13472 -0.71251,0.27504 -1.02719,0.42098c-0.30311,0.13472 -0.58937,0.20207 -0.85881,0.20207c-0.26942,0 -0.48202,-0.0898 -0.63989,-0.26942c-0.14523,-0.17962 -0.2189,-0.40974 -0.2189,-0.6904c0,-0.40414 0.19154,-0.78582 0.57253,-1.14507c0.39361,-0.35923 0.90933,-0.65112 1.5492,-0.87564c0.63989,-0.22451 1.33661,-0.33678 2.08807,-0.33678c0.90933,0 1.69025,0.2189 2.34065,0.65672c0.65146,0.43783 1.14507,1.07771 1.48186,1.91967c0.29258,0.71849 0.49992,1.52115 0.62305,2.40802c0.12419,0.88687 0.18523,1.83548 0.18523,2.84583c0,0.76335 -0.03895,1.35271 -0.11787,1.76812c-0.07788,0.4154 -0.20207,0.70725 -0.37047,0.87564c-0.15681,0.15714 -0.37047,0.23575 -0.63989,0.23575zM287.74713,183.19101c0.37047,0 0.74725,-0.05052 1.12823,-0.15156c0.38204,-0.1123 0.70199,-0.27501 0.95983,-0.48834c0.2589,-0.21333 0.3873,-0.47708 0.3873,-0.79144c0,-0.26942 -0.11156,-0.48834 -0.33678,-0.65672c-0.2126,-0.17962 -0.49886,-0.31433 -0.85881,-0.40414c-0.3473,-0.0898 -0.72409,-0.13472 -1.12823,-0.13472c-0.6841,0 -1.20611,0.11787 -1.56605,0.35361c-0.3473,0.23575 -0.52202,0.55008 -0.52202,0.943c0,0.42656 0.16313,0.75777 0.48834,0.99352c0.33678,0.22448 0.81986,0.33678 1.44817,0.33678zM296.36882,174.43461c0.35888,0 0.60096,0.14595 0.72409,0.43783c0.13472,0.29188 0.20207,0.72409 0.20207,1.29661c0,0.13472 -0.01157,0.28066 -0.03367,0.43783c-0.01157,0.14595 -0.03367,0.28066 -0.06736,0.40414l-0.03367,-0.33678c0.26942,-0.72971 0.68515,-1.29661 1.24611,-1.70077c0.56096,-0.41538 1.15665,-0.62305 1.78495,-0.62305c0.69567,0 1.27452,0.19646 1.73444,0.58937c0.47149,0.39292 0.81986,0.943 1.04404,1.65025c0.23575,0.70725 0.35361,1.54359 0.35361,2.50905c0,0.59498 -0.02843,1.18436 -0.08419,1.76812c-0.04525,0.57253 -0.11262,1.10014 -0.20207,1.58289c-0.07894,0.47149 -0.16838,0.85881 -0.26942,1.1619c-0.13472,0.38173 -0.30837,0.66799 -0.52202,0.85881c-0.21366,0.17965 -0.46623,0.26942 -0.75777,0.26942c-0.29154,0 -0.51675,-0.10661 -0.67358,-0.31994c-0.15681,-0.21333 -0.23575,-0.49959 -0.23575,-0.85881c0,-0.38173 0.02843,-0.84196 0.08419,-1.38082c0.05578,-0.55008 0.10629,-1.10577 0.15156,-1.66709c0.05578,-0.57253 0.08419,-1.08894 0.08419,-1.5492c0,-1.57167 -0.51675,-2.35749 -1.5492,-2.35749c-0.55044,0 -1.01036,0.24698 -1.38082,0.74093c-0.37047,0.48273 -0.61779,1.17314 -0.74093,2.07123c-0.03367,0.30311 -0.05052,0.67918 -0.05052,1.12823c0,0.44905 0,0.89809 0,1.34714c0.01157,0.43783 0,0.80828 -0.03367,1.11138c-0.04525,0.67358 -0.17366,1.15632 -0.3873,1.44817c-0.20207,0.29184 -0.48308,0.43783 -0.84196,0.43783c-0.41571,0 -0.72934,-0.19082 -0.943,-0.57253c-0.21366,-0.39289 -0.31994,-1.04961 -0.31994,-1.97019c0,-0.47149 0.01157,-0.99913 0.03367,-1.58289c0.0221,-0.58377 0.05052,-1.16751 0.08419,-1.75128c0.04525,-0.59498 0.09577,-1.13384 0.15156,-1.61658c0.11262,-0.90933 0.27469,-1.6278 0.48834,-2.15542c0.21366,-0.53886 0.5336,-0.80828 0.95983,-0.80828zM305.45674,188.41119c-0.44835,0 -0.85248,-0.09546 -1.21242,-0.28628c-0.35888,-0.19082 -0.64515,-0.43224 -0.85881,-0.72409c-0.2126,-0.29184 -0.31994,-0.58937 -0.31994,-0.89248c0,-0.25815 0.06736,-0.46024 0.20207,-0.60621c0.13472,-0.14597 0.30942,-0.2189 0.52308,-0.2189c0.37047,0 0.76829,0.14029 1.19559,0.42098c0.42625,0.28069 0.83038,0.66799 1.21242,1.1619l-0.2526,-0.03367c-0.19154,-1.57164 -0.33678,-3.07601 -0.43783,-4.51291c-0.09052,-1.44817 -0.13472,-2.7448 -0.13472,-3.88986c0,-1.04404 0.08419,-1.82424 0.2526,-2.34065c0.17893,-0.52762 0.47149,-0.79144 0.87564,-0.79144c0.45992,0 0.82512,0.35923 1.09455,1.07771c0.26942,0.71849 0.40414,1.93091 0.40414,3.63728c0,0.75216 -0.02315,1.5268 -0.06736,2.32382c-0.04525,0.78586 -0.11262,1.53237 -0.20207,2.23961c-0.07894,0.70725 -0.19154,1.3022 -0.33678,1.78495c-0.17997,0.5838 -0.42729,1.00478 -0.74093,1.26294c-0.30311,0.25815 -0.70199,0.3873 -1.19664,0.3873zM306.23238,174.2999c-0.35994,0 -0.65146,-0.07858 -0.87564,-0.23575c-0.21366,-0.16838 -0.31994,-0.42098 -0.31994,-0.75777c0,-0.3817 0.1284,-0.70163 0.3873,-0.95983c0.26942,-0.26942 0.64515,-0.40414 1.12823,-0.40414c0.40414,0 0.71251,0.10104 0.92615,0.30311c0.2126,0.19084 0.31994,0.44905 0.31994,0.77461c0,0.40414 -0.14629,0.71849 -0.43783,0.943c-0.29258,0.22451 -0.66831,0.33678 -1.12823,0.33678zM317.41891,185.07701c-0.38204,0 -0.6462,-0.14597 -0.79144,-0.43783c-0.13472,-0.30311 -0.21366,-0.78018 -0.23575,-1.43134l0.16838,0.08419c-0.62937,1.22369 -1.81863,1.83548 -3.56991,1.83548c-0.79776,0 -1.45975,-0.14029 -1.98703,-0.42098c-0.52832,-0.29184 -0.9209,-0.67358 -1.17875,-1.14507c-0.24733,-0.48276 -0.37047,-1.00478 -0.37047,-1.56605c0,-0.96545 0.33678,-1.72882 1.01036,-2.29014c0.67358,-0.57253 1.56605,-0.85881 2.67744,-0.85881c0.72934,0 1.36397,0.10665 1.90283,0.31994c0.53886,0.21329 0.99878,0.51079 1.38082,0.89248l-0.28628,-0.03367c-0.07894,-1.13384 -0.32627,-1.94213 -0.74093,-2.42486c-0.40414,-0.49395 -0.983,-0.74093 -1.73444,-0.74093c-0.43783,0 -0.84196,0.06736 -1.21242,0.20207c-0.37047,0.13472 -0.71356,0.27504 -1.02719,0.42098c-0.30311,0.13472 -0.58937,0.20207 -0.85881,0.20207c-0.26942,0 -0.48308,-0.0898 -0.63989,-0.26942c-0.14629,-0.17962 -0.2189,-0.40974 -0.2189,-0.6904c0,-0.40414 0.1905,-0.78582 0.57253,-1.14507c0.39256,-0.35923 0.90933,-0.65112 1.5492,-0.87564c0.63989,-0.22451 1.33555,-0.33678 2.08807,-0.33678c0.90933,0 1.68919,0.2189 2.34065,0.65672c0.65042,0.43783 1.14507,1.07771 1.48186,1.91967c0.29154,0.71849 0.49886,1.52115 0.62305,2.40802c0.12313,0.88687 0.18523,1.83548 0.18523,2.84583c0,0.76335 -0.04,1.35271 -0.11787,1.76812c-0.07894,0.4154 -0.20207,0.70725 -0.37047,0.87564c-0.15787,0.15714 -0.37047,0.23575 -0.63989,0.23575zM313.69744,183.19101c0.37047,0 0.74619,-0.05052 1.12823,-0.15156c0.38098,-0.1123 0.70094,-0.27501 0.95983,-0.48834c0.25785,-0.21333 0.3873,-0.47708 0.3873,-0.79144c0,-0.26942 -0.11262,-0.48834 -0.33678,-0.65672c-0.21366,-0.17962 -0.49992,-0.31433 -0.85881,-0.40414c-0.34837,-0.0898 -0.72409,-0.13472 -1.12823,-0.13472c-0.68515,0 -1.20717,0.11787 -1.56605,0.35361c-0.34837,0.23575 -0.52202,0.55008 -0.52202,0.943c0,0.42656 0.16207,0.75777 0.48834,0.99352c0.33678,0.22448 0.81881,0.33678 1.44817,0.33678zM322.31808,174.43461c0.35994,0 0.60096,0.14595 0.72409,0.43783c0.13472,0.29188 0.20207,0.72409 0.20207,1.29661c0,0.13472 -0.01052,0.28066 -0.03367,0.43783c-0.01052,0.14595 -0.03367,0.28066 -0.06736,0.40414l-0.03367,-0.33678c0.26942,-0.72971 0.68515,-1.29661 1.24611,-1.70077c0.56202,-0.41538 1.15665,-0.62305 1.78495,-0.62305c0.69672,0 1.27452,0.19646 1.73444,0.58937c0.47149,0.39292 0.81986,0.943 1.04404,1.65025c0.23575,0.70725 0.35361,1.54359 0.35361,2.50905c0,0.59498 -0.02736,1.18436 -0.08419,1.76812c-0.04421,0.57253 -0.11156,1.10014 -0.20207,1.58289c-0.07788,0.47149 -0.16838,0.85881 -0.26942,1.1619c-0.13472,0.38173 -0.30837,0.66799 -0.52202,0.85881c-0.2126,0.17965 -0.46518,0.26942 -0.75777,0.26942c-0.29154,0 -0.51571,-0.10661 -0.67358,-0.31994c-0.15681,-0.21333 -0.23575,-0.49959 -0.23575,-0.85881c0,-0.38173 0.02843,-0.84196 0.08419,-1.38082c0.05683,-0.55008 0.10735,-1.10577 0.15156,-1.66709c0.05683,-0.57253 0.08419,-1.08894 0.08419,-1.5492c0,-1.57167 -0.51571,-2.35749 -1.5492,-2.35749c-0.54938,0 -1.01036,0.24698 -1.38082,0.74093c-0.37047,0.48273 -0.61672,1.17314 -0.74093,2.07123c-0.03367,0.30311 -0.05052,0.67918 -0.05052,1.12823c0,0.44905 0,0.89809 0,1.34714c0.01157,0.43783 0,0.80828 -0.03367,1.11138c-0.04421,0.67358 -0.17366,1.15632 -0.3873,1.44817c-0.20207,0.29184 -0.48202,0.43783 -0.84196,0.43783c-0.41467,0 -0.72934,-0.19082 -0.943,-0.57253c-0.2126,-0.39289 -0.31994,-1.04961 -0.31994,-1.97019c0,-0.47149 0.01157,-0.99913 0.03367,-1.58289c0.02315,-0.58377 0.05052,-1.16751 0.08419,-1.75128c0.04525,-0.59498 0.09577,-1.13384 0.15156,-1.61658c0.11262,-0.90933 0.27575,-1.6278 0.48834,-2.15542c0.21366,-0.53886 0.5336,-0.80828 0.95983,-0.80828zM334.53915,184.63919c-1.05561,0 -1.91443,-0.40414 -2.57639,-1.21242c-0.66304,-0.81955 -0.99352,-2.05999 -0.99352,-3.72147c0,-1.77372 0.31994,-3.07035 0.95983,-3.88986c0.63989,-0.81951 1.48186,-1.22926 2.52589,-1.22926c0.61672,0 1.1619,0.15716 1.6334,0.47149c0.47149,0.31433 0.87564,0.75777 1.21242,1.3303l-0.13472,0.23575c-0.03367,-0.15716 -0.0621,-0.32555 -0.08419,-0.50517c-0.02315,-0.17962 -0.03367,-0.31433 -0.03367,-0.40414c0,-0.46027 0.07262,-0.8139 0.2189,-1.06086c0.15681,-0.2582 0.39783,-0.3873 0.72409,-0.3873c0.35888,0 0.63989,0.14595 0.84196,0.43783c0.2126,0.29188 0.37573,0.70725 0.48834,1.24611c0.14523,0.55008 0.26942,1.25172 0.37047,2.1049c0.10104,0.84196 0.15156,1.69515 0.15156,2.55958c0,1.07771 -0.04,1.98146 -0.11787,2.71111c-0.07894,0.72966 -0.20839,1.33589 -0.3873,1.81863c-0.17997,0.48276 -0.41571,0.90374 -0.70725,1.26294c-0.48308,0.5838 -1.10613,1.02719 -1.86914,1.3303c-0.7525,0.31436 -1.62288,0.47149 -2.61008,0.47149c-0.70725,0 -1.27452,-0.06736 -1.70077,-0.20207c-0.42729,-0.12345 -0.73567,-0.29753 -0.92615,-0.52202c-0.17997,-0.21333 -0.26942,-0.45465 -0.26942,-0.72409c0,-0.28069 0.07788,-0.51644 0.23575,-0.70725c0.15681,-0.17965 0.39256,-0.26942 0.70725,-0.26942c0.27996,0 0.60621,0.04494 0.97667,0.13472c0.38098,0.08978 0.83038,0.13472 1.34714,0.13472c1.08823,0 1.85757,-0.25815 2.30697,-0.77461c0.45992,-0.50517 0.6904,-1.23484 0.6904,-2.18911c0,-0.25815 -0.01684,-0.56127 -0.05052,-0.90933l0.23575,0.08419c-0.28099,0.71851 -0.69672,1.29661 -1.24611,1.73444c-0.55044,0.42656 -1.19032,0.63989 -1.91967,0.63989zM335.17904,182.56797c0.35888,0 0.71777,-0.09546 1.07771,-0.28628c0.35888,-0.19082 0.65672,-0.50517 0.89248,-0.943c0.23575,-0.43783 0.35361,-1.02719 0.35361,-1.76812c0,-0.88687 -0.20839,-1.61096 -0.62305,-2.17226c-0.41571,-0.5613 -0.99982,-0.84196 -1.75128,-0.84196c-0.65146,0 -1.12823,0.24698 -1.43134,0.74093c-0.30311,0.49395 -0.45465,1.2405 -0.45465,2.23961c0,0.95423 0.15156,1.70077 0.45465,2.23961c0.30311,0.52759 0.79671,0.79144 1.48186,0.79144z"/></g></g></svg>