<svg version="1.1" xmlns="http://www.w3.org/2000/svg" xmlns:xlink="http://www.w3.org/1999/xlink" width="69.67599" height="17.06131" viewBox="0,0,69.67599,17.06131"><g transform="translate(-205.16201,-171.46934)"><g data-paper-data="{&quot;isPaintingLayer&quot;:true}" fill-rule="nonzero" stroke-width="1" stroke-linecap="butt" stroke-linejoin="miter" stroke-miterlimit="10" stroke-dasharray="" stroke-dashoffset="0" style="mix-blend-mode: normal"><path d="M210.92347,171.96934h58.15306c2.90599,0 5.26146,2.35564 5.26146,5.26146v5.53839c0,2.90583 -2.35548,5.26146 -5.26146,5.26146h-58.15306c-2.90583,0 -5.26146,-2.35564 -5.26146,-5.26146v-5.53839c0,-2.90583 2.35564,-5.26146 5.26146,-5.26146z" fill="#a5a7a9" stroke="#000000"/><path d="M216.96807,178.29141c0.1178,0 0.20714,0.0406 0.26806,0.12184c0.06092,0.07715 0.09138,0.20508 0.09138,0.38381c0,0.22336 -0.02642,0.47519 -0.0792,0.75544c-0.05278,0.28024 -0.12794,0.54625 -0.22541,0.79808l-0.09747,-0.12184c0.32494,-0.06907 0.662,-0.10152 1.01131,-0.09747c0.34931,0.00404 0.6661,0.0447 0.95039,0.12184l-0.10966,0.05483c-0.05278,-0.27211 -0.09343,-0.54221 -0.12184,-0.81026c-0.02437,-0.26806 -0.03655,-0.50565 -0.03655,-0.71279c0,-0.19091 0.02842,-0.32693 0.08529,-0.40818c0.05688,-0.08125 0.14826,-0.12184 0.27415,-0.12184c0.12999,0 0.23151,0.04669 0.30461,0.14013c0.0731,0.08934 0.12999,0.23151 0.17059,0.42646c0.0447,0.20309 0.0792,0.44877 0.10356,0.73716c0.02842,0.28429 0.04264,0.57671 0.04264,0.87728c0,0.29647 -0.00815,0.59909 -0.02437,0.90775c-0.01623,0.30866 -0.04669,0.59499 -0.09138,0.859c-0.03655,0.21118 -0.09543,0.36349 -0.17668,0.45692c-0.08125,0.09343 -0.1929,0.14013 -0.33507,0.14013c-0.14622,0 -0.25183,-0.04669 -0.31679,-0.14013c-0.06092,-0.09343 -0.09138,-0.26806 -0.09138,-0.52393c0,-0.24773 0.01828,-0.50565 0.05483,-0.77371c0.0406,-0.26806 0.09543,-0.53208 0.16449,-0.79199l0.12794,0.18886c-0.30866,0.06497 -0.63154,0.09747 -0.96867,0.09747c-0.33303,-0.00404 -0.65796,-0.03655 -0.97476,-0.09747l0.01218,-0.20714c0.08125,0.26402 0.15635,0.53611 0.22541,0.81636c0.0731,0.28024 0.10966,0.56048 0.10966,0.84072c0,0.22336 -0.03861,0.38176 -0.11575,0.47519c-0.07715,0.08934 -0.18681,0.13403 -0.32898,0.13403c-0.12184,0 -0.21932,-0.03451 -0.29243,-0.10356c-0.0731,-0.06907 -0.12589,-0.197 -0.1584,-0.38381c-0.03251,-0.18277 -0.05888,-0.41023 -0.0792,-0.68233c-0.02033,-0.2762 -0.03046,-0.56657 -0.03046,-0.87118c0,-0.36149 0.01623,-0.71279 0.04874,-1.05395c0.03251,-0.34116 0.07516,-0.63359 0.12794,-0.87728c0.0406,-0.19091 0.09953,-0.33103 0.17668,-0.42037c0.07715,-0.08934 0.17872,-0.13403 0.30461,-0.13403zM223.03515,182.83012c-0.13807,0 -0.2335,-0.05278 -0.28633,-0.1584c-0.04874,-0.10966 -0.07715,-0.2823 -0.08529,-0.51784l0.06092,0.03046c-0.22741,0.44268 -0.65796,0.66406 -1.29155,0.66406c-0.28833,0 -0.52798,-0.05079 -0.71888,-0.15231c-0.19086,-0.10562 -0.33303,-0.24369 -0.42646,-0.41428c-0.08934,-0.17462 -0.13403,-0.36349 -0.13403,-0.56657c0,-0.34931 0.12184,-0.62545 0.36553,-0.82854c0.24369,-0.20714 0.56657,-0.3107 0.96867,-0.3107c0.26402,0 0.49347,0.03861 0.68842,0.11575c0.19495,0.07715 0.36149,0.18481 0.49956,0.32289l-0.10356,-0.01218c-0.02842,-0.41023 -0.11774,-0.70265 -0.26806,-0.87728c-0.14622,-0.17872 -0.35534,-0.26806 -0.62749,-0.26806c-0.1584,0 -0.30461,0.02437 -0.43864,0.0731c-0.13403,0.04874 -0.25787,0.09953 -0.37162,0.15231c-0.10966,0.04874 -0.21323,0.0731 -0.3107,0.0731c-0.09747,0 -0.17462,-0.03251 -0.23151,-0.09747c-0.05278,-0.06497 -0.0792,-0.14826 -0.0792,-0.24978c0,-0.14622 0.06907,-0.28429 0.20714,-0.41428c0.14217,-0.12999 0.32898,-0.23554 0.56048,-0.31679c0.23151,-0.08125 0.48333,-0.12184 0.75544,-0.12184c0.32898,0 0.61127,0.0792 0.84682,0.2376c0.2356,0.1584 0.41428,0.38991 0.53611,0.69452c0.10562,0.25992 0.18078,0.55035 0.22541,0.87118c0.0447,0.32084 0.06701,0.66406 0.06701,1.02959c0,0.2762 -0.01418,0.48942 -0.04264,0.63968c-0.02842,0.15026 -0.0731,0.25587 -0.13403,0.31679c-0.05682,0.05688 -0.13403,0.08529 -0.23151,0.08529zM221.68876,182.14778c0.13403,0 0.27011,-0.01828 0.40818,-0.05483c0.13813,-0.0406 0.25388,-0.09953 0.34725,-0.17668c0.09343,-0.07715 0.14013,-0.17263 0.14013,-0.28633c0,-0.09747 -0.0406,-0.17668 -0.12184,-0.2376c-0.07715,-0.06497 -0.18072,-0.1137 -0.3107,-0.14622c-0.12589,-0.03251 -0.26197,-0.04874 -0.40818,-0.04874c-0.24773,0 -0.43659,0.04264 -0.56657,0.12794c-0.12589,0.08529 -0.18886,0.19899 -0.18886,0.34116c0,0.15435 0.05893,0.27415 0.17668,0.35944c0.12184,0.08125 0.29652,0.12184 0.52393,0.12184zM224.60074,178.99201c0.10966,0 0.20105,0.06497 0.27415,0.19495c0.0731,0.12589 0.12383,0.32693 0.15231,0.60313l-0.12794,0.11575c0.0731,-0.28429 0.20913,-0.50161 0.40818,-0.65187c0.19899,-0.15026 0.43455,-0.22541 0.7067,-0.22541c0.25178,0 0.47519,0.06497 0.67015,0.19495c0.19495,0.12999 0.34725,0.32693 0.45692,0.59094c0.1137,0.25992 0.17059,0.5869 0.17059,0.98085c0,0.63763 -0.11575,1.10878 -0.34725,1.4134c-0.22746,0.30057 -0.53817,0.45083 -0.93211,0.45083c-0.28434,0 -0.50771,-0.06092 -0.67015,-0.18277c-0.1625,-0.12184 -0.2762,-0.27011 -0.34116,-0.44474l0.0731,-0.03655c0.03245,0.24369 0.05888,0.48533 0.0792,0.72498c0.02437,0.23554 0.03655,0.44268 0.03655,0.6214c0,0.18277 -0.03251,0.33712 -0.09747,0.46301c-0.06502,0.12589 -0.16859,0.18886 -0.3107,0.18886c-0.13813,0 -0.2417,-0.05278 -0.3107,-0.1584c-0.06907,-0.10562 -0.11985,-0.24574 -0.15231,-0.42037c-0.02437,-0.17872 -0.04874,-0.40818 -0.0731,-0.68842c-0.02437,-0.28024 -0.0447,-0.58281 -0.06092,-0.90775c-0.01218,-0.32494 -0.01828,-0.64173 -0.01828,-0.95039c0,-0.31679 0.01014,-0.61327 0.03046,-0.88946c0.02437,-0.28024 0.05278,-0.50771 0.08529,-0.68233c0.02842,-0.10152 0.06497,-0.17668 0.10966,-0.22541c0.04874,-0.05278 0.11165,-0.0792 0.18886,-0.0792zM225.76435,179.72917c-0.21932,0 -0.396,0.10966 -0.53002,0.32898c-0.12999,0.21527 -0.19495,0.49142 -0.19495,0.82854c0,0.34521 0.06497,0.60313 0.19495,0.77371c0.13403,0.17059 0.3066,0.25587 0.51784,0.25587c0.24369,0 0.41831,-0.09543 0.52393,-0.28633c0.10966,-0.19495 0.16449,-0.44678 0.16449,-0.75544c0,-0.39395 -0.06701,-0.68233 -0.20105,-0.86509c-0.13403,-0.18681 -0.29243,-0.28024 -0.47519,-0.28024zM230.67015,182.73264c-0.10966,0 -0.19495,-0.03655 -0.25587,-0.10966c-0.05688,-0.07715 -0.09543,-0.17462 -0.11575,-0.29243c-0.02033,-0.12184 -0.03046,-0.24978 -0.03046,-0.38381l0.03046,-0.02437c-0.0406,0.17462 -0.1198,0.32494 -0.2376,0.45083c-0.1178,0.12589 -0.25382,0.22336 -0.40818,0.29243c-0.15435,0.06497 -0.30866,0.09747 -0.46301,0.09747c-0.20714,0 -0.396,-0.04874 -0.56657,-0.14622c-0.17059,-0.09747 -0.30257,-0.24773 -0.396,-0.45083c-0.09343,-0.21527 -0.16654,-0.48533 -0.21932,-0.81026c-0.05278,-0.32898 -0.0792,-0.6661 -0.0792,-1.01131c0,-0.18681 0.00815,-0.35944 0.02437,-0.51784c0.01623,-0.1584 0.04264,-0.28839 0.0792,-0.38991c0.03251,-0.10562 0.08125,-0.18277 0.14622,-0.23151c0.06497,-0.05278 0.14826,-0.0792 0.24978,-0.0792c0.1178,0 0.20918,0.04669 0.27415,0.14013c0.06907,0.08934 0.11171,0.21527 0.12794,0.37772c0.01623,0.13403 0.02642,0.30057 0.03046,0.49956c0.00815,0.19495 0.01424,0.39195 0.01828,0.59094c0.00815,0.19495 0.01828,0.35944 0.03046,0.49347c0.02437,0.24369 0.08734,0.42441 0.18886,0.54221c0.10152,0.1137 0.22541,0.17059 0.37162,0.17059c0.21527,0 0.37977,-0.08125 0.49347,-0.24369c0.1137,-0.16244 0.17059,-0.38991 0.17059,-0.68233c0,-0.14622 -0.00815,-0.3107 -0.02437,-0.49347c-0.01623,-0.18681 -0.03451,-0.36758 -0.05483,-0.54221c-0.01623,-0.17462 -0.02437,-0.31885 -0.02437,-0.43255c0,-0.19091 0.03251,-0.32693 0.09747,-0.40818c0.06497,-0.08529 0.15435,-0.12794 0.26806,-0.12794c0.09747,0 0.17872,0.02642 0.24369,0.0792c0.06907,0.05278 0.12389,0.12589 0.16449,0.21932c0.05688,0.12184 0.10562,0.28839 0.14622,0.49956c0.0406,0.21118 0.0731,0.45083 0.09747,0.71888c0.02437,0.26806 0.03655,0.55035 0.03655,0.84682c0,0.45487 -0.03046,0.79604 -0.09138,1.02349c-0.06092,0.22336 -0.16853,0.33507 -0.32289,0.33507zM233.36684,178.95546c0.36149,0 0.6214,0.05278 0.7798,0.1584c0.1584,0.10562 0.2376,0.24164 0.2376,0.40818c0,0.09747 -0.03451,0.17872 -0.10356,0.24369c-0.06497,0.06092 -0.1584,0.09138 -0.28024,0.09138c-0.12589,0 -0.25787,-0.01828 -0.396,-0.05483c-0.13403,-0.03655 -0.29038,-0.05483 -0.4691,-0.05483c-0.20714,0 -0.36143,0.0406 -0.46301,0.12184c-0.10152,0.08125 -0.15231,0.18481 -0.15231,0.3107c0,0.1178 0.0447,0.21118 0.13403,0.28024c0.09343,0.06497 0.27011,0.1137 0.53002,0.14622c0.28839,0.03251 0.52598,0.08529 0.71279,0.1584c0.19091,0.06907 0.33307,0.17462 0.42646,0.31679c0.09343,0.13807 0.14013,0.32898 0.14013,0.57267c0,0.38586 -0.13602,0.67219 -0.40818,0.859c-0.27211,0.18681 -0.64777,0.28024 -1.12706,0.28024c-0.30461,0 -0.54625,-0.02437 -0.72498,-0.0731c-0.17867,-0.04874 -0.30866,-0.1178 -0.38991,-0.20714c-0.07715,-0.08934 -0.11575,-0.19495 -0.11575,-0.31679c0,-0.10562 0.03456,-0.18681 0.10356,-0.24369c0.0731,-0.06092 0.1584,-0.09138 0.25587,-0.09138c0.09343,0 0.19296,0.01218 0.29852,0.03655c0.10562,0.02033 0.21733,0.04264 0.33507,0.06701c0.1178,0.02437 0.23964,0.03655 0.36553,0.03655c0.40619,0 0.60922,-0.12589 0.60922,-0.37772c0,-0.08529 -0.02027,-0.15435 -0.06092,-0.20714c-0.0406,-0.05278 -0.1137,-0.09543 -0.21932,-0.12794c-0.10556,-0.03655 -0.25992,-0.06497 -0.46301,-0.08529c-0.24369,-0.02437 -0.45487,-0.06497 -0.63359,-0.12184c-0.17867,-0.06092 -0.31679,-0.1584 -0.41428,-0.29243c-0.09747,-0.13807 -0.14622,-0.32693 -0.14622,-0.56657c0,-0.37772 0.14217,-0.68233 0.42646,-0.91384c0.28434,-0.23554 0.68842,-0.35335 1.21236,-0.35335zM238.03581,179.15042c-0.19091,0.05688 -0.36758,0.10152 -0.53002,0.13403c-0.1625,0.02842 -0.3148,0.04264 -0.45692,0.04264c-0.12999,0 -0.23151,-0.02642 -0.30461,-0.0792c-0.0731,-0.05278 -0.10966,-0.13198 -0.10966,-0.2376c0,-0.08934 0.03046,-0.17462 0.09138,-0.25587c0.06092,-0.08125 0.1543,-0.15435 0.28024,-0.21932c0.15026,-0.0731 0.34116,-0.13403 0.57267,-0.18277c0.23151,-0.04874 0.50156,-0.0731 0.81026,-0.0731c0.20714,0 0.38785,0.01424 0.54221,0.04264c0.1543,0.02437 0.27614,0.05483 0.36553,0.09138c0.11774,0.04874 0.19899,0.10562 0.24369,0.17059c0.04874,0.06092 0.0731,0.13198 0.0731,0.21323c0,0.10152 -0.03655,0.18481 -0.10966,0.24978c-0.0731,0.06497 -0.19091,0.09747 -0.35335,0.09747c-0.09747,0 -0.19905,-0.00609 -0.30461,-0.01828c-0.10157,-0.01218 -0.20918,-0.02842 -0.32289,-0.04874zM238.45618,178.82143c0.20714,0.25992 0.36752,0.56254 0.48129,0.90775c0.11774,0.34116 0.17668,0.69855 0.17668,1.07223c0,0.38991 -0.05483,0.7392 -0.16449,1.04786c-0.10562,0.30461 -0.2762,0.54625 -0.51175,0.72498c-0.2356,0.17462 -0.5483,0.26197 -0.93821,0.26197c-0.47929,0 -0.83873,-0.13403 -1.07832,-0.40209c-0.23964,-0.26806 -0.35944,-0.63564 -0.35944,-1.10269c0,-0.22746 0.02842,-0.42037 0.08529,-0.57876c0.06092,-0.1584 0.14013,-0.2782 0.2376,-0.35944c0.09747,-0.08529 0.20304,-0.12794 0.31679,-0.12794c0.10556,0 0.18476,0.03251 0.2376,0.09747c0.05682,0.06092 0.08529,0.14826 0.08529,0.26197c0,0.09343 -0.01628,0.197 -0.04874,0.3107c-0.02847,0.10966 -0.04264,0.21727 -0.04264,0.32289c0,0.27211 0.04669,0.47115 0.14013,0.59703c0.09747,0.12184 0.25178,0.18277 0.46301,0.18277c0.28024,0 0.47719,-0.1137 0.59094,-0.34116c0.11774,-0.23151 0.17668,-0.54625 0.17668,-0.9443c0,-0.28839 -0.03046,-0.57062 -0.09138,-0.84682c-0.06092,-0.2762 -0.1584,-0.55844 -0.29243,-0.84682zM242.78132,182.83012c-0.13807,0 -0.2335,-0.05278 -0.28633,-0.1584c-0.04874,-0.10966 -0.07715,-0.2823 -0.08529,-0.51784l0.06092,0.03046c-0.22741,0.44268 -0.65796,0.66406 -1.29155,0.66406c-0.28833,0 -0.52798,-0.05079 -0.71888,-0.15231c-0.19086,-0.10562 -0.33303,-0.24369 -0.42646,-0.41428c-0.08934,-0.17462 -0.13403,-0.36349 -0.13403,-0.56657c0,-0.34931 0.12184,-0.62545 0.36553,-0.82854c0.24369,-0.20714 0.56657,-0.3107 0.96867,-0.3107c0.26402,0 0.49347,0.03861 0.68842,0.11575c0.19495,0.07715 0.36149,0.18481 0.49956,0.32289l-0.10356,-0.01218c-0.02842,-0.41023 -0.11774,-0.70265 -0.26806,-0.87728c-0.14622,-0.17872 -0.35534,-0.26806 -0.62749,-0.26806c-0.1584,0 -0.30461,0.02437 -0.43864,0.0731c-0.13403,0.04874 -0.25787,0.09953 -0.37162,0.15231c-0.10966,0.04874 -0.21323,0.0731 -0.3107,0.0731c-0.09747,0 -0.17462,-0.03251 -0.23151,-0.09747c-0.05278,-0.06497 -0.0792,-0.14826 -0.0792,-0.24978c0,-0.14622 0.06907,-0.28429 0.20714,-0.41428c0.14217,-0.12999 0.32898,-0.23554 0.56048,-0.31679c0.23151,-0.08125 0.48333,-0.12184 0.75544,-0.12184c0.32898,0 0.61127,0.0792 0.84682,0.2376c0.2356,0.1584 0.41428,0.38991 0.53611,0.69452c0.10562,0.25992 0.18078,0.55035 0.22541,0.87118c0.0447,0.32084 0.06701,0.66406 0.06701,1.02959c0,0.2762 -0.01418,0.48942 -0.04264,0.63968c-0.02842,0.15026 -0.0731,0.25587 -0.13403,0.31679c-0.05682,0.05688 -0.13403,0.08529 -0.23151,0.08529zM241.43494,182.14778c0.13403,0 0.27011,-0.01828 0.40818,-0.05483c0.13813,-0.0406 0.25388,-0.09953 0.34725,-0.17668c0.09343,-0.07715 0.14013,-0.17263 0.14013,-0.28633c0,-0.09747 -0.0406,-0.17668 -0.12184,-0.2376c-0.07715,-0.06497 -0.18072,-0.1137 -0.3107,-0.14622c-0.12589,-0.03251 -0.26197,-0.04874 -0.40818,-0.04874c-0.24773,0 -0.43659,0.04264 -0.56657,0.12794c-0.12589,0.08529 -0.18886,0.19899 -0.18886,0.34116c0,0.15435 0.05893,0.27415 0.17668,0.35944c0.12184,0.08125 0.29652,0.12184 0.52393,0.12184zM243.71332,180.29575c0,-0.42241 0.04874,-0.72702 0.14622,-0.91384c0.10152,-0.18681 0.23355,-0.28024 0.396,-0.28024c0.09343,0 0.16449,0.03451 0.21323,0.10356c0.05278,0.06497 0.08934,0.15435 0.10966,0.26806c0.02033,0.10966 0.03046,0.23355 0.03046,0.37162c0,0.17462 0,0.37977 0,0.61531c0.00404,0.23151 0.00815,0.47115 0.01218,0.71888c0.00815,0.24369 0.01623,0.47115 0.02437,0.68233h0.02437c0.12589,-0.53208 0.25183,-0.96867 0.37772,-1.30983c0.12999,-0.34116 0.26197,-0.593 0.396,-0.75544c0.13807,-0.16654 0.2762,-0.24978 0.41428,-0.24978c0.15026,0 0.29243,0.08324 0.42646,0.24978c0.13807,0.16244 0.27211,0.41023 0.40209,0.74325c0.13403,0.33303 0.27011,0.75338 0.40818,1.26109h0.02437c0.01218,-0.34931 0.02033,-0.71683 0.02437,-1.10269c0.00404,-0.38586 0.00609,-0.7392 0.00609,-1.06005c0,-0.23151 0.03861,-0.40209 0.11575,-0.51175c0.07715,-0.10966 0.18481,-0.16449 0.32289,-0.16449c0.17462,0 0.30057,0.09138 0.37772,0.27415c0.08125,0.17872 0.12184,0.42037 0.12184,0.72498c0,0.22336 -0.01218,0.46301 -0.03655,0.71888c-0.02033,0.25183 -0.05079,0.49552 -0.09138,0.73107c-0.0406,0.23554 -0.08934,0.44069 -0.14622,0.61531c-0.08529,0.25992 -0.18072,0.45692 -0.28633,0.59094c-0.10152,0.13403 -0.23554,0.20105 -0.40209,0.20105c-0.15026,0 -0.30057,-0.08734 -0.45083,-0.26197c-0.14622,-0.17872 -0.28429,-0.44474 -0.41428,-0.79808c-0.12999,-0.35335 -0.24978,-0.79404 -0.35944,-1.32201h-0.02437c-0.10562,0.5036 -0.23151,0.92602 -0.37772,1.26718c-0.14217,0.33712 -0.29448,0.59094 -0.45692,0.76153c-0.1584,0.17059 -0.31679,0.25587 -0.47519,0.25587c-0.16654,0 -0.30666,-0.07516 -0.42037,-0.22541c-0.10966,-0.15026 -0.20105,-0.38176 -0.27415,-0.69452c-0.03251,-0.1584 -0.06092,-0.32693 -0.08529,-0.50565c-0.02437,-0.18277 -0.04264,-0.36149 -0.05483,-0.53611c-0.01218,-0.17462 -0.01828,-0.32898 -0.01828,-0.46301zM251.27117,182.83012c-0.13807,0 -0.2335,-0.05278 -0.28633,-0.1584c-0.04874,-0.10966 -0.07715,-0.2823 -0.08529,-0.51784l0.06092,0.03046c-0.22741,0.44268 -0.65796,0.66406 -1.29155,0.66406c-0.28833,0 -0.52798,-0.05079 -0.71888,-0.15231c-0.19086,-0.10562 -0.33303,-0.24369 -0.42646,-0.41428c-0.08934,-0.17462 -0.13403,-0.36349 -0.13403,-0.56657c0,-0.34931 0.12184,-0.62545 0.36553,-0.82854c0.24369,-0.20714 0.56657,-0.3107 0.96867,-0.3107c0.26402,0 0.49347,0.03861 0.68842,0.11575c0.19495,0.07715 0.36149,0.18481 0.49956,0.32289l-0.10356,-0.01218c-0.02842,-0.41023 -0.11774,-0.70265 -0.26806,-0.87728c-0.14622,-0.17872 -0.35534,-0.26806 -0.62749,-0.26806c-0.1584,0 -0.30461,0.02437 -0.43864,0.0731c-0.13403,0.04874 -0.25787,0.09953 -0.37162,0.15231c-0.10966,0.04874 -0.21323,0.0731 -0.3107,0.0731c-0.09747,0 -0.17462,-0.03251 -0.23151,-0.09747c-0.05278,-0.06497 -0.0792,-0.14826 -0.0792,-0.24978c0,-0.14622 0.06907,-0.28429 0.20714,-0.41428c0.14217,-0.12999 0.32898,-0.23554 0.56048,-0.31679c0.23151,-0.08125 0.48333,-0.12184 0.75544,-0.12184c0.32898,0 0.61127,0.0792 0.84682,0.2376c0.2356,0.1584 0.41428,0.38991 0.53611,0.69452c0.10562,0.25992 0.18078,0.55035 0.22541,0.87118c0.0447,0.32084 0.06701,0.66406 0.06701,1.02959c0,0.2762 -0.01418,0.48942 -0.04264,0.63968c-0.02842,0.15026 -0.0731,0.25587 -0.13403,0.31679c-0.05682,0.05688 -0.13403,0.08529 -0.23151,0.08529zM249.92479,182.14778c0.13403,0 0.27011,-0.01828 0.40818,-0.05483c0.13813,-0.0406 0.25388,-0.09953 0.34725,-0.17668c0.09343,-0.07715 0.14013,-0.17263 0.14013,-0.28633c0,-0.09747 -0.0406,-0.17668 -0.12184,-0.2376c-0.07715,-0.06497 -0.18072,-0.1137 -0.3107,-0.14622c-0.12589,-0.03251 -0.26197,-0.04874 -0.40818,-0.04874c-0.24773,0 -0.43659,0.04264 -0.56657,0.12794c-0.12589,0.08529 -0.18886,0.19899 -0.18886,0.34116c0,0.15435 0.05893,0.27415 0.17668,0.35944c0.12184,0.08125 0.29652,0.12184 0.52393,0.12184zM252.8855,182.83012c-0.08934,0 -0.16244,-0.03046 -0.21932,-0.09138c-0.05278,-0.06092 -0.09543,-0.14826 -0.12794,-0.26197c-0.03251,-0.16654 -0.06092,-0.38381 -0.08529,-0.65187c-0.02033,-0.27211 -0.03046,-0.56254 -0.03046,-0.87118c0,-0.17462 0.00404,-0.37162 0.01218,-0.59094c0.00815,-0.21932 0.01828,-0.44069 0.03046,-0.66406c0.01623,-0.22746 0.03251,-0.43864 0.04874,-0.63359c0.02033,-0.19495 0.0406,-0.35335 0.06092,-0.47519c0.03251,-0.17872 0.0792,-0.31885 0.14013,-0.42037c0.06497,-0.10562 0.16654,-0.1584 0.30461,-0.1584c0.14217,0 0.24574,0.05483 0.3107,0.16449c0.06497,0.10562 0.09747,0.2376 0.09747,0.396c0,0.17872 -0.01424,0.38991 -0.04264,0.63359c-0.02437,0.24369 -0.06297,0.49142 -0.11575,0.74325l-0.12184,0.14622c0.0447,-0.17059 0.1178,-0.32693 0.21932,-0.4691c0.10152,-0.14217 0.22945,-0.25382 0.38381,-0.33507c0.15435,-0.08529 0.33303,-0.12794 0.53611,-0.12794c0.39804,0 0.71484,0.14217 0.95039,0.42646c0.23964,0.28024 0.35944,0.71888 0.35944,1.31592c0,0.41831 -0.06297,0.76762 -0.18886,1.04786c-0.12184,0.28024 -0.29038,0.49142 -0.50565,0.63359c-0.21118,0.13807 -0.45287,0.20714 -0.72498,0.20714c-0.25587,0 -0.47724,-0.07516 -0.66406,-0.22541c-0.18277,-0.15026 -0.30057,-0.36758 -0.35335,-0.65187l0.08529,0.06701c-0.01623,0.29243 -0.05688,0.50771 -0.12184,0.64578c-0.06092,0.13403 -0.14013,0.20105 -0.2376,0.20105zM254.00038,182.08686c0.20309,0 0.38176,-0.09138 0.53611,-0.27415c0.15435,-0.18277 0.23151,-0.4691 0.23151,-0.859c0,-0.32494 -0.06092,-0.5889 -0.18277,-0.79199c-0.1178,-0.20309 -0.31679,-0.30461 -0.59703,-0.30461c-0.22746,0 -0.41023,0.09138 -0.5483,0.27415c-0.13807,0.17872 -0.20714,0.45083 -0.20714,0.81636c0,0.33303 0.06907,0.60717 0.20714,0.82245c0.13807,0.21118 0.32494,0.31679 0.56048,0.31679zM258.8746,182.83012c-0.13813,0 -0.23355,-0.05278 -0.28633,-0.1584c-0.04874,-0.10966 -0.0772,-0.2823 -0.08529,-0.51784l0.06092,0.03046c-0.22746,0.44268 -0.65796,0.66406 -1.29155,0.66406c-0.28839,0 -0.52803,-0.05079 -0.71888,-0.15231c-0.19091,-0.10562 -0.33307,-0.24369 -0.42646,-0.41428c-0.08939,-0.17462 -0.13403,-0.36349 -0.13403,-0.56657c0,-0.34931 0.12184,-0.62545 0.36553,-0.82854c0.24369,-0.20714 0.56657,-0.3107 0.96867,-0.3107c0.26396,0 0.49347,0.03861 0.68842,0.11575c0.19495,0.07715 0.36143,0.18481 0.49956,0.32289l-0.10356,-0.01218c-0.02847,-0.41023 -0.1178,-0.70265 -0.26806,-0.87728c-0.14622,-0.17872 -0.3554,-0.26806 -0.62749,-0.26806c-0.1584,0 -0.30461,0.02437 -0.43864,0.0731c-0.13403,0.04874 -0.25793,0.09953 -0.37162,0.15231c-0.10966,0.04874 -0.21323,0.0731 -0.3107,0.0731c-0.09747,0 -0.17468,-0.03251 -0.23151,-0.09747c-0.05283,-0.06497 -0.0792,-0.14826 -0.0792,-0.24978c0,-0.14622 0.06901,-0.28429 0.20714,-0.41428c0.14212,-0.12999 0.32898,-0.23554 0.56048,-0.31679c0.23151,-0.08125 0.48328,-0.12184 0.75544,-0.12184c0.32898,0 0.61121,0.0792 0.84682,0.2376c0.23554,0.1584 0.41428,0.38991 0.53611,0.69452c0.10556,0.25992 0.18072,0.55035 0.22541,0.87118c0.04464,0.32084 0.06701,0.66406 0.06701,1.02959c0,0.2762 -0.01424,0.48942 -0.04264,0.63968c-0.02847,0.15026 -0.0731,0.25587 -0.13403,0.31679c-0.05688,0.05688 -0.13403,0.08529 -0.23151,0.08529zM257.52822,182.14778c0.13403,0 0.27005,-0.01828 0.40818,-0.05483c0.13807,-0.0406 0.25382,-0.09953 0.34725,-0.17668c0.09337,-0.07715 0.14013,-0.17263 0.14013,-0.28633c0,-0.09747 -0.04065,-0.17668 -0.12184,-0.2376c-0.0772,-0.06497 -0.18078,-0.1137 -0.3107,-0.14622c-0.12595,-0.03251 -0.26197,-0.04874 -0.40818,-0.04874c-0.24779,0 -0.43665,0.04264 -0.56657,0.12794c-0.12595,0.08529 -0.18886,0.19899 -0.18886,0.34116c0,0.15435 0.05888,0.27415 0.17668,0.35944c0.12184,0.08125 0.29647,0.12184 0.52393,0.12184zM260.64728,178.97983c0.12999,0 0.2175,0.05278 0.2618,0.1584c0.04874,0.10562 0.0731,0.26197 0.0731,0.4691c0,0.04874 -0.00388,0.10152 -0.01218,0.1584c-0.00388,0.05278 -0.01218,0.10152 -0.02437,0.14622l-0.01218,-0.12184c0.09747,-0.26402 0.24812,-0.4691 0.45083,-0.61531c0.20326,-0.15026 0.4187,-0.22541 0.64578,-0.22541c0.25199,0 0.46134,0.07106 0.62749,0.21323c0.17059,0.14217 0.29686,0.34116 0.37772,0.59703c0.08529,0.25587 0.12794,0.55844 0.12794,0.90775c0,0.21527 -0.00997,0.4285 -0.03046,0.63968c-0.01606,0.20714 -0.04043,0.39804 -0.0731,0.57267c-0.02825,0.17059 -0.06092,0.3107 -0.09747,0.42037c-0.04874,0.13807 -0.11132,0.24164 -0.18886,0.3107c-0.07698,0.06497 -0.16836,0.09747 -0.27415,0.09747c-0.10523,0 -0.18664,-0.03861 -0.24369,-0.11575c-0.05649,-0.07715 -0.08529,-0.18072 -0.08529,-0.3107c0,-0.13807 0.01053,-0.30461 0.03046,-0.49956c0.02049,-0.19899 0.03876,-0.40004 0.05483,-0.60313c0.02049,-0.20714 0.03046,-0.39395 0.03046,-0.56048c0,-0.56863 -0.18664,-0.85291 -0.56048,-0.85291c-0.19883,0 -0.36553,0.08934 -0.49956,0.26806c-0.13403,0.17462 -0.2232,0.42441 -0.26806,0.74934c-0.01218,0.10966 -0.01828,0.24574 -0.01828,0.40818c0,0.16244 0,0.32494 0,0.48738c0.00444,0.1584 0,0.29243 -0.01218,0.40209c-0.01606,0.24369 -0.06259,0.41831 -0.14013,0.52393c-0.07295,0.10562 -0.17446,0.1584 -0.30444,0.1584c-0.15026,0 -0.26402,-0.06907 -0.34116,-0.20714c-0.07715,-0.14217 -0.11575,-0.37977 -0.11575,-0.71279c0,-0.17059 0.00404,-0.36149 0.01218,-0.57267c0.00815,-0.21118 0.01828,-0.42241 0.03046,-0.63359c0.01623,-0.21527 0.03451,-0.41023 0.05483,-0.58485c0.0406,-0.32898 0.09953,-0.5889 0.17668,-0.7798c0.07715,-0.19495 0.1929,-0.29243 0.34725,-0.29243z" fill="#000000" stroke="none"/></g></g></svg>