<svg version="1.1" xmlns="http://www.w3.org/2000/svg" xmlns:xlink="http://www.w3.org/1999/xlink" width="80.73726" height="11.46595" viewBox="0,0,80.73726,11.46595"><g transform="translate(-199.63137,-174.26702)"><g fill="#000000" stroke="none" stroke-miterlimit="10"><path d="M201.87728,183.47524c-0.48858,0 -0.89442,-0.0906 -1.21751,-0.27188c-0.31521,-0.18913 -0.55163,-0.47679 -0.70923,-0.8629c-0.11033,-0.26793 -0.19307,-0.59102 -0.24823,-0.96929c-0.04728,-0.38614 -0.07093,-0.82744 -0.07093,-1.3239c0,-0.85108 0.02758,-1.55244 0.08274,-2.10406c0.05516,-0.55951 0.13396,-1.00869 0.23642,-1.34754c0.11033,-0.34674 0.23247,-0.62649 0.36644,-0.83926c0.21277,-0.3231 0.55163,-0.58315 1.01657,-0.78015c0.46494,-0.19701 1.12296,-0.29552 1.97403,-0.29552c0.56739,0 1.02051,0.08669 1.35936,0.26005c0.34674,0.16549 0.59497,0.38614 0.74469,0.66195c0.15761,0.27581 0.23642,0.58315 0.23642,0.92201c0,0.53587 -0.15761,0.97716 -0.47282,1.3239c-0.31521,0.34674 -0.72893,0.62255 -1.24115,0.82744v0.04728c0.55951,0.06305 0.99293,0.24428 1.30026,0.54374c0.31521,0.29157 0.47282,0.70923 0.47282,1.25298c0,0.43342 -0.11033,0.83139 -0.33098,1.19388c-0.21277,0.35462 -0.50434,0.6659 -0.87472,0.93383c-0.3625,0.26005 -0.77228,0.46497 -1.22934,0.61466c-0.45706,0.14185 -0.92201,0.21277 -1.39483,0.21277zM202.24372,182.05678c0.37826,0 0.71318,-0.06305 1.00475,-0.18913c0.29945,-0.12608 0.53192,-0.29552 0.69741,-0.50828c0.17336,-0.22065 0.26005,-0.46888 0.26005,-0.74469c0,-0.29945 -0.14579,-0.54769 -0.43736,-0.74469c-0.28369,-0.20489 -0.72893,-0.30734 -1.33572,-0.30734c-0.40977,0 -0.73682,0.0985 -0.98111,0.29552c-0.23642,0.18913 -0.35462,0.51616 -0.35462,0.98111c0,0.4413 0.09456,0.75652 0.28369,0.94564c0.18913,0.18125 0.47677,0.27188 0.8629,0.27188zM202.291,178.30967c0.53587,0 0.98111,-0.1182 1.33572,-0.35462c0.3625,-0.24428 0.54374,-0.55951 0.54374,-0.94564c0,-0.28369 -0.11426,-0.51223 -0.3428,-0.68559c-0.22853,-0.17336 -0.56345,-0.26005 -1.00475,-0.26005c-0.4807,0 -0.87472,0.09456 -1.18205,0.28369c-0.30734,0.18913 -0.461,0.51223 -0.461,0.96929c0,0.37038 0.0985,0.63043 0.29552,0.78015c0.20489,0.14185 0.47677,0.21277 0.81562,0.21277zM212.18345,183.53435c-0.26799,0 -0.45316,-0.10242 -0.55556,-0.30734c-0.09456,-0.21277 -0.14979,-0.54771 -0.16549,-1.00475l0.1182,0.0591c-0.44133,0.85893 -1.27661,1.28844 -2.50596,1.28844c-0.55954,0 -1.0245,-0.09854 -1.39483,-0.29552c-0.37041,-0.20491 -0.64622,-0.47282 -0.82747,-0.8038c-0.17336,-0.33885 -0.26005,-0.70529 -0.26005,-1.09931c0,-0.67772 0.23642,-1.21358 0.70927,-1.60759c0.47282,-0.4019 1.09931,-0.60285 1.87947,-0.60285c0.51217,0 0.95747,0.07487 1.33572,0.22459c0.37826,0.14972 0.7013,0.35855 0.96929,0.62649l-0.20095,-0.02364c-0.05522,-0.79592 -0.22856,-1.36331 -0.5201,-1.70216c-0.28369,-0.34674 -0.68956,-0.5201 -1.21751,-0.5201c-0.30734,0 -0.59102,0.04728 -0.85108,0.14185c-0.26005,0.09456 -0.50043,0.19307 -0.72105,0.29552c-0.21277,0.09456 -0.41372,0.14185 -0.60285,0.14185c-0.18916,0 -0.33889,-0.06305 -0.44921,-0.18913c-0.10244,-0.12608 -0.15367,-0.28764 -0.15367,-0.48464c0,-0.28369 0.13396,-0.55163 0.4019,-0.8038c0.27579,-0.25218 0.63835,-0.45706 1.08752,-0.61466c0.44918,-0.15761 0.9377,-0.23642 1.46575,-0.23642c0.63831,0 1.18594,0.15367 1.64306,0.461c0.45703,0.30734 0.8038,0.75652 1.04021,1.34754c0.20483,0.50434 0.35065,1.06779 0.43736,1.69034c0.08662,0.62255 0.13003,1.28844 0.13003,1.99767c0,0.53587 -0.02761,0.94958 -0.08274,1.24115c-0.05522,0.29155 -0.14185,0.49646 -0.26005,0.61466c-0.11035,0.11035 -0.26005,0.16549 -0.44918,0.16549zM209.57111,182.21045c0.26005,0 0.52399,-0.03546 0.79198,-0.10639c0.2679,-0.0788 0.49249,-0.19307 0.67377,-0.3428c0.18119,-0.14972 0.27188,-0.33492 0.27188,-0.55556c0,-0.18913 -0.07886,-0.3428 -0.23642,-0.461c-0.14979,-0.12608 -0.35073,-0.22065 -0.60285,-0.28369c-0.24435,-0.06305 -0.50828,-0.09456 -0.79198,-0.09456c-0.48076,0 -0.84719,0.08274 -1.09931,0.24823c-0.24435,0.16549 -0.36644,0.38614 -0.36644,0.66195c0,0.29945 0.11424,0.53192 0.3428,0.69741c0.23642,0.15761 0.57524,0.23642 1.01657,0.23642zM215.6229,176.06376c0.2522,0 0.42165,0.10244 0.50828,0.30734c0.09456,0.20489 0.14185,0.50828 0.14185,0.91018c0,0.09456 -0.00785,0.19701 -0.02364,0.30734c-0.00785,0.10244 -0.02364,0.19701 -0.04728,0.28369l-0.02364,-0.23642c0.18913,-0.51223 0.48076,-0.91018 0.87472,-1.19388c0.39405,-0.29157 0.81173,-0.43736 1.25298,-0.43736c0.48862,0 0.89448,0.13791 1.21751,0.41372c0.33098,0.27581 0.57533,0.66195 0.73288,1.15842c0.16549,0.49646 0.24823,1.08355 0.24823,1.76126c0,0.41766 -0.01968,0.83139 -0.0591,1.24115c-0.03149,0.4019 -0.07878,0.77228 -0.14185,1.11113c-0.05514,0.33098 -0.1182,0.60285 -0.18913,0.81562c-0.09456,0.2679 -0.21665,0.46885 -0.36644,0.60285c-0.1497,0.12606 -0.32701,0.18913 -0.53192,0.18913c-0.20483,0 -0.36247,-0.07489 -0.47282,-0.22459c-0.11027,-0.1497 -0.16549,-0.35065 -0.16549,-0.60285c0,-0.26793 0.01976,-0.59102 0.0591,-0.96929c0.03943,-0.38614 0.07489,-0.77621 0.10639,-1.17023c0.03943,-0.4019 0.0591,-0.76439 0.0591,-1.0875c0,-1.10326 -0.36247,-1.65488 -1.0875,-1.65488c-0.38611,0 -0.70923,0.17336 -0.96929,0.5201c-0.26005,0.33885 -0.43339,0.8235 -0.5201,1.45393c-0.02364,0.21277 -0.03546,0.47677 -0.03546,0.79198c0,0.31521 0,0.63043 0,0.94564c0.00793,0.30734 0,0.56739 -0.02364,0.78015c-0.03149,0.47282 -0.12208,0.81165 -0.27188,1.01657c-0.14185,0.20491 -0.33882,0.30734 -0.59102,0.30734c-0.29155,0 -0.51217,-0.13399 -0.66195,-0.4019c-0.1497,-0.27584 -0.22459,-0.73682 -0.22459,-1.383c0,-0.33098 0.00793,-0.70136 0.02364,-1.11113c0.01579,-0.40977 0.03546,-0.81956 0.0591,-1.22934c0.03157,-0.41766 0.06704,-0.79592 0.10639,-1.13477c0.07886,-0.63831 0.1931,-1.14265 0.3428,-1.51303c0.14979,-0.37826 0.37438,-0.56739 0.67377,-0.56739zM224.20133,183.22702c-0.74073,0 -1.34358,-0.28369 -1.80855,-0.85108c-0.46497,-0.57527 -0.69741,-1.44605 -0.69741,-2.61235c0,-1.2451 0.22459,-2.15529 0.67377,-2.73055c0.44918,-0.57527 1.04021,-0.8629 1.77308,-0.8629c0.43339,0 0.81562,0.11033 1.14659,0.33098c0.33098,0.22065 0.61466,0.53192 0.85108,0.93383l-0.09456,0.16549c-0.02364,-0.11033 -0.04332,-0.22853 -0.0591,-0.35462c-0.01579,-0.12608 -0.02364,-0.22065 -0.02364,-0.28369c0,-0.3231 0.05125,-0.57133 0.15367,-0.74469c0.11035,-0.18125 0.27972,-0.27188 0.50828,-0.27188c0.2522,0 0.44918,0.10244 0.59102,0.30734c0.1497,0.20489 0.26402,0.49646 0.3428,0.87472c0.10242,0.38614 0.18913,0.87867 0.26005,1.47757c0.07093,0.59102 0.10639,1.18994 0.10639,1.79672c0,0.75652 -0.02761,1.39088 -0.08274,1.90311c-0.05514,0.51226 -0.14581,0.93779 -0.27188,1.27661c-0.12606,0.33882 -0.29155,0.63434 -0.49646,0.88654c-0.33882,0.40975 -0.77619,0.72105 -1.31208,0.93383c-0.52795,0.22063 -1.13874,0.33098 -1.83219,0.33098c-0.49646,0 -0.89439,-0.04728 -1.19388,-0.14185c-0.29948,-0.08671 -0.51614,-0.2088 -0.65013,-0.36644c-0.12606,-0.1497 -0.18913,-0.31916 -0.18913,-0.50828c0,-0.19698 0.05514,-0.36247 0.16549,-0.49646c0.11035,-0.12606 0.27584,-0.18913 0.49646,-0.18913c0.19698,0 0.42554,0.03149 0.68559,0.09456c0.2679,0.06307 0.58317,0.09456 0.94564,0.09456c0.76437,0 1.30423,-0.18128 1.61942,-0.54374c0.32313,-0.35462 0.48464,-0.86687 0.48464,-1.53667c0,-0.18125 -0.01182,-0.39402 -0.03546,-0.63831l0.16549,0.0591c-0.19698,0.50434 -0.48862,0.91018 -0.87472,1.21751c-0.38611,0.29948 -0.83529,0.44918 -1.34754,0.44918zM224.65051,181.7731c0.2522,0 0.50431,-0.06698 0.75652,-0.20095c0.2522,-0.13396 0.461,-0.35462 0.62649,-0.66195c0.16549,-0.30734 0.24823,-0.72105 0.24823,-1.24115c0,-0.62255 -0.14581,-1.13083 -0.43736,-1.52485c-0.29155,-0.39402 -0.70138,-0.59102 -1.22934,-0.59102c-0.45703,0 -0.79198,0.17336 -1.00475,0.5201c-0.21277,0.34674 -0.31916,0.87077 -0.31916,1.57213c0,0.66983 0.10639,1.19388 0.31916,1.57213c0.21277,0.37038 0.55954,0.55556 1.04021,0.55556zM234.68532,183.34523c-0.21277,0 -0.37826,-0.07093 -0.49646,-0.21277c-0.11035,-0.1497 -0.18517,-0.33882 -0.22459,-0.56739c-0.03943,-0.23642 -0.0591,-0.48464 -0.0591,-0.74469l0.0591,-0.04728c-0.07878,0.33885 -0.23244,0.63043 -0.461,0.87472c-0.22856,0.24426 -0.49249,0.43339 -0.79198,0.56739c-0.29948,0.12606 -0.59888,0.18913 -0.89837,0.18913c-0.4019,0 -0.76834,-0.09456 -1.09931,-0.28369c-0.33098,-0.18913 -0.58706,-0.48067 -0.76834,-0.87472c-0.18128,-0.41766 -0.32313,-0.9417 -0.42554,-1.57213c-0.10242,-0.63831 -0.15367,-1.29238 -0.15367,-1.96221c0,-0.3625 0.01579,-0.69741 0.04728,-1.00475c0.03149,-0.30734 0.08274,-0.55951 0.15367,-0.75652c0.06307,-0.20489 0.15764,-0.35462 0.28369,-0.44918c0.12606,-0.10244 0.28767,-0.15367 0.48464,-0.15367c0.22856,0 0.40587,0.09062 0.53192,0.27188c0.13399,0.17336 0.21674,0.41766 0.24823,0.73288c0.03149,0.26005 0.05125,0.58315 0.0591,0.96929c0.01579,0.37826 0.02761,0.76046 0.03546,1.14659c0.01579,0.37826 0.03546,0.69741 0.0591,0.95747c0.04728,0.47282 0.16945,0.8235 0.36644,1.05203c0.19698,0.22065 0.43736,0.33098 0.72105,0.33098c0.41769,0 0.73684,-0.15761 0.95747,-0.47282c0.22063,-0.31521 0.33098,-0.75652 0.33098,-1.3239c0,-0.28369 -0.01579,-0.60285 -0.04728,-0.95747c-0.03149,-0.3625 -0.06695,-0.71318 -0.10639,-1.05203c-0.03149,-0.33885 -0.04728,-0.61861 -0.04728,-0.83926c0,-0.37038 0.06307,-0.63437 0.18913,-0.79198c0.12606,-0.16549 0.29948,-0.24823 0.5201,-0.24823c0.18913,0 0.34677,0.05123 0.47282,0.15367c0.13399,0.10244 0.24038,0.24428 0.31916,0.42554c0.11035,0.23642 0.20491,0.55951 0.28369,0.96929c0.07878,0.40977 0.14185,0.87472 0.18913,1.39483c0.04728,0.5201 0.07093,1.06779 0.07093,1.64306c0,0.8826 -0.0591,1.54455 -0.17731,1.98585c-0.1182,0.43339 -0.32701,0.65013 -0.62649,0.65013zM238.13278,176.06376c0.2522,0 0.42157,0.10244 0.50828,0.30734c0.09456,0.20489 0.14185,0.50828 0.14185,0.91018c0,0.09456 -0.00785,0.19701 -0.02364,0.30734c-0.00785,0.10244 -0.02364,0.19701 -0.04728,0.28369l-0.02364,-0.23642c0.18913,-0.51223 0.48067,-0.91018 0.87472,-1.19388c0.39405,-0.29157 0.81165,-0.43736 1.25298,-0.43736c0.48862,0 0.89439,0.13791 1.21751,0.41372c0.33098,0.27581 0.57524,0.66195 0.73288,1.15842c0.16549,0.49646 0.24823,1.08355 0.24823,1.76126c0,0.41766 -0.01968,0.83139 -0.0591,1.24115c-0.03149,0.4019 -0.07878,0.77228 -0.14185,1.11113c-0.05514,0.33098 -0.1182,0.60285 -0.18913,0.81562c-0.09456,0.2679 -0.21674,0.46885 -0.36644,0.60285c-0.1497,0.12606 -0.32701,0.18913 -0.53192,0.18913c-0.20491,0 -0.36247,-0.07489 -0.47282,-0.22459c-0.11035,-0.1497 -0.16549,-0.35065 -0.16549,-0.60285c0,-0.26793 0.01968,-0.59102 0.0591,-0.96929c0.03943,-0.38614 0.07489,-0.77621 0.10639,-1.17023c0.03943,-0.4019 0.0591,-0.76439 0.0591,-1.0875c0,-1.10326 -0.36247,-1.65488 -1.0875,-1.65488c-0.38611,0 -0.70923,0.17336 -0.96929,0.5201c-0.26005,0.33885 -0.43339,0.8235 -0.5201,1.45393c-0.02364,0.21277 -0.03546,0.47677 -0.03546,0.79198c0,0.31521 0,0.63043 0,0.94564c0.00785,0.30734 0,0.56739 -0.02364,0.78015c-0.03149,0.47282 -0.12217,0.81165 -0.27188,1.01657c-0.14185,0.20491 -0.33882,0.30734 -0.59102,0.30734c-0.29155,0 -0.51226,-0.13399 -0.66195,-0.4019c-0.1497,-0.27584 -0.22459,-0.73682 -0.22459,-1.383c0,-0.33098 0.00785,-0.70136 0.02364,-1.11113c0.01579,-0.40977 0.03546,-0.81956 0.0591,-1.22934c0.03149,-0.41766 0.06695,-0.79592 0.10639,-1.13477c0.07878,-0.63831 0.1931,-1.14265 0.3428,-1.51303c0.1497,-0.37826 0.37429,-0.56739 0.67377,-0.56739zM248.47474,183.68802c-0.49646,0 -0.88258,-0.03149 -1.15842,-0.09456c-0.2679,-0.06307 -0.45316,-0.1497 -0.55556,-0.26005c-0.10242,-0.1182 -0.15764,-0.24823 -0.16549,-0.39008c0,-0.22063 0.13003,-0.40584 0.39008,-0.55556c0.2679,-0.14972 0.75652,-0.24428 1.46575,-0.28369l-0.18913,0.22459c-0.08671,-0.4019 -0.1497,-0.87077 -0.18913,-1.40664c-0.03943,-0.53587 -0.05514,-1.09143 -0.04728,-1.6667c0.00785,-0.57527 0.03546,-1.12296 0.08274,-1.64306c0.04728,-0.52799 0.11424,-0.97716 0.20095,-1.34754l1.02839,-0.07093c-0.17334,0.07093 -0.39008,0.13396 -0.65013,0.18913c-0.26005,0.04728 -0.52795,0.07093 -0.8038,0.07093c-0.50431,0 -0.87869,-0.05516 -1.12296,-0.16549c-0.23642,-0.11033 -0.35462,-0.26399 -0.35462,-0.461c0,-0.34674 0.2088,-0.61466 0.62649,-0.8038c0.42554,-0.19701 1.07567,-0.29552 1.95039,-0.29552c1.04021,0 1.91493,0.17336 2.62416,0.5201c0.71709,0.33885 1.26083,0.81562 1.63123,1.43029c0.37041,0.60679 0.55556,1.31602 0.55556,2.12769c0,0.70923 -0.12606,1.36331 -0.37826,1.96221c-0.2522,0.59102 -0.61466,1.10719 -1.0875,1.54849c-0.46497,0.43339 -1.02442,0.7723 -1.67852,1.01657c-0.64616,0.23642 -1.37118,0.35462 -2.17498,0.35462zM250.15326,181.86765c0.2679,0 0.5516,-0.10639 0.85108,-0.31916c0.30734,-0.22065 0.56739,-0.5398 0.78015,-0.95747c0.21277,-0.42554 0.31916,-0.94958 0.31916,-1.57213c0,-0.45706 -0.06695,-0.85502 -0.20095,-1.19388c-0.12606,-0.34674 -0.29155,-0.63437 -0.49646,-0.8629c-0.20491,-0.22853 -0.42157,-0.39796 -0.65013,-0.50828c-0.22856,-0.1182 -0.44521,-0.17731 -0.65013,-0.17731c-0.16549,0 -0.29552,0.10244 -0.39008,0.30734c-0.08671,0.20489 -0.1497,0.51223 -0.18913,0.92201c-0.03943,0.4019 -0.0591,0.9023 -0.0591,1.50121c0,0.92988 0.04728,1.63911 0.14185,2.12769c0.09456,0.48858 0.27584,0.73288 0.54374,0.73288zM260.26212,183.53435c-0.2679,0 -0.45306,-0.10242 -0.55556,-0.30734c-0.09456,-0.21277 -0.1497,-0.54771 -0.16549,-1.00475l0.1182,0.0591c-0.44124,0.85893 -1.27661,1.28844 -2.50596,1.28844c-0.55945,0 -1.02442,-0.09854 -1.39483,-0.29552c-0.37032,-0.20491 -0.64616,-0.47282 -0.82744,-0.8038c-0.17334,-0.33885 -0.26005,-0.70529 -0.26005,-1.09931c0,-0.67772 0.23642,-1.21358 0.70923,-1.60759c0.47282,-0.4019 1.09931,-0.60285 1.87947,-0.60285c0.51226,0 0.95747,0.07487 1.33572,0.22459c0.37826,0.14972 0.70138,0.35855 0.96929,0.62649l-0.20095,-0.02364c-0.05514,-0.79592 -0.22847,-1.36331 -0.5201,-1.70216c-0.28369,-0.34674 -0.68948,-0.5201 -1.21751,-0.5201c-0.30734,0 -0.59102,0.04728 -0.85108,0.14185c-0.26005,0.09456 -0.50035,0.19307 -0.72105,0.29552c-0.21277,0.09456 -0.41372,0.14185 -0.60285,0.14185c-0.18913,0 -0.33882,-0.06305 -0.44918,-0.18913c-0.10242,-0.12608 -0.15367,-0.28764 -0.15367,-0.48464c0,-0.28369 0.13399,-0.55163 0.4019,-0.8038c0.27584,-0.25218 0.63831,-0.45706 1.0875,-0.61466c0.44918,-0.15761 0.93779,-0.23642 1.46575,-0.23642c0.63831,0 1.18602,0.15367 1.64306,0.461c0.45712,0.30734 0.8038,0.75652 1.04021,1.34754c0.20491,0.50434 0.35073,1.06779 0.43736,1.69034c0.08671,0.62255 0.13003,1.28844 0.13003,1.99767c0,0.53587 -0.02753,0.94958 -0.08274,1.24115c-0.05514,0.29155 -0.14185,0.49646 -0.26005,0.61466c-0.11027,0.11035 -0.26005,0.16549 -0.44918,0.16549zM257.64978,182.21045c0.26005,0 0.52408,-0.03546 0.79198,-0.10639c0.26799,-0.0788 0.49258,-0.19307 0.67377,-0.3428c0.18128,-0.14972 0.27188,-0.33492 0.27188,-0.55556c0,-0.18913 -0.07878,-0.3428 -0.23642,-0.461c-0.1497,-0.12608 -0.35065,-0.22065 -0.60285,-0.28369c-0.24426,-0.06305 -0.50828,-0.09456 -0.79198,-0.09456c-0.48067,0 -0.84712,0.08274 -1.09931,0.24823c-0.24426,0.16549 -0.36644,0.38614 -0.36644,0.66195c0,0.29945 0.11432,0.53192 0.3428,0.69741c0.23642,0.15761 0.57533,0.23642 1.01657,0.23642zM264.1358,176.30017h-0.23642c-0.02364,-0.34674 -0.01579,-0.67377 0.02364,-0.98111c0.03935,-0.31521 0.12208,-0.56739 0.24823,-0.75652c0.13391,-0.19701 0.32304,-0.29552 0.56739,-0.29552c0.22063,0 0.38214,0.07093 0.48464,0.21277c0.10242,0.14185 0.15367,0.33885 0.15367,0.59103c0,0.49646 -0.09456,0.92201 -0.28369,1.27661l-0.21277,-0.02364c0.42554,-0.14972 0.90622,-0.22459 1.4421,-0.22459c0.33882,0 0.60673,0.06698 0.8038,0.20095c0.20483,0.12608 0.30734,0.3428 0.30734,0.65013c0,0.29157 -0.1182,0.51223 -0.35462,0.66195c-0.23642,0.14972 -0.53192,0.22459 -0.88654,0.22459c-0.21277,0 -0.44133,-0.00788 -0.68559,-0.02364c-0.23642,-0.02364 -0.46894,-0.0591 -0.69741,-0.10639l0.20095,-0.24823c0.07093,0.29945 0.13788,0.64226 0.20095,1.02839c0.07093,0.37826 0.13391,0.77228 0.18913,1.18205c0.05514,0.40977 0.09845,0.80775 0.13003,1.19388c0.03149,0.38614 0.04728,0.73288 0.04728,1.04021c0,0.50434 -0.07886,0.90233 -0.23642,1.19388c-0.15764,0.29155 -0.39008,0.43736 -0.69741,0.43736c-0.24435,0 -0.43736,-0.07489 -0.5792,-0.22459c-0.13399,-0.1497 -0.23253,-0.33882 -0.29552,-0.56739c-0.05522,-0.23642 -0.09068,-0.4807 -0.10639,-0.73288c-0.00793,-0.25218 -0.01182,-0.4807 -0.01182,-0.68559c0,-0.34674 0.0157,-0.73682 0.04728,-1.17023c0.03149,-0.4413 0.07481,-0.89442 0.13003,-1.35936c0.06299,-0.46494 0.13391,-0.91412 0.21277,-1.34754l0.23642,0.20095c-0.4019,0.20489 -0.89837,0.30734 -1.48939,0.30734c-0.36255,0 -0.64227,-0.06698 -0.83926,-0.20095c-0.19706,-0.13396 -0.29552,-0.3428 -0.29552,-0.62649c0,-0.30734 0.11027,-0.54374 0.33098,-0.70923c0.22063,-0.17336 0.51614,-0.26005 0.88654,-0.26005c0.24426,0 0.47282,0.01577 0.68559,0.04728c0.22063,0.02364 0.41372,0.05516 0.5792,0.09456zM273.56024,183.53435c-0.2679,0 -0.45306,-0.10242 -0.55556,-0.30734c-0.09456,-0.21277 -0.1497,-0.54771 -0.16549,-1.00475l0.1182,0.0591c-0.44124,0.85893 -1.27661,1.28844 -2.50596,1.28844c-0.55945,0 -1.02442,-0.09854 -1.39483,-0.29552c-0.37032,-0.20491 -0.64616,-0.47282 -0.82744,-0.8038c-0.17334,-0.33885 -0.26005,-0.70529 -0.26005,-1.09931c0,-0.67772 0.23642,-1.21358 0.70923,-1.60759c0.47282,-0.4019 1.09931,-0.60285 1.87947,-0.60285c0.51226,0 0.95747,0.07487 1.33572,0.22459c0.37826,0.14972 0.70138,0.35855 0.96929,0.62649l-0.20095,-0.02364c-0.05514,-0.79592 -0.22847,-1.36331 -0.5201,-1.70216c-0.28369,-0.34674 -0.68948,-0.5201 -1.21751,-0.5201c-0.30734,0 -0.59102,0.04728 -0.85108,0.14185c-0.26005,0.09456 -0.50035,0.19307 -0.72105,0.29552c-0.21277,0.09456 -0.41372,0.14185 -0.60285,0.14185c-0.18913,0 -0.33882,-0.06305 -0.44918,-0.18913c-0.10242,-0.12608 -0.15367,-0.28764 -0.15367,-0.48464c0,-0.28369 0.13399,-0.55163 0.4019,-0.8038c0.27584,-0.25218 0.63831,-0.45706 1.0875,-0.61466c0.44918,-0.15761 0.93779,-0.23642 1.46575,-0.23642c0.63831,0 1.18602,0.15367 1.64306,0.461c0.45712,0.30734 0.8038,0.75652 1.04021,1.34754c0.20491,0.50434 0.35073,1.06779 0.43736,1.69034c0.08671,0.62255 0.13003,1.28844 0.13003,1.99767c0,0.53587 -0.02753,0.94958 -0.08274,1.24115c-0.05514,0.29155 -0.14185,0.49646 -0.26005,0.61466c-0.11027,0.11035 -0.26005,0.16549 -0.44918,0.16549zM270.9479,182.21045c0.26005,0 0.52408,-0.03546 0.79198,-0.10639c0.26799,-0.0788 0.49258,-0.19307 0.67377,-0.3428c0.18128,-0.14972 0.27188,-0.33492 0.27188,-0.55556c0,-0.18913 -0.07878,-0.3428 -0.23642,-0.461c-0.1497,-0.12608 -0.35065,-0.22065 -0.60285,-0.28369c-0.24426,-0.06305 -0.50828,-0.09456 -0.79198,-0.09456c-0.48067,0 -0.84712,0.08274 -1.09931,0.24823c-0.24426,0.16549 -0.36644,0.38614 -0.36644,0.66195c0,0.29945 0.11432,0.53192 0.3428,0.69741c0.23642,0.15761 0.57533,0.23642 1.01657,0.23642zM275.79407,178.08507c0,-0.75652 0.07093,-1.30026 0.21277,-1.63123c0.14185,-0.33885 0.3428,-0.50828 0.60285,-0.50828c0.20491,0 0.36644,0.08669 0.48464,0.26005c0.1182,0.16549 0.20491,0.37431 0.26005,0.62649c0.05514,0.24428 0.08274,0.49253 0.08274,0.74469l-0.0591,-0.02364c0.13399,-0.42554 0.33882,-0.79198 0.61466,-1.09931c0.28369,-0.30734 0.62252,-0.461 1.01657,-0.461c0.46497,0 0.80776,0.19307 1.02839,0.5792c0.22063,0.37826 0.33098,0.85108 0.33098,1.41847c0,0.75652 -0.08671,1.2845 -0.26005,1.58396c-0.17334,0.29945 -0.40587,0.44918 -0.69741,0.44918c-0.21277,0 -0.37041,-0.08669 -0.47282,-0.26005c-0.09456,-0.17336 -0.12606,-0.4807 -0.09456,-0.92201c0.03149,-0.46494 0.00397,-0.78803 -0.08274,-0.96929c-0.08671,-0.18125 -0.22459,-0.27188 -0.41372,-0.27188c-0.22856,0 -0.41769,0.14579 -0.56739,0.43736c-0.14185,0.28369 -0.21277,0.63437 -0.21277,1.05203c0,0.16549 0.01968,0.37431 0.0591,0.62649c0.03943,0.25218 0.08274,0.52799 0.13003,0.82744c0.04728,0.29157 0.0906,0.58315 0.13003,0.87472c0.03943,0.29157 0.0591,0.55951 0.0591,0.8038c0,0.43339 -0.06695,0.74469 -0.20095,0.93383c-0.13399,0.18913 -0.32313,0.28369 -0.56739,0.28369c-0.27584,0 -0.48862,-0.08671 -0.63831,-0.26005c-0.1497,-0.18128 -0.26402,-0.47282 -0.3428,-0.87472c-0.06307,-0.3625 -0.12606,-0.79198 -0.18913,-1.28844c-0.06307,-0.49646 -0.11424,-1.00475 -0.15367,-1.52485c-0.03943,-0.5201 -0.0591,-0.98899 -0.0591,-1.40664z"/></g></g></svg>