<svg version="1.1" xmlns="http://www.w3.org/2000/svg" xmlns:xlink="http://www.w3.org/1999/xlink" width="44.17082" height="19.95522" viewBox="0,0,44.17082,19.95522"><g transform="translate(-217.91459,-170.02239)"><g data-paper-data="{&quot;isPaintingLayer&quot;:true}" fill-rule="nonzero" stroke-linecap="butt" stroke-linejoin="miter" stroke-miterlimit="10" stroke-dasharray="" stroke-dashoffset="0" style="mix-blend-mode: normal"><g><path d="" fill="#ececec" stroke="none" stroke-width="1"/><path d="" fill="none" stroke="#dcd6d6" stroke-width="1.5"/><path d="" fill="none" stroke="#dcd6d6" stroke-width="1.5"/><path d="" fill="none" stroke="#dcd6d6" stroke-width="1.5"/><path d="" fill="none" stroke="#dcd6d6" stroke-width="1.5"/><path d="" fill="none" stroke="#dcd6d6" stroke-width="1.5"/><path d="" fill="none" stroke="#dcd6d6" stroke-width="1.5"/><path d="" fill="none" stroke="#dcd6d6" stroke-width="1.5"/><path d="" fill="none" stroke="#dcd6d6" stroke-width="1.5"/><path d="" fill="none" stroke="#dcd6d6" stroke-width="1.5"/><path d="" fill="none" stroke="#dcd6d6" stroke-width="1.5"/><path d="" fill="none" stroke="#dcd6d6" stroke-width="1.5"/><path d="" fill="none" stroke="#dcd6d6" stroke-width="1.5"/><path d="" fill="none" stroke="#dcd6d6" stroke-width="1.5"/><path d="" fill="none" stroke="#dcd6d6" stroke-width="1.5"/><path d="" fill="none" stroke="#dcd6d6" stroke-width="1.5"/><path d="" fill="none" stroke="#dcd6d6" stroke-width="1.5"/><path d="" fill="none" stroke="#dcd6d6" stroke-width="1.5"/><path d="" fill="none" stroke="#dcd6d6" stroke-width="1.5"/><path d="" fill="none" stroke="#dcd6d6" stroke-width="1.5"/><path d="" fill="none" stroke="#dcd6d6" stroke-width="1.5"/><path d="" fill="none" stroke="#dcd6d6" stroke-width="1.5"/><path d="" fill="none" stroke="#dcd6d6" stroke-width="1.5"/><path d="" fill="none" stroke="#dcd6d6" stroke-width="1.5"/><path d="" fill="none" stroke="#dcd6d6" stroke-width="1.5"/><path d="" fill="none" stroke="#dcd6d6" stroke-width="1.5"/><path d="" fill="none" stroke="#dcd6d6" stroke-width="1.5"/><path d="" fill="none" stroke="#dcd6d6" stroke-width="1.5"/><path d="" fill="none" stroke="#dcd6d6" stroke-width="1.5"/><path d="" fill="none" stroke="#dcd6d6" stroke-width="1.5"/><path d="" fill="none" stroke="#dcd6d6" stroke-width="1.5"/><path d="" fill="none" stroke="#dcd6d6" stroke-width="1.5"/><path d="" fill="none" stroke="#dcd6d6" stroke-width="1.5"/><path d="" fill="none" stroke="#dcd6d6" stroke-width="1.5"/><path d="" fill="none" stroke="#dcd6d6" stroke-width="1.5"/><path d="" fill="none" stroke="#dcd6d6" stroke-width="1.5"/><path d="" fill="none" stroke="#dcd6d6" stroke-width="1.5"/><path d="" fill="none" stroke="#dcd6d6" stroke-width="1.5"/><path d="" fill="none" stroke="#dcd6d6" stroke-width="1.5"/><path d="" fill="none" stroke="#dcd6d6" stroke-width="1.5"/><path d="" fill="none" stroke="#dcd6d6" stroke-width="1.5"/><g><path d="" fill="#ebebeb" stroke="none" stroke-width="1"/><path d="" fill="none" stroke="#000000" stroke-width="0.5"/></g><path d="" fill="#737373" stroke="none" stroke-width="1"/><path d="" fill="#737373" stroke="none" stroke-width="1"/><path d="" fill="#737373" stroke="none" stroke-width="1"/><path d="" fill="#737373" stroke="none" stroke-width="1"/></g><path d="" fill="#000000" stroke="none" stroke-width="1"/><path d="" fill="#000000" stroke="none" stroke-width="1"/><path d="M221.31412,170.52239h37.37176c1.60119,0 2.89953,1.27316 2.89953,2.84328v13.26866c0,1.57013 -1.29834,2.84328 -2.89953,2.84328h-37.37176c-1.60138,0 -2.89953,-1.27316 -2.89953,-2.84328v-13.26866c0,-1.57013 1.29815,-2.84328 2.89953,-2.84328z" fill="#a5a7a9" stroke="#000000" stroke-width="1"/><path d="M232.14936,182.87803c-0.29298,0 -0.53628,-0.05307 -0.73004,-0.15986c-0.18899,-0.11121 -0.33074,-0.28054 -0.42526,-0.50737c-0.06618,-0.15733 -0.11579,-0.34751 -0.14884,-0.56992c-0.02835,-0.22683 -0.04253,-0.48652 -0.04253,-0.77843c0,-0.50041 0.01656,-0.91301 0.04961,-1.23714c0.03305,-0.32919 0.08035,-0.5933 0.14176,-0.79233c0.06618,-0.20408 0.13937,-0.36836 0.21972,-0.49347c0.12758,-0.19019 0.33074,-0.34309 0.60954,-0.45872c0.2788,-0.11563 0.67334,-0.17376 1.18365,-0.17376c0.34022,0 0.61193,0.05118 0.81509,0.1529c0.20793,0.0973 0.35677,0.22683 0.44653,0.38921c0.09453,0.16239 0.14176,0.34309 0.14176,0.54212c0,0.31529 -0.09453,0.57434 -0.28351,0.77843c-0.18899,0.20408 -0.43705,0.36584 -0.74422,0.48652v0.0278c0.3355,0.03728 0.59537,0.14343 0.77965,0.31971c0.18899,0.17123 0.28351,0.41701 0.28351,0.73673c0,0.25463 -0.06618,0.48904 -0.19846,0.70198c-0.12758,0.20851 -0.30239,0.39174 -0.52449,0.54907c-0.21734,0.1529 -0.46309,0.27359 -0.73712,0.36141c-0.27404,0.0834 -0.55284,0.1251 -0.83635,0.1251zM232.36908,182.044c0.22681,0 0.42765,-0.03728 0.60246,-0.11121c0.17958,-0.07393 0.31895,-0.17376 0.41818,-0.29886c0.10393,-0.12953 0.15593,-0.27548 0.15593,-0.43787c0,-0.17628 -0.08744,-0.32224 -0.26224,-0.43787c-0.17011,-0.12068 -0.43705,-0.1807 -0.80092,-0.1807c-0.24569,0 -0.44183,0.05813 -0.58829,0.17376c-0.14176,0.11121 -0.21264,0.30328 -0.21264,0.57687c0,0.25969 0.0567,0.44481 0.17011,0.55602c0.11341,0.10678 0.28589,0.15986 0.51741,0.15986zM232.39743,179.84077c0.32133,0 0.58829,-0.0695 0.80092,-0.20851c0.21734,-0.14343 0.32604,-0.32919 0.32604,-0.55602c0,-0.16681 -0.0685,-0.30138 -0.20554,-0.40311c-0.13705,-0.10173 -0.33783,-0.1529 -0.60246,-0.1529c-0.28822,0 -0.52449,0.0556 -0.70877,0.16681c-0.18428,0.11121 -0.27642,0.30138 -0.27642,0.56992c0,0.21799 0.05908,0.37089 0.17719,0.45872c0.12288,0.0834 0.28589,0.1251 0.48906,0.1251zM238.32904,182.91279c-0.16063,0 -0.27172,-0.06002 -0.33312,-0.1807c-0.0567,-0.1251 -0.08976,-0.32224 -0.09923,-0.59077l0.07088,0.03475c-0.26463,0.50484 -0.76548,0.75758 -1.5026,0.75758c-0.3355,0 -0.61425,-0.05813 -0.83635,-0.17376c-0.22211,-0.12068 -0.38744,-0.27801 -0.49614,-0.47261c-0.10393,-0.19903 -0.15593,-0.41449 -0.15593,-0.64637c0,-0.39869 0.14176,-0.71335 0.42526,-0.94524c0.28351,-0.23631 0.65916,-0.35446 1.12695,-0.35446c0.30715,0 0.57411,0.04423 0.80092,0.13205c0.22681,0.08782 0.42056,0.21104 0.58119,0.36836l-0.12049,-0.0139c-0.03305,-0.46819 -0.13705,-0.80181 -0.31186,-1.00084c-0.17011,-0.20408 -0.41348,-0.30581 -0.73004,-0.30581c-0.18428,0 -0.35439,0.0278 -0.51031,0.0834c-0.15593,0.0556 -0.30007,0.11373 -0.43235,0.17376c-0.12758,0.0556 -0.24807,0.0834 -0.36147,0.0834c-0.11341,0 -0.20316,-0.03728 -0.26934,-0.11121c-0.0614,-0.07393 -0.09214,-0.16933 -0.09214,-0.28496c0,-0.16681 0.08035,-0.32413 0.24099,-0.47261c0.16541,-0.14848 0.38274,-0.26853 0.65207,-0.36141c0.26934,-0.09288 0.56232,-0.13901 0.87888,-0.13901c0.38274,0 0.71116,0.09036 0.98519,0.27106c0.27404,0.1807 0.48196,0.44481 0.62372,0.79233c0.12288,0.29633 0.21025,0.62805 0.26224,0.99389c0.052,0.36584 0.07796,0.75758 0.07796,1.17459c0,0.31529 -0.01656,0.55855 -0.04961,0.72978c-0.03305,0.17123 -0.08505,0.29191 -0.15593,0.36141c-0.06618,0.06508 -0.15593,0.0973 -0.26934,0.0973zM236.76264,182.13436c0.15593,0 0.31425,-0.02085 0.47488,-0.06256c0.16063,-0.04613 0.2953,-0.11373 0.404,-0.20156c0.1087,-0.08782 0.16302,-0.19713 0.16302,-0.32666c0,-0.11121 -0.04723,-0.20156 -0.14176,-0.27106c-0.08976,-0.07393 -0.21025,-0.12953 -0.36147,-0.16681c-0.14646,-0.03728 -0.30477,-0.0556 -0.47488,-0.0556c-0.28822,0 -0.50793,0.04865 -0.65916,0.14596c-0.14646,0.0973 -0.21972,0.22683 -0.21972,0.38921c0,0.17628 0.0685,0.31276 0.20554,0.41007c0.14176,0.09288 0.34492,0.13901 0.60954,0.13901zM241.41208,182.91974c-0.65207,0 -1.13172,-0.16681 -1.43882,-0.50041c-0.30245,-0.33361 -0.45361,-0.79675 -0.45361,-1.39005c0,-0.45872 0.08976,-0.86436 0.26934,-1.2163c0.18428,-0.35699 0.44653,-0.635 0.78674,-0.83403c0.34492,-0.20408 0.756,-0.30581 1.23327,-0.30581c0.42997,0 0.756,0.0695 0.97811,0.20851c0.22681,0.13459 0.34022,0.30834 0.34022,0.52127c0,0.12953 -0.04253,0.23378 -0.12758,0.31276c-0.08035,0.07393 -0.20084,0.11121 -0.36147,0.11121c-0.08982,0 -0.18196,-0.0139 -0.27642,-0.0417c-0.08982,-0.0278 -0.18905,-0.0556 -0.29769,-0.0834c-0.1087,-0.0278 -0.23867,-0.0417 -0.38983,-0.0417c-0.39221,0 -0.68752,0.10173 -0.88596,0.30581c-0.19376,0.20408 -0.2906,0.49789 -0.2906,0.88268c0,0.36584 0.09446,0.63247 0.28351,0.79928c0.18899,0.16239 0.44653,0.24326 0.77257,0.24326c0.16063,0 0.30001,-0.01643 0.41818,-0.04865c0.12281,-0.03728 0.23621,-0.07203 0.34022,-0.10425c0.10863,-0.03728 0.21734,-0.0556 0.32604,-0.0556c0.10863,0 0.19846,0.03475 0.26934,0.10425c0.07088,0.06508 0.10631,0.15986 0.10631,0.28496c0,0.14343 -0.05908,0.28054 -0.17719,0.41007c-0.11817,0.12953 -0.29537,0.23631 -0.53158,0.31971c-0.23628,0.07898 -0.53396,0.11816 -0.89306,0.11816zM244.07501,182.91279c-0.08982,0 -0.16302,-0.02527 -0.21972,-0.07645c-0.0567,-0.0556 -0.09691,-0.13459 -0.12049,-0.23631c-0.03783,-0.17123 -0.07088,-0.41954 -0.09923,-0.74367c-0.02835,-0.32413 -0.04253,-0.68365 -0.04253,-1.07729c0,-0.48652 0.0165,-0.95471 0.04961,-1.40395c0.03775,-0.44924 0.08505,-0.8176 0.14176,-1.10509c0.0614,-0.31024 0.13698,-0.5377 0.22681,-0.68113c0.08976,-0.14848 0.20786,-0.22241 0.35439,-0.22241c0.13228,0 0.23389,0.06002 0.30477,0.1807c0.07088,0.11563 0.10631,0.31719 0.10631,0.60467c0,0.28749 -0.01185,0.59519 -0.03544,0.92439c-0.01895,0.32919 -0.052,0.68113 -0.09923,1.05644h0.02835c0.30709,-0.40754 0.59299,-0.7342 0.85762,-0.97999c0.26934,-0.24579 0.51528,-0.42396 0.73693,-0.53517c0.22681,-0.11121 0.42784,-0.16681 0.60246,-0.16681c0.13725,0 0.23905,0.0417 0.30477,0.1251c0.06637,0.0834 0.09923,0.18513 0.09923,0.30581c0,0.23631 -0.19331,0.50041 -0.58119,0.79233c-0.38274,0.29191 -0.93539,0.59077 -1.65834,0.89659l0.00709,-0.11121c0.44885,0.22683 0.83422,0.46567 1.15511,0.71587c0.32604,0.24579 0.57411,0.47957 0.74422,0.70198c0.17526,0.21799 0.26224,0.40059 0.26224,0.54907c0,0.12068 -0.03995,0.21988 -0.12049,0.29886c-0.07539,0.07393 -0.18621,0.11121 -0.33312,0.11121c-0.18428,0 -0.38983,-0.06698 -0.61664,-0.20156c-0.22166,-0.13901 -0.45342,-0.34499 -0.69441,-0.61857c-0.24099,-0.27359 -0.48196,-0.61604 -0.72295,-1.02864h-0.02835c-0.00477,0.29191 -0.02365,0.57687 -0.0567,0.85488c-0.02835,0.27359 -0.06618,0.49789 -0.11341,0.67418c-0.03312,0.12068 -0.08505,0.21799 -0.15593,0.29191c-0.06618,0.0695 -0.16069,0.10425 -0.28351,0.10425z" fill="#000000" stroke="none" stroke-width="1"/><path d="" fill="#a5a7a9" stroke="#000000" stroke-width="1"/><path d="" fill="#000000" stroke="none" stroke-width="1"/></g></g></svg>