<svg version="1.1" xmlns="http://www.w3.org/2000/svg" xmlns:xlink="http://www.w3.org/1999/xlink" width="21.39454" height="26.17091" viewBox="0,0,21.39454,26.17091"><g transform="translate(-230.14598,-167.53867)"><g data-paper-data="{&quot;isPaintingLayer&quot;:true}" fill-rule="evenodd" stroke="none" stroke-width="1" stroke-linecap="butt" stroke-linejoin="miter" stroke-miterlimit="10" stroke-dasharray="" stroke-dashoffset="0" style="mix-blend-mode: normal"><path d="M235.22213,184.421l0.48572,-2.07931l6.356,1.23372l0.33307,2.05158c-0.22205,-0.04159 -7.17479,-1.21986 -7.17479,-1.206z" fill="#000000"/><g><path d="M243.00406,173.07805c0.20815,-0.54063 1.81798,-0.85944 1.4849,0.23566c-0.33306,1.09511 -1.4849,0.77627 -1.4849,0.77627c0,0 -0.11103,-0.74854 0,-1.01193z" fill="#824600"/><path d="M244.08651,172.32949c0.01387,1.17827 -0.48573,2.23178 -0.98531,2.77241c-0.86043,0.90103 -2.5535,0.72083 -2.9976,0.58222c-0.81879,-0.26338 -1.59593,-1.4278 -2.0539,-2.50904c-0.13878,-0.41588 -0.26368,-0.84558 -0.36082,-1.28919l3.89964,-2.13476c0,0 1.77634,0.37428 1.87348,0.5129c0.13878,0.16634 0.62451,1.24759 0.62451,2.06546z" fill="#a0640a"/><path d="M237.3003,169.37688l0.12489,-0.08319c-0.19428,-0.48516 -0.59672,-1.23372 0.19431,-1.40006c0.48571,-0.09703 1.1796,0.44358 1.31838,0.87331c0.08327,0.04159 0.08327,0.0416 0.16653,-0.01384c-0.05553,-0.36041 -0.22205,-0.81786 0.08326,-1.09511c0.90206,-0.5129 1.33227,0.76242 1.85961,1.27529l0.12491,-0.01385c0.09714,-0.40201 -0.18042,-0.95648 0.41634,-0.97035c0.40246,-0.01385 0.58287,0.33269 0.77716,0.59607c0.48571,0.6238 1.15186,1.73278 1.15186,1.73278c0,0 0,0.6931 -1.04084,0.87331c-0.51348,0.09703 -1.41552,-0.4436 -2.78942,0.09703c-1.37388,0.54063 -1.36002,2.41199 -1.36002,2.41199c0,0 -1.51268,-2.78628 -1.6931,-3.18826c-0.13878,-0.30498 -0.51348,-1.1783 -0.19428,-1.44166c0.23592,-0.19406 0.65225,0.22179 0.86043,0.34656z" fill="#000000"/><path d="M238.53542,173.99295c0,0 -1.15184,0.31882 -1.48491,-0.77629c-0.33306,-1.09511 1.27676,-0.77627 1.48491,-0.23564c0.09714,0.26336 0,1.01193 0,1.01193z" fill="#a0640a"/><path d="M240.68648,173.71569c0.59672,0.05545 1.13796,0.27725 1.69308,0.5129c-0.27756,0.94263 -2.24819,0.34656 -1.69308,-0.5129z" fill="#000000"/><path d="M241.76893,173.4246c-0.33306,-0.59607 0.95757,-1.1367 1.12409,-0.26338c0.11103,0.67924 -0.72163,0.36041 -1.12409,0.26338z" fill="#824600"/><g fill="#000000"><path d="M240.6482,172.8267l-0.08327,0.19406h-0.13878c-0.04164,-0.23566 0.13878,-0.59607 0.22205,-0.19406z"/><path d="M243.6458,173.32574l-0.12491,-0.01385l-0.04164,-0.27724c0.08327,-0.09705 0.08327,-0.09705 0.16653,-0.06932c0.04164,0.1109 0.04164,0.23566 0,0.36042z"/></g></g><g><path d="M230.14684,181.69464c-0.02675,-0.1154 0.57587,-1.61501 1.61244,-2.58746c1.26772,-1.17618 3.05032,-1.87903 3.7972,-2.15937l1.38185,2.07758c-0.87367,0.16488 -1.93579,0.27199 -2.22063,0.34493c-0.48502,0.1228 -2.00974,0.78734 -1.99052,0.79119c-0.27344,0.16523 -0.53919,0.342 -0.76271,0.55725c-0.17341,0.16527 -0.45105,0.54972 -0.58212,0.7035c-0.37777,0.43438 -0.50519,0.71891 -0.58591,0.67271c-0.04993,-0.05002 0.33969,-0.69208 0.21661,-0.72678c-0.12305,-0.03469 -0.48198,0.65357 -0.57038,0.59583c-0.11919,-0.05392 0.32822,-0.73442 0.15513,-0.76911c-0.16153,-0.0424 -0.40135,0.74973 -0.45097,0.49972z" fill="#a0640a"/><path d="M235.73699,179.57471c-0.03071,-0.04617 -1.01129,-2.8235 -1.01129,-2.8235c0,0 2.19802,-0.62955 2.81376,-0.70614c0,0 2.73643,-0.47154 3.06875,1.0555c0.33232,1.52703 -1.46489,1.75682 -1.46489,1.75682c0.03847,0.0077 -3.22159,0.69437 -3.40633,0.71733z" fill="#be0a3c"/><path d="M231.53773,180.50315c0.28499,-0.17292 0.54626,0.06952 0.54626,0.06952c0,0 -0.27504,1.16518 -0.41353,1.15741c-0.12694,-0.01546 -0.09956,-0.30004 -0.1222,-0.58467c-0.42707,-0.01562 -0.31475,-0.47321 -0.01053,-0.64227z" fill="#824600"/></g><g><path d="M250.31526,180.62343c0.2059,0.41278 -1.49724,1.11407 -1.67545,1.14452c0.07756,-0.18273 1.47308,-1.22329 1.67545,-1.14452z" fill="#824600"/><path d="M241.63268,181.49001l2.17473,-1.31623c0.39231,0.61839 1.12714,1.05737 1.77729,1.21717c0.51489,0.11385 1.50756,0.09423 2.02908,0.07094c1.14007,-0.02216 3.63236,-0.59602 3.64722,-0.49709c0.01486,0.09893 -0.80904,0.284 -0.79611,0.42213c0.01297,0.13812 1.06376,-0.27141 1.07481,-0.09412c0.01107,0.1773 -0.96958,0.35463 -0.86435,0.61515c0.10522,0.2605 0.90135,-0.16162 0.8639,0.00346c-0.03744,0.16508 -3.16737,1.33586 -4.74049,1.58206c-0.83135,0.13562 -1.6924,0.07339 -2.49454,-0.19215c-0.66783,-0.19997 -2.23815,-1.23017 -2.67157,-1.81132z" fill="#a0640a"/><path d="M239.1402,177.19341c0,0 0.09302,-0.90861 1.69396,-0.91778c1.60093,-0.00917 2.17609,1.90463 2.17609,1.90463c0.39566,1.15865 1.21219,2.14172 1.21219,2.14172l-1.97277,2.01358c0,0 -0.51758,-0.26128 -1.43194,-1.4554c-0.91436,-1.19413 -1.65984,-3.6466 -1.67755,-3.68675z" fill="#f01446"/></g><g><g><path d="M242.39537,188.3479c-0.21913,-0.33461 -0.57084,-0.49937 -0.89161,-0.66606c-0.09538,-0.34226 1.01014,-1.87767 1.27359,-2.14261c0.58338,0.39915 1.17598,0.84748 1.55049,1.48952c-0.13232,0.27548 -0.67989,0.46472 -0.92346,0.64762c-0.31635,0.21226 -0.64166,0.481 -1.00901,0.67154z" fill="#a0640a"/><path d="M241.56723,184.02869l1.97975,1.29517l-2.20414,2.87768l-1.94901,-1.40275c0,0 -1.1488,-0.91131 -0.11579,-2.31171c1.04386,-1.42591 2.27649,-0.46386 2.28923,-0.45843z" fill="#000000"/></g><g><path d="M241.31775,192.18817l0.7605,0.65554c0.11689,0.18549 0.41255,0.55267 0.52758,0.70721l-0.05247,0.15865c-0.13675,-0.10347 -1.45678,-1.07256 -1.45344,-1.22197l0.08153,-0.19155c0.05267,-0.05298 0.05267,-0.05298 0.13631,-0.10788z" fill="#000000"/><path d="M243.69584,191.55639c-0.52143,0.5171 -1.01945,0.90843 -1.63579,1.29463l-0.7605,-0.65554c0.6818,-0.43375 1.35374,-1.2337 1.46491,-2.06116c0.03717,-0.51206 -0.06217,-1.02193 -0.3125,-1.46027c-0.04203,-0.07822 -0.19173,-0.29277 -0.25197,-0.36365l2.17206,-1.66967c0.20639,0.32919 0.58114,1.07692 0.66019,1.45747c0.05146,0.23304 0.00673,0.62125 -0.11617,1.0516c-0.06455,0.47021 -0.21297,0.8897 -0.40511,1.30566c-0.02717,0.06382 -0.50989,0.80858 -0.81512,1.10096z" fill="#f01446"/></g><path d="M244.90564,187.441l-2.442,1.41902l-0.15538,-0.30745l2.38889,-1.57738z" fill="#f5cfcf"/><path d="M245.10103,188.61013l-2.44522,0.75403l-0.09538,-0.34226l2.56099,-1.09688z" fill="#f5cfcf"/></g><path d="M242.31365,183.99127l-7.46622,-0.65152c0,0 1.40166,-3.92297 2.17881,-5.50324c0.15265,-0.33269 1.1796,-1.46938 1.23511,-1.51097c0.52736,-0.38813 1.30451,-0.56834 1.94289,-0.62379c1.91512,-0.16634 2.95596,1.91297 2.91433,3.60414c-0.02776,0.90103 -0.81879,4.68537 -0.8049,4.68537z" fill="#f01446"/><g><g><path d="M235.37112,188.14531c0.16838,-0.36281 0.12256,-0.74848 0.09469,-1.10888c0.24027,-0.26175 2.12794,-0.13393 2.49205,-0.05016c-0.03082,0.70619 -0.09853,1.44618 -0.44593,2.10329c-0.30382,0.03314 -0.75371,-0.33189 -1.03766,-0.44211c-0.34731,-0.15652 -0.74734,-0.29081 -1.10315,-0.50213z" fill="#a0640a"/><path d="M238.60139,185.16089l-0.05419,2.36514l-3.60771,-0.3518l0.16177,-2.39587c0,0 0.1671,-1.45681 1.90182,-1.31925c1.76214,0.13329 1.59622,1.6881 1.59834,1.70179z" fill="#000000"/></g><g><path d="M231.541,189.25848l-0.15499,0.992c-0.09577,0.19723 -0.2514,0.64221 -0.32188,0.82152l-0.16243,0.03924c0.01564,-0.17076 0.14136,-1.80351 0.27,-1.87958l0.20572,-0.03194c0.0728,0.01675 0.0728,0.01675 0.16359,0.05877z" fill="#000000"/><path d="M233.33346,190.94418c-0.7145,-0.16966 -1.3098,-0.38588 -1.96329,-0.70527l0.15499,-0.992c0.72842,0.34986 1.76257,0.49796 2.52393,0.15532c0.45445,-0.23888 0.83493,-0.59253 1.07494,-1.03662c0.04422,-0.077 0.14734,-0.31745 0.17572,-0.40601l2.56498,0.96257c-0.17052,0.34912 -0.60754,1.06225 -0.88893,1.33038c-0.17071,0.16678 -0.52399,0.33383 -0.95431,0.45675c-0.43338,0.19353 -0.86798,0.28907 -1.32267,0.3456c-0.06855,0.01065 -0.95591,-0.00591 -1.36538,-0.11069z" fill="#f01446"/></g><path d="M237.46701,189.79793l-2.49471,-1.32418l0.17901,-0.29433l2.60113,1.19544z" fill="#f5cfcf"/><path d="M236.57744,190.58131l-1.93172,-1.67811l0.24027,-0.26175l2.28401,1.59534z" fill="#f5cfcf"/></g></g></g></svg>