<svg version="1.1" xmlns="http://www.w3.org/2000/svg" xmlns:xlink="http://www.w3.org/1999/xlink" width="53.22623" height="21.51832" viewBox="0,0,53.22623,21.51832"><g transform="translate(-213.38689,-169.24084)"><g data-paper-data="{&quot;isPaintingLayer&quot;:true}" fill-rule="nonzero" stroke-width="1" stroke-linecap="butt" stroke-linejoin="miter" stroke-miterlimit="10" stroke-dasharray="" stroke-dashoffset="0" style="mix-blend-mode: normal"><path d="M213.88689,172.81859c0,-1.69979 1.57047,-3.07775 3.50773,-3.07775h45.21076c1.93728,0 3.50773,1.37796 3.50773,3.07775v14.36282c0,1.69981 -1.57045,3.07775 -3.50773,3.07775h-45.21076c-1.93726,0 -3.50773,-1.37794 -3.50773,-3.07775z" fill="#a5a7a9" stroke="#000000"/><path d="M230.14595,176.96804c0.40666,0 0.69505,0.06374 0.86498,0.19121c0.17606,0.12143 0.26405,0.2883 0.26405,0.50078c0,0.2489 -0.11837,0.431 -0.3551,0.5463c-0.23069,0.1153 -0.58877,0.173 -1.0744,0.173c-0.20031,0 -0.42794,-0.00306 -0.68288,-0.00911c-0.25494,-0.01217 -0.51592,-0.02732 -0.78303,-0.04553l0.09105,-0.173c0.04246,0.21248 0.06067,0.47346 0.05463,0.78303c-0.00604,0.30353 -0.03642,0.59489 -0.09105,0.87408l-0.09105,-0.13658c0.70415,0.04859 1.25956,0.13053 1.66622,0.24584c0.40666,0.1153 0.69505,0.25188 0.86498,0.40973c0.17606,0.15785 0.26405,0.33382 0.26405,0.52809c0,0.15172 -0.05157,0.27919 -0.15479,0.38241c-0.10322,0.09709 -0.26098,0.14568 -0.47346,0.14568c-0.30353,0 -0.65556,-0.07284 -1.05618,-0.21852c-0.39458,-0.15172 -0.80431,-0.36726 -1.22918,-0.64646l0.20031,-0.01821c0.05463,0.15785 0.1062,0.37024 0.15479,0.63735c0.05463,0.26098 0.09709,0.54026 0.12747,0.83766c0.03642,0.29136 0.05463,0.56145 0.05463,0.81035c0,0.32174 -0.06067,0.55847 -0.1821,0.71019c-0.1153,0.15172 -0.27621,0.22763 -0.48257,0.22763c-0.14568,0 -0.26711,-0.03948 -0.3642,-0.11837c-0.09709,-0.07284 -0.173,-0.18516 -0.22763,-0.33689c-0.0668,-0.20635 -0.12441,-0.51899 -0.173,-0.93782c-0.04246,-0.41883 -0.06374,-0.92267 -0.06374,-1.51144c0,-0.86804 0.04859,-1.55696 0.14568,-2.06684c0.09709,-0.51592 0.22158,-0.88013 0.37331,-1.09261c0.12747,-0.16993 0.31561,-0.30353 0.56451,-0.40062c0.2489,-0.10322 0.53116,-0.17606 0.84677,-0.21852c0.31561,-0.04859 0.63131,-0.07284 0.94692,-0.07284zM232.83484,176.50368c0.24286,0 0.41585,0.0668 0.51899,0.20031c0.10926,0.13351 0.16389,0.2883 0.16389,0.46436c0,0.21852 -0.06672,0.38845 -0.20031,0.50988c-0.12747,0.1153 -0.30957,0.173 -0.5463,0.173c-0.23061,0 -0.4036,-0.06374 -0.51899,-0.19121c-0.1153,-0.13351 -0.173,-0.2883 -0.173,-0.46436c0,-0.23069 0.06986,-0.40368 0.20942,-0.51899c0.13964,-0.1153 0.32174,-0.173 0.5463,-0.173zM232.88947,178.53409c0.19427,0 0.34599,0.1821 0.45525,0.5463c0.11539,0.3642 0.173,0.94386 0.173,1.73906c0,0.9773 -0.06978,1.68137 -0.20942,2.11237c-0.13956,0.431 -0.35203,0.64646 -0.63735,0.64646c-0.21852,0 -0.37935,-0.15785 -0.48257,-0.47346c-0.10314,-0.32174 -0.15479,-0.88013 -0.15479,-1.67533c0,-0.9773 0.07897,-1.70264 0.23673,-2.17611c0.16389,-0.4795 0.37033,-0.7193 0.61914,-0.7193zM235.55865,177.8239c0.19427,0 0.3248,0.07888 0.39152,0.23673c0.07284,0.15785 0.10926,0.39152 0.10926,0.70109c0,0.07284 -0.00604,0.15172 -0.01821,0.23673c-0.00604,0.07888 -0.01821,0.15172 -0.03642,0.21852l-0.01821,-0.1821c0.14568,-0.39458 0.37033,-0.70109 0.67377,-0.91961c0.30353,-0.22456 0.62527,-0.33689 0.96513,-0.33689c0.37637,0 0.689,0.1062 0.93782,0.31868c0.25494,0.21248 0.44317,0.50988 0.56451,0.89229c0.12747,0.38241 0.19121,0.8346 0.19121,1.35665c0,0.32174 -0.01515,0.64042 -0.04553,0.95603c-0.02425,0.30957 -0.06067,0.59489 -0.10926,0.85587c-0.04246,0.25494 -0.09105,0.46436 -0.14568,0.62825c-0.07284,0.20635 -0.16687,0.36114 -0.28226,0.46436c-0.1153,0.09709 -0.25188,0.14568 -0.40973,0.14568c-0.15777,0 -0.27919,-0.05769 -0.3642,-0.173c-0.08493,-0.1153 -0.12747,-0.27009 -0.12747,-0.46436c0,-0.20635 0.01523,-0.45525 0.04553,-0.74661c0.03038,-0.2974 0.05769,-0.59787 0.08195,-0.9014c0.03038,-0.30957 0.04553,-0.58877 0.04553,-0.83766c0,-0.84983 -0.27919,-1.27471 -0.83766,-1.27471c-0.2974,0 -0.5463,0.13351 -0.74661,0.40062c-0.20031,0.26098 -0.33382,0.63429 -0.40062,1.11992c-0.01821,0.16389 -0.02732,0.36726 -0.02732,0.61004c0,0.24277 0,0.48563 0,0.7284c0.00613,0.23673 0,0.43704 -0.01821,0.60093c-0.02425,0.3642 -0.09403,0.62519 -0.20942,0.78303c-0.10926,0.15785 -0.26098,0.23673 -0.45525,0.23673c-0.22456,0 -0.3945,-0.10322 -0.50988,-0.30957c-0.1153,-0.21248 -0.173,-0.56758 -0.173,-1.06529c0,-0.25494 0.00613,-0.54026 0.01821,-0.85587c0.01217,-0.31561 0.02732,-0.63131 0.04553,-0.94692c0.02434,-0.32174 0.05165,-0.6131 0.08195,-0.87408c0.06076,-0.49167 0.14874,-0.88013 0.26405,-1.16545c0.11539,-0.29136 0.28838,-0.43704 0.51899,-0.43704zM241.22853,176.50368c0.24286,0 0.41585,0.0668 0.51899,0.20031c0.10926,0.13351 0.16389,0.2883 0.16389,0.46436c0,0.21852 -0.06672,0.38845 -0.20031,0.50988c-0.12747,0.1153 -0.30957,0.173 -0.5463,0.173c-0.23061,0 -0.4036,-0.06374 -0.51899,-0.19121c-0.1153,-0.13351 -0.173,-0.2883 -0.173,-0.46436c0,-0.23069 0.06986,-0.40368 0.20942,-0.51899c0.13964,-0.1153 0.32174,-0.173 0.5463,-0.173zM241.28316,178.53409c0.19427,0 0.34599,0.1821 0.45525,0.5463c0.11539,0.3642 0.173,0.94386 0.173,1.73906c0,0.9773 -0.06978,1.68137 -0.20942,2.11237c-0.13956,0.431 -0.35203,0.64646 -0.63735,0.64646c-0.21852,0 -0.37935,-0.15785 -0.48257,-0.47346c-0.10314,-0.32174 -0.15479,-0.88013 -0.15479,-1.67533c0,-0.9773 0.07897,-1.70264 0.23673,-2.17611c0.16389,-0.4795 0.37033,-0.7193 0.61914,-0.7193zM245.32729,177.78748c0.54018,0 0.92871,0.07888 1.16545,0.23673c0.23673,0.15785 0.3551,0.36114 0.3551,0.61004c0,0.14568 -0.05165,0.26711 -0.15479,0.3642c-0.09718,0.09105 -0.23673,0.13658 -0.41883,0.13658c-0.18823,0 -0.38547,-0.02732 -0.59183,-0.08195c-0.20031,-0.05463 -0.43406,-0.08195 -0.70109,-0.08195c-0.30957,0 -0.54026,0.06067 -0.69198,0.1821c-0.15181,0.12143 -0.22763,0.27621 -0.22763,0.46436c0,0.17606 0.06672,0.31561 0.20031,0.41883c0.13956,0.09709 0.4036,0.16993 0.79214,0.21852c0.43092,0.04859 0.78601,0.12747 1.06529,0.23673c0.28524,0.10322 0.49771,0.26098 0.63735,0.47346c0.13956,0.20635 0.20942,0.49167 0.20942,0.85587c0,0.57668 -0.20337,1.00462 -0.61004,1.28381c-0.40675,0.27919 -0.9682,0.41883 -1.68443,0.41883c-0.45525,0 -0.81647,-0.03642 -1.0835,-0.10926c-0.26711,-0.07284 -0.46138,-0.17606 -0.58272,-0.30957c-0.11539,-0.13351 -0.173,-0.29136 -0.173,-0.47346c0,-0.15785 0.05157,-0.27919 0.15479,-0.3642c0.10926,-0.09105 0.23673,-0.13658 0.38241,-0.13658c0.13956,0 0.2883,0.01821 0.44615,0.05463c0.15777,0.03038 0.32472,0.06374 0.50078,0.10016c0.17598,0.03642 0.35808,0.05463 0.5463,0.05463c0.60698,0 0.9105,-0.18814 0.9105,-0.56451c0,-0.12747 -0.03038,-0.23069 -0.09105,-0.30957c-0.06076,-0.07888 -0.17002,-0.14262 -0.32778,-0.19121c-0.15785,-0.05463 -0.38854,-0.09709 -0.69198,-0.12747c-0.3642,-0.03642 -0.6799,-0.09709 -0.94692,-0.1821c-0.26711,-0.09105 -0.47346,-0.23673 -0.61914,-0.43704c-0.14568,-0.20635 -0.21852,-0.48861 -0.21852,-0.84677c0,-0.56451 0.2124,-1.01976 0.63735,-1.36576c0.42487,-0.35203 1.02887,-0.52809 1.8119,-0.52809zM248.82519,176.27605c0.19427,0 0.32778,0.0759 0.40062,0.22763c0.07897,0.15172 0.11837,0.37935 0.11837,0.68288c0,0.26098 -0.01515,0.58877 -0.04553,0.98334c-0.03029,0.39458 -0.06978,0.77393 -0.11837,1.13813h-0.05463c0.20031,-0.37637 0.45831,-0.67982 0.77393,-0.9105c0.3157,-0.23069 0.64952,-0.34599 1.00155,-0.34599c0.30957,0 0.58579,0.0759 0.82856,0.22763c0.24286,0.14568 0.4401,0.37637 0.59183,0.69198c0.13964,0.28532 0.24286,0.62519 0.30957,1.01976c0.0668,0.38845 0.10016,0.75878 0.10016,1.11082c0,0.56451 -0.0394,1.01372 -0.11837,1.34755c-0.07284,0.33382 -0.17598,0.57668 -0.30957,0.7284c-0.13351,0.14568 -0.29136,0.21852 -0.47346,0.21852c-0.38241,0 -0.57362,-0.31263 -0.57362,-0.93782c0,-0.30353 0.01523,-0.61608 0.04553,-0.93782c0.03642,-0.32174 0.05463,-0.61608 0.05463,-0.88319c0,-0.45525 -0.07284,-0.7952 -0.21852,-1.01976c-0.13956,-0.23069 -0.34293,-0.34599 -0.61004,-0.34599c-0.33382,0 -0.60391,0.14874 -0.81035,0.44615c-0.20635,0.2974 -0.30957,0.70713 -0.30957,1.22918c0,0.27315 0.02434,0.57362 0.07284,0.9014c0.04859,0.32174 0.07284,0.61608 0.07284,0.88319c0,0.2974 -0.05761,0.51294 -0.173,0.64646c-0.10926,0.12747 -0.25188,0.19121 -0.42794,0.19121c-0.13351,0 -0.25188,-0.02732 -0.3551,-0.08195c-0.09709,-0.04859 -0.1821,-0.14874 -0.25494,-0.30047c-0.06672,-0.15785 -0.12441,-0.39152 -0.173,-0.70109c-0.03642,-0.23673 -0.07284,-0.51294 -0.10926,-0.82856c-0.03642,-0.31561 -0.06672,-0.64646 -0.09105,-0.99245c-0.02425,-0.34599 -0.04553,-0.68288 -0.06374,-1.01066c-0.01208,-0.33382 -0.01821,-0.63735 -0.01821,-0.9105c0,-0.86192 0.08195,-1.48718 0.24584,-1.87564c0.16389,-0.39458 0.39458,-0.59183 0.69198,-0.59183z" fill="#000000" stroke="none"/></g></g></svg>