<svg version="1.1" xmlns="http://www.w3.org/2000/svg" xmlns:xlink="http://www.w3.org/1999/xlink" width="368.95157" height="12.28864" viewBox="0,0,368.95157,12.28864"><g transform="translate(-55.52421,-173.85568)"><g data-paper-data="{&quot;isPaintingLayer&quot;:true}" fill="#0b0b0b" fill-rule="nonzero" stroke="none" stroke-width="1" stroke-linecap="butt" stroke-linejoin="miter" stroke-miterlimit="10" stroke-dasharray="" stroke-dashoffset="0" style="mix-blend-mode: normal"><path d="M59.66548,183.72346c-0.92574,0 -1.69583,-0.17204 -2.31026,-0.51612c-0.61443,-0.35228 -1.0732,-0.84382 -1.37633,-1.47464c-0.30312,-0.63081 -0.45468,-1.36813 -0.45468,-2.21195c0,-0.93394 0.16795,-1.74908 0.50383,-2.44544c0.34408,-0.70454 0.83972,-1.24935 1.48693,-1.63439c0.64721,-0.38504 1.42548,-0.57757 2.33484,-0.57757c0.85201,0 1.53199,0.15156 2.03991,0.45468c0.50793,0.29493 0.7619,0.67178 0.7619,1.13055c0,0.27035 -0.08602,0.48745 -0.25806,0.6513c-0.17204,0.15566 -0.42191,0.23348 -0.74961,0.23348c-0.213,0 -0.42191,-0.04506 -0.62672,-0.13518c-0.20481,-0.09011 -0.42601,-0.17613 -0.66359,-0.25806c-0.22939,-0.09011 -0.50383,-0.13518 -0.82334,-0.13518c-0.40962,0 -0.79056,0.07782 -1.14284,0.23348c-0.34408,0.15566 -0.62263,0.41781 -0.83563,0.78647c-0.20481,0.36046 -0.30722,0.85201 -0.30722,1.47464c0,0.94213 0.20481,1.60981 0.61443,2.00305c0.41781,0.39324 0.96671,0.58985 1.64668,0.58985c0.23758,0 0.48745,-0.02049 0.74961,-0.06144c0.26215,-0.04915 0.50793,-0.09422 0.73732,-0.13518c0.22939,-0.04915 0.41372,-0.07373 0.55299,-0.07373c0.27855,0 0.49974,0.06964 0.66359,0.20891c0.16384,0.13108 0.24577,0.3277 0.24577,0.58985c0,0.37686 -0.23758,0.68816 -0.71274,0.93394c-0.47516,0.24577 -1.16742,0.36866 -2.07678,0.36866zM66.63823,183.62515c-0.65539,0 -1.22886,-0.14337 -1.72041,-0.4301c-0.48335,-0.29493 -0.8602,-0.71274 -1.13055,-1.25344c-0.26215,-0.5407 -0.39324,-1.1838 -0.39324,-1.92932c0,-0.77828 0.13518,-1.45826 0.40553,-2.03991c0.27035,-0.58166 0.6513,-1.03634 1.14284,-1.36404c0.49974,-0.3277 1.07731,-0.49155 1.7327,-0.49155c0.70458,0 1.31483,0.15975 1.83096,0.47926c0.51612,0.31131 0.91759,0.74961 1.20429,1.31488c0.28682,0.56528 0.4301,1.22477 0.4301,1.97847c0,0.77009 -0.14329,1.43368 -0.4301,1.99076c-0.28669,0.55708 -0.69222,0.98718 -1.21658,1.29031c-0.52423,0.30312 -1.14284,0.45468 -1.85553,0.45468zM66.81027,181.96618c0.50796,0 0.90931,-0.20071 1.20424,-0.60214c0.30316,-0.40962 0.45468,-0.95032 0.45468,-1.6221c0,-0.67997 -0.15152,-1.22067 -0.45468,-1.6221c-0.29493,-0.40143 -0.69627,-0.60214 -1.20424,-0.60214c-0.52432,0 -0.93803,0.20071 -1.24115,0.60214c-0.30312,0.40143 -0.45468,0.94213 -0.45468,1.6221c0,0.67178 0.15156,1.21248 0.45468,1.6221c0.30312,0.40143 0.71683,0.60214 1.24115,0.60214zM72.63393,175.94475c0.26212,0 0.43834,0.10651 0.52841,0.3195c0.09831,0.213 0.14746,0.52841 0.14746,0.94623c0,0.09831 -0.00823,0.20481 -0.02458,0.3195c-0.00823,0.10651 -0.02458,0.20481 -0.04915,0.29493l-0.02458,-0.24577c0.19662,-0.5325 0.49978,-0.94623 0.90936,-1.24115c0.40958,-0.30312 0.84386,-0.45468 1.3026,-0.45468c0.50789,0 0.92988,0.14337 1.26573,0.4301c0.34408,0.28673 0.59809,0.68816 0.7619,1.20429c0.17204,0.51612 0.25806,1.12646 0.25806,1.83101c0,0.43419 -0.02052,0.8643 -0.06144,1.29031c-0.03281,0.41781 -0.08197,0.80285 -0.14746,1.15513c-0.05739,0.34408 -0.12289,0.62672 -0.19662,0.84792c-0.09831,0.27855 -0.22525,0.48745 -0.38095,0.62672c-0.1557,0.13108 -0.34003,0.19662 -0.55299,0.19662c-0.21296,0 -0.37689,-0.07782 -0.49155,-0.23348c-0.11465,-0.15566 -0.17204,-0.36457 -0.17204,-0.62672c0,-0.27855 0.02052,-0.61443 0.06144,-1.00767c0.04092,-0.40143 0.07779,-0.80696 0.1106,-1.21658c0.04092,-0.41781 0.06144,-0.79467 0.06144,-1.13055c0,-1.14694 -0.37689,-1.72041 -1.13055,-1.72041c-0.40147,0 -0.73732,0.18024 -1.00767,0.5407c-0.27035,0.35228 -0.45062,0.85611 -0.5407,1.5115c-0.02458,0.2212 -0.03687,0.49564 -0.03687,0.82334c0,0.3277 0,0.65539 0,0.98309c0.00823,0.3195 0,0.58985 -0.02458,0.81105c-0.03281,0.49155 -0.12694,0.84382 -0.28264,1.05682c-0.14746,0.213 -0.35232,0.3195 -0.61443,0.3195c-0.30316,0 -0.53247,-0.13927 -0.68816,-0.41781c-0.1557,-0.28673 -0.23348,-0.76599 -0.23348,-1.43777c0,-0.34408 0.00823,-0.72912 0.02458,-1.15513c0.01634,-0.42601 0.03687,-0.85201 0.06144,-1.27802c0.03281,-0.43419 0.06968,-0.82743 0.1106,-1.17971c0.08197,-0.66359 0.20067,-1.18791 0.35637,-1.57295c0.1557,-0.39324 0.38918,-0.58985 0.70045,-0.58985zM81.28169,176.19052h-0.24577c-0.02458,-0.36046 -0.01634,-0.70045 0.02458,-1.01996c0.04092,-0.3277 0.12694,-0.58985 0.25806,-0.78647c0.13923,-0.20481 0.33585,-0.30722 0.58985,-0.30722c0.22943,0 0.39729,0.07373 0.50383,0.2212c0.10654,0.14746 0.15975,0.35227 0.15975,0.61443c0,0.51612 -0.09831,0.95851 -0.29493,1.32717l-0.2212,-0.02458c0.44239,-0.15566 0.94217,-0.23348 1.49921,-0.23348c0.35232,0 0.63078,0.06964 0.83563,0.20891c0.21296,0.13108 0.3195,0.35637 0.3195,0.67588c0,0.30312 -0.12289,0.5325 -0.36866,0.68816c-0.24577,0.15566 -0.55299,0.23348 -0.92165,0.23348c-0.2212,0 -0.45873,-0.0082 -0.71274,-0.02458c-0.24577,-0.02458 -0.48749,-0.06144 -0.72503,-0.1106l0.20891,-0.25806c0.07373,0.31131 0.14341,0.66768 0.20891,1.06911c0.07373,0.39324 0.13923,0.80285 0.19662,1.22886c0.05739,0.42601 0.10236,0.83972 0.13518,1.24115c0.03281,0.40143 0.04915,0.7619 0.04915,1.0814c0,0.52432 -0.08197,0.93803 -0.24577,1.24115c-0.16381,0.30312 -0.40553,0.45468 -0.72503,0.45468c-0.25401,0 -0.45468,-0.07782 -0.60214,-0.23348c-0.13923,-0.15566 -0.24172,-0.35228 -0.30722,-0.58985c-0.05739,-0.24577 -0.09425,-0.49974 -0.1106,-0.7619c-0.00823,-0.26215 -0.01229,-0.49974 -0.01229,-0.71274c0,-0.36046 0.01634,-0.76599 0.04915,-1.21658c0.03281,-0.45877 0.07779,-0.92984 0.13518,-1.41319c0.0655,-0.48335 0.13923,-0.95032 0.2212,-1.4009l0.24577,0.20891c-0.41781,0.213 -0.93394,0.3195 -1.54837,0.3195c-0.37689,0 -0.66764,-0.06964 -0.87249,-0.20891c-0.20485,-0.13927 -0.30722,-0.35637 -0.30722,-0.6513c0,-0.3195 0.11465,-0.56528 0.34408,-0.73732c0.22943,-0.18024 0.53664,-0.27035 0.92165,-0.27035c0.25401,0 0.49155,0.01638 0.71274,0.04915c0.22943,0.02458 0.4301,0.05735 0.60214,0.09831zM88.57536,183.62515c-0.65535,0 -1.22886,-0.14337 -1.72041,-0.4301c-0.48331,-0.29493 -0.8602,-0.71274 -1.13055,-1.25344c-0.26212,-0.5407 -0.39324,-1.1838 -0.39324,-1.92932c0,-0.77828 0.13518,-1.45826 0.40553,-2.03991c0.27035,-0.58166 0.6513,-1.03634 1.14284,-1.36404c0.49978,-0.3277 1.07734,-0.49155 1.7327,-0.49155c0.70451,0 1.31488,0.15975 1.83101,0.47926c0.51612,0.31131 0.91759,0.74961 1.20429,1.31488c0.28669,0.56528 0.4301,1.22477 0.4301,1.97847c0,0.77009 -0.14341,1.43368 -0.4301,1.99076c-0.28669,0.55708 -0.69222,0.98718 -1.21658,1.29031c-0.52436,0.30312 -1.14284,0.45468 -1.85558,0.45468zM88.7474,181.96618c0.50789,0 0.90936,-0.20071 1.20429,-0.60214c0.30316,-0.40962 0.45468,-0.95032 0.45468,-1.6221c0,-0.67997 -0.15152,-1.22067 -0.45468,-1.6221c-0.29493,-0.40143 -0.6964,-0.60214 -1.20429,-0.60214c-0.52436,0 -0.93799,0.20071 -1.24115,0.60214c-0.30316,0.40143 -0.45468,0.94213 -0.45468,1.6221c0,0.67178 0.15152,1.21248 0.45468,1.6221c0.30316,0.40143 0.7168,0.60214 1.24115,0.60214zM94.5834,173.85568c0.26212,0 0.44239,0.10241 0.5407,0.30722c0.10642,0.20481 0.15975,0.51203 0.15975,0.92165c0,0.35228 -0.02052,0.79467 -0.06144,1.32717c-0.04104,0.5325 -0.09425,1.04453 -0.15975,1.53608h-0.07373c0.27035,-0.50793 0.61849,-0.91756 1.04453,-1.22886c0.42592,-0.31131 0.87655,-0.46697 1.35175,-0.46697c0.41781,0 0.79053,0.1024 1.11827,0.30722c0.32762,0.19662 0.59391,0.50793 0.79876,0.93394c0.18838,0.38504 0.32762,0.84382 0.41781,1.37633c0.09008,0.52432 0.13518,1.02405 0.13518,1.49921c0,0.7619 -0.05333,1.36813 -0.15975,1.81872c-0.09831,0.45059 -0.23766,0.77828 -0.41781,0.98309c-0.18027,0.19662 -0.39324,0.29493 -0.63901,0.29493c-0.51612,0 -0.77418,-0.42191 -0.77418,-1.26573c0,-0.40962 0.0204,-0.83154 0.06144,-1.26573c0.04915,-0.43419 0.07373,-0.83154 0.07373,-1.192c0,-0.61443 -0.09831,-1.0732 -0.29493,-1.37633c-0.18851,-0.31131 -0.46291,-0.46697 -0.82334,-0.46697c-0.45062,0 -0.81523,0.20071 -1.09369,0.60214c-0.27858,0.40143 -0.41781,0.95442 -0.41781,1.65897c0,0.36866 0.03269,0.77418 0.09831,1.21658c0.0655,0.43419 0.09831,0.83154 0.09831,1.192c0,0.40143 -0.07791,0.69226 -0.23348,0.87249c-0.14746,0.17204 -0.34003,0.25806 -0.57757,0.25806c-0.18027,0 -0.34003,-0.03687 -0.47926,-0.1106c-0.13112,-0.06554 -0.24577,-0.20071 -0.34408,-0.40553c-0.0902,-0.213 -0.16799,-0.52841 -0.23348,-0.94623c-0.04915,-0.3195 -0.09831,-0.69226 -0.14746,-1.11827c-0.04915,-0.42601 -0.0902,-0.87249 -0.12289,-1.33946c-0.03281,-0.46697 -0.06144,-0.92165 -0.08602,-1.36404c-0.01647,-0.45059 -0.02458,-0.8602 -0.02458,-1.22886c0,-1.16333 0.1106,-2.00714 0.33179,-2.53146c0.2212,-0.53251 0.53247,-0.79876 0.93394,-0.79876zM106.21447,183.64973c-0.50789,0 -0.92988,-0.09422 -1.26573,-0.28264c-0.32774,-0.19662 -0.57351,-0.49564 -0.73732,-0.89707c-0.11465,-0.27855 -0.20067,-0.61443 -0.25806,-1.00767c-0.04915,-0.40143 -0.07373,-0.8602 -0.07373,-1.37633c0,-0.88478 0.02863,-1.6139 0.08602,-2.18738c0.05739,-0.58166 0.13923,-1.04863 0.24577,-1.4009c0.11465,-0.36046 0.24172,-0.6513 0.38095,-0.87249c0.2212,-0.33589 0.57351,-0.60624 1.05682,-0.81105c0.48331,-0.20481 1.16742,-0.30722 2.0522,-0.30722c0.58985,0 1.06088,0.09012 1.41319,0.27035c0.36043,0.17204 0.61849,0.40143 0.77418,0.68816c0.16381,0.28673 0.24577,0.60624 0.24577,0.95851c0,0.55708 -0.16381,1.01586 -0.49155,1.37633c-0.32774,0.36046 -0.75784,0.64721 -1.29031,0.8602v0.04915c0.58162,0.06554 1.03225,0.25397 1.35175,0.56528c0.32774,0.30312 0.49155,0.73732 0.49155,1.3026c0,0.45059 -0.11465,0.8643 -0.34408,1.24115c-0.2212,0.36866 -0.52436,0.69226 -0.90936,0.9708c-0.37689,0.27035 -0.80282,0.48335 -1.27802,0.63901c-0.4752,0.14746 -0.95851,0.2212 -1.45006,0.2212zM106.59542,182.17509c0.39324,0 0.74137,-0.06554 1.04453,-0.19662c0.31127,-0.13108 0.55299,-0.30722 0.72503,-0.52841c0.18027,-0.22939 0.27035,-0.48745 0.27035,-0.77418c0,-0.31131 -0.15152,-0.56937 -0.45468,-0.77418c-0.29493,-0.213 -0.75784,-0.3195 -1.38862,-0.3195c-0.42605,0 -0.76595,0.1024 -1.01996,0.30722c-0.24577,0.19662 -0.36866,0.53661 -0.36866,1.01996c0,0.45877 0.09831,0.78647 0.29493,0.98309c0.19662,0.18842 0.4956,0.28264 0.89707,0.28264zM106.64457,178.27959c0.55704,0 1.01996,-0.12289 1.38862,-0.36866c0.37689,-0.25397 0.56528,-0.58166 0.56528,-0.98309c0,-0.29493 -0.11883,-0.5325 -0.35637,-0.71274c-0.23754,-0.18024 -0.5858,-0.27035 -1.04453,-0.27035c-0.49978,0 -0.90936,0.09831 -1.22886,0.29493c-0.3195,0.19662 -0.47926,0.5325 -0.47926,1.00767c0,0.38504 0.10236,0.65539 0.30722,0.81105c0.21296,0.14746 0.4956,0.2212 0.84792,0.2212zM116.92869,183.71117c-0.27858,0 -0.47102,-0.10651 -0.57757,-0.3195c-0.09831,-0.2212 -0.1557,-0.56937 -0.17204,-1.04453l0.12289,0.06144c-0.45873,0.89298 -1.32717,1.33946 -2.60519,1.33946c-0.58162,0 -1.06506,-0.1024 -1.45006,-0.30722c-0.385,-0.213 -0.67182,-0.49155 -0.8602,-0.83563c-0.18027,-0.35228 -0.27035,-0.73323 -0.27035,-1.14284c0,-0.70454 0.24577,-1.26164 0.73732,-1.67125c0.49155,-0.41781 1.14284,-0.62672 1.95389,-0.62672c0.53247,0 0.99538,0.07782 1.38862,0.23348c0.39324,0.15566 0.72908,0.37275 1.00767,0.6513l-0.20891,-0.02458c-0.05739,-0.82743 -0.23754,-1.41729 -0.5407,-1.76956c-0.29493,-0.36046 -0.7168,-0.5407 -1.26573,-0.5407c-0.3195,0 -0.61443,0.04915 -0.88478,0.14746c-0.27035,0.09831 -0.52018,0.20071 -0.74961,0.30722c-0.2212,0.09831 -0.4301,0.14746 -0.62672,0.14746c-0.19662,0 -0.35232,-0.06554 -0.46697,-0.19662c-0.10654,-0.13108 -0.15975,-0.29902 -0.15975,-0.50383c0,-0.29493 0.13923,-0.57347 0.41781,-0.83563c0.28669,-0.26215 0.66359,-0.47516 1.13055,-0.63901c0.46697,-0.16384 0.97486,-0.24577 1.52379,-0.24577c0.66359,0 1.23292,0.15975 1.70812,0.47926c0.4752,0.3195 0.83563,0.78647 1.0814,1.4009c0.21296,0.52432 0.3646,1.11007 0.45468,1.75728c0.09008,0.64721 0.13518,1.33946 0.13518,2.07678c0,0.55708 -0.02863,0.98718 -0.08602,1.29031c-0.05739,0.30312 -0.14746,0.51612 -0.27035,0.63901c-0.11465,0.11469 -0.27035,0.17204 -0.46697,0.17204zM114.2129,182.33484c0.27035,0 0.54476,-0.03687 0.82334,-0.1106c0.27858,-0.08193 0.51207,-0.20071 0.70045,-0.35637c0.18838,-0.15566 0.28264,-0.34817 0.28264,-0.57757c0,-0.19662 -0.08197,-0.35637 -0.24577,-0.47926c-0.1557,-0.13108 -0.3646,-0.22939 -0.62672,-0.29493c-0.25401,-0.06554 -0.52841,-0.09831 -0.82334,-0.09831c-0.49978,0 -0.88073,0.08602 -1.14284,0.25806c-0.25401,0.17204 -0.38095,0.40143 -0.38095,0.68816c0,0.31131 0.11883,0.55299 0.35637,0.72503c0.24577,0.16384 0.59809,0.24577 1.05682,0.24577zM120.50444,175.94475c0.26212,0 0.43821,0.10651 0.52841,0.3195c0.09831,0.213 0.14746,0.52841 0.14746,0.94623c0,0.09831 -0.00823,0.20481 -0.02458,0.3195c-0.00823,0.10651 -0.02458,0.20481 -0.04915,0.29493l-0.02458,-0.24577c0.19662,-0.5325 0.49966,-0.94623 0.90936,-1.24115c0.40958,-0.30312 0.84374,-0.45468 1.3026,-0.45468c0.50789,0 0.92976,0.14337 1.26573,0.4301c0.34408,0.28673 0.59797,0.68816 0.7619,1.20429c0.17204,0.51612 0.25806,1.12646 0.25806,1.83101c0,0.43419 -0.02052,0.8643 -0.06144,1.29031c-0.03281,0.41781 -0.08197,0.80285 -0.14746,1.15513c-0.05739,0.34408 -0.12289,0.62672 -0.19662,0.84792c-0.09831,0.27855 -0.22537,0.48745 -0.38095,0.62672c-0.1557,0.13108 -0.34003,0.19662 -0.55299,0.19662c-0.21308,0 -0.37689,-0.07782 -0.49155,-0.23348c-0.11478,-0.15566 -0.17204,-0.36457 -0.17204,-0.62672c0,-0.27855 0.0204,-0.61443 0.06144,-1.00767c0.04092,-0.40143 0.07779,-0.80696 0.1106,-1.21658c0.04092,-0.41781 0.06144,-0.79467 0.06144,-1.13055c0,-1.14694 -0.37689,-1.72041 -1.13055,-1.72041c-0.40147,0 -0.73732,0.18024 -1.00767,0.5407c-0.27035,0.35228 -0.45062,0.85611 -0.5407,1.5115c-0.02458,0.2212 -0.03687,0.49564 -0.03687,0.82334c0,0.3277 0,0.65539 0,0.98309c0.00811,0.3195 0,0.58985 -0.02458,0.81105c-0.03281,0.49155 -0.12706,0.84382 -0.28264,1.05682c-0.14746,0.213 -0.35232,0.3195 -0.61443,0.3195c-0.30316,0 -0.53259,-0.13927 -0.68816,-0.41781c-0.1557,-0.28673 -0.23348,-0.76599 -0.23348,-1.43777c0,-0.34408 0.00811,-0.72912 0.02458,-1.15513c0.01634,-0.42601 0.03687,-0.85201 0.06144,-1.27802c0.03269,-0.43419 0.06955,-0.82743 0.1106,-1.17971c0.08184,-0.66359 0.20067,-1.18791 0.35637,-1.57295c0.15557,-0.39324 0.38906,-0.58985 0.70045,-0.58985zM129.42255,183.39166c-0.77013,0 -1.39685,-0.29493 -1.88016,-0.88478c-0.48343,-0.59805 -0.72503,-1.50331 -0.72503,-2.71579c0,-1.2944 0.23348,-2.24062 0.70045,-2.83868c0.46697,-0.59805 1.0814,-0.89707 1.8433,-0.89707c0.4505,0 0.84792,0.11469 1.192,0.34408c0.34408,0.22939 0.63901,0.55299 0.88478,0.9708l-0.09831,0.17204c-0.02458,-0.11469 -0.0451,-0.23758 -0.06144,-0.36866c-0.01647,-0.13108 -0.02458,-0.22939 -0.02458,-0.29493c0,-0.33589 0.05321,-0.59395 0.15975,-0.77418c0.11465,-0.18842 0.29075,-0.28264 0.52841,-0.28264c0.26212,0 0.46697,0.10651 0.61443,0.3195c0.15557,0.213 0.27441,0.51612 0.35637,0.90936c0.10642,0.40143 0.19662,0.91345 0.27035,1.53608c0.07373,0.61443 0.1106,1.23706 0.1106,1.86787c0,0.78647 -0.02876,1.44597 -0.08602,1.97847c-0.05739,0.5325 -0.15164,0.97489 -0.28264,1.32717c-0.13112,0.35228 -0.30316,0.65949 -0.51612,0.92165c-0.35232,0.42601 -0.80699,0.74961 -1.36404,0.9708c-0.54893,0.22939 -1.18389,0.34408 -1.90474,0.34408c-0.51612,0 -0.92988,-0.04915 -1.24115,-0.14746c-0.31139,-0.09011 -0.53664,-0.2171 -0.67588,-0.38095c-0.13112,-0.15566 -0.19662,-0.33179 -0.19662,-0.52841c0,-0.20481 0.05727,-0.37686 0.17204,-0.51612c0.11465,-0.13108 0.28669,-0.19662 0.51612,-0.19662c0.20473,0 0.44239,0.03277 0.71274,0.09831c0.27846,0.06554 0.6062,0.09831 0.98309,0.09831c0.79458,0 1.35581,-0.18842 1.68354,-0.56528c0.33585,-0.36866 0.50383,-0.90116 0.50383,-1.59752c0,-0.18842 -0.01229,-0.40962 -0.03687,-0.66359l0.17204,0.06144c-0.20485,0.52432 -0.50801,0.94623 -0.90936,1.26573c-0.40147,0.31131 -0.86844,0.46697 -1.4009,0.46697zM129.88951,181.88016c0.26212,0 0.52423,-0.06964 0.78647,-0.20891c0.26212,-0.13927 0.47926,-0.36866 0.6513,-0.68816c0.17204,-0.3195 0.25806,-0.74961 0.25806,-1.29031c0,-0.64721 -0.15164,-1.17562 -0.45468,-1.58523c-0.30316,-0.40962 -0.72921,-0.61443 -1.27802,-0.61443c-0.4752,0 -0.82334,0.18024 -1.04453,0.5407c-0.2212,0.36046 -0.33179,0.90527 -0.33179,1.63439c0,0.69636 0.1106,1.24115 0.33179,1.63439c0.2212,0.38504 0.58162,0.57757 1.0814,0.57757zM140.32171,183.51455c-0.2212,0 -0.39324,-0.07373 -0.51612,-0.2212c-0.11478,-0.15566 -0.19256,-0.35228 -0.23348,-0.58985c-0.04104,-0.24577 -0.06144,-0.50383 -0.06144,-0.77418l0.06144,-0.04915c-0.08197,0.35228 -0.24172,0.65539 -0.47926,0.90936c-0.23766,0.25397 -0.51207,0.45059 -0.82334,0.58985c-0.31139,0.13108 -0.62267,0.19662 -0.93394,0.19662c-0.41781,0 -0.79876,-0.09831 -1.14284,-0.29493c-0.34408,-0.19662 -0.61038,-0.49974 -0.79876,-0.90936c-0.18851,-0.43419 -0.33597,-0.979 -0.44239,-1.63439c-0.10654,-0.66359 -0.15975,-1.34355 -0.15975,-2.03991c0,-0.37686 0.01634,-0.72503 0.04915,-1.04453c0.03269,-0.3195 0.08602,-0.58166 0.15975,-0.78647c0.0655,-0.213 0.16381,-0.36866 0.29493,-0.46697c0.131,-0.10651 0.29898,-0.15975 0.50383,-0.15975c0.23754,0 0.42187,0.09422 0.55299,0.28264c0.13923,0.18024 0.22525,0.43419 0.25806,0.7619c0.03269,0.27035 0.05321,0.60624 0.06144,1.00767c0.01634,0.39324 0.02863,0.79056 0.03687,1.192c0.01634,0.39324 0.03687,0.72503 0.06144,0.99538c0.04915,0.49155 0.1761,0.85611 0.38095,1.09369c0.20473,0.22939 0.45468,0.34408 0.74961,0.34408c0.43416,0 0.76595,-0.16384 0.99538,-0.49155c0.22931,-0.3277 0.34408,-0.78647 0.34408,-1.37633c0,-0.29493 -0.01647,-0.62672 -0.04915,-0.99538c-0.03281,-0.37686 -0.06968,-0.74141 -0.1106,-1.09369c-0.03281,-0.35228 -0.04915,-0.6431 -0.04915,-0.87249c0,-0.38504 0.0655,-0.65949 0.19662,-0.82334c0.131,-0.17204 0.31127,-0.25806 0.5407,-0.25806c0.19662,0 0.36043,0.05325 0.49155,0.15975c0.13923,0.10651 0.24983,0.25397 0.33179,0.44239c0.11465,0.24577 0.21296,0.58166 0.29493,1.00767c0.08184,0.42601 0.14746,0.90936 0.19662,1.45006c0.04915,0.5407 0.07373,1.11007 0.07373,1.70812c0,0.91756 -0.06144,1.60572 -0.18433,2.06449c-0.12289,0.45059 -0.34003,0.67588 -0.6513,0.67588zM143.90569,175.94475c0.26212,0 0.43821,0.10651 0.52841,0.3195c0.09831,0.213 0.14746,0.52841 0.14746,0.94623c0,0.09831 -0.00823,0.20481 -0.02458,0.3195c-0.00823,0.10651 -0.02458,0.20481 -0.04915,0.29493l-0.02458,-0.24577c0.19662,-0.5325 0.49966,-0.94623 0.90936,-1.24115c0.40958,-0.30312 0.84374,-0.45468 1.3026,-0.45468c0.50789,0 0.92976,0.14337 1.26573,0.4301c0.34408,0.28673 0.59797,0.68816 0.7619,1.20429c0.17204,0.51612 0.25806,1.12646 0.25806,1.83101c0,0.43419 -0.02052,0.8643 -0.06144,1.29031c-0.03281,0.41781 -0.08197,0.80285 -0.14746,1.15513c-0.05739,0.34408 -0.12289,0.62672 -0.19662,0.84792c-0.09831,0.27855 -0.22537,0.48745 -0.38095,0.62672c-0.1557,0.13108 -0.34003,0.19662 -0.55299,0.19662c-0.21308,0 -0.37689,-0.07782 -0.49155,-0.23348c-0.11478,-0.15566 -0.17204,-0.36457 -0.17204,-0.62672c0,-0.27855 0.0204,-0.61443 0.06144,-1.00767c0.04092,-0.40143 0.07779,-0.80696 0.1106,-1.21658c0.04092,-0.41781 0.06144,-0.79467 0.06144,-1.13055c0,-1.14694 -0.37689,-1.72041 -1.13055,-1.72041c-0.40147,0 -0.73732,0.18024 -1.00767,0.5407c-0.27035,0.35228 -0.45062,0.85611 -0.5407,1.5115c-0.02458,0.2212 -0.03687,0.49564 -0.03687,0.82334c0,0.3277 0,0.65539 0,0.98309c0.00811,0.3195 0,0.58985 -0.02458,0.81105c-0.03281,0.49155 -0.12706,0.84382 -0.28264,1.05682c-0.14746,0.213 -0.35232,0.3195 -0.61443,0.3195c-0.30316,0 -0.53259,-0.13927 -0.68816,-0.41781c-0.1557,-0.28673 -0.23348,-0.76599 -0.23348,-1.43777c0,-0.34408 0.00811,-0.72912 0.02458,-1.15513c0.01634,-0.42601 0.03687,-0.85201 0.06144,-1.27802c0.03269,-0.43419 0.06955,-0.82743 0.1106,-1.17971c0.08184,-0.66359 0.20067,-1.18791 0.35637,-1.57295c0.15557,-0.39324 0.38906,-0.58985 0.70045,-0.58985zM154.65714,183.87092c-0.51612,0 -0.91759,-0.03277 -1.20429,-0.09831c-0.27858,-0.06554 -0.47102,-0.15566 -0.57757,-0.27035c-0.10654,-0.12289 -0.16381,-0.25806 -0.17204,-0.40553c0,-0.22939 0.13518,-0.42191 0.40553,-0.57757c0.27858,-0.15566 0.78647,-0.25397 1.52379,-0.29493l-0.19662,0.23348c-0.09008,-0.41781 -0.1557,-0.90527 -0.19662,-1.46235c-0.04092,-0.55708 -0.05739,-1.13465 -0.04915,-1.7327c0.00823,-0.59805 0.03687,-1.16742 0.08602,-1.70812c0.04915,-0.5489 0.11883,-1.01586 0.20891,-1.4009l1.06911,-0.07373c-0.18027,0.07373 -0.40553,0.13927 -0.67588,0.19662c-0.27035,0.04915 -0.54893,0.07373 -0.83563,0.07373c-0.52436,0 -0.91341,-0.05735 -1.16742,-0.17204c-0.24577,-0.11469 -0.36866,-0.27444 -0.36866,-0.47926c0,-0.36046 0.21714,-0.63901 0.6513,-0.83563c0.44239,-0.20481 1.11827,-0.30722 2.02763,-0.30722c1.0814,0 1.99076,0.18023 2.72808,0.5407c0.74555,0.35228 1.31083,0.84792 1.69583,1.48693c0.385,0.63081 0.57757,1.36813 0.57757,2.21195c0,0.73732 -0.13112,1.41729 -0.39324,2.03991c-0.26212,0.61443 -0.63901,1.15104 -1.13055,1.60981c-0.48331,0.45059 -1.06506,0.80285 -1.74499,1.05682c-0.67182,0.24577 -1.42548,0.36866 -2.26111,0.36866zM156.40212,181.97847c0.27858,0 0.57351,-0.1106 0.88478,-0.33179c0.3195,-0.22939 0.58985,-0.56119 0.81105,-0.99538c0.2212,-0.44239 0.33179,-0.98718 0.33179,-1.63439c0,-0.47516 -0.06968,-0.88887 -0.20891,-1.24115c-0.13112,-0.36046 -0.30316,-0.65949 -0.51612,-0.89707c-0.21296,-0.23758 -0.43834,-0.41372 -0.67588,-0.52841c-0.23754,-0.12289 -0.46291,-0.18433 -0.67588,-0.18433c-0.17204,0 -0.30722,0.10651 -0.40553,0.3195c-0.09008,0.213 -0.1557,0.5325 -0.19662,0.95851c-0.04092,0.41781 -0.06144,0.93803 -0.06144,1.56066c0,0.96671 0.04915,1.70403 0.14746,2.21195c0.09831,0.50793 0.28669,0.7619 0.56528,0.7619zM166.91124,183.71117c-0.27846,0 -0.47102,-0.10651 -0.57757,-0.3195c-0.09831,-0.2212 -0.15557,-0.56937 -0.17204,-1.04453l0.12289,0.06144c-0.45873,0.89298 -1.32717,1.33946 -2.60519,1.33946c-0.58162,0 -1.06493,-0.1024 -1.45006,-0.30722c-0.385,-0.213 -0.6717,-0.49155 -0.8602,-0.83563c-0.18015,-0.35228 -0.27035,-0.73323 -0.27035,-1.14284c0,-0.70454 0.24577,-1.26164 0.73732,-1.67125c0.49155,-0.41781 1.14284,-0.62672 1.95389,-0.62672c0.53259,0 0.99538,0.07782 1.38862,0.23348c0.39324,0.15566 0.72921,0.37275 1.00767,0.6513l-0.20891,-0.02458c-0.05727,-0.82743 -0.23754,-1.41729 -0.5407,-1.76956c-0.29493,-0.36046 -0.7168,-0.5407 -1.26573,-0.5407c-0.3195,0 -0.61443,0.04915 -0.88478,0.14746c-0.27035,0.09831 -0.52018,0.20071 -0.74961,0.30722c-0.2212,0.09831 -0.4301,0.14746 -0.62672,0.14746c-0.19662,0 -0.35219,-0.06554 -0.46697,-0.19662c-0.10642,-0.13108 -0.15975,-0.29902 -0.15975,-0.50383c0,-0.29493 0.13935,-0.57347 0.41781,-0.83563c0.28682,-0.26215 0.66359,-0.47516 1.13055,-0.63901c0.46697,-0.16384 0.97498,-0.24577 1.52379,-0.24577c0.66359,0 1.23304,0.15975 1.70812,0.47926c0.4752,0.3195 0.83563,0.78647 1.0814,1.4009c0.21308,0.52432 0.3646,1.11007 0.45468,1.75728c0.0902,0.64721 0.13518,1.33946 0.13518,2.07678c0,0.55708 -0.02863,0.98718 -0.08602,1.29031c-0.05727,0.30312 -0.14746,0.51612 -0.27035,0.63901c-0.11465,0.11469 -0.27035,0.17204 -0.46697,0.17204zM164.19545,182.33484c0.27035,0 0.54488,-0.03687 0.82334,-0.1106c0.27858,-0.08193 0.51207,-0.20071 0.70045,-0.35637c0.18851,-0.15566 0.28264,-0.34817 0.28264,-0.57757c0,-0.19662 -0.08184,-0.35637 -0.24577,-0.47926c-0.15557,-0.13108 -0.36448,-0.22939 -0.62672,-0.29493c-0.25388,-0.06554 -0.52841,-0.09831 -0.82334,-0.09831c-0.49966,0 -0.8806,0.08602 -1.14284,0.25806c-0.25388,0.17204 -0.38095,0.40143 -0.38095,0.68816c0,0.31131 0.11883,0.55299 0.35637,0.72503c0.24577,0.16384 0.59809,0.24577 1.05682,0.24577zM170.93835,176.19052h-0.24577c-0.02458,-0.36046 -0.01647,-0.70045 0.02458,-1.01996c0.04092,-0.3277 0.12694,-0.58985 0.25806,-0.78647c0.13923,-0.20481 0.33585,-0.30722 0.58985,-0.30722c0.22931,0 0.39729,0.07373 0.50383,0.2212c0.10642,0.14746 0.15975,0.35227 0.15975,0.61443c0,0.51612 -0.09831,0.95851 -0.29493,1.32717l-0.2212,-0.02458c0.44239,-0.15566 0.94205,-0.23348 1.49921,-0.23348c0.35219,0 0.63078,0.06964 0.83563,0.20891c0.21296,0.13108 0.3195,0.35637 0.3195,0.67588c0,0.30312 -0.12289,0.5325 -0.36866,0.68816c-0.24577,0.15566 -0.55299,0.23348 -0.92165,0.23348c-0.2212,0 -0.45886,-0.0082 -0.71274,-0.02458c-0.24577,-0.02458 -0.48749,-0.06144 -0.72503,-0.1106l0.20891,-0.25806c0.07373,0.31131 0.14329,0.66768 0.20891,1.06911c0.07373,0.39324 0.13923,0.80285 0.19662,1.22886c0.05727,0.42601 0.10236,0.83972 0.13518,1.24115c0.03269,0.40143 0.04915,0.7619 0.04915,1.0814c0,0.52432 -0.08197,0.93803 -0.24577,1.24115c-0.16393,0.30312 -0.40553,0.45468 -0.72503,0.45468c-0.25401,0 -0.45468,-0.07782 -0.60214,-0.23348c-0.13935,-0.15566 -0.24172,-0.35228 -0.30722,-0.58985c-0.05739,-0.24577 -0.09425,-0.49974 -0.1106,-0.7619c-0.00823,-0.26215 -0.01229,-0.49974 -0.01229,-0.71274c0,-0.36046 0.01634,-0.76599 0.04915,-1.21658c0.03269,-0.45877 0.07779,-0.92984 0.13518,-1.41319c0.0655,-0.48335 0.13923,-0.95032 0.2212,-1.4009l0.24577,0.20891c-0.41781,0.213 -0.93394,0.3195 -1.54837,0.3195c-0.37689,0 -0.66776,-0.06964 -0.87249,-0.20891c-0.20485,-0.13927 -0.30722,-0.35637 -0.30722,-0.6513c0,-0.3195 0.11465,-0.56528 0.34408,-0.73732c0.22931,-0.18024 0.53652,-0.27035 0.92165,-0.27035c0.25388,0 0.49155,0.01638 0.71274,0.04915c0.22931,0.02458 0.4301,0.05735 0.60214,0.09831zM180.73559,183.71117c-0.27772,0 -0.47065,-0.10651 -0.57757,-0.3195c-0.09831,-0.2212 -0.15484,-0.56937 -0.17204,-1.04453l0.12289,0.06144c-0.45837,0.89298 -1.32717,1.33946 -2.60482,1.33946c-0.58162,0 -1.06493,-0.1024 -1.45006,-0.30722c-0.385,-0.213 -0.6717,-0.49155 -0.8602,-0.83563c-0.18015,-0.35228 -0.27035,-0.73323 -0.27035,-1.14284c0,-0.70454 0.24577,-1.26164 0.73732,-1.67125c0.49155,-0.41781 1.14284,-0.62672 1.95389,-0.62672c0.53296,0 0.99501,0.07782 1.38825,0.23348c0.39324,0.15566 0.72995,0.37275 1.00767,0.6513l-0.20891,-0.02458c-0.05653,-0.82743 -0.23717,-1.41729 -0.5407,-1.76956c-0.29493,-0.36046 -0.71643,-0.5407 -1.26573,-0.5407c-0.31914,0 -0.61406,0.04915 -0.88441,0.14746c-0.27035,0.09831 -0.52018,0.20071 -0.74961,0.30722c-0.2212,0.09831 -0.4301,0.14746 -0.62672,0.14746c-0.19662,0 -0.35219,-0.06554 -0.46697,-0.19662c-0.10642,-0.13108 -0.15975,-0.29902 -0.15975,-0.50383c0,-0.29493 0.13935,-0.57347 0.41781,-0.83563c0.28682,-0.26215 0.66359,-0.47516 1.13055,-0.63901c0.46697,-0.16384 0.97498,-0.24577 1.52342,-0.24577c0.66359,0 1.23378,0.15975 1.70812,0.47926c0.47557,0.3195 0.83563,0.78647 1.0814,1.4009c0.21382,0.52432 0.36497,1.11007 0.45468,1.75728c0.09094,0.64721 0.13518,1.33946 0.13518,2.07678c0,0.55708 -0.02826,0.98718 -0.08602,1.29031c-0.05653,0.30312 -0.14746,0.51612 -0.27035,0.63901c-0.11428,0.11469 -0.27035,0.17204 -0.46697,0.17204zM178.0198,182.33484c0.27035,0 0.54562,-0.03687 0.82334,-0.1106c0.27895,-0.08193 0.51244,-0.20071 0.70045,-0.35637c0.18925,-0.15566 0.28264,-0.34817 0.28264,-0.57757c0,-0.19662 -0.08111,-0.35637 -0.24577,-0.47926c-0.15484,-0.13108 -0.36374,-0.22939 -0.62672,-0.29493c-0.25315,-0.06554 -0.52841,-0.09831 -0.82334,-0.09831c-0.49929,0 -0.88024,0.08602 -1.14247,0.25806c-0.25388,0.17204 -0.38095,0.40143 -0.38095,0.68816c0,0.31131 0.11883,0.55299 0.35637,0.72503c0.24577,0.16384 0.59809,0.24577 1.05645,0.24577zM183.05814,178.04611c0,-0.78647 0.07373,-1.35175 0.2212,-1.69583c0.14746,-0.35228 0.35637,-0.52841 0.62672,-0.52841c0.21259,0 0.38095,0.09011 0.50383,0.27035c0.12289,0.17204 0.21259,0.38914 0.27035,0.6513c0.05776,0.25397 0.08602,0.51203 0.08602,0.77418l-0.06144,-0.02458c0.13886,-0.44239 0.35268,-0.82334 0.63901,-1.14284c0.29493,-0.3195 0.64761,-0.47926 1.05682,-0.47926c0.48294,0 0.83931,0.20071 1.06911,0.60214c0.2298,0.39324 0.34408,0.88478 0.34408,1.47464c0,0.78647 -0.08971,1.33537 -0.27035,1.64668c-0.18064,0.31131 -0.4215,0.46697 -0.72503,0.46697c-0.2212,0 -0.38463,-0.09011 -0.49155,-0.27035c-0.09831,-0.18024 -0.13149,-0.49974 -0.09831,-0.95851c0.03318,-0.48335 0.00369,-0.81925 -0.08602,-1.00767c-0.08971,-0.18842 -0.23348,-0.28264 -0.4301,-0.28264c-0.23717,0 -0.43379,0.15156 -0.58985,0.45468c-0.14746,0.29493 -0.2212,0.65949 -0.2212,1.09369c0,0.17204 0.02089,0.38914 0.06144,0.6513c0.04055,0.26215 0.08602,0.5489 0.13518,0.8602c0.04915,0.30312 0.09462,0.60624 0.13518,0.90936c0.04055,0.30312 0.06144,0.58166 0.06144,0.83563c0,0.45059 -0.07005,0.77418 -0.20891,0.9708c-0.13886,0.19662 -0.33548,0.29493 -0.58985,0.29493c-0.28633,0 -0.50752,-0.09011 -0.66359,-0.27035c-0.15607,-0.18842 -0.27404,-0.49155 -0.35637,-0.90936c-0.06513,-0.37686 -0.13149,-0.82334 -0.19662,-1.33946c-0.06513,-0.51612 -0.1192,-1.04453 -0.15975,-1.58523c-0.04055,-0.5407 -0.06144,-1.02815 -0.06144,-1.46235zM194.86507,176.28883c-0.38463,0.11469 -0.741,0.20481 -1.06911,0.27035c-0.32811,0.05735 -0.63532,0.08602 -0.92165,0.08602c-0.26175,0 -0.46697,-0.05325 -0.61443,-0.15975c-0.14746,-0.10651 -0.2212,-0.26626 -0.2212,-0.47926c0,-0.18024 0.06144,-0.35228 0.18433,-0.51612c0.12289,-0.16384 0.3109,-0.31131 0.56528,-0.44239c0.30353,-0.14746 0.68816,-0.27035 1.15513,-0.36866c0.46697,-0.09831 1.01135,-0.14746 1.63439,-0.14746c0.41781,0 0.78279,0.02867 1.09369,0.08602c0.3109,0.04915 0.55668,0.1106 0.73732,0.18433c0.23717,0.09831 0.40184,0.213 0.49155,0.34408c0.09831,0.12289 0.14746,0.26626 0.14746,0.4301c0,0.20481 -0.07373,0.37275 -0.2212,0.50383c-0.14746,0.13108 -0.38463,0.19662 -0.71274,0.19662c-0.19662,0 -0.40184,-0.01229 -0.61443,-0.03687c-0.20522,-0.02458 -0.4215,-0.05735 -0.6513,-0.09831zM195.71298,175.62525c0.41781,0.52432 0.741,1.13465 0.9708,1.83101c0.23717,0.68816 0.35637,1.4091 0.35637,2.1628c0,0.78647 -0.1106,1.49102 -0.33179,2.11365c-0.21259,0.61443 -0.55668,1.10189 -1.03225,1.46235c-0.47557,0.35228 -1.10598,0.52841 -1.89245,0.52841c-0.96712,0 -1.69215,-0.27035 -2.17509,-0.81105c-0.48294,-0.5407 -0.72503,-1.28211 -0.72503,-2.22424c0,-0.45877 0.05776,-0.84792 0.17204,-1.16742c0.12289,-0.3195 0.28264,-0.56119 0.47926,-0.72503c0.19662,-0.17204 0.40921,-0.25806 0.63901,-0.25806c0.21259,0 0.37235,0.06554 0.47926,0.19662c0.11428,0.12289 0.17204,0.29902 0.17204,0.52841c0,0.18842 -0.03318,0.39733 -0.09831,0.62672c-0.05776,0.2212 -0.08602,0.4383 -0.08602,0.6513c0,0.5489 0.09462,0.95032 0.28264,1.20429c0.19662,0.24577 0.50752,0.36866 0.93394,0.36866c0.56528,0 0.9622,-0.22939 1.192,-0.68816c0.23717,-0.46697 0.35637,-1.10189 0.35637,-1.90474c0,-0.58166 -0.06144,-1.15104 -0.18433,-1.70812c-0.12289,-0.55708 -0.3195,-1.12646 -0.58985,-1.70812zM204.43669,183.71117c-0.27772,0 -0.47065,-0.10651 -0.57757,-0.3195c-0.09831,-0.2212 -0.15484,-0.56937 -0.17204,-1.04453l0.12289,0.06144c-0.45837,0.89298 -1.32717,1.33946 -2.60519,1.33946c-0.58125,0 -1.0642,-0.1024 -1.45006,-0.30722c-0.38463,-0.213 -0.67096,-0.49155 -0.8602,-0.83563c-0.17941,-0.35228 -0.27035,-0.73323 -0.27035,-1.14284c0,-0.70454 0.24577,-1.26164 0.73732,-1.67125c0.49155,-0.41781 1.14284,-0.62672 1.95389,-0.62672c0.53333,0 0.99538,0.07782 1.38862,0.23348c0.39324,0.15566 0.72995,0.37275 1.00767,0.6513l-0.20891,-0.02458c-0.05653,-0.82743 -0.23717,-1.41729 -0.5407,-1.76956c-0.29493,-0.36046 -0.71643,-0.5407 -1.26573,-0.5407c-0.3195,0 -0.61443,0.04915 -0.88478,0.14746c-0.27035,0.09831 -0.51981,0.20071 -0.74961,0.30722c-0.2212,0.09831 -0.4301,0.14746 -0.62672,0.14746c-0.19662,0 -0.35146,-0.06554 -0.46697,-0.19662c-0.10568,-0.13108 -0.15975,-0.29902 -0.15975,-0.50383c0,-0.29493 0.14009,-0.57347 0.41781,-0.83563c0.28755,-0.26215 0.66359,-0.47516 1.13055,-0.63901c0.46697,-0.16384 0.97572,-0.24577 1.52379,-0.24577c0.66359,0 1.23378,0.15975 1.70812,0.47926c0.47557,0.3195 0.83563,0.78647 1.0814,1.4009c0.21382,0.52432 0.36497,1.11007 0.45468,1.75728c0.09094,0.64721 0.13518,1.33946 0.13518,2.07678c0,0.55708 -0.02826,0.98718 -0.08602,1.29031c-0.05653,0.30312 -0.14746,0.51612 -0.27035,0.63901c-0.11428,0.11469 -0.27035,0.17204 -0.46697,0.17204zM201.7209,182.33484c0.27035,0 0.54562,-0.03687 0.82334,-0.1106c0.27895,-0.08193 0.51244,-0.20071 0.70045,-0.35637c0.18925,-0.15566 0.28264,-0.34817 0.28264,-0.57757c0,-0.19662 -0.08111,-0.35637 -0.24577,-0.47926c-0.15484,-0.13108 -0.36374,-0.22939 -0.62672,-0.29493c-0.25315,-0.06554 -0.52841,-0.09831 -0.82334,-0.09831c-0.49892,0 -0.87987,0.08602 -1.14284,0.25806c-0.25315,0.17204 -0.38095,0.40143 -0.38095,0.68816c0,0.31131 0.1192,0.55299 0.35637,0.72503c0.24577,0.16384 0.59846,0.24577 1.05682,0.24577zM206.82068,186.14432c-0.32688,0 -0.62181,-0.06968 -0.88478,-0.20891c-0.26175,-0.13927 -0.47065,-0.31541 -0.62672,-0.52841c-0.15484,-0.213 -0.23348,-0.4301 -0.23348,-0.6513c0,-0.18842 0.04915,-0.33589 0.14746,-0.44239c0.09831,-0.10651 0.22611,-0.15975 0.38095,-0.15975c0.27035,0 0.56159,0.1024 0.87249,0.30722c0.31213,0.20481 0.60706,0.48745 0.88478,0.84792l-0.18433,-0.02458c-0.13886,-1.14694 -0.24577,-2.24473 -0.3195,-3.29335c-0.06513,-1.05682 -0.09831,-2.00305 -0.09831,-2.83868c0,-0.7619 0.06144,-1.33126 0.18433,-1.70812c0.13149,-0.38504 0.34408,-0.57757 0.63901,-0.57757c0.33671,0 0.60214,0.26215 0.79876,0.78647c0.19662,0.52432 0.29493,1.4091 0.29493,2.65435c0,0.5489 -0.01598,1.11417 -0.04915,1.69583c-0.03195,0.57347 -0.08111,1.11827 -0.14746,1.63439c-0.05653,0.51612 -0.13886,0.95032 -0.24577,1.3026c-0.13026,0.42601 -0.3109,0.73323 -0.5407,0.92165c-0.2212,0.18838 -0.51121,0.28264 -0.87249,0.28264zM207.38596,175.84644c-0.26175,0 -0.47434,-0.05735 -0.63901,-0.17204c-0.15484,-0.12289 -0.23348,-0.30722 -0.23348,-0.55299c0,-0.27854 0.09462,-0.51203 0.28264,-0.70045c0.19662,-0.19662 0.47188,-0.29493 0.82334,-0.29493c0.29493,0 0.52104,0.07373 0.67588,0.2212c0.15607,0.13927 0.23348,0.3277 0.23348,0.56528c0,0.29493 -0.10568,0.52432 -0.3195,0.68816c-0.21259,0.16384 -0.48663,0.24577 -0.82334,0.24577zM215.5493,183.71117c-0.27772,0 -0.47065,-0.10651 -0.57757,-0.3195c-0.09831,-0.2212 -0.15484,-0.56937 -0.17204,-1.04453l0.12289,0.06144c-0.45837,0.89298 -1.32717,1.33946 -2.60519,1.33946c-0.58125,0 -1.0642,-0.1024 -1.45006,-0.30722c-0.38463,-0.213 -0.67096,-0.49155 -0.8602,-0.83563c-0.17941,-0.35228 -0.27035,-0.73323 -0.27035,-1.14284c0,-0.70454 0.24577,-1.26164 0.73732,-1.67125c0.49155,-0.41781 1.14284,-0.62672 1.95389,-0.62672c0.53333,0 0.99538,0.07782 1.38862,0.23348c0.39324,0.15566 0.72995,0.37275 1.00767,0.6513l-0.20891,-0.02458c-0.05653,-0.82743 -0.23717,-1.41729 -0.5407,-1.76956c-0.29493,-0.36046 -0.71643,-0.5407 -1.26573,-0.5407c-0.3195,0 -0.61443,0.04915 -0.88478,0.14746c-0.27035,0.09831 -0.51981,0.20071 -0.74961,0.30722c-0.2212,0.09831 -0.4301,0.14746 -0.62672,0.14746c-0.19662,0 -0.35146,-0.06554 -0.46697,-0.19662c-0.10568,-0.13108 -0.15975,-0.29902 -0.15975,-0.50383c0,-0.29493 0.14009,-0.57347 0.41781,-0.83563c0.28755,-0.26215 0.66359,-0.47516 1.13055,-0.63901c0.46697,-0.16384 0.97572,-0.24577 1.52379,-0.24577c0.66359,0 1.23378,0.15975 1.70812,0.47926c0.47557,0.3195 0.83563,0.78647 1.0814,1.4009c0.21382,0.52432 0.36497,1.11007 0.45468,1.75728c0.09094,0.64721 0.13518,1.33946 0.13518,2.07678c0,0.55708 -0.02826,0.98718 -0.08602,1.29031c-0.05653,0.30312 -0.14746,0.51612 -0.27035,0.63901c-0.11428,0.11469 -0.27035,0.17204 -0.46697,0.17204zM212.83351,182.33484c0.27035,0 0.54562,-0.03687 0.82334,-0.1106c0.27895,-0.08193 0.51244,-0.20071 0.70045,-0.35637c0.18925,-0.15566 0.28264,-0.34817 0.28264,-0.57757c0,-0.19662 -0.08111,-0.35637 -0.24577,-0.47926c-0.15484,-0.13108 -0.36374,-0.22939 -0.62672,-0.29493c-0.25315,-0.06554 -0.52841,-0.09831 -0.82334,-0.09831c-0.49892,0 -0.87987,0.08602 -1.14284,0.25806c-0.25315,0.17204 -0.38095,0.40143 -0.38095,0.68816c0,0.31131 0.1192,0.55299 0.35637,0.72503c0.24577,0.16384 0.59846,0.24577 1.05682,0.24577zM217.87185,178.04611c0,-0.78647 0.07373,-1.35175 0.2212,-1.69583c0.14746,-0.35228 0.35637,-0.52841 0.62672,-0.52841c0.21382,0 0.38095,0.09011 0.50383,0.27035c0.12289,0.17204 0.21382,0.38914 0.27035,0.6513c0.05776,0.25397 0.08602,0.51203 0.08602,0.77418l-0.06144,-0.02458c0.14009,-0.44239 0.35268,-0.82334 0.63901,-1.14284c0.29493,-0.3195 0.64761,-0.47926 1.05682,-0.47926c0.48417,0 0.84054,0.20071 1.06911,0.60214c0.2298,0.39324 0.34408,0.88478 0.34408,1.47464c0,0.78647 -0.08971,1.33537 -0.27035,1.64668c-0.17941,0.31131 -0.4215,0.46697 -0.72503,0.46697c-0.2212,0 -0.38463,-0.09011 -0.49155,-0.27035c-0.09831,-0.18024 -0.13026,-0.49974 -0.09831,-0.95851c0.03318,-0.48335 0.00492,-0.81925 -0.08602,-1.00767c-0.08971,-0.18842 -0.23348,-0.28264 -0.4301,-0.28264c-0.23717,0 -0.43379,0.15156 -0.58985,0.45468c-0.14746,0.29493 -0.2212,0.65949 -0.2212,1.09369c0,0.17204 0.02089,0.38914 0.06144,0.6513c0.04178,0.26215 0.08602,0.5489 0.13518,0.8602c0.04915,0.30312 0.09462,0.60624 0.13518,0.90936c0.04178,0.30312 0.06144,0.58166 0.06144,0.83563c0,0.45059 -0.06882,0.77418 -0.20891,0.9708c-0.13886,0.19662 -0.33548,0.29493 -0.58985,0.29493c-0.28633,0 -0.50752,-0.09011 -0.66359,-0.27035c-0.15484,-0.18842 -0.27404,-0.49155 -0.35637,-0.90936c-0.06513,-0.37686 -0.13026,-0.82334 -0.19662,-1.33946c-0.06513,-0.51612 -0.11797,-1.04453 -0.15975,-1.58523c-0.04055,-0.5407 -0.06144,-1.02815 -0.06144,-1.46235zM231.95217,180.17204c-0.24577,0.03277 -0.47557,0.05325 -0.68816,0.06144c-0.20522,0.0082 -0.40184,0.01229 -0.58985,0.01229c-0.5493,0 -0.91796,-0.04096 -1.10598,-0.12289c-0.18802,-0.09011 -0.28264,-0.24168 -0.28264,-0.45468c0,-0.13927 0.04547,-0.26626 0.13518,-0.38095c0.09831,-0.11469 0.23717,-0.213 0.41781,-0.29493c0.21259,-0.09011 0.52472,-0.17204 0.93394,-0.24577c0.41781,-0.08193 0.84792,-0.12289 1.29031,-0.12289c0.57388,0 1.01627,0.04915 1.32717,0.14746c0.3195,0.09011 0.47926,0.26626 0.47926,0.52841c0,0.20481 -0.08233,0.38095 -0.24577,0.52841c-0.16344,0.13927 -0.43379,0.22939 -0.81105,0.27035zM232.86153,179.92627c0.21259,0.27035 0.36497,0.54479 0.45468,0.82334c0.08971,0.27855 0.13518,0.52841 0.13518,0.74961c0,0.36866 -0.1106,0.72503 -0.33179,1.06911c-0.21259,0.33589 -0.5493,0.61443 -1.00767,0.83563c-0.45837,0.213 -1.06051,0.3195 -1.80643,0.3195c-0.95851,0 -1.75728,-0.17613 -2.39628,-0.52841c-0.63041,-0.36046 -1.10229,-0.8643 -1.41319,-1.5115c-0.3109,-0.65539 -0.46697,-1.41729 -0.46697,-2.28569c0,-0.93394 0.19662,-1.76137 0.58985,-2.4823c0.39324,-0.72094 0.94991,-1.28211 1.67125,-1.68354c0.72134,-0.40962 1.56434,-0.61443 2.53146,-0.61443c0.80245,0 1.41688,0.14337 1.8433,0.4301c0.43379,0.27855 0.6513,0.60624 0.6513,0.98309c0,0.22939 -0.07742,0.40962 -0.23348,0.5407c-0.14746,0.12289 -0.36497,0.18433 -0.6513,0.18433c-0.17204,0 -0.35268,-0.02867 -0.5407,-0.08602c-0.18064,-0.05735 -0.38463,-0.1106 -0.61443,-0.15975c-0.2212,-0.05735 -0.47557,-0.08602 -0.7619,-0.08602c-0.52472,0 -1.00767,0.09831 -1.45006,0.29493c-0.44239,0.18842 -0.79876,0.50383 -1.06911,0.94623c-0.26175,0.43419 -0.39324,1.01996 -0.39324,1.75728c0,0.63081 0.1192,1.14694 0.35637,1.54837c0.24577,0.39324 0.58617,0.68407 1.01996,0.87249c0.43379,0.18024 0.93025,0.27035 1.48693,0.27035c0.37726,0 0.67219,-0.04096 0.88478,-0.12289c0.2212,-0.08193 0.37726,-0.20481 0.46697,-0.36866c0.09831,-0.16384 0.14746,-0.37275 0.14746,-0.62672c0,-0.13927 -0.02089,-0.31131 -0.06144,-0.51612c-0.03318,-0.20481 -0.08602,-0.40962 -0.15975,-0.61443zM238.26976,183.68659c-0.90936,0 -1.63439,-0.13518 -2.17509,-0.40553c-0.5407,-0.27035 -0.93025,-0.65949 -1.16742,-1.16742c-0.23717,-0.50793 -0.35637,-1.11417 -0.35637,-1.81872c0,-0.89298 0.16344,-1.65077 0.49155,-2.2734c0.33548,-0.63081 0.79507,-1.11417 1.37633,-1.45006c0.58985,-0.33589 1.25713,-0.50383 2.00305,-0.50383c0.87618,0 1.5201,0.20481 1.92932,0.61443c0.40921,0.40143 0.61443,0.92984 0.61443,1.58523c0,0.52432 -0.13886,0.979 -0.41781,1.36404c-0.27035,0.37686 -0.64761,0.66768 -1.13055,0.87249c-0.48294,0.20481 -1.04085,0.30722 -1.67125,0.30722c-0.35268,0 -0.69185,-0.04506 -1.01996,-0.13518c-0.32811,-0.09011 -0.62303,-0.213 -0.88478,-0.36866l0.29493,-0.5407c-0.02458,0.19662 -0.03687,0.39324 -0.03687,0.58985c0,0.57347 0.18064,0.98718 0.5407,1.24115c0.36006,0.24577 0.87249,0.36866 1.53608,0.36866c0.51612,0 0.93025,-0.04506 1.24115,-0.13518c0.3109,-0.09011 0.57388,-0.17613 0.78647,-0.25806c0.21259,-0.09011 0.4215,-0.13518 0.62672,-0.13518c0.11428,0 0.21751,0.03277 0.30722,0.09831c0.09831,0.05735 0.17573,0.14337 0.23348,0.25806c0.06513,0.11469 0.09831,0.25397 0.09831,0.41781c0,0.24577 -0.12289,0.48335 -0.36866,0.71274c-0.24577,0.2212 -0.61075,0.40553 -1.09369,0.55299c-0.47557,0.13927 -1.06051,0.20891 -1.75728,0.20891zM237.55702,179.66821c0.58125,0 1.04822,-0.12289 1.4009,-0.36866c0.35268,-0.24577 0.52841,-0.5489 0.52841,-0.90936c0,-0.28673 -0.09831,-0.52021 -0.29493,-0.70045c-0.18802,-0.18842 -0.48786,-0.28264 -0.89707,-0.28264c-0.38463,0 -0.73363,0.07373 -1.04453,0.2212c-0.30353,0.13927 -0.5407,0.3236 -0.71274,0.55299c-0.17204,0.22939 -0.25806,0.47926 -0.25806,0.74961c0,0.23758 0.1106,0.42191 0.33179,0.55299c0.2298,0.12289 0.54439,0.18433 0.94623,0.18433zM243.82299,175.94475c0.26175,0 0.4387,0.10651 0.52841,0.3195c0.09831,0.213 0.14746,0.52841 0.14746,0.94623c0,0.09831 -0.0086,0.20481 -0.02458,0.3195c-0.0086,0.10651 -0.02458,0.20481 -0.04915,0.29493l-0.02458,-0.24577c0.19662,-0.5325 0.50015,-0.94623 0.90936,-1.24115c0.40921,-0.30312 0.84423,-0.45468 1.3026,-0.45468c0.50752,0 0.93025,0.14337 1.26573,0.4301c0.34408,0.28673 0.59846,0.68816 0.7619,1.20429c0.17204,0.51612 0.25806,1.12646 0.25806,1.83101c0,0.43419 -0.02089,0.8643 -0.06144,1.29031c-0.03318,0.41781 -0.08233,0.80285 -0.14746,1.15513c-0.05776,0.34408 -0.12289,0.62672 -0.19662,0.84792c-0.09831,0.27855 -0.22488,0.48745 -0.38095,0.62672c-0.15607,0.13108 -0.3404,0.19662 -0.55299,0.19662c-0.21259,0 -0.37726,-0.07782 -0.49155,-0.23348c-0.11428,-0.15566 -0.17204,-0.36457 -0.17204,-0.62672c0,-0.27855 0.02089,-0.61443 0.06144,-1.00767c0.04055,-0.40143 0.07742,-0.80696 0.1106,-1.21658c0.04055,-0.41781 0.06144,-0.79467 0.06144,-1.13055c0,-1.14694 -0.37726,-1.72041 -1.13055,-1.72041c-0.40184,0 -0.73732,0.18024 -1.00767,0.5407c-0.27035,0.35228 -0.45099,0.85611 -0.5407,1.5115c-0.02458,0.2212 -0.03687,0.49564 -0.03687,0.82334c0,0.3277 0,0.65539 0,0.98309c0.0086,0.3195 0,0.58985 -0.02458,0.81105c-0.03318,0.49155 -0.12657,0.84382 -0.28264,1.05682c-0.14746,0.213 -0.35268,0.3195 -0.61443,0.3195c-0.30353,0 -0.5321,-0.13927 -0.68816,-0.41781c-0.15607,-0.28673 -0.23348,-0.76599 -0.23348,-1.43777c0,-0.34408 0.0086,-0.72912 0.02458,-1.15513c0.01598,-0.42601 0.03687,-0.85201 0.06144,-1.27802c0.03318,-0.43419 0.07005,-0.82743 0.1106,-1.17971c0.08233,-0.66359 0.2003,-1.18791 0.35637,-1.57295c0.15607,-0.39324 0.38955,-0.58985 0.70045,-0.58985zM250.45517,186.14432c-0.32811,0 -0.62303,-0.06968 -0.88478,-0.20891c-0.26175,-0.13927 -0.47065,-0.31541 -0.62672,-0.52841c-0.15607,-0.213 -0.23348,-0.4301 -0.23348,-0.6513c0,-0.18842 0.04915,-0.33589 0.14746,-0.44239c0.09831,-0.10651 0.22488,-0.15975 0.38095,-0.15975c0.27035,0 0.56159,0.1024 0.87249,0.30722c0.3109,0.20481 0.60583,0.48745 0.88478,0.84792l-0.18433,-0.02458c-0.13886,-1.14694 -0.24577,-2.24473 -0.3195,-3.29335c-0.06513,-1.05682 -0.09831,-2.00305 -0.09831,-2.83868c0,-0.7619 0.06144,-1.33126 0.18433,-1.70812c0.13149,-0.38504 0.34408,-0.57757 0.63901,-0.57757c0.33548,0 0.60214,0.26215 0.79876,0.78647c0.19662,0.52432 0.29493,1.4091 0.29493,2.65435c0,0.5489 -0.01598,1.11417 -0.04915,1.69583c-0.03318,0.57347 -0.08233,1.11827 -0.14746,1.63439c-0.05776,0.51612 -0.13886,0.95032 -0.24577,1.3026c-0.13149,0.42601 -0.3109,0.73323 -0.5407,0.92165c-0.2212,0.18838 -0.51244,0.28264 -0.87249,0.28264zM251.02045,175.84644c-0.26175,0 -0.47557,-0.05735 -0.63901,-0.17204c-0.15607,-0.12289 -0.23348,-0.30722 -0.23348,-0.55299c0,-0.27854 0.09462,-0.51203 0.28264,-0.70045c0.19662,-0.19662 0.47065,-0.29493 0.82334,-0.29493c0.29493,0 0.51981,0.07373 0.67588,0.2212c0.15607,0.13927 0.23348,0.3277 0.23348,0.56528c0,0.29493 -0.10691,0.52432 -0.3195,0.68816c-0.21259,0.16384 -0.48786,0.24577 -0.82334,0.24577zM259.18379,183.71117c-0.27772,0 -0.47065,-0.10651 -0.57757,-0.3195c-0.09831,-0.2212 -0.15484,-0.56937 -0.17204,-1.04453l0.12289,0.06144c-0.45837,0.89298 -1.32717,1.33946 -2.60519,1.33946c-0.58125,0 -1.0642,-0.1024 -1.45006,-0.30722c-0.38463,-0.213 -0.67096,-0.49155 -0.8602,-0.83563c-0.17941,-0.35228 -0.27035,-0.73323 -0.27035,-1.14284c0,-0.70454 0.24577,-1.26164 0.73732,-1.67125c0.49155,-0.41781 1.14284,-0.62672 1.95389,-0.62672c0.53333,0 0.99538,0.07782 1.38862,0.23348c0.39324,0.15566 0.72995,0.37275 1.00767,0.6513l-0.20891,-0.02458c-0.05653,-0.82743 -0.23717,-1.41729 -0.5407,-1.76956c-0.29493,-0.36046 -0.71643,-0.5407 -1.26573,-0.5407c-0.3195,0 -0.61443,0.04915 -0.88478,0.14746c-0.27035,0.09831 -0.51981,0.20071 -0.74961,0.30722c-0.2212,0.09831 -0.4301,0.14746 -0.62672,0.14746c-0.19662,0 -0.35146,-0.06554 -0.46697,-0.19662c-0.10568,-0.13108 -0.15975,-0.29902 -0.15975,-0.50383c0,-0.29493 0.14009,-0.57347 0.41781,-0.83563c0.28755,-0.26215 0.66359,-0.47516 1.13055,-0.63901c0.46697,-0.16384 0.97572,-0.24577 1.52379,-0.24577c0.66359,0 1.23378,0.15975 1.70812,0.47926c0.47557,0.3195 0.83563,0.78647 1.0814,1.4009c0.21382,0.52432 0.36497,1.11007 0.45468,1.75728c0.09094,0.64721 0.13518,1.33946 0.13518,2.07678c0,0.55708 -0.02826,0.98718 -0.08602,1.29031c-0.05653,0.30312 -0.14746,0.51612 -0.27035,0.63901c-0.11428,0.11469 -0.27035,0.17204 -0.46697,0.17204zM256.468,182.33484c0.27035,0 0.54562,-0.03687 0.82334,-0.1106c0.27895,-0.08193 0.51244,-0.20071 0.70045,-0.35637c0.18925,-0.15566 0.28264,-0.34817 0.28264,-0.57757c0,-0.19662 -0.08111,-0.35637 -0.24577,-0.47926c-0.15484,-0.13108 -0.36374,-0.22939 -0.62672,-0.29493c-0.25315,-0.06554 -0.52841,-0.09831 -0.82334,-0.09831c-0.49892,0 -0.87987,0.08602 -1.14284,0.25806c-0.25315,0.17204 -0.38095,0.40143 -0.38095,0.68816c0,0.31131 0.1192,0.55299 0.35637,0.72503c0.24577,0.16384 0.59846,0.24577 1.05682,0.24577zM262.75978,175.94475c0.26175,0 0.4387,0.10651 0.52841,0.3195c0.09831,0.213 0.14746,0.52841 0.14746,0.94623c0,0.09831 -0.0086,0.20481 -0.02458,0.3195c-0.0086,0.10651 -0.02458,0.20481 -0.04915,0.29493l-0.02458,-0.24577c0.19662,-0.5325 0.50015,-0.94623 0.90936,-1.24115c0.40921,-0.30312 0.84423,-0.45468 1.3026,-0.45468c0.50752,0 0.93025,0.14337 1.26573,0.4301c0.34408,0.28673 0.59846,0.68816 0.7619,1.20429c0.17204,0.51612 0.25806,1.12646 0.25806,1.83101c0,0.43419 -0.02089,0.8643 -0.06144,1.29031c-0.03318,0.41781 -0.08233,0.80285 -0.14746,1.15513c-0.05776,0.34408 -0.12289,0.62672 -0.19662,0.84792c-0.09831,0.27855 -0.22488,0.48745 -0.38095,0.62672c-0.15607,0.13108 -0.3404,0.19662 -0.55299,0.19662c-0.21259,0 -0.37726,-0.07782 -0.49155,-0.23348c-0.11428,-0.15566 -0.17204,-0.36457 -0.17204,-0.62672c0,-0.27855 0.02089,-0.61443 0.06144,-1.00767c0.04055,-0.40143 0.07742,-0.80696 0.1106,-1.21658c0.04055,-0.41781 0.06144,-0.79467 0.06144,-1.13055c0,-1.14694 -0.37726,-1.72041 -1.13055,-1.72041c-0.40184,0 -0.73732,0.18024 -1.00767,0.5407c-0.27035,0.35228 -0.45099,0.85611 -0.5407,1.5115c-0.02458,0.2212 -0.03687,0.49564 -0.03687,0.82334c0,0.3277 0,0.65539 0,0.98309c0.0086,0.3195 0,0.58985 -0.02458,0.81105c-0.03318,0.49155 -0.12657,0.84382 -0.28264,1.05682c-0.14746,0.213 -0.35268,0.3195 -0.61443,0.3195c-0.30353,0 -0.5321,-0.13927 -0.68816,-0.41781c-0.15607,-0.28673 -0.23348,-0.76599 -0.23348,-1.43777c0,-0.34408 0.0086,-0.72912 0.02458,-1.15513c0.01598,-0.42601 0.03687,-0.85201 0.06144,-1.27802c0.03318,-0.43419 0.07005,-0.82743 0.1106,-1.17971c0.08233,-0.66359 0.2003,-1.18791 0.35637,-1.57295c0.15607,-0.39324 0.38955,-0.58985 0.70045,-0.58985zM271.67765,183.39166c-0.76927,0 -1.39599,-0.29493 -1.88016,-0.88478c-0.48294,-0.59805 -0.72503,-1.50331 -0.72503,-2.71579c0,-1.2944 0.23348,-2.24062 0.70045,-2.83868c0.46697,-0.59805 1.0814,-0.89707 1.8433,-0.89707c0.45099,0 0.84792,0.11469 1.192,0.34408c0.34408,0.22939 0.63901,0.55299 0.88478,0.9708l-0.09831,0.17204c-0.02458,-0.11469 -0.04424,-0.23758 -0.06144,-0.36866c-0.01598,-0.13108 -0.02458,-0.22939 -0.02458,-0.29493c0,-0.33589 0.05407,-0.59395 0.15975,-0.77418c0.11551,-0.18842 0.29124,-0.28264 0.52841,-0.28264c0.26298,0 0.46697,0.10651 0.61443,0.3195c0.15607,0.213 0.27527,0.51612 0.35637,0.90936c0.10691,0.40143 0.19662,0.91345 0.27035,1.53608c0.07373,0.61443 0.1106,1.23706 0.1106,1.86787c0,0.78647 -0.02826,1.44597 -0.08602,1.97847c-0.05653,0.5325 -0.15115,0.97489 -0.28264,1.32717c-0.13026,0.35228 -0.3023,0.65949 -0.51612,0.92165c-0.35146,0.42601 -0.80613,0.74961 -1.36404,0.9708c-0.54807,0.22939 -1.1834,0.34408 -1.90474,0.34408c-0.51612,0 -0.92902,-0.04915 -1.24115,-0.14746c-0.3109,-0.09011 -0.53578,-0.2171 -0.67588,-0.38095c-0.13026,-0.15566 -0.19662,-0.33179 -0.19662,-0.52841c0,-0.20481 0.05776,-0.37686 0.17204,-0.51612c0.11551,-0.13108 0.28755,-0.19662 0.51612,-0.19662c0.20522,0 0.44239,0.03277 0.71274,0.09831c0.27895,0.06554 0.60706,0.09831 0.98309,0.09831c0.79507,0 1.35667,-0.18842 1.68354,-0.56528c0.33671,-0.36866 0.50383,-0.90116 0.50383,-1.59752c0,-0.18842 -0.01229,-0.40962 -0.03687,-0.66359l0.17204,0.06144c-0.20399,0.52432 -0.50752,0.94623 -0.90936,1.26573c-0.40061,0.31131 -0.86758,0.46697 -1.4009,0.46697zM272.14462,181.88016c0.26298,0 0.52472,-0.06964 0.78647,-0.20891c0.26298,-0.13927 0.47926,-0.36866 0.6513,-0.68816c0.17204,-0.3195 0.25806,-0.74961 0.25806,-1.29031c0,-0.64721 -0.15115,-1.17562 -0.45468,-1.58523c-0.3023,-0.40962 -0.72872,-0.61443 -1.27802,-0.61443c-0.47434,0 -0.82334,0.18024 -1.04453,0.5407c-0.2212,0.36046 -0.33179,0.90527 -0.33179,1.63439c0,0.69636 0.1106,1.24115 0.33179,1.63439c0.2212,0.38504 0.58248,0.57757 1.0814,0.57757zM282.29626,183.69888c-0.29493,0 -0.53578,-0.10651 -0.72503,-0.3195c-0.17941,-0.2212 -0.27035,-0.61443 -0.27035,-1.17971c0,-0.40143 0.02949,-0.81514 0.08602,-1.24115c0.05776,-0.42601 0.13149,-0.83154 0.2212,-1.21658c0.09094,-0.38504 0.18925,-0.70865 0.29493,-0.9708l0.07373,0.34408c-0.76927,-0.55708 -1.36773,-1.05273 -1.79414,-1.48693c-0.42519,-0.43419 -0.72503,-0.81514 -0.89707,-1.14284c-0.17204,-0.33589 -0.25806,-0.62672 -0.25806,-0.87249c0,-0.20481 0.04178,-0.37686 0.12289,-0.51612c0.09094,-0.13927 0.20522,-0.24577 0.34408,-0.3195c0.14009,-0.08192 0.29493,-0.12289 0.46697,-0.12289c0.39324,0 0.79139,0.29902 1.192,0.89707c0.41044,0.59805 0.83563,1.48693 1.27802,2.66663h0.04915c0.36866,-0.84382 0.74223,-1.53608 1.11827,-2.07678c0.38586,-0.5489 0.75452,-0.95442 1.10598,-1.21658c0.35268,-0.27035 0.6599,-0.40553 0.92165,-0.40553c0.2384,0 0.42273,0.08192 0.55299,0.24577c0.13149,0.15566 0.19662,0.36046 0.19662,0.61443c0,0.36866 -0.14255,0.77418 -0.4301,1.21658c-0.28633,0.43419 -0.69554,0.87249 -1.22886,1.31488c-0.5321,0.44239 -1.17111,0.84792 -1.91703,1.21658l0.1106,-0.23348c0.10691,0.3277 0.20153,0.68407 0.28264,1.06911c0.09094,0.37686 0.15975,0.7537 0.20891,1.13055c0.04915,0.36866 0.07373,0.70045 0.07373,0.99538c0,0.52432 -0.1106,0.92574 -0.33179,1.20429c-0.21259,0.27035 -0.49523,0.40553 -0.84792,0.40553zM292.52163,183.71117c-0.27895,0 -0.47065,-0.10651 -0.57757,-0.3195c-0.09831,-0.2212 -0.15607,-0.56937 -0.17204,-1.04453l0.12289,0.06144c-0.45837,0.89298 -1.32717,1.33946 -2.60519,1.33946c-0.58125,0 -1.06542,-0.1024 -1.45006,-0.30722c-0.38463,-0.213 -0.67219,-0.49155 -0.8602,-0.83563c-0.18064,-0.35228 -0.27035,-0.73323 -0.27035,-1.14284c0,-0.70454 0.24577,-1.26164 0.73732,-1.67125c0.49155,-0.41781 1.14284,-0.62672 1.95389,-0.62672c0.5321,0 0.99538,0.07782 1.38862,0.23348c0.39324,0.15566 0.72872,0.37275 1.00767,0.6513l-0.20891,-0.02458c-0.05776,-0.82743 -0.23717,-1.41729 -0.5407,-1.76956c-0.29493,-0.36046 -0.71643,-0.5407 -1.26573,-0.5407c-0.3195,0 -0.61443,0.04915 -0.88478,0.14746c-0.27035,0.09831 -0.51981,0.20071 -0.74961,0.30722c-0.2212,0.09831 -0.4301,0.14746 -0.62672,0.14746c-0.19662,0 -0.35268,-0.06554 -0.46697,-0.19662c-0.10691,-0.13108 -0.15975,-0.29902 -0.15975,-0.50383c0,-0.29493 0.13886,-0.57347 0.41781,-0.83563c0.28633,-0.26215 0.66359,-0.47516 1.13055,-0.63901c0.46697,-0.16384 0.97449,-0.24577 1.52379,-0.24577c0.66359,0 1.23255,0.15975 1.70812,0.47926c0.47557,0.3195 0.83563,0.78647 1.0814,1.4009c0.21259,0.52432 0.36497,1.11007 0.45468,1.75728c0.08971,0.64721 0.13518,1.33946 0.13518,2.07678c0,0.55708 -0.02826,0.98718 -0.08602,1.29031c-0.05776,0.30312 -0.14746,0.51612 -0.27035,0.63901c-0.11428,0.11469 -0.27035,0.17204 -0.46697,0.17204zM289.80584,182.33484c0.27035,0 0.54439,-0.03687 0.82334,-0.1106c0.27895,-0.08193 0.51244,-0.20071 0.70045,-0.35637c0.18802,-0.15566 0.28264,-0.34817 0.28264,-0.57757c0,-0.19662 -0.08233,-0.35637 -0.24577,-0.47926c-0.15607,-0.13108 -0.36497,-0.22939 -0.62672,-0.29493c-0.25437,-0.06554 -0.52841,-0.09831 -0.82334,-0.09831c-0.50015,0 -0.8811,0.08602 -1.14284,0.25806c-0.25437,0.17204 -0.38095,0.40143 -0.38095,0.68816c0,0.31131 0.1192,0.55299 0.35637,0.72503c0.24577,0.16384 0.59846,0.24577 1.05682,0.24577zM296.09763,175.94475c0.26175,0 0.4387,0.10651 0.52841,0.3195c0.09831,0.213 0.14746,0.52841 0.14746,0.94623c0,0.09831 -0.0086,0.20481 -0.02458,0.3195c-0.0086,0.10651 -0.02458,0.20481 -0.04915,0.29493l-0.02458,-0.24577c0.19662,-0.5325 0.50015,-0.94623 0.90936,-1.24115c0.40921,-0.30312 0.84423,-0.45468 1.3026,-0.45468c0.50752,0 0.93025,0.14337 1.26573,0.4301c0.34408,0.28673 0.59846,0.68816 0.7619,1.20429c0.17204,0.51612 0.25806,1.12646 0.25806,1.83101c0,0.43419 -0.02089,0.8643 -0.06144,1.29031c-0.03318,0.41781 -0.08233,0.80285 -0.14746,1.15513c-0.05776,0.34408 -0.12289,0.62672 -0.19662,0.84792c-0.09831,0.27855 -0.22488,0.48745 -0.38095,0.62672c-0.15607,0.13108 -0.3404,0.19662 -0.55299,0.19662c-0.21259,0 -0.37726,-0.07782 -0.49155,-0.23348c-0.11428,-0.15566 -0.17204,-0.36457 -0.17204,-0.62672c0,-0.27855 0.02089,-0.61443 0.06144,-1.00767c0.04055,-0.40143 0.07742,-0.80696 0.1106,-1.21658c0.04055,-0.41781 0.06144,-0.79467 0.06144,-1.13055c0,-1.14694 -0.37726,-1.72041 -1.13055,-1.72041c-0.40184,0 -0.73732,0.18024 -1.00767,0.5407c-0.27035,0.35228 -0.45099,0.85611 -0.5407,1.5115c-0.02458,0.2212 -0.03687,0.49564 -0.03687,0.82334c0,0.3277 0,0.65539 0,0.98309c0.0086,0.3195 0,0.58985 -0.02458,0.81105c-0.03318,0.49155 -0.12657,0.84382 -0.28264,1.05682c-0.14746,0.213 -0.35268,0.3195 -0.61443,0.3195c-0.30353,0 -0.5321,-0.13927 -0.68816,-0.41781c-0.15607,-0.28673 -0.23348,-0.76599 -0.23348,-1.43777c0,-0.34408 0.0086,-0.72912 0.02458,-1.15513c0.01598,-0.42601 0.03687,-0.85201 0.06144,-1.27802c0.03318,-0.43419 0.07005,-0.82743 0.1106,-1.17971c0.08233,-0.66359 0.2003,-1.18791 0.35637,-1.57295c0.15607,-0.39324 0.38955,-0.58985 0.70045,-0.58985zM305.01549,183.39166c-0.7705,0 -1.39722,-0.29493 -1.88016,-0.88478c-0.48294,-0.59805 -0.72503,-1.50331 -0.72503,-2.71579c0,-1.2944 0.23348,-2.24062 0.70045,-2.83868c0.46697,-0.59805 1.0814,-0.89707 1.8433,-0.89707c0.45099,0 0.84792,0.11469 1.192,0.34408c0.34408,0.22939 0.63901,0.55299 0.88478,0.9708l-0.09831,0.17204c-0.02458,-0.11469 -0.04547,-0.23758 -0.06144,-0.36866c-0.01598,-0.13108 -0.02458,-0.22939 -0.02458,-0.29493c0,-0.33589 0.05284,-0.59395 0.15975,-0.77418c0.11428,-0.18842 0.29124,-0.28264 0.52841,-0.28264c0.26175,0 0.46697,0.10651 0.61443,0.3195c0.15607,0.213 0.27404,0.51612 0.35637,0.90936c0.10691,0.40143 0.19662,0.91345 0.27035,1.53608c0.07373,0.61443 0.1106,1.23706 0.1106,1.86787c0,0.78647 -0.02826,1.44597 -0.08602,1.97847c-0.05776,0.5325 -0.15115,0.97489 -0.28264,1.32717c-0.13149,0.35228 -0.30353,0.65949 -0.51612,0.92165c-0.35268,0.42601 -0.80736,0.74961 -1.36404,0.9708c-0.5493,0.22939 -1.1834,0.34408 -1.90474,0.34408c-0.51612,0 -0.93025,-0.04915 -1.24115,-0.14746c-0.3109,-0.09011 -0.53701,-0.2171 -0.67588,-0.38095c-0.13149,-0.15566 -0.19662,-0.33179 -0.19662,-0.52841c0,-0.20481 0.05776,-0.37686 0.17204,-0.51612c0.11428,-0.13108 0.28633,-0.19662 0.51612,-0.19662c0.20522,0 0.44239,0.03277 0.71274,0.09831c0.27895,0.06554 0.60583,0.09831 0.98309,0.09831c0.79507,0 1.35544,-0.18842 1.68354,-0.56528c0.33548,-0.36866 0.50383,-0.90116 0.50383,-1.59752c0,-0.18842 -0.01229,-0.40962 -0.03687,-0.66359l0.17204,0.06144c-0.20522,0.52432 -0.50752,0.94623 -0.90936,1.26573c-0.40184,0.31131 -0.86881,0.46697 -1.4009,0.46697zM305.48246,181.88016c0.26175,0 0.52472,-0.06964 0.78647,-0.20891c0.26175,-0.13927 0.47926,-0.36866 0.6513,-0.68816c0.17204,-0.3195 0.25806,-0.74961 0.25806,-1.29031c0,-0.64721 -0.15115,-1.17562 -0.45468,-1.58523c-0.30353,-0.40962 -0.72872,-0.61443 -1.27802,-0.61443c-0.47557,0 -0.82334,0.18024 -1.04453,0.5407c-0.2212,0.36046 -0.33179,0.90527 -0.33179,1.63439c0,0.69636 0.1106,1.24115 0.33179,1.63439c0.2212,0.38504 0.58125,0.57757 1.0814,0.57757zM313.21324,183.6743c-0.23717,0 -0.4215,-0.09011 -0.55299,-0.27035c-0.13026,-0.18024 -0.19662,-0.50793 -0.19662,-0.98309c0,-0.33589 0.03687,-0.73732 0.1106,-1.20429c0.08233,-0.47516 0.19293,-0.979 0.33179,-1.5115c0.14009,-0.5407 0.30353,-1.07731 0.49155,-1.60981c0.18925,-0.5407 0.39324,-1.04453 0.61443,-1.5115c0.24577,-0.5325 0.48417,-0.94623 0.71274,-1.24115c0.2298,-0.30312 0.46328,-0.51612 0.70045,-0.63901c0.2384,-0.13108 0.48786,-0.19662 0.74961,-0.19662c0.39324,0 0.75452,0.15566 1.0814,0.46697c0.33671,0.31131 0.65621,0.82743 0.95851,1.54837c0.2212,0.5489 0.42273,1.15104 0.60214,1.80643c0.18064,0.65539 0.3195,1.31898 0.41781,1.99076c0.10691,0.67178 0.15975,1.30669 0.15975,1.90474c0,0.49974 -0.08602,0.8684 -0.25806,1.10598c-0.16344,0.22939 -0.39324,0.34408 -0.68816,0.34408c-0.28633,0 -0.50752,-0.12698 -0.66359,-0.38095c-0.15484,-0.25397 -0.26543,-0.67588 -0.33179,-1.26573c-0.03195,-0.36046 -0.04915,-0.73323 -0.04915,-1.11827c0,-0.39324 0.0172,-0.76599 0.04915,-1.11827l0.20891,0.94623c-0.28633,0.09831 -0.64638,0.16384 -1.0814,0.19662c-0.42519,0.02458 -0.87249,0.01638 -1.33946,-0.02458c-0.45837,-0.04915 -0.88847,-0.13518 -1.29031,-0.25806l0.6513,-0.83563c0.0086,0.39324 -0.01229,0.77828 -0.06144,1.15513c-0.04915,0.36866 -0.10568,0.70865 -0.17204,1.01996c-0.06513,0.36046 -0.14255,0.66768 -0.23348,0.92165c-0.08971,0.25397 -0.20891,0.44648 -0.35637,0.57757c-0.13886,0.12289 -0.32688,0.18433 -0.56528,0.18433zM316.10107,179.48388c0.47557,0 0.81965,-0.06964 1.03225,-0.20891c0.2212,-0.14746 0.33179,-0.36046 0.33179,-0.63901c0,-0.19662 -0.03687,-0.4383 -0.1106,-0.72503c-0.06513,-0.29493 -0.15975,-0.58166 -0.28264,-0.8602c-0.12289,-0.27855 -0.26543,-0.51203 -0.4301,-0.70045c-0.15484,-0.18842 -0.32688,-0.28264 -0.51612,-0.28264c-0.17941,0 -0.35146,0.09831 -0.51612,0.29493c-0.15484,0.18842 -0.29493,0.42601 -0.41781,0.71274c-0.12289,0.28673 -0.2212,0.58166 -0.29493,0.88478c-0.07373,0.29493 -0.1106,0.5489 -0.1106,0.7619c0,0.24577 0.10691,0.43419 0.3195,0.56528c0.2212,0.13108 0.55299,0.19662 0.99538,0.19662zM322.81189,183.76032c-0.80368,0 -1.4304,-0.29902 -1.88016,-0.89707c-0.45099,-0.60624 -0.67588,-1.52788 -0.67588,-2.76494c0,-1.22886 0.2212,-2.12593 0.66359,-2.69121c0.44976,-0.57347 1.09369,-0.8602 1.92932,-0.8602c0.47434,0 0.88847,0.09831 1.24115,0.29493c0.36006,0.19662 0.67956,0.47516 0.95851,0.83563l-0.09831,0.04915c-0.07373,-0.33589 -0.14746,-0.69226 -0.2212,-1.06911c-0.07373,-0.37686 -0.13518,-0.73323 -0.18433,-1.06911c-0.04178,-0.34408 -0.06144,-0.61443 -0.06144,-0.81105c0,-0.27854 0.04424,-0.49155 0.13518,-0.63901c0.08971,-0.15566 0.23348,-0.23348 0.4301,-0.23348c0.27772,0 0.50383,0.11879 0.67588,0.35637c0.17204,0.22939 0.31459,0.58576 0.4301,1.06911c0.10568,0.43419 0.2003,0.95032 0.28264,1.54837c0.08111,0.58985 0.14746,1.20838 0.19662,1.85558c0.05653,0.63901 0.08602,1.25344 0.08602,1.8433c0,0.81925 -0.04547,1.45826 -0.13518,1.91703c-0.08233,0.45059 -0.20153,0.76599 -0.35637,0.94623c-0.14746,0.18024 -0.32442,0.27035 -0.52841,0.27035c-0.25437,0 -0.42642,-0.12698 -0.51612,-0.38095c-0.09094,-0.25397 -0.1278,-0.66768 -0.1106,-1.24115h0.18433c-0.2212,0.50793 -0.54562,0.91345 -0.9708,1.21658c-0.41781,0.30312 -0.90936,0.45468 -1.47464,0.45468zM323.46319,182.23653c0.29493,0 0.56528,-0.07373 0.81105,-0.2212c0.25315,-0.15566 0.45468,-0.39324 0.60214,-0.71274c0.15484,-0.3195 0.23348,-0.72503 0.23348,-1.21658c0,-0.63081 -0.14378,-1.14284 -0.4301,-1.53608c-0.28755,-0.40143 -0.70045,-0.60214 -1.24115,-0.60214c-0.42642,0 -0.77418,0.17613 -1.04453,0.52841c-0.26298,0.35228 -0.39324,0.88478 -0.39324,1.59752c0,0.63081 0.13026,1.15104 0.39324,1.56066c0.27035,0.40143 0.62672,0.60214 1.06911,0.60214zM333.5878,183.71117c-0.27895,0 -0.47065,-0.10651 -0.57757,-0.3195c-0.09831,-0.2212 -0.15607,-0.56937 -0.17204,-1.04453l0.12289,0.06144c-0.45837,0.89298 -1.32717,1.33946 -2.60519,1.33946c-0.58125,0 -1.06542,-0.1024 -1.45006,-0.30722c-0.38463,-0.213 -0.67219,-0.49155 -0.8602,-0.83563c-0.18064,-0.35228 -0.27035,-0.73323 -0.27035,-1.14284c0,-0.70454 0.24577,-1.26164 0.73732,-1.67125c0.49155,-0.41781 1.14284,-0.62672 1.95389,-0.62672c0.5321,0 0.99538,0.07782 1.38862,0.23348c0.39324,0.15566 0.72872,0.37275 1.00767,0.6513l-0.20891,-0.02458c-0.05776,-0.82743 -0.23717,-1.41729 -0.5407,-1.76956c-0.29493,-0.36046 -0.71643,-0.5407 -1.26573,-0.5407c-0.3195,0 -0.61443,0.04915 -0.88478,0.14746c-0.27035,0.09831 -0.51981,0.20071 -0.74961,0.30722c-0.2212,0.09831 -0.4301,0.14746 -0.62672,0.14746c-0.19662,0 -0.35268,-0.06554 -0.46697,-0.19662c-0.10691,-0.13108 -0.15975,-0.29902 -0.15975,-0.50383c0,-0.29493 0.13886,-0.57347 0.41781,-0.83563c0.28633,-0.26215 0.66359,-0.47516 1.13055,-0.63901c0.46697,-0.16384 0.97449,-0.24577 1.52379,-0.24577c0.66359,0 1.23255,0.15975 1.70812,0.47926c0.47557,0.3195 0.83563,0.78647 1.0814,1.4009c0.21259,0.52432 0.36497,1.11007 0.45468,1.75728c0.08971,0.64721 0.13518,1.33946 0.13518,2.07678c0,0.55708 -0.02826,0.98718 -0.08602,1.29031c-0.05776,0.30312 -0.14746,0.51612 -0.27035,0.63901c-0.11428,0.11469 -0.27035,0.17204 -0.46697,0.17204zM330.87201,182.33484c0.27035,0 0.54439,-0.03687 0.82334,-0.1106c0.27895,-0.08193 0.51244,-0.20071 0.70045,-0.35637c0.18802,-0.15566 0.28264,-0.34817 0.28264,-0.57757c0,-0.19662 -0.08233,-0.35637 -0.24577,-0.47926c-0.15607,-0.13108 -0.36497,-0.22939 -0.62672,-0.29493c-0.25437,-0.06554 -0.52841,-0.09831 -0.82334,-0.09831c-0.50015,0 -0.8811,0.08602 -1.14284,0.25806c-0.25437,0.17204 -0.38095,0.40143 -0.38095,0.68816c0,0.31131 0.1192,0.55299 0.35637,0.72503c0.24577,0.16384 0.59846,0.24577 1.05682,0.24577zM340.09095,183.87092c-0.51612,0 -0.91796,-0.03277 -1.20429,-0.09831c-0.27895,-0.06554 -0.47188,-0.15566 -0.57757,-0.27035c-0.10691,-0.12289 -0.16467,-0.25806 -0.17204,-0.40553c0,-0.22939 0.13518,-0.42191 0.40553,-0.57757c0.27772,-0.15566 0.78647,-0.25397 1.52379,-0.29493l-0.19662,0.23348c-0.09094,-0.41781 -0.15607,-0.90527 -0.19662,-1.46235c-0.04178,-0.55708 -0.05776,-1.13465 -0.04915,-1.7327c0.00737,-0.59805 0.03687,-1.16742 0.08602,-1.70812c0.04915,-0.5489 0.11797,-1.01586 0.20891,-1.4009l1.06911,-0.07373c-0.18064,0.07373 -0.40553,0.13927 -0.67588,0.19662c-0.27035,0.04915 -0.5493,0.07373 -0.83563,0.07373c-0.52472,0 -0.91427,-0.05735 -1.16742,-0.17204c-0.24577,-0.11469 -0.36866,-0.27444 -0.36866,-0.47926c0,-0.36046 0.21628,-0.63901 0.6513,-0.83563c0.44239,-0.20481 1.11827,-0.30722 2.02763,-0.30722c1.0814,0 1.99076,0.18023 2.72808,0.5407c0.74469,0.35228 1.30997,0.84792 1.69583,1.48693c0.38463,0.63081 0.57757,1.36813 0.57757,2.21195c0,0.73732 -0.13149,1.41729 -0.39324,2.03991c-0.26298,0.61443 -0.63901,1.15104 -1.13055,1.60981c-0.48417,0.45059 -1.06542,0.80285 -1.74499,1.05682c-0.67219,0.24577 -1.42548,0.36866 -2.26111,0.36866zM341.83593,181.97847c0.27772,0 0.57265,-0.1106 0.88478,-0.33179c0.3195,-0.22939 0.58985,-0.56119 0.81105,-0.99538c0.2212,-0.44239 0.33179,-0.98718 0.33179,-1.63439c0,-0.47516 -0.07005,-0.88887 -0.20891,-1.24115c-0.13149,-0.36046 -0.30353,-0.65949 -0.51612,-0.89707c-0.21382,-0.23758 -0.4387,-0.41372 -0.67588,-0.52841c-0.2384,-0.12289 -0.46328,-0.18433 -0.67588,-0.18433c-0.17204,0 -0.30722,0.10651 -0.40553,0.3195c-0.09094,0.213 -0.15607,0.5325 -0.19662,0.95851c-0.04178,0.41781 -0.06144,0.93803 -0.06144,1.56066c0,0.96671 0.04915,1.70403 0.14746,2.21195c0.09831,0.50793 0.28633,0.7619 0.56528,0.7619zM348.05644,174.1629c0.32688,0 0.56036,0.09012 0.70045,0.27035c0.14746,0.18023 0.2212,0.38914 0.2212,0.62672c0,0.29493 -0.09094,0.52432 -0.27035,0.68816c-0.17204,0.15566 -0.41781,0.23348 -0.73732,0.23348c-0.31213,0 -0.54562,-0.08602 -0.70045,-0.25806c-0.15607,-0.18024 -0.23348,-0.38914 -0.23348,-0.62672c0,-0.31131 0.09339,-0.5448 0.28264,-0.70045c0.18802,-0.15566 0.43379,-0.23348 0.73732,-0.23348zM348.13017,176.90326c0.26175,0 0.46697,0.24577 0.61443,0.73732c0.15484,0.49155 0.23348,1.27393 0.23348,2.34713c0,1.31898 -0.09462,2.26931 -0.28264,2.85096c-0.18925,0.58166 -0.47557,0.87249 -0.8602,0.87249c-0.29493,0 -0.51244,-0.213 -0.6513,-0.63901c-0.14009,-0.43419 -0.20891,-1.18791 -0.20891,-2.26111c0,-1.31898 0.10568,-2.29798 0.3195,-2.93698c0.2212,-0.64721 0.49892,-0.9708 0.83563,-0.9708zM356.04774,175.8956c0.72995,0 1.25344,0.10651 1.57295,0.3195c0.3195,0.213 0.47926,0.48745 0.47926,0.82334c0,0.19662 -0.06882,0.36046 -0.20891,0.49155c-0.13026,0.12289 -0.3195,0.18433 -0.56528,0.18433c-0.25315,0 -0.51981,-0.03687 -0.79876,-0.1106c-0.27035,-0.07373 -0.58494,-0.1106 -0.94623,-0.1106c-0.41781,0 -0.72872,0.08193 -0.93394,0.24577c-0.20399,0.16384 -0.30722,0.37275 -0.30722,0.62672c0,0.23758 0.09094,0.42601 0.27035,0.56528c0.18925,0.13108 0.54562,0.22939 1.06911,0.29493c0.58248,0.06554 1.06174,0.17204 1.43777,0.3195c0.38586,0.13927 0.67219,0.35228 0.8602,0.63901c0.18925,0.27855 0.28264,0.66359 0.28264,1.15513c0,0.77828 -0.27404,1.35584 -0.82334,1.7327c-0.54807,0.37686 -1.30628,0.56528 -2.2734,0.56528c-0.61443,0 -1.10106,-0.04915 -1.46235,-0.14746c-0.36006,-0.09831 -0.62181,-0.23758 -0.78647,-0.41781c-0.15484,-0.18024 -0.23348,-0.39324 -0.23348,-0.63901c0,-0.213 0.07005,-0.37686 0.20891,-0.49155c0.14746,-0.12289 0.3195,-0.18433 0.51612,-0.18433c0.18925,0 0.38955,0.02458 0.60214,0.07373c0.21382,0.04096 0.4387,0.08602 0.67588,0.13518c0.2384,0.04915 0.48417,0.07373 0.73732,0.07373c0.81965,0 1.22886,-0.25397 1.22886,-0.7619c0,-0.17204 -0.04055,-0.31131 -0.12289,-0.41781c-0.08111,-0.10651 -0.22857,-0.19253 -0.44239,-0.25806c-0.21259,-0.07373 -0.5235,-0.13108 -0.93394,-0.17204c-0.49155,-0.04915 -0.91673,-0.13108 -1.27802,-0.24577c-0.36006,-0.12289 -0.63901,-0.3195 -0.83563,-0.58985c-0.19662,-0.27855 -0.29493,-0.65949 -0.29493,-1.14284c0,-0.7619 0.28755,-1.37633 0.8602,-1.8433c0.57388,-0.47516 1.38862,-0.71274 2.44544,-0.71274zM362.94412,183.68659c-0.90936,0 -1.63439,-0.13518 -2.17509,-0.40553c-0.5407,-0.27035 -0.93025,-0.65949 -1.16742,-1.16742c-0.23717,-0.50793 -0.35637,-1.11417 -0.35637,-1.81872c0,-0.89298 0.16344,-1.65077 0.49155,-2.2734c0.33548,-0.63081 0.79507,-1.11417 1.37633,-1.45006c0.58985,-0.33589 1.25713,-0.50383 2.00305,-0.50383c0.87618,0 1.5201,0.20481 1.92932,0.61443c0.40921,0.40143 0.61443,0.92984 0.61443,1.58523c0,0.52432 -0.13886,0.979 -0.41781,1.36404c-0.27035,0.37686 -0.64761,0.66768 -1.13055,0.87249c-0.48294,0.20481 -1.04085,0.30722 -1.67125,0.30722c-0.35268,0 -0.69185,-0.04506 -1.01996,-0.13518c-0.32811,-0.09011 -0.62303,-0.213 -0.88478,-0.36866l0.29493,-0.5407c-0.02458,0.19662 -0.03687,0.39324 -0.03687,0.58985c0,0.57347 0.18064,0.98718 0.5407,1.24115c0.36006,0.24577 0.87249,0.36866 1.53608,0.36866c0.51612,0 0.93025,-0.04506 1.24115,-0.13518c0.3109,-0.09011 0.57388,-0.17613 0.78647,-0.25806c0.21259,-0.09011 0.4215,-0.13518 0.62672,-0.13518c0.11428,0 0.21751,0.03277 0.30722,0.09831c0.09831,0.05735 0.17573,0.14337 0.23348,0.25806c0.06513,0.11469 0.09831,0.25397 0.09831,0.41781c0,0.24577 -0.12289,0.48335 -0.36866,0.71274c-0.24577,0.2212 -0.61075,0.40553 -1.09369,0.55299c-0.47557,0.13927 -1.06051,0.20891 -1.75728,0.20891zM362.23138,179.66821c0.58125,0 1.04822,-0.12289 1.4009,-0.36866c0.35268,-0.24577 0.52841,-0.5489 0.52841,-0.90936c0,-0.28673 -0.09831,-0.52021 -0.29493,-0.70045c-0.18802,-0.18842 -0.48786,-0.28264 -0.89707,-0.28264c-0.38463,0 -0.73363,0.07373 -1.04453,0.2212c-0.30353,0.13927 -0.5407,0.3236 -0.71274,0.55299c-0.17204,0.22939 -0.25806,0.47926 -0.25806,0.74961c0,0.23758 0.1106,0.42191 0.33179,0.55299c0.2298,0.12289 0.54439,0.18433 0.94623,0.18433zM368.07955,183.71117c-0.15607,0 -0.28264,-0.04506 -0.38095,-0.13518c-0.09831,-0.09831 -0.16835,-0.23758 -0.20891,-0.41781c-0.06513,-0.30312 -0.12289,-0.74141 -0.17204,-1.31488c-0.04915,-0.57347 -0.07373,-1.20838 -0.07373,-1.90474c0,-0.8602 0.02826,-1.68764 0.08602,-2.4823c0.06513,-0.79467 0.14746,-1.44597 0.24577,-1.95389c0.10691,-0.54889 0.23717,-0.95032 0.39324,-1.20429c0.15607,-0.26216 0.36006,-0.39324 0.61443,-0.39324c0.2298,0 0.40553,0.1065 0.52841,0.3195c0.12289,0.20481 0.18433,0.56118 0.18433,1.06911c0,0.50793 -0.02089,1.05273 -0.06144,1.63439c-0.03318,0.58166 -0.08971,1.20429 -0.17204,1.86787h0.04915c0.5321,-0.72094 1.02856,-1.2985 1.48693,-1.7327c0.46697,-0.43419 0.89338,-0.74961 1.27802,-0.94623c0.39324,-0.19662 0.741,-0.29493 1.04453,-0.29493c0.23717,0 0.41413,0.07373 0.52841,0.2212c0.11428,0.14746 0.17204,0.3277 0.17204,0.5407c0,0.41781 -0.33548,0.88478 -1.00767,1.4009c-0.66359,0.51612 -1.6221,1.04453 -2.87554,1.58523l0.01229,-0.19662c0.77787,0.40143 1.44637,0.82334 2.00305,1.26573c0.56528,0.43419 0.99538,0.84792 1.29031,1.24115c0.30353,0.38504 0.45468,0.70865 0.45468,0.9708c0,0.213 -0.07005,0.38914 -0.20891,0.52841c-0.13149,0.13108 -0.32319,0.19662 -0.57757,0.19662c-0.3195,0 -0.67588,-0.11879 -1.06911,-0.35637c-0.38463,-0.24577 -0.78647,-0.61034 -1.20429,-1.09369c-0.41781,-0.48335 -0.83563,-1.0896 -1.25344,-1.81872h-0.04915c-0.0086,0.51612 -0.04055,1.01996 -0.09831,1.5115c-0.04915,0.48335 -0.11428,0.88069 -0.19662,1.192c-0.05776,0.213 -0.14746,0.38504 -0.27035,0.51612c-0.11428,0.12289 -0.27895,0.18433 -0.49155,0.18433zM375.69359,174.1629c0.32811,0 0.56159,0.09012 0.70045,0.27035c0.14746,0.18023 0.2212,0.38914 0.2212,0.62672c0,0.29493 -0.08971,0.52432 -0.27035,0.68816c-0.17204,0.15566 -0.41781,0.23348 -0.73732,0.23348c-0.3109,0 -0.54439,-0.08602 -0.70045,-0.25806c-0.15607,-0.18024 -0.23348,-0.38914 -0.23348,-0.62672c0,-0.31131 0.09462,-0.5448 0.28264,-0.70045c0.18802,-0.15566 0.43379,-0.23348 0.73732,-0.23348zM375.76732,176.90326c0.26175,0 0.46697,0.24577 0.61443,0.73732c0.15607,0.49155 0.23348,1.27393 0.23348,2.34713c0,1.31898 -0.09462,2.26931 -0.28264,2.85096c-0.18802,0.58166 -0.47557,0.87249 -0.8602,0.87249c-0.29493,0 -0.51244,-0.213 -0.6513,-0.63901c-0.13886,-0.43419 -0.20891,-1.18791 -0.20891,-2.26111c0,-1.31898 0.10691,-2.29798 0.3195,-2.93698c0.2212,-0.64721 0.50015,-0.9708 0.83563,-0.9708zM380.19368,176.19052h-0.24577c-0.02458,-0.36046 -0.0172,-0.70045 0.02458,-1.01996c0.04055,-0.3277 0.12657,-0.58985 0.25806,-0.78647c0.13886,-0.20481 0.33548,-0.30722 0.58985,-0.30722c0.22857,0 0.39692,0.07373 0.50383,0.2212c0.10568,0.14746 0.15975,0.35227 0.15975,0.61443c0,0.51612 -0.09831,0.95851 -0.29493,1.32717l-0.2212,-0.02458c0.44239,-0.15566 0.94131,-0.23348 1.49921,-0.23348c0.35146,0 0.63041,0.06964 0.83563,0.20891c0.21259,0.13108 0.3195,0.35637 0.3195,0.67588c0,0.30312 -0.12289,0.5325 -0.36866,0.68816c-0.24577,0.15566 -0.55299,0.23348 -0.92165,0.23348c-0.2212,0 -0.4596,-0.0082 -0.71274,-0.02458c-0.24577,-0.02458 -0.48786,-0.06144 -0.72503,-0.1106l0.20891,-0.25806c0.07373,0.31131 0.14255,0.66768 0.20891,1.06911c0.07373,0.39324 0.13886,0.80285 0.19662,1.22886c0.05653,0.42601 0.102,0.83972 0.13518,1.24115c0.03195,0.40143 0.04915,0.7619 0.04915,1.0814c0,0.52432 -0.08233,0.93803 -0.24577,1.24115c-0.16467,0.30312 -0.40553,0.45468 -0.72503,0.45468c-0.25437,0 -0.45468,-0.07782 -0.60214,-0.23348c-0.14009,-0.15566 -0.24209,-0.35228 -0.30722,-0.58985c-0.05776,-0.24577 -0.09462,-0.49974 -0.1106,-0.7619c-0.0086,-0.26215 -0.01229,-0.49974 -0.01229,-0.71274c0,-0.36046 0.01598,-0.76599 0.04915,-1.21658c0.03195,-0.45877 0.07742,-0.92984 0.13518,-1.41319c0.06513,-0.48335 0.13886,-0.95032 0.2212,-1.4009l0.24577,0.20891c-0.41781,0.213 -0.93394,0.3195 -1.54837,0.3195c-0.37726,0 -0.6685,-0.06964 -0.87249,-0.20891c-0.20522,-0.13927 -0.30722,-0.35637 -0.30722,-0.6513c0,-0.3195 0.11428,-0.56528 0.34408,-0.73732c0.22857,-0.18024 0.53578,-0.27035 0.92165,-0.27035c0.25315,0 0.49155,0.01638 0.71274,0.04915c0.22857,0.02458 0.4301,0.05735 0.60214,0.09831zM389.99141,183.71117c-0.27895,0 -0.47188,-0.10651 -0.57757,-0.3195c-0.09831,-0.2212 -0.15607,-0.56937 -0.17204,-1.04453l0.12289,0.06144c-0.4596,0.89298 -1.32717,1.33946 -2.60519,1.33946c-0.58248,0 -1.06542,-0.1024 -1.45006,-0.30722c-0.38586,-0.213 -0.67219,-0.49155 -0.8602,-0.83563c-0.18064,-0.35228 -0.27035,-0.73323 -0.27035,-1.14284c0,-0.70454 0.24577,-1.26164 0.73732,-1.67125c0.49155,-0.41781 1.14284,-0.62672 1.95389,-0.62672c0.5321,0 0.99538,0.07782 1.38862,0.23348c0.39324,0.15566 0.72872,0.37275 1.00767,0.6513l-0.20891,-0.02458c-0.05776,-0.82743 -0.2384,-1.41729 -0.5407,-1.76956c-0.29493,-0.36046 -0.71766,-0.5407 -1.26573,-0.5407c-0.3195,0 -0.61443,0.04915 -0.88478,0.14746c-0.27035,0.09831 -0.52104,0.20071 -0.74961,0.30722c-0.2212,0.09831 -0.4301,0.14746 -0.62672,0.14746c-0.19662,0 -0.35268,-0.06554 -0.46697,-0.19662c-0.10691,-0.13108 -0.15975,-0.29902 -0.15975,-0.50383c0,-0.29493 0.13886,-0.57347 0.41781,-0.83563c0.28633,-0.26215 0.66359,-0.47516 1.13055,-0.63901c0.46697,-0.16384 0.97449,-0.24577 1.52379,-0.24577c0.66359,0 1.23255,0.15975 1.70812,0.47926c0.47434,0.3195 0.83563,0.78647 1.0814,1.4009c0.21259,0.52432 0.36374,1.11007 0.45468,1.75728c0.08971,0.64721 0.13518,1.33946 0.13518,2.07678c0,0.55708 -0.02949,0.98718 -0.08602,1.29031c-0.05776,0.30312 -0.14746,0.51612 -0.27035,0.63901c-0.11551,0.11469 -0.27035,0.17204 -0.46697,0.17204zM387.27563,182.33484c0.27035,0 0.54439,-0.03687 0.82334,-0.1106c0.27772,-0.08193 0.51121,-0.20071 0.70045,-0.35637c0.18802,-0.15566 0.28264,-0.34817 0.28264,-0.57757c0,-0.19662 -0.08233,-0.35637 -0.24577,-0.47926c-0.15607,-0.13108 -0.36497,-0.22939 -0.62672,-0.29493c-0.25437,-0.06554 -0.52841,-0.09831 -0.82334,-0.09831c-0.50015,0 -0.8811,0.08602 -1.14284,0.25806c-0.25437,0.17204 -0.38095,0.40143 -0.38095,0.68816c0,0.31131 0.11797,0.55299 0.35637,0.72503c0.24577,0.16384 0.59723,0.24577 1.05682,0.24577zM392.31274,178.04611c0,-0.78647 0.07373,-1.35175 0.2212,-1.69583c0.14746,-0.35228 0.35637,-0.52841 0.62672,-0.52841c0.21382,0 0.38095,0.09011 0.50383,0.27035c0.12289,0.17204 0.21382,0.38914 0.27035,0.6513c0.05776,0.25397 0.08602,0.51203 0.08602,0.77418l-0.06144,-0.02458c0.14009,-0.44239 0.35268,-0.82334 0.63901,-1.14284c0.29493,-0.3195 0.64761,-0.47926 1.05682,-0.47926c0.48417,0 0.84054,0.20071 1.06911,0.60214c0.2298,0.39324 0.34408,0.88478 0.34408,1.47464c0,0.78647 -0.08971,1.33537 -0.27035,1.64668c-0.17941,0.31131 -0.4215,0.46697 -0.72503,0.46697c-0.2212,0 -0.38463,-0.09011 -0.49155,-0.27035c-0.09831,-0.18024 -0.13026,-0.49974 -0.09831,-0.95851c0.03318,-0.48335 0.00492,-0.81925 -0.08602,-1.00767c-0.08971,-0.18842 -0.23348,-0.28264 -0.4301,-0.28264c-0.23717,0 -0.43379,0.15156 -0.58985,0.45468c-0.14746,0.29493 -0.2212,0.65949 -0.2212,1.09369c0,0.17204 0.02089,0.38914 0.06144,0.6513c0.04178,0.26215 0.08602,0.5489 0.13518,0.8602c0.04915,0.30312 0.09462,0.60624 0.13518,0.90936c0.04178,0.30312 0.06144,0.58166 0.06144,0.83563c0,0.45059 -0.06882,0.77418 -0.20891,0.9708c-0.13886,0.19662 -0.33548,0.29493 -0.58985,0.29493c-0.28633,0 -0.50752,-0.09011 -0.66359,-0.27035c-0.15484,-0.18842 -0.27404,-0.49155 -0.35637,-0.90936c-0.06513,-0.37686 -0.13026,-0.82334 -0.19662,-1.33946c-0.06513,-0.51612 -0.11797,-1.04453 -0.15975,-1.58523c-0.04055,-0.5407 -0.06144,-1.02815 -0.06144,-1.46235zM401.48989,183.71117c-0.14746,0 -0.26666,-0.04915 -0.35637,-0.14746c-0.08971,-0.10651 -0.16344,-0.27444 -0.2212,-0.50383c-0.05776,-0.26215 -0.1106,-0.67178 -0.15975,-1.22886c-0.04915,-0.56528 -0.07373,-1.19609 -0.07373,-1.89245c0,-0.7537 0.02089,-1.48693 0.06144,-2.19967c0.04915,-0.72094 0.1192,-1.35584 0.20891,-1.90474c0.06513,-0.36046 0.15975,-0.62672 0.28264,-0.79876c0.13149,-0.18023 0.3109,-0.27035 0.5407,-0.27035c0.14746,0 0.27895,0.04916 0.39324,0.14746c0.11428,0.09831 0.2003,0.27444 0.25806,0.52841c0.06513,0.25397 0.09831,0.61443 0.09831,1.0814c0,0.22939 -0.0086,0.49155 -0.02458,0.78647c-0.01598,0.28673 -0.04055,0.60624 -0.07373,0.95851h0.04915c0.65498,-0.90116 1.23255,-1.61801 1.7327,-2.15051c0.50015,-0.5407 0.93762,-0.92984 1.31488,-1.16742c0.38463,-0.23758 0.72134,-0.35637 1.00767,-0.35637c0.2298,0 0.40184,0.07373 0.51612,0.2212c0.12289,0.14746 0.18433,0.3277 0.18433,0.5407c0,0.45059 -0.3404,0.99129 -1.01996,1.6221c-0.67219,0.63081 -1.75728,1.38862 -3.25649,2.2734l0.09831,-0.23348c1.29399,0.81925 2.2734,1.54428 2.93698,2.17509c0.66359,0.62263 0.99538,1.17562 0.99538,1.65897c0,0.213 -0.07005,0.38914 -0.20891,0.52841c-0.13149,0.13108 -0.32811,0.19662 -0.58985,0.19662c-0.32811,0 -0.67588,-0.1106 -1.04453,-0.33179c-0.36866,-0.22939 -0.77787,-0.61034 -1.22886,-1.14284c-0.44239,-0.5407 -0.94623,-1.27393 -1.5115,-2.19967h-0.04915c0.01598,0.18842 0.02826,0.38504 0.03687,0.58985c0.0086,0.19662 0.01229,0.39324 0.01229,0.58985c0,0.94213 -0.06513,1.61801 -0.19662,2.02763c-0.13149,0.40143 -0.36866,0.60214 -0.71274,0.60214zM409.35585,174.1629c0.32688,0 0.56036,0.09012 0.70045,0.27035c0.14746,0.18023 0.2212,0.38914 0.2212,0.62672c0,0.29493 -0.09094,0.52432 -0.27035,0.68816c-0.17204,0.15566 -0.41781,0.23348 -0.73732,0.23348c-0.31213,0 -0.54562,-0.08602 -0.70045,-0.25806c-0.15607,-0.18024 -0.23348,-0.38914 -0.23348,-0.62672c0,-0.31131 0.09339,-0.5448 0.28264,-0.70045c0.18802,-0.15566 0.43379,-0.23348 0.73732,-0.23348zM409.42958,176.90326c0.26175,0 0.46697,0.24577 0.61443,0.73732c0.15484,0.49155 0.23348,1.27393 0.23348,2.34713c0,1.31898 -0.09462,2.26931 -0.28264,2.85096c-0.18925,0.58166 -0.47557,0.87249 -0.8602,0.87249c-0.29493,0 -0.51244,-0.213 -0.6513,-0.63901c-0.14009,-0.43419 -0.20891,-1.18791 -0.20891,-2.26111c0,-1.31898 0.10568,-2.29798 0.3195,-2.93698c0.2212,-0.64721 0.49892,-0.9708 0.83563,-0.9708zM413.85472,176.19052h-0.24577c-0.02458,-0.36046 -0.01598,-0.70045 0.02458,-1.01996c0.04055,-0.3277 0.12657,-0.58985 0.25806,-0.78647c0.13886,-0.20481 0.33548,-0.30722 0.58985,-0.30722c0.2298,0 0.39692,0.07373 0.50383,0.2212c0.10691,0.14746 0.15975,0.35227 0.15975,0.61443c0,0.51612 -0.09831,0.95851 -0.29493,1.32717l-0.2212,-0.02458c0.44239,-0.15566 0.94254,-0.23348 1.49921,-0.23348c0.35268,0 0.63041,0.06964 0.83563,0.20891c0.21259,0.13108 0.3195,0.35637 0.3195,0.67588c0,0.30312 -0.12289,0.5325 -0.36866,0.68816c-0.24577,0.15566 -0.55299,0.23348 -0.92165,0.23348c-0.2212,0 -0.45837,-0.0082 -0.71274,-0.02458c-0.24577,-0.02458 -0.48786,-0.06144 -0.72503,-0.1106l0.20891,-0.25806c0.07373,0.31131 0.14378,0.66768 0.20891,1.06911c0.07373,0.39324 0.13886,0.80285 0.19662,1.22886c0.05776,0.42601 0.102,0.83972 0.13518,1.24115c0.03318,0.40143 0.04915,0.7619 0.04915,1.0814c0,0.52432 -0.08233,0.93803 -0.24577,1.24115c-0.16344,0.30312 -0.40553,0.45468 -0.72503,0.45468c-0.25437,0 -0.45468,-0.07782 -0.60214,-0.23348c-0.13886,-0.15566 -0.24209,-0.35228 -0.30722,-0.58985c-0.05776,-0.24577 -0.09462,-0.49974 -0.1106,-0.7619c-0.0086,-0.26215 -0.01229,-0.49974 -0.01229,-0.71274c0,-0.36046 0.01598,-0.76599 0.04915,-1.21658c0.03318,-0.45877 0.07742,-0.92984 0.13518,-1.41319c0.06513,-0.48335 0.13886,-0.95032 0.2212,-1.4009l0.24577,0.20891c-0.41781,0.213 -0.93394,0.3195 -1.54837,0.3195c-0.37726,0 -0.66727,-0.06964 -0.87249,-0.20891c-0.20522,-0.13927 -0.30722,-0.35637 -0.30722,-0.6513c0,-0.3195 0.11428,-0.56528 0.34408,-0.73732c0.2298,-0.18024 0.53701,-0.27035 0.92165,-0.27035c0.25437,0 0.49155,0.01638 0.71274,0.04915c0.2298,0.02458 0.4301,0.05735 0.60214,0.09831zM423.65245,183.71117c-0.27895,0 -0.47065,-0.10651 -0.57757,-0.3195c-0.09831,-0.2212 -0.15607,-0.56937 -0.17204,-1.04453l0.12289,0.06144c-0.45837,0.89298 -1.32717,1.33946 -2.60519,1.33946c-0.58125,0 -1.06542,-0.1024 -1.45006,-0.30722c-0.38463,-0.213 -0.67219,-0.49155 -0.8602,-0.83563c-0.18064,-0.35228 -0.27035,-0.73323 -0.27035,-1.14284c0,-0.70454 0.24577,-1.26164 0.73732,-1.67125c0.49155,-0.41781 1.14284,-0.62672 1.95389,-0.62672c0.5321,0 0.99538,0.07782 1.38862,0.23348c0.39324,0.15566 0.72872,0.37275 1.00767,0.6513l-0.20891,-0.02458c-0.05776,-0.82743 -0.23717,-1.41729 -0.5407,-1.76956c-0.29493,-0.36046 -0.71643,-0.5407 -1.26573,-0.5407c-0.3195,0 -0.61443,0.04915 -0.88478,0.14746c-0.27035,0.09831 -0.51981,0.20071 -0.74961,0.30722c-0.2212,0.09831 -0.4301,0.14746 -0.62672,0.14746c-0.19662,0 -0.35268,-0.06554 -0.46697,-0.19662c-0.10691,-0.13108 -0.15975,-0.29902 -0.15975,-0.50383c0,-0.29493 0.13886,-0.57347 0.41781,-0.83563c0.28633,-0.26215 0.66359,-0.47516 1.13055,-0.63901c0.46697,-0.16384 0.97449,-0.24577 1.52379,-0.24577c0.66359,0 1.23255,0.15975 1.70812,0.47926c0.47557,0.3195 0.83563,0.78647 1.0814,1.4009c0.21259,0.52432 0.36497,1.11007 0.45468,1.75728c0.08971,0.64721 0.13518,1.33946 0.13518,2.07678c0,0.55708 -0.02826,0.98718 -0.08602,1.29031c-0.05776,0.30312 -0.14746,0.51612 -0.27035,0.63901c-0.11428,0.11469 -0.27035,0.17204 -0.46697,0.17204zM420.93666,182.33484c0.27035,0 0.54439,-0.03687 0.82334,-0.1106c0.27895,-0.08193 0.51244,-0.20071 0.70045,-0.35637c0.18802,-0.15566 0.28264,-0.34817 0.28264,-0.57757c0,-0.19662 -0.08233,-0.35637 -0.24577,-0.47926c-0.15607,-0.13108 -0.36497,-0.22939 -0.62672,-0.29493c-0.25437,-0.06554 -0.52841,-0.09831 -0.82334,-0.09831c-0.50015,0 -0.8811,0.08602 -1.14284,0.25806c-0.25437,0.17204 -0.38095,0.40143 -0.38095,0.68816c0,0.31131 0.1192,0.55299 0.35637,0.72503c0.24577,0.16384 0.59846,0.24577 1.05682,0.24577z"/></g></g></svg>