<svg version="1.1" xmlns="http://www.w3.org/2000/svg" xmlns:xlink="http://www.w3.org/1999/xlink" width="164.01139" height="95.74682" viewBox="0,0,164.01139,95.74682"><g transform="translate(-157.6173,-132.53157)"><g data-paper-data="{&quot;isPaintingLayer&quot;:true}" fill-rule="nonzero" stroke="#000000" stroke-linecap="butt" stroke-linejoin="miter" stroke-miterlimit="10" stroke-dasharray="" stroke-dashoffset="0" style="mix-blend-mode: normal"><path d="M198.68133,149.86369c0,1.91864 -1.70005,3.47401 -3.79717,3.47401c-2.09713,0 -3.79718,-1.55536 -3.79718,-3.47401c0,-1.91864 1.70005,-3.47402 3.79718,-3.47402c2.09713,0 3.79717,1.55537 3.79717,3.47402z" fill="#0017ff" stroke-width="0"/><path d="M176.72321,210.35035c0,1.91864 -1.70005,3.47401 -3.79717,3.47401c-2.09713,0 -3.79718,-1.55536 -3.79718,-3.47401c0,-1.91864 1.70005,-3.47402 3.79718,-3.47402c2.09713,0 3.79717,1.55537 3.79717,3.47402z" fill="#ff0000" stroke-width="0"/><path d="M310.91149,149.64966c0,1.91864 -1.70005,3.47401 -3.79717,3.47401c-2.09713,0 -3.79718,-1.55536 -3.79718,-3.47401c0,-1.91864 1.70005,-3.47402 3.79718,-3.47402c2.09713,0 3.79717,1.55537 3.79717,3.47402z" fill="#ff0000" stroke-width="0"/><path d="M289.81295,209.7643c0,1.91864 -1.70005,3.47401 -3.79717,3.47401c-2.09713,0 -3.79718,-1.55536 -3.79718,-3.47401c0,-1.91864 1.70005,-3.47402 3.79718,-3.47402c2.09713,0 3.79717,1.55537 3.79717,3.47402z" fill="#0017ff" stroke-width="0"/><path d="M169.08851,212.8601l23.77196,-65.4941h117.8891l-22.8,65.0029z" fill="none" stroke-width="2"/><text transform="translate(182.4874,144.27336) scale(0.28031,0.28031)" font-size="40" xml:space="preserve" fill="#000000" fill-rule="nonzero" stroke="#000000" stroke-width="3" stroke-linecap="butt" stroke-linejoin="miter" stroke-miterlimit="10" stroke-dasharray="" stroke-dashoffset="0" font-family="Handwriting" font-weight="normal" text-anchor="start" style="mix-blend-mode: normal"><tspan x="0" dy="0">A</tspan></text><text transform="translate(313.12319,143.49412) scale(0.28031,0.28031)" font-size="40" xml:space="preserve" fill="#000000" fill-rule="nonzero" stroke="#000000" stroke-width="3" stroke-linecap="butt" stroke-linejoin="miter" stroke-miterlimit="10" stroke-dasharray="" stroke-dashoffset="0" font-family="Handwriting" font-weight="normal" text-anchor="start" style="mix-blend-mode: normal"><tspan x="0" dy="0">B</tspan></text><text transform="translate(288.47314,223.37305) scale(0.28031,0.28031)" font-size="40" xml:space="preserve" fill="#000000" fill-rule="nonzero" stroke="#000000" stroke-width="3" stroke-linecap="butt" stroke-linejoin="miter" stroke-miterlimit="10" stroke-dasharray="" stroke-dashoffset="0" font-family="Handwriting" font-weight="normal" text-anchor="start" style="mix-blend-mode: normal"><tspan x="0" dy="0">C</tspan></text><text transform="translate(158.03776,223.09634) scale(0.28031,0.28031)" font-size="40" xml:space="preserve" fill="#000000" fill-rule="nonzero" stroke="#000000" stroke-width="3" stroke-linecap="butt" stroke-linejoin="miter" stroke-miterlimit="10" stroke-dasharray="" stroke-dashoffset="0" font-family="Handwriting" font-weight="normal" text-anchor="start" style="mix-blend-mode: normal"><tspan x="0" dy="0">D</tspan></text></g></g></svg>