<svg version="1.1" xmlns="http://www.w3.org/2000/svg" xmlns:xlink="http://www.w3.org/1999/xlink" width="69.43784" height="30.14465" viewBox="0,0,69.43784,30.14465"><g transform="translate(-205.28108,-164.92767)"><g data-paper-data="{&quot;isPaintingLayer&quot;:true}" fill-rule="nonzero" stroke-width="1" stroke-linecap="butt" stroke-linejoin="miter" stroke-miterlimit="10" stroke-dasharray="" stroke-dashoffset="0" style="mix-blend-mode: normal"><path d="M205.78108,169.52614c0,-2.26352 1.83495,-4.09847 4.09847,-4.09847h60.24091c2.26354,0 4.09847,1.83495 4.09847,4.09847v20.94772c0,2.26354 -1.83493,4.09847 -4.09847,4.09847h-60.24091c-2.26352,0 -4.09847,-1.83493 -4.09847,-4.09847z" fill="#a5a7a9" stroke="#000000"/><path d="M227.9975,185.03929c-0.22041,0 -0.4675,-0.01339 -0.74137,-0.04007c-0.26713,-0.02669 -0.52761,-0.07678 -0.78144,-0.15028c-0.24709,-0.08015 -0.4542,-0.18698 -0.62115,-0.32059c-0.1603,-0.14026 -0.24044,-0.32059 -0.24044,-0.541c0,-0.22706 0.07013,-0.39737 0.21039,-0.51094c0.14691,-0.11357 0.38407,-0.17031 0.71131,-0.17031c0.22706,0 0.48089,0.03006 0.7614,0.09017c0.28717,0.06011 0.56103,0.09017 0.82151,0.09017c0.38735,0 0.67124,-0.06011 0.85157,-0.18033c0.18698,-0.12022 0.28052,-0.28389 0.28052,-0.49091c0,-0.12687 -0.0367,-0.24044 -0.1102,-0.34063c-0.06676,-0.10018 -0.20374,-0.20037 -0.41076,-0.30055c-0.20702,-0.10018 -0.51759,-0.21039 -0.93172,-0.33061c-0.47424,-0.12687 -0.85822,-0.26713 -1.15212,-0.42078c-0.29391,-0.1603 -0.50757,-0.35065 -0.64118,-0.57105c-0.13361,-0.22041 -0.20037,-0.48089 -0.20037,-0.78144c0,-0.36731 0.06348,-0.68463 0.19035,-0.95176c0.13361,-0.27387 0.31057,-0.50429 0.53098,-0.69127c0.22041,-0.19372 0.4675,-0.34728 0.74137,-0.46085c0.27387,-0.11357 0.55102,-0.197 0.83153,-0.25046c0.28717,-0.05346 0.56103,-0.08015 0.82151,-0.08015c0.57442,0 1.04192,0.09017 1.40259,0.2705c0.36731,0.18033 0.55102,0.42078 0.55102,0.72133c0,0.21376 -0.07013,0.38735 -0.21039,0.52096c-0.13361,0.13361 -0.34063,0.20037 -0.62115,0.20037c-0.12022,0 -0.26385,-0.01667 -0.43079,-0.05009c-0.16694,-0.03343 -0.35065,-0.06676 -0.55102,-0.10018c-0.20037,-0.03343 -0.42078,-0.05009 -0.66122,-0.05009c-0.40739,0 -0.72133,0.06348 -0.94174,0.19035c-0.22041,0.12687 -0.33061,0.33061 -0.33061,0.61113c0,0.12022 0.03006,0.23042 0.09017,0.33061c0.06676,0.10018 0.20374,0.20374 0.41076,0.31057c0.20702,0.10683 0.52433,0.23042 0.95176,0.37068c0.52761,0.1603 0.94174,0.33726 1.24229,0.53098c0.30055,0.18698 0.51431,0.40074 0.64118,0.64118c0.12687,0.24044 0.19035,0.51094 0.19035,0.8115c0,0.41413 -0.11357,0.78144 -0.34063,1.10203c-0.22041,0.31394 -0.53098,0.55766 -0.93172,0.73135c-0.39409,0.17368 -0.85494,0.26048 -1.38255,0.26048zM233.42943,178.97812h-0.20037c-0.02004,-0.29391 -0.0133,-0.57105 0.02004,-0.83153c0.03343,-0.26713 0.10355,-0.48089 0.21039,-0.64118c0.11357,-0.16694 0.27387,-0.25046 0.48089,-0.25046c0.18707,0 0.32396,0.06011 0.41076,0.18033c0.08689,0.12022 0.13024,0.28717 0.13024,0.50092c0,0.42078 -0.08015,0.78144 -0.24044,1.082l-0.18033,-0.02004c0.36067,-0.12687 0.76814,-0.19035 1.22225,-0.19035c0.28726,0 0.51431,0.05674 0.68126,0.17031c0.17368,0.10683 0.26048,0.29054 0.26048,0.55102c0,0.24709 -0.10018,0.43416 -0.30055,0.56103c-0.20037,0.12687 -0.45083,0.19035 -0.75139,0.19035c-0.18033,0 -0.37396,-0.00665 -0.58107,-0.02004c-0.20037,-0.02004 -0.39737,-0.05009 -0.59109,-0.09017l0.17031,-0.21039c0.06011,0.25383 0.11694,0.54437 0.17031,0.87161c0.06011,0.32059 0.11357,0.65457 0.1603,1.00185c0.04681,0.34728 0.08352,0.68463 0.1102,1.01187c0.02678,0.32724 0.04007,0.62115 0.04007,0.88163c0,0.42742 -0.06676,0.76477 -0.20037,1.01187c-0.13352,0.24709 -0.33061,0.37068 -0.59109,0.37068c-0.20702,0 -0.37068,-0.06348 -0.49091,-0.19035c-0.11348,-0.12687 -0.197,-0.28717 -0.25046,-0.48089c-0.04672,-0.20037 -0.07678,-0.40739 -0.09017,-0.62115c-0.00665,-0.21376 -0.01002,-0.40739 -0.01002,-0.58107c0,-0.29391 0.01339,-0.62452 0.04007,-0.99183c0.02678,-0.37405 0.06348,-0.75803 0.1102,-1.15212c0.05346,-0.39409 0.11357,-0.77479 0.18033,-1.14211l0.20037,0.17031c-0.34063,0.17368 -0.7614,0.26048 -1.26233,0.26048c-0.3072,0 -0.54428,-0.05674 -0.71131,-0.17031c-0.16694,-0.11357 -0.25046,-0.29054 -0.25046,-0.53098c0,-0.26048 0.09354,-0.46085 0.28052,-0.60111c0.18707,-0.14691 0.43753,-0.22041 0.75139,-0.22041c0.20711,0 0.40074,0.01339 0.58107,0.04007c0.18707,0.02004 0.35065,0.04672 0.49091,0.08015zM241.41716,185.10942c-0.22706,0 -0.38407,-0.0868 -0.47087,-0.26048c-0.08015,-0.18033 -0.12687,-0.46422 -0.14026,-0.85157l0.10018,0.05009c-0.37405,0.72798 -1.082,1.09201 -2.12392,1.09201c-0.47424,0 -0.86824,-0.08352 -1.18218,-0.25046c-0.31394,-0.17368 -0.54765,-0.40074 -0.70129,-0.68126c-0.14691,-0.28717 -0.22041,-0.59774 -0.22041,-0.93172c0,-0.57442 0.20037,-1.02853 0.60111,-1.36251c0.40074,-0.34063 0.93172,-0.51094 1.59294,-0.51094c0.43416,0 0.8115,0.06348 1.13209,0.19035c0.32059,0.12687 0.59446,0.30392 0.82151,0.53098l-0.17031,-0.02004c-0.04672,-0.67461 -0.19372,-1.15549 -0.44081,-1.44266c-0.24044,-0.29391 -0.58444,-0.44081 -1.0319,-0.44081c-0.26048,0 -0.50092,0.04007 -0.72133,0.12022c-0.22041,0.08015 -0.42415,0.16367 -0.61113,0.25046c-0.18033,0.08015 -0.35065,0.12022 -0.51094,0.12022c-0.1603,0 -0.28717,-0.05346 -0.3807,-0.1603c-0.0868,-0.10683 -0.13024,-0.24381 -0.13024,-0.41076c0,-0.24044 0.11357,-0.4675 0.34063,-0.68126c0.23379,-0.21376 0.541,-0.38735 0.9217,-0.52096c0.3807,-0.13361 0.79483,-0.20037 1.24229,-0.20037c0.541,0 1.00522,0.13024 1.39257,0.39072c0.38735,0.26048 0.68126,0.64118 0.88163,1.14211c0.17368,0.42742 0.29718,0.90503 0.37068,1.43264c0.0735,0.52761 0.1102,1.09201 0.1102,1.69312c0,0.4542 -0.02341,0.80485 -0.07013,1.05194c-0.04672,0.24709 -0.12022,0.42078 -0.22041,0.52096c-0.09354,0.09354 -0.22041,0.14026 -0.3807,0.14026zM239.20308,183.98735c0.22041,0 0.44418,-0.03006 0.67124,-0.09017c0.22706,-0.06676 0.41741,-0.16367 0.57105,-0.29054c0.15365,-0.12687 0.23042,-0.28389 0.23042,-0.47087c0,-0.1603 -0.06676,-0.29054 -0.20037,-0.39072c-0.12687,-0.10683 -0.29718,-0.18698 -0.51094,-0.24044c-0.20702,-0.05346 -0.43079,-0.08015 -0.67124,-0.08015c-0.40739,0 -0.71796,0.07013 -0.93172,0.21039c-0.20702,0.14026 -0.31057,0.32724 -0.31057,0.56103c0,0.25383 0.09681,0.45083 0.29054,0.59109c0.20037,0.13361 0.48754,0.20037 0.86159,0.20037zM243.31047,180.49091c0,-0.64118 0.06011,-1.10203 0.18033,-1.38255c0.12022,-0.28717 0.29054,-0.43079 0.51094,-0.43079c0.17359,0 0.31057,0.0735 0.41076,0.22041c0.10018,0.14026 0.17359,0.31722 0.22041,0.53098c0.04672,0.20702 0.07013,0.41741 0.07013,0.63116l-0.05009,-0.02004c0.11348,-0.36067 0.28717,-0.67124 0.52096,-0.93172c0.24044,-0.26048 0.52761,-0.39072 0.86159,-0.39072c0.394,0 0.68454,0.16367 0.87161,0.49091c0.18698,0.32059 0.28052,0.72133 0.28052,1.20222c0,0.64118 -0.0735,1.08864 -0.22041,1.34248c-0.147,0.25383 -0.344,0.3807 -0.59109,0.3807c-0.18033,0 -0.31394,-0.0735 -0.40074,-0.22041c-0.08015,-0.14691 -0.10692,-0.40739 -0.08015,-0.78144c0.02669,-0.39409 0.00328,-0.66787 -0.07013,-0.82151c-0.0735,-0.15365 -0.19035,-0.23042 -0.35065,-0.23042c-0.19372,0 -0.35402,0.12359 -0.48089,0.37068c-0.12022,0.24044 -0.18033,0.53763 -0.18033,0.89164c0,0.14026 0.01667,0.31722 0.05009,0.53098c0.03333,0.21376 0.07013,0.44746 0.1102,0.70129c0.04007,0.24709 0.07678,0.49428 0.1102,0.74137c0.03333,0.24709 0.05009,0.47424 0.05009,0.68126c0,0.36731 -0.05683,0.63116 -0.17031,0.79146c-0.11357,0.1603 -0.27387,0.24044 -0.48089,0.24044c-0.23379,0 -0.41413,-0.0735 -0.541,-0.22041c-0.12696,-0.15365 -0.22378,-0.40074 -0.29054,-0.74137c-0.05346,-0.3072 -0.10692,-0.67124 -0.1603,-1.09201c-0.05346,-0.42078 -0.09691,-0.85157 -0.13024,-1.29238c-0.03343,-0.44081 -0.05009,-0.83818 -0.05009,-1.1922zM249.7682,178.97812h-0.20037c-0.02004,-0.29391 -0.01339,-0.57105 0.02004,-0.83153c0.03343,-0.26713 0.10355,-0.48089 0.21039,-0.64118c0.11357,-0.16694 0.27387,-0.25046 0.48089,-0.25046c0.18698,0 0.32396,0.06011 0.41076,0.18033c0.0868,0.12022 0.13024,0.28717 0.13024,0.50092c0,0.42078 -0.08015,0.78144 -0.24044,1.082l-0.18033,-0.02004c0.36067,-0.12687 0.76805,-0.19035 1.22225,-0.19035c0.28717,0 0.51431,0.05674 0.68126,0.17031c0.17368,0.10683 0.26048,0.29054 0.26048,0.55102c0,0.24709 -0.10018,0.43416 -0.30055,0.56103c-0.20037,0.12687 -0.45083,0.19035 -0.75139,0.19035c-0.18033,0 -0.37405,-0.00665 -0.58107,-0.02004c-0.20037,-0.02004 -0.39737,-0.05009 -0.59109,-0.09017l0.17031,-0.21039c0.06011,0.25383 0.11685,0.54437 0.17031,0.87161c0.06011,0.32059 0.11357,0.65457 0.1603,1.00185c0.04672,0.34728 0.08352,0.68463 0.1102,1.01187c0.02669,0.32724 0.04007,0.62115 0.04007,0.88163c0,0.42742 -0.06676,0.76477 -0.20037,1.01187c-0.13361,0.24709 -0.33061,0.37068 -0.59109,0.37068c-0.20702,0 -0.37068,-0.06348 -0.49091,-0.19035c-0.11357,-0.12687 -0.197,-0.28717 -0.25046,-0.48089c-0.04672,-0.20037 -0.07678,-0.40739 -0.09017,-0.62115c-0.00665,-0.21376 -0.01002,-0.40739 -0.01002,-0.58107c0,-0.29391 0.01339,-0.62452 0.04007,-0.99183c0.02669,-0.37405 0.06348,-0.75803 0.1102,-1.15212c0.05346,-0.39409 0.11357,-0.77479 0.18033,-1.14211l0.20037,0.17031c-0.34063,0.17368 -0.7614,0.26048 -1.26233,0.26048c-0.3072,0 -0.54437,-0.05674 -0.71131,-0.17031c-0.16694,-0.11357 -0.25046,-0.29054 -0.25046,-0.53098c0,-0.26048 0.09354,-0.46085 0.28052,-0.60111c0.18698,-0.14691 0.43744,-0.22041 0.75139,-0.22041c0.20702,0 0.40074,0.01339 0.58107,0.04007c0.18698,0.02004 0.35065,0.04672 0.49091,0.08015z" fill="#000000" stroke="none"/></g></g></svg>