<svg version="1.1" xmlns="http://www.w3.org/2000/svg" xmlns:xlink="http://www.w3.org/1999/xlink" width="174.69639" height="17.31374" viewBox="0,0,174.69639,17.31374"><g transform="translate(-152.65181,-171.34313)"><g data-paper-data="{&quot;isPaintingLayer&quot;:true}" fill="#000000" fill-rule="nonzero" stroke="none" stroke-width="1" stroke-linecap="butt" stroke-linejoin="miter" stroke-miterlimit="10" stroke-dasharray="" stroke-dashoffset="0" style="mix-blend-mode: normal"><path d="M158.43495,174.55599c-0.55928,0.16659 -1.07691,0.29749 -1.55289,0.39268c-0.47598,0.0833 -0.92221,0.12494 -1.33869,0.12494c-0.38079,0 -0.67827,-0.07734 -0.89246,-0.23204c-0.21419,-0.15469 -0.32129,-0.38674 -0.32129,-0.69612c0,-0.2618 0.08924,-0.51168 0.26774,-0.74967c0.17849,-0.23798 0.45218,-0.45218 0.82107,-0.64257c0.44027,-0.21419 0.99955,-0.39268 1.67783,-0.53547c0.67827,-0.14279 1.46958,-0.21419 2.37395,-0.21419c0.60687,0 1.1364,0.04164 1.58858,0.12494c0.45218,0.0714 0.80916,0.16064 1.07095,0.26774c0.34508,0.14279 0.58307,0.30939 0.71397,0.49978c0.14279,0.17849 0.21419,0.38674 0.21419,0.62472c0,0.29749 -0.10709,0.54142 -0.32129,0.73182c-0.21419,0.19039 -0.55928,0.28559 -1.03525,0.28559c-0.28559,0 -0.58307,-0.01785 -0.89246,-0.05355c-0.29749,-0.0357 -0.61284,-0.0833 -0.94601,-0.14279zM159.66655,173.59213c0.60687,0.76157 1.0769,1.64808 1.41009,2.65953c0.34508,0.99955 0.51763,2.04672 0.51763,3.14146c0,1.14235 -0.16064,2.1657 -0.48193,3.07007c-0.3094,0.89246 -0.80917,1.60052 -1.49933,2.12406c-0.69018,0.51172 -1.60643,0.76752 -2.74878,0.76752c-1.40414,0 -2.45725,-0.39268 -3.15931,-1.17805c-0.70207,-0.78537 -1.05311,-1.86224 -1.05311,-3.23072c0,-0.66636 0.0833,-1.2316 0.24989,-1.69568c0.1785,-0.46408 0.41053,-0.81512 0.69612,-1.0531c0.28559,-0.24989 0.59497,-0.37484 0.92816,-0.37484c0.30939,0 0.54142,0.09519 0.69612,0.28559c0.16659,0.17849 0.24989,0.43433 0.24989,0.76752c0,0.27369 -0.0476,0.57712 -0.14279,0.91031c-0.0833,0.32129 -0.12494,0.63663 -0.12494,0.94601c0,0.79727 0.13683,1.38031 0.41053,1.74922c0.28559,0.35699 0.73777,0.53547 1.35654,0.53547c0.82107,0 1.39818,-0.33322 1.73138,-0.99955c0.34508,-0.67827 0.51763,-1.60049 0.51763,-2.76663c0,-0.84486 -0.08924,-1.67188 -0.26774,-2.48105c-0.17849,-0.80916 -0.46408,-1.63618 -0.85676,-2.48105zM169.53629,185.30123c-1.32084,0 -2.37395,-0.19634 -3.15931,-0.58902c-0.78537,-0.39268 -1.35052,-0.95795 -1.69568,-1.69568c-0.34505,-0.73773 -0.51763,-1.61834 -0.51763,-2.64169c0,-1.29705 0.23807,-2.39775 0.71397,-3.30211c0.48795,-0.91626 1.15429,-1.61834 1.99912,-2.10621c0.85676,-0.48787 1.82664,-0.73182 2.90943,-0.73182c1.27332,0 2.2074,0.29749 2.80233,0.89246c0.59505,0.58307 0.89246,1.35059 0.89246,2.30255c0,0.76157 -0.20226,1.42199 -0.60687,1.98127c-0.39268,0.54738 -0.93998,0.9698 -1.64213,1.2673c-0.70203,0.29749 -1.51116,0.44623 -2.4275,0.44623c-0.5116,0 -1.00547,-0.06545 -1.48148,-0.19634c-0.47591,-0.13089 -0.90429,-0.30939 -1.28514,-0.53547l0.42838,-0.78537c-0.0357,0.28559 -0.05355,0.57117 -0.05355,0.85676c0,0.83297 0.26182,1.43385 0.78537,1.80277c0.52365,0.35699 1.2673,0.53547 2.23115,0.53547c0.74967,0 1.35063,-0.06549 1.80277,-0.19634c0.45225,-0.13086 0.83301,-0.2558 1.14235,-0.37484c0.30946,-0.13086 0.6129,-0.19634 0.91031,-0.19634c0.16667,0 0.31537,0.04764 0.44623,0.14279c0.14279,0.08334 0.25592,0.20828 0.33914,0.37484c0.09527,0.16656 0.14279,0.36892 0.14279,0.60687c0,0.35699 -0.17849,0.70203 -0.53547,1.03525c-0.35699,0.32129 -0.88644,0.58902 -1.58858,0.80322c-0.69009,0.20226 -1.54095,0.30344 -2.55244,0.30344zM168.50104,179.46453c0.84494,0 1.52321,-0.17849 2.03482,-0.53547c0.51172,-0.35699 0.76752,-0.79727 0.76752,-1.32084c0,-0.41648 -0.14279,-0.75562 -0.42838,-1.0174c-0.27365,-0.27369 -0.70795,-0.41053 -1.30299,-0.41053c-0.55924,0 -1.06493,0.10709 -1.51719,0.32129c-0.44021,0.20228 -0.78537,0.47003 -1.03525,0.80322c-0.24989,0.33319 -0.37484,0.69612 -0.37484,1.08881c0,0.34508 0.16064,0.61282 0.48193,0.80322c0.33322,0.17849 0.79139,0.26774 1.37439,0.26774zM177.60214,174.05621c0.38074,0 0.63654,0.15469 0.76752,0.46408c0.14279,0.30939 0.21419,0.76752 0.21419,1.37439c0,0.14279 -0.01194,0.29749 -0.0357,0.46408c-0.01194,0.15469 -0.0357,0.29749 -0.0714,0.42838l-0.0357,-0.35699c0.28559,-0.77347 0.7258,-1.37439 1.32084,-1.80277c0.59494,-0.44028 1.22558,-0.66043 1.89201,-0.66043c0.73773,0 1.35052,0.20825 1.83847,0.62472c0.49978,0.41648 0.86859,0.99955 1.10666,1.74922c0.24989,0.74967 0.37484,1.63618 0.37484,2.65953c0,0.63067 -0.02979,1.25539 -0.08924,1.87417c-0.04764,0.60687 -0.11903,1.16611 -0.21419,1.67783c-0.08334,0.49978 -0.17849,0.91031 -0.28559,1.2316c-0.14279,0.40462 -0.32731,0.70805 -0.55332,0.91031c-0.22613,0.19043 -0.49387,0.28559 -0.80322,0.28559c-0.30946,0 -0.54742,-0.11301 -0.71397,-0.33914c-0.16667,-0.22613 -0.24989,-0.52957 -0.24989,-0.91031c0,-0.40462 0.02967,-0.89246 0.08924,-1.46363c0.05946,-0.58307 0.11301,-1.17211 0.16064,-1.76707c0.05946,-0.60687 0.08924,-1.15426 0.08924,-1.64213c0,-1.66593 -0.54742,-2.49889 -1.64213,-2.49889c-0.58311,0 -1.07095,0.2618 -1.46363,0.78537c-0.39268,0.51168 -0.65451,1.2435 -0.78537,2.19545c-0.0357,0.32129 -0.05355,0.71992 -0.05355,1.1959c0,0.47598 0,0.95195 0,1.42794c0.01183,0.46408 0,0.85676 -0.0357,1.17805c-0.04764,0.71397 -0.18452,1.22568 -0.41053,1.53504c-0.21419,0.30935 -0.51172,0.46408 -0.89246,0.46408c-0.44032,0 -0.77354,-0.20226 -0.99955,-0.60687c-0.22613,-0.41644 -0.33914,-1.11256 -0.33914,-2.08836c0,-0.49978 0.01183,-1.05905 0.0357,-1.67783c0.02376,-0.61877 0.05355,-1.23754 0.08924,-1.85632c0.04752,-0.63067 0.10107,-1.20185 0.16064,-1.71353c0.11892,-0.96386 0.2915,-1.72543 0.51763,-2.2847c0.22601,-0.57117 0.56515,-0.85676 1.0174,-0.85676zM188.7172,171.46807c0.47591,0 0.81504,0.1309 1.0174,0.39268c0.21419,0.2618 0.32129,0.56523 0.32129,0.91031c0,0.42838 -0.13096,0.76157 -0.39268,0.99955c-0.24989,0.2261 -0.60687,0.33914 -1.07095,0.33914c-0.45225,0 -0.79139,-0.12494 -1.0174,-0.37484c-0.22613,-0.2618 -0.33914,-0.56523 -0.33914,-0.91031c0,-0.45218 0.13677,-0.79131 0.41053,-1.0174c0.27365,-0.22609 0.63064,-0.33914 1.07095,-0.33914zM188.82429,175.44845c0.38074,0 0.67827,0.35699 0.89246,1.07095c0.22601,0.71397 0.33914,1.85037 0.33914,3.4092c0,1.91578 -0.13688,3.29619 -0.41053,4.14103c-0.27376,0.84482 -0.69021,1.2673 -1.24945,1.2673c-0.42838,0 -0.74375,-0.30935 -0.94601,-0.92816c-0.20237,-0.63064 -0.30344,-1.72547 -0.30344,-3.28426c0,-1.91581 0.15462,-3.33781 0.46408,-4.26597c0.32129,-0.94006 0.7258,-1.41009 1.21375,-1.41009zM196.75214,173.98482c1.05902,0 1.82062,0.15469 2.2847,0.46408c0.46408,0.30939 0.69612,0.70803 0.69612,1.1959c0,0.28559 -0.10118,0.52357 -0.30344,0.71397c-0.19043,0.17849 -0.46408,0.26774 -0.82107,0.26774c-0.36892,0 -0.75569,-0.05355 -1.1602,-0.16064c-0.39268,-0.10709 -0.85086,-0.16064 -1.37439,-0.16064c-0.60687,0 -1.05913,0.119 -1.35654,0.35699c-0.29752,0.23798 -0.44623,0.54142 -0.44623,0.91031c0,0.34508 0.13086,0.61877 0.39268,0.82107c0.27365,0.19039 0.79128,0.33319 1.55289,0.42838c0.84482,0.09519 1.54095,0.24989 2.08836,0.46408c0.55924,0.20228 0.97568,0.51168 1.24945,0.92816c0.27365,0.40459 0.41053,0.96386 0.41053,1.67783c0,1.13041 -0.39871,1.96933 -1.1959,2.51674c-0.7973,0.54742 -1.89805,0.82107 -3.30211,0.82107c-0.89246,0 -1.60052,-0.0714 -2.12406,-0.21419c-0.52365,-0.14279 -0.9044,-0.34505 -1.14235,-0.60687c-0.22613,-0.26182 -0.33914,-0.57117 -0.33914,-0.92816c0,-0.30935 0.10107,-0.54742 0.30344,-0.71397c0.21419,-0.17849 0.46408,-0.26774 0.74967,-0.26774c0.27365,0 0.56515,0.0357 0.87461,0.10709c0.30935,0.05946 0.63654,0.12494 0.98171,0.19634c0.34505,0.0714 0.70203,0.10709 1.07095,0.10709c1.18988,0 1.78492,-0.36892 1.78492,-1.10666c0,-0.24989 -0.05957,-0.45218 -0.17849,-0.60687c-0.11903,-0.15469 -0.33322,-0.27964 -0.64257,-0.37484c-0.30946,-0.10709 -0.7616,-0.19039 -1.35654,-0.24989c-0.71397,-0.0714 -1.33278,-0.19039 -1.85632,-0.35699c-0.52365,-0.17849 -0.92816,-0.46408 -1.21375,-0.85676c-0.28559,-0.40459 -0.42838,-0.95791 -0.42838,-1.65998c0,-1.10666 0.41644,-1.99912 1.24945,-2.67738c0.83289,-0.69018 2.01697,-1.03525 3.552,-1.03525zM208.82491,185.24768c-0.73784,0 -1.35063,-0.13688 -1.83847,-0.41053c-0.47602,-0.28559 -0.83301,-0.71988 -1.07095,-1.30299c-0.16667,-0.40462 -0.29161,-0.89246 -0.37484,-1.46363c-0.0714,-0.58307 -0.10709,-1.24945 -0.10709,-1.99912c0,-1.28514 0.04162,-2.34419 0.12494,-3.17716c0.08322,-0.84486 0.20226,-1.52313 0.35699,-2.03482c0.16656,-0.52357 0.35096,-0.94601 0.55332,-1.2673c0.32129,-0.48787 0.83289,-0.88056 1.53504,-1.17805c0.70203,-0.29749 1.69568,-0.44623 2.98082,-0.44623c0.85676,0 1.54095,0.13089 2.05266,0.39268c0.52354,0.24989 0.89838,0.58307 1.12451,0.99955c0.23795,0.41648 0.35699,0.88056 0.35699,1.39224c0,0.80916 -0.23807,1.47554 -0.71397,1.99912c-0.47602,0.52357 -1.10074,0.94006 -1.87417,1.24945v0.0714c0.84482,0.09519 1.49933,0.36889 1.96342,0.82107c0.47591,0.44028 0.71397,1.07095 0.71397,1.89201c0,0.65448 -0.16667,1.25536 -0.49978,1.80277c-0.32129,0.53547 -0.7616,1.00547 -1.32084,1.41009c-0.54742,0.39268 -1.16623,0.70203 -1.85632,0.92816c-0.69021,0.21419 -1.39224,0.32129 -2.10621,0.32129zM209.37824,183.10577c0.57117,0 1.07687,-0.09516 1.51719,-0.28559c0.45214,-0.19043 0.80322,-0.44623 1.0531,-0.76752c0.26171,-0.33319 0.39268,-0.70803 0.39268,-1.12451c0,-0.45218 -0.22022,-0.82701 -0.66043,-1.12451c-0.42838,-0.30939 -1.10074,-0.46408 -2.01697,-0.46408c-0.61881,0 -1.11268,0.14874 -1.48148,0.44623c-0.35699,0.28559 -0.53547,0.77942 -0.53547,1.48148c0,0.66633 0.14279,1.14235 0.42838,1.42794c0.28559,0.27365 0.71988,0.41053 1.30299,0.41053zM209.44964,177.44757c0.80913,0 1.48148,-0.17849 2.01697,-0.53547c0.5473,-0.36889 0.82107,-0.84486 0.82107,-1.42794c0,-0.42838 -0.17258,-0.77347 -0.51763,-1.03525c-0.34516,-0.2618 -0.85086,-0.39268 -1.51719,-0.39268c-0.7259,0 -1.32084,0.14279 -1.78492,0.42838c-0.46408,0.28559 -0.69612,0.77347 -0.69612,1.46363c0,0.55927 0.14871,0.95195 0.44623,1.17805c0.30935,0.21419 0.71988,0.32129 1.2316,0.32129zM224.38733,185.33693c-0.40462,0 -0.68418,-0.15473 -0.83891,-0.46408c-0.14279,-0.32129 -0.22613,-0.82697 -0.24989,-1.51719l0.17849,0.08924c-0.66633,1.29709 -1.92771,1.94557 -3.78404,1.94557c-0.84482,0 -1.54697,-0.14871 -2.10621,-0.44623c-0.55924,-0.30935 -0.9758,-0.71397 -1.24945,-1.21375c-0.26182,-0.51172 -0.39268,-1.06504 -0.39268,-1.65998c0,-1.02335 0.35699,-1.83252 1.07095,-2.4275c0.71397,-0.60687 1.65998,-0.91031 2.83803,-0.91031c0.77343,0 1.44578,0.11304 2.01697,0.33914c0.57117,0.2261 1.05902,0.54142 1.46363,0.94601l-0.30344,-0.0357c-0.08334,-1.20185 -0.34505,-2.05861 -0.78537,-2.57029c-0.42838,-0.52357 -1.04117,-0.78537 -1.83847,-0.78537c-0.46408,0 -0.89246,0.0714 -1.28514,0.21419c-0.39268,0.14279 -0.75558,0.29154 -1.08881,0.44623c-0.32129,0.14279 -0.62472,0.21419 -0.91031,0.21419c-0.28559,0 -0.51172,-0.09519 -0.67827,-0.28559c-0.15473,-0.19039 -0.23204,-0.43433 -0.23204,-0.73182c0,-0.42838 0.20226,-0.83297 0.60687,-1.21375c0.41644,-0.38078 0.96386,-0.69018 1.64213,-0.92816c0.67827,-0.23798 1.416,-0.35699 2.2133,-0.35699c0.96386,0 1.79084,0.23204 2.48105,0.69612c0.69021,0.46408 1.21375,1.14235 1.57074,2.03482c0.30935,0.76157 0.52957,1.61238 0.66043,2.55244c0.13086,0.94006 0.19634,1.94557 0.19634,3.01652c0,0.80913 -0.04162,1.43385 -0.12494,1.87417c-0.08334,0.44032 -0.21419,0.74967 -0.39268,0.92816c-0.16656,0.16656 -0.39268,0.24989 -0.67827,0.24989zM220.44265,183.33782c0.39268,0 0.79128,-0.05355 1.1959,-0.16064c0.40462,-0.11903 0.74375,-0.2915 1.0174,-0.51763c0.27365,-0.22613 0.41053,-0.50569 0.41053,-0.83891c0,-0.28559 -0.11903,-0.51763 -0.35699,-0.69612c-0.22613,-0.19039 -0.52957,-0.33319 -0.91031,-0.42838c-0.36892,-0.09519 -0.76752,-0.14279 -1.1959,-0.14279c-0.7259,0 -1.27924,0.12494 -1.65998,0.37484c-0.36892,0.24989 -0.55332,0.58307 -0.55332,0.99955c0,0.45214 0.17258,0.80322 0.51763,1.0531c0.35699,0.23795 0.8687,0.35699 1.53504,0.35699zM229.58101,174.05621c0.38074,0 0.63666,0.15469 0.76752,0.46408c0.14279,0.30939 0.21419,0.76752 0.21419,1.37439c0,0.14279 -0.01194,0.29749 -0.0357,0.46408c-0.01194,0.15469 -0.0357,0.29749 -0.0714,0.42838l-0.0357,-0.35699c0.28559,-0.77347 0.7259,-1.37439 1.32084,-1.80277c0.59494,-0.44028 1.22568,-0.66043 1.89201,-0.66043c0.73773,0 1.35063,0.20825 1.83847,0.62472c0.49978,0.41648 0.8687,0.99955 1.10666,1.74922c0.24989,0.74967 0.37484,1.63618 0.37484,2.65953c0,0.63067 -0.02979,1.25539 -0.08924,1.87417c-0.04764,0.60687 -0.11903,1.16611 -0.21419,1.67783c-0.08334,0.49978 -0.17849,0.91031 -0.28559,1.2316c-0.14279,0.40462 -0.3272,0.70805 -0.55332,0.91031c-0.22613,0.19043 -0.49387,0.28559 -0.80322,0.28559c-0.30935,0 -0.54742,-0.11301 -0.71397,-0.33914c-0.16656,-0.22613 -0.24989,-0.52957 -0.24989,-0.91031c0,-0.40462 0.02979,-0.89246 0.08924,-1.46363c0.05946,-0.58307 0.11301,-1.17211 0.16064,-1.76707c0.05946,-0.60687 0.08924,-1.15426 0.08924,-1.64213c0,-1.66593 -0.54742,-2.49889 -1.64213,-2.49889c-0.58311,0 -1.07095,0.2618 -1.46363,0.78537c-0.39268,0.51168 -0.65451,1.2435 -0.78537,2.19545c-0.0357,0.32129 -0.05355,0.71992 -0.05355,1.1959c0,0.47598 0,0.95195 0,1.42794c0.01194,0.46408 0,0.85676 -0.0357,1.17805c-0.04764,0.71397 -0.18441,1.22568 -0.41053,1.53504c-0.21419,0.30935 -0.51172,0.46408 -0.89246,0.46408c-0.44032,0 -0.77343,-0.20226 -0.99955,-0.60687c-0.22613,-0.41644 -0.33914,-1.11256 -0.33914,-2.08836c0,-0.49978 0.01194,-1.05905 0.0357,-1.67783c0.02376,-0.61877 0.05355,-1.23754 0.08924,-1.85632c0.04764,-0.63067 0.10118,-1.20185 0.16064,-1.71353c0.11903,-0.96386 0.2915,-1.72543 0.51763,-2.2847c0.22613,-0.57117 0.56526,-0.85676 1.0174,-0.85676zM242.53453,184.87285c-1.11859,0 -2.0289,-0.42838 -2.73093,-1.28514c-0.70203,-0.8687 -1.0531,-2.18355 -1.0531,-3.94468c0,-1.88011 0.33914,-3.25451 1.0174,-4.12318c0.67827,-0.86867 1.57074,-1.30299 2.67738,-1.30299c0.65451,0 1.2316,0.16659 1.73138,0.49978c0.49978,0.33319 0.92816,0.80322 1.28514,1.41009l-0.14279,0.24989c-0.0357,-0.16659 -0.06549,-0.34508 -0.08924,-0.53547c-0.02376,-0.19039 -0.0357,-0.33319 -0.0357,-0.42838c0,-0.48787 0.07731,-0.86271 0.23204,-1.12451c0.16656,-0.27369 0.42247,-0.41053 0.76752,-0.41053c0.38074,0 0.67827,0.15469 0.89246,0.46408c0.22613,0.30939 0.39859,0.74967 0.51763,1.32084c0.15473,0.58307 0.28559,1.32679 0.39268,2.23115c0.10709,0.89246 0.16064,1.79682 0.16064,2.71308c0,1.14235 -0.04162,2.10029 -0.12494,2.87373c-0.08334,0.77343 -0.2201,1.416 -0.41053,1.92771c-0.19043,0.51172 -0.44032,0.95795 -0.74967,1.33869c-0.51172,0.61881 -1.17213,1.08881 -1.98127,1.41009c-0.7973,0.33322 -1.71943,0.49978 -2.76663,0.49978c-0.74967,0 -1.35063,-0.0714 -1.80277,-0.21419c-0.45214,-0.13086 -0.77945,-0.31537 -0.98171,-0.55332c-0.19043,-0.22613 -0.28559,-0.48193 -0.28559,-0.76752c0,-0.29752 0.08334,-0.54742 0.24989,-0.74967c0.16656,-0.19043 0.41644,-0.28559 0.74967,-0.28559c0.29752,0 0.64257,0.04764 1.03525,0.14279c0.40462,0.09516 0.88052,0.14279 1.42794,0.14279c1.15429,0 1.96933,-0.27365 2.44535,-0.82107c0.48785,-0.53547 0.73182,-1.3089 0.73182,-2.3204c0,-0.27365 -0.01785,-0.59494 -0.05355,-0.96386l0.24989,0.08924c-0.29752,0.7616 -0.73773,1.37439 -1.32084,1.83847c-0.58311,0.45214 -1.26138,0.67827 -2.03482,0.67827zM243.2128,182.67739c0.38074,0 0.7616,-0.10118 1.14235,-0.30344c0.38074,-0.20226 0.69612,-0.53547 0.94601,-0.99955c0.24989,-0.46408 0.37484,-1.08881 0.37484,-1.87417c0,-0.94006 -0.2201,-1.70758 -0.66043,-2.30255c-0.44032,-0.59497 -1.05902,-0.89246 -1.85632,-0.89246c-0.69021,0 -1.1959,0.2618 -1.51719,0.78537c-0.32129,0.52357 -0.48193,1.3149 -0.48193,2.37395c0,1.01146 0.16064,1.80277 0.48193,2.37395c0.32129,0.55924 0.84482,0.83891 1.57074,0.83891zM258.36558,185.05135c-0.32129,0 -0.57117,-0.10709 -0.74967,-0.32129c-0.16656,-0.22613 -0.27967,-0.51172 -0.33914,-0.85676c-0.05946,-0.35699 -0.08924,-0.73182 -0.08924,-1.12451l0.08924,-0.0714c-0.11903,0.51172 -0.35107,0.95193 -0.69612,1.32084c-0.34505,0.36892 -0.74375,0.65451 -1.1959,0.85676c-0.45214,0.19043 -0.9044,0.28559 -1.35654,0.28559c-0.60687,0 -1.1602,-0.14279 -1.65998,-0.42838c-0.49978,-0.28559 -0.88655,-0.7259 -1.1602,-1.32084c-0.27365,-0.63064 -0.48785,-1.42203 -0.64257,-2.37395c-0.15473,-0.96386 -0.23204,-1.95151 -0.23204,-2.96297c0,-0.54738 0.02376,-1.0531 0.0714,-1.51719c0.04764,-0.46408 0.12494,-0.84486 0.23204,-1.14235c0.09516,-0.30939 0.23795,-0.53547 0.42838,-0.67827c0.19043,-0.15469 0.43429,-0.23204 0.73182,-0.23204c0.34505,0 0.61279,0.13684 0.80322,0.41053c0.20226,0.2618 0.3272,0.63067 0.37484,1.10666c0.04764,0.39268 0.07731,0.88056 0.08924,1.46363c0.02376,0.57117 0.04162,1.1483 0.05355,1.73138c0.02376,0.57117 0.05355,1.0531 0.08924,1.44578c0.0714,0.71397 0.2558,1.24353 0.55332,1.58858c0.29752,0.33322 0.66043,0.49978 1.08881,0.49978c0.63064,0 1.11256,-0.23795 1.44578,-0.71397c0.33322,-0.47598 0.49978,-1.14235 0.49978,-1.99912c0,-0.42838 -0.02376,-0.91031 -0.0714,-1.44578c-0.04764,-0.54738 -0.10118,-1.0769 -0.16064,-1.58858c-0.04764,-0.51168 -0.0714,-0.93411 -0.0714,-1.2673c0,-0.55927 0.09516,-0.95791 0.28559,-1.1959c0.19043,-0.24989 0.45214,-0.37484 0.78537,-0.37484c0.28559,0 0.52354,0.07734 0.71397,0.23204c0.20226,0.15469 0.36289,0.36889 0.48193,0.64257c0.16656,0.35699 0.30935,0.84486 0.42838,1.46363c0.11903,0.61877 0.21419,1.32084 0.28559,2.10621c0.0714,0.78537 0.10709,1.61238 0.10709,2.48105c0,1.33278 -0.08924,2.33234 -0.26774,2.99867c-0.17849,0.65451 -0.49387,0.98171 -0.94601,0.98171zM263.57175,174.05621c0.38041,0 0.63588,0.15469 0.76752,0.46408c0.14279,0.30939 0.21419,0.76752 0.21419,1.37439c0,0.14279 -0.01227,0.29749 -0.0357,0.46408c-0.01227,0.15469 -0.0357,0.29749 -0.0714,0.42838l-0.0357,-0.35699c0.28559,-0.77347 0.72512,-1.37439 1.32084,-1.80277c0.5946,-0.44028 1.22491,-0.66043 1.89201,-0.66043c0.7374,0 1.34985,0.20825 1.83847,0.62472c0.49978,0.41648 0.86792,0.99955 1.10666,1.74922c0.24989,0.74967 0.37484,1.63618 0.37484,2.65953c0,0.63067 -0.03012,1.25539 -0.08924,1.87417c-0.04797,0.60687 -0.11937,1.16611 -0.21419,1.67783c-0.08367,0.49978 -0.17849,0.91031 -0.28559,1.2316c-0.14279,0.40462 -0.32798,0.70805 -0.55332,0.91031c-0.22646,0.19043 -0.4942,0.28559 -0.80322,0.28559c-0.31013,0 -0.54775,-0.11301 -0.71397,-0.33914c-0.16734,-0.22613 -0.24989,-0.52957 -0.24989,-0.91031c0,-0.40462 0.02901,-0.89246 0.08924,-1.46363c0.05913,-0.58307 0.11268,-1.17211 0.16064,-1.76707c0.05913,-0.60687 0.08924,-1.15426 0.08924,-1.64213c0,-1.66593 -0.54775,-2.49889 -1.64213,-2.49889c-0.58345,0 -1.07095,0.2618 -1.46363,0.78537c-0.39268,0.51168 -0.65484,1.2435 -0.78537,2.19545c-0.0357,0.32129 -0.05355,0.71992 -0.05355,1.1959c0,0.47598 0,0.95195 0,1.42794c0.01116,0.46408 0,0.85676 -0.0357,1.17805c-0.04797,0.71397 -0.18519,1.22568 -0.41053,1.53504c-0.21419,0.30935 -0.51217,0.46408 -0.89291,0.46408c-0.44032,0 -0.77354,-0.20226 -0.99955,-0.60687c-0.22613,-0.41644 -0.33914,-1.11256 -0.33914,-2.08836c0,-0.49978 0.01183,-1.05905 0.0357,-1.67783c0.02376,-0.61877 0.05355,-1.23754 0.08924,-1.85632c0.04752,-0.63067 0.10107,-1.20185 0.16064,-1.71353c0.11892,-0.96386 0.2915,-1.72543 0.51763,-2.2847c0.22601,-0.57117 0.56515,-0.85676 1.01785,-0.85676zM279.1876,185.56897c-0.74967,0 -1.332,-0.04764 -1.74922,-0.14279c-0.40384,-0.09516 -0.68385,-0.22613 -0.83891,-0.39268c-0.15395,-0.17849 -0.23762,-0.37484 -0.24989,-0.58902c0,-0.33322 0.19634,-0.61279 0.58902,-0.83891c0.40496,-0.22613 1.14235,-0.36892 2.2133,-0.42838l-0.28559,0.33914c-0.13053,-0.60687 -0.22534,-1.31493 -0.28559,-2.12406c-0.05913,-0.80916 -0.08255,-1.64808 -0.0714,-2.51674c0.01227,-0.86867 0.05355,-1.69568 0.12494,-2.48105c0.0714,-0.79727 0.17291,-1.47554 0.30344,-2.03482l1.55289,-0.10709c-0.26104,0.10709 -0.58902,0.20228 -0.98171,0.28559c-0.39268,0.0714 -0.79653,0.10709 -1.21375,0.10709c-0.76083,0 -1.32642,-0.0833 -1.69568,-0.24989c-0.35699,-0.16659 -0.53547,-0.39863 -0.53547,-0.69612c0,-0.52357 0.3157,-0.92816 0.94601,-1.21375c0.64257,-0.29749 1.62428,-0.44623 2.94513,-0.44623c1.57074,0 2.89158,0.2618 3.96253,0.78537c1.08322,0.51168 1.90429,1.2316 2.4632,2.15976c0.56002,0.91626 0.83891,1.98722 0.83891,3.21286c0,1.07095 -0.18965,2.05861 -0.57117,2.96297c-0.38041,0.89246 -0.92816,1.67191 -1.64213,2.33825c-0.7017,0.65451 -1.54619,1.16611 -2.53459,1.53504c-0.97501,0.35699 -2.07051,0.53547 -3.28426,0.53547zM281.72219,182.82019c0.40496,0 0.83334,-0.16064 1.28514,-0.48193c0.46408,-0.33322 0.85676,-0.81512 1.17805,-1.44578c0.32129,-0.64257 0.48193,-1.43388 0.48193,-2.37395c0,-0.69018 -0.1004,-1.29109 -0.30344,-1.80277c-0.18965,-0.52357 -0.43954,-0.95791 -0.74967,-1.30299c-0.30901,-0.34508 -0.63588,-0.60092 -0.98171,-0.76752c-0.34471,-0.17849 -0.67157,-0.26774 -0.98171,-0.26774c-0.24989,0 -0.44623,0.15469 -0.58902,0.46408c-0.13053,0.30939 -0.22534,0.77347 -0.28559,1.39224c-0.05913,0.60687 -0.08924,1.36249 -0.08924,2.26685c0,1.40414 0.0714,2.4751 0.21419,3.21286c0.14279,0.73773 0.41722,1.10666 0.82107,1.10666zM296.98663,185.33693c-0.40384,0 -0.68385,-0.15473 -0.83891,-0.46408c-0.14279,-0.32129 -0.22534,-0.82697 -0.24989,-1.51719l0.17849,0.08924c-0.666,1.29709 -1.92771,1.94557 -3.78404,1.94557c-0.84449,0 -1.54619,-0.14871 -2.10621,-0.44623c-0.55891,-0.30935 -0.97501,-0.71397 -1.24945,-1.21375c-0.26104,-0.51172 -0.39268,-1.06504 -0.39268,-1.65998c0,-1.02335 0.35699,-1.83252 1.07095,-2.4275c0.71397,-0.60687 1.65998,-0.91031 2.83803,-0.91031c0.77421,0 1.44578,0.11304 2.01697,0.33914c0.57117,0.2261 1.0598,0.54142 1.46363,0.94601l-0.30344,-0.0357c-0.08255,-1.20185 -0.34471,-2.05861 -0.78537,-2.57029c-0.42838,-0.52357 -1.04084,-0.78537 -1.83847,-0.78537c-0.46408,0 -0.89246,0.0714 -1.28514,0.21419c-0.39268,0.14279 -0.75524,0.29154 -1.08881,0.44623c-0.32129,0.14279 -0.62472,0.21419 -0.91031,0.21419c-0.28559,0 -0.51093,-0.09519 -0.67827,-0.28559c-0.15395,-0.19039 -0.23204,-0.43433 -0.23204,-0.73182c0,-0.42838 0.20304,-0.83297 0.60687,-1.21375c0.41722,-0.38078 0.96386,-0.69018 1.64213,-0.92816c0.67827,-0.23798 1.41679,-0.35699 2.2133,-0.35699c0.96386,0 1.79161,0.23204 2.48105,0.69612c0.69054,0.46408 1.21375,1.14235 1.57074,2.03482c0.31013,0.76157 0.5299,1.61238 0.66043,2.55244c0.13164,0.94006 0.19634,1.94557 0.19634,3.01652c0,0.80913 -0.04127,1.43385 -0.12494,1.87417c-0.08255,0.44032 -0.21419,0.74967 -0.39268,0.92816c-0.16622,0.16656 -0.39268,0.24989 -0.67827,0.24989zM293.04195,183.33782c0.39268,0 0.79206,-0.05355 1.1959,-0.16064c0.40496,-0.11903 0.74409,-0.2915 1.0174,-0.51763c0.27443,-0.22613 0.41053,-0.50569 0.41053,-0.83891c0,-0.28559 -0.11825,-0.51763 -0.35699,-0.69612c-0.22534,-0.19039 -0.52878,-0.33319 -0.91031,-0.42838c-0.36814,-0.09519 -0.76752,-0.14279 -1.1959,-0.14279c-0.72512,0 -1.27845,0.12494 -1.65998,0.37484c-0.36814,0.24989 -0.55332,0.58307 -0.55332,0.99955c0,0.45214 0.17291,0.80322 0.51763,1.0531c0.35699,0.23795 0.86904,0.35699 1.53504,0.35699zM302.83672,174.4132h-0.35699c-0.0357,-0.52357 -0.02454,-1.0174 0.0357,-1.48148c0.05913,-0.47598 0.18407,-0.85676 0.37484,-1.14235c0.20192,-0.29748 0.48751,-0.44623 0.85676,-0.44623c0.33245,0 0.57676,0.10709 0.73182,0.32129c0.15395,0.2142 0.23204,0.51168 0.23204,0.89246c0,0.74967 -0.14279,1.39224 -0.42838,1.92771l-0.32129,-0.0357c0.64257,-0.2261 1.3677,-0.33914 2.17761,-0.33914c0.51093,0 0.91589,0.10115 1.21375,0.30344c0.30901,0.19039 0.46408,0.51763 0.46408,0.98171c0,0.44028 -0.17849,0.77347 -0.53547,0.99955c-0.35699,0.2261 -0.80322,0.33914 -1.33869,0.33914c-0.32129,0 -0.66712,-0.0119 -1.03525,-0.0357c-0.35699,-0.0357 -0.70839,-0.08924 -1.0531,-0.16064l0.30344,-0.37484c0.10709,0.45218 0.2075,0.9698 0.30344,1.55289c0.10709,0.57117 0.20192,1.16615 0.28559,1.78492c0.08255,0.61877 0.14837,1.2197 0.19634,1.80277c0.04686,0.58311 0.0714,1.10666 0.0714,1.57074c0,0.7616 -0.11937,1.36246 -0.35699,1.80277c-0.23874,0.44032 -0.58902,0.66043 -1.0531,0.66043c-0.36925,0 -0.66043,-0.11301 -0.87461,-0.33914c-0.20304,-0.22613 -0.3514,-0.51172 -0.44623,-0.85676c-0.08367,-0.35699 -0.13722,-0.7259 -0.16064,-1.10666c-0.01227,-0.38074 -0.01785,-0.7259 -0.01785,-1.03525c0,-0.52357 0.02342,-1.1126 0.0714,-1.76707c0.04686,-0.66636 0.11268,-1.35059 0.19634,-2.05266c0.09483,-0.70207 0.20192,-1.38034 0.32129,-2.03482l0.35699,0.30344c-0.60687,0.30939 -1.35654,0.46408 -2.249,0.46408c-0.54775,0 -0.97056,-0.10115 -1.2673,-0.30344c-0.29786,-0.20228 -0.44623,-0.51763 -0.44623,-0.94601c0,-0.46408 0.16622,-0.82107 0.49978,-1.07095c0.33245,-0.2618 0.77868,-0.39268 1.33869,-0.39268c0.36814,0 0.71397,0.0238 1.03525,0.0714c0.33245,0.0357 0.62472,0.0833 0.87461,0.14279zM317.06702,185.33693c-0.40384,0 -0.68385,-0.15473 -0.83891,-0.46408c-0.14279,-0.32129 -0.22534,-0.82697 -0.24989,-1.51719l0.17849,0.08924c-0.666,1.29709 -1.92771,1.94557 -3.78404,1.94557c-0.84449,0 -1.54619,-0.14871 -2.10621,-0.44623c-0.55891,-0.30935 -0.97501,-0.71397 -1.24945,-1.21375c-0.26104,-0.51172 -0.39268,-1.06504 -0.39268,-1.65998c0,-1.02335 0.35699,-1.83252 1.07095,-2.4275c0.71397,-0.60687 1.65998,-0.91031 2.83803,-0.91031c0.77421,0 1.44578,0.11304 2.01697,0.33914c0.57117,0.2261 1.0598,0.54142 1.46363,0.94601l-0.30344,-0.0357c-0.08255,-1.20185 -0.34471,-2.05861 -0.78537,-2.57029c-0.42838,-0.52357 -1.04084,-0.78537 -1.83847,-0.78537c-0.46408,0 -0.89246,0.0714 -1.28514,0.21419c-0.39268,0.14279 -0.75524,0.29154 -1.08881,0.44623c-0.32129,0.14279 -0.62472,0.21419 -0.91031,0.21419c-0.28559,0 -0.51093,-0.09519 -0.67827,-0.28559c-0.15395,-0.19039 -0.23204,-0.43433 -0.23204,-0.73182c0,-0.42838 0.20304,-0.83297 0.60687,-1.21375c0.41722,-0.38078 0.96386,-0.69018 1.64213,-0.92816c0.67827,-0.23798 1.41679,-0.35699 2.2133,-0.35699c0.96386,0 1.79161,0.23204 2.48105,0.69612c0.69054,0.46408 1.21375,1.14235 1.57074,2.03482c0.31013,0.76157 0.5299,1.61238 0.66043,2.55244c0.13164,0.94006 0.19634,1.94557 0.19634,3.01652c0,0.80913 -0.04127,1.43385 -0.12494,1.87417c-0.08255,0.44032 -0.21419,0.74967 -0.39268,0.92816c-0.16622,0.16656 -0.39268,0.24989 -0.67827,0.24989zM313.12234,183.33782c0.39268,0 0.79206,-0.05355 1.1959,-0.16064c0.40496,-0.11903 0.74409,-0.2915 1.0174,-0.51763c0.27443,-0.22613 0.41053,-0.50569 0.41053,-0.83891c0,-0.28559 -0.11825,-0.51763 -0.35699,-0.69612c-0.22534,-0.19039 -0.52878,-0.33319 -0.91031,-0.42838c-0.36814,-0.09519 -0.76752,-0.14279 -1.1959,-0.14279c-0.72512,0 -1.27845,0.12494 -1.65998,0.37484c-0.36814,0.24989 -0.55332,0.58307 -0.55332,0.99955c0,0.45214 0.17291,0.80322 0.51763,1.0531c0.35699,0.23795 0.86904,0.35699 1.53504,0.35699zM320.44053,177.10843c0,-1.14235 0.10709,-1.96342 0.32129,-2.4632c0.21419,-0.51168 0.51763,-0.76752 0.91031,-0.76752c0.30901,0 0.55332,0.13089 0.73182,0.39268c0.17849,0.24989 0.30901,0.56523 0.39268,0.94601c0.08367,0.36889 0.12494,0.74372 0.12494,1.12451l-0.08924,-0.0357c0.20192,-0.64257 0.51205,-1.1959 0.92816,-1.65998c0.42838,-0.46408 0.94043,-0.69612 1.53504,-0.69612c0.7017,0 1.21932,0.29154 1.55289,0.87461c0.33355,0.57117 0.49978,1.28514 0.49978,2.14191c0,1.14235 -0.13053,1.93962 -0.39268,2.3918c-0.26216,0.45218 -0.61245,0.67827 -1.0531,0.67827c-0.32129,0 -0.55891,-0.13089 -0.71397,-0.39268c-0.14279,-0.2618 -0.19076,-0.72588 -0.14279,-1.39224c0.04797,-0.70207 0.00557,-1.18995 -0.12494,-1.46363c-0.13053,-0.27369 -0.33914,-0.41053 -0.62472,-0.41053c-0.34471,0 -0.6303,0.22013 -0.85676,0.66043c-0.21419,0.42838 -0.32129,0.95791 -0.32129,1.58858c0,0.24989 0.03012,0.56523 0.08924,0.94601c0.05913,0.38078 0.12494,0.79727 0.19634,1.24945c0.0714,0.44028 0.13722,0.88056 0.19634,1.32084c0.05913,0.44032 0.08924,0.84482 0.08924,1.21375c0,0.65451 -0.10152,1.12451 -0.30344,1.41009c-0.20192,0.28559 -0.48751,0.42838 -0.85676,0.42838c-0.41611,0 -0.7374,-0.13086 -0.96386,-0.39268c-0.22646,-0.27365 -0.39826,-0.71397 -0.51763,-1.32084c-0.09483,-0.54742 -0.19076,-1.1959 -0.28559,-1.94557c-0.09483,-0.74967 -0.17291,-1.51719 -0.23204,-2.30255c-0.05913,-0.78537 -0.08924,-1.49339 -0.08924,-2.12406z"/></g></g></svg>