<svg version="1.1" xmlns="http://www.w3.org/2000/svg" xmlns:xlink="http://www.w3.org/1999/xlink" width="69.94058" height="22.10923" viewBox="0,0,69.94058,22.10923"><g transform="translate(-205.02971,-168.94538)"><g data-paper-data="{&quot;isPaintingLayer&quot;:true}" fill="#000000" fill-rule="nonzero" stroke="none" stroke-width="1" stroke-linecap="butt" stroke-linejoin="miter" stroke-miterlimit="10" stroke-dasharray="" stroke-dashoffset="0" style="mix-blend-mode: normal"><path d="M210.44178,177.12642c-0.25935,0 -0.43861,-0.09914 -0.53777,-0.29749c-0.09154,-0.20596 -0.14493,-0.53015 -0.16019,-0.97257l0.11442,0.05721c-0.42717,0.83145 -1.23574,1.24718 -2.42571,1.24718c-0.54159,0 -0.99164,-0.09538 -1.35016,-0.28605c-0.35852,-0.19833 -0.6255,-0.45768 -0.80094,-0.77806c-0.16782,-0.328 -0.25172,-0.6827 -0.25172,-1.06411c0,-0.65601 0.22884,-1.17471 0.68652,-1.55611c0.45768,-0.38903 1.06411,-0.58354 1.81928,-0.58354c0.49582,0 0.9268,0.07247 1.29295,0.2174c0.36614,0.14493 0.6789,0.34708 0.93824,0.60643l-0.19451,-0.02288c-0.05339,-0.77043 -0.22121,-1.31965 -0.50345,-1.64765c-0.27461,-0.33563 -0.66745,-0.50345 -1.17853,-0.50345c-0.29749,0 -0.5721,0.04577 -0.82382,0.1373c-0.25172,0.09154 -0.48438,0.18689 -0.69796,0.28605c-0.20596,0.09154 -0.40047,0.1373 -0.58354,0.1373c-0.18307,0 -0.328,-0.06103 -0.4348,-0.18307c-0.09916,-0.12205 -0.14875,-0.27842 -0.14875,-0.46912c0,-0.27461 0.12968,-0.53396 0.38903,-0.77806c0.26698,-0.2441 0.61787,-0.44242 1.05266,-0.59498c0.4348,-0.15256 0.90774,-0.22884 1.41881,-0.22884c0.61787,0 1.14802,0.14875 1.59044,0.44624c0.44242,0.29749 0.77806,0.73229 1.0069,1.30439c0.19833,0.48819 0.33944,1.0336 0.42335,1.63621c0.08391,0.60261 0.12586,1.24718 0.12586,1.9337c0,0.51871 -0.0267,0.91918 -0.08009,1.20141c-0.05339,0.28223 -0.1373,0.48056 -0.25172,0.59498c-0.10679,0.10682 -0.25172,0.16019 -0.4348,0.16019zM207.91309,175.84492c0.25172,0 0.50727,-0.03433 0.76661,-0.10298c0.25935,-0.07628 0.47675,-0.18689 0.65219,-0.33182c0.17545,-0.14493 0.26317,-0.32419 0.26317,-0.53777c0,-0.18307 -0.07628,-0.33182 -0.22884,-0.44624c-0.14493,-0.12205 -0.33944,-0.21358 -0.58354,-0.27461c-0.23647,-0.06103 -0.49201,-0.09154 -0.76661,-0.09154c-0.46531,0 -0.82001,0.08009 -1.06411,0.24028c-0.23647,0.16019 -0.3547,0.37377 -0.3547,0.64075c0,0.28987 0.1106,0.51489 0.33182,0.67508c0.22884,0.15256 0.55684,0.22884 0.98401,0.22884zM213.23338,174.55197c0.30509,0 0.54922,0.10679 0.73229,0.32038c0.19067,0.20596 0.28605,0.51107 0.28605,0.91536c0,0.37377 -0.09154,0.69034 -0.27461,0.94969c-0.17547,0.25935 -0.46152,0.38903 -0.85815,0.38903c-0.3204,0 -0.55687,-0.10682 -0.70943,-0.32038c-0.14493,-0.21358 -0.2174,-0.51489 -0.2174,-0.90392c0,-0.22884 0.03052,-0.44624 0.09154,-0.65219c0.06103,-0.20596 0.16782,-0.37377 0.32038,-0.50345c0.15256,-0.12968 0.36233,-0.19451 0.62933,-0.19451zM220.41512,168.94538c0.93824,0 1.64765,0.1907 2.12821,0.5721c0.48056,0.3814 0.72085,0.93062 0.72085,1.64765c0,0.53396 -0.15259,0.98401 -0.45768,1.35016c-0.30517,0.36614 -0.70565,0.64075 -1.20141,0.82382l-0.04577,-0.38903c0.5721,0.10679 1.0145,0.328 1.32727,0.66364c0.32038,0.328 0.48056,0.77806 0.48056,1.35016c0,0.69415 -0.25941,1.23192 -0.77806,1.61332c-0.51873,0.37377 -1.3464,0.56066 -2.48292,0.56066c-0.6942,0 -1.24718,-0.08009 -1.65909,-0.24028c-0.41191,-0.16781 -0.7094,-0.40047 -0.89248,-0.69796c-0.17547,-0.29749 -0.26317,-0.63694 -0.26317,-1.01834c0,-0.58736 0.19067,-1.07173 0.5721,-1.45314c0.38135,-0.38903 0.92296,-0.65219 1.62477,-0.7895l0.03433,0.48056c-0.60267,-0.03051 -1.09467,-0.22502 -1.47602,-0.58354c-0.37383,-0.35852 -0.56066,-0.86959 -0.56066,-1.53323c0,-0.52633 0.12962,-0.96495 0.38903,-1.31583c0.25932,-0.35089 0.61019,-0.61024 1.05266,-0.77806c0.4424,-0.17544 0.93824,-0.26317 1.48746,-0.26317zM221.62798,171.38253c0,-0.28987 -0.12586,-0.49582 -0.37759,-0.61787c-0.25172,-0.12205 -0.54922,-0.18307 -0.89248,-0.18307c-0.46536,0 -0.82767,0.08391 -1.08699,0.25172c-0.25172,0.16781 -0.37759,0.39285 -0.37759,0.67508c0,0.25935 0.0953,0.4615 0.28605,0.60643c0.19827,0.14493 0.51865,0.2174 0.96113,0.2174c0.48817,0 0.85815,-0.07628 1.10987,-0.22884c0.25172,-0.15256 0.37759,-0.39285 0.37759,-0.72085zM220.36935,173.75103c-0.49585,0 -0.86959,0.09916 -1.12132,0.29749c-0.25172,0.1907 -0.37759,0.41573 -0.37759,0.67508c0,0.29749 0.11442,0.51107 0.34326,0.64075c0.23644,0.12205 0.58354,0.18307 1.04122,0.18307c0.52633,0 0.90768,-0.08772 1.1442,-0.26317c0.23644,-0.17545 0.3547,-0.40429 0.3547,-0.68652c0,-0.25172 -0.09538,-0.45386 -0.28605,-0.60643c-0.19075,-0.16019 -0.5569,-0.24028 -1.09843,-0.24028zM224.84694,177.11498c-0.21364,0 -0.39671,-0.07625 -0.54922,-0.22884c-0.15259,-0.16019 -0.22884,-0.35852 -0.22884,-0.59498c0,-0.27461 0.11058,-0.5721 0.33182,-0.89248c0.22116,-0.328 0.54153,-0.64838 0.96113,-0.96113c0.42711,-0.31275 0.9344,-0.58736 1.52179,-0.82382v-0.04577c-0.96881,-0.41191 -1.68198,-0.87341 -2.13966,-1.38448c-0.45008,-0.51107 -0.67508,-0.9802 -0.67508,-1.40737c0,-0.17545 0.03809,-0.32419 0.11442,-0.44624c0.08385,-0.12205 0.19067,-0.2174 0.32038,-0.28605c0.1373,-0.06865 0.27837,-0.10298 0.42335,-0.10298c0.31269,0 0.61403,0.11824 0.90392,0.3547c0.29749,0.22884 0.5873,0.56066 0.86959,0.99545c0.28221,0.42717 0.55682,0.94206 0.82382,1.54467h0.04577c0.38903,-1.04504 0.79326,-1.80402 1.21285,-2.27696c0.42711,-0.48056 0.86959,-0.72085 1.32727,-0.72085c0.22116,0 0.39279,0.07247 0.51489,0.2174c0.12202,0.1373 0.18307,0.31275 0.18307,0.52633c0,0.50345 -0.2174,0.99545 -0.65219,1.47602c-0.4348,0.48056 -1.09467,0.93443 -1.97947,1.3616v0.05721c0.81614,0.45006 1.42257,0.91918 1.81928,1.40737c0.40423,0.48056 0.60643,0.90392 0.60643,1.27006c0,0.22884 -0.06865,0.41191 -0.20596,0.54922c-0.1297,0.1373 -0.28605,0.20596 -0.46912,0.20596c-0.32038,0 -0.61787,-0.11824 -0.89248,-0.3547c-0.27461,-0.23647 -0.53401,-0.56448 -0.77806,-0.98401c-0.23652,-0.42717 -0.46152,-0.91536 -0.67508,-1.46458h-0.04577c-0.28229,0.69415 -0.57594,1.26625 -0.88103,1.7163c-0.29749,0.44242 -0.59883,0.77043 -0.90392,0.98401c-0.30517,0.20596 -0.60643,0.30893 -0.90392,0.30893zM234.61703,168.94538c0.93824,0 1.64765,0.1907 2.12821,0.5721c0.48056,0.3814 0.72085,0.93062 0.72085,1.64765c0,0.53396 -0.15251,0.98401 -0.45768,1.35016c-0.30509,0.36614 -0.70556,0.64075 -1.20141,0.82382l-0.04577,-0.38903c0.5721,0.10679 1.01458,0.328 1.32727,0.66364c0.32038,0.328 0.48056,0.77806 0.48056,1.35016c0,0.69415 -0.25932,1.23192 -0.77806,1.61332c-0.51865,0.37377 -1.34632,0.56066 -2.48292,0.56066c-0.69412,0 -1.24718,-0.08009 -1.65909,-0.24028c-0.41191,-0.16781 -0.7094,-0.40047 -0.89248,-0.69796c-0.17539,-0.29749 -0.26317,-0.63694 -0.26317,-1.01834c0,-0.58736 0.19075,-1.07173 0.5721,-1.45314c0.38143,-0.38903 0.92304,-0.65219 1.62477,-0.7895l0.03433,0.48056c-0.60259,-0.03051 -1.09459,-0.22502 -1.47602,-0.58354c-0.37375,-0.35852 -0.56066,-0.86959 -0.56066,-1.53323c0,-0.52633 0.1297,-0.96495 0.38903,-1.31583c0.25941,-0.35089 0.61027,-0.61024 1.05266,-0.77806c0.44248,-0.17544 0.93824,-0.26317 1.48746,-0.26317zM235.82988,171.38253c0,-0.28987 -0.12586,-0.49582 -0.37759,-0.61787c-0.25172,-0.12205 -0.54922,-0.18307 -0.89248,-0.18307c-0.46528,0 -0.82758,0.08391 -1.08699,0.25172c-0.25172,0.16781 -0.37759,0.39285 -0.37759,0.67508c0,0.25935 0.09538,0.4615 0.28605,0.60643c0.19836,0.14493 0.51873,0.2174 0.96113,0.2174c0.48825,0 0.85815,-0.07628 1.10987,-0.22884c0.25172,-0.15256 0.37759,-0.39285 0.37759,-0.72085zM234.57126,173.75103c-0.49577,0 -0.86959,0.09916 -1.12132,0.29749c-0.25172,0.1907 -0.37759,0.41573 -0.37759,0.67508c0,0.29749 0.11442,0.51107 0.34326,0.64075c0.23652,0.12205 0.58354,0.18307 1.04122,0.18307c0.52633,0 0.90776,-0.08772 1.1442,-0.26317c0.23652,-0.17545 0.3547,-0.40429 0.3547,-0.68652c0,-0.25172 -0.0953,-0.45386 -0.28605,-0.60643c-0.19067,-0.16019 -0.55682,-0.24028 -1.09843,-0.24028zM222.44641,184.10932c-0.35854,0.10682 -0.69036,0.19067 -0.99545,0.25172c-0.30509,0.05337 -0.59114,0.08009 -0.85815,0.08009c-0.24412,0 -0.4348,-0.04961 -0.5721,-0.14875c-0.1373,-0.09914 -0.20596,-0.24788 -0.20596,-0.44624c0,-0.16779 0.05721,-0.32798 0.17163,-0.48056c0.11442,-0.15259 0.28989,-0.28989 0.52633,-0.41191c0.28221,-0.1373 0.64075,-0.25172 1.07555,-0.34326c0.4348,-0.09154 0.94209,-0.1373 1.52179,-0.1373c0.38903,0 0.72845,0.02673 1.01834,0.08009c0.28989,0.04577 0.51873,0.10298 0.68652,0.17163c0.22124,0.09154 0.37375,0.19836 0.45768,0.32038c0.09154,0.11442 0.1373,0.24788 0.1373,0.40047c0,0.19067 -0.06865,0.3471 -0.20596,0.46912c-0.1373,0.12202 -0.35854,0.18307 -0.66364,0.18307c-0.18307,0 -0.37375,-0.01144 -0.5721,-0.03433c-0.19067,-0.02288 -0.39287,-0.05337 -0.60643,-0.09154zM223.2359,183.49145c0.38903,0.48817 0.69036,1.05651 0.90392,1.70486c0.22124,0.64075 0.33182,1.31199 0.33182,2.01379c0,0.73229 -0.10298,1.38832 -0.30893,1.96803c-0.19836,0.5721 -0.51873,1.02594 -0.96113,1.3616c-0.4424,0.32798 -1.02978,0.49201 -1.76207,0.49201c-0.90008,0 -1.57516,-0.25172 -2.02524,-0.75517c-0.45008,-0.50345 -0.67508,-1.19381 -0.67508,-2.071c0,-0.4272 0.05337,-0.7895 0.16019,-1.08699c0.11442,-0.29749 0.26317,-0.52249 0.44624,-0.67508c0.18307,-0.16019 0.38143,-0.24028 0.59498,-0.24028c0.19836,0 0.3471,0.06105 0.44624,0.18307c0.10682,0.11442 0.16019,0.27845 0.16019,0.49201c0,0.17547 -0.03048,0.36999 -0.09154,0.58354c-0.05337,0.20596 -0.08009,0.40807 -0.08009,0.60643c0,0.51105 0.08769,0.88488 0.26317,1.12132c0.18307,0.22884 0.47296,0.34326 0.86959,0.34326c0.52633,0 0.89632,-0.21356 1.10987,-0.64075c0.22124,-0.4348 0.33182,-1.02594 0.33182,-1.77351c0,-0.54162 -0.05721,-1.07171 -0.17163,-1.59044c-0.11442,-0.51873 -0.29749,-1.04882 -0.54922,-1.59044zM231.35924,191.02029c-0.25941,0 -0.43864,-0.09914 -0.53777,-0.29749c-0.09154,-0.20596 -0.14499,-0.53017 -0.16019,-0.97257l0.11442,0.05721c-0.4272,0.83143 -1.23574,1.24718 -2.42571,1.24718c-0.54162,0 -0.9917,-0.09538 -1.35016,-0.28605c-0.35854,-0.19836 -0.62555,-0.45768 -0.80094,-0.77806c-0.16787,-0.32798 -0.25172,-0.68268 -0.25172,-1.06411c0,-0.65604 0.22884,-1.17469 0.68652,-1.55611c0.45768,-0.38903 1.06411,-0.58354 1.81928,-0.58354c0.49577,0 0.9268,0.07249 1.29295,0.2174c0.36614,0.1449 0.67884,0.3471 0.93824,0.60643l-0.19451,-0.02288c-0.05345,-0.77046 -0.22124,-1.31967 -0.50345,-1.64765c-0.27461,-0.33566 -0.66748,-0.50345 -1.17853,-0.50345c-0.29749,0 -0.5721,0.04577 -0.82382,0.1373c-0.25172,0.09154 -0.48441,0.18691 -0.69796,0.28605c-0.20596,0.09154 -0.40047,0.1373 -0.58354,0.1373c-0.18307,0 -0.32806,-0.06105 -0.4348,-0.18307c-0.09922,-0.12202 -0.14875,-0.27845 -0.14875,-0.46912c0,-0.27461 0.12962,-0.53393 0.38903,-0.77806c0.26693,-0.24412 0.61787,-0.4424 1.05266,-0.59498c0.4348,-0.15259 0.90768,-0.22884 1.41881,-0.22884c0.61787,0 1.14796,0.14875 1.59044,0.44624c0.4424,0.29749 0.77806,0.73229 1.0069,1.30439c0.19827,0.48817 0.33942,1.03362 0.42335,1.63621c0.08385,0.60259 0.12578,1.24718 0.12578,1.9337c0,0.51873 -0.02664,0.9192 -0.08001,1.20141c-0.05345,0.28221 -0.1373,0.48056 -0.25172,0.59498c-0.10682,0.10682 -0.25172,0.16019 -0.4348,0.16019zM228.83056,189.73878c0.25172,0 0.50721,-0.03433 0.76661,-0.10298c0.25932,-0.07625 0.47672,-0.18691 0.65219,-0.33182c0.17539,-0.1449 0.26317,-0.32422 0.26317,-0.53777c0,-0.18307 -0.07633,-0.33182 -0.22884,-0.44624c-0.14499,-0.12202 -0.3395,-0.21356 -0.58354,-0.27461c-0.23652,-0.06105 -0.49201,-0.09154 -0.76661,-0.09154c-0.46536,0 -0.82007,0.08009 -1.06411,0.24028c-0.23652,0.16019 -0.3547,0.37375 -0.3547,0.64075c0,0.28989 0.11058,0.51489 0.33182,0.67508c0.22884,0.15259 0.55682,0.22884 0.98401,0.22884zM233.10954,186.26041c0,-0.79334 0.09154,-1.36544 0.27461,-1.7163c0.19075,-0.35086 0.43864,-0.52633 0.74373,-0.52633c0.17547,0 0.30893,0.06481 0.40047,0.19451c0.09922,0.12202 0.16787,0.28989 0.20596,0.50345c0.03817,0.20596 0.05721,0.43864 0.05721,0.69796c0,0.32798 0,0.71325 0,1.15564c0.00768,0.4348 0.01528,0.88488 0.02288,1.35016c0.01528,0.45768 0.03057,0.88488 0.04577,1.2815h0.04577c0.23652,-0.9993 0.47296,-1.81928 0.7094,-2.46003c0.24412,-0.64075 0.49201,-1.11372 0.74373,-1.41881c0.25941,-0.31278 0.51873,-0.46912 0.77806,-0.46912c0.28229,0 0.54922,0.15635 0.80094,0.46912c0.25941,0.30509 0.51113,0.77046 0.75517,1.39593c0.25172,0.62547 0.50729,1.41497 0.76661,2.3685h0.04577c0.02288,-0.65604 0.03817,-1.34632 0.04577,-2.071c0.00768,-0.72469 0.01144,-1.38832 0.01144,-1.99091c0,-0.4348 0.07249,-0.75517 0.2174,-0.96113c0.14499,-0.20596 0.3471,-0.30893 0.60643,-0.30893c0.32806,0 0.5645,0.17163 0.7094,0.51489c0.15259,0.33566 0.22884,0.7895 0.22884,1.3616c0,0.41951 -0.02288,0.86959 -0.06865,1.35016c-0.03809,0.47296 -0.0953,0.93064 -0.17163,1.37304c-0.07625,0.4424 -0.16779,0.82767 -0.27461,1.15564c-0.16019,0.48817 -0.33942,0.85815 -0.53777,1.10987c-0.19067,0.25172 -0.4424,0.37759 -0.75517,0.37759c-0.28221,0 -0.56442,-0.16403 -0.84671,-0.49201c-0.27461,-0.33566 -0.53393,-0.83527 -0.77806,-1.4989c-0.24404,-0.66364 -0.46912,-1.4913 -0.67508,-2.48292h-0.04577c-0.19827,0.94585 -0.4348,1.73919 -0.7094,2.37994c-0.26693,0.63315 -0.55298,1.10987 -0.85815,1.43025c-0.29749,0.32038 -0.59498,0.48056 -0.89248,0.48056c-0.31269,0 -0.57586,-0.14115 -0.7895,-0.42335c-0.20596,-0.28221 -0.37759,-0.71701 -0.51489,-1.30439c-0.06097,-0.29749 -0.11442,-0.61403 -0.16019,-0.94969c-0.04577,-0.34326 -0.08009,-0.67892 -0.10298,-1.0069c-0.02288,-0.32798 -0.03433,-0.61787 -0.03433,-0.86959zM247.30425,191.02029c-0.25932,0 -0.43864,-0.09914 -0.53777,-0.29749c-0.09154,-0.20596 -0.1449,-0.53017 -0.16019,-0.97257l0.11442,0.05721c-0.4272,0.83143 -1.23574,1.24718 -2.42571,1.24718c-0.54162,0 -0.99161,-0.09538 -1.35016,-0.28605c-0.35854,-0.19836 -0.62547,-0.45768 -0.80094,-0.77806c-0.16779,-0.32798 -0.25172,-0.68268 -0.25172,-1.06411c0,-0.65604 0.22884,-1.17469 0.68652,-1.55611c0.45768,-0.38903 1.06411,-0.58354 1.81928,-0.58354c0.49585,0 0.9268,0.07249 1.29295,0.2174c0.36614,0.1449 0.67892,0.3471 0.93824,0.60643l-0.19451,-0.02288c-0.05337,-0.77046 -0.22124,-1.31967 -0.50345,-1.64765c-0.27461,-0.33566 -0.66748,-0.50345 -1.17853,-0.50345c-0.29749,0 -0.5721,0.04577 -0.82382,0.1373c-0.25172,0.09154 -0.48441,0.18691 -0.69796,0.28605c-0.20596,0.09154 -0.40047,0.1373 -0.58354,0.1373c-0.18307,0 -0.32798,-0.06105 -0.4348,-0.18307c-0.09914,-0.12202 -0.14875,-0.27845 -0.14875,-0.46912c0,-0.27461 0.1297,-0.53393 0.38903,-0.77806c0.26701,-0.24412 0.61787,-0.4424 1.05266,-0.59498c0.4348,-0.15259 0.90776,-0.22884 1.41881,-0.22884c0.61787,0 1.14804,0.14875 1.59044,0.44624c0.4424,0.29749 0.77806,0.73229 1.0069,1.30439c0.19836,0.48817 0.33942,1.03362 0.42335,1.63621c0.08394,0.60259 0.12586,1.24718 0.12586,1.9337c0,0.51873 -0.02673,0.9192 -0.08009,1.20141c-0.05337,0.28221 -0.1373,0.48056 -0.25172,0.59498c-0.10682,0.10682 -0.25172,0.16019 -0.4348,0.16019zM244.77557,189.73878c0.25172,0 0.50729,-0.03433 0.76661,-0.10298c0.25932,-0.07625 0.47672,-0.18691 0.65219,-0.33182c0.17547,-0.1449 0.26317,-0.32422 0.26317,-0.53777c0,-0.18307 -0.07625,-0.33182 -0.22884,-0.44624c-0.1449,-0.12202 -0.33942,-0.21356 -0.58354,-0.27461c-0.23644,-0.06105 -0.49201,-0.09154 -0.76661,-0.09154c-0.46528,0 -0.81998,0.08009 -1.06411,0.24028c-0.23644,0.16019 -0.3547,0.37375 -0.3547,0.64075c0,0.28989 0.11058,0.51489 0.33182,0.67508c0.22884,0.15259 0.55682,0.22884 0.98401,0.22884zM250.33614,191.02029c-0.16779,0 -0.30509,-0.05721 -0.41191,-0.17163c-0.09914,-0.11442 -0.17923,-0.27845 -0.24028,-0.49201c-0.06105,-0.31278 -0.11442,-0.72085 -0.16019,-1.22429c-0.03817,-0.51105 -0.05721,-1.05651 -0.05721,-1.63621c0,-0.32798 0.0076,-0.69796 0.02288,-1.10987c0.01528,-0.41191 0.03433,-0.82767 0.05721,-1.24718c0.03048,-0.4272 0.06105,-0.82382 0.09154,-1.18997c0.03817,-0.36614 0.07625,-0.66364 0.11442,-0.89248c0.06105,-0.33566 0.14875,-0.59883 0.26317,-0.7895c0.12202,-0.19836 0.31278,-0.29749 0.5721,-0.29749c0.26701,0 0.46152,0.10298 0.58354,0.30893c0.12202,0.19836 0.18307,0.44624 0.18307,0.74373c0,0.33566 -0.02673,0.73229 -0.08009,1.18997c-0.04577,0.45768 -0.11826,0.92296 -0.2174,1.39593l-0.22884,0.27461c0.08394,-0.32038 0.22124,-0.61403 0.41191,-0.88103c0.19067,-0.26701 0.43096,-0.47672 0.72085,-0.62931c0.28989,-0.16019 0.62547,-0.24028 1.0069,-0.24028c0.74757,0 1.34256,0.26701 1.78495,0.80094c0.45008,0.52633 0.67508,1.35016 0.67508,2.47147c0,0.78566 -0.11826,1.44169 -0.3547,1.96803c-0.22884,0.52633 -0.54538,0.92296 -0.94969,1.18997c-0.39663,0.25932 -0.85055,0.38903 -1.3616,0.38903c-0.48056,0 -0.89632,-0.14115 -1.24718,-0.42335c-0.34326,-0.28221 -0.5645,-0.69036 -0.66364,-1.22429l0.16019,0.12586c-0.03048,0.54922 -0.10682,0.95353 -0.22884,1.21285c-0.11442,0.25172 -0.26317,0.37759 -0.44624,0.37759zM252.43003,189.62436c0.38143,0 0.71701,-0.17163 1.0069,-0.51489c0.28989,-0.34326 0.4348,-0.88103 0.4348,-1.61332c0,-0.61027 -0.11442,-1.10603 -0.34326,-1.48746c-0.22124,-0.38143 -0.59498,-0.5721 -1.12132,-0.5721c-0.4272,0 -0.77046,0.17163 -1.02978,0.51489c-0.25932,0.33566 -0.38903,0.84671 -0.38903,1.53323c0,0.62547 0.1297,1.14036 0.38903,1.54467c0.25932,0.39663 0.61027,0.59498 1.05266,0.59498zM261.58445,191.02029c-0.25941,0 -0.43864,-0.09914 -0.53777,-0.29749c-0.09154,-0.20596 -0.14499,-0.53017 -0.16019,-0.97257l0.11442,0.05721c-0.4272,0.83143 -1.23574,1.24718 -2.42571,1.24718c-0.54162,0 -0.9917,-0.09538 -1.35016,-0.28605c-0.35854,-0.19836 -0.62555,-0.45768 -0.80094,-0.77806c-0.16787,-0.32798 -0.25172,-0.68268 -0.25172,-1.06411c0,-0.65604 0.22884,-1.17469 0.68652,-1.55611c0.45768,-0.38903 1.06411,-0.58354 1.81928,-0.58354c0.49577,0 0.9268,0.07249 1.29295,0.2174c0.36614,0.1449 0.67884,0.3471 0.93824,0.60643l-0.19451,-0.02288c-0.05345,-0.77046 -0.22124,-1.31967 -0.50345,-1.64765c-0.27461,-0.33566 -0.66748,-0.50345 -1.17853,-0.50345c-0.29749,0 -0.5721,0.04577 -0.82382,0.1373c-0.25172,0.09154 -0.48441,0.18691 -0.69796,0.28605c-0.20596,0.09154 -0.40047,0.1373 -0.58354,0.1373c-0.18307,0 -0.32806,-0.06105 -0.4348,-0.18307c-0.09922,-0.12202 -0.14875,-0.27845 -0.14875,-0.46912c0,-0.27461 0.12962,-0.53393 0.38903,-0.77806c0.26693,-0.24412 0.61787,-0.4424 1.05266,-0.59498c0.4348,-0.15259 0.90768,-0.22884 1.41881,-0.22884c0.61787,0 1.14796,0.14875 1.59044,0.44624c0.4424,0.29749 0.77806,0.73229 1.0069,1.30439c0.19827,0.48817 0.33942,1.03362 0.42335,1.63621c0.08385,0.60259 0.12586,1.24718 0.12586,1.9337c0,0.51873 -0.02673,0.9192 -0.08009,1.20141c-0.05345,0.28221 -0.1373,0.48056 -0.25172,0.59498c-0.10682,0.10682 -0.25172,0.16019 -0.4348,0.16019zM259.05577,189.73878c0.25172,0 0.50721,-0.03433 0.76661,-0.10298c0.25932,-0.07625 0.47672,-0.18691 0.65219,-0.33182c0.17539,-0.1449 0.26317,-0.32422 0.26317,-0.53777c0,-0.18307 -0.07633,-0.33182 -0.22884,-0.44624c-0.14499,-0.12202 -0.3395,-0.21356 -0.58354,-0.27461c-0.23652,-0.06105 -0.49201,-0.09154 -0.76661,-0.09154c-0.46536,0 -0.82007,0.08009 -1.06411,0.24028c-0.23652,0.16019 -0.3547,0.37375 -0.3547,0.64075c0,0.28989 0.11058,0.51489 0.33182,0.67508c0.22884,0.15259 0.55682,0.22884 0.98401,0.22884zM264.91375,183.78894c0.24412,0 0.40815,0.09914 0.49201,0.29749c0.09154,0.19836 0.1373,0.49201 0.1373,0.88103c0,0.09154 -0.0076,0.19067 -0.02288,0.29749c-0.0076,0.09914 -0.02288,0.19067 -0.04577,0.27461l-0.02288,-0.22884c0.18307,-0.49585 0.46536,-0.88103 0.84671,-1.15564c0.38143,-0.28221 0.78574,-0.42335 1.21285,-0.42335c0.47296,0 0.86583,0.13346 1.17853,0.40047c0.32038,0.26701 0.5569,0.64075 0.7094,1.12132c0.16019,0.48056 0.24028,1.04882 0.24028,1.70486c0,0.40431 -0.01904,0.80478 -0.05721,1.20141c-0.03048,0.38903 -0.07625,0.74757 -0.1373,1.07555c-0.05337,0.32038 -0.11442,0.58354 -0.18307,0.7895c-0.09154,0.25932 -0.20972,0.45384 -0.3547,0.58354c-0.1449,0.12202 -0.31653,0.18307 -0.51489,0.18307c-0.19827,0 -0.35086,-0.07249 -0.45768,-0.2174c-0.10674,-0.1449 -0.16019,-0.33942 -0.16019,-0.58354c0,-0.25932 0.01912,-0.5721 0.05721,-0.93824c0.03817,-0.37375 0.07249,-0.75133 0.10298,-1.13276c0.03817,-0.38903 0.05721,-0.73989 0.05721,-1.05266c0,-1.06795 -0.35086,-1.60188 -1.05266,-1.60188c-0.37375,0 -0.68652,0.16779 -0.93824,0.50345c-0.25172,0.32798 -0.41951,0.7971 -0.50345,1.40737c-0.02288,0.20596 -0.03433,0.46152 -0.03433,0.76661c0,0.30509 0,0.61027 0,0.91536c0.00768,0.29749 0,0.54922 -0.02288,0.75517c-0.03048,0.45768 -0.11818,0.78566 -0.26317,0.98401c-0.1373,0.19836 -0.32798,0.29749 -0.5721,0.29749c-0.28221,0 -0.49577,-0.1297 -0.64075,-0.38903c-0.1449,-0.26701 -0.2174,-0.71325 -0.2174,-1.33871c0,-0.32038 0.00768,-0.67892 0.02288,-1.07555c0.01528,-0.39663 0.03433,-0.79334 0.05721,-1.18997c0.03057,-0.40431 0.06489,-0.77046 0.10298,-1.09843c0.07633,-0.61787 0.18691,-1.10603 0.33182,-1.46458c0.14499,-0.36614 0.36238,-0.54922 0.65219,-0.54922zM273.95195,188.44584c0.30517,0 0.54922,0.10682 0.73229,0.32038c0.19075,0.20596 0.28605,0.51105 0.28605,0.91536c0,0.37375 -0.09154,0.69036 -0.27461,0.94969c-0.17539,0.25932 -0.46144,0.38903 -0.85815,0.38903c-0.32038,0 -0.55682,-0.10682 -0.7094,-0.32038c-0.1449,-0.21356 -0.2174,-0.51489 -0.2174,-0.90392c0,-0.22884 0.03057,-0.44624 0.09154,-0.65219c0.06105,-0.20596 0.16787,-0.37375 0.32038,-0.50345c0.15259,-0.1297 0.36238,-0.19451 0.62931,-0.19451zM273.95195,183.75461c0.30517,0 0.54922,0.10682 0.73229,0.32038c0.19075,0.20596 0.28605,0.51105 0.28605,0.91536c0,0.37375 -0.09154,0.69036 -0.27461,0.94969c-0.17539,0.25932 -0.46144,0.38903 -0.85815,0.38903c-0.32038,0 -0.55682,-0.10682 -0.7094,-0.32038c-0.1449,-0.21356 -0.2174,-0.51489 -0.2174,-0.90392c0,-0.22884 0.03057,-0.44624 0.09154,-0.65219c0.06105,-0.20596 0.16787,-0.37375 0.32038,-0.50345c0.15259,-0.1297 0.36238,-0.19451 0.62931,-0.19451z"/></g></g></svg>