<svg width="112" height="55" viewBox="0 0 112 55" fill="none" xmlns="http://www.w3.org/2000/svg">
<path d="M25 0.5H87C100.531 0.5 111.5 11.469 111.5 25V28C111.5 41.531 100.531 52.5 87 52.5H25C11.469 52.5 0.5 41.531 0.5 28V25C0.5 11.469 11.469 0.5 25 0.5Z" fill="#75F94C" stroke="black"/>
<path d="M37.9332 24.055C37.4785 24.055 37.1009 23.9707 36.8002 23.802C36.5069 23.626 36.2869 23.3583 36.1402 22.999C36.0375 22.7497 35.9605 22.449 35.9092 22.097C35.8652 21.7377 35.8432 21.327 35.8432 20.865C35.8432 20.073 35.8689 19.4203 35.9202 18.907C35.9715 18.3863 36.0449 17.9683 36.1402 17.653C36.2429 17.3303 36.3565 17.07 36.4812 16.872C36.6792 16.5713 36.9945 16.3293 37.4272 16.146C37.8599 15.9627 38.4722 15.871 39.2642 15.871C39.7922 15.871 40.2139 15.9517 40.5292 16.113C40.8519 16.267 41.0829 16.4723 41.2222 16.729C41.3689 16.9857 41.4422 17.2717 41.4422 17.587C41.4422 18.0857 41.2955 18.4963 41.0022 18.819C40.7089 19.1417 40.3239 19.3983 39.8472 19.589V19.633C40.3679 19.6917 40.7712 19.8603 41.0572 20.139C41.3505 20.4103 41.4972 20.799 41.4972 21.305C41.4972 21.7083 41.3945 22.0787 41.1892 22.416C40.9912 22.746 40.7199 23.0357 40.3752 23.285C40.0379 23.527 39.6565 23.7177 39.2312 23.857C38.8059 23.989 38.3732 24.055 37.9332 24.055ZM38.2742 22.735C38.6262 22.735 38.9379 22.6763 39.2092 22.559C39.4879 22.4417 39.7042 22.284 39.8582 22.086C40.0195 21.8807 40.1002 21.6497 40.1002 21.393C40.1002 21.1143 39.9645 20.8833 39.6932 20.7C39.4292 20.5093 39.0149 20.414 38.4502 20.414C38.0689 20.414 37.7645 20.5057 37.5372 20.689C37.3172 20.865 37.2072 21.1693 37.2072 21.602C37.2072 22.0127 37.2952 22.306 37.4712 22.482C37.6472 22.6507 37.9149 22.735 38.2742 22.735ZM38.3182 19.248C38.8169 19.248 39.2312 19.138 39.5612 18.918C39.8985 18.6907 40.0672 18.3973 40.0672 18.038C40.0672 17.774 39.9609 17.5613 39.7482 17.4C39.5355 17.2387 39.2239 17.158 38.8132 17.158C38.3659 17.158 37.9992 17.246 37.7132 17.422C37.4272 17.598 37.2842 17.8987 37.2842 18.324C37.2842 18.6687 37.3759 18.9107 37.5592 19.05C37.7499 19.182 38.0029 19.248 38.3182 19.248ZM47.5239 24.11C47.2746 24.11 47.1022 24.0147 47.0069 23.824C46.9189 23.626 46.8676 23.3143 46.8529 22.889L46.9629 22.944C46.5522 23.7433 45.7749 24.143 44.6309 24.143C44.1102 24.143 43.6776 24.0513 43.3329 23.868C42.9882 23.6773 42.7316 23.428 42.5629 23.12C42.4016 22.8047 42.3209 22.4637 42.3209 22.097C42.3209 21.4663 42.5409 20.9677 42.9809 20.601C43.4209 20.227 44.0039 20.04 44.7299 20.04C45.2066 20.04 45.6209 20.1097 45.9729 20.249C46.3249 20.3883 46.6256 20.5827 46.8749 20.832L46.6879 20.81C46.6366 20.0693 46.4752 19.5413 46.2039 19.226C45.9399 18.9033 45.5622 18.742 45.0709 18.742C44.7849 18.742 44.5209 18.786 44.2789 18.874C44.0369 18.962 43.8132 19.0537 43.6079 19.149C43.4099 19.237 43.2229 19.281 43.0469 19.281C42.8709 19.281 42.7316 19.2223 42.6289 19.105C42.5336 18.9877 42.4859 18.8373 42.4859 18.654C42.4859 18.39 42.6106 18.1407 42.8599 17.906C43.1166 17.6713 43.4539 17.4807 43.8719 17.334C44.2899 17.1873 44.7446 17.114 45.2359 17.114C45.8299 17.114 46.3396 17.257 46.7649 17.543C47.1902 17.829 47.5129 18.247 47.7329 18.797C47.9236 19.2663 48.0592 19.7907 48.1399 20.37C48.2206 20.9493 48.2609 21.569 48.2609 22.229C48.2609 22.7277 48.2352 23.1127 48.1839 23.384C48.1326 23.6553 48.0519 23.846 47.9419 23.956C47.8392 24.0587 47.6999 24.11 47.5239 24.11ZM45.0929 22.878C45.3349 22.878 45.5806 22.845 45.8299 22.779C46.0792 22.7057 46.2882 22.5993 46.4569 22.46C46.6256 22.3207 46.7099 22.1483 46.7099 21.943C46.7099 21.767 46.6366 21.624 46.4899 21.514C46.3506 21.3967 46.1636 21.3087 45.9289 21.25C45.7016 21.1913 45.4559 21.162 45.1919 21.162C44.7446 21.162 44.4036 21.239 44.1689 21.393C43.9416 21.547 43.8279 21.7523 43.8279 22.009C43.8279 22.2877 43.9342 22.504 44.1469 22.658C44.3669 22.8047 44.6822 22.878 45.0929 22.878ZM50.7246 17.158C50.9593 17.158 51.117 17.2533 51.1976 17.444C51.2856 17.6347 51.3296 17.917 51.3296 18.291C51.3296 18.379 51.3223 18.4743 51.3076 18.577C51.3003 18.6723 51.2856 18.7603 51.2636 18.841L51.2416 18.621C51.4176 18.1443 51.689 17.774 52.0556 17.51C52.4223 17.2387 52.811 17.103 53.2216 17.103C53.6763 17.103 54.054 17.2313 54.3546 17.488C54.6626 17.7447 54.89 18.104 55.0366 18.566C55.1906 19.028 55.2676 19.5743 55.2676 20.205C55.2676 20.5937 55.2493 20.9787 55.2126 21.36C55.1833 21.734 55.1393 22.0787 55.0806 22.394C55.0293 22.702 54.9706 22.955 54.9046 23.153C54.8166 23.4023 54.703 23.5893 54.5636 23.714C54.4243 23.8313 54.2593 23.89 54.0686 23.89C53.878 23.89 53.7313 23.8203 53.6286 23.681C53.526 23.5417 53.4746 23.3547 53.4746 23.12C53.4746 22.8707 53.493 22.57 53.5296 22.218C53.5663 21.8587 53.5993 21.4957 53.6286 21.129C53.6653 20.755 53.6836 20.4177 53.6836 20.117C53.6836 19.0903 53.3463 18.577 52.6716 18.577C52.3123 18.577 52.0116 18.7383 51.7696 19.061C51.5276 19.3763 51.3663 19.8273 51.2856 20.414C51.2636 20.612 51.2526 20.8577 51.2526 21.151C51.2526 21.4443 51.2526 21.7377 51.2526 22.031C51.26 22.317 51.2526 22.559 51.2306 22.757C51.2013 23.197 51.117 23.5123 50.9776 23.703C50.8456 23.8937 50.6623 23.989 50.4276 23.989C50.1563 23.989 49.951 23.8643 49.8116 23.615C49.6723 23.3583 49.6026 22.9293 49.6026 22.328C49.6026 22.02 49.61 21.6753 49.6246 21.294C49.6393 20.9127 49.6576 20.5313 49.6796 20.15C49.709 19.7613 49.742 19.4093 49.7786 19.094C49.852 18.5 49.9583 18.0307 50.0976 17.686C50.237 17.334 50.446 17.158 50.7246 17.158ZM58.7075 23.824C58.0182 23.824 57.4572 23.56 57.0245 23.032C56.5919 22.4967 56.3755 21.6863 56.3755 20.601C56.3755 19.4423 56.5845 18.5953 57.0025 18.06C57.4205 17.5247 57.9705 17.257 58.6525 17.257C59.0559 17.257 59.4115 17.3597 59.7195 17.565C60.0275 17.7703 60.2915 18.06 60.5115 18.434L60.4235 18.588C60.4015 18.4853 60.3832 18.3753 60.3685 18.258C60.3539 18.1407 60.3465 18.0527 60.3465 17.994C60.3465 17.6933 60.3942 17.4623 60.4895 17.301C60.5922 17.1323 60.7499 17.048 60.9625 17.048C61.1972 17.048 61.3805 17.1433 61.5125 17.334C61.6519 17.5247 61.7582 17.796 61.8315 18.148C61.9269 18.5073 62.0075 18.9657 62.0735 19.523C62.1395 20.073 62.1725 20.6303 62.1725 21.195C62.1725 21.899 62.1469 22.4893 62.0955 22.966C62.0442 23.4427 61.9599 23.8387 61.8425 24.154C61.7252 24.4693 61.5712 24.7443 61.3805 24.979C61.0652 25.3603 60.6582 25.65 60.1595 25.848C59.6682 26.0533 59.0999 26.156 58.4545 26.156C57.9925 26.156 57.6222 26.112 57.3435 26.024C57.0649 25.9433 56.8632 25.8297 56.7385 25.683C56.6212 25.5437 56.5625 25.386 56.5625 25.21C56.5625 25.0267 56.6139 24.8727 56.7165 24.748C56.8192 24.6307 56.9732 24.572 57.1785 24.572C57.3619 24.572 57.5745 24.6013 57.8165 24.66C58.0659 24.7187 58.3592 24.748 58.6965 24.748C59.4079 24.748 59.9102 24.5793 60.2035 24.242C60.5042 23.912 60.6545 23.4353 60.6545 22.812C60.6545 22.6433 60.6435 22.4453 60.6215 22.218L60.7755 22.273C60.5922 22.7423 60.3209 23.12 59.9615 23.406C59.6022 23.6847 59.1842 23.824 58.7075 23.824ZM59.1255 22.471C59.3602 22.471 59.5949 22.4087 59.8295 22.284C60.0642 22.1593 60.2585 21.954 60.4125 21.668C60.5665 21.382 60.6435 20.997 60.6435 20.513C60.6435 19.9337 60.5079 19.4607 60.2365 19.094C59.9652 18.7273 59.5839 18.544 59.0925 18.544C58.6672 18.544 58.3555 18.7053 58.1575 19.028C57.9595 19.3507 57.8605 19.8383 57.8605 20.491C57.8605 21.1143 57.9595 21.602 58.1575 21.954C58.3555 22.2987 58.6782 22.471 59.1255 22.471ZM68.4638 23.934C68.2658 23.934 68.1118 23.868 68.0018 23.736C67.8991 23.5967 67.8294 23.4207 67.7928 23.208C67.7561 22.988 67.7378 22.757 67.7378 22.515L67.7928 22.471C67.7194 22.7863 67.5764 23.0577 67.3638 23.285C67.1511 23.5123 66.9054 23.6883 66.6268 23.813C66.3481 23.9303 66.0694 23.989 65.7908 23.989C65.4168 23.989 65.0758 23.901 64.7678 23.725C64.4598 23.549 64.2214 23.2777 64.0528 22.911C63.8841 22.5223 63.7521 22.0347 63.6568 21.448C63.5614 20.854 63.5138 20.2453 63.5138 19.622C63.5138 19.2847 63.5284 18.973 63.5578 18.687C63.5871 18.401 63.6348 18.1663 63.7008 17.983C63.7594 17.7923 63.8474 17.653 63.9648 17.565C64.0821 17.4697 64.2324 17.422 64.4158 17.422C64.6284 17.422 64.7934 17.5063 64.9108 17.675C65.0354 17.8363 65.1124 18.0637 65.1418 18.357C65.1711 18.599 65.1894 18.8997 65.1968 19.259C65.2114 19.611 65.2224 19.9667 65.2298 20.326C65.2444 20.678 65.2628 20.975 65.2848 21.217C65.3288 21.657 65.4424 21.9833 65.6258 22.196C65.8091 22.4013 66.0328 22.504 66.2968 22.504C66.6854 22.504 66.9824 22.3573 67.1878 22.064C67.3931 21.7707 67.4958 21.36 67.4958 20.832C67.4958 20.568 67.4811 20.271 67.4518 19.941C67.4224 19.6037 67.3894 19.2773 67.3528 18.962C67.3234 18.6467 67.3088 18.3863 67.3088 18.181C67.3088 17.8363 67.3674 17.5907 67.4848 17.444C67.6021 17.29 67.7634 17.213 67.9688 17.213C68.1448 17.213 68.2914 17.2607 68.4088 17.356C68.5334 17.4513 68.6324 17.5833 68.7058 17.752C68.8084 17.972 68.8964 18.2727 68.9698 18.654C69.0431 19.0353 69.1018 19.468 69.1458 19.952C69.1898 20.436 69.2118 20.9457 69.2118 21.481C69.2118 22.3023 69.1568 22.9183 69.0468 23.329C68.9368 23.7323 68.7424 23.934 68.4638 23.934ZM71.6719 17.158C71.9066 17.158 72.0642 17.2533 72.1449 17.444C72.2329 17.6347 72.2769 17.917 72.2769 18.291C72.2769 18.379 72.2696 18.4743 72.2549 18.577C72.2476 18.6723 72.2329 18.7603 72.2109 18.841L72.1889 18.621C72.3649 18.1443 72.6362 17.774 73.0029 17.51C73.3696 17.2387 73.7582 17.103 74.1689 17.103C74.6236 17.103 75.0012 17.2313 75.3019 17.488C75.6099 17.7447 75.8372 18.104 75.9839 18.566C76.1379 19.028 76.2149 19.5743 76.2149 20.205C76.2149 20.5937 76.1966 20.9787 76.1599 21.36C76.1306 21.734 76.0866 22.0787 76.0279 22.394C75.9766 22.702 75.9179 22.955 75.8519 23.153C75.7639 23.4023 75.6502 23.5893 75.5109 23.714C75.3716 23.8313 75.2066 23.89 75.0159 23.89C74.8252 23.89 74.6786 23.8203 74.5759 23.681C74.4732 23.5417 74.4219 23.3547 74.4219 23.12C74.4219 22.8707 74.4402 22.57 74.4769 22.218C74.5136 21.8587 74.5466 21.4957 74.5759 21.129C74.6126 20.755 74.6309 20.4177 74.6309 20.117C74.6309 19.0903 74.2936 18.577 73.6189 18.577C73.2596 18.577 72.9589 18.7383 72.7169 19.061C72.4749 19.3763 72.3136 19.8273 72.2329 20.414C72.2109 20.612 72.1999 20.8577 72.1999 21.151C72.1999 21.4443 72.1999 21.7377 72.1999 22.031C72.2072 22.317 72.1999 22.559 72.1779 22.757C72.1486 23.197 72.0642 23.5123 71.9249 23.703C71.7929 23.8937 71.6096 23.989 71.3749 23.989C71.1036 23.989 70.8982 23.8643 70.7589 23.615C70.6196 23.3583 70.5499 22.9293 70.5499 22.328C70.5499 22.02 70.5572 21.6753 70.5719 21.294C70.5866 20.9127 70.6049 20.5313 70.6269 20.15C70.6562 19.7613 70.6892 19.4093 70.7259 19.094C70.7992 18.5 70.9056 18.0307 71.0449 17.686C71.1842 17.334 71.3932 17.158 71.6719 17.158ZM42.1138 37.253C41.6518 37.253 41.2925 37.2237 41.0358 37.165C40.7865 37.1063 40.6142 37.0257 40.5188 36.923C40.4235 36.813 40.3722 36.692 40.3648 36.56C40.3648 36.3547 40.4858 36.1823 40.7278 36.043C40.9772 35.9037 41.4318 35.8157 42.0918 35.779L41.9158 35.988C41.8352 35.614 41.7765 35.1777 41.7398 34.679C41.7032 34.1803 41.6885 33.6633 41.6958 33.128C41.7032 32.5927 41.7288 32.083 41.7728 31.599C41.8168 31.1077 41.8792 30.6897 41.9598 30.345L42.9168 30.279C42.7555 30.345 42.5538 30.4037 42.3118 30.455C42.0698 30.499 41.8205 30.521 41.5638 30.521C41.0945 30.521 40.7462 30.4697 40.5188 30.367C40.2988 30.2643 40.1888 30.1213 40.1888 29.938C40.1888 29.6153 40.3832 29.366 40.7718 29.19C41.1678 29.0067 41.7728 28.915 42.5868 28.915C43.5548 28.915 44.3688 29.0763 45.0288 29.399C45.6962 29.7143 46.2022 30.158 46.5468 30.73C46.8915 31.2947 47.0638 31.9547 47.0638 32.71C47.0638 33.37 46.9465 33.9787 46.7118 34.536C46.4772 35.086 46.1398 35.5663 45.6998 35.977C45.2672 36.3803 44.7465 36.6957 44.1378 36.923C43.5365 37.143 42.8618 37.253 42.1138 37.253ZM43.6758 35.559C43.9252 35.559 44.1892 35.46 44.4678 35.262C44.7538 35.0567 44.9958 34.7597 45.1938 34.371C45.3918 33.975 45.4908 33.4873 45.4908 32.908C45.4908 32.4827 45.4285 32.1123 45.3038 31.797C45.1865 31.4743 45.0325 31.2067 44.8418 30.994C44.6512 30.7813 44.4495 30.6237 44.2368 30.521C44.0242 30.411 43.8225 30.356 43.6318 30.356C43.4778 30.356 43.3568 30.4513 43.2688 30.642C43.1882 30.8327 43.1295 31.1187 43.0928 31.5C43.0562 31.874 43.0378 32.3397 43.0378 32.897C43.0378 33.7623 43.0818 34.4223 43.1698 34.877C43.2578 35.3317 43.4265 35.559 43.6758 35.559ZM53.083 37.11C52.8336 37.11 52.6613 37.0147 52.566 36.824C52.478 36.626 52.4266 36.3143 52.412 35.889L52.522 35.944C52.1113 36.7433 51.334 37.143 50.19 37.143C49.6693 37.143 49.2366 37.0513 48.892 36.868C48.5473 36.6773 48.2906 36.428 48.122 36.12C47.9606 35.8047 47.88 35.4637 47.88 35.097C47.88 34.4663 48.1 33.9677 48.54 33.601C48.98 33.227 49.563 33.04 50.289 33.04C50.7656 33.04 51.18 33.1097 51.532 33.249C51.884 33.3883 52.1846 33.5827 52.434 33.832L52.247 33.81C52.1956 33.0693 52.0343 32.5413 51.763 32.226C51.499 31.9033 51.1213 31.742 50.63 31.742C50.344 31.742 50.08 31.786 49.838 31.874C49.596 31.962 49.3723 32.0537 49.167 32.149C48.969 32.237 48.782 32.281 48.606 32.281C48.43 32.281 48.2906 32.2223 48.188 32.105C48.0926 31.9877 48.045 31.8373 48.045 31.654C48.045 31.39 48.1696 31.1407 48.419 30.906C48.6756 30.6713 49.013 30.4807 49.431 30.334C49.849 30.1873 50.3036 30.114 50.795 30.114C51.389 30.114 51.8986 30.257 52.324 30.543C52.7493 30.829 53.072 31.247 53.292 31.797C53.4826 32.2663 53.6183 32.7907 53.699 33.37C53.7796 33.9493 53.82 34.569 53.82 35.229C53.82 35.7277 53.7943 36.1127 53.743 36.384C53.6916 36.6553 53.611 36.846 53.501 36.956C53.3983 37.0587 53.259 37.11 53.083 37.11ZM50.652 35.878C50.894 35.878 51.1396 35.845 51.389 35.779C51.6383 35.7057 51.8473 35.5993 52.016 35.46C52.1846 35.3207 52.269 35.1483 52.269 34.943C52.269 34.767 52.1956 34.624 52.049 34.514C51.9096 34.3967 51.7226 34.3087 51.488 34.25C51.2606 34.1913 51.015 34.162 50.751 34.162C50.3036 34.162 49.9626 34.239 49.728 34.393C49.5006 34.547 49.387 34.7523 49.387 35.009C49.387 35.2877 49.4933 35.504 49.706 35.658C49.926 35.8047 50.2413 35.878 50.652 35.878ZM56.6877 30.378H56.4677C56.4457 30.0553 56.453 29.751 56.4897 29.465C56.5264 29.1717 56.6034 28.937 56.7207 28.761C56.8454 28.5777 57.0214 28.486 57.2487 28.486C57.454 28.486 57.6044 28.552 57.6997 28.684C57.795 28.816 57.8427 28.9993 57.8427 29.234C57.8427 29.696 57.7547 30.092 57.5787 30.422L57.3807 30.4C57.7767 30.2607 58.224 30.191 58.7227 30.191C59.038 30.191 59.2874 30.2533 59.4707 30.378C59.6614 30.4953 59.7567 30.697 59.7567 30.983C59.7567 31.2543 59.6467 31.4597 59.4267 31.599C59.2067 31.7383 58.9317 31.808 58.6017 31.808C58.4037 31.808 58.191 31.8007 57.9637 31.786C57.7437 31.764 57.5274 31.731 57.3147 31.687L57.5017 31.456C57.5677 31.7347 57.63 32.0537 57.6887 32.413C57.7547 32.765 57.8134 33.1317 57.8647 33.513C57.916 33.8943 57.9564 34.2647 57.9857 34.624C58.015 34.9833 58.0297 35.306 58.0297 35.592C58.0297 36.0613 57.9564 36.4317 57.8097 36.703C57.663 36.9743 57.4467 37.11 57.1607 37.11C56.9334 37.11 56.7537 37.0403 56.6217 36.901C56.497 36.7617 56.4054 36.5857 56.3467 36.373C56.2954 36.153 56.2624 35.9257 56.2477 35.691C56.2404 35.4563 56.2367 35.2437 56.2367 35.053C56.2367 34.7303 56.2514 34.3673 56.2807 33.964C56.31 33.5533 56.3504 33.1317 56.4017 32.699C56.4604 32.2663 56.5264 31.8483 56.5997 31.445L56.8197 31.632C56.4457 31.8227 55.9837 31.918 55.4337 31.918C55.0964 31.918 54.836 31.8557 54.6527 31.731C54.4694 31.6063 54.3777 31.412 54.3777 31.148C54.3777 30.862 54.4804 30.642 54.6857 30.488C54.891 30.3267 55.166 30.246 55.5107 30.246C55.738 30.246 55.9507 30.2607 56.1487 30.29C56.354 30.312 56.5337 30.3413 56.6877 30.378ZM65.458 37.11C65.2086 37.11 65.0363 37.0147 64.941 36.824C64.853 36.626 64.8016 36.3143 64.787 35.889L64.897 35.944C64.4863 36.7433 63.709 37.143 62.565 37.143C62.0443 37.143 61.6116 37.0513 61.267 36.868C60.9223 36.6773 60.6656 36.428 60.497 36.12C60.3356 35.8047 60.255 35.4637 60.255 35.097C60.255 34.4663 60.475 33.9677 60.915 33.601C61.355 33.227 61.938 33.04 62.664 33.04C63.1406 33.04 63.555 33.1097 63.907 33.249C64.259 33.3883 64.5596 33.5827 64.809 33.832L64.622 33.81C64.5706 33.0693 64.4093 32.5413 64.138 32.226C63.874 31.9033 63.4963 31.742 63.005 31.742C62.719 31.742 62.455 31.786 62.213 31.874C61.971 31.962 61.7473 32.0537 61.542 32.149C61.344 32.237 61.157 32.281 60.981 32.281C60.805 32.281 60.6656 32.2223 60.563 32.105C60.4676 31.9877 60.42 31.8373 60.42 31.654C60.42 31.39 60.5446 31.1407 60.794 30.906C61.0506 30.6713 61.388 30.4807 61.806 30.334C62.224 30.1873 62.6786 30.114 63.17 30.114C63.764 30.114 64.2736 30.257 64.699 30.543C65.1243 30.829 65.447 31.247 65.667 31.797C65.8576 32.2663 65.9933 32.7907 66.074 33.37C66.1546 33.9493 66.195 34.569 66.195 35.229C66.195 35.7277 66.1693 36.1127 66.118 36.384C66.0666 36.6553 65.986 36.846 65.876 36.956C65.7733 37.0587 65.634 37.11 65.458 37.11ZM63.027 35.878C63.269 35.878 63.5146 35.845 63.764 35.779C64.0133 35.7057 64.2223 35.5993 64.391 35.46C64.5596 35.3207 64.644 35.1483 64.644 34.943C64.644 34.767 64.5706 34.624 64.424 34.514C64.2846 34.3967 64.0976 34.3087 63.863 34.25C63.6356 34.1913 63.39 34.162 63.126 34.162C62.6786 34.162 62.3376 34.239 62.103 34.393C61.8756 34.547 61.762 34.7523 61.762 35.009C61.762 35.2877 61.8683 35.504 62.081 35.658C62.301 35.8047 62.6163 35.878 63.027 35.878ZM67.5367 32.039C67.5367 31.335 67.6027 30.829 67.7347 30.521C67.8667 30.2057 68.0537 30.048 68.2957 30.048C68.4864 30.048 68.6367 30.1287 68.7467 30.29C68.8567 30.444 68.9374 30.6383 68.9887 30.873C69.0401 31.1003 69.0657 31.3313 69.0657 31.566L69.0107 31.544C69.1354 31.148 69.3261 30.807 69.5827 30.521C69.8467 30.235 70.1621 30.092 70.5287 30.092C70.9614 30.092 71.2804 30.2717 71.4857 30.631C71.6911 30.983 71.7937 31.423 71.7937 31.951C71.7937 32.655 71.7131 33.1463 71.5517 33.425C71.3904 33.7037 71.1741 33.843 70.9027 33.843C70.7047 33.843 70.5581 33.7623 70.4627 33.601C70.3747 33.4397 70.3454 33.1537 70.3747 32.743C70.4041 32.3103 70.3784 32.0097 70.2977 31.841C70.2171 31.6723 70.0887 31.588 69.9127 31.588C69.7001 31.588 69.5241 31.7237 69.3847 31.995C69.2527 32.259 69.1867 32.5853 69.1867 32.974C69.1867 33.128 69.2051 33.3223 69.2417 33.557C69.2784 33.7917 69.3187 34.0483 69.3627 34.327C69.4067 34.5983 69.4471 34.8697 69.4837 35.141C69.5204 35.4123 69.5387 35.6617 69.5387 35.889C69.5387 36.2923 69.4764 36.582 69.3517 36.758C69.2271 36.934 69.0511 37.022 68.8237 37.022C68.5671 37.022 68.3691 36.9413 68.2297 36.78C68.0904 36.6113 67.9841 36.34 67.9107 35.966C67.8521 35.6287 67.7934 35.229 67.7347 34.767C67.6761 34.305 67.6284 33.832 67.5917 33.348C67.5551 32.864 67.5367 32.4277 67.5367 32.039Z" fill="black"/>
<circle cx="102" cy="45" r="10" fill="#D9D9D9"/>
<path d="M99.6464 50.3536L100 50.7071L100.354 50.3536L109.354 41.3536L109.706 41.0012L109.355 40.6477L107.945 39.2277L107.591 38.8716L107.236 39.2264L99.9995 46.4634L96.7631 43.236L96.4095 42.8834L96.0564 43.2364L94.6464 44.6464L94.2929 45L94.6464 45.3536L99.6464 50.3536ZM92.5 45C92.5 39.7561 96.7561 35.5 102 35.5C107.244 35.5 111.5 39.7561 111.5 45C111.5 50.2439 107.244 54.5 102 54.5C96.7561 54.5 92.5 50.2439 92.5 45Z" fill="#010101" stroke="black"/>
</svg>
