<svg version="1.1" xmlns="http://www.w3.org/2000/svg" xmlns:xlink="http://www.w3.org/1999/xlink" width="74.75479" height="18.2491" viewBox="0,0,74.75479,18.2491"><g transform="translate(-202.62261,-170.87545)"><g stroke-miterlimit="10"><path d="M208.77317,171.37545h62.45365c3.1209,0 5.65057,2.52984 5.65057,5.65057v5.94797c0,3.12072 -2.52967,5.65057 -5.65057,5.65057h-62.45365c-3.12072,0 -5.65057,-2.52985 -5.65057,-5.65057v-5.94797c0,-3.12072 2.52985,-5.65057 5.65057,-5.65057z" fill="#a5a7a9" stroke="#000000"/><path d="M214.9769,178.1026c0.47185,0 0.81886,0.12092 1.04089,0.36283c0.22602,0.2419 0.33903,0.55911 0.33903,0.95167c0,0.26962 -0.06346,0.50361 -0.19033,0.70186c-0.12294,0.19825 -0.29145,0.35289 -0.50558,0.46394c-0.21413,0.10706 -0.45603,0.1606 -0.72565,0.1606c-0.12687,0 -0.26171,-0.01386 -0.40446,-0.04164c-0.13877,-0.02778 -0.28354,-0.08131 -0.4342,-0.1606l0.02974,-0.07732c0.0317,0.09915 0.05752,0.22204 0.07732,0.36877c0.02379,0.14275 0.04164,0.29145 0.05353,0.4461c0.01588,0.15066 0.02379,0.28949 0.02379,0.41636c0,0.23393 -0.03967,0.41439 -0.11896,0.54126c-0.07536,0.12294 -0.18837,0.18439 -0.33903,0.18439c-0.12687,0 -0.22799,-0.03967 -0.30335,-0.11896c-0.07138,-0.07929 -0.12092,-0.21014 -0.1487,-0.39257c-0.02778,-0.18242 -0.04164,-0.42629 -0.04164,-0.7316c0,-0.58689 0.02575,-1.08652 0.07732,-1.49889c0.05549,-0.41636 0.1487,-0.7435 0.27955,-0.98141c0.10308,-0.18242 0.26171,-0.32714 0.47584,-0.4342c0.21811,-0.10706 0.4897,-0.1606 0.81487,-0.1606zM214.86389,180.04164c0.23792,0 0.43022,-0.06346 0.57695,-0.19033c0.15066,-0.12687 0.22602,-0.31126 0.22602,-0.55316c0,-0.15863 -0.05353,-0.28949 -0.1606,-0.39257c-0.10308,-0.10706 -0.2657,-0.1606 -0.48773,-0.1606c-0.16256,0 -0.30335,0.03765 -0.42231,0.11301c-0.11896,0.07138 -0.21014,0.17249 -0.27361,0.30335c-0.05948,0.12687 -0.08922,0.27361 -0.08922,0.44015c0,0.15465 0.04955,0.26766 0.1487,0.33903c0.10308,0.06739 0.26367,0.10112 0.48179,0.10112zM218.53147,182.42677c-0.44015,0 -0.79108,-0.06543 -1.05279,-0.19628c-0.26171,-0.13086 -0.45008,-0.31923 -0.56506,-0.56506c-0.11497,-0.24583 -0.17249,-0.5393 -0.17249,-0.8803c0,-0.43224 0.07929,-0.79899 0.23792,-1.10037c0.16256,-0.30531 0.38466,-0.5393 0.66617,-0.70186c0.2855,-0.16256 0.60866,-0.24387 0.96952,-0.24387c0.42427,0 0.73559,0.09915 0.93383,0.2974c0.19825,0.19432 0.2974,0.45008 0.2974,0.76729c0,0.2538 -0.06739,0.47387 -0.20223,0.66022c-0.13086,0.18242 -0.31328,0.32315 -0.54721,0.42231c-0.23393,0.09915 -0.50361,0.1487 -0.80892,0.1487c-0.17053,0 -0.33505,-0.02183 -0.49368,-0.06543c-0.15863,-0.0436 -0.30138,-0.10308 -0.42825,-0.17844l0.14275,-0.26171c-0.0119,0.09517 -0.01784,0.19033 -0.01784,0.2855c0,0.27759 0.08726,0.4778 0.26171,0.60074c0.17445,0.11896 0.42231,0.17844 0.7435,0.17844c0.24981,0 0.45008,-0.02183 0.60074,-0.06543c0.15066,-0.0436 0.27759,-0.08523 0.38067,-0.12491c0.10308,-0.0436 0.20419,-0.06543 0.30335,-0.06543c0.05549,0 0.1051,0.01588 0.1487,0.04758c0.04758,0.02778 0.08523,0.06941 0.11301,0.12491c0.0317,0.05549 0.04758,0.12294 0.04758,0.20223c0,0.11896 -0.05948,0.23393 -0.17844,0.34498c-0.11896,0.10706 -0.29544,0.19628 -0.52937,0.26766c-0.23001,0.06739 -0.51349,0.10112 -0.85056,0.10112zM218.18649,180.48179c0.28152,0 0.50754,-0.05948 0.67807,-0.17844c0.17053,-0.11896 0.25576,-0.2657 0.25576,-0.44015c0,-0.13877 -0.04758,-0.25178 -0.14275,-0.33903c-0.09118,-0.09118 -0.23596,-0.1368 -0.4342,-0.1368c-0.18635,0 -0.35492,0.03569 -0.50558,0.10706c-0.14674,0.06739 -0.26171,0.15661 -0.34498,0.26766c-0.08327,0.11105 -0.12491,0.23197 -0.12491,0.36283c0,0.11497 0.05353,0.20419 0.1606,0.26766c0.11105,0.05948 0.26367,0.08922 0.45799,0.08922zM220.61254,179.69665c0,-0.38067 0.03569,-0.65428 0.10706,-0.82082c0.07138,-0.17053 0.17249,-0.25576 0.30335,-0.25576c0.10314,0 0.18439,0.0436 0.24387,0.13086c0.05948,0.08327 0.10314,0.18837 0.13086,0.31524c0.02778,0.12294 0.04164,0.24785 0.04164,0.37472l-0.02974,-0.0119c0.06745,-0.21413 0.17053,-0.39851 0.30929,-0.55316c0.14275,-0.15465 0.31328,-0.23197 0.51153,-0.23197c0.23399,0 0.40648,0.09713 0.51747,0.29145c0.11105,0.19033 0.16654,0.42825 0.16654,0.71376c0,0.38067 -0.0436,0.64637 -0.13086,0.79703c-0.0872,0.15066 -0.20419,0.22602 -0.35093,0.22602c-0.10706,0 -0.18635,-0.0436 -0.23792,-0.13086c-0.04758,-0.08726 -0.06341,-0.2419 -0.04758,-0.46394c0.01588,-0.23393 0.00202,-0.39655 -0.04164,-0.48773c-0.0436,-0.09118 -0.11301,-0.1368 -0.20818,-0.1368c-0.11497,0 -0.21014,0.07334 -0.2855,0.22007c-0.07138,0.14275 -0.10706,0.31923 -0.10706,0.52937c0,0.08327 0.00993,0.18837 0.02974,0.31524c0.01987,0.12687 0.04164,0.2657 0.06543,0.41636c0.02379,0.14674 0.04562,0.29341 0.06543,0.44015c0.01987,0.14674 0.02974,0.28152 0.02974,0.40446c0,0.21811 -0.03367,0.37472 -0.10112,0.46989c-0.06739,0.09517 -0.16256,0.14275 -0.2855,0.14275c-0.13877,0 -0.24583,-0.0436 -0.32119,-0.13086c-0.0753,-0.09118 -0.13282,-0.23792 -0.17249,-0.44015c-0.0317,-0.18242 -0.06341,-0.39851 -0.09517,-0.64833c-0.0317,-0.24981 -0.05746,-0.50558 -0.07732,-0.76729c-0.01981,-0.26171 -0.02974,-0.49767 -0.02974,-0.70781zM223.89338,182.43867c-0.08726,0 -0.15863,-0.02974 -0.21413,-0.08922c-0.05157,-0.05948 -0.0932,-0.14471 -0.12491,-0.25576c-0.03176,-0.16256 -0.05948,-0.37472 -0.08327,-0.63643c-0.01987,-0.2657 -0.02974,-0.54918 -0.02974,-0.85056c0,-0.17053 0.00393,-0.36283 0.0119,-0.57695c0.00791,-0.21413 0.01784,-0.43022 0.02974,-0.64833c0.01582,-0.22204 0.0317,-0.42825 0.04758,-0.61859c0.01981,-0.19033 0.03961,-0.34498 0.05948,-0.46394c0.0317,-0.17445 0.07732,-0.31126 0.1368,-0.41041c0.06341,-0.10308 0.16256,-0.15465 0.2974,-0.15465c0.13877,0 0.23988,0.05353 0.30335,0.1606c0.06341,0.10308 0.09517,0.23197 0.09517,0.38662c0,0.17445 -0.01392,0.38067 -0.04164,0.61859c-0.02379,0.23792 -0.0615,0.47982 -0.11301,0.72565l-0.11896,0.14275c0.0436,-0.16654 0.11497,-0.31923 0.21413,-0.45799c0.09909,-0.13877 0.224,-0.24785 0.37472,-0.32714c0.15066,-0.08327 0.32512,-0.12491 0.52342,-0.12491c0.38858,0 0.69787,0.13877 0.92788,0.41636c0.23393,0.27361 0.35093,0.70186 0.35093,1.28476c0,0.40845 -0.0615,0.74944 -0.18439,1.02305c-0.11896,0.27361 -0.28354,0.47982 -0.49368,0.61859c-0.20622,0.13484 -0.44217,0.20223 -0.70781,0.20223c-0.24981,0 -0.46596,-0.07334 -0.64833,-0.22007c-0.17844,-0.14674 -0.29347,-0.35884 -0.34498,-0.63643l0.08327,0.06543c-0.01588,0.2855 -0.05555,0.49564 -0.11896,0.63048c-0.05948,0.13086 -0.1368,0.19628 -0.23197,0.19628zM224.98186,181.71301c0.19825,0 0.3727,-0.08922 0.52342,-0.26766c0.15066,-0.17844 0.22602,-0.45799 0.22602,-0.83866c0,-0.31721 -0.05948,-0.57499 -0.17844,-0.77324c-0.11503,-0.19825 -0.30929,-0.2974 -0.5829,-0.2974c-0.2221,0 -0.40054,0.08922 -0.53532,0.26766c-0.13484,0.17445 -0.20223,0.44015 -0.20223,0.79703c0,0.32518 0.06739,0.59283 0.20223,0.80298c0.13478,0.20622 0.31721,0.30929 0.54721,0.30929zM229.74065,182.43867c-0.13484,0 -0.22799,-0.05157 -0.27955,-0.15465c-0.04758,-0.10706 -0.07536,-0.27557 -0.08327,-0.50558l0.05948,0.02974c-0.22204,0.43224 -0.64238,0.64833 -1.26097,0.64833c-0.28152,0 -0.51551,-0.04955 -0.70186,-0.1487c-0.18635,-0.10308 -0.32518,-0.23792 -0.41636,-0.40446c-0.08726,-0.17053 -0.13086,-0.35492 -0.13086,-0.55316c0,-0.341 0.11896,-0.61068 0.35688,-0.80892c0.23792,-0.20223 0.55316,-0.30335 0.94573,-0.30335c0.25773,0 0.48179,0.03765 0.67212,0.11301c0.19033,0.07536 0.35289,0.1804 0.48773,0.31524l-0.10112,-0.0119c-0.02778,-0.40048 -0.11497,-0.68598 -0.26171,-0.85651c-0.14275,-0.17445 -0.34694,-0.26171 -0.61264,-0.26171c-0.15465,0 -0.2974,0.02379 -0.42825,0.07138c-0.13086,0.04758 -0.25178,0.09713 -0.36283,0.1487c-0.10706,0.04758 -0.20818,0.07138 -0.30335,0.07138c-0.09517,0 -0.17053,-0.0317 -0.22602,-0.09517c-0.05157,-0.06346 -0.07732,-0.14471 -0.07732,-0.24387c0,-0.14275 0.06739,-0.27759 0.20223,-0.40446c0.13877,-0.12687 0.32119,-0.23001 0.54721,-0.30929c0.22602,-0.07929 0.47185,-0.11896 0.73755,-0.11896c0.32119,0 0.59676,0.07732 0.82677,0.23197c0.23001,0.15465 0.40446,0.38067 0.52342,0.67807c0.10308,0.2538 0.17648,0.53728 0.22007,0.85056c0.0436,0.31328 0.06543,0.64833 0.06543,1.00521c0,0.26962 -0.01386,0.4778 -0.04164,0.62454c-0.02778,0.14674 -0.07138,0.24981 -0.13086,0.30929c-0.05549,0.05549 -0.13086,0.08327 -0.22602,0.08327zM228.42615,181.77249c0.13086,0 0.26367,-0.01784 0.39851,-0.05353c0.13484,-0.03967 0.24785,-0.09713 0.33903,-0.17249c0.09118,-0.07536 0.1368,-0.16851 0.1368,-0.27955c0,-0.09517 -0.03967,-0.17249 -0.11896,-0.23197c-0.07536,-0.06346 -0.17648,-0.11105 -0.30335,-0.14275c-0.12294,-0.0317 -0.25576,-0.04758 -0.39851,-0.04758c-0.2419,0 -0.42629,0.04164 -0.55316,0.12491c-0.12294,0.08327 -0.18439,0.19432 -0.18439,0.33309c0,0.15066 0.05752,0.26766 0.17249,0.35093c0.11896,0.07929 0.28949,0.11896 0.51153,0.11896zM231.38812,177.8171c0.15857,0 0.27158,0.0436 0.33903,0.13086c0.07138,0.08726 0.10706,0.18837 0.10706,0.30335c0,0.14275 -0.04366,0.2538 -0.13086,0.33309c-0.08327,0.07536 -0.20223,0.11301 -0.35688,0.11301c-0.15072,0 -0.26373,-0.04164 -0.33903,-0.12491c-0.07536,-0.08726 -0.11307,-0.18837 -0.11307,-0.30335c0,-0.15066 0.04562,-0.26367 0.13686,-0.33903c0.09118,-0.07536 0.21014,-0.11301 0.35688,-0.11301zM231.4238,179.14349c0.12687,0 0.22602,0.11896 0.2974,0.35688c0.0753,0.23792 0.11301,0.61663 0.11301,1.13606c0,0.6384 -0.04562,1.09841 -0.1368,1.37993c-0.09124,0.28152 -0.23001,0.42231 -0.41636,0.42231c-0.14275,0 -0.24785,-0.10308 -0.31524,-0.30929c-0.06745,-0.21014 -0.10112,-0.57499 -0.10112,-1.09443c0,-0.6384 0.05151,-1.11227 0.15465,-1.42156c0.10706,-0.31328 0.24184,-0.46989 0.40446,-0.46989zM232.96522,182.43867c-0.07536,0 -0.1368,-0.02183 -0.18439,-0.06543c-0.04758,-0.04758 -0.08131,-0.11497 -0.10112,-0.20223c-0.0317,-0.14674 -0.05948,-0.35884 -0.08327,-0.63643c-0.02379,-0.27759 -0.03569,-0.58486 -0.03569,-0.92193c0,-0.41636 0.01386,-0.81683 0.04164,-1.20149c0.0317,-0.38466 0.07138,-0.6999 0.11896,-0.94573c0.05157,-0.2657 0.11497,-0.45996 0.19033,-0.5829c0.07536,-0.12687 0.17445,-0.19033 0.2974,-0.19033c0.11105,0 0.19628,0.05157 0.25576,0.15465c0.05948,0.09915 0.08922,0.27164 0.08922,0.51747c0,0.24583 -0.00993,0.50956 -0.02974,0.79108c-0.01588,0.28152 -0.0436,0.5829 -0.08327,0.90409h0.02379c0.25773,-0.34897 0.49767,-0.62852 0.7197,-0.83866c0.22602,-0.21014 0.43224,-0.36283 0.61859,-0.45799c0.19033,-0.09517 0.35884,-0.14275 0.50558,-0.14275c0.11497,0 0.20027,0.03569 0.25576,0.10706c0.05549,0.07138 0.08327,0.15863 0.08327,0.26171c0,0.20223 -0.16256,0.42825 -0.48773,0.67807c-0.32119,0.24981 -0.78513,0.50558 -1.39182,0.76729l0.00595,-0.09517c0.37668,0.19432 0.6999,0.39851 0.96952,0.61264c0.27361,0.21014 0.48179,0.41041 0.62454,0.60074c0.14674,0.18635 0.22007,0.34302 0.22007,0.46989c0,0.10308 -0.03372,0.18837 -0.10112,0.25576c-0.06346,0.06346 -0.15661,0.09517 -0.27955,0.09517c-0.15465,0 -0.32714,-0.05752 -0.51747,-0.17249c-0.18635,-0.11896 -0.38067,-0.29544 -0.5829,-0.52937c-0.20223,-0.23393 -0.40446,-0.52741 -0.60669,-0.8803h-0.02379c-0.00399,0.24981 -0.01981,0.49368 -0.04758,0.7316c-0.02379,0.23393 -0.05549,0.42629 -0.09517,0.57695c-0.02778,0.10308 -0.07138,0.18635 -0.13086,0.24981c-0.05549,0.05948 -0.13484,0.08922 -0.23792,0.08922zM236.65064,177.8171c0.15863,0 0.27164,0.0436 0.33903,0.13086c0.07138,0.08726 0.10706,0.18837 0.10706,0.30335c0,0.14275 -0.0436,0.2538 -0.13086,0.33309c-0.08327,0.07536 -0.20223,0.11301 -0.35688,0.11301c-0.15066,0 -0.26367,-0.04164 -0.33903,-0.12491c-0.07536,-0.08726 -0.11301,-0.18837 -0.11301,-0.30335c0,-0.15066 0.04562,-0.26367 0.1368,-0.33903c0.09118,-0.07536 0.21014,-0.11301 0.35688,-0.11301zM236.68633,179.14349c0.12687,0 0.22602,0.11896 0.2974,0.35688c0.07536,0.23792 0.11301,0.61663 0.11301,1.13606c0,0.6384 -0.04562,1.09841 -0.1368,1.37993c-0.09118,0.28152 -0.23001,0.42231 -0.41636,0.42231c-0.14275,0 -0.24785,-0.10308 -0.31524,-0.30929c-0.06739,-0.21014 -0.10112,-0.57499 -0.10112,-1.09443c0,-0.6384 0.05157,-1.11227 0.15465,-1.42156c0.10706,-0.31328 0.2419,-0.46989 0.40446,-0.46989zM240.70924,178.84609c-0.18635,0.05549 -0.35884,0.09915 -0.51747,0.13086c-0.15857,0.02778 -0.30727,0.04164 -0.4461,0.04164c-0.12687,0 -0.22602,-0.02575 -0.2974,-0.07732c-0.07138,-0.05157 -0.10706,-0.12889 -0.10706,-0.23197c0,-0.08726 0.02974,-0.17053 0.08922,-0.24981c0.05948,-0.07929 0.15072,-0.15066 0.27361,-0.21413c0.14674,-0.07138 0.33309,-0.13086 0.55911,-0.17844c0.22602,-0.04758 0.48976,-0.07138 0.79108,-0.07138c0.20223,0 0.37871,0.01386 0.52937,0.04164c0.15072,0.02379 0.26968,0.05353 0.35688,0.08922c0.11503,0.04758 0.19432,0.10308 0.23792,0.16654c0.04758,0.05948 0.07138,0.12889 0.07138,0.20818c0,0.09915 -0.03569,0.1804 -0.10706,0.24387c-0.07138,0.06346 -0.18635,0.09517 -0.34498,0.09517c-0.09517,0 -0.19426,-0.00595 -0.2974,-0.01784c-0.09909,-0.0119 -0.20419,-0.02778 -0.31524,-0.04758zM241.11965,178.5249c0.20223,0.2538 0.3589,0.54918 0.46989,0.88625c0.11503,0.33309 0.17249,0.68205 0.17249,1.04684c0,0.38067 -0.05353,0.72167 -0.1606,1.02305c-0.10308,0.2974 -0.26962,0.53335 -0.49963,0.70781c-0.22995,0.17053 -0.53532,0.25576 -0.91599,0.25576c-0.46787,0 -0.8188,-0.13086 -1.05279,-0.39257c-0.23393,-0.26171 -0.35093,-0.62055 -0.35093,-1.07658c0,-0.22204 0.02778,-0.41041 0.08327,-0.56506c0.05948,-0.15465 0.1368,-0.27164 0.23197,-0.35093c0.09517,-0.08327 0.19831,-0.12491 0.30929,-0.12491c0.10314,0 0.18046,0.0317 0.23197,0.09517c0.05555,0.05948 0.08327,0.14471 0.08327,0.25576c0,0.09118 -0.01582,0.1923 -0.04758,0.30335c-0.02772,0.10706 -0.04164,0.21216 -0.04164,0.31524c0,0.2657 0.04562,0.45996 0.1368,0.5829c0.09517,0.11896 0.24589,0.17844 0.45205,0.17844c0.27361,0 0.46596,-0.11105 0.57695,-0.33309c0.11503,-0.22602 0.17249,-0.53335 0.17249,-0.92193c0,-0.28152 -0.02974,-0.55715 -0.08922,-0.82677c-0.05948,-0.26962 -0.15465,-0.54525 -0.2855,-0.82677zM245.34246,182.43867c-0.13484,0 -0.22805,-0.05157 -0.27955,-0.15465c-0.04758,-0.10706 -0.07536,-0.27557 -0.08327,-0.50558l0.05948,0.02974c-0.2221,0.43224 -0.64238,0.64833 -1.26097,0.64833c-0.28158,0 -0.51551,-0.04955 -0.70186,-0.1487c-0.18641,-0.10308 -0.32518,-0.23792 -0.41636,-0.40446c-0.08726,-0.17053 -0.13086,-0.35492 -0.13086,-0.55316c0,-0.341 0.11896,-0.61068 0.35688,-0.80892c0.23792,-0.20223 0.55316,-0.30335 0.94573,-0.30335c0.25773,0 0.48179,0.03765 0.67212,0.11301c0.19033,0.07536 0.35289,0.1804 0.48773,0.31524l-0.10112,-0.0119c-0.02778,-0.40048 -0.11503,-0.68598 -0.26171,-0.85651c-0.14275,-0.17445 -0.347,-0.26171 -0.61264,-0.26171c-0.15465,0 -0.2974,0.02379 -0.42825,0.07138c-0.13086,0.04758 -0.25184,0.09713 -0.36283,0.1487c-0.10706,0.04758 -0.20818,0.07138 -0.30335,0.07138c-0.09517,0 -0.17053,-0.0317 -0.22602,-0.09517c-0.05157,-0.06346 -0.07732,-0.14471 -0.07732,-0.24387c0,-0.14275 0.06739,-0.27759 0.20223,-0.40446c0.13877,-0.12687 0.32119,-0.23001 0.54721,-0.30929c0.22602,-0.07929 0.47185,-0.11896 0.73755,-0.11896c0.32119,0 0.59676,0.07732 0.82677,0.23197c0.22995,0.15465 0.40446,0.38067 0.52342,0.67807c0.10308,0.2538 0.17642,0.53728 0.22007,0.85056c0.0436,0.31328 0.06543,0.64833 0.06543,1.00521c0,0.26962 -0.01392,0.4778 -0.04164,0.62454c-0.02778,0.14674 -0.07138,0.24981 -0.13086,0.30929c-0.05555,0.05549 -0.13086,0.08327 -0.22602,0.08327zM244.02796,181.77249c0.13086,0 0.26367,-0.01784 0.39851,-0.05353c0.13478,-0.03967 0.24779,-0.09713 0.33903,-0.17249c0.09118,-0.07536 0.1368,-0.16851 0.1368,-0.27955c0,-0.09517 -0.03967,-0.17249 -0.11896,-0.23197c-0.07536,-0.06346 -0.17648,-0.11105 -0.30335,-0.14275c-0.12294,-0.0317 -0.25576,-0.04758 -0.39851,-0.04758c-0.2419,0 -0.42629,0.04164 -0.55316,0.12491c-0.12294,0.08327 -0.18439,0.19432 -0.18439,0.33309c0,0.15066 0.05746,0.26766 0.17249,0.35093c0.11896,0.07929 0.28943,0.11896 0.51153,0.11896zM246.25232,179.96431c0,-0.41237 0.04758,-0.70977 0.14275,-0.8922c0.09915,-0.18242 0.22805,-0.27361 0.38662,-0.27361c0.09124,0 0.1606,0.03372 0.20818,0.10112c0.05157,0.06346 0.08726,0.15066 0.10706,0.26171c0.01987,0.10706 0.02974,0.22799 0.02974,0.36283c0,0.17053 0,0.37074 0,0.60074c0.00399,0.22602 0.00797,0.45996 0.0119,0.70186c0.00797,0.23792 0.01588,0.45996 0.02379,0.66617h0.02379c0.12294,-0.51944 0.24589,-0.94573 0.36877,-1.27881c0.12693,-0.33309 0.25576,-0.57892 0.38662,-0.73755c0.13484,-0.16256 0.26968,-0.24387 0.40446,-0.24387c0.14674,0 0.2855,0.08131 0.41636,0.24387c0.13484,0.15863 0.2657,0.40048 0.39257,0.72565c0.13086,0.32518 0.26373,0.73559 0.39851,1.23123h0.02379c0.0119,-0.341 0.01987,-0.6999 0.02379,-1.07658c0.00399,-0.37668 0.00595,-0.72167 0.00595,-1.03495c0,-0.22602 0.03771,-0.39257 0.11301,-0.49963c0.07536,-0.10706 0.18046,-0.1606 0.31524,-0.1606c0.17053,0 0.29347,0.08922 0.36877,0.26766c0.07935,0.17445 0.11896,0.41041 0.11896,0.70781c0,0.21811 -0.0119,0.45205 -0.03569,0.70186c-0.01981,0.24583 -0.04955,0.48375 -0.08922,0.71376c-0.03961,0.23001 -0.0872,0.43022 -0.14275,0.60074c-0.08327,0.2538 -0.17642,0.4461 -0.27955,0.57695c-0.09909,0.13086 -0.22995,0.19628 -0.39257,0.19628c-0.14668,0 -0.29341,-0.08523 -0.44015,-0.25576c-0.14275,-0.17445 -0.27753,-0.4342 -0.40446,-0.77918c-0.12687,-0.34498 -0.24387,-0.7752 -0.35093,-1.29071h-0.02379c-0.10308,0.49172 -0.22602,0.90409 -0.36877,1.23718c-0.13877,0.3291 -0.28747,0.57695 -0.4461,0.7435c-0.15465,0.16654 -0.30929,0.24981 -0.46394,0.24981c-0.16256,0 -0.29936,-0.07334 -0.41041,-0.22007c-0.10706,-0.14674 -0.19628,-0.37276 -0.26766,-0.67807c-0.0317,-0.15465 -0.05948,-0.31923 -0.08327,-0.49368c-0.02379,-0.17844 -0.04164,-0.35289 -0.05353,-0.52342c-0.0119,-0.17053 -0.01784,-0.32119 -0.01784,-0.45205zM253.63125,182.43867c-0.13484,0 -0.22799,-0.05157 -0.27955,-0.15465c-0.04758,-0.10706 -0.07536,-0.27557 -0.08327,-0.50558l0.05948,0.02974c-0.22204,0.43224 -0.64238,0.64833 -1.26097,0.64833c-0.28152,0 -0.51551,-0.04955 -0.70186,-0.1487c-0.18635,-0.10308 -0.32518,-0.23792 -0.41636,-0.40446c-0.08726,-0.17053 -0.13086,-0.35492 -0.13086,-0.55316c0,-0.341 0.11896,-0.61068 0.35688,-0.80892c0.23792,-0.20223 0.55316,-0.30335 0.94573,-0.30335c0.25773,0 0.48179,0.03765 0.67212,0.11301c0.19033,0.07536 0.35289,0.1804 0.48773,0.31524l-0.10112,-0.0119c-0.02778,-0.40048 -0.11497,-0.68598 -0.26171,-0.85651c-0.14275,-0.17445 -0.34694,-0.26171 -0.61264,-0.26171c-0.15465,0 -0.2974,0.02379 -0.42825,0.07138c-0.13086,0.04758 -0.25178,0.09713 -0.36283,0.1487c-0.10706,0.04758 -0.20818,0.07138 -0.30335,0.07138c-0.09517,0 -0.17053,-0.0317 -0.22602,-0.09517c-0.05157,-0.06346 -0.07732,-0.14471 -0.07732,-0.24387c0,-0.14275 0.06739,-0.27759 0.20223,-0.40446c0.13877,-0.12687 0.32119,-0.23001 0.54721,-0.30929c0.22602,-0.07929 0.47185,-0.11896 0.73755,-0.11896c0.32119,0 0.59676,0.07732 0.82677,0.23197c0.23001,0.15465 0.40446,0.38067 0.52342,0.67807c0.10308,0.2538 0.17648,0.53728 0.22007,0.85056c0.0436,0.31328 0.06543,0.64833 0.06543,1.00521c0,0.26962 -0.01386,0.4778 -0.04164,0.62454c-0.02778,0.14674 -0.07138,0.24981 -0.13086,0.30929c-0.05549,0.05549 -0.13086,0.08327 -0.22602,0.08327zM252.31675,181.77249c0.13086,0 0.26367,-0.01784 0.39851,-0.05353c0.13484,-0.03967 0.24785,-0.09713 0.33903,-0.17249c0.09118,-0.07536 0.1368,-0.16851 0.1368,-0.27955c0,-0.09517 -0.03967,-0.17249 -0.11896,-0.23197c-0.07536,-0.06346 -0.17648,-0.11105 -0.30335,-0.14275c-0.12294,-0.0317 -0.25576,-0.04758 -0.39851,-0.04758c-0.2419,0 -0.42629,0.04164 -0.55316,0.12491c-0.12294,0.08327 -0.18439,0.19432 -0.18439,0.33309c0,0.15066 0.05752,0.26766 0.17249,0.35093c0.11896,0.07929 0.28949,0.11896 0.51153,0.11896zM255.20735,182.43867c-0.08726,0 -0.15863,-0.02974 -0.21413,-0.08922c-0.05157,-0.05948 -0.0932,-0.14471 -0.12491,-0.25576c-0.03176,-0.16256 -0.05948,-0.37472 -0.08327,-0.63643c-0.01987,-0.2657 -0.02974,-0.54918 -0.02974,-0.85056c0,-0.17053 0.00393,-0.36283 0.0119,-0.57695c0.00791,-0.21413 0.01784,-0.43022 0.02974,-0.64833c0.01582,-0.22204 0.0317,-0.42825 0.04758,-0.61859c0.01981,-0.19033 0.03961,-0.34498 0.05948,-0.46394c0.0317,-0.17445 0.07732,-0.31126 0.1368,-0.41041c0.06341,-0.10308 0.16256,-0.15465 0.2974,-0.15465c0.13877,0 0.23988,0.05353 0.30335,0.1606c0.06341,0.10308 0.09517,0.23197 0.09517,0.38662c0,0.17445 -0.01392,0.38067 -0.04164,0.61859c-0.02379,0.23792 -0.0615,0.47982 -0.11301,0.72565l-0.11896,0.14275c0.0436,-0.16654 0.11497,-0.31923 0.21413,-0.45799c0.09909,-0.13877 0.224,-0.24785 0.37472,-0.32714c0.15066,-0.08327 0.32512,-0.12491 0.52342,-0.12491c0.38858,0 0.69787,0.13877 0.92788,0.41636c0.23393,0.27361 0.35093,0.70186 0.35093,1.28476c0,0.40845 -0.0615,0.74944 -0.18439,1.02305c-0.11896,0.27361 -0.28354,0.47982 -0.49368,0.61859c-0.20622,0.13484 -0.44217,0.20223 -0.70781,0.20223c-0.24981,0 -0.46596,-0.07334 -0.64833,-0.22007c-0.17844,-0.14674 -0.29347,-0.35884 -0.34498,-0.63643l0.08327,0.06543c-0.01588,0.2855 -0.05555,0.49564 -0.11896,0.63048c-0.05948,0.13086 -0.1368,0.19628 -0.23197,0.19628zM256.29582,181.71301c0.19825,0 0.3727,-0.08922 0.52342,-0.26766c0.15066,-0.17844 0.22602,-0.45799 0.22602,-0.83866c0,-0.31721 -0.05948,-0.57499 -0.17844,-0.77324c-0.11503,-0.19825 -0.30929,-0.2974 -0.5829,-0.2974c-0.2221,0 -0.40054,0.08922 -0.53532,0.26766c-0.13484,0.17445 -0.20223,0.44015 -0.20223,0.79703c0,0.32518 0.06739,0.59283 0.20223,0.80298c0.13478,0.20622 0.31721,0.30929 0.54721,0.30929zM261.05461,182.43867c-0.13484,0 -0.22805,-0.05157 -0.27955,-0.15465c-0.04758,-0.10706 -0.07536,-0.27557 -0.08327,-0.50558l0.05948,0.02974c-0.2221,0.43224 -0.64238,0.64833 -1.26097,0.64833c-0.28158,0 -0.51551,-0.04955 -0.70186,-0.1487c-0.18641,-0.10308 -0.32518,-0.23792 -0.41636,-0.40446c-0.08726,-0.17053 -0.13086,-0.35492 -0.13086,-0.55316c0,-0.341 0.11896,-0.61068 0.35688,-0.80892c0.23792,-0.20223 0.55316,-0.30335 0.94573,-0.30335c0.25773,0 0.48179,0.03765 0.67212,0.11301c0.19033,0.07536 0.35289,0.1804 0.48773,0.31524l-0.10112,-0.0119c-0.02778,-0.40048 -0.11503,-0.68598 -0.26171,-0.85651c-0.14275,-0.17445 -0.347,-0.26171 -0.61264,-0.26171c-0.15465,0 -0.2974,0.02379 -0.42825,0.07138c-0.13086,0.04758 -0.25184,0.09713 -0.36283,0.1487c-0.10706,0.04758 -0.20818,0.07138 -0.30335,0.07138c-0.09517,0 -0.17053,-0.0317 -0.22602,-0.09517c-0.05157,-0.06346 -0.07732,-0.14471 -0.07732,-0.24387c0,-0.14275 0.06739,-0.27759 0.20223,-0.40446c0.13877,-0.12687 0.32119,-0.23001 0.54721,-0.30929c0.22602,-0.07929 0.47185,-0.11896 0.73755,-0.11896c0.32119,0 0.59676,0.07732 0.82677,0.23197c0.22995,0.15465 0.40446,0.38067 0.52342,0.67807c0.10308,0.2538 0.17642,0.53728 0.22007,0.85056c0.0436,0.31328 0.06543,0.64833 0.06543,1.00521c0,0.26962 -0.01392,0.4778 -0.04164,0.62454c-0.02778,0.14674 -0.07138,0.24981 -0.13086,0.30929c-0.05555,0.05549 -0.13086,0.08327 -0.22602,0.08327zM259.74011,181.77249c0.13086,0 0.26367,-0.01784 0.39851,-0.05353c0.13478,-0.03967 0.24779,-0.09713 0.33903,-0.17249c0.09118,-0.07536 0.1368,-0.16851 0.1368,-0.27955c0,-0.09517 -0.03967,-0.17249 -0.11896,-0.23197c-0.07536,-0.06346 -0.17648,-0.11105 -0.30335,-0.14275c-0.12294,-0.0317 -0.25576,-0.04758 -0.39851,-0.04758c-0.2419,0 -0.42629,0.04164 -0.55316,0.12491c-0.12294,0.08327 -0.18439,0.19432 -0.18439,0.33309c0,0.15066 0.05746,0.26766 0.17249,0.35093c0.11896,0.07929 0.28943,0.11896 0.51153,0.11896zM262.78547,178.67955c0.12669,0 0.21175,0.05157 0.25576,0.15465c0.04758,0.10308 0.07138,0.25576 0.07138,0.45799c0,0.04758 -0.00416,0.09915 -0.0119,0.15465c-0.00416,0.05157 -0.0119,0.09915 -0.02379,0.14275l-0.0119,-0.11896c0.09517,-0.25773 0.24149,-0.45799 0.44015,-0.60074c0.19807,-0.14674 0.40803,-0.22007 0.63048,-0.22007c0.24565,0 0.44967,0.06941 0.61264,0.20818c0.16654,0.13877 0.28907,0.33309 0.36877,0.5829c0.08327,0.24981 0.12491,0.54525 0.12491,0.88625c0,0.21014 -0.01011,0.41832 -0.02974,0.62454c-0.01606,0.20223 -0.03985,0.38858 -0.07138,0.55911c-0.02796,0.16654 -0.05948,0.30335 -0.09517,0.41041c-0.04758,0.13484 -0.10944,0.23596 -0.18439,0.30335c-0.07554,0.06346 -0.16476,0.09517 -0.26766,0.09517c-0.10349,0 -0.1826,-0.03765 -0.23792,-0.11301c-0.05591,-0.07536 -0.08327,-0.17648 -0.08327,-0.30335c0,-0.13484 0.00952,-0.2974 0.02974,-0.48773c0.01963,-0.19432 0.03747,-0.3906 0.05353,-0.58885c0.01963,-0.20223 0.02974,-0.38466 0.02974,-0.54721c0,-0.55512 -0.1826,-0.83272 -0.54721,-0.83272c-0.1945,0 -0.35688,0.08726 -0.48773,0.26171c-0.13086,0.17053 -0.21829,0.41439 -0.26171,0.7316c-0.0119,0.10706 -0.01784,0.23988 -0.01784,0.39851c0,0.15863 0,0.31721 0,0.47584c0.00357,0.15465 0,0.2855 -0.0119,0.39257c-0.01606,0.23792 -0.06186,0.40845 -0.1368,0.51153c-0.07138,0.10308 -0.17071,0.15465 -0.2974,0.15465c-0.14691,0 -0.25814,-0.06739 -0.33326,-0.20223c-0.0753,-0.13877 -0.11301,-0.37074 -0.11301,-0.69591c0,-0.16654 0.00399,-0.35289 0.0119,-0.55911c0.00797,-0.20622 0.01784,-0.41237 0.02974,-0.61859c0.01588,-0.21014 0.03372,-0.40048 0.05353,-0.571c0.03944,-0.32119 0.09713,-0.57499 0.17267,-0.76134c0.07494,-0.19033 0.18796,-0.2855 0.33903,-0.2855z" fill="#000000" stroke="none"/></g></g></svg>