<svg width="169" height="17" viewBox="0 0 169 17" fill="none" xmlns="http://www.w3.org/2000/svg">
<path d="M2.84 13.096C2.18933 13.096 1.704 13.0107 1.384 12.84C1.064 12.6693 0.797333 12.36 0.584 11.912C0.434667 11.5707 0.306667 11.016 0.2 10.248C0.104 9.46933 0.056 8.46133 0.056 7.224C0.056 6.36 0.072 5.53333 0.104 4.744C0.146667 3.95467 0.205333 3.34667 0.28 2.92C0.365333 2.376 0.504 1.98667 0.696 1.752C0.898667 1.51733 1.14933 1.4 1.448 1.4C1.71467 1.4 1.92267 1.51733 2.072 1.752C2.232 1.98667 2.344 2.30667 2.408 2.712C2.472 3.10667 2.504 3.544 2.504 4.024C2.504 5.32533 2.456 6.64267 2.36 7.976C2.27467 9.30933 2.152 10.536 1.992 11.656L1.784 11.368C2.264 11.0373 2.776 10.7547 3.32 10.52C3.87467 10.2853 4.41333 10.104 4.936 9.976C5.46933 9.848 5.93333 9.784 6.328 9.784C6.72267 9.784 7.01067 9.864 7.192 10.024C7.384 10.184 7.48 10.4133 7.48 10.712C7.48 11.0107 7.34667 11.3147 7.08 11.624C6.824 11.9227 6.456 12.184 5.976 12.408C5.70933 12.536 5.39467 12.6533 5.032 12.76C4.66933 12.856 4.296 12.936 3.912 13C3.53867 13.064 3.18133 13.096 2.84 13.096ZM15.7961 13.16C15.4335 13.16 15.1828 13.0213 15.0441 12.744C14.9161 12.456 14.8415 12.0027 14.8201 11.384L14.9801 11.464C14.3828 12.6267 13.2521 13.208 11.5881 13.208C10.8308 13.208 10.2015 13.0747 9.70013 12.808C9.19879 12.5307 8.82546 12.168 8.58013 11.72C8.34546 11.2613 8.22813 10.7653 8.22813 10.232C8.22813 9.31467 8.54813 8.58933 9.18813 8.056C9.82813 7.512 10.6761 7.24 11.7321 7.24C12.4255 7.24 13.0281 7.34133 13.5401 7.544C14.0521 7.74667 14.4895 8.02933 14.8521 8.392L14.5801 8.36C14.5055 7.28267 14.2708 6.51467 13.8761 6.056C13.4921 5.58667 12.9428 5.352 12.2281 5.352C11.8121 5.352 11.4281 5.416 11.0761 5.544C10.7241 5.672 10.3988 5.80533 10.1001 5.944C9.81213 6.072 9.54013 6.136 9.28413 6.136C9.02813 6.136 8.82546 6.05067 8.67613 5.88C8.53746 5.70933 8.46813 5.49067 8.46813 5.224C8.46813 4.84 8.64946 4.47733 9.01213 4.136C9.38546 3.79467 9.87613 3.51733 10.4841 3.304C11.0921 3.09067 11.7535 2.984 12.4681 2.984C13.3321 2.984 14.0735 3.192 14.6921 3.608C15.3108 4.024 15.7801 4.632 16.1001 5.432C16.3775 6.11467 16.5748 6.87733 16.6921 7.72C16.8095 8.56267 16.8681 9.464 16.8681 10.424C16.8681 11.1493 16.8308 11.7093 16.7561 12.104C16.6815 12.4987 16.5641 12.776 16.4041 12.936C16.2548 13.0853 16.0521 13.16 15.7961 13.16ZM12.2601 11.368C12.6121 11.368 12.9695 11.32 13.3321 11.224C13.6948 11.1173 13.9988 10.9627 14.2441 10.76C14.4895 10.5573 14.6121 10.3067 14.6121 10.008C14.6121 9.752 14.5055 9.544 14.2921 9.384C14.0895 9.21333 13.8175 9.08533 13.4761 9C13.1455 8.91467 12.7881 8.872 12.4041 8.872C11.7535 8.872 11.2575 8.984 10.9161 9.208C10.5855 9.432 10.4201 9.73067 10.4201 10.104C10.4201 10.5093 10.5748 10.824 10.8841 11.048C11.2041 11.2613 11.6628 11.368 12.2601 11.368ZM21.0394 3.368H20.7194C20.6874 2.89867 20.698 2.456 20.7514 2.04C20.8047 1.61333 20.9167 1.272 21.0874 1.016C21.2687 0.749333 21.5247 0.615999 21.8554 0.615999C22.154 0.615999 22.3727 0.711999 22.5114 0.903999C22.65 1.096 22.7194 1.36267 22.7194 1.704C22.7194 2.376 22.5914 2.952 22.3354 3.432L22.0474 3.4C22.6234 3.19733 23.274 3.096 23.9994 3.096C24.458 3.096 24.8207 3.18667 25.0874 3.368C25.3647 3.53867 25.5034 3.832 25.5034 4.248C25.5034 4.64267 25.3434 4.94133 25.0234 5.144C24.7034 5.34667 24.3034 5.448 23.8234 5.448C23.5354 5.448 23.226 5.43733 22.8954 5.416C22.5754 5.384 22.2607 5.336 21.9514 5.272L22.2234 4.936C22.3194 5.34133 22.41 5.80533 22.4954 6.328C22.5914 6.84 22.6767 7.37333 22.7514 7.928C22.826 8.48267 22.8847 9.02133 22.9274 9.544C22.97 10.0667 22.9914 10.536 22.9914 10.952C22.9914 11.6347 22.8847 12.1733 22.6714 12.568C22.458 12.9627 22.1434 13.16 21.7274 13.16C21.3967 13.16 21.1354 13.0587 20.9434 12.856C20.762 12.6533 20.6287 12.3973 20.5434 12.088C20.4687 11.768 20.4207 11.4373 20.3994 11.096C20.3887 10.7547 20.3834 10.4453 20.3834 10.168C20.3834 9.69867 20.4047 9.17067 20.4474 8.584C20.49 7.98667 20.5487 7.37333 20.6234 6.744C20.7087 6.11467 20.8047 5.50667 20.9114 4.92L21.2314 5.192C20.6874 5.46933 20.0154 5.608 19.2154 5.608C18.7247 5.608 18.346 5.51733 18.0794 5.336C17.8127 5.15467 17.6794 4.872 17.6794 4.488C17.6794 4.072 17.8287 3.752 18.1274 3.528C18.426 3.29333 18.826 3.176 19.3274 3.176C19.658 3.176 19.9674 3.19733 20.2554 3.24C20.554 3.272 20.8154 3.31467 21.0394 3.368ZM28.2121 0.728C28.6388 0.728 28.9428 0.845333 29.1241 1.08C29.3161 1.31467 29.4121 1.58667 29.4121 1.896C29.4121 2.28 29.2948 2.57867 29.0601 2.792C28.8361 2.99467 28.5161 3.096 28.1001 3.096C27.6948 3.096 27.3908 2.984 27.1881 2.76C26.9855 2.52533 26.8841 2.25333 26.8841 1.944C26.8841 1.53867 27.0068 1.23467 27.2521 1.032C27.4975 0.829333 27.8175 0.728 28.2121 0.728ZM28.3081 4.296C28.6495 4.296 28.9161 4.616 29.1081 5.256C29.3108 5.896 29.4121 6.91467 29.4121 8.312C29.4121 10.0293 29.2895 11.2667 29.0441 12.024C28.7988 12.7813 28.4255 13.16 27.9241 13.16C27.5401 13.16 27.2575 12.8827 27.0761 12.328C26.8948 11.7627 26.8041 10.7813 26.8041 9.384C26.8041 7.66667 26.9428 6.392 27.2201 5.56C27.5081 4.71733 27.8708 4.296 28.3081 4.296ZM33.0146 0.327999C33.356 0.327999 33.5906 0.461333 33.7186 0.728C33.8573 0.994666 33.9266 1.39467 33.9266 1.928C33.9266 2.38667 33.9 2.96267 33.8466 3.656C33.7933 4.34933 33.724 5.016 33.6386 5.656H33.5426C33.8946 4.99467 34.348 4.46133 34.9026 4.056C35.4573 3.65067 36.044 3.448 36.6626 3.448C37.2066 3.448 37.692 3.58133 38.1186 3.848C38.5453 4.104 38.892 4.50933 39.1586 5.064C39.404 5.56533 39.5853 6.16267 39.7026 6.856C39.82 7.53867 39.8786 8.18933 39.8786 8.808C39.8786 9.8 39.8093 10.5893 39.6706 11.176C39.5426 11.7627 39.3613 12.1893 39.1266 12.456C38.892 12.712 38.6146 12.84 38.2946 12.84C37.6226 12.84 37.2866 12.2907 37.2866 11.192C37.2866 10.6587 37.3133 10.1093 37.3666 9.544C37.4306 8.97867 37.4626 8.46133 37.4626 7.992C37.4626 7.192 37.3346 6.59467 37.0786 6.2C36.8333 5.79467 36.476 5.592 36.0066 5.592C35.42 5.592 34.9453 5.85333 34.5826 6.376C34.22 6.89867 34.0386 7.61867 34.0386 8.536C34.0386 9.016 34.0813 9.544 34.1666 10.12C34.252 10.6853 34.2946 11.2027 34.2946 11.672C34.2946 12.1947 34.1933 12.5733 33.9906 12.808C33.7986 13.032 33.548 13.144 33.2386 13.144C33.004 13.144 32.796 13.096 32.6146 13C32.444 12.9147 32.2946 12.7387 32.1666 12.472C32.0493 12.1947 31.948 11.784 31.8626 11.24C31.7986 10.824 31.7346 10.3387 31.6706 9.784C31.6066 9.22933 31.5533 8.648 31.5106 8.04C31.468 7.432 31.4306 6.84 31.3986 6.264C31.3773 5.67733 31.3666 5.144 31.3666 4.664C31.3666 3.14933 31.5106 2.05067 31.7986 1.368C32.0866 0.674666 32.492 0.327999 33.0146 0.327999ZM48.8274 13.16C48.4647 13.16 48.214 13.0213 48.0754 12.744C47.9474 12.456 47.8727 12.0027 47.8514 11.384L48.0114 11.464C47.414 12.6267 46.2834 13.208 44.6194 13.208C43.862 13.208 43.2327 13.0747 42.7314 12.808C42.23 12.5307 41.8567 12.168 41.6114 11.72C41.3767 11.2613 41.2594 10.7653 41.2594 10.232C41.2594 9.31467 41.5794 8.58933 42.2194 8.056C42.8594 7.512 43.7074 7.24 44.7634 7.24C45.4567 7.24 46.0594 7.34133 46.5714 7.544C47.0834 7.74667 47.5207 8.02933 47.8834 8.392L47.6114 8.36C47.5367 7.28267 47.302 6.51467 46.9074 6.056C46.5234 5.58667 45.974 5.352 45.2594 5.352C44.8434 5.352 44.4594 5.416 44.1074 5.544C43.7554 5.672 43.43 5.80533 43.1314 5.944C42.8434 6.072 42.5714 6.136 42.3154 6.136C42.0594 6.136 41.8567 6.05067 41.7074 5.88C41.5687 5.70933 41.4994 5.49067 41.4994 5.224C41.4994 4.84 41.6807 4.47733 42.0434 4.136C42.4167 3.79467 42.9074 3.51733 43.5154 3.304C44.1234 3.09067 44.7847 2.984 45.4994 2.984C46.3634 2.984 47.1047 3.192 47.7234 3.608C48.342 4.024 48.8114 4.632 49.1314 5.432C49.4087 6.11467 49.606 6.87733 49.7234 7.72C49.8407 8.56267 49.8994 9.464 49.8994 10.424C49.8994 11.1493 49.862 11.7093 49.7874 12.104C49.7127 12.4987 49.5954 12.776 49.4354 12.936C49.286 13.0853 49.0834 13.16 48.8274 13.16ZM45.2914 11.368C45.6434 11.368 46.0007 11.32 46.3634 11.224C46.726 11.1173 47.03 10.9627 47.2754 10.76C47.5207 10.5573 47.6434 10.3067 47.6434 10.008C47.6434 9.752 47.5367 9.544 47.3234 9.384C47.1207 9.21333 46.8487 9.08533 46.5074 9C46.1767 8.91467 45.8194 8.872 45.4354 8.872C44.7847 8.872 44.2887 8.984 43.9474 9.208C43.6167 9.432 43.4514 9.73067 43.4514 10.104C43.4514 10.5093 43.606 10.824 43.9154 11.048C44.2354 11.2613 44.694 11.368 45.2914 11.368ZM53.483 3.048C53.8243 3.048 54.0537 3.18667 54.171 3.464C54.299 3.74133 54.363 4.152 54.363 4.696C54.363 4.824 54.3523 4.96267 54.331 5.112C54.3203 5.25067 54.299 5.37867 54.267 5.496L54.235 5.176C54.491 4.48267 54.8857 3.944 55.419 3.56C55.9523 3.16533 56.5177 2.968 57.115 2.968C57.7763 2.968 58.3257 3.15467 58.763 3.528C59.211 3.90133 59.5417 4.424 59.755 5.096C59.979 5.768 60.091 6.56267 60.091 7.48C60.091 8.04533 60.0643 8.60533 60.011 9.16C59.9683 9.704 59.9043 10.2053 59.819 10.664C59.7443 11.112 59.659 11.48 59.563 11.768C59.435 12.1307 59.2697 12.4027 59.067 12.584C58.8643 12.7547 58.6243 12.84 58.347 12.84C58.0697 12.84 57.8563 12.7387 57.707 12.536C57.5577 12.3333 57.483 12.0613 57.483 11.72C57.483 11.3573 57.5097 10.92 57.563 10.408C57.6163 9.88533 57.6643 9.35733 57.707 8.824C57.7603 8.28 57.787 7.78933 57.787 7.352C57.787 5.85867 57.2963 5.112 56.315 5.112C55.7923 5.112 55.355 5.34667 55.003 5.816C54.651 6.27467 54.4163 6.93067 54.299 7.784C54.267 8.072 54.251 8.42933 54.251 8.856C54.251 9.28267 54.251 9.70933 54.251 10.136C54.2617 10.552 54.251 10.904 54.219 11.192C54.1763 11.832 54.0537 12.2907 53.851 12.568C53.659 12.8453 53.3923 12.984 53.051 12.984C52.6563 12.984 52.3577 12.8027 52.155 12.44C51.9523 12.0667 51.851 11.4427 51.851 10.568C51.851 10.12 51.8617 9.61867 51.883 9.064C51.9043 8.50933 51.931 7.95467 51.963 7.4C52.0057 6.83467 52.0537 6.32267 52.107 5.864C52.2137 5 52.3683 4.31733 52.571 3.816C52.7737 3.304 53.0777 3.048 53.483 3.048ZM68.4736 13.048C68.1216 13.048 67.727 13.0267 67.2896 12.984C66.863 12.9413 66.447 12.8613 66.0416 12.744C65.647 12.616 65.3163 12.4453 65.0496 12.232C64.7936 12.008 64.6656 11.72 64.6656 11.368C64.6656 11.0053 64.7776 10.7333 65.0016 10.552C65.2363 10.3707 65.615 10.28 66.1376 10.28C66.5003 10.28 66.9056 10.328 67.3536 10.424C67.8123 10.52 68.2496 10.568 68.6656 10.568C69.2843 10.568 69.7376 10.472 70.0256 10.28C70.3243 10.088 70.4736 9.82667 70.4736 9.496C70.4736 9.29333 70.415 9.112 70.2976 8.952C70.191 8.792 69.9723 8.632 69.6416 8.472C69.311 8.312 68.815 8.136 68.1536 7.944C67.3963 7.74133 66.783 7.51733 66.3136 7.272C65.8443 7.016 65.503 6.712 65.2896 6.36C65.0763 6.008 64.9696 5.592 64.9696 5.112C64.9696 4.52533 65.071 4.01867 65.2736 3.592C65.487 3.15467 65.7696 2.78667 66.1216 2.488C66.4736 2.17867 66.8683 1.93333 67.3056 1.752C67.743 1.57067 68.1856 1.43733 68.6336 1.352C69.0923 1.26667 69.5296 1.224 69.9456 1.224C70.863 1.224 71.6096 1.368 72.1856 1.656C72.7723 1.944 73.0656 2.328 73.0656 2.808C73.0656 3.14933 72.9536 3.42667 72.7296 3.64C72.5163 3.85333 72.1856 3.96 71.7376 3.96C71.5456 3.96 71.3163 3.93333 71.0496 3.88C70.783 3.82667 70.4896 3.77333 70.1696 3.72C69.8496 3.66667 69.4976 3.64 69.1136 3.64C68.463 3.64 67.9616 3.74133 67.6096 3.944C67.2576 4.14667 67.0816 4.472 67.0816 4.92C67.0816 5.112 67.1296 5.288 67.2256 5.448C67.3323 5.608 67.551 5.77333 67.8816 5.944C68.2123 6.11467 68.719 6.312 69.4016 6.536C70.2443 6.792 70.9056 7.07467 71.3856 7.384C71.8656 7.68267 72.207 8.024 72.4096 8.408C72.6123 8.792 72.7136 9.224 72.7136 9.704C72.7136 10.3653 72.5323 10.952 72.1696 11.464C71.8176 11.9653 71.3216 12.3547 70.6816 12.632C70.0523 12.9093 69.3163 13.048 68.4736 13.048ZM78.3328 13.048C77.4794 13.048 76.7328 12.8613 76.0928 12.488C75.4634 12.104 74.9728 11.56 74.6208 10.856C74.2794 10.152 74.1088 9.31467 74.1088 8.344C74.1088 7.33067 74.2848 6.44533 74.6368 5.688C74.9888 4.93067 75.4848 4.33867 76.1248 3.912C76.7754 3.48533 77.5274 3.272 78.3808 3.272C79.2981 3.272 80.0928 3.48 80.7648 3.896C81.4368 4.30133 81.9594 4.872 82.3328 5.608C82.7061 6.344 82.8928 7.20267 82.8928 8.184C82.8928 9.18667 82.7061 10.0507 82.3328 10.776C81.9594 11.5013 81.4314 12.0613 80.7488 12.456C80.0661 12.8507 79.2608 13.048 78.3328 13.048ZM78.5568 10.888C79.2181 10.888 79.7408 10.6267 80.1248 10.104C80.5194 9.57067 80.7168 8.86667 80.7168 7.992C80.7168 7.10667 80.5194 6.40267 80.1248 5.88C79.7408 5.35733 79.2181 5.096 78.5568 5.096C77.8741 5.096 77.3354 5.35733 76.9408 5.88C76.5461 6.40267 76.3488 7.10667 76.3488 7.992C76.3488 8.86667 76.5461 9.57067 76.9408 10.104C77.3354 10.6267 77.8741 10.888 78.5568 10.888ZM91.4993 13.16C91.1366 13.16 90.8859 13.0213 90.7473 12.744C90.6193 12.456 90.5446 12.0027 90.5233 11.384L90.6833 11.464C90.0859 12.6267 88.9553 13.208 87.2913 13.208C86.5339 13.208 85.9046 13.0747 85.4033 12.808C84.9019 12.5307 84.5286 12.168 84.2833 11.72C84.0486 11.2613 83.9313 10.7653 83.9313 10.232C83.9313 9.31467 84.2513 8.58933 84.8913 8.056C85.5313 7.512 86.3793 7.24 87.4353 7.24C88.1286 7.24 88.7313 7.34133 89.2433 7.544C89.7553 7.74667 90.1926 8.02933 90.5553 8.392L90.2833 8.36C90.2086 7.28267 89.9739 6.51467 89.5793 6.056C89.1953 5.58667 88.6459 5.352 87.9313 5.352C87.5153 5.352 87.1313 5.416 86.7793 5.544C86.4273 5.672 86.1019 5.80533 85.8033 5.944C85.5153 6.072 85.2433 6.136 84.9873 6.136C84.7313 6.136 84.5286 6.05067 84.3793 5.88C84.2406 5.70933 84.1713 5.49067 84.1713 5.224C84.1713 4.84 84.3526 4.47733 84.7153 4.136C85.0886 3.79467 85.5793 3.51733 86.1873 3.304C86.7953 3.09067 87.4566 2.984 88.1713 2.984C89.0353 2.984 89.7766 3.192 90.3953 3.608C91.0139 4.024 91.4833 4.632 91.8033 5.432C92.0806 6.11467 92.2779 6.87733 92.3953 7.72C92.5126 8.56267 92.5712 9.464 92.5712 10.424C92.5712 11.1493 92.5339 11.7093 92.4593 12.104C92.3846 12.4987 92.2673 12.776 92.1073 12.936C91.9579 13.0853 91.7553 13.16 91.4993 13.16ZM87.9633 11.368C88.3153 11.368 88.6726 11.32 89.0353 11.224C89.3979 11.1173 89.7019 10.9627 89.9473 10.76C90.1926 10.5573 90.3153 10.3067 90.3153 10.008C90.3153 9.752 90.2086 9.544 89.9953 9.384C89.7926 9.21333 89.5206 9.08533 89.1793 9C88.8486 8.91467 88.4913 8.872 88.1073 8.872C87.4566 8.872 86.9606 8.984 86.6193 9.208C86.2886 9.432 86.1233 9.73067 86.1233 10.104C86.1233 10.5093 86.2779 10.824 86.5873 11.048C86.9073 11.2613 87.3659 11.368 87.9633 11.368ZM96.2509 13.032C95.9202 13.032 95.6589 12.9573 95.4669 12.808C95.2749 12.648 95.1202 12.3867 95.0029 12.024C94.8429 11.4907 94.7202 10.8187 94.6349 10.008C94.5602 9.18667 94.5229 8.17867 94.5229 6.984C94.5229 6.248 94.5495 5.512 94.6029 4.776C94.6669 4.02933 94.7469 3.352 94.8429 2.744C94.9389 2.12533 95.0402 1.64533 95.1469 1.304C95.2642 0.941333 95.4029 0.690666 95.5629 0.551999C95.7229 0.413333 95.9042 0.344 96.1069 0.344C96.3202 0.344 96.4909 0.418667 96.6189 0.568C96.7469 0.706666 96.8482 0.957333 96.9229 1.32C96.9869 1.672 97.0349 2.104 97.0669 2.616C97.1095 3.128 97.1309 3.67733 97.1309 4.264C97.1309 5.064 97.0935 5.90667 97.0189 6.792C96.9442 7.67733 96.8429 8.54667 96.7149 9.4C96.5975 10.2533 96.4535 11.0373 96.2829 11.752L95.8349 11.528C96.1122 11.1867 96.4269 10.92 96.7789 10.728C97.1415 10.536 97.4722 10.44 97.7709 10.44C98.0162 10.44 98.2029 10.5093 98.3309 10.648C98.4695 10.776 98.5389 10.9787 98.5389 11.256C98.5389 11.5333 98.4162 11.8107 98.1709 12.088C97.9362 12.3653 97.6429 12.5947 97.2909 12.776C96.9389 12.9467 96.5922 13.032 96.2509 13.032ZM106.427 13.048C106.075 13.048 105.68 13.0267 105.243 12.984C104.816 12.9413 104.4 12.8613 103.995 12.744C103.6 12.616 103.269 12.4453 103.003 12.232C102.747 12.008 102.619 11.72 102.619 11.368C102.619 11.0053 102.731 10.7333 102.955 10.552C103.189 10.3707 103.568 10.28 104.091 10.28C104.453 10.28 104.859 10.328 105.307 10.424C105.765 10.52 106.203 10.568 106.619 10.568C107.237 10.568 107.691 10.472 107.979 10.28C108.277 10.088 108.427 9.82667 108.427 9.496C108.427 9.29333 108.368 9.112 108.251 8.952C108.144 8.792 107.925 8.632 107.595 8.472C107.264 8.312 106.768 8.136 106.107 7.944C105.349 7.74133 104.736 7.51733 104.267 7.272C103.797 7.016 103.456 6.712 103.243 6.36C103.029 6.008 102.923 5.592 102.923 5.112C102.923 4.52533 103.024 4.01867 103.227 3.592C103.44 3.15467 103.723 2.78667 104.075 2.488C104.427 2.17867 104.821 1.93333 105.259 1.752C105.696 1.57067 106.139 1.43733 106.587 1.352C107.045 1.26667 107.483 1.224 107.899 1.224C108.816 1.224 109.563 1.368 110.139 1.656C110.725 1.944 111.019 2.328 111.019 2.808C111.019 3.14933 110.907 3.42667 110.683 3.64C110.469 3.85333 110.139 3.96 109.691 3.96C109.499 3.96 109.269 3.93333 109.003 3.88C108.736 3.82667 108.443 3.77333 108.123 3.72C107.803 3.66667 107.451 3.64 107.067 3.64C106.416 3.64 105.915 3.74133 105.563 3.944C105.211 4.14667 105.035 4.472 105.035 4.92C105.035 5.112 105.083 5.288 105.179 5.448C105.285 5.608 105.504 5.77333 105.835 5.944C106.165 6.11467 106.672 6.312 107.355 6.536C108.197 6.792 108.859 7.07467 109.339 7.384C109.819 7.68267 110.16 8.024 110.363 8.408C110.565 8.792 110.667 9.224 110.667 9.704C110.667 10.3653 110.485 10.952 110.123 11.464C109.771 11.9653 109.275 12.3547 108.635 12.632C108.005 12.9093 107.269 13.048 106.427 13.048ZM116.878 13.128C115.694 13.128 114.75 12.952 114.046 12.6C113.342 12.248 112.835 11.7413 112.526 11.08C112.217 10.4187 112.062 9.62933 112.062 8.712C112.062 7.54933 112.275 6.56267 112.702 5.752C113.139 4.93067 113.737 4.30133 114.494 3.864C115.262 3.42667 116.131 3.208 117.102 3.208C118.243 3.208 119.081 3.47467 119.614 4.008C120.147 4.53067 120.414 5.21867 120.414 6.072C120.414 6.75467 120.233 7.34667 119.87 7.848C119.518 8.33867 119.027 8.71733 118.398 8.984C117.769 9.25067 117.043 9.384 116.222 9.384C115.763 9.384 115.321 9.32533 114.894 9.208C114.467 9.09067 114.083 8.93067 113.742 8.728L114.126 8.024C114.094 8.28 114.078 8.536 114.078 8.792C114.078 9.53867 114.313 10.0773 114.782 10.408C115.251 10.728 115.918 10.888 116.782 10.888C117.454 10.888 117.993 10.8293 118.398 10.712C118.803 10.5947 119.145 10.4827 119.422 10.376C119.699 10.2587 119.971 10.2 120.238 10.2C120.387 10.2 120.521 10.2427 120.638 10.328C120.766 10.4027 120.867 10.5147 120.942 10.664C121.027 10.8133 121.07 10.9947 121.07 11.208C121.07 11.528 120.91 11.8373 120.59 12.136C120.27 12.424 119.795 12.664 119.166 12.856C118.547 13.0373 117.785 13.128 116.878 13.128ZM115.95 7.896C116.707 7.896 117.315 7.736 117.774 7.416C118.233 7.096 118.462 6.70133 118.462 6.232C118.462 5.85867 118.334 5.55467 118.078 5.32C117.833 5.07467 117.443 4.952 116.91 4.952C116.409 4.952 115.955 5.048 115.55 5.24C115.155 5.42133 114.846 5.66133 114.622 5.96C114.398 6.25867 114.286 6.584 114.286 6.936C114.286 7.24533 114.43 7.48533 114.718 7.656C115.017 7.816 115.427 7.896 115.95 7.896ZM125.532 12.744C124.529 12.744 123.713 12.36 123.084 11.592C122.455 10.8133 122.14 9.63467 122.14 8.056C122.14 6.37067 122.444 5.13867 123.052 4.36C123.66 3.58133 124.46 3.192 125.452 3.192C126.039 3.192 126.556 3.34133 127.004 3.64C127.452 3.93867 127.836 4.36 128.156 4.904L128.028 5.128C127.996 4.97867 127.969 4.81867 127.948 4.648C127.927 4.47733 127.916 4.34933 127.916 4.264C127.916 3.82667 127.985 3.49067 128.124 3.256C128.273 3.01067 128.503 2.888 128.812 2.888C129.153 2.888 129.42 3.02667 129.612 3.304C129.815 3.58133 129.969 3.976 130.076 4.488C130.215 5.01067 130.332 5.67733 130.428 6.488C130.524 7.288 130.572 8.09867 130.572 8.92C130.572 9.944 130.535 10.8027 130.46 11.496C130.385 12.1893 130.263 12.7653 130.092 13.224C129.921 13.6827 129.697 14.0827 129.42 14.424C128.961 14.9787 128.369 15.4 127.644 15.688C126.929 15.9867 126.103 16.136 125.164 16.136C124.492 16.136 123.953 16.072 123.548 15.944C123.143 15.8267 122.849 15.6613 122.668 15.448C122.497 15.2453 122.412 15.016 122.412 14.76C122.412 14.4933 122.487 14.2693 122.636 14.088C122.785 13.9173 123.009 13.832 123.308 13.832C123.575 13.832 123.884 13.8747 124.236 13.96C124.599 14.0453 125.025 14.088 125.516 14.088C126.551 14.088 127.281 13.8427 127.708 13.352C128.145 12.872 128.364 12.1787 128.364 11.272C128.364 11.0267 128.348 10.7387 128.316 10.408L128.54 10.488C128.273 11.1707 127.879 11.72 127.356 12.136C126.833 12.5413 126.225 12.744 125.532 12.744ZM126.14 10.776C126.481 10.776 126.823 10.6853 127.164 10.504C127.505 10.3227 127.788 10.024 128.012 9.608C128.236 9.192 128.348 8.632 128.348 7.928C128.348 7.08533 128.151 6.39733 127.756 5.864C127.361 5.33067 126.807 5.064 126.092 5.064C125.473 5.064 125.02 5.29867 124.732 5.768C124.444 6.23733 124.3 6.94667 124.3 7.896C124.3 8.80267 124.444 9.512 124.732 10.024C125.02 10.5253 125.489 10.776 126.14 10.776ZM133.931 0.728C134.358 0.728 134.662 0.845333 134.843 1.08C135.035 1.31467 135.131 1.58667 135.131 1.896C135.131 2.28 135.014 2.57867 134.779 2.792C134.555 2.99467 134.235 3.096 133.819 3.096C133.414 3.096 133.11 2.984 132.907 2.76C132.704 2.52533 132.603 2.25333 132.603 1.944C132.603 1.53867 132.726 1.23467 132.971 1.032C133.216 0.829333 133.536 0.728 133.931 0.728ZM134.027 4.296C134.368 4.296 134.635 4.616 134.827 5.256C135.03 5.896 135.131 6.91467 135.131 8.312C135.131 10.0293 135.008 11.2667 134.763 12.024C134.518 12.7813 134.144 13.16 133.643 13.16C133.259 13.16 132.976 12.8827 132.795 12.328C132.614 11.7627 132.523 10.7813 132.523 9.384C132.523 7.66667 132.662 6.392 132.939 5.56C133.227 4.71733 133.59 4.296 134.027 4.296ZM139.789 3.368H139.469C139.437 2.89867 139.448 2.456 139.501 2.04C139.555 1.61333 139.667 1.272 139.837 1.016C140.019 0.749333 140.275 0.615999 140.605 0.615999C140.904 0.615999 141.123 0.711999 141.261 0.903999C141.4 1.096 141.469 1.36267 141.469 1.704C141.469 2.376 141.341 2.952 141.085 3.432L140.797 3.4C141.373 3.19733 142.024 3.096 142.749 3.096C143.208 3.096 143.571 3.18667 143.837 3.368C144.115 3.53867 144.253 3.832 144.253 4.248C144.253 4.64267 144.093 4.94133 143.773 5.144C143.453 5.34667 143.053 5.448 142.573 5.448C142.285 5.448 141.976 5.43733 141.645 5.416C141.325 5.384 141.011 5.336 140.701 5.272L140.973 4.936C141.069 5.34133 141.16 5.80533 141.245 6.328C141.341 6.84 141.427 7.37333 141.501 7.928C141.576 8.48267 141.635 9.02133 141.677 9.544C141.72 10.0667 141.741 10.536 141.741 10.952C141.741 11.6347 141.635 12.1733 141.421 12.568C141.208 12.9627 140.893 13.16 140.477 13.16C140.147 13.16 139.885 13.0587 139.693 12.856C139.512 12.6533 139.379 12.3973 139.293 12.088C139.219 11.768 139.171 11.4373 139.149 11.096C139.139 10.7547 139.133 10.4453 139.133 10.168C139.133 9.69867 139.155 9.17067 139.197 8.584C139.24 7.98667 139.299 7.37333 139.373 6.744C139.459 6.11467 139.555 5.50667 139.661 4.92L139.981 5.192C139.437 5.46933 138.765 5.608 137.965 5.608C137.475 5.608 137.096 5.51733 136.829 5.336C136.563 5.15467 136.429 4.872 136.429 4.488C136.429 4.072 136.579 3.752 136.877 3.528C137.176 3.29333 137.576 3.176 138.077 3.176C138.408 3.176 138.717 3.19733 139.005 3.24C139.304 3.272 139.565 3.31467 139.789 3.368ZM146.962 0.728C147.389 0.728 147.693 0.845333 147.874 1.08C148.066 1.31467 148.162 1.58667 148.162 1.896C148.162 2.28 148.045 2.57867 147.81 2.792C147.586 2.99467 147.266 3.096 146.85 3.096C146.445 3.096 146.141 2.984 145.938 2.76C145.735 2.52533 145.634 2.25333 145.634 1.944C145.634 1.53867 145.757 1.23467 146.002 1.032C146.247 0.829333 146.567 0.728 146.962 0.728ZM147.058 4.296C147.399 4.296 147.666 4.616 147.858 5.256C148.061 5.896 148.162 6.91467 148.162 8.312C148.162 10.0293 148.039 11.2667 147.794 12.024C147.549 12.7813 147.175 13.16 146.674 13.16C146.29 13.16 146.007 12.8827 145.826 12.328C145.645 11.7627 145.554 10.7813 145.554 9.384C145.554 7.66667 145.693 6.392 145.97 5.56C146.258 4.71733 146.621 4.296 147.058 4.296ZM153.173 12.744C152.17 12.744 151.354 12.36 150.725 11.592C150.095 10.8133 149.781 9.63467 149.781 8.056C149.781 6.37067 150.085 5.13867 150.693 4.36C151.301 3.58133 152.101 3.192 153.093 3.192C153.679 3.192 154.197 3.34133 154.645 3.64C155.093 3.93867 155.477 4.36 155.797 4.904L155.669 5.128C155.637 4.97867 155.61 4.81867 155.589 4.648C155.567 4.47733 155.557 4.34933 155.557 4.264C155.557 3.82667 155.626 3.49067 155.765 3.256C155.914 3.01067 156.143 2.888 156.453 2.888C156.794 2.888 157.061 3.02667 157.253 3.304C157.455 3.58133 157.61 3.976 157.717 4.488C157.855 5.01067 157.973 5.67733 158.069 6.488C158.165 7.288 158.213 8.09867 158.213 8.92C158.213 9.944 158.175 10.8027 158.101 11.496C158.026 12.1893 157.903 12.7653 157.733 13.224C157.562 13.6827 157.338 14.0827 157.061 14.424C156.602 14.9787 156.01 15.4 155.285 15.688C154.57 15.9867 153.743 16.136 152.805 16.136C152.133 16.136 151.594 16.072 151.189 15.944C150.783 15.8267 150.49 15.6613 150.309 15.448C150.138 15.2453 150.053 15.016 150.053 14.76C150.053 14.4933 150.127 14.2693 150.277 14.088C150.426 13.9173 150.65 13.832 150.949 13.832C151.215 13.832 151.525 13.8747 151.877 13.96C152.239 14.0453 152.666 14.088 153.157 14.088C154.191 14.088 154.922 13.8427 155.349 13.352C155.786 12.872 156.005 12.1787 156.005 11.272C156.005 11.0267 155.989 10.7387 155.957 10.408L156.181 10.488C155.914 11.1707 155.519 11.72 154.997 12.136C154.474 12.5413 153.866 12.744 153.173 12.744ZM153.781 10.776C154.122 10.776 154.463 10.6853 154.805 10.504C155.146 10.3227 155.429 10.024 155.653 9.608C155.877 9.192 155.989 8.632 155.989 7.928C155.989 7.08533 155.791 6.39733 155.397 5.864C155.002 5.33067 154.447 5.064 153.733 5.064C153.114 5.064 152.661 5.29867 152.373 5.768C152.085 6.23733 151.941 6.94667 151.941 7.896C151.941 8.80267 152.085 9.512 152.373 10.024C152.661 10.5253 153.13 10.776 153.781 10.776ZM167.156 13.16C166.793 13.16 166.542 13.0213 166.404 12.744C166.276 12.456 166.201 12.0027 166.18 11.384L166.34 11.464C165.742 12.6267 164.612 13.208 162.948 13.208C162.19 13.208 161.561 13.0747 161.06 12.808C160.558 12.5307 160.185 12.168 159.94 11.72C159.705 11.2613 159.588 10.7653 159.588 10.232C159.588 9.31467 159.908 8.58933 160.548 8.056C161.188 7.512 162.036 7.24 163.092 7.24C163.785 7.24 164.388 7.34133 164.9 7.544C165.412 7.74667 165.849 8.02933 166.212 8.392L165.94 8.36C165.865 7.28267 165.63 6.51467 165.236 6.056C164.852 5.58667 164.302 5.352 163.588 5.352C163.172 5.352 162.788 5.416 162.436 5.544C162.084 5.672 161.758 5.80533 161.46 5.944C161.172 6.072 160.9 6.136 160.644 6.136C160.388 6.136 160.185 6.05067 160.036 5.88C159.897 5.70933 159.828 5.49067 159.828 5.224C159.828 4.84 160.009 4.47733 160.372 4.136C160.745 3.79467 161.236 3.51733 161.844 3.304C162.452 3.09067 163.113 2.984 163.828 2.984C164.692 2.984 165.433 3.192 166.052 3.608C166.67 4.024 167.14 4.632 167.46 5.432C167.737 6.11467 167.934 6.87733 168.052 7.72C168.169 8.56267 168.227 9.464 168.227 10.424C168.227 11.1493 168.19 11.7093 168.116 12.104C168.041 12.4987 167.924 12.776 167.764 12.936C167.614 13.0853 167.412 13.16 167.156 13.16ZM163.62 11.368C163.972 11.368 164.329 11.32 164.692 11.224C165.054 11.1173 165.358 10.9627 165.604 10.76C165.849 10.5573 165.972 10.3067 165.972 10.008C165.972 9.752 165.865 9.544 165.652 9.384C165.449 9.21333 165.177 9.08533 164.836 9C164.505 8.91467 164.148 8.872 163.764 8.872C163.113 8.872 162.617 8.984 162.276 9.208C161.945 9.432 161.78 9.73067 161.78 10.104C161.78 10.5093 161.934 10.824 162.244 11.048C162.564 11.2613 163.022 11.368 163.62 11.368Z" fill="black"/>
</svg>
