<svg version="1.1" xmlns="http://www.w3.org/2000/svg" xmlns:xlink="http://www.w3.org/1999/xlink" width="74.89146" height="18.28107" viewBox="0,0,74.89146,18.28107"><g transform="translate(-202.55427,-170.85947)"><g stroke-miterlimit="10"><path d="M208.71531,171.35947h62.56938c3.12668,0 5.66104,2.53453 5.66104,5.66104v5.95899c0,3.1265 -2.53436,5.66104 -5.66104,5.66104h-62.56938c-3.1265,0 -5.66104,-2.53454 -5.66104,-5.66104v-5.95899c0,-3.1265 2.53454,-5.66104 5.66104,-5.66104z" fill="#a5a7a9" stroke="#000000"/><path d="M214.93053,178.09908c0.47273,0 0.82037,0.12115 1.04282,0.3635c0.22644,0.24235 0.33966,0.56014 0.33966,0.95344c0,0.27012 -0.06358,0.50455 -0.19069,0.70316c-0.12317,0.19861 -0.29199,0.35355 -0.50651,0.4648c-0.21452,0.10726 -0.45688,0.16089 -0.727,0.16089c-0.12711,0 -0.2622,-0.01388 -0.40521,-0.04171c-0.13902,-0.02783 -0.28406,-0.08146 -0.43501,-0.16089l0.02979,-0.07747c0.03176,0.09934 0.05762,0.22245 0.07747,0.36946c0.02384,0.14302 0.04171,0.29199 0.05363,0.44692c0.01591,0.15094 0.02384,0.29002 0.02384,0.41713c0,0.23437 -0.03975,0.41516 -0.11918,0.54227c-0.0755,0.12317 -0.18872,0.18473 -0.33966,0.18473c-0.12711,0 -0.22841,-0.03975 -0.30391,-0.11918c-0.07151,-0.07943 -0.12115,-0.21053 -0.14897,-0.39329c-0.02783,-0.18276 -0.04171,-0.42708 -0.04171,-0.73296c0,-0.58797 0.0258,-1.08853 0.07747,-1.50167c0.0556,-0.41713 0.14897,-0.74487 0.28007,-0.98323c0.10327,-0.18276 0.2622,-0.32774 0.47672,-0.43501c0.21852,-0.10726 0.4906,-0.16089 0.81638,-0.16089zM214.81731,180.04171c0.23836,0 0.43101,-0.06358 0.57802,-0.19069c0.15094,-0.12711 0.22644,-0.31183 0.22644,-0.55419c0,-0.15893 -0.05363,-0.29002 -0.16089,-0.39329c-0.10327,-0.10726 -0.26619,-0.16089 -0.48864,-0.16089c-0.16286,0 -0.30391,0.03772 -0.42309,0.11322c-0.11918,0.07151 -0.21053,0.17281 -0.27411,0.30391c-0.05959,0.12711 -0.08938,0.27411 -0.08938,0.44097c0,0.15493 0.04964,0.26815 0.14897,0.33966c0.10327,0.06752 0.26416,0.1013 0.48268,0.1013zM218.49169,182.43127c-0.44097,0 -0.79255,-0.06555 -1.05474,-0.19665c-0.2622,-0.1311 -0.45092,-0.31982 -0.5661,-0.5661c-0.11519,-0.24629 -0.17281,-0.5403 -0.17281,-0.88193c0,-0.43304 0.07943,-0.80047 0.23836,-1.10241c0.16286,-0.30587 0.38537,-0.5403 0.66741,-0.70316c0.28603,-0.16286 0.60978,-0.24432 0.97132,-0.24432c0.42505,0 0.73695,0.09934 0.93556,0.29795c0.19861,0.19468 0.29795,0.45092 0.29795,0.76871c0,0.25427 -0.06752,0.47475 -0.20261,0.66145c-0.1311,0.18276 -0.31386,0.32375 -0.54823,0.42309c-0.23437,0.09934 -0.50455,0.14897 -0.81042,0.14897c-0.17084,0 -0.33567,-0.02187 -0.4946,-0.06555c-0.15893,-0.04368 -0.30194,-0.10327 -0.42905,-0.17877l0.14302,-0.2622c-0.01192,0.09534 -0.01788,0.19069 -0.01788,0.28603c0,0.27811 0.08742,0.47869 0.2622,0.60186c0.17478,0.11918 0.42309,0.17877 0.74487,0.17877c0.25028,0 0.45092,-0.02187 0.60186,-0.06555c0.15094,-0.04368 0.27811,-0.08539 0.38138,-0.12514c0.10327,-0.04368 0.20457,-0.06555 0.30391,-0.06555c0.0556,0 0.1053,0.01591 0.14897,0.04767c0.04767,0.02783 0.08539,0.06954 0.11322,0.12514c0.03176,0.0556 0.04767,0.12317 0.04767,0.20261c0,0.11918 -0.05959,0.23437 -0.17877,0.34562c-0.11918,0.10726 -0.29598,0.19665 -0.53035,0.26815c-0.23043,0.06752 -0.51444,0.1013 -0.85214,0.1013zM218.14606,180.48268c0.28204,0 0.50848,-0.05959 0.67932,-0.17877c0.17084,-0.11918 0.25624,-0.26619 0.25624,-0.44097c0,-0.13902 -0.04767,-0.25224 -0.14302,-0.33966c-0.09135,-0.09135 -0.23639,-0.13706 -0.43501,-0.13706c-0.1867,0 -0.35557,0.03575 -0.50651,0.10726c-0.14701,0.06752 -0.2622,0.1569 -0.34562,0.26815c-0.08343,0.11125 -0.12514,0.2324 -0.12514,0.3635c0,0.11519 0.05363,0.20457 0.16089,0.26815c0.11125,0.05959 0.26416,0.08938 0.45884,0.08938zM220.57662,179.69609c0,-0.38138 0.03575,-0.65549 0.10726,-0.82234c0.07151,-0.17084 0.17281,-0.25624 0.30391,-0.25624c0.10333,0 0.18473,0.04368 0.24432,0.1311c0.05959,0.08343 0.10333,0.18872 0.1311,0.31583c0.02783,0.12317 0.04171,0.24831 0.04171,0.37542l-0.02979,-0.01192c0.06757,-0.21452 0.17084,-0.39925 0.30987,-0.55419c0.14302,-0.15493 0.31386,-0.2324 0.51247,-0.2324c0.23443,0 0.40724,0.09731 0.51843,0.29199c0.11125,0.19069 0.16685,0.42905 0.16685,0.71508c0,0.38138 -0.04368,0.64756 -0.1311,0.7985c-0.08736,0.15094 -0.20457,0.22644 -0.35158,0.22644c-0.10726,0 -0.1867,-0.04368 -0.23836,-0.1311c-0.04767,-0.08742 -0.06352,-0.24235 -0.04767,-0.4648c0.01591,-0.23437 0.00203,-0.39729 -0.04171,-0.48864c-0.04368,-0.09135 -0.11322,-0.13706 -0.20856,-0.13706c-0.11519,0 -0.21053,0.07347 -0.28603,0.22048c-0.07151,0.14302 -0.10726,0.31982 -0.10726,0.53035c0,0.08343 0.00995,0.18872 0.02979,0.31583c0.0199,0.12711 0.04171,0.26619 0.06555,0.41713c0.02384,0.14701 0.04571,0.29396 0.06555,0.44097c0.0199,0.14701 0.02979,0.28204 0.02979,0.40521c0,0.21852 -0.03373,0.37542 -0.1013,0.47076c-0.06752,0.09534 -0.16286,0.14302 -0.28603,0.14302c-0.13902,0 -0.24629,-0.04368 -0.32179,-0.1311c-0.07544,-0.09135 -0.13306,-0.23836 -0.17281,-0.44097c-0.03176,-0.18276 -0.06352,-0.39925 -0.09534,-0.64953c-0.03176,-0.25028 -0.05756,-0.50651 -0.07747,-0.76871c-0.01984,-0.2622 -0.02979,-0.49859 -0.02979,-0.70912zM223.86353,182.44319c-0.08742,0 -0.15893,-0.02979 -0.21452,-0.08938c-0.05166,-0.05959 -0.09338,-0.14498 -0.12514,-0.25624c-0.03182,-0.16286 -0.05959,-0.37542 -0.08343,-0.63761c-0.0199,-0.26619 -0.02979,-0.55019 -0.02979,-0.85214c0,-0.17084 0.00393,-0.3635 0.01192,-0.57802c0.00793,-0.21452 0.01788,-0.43101 0.02979,-0.64953c0.01585,-0.22245 0.03176,-0.42905 0.04767,-0.61973c0.01984,-0.19069 0.03969,-0.34562 0.05959,-0.4648c0.03176,-0.17478 0.07747,-0.31183 0.13706,-0.41117c0.06352,-0.10327 0.16286,-0.15493 0.29795,-0.15493c0.13902,0 0.24033,0.05363 0.30391,0.16089c0.06352,0.10327 0.09534,0.2324 0.09534,0.38733c0,0.17478 -0.01394,0.38138 -0.04171,0.61973c-0.02384,0.23836 -0.06162,0.48071 -0.11322,0.727l-0.11918,0.14302c0.04368,-0.16685 0.11519,-0.31982 0.21452,-0.45884c0.09928,-0.13902 0.22442,-0.24831 0.37542,-0.32774c0.15094,-0.08343 0.32572,-0.12514 0.52439,-0.12514c0.3893,0 0.69917,0.13902 0.9296,0.41713c0.23437,0.27411 0.35158,0.70316 0.35158,1.28714c0,0.4092 -0.06162,0.75083 -0.18473,1.02495c-0.11918,0.27411 -0.28406,0.48071 -0.4946,0.61973c-0.2066,0.13509 -0.44299,0.20261 -0.70912,0.20261c-0.25028,0 -0.46683,-0.07347 -0.64953,-0.22048c-0.17877,-0.14701 -0.29402,-0.35951 -0.34562,-0.63761l0.08343,0.06555c-0.01591,0.28603 -0.05566,0.49656 -0.11918,0.63165c-0.05959,0.1311 -0.13706,0.19665 -0.2324,0.19665zM224.95403,181.71619c0.19861,0 0.37339,-0.08938 0.52439,-0.26815c0.15094,-0.17877 0.22644,-0.45884 0.22644,-0.84022c0,-0.31779 -0.05959,-0.57606 -0.17877,-0.77467c-0.11525,-0.19861 -0.30987,-0.29795 -0.58398,-0.29795c-0.22251,0 -0.40128,0.08938 -0.53631,0.26815c-0.13509,0.17478 -0.20261,0.44097 -0.20261,0.7985c0,0.32578 0.06752,0.59393 0.20261,0.80446c0.13503,0.2066 0.31779,0.30987 0.54823,0.30987zM229.72164,182.44319c-0.13509,0 -0.22841,-0.05166 -0.28007,-0.15493c-0.04767,-0.10726 -0.0755,-0.27608 -0.08343,-0.50651l0.05959,0.02979c-0.22245,0.43304 -0.64357,0.64953 -1.26331,0.64953c-0.28204,0 -0.51647,-0.04964 -0.70316,-0.14897c-0.1867,-0.10327 -0.32578,-0.23836 -0.41713,-0.40521c-0.08742,-0.17084 -0.1311,-0.35557 -0.1311,-0.55419c0,-0.34163 0.11918,-0.61181 0.35754,-0.81042c0.23836,-0.20261 0.55419,-0.30391 0.94748,-0.30391c0.2582,0 0.48268,0.03772 0.67337,0.11322c0.19069,0.0755 0.35355,0.18074 0.48864,0.31583l-0.1013,-0.01192c-0.02783,-0.40122 -0.11519,-0.68725 -0.2622,-0.85809c-0.14302,-0.17478 -0.34759,-0.2622 -0.61378,-0.2622c-0.15493,0 -0.29795,0.02384 -0.42905,0.07151c-0.1311,0.04767 -0.25224,0.09731 -0.3635,0.14897c-0.10726,0.04767 -0.20856,0.07151 -0.30391,0.07151c-0.09534,0 -0.17084,-0.03176 -0.22644,-0.09534c-0.05166,-0.06358 -0.07747,-0.14498 -0.07747,-0.24432c0,-0.14302 0.06752,-0.27811 0.20261,-0.40521c0.13902,-0.12711 0.32179,-0.23043 0.54823,-0.30987c0.22644,-0.07943 0.47273,-0.11918 0.73891,-0.11918c0.32179,0 0.59787,0.07747 0.8283,0.2324c0.23043,0.15493 0.40521,0.38138 0.52439,0.67932c0.10327,0.25427 0.1768,0.53828 0.22048,0.85214c0.04368,0.31386 0.06555,0.64953 0.06555,1.00707c0,0.27012 -0.01388,0.47869 -0.04171,0.62569c-0.02783,0.14701 -0.07151,0.25028 -0.1311,0.30987c-0.0556,0.0556 -0.1311,0.08343 -0.22644,0.08343zM228.4047,181.77578c0.1311,0 0.26416,-0.01788 0.39925,-0.05363c0.13509,-0.03975 0.24831,-0.09731 0.33966,-0.17281c0.09135,-0.0755 0.13706,-0.16882 0.13706,-0.28007c0,-0.09534 -0.03975,-0.17281 -0.11918,-0.2324c-0.0755,-0.06358 -0.1768,-0.11125 -0.30391,-0.14302c-0.12317,-0.03176 -0.25624,-0.04767 -0.39925,-0.04767c-0.24235,0 -0.42708,0.04171 -0.55419,0.12514c-0.12317,0.08343 -0.18473,0.19468 -0.18473,0.3337c0,0.15094 0.05762,0.26815 0.17281,0.35158c0.11918,0.07943 0.29002,0.11918 0.51247,0.11918zM231.37216,177.81305c0.15887,0 0.27209,0.04368 0.33966,0.1311c0.07151,0.08742 0.10726,0.18872 0.10726,0.30391c0,0.14302 -0.04374,0.25427 -0.1311,0.3337c-0.08343,0.0755 -0.20261,0.11322 -0.35754,0.11322c-0.151,0 -0.26422,-0.04171 -0.33966,-0.12514c-0.0755,-0.08742 -0.11328,-0.18872 -0.11328,-0.30391c0,-0.15094 0.04571,-0.26416 0.13712,-0.33966c0.09135,-0.0755 0.21053,-0.11322 0.35754,-0.11322zM231.40791,179.14191c0.12711,0 0.22644,0.11918 0.29795,0.35754c0.07544,0.23836 0.11322,0.61777 0.11322,1.13817c0,0.63958 -0.04571,1.10045 -0.13706,1.38249c-0.09141,0.28204 -0.23043,0.42309 -0.41713,0.42309c-0.14302,0 -0.24831,-0.10327 -0.31583,-0.30987c-0.06757,-0.21053 -0.1013,-0.57606 -0.1013,-1.09645c0,-0.63958 0.0516,-1.11433 0.15493,-1.4242c0.10726,-0.31386 0.24229,-0.47076 0.40521,-0.47076zM232.95218,182.44319c-0.0755,0 -0.13706,-0.02187 -0.18473,-0.06555c-0.04767,-0.04767 -0.08146,-0.11519 -0.1013,-0.20261c-0.03176,-0.14701 -0.05959,-0.35951 -0.08343,-0.63761c-0.02384,-0.27811 -0.03575,-0.58595 -0.03575,-0.92364c0,-0.41713 0.01388,-0.81835 0.04171,-1.20372c0.03176,-0.38537 0.07151,-0.70119 0.11918,-0.94748c0.05166,-0.26619 0.11519,-0.46081 0.19069,-0.58398c0.0755,-0.12711 0.17478,-0.19069 0.29795,-0.19069c0.11125,0 0.19665,0.05166 0.25624,0.15493c0.05959,0.09934 0.08938,0.27215 0.08938,0.51843c0,0.24629 -0.00995,0.51051 -0.02979,0.79255c-0.01591,0.28204 -0.04368,0.58398 -0.08343,0.90577h0.02384c0.2582,-0.34961 0.49859,-0.62969 0.72104,-0.84022c0.22644,-0.21053 0.43304,-0.3635 0.61973,-0.45884c0.19069,-0.09534 0.35951,-0.14302 0.50651,-0.14302c0.11519,0 0.20064,0.03575 0.25624,0.10726c0.0556,0.07151 0.08343,0.15893 0.08343,0.2622c0,0.20261 -0.16286,0.42905 -0.48864,0.67932c-0.32179,0.25028 -0.78659,0.50651 -1.3944,0.76871l0.00596,-0.09534c0.37738,0.19468 0.70119,0.39925 0.97132,0.61378c0.27411,0.21053 0.48268,0.41117 0.62569,0.60186c0.14701,0.1867 0.22048,0.34365 0.22048,0.47076c0,0.10327 -0.03379,0.18872 -0.1013,0.25624c-0.06358,0.06358 -0.1569,0.09534 -0.28007,0.09534c-0.15493,0 -0.32774,-0.05762 -0.51843,-0.17281c-0.1867,-0.11918 -0.38138,-0.29598 -0.58398,-0.53035c-0.20261,-0.23437 -0.40521,-0.52838 -0.60782,-0.88193h-0.02384c-0.00399,0.25028 -0.01984,0.4946 -0.04767,0.73296c-0.02384,0.23437 -0.0556,0.42708 -0.09534,0.57802c-0.02783,0.10327 -0.07151,0.1867 -0.1311,0.25028c-0.0556,0.05959 -0.13509,0.08938 -0.23836,0.08938zM236.64443,177.81305c0.15893,0 0.27215,0.04368 0.33966,0.1311c0.07151,0.08742 0.10726,0.18872 0.10726,0.30391c0,0.14302 -0.04368,0.25427 -0.1311,0.3337c-0.08343,0.0755 -0.20261,0.11322 -0.35754,0.11322c-0.15094,0 -0.26416,-0.04171 -0.33966,-0.12514c-0.0755,-0.08742 -0.11322,-0.18872 -0.11322,-0.30391c0,-0.15094 0.04571,-0.26416 0.13706,-0.33966c0.09135,-0.0755 0.21053,-0.11322 0.35754,-0.11322zM236.68019,179.14191c0.12711,0 0.22644,0.11918 0.29795,0.35754c0.0755,0.23836 0.11322,0.61777 0.11322,1.13817c0,0.63958 -0.04571,1.10045 -0.13706,1.38249c-0.09135,0.28204 -0.23043,0.42309 -0.41713,0.42309c-0.14302,0 -0.24831,-0.10327 -0.31583,-0.30987c-0.06752,-0.21053 -0.1013,-0.57606 -0.1013,-1.09645c0,-0.63958 0.05166,-1.11433 0.15493,-1.4242c0.10726,-0.31386 0.24235,-0.47076 0.40521,-0.47076zM240.71055,178.84396c-0.1867,0.0556 -0.35951,0.09934 -0.51843,0.1311c-0.15887,0.02783 -0.30784,0.04171 -0.44692,0.04171c-0.12711,0 -0.22644,-0.0258 -0.29795,-0.07747c-0.07151,-0.05166 -0.10726,-0.12913 -0.10726,-0.2324c0,-0.08742 0.02979,-0.17084 0.08938,-0.25028c0.05959,-0.07943 0.151,-0.15094 0.27411,-0.21452c0.14701,-0.07151 0.3337,-0.1311 0.56014,-0.17877c0.22644,-0.04767 0.49066,-0.07151 0.79255,-0.07151c0.20261,0 0.37941,0.01388 0.53035,0.04171c0.151,0.02384 0.27018,0.05363 0.35754,0.08938c0.11525,0.04767 0.19468,0.10327 0.23836,0.16685c0.04767,0.05959 0.07151,0.12913 0.07151,0.20856c0,0.09934 -0.03575,0.18074 -0.10726,0.24432c-0.07151,0.06358 -0.1867,0.09534 -0.34562,0.09534c-0.09534,0 -0.19462,-0.00596 -0.29795,-0.01788c-0.09928,-0.01192 -0.20457,-0.02783 -0.31583,-0.04767zM241.12172,178.52217c0.20261,0.25427 0.35957,0.55019 0.47076,0.88789c0.11525,0.3337 0.17281,0.68332 0.17281,1.04878c0,0.38138 -0.05363,0.723 -0.16089,1.02495c-0.10327,0.29795 -0.27012,0.53434 -0.50056,0.70912c-0.23037,0.17084 -0.53631,0.25624 -0.91768,0.25624c-0.46873,0 -0.82031,-0.1311 -1.05474,-0.39329c-0.23437,-0.2622 -0.35158,-0.6217 -0.35158,-1.07858c0,-0.22245 0.02783,-0.41117 0.08343,-0.5661c0.05959,-0.15493 0.13706,-0.27215 0.2324,-0.35158c0.09534,-0.08343 0.19867,-0.12514 0.30987,-0.12514c0.10333,0 0.1808,0.03176 0.2324,0.09534c0.05566,0.05959 0.08343,0.14498 0.08343,0.25624c0,0.09135 -0.01585,0.19265 -0.04767,0.30391c-0.02777,0.10726 -0.04171,0.21256 -0.04171,0.31583c0,0.26619 0.04571,0.46081 0.13706,0.58398c0.09534,0.11918 0.24634,0.17877 0.45288,0.17877c0.27411,0 0.46683,-0.11125 0.57802,-0.3337c0.11525,-0.22644 0.17281,-0.53434 0.17281,-0.92364c0,-0.28204 -0.02979,-0.55818 -0.08938,-0.8283c-0.05959,-0.27012 -0.15493,-0.54626 -0.28603,-0.8283zM245.35236,182.44319c-0.13509,0 -0.22847,-0.05166 -0.28007,-0.15493c-0.04767,-0.10726 -0.0755,-0.27608 -0.08343,-0.50651l0.05959,0.02979c-0.22251,0.43304 -0.64357,0.64953 -1.26331,0.64953c-0.2821,0 -0.51647,-0.04964 -0.70316,-0.14897c-0.18675,-0.10327 -0.32578,-0.23836 -0.41713,-0.40521c-0.08742,-0.17084 -0.1311,-0.35557 -0.1311,-0.55419c0,-0.34163 0.11918,-0.61181 0.35754,-0.81042c0.23836,-0.20261 0.55419,-0.30391 0.94748,-0.30391c0.2582,0 0.48268,0.03772 0.67337,0.11322c0.19069,0.0755 0.35355,0.18074 0.48864,0.31583l-0.1013,-0.01192c-0.02783,-0.40122 -0.11525,-0.68725 -0.2622,-0.85809c-0.14302,-0.17478 -0.34765,-0.2622 -0.61378,-0.2622c-0.15493,0 -0.29795,0.02384 -0.42905,0.07151c-0.1311,0.04767 -0.2523,0.09731 -0.3635,0.14897c-0.10726,0.04767 -0.20856,0.07151 -0.30391,0.07151c-0.09534,0 -0.17084,-0.03176 -0.22644,-0.09534c-0.05166,-0.06358 -0.07747,-0.14498 -0.07747,-0.24432c0,-0.14302 0.06752,-0.27811 0.20261,-0.40521c0.13902,-0.12711 0.32179,-0.23043 0.54823,-0.30987c0.22644,-0.07943 0.47273,-0.11918 0.73891,-0.11918c0.32179,0 0.59787,0.07747 0.8283,0.2324c0.23037,0.15493 0.40521,0.38138 0.52439,0.67932c0.10327,0.25427 0.17674,0.53828 0.22048,0.85214c0.04368,0.31386 0.06555,0.64953 0.06555,1.00707c0,0.27012 -0.01394,0.47869 -0.04171,0.62569c-0.02783,0.14701 -0.07151,0.25028 -0.1311,0.30987c-0.05566,0.0556 -0.1311,0.08343 -0.22644,0.08343zM244.03543,181.77578c0.1311,0 0.26416,-0.01788 0.39925,-0.05363c0.13503,-0.03975 0.24825,-0.09731 0.33966,-0.17281c0.09135,-0.0755 0.13706,-0.16882 0.13706,-0.28007c0,-0.09534 -0.03975,-0.17281 -0.11918,-0.2324c-0.0755,-0.06358 -0.1768,-0.11125 -0.30391,-0.14302c-0.12317,-0.03176 -0.25624,-0.04767 -0.39925,-0.04767c-0.24235,0 -0.42708,0.04171 -0.55419,0.12514c-0.12317,0.08343 -0.18473,0.19468 -0.18473,0.3337c0,0.15094 0.05756,0.26815 0.17281,0.35158c0.11918,0.07943 0.28996,0.11918 0.51247,0.11918zM246.26391,179.96425c0,-0.41314 0.04767,-0.71109 0.14302,-0.89385c0.09934,-0.18276 0.22847,-0.27411 0.38733,-0.27411c0.09141,0 0.16089,0.03379 0.20856,0.1013c0.05166,0.06358 0.08742,0.15094 0.10726,0.2622c0.0199,0.10726 0.02979,0.22841 0.02979,0.3635c0,0.17084 0,0.37142 0,0.60186c0.00399,0.22644 0.00799,0.46081 0.01192,0.70316c0.00799,0.23836 0.01591,0.46081 0.02384,0.66741h0.02384c0.12317,-0.5204 0.24634,-0.94748 0.36946,-1.28118c0.12716,-0.3337 0.25624,-0.57999 0.38733,-0.73891c0.13509,-0.16286 0.27018,-0.24432 0.40521,-0.24432c0.14701,0 0.28603,0.08146 0.41713,0.24432c0.13509,0.15893 0.26619,0.40122 0.39329,0.727c0.1311,0.32578 0.26422,0.73695 0.39925,1.23351h0.02384c0.01192,-0.34163 0.0199,-0.70119 0.02384,-1.07858c0.00399,-0.37738 0.00596,-0.723 0.00596,-1.03686c0,-0.22644 0.03778,-0.39329 0.11322,-0.50056c0.0755,-0.10726 0.1808,-0.16089 0.31583,-0.16089c0.17084,0 0.29402,0.08938 0.36946,0.26815c0.07949,0.17478 0.11918,0.41117 0.11918,0.70912c0,0.21852 -0.01192,0.45288 -0.03575,0.70316c-0.01984,0.24629 -0.04964,0.48464 -0.08938,0.71508c-0.03969,0.23043 -0.08736,0.43101 -0.14302,0.60186c-0.08343,0.25427 -0.17674,0.44692 -0.28007,0.57802c-0.09928,0.1311 -0.23037,0.19665 -0.39329,0.19665c-0.14695,0 -0.29396,-0.08539 -0.44097,-0.25624c-0.14302,-0.17478 -0.27805,-0.43501 -0.40521,-0.78063c-0.12711,-0.34562 -0.24432,-0.77664 -0.35158,-1.2931h-0.02384c-0.10327,0.49263 -0.22644,0.90577 -0.36946,1.23947c-0.13902,0.32971 -0.288,0.57802 -0.44692,0.74487c-0.15493,0.16685 -0.30987,0.25028 -0.4648,0.25028c-0.16286,0 -0.29992,-0.07347 -0.41117,-0.22048c-0.10726,-0.14701 -0.19665,-0.37345 -0.26815,-0.67932c-0.03176,-0.15493 -0.05959,-0.31982 -0.08343,-0.4946c-0.02384,-0.17877 -0.04171,-0.35355 -0.05363,-0.52439c-0.01192,-0.17084 -0.01788,-0.32179 -0.01788,-0.45288zM253.65651,182.44319c-0.13509,0 -0.22841,-0.05166 -0.28007,-0.15493c-0.04767,-0.10726 -0.0755,-0.27608 -0.08343,-0.50651l0.05959,0.02979c-0.22245,0.43304 -0.64357,0.64953 -1.26331,0.64953c-0.28204,0 -0.51647,-0.04964 -0.70316,-0.14897c-0.1867,-0.10327 -0.32578,-0.23836 -0.41713,-0.40521c-0.08742,-0.17084 -0.1311,-0.35557 -0.1311,-0.55419c0,-0.34163 0.11918,-0.61181 0.35754,-0.81042c0.23836,-0.20261 0.55419,-0.30391 0.94748,-0.30391c0.2582,0 0.48268,0.03772 0.67337,0.11322c0.19069,0.0755 0.35355,0.18074 0.48864,0.31583l-0.1013,-0.01192c-0.02783,-0.40122 -0.11519,-0.68725 -0.2622,-0.85809c-0.14302,-0.17478 -0.34759,-0.2622 -0.61378,-0.2622c-0.15493,0 -0.29795,0.02384 -0.42905,0.07151c-0.1311,0.04767 -0.25224,0.09731 -0.3635,0.14897c-0.10726,0.04767 -0.20856,0.07151 -0.30391,0.07151c-0.09534,0 -0.17084,-0.03176 -0.22644,-0.09534c-0.05166,-0.06358 -0.07747,-0.14498 -0.07747,-0.24432c0,-0.14302 0.06752,-0.27811 0.20261,-0.40521c0.13902,-0.12711 0.32179,-0.23043 0.54823,-0.30987c0.22644,-0.07943 0.47273,-0.11918 0.73891,-0.11918c0.32179,0 0.59787,0.07747 0.8283,0.2324c0.23043,0.15493 0.40521,0.38138 0.52439,0.67932c0.10327,0.25427 0.1768,0.53828 0.22048,0.85214c0.04368,0.31386 0.06555,0.64953 0.06555,1.00707c0,0.27012 -0.01388,0.47869 -0.04171,0.62569c-0.02783,0.14701 -0.07151,0.25028 -0.1311,0.30987c-0.0556,0.0556 -0.1311,0.08343 -0.22644,0.08343zM252.33958,181.77578c0.1311,0 0.26416,-0.01788 0.39925,-0.05363c0.13509,-0.03975 0.24831,-0.09731 0.33966,-0.17281c0.09135,-0.0755 0.13706,-0.16882 0.13706,-0.28007c0,-0.09534 -0.03975,-0.17281 -0.11918,-0.2324c-0.0755,-0.06358 -0.1768,-0.11125 -0.30391,-0.14302c-0.12317,-0.03176 -0.25624,-0.04767 -0.39925,-0.04767c-0.24235,0 -0.42708,0.04171 -0.55419,0.12514c-0.12317,0.08343 -0.18473,0.19468 -0.18473,0.3337c0,0.15094 0.05762,0.26815 0.17281,0.35158c0.11918,0.07943 0.29002,0.11918 0.51247,0.11918zM255.23553,182.44319c-0.08742,0 -0.15893,-0.02979 -0.21452,-0.08938c-0.05166,-0.05959 -0.09338,-0.14498 -0.12514,-0.25624c-0.03182,-0.16286 -0.05959,-0.37542 -0.08343,-0.63761c-0.0199,-0.26619 -0.02979,-0.55019 -0.02979,-0.85214c0,-0.17084 0.00393,-0.3635 0.01192,-0.57802c0.00793,-0.21452 0.01788,-0.43101 0.02979,-0.64953c0.01585,-0.22245 0.03176,-0.42905 0.04767,-0.61973c0.01984,-0.19069 0.03969,-0.34562 0.05959,-0.4648c0.03176,-0.17478 0.07747,-0.31183 0.13706,-0.41117c0.06352,-0.10327 0.16286,-0.15493 0.29795,-0.15493c0.13902,0 0.24033,0.05363 0.30391,0.16089c0.06352,0.10327 0.09534,0.2324 0.09534,0.38733c0,0.17478 -0.01394,0.38138 -0.04171,0.61973c-0.02384,0.23836 -0.06162,0.48071 -0.11322,0.727l-0.11918,0.14302c0.04368,-0.16685 0.11519,-0.31982 0.21452,-0.45884c0.09928,-0.13902 0.22442,-0.24831 0.37542,-0.32774c0.15094,-0.08343 0.32572,-0.12514 0.52439,-0.12514c0.3893,0 0.69917,0.13902 0.9296,0.41713c0.23437,0.27411 0.35158,0.70316 0.35158,1.28714c0,0.4092 -0.06162,0.75083 -0.18473,1.02495c-0.11918,0.27411 -0.28406,0.48071 -0.4946,0.61973c-0.2066,0.13509 -0.44299,0.20261 -0.70912,0.20261c-0.25028,0 -0.46683,-0.07347 -0.64953,-0.22048c-0.17877,-0.14701 -0.29402,-0.35951 -0.34562,-0.63761l0.08343,0.06555c-0.01591,0.28603 -0.05566,0.49656 -0.11918,0.63165c-0.05959,0.1311 -0.13706,0.19665 -0.2324,0.19665zM256.32602,181.71619c0.19861,0 0.37339,-0.08938 0.52439,-0.26815c0.15094,-0.17877 0.22644,-0.45884 0.22644,-0.84022c0,-0.31779 -0.05959,-0.57606 -0.17877,-0.77467c-0.11525,-0.19861 -0.30987,-0.29795 -0.58398,-0.29795c-0.22251,0 -0.40128,0.08938 -0.53631,0.26815c-0.13509,0.17478 -0.20261,0.44097 -0.20261,0.7985c0,0.32578 0.06752,0.59393 0.20261,0.80446c0.13503,0.2066 0.31779,0.30987 0.54823,0.30987zM261.09363,182.44319c-0.13509,0 -0.22847,-0.05166 -0.28007,-0.15493c-0.04767,-0.10726 -0.0755,-0.27608 -0.08343,-0.50651l0.05959,0.02979c-0.22251,0.43304 -0.64357,0.64953 -1.26331,0.64953c-0.2821,0 -0.51647,-0.04964 -0.70316,-0.14897c-0.18675,-0.10327 -0.32578,-0.23836 -0.41713,-0.40521c-0.08742,-0.17084 -0.1311,-0.35557 -0.1311,-0.55419c0,-0.34163 0.11918,-0.61181 0.35754,-0.81042c0.23836,-0.20261 0.55419,-0.30391 0.94748,-0.30391c0.2582,0 0.48268,0.03772 0.67337,0.11322c0.19069,0.0755 0.35355,0.18074 0.48864,0.31583l-0.1013,-0.01192c-0.02783,-0.40122 -0.11525,-0.68725 -0.2622,-0.85809c-0.14302,-0.17478 -0.34765,-0.2622 -0.61378,-0.2622c-0.15493,0 -0.29795,0.02384 -0.42905,0.07151c-0.1311,0.04767 -0.2523,0.09731 -0.3635,0.14897c-0.10726,0.04767 -0.20856,0.07151 -0.30391,0.07151c-0.09534,0 -0.17084,-0.03176 -0.22644,-0.09534c-0.05166,-0.06358 -0.07747,-0.14498 -0.07747,-0.24432c0,-0.14302 0.06752,-0.27811 0.20261,-0.40521c0.13902,-0.12711 0.32179,-0.23043 0.54823,-0.30987c0.22644,-0.07943 0.47273,-0.11918 0.73891,-0.11918c0.32179,0 0.59787,0.07747 0.8283,0.2324c0.23037,0.15493 0.40521,0.38138 0.52439,0.67932c0.10327,0.25427 0.17674,0.53828 0.22048,0.85214c0.04368,0.31386 0.06555,0.64953 0.06555,1.00707c0,0.27012 -0.01394,0.47869 -0.04171,0.62569c-0.02783,0.14701 -0.07151,0.25028 -0.1311,0.30987c-0.05566,0.0556 -0.1311,0.08343 -0.22644,0.08343zM259.77669,181.77578c0.1311,0 0.26416,-0.01788 0.39925,-0.05363c0.13503,-0.03975 0.24825,-0.09731 0.33966,-0.17281c0.09135,-0.0755 0.13706,-0.16882 0.13706,-0.28007c0,-0.09534 -0.03975,-0.17281 -0.11918,-0.2324c-0.0755,-0.06358 -0.1768,-0.11125 -0.30391,-0.14302c-0.12317,-0.03176 -0.25624,-0.04767 -0.39925,-0.04767c-0.24235,0 -0.42708,0.04171 -0.55419,0.12514c-0.12317,0.08343 -0.18473,0.19468 -0.18473,0.3337c0,0.15094 0.05756,0.26815 0.17281,0.35158c0.11918,0.07943 0.28996,0.11918 0.51247,0.11918zM262.82769,178.6771c0.12693,0 0.21214,0.05166 0.25624,0.15493c0.04767,0.10327 0.07151,0.25624 0.07151,0.45884c0,0.04767 -0.00417,0.09934 -0.01192,0.15493c-0.00417,0.05166 -0.01192,0.09934 -0.02384,0.14302l-0.01192,-0.11918c0.09534,-0.2582 0.24193,-0.45884 0.44097,-0.60186c0.19843,-0.14701 0.40879,-0.22048 0.63165,-0.22048c0.24611,0 0.4505,0.06954 0.61378,0.20856c0.16685,0.13902 0.28961,0.3337 0.36946,0.58398c0.08343,0.25028 0.12514,0.54626 0.12514,0.88789c0,0.21053 -0.01013,0.4191 -0.02979,0.62569c-0.01609,0.20261 -0.03993,0.3893 -0.07151,0.56014c-0.02801,0.16685 -0.05959,0.30391 -0.09534,0.41117c-0.04767,0.13509 -0.10965,0.23639 -0.18473,0.30391c-0.07568,0.06358 -0.16506,0.09534 -0.26815,0.09534c-0.10369,0 -0.18294,-0.03772 -0.23836,-0.11322c-0.05601,-0.0755 -0.08343,-0.1768 -0.08343,-0.30391c0,-0.13509 0.00953,-0.29795 0.02979,-0.48864c0.01966,-0.19468 0.03754,-0.39133 0.05363,-0.58994c0.01966,-0.20261 0.02979,-0.38537 0.02979,-0.54823c0,-0.55615 -0.18294,-0.83426 -0.54823,-0.83426c-0.19486,0 -0.35754,0.08742 -0.48864,0.2622c-0.1311,0.17084 -0.21869,0.41516 -0.2622,0.73296c-0.01192,0.10726 -0.01788,0.24033 -0.01788,0.39925c0,0.15893 0,0.31779 0,0.47672c0.00358,0.15493 0,0.28603 -0.01192,0.39329c-0.01609,0.23836 -0.06197,0.4092 -0.13706,0.51247c-0.07151,0.10327 -0.17102,0.15493 -0.29795,0.15493c-0.14719,0 -0.25862,-0.06752 -0.33388,-0.20261c-0.07544,-0.13902 -0.11322,-0.37142 -0.11322,-0.6972c0,-0.16685 0.00399,-0.35355 0.01192,-0.56014c0.00799,-0.2066 0.01788,-0.41314 0.02979,-0.61973c0.01591,-0.21053 0.03379,-0.40122 0.05363,-0.57206c0.03951,-0.32179 0.09731,-0.57606 0.17299,-0.76275c0.07508,-0.19069 0.1883,-0.28603 0.33966,-0.28603z" fill="#000000" stroke="none"/></g></g></svg>