<svg version="1.1" xmlns="http://www.w3.org/2000/svg" xmlns:xlink="http://www.w3.org/1999/xlink" width="129.02319" height="121.97807" viewBox="0,0,129.02319,121.97807"><g transform="translate(-175.4884,-118.01831)"><g data-paper-data="{&quot;isPaintingLayer&quot;:true}" fill-rule="nonzero" stroke-linecap="butt" stroke-linejoin="miter" stroke-miterlimit="10" stroke-dashoffset="0" style="mix-blend-mode: normal"><path d="M177.22904,227.66016l62.77093,-107.65654l62.77099,107.65654z" fill="#a04c5a" stroke="#000000" stroke-width="2" stroke-dasharray=""/><path d="M239.99997,120.02535v106.52517" fill="none" stroke="#000000" stroke-width="2" stroke-dasharray="4,4"/><path d="M233.34806,231.52169c0.97056,0 1.70441,0.19722 2.20152,0.5918c0.49711,0.39459 0.74568,0.96272 0.74568,1.70441c0,0.5523 -0.15786,1.0179 -0.47346,1.39666c-0.31557,0.37876 -0.72985,0.66283 -1.24279,0.85219l-0.04735,-0.40242c0.5918,0.11053 1.04941,0.33926 1.373,0.68648c0.33141,0.33926 0.49711,0.80486 0.49711,1.39666c0,0.718 -0.26824,1.2743 -0.80486,1.66889c-0.53662,0.3866 -1.39266,0.57996 -2.56844,0.57996c-0.718,0 -1.29013,-0.08285 -1.71624,-0.24856c-0.4261,-0.17355 -0.73384,-0.41426 -0.92322,-0.722c-0.18154,-0.30775 -0.27223,-0.65883 -0.27223,-1.05341c0,-0.60764 0.19722,-1.1086 0.5918,-1.50319c0.39459,-0.40242 0.95473,-0.67466 1.68073,-0.81669l0.03552,0.49711c-0.62332,-0.03152 -1.13228,-0.23273 -1.52687,-0.60364c-0.3866,-0.37091 -0.57996,-0.89954 -0.57996,-1.58604c0,-0.54447 0.13419,-0.99823 0.40242,-1.36116c0.26824,-0.36293 0.63131,-0.63131 1.08893,-0.80486c0.45762,-0.18154 0.97056,-0.27223 1.53871,-0.27223zM234.6027,234.04279c0,-0.2999 -0.1302,-0.51295 -0.39059,-0.63916c-0.2604,-0.12621 -0.56814,-0.18937 -0.92322,-0.18937c-0.48129,0 -0.8562,0.08685 -1.12442,0.2604c-0.2604,0.17355 -0.39059,0.40642 -0.39059,0.69833c0,0.26824 0.09868,0.47744 0.2959,0.62731c0.20521,0.14987 0.53662,0.22488 0.99424,0.22488c0.50495,0 0.88771,-0.07886 1.14811,-0.23672c0.2604,-0.15786 0.39059,-0.40642 0.39059,-0.74568zM233.30073,236.49287c-0.51295,0 -0.89954,0.10253 -1.15994,0.30775c-0.2604,0.19722 -0.39059,0.43009 -0.39059,0.69833c0,0.30775 0.11836,0.52863 0.35508,0.66283c0.24456,0.12621 0.60364,0.18937 1.07709,0.18937c0.54447,0 0.93904,-0.09069 1.18361,-0.27223c0.24456,-0.18154 0.36693,-0.41826 0.36693,-0.71017c0,-0.2604 -0.09868,-0.46946 -0.2959,-0.62731c-0.19722,-0.1657 -0.57597,-0.24856 -1.13626,-0.24856zM242.88236,239.99636c-1.08893,0 -1.88978,-0.28406 -2.40273,-0.85219c-0.50495,-0.56814 -0.75751,-1.35716 -0.75751,-2.36723c0,-0.78119 0.14987,-1.47167 0.44978,-2.07132c0.30775,-0.60764 0.74568,-1.08109 1.31382,-1.42034c0.57597,-0.34724 1.26247,-0.52078 2.05949,-0.52078c0.718,0 1.26247,0.11836 1.63339,0.35508c0.37876,0.22888 0.56814,0.52479 0.56814,0.88771c0,0.22088 -0.07101,0.39844 -0.21306,0.53263c-0.13419,0.12621 -0.33541,0.18937 -0.60364,0.18937c-0.14987,0 -0.30375,-0.02367 -0.46161,-0.07101c-0.14987,-0.04735 -0.31557,-0.09469 -0.49711,-0.14204c-0.18154,-0.04735 -0.39844,-0.07101 -0.65099,-0.07101c-0.65499,0 -1.14811,0.17355 -1.47952,0.52078c-0.32357,0.34724 -0.48528,0.8482 -0.48528,1.50319c0,0.62332 0.15786,1.07709 0.47346,1.36116c0.31557,0.27623 0.74568,0.41426 1.29013,0.41426c0.26824,0 0.50111,-0.02766 0.69833,-0.08285c0.20521,-0.06317 0.39459,-0.12237 0.56814,-0.17754c0.18154,-0.06317 0.36293,-0.09469 0.54447,-0.09469c0.18154,0 0.33141,0.05917 0.44978,0.17754c0.11836,0.11053 0.17754,0.27223 0.17754,0.48528c0,0.24456 -0.09868,0.47744 -0.2959,0.69833c-0.19722,0.22088 -0.49312,0.40242 -0.88771,0.54447c-0.39459,0.13419 -0.8917,0.20122 -1.49135,0.20122zM251.62587,234.44521c0.07886,-0.32357 0.21691,-0.61548 0.41426,-0.87588c0.20507,-0.2604 0.44978,-0.4656 0.73384,-0.61548c0.29192,-0.15786 0.61147,-0.23672 0.95872,-0.23672c0.41026,0 0.77319,0.09868 1.08893,0.2959c0.31557,0.19722 0.56415,0.52078 0.74568,0.97056c0.18937,0.44978 0.28406,1.04941 0.28406,1.79909c0,0.3866 -0.01584,0.77718 -0.04735,1.17178c-0.03167,0.39459 -0.07101,0.76149 -0.11836,1.10077c-0.04735,0.33926 -0.09868,0.62332 -0.15387,0.85219c-0.07901,0.31557 -0.20122,0.5563 -0.36693,0.722c-0.15786,0.1657 -0.35907,0.24856 -0.60364,0.24856c-0.20521,0 -0.36693,-0.09069 -0.48528,-0.27223c-0.11836,-0.18154 -0.17754,-0.44194 -0.17754,-0.78119c0,-0.15786 0.01968,-0.35907 0.05917,-0.60364c0.03936,-0.25255 0.08285,-0.52479 0.1302,-0.81669c0.04735,-0.2999 0.09069,-0.60364 0.1302,-0.91138c0.03936,-0.30775 0.05917,-0.59965 0.05917,-0.87588c0,-0.41026 -0.08285,-0.726 -0.24856,-0.94689c-0.1657,-0.22888 -0.39859,-0.34325 -0.69833,-0.34325c-0.33141,0 -0.60764,0.17355 -0.82853,0.52078c-0.21306,0.33926 -0.33939,0.83638 -0.37876,1.49135c-0.03167,0.58396 -0.05917,1.10476 -0.08285,1.56236c-0.02367,0.44978 -0.08285,0.82069 -0.17754,1.11259c-0.06317,0.20521 -0.15387,0.35907 -0.27223,0.46161c-0.11053,0.10253 -0.2604,0.15387 -0.44978,0.15387c-0.21306,0 -0.38276,-0.07886 -0.50895,-0.23672c-0.11836,-0.15786 -0.18554,-0.40642 -0.20122,-0.74568c-0.01584,-0.28406 -0.01983,-0.61948 -0.01184,-1.00608c0.00784,-0.3866 0.01184,-0.76935 0.01184,-1.14811c0.00784,-0.3866 0.00384,-0.70618 -0.01184,-0.95872c-0.03167,-0.50495 -0.12237,-0.87588 -0.27223,-1.11259c-0.14204,-0.23672 -0.35907,-0.35508 -0.65099,-0.35508c-0.33939,0 -0.61163,0.15786 -0.81669,0.47346c-0.19738,0.31557 -0.31957,0.75352 -0.36693,1.31382c-0.01584,0.22888 -0.02367,0.51295 -0.02367,0.85219c0.00784,0.33141 0.01568,0.66283 0.02367,0.99424c0.00784,0.33141 0.00384,0.60764 -0.01184,0.82853c-0.00798,0.47346 -0.08285,0.8127 -0.22488,1.0179c-0.13419,0.20521 -0.32357,0.30775 -0.56814,0.30775c-0.29206,0 -0.5051,-0.09469 -0.63916,-0.28406c-0.12636,-0.18937 -0.2092,-0.49312 -0.24856,-0.91138c-0.03167,-0.37091 -0.05533,-0.73784 -0.07101,-1.10077c-0.01584,-0.37091 -0.02367,-0.73784 -0.02367,-1.10077c0,-0.37091 0.00784,-0.77333 0.02367,-1.20729c0.02367,-0.43394 0.05518,-0.84437 0.09469,-1.23095c0.04735,-0.39459 0.1302,-0.726 0.24856,-0.99424c0.11836,-0.26824 0.31557,-0.40242 0.5918,-0.40242c0.22873,0 0.39059,0.11437 0.48528,0.34325c0.09469,0.22088 0.14204,0.56415 0.14204,1.02973c0,0.15786 -0.01184,0.30375 -0.03552,0.43794l-0.03552,-0.23672c0.15772,-0.51295 0.41026,-0.91138 0.75751,-1.19546c0.34709,-0.29192 0.73384,-0.43794 1.15994,-0.43794c0.56015,0 0.99808,0.18154 1.31382,0.54447c0.31557,0.35508 0.48913,0.8482 0.52078,1.47952z" fill="#030303" stroke="none" stroke-width="1" stroke-dasharray=""/><path d="M248.73504,182.38991c0,0.24456 -0.09469,0.44577 -0.28406,0.60364c-0.18154,0.14987 -0.44577,0.22488 -0.79301,0.22488c-0.22888,0 -0.49711,-0.00784 -0.80486,-0.02367c-0.2999,-0.02367 -0.60764,-0.05133 -0.92322,-0.08285c-0.30775,-0.0395 -0.5918,-0.07886 -0.85219,-0.11836l0.31957,-0.17754c-0.00784,0.39459 -0.04334,0.80087 -0.10653,1.21911c-0.05518,0.41826 -0.12621,0.76935 -0.21306,1.05341l-0.39059,-0.07101c0.34724,-0.04735 0.69049,-0.07101 1.02973,-0.07101c1.01007,0 1.76358,0.19722 2.26071,0.5918c0.49711,0.39459 0.74568,0.93107 0.74568,1.60972c0,0.48129 -0.11053,0.91538 -0.33141,1.30197c-0.22088,0.37876 -0.5523,0.6825 -0.99424,0.91138c-0.43394,0.22088 -0.9824,0.33141 -1.64522,0.33141c-0.60764,0 -1.08893,-0.04735 -1.44401,-0.14204c-0.34724,-0.10253 -0.5918,-0.23672 -0.73384,-0.40242c-0.14204,-0.17355 -0.21306,-0.36693 -0.21306,-0.57996c0,-0.19722 0.05518,-0.35907 0.1657,-0.48528c0.11836,-0.13419 0.28807,-0.20122 0.50895,-0.20122c0.26824,0 0.56029,0.03552 0.87588,0.10653c0.32357,0.07101 0.61948,0.10653 0.88771,0.10653c0.43394,0 0.76535,-0.07101 0.99424,-0.21306c0.23672,-0.14204 0.35508,-0.34325 0.35508,-0.60364c0,-0.30775 -0.12237,-0.53263 -0.36693,-0.67466c-0.24456,-0.14204 -0.58781,-0.21306 -1.02973,-0.21306c-0.19722,0 -0.40642,0.004 -0.62731,0.01184c-0.22088,0.00784 -0.39844,0.01184 -0.53263,0.01184c-0.2999,0 -0.52078,-0.05917 -0.66283,-0.17754c-0.13419,-0.12621 -0.20122,-0.34724 -0.20122,-0.66283c0,-0.28406 0.01184,-0.61948 0.03552,-1.00608c0.02367,-0.39459 0.05518,-0.78119 0.09469,-1.15994c0.0395,-0.3866 0.07886,-0.70232 0.11836,-0.94689c0.06317,-0.34724 0.18154,-0.61147 0.35508,-0.79301c0.17355,-0.18154 0.44194,-0.27223 0.80486,-0.27223c0.2604,0 0.5563,0.00784 0.88771,0.02367c0.33926,0.00784 0.67466,0.02766 1.00608,0.05917c0.33926,0.02367 0.63516,0.05518 0.88771,0.09469c0.54447,0.07886 0.81669,0.35109 0.81669,0.81669zM255.21546,189.69281c-1.08893,0 -1.88978,-0.28406 -2.40273,-0.85219c-0.50495,-0.56814 -0.75751,-1.35716 -0.75751,-2.36723c0,-0.78119 0.15002,-1.47167 0.44978,-2.07132c0.30775,-0.60764 0.74568,-1.08109 1.31382,-1.42034c0.57613,-0.34724 1.26263,-0.52078 2.05949,-0.52078c0.71816,0 1.26263,0.11836 1.63339,0.35508c0.37876,0.22888 0.56814,0.52479 0.56814,0.88771c0,0.22088 -0.07101,0.39844 -0.21306,0.53263c-0.13404,0.12621 -0.33525,0.18937 -0.60364,0.18937c-0.14987,0 -0.30375,-0.02367 -0.46161,-0.07101c-0.14987,-0.04735 -0.31557,-0.09469 -0.49711,-0.14204c-0.18139,-0.04735 -0.39844,-0.07101 -0.65099,-0.07101c-0.65484,0 -1.14811,0.17355 -1.47952,0.52078c-0.32343,0.34724 -0.48528,0.8482 -0.48528,1.50319c0,0.62332 0.15786,1.07709 0.47346,1.36116c0.31572,0.27623 0.74568,0.41426 1.29013,0.41426c0.26838,0 0.50111,-0.02766 0.69833,-0.08285c0.20521,-0.06317 0.39459,-0.12237 0.56814,-0.17754c0.18154,-0.06317 0.36308,-0.09469 0.54447,-0.09469c0.18154,0 0.33141,0.05917 0.44978,0.17754c0.11836,0.11053 0.17754,0.27223 0.17754,0.48528c0,0.24456 -0.09854,0.47744 -0.2959,0.69833c-0.19722,0.22088 -0.49312,0.40242 -0.88771,0.54447c-0.39445,0.13419 -0.89156,0.20122 -1.49135,0.20122zM263.95896,184.14167c0.07886,-0.32357 0.21706,-0.61548 0.41426,-0.87588c0.20521,-0.2604 0.44978,-0.4656 0.73384,-0.61548c0.29192,-0.15786 0.61147,-0.23672 0.95872,-0.23672c0.41026,0 0.77333,0.09868 1.08893,0.2959c0.31557,0.19722 0.56415,0.52078 0.74568,0.97056c0.18937,0.44978 0.28406,1.04941 0.28406,1.79909c0,0.3866 -0.01584,0.77718 -0.04735,1.17178c-0.03152,0.39459 -0.07101,0.76149 -0.11836,1.10077c-0.04735,0.33926 -0.09868,0.62332 -0.15387,0.85219c-0.07886,0.31557 -0.20122,0.5563 -0.36693,0.722c-0.15786,0.1657 -0.35907,0.24856 -0.60364,0.24856c-0.20521,0 -0.36693,-0.09069 -0.48528,-0.27223c-0.11836,-0.18154 -0.17754,-0.44194 -0.17754,-0.78119c0,-0.15786 0.01968,-0.35907 0.05917,-0.60364c0.0395,-0.25255 0.08285,-0.52479 0.1302,-0.81669c0.04735,-0.2999 0.09069,-0.60364 0.1302,-0.91138c0.0395,-0.30775 0.05917,-0.59965 0.05917,-0.87588c0,-0.41026 -0.08285,-0.726 -0.24856,-0.94689c-0.1657,-0.22888 -0.39844,-0.34325 -0.69833,-0.34325c-0.33141,0 -0.60764,0.17355 -0.82853,0.52078c-0.21306,0.33926 -0.33926,0.83638 -0.37876,1.49135c-0.03152,0.58396 -0.05917,1.10476 -0.08285,1.56236c-0.02367,0.44978 -0.08285,0.82069 -0.17754,1.11259c-0.06317,0.20521 -0.15387,0.35907 -0.27223,0.46161c-0.11053,0.10253 -0.2604,0.15387 -0.44978,0.15387c-0.21306,0 -0.38276,-0.07886 -0.50895,-0.23672c-0.11836,-0.15786 -0.18539,-0.40642 -0.20122,-0.74568c-0.01584,-0.28406 -0.01968,-0.61948 -0.01184,-1.00608c0.00784,-0.3866 0.01184,-0.76935 0.01184,-1.14811c0.00784,-0.3866 0.004,-0.70618 -0.01184,-0.95872c-0.03152,-0.50495 -0.12237,-0.87588 -0.27223,-1.11259c-0.14204,-0.23672 -0.35907,-0.35508 -0.65099,-0.35508c-0.33926,0 -0.61147,0.15786 -0.81669,0.47346c-0.19722,0.31557 -0.31957,0.75352 -0.36693,1.31382c-0.01584,0.22888 -0.02367,0.51295 -0.02367,0.85219c0.00784,0.33141 0.01584,0.66283 0.02367,0.99424c0.00784,0.33141 0.004,0.60764 -0.01184,0.82853c-0.00784,0.47346 -0.08285,0.8127 -0.22488,1.0179c-0.13419,0.20521 -0.32357,0.30775 -0.56814,0.30775c-0.29192,0 -0.50495,-0.09469 -0.63916,-0.28406c-0.12621,-0.18937 -0.20905,-0.49312 -0.24856,-0.91138c-0.03152,-0.37091 -0.05518,-0.73784 -0.07101,-1.10077c-0.01584,-0.37091 -0.02367,-0.73784 -0.02367,-1.10077c0,-0.37091 0.00784,-0.77333 0.02367,-1.20729c0.02367,-0.43394 0.05518,-0.84437 0.09469,-1.23095c0.04735,-0.39459 0.1302,-0.726 0.24856,-0.99424c0.11836,-0.26824 0.31557,-0.40242 0.5918,-0.40242c0.22888,0 0.39059,0.11437 0.48528,0.34325c0.09469,0.22088 0.14204,0.56415 0.14204,1.02973c0,0.15786 -0.01184,0.30375 -0.03552,0.43794l-0.03552,-0.23672c0.15786,-0.51295 0.41026,-0.91138 0.75751,-1.19546c0.34724,-0.29192 0.73384,-0.43794 1.15994,-0.43794c0.56029,0 0.99823,0.18154 1.31382,0.54447c0.31557,0.35508 0.48928,0.8482 0.52078,1.47952z" fill="#030303" stroke="none" stroke-width="1" stroke-dasharray=""/></g></g></svg>