<svg version="1.1" xmlns="http://www.w3.org/2000/svg" xmlns:xlink="http://www.w3.org/1999/xlink" width="69.28203" height="89.99999" viewBox="0,0,69.28203,89.99999"><g transform="translate(-205.35899,-135.00001)"><g data-paper-data="{&quot;isPaintingLayer&quot;:true}" fill-rule="nonzero" stroke="#000000" stroke-linecap="butt" stroke-linejoin="miter" stroke-miterlimit="10" stroke-dasharray="" stroke-dashoffset="0" style="mix-blend-mode: normal"><path d="M272.81715,221.27477c0,1.91864 -1.70004,3.47401 -3.79717,3.47401c-2.09713,0 -3.79718,-1.55537 -3.79718,-3.47401c0,-1.91864 1.70005,-3.47401 3.79718,-3.47401c2.09713,0 3.79717,1.55537 3.79717,3.47401z" fill="#ff0000" stroke-width="0"/><path d="M214.72273,221.4893c0,1.91864 -1.70004,3.47401 -3.79717,3.47401c-2.09713,0 -3.79718,-1.55536 -3.79718,-3.47401c0,-1.91864 1.70006,-3.47402 3.79718,-3.47402c2.09713,0 3.79717,1.55537 3.79717,3.47402z" fill="#ff0000" stroke-width="0"/><path d="M206.8154,224l33.1846,-86.21611l33.1846,86.21611z" fill="none" stroke-width="2"/></g></g></svg>