<svg width="254" height="10" viewBox="0 0 254 10" fill="none" xmlns="http://www.w3.org/2000/svg">
<path d="M1.188 8.09C1.08 8.09 0.993 8.054 0.927 7.982C0.861 7.904 0.807 7.781 0.765 7.613C0.723 7.421 0.684 7.121 0.648 6.713C0.612 6.299 0.594 5.837 0.594 5.327C0.594 4.775 0.609 4.238 0.639 3.716C0.675 3.188 0.726 2.723 0.792 2.321C0.84 2.057 0.909 1.862 0.999 1.736C1.095 1.604 1.227 1.538 1.395 1.538C1.503 1.538 1.599 1.574 1.683 1.646C1.767 1.718 1.83 1.847 1.872 2.033C1.92 2.219 1.944 2.483 1.944 2.825C1.944 2.993 1.938 3.185 1.926 3.401C1.914 3.611 1.896 3.845 1.872 4.103H1.908C2.388 3.443 2.811 2.918 3.177 2.528C3.543 2.132 3.864 1.847 4.14 1.673C4.422 1.499 4.668 1.412 4.878 1.412C5.046 1.412 5.172 1.466 5.256 1.574C5.346 1.682 5.391 1.814 5.391 1.97C5.391 2.3 5.142 2.696 4.644 3.158C4.152 3.62 3.357 4.175 2.259 4.823L2.331 4.652C3.279 5.252 3.996 5.783 4.482 6.245C4.968 6.701 5.211 7.106 5.211 7.46C5.211 7.616 5.16 7.745 5.058 7.847C4.962 7.943 4.818 7.991 4.626 7.991C4.386 7.991 4.131 7.91 3.861 7.748C3.591 7.58 3.291 7.301 2.961 6.911C2.637 6.515 2.268 5.978 1.854 5.3H1.818C1.83 5.438 1.839 5.582 1.845 5.732C1.851 5.876 1.854 6.02 1.854 6.164C1.854 6.854 1.806 7.349 1.71 7.649C1.614 7.943 1.44 8.09 1.188 8.09ZM8.67642 8.072C8.01042 8.072 7.47942 7.973 7.08342 7.775C6.68742 7.577 6.40242 7.292 6.22842 6.92C6.05442 6.548 5.96742 6.104 5.96742 5.588C5.96742 4.934 6.08742 4.379 6.32742 3.923C6.57342 3.461 6.90942 3.107 7.33542 2.861C7.76742 2.615 8.25642 2.492 8.80242 2.492C9.44442 2.492 9.91542 2.642 10.2154 2.942C10.5154 3.236 10.6654 3.623 10.6654 4.103C10.6654 4.487 10.5634 4.82 10.3594 5.102C10.1614 5.378 9.88542 5.591 9.53142 5.741C9.17742 5.891 8.76942 5.966 8.30742 5.966C8.04942 5.966 7.80042 5.933 7.56042 5.867C7.32042 5.801 7.10442 5.711 6.91242 5.597L7.12842 5.201C7.11042 5.345 7.10142 5.489 7.10142 5.633C7.10142 6.053 7.23342 6.356 7.49742 6.542C7.76142 6.722 8.13642 6.812 8.62242 6.812C9.00042 6.812 9.30342 6.779 9.53142 6.713C9.75942 6.647 9.95142 6.584 10.1074 6.524C10.2634 6.458 10.4164 6.425 10.5664 6.425C10.6504 6.425 10.7254 6.449 10.7914 6.497C10.8634 6.539 10.9204 6.602 10.9624 6.686C11.0104 6.77 11.0344 6.872 11.0344 6.992C11.0344 7.172 10.9444 7.346 10.7644 7.514C10.5844 7.676 10.3174 7.811 9.96342 7.919C9.61542 8.021 9.18642 8.072 8.67642 8.072ZM8.15442 5.129C8.58042 5.129 8.92242 5.039 9.18042 4.859C9.43842 4.679 9.56742 4.457 9.56742 4.193C9.56742 3.983 9.49542 3.812 9.35142 3.68C9.21342 3.542 8.99442 3.473 8.69442 3.473C8.41242 3.473 8.15742 3.527 7.92942 3.635C7.70742 3.737 7.53342 3.872 7.40742 4.04C7.28142 4.208 7.21842 4.391 7.21842 4.589C7.21842 4.763 7.29942 4.898 7.46142 4.994C7.62942 5.084 7.86042 5.129 8.15442 5.129ZM12.7974 8.018C12.6114 8.018 12.4644 7.976 12.3564 7.892C12.2484 7.802 12.1614 7.655 12.0954 7.451C12.0054 7.151 11.9364 6.773 11.8884 6.317C11.8464 5.855 11.8254 5.288 11.8254 4.616C11.8254 4.202 11.8404 3.788 11.8704 3.374C11.9064 2.954 11.9514 2.573 12.0054 2.231C12.0594 1.883 12.1164 1.613 12.1764 1.421C12.2424 1.217 12.3204 1.076 12.4104 0.997999C12.5004 0.92 12.6024 0.881 12.7164 0.881C12.8364 0.881 12.9324 0.923 13.0044 1.007C13.0764 1.085 13.1334 1.226 13.1754 1.43C13.2114 1.628 13.2384 1.871 13.2564 2.159C13.2804 2.447 13.2924 2.756 13.2924 3.086C13.2924 3.536 13.2714 4.01 13.2294 4.508C13.1874 5.006 13.1304 5.495 13.0584 5.975C12.9924 6.455 12.9114 6.896 12.8154 7.298L12.5634 7.172C12.7194 6.98 12.8964 6.83 13.0944 6.722C13.2984 6.614 13.4844 6.56 13.6524 6.56C13.7904 6.56 13.8954 6.599 13.9674 6.677C14.0454 6.749 14.0844 6.863 14.0844 7.019C14.0844 7.175 14.0154 7.331 13.8774 7.487C13.7454 7.643 13.5804 7.772 13.3824 7.874C13.1844 7.97 12.9894 8.018 12.7974 8.018ZM17.0885 8.027C16.6085 8.027 16.1885 7.922 15.8285 7.712C15.4745 7.496 15.1985 7.19 15.0005 6.794C14.8085 6.398 14.7125 5.927 14.7125 5.381C14.7125 4.811 14.8115 4.313 15.0095 3.887C15.2075 3.461 15.4865 3.128 15.8465 2.888C16.2125 2.648 16.6355 2.528 17.1155 2.528C17.6315 2.528 18.0785 2.645 18.4565 2.879C18.8345 3.107 19.1285 3.428 19.3385 3.842C19.5485 4.256 19.6535 4.739 19.6535 5.291C19.6535 5.855 19.5485 6.341 19.3385 6.749C19.1285 7.157 18.8315 7.472 18.4475 7.694C18.0635 7.916 17.6105 8.027 17.0885 8.027ZM17.2145 6.812C17.5865 6.812 17.8805 6.665 18.0965 6.371C18.3185 6.071 18.4295 5.675 18.4295 5.183C18.4295 4.685 18.3185 4.289 18.0965 3.995C17.8805 3.701 17.5865 3.554 17.2145 3.554C16.8305 3.554 16.5275 3.701 16.3055 3.995C16.0835 4.289 15.9725 4.685 15.9725 5.183C15.9725 5.675 16.0835 6.071 16.3055 6.371C16.5275 6.665 16.8305 6.812 17.2145 6.812ZM24.4407 3.878C24.5007 3.632 24.6057 3.41 24.7557 3.212C24.9117 3.014 25.0977 2.858 25.3137 2.744C25.5357 2.624 25.7787 2.564 26.0427 2.564C26.3547 2.564 26.6307 2.639 26.8707 2.789C27.1107 2.939 27.2997 3.185 27.4377 3.527C27.5817 3.869 27.6537 4.325 27.6537 4.895C27.6537 5.189 27.6417 5.486 27.6177 5.786C27.5937 6.086 27.5637 6.365 27.5277 6.623C27.4917 6.881 27.4527 7.097 27.4107 7.271C27.3507 7.511 27.2577 7.694 27.1317 7.82C27.0117 7.946 26.8587 8.009 26.6727 8.009C26.5167 8.009 26.3937 7.94 26.3037 7.802C26.2137 7.664 26.1687 7.466 26.1687 7.208C26.1687 7.088 26.1837 6.935 26.2137 6.749C26.2437 6.557 26.2767 6.35 26.3127 6.128C26.3487 5.9 26.3817 5.669 26.4117 5.435C26.4417 5.201 26.4567 4.979 26.4567 4.769C26.4567 4.457 26.3937 4.217 26.2677 4.049C26.1417 3.875 25.9647 3.788 25.7367 3.788C25.4847 3.788 25.2747 3.92 25.1067 4.184C24.9447 4.442 24.8487 4.82 24.8187 5.318C24.7947 5.762 24.7737 6.158 24.7557 6.506C24.7377 6.848 24.6927 7.13 24.6207 7.352C24.5727 7.508 24.5037 7.625 24.4137 7.703C24.3297 7.781 24.2157 7.82 24.0717 7.82C23.9097 7.82 23.7807 7.76 23.6847 7.64C23.5947 7.52 23.5437 7.331 23.5317 7.073C23.5197 6.857 23.5167 6.602 23.5227 6.308C23.5287 6.014 23.5317 5.723 23.5317 5.435C23.5377 5.141 23.5347 4.898 23.5227 4.706C23.4987 4.322 23.4297 4.04 23.3157 3.86C23.2077 3.68 23.0427 3.59 22.8207 3.59C22.5627 3.59 22.3557 3.71 22.1997 3.95C22.0497 4.19 21.9567 4.523 21.9207 4.949C21.9087 5.123 21.9027 5.339 21.9027 5.597C21.9087 5.849 21.9147 6.101 21.9207 6.353C21.9267 6.605 21.9237 6.815 21.9117 6.983C21.9057 7.343 21.8487 7.601 21.7407 7.757C21.6387 7.913 21.4947 7.991 21.3087 7.991C21.0867 7.991 20.9247 7.919 20.8227 7.775C20.7267 7.631 20.6637 7.4 20.6337 7.082C20.6097 6.8 20.5917 6.521 20.5797 6.245C20.5677 5.963 20.5617 5.684 20.5617 5.408C20.5617 5.126 20.5677 4.82 20.5797 4.49C20.5977 4.16 20.6217 3.848 20.6517 3.554C20.6877 3.254 20.7507 3.002 20.8407 2.798C20.9307 2.594 21.0807 2.492 21.2907 2.492C21.4647 2.492 21.5877 2.579 21.6597 2.753C21.7317 2.921 21.7677 3.182 21.7677 3.536C21.7677 3.656 21.7587 3.767 21.7407 3.869L21.7137 3.689C21.8337 3.299 22.0257 2.996 22.2897 2.78C22.5537 2.558 22.8477 2.447 23.1717 2.447C23.5977 2.447 23.9307 2.585 24.1707 2.861C24.4107 3.131 24.5427 3.506 24.5667 3.986L24.4407 3.878ZM29.3651 2.42C29.5271 2.42 29.6621 2.516 29.7701 2.708C29.8781 2.894 29.9531 3.191 29.9951 3.599L29.8061 3.77C29.9141 3.35 30.1151 3.029 30.4091 2.807C30.7031 2.585 31.0511 2.474 31.4531 2.474C31.8251 2.474 32.1551 2.57 32.4431 2.762C32.7311 2.954 32.9561 3.245 33.1181 3.635C33.2861 4.019 33.3701 4.502 33.3701 5.084C33.3701 6.026 33.1991 6.722 32.8571 7.172C32.5211 7.616 32.0621 7.838 31.4801 7.838C31.0601 7.838 30.7301 7.748 30.4901 7.568C30.2501 7.388 30.0821 7.169 29.9861 6.911L30.0941 6.857C30.1421 7.217 30.1811 7.574 30.2111 7.928C30.2471 8.276 30.2651 8.582 30.2651 8.846C30.2651 9.116 30.2171 9.344 30.1211 9.53C30.0251 9.716 29.8721 9.809 29.6621 9.809C29.4581 9.809 29.3051 9.731 29.2031 9.575C29.1011 9.419 29.0261 9.212 28.9781 8.954C28.9421 8.69 28.9061 8.351 28.8701 7.937C28.8341 7.523 28.8041 7.076 28.7801 6.596C28.7621 6.116 28.7531 5.648 28.7531 5.192C28.7531 4.724 28.7681 4.286 28.7981 3.878C28.8341 3.464 28.8761 3.128 28.9241 2.87C28.9661 2.72 29.0201 2.609 29.0861 2.537C29.1581 2.459 29.2511 2.42 29.3651 2.42ZM31.0841 3.509C30.7601 3.509 30.4991 3.671 30.3011 3.995C30.1091 4.313 30.0131 4.721 30.0131 5.219C30.0131 5.729 30.1091 6.11 30.3011 6.362C30.4991 6.614 30.7541 6.74 31.0661 6.74C31.4261 6.74 31.6841 6.599 31.8401 6.317C32.0021 6.029 32.0831 5.657 32.0831 5.201C32.0831 4.619 31.9841 4.193 31.7861 3.923C31.5881 3.647 31.3541 3.509 31.0841 3.509ZM36.4684 8.027C35.9884 8.027 35.5684 7.922 35.2084 7.712C34.8544 7.496 34.5784 7.19 34.3804 6.794C34.1884 6.398 34.0924 5.927 34.0924 5.381C34.0924 4.811 34.1914 4.313 34.3894 3.887C34.5874 3.461 34.8664 3.128 35.2264 2.888C35.5924 2.648 36.0154 2.528 36.4954 2.528C37.0114 2.528 37.4584 2.645 37.8364 2.879C38.2144 3.107 38.5084 3.428 38.7184 3.842C38.9284 4.256 39.0334 4.739 39.0334 5.291C39.0334 5.855 38.9284 6.341 38.7184 6.749C38.5084 7.157 38.2114 7.472 37.8274 7.694C37.4434 7.916 36.9904 8.027 36.4684 8.027ZM36.5944 6.812C36.9664 6.812 37.2604 6.665 37.4764 6.371C37.6984 6.071 37.8094 5.675 37.8094 5.183C37.8094 4.685 37.6984 4.289 37.4764 3.995C37.2604 3.701 36.9664 3.554 36.5944 3.554C36.2104 3.554 35.9074 3.701 35.6854 3.995C35.4634 4.289 35.3524 4.685 35.3524 5.183C35.3524 5.675 35.4634 6.071 35.6854 6.371C35.9074 6.665 36.2104 6.812 36.5944 6.812ZM40.5536 8.09C40.4396 8.09 40.3466 8.057 40.2746 7.991C40.2026 7.919 40.1516 7.817 40.1216 7.685C40.0736 7.463 40.0316 7.142 39.9956 6.722C39.9596 6.302 39.9416 5.837 39.9416 5.327C39.9416 4.697 39.9626 4.091 40.0046 3.509C40.0526 2.927 40.1126 2.45 40.1846 2.078C40.2626 1.676 40.3586 1.382 40.4726 1.196C40.5866 1.004 40.7366 0.908 40.9226 0.908C41.0906 0.908 41.2196 0.986 41.3096 1.142C41.3996 1.292 41.4446 1.553 41.4446 1.925C41.4446 2.297 41.4296 2.696 41.3996 3.122C41.3756 3.548 41.3336 4.004 41.2736 4.49H41.3096C41.6996 3.962 42.0626 3.539 42.3986 3.221C42.7406 2.903 43.0526 2.672 43.3346 2.528C43.6226 2.384 43.8776 2.312 44.0996 2.312C44.2736 2.312 44.4026 2.366 44.4866 2.474C44.5706 2.582 44.6126 2.714 44.6126 2.87C44.6126 3.176 44.3666 3.518 43.8746 3.896C43.3886 4.274 42.6866 4.661 41.7686 5.057L41.7776 4.913C42.3476 5.207 42.8366 5.516 43.2446 5.84C43.6586 6.158 43.9736 6.461 44.1896 6.749C44.4116 7.031 44.5226 7.268 44.5226 7.46C44.5226 7.616 44.4716 7.745 44.3696 7.847C44.2736 7.943 44.1326 7.991 43.9466 7.991C43.7126 7.991 43.4516 7.904 43.1636 7.73C42.8816 7.55 42.5876 7.283 42.2816 6.929C41.9756 6.575 41.6696 6.131 41.3636 5.597H41.3276C41.3216 5.975 41.2976 6.344 41.2556 6.704C41.2196 7.058 41.1716 7.349 41.1116 7.577C41.0696 7.733 41.0036 7.859 40.9136 7.955C40.8296 8.045 40.7096 8.09 40.5536 8.09ZM48.8318 1.817C49.5998 1.817 50.1728 1.982 50.5508 2.312C50.9288 2.636 51.1178 3.062 51.1178 3.59C51.1178 4.004 51.0038 4.394 50.7758 4.76C50.5538 5.12 50.1998 5.477 49.7138 5.831C49.2338 6.179 48.6068 6.545 47.8328 6.929L47.9678 6.731C49.0178 6.701 49.7648 6.752 50.2088 6.884C50.6588 7.016 50.8838 7.223 50.8838 7.505C50.8838 7.697 50.8058 7.847 50.6498 7.955C50.4998 8.063 50.2658 8.117 49.9478 8.117C49.7258 8.117 49.4768 8.105 49.2008 8.081C48.9248 8.063 48.6458 8.036 48.3638 8C48.0818 7.958 47.8178 7.91 47.5718 7.856C47.3078 7.796 47.1158 7.718 46.9958 7.622C46.8758 7.52 46.8158 7.376 46.8158 7.19C46.8158 7.058 46.8638 6.923 46.9598 6.785C47.0558 6.647 47.2148 6.482 47.4368 6.29C47.6588 6.092 47.9618 5.843 48.3458 5.543C48.7058 5.261 48.9818 5.027 49.1738 4.841C49.3718 4.655 49.5098 4.49 49.5878 4.346C49.6658 4.196 49.7048 4.046 49.7048 3.896C49.7048 3.668 49.6238 3.491 49.4618 3.365C49.3058 3.239 49.0628 3.176 48.7328 3.176C48.5768 3.176 48.4208 3.197 48.2648 3.239C48.1148 3.281 47.9618 3.323 47.8058 3.365C47.6558 3.407 47.5028 3.428 47.3468 3.428C47.1848 3.428 47.0618 3.392 46.9778 3.32C46.8938 3.248 46.8518 3.146 46.8518 3.014C46.8518 2.816 46.9328 2.627 47.0948 2.447C47.2628 2.261 47.4938 2.111 47.7878 1.997C48.0878 1.877 48.4358 1.817 48.8318 1.817ZM55.2175 2.582H55.0375C55.0195 2.318 55.0255 2.069 55.0555 1.835C55.0855 1.595 55.1485 1.403 55.2445 1.259C55.3465 1.109 55.4905 1.034 55.6765 1.034C55.8445 1.034 55.9675 1.088 56.0455 1.196C56.1235 1.304 56.1625 1.454 56.1625 1.646C56.1625 2.024 56.0905 2.348 55.9465 2.618L55.7845 2.6C56.1085 2.486 56.4745 2.429 56.8825 2.429C57.1405 2.429 57.3445 2.48 57.4945 2.582C57.6505 2.678 57.7285 2.843 57.7285 3.077C57.7285 3.299 57.6385 3.467 57.4585 3.581C57.2785 3.695 57.0535 3.752 56.7835 3.752C56.6215 3.752 56.4475 3.746 56.2615 3.734C56.0815 3.716 55.9045 3.689 55.7305 3.653L55.8835 3.464C55.9375 3.692 55.9885 3.953 56.0365 4.247C56.0905 4.535 56.1385 4.835 56.1805 5.147C56.2225 5.459 56.2555 5.762 56.2795 6.056C56.3035 6.35 56.3155 6.614 56.3155 6.848C56.3155 7.232 56.2555 7.535 56.1355 7.757C56.0155 7.979 55.8385 8.09 55.6045 8.09C55.4185 8.09 55.2715 8.033 55.1635 7.919C55.0615 7.805 54.9865 7.661 54.9385 7.487C54.8965 7.307 54.8695 7.121 54.8575 6.929C54.8515 6.737 54.8485 6.563 54.8485 6.407C54.8485 6.143 54.8605 5.846 54.8845 5.516C54.9085 5.18 54.9415 4.835 54.9835 4.481C55.0315 4.127 55.0855 3.785 55.1455 3.455L55.3255 3.608C55.0195 3.764 54.6415 3.842 54.1915 3.842C53.9155 3.842 53.7025 3.791 53.5525 3.689C53.4025 3.587 53.3275 3.428 53.3275 3.212C53.3275 2.978 53.4115 2.798 53.5795 2.672C53.7475 2.54 53.9725 2.474 54.2545 2.474C54.4405 2.474 54.6145 2.486 54.7765 2.51C54.9445 2.528 55.0915 2.552 55.2175 2.582ZM60.8922 8.072C60.2262 8.072 59.6952 7.973 59.2992 7.775C58.9032 7.577 58.6182 7.292 58.4442 6.92C58.2702 6.548 58.1832 6.104 58.1832 5.588C58.1832 4.934 58.3032 4.379 58.5432 3.923C58.7892 3.461 59.1252 3.107 59.5512 2.861C59.9832 2.615 60.4722 2.492 61.0182 2.492C61.6602 2.492 62.1312 2.642 62.4312 2.942C62.7312 3.236 62.8812 3.623 62.8812 4.103C62.8812 4.487 62.7792 4.82 62.5752 5.102C62.3772 5.378 62.1012 5.591 61.7472 5.741C61.3932 5.891 60.9852 5.966 60.5232 5.966C60.2652 5.966 60.0162 5.933 59.7762 5.867C59.5362 5.801 59.3202 5.711 59.1282 5.597L59.3442 5.201C59.3262 5.345 59.3172 5.489 59.3172 5.633C59.3172 6.053 59.4492 6.356 59.7132 6.542C59.9772 6.722 60.3522 6.812 60.8382 6.812C61.2162 6.812 61.5192 6.779 61.7472 6.713C61.9752 6.647 62.1672 6.584 62.3232 6.524C62.4792 6.458 62.6322 6.425 62.7822 6.425C62.8662 6.425 62.9412 6.449 63.0072 6.497C63.0792 6.539 63.1362 6.602 63.1782 6.686C63.2262 6.77 63.2502 6.872 63.2502 6.992C63.2502 7.172 63.1602 7.346 62.9802 7.514C62.8002 7.676 62.5332 7.811 62.1792 7.919C61.8312 8.021 61.4022 8.072 60.8922 8.072ZM60.3702 5.129C60.7962 5.129 61.1382 5.039 61.3962 4.859C61.6542 4.679 61.7832 4.457 61.7832 4.193C61.7832 3.983 61.7112 3.812 61.5672 3.68C61.4292 3.542 61.2102 3.473 60.9102 3.473C60.6282 3.473 60.3732 3.527 60.1452 3.635C59.9232 3.737 59.7492 3.872 59.6232 4.04C59.4972 4.208 59.4342 4.391 59.4342 4.589C59.4342 4.763 59.5152 4.898 59.6772 4.994C59.8452 5.084 60.0762 5.129 60.3702 5.129ZM64.0412 3.941C64.0412 3.365 64.0952 2.951 64.2032 2.699C64.3112 2.441 64.4642 2.312 64.6622 2.312C64.8182 2.312 64.9412 2.378 65.0312 2.51C65.1212 2.636 65.1872 2.795 65.2292 2.987C65.2712 3.173 65.2922 3.362 65.2922 3.554L65.2472 3.536C65.3492 3.212 65.5052 2.933 65.7152 2.699C65.9312 2.465 66.1892 2.348 66.4892 2.348C66.8432 2.348 67.1042 2.495 67.2722 2.789C67.4402 3.077 67.5242 3.437 67.5242 3.869C67.5242 4.445 67.4582 4.847 67.3262 5.075C67.1942 5.303 67.0172 5.417 66.7952 5.417C66.6332 5.417 66.5132 5.351 66.4352 5.219C66.3632 5.087 66.3392 4.853 66.3632 4.517C66.3872 4.163 66.3662 3.917 66.3002 3.779C66.2342 3.641 66.1292 3.572 65.9852 3.572C65.8112 3.572 65.6672 3.683 65.5532 3.905C65.4452 4.121 65.3912 4.388 65.3912 4.706C65.3912 4.832 65.4062 4.991 65.4362 5.183C65.4662 5.375 65.4992 5.585 65.5352 5.813C65.5712 6.035 65.6042 6.257 65.6342 6.479C65.6642 6.701 65.6792 6.905 65.6792 7.091C65.6792 7.421 65.6282 7.658 65.5262 7.802C65.4242 7.946 65.2802 8.018 65.0942 8.018C64.8842 8.018 64.7222 7.952 64.6082 7.82C64.4942 7.682 64.4072 7.46 64.3472 7.154C64.2992 6.878 64.2512 6.551 64.2032 6.173C64.1552 5.795 64.1162 5.408 64.0862 5.012C64.0562 4.616 64.0412 4.259 64.0412 3.941ZM72.2005 3.878C72.2605 3.632 72.3655 3.41 72.5155 3.212C72.6715 3.014 72.8575 2.858 73.0735 2.744C73.2955 2.624 73.5385 2.564 73.8025 2.564C74.1145 2.564 74.3905 2.639 74.6305 2.789C74.8705 2.939 75.0595 3.185 75.1975 3.527C75.3415 3.869 75.4135 4.325 75.4135 4.895C75.4135 5.189 75.4015 5.486 75.3775 5.786C75.3535 6.086 75.3235 6.365 75.2875 6.623C75.2515 6.881 75.2125 7.097 75.1705 7.271C75.1105 7.511 75.0175 7.694 74.8915 7.82C74.7715 7.946 74.6185 8.009 74.4325 8.009C74.2765 8.009 74.1535 7.94 74.0635 7.802C73.9735 7.664 73.9285 7.466 73.9285 7.208C73.9285 7.088 73.9435 6.935 73.9735 6.749C74.0035 6.557 74.0365 6.35 74.0725 6.128C74.1085 5.9 74.1415 5.669 74.1715 5.435C74.2015 5.201 74.2165 4.979 74.2165 4.769C74.2165 4.457 74.1535 4.217 74.0275 4.049C73.9015 3.875 73.7245 3.788 73.4965 3.788C73.2445 3.788 73.0345 3.92 72.8665 4.184C72.7045 4.442 72.6085 4.82 72.5785 5.318C72.5545 5.762 72.5335 6.158 72.5155 6.506C72.4975 6.848 72.4525 7.13 72.3805 7.352C72.3325 7.508 72.2635 7.625 72.1735 7.703C72.0895 7.781 71.9755 7.82 71.8315 7.82C71.6695 7.82 71.5405 7.76 71.4445 7.64C71.3545 7.52 71.3035 7.331 71.2915 7.073C71.2795 6.857 71.2765 6.602 71.2825 6.308C71.2885 6.014 71.2915 5.723 71.2915 5.435C71.2975 5.141 71.2945 4.898 71.2825 4.706C71.2585 4.322 71.1895 4.04 71.0755 3.86C70.9675 3.68 70.8025 3.59 70.5805 3.59C70.3225 3.59 70.1155 3.71 69.9595 3.95C69.8095 4.19 69.7165 4.523 69.6805 4.949C69.6685 5.123 69.6625 5.339 69.6625 5.597C69.6685 5.849 69.6745 6.101 69.6805 6.353C69.6865 6.605 69.6835 6.815 69.6715 6.983C69.6655 7.343 69.6085 7.601 69.5005 7.757C69.3985 7.913 69.2545 7.991 69.0685 7.991C68.8465 7.991 68.6845 7.919 68.5825 7.775C68.4865 7.631 68.4235 7.4 68.3935 7.082C68.3695 6.8 68.3515 6.521 68.3395 6.245C68.3275 5.963 68.3215 5.684 68.3215 5.408C68.3215 5.126 68.3275 4.82 68.3395 4.49C68.3575 4.16 68.3815 3.848 68.4115 3.554C68.4475 3.254 68.5105 3.002 68.6005 2.798C68.6905 2.594 68.8405 2.492 69.0505 2.492C69.2245 2.492 69.3475 2.579 69.4195 2.753C69.4915 2.921 69.5275 3.182 69.5275 3.536C69.5275 3.656 69.5185 3.767 69.5005 3.869L69.4735 3.689C69.5935 3.299 69.7855 2.996 70.0495 2.78C70.3135 2.558 70.6075 2.447 70.9315 2.447C71.3575 2.447 71.6905 2.585 71.9305 2.861C72.1705 3.131 72.3025 3.506 72.3265 3.986L72.2005 3.878ZM80.4459 8.09C80.2419 8.09 80.1009 8.012 80.0229 7.856C79.9509 7.694 79.9089 7.439 79.8969 7.091L79.9869 7.136C79.6509 7.79 79.0149 8.117 78.0789 8.117C77.6529 8.117 77.2989 8.042 77.0169 7.892C76.7349 7.736 76.5249 7.532 76.3869 7.28C76.2549 7.022 76.1889 6.743 76.1889 6.443C76.1889 5.927 76.3689 5.519 76.7289 5.219C77.0889 4.913 77.5659 4.76 78.1599 4.76C78.5499 4.76 78.8889 4.817 79.1769 4.931C79.4649 5.045 79.7109 5.204 79.9149 5.408L79.7619 5.39C79.7199 4.784 79.5879 4.352 79.3659 4.094C79.1499 3.83 78.8409 3.698 78.4389 3.698C78.2049 3.698 77.9889 3.734 77.7909 3.806C77.5929 3.878 77.4099 3.953 77.2419 4.031C77.0799 4.103 76.9269 4.139 76.7829 4.139C76.6389 4.139 76.5249 4.091 76.4409 3.995C76.3629 3.899 76.3239 3.776 76.3239 3.626C76.3239 3.41 76.4259 3.206 76.6299 3.014C76.8399 2.822 77.1159 2.666 77.4579 2.546C77.7999 2.426 78.1719 2.366 78.5739 2.366C79.0599 2.366 79.4769 2.483 79.8249 2.717C80.1729 2.951 80.4369 3.293 80.6169 3.743C80.7729 4.127 80.8839 4.556 80.9499 5.03C81.0159 5.504 81.0489 6.011 81.0489 6.551C81.0489 6.959 81.0279 7.274 80.9859 7.496C80.9439 7.718 80.8779 7.874 80.7879 7.964C80.7039 8.048 80.5899 8.09 80.4459 8.09ZM78.4569 7.082C78.6549 7.082 78.8559 7.055 79.0599 7.001C79.2639 6.941 79.4349 6.854 79.5729 6.74C79.7109 6.626 79.7799 6.485 79.7799 6.317C79.7799 6.173 79.7199 6.056 79.5999 5.966C79.4859 5.87 79.3329 5.798 79.1409 5.75C78.9549 5.702 78.7539 5.678 78.5379 5.678C78.1719 5.678 77.8929 5.741 77.7009 5.867C77.5149 5.993 77.4219 6.161 77.4219 6.371C77.4219 6.599 77.5089 6.776 77.6829 6.902C77.8629 7.022 78.1209 7.082 78.4569 7.082ZM84.4237 2.366C84.9577 2.366 85.3417 2.444 85.5757 2.6C85.8097 2.756 85.9267 2.957 85.9267 3.203C85.9267 3.347 85.8757 3.467 85.7737 3.563C85.6777 3.653 85.5397 3.698 85.3597 3.698C85.1737 3.698 84.9787 3.671 84.7747 3.617C84.5767 3.563 84.3457 3.536 84.0817 3.536C83.7757 3.536 83.5477 3.596 83.3977 3.716C83.2477 3.836 83.1727 3.989 83.1727 4.175C83.1727 4.349 83.2387 4.487 83.3707 4.589C83.5087 4.685 83.7697 4.757 84.1537 4.805C84.5797 4.853 84.9307 4.931 85.2067 5.039C85.4887 5.141 85.6987 5.297 85.8367 5.507C85.9747 5.711 86.0437 5.993 86.0437 6.353C86.0437 6.923 85.8427 7.346 85.4407 7.622C85.0387 7.898 84.4837 8.036 83.7757 8.036C83.3257 8.036 82.9687 8 82.7047 7.928C82.4407 7.856 82.2487 7.754 82.1287 7.622C82.0147 7.49 81.9577 7.334 81.9577 7.154C81.9577 6.998 82.0087 6.878 82.1107 6.794C82.2187 6.704 82.3447 6.659 82.4887 6.659C82.6267 6.659 82.7737 6.677 82.9297 6.713C83.0857 6.743 83.2507 6.776 83.4247 6.812C83.5987 6.848 83.7787 6.866 83.9647 6.866C84.5647 6.866 84.8647 6.68 84.8647 6.308C84.8647 6.182 84.8347 6.08 84.7747 6.002C84.7147 5.924 84.6067 5.861 84.4507 5.813C84.2947 5.759 84.0667 5.717 83.7667 5.687C83.4067 5.651 83.0947 5.591 82.8307 5.507C82.5667 5.417 82.3627 5.273 82.2187 5.075C82.0747 4.871 82.0027 4.592 82.0027 4.238C82.0027 3.68 82.2127 3.23 82.6327 2.888C83.0527 2.54 83.6497 2.366 84.4237 2.366ZM91.0043 7.946C90.8423 7.946 90.7163 7.892 90.6263 7.784C90.5423 7.67 90.4853 7.526 90.4553 7.352C90.4253 7.172 90.4103 6.983 90.4103 6.785L90.4553 6.749C90.3953 7.007 90.2783 7.229 90.1043 7.415C89.9303 7.601 89.7293 7.745 89.5013 7.847C89.2733 7.943 89.0453 7.991 88.8173 7.991C88.5113 7.991 88.2323 7.919 87.9803 7.775C87.7283 7.631 87.5333 7.409 87.3953 7.109C87.2573 6.791 87.1493 6.392 87.0713 5.912C86.9933 5.426 86.9543 4.928 86.9543 4.418C86.9543 4.142 86.9663 3.887 86.9903 3.653C87.0143 3.419 87.0533 3.227 87.1073 3.077C87.1553 2.921 87.2273 2.807 87.3233 2.735C87.4193 2.657 87.5423 2.618 87.6923 2.618C87.8663 2.618 88.0013 2.687 88.0973 2.825C88.1993 2.957 88.2623 3.143 88.2863 3.383C88.3103 3.581 88.3253 3.827 88.3313 4.121C88.3433 4.409 88.3523 4.7 88.3583 4.994C88.3703 5.282 88.3853 5.525 88.4033 5.723C88.4393 6.083 88.5323 6.35 88.6823 6.524C88.8323 6.692 89.0153 6.776 89.2313 6.776C89.5493 6.776 89.7923 6.656 89.9603 6.416C90.1283 6.176 90.2123 5.84 90.2123 5.408C90.2123 5.192 90.2003 4.949 90.1763 4.679C90.1523 4.403 90.1253 4.136 90.0953 3.878C90.0713 3.62 90.0593 3.407 90.0593 3.239C90.0593 2.957 90.1073 2.756 90.2033 2.636C90.2993 2.51 90.4313 2.447 90.5993 2.447C90.7433 2.447 90.8633 2.486 90.9593 2.564C91.0613 2.642 91.1423 2.75 91.2023 2.888C91.2863 3.068 91.3583 3.314 91.4183 3.626C91.4783 3.938 91.5263 4.292 91.5623 4.688C91.5983 5.084 91.6163 5.501 91.6163 5.939C91.6163 6.611 91.5713 7.115 91.4813 7.451C91.3913 7.781 91.2323 7.946 91.0043 7.946ZM93.3231 8.09C93.2091 8.09 93.1161 8.057 93.0441 7.991C92.9721 7.919 92.9211 7.817 92.8911 7.685C92.8431 7.463 92.8011 7.142 92.7651 6.722C92.7291 6.302 92.7111 5.837 92.7111 5.327C92.7111 4.697 92.7321 4.091 92.7741 3.509C92.8221 2.927 92.8821 2.45 92.9541 2.078C93.0321 1.676 93.1281 1.382 93.2421 1.196C93.3561 1.004 93.5061 0.908 93.6921 0.908C93.8601 0.908 93.9891 0.986 94.0791 1.142C94.1691 1.292 94.2141 1.553 94.2141 1.925C94.2141 2.297 94.1991 2.696 94.1691 3.122C94.1451 3.548 94.1031 4.004 94.0431 4.49H94.0791C94.4691 3.962 94.8321 3.539 95.1681 3.221C95.5101 2.903 95.8221 2.672 96.1041 2.528C96.3921 2.384 96.6471 2.312 96.8691 2.312C97.0431 2.312 97.1721 2.366 97.2561 2.474C97.3401 2.582 97.3821 2.714 97.3821 2.87C97.3821 3.176 97.1361 3.518 96.6441 3.896C96.1581 4.274 95.4561 4.661 94.5381 5.057L94.5471 4.913C95.1171 5.207 95.6061 5.516 96.0141 5.84C96.4281 6.158 96.7431 6.461 96.9591 6.749C97.1811 7.031 97.2921 7.268 97.2921 7.46C97.2921 7.616 97.2411 7.745 97.1391 7.847C97.0431 7.943 96.9021 7.991 96.7161 7.991C96.4821 7.991 96.2211 7.904 95.9331 7.73C95.6511 7.55 95.3571 7.283 95.0511 6.929C94.7451 6.575 94.4391 6.131 94.1331 5.597H94.0971C94.0911 5.975 94.0671 6.344 94.0251 6.704C93.9891 7.058 93.9411 7.349 93.8811 7.577C93.8391 7.733 93.7731 7.859 93.6831 7.955C93.5991 8.045 93.4791 8.09 93.3231 8.09ZM100.521 8.09C100.407 8.09 100.314 8.057 100.242 7.991C100.17 7.919 100.119 7.817 100.089 7.685C100.041 7.463 99.9994 7.142 99.9634 6.722C99.9274 6.302 99.9094 5.837 99.9094 5.327C99.9094 4.697 99.9304 4.091 99.9724 3.509C100.02 2.927 100.08 2.45 100.152 2.078C100.23 1.676 100.326 1.382 100.44 1.196C100.554 1.004 100.704 0.908 100.89 0.908C101.058 0.908 101.187 0.986 101.277 1.142C101.367 1.292 101.412 1.553 101.412 1.925C101.412 2.297 101.397 2.696 101.367 3.122C101.343 3.548 101.301 4.004 101.241 4.49H101.277C101.667 3.962 102.03 3.539 102.366 3.221C102.708 2.903 103.02 2.672 103.302 2.528C103.59 2.384 103.845 2.312 104.067 2.312C104.241 2.312 104.37 2.366 104.454 2.474C104.538 2.582 104.58 2.714 104.58 2.87C104.58 3.176 104.334 3.518 103.842 3.896C103.356 4.274 102.654 4.661 101.736 5.057L101.745 4.913C102.315 5.207 102.804 5.516 103.212 5.84C103.626 6.158 103.941 6.461 104.157 6.749C104.379 7.031 104.49 7.268 104.49 7.46C104.49 7.616 104.439 7.745 104.337 7.847C104.241 7.943 104.1 7.991 103.914 7.991C103.68 7.991 103.419 7.904 103.131 7.73C102.849 7.55 102.555 7.283 102.249 6.929C101.943 6.575 101.637 6.131 101.331 5.597H101.295C101.289 5.975 101.265 6.344 101.223 6.704C101.187 7.058 101.139 7.349 101.079 7.577C101.037 7.733 100.971 7.859 100.881 7.955C100.797 8.045 100.677 8.09 100.521 8.09ZM107.738 8.072C107.072 8.072 106.541 7.973 106.145 7.775C105.749 7.577 105.464 7.292 105.29 6.92C105.116 6.548 105.029 6.104 105.029 5.588C105.029 4.934 105.149 4.379 105.389 3.923C105.635 3.461 105.971 3.107 106.397 2.861C106.829 2.615 107.318 2.492 107.864 2.492C108.506 2.492 108.977 2.642 109.277 2.942C109.577 3.236 109.727 3.623 109.727 4.103C109.727 4.487 109.625 4.82 109.421 5.102C109.223 5.378 108.947 5.591 108.593 5.741C108.239 5.891 107.831 5.966 107.369 5.966C107.111 5.966 106.862 5.933 106.622 5.867C106.382 5.801 106.166 5.711 105.974 5.597L106.19 5.201C106.172 5.345 106.163 5.489 106.163 5.633C106.163 6.053 106.295 6.356 106.559 6.542C106.823 6.722 107.198 6.812 107.684 6.812C108.062 6.812 108.365 6.779 108.593 6.713C108.821 6.647 109.013 6.584 109.169 6.524C109.325 6.458 109.478 6.425 109.628 6.425C109.712 6.425 109.787 6.449 109.853 6.497C109.925 6.539 109.982 6.602 110.024 6.686C110.072 6.77 110.096 6.872 110.096 6.992C110.096 7.172 110.006 7.346 109.826 7.514C109.646 7.676 109.379 7.811 109.025 7.919C108.677 8.021 108.248 8.072 107.738 8.072ZM107.216 5.129C107.642 5.129 107.984 5.039 108.242 4.859C108.5 4.679 108.629 4.457 108.629 4.193C108.629 3.983 108.557 3.812 108.413 3.68C108.275 3.542 108.056 3.473 107.756 3.473C107.474 3.473 107.219 3.527 106.991 3.635C106.769 3.737 106.595 3.872 106.469 4.04C106.343 4.208 106.28 4.391 106.28 4.589C106.28 4.763 106.361 4.898 106.523 4.994C106.691 5.084 106.922 5.129 107.216 5.129ZM114.372 8.126C113.784 8.126 113.325 7.907 112.995 7.469C112.665 7.025 112.5 6.35 112.5 5.444C112.5 4.544 112.662 3.887 112.986 3.473C113.316 3.053 113.787 2.843 114.399 2.843C114.747 2.843 115.05 2.915 115.308 3.059C115.572 3.203 115.806 3.407 116.01 3.671L115.938 3.707C115.884 3.461 115.83 3.2 115.776 2.924C115.722 2.648 115.677 2.387 115.641 2.141C115.611 1.889 115.596 1.691 115.596 1.547C115.596 1.343 115.629 1.187 115.695 1.079C115.761 0.965 115.866 0.908 116.01 0.908C116.214 0.908 116.379 0.995 116.505 1.169C116.631 1.337 116.736 1.598 116.82 1.952C116.898 2.27 116.967 2.648 117.027 3.086C117.087 3.518 117.135 3.971 117.171 4.445C117.213 4.913 117.234 5.363 117.234 5.795C117.234 6.395 117.201 6.863 117.135 7.199C117.075 7.529 116.988 7.76 116.874 7.892C116.766 8.024 116.637 8.09 116.487 8.09C116.301 8.09 116.175 7.997 116.109 7.811C116.043 7.625 116.016 7.322 116.028 6.902H116.163C116.001 7.274 115.764 7.571 115.452 7.793C115.146 8.015 114.786 8.126 114.372 8.126ZM114.849 7.01C115.065 7.01 115.263 6.956 115.443 6.848C115.629 6.734 115.776 6.56 115.884 6.326C115.998 6.092 116.055 5.795 116.055 5.435C116.055 4.973 115.95 4.598 115.74 4.31C115.53 4.016 115.227 3.869 114.831 3.869C114.519 3.869 114.264 3.998 114.066 4.256C113.874 4.514 113.778 4.904 113.778 5.426C113.778 5.888 113.874 6.269 114.066 6.569C114.264 6.863 114.525 7.01 114.849 7.01ZM122.264 8.09C122.06 8.09 121.919 8.012 121.841 7.856C121.769 7.694 121.727 7.439 121.715 7.091L121.805 7.136C121.469 7.79 120.833 8.117 119.897 8.117C119.471 8.117 119.117 8.042 118.835 7.892C118.553 7.736 118.343 7.532 118.205 7.28C118.073 7.022 118.007 6.743 118.007 6.443C118.007 5.927 118.187 5.519 118.547 5.219C118.907 4.913 119.384 4.76 119.978 4.76C120.368 4.76 120.707 4.817 120.995 4.931C121.283 5.045 121.529 5.204 121.733 5.408L121.58 5.39C121.538 4.784 121.406 4.352 121.184 4.094C120.968 3.83 120.659 3.698 120.257 3.698C120.023 3.698 119.807 3.734 119.609 3.806C119.411 3.878 119.228 3.953 119.06 4.031C118.898 4.103 118.745 4.139 118.601 4.139C118.457 4.139 118.343 4.091 118.259 3.995C118.181 3.899 118.142 3.776 118.142 3.626C118.142 3.41 118.244 3.206 118.448 3.014C118.658 2.822 118.934 2.666 119.276 2.546C119.618 2.426 119.99 2.366 120.392 2.366C120.878 2.366 121.295 2.483 121.643 2.717C121.991 2.951 122.255 3.293 122.435 3.743C122.591 4.127 122.702 4.556 122.768 5.03C122.834 5.504 122.867 6.011 122.867 6.551C122.867 6.959 122.846 7.274 122.804 7.496C122.762 7.718 122.696 7.874 122.606 7.964C122.522 8.048 122.408 8.09 122.264 8.09ZM120.275 7.082C120.473 7.082 120.674 7.055 120.878 7.001C121.082 6.941 121.253 6.854 121.391 6.74C121.529 6.626 121.598 6.485 121.598 6.317C121.598 6.173 121.538 6.056 121.418 5.966C121.304 5.87 121.151 5.798 120.959 5.75C120.773 5.702 120.572 5.678 120.356 5.678C119.99 5.678 119.711 5.741 119.519 5.867C119.333 5.993 119.24 6.161 119.24 6.371C119.24 6.599 119.327 6.776 119.501 6.902C119.681 7.022 119.939 7.082 120.275 7.082ZM124.937 8.018C124.751 8.018 124.604 7.976 124.496 7.892C124.388 7.802 124.301 7.655 124.235 7.451C124.145 7.151 124.076 6.773 124.028 6.317C123.986 5.855 123.965 5.288 123.965 4.616C123.965 4.202 123.98 3.788 124.01 3.374C124.046 2.954 124.091 2.573 124.145 2.231C124.199 1.883 124.256 1.613 124.316 1.421C124.382 1.217 124.46 1.076 124.55 0.997999C124.64 0.92 124.742 0.881 124.856 0.881C124.976 0.881 125.072 0.923 125.144 1.007C125.216 1.085 125.273 1.226 125.315 1.43C125.351 1.628 125.378 1.871 125.396 2.159C125.42 2.447 125.432 2.756 125.432 3.086C125.432 3.536 125.411 4.01 125.369 4.508C125.327 5.006 125.27 5.495 125.198 5.975C125.132 6.455 125.051 6.896 124.955 7.298L124.703 7.172C124.859 6.98 125.036 6.83 125.234 6.722C125.438 6.614 125.624 6.56 125.792 6.56C125.93 6.56 126.035 6.599 126.107 6.677C126.185 6.749 126.224 6.863 126.224 7.019C126.224 7.175 126.155 7.331 126.017 7.487C125.885 7.643 125.72 7.772 125.522 7.874C125.324 7.97 125.129 8.018 124.937 8.018ZM130.974 8.09C130.77 8.09 130.629 8.012 130.551 7.856C130.479 7.694 130.437 7.439 130.425 7.091L130.515 7.136C130.179 7.79 129.543 8.117 128.607 8.117C128.181 8.117 127.827 8.042 127.545 7.892C127.263 7.736 127.053 7.532 126.915 7.28C126.783 7.022 126.717 6.743 126.717 6.443C126.717 5.927 126.897 5.519 127.257 5.219C127.617 4.913 128.094 4.76 128.688 4.76C129.078 4.76 129.417 4.817 129.705 4.931C129.993 5.045 130.239 5.204 130.443 5.408L130.29 5.39C130.248 4.784 130.116 4.352 129.894 4.094C129.678 3.83 129.369 3.698 128.967 3.698C128.733 3.698 128.517 3.734 128.319 3.806C128.121 3.878 127.938 3.953 127.77 4.031C127.608 4.103 127.455 4.139 127.311 4.139C127.167 4.139 127.053 4.091 126.969 3.995C126.891 3.899 126.852 3.776 126.852 3.626C126.852 3.41 126.954 3.206 127.158 3.014C127.368 2.822 127.644 2.666 127.986 2.546C128.328 2.426 128.7 2.366 129.102 2.366C129.588 2.366 130.005 2.483 130.353 2.717C130.701 2.951 130.965 3.293 131.145 3.743C131.301 4.127 131.412 4.556 131.478 5.03C131.544 5.504 131.577 6.011 131.577 6.551C131.577 6.959 131.556 7.274 131.514 7.496C131.472 7.718 131.406 7.874 131.316 7.964C131.232 8.048 131.118 8.09 130.974 8.09ZM128.985 7.082C129.183 7.082 129.384 7.055 129.588 7.001C129.792 6.941 129.963 6.854 130.101 6.74C130.239 6.626 130.308 6.485 130.308 6.317C130.308 6.173 130.248 6.056 130.128 5.966C130.014 5.87 129.861 5.798 129.669 5.75C129.483 5.702 129.282 5.678 129.066 5.678C128.7 5.678 128.421 5.741 128.229 5.867C128.043 5.993 127.95 6.161 127.95 6.371C127.95 6.599 128.037 6.776 128.211 6.902C128.391 7.022 128.649 7.082 128.985 7.082ZM136.554 3.878C136.614 3.632 136.719 3.41 136.869 3.212C137.025 3.014 137.211 2.858 137.427 2.744C137.649 2.624 137.892 2.564 138.156 2.564C138.468 2.564 138.744 2.639 138.984 2.789C139.224 2.939 139.413 3.185 139.551 3.527C139.695 3.869 139.767 4.325 139.767 4.895C139.767 5.189 139.755 5.486 139.731 5.786C139.707 6.086 139.677 6.365 139.641 6.623C139.605 6.881 139.566 7.097 139.524 7.271C139.464 7.511 139.371 7.694 139.245 7.82C139.125 7.946 138.972 8.009 138.786 8.009C138.63 8.009 138.507 7.94 138.417 7.802C138.327 7.664 138.282 7.466 138.282 7.208C138.282 7.088 138.297 6.935 138.327 6.749C138.357 6.557 138.39 6.35 138.426 6.128C138.462 5.9 138.495 5.669 138.525 5.435C138.555 5.201 138.57 4.979 138.57 4.769C138.57 4.457 138.507 4.217 138.381 4.049C138.255 3.875 138.078 3.788 137.85 3.788C137.598 3.788 137.388 3.92 137.22 4.184C137.058 4.442 136.962 4.82 136.932 5.318C136.908 5.762 136.887 6.158 136.869 6.506C136.851 6.848 136.806 7.13 136.734 7.352C136.686 7.508 136.617 7.625 136.527 7.703C136.443 7.781 136.329 7.82 136.185 7.82C136.023 7.82 135.894 7.76 135.798 7.64C135.708 7.52 135.657 7.331 135.645 7.073C135.633 6.857 135.63 6.602 135.636 6.308C135.642 6.014 135.645 5.723 135.645 5.435C135.651 5.141 135.648 4.898 135.636 4.706C135.612 4.322 135.543 4.04 135.429 3.86C135.321 3.68 135.156 3.59 134.934 3.59C134.676 3.59 134.469 3.71 134.313 3.95C134.163 4.19 134.07 4.523 134.034 4.949C134.022 5.123 134.016 5.339 134.016 5.597C134.022 5.849 134.028 6.101 134.034 6.353C134.04 6.605 134.037 6.815 134.025 6.983C134.019 7.343 133.962 7.601 133.854 7.757C133.752 7.913 133.608 7.991 133.422 7.991C133.2 7.991 133.038 7.919 132.936 7.775C132.84 7.631 132.777 7.4 132.747 7.082C132.723 6.8 132.705 6.521 132.693 6.245C132.681 5.963 132.675 5.684 132.675 5.408C132.675 5.126 132.681 4.82 132.693 4.49C132.711 4.16 132.735 3.848 132.765 3.554C132.801 3.254 132.864 3.002 132.954 2.798C133.044 2.594 133.194 2.492 133.404 2.492C133.578 2.492 133.701 2.579 133.773 2.753C133.845 2.921 133.881 3.182 133.881 3.536C133.881 3.656 133.872 3.767 133.854 3.869L133.827 3.689C133.947 3.299 134.139 2.996 134.403 2.78C134.667 2.558 134.961 2.447 135.285 2.447C135.711 2.447 136.044 2.585 136.284 2.861C136.524 3.131 136.656 3.506 136.68 3.986L136.554 3.878ZM143.352 8.09C143.22 8.09 143.112 8.045 143.028 7.955C142.95 7.865 142.887 7.736 142.839 7.568C142.791 7.322 142.749 7.001 142.713 6.605C142.683 6.203 142.668 5.774 142.668 5.318C142.668 5.06 142.674 4.769 142.686 4.445C142.698 4.121 142.713 3.794 142.731 3.464C142.755 3.128 142.779 2.816 142.803 2.528C142.833 2.24 142.863 2.006 142.893 1.826C142.941 1.562 143.01 1.355 143.1 1.205C143.196 1.049 143.346 0.971 143.55 0.971C143.76 0.971 143.913 1.052 144.009 1.214C144.105 1.37 144.153 1.565 144.153 1.799C144.153 2.063 144.132 2.375 144.09 2.735C144.054 3.095 143.997 3.461 143.919 3.833L143.739 4.049C143.805 3.797 143.913 3.566 144.063 3.356C144.213 3.146 144.402 2.981 144.63 2.861C144.858 2.735 145.122 2.672 145.422 2.672C146.01 2.672 146.478 2.882 146.826 3.302C147.18 3.716 147.357 4.364 147.357 5.246C147.357 5.864 147.264 6.38 147.078 6.794C146.898 7.208 146.649 7.52 146.331 7.73C146.019 7.934 145.662 8.036 145.26 8.036C144.882 8.036 144.555 7.925 144.279 7.703C144.009 7.481 143.835 7.16 143.757 6.74L143.883 6.839C143.859 7.271 143.799 7.589 143.703 7.793C143.613 7.991 143.496 8.09 143.352 8.09ZM144.999 6.992C145.299 6.992 145.563 6.857 145.791 6.587C146.019 6.317 146.133 5.894 146.133 5.318C146.133 4.838 146.043 4.448 145.863 4.148C145.689 3.848 145.395 3.698 144.981 3.698C144.645 3.698 144.375 3.833 144.171 4.103C143.967 4.367 143.865 4.769 143.865 5.309C143.865 5.801 143.967 6.206 144.171 6.524C144.375 6.836 144.651 6.992 144.999 6.992ZM152.2 8.09C151.996 8.09 151.855 8.012 151.777 7.856C151.705 7.694 151.663 7.439 151.651 7.091L151.741 7.136C151.405 7.79 150.769 8.117 149.833 8.117C149.407 8.117 149.053 8.042 148.771 7.892C148.489 7.736 148.279 7.532 148.141 7.28C148.009 7.022 147.943 6.743 147.943 6.443C147.943 5.927 148.123 5.519 148.483 5.219C148.843 4.913 149.32 4.76 149.914 4.76C150.304 4.76 150.643 4.817 150.931 4.931C151.219 5.045 151.465 5.204 151.669 5.408L151.516 5.39C151.474 4.784 151.342 4.352 151.12 4.094C150.904 3.83 150.595 3.698 150.193 3.698C149.959 3.698 149.743 3.734 149.545 3.806C149.347 3.878 149.164 3.953 148.996 4.031C148.834 4.103 148.681 4.139 148.537 4.139C148.393 4.139 148.279 4.091 148.195 3.995C148.117 3.899 148.078 3.776 148.078 3.626C148.078 3.41 148.18 3.206 148.384 3.014C148.594 2.822 148.87 2.666 149.212 2.546C149.554 2.426 149.926 2.366 150.328 2.366C150.814 2.366 151.231 2.483 151.579 2.717C151.927 2.951 152.191 3.293 152.371 3.743C152.527 4.127 152.638 4.556 152.704 5.03C152.77 5.504 152.803 6.011 152.803 6.551C152.803 6.959 152.782 7.274 152.74 7.496C152.698 7.718 152.632 7.874 152.542 7.964C152.458 8.048 152.344 8.09 152.2 8.09ZM150.211 7.082C150.409 7.082 150.61 7.055 150.814 7.001C151.018 6.941 151.189 6.854 151.327 6.74C151.465 6.626 151.534 6.485 151.534 6.317C151.534 6.173 151.474 6.056 151.354 5.966C151.24 5.87 151.087 5.798 150.895 5.75C150.709 5.702 150.508 5.678 150.292 5.678C149.926 5.678 149.647 5.741 149.455 5.867C149.269 5.993 149.176 6.161 149.176 6.371C149.176 6.599 149.263 6.776 149.437 6.902C149.617 7.022 149.875 7.082 150.211 7.082ZM154.819 2.402C155.011 2.402 155.14 2.48 155.206 2.636C155.278 2.792 155.314 3.023 155.314 3.329C155.314 3.401 155.308 3.479 155.296 3.563C155.29 3.641 155.278 3.713 155.26 3.779L155.242 3.599C155.386 3.209 155.608 2.906 155.908 2.69C156.208 2.468 156.526 2.357 156.862 2.357C157.234 2.357 157.543 2.462 157.789 2.672C158.041 2.882 158.227 3.176 158.347 3.554C158.473 3.932 158.536 4.379 158.536 4.895C158.536 5.213 158.521 5.528 158.491 5.84C158.467 6.146 158.431 6.428 158.383 6.686C158.341 6.938 158.293 7.145 158.239 7.307C158.167 7.511 158.074 7.664 157.96 7.766C157.846 7.862 157.711 7.91 157.555 7.91C157.399 7.91 157.279 7.853 157.195 7.739C157.111 7.625 157.069 7.472 157.069 7.28C157.069 7.076 157.084 6.83 157.114 6.542C157.144 6.248 157.171 5.951 157.195 5.651C157.225 5.345 157.24 5.069 157.24 4.823C157.24 3.983 156.964 3.563 156.412 3.563C156.118 3.563 155.872 3.695 155.674 3.959C155.476 4.217 155.344 4.586 155.278 5.066C155.26 5.228 155.251 5.429 155.251 5.669C155.251 5.909 155.251 6.149 155.251 6.389C155.257 6.623 155.251 6.821 155.233 6.983C155.209 7.343 155.14 7.601 155.026 7.757C154.918 7.913 154.768 7.991 154.576 7.991C154.354 7.991 154.186 7.889 154.072 7.685C153.958 7.475 153.901 7.124 153.901 6.632C153.901 6.38 153.907 6.098 153.919 5.786C153.931 5.474 153.946 5.162 153.964 4.85C153.988 4.532 154.015 4.244 154.045 3.986C154.105 3.5 154.192 3.116 154.306 2.834C154.42 2.546 154.591 2.402 154.819 2.402ZM161.35 7.856C160.786 7.856 160.327 7.64 159.973 7.208C159.619 6.77 159.442 6.107 159.442 5.219C159.442 4.271 159.613 3.578 159.955 3.14C160.297 2.702 160.747 2.483 161.305 2.483C161.635 2.483 161.926 2.567 162.178 2.735C162.43 2.903 162.646 3.14 162.826 3.446L162.754 3.572C162.736 3.488 162.721 3.398 162.709 3.302C162.697 3.206 162.691 3.134 162.691 3.086C162.691 2.84 162.73 2.651 162.808 2.519C162.892 2.381 163.021 2.312 163.195 2.312C163.387 2.312 163.537 2.39 163.645 2.546C163.759 2.702 163.846 2.924 163.906 3.212C163.984 3.506 164.05 3.881 164.104 4.337C164.158 4.787 164.185 5.243 164.185 5.705C164.185 6.281 164.164 6.764 164.122 7.154C164.08 7.544 164.011 7.868 163.915 8.126C163.819 8.384 163.693 8.609 163.537 8.801C163.279 9.113 162.946 9.35 162.538 9.512C162.136 9.68 161.671 9.764 161.143 9.764C160.765 9.764 160.462 9.728 160.234 9.656C160.006 9.59 159.841 9.497 159.739 9.377C159.643 9.263 159.595 9.134 159.595 8.99C159.595 8.84 159.637 8.714 159.721 8.612C159.805 8.516 159.931 8.468 160.099 8.468C160.249 8.468 160.423 8.492 160.621 8.54C160.825 8.588 161.065 8.612 161.341 8.612C161.923 8.612 162.334 8.474 162.574 8.198C162.82 7.928 162.943 7.538 162.943 7.028C162.943 6.89 162.934 6.728 162.916 6.542L163.042 6.587C162.892 6.971 162.67 7.28 162.376 7.514C162.082 7.742 161.74 7.856 161.35 7.856ZM161.692 6.749C161.884 6.749 162.076 6.698 162.268 6.596C162.46 6.494 162.619 6.326 162.745 6.092C162.871 5.858 162.934 5.543 162.934 5.147C162.934 4.673 162.823 4.286 162.601 3.986C162.379 3.686 162.067 3.536 161.665 3.536C161.317 3.536 161.062 3.668 160.9 3.932C160.738 4.196 160.657 4.595 160.657 5.129C160.657 5.639 160.738 6.038 160.9 6.326C161.062 6.608 161.326 6.749 161.692 6.749ZM169.332 7.946C169.17 7.946 169.044 7.892 168.954 7.784C168.87 7.67 168.813 7.526 168.783 7.352C168.753 7.172 168.738 6.983 168.738 6.785L168.783 6.749C168.723 7.007 168.606 7.229 168.432 7.415C168.258 7.601 168.057 7.745 167.829 7.847C167.601 7.943 167.373 7.991 167.145 7.991C166.839 7.991 166.56 7.919 166.308 7.775C166.056 7.631 165.861 7.409 165.723 7.109C165.585 6.791 165.477 6.392 165.399 5.912C165.321 5.426 165.282 4.928 165.282 4.418C165.282 4.142 165.294 3.887 165.318 3.653C165.342 3.419 165.381 3.227 165.435 3.077C165.483 2.921 165.555 2.807 165.651 2.735C165.747 2.657 165.87 2.618 166.02 2.618C166.194 2.618 166.329 2.687 166.425 2.825C166.527 2.957 166.59 3.143 166.614 3.383C166.638 3.581 166.653 3.827 166.659 4.121C166.671 4.409 166.68 4.7 166.686 4.994C166.698 5.282 166.713 5.525 166.731 5.723C166.767 6.083 166.86 6.35 167.01 6.524C167.16 6.692 167.343 6.776 167.559 6.776C167.877 6.776 168.12 6.656 168.288 6.416C168.456 6.176 168.54 5.84 168.54 5.408C168.54 5.192 168.528 4.949 168.504 4.679C168.48 4.403 168.453 4.136 168.423 3.878C168.399 3.62 168.387 3.407 168.387 3.239C168.387 2.957 168.435 2.756 168.531 2.636C168.627 2.51 168.759 2.447 168.927 2.447C169.071 2.447 169.191 2.486 169.287 2.564C169.389 2.642 169.47 2.75 169.53 2.888C169.614 3.068 169.686 3.314 169.746 3.626C169.806 3.938 169.854 4.292 169.89 4.688C169.926 5.084 169.944 5.501 169.944 5.939C169.944 6.611 169.899 7.115 169.809 7.451C169.719 7.781 169.56 7.946 169.332 7.946ZM171.957 2.402C172.149 2.402 172.278 2.48 172.344 2.636C172.416 2.792 172.452 3.023 172.452 3.329C172.452 3.401 172.446 3.479 172.434 3.563C172.428 3.641 172.416 3.713 172.398 3.779L172.38 3.599C172.524 3.209 172.746 2.906 173.046 2.69C173.346 2.468 173.664 2.357 174 2.357C174.372 2.357 174.681 2.462 174.927 2.672C175.179 2.882 175.365 3.176 175.485 3.554C175.611 3.932 175.674 4.379 175.674 4.895C175.674 5.213 175.659 5.528 175.629 5.84C175.605 6.146 175.569 6.428 175.521 6.686C175.479 6.938 175.431 7.145 175.377 7.307C175.305 7.511 175.212 7.664 175.098 7.766C174.984 7.862 174.849 7.91 174.693 7.91C174.537 7.91 174.417 7.853 174.333 7.739C174.249 7.625 174.207 7.472 174.207 7.28C174.207 7.076 174.222 6.83 174.252 6.542C174.282 6.248 174.309 5.951 174.333 5.651C174.363 5.345 174.378 5.069 174.378 4.823C174.378 3.983 174.102 3.563 173.55 3.563C173.256 3.563 173.01 3.695 172.812 3.959C172.614 4.217 172.482 4.586 172.416 5.066C172.398 5.228 172.389 5.429 172.389 5.669C172.389 5.909 172.389 6.149 172.389 6.389C172.395 6.623 172.389 6.821 172.371 6.983C172.347 7.343 172.278 7.601 172.164 7.757C172.056 7.913 171.906 7.991 171.714 7.991C171.492 7.991 171.324 7.889 171.21 7.685C171.096 7.475 171.039 7.124 171.039 6.632C171.039 6.38 171.045 6.098 171.057 5.786C171.069 5.474 171.084 5.162 171.102 4.85C171.126 4.532 171.153 4.244 171.183 3.986C171.243 3.5 171.33 3.116 171.444 2.834C171.558 2.546 171.729 2.402 171.957 2.402ZM180.254 8.126C179.666 8.126 179.207 7.907 178.877 7.469C178.547 7.025 178.382 6.35 178.382 5.444C178.382 4.544 178.544 3.887 178.868 3.473C179.198 3.053 179.669 2.843 180.281 2.843C180.629 2.843 180.932 2.915 181.19 3.059C181.454 3.203 181.688 3.407 181.892 3.671L181.82 3.707C181.766 3.461 181.712 3.2 181.658 2.924C181.604 2.648 181.559 2.387 181.523 2.141C181.493 1.889 181.478 1.691 181.478 1.547C181.478 1.343 181.511 1.187 181.577 1.079C181.643 0.965 181.748 0.908 181.892 0.908C182.096 0.908 182.261 0.995 182.387 1.169C182.513 1.337 182.618 1.598 182.702 1.952C182.78 2.27 182.849 2.648 182.909 3.086C182.969 3.518 183.017 3.971 183.053 4.445C183.095 4.913 183.116 5.363 183.116 5.795C183.116 6.395 183.083 6.863 183.017 7.199C182.957 7.529 182.87 7.76 182.756 7.892C182.648 8.024 182.519 8.09 182.369 8.09C182.183 8.09 182.057 7.997 181.991 7.811C181.925 7.625 181.898 7.322 181.91 6.902H182.045C181.883 7.274 181.646 7.571 181.334 7.793C181.028 8.015 180.668 8.126 180.254 8.126ZM180.731 7.01C180.947 7.01 181.145 6.956 181.325 6.848C181.511 6.734 181.658 6.56 181.766 6.326C181.88 6.092 181.937 5.795 181.937 5.435C181.937 4.973 181.832 4.598 181.622 4.31C181.412 4.016 181.109 3.869 180.713 3.869C180.401 3.869 180.146 3.998 179.948 4.256C179.756 4.514 179.66 4.904 179.66 5.426C179.66 5.888 179.756 6.269 179.948 6.569C180.146 6.863 180.407 7.01 180.731 7.01ZM188.147 8.09C187.943 8.09 187.802 8.012 187.724 7.856C187.652 7.694 187.61 7.439 187.598 7.091L187.688 7.136C187.352 7.79 186.716 8.117 185.78 8.117C185.354 8.117 185 8.042 184.718 7.892C184.436 7.736 184.226 7.532 184.088 7.28C183.956 7.022 183.89 6.743 183.89 6.443C183.89 5.927 184.07 5.519 184.43 5.219C184.79 4.913 185.267 4.76 185.861 4.76C186.251 4.76 186.59 4.817 186.878 4.931C187.166 5.045 187.412 5.204 187.616 5.408L187.463 5.39C187.421 4.784 187.289 4.352 187.067 4.094C186.851 3.83 186.542 3.698 186.14 3.698C185.906 3.698 185.69 3.734 185.492 3.806C185.294 3.878 185.111 3.953 184.943 4.031C184.781 4.103 184.628 4.139 184.484 4.139C184.34 4.139 184.226 4.091 184.142 3.995C184.064 3.899 184.025 3.776 184.025 3.626C184.025 3.41 184.127 3.206 184.331 3.014C184.541 2.822 184.817 2.666 185.159 2.546C185.501 2.426 185.873 2.366 186.275 2.366C186.761 2.366 187.178 2.483 187.526 2.717C187.874 2.951 188.138 3.293 188.318 3.743C188.474 4.127 188.585 4.556 188.651 5.03C188.717 5.504 188.75 6.011 188.75 6.551C188.75 6.959 188.729 7.274 188.687 7.496C188.645 7.718 188.579 7.874 188.489 7.964C188.405 8.048 188.291 8.09 188.147 8.09ZM186.158 7.082C186.356 7.082 186.557 7.055 186.761 7.001C186.965 6.941 187.136 6.854 187.274 6.74C187.412 6.626 187.481 6.485 187.481 6.317C187.481 6.173 187.421 6.056 187.301 5.966C187.187 5.87 187.034 5.798 186.842 5.75C186.656 5.702 186.455 5.678 186.239 5.678C185.873 5.678 185.594 5.741 185.402 5.867C185.216 5.993 185.123 6.161 185.123 6.371C185.123 6.599 185.21 6.776 185.384 6.902C185.564 7.022 185.822 7.082 186.158 7.082ZM191.096 2.582H190.916C190.898 2.318 190.904 2.069 190.934 1.835C190.964 1.595 191.027 1.403 191.123 1.259C191.225 1.109 191.369 1.034 191.555 1.034C191.723 1.034 191.846 1.088 191.924 1.196C192.002 1.304 192.041 1.454 192.041 1.646C192.041 2.024 191.969 2.348 191.825 2.618L191.663 2.6C191.987 2.486 192.353 2.429 192.761 2.429C193.019 2.429 193.223 2.48 193.373 2.582C193.529 2.678 193.607 2.843 193.607 3.077C193.607 3.299 193.517 3.467 193.337 3.581C193.157 3.695 192.932 3.752 192.662 3.752C192.5 3.752 192.326 3.746 192.14 3.734C191.96 3.716 191.783 3.689 191.609 3.653L191.762 3.464C191.816 3.692 191.867 3.953 191.915 4.247C191.969 4.535 192.017 4.835 192.059 5.147C192.101 5.459 192.134 5.762 192.158 6.056C192.182 6.35 192.194 6.614 192.194 6.848C192.194 7.232 192.134 7.535 192.014 7.757C191.894 7.979 191.717 8.09 191.483 8.09C191.297 8.09 191.15 8.033 191.042 7.919C190.94 7.805 190.865 7.661 190.817 7.487C190.775 7.307 190.748 7.121 190.736 6.929C190.73 6.737 190.727 6.563 190.727 6.407C190.727 6.143 190.739 5.846 190.763 5.516C190.787 5.18 190.82 4.835 190.862 4.481C190.91 4.127 190.964 3.785 191.024 3.455L191.204 3.608C190.898 3.764 190.52 3.842 190.07 3.842C189.794 3.842 189.581 3.791 189.431 3.689C189.281 3.587 189.206 3.428 189.206 3.212C189.206 2.978 189.29 2.798 189.458 2.672C189.626 2.54 189.851 2.474 190.133 2.474C190.319 2.474 190.493 2.486 190.655 2.51C190.823 2.528 190.97 2.552 191.096 2.582ZM198.272 8.09C198.068 8.09 197.927 8.012 197.849 7.856C197.777 7.694 197.735 7.439 197.723 7.091L197.813 7.136C197.477 7.79 196.841 8.117 195.905 8.117C195.479 8.117 195.125 8.042 194.843 7.892C194.561 7.736 194.351 7.532 194.213 7.28C194.081 7.022 194.015 6.743 194.015 6.443C194.015 5.927 194.195 5.519 194.555 5.219C194.915 4.913 195.392 4.76 195.986 4.76C196.376 4.76 196.715 4.817 197.003 4.931C197.291 5.045 197.537 5.204 197.741 5.408L197.588 5.39C197.546 4.784 197.414 4.352 197.192 4.094C196.976 3.83 196.667 3.698 196.265 3.698C196.031 3.698 195.815 3.734 195.617 3.806C195.419 3.878 195.236 3.953 195.068 4.031C194.906 4.103 194.753 4.139 194.609 4.139C194.465 4.139 194.351 4.091 194.267 3.995C194.189 3.899 194.15 3.776 194.15 3.626C194.15 3.41 194.252 3.206 194.456 3.014C194.666 2.822 194.942 2.666 195.284 2.546C195.626 2.426 195.998 2.366 196.4 2.366C196.886 2.366 197.303 2.483 197.651 2.717C197.999 2.951 198.263 3.293 198.443 3.743C198.599 4.127 198.71 4.556 198.776 5.03C198.842 5.504 198.875 6.011 198.875 6.551C198.875 6.959 198.854 7.274 198.812 7.496C198.77 7.718 198.704 7.874 198.614 7.964C198.53 8.048 198.416 8.09 198.272 8.09ZM196.283 7.082C196.481 7.082 196.682 7.055 196.886 7.001C197.09 6.941 197.261 6.854 197.399 6.74C197.537 6.626 197.606 6.485 197.606 6.317C197.606 6.173 197.546 6.056 197.426 5.966C197.312 5.87 197.159 5.798 196.967 5.75C196.781 5.702 196.58 5.678 196.364 5.678C195.998 5.678 195.719 5.741 195.527 5.867C195.341 5.993 195.248 6.161 195.248 6.371C195.248 6.599 195.335 6.776 195.509 6.902C195.689 7.022 195.947 7.082 196.283 7.082ZM199.973 3.941C199.973 3.365 200.027 2.951 200.135 2.699C200.243 2.441 200.396 2.312 200.594 2.312C200.75 2.312 200.873 2.378 200.963 2.51C201.053 2.636 201.119 2.795 201.161 2.987C201.203 3.173 201.224 3.362 201.224 3.554L201.179 3.536C201.281 3.212 201.437 2.933 201.647 2.699C201.863 2.465 202.121 2.348 202.421 2.348C202.775 2.348 203.036 2.495 203.204 2.789C203.372 3.077 203.456 3.437 203.456 3.869C203.456 4.445 203.39 4.847 203.258 5.075C203.126 5.303 202.949 5.417 202.727 5.417C202.565 5.417 202.445 5.351 202.367 5.219C202.295 5.087 202.271 4.853 202.295 4.517C202.319 4.163 202.298 3.917 202.232 3.779C202.166 3.641 202.061 3.572 201.917 3.572C201.743 3.572 201.599 3.683 201.485 3.905C201.377 4.121 201.323 4.388 201.323 4.706C201.323 4.832 201.338 4.991 201.368 5.183C201.398 5.375 201.431 5.585 201.467 5.813C201.503 6.035 201.536 6.257 201.566 6.479C201.596 6.701 201.611 6.905 201.611 7.091C201.611 7.421 201.56 7.658 201.458 7.802C201.356 7.946 201.212 8.018 201.026 8.018C200.816 8.018 200.654 7.952 200.54 7.82C200.426 7.682 200.339 7.46 200.279 7.154C200.231 6.878 200.183 6.551 200.135 6.173C200.087 5.795 200.048 5.408 200.018 5.012C199.988 4.616 199.973 4.259 199.973 3.941ZM209.378 2.582H209.198C209.18 2.318 209.186 2.069 209.216 1.835C209.246 1.595 209.309 1.403 209.405 1.259C209.507 1.109 209.651 1.034 209.837 1.034C210.005 1.034 210.128 1.088 210.206 1.196C210.284 1.304 210.323 1.454 210.323 1.646C210.323 2.024 210.251 2.348 210.107 2.618L209.945 2.6C210.269 2.486 210.635 2.429 211.043 2.429C211.301 2.429 211.505 2.48 211.655 2.582C211.811 2.678 211.889 2.843 211.889 3.077C211.889 3.299 211.799 3.467 211.619 3.581C211.439 3.695 211.214 3.752 210.944 3.752C210.782 3.752 210.608 3.746 210.422 3.734C210.242 3.716 210.065 3.689 209.891 3.653L210.044 3.464C210.098 3.692 210.149 3.953 210.197 4.247C210.251 4.535 210.299 4.835 210.341 5.147C210.383 5.459 210.416 5.762 210.44 6.056C210.464 6.35 210.476 6.614 210.476 6.848C210.476 7.232 210.416 7.535 210.296 7.757C210.176 7.979 209.999 8.09 209.765 8.09C209.579 8.09 209.432 8.033 209.324 7.919C209.222 7.805 209.147 7.661 209.099 7.487C209.057 7.307 209.03 7.121 209.018 6.929C209.012 6.737 209.009 6.563 209.009 6.407C209.009 6.143 209.021 5.846 209.045 5.516C209.069 5.18 209.102 4.835 209.144 4.481C209.192 4.127 209.246 3.785 209.306 3.455L209.486 3.608C209.18 3.764 208.802 3.842 208.352 3.842C208.076 3.842 207.863 3.791 207.713 3.689C207.563 3.587 207.488 3.428 207.488 3.212C207.488 2.978 207.572 2.798 207.74 2.672C207.908 2.54 208.133 2.474 208.415 2.474C208.601 2.474 208.775 2.486 208.937 2.51C209.105 2.528 209.252 2.552 209.378 2.582ZM212.62 3.941C212.62 3.365 212.674 2.951 212.782 2.699C212.89 2.441 213.043 2.312 213.241 2.312C213.397 2.312 213.52 2.378 213.61 2.51C213.7 2.636 213.766 2.795 213.808 2.987C213.85 3.173 213.871 3.362 213.871 3.554L213.826 3.536C213.928 3.212 214.084 2.933 214.294 2.699C214.51 2.465 214.768 2.348 215.068 2.348C215.422 2.348 215.683 2.495 215.851 2.789C216.019 3.077 216.103 3.437 216.103 3.869C216.103 4.445 216.037 4.847 215.905 5.075C215.773 5.303 215.596 5.417 215.374 5.417C215.212 5.417 215.092 5.351 215.014 5.219C214.942 5.087 214.918 4.853 214.942 4.517C214.966 4.163 214.945 3.917 214.879 3.779C214.813 3.641 214.708 3.572 214.564 3.572C214.39 3.572 214.246 3.683 214.132 3.905C214.024 4.121 213.97 4.388 213.97 4.706C213.97 4.832 213.985 4.991 214.015 5.183C214.045 5.375 214.078 5.585 214.114 5.813C214.15 6.035 214.183 6.257 214.213 6.479C214.243 6.701 214.258 6.905 214.258 7.091C214.258 7.421 214.207 7.658 214.105 7.802C214.003 7.946 213.859 8.018 213.673 8.018C213.463 8.018 213.301 7.952 213.187 7.82C213.073 7.682 212.986 7.46 212.926 7.154C212.878 6.878 212.83 6.551 212.782 6.173C212.734 5.795 212.695 5.408 212.665 5.012C212.635 4.616 212.62 4.259 212.62 3.941ZM220.834 8.09C220.63 8.09 220.489 8.012 220.411 7.856C220.339 7.694 220.297 7.439 220.285 7.091L220.375 7.136C220.039 7.79 219.403 8.117 218.467 8.117C218.041 8.117 217.687 8.042 217.405 7.892C217.123 7.736 216.913 7.532 216.775 7.28C216.643 7.022 216.577 6.743 216.577 6.443C216.577 5.927 216.757 5.519 217.117 5.219C217.477 4.913 217.954 4.76 218.548 4.76C218.938 4.76 219.277 4.817 219.565 4.931C219.853 5.045 220.099 5.204 220.303 5.408L220.15 5.39C220.108 4.784 219.976 4.352 219.754 4.094C219.538 3.83 219.229 3.698 218.827 3.698C218.593 3.698 218.377 3.734 218.179 3.806C217.981 3.878 217.798 3.953 217.63 4.031C217.468 4.103 217.315 4.139 217.171 4.139C217.027 4.139 216.913 4.091 216.829 3.995C216.751 3.899 216.712 3.776 216.712 3.626C216.712 3.41 216.814 3.206 217.018 3.014C217.228 2.822 217.504 2.666 217.846 2.546C218.188 2.426 218.56 2.366 218.962 2.366C219.448 2.366 219.865 2.483 220.213 2.717C220.561 2.951 220.825 3.293 221.005 3.743C221.161 4.127 221.272 4.556 221.338 5.03C221.404 5.504 221.437 6.011 221.437 6.551C221.437 6.959 221.416 7.274 221.374 7.496C221.332 7.718 221.266 7.874 221.176 7.964C221.092 8.048 220.978 8.09 220.834 8.09ZM218.845 7.082C219.043 7.082 219.244 7.055 219.448 7.001C219.652 6.941 219.823 6.854 219.961 6.74C220.099 6.626 220.168 6.485 220.168 6.317C220.168 6.173 220.108 6.056 219.988 5.966C219.874 5.87 219.721 5.798 219.529 5.75C219.343 5.702 219.142 5.678 218.926 5.678C218.56 5.678 218.281 5.741 218.089 5.867C217.903 5.993 217.81 6.161 217.81 6.371C217.81 6.599 217.897 6.776 218.071 6.902C218.251 7.022 218.509 7.082 218.845 7.082ZM223.146 2.42C223.308 2.42 223.443 2.516 223.551 2.708C223.659 2.894 223.734 3.191 223.776 3.599L223.587 3.77C223.695 3.35 223.896 3.029 224.19 2.807C224.484 2.585 224.832 2.474 225.234 2.474C225.606 2.474 225.936 2.57 226.224 2.762C226.512 2.954 226.737 3.245 226.899 3.635C227.067 4.019 227.151 4.502 227.151 5.084C227.151 6.026 226.98 6.722 226.638 7.172C226.302 7.616 225.843 7.838 225.261 7.838C224.841 7.838 224.511 7.748 224.271 7.568C224.031 7.388 223.863 7.169 223.767 6.911L223.875 6.857C223.923 7.217 223.962 7.574 223.992 7.928C224.028 8.276 224.046 8.582 224.046 8.846C224.046 9.116 223.998 9.344 223.902 9.53C223.806 9.716 223.653 9.809 223.443 9.809C223.239 9.809 223.086 9.731 222.984 9.575C222.882 9.419 222.807 9.212 222.759 8.954C222.723 8.69 222.687 8.351 222.651 7.937C222.615 7.523 222.585 7.076 222.561 6.596C222.543 6.116 222.534 5.648 222.534 5.192C222.534 4.724 222.549 4.286 222.579 3.878C222.615 3.464 222.657 3.128 222.705 2.87C222.747 2.72 222.801 2.609 222.867 2.537C222.939 2.459 223.032 2.42 223.146 2.42ZM224.865 3.509C224.541 3.509 224.28 3.671 224.082 3.995C223.89 4.313 223.794 4.721 223.794 5.219C223.794 5.729 223.89 6.11 224.082 6.362C224.28 6.614 224.535 6.74 224.847 6.74C225.207 6.74 225.465 6.599 225.621 6.317C225.783 6.029 225.864 5.657 225.864 5.201C225.864 4.619 225.765 4.193 225.567 3.923C225.369 3.647 225.135 3.509 224.865 3.509ZM230.583 8.072C229.917 8.072 229.386 7.973 228.99 7.775C228.594 7.577 228.309 7.292 228.135 6.92C227.961 6.548 227.874 6.104 227.874 5.588C227.874 4.934 227.994 4.379 228.234 3.923C228.48 3.461 228.816 3.107 229.242 2.861C229.674 2.615 230.163 2.492 230.709 2.492C231.351 2.492 231.822 2.642 232.122 2.942C232.422 3.236 232.572 3.623 232.572 4.103C232.572 4.487 232.47 4.82 232.266 5.102C232.068 5.378 231.792 5.591 231.438 5.741C231.084 5.891 230.676 5.966 230.214 5.966C229.956 5.966 229.707 5.933 229.467 5.867C229.227 5.801 229.011 5.711 228.819 5.597L229.035 5.201C229.017 5.345 229.008 5.489 229.008 5.633C229.008 6.053 229.14 6.356 229.404 6.542C229.668 6.722 230.043 6.812 230.529 6.812C230.907 6.812 231.21 6.779 231.438 6.713C231.666 6.647 231.858 6.584 232.014 6.524C232.17 6.458 232.323 6.425 232.473 6.425C232.557 6.425 232.632 6.449 232.698 6.497C232.77 6.539 232.827 6.602 232.869 6.686C232.917 6.77 232.941 6.872 232.941 6.992C232.941 7.172 232.851 7.346 232.671 7.514C232.491 7.676 232.224 7.811 231.87 7.919C231.522 8.021 231.093 8.072 230.583 8.072ZM230.061 5.129C230.487 5.129 230.829 5.039 231.087 4.859C231.345 4.679 231.474 4.457 231.474 4.193C231.474 3.983 231.402 3.812 231.258 3.68C231.12 3.542 230.901 3.473 230.601 3.473C230.319 3.473 230.064 3.527 229.836 3.635C229.614 3.737 229.44 3.872 229.314 4.04C229.188 4.208 229.125 4.391 229.125 4.589C229.125 4.763 229.206 4.898 229.368 4.994C229.536 5.084 229.767 5.129 230.061 5.129ZM236.009 2.366C236.543 2.366 236.927 2.444 237.161 2.6C237.395 2.756 237.512 2.957 237.512 3.203C237.512 3.347 237.461 3.467 237.359 3.563C237.263 3.653 237.125 3.698 236.945 3.698C236.759 3.698 236.564 3.671 236.36 3.617C236.162 3.563 235.931 3.536 235.667 3.536C235.361 3.536 235.133 3.596 234.983 3.716C234.833 3.836 234.758 3.989 234.758 4.175C234.758 4.349 234.824 4.487 234.956 4.589C235.094 4.685 235.355 4.757 235.739 4.805C236.165 4.853 236.516 4.931 236.792 5.039C237.074 5.141 237.284 5.297 237.422 5.507C237.56 5.711 237.629 5.993 237.629 6.353C237.629 6.923 237.428 7.346 237.026 7.622C236.624 7.898 236.069 8.036 235.361 8.036C234.911 8.036 234.554 8 234.29 7.928C234.026 7.856 233.834 7.754 233.714 7.622C233.6 7.49 233.543 7.334 233.543 7.154C233.543 6.998 233.594 6.878 233.696 6.794C233.804 6.704 233.93 6.659 234.074 6.659C234.212 6.659 234.359 6.677 234.515 6.713C234.671 6.743 234.836 6.776 235.01 6.812C235.184 6.848 235.364 6.866 235.55 6.866C236.15 6.866 236.45 6.68 236.45 6.308C236.45 6.182 236.42 6.08 236.36 6.002C236.3 5.924 236.192 5.861 236.036 5.813C235.88 5.759 235.652 5.717 235.352 5.687C234.992 5.651 234.68 5.591 234.416 5.507C234.152 5.417 233.948 5.273 233.804 5.075C233.66 4.871 233.588 4.592 233.588 4.238C233.588 3.68 233.798 3.23 234.218 2.888C234.638 2.54 235.235 2.366 236.009 2.366ZM239.331 1.097C239.571 1.097 239.742 1.163 239.844 1.295C239.952 1.427 240.006 1.58 240.006 1.754C240.006 1.97 239.94 2.138 239.808 2.258C239.682 2.372 239.502 2.429 239.268 2.429C239.04 2.429 238.869 2.366 238.755 2.24C238.641 2.108 238.584 1.955 238.584 1.781C238.584 1.553 238.653 1.382 238.791 1.268C238.929 1.154 239.109 1.097 239.331 1.097ZM239.385 3.104C239.577 3.104 239.727 3.284 239.835 3.644C239.949 4.004 240.006 4.577 240.006 5.363C240.006 6.329 239.937 7.025 239.799 7.451C239.661 7.877 239.451 8.09 239.169 8.09C238.953 8.09 238.794 7.934 238.692 7.622C238.59 7.304 238.539 6.752 238.539 5.966C238.539 5 238.617 4.283 238.773 3.815C238.935 3.341 239.139 3.104 239.385 3.104ZM245.156 7.946C244.994 7.946 244.868 7.892 244.778 7.784C244.694 7.67 244.637 7.526 244.607 7.352C244.577 7.172 244.562 6.983 244.562 6.785L244.607 6.749C244.547 7.007 244.43 7.229 244.256 7.415C244.082 7.601 243.881 7.745 243.653 7.847C243.425 7.943 243.197 7.991 242.969 7.991C242.663 7.991 242.384 7.919 242.132 7.775C241.88 7.631 241.685 7.409 241.547 7.109C241.409 6.791 241.301 6.392 241.223 5.912C241.145 5.426 241.106 4.928 241.106 4.418C241.106 4.142 241.118 3.887 241.142 3.653C241.166 3.419 241.205 3.227 241.259 3.077C241.307 2.921 241.379 2.807 241.475 2.735C241.571 2.657 241.694 2.618 241.844 2.618C242.018 2.618 242.153 2.687 242.249 2.825C242.351 2.957 242.414 3.143 242.438 3.383C242.462 3.581 242.477 3.827 242.483 4.121C242.495 4.409 242.504 4.7 242.51 4.994C242.522 5.282 242.537 5.525 242.555 5.723C242.591 6.083 242.684 6.35 242.834 6.524C242.984 6.692 243.167 6.776 243.383 6.776C243.701 6.776 243.944 6.656 244.112 6.416C244.28 6.176 244.364 5.84 244.364 5.408C244.364 5.192 244.352 4.949 244.328 4.679C244.304 4.403 244.277 4.136 244.247 3.878C244.223 3.62 244.211 3.407 244.211 3.239C244.211 2.957 244.259 2.756 244.355 2.636C244.451 2.51 244.583 2.447 244.751 2.447C244.895 2.447 245.015 2.486 245.111 2.564C245.213 2.642 245.294 2.75 245.354 2.888C245.438 3.068 245.51 3.314 245.57 3.626C245.63 3.938 245.678 4.292 245.714 4.688C245.75 5.084 245.768 5.501 245.768 5.939C245.768 6.611 245.723 7.115 245.633 7.451C245.543 7.781 245.384 7.946 245.156 7.946ZM250.741 3.878C250.801 3.632 250.906 3.41 251.056 3.212C251.212 3.014 251.398 2.858 251.614 2.744C251.836 2.624 252.079 2.564 252.343 2.564C252.655 2.564 252.931 2.639 253.171 2.789C253.411 2.939 253.6 3.185 253.738 3.527C253.882 3.869 253.954 4.325 253.954 4.895C253.954 5.189 253.942 5.486 253.918 5.786C253.894 6.086 253.864 6.365 253.828 6.623C253.792 6.881 253.753 7.097 253.711 7.271C253.651 7.511 253.558 7.694 253.432 7.82C253.312 7.946 253.159 8.009 252.973 8.009C252.817 8.009 252.694 7.94 252.604 7.802C252.514 7.664 252.469 7.466 252.469 7.208C252.469 7.088 252.484 6.935 252.514 6.749C252.544 6.557 252.577 6.35 252.613 6.128C252.649 5.9 252.682 5.669 252.712 5.435C252.742 5.201 252.757 4.979 252.757 4.769C252.757 4.457 252.694 4.217 252.568 4.049C252.442 3.875 252.265 3.788 252.037 3.788C251.785 3.788 251.575 3.92 251.407 4.184C251.245 4.442 251.149 4.82 251.119 5.318C251.095 5.762 251.074 6.158 251.056 6.506C251.038 6.848 250.993 7.13 250.921 7.352C250.873 7.508 250.804 7.625 250.714 7.703C250.63 7.781 250.516 7.82 250.372 7.82C250.21 7.82 250.081 7.76 249.985 7.64C249.895 7.52 249.844 7.331 249.832 7.073C249.82 6.857 249.817 6.602 249.823 6.308C249.829 6.014 249.832 5.723 249.832 5.435C249.838 5.141 249.835 4.898 249.823 4.706C249.799 4.322 249.73 4.04 249.616 3.86C249.508 3.68 249.343 3.59 249.121 3.59C248.863 3.59 248.656 3.71 248.5 3.95C248.35 4.19 248.257 4.523 248.221 4.949C248.209 5.123 248.203 5.339 248.203 5.597C248.209 5.849 248.215 6.101 248.221 6.353C248.227 6.605 248.224 6.815 248.212 6.983C248.206 7.343 248.149 7.601 248.041 7.757C247.939 7.913 247.795 7.991 247.609 7.991C247.387 7.991 247.225 7.919 247.123 7.775C247.027 7.631 246.964 7.4 246.934 7.082C246.91 6.8 246.892 6.521 246.88 6.245C246.868 5.963 246.862 5.684 246.862 5.408C246.862 5.126 246.868 4.82 246.88 4.49C246.898 4.16 246.922 3.848 246.952 3.554C246.988 3.254 247.051 3.002 247.141 2.798C247.231 2.594 247.381 2.492 247.591 2.492C247.765 2.492 247.888 2.579 247.96 2.753C248.032 2.921 248.068 3.182 248.068 3.536C248.068 3.656 248.059 3.767 248.041 3.869L248.014 3.689C248.134 3.299 248.326 2.996 248.59 2.78C248.854 2.558 249.148 2.447 249.472 2.447C249.898 2.447 250.231 2.585 250.471 2.861C250.711 3.131 250.843 3.506 250.867 3.986L250.741 3.878Z" fill="black"/>
</svg>
