<svg version="1.1" xmlns="http://www.w3.org/2000/svg" xmlns:xlink="http://www.w3.org/1999/xlink" width="74.63218" height="18.22043" viewBox="0,0,74.63218,18.22043"><g transform="translate(-202.68391,-170.88978)"><g stroke-miterlimit="10"><path d="M208.82508,171.38978h62.34983c3.11571,0 5.64118,2.52564 5.64118,5.64118v5.93808c0,3.11553 -2.52547,5.64118 -5.64118,5.64118h-62.34983c-3.11553,0 -5.64118,-2.52564 -5.64118,-5.64118v-5.93808c0,-3.11553 2.52564,-5.64118 5.64118,-5.64118z" fill="#a5a7a9" stroke="#000000"/><path d="M215.0185,178.10575c0.47107,0 0.8175,0.12072 1.03916,0.36222c0.22565,0.2415 0.33847,0.55818 0.33847,0.95009c0,0.26917 -0.06336,0.50278 -0.19002,0.70069c-0.12274,0.19792 -0.29097,0.35231 -0.50474,0.46317c-0.21377,0.10689 -0.45527,0.16033 -0.72445,0.16033c-0.12666,0 -0.26128,-0.01384 -0.40379,-0.04157c-0.13854,-0.02773 -0.28307,-0.08117 -0.43348,-0.16033l0.02969,-0.0772c0.03165,0.09899 0.05742,0.22167 0.0772,0.36816c0.02375,0.14251 0.04157,0.29097 0.05344,0.44536c0.01585,0.15041 0.02375,0.28901 0.02375,0.41567c0,0.23354 -0.03961,0.41371 -0.11876,0.54037c-0.07524,0.12274 -0.18806,0.18408 -0.33847,0.18408c-0.12666,0 -0.22761,-0.03961 -0.30284,-0.11876c-0.07126,-0.07915 -0.12072,-0.20979 -0.14845,-0.39191c-0.02773,-0.18212 -0.04157,-0.42558 -0.04157,-0.73038c0,-0.58591 0.02571,-1.08471 0.0772,-1.4964c0.0554,-0.41567 0.14845,-0.74226 0.27909,-0.97978c0.10291,-0.18212 0.26128,-0.32659 0.47505,-0.43348c0.21775,-0.10689 0.48888,-0.16033 0.81352,-0.16033zM214.90568,180.04157c0.23752,0 0.4295,-0.06336 0.57599,-0.19002c0.15041,-0.12666 0.22565,-0.31074 0.22565,-0.55224c0,-0.15837 -0.05344,-0.28901 -0.16033,-0.39191c-0.10291,-0.10689 -0.26525,-0.16033 -0.48692,-0.16033c-0.16229,0 -0.30284,0.03759 -0.4216,0.11282c-0.11876,0.07126 -0.20979,0.1722 -0.27315,0.30284c-0.05938,0.12666 -0.08907,0.27315 -0.08907,0.43942c0,0.15439 0.04946,0.26721 0.14845,0.33847c0.10291,0.06728 0.26324,0.10095 0.48098,0.10095zM218.56716,182.42274c-0.43942,0 -0.78976,-0.06532 -1.05104,-0.19596c-0.26128,-0.13064 -0.44933,-0.3187 -0.56412,-0.56412c-0.11478,-0.24542 -0.1722,-0.53841 -0.1722,-0.87884c0,-0.43152 0.07915,-0.79766 0.23752,-1.09854c0.16229,-0.3048 0.38402,-0.53841 0.66506,-0.70069c0.28503,-0.16229 0.60764,-0.24346 0.96791,-0.24346c0.42356,0 0.73436,0.09899 0.93228,0.2969c0.19792,0.194 0.2969,0.44933 0.2969,0.76601c0,0.25338 -0.06728,0.47309 -0.20189,0.65913c-0.13064,0.18212 -0.31276,0.32262 -0.5463,0.4216c-0.23354,0.09899 -0.50278,0.14845 -0.80758,0.14845c-0.17024,0 -0.33449,-0.02179 -0.49286,-0.06532c-0.15837,-0.04353 -0.30088,-0.10291 -0.42754,-0.17814l0.14251,-0.26128c-0.01188,0.09501 -0.01781,0.19002 -0.01781,0.28503c0,0.27713 0.08711,0.47701 0.26128,0.59975c0.17416,0.11876 0.4216,0.17814 0.74226,0.17814c0.2494,0 0.44933,-0.02179 0.59975,-0.06532c0.15041,-0.04353 0.27713,-0.08509 0.38004,-0.1247c0.10291,-0.04353 0.20385,-0.06532 0.30284,-0.06532c0.0554,0 0.10493,0.01585 0.14845,0.0475c0.0475,0.02773 0.08509,0.0693 0.11282,0.1247c0.03165,0.0554 0.0475,0.12274 0.0475,0.20189c0,0.11876 -0.05938,0.23354 -0.17814,0.34441c-0.11876,0.10689 -0.29494,0.19596 -0.52849,0.26721c-0.22963,0.06728 -0.51263,0.10095 -0.84915,0.10095zM218.22275,180.48098c0.28105,0 0.5067,-0.05938 0.67694,-0.17814c0.17024,-0.11876 0.25534,-0.26525 0.25534,-0.43942c0,-0.13854 -0.0475,-0.25136 -0.14251,-0.33847c-0.09103,-0.09103 -0.23556,-0.13658 -0.43348,-0.13658c-0.18604,0 -0.35433,0.03563 -0.50474,0.10689c-0.14649,0.06728 -0.26128,0.15635 -0.34441,0.26721c-0.08313,0.11086 -0.1247,0.23159 -0.1247,0.36222c0,0.11478 0.05344,0.20385 0.16033,0.26721c0.11086,0.05938 0.26324,0.08907 0.45723,0.08907zM220.64477,179.69716c0,-0.38004 0.03563,-0.65319 0.10689,-0.81945c0.07126,-0.17024 0.1722,-0.25534 0.30284,-0.25534c0.10297,0 0.18408,0.04353 0.24346,0.13064c0.05938,0.08313 0.10297,0.18806 0.13064,0.31472c0.02773,0.12274 0.04157,0.24744 0.04157,0.3741l-0.02969,-0.01188c0.06734,-0.21377 0.17024,-0.39785 0.30878,-0.55224c0.14251,-0.15439 0.31276,-0.23159 0.51067,-0.23159c0.2336,0 0.40581,0.09697 0.51661,0.29097c0.11086,0.19002 0.16627,0.42754 0.16627,0.71257c0,0.38004 -0.04353,0.64529 -0.13064,0.7957c-0.08705,0.15041 -0.20385,0.22565 -0.35035,0.22565c-0.10689,0 -0.18604,-0.04353 -0.23752,-0.13064c-0.0475,-0.08711 -0.0633,-0.2415 -0.0475,-0.46317c0.01585,-0.23354 0.00202,-0.39589 -0.04157,-0.48692c-0.04353,-0.09103 -0.11282,-0.13658 -0.20783,-0.13658c-0.11478,0 -0.20979,0.07322 -0.28503,0.21971c-0.07126,0.14251 -0.10689,0.3187 -0.10689,0.52849c0,0.08313 0.00992,0.18806 0.02969,0.31472c0.01983,0.12666 0.04157,0.26525 0.06532,0.41567c0.02375,0.14649 0.04555,0.29293 0.06532,0.43942c0.01983,0.14649 0.02969,0.28105 0.02969,0.40379c0,0.21775 -0.03361,0.3741 -0.10095,0.46911c-0.06728,0.09501 -0.16229,0.14251 -0.28503,0.14251c-0.13854,0 -0.24542,-0.04353 -0.32066,-0.13064c-0.07518,-0.09103 -0.1326,-0.23752 -0.1722,-0.43942c-0.03165,-0.18212 -0.0633,-0.39785 -0.09501,-0.64725c-0.03165,-0.2494 -0.05736,-0.50474 -0.0772,-0.76601c-0.01977,-0.26128 -0.02969,-0.49684 -0.02969,-0.70663zM223.92016,182.43461c-0.08711,0 -0.15837,-0.02969 -0.21377,-0.08907c-0.05148,-0.05938 -0.09305,-0.14447 -0.1247,-0.25534c-0.03171,-0.16229 -0.05938,-0.3741 -0.08313,-0.63537c-0.01983,-0.26525 -0.02969,-0.54826 -0.02969,-0.84915c0,-0.17024 0.00392,-0.36222 0.01188,-0.57599c0.0079,-0.21377 0.01781,-0.4295 0.02969,-0.64725c0.0158,-0.22167 0.03165,-0.42754 0.0475,-0.61756c0.01977,-0.19002 0.03955,-0.34441 0.05938,-0.46317c0.03165,-0.17416 0.0772,-0.31074 0.13658,-0.40973c0.0633,-0.10291 0.16229,-0.15439 0.2969,-0.15439c0.13854,0 0.23948,0.05344 0.30284,0.16033c0.0633,0.10291 0.09501,0.23159 0.09501,0.38598c0,0.17416 -0.0139,0.38004 -0.04157,0.61756c-0.02375,0.23752 -0.0614,0.47902 -0.11282,0.72445l-0.11876,0.14251c0.04353,-0.16627 0.11478,-0.3187 0.21377,-0.45723c0.09893,-0.13854 0.22363,-0.24744 0.3741,-0.32659c0.15041,-0.08313 0.32458,-0.1247 0.52255,-0.1247c0.38793,0 0.69671,0.13854 0.92634,0.41567c0.23354,0.27315 0.35035,0.70069 0.35035,1.28263c0,0.40777 -0.0614,0.7482 -0.18408,1.02135c-0.11876,0.27315 -0.28307,0.47902 -0.49286,0.61756c-0.20587,0.13462 -0.44144,0.20189 -0.70663,0.20189c-0.2494,0 -0.46519,-0.07322 -0.64725,-0.21971c-0.17814,-0.14649 -0.29298,-0.35824 -0.34441,-0.63537l0.08313,0.06532c-0.01585,0.28503 -0.05546,0.49482 -0.11876,0.62944c-0.05938,0.13064 -0.13658,0.19596 -0.23159,0.19596zM225.00682,181.71017c0.19792,0 0.37208,-0.08907 0.52255,-0.26721c0.15041,-0.17814 0.22565,-0.45723 0.22565,-0.83727c0,-0.31668 -0.05938,-0.57403 -0.17814,-0.77195c-0.11484,-0.19792 -0.30878,-0.2969 -0.58193,-0.2969c-0.22173,0 -0.39987,0.08907 -0.53443,0.26721c-0.13462,0.17416 -0.20189,0.43942 -0.20189,0.7957c0,0.32463 0.06728,0.59185 0.20189,0.80164c0.13456,0.20587 0.31668,0.30878 0.5463,0.30878zM229.7577,182.43461c-0.13462,0 -0.22761,-0.05148 -0.27909,-0.15439c-0.0475,-0.10689 -0.07524,-0.27511 -0.08313,-0.50474l0.05938,0.02969c-0.22167,0.43152 -0.64131,0.64725 -1.25887,0.64725c-0.28105,0 -0.51465,-0.04946 -0.70069,-0.14845c-0.18604,-0.10291 -0.32463,-0.23752 -0.41567,-0.40379c-0.08711,-0.17024 -0.13064,-0.35433 -0.13064,-0.55224c0,-0.34043 0.11876,-0.60966 0.35628,-0.80758c0.23752,-0.20189 0.55224,-0.30284 0.94415,-0.30284c0.2573,0 0.48098,0.03759 0.671,0.11282c0.19002,0.07524 0.35231,0.1801 0.48692,0.31472l-0.10095,-0.01188c-0.02773,-0.39981 -0.11478,-0.68484 -0.26128,-0.85508c-0.14251,-0.17416 -0.34637,-0.26128 -0.61162,-0.26128c-0.15439,0 -0.2969,0.02375 -0.42754,0.07126c-0.13064,0.0475 -0.25136,0.09697 -0.36222,0.14845c-0.10689,0.0475 -0.20783,0.07126 -0.30284,0.07126c-0.09501,0 -0.17024,-0.03165 -0.22565,-0.09501c-0.05148,-0.06336 -0.0772,-0.14447 -0.0772,-0.24346c0,-0.14251 0.06728,-0.27713 0.20189,-0.40379c0.13854,-0.12666 0.32066,-0.22963 0.5463,-0.30878c0.22565,-0.07915 0.47107,-0.11876 0.73632,-0.11876c0.32066,0 0.59577,0.0772 0.82539,0.23159c0.22963,0.15439 0.40379,0.38004 0.52255,0.67694c0.10291,0.25338 0.17618,0.53639 0.21971,0.84915c0.04353,0.31276 0.06532,0.64725 0.06532,1.00354c0,0.26917 -0.01384,0.47701 -0.04157,0.6235c-0.02773,0.14649 -0.07126,0.2494 -0.13064,0.30878c-0.0554,0.0554 -0.13064,0.08313 -0.22565,0.08313zM228.44539,181.76955c0.13064,0 0.26324,-0.01781 0.39785,-0.05344c0.13462,-0.03961 0.24744,-0.09697 0.33847,-0.1722c0.09103,-0.07524 0.13658,-0.16823 0.13658,-0.27909c0,-0.09501 -0.03961,-0.1722 -0.11876,-0.23159c-0.07524,-0.06336 -0.17618,-0.11086 -0.30284,-0.14251c-0.12274,-0.03165 -0.25534,-0.0475 -0.39785,-0.0475c-0.2415,0 -0.42558,0.04157 -0.55224,0.1247c-0.12274,0.08313 -0.18408,0.194 -0.18408,0.33253c0,0.15041 0.05742,0.26721 0.1722,0.35035c0.11876,0.07915 0.28901,0.11876 0.51067,0.11876zM231.40243,177.82072c0.15831,0 0.27113,0.04353 0.33847,0.13064c0.07126,0.08711 0.10689,0.18806 0.10689,0.30284c0,0.14251 -0.04359,0.25338 -0.13064,0.33253c-0.08313,0.07524 -0.20189,0.11282 -0.35628,0.11282c-0.15047,0 -0.26329,-0.04157 -0.33847,-0.1247c-0.07524,-0.08711 -0.11288,-0.18806 -0.11288,-0.30284c0,-0.15041 0.04555,-0.26324 0.13664,-0.33847c0.09103,-0.07524 0.20979,-0.11282 0.35628,-0.11282zM231.43806,179.14492c0.12666,0 0.22565,0.11876 0.2969,0.35628c0.07518,0.23752 0.11282,0.6156 0.11282,1.13417c0,0.63733 -0.04555,1.09659 -0.13658,1.37763c-0.09109,0.28105 -0.22963,0.4216 -0.41567,0.4216c-0.14251,0 -0.24744,-0.10291 -0.31472,-0.30878c-0.06734,-0.20979 -0.10095,-0.57403 -0.10095,-1.09261c0,-0.63733 0.05142,-1.11042 0.15439,-1.4192c0.10689,-0.31276 0.24144,-0.46911 0.40379,-0.46911zM232.97691,182.43461c-0.07524,0 -0.13658,-0.02179 -0.18408,-0.06532c-0.0475,-0.0475 -0.08117,-0.11478 -0.10095,-0.20189c-0.03165,-0.14649 -0.05938,-0.35824 -0.08313,-0.63537c-0.02375,-0.27713 -0.03563,-0.58389 -0.03563,-0.9204c0,-0.41567 0.01384,-0.81548 0.04157,-1.19949c0.03165,-0.38402 0.07126,-0.69873 0.11876,-0.94415c0.05148,-0.26525 0.11478,-0.45919 0.19002,-0.58193c0.07524,-0.12666 0.17416,-0.19002 0.2969,-0.19002c0.11086,0 0.19596,0.05148 0.25534,0.15439c0.05938,0.09899 0.08907,0.27119 0.08907,0.51661c0,0.24542 -0.00992,0.50872 -0.02969,0.78976c-0.01585,0.28105 -0.04353,0.58193 -0.08313,0.90259h0.02375c0.2573,-0.34839 0.49684,-0.62748 0.71851,-0.83727c0.22565,-0.20979 0.43152,-0.36222 0.61756,-0.45723c0.19002,-0.09501 0.35824,-0.14251 0.50474,-0.14251c0.11478,0 0.19994,0.03563 0.25534,0.10689c0.0554,0.07126 0.08313,0.15837 0.08313,0.26128c0,0.20189 -0.16229,0.42754 -0.48692,0.67694c-0.32066,0.2494 -0.78383,0.50474 -1.38951,0.76601l0.00594,-0.09501c0.37606,0.194 0.69873,0.39785 0.96791,0.61162c0.27315,0.20979 0.48098,0.40973 0.6235,0.59975c0.14649,0.18604 0.21971,0.34245 0.21971,0.46911c0,0.10291 -0.03367,0.18806 -0.10095,0.25534c-0.06336,0.06336 -0.15635,0.09501 -0.27909,0.09501c-0.15439,0 -0.32659,-0.05742 -0.51661,-0.1722c-0.18604,-0.11876 -0.38004,-0.29494 -0.58193,-0.52849c-0.20189,-0.23354 -0.40379,-0.52653 -0.60568,-0.87884h-0.02375c-0.00398,0.2494 -0.01977,0.49286 -0.0475,0.73038c-0.02375,0.23354 -0.0554,0.42558 -0.09501,0.57599c-0.02773,0.10291 -0.07126,0.18604 -0.13064,0.2494c-0.0554,0.05938 -0.13462,0.08907 -0.23752,0.08907zM236.65621,177.82072c0.15837,0 0.27119,0.04353 0.33847,0.13064c0.07126,0.08711 0.10689,0.18806 0.10689,0.30284c0,0.14251 -0.04353,0.25338 -0.13064,0.33253c-0.08313,0.07524 -0.20189,0.11282 -0.35628,0.11282c-0.15041,0 -0.26324,-0.04157 -0.33847,-0.1247c-0.07524,-0.08711 -0.11282,-0.18806 -0.11282,-0.30284c0,-0.15041 0.04555,-0.26324 0.13658,-0.33847c0.09103,-0.07524 0.20979,-0.11282 0.35628,-0.11282zM236.69184,179.14492c0.12666,0 0.22565,0.11876 0.2969,0.35628c0.07524,0.23752 0.11282,0.6156 0.11282,1.13417c0,0.63733 -0.04555,1.09659 -0.13658,1.37763c-0.09103,0.28105 -0.22963,0.4216 -0.41567,0.4216c-0.14251,0 -0.24744,-0.10291 -0.31472,-0.30878c-0.06728,-0.20979 -0.10095,-0.57403 -0.10095,-1.09261c0,-0.63733 0.05148,-1.11042 0.15439,-1.4192c0.10689,-0.31276 0.2415,-0.46911 0.40379,-0.46911zM240.70806,178.84801c-0.18604,0.0554 -0.35824,0.09899 -0.51661,0.13064c-0.15831,0.02773 -0.30676,0.04157 -0.44536,0.04157c-0.12666,0 -0.22565,-0.02571 -0.2969,-0.0772c-0.07126,-0.05148 -0.10689,-0.12868 -0.10689,-0.23159c0,-0.08711 0.02969,-0.17024 0.08907,-0.2494c0.05938,-0.07915 0.15047,-0.15041 0.27315,-0.21377c0.14649,-0.07126 0.33253,-0.13064 0.55818,-0.17814c0.22565,-0.0475 0.48894,-0.07126 0.78976,-0.07126c0.20189,0 0.37808,0.01384 0.52849,0.04157c0.15047,0.02375 0.26923,0.05344 0.35628,0.08907c0.11484,0.0475 0.194,0.10291 0.23752,0.16627c0.0475,0.05938 0.07126,0.12868 0.07126,0.20783c0,0.09899 -0.03563,0.1801 -0.10689,0.24346c-0.07126,0.06336 -0.18604,0.09501 -0.34441,0.09501c-0.09501,0 -0.19394,-0.00594 -0.2969,-0.01781c-0.09893,-0.01188 -0.20385,-0.02773 -0.31472,-0.0475zM241.11778,178.52736c0.20189,0.25338 0.3583,0.54826 0.46911,0.88477c0.11484,0.33253 0.1722,0.68092 0.1722,1.0451c0,0.38004 -0.05344,0.72047 -0.16033,1.02135c-0.10291,0.2969 -0.26917,0.53247 -0.4988,0.70663c-0.22957,0.17024 -0.53443,0.25534 -0.91446,0.25534c-0.46709,0 -0.81744,-0.13064 -1.05104,-0.39191c-0.23354,-0.26128 -0.35035,-0.61952 -0.35035,-1.07479c0,-0.22167 0.02773,-0.40973 0.08313,-0.56412c0.05938,-0.15439 0.13658,-0.27119 0.23159,-0.35035c0.09501,-0.08313 0.19798,-0.1247 0.30878,-0.1247c0.10297,0 0.18016,0.03165 0.23159,0.09501c0.05546,0.05938 0.08313,0.14447 0.08313,0.25534c0,0.09103 -0.0158,0.19198 -0.0475,0.30284c-0.02767,0.10689 -0.04157,0.21181 -0.04157,0.31472c0,0.26525 0.04555,0.45919 0.13658,0.58193c0.09501,0.11876 0.24548,0.17814 0.45129,0.17814c0.27315,0 0.46519,-0.11086 0.57599,-0.33253c0.11484,-0.22565 0.1722,-0.53247 0.1722,-0.9204c0,-0.28105 -0.02969,-0.55622 -0.08907,-0.82539c-0.05938,-0.26917 -0.15439,-0.54434 -0.28503,-0.82539zM245.33358,182.43461c-0.13462,0 -0.22767,-0.05148 -0.27909,-0.15439c-0.0475,-0.10689 -0.07524,-0.27511 -0.08313,-0.50474l0.05938,0.02969c-0.22173,0.43152 -0.64131,0.64725 -1.25887,0.64725c-0.28111,0 -0.51465,-0.04946 -0.70069,-0.14845c-0.1861,-0.10291 -0.32463,-0.23752 -0.41567,-0.40379c-0.08711,-0.17024 -0.13064,-0.35433 -0.13064,-0.55224c0,-0.34043 0.11876,-0.60966 0.35628,-0.80758c0.23752,-0.20189 0.55224,-0.30284 0.94415,-0.30284c0.2573,0 0.48098,0.03759 0.671,0.11282c0.19002,0.07524 0.35231,0.1801 0.48692,0.31472l-0.10095,-0.01188c-0.02773,-0.39981 -0.11484,-0.68484 -0.26128,-0.85508c-0.14251,-0.17416 -0.34643,-0.26128 -0.61162,-0.26128c-0.15439,0 -0.2969,0.02375 -0.42754,0.07126c-0.13064,0.0475 -0.25142,0.09697 -0.36222,0.14845c-0.10689,0.0475 -0.20783,0.07126 -0.30284,0.07126c-0.09501,0 -0.17024,-0.03165 -0.22565,-0.09501c-0.05148,-0.06336 -0.0772,-0.14447 -0.0772,-0.24346c0,-0.14251 0.06728,-0.27713 0.20189,-0.40379c0.13854,-0.12666 0.32066,-0.22963 0.5463,-0.30878c0.22565,-0.07915 0.47107,-0.11876 0.73632,-0.11876c0.32066,0 0.59577,0.0772 0.82539,0.23159c0.22957,0.15439 0.40379,0.38004 0.52255,0.67694c0.10291,0.25338 0.17612,0.53639 0.21971,0.84915c0.04353,0.31276 0.06532,0.64725 0.06532,1.00354c0,0.26917 -0.0139,0.47701 -0.04157,0.6235c-0.02773,0.14649 -0.07126,0.2494 -0.13064,0.30878c-0.05546,0.0554 -0.13064,0.08313 -0.22565,0.08313zM244.02127,181.76955c0.13064,0 0.26324,-0.01781 0.39785,-0.05344c0.13456,-0.03961 0.24738,-0.09697 0.33847,-0.1722c0.09103,-0.07524 0.13658,-0.16823 0.13658,-0.27909c0,-0.09501 -0.03961,-0.1722 -0.11876,-0.23159c-0.07524,-0.06336 -0.17618,-0.11086 -0.30284,-0.14251c-0.12274,-0.03165 -0.25534,-0.0475 -0.39785,-0.0475c-0.2415,0 -0.42558,0.04157 -0.55224,0.1247c-0.12274,0.08313 -0.18408,0.194 -0.18408,0.33253c0,0.15041 0.05736,0.26721 0.1722,0.35035c0.11876,0.07915 0.28895,0.11876 0.51067,0.11876zM246.24193,179.96437c0,-0.41169 0.0475,-0.70859 0.14251,-0.89071c0.09899,-0.18212 0.22767,-0.27315 0.38598,-0.27315c0.09109,0 0.16033,0.03367 0.20783,0.10095c0.05148,0.06336 0.08711,0.15041 0.10689,0.26128c0.01983,0.10689 0.02969,0.22761 0.02969,0.36222c0,0.17024 0,0.37012 0,0.59975c0.00398,0.22565 0.00796,0.45919 0.01188,0.70069c0.00796,0.23752 0.01585,0.45919 0.02375,0.66506h0.02375c0.12274,-0.51857 0.24548,-0.94415 0.36816,-1.27669c0.12672,-0.33253 0.25534,-0.57795 0.38598,-0.73632c0.13462,-0.16229 0.26923,-0.24346 0.40379,-0.24346c0.14649,0 0.28503,0.08117 0.41567,0.24346c0.13462,0.15837 0.26525,0.39981 0.39191,0.72445c0.13064,0.32463 0.26329,0.73436 0.39785,1.22918h0.02375c0.01188,-0.34043 0.01983,-0.69873 0.02375,-1.07479c0.00398,-0.37606 0.00594,-0.72047 0.00594,-1.03323c0,-0.22565 0.03765,-0.39191 0.11282,-0.4988c0.07524,-0.10689 0.18016,-0.16033 0.31472,-0.16033c0.17024,0 0.29298,0.08907 0.36816,0.26721c0.07921,0.17416 0.11876,0.40973 0.11876,0.70663c0,0.21775 -0.01188,0.45129 -0.03563,0.70069c-0.01977,0.24542 -0.04946,0.48294 -0.08907,0.71257c-0.03955,0.22963 -0.08705,0.4295 -0.14251,0.59975c-0.08313,0.25338 -0.17612,0.44536 -0.27909,0.57599c-0.09893,0.13064 -0.22957,0.19596 -0.39191,0.19596c-0.14643,0 -0.29293,-0.08509 -0.43942,-0.25534c-0.14251,-0.17416 -0.27707,-0.43348 -0.40379,-0.77789c-0.12666,-0.34441 -0.24346,-0.77391 -0.35035,-1.28856h-0.02375c-0.10291,0.4909 -0.22565,0.90259 -0.36816,1.23512c-0.13854,0.32855 -0.28699,0.57599 -0.44536,0.74226c-0.15439,0.16627 -0.30878,0.2494 -0.46317,0.2494c-0.16229,0 -0.29886,-0.07322 -0.40973,-0.21971c-0.10689,-0.14649 -0.19596,-0.37214 -0.26721,-0.67694c-0.03165,-0.15439 -0.05938,-0.3187 -0.08313,-0.49286c-0.02375,-0.17814 -0.04157,-0.35231 -0.05344,-0.52255c-0.01188,-0.17024 -0.01781,-0.32066 -0.01781,-0.45129zM253.60859,182.43461c-0.13462,0 -0.22761,-0.05148 -0.27909,-0.15439c-0.0475,-0.10689 -0.07524,-0.27511 -0.08313,-0.50474l0.05938,0.02969c-0.22167,0.43152 -0.64131,0.64725 -1.25887,0.64725c-0.28105,0 -0.51465,-0.04946 -0.70069,-0.14845c-0.18604,-0.10291 -0.32463,-0.23752 -0.41567,-0.40379c-0.08711,-0.17024 -0.13064,-0.35433 -0.13064,-0.55224c0,-0.34043 0.11876,-0.60966 0.35628,-0.80758c0.23752,-0.20189 0.55224,-0.30284 0.94415,-0.30284c0.2573,0 0.48098,0.03759 0.671,0.11282c0.19002,0.07524 0.35231,0.1801 0.48692,0.31472l-0.10095,-0.01188c-0.02773,-0.39981 -0.11478,-0.68484 -0.26128,-0.85508c-0.14251,-0.17416 -0.34637,-0.26128 -0.61162,-0.26128c-0.15439,0 -0.2969,0.02375 -0.42754,0.07126c-0.13064,0.0475 -0.25136,0.09697 -0.36222,0.14845c-0.10689,0.0475 -0.20783,0.07126 -0.30284,0.07126c-0.09501,0 -0.17024,-0.03165 -0.22565,-0.09501c-0.05148,-0.06336 -0.0772,-0.14447 -0.0772,-0.24346c0,-0.14251 0.06728,-0.27713 0.20189,-0.40379c0.13854,-0.12666 0.32066,-0.22963 0.5463,-0.30878c0.22565,-0.07915 0.47107,-0.11876 0.73632,-0.11876c0.32066,0 0.59577,0.0772 0.82539,0.23159c0.22963,0.15439 0.40379,0.38004 0.52255,0.67694c0.10291,0.25338 0.17618,0.53639 0.21971,0.84915c0.04353,0.31276 0.06532,0.64725 0.06532,1.00354c0,0.26917 -0.01384,0.47701 -0.04157,0.6235c-0.02773,0.14649 -0.07126,0.2494 -0.13064,0.30878c-0.0554,0.0554 -0.13064,0.08313 -0.22565,0.08313zM252.29628,181.76955c0.13064,0 0.26324,-0.01781 0.39785,-0.05344c0.13462,-0.03961 0.24744,-0.09697 0.33847,-0.1722c0.09103,-0.07524 0.13658,-0.16823 0.13658,-0.27909c0,-0.09501 -0.03961,-0.1722 -0.11876,-0.23159c-0.07524,-0.06336 -0.17618,-0.11086 -0.30284,-0.14251c-0.12274,-0.03165 -0.25534,-0.0475 -0.39785,-0.0475c-0.2415,0 -0.42558,0.04157 -0.55224,0.1247c-0.12274,0.08313 -0.18408,0.194 -0.18408,0.33253c0,0.15041 0.05742,0.26721 0.1722,0.35035c0.11876,0.07915 0.28901,0.11876 0.51067,0.11876zM255.18207,182.43461c-0.08711,0 -0.15837,-0.02969 -0.21377,-0.08907c-0.05148,-0.05938 -0.09305,-0.14447 -0.1247,-0.25534c-0.03171,-0.16229 -0.05938,-0.3741 -0.08313,-0.63537c-0.01983,-0.26525 -0.02969,-0.54826 -0.02969,-0.84915c0,-0.17024 0.00392,-0.36222 0.01188,-0.57599c0.0079,-0.21377 0.01781,-0.4295 0.02969,-0.64725c0.0158,-0.22167 0.03165,-0.42754 0.0475,-0.61756c0.01977,-0.19002 0.03955,-0.34441 0.05938,-0.46317c0.03165,-0.17416 0.0772,-0.31074 0.13658,-0.40973c0.0633,-0.10291 0.16229,-0.15439 0.2969,-0.15439c0.13854,0 0.23948,0.05344 0.30284,0.16033c0.0633,0.10291 0.09501,0.23159 0.09501,0.38598c0,0.17416 -0.0139,0.38004 -0.04157,0.61756c-0.02375,0.23752 -0.0614,0.47902 -0.11282,0.72445l-0.11876,0.14251c0.04353,-0.16627 0.11478,-0.3187 0.21377,-0.45723c0.09893,-0.13854 0.22363,-0.24744 0.3741,-0.32659c0.15041,-0.08313 0.32458,-0.1247 0.52255,-0.1247c0.38793,0 0.69671,0.13854 0.92634,0.41567c0.23354,0.27315 0.35035,0.70069 0.35035,1.28263c0,0.40777 -0.0614,0.7482 -0.18408,1.02135c-0.11876,0.27315 -0.28307,0.47902 -0.49286,0.61756c-0.20587,0.13462 -0.44144,0.20189 -0.70663,0.20189c-0.2494,0 -0.46519,-0.07322 -0.64725,-0.21971c-0.17814,-0.14649 -0.29298,-0.35824 -0.34441,-0.63537l0.08313,0.06532c-0.01585,0.28503 -0.05546,0.49482 -0.11876,0.62944c-0.05938,0.13064 -0.13658,0.19596 -0.23159,0.19596zM256.26873,181.71017c0.19792,0 0.37208,-0.08907 0.52255,-0.26721c0.15041,-0.17814 0.22565,-0.45723 0.22565,-0.83727c0,-0.31668 -0.05938,-0.57403 -0.17814,-0.77195c-0.11484,-0.19792 -0.30878,-0.2969 -0.58193,-0.2969c-0.22173,0 -0.39987,0.08907 -0.53443,0.26721c-0.13462,0.17416 -0.20189,0.43942 -0.20189,0.7957c0,0.32463 0.06728,0.59185 0.20189,0.80164c0.13456,0.20587 0.31668,0.30878 0.5463,0.30878zM261.01961,182.43461c-0.13462,0 -0.22767,-0.05148 -0.27909,-0.15439c-0.0475,-0.10689 -0.07524,-0.27511 -0.08313,-0.50474l0.05938,0.02969c-0.22173,0.43152 -0.64131,0.64725 -1.25887,0.64725c-0.28111,0 -0.51465,-0.04946 -0.70069,-0.14845c-0.1861,-0.10291 -0.32463,-0.23752 -0.41567,-0.40379c-0.08711,-0.17024 -0.13064,-0.35433 -0.13064,-0.55224c0,-0.34043 0.11876,-0.60966 0.35628,-0.80758c0.23752,-0.20189 0.55224,-0.30284 0.94415,-0.30284c0.2573,0 0.48098,0.03759 0.671,0.11282c0.19002,0.07524 0.35231,0.1801 0.48692,0.31472l-0.10095,-0.01188c-0.02773,-0.39981 -0.11484,-0.68484 -0.26128,-0.85508c-0.14251,-0.17416 -0.34643,-0.26128 -0.61162,-0.26128c-0.15439,0 -0.2969,0.02375 -0.42754,0.07126c-0.13064,0.0475 -0.25142,0.09697 -0.36222,0.14845c-0.10689,0.0475 -0.20783,0.07126 -0.30284,0.07126c-0.09501,0 -0.17024,-0.03165 -0.22565,-0.09501c-0.05148,-0.06336 -0.0772,-0.14447 -0.0772,-0.24346c0,-0.14251 0.06728,-0.27713 0.20189,-0.40379c0.13854,-0.12666 0.32066,-0.22963 0.5463,-0.30878c0.22565,-0.07915 0.47107,-0.11876 0.73632,-0.11876c0.32066,0 0.59577,0.0772 0.82539,0.23159c0.22957,0.15439 0.40379,0.38004 0.52255,0.67694c0.10291,0.25338 0.17612,0.53639 0.21971,0.84915c0.04353,0.31276 0.06532,0.64725 0.06532,1.00354c0,0.26917 -0.0139,0.47701 -0.04157,0.6235c-0.02773,0.14649 -0.07126,0.2494 -0.13064,0.30878c-0.05546,0.0554 -0.13064,0.08313 -0.22565,0.08313zM259.7073,181.76955c0.13064,0 0.26324,-0.01781 0.39785,-0.05344c0.13456,-0.03961 0.24738,-0.09697 0.33847,-0.1722c0.09103,-0.07524 0.13658,-0.16823 0.13658,-0.27909c0,-0.09501 -0.03961,-0.1722 -0.11876,-0.23159c-0.07524,-0.06336 -0.17618,-0.11086 -0.30284,-0.14251c-0.12274,-0.03165 -0.25534,-0.0475 -0.39785,-0.0475c-0.2415,0 -0.42558,0.04157 -0.55224,0.1247c-0.12274,0.08313 -0.18408,0.194 -0.18408,0.33253c0,0.15041 0.05736,0.26721 0.1722,0.35035c0.11876,0.07915 0.28895,0.11876 0.51067,0.11876zM262.74759,178.68175c0.12648,0 0.2114,0.05148 0.25534,0.15439c0.0475,0.10291 0.07126,0.25534 0.07126,0.45723c0,0.0475 -0.00416,0.09899 -0.01188,0.15439c-0.00416,0.05148 -0.01188,0.09899 -0.02375,0.14251l-0.01188,-0.11876c0.09501,-0.2573 0.24109,-0.45723 0.43942,-0.59975c0.19774,-0.14649 0.40735,-0.21971 0.62944,-0.21971c0.24524,0 0.44892,0.0693 0.61162,0.20783c0.16627,0.13854 0.28859,0.33253 0.36816,0.58193c0.08313,0.2494 0.1247,0.54434 0.1247,0.88477c0,0.20979 -0.01009,0.41763 -0.02969,0.6235c-0.01603,0.20189 -0.03979,0.38793 -0.07126,0.55818c-0.02791,0.16627 -0.05938,0.30284 -0.09501,0.40973c-0.0475,0.13462 -0.10926,0.23556 -0.18408,0.30284c-0.07541,0.06336 -0.16448,0.09501 -0.26721,0.09501c-0.10332,0 -0.1823,-0.03759 -0.23752,-0.11282c-0.05582,-0.07524 -0.08313,-0.17618 -0.08313,-0.30284c0,-0.13462 0.0095,-0.2969 0.02969,-0.48692c0.0196,-0.194 0.03741,-0.38995 0.05344,-0.58787c0.0196,-0.20189 0.02969,-0.38402 0.02969,-0.5463c0,-0.5542 -0.1823,-0.83133 -0.5463,-0.83133c-0.19418,0 -0.35628,0.08711 -0.48692,0.26128c-0.13064,0.17024 -0.21793,0.41371 -0.26128,0.73038c-0.01188,0.10689 -0.01781,0.23948 -0.01781,0.39785c0,0.15837 0,0.31668 0,0.47505c0.00356,0.15439 0,0.28503 -0.01188,0.39191c-0.01603,0.23752 -0.06176,0.40777 -0.13658,0.51067c-0.07126,0.10291 -0.17042,0.15439 -0.2969,0.15439c-0.14667,0 -0.25771,-0.06728 -0.33271,-0.20189c-0.07518,-0.13854 -0.11282,-0.37012 -0.11282,-0.69476c0,-0.16627 0.00398,-0.35231 0.01188,-0.55818c0.00796,-0.20587 0.01781,-0.41169 0.02969,-0.61756c0.01585,-0.20979 0.03367,-0.39981 0.05344,-0.57006c0.03937,-0.32066 0.09697,-0.57403 0.17238,-0.76007c0.07482,-0.19002 0.18764,-0.28503 0.33847,-0.28503z" fill="#000000" stroke="none"/></g></g></svg>