<svg xmlns="http://www.w3.org/2000/svg" fill="none" viewBox="0 0 106 13" height="13" width="106">
<path fill="black" d="M4.632 10.132C3.728 10.132 2.976 9.964 2.376 9.628C1.776 9.284 1.328 8.804 1.032 8.188C0.736 7.572 0.588 6.852 0.588 6.028C0.588 5.116 0.752 4.32 1.08 3.64C1.416 2.952 1.9 2.42 2.532 2.044C3.164 1.668 3.924 1.48 4.812 1.48C5.644 1.48 6.308 1.628 6.804 1.924C7.3 2.212 7.548 2.58 7.548 3.028C7.548 3.292 7.464 3.504 7.296 3.664C7.128 3.816 6.884 3.892 6.564 3.892C6.356 3.892 6.152 3.848 5.952 3.76C5.752 3.672 5.536 3.588 5.304 3.508C5.08 3.42 4.812 3.376 4.5 3.376C4.1 3.376 3.728 3.452 3.384 3.604C3.048 3.756 2.776 4.012 2.568 4.372C2.368 4.724 2.268 5.204 2.268 5.812C2.268 6.732 2.468 7.384 2.868 7.768C3.276 8.152 3.812 8.344 4.476 8.344C4.708 8.344 4.952 8.324 5.208 8.284C5.464 8.236 5.704 8.192 5.928 8.152C6.152 8.104 6.332 8.08 6.468 8.08C6.74 8.08 6.956 8.148 7.116 8.284C7.276 8.412 7.356 8.604 7.356 8.86C7.356 9.228 7.124 9.532 6.66 9.772C6.196 10.012 5.52 10.132 4.632 10.132ZM11.441 10.036C10.801 10.036 10.241 9.896 9.76097 9.616C9.28897 9.328 8.92097 8.92 8.65697 8.392C8.40097 7.864 8.27297 7.236 8.27297 6.508C8.27297 5.748 8.40497 5.084 8.66897 4.516C8.93297 3.948 9.30497 3.504 9.78497 3.184C10.273 2.864 10.837 2.704 11.477 2.704C12.165 2.704 12.761 2.86 13.265 3.172C13.769 3.476 14.161 3.904 14.441 4.456C14.721 5.008 14.861 5.652 14.861 6.388C14.861 7.14 14.721 7.788 14.441 8.332C14.161 8.876 13.765 9.296 13.253 9.592C12.741 9.888 12.137 10.036 11.441 10.036ZM11.609 8.416C12.105 8.416 12.497 8.22 12.785 7.828C13.081 7.428 13.229 6.9 13.229 6.244C13.229 5.58 13.081 5.052 12.785 4.66C12.497 4.268 12.105 4.072 11.609 4.072C11.097 4.072 10.693 4.268 10.397 4.66C10.101 5.052 9.95297 5.58 9.95297 6.244C9.95297 6.9 10.101 7.428 10.397 7.828C10.693 8.22 11.097 8.416 11.609 8.416ZM17.2958 2.536C17.5518 2.536 17.7238 2.64 17.8118 2.848C17.9078 3.056 17.9558 3.364 17.9558 3.772C17.9558 3.868 17.9478 3.972 17.9318 4.084C17.9238 4.188 17.9078 4.284 17.8838 4.372L17.8598 4.132C18.0518 3.612 18.3478 3.208 18.7478 2.92C19.1478 2.624 19.5718 2.476 20.0198 2.476C20.5158 2.476 20.9278 2.616 21.2558 2.896C21.5918 3.176 21.8398 3.568 21.9998 4.072C22.1678 4.576 22.2518 5.172 22.2518 5.86C22.2518 6.284 22.2318 6.704 22.1918 7.12C22.1598 7.528 22.1118 7.904 22.0478 8.248C21.9918 8.584 21.9278 8.86 21.8558 9.076C21.7598 9.348 21.6358 9.552 21.4838 9.688C21.3318 9.816 21.1518 9.88 20.9438 9.88C20.7358 9.88 20.5758 9.804 20.4638 9.652C20.3518 9.5 20.2958 9.296 20.2958 9.04C20.2958 8.768 20.3158 8.44 20.3558 8.056C20.3958 7.664 20.4318 7.268 20.4638 6.868C20.5038 6.46 20.5238 6.092 20.5238 5.764C20.5238 4.644 20.1558 4.084 19.4198 4.084C19.0278 4.084 18.6998 4.26 18.4358 4.612C18.1718 4.956 17.9958 5.448 17.9078 6.088C17.8838 6.304 17.8718 6.572 17.8718 6.892C17.8718 7.212 17.8718 7.532 17.8718 7.852C17.8798 8.164 17.8718 8.428 17.8478 8.644C17.8158 9.124 17.7238 9.468 17.5718 9.676C17.4278 9.884 17.2278 9.988 16.9718 9.988C16.6758 9.988 16.4518 9.852 16.2998 9.58C16.1478 9.3 16.0718 8.832 16.0718 8.176C16.0718 7.84 16.0798 7.464 16.0958 7.048C16.1118 6.632 16.1318 6.216 16.1558 5.8C16.1878 5.376 16.2238 4.992 16.2638 4.648C16.3438 4 16.4598 3.488 16.6118 3.112C16.7638 2.728 16.9918 2.536 17.2958 2.536ZM25.7405 2.776H25.5005C25.4765 2.424 25.4845 2.092 25.5245 1.78C25.5645 1.46 25.6485 1.204 25.7765 1.012C25.9125 0.812 26.1045 0.711999 26.3525 0.711999C26.5765 0.711999 26.7405 0.783999 26.8445 0.927999C26.9485 1.072 27.0005 1.272 27.0005 1.528C27.0005 2.032 26.9045 2.464 26.7125 2.824L26.4965 2.8C26.9285 2.648 27.4165 2.572 27.9605 2.572C28.3045 2.572 28.5765 2.64 28.7765 2.776C28.9845 2.904 29.0885 3.124 29.0885 3.436C29.0885 3.732 28.9685 3.956 28.7285 4.108C28.4885 4.26 28.1885 4.336 27.8285 4.336C27.6125 4.336 27.3805 4.328 27.1325 4.312C26.8925 4.288 26.6565 4.252 26.4245 4.204L26.6285 3.952C26.7005 4.256 26.7685 4.604 26.8325 4.996C26.9045 5.38 26.9685 5.78 27.0245 6.196C27.0805 6.612 27.1245 7.016 27.1565 7.408C27.1885 7.8 27.2045 8.152 27.2045 8.464C27.2045 8.976 27.1245 9.38 26.9645 9.676C26.8045 9.972 26.5685 10.12 26.2565 10.12C26.0085 10.12 25.8125 10.044 25.6685 9.892C25.5325 9.74 25.4325 9.548 25.3685 9.316C25.3125 9.076 25.2765 8.828 25.2605 8.572C25.2525 8.316 25.2485 8.084 25.2485 7.876C25.2485 7.524 25.2645 7.128 25.2965 6.688C25.3285 6.24 25.3725 5.78 25.4285 5.308C25.4925 4.836 25.5645 4.38 25.6445 3.94L25.8845 4.144C25.4765 4.352 24.9725 4.456 24.3725 4.456C24.0045 4.456 23.7205 4.388 23.5205 4.252C23.3205 4.116 23.2205 3.904 23.2205 3.616C23.2205 3.304 23.3325 3.064 23.5565 2.896C23.7805 2.72 24.0805 2.632 24.4565 2.632C24.7045 2.632 24.9365 2.648 25.1525 2.68C25.3765 2.704 25.5725 2.736 25.7405 2.776ZM32.8628 10.036C32.2228 10.036 31.6628 9.896 31.1828 9.616C30.7108 9.328 30.3428 8.92 30.0788 8.392C29.8228 7.864 29.6948 7.236 29.6948 6.508C29.6948 5.748 29.8268 5.084 30.0908 4.516C30.3548 3.948 30.7268 3.504 31.2068 3.184C31.6948 2.864 32.2588 2.704 32.8988 2.704C33.5868 2.704 34.1828 2.86 34.6868 3.172C35.1908 3.476 35.5828 3.904 35.8628 4.456C36.1428 5.008 36.2828 5.652 36.2828 6.388C36.2828 7.14 36.1428 7.788 35.8628 8.332C35.5828 8.876 35.1868 9.296 34.6748 9.592C34.1628 9.888 33.5588 10.036 32.8628 10.036ZM33.0308 8.416C33.5268 8.416 33.9188 8.22 34.2068 7.828C34.5028 7.428 34.6508 6.9 34.6508 6.244C34.6508 5.58 34.5028 5.052 34.2068 4.66C33.9188 4.268 33.5268 4.072 33.0308 4.072C32.5188 4.072 32.1148 4.268 31.8188 4.66C31.5228 5.052 31.3748 5.58 31.3748 6.244C31.3748 6.9 31.5228 7.428 31.8188 7.828C32.1148 8.22 32.5188 8.416 33.0308 8.416ZM38.7297 0.495999C38.9857 0.495999 39.1617 0.595999 39.2577 0.796C39.3617 0.996 39.4137 1.296 39.4137 1.696C39.4137 2.04 39.3937 2.472 39.3537 2.992C39.3137 3.512 39.2617 4.012 39.1977 4.492H39.1257C39.3897 3.996 39.7297 3.596 40.1457 3.292C40.5617 2.988 41.0017 2.836 41.4657 2.836C41.8737 2.836 42.2377 2.936 42.5577 3.136C42.8777 3.328 43.1377 3.632 43.3377 4.048C43.5217 4.424 43.6577 4.872 43.7457 5.392C43.8337 5.904 43.8777 6.392 43.8777 6.856C43.8777 7.6 43.8257 8.192 43.7217 8.632C43.6257 9.072 43.4897 9.392 43.3137 9.592C43.1377 9.784 42.9297 9.88 42.6897 9.88C42.1857 9.88 41.9337 9.468 41.9337 8.644C41.9337 8.244 41.9537 7.832 41.9937 7.408C42.0417 6.984 42.0657 6.596 42.0657 6.244C42.0657 5.644 41.9697 5.196 41.7777 4.9C41.5937 4.596 41.3257 4.444 40.9737 4.444C40.5337 4.444 40.1777 4.64 39.9057 5.032C39.6337 5.424 39.4977 5.964 39.4977 6.652C39.4977 7.012 39.5297 7.408 39.5937 7.84C39.6577 8.264 39.6897 8.652 39.6897 9.004C39.6897 9.396 39.6137 9.68 39.4617 9.856C39.3177 10.024 39.1297 10.108 38.8977 10.108C38.7217 10.108 38.5657 10.072 38.4297 10C38.3017 9.936 38.1897 9.804 38.0937 9.604C38.0057 9.396 37.9297 9.088 37.8657 8.68C37.8177 8.368 37.7697 8.004 37.7217 7.588C37.6737 7.172 37.6337 6.736 37.6017 6.28C37.5697 5.824 37.5417 5.38 37.5177 4.948C37.5017 4.508 37.4937 4.108 37.4937 3.748C37.4937 2.612 37.6017 1.788 37.8177 1.276C38.0337 0.755999 38.3377 0.495999 38.7297 0.495999ZM49.4276 10.276C48.9236 10.276 48.5316 10.244 48.2516 10.18C47.9796 10.116 47.7916 10.028 47.6876 9.916C47.5836 9.796 47.5276 9.664 47.5196 9.52C47.5196 9.296 47.6516 9.108 47.9156 8.956C48.1876 8.804 48.6836 8.708 49.4036 8.668L49.2116 8.896C49.1236 8.488 49.0596 8.012 49.0196 7.468C48.9796 6.924 48.9636 6.36 48.9716 5.776C48.9796 5.192 49.0076 4.636 49.0556 4.108C49.1036 3.572 49.1716 3.116 49.2596 2.74L50.3036 2.668C50.1276 2.74 49.9076 2.804 49.6436 2.86C49.3796 2.908 49.1076 2.932 48.8276 2.932C48.3156 2.932 47.9356 2.876 47.6876 2.764C47.4476 2.652 47.3276 2.496 47.3276 2.296C47.3276 1.944 47.5396 1.672 47.9636 1.48C48.3956 1.28 49.0556 1.18 49.9436 1.18C50.9996 1.18 51.8876 1.356 52.6076 1.708C53.3356 2.052 53.8876 2.536 54.2636 3.16C54.6396 3.776 54.8276 4.496 54.8276 5.32C54.8276 6.04 54.6996 6.704 54.4436 7.312C54.1876 7.912 53.8196 8.436 53.3396 8.884C52.8676 9.324 52.2996 9.668 51.6356 9.916C50.9796 10.156 50.2436 10.276 49.4276 10.276ZM51.1316 8.428C51.4036 8.428 51.6916 8.32 51.9956 8.104C52.3076 7.88 52.5716 7.556 52.7876 7.132C53.0036 6.7 53.1116 6.168 53.1116 5.536C53.1116 5.072 53.0436 4.668 52.9076 4.324C52.7796 3.972 52.6116 3.68 52.4036 3.448C52.1956 3.216 51.9756 3.044 51.7436 2.932C51.5116 2.812 51.2916 2.752 51.0836 2.752C50.9156 2.752 50.7836 2.856 50.6876 3.064C50.5996 3.272 50.5356 3.584 50.4956 4C50.4556 4.408 50.4356 4.916 50.4356 5.524C50.4356 6.468 50.4836 7.188 50.5796 7.684C50.6756 8.18 50.8596 8.428 51.1316 8.428ZM57.206 0.796C57.526 0.796 57.754 0.884 57.89 1.06C58.034 1.236 58.106 1.44 58.106 1.672C58.106 1.96 58.018 2.184 57.842 2.344C57.674 2.496 57.434 2.572 57.122 2.572C56.818 2.572 56.59 2.488 56.438 2.32C56.286 2.144 56.21 1.94 56.21 1.708C56.21 1.404 56.302 1.176 56.486 1.024C56.67 0.872 56.91 0.796 57.206 0.796ZM57.278 3.472C57.534 3.472 57.734 3.712 57.878 4.192C58.03 4.672 58.106 5.436 58.106 6.484C58.106 7.772 58.014 8.7 57.83 9.268C57.646 9.836 57.366 10.12 56.99 10.12C56.702 10.12 56.49 9.912 56.354 9.496C56.218 9.072 56.15 8.336 56.15 7.288C56.15 6 56.254 5.044 56.462 4.42C56.678 3.788 56.95 3.472 57.278 3.472ZM64.8158 10.12C64.5438 10.12 64.3558 10.016 64.2518 9.808C64.1558 9.592 64.0998 9.252 64.0838 8.788L64.2038 8.848C63.7558 9.72 62.9078 10.156 61.6598 10.156C61.0918 10.156 60.6198 10.056 60.2438 9.856C59.8678 9.648 59.5878 9.376 59.4038 9.04C59.2278 8.696 59.1398 8.324 59.1398 7.924C59.1398 7.236 59.3798 6.692 59.8598 6.292C60.3398 5.884 60.9758 5.68 61.7678 5.68C62.2878 5.68 62.7398 5.756 63.1238 5.908C63.5078 6.06 63.8358 6.272 64.1078 6.544L63.9038 6.52C63.8478 5.712 63.6718 5.136 63.3758 4.792C63.0878 4.44 62.6758 4.264 62.1398 4.264C61.8278 4.264 61.5398 4.312 61.2758 4.408C61.0118 4.504 60.7678 4.604 60.5438 4.708C60.3278 4.804 60.1238 4.852 59.9318 4.852C59.7398 4.852 59.5878 4.788 59.4758 4.66C59.3718 4.532 59.3198 4.368 59.3198 4.168C59.3198 3.88 59.4558 3.608 59.7278 3.352C60.0078 3.096 60.3758 2.888 60.8318 2.728C61.2878 2.568 61.7838 2.488 62.3198 2.488C62.9678 2.488 63.5238 2.644 63.9878 2.956C64.4518 3.268 64.8038 3.724 65.0438 4.324C65.2518 4.836 65.3998 5.408 65.4878 6.04C65.5758 6.672 65.6198 7.348 65.6198 8.068C65.6198 8.612 65.5918 9.032 65.5358 9.328C65.4798 9.624 65.3918 9.832 65.2718 9.952C65.1598 10.064 65.0078 10.12 64.8158 10.12ZM62.1638 8.776C62.4278 8.776 62.6958 8.74 62.9678 8.668C63.2398 8.588 63.4678 8.472 63.6518 8.32C63.8358 8.168 63.9278 7.98 63.9278 7.756C63.9278 7.564 63.8478 7.408 63.6878 7.288C63.5358 7.16 63.3318 7.064 63.0758 7C62.8278 6.936 62.5598 6.904 62.2718 6.904C61.7838 6.904 61.4118 6.988 61.1558 7.156C60.9078 7.324 60.7838 7.548 60.7838 7.828C60.7838 8.132 60.8998 8.368 61.1318 8.536C61.3718 8.696 61.7158 8.776 62.1638 8.776ZM69.3756 9.808C68.6236 9.808 68.0116 9.52 67.5396 8.944C67.0676 8.36 66.8316 7.476 66.8316 6.292C66.8316 5.028 67.0596 4.104 67.5156 3.52C67.9716 2.936 68.5716 2.644 69.3156 2.644C69.7556 2.644 70.1436 2.756 70.4796 2.98C70.8156 3.204 71.1036 3.52 71.3436 3.928L71.2476 4.096C71.2236 3.984 71.2036 3.864 71.1876 3.736C71.1716 3.608 71.1636 3.512 71.1636 3.448C71.1636 3.12 71.2156 2.868 71.3196 2.692C71.4316 2.508 71.6036 2.416 71.8356 2.416C72.0916 2.416 72.2916 2.52 72.4356 2.728C72.5876 2.936 72.7036 3.232 72.7836 3.616C72.8876 4.008 72.9756 4.508 73.0476 5.116C73.1196 5.716 73.1556 6.324 73.1556 6.94C73.1556 7.708 73.1276 8.352 73.0716 8.872C73.0156 9.392 72.9236 9.824 72.7956 10.168C72.6676 10.512 72.4996 10.812 72.2916 11.068C71.9476 11.484 71.5036 11.8 70.9596 12.016C70.4236 12.24 69.8036 12.352 69.0996 12.352C68.5956 12.352 68.1916 12.304 67.8876 12.208C67.5836 12.12 67.3636 11.996 67.2276 11.836C67.0996 11.684 67.0356 11.512 67.0356 11.32C67.0356 11.12 67.0916 10.952 67.2036 10.816C67.3156 10.688 67.4836 10.624 67.7076 10.624C67.9076 10.624 68.1396 10.656 68.4036 10.72C68.6756 10.784 68.9956 10.816 69.3636 10.816C70.1396 10.816 70.6876 10.632 71.0076 10.264C71.3356 9.904 71.4996 9.384 71.4996 8.704C71.4996 8.52 71.4876 8.304 71.4636 8.056L71.6316 8.116C71.4316 8.628 71.1356 9.04 70.7436 9.352C70.3516 9.656 69.8956 9.808 69.3756 9.808ZM69.8316 8.332C70.0876 8.332 70.3436 8.264 70.5996 8.128C70.8556 7.992 71.0676 7.768 71.2356 7.456C71.4036 7.144 71.4876 6.724 71.4876 6.196C71.4876 5.564 71.3396 5.048 71.0436 4.648C70.7476 4.248 70.3316 4.048 69.7956 4.048C69.3316 4.048 68.9916 4.224 68.7756 4.576C68.5596 4.928 68.4516 5.46 68.4516 6.172C68.4516 6.852 68.5596 7.384 68.7756 7.768C68.9916 8.144 69.3436 8.332 69.8316 8.332ZM77.5347 10.036C76.8947 10.036 76.3347 9.896 75.8547 9.616C75.3827 9.328 75.0147 8.92 74.7507 8.392C74.4947 7.864 74.3667 7.236 74.3667 6.508C74.3667 5.748 74.4987 5.084 74.7627 4.516C75.0267 3.948 75.3987 3.504 75.8787 3.184C76.3667 2.864 76.9307 2.704 77.5707 2.704C78.2587 2.704 78.8547 2.86 79.3587 3.172C79.8627 3.476 80.2547 3.904 80.5347 4.456C80.8147 5.008 80.9547 5.652 80.9547 6.388C80.9547 7.14 80.8147 7.788 80.5347 8.332C80.2547 8.876 79.8587 9.296 79.3467 9.592C78.8347 9.888 78.2307 10.036 77.5347 10.036ZM77.7027 8.416C78.1987 8.416 78.5907 8.22 78.8787 7.828C79.1747 7.428 79.3227 6.9 79.3227 6.244C79.3227 5.58 79.1747 5.052 78.8787 4.66C78.5907 4.268 78.1987 4.072 77.7027 4.072C77.1907 4.072 76.7867 4.268 76.4907 4.66C76.1947 5.052 76.0467 5.58 76.0467 6.244C76.0467 6.9 76.1947 7.428 76.4907 7.828C76.7867 8.22 77.1907 8.416 77.7027 8.416ZM83.3896 2.536C83.6456 2.536 83.8176 2.64 83.9056 2.848C84.0016 3.056 84.0496 3.364 84.0496 3.772C84.0496 3.868 84.0416 3.972 84.0256 4.084C84.0176 4.188 84.0016 4.284 83.9776 4.372L83.9536 4.132C84.1456 3.612 84.4416 3.208 84.8416 2.92C85.2416 2.624 85.6656 2.476 86.1136 2.476C86.6096 2.476 87.0216 2.616 87.3496 2.896C87.6856 3.176 87.9336 3.568 88.0936 4.072C88.2616 4.576 88.3456 5.172 88.3456 5.86C88.3456 6.284 88.3256 6.704 88.2856 7.12C88.2536 7.528 88.2056 7.904 88.1416 8.248C88.0856 8.584 88.0216 8.86 87.9496 9.076C87.8536 9.348 87.7296 9.552 87.5776 9.688C87.4256 9.816 87.2456 9.88 87.0376 9.88C86.8296 9.88 86.6696 9.804 86.5576 9.652C86.4456 9.5 86.3896 9.296 86.3896 9.04C86.3896 8.768 86.4096 8.44 86.4496 8.056C86.4896 7.664 86.5256 7.268 86.5576 6.868C86.5976 6.46 86.6176 6.092 86.6176 5.764C86.6176 4.644 86.2496 4.084 85.5136 4.084C85.1216 4.084 84.7936 4.26 84.5296 4.612C84.2656 4.956 84.0896 5.448 84.0016 6.088C83.9776 6.304 83.9656 6.572 83.9656 6.892C83.9656 7.212 83.9656 7.532 83.9656 7.852C83.9736 8.164 83.9656 8.428 83.9416 8.644C83.9096 9.124 83.8176 9.468 83.6656 9.676C83.5216 9.884 83.3216 9.988 83.0656 9.988C82.7696 9.988 82.5456 9.852 82.3936 9.58C82.2416 9.3 82.1656 8.832 82.1656 8.176C82.1656 7.84 82.1736 7.464 82.1896 7.048C82.2056 6.632 82.2256 6.216 82.2496 5.8C82.2816 5.376 82.3176 4.992 82.3576 4.648C82.4376 4 82.5536 3.488 82.7056 3.112C82.8576 2.728 83.0856 2.536 83.3896 2.536ZM95.0502 10.12C94.7782 10.12 94.5902 10.016 94.4862 9.808C94.3902 9.592 94.3342 9.252 94.3182 8.788L94.4382 8.848C93.9902 9.72 93.1422 10.156 91.8942 10.156C91.3262 10.156 90.8542 10.056 90.4782 9.856C90.1022 9.648 89.8222 9.376 89.6382 9.04C89.4622 8.696 89.3742 8.324 89.3742 7.924C89.3742 7.236 89.6142 6.692 90.0942 6.292C90.5742 5.884 91.2102 5.68 92.0022 5.68C92.5222 5.68 92.9742 5.756 93.3582 5.908C93.7422 6.06 94.0702 6.272 94.3422 6.544L94.1382 6.52C94.0822 5.712 93.9062 5.136 93.6102 4.792C93.3222 4.44 92.9102 4.264 92.3742 4.264C92.0622 4.264 91.7742 4.312 91.5102 4.408C91.2462 4.504 91.0022 4.604 90.7782 4.708C90.5622 4.804 90.3582 4.852 90.1662 4.852C89.9742 4.852 89.8222 4.788 89.7102 4.66C89.6062 4.532 89.5542 4.368 89.5542 4.168C89.5542 3.88 89.6902 3.608 89.9622 3.352C90.2422 3.096 90.6102 2.888 91.0662 2.728C91.5222 2.568 92.0182 2.488 92.5542 2.488C93.2022 2.488 93.7582 2.644 94.2222 2.956C94.6862 3.268 95.0382 3.724 95.2782 4.324C95.4862 4.836 95.6342 5.408 95.7222 6.04C95.8102 6.672 95.8542 7.348 95.8542 8.068C95.8542 8.612 95.8262 9.032 95.7702 9.328C95.7142 9.624 95.6262 9.832 95.5062 9.952C95.3942 10.064 95.2422 10.12 95.0502 10.12ZM92.3982 8.776C92.6622 8.776 92.9302 8.74 93.2022 8.668C93.4742 8.588 93.7022 8.472 93.8862 8.32C94.0702 8.168 94.1622 7.98 94.1622 7.756C94.1622 7.564 94.0822 7.408 93.9222 7.288C93.7702 7.16 93.5662 7.064 93.3102 7C93.0622 6.936 92.7942 6.904 92.5062 6.904C92.0182 6.904 91.6462 6.988 91.3902 7.156C91.1422 7.324 91.0182 7.548 91.0182 7.828C91.0182 8.132 91.1342 8.368 91.3662 8.536C91.6062 8.696 91.9502 8.776 92.3982 8.776ZM98.6139 10.024C98.3659 10.024 98.1699 9.968 98.0259 9.856C97.8819 9.736 97.7659 9.54 97.6779 9.268C97.5579 8.868 97.4659 8.364 97.4019 7.756C97.3459 7.14 97.3179 6.384 97.3179 5.488C97.3179 4.936 97.3379 4.384 97.3779 3.832C97.4259 3.272 97.4859 2.764 97.5579 2.308C97.6299 1.844 97.7059 1.484 97.7859 1.228C97.8739 0.956 97.9779 0.767999 98.0979 0.663999C98.2179 0.56 98.3539 0.508 98.5059 0.508C98.6659 0.508 98.7939 0.564 98.8899 0.676C98.9859 0.779999 99.0619 0.967999 99.1179 1.24C99.1659 1.504 99.2019 1.828 99.2259 2.212C99.2579 2.596 99.2739 3.008 99.2739 3.448C99.2739 4.048 99.2459 4.68 99.1899 5.344C99.1339 6.008 99.0579 6.66 98.9619 7.3C98.8739 7.94 98.7659 8.528 98.6379 9.064L98.3019 8.896C98.5099 8.64 98.7459 8.44 99.0099 8.296C99.2819 8.152 99.5299 8.08 99.7539 8.08C99.9379 8.08 100.078 8.132 100.174 8.236C100.278 8.332 100.33 8.484 100.33 8.692C100.33 8.9 100.238 9.108 100.054 9.316C99.8779 9.524 99.6579 9.696 99.3939 9.832C99.1299 9.96 98.8699 10.024 98.6139 10.024ZM104.482 7.42C104.802 7.42 105.058 7.532 105.25 7.756C105.45 7.972 105.55 8.292 105.55 8.716C105.55 9.108 105.454 9.44 105.262 9.712C105.078 9.984 104.778 10.12 104.362 10.12C104.026 10.12 103.778 10.008 103.618 9.784C103.466 9.56 103.39 9.244 103.39 8.836C103.39 8.596 103.422 8.368 103.486 8.152C103.55 7.936 103.662 7.76 103.822 7.624C103.982 7.488 104.202 7.42 104.482 7.42ZM104.482 2.5C104.802 2.5 105.058 2.612 105.25 2.836C105.45 3.052 105.55 3.372 105.55 3.796C105.55 4.188 105.454 4.52 105.262 4.792C105.078 5.064 104.778 5.2 104.362 5.2C104.026 5.2 103.778 5.088 103.618 4.864C103.466 4.64 103.39 4.324 103.39 3.916C103.39 3.676 103.422 3.448 103.486 3.232C103.55 3.016 103.662 2.84 103.822 2.704C103.982 2.568 104.202 2.5 104.482 2.5Z"></path>
</svg>
