<svg version="1.1" xmlns="http://www.w3.org/2000/svg" xmlns:xlink="http://www.w3.org/1999/xlink" width="129.31103" height="16.03532" viewBox="0,0,129.31103,16.03532"><g transform="translate(-175.34448,-171.98234)"><g data-paper-data="{&quot;isPaintingLayer&quot;:true}" fill="#000000" fill-rule="nonzero" stroke="none" stroke-width="1" stroke-linecap="butt" stroke-linejoin="miter" stroke-miterlimit="10" stroke-dasharray="" stroke-dashoffset="0" style="mix-blend-mode: normal"><path d="M179.88618,172.81855c1.30075,0 2.25718,0.33338 2.8693,1.00016c0.62305,0.66678 0.93457,1.54122 0.93457,2.62336c0,0.74329 -0.1749,1.3882 -0.52468,1.93472c-0.33885,0.54653 -0.8034,0.97283 -1.39366,1.27888c-0.59025,0.29513 -1.25703,0.44269 -2.00031,0.44269c-0.34978,0 -0.72142,-0.03826 -1.11493,-0.11477c-0.38257,-0.07651 -0.78155,-0.22408 -1.19691,-0.44269l0.08198,-0.21315c0.08745,0.27327 0.15849,0.61212 0.21315,1.01655c0.06558,0.39351 0.11477,0.8034 0.14756,1.2297c0.04372,0.41536 0.06558,0.79794 0.06558,1.14771c0,0.64491 -0.1093,1.14226 -0.32791,1.49203c-0.20768,0.33885 -0.5192,0.50827 -0.93457,0.50827c-0.34978,0 -0.62851,-0.1093 -0.8362,-0.32791c-0.19674,-0.21861 -0.33338,-0.57933 -0.4099,-1.08214c-0.07651,-0.50281 -0.11477,-1.17505 -0.11477,-2.01671c0,-1.61774 0.07105,-2.99501 0.21315,-4.13179c0.15303,-1.14771 0.4099,-2.0495 0.77061,-2.70534c0.28419,-0.50281 0.72142,-0.90178 1.31169,-1.19691c0.60119,-0.29513 1.34994,-0.44269 2.24625,-0.44269zM179.57466,178.16364c0.65584,0 1.18598,-0.1749 1.59042,-0.52468c0.41536,-0.34978 0.62305,-0.85806 0.62305,-1.52483c0,-0.43723 -0.14756,-0.79794 -0.44269,-1.08214c-0.28419,-0.29513 -0.73236,-0.44269 -1.34447,-0.44269c-0.44816,0 -0.8362,0.10384 -1.16411,0.31152c-0.32791,0.19674 -0.57933,0.47548 -0.75422,0.8362c-0.16396,0.34978 -0.24594,0.75422 -0.24594,1.2133c0,0.42629 0.13664,0.73782 0.4099,0.93457c0.28419,0.18582 0.72688,0.27874 1.32807,0.27874zM189.68457,184.73843c-1.2133,0 -2.18066,-0.18036 -2.90208,-0.54106c-0.72142,-0.36072 -1.24062,-0.87992 -1.55762,-1.55762c-0.317,-0.6777 -0.47548,-1.48657 -0.47548,-2.42661c0,-1.19144 0.21861,-2.20253 0.65584,-3.03327c0.44816,-0.84166 1.06027,-1.48657 1.83635,-1.93472c0.787,-0.44816 1.67784,-0.67223 2.67253,-0.67223c1.16958,0 2.02764,0.27327 2.57417,0.8198c0.54653,0.53561 0.8198,1.24062 0.8198,2.11508c0,0.69956 -0.18582,1.30621 -0.55746,1.81995c-0.36072,0.50281 -0.86352,0.89084 -1.50843,1.16411c-0.64491,0.27327 -1.3882,0.4099 -2.22985,0.4099c-0.47002,0 -0.92365,-0.06013 -1.36086,-0.18036c-0.43723,-0.12023 -0.83074,-0.28419 -1.18052,-0.49188l0.39351,-0.72142c-0.03279,0.26233 -0.04919,0.52468 -0.04919,0.78701c0,0.76514 0.24047,1.31714 0.72142,1.656c0.48094,0.32791 1.1641,0.49188 2.04949,0.49188c0.68863,0 1.24062,-0.06013 1.656,-0.18036c0.41536,-0.12023 0.76514,-0.23501 1.04935,-0.34432c0.28419,-0.12023 0.56293,-0.18036 0.8362,-0.18036c0.15303,0 0.28966,0.04372 0.4099,0.13117c0.13117,0.07651 0.23501,0.19129 0.31152,0.34432c0.08745,0.15303 0.13117,0.33885 0.13117,0.55746c0,0.32791 -0.16396,0.64491 -0.49188,0.95097c-0.32791,0.29513 -0.81433,0.54106 -1.45924,0.73782c-0.63397,0.18582 -1.41552,0.27874 -2.34463,0.27874zM188.7336,179.37694c0.77607,0 1.39913,-0.16396 1.86915,-0.49188c0.47002,-0.32791 0.70503,-0.73236 0.70503,-1.2133c0,-0.38257 -0.13117,-0.6941 -0.39351,-0.93457c-0.25141,-0.25141 -0.65038,-0.3771 -1.19691,-0.3771c-0.51374,0 -0.97829,0.09838 -1.39366,0.29513c-0.40442,0.18582 -0.7214,0.43177 -0.95095,0.73782c-0.22955,0.30606 -0.34432,0.63945 -0.34432,1.00016c0,0.317 0.14756,0.56293 0.44269,0.73782c0.30606,0.16396 0.72687,0.24594 1.26248,0.24594zM195.42126,177.21267c0,-1.04935 0.09838,-1.80356 0.29513,-2.26265c0.19674,-0.47002 0.47548,-0.70503 0.8362,-0.70503c0.28419,0 0.50827,0.12023 0.67223,0.36072c0.16396,0.22955 0.28419,0.5192 0.36072,0.86899c0.07651,0.33885 0.11477,0.68316 0.11477,1.03295l-0.08198,-0.03279c0.18582,-0.59025 0.47002,-1.09853 0.85259,-1.52483c0.39351,-0.42629 0.86352,-0.63945 1.41006,-0.63945c0.64491,0 1.12039,0.26781 1.42645,0.8034c0.30606,0.52468 0.45909,1.18052 0.45909,1.96752c0,1.04935 -0.12023,1.7817 -0.36072,2.19707c-0.24047,0.41536 -0.56293,0.62305 -0.96737,0.62305c-0.29513,0 -0.51374,-0.12023 -0.65584,-0.36072c-0.13117,-0.24047 -0.1749,-0.66678 -0.13117,-1.27888c0.04372,-0.64491 0.00546,-1.09307 -0.11477,-1.34447c-0.12023,-0.25141 -0.31152,-0.3771 -0.57387,-0.3771c-0.317,0 -0.57933,0.20222 -0.78701,0.60665c-0.19674,0.39351 -0.29513,0.87992 -0.29513,1.45924c0,0.22955 0.02732,0.5192 0.08198,0.86899c0.05465,0.34978 0.11477,0.73236 0.18036,1.14771c0.06558,0.40443 0.1257,0.80887 0.18036,1.2133c0.05465,0.40443 0.08198,0.77607 0.08198,1.11493c0,0.60119 -0.09291,1.03295 -0.27874,1.29529c-0.18582,0.26233 -0.44816,0.39351 -0.78701,0.39351c-0.38257,0 -0.6777,-0.12023 -0.88538,-0.36072c-0.20768,-0.25141 -0.36618,-0.65584 -0.47548,-1.2133c-0.08745,-0.50281 -0.1749,-1.09853 -0.26233,-1.78717c-0.08745,-0.68863 -0.15849,-1.39366 -0.21315,-2.11508c-0.05465,-0.72142 -0.08198,-1.3718 -0.08198,-1.95113zM207.36712,174.34337c0.97283,0 1.67239,0.1421 2.09868,0.42629c0.42629,0.28419 0.63945,0.65038 0.63945,1.09853c0,0.26233 -0.09291,0.48095 -0.27874,0.65584c-0.1749,0.16396 -0.42629,0.24594 -0.75422,0.24594c-0.33885,0 -0.6941,-0.04919 -1.06574,-0.14756c-0.36072,-0.09838 -0.78155,-0.14756 -1.26249,-0.14756c-0.55746,0 -0.97283,0.1093 -1.2461,0.32791c-0.27327,0.21861 -0.4099,0.49734 -0.4099,0.8362c0,0.317 0.12023,0.5684 0.36072,0.75422c0.25141,0.1749 0.72688,0.30606 1.42645,0.39351c0.77607,0.08745 1.41552,0.22955 1.91834,0.42629c0.51374,0.18582 0.89632,0.47002 1.14771,0.85259c0.25141,0.37164 0.3771,0.88538 0.3771,1.54122c0,1.03842 -0.36618,1.80903 -1.09853,2.31184c-0.73236,0.50281 -1.74344,0.75422 -3.03327,0.75422c-0.8198,0 -1.47017,-0.06558 -1.95113,-0.19674c-0.48095,-0.13117 -0.83074,-0.317 -1.04935,-0.55746c-0.20768,-0.24047 -0.31152,-0.52468 -0.31152,-0.85259c0,-0.28419 0.09291,-0.50281 0.27874,-0.65584c0.19674,-0.16396 0.42629,-0.24594 0.68863,-0.24594c0.25141,0 0.5192,0.03279 0.8034,0.09838c0.28419,0.05465 0.58478,0.11477 0.90178,0.18036c0.317,0.06558 0.64491,0.09838 0.98375,0.09838c1.09307,0 1.6396,-0.33885 1.6396,-1.01655c0,-0.22955 -0.05465,-0.41536 -0.16396,-0.55746c-0.1093,-0.1421 -0.30606,-0.25687 -0.59025,-0.34432c-0.28419,-0.09838 -0.69956,-0.1749 -1.2461,-0.22955c-0.65584,-0.06558 -1.22424,-0.1749 -1.70518,-0.32791c-0.48095,-0.16396 -0.85259,-0.42629 -1.11493,-0.78701c-0.26233,-0.37164 -0.39351,-0.87992 -0.39351,-1.52483c0,-1.01655 0.38257,-1.83635 1.14771,-2.4594c0.76514,-0.63397 1.85275,-0.95097 3.2628,-0.95097zM216.56828,184.73843c-1.2133,0 -2.18066,-0.18036 -2.90209,-0.54106c-0.72142,-0.36072 -1.24062,-0.87992 -1.55762,-1.55762c-0.317,-0.6777 -0.47548,-1.48657 -0.47548,-2.42661c0,-1.19144 0.21861,-2.20253 0.65584,-3.03327c0.44816,-0.84166 1.06027,-1.48657 1.83635,-1.93472c0.78701,-0.44816 1.67785,-0.67223 2.67255,-0.67223c1.16958,0 2.02764,0.27327 2.57417,0.8198c0.54653,0.53561 0.8198,1.24062 0.8198,2.11508c0,0.69956 -0.18582,1.30621 -0.55746,1.81995c-0.36072,0.50281 -0.86352,0.89084 -1.50843,1.16411c-0.64491,0.27327 -1.3882,0.4099 -2.22985,0.4099c-0.47002,0 -0.92365,-0.06013 -1.36087,-0.18036c-0.43723,-0.12023 -0.83074,-0.28419 -1.18052,-0.49188l0.39351,-0.72142c-0.03279,0.26233 -0.04919,0.52468 -0.04919,0.78701c0,0.76514 0.24047,1.31714 0.72142,1.656c0.48095,0.32791 1.16411,0.49188 2.0495,0.49188c0.68863,0 1.24062,-0.06013 1.656,-0.18036c0.41536,-0.12023 0.76514,-0.23501 1.04935,-0.34432c0.28419,-0.12023 0.56293,-0.18036 0.8362,-0.18036c0.15303,0 0.28966,0.04372 0.4099,0.13117c0.13117,0.07651 0.23501,0.19129 0.31152,0.34432c0.08745,0.15303 0.13117,0.33885 0.13117,0.55746c0,0.32791 -0.16396,0.64491 -0.49188,0.95097c-0.32791,0.29513 -0.81433,0.54106 -1.45924,0.73782c-0.63397,0.18582 -1.41552,0.27874 -2.34463,0.27874zM215.61731,179.37694c0.77607,0 1.39913,-0.16396 1.86915,-0.49188c0.47002,-0.32791 0.70503,-0.73236 0.70503,-1.2133c0,-0.38257 -0.13117,-0.6941 -0.39351,-0.93457c-0.25141,-0.25141 -0.65038,-0.3771 -1.19691,-0.3771c-0.51374,0 -0.97829,0.09838 -1.39366,0.29513c-0.40443,0.18582 -0.72142,0.43177 -0.95097,0.73782c-0.22955,0.30606 -0.34432,0.63945 -0.34432,1.00016c0,0.317 0.14756,0.56293 0.44269,0.73782c0.30606,0.16396 0.72688,0.24594 1.26249,0.24594zM225.43661,184.34493c-1.02748,0 -1.86368,-0.39351 -2.50859,-1.18052c-0.64491,-0.79794 -0.96737,-2.00578 -0.96737,-3.62351c0,-1.72704 0.31152,-2.98954 0.93457,-3.78747c0.62305,-0.79794 1.44285,-1.19691 2.4594,-1.19691c0.60119,0 1.13133,0.15303 1.59042,0.45909c0.45909,0.30606 0.85259,0.73782 1.18052,1.29529l-0.13117,0.22955c-0.03279,-0.15303 -0.06013,-0.317 -0.08198,-0.49188c-0.02186,-0.1749 -0.03279,-0.30606 -0.03279,-0.39351c0,-0.44816 0.07105,-0.79248 0.21315,-1.03295c0.15303,-0.25141 0.38804,-0.3771 0.70503,-0.3771c0.34978,0 0.62305,0.1421 0.8198,0.42629c0.20768,0.28419 0.36618,0.68863 0.47548,1.2133c0.1421,0.53561 0.26233,1.21878 0.36072,2.0495c0.09838,0.8198 0.14756,1.65053 0.14756,2.49219c0,1.04935 -0.03826,1.92926 -0.11477,2.63976c-0.07651,0.7105 -0.20222,1.30075 -0.3771,1.77077c-0.1749,0.47002 -0.40443,0.87992 -0.68863,1.2297c-0.47002,0.5684 -1.07667,1.00016 -1.81995,1.29529c-0.73236,0.30606 -1.57948,0.45909 -2.54138,0.45909c-0.68863,0 -1.24062,-0.06558 -1.656,-0.19674c-0.41536,-0.12023 -0.71596,-0.28966 -0.90178,-0.50827c-0.1749,-0.20768 -0.26233,-0.44269 -0.26233,-0.70503c0,-0.27327 0.07651,-0.50281 0.22955,-0.68863c0.15303,-0.1749 0.38257,-0.26233 0.68863,-0.26233c0.27327,0 0.59025,0.04372 0.95097,0.13117c0.37164,0.08745 0.80887,0.13117 1.31169,0.13117c1.06027,0 1.80903,-0.25141 2.24625,-0.75422c0.44816,-0.49188 0.67223,-1.20237 0.67223,-2.13149c0,-0.25141 -0.0164,-0.54653 -0.04919,-0.88538l0.22955,0.08198c-0.27327,0.69956 -0.6777,1.26249 -1.2133,1.68879c-0.53561,0.41536 -1.15865,0.62305 -1.86915,0.62305zM226.05964,182.32822c0.34978,0 0.69956,-0.09291 1.04935,-0.27874c0.34978,-0.18582 0.63945,-0.49188 0.86899,-0.91818c0.22955,-0.42629 0.34432,-1.00016 0.34432,-1.72158c0,-0.86352 -0.20222,-1.56856 -0.60665,-2.11508c-0.40443,-0.54653 -0.97283,-0.8198 -1.70518,-0.8198c-0.63397,0 -1.09853,0.24047 -1.39366,0.72142c-0.29513,0.48095 -0.44269,1.20784 -0.44269,2.18066c0,0.9291 0.14756,1.656 0.44269,2.18066c0.29513,0.51374 0.77607,0.77061 1.44285,0.77061zM234.04326,172.03154c0.43723,0 0.74875,0.12023 0.93457,0.36072c0.19674,0.24047 0.29513,0.5192 0.29513,0.8362c0,0.39351 -0.12023,0.69956 -0.36072,0.91818c-0.22955,0.20768 -0.55746,0.31152 -0.98375,0.31152c-0.41536,0 -0.72688,-0.11477 -0.93457,-0.34432c-0.20768,-0.24047 -0.31152,-0.5192 -0.31152,-0.8362c0,-0.41536 0.1257,-0.72688 0.3771,-0.93457c0.25141,-0.20768 0.57933,-0.31152 0.98375,-0.31152zM234.14164,175.68784c0.34978,0 0.62305,0.32791 0.8198,0.98375c0.20768,0.65584 0.31152,1.69972 0.31152,3.13163c0,1.75984 -0.1257,3.02779 -0.3771,3.80387c-0.25141,0.77607 -0.63397,1.16411 -1.14771,1.16411c-0.39351,0 -0.68316,-0.28419 -0.86899,-0.85259c-0.18582,-0.57933 -0.27874,-1.58494 -0.27874,-3.01686c0,-1.75984 0.1421,-3.06605 0.42629,-3.91864c0.29513,-0.86352 0.66678,-1.29529 1.11493,-1.29529zM245.18203,172.81855c1.30075,0 2.25718,0.33338 2.8693,1.00016c0.62305,0.66678 0.93457,1.54122 0.93457,2.62336c0,0.74329 -0.1749,1.3882 -0.52468,1.93472c-0.33885,0.54653 -0.8034,0.97283 -1.39366,1.27888c-0.59025,0.29513 -1.25703,0.44269 -2.00031,0.44269c-0.34978,0 -0.72142,-0.03826 -1.11493,-0.11477c-0.38257,-0.07651 -0.78155,-0.22408 -1.19691,-0.44269l0.08198,-0.21315c0.08745,0.27327 0.15849,0.61212 0.21315,1.01655c0.06558,0.39351 0.11477,0.8034 0.14756,1.2297c0.04372,0.41536 0.06558,0.79794 0.06558,1.14771c0,0.64491 -0.1093,1.14226 -0.32791,1.49203c-0.20768,0.33885 -0.5192,0.50827 -0.93457,0.50827c-0.34978,0 -0.62851,-0.1093 -0.8362,-0.32791c-0.19674,-0.21861 -0.33338,-0.57933 -0.4099,-1.08214c-0.07651,-0.50281 -0.11477,-1.17505 -0.11477,-2.01671c0,-1.61774 0.07105,-2.99501 0.21315,-4.13179c0.15303,-1.14771 0.4099,-2.0495 0.77061,-2.70534c0.28419,-0.50281 0.72142,-0.90178 1.31169,-1.19691c0.60119,-0.29513 1.34994,-0.44269 2.24625,-0.44269zM244.87051,178.16364c0.65584,0 1.18598,-0.1749 1.59042,-0.52468c0.41536,-0.34978 0.62305,-0.85806 0.62305,-1.52483c0,-0.43723 -0.14756,-0.79794 -0.44269,-1.08214c-0.28419,-0.29513 -0.73236,-0.44269 -1.34447,-0.44269c-0.44816,0 -0.8362,0.10384 -1.16411,0.31152c-0.32791,0.19674 -0.57933,0.47548 -0.75422,0.8362c-0.16396,0.34978 -0.24594,0.75422 -0.24594,1.2133c0,0.42629 0.13664,0.73782 0.4099,0.93457c0.28419,0.18582 0.72688,0.27874 1.32807,0.27874zM257.55459,184.77123c-0.37164,0 -0.62851,-0.1421 -0.77061,-0.42629c-0.13117,-0.29513 -0.20768,-0.75968 -0.22955,-1.39366l0.16396,0.08198c-0.61212,1.19144 -1.77077,1.78717 -3.47595,1.78717c-0.77607,0 -1.42098,-0.13664 -1.93472,-0.4099c-0.51374,-0.28419 -0.89632,-0.65584 -1.14771,-1.11493c-0.24047,-0.47002 -0.36072,-0.97829 -0.36072,-1.52483c0,-0.94004 0.32791,-1.68333 0.98375,-2.22985c0.65584,-0.55746 1.52483,-0.8362 2.60697,-0.8362c0.7105,0 1.32807,0.10384 1.85275,0.31152c0.52468,0.20768 0.97283,0.49734 1.34447,0.86899l-0.27874,-0.03279c-0.07651,-1.104 -0.317,-1.891 -0.72142,-2.36102c-0.39351,-0.48095 -0.95643,-0.72142 -1.68879,-0.72142c-0.42629,0 -0.8198,0.06558 -1.18052,0.19674c-0.36072,0.13117 -0.6941,0.26781 -1.00016,0.4099c-0.29513,0.13117 -0.57387,0.19674 -0.8362,0.19674c-0.26233,0 -0.47002,-0.08745 -0.62305,-0.26233c-0.1421,-0.1749 -0.21315,-0.39897 -0.21315,-0.67223c0,-0.39351 0.18582,-0.76514 0.55746,-1.11493c0.38257,-0.34978 0.88538,-0.63397 1.50843,-0.85259c0.62305,-0.21861 1.30075,-0.32791 2.03311,-0.32791c0.88538,0 1.64507,0.21315 2.27904,0.63945c0.63397,0.42629 1.11493,1.04935 1.44285,1.86915c0.28419,0.69956 0.48642,1.48111 0.60665,2.34463c0.12023,0.86352 0.18036,1.78717 0.18036,2.77092c0,0.74329 -0.03826,1.31714 -0.11477,1.72158c-0.07651,0.40443 -0.19674,0.68863 -0.36072,0.85259c-0.15303,0.15303 -0.36072,0.22955 -0.62305,0.22955zM253.93107,182.93487c0.36072,0 0.72688,-0.04919 1.09853,-0.14756c0.37164,-0.1093 0.68316,-0.26781 0.93457,-0.47548c0.25141,-0.20768 0.3771,-0.46455 0.3771,-0.77061c0,-0.26233 -0.1093,-0.47548 -0.32791,-0.63945c-0.20768,-0.1749 -0.48642,-0.30606 -0.8362,-0.39351c-0.33885,-0.08745 -0.70503,-0.13117 -1.09853,-0.13117c-0.66678,0 -1.17505,0.11477 -1.52483,0.34432c-0.33885,0.22955 -0.50827,0.53561 -0.50827,0.91818c0,0.41536 0.15849,0.73782 0.47548,0.96737c0.32791,0.21861 0.79794,0.32791 1.41006,0.32791zM262.32541,174.40896c0.34978,0 0.58478,0.1421 0.70503,0.42629c0.13117,0.28419 0.19674,0.70503 0.19674,1.26249c0,0.13117 -0.01093,0.27327 -0.03279,0.42629c-0.01093,0.1421 -0.03279,0.27327 -0.06558,0.39351l-0.03279,-0.32791c0.26233,-0.7105 0.66678,-1.26249 1.2133,-1.656c0.54653,-0.40443 1.12586,-0.60665 1.73798,-0.60665c0.6777,0 1.24062,0.19129 1.68879,0.57387c0.45909,0.38257 0.79794,0.91818 1.01655,1.60681c0.22955,0.68863 0.34432,1.50297 0.34432,2.443c0,0.57933 -0.02732,1.15319 -0.08198,1.72158c-0.04372,0.55746 -0.1093,1.0712 -0.19674,1.54122c-0.07651,0.45909 -0.16396,0.8362 -0.26233,1.13133c-0.13117,0.37164 -0.30059,0.65038 -0.50827,0.8362c-0.20768,0.1749 -0.45362,0.26233 -0.73782,0.26233c-0.28419,0 -0.50281,-0.10384 -0.65584,-0.31152c-0.15303,-0.20768 -0.22955,-0.48642 -0.22955,-0.8362c0,-0.37164 0.02732,-0.8198 0.08198,-1.34447c0.05465,-0.53561 0.10384,-1.07667 0.14756,-1.6232c0.05465,-0.55746 0.08198,-1.06027 0.08198,-1.50843c0,-1.5303 -0.50281,-2.29544 -1.50843,-2.29544c-0.53561,0 -0.98375,0.24047 -1.34447,0.72142c-0.36072,0.47002 -0.60119,1.14226 -0.72142,2.01671c-0.03279,0.29513 -0.04919,0.66131 -0.04919,1.09853c0,0.43723 0,0.87446 0,1.31169c0.01093,0.42629 0,0.78701 -0.03279,1.08214c-0.04372,0.65584 -0.16942,1.12586 -0.3771,1.41006c-0.19674,0.28419 -0.47002,0.42629 -0.8198,0.42629c-0.40443,0 -0.7105,-0.18582 -0.91818,-0.55746c-0.20768,-0.38257 -0.31152,-1.02201 -0.31152,-1.91834c0,-0.45909 0.01093,-0.97283 0.03279,-1.54122c0.02186,-0.5684 0.04919,-1.13679 0.08198,-1.70518c0.04372,-0.57933 0.09291,-1.104 0.14756,-1.57402c0.1093,-0.88538 0.26781,-1.58494 0.47548,-2.09868c0.20768,-0.52468 0.5192,-0.78701 0.93457,-0.78701zM271.17461,188.01764c-0.43723,0 -0.83074,-0.09291 -1.18052,-0.27874c-0.34978,-0.18582 -0.62851,-0.42083 -0.8362,-0.70503c-0.20768,-0.28419 -0.31152,-0.57387 -0.31152,-0.86899c0,-0.25141 0.06558,-0.44816 0.19674,-0.59025c0.13117,-0.1421 0.30059,-0.21315 0.50827,-0.21315c0.36072,0 0.74875,0.13664 1.16411,0.4099c0.41536,0.27327 0.80887,0.65038 1.18052,1.13133l-0.24594,-0.03279c-0.18582,-1.5303 -0.32791,-2.99501 -0.42629,-4.39412c-0.08745,-1.41006 -0.13117,-2.67255 -0.13117,-3.78747c0,-1.01655 0.08198,-1.77624 0.24594,-2.27904c0.1749,-0.51374 0.45909,-0.77061 0.85259,-0.77061c0.44816,0 0.8034,0.34978 1.06574,1.04935c0.26233,0.69956 0.39351,1.88007 0.39351,3.54154c0,0.73236 -0.02186,1.48657 -0.06558,2.26265c-0.04372,0.76514 -0.1093,1.49203 -0.19674,2.18066c-0.07651,0.68863 -0.18582,1.26796 -0.32791,1.73798c-0.1749,0.5684 -0.41536,0.97829 -0.72142,1.2297c-0.29513,0.25141 -0.68316,0.3771 -1.16411,0.3771zM271.92883,174.27779c-0.34978,0 -0.63397,-0.07651 -0.85259,-0.22955c-0.20768,-0.16396 -0.31152,-0.4099 -0.31152,-0.73782c0,-0.37164 0.1257,-0.68316 0.3771,-0.93457c0.26233,-0.26234 0.62851,-0.39351 1.09853,-0.39351c0.39351,0 0.6941,0.09838 0.90178,0.29513c0.20768,0.18582 0.31152,0.43723 0.31152,0.75422c0,0.39351 -0.1421,0.69956 -0.42629,0.91818c-0.28419,0.21861 -0.65038,0.32791 -1.09853,0.32791zM282.8211,184.77123c-0.37164,0 -0.62851,-0.1421 -0.77061,-0.42629c-0.13117,-0.29513 -0.20768,-0.75968 -0.22955,-1.39366l0.16396,0.08198c-0.61212,1.19144 -1.77077,1.78717 -3.47595,1.78717c-0.77607,0 -1.42098,-0.13664 -1.93472,-0.4099c-0.51374,-0.28419 -0.89632,-0.65584 -1.14771,-1.11493c-0.24047,-0.47002 -0.36072,-0.97829 -0.36072,-1.52483c0,-0.94004 0.32791,-1.68333 0.98375,-2.22985c0.65584,-0.55746 1.52483,-0.8362 2.60697,-0.8362c0.7105,0 1.32807,0.10384 1.85275,0.31152c0.52468,0.20768 0.97283,0.49734 1.34447,0.86899l-0.27874,-0.03279c-0.07651,-1.104 -0.317,-1.891 -0.72142,-2.36102c-0.39351,-0.48095 -0.95643,-0.72142 -1.68879,-0.72142c-0.42629,0 -0.8198,0.06558 -1.18052,0.19674c-0.36072,0.13117 -0.6941,0.26781 -1.00016,0.4099c-0.29513,0.13117 -0.57387,0.19674 -0.8362,0.19674c-0.26233,0 -0.47002,-0.08745 -0.62305,-0.26233c-0.1421,-0.1749 -0.21315,-0.39897 -0.21315,-0.67223c0,-0.39351 0.18582,-0.76514 0.55746,-1.11493c0.38257,-0.34978 0.88538,-0.63397 1.50843,-0.85259c0.62305,-0.21861 1.30075,-0.32791 2.03311,-0.32791c0.88538,0 1.64507,0.21315 2.27904,0.63945c0.63397,0.42629 1.11493,1.04935 1.44285,1.86915c0.28419,0.69956 0.48642,1.48111 0.60665,2.34463c0.12023,0.86352 0.18036,1.78717 0.18036,2.77092c0,0.74329 -0.03826,1.31714 -0.11477,1.72158c-0.07651,0.40443 -0.19674,0.68863 -0.36072,0.85259c-0.15303,0.15303 -0.36072,0.22955 -0.62305,0.22955zM279.19759,182.93487c0.36072,0 0.72688,-0.04919 1.09853,-0.14756c0.37164,-0.1093 0.68316,-0.26781 0.93457,-0.47548c0.25141,-0.20768 0.3771,-0.46455 0.3771,-0.77061c0,-0.26233 -0.1093,-0.47548 -0.32791,-0.63945c-0.20768,-0.1749 -0.48642,-0.30606 -0.8362,-0.39351c-0.33885,-0.08745 -0.70503,-0.13117 -1.09853,-0.13117c-0.66678,0 -1.17505,0.11477 -1.52483,0.34432c-0.33885,0.22955 -0.50827,0.53561 -0.50827,0.91818c0,0.41536 0.15849,0.73782 0.47548,0.96737c0.32791,0.21861 0.79794,0.32791 1.41006,0.32791zM287.59193,174.40896c0.34978,0 0.58478,0.1421 0.70503,0.42629c0.13117,0.28419 0.19674,0.70503 0.19674,1.26249c0,0.13117 -0.01093,0.27327 -0.03279,0.42629c-0.01093,0.1421 -0.03279,0.27327 -0.06558,0.39351l-0.03279,-0.32791c0.26233,-0.7105 0.66678,-1.26249 1.2133,-1.656c0.54653,-0.40443 1.12586,-0.60665 1.73798,-0.60665c0.6777,0 1.24062,0.19129 1.68879,0.57387c0.45909,0.38257 0.79794,0.91818 1.01655,1.60681c0.22955,0.68863 0.34432,1.50297 0.34432,2.443c0,0.57933 -0.02732,1.15319 -0.08198,1.72158c-0.04372,0.55746 -0.1093,1.0712 -0.19674,1.54122c-0.07651,0.45909 -0.16396,0.8362 -0.26233,1.13133c-0.13117,0.37164 -0.30059,0.65038 -0.50827,0.8362c-0.20768,0.1749 -0.45362,0.26233 -0.73782,0.26233c-0.28419,0 -0.50281,-0.10384 -0.65584,-0.31152c-0.15303,-0.20768 -0.22955,-0.48642 -0.22955,-0.8362c0,-0.37164 0.02732,-0.8198 0.08198,-1.34447c0.05465,-0.53561 0.10384,-1.07667 0.14756,-1.6232c0.05465,-0.55746 0.08198,-1.06027 0.08198,-1.50843c0,-1.5303 -0.50281,-2.29544 -1.50843,-2.29544c-0.53561,0 -0.98375,0.24047 -1.34447,0.72142c-0.36072,0.47002 -0.60119,1.14226 -0.72142,2.01671c-0.03279,0.29513 -0.04919,0.66131 -0.04919,1.09853c0,0.43723 0,0.87446 0,1.31169c0.01093,0.42629 0,0.78701 -0.03279,1.08214c-0.04372,0.65584 -0.16942,1.12586 -0.3771,1.41006c-0.19674,0.28419 -0.47002,0.42629 -0.8198,0.42629c-0.40443,0 -0.7105,-0.18582 -0.91818,-0.55746c-0.20768,-0.38257 -0.31152,-1.02201 -0.31152,-1.91834c0,-0.45909 0.01093,-0.97283 0.03279,-1.54122c0.02186,-0.5684 0.04919,-1.13679 0.08198,-1.70518c0.04372,-0.57933 0.09291,-1.104 0.14756,-1.57402c0.1093,-0.88538 0.26781,-1.58494 0.47548,-2.09868c0.20768,-0.52468 0.5192,-0.78701 0.93457,-0.78701zM299.49077,184.34493c-1.02748,0 -1.86368,-0.39351 -2.50859,-1.18052c-0.64491,-0.79794 -0.96737,-2.00578 -0.96737,-3.62351c0,-1.72704 0.31152,-2.98954 0.93457,-3.78747c0.62305,-0.79794 1.44285,-1.19691 2.4594,-1.19691c0.60119,0 1.13133,0.15303 1.59042,0.45909c0.45909,0.30606 0.85259,0.73782 1.18052,1.29529l-0.13117,0.22955c-0.03279,-0.15303 -0.06013,-0.317 -0.08198,-0.49188c-0.02186,-0.1749 -0.03279,-0.30606 -0.03279,-0.39351c0,-0.44816 0.07105,-0.79248 0.21315,-1.03295c0.15303,-0.25141 0.38804,-0.3771 0.70503,-0.3771c0.34978,0 0.62305,0.1421 0.8198,0.42629c0.20768,0.28419 0.36618,0.68863 0.47548,1.2133c0.1421,0.53561 0.26233,1.21878 0.36072,2.0495c0.09838,0.8198 0.14756,1.65053 0.14756,2.49219c0,1.04935 -0.03826,1.92926 -0.11477,2.63976c-0.07651,0.7105 -0.20222,1.30075 -0.3771,1.77077c-0.1749,0.47002 -0.40443,0.87992 -0.68863,1.2297c-0.47002,0.5684 -1.07667,1.00016 -1.81995,1.29529c-0.73236,0.30606 -1.57948,0.45909 -2.54138,0.45909c-0.68863,0 -1.24062,-0.06558 -1.656,-0.19674c-0.41536,-0.12023 -0.71596,-0.28966 -0.90178,-0.50827c-0.1749,-0.20768 -0.26233,-0.44269 -0.26233,-0.70503c0,-0.27327 0.07651,-0.50281 0.22955,-0.68863c0.15303,-0.1749 0.38257,-0.26233 0.68863,-0.26233c0.27327,0 0.59025,0.04372 0.95097,0.13117c0.37164,0.08745 0.80887,0.13117 1.31169,0.13117c1.06027,0 1.80903,-0.25141 2.24625,-0.75422c0.44816,-0.49188 0.67223,-1.20237 0.67223,-2.13149c0,-0.25141 -0.0164,-0.54653 -0.04919,-0.88538l0.22955,0.08198c-0.27327,0.69956 -0.6777,1.26249 -1.2133,1.68879c-0.53561,0.41536 -1.15865,0.62305 -1.86915,0.62305zM300.11383,182.32822c0.34978,0 0.69956,-0.09291 1.04935,-0.27874c0.34978,-0.18582 0.63945,-0.49188 0.86899,-0.91818c0.22955,-0.42629 0.34432,-1.00016 0.34432,-1.72158c0,-0.86352 -0.20222,-1.56856 -0.60665,-2.11508c-0.40443,-0.54653 -0.97283,-0.8198 -1.70518,-0.8198c-0.63397,0 -1.09853,0.24047 -1.39366,0.72142c-0.29513,0.48095 -0.44269,1.20784 -0.44269,2.18066c0,0.9291 0.14756,1.656 0.44269,2.18066c0.29513,0.51374 0.77607,0.77061 1.44285,0.77061z"/></g></g></svg>