<svg xmlns="http://www.w3.org/2000/svg" fill="none" viewBox="0 0 53 16" height="16" width="53">
<rect stroke="black" fill="#AF99A9" rx="4.5" height="15" width="52" y="0.5" x="0.5"></rect>
<path fill="black" d="M7.82655 6.325C7.92322 6.325 7.99655 6.35833 8.04655 6.425C8.09655 6.48833 8.12155 6.59333 8.12155 6.74C8.12155 6.92333 8.09988 7.13 8.05655 7.36C8.01322 7.59 7.95155 7.80833 7.87155 8.015L7.79155 7.915C8.05822 7.85833 8.33488 7.83167 8.62155 7.835C8.90822 7.83833 9.16822 7.87167 9.40155 7.935L9.31155 7.98C9.26822 7.75667 9.23488 7.535 9.21155 7.315C9.19155 7.095 9.18155 6.9 9.18155 6.73C9.18155 6.57333 9.20488 6.46167 9.25155 6.395C9.29822 6.32833 9.37322 6.295 9.47655 6.295C9.58322 6.295 9.66655 6.33333 9.72655 6.41C9.78655 6.48333 9.83322 6.6 9.86655 6.76C9.90322 6.92667 9.93155 7.12833 9.95155 7.365C9.97488 7.59833 9.98655 7.83833 9.98655 8.085C9.98655 8.32833 9.97988 8.57667 9.96655 8.83C9.95322 9.08333 9.92822 9.31833 9.89155 9.535C9.86155 9.70833 9.81322 9.83333 9.74655 9.91C9.67988 9.98667 9.58822 10.025 9.47155 10.025C9.35155 10.025 9.26488 9.98667 9.21155 9.91C9.16155 9.83333 9.13655 9.69 9.13655 9.48C9.13655 9.27667 9.15155 9.065 9.18155 8.845C9.21488 8.625 9.25988 8.40833 9.31655 8.195L9.42155 8.35C9.16822 8.40333 8.90322 8.43 8.62655 8.43C8.35322 8.42667 8.08655 8.4 7.82655 8.35L7.83655 8.18C7.90322 8.39667 7.96488 8.62 8.02155 8.85C8.08155 9.08 8.11155 9.31 8.11155 9.54C8.11155 9.72333 8.07988 9.85333 8.01655 9.93C7.95322 10.0033 7.86322 10.04 7.74655 10.04C7.64655 10.04 7.56655 10.0117 7.50655 9.955C7.44655 9.89833 7.40322 9.79333 7.37655 9.64C7.34988 9.49 7.32822 9.30333 7.31155 9.08C7.29488 8.85333 7.28655 8.615 7.28655 8.365C7.28655 8.06833 7.29988 7.78 7.32655 7.5C7.35322 7.22 7.38822 6.98 7.43155 6.78C7.46488 6.62333 7.51322 6.50833 7.57655 6.435C7.63988 6.36167 7.72322 6.325 7.82655 6.325ZM12.8059 10.05C12.6926 10.05 12.6143 10.0067 12.5709 9.92C12.5309 9.83 12.5076 9.68833 12.5009 9.495L12.5509 9.52C12.3643 9.88333 12.0109 10.065 11.4909 10.065C11.2543 10.065 11.0576 10.0233 10.9009 9.94C10.7443 9.85333 10.6276 9.74 10.5509 9.6C10.4776 9.45667 10.4409 9.30167 10.4409 9.135C10.4409 8.84833 10.5409 8.62167 10.7409 8.455C10.9409 8.285 11.2059 8.2 11.5359 8.2C11.7526 8.2 11.9409 8.23167 12.1009 8.295C12.2609 8.35833 12.3976 8.44667 12.5109 8.56L12.4259 8.55C12.4026 8.21333 12.3293 7.97333 12.2059 7.83C12.0859 7.68333 11.9143 7.61 11.6909 7.61C11.5609 7.61 11.4409 7.63 11.3309 7.67C11.2209 7.71 11.1193 7.75167 11.0259 7.795C10.9359 7.835 10.8509 7.855 10.7709 7.855C10.6909 7.855 10.6276 7.82833 10.5809 7.775C10.5376 7.72167 10.5159 7.65333 10.5159 7.57C10.5159 7.45 10.5726 7.33667 10.6859 7.23C10.8026 7.12333 10.9559 7.03667 11.1459 6.97C11.3359 6.90333 11.5426 6.87 11.7659 6.87C12.0359 6.87 12.2676 6.935 12.4609 7.065C12.6543 7.195 12.8009 7.385 12.9009 7.635C12.9876 7.84833 13.0493 8.08667 13.0859 8.35C13.1226 8.61333 13.1409 8.895 13.1409 9.195C13.1409 9.42167 13.1293 9.59667 13.1059 9.72C13.0826 9.84333 13.0459 9.93 12.9959 9.98C12.9493 10.0267 12.8859 10.05 12.8059 10.05ZM11.7009 9.49C11.8109 9.49 11.9226 9.475 12.0359 9.445C12.1493 9.41167 12.2443 9.36333 12.3209 9.3C12.3976 9.23667 12.4359 9.15833 12.4359 9.065C12.4359 8.985 12.4026 8.92 12.3359 8.87C12.2726 8.81667 12.1876 8.77667 12.0809 8.75C11.9776 8.72333 11.8659 8.71 11.7459 8.71C11.5426 8.71 11.3876 8.745 11.2809 8.815C11.1776 8.885 11.1259 8.97833 11.1259 9.095C11.1259 9.22167 11.1743 9.32 11.2709 9.39C11.3709 9.45667 11.5143 9.49 11.7009 9.49ZM14.0908 6.9C14.1808 6.9 14.2558 6.95333 14.3158 7.06C14.3758 7.16333 14.4175 7.32833 14.4408 7.555L14.3358 7.65C14.3958 7.41667 14.5075 7.23833 14.6708 7.115C14.8341 6.99167 15.0275 6.93 15.2508 6.93C15.4575 6.93 15.6408 6.98333 15.8008 7.09C15.9608 7.19667 16.0858 7.35833 16.1758 7.575C16.2691 7.78833 16.3158 8.05667 16.3158 8.38C16.3158 8.90333 16.2208 9.29 16.0308 9.54C15.8441 9.78667 15.5891 9.91 15.2658 9.91C15.0325 9.91 14.8491 9.86 14.7158 9.76C14.5825 9.66 14.4891 9.53833 14.4358 9.395L14.4958 9.365C14.5225 9.565 14.5441 9.76333 14.5608 9.96C14.5808 10.1533 14.5908 10.3233 14.5908 10.47C14.5908 10.62 14.5641 10.7467 14.5108 10.85C14.4575 10.9533 14.3725 11.005 14.2558 11.005C14.1425 11.005 14.0575 10.9617 14.0008 10.875C13.9441 10.7883 13.9025 10.6733 13.8758 10.53C13.8558 10.3833 13.8358 10.195 13.8158 9.965C13.7958 9.735 13.7791 9.48667 13.7658 9.22C13.7558 8.95333 13.7508 8.69333 13.7508 8.44C13.7508 8.18 13.7591 7.93667 13.7758 7.71C13.7958 7.48 13.8191 7.29333 13.8458 7.15C13.8691 7.06667 13.8991 7.005 13.9358 6.965C13.9758 6.92167 14.0275 6.9 14.0908 6.9ZM15.0458 7.505C14.8658 7.505 14.7208 7.595 14.6108 7.775C14.5041 7.95167 14.4508 8.17833 14.4508 8.455C14.4508 8.73833 14.5041 8.95 14.6108 9.09C14.7208 9.23 14.8625 9.3 15.0358 9.3C15.2358 9.3 15.3791 9.22167 15.4658 9.065C15.5558 8.905 15.6008 8.69833 15.6008 8.445C15.6008 8.12167 15.5458 7.885 15.4358 7.735C15.3258 7.58167 15.1958 7.505 15.0458 7.505ZM19.0721 9.97C18.9821 9.97 18.9121 9.94 18.8621 9.88C18.8154 9.81667 18.7838 9.73667 18.7671 9.64C18.7504 9.54 18.7421 9.435 18.7421 9.325L18.7671 9.305C18.7338 9.44833 18.6688 9.57167 18.5721 9.675C18.4754 9.77833 18.3638 9.85833 18.2371 9.915C18.1104 9.96833 17.9838 9.995 17.8571 9.995C17.6871 9.995 17.5321 9.955 17.3921 9.875C17.2521 9.795 17.1438 9.67167 17.0671 9.505C16.9904 9.32833 16.9304 9.10667 16.8871 8.84C16.8438 8.57 16.8221 8.29333 16.8221 8.01C16.8221 7.85667 16.8288 7.715 16.8421 7.585C16.8554 7.455 16.8771 7.34833 16.9071 7.265C16.9338 7.17833 16.9738 7.115 17.0271 7.075C17.0804 7.03167 17.1488 7.01 17.2321 7.01C17.3288 7.01 17.4038 7.04833 17.4571 7.125C17.5138 7.19833 17.5488 7.30167 17.5621 7.435C17.5754 7.545 17.5838 7.68167 17.5871 7.845C17.5938 8.005 17.5988 8.16667 17.6021 8.33C17.6088 8.49 17.6171 8.625 17.6271 8.735C17.6471 8.935 17.6988 9.08333 17.7821 9.18C17.8654 9.27333 17.9671 9.32 18.0871 9.32C18.2638 9.32 18.3988 9.25333 18.4921 9.12C18.5854 8.98667 18.6321 8.8 18.6321 8.56C18.6321 8.44 18.6254 8.305 18.6121 8.155C18.5988 8.00167 18.5838 7.85333 18.5671 7.71C18.5538 7.56667 18.5471 7.44833 18.5471 7.355C18.5471 7.19833 18.5738 7.08667 18.6271 7.02C18.6804 6.95 18.7538 6.915 18.8471 6.915C18.9271 6.915 18.9938 6.93667 19.0471 6.98C19.1038 7.02333 19.1488 7.08333 19.1821 7.16C19.2288 7.26 19.2688 7.39667 19.3021 7.57C19.3354 7.74333 19.3621 7.94 19.3821 8.16C19.4021 8.38 19.4121 8.61167 19.4121 8.855C19.4121 9.22833 19.3871 9.50833 19.3371 9.695C19.2871 9.87833 19.1988 9.97 19.0721 9.97ZM21.2853 6.87C21.582 6.87 21.7953 6.91333 21.9253 7C22.0553 7.08667 22.1203 7.19833 22.1203 7.335C22.1203 7.415 22.092 7.48167 22.0353 7.535C21.982 7.585 21.9053 7.61 21.8053 7.61C21.702 7.61 21.5937 7.595 21.4803 7.565C21.3703 7.535 21.242 7.52 21.0953 7.52C20.9253 7.52 20.7987 7.55333 20.7153 7.62C20.632 7.68667 20.5903 7.77167 20.5903 7.875C20.5903 7.97167 20.627 8.04833 20.7003 8.105C20.777 8.15833 20.922 8.19833 21.1353 8.225C21.372 8.25167 21.567 8.295 21.7203 8.355C21.877 8.41167 21.9937 8.49833 22.0703 8.615C22.147 8.72833 22.1853 8.885 22.1853 9.085C22.1853 9.40167 22.0737 9.63667 21.8503 9.79C21.627 9.94333 21.3187 10.02 20.9253 10.02C20.6753 10.02 20.477 10 20.3303 9.96C20.1837 9.92 20.077 9.86333 20.0103 9.79C19.947 9.71667 19.9153 9.63 19.9153 9.53C19.9153 9.44333 19.9437 9.37667 20.0003 9.33C20.0603 9.28 20.1303 9.255 20.2103 9.255C20.287 9.255 20.3687 9.265 20.4553 9.285C20.542 9.30167 20.6337 9.32 20.7303 9.34C20.827 9.36 20.927 9.37 21.0303 9.37C21.3637 9.37 21.5303 9.26667 21.5303 9.06C21.5303 8.99 21.5137 8.93333 21.4803 8.89C21.447 8.84667 21.387 8.81167 21.3003 8.785C21.2137 8.755 21.087 8.73167 20.9203 8.715C20.7203 8.695 20.547 8.66167 20.4003 8.615C20.2537 8.565 20.1403 8.485 20.0603 8.375C19.9803 8.26167 19.9403 8.10667 19.9403 7.91C19.9403 7.6 20.057 7.35 20.2903 7.16C20.5237 6.96667 20.8553 6.87 21.2853 6.87ZM25.1172 7.03C24.9605 7.07667 24.8155 7.11333 24.6822 7.14C24.5489 7.16333 24.4239 7.175 24.3072 7.175C24.2005 7.175 24.1172 7.15333 24.0572 7.11C23.9972 7.06667 23.9672 7.00167 23.9672 6.915C23.9672 6.84167 23.9922 6.77167 24.0422 6.705C24.0922 6.63833 24.1689 6.57833 24.2722 6.525C24.3955 6.465 24.5522 6.415 24.7422 6.375C24.9322 6.335 25.1539 6.315 25.4072 6.315C25.5772 6.315 25.7255 6.32667 25.8522 6.35C25.9789 6.37 26.0789 6.395 26.1522 6.425C26.2489 6.465 26.3155 6.51167 26.3522 6.565C26.3922 6.615 26.4122 6.67333 26.4122 6.74C26.4122 6.82333 26.3822 6.89167 26.3222 6.945C26.2622 6.99833 26.1655 7.025 26.0322 7.025C25.9522 7.025 25.8689 7.02 25.7822 7.01C25.6989 7 25.6105 6.98667 25.5172 6.97L25.1172 7.03ZM25.4622 6.76C25.6322 6.97333 25.7639 7.22167 25.8572 7.505C25.9539 7.785 26.0022 8.07833 26.0022 8.385C26.0022 8.705 25.9572 8.99167 25.8672 9.245C25.7805 9.495 25.6405 9.69333 25.4472 9.84C25.2539 9.98333 24.9972 10.055 24.6772 10.055C24.2839 10.055 23.9889 9.945 23.7922 9.725C23.5955 9.505 23.4972 9.20333 23.4972 8.82C23.4972 8.63333 23.5205 8.475 23.5672 8.345C23.6172 8.215 23.6822 8.11667 23.7622 8.05C23.8422 7.98 23.9289 7.945 24.0222 7.945C24.1089 7.945 24.1739 7.97167 24.2172 8.025C24.2639 8.075 24.2872 8.14667 24.2872 8.24C24.2872 8.31667 24.2739 8.40167 24.2472 8.495C24.2239 8.585 24.2122 8.67333 24.2122 8.76C24.2122 8.98333 24.2505 9.14667 24.3272 9.25C24.4072 9.35 24.5339 9.4 24.7072 9.4C24.9372 9.4 25.0989 9.30667 25.1922 9.12C25.2889 8.93 25.3372 8.67167 25.3372 8.345C25.3372 8.10833 25.3122 7.87667 25.2622 7.65C25.2122 7.42333 25.1322 7.19167 25.0222 6.955L25.4622 6.76ZM29.012 10.05C28.8986 10.05 28.8203 10.0067 28.777 9.92C28.737 9.83 28.7136 9.68833 28.707 9.495L28.757 9.52C28.5703 9.88333 28.217 10.065 27.697 10.065C27.4603 10.065 27.2636 10.0233 27.107 9.94C26.9503 9.85333 26.8336 9.74 26.757 9.6C26.6836 9.45667 26.647 9.30167 26.647 9.135C26.647 8.84833 26.747 8.62167 26.947 8.455C27.147 8.285 27.412 8.2 27.742 8.2C27.9586 8.2 28.147 8.23167 28.307 8.295C28.467 8.35833 28.6036 8.44667 28.717 8.56L28.632 8.55C28.6086 8.21333 28.5353 7.97333 28.412 7.83C28.292 7.68333 28.1203 7.61 27.897 7.61C27.767 7.61 27.647 7.63 27.537 7.67C27.427 7.71 27.3253 7.75167 27.232 7.795C27.142 7.835 27.057 7.855 26.977 7.855C26.897 7.855 26.8336 7.82833 26.787 7.775C26.7436 7.72167 26.722 7.65333 26.722 7.57C26.722 7.45 26.7786 7.33667 26.892 7.23C27.0086 7.12333 27.162 7.03667 27.352 6.97C27.542 6.90333 27.7486 6.87 27.972 6.87C28.242 6.87 28.4736 6.935 28.667 7.065C28.8603 7.195 29.007 7.385 29.107 7.635C29.1936 7.84833 29.2553 8.08667 29.292 8.35C29.3286 8.61333 29.347 8.895 29.347 9.195C29.347 9.42167 29.3353 9.59667 29.312 9.72C29.2886 9.84333 29.252 9.93 29.202 9.98C29.1553 10.0267 29.092 10.05 29.012 10.05ZM27.907 9.49C28.017 9.49 28.1286 9.475 28.242 9.445C28.3553 9.41167 28.4503 9.36333 28.527 9.3C28.6036 9.23667 28.642 9.15833 28.642 9.065C28.642 8.985 28.6086 8.92 28.542 8.87C28.4786 8.81667 28.3936 8.77667 28.287 8.75C28.1836 8.72333 28.072 8.71 27.952 8.71C27.7486 8.71 27.5936 8.745 27.487 8.815C27.3836 8.885 27.332 8.97833 27.332 9.095C27.332 9.22167 27.3803 9.32 27.477 9.39C27.577 9.45667 27.7203 9.49 27.907 9.49ZM29.7769 7.97C29.7769 7.62333 29.8169 7.37333 29.8969 7.22C29.9802 7.06667 30.0885 6.99 30.2219 6.99C30.2985 6.99 30.3569 7.01833 30.3969 7.075C30.4402 7.12833 30.4702 7.20167 30.4869 7.295C30.5035 7.385 30.5119 7.48667 30.5119 7.6C30.5119 7.74333 30.5119 7.91167 30.5119 8.105C30.5152 8.295 30.5185 8.49167 30.5219 8.695C30.5285 8.895 30.5352 9.08167 30.5419 9.255H30.5619C30.6652 8.81833 30.7685 8.46 30.8719 8.18C30.9785 7.9 31.0869 7.69333 31.1969 7.56C31.3102 7.42333 31.4235 7.355 31.5369 7.355C31.6602 7.355 31.7769 7.42333 31.8869 7.56C32.0002 7.69333 32.1102 7.89667 32.2169 8.17C32.3269 8.44333 32.4385 8.78833 32.5519 9.205H32.5719C32.5819 8.91833 32.5885 8.61667 32.5919 8.3C32.5952 7.98333 32.5969 7.69333 32.5969 7.43C32.5969 7.24 32.6285 7.1 32.6919 7.01C32.7552 6.92 32.8435 6.875 32.9569 6.875C33.1002 6.875 33.2035 6.95 33.2669 7.1C33.3335 7.24667 33.3669 7.445 33.3669 7.695C33.3669 7.87833 33.3569 8.075 33.3369 8.285C33.3202 8.49167 33.2952 8.69167 33.2619 8.885C33.2285 9.07833 33.1885 9.24667 33.1419 9.39C33.0719 9.60333 32.9935 9.765 32.9069 9.875C32.8235 9.985 32.7135 10.04 32.5769 10.04C32.4535 10.04 32.3302 9.96833 32.2069 9.825C32.0869 9.67833 31.9735 9.46 31.8669 9.17C31.7602 8.88 31.6619 8.51833 31.5719 8.085H31.5519C31.4652 8.49833 31.3619 8.845 31.2419 9.125C31.1252 9.40167 31.0002 9.61 30.8669 9.75C30.7369 9.89 30.6069 9.96 30.4769 9.96C30.3402 9.96 30.2252 9.89833 30.1319 9.775C30.0419 9.65167 29.9669 9.46167 29.9069 9.205C29.8802 9.075 29.8569 8.93667 29.8369 8.79C29.8169 8.64 29.8019 8.49333 29.7919 8.35C29.7819 8.20667 29.7769 8.08 29.7769 7.97ZM35.9798 10.05C35.8664 10.05 35.7881 10.0067 35.7448 9.92C35.7048 9.83 35.6814 9.68833 35.6748 9.495L35.7248 9.52C35.5381 9.88333 35.1848 10.065 34.6648 10.065C34.4281 10.065 34.2314 10.0233 34.0748 9.94C33.9181 9.85333 33.8014 9.74 33.7248 9.6C33.6514 9.45667 33.6148 9.30167 33.6148 9.135C33.6148 8.84833 33.7148 8.62167 33.9148 8.455C34.1148 8.285 34.3798 8.2 34.7098 8.2C34.9264 8.2 35.1148 8.23167 35.2748 8.295C35.4348 8.35833 35.5714 8.44667 35.6848 8.56L35.5998 8.55C35.5764 8.21333 35.5031 7.97333 35.3798 7.83C35.2598 7.68333 35.0881 7.61 34.8648 7.61C34.7348 7.61 34.6148 7.63 34.5048 7.67C34.3948 7.71 34.2931 7.75167 34.1998 7.795C34.1098 7.835 34.0248 7.855 33.9448 7.855C33.8648 7.855 33.8014 7.82833 33.7548 7.775C33.7114 7.72167 33.6898 7.65333 33.6898 7.57C33.6898 7.45 33.7464 7.33667 33.8598 7.23C33.9764 7.12333 34.1298 7.03667 34.3198 6.97C34.5098 6.90333 34.7164 6.87 34.9398 6.87C35.2098 6.87 35.4414 6.935 35.6348 7.065C35.8281 7.195 35.9748 7.385 36.0748 7.635C36.1614 7.84833 36.2231 8.08667 36.2598 8.35C36.2964 8.61333 36.3148 8.895 36.3148 9.195C36.3148 9.42167 36.3031 9.59667 36.2798 9.72C36.2564 9.84333 36.2198 9.93 36.1698 9.98C36.1231 10.0267 36.0598 10.05 35.9798 10.05ZM34.8748 9.49C34.9848 9.49 35.0964 9.475 35.2098 9.445C35.3231 9.41167 35.4181 9.36333 35.4948 9.3C35.5714 9.23667 35.6098 9.15833 35.6098 9.065C35.6098 8.985 35.5764 8.92 35.5098 8.87C35.4464 8.81667 35.3614 8.77667 35.2548 8.75C35.1514 8.72333 35.0398 8.71 34.9198 8.71C34.7164 8.71 34.5614 8.745 34.4548 8.815C34.3514 8.885 34.2998 8.97833 34.2998 9.095C34.2998 9.22167 34.3481 9.32 34.4448 9.39C34.5448 9.45667 34.6881 9.49 34.8748 9.49ZM37.3046 10.05C37.2313 10.05 37.1713 10.025 37.1246 9.975C37.0813 9.925 37.0463 9.85333 37.0196 9.76C36.993 9.62333 36.9696 9.445 36.9496 9.225C36.933 9.00167 36.9246 8.76333 36.9246 8.51C36.9246 8.36667 36.928 8.205 36.9346 8.025C36.9413 7.845 36.9496 7.66333 36.9596 7.48C36.973 7.29333 36.9863 7.12 36.9996 6.96C37.0163 6.8 37.033 6.67 37.0496 6.57C37.0763 6.42333 37.1146 6.30833 37.1646 6.225C37.218 6.13833 37.3013 6.095 37.4146 6.095C37.5313 6.095 37.6163 6.14 37.6696 6.23C37.723 6.31667 37.7496 6.425 37.7496 6.555C37.7496 6.70167 37.738 6.875 37.7146 7.075C37.6946 7.275 37.663 7.47833 37.6196 7.685L37.5196 7.805C37.5563 7.665 37.6163 7.53667 37.6996 7.42C37.783 7.30333 37.888 7.21167 38.0146 7.145C38.1413 7.075 38.288 7.04 38.4546 7.04C38.7813 7.04 39.0413 7.15667 39.2346 7.39C39.4313 7.62 39.5296 7.98 39.5296 8.47C39.5296 8.81333 39.478 9.1 39.3746 9.33C39.2746 9.56 39.1363 9.73333 38.9596 9.85C38.7863 9.96333 38.588 10.02 38.3646 10.02C38.1546 10.02 37.973 9.95833 37.8196 9.835C37.6696 9.71167 37.573 9.53333 37.5296 9.3L37.5996 9.355C37.5863 9.595 37.553 9.77167 37.4996 9.885C37.4496 9.995 37.3846 10.05 37.3046 10.05ZM38.2196 9.44C38.3863 9.44 38.533 9.365 38.6596 9.215C38.7863 9.065 38.8496 8.83 38.8496 8.51C38.8496 8.24333 38.7996 8.02667 38.6996 7.86C38.603 7.69333 38.4396 7.61 38.2096 7.61C38.023 7.61 37.873 7.685 37.7596 7.835C37.6463 7.98167 37.5896 8.205 37.5896 8.505C37.5896 8.77833 37.6463 9.00333 37.7596 9.18C37.873 9.35333 38.0263 9.44 38.2196 9.44ZM42.22 10.05C42.1067 10.05 42.0283 10.0067 41.985 9.92C41.945 9.83 41.9217 9.68833 41.915 9.495L41.965 9.52C41.7783 9.88333 41.425 10.065 40.905 10.065C40.6683 10.065 40.4717 10.0233 40.315 9.94C40.1583 9.85333 40.0417 9.74 39.965 9.6C39.8917 9.45667 39.855 9.30167 39.855 9.135C39.855 8.84833 39.955 8.62167 40.155 8.455C40.355 8.285 40.62 8.2 40.95 8.2C41.1667 8.2 41.355 8.23167 41.515 8.295C41.675 8.35833 41.8117 8.44667 41.925 8.56L41.84 8.55C41.8167 8.21333 41.7433 7.97333 41.62 7.83C41.5 7.68333 41.3283 7.61 41.105 7.61C40.975 7.61 40.855 7.63 40.745 7.67C40.635 7.71 40.5333 7.75167 40.44 7.795C40.35 7.835 40.265 7.855 40.185 7.855C40.105 7.855 40.0417 7.82833 39.995 7.775C39.9517 7.72167 39.93 7.65333 39.93 7.57C39.93 7.45 39.9867 7.33667 40.1 7.23C40.2167 7.12333 40.37 7.03667 40.56 6.97C40.75 6.90333 40.9567 6.87 41.18 6.87C41.45 6.87 41.6817 6.935 41.875 7.065C42.0683 7.195 42.215 7.385 42.315 7.635C42.4017 7.84833 42.4633 8.08667 42.5 8.35C42.5367 8.61333 42.555 8.895 42.555 9.195C42.555 9.42167 42.5433 9.59667 42.52 9.72C42.4967 9.84333 42.46 9.93 42.41 9.98C42.3633 10.0267 42.3 10.05 42.22 10.05ZM41.115 9.49C41.225 9.49 41.3367 9.475 41.45 9.445C41.5633 9.41167 41.6583 9.36333 41.735 9.3C41.8117 9.23667 41.85 9.15833 41.85 9.065C41.85 8.985 41.8167 8.92 41.75 8.87C41.6867 8.81667 41.6017 8.77667 41.495 8.75C41.3917 8.72333 41.28 8.71 41.16 8.71C40.9567 8.71 40.8017 8.745 40.695 8.815C40.5917 8.885 40.54 8.97833 40.54 9.095C40.54 9.22167 40.5883 9.32 40.685 9.39C40.785 9.45667 40.9283 9.49 41.115 9.49ZM43.6749 6.89C43.7815 6.89 43.8532 6.93333 43.8899 7.02C43.9299 7.10667 43.9499 7.235 43.9499 7.405C43.9499 7.445 43.9465 7.48833 43.9399 7.535C43.9365 7.57833 43.9299 7.61833 43.9199 7.655L43.9099 7.555C43.9899 7.33833 44.1132 7.17 44.2799 7.05C44.4465 6.92667 44.6232 6.865 44.8099 6.865C45.0165 6.865 45.1882 6.92333 45.3249 7.04C45.4649 7.15667 45.5682 7.32 45.6349 7.53C45.7049 7.74 45.7399 7.98833 45.7399 8.275C45.7399 8.45167 45.7315 8.62667 45.7149 8.8C45.7015 8.97 45.6815 9.12667 45.6549 9.27C45.6315 9.41 45.6049 9.525 45.5749 9.615C45.5349 9.72833 45.4832 9.81333 45.4199 9.87C45.3565 9.92333 45.2815 9.95 45.1949 9.95C45.1082 9.95 45.0415 9.91833 44.9949 9.855C44.9482 9.79167 44.9249 9.70667 44.9249 9.6C44.9249 9.48667 44.9332 9.35 44.9499 9.19C44.9665 9.02667 44.9815 8.86167 44.9949 8.695C45.0115 8.525 45.0199 8.37167 45.0199 8.235C45.0199 7.76833 44.8665 7.535 44.5599 7.535C44.3965 7.535 44.2599 7.60833 44.1499 7.755C44.0399 7.89833 43.9665 8.10333 43.9299 8.37C43.9199 8.46 43.9149 8.57167 43.9149 8.705C43.9149 8.83833 43.9149 8.97167 43.9149 9.105C43.9182 9.235 43.9149 9.345 43.9049 9.435C43.8915 9.635 43.8532 9.77833 43.7899 9.865C43.7299 9.95167 43.6465 9.995 43.5399 9.995C43.4165 9.995 43.3232 9.93833 43.2599 9.825C43.1965 9.70833 43.1649 9.51333 43.1649 9.24C43.1649 9.1 43.1682 8.94333 43.1749 8.77C43.1815 8.59667 43.1899 8.42333 43.1999 8.25C43.2132 8.07333 43.2282 7.91333 43.2449 7.77C43.2782 7.5 43.3265 7.28667 43.3899 7.13C43.4532 6.97 43.5482 6.89 43.6749 6.89Z"></path>
</svg>
