<svg version="1.1" xmlns="http://www.w3.org/2000/svg" xmlns:xlink="http://www.w3.org/1999/xlink" width="44.13234" height="19.24408" viewBox="0,0,44.13234,19.24408"><g transform="translate(-217.93383,-170.37796)"><g data-paper-data="{&quot;isPaintingLayer&quot;:true}" fill-rule="nonzero" stroke-linecap="butt" stroke-linejoin="miter" stroke-miterlimit="10" stroke-dasharray="" stroke-dashoffset="0" style="mix-blend-mode: normal"><g><path d="" fill="#ececec" stroke="none" stroke-width="1"/><path d="" fill="none" stroke="#dcd6d6" stroke-width="1.5"/><path d="" fill="none" stroke="#dcd6d6" stroke-width="1.5"/><path d="" fill="none" stroke="#dcd6d6" stroke-width="1.5"/><path d="" fill="none" stroke="#dcd6d6" stroke-width="1.5"/><path d="" fill="none" stroke="#dcd6d6" stroke-width="1.5"/><path d="" fill="none" stroke="#dcd6d6" stroke-width="1.5"/><path d="" fill="none" stroke="#dcd6d6" stroke-width="1.5"/><path d="" fill="none" stroke="#dcd6d6" stroke-width="1.5"/><path d="" fill="none" stroke="#dcd6d6" stroke-width="1.5"/><path d="" fill="none" stroke="#dcd6d6" stroke-width="1.5"/><path d="" fill="none" stroke="#dcd6d6" stroke-width="1.5"/><path d="" fill="none" stroke="#dcd6d6" stroke-width="1.5"/><path d="" fill="none" stroke="#dcd6d6" stroke-width="1.5"/><path d="" fill="none" stroke="#dcd6d6" stroke-width="1.5"/><path d="" fill="none" stroke="#dcd6d6" stroke-width="1.5"/><path d="" fill="none" stroke="#dcd6d6" stroke-width="1.5"/><path d="" fill="none" stroke="#dcd6d6" stroke-width="1.5"/><path d="" fill="none" stroke="#dcd6d6" stroke-width="1.5"/><path d="" fill="none" stroke="#dcd6d6" stroke-width="1.5"/><path d="" fill="none" stroke="#dcd6d6" stroke-width="1.5"/><path d="" fill="none" stroke="#dcd6d6" stroke-width="1.5"/><path d="" fill="none" stroke="#dcd6d6" stroke-width="1.5"/><path d="" fill="none" stroke="#dcd6d6" stroke-width="1.5"/><path d="" fill="none" stroke="#dcd6d6" stroke-width="1.5"/><path d="" fill="none" stroke="#dcd6d6" stroke-width="1.5"/><path d="" fill="none" stroke="#dcd6d6" stroke-width="1.5"/><path d="" fill="none" stroke="#dcd6d6" stroke-width="1.5"/><path d="" fill="none" stroke="#dcd6d6" stroke-width="1.5"/><path d="" fill="none" stroke="#dcd6d6" stroke-width="1.5"/><path d="" fill="none" stroke="#dcd6d6" stroke-width="1.5"/><path d="" fill="none" stroke="#dcd6d6" stroke-width="1.5"/><path d="" fill="none" stroke="#dcd6d6" stroke-width="1.5"/><path d="" fill="none" stroke="#dcd6d6" stroke-width="1.5"/><path d="" fill="none" stroke="#dcd6d6" stroke-width="1.5"/><path d="" fill="none" stroke="#dcd6d6" stroke-width="1.5"/><path d="" fill="none" stroke="#dcd6d6" stroke-width="1.5"/><path d="" fill="none" stroke="#dcd6d6" stroke-width="1.5"/><path d="" fill="none" stroke="#dcd6d6" stroke-width="1.5"/><path d="" fill="none" stroke="#dcd6d6" stroke-width="1.5"/><path d="" fill="none" stroke="#dcd6d6" stroke-width="1.5"/><g><path d="" fill="#ebebeb" stroke="none" stroke-width="1"/><path d="" fill="none" stroke="#000000" stroke-width="0.5"/></g><path d="" fill="#737373" stroke="none" stroke-width="1"/><path d="" fill="#737373" stroke="none" stroke-width="1"/><path d="" fill="#737373" stroke="none" stroke-width="1"/><path d="" fill="#737373" stroke="none" stroke-width="1"/></g><path d="" fill="#000000" stroke="none" stroke-width="1"/><path d="" fill="#000000" stroke="none" stroke-width="1"/><path d="" fill="#a5a7a9" stroke="#000000" stroke-width="1"/><path d="" fill="#000000" stroke="none" stroke-width="1"/><path d="M221.33078,170.87796h37.33844c1.59976,0 2.89695,1.2254 2.89695,2.73661v12.77085c0,1.51122 -1.29719,2.73661 -2.89695,2.73661h-37.33844c-1.59976,0 -2.89695,-1.2254 -2.89695,-2.73661v-12.77085c0,-1.51122 1.29719,-2.73661 2.89695,-2.73661z" fill="#a5a7a9" stroke="#000000" stroke-width="1"/><path d="M231.604,177.98037c0.14614,0 0.29484,0.07784 0.44613,0.23413c0.15579,0.15143 0.31866,0.37887 0.48862,0.68233c0.16996,0.30346 0.35407,0.6799 0.55235,1.13053c0.20278,0.45063 0.42488,0.97241 0.66566,1.56534h0.02833c-0.03283,-0.21406 -0.06373,-0.44819 -0.09206,-0.7024c-0.02833,-0.2542 -0.05408,-0.51083 -0.0779,-0.76929c-0.02382,-0.25846 -0.04249,-0.49928 -0.05665,-0.72247c-0.00965,-0.22744 -0.01416,-0.42144 -0.01416,-0.58198c0,-0.37036 0.03541,-0.63124 0.10622,-0.78267c0.07532,-0.15629 0.1912,-0.23413 0.34699,-0.23413c0.1088,0 0.19571,0.02676 0.26201,0.08027c0.06631,0.05352 0.12296,0.13136 0.16996,0.23413c0.1088,0.24995 0.1867,0.59293 0.23369,1.03018c0.04699,0.43725 0.07082,0.93653 0.07082,1.49845c0,0.43239 -0.01867,0.8003 -0.05665,1.10377c-0.03798,0.30346 -0.10879,0.53272 -0.21245,0.68902c-0.10365,0.15629 -0.25493,0.23413 -0.45321,0.23413c-0.13197,0 -0.26652,-0.04926 -0.40364,-0.14717c-0.13712,-0.10278 -0.27618,-0.25177 -0.41781,-0.44819c-0.13712,-0.20069 -0.28068,-0.45063 -0.43197,-0.74923c-0.14614,-0.2986 -0.30192,-0.64645 -0.46738,-1.04356c-0.1603,-0.40137 -0.33026,-0.84957 -0.50987,-1.34459h-0.02833c0.03283,0.2317 0.06116,0.50596 0.08497,0.82281c0.02382,0.31684 0.04249,0.63976 0.05665,0.96998c0.01416,0.33022 0.02124,0.63307 0.02124,0.90977c0,0.41475 -0.04506,0.70909 -0.13455,0.88302c-0.08497,0.17393 -0.21952,0.26089 -0.40364,0.26089c-0.20278,0 -0.34957,-0.0894 -0.43905,-0.26758c-0.08497,-0.18305 -0.12746,-0.46401 -0.12746,-0.84288c0,-0.23657 0.0045,-0.50597 0.01416,-0.80943c0.01416,-0.30346 0.03283,-0.61544 0.05665,-0.93653c0.02382,-0.3211 0.05408,-0.62637 0.09206,-0.91646c0.04699,-0.36123 0.1133,-0.62212 0.19828,-0.78267c0.08497,-0.1648 0.22918,-0.24751 0.43197,-0.24751zM237.61292,182.79013c-0.52402,0 -0.94184,-0.07358 -1.25341,-0.22075c-0.31158,-0.14717 -0.53561,-0.3588 -0.67274,-0.6355c-0.13712,-0.2767 -0.20536,-0.60631 -0.20536,-0.99005c0,-0.4859 0.09463,-0.89883 0.28326,-1.23756c0.19377,-0.3436 0.45772,-0.60631 0.79312,-0.78936c0.33991,-0.18305 0.72488,-0.27427 1.15427,-0.27427c0.50536,0 0.87552,0.11129 1.11178,0.33448c0.23626,0.21832 0.35407,0.50597 0.35407,0.86294c0,0.28522 -0.08047,0.53272 -0.24077,0.74253c-0.15579,0.20494 -0.37274,0.36366 -0.65149,0.47495c-0.27875,0.11129 -0.59935,0.16723 -0.96308,0.16723c-0.20278,0 -0.39913,-0.02433 -0.58775,-0.07358c-0.18863,-0.04926 -0.35858,-0.11615 -0.50987,-0.20069l0.16996,-0.29434c-0.01416,0.10703 -0.02124,0.21406 -0.02124,0.3211c0,0.31197 0.10365,0.53759 0.31158,0.67564c0.20794,0.13379 0.50278,0.20069 0.88517,0.20069c0.29742,0 0.53562,-0.02433 0.71523,-0.07358c0.17961,-0.04926 0.33025,-0.09608 0.45321,-0.14048c0.12296,-0.04926 0.24334,-0.07358 0.36115,-0.07358c0.06631,0 0.12489,0.01764 0.17703,0.05352c0.05665,0.03101 0.10171,0.07784 0.13455,0.14048c0.03798,0.06264 0.05665,0.13805 0.05665,0.22745c0,0.13379 -0.07082,0.26332 -0.21245,0.38799c-0.14163,0.12041 -0.3515,0.22075 -0.63024,0.30102c-0.2736,0.07602 -0.61158,0.11372 -1.01265,0.11372zM237.2022,180.60266c0.3354,0 0.60449,-0.0669 0.80729,-0.20069c0.20278,-0.13379 0.3045,-0.29859 0.3045,-0.49502c0,-0.15629 -0.05665,-0.28339 -0.16996,-0.3813c-0.1088,-0.10278 -0.28068,-0.15386 -0.51694,-0.15386c-0.2221,0 -0.42232,0.04014 -0.60193,0.12041c-0.17446,0.07602 -0.31158,0.17636 -0.41072,0.30102c-0.09914,0.12467 -0.14871,0.26089 -0.14871,0.40806c0,0.12953 0.06373,0.22987 0.1912,0.30102c0.13197,0.0669 0.31416,0.10034 0.54527,0.10034zM240.28905,182.79681c-0.13262,0 -0.24592,-0.0444 -0.33991,-0.13379c-0.09464,-0.09365 -0.14163,-0.20981 -0.14163,-0.34785c0,-0.16055 0.06823,-0.33448 0.20536,-0.52178c0.13648,-0.19156 0.33477,-0.37887 0.59484,-0.56192c0.26395,-0.18305 0.5781,-0.3436 0.94183,-0.48165v-0.02676c-0.59999,-0.24082 -1.04097,-0.51083 -1.32423,-0.80943c-0.27875,-0.2986 -0.41781,-0.57286 -0.41781,-0.82281c0,-0.10278 0.02317,-0.18974 0.07082,-0.26089c0.0515,-0.07115 0.11781,-0.1271 0.19828,-0.16723c0.08497,-0.04014 0.17189,-0.0602 0.26201,-0.0602c0.19313,0 0.37982,0.06933 0.55943,0.20737c0.18412,0.13379 0.36308,0.32778 0.53819,0.58198c0.17446,0.24995 0.34442,0.55097 0.50987,0.90308h0.02833c0.24077,-0.61118 0.49055,-1.05451 0.75063,-1.33121c0.26395,-0.28096 0.53819,-0.42144 0.82144,-0.42144c0.13648,0 0.2427,0.04257 0.31866,0.1271c0.07532,0.08027 0.1133,0.18305 0.1133,0.30772c0,0.29434 -0.13455,0.58198 -0.40364,0.86294c-0.26909,0.28096 -0.67789,0.5461 -1.22508,0.79605v0.03345c0.50471,0.26332 0.88003,0.53759 1.12595,0.82281c0.24978,0.28096 0.37532,0.52847 0.37532,0.74253c0,0.13379 -0.04249,0.24082 -0.12746,0.3211c-0.08047,0.08027 -0.17703,0.12041 -0.29033,0.12041c-0.19828,0 -0.38239,-0.06933 -0.55235,-0.20737c-0.16996,-0.13805 -0.33089,-0.33022 -0.48154,-0.5753c-0.14678,-0.24995 -0.28583,-0.53517 -0.4178,-0.85626h-0.02833c-0.17511,0.40563 -0.35664,0.74011 -0.54527,1.00343c-0.18412,0.25846 -0.37081,0.45063 -0.55943,0.5753c-0.18926,0.12041 -0.37532,0.18061 -0.55943,0.18061zM245.74755,178.70953h-0.14163c-0.01416,-0.19643 -0.00901,-0.3813 0.01416,-0.55522c0.02382,-0.17819 0.07339,-0.3211 0.14871,-0.42813c0.08047,-0.11129 0.19377,-0.16723 0.33991,-0.16723c0.13262,0 0.22918,0.04014 0.29033,0.12041c0.0618,0.08027 0.09206,0.19156 0.09206,0.33448c0,0.28096 -0.05665,0.52178 -0.16996,0.72247l-0.12746,-0.01338c0.25493,-0.08453 0.54334,-0.1271 0.86393,-0.1271c0.20343,0 0.36373,0.03771 0.48154,0.11372c0.12296,0.07115 0.18412,0.19399 0.18412,0.36792c0,0.1648 -0.07082,0.29008 -0.21245,0.37461c-0.14163,0.08453 -0.31866,0.1271 -0.53111,0.1271c-0.12746,0 -0.26395,-0.00426 -0.41072,-0.01338c-0.14163,-0.01338 -0.28068,-0.03345 -0.41781,-0.0602l0.12039,-0.14048c0.04249,0.16967 0.08304,0.36366 0.12038,0.58198c0.04249,0.21406 0.08047,0.43725 0.11331,0.66895c0.03347,0.2317 0.05922,0.45732 0.0779,0.67564c0.01932,0.21832 0.02833,0.41475 0.02833,0.58868c0,0.28522 -0.04699,0.51083 -0.14163,0.67564c-0.09399,0.1648 -0.23369,0.24751 -0.41781,0.24751c-0.14614,0 -0.26201,-0.04257 -0.34699,-0.1271c-0.07983,-0.08453 -0.13905,-0.19156 -0.17703,-0.3211c-0.03283,-0.13379 -0.05408,-0.27184 -0.06373,-0.41475c-0.00451,-0.14291 -0.00709,-0.27184 -0.00709,-0.388c0,-0.19643 0.00965,-0.41718 0.02833,-0.66226c0.01932,-0.24995 0.04507,-0.50597 0.0779,-0.76929c0.03798,-0.26332 0.08047,-0.51753 0.12746,-0.76261l0.14163,0.11372c-0.24077,0.11616 -0.53819,0.17393 -0.89226,0.17393c-0.21695,0 -0.38433,-0.03771 -0.50278,-0.11372c-0.11781,-0.07602 -0.17704,-0.19399 -0.17704,-0.35454c0,-0.17393 0.06631,-0.30772 0.19828,-0.40137c0.13262,-0.09791 0.30965,-0.14717 0.53111,-0.14717c0.14678,0 0.28326,0.00912 0.41072,0.02676c0.13262,0.01338 0.24785,0.03101 0.34699,0.05351z" fill="#000000" stroke="none" stroke-width="1"/></g></g></svg>