<svg version="1.1" xmlns="http://www.w3.org/2000/svg" xmlns:xlink="http://www.w3.org/1999/xlink" width="288.217" height="25.35" viewBox="0,0,288.217,25.35"><g transform="translate(-96.16812,-164.13216)"><g data-paper-data="{&quot;isPaintingLayer&quot;:true}" fill-rule="nonzero" stroke-linecap="butt" stroke-linejoin="miter" stroke-miterlimit="10" stroke-dasharray="" stroke-dashoffset="0" style="mix-blend-mode: normal"><g><path d="" fill="#ececec" stroke="none" stroke-width="1"/><path d="" fill="none" stroke="#dcd6d6" stroke-width="1.5"/><path d="" fill="none" stroke="#dcd6d6" stroke-width="1.5"/><path d="" fill="none" stroke="#dcd6d6" stroke-width="1.5"/><path d="" fill="none" stroke="#dcd6d6" stroke-width="1.5"/><path d="" fill="none" stroke="#dcd6d6" stroke-width="1.5"/><path d="" fill="none" stroke="#dcd6d6" stroke-width="1.5"/><path d="" fill="none" stroke="#dcd6d6" stroke-width="1.5"/><path d="" fill="none" stroke="#dcd6d6" stroke-width="1.5"/><path d="" fill="none" stroke="#dcd6d6" stroke-width="1.5"/><path d="" fill="none" stroke="#dcd6d6" stroke-width="1.5"/><path d="" fill="none" stroke="#dcd6d6" stroke-width="1.5"/><path d="" fill="none" stroke="#dcd6d6" stroke-width="1.5"/><path d="" fill="none" stroke="#dcd6d6" stroke-width="1.5"/><path d="" fill="none" stroke="#dcd6d6" stroke-width="1.5"/><path d="" fill="none" stroke="#dcd6d6" stroke-width="1.5"/><path d="" fill="none" stroke="#dcd6d6" stroke-width="1.5"/><path d="" fill="none" stroke="#dcd6d6" stroke-width="1.5"/><path d="" fill="none" stroke="#dcd6d6" stroke-width="1.5"/><path d="" fill="none" stroke="#dcd6d6" stroke-width="1.5"/><path d="" fill="none" stroke="#dcd6d6" stroke-width="1.5"/><path d="" fill="none" stroke="#dcd6d6" stroke-width="1.5"/><path d="" fill="none" stroke="#dcd6d6" stroke-width="1.5"/><path d="" fill="none" stroke="#dcd6d6" stroke-width="1.5"/><path d="" fill="none" stroke="#dcd6d6" stroke-width="1.5"/><path d="" fill="none" stroke="#dcd6d6" stroke-width="1.5"/><path d="" fill="none" stroke="#dcd6d6" stroke-width="1.5"/><path d="" fill="none" stroke="#dcd6d6" stroke-width="1.5"/><path d="" fill="none" stroke="#dcd6d6" stroke-width="1.5"/><path d="" fill="none" stroke="#dcd6d6" stroke-width="1.5"/><path d="" fill="none" stroke="#dcd6d6" stroke-width="1.5"/><path d="" fill="none" stroke="#dcd6d6" stroke-width="1.5"/><path d="" fill="none" stroke="#dcd6d6" stroke-width="1.5"/><path d="" fill="none" stroke="#dcd6d6" stroke-width="1.5"/><path d="" fill="none" stroke="#dcd6d6" stroke-width="1.5"/><path d="" fill="none" stroke="#dcd6d6" stroke-width="1.5"/><path d="" fill="none" stroke="#dcd6d6" stroke-width="1.5"/><path d="" fill="none" stroke="#dcd6d6" stroke-width="1.5"/><path d="" fill="none" stroke="#dcd6d6" stroke-width="1.5"/><path d="" fill="none" stroke="#dcd6d6" stroke-width="1.5"/><path d="" fill="none" stroke="#dcd6d6" stroke-width="1.5"/><g><path d="" fill="#ebebeb" stroke="none" stroke-width="1"/><path d="" fill="none" stroke="#000000" stroke-width="0.5"/></g><path d="" fill="#737373" stroke="none" stroke-width="1"/><path d="" fill="#737373" stroke="none" stroke-width="1"/><path d="" fill="#737373" stroke="none" stroke-width="1"/><path d="" fill="#737373" stroke="none" stroke-width="1"/></g><path d="" fill="#a5a7a9" stroke="#000000" stroke-width="1"/><path d="" fill="#000000" stroke="none" stroke-width="1"/><path d="M97.75412,184.43816c-0.503,0 -0.893,-0.191 -1.17,-0.572c-0.277,-0.381 -0.416,-1.075 -0.416,-2.08c0,-0.711 0.078,-1.56 0.234,-2.548c0.173,-1.005 0.407,-2.071 0.702,-3.198c0.295,-1.144 0.641,-2.279 1.04,-3.406c0.399,-1.144 0.832,-2.21 1.3,-3.198c0.52,-1.127 1.023,-2.002 1.508,-2.626c0.485,-0.641 0.979,-1.092 1.482,-1.352c0.503,-0.277 1.031,-0.416 1.586,-0.416c0.832,0 1.595,0.329 2.288,0.988c0.711,0.659 1.387,1.751 2.028,3.276c0.468,1.161 0.893,2.435 1.274,3.822c0.381,1.387 0.676,2.791 0.884,4.212c0.225,1.421 0.338,2.765 0.338,4.03c0,1.057 -0.182,1.837 -0.546,2.34c-0.347,0.485 -0.832,0.728 -1.456,0.728c-0.607,0 -1.075,-0.269 -1.404,-0.806c-0.329,-0.537 -0.563,-1.43 -0.702,-2.678c-0.069,-0.763 -0.104,-1.551 -0.104,-2.366c0,-0.832 0.035,-1.621 0.104,-2.366l0.442,2.002c-0.607,0.208 -1.369,0.347 -2.288,0.416c-0.901,0.052 -1.846,0.035 -2.834,-0.052c-0.971,-0.104 -1.881,-0.286 -2.73,-0.546l1.378,-1.768c0.017,0.832 -0.026,1.647 -0.13,2.444c-0.104,0.78 -0.225,1.499 -0.364,2.158c-0.139,0.763 -0.303,1.413 -0.494,1.95c-0.191,0.537 -0.442,0.945 -0.754,1.222c-0.295,0.26 -0.693,0.39 -1.196,0.39zM103.86412,175.57216c1.005,0 1.733,-0.147 2.184,-0.442c0.468,-0.312 0.702,-0.763 0.702,-1.352c0,-0.416 -0.078,-0.927 -0.234,-1.534c-0.139,-0.624 -0.338,-1.231 -0.598,-1.82c-0.26,-0.589 -0.563,-1.083 -0.91,-1.482c-0.329,-0.399 -0.693,-0.598 -1.092,-0.598c-0.381,0 -0.745,0.208 -1.092,0.624c-0.329,0.399 -0.624,0.901 -0.884,1.508c-0.26,0.607 -0.468,1.231 -0.624,1.872c-0.156,0.624 -0.234,1.161 -0.234,1.612c0,0.52 0.225,0.919 0.676,1.196c0.468,0.277 1.17,0.416 2.106,0.416zM114.96712,168.13616c0.468,0 0.858,0.277 1.17,0.832c0.312,0.537 0.528,1.395 0.65,2.574l-0.546,0.494c0.312,-1.213 0.892,-2.141 1.742,-2.782c0.849,-0.641 1.854,-0.962 3.016,-0.962c1.074,0 2.028,0.277 2.86,0.832c0.832,0.555 1.482,1.395 1.95,2.522c0.485,1.109 0.728,2.505 0.728,4.186c0,2.721 -0.494,4.732 -1.482,6.032c-0.971,1.283 -2.297,1.924 -3.978,1.924c-1.214,0 -2.167,-0.26 -2.86,-0.78c-0.694,-0.52 -1.179,-1.153 -1.456,-1.898l0.312,-0.156c0.138,1.04 0.251,2.071 0.338,3.094c0.104,1.005 0.156,1.889 0.156,2.652c0,0.78 -0.139,1.439 -0.416,1.976c-0.278,0.537 -0.72,0.806 -1.326,0.806c-0.59,0 -1.032,-0.225 -1.326,-0.676c-0.295,-0.451 -0.512,-1.049 -0.65,-1.794c-0.104,-0.763 -0.208,-1.742 -0.312,-2.938c-0.104,-1.196 -0.191,-2.487 -0.26,-3.874c-0.052,-1.387 -0.078,-2.739 -0.078,-4.056c0,-1.352 0.043,-2.617 0.13,-3.796c0.104,-1.196 0.225,-2.167 0.364,-2.912c0.121,-0.433 0.277,-0.754 0.468,-0.962c0.208,-0.225 0.476,-0.338 0.806,-0.338zM119.93312,171.28216c-0.936,0 -1.69,0.468 -2.262,1.404c-0.555,0.919 -0.832,2.097 -0.832,3.536c0,1.473 0.277,2.574 0.832,3.302c0.572,0.728 1.308,1.092 2.21,1.092c1.04,0 1.785,-0.407 2.236,-1.222c0.468,-0.832 0.702,-1.907 0.702,-3.224c0,-1.681 -0.286,-2.912 -0.858,-3.692c-0.572,-0.797 -1.248,-1.196 -2.028,-1.196zM140.53112,184.51616c-0.589,0 -0.996,-0.225 -1.222,-0.676c-0.208,-0.468 -0.329,-1.205 -0.364,-2.21l0.26,0.13c-0.97,1.889 -2.808,2.834 -5.512,2.834c-1.23,0 -2.253,-0.217 -3.068,-0.65c-0.814,-0.451 -1.421,-1.04 -1.82,-1.768c-0.381,-0.745 -0.572,-1.551 -0.572,-2.418c0,-1.491 0.52,-2.669 1.56,-3.536c1.04,-0.884 2.418,-1.326 4.134,-1.326c1.127,0 2.106,0.165 2.938,0.494c0.832,0.329 1.543,0.789 2.132,1.378l-0.442,-0.052c-0.121,-1.751 -0.502,-2.999 -1.144,-3.744c-0.624,-0.763 -1.516,-1.144 -2.678,-1.144c-0.676,0 -1.3,0.104 -1.872,0.312c-0.572,0.208 -1.1,0.425 -1.586,0.65c-0.468,0.208 -0.91,0.312 -1.326,0.312c-0.416,0 -0.745,-0.139 -0.988,-0.416c-0.225,-0.277 -0.338,-0.633 -0.338,-1.066c0,-0.624 0.295,-1.213 0.884,-1.768c0.607,-0.555 1.404,-1.005 2.392,-1.352c0.988,-0.347 2.063,-0.52 3.224,-0.52c1.404,0 2.609,0.338 3.614,1.014c1.006,0.676 1.768,1.664 2.288,2.964c0.451,1.109 0.772,2.349 0.962,3.718c0.191,1.369 0.286,2.834 0.286,4.394c0,1.179 -0.06,2.089 -0.182,2.73c-0.121,0.641 -0.312,1.092 -0.572,1.352c-0.242,0.243 -0.572,0.364 -0.988,0.364zM134.78512,181.60416c0.572,0 1.153,-0.078 1.742,-0.234c0.59,-0.173 1.084,-0.425 1.482,-0.754c0.399,-0.329 0.598,-0.737 0.598,-1.222c0,-0.416 -0.173,-0.754 -0.52,-1.014c-0.329,-0.277 -0.771,-0.485 -1.326,-0.624c-0.537,-0.139 -1.118,-0.208 -1.742,-0.208c-1.057,0 -1.863,0.182 -2.418,0.546c-0.537,0.364 -0.806,0.849 -0.806,1.456c0,0.659 0.252,1.17 0.754,1.534c0.52,0.347 1.266,0.52 2.236,0.52zM153.04212,164.88616c0.45,0 0.806,0.173 1.066,0.52c0.26,0.347 0.45,0.884 0.572,1.612c0.138,0.745 0.242,1.725 0.312,2.938c0.069,1.213 0.104,2.539 0.104,3.978c0,1.248 -0.044,2.444 -0.13,3.588c-0.07,1.144 -0.174,2.21 -0.312,3.198c-0.139,1.005 -0.356,1.707 -0.65,2.106c-0.295,0.399 -0.694,0.598 -1.196,0.598c-0.486,0 -0.867,-0.156 -1.144,-0.468c-0.26,-0.312 -0.442,-0.841 -0.546,-1.586c-0.104,-0.676 -0.191,-1.56 -0.26,-2.652c-0.052,-1.092 -0.078,-2.253 -0.078,-3.484c0,-1.699 0.052,-3.241 0.156,-4.628c0.104,-1.387 0.242,-2.539 0.416,-3.458c0.156,-0.78 0.355,-1.352 0.598,-1.716c0.26,-0.364 0.624,-0.546 1.092,-0.546zM162.78812,168.60416h-0.52c-0.052,-0.763 -0.035,-1.482 0.052,-2.158c0.087,-0.693 0.269,-1.248 0.546,-1.664c0.295,-0.433 0.711,-0.65 1.248,-0.65c0.485,0 0.841,0.156 1.066,0.468c0.225,0.312 0.338,0.745 0.338,1.3c0,1.092 -0.208,2.028 -0.624,2.808l-0.468,-0.052c0.936,-0.329 1.993,-0.494 3.172,-0.494c0.745,0 1.335,0.147 1.768,0.442c0.451,0.277 0.676,0.754 0.676,1.43c0,0.641 -0.26,1.127 -0.78,1.456c-0.52,0.329 -1.17,0.494 -1.95,0.494c-0.468,0 -0.971,-0.017 -1.508,-0.052c-0.52,-0.052 -1.031,-0.13 -1.534,-0.234l0.442,-0.546c0.156,0.659 0.303,1.413 0.442,2.262c0.156,0.832 0.295,1.699 0.416,2.6c0.121,0.901 0.217,1.777 0.286,2.626c0.069,0.849 0.104,1.612 0.104,2.288c0,1.109 -0.173,1.985 -0.52,2.626c-0.347,0.641 -0.858,0.962 -1.534,0.962c-0.537,0 -0.962,-0.165 -1.274,-0.494c-0.295,-0.329 -0.511,-0.745 -0.65,-1.248c-0.121,-0.52 -0.199,-1.057 -0.234,-1.612c-0.017,-0.555 -0.026,-1.057 -0.026,-1.508c0,-0.763 0.035,-1.621 0.104,-2.574c0.069,-0.971 0.165,-1.967 0.286,-2.99c0.139,-1.023 0.295,-2.011 0.468,-2.964l0.52,0.442c-0.884,0.451 -1.976,0.676 -3.276,0.676c-0.797,0 -1.413,-0.147 -1.846,-0.442c-0.433,-0.295 -0.65,-0.754 -0.65,-1.378c0,-0.676 0.243,-1.196 0.728,-1.56c0.485,-0.381 1.135,-0.572 1.95,-0.572c0.537,0 1.04,0.035 1.508,0.104c0.485,0.052 0.91,0.121 1.274,0.208zM183.85612,184.10016c-0.468,0 -0.832,-0.156 -1.092,-0.468c-0.243,-0.329 -0.408,-0.745 -0.494,-1.248c-0.087,-0.52 -0.13,-1.066 -0.13,-1.638l0.13,-0.104c-0.174,0.745 -0.512,1.387 -1.014,1.924c-0.503,0.537 -1.084,0.953 -1.742,1.248c-0.659,0.277 -1.318,0.416 -1.976,0.416c-0.884,0 -1.69,-0.208 -2.418,-0.624c-0.728,-0.416 -1.292,-1.057 -1.69,-1.924c-0.399,-0.919 -0.711,-2.071 -0.936,-3.458c-0.226,-1.404 -0.338,-2.843 -0.338,-4.316c0,-0.797 0.034,-1.534 0.104,-2.21c0.069,-0.676 0.182,-1.231 0.338,-1.664c0.138,-0.451 0.346,-0.78 0.624,-0.988c0.277,-0.225 0.632,-0.338 1.066,-0.338c0.502,0 0.892,0.199 1.17,0.598c0.294,0.381 0.476,0.919 0.546,1.612c0.069,0.572 0.112,1.283 0.13,2.132c0.034,0.832 0.06,1.673 0.078,2.522c0.034,0.832 0.078,1.534 0.13,2.106c0.104,1.04 0.372,1.811 0.806,2.314c0.433,0.485 0.962,0.728 1.586,0.728c0.918,0 1.62,-0.347 2.106,-1.04c0.485,-0.693 0.728,-1.664 0.728,-2.912c0,-0.624 -0.035,-1.326 -0.104,-2.106c-0.07,-0.797 -0.148,-1.569 -0.234,-2.314c-0.07,-0.745 -0.104,-1.361 -0.104,-1.846c0,-0.815 0.138,-1.395 0.416,-1.742c0.277,-0.364 0.658,-0.546 1.144,-0.546c0.416,0 0.762,0.113 1.04,0.338c0.294,0.225 0.528,0.537 0.702,0.936c0.242,0.52 0.45,1.231 0.624,2.132c0.173,0.901 0.312,1.924 0.416,3.068c0.104,1.144 0.156,2.349 0.156,3.614c0,1.941 -0.13,3.397 -0.39,4.368c-0.26,0.953 -0.72,1.43 -1.378,1.43zM199.06212,184.38616c-1.075,0 -1.968,-0.199 -2.678,-0.598c-0.694,-0.416 -1.214,-1.049 -1.56,-1.898c-0.243,-0.589 -0.425,-1.3 -0.546,-2.132c-0.104,-0.849 -0.156,-1.82 -0.156,-2.912c0,-1.872 0.06,-3.415 0.182,-4.628c0.121,-1.231 0.294,-2.219 0.52,-2.964c0.242,-0.763 0.511,-1.378 0.806,-1.846c0.468,-0.711 1.213,-1.283 2.236,-1.716c1.022,-0.433 2.47,-0.65 4.342,-0.65c1.248,0 2.244,0.191 2.99,0.572c0.762,0.364 1.308,0.849 1.638,1.456c0.346,0.607 0.52,1.283 0.52,2.028c0,1.179 -0.347,2.149 -1.04,2.912c-0.694,0.763 -1.604,1.369 -2.73,1.82v0.104c1.23,0.139 2.184,0.537 2.86,1.196c0.693,0.641 1.04,1.56 1.04,2.756c0,0.953 -0.243,1.829 -0.728,2.626c-0.468,0.78 -1.11,1.465 -1.924,2.054c-0.798,0.572 -1.699,1.023 -2.704,1.352c-1.006,0.312 -2.028,0.468 -3.068,0.468zM199.86812,181.26616c0.832,0 1.568,-0.139 2.21,-0.416c0.658,-0.277 1.17,-0.65 1.534,-1.118c0.381,-0.485 0.572,-1.031 0.572,-1.638c0,-0.659 -0.321,-1.205 -0.962,-1.638c-0.624,-0.451 -1.604,-0.676 -2.938,-0.676c-0.902,0 -1.621,0.217 -2.158,0.65c-0.52,0.416 -0.78,1.135 -0.78,2.158c0,0.971 0.208,1.664 0.624,2.08c0.416,0.399 1.048,0.598 1.898,0.598zM199.97212,173.02416c1.178,0 2.158,-0.26 2.938,-0.78c0.797,-0.537 1.196,-1.231 1.196,-2.08c0,-0.624 -0.252,-1.127 -0.754,-1.508c-0.503,-0.381 -1.24,-0.572 -2.21,-0.572c-1.058,0 -1.924,0.208 -2.6,0.624c-0.676,0.416 -1.014,1.127 -1.014,2.132c0,0.815 0.216,1.387 0.65,1.716c0.45,0.312 1.048,0.468 1.794,0.468zM221.73112,184.51616c-0.59,0 -0.997,-0.225 -1.222,-0.676c-0.208,-0.468 -0.33,-1.205 -0.364,-2.21l0.26,0.13c-0.971,1.889 -2.808,2.834 -5.512,2.834c-1.231,0 -2.254,-0.217 -3.068,-0.65c-0.815,-0.451 -1.422,-1.04 -1.82,-1.768c-0.382,-0.745 -0.572,-1.551 -0.572,-2.418c0,-1.491 0.52,-2.669 1.56,-3.536c1.04,-0.884 2.418,-1.326 4.134,-1.326c1.126,0 2.106,0.165 2.938,0.494c0.832,0.329 1.542,0.789 2.132,1.378l-0.442,-0.052c-0.122,-1.751 -0.503,-2.999 -1.144,-3.744c-0.624,-0.763 -1.517,-1.144 -2.678,-1.144c-0.676,0 -1.3,0.104 -1.872,0.312c-0.572,0.208 -1.101,0.425 -1.586,0.65c-0.468,0.208 -0.91,0.312 -1.326,0.312c-0.416,0 -0.746,-0.139 -0.988,-0.416c-0.226,-0.277 -0.338,-0.633 -0.338,-1.066c0,-0.624 0.294,-1.213 0.884,-1.768c0.606,-0.555 1.404,-1.005 2.392,-1.352c0.988,-0.347 2.062,-0.52 3.224,-0.52c1.404,0 2.608,0.338 3.614,1.014c1.005,0.676 1.768,1.664 2.288,2.964c0.45,1.109 0.771,2.349 0.962,3.718c0.19,1.369 0.286,2.834 0.286,4.394c0,1.179 -0.061,2.089 -0.182,2.73c-0.122,0.641 -0.312,1.092 -0.572,1.352c-0.243,0.243 -0.572,0.364 -0.988,0.364zM215.98512,181.60416c0.572,0 1.152,-0.078 1.742,-0.234c0.589,-0.173 1.083,-0.425 1.482,-0.754c0.398,-0.329 0.598,-0.737 0.598,-1.222c0,-0.416 -0.174,-0.754 -0.52,-1.014c-0.33,-0.277 -0.772,-0.485 -1.326,-0.624c-0.538,-0.139 -1.118,-0.208 -1.742,-0.208c-1.058,0 -1.864,0.182 -2.418,0.546c-0.538,0.364 -0.806,0.849 -0.806,1.456c0,0.659 0.251,1.17 0.754,1.534c0.52,0.347 1.265,0.52 2.236,0.52zM229.29612,168.08416c0.555,0 0.927,0.225 1.118,0.676c0.208,0.451 0.312,1.118 0.312,2.002c0,0.208 -0.017,0.433 -0.052,0.676c-0.017,0.225 -0.052,0.433 -0.104,0.624l-0.052,-0.52c0.416,-1.127 1.057,-2.002 1.924,-2.626c0.867,-0.641 1.785,-0.962 2.756,-0.962c1.075,0 1.967,0.303 2.678,0.91c0.728,0.607 1.265,1.456 1.612,2.548c0.364,1.092 0.546,2.383 0.546,3.874c0,0.919 -0.043,1.829 -0.13,2.73c-0.069,0.884 -0.173,1.699 -0.312,2.444c-0.121,0.728 -0.26,1.326 -0.416,1.794c-0.208,0.589 -0.477,1.031 -0.806,1.326c-0.329,0.277 -0.719,0.416 -1.17,0.416c-0.451,0 -0.797,-0.165 -1.04,-0.494c-0.243,-0.329 -0.364,-0.771 -0.364,-1.326c0,-0.589 0.043,-1.3 0.13,-2.132c0.087,-0.849 0.165,-1.707 0.234,-2.574c0.087,-0.884 0.13,-1.681 0.13,-2.392c0,-2.427 -0.797,-3.64 -2.392,-3.64c-0.849,0 -1.56,0.381 -2.132,1.144c-0.572,0.745 -0.953,1.811 -1.144,3.198c-0.052,0.468 -0.078,1.049 -0.078,1.742c0,0.693 0,1.387 0,2.08c0.017,0.676 0,1.248 -0.052,1.716c-0.069,1.04 -0.269,1.785 -0.598,2.236c-0.312,0.451 -0.745,0.676 -1.3,0.676c-0.641,0 -1.127,-0.295 -1.456,-0.884c-0.329,-0.607 -0.494,-1.621 -0.494,-3.042c0,-0.728 0.017,-1.543 0.052,-2.444c0.035,-0.901 0.078,-1.803 0.13,-2.704c0.069,-0.919 0.147,-1.751 0.234,-2.496c0.173,-1.404 0.425,-2.513 0.754,-3.328c0.329,-0.832 0.823,-1.248 1.482,-1.248zM248.16512,183.84016c-1.63,0 -2.956,-0.624 -3.978,-1.872c-1.023,-1.265 -1.534,-3.181 -1.534,-5.746c0,-2.739 0.494,-4.741 1.482,-6.006c0.988,-1.265 2.288,-1.898 3.9,-1.898c0.953,0 1.794,0.243 2.522,0.728c0.728,0.485 1.352,1.17 1.872,2.054l-0.208,0.364c-0.052,-0.243 -0.096,-0.503 -0.13,-0.78c-0.035,-0.277 -0.052,-0.485 -0.052,-0.624c0,-0.711 0.112,-1.257 0.338,-1.638c0.242,-0.399 0.615,-0.598 1.118,-0.598c0.554,0 0.988,0.225 1.3,0.676c0.329,0.451 0.58,1.092 0.754,1.924c0.225,0.849 0.416,1.933 0.572,3.25c0.156,1.3 0.234,2.617 0.234,3.952c0,1.664 -0.061,3.059 -0.182,4.186c-0.122,1.127 -0.321,2.063 -0.598,2.808c-0.278,0.745 -0.642,1.395 -1.092,1.95c-0.746,0.901 -1.708,1.586 -2.886,2.054c-1.162,0.485 -2.505,0.728 -4.03,0.728c-1.092,0 -1.968,-0.104 -2.626,-0.312c-0.659,-0.191 -1.136,-0.459 -1.43,-0.806c-0.278,-0.329 -0.416,-0.702 -0.416,-1.118c0,-0.433 0.121,-0.797 0.364,-1.092c0.242,-0.277 0.606,-0.416 1.092,-0.416c0.433,0 0.936,0.069 1.508,0.208c0.589,0.139 1.282,0.208 2.08,0.208c1.681,0 2.868,-0.399 3.562,-1.196c0.71,-0.78 1.066,-1.907 1.066,-3.38c0,-0.399 -0.026,-0.867 -0.078,-1.404l0.364,0.13c-0.434,1.109 -1.075,2.002 -1.924,2.678c-0.85,0.659 -1.838,0.988 -2.964,0.988zM249.15312,180.64216c0.554,0 1.109,-0.147 1.664,-0.442c0.554,-0.295 1.014,-0.78 1.378,-1.456c0.364,-0.676 0.546,-1.586 0.546,-2.73c0,-1.369 -0.321,-2.487 -0.962,-3.354c-0.642,-0.867 -1.543,-1.3 -2.704,-1.3c-1.006,0 -1.742,0.381 -2.21,1.144c-0.468,0.763 -0.702,1.915 -0.702,3.458c0,1.473 0.234,2.626 0.702,3.458c0.468,0.815 1.23,1.222 2.288,1.222zM271.22512,184.10016c-0.468,0 -0.832,-0.156 -1.092,-0.468c-0.243,-0.329 -0.408,-0.745 -0.494,-1.248c-0.087,-0.52 -0.13,-1.066 -0.13,-1.638l0.13,-0.104c-0.174,0.745 -0.512,1.387 -1.014,1.924c-0.503,0.537 -1.084,0.953 -1.742,1.248c-0.659,0.277 -1.318,0.416 -1.976,0.416c-0.884,0 -1.69,-0.208 -2.418,-0.624c-0.728,-0.416 -1.292,-1.057 -1.69,-1.924c-0.399,-0.919 -0.711,-2.071 -0.936,-3.458c-0.226,-1.404 -0.338,-2.843 -0.338,-4.316c0,-0.797 0.034,-1.534 0.104,-2.21c0.069,-0.676 0.182,-1.231 0.338,-1.664c0.138,-0.451 0.346,-0.78 0.624,-0.988c0.277,-0.225 0.632,-0.338 1.066,-0.338c0.502,0 0.892,0.199 1.17,0.598c0.294,0.381 0.476,0.919 0.546,1.612c0.069,0.572 0.112,1.283 0.13,2.132c0.034,0.832 0.06,1.673 0.078,2.522c0.034,0.832 0.078,1.534 0.13,2.106c0.104,1.04 0.372,1.811 0.806,2.314c0.433,0.485 0.962,0.728 1.586,0.728c0.918,0 1.62,-0.347 2.106,-1.04c0.485,-0.693 0.728,-1.664 0.728,-2.912c0,-0.624 -0.035,-1.326 -0.104,-2.106c-0.07,-0.797 -0.148,-1.569 -0.234,-2.314c-0.07,-0.745 -0.104,-1.361 -0.104,-1.846c0,-0.815 0.138,-1.395 0.416,-1.742c0.277,-0.364 0.658,-0.546 1.144,-0.546c0.416,0 0.762,0.113 1.04,0.338c0.294,0.225 0.528,0.537 0.702,0.936c0.242,0.52 0.45,1.231 0.624,2.132c0.173,0.901 0.312,1.924 0.416,3.068c0.104,1.144 0.156,2.349 0.156,3.614c0,1.941 -0.13,3.397 -0.39,4.368c-0.26,0.953 -0.72,1.43 -1.378,1.43zM278.80812,168.08416c0.554,0 0.927,0.225 1.118,0.676c0.208,0.451 0.312,1.118 0.312,2.002c0,0.208 -0.018,0.433 -0.052,0.676c-0.018,0.225 -0.052,0.433 -0.104,0.624l-0.052,-0.52c0.416,-1.127 1.057,-2.002 1.924,-2.626c0.866,-0.641 1.785,-0.962 2.756,-0.962c1.074,0 1.967,0.303 2.678,0.91c0.728,0.607 1.265,1.456 1.612,2.548c0.364,1.092 0.546,2.383 0.546,3.874c0,0.919 -0.044,1.829 -0.13,2.73c-0.07,0.884 -0.174,1.699 -0.312,2.444c-0.122,0.728 -0.26,1.326 -0.416,1.794c-0.208,0.589 -0.477,1.031 -0.806,1.326c-0.33,0.277 -0.72,0.416 -1.17,0.416c-0.451,0 -0.798,-0.165 -1.04,-0.494c-0.243,-0.329 -0.364,-0.771 -0.364,-1.326c0,-0.589 0.043,-1.3 0.13,-2.132c0.086,-0.849 0.164,-1.707 0.234,-2.574c0.086,-0.884 0.13,-1.681 0.13,-2.392c0,-2.427 -0.798,-3.64 -2.392,-3.64c-0.85,0 -1.56,0.381 -2.132,1.144c-0.572,0.745 -0.954,1.811 -1.144,3.198c-0.052,0.468 -0.078,1.049 -0.078,1.742c0,0.693 0,1.387 0,2.08c0.017,0.676 0,1.248 -0.052,1.716c-0.07,1.04 -0.269,1.785 -0.598,2.236c-0.312,0.451 -0.746,0.676 -1.3,0.676c-0.642,0 -1.127,-0.295 -1.456,-0.884c-0.33,-0.607 -0.494,-1.621 -0.494,-3.042c0,-0.728 0.017,-1.543 0.052,-2.444c0.034,-0.901 0.078,-1.803 0.13,-2.704c0.069,-0.919 0.147,-1.751 0.234,-2.496c0.173,-1.404 0.424,-2.513 0.754,-3.328c0.329,-0.832 0.823,-1.248 1.482,-1.248zM301.55512,184.85416c-1.092,0 -1.941,-0.069 -2.548,-0.208c-0.589,-0.139 -0.996,-0.329 -1.222,-0.572c-0.225,-0.26 -0.346,-0.546 -0.364,-0.858c0,-0.485 0.286,-0.893 0.858,-1.222c0.59,-0.329 1.664,-0.537 3.224,-0.624l-0.416,0.494c-0.19,-0.884 -0.329,-1.915 -0.416,-3.094c-0.086,-1.179 -0.121,-2.401 -0.104,-3.666c0.018,-1.265 0.078,-2.47 0.182,-3.614c0.104,-1.161 0.252,-2.149 0.442,-2.964l2.262,-0.156c-0.381,0.156 -0.858,0.295 -1.43,0.416c-0.572,0.104 -1.161,0.156 -1.768,0.156c-1.109,0 -1.932,-0.121 -2.47,-0.364c-0.52,-0.243 -0.78,-0.581 -0.78,-1.014c0,-0.763 0.46,-1.352 1.378,-1.768c0.936,-0.433 2.366,-0.65 4.29,-0.65c2.288,0 4.212,0.381 5.772,1.144c1.578,0.745 2.774,1.794 3.588,3.146c0.815,1.335 1.222,2.895 1.222,4.68c0,1.56 -0.277,2.999 -0.832,4.316c-0.554,1.3 -1.352,2.435 -2.392,3.406c-1.022,0.953 -2.253,1.699 -3.692,2.236c-1.421,0.52 -3.016,0.78 -4.784,0.78zM305.24712,180.85016c0.59,0 1.214,-0.234 1.872,-0.702c0.676,-0.485 1.248,-1.187 1.716,-2.106c0.468,-0.936 0.702,-2.089 0.702,-3.458c0,-1.005 -0.147,-1.881 -0.442,-2.626c-0.277,-0.763 -0.641,-1.395 -1.092,-1.898c-0.45,-0.503 -0.927,-0.875 -1.43,-1.118c-0.502,-0.26 -0.979,-0.39 -1.43,-0.39c-0.364,0 -0.65,0.225 -0.858,0.676c-0.19,0.451 -0.329,1.127 -0.416,2.028c-0.086,0.884 -0.13,1.985 -0.13,3.302c0,2.045 0.104,3.605 0.312,4.68c0.208,1.075 0.607,1.612 1.196,1.612zM327.48212,184.51616c-0.589,0 -0.996,-0.225 -1.222,-0.676c-0.208,-0.468 -0.329,-1.205 -0.364,-2.21l0.26,0.13c-0.97,1.889 -2.808,2.834 -5.512,2.834c-1.23,0 -2.253,-0.217 -3.068,-0.65c-0.814,-0.451 -1.421,-1.04 -1.82,-1.768c-0.381,-0.745 -0.572,-1.551 -0.572,-2.418c0,-1.491 0.52,-2.669 1.56,-3.536c1.04,-0.884 2.418,-1.326 4.134,-1.326c1.127,0 2.106,0.165 2.938,0.494c0.832,0.329 1.543,0.789 2.132,1.378l-0.442,-0.052c-0.121,-1.751 -0.502,-2.999 -1.144,-3.744c-0.624,-0.763 -1.516,-1.144 -2.678,-1.144c-0.676,0 -1.3,0.104 -1.872,0.312c-0.572,0.208 -1.1,0.425 -1.586,0.65c-0.468,0.208 -0.91,0.312 -1.326,0.312c-0.416,0 -0.745,-0.139 -0.988,-0.416c-0.225,-0.277 -0.338,-0.633 -0.338,-1.066c0,-0.624 0.295,-1.213 0.884,-1.768c0.607,-0.555 1.404,-1.005 2.392,-1.352c0.988,-0.347 2.063,-0.52 3.224,-0.52c1.404,0 2.609,0.338 3.614,1.014c1.006,0.676 1.768,1.664 2.288,2.964c0.451,1.109 0.772,2.349 0.962,3.718c0.191,1.369 0.286,2.834 0.286,4.394c0,1.179 -0.06,2.089 -0.182,2.73c-0.121,0.641 -0.312,1.092 -0.572,1.352c-0.242,0.243 -0.572,0.364 -0.988,0.364zM321.73612,181.60416c0.572,0 1.153,-0.078 1.742,-0.234c0.59,-0.173 1.084,-0.425 1.482,-0.754c0.399,-0.329 0.598,-0.737 0.598,-1.222c0,-0.416 -0.173,-0.754 -0.52,-1.014c-0.329,-0.277 -0.771,-0.485 -1.326,-0.624c-0.537,-0.139 -1.118,-0.208 -1.742,-0.208c-1.057,0 -1.863,0.182 -2.418,0.546c-0.537,0.364 -0.806,0.849 -0.806,1.456c0,0.659 0.252,1.17 0.754,1.534c0.52,0.347 1.266,0.52 2.236,0.52zM336.00312,168.60416h-0.52c-0.052,-0.763 -0.035,-1.482 0.052,-2.158c0.086,-0.693 0.268,-1.248 0.546,-1.664c0.294,-0.433 0.71,-0.65 1.248,-0.65c0.485,0 0.84,0.156 1.066,0.468c0.225,0.312 0.338,0.745 0.338,1.3c0,1.092 -0.208,2.028 -0.624,2.808l-0.468,-0.052c0.936,-0.329 1.993,-0.494 3.172,-0.494c0.745,0 1.334,0.147 1.768,0.442c0.45,0.277 0.676,0.754 0.676,1.43c0,0.641 -0.26,1.127 -0.78,1.456c-0.52,0.329 -1.17,0.494 -1.95,0.494c-0.468,0 -0.971,-0.017 -1.508,-0.052c-0.52,-0.052 -1.032,-0.13 -1.534,-0.234l0.442,-0.546c0.156,0.659 0.303,1.413 0.442,2.262c0.156,0.832 0.294,1.699 0.416,2.6c0.121,0.901 0.216,1.777 0.286,2.626c0.069,0.849 0.104,1.612 0.104,2.288c0,1.109 -0.174,1.985 -0.52,2.626c-0.347,0.641 -0.858,0.962 -1.534,0.962c-0.538,0 -0.962,-0.165 -1.274,-0.494c-0.295,-0.329 -0.512,-0.745 -0.65,-1.248c-0.122,-0.52 -0.2,-1.057 -0.234,-1.612c-0.018,-0.555 -0.026,-1.057 -0.026,-1.508c0,-0.763 0.034,-1.621 0.104,-2.574c0.069,-0.971 0.164,-1.967 0.286,-2.99c0.138,-1.023 0.294,-2.011 0.468,-2.964l0.52,0.442c-0.884,0.451 -1.976,0.676 -3.276,0.676c-0.798,0 -1.413,-0.147 -1.846,-0.442c-0.434,-0.295 -0.65,-0.754 -0.65,-1.378c0,-0.676 0.242,-1.196 0.728,-1.56c0.485,-0.381 1.135,-0.572 1.95,-0.572c0.537,0 1.04,0.035 1.508,0.104c0.485,0.052 0.91,0.121 1.274,0.208zM356.73212,184.51616c-0.589,0 -0.996,-0.225 -1.222,-0.676c-0.208,-0.468 -0.329,-1.205 -0.364,-2.21l0.26,0.13c-0.97,1.889 -2.808,2.834 -5.512,2.834c-1.23,0 -2.253,-0.217 -3.068,-0.65c-0.814,-0.451 -1.421,-1.04 -1.82,-1.768c-0.381,-0.745 -0.572,-1.551 -0.572,-2.418c0,-1.491 0.52,-2.669 1.56,-3.536c1.04,-0.884 2.418,-1.326 4.134,-1.326c1.127,0 2.106,0.165 2.938,0.494c0.832,0.329 1.543,0.789 2.132,1.378l-0.442,-0.052c-0.121,-1.751 -0.502,-2.999 -1.144,-3.744c-0.624,-0.763 -1.516,-1.144 -2.678,-1.144c-0.676,0 -1.3,0.104 -1.872,0.312c-0.572,0.208 -1.1,0.425 -1.586,0.65c-0.468,0.208 -0.91,0.312 -1.326,0.312c-0.416,0 -0.745,-0.139 -0.988,-0.416c-0.225,-0.277 -0.338,-0.633 -0.338,-1.066c0,-0.624 0.295,-1.213 0.884,-1.768c0.607,-0.555 1.404,-1.005 2.392,-1.352c0.988,-0.347 2.063,-0.52 3.224,-0.52c1.404,0 2.609,0.338 3.614,1.014c1.006,0.676 1.768,1.664 2.288,2.964c0.451,1.109 0.772,2.349 0.962,3.718c0.191,1.369 0.286,2.834 0.286,4.394c0,1.179 -0.06,2.089 -0.182,2.73c-0.121,0.641 -0.312,1.092 -0.572,1.352c-0.242,0.243 -0.572,0.364 -0.988,0.364zM350.98612,181.60416c0.572,0 1.153,-0.078 1.742,-0.234c0.59,-0.173 1.084,-0.425 1.482,-0.754c0.399,-0.329 0.598,-0.737 0.598,-1.222c0,-0.416 -0.173,-0.754 -0.52,-1.014c-0.329,-0.277 -0.771,-0.485 -1.326,-0.624c-0.537,-0.139 -1.118,-0.208 -1.742,-0.208c-1.057,0 -1.863,0.182 -2.418,0.546c-0.537,0.364 -0.806,0.849 -0.806,1.456c0,0.659 0.252,1.17 0.754,1.534c0.52,0.347 1.266,0.52 2.236,0.52zM361.64612,172.53016c0,-1.664 0.156,-2.86 0.468,-3.588c0.312,-0.745 0.754,-1.118 1.326,-1.118c0.451,0 0.806,0.191 1.066,0.572c0.26,0.364 0.451,0.823 0.572,1.378c0.121,0.537 0.182,1.083 0.182,1.638l-0.13,-0.052c0.295,-0.936 0.745,-1.742 1.352,-2.418c0.624,-0.676 1.369,-1.014 2.236,-1.014c1.023,0 1.777,0.425 2.262,1.274c0.485,0.832 0.728,1.872 0.728,3.12c0,1.664 -0.191,2.825 -0.572,3.484c-0.381,0.659 -0.893,0.988 -1.534,0.988c-0.468,0 -0.815,-0.191 -1.04,-0.572c-0.208,-0.381 -0.277,-1.057 -0.208,-2.028c0.069,-1.023 0.009,-1.733 -0.182,-2.132c-0.191,-0.399 -0.494,-0.598 -0.91,-0.598c-0.503,0 -0.919,0.321 -1.248,0.962c-0.312,0.624 -0.468,1.395 -0.468,2.314c0,0.364 0.043,0.823 0.13,1.378c0.087,0.555 0.182,1.161 0.286,1.82c0.104,0.641 0.199,1.283 0.286,1.924c0.087,0.641 0.13,1.231 0.13,1.768c0,0.953 -0.147,1.638 -0.442,2.054c-0.295,0.416 -0.711,0.624 -1.248,0.624c-0.607,0 -1.075,-0.191 -1.404,-0.572c-0.329,-0.399 -0.581,-1.04 -0.754,-1.924c-0.139,-0.797 -0.277,-1.742 -0.416,-2.834c-0.139,-1.092 -0.251,-2.21 -0.338,-3.354c-0.087,-1.144 -0.13,-2.175 -0.13,-3.094zM377.98912,164.99016c2.097,0 3.683,0.546 4.758,1.638c1.092,1.075 1.638,2.479 1.638,4.212c0,1.005 -0.199,1.889 -0.598,2.652c-0.381,0.763 -0.919,1.447 -1.612,2.054c-0.676,0.607 -1.465,1.179 -2.366,1.716c-0.693,0.416 -1.326,0.711 -1.898,0.884c-0.572,0.173 -1.101,0.26 -1.586,0.26c-0.381,0 -0.702,-0.095 -0.962,-0.286c-0.243,-0.208 -0.364,-0.477 -0.364,-0.806c0,-0.416 0.191,-0.797 0.572,-1.144c0.399,-0.364 0.988,-0.78 1.768,-1.248c1.127,-0.659 2.011,-1.291 2.652,-1.898c0.641,-0.607 0.962,-1.283 0.962,-2.028c0,-0.589 -0.173,-1.04 -0.52,-1.352c-0.329,-0.329 -0.901,-0.494 -1.716,-0.494c-0.624,0 -1.239,0.104 -1.846,0.312c-0.607,0.208 -1.213,0.312 -1.82,0.312c-0.745,0 -1.326,-0.156 -1.742,-0.468c-0.416,-0.312 -0.624,-0.763 -0.624,-1.352c0,-0.624 0.234,-1.153 0.702,-1.586c0.485,-0.451 1.127,-0.789 1.924,-1.014c0.815,-0.243 1.707,-0.364 2.678,-0.364zM374.76512,182.67016c0,-0.503 0.121,-0.91 0.364,-1.222c0.243,-0.329 0.546,-0.572 0.91,-0.728c0.381,-0.156 0.78,-0.234 1.196,-0.234c0.693,0 1.222,0.173 1.586,0.52c0.381,0.347 0.572,0.823 0.572,1.43c0,0.745 -0.234,1.283 -0.702,1.612c-0.468,0.329 -1.04,0.494 -1.716,0.494c-0.711,0 -1.257,-0.173 -1.638,-0.52c-0.381,-0.347 -0.572,-0.797 -0.572,-1.352z" fill="#000000" stroke="none" stroke-width="1"/></g></g></svg>