<svg width="162" height="17" viewBox="0 0 162 17" fill="none" xmlns="http://www.w3.org/2000/svg">
<path d="M2.84 13.096C2.18933 13.096 1.704 13.0107 1.384 12.84C1.064 12.6693 0.797333 12.36 0.584 11.912C0.434667 11.5707 0.306667 11.016 0.2 10.248C0.104 9.46933 0.056 8.46133 0.056 7.224C0.056 6.36 0.072 5.53333 0.104 4.744C0.146667 3.95467 0.205333 3.34667 0.28 2.92C0.365333 2.376 0.504 1.98667 0.696 1.752C0.898667 1.51733 1.14933 1.4 1.448 1.4C1.71467 1.4 1.92267 1.51733 2.072 1.752C2.232 1.98667 2.344 2.30667 2.408 2.712C2.472 3.10667 2.504 3.544 2.504 4.024C2.504 5.32533 2.456 6.64267 2.36 7.976C2.27467 9.30933 2.152 10.536 1.992 11.656L1.784 11.368C2.264 11.0373 2.776 10.7547 3.32 10.52C3.87467 10.2853 4.41333 10.104 4.936 9.976C5.46933 9.848 5.93333 9.784 6.328 9.784C6.72267 9.784 7.01067 9.864 7.192 10.024C7.384 10.184 7.48 10.4133 7.48 10.712C7.48 11.0107 7.34667 11.3147 7.08 11.624C6.824 11.9227 6.456 12.184 5.976 12.408C5.70933 12.536 5.39467 12.6533 5.032 12.76C4.66933 12.856 4.296 12.936 3.912 13C3.53867 13.064 3.18133 13.096 2.84 13.096ZM15.7961 13.16C15.4335 13.16 15.1828 13.0213 15.0441 12.744C14.9161 12.456 14.8415 12.0027 14.8201 11.384L14.9801 11.464C14.3828 12.6267 13.2521 13.208 11.5881 13.208C10.8308 13.208 10.2015 13.0747 9.70013 12.808C9.19879 12.5307 8.82546 12.168 8.58013 11.72C8.34546 11.2613 8.22813 10.7653 8.22813 10.232C8.22813 9.31467 8.54813 8.58933 9.18813 8.056C9.82813 7.512 10.6761 7.24 11.7321 7.24C12.4255 7.24 13.0281 7.34133 13.5401 7.544C14.0521 7.74667 14.4895 8.02933 14.8521 8.392L14.5801 8.36C14.5055 7.28267 14.2708 6.51467 13.8761 6.056C13.4921 5.58667 12.9428 5.352 12.2281 5.352C11.8121 5.352 11.4281 5.416 11.0761 5.544C10.7241 5.672 10.3988 5.80533 10.1001 5.944C9.81213 6.072 9.54013 6.136 9.28413 6.136C9.02813 6.136 8.82546 6.05067 8.67613 5.88C8.53746 5.70933 8.46813 5.49067 8.46813 5.224C8.46813 4.84 8.64946 4.47733 9.01213 4.136C9.38546 3.79467 9.87613 3.51733 10.4841 3.304C11.0921 3.09067 11.7535 2.984 12.4681 2.984C13.3321 2.984 14.0735 3.192 14.6921 3.608C15.3108 4.024 15.7801 4.632 16.1001 5.432C16.3775 6.11467 16.5748 6.87733 16.6921 7.72C16.8095 8.56267 16.8681 9.464 16.8681 10.424C16.8681 11.1493 16.8308 11.7093 16.7561 12.104C16.6815 12.4987 16.5641 12.776 16.4041 12.936C16.2548 13.0853 16.0521 13.16 15.7961 13.16ZM12.2601 11.368C12.6121 11.368 12.9695 11.32 13.3321 11.224C13.6948 11.1173 13.9988 10.9627 14.2441 10.76C14.4895 10.5573 14.6121 10.3067 14.6121 10.008C14.6121 9.752 14.5055 9.544 14.2921 9.384C14.0895 9.21333 13.8175 9.08533 13.4761 9C13.1455 8.91467 12.7881 8.872 12.4041 8.872C11.7535 8.872 11.2575 8.984 10.9161 9.208C10.5855 9.432 10.4201 9.73067 10.4201 10.104C10.4201 10.5093 10.5748 10.824 10.8841 11.048C11.2041 11.2613 11.6628 11.368 12.2601 11.368ZM21.0394 3.368H20.7194C20.6874 2.89867 20.698 2.456 20.7514 2.04C20.8047 1.61333 20.9167 1.272 21.0874 1.016C21.2687 0.749333 21.5247 0.615999 21.8554 0.615999C22.154 0.615999 22.3727 0.711999 22.5114 0.903999C22.65 1.096 22.7194 1.36267 22.7194 1.704C22.7194 2.376 22.5914 2.952 22.3354 3.432L22.0474 3.4C22.6234 3.19733 23.274 3.096 23.9994 3.096C24.458 3.096 24.8207 3.18667 25.0874 3.368C25.3647 3.53867 25.5034 3.832 25.5034 4.248C25.5034 4.64267 25.3434 4.94133 25.0234 5.144C24.7034 5.34667 24.3034 5.448 23.8234 5.448C23.5354 5.448 23.226 5.43733 22.8954 5.416C22.5754 5.384 22.2607 5.336 21.9514 5.272L22.2234 4.936C22.3194 5.34133 22.41 5.80533 22.4954 6.328C22.5914 6.84 22.6767 7.37333 22.7514 7.928C22.826 8.48267 22.8847 9.02133 22.9274 9.544C22.97 10.0667 22.9914 10.536 22.9914 10.952C22.9914 11.6347 22.8847 12.1733 22.6714 12.568C22.458 12.9627 22.1434 13.16 21.7274 13.16C21.3967 13.16 21.1354 13.0587 20.9434 12.856C20.762 12.6533 20.6287 12.3973 20.5434 12.088C20.4687 11.768 20.4207 11.4373 20.3994 11.096C20.3887 10.7547 20.3834 10.4453 20.3834 10.168C20.3834 9.69867 20.4047 9.17067 20.4474 8.584C20.49 7.98667 20.5487 7.37333 20.6234 6.744C20.7087 6.11467 20.8047 5.50667 20.9114 4.92L21.2314 5.192C20.6874 5.46933 20.0154 5.608 19.2154 5.608C18.7247 5.608 18.346 5.51733 18.0794 5.336C17.8127 5.15467 17.6794 4.872 17.6794 4.488C17.6794 4.072 17.8287 3.752 18.1274 3.528C18.426 3.29333 18.826 3.176 19.3274 3.176C19.658 3.176 19.9674 3.19733 20.2554 3.24C20.554 3.272 20.8154 3.31467 21.0394 3.368ZM28.2121 0.728C28.6388 0.728 28.9428 0.845333 29.1241 1.08C29.3161 1.31467 29.4121 1.58667 29.4121 1.896C29.4121 2.28 29.2948 2.57867 29.0601 2.792C28.8361 2.99467 28.5161 3.096 28.1001 3.096C27.6948 3.096 27.3908 2.984 27.1881 2.76C26.9855 2.52533 26.8841 2.25333 26.8841 1.944C26.8841 1.53867 27.0068 1.23467 27.2521 1.032C27.4975 0.829333 27.8175 0.728 28.2121 0.728ZM28.3081 4.296C28.6495 4.296 28.9161 4.616 29.1081 5.256C29.3108 5.896 29.4121 6.91467 29.4121 8.312C29.4121 10.0293 29.2895 11.2667 29.0441 12.024C28.7988 12.7813 28.4255 13.16 27.9241 13.16C27.5401 13.16 27.2575 12.8827 27.0761 12.328C26.8948 11.7627 26.8041 10.7813 26.8041 9.384C26.8041 7.66667 26.9428 6.392 27.2201 5.56C27.5081 4.71733 27.8708 4.296 28.3081 4.296ZM33.0146 0.327999C33.356 0.327999 33.5906 0.461333 33.7186 0.728C33.8573 0.994666 33.9266 1.39467 33.9266 1.928C33.9266 2.38667 33.9 2.96267 33.8466 3.656C33.7933 4.34933 33.724 5.016 33.6386 5.656H33.5426C33.8946 4.99467 34.348 4.46133 34.9026 4.056C35.4573 3.65067 36.044 3.448 36.6626 3.448C37.2066 3.448 37.692 3.58133 38.1186 3.848C38.5453 4.104 38.892 4.50933 39.1586 5.064C39.404 5.56533 39.5853 6.16267 39.7026 6.856C39.82 7.53867 39.8786 8.18933 39.8786 8.808C39.8786 9.8 39.8093 10.5893 39.6706 11.176C39.5426 11.7627 39.3613 12.1893 39.1266 12.456C38.892 12.712 38.6146 12.84 38.2946 12.84C37.6226 12.84 37.2866 12.2907 37.2866 11.192C37.2866 10.6587 37.3133 10.1093 37.3666 9.544C37.4306 8.97867 37.4626 8.46133 37.4626 7.992C37.4626 7.192 37.3346 6.59467 37.0786 6.2C36.8333 5.79467 36.476 5.592 36.0066 5.592C35.42 5.592 34.9453 5.85333 34.5826 6.376C34.22 6.89867 34.0386 7.61867 34.0386 8.536C34.0386 9.016 34.0813 9.544 34.1666 10.12C34.252 10.6853 34.2946 11.2027 34.2946 11.672C34.2946 12.1947 34.1933 12.5733 33.9906 12.808C33.7986 13.032 33.548 13.144 33.2386 13.144C33.004 13.144 32.796 13.096 32.6146 13C32.444 12.9147 32.2946 12.7387 32.1666 12.472C32.0493 12.1947 31.948 11.784 31.8626 11.24C31.7986 10.824 31.7346 10.3387 31.6706 9.784C31.6066 9.22933 31.5533 8.648 31.5106 8.04C31.468 7.432 31.4306 6.84 31.3986 6.264C31.3773 5.67733 31.3666 5.144 31.3666 4.664C31.3666 3.14933 31.5106 2.05067 31.7986 1.368C32.0866 0.674666 32.492 0.327999 33.0146 0.327999ZM48.8274 13.16C48.4647 13.16 48.214 13.0213 48.0754 12.744C47.9474 12.456 47.8727 12.0027 47.8514 11.384L48.0114 11.464C47.414 12.6267 46.2834 13.208 44.6194 13.208C43.862 13.208 43.2327 13.0747 42.7314 12.808C42.23 12.5307 41.8567 12.168 41.6114 11.72C41.3767 11.2613 41.2594 10.7653 41.2594 10.232C41.2594 9.31467 41.5794 8.58933 42.2194 8.056C42.8594 7.512 43.7074 7.24 44.7634 7.24C45.4567 7.24 46.0594 7.34133 46.5714 7.544C47.0834 7.74667 47.5207 8.02933 47.8834 8.392L47.6114 8.36C47.5367 7.28267 47.302 6.51467 46.9074 6.056C46.5234 5.58667 45.974 5.352 45.2594 5.352C44.8434 5.352 44.4594 5.416 44.1074 5.544C43.7554 5.672 43.43 5.80533 43.1314 5.944C42.8434 6.072 42.5714 6.136 42.3154 6.136C42.0594 6.136 41.8567 6.05067 41.7074 5.88C41.5687 5.70933 41.4994 5.49067 41.4994 5.224C41.4994 4.84 41.6807 4.47733 42.0434 4.136C42.4167 3.79467 42.9074 3.51733 43.5154 3.304C44.1234 3.09067 44.7847 2.984 45.4994 2.984C46.3634 2.984 47.1047 3.192 47.7234 3.608C48.342 4.024 48.8114 4.632 49.1314 5.432C49.4087 6.11467 49.606 6.87733 49.7234 7.72C49.8407 8.56267 49.8994 9.464 49.8994 10.424C49.8994 11.1493 49.862 11.7093 49.7874 12.104C49.7127 12.4987 49.5954 12.776 49.4354 12.936C49.286 13.0853 49.0834 13.16 48.8274 13.16ZM45.2914 11.368C45.6434 11.368 46.0007 11.32 46.3634 11.224C46.726 11.1173 47.03 10.9627 47.2754 10.76C47.5207 10.5573 47.6434 10.3067 47.6434 10.008C47.6434 9.752 47.5367 9.544 47.3234 9.384C47.1207 9.21333 46.8487 9.08533 46.5074 9C46.1767 8.91467 45.8194 8.872 45.4354 8.872C44.7847 8.872 44.2887 8.984 43.9474 9.208C43.6167 9.432 43.4514 9.73067 43.4514 10.104C43.4514 10.5093 43.606 10.824 43.9154 11.048C44.2354 11.2613 44.694 11.368 45.2914 11.368ZM53.483 3.048C53.8243 3.048 54.0537 3.18667 54.171 3.464C54.299 3.74133 54.363 4.152 54.363 4.696C54.363 4.824 54.3523 4.96267 54.331 5.112C54.3203 5.25067 54.299 5.37867 54.267 5.496L54.235 5.176C54.491 4.48267 54.8857 3.944 55.419 3.56C55.9523 3.16533 56.5177 2.968 57.115 2.968C57.7763 2.968 58.3257 3.15467 58.763 3.528C59.211 3.90133 59.5417 4.424 59.755 5.096C59.979 5.768 60.091 6.56267 60.091 7.48C60.091 8.04533 60.0643 8.60533 60.011 9.16C59.9683 9.704 59.9043 10.2053 59.819 10.664C59.7443 11.112 59.659 11.48 59.563 11.768C59.435 12.1307 59.2697 12.4027 59.067 12.584C58.8643 12.7547 58.6243 12.84 58.347 12.84C58.0697 12.84 57.8563 12.7387 57.707 12.536C57.5577 12.3333 57.483 12.0613 57.483 11.72C57.483 11.3573 57.5097 10.92 57.563 10.408C57.6163 9.88533 57.6643 9.35733 57.707 8.824C57.7603 8.28 57.787 7.78933 57.787 7.352C57.787 5.85867 57.2963 5.112 56.315 5.112C55.7923 5.112 55.355 5.34667 55.003 5.816C54.651 6.27467 54.4163 6.93067 54.299 7.784C54.267 8.072 54.251 8.42933 54.251 8.856C54.251 9.28267 54.251 9.70933 54.251 10.136C54.2617 10.552 54.251 10.904 54.219 11.192C54.1763 11.832 54.0537 12.2907 53.851 12.568C53.659 12.8453 53.3923 12.984 53.051 12.984C52.6563 12.984 52.3577 12.8027 52.155 12.44C51.9523 12.0667 51.851 11.4427 51.851 10.568C51.851 10.12 51.8617 9.61867 51.883 9.064C51.9043 8.50933 51.931 7.95467 51.963 7.4C52.0057 6.83467 52.0537 6.32267 52.107 5.864C52.2137 5 52.3683 4.31733 52.571 3.816C52.7737 3.304 53.0777 3.048 53.483 3.048ZM68.4736 13.048C68.1216 13.048 67.727 13.0267 67.2896 12.984C66.863 12.9413 66.447 12.8613 66.0416 12.744C65.647 12.616 65.3163 12.4453 65.0496 12.232C64.7936 12.008 64.6656 11.72 64.6656 11.368C64.6656 11.0053 64.7776 10.7333 65.0016 10.552C65.2363 10.3707 65.615 10.28 66.1376 10.28C66.5003 10.28 66.9056 10.328 67.3536 10.424C67.8123 10.52 68.2496 10.568 68.6656 10.568C69.2843 10.568 69.7376 10.472 70.0256 10.28C70.3243 10.088 70.4736 9.82667 70.4736 9.496C70.4736 9.29333 70.415 9.112 70.2976 8.952C70.191 8.792 69.9723 8.632 69.6416 8.472C69.311 8.312 68.815 8.136 68.1536 7.944C67.3963 7.74133 66.783 7.51733 66.3136 7.272C65.8443 7.016 65.503 6.712 65.2896 6.36C65.0763 6.008 64.9696 5.592 64.9696 5.112C64.9696 4.52533 65.071 4.01867 65.2736 3.592C65.487 3.15467 65.7696 2.78667 66.1216 2.488C66.4736 2.17867 66.8683 1.93333 67.3056 1.752C67.743 1.57067 68.1856 1.43733 68.6336 1.352C69.0923 1.26667 69.5296 1.224 69.9456 1.224C70.863 1.224 71.6096 1.368 72.1856 1.656C72.7723 1.944 73.0656 2.328 73.0656 2.808C73.0656 3.14933 72.9536 3.42667 72.7296 3.64C72.5163 3.85333 72.1856 3.96 71.7376 3.96C71.5456 3.96 71.3163 3.93333 71.0496 3.88C70.783 3.82667 70.4896 3.77333 70.1696 3.72C69.8496 3.66667 69.4976 3.64 69.1136 3.64C68.463 3.64 67.9616 3.74133 67.6096 3.944C67.2576 4.14667 67.0816 4.472 67.0816 4.92C67.0816 5.112 67.1296 5.288 67.2256 5.448C67.3323 5.608 67.551 5.77333 67.8816 5.944C68.2123 6.11467 68.719 6.312 69.4016 6.536C70.2443 6.792 70.9056 7.07467 71.3856 7.384C71.8656 7.68267 72.207 8.024 72.4096 8.408C72.6123 8.792 72.7136 9.224 72.7136 9.704C72.7136 10.3653 72.5323 10.952 72.1696 11.464C71.8176 11.9653 71.3216 12.3547 70.6816 12.632C70.0523 12.9093 69.3163 13.048 68.4736 13.048ZM78.3328 13.048C77.4794 13.048 76.7328 12.8613 76.0928 12.488C75.4634 12.104 74.9728 11.56 74.6208 10.856C74.2794 10.152 74.1088 9.31467 74.1088 8.344C74.1088 7.33067 74.2848 6.44533 74.6368 5.688C74.9888 4.93067 75.4848 4.33867 76.1248 3.912C76.7754 3.48533 77.5274 3.272 78.3808 3.272C79.2981 3.272 80.0928 3.48 80.7648 3.896C81.4368 4.30133 81.9594 4.872 82.3328 5.608C82.7061 6.344 82.8928 7.20267 82.8928 8.184C82.8928 9.18667 82.7061 10.0507 82.3328 10.776C81.9594 11.5013 81.4314 12.0613 80.7488 12.456C80.0661 12.8507 79.2608 13.048 78.3328 13.048ZM78.5568 10.888C79.2181 10.888 79.7408 10.6267 80.1248 10.104C80.5194 9.57067 80.7168 8.86667 80.7168 7.992C80.7168 7.10667 80.5194 6.40267 80.1248 5.88C79.7408 5.35733 79.2181 5.096 78.5568 5.096C77.8741 5.096 77.3354 5.35733 76.9408 5.88C76.5461 6.40267 76.3488 7.10667 76.3488 7.992C76.3488 8.86667 76.5461 9.57067 76.9408 10.104C77.3354 10.6267 77.8741 10.888 78.5568 10.888ZM91.4993 13.16C91.1366 13.16 90.8859 13.0213 90.7473 12.744C90.6193 12.456 90.5446 12.0027 90.5233 11.384L90.6833 11.464C90.0859 12.6267 88.9553 13.208 87.2913 13.208C86.5339 13.208 85.9046 13.0747 85.4033 12.808C84.9019 12.5307 84.5286 12.168 84.2833 11.72C84.0486 11.2613 83.9313 10.7653 83.9313 10.232C83.9313 9.31467 84.2513 8.58933 84.8913 8.056C85.5313 7.512 86.3793 7.24 87.4353 7.24C88.1286 7.24 88.7313 7.34133 89.2433 7.544C89.7553 7.74667 90.1926 8.02933 90.5553 8.392L90.2833 8.36C90.2086 7.28267 89.9739 6.51467 89.5793 6.056C89.1953 5.58667 88.6459 5.352 87.9313 5.352C87.5153 5.352 87.1313 5.416 86.7793 5.544C86.4273 5.672 86.1019 5.80533 85.8033 5.944C85.5153 6.072 85.2433 6.136 84.9873 6.136C84.7313 6.136 84.5286 6.05067 84.3793 5.88C84.2406 5.70933 84.1713 5.49067 84.1713 5.224C84.1713 4.84 84.3526 4.47733 84.7153 4.136C85.0886 3.79467 85.5793 3.51733 86.1873 3.304C86.7953 3.09067 87.4566 2.984 88.1713 2.984C89.0353 2.984 89.7766 3.192 90.3953 3.608C91.0139 4.024 91.4833 4.632 91.8033 5.432C92.0806 6.11467 92.2779 6.87733 92.3953 7.72C92.5126 8.56267 92.5712 9.464 92.5712 10.424C92.5712 11.1493 92.5339 11.7093 92.4593 12.104C92.3846 12.4987 92.2673 12.776 92.1073 12.936C91.9579 13.0853 91.7553 13.16 91.4993 13.16ZM87.9633 11.368C88.3153 11.368 88.6726 11.32 89.0353 11.224C89.3979 11.1173 89.7019 10.9627 89.9473 10.76C90.1926 10.5573 90.3153 10.3067 90.3153 10.008C90.3153 9.752 90.2086 9.544 89.9953 9.384C89.7926 9.21333 89.5206 9.08533 89.1793 9C88.8486 8.91467 88.4913 8.872 88.1073 8.872C87.4566 8.872 86.9606 8.984 86.6193 9.208C86.2886 9.432 86.1233 9.73067 86.1233 10.104C86.1233 10.5093 86.2779 10.824 86.5873 11.048C86.9073 11.2613 87.3659 11.368 87.9633 11.368ZM96.2509 13.032C95.9202 13.032 95.6589 12.9573 95.4669 12.808C95.2749 12.648 95.1202 12.3867 95.0029 12.024C94.8429 11.4907 94.7202 10.8187 94.6349 10.008C94.5602 9.18667 94.5229 8.17867 94.5229 6.984C94.5229 6.248 94.5495 5.512 94.6029 4.776C94.6669 4.02933 94.7469 3.352 94.8429 2.744C94.9389 2.12533 95.0402 1.64533 95.1469 1.304C95.2642 0.941333 95.4029 0.690666 95.5629 0.551999C95.7229 0.413333 95.9042 0.344 96.1069 0.344C96.3202 0.344 96.4909 0.418667 96.6189 0.568C96.7469 0.706666 96.8482 0.957333 96.9229 1.32C96.9869 1.672 97.0349 2.104 97.0669 2.616C97.1095 3.128 97.1309 3.67733 97.1309 4.264C97.1309 5.064 97.0935 5.90667 97.0189 6.792C96.9442 7.67733 96.8429 8.54667 96.7149 9.4C96.5975 10.2533 96.4535 11.0373 96.2829 11.752L95.8349 11.528C96.1122 11.1867 96.4269 10.92 96.7789 10.728C97.1415 10.536 97.4722 10.44 97.7709 10.44C98.0162 10.44 98.2029 10.5093 98.3309 10.648C98.4695 10.776 98.5389 10.9787 98.5389 11.256C98.5389 11.5333 98.4162 11.8107 98.1709 12.088C97.9362 12.3653 97.6429 12.5947 97.2909 12.776C96.9389 12.9467 96.5922 13.032 96.2509 13.032ZM107.707 1.496C108.976 1.496 109.909 1.82133 110.507 2.472C111.115 3.12267 111.419 3.976 111.419 5.032C111.419 5.75733 111.248 6.38667 110.907 6.92C110.576 7.45333 110.123 7.86933 109.547 8.168C108.971 8.456 108.32 8.6 107.595 8.6C107.253 8.6 106.891 8.56267 106.507 8.488C106.133 8.41333 105.744 8.26933 105.339 8.056L105.419 7.848C105.504 8.11467 105.573 8.44533 105.627 8.84C105.691 9.224 105.739 9.624 105.771 10.04C105.813 10.4453 105.835 10.8187 105.835 11.16C105.835 11.7893 105.728 12.2747 105.515 12.616C105.312 12.9467 105.008 13.112 104.603 13.112C104.261 13.112 103.989 13.0053 103.787 12.792C103.595 12.5787 103.461 12.2267 103.387 11.736C103.312 11.2453 103.275 10.5893 103.275 9.768C103.275 8.18933 103.344 6.84533 103.483 5.736C103.632 4.616 103.883 3.736 104.235 3.096C104.512 2.60533 104.939 2.216 105.515 1.928C106.101 1.64 106.832 1.496 107.707 1.496ZM107.403 6.712C108.043 6.712 108.56 6.54133 108.955 6.2C109.36 5.85867 109.563 5.36267 109.563 4.712C109.563 4.28533 109.419 3.93333 109.131 3.656C108.853 3.368 108.416 3.224 107.819 3.224C107.381 3.224 107.003 3.32533 106.683 3.528C106.363 3.72 106.117 3.992 105.947 4.344C105.787 4.68533 105.707 5.08 105.707 5.528C105.707 5.944 105.84 6.248 106.107 6.44C106.384 6.62133 106.816 6.712 107.403 6.712ZM117.269 13.128C116.085 13.128 115.141 12.952 114.437 12.6C113.733 12.248 113.226 11.7413 112.917 11.08C112.607 10.4187 112.453 9.62933 112.453 8.712C112.453 7.54933 112.666 6.56267 113.093 5.752C113.53 4.93067 114.127 4.30133 114.885 3.864C115.652 3.42667 116.522 3.208 117.493 3.208C118.634 3.208 119.471 3.47467 120.005 4.008C120.538 4.53067 120.805 5.21867 120.805 6.072C120.805 6.75467 120.623 7.34667 120.26 7.848C119.909 8.33867 119.418 8.71733 118.789 8.984C118.159 9.25067 117.434 9.384 116.613 9.384C116.154 9.384 115.711 9.32533 115.285 9.208C114.858 9.09067 114.474 8.93067 114.133 8.728L114.517 8.024C114.485 8.28 114.469 8.536 114.469 8.792C114.469 9.53867 114.703 10.0773 115.173 10.408C115.642 10.728 116.309 10.888 117.173 10.888C117.845 10.888 118.383 10.8293 118.789 10.712C119.194 10.5947 119.535 10.4827 119.812 10.376C120.09 10.2587 120.362 10.2 120.628 10.2C120.778 10.2 120.911 10.2427 121.029 10.328C121.157 10.4027 121.258 10.5147 121.333 10.664C121.418 10.8133 121.461 10.9947 121.461 11.208C121.461 11.528 121.301 11.8373 120.981 12.136C120.661 12.424 120.186 12.664 119.557 12.856C118.938 13.0373 118.175 13.128 117.269 13.128ZM116.341 7.896C117.098 7.896 117.706 7.736 118.165 7.416C118.623 7.096 118.853 6.70133 118.853 6.232C118.853 5.85867 118.725 5.55467 118.469 5.32C118.223 5.07467 117.834 4.952 117.301 4.952C116.799 4.952 116.346 5.048 115.941 5.24C115.546 5.42133 115.237 5.66133 115.013 5.96C114.789 6.25867 114.677 6.584 114.677 6.936C114.677 7.24533 114.821 7.48533 115.109 7.656C115.407 7.816 115.818 7.896 116.341 7.896ZM122.867 5.784C122.867 4.76 122.963 4.024 123.155 3.576C123.347 3.11733 123.619 2.888 123.971 2.888C124.248 2.888 124.467 3.00533 124.627 3.24C124.787 3.464 124.904 3.74667 124.979 4.088C125.053 4.41867 125.091 4.75467 125.091 5.096L125.011 5.064C125.192 4.488 125.469 3.992 125.843 3.576C126.227 3.16 126.685 2.952 127.219 2.952C127.848 2.952 128.312 3.21333 128.611 3.736C128.909 4.248 129.059 4.888 129.059 5.656C129.059 6.68 128.941 7.39467 128.707 7.8C128.472 8.20533 128.157 8.408 127.763 8.408C127.475 8.408 127.261 8.29067 127.123 8.056C126.995 7.82133 126.952 7.40533 126.995 6.808C127.037 6.17867 127 5.74133 126.883 5.496C126.765 5.25067 126.579 5.128 126.323 5.128C126.013 5.128 125.757 5.32533 125.555 5.72C125.363 6.104 125.267 6.57867 125.267 7.144C125.267 7.368 125.293 7.65067 125.347 7.992C125.4 8.33333 125.459 8.70667 125.523 9.112C125.587 9.50667 125.645 9.90133 125.699 10.296C125.752 10.6907 125.779 11.0533 125.779 11.384C125.779 11.9707 125.688 12.392 125.507 12.648C125.325 12.904 125.069 13.032 124.739 13.032C124.365 13.032 124.077 12.9147 123.875 12.68C123.672 12.4347 123.517 12.04 123.411 11.496C123.325 11.0053 123.24 10.424 123.155 9.752C123.069 9.08 123 8.392 122.947 7.688C122.893 6.984 122.867 6.34933 122.867 5.784ZM134.524 2.984C135.473 2.984 136.156 3.12267 136.572 3.4C136.988 3.67733 137.196 4.03467 137.196 4.472C137.196 4.728 137.105 4.94133 136.924 5.112C136.753 5.272 136.508 5.352 136.188 5.352C135.857 5.352 135.511 5.304 135.148 5.208C134.796 5.112 134.385 5.064 133.916 5.064C133.372 5.064 132.967 5.17067 132.7 5.384C132.433 5.59733 132.3 5.86933 132.3 6.2C132.3 6.50933 132.417 6.75467 132.652 6.936C132.897 7.10667 133.361 7.23467 134.044 7.32C134.801 7.40533 135.425 7.544 135.916 7.736C136.417 7.91733 136.791 8.19467 137.036 8.568C137.281 8.93067 137.404 9.432 137.404 10.072C137.404 11.0853 137.047 11.8373 136.332 12.328C135.617 12.8187 134.631 13.064 133.372 13.064C132.572 13.064 131.937 13 131.468 12.872C130.999 12.744 130.657 12.5627 130.444 12.328C130.241 12.0933 130.14 11.816 130.14 11.496C130.14 11.2187 130.231 11.0053 130.412 10.856C130.604 10.696 130.828 10.616 131.084 10.616C131.329 10.616 131.591 10.648 131.868 10.712C132.145 10.7653 132.439 10.824 132.748 10.888C133.057 10.952 133.377 10.984 133.708 10.984C134.775 10.984 135.308 10.6533 135.308 9.992C135.308 9.768 135.255 9.58667 135.148 9.448C135.041 9.30933 134.849 9.19733 134.572 9.112C134.295 9.016 133.889 8.94133 133.356 8.888C132.716 8.824 132.161 8.71733 131.692 8.568C131.223 8.408 130.86 8.152 130.604 7.8C130.348 7.43733 130.22 6.94133 130.22 6.312C130.22 5.32 130.593 4.52 131.34 3.912C132.087 3.29333 133.148 2.984 134.524 2.984ZM143.503 13.128C142.319 13.128 141.375 12.952 140.671 12.6C139.967 12.248 139.46 11.7413 139.151 11.08C138.842 10.4187 138.687 9.62933 138.687 8.712C138.687 7.54933 138.9 6.56267 139.327 5.752C139.764 4.93067 140.362 4.30133 141.119 3.864C141.887 3.42667 142.756 3.208 143.727 3.208C144.868 3.208 145.706 3.47467 146.239 4.008C146.772 4.53067 147.039 5.21867 147.039 6.072C147.039 6.75467 146.858 7.34667 146.495 7.848C146.143 8.33867 145.652 8.71733 145.023 8.984C144.394 9.25067 143.668 9.384 142.847 9.384C142.388 9.384 141.946 9.32533 141.519 9.208C141.092 9.09067 140.708 8.93067 140.367 8.728L140.751 8.024C140.719 8.28 140.703 8.536 140.703 8.792C140.703 9.53867 140.938 10.0773 141.407 10.408C141.876 10.728 142.543 10.888 143.407 10.888C144.079 10.888 144.618 10.8293 145.023 10.712C145.428 10.5947 145.77 10.4827 146.047 10.376C146.324 10.2587 146.596 10.2 146.863 10.2C147.012 10.2 147.146 10.2427 147.263 10.328C147.391 10.4027 147.492 10.5147 147.567 10.664C147.652 10.8133 147.695 10.9947 147.695 11.208C147.695 11.528 147.535 11.8373 147.215 12.136C146.895 12.424 146.42 12.664 145.791 12.856C145.172 13.0373 144.41 13.128 143.503 13.128ZM142.575 7.896C143.332 7.896 143.94 7.736 144.399 7.416C144.858 7.096 145.087 6.70133 145.087 6.232C145.087 5.85867 144.959 5.55467 144.703 5.32C144.458 5.07467 144.068 4.952 143.535 4.952C143.034 4.952 142.58 5.048 142.175 5.24C141.78 5.42133 141.471 5.66133 141.247 5.96C141.023 6.25867 140.911 6.584 140.911 6.936C140.911 7.24533 141.055 7.48533 141.343 7.656C141.642 7.816 142.052 7.896 142.575 7.896ZM152.157 12.744C151.154 12.744 150.338 12.36 149.709 11.592C149.08 10.8133 148.765 9.63467 148.765 8.056C148.765 6.37067 149.069 5.13867 149.677 4.36C150.285 3.58133 151.085 3.192 152.077 3.192C152.664 3.192 153.181 3.34133 153.629 3.64C154.077 3.93867 154.461 4.36 154.781 4.904L154.653 5.128C154.621 4.97867 154.594 4.81867 154.573 4.648C154.552 4.47733 154.541 4.34933 154.541 4.264C154.541 3.82667 154.61 3.49067 154.749 3.256C154.898 3.01067 155.128 2.888 155.437 2.888C155.778 2.888 156.045 3.02667 156.237 3.304C156.44 3.58133 156.594 3.976 156.701 4.488C156.84 5.01067 156.957 5.67733 157.053 6.488C157.149 7.288 157.197 8.09867 157.197 8.92C157.197 9.944 157.16 10.8027 157.085 11.496C157.01 12.1893 156.888 12.7653 156.717 13.224C156.546 13.6827 156.322 14.0827 156.045 14.424C155.586 14.9787 154.994 15.4 154.269 15.688C153.554 15.9867 152.728 16.136 151.789 16.136C151.117 16.136 150.578 16.072 150.173 15.944C149.768 15.8267 149.474 15.6613 149.293 15.448C149.122 15.2453 149.037 15.016 149.037 14.76C149.037 14.4933 149.112 14.2693 149.261 14.088C149.41 13.9173 149.634 13.832 149.933 13.832C150.2 13.832 150.509 13.8747 150.861 13.96C151.224 14.0453 151.65 14.088 152.141 14.088C153.176 14.088 153.906 13.8427 154.333 13.352C154.77 12.872 154.989 12.1787 154.989 11.272C154.989 11.0267 154.973 10.7387 154.941 10.408L155.165 10.488C154.898 11.1707 154.504 11.72 153.981 12.136C153.458 12.5413 152.85 12.744 152.157 12.744ZM152.765 10.776C153.106 10.776 153.448 10.6853 153.789 10.504C154.13 10.3227 154.413 10.024 154.637 9.608C154.861 9.192 154.973 8.632 154.973 7.928C154.973 7.08533 154.776 6.39733 154.381 5.864C153.986 5.33067 153.432 5.064 152.717 5.064C152.098 5.064 151.645 5.29867 151.357 5.768C151.069 6.23733 150.925 6.94667 150.925 7.896C150.925 8.80267 151.069 9.512 151.357 10.024C151.645 10.5253 152.114 10.776 152.765 10.776ZM160.556 0.728C160.983 0.728 161.287 0.845333 161.468 1.08C161.66 1.31467 161.756 1.58667 161.756 1.896C161.756 2.28 161.639 2.57867 161.404 2.792C161.18 2.99467 160.86 3.096 160.444 3.096C160.039 3.096 159.735 2.984 159.532 2.76C159.329 2.52533 159.228 2.25333 159.228 1.944C159.228 1.53867 159.351 1.23467 159.596 1.032C159.841 0.829333 160.161 0.728 160.556 0.728ZM160.652 4.296C160.993 4.296 161.26 4.616 161.452 5.256C161.655 5.896 161.756 6.91467 161.756 8.312C161.756 10.0293 161.633 11.2667 161.388 12.024C161.143 12.7813 160.769 13.16 160.268 13.16C159.884 13.16 159.601 12.8827 159.42 12.328C159.239 11.7627 159.148 10.7813 159.148 9.384C159.148 7.66667 159.287 6.392 159.564 5.56C159.852 4.71733 160.215 4.296 160.652 4.296Z" fill="#060606"/>
</svg>
