<svg version="1.1" xmlns="http://www.w3.org/2000/svg" xmlns:xlink="http://www.w3.org/1999/xlink" width="180.15459" height="100.51253" viewBox="0,0,180.15459,100.51253"><g transform="translate(-149.8387,-130.57147)"><g data-paper-data="{&quot;isPaintingLayer&quot;:true}" fill-rule="nonzero" stroke-linecap="butt" stroke-linejoin="miter" stroke-miterlimit="10" stroke-dasharray="" stroke-dashoffset="0" style="mix-blend-mode: normal"><path d="M161.65802,219v-78h156.68397v78z" fill="none" stroke="#000000" stroke-width="2"/><path d="M328.9013,228.096c-0.168,0 -0.32,-0.044 -0.456,-0.132c-0.128,-0.088 -0.228,-0.24 -0.3,-0.456c-0.072,-0.224 -0.108,-0.532 -0.108,-0.924c0,-0.568 0.012,-1.176 0.036,-1.824c0.024,-0.656 0.056,-1.316 0.096,-1.98c0.048,-0.672 0.092,-1.32 0.132,-1.944h-0.048c-0.28,1.16 -0.58,2.04 -0.9,2.64c-0.32,0.592 -0.676,0.888 -1.068,0.888c-0.24,0 -0.464,-0.108 -0.672,-0.324c-0.2,-0.224 -0.396,-0.596 -0.588,-1.116c-0.184,-0.528 -0.388,-1.244 -0.612,-2.148h-0.048c0.024,0.424 0.048,0.876 0.072,1.356c0.024,0.48 0.044,0.964 0.06,1.452c0.024,0.488 0.04,0.952 0.048,1.392c0.016,0.44 0.024,0.832 0.024,1.176c0,0.296 -0.028,0.568 -0.084,0.816c-0.048,0.248 -0.14,0.444 -0.276,0.588c-0.128,0.144 -0.308,0.216 -0.54,0.216c-0.312,0 -0.544,-0.124 -0.696,-0.372c-0.152,-0.256 -0.228,-0.676 -0.228,-1.26c0,-0.344 0.008,-0.744 0.024,-1.2c0.024,-0.464 0.052,-0.94 0.084,-1.428c0.032,-0.496 0.072,-0.972 0.12,-1.428c0.048,-0.464 0.1,-0.868 0.156,-1.212c0.096,-0.544 0.228,-0.928 0.396,-1.152c0.168,-0.232 0.392,-0.348 0.672,-0.348c0.232,0 0.46,0.104 0.684,0.312c0.224,0.2 0.456,0.544 0.696,1.032c0.24,0.48 0.492,1.144 0.756,1.992h0.048c0.256,-0.864 0.5,-1.556 0.732,-2.076c0.232,-0.528 0.456,-0.908 0.672,-1.14c0.216,-0.232 0.42,-0.348 0.612,-0.348c0.304,0 0.536,0.12 0.696,0.36c0.16,0.232 0.292,0.564 0.396,0.996c0.12,0.496 0.216,1.076 0.288,1.74c0.072,0.664 0.124,1.344 0.156,2.04c0.04,0.688 0.06,1.332 0.06,1.932c0,0.688 -0.1,1.176 -0.3,1.464c-0.2,0.28 -0.464,0.42 -0.792,0.42z" fill="#000000" stroke="none" stroke-width="1"/><path d="M326.4114,140.29463c-0.488,0 -0.852,-0.064 -1.092,-0.192c-0.24,-0.128 -0.44,-0.36 -0.6,-0.696c-0.112,-0.256 -0.208,-0.672 -0.288,-1.248c-0.072,-0.584 -0.108,-1.34 -0.108,-2.268c0,-0.648 0.012,-1.268 0.036,-1.86c0.032,-0.592 0.076,-1.048 0.132,-1.368c0.064,-0.408 0.168,-0.7 0.312,-0.876c0.152,-0.176 0.34,-0.264 0.564,-0.264c0.2,0 0.356,0.088 0.468,0.264c0.12,0.176 0.204,0.416 0.252,0.72c0.048,0.296 0.072,0.624 0.072,0.984c0,0.976 -0.036,1.964 -0.108,2.964c-0.064,1 -0.156,1.92 -0.276,2.76l-0.156,-0.216c0.36,-0.248 0.744,-0.46 1.152,-0.636c0.416,-0.176 0.82,-0.312 1.212,-0.408c0.4,-0.096 0.748,-0.144 1.044,-0.144c0.296,0 0.512,0.06 0.648,0.18c0.144,0.12 0.216,0.292 0.216,0.516c0,0.224 -0.1,0.452 -0.3,0.684c-0.192,0.224 -0.468,0.42 -0.828,0.588c-0.2,0.096 -0.436,0.184 -0.708,0.264c-0.272,0.072 -0.552,0.132 -0.84,0.18c-0.28,0.048 -0.548,0.072 -0.804,0.072z" fill="#000000" stroke="none" stroke-width="1"/><path d="M150.6307,139.47547c-0.144,0 -0.26,-0.048 -0.348,-0.144c-0.088,-0.104 -0.16,-0.268 -0.216,-0.492c-0.056,-0.256 -0.108,-0.656 -0.156,-1.2c-0.048,-0.552 -0.072,-1.168 -0.072,-1.848c0,-0.736 0.02,-1.452 0.06,-2.148c0.048,-0.704 0.116,-1.324 0.204,-1.86c0.064,-0.352 0.156,-0.612 0.276,-0.78c0.128,-0.176 0.304,-0.264 0.528,-0.264c0.144,0 0.272,0.048 0.384,0.144c0.112,0.096 0.196,0.268 0.252,0.516c0.064,0.248 0.096,0.6 0.096,1.056c0,0.224 -0.008,0.48 -0.024,0.768c-0.016,0.28 -0.04,0.592 -0.072,0.936h0.048c0.64,-0.88 1.204,-1.58 1.692,-2.1c0.488,-0.528 0.916,-0.908 1.284,-1.14c0.376,-0.232 0.704,-0.348 0.984,-0.348c0.224,0 0.392,0.072 0.504,0.216c0.12,0.144 0.18,0.32 0.18,0.528c0,0.44 -0.332,0.968 -0.996,1.584c-0.656,0.616 -1.716,1.356 -3.18,2.22l0.096,-0.228c1.264,0.8 2.22,1.508 2.868,2.124c0.648,0.608 0.972,1.148 0.972,1.62c0,0.208 -0.068,0.38 -0.204,0.516c-0.128,0.128 -0.32,0.192 -0.576,0.192c-0.32,0 -0.66,-0.108 -1.02,-0.324c-0.36,-0.224 -0.76,-0.596 -1.2,-1.116c-0.432,-0.528 -0.924,-1.244 -1.476,-2.148h-0.048c0.016,0.184 0.028,0.376 0.036,0.576c0.008,0.192 0.012,0.384 0.012,0.576c0,0.92 -0.064,1.58 -0.192,1.98c-0.128,0.392 -0.36,0.588 -0.696,0.588z" fill="#000000" stroke="none" stroke-width="1"/><path d="M152.7608,222.468c0.248,0 0.5,0.14 0.756,0.42c0.264,0.272 0.54,0.68 0.828,1.224c0.288,0.544 0.6,1.22 0.936,2.028c0.344,0.808 0.72,1.744 1.128,2.808h0.048c-0.056,-0.384 -0.108,-0.804 -0.156,-1.26c-0.048,-0.456 -0.092,-0.916 -0.132,-1.38c-0.04,-0.464 -0.072,-0.896 -0.096,-1.296c-0.016,-0.408 -0.024,-0.756 -0.024,-1.044c0,-0.664 0.06,-1.132 0.18,-1.404c0.128,-0.28 0.324,-0.42 0.588,-0.42c0.184,0 0.332,0.048 0.444,0.144c0.112,0.096 0.208,0.236 0.288,0.42c0.184,0.448 0.316,1.064 0.396,1.848c0.08,0.784 0.12,1.68 0.12,2.688c0,0.776 -0.032,1.436 -0.096,1.98c-0.064,0.544 -0.184,0.956 -0.36,1.236c-0.176,0.28 -0.432,0.42 -0.768,0.42c-0.224,0 -0.452,-0.088 -0.684,-0.264c-0.232,-0.184 -0.468,-0.452 -0.708,-0.804c-0.232,-0.36 -0.476,-0.808 -0.732,-1.344c-0.248,-0.536 -0.512,-1.16 -0.792,-1.872c-0.272,-0.72 -0.56,-1.524 -0.864,-2.412h-0.048c0.056,0.416 0.104,0.908 0.144,1.476c0.04,0.568 0.072,1.148 0.096,1.74c0.024,0.592 0.036,1.136 0.036,1.632c0,0.744 -0.076,1.272 -0.228,1.584c-0.144,0.312 -0.372,0.468 -0.684,0.468c-0.344,0 -0.592,-0.16 -0.744,-0.48c-0.144,-0.328 -0.216,-0.832 -0.216,-1.512c0,-0.424 0.008,-0.908 0.024,-1.452c0.024,-0.544 0.056,-1.104 0.096,-1.68c0.04,-0.576 0.092,-1.124 0.156,-1.644c0.08,-0.648 0.192,-1.116 0.336,-1.404c0.144,-0.296 0.388,-0.444 0.732,-0.444z" fill="#000000" stroke="none" stroke-width="1"/></g></g></svg>