<svg xmlns="http://www.w3.org/2000/svg" fill="none" viewBox="0 0 53 16" height="16" width="53">
<rect stroke="black" fill="#6DE997" rx="4.5" height="15" width="52" y="0.5" x="0.5"></rect>
<path fill="black" d="M10.2889 6.325C10.5356 6.325 10.7422 6.33833 10.9089 6.365C11.0789 6.38833 11.2156 6.41833 11.3189 6.455C11.4289 6.49833 11.5039 6.54833 11.5439 6.605C11.5872 6.66167 11.6089 6.72667 11.6089 6.8C11.6089 6.90667 11.5672 6.99333 11.4839 7.06C11.4039 7.12667 11.2806 7.16 11.1139 7.16C11.0006 7.16 10.8789 7.14833 10.7489 7.125C10.6189 7.10167 10.4856 7.06667 10.3489 7.02L10.4139 6.95C10.4439 7.12333 10.4706 7.315 10.4939 7.525C10.5172 7.735 10.5372 7.94833 10.5539 8.165C10.5739 8.37833 10.5872 8.58 10.5939 8.77C10.6039 8.96 10.6089 9.12167 10.6089 9.255C10.6089 9.515 10.5756 9.71 10.5089 9.84C10.4456 9.97 10.3356 10.035 10.1789 10.035C10.0356 10.035 9.93222 9.97667 9.86889 9.86C9.80555 9.74 9.77389 9.55833 9.77389 9.315C9.77389 9.155 9.78055 8.97167 9.79389 8.765C9.81055 8.55833 9.83222 8.345 9.85889 8.125C9.88555 7.905 9.91389 7.695 9.94389 7.495C9.97722 7.29167 10.0106 7.115 10.0439 6.965L10.1339 7.02C10.0606 7.04667 9.97389 7.07333 9.87389 7.1C9.77389 7.12333 9.67389 7.14333 9.57389 7.16C9.47389 7.17333 9.38555 7.18 9.30889 7.18C9.13889 7.18 9.01889 7.15333 8.94889 7.1C8.87889 7.04333 8.84389 6.96833 8.84389 6.875C8.84389 6.78833 8.87055 6.715 8.92389 6.655C8.97722 6.59167 9.05889 6.53667 9.16889 6.49C9.29555 6.43667 9.45055 6.39667 9.63389 6.37C9.82055 6.34 10.0389 6.325 10.2889 6.325ZM14.1585 10.05C14.0451 10.05 13.9668 10.0067 13.9235 9.92C13.8835 9.83 13.8601 9.68833 13.8535 9.495L13.9035 9.52C13.7168 9.88333 13.3635 10.065 12.8435 10.065C12.6068 10.065 12.4101 10.0233 12.2535 9.94C12.0968 9.85333 11.9801 9.74 11.9035 9.6C11.8301 9.45667 11.7935 9.30167 11.7935 9.135C11.7935 8.84833 11.8935 8.62167 12.0935 8.455C12.2935 8.285 12.5585 8.2 12.8885 8.2C13.1051 8.2 13.2935 8.23167 13.4535 8.295C13.6135 8.35833 13.7501 8.44667 13.8635 8.56L13.7785 8.55C13.7551 8.21333 13.6818 7.97333 13.5585 7.83C13.4385 7.68333 13.2668 7.61 13.0435 7.61C12.9135 7.61 12.7935 7.63 12.6835 7.67C12.5735 7.71 12.4718 7.75167 12.3785 7.795C12.2885 7.835 12.2035 7.855 12.1235 7.855C12.0435 7.855 11.9801 7.82833 11.9335 7.775C11.8901 7.72167 11.8685 7.65333 11.8685 7.57C11.8685 7.45 11.9251 7.33667 12.0385 7.23C12.1551 7.12333 12.3085 7.03667 12.4985 6.97C12.6885 6.90333 12.8951 6.87 13.1185 6.87C13.3885 6.87 13.6201 6.935 13.8135 7.065C14.0068 7.195 14.1535 7.385 14.2535 7.635C14.3401 7.84833 14.4018 8.08667 14.4385 8.35C14.4751 8.61333 14.4935 8.895 14.4935 9.195C14.4935 9.42167 14.4818 9.59667 14.4585 9.72C14.4351 9.84333 14.3985 9.93 14.3485 9.98C14.3018 10.0267 14.2385 10.05 14.1585 10.05ZM13.0535 9.49C13.1635 9.49 13.2751 9.475 13.3885 9.445C13.5018 9.41167 13.5968 9.36333 13.6735 9.3C13.7501 9.23667 13.7885 9.15833 13.7885 9.065C13.7885 8.985 13.7551 8.92 13.6885 8.87C13.6251 8.81667 13.5401 8.77667 13.4335 8.75C13.3301 8.72333 13.2185 8.71 13.0985 8.71C12.8951 8.71 12.7401 8.745 12.6335 8.815C12.5301 8.885 12.4785 8.97833 12.4785 9.095C12.4785 9.22167 12.5268 9.32 12.6235 9.39C12.7235 9.45667 12.8668 9.49 13.0535 9.49ZM17.2583 7.71C17.2917 7.57333 17.35 7.45 17.4333 7.34C17.52 7.23 17.6233 7.14333 17.7433 7.08C17.8667 7.01333 18.0017 6.98 18.1483 6.98C18.3217 6.98 18.475 7.02167 18.6083 7.105C18.7417 7.18833 18.8467 7.325 18.9233 7.515C19.0033 7.705 19.0433 7.95833 19.0433 8.275C19.0433 8.43833 19.0367 8.60333 19.0233 8.77C19.01 8.93667 18.9933 9.09167 18.9733 9.235C18.9533 9.37833 18.9317 9.49833 18.9083 9.595C18.875 9.72833 18.8233 9.83 18.7533 9.9C18.6867 9.97 18.6017 10.005 18.4983 10.005C18.4117 10.005 18.3433 9.96667 18.2933 9.89C18.2433 9.81333 18.2183 9.70333 18.2183 9.56C18.2183 9.49333 18.2267 9.40833 18.2433 9.305C18.26 9.19833 18.2783 9.08333 18.2983 8.96C18.3183 8.83333 18.3367 8.705 18.3533 8.575C18.37 8.445 18.3783 8.32167 18.3783 8.205C18.3783 8.03167 18.3433 7.89833 18.2733 7.805C18.2033 7.70833 18.105 7.66 17.9783 7.66C17.8383 7.66 17.7217 7.73333 17.6283 7.88C17.5383 8.02333 17.485 8.23333 17.4683 8.51C17.455 8.75667 17.4433 8.97667 17.4333 9.17C17.4233 9.36 17.3983 9.51667 17.3583 9.64C17.3317 9.72667 17.2933 9.79167 17.2433 9.835C17.1967 9.87833 17.1333 9.9 17.0533 9.9C16.9633 9.9 16.8917 9.86667 16.8383 9.8C16.7883 9.73333 16.76 9.62833 16.7533 9.485C16.7467 9.365 16.745 9.22333 16.7483 9.06C16.7517 8.89667 16.7533 8.735 16.7533 8.575C16.7567 8.41167 16.755 8.27667 16.7483 8.17C16.735 7.95667 16.6967 7.8 16.6333 7.7C16.5733 7.6 16.4817 7.55 16.3583 7.55C16.215 7.55 16.1 7.61667 16.0133 7.75C15.93 7.88333 15.8783 8.06833 15.8583 8.305C15.8517 8.40167 15.8483 8.52167 15.8483 8.665C15.8517 8.805 15.855 8.945 15.8583 9.085C15.8617 9.225 15.86 9.34167 15.8533 9.435C15.85 9.635 15.8183 9.77833 15.7583 9.865C15.7017 9.95167 15.6217 9.995 15.5183 9.995C15.395 9.995 15.305 9.955 15.2483 9.875C15.195 9.795 15.16 9.66667 15.1433 9.49C15.13 9.33333 15.12 9.17833 15.1133 9.025C15.1067 8.86833 15.1033 8.71333 15.1033 8.56C15.1033 8.40333 15.1067 8.23333 15.1133 8.05C15.1233 7.86667 15.1367 7.69333 15.1533 7.53C15.1733 7.36333 15.2083 7.22333 15.2583 7.11C15.3083 6.99667 15.3917 6.94 15.5083 6.94C15.605 6.94 15.6733 6.98833 15.7133 7.085C15.7533 7.17833 15.7733 7.32333 15.7733 7.52C15.7733 7.58667 15.7683 7.64833 15.7583 7.705L15.7433 7.605C15.81 7.38833 15.9167 7.22 16.0633 7.1C16.21 6.97667 16.3733 6.915 16.5533 6.915C16.79 6.915 16.975 6.99167 17.1083 7.145C17.2417 7.295 17.315 7.50333 17.3283 7.77L17.2583 7.71ZM19.9941 6.9C20.0841 6.9 20.1591 6.95333 20.2191 7.06C20.2791 7.16333 20.3208 7.32833 20.3441 7.555L20.2391 7.65C20.2991 7.41667 20.4108 7.23833 20.5741 7.115C20.7375 6.99167 20.9308 6.93 21.1541 6.93C21.3608 6.93 21.5441 6.98333 21.7041 7.09C21.8641 7.19667 21.9891 7.35833 22.0791 7.575C22.1725 7.78833 22.2191 8.05667 22.2191 8.38C22.2191 8.90333 22.1241 9.29 21.9341 9.54C21.7475 9.78667 21.4925 9.91 21.1691 9.91C20.9358 9.91 20.7525 9.86 20.6191 9.76C20.4858 9.66 20.3925 9.53833 20.3391 9.395L20.3991 9.365C20.4258 9.565 20.4475 9.76333 20.4641 9.96C20.4841 10.1533 20.4941 10.3233 20.4941 10.47C20.4941 10.62 20.4675 10.7467 20.4141 10.85C20.3608 10.9533 20.2758 11.005 20.1591 11.005C20.0458 11.005 19.9608 10.9617 19.9041 10.875C19.8475 10.7883 19.8058 10.6733 19.7791 10.53C19.7591 10.3833 19.7391 10.195 19.7191 9.965C19.6991 9.735 19.6825 9.48667 19.6691 9.22C19.6591 8.95333 19.6541 8.69333 19.6541 8.44C19.6541 8.18 19.6625 7.93667 19.6791 7.71C19.6991 7.48 19.7225 7.29333 19.7491 7.15C19.7725 7.06667 19.8025 7.005 19.8391 6.965C19.8791 6.92167 19.9308 6.9 19.9941 6.9ZM20.9491 7.505C20.7691 7.505 20.6241 7.595 20.5141 7.775C20.4075 7.95167 20.3541 8.17833 20.3541 8.455C20.3541 8.73833 20.4075 8.95 20.5141 9.09C20.6241 9.23 20.7658 9.3 20.9391 9.3C21.1391 9.3 21.2825 9.22167 21.3691 9.065C21.4591 8.905 21.5041 8.69833 21.5041 8.445C21.5041 8.12167 21.4491 7.885 21.3391 7.735C21.2291 7.58167 21.0991 7.505 20.9491 7.505ZM23.1654 6.165C23.2987 6.165 23.3937 6.20167 23.4504 6.275C23.5104 6.34833 23.5404 6.43333 23.5404 6.53C23.5404 6.65 23.5037 6.74333 23.4304 6.81C23.3604 6.87333 23.2604 6.905 23.1304 6.905C23.0037 6.905 22.9087 6.87 22.8454 6.8C22.7821 6.72667 22.7504 6.64167 22.7504 6.545C22.7504 6.41833 22.7887 6.32333 22.8654 6.26C22.9421 6.19667 23.0421 6.165 23.1654 6.165ZM23.1954 7.28C23.3021 7.28 23.3854 7.38 23.4454 7.58C23.5087 7.78 23.5404 8.09833 23.5404 8.535C23.5404 9.07167 23.5021 9.45833 23.4254 9.695C23.3487 9.93167 23.2321 10.05 23.0754 10.05C22.9554 10.05 22.8671 9.96333 22.8104 9.79C22.7537 9.61333 22.7254 9.30667 22.7254 8.87C22.7254 8.33333 22.7687 7.935 22.8554 7.675C22.9454 7.41167 23.0587 7.28 23.1954 7.28ZM24.6912 10.01C24.5879 10.01 24.5062 9.98667 24.4462 9.94C24.3862 9.89 24.3379 9.80833 24.3012 9.695C24.2512 9.52833 24.2129 9.31833 24.1862 9.065C24.1629 8.80833 24.1512 8.49333 24.1512 8.12C24.1512 7.89 24.1595 7.66 24.1762 7.43C24.1962 7.19667 24.2212 6.985 24.2512 6.795C24.2812 6.60167 24.3129 6.45167 24.3462 6.345C24.3829 6.23167 24.4262 6.15333 24.4762 6.11C24.5262 6.06667 24.5829 6.045 24.6462 6.045C24.7129 6.045 24.7662 6.06833 24.8062 6.115C24.8462 6.15833 24.8779 6.23667 24.9012 6.35C24.9212 6.46 24.9362 6.595 24.9462 6.755C24.9595 6.915 24.9662 7.08667 24.9662 7.27C24.9662 7.52 24.9545 7.78333 24.9312 8.06C24.9079 8.33667 24.8762 8.60833 24.8362 8.875C24.7995 9.14167 24.7545 9.38667 24.7012 9.61L24.5612 9.54C24.6479 9.43333 24.7462 9.35 24.8562 9.29C24.9695 9.23 25.0729 9.2 25.1662 9.2C25.2429 9.2 25.3012 9.22167 25.3412 9.265C25.3845 9.305 25.4062 9.36833 25.4062 9.455C25.4062 9.54167 25.3679 9.62833 25.2912 9.715C25.2179 9.80167 25.1262 9.87333 25.0162 9.93C24.9062 9.98333 24.7979 10.01 24.6912 10.01ZM26.2002 10.05C26.1368 10.05 26.0852 10.0317 26.0452 9.995C26.0052 9.955 25.9768 9.89833 25.9602 9.825C25.9335 9.70167 25.9102 9.52333 25.8902 9.29C25.8702 9.05667 25.8602 8.79833 25.8602 8.515C25.8602 8.165 25.8718 7.82833 25.8952 7.505C25.9218 7.18167 25.9552 6.91667 25.9952 6.71C26.0385 6.48667 26.0918 6.32333 26.1552 6.22C26.2185 6.11333 26.3018 6.06 26.4052 6.06C26.4985 6.06 26.5702 6.10333 26.6202 6.19C26.6702 6.27333 26.6952 6.41833 26.6952 6.625C26.6952 6.83167 26.6868 7.05333 26.6702 7.29C26.6568 7.52667 26.6335 7.78 26.6002 8.05H26.6202C26.8368 7.75667 27.0385 7.52167 27.2252 7.345C27.4152 7.16833 27.5885 7.04 27.7452 6.96C27.9052 6.88 28.0468 6.84 28.1702 6.84C28.2668 6.84 28.3385 6.87 28.3852 6.93C28.4318 6.99 28.4552 7.06333 28.4552 7.15C28.4552 7.32 28.3185 7.51 28.0452 7.72C27.7752 7.93 27.3852 8.145 26.8752 8.365L26.8802 8.285C27.1968 8.44833 27.4685 8.62 27.6952 8.8C27.9252 8.97667 28.1002 9.145 28.2202 9.305C28.3435 9.46167 28.4052 9.59333 28.4052 9.7C28.4052 9.78667 28.3768 9.85833 28.3202 9.915C28.2668 9.96833 28.1885 9.995 28.0852 9.995C27.9552 9.995 27.8102 9.94667 27.6502 9.85C27.4935 9.75 27.3302 9.60167 27.1602 9.405C26.9902 9.20833 26.8202 8.96167 26.6502 8.665H26.6302C26.6268 8.875 26.6135 9.08 26.5902 9.28C26.5702 9.47667 26.5435 9.63833 26.5102 9.765C26.4868 9.85167 26.4502 9.92167 26.4002 9.975C26.3535 10.025 26.2868 10.05 26.2002 10.05ZM31.0432 10.05C30.9299 10.05 30.8516 10.0067 30.8082 9.92C30.7682 9.83 30.7449 9.68833 30.7382 9.495L30.7882 9.52C30.6016 9.88333 30.2482 10.065 29.7282 10.065C29.4916 10.065 29.2949 10.0233 29.1382 9.94C28.9816 9.85333 28.8649 9.74 28.7882 9.6C28.7149 9.45667 28.6782 9.30167 28.6782 9.135C28.6782 8.84833 28.7782 8.62167 28.9782 8.455C29.1782 8.285 29.4432 8.2 29.7732 8.2C29.9899 8.2 30.1782 8.23167 30.3382 8.295C30.4982 8.35833 30.6349 8.44667 30.7482 8.56L30.6632 8.55C30.6399 8.21333 30.5666 7.97333 30.4432 7.83C30.3232 7.68333 30.1516 7.61 29.9282 7.61C29.7982 7.61 29.6782 7.63 29.5682 7.67C29.4582 7.71 29.3566 7.75167 29.2632 7.795C29.1732 7.835 29.0882 7.855 29.0082 7.855C28.9282 7.855 28.8649 7.82833 28.8182 7.775C28.7749 7.72167 28.7532 7.65333 28.7532 7.57C28.7532 7.45 28.8099 7.33667 28.9232 7.23C29.0399 7.12333 29.1932 7.03667 29.3832 6.97C29.5732 6.90333 29.7799 6.87 30.0032 6.87C30.2732 6.87 30.5049 6.935 30.6982 7.065C30.8916 7.195 31.0382 7.385 31.1382 7.635C31.2249 7.84833 31.2866 8.08667 31.3232 8.35C31.3599 8.61333 31.3782 8.895 31.3782 9.195C31.3782 9.42167 31.3666 9.59667 31.3432 9.72C31.3199 9.84333 31.2832 9.93 31.2332 9.98C31.1866 10.0267 31.1232 10.05 31.0432 10.05ZM29.9382 9.49C30.0482 9.49 30.1599 9.475 30.2732 9.445C30.3866 9.41167 30.4816 9.36333 30.5582 9.3C30.6349 9.23667 30.6732 9.15833 30.6732 9.065C30.6732 8.985 30.6399 8.92 30.5732 8.87C30.5099 8.81667 30.4249 8.77667 30.3182 8.75C30.2149 8.72333 30.1032 8.71 29.9832 8.71C29.7799 8.71 29.6249 8.745 29.5182 8.815C29.4149 8.885 29.3632 8.97833 29.3632 9.095C29.3632 9.22167 29.4116 9.32 29.5082 9.39C29.6082 9.45667 29.7516 9.49 29.9382 9.49ZM32.4981 6.89C32.6048 6.89 32.6764 6.93333 32.7131 7.02C32.7531 7.10667 32.7731 7.235 32.7731 7.405C32.7731 7.445 32.7698 7.48833 32.7631 7.535C32.7598 7.57833 32.7531 7.61833 32.7431 7.655L32.7331 7.555C32.8131 7.33833 32.9364 7.17 33.1031 7.05C33.2698 6.92667 33.4464 6.865 33.6331 6.865C33.8398 6.865 34.0114 6.92333 34.1481 7.04C34.2881 7.15667 34.3914 7.32 34.4581 7.53C34.5281 7.74 34.5631 7.98833 34.5631 8.275C34.5631 8.45167 34.5548 8.62667 34.5381 8.8C34.5248 8.97 34.5048 9.12667 34.4781 9.27C34.4548 9.41 34.4281 9.525 34.3981 9.615C34.3581 9.72833 34.3064 9.81333 34.2431 9.87C34.1798 9.92333 34.1048 9.95 34.0181 9.95C33.9314 9.95 33.8648 9.91833 33.8181 9.855C33.7714 9.79167 33.7481 9.70667 33.7481 9.6C33.7481 9.48667 33.7564 9.35 33.7731 9.19C33.7898 9.02667 33.8048 8.86167 33.8181 8.695C33.8348 8.525 33.8431 8.37167 33.8431 8.235C33.8431 7.76833 33.6898 7.535 33.3831 7.535C33.2198 7.535 33.0831 7.60833 32.9731 7.755C32.8631 7.89833 32.7898 8.10333 32.7531 8.37C32.7431 8.46 32.7381 8.57167 32.7381 8.705C32.7381 8.83833 32.7381 8.97167 32.7381 9.105C32.7414 9.235 32.7381 9.345 32.7281 9.435C32.7148 9.635 32.6764 9.77833 32.6131 9.865C32.5531 9.95167 32.4698 9.995 32.3631 9.995C32.2398 9.995 32.1464 9.93833 32.0831 9.825C32.0198 9.70833 31.9881 9.51333 31.9881 9.24C31.9881 9.1 31.9914 8.94333 31.9981 8.77C32.0048 8.59667 32.0131 8.42333 32.0231 8.25C32.0364 8.07333 32.0514 7.91333 32.0681 7.77C32.1014 7.5 32.1498 7.28667 32.2131 7.13C32.2764 6.97 32.3714 6.89 32.4981 6.89ZM37.1827 10.015C37.0727 10.015 36.9493 10.0083 36.8127 9.995C36.6793 9.98167 36.5493 9.95667 36.4227 9.92C36.2993 9.88 36.196 9.82667 36.1127 9.76C36.0327 9.69 35.9927 9.6 35.9927 9.49C35.9927 9.37667 36.0277 9.29167 36.0977 9.235C36.171 9.17833 36.2893 9.15 36.4527 9.15C36.566 9.15 36.6927 9.165 36.8327 9.195C36.976 9.225 37.1127 9.24 37.2427 9.24C37.436 9.24 37.5777 9.21 37.6677 9.15C37.761 9.09 37.8077 9.00833 37.8077 8.905C37.8077 8.84167 37.7893 8.785 37.7527 8.735C37.7193 8.685 37.651 8.635 37.5477 8.585C37.4443 8.535 37.2893 8.48 37.0827 8.42C36.846 8.35667 36.6543 8.28667 36.5077 8.21C36.361 8.13 36.2543 8.035 36.1877 7.925C36.121 7.815 36.0877 7.685 36.0877 7.535C36.0877 7.35167 36.1193 7.19333 36.1827 7.06C36.2493 6.92333 36.3377 6.80833 36.4477 6.715C36.5577 6.61833 36.681 6.54167 36.8177 6.485C36.9543 6.42833 37.0927 6.38667 37.2327 6.36C37.376 6.33333 37.5127 6.32 37.6427 6.32C37.9293 6.32 38.1627 6.365 38.3427 6.455C38.526 6.545 38.6177 6.665 38.6177 6.815C38.6177 6.92167 38.5827 7.00833 38.5127 7.075C38.446 7.14167 38.3427 7.175 38.2027 7.175C38.1427 7.175 38.071 7.16667 37.9877 7.15C37.9043 7.13333 37.8127 7.11667 37.7127 7.1C37.6127 7.08333 37.5027 7.075 37.3827 7.075C37.1793 7.075 37.0227 7.10667 36.9127 7.17C36.8027 7.23333 36.7477 7.335 36.7477 7.475C36.7477 7.535 36.7627 7.59 36.7927 7.64C36.826 7.69 36.8943 7.74167 36.9977 7.795C37.101 7.84833 37.2593 7.91 37.4727 7.98C37.736 8.06 37.9427 8.14833 38.0927 8.245C38.2427 8.33833 38.3493 8.445 38.4127 8.565C38.476 8.685 38.5077 8.82 38.5077 8.97C38.5077 9.17667 38.451 9.36 38.3377 9.52C38.2277 9.67667 38.0727 9.79833 37.8727 9.885C37.676 9.97167 37.446 10.015 37.1827 10.015ZM39.4887 6.165C39.622 6.165 39.717 6.20167 39.7737 6.275C39.8337 6.34833 39.8637 6.43333 39.8637 6.53C39.8637 6.65 39.827 6.74333 39.7537 6.81C39.6837 6.87333 39.5837 6.905 39.4537 6.905C39.327 6.905 39.232 6.87 39.1687 6.8C39.1053 6.72667 39.0737 6.64167 39.0737 6.545C39.0737 6.41833 39.112 6.32333 39.1887 6.26C39.2653 6.19667 39.3653 6.165 39.4887 6.165ZM39.5187 7.28C39.6253 7.28 39.7087 7.38 39.7687 7.58C39.832 7.78 39.8637 8.09833 39.8637 8.535C39.8637 9.07167 39.8253 9.45833 39.7487 9.695C39.672 9.93167 39.5553 10.05 39.3987 10.05C39.2787 10.05 39.1903 9.96333 39.1337 9.79C39.077 9.61333 39.0487 9.30667 39.0487 8.87C39.0487 8.33333 39.092 7.935 39.1787 7.675C39.2687 7.41167 39.382 7.28 39.5187 7.28ZM41.7394 6.87C42.0361 6.87 42.2494 6.91333 42.3794 7C42.5094 7.08667 42.5744 7.19833 42.5744 7.335C42.5744 7.415 42.5461 7.48167 42.4894 7.535C42.4361 7.585 42.3594 7.61 42.2594 7.61C42.1561 7.61 42.0478 7.595 41.9344 7.565C41.8244 7.535 41.6961 7.52 41.5494 7.52C41.3794 7.52 41.2528 7.55333 41.1694 7.62C41.0861 7.68667 41.0444 7.77167 41.0444 7.875C41.0444 7.97167 41.0811 8.04833 41.1544 8.105C41.2311 8.15833 41.3761 8.19833 41.5894 8.225C41.8261 8.25167 42.0211 8.295 42.1744 8.355C42.3311 8.41167 42.4478 8.49833 42.5244 8.615C42.6011 8.72833 42.6394 8.885 42.6394 9.085C42.6394 9.40167 42.5278 9.63667 42.3044 9.79C42.0811 9.94333 41.7728 10.02 41.3794 10.02C41.1294 10.02 40.9311 10 40.7844 9.96C40.6378 9.92 40.5311 9.86333 40.4644 9.79C40.4011 9.71667 40.3694 9.63 40.3694 9.53C40.3694 9.44333 40.3978 9.37667 40.4544 9.33C40.5144 9.28 40.5844 9.255 40.6644 9.255C40.7411 9.255 40.8228 9.265 40.9094 9.285C40.9961 9.30167 41.0878 9.32 41.1844 9.34C41.2811 9.36 41.3811 9.37 41.4844 9.37C41.8178 9.37 41.9844 9.26667 41.9844 9.06C41.9844 8.99 41.9678 8.93333 41.9344 8.89C41.9011 8.84667 41.8411 8.81167 41.7544 8.785C41.6678 8.755 41.5411 8.73167 41.3744 8.715C41.1744 8.695 41.0011 8.66167 40.8544 8.615C40.7078 8.565 40.5944 8.485 40.5144 8.375C40.4344 8.26167 40.3944 8.10667 40.3944 7.91C40.3944 7.6 40.5111 7.35 40.7444 7.16C40.9778 6.96667 41.3094 6.87 41.7394 6.87ZM43.5853 6.165C43.7187 6.165 43.8137 6.20167 43.8703 6.275C43.9303 6.34833 43.9603 6.43333 43.9603 6.53C43.9603 6.65 43.9237 6.74333 43.8503 6.81C43.7803 6.87333 43.6803 6.905 43.5503 6.905C43.4237 6.905 43.3287 6.87 43.2653 6.8C43.202 6.72667 43.1703 6.64167 43.1703 6.545C43.1703 6.41833 43.2087 6.32333 43.2853 6.26C43.362 6.19667 43.462 6.165 43.5853 6.165ZM43.6153 7.28C43.722 7.28 43.8053 7.38 43.8653 7.58C43.9287 7.78 43.9603 8.09833 43.9603 8.535C43.9603 9.07167 43.922 9.45833 43.8453 9.695C43.7687 9.93167 43.652 10.05 43.4953 10.05C43.3753 10.05 43.287 9.96333 43.2303 9.79C43.1737 9.61333 43.1453 9.30667 43.1453 8.87C43.1453 8.33333 43.1887 7.935 43.2753 7.675C43.3653 7.41167 43.4787 7.28 43.6153 7.28Z"></path>
</svg>
