<svg xmlns="http://www.w3.org/2000/svg" fill="none" viewBox="0 0 307 13" height="13" width="307">
<path fill="black" d="M3.81598 1.18C4.40798 1.18 4.90398 1.212 5.30398 1.276C5.71198 1.332 6.03998 1.404 6.28798 1.492C6.55198 1.596 6.73198 1.716 6.82798 1.852C6.93198 1.988 6.98398 2.144 6.98398 2.32C6.98398 2.576 6.88398 2.784 6.68398 2.944C6.49198 3.104 6.19598 3.184 5.79598 3.184C5.52398 3.184 5.23198 3.156 4.91998 3.1C4.60798 3.044 4.28798 2.96 3.95998 2.848L4.11598 2.68C4.18798 3.096 4.25198 3.556 4.30798 4.06C4.36398 4.564 4.41198 5.076 4.45198 5.596C4.49998 6.108 4.53198 6.592 4.54798 7.048C4.57198 7.504 4.58398 7.892 4.58398 8.212C4.58398 8.836 4.50398 9.304 4.34398 9.616C4.19198 9.928 3.92798 10.084 3.55198 10.084C3.20798 10.084 2.95998 9.944 2.80798 9.664C2.65598 9.376 2.57998 8.94 2.57998 8.356C2.57998 7.972 2.59598 7.532 2.62798 7.036C2.66798 6.54 2.71998 6.028 2.78398 5.5C2.84798 4.972 2.91598 4.468 2.98798 3.988C3.06798 3.5 3.14798 3.076 3.22798 2.716L3.44398 2.848C3.26798 2.912 3.05998 2.976 2.81998 3.04C2.57998 3.096 2.33998 3.144 2.09998 3.184C1.85998 3.216 1.64798 3.232 1.46398 3.232C1.05598 3.232 0.767984 3.168 0.599984 3.04C0.431984 2.904 0.347984 2.724 0.347984 2.5C0.347984 2.292 0.411984 2.116 0.539984 1.972C0.667984 1.82 0.863984 1.688 1.12798 1.576C1.43198 1.448 1.80398 1.352 2.24398 1.288C2.69198 1.216 3.21598 1.18 3.81598 1.18ZM10.8557 10.096C9.96767 10.096 9.25967 9.964 8.73167 9.7C8.20367 9.436 7.82367 9.056 7.59167 8.56C7.35967 8.064 7.24367 7.472 7.24367 6.784C7.24367 5.912 7.40367 5.172 7.72367 4.564C8.05167 3.948 8.49967 3.476 9.06767 3.148C9.64367 2.82 10.2957 2.656 11.0237 2.656C11.8797 2.656 12.5077 2.856 12.9077 3.256C13.3077 3.648 13.5077 4.164 13.5077 4.804C13.5077 5.316 13.3717 5.76 13.0997 6.136C12.8357 6.504 12.4677 6.788 11.9957 6.988C11.5237 7.188 10.9797 7.288 10.3637 7.288C10.0197 7.288 9.68767 7.244 9.36767 7.156C9.04767 7.068 8.75967 6.948 8.50367 6.796L8.79167 6.268C8.76767 6.46 8.75567 6.652 8.75567 6.844C8.75567 7.404 8.93167 7.808 9.28367 8.056C9.63567 8.296 10.1357 8.416 10.7837 8.416C11.2877 8.416 11.6917 8.372 11.9957 8.284C12.2997 8.196 12.5557 8.112 12.7637 8.032C12.9717 7.944 13.1757 7.9 13.3757 7.9C13.4877 7.9 13.5877 7.932 13.6757 7.996C13.7717 8.052 13.8477 8.136 13.9037 8.248C13.9677 8.36 13.9997 8.496 13.9997 8.656C13.9997 8.896 13.8797 9.128 13.6397 9.352C13.3997 9.568 13.0437 9.748 12.5717 9.892C12.1077 10.028 11.5357 10.096 10.8557 10.096ZM10.1597 6.172C10.7277 6.172 11.1837 6.052 11.5277 5.812C11.8717 5.572 12.0437 5.276 12.0437 4.924C12.0437 4.644 11.9477 4.416 11.7557 4.24C11.5717 4.056 11.2797 3.964 10.8797 3.964C10.5037 3.964 10.1637 4.036 9.85967 4.18C9.56367 4.316 9.33167 4.496 9.16367 4.72C8.99567 4.944 8.91167 5.188 8.91167 5.452C8.91167 5.684 9.01967 5.864 9.23567 5.992C9.45967 6.112 9.76767 6.172 10.1597 6.172ZM15.8703 10.12C15.7183 10.12 15.5943 10.076 15.4983 9.988C15.4023 9.892 15.3343 9.756 15.2943 9.58C15.2303 9.284 15.1743 8.856 15.1263 8.296C15.0783 7.736 15.0543 7.116 15.0543 6.436C15.0543 5.596 15.0823 4.788 15.1383 4.012C15.2023 3.236 15.2823 2.6 15.3783 2.104C15.4823 1.568 15.6103 1.176 15.7623 0.927999C15.9143 0.671999 16.1143 0.543999 16.3623 0.543999C16.5863 0.543999 16.7583 0.648 16.8783 0.856C16.9983 1.056 17.0583 1.404 17.0583 1.9C17.0583 2.396 17.0383 2.928 16.9983 3.496C16.9663 4.064 16.9103 4.672 16.8303 5.32H16.8783C17.3983 4.616 17.8823 4.052 18.3303 3.628C18.7863 3.204 19.2023 2.896 19.5783 2.704C19.9623 2.512 20.3023 2.416 20.5983 2.416C20.8303 2.416 21.0023 2.488 21.1143 2.632C21.2263 2.776 21.2823 2.952 21.2823 3.16C21.2823 3.568 20.9543 4.024 20.2983 4.528C19.6503 5.032 18.7143 5.548 17.4903 6.076L17.5023 5.884C18.2623 6.276 18.9143 6.688 19.4583 7.12C20.0103 7.544 20.4303 7.948 20.7183 8.332C21.0143 8.708 21.1623 9.024 21.1623 9.28C21.1623 9.488 21.0943 9.66 20.9583 9.796C20.8303 9.924 20.6423 9.988 20.3943 9.988C20.0823 9.988 19.7343 9.872 19.3503 9.64C18.9743 9.4 18.5823 9.044 18.1743 8.572C17.7663 8.1 17.3583 7.508 16.9503 6.796H16.9023C16.8943 7.3 16.8623 7.792 16.8063 8.272C16.7583 8.744 16.6943 9.132 16.6143 9.436C16.5583 9.644 16.4703 9.812 16.3503 9.94C16.2383 10.06 16.0783 10.12 15.8703 10.12ZM27.4936 10.12C27.2216 10.12 27.0336 10.016 26.9296 9.808C26.8336 9.592 26.7776 9.252 26.7616 8.788L26.8816 8.848C26.4336 9.72 25.5856 10.156 24.3376 10.156C23.7696 10.156 23.2976 10.056 22.9216 9.856C22.5456 9.648 22.2656 9.376 22.0816 9.04C21.9056 8.696 21.8176 8.324 21.8176 7.924C21.8176 7.236 22.0576 6.692 22.5376 6.292C23.0176 5.884 23.6536 5.68 24.4456 5.68C24.9656 5.68 25.4176 5.756 25.8016 5.908C26.1856 6.06 26.5136 6.272 26.7856 6.544L26.5816 6.52C26.5256 5.712 26.3496 5.136 26.0536 4.792C25.7656 4.44 25.3536 4.264 24.8176 4.264C24.5056 4.264 24.2176 4.312 23.9536 4.408C23.6896 4.504 23.4456 4.604 23.2216 4.708C23.0056 4.804 22.8016 4.852 22.6096 4.852C22.4176 4.852 22.2656 4.788 22.1536 4.66C22.0496 4.532 21.9976 4.368 21.9976 4.168C21.9976 3.88 22.1336 3.608 22.4056 3.352C22.6856 3.096 23.0536 2.888 23.5096 2.728C23.9656 2.568 24.4616 2.488 24.9976 2.488C25.6456 2.488 26.2016 2.644 26.6656 2.956C27.1296 3.268 27.4816 3.724 27.7216 4.324C27.9296 4.836 28.0776 5.408 28.1656 6.04C28.2536 6.672 28.2976 7.348 28.2976 8.068C28.2976 8.612 28.2696 9.032 28.2136 9.328C28.1576 9.624 28.0696 9.832 27.9496 9.952C27.8376 10.064 27.6856 10.12 27.4936 10.12ZM24.8416 8.776C25.1056 8.776 25.3736 8.74 25.6456 8.668C25.9176 8.588 26.1456 8.472 26.3296 8.32C26.5136 8.168 26.6056 7.98 26.6056 7.756C26.6056 7.564 26.5256 7.408 26.3656 7.288C26.2136 7.16 26.0096 7.064 25.7536 7C25.5056 6.936 25.2376 6.904 24.9496 6.904C24.4616 6.904 24.0896 6.988 23.8336 7.156C23.5856 7.324 23.4616 7.548 23.4616 7.828C23.4616 8.132 23.5776 8.368 23.8096 8.536C24.0496 8.696 24.3936 8.776 24.8416 8.776ZM30.9853 2.536C31.2413 2.536 31.4133 2.64 31.5013 2.848C31.5973 3.056 31.6453 3.364 31.6453 3.772C31.6453 3.868 31.6373 3.972 31.6213 4.084C31.6133 4.188 31.5973 4.284 31.5733 4.372L31.5493 4.132C31.7413 3.612 32.0373 3.208 32.4373 2.92C32.8373 2.624 33.2613 2.476 33.7093 2.476C34.2053 2.476 34.6173 2.616 34.9453 2.896C35.2813 3.176 35.5293 3.568 35.6893 4.072C35.8573 4.576 35.9413 5.172 35.9413 5.86C35.9413 6.284 35.9213 6.704 35.8813 7.12C35.8493 7.528 35.8013 7.904 35.7373 8.248C35.6813 8.584 35.6173 8.86 35.5453 9.076C35.4493 9.348 35.3253 9.552 35.1733 9.688C35.0213 9.816 34.8413 9.88 34.6333 9.88C34.4253 9.88 34.2653 9.804 34.1533 9.652C34.0413 9.5 33.9853 9.296 33.9853 9.04C33.9853 8.768 34.0053 8.44 34.0453 8.056C34.0853 7.664 34.1213 7.268 34.1533 6.868C34.1933 6.46 34.2133 6.092 34.2133 5.764C34.2133 4.644 33.8453 4.084 33.1093 4.084C32.7173 4.084 32.3893 4.26 32.1253 4.612C31.8613 4.956 31.6853 5.448 31.5973 6.088C31.5733 6.304 31.5613 6.572 31.5613 6.892C31.5613 7.212 31.5613 7.532 31.5613 7.852C31.5693 8.164 31.5613 8.428 31.5373 8.644C31.5053 9.124 31.4133 9.468 31.2613 9.676C31.1173 9.884 30.9173 9.988 30.6613 9.988C30.3653 9.988 30.1413 9.852 29.9893 9.58C29.8373 9.3 29.7613 8.832 29.7613 8.176C29.7613 7.84 29.7693 7.464 29.7853 7.048C29.8013 6.632 29.8213 6.216 29.8453 5.8C29.8773 5.376 29.9133 4.992 29.9533 4.648C30.0333 4 30.1493 3.488 30.3013 3.112C30.4533 2.728 30.6813 2.536 30.9853 2.536ZM40.6563 10.12C40.5123 10.12 40.3963 10.072 40.3083 9.976C40.2203 9.872 40.1483 9.708 40.0923 9.484C40.0363 9.228 39.9843 8.828 39.9363 8.284C39.8883 7.732 39.8643 7.116 39.8643 6.436C39.8643 5.7 39.8843 4.984 39.9243 4.288C39.9723 3.584 40.0403 2.964 40.1283 2.428C40.1923 2.076 40.2843 1.816 40.4043 1.648C40.5323 1.472 40.7083 1.384 40.9323 1.384C41.0763 1.384 41.2043 1.432 41.3163 1.528C41.4283 1.624 41.5123 1.796 41.5683 2.044C41.6323 2.292 41.6643 2.644 41.6643 3.1C41.6643 3.324 41.6563 3.58 41.6403 3.868C41.6243 4.148 41.6003 4.46 41.5683 4.804H41.6163C42.2563 3.924 42.8203 3.224 43.3083 2.704C43.7963 2.176 44.2243 1.796 44.5923 1.564C44.9683 1.332 45.2963 1.216 45.5763 1.216C45.8003 1.216 45.9683 1.288 46.0803 1.432C46.2003 1.576 46.2603 1.752 46.2603 1.96C46.2603 2.4 45.9283 2.928 45.2643 3.544C44.6083 4.16 43.5483 4.9 42.0843 5.764L42.1803 5.536C43.4443 6.336 44.4003 7.044 45.0483 7.66C45.6963 8.268 46.0203 8.808 46.0203 9.28C46.0203 9.488 45.9523 9.66 45.8163 9.796C45.6883 9.924 45.4963 9.988 45.2403 9.988C44.9203 9.988 44.5803 9.88 44.2203 9.664C43.8603 9.44 43.4603 9.068 43.0203 8.548C42.5883 8.02 42.0963 7.304 41.5443 6.4H41.4963C41.5123 6.584 41.5243 6.776 41.5323 6.976C41.5403 7.168 41.5443 7.36 41.5443 7.552C41.5443 8.472 41.4803 9.132 41.3523 9.532C41.2243 9.924 40.9923 10.12 40.6563 10.12ZM50.1968 10.036C49.5568 10.036 48.9968 9.896 48.5168 9.616C48.0448 9.328 47.6768 8.92 47.4128 8.392C47.1568 7.864 47.0288 7.236 47.0288 6.508C47.0288 5.748 47.1608 5.084 47.4248 4.516C47.6888 3.948 48.0608 3.504 48.5408 3.184C49.0288 2.864 49.5928 2.704 50.2328 2.704C50.9208 2.704 51.5168 2.86 52.0208 3.172C52.5248 3.476 52.9168 3.904 53.1968 4.456C53.4768 5.008 53.6168 5.652 53.6168 6.388C53.6168 7.14 53.4768 7.788 53.1968 8.332C52.9168 8.876 52.5208 9.296 52.0088 9.592C51.4968 9.888 50.8928 10.036 50.1968 10.036ZM50.3648 8.416C50.8608 8.416 51.2528 8.22 51.5408 7.828C51.8368 7.428 51.9848 6.9 51.9848 6.244C51.9848 5.58 51.8368 5.052 51.5408 4.66C51.2528 4.268 50.8608 4.072 50.3648 4.072C49.8528 4.072 49.4488 4.268 49.1528 4.66C48.8568 5.052 48.7088 5.58 48.7088 6.244C48.7088 6.9 48.8568 7.428 49.1528 7.828C49.4488 8.22 49.8528 8.416 50.3648 8.416ZM56.7385 2.776H56.4985C56.4745 2.424 56.4825 2.092 56.5225 1.78C56.5625 1.46 56.6465 1.204 56.7745 1.012C56.9105 0.812 57.1025 0.711999 57.3505 0.711999C57.5745 0.711999 57.7385 0.783999 57.8425 0.927999C57.9465 1.072 57.9985 1.272 57.9985 1.528C57.9985 2.032 57.9025 2.464 57.7105 2.824L57.4945 2.8C57.9265 2.648 58.4145 2.572 58.9585 2.572C59.3025 2.572 59.5745 2.64 59.7745 2.776C59.9825 2.904 60.0865 3.124 60.0865 3.436C60.0865 3.732 59.9665 3.956 59.7265 4.108C59.4865 4.26 59.1865 4.336 58.8265 4.336C58.6105 4.336 58.3785 4.328 58.1305 4.312C57.8905 4.288 57.6545 4.252 57.4225 4.204L57.6265 3.952C57.6985 4.256 57.7665 4.604 57.8305 4.996C57.9025 5.38 57.9665 5.78 58.0225 6.196C58.0785 6.612 58.1225 7.016 58.1545 7.408C58.1865 7.8 58.2025 8.152 58.2025 8.464C58.2025 8.976 58.1225 9.38 57.9625 9.676C57.8025 9.972 57.5665 10.12 57.2545 10.12C57.0065 10.12 56.8105 10.044 56.6665 9.892C56.5305 9.74 56.4305 9.548 56.3665 9.316C56.3105 9.076 56.2745 8.828 56.2585 8.572C56.2505 8.316 56.2465 8.084 56.2465 7.876C56.2465 7.524 56.2625 7.128 56.2945 6.688C56.3265 6.24 56.3705 5.78 56.4265 5.308C56.4905 4.836 56.5625 4.38 56.6425 3.94L56.8825 4.144C56.4745 4.352 55.9705 4.456 55.3705 4.456C55.0025 4.456 54.7185 4.388 54.5185 4.252C54.3185 4.116 54.2185 3.904 54.2185 3.616C54.2185 3.304 54.3305 3.064 54.5545 2.896C54.7785 2.72 55.0785 2.632 55.4545 2.632C55.7025 2.632 55.9345 2.648 56.1505 2.68C56.3745 2.704 56.5705 2.736 56.7385 2.776ZM66.3061 10.12C66.0341 10.12 65.8461 10.016 65.7421 9.808C65.6461 9.592 65.5901 9.252 65.5741 8.788L65.6941 8.848C65.2461 9.72 64.3981 10.156 63.1501 10.156C62.5821 10.156 62.1101 10.056 61.7341 9.856C61.3581 9.648 61.0781 9.376 60.8941 9.04C60.7181 8.696 60.6301 8.324 60.6301 7.924C60.6301 7.236 60.8701 6.692 61.3501 6.292C61.8301 5.884 62.4661 5.68 63.2581 5.68C63.7781 5.68 64.2301 5.756 64.6141 5.908C64.9981 6.06 65.3261 6.272 65.5981 6.544L65.3941 6.52C65.3381 5.712 65.1621 5.136 64.8661 4.792C64.5781 4.44 64.1661 4.264 63.6301 4.264C63.3181 4.264 63.0301 4.312 62.7661 4.408C62.5021 4.504 62.2581 4.604 62.0341 4.708C61.8181 4.804 61.6141 4.852 61.4221 4.852C61.2301 4.852 61.0781 4.788 60.9661 4.66C60.8621 4.532 60.8101 4.368 60.8101 4.168C60.8101 3.88 60.9461 3.608 61.2181 3.352C61.4981 3.096 61.8661 2.888 62.3221 2.728C62.7781 2.568 63.2741 2.488 63.8101 2.488C64.4581 2.488 65.0141 2.644 65.4781 2.956C65.9421 3.268 66.2941 3.724 66.5341 4.324C66.7421 4.836 66.8901 5.408 66.9781 6.04C67.0661 6.672 67.1101 7.348 67.1101 8.068C67.1101 8.612 67.0821 9.032 67.0261 9.328C66.9701 9.624 66.8821 9.832 66.7621 9.952C66.6501 10.064 66.4981 10.12 66.3061 10.12ZM63.6541 8.776C63.9181 8.776 64.1861 8.74 64.4581 8.668C64.7301 8.588 64.9581 8.472 65.1421 8.32C65.3261 8.168 65.4181 7.98 65.4181 7.756C65.4181 7.564 65.3381 7.408 65.1781 7.288C65.0261 7.16 64.8221 7.064 64.5661 7C64.3181 6.936 64.0501 6.904 63.7621 6.904C63.2741 6.904 62.9021 6.988 62.6461 7.156C62.3981 7.324 62.2741 7.548 62.2741 7.828C62.2741 8.132 62.3901 8.368 62.6221 8.536C62.8621 8.696 63.2061 8.776 63.6541 8.776ZM69.3898 10.12C69.2378 10.12 69.1138 10.076 69.0178 9.988C68.9218 9.892 68.8538 9.756 68.8138 9.58C68.7498 9.284 68.6938 8.856 68.6458 8.296C68.5978 7.736 68.5738 7.116 68.5738 6.436C68.5738 5.596 68.6018 4.788 68.6578 4.012C68.7218 3.236 68.8018 2.6 68.8978 2.104C69.0018 1.568 69.1298 1.176 69.2818 0.927999C69.4338 0.671999 69.6338 0.543999 69.8818 0.543999C70.1058 0.543999 70.2778 0.648 70.3978 0.856C70.5178 1.056 70.5778 1.404 70.5778 1.9C70.5778 2.396 70.5578 2.928 70.5178 3.496C70.4858 4.064 70.4298 4.672 70.3498 5.32H70.3978C70.9178 4.616 71.4018 4.052 71.8498 3.628C72.3058 3.204 72.7218 2.896 73.0978 2.704C73.4818 2.512 73.8218 2.416 74.1178 2.416C74.3498 2.416 74.5218 2.488 74.6338 2.632C74.7458 2.776 74.8018 2.952 74.8018 3.16C74.8018 3.568 74.4738 4.024 73.8178 4.528C73.1698 5.032 72.2338 5.548 71.0098 6.076L71.0218 5.884C71.7818 6.276 72.4338 6.688 72.9778 7.12C73.5298 7.544 73.9498 7.948 74.2378 8.332C74.5338 8.708 74.6818 9.024 74.6818 9.28C74.6818 9.488 74.6138 9.66 74.4778 9.796C74.3498 9.924 74.1618 9.988 73.9138 9.988C73.6018 9.988 73.2538 9.872 72.8698 9.64C72.4938 9.4 72.1018 9.044 71.6938 8.572C71.2858 8.1 70.8778 7.508 70.4698 6.796H70.4218C70.4138 7.3 70.3818 7.792 70.3258 8.272C70.2778 8.744 70.2138 9.132 70.1338 9.436C70.0778 9.644 69.9898 9.812 69.8698 9.94C69.7578 10.06 69.5978 10.12 69.3898 10.12ZM81.1235 10.096C80.0995 10.096 79.3595 9.808 78.9035 9.232C78.4555 8.656 78.2315 7.704 78.2315 6.376C78.2315 5.928 78.2435 5.472 78.2675 5.008C78.2995 4.536 78.3395 4.084 78.3875 3.652C78.4435 3.212 78.5075 2.832 78.5795 2.512C78.6515 2.176 78.7635 1.912 78.9155 1.72C79.0755 1.52 79.3115 1.42 79.6235 1.42C79.8635 1.42 80.0475 1.492 80.1755 1.636C80.3115 1.78 80.3795 2 80.3795 2.296C80.3795 2.48 80.3515 2.724 80.2955 3.028C80.2395 3.332 80.1755 3.664 80.1035 4.024C80.0395 4.384 79.9795 4.748 79.9235 5.116C79.8675 5.476 79.8395 5.812 79.8395 6.124C79.8395 6.924 79.9635 7.484 80.2115 7.804C80.4675 8.116 80.8355 8.272 81.3155 8.272C81.7795 8.272 82.1235 8.1 82.3475 7.756C82.5795 7.412 82.6955 6.868 82.6955 6.124C82.6955 5.892 82.6795 5.596 82.6475 5.236C82.6155 4.876 82.5795 4.5 82.5395 4.108C82.4995 3.716 82.4635 3.356 82.4315 3.028C82.3995 2.692 82.3835 2.44 82.3835 2.272C82.3835 1.576 82.6275 1.228 83.1155 1.228C83.3955 1.228 83.6115 1.316 83.7635 1.492C83.9155 1.66 84.0195 1.916 84.0755 2.26C84.1315 2.564 84.1795 2.932 84.2195 3.364C84.2595 3.788 84.2875 4.232 84.3035 4.696C84.3275 5.16 84.3395 5.596 84.3395 6.004C84.3395 6.972 84.2275 7.756 84.0035 8.356C83.7875 8.956 83.4435 9.396 82.9715 9.676C82.4995 9.956 81.8835 10.096 81.1235 10.096ZM87.083 2.536C87.339 2.536 87.511 2.64 87.599 2.848C87.695 3.056 87.743 3.364 87.743 3.772C87.743 3.868 87.735 3.972 87.719 4.084C87.711 4.188 87.695 4.284 87.671 4.372L87.647 4.132C87.839 3.612 88.135 3.208 88.535 2.92C88.935 2.624 89.359 2.476 89.807 2.476C90.303 2.476 90.715 2.616 91.043 2.896C91.379 3.176 91.627 3.568 91.787 4.072C91.955 4.576 92.039 5.172 92.039 5.86C92.039 6.284 92.019 6.704 91.979 7.12C91.947 7.528 91.899 7.904 91.835 8.248C91.779 8.584 91.715 8.86 91.643 9.076C91.547 9.348 91.423 9.552 91.271 9.688C91.119 9.816 90.939 9.88 90.731 9.88C90.523 9.88 90.363 9.804 90.251 9.652C90.139 9.5 90.083 9.296 90.083 9.04C90.083 8.768 90.103 8.44 90.143 8.056C90.183 7.664 90.219 7.268 90.251 6.868C90.291 6.46 90.311 6.092 90.311 5.764C90.311 4.644 89.943 4.084 89.207 4.084C88.815 4.084 88.487 4.26 88.223 4.612C87.959 4.956 87.783 5.448 87.695 6.088C87.671 6.304 87.659 6.572 87.659 6.892C87.659 7.212 87.659 7.532 87.659 7.852C87.667 8.164 87.659 8.428 87.635 8.644C87.603 9.124 87.511 9.468 87.359 9.676C87.215 9.884 87.015 9.988 86.759 9.988C86.463 9.988 86.239 9.852 86.087 9.58C85.935 9.3 85.859 8.832 85.859 8.176C85.859 7.84 85.867 7.464 85.883 7.048C85.899 6.632 85.919 6.216 85.943 5.8C85.975 5.376 86.011 4.992 86.051 4.648C86.131 4 86.247 3.488 86.399 3.112C86.551 2.728 86.779 2.536 87.083 2.536ZM95.5276 2.776H95.2876C95.2636 2.424 95.2716 2.092 95.3116 1.78C95.3516 1.46 95.4356 1.204 95.5636 1.012C95.6996 0.812 95.8916 0.711999 96.1396 0.711999C96.3636 0.711999 96.5276 0.783999 96.6316 0.927999C96.7356 1.072 96.7876 1.272 96.7876 1.528C96.7876 2.032 96.6916 2.464 96.4996 2.824L96.2836 2.8C96.7156 2.648 97.2036 2.572 97.7476 2.572C98.0916 2.572 98.3636 2.64 98.5636 2.776C98.7716 2.904 98.8756 3.124 98.8756 3.436C98.8756 3.732 98.7556 3.956 98.5156 4.108C98.2756 4.26 97.9756 4.336 97.6156 4.336C97.3996 4.336 97.1676 4.328 96.9196 4.312C96.6796 4.288 96.4436 4.252 96.2116 4.204L96.4156 3.952C96.4876 4.256 96.5556 4.604 96.6196 4.996C96.6916 5.38 96.7556 5.78 96.8116 6.196C96.8676 6.612 96.9116 7.016 96.9436 7.408C96.9756 7.8 96.9916 8.152 96.9916 8.464C96.9916 8.976 96.9116 9.38 96.7516 9.676C96.5916 9.972 96.3556 10.12 96.0436 10.12C95.7956 10.12 95.5996 10.044 95.4556 9.892C95.3196 9.74 95.2196 9.548 95.1556 9.316C95.0996 9.076 95.0636 8.828 95.0476 8.572C95.0396 8.316 95.0356 8.084 95.0356 7.876C95.0356 7.524 95.0516 7.128 95.0836 6.688C95.1156 6.24 95.1596 5.78 95.2156 5.308C95.2796 4.836 95.3516 4.38 95.4316 3.94L95.6716 4.144C95.2636 4.352 94.7596 4.456 94.1596 4.456C93.7916 4.456 93.5076 4.388 93.3076 4.252C93.1076 4.116 93.0076 3.904 93.0076 3.616C93.0076 3.304 93.1196 3.064 93.3436 2.896C93.5676 2.72 93.8676 2.632 94.2436 2.632C94.4916 2.632 94.7236 2.648 94.9396 2.68C95.1636 2.704 95.3596 2.736 95.5276 2.776ZM105.251 9.928C105.035 9.928 104.867 9.856 104.747 9.712C104.635 9.56 104.559 9.368 104.519 9.136C104.479 8.896 104.459 8.644 104.459 8.38L104.519 8.332C104.439 8.676 104.283 8.972 104.051 9.22C103.819 9.468 103.551 9.66 103.247 9.796C102.943 9.924 102.639 9.988 102.335 9.988C101.927 9.988 101.555 9.892 101.219 9.7C100.883 9.508 100.623 9.212 100.439 8.812C100.255 8.388 100.111 7.856 100.007 7.216C99.9031 6.568 99.8511 5.904 99.8511 5.224C99.8511 4.856 99.8671 4.516 99.8991 4.204C99.9311 3.892 99.9831 3.636 100.055 3.436C100.119 3.228 100.215 3.076 100.343 2.98C100.471 2.876 100.635 2.824 100.835 2.824C101.067 2.824 101.247 2.916 101.375 3.1C101.511 3.276 101.595 3.524 101.627 3.844C101.659 4.108 101.679 4.436 101.687 4.828C101.703 5.212 101.715 5.6 101.723 5.992C101.739 6.376 101.759 6.7 101.783 6.964C101.831 7.444 101.955 7.8 102.155 8.032C102.355 8.256 102.599 8.368 102.887 8.368C103.311 8.368 103.635 8.208 103.859 7.888C104.083 7.568 104.195 7.12 104.195 6.544C104.195 6.256 104.179 5.932 104.147 5.572C104.115 5.204 104.079 4.848 104.039 4.504C104.007 4.16 103.991 3.876 103.991 3.652C103.991 3.276 104.055 3.008 104.183 2.848C104.311 2.68 104.487 2.596 104.711 2.596C104.903 2.596 105.063 2.648 105.191 2.752C105.327 2.856 105.435 3 105.515 3.184C105.627 3.424 105.723 3.752 105.803 4.168C105.883 4.584 105.947 5.056 105.995 5.584C106.043 6.112 106.067 6.668 106.067 7.252C106.067 8.148 106.007 8.82 105.887 9.268C105.767 9.708 105.555 9.928 105.251 9.928ZM108.343 10.12C108.191 10.12 108.067 10.076 107.971 9.988C107.875 9.892 107.807 9.756 107.767 9.58C107.703 9.284 107.647 8.856 107.599 8.296C107.551 7.736 107.527 7.116 107.527 6.436C107.527 5.596 107.555 4.788 107.611 4.012C107.675 3.236 107.755 2.6 107.851 2.104C107.955 1.568 108.083 1.176 108.235 0.927999C108.387 0.671999 108.587 0.543999 108.835 0.543999C109.059 0.543999 109.231 0.648 109.351 0.856C109.471 1.056 109.531 1.404 109.531 1.9C109.531 2.396 109.511 2.928 109.471 3.496C109.439 4.064 109.383 4.672 109.303 5.32H109.351C109.871 4.616 110.355 4.052 110.803 3.628C111.259 3.204 111.675 2.896 112.051 2.704C112.435 2.512 112.775 2.416 113.071 2.416C113.303 2.416 113.475 2.488 113.587 2.632C113.699 2.776 113.755 2.952 113.755 3.16C113.755 3.568 113.427 4.024 112.771 4.528C112.123 5.032 111.187 5.548 109.963 6.076L109.975 5.884C110.735 6.276 111.387 6.688 111.931 7.12C112.483 7.544 112.903 7.948 113.191 8.332C113.487 8.708 113.635 9.024 113.635 9.28C113.635 9.488 113.567 9.66 113.431 9.796C113.303 9.924 113.115 9.988 112.867 9.988C112.555 9.988 112.207 9.872 111.823 9.64C111.447 9.4 111.055 9.044 110.647 8.572C110.239 8.1 109.831 7.508 109.423 6.796H109.375C109.367 7.3 109.335 7.792 109.279 8.272C109.231 8.744 109.167 9.132 109.087 9.436C109.031 9.644 108.943 9.812 108.823 9.94C108.711 10.06 108.551 10.12 108.343 10.12ZM123.341 10.096C123.173 10.096 123.021 10.052 122.885 9.964C122.757 9.876 122.657 9.724 122.585 9.508C122.513 9.284 122.477 8.976 122.477 8.584C122.477 8.016 122.489 7.408 122.513 6.76C122.537 6.104 122.569 5.444 122.609 4.78C122.657 4.108 122.701 3.46 122.741 2.836H122.693C122.413 3.996 122.113 4.876 121.793 5.476C121.473 6.068 121.117 6.364 120.725 6.364C120.485 6.364 120.261 6.256 120.053 6.04C119.853 5.816 119.657 5.444 119.465 4.924C119.281 4.396 119.077 3.68 118.853 2.776H118.805C118.829 3.2 118.853 3.652 118.877 4.132C118.901 4.612 118.921 5.096 118.937 5.584C118.961 6.072 118.977 6.536 118.985 6.976C119.001 7.416 119.009 7.808 119.009 8.152C119.009 8.448 118.981 8.72 118.925 8.968C118.877 9.216 118.785 9.412 118.649 9.556C118.521 9.7 118.341 9.772 118.109 9.772C117.797 9.772 117.565 9.648 117.413 9.4C117.261 9.144 117.185 8.724 117.185 8.14C117.185 7.796 117.193 7.396 117.209 6.94C117.233 6.476 117.261 6 117.293 5.512C117.325 5.016 117.365 4.54 117.413 4.084C117.461 3.62 117.513 3.216 117.569 2.872C117.665 2.328 117.797 1.944 117.965 1.72C118.133 1.488 118.357 1.372 118.637 1.372C118.869 1.372 119.097 1.476 119.321 1.684C119.545 1.884 119.777 2.228 120.017 2.716C120.257 3.196 120.509 3.86 120.773 4.708H120.821C121.077 3.844 121.321 3.152 121.553 2.632C121.785 2.104 122.009 1.724 122.225 1.492C122.441 1.26 122.645 1.144 122.837 1.144C123.141 1.144 123.373 1.264 123.533 1.504C123.693 1.736 123.825 2.068 123.929 2.5C124.049 2.996 124.145 3.576 124.217 4.24C124.289 4.904 124.341 5.584 124.373 6.28C124.413 6.968 124.433 7.612 124.433 8.212C124.433 8.9 124.333 9.388 124.133 9.676C123.933 9.956 123.669 10.096 123.341 10.096ZM129.321 10.096C128.433 10.096 127.725 9.964 127.197 9.7C126.669 9.436 126.289 9.056 126.057 8.56C125.825 8.064 125.709 7.472 125.709 6.784C125.709 5.912 125.869 5.172 126.189 4.564C126.517 3.948 126.965 3.476 127.533 3.148C128.109 2.82 128.761 2.656 129.489 2.656C130.345 2.656 130.973 2.856 131.373 3.256C131.773 3.648 131.973 4.164 131.973 4.804C131.973 5.316 131.837 5.76 131.565 6.136C131.301 6.504 130.933 6.788 130.461 6.988C129.989 7.188 129.445 7.288 128.829 7.288C128.485 7.288 128.153 7.244 127.833 7.156C127.513 7.068 127.225 6.948 126.969 6.796L127.257 6.268C127.233 6.46 127.221 6.652 127.221 6.844C127.221 7.404 127.397 7.808 127.749 8.056C128.101 8.296 128.601 8.416 129.249 8.416C129.753 8.416 130.157 8.372 130.461 8.284C130.765 8.196 131.021 8.112 131.229 8.032C131.437 7.944 131.641 7.9 131.841 7.9C131.953 7.9 132.053 7.932 132.141 7.996C132.237 8.052 132.313 8.136 132.369 8.248C132.433 8.36 132.465 8.496 132.465 8.656C132.465 8.896 132.345 9.128 132.105 9.352C131.865 9.568 131.509 9.748 131.037 9.892C130.573 10.028 130.001 10.096 129.321 10.096ZM128.625 6.172C129.193 6.172 129.649 6.052 129.993 5.812C130.337 5.572 130.509 5.276 130.509 4.924C130.509 4.644 130.413 4.416 130.221 4.24C130.037 4.056 129.745 3.964 129.345 3.964C128.969 3.964 128.629 4.036 128.325 4.18C128.029 4.316 127.797 4.496 127.629 4.72C127.461 4.944 127.377 5.188 127.377 5.452C127.377 5.684 127.485 5.864 127.701 5.992C127.925 6.112 128.233 6.172 128.625 6.172ZM134.743 2.536C134.999 2.536 135.171 2.64 135.259 2.848C135.355 3.056 135.403 3.364 135.403 3.772C135.403 3.868 135.395 3.972 135.379 4.084C135.371 4.188 135.355 4.284 135.331 4.372L135.307 4.132C135.499 3.612 135.795 3.208 136.195 2.92C136.595 2.624 137.019 2.476 137.467 2.476C137.963 2.476 138.375 2.616 138.703 2.896C139.039 3.176 139.287 3.568 139.447 4.072C139.615 4.576 139.699 5.172 139.699 5.86C139.699 6.284 139.679 6.704 139.639 7.12C139.607 7.528 139.559 7.904 139.495 8.248C139.439 8.584 139.375 8.86 139.303 9.076C139.207 9.348 139.083 9.552 138.931 9.688C138.779 9.816 138.599 9.88 138.391 9.88C138.183 9.88 138.023 9.804 137.911 9.652C137.799 9.5 137.743 9.296 137.743 9.04C137.743 8.768 137.763 8.44 137.803 8.056C137.843 7.664 137.879 7.268 137.911 6.868C137.951 6.46 137.971 6.092 137.971 5.764C137.971 4.644 137.603 4.084 136.867 4.084C136.475 4.084 136.147 4.26 135.883 4.612C135.619 4.956 135.443 5.448 135.355 6.088C135.331 6.304 135.319 6.572 135.319 6.892C135.319 7.212 135.319 7.532 135.319 7.852C135.327 8.164 135.319 8.428 135.295 8.644C135.263 9.124 135.171 9.468 135.019 9.676C134.875 9.884 134.675 9.988 134.419 9.988C134.123 9.988 133.899 9.852 133.747 9.58C133.595 9.3 133.519 8.832 133.519 8.176C133.519 7.84 133.527 7.464 133.543 7.048C133.559 6.632 133.579 6.216 133.603 5.8C133.635 5.376 133.671 4.992 133.711 4.648C133.791 4 133.907 3.488 134.059 3.112C134.211 2.728 134.439 2.536 134.743 2.536ZM143.452 9.808C142.7 9.808 142.088 9.52 141.616 8.944C141.144 8.36 140.908 7.476 140.908 6.292C140.908 5.028 141.136 4.104 141.592 3.52C142.048 2.936 142.648 2.644 143.392 2.644C143.832 2.644 144.22 2.756 144.556 2.98C144.892 3.204 145.18 3.52 145.42 3.928L145.324 4.096C145.3 3.984 145.28 3.864 145.264 3.736C145.248 3.608 145.24 3.512 145.24 3.448C145.24 3.12 145.292 2.868 145.396 2.692C145.508 2.508 145.68 2.416 145.912 2.416C146.168 2.416 146.368 2.52 146.512 2.728C146.664 2.936 146.78 3.232 146.86 3.616C146.964 4.008 147.052 4.508 147.124 5.116C147.196 5.716 147.232 6.324 147.232 6.94C147.232 7.708 147.204 8.352 147.148 8.872C147.092 9.392 147 9.824 146.872 10.168C146.744 10.512 146.576 10.812 146.368 11.068C146.024 11.484 145.58 11.8 145.036 12.016C144.5 12.24 143.88 12.352 143.176 12.352C142.672 12.352 142.268 12.304 141.964 12.208C141.66 12.12 141.44 11.996 141.304 11.836C141.176 11.684 141.112 11.512 141.112 11.32C141.112 11.12 141.168 10.952 141.28 10.816C141.392 10.688 141.56 10.624 141.784 10.624C141.984 10.624 142.216 10.656 142.48 10.72C142.752 10.784 143.072 10.816 143.44 10.816C144.216 10.816 144.764 10.632 145.084 10.264C145.412 9.904 145.576 9.384 145.576 8.704C145.576 8.52 145.564 8.304 145.54 8.056L145.708 8.116C145.508 8.628 145.212 9.04 144.82 9.352C144.428 9.656 143.972 9.808 143.452 9.808ZM143.908 8.332C144.164 8.332 144.42 8.264 144.676 8.128C144.932 7.992 145.144 7.768 145.312 7.456C145.48 7.144 145.564 6.724 145.564 6.196C145.564 5.564 145.416 5.048 145.12 4.648C144.824 4.248 144.408 4.048 143.872 4.048C143.408 4.048 143.068 4.224 142.852 4.576C142.636 4.928 142.528 5.46 142.528 6.172C142.528 6.852 142.636 7.384 142.852 7.768C143.068 8.144 143.42 8.332 143.908 8.332ZM152.055 10.096C151.167 10.096 150.459 9.964 149.931 9.7C149.403 9.436 149.023 9.056 148.791 8.56C148.559 8.064 148.443 7.472 148.443 6.784C148.443 5.912 148.603 5.172 148.923 4.564C149.251 3.948 149.699 3.476 150.267 3.148C150.843 2.82 151.495 2.656 152.223 2.656C153.079 2.656 153.707 2.856 154.107 3.256C154.507 3.648 154.707 4.164 154.707 4.804C154.707 5.316 154.571 5.76 154.299 6.136C154.035 6.504 153.667 6.788 153.195 6.988C152.723 7.188 152.179 7.288 151.563 7.288C151.219 7.288 150.887 7.244 150.567 7.156C150.247 7.068 149.959 6.948 149.703 6.796L149.991 6.268C149.967 6.46 149.955 6.652 149.955 6.844C149.955 7.404 150.131 7.808 150.483 8.056C150.835 8.296 151.335 8.416 151.983 8.416C152.487 8.416 152.891 8.372 153.195 8.284C153.499 8.196 153.755 8.112 153.963 8.032C154.171 7.944 154.375 7.9 154.575 7.9C154.687 7.9 154.787 7.932 154.875 7.996C154.971 8.052 155.047 8.136 155.103 8.248C155.167 8.36 155.199 8.496 155.199 8.656C155.199 8.896 155.079 9.128 154.839 9.352C154.599 9.568 154.243 9.748 153.771 9.892C153.307 10.028 152.735 10.096 152.055 10.096ZM151.359 6.172C151.927 6.172 152.383 6.052 152.727 5.812C153.071 5.572 153.243 5.276 153.243 4.924C153.243 4.644 153.147 4.416 152.955 4.24C152.771 4.056 152.479 3.964 152.079 3.964C151.703 3.964 151.363 4.036 151.059 4.18C150.763 4.316 150.531 4.496 150.363 4.72C150.195 4.944 150.111 5.188 150.111 5.452C150.111 5.684 150.219 5.864 150.435 5.992C150.659 6.112 150.967 6.172 151.359 6.172ZM157.549 10.024C157.301 10.024 157.105 9.968 156.961 9.856C156.817 9.736 156.701 9.54 156.613 9.268C156.493 8.868 156.401 8.364 156.337 7.756C156.281 7.14 156.253 6.384 156.253 5.488C156.253 4.936 156.273 4.384 156.313 3.832C156.361 3.272 156.421 2.764 156.493 2.308C156.565 1.844 156.641 1.484 156.721 1.228C156.809 0.956 156.913 0.767999 157.033 0.663999C157.153 0.56 157.289 0.508 157.441 0.508C157.601 0.508 157.729 0.564 157.825 0.676C157.921 0.779999 157.997 0.967999 158.053 1.24C158.101 1.504 158.137 1.828 158.161 2.212C158.193 2.596 158.209 3.008 158.209 3.448C158.209 4.048 158.181 4.68 158.125 5.344C158.069 6.008 157.993 6.66 157.897 7.3C157.809 7.94 157.701 8.528 157.573 9.064L157.237 8.896C157.445 8.64 157.681 8.44 157.945 8.296C158.217 8.152 158.465 8.08 158.689 8.08C158.873 8.08 159.013 8.132 159.109 8.236C159.213 8.332 159.265 8.484 159.265 8.692C159.265 8.9 159.173 9.108 158.989 9.316C158.813 9.524 158.593 9.696 158.329 9.832C158.065 9.96 157.805 10.024 157.549 10.024ZM165.755 9.928C165.539 9.928 165.371 9.856 165.251 9.712C165.139 9.56 165.063 9.368 165.023 9.136C164.983 8.896 164.963 8.644 164.963 8.38L165.023 8.332C164.943 8.676 164.787 8.972 164.555 9.22C164.323 9.468 164.055 9.66 163.751 9.796C163.447 9.924 163.143 9.988 162.839 9.988C162.431 9.988 162.059 9.892 161.723 9.7C161.387 9.508 161.127 9.212 160.943 8.812C160.759 8.388 160.615 7.856 160.511 7.216C160.407 6.568 160.355 5.904 160.355 5.224C160.355 4.856 160.371 4.516 160.403 4.204C160.435 3.892 160.487 3.636 160.559 3.436C160.623 3.228 160.719 3.076 160.847 2.98C160.975 2.876 161.139 2.824 161.339 2.824C161.571 2.824 161.751 2.916 161.879 3.1C162.015 3.276 162.099 3.524 162.131 3.844C162.163 4.108 162.183 4.436 162.191 4.828C162.207 5.212 162.219 5.6 162.227 5.992C162.243 6.376 162.263 6.7 162.287 6.964C162.335 7.444 162.459 7.8 162.659 8.032C162.859 8.256 163.103 8.368 163.391 8.368C163.815 8.368 164.139 8.208 164.363 7.888C164.587 7.568 164.699 7.12 164.699 6.544C164.699 6.256 164.683 5.932 164.651 5.572C164.619 5.204 164.583 4.848 164.543 4.504C164.511 4.16 164.495 3.876 164.495 3.652C164.495 3.276 164.559 3.008 164.687 2.848C164.815 2.68 164.991 2.596 165.215 2.596C165.407 2.596 165.567 2.648 165.695 2.752C165.831 2.856 165.939 3 166.019 3.184C166.131 3.424 166.227 3.752 166.307 4.168C166.387 4.584 166.451 5.056 166.499 5.584C166.547 6.112 166.571 6.668 166.571 7.252C166.571 8.148 166.511 8.82 166.391 9.268C166.271 9.708 166.059 9.928 165.755 9.928ZM173.275 10.12C173.003 10.12 172.815 10.016 172.711 9.808C172.615 9.592 172.559 9.252 172.543 8.788L172.663 8.848C172.215 9.72 171.367 10.156 170.119 10.156C169.551 10.156 169.079 10.056 168.703 9.856C168.327 9.648 168.047 9.376 167.863 9.04C167.687 8.696 167.599 8.324 167.599 7.924C167.599 7.236 167.839 6.692 168.319 6.292C168.799 5.884 169.435 5.68 170.227 5.68C170.747 5.68 171.199 5.756 171.583 5.908C171.967 6.06 172.295 6.272 172.567 6.544L172.363 6.52C172.307 5.712 172.131 5.136 171.835 4.792C171.547 4.44 171.135 4.264 170.599 4.264C170.287 4.264 169.999 4.312 169.735 4.408C169.471 4.504 169.227 4.604 169.003 4.708C168.787 4.804 168.583 4.852 168.391 4.852C168.199 4.852 168.047 4.788 167.935 4.66C167.831 4.532 167.779 4.368 167.779 4.168C167.779 3.88 167.915 3.608 168.187 3.352C168.467 3.096 168.835 2.888 169.291 2.728C169.747 2.568 170.243 2.488 170.779 2.488C171.427 2.488 171.983 2.644 172.447 2.956C172.911 3.268 173.263 3.724 173.503 4.324C173.711 4.836 173.859 5.408 173.947 6.04C174.035 6.672 174.079 7.348 174.079 8.068C174.079 8.612 174.051 9.032 173.995 9.328C173.939 9.624 173.851 9.832 173.731 9.952C173.619 10.064 173.467 10.12 173.275 10.12ZM170.623 8.776C170.887 8.776 171.155 8.74 171.427 8.668C171.699 8.588 171.927 8.472 172.111 8.32C172.295 8.168 172.387 7.98 172.387 7.756C172.387 7.564 172.307 7.408 172.147 7.288C171.995 7.16 171.791 7.064 171.535 7C171.287 6.936 171.019 6.904 170.731 6.904C170.243 6.904 169.871 6.988 169.615 7.156C169.367 7.324 169.243 7.548 169.243 7.828C169.243 8.132 169.359 8.368 169.591 8.536C169.831 8.696 170.175 8.776 170.623 8.776ZM175.543 4.588C175.543 3.82 175.615 3.268 175.759 2.932C175.903 2.588 176.107 2.416 176.371 2.416C176.579 2.416 176.743 2.504 176.863 2.68C176.983 2.848 177.071 3.06 177.127 3.316C177.183 3.564 177.211 3.816 177.211 4.072L177.151 4.048C177.287 3.616 177.495 3.244 177.775 2.932C178.063 2.62 178.407 2.464 178.807 2.464C179.279 2.464 179.627 2.66 179.851 3.052C180.075 3.436 180.187 3.916 180.187 4.492C180.187 5.26 180.099 5.796 179.923 6.1C179.747 6.404 179.511 6.556 179.215 6.556C178.999 6.556 178.839 6.468 178.735 6.292C178.639 6.116 178.607 5.804 178.639 5.356C178.671 4.884 178.643 4.556 178.555 4.372C178.467 4.188 178.327 4.096 178.135 4.096C177.903 4.096 177.711 4.244 177.559 4.54C177.415 4.828 177.343 5.184 177.343 5.608C177.343 5.776 177.363 5.988 177.403 6.244C177.443 6.5 177.487 6.78 177.535 7.084C177.583 7.38 177.627 7.676 177.667 7.972C177.707 8.268 177.727 8.54 177.727 8.788C177.727 9.228 177.659 9.544 177.523 9.736C177.387 9.928 177.195 10.024 176.947 10.024C176.667 10.024 176.451 9.936 176.299 9.76C176.147 9.576 176.031 9.28 175.951 8.872C175.887 8.504 175.823 8.068 175.759 7.564C175.695 7.06 175.643 6.544 175.603 6.016C175.563 5.488 175.543 5.012 175.543 4.588ZM182.066 10.12C181.914 10.12 181.79 10.076 181.694 9.988C181.598 9.892 181.53 9.756 181.49 9.58C181.426 9.284 181.37 8.856 181.322 8.296C181.274 7.736 181.25 7.116 181.25 6.436C181.25 5.596 181.278 4.788 181.334 4.012C181.398 3.236 181.478 2.6 181.574 2.104C181.678 1.568 181.806 1.176 181.958 0.927999C182.11 0.671999 182.31 0.543999 182.558 0.543999C182.782 0.543999 182.954 0.648 183.074 0.856C183.194 1.056 183.254 1.404 183.254 1.9C183.254 2.396 183.234 2.928 183.194 3.496C183.162 4.064 183.106 4.672 183.026 5.32H183.074C183.594 4.616 184.078 4.052 184.526 3.628C184.982 3.204 185.398 2.896 185.774 2.704C186.158 2.512 186.498 2.416 186.794 2.416C187.026 2.416 187.198 2.488 187.31 2.632C187.422 2.776 187.478 2.952 187.478 3.16C187.478 3.568 187.15 4.024 186.494 4.528C185.846 5.032 184.91 5.548 183.686 6.076L183.698 5.884C184.458 6.276 185.11 6.688 185.654 7.12C186.206 7.544 186.626 7.948 186.914 8.332C187.21 8.708 187.358 9.024 187.358 9.28C187.358 9.488 187.29 9.66 187.154 9.796C187.026 9.924 186.838 9.988 186.59 9.988C186.278 9.988 185.93 9.872 185.546 9.64C185.17 9.4 184.778 9.044 184.37 8.572C183.962 8.1 183.554 7.508 183.146 6.796H183.098C183.09 7.3 183.058 7.792 183.002 8.272C182.954 8.744 182.89 9.132 182.81 9.436C182.754 9.644 182.666 9.812 182.546 9.94C182.434 10.06 182.274 10.12 182.066 10.12ZM193.689 10.12C193.417 10.12 193.229 10.016 193.125 9.808C193.029 9.592 192.973 9.252 192.957 8.788L193.077 8.848C192.629 9.72 191.781 10.156 190.533 10.156C189.965 10.156 189.493 10.056 189.117 9.856C188.741 9.648 188.461 9.376 188.277 9.04C188.101 8.696 188.013 8.324 188.013 7.924C188.013 7.236 188.253 6.692 188.733 6.292C189.213 5.884 189.849 5.68 190.641 5.68C191.161 5.68 191.613 5.756 191.997 5.908C192.381 6.06 192.709 6.272 192.981 6.544L192.777 6.52C192.721 5.712 192.545 5.136 192.249 4.792C191.961 4.44 191.549 4.264 191.013 4.264C190.701 4.264 190.413 4.312 190.149 4.408C189.885 4.504 189.641 4.604 189.417 4.708C189.201 4.804 188.997 4.852 188.805 4.852C188.613 4.852 188.461 4.788 188.349 4.66C188.245 4.532 188.193 4.368 188.193 4.168C188.193 3.88 188.329 3.608 188.601 3.352C188.881 3.096 189.249 2.888 189.705 2.728C190.161 2.568 190.657 2.488 191.193 2.488C191.841 2.488 192.397 2.644 192.861 2.956C193.325 3.268 193.677 3.724 193.917 4.324C194.125 4.836 194.273 5.408 194.361 6.04C194.449 6.672 194.493 7.348 194.493 8.068C194.493 8.612 194.465 9.032 194.409 9.328C194.353 9.624 194.265 9.832 194.145 9.952C194.033 10.064 193.881 10.12 193.689 10.12ZM191.037 8.776C191.301 8.776 191.569 8.74 191.841 8.668C192.113 8.588 192.341 8.472 192.525 8.32C192.709 8.168 192.801 7.98 192.801 7.756C192.801 7.564 192.721 7.408 192.561 7.288C192.409 7.16 192.205 7.064 191.949 7C191.701 6.936 191.433 6.904 191.145 6.904C190.657 6.904 190.285 6.988 190.029 7.156C189.781 7.324 189.657 7.548 189.657 7.828C189.657 8.132 189.773 8.368 190.005 8.536C190.245 8.696 190.589 8.776 191.037 8.776ZM197.181 2.536C197.437 2.536 197.609 2.64 197.697 2.848C197.793 3.056 197.841 3.364 197.841 3.772C197.841 3.868 197.833 3.972 197.817 4.084C197.809 4.188 197.793 4.284 197.769 4.372L197.745 4.132C197.937 3.612 198.233 3.208 198.633 2.92C199.033 2.624 199.457 2.476 199.905 2.476C200.401 2.476 200.813 2.616 201.141 2.896C201.477 3.176 201.725 3.568 201.885 4.072C202.053 4.576 202.137 5.172 202.137 5.86C202.137 6.284 202.117 6.704 202.077 7.12C202.045 7.528 201.997 7.904 201.933 8.248C201.877 8.584 201.813 8.86 201.741 9.076C201.645 9.348 201.521 9.552 201.369 9.688C201.217 9.816 201.037 9.88 200.829 9.88C200.621 9.88 200.461 9.804 200.349 9.652C200.237 9.5 200.181 9.296 200.181 9.04C200.181 8.768 200.201 8.44 200.241 8.056C200.281 7.664 200.317 7.268 200.349 6.868C200.389 6.46 200.409 6.092 200.409 5.764C200.409 4.644 200.041 4.084 199.305 4.084C198.913 4.084 198.585 4.26 198.321 4.612C198.057 4.956 197.881 5.448 197.793 6.088C197.769 6.304 197.757 6.572 197.757 6.892C197.757 7.212 197.757 7.532 197.757 7.852C197.765 8.164 197.757 8.428 197.733 8.644C197.701 9.124 197.609 9.468 197.457 9.676C197.313 9.884 197.113 9.988 196.857 9.988C196.561 9.988 196.337 9.852 196.185 9.58C196.033 9.3 195.957 8.832 195.957 8.176C195.957 7.84 195.965 7.464 195.981 7.048C195.997 6.632 196.017 6.216 196.041 5.8C196.073 5.376 196.109 4.992 196.149 4.648C196.229 4 196.345 3.488 196.497 3.112C196.649 2.728 196.877 2.536 197.181 2.536ZM208.424 10.036C208.16 10.036 207.864 10.02 207.536 9.988C207.216 9.956 206.904 9.896 206.6 9.808C206.304 9.712 206.056 9.584 205.856 9.424C205.664 9.256 205.568 9.04 205.568 8.776C205.568 8.504 205.652 8.3 205.82 8.164C205.996 8.028 206.28 7.96 206.672 7.96C206.944 7.96 207.248 7.996 207.584 8.068C207.928 8.14 208.256 8.176 208.568 8.176C209.032 8.176 209.372 8.104 209.588 7.96C209.812 7.816 209.924 7.62 209.924 7.372C209.924 7.22 209.88 7.084 209.792 6.964C209.712 6.844 209.548 6.724 209.3 6.604C209.052 6.484 208.68 6.352 208.184 6.208C207.616 6.056 207.156 5.888 206.804 5.704C206.452 5.512 206.196 5.284 206.036 5.02C205.876 4.756 205.796 4.444 205.796 4.084C205.796 3.644 205.872 3.264 206.024 2.944C206.184 2.616 206.396 2.34 206.66 2.116C206.924 1.884 207.22 1.7 207.548 1.564C207.876 1.428 208.208 1.328 208.544 1.264C208.888 1.2 209.216 1.168 209.528 1.168C210.216 1.168 210.776 1.276 211.208 1.492C211.648 1.708 211.868 1.996 211.868 2.356C211.868 2.612 211.784 2.82 211.616 2.98C211.456 3.14 211.208 3.22 210.872 3.22C210.728 3.22 210.556 3.2 210.356 3.16C210.156 3.12 209.936 3.08 209.696 3.04C209.456 3 209.192 2.98 208.904 2.98C208.416 2.98 208.04 3.056 207.776 3.208C207.512 3.36 207.38 3.604 207.38 3.94C207.38 4.084 207.416 4.216 207.488 4.336C207.568 4.456 207.732 4.58 207.98 4.708C208.228 4.836 208.608 4.984 209.12 5.152C209.752 5.344 210.248 5.556 210.608 5.788C210.968 6.012 211.224 6.268 211.376 6.556C211.528 6.844 211.604 7.168 211.604 7.528C211.604 8.024 211.468 8.464 211.196 8.848C210.932 9.224 210.56 9.516 210.08 9.724C209.608 9.932 209.056 10.036 208.424 10.036ZM216.262 10.096C215.374 10.096 214.666 9.964 214.138 9.7C213.61 9.436 213.23 9.056 212.998 8.56C212.766 8.064 212.65 7.472 212.65 6.784C212.65 5.912 212.81 5.172 213.13 4.564C213.458 3.948 213.906 3.476 214.474 3.148C215.05 2.82 215.702 2.656 216.43 2.656C217.286 2.656 217.914 2.856 218.314 3.256C218.714 3.648 218.914 4.164 218.914 4.804C218.914 5.316 218.778 5.76 218.506 6.136C218.242 6.504 217.874 6.788 217.402 6.988C216.93 7.188 216.386 7.288 215.77 7.288C215.426 7.288 215.094 7.244 214.774 7.156C214.454 7.068 214.166 6.948 213.91 6.796L214.198 6.268C214.174 6.46 214.162 6.652 214.162 6.844C214.162 7.404 214.338 7.808 214.69 8.056C215.042 8.296 215.542 8.416 216.19 8.416C216.694 8.416 217.098 8.372 217.402 8.284C217.706 8.196 217.962 8.112 218.17 8.032C218.378 7.944 218.582 7.9 218.782 7.9C218.894 7.9 218.994 7.932 219.082 7.996C219.178 8.052 219.254 8.136 219.31 8.248C219.374 8.36 219.406 8.496 219.406 8.656C219.406 8.896 219.286 9.128 219.046 9.352C218.806 9.568 218.45 9.748 217.978 9.892C217.514 10.028 216.942 10.096 216.262 10.096ZM215.566 6.172C216.134 6.172 216.59 6.052 216.934 5.812C217.278 5.572 217.45 5.276 217.45 4.924C217.45 4.644 217.354 4.416 217.162 4.24C216.978 4.056 216.686 3.964 216.286 3.964C215.91 3.964 215.57 4.036 215.266 4.18C214.97 4.316 214.738 4.496 214.57 4.72C214.402 4.944 214.318 5.188 214.318 5.452C214.318 5.684 214.426 5.864 214.642 5.992C214.866 6.112 215.174 6.172 215.566 6.172ZM221.757 10.024C221.509 10.024 221.313 9.968 221.169 9.856C221.025 9.736 220.909 9.54 220.821 9.268C220.701 8.868 220.609 8.364 220.545 7.756C220.489 7.14 220.461 6.384 220.461 5.488C220.461 4.936 220.481 4.384 220.521 3.832C220.569 3.272 220.629 2.764 220.701 2.308C220.773 1.844 220.849 1.484 220.929 1.228C221.017 0.956 221.121 0.767999 221.241 0.663999C221.361 0.56 221.497 0.508 221.649 0.508C221.809 0.508 221.937 0.564 222.033 0.676C222.129 0.779999 222.205 0.967999 222.261 1.24C222.309 1.504 222.345 1.828 222.369 2.212C222.401 2.596 222.417 3.008 222.417 3.448C222.417 4.048 222.389 4.68 222.333 5.344C222.277 6.008 222.201 6.66 222.105 7.3C222.017 7.94 221.909 8.528 221.781 9.064L221.445 8.896C221.653 8.64 221.889 8.44 222.153 8.296C222.425 8.152 222.673 8.08 222.897 8.08C223.081 8.08 223.221 8.132 223.317 8.236C223.421 8.332 223.473 8.484 223.473 8.692C223.473 8.9 223.381 9.108 223.197 9.316C223.021 9.524 222.801 9.696 222.537 9.832C222.273 9.96 222.013 10.024 221.757 10.024ZM229.962 9.928C229.746 9.928 229.578 9.856 229.458 9.712C229.346 9.56 229.27 9.368 229.23 9.136C229.19 8.896 229.17 8.644 229.17 8.38L229.23 8.332C229.15 8.676 228.994 8.972 228.762 9.22C228.53 9.468 228.262 9.66 227.958 9.796C227.654 9.924 227.35 9.988 227.046 9.988C226.638 9.988 226.266 9.892 225.93 9.7C225.594 9.508 225.334 9.212 225.15 8.812C224.966 8.388 224.822 7.856 224.718 7.216C224.614 6.568 224.562 5.904 224.562 5.224C224.562 4.856 224.578 4.516 224.61 4.204C224.642 3.892 224.694 3.636 224.766 3.436C224.83 3.228 224.926 3.076 225.054 2.98C225.182 2.876 225.346 2.824 225.546 2.824C225.778 2.824 225.958 2.916 226.086 3.1C226.222 3.276 226.306 3.524 226.338 3.844C226.37 4.108 226.39 4.436 226.398 4.828C226.414 5.212 226.426 5.6 226.434 5.992C226.45 6.376 226.47 6.7 226.494 6.964C226.542 7.444 226.666 7.8 226.866 8.032C227.066 8.256 227.31 8.368 227.598 8.368C228.022 8.368 228.346 8.208 228.57 7.888C228.794 7.568 228.906 7.12 228.906 6.544C228.906 6.256 228.89 5.932 228.858 5.572C228.826 5.204 228.79 4.848 228.75 4.504C228.718 4.16 228.702 3.876 228.702 3.652C228.702 3.276 228.766 3.008 228.894 2.848C229.022 2.68 229.198 2.596 229.422 2.596C229.614 2.596 229.774 2.648 229.902 2.752C230.038 2.856 230.146 3 230.226 3.184C230.338 3.424 230.434 3.752 230.514 4.168C230.594 4.584 230.658 5.056 230.706 5.584C230.754 6.112 230.778 6.668 230.778 7.252C230.778 8.148 230.718 8.82 230.598 9.268C230.478 9.708 230.266 9.928 229.962 9.928ZM232.238 4.588C232.238 3.82 232.31 3.268 232.454 2.932C232.598 2.588 232.802 2.416 233.066 2.416C233.274 2.416 233.438 2.504 233.558 2.68C233.678 2.848 233.766 3.06 233.822 3.316C233.878 3.564 233.906 3.816 233.906 4.072L233.846 4.048C233.982 3.616 234.19 3.244 234.47 2.932C234.758 2.62 235.102 2.464 235.502 2.464C235.974 2.464 236.322 2.66 236.546 3.052C236.77 3.436 236.882 3.916 236.882 4.492C236.882 5.26 236.794 5.796 236.618 6.1C236.442 6.404 236.206 6.556 235.91 6.556C235.694 6.556 235.534 6.468 235.43 6.292C235.334 6.116 235.302 5.804 235.334 5.356C235.366 4.884 235.338 4.556 235.25 4.372C235.162 4.188 235.022 4.096 234.83 4.096C234.598 4.096 234.406 4.244 234.254 4.54C234.11 4.828 234.038 5.184 234.038 5.608C234.038 5.776 234.058 5.988 234.098 6.244C234.138 6.5 234.182 6.78 234.23 7.084C234.278 7.38 234.322 7.676 234.362 7.972C234.402 8.268 234.422 8.54 234.422 8.788C234.422 9.228 234.354 9.544 234.218 9.736C234.082 9.928 233.89 10.024 233.642 10.024C233.362 10.024 233.146 9.936 232.994 9.76C232.842 9.576 232.726 9.28 232.646 8.872C232.582 8.504 232.518 8.068 232.454 7.564C232.39 7.06 232.338 6.544 232.298 6.016C232.258 5.488 232.238 5.012 232.238 4.588ZM243.345 9.928C243.129 9.928 242.961 9.856 242.841 9.712C242.729 9.56 242.653 9.368 242.613 9.136C242.573 8.896 242.553 8.644 242.553 8.38L242.613 8.332C242.533 8.676 242.377 8.972 242.145 9.22C241.913 9.468 241.645 9.66 241.341 9.796C241.037 9.924 240.733 9.988 240.429 9.988C240.021 9.988 239.649 9.892 239.313 9.7C238.977 9.508 238.717 9.212 238.533 8.812C238.349 8.388 238.205 7.856 238.101 7.216C237.997 6.568 237.945 5.904 237.945 5.224C237.945 4.856 237.961 4.516 237.993 4.204C238.025 3.892 238.077 3.636 238.149 3.436C238.213 3.228 238.309 3.076 238.437 2.98C238.565 2.876 238.729 2.824 238.929 2.824C239.161 2.824 239.341 2.916 239.469 3.1C239.605 3.276 239.689 3.524 239.721 3.844C239.753 4.108 239.773 4.436 239.781 4.828C239.797 5.212 239.809 5.6 239.817 5.992C239.833 6.376 239.853 6.7 239.877 6.964C239.925 7.444 240.049 7.8 240.249 8.032C240.449 8.256 240.693 8.368 240.981 8.368C241.405 8.368 241.729 8.208 241.953 7.888C242.177 7.568 242.289 7.12 242.289 6.544C242.289 6.256 242.273 5.932 242.241 5.572C242.209 5.204 242.173 4.848 242.133 4.504C242.101 4.16 242.085 3.876 242.085 3.652C242.085 3.276 242.149 3.008 242.277 2.848C242.405 2.68 242.581 2.596 242.805 2.596C242.997 2.596 243.157 2.648 243.285 2.752C243.421 2.856 243.529 3 243.609 3.184C243.721 3.424 243.817 3.752 243.897 4.168C243.977 4.584 244.041 5.056 244.089 5.584C244.137 6.112 244.161 6.668 244.161 7.252C244.161 8.148 244.101 8.82 243.981 9.268C243.861 9.708 243.649 9.928 243.345 9.928ZM246.857 0.495999C247.113 0.495999 247.289 0.595999 247.385 0.796C247.489 0.996 247.541 1.296 247.541 1.696C247.541 2.04 247.521 2.472 247.481 2.992C247.441 3.512 247.389 4.012 247.325 4.492H247.253C247.517 3.996 247.857 3.596 248.273 3.292C248.689 2.988 249.129 2.836 249.593 2.836C250.001 2.836 250.365 2.936 250.685 3.136C251.005 3.328 251.265 3.632 251.465 4.048C251.649 4.424 251.785 4.872 251.873 5.392C251.961 5.904 252.005 6.392 252.005 6.856C252.005 7.6 251.953 8.192 251.849 8.632C251.753 9.072 251.617 9.392 251.441 9.592C251.265 9.784 251.057 9.88 250.817 9.88C250.313 9.88 250.061 9.468 250.061 8.644C250.061 8.244 250.081 7.832 250.121 7.408C250.169 6.984 250.193 6.596 250.193 6.244C250.193 5.644 250.097 5.196 249.905 4.9C249.721 4.596 249.453 4.444 249.101 4.444C248.661 4.444 248.305 4.64 248.033 5.032C247.761 5.424 247.625 5.964 247.625 6.652C247.625 7.012 247.657 7.408 247.721 7.84C247.785 8.264 247.817 8.652 247.817 9.004C247.817 9.396 247.741 9.68 247.589 9.856C247.445 10.024 247.257 10.108 247.025 10.108C246.849 10.108 246.693 10.072 246.557 10C246.429 9.936 246.317 9.804 246.221 9.604C246.133 9.396 246.057 9.088 245.993 8.68C245.945 8.368 245.897 8.004 245.849 7.588C245.801 7.172 245.761 6.736 245.729 6.28C245.697 5.824 245.669 5.38 245.645 4.948C245.629 4.508 245.621 4.108 245.621 3.748C245.621 2.612 245.729 1.788 245.945 1.276C246.161 0.755999 246.465 0.495999 246.857 0.495999ZM256.979 1.06C257.187 1.06 257.351 1.14 257.471 1.3C257.591 1.46 257.679 1.708 257.735 2.044C257.799 2.388 257.847 2.84 257.879 3.4C257.911 3.96 257.927 4.572 257.927 5.236C257.927 5.812 257.907 6.364 257.867 6.892C257.835 7.42 257.787 7.912 257.723 8.368C257.659 8.832 257.559 9.156 257.423 9.34C257.287 9.524 257.103 9.616 256.871 9.616C256.647 9.616 256.471 9.544 256.343 9.4C256.223 9.256 256.139 9.012 256.091 8.668C256.043 8.356 256.003 7.948 255.971 7.444C255.947 6.94 255.935 6.404 255.935 5.836C255.935 5.052 255.959 4.34 256.007 3.7C256.055 3.06 256.119 2.528 256.199 2.104C256.271 1.744 256.363 1.48 256.475 1.312C256.595 1.144 256.763 1.06 256.979 1.06ZM262.485 2.488C263.197 2.488 263.709 2.592 264.021 2.8C264.333 3.008 264.489 3.276 264.489 3.604C264.489 3.796 264.421 3.956 264.285 4.084C264.157 4.204 263.973 4.264 263.733 4.264C263.485 4.264 263.225 4.228 262.953 4.156C262.689 4.084 262.381 4.048 262.029 4.048C261.621 4.048 261.317 4.128 261.117 4.288C260.917 4.448 260.817 4.652 260.817 4.9C260.817 5.132 260.905 5.316 261.081 5.452C261.265 5.58 261.613 5.676 262.125 5.74C262.693 5.804 263.161 5.908 263.529 6.052C263.905 6.188 264.185 6.396 264.369 6.676C264.553 6.948 264.645 7.324 264.645 7.804C264.645 8.564 264.377 9.128 263.841 9.496C263.305 9.864 262.565 10.048 261.621 10.048C261.021 10.048 260.545 10 260.193 9.904C259.841 9.808 259.585 9.672 259.425 9.496C259.273 9.32 259.197 9.112 259.197 8.872C259.197 8.664 259.265 8.504 259.401 8.392C259.545 8.272 259.713 8.212 259.905 8.212C260.089 8.212 260.285 8.236 260.493 8.284C260.701 8.324 260.921 8.368 261.153 8.416C261.385 8.464 261.625 8.488 261.873 8.488C262.673 8.488 263.073 8.24 263.073 7.744C263.073 7.576 263.033 7.44 262.953 7.336C262.873 7.232 262.729 7.148 262.521 7.084C262.313 7.012 262.009 6.956 261.609 6.916C261.129 6.868 260.713 6.788 260.361 6.676C260.009 6.556 259.737 6.364 259.545 6.1C259.353 5.828 259.257 5.456 259.257 4.984C259.257 4.24 259.537 3.64 260.097 3.184C260.657 2.72 261.453 2.488 262.485 2.488ZM266.915 0.796C267.235 0.796 267.463 0.884 267.599 1.06C267.743 1.236 267.815 1.44 267.815 1.672C267.815 1.96 267.727 2.184 267.551 2.344C267.383 2.496 267.143 2.572 266.831 2.572C266.527 2.572 266.299 2.488 266.147 2.32C265.995 2.144 265.919 1.94 265.919 1.708C265.919 1.404 266.011 1.176 266.195 1.024C266.379 0.872 266.619 0.796 266.915 0.796ZM266.987 3.472C267.243 3.472 267.443 3.712 267.587 4.192C267.739 4.672 267.815 5.436 267.815 6.484C267.815 7.772 267.723 8.7 267.539 9.268C267.355 9.836 267.075 10.12 266.699 10.12C266.411 10.12 266.199 9.912 266.063 9.496C265.927 9.072 265.859 8.336 265.859 7.288C265.859 6 265.963 5.044 266.171 4.42C266.387 3.788 266.659 3.472 266.987 3.472ZM272.535 10.12C272.391 10.12 272.275 10.072 272.187 9.976C272.099 9.872 272.027 9.708 271.971 9.484C271.915 9.228 271.863 8.828 271.815 8.284C271.767 7.732 271.743 7.116 271.743 6.436C271.743 5.7 271.763 4.984 271.803 4.288C271.851 3.584 271.919 2.964 272.007 2.428C272.071 2.076 272.163 1.816 272.283 1.648C272.411 1.472 272.587 1.384 272.811 1.384C272.955 1.384 273.083 1.432 273.195 1.528C273.307 1.624 273.391 1.796 273.447 2.044C273.511 2.292 273.543 2.644 273.543 3.1C273.543 3.324 273.535 3.58 273.519 3.868C273.503 4.148 273.479 4.46 273.447 4.804H273.495C274.135 3.924 274.699 3.224 275.187 2.704C275.675 2.176 276.103 1.796 276.471 1.564C276.847 1.332 277.175 1.216 277.455 1.216C277.679 1.216 277.847 1.288 277.959 1.432C278.079 1.576 278.139 1.752 278.139 1.96C278.139 2.4 277.807 2.928 277.143 3.544C276.487 4.16 275.427 4.9 273.963 5.764L274.059 5.536C275.323 6.336 276.279 7.044 276.927 7.66C277.575 8.268 277.899 8.808 277.899 9.28C277.899 9.488 277.831 9.66 277.695 9.796C277.567 9.924 277.375 9.988 277.119 9.988C276.799 9.988 276.459 9.88 276.099 9.664C275.739 9.44 275.339 9.068 274.899 8.548C274.467 8.02 273.975 7.304 273.423 6.4H273.375C273.391 6.584 273.403 6.776 273.411 6.976C273.419 7.168 273.423 7.36 273.423 7.552C273.423 8.472 273.359 9.132 273.231 9.532C273.103 9.924 272.871 10.12 272.535 10.12ZM282.076 10.036C281.436 10.036 280.876 9.896 280.396 9.616C279.924 9.328 279.556 8.92 279.292 8.392C279.036 7.864 278.908 7.236 278.908 6.508C278.908 5.748 279.04 5.084 279.304 4.516C279.568 3.948 279.94 3.504 280.42 3.184C280.908 2.864 281.472 2.704 282.112 2.704C282.8 2.704 283.396 2.86 283.9 3.172C284.404 3.476 284.796 3.904 285.076 4.456C285.356 5.008 285.496 5.652 285.496 6.388C285.496 7.14 285.356 7.788 285.076 8.332C284.796 8.876 284.4 9.296 283.888 9.592C283.376 9.888 282.772 10.036 282.076 10.036ZM282.244 8.416C282.74 8.416 283.132 8.22 283.42 7.828C283.716 7.428 283.864 6.9 283.864 6.244C283.864 5.58 283.716 5.052 283.42 4.66C283.132 4.268 282.74 4.072 282.244 4.072C281.732 4.072 281.328 4.268 281.032 4.66C280.736 5.052 280.588 5.58 280.588 6.244C280.588 6.9 280.736 7.428 281.032 7.828C281.328 8.22 281.732 8.416 282.244 8.416ZM288.617 2.776H288.377C288.353 2.424 288.361 2.092 288.401 1.78C288.441 1.46 288.525 1.204 288.653 1.012C288.789 0.812 288.981 0.711999 289.229 0.711999C289.453 0.711999 289.617 0.783999 289.721 0.927999C289.825 1.072 289.877 1.272 289.877 1.528C289.877 2.032 289.781 2.464 289.589 2.824L289.373 2.8C289.805 2.648 290.293 2.572 290.837 2.572C291.181 2.572 291.453 2.64 291.653 2.776C291.861 2.904 291.965 3.124 291.965 3.436C291.965 3.732 291.845 3.956 291.605 4.108C291.365 4.26 291.065 4.336 290.705 4.336C290.489 4.336 290.257 4.328 290.009 4.312C289.769 4.288 289.533 4.252 289.301 4.204L289.505 3.952C289.577 4.256 289.645 4.604 289.709 4.996C289.781 5.38 289.845 5.78 289.901 6.196C289.957 6.612 290.001 7.016 290.033 7.408C290.065 7.8 290.081 8.152 290.081 8.464C290.081 8.976 290.001 9.38 289.841 9.676C289.681 9.972 289.445 10.12 289.133 10.12C288.885 10.12 288.689 10.044 288.545 9.892C288.409 9.74 288.309 9.548 288.245 9.316C288.189 9.076 288.153 8.828 288.137 8.572C288.129 8.316 288.125 8.084 288.125 7.876C288.125 7.524 288.141 7.128 288.173 6.688C288.205 6.24 288.249 5.78 288.305 5.308C288.369 4.836 288.441 4.38 288.521 3.94L288.761 4.144C288.353 4.352 287.849 4.456 287.249 4.456C286.881 4.456 286.597 4.388 286.397 4.252C286.197 4.116 286.097 3.904 286.097 3.616C286.097 3.304 286.209 3.064 286.433 2.896C286.657 2.72 286.957 2.632 287.333 2.632C287.581 2.632 287.813 2.648 288.029 2.68C288.253 2.704 288.449 2.736 288.617 2.776ZM298.185 10.12C297.913 10.12 297.725 10.016 297.621 9.808C297.525 9.592 297.469 9.252 297.453 8.788L297.573 8.848C297.125 9.72 296.277 10.156 295.029 10.156C294.461 10.156 293.989 10.056 293.613 9.856C293.237 9.648 292.957 9.376 292.773 9.04C292.597 8.696 292.509 8.324 292.509 7.924C292.509 7.236 292.749 6.692 293.229 6.292C293.709 5.884 294.345 5.68 295.137 5.68C295.657 5.68 296.109 5.756 296.493 5.908C296.877 6.06 297.205 6.272 297.477 6.544L297.273 6.52C297.217 5.712 297.041 5.136 296.745 4.792C296.457 4.44 296.045 4.264 295.509 4.264C295.197 4.264 294.909 4.312 294.645 4.408C294.381 4.504 294.137 4.604 293.913 4.708C293.697 4.804 293.493 4.852 293.301 4.852C293.109 4.852 292.957 4.788 292.845 4.66C292.741 4.532 292.689 4.368 292.689 4.168C292.689 3.88 292.825 3.608 293.097 3.352C293.377 3.096 293.745 2.888 294.201 2.728C294.657 2.568 295.153 2.488 295.689 2.488C296.337 2.488 296.893 2.644 297.357 2.956C297.821 3.268 298.173 3.724 298.413 4.324C298.621 4.836 298.769 5.408 298.857 6.04C298.945 6.672 298.989 7.348 298.989 8.068C298.989 8.612 298.961 9.032 298.905 9.328C298.849 9.624 298.761 9.832 298.641 9.952C298.529 10.064 298.377 10.12 298.185 10.12ZM295.533 8.776C295.797 8.776 296.065 8.74 296.337 8.668C296.609 8.588 296.837 8.472 297.021 8.32C297.205 8.168 297.297 7.98 297.297 7.756C297.297 7.564 297.217 7.408 297.057 7.288C296.905 7.16 296.701 7.064 296.445 7C296.197 6.936 295.929 6.904 295.641 6.904C295.153 6.904 294.781 6.988 294.525 7.156C294.277 7.324 294.153 7.548 294.153 7.828C294.153 8.132 294.269 8.368 294.501 8.536C294.741 8.696 295.085 8.776 295.533 8.776ZM301.269 10.12C301.117 10.12 300.993 10.076 300.897 9.988C300.801 9.892 300.733 9.756 300.693 9.58C300.629 9.284 300.573 8.856 300.525 8.296C300.477 7.736 300.453 7.116 300.453 6.436C300.453 5.596 300.481 4.788 300.537 4.012C300.601 3.236 300.681 2.6 300.777 2.104C300.881 1.568 301.009 1.176 301.161 0.927999C301.313 0.671999 301.513 0.543999 301.761 0.543999C301.985 0.543999 302.157 0.648 302.277 0.856C302.397 1.056 302.457 1.404 302.457 1.9C302.457 2.396 302.437 2.928 302.397 3.496C302.365 4.064 302.309 4.672 302.229 5.32H302.277C302.797 4.616 303.281 4.052 303.729 3.628C304.185 3.204 304.601 2.896 304.977 2.704C305.361 2.512 305.701 2.416 305.997 2.416C306.229 2.416 306.401 2.488 306.513 2.632C306.625 2.776 306.681 2.952 306.681 3.16C306.681 3.568 306.353 4.024 305.697 4.528C305.049 5.032 304.113 5.548 302.889 6.076L302.901 5.884C303.661 6.276 304.313 6.688 304.857 7.12C305.409 7.544 305.829 7.948 306.117 8.332C306.413 8.708 306.561 9.024 306.561 9.28C306.561 9.488 306.493 9.66 306.357 9.796C306.229 9.924 306.041 9.988 305.793 9.988C305.481 9.988 305.133 9.872 304.749 9.64C304.373 9.4 303.981 9.044 303.573 8.572C303.165 8.1 302.757 7.508 302.349 6.796H302.301C302.293 7.3 302.261 7.792 302.205 8.272C302.157 8.744 302.093 9.132 302.013 9.436C301.957 9.644 301.869 9.812 301.749 9.94C301.637 10.06 301.477 10.12 301.269 10.12Z"></path>
</svg>
