<svg version="1.1" xmlns="http://www.w3.org/2000/svg" xmlns:xlink="http://www.w3.org/1999/xlink" width="122.99047" height="14.61326" viewBox="0,0,122.99047,14.61326"><g transform="translate(-178.50477,-172.69337)"><g data-paper-data="{&quot;isPaintingLayer&quot;:true}" fill="#000000" fill-rule="nonzero" stroke="none" stroke-width="1" stroke-linecap="butt" stroke-linejoin="miter" stroke-miterlimit="10" stroke-dasharray="" stroke-dashoffset="0" style="mix-blend-mode: normal"><path d="M179.48195,184.55277c-0.17767,0 -0.32079,-0.05922 -0.42936,-0.17767c-0.10858,-0.12828 -0.19742,-0.3307 -0.2665,-0.60704c-0.06909,-0.31589 -0.13325,-0.80935 -0.19248,-1.48058c-0.05922,-0.68106 -0.08884,-1.44109 -0.08884,-2.28009c0,-0.90809 0.02468,-1.7915 0.07403,-2.65023c0.05922,-0.8686 0.14312,-1.63357 0.2517,-2.29489c0.07897,-0.43431 0.19248,-0.75509 0.34054,-0.96238c0.15793,-0.21714 0.37509,-0.32573 0.65145,-0.32573c0.17767,0 0.3356,0.05922 0.47379,0.17767c0.13819,0.11845 0.24183,0.33067 0.31092,0.63665c0.07897,0.30599 0.11845,0.74029 0.11845,1.3029c0,0.27637 -0.00987,0.59223 -0.02961,0.94757c-0.01974,0.34547 -0.04936,0.73042 -0.08884,1.15485h0.05922c0.78964,-1.08576 1.48551,-1.94942 2.08762,-2.59101c0.60209,-0.65145 1.13017,-1.12029 1.58421,-1.40655c0.46392,-0.28624 0.8686,-0.42936 1.21408,-0.42936c0.27637,0 0.48366,0.08884 0.62184,0.2665c0.14806,0.17767 0.22209,0.39482 0.22209,0.65145c0,0.54287 -0.40962,1.19433 -1.22888,1.95436c-0.80938,0.76003 -2.11723,1.67305 -3.92353,2.73907l0.11845,-0.28131c1.55955,0.98705 2.73907,1.86059 3.53858,2.62062c0.79951,0.75015 1.19927,1.41638 1.19927,1.99878c0,0.25667 -0.0839,0.46882 -0.2517,0.63665c-0.15793,0.15789 -0.39482,0.23689 -0.71067,0.23689c-0.39482,0 -0.81432,-0.13325 -1.25849,-0.39975c-0.44418,-0.27635 -0.9377,-0.73532 -1.48058,-1.37694c-0.53301,-0.65145 -1.14004,-1.53486 -1.82111,-2.65023h-0.05922c0.01974,0.22702 0.03455,0.46392 0.04442,0.71067c0.00987,0.23689 0.01481,0.47379 0.01481,0.71067c0,1.13507 -0.07897,1.9494 -0.23689,2.44296c-0.15793,0.48362 -0.44418,0.72548 -0.85873,0.72548zM191.8011,184.52316c-1.09563,0 -1.96917,-0.16287 -2.62062,-0.48859c-0.65145,-0.32573 -1.12035,-0.79454 -1.40659,-1.40655c-0.28624,-0.61197 -0.42936,-1.34238 -0.42936,-2.19126c0,-1.07588 0.1974,-1.98891 0.59223,-2.73907c0.40466,-0.76003 0.95745,-1.34238 1.65829,-1.74708c0.71067,-0.4047 1.51505,-0.60704 2.41335,-0.60704c1.05607,0 1.83095,0.24675 2.3245,0.74029c0.49345,0.48366 0.74029,1.12029 0.74029,1.90994c0,0.63171 -0.16783,1.17952 -0.5034,1.64344c-0.32573,0.45405 -0.77984,0.80445 -1.36213,1.05121c-0.5824,0.24675 -1.25363,0.37014 -2.01358,0.37014c-0.4245,0 -0.8341,-0.05429 -1.22888,-0.16287c-0.39489,-0.10858 -0.75023,-0.25663 -1.06602,-0.44418l0.35534,-0.65145c-0.02961,0.23689 -0.04442,0.47379 -0.04442,0.71067c0,0.69093 0.21712,1.1894 0.65145,1.49538c0.43423,0.29612 1.05121,0.44418 1.85072,0.44418c0.62184,0 1.12027,-0.05426 1.49538,-0.16287c0.37501,-0.10858 0.69089,-0.21222 0.94757,-0.31092c0.25656,-0.10858 0.50826,-0.16287 0.75509,-0.16287c0.13812,0 0.26153,0.03948 0.37014,0.11845c0.11845,0.06909 0.21215,0.17273 0.28131,0.31092c0.0789,0.13822 0.11845,0.30596 0.11845,0.5034c0,0.29612 -0.14806,0.5824 -0.44418,0.85873c-0.29612,0.2665 -0.73542,0.48859 -1.31772,0.66627c-0.57256,0.16783 -1.27827,0.2517 -2.11723,0.2517zM190.94236,179.68168c0.70074,0 1.26336,-0.14806 1.68786,-0.44418c0.4244,-0.29612 0.63665,-0.66132 0.63665,-1.09563c0,-0.34547 -0.11845,-0.62679 -0.35534,-0.84393c-0.22706,-0.22702 -0.58736,-0.34054 -1.08082,-0.34054c-0.46395,0 -0.88348,0.08884 -1.25849,0.2665c-0.36528,0.1678 -0.65145,0.38988 -0.85873,0.66627c-0.20727,0.27637 -0.31092,0.57742 -0.31092,0.90315c0,0.28624 0.13325,0.50833 0.39975,0.66627c0.27635,0.14806 0.65631,0.22209 1.14004,0.22209zM198.58035,184.43433c-0.30596,0 -0.54781,-0.06905 -0.72548,-0.20727c-0.17767,-0.14806 -0.32075,-0.38992 -0.42936,-0.72548c-0.14806,-0.49356 -0.26153,-1.11541 -0.34054,-1.86553c-0.06905,-0.76003 -0.10364,-1.69279 -0.10364,-2.79829c0,-0.68106 0.02465,-1.36213 0.07403,-2.04319c0.05922,-0.69093 0.13325,-1.31772 0.22209,-1.88033c0.08884,-0.57248 0.18265,-1.01666 0.28131,-1.33251c0.10861,-0.3356 0.23689,-0.56755 0.38495,-0.69588c0.14806,-0.12831 0.31589,-0.19248 0.5034,-0.19248c0.19744,0 0.35534,0.06909 0.47379,0.20727c0.11845,0.12831 0.21226,0.36028 0.28131,0.69588c0.05922,0.32573 0.10364,0.72548 0.13325,1.19927c0.03944,0.47379 0.05922,0.98212 0.05922,1.52499c0,0.74029 -0.03458,1.52006 -0.10364,2.33932c-0.06905,0.81925 -0.16287,1.62369 -0.28131,2.41335c-0.10861,0.78964 -0.24186,1.51516 -0.39975,2.17644l-0.41457,-0.20727c0.25667,-0.31589 0.54781,-0.56262 0.87354,-0.74029c0.33556,-0.17767 0.64162,-0.2665 0.91796,-0.2665c0.22706,0 0.39975,0.06416 0.5182,0.19248c0.12828,0.11845 0.19248,0.30596 0.19248,0.56262c0,0.25667 -0.11348,0.51323 -0.34054,0.7699c-0.21712,0.25667 -0.48859,0.46882 -0.81432,0.63665c-0.32573,0.15789 -0.64648,0.23689 -0.96238,0.23689zM203.34484,173.0487c0.39478,0 0.6761,0.10858 0.84393,0.32573c0.17767,0.21714 0.2665,0.46884 0.2665,0.75509c0,0.35534 -0.10861,0.63171 -0.32573,0.82912c-0.20727,0.18753 -0.5034,0.28131 -0.88835,0.28131c-0.37511,0 -0.65642,-0.10364 -0.84393,-0.31092c-0.18761,-0.21714 -0.28131,-0.46884 -0.28131,-0.75509c0,-0.37509 0.11348,-0.6564 0.34054,-0.84393c0.22695,-0.18753 0.52306,-0.28131 0.88835,-0.28131zM203.43367,176.35039c0.31579,0 0.56262,0.29612 0.74029,0.88835c0.18751,0.59223 0.28131,1.53486 0.28131,2.8279c0,1.58916 -0.11358,2.7341 -0.34054,3.43494c-0.22706,0.70085 -0.57256,1.05121 -1.0364,1.05121c-0.35534,0 -0.61698,-0.25667 -0.7847,-0.7699c-0.16783,-0.52317 -0.2517,-1.43119 -0.2517,-2.72426c0,-1.58916 0.12828,-2.76868 0.38495,-3.53858c0.2665,-0.77977 0.60207,-1.16965 1.00679,-1.16965zM207.86293,184.43433c-0.30605,0 -0.54781,-0.06905 -0.72548,-0.20727c-0.17767,-0.14806 -0.32087,-0.38992 -0.42936,-0.72548c-0.14806,-0.49356 -0.26164,-1.11541 -0.34054,-1.86553c-0.06917,-0.76003 -0.10364,-1.69279 -0.10364,-2.79829c0,-0.68106 0.02465,-1.36213 0.07403,-2.04319c0.05922,-0.69093 0.13325,-1.31772 0.22209,-1.88033c0.08884,-0.57248 0.18253,-1.01666 0.28131,-1.33251c0.10851,-0.3356 0.23689,-0.56755 0.38495,-0.69588c0.14806,-0.12831 0.31579,-0.19248 0.5034,-0.19248c0.19734,0 0.35534,0.06909 0.47379,0.20727c0.11845,0.12831 0.21215,0.36028 0.28131,0.69588c0.05922,0.32573 0.10364,0.72548 0.13325,1.19927c0.03944,0.47379 0.05922,0.98212 0.05922,1.52499c0,0.74029 -0.03458,1.52006 -0.10364,2.33932c-0.06917,0.81925 -0.16287,1.62369 -0.28131,2.41335c-0.10861,0.78964 -0.24186,1.51516 -0.39975,2.17644l-0.41457,-0.20727c0.25656,-0.31589 0.54781,-0.56262 0.87354,-0.74029c0.33556,-0.17767 0.64152,-0.2665 0.91796,-0.2665c0.22695,0 0.39975,0.06416 0.5182,0.19248c0.12828,0.11845 0.19248,0.30596 0.19248,0.56262c0,0.25667 -0.11358,0.51323 -0.34054,0.7699c-0.21723,0.25667 -0.48859,0.46882 -0.81432,0.63665c-0.32573,0.15789 -0.64659,0.23689 -0.96238,0.23689zM212.62732,173.0487c0.39478,0 0.6761,0.10858 0.84393,0.32573c0.17767,0.21714 0.2665,0.46884 0.2665,0.75509c0,0.35534 -0.10861,0.63171 -0.32573,0.82912c-0.20727,0.18753 -0.5034,0.28131 -0.88835,0.28131c-0.37511,0 -0.65642,-0.10364 -0.84393,-0.31092c-0.18751,-0.21714 -0.28131,-0.46884 -0.28131,-0.75509c0,-0.37509 0.11348,-0.6564 0.34054,-0.84393c0.22706,-0.18753 0.52317,-0.28131 0.88835,-0.28131zM212.71615,176.35039c0.31589,0 0.56262,0.29612 0.74029,0.88835c0.18751,0.59223 0.28131,1.53486 0.28131,2.8279c0,1.58916 -0.11348,2.7341 -0.34054,3.43494c-0.22706,0.70085 -0.57245,1.05121 -1.0364,1.05121c-0.35534,0 -0.61687,-0.25667 -0.7847,-0.7699c-0.16783,-0.52317 -0.2517,-1.43119 -0.2517,-2.72426c0,-1.58916 0.12828,-2.76868 0.38495,-3.53858c0.2665,-0.77977 0.60207,-1.16965 1.00679,-1.16965zM217.05656,175.19554c0.31589,0 0.52804,0.12831 0.63665,0.38495c0.11845,0.25663 0.17767,0.63665 0.17767,1.14004c0,0.11845 -0.00983,0.24675 -0.02961,0.38495c-0.00983,0.12831 -0.02961,0.24675 -0.05922,0.35534l-0.02961,-0.29612c0.23689,-0.64158 0.60207,-1.14004 1.09563,-1.49538c0.49356,-0.36521 1.01663,-0.54781 1.56942,-0.54781c0.61201,0 1.12027,0.17273 1.52499,0.5182c0.41457,0.34547 0.7205,0.82912 0.91796,1.45096c0.20727,0.62184 0.31092,1.3572 0.31092,2.20605c0,0.52315 -0.02465,1.04134 -0.07403,1.5546c-0.03944,0.5034 -0.09866,0.96731 -0.17767,1.39174c-0.06905,0.41457 -0.14806,0.75509 -0.23689,1.0216c-0.11845,0.33556 -0.27147,0.58726 -0.45897,0.75509c-0.18751,0.15789 -0.40959,0.23689 -0.66627,0.23689c-0.25667,0 -0.45401,-0.0938 -0.59223,-0.28131c-0.13822,-0.18751 -0.20727,-0.4392 -0.20727,-0.75509c0,-0.33556 0.02465,-0.74029 0.07403,-1.21408c0.04938,-0.48366 0.0938,-0.97224 0.13325,-1.46577c0.04938,-0.5034 0.07403,-0.95744 0.07403,-1.36213c0,-1.38187 -0.45401,-2.07281 -1.36213,-2.07281c-0.48362,0 -0.88835,0.21714 -1.21408,0.65145c-0.32573,0.42443 -0.54284,1.03147 -0.65145,1.82111c-0.02961,0.2665 -0.04442,0.59717 -0.04442,0.99199c0,0.39482 0,0.78964 0,1.18446c0.00983,0.38495 0,0.71067 -0.02961,0.97718c-0.03944,0.59223 -0.15303,1.01663 -0.34054,1.27329c-0.17767,0.25667 -0.4244,0.38495 -0.74029,0.38495c-0.36517,0 -0.64162,-0.16783 -0.82912,-0.5034c-0.18751,-0.3455 -0.28131,-0.92293 -0.28131,-1.73227c0,-0.41457 0.00983,-0.87848 0.02961,-1.39174c0.01978,-0.51327 0.04442,-1.02654 0.07403,-1.53981c0.03944,-0.52315 0.08387,-0.99693 0.13325,-1.42135c0.09866,-0.79951 0.24186,-1.43122 0.42936,-1.89514c0.18751,-0.47379 0.46882,-0.71067 0.84393,-0.71067zM227.80143,184.16783c-0.9279,0 -1.68299,-0.35534 -2.26528,-1.06602c-0.5824,-0.7205 -0.87354,-1.81125 -0.87354,-3.27207c0,-1.55955 0.28131,-2.69959 0.84393,-3.42013c0.56262,-0.72054 1.3029,-1.08082 2.22087,-1.08082c0.54284,0 1.0216,0.13819 1.43616,0.41457c0.41457,0.27637 0.7699,0.66627 1.06602,1.16965l-0.11845,0.20727c-0.02961,-0.13819 -0.05436,-0.28624 -0.07403,-0.44418c-0.01978,-0.15793 -0.02961,-0.27637 -0.02961,-0.35534c0,-0.4047 0.06409,-0.71562 0.19248,-0.93276c0.13812,-0.22702 0.35037,-0.34054 0.63665,-0.34054c0.31579,0 0.56262,0.12831 0.74029,0.38495c0.18751,0.25663 0.33059,0.62184 0.42936,1.09563c0.12828,0.48366 0.23689,1.10057 0.32573,1.85072c0.08884,0.74029 0.13325,1.49045 0.13325,2.25048c0,0.94757 -0.03458,1.74211 -0.10364,2.38373c-0.06917,0.64162 -0.18265,1.17463 -0.34054,1.59903c-0.158,0.4244 -0.36528,0.79454 -0.62184,1.11042c-0.4245,0.51323 -0.97232,0.90315 -1.64344,1.16965c-0.66139,0.27635 -1.42633,0.41457 -2.29489,0.41457c-0.62184,0 -1.12038,-0.05922 -1.49538,-0.17767c-0.37511,-0.10861 -0.64659,-0.26153 -0.81432,-0.45897c-0.158,-0.18751 -0.23689,-0.39975 -0.23689,-0.63665c0,-0.24673 0.06905,-0.45401 0.20727,-0.62184c0.13812,-0.15789 0.3454,-0.23689 0.62184,-0.23689c0.24673,0 0.53301,0.03944 0.85873,0.11845c0.33556,0.079 0.73035,0.11845 1.18446,0.11845c0.95741,0 1.6335,-0.22706 2.02839,-0.68106c0.40462,-0.44418 0.60704,-1.0858 0.60704,-1.92475c0,-0.22706 -0.01481,-0.49356 -0.04442,-0.79951l0.20727,0.07403c-0.24684,0.63168 -0.61201,1.14004 -1.09563,1.52499c-0.48372,0.37511 -1.04634,0.56262 -1.68786,0.56262zM228.36404,182.34672c0.31579,0 0.63168,-0.0839 0.94757,-0.2517c0.31579,-0.1678 0.57742,-0.44418 0.7847,-0.82912c0.20727,-0.38495 0.31092,-0.90315 0.31092,-1.5546c0,-0.77977 -0.18265,-1.41642 -0.54781,-1.90994c-0.36528,-0.49353 -0.87851,-0.74029 -1.53981,-0.74029c-0.57256,0 -0.99199,0.21714 -1.25849,0.65145c-0.2665,0.43431 -0.39975,1.09068 -0.39975,1.96917c0,0.83899 0.13325,1.49538 0.39975,1.96917c0.2665,0.46392 0.70074,0.69588 1.3029,0.69588zM240.00318,184.612c-0.96734,0 -1.72243,-0.36031 -2.26528,-1.08082c-0.54284,-0.73046 -0.81432,-1.84085 -0.81432,-3.33129c0,-1.48058 0.2665,-2.5614 0.79951,-3.24247c0.54284,-0.69093 1.31772,-1.0364 2.3245,-1.0364c0.57245,0 1.07098,0.11845 1.49538,0.35534c0.43434,0.23689 0.81928,0.57248 1.15485,1.00679l-0.11845,0.05922c-0.08884,-0.4047 -0.17767,-0.83406 -0.2665,-1.28811c-0.08884,-0.45405 -0.16287,-0.88341 -0.22209,-1.28811c-0.04938,-0.41457 -0.07403,-0.74029 -0.07403,-0.97718c0,-0.3356 0.05426,-0.59223 0.16287,-0.7699c0.10861,-0.18753 0.28131,-0.28131 0.5182,-0.28131c0.33556,0 0.60704,0.14312 0.81432,0.42936c0.20727,0.27637 0.37998,0.70574 0.5182,1.28811c0.12828,0.52315 0.24186,1.14498 0.34054,1.86553c0.09866,0.71067 0.17767,1.45591 0.23689,2.23567c0.06905,0.7699 0.10364,1.51019 0.10364,2.22087c0,0.98705 -0.05426,1.75692 -0.16287,2.3097c-0.09866,0.54284 -0.24186,0.92293 -0.42936,1.14004c-0.17767,0.21712 -0.38992,0.32573 -0.63665,0.32573c-0.30596,0 -0.51323,-0.15303 -0.62184,-0.45897c-0.10861,-0.30596 -0.15303,-0.80449 -0.13325,-1.49538h0.22209c-0.2665,0.61201 -0.65642,1.1006 -1.16965,1.46577c-0.5034,0.36517 -1.09563,0.54781 -1.77669,0.54781zM240.78788,182.77608c0.35534,0 0.68106,-0.08884 0.97718,-0.2665c0.30596,-0.18751 0.54781,-0.47379 0.72548,-0.85873c0.18751,-0.38495 0.28131,-0.87354 0.28131,-1.46577c0,-0.76003 -0.17269,-1.37694 -0.5182,-1.85072c-0.3455,-0.48366 -0.84393,-0.72548 -1.49538,-0.72548c-0.51323,0 -0.93276,0.21222 -1.25849,0.63665c-0.31589,0.42443 -0.47379,1.06602 -0.47379,1.92475c0,0.76003 0.15789,1.38681 0.47379,1.88033c0.32573,0.48362 0.75509,0.72548 1.28811,0.72548zM252.98721,184.55277c-0.33566,0 -0.56759,-0.12828 -0.69588,-0.38495c-0.11845,-0.2665 -0.18761,-0.68603 -0.20727,-1.25849l0.14806,0.07403c-0.55279,1.07585 -1.59903,1.61383 -3.13882,1.61383c-0.70085,0 -1.28324,-0.12341 -1.74708,-0.37014c-0.46395,-0.25667 -0.80945,-0.59223 -1.0364,-1.00679c-0.21723,-0.4244 -0.32573,-0.88337 -0.32573,-1.37694c0,-0.84887 0.29612,-1.52006 0.88835,-2.01358c0.59223,-0.5034 1.37694,-0.75509 2.35411,-0.75509c0.64152,0 1.19927,0.09377 1.67305,0.28131c0.47379,0.18753 0.8784,0.44911 1.21408,0.7847l-0.2517,-0.02961c-0.06917,-0.99693 -0.28628,-1.7076 -0.65145,-2.13203c-0.35534,-0.43431 -0.86371,-0.65145 -1.52499,-0.65145c-0.38495,0 -0.74029,0.05922 -1.06602,0.17767c-0.32573,0.11845 -0.62681,0.24183 -0.90315,0.37014c-0.2665,0.11845 -0.5182,0.17767 -0.75509,0.17767c-0.23689,0 -0.4245,-0.07897 -0.56262,-0.23689c-0.12839,-0.15793 -0.19248,-0.36028 -0.19248,-0.60704c0,-0.35534 0.16773,-0.69093 0.5034,-1.00679c0.3454,-0.31586 0.79951,-0.57248 1.36213,-0.7699c0.56262,-0.19742 1.17452,-0.29612 1.83591,-0.29612c0.79951,0 1.48544,0.19248 2.058,0.57742c0.57245,0.38495 1.00679,0.94757 1.3029,1.68786c0.25656,0.63171 0.4392,1.33746 0.54781,2.11723c0.10851,0.77977 0.16287,1.61383 0.16287,2.50218c0,0.67123 -0.03458,1.18943 -0.10364,1.5546c-0.06917,0.36517 -0.17767,0.62184 -0.32573,0.7699c-0.13822,0.13822 -0.32573,0.20727 -0.56262,0.20727zM249.71513,182.89454c0.32573,0 0.65631,-0.04442 0.99199,-0.13325c0.33556,-0.09866 0.61687,-0.24186 0.84393,-0.42936c0.22695,-0.18753 0.34054,-0.41949 0.34054,-0.69588c0,-0.23689 -0.09878,-0.42936 -0.29612,-0.57742c-0.18761,-0.15793 -0.43931,-0.27637 -0.75509,-0.35534c-0.30605,-0.07897 -0.63665,-0.11845 -0.99199,-0.11845c-0.60218,0 -1.06115,0.10364 -1.37694,0.31092c-0.30605,0.20727 -0.45897,0.48366 -0.45897,0.82912c0,0.37509 0.14309,0.66627 0.42936,0.87354c0.29612,0.19744 0.7205,0.29612 1.27329,0.29612zM257.29526,175.19554c0.31589,0 0.52814,0.12831 0.63665,0.38495c0.11845,0.25663 0.17767,0.63665 0.17767,1.14004c0,0.11845 -0.00983,0.24675 -0.02961,0.38495c-0.00983,0.12831 -0.02961,0.24675 -0.05922,0.35534l-0.02961,-0.29612c0.23689,-0.64158 0.60218,-1.14004 1.09563,-1.49538c0.49356,-0.36521 1.01673,-0.54781 1.56942,-0.54781c0.61201,0 1.12038,0.17273 1.52499,0.5182c0.41457,0.34547 0.72062,0.82912 0.91796,1.45096c0.20727,0.62184 0.31092,1.3572 0.31092,2.20605c0,0.52315 -0.02465,1.04134 -0.07403,1.5546c-0.03944,0.5034 -0.09866,0.96731 -0.17767,1.39174c-0.06905,0.41457 -0.14806,0.75509 -0.23689,1.0216c-0.11845,0.33556 -0.27137,0.58726 -0.45897,0.75509c-0.18751,0.15789 -0.40959,0.23689 -0.66627,0.23689c-0.25656,0 -0.45401,-0.0938 -0.59223,-0.28131c-0.13812,-0.18751 -0.20727,-0.4392 -0.20727,-0.75509c0,-0.33556 0.02475,-0.74029 0.07403,-1.21408c0.04938,-0.48366 0.0938,-0.97224 0.13325,-1.46577c0.04938,-0.5034 0.07403,-0.95744 0.07403,-1.36213c0,-1.38187 -0.45401,-2.07281 -1.36213,-2.07281c-0.48362,0 -0.88835,0.21714 -1.21408,0.65145c-0.32573,0.42443 -0.54284,1.03147 -0.65145,1.82111c-0.02961,0.2665 -0.04442,0.59717 -0.04442,0.99199c0,0.39482 0,0.78964 0,1.18446c0.00994,0.38495 0,0.71067 -0.02961,0.97718c-0.03944,0.59223 -0.15292,1.01663 -0.34054,1.27329c-0.17767,0.25667 -0.4244,0.38495 -0.74029,0.38495c-0.36517,0 -0.64152,-0.16783 -0.82912,-0.5034c-0.18751,-0.3455 -0.28131,-0.92293 -0.28131,-1.73227c0,-0.41457 0.00994,-0.87848 0.02961,-1.39174c0.01978,-0.51327 0.04442,-1.02654 0.07403,-1.53981c0.03956,-0.52315 0.08396,-0.99693 0.13325,-1.42135c0.09878,-0.79951 0.24186,-1.43122 0.42936,-1.89514c0.18761,-0.47379 0.46892,-0.71067 0.84393,-0.71067zM270.82646,184.49355c-0.60207,0 -1.05121,-0.079 -1.34733,-0.23689c-0.29612,-0.15789 -0.54284,-0.44418 -0.74029,-0.85873c-0.13812,-0.31589 -0.25656,-0.82912 -0.35534,-1.53981c-0.08884,-0.72054 -0.13325,-1.65331 -0.13325,-2.79829c0,-0.79951 0.01481,-1.56447 0.04442,-2.29489c0.03956,-0.73042 0.0938,-1.29303 0.16287,-1.68786c0.079,-0.5034 0.20727,-0.86367 0.38495,-1.08082c0.18761,-0.21714 0.41953,-0.32573 0.69588,-0.32573c0.24684,0 0.43931,0.10858 0.57742,0.32573c0.14806,0.21714 0.2517,0.51327 0.31092,0.88835c0.05922,0.36521 0.08884,0.7699 0.08884,1.21408c0,1.20421 -0.04442,2.42321 -0.13325,3.65702c-0.0789,1.23382 -0.19248,2.36892 -0.34054,3.40533l-0.19248,-0.2665c0.44418,-0.30596 0.91796,-0.56759 1.42135,-0.7847c0.51333,-0.21714 1.01176,-0.38495 1.49538,-0.5034c0.49356,-0.11845 0.92293,-0.17767 1.28811,-0.17767c0.36528,0 0.63178,0.07403 0.79951,0.22209c0.17767,0.14806 0.2665,0.36028 0.2665,0.63665c0,0.27635 -0.12331,0.55765 -0.37014,0.84393c-0.23689,0.27635 -0.57742,0.5182 -1.0216,0.72548c-0.24673,0.11845 -0.53788,0.22706 -0.87354,0.32573c-0.33556,0.08884 -0.68106,0.16287 -1.0364,0.22209c-0.3454,0.05922 -0.6761,0.08884 -0.99199,0.08884zM283.00801,184.31589c-0.2665,0 -0.47379,-0.08884 -0.62184,-0.2665c-0.13812,-0.18751 -0.23192,-0.4244 -0.28131,-0.71067c-0.04929,-0.29612 -0.07403,-0.60704 -0.07403,-0.93276l0.07403,-0.05922c-0.09866,0.4244 -0.29114,0.78967 -0.57742,1.09563c-0.28618,0.30596 -0.61687,0.54284 -0.99199,0.71067c-0.37501,0.15789 -0.75012,0.23689 -1.12524,0.23689c-0.5034,0 -0.96238,-0.11845 -1.37694,-0.35534c-0.41457,-0.23689 -0.73532,-0.60207 -0.96238,-1.09563c-0.22695,-0.52317 -0.40462,-1.17952 -0.53301,-1.96917c-0.12828,-0.79951 -0.19248,-1.61877 -0.19248,-2.45775c0,-0.45405 0.01978,-0.87354 0.05922,-1.25849c0.03956,-0.38495 0.10364,-0.70081 0.19248,-0.94757c0.079,-0.25663 0.19744,-0.44418 0.35534,-0.56262c0.158,-0.12831 0.36031,-0.19248 0.60704,-0.19248c0.28628,0 0.50837,0.11351 0.66627,0.34054c0.16783,0.21714 0.27147,0.52315 0.31092,0.91796c0.03956,0.32573 0.06419,0.73042 0.07403,1.21408c0.01978,0.47379 0.03458,0.95251 0.04442,1.43616c0.01978,0.47379 0.04442,0.87354 0.07403,1.19927c0.05922,0.59223 0.21226,1.03147 0.45897,1.31772c0.24684,0.27637 0.54781,0.41457 0.90315,0.41457c0.52317,0 0.92293,-0.19742 1.19927,-0.59223c0.27644,-0.39482 0.41457,-0.94757 0.41457,-1.65824c0,-0.35534 -0.01967,-0.75509 -0.05922,-1.19927c-0.03944,-0.45405 -0.08387,-0.89328 -0.13325,-1.31772c-0.03944,-0.42443 -0.05922,-0.77484 -0.05922,-1.05121c0,-0.46392 0.079,-0.79457 0.23689,-0.99199c0.158,-0.20727 0.37511,-0.31092 0.65145,-0.31092c0.23689,0 0.43434,0.06416 0.59223,0.19248c0.16783,0.12831 0.30109,0.30599 0.39986,0.53301c0.13854,0.29612 0.25698,0.70081 0.35534,1.21408c0.09835,0.51327 0.17767,1.09563 0.23689,1.74708c0.05922,0.65145 0.08884,1.33746 0.08884,2.058c0,1.1055 -0.07403,1.93458 -0.22209,2.48737c-0.14806,0.54284 -0.40927,0.81432 -0.78481,0.81432zM292.28604,184.55277c-0.33525,0 -0.56791,-0.12828 -0.69588,-0.38495c-0.11845,-0.2665 -0.18719,-0.68603 -0.20727,-1.25849l0.14806,0.07403c-0.5531,1.07585 -1.59903,1.61383 -3.13882,1.61383c-0.70116,0 -1.28281,-0.12341 -1.74708,-0.37014c-0.46427,-0.25667 -0.80904,-0.59223 -1.0364,-1.00679c-0.2168,-0.4244 -0.32573,-0.88337 -0.32573,-1.37694c0,-0.84887 0.29612,-1.52006 0.88835,-2.01358c0.59223,-0.5034 1.37694,-0.75509 2.35411,-0.75509c0.64193,0 1.19927,0.09377 1.67305,0.28131c0.47379,0.18753 0.87883,0.44911 1.21408,0.7847l-0.2517,-0.02961c-0.06874,-0.99693 -0.28659,-1.7076 -0.65145,-2.13203c-0.35534,-0.43431 -0.86402,-0.65145 -1.52499,-0.65145c-0.38495,0 -0.74029,0.05922 -1.06602,0.17767c-0.32573,0.11845 -0.62713,0.24183 -0.90315,0.37014c-0.2665,0.11845 -0.5182,0.17767 -0.75509,0.17767c-0.23689,0 -0.42408,-0.07897 -0.56262,-0.23689c-0.12796,-0.15793 -0.19248,-0.36028 -0.19248,-0.60704c0,-0.35534 0.16815,-0.69093 0.5034,-1.00679c0.34582,-0.31586 0.79951,-0.57248 1.36213,-0.7699c0.56262,-0.19742 1.17495,-0.29612 1.83591,-0.29612c0.79951,0 1.48586,0.19248 2.058,0.57742c0.57213,0.38495 1.00679,0.94757 1.3029,1.68786c0.25698,0.63171 0.43888,1.33746 0.54781,2.11723c0.10893,0.77977 0.16287,1.61383 0.16287,2.50218c0,0.67123 -0.03489,1.18943 -0.10364,1.5546c-0.06874,0.36517 -0.17767,0.62184 -0.32573,0.7699c-0.13854,0.13822 -0.32573,0.20727 -0.56262,0.20727zM289.01397,182.89454c0.32573,0 0.65674,-0.04442 0.99199,-0.13325c0.33525,-0.09866 0.61656,-0.24186 0.84393,-0.42936c0.22737,-0.18753 0.34054,-0.41949 0.34054,-0.69588c0,-0.23689 -0.09835,-0.42936 -0.29612,-0.57742c-0.18719,-0.15793 -0.43888,-0.27637 -0.75509,-0.35534c-0.30563,-0.07897 -0.63665,-0.11845 -0.99199,-0.11845c-0.60174,0 -1.06073,0.10364 -1.37694,0.31092c-0.30563,0.20727 -0.45897,0.48366 -0.45897,0.82912c0,0.37509 0.14277,0.66627 0.42936,0.87354c0.29612,0.19744 0.72019,0.29612 1.27329,0.29612zM298.83019,175.13631c0.87778,0 1.51019,0.12831 1.89514,0.38495c0.38495,0.25663 0.57742,0.58729 0.57742,0.99199c0,0.23689 -0.0846,0.43431 -0.2517,0.59223c-0.15863,0.14806 -0.38495,0.22209 -0.68106,0.22209c-0.30669,0 -0.62713,-0.04442 -0.96238,-0.13325c-0.32573,-0.08884 -0.70644,-0.13325 -1.14004,-0.13325c-0.5034,0 -0.87883,0.0987 -1.12524,0.29612c-0.24746,0.19742 -0.37014,0.44911 -0.37014,0.75509c0,0.28624 0.10788,0.51327 0.32573,0.68106c0.22632,0.15793 0.65569,0.27637 1.28811,0.35534c0.7001,0.07897 1.27753,0.20727 1.73227,0.38495c0.46321,0.1678 0.80904,0.42443 1.0364,0.7699c0.22632,0.3356 0.34054,0.79951 0.34054,1.39174c0,0.93773 -0.33102,1.63361 -0.99199,2.08762c-0.66203,0.45401 -1.5747,0.68106 -2.73907,0.68106c-0.74029,0 -1.32829,-0.05922 -1.76189,-0.17767c-0.43466,-0.11845 -0.75087,-0.28628 -0.94757,-0.5034c-0.18824,-0.21712 -0.28131,-0.47379 -0.28131,-0.7699c0,-0.25667 0.08355,-0.45401 0.2517,-0.59223c0.17767,-0.14806 0.38495,-0.22209 0.62184,-0.22209c0.22632,0 0.46849,0.02961 0.72548,0.08884c0.25593,0.04938 0.52772,0.10364 0.81432,0.16287c0.28554,0.05922 0.58165,0.08884 0.88835,0.08884c0.9867,0 1.48058,-0.30599 1.48058,-0.91796c0,-0.20727 -0.04971,-0.37509 -0.14806,-0.5034c-0.09942,-0.12831 -0.27708,-0.23196 -0.53301,-0.31092c-0.25698,-0.08884 -0.63242,-0.15793 -1.12524,-0.20727c-0.59223,-0.05922 -1.1062,-0.15793 -1.53981,-0.29612c-0.43466,-0.14806 -0.7699,-0.38495 -1.00679,-0.71067c-0.23689,-0.3356 -0.35534,-0.79457 -0.35534,-1.37694c0,-0.91796 0.34476,-1.65824 1.0364,-2.22087c0.69058,-0.57248 1.67305,-0.85873 2.94634,-0.85873z"/></g></g></svg>