<svg version="1.1" xmlns="http://www.w3.org/2000/svg" xmlns:xlink="http://www.w3.org/1999/xlink" width="15.34251" height="22.58104" viewBox="0,0,15.34251,22.58104"><g transform="translate(-232.32875,-169.17673)"><g data-paper-data="{&quot;isPaintingLayer&quot;:true}" fill-rule="evenodd" stroke="none" stroke-width="1" stroke-linecap="butt" stroke-linejoin="miter" stroke-miterlimit="10" stroke-dasharray="" stroke-dashoffset="0" style="mix-blend-mode: normal"><g data-paper-data="{&quot;index&quot;:null}"><g><path d="M243.68263,187.5318c0,0 -2.11117,0.34412 -2.13162,0.0885c-0.07009,-1.25843 0.77894,-3.36911 1.98254,-2.6992c0.66301,0.36135 0.48046,0.91271 0.32649,1.52576c-0.08058,0.34852 -0.12899,0.71673 -0.1774,1.08493z" fill="#dcaa78"/><path d="M243.81215,183.34552c1.58883,0.61823 1.13862,2.22143 1.13862,2.22143c-0.213,0.70954 -0.44115,1.29933 -0.44115,1.29933l-2.9973,-0.77253l0.40649,-1.78464c0,0 0.30452,-1.58181 1.89335,-0.96358z" fill="#f01446"/></g><g><path d="M246.43816,191.62626c0.01078,-0.12601 0.0189,-0.31995 0.02078,-0.53981v0l-0.00575,-1.21907c0.19394,0.00814 0.37179,0.00642 0.54965,0.0047c0,0 -0.27688,1.75342 -0.31358,1.88568l-0.25109,-0.13148z" fill="#000000"/><path d="M246.45895,191.08648c-0.01514,-0.11977 -0.0142,-0.2297 -0.00702,-0.31371c-2.08166,0.29587 -3.04837,-0.47225 -3.08054,-0.49193c-0.74077,-0.3426 -1.89127,-1.93038 -1.96324,-2.96894l2.40504,0.07874c-0.06372,0.64615 0.18626,1.28528 0.67408,1.71627c0.51997,0.45066 1.26793,0.70926 1.96593,0.76049l0.00575,1.21907z" fill="#00a08c"/><path d="M246.44911,191.10255c0,0 0.00984,-0.01609 0,0z" fill="#000000"/></g><path d="M243.98822,187.71871l-2.74468,-0.06547l-0.06416,-0.43707l2.79651,0.05298z" fill="#008264"/></g><g data-paper-data="{&quot;index&quot;:null}"><path d="M239.75936,183.7311c1.22548,0.30166 -0.30166,3.43136 -0.30166,3.43136c0,0 -1.24434,0.05656 -1.71568,-0.11312c0.01886,-0.20739 0.79186,-3.6199 2.01734,-3.31824z" fill="#dcaa78"/><path d="M240.98485,184.20245l-0.5279,1.92307l-2.80919,0.05656l0.32051,-1.97963c0,0 0.2828,-1.18777 1.73453,-1.15007c1.47058,0.01886 1.28205,1.15007 1.28205,1.15007z" fill="#f01446"/><g><path d="M235.7624,191.5742c0,0 -0.01885,-0.13197 0,-0.15083c0.16968,-0.01886 0.82955,-0.20738 0.99924,-0.22624l1.0558,0.18854c-0.09427,0.18854 -0.15084,0.32051 -0.16969,0.32051c-0.26395,0.01886 -1.79109,-0.13197 -1.88536,-0.13197z" fill="#000000"/><path d="M237.55348,186.97394h2.24358c-0.22624,0.50905 -0.47134,0.98038 -0.5279,1.13121c-0.33937,0.90498 -1.13122,2.58294 -1.47058,3.28053l-1.0558,-0.18854z" fill="#00a08c"/></g><path d="M240.09872,186.84195l-0.26395,0.50905l-2.48868,-0.05656l0.09427,-0.54675z" fill="#008264"/></g><path d="M238.00598,184.10819l0.54676,-3.1297h5.07162c0,0 0.39592,0.60331 0.75414,1.69682c0.13197,0.41478 0.30165,1.11236 0.43363,1.60255z" data-paper-data="{&quot;index&quot;:null}" fill="#f01446"/><g data-paper-data="{&quot;index&quot;:null}"><path d="M236.94151,173.278c-0.32051,0 -0.65988,-0.2828 -0.71644,-0.58446c-0.05656,-0.30166 0.07542,-0.71644 0.39593,-0.79185c0.41477,-0.11312 0.58445,0.28281 0.75414,0.56561c0.05656,0.39592 0.09427,0.79184 -0.43363,0.8107z" fill="#be8c64"/><path d="M236.75296,173.10833c-0.09427,-0.73529 -0.09427,-1.48944 0.03771,-2.22473l2.65836,-0.45249l1.62141,-0.26395c0.39592,-0.05656 0.43363,-0.11312 0.62217,0.30166c0.33937,0.73529 0.2074,1.79109 -0.01885,2.56409c-0.15082,0.4902 -1.03695,2.09275 -2.46982,2.09275c-1.43288,0 -2.41327,-1.65912 -2.45097,-2.01734z" fill="#dcaa78"/><path d="M242.03199,170.3557c0.4902,-0.20739 0.99924,-0.35822 1.52714,-0.41478c0.58446,-0.07542 1.22549,-0.05656 1.75339,0.2828c0.94268,0.62217 1.43287,2.41327 0.90497,3.43136c-0.30167,0.58446 -0.98039,0.75414 -1.546,0.50905c-0.54676,-0.2451 -0.82956,-0.773 -0.98039,-1.33861c-0.16969,-0.62217 -0.22625,-1.24435 -0.60332,-1.7911c-0.32051,-0.43364 -1.0558,-0.67873 -1.0558,-0.67873z" fill="#000000"/><path d="M241.69261,170.3934c-0.0377,0.13198 -4.22321,1.56484 -5.03391,1.52714c-0.13197,-1.28205 0.37707,-2.33785 1.88536,-2.65836c1.20664,-0.26395 2.58295,0.07542 3.14856,1.13122z" fill="#000000"/><path d="M241.40982,170.1106c0,0 0.47133,-0.18854 0.65987,0.2828c0.11312,0.26395 0.01886,0.56561 -0.20739,0.73529z" fill="#f01446"/><path d="M238.24239,171.88284c0.0377,0.0377 0.07542,0.07542 0.11312,0.11312c0.09428,0.15083 0.13198,0.33937 0.13198,0.50905c-0.01885,0.09427 -0.0377,0.15084 -0.11312,0.18854c-0.09427,0.0377 -0.20739,0.01885 -0.26395,-0.05656c-0.11312,-0.11312 -0.05656,-0.2451 -0.0377,-0.35822c0.0377,-0.13198 0.09426,-0.26395 0.16968,-0.39593z" fill="#be8c64"/><path d="M238.41209,173.57967c0.09427,-0.07542 0.20739,-0.13198 0.32051,-0.18854c0.15083,-0.05656 0.30165,-0.13198 0.47134,-0.18854c0.13198,-0.0377 0.2828,-0.15082 0.41478,-0.16968c0.30167,-0.05656 0.28281,0.33936 0.18854,0.54675c-0.20739,0.43364 -1.16892,0.43364 -1.39517,0z" fill="#000000"/><path d="M239.2982,172.29762l-0.11312,0.0377c-0.07541,-0.05656 -0.07541,-0.30166 -0.05656,-0.37707c0.01885,-0.0377 0.07541,-0.05657 0.15083,-0.03771z" fill="#000000"/><path d="M237.31858,172.35419c-0.03771,-0.09427 -0.05656,-0.18854 -0.03771,-0.26395c0,-0.03771 0.03771,-0.07542 0.05657,-0.07542c0.0377,0 0.05656,0.01886 0.07541,0.05656c0.05656,0.09426 0,0.26394 -0.09427,0.2828z" fill="#000000"/><path d="M239.90152,169.22448c2.94117,0.39593 1.97963,3.45021 1.97963,3.45021l-0.43363,0.05656l-1.52714,-2.41326z" fill="#000000"/><path d="M240.90076,170.09174l-0.50904,2.26244l-0.71644,-1.96078z" fill="#000000"/><path d="M241.44752,171.78856c0,0 0.82957,-0.65988 1.16893,0.03771c0.07541,0.16969 -0.03771,0.58446 -0.07542,0.79185c-0.05656,0.22625 -0.2828,0.37708 -0.49019,0.43364c-0.26396,0.07542 -0.81071,-0.07541 -1.0181,-0.07541c0.01885,-0.35822 0.41478,-1.18778 0.41478,-1.18778z" fill="#dcaa78"/></g><g data-paper-data="{&quot;index&quot;:null}"><path d="M232.41581,181.24298c-0.21203,-0.19367 0.53988,0.00359 0.60397,-0.12898c0.0563,-0.14974 -0.68642,-0.14414 -0.69101,-0.24557c-0.0046,-0.10142 0.70998,-0.03214 0.73973,-0.14914c0.02975,-0.117 -0.67863,-0.12698 -0.66765,-0.19407c0.00319,-0.08425 0.2887,-0.04811 0.8146,-0.12098c0.19506,-0.02635 0.63511,-0.06028 0.85673,-0.11939c0.28091,-0.06529 0.55565,-0.18987 0.80542,-0.32384c-0.00938,0.02495 1.26464,-0.86332 1.61444,-1.18756c0.20146,-0.19487 0.81381,-0.9901 1.37604,-1.57629l0.96554,2.12915c-0.59958,0.45821 -2.02354,1.51798 -3.57488,1.93167c-1.27821,0.33123 -2.76187,0.07247 -2.84293,-0.01498z" fill="#dcaa78"/><path d="M237.32479,177.50563c0,0 1.76498,-2.04249 1.7556,-2.01753c0,0 0.57162,-0.61114 1.54135,0.2947c0.99468,0.91524 -0.18908,2.09381 -0.18908,2.09381c-0.37176,0.45841 -1.60365,1.34828 -1.60365,1.34828l-1.50421,-1.71926z" fill="#008264"/><path d="M237.48432,177.08136l1.74101,2.15012l-0.38574,0.38194l-1.76456,-1.97382z" fill="#f01446"/><path d="M234.01406,180.70452c-0.26694,0.14175 -0.71777,0.01497 -0.49275,-0.35619c-0.21363,-0.15154 -0.45382,-0.27034 -0.39911,-0.37795c0.03753,-0.09983 1.11229,0.26155 1.11229,0.26155c0,0 0.06369,0.32304 -0.22042,0.47259z" fill="#be8c64"/></g><path d="M240.02331,175.17157c0.58446,0.05656 2.05505,-0.15083 2.96002,1.97963c0.64102,1.50829 2.14931,6.41023 2.14931,6.41023l-7.22094,-0.56561c0,0 0.11312,-3.84613 0.33937,-6.10857c0.16968,-1.64027 1.0181,-1.77224 1.77224,-1.71568z" data-paper-data="{&quot;index&quot;:null}" fill="#0066a1"/><g data-paper-data="{&quot;index&quot;:null}"><path d="M246.44805,182.48913c0.02007,0.17673 -0.15118,1.89173 -0.57422,1.81508c-0.13763,-0.14928 0.43305,-1.69446 0.57422,-1.81508z" fill="#be8c64"/><path d="M244.37957,176.32001c0.64498,0.22441 1.92634,1.12877 2.29052,1.67873c0.45076,0.67489 0.80098,1.38534 0.91684,2.1928c0.20428,1.49736 -0.009,4.61299 -0.15094,4.69147c-0.14193,0.07847 0.02026,-0.74247 -0.2164,-0.77191c-0.23666,-0.02942 -0.16066,0.90526 -0.3285,0.95047c-0.15082,0.05333 -0.07754,-1.01898 -0.21211,-0.99967c-0.13457,0.01931 -0.0949,0.81129 -0.16218,0.82094c-0.07541,0.02667 -0.24549,-2.37364 -0.50864,-3.39769c-0.12675,-0.47838 -0.37058,-1.36785 -0.62302,-1.80178c-0.32201,-0.55073 -0.92209,-1.08798 -1.5663,-1.27024c0,0 -1.24474,-0.28098 -0.85049,-1.3254c0.40237,-1.06142 1.41123,-0.76772 1.41123,-0.76772z" fill="#dcaa78"/><path d="M240.7324,175.16346c0.65816,0.02179 1.5789,0.10627 2.34297,0.38755c0.76408,0.28128 1.49643,0.67277 2.18738,1.10717l-1.18718,1.96113c0,0 -1.07337,-0.59612 -2.29775,-0.2197c0,0 -1.75226,0.56309 -2.44687,-1.00127c-0.69462,-1.56436 0.60058,-2.22035 1.40145,-2.23489z" fill="#00a08c"/><path d="M245.66647,176.60023l-1.48929,2.50634l-0.64651,-0.30872l1.49742,-2.52335z" fill="#f01446"/></g></g></g></svg>