<svg width="185" height="80" viewBox="0 0 185 80" fill="none" xmlns="http://www.w3.org/2000/svg">
<path d="M1.00005 1H54.8182L36.1314 66H1.00005L1.00005 33.5V1Z" stroke="#D16E6E" stroke-width="2" stroke-miterlimit="10" stroke-linecap="round"/>
<path d="M69.9801 78.1C69.7534 78.1 69.5967 78.0133 69.5101 77.84C69.4301 77.66 69.3834 77.3767 69.3701 76.99L69.4701 77.04C69.0967 77.7667 68.3901 78.13 67.3501 78.13C66.8767 78.13 66.4834 78.0467 66.1701 77.88C65.8567 77.7067 65.6234 77.48 65.4701 77.2C65.3234 76.9133 65.2501 76.6033 65.2501 76.27C65.2501 75.6967 65.4501 75.2433 65.8501 74.91C66.2501 74.57 66.7801 74.4 67.4401 74.4C67.8734 74.4 68.2501 74.4633 68.5701 74.59C68.8901 74.7167 69.1634 74.8933 69.3901 75.12L69.2201 75.1C69.1734 74.4267 69.0267 73.9467 68.7801 73.66C68.5401 73.3667 68.1967 73.22 67.7501 73.22C67.4901 73.22 67.2501 73.26 67.0301 73.34C66.8101 73.42 66.6067 73.5033 66.4201 73.59C66.2401 73.67 66.0701 73.71 65.9101 73.71C65.7501 73.71 65.6234 73.6567 65.5301 73.55C65.4434 73.4433 65.4001 73.3067 65.4001 73.14C65.4001 72.9 65.5134 72.6733 65.7401 72.46C65.9734 72.2467 66.2801 72.0733 66.6601 71.94C67.0401 71.8067 67.4534 71.74 67.9001 71.74C68.4401 71.74 68.9034 71.87 69.2901 72.13C69.6767 72.39 69.9701 72.77 70.1701 73.27C70.3434 73.6967 70.4667 74.1733 70.5401 74.7C70.6134 75.2267 70.6501 75.79 70.6501 76.39C70.6501 76.8433 70.6267 77.1933 70.5801 77.44C70.5334 77.6867 70.4601 77.86 70.3601 77.96C70.2667 78.0533 70.1401 78.1 69.9801 78.1ZM67.7701 76.98C67.9901 76.98 68.2134 76.95 68.4401 76.89C68.6667 76.8233 68.8567 76.7267 69.0101 76.6C69.1634 76.4733 69.2401 76.3167 69.2401 76.13C69.2401 75.97 69.1734 75.84 69.0401 75.74C68.9134 75.6333 68.7434 75.5533 68.5301 75.5C68.3234 75.4467 68.1001 75.42 67.8601 75.42C67.4534 75.42 67.1434 75.49 66.9301 75.63C66.7234 75.77 66.6201 75.9567 66.6201 76.19C66.6201 76.4433 66.7167 76.64 66.9101 76.78C67.1101 76.9133 67.3967 76.98 67.7701 76.98ZM72.9498 78.02C72.7432 78.02 72.5798 77.9733 72.4598 77.88C72.3398 77.78 72.2432 77.6167 72.1698 77.39C72.0698 77.0567 71.9932 76.6367 71.9398 76.13C71.8932 75.6167 71.8698 74.9867 71.8698 74.24C71.8698 73.78 71.8865 73.32 71.9198 72.86C71.9598 72.3933 72.0098 71.97 72.0698 71.59C72.1298 71.2033 72.1932 70.9033 72.2598 70.69C72.3332 70.4633 72.4198 70.3067 72.5198 70.22C72.6198 70.1333 72.7332 70.09 72.8598 70.09C72.9932 70.09 73.0998 70.1367 73.1798 70.23C73.2598 70.3167 73.3232 70.4733 73.3698 70.7C73.4098 70.92 73.4398 71.19 73.4598 71.51C73.4865 71.83 73.4998 72.1733 73.4998 72.54C73.4998 73.04 73.4765 73.5667 73.4298 74.12C73.3832 74.6733 73.3198 75.2167 73.2398 75.75C73.1665 76.2833 73.0765 76.7733 72.9698 77.22L72.6898 77.08C72.8632 76.8667 73.0598 76.7 73.2798 76.58C73.5065 76.46 73.7132 76.4 73.8998 76.4C74.0532 76.4 74.1698 76.4433 74.2498 76.53C74.3365 76.61 74.3798 76.7367 74.3798 76.91C74.3798 77.0833 74.3032 77.2567 74.1498 77.43C74.0032 77.6033 73.8198 77.7467 73.5998 77.86C73.3798 77.9667 73.1632 78.02 72.9498 78.02ZM79.6578 78.1C79.4311 78.1 79.2745 78.0133 79.1878 77.84C79.1078 77.66 79.0611 77.3767 79.0478 76.99L79.1478 77.04C78.7745 77.7667 78.0678 78.13 77.0278 78.13C76.5545 78.13 76.1611 78.0467 75.8478 77.88C75.5345 77.7067 75.3011 77.48 75.1478 77.2C75.0011 76.9133 74.9278 76.6033 74.9278 76.27C74.9278 75.6967 75.1278 75.2433 75.5278 74.91C75.9278 74.57 76.4578 74.4 77.1178 74.4C77.5511 74.4 77.9278 74.4633 78.2478 74.59C78.5678 74.7167 78.8411 74.8933 79.0678 75.12L78.8978 75.1C78.8511 74.4267 78.7045 73.9467 78.4578 73.66C78.2178 73.3667 77.8745 73.22 77.4278 73.22C77.1678 73.22 76.9278 73.26 76.7078 73.34C76.4878 73.42 76.2845 73.5033 76.0978 73.59C75.9178 73.67 75.7478 73.71 75.5878 73.71C75.4278 73.71 75.3011 73.6567 75.2078 73.55C75.1211 73.4433 75.0778 73.3067 75.0778 73.14C75.0778 72.9 75.1911 72.6733 75.4178 72.46C75.6511 72.2467 75.9578 72.0733 76.3378 71.94C76.7178 71.8067 77.1311 71.74 77.5778 71.74C78.1178 71.74 78.5811 71.87 78.9678 72.13C79.3545 72.39 79.6478 72.77 79.8478 73.27C80.0211 73.6967 80.1445 74.1733 80.2178 74.7C80.2911 75.2267 80.3278 75.79 80.3278 76.39C80.3278 76.8433 80.3045 77.1933 80.2578 77.44C80.2111 77.6867 80.1378 77.86 80.0378 77.96C79.9445 78.0533 79.8178 78.1 79.6578 78.1ZM77.4478 76.98C77.6678 76.98 77.8911 76.95 78.1178 76.89C78.3445 76.8233 78.5345 76.7267 78.6878 76.6C78.8411 76.4733 78.9178 76.3167 78.9178 76.13C78.9178 75.97 78.8511 75.84 78.7178 75.74C78.5911 75.6333 78.4211 75.5533 78.2078 75.5C78.0011 75.4467 77.7778 75.42 77.5378 75.42C77.1311 75.42 76.8211 75.49 76.6078 75.63C76.4011 75.77 76.2978 75.9567 76.2978 76.19C76.2978 76.4433 76.3945 76.64 76.5878 76.78C76.7878 76.9133 77.0745 76.98 77.4478 76.98ZM84.0776 71.74C84.6709 71.74 85.0976 71.8267 85.3576 72C85.6176 72.1733 85.7476 72.3967 85.7476 72.67C85.7476 72.83 85.6909 72.9633 85.5776 73.07C85.4709 73.17 85.3176 73.22 85.1176 73.22C84.9109 73.22 84.6942 73.19 84.4676 73.13C84.2476 73.07 83.9909 73.04 83.6976 73.04C83.3576 73.04 83.1042 73.1067 82.9376 73.24C82.7709 73.3733 82.6876 73.5433 82.6876 73.75C82.6876 73.9433 82.7609 74.0967 82.9076 74.21C83.0609 74.3167 83.3509 74.3967 83.7776 74.45C84.2509 74.5033 84.6409 74.59 84.9476 74.71C85.2609 74.8233 85.4942 74.9967 85.6476 75.23C85.8009 75.4567 85.8776 75.77 85.8776 76.17C85.8776 76.8033 85.6542 77.2733 85.2076 77.58C84.7609 77.8867 84.1442 78.04 83.3576 78.04C82.8576 78.04 82.4609 78 82.1676 77.92C81.8742 77.84 81.6609 77.7267 81.5276 77.58C81.4009 77.4333 81.3376 77.26 81.3376 77.06C81.3376 76.8867 81.3942 76.7533 81.5076 76.66C81.6276 76.56 81.7676 76.51 81.9276 76.51C82.0809 76.51 82.2442 76.53 82.4176 76.57C82.5909 76.6033 82.7742 76.64 82.9676 76.68C83.1609 76.72 83.3609 76.74 83.5676 76.74C84.2342 76.74 84.5676 76.5333 84.5676 76.12C84.5676 75.98 84.5342 75.8667 84.4676 75.78C84.4009 75.6933 84.2809 75.6233 84.1076 75.57C83.9342 75.51 83.6809 75.4633 83.3476 75.43C82.9476 75.39 82.6009 75.3233 82.3076 75.23C82.0142 75.13 81.7876 74.97 81.6276 74.75C81.4676 74.5233 81.3876 74.2133 81.3876 73.82C81.3876 73.2 81.6209 72.7 82.0876 72.32C82.5542 71.9333 83.2176 71.74 84.0776 71.74Z" fill="black"/>
<path d="M157.3 31.98H157.1C157.08 31.6867 157.087 31.41 157.12 31.15C157.153 30.8833 157.223 30.67 157.33 30.51C157.443 30.3433 157.603 30.26 157.81 30.26C157.997 30.26 158.133 30.32 158.22 30.44C158.307 30.56 158.35 30.7267 158.35 30.94C158.35 31.36 158.27 31.72 158.11 32.02L157.93 32C158.29 31.8733 158.697 31.81 159.15 31.81C159.437 31.81 159.663 31.8667 159.83 31.98C160.003 32.0867 160.09 32.27 160.09 32.53C160.09 32.7767 159.99 32.9633 159.79 33.09C159.59 33.2167 159.34 33.28 159.04 33.28C158.86 33.28 158.667 33.2733 158.46 33.26C158.26 33.24 158.063 33.21 157.87 33.17L158.04 32.96C158.1 33.2133 158.157 33.5033 158.21 33.83C158.27 34.15 158.323 34.4833 158.37 34.83C158.417 35.1767 158.453 35.5133 158.48 35.84C158.507 36.1667 158.52 36.46 158.52 36.72C158.52 37.1467 158.453 37.4833 158.32 37.73C158.187 37.9767 157.99 38.1 157.73 38.1C157.523 38.1 157.36 38.0367 157.24 37.91C157.127 37.7833 157.043 37.6233 156.99 37.43C156.943 37.23 156.913 37.0233 156.9 36.81C156.893 36.5967 156.89 36.4033 156.89 36.23C156.89 35.9367 156.903 35.6067 156.93 35.24C156.957 34.8667 156.993 34.4833 157.04 34.09C157.093 33.6967 157.153 33.3167 157.22 32.95L157.42 33.12C157.08 33.2933 156.66 33.38 156.16 33.38C155.853 33.38 155.617 33.3233 155.45 33.21C155.283 33.0967 155.2 32.92 155.2 32.68C155.2 32.42 155.293 32.22 155.48 32.08C155.667 31.9333 155.917 31.86 156.23 31.86C156.437 31.86 156.63 31.8733 156.81 31.9C156.997 31.92 157.16 31.9467 157.3 31.98ZM161.783 30.33C162.05 30.33 162.24 30.4033 162.353 30.55C162.473 30.6967 162.533 30.8667 162.533 31.06C162.533 31.3 162.46 31.4867 162.313 31.62C162.173 31.7467 161.973 31.81 161.713 31.81C161.46 31.81 161.27 31.74 161.143 31.6C161.016 31.4533 160.953 31.2833 160.953 31.09C160.953 30.8367 161.03 30.6467 161.183 30.52C161.336 30.3933 161.536 30.33 161.783 30.33ZM161.843 32.56C162.056 32.56 162.223 32.76 162.343 33.16C162.47 33.56 162.533 34.1967 162.533 35.07C162.533 36.1433 162.456 36.9167 162.303 37.39C162.15 37.8633 161.916 38.1 161.603 38.1C161.363 38.1 161.186 37.9267 161.073 37.58C160.96 37.2267 160.903 36.6133 160.903 35.74C160.903 34.6667 160.99 33.87 161.163 33.35C161.343 32.8233 161.57 32.56 161.843 32.56ZM164.775 31.78C164.988 31.78 165.131 31.8667 165.205 32.04C165.285 32.2133 165.325 32.47 165.325 32.81C165.325 32.89 165.318 32.9767 165.305 33.07C165.298 33.1567 165.285 33.2367 165.265 33.31L165.245 33.11C165.405 32.6767 165.651 32.34 165.985 32.1C166.318 31.8533 166.671 31.73 167.045 31.73C167.458 31.73 167.801 31.8467 168.075 32.08C168.355 32.3133 168.561 32.64 168.695 33.06C168.835 33.48 168.905 33.9767 168.905 34.55C168.905 34.9033 168.888 35.2533 168.855 35.6C168.828 35.94 168.788 36.2533 168.735 36.54C168.688 36.82 168.635 37.05 168.575 37.23C168.495 37.4567 168.391 37.6267 168.265 37.74C168.138 37.8467 167.988 37.9 167.815 37.9C167.641 37.9 167.508 37.8367 167.415 37.71C167.321 37.5833 167.275 37.4133 167.275 37.2C167.275 36.9733 167.291 36.7 167.325 36.38C167.358 36.0533 167.388 35.7233 167.415 35.39C167.448 35.05 167.465 34.7433 167.465 34.47C167.465 33.5367 167.158 33.07 166.545 33.07C166.218 33.07 165.945 33.2167 165.725 33.51C165.505 33.7967 165.358 34.2067 165.285 34.74C165.265 34.92 165.255 35.1433 165.255 35.41C165.255 35.6767 165.255 35.9433 165.255 36.21C165.261 36.47 165.255 36.69 165.235 36.87C165.208 37.27 165.131 37.5567 165.005 37.73C164.885 37.9033 164.718 37.99 164.505 37.99C164.258 37.99 164.071 37.8767 163.945 37.65C163.818 37.4167 163.755 37.0267 163.755 36.48C163.755 36.2 163.761 35.8867 163.775 35.54C163.788 35.1933 163.805 34.8467 163.825 34.5C163.851 34.1467 163.881 33.8267 163.915 33.54C163.981 33 164.078 32.5733 164.205 32.26C164.331 31.94 164.521 31.78 164.775 31.78ZM172.032 37.84C171.405 37.84 170.895 37.6 170.502 37.12C170.108 36.6333 169.912 35.8967 169.912 34.91C169.912 33.8567 170.102 33.0867 170.482 32.6C170.862 32.1133 171.362 31.87 171.982 31.87C172.348 31.87 172.672 31.9633 172.952 32.15C173.232 32.3367 173.472 32.6 173.672 32.94L173.592 33.08C173.572 32.9867 173.555 32.8867 173.542 32.78C173.528 32.6733 173.522 32.5933 173.522 32.54C173.522 32.2667 173.565 32.0567 173.652 31.91C173.745 31.7567 173.888 31.68 174.082 31.68C174.295 31.68 174.462 31.7667 174.582 31.94C174.708 32.1133 174.805 32.36 174.872 32.68C174.958 33.0067 175.032 33.4233 175.092 33.93C175.152 34.43 175.182 34.9367 175.182 35.45C175.182 36.09 175.158 36.6267 175.112 37.06C175.065 37.4933 174.988 37.8533 174.882 38.14C174.775 38.4267 174.635 38.6767 174.462 38.89C174.175 39.2367 173.805 39.5 173.352 39.68C172.905 39.8667 172.388 39.96 171.802 39.96C171.382 39.96 171.045 39.92 170.792 39.84C170.538 39.7667 170.355 39.6633 170.242 39.53C170.135 39.4033 170.082 39.26 170.082 39.1C170.082 38.9333 170.128 38.7933 170.222 38.68C170.315 38.5733 170.455 38.52 170.642 38.52C170.808 38.52 171.002 38.5467 171.222 38.6C171.448 38.6533 171.715 38.68 172.022 38.68C172.668 38.68 173.125 38.5267 173.392 38.22C173.665 37.92 173.802 37.4867 173.802 36.92C173.802 36.7667 173.792 36.5867 173.772 36.38L173.912 36.43C173.745 36.8567 173.498 37.2 173.172 37.46C172.845 37.7133 172.465 37.84 172.032 37.84ZM172.412 36.61C172.625 36.61 172.838 36.5533 173.052 36.44C173.265 36.3267 173.442 36.14 173.582 35.88C173.722 35.62 173.792 35.27 173.792 34.83C173.792 34.3033 173.668 33.8733 173.422 33.54C173.175 33.2067 172.828 33.04 172.382 33.04C171.995 33.04 171.712 33.1867 171.532 33.48C171.352 33.7733 171.262 34.2167 171.262 34.81C171.262 35.3767 171.352 35.82 171.532 36.14C171.712 36.4533 172.005 36.61 172.412 36.61ZM178.311 37.84C177.684 37.84 177.174 37.6 176.781 37.12C176.388 36.6333 176.191 35.8967 176.191 34.91C176.191 33.8567 176.381 33.0867 176.761 32.6C177.141 32.1133 177.641 31.87 178.261 31.87C178.628 31.87 178.951 31.9633 179.231 32.15C179.511 32.3367 179.751 32.6 179.951 32.94L179.871 33.08C179.851 32.9867 179.834 32.8867 179.821 32.78C179.808 32.6733 179.801 32.5933 179.801 32.54C179.801 32.2667 179.844 32.0567 179.931 31.91C180.024 31.7567 180.168 31.68 180.361 31.68C180.574 31.68 180.741 31.7667 180.861 31.94C180.988 32.1133 181.084 32.36 181.151 32.68C181.238 33.0067 181.311 33.4233 181.371 33.93C181.431 34.43 181.461 34.9367 181.461 35.45C181.461 36.09 181.438 36.6267 181.391 37.06C181.344 37.4933 181.268 37.8533 181.161 38.14C181.054 38.4267 180.914 38.6767 180.741 38.89C180.454 39.2367 180.084 39.5 179.631 39.68C179.184 39.8667 178.668 39.96 178.081 39.96C177.661 39.96 177.324 39.92 177.071 39.84C176.818 39.7667 176.634 39.6633 176.521 39.53C176.414 39.4033 176.361 39.26 176.361 39.1C176.361 38.9333 176.408 38.7933 176.501 38.68C176.594 38.5733 176.734 38.52 176.921 38.52C177.088 38.52 177.281 38.5467 177.501 38.6C177.728 38.6533 177.994 38.68 178.301 38.68C178.948 38.68 179.404 38.5267 179.671 38.22C179.944 37.92 180.081 37.4867 180.081 36.92C180.081 36.7667 180.071 36.5867 180.051 36.38L180.191 36.43C180.024 36.8567 179.778 37.2 179.451 37.46C179.124 37.7133 178.744 37.84 178.311 37.84ZM178.691 36.61C178.904 36.61 179.118 36.5533 179.331 36.44C179.544 36.3267 179.721 36.14 179.861 35.88C180.001 35.62 180.071 35.27 180.071 34.83C180.071 34.3033 179.948 33.8733 179.701 33.54C179.454 33.2067 179.108 33.04 178.661 33.04C178.274 33.04 177.991 33.1867 177.811 33.48C177.631 33.7733 177.541 34.2167 177.541 34.81C177.541 35.3767 177.631 35.82 177.811 36.14C177.991 36.4533 178.284 36.61 178.691 36.61ZM183.56 30.33C183.827 30.33 184.017 30.4033 184.13 30.55C184.25 30.6967 184.31 30.8667 184.31 31.06C184.31 31.3 184.237 31.4867 184.09 31.62C183.95 31.7467 183.75 31.81 183.49 31.81C183.237 31.81 183.047 31.74 182.92 31.6C182.794 31.4533 182.73 31.2833 182.73 31.09C182.73 30.8367 182.807 30.6467 182.96 30.52C183.114 30.3933 183.314 30.33 183.56 30.33ZM183.62 32.56C183.834 32.56 184 32.76 184.12 33.16C184.247 33.56 184.31 34.1967 184.31 35.07C184.31 36.1433 184.234 36.9167 184.08 37.39C183.927 37.8633 183.694 38.1 183.38 38.1C183.14 38.1 182.964 37.9267 182.85 37.58C182.737 37.2267 182.68 36.6133 182.68 35.74C182.68 34.6667 182.767 33.87 182.94 33.35C183.12 32.8233 183.347 32.56 183.62 32.56Z" fill="black"/>
<path d="M149 66H36.8788L55.5657 1H149V66Z" stroke="#73D16E" stroke-width="2" stroke-miterlimit="10" stroke-linecap="round"/>
</svg>
