<svg version="1.1" xmlns="http://www.w3.org/2000/svg" xmlns:xlink="http://www.w3.org/1999/xlink" width="64.57813" height="15.86907" viewBox="0,0,64.57813,15.86907"><g transform="translate(-207.71093,-172.06546)"><g data-paper-data="{&quot;isPaintingLayer&quot;:true}" fill-rule="nonzero" stroke-width="1" stroke-linecap="butt" stroke-linejoin="miter" stroke-miterlimit="10" stroke-dasharray="" stroke-dashoffset="0" style="mix-blend-mode: normal"><path d="M213.08184,172.56546h53.83633c2.69028,0 4.8709,2.18078 4.8709,4.8709v5.12727c0,2.69013 -2.18063,4.8709 -4.8709,4.8709h-53.83633c-2.69013,0 -4.8709,-2.18078 -4.8709,-4.8709v-5.12727c0,-2.69013 2.18078,-4.8709 4.8709,-4.8709z" fill="#a5a7a9" stroke="#000000"/><path d="M218.67774,178.41825c0.10906,0 0.19176,0.03758 0.24816,0.1128c0.0564,0.07142 0.0846,0.18986 0.0846,0.35532c0,0.20678 -0.02446,0.43992 -0.07332,0.69936c-0.04886,0.25944 -0.11844,0.5057 -0.20868,0.73884l-0.09024,-0.1128c0.30082,-0.06394 0.61286,-0.09398 0.93624,-0.09024c0.32338,0.00374 0.61666,0.04138 0.87984,0.1128l-0.10152,0.05076c-0.04886,-0.25191 -0.08649,-0.50196 -0.1128,-0.75012c-0.02256,-0.24816 -0.03384,-0.46812 -0.03384,-0.65988c0,-0.17674 0.02631,-0.30266 0.07896,-0.37788c0.05266,-0.07522 0.13726,-0.1128 0.2538,-0.1128c0.12034,0 0.21432,0.04322 0.282,0.12972c0.06768,0.08271 0.12034,0.21432 0.15792,0.3948c0.04138,0.18802 0.07332,0.41546 0.09588,0.68244c0.02631,0.26318 0.03948,0.5339 0.03948,0.81216c0,0.27446 -0.00754,0.55462 -0.02256,0.84036c-0.01502,0.28574 -0.04322,0.55082 -0.0846,0.79524c-0.03384,0.19551 -0.08834,0.33651 -0.16356,0.423c-0.07522,0.08649 -0.17858,0.12972 -0.3102,0.12972c-0.13536,0 -0.23314,-0.04322 -0.29328,-0.12972c-0.0564,-0.08649 -0.0846,-0.24816 -0.0846,-0.48504c0,-0.22934 0.01692,-0.46812 0.05076,-0.71628c0.03758,-0.24816 0.08834,-0.49258 0.15228,-0.7332l0.11844,0.17484c-0.28574,0.06014 -0.58466,0.09024 -0.89676,0.09024c-0.30831,-0.00374 -0.60912,-0.03384 -0.9024,-0.09024l0.01128,-0.19176c0.07522,0.24442 0.14474,0.49632 0.20868,0.75576c0.06768,0.25944 0.10152,0.51888 0.10152,0.77832c0,0.20678 -0.03574,0.35342 -0.10716,0.43992c-0.07142,0.08271 -0.17294,0.12408 -0.30456,0.12408c-0.1128,0 -0.20304,-0.03194 -0.27072,-0.09588c-0.06768,-0.06394 -0.11654,-0.18238 -0.14664,-0.35532c-0.03009,-0.1692 -0.05451,-0.37978 -0.07332,-0.63168c-0.01882,-0.25569 -0.0282,-0.52452 -0.0282,-0.80652c0,-0.33466 0.01502,-0.65988 0.04512,-0.97572c0.03009,-0.31584 0.06958,-0.58656 0.11844,-0.81216c0.03758,-0.17674 0.09214,-0.30646 0.16356,-0.38916c0.07142,-0.08271 0.16546,-0.12408 0.282,-0.12408zM224.29445,182.62004c-0.12782,0 -0.21617,-0.04886 -0.26508,-0.14664c-0.04512,-0.10152 -0.07142,-0.26134 -0.07896,-0.4794l0.0564,0.0282c-0.21053,0.40982 -0.60912,0.61476 -1.19568,0.61476c-0.26693,0 -0.48878,-0.04702 -0.66552,-0.141c-0.17669,-0.09778 -0.30831,-0.2256 -0.3948,-0.38352c-0.08271,-0.16166 -0.12408,-0.33651 -0.12408,-0.52452c0,-0.32338 0.1128,-0.57902 0.3384,-0.76704c0.2256,-0.19176 0.52452,-0.28764 0.89676,-0.28764c0.24442,0 0.45684,0.03574 0.63732,0.10716c0.18048,0.07142 0.33466,0.17109 0.46248,0.29892l-0.09588,-0.01128c-0.02631,-0.37978 -0.109,-0.65049 -0.24816,-0.81216c-0.13536,-0.16546 -0.32897,-0.24816 -0.58092,-0.24816c-0.14664,0 -0.282,0.02256 -0.40608,0.06768c-0.12408,0.04512 -0.23873,0.09214 -0.34404,0.141c-0.10152,0.04512 -0.1974,0.06768 -0.28764,0.06768c-0.09024,0 -0.16166,-0.03009 -0.21432,-0.09024c-0.04886,-0.06014 -0.07332,-0.13726 -0.07332,-0.23124c0,-0.13536 0.06394,-0.26318 0.19176,-0.38352c0.13162,-0.12034 0.30456,-0.21806 0.51888,-0.29328c0.21432,-0.07522 0.44746,-0.1128 0.69936,-0.1128c0.30456,0 0.56589,0.07332 0.78396,0.21996c0.21811,0.14664 0.38352,0.36096 0.49632,0.64296c0.09778,0.24062 0.16736,0.50949 0.20868,0.80652c0.04138,0.29702 0.06204,0.61476 0.06204,0.95316c0,0.25569 -0.01313,0.45309 -0.03948,0.5922c-0.02631,0.13911 -0.06768,0.23688 -0.12408,0.29328c-0.0526,0.05266 -0.12408,0.07896 -0.21432,0.07896zM223.04801,181.98836c0.12408,0 0.25006,-0.01692 0.37788,-0.05076c0.12787,-0.03758 0.23503,-0.09214 0.32148,-0.16356c0.08649,-0.07142 0.12972,-0.15982 0.12972,-0.26508c0,-0.09024 -0.03758,-0.16356 -0.1128,-0.21996c-0.07142,-0.06014 -0.16731,-0.10526 -0.28764,-0.13536c-0.11654,-0.03009 -0.24252,-0.04512 -0.37788,-0.04512c-0.22934,0 -0.40418,0.03948 -0.52452,0.11844c-0.11654,0.07896 -0.17484,0.18422 -0.17484,0.31584c0,0.14289 0.05456,0.2538 0.16356,0.33276c0.1128,0.07522 0.27451,0.1128 0.48504,0.1128zM225.74383,179.06684c0.10152,0 0.18612,0.06014 0.2538,0.18048c0.06768,0.11654 0.11464,0.30266 0.141,0.55836l-0.11844,0.10716c0.06768,-0.26318 0.1936,-0.46438 0.37788,-0.60348c0.18422,-0.13911 0.40229,-0.20868 0.65424,-0.20868c0.23309,0 0.43992,0.06014 0.6204,0.18048c0.18048,0.12034 0.32148,0.30266 0.423,0.54708c0.10526,0.24062 0.15792,0.54333 0.15792,0.90804c0,0.5903 -0.10716,1.02648 -0.32148,1.30848c-0.21058,0.27826 -0.49822,0.41736 -0.86292,0.41736c-0.26323,0 -0.47002,-0.0564 -0.6204,-0.1692c-0.15043,-0.1128 -0.25569,-0.25006 -0.31584,-0.41172l0.06768,-0.03384c0.03004,0.2256 0.05451,0.44931 0.07332,0.67116c0.02256,0.21806 0.03384,0.40982 0.03384,0.57528c0,0.1692 -0.03009,0.31209 -0.09024,0.42864c-0.0602,0.11654 -0.15607,0.17484 -0.28764,0.17484c-0.12787,0 -0.22376,-0.04886 -0.28764,-0.14664c-0.06394,-0.09778 -0.11096,-0.22749 -0.141,-0.38916c-0.02256,-0.16546 -0.04512,-0.37788 -0.06768,-0.63732c-0.02256,-0.25944 -0.04138,-0.53955 -0.0564,-0.84036c-0.01128,-0.30082 -0.01692,-0.59409 -0.01692,-0.87984c0,-0.29328 0.00938,-0.56775 0.0282,-0.82344c0.02256,-0.25944 0.04886,-0.47002 0.07896,-0.63168c0.02631,-0.09398 0.06014,-0.16356 0.10152,-0.20868c0.04512,-0.04886 0.10337,-0.07332 0.17484,-0.07332zM226.82107,179.74928c-0.20304,0 -0.3666,0.10152 -0.49068,0.30456c-0.12034,0.19929 -0.18048,0.45495 -0.18048,0.76704c0,0.31958 0.06014,0.55836 0.18048,0.71628c0.12408,0.15792 0.28384,0.23688 0.4794,0.23688c0.2256,0 0.38726,-0.08834 0.48504,-0.26508c0.10152,-0.18048 0.15228,-0.41362 0.15228,-0.69936c0,-0.36471 -0.06204,-0.63168 -0.18612,-0.80088c-0.12408,-0.17294 -0.27072,-0.25944 -0.43992,-0.25944zM231.3627,182.5298c-0.10152,0 -0.18048,-0.03384 -0.23688,-0.10152c-0.05266,-0.07142 -0.08834,-0.16166 -0.10716,-0.27072c-0.01882,-0.1128 -0.0282,-0.23124 -0.0282,-0.35532l0.0282,-0.02256c-0.03758,0.16166 -0.11091,0.30082 -0.21996,0.41736c-0.10906,0.11654 -0.23498,0.20678 -0.37788,0.27072c-0.14289,0.06014 -0.28574,0.09024 -0.42864,0.09024c-0.19176,0 -0.3666,-0.04512 -0.52452,-0.13536c-0.15792,-0.09024 -0.28011,-0.22934 -0.3666,-0.41736c-0.08649,-0.19929 -0.15418,-0.44931 -0.20304,-0.75012c-0.04886,-0.30456 -0.07332,-0.61666 -0.07332,-0.93624c0,-0.17294 0.00754,-0.33276 0.02256,-0.4794c0.01502,-0.14664 0.03948,-0.26698 0.07332,-0.36096c0.03009,-0.09778 0.07522,-0.1692 0.13536,-0.21432c0.06014,-0.04886 0.13726,-0.07332 0.23124,-0.07332c0.10906,0 0.19366,0.04322 0.2538,0.12972c0.06394,0.08271 0.10342,0.19929 0.11844,0.34968c0.01502,0.12408 0.02446,0.27826 0.0282,0.46248c0.00754,0.18048 0.01318,0.36286 0.01692,0.54708c0.00754,0.18048 0.01692,0.33276 0.0282,0.45684c0.02256,0.2256 0.08086,0.39291 0.17484,0.50196c0.09398,0.10526 0.20868,0.15792 0.34404,0.15792c0.19929,0 0.35158,-0.07522 0.45684,-0.2256c0.10526,-0.15038 0.15792,-0.36096 0.15792,-0.63168c0,-0.13536 -0.00754,-0.28764 -0.02256,-0.45684c-0.01502,-0.17294 -0.03194,-0.34029 -0.05076,-0.50196c-0.01502,-0.16166 -0.02256,-0.29518 -0.02256,-0.40044c0,-0.17674 0.03009,-0.30266 0.09024,-0.37788c0.06014,-0.07896 0.14289,-0.11844 0.24816,-0.11844c0.09024,0 0.16546,0.02446 0.2256,0.07332c0.06394,0.04886 0.11469,0.11654 0.15228,0.20304c0.05266,0.1128 0.09778,0.26698 0.13536,0.46248c0.03758,0.19551 0.06768,0.41736 0.09024,0.66552c0.02256,0.24816 0.03384,0.50949 0.03384,0.78396c0,0.42111 -0.0282,0.73695 -0.0846,0.94752c-0.0564,0.20678 -0.15602,0.3102 -0.29892,0.3102zM233.85922,179.033c0.33466,0 0.57528,0.04886 0.72192,0.14664c0.14664,0.09778 0.21996,0.22371 0.21996,0.37788c0,0.09024 -0.03194,0.16546 -0.09588,0.2256c-0.06014,0.0564 -0.14664,0.0846 -0.25944,0.0846c-0.11654,0 -0.23873,-0.01692 -0.3666,-0.05076c-0.12408,-0.03384 -0.26882,-0.05076 -0.43428,-0.05076c-0.19176,0 -0.3346,0.03758 -0.42864,0.1128c-0.09398,0.07522 -0.141,0.17109 -0.141,0.28764c0,0.10906 0.04138,0.19551 0.12408,0.25944c0.08649,0.06014 0.25006,0.10526 0.49068,0.13536c0.26698,0.03009 0.48693,0.07896 0.65988,0.14664c0.17674,0.06394 0.30835,0.16166 0.3948,0.29328c0.08649,0.12782 0.12972,0.30456 0.12972,0.53016c0,0.35722 -0.12593,0.62229 -0.37788,0.79524c-0.25191,0.17294 -0.59968,0.25944 -1.0434,0.25944c-0.282,0 -0.5057,-0.02256 -0.67116,-0.06768c-0.1654,-0.04512 -0.28574,-0.10906 -0.36096,-0.19176c-0.07142,-0.08271 -0.10716,-0.18048 -0.10716,-0.29328c0,-0.09778 0.032,-0.17294 0.09588,-0.2256c0.06768,-0.0564 0.14664,-0.0846 0.23688,-0.0846c0.08649,0 0.17863,0.01128 0.27636,0.03384c0.09778,0.01882 0.2012,0.03948 0.3102,0.06204c0.10906,0.02256 0.22186,0.03384 0.3384,0.03384c0.37603,0 0.564,-0.11654 0.564,-0.34968c0,-0.07896 -0.01877,-0.14289 -0.0564,-0.19176c-0.03758,-0.04886 -0.10526,-0.08834 -0.20304,-0.11844c-0.09773,-0.03384 -0.24062,-0.06014 -0.42864,-0.07896c-0.2256,-0.02256 -0.42111,-0.06014 -0.58656,-0.1128c-0.1654,-0.0564 -0.29328,-0.14664 -0.38352,-0.27072c-0.09024,-0.12782 -0.13536,-0.30266 -0.13536,-0.52452c0,-0.34968 0.13162,-0.63168 0.3948,-0.846c0.26323,-0.21806 0.63732,-0.32712 1.12236,-0.32712zM238.18161,179.21348c-0.17674,0.05266 -0.34029,0.09398 -0.49068,0.12408c-0.15043,0.02631 -0.29143,0.03948 -0.423,0.03948c-0.12034,0 -0.21432,-0.02446 -0.282,-0.07332c-0.06768,-0.04886 -0.10152,-0.12218 -0.10152,-0.21996c0,-0.08271 0.0282,-0.16166 0.0846,-0.23688c0.0564,-0.07522 0.14284,-0.14289 0.25944,-0.20304c0.13911,-0.06768 0.31584,-0.12408 0.53016,-0.1692c0.21432,-0.04512 0.46433,-0.06768 0.75012,-0.06768c0.19176,0 0.35906,0.01318 0.50196,0.03948c0.14284,0.02256 0.25564,0.05076 0.3384,0.0846c0.109,0.04512 0.18422,0.09778 0.2256,0.15792c0.04512,0.0564 0.06768,0.12218 0.06768,0.1974c0,0.09398 -0.03384,0.17109 -0.10152,0.23124c-0.06768,0.06014 -0.17674,0.09024 -0.32712,0.09024c-0.09024,0 -0.18427,-0.00564 -0.282,-0.01692c-0.09403,-0.01128 -0.19366,-0.02631 -0.29892,-0.04512zM238.57077,178.90892c0.19176,0.24062 0.34024,0.52078 0.44556,0.84036c0.109,0.31584 0.16356,0.6467 0.16356,0.99264c0,0.36096 -0.05076,0.68433 -0.15228,0.97008c-0.09778,0.282 -0.25569,0.5057 -0.47376,0.67116c-0.21811,0.16166 -0.5076,0.24252 -0.86856,0.24252c-0.44371,0 -0.77647,-0.12408 -0.99828,-0.37224c-0.22186,-0.24816 -0.33276,-0.58846 -0.33276,-1.02084c0,-0.21058 0.02631,-0.38916 0.07896,-0.5358c0.0564,-0.14664 0.12972,-0.25754 0.21996,-0.33276c0.09024,-0.07896 0.18797,-0.11844 0.29328,-0.11844c0.09773,0 0.17104,0.03009 0.21996,0.09024c0.0526,0.0564 0.07896,0.13726 0.07896,0.24252c0,0.08649 -0.01507,0.18238 -0.04512,0.28764c-0.02636,0.10152 -0.03948,0.20114 -0.03948,0.29892c0,0.25191 0.04322,0.43618 0.12972,0.55272c0.09024,0.1128 0.23309,0.1692 0.42864,0.1692c0.25944,0 0.44177,-0.10526 0.54708,-0.31584c0.109,-0.21432 0.16356,-0.5057 0.16356,-0.8742c0,-0.26698 -0.0282,-0.52826 -0.0846,-0.78396c-0.0564,-0.25569 -0.14664,-0.51698 -0.27072,-0.78396zM242.57486,182.62004c-0.12782,0 -0.21617,-0.04886 -0.26508,-0.14664c-0.04512,-0.10152 -0.07142,-0.26134 -0.07896,-0.4794l0.0564,0.0282c-0.21053,0.40982 -0.60912,0.61476 -1.19568,0.61476c-0.26693,0 -0.48878,-0.04702 -0.66552,-0.141c-0.17669,-0.09778 -0.30831,-0.2256 -0.3948,-0.38352c-0.08271,-0.16166 -0.12408,-0.33651 -0.12408,-0.52452c0,-0.32338 0.1128,-0.57902 0.3384,-0.76704c0.2256,-0.19176 0.52452,-0.28764 0.89676,-0.28764c0.24442,0 0.45684,0.03574 0.63732,0.10716c0.18048,0.07142 0.33466,0.17109 0.46248,0.29892l-0.09588,-0.01128c-0.02631,-0.37978 -0.109,-0.65049 -0.24816,-0.81216c-0.13536,-0.16546 -0.32897,-0.24816 -0.58092,-0.24816c-0.14664,0 -0.282,0.02256 -0.40608,0.06768c-0.12408,0.04512 -0.23873,0.09214 -0.34404,0.141c-0.10152,0.04512 -0.1974,0.06768 -0.28764,0.06768c-0.09024,0 -0.16166,-0.03009 -0.21432,-0.09024c-0.04886,-0.06014 -0.07332,-0.13726 -0.07332,-0.23124c0,-0.13536 0.06394,-0.26318 0.19176,-0.38352c0.13162,-0.12034 0.30456,-0.21806 0.51888,-0.29328c0.21432,-0.07522 0.44746,-0.1128 0.69936,-0.1128c0.30456,0 0.56589,0.07332 0.78396,0.21996c0.21811,0.14664 0.38352,0.36096 0.49632,0.64296c0.09778,0.24062 0.16736,0.50949 0.20868,0.80652c0.04138,0.29702 0.06204,0.61476 0.06204,0.95316c0,0.25569 -0.01313,0.45309 -0.03948,0.5922c-0.02631,0.13911 -0.06768,0.23688 -0.12408,0.29328c-0.0526,0.05266 -0.12408,0.07896 -0.21432,0.07896zM241.32842,181.98836c0.12408,0 0.25006,-0.01692 0.37788,-0.05076c0.12787,-0.03758 0.23503,-0.09214 0.32148,-0.16356c0.08649,-0.07142 0.12972,-0.15982 0.12972,-0.26508c0,-0.09024 -0.03758,-0.16356 -0.1128,-0.21996c-0.07142,-0.06014 -0.16731,-0.10526 -0.28764,-0.13536c-0.11654,-0.03009 -0.24252,-0.04512 -0.37788,-0.04512c-0.22934,0 -0.40418,0.03948 -0.52452,0.11844c-0.11654,0.07896 -0.17484,0.18422 -0.17484,0.31584c0,0.14289 0.05456,0.2538 0.16356,0.33276c0.1128,0.07522 0.27451,0.1128 0.48504,0.1128zM243.43767,180.2738c0,-0.39106 0.04512,-0.67306 0.13536,-0.846c0.09398,-0.17294 0.21622,-0.25944 0.3666,-0.25944c0.08649,0 0.15228,0.03194 0.1974,0.09588c0.04886,0.06014 0.08271,0.14289 0.10152,0.24816c0.01882,0.10152 0.0282,0.21622 0.0282,0.34404c0,0.16166 0,0.35158 0,0.56964c0.00374,0.21432 0.00754,0.43618 0.01128,0.66552c0.00754,0.2256 0.01502,0.43618 0.02256,0.63168h0.02256c0.11654,-0.49258 0.23314,-0.89676 0.34968,-1.2126c0.12034,-0.31584 0.24252,-0.54898 0.3666,-0.69936c0.12782,-0.15418 0.25569,-0.23124 0.38352,-0.23124c0.13911,0 0.27072,0.07706 0.3948,0.23124c0.12782,0.15038 0.25191,0.37978 0.37224,0.68808c0.12408,0.30831 0.25006,0.69746 0.37788,1.16748h0.02256c0.01128,-0.32338 0.01882,-0.66362 0.02256,-1.02084c0.00374,-0.35722 0.00564,-0.68433 0.00564,-0.98136c0,-0.21432 0.03574,-0.37224 0.10716,-0.47376c0.07142,-0.10152 0.17109,-0.15228 0.29892,-0.15228c0.16166,0 0.27826,0.0846 0.34968,0.2538c0.07522,0.16546 0.1128,0.38916 0.1128,0.67116c0,0.20678 -0.01128,0.42864 -0.03384,0.66552c-0.01882,0.23314 -0.04702,0.45873 -0.0846,0.6768c-0.03758,0.21806 -0.08271,0.40798 -0.13536,0.56964c-0.07896,0.24062 -0.16731,0.423 -0.26508,0.54708c-0.09398,0.12408 -0.21806,0.18612 -0.37224,0.18612c-0.13911,0 -0.27826,-0.08086 -0.41736,-0.24252c-0.13536,-0.16546 -0.26318,-0.41172 -0.38352,-0.73884c-0.12034,-0.32712 -0.23124,-0.73509 -0.33276,-1.22388h-0.02256c-0.09778,0.46622 -0.21432,0.85728 -0.34968,1.17312c-0.13162,0.31209 -0.27262,0.54708 -0.423,0.705c-0.14664,0.15792 -0.29328,0.23688 -0.43992,0.23688c-0.15418,0 -0.28389,-0.06958 -0.38916,-0.20868c-0.10152,-0.13911 -0.18612,-0.35342 -0.2538,-0.64296c-0.03009,-0.14664 -0.0564,-0.30266 -0.07896,-0.46812c-0.02256,-0.1692 -0.03948,-0.33466 -0.05076,-0.49632c-0.01128,-0.16166 -0.01692,-0.30456 -0.01692,-0.42864zM250.4345,182.62004c-0.12782,0 -0.21617,-0.04886 -0.26508,-0.14664c-0.04512,-0.10152 -0.07142,-0.26134 -0.07896,-0.4794l0.0564,0.0282c-0.21053,0.40982 -0.60912,0.61476 -1.19568,0.61476c-0.26693,0 -0.48878,-0.04702 -0.66552,-0.141c-0.17669,-0.09778 -0.30831,-0.2256 -0.3948,-0.38352c-0.08271,-0.16166 -0.12408,-0.33651 -0.12408,-0.52452c0,-0.32338 0.1128,-0.57902 0.3384,-0.76704c0.2256,-0.19176 0.52452,-0.28764 0.89676,-0.28764c0.24442,0 0.45684,0.03574 0.63732,0.10716c0.18048,0.07142 0.33466,0.17109 0.46248,0.29892l-0.09588,-0.01128c-0.02631,-0.37978 -0.109,-0.65049 -0.24816,-0.81216c-0.13536,-0.16546 -0.32897,-0.24816 -0.58092,-0.24816c-0.14664,0 -0.282,0.02256 -0.40608,0.06768c-0.12408,0.04512 -0.23873,0.09214 -0.34404,0.141c-0.10152,0.04512 -0.1974,0.06768 -0.28764,0.06768c-0.09024,0 -0.16166,-0.03009 -0.21432,-0.09024c-0.04886,-0.06014 -0.07332,-0.13726 -0.07332,-0.23124c0,-0.13536 0.06394,-0.26318 0.19176,-0.38352c0.13162,-0.12034 0.30456,-0.21806 0.51888,-0.29328c0.21432,-0.07522 0.44746,-0.1128 0.69936,-0.1128c0.30456,0 0.56589,0.07332 0.78396,0.21996c0.21811,0.14664 0.38352,0.36096 0.49632,0.64296c0.09778,0.24062 0.16736,0.50949 0.20868,0.80652c0.04138,0.29702 0.06204,0.61476 0.06204,0.95316c0,0.25569 -0.01313,0.45309 -0.03948,0.5922c-0.02631,0.13911 -0.06768,0.23688 -0.12408,0.29328c-0.0526,0.05266 -0.12408,0.07896 -0.21432,0.07896zM249.18806,181.98836c0.12408,0 0.25006,-0.01692 0.37788,-0.05076c0.12787,-0.03758 0.23503,-0.09214 0.32148,-0.16356c0.08649,-0.07142 0.12972,-0.15982 0.12972,-0.26508c0,-0.09024 -0.03758,-0.16356 -0.1128,-0.21996c-0.07142,-0.06014 -0.16731,-0.10526 -0.28764,-0.13536c-0.11654,-0.03009 -0.24252,-0.04512 -0.37788,-0.04512c-0.22934,0 -0.40418,0.03948 -0.52452,0.11844c-0.11654,0.07896 -0.17484,0.18422 -0.17484,0.31584c0,0.14289 0.05456,0.2538 0.16356,0.33276c0.1128,0.07522 0.27451,0.1128 0.48504,0.1128zM251.929,182.62004c-0.08271,0 -0.15038,-0.0282 -0.20304,-0.0846c-0.04886,-0.0564 -0.08834,-0.13726 -0.11844,-0.24252c-0.03009,-0.15418 -0.0564,-0.35532 -0.07896,-0.60348c-0.01882,-0.25191 -0.0282,-0.52078 -0.0282,-0.80652c0,-0.16166 0.00374,-0.34404 0.01128,-0.54708c0.00754,-0.20304 0.01692,-0.40798 0.0282,-0.61476c0.01502,-0.21058 0.03009,-0.40608 0.04512,-0.58656c0.01882,-0.18048 0.03758,-0.32712 0.0564,-0.43992c0.03009,-0.16546 0.07332,-0.29518 0.12972,-0.38916c0.06014,-0.09778 0.15418,-0.14664 0.282,-0.14664c0.13162,0 0.22749,0.05076 0.28764,0.15228c0.06014,0.09778 0.09024,0.21996 0.09024,0.3666c0,0.16546 -0.01318,0.36096 -0.03948,0.58656c-0.02256,0.2256 -0.05829,0.45495 -0.10716,0.68808l-0.1128,0.13536c0.04138,-0.15792 0.10906,-0.30266 0.20304,-0.43428c0.09398,-0.13162 0.21242,-0.23498 0.35532,-0.3102c0.14289,-0.07896 0.30831,-0.11844 0.49632,-0.11844c0.36849,0 0.66178,0.13162 0.87984,0.3948c0.22186,0.25944 0.33276,0.66552 0.33276,1.21824c0,0.38726 -0.05829,0.71064 -0.17484,0.97008c-0.1128,0.25944 -0.26882,0.45495 -0.46812,0.58656c-0.19551,0.12782 -0.41926,0.19176 -0.67116,0.19176c-0.23688,0 -0.44182,-0.06958 -0.61476,-0.20868c-0.1692,-0.13911 -0.27826,-0.34029 -0.32712,-0.60348l0.07896,0.06204c-0.01502,0.27072 -0.05266,0.47002 -0.1128,0.59784c-0.0564,0.12408 -0.12972,0.18612 -0.21996,0.18612zM252.96112,181.93196c0.18802,0 0.35342,-0.0846 0.49632,-0.2538c0.14289,-0.1692 0.21432,-0.43428 0.21432,-0.79524c0,-0.30082 -0.0564,-0.54518 -0.1692,-0.7332c-0.10906,-0.18802 -0.29328,-0.282 -0.55272,-0.282c-0.21058,0 -0.37978,0.0846 -0.5076,0.2538c-0.12782,0.16546 -0.19176,0.41736 -0.19176,0.75576c0,0.30831 0.06394,0.5621 0.19176,0.7614c0.12782,0.19551 0.30082,0.29328 0.51888,0.29328zM257.47353,182.62004c-0.12787,0 -0.21622,-0.04886 -0.26508,-0.14664c-0.04512,-0.10152 -0.07147,-0.26134 -0.07896,-0.4794l0.0564,0.0282c-0.21058,0.40982 -0.60912,0.61476 -1.19568,0.61476c-0.26698,0 -0.48884,-0.04702 -0.66552,-0.141c-0.17674,-0.09778 -0.30835,-0.2256 -0.3948,-0.38352c-0.08276,-0.16166 -0.12408,-0.33651 -0.12408,-0.52452c0,-0.32338 0.1128,-0.57902 0.3384,-0.76704c0.2256,-0.19176 0.52452,-0.28764 0.89676,-0.28764c0.24437,0 0.45684,0.03574 0.63732,0.10716c0.18048,0.07142 0.3346,0.17109 0.46248,0.29892l-0.09588,-0.01128c-0.02636,-0.37978 -0.10906,-0.65049 -0.24816,-0.81216c-0.13536,-0.16546 -0.32902,-0.24816 -0.58092,-0.24816c-0.14664,0 -0.282,0.02256 -0.40608,0.06768c-0.12408,0.04512 -0.23878,0.09214 -0.34404,0.141c-0.10152,0.04512 -0.1974,0.06768 -0.28764,0.06768c-0.09024,0 -0.16171,-0.03009 -0.21432,-0.09024c-0.04891,-0.06014 -0.07332,-0.13726 -0.07332,-0.23124c0,-0.13536 0.06389,-0.26318 0.19176,-0.38352c0.13157,-0.12034 0.30456,-0.21806 0.51888,-0.29328c0.21432,-0.07522 0.4474,-0.1128 0.69936,-0.1128c0.30456,0 0.56584,0.07332 0.78396,0.21996c0.21806,0.14664 0.38352,0.36096 0.49632,0.64296c0.09773,0.24062 0.16731,0.50949 0.20868,0.80652c0.04133,0.29702 0.06204,0.61476 0.06204,0.95316c0,0.25569 -0.01318,0.45309 -0.03948,0.5922c-0.02636,0.13911 -0.06768,0.23688 -0.12408,0.29328c-0.05266,0.05266 -0.12408,0.07896 -0.21432,0.07896zM256.22709,181.98836c0.12408,0 0.25,-0.01692 0.37788,-0.05076c0.12782,-0.03758 0.23498,-0.09214 0.32148,-0.16356c0.08644,-0.07142 0.12972,-0.15982 0.12972,-0.26508c0,-0.09024 -0.03763,-0.16356 -0.1128,-0.21996c-0.07147,-0.06014 -0.16736,-0.10526 -0.28764,-0.13536c-0.1166,-0.03009 -0.24252,-0.04512 -0.37788,-0.04512c-0.2294,0 -0.40423,0.03948 -0.52452,0.11844c-0.1166,0.07896 -0.17484,0.18422 -0.17484,0.31584c0,0.14289 0.05451,0.2538 0.16356,0.33276c0.1128,0.07522 0.27446,0.1128 0.48504,0.1128zM259.11461,179.05556c0.12034,0 0.20135,0.04886 0.24237,0.14664c0.04512,0.09778 0.06768,0.24252 0.06768,0.43428c0,0.04512 -0.00359,0.09398 -0.01128,0.14664c-0.00359,0.04886 -0.01128,0.09398 -0.02256,0.13536l-0.01128,-0.1128c0.09024,-0.24442 0.2297,-0.43428 0.41736,-0.56964c0.18817,-0.13911 0.38762,-0.20868 0.59784,-0.20868c0.23329,0 0.4271,0.06578 0.58092,0.1974c0.15792,0.13162 0.27482,0.31584 0.34968,0.55272c0.07896,0.23688 0.11844,0.51698 0.11844,0.84036c0,0.19929 -0.00923,0.39669 -0.0282,0.5922c-0.01487,0.19176 -0.03743,0.36849 -0.06768,0.53016c-0.02615,0.15792 -0.0564,0.28764 -0.09024,0.38916c-0.04512,0.12782 -0.10306,0.22371 -0.17484,0.28764c-0.07127,0.06014 -0.15587,0.09024 -0.2538,0.09024c-0.09742,0 -0.17279,-0.03574 -0.2256,-0.10716c-0.05229,-0.07142 -0.07896,-0.16731 -0.07896,-0.28764c0,-0.12782 0.00974,-0.282 0.0282,-0.46248c0.01897,-0.18422 0.03589,-0.37035 0.05076,-0.55836c0.01897,-0.19176 0.0282,-0.36471 0.0282,-0.51888c0,-0.52642 -0.17279,-0.7896 -0.51888,-0.7896c-0.18407,0 -0.3384,0.08271 -0.46248,0.24816c-0.12408,0.16166 -0.20663,0.39291 -0.24816,0.69372c-0.01128,0.10152 -0.01692,0.22749 -0.01692,0.37788c0,0.15038 0,0.30082 0,0.4512c0.00411,0.14664 0,0.27072 -0.01128,0.37224c-0.01487,0.2256 -0.05794,0.38726 -0.12972,0.48504c-0.06753,0.09778 -0.16151,0.14664 -0.28185,0.14664c-0.13911,0 -0.24442,-0.06394 -0.31584,-0.19176c-0.07142,-0.13162 -0.10716,-0.35158 -0.10716,-0.65988c0,-0.15792 0.00374,-0.33466 0.01128,-0.53016c0.00754,-0.19551 0.01692,-0.39106 0.0282,-0.58656c0.01502,-0.19929 0.03194,-0.37978 0.05076,-0.54144c0.03758,-0.30456 0.09214,-0.54518 0.16356,-0.72192c0.07142,-0.18048 0.17858,-0.27072 0.32148,-0.27072z" fill="#000000" stroke="none"/></g></g></svg>