<svg version="1.1" xmlns="http://www.w3.org/2000/svg" xmlns:xlink="http://www.w3.org/1999/xlink" width="125.51213" height="96.60019" viewBox="0,0,125.51213,96.60019"><g transform="translate(-177.24394,-131.69991)"><g data-paper-data="{&quot;isPaintingLayer&quot;:true}" fill-rule="nonzero" stroke-linejoin="miter" stroke-miterlimit="10" stroke-dasharray="" stroke-dashoffset="0" style="mix-blend-mode: normal"><path d="M298.80757,216.48133h-109.55692v-73.56442h72.04739z" fill="none" stroke="#000000" stroke-width="2" stroke-linecap="round"/><path d="M217.01361,138.9968c-0.20848,0 -0.44224,-0.01264 -0.70126,-0.03791c-0.25271,-0.02527 -0.4991,-0.07265 -0.73917,-0.14215c-0.23375,-0.07581 -0.4296,-0.17689 -0.58754,-0.30325c-0.15162,-0.13267 -0.22744,-0.30325 -0.22744,-0.51173c0,-0.2148 0.06634,-0.3759 0.19901,-0.4833c0.13899,-0.1074 0.36327,-0.1611 0.67283,-0.1611c0.2148,0 0.45487,0.02843 0.72021,0.08529c0.27166,0.05686 0.53068,0.08529 0.77707,0.08529c0.36642,0 0.63492,-0.05686 0.8055,-0.17058c0.17689,-0.11372 0.26534,-0.2685 0.26534,-0.46435c0,-0.12004 -0.03475,-0.22744 -0.10424,-0.3222c-0.06318,-0.09476 -0.19269,-0.18953 -0.38854,-0.28429c-0.19585,-0.09476 -0.48962,-0.19901 -0.88131,-0.31272c-0.44855,-0.12004 -0.81182,-0.25271 -1.0898,-0.39801c-0.27798,-0.15162 -0.48014,-0.33168 -0.6065,-0.54016c-0.12635,-0.20848 -0.18953,-0.45487 -0.18953,-0.73917c0,-0.34747 0.06002,-0.64756 0.18005,-0.90027c0.12635,-0.25902 0.29377,-0.47698 0.50225,-0.65388c0.20848,-0.18321 0.44224,-0.32852 0.70126,-0.43592c0.25902,-0.1074 0.52121,-0.18637 0.78655,-0.23691c0.27166,-0.05054 0.53068,-0.07581 0.77707,-0.07581c0.54332,0 0.98556,0.08529 1.32671,0.25587c0.34747,0.17058 0.52121,0.39801 0.52121,0.68231c0,0.20217 -0.06634,0.36642 -0.19901,0.49278c-0.12635,0.12635 -0.3222,0.18953 -0.58754,0.18953c-0.11372,0 -0.24955,-0.01579 -0.40749,-0.04738c-0.15794,-0.03159 -0.33168,-0.06318 -0.52121,-0.09476c-0.18953,-0.03159 -0.39801,-0.04738 -0.62545,-0.04738c-0.38538,0 -0.68231,0.06002 -0.89079,0.18005c-0.20848,0.12004 -0.31272,0.31272 -0.31272,0.57807c0,0.11372 0.02843,0.21796 0.08529,0.31272c0.06318,0.09476 0.19269,0.19269 0.38854,0.29377c0.19585,0.10108 0.49594,0.21796 0.90027,0.35063c0.4991,0.15162 0.89079,0.31904 1.17508,0.50225c0.28429,0.17689 0.48646,0.37906 0.6065,0.6065c0.12004,0.22744 0.18005,0.4833 0.18005,0.7676c0,0.39169 -0.1074,0.73917 -0.3222,1.04241c-0.20848,0.29693 -0.50225,0.52752 -0.88131,0.69178c-0.37274,0.16426 -0.80866,0.24639 -1.30776,0.24639zM221.38409,131.69991c0.25271,0 0.43276,0.06949 0.54016,0.20848c0.11372,0.13899 0.17058,0.30009 0.17058,0.4833c0,0.22744 -0.06949,0.40433 -0.20848,0.53068c-0.13267,0.12004 -0.3222,0.18005 -0.56859,0.18005c-0.24007,0 -0.42012,-0.06634 -0.54016,-0.19901c-0.12004,-0.13899 -0.18005,-0.30009 -0.18005,-0.4833c0,-0.24007 0.07265,-0.42012 0.21796,-0.54016c0.14531,-0.12004 0.33484,-0.18005 0.56859,-0.18005zM221.44095,133.81316c0.20217,0 0.36011,0.18953 0.47382,0.56859c0.12004,0.37906 0.18005,0.9824 0.18005,1.81001c0,1.01714 -0.07265,1.74999 -0.21796,2.19855c-0.14531,0.44855 -0.36642,0.67283 -0.66335,0.67283c-0.22744,0 -0.39485,-0.16426 -0.50225,-0.49278c-0.1074,-0.33484 -0.1611,-0.91606 -0.1611,-1.74367c0,-1.01714 0.08213,-1.7721 0.24639,-2.26488c0.17058,-0.4991 0.38538,-0.74864 0.6444,-0.74864zM225.65001,133.03609c0.56227,0 0.9666,0.08213 1.21299,0.24639c0.24639,0.16426 0.36958,0.3759 0.36958,0.63492c0,0.15162 -0.0537,0.27798 -0.1611,0.37906c-0.10108,0.09476 -0.24639,0.14215 -0.43592,0.14215c-0.19585,0 -0.40117,-0.02843 -0.61597,-0.08529c-0.20848,-0.05686 -0.45171,-0.08529 -0.72969,-0.08529c-0.3222,0 -0.56227,0.06318 -0.72021,0.18953c-0.15794,0.12635 -0.23691,0.28745 -0.23691,0.4833c0,0.18321 0.06949,0.32852 0.20848,0.43592c0.14531,0.10108 0.42012,0.17689 0.82445,0.22744c0.44855,0.05054 0.81814,0.13267 1.10875,0.24639c0.29693,0.1074 0.51805,0.27166 0.66335,0.49278c0.14531,0.2148 0.21796,0.51173 0.21796,0.89079c0,0.60018 -0.21164,1.04557 -0.63492,1.33619c-0.42328,0.29061 -1.00767,0.43592 -1.75315,0.43592c-0.47382,0 -0.84973,-0.03791 -1.1277,-0.11372c-0.27798,-0.07581 -0.48014,-0.18321 -0.6065,-0.3222c-0.12004,-0.13899 -0.18005,-0.30325 -0.18005,-0.49278c0,-0.16426 0.0537,-0.29061 0.1611,-0.37906c0.11372,-0.09476 0.24639,-0.14215 0.39801,-0.14215c0.14531,0 0.30009,0.01895 0.46435,0.05686c0.16426,0.03159 0.33799,0.06634 0.52121,0.10424c0.18321,0.03791 0.37274,0.05686 0.56859,0.05686c0.63177,0 0.94765,-0.19585 0.94765,-0.58754c0,-0.13267 -0.03159,-0.24007 -0.09476,-0.3222c-0.06318,-0.08213 -0.17689,-0.14847 -0.34115,-0.19901c-0.16426,-0.05686 -0.40433,-0.10108 -0.72021,-0.13267c-0.37906,-0.03791 -0.70758,-0.10108 -0.98556,-0.18953c-0.27798,-0.09476 -0.49278,-0.24639 -0.6444,-0.45487c-0.15162,-0.2148 -0.22744,-0.50857 -0.22744,-0.88131c0,-0.58754 0.22112,-1.06137 0.66335,-1.42147c0.44224,-0.36642 1.07084,-0.54964 1.88582,-0.54964zM229.14857,131.69991c0.25271,0 0.43276,0.06949 0.54016,0.20848c0.11372,0.13899 0.17058,0.30009 0.17058,0.4833c0,0.22744 -0.06949,0.40433 -0.20848,0.53068c-0.13267,0.12004 -0.3222,0.18005 -0.56859,0.18005c-0.24007,0 -0.42012,-0.06634 -0.54016,-0.19901c-0.12004,-0.13899 -0.18005,-0.30009 -0.18005,-0.4833c0,-0.24007 0.07265,-0.42012 0.21796,-0.54016c0.14531,-0.12004 0.33484,-0.18005 0.56859,-0.18005zM229.20543,133.81316c0.20217,0 0.36011,0.18953 0.47382,0.56859c0.12004,0.37906 0.18005,0.9824 0.18005,1.81001c0,1.01714 -0.07265,1.74999 -0.21796,2.19855c-0.14531,0.44855 -0.36642,0.67283 -0.66335,0.67283c-0.22744,0 -0.39485,-0.16426 -0.50225,-0.49278c-0.1074,-0.33484 -0.1611,-0.91606 -0.1611,-1.74367c0,-1.01714 0.08213,-1.7721 0.24639,-2.26488c0.17058,-0.4991 0.38538,-0.74864 0.6444,-0.74864zM237.05528,139.06314c-0.2148,0 -0.36327,-0.08213 -0.4454,-0.24639c-0.07581,-0.17058 -0.12004,-0.43908 -0.13267,-0.8055l0.09476,0.04738c-0.35379,0.68862 -1.02346,1.03294 -2.00902,1.03294c-0.44855,0 -0.8213,-0.07897 -1.11823,-0.23691c-0.29693,-0.16426 -0.51805,-0.37906 -0.66335,-0.6444c-0.13899,-0.27166 -0.20848,-0.56543 -0.20848,-0.88131c0,-0.54332 0.18953,-0.97292 0.56859,-1.2888c0.37906,-0.3222 0.88131,-0.4833 1.50676,-0.4833c0.41065,0 0.7676,0.06002 1.07084,0.18005c0.30325,0.12004 0.56227,0.28745 0.77707,0.50225l-0.1611,-0.01895c-0.04422,-0.63808 -0.18321,-1.09296 -0.41697,-1.36461c-0.22744,-0.27798 -0.5528,-0.41697 -0.97608,-0.41697c-0.24639,0 -0.47382,0.03791 -0.68231,0.11372c-0.20848,0.07581 -0.40117,0.15478 -0.57807,0.23691c-0.17058,0.07581 -0.33168,0.11372 -0.4833,0.11372c-0.15162,0 -0.27166,-0.05054 -0.36011,-0.15162c-0.08213,-0.10108 -0.12319,-0.23059 -0.12319,-0.38854c0,-0.22744 0.1074,-0.44224 0.3222,-0.6444c0.22112,-0.20217 0.51173,-0.36642 0.87184,-0.49278c0.36011,-0.12635 0.7518,-0.18953 1.17508,-0.18953c0.51173,0 0.95081,0.12319 1.31723,0.36958c0.36642,0.24639 0.6444,0.6065 0.83393,1.08032c0.16426,0.40433 0.28114,0.85604 0.35063,1.35514c0.06949,0.4991 0.10424,1.03294 0.10424,1.60153c0,0.4296 -0.02211,0.76128 -0.06634,0.99503c-0.04422,0.23375 -0.11372,0.39801 -0.20848,0.49278c-0.08845,0.08845 -0.20848,0.13267 -0.36011,0.13267zM234.96098,138.00177c0.20848,0 0.42012,-0.02843 0.63492,-0.08529c0.2148,-0.06318 0.39485,-0.15478 0.54016,-0.27482c0.14531,-0.12004 0.21796,-0.2685 0.21796,-0.4454c0,-0.15162 -0.06318,-0.27482 -0.18953,-0.36958c-0.12004,-0.10108 -0.28114,-0.17689 -0.4833,-0.22744c-0.19585,-0.05054 -0.40749,-0.07581 -0.63492,-0.07581c-0.38538,0 -0.67915,0.06634 -0.88131,0.19901c-0.19585,0.13267 -0.29377,0.30957 -0.29377,0.53068c0,0.24007 0.09161,0.42644 0.27482,0.55911c0.18953,0.12635 0.46119,0.18953 0.81498,0.18953z" fill="#0c0c0c" stroke="none" stroke-width="1" stroke-linecap="butt"/><path d="M277.18143,160.30232c-0.09871,-0.18353 -0.19822,-0.39533 -0.2993,-0.63532c-0.09792,-0.23439 -0.17295,-0.47375 -0.22586,-0.71808c-0.04422,-0.24173 -0.04817,-0.46206 -0.01185,-0.66106c0.04501,-0.1964 0.15952,-0.34408 0.34273,-0.44303c0.18874,-0.10195 0.36248,-0.12004 0.51963,-0.05417c0.1611,0.07139 0.3143,0.24331 0.46119,0.51576c0.10187,0.18913 0.19111,0.41389 0.26692,0.67449c0.07897,0.26605 0.17689,0.50755 0.29377,0.72448c0.17374,0.32252 0.35142,0.53187 0.53226,0.62805c0.184,0.10179 0.36248,0.10614 0.53463,0.01327c0.10582,-0.05702 0.184,-0.13851 0.23375,-0.24465c0.0537,-0.10061 0.07581,-0.25958 0.06634,-0.4769c-0.00948,-0.21741 -0.05765,-0.52547 -0.14294,-0.92419c-0.1074,-0.45179 -0.16268,-0.83448 -0.16663,-1.14816c0.00158,-0.31667 0.06397,-0.58004 0.18716,-0.79018c0.12398,-0.21014 0.31036,-0.38269 0.56069,-0.51757c0.30641,-0.16489 0.5986,-0.25444 0.87815,-0.26874c0.28824,-0.01169 0.55911,0.03222 0.81419,0.1318c0.25981,0.09658 0.4991,0.23344 0.71626,0.41041c0.21717,0.17705 0.41144,0.37037 0.58201,0.57996c0.17295,0.21512 0.31825,0.43118 0.43513,0.64803c0.25744,0.47825 0.39248,0.90801 0.40433,1.28928c0.015,0.3868 -0.10266,0.64764 -0.353,0.78252c-0.17847,0.09595 -0.35458,0.11546 -0.52831,0.05868c-0.17137,-0.05125 -0.31983,-0.19372 -0.4454,-0.42723c-0.05449,-0.10013 -0.10503,-0.2272 -0.15241,-0.38119c-0.04659,-0.15399 -0.10108,-0.32196 -0.16347,-0.50375c-0.06239,-0.18179 -0.14689,-0.37282 -0.25508,-0.57301c-0.18321,-0.33926 -0.37669,-0.57214 -0.58122,-0.69865c-0.20453,-0.12659 -0.42407,-0.12691 -0.65704,-0.00103c-0.10029,0.05402 -0.17847,0.12849 -0.23533,0.22349c-0.05291,0.10061 -0.07818,0.26108 -0.07423,0.48141c0.00395,0.22041 0.04343,0.54 0.11925,0.95886c0.10266,0.51126 0.14136,0.93549 0.1153,1.27269c-0.02132,0.3342 -0.10266,0.60807 -0.24639,0.82169c-0.14294,0.21354 -0.33957,0.38783 -0.58991,0.52271c-0.3451,0.1859 -0.70205,0.25618 -1.07084,0.21101c-0.36011,-0.04257 -0.70284,-0.19174 -1.02662,-0.44745c-0.32141,-0.25018 -0.60097,-0.59489 -0.83788,-1.0342zM285.67868,160.68675c0.12004,0.22246 0.14373,0.41396 0.07265,0.57443c-0.0687,0.16608 -0.18321,0.29251 -0.34431,0.37945c-0.20059,0.10795 -0.38933,0.1307 -0.56622,0.06831c-0.169,-0.05978 -0.31114,-0.19814 -0.42802,-0.41499c-0.11451,-0.21133 -0.14136,-0.40133 -0.08134,-0.56993c0.06555,-0.1716 0.17847,-0.30088 0.33957,-0.38783c0.21164,-0.11395 0.40433,-0.13543 0.57886,-0.06444c0.17532,0.07092 0.31746,0.20927 0.42881,0.41499zM283.84498,161.73967c0.09634,0.17792 0.00474,0.40686 -0.27561,0.68689c-0.2764,0.28548 -0.77865,0.62466 -1.50755,1.01738c-0.89553,0.48267 -1.57468,0.76649 -2.03824,0.85138c-0.46435,0.08497 -0.76681,-0.00324 -0.90737,-0.26463c-0.10819,-0.20019 -0.04264,-0.42549 0.19506,-0.67591c0.24402,-0.25342 0.73048,-0.57649 1.45859,-0.96921c0.89553,-0.48267 1.59916,-0.76862 2.11089,-0.85794c0.52042,-0.08663 0.84183,-0.01603 0.96423,0.21204zM286.52683,165.07587c0.26692,0.49491 0.38617,0.88976 0.35853,1.18464c-0.02764,0.2948 -0.15557,0.50368 -0.3838,0.62663c-0.13346,0.07194 -0.27008,0.08458 -0.40986,0.03806c-0.13109,-0.04407 -0.24165,-0.14949 -0.33168,-0.31628c-0.09319,-0.17239 -0.16584,-0.36666 -0.21717,-0.58265c-0.04896,-0.21054 -0.13978,-0.43813 -0.27166,-0.68278c-0.15241,-0.28366 -0.3222,-0.46498 -0.50857,-0.54403c-0.18637,-0.07913 -0.36563,-0.07218 -0.53779,0.02077c-0.1611,0.08695 -0.25587,0.21709 -0.28429,0.39035c-0.02053,0.17587 0.04343,0.45377 0.19032,0.83369c0.169,0.41878 0.27166,0.78307 0.30957,1.09288c0.04659,0.31233 0.00711,0.58494 -0.11925,0.81774c-0.12004,0.2298 -0.34668,0.43466 -0.68073,0.61455c-0.52831,0.28477 -1.0203,0.30988 -1.47675,0.07518c-0.45724,-0.2347 -0.86236,-0.6801 -1.21615,-1.33634c-0.22507,-0.41704 -0.36958,-0.76594 -0.43513,-1.0466c-0.06476,-0.28066 -0.06634,-0.5096 -0.00395,-0.68673c0.06555,-0.17168 0.18163,-0.30246 0.34826,-0.39233c0.14452,-0.07794 0.28114,-0.09066 0.40986,-0.03806c0.13741,0.05512 0.24244,0.14941 0.3143,0.28287c0.0687,0.12785 0.12556,0.27316 0.17058,0.43568c0.04975,0.1596 0.10187,0.32899 0.15557,0.50826c0.05291,0.17926 0.12635,0.35513 0.21954,0.52752c0.30009,0.55611 0.62229,0.74122 0.9666,0.55532c0.11688,-0.06294 0.19664,-0.14175 0.23849,-0.23628c0.04264,-0.09461 0.04738,-0.22617 0.01343,-0.39477c-0.02764,-0.17152 -0.10266,-0.40386 -0.22507,-0.69692c-0.1461,-0.35166 -0.24639,-0.67078 -0.30088,-0.95744c-0.04817,-0.28966 -0.01658,-0.55066 0.09476,-0.78307c0.11767,-0.23541 0.33957,-0.44153 0.66809,-0.61842c0.51726,-0.27885 1.03926,-0.30901 1.56599,-0.09066c0.53226,0.21543 0.99187,0.68183 1.37883,1.3992zM289.36267,167.52136c0.12004,0.22246 0.14452,0.41389 0.07344,0.57435c-0.0687,0.16608 -0.18321,0.29259 -0.3451,0.37953c-0.1998,0.10787 -0.38854,0.1307 -0.56543,0.06831c-0.169,-0.05986 -0.31193,-0.19822 -0.42881,-0.41507c-0.11372,-0.21133 -0.14057,-0.40125 -0.08134,-0.56993c0.06555,-0.1716 0.17926,-0.30088 0.34036,-0.38783c0.21164,-0.11388 0.40433,-0.13536 0.57886,-0.06444c0.17453,0.07092 0.31746,0.20927 0.42802,0.41507zM287.52976,168.5742c0.09634,0.17792 0.00395,0.40694 -0.27561,0.68689c-0.2764,0.28556 -0.77944,0.62466 -1.50755,1.01738c-0.89553,0.48267 -1.57547,0.76649 -2.03902,0.85146c-0.46356,0.08489 -0.76602,-0.00332 -0.90658,-0.26463c-0.10819,-0.20019 -0.04343,-0.42557 0.19506,-0.67599c0.24402,-0.25342 0.72969,-0.57649 1.45859,-0.96921c0.89553,-0.48267 1.59837,-0.76862 2.1101,-0.85786c0.52042,-0.08671 0.84183,-0.01603 0.96502,0.21196zM287.01487,178.64186c-0.06318,-0.11672 -0.09003,-0.23889 -0.07976,-0.36642c0.01343,-0.12193 0.08134,-0.24844 0.20453,-0.37938c0.12872,-0.13401 0.32931,-0.2745 0.60176,-0.42139c0.39485,-0.21283 0.82209,-0.43236 1.2817,-0.65846c0.46514,-0.22917 0.9358,-0.45424 1.41279,-0.67528c0.48488,-0.21843 0.9516,-0.43071 1.40015,-0.63674l-0.01737,-0.03333c-0.91132,0.23999 -1.63548,0.36129 -2.17249,0.36366c-0.53147,-0.00055 -0.87105,-0.13717 -1.01793,-0.40962c-0.09003,-0.16687 -0.09871,-0.36303 -0.02606,-0.58857c0.08055,-0.22293 0.26534,-0.49862 0.55516,-0.8269c0.29772,-0.32575 0.71942,-0.73593 1.26353,-1.23036l-0.01816,-0.0334c-0.28508,0.17555 -0.5907,0.36169 -0.91527,0.55824c-0.32457,0.19656 -0.65388,0.39177 -0.98713,0.58581c-0.3301,0.19956 -0.64677,0.38459 -0.94923,0.55501c-0.30009,0.17603 -0.56938,0.32844 -0.80866,0.4574c-0.20611,0.11087 -0.40512,0.1934 -0.5986,0.24734c-0.19032,0.05962 -0.3609,0.0691 -0.51252,0.02851c-0.14768,-0.03498 -0.26534,-0.13314 -0.35221,-0.2944c-0.11688,-0.21685 -0.11767,-0.42463 -0.00237,-0.62324c0.12083,-0.20161 0.38459,-0.41183 0.7905,-0.63066c0.23928,-0.12888 0.52042,-0.27324 0.84341,-0.433c0.33168,-0.15723 0.67283,-0.31612 1.02425,-0.47675c0.35616,-0.16363 0.70205,-0.31422 1.03689,-0.45171c0.34115,-0.14049 0.64124,-0.25579 0.90106,-0.34573c0.4146,-0.13709 0.73048,-0.18929 0.94923,-0.15644c0.22428,0.02985 0.38933,0.14207 0.49436,0.33673c0.08687,0.16126 0.0995,0.35876 0.0387,0.59236c-0.05449,0.23067 -0.2069,0.52089 -0.45645,0.87057c-0.24323,0.34668 -0.61044,0.77068 -1.10085,1.27198l0.01737,0.0334c0.69652,-0.14586 1.26906,-0.23557 1.71761,-0.26913c0.45408,-0.03664 0.80234,-0.0233 1.04478,0.03988c0.24165,0.06326 0.3988,0.16157 0.47067,0.29503c0.11451,0.21133 0.11767,0.4176 0.01106,0.61874c-0.10187,0.19814 -0.28272,0.41436 -0.54411,0.64851c-0.30009,0.26929 -0.6673,0.55335 -1.10164,0.85225c-0.43434,0.2989 -0.88763,0.58983 -1.35988,0.87286c-0.46277,0.28564 -0.90343,0.54087 -1.32039,0.76578c-0.47856,0.25776 -0.85525,0.37116 -1.13007,0.34005c-0.26929,-0.03412 -0.46593,-0.16513 -0.58833,-0.3932zM294.85666,177.71206c0.12004,0.22246 0.14452,0.41389 0.07265,0.57443c-0.06791,0.166 -0.18321,0.29251 -0.34431,0.37945c-0.1998,0.10795 -0.38854,0.1307 -0.56622,0.06831c-0.16821,-0.05978 -0.31114,-0.19814 -0.42802,-0.41507c-0.11372,-0.21125 -0.14136,-0.40125 -0.08134,-0.56985c0.06555,-0.1716 0.17847,-0.30088 0.34036,-0.38783c0.21085,-0.11395 0.40433,-0.13543 0.57886,-0.06452c0.17453,0.07099 0.31746,0.20935 0.42802,0.41507zM293.02375,178.7649c0.09555,0.178 0.00395,0.40694 -0.27561,0.68689c-0.27719,0.28556 -0.77944,0.62474 -1.50834,1.01746c-0.89474,0.48267 -1.57468,0.76641 -2.03824,0.85138c-0.46356,0.08497 -0.76602,-0.00324 -0.90737,-0.26463c-0.1074,-0.20019 -0.04264,-0.42549 0.19585,-0.67591c0.24323,-0.25342 0.72969,-0.57657 1.4578,-0.96929c0.89553,-0.48267 1.59916,-0.76862 2.11089,-0.85786c0.52042,-0.08671 0.84183,-0.01603 0.96502,0.21196zM293.10746,180.7777c0.53384,-0.28785 0.94449,-0.44461 1.23194,-0.47043c0.29298,-0.02882 0.48883,0.04849 0.58833,0.23202c0.07739,0.1446 0.07818,0.29156 0.00079,0.44097c-0.07186,0.14633 -0.18637,0.28698 -0.34352,0.42186c-0.15162,0.1318 -0.31588,0.24576 -0.49357,0.34171l-0.00632,-0.0507c0.35142,-0.06736 0.68784,-0.06223 1.01004,0.01548c0.32457,0.08331 0.56227,0.264 0.71153,0.54206c0.17689,0.32804 0.17137,0.64345 -0.01737,0.94607c-0.18242,0.29962 -0.47461,0.5573 -0.875,0.77312c-0.53384,0.28785 -0.93896,0.42755 -1.21694,0.4191c-0.27719,-0.00845 -0.47067,-0.11553 -0.58201,-0.32125c-0.08055,-0.15012 -0.07976,-0.29432 0.00395,-0.4326c0.08608,-0.13267 0.29061,-0.27182 0.61439,-0.41752c0.34036,-0.15462 0.55753,-0.29701 0.6523,-0.42707c0.09555,-0.13014 0.10661,-0.26195 0.03475,-0.39541c-0.08687,-0.16126 -0.26218,-0.23928 -0.52437,-0.23399c-0.25429,0.00782 -0.5291,0.09113 -0.82366,0.25002c-0.11688,0.06294 -0.25665,0.15636 -0.41933,0.28003c-0.16347,0.12375 -0.34115,0.25926 -0.53463,0.40654c-0.18795,0.14428 -0.37669,0.2858 -0.5678,0.42455c-0.19111,0.13875 -0.37195,0.2546 -0.5449,0.34747c-0.30562,0.16489 -0.55043,0.23604 -0.73522,0.21346c-0.18479,-0.02259 -0.32299,-0.12004 -0.41618,-0.29243c-0.10503,-0.19466 -0.12477,-0.3778 -0.05923,-0.5494c0.07107,-0.1746 0.23296,-0.36619 0.48725,-0.57467c0.23138,-0.18242 0.51094,-0.39027 0.83709,-0.62363c0.32615,-0.23336 0.66572,-0.46285 1.01714,-0.68855c0.35221,-0.22562 0.67599,-0.41791 0.97055,-0.5768zM298.27768,184.05783c0.12004,0.22246 0.14452,0.41396 0.07265,0.57443c-0.06791,0.16608 -0.18321,0.29251 -0.34431,0.37945c-0.1998,0.10795 -0.38854,0.1307 -0.56622,0.06831c-0.16821,-0.05978 -0.31114,-0.19814 -0.42802,-0.41499c-0.11372,-0.21133 -0.14136,-0.40133 -0.08134,-0.56993c0.06555,-0.1716 0.17847,-0.30088 0.34036,-0.38783c0.21085,-0.11395 0.40433,-0.13543 0.57886,-0.06444c0.17453,0.07092 0.31746,0.20927 0.42802,0.41499zM296.44477,185.11075c0.09555,0.17792 0.00395,0.40686 -0.27561,0.68689c-0.27719,0.28548 -0.77944,0.62466 -1.50834,1.01738c-0.89474,0.48267 -1.57468,0.76649 -2.03824,0.85138c-0.46435,0.08497 -0.76602,-0.00324 -0.90737,-0.26463c-0.1074,-0.20019 -0.04264,-0.42549 0.19585,-0.67591c0.24323,-0.25342 0.72969,-0.57649 1.4578,-0.96921c0.89553,-0.48267 1.59916,-0.76862 2.11089,-0.85794c0.52042,-0.08663 0.84183,-0.01603 0.96502,0.21204zM298.41351,187.20537c0.09555,0.17792 0.08766,0.33649 -0.02369,0.47556c-0.10819,0.14467 -0.30483,0.29346 -0.58833,0.44634c-0.06634,0.03601 -0.14215,0.06942 -0.22586,0.10029c-0.07502,0.0334 -0.14768,0.05828 -0.21796,0.07455l0.15794,-0.10661c0.43355,-0.06144 0.82524,-0.00703 1.17508,0.16307c0.35537,0.1671 0.61755,0.40638 0.78497,0.71784c0.18637,0.34479 0.24323,0.68365 0.17137,1.01651c-0.0687,0.33855 -0.24797,0.65783 -0.53858,0.95792c-0.28745,0.30562 -0.67046,0.58738 -1.14823,0.84522c-0.29456,0.15889 -0.59465,0.30238 -0.89869,0.43047c-0.29535,0.13062 -0.57491,0.23818 -0.83788,0.3226c-0.25429,0.08695 -0.47067,0.14594 -0.64756,0.17682c-0.22507,0.03522 -0.41302,0.02543 -0.56464,-0.02922c-0.1461,-0.05773 -0.25823,-0.15889 -0.33563,-0.30348c-0.07818,-0.1446 -0.08529,-0.28429 -0.02211,-0.4191c0.06397,-0.1348 0.18479,-0.25018 0.36248,-0.34613c0.18953,-0.10187 0.42486,-0.21093 0.70679,-0.32702c0.28745,-0.11909 0.57649,-0.24244 0.86631,-0.37014c0.29851,-0.12509 0.56227,-0.24907 0.78971,-0.37195c0.77865,-0.41973 1.02978,-0.88542 0.75417,-1.39699c-0.14689,-0.27253 -0.39169,-0.43458 -0.73522,-0.48614c-0.33878,-0.05465 -0.74627,0.00742 -1.22405,0.18606c-0.15952,0.06428 -0.34984,0.15636 -0.57254,0.27624c-0.2227,0.11996 -0.44461,0.23983 -0.6673,0.35979c-0.21401,0.12248 -0.40038,0.21583 -0.5599,0.28011c-0.3451,0.15763 -0.61913,0.22262 -0.82051,0.1949c-0.19822,-0.02219 -0.34589,-0.12225 -0.44145,-0.30017c-0.11135,-0.2058 -0.10029,-0.41246 0.03159,-0.62008c0.13741,-0.21054 0.43434,-0.43876 0.89079,-0.6846c0.23296,-0.12588 0.49752,-0.26124 0.79287,-0.40599c0.29535,-0.14483 0.59149,-0.28682 0.89,-0.42597c0.30641,-0.1367 0.58675,-0.25555 0.84104,-0.35663c0.48014,-0.18724 0.87973,-0.29851 1.19799,-0.33373c0.32378,-0.03822 0.54332,0.04833 0.65704,0.25966zM296.62166,195.98408c-0.28193,-0.52271 -0.31036,-1.05608 -0.08687,-1.60003c0.22902,-0.54695 0.75496,-1.04226 1.57784,-1.48599c0.87894,-0.47367 1.60627,-0.66138 2.18354,-0.5633c0.57649,0.09816 1.00451,0.40583 1.28327,0.92301c0.16505,0.30585 0.23217,0.61755 0.20217,0.93501c-0.02922,0.31754 -0.14136,0.63611 -0.33484,0.95586l-0.15241,-0.00379c0.0687,-0.05868 0.14452,-0.11751 0.22744,-0.17658c0.08292,-0.05915 0.14689,-0.10069 0.19111,-0.12462c0.22823,-0.12296 0.42249,-0.18124 0.58438,-0.17484c0.16979,0.00884 0.29772,0.09398 0.38459,0.25523c0.09634,0.17792 0.09871,0.35592 0.0079,0.534c-0.08687,0.18361 -0.24955,0.37511 -0.48646,0.57467c-0.23375,0.21914 -0.54806,0.46774 -0.9437,0.74564c-0.39012,0.2749 -0.79918,0.52776 -1.22721,0.75859c-0.53384,0.28777 -0.99266,0.50968 -1.37488,0.66557c-0.38222,0.15597 -0.71705,0.25389 -1.00451,0.29385c-0.28666,0.03988 -0.55832,0.03554 -0.81419,-0.01311c-0.41776,-0.08324 -0.80392,-0.27348 -1.1585,-0.57064c-0.35616,-0.28864 -0.66651,-0.67765 -0.93028,-1.16703c-0.18874,-0.35039 -0.3072,-0.64914 -0.35379,-0.89648c-0.05291,-0.24426 -0.04896,-0.44366 0.01106,-0.5982c0.05765,-0.14594 0.1532,-0.25484 0.28666,-0.32678c0.13899,-0.07494 0.27719,-0.09903 0.41302,-0.0721c0.13109,0.02985 0.23849,0.12264 0.32299,0.27837c0.07423,0.13907 0.13899,0.31233 0.19348,0.51979c0.05765,0.21306 0.15557,0.44753 0.29298,0.70331c0.2914,0.53945 0.62466,0.85138 0.99977,0.93596c0.37353,0.09311 0.79603,0.01224 1.26906,-0.2426c0.12793,-0.06894 0.27324,-0.15826 0.43671,-0.26787l0.02132,0.13923c-0.43039,0.05291 -0.82761,0.0015 -1.19167,-0.15407c-0.35853,-0.15857 -0.63492,-0.41855 -0.82998,-0.78007zM297.81886,195.74795c0.09555,0.17792 0.23928,0.33041 0.4296,0.4574c0.19032,0.12698 0.42565,0.1904 0.70521,0.19032c0.28035,-0.00016 0.60334,-0.09919 0.97055,-0.29701c0.43908,-0.23683 0.74233,-0.53305 0.90974,-0.88874c0.16742,-0.35568 0.15004,-0.71982 -0.05054,-1.0924c-0.17374,-0.32252 -0.42407,-0.49294 -0.74943,-0.51118c-0.32536,-0.01824 -0.73601,0.10606 -1.23115,0.3729c-0.47225,0.25484 -0.80155,0.52926 -0.98792,0.82327c-0.18005,0.29109 -0.17926,0.60626 0.00395,0.94544z" fill="#0c0c0c" stroke="none" stroke-width="1" stroke-linecap="butt"/><path d="M220.96215,228.23376c-0.20848,0 -0.44224,-0.01264 -0.70126,-0.03791c-0.25271,-0.02527 -0.4991,-0.07265 -0.73917,-0.14215c-0.23375,-0.07581 -0.4296,-0.17689 -0.58754,-0.30325c-0.15162,-0.13267 -0.22744,-0.30325 -0.22744,-0.51173c0,-0.2148 0.06634,-0.3759 0.19901,-0.4833c0.13899,-0.1074 0.36327,-0.1611 0.67283,-0.1611c0.2148,0 0.45487,0.02843 0.72021,0.08529c0.27166,0.05686 0.53068,0.08529 0.77707,0.08529c0.36642,0 0.63492,-0.05686 0.8055,-0.17058c0.17689,-0.11372 0.26534,-0.2685 0.26534,-0.46435c0,-0.12004 -0.03475,-0.22744 -0.10424,-0.3222c-0.06318,-0.09476 -0.19269,-0.18953 -0.38854,-0.28429c-0.19585,-0.09476 -0.48962,-0.19901 -0.88131,-0.31272c-0.44855,-0.12004 -0.81182,-0.25271 -1.0898,-0.39801c-0.27798,-0.15162 -0.48014,-0.33168 -0.6065,-0.54016c-0.12635,-0.20848 -0.18953,-0.45487 -0.18953,-0.73917c0,-0.34747 0.06002,-0.64756 0.18005,-0.90027c0.12635,-0.25902 0.29377,-0.47698 0.50225,-0.65388c0.20848,-0.18321 0.44224,-0.32852 0.70126,-0.43592c0.25902,-0.1074 0.52121,-0.18637 0.78655,-0.23691c0.27166,-0.05054 0.53068,-0.07581 0.77707,-0.07581c0.54332,0 0.98556,0.08529 1.32671,0.25587c0.34747,0.17058 0.52121,0.39801 0.52121,0.68231c0,0.20217 -0.06634,0.36642 -0.19901,0.49278c-0.12635,0.12635 -0.3222,0.18953 -0.58754,0.18953c-0.11372,0 -0.24955,-0.01579 -0.40749,-0.04738c-0.15794,-0.03159 -0.33168,-0.06318 -0.52121,-0.09476c-0.18953,-0.03159 -0.39801,-0.04738 -0.62545,-0.04738c-0.38538,0 -0.68231,0.06002 -0.89079,0.18005c-0.20848,0.12004 -0.31272,0.31272 -0.31272,0.57807c0,0.11372 0.02843,0.21796 0.08529,0.31272c0.06318,0.09476 0.19269,0.19269 0.38854,0.29377c0.19585,0.10108 0.49594,0.21796 0.90027,0.35063c0.4991,0.15162 0.89079,0.31904 1.17508,0.50225c0.28429,0.17689 0.48646,0.37906 0.6065,0.6065c0.12004,0.22744 0.18005,0.4833 0.18005,0.7676c0,0.39169 -0.1074,0.73917 -0.3222,1.04241c-0.20848,0.29693 -0.50225,0.52752 -0.88131,0.69178c-0.37274,0.16426 -0.80866,0.24639 -1.30776,0.24639zM225.33263,220.93686c0.25271,0 0.43276,0.06949 0.54016,0.20848c0.11372,0.13899 0.17058,0.30009 0.17058,0.4833c0,0.22744 -0.06949,0.40433 -0.20848,0.53068c-0.13267,0.12004 -0.3222,0.18005 -0.56859,0.18005c-0.24007,0 -0.42012,-0.06634 -0.54016,-0.19901c-0.12004,-0.13899 -0.18005,-0.30009 -0.18005,-0.4833c0,-0.24007 0.07265,-0.42012 0.21796,-0.54016c0.14531,-0.12004 0.33484,-0.18005 0.56859,-0.18005zM225.38949,223.05012c0.20217,0 0.36011,0.18953 0.47382,0.56859c0.12004,0.37906 0.18005,0.9824 0.18005,1.81001c0,1.01714 -0.07265,1.74999 -0.21796,2.19855c-0.14531,0.44855 -0.36642,0.67283 -0.66335,0.67283c-0.22744,0 -0.39485,-0.16426 -0.50225,-0.49278c-0.1074,-0.33484 -0.1611,-0.91606 -0.1611,-1.74367c0,-1.01714 0.08213,-1.7721 0.24639,-2.26488c0.17058,-0.4991 0.38538,-0.74864 0.6444,-0.74864zM229.59855,222.27305c0.56227,0 0.9666,0.08213 1.21299,0.24639c0.24639,0.16426 0.36958,0.3759 0.36958,0.63492c0,0.15162 -0.0537,0.27798 -0.1611,0.37906c-0.10108,0.09476 -0.24639,0.14215 -0.43592,0.14215c-0.19585,0 -0.40117,-0.02843 -0.61597,-0.08529c-0.20848,-0.05686 -0.45171,-0.08529 -0.72969,-0.08529c-0.3222,0 -0.56227,0.06318 -0.72021,0.18953c-0.15794,0.12635 -0.23691,0.28745 -0.23691,0.4833c0,0.18321 0.06949,0.32852 0.20848,0.43592c0.14531,0.10108 0.42012,0.17689 0.82445,0.22744c0.44855,0.05054 0.81814,0.13267 1.10875,0.24639c0.29693,0.1074 0.51805,0.27166 0.66335,0.49278c0.14531,0.2148 0.21796,0.51173 0.21796,0.89079c0,0.60018 -0.21164,1.04557 -0.63492,1.33619c-0.42328,0.29061 -1.00767,0.43592 -1.75315,0.43592c-0.47382,0 -0.84973,-0.03791 -1.1277,-0.11372c-0.27798,-0.07581 -0.48014,-0.18321 -0.6065,-0.3222c-0.12004,-0.13899 -0.18005,-0.30325 -0.18005,-0.49278c0,-0.16426 0.0537,-0.29061 0.1611,-0.37906c0.11372,-0.09476 0.24639,-0.14215 0.39801,-0.14215c0.14531,0 0.30009,0.01895 0.46435,0.05686c0.16426,0.03159 0.33799,0.06634 0.52121,0.10424c0.18321,0.03791 0.37274,0.05686 0.56859,0.05686c0.63177,0 0.94765,-0.19585 0.94765,-0.58754c0,-0.13267 -0.03159,-0.24007 -0.09476,-0.3222c-0.06318,-0.08213 -0.17689,-0.14847 -0.34115,-0.19901c-0.16426,-0.05686 -0.40433,-0.10108 -0.72021,-0.13267c-0.37906,-0.03791 -0.70758,-0.10108 -0.98556,-0.18953c-0.27798,-0.09476 -0.49278,-0.24639 -0.6444,-0.45487c-0.15162,-0.2148 -0.22744,-0.50857 -0.22744,-0.88131c0,-0.58754 0.22112,-1.06137 0.66335,-1.42147c0.44224,-0.36642 1.07084,-0.54964 1.88582,-0.54964zM233.09711,220.93686c0.25271,0 0.43276,0.06949 0.54016,0.20848c0.11372,0.13899 0.17058,0.30009 0.17058,0.4833c0,0.22744 -0.06949,0.40433 -0.20848,0.53068c-0.13267,0.12004 -0.3222,0.18005 -0.56859,0.18005c-0.24007,0 -0.42012,-0.06634 -0.54016,-0.19901c-0.12004,-0.13899 -0.18005,-0.30009 -0.18005,-0.4833c0,-0.24007 0.07265,-0.42012 0.21796,-0.54016c0.14531,-0.12004 0.33484,-0.18005 0.56859,-0.18005zM233.15397,223.05012c0.20217,0 0.36011,0.18953 0.47382,0.56859c0.12004,0.37906 0.18005,0.9824 0.18005,1.81001c0,1.01714 -0.07265,1.74999 -0.21796,2.19855c-0.14531,0.44855 -0.36642,0.67283 -0.66335,0.67283c-0.22744,0 -0.39485,-0.16426 -0.50225,-0.49278c-0.1074,-0.33484 -0.1611,-0.91606 -0.1611,-1.74367c0,-1.01714 0.08213,-1.7721 0.24639,-2.26488c0.17058,-0.4991 0.38538,-0.74864 0.6444,-0.74864zM237.58281,228.30009c-0.13899,0 -0.25271,-0.04738 -0.34115,-0.14215c-0.08213,-0.09476 -0.14847,-0.23059 -0.19901,-0.40749c-0.05054,-0.25902 -0.09476,-0.59702 -0.13267,-1.01398c-0.03159,-0.42328 -0.04738,-0.875 -0.04738,-1.35514c0,-0.27166 0.00632,-0.57807 0.01895,-0.91922c0.01264,-0.34115 0.02843,-0.68547 0.04738,-1.03294c0.02527,-0.35379 0.05054,-0.68231 0.07581,-0.98556c0.03159,-0.30325 0.06318,-0.54964 0.09476,-0.73917c0.05054,-0.27798 0.12319,-0.49594 0.21796,-0.65388c0.10108,-0.16426 0.25902,-0.24639 0.47382,-0.24639c0.22112,0 0.38222,0.08529 0.4833,0.25587c0.10108,0.16426 0.15162,0.36958 0.15162,0.61597c0,0.27798 -0.02211,0.6065 -0.06634,0.98556c-0.03791,0.37906 -0.09792,0.76444 -0.18005,1.15613l-0.18953,0.22744c0.06949,-0.26534 0.18321,-0.50857 0.34115,-0.72969c0.15794,-0.22112 0.35695,-0.39485 0.59702,-0.52121c0.24007,-0.13267 0.51805,-0.19901 0.83393,-0.19901c0.61913,0 1.11191,0.22112 1.47833,0.66335c0.37274,0.43592 0.55911,1.11823 0.55911,2.04692c0,0.65072 -0.09792,1.19404 -0.29377,1.62996c-0.18953,0.43592 -0.45171,0.76444 -0.78655,0.98556c-0.32852,0.2148 -0.70442,0.3222 -1.1277,0.3222c-0.39801,0 -0.74233,-0.11688 -1.03294,-0.35063c-0.28429,-0.23375 -0.46751,-0.57175 -0.54964,-1.01398l0.13267,0.10424c-0.02527,0.45487 -0.08845,0.78971 -0.18953,1.00451c-0.09476,0.20848 -0.21796,0.31272 -0.36958,0.31272zM239.317,227.14396c0.31588,0 0.59386,-0.14215 0.83393,-0.42644c0.24007,-0.28429 0.36011,-0.72969 0.36011,-1.33619c0,-0.50541 -0.09476,-0.91606 -0.28429,-1.23194c-0.18321,-0.31588 -0.49278,-0.47382 -0.9287,-0.47382c-0.35379,0 -0.63808,0.14215 -0.85288,0.42644c-0.2148,0.27798 -0.3222,0.70126 -0.3222,1.26985c0,0.51805 0.1074,0.94449 0.3222,1.27933c0.2148,0.32852 0.50541,0.49278 0.87184,0.49278z" fill="#0c0c0c" stroke="none" stroke-width="1" stroke-linecap="butt"/><path d="M177.54719,192.09042c0,-0.46751 0.02527,-0.8592 0.07581,-1.17508c0.04422,-0.3222 0.10108,-0.58122 0.17058,-0.77707c0.08213,-0.20848 0.17689,-0.35063 0.28429,-0.42644c0.1074,-0.08213 0.23059,-0.12319 0.36958,-0.12319c0.20217,0 0.36642,0.07897 0.49278,0.23691c0.12635,0.15162 0.18953,0.38538 0.18953,0.70126c0,0.2148 -0.02211,0.4454 -0.06634,0.69178c-0.04422,0.24639 -0.11056,0.4991 -0.19901,0.75812l-0.13267,-0.12319c0.32852,-0.05686 0.69178,-0.1074 1.0898,-0.15162c0.39801,-0.04422 0.80234,-0.08213 1.21299,-0.11372c0.40433,-0.03791 0.78655,-0.06318 1.14666,-0.07581c0.36011,-0.01895 0.66651,-0.02843 0.91922,-0.02843c0.49278,0 0.86236,0.06318 1.10875,0.18953c0.24639,0.12004 0.36958,0.32852 0.36958,0.62545c0,0.27166 -0.11056,0.46751 -0.33168,0.58754c-0.22744,0.12004 -0.57175,0.18005 -1.03294,0.18005c-0.30325,0 -0.65072,-0.01264 -1.04241,-0.03791c-0.39169,-0.03159 -0.79603,-0.07265 -1.21299,-0.12319c-0.41697,-0.05054 -0.81498,-0.10424 -1.19404,-0.1611c-0.38538,-0.06318 -0.72021,-0.12635 -1.00451,-0.18953l0.10424,-0.17058c0.05054,0.13899 0.10108,0.30325 0.15162,0.49278c0.04422,0.18953 0.08213,0.37906 0.11372,0.56859c0.02527,0.18953 0.03791,0.35695 0.03791,0.50225c0,0.3222 -0.05054,0.54964 -0.15162,0.68231c-0.1074,0.13267 -0.24955,0.19901 -0.42644,0.19901c-0.16426,0 -0.30325,-0.05054 -0.41697,-0.15162c-0.12004,-0.10108 -0.22428,-0.25587 -0.31272,-0.46435c-0.10108,-0.24007 -0.17689,-0.53384 -0.22744,-0.88131c-0.05686,-0.35379 -0.08529,-0.7676 -0.08529,-1.24142zM177.24394,187.97115c0,-0.25271 0.06949,-0.43276 0.20848,-0.54016c0.13899,-0.11372 0.30009,-0.17058 0.4833,-0.17058c0.22744,0 0.40433,0.06949 0.53068,0.20848c0.12004,0.13267 0.18005,0.3222 0.18005,0.56859c0,0.24007 -0.06634,0.42012 -0.19901,0.54016c-0.13899,0.12004 -0.30009,0.18005 -0.4833,0.18005c-0.24007,0 -0.42012,-0.07265 -0.54016,-0.21796c-0.12004,-0.14531 -0.18005,-0.33484 -0.18005,-0.56859zM179.35719,187.91429c0,-0.20217 0.18953,-0.36011 0.56859,-0.47382c0.37906,-0.12004 0.9824,-0.18005 1.81001,-0.18005c1.01714,0 1.74999,0.07265 2.19855,0.21796c0.44855,0.14531 0.67283,0.36642 0.67283,0.66335c0,0.22744 -0.16426,0.39485 -0.49278,0.50225c-0.33484,0.1074 -0.91606,0.1611 -1.74367,0.1611c-1.01714,0 -1.7721,-0.08213 -2.26488,-0.24639c-0.4991,-0.17058 -0.74864,-0.38538 -0.74864,-0.6444zM178.61803,185.13626c0,-0.20217 0.08213,-0.33799 0.24639,-0.40749c0.16426,-0.07581 0.40749,-0.11372 0.72969,-0.11372c0.07581,0 0.15794,0.00632 0.24639,0.01895c0.08213,0.00632 0.15794,0.01895 0.22744,0.03791l-0.18953,0.01895c-0.41065,-0.15162 -0.72969,-0.38538 -0.95713,-0.70126c-0.23375,-0.31588 -0.35063,-0.65072 -0.35063,-1.00451c0,-0.39169 0.11056,-0.71705 0.33168,-0.97608c0.22112,-0.26534 0.53068,-0.46119 0.9287,-0.58754c0.39801,-0.13267 0.86868,-0.19901 1.412,-0.19901c0.33484,0 0.66651,0.01579 0.99503,0.04738c0.3222,0.02527 0.61913,0.06318 0.89079,0.11372c0.26534,0.04422 0.4833,0.09476 0.65388,0.15162c0.2148,0.07581 0.3759,0.17374 0.4833,0.29377c0.10108,0.12004 0.15162,0.26218 0.15162,0.42644c0,0.16426 -0.06002,0.29061 -0.18005,0.37906c-0.12004,0.08845 -0.28114,0.13267 -0.4833,0.13267c-0.2148,0 -0.47382,-0.01579 -0.77707,-0.04738c-0.30957,-0.03159 -0.62229,-0.06002 -0.93817,-0.08529c-0.3222,-0.03159 -0.61281,-0.04738 -0.87184,-0.04738c-0.88447,0 -1.32671,0.29061 -1.32671,0.87184c0,0.30957 0.13899,0.56859 0.41697,0.77707c0.27166,0.20848 0.6602,0.34747 1.16561,0.41697c0.17058,0.01895 0.38222,0.02843 0.63492,0.02843c0.25271,0 0.50541,0 0.75812,0c0.24639,-0.00632 0.45487,0 0.62545,0.01895c0.37906,0.02527 0.65072,0.09792 0.81498,0.21796c0.16426,0.11372 0.24639,0.27166 0.24639,0.47382c0,0.23375 -0.1074,0.41065 -0.3222,0.53068c-0.22112,0.12004 -0.5907,0.18005 -1.10875,0.18005c-0.26534,0 -0.56227,-0.00632 -0.89079,-0.01895c-0.32852,-0.01264 -0.65704,-0.02843 -0.98556,-0.04738c-0.33484,-0.02527 -0.63808,-0.0537 -0.90974,-0.08529c-0.51173,-0.06318 -0.91606,-0.15478 -1.21299,-0.27482c-0.30325,-0.12004 -0.45487,-0.30009 -0.45487,-0.54016zM184.36078,178.25893c0,0.59386 -0.22744,1.07716 -0.68231,1.4499c-0.46119,0.37274 -1.15929,0.55911 -2.0943,0.55911c-0.99819,0 -1.72788,-0.18005 -2.18907,-0.54016c-0.46119,-0.36011 -0.69178,-0.83393 -0.69178,-1.42147c0,-0.34747 0.08845,-0.65388 0.26534,-0.91922c0.17689,-0.26534 0.42644,-0.49278 0.74864,-0.68231l0.13267,0.07581c-0.08845,0.01895 -0.18321,0.03475 -0.28429,0.04738c-0.10108,0.01264 -0.17689,0.01895 -0.22744,0.01895c-0.25902,0 -0.45803,-0.04106 -0.59702,-0.12319c-0.14531,-0.08845 -0.21796,-0.22428 -0.21796,-0.40749c0,-0.20217 0.08213,-0.36011 0.24639,-0.47382c0.16426,-0.12004 0.39801,-0.21164 0.70126,-0.27482c0.30957,-0.08213 0.70442,-0.15162 1.18456,-0.20848c0.47382,-0.05686 0.95397,-0.08529 1.44043,-0.08529c0.6065,0 1.11507,0.02211 1.52572,0.06634c0.41065,0.04422 0.7518,0.11688 1.02346,0.21796c0.27166,0.10108 0.50857,0.23375 0.71074,0.39801c0.32852,0.27166 0.57807,0.62229 0.74864,1.05189c0.17689,0.42328 0.26534,0.9129 0.26534,1.46886c0,0.39801 -0.03791,0.71705 -0.11372,0.95713c-0.06949,0.24007 -0.16742,0.41381 -0.29377,0.52121c-0.12004,0.10108 -0.25587,0.15162 -0.40749,0.15162c-0.15794,0 -0.29061,-0.04422 -0.39801,-0.13267c-0.10108,-0.08845 -0.15162,-0.22112 -0.15162,-0.39801c0,-0.15794 0.02527,-0.34115 0.07581,-0.54964c0.05054,-0.2148 0.07581,-0.46751 0.07581,-0.75812c0,-0.61281 -0.14531,-1.04557 -0.43592,-1.29828c-0.28429,-0.25902 -0.69494,-0.38854 -1.23194,-0.38854c-0.14531,0 -0.31588,0.00948 -0.51173,0.02843l0.04738,-0.13267c0.40433,0.15794 0.72969,0.39169 0.97608,0.70126c0.24007,0.30957 0.36011,0.66967 0.36011,1.08032zM183.19517,177.89883c0,-0.20217 -0.0537,-0.40433 -0.1611,-0.6065c-0.1074,-0.20217 -0.28429,-0.36958 -0.53068,-0.50225c-0.24639,-0.13267 -0.57807,-0.19901 -0.99503,-0.19901c-0.4991,0 -0.90658,0.11688 -1.22247,0.35063c-0.31588,0.23375 -0.47382,0.56227 -0.47382,0.98556c0,0.36642 0.13899,0.63492 0.41697,0.8055c0.27798,0.17058 0.6981,0.25587 1.26037,0.25587c0.537,0 0.95713,-0.08529 1.26037,-0.25587c0.29693,-0.17058 0.4454,-0.44855 0.4454,-0.83393zM184.36078,172.30841c0,0.59386 -0.22744,1.07716 -0.68231,1.4499c-0.46119,0.37274 -1.15929,0.55911 -2.0943,0.55911c-0.99819,0 -1.72788,-0.18005 -2.18907,-0.54016c-0.46119,-0.36011 -0.69178,-0.83393 -0.69178,-1.42147c0,-0.34747 0.08845,-0.65388 0.26534,-0.91922c0.17689,-0.26534 0.42644,-0.49278 0.74864,-0.68231l0.13267,0.07581c-0.08845,0.01895 -0.18321,0.03475 -0.28429,0.04738c-0.10108,0.01264 -0.17689,0.01895 -0.22744,0.01895c-0.25902,0 -0.45803,-0.04106 -0.59702,-0.12319c-0.14531,-0.08845 -0.21796,-0.22428 -0.21796,-0.40749c0,-0.20217 0.08213,-0.36011 0.24639,-0.47382c0.16426,-0.12004 0.39801,-0.21164 0.70126,-0.27482c0.30957,-0.08213 0.70442,-0.15162 1.18456,-0.20848c0.47382,-0.05686 0.95397,-0.08529 1.44043,-0.08529c0.6065,0 1.11507,0.02211 1.52572,0.06634c0.41065,0.04422 0.7518,0.11688 1.02346,0.21796c0.27166,0.10108 0.50857,0.23375 0.71074,0.39801c0.32852,0.27166 0.57807,0.62229 0.74864,1.05189c0.17689,0.42328 0.26534,0.9129 0.26534,1.46886c0,0.39801 -0.03791,0.71705 -0.11372,0.95713c-0.06949,0.24007 -0.16742,0.41381 -0.29377,0.52121c-0.12004,0.10108 -0.25587,0.15162 -0.40749,0.15162c-0.15794,0 -0.29061,-0.04422 -0.39801,-0.13267c-0.10108,-0.08845 -0.15162,-0.22112 -0.15162,-0.39801c0,-0.15794 0.02527,-0.34115 0.07581,-0.54964c0.05054,-0.2148 0.07581,-0.46751 0.07581,-0.75812c0,-0.61281 -0.14531,-1.04557 -0.43592,-1.29828c-0.28429,-0.25902 -0.69494,-0.38854 -1.23194,-0.38854c-0.14531,0 -0.31588,0.00948 -0.51173,0.02843l0.04738,-0.13267c0.40433,0.15794 0.72969,0.39169 0.97608,0.70126c0.24007,0.30957 0.36011,0.66967 0.36011,1.08032zM183.19517,171.9483c0,-0.20217 -0.0537,-0.40433 -0.1611,-0.6065c-0.1074,-0.20217 -0.28429,-0.36958 -0.53068,-0.50225c-0.24639,-0.13267 -0.57807,-0.19901 -0.99503,-0.19901c-0.4991,0 -0.90658,0.11688 -1.22247,0.35063c-0.31588,0.23375 -0.47382,0.56227 -0.47382,0.98556c0,0.36642 0.13899,0.63492 0.41697,0.8055c0.27798,0.17058 0.6981,0.25587 1.26037,0.25587c0.537,0 0.95713,-0.08529 1.26037,-0.25587c0.29693,-0.17058 0.4454,-0.44855 0.4454,-0.83393zM177.24394,167.33388c0,-0.25271 0.06949,-0.43276 0.20848,-0.54016c0.13899,-0.11372 0.30009,-0.17058 0.4833,-0.17058c0.22744,0 0.40433,0.06949 0.53068,0.20848c0.12004,0.13267 0.18005,0.3222 0.18005,0.56859c0,0.24007 -0.06634,0.42012 -0.19901,0.54016c-0.13899,0.12004 -0.30009,0.18005 -0.4833,0.18005c-0.24007,0 -0.42012,-0.07265 -0.54016,-0.21796c-0.12004,-0.14531 -0.18005,-0.33484 -0.18005,-0.56859zM179.35719,167.27702c0,-0.20217 0.18953,-0.36011 0.56859,-0.47382c0.37906,-0.12004 0.9824,-0.18005 1.81001,-0.18005c1.01714,0 1.74999,0.07265 2.19855,0.21796c0.44855,0.14531 0.67283,0.36642 0.67283,0.66335c0,0.22744 -0.16426,0.39485 -0.49278,0.50225c-0.33484,0.1074 -0.91606,0.1611 -1.74367,0.1611c-1.01714,0 -1.7721,-0.08213 -2.26488,-0.24639c-0.4991,-0.17058 -0.74864,-0.38538 -0.74864,-0.6444z" fill="#0c0c0c" stroke="none" stroke-width="1" stroke-linecap="butt"/></g></g></svg>