<svg version="1.1" xmlns="http://www.w3.org/2000/svg" xmlns:xlink="http://www.w3.org/1999/xlink" width="283.66205" height="15.39094" viewBox="0,0,283.66205,15.39094"><g transform="translate(-98.16897,-172.30453)"><g data-paper-data="{&quot;isPaintingLayer&quot;:true}" fill="#000000" fill-rule="nonzero" stroke="none" stroke-width="1" stroke-linecap="butt" stroke-linejoin="miter" stroke-miterlimit="10" stroke-dasharray="" stroke-dashoffset="0" style="mix-blend-mode: normal"><path d="M99.17972,184.77043c-0.18377,0 -0.33181,-0.06126 -0.44411,-0.18377c-0.11231,-0.13269 -0.20419,-0.34206 -0.27566,-0.62789c-0.07147,-0.32674 -0.13783,-0.83715 -0.19909,-1.53144c-0.06126,-0.70446 -0.09189,-1.4906 -0.09189,-2.35841c0,-0.93929 0.02552,-1.85304 0.07657,-2.74127c0.06126,-0.89844 0.14804,-1.68969 0.26035,-2.37373c0.08168,-0.44923 0.19909,-0.78103 0.35223,-0.99543c0.16335,-0.22461 0.38796,-0.33692 0.67383,-0.33692c0.18377,0 0.34713,0.06126 0.49006,0.18377c0.14294,0.12251 0.25014,0.34202 0.3216,0.65852c0.08168,0.31649 0.12251,0.76572 0.12251,1.34766c0,0.28586 -0.01021,0.61257 -0.03063,0.98012c-0.02041,0.35734 -0.05104,0.75551 -0.09189,1.19452h0.06126c0.81677,-1.12306 1.53655,-2.01639 2.15933,-2.68001c0.62279,-0.67383 1.169,-1.15878 1.63864,-1.45487c0.47985,-0.29608 0.89845,-0.44412 1.25578,-0.44412c0.28588,0 0.50028,0.09189 0.6432,0.27566c0.15314,0.18377 0.22972,0.40838 0.22972,0.67383c0,0.56152 -0.42369,1.23536 -1.27109,2.0215c-0.83718,0.78614 -2.18996,1.73052 -4.05831,2.83316l0.12251,-0.29097c1.61312,1.02095 2.83316,1.9245 3.66013,2.71064c0.82698,0.77592 1.24046,1.46504 1.24046,2.06744c0,0.26549 -0.08678,0.48492 -0.26034,0.65852c-0.16335,0.16332 -0.40838,0.24503 -0.73509,0.24503c-0.40838,0 -0.84229,-0.13783 -1.30172,-0.41349c-0.45943,-0.28583 -0.9699,-0.76058 -1.53144,-1.42424c-0.55132,-0.67383 -1.17921,-1.58759 -1.88367,-2.74127h-0.06126c0.02042,0.23482 0.03574,0.47985 0.04594,0.73509c0.01022,0.24503 0.01531,0.49006 0.01531,0.73509c0,1.17407 -0.08167,2.01636 -0.24503,2.52687c-0.16335,0.50023 -0.45943,0.7504 -0.88823,0.7504zM111.92202,184.7398c-1.13326,0 -2.03681,-0.16846 -2.71064,-0.50537c-0.67385,-0.33692 -1.15881,-0.82183 -1.45489,-1.45487c-0.29608,-0.633 -0.44412,-1.3885 -0.44412,-2.26653c0,-1.11284 0.2042,-2.05723 0.61257,-2.83316c0.4186,-0.78614 0.99033,-1.3885 1.71523,-1.8071c0.73509,-0.4186 1.5671,-0.62789 2.49624,-0.62789c1.09235,0 1.89384,0.25524 2.40436,0.76572c0.51041,0.50027 0.76572,1.15878 0.76572,1.97555c0,0.65341 -0.1736,1.22004 -0.52069,1.6999c-0.33692,0.46964 -0.80663,0.83208 -1.40892,1.08732c-0.6024,0.25524 -1.29669,0.38286 -2.08275,0.38286c-0.43908,0 -0.86275,-0.05615 -1.27109,-0.16846c-0.40846,-0.11231 -0.776,-0.26545 -1.10266,-0.45943l0.36757,-0.67383c-0.03063,0.24503 -0.04594,0.49006 -0.04594,0.73509c0,0.71467 0.22457,1.23026 0.67383,1.54675c0.44915,0.30629 1.08732,0.45943 1.9143,0.45943c0.6432,0 1.15875,-0.05612 1.54675,-0.16846c0.38789,-0.11231 0.71463,-0.21951 0.98012,-0.3216c0.26538,-0.11231 0.52572,-0.16846 0.78103,-0.16846c0.14286,0 0.27052,0.04083 0.38286,0.12251c0.12251,0.07146 0.21943,0.17866 0.29097,0.3216c0.0816,0.14297 0.12251,0.31646 0.12251,0.52069c0,0.30629 -0.15314,0.6024 -0.45943,0.88823c-0.30629,0.27566 -0.76069,0.50537 -1.36298,0.68915c-0.59223,0.1736 -1.32218,0.26034 -2.18996,0.26034zM111.03379,179.732c0.72481,0 1.30675,-0.15314 1.74584,-0.45943c0.43898,-0.30629 0.65852,-0.68404 0.65852,-1.13326c0,-0.35734 -0.12251,-0.64831 -0.36754,-0.87292c-0.23486,-0.23482 -0.60754,-0.35223 -1.11795,-0.35223c-0.47989,0 -0.91383,0.09189 -1.30172,0.27566c-0.37783,0.17357 -0.67383,0.40328 -0.88823,0.68915c-0.2144,0.28586 -0.3216,0.59726 -0.3216,0.93418c0,0.29608 0.13783,0.5258 0.41349,0.68915c0.28583,0.15314 0.67886,0.22972 1.17921,0.22972zM121.15473,175.03049c0.90869,0 1.56207,0.13272 1.96024,0.39817c0.39817,0.26545 0.59726,0.60747 0.59726,1.02606c0,0.24503 -0.08674,0.44923 -0.26034,0.61257c-0.16332,0.15314 -0.39817,0.22972 -0.70446,0.22972c-0.31646,0 -0.64824,-0.04594 -0.99543,-0.13783c-0.33692,-0.09189 -0.72995,-0.13783 -1.17921,-0.13783c-0.52069,0 -0.90858,0.10209 -1.16389,0.30629c-0.2552,0.2042 -0.38286,0.46454 -0.38286,0.78103c0,0.29608 0.11234,0.53089 0.33692,0.70446c0.23486,0.16335 0.67897,0.28586 1.33235,0.36754c0.72492,0.08168 1.32218,0.2144 1.79178,0.39817c0.47989,0.17357 0.83726,0.43901 1.07201,0.79635c0.23486,0.34712 0.35223,0.82698 0.35223,1.43955c0,0.96995 -0.34195,1.68972 -1.02606,2.15933c-0.68401,0.4696 -1.62836,0.70446 -2.83316,0.70446c-0.76572,0 -1.37315,-0.06126 -1.82241,-0.18377c-0.44915,-0.12251 -0.77589,-0.29611 -0.98012,-0.52069c-0.19395,-0.22457 -0.29097,-0.49006 -0.29097,-0.79635c0,-0.26549 0.08685,-0.4696 0.26034,-0.61257c0.18377,-0.15314 0.39817,-0.22972 0.6432,-0.22972c0.23486,0 0.48503,0.03063 0.7504,0.09189c0.26549,0.05108 0.54629,0.1072 0.84229,0.16846c0.29611,0.06126 0.6024,0.09189 0.91886,0.09189c1.02103,0 1.53144,-0.31649 1.53144,-0.94949c0,-0.2144 -0.05097,-0.38797 -0.15314,-0.52069c-0.10206,-0.13272 -0.28583,-0.23992 -0.55132,-0.3216c-0.26538,-0.09189 -0.65338,-0.16335 -1.16389,-0.2144c-0.61257,-0.06126 -1.14344,-0.16335 -1.59269,-0.30629c-0.44915,-0.15314 -0.79635,-0.39817 -1.04138,-0.73509c-0.24503,-0.34712 -0.36754,-0.82187 -0.36754,-1.42424c0,-0.94949 0.35737,-1.71521 1.07201,-2.29716c0.71474,-0.59215 1.73052,-0.88823 3.04756,-0.88823zM126.80857,172.87116c0.40835,0 0.69932,0.11231 0.87292,0.33692c0.18377,0.22461 0.27566,0.48495 0.27566,0.78103c0,0.36754 -0.11234,0.65341 -0.33692,0.8576c-0.2144,0.19398 -0.52069,0.29097 -0.91886,0.29097c-0.388,0 -0.67897,-0.1072 -0.87292,-0.3216c-0.19405,-0.22461 -0.29097,-0.48495 -0.29097,-0.78103c0,-0.38797 0.11737,-0.67894 0.35223,-0.87292c0.23475,-0.19398 0.54103,-0.29097 0.91886,-0.29097zM126.90046,176.28627c0.32663,0 0.58195,0.30629 0.76572,0.91886c0.19395,0.61257 0.29097,1.58759 0.29097,2.92504c0,1.64375 -0.11748,2.82802 -0.35223,3.55293c-0.23486,0.72492 -0.59223,1.08732 -1.07201,1.08732c-0.36754,0 -0.63817,-0.26549 -0.81166,-0.79635c-0.1736,-0.54114 -0.26034,-1.48035 -0.26034,-2.81784c0,-1.64375 0.13269,-2.86379 0.39817,-3.66013c0.27566,-0.80655 0.62275,-1.20984 1.04138,-1.20984zM136.42829,177.6033c0.10217,-0.4186 0.2808,-0.79635 0.536,-1.13326c0.26549,-0.33692 0.58195,-0.60237 0.94949,-0.79635c0.37783,-0.2042 0.79132,-0.30629 1.24046,-0.30629c0.53097,0 1.00058,0.12762 1.40892,0.38286c0.40846,0.25524 0.73006,0.67383 0.96481,1.25578c0.24503,0.58195 0.36754,1.35787 0.36754,2.32778c0,0.50027 -0.02035,1.00564 -0.06126,1.51612c-0.0408,0.51048 -0.09189,0.98523 -0.15314,1.42424c-0.06126,0.43898 -0.12755,0.80652 -0.19909,1.10263c-0.10206,0.40835 -0.26034,0.71978 -0.47475,0.93418c-0.20412,0.2144 -0.46446,0.3216 -0.78103,0.3216c-0.26538,0 -0.47475,-0.11737 -0.62789,-0.35223c-0.15314,-0.23486 -0.22972,-0.57177 -0.22972,-1.01075c0,-0.20423 0.0256,-0.46457 0.07657,-0.78103c0.05108,-0.32671 0.1072,-0.67894 0.16846,-1.05669c0.06126,-0.38797 0.11748,-0.78103 0.16846,-1.17921c0.05108,-0.39817 0.07657,-0.77592 0.07657,-1.13326c0,-0.53089 -0.1072,-0.93929 -0.3216,-1.22515c-0.2144,-0.29608 -0.51555,-0.44412 -0.90355,-0.44412c-0.4288,0 -0.78606,0.22461 -1.07201,0.67383c-0.27566,0.43901 -0.43898,1.08221 -0.49006,1.92961c-0.0408,0.75551 -0.07657,1.42934 -0.1072,2.0215c-0.03063,0.58195 -0.1072,1.06183 -0.22972,1.43955c-0.0816,0.26549 -0.19909,0.46457 -0.35223,0.59726c-0.14286,0.13269 -0.33692,0.19909 -0.58195,0.19909c-0.27566,0 -0.49509,-0.10206 -0.65852,-0.30629c-0.15314,-0.20423 -0.23989,-0.52583 -0.26034,-0.96481c-0.02035,-0.36754 -0.02549,-0.80146 -0.01531,-1.30172c0.01028,-0.50027 0.01531,-0.99543 0.01531,-1.48549c0.01028,-0.50027 0.00514,-0.91375 -0.01531,-1.24046c-0.0408,-0.65341 -0.15818,-1.13326 -0.35223,-1.43955c-0.18377,-0.30629 -0.46446,-0.45943 -0.84229,-0.45943c-0.43898,0 -0.79121,0.2042 -1.05669,0.61257c-0.2552,0.40838 -0.41349,0.97501 -0.47475,1.6999c-0.02035,0.29608 -0.03063,0.66363 -0.03063,1.10263c0.01028,0.4288 0.02046,0.8576 0.03063,1.28641c0.01028,0.4288 0.00514,0.78617 -0.01531,1.07201c-0.01017,0.61257 -0.1072,1.05155 -0.29097,1.31704c-0.17349,0.26549 -0.41852,0.39817 -0.73509,0.39817c-0.37772,0 -0.65338,-0.12251 -0.82698,-0.36754c-0.16332,-0.24503 -0.27052,-0.63806 -0.3216,-1.17921c-0.0408,-0.47989 -0.07143,-0.9546 -0.09189,-1.42424c-0.02035,-0.47985 -0.03063,-0.9546 -0.03063,-1.42424c0,-0.47985 0.01028,-1.00054 0.03063,-1.56207c0.03063,-0.56152 0.07154,-1.09243 0.12251,-1.59269c0.06126,-0.51048 0.16846,-0.93929 0.3216,-1.28641c0.15314,-0.34712 0.40846,-0.52069 0.76572,-0.52069c0.29611,0 0.50537,0.14804 0.62789,0.44412c0.12251,0.28586 0.18377,0.72998 0.18377,1.33235c0,0.2042 -0.01531,0.39307 -0.04594,0.56663l-0.04594,-0.30629c0.20423,-0.66363 0.53097,-1.17921 0.98012,-1.54675c0.44926,-0.37775 0.94949,-0.56663 1.50081,-0.56663c0.72492,0 1.29155,0.23482 1.6999,0.70446c0.40846,0.45943 0.63303,1.09753 0.67383,1.9143zM144.80766,175.12237c0.27566,0 0.50537,0.16335 0.68915,0.49006c0.18377,0.31649 0.31143,0.82187 0.38286,1.51612l-0.3216,0.29097c0.18377,-0.71467 0.52583,-1.26089 1.02606,-1.63864c0.50034,-0.37775 1.09246,-0.56663 1.77647,-0.56663c0.63303,0 1.19452,0.16335 1.68458,0.49006c0.49006,0.32671 0.87292,0.82187 1.14858,1.48549c0.28594,0.65341 0.4288,1.47529 0.4288,2.46561c0,1.6029 -0.29097,2.78722 -0.87292,3.55293c-0.57166,0.75555 -1.3527,1.13326 -2.3431,1.13326c-0.71463,0 -1.27612,-0.15314 -1.68458,-0.45943c-0.40835,-0.30629 -0.69418,-0.67897 -0.8576,-1.11795l0.18377,-0.09189c0.08171,0.61257 0.14811,1.22001 0.19909,1.82241c0.06126,0.59212 0.09189,1.11281 0.09189,1.56207c0,0.45943 -0.0816,0.84743 -0.24503,1.16389c-0.16332,0.31646 -0.42366,0.47475 -0.78103,0.47475c-0.34709,0 -0.60743,-0.13269 -0.78103,-0.39817c-0.17349,-0.26549 -0.30115,-0.61772 -0.38286,-1.05669c-0.06126,-0.44926 -0.12251,-1.02606 -0.18377,-1.73052c-0.06126,-0.70446 -0.11223,-1.46504 -0.15314,-2.28184c-0.03063,-0.81677 -0.04594,-1.61312 -0.04594,-2.38904c0,-0.79635 0.0256,-1.54164 0.07657,-2.2359c0.06126,-0.70446 0.1328,-1.2762 0.2144,-1.71521c0.07154,-0.25524 0.16343,-0.44412 0.27566,-0.56663c0.12251,-0.13272 0.2808,-0.19909 0.47475,-0.19909zM147.73271,176.97541c-0.55132,0 -0.99543,0.27566 -1.33235,0.82698c-0.32663,0.54111 -0.49006,1.23536 -0.49006,2.08275c0,0.86781 0.16343,1.51612 0.49006,1.94493c0.33692,0.4288 0.77086,0.6432 1.30172,0.6432c0.61257,0 1.05166,-0.23992 1.31704,-0.71978c0.27566,-0.49006 0.41349,-1.12306 0.41349,-1.89898c0,-0.99033 -0.16846,-1.71521 -0.50537,-2.17464c-0.33692,-0.46964 -0.73509,-0.70446 -1.19452,-0.70446zM160.06471,184.5254c-0.27566,0 -0.49006,-0.09189 -0.6432,-0.27566c-0.14286,-0.19395 -0.23989,-0.43898 -0.29097,-0.73509c-0.05097,-0.30629 -0.07657,-0.62789 -0.07657,-0.96481l0.07657,-0.06126c-0.10206,0.43898 -0.30115,0.8168 -0.59726,1.13326c-0.296,0.31646 -0.63806,0.56149 -1.02606,0.73509c-0.38789,0.16332 -0.77589,0.24503 -1.16389,0.24503c-0.52069,0 -0.99543,-0.12251 -1.42424,-0.36754c-0.4288,-0.24503 -0.76058,-0.62275 -0.99543,-1.13326c-0.23475,-0.54114 -0.41852,-1.22004 -0.55132,-2.03681c-0.13269,-0.82698 -0.19909,-1.67437 -0.19909,-2.54219c0,-0.46964 0.02046,-0.90355 0.06126,-1.30172c0.04091,-0.39817 0.1072,-0.72488 0.19909,-0.98012c0.08171,-0.26545 0.20423,-0.45943 0.36754,-0.58195c0.16343,-0.13272 0.37269,-0.19909 0.62789,-0.19909c0.29611,0 0.52583,0.11741 0.68915,0.35223c0.1736,0.22461 0.2808,0.54111 0.3216,0.94949c0.04091,0.33692 0.0664,0.75551 0.07657,1.25578c0.02046,0.49006 0.03577,0.98523 0.04594,1.48549c0.02046,0.49006 0.04594,0.90355 0.07657,1.24046c0.06126,0.61257 0.21954,1.0669 0.47475,1.36298c0.25531,0.28586 0.56663,0.4288 0.93418,0.4288c0.54114,0 0.95463,-0.2042 1.24046,-0.61257c0.28594,-0.40838 0.4288,-0.98012 0.4288,-1.71521c0,-0.36754 -0.02035,-0.78103 -0.06126,-1.24046c-0.0408,-0.46964 -0.08674,-0.92397 -0.13783,-1.36298c-0.0408,-0.43901 -0.06126,-0.80146 -0.06126,-1.08732c0,-0.47985 0.08171,-0.82187 0.24503,-1.02606c0.16343,-0.2144 0.388,-0.3216 0.67383,-0.3216c0.24503,0 0.44926,0.06637 0.61257,0.19909c0.1736,0.13272 0.31143,0.31649 0.41349,0.55132c0.14297,0.30629 0.26549,0.72488 0.36754,1.25578c0.10217,0.53089 0.18377,1.13326 0.24503,1.8071c0.06126,0.67383 0.09189,1.3834 0.09189,2.1287c0,1.14347 -0.07657,2.00104 -0.22972,2.57281c-0.15314,0.56149 -0.42366,0.84229 -0.81166,0.84229zM164.62304,184.64791c-0.31646,0 -0.56663,-0.07143 -0.7504,-0.2144c-0.18377,-0.15314 -0.33177,-0.40331 -0.44412,-0.7504c-0.15314,-0.51052 -0.27052,-1.15372 -0.35223,-1.92961c-0.07143,-0.78614 -0.1072,-1.75095 -0.1072,-2.89442c0,-0.70446 0.0256,-1.40892 0.07657,-2.11338c0.06126,-0.71467 0.13783,-1.36298 0.22972,-1.94493c0.09189,-0.59215 0.18891,-1.05158 0.29097,-1.37829c0.11234,-0.34712 0.24503,-0.58705 0.39817,-0.71978c0.15314,-0.13273 0.32674,-0.19909 0.52069,-0.19909c0.20423,0 0.36754,0.07147 0.49006,0.2144c0.12251,0.13272 0.21954,0.37265 0.29097,0.71978c0.06126,0.33692 0.1072,0.7504 0.13783,1.24046c0.04091,0.49006 0.06126,1.01586 0.06126,1.57738c0,0.76572 -0.03566,1.57227 -0.1072,2.41967c-0.07143,0.8474 -0.16846,1.67947 -0.29097,2.49624c-0.11223,0.81677 -0.25006,1.56721 -0.41349,2.25121l-0.4288,-0.2144c0.26549,-0.32674 0.56663,-0.58195 0.90355,-0.76572c0.3472,-0.18377 0.66366,-0.27566 0.94949,-0.27566c0.23486,0 0.41349,0.06637 0.536,0.19909c0.1328,0.12251 0.19909,0.31646 0.19909,0.58195c0,0.26549 -0.11737,0.53086 -0.35223,0.79635c-0.22457,0.26549 -0.50537,0.48492 -0.84229,0.65852c-0.33692,0.16332 -0.66869,0.24503 -0.99543,0.24503zM174.89592,184.77043c-0.3472,0 -0.58709,-0.13269 -0.71978,-0.39817c-0.12251,-0.27566 -0.19405,-0.7096 -0.2144,-1.30172l0.15314,0.07657c-0.57177,1.11281 -1.65395,1.66927 -3.24665,1.66927c-0.72492,0 -1.32732,-0.12766 -1.8071,-0.38286c-0.47989,-0.26549 -0.83726,-0.61257 -1.07201,-1.04138c-0.22468,-0.43898 -0.33692,-0.91372 -0.33692,-1.42424c0,-0.87803 0.30629,-1.57227 0.91886,-2.08275c0.61257,-0.52069 1.42424,-0.78103 2.43498,-0.78103c0.66355,0 1.24046,0.09699 1.73052,0.29097c0.49006,0.19398 0.90858,0.46454 1.25578,0.81166l-0.26034,-0.03063c-0.07154,-1.03117 -0.29611,-1.76626 -0.67383,-2.20527c-0.36754,-0.44923 -0.89337,-0.67383 -1.57738,-0.67383c-0.39817,0 -0.76572,0.06126 -1.10263,0.18377c-0.33692,0.12251 -0.64834,0.25014 -0.93418,0.38286c-0.27566,0.12251 -0.536,0.18377 -0.78103,0.18377c-0.24503,0 -0.43908,-0.08168 -0.58195,-0.24503c-0.1328,-0.16335 -0.19909,-0.37265 -0.19909,-0.62789c0,-0.36754 0.17349,-0.71467 0.52069,-1.04138c0.35726,-0.32671 0.82698,-0.59215 1.40892,-0.79635c0.58195,-0.2042 1.21487,-0.30629 1.89898,-0.30629c0.82698,0 1.53647,0.19909 2.1287,0.59726c0.59212,0.39817 1.04138,0.98012 1.34766,1.74584c0.26538,0.65341 0.45429,1.3834 0.56663,2.18996c0.11223,0.80655 0.16846,1.66927 0.16846,2.58813c0,0.69429 -0.03577,1.23029 -0.1072,1.60801c-0.07154,0.37772 -0.18377,0.6432 -0.33692,0.79635c-0.14297,0.14297 -0.33692,0.2144 -0.58195,0.2144zM171.51144,183.05522c0.33692,0 0.67886,-0.04594 1.02606,-0.13783c0.34709,-0.10206 0.63806,-0.25017 0.87292,-0.44412c0.23475,-0.19398 0.35223,-0.43391 0.35223,-0.71978c0,-0.24503 -0.10217,-0.44412 -0.30629,-0.59726c-0.19405,-0.16335 -0.4544,-0.28586 -0.78103,-0.36754c-0.31657,-0.08168 -0.65852,-0.12251 -1.02606,-0.12251c-0.62286,0 -1.0976,0.1072 -1.42424,0.3216c-0.31657,0.2144 -0.47475,0.50027 -0.47475,0.8576c0,0.38797 0.148,0.68915 0.44412,0.90355c0.30629,0.20423 0.74526,0.30629 1.31704,0.30629zM179.35196,175.09174c0.32674,0 0.54629,0.13272 0.65852,0.39817c0.12251,0.26545 0.18377,0.65852 0.18377,1.17921c0,0.12251 -0.01017,0.25524 -0.03063,0.39817c-0.01017,0.13272 -0.03063,0.25524 -0.06126,0.36754l-0.03063,-0.30629c0.24503,-0.66363 0.62286,-1.17921 1.13326,-1.54675c0.51052,-0.37775 1.05166,-0.56663 1.62332,-0.56663c0.63303,0 1.15886,0.17866 1.57738,0.536c0.4288,0.35734 0.74537,0.8576 0.94949,1.50081c0.2144,0.6432 0.3216,1.40381 0.3216,2.28184c0,0.54111 -0.02549,1.07711 -0.07657,1.60801c-0.0408,0.52069 -0.10206,1.00054 -0.18377,1.43955c-0.07143,0.4288 -0.15314,0.78103 -0.24503,1.05669c-0.12251,0.34709 -0.28069,0.60743 -0.47475,0.78103c-0.19395,0.16332 -0.42366,0.24503 -0.68915,0.24503c-0.26538,0 -0.4696,-0.09703 -0.61257,-0.29097c-0.14286,-0.19395 -0.2144,-0.45429 -0.2144,-0.78103c0,-0.34709 0.0256,-0.76572 0.07657,-1.25578c0.05108,-0.50027 0.09703,-1.00564 0.13783,-1.51612c0.05108,-0.52069 0.07657,-0.99033 0.07657,-1.40892c0,-1.42934 -0.4696,-2.14401 -1.40892,-2.14401c-0.50023,0 -0.91886,0.22461 -1.25578,0.67383c-0.33692,0.43901 -0.56149,1.0669 -0.67383,1.88367c-0.03063,0.27566 -0.04594,0.61768 -0.04594,1.02606c0,0.40838 0,0.81677 0,1.22515c0.01028,0.39817 0,0.73509 -0.03063,1.01075c-0.0408,0.61257 -0.15818,1.05155 -0.35223,1.31704c-0.18377,0.26549 -0.43898,0.39817 -0.76572,0.39817c-0.37772,0 -0.66355,-0.1736 -0.8576,-0.52069c-0.19395,-0.35737 -0.29097,-0.95463 -0.29097,-1.79178c0,-0.4288 0.01028,-0.90866 0.03063,-1.43955c0.02046,-0.53089 0.04594,-1.0618 0.07657,-1.59269c0.04091,-0.54111 0.08685,-1.03117 0.13783,-1.47018c0.10217,-0.82698 0.25017,-1.48039 0.44412,-1.96024c0.19405,-0.49006 0.48503,-0.73509 0.87292,-0.73509zM193.70021,184.66323c-0.33692,0 -0.71463,-0.02046 -1.13326,-0.06126c-0.40835,-0.0408 -0.80652,-0.11737 -1.19452,-0.22972c-0.37772,-0.12251 -0.69418,-0.28583 -0.94949,-0.49006c-0.24503,-0.2144 -0.36754,-0.49006 -0.36754,-0.82698c0,-0.34709 0.1072,-0.60743 0.3216,-0.78103c0.22468,-0.17357 0.58709,-0.26034 1.08732,-0.26034c0.3472,0 0.73509,0.04594 1.16389,0.13783c0.43908,0.09189 0.8576,0.13783 1.25578,0.13783c0.59223,0 1.02606,-0.09189 1.30172,-0.27566c0.28594,-0.18377 0.4288,-0.43391 0.4288,-0.7504c0,-0.19398 -0.05612,-0.36754 -0.16846,-0.52069c-0.10206,-0.15314 -0.31132,-0.30629 -0.62789,-0.45943c-0.31646,-0.15314 -0.79121,-0.3216 -1.42424,-0.50537c-0.72481,-0.19398 -1.31189,-0.40838 -1.76115,-0.6432c-0.44915,-0.24503 -0.77589,-0.536 -0.98012,-0.87292c-0.20412,-0.33692 -0.30629,-0.73509 -0.30629,-1.19452c0,-0.56152 0.09703,-1.04649 0.29097,-1.45487c0.20423,-0.4186 0.47475,-0.77083 0.81166,-1.05669c0.33692,-0.29608 0.71474,-0.53089 1.13326,-0.70446c0.41863,-0.17357 0.84229,-0.30118 1.27109,-0.38286c0.43908,-0.08168 0.8576,-0.12251 1.25578,-0.12251c0.87806,0 1.59269,0.13783 2.14401,0.41349c0.5616,0.27566 0.84229,0.6432 0.84229,1.10263c0,0.32671 -0.1072,0.59215 -0.3216,0.79635c-0.20412,0.2042 -0.52069,0.30629 -0.94949,0.30629c-0.18377,0 -0.40321,-0.02552 -0.65852,-0.07657c-0.2552,-0.05105 -0.536,-0.10209 -0.84229,-0.15314c-0.30629,-0.05105 -0.6432,-0.07657 -1.01075,-0.07657c-0.62275,0 -1.10263,0.09699 -1.43955,0.29097c-0.33692,0.19398 -0.50537,0.50537 -0.50537,0.93418c0,0.18377 0.04594,0.35223 0.13783,0.50537c0.10217,0.15314 0.31143,0.3114 0.62789,0.47475c0.31657,0.16335 0.80149,0.35223 1.45487,0.56663c0.80663,0.24503 1.43955,0.51558 1.89898,0.81166c0.45943,0.28586 0.78617,0.61257 0.98012,0.98012c0.19405,0.36754 0.29097,0.78103 0.29097,1.24046c0,0.633 -0.17349,1.19452 -0.52069,1.68458c-0.33692,0.47989 -0.81166,0.85246 -1.42424,1.11795c-0.60229,0.26549 -1.30675,0.39817 -2.11338,0.39817zM200.7632,172.87116c0.40835,0 0.69932,0.11231 0.87292,0.33692c0.18377,0.22461 0.27566,0.48495 0.27566,0.78103c0,0.36754 -0.11234,0.65341 -0.33692,0.8576c-0.2144,0.19398 -0.52069,0.29097 -0.91886,0.29097c-0.388,0 -0.67897,-0.1072 -0.87292,-0.3216c-0.19405,-0.22461 -0.29097,-0.48495 -0.29097,-0.78103c0,-0.38797 0.11737,-0.67894 0.35223,-0.87292c0.23475,-0.19398 0.54103,-0.29097 0.91886,-0.29097zM200.85509,176.28627c0.32663,0 0.58195,0.30629 0.76572,0.91886c0.19395,0.61257 0.29097,1.58759 0.29097,2.92504c0,1.64375 -0.11748,2.82802 -0.35223,3.55293c-0.23486,0.72492 -0.59223,1.08732 -1.07201,1.08732c-0.36754,0 -0.63817,-0.26549 -0.81166,-0.79635c-0.1736,-0.54114 -0.26034,-1.48035 -0.26034,-2.81784c0,-1.64375 0.13269,-2.86379 0.39817,-3.66013c0.27566,-0.80655 0.62275,-1.20984 1.04138,-1.20984zM206.43193,176.01061h-0.16846c-0.09189,-0.44923 -0.13783,-0.88313 -0.13783,-1.30172c0,-0.7453 0.19395,-1.33235 0.58195,-1.76115c0.39817,-0.4288 1.06686,-0.6432 2.00651,-0.6432c0.57101,0 0.98012,0.09189 1.22515,0.27566c0.25487,0.17357 0.38286,0.43901 0.38286,0.79635c0,0.65341 -0.37301,1.01075 -1.11795,1.07201c-0.37848,0.04083 -0.67383,0.11231 -0.88823,0.2144c-0.20456,0.10209 -0.3577,0.26545 -0.45943,0.49006c-0.09189,0.2144 -0.15314,0.52069 -0.18377,0.91886l-0.27599,-0.03063c0.2552,-0.09189 0.54618,-0.16335 0.87325,-0.2144c0.32598,-0.05105 0.64758,-0.07657 0.96481,-0.07657c0.43865,0 0.79088,0.08168 1.05669,0.24503c0.27566,0.16335 0.41349,0.43901 0.41349,0.82698c0,0.37775 -0.1433,0.66363 -0.4288,0.8576c-0.2866,0.19398 -0.63883,0.29097 -1.05669,0.29097c-0.25597,0 -0.52616,-0.02042 -0.81166,-0.06126c-0.27566,-0.04083 -0.55132,-0.09699 -0.82698,-0.16846l0.07657,-0.22972c0.10173,0.52069 0.18815,1.09243 0.26034,1.71521c0.0711,0.61257 0.12689,1.23026 0.16846,1.85304c0.04047,0.61257 0.06126,1.18941 0.06126,1.73052c0,0.34709 -0.04594,0.67383 -0.13783,0.98012c-0.09189,0.29611 -0.23518,0.536 -0.4288,0.71978c-0.1841,0.1736 -0.41896,0.26034 -0.70479,0.26034c-0.4288,0 -0.73509,-0.16846 -0.91886,-0.50537c-0.18377,-0.34709 -0.27566,-0.77589 -0.27566,-1.28641c0,-0.49006 0.02035,-1.04138 0.06126,-1.65395c0.05097,-0.62278 0.12251,-1.26089 0.2144,-1.9143c0.10206,-0.66363 0.21943,-1.30172 0.35223,-1.9143l0.18377,0.13783c-0.52069,0.22461 -1.18435,0.33692 -1.99087,0.33692c-0.4288,0 -0.76069,-0.08168 -0.99543,-0.24503c-0.23486,-0.16335 -0.35223,-0.41349 -0.35223,-0.7504c0,-0.36754 0.14286,-0.64831 0.4288,-0.84229c0.28583,-0.2042 0.66869,-0.30629 1.14858,-0.30629c0.32663,0 0.63292,0.02042 0.91886,0.06126c0.296,0.03063 0.55635,0.07146 0.78103,0.12251zM218.64109,184.77043c-0.34785,0 -0.58742,-0.13269 -0.71978,-0.39817c-0.12251,-0.27566 -0.19471,-0.7096 -0.2144,-1.30172l0.15314,0.07657c-0.5721,1.11281 -1.65395,1.66927 -3.24665,1.66927c-0.72524,0 -1.32797,-0.12766 -1.8071,-0.38286c-0.48021,-0.26549 -0.83791,-0.61257 -1.07201,-1.04138c-0.22534,-0.43898 -0.33692,-0.91372 -0.33692,-1.42424c0,-0.87803 0.30629,-1.57227 0.91886,-2.08275c0.61257,-0.52069 1.42424,-0.78103 2.43498,-0.78103c0.66289,0 1.24046,0.09699 1.73052,0.29097c0.49006,0.19398 0.90792,0.46454 1.25578,0.81166l-0.26034,-0.03063c-0.0722,-1.03117 -0.29644,-1.76626 -0.67383,-2.20527c-0.36754,-0.44923 -0.8937,-0.67383 -1.57738,-0.67383c-0.39817,0 -0.76572,0.06126 -1.10263,0.18377c-0.33692,0.12251 -0.64867,0.25014 -0.93418,0.38286c-0.27566,0.12251 -0.536,0.18377 -0.78103,0.18377c-0.24503,0 -0.43974,-0.08168 -0.58195,-0.24503c-0.13345,-0.16335 -0.19909,-0.37265 -0.19909,-0.62789c0,-0.36754 0.17283,-0.71467 0.52069,-1.04138c0.35661,-0.32671 0.82698,-0.59215 1.40892,-0.79635c0.58195,-0.2042 1.21421,-0.30629 1.89898,-0.30629c0.82698,0 1.53581,0.19909 2.1287,0.59726c0.59179,0.39817 1.04138,0.98012 1.34766,1.74584c0.26472,0.65341 0.45396,1.3834 0.56663,2.18996c0.11158,0.80655 0.16846,1.66927 0.16846,2.58813c0,0.69429 -0.0361,1.23029 -0.1072,1.60801c-0.0722,0.37772 -0.18377,0.6432 -0.33692,0.79635c-0.1433,0.14297 -0.33692,0.2144 -0.58195,0.2144zM215.25661,183.05522c0.33692,0 0.67821,-0.04594 1.02606,-0.13783c0.34676,-0.10206 0.63773,-0.25017 0.87292,-0.44412c0.23409,-0.19398 0.35223,-0.43391 0.35223,-0.71978c0,-0.24503 -0.10283,-0.44412 -0.30629,-0.59726c-0.19471,-0.16335 -0.45506,-0.28586 -0.78103,-0.36754c-0.31723,-0.08168 -0.65852,-0.12251 -1.02606,-0.12251c-0.62351,0 -1.09826,0.1072 -1.42424,0.3216c-0.31723,0.2144 -0.47475,0.50027 -0.47475,0.8576c0,0.38797 0.14767,0.68915 0.44412,0.90355c0.30629,0.20423 0.74493,0.30629 1.31704,0.30629zM223.65873,175.39803h-0.30629c-0.03063,-0.44923 -0.01969,-0.87292 0.03063,-1.27109c0.05141,-0.40838 0.15861,-0.73509 0.3216,-0.98012c0.17393,-0.25524 0.41896,-0.38286 0.73509,-0.38286c0.2866,0 0.49553,0.09189 0.62789,0.27566c0.13345,0.18377 0.19909,0.43901 0.19909,0.76572c0,0.6432 -0.12251,1.19452 -0.36754,1.65395l-0.27566,-0.03063c0.55132,-0.19398 1.17483,-0.29097 1.86835,-0.29097c0.43974,0 0.7865,0.08678 1.04138,0.26034c0.26581,0.16335 0.39817,0.44412 0.39817,0.84229c0,0.37775 -0.15314,0.66363 -0.45943,0.8576c-0.30629,0.19398 -0.68915,0.29097 -1.14858,0.29097c-0.27566,0 -0.57101,-0.01021 -0.88823,-0.03063c-0.30629,-0.03063 -0.60711,-0.07657 -0.90355,-0.13783l0.26034,-0.3216c0.09189,0.38797 0.1794,0.83208 0.26034,1.33235c0.09189,0.49006 0.17393,1.00054 0.24503,1.53144c0.0722,0.53089 0.12798,1.04649 0.16846,1.54675c0.04157,0.50027 0.06126,0.94949 0.06126,1.34766c0,0.65338 -0.10173,1.16903 -0.30629,1.54675c-0.20346,0.37772 -0.50537,0.56663 -0.90355,0.56663c-0.31613,0 -0.56663,-0.09703 -0.7504,-0.29097c-0.17283,-0.19395 -0.30082,-0.43898 -0.38286,-0.73509c-0.0711,-0.30629 -0.11705,-0.62275 -0.13783,-0.94949c-0.00984,-0.32674 -0.01531,-0.62278 -0.01531,-0.88823c0,-0.44923 0.02078,-0.9546 0.06126,-1.51612c0.04157,-0.57174 0.09736,-1.15878 0.16846,-1.76115c0.08204,-0.60237 0.17393,-1.18432 0.27566,-1.74584l0.30629,0.26034c-0.52069,0.26545 -1.16389,0.39817 -1.92961,0.39817c-0.46928,0 -0.83135,-0.08678 -1.08732,-0.26034c-0.25487,-0.17357 -0.38286,-0.44412 -0.38286,-0.81166c0,-0.39817 0.1433,-0.70446 0.4288,-0.91886c0.2866,-0.22461 0.66946,-0.33692 1.14858,-0.33692c0.31723,0 0.61257,0.02042 0.88823,0.06126c0.2866,0.03063 0.536,0.07146 0.7504,0.12251zM229.88184,180.43646c-0.4288,0 -0.74603,-0.07657 -0.94949,-0.22972c-0.20456,-0.16335 -0.30629,-0.37265 -0.30629,-0.62789c0,-0.24503 0.09189,-0.43901 0.27566,-0.58195c0.18377,-0.15314 0.49006,-0.28586 0.91886,-0.39817c0.41786,-0.11231 0.89808,-0.18888 1.43955,-0.22972c0.54038,-0.04083 1.03044,-0.06126 1.47018,-0.06126c0.53053,0 0.90792,0.07657 1.13326,0.22972c0.22425,0.15314 0.33692,0.35734 0.33692,0.61257c0,0.28586 -0.09736,0.51048 -0.29097,0.67383c-0.18377,0.15314 -0.45506,0.27055 -0.81166,0.35223c-0.2866,0.05105 -0.62789,0.09699 -1.02606,0.13783c-0.38833,0.04083 -0.78103,0.07146 -1.17921,0.09189c-0.38833,0.02042 -0.72524,0.03063 -1.01075,0.03063zM238.61103,184.66323c-0.33692,0 -0.71431,-0.02046 -1.13326,-0.06126c-0.40802,-0.0408 -0.80619,-0.11737 -1.19452,-0.22972c-0.37739,-0.12251 -0.69352,-0.28583 -0.94949,-0.49006c-0.24503,-0.2144 -0.36754,-0.49006 -0.36754,-0.82698c0,-0.34709 0.1072,-0.60743 0.3216,-0.78103c0.22534,-0.17357 0.58742,-0.26034 1.08732,-0.26034c0.34785,0 0.73509,0.04594 1.16389,0.13783c0.43974,0.09189 0.8576,0.13783 1.25578,0.13783c0.59288,0 1.02606,-0.09189 1.30172,-0.27566c0.2866,-0.18377 0.4288,-0.43391 0.4288,-0.7504c0,-0.19398 -0.05579,-0.36754 -0.16846,-0.52069c-0.10173,-0.15314 -0.31066,-0.30629 -0.62789,-0.45943c-0.31613,-0.15314 -0.79088,-0.3216 -1.42424,-0.50537c-0.72415,-0.19398 -1.31157,-0.40838 -1.76115,-0.6432c-0.44849,-0.24503 -0.77556,-0.536 -0.98012,-0.87292c-0.20346,-0.33692 -0.30629,-0.73509 -0.30629,-1.19452c0,-0.56152 0.09736,-1.04649 0.29097,-1.45487c0.20456,-0.4186 0.47475,-0.77083 0.81166,-1.05669c0.33692,-0.29608 0.7154,-0.53089 1.13326,-0.70446c0.41896,-0.17357 0.84229,-0.30118 1.27109,-0.38286c0.43974,-0.08168 0.8576,-0.12251 1.25578,-0.12251c0.87839,0 1.59269,0.13783 2.14401,0.41349c0.56226,0.27566 0.84229,0.6432 0.84229,1.10263c0,0.32671 -0.1072,0.59215 -0.3216,0.79635c-0.20346,0.2042 -0.52069,0.30629 -0.94949,0.30629c-0.18377,0 -0.40255,-0.02552 -0.65852,-0.07657c-0.25487,-0.05105 -0.536,-0.10209 -0.84229,-0.15314c-0.30629,-0.05105 -0.6432,-0.07657 -1.01075,-0.07657c-0.62242,0 -1.10263,0.09699 -1.43955,0.29097c-0.33692,0.19398 -0.50537,0.50537 -0.50537,0.93418c0,0.18377 0.04594,0.35223 0.13783,0.50537c0.10283,0.15314 0.31176,0.3114 0.62789,0.47475c0.31723,0.16335 0.80182,0.35223 1.45487,0.56663c0.80729,0.24503 1.43955,0.51558 1.89898,0.81166c0.45943,0.28586 0.7865,0.61257 0.98012,0.98012c0.19471,0.36754 0.29097,0.78103 0.29097,1.24046c0,0.633 -0.17283,1.19452 -0.52069,1.68458c-0.33692,0.47989 -0.81166,0.85246 -1.42424,1.11795c-0.60164,0.26549 -1.3061,0.39817 -2.11338,0.39817zM245.67424,172.87116c0.40802,0 0.69899,0.11231 0.87292,0.33692c0.18377,0.22461 0.27566,0.48495 0.27566,0.78103c0,0.36754 -0.11267,0.65341 -0.33692,0.8576c-0.2144,0.19398 -0.52069,0.29097 -0.91886,0.29097c-0.38833,0 -0.6793,-0.1072 -0.87292,-0.3216c-0.19362,-0.22461 -0.29097,-0.48495 -0.29097,-0.78103c0,-0.38797 0.11705,-0.67894 0.35223,-0.87292c0.23518,-0.19398 0.54147,-0.29097 0.91886,-0.29097zM245.76612,176.28627c0.32707,0 0.58195,0.30629 0.76572,0.91886c0.19362,0.61257 0.29097,1.58759 0.29097,2.92504c0,1.64375 -0.11705,2.82802 -0.35223,3.55293c-0.23518,0.72492 -0.59179,1.08732 -1.07201,1.08732c-0.36754,0 -0.63773,-0.26549 -0.81166,-0.79635c-0.17393,-0.54114 -0.26034,-1.48035 -0.26034,-2.81784c0,-1.64375 0.13236,-2.86379 0.39817,-3.66013c0.27566,-0.80655 0.62242,-1.20984 1.04138,-1.20984zM251.34274,176.01061h-0.16846c-0.09189,-0.44923 -0.13783,-0.88313 -0.13783,-1.30172c0,-0.7453 0.19471,-1.33235 0.58195,-1.76115c0.39817,-0.4288 1.06763,-0.6432 2.00618,-0.6432c0.5721,0 0.98012,0.09189 1.22515,0.27566c0.25597,0.17357 0.38286,0.43901 0.38286,0.79635c0,0.65341 -0.37192,1.01075 -1.11795,1.07201c-0.37739,0.04083 -0.67383,0.11231 -0.88823,0.2144c-0.20346,0.10209 -0.35661,0.26545 -0.45943,0.49006c-0.09189,0.2144 -0.15314,0.52069 -0.18377,0.91886l-0.27566,-0.03063c0.25597,-0.09189 0.54694,-0.16335 0.87292,-0.2144c0.32707,-0.05105 0.64867,-0.07657 0.96481,-0.07657c0.43974,0 0.79197,0.08168 1.05669,0.24503c0.27566,0.16335 0.41349,0.43901 0.41349,0.82698c0,0.37775 -0.1422,0.66363 -0.4288,0.8576c-0.2855,0.19398 -0.63773,0.29097 -1.05669,0.29097c-0.25487,0 -0.52506,-0.02042 -0.81166,-0.06126c-0.27566,-0.04083 -0.55132,-0.09699 -0.82698,-0.16846l0.07657,-0.22972c0.10283,0.52069 0.18924,1.09243 0.26034,1.71521c0.0722,0.61257 0.12798,1.23026 0.16846,1.85304c0.04157,0.61257 0.06126,1.18941 0.06126,1.73052c0,0.34709 -0.04594,0.67383 -0.13783,0.98012c-0.09189,0.29611 -0.23409,0.536 -0.4288,0.71978c-0.18377,0.1736 -0.41786,0.26034 -0.70446,0.26034c-0.4288,0 -0.73509,-0.16846 -0.91886,-0.50537c-0.18377,-0.34709 -0.27566,-0.77589 -0.27566,-1.28641c0,-0.49006 0.02078,-1.04138 0.06126,-1.65395c0.05141,-0.62278 0.12251,-1.26089 0.2144,-1.9143c0.10283,-0.66363 0.21987,-1.30172 0.35223,-1.9143l0.18377,0.13783c-0.52069,0.22461 -1.18358,0.33692 -1.99087,0.33692c-0.4288,0 -0.76025,-0.08168 -0.99543,-0.24503c-0.23409,-0.16335 -0.35223,-0.41349 -0.35223,-0.7504c0,-0.36754 0.1433,-0.64831 0.4288,-0.84229c0.2866,-0.2042 0.66946,-0.30629 1.14858,-0.30629c0.32707,0 0.63336,0.02042 0.91886,0.06126c0.29644,0.03063 0.55679,0.07146 0.78103,0.12251zM263.55158,184.77043c-0.34676,0 -0.58742,-0.13269 -0.71978,-0.39817c-0.12251,-0.27566 -0.19362,-0.7096 -0.2144,-1.30172l0.15314,0.07657c-0.5721,1.11281 -1.65395,1.66927 -3.24665,1.66927c-0.72524,0 -1.32688,-0.12766 -1.8071,-0.38286c-0.48021,-0.26549 -0.83682,-0.61257 -1.07201,-1.04138c-0.22425,-0.43898 -0.33692,-0.91372 -0.33692,-1.42424c0,-0.87803 0.30629,-1.57227 0.91886,-2.08275c0.61257,-0.52069 1.42424,-0.78103 2.43498,-0.78103c0.66399,0 1.24046,0.09699 1.73052,0.29097c0.49006,0.19398 0.90902,0.46454 1.25578,0.81166l-0.26034,-0.03063c-0.0711,-1.03117 -0.29644,-1.76626 -0.67383,-2.20527c-0.36754,-0.44923 -0.8937,-0.67383 -1.57738,-0.67383c-0.39817,0 -0.76572,0.06126 -1.10263,0.18377c-0.33692,0.12251 -0.64867,0.25014 -0.93418,0.38286c-0.27566,0.12251 -0.536,0.18377 -0.78103,0.18377c-0.24503,0 -0.43865,-0.08168 -0.58195,-0.24503c-0.13236,-0.16335 -0.19909,-0.37265 -0.19909,-0.62789c0,-0.36754 0.17393,-0.71467 0.52069,-1.04138c0.3577,-0.32671 0.82698,-0.59215 1.40892,-0.79635c0.58195,-0.2042 1.2153,-0.30629 1.89898,-0.30629c0.82698,0 1.53691,0.19909 2.1287,0.59726c0.59179,0.39817 1.04138,0.98012 1.34766,1.74584c0.26581,0.65341 0.45396,1.3834 0.56663,2.18996c0.11267,0.80655 0.16846,1.66927 0.16846,2.58813c0,0.69429 -0.0361,1.23029 -0.1072,1.60801c-0.0711,0.37772 -0.18377,0.6432 -0.33692,0.79635c-0.1433,0.14297 -0.33692,0.2144 -0.58195,0.2144zM260.1671,183.05522c0.33692,0 0.6793,-0.04594 1.02606,-0.13783c0.34676,-0.10206 0.63773,-0.25017 0.87292,-0.44412c0.23518,-0.19398 0.35223,-0.43391 0.35223,-0.71978c0,-0.24503 -0.10173,-0.44412 -0.30629,-0.59726c-0.19362,-0.16335 -0.45396,-0.28586 -0.78103,-0.36754c-0.31613,-0.08168 -0.65852,-0.12251 -1.02606,-0.12251c-0.62242,0 -1.09717,0.1072 -1.42424,0.3216c-0.31613,0.2144 -0.47475,0.50027 -0.47475,0.8576c0,0.38797 0.14767,0.68915 0.44412,0.90355c0.30629,0.20423 0.74493,0.30629 1.31704,0.30629zM268.57031,175.39803h-0.30629c-0.03063,-0.44923 -0.02078,-0.87292 0.03063,-1.27109c0.05141,-0.40838 0.15861,-0.73509 0.3216,-0.98012c0.17393,-0.25524 0.41896,-0.38286 0.73509,-0.38286c0.2855,0 0.49553,0.09189 0.62789,0.27566c0.13236,0.18377 0.19909,0.43901 0.19909,0.76572c0,0.6432 -0.12251,1.19452 -0.36754,1.65395l-0.27566,-0.03063c0.55132,-0.19398 1.17374,-0.29097 1.86835,-0.29097c0.43865,0 0.7865,0.08678 1.04138,0.26034c0.26581,0.16335 0.39817,0.44412 0.39817,0.84229c0,0.37775 -0.15314,0.66363 -0.45943,0.8576c-0.30629,0.19398 -0.68915,0.29097 -1.14858,0.29097c-0.27566,0 -0.5721,-0.01021 -0.88823,-0.03063c-0.30629,-0.03063 -0.60711,-0.07657 -0.90355,-0.13783l0.26034,-0.3216c0.09189,0.38797 0.1783,0.83208 0.26034,1.33235c0.09189,0.49006 0.17393,1.00054 0.24503,1.53144c0.0711,0.53089 0.12798,1.04649 0.16846,1.54675c0.04047,0.50027 0.06126,0.94949 0.06126,1.34766c0,0.65338 -0.10173,1.16903 -0.30629,1.54675c-0.20456,0.37772 -0.50537,0.56663 -0.90355,0.56663c-0.31613,0 -0.56663,-0.09703 -0.7504,-0.29097c-0.17393,-0.19395 -0.30082,-0.43898 -0.38286,-0.73509c-0.0711,-0.30629 -0.11705,-0.62275 -0.13783,-0.94949c-0.00984,-0.32674 -0.01531,-0.62278 -0.01531,-0.88823c0,-0.44923 0.02078,-0.9546 0.06126,-1.51612c0.04047,-0.57174 0.09736,-1.15878 0.16846,-1.76115c0.08204,-0.60237 0.17393,-1.18432 0.27566,-1.74584l0.30629,0.26034c-0.52069,0.26545 -1.16389,0.39817 -1.92961,0.39817c-0.46928,0 -0.83245,-0.08678 -1.08732,-0.26034c-0.25487,-0.17357 -0.38286,-0.44412 -0.38286,-0.81166c0,-0.39817 0.1433,-0.70446 0.4288,-0.91886c0.2855,-0.22461 0.66836,-0.33692 1.14858,-0.33692c0.31613,0 0.61257,0.02042 0.88823,0.06126c0.2855,0.03063 0.536,0.07146 0.7504,0.12251zM280.14032,184.69385c-0.63336,0 -1.15842,-0.11737 -1.57738,-0.35223c-0.40802,-0.24503 -0.71431,-0.61772 -0.91886,-1.11795c-0.1433,-0.34709 -0.2505,-0.76572 -0.3216,-1.25578c-0.06126,-0.50027 -0.09189,-1.07201 -0.09189,-1.71521c0,-1.10263 0.0361,-2.01129 0.1072,-2.72596c0.0711,-0.72488 0.17393,-1.30683 0.30629,-1.74584c0.1433,-0.44923 0.30082,-0.81166 0.47475,-1.08732c0.27566,-0.4186 0.71431,-0.75551 1.31704,-1.01075c0.60273,-0.25524 1.45487,-0.38286 2.5575,-0.38286c0.73509,0 1.32251,0.11231 1.76115,0.33692c0.44959,0.2144 0.77119,0.50027 0.96481,0.8576c0.20456,0.35734 0.30629,0.75551 0.30629,1.19452c0,0.69426 -0.20456,1.26598 -0.61257,1.71521c-0.40802,0.44923 -0.94402,0.80655 -1.60801,1.07201v0.06126c0.72524,0.08168 1.28641,0.31649 1.68458,0.70446c0.40802,0.37775 0.61257,0.91886 0.61257,1.62332c0,0.56152 -0.1433,1.07711 -0.4288,1.54675c-0.27566,0.45943 -0.65305,0.86275 -1.13326,1.20984c-0.46928,0.33692 -1.0009,0.6024 -1.59269,0.79635c-0.59179,0.18377 -1.19452,0.27566 -1.8071,0.27566zM280.61507,182.85613c0.49006,0 0.92433,-0.08171 1.30172,-0.24503c0.38833,-0.16332 0.68915,-0.38286 0.90355,-0.65852c0.22425,-0.28586 0.33692,-0.60747 0.33692,-0.96481c0,-0.38797 -0.18924,-0.70957 -0.56663,-0.96481c-0.36754,-0.26545 -0.94402,-0.39817 -1.73052,-0.39817c-0.53053,0 -0.95496,0.12762 -1.27109,0.38286c-0.30629,0.24503 -0.45943,0.66872 -0.45943,1.27109c0,0.57174 0.12251,0.98012 0.36754,1.22515c0.24503,0.23486 0.61804,0.35223 1.11795,0.35223zM280.67632,178.00147c0.69462,0 1.27109,-0.15314 1.73052,-0.45943c0.46928,-0.31649 0.70446,-0.72488 0.70446,-1.22515c0,-0.36754 -0.14767,-0.66363 -0.44412,-0.88823c-0.29644,-0.22461 -0.72962,-0.33692 -1.30172,-0.33692c-0.62242,0 -1.13326,0.12251 -1.53144,0.36754c-0.39817,0.24503 -0.59726,0.66363 -0.59726,1.25578c0,0.47985 0.12798,0.81677 0.38286,1.01075c0.26581,0.18377 0.61804,0.27566 1.05669,0.27566zM293.49226,184.77043c-0.34676,0 -0.58632,-0.13269 -0.71978,-0.39817c-0.12251,-0.27566 -0.19362,-0.7096 -0.2144,-1.30172l0.15314,0.07657c-0.57101,1.11281 -1.65395,1.66927 -3.24665,1.66927c-0.72415,0 -1.32688,-0.12766 -1.8071,-0.38286c-0.47912,-0.26549 -0.83682,-0.61257 -1.07201,-1.04138c-0.22425,-0.43898 -0.33692,-0.91372 -0.33692,-1.42424c0,-0.87803 0.30629,-1.57227 0.91886,-2.08275c0.61257,-0.52069 1.42424,-0.78103 2.43498,-0.78103c0.66399,0 1.24046,0.09699 1.73052,0.29097c0.49006,0.19398 0.90902,0.46454 1.25578,0.81166l-0.26034,-0.03063c-0.0711,-1.03117 -0.29535,-1.76626 -0.67383,-2.20527c-0.36754,-0.44923 -0.89261,-0.67383 -1.57738,-0.67383c-0.39817,0 -0.76572,0.06126 -1.10263,0.18377c-0.33692,0.12251 -0.64758,0.25014 -0.93418,0.38286c-0.27566,0.12251 -0.536,0.18377 -0.78103,0.18377c-0.24503,0 -0.43865,-0.08168 -0.58195,-0.24503c-0.13236,-0.16335 -0.19909,-0.37265 -0.19909,-0.62789c0,-0.36754 0.17393,-0.71467 0.52069,-1.04138c0.3577,-0.32671 0.82698,-0.59215 1.40892,-0.79635c0.58195,-0.2042 1.2153,-0.30629 1.89898,-0.30629c0.82698,0 1.53691,0.19909 2.1287,0.59726c0.59288,0.39817 1.04138,0.98012 1.34766,1.74584c0.26581,0.65341 0.45506,1.3834 0.56663,2.18996c0.11267,0.80655 0.16846,1.66927 0.16846,2.58813c0,0.69429 -0.035,1.23029 -0.1072,1.60801c-0.0711,0.37772 -0.18377,0.6432 -0.33692,0.79635c-0.1422,0.14297 -0.33692,0.2144 -0.58195,0.2144zM290.10779,183.05522c0.33692,0 0.6793,-0.04594 1.02606,-0.13783c0.34785,-0.10206 0.63883,-0.25017 0.87292,-0.44412c0.23518,-0.19398 0.35223,-0.43391 0.35223,-0.71978c0,-0.24503 -0.10173,-0.44412 -0.30629,-0.59726c-0.19362,-0.16335 -0.45396,-0.28586 -0.78103,-0.36754c-0.31613,-0.08168 -0.65852,-0.12251 -1.02606,-0.12251c-0.62242,0 -1.09717,0.1072 -1.42424,0.3216c-0.31613,0.2144 -0.47475,0.50027 -0.47475,0.8576c0,0.38797 0.14877,0.68915 0.44412,0.90355c0.30629,0.20423 0.74603,0.30629 1.31704,0.30629zM297.94875,175.09174c0.32707,0 0.54585,0.13272 0.65852,0.39817c0.12251,0.26545 0.18377,0.65852 0.18377,1.17921c0,0.12251 -0.00984,0.25524 -0.03063,0.39817c-0.00984,0.13272 -0.03063,0.25524 -0.06126,0.36754l-0.03063,-0.30629c0.24503,-0.66363 0.62242,-1.17921 1.13326,-1.54675c0.51084,-0.37775 1.05122,-0.56663 1.62332,-0.56663c0.63336,0 1.15842,0.17866 1.57738,0.536c0.4288,0.35734 0.74493,0.8576 0.94949,1.50081c0.2144,0.6432 0.3216,1.40381 0.3216,2.28184c0,0.54111 -0.02516,1.07711 -0.07657,1.60801c-0.04047,0.52069 -0.10173,1.00054 -0.18377,1.43955c-0.0711,0.4288 -0.15314,0.78103 -0.24503,1.05669c-0.12251,0.34709 -0.28113,0.60743 -0.47475,0.78103c-0.19362,0.16332 -0.42333,0.24503 -0.68915,0.24503c-0.26581,0 -0.46928,-0.09703 -0.61257,-0.29097c-0.1433,-0.19395 -0.2144,-0.45429 -0.2144,-0.78103c0,-0.34709 0.02516,-0.76572 0.07657,-1.25578c0.05141,-0.50027 0.09736,-1.00564 0.13783,-1.51612c0.05141,-0.52069 0.07657,-0.99033 0.07657,-1.40892c0,-1.42934 -0.46928,-2.14401 -1.40892,-2.14401c-0.4999,0 -0.91886,0.22461 -1.25578,0.67383c-0.33692,0.43901 -0.56116,1.0669 -0.67383,1.88367c-0.03063,0.27566 -0.04594,0.61768 -0.04594,1.02606c0,0.40838 0,0.81677 0,1.22515c0.00984,0.39817 0,0.73509 -0.03063,1.01075c-0.04047,0.61257 -0.15861,1.05155 -0.35223,1.31704c-0.18377,0.26549 -0.43865,0.39817 -0.76572,0.39817c-0.37739,0 -0.66399,-0.1736 -0.8576,-0.52069c-0.19362,-0.35737 -0.29097,-0.95463 -0.29097,-1.79178c0,-0.4288 0.00984,-0.90866 0.03063,-1.43955c0.02078,-0.53089 0.04594,-1.0618 0.07657,-1.59269c0.04047,-0.54111 0.08642,-1.03117 0.13783,-1.47018c0.10173,-0.82698 0.2505,-1.48039 0.44412,-1.96024c0.19362,-0.49006 0.48459,-0.73509 0.87292,-0.73509zM309.0626,184.37225c-0.95934,0 -1.74037,-0.36754 -2.3431,-1.10263c-0.60273,-0.74526 -0.90355,-1.87346 -0.90355,-3.38448c0,-1.61312 0.29097,-2.79232 0.87292,-3.53762c0.58195,-0.7453 1.34766,-1.11795 2.29716,-1.11795c0.56116,0 1.05669,0.14294 1.48549,0.4288c0.4288,0.28586 0.79635,0.68915 1.10263,1.20984l-0.12251,0.2144c-0.03063,-0.14294 -0.05579,-0.29608 -0.07657,-0.45943c-0.02078,-0.16335 -0.03063,-0.28586 -0.03063,-0.36754c0,-0.4186 0.06673,-0.7402 0.19909,-0.96481c0.1433,-0.23482 0.36208,-0.35223 0.65852,-0.35223c0.32707,0 0.58195,0.13272 0.76572,0.39817c0.19362,0.26545 0.34239,0.6432 0.44412,1.13326c0.13236,0.50027 0.24503,1.13837 0.33692,1.9143c0.09189,0.76572 0.13783,1.54164 0.13783,2.32778c0,0.98012 -0.0361,1.80195 -0.1072,2.46561c-0.0711,0.66366 -0.18924,1.21498 -0.35223,1.65395c-0.16299,0.43898 -0.37739,0.82183 -0.6432,1.14858c-0.43865,0.53086 -1.00528,0.93418 -1.6999,1.20984c-0.68368,0.28583 -1.47565,0.4288 -2.37373,0.4288c-0.6432,0 -1.15842,-0.06126 -1.54675,-0.18377c-0.38833,-0.11234 -0.66836,-0.27052 -0.84229,-0.47475c-0.16299,-0.19395 -0.24503,-0.41349 -0.24503,-0.65852c0,-0.2552 0.0711,-0.4696 0.2144,-0.6432c0.1433,-0.16332 0.3577,-0.24503 0.6432,-0.24503c0.25487,0 0.55132,0.0408 0.88823,0.12251c0.34676,0.08171 0.75587,0.12251 1.22515,0.12251c0.98996,0 1.69005,-0.23486 2.09807,-0.70446c0.41896,-0.45943 0.62789,-1.12309 0.62789,-1.99087c0,-0.23486 -0.01531,-0.51052 -0.04594,-0.82698l0.2144,0.07657c-0.25487,0.65338 -0.63336,1.17921 -1.13326,1.57738c-0.4999,0.388 -1.08185,0.58195 -1.74584,0.58195zM309.64455,182.48859c0.32707,0 0.65305,-0.08678 0.98012,-0.26034c0.32707,-0.17357 0.59726,-0.45943 0.81166,-0.8576c0.2144,-0.39817 0.3216,-0.93418 0.3216,-1.60801c0,-0.80655 -0.18924,-1.46507 -0.56663,-1.97555c-0.37739,-0.51048 -0.90902,-0.76572 -1.59269,-0.76572c-0.59179,0 -1.02606,0.22461 -1.30172,0.67383c-0.27566,0.44923 -0.41349,1.12816 -0.41349,2.03681c0,0.86781 0.13783,1.54675 0.41349,2.03681c0.27566,0.47985 0.72524,0.71978 1.34766,0.71978zM322.64536,184.5254c-0.27566,0 -0.49006,-0.09189 -0.6432,-0.27566c-0.1433,-0.19395 -0.23956,-0.43898 -0.29097,-0.73509c-0.05141,-0.30629 -0.07657,-0.62789 -0.07657,-0.96481l0.07657,-0.06126c-0.10173,0.43898 -0.30082,0.8168 -0.59726,1.13326c-0.29644,0.31646 -0.63773,0.56149 -1.02606,0.73509c-0.38833,0.16332 -0.77556,0.24503 -1.16389,0.24503c-0.52069,0 -0.99543,-0.12251 -1.42424,-0.36754c-0.4288,-0.24503 -0.76025,-0.62275 -0.99543,-1.13326c-0.23518,-0.54114 -0.41896,-1.22004 -0.55132,-2.03681c-0.13236,-0.82698 -0.19909,-1.67437 -0.19909,-2.54219c0,-0.46964 0.02078,-0.90355 0.06126,-1.30172c0.04047,-0.39817 0.1072,-0.72488 0.19909,-0.98012c0.08204,-0.26545 0.20456,-0.45943 0.36754,-0.58195c0.16299,-0.13272 0.37301,-0.19909 0.62789,-0.19909c0.29644,0 0.52616,0.11741 0.68915,0.35223c0.17393,0.22461 0.28113,0.54111 0.3216,0.94949c0.04047,0.33692 0.06673,0.75551 0.07657,1.25578c0.02078,0.49006 0.0361,0.98523 0.04594,1.48549c0.02078,0.49006 0.04594,0.90355 0.07657,1.24046c0.06126,0.61257 0.21987,1.0669 0.47475,1.36298c0.25487,0.28586 0.56663,0.4288 0.93418,0.4288c0.54147,0 0.95496,-0.2042 1.24046,-0.61257c0.2855,-0.40838 0.4288,-0.98012 0.4288,-1.71521c0,-0.36754 -0.02078,-0.78103 -0.06126,-1.24046c-0.04047,-0.46964 -0.08642,-0.92397 -0.13783,-1.36298c-0.04047,-0.43901 -0.06126,-0.80146 -0.06126,-1.08732c0,-0.47985 0.08204,-0.82187 0.24503,-1.02606c0.16299,-0.2144 0.38833,-0.3216 0.67383,-0.3216c0.24503,0 0.44959,0.06637 0.61257,0.19909c0.17393,0.13272 0.31176,0.31649 0.41349,0.55132c0.1433,0.30629 0.26581,0.72488 0.36754,1.25578c0.10173,0.53089 0.18377,1.13326 0.24503,1.8071c0.06126,0.67383 0.09189,1.3834 0.09189,2.1287c0,1.14347 -0.07657,2.00104 -0.22972,2.57281c-0.15314,0.56149 -0.42333,0.84229 -0.81166,0.84229zM327.11168,175.09174c0.32707,0 0.54585,0.13272 0.65852,0.39817c0.12251,0.26545 0.18377,0.65852 0.18377,1.17921c0,0.12251 -0.00984,0.25524 -0.03063,0.39817c-0.00984,0.13272 -0.03063,0.25524 -0.06126,0.36754l-0.03063,-0.30629c0.24503,-0.66363 0.62242,-1.17921 1.13326,-1.54675c0.51084,-0.37775 1.05122,-0.56663 1.62332,-0.56663c0.63336,0 1.15842,0.17866 1.57738,0.536c0.4288,0.35734 0.74493,0.8576 0.94949,1.50081c0.2144,0.6432 0.3216,1.40381 0.3216,2.28184c0,0.54111 -0.02516,1.07711 -0.07657,1.60801c-0.04047,0.52069 -0.10173,1.00054 -0.18377,1.43955c-0.0711,0.4288 -0.15314,0.78103 -0.24503,1.05669c-0.12251,0.34709 -0.28113,0.60743 -0.47475,0.78103c-0.19362,0.16332 -0.42333,0.24503 -0.68915,0.24503c-0.26581,0 -0.46928,-0.09703 -0.61257,-0.29097c-0.1433,-0.19395 -0.2144,-0.45429 -0.2144,-0.78103c0,-0.34709 0.02516,-0.76572 0.07657,-1.25578c0.05141,-0.50027 0.09736,-1.00564 0.13783,-1.51612c0.05141,-0.52069 0.07657,-0.99033 0.07657,-1.40892c0,-1.42934 -0.46928,-2.14401 -1.40892,-2.14401c-0.4999,0 -0.91886,0.22461 -1.25578,0.67383c-0.33692,0.43901 -0.56116,1.0669 -0.67383,1.88367c-0.03063,0.27566 -0.04594,0.61768 -0.04594,1.02606c0,0.40838 0,0.81677 0,1.22515c0.00984,0.39817 0,0.73509 -0.03063,1.01075c-0.04047,0.61257 -0.15861,1.05155 -0.35223,1.31704c-0.18377,0.26549 -0.43865,0.39817 -0.76572,0.39817c-0.37739,0 -0.66399,-0.1736 -0.8576,-0.52069c-0.19362,-0.35737 -0.29097,-0.95463 -0.29097,-1.79178c0,-0.4288 0.00984,-0.90866 0.03063,-1.43955c0.02078,-0.53089 0.04594,-1.0618 0.07657,-1.59269c0.04047,-0.54111 0.08642,-1.03117 0.13783,-1.47018c0.10173,-0.82698 0.2505,-1.48039 0.44412,-1.96024c0.19362,-0.49006 0.48459,-0.73509 0.87292,-0.73509zM340.51067,184.96951c-0.6432,0 -1.14311,-0.0408 -1.50081,-0.12251c-0.34676,-0.08171 -0.58742,-0.19395 -0.71978,-0.33692c-0.13236,-0.15314 -0.20456,-0.3216 -0.2144,-0.50537c0,-0.28583 0.16846,-0.52583 0.50537,-0.71978c0.34676,-0.19395 0.98012,-0.31646 1.89898,-0.36754l-0.24503,0.29097c-0.11267,-0.52069 -0.19362,-1.12816 -0.24503,-1.82241c-0.05141,-0.69426 -0.0711,-1.41403 -0.06126,-2.15933c0.00984,-0.7453 0.04594,-1.45487 0.1072,-2.1287c0.06126,-0.68404 0.14767,-1.26598 0.26034,-1.74584l1.33235,-0.09189c-0.22425,0.09189 -0.50537,0.17357 -0.84229,0.24503c-0.33692,0.06126 -0.68368,0.09189 -1.04138,0.09189c-0.65305,0 -1.13873,-0.07146 -1.45487,-0.2144c-0.30629,-0.14294 -0.45943,-0.34202 -0.45943,-0.59726c0,-0.44923 0.27019,-0.79635 0.81166,-1.04138c0.55132,-0.25524 1.39361,-0.38286 2.52687,-0.38286c1.34766,0 2.48093,0.22461 3.39979,0.67383c0.92871,0.43901 1.63317,1.05669 2.11338,1.85304c0.48021,0.78614 0.71978,1.705 0.71978,2.75659c0,0.91886 -0.16299,1.76626 -0.49006,2.54219c-0.32707,0.76572 -0.79635,1.43441 -1.40892,2.00618c-0.60273,0.56149 -1.32688,1.00058 -2.17464,1.31704c-0.83682,0.30629 -1.77647,0.45943 -2.81784,0.45943zM342.68531,182.6111c0.34676,0 0.71431,-0.13783 1.10263,-0.41349c0.39817,-0.28586 0.73509,-0.69935 1.01075,-1.24046c0.27566,-0.55132 0.41349,-1.23026 0.41349,-2.03681c0,-0.59215 -0.08642,-1.10774 -0.26034,-1.54675c-0.16299,-0.44923 -0.37739,-0.82187 -0.6432,-1.11795c-0.26581,-0.29608 -0.54585,-0.51558 -0.84229,-0.65852c-0.29644,-0.15314 -0.57648,-0.22972 -0.84229,-0.22972c-0.2144,0 -0.38286,0.13272 -0.50537,0.39817c-0.11267,0.26545 -0.19362,0.66363 -0.24503,1.19452c-0.05141,0.52069 -0.07657,1.169 -0.07657,1.94493c0,1.20473 0.06126,2.12359 0.18377,2.75659c0.12251,0.633 0.3577,0.94949 0.70446,0.94949zM355.78237,184.77043c-0.34785,0 -0.58742,-0.13269 -0.71978,-0.39817c-0.12251,-0.27566 -0.19471,-0.7096 -0.2144,-1.30172l0.15314,0.07657c-0.5721,1.11281 -1.65395,1.66927 -3.24665,1.66927c-0.72524,0 -1.32797,-0.12766 -1.8071,-0.38286c-0.48021,-0.26549 -0.83791,-0.61257 -1.07201,-1.04138c-0.22534,-0.43898 -0.33692,-0.91372 -0.33692,-1.42424c0,-0.87803 0.30629,-1.57227 0.91886,-2.08275c0.61257,-0.52069 1.42424,-0.78103 2.43498,-0.78103c0.66289,0 1.24046,0.09699 1.73052,0.29097c0.49006,0.19398 0.90792,0.46454 1.25578,0.81166l-0.26034,-0.03063c-0.0722,-1.03117 -0.29644,-1.76626 -0.67383,-2.20527c-0.36754,-0.44923 -0.8937,-0.67383 -1.57738,-0.67383c-0.39817,0 -0.76572,0.06126 -1.10263,0.18377c-0.33692,0.12251 -0.64867,0.25014 -0.93418,0.38286c-0.27566,0.12251 -0.536,0.18377 -0.78103,0.18377c-0.24503,0 -0.43974,-0.08168 -0.58195,-0.24503c-0.13345,-0.16335 -0.19909,-0.37265 -0.19909,-0.62789c0,-0.36754 0.17283,-0.71467 0.52069,-1.04138c0.35661,-0.32671 0.82698,-0.59215 1.40892,-0.79635c0.58195,-0.2042 1.21421,-0.30629 1.89898,-0.30629c0.82698,0 1.53581,0.19909 2.1287,0.59726c0.59179,0.39817 1.04138,0.98012 1.34766,1.74584c0.26472,0.65341 0.45396,1.3834 0.56663,2.18996c0.11158,0.80655 0.16846,1.66927 0.16846,2.58813c0,0.69429 -0.0361,1.23029 -0.1072,1.60801c-0.0722,0.37772 -0.18377,0.6432 -0.33692,0.79635c-0.1433,0.14297 -0.33692,0.2144 -0.58195,0.2144zM352.3979,183.05522c0.33692,0 0.67821,-0.04594 1.02606,-0.13783c0.34676,-0.10206 0.63773,-0.25017 0.87292,-0.44412c0.23409,-0.19398 0.35223,-0.43391 0.35223,-0.71978c0,-0.24503 -0.10283,-0.44412 -0.30629,-0.59726c-0.19471,-0.16335 -0.45506,-0.28586 -0.78103,-0.36754c-0.31723,-0.08168 -0.65852,-0.12251 -1.02606,-0.12251c-0.62351,0 -1.09826,0.1072 -1.42424,0.3216c-0.31723,0.2144 -0.47475,0.50027 -0.47475,0.8576c0,0.38797 0.14767,0.68915 0.44412,0.90355c0.30629,0.20423 0.74493,0.30629 1.31704,0.30629zM360.80002,175.39803h-0.30629c-0.03063,-0.44923 -0.01969,-0.87292 0.03063,-1.27109c0.05141,-0.40838 0.15861,-0.73509 0.3216,-0.98012c0.17393,-0.25524 0.41896,-0.38286 0.73509,-0.38286c0.2866,0 0.49553,0.09189 0.62789,0.27566c0.13345,0.18377 0.19909,0.43901 0.19909,0.76572c0,0.6432 -0.12251,1.19452 -0.36754,1.65395l-0.27566,-0.03063c0.55132,-0.19398 1.17483,-0.29097 1.86835,-0.29097c0.43974,0 0.7865,0.08678 1.04138,0.26034c0.26581,0.16335 0.39817,0.44412 0.39817,0.84229c0,0.37775 -0.15314,0.66363 -0.45943,0.8576c-0.30629,0.19398 -0.68915,0.29097 -1.14858,0.29097c-0.27566,0 -0.57101,-0.01021 -0.88823,-0.03063c-0.30629,-0.03063 -0.60711,-0.07657 -0.90355,-0.13783l0.26034,-0.3216c0.09189,0.38797 0.1794,0.83208 0.26034,1.33235c0.09189,0.49006 0.17393,1.00054 0.24503,1.53144c0.0722,0.53089 0.12798,1.04649 0.16846,1.54675c0.04157,0.50027 0.06126,0.94949 0.06126,1.34766c0,0.65338 -0.10173,1.16903 -0.30629,1.54675c-0.20346,0.37772 -0.50537,0.56663 -0.90355,0.56663c-0.31613,0 -0.56663,-0.09703 -0.7504,-0.29097c-0.17283,-0.19395 -0.30082,-0.43898 -0.38286,-0.73509c-0.0711,-0.30629 -0.11705,-0.62275 -0.13783,-0.94949c-0.00984,-0.32674 -0.01531,-0.62278 -0.01531,-0.88823c0,-0.44923 0.02078,-0.9546 0.06126,-1.51612c0.04157,-0.57174 0.09736,-1.15878 0.16846,-1.76115c0.08204,-0.60237 0.17393,-1.18432 0.27566,-1.74584l0.30629,0.26034c-0.52069,0.26545 -1.16389,0.39817 -1.92961,0.39817c-0.46928,0 -0.83135,-0.08678 -1.08732,-0.26034c-0.25487,-0.17357 -0.38286,-0.44412 -0.38286,-0.81166c0,-0.39817 0.1433,-0.70446 0.4288,-0.91886c0.2866,-0.22461 0.66946,-0.33692 1.14858,-0.33692c0.31723,0 0.61257,0.02042 0.88823,0.06126c0.2866,0.03063 0.536,0.07146 0.7504,0.12251zM373.01104,184.77043c-0.34785,0 -0.58742,-0.13269 -0.71978,-0.39817c-0.12251,-0.27566 -0.19471,-0.7096 -0.2144,-1.30172l0.15314,0.07657c-0.5721,1.11281 -1.65395,1.66927 -3.24665,1.66927c-0.72524,0 -1.32797,-0.12766 -1.8071,-0.38286c-0.48021,-0.26549 -0.83791,-0.61257 -1.07201,-1.04138c-0.22534,-0.43898 -0.33692,-0.91372 -0.33692,-1.42424c0,-0.87803 0.30629,-1.57227 0.91886,-2.08275c0.61257,-0.52069 1.42424,-0.78103 2.43498,-0.78103c0.66289,0 1.24046,0.09699 1.73052,0.29097c0.49006,0.19398 0.90792,0.46454 1.25578,0.81166l-0.26034,-0.03063c-0.0722,-1.03117 -0.29644,-1.76626 -0.67383,-2.20527c-0.36754,-0.44923 -0.8937,-0.67383 -1.57738,-0.67383c-0.39817,0 -0.76572,0.06126 -1.10263,0.18377c-0.33692,0.12251 -0.64867,0.25014 -0.93418,0.38286c-0.27566,0.12251 -0.536,0.18377 -0.78103,0.18377c-0.24503,0 -0.43974,-0.08168 -0.58195,-0.24503c-0.13345,-0.16335 -0.19909,-0.37265 -0.19909,-0.62789c0,-0.36754 0.17283,-0.71467 0.52069,-1.04138c0.35661,-0.32671 0.82698,-0.59215 1.40892,-0.79635c0.58195,-0.2042 1.21421,-0.30629 1.89898,-0.30629c0.82698,0 1.53581,0.19909 2.1287,0.59726c0.59179,0.39817 1.04138,0.98012 1.34766,1.74584c0.26472,0.65341 0.45396,1.3834 0.56663,2.18996c0.11158,0.80655 0.16846,1.66927 0.16846,2.58813c0,0.69429 -0.0361,1.23029 -0.1072,1.60801c-0.0722,0.37772 -0.18377,0.6432 -0.33692,0.79635c-0.1433,0.14297 -0.33692,0.2144 -0.58195,0.2144zM369.62657,183.05522c0.33692,0 0.67821,-0.04594 1.02606,-0.13783c0.34676,-0.10206 0.63773,-0.25017 0.87292,-0.44412c0.23409,-0.19398 0.35223,-0.43391 0.35223,-0.71978c0,-0.24503 -0.10283,-0.44412 -0.30629,-0.59726c-0.19471,-0.16335 -0.45506,-0.28586 -0.78103,-0.36754c-0.31723,-0.08168 -0.65852,-0.12251 -1.02606,-0.12251c-0.62351,0 -1.09826,0.1072 -1.42424,0.3216c-0.31723,0.2144 -0.47475,0.50027 -0.47475,0.8576c0,0.38797 0.14767,0.68915 0.44412,0.90355c0.30629,0.20423 0.74493,0.30629 1.31704,0.30629zM375.90436,177.7105c0,-0.98012 0.09189,-1.68458 0.27566,-2.11338c0.18377,-0.43901 0.44412,-0.65852 0.78103,-0.65852c0.26581,0 0.47475,0.11231 0.62789,0.33692c0.15314,0.2144 0.26581,0.48495 0.33692,0.81166c0.0722,0.31649 0.1072,0.6381 0.1072,0.96481l-0.07657,-0.03063c0.17393,-0.55132 0.43974,-1.02606 0.79635,-1.42424c0.36754,-0.39817 0.80729,-0.59726 1.31704,-0.59726c0.60273,0 1.04685,0.25014 1.33235,0.7504c0.2866,0.49006 0.4288,1.10263 0.4288,1.83772c0,0.98012 -0.11158,1.66416 -0.33692,2.05213c-0.22425,0.38797 -0.52506,0.58195 -0.90355,0.58195c-0.27566,0 -0.47912,-0.11231 -0.61257,-0.33692c-0.12251,-0.22461 -0.16299,-0.62278 -0.12251,-1.19452c0.04157,-0.60237 0.00547,-1.02095 -0.1072,-1.25578c-0.11158,-0.23482 -0.29097,-0.35223 -0.536,-0.35223c-0.29535,0 -0.54038,0.18888 -0.73509,0.56663c-0.18377,0.36754 -0.27566,0.82187 -0.27566,1.36298c0,0.2144 0.02625,0.48495 0.07657,0.81166c0.05141,0.32671 0.1072,0.68404 0.16846,1.07201c0.06126,0.37775 0.11814,0.75551 0.16846,1.13326c0.05141,0.37775 0.07657,0.72492 0.07657,1.04138c0,0.56149 -0.08642,0.96481 -0.26034,1.20984c-0.17283,0.24503 -0.41786,0.36754 -0.73509,0.36754c-0.35661,0 -0.63226,-0.11234 -0.82698,-0.33692c-0.19362,-0.23486 -0.34129,-0.61257 -0.44412,-1.13326c-0.08095,-0.4696 -0.16299,-1.02606 -0.24503,-1.66927c-0.08095,-0.6432 -0.14767,-1.30172 -0.19909,-1.97555c-0.05032,-0.67383 -0.07657,-1.2813 -0.07657,-1.82241z"/></g></g></svg>