<svg version="1.1" xmlns="http://www.w3.org/2000/svg" xmlns:xlink="http://www.w3.org/1999/xlink" width="15" height="15" viewBox="0,0,15,15"><g transform="translate(-232.5,-172.5)"><g data-paper-data="{&quot;isPaintingLayer&quot;:true}" fill="#f24e1e" fill-rule="nonzero" stroke-linecap="butt" stroke-linejoin="miter" stroke-miterlimit="10" stroke-dasharray="" stroke-dashoffset="0" style="mix-blend-mode: normal"><path d="M247.25,180c0,4.00418 -3.24583,7.25 -7.25,7.25c-4.00418,0 -7.25,-3.24582 -7.25,-7.25c0,-4.00417 3.24582,-7.25 7.25,-7.25c4.00417,0 7.25,3.24583 7.25,7.25z" stroke="#000000" stroke-width="0.5" opacity="0.5"/><path d="M237.80326,177.80323c0.10196,-0.10183 0.24016,-0.15902 0.38425,-0.15902c0.14409,0 0.2823,0.0572 0.38424,0.15902l1.42825,1.42827l1.42825,-1.42827c0.04981,-0.05343 0.10984,-0.09627 0.17654,-0.12599c0.0667,-0.02972 0.13869,-0.0457 0.2117,-0.04699c0.07301,-0.00129 0.14551,0.01214 0.21322,0.03949c0.06771,0.02734 0.12919,0.06805 0.18082,0.11969c0.05169,0.05164 0.09237,0.11314 0.1197,0.18085c0.02741,0.06771 0.04082,0.14023 0.03951,0.21323c-0.00131,0.07301 -0.01725,0.14502 -0.04698,0.21172c-0.02972,0.0667 -0.07257,0.12673 -0.12601,0.17653l-1.42825,1.42825l1.42825,1.42825c0.09606,0.10302 0.14834,0.23939 0.14587,0.38026c-0.00247,0.14087 -0.0596,0.27528 -0.15921,0.3749c-0.09962,0.09962 -0.23403,0.15667 -0.3749,0.15914c-0.14087,0.00254 -0.27717,-0.04974 -0.38026,-0.1458l-1.42825,-1.42825l-1.42825,1.42825c-0.10306,0.09606 -0.2394,0.14834 -0.38027,0.1458c-0.14087,-0.00246 -0.27528,-0.05952 -0.3749,-0.15914c-0.09962,-0.09961 -0.15669,-0.23403 -0.15917,-0.3749c-0.00249,-0.14087 0.0498,-0.27724 0.14585,-0.38026l1.42824,-1.42825l-1.42824,-1.42825c-0.10183,-0.10197 -0.15902,-0.24018 -0.15902,-0.38427c0,-0.14409 0.0572,-0.28229 0.15902,-0.38425z" stroke="none" stroke-width="1"/></g></g></svg>