<svg version="1.1" xmlns="http://www.w3.org/2000/svg" xmlns:xlink="http://www.w3.org/1999/xlink" width="89.56009" height="29.9921" viewBox="0,0,89.56009,29.9921"><g transform="translate(-195.21996,-165.00395)"><g data-paper-data="{&quot;isPaintingLayer&quot;:true}" fill-rule="nonzero" stroke-width="1" stroke-linecap="butt" stroke-linejoin="miter" stroke-miterlimit="10" stroke-dasharray="" stroke-dashoffset="0" style="mix-blend-mode: normal"><path d="M201.02346,165.50395h77.95308c2.92908,0 5.30351,1.82535 5.30351,4.07701v20.83807c0,2.25169 -2.37444,4.07701 -5.30351,4.07701h-77.95308c-2.92905,0 -5.30351,-1.82532 -5.30351,-4.07701v-20.83807c0,-2.25167 2.37447,-4.07701 5.30351,-4.07701z" fill="#a5a7a9" stroke="#000000"/><path d="M225.43637,183.72208c-0.21077,0 -0.44706,-0.0128 -0.70896,-0.03832c-0.25546,-0.02552 -0.50455,-0.07342 -0.74729,-0.14371c-0.23629,-0.07665 -0.43435,-0.17881 -0.594,-0.30658c-0.15329,-0.13413 -0.22994,-0.30659 -0.22994,-0.51736c0,-0.21713 0.06707,-0.38 0.2012,-0.48861c0.14049,-0.10861 0.36728,-0.16287 0.68022,-0.16287c0.21713,0 0.45987,0.02874 0.72813,0.08622c0.27462,0.05748 0.53652,0.08622 0.78561,0.08622c0.37042,0 0.6419,-0.05748 0.81436,-0.17245c0.17881,-0.11497 0.26825,-0.27147 0.26825,-0.46945c0,-0.12133 -0.0351,-0.22993 -0.10539,-0.32574c-0.06384,-0.09581 -0.19482,-0.19161 -0.3928,-0.28742c-0.19798,-0.09581 -0.49497,-0.20119 -0.89101,-0.31616c-0.45351,-0.12133 -0.82071,-0.25545 -1.10177,-0.40239c-0.28106,-0.15329 -0.48539,-0.33533 -0.61316,-0.5461c-0.12777,-0.21077 -0.19161,-0.45987 -0.19161,-0.74729c0,-0.35127 0.06071,-0.6547 0.18204,-0.91016c0.12777,-0.2619 0.297,-0.48226 0.50777,-0.66107c0.21077,-0.18526 0.44706,-0.3321 0.70896,-0.44071c0.2619,-0.10861 0.52693,-0.18839 0.7952,-0.23952c0.27462,-0.05113 0.53651,-0.07664 0.7856,-0.07664c0.54932,0 0.99639,0.08622 1.34128,0.25868c0.35127,0.17246 0.52693,0.40239 0.52693,0.68981c0,0.20442 -0.06706,0.37042 -0.20119,0.49819c-0.12777,0.12777 -0.32575,0.19161 -0.594,0.19161c-0.11497,0 -0.25232,-0.01594 -0.41196,-0.0479c-0.15965,-0.03197 -0.33533,-0.06384 -0.52694,-0.09581c-0.19161,-0.03197 -0.40239,-0.04791 -0.63232,-0.04791c-0.38958,0 -0.68981,0.06071 -0.90058,0.18204c-0.21077,0.12133 -0.31616,0.31615 -0.31616,0.58442c0,0.11497 0.02874,0.22035 0.08622,0.31615c0.06384,0.09581 0.19483,0.19483 0.39281,0.29701c0.19798,0.10217 0.50141,0.22036 0.91016,0.35449c0.50456,0.15329 0.90058,0.32252 1.188,0.50777c0.28742,0.17881 0.49184,0.38323 0.61317,0.61317c0.12133,0.22994 0.18203,0.48861 0.18203,0.77603c0,0.39603 -0.10861,0.74729 -0.32575,1.05387c-0.21077,0.30023 -0.50777,0.5333 -0.891,0.69939c-0.37687,0.16609 -0.81758,0.2491 -1.32212,0.2491zM233.32305,183.63585c-0.17246,0 -0.30658,-0.05749 -0.40239,-0.17246c-0.08936,-0.12133 -0.15007,-0.27461 -0.18203,-0.45987c-0.03188,-0.19161 -0.0479,-0.3928 -0.0479,-0.60357l0.0479,-0.03832c-0.06384,0.27462 -0.18838,0.511 -0.37364,0.70896c-0.18517,0.19798 -0.39917,0.35126 -0.6419,0.45987c-0.24266,0.10217 -0.48539,0.15329 -0.72812,0.15329c-0.32575,0 -0.62274,-0.07664 -0.891,-0.22993c-0.26826,-0.15329 -0.47581,-0.38959 -0.62274,-0.70897c-0.14685,-0.33855 -0.26181,-0.76323 -0.3449,-1.27422c-0.083,-0.51736 -0.12455,-1.04751 -0.12455,-1.59038c0,-0.29377 0.0128,-0.56526 0.03832,-0.81436c0.02561,-0.2491 0.06707,-0.45351 0.12455,-0.61316c0.05113,-0.16609 0.12777,-0.28742 0.22994,-0.36407c0.10226,-0.083 0.23315,-0.12455 0.3928,-0.12455c0.18526,0 0.32896,0.07342 0.43113,0.22036c0.10861,0.14049 0.17568,0.33854 0.2012,0.594c0.02561,0.21077 0.04155,0.47267 0.0479,0.78561c0.0128,0.30658 0.02238,0.61638 0.02874,0.92932c0.0128,0.30658 0.02874,0.56526 0.04791,0.77603c0.03832,0.38323 0.13735,0.66742 0.297,0.85267c0.15974,0.17881 0.35448,0.26825 0.58442,0.26825c0.33855,0 0.59722,-0.12777 0.77603,-0.38323c0.1789,-0.25546 0.26825,-0.61316 0.26825,-1.07303c0,-0.22994 -0.01272,-0.48862 -0.03832,-0.77603c-0.02552,-0.29377 -0.05425,-0.57806 -0.08622,-0.85268c-0.02552,-0.27462 -0.03832,-0.50141 -0.03832,-0.68022c0,-0.30023 0.05112,-0.51414 0.15329,-0.64191c0.10226,-0.13413 0.24274,-0.20119 0.42155,-0.20119c0.15329,0 0.28106,0.04155 0.38322,0.12455c0.10861,0.083 0.19484,0.19797 0.25868,0.3449c0.08945,0.19161 0.16609,0.45351 0.22994,0.78561c0.06393,0.3321 0.11497,0.70896 0.15329,1.13052c0.03832,0.42155 0.05748,0.86547 0.05748,1.33171c0,0.71533 -0.0479,1.25184 -0.14371,1.60954c-0.09581,0.35127 -0.26503,0.52693 -0.50778,0.52693zM235.86818,183.78914c-0.14057,0 -0.25554,-0.0479 -0.3449,-0.14371c-0.08309,-0.09581 -0.15016,-0.23316 -0.2012,-0.41197c-0.05113,-0.2619 -0.0958,-0.60357 -0.13412,-1.02513c-0.03197,-0.42791 -0.04791,-0.88464 -0.04791,-1.37003c0,-0.27462 0.00635,-0.58442 0.01916,-0.92932c0.01272,-0.3449 0.02874,-0.69303 0.04791,-1.04429c0.02552,-0.35771 0.05103,-0.68981 0.07664,-0.99639c0.03188,-0.30658 0.06384,-0.55568 0.09581,-0.74729c0.05104,-0.28106 0.12455,-0.50142 0.22036,-0.66107c0.10217,-0.16609 0.26181,-0.2491 0.47904,-0.2491c0.22349,0 0.38635,0.08622 0.48861,0.25868c0.10217,0.16609 0.15329,0.37364 0.15329,0.62274c0,0.28106 -0.02238,0.61316 -0.06706,0.99639c-0.03832,0.38323 -0.09904,0.77281 -0.18204,1.16884l-0.19161,0.22994c0.0702,-0.26826 0.18516,-0.51413 0.3449,-0.73771c0.15965,-0.22358 0.36084,-0.39916 0.60358,-0.52693c0.24266,-0.13413 0.52371,-0.2012 0.8431,-0.2012c0.62587,0 1.12407,0.22358 1.49457,0.67064c0.37678,0.44071 0.56526,1.13052 0.56526,2.06941c0,0.65785 -0.09903,1.20716 -0.297,1.64786c-0.19161,0.44071 -0.45673,0.77281 -0.79519,0.99639c-0.33219,0.21713 -0.7122,0.32574 -1.1401,0.32574c-0.40239,0 -0.75051,-0.11819 -1.04428,-0.35449c-0.28742,-0.23629 -0.47267,-0.57806 -0.55568,-1.02513l0.13413,0.10539c-0.02561,0.45987 -0.08944,0.79842 -0.19161,1.01555c-0.09581,0.21077 -0.22036,0.31615 -0.37364,0.31615zM237.62143,182.62031c0.3193,0 0.60035,-0.14371 0.8431,-0.43113c0.24266,-0.28742 0.36406,-0.73771 0.36406,-1.35086c0,-0.511 -0.0958,-0.9261 -0.28741,-1.24547c-0.18526,-0.31938 -0.49819,-0.47904 -0.9389,-0.47904c-0.35771,0 -0.64513,0.14371 -0.86226,0.43113c-0.21722,0.28106 -0.32575,0.70896 -0.32575,1.28381c0,0.52371 0.10852,0.95484 0.32575,1.29338c0.21713,0.3321 0.51091,0.49819 0.88142,0.49819zM245.22914,179.30542c0.06384,-0.2619 0.17559,-0.49819 0.33532,-0.70896c0.16601,-0.21077 0.36406,-0.37687 0.594,-0.49819c0.23629,-0.12777 0.49497,-0.19161 0.77603,-0.19161c0.3321,0 0.62587,0.07987 0.88142,0.23952c0.25546,0.15965 0.45665,0.42154 0.60358,0.78561c0.15329,0.36407 0.22994,0.84945 0.22994,1.45625c0,0.31294 -0.0128,0.6291 -0.03832,0.94849c-0.02561,0.31938 -0.05749,0.61638 -0.09581,0.891c-0.03832,0.27462 -0.07987,0.50456 -0.12455,0.68981c-0.06393,0.25546 -0.16287,0.45029 -0.297,0.58442c-0.12777,0.13413 -0.29064,0.20119 -0.48862,0.20119c-0.16609,0 -0.297,-0.07342 -0.3928,-0.22036c-0.09581,-0.14694 -0.14371,-0.35771 -0.14371,-0.63232c0,-0.12777 0.01594,-0.29063 0.0479,-0.48861c0.03188,-0.20442 0.06707,-0.42477 0.10539,-0.66107c0.03832,-0.24274 0.07342,-0.48861 0.10538,-0.73771c0.03188,-0.2491 0.04791,-0.48539 0.04791,-0.70896c0,-0.3321 -0.06707,-0.58764 -0.2012,-0.76645c-0.13413,-0.18526 -0.3226,-0.27784 -0.56526,-0.27784c-0.26826,0 -0.49183,0.14049 -0.67064,0.42154c-0.17246,0.27462 -0.2747,0.677 -0.30658,1.20716c-0.02561,0.47267 -0.04791,0.89422 -0.06707,1.26464c-0.01916,0.36407 -0.06706,0.66429 -0.14371,0.90058c-0.05113,0.16609 -0.12455,0.29064 -0.22036,0.37364c-0.08945,0.083 -0.21078,0.12455 -0.36407,0.12455c-0.17246,0 -0.3098,-0.06384 -0.41197,-0.19161c-0.09581,-0.12777 -0.15016,-0.32897 -0.16287,-0.60358c-0.0128,-0.22994 -0.01602,-0.50141 -0.00957,-0.81436c0.00636,-0.31294 0.00957,-0.62274 0.00957,-0.92932c0.00636,-0.31294 0.00314,-0.57161 -0.00957,-0.77603c-0.02561,-0.40875 -0.09903,-0.70896 -0.22036,-0.90058c-0.11497,-0.19161 -0.29064,-0.28741 -0.52693,-0.28741c-0.2747,0 -0.49505,0.12777 -0.66106,0.38322c-0.15974,0.25546 -0.25868,0.60994 -0.29701,1.06345c-0.0128,0.18526 -0.01916,0.41519 -0.01916,0.68981c0.00636,0.26826 0.01271,0.53652 0.01916,0.80477c0.00636,0.26826 0.00314,0.49183 -0.00957,0.67064c-0.00645,0.38323 -0.06707,0.65784 -0.18203,0.82393c-0.10861,0.16609 -0.2619,0.2491 -0.45987,0.2491c-0.23638,0 -0.40883,-0.07665 -0.51735,-0.22994c-0.10226,-0.15329 -0.16931,-0.39916 -0.2012,-0.73771c-0.02561,-0.30023 -0.04477,-0.59723 -0.05748,-0.89101c-0.0128,-0.30023 -0.01916,-0.59722 -0.01916,-0.891c0,-0.30023 0.00635,-0.62596 0.01916,-0.97723c0.01916,-0.35127 0.04468,-0.68344 0.07664,-0.99639c0.03832,-0.31938 0.10539,-0.58764 0.2012,-0.80477c0.09581,-0.21713 0.25545,-0.32575 0.47903,-0.32575c0.18517,0 0.31616,0.09258 0.39281,0.27784c0.07665,0.17881 0.11496,0.45665 0.11496,0.83351c0,0.12777 -0.00958,0.24587 -0.02874,0.35448l-0.02874,-0.19161c0.12769,-0.41519 0.33211,-0.73771 0.61317,-0.96764c0.28098,-0.23629 0.594,-0.35448 0.9389,-0.35448c0.45343,0 0.8079,0.14693 1.06345,0.4407c0.25546,0.28742 0.39594,0.68659 0.42154,1.19758zM250.66283,176.34501c0.25546,0 0.43749,0.07029 0.5461,0.21077c0.11497,0.14049 0.17246,0.30335 0.17246,0.48861c0,0.22994 -0.0703,0.40875 -0.21078,0.53652c-0.13413,0.12133 -0.32575,0.18203 -0.57484,0.18203c-0.24274,0 -0.42477,-0.06707 -0.54609,-0.20119c-0.12142,-0.14049 -0.18203,-0.30336 -0.18203,-0.48861c0,-0.24274 0.07343,-0.42477 0.22036,-0.54609c0.14685,-0.12133 0.33845,-0.18203 0.57483,-0.18203zM250.72031,178.48149c0.20433,0 0.36407,0.19161 0.47904,0.57483c0.12133,0.38323 0.18204,0.99316 0.18204,1.8299c0,1.02835 -0.07351,1.7692 -0.22036,2.22271c-0.14694,0.45351 -0.37051,0.68022 -0.67065,0.68022c-0.22994,0 -0.39925,-0.16609 -0.50778,-0.49819c-0.10861,-0.33855 -0.16286,-0.9261 -0.16286,-1.76283c0,-1.02835 0.08299,-1.79157 0.24909,-2.28977c0.17246,-0.50456 0.38958,-0.75687 0.65148,-0.75687zM254.17082,177.9258h-0.19161c-0.01916,-0.28106 -0.0128,-0.54609 0.01916,-0.79519c0.03197,-0.25546 0.09903,-0.45987 0.2012,-0.61316c0.10861,-0.15965 0.26189,-0.23951 0.45987,-0.23951c0.17881,0 0.3098,0.05748 0.39281,0.17245c0.083,0.11497 0.12455,0.27462 0.12455,0.47904c0,0.40239 -0.07664,0.74729 -0.22994,1.03471l-0.17246,-0.01917c0.3449,-0.12133 0.73449,-0.18203 1.16883,-0.18203c0.27462,0 0.49183,0.05426 0.65148,0.16287c0.16609,0.10217 0.2491,0.27785 0.2491,0.52694c0,0.23629 -0.0958,0.41519 -0.28742,0.53651c-0.19161,0.12133 -0.43113,0.18203 -0.71855,0.18203c-0.17246,0 -0.35771,-0.00635 -0.55568,-0.01916c-0.19161,-0.01916 -0.38,-0.0479 -0.56525,-0.08622l0.16287,-0.2012c0.05748,0.24274 0.11174,0.52058 0.16287,0.83351c0.05748,0.30658 0.10861,0.62596 0.15329,0.95806c0.04468,0.3321 0.07987,0.6547 0.10539,0.96764c0.02552,0.31294 0.03832,0.594 0.03832,0.8431c0,0.40875 -0.06384,0.73135 -0.19161,0.96764c-0.12777,0.23629 -0.31616,0.35448 -0.56526,0.35448c-0.19798,0 -0.35448,-0.0607 -0.46945,-0.18203c-0.10861,-0.12133 -0.18839,-0.27461 -0.23951,-0.45987c-0.04468,-0.19161 -0.07342,-0.38958 -0.08622,-0.594c-0.00636,-0.20442 -0.00958,-0.38958 -0.00958,-0.55568c0,-0.28106 0.0128,-0.59722 0.03832,-0.94849c0.02552,-0.35771 0.0607,-0.72491 0.10538,-1.10178c0.05113,-0.37687 0.10861,-0.74093 0.17246,-1.09219l0.19161,0.16286c-0.32575,0.16609 -0.72813,0.2491 -1.20716,0.2491c-0.29377,0 -0.52058,-0.05426 -0.68022,-0.16287c-0.15965,-0.10861 -0.23951,-0.27784 -0.23951,-0.50778c0,-0.2491 0.08945,-0.44071 0.26826,-0.57484c0.17881,-0.14049 0.41832,-0.21077 0.71855,-0.21077c0.19798,0 0.38322,0.0128 0.55568,0.03832c0.17881,0.01916 0.33532,0.04468 0.46945,0.07664z" fill="#000000" stroke="none"/></g></g></svg>