<svg version="1.1" xmlns="http://www.w3.org/2000/svg" xmlns:xlink="http://www.w3.org/1999/xlink" width="74.75378" height="17.45277" viewBox="0,0,74.75378,17.45277"><g transform="translate(-202.62311,-171.27362)"><g data-paper-data="{&quot;isPaintingLayer&quot;:true}" fill-rule="nonzero" stroke-width="1" stroke-linecap="butt" stroke-linejoin="miter" stroke-miterlimit="10" stroke-dasharray="" stroke-dashoffset="0" style="mix-blend-mode: normal"><path d="M208.51281,171.77362h62.97438c2.97682,0 5.3897,2.41305 5.3897,5.3897v5.67337c0,2.97665 -2.41288,5.3897 -5.3897,5.3897h-62.97438c-2.97665,0 -5.3897,-2.41305 -5.3897,-5.3897v-5.67337c0,-2.97665 2.41305,-5.3897 5.3897,-5.3897z" fill="#a5a7a9" stroke="#000000"/><path d="M213.4146,182.87413c-0.25377,0 -0.44309,-0.0333 -0.5679,-0.09985c-0.12481,-0.06655 -0.22881,-0.18722 -0.31204,-0.36196c-0.05827,-0.13315 -0.10819,-0.34948 -0.14978,-0.64903c-0.03744,-0.3037 -0.05617,-0.69686 -0.05617,-1.17949c0,-0.337 0.00624,-0.65942 0.01872,-0.96731c0.01662,-0.30789 0.03954,-0.54504 0.06865,-0.71144c0.0333,-0.21218 0.08737,-0.36406 0.16226,-0.45557c0.07903,-0.09151 0.17684,-0.1373 0.29331,-0.1373c0.10399,0 0.18512,0.04578 0.24339,0.1373c0.06241,0.09151 0.10609,0.21633 0.13105,0.37444c0.02496,0.15392 0.03744,0.32452 0.03744,0.51174c0,0.5076 -0.01872,1.02138 -0.05617,1.54145c-0.0333,0.52008 -0.08113,0.99851 -0.14354,1.43536l-0.08113,-0.11233c0.18722,-0.12896 0.38692,-0.23925 0.59911,-0.33076c0.21633,-0.09151 0.42647,-0.16226 0.63031,-0.21218c0.20804,-0.04993 0.38902,-0.07489 0.54294,-0.07489c0.15392,0 0.26625,0.0312 0.337,0.09361c0.07489,0.06241 0.11233,0.15188 0.11233,0.26835c0,0.11647 -0.05202,0.23505 -0.15602,0.35572c-0.09985,0.11647 -0.24339,0.21842 -0.43061,0.30579c-0.10399,0.04993 -0.22676,0.09571 -0.3682,0.1373c-0.14144,0.03744 -0.28707,0.06865 -0.43685,0.09361c-0.14564,0.02496 -0.28497,0.03744 -0.41813,0.03744zM216.29003,178.05006c0.16646,0 0.28503,0.04578 0.35572,0.1373c0.07489,0.09151 0.11233,0.1976 0.11233,0.31828c0,0.14978 -0.04573,0.26625 -0.1373,0.34948c-0.08737,0.07903 -0.21218,0.11857 -0.37444,0.11857c-0.15806,0 -0.27663,-0.04368 -0.35572,-0.13105c-0.07903,-0.09151 -0.11857,-0.1976 -0.11857,-0.31828c0,-0.15812 0.04788,-0.27669 0.14354,-0.35572c0.09571,-0.07903 0.22052,-0.11857 0.37444,-0.11857zM216.32748,179.44174c0.13315,0 0.23715,0.12481 0.31204,0.37444c0.07909,0.24963 0.11857,0.64693 0.11857,1.19197c0,0.66985 -0.04783,1.15243 -0.14354,1.44784c-0.09565,0.29541 -0.24129,0.44309 -0.43685,0.44309c-0.14978,0 -0.26001,-0.10819 -0.33076,-0.32452c-0.07069,-0.22052 -0.10609,-0.60325 -0.10609,-1.14829c0,-0.66985 0.05412,-1.16701 0.16226,-1.49153c0.11233,-0.32866 0.25383,-0.49302 0.42437,-0.49302zM218.16326,177.89405c0.1331,0 0.22467,0.05202 0.27459,0.15602c0.05407,0.10399 0.08113,0.26001 0.08113,0.46805c0,0.17888 -0.01044,0.40355 -0.0312,0.674c-0.02082,0.27045 -0.04788,0.53046 -0.08113,0.78009h-0.03744c0.1373,-0.25797 0.31408,-0.46595 0.53046,-0.62407c0.21633,-0.15812 0.44513,-0.23715 0.68648,-0.23715c0.21218,0 0.40145,0.05202 0.5679,0.15602c0.1664,0.09985 0.3016,0.25797 0.40565,0.47429c0.09565,0.19556 0.1664,0.42851 0.21218,0.69896c0.04573,0.26625 0.06865,0.52008 0.06865,0.76137c0,0.38692 -0.02706,0.69482 -0.08113,0.92362c-0.04993,0.22881 -0.12067,0.39526 -0.21218,0.49926c-0.09157,0.09985 -0.1997,0.14978 -0.32452,0.14978c-0.26211,0 -0.39316,-0.21428 -0.39316,-0.64279c0,-0.20804 0.01038,-0.42227 0.0312,-0.64279c0.02496,-0.22052 0.03744,-0.42227 0.03744,-0.60535c0,-0.31204 -0.04993,-0.54504 -0.14978,-0.69896c-0.09571,-0.15812 -0.2351,-0.23715 -0.41813,-0.23715c-0.22886,0 -0.41399,0.10195 -0.55542,0.30579c-0.14149,0.20384 -0.21218,0.48468 -0.21218,0.8425c0,0.18722 0.01662,0.39316 0.04993,0.61783c0.03325,0.22052 0.04993,0.42227 0.04993,0.60535c0,0.20384 -0.03954,0.35158 -0.11857,0.44309c-0.07489,0.08737 -0.1727,0.13105 -0.29331,0.13105c-0.09157,0 -0.1727,-0.01872 -0.24339,-0.05617c-0.06661,-0.0333 -0.12481,-0.10195 -0.17474,-0.20594c-0.04578,-0.10819 -0.08533,-0.26835 -0.11857,-0.48053c-0.02496,-0.16226 -0.04993,-0.35158 -0.07489,-0.5679c-0.02496,-0.21633 -0.04578,-0.44309 -0.06241,-0.68024c-0.01668,-0.23715 -0.0312,-0.46805 -0.04368,-0.69272c-0.00834,-0.22881 -0.01248,-0.43685 -0.01248,-0.62407c0,-0.59077 0.05617,-1.01933 0.1685,-1.28559c0.11233,-0.27045 0.27039,-0.40565 0.47429,-0.40565zM224.3309,182.89909c-0.14144,0 -0.23919,-0.05407 -0.29331,-0.16226c-0.04993,-0.11233 -0.07903,-0.28917 -0.08737,-0.53046l0.06241,0.0312c-0.23295,0.45347 -0.674,0.68024 -1.32303,0.68024c-0.29536,0 -0.54084,-0.05202 -0.7364,-0.15602c-0.1955,-0.10819 -0.34114,-0.24963 -0.43685,-0.42437c-0.09151,-0.17888 -0.1373,-0.37234 -0.1373,-0.58039c0,-0.35782 0.12481,-0.64069 0.37444,-0.84874c0.24963,-0.21218 0.58039,-0.31828 0.99227,-0.31828c0.27045,0 0.5055,0.03954 0.7052,0.11857c0.1997,0.07903 0.3703,0.18932 0.51174,0.33076l-0.10609,-0.01248c-0.0291,-0.42023 -0.12062,-0.71978 -0.27459,-0.89866c-0.14978,-0.18308 -0.364,-0.27459 -0.64279,-0.27459c-0.16226,0 -0.31204,0.02496 -0.44933,0.07489c-0.1373,0.04993 -0.26415,0.10195 -0.38068,0.15602c-0.11233,0.04993 -0.21842,0.07489 -0.31828,0.07489c-0.09985,0 -0.17888,-0.0333 -0.23715,-0.09985c-0.05407,-0.06655 -0.08113,-0.15188 -0.08113,-0.25587c0,-0.14978 0.07075,-0.29121 0.21218,-0.42437c0.14564,-0.13315 0.337,-0.24129 0.57414,-0.32452c0.23715,-0.08323 0.49511,-0.12481 0.77385,-0.12481c0.337,0 0.62617,0.08113 0.86746,0.24339c0.24135,0.16226 0.42437,0.39941 0.54918,0.71144c0.10819,0.26625 0.18518,0.56376 0.23091,0.89242c0.04578,0.32866 0.06865,0.68024 0.06865,1.05468c0,0.28293 -0.01452,0.50136 -0.04368,0.65527c-0.0291,0.15392 -0.07489,0.26211 -0.1373,0.32452c-0.05821,0.05827 -0.1373,0.08737 -0.23715,0.08737zM222.9517,182.20013c0.1373,0 0.27669,-0.01872 0.41813,-0.05617c0.14149,-0.04159 0.26007,-0.10195 0.35572,-0.18098c0.09571,-0.07903 0.14354,-0.17684 0.14354,-0.29331c0,-0.09985 -0.04159,-0.18098 -0.12481,-0.24339c-0.07903,-0.06655 -0.18512,-0.11647 -0.31828,-0.14978c-0.12896,-0.0333 -0.26835,-0.04993 -0.41813,-0.04993c-0.25377,0 -0.44723,0.04368 -0.58039,0.13105c-0.12896,0.08737 -0.19346,0.20384 -0.19346,0.34948c0,0.15812 0.06036,0.28083 0.18098,0.3682c0.12481,0.08323 0.30375,0.12481 0.5367,0.12481zM226.37603,179.07978h-0.12481c-0.01248,-0.18308 -0.00834,-0.35572 0.01248,-0.51798c0.02076,-0.1664 0.06445,-0.29955 0.13105,-0.39941c0.07069,-0.10399 0.17054,-0.15602 0.29955,-0.15602c0.11647,0 0.20174,0.03744 0.25587,0.11233c0.05407,0.07489 0.08113,0.17888 0.08113,0.31204c0,0.26211 -0.04993,0.48677 -0.14978,0.674l-0.11233,-0.01248c0.22467,-0.07903 0.47844,-0.11857 0.76137,-0.11857c0.17888,0 0.32032,0.03535 0.42437,0.10609c0.10813,0.06655 0.16226,0.18098 0.16226,0.34324c0,0.15392 -0.06241,0.27045 -0.18722,0.34948c-0.12481,0.07903 -0.28083,0.11857 -0.46805,0.11857c-0.11233,0 -0.23301,-0.00414 -0.36196,-0.01248c-0.12481,-0.01248 -0.24759,-0.0312 -0.3682,-0.05617l0.10609,-0.13105c0.03744,0.15812 0.07279,0.3391 0.10609,0.54294c0.03744,0.1997 0.07069,0.40774 0.09985,0.62407c0.0291,0.21633 0.05197,0.42647 0.06865,0.63031c0.01662,0.20384 0.02496,0.38692 0.02496,0.54918c0,0.26625 -0.04164,0.47639 -0.12481,0.63031c-0.08323,0.15392 -0.20594,0.23091 -0.3682,0.23091c-0.12901,0 -0.23091,-0.03954 -0.30579,-0.11857c-0.07075,-0.07903 -0.12277,-0.17888 -0.15602,-0.29955c-0.02916,-0.12481 -0.04788,-0.25377 -0.05617,-0.38692c-0.0042,-0.13315 -0.00624,-0.25377 -0.00624,-0.36196c0,-0.18308 0.00828,-0.38902 0.02496,-0.61783c0.01662,-0.23301 0.03949,-0.47219 0.06865,-0.71768c0.03325,-0.24549 0.07069,-0.48263 0.11233,-0.71144l0.12481,0.10609c-0.21218,0.10819 -0.47429,0.16226 -0.78633,0.16226c-0.19142,0 -0.3391,-0.03535 -0.44309,-0.10609c-0.10405,-0.07075 -0.15602,-0.18098 -0.15602,-0.33076c0,-0.16226 0.05821,-0.28707 0.17474,-0.37444c0.11647,-0.09151 0.27249,-0.1373 0.46805,-0.1373c0.12896,0 0.24963,0.00834 0.36196,0.02496c0.11647,0.01248 0.21842,0.0291 0.30579,0.04993zM230.60405,178.39954c0.12896,0 0.26001,0.07279 0.39316,0.21842c0.1373,0.14144 0.28083,0.35362 0.43061,0.63655c0.14978,0.28293 0.31204,0.63445 0.48677,1.05468c0.17888,0.42023 0.37444,0.907 0.58663,1.46032h0.02496c-0.02916,-0.1997 -0.05617,-0.41813 -0.08113,-0.65527c-0.02496,-0.23715 -0.04788,-0.47639 -0.06865,-0.71768c-0.02082,-0.24129 -0.03744,-0.46595 -0.04993,-0.674c-0.00834,-0.21218 -0.01248,-0.39316 -0.01248,-0.54294c0,-0.34534 0.0312,-0.58873 0.09361,-0.73016c0.06655,-0.14564 0.1685,-0.21842 0.30579,-0.21842c0.09565,0 0.17264,0.02496 0.23091,0.07489c0.05821,0.04993 0.10813,0.12271 0.14978,0.21842c0.09565,0.23301 0.1643,0.55332 0.20594,0.96107c0.04159,0.40774 0.06241,0.8737 0.06241,1.39792c0,0.40355 -0.01668,0.74679 -0.04993,1.02972c-0.0333,0.28293 -0.09571,0.49716 -0.18722,0.64279c-0.09157,0.14564 -0.22467,0.21842 -0.39941,0.21842c-0.11653,0 -0.2351,-0.04578 -0.35572,-0.1373c-0.12067,-0.09571 -0.24339,-0.23505 -0.3682,-0.41813c-0.12067,-0.18722 -0.24759,-0.42023 -0.38068,-0.69896c-0.12901,-0.27873 -0.26631,-0.60325 -0.41189,-0.97355c-0.14149,-0.37444 -0.29127,-0.79257 -0.44933,-1.25438h-0.02496c0.0291,0.21633 0.05407,0.47219 0.07489,0.76761c0.02076,0.29541 0.03744,0.59701 0.04993,0.9049c0.01248,0.30789 0.01872,0.59077 0.01872,0.84874c0,0.38692 -0.03954,0.66151 -0.11857,0.82377c-0.07489,0.16226 -0.19346,0.24339 -0.35572,0.24339c-0.17894,0 -0.30789,-0.08323 -0.38692,-0.24963c-0.07489,-0.1706 -0.11233,-0.43271 -0.11233,-0.78633c0,-0.22052 0.00414,-0.47219 0.01248,-0.75513c0.01248,-0.28293 0.0291,-0.57414 0.04993,-0.8737c0.02076,-0.29955 0.04783,-0.58453 0.08113,-0.85498c0.04159,-0.337 0.09985,-0.58039 0.17474,-0.73016c0.07489,-0.15392 0.20174,-0.23091 0.38068,-0.23091zM234.70136,178.05006c0.1664,0 0.28497,0.04578 0.35572,0.1373c0.07489,0.09151 0.11233,0.1976 0.11233,0.31828c0,0.14978 -0.04578,0.26625 -0.1373,0.34948c-0.08737,0.07903 -0.21218,0.11857 -0.37444,0.11857c-0.15812,0 -0.27669,-0.04368 -0.35572,-0.13105c-0.07903,-0.09151 -0.11857,-0.1976 -0.11857,-0.31828c0,-0.15812 0.04783,-0.27669 0.14354,-0.35572c0.09571,-0.07903 0.22052,-0.11857 0.37444,-0.11857zM234.7388,179.44174c0.13315,0 0.23715,0.12481 0.31204,0.37444c0.07903,0.24963 0.11857,0.64693 0.11857,1.19197c0,0.66985 -0.04783,1.15243 -0.14354,1.44784c-0.09571,0.29541 -0.24129,0.44309 -0.43685,0.44309c-0.14978,0 -0.26001,-0.10819 -0.33076,-0.32452c-0.07075,-0.22052 -0.10609,-0.60325 -0.10609,-1.14829c0,-0.66985 0.05407,-1.16701 0.16226,-1.49153c0.11233,-0.32866 0.25377,-0.49302 0.42437,-0.49302zM236.60574,182.84917c-0.12896,0 -0.23091,-0.0291 -0.30579,-0.08737c-0.07489,-0.06241 -0.1352,-0.16436 -0.18098,-0.30579c-0.06241,-0.20804 -0.11023,-0.47015 -0.14354,-0.78633c-0.0291,-0.32038 -0.04368,-0.71354 -0.04368,-1.17949c0,-0.28707 0.01038,-0.57414 0.0312,-0.86122c0.02496,-0.29121 0.05617,-0.55542 0.09361,-0.79257c0.03744,-0.24129 0.07699,-0.42851 0.11857,-0.56166c0.04578,-0.14144 0.09985,-0.23925 0.16226,-0.29331c0.06241,-0.05407 0.13315,-0.08113 0.21218,-0.08113c0.08323,0 0.14978,0.0291 0.1997,0.08737c0.04993,0.05407 0.08947,0.15188 0.11857,0.29331c0.02496,0.1373 0.04368,0.30579 0.05617,0.5055c0.01662,0.1997 0.02496,0.41399 0.02496,0.64279c0,0.31204 -0.01458,0.64069 -0.04368,0.98603c-0.0291,0.34534 -0.06865,0.68438 -0.11857,1.01723c-0.04578,0.33286 -0.10195,0.63865 -0.1685,0.91738l-0.17474,-0.08737c0.10819,-0.13315 0.23091,-0.23715 0.3682,-0.31204c0.14144,-0.07489 0.27045,-0.11233 0.38692,-0.11233c0.09571,0 0.1685,0.02706 0.21842,0.08113c0.05407,0.04993 0.08113,0.12896 0.08113,0.23715c0,0.10819 -0.04783,0.21633 -0.14354,0.32452c-0.09151,0.10819 -0.20594,0.1976 -0.34324,0.26835c-0.1373,0.06655 -0.27249,0.09985 -0.40565,0.09985zM240.792,182.89909c-0.14149,0 -0.23925,-0.05407 -0.29331,-0.16226c-0.04993,-0.11233 -0.07909,-0.28917 -0.08737,-0.53046l0.06241,0.0312c-0.23301,0.45347 -0.674,0.68024 -1.32303,0.68024c-0.29541,0 -0.5409,-0.05202 -0.7364,-0.15602c-0.19556,-0.10819 -0.3412,-0.24963 -0.43685,-0.42437c-0.09157,-0.17888 -0.1373,-0.37234 -0.1373,-0.58039c0,-0.35782 0.12481,-0.64069 0.37444,-0.84874c0.24963,-0.21218 0.58039,-0.31828 0.99227,-0.31828c0.27039,0 0.5055,0.03954 0.7052,0.11857c0.1997,0.07903 0.37024,0.18932 0.51174,0.33076l-0.10609,-0.01248c-0.02916,-0.42023 -0.12067,-0.71978 -0.27459,-0.89866c-0.14978,-0.18308 -0.36406,-0.27459 -0.64279,-0.27459c-0.16226,0 -0.31204,0.02496 -0.44933,0.07489c-0.1373,0.04993 -0.26421,0.10195 -0.38068,0.15602c-0.11233,0.04993 -0.21842,0.07489 -0.31828,0.07489c-0.09985,0 -0.17894,-0.0333 -0.23715,-0.09985c-0.05412,-0.06655 -0.08113,-0.15188 -0.08113,-0.25587c0,-0.14978 0.07069,-0.29121 0.21218,-0.42437c0.14558,-0.13315 0.337,-0.24129 0.57414,-0.32452c0.23715,-0.08323 0.49506,-0.12481 0.77385,-0.12481c0.337,0 0.62611,0.08113 0.86746,0.24339c0.24129,0.16226 0.42437,0.39941 0.54918,0.71144c0.10813,0.26625 0.18512,0.56376 0.23091,0.89242c0.04573,0.32866 0.06865,0.68024 0.06865,1.05468c0,0.28293 -0.01458,0.50136 -0.04368,0.65527c-0.02916,0.15392 -0.07489,0.26211 -0.1373,0.32452c-0.05827,0.05827 -0.1373,0.08737 -0.23715,0.08737zM239.41281,182.20013c0.1373,0 0.27663,-0.01872 0.41813,-0.05617c0.14144,-0.04159 0.26001,-0.10195 0.35572,-0.18098c0.09565,-0.07903 0.14354,-0.17684 0.14354,-0.29331c0,-0.09985 -0.04164,-0.18098 -0.12481,-0.24339c-0.07909,-0.06655 -0.18518,-0.11647 -0.31828,-0.14978c-0.12901,-0.0333 -0.26835,-0.04993 -0.41813,-0.04993c-0.25383,0 -0.44729,0.04368 -0.58039,0.13105c-0.12901,0.08737 -0.19346,0.20384 -0.19346,0.34948c0,0.15812 0.06031,0.28083 0.18098,0.3682c0.12481,0.08323 0.3037,0.12481 0.5367,0.12481zM242.52051,178.05006c0.1664,0 0.28497,0.04578 0.35572,0.1373c0.07489,0.09151 0.11233,0.1976 0.11233,0.31828c0,0.14978 -0.04578,0.26625 -0.1373,0.34948c-0.08737,0.07903 -0.21218,0.11857 -0.37444,0.11857c-0.15812,0 -0.27669,-0.04368 -0.35572,-0.13105c-0.07903,-0.09151 -0.11857,-0.1976 -0.11857,-0.31828c0,-0.15812 0.04783,-0.27669 0.14354,-0.35572c0.09571,-0.07903 0.22052,-0.11857 0.37444,-0.11857zM242.55795,179.44174c0.13315,0 0.23715,0.12481 0.31204,0.37444c0.07903,0.24963 0.11857,0.64693 0.11857,1.19197c0,0.66985 -0.04783,1.15243 -0.14354,1.44784c-0.09571,0.29541 -0.24129,0.44309 -0.43685,0.44309c-0.14978,0 -0.26001,-0.10819 -0.33076,-0.32452c-0.07075,-0.22052 -0.10609,-0.60325 -0.10609,-1.14829c0,-0.66985 0.05407,-1.16701 0.16226,-1.49153c0.11233,-0.32866 0.25377,-0.49302 0.42437,-0.49302zM246.11737,182.87413c-0.25383,0 -0.44309,-0.0333 -0.5679,-0.09985c-0.12481,-0.06655 -0.22886,-0.18722 -0.31204,-0.36196c-0.05827,-0.13315 -0.10819,-0.34948 -0.14978,-0.64903c-0.03744,-0.3037 -0.05617,-0.69686 -0.05617,-1.17949c0,-0.337 0.00624,-0.65942 0.01872,-0.96731c0.01662,-0.30789 0.03949,-0.54504 0.06865,-0.71144c0.03325,-0.21218 0.08737,-0.36406 0.16226,-0.45557c0.07903,-0.09151 0.17678,-0.1373 0.29331,-0.1373c0.10399,0 0.18512,0.04578 0.24339,0.1373c0.06241,0.09151 0.10609,0.21633 0.13105,0.37444c0.02496,0.15392 0.03744,0.32452 0.03744,0.51174c0,0.5076 -0.01872,1.02138 -0.05617,1.54145c-0.0333,0.52008 -0.08113,0.99851 -0.14354,1.43536l-0.08113,-0.11233c0.18722,-0.12896 0.38692,-0.23925 0.59911,-0.33076c0.21633,-0.09151 0.42641,-0.16226 0.63031,-0.21218c0.20799,-0.04993 0.38897,-0.07489 0.54294,-0.07489c0.15392,0 0.26625,0.0312 0.337,0.09361c0.07489,0.06241 0.11233,0.15188 0.11233,0.26835c0,0.11647 -0.05202,0.23505 -0.15602,0.35572c-0.09985,0.11647 -0.24339,0.21842 -0.43061,0.30579c-0.10405,0.04993 -0.22676,0.09571 -0.3682,0.1373c-0.14149,0.03744 -0.28707,0.06865 -0.43685,0.09361c-0.14564,0.02496 -0.28503,0.03744 -0.41813,0.03744zM251.1708,182.89909c-0.14144,0 -0.23925,-0.05407 -0.29331,-0.16226c-0.04993,-0.11233 -0.07903,-0.28917 -0.08737,-0.53046l0.06241,0.0312c-0.23301,0.45347 -0.674,0.68024 -1.32303,0.68024c-0.29541,0 -0.54084,-0.05202 -0.7364,-0.15602c-0.19556,-0.10819 -0.34114,-0.24963 -0.43685,-0.42437c-0.09151,-0.17888 -0.1373,-0.37234 -0.1373,-0.58039c0,-0.35782 0.12481,-0.64069 0.37444,-0.84874c0.24963,-0.21218 0.58039,-0.31828 0.99227,-0.31828c0.27045,0 0.5055,0.03954 0.7052,0.11857c0.1997,0.07903 0.3703,0.18932 0.51174,0.33076l-0.10609,-0.01248c-0.0291,-0.42023 -0.12067,-0.71978 -0.27459,-0.89866c-0.14978,-0.18308 -0.36406,-0.27459 -0.64279,-0.27459c-0.16226,0 -0.31204,0.02496 -0.44933,0.07489c-0.1373,0.04993 -0.26421,0.10195 -0.38068,0.15602c-0.11233,0.04993 -0.21842,0.07489 -0.31828,0.07489c-0.09985,0 -0.17888,-0.0333 -0.23715,-0.09985c-0.05407,-0.06655 -0.08113,-0.15188 -0.08113,-0.25587c0,-0.14978 0.07075,-0.29121 0.21218,-0.42437c0.14564,-0.13315 0.337,-0.24129 0.57414,-0.32452c0.23715,-0.08323 0.49511,-0.12481 0.77385,-0.12481c0.337,0 0.62617,0.08113 0.86746,0.24339c0.24129,0.16226 0.42437,0.39941 0.54918,0.71144c0.10819,0.26625 0.18512,0.56376 0.23091,0.89242c0.04578,0.32866 0.06865,0.68024 0.06865,1.05468c0,0.28293 -0.01458,0.50136 -0.04368,0.65527c-0.0291,0.15392 -0.07489,0.26211 -0.1373,0.32452c-0.05827,0.05827 -0.1373,0.08737 -0.23715,0.08737zM249.79161,182.20013c0.1373,0 0.27669,-0.01872 0.41813,-0.05617c0.14144,-0.04159 0.26001,-0.10195 0.35572,-0.18098c0.09571,-0.07903 0.14354,-0.17684 0.14354,-0.29331c0,-0.09985 -0.04159,-0.18098 -0.12481,-0.24339c-0.07903,-0.06655 -0.18512,-0.11647 -0.31828,-0.14978c-0.12896,-0.0333 -0.26835,-0.04993 -0.41813,-0.04993c-0.25377,0 -0.44723,0.04368 -0.58039,0.13105c-0.12896,0.08737 -0.19346,0.20384 -0.19346,0.34948c0,0.15812 0.06031,0.28083 0.18098,0.3682c0.12481,0.08323 0.3037,0.12481 0.5367,0.12481zM253.21588,179.07978h-0.12481c-0.01248,-0.18308 -0.00828,-0.35572 0.01248,-0.51798c0.02082,-0.1664 0.06451,-0.29955 0.13105,-0.39941c0.07075,-0.10399 0.1706,-0.15602 0.29955,-0.15602c0.11653,0 0.2018,0.03744 0.25587,0.11233c0.05412,0.07489 0.08113,0.17888 0.08113,0.31204c0,0.26211 -0.04993,0.48677 -0.14978,0.674l-0.11233,-0.01248c0.22467,-0.07903 0.47849,-0.11857 0.76137,-0.11857c0.17894,0 0.32038,0.03535 0.42437,0.10609c0.10819,0.06655 0.16226,0.18098 0.16226,0.34324c0,0.15392 -0.06241,0.27045 -0.18722,0.34948c-0.12481,0.07903 -0.28083,0.11857 -0.46805,0.11857c-0.11233,0 -0.23295,-0.00414 -0.36196,-0.01248c-0.12481,-0.01248 -0.24753,-0.0312 -0.3682,-0.05617l0.10609,-0.13105c0.03744,0.15812 0.07285,0.3391 0.10609,0.54294c0.03744,0.1997 0.07075,0.40774 0.09985,0.62407c0.02916,0.21633 0.05202,0.42647 0.06865,0.63031c0.01668,0.20384 0.02496,0.38692 0.02496,0.54918c0,0.26625 -0.04159,0.47639 -0.12481,0.63031c-0.08317,0.15392 -0.20594,0.23091 -0.3682,0.23091c-0.12896,0 -0.23091,-0.03954 -0.30579,-0.11857c-0.07069,-0.07903 -0.12271,-0.17888 -0.15602,-0.29955c-0.0291,-0.12481 -0.04783,-0.25377 -0.05617,-0.38692c-0.00414,-0.13315 -0.00624,-0.25377 -0.00624,-0.36196c0,-0.18308 0.00834,-0.38902 0.02496,-0.61783c0.01668,-0.23301 0.03954,-0.47219 0.06865,-0.71768c0.0333,-0.24549 0.07075,-0.48263 0.11233,-0.71144l0.12481,0.10609c-0.21218,0.10819 -0.47429,0.16226 -0.78633,0.16226c-0.19136,0 -0.33904,-0.03535 -0.44309,-0.10609c-0.10399,-0.07075 -0.15602,-0.18098 -0.15602,-0.33076c0,-0.16226 0.05827,-0.28707 0.17474,-0.37444c0.11653,-0.09151 0.27255,-0.1373 0.46805,-0.1373c0.12901,0 0.24963,0.00834 0.36196,0.02496c0.11653,0.01248 0.21842,0.0291 0.30579,0.04993zM256.01359,178.05006c0.1664,0 0.28497,0.04578 0.35572,0.1373c0.07489,0.09151 0.11233,0.1976 0.11233,0.31828c0,0.14978 -0.04578,0.26625 -0.1373,0.34948c-0.08737,0.07903 -0.21218,0.11857 -0.37444,0.11857c-0.15812,0 -0.27669,-0.04368 -0.35572,-0.13105c-0.07903,-0.09151 -0.11857,-0.1976 -0.11857,-0.31828c0,-0.15812 0.04783,-0.27669 0.14354,-0.35572c0.09571,-0.07903 0.22052,-0.11857 0.37444,-0.11857zM256.05104,179.44174c0.13315,0 0.23715,0.12481 0.31204,0.37444c0.07903,0.24963 0.11857,0.64693 0.11857,1.19197c0,0.66985 -0.04783,1.15243 -0.14354,1.44784c-0.09571,0.29541 -0.24129,0.44309 -0.43685,0.44309c-0.14978,0 -0.26001,-0.10819 -0.33076,-0.32452c-0.07075,-0.22052 -0.10609,-0.60325 -0.10609,-1.14829c0,-0.66985 0.05407,-1.16701 0.16226,-1.49153c0.11233,-0.32866 0.25377,-0.49302 0.42437,-0.49302zM257.88677,177.89405c0.13315,0 0.22467,0.05202 0.27459,0.15602c0.05412,0.10399 0.08113,0.26001 0.08113,0.46805c0,0.17888 -0.01038,0.40355 -0.0312,0.674c-0.02076,0.27045 -0.04783,0.53046 -0.08113,0.78009h-0.03744c0.1373,-0.25797 0.31413,-0.46595 0.53046,-0.62407c0.21638,-0.15812 0.44519,-0.23715 0.68648,-0.23715c0.21218,0 0.40133,0.05202 0.56813,0.15602c0.16623,0.09985 0.30126,0.25797 0.40565,0.47429c0.09531,0.19556 0.16623,0.42851 0.21218,0.69896c0.04539,0.26625 0.06865,0.52008 0.06865,0.76137c0,0.38692 -0.02723,0.69482 -0.08113,0.92362c-0.04993,0.22881 -0.12084,0.39526 -0.21218,0.49926c-0.09191,0.09985 -0.1997,0.14978 -0.32452,0.14978c-0.26211,0 -0.39339,-0.21428 -0.39339,-0.64279c0,-0.20804 0.01044,-0.42227 0.03143,-0.64279c0.02496,-0.22052 0.03744,-0.42227 0.03744,-0.60535c0,-0.31204 -0.05015,-0.54504 -0.15,-0.69896c-0.09565,-0.15812 -0.23505,-0.23715 -0.41813,-0.23715c-0.22881,0 -0.41393,0.10195 -0.55542,0.30579c-0.14144,0.20384 -0.21218,0.48468 -0.21218,0.8425c0,0.18722 0.01668,0.39316 0.04993,0.61783c0.0333,0.22052 0.04993,0.42227 0.04993,0.60535c0,0.20384 -0.03949,0.35158 -0.11857,0.44309c-0.07489,0.08737 -0.17264,0.13105 -0.29331,0.13105c-0.09151,0 -0.17264,-0.01872 -0.24339,-0.05617c-0.06655,-0.0333 -0.12481,-0.10195 -0.17474,-0.20594c-0.04573,-0.10819 -0.08527,-0.26835 -0.11857,-0.48053c-0.02496,-0.16226 -0.04993,-0.35158 -0.07489,-0.5679c-0.02496,-0.21633 -0.04573,-0.44309 -0.06241,-0.68024c-0.01662,-0.23715 -0.0312,-0.46805 -0.04368,-0.69272c-0.00828,-0.22881 -0.01248,-0.43685 -0.01248,-0.62407c0,-0.59077 0.05617,-1.01933 0.1685,-1.28559c0.11233,-0.27045 0.27045,-0.40565 0.47429,-0.40565zM264.05451,182.89909c-0.14127,0 -0.23942,-0.05407 -0.29331,-0.16226c-0.04993,-0.11233 -0.07886,-0.28917 -0.08737,-0.53046l0.06241,0.0312c-0.23318,0.45347 -0.674,0.68024 -1.32303,0.68024c-0.29558,0 -0.54067,-0.05202 -0.7364,-0.15602c-0.19573,-0.10819 -0.34097,-0.24963 -0.43685,-0.42437c-0.09134,-0.17888 -0.1373,-0.37234 -0.1373,-0.58039c0,-0.35782 0.12481,-0.64069 0.37444,-0.84874c0.24963,-0.21218 0.58039,-0.31828 0.99227,-0.31828c0.27062,0 0.5055,0.03954 0.7052,0.11857c0.1997,0.07903 0.37047,0.18932 0.51174,0.33076l-0.10609,-0.01248c-0.02893,-0.42023 -0.12084,-0.71978 -0.27459,-0.89866c-0.14978,-0.18308 -0.36423,-0.27459 -0.64279,-0.27459c-0.16226,0 -0.31204,0.02496 -0.44933,0.07489c-0.1373,0.04993 -0.26438,0.10195 -0.38068,0.15602c-0.11233,0.04993 -0.21842,0.07489 -0.31828,0.07489c-0.09985,0 -0.17871,-0.0333 -0.23715,-0.09985c-0.0539,-0.06655 -0.08113,-0.15188 -0.08113,-0.25587c0,-0.14978 0.07092,-0.29121 0.21218,-0.42437c0.14581,-0.13315 0.337,-0.24129 0.57414,-0.32452c0.23715,-0.08323 0.49529,-0.12481 0.77385,-0.12481c0.337,0 0.62634,0.08113 0.86746,0.24339c0.24112,0.16226 0.42437,0.39941 0.54918,0.71144c0.10836,0.26625 0.18495,0.56376 0.23091,0.89242c0.04595,0.32866 0.06865,0.68024 0.06865,1.05468c0,0.28293 -0.01475,0.50136 -0.04368,0.65527c-0.02893,0.15392 -0.07489,0.26211 -0.1373,0.32452c-0.05844,0.05827 -0.1373,0.08737 -0.23715,0.08737zM262.67532,182.20013c0.1373,0 0.27686,-0.01872 0.41813,-0.05617c0.14127,-0.04159 0.25984,-0.10195 0.35572,-0.18098c0.09588,-0.07903 0.14354,-0.17684 0.14354,-0.29331c0,-0.09985 -0.04142,-0.18098 -0.12481,-0.24339c-0.07886,-0.06655 -0.18495,-0.11647 -0.31828,-0.14978c-0.12879,-0.0333 -0.26835,-0.04993 -0.41813,-0.04993c-0.2536,0 -0.44706,0.04368 -0.58039,0.13105c-0.12879,0.08737 -0.19346,0.20384 -0.19346,0.34948c0,0.15812 0.06014,0.28083 0.18098,0.3682c0.12481,0.08323 0.30353,0.12481 0.5367,0.12481zM265.87056,178.95497c0.13276,0 0.2224,0.05407 0.26835,0.16226c0.04993,0.10819 0.07489,0.26835 0.07489,0.48053c0,0.04993 -0.00454,0.10399 -0.01248,0.16226c-0.00454,0.05407 -0.01248,0.10399 -0.02496,0.14978l-0.01248,-0.12481c0.09985,-0.27045 0.2536,-0.48053 0.46181,-0.63031c0.20765,-0.15392 0.42834,-0.23091 0.66151,-0.23091c0.25757,0 0.47202,0.07279 0.64279,0.21842c0.17474,0.14564 0.30353,0.34948 0.38692,0.61159c0.08737,0.26211 0.13105,0.57205 0.13105,0.92986c0,0.22052 -0.01078,0.43895 -0.0312,0.65527c-0.01702,0.21218 -0.04198,0.40774 -0.07489,0.58663c-0.0295,0.17474 -0.06241,0.31828 -0.09985,0.43061c-0.04993,0.14144 -0.1146,0.24753 -0.19346,0.31828c-0.07943,0.06655 -0.17304,0.09985 -0.28083,0.09985c-0.10836,0 -0.19176,-0.03954 -0.24963,-0.11857c-0.05844,-0.07903 -0.08737,-0.18512 -0.08737,-0.31828c0,-0.14144 0.01021,-0.31204 0.0312,-0.51174c0.02042,-0.20384 0.03915,-0.40979 0.05617,-0.61783c0.02042,-0.21218 0.0312,-0.40355 0.0312,-0.57414c0,-0.58248 -0.19176,-0.8737 -0.57414,-0.8737c-0.20424,0 -0.37444,0.09151 -0.51174,0.27459c-0.1373,0.17888 -0.2292,0.43475 -0.27459,0.76761c-0.01248,0.11233 -0.01872,0.25173 -0.01872,0.41813c0,0.1664 0,0.33286 0,0.49926c0.00397,0.16226 0,0.29955 -0.01248,0.41189c-0.01702,0.24963 -0.06468,0.42851 -0.14354,0.5367c-0.07489,0.10819 -0.17928,0.16226 -0.31204,0.16226c-0.15432,0 -0.27062,-0.07075 -0.34948,-0.21218c-0.07943,-0.14564 -0.11857,-0.38902 -0.11857,-0.73016c0,-0.17474 0.00397,-0.3703 0.01248,-0.58663c0.00794,-0.21633 0.01872,-0.43271 0.0312,-0.64903c0.01645,-0.22052 0.03517,-0.42023 0.05617,-0.59911c0.04142,-0.337 0.10155,-0.60325 0.18098,-0.79881c0.07886,-0.1997 0.19743,-0.29955 0.35572,-0.29955z" fill="#000000" stroke="none"/></g></g></svg>