<svg version="1.1" xmlns="http://www.w3.org/2000/svg" xmlns:xlink="http://www.w3.org/1999/xlink" width="25" height="25" viewBox="0,0,25,25"><g transform="translate(-227.5,-167.5)"><g data-paper-data="{&quot;isPaintingLayer&quot;:true}" fill-rule="nonzero" stroke-width="1" stroke-linecap="butt" stroke-linejoin="miter" stroke-miterlimit="10" stroke-dasharray="" stroke-dashoffset="0" style="mix-blend-mode: normal"><path d="M228,180c0,-6.62742 5.37258,-12 12,-12c6.62742,0 12,5.37258 12,12c0,6.62742 -5.37258,12 -12,12c-6.62742,0 -12,-5.37258 -12,-12z" fill="#c26363" stroke="#000000"/><path d="M241.132,184.632c-0.904,0 -1.656,-0.168 -2.256,-0.504c-0.6,-0.344 -1.048,-0.824 -1.344,-1.44c-0.296,-0.616 -0.444,-1.336 -0.444,-2.16c0,-0.912 0.164,-1.708 0.492,-2.388c0.336,-0.688 0.82,-1.22 1.452,-1.596c0.632,-0.376 1.392,-0.564 2.28,-0.564c0.832,0 1.496,0.148 1.992,0.444c0.496,0.288 0.744,0.656 0.744,1.104c0,0.264 -0.084,0.476 -0.252,0.636c-0.168,0.152 -0.412,0.228 -0.732,0.228c-0.208,0 -0.412,-0.044 -0.612,-0.132c-0.2,-0.088 -0.416,-0.172 -0.648,-0.252c-0.224,-0.088 -0.492,-0.132 -0.804,-0.132c-0.4,0 -0.772,0.076 -1.116,0.228c-0.336,0.152 -0.608,0.408 -0.816,0.768c-0.2,0.352 -0.3,0.832 -0.3,1.44c0,0.92 0.2,1.572 0.6,1.956c0.408,0.384 0.944,0.576 1.608,0.576c0.232,0 0.476,-0.02 0.732,-0.06c0.256,-0.048 0.496,-0.092 0.72,-0.132c0.224,-0.048 0.404,-0.072 0.54,-0.072c0.272,0 0.488,0.068 0.648,0.204c0.16,0.128 0.24,0.32 0.24,0.576c0,0.368 -0.232,0.672 -0.696,0.912c-0.464,0.24 -1.14,0.36 -2.028,0.36z" fill="#0a0a0a" stroke="none"/></g></g></svg>