<svg version="1.1" xmlns="http://www.w3.org/2000/svg" xmlns:xlink="http://www.w3.org/1999/xlink" width="79.93109" height="69.22236" viewBox="0,0,79.93109,69.22236"><g transform="translate(-200.03445,-144.88882)"><g data-paper-data="{&quot;isPaintingLayer&quot;:true}" fill-rule="nonzero" stroke="#000000" stroke-linecap="butt" stroke-linejoin="miter" stroke-miterlimit="10" stroke-dasharray="" stroke-dashoffset="0" style="mix-blend-mode: normal"><path d="M243.78405,152.65279c0,1.91865 -1.70005,3.47401 -3.79717,3.47401c-2.09712,0 -3.79718,-1.55536 -3.79718,-3.47401c0,-1.91865 1.70006,-3.47401 3.79718,-3.47401c2.09712,0 3.79717,1.55537 3.79717,3.47401z" fill="#ff0000" stroke-width="0"/><path d="M209.9565,210.31889c0,1.91864 -1.70005,3.47401 -3.79717,3.47401c-2.09713,0 -3.79718,-1.55536 -3.79718,-3.47401c0,-1.91864 1.70005,-3.47402 3.79718,-3.47402c2.09713,0 3.79717,1.55537 3.79717,3.47402z" fill="#ff0000" stroke-width="0"/><path d="M277.49386,210.61623c0,1.91864 -1.70004,3.47401 -3.79717,3.47401c-2.09713,0 -3.79718,-1.55537 -3.79718,-3.47401c0,-1.91864 1.70005,-3.47401 3.79718,-3.47401c2.09713,0 3.79717,1.55537 3.79717,3.47401z" fill="#ff0000" stroke-width="0"/><path d="M201.7665,213.11118l38.23349,-66.22236l38.2335,66.22236z" fill="none" stroke-width="2"/></g></g></svg>