<svg version="1.1" xmlns="http://www.w3.org/2000/svg" xmlns:xlink="http://www.w3.org/1999/xlink" width="39.6516" height="39.13417" viewBox="0,0,39.6516,39.13417"><g transform="translate(-220.1742,-160.43291)"><g data-paper-data="{&quot;isPaintingLayer&quot;:true}" fill-rule="nonzero" stroke-linecap="butt" stroke-linejoin="miter" stroke-miterlimit="10" stroke-dasharray="" stroke-dashoffset="0" style="mix-blend-mode: normal"><path d="M220.9242,198.81709v-37.63417h38.1516v37.63417z" fill="#f4f4f4" stroke="#000000" stroke-width="1.5"/><path d="M239.39763,180.13346c0,-0.29482 0.23973,-0.53381 0.53545,-0.53381c0.29573,0 0.53546,0.23899 0.53546,0.53381c0,0.29482 -0.23973,0.53382 -0.53546,0.53382c-0.29573,0 -0.53545,-0.239 -0.53545,-0.53382z" fill="#252525" stroke="none" stroke-width="1"/><path d="M249.36951,163.58671v-0.59414h1.03827v2.72781h-0.66719v-2.13366z" fill="#000000" stroke="none" stroke-width="1"/><path d="M255.07244,172.54843c0.08501,-0.06727 0.1237,-0.09839 0.1162,-0.09341c0.24484,-0.20178 0.43733,-0.36744 0.57722,-0.49699c0.14244,-0.12955 0.26237,-0.26531 0.35984,-0.4073c0.09746,-0.14199 0.14618,-0.28025 0.14618,-0.41478c0,-0.10212 -0.02369,-0.18185 -0.07121,-0.23916c-0.04752,-0.05729 -0.11873,-0.08594 -0.21365,-0.08594c-0.0949,0 -0.16988,0.03612 -0.2249,0.10837c-0.05248,0.06976 -0.0787,0.1694 -0.0787,0.29895h-0.61846c0.00495,-0.21175 0.04993,-0.38862 0.13494,-0.53062c0.08742,-0.14199 0.2012,-0.24662 0.34109,-0.31389c0.14244,-0.06727 0.29986,-0.10089 0.47228,-0.10089c0.29731,0 0.521,0.07598 0.67094,0.22794c0.15247,0.15196 0.22864,0.35001 0.22864,0.59414c0,0.26655 -0.09116,0.51443 -0.27361,0.74362c-0.18247,0.2267 -0.41486,0.4484 -0.69717,0.66513h1.01201v0.51941h-1.8816z" fill="#000000" stroke="none" stroke-width="1"/><path d="M255.0533,179.1096c0.01005,-0.26651 0.09747,-0.47203 0.26237,-0.61656c0.16491,-0.14453 0.38861,-0.21673 0.67094,-0.21673c0.18741,0 0.34737,0.03243 0.47977,0.09716c0.13494,0.06472 0.23613,0.1532 0.30361,0.2653c0.07001,0.1121 0.10495,0.23795 0.10495,0.37741c0,0.16441 -0.04123,0.29895 -0.1237,0.40357c-0.08246,0.10209 -0.17858,0.17189 -0.28862,0.20926v0.01494c0.14244,0.04737 0.25488,0.12585 0.33734,0.23541c0.08246,0.10956 0.1237,0.25036 0.1237,0.42225c0,0.15441 -0.03614,0.29146 -0.1087,0.41104c-0.06988,0.11704 -0.17362,0.20926 -0.31112,0.27652c-0.13494,0.06727 -0.29612,0.10089 -0.48353,0.10089c-0.29987,0 -0.53975,-0.07352 -0.71967,-0.22046c-0.17737,-0.14694 -0.27108,-0.36874 -0.28111,-0.66513h0.6222c0.00254,0.10956 0.03373,0.19684 0.0937,0.26156c0.05997,0.06232 0.14752,0.09341 0.26237,0.09341c0.09746,0 0.17242,-0.02736 0.2249,-0.08221c0.05502,-0.05725 0.08245,-0.13199 0.08245,-0.22421c0,-0.11957 -0.03869,-0.20552 -0.1162,-0.25783c-0.07496,-0.05485 -0.1961,-0.08221 -0.36357,-0.08221h-0.11994v-0.5194h0.11994c0.12745,0 0.22997,-0.02123 0.30735,-0.06352c0.08006,-0.04483 0.11995,-0.12331 0.11995,-0.23541c0,-0.08968 -0.0249,-0.15948 -0.07496,-0.20926c-0.04993,-0.04978 -0.1186,-0.07474 -0.20615,-0.07474c-0.0949,0 -0.16612,0.02869 -0.21365,0.08595c-0.04497,0.05725 -0.07121,0.12826 -0.0787,0.213z" fill="#000000" stroke="none" stroke-width="1"/><path d="M254.9122,188.58914v-0.51567l1.18443,-1.68899h0.71592v1.65164h0.30736v0.55303h-0.30736v0.48578h-0.64094v-0.48578zM256.21658,187.08698l-0.6297,0.94913h0.6297z" fill="#000000" stroke="none" stroke-width="1"/><path d="M250.84938,194.91114h-1.16945v0.51567c0.04993,-0.05485 0.11995,-0.0997 0.20991,-0.13452c0.08995,-0.03483 0.18741,-0.05231 0.29236,-0.05231c0.18741,0 0.3423,0.04231 0.46478,0.12705c0.1249,0.08474 0.21605,0.19432 0.27361,0.32883c0.05743,0.13452 0.08621,0.28025 0.08621,0.43719c0,0.29146 -0.08246,0.52313 -0.24738,0.69503c-0.16491,0.16936 -0.39732,0.2541 -0.69717,0.2541c-0.19999,0 -0.37362,-0.03362 -0.521,-0.10089c-0.14752,-0.06979 -0.26116,-0.16561 -0.34109,-0.28773c-0.08006,-0.12212 -0.1237,-0.26277 -0.13119,-0.42224h0.62594c0.015,0.07727 0.05113,0.14199 0.10871,0.19432c0.05743,0.04978 0.13614,0.07473 0.23613,0.07473c0.1174,0 0.20482,-0.03737 0.26237,-0.1121c0.05743,-0.07474 0.08621,-0.17442 0.08621,-0.29894c0,-0.12212 -0.02999,-0.21553 -0.08996,-0.28026c-0.05997,-0.06472 -0.14752,-0.09716 -0.26237,-0.09716c-0.08501,0 -0.15501,0.02123 -0.2099,0.06352c-0.05502,0.0399 -0.0913,0.09341 -0.10871,0.16068h-0.61846v-1.62547h1.75042z" fill="#000000" stroke="none" stroke-width="1"/><path d="M240.26159,195.0905c-0.01995,-0.09222 -0.05502,-0.16069 -0.10495,-0.20552c-0.04993,-0.04737 -0.12115,-0.071 -0.21365,-0.071c-0.14244,0 -0.24484,0.06232 -0.30735,0.18684c-0.06251,0.12212 -0.09491,0.31642 -0.09747,0.58294c0.05502,-0.08715 0.13373,-0.15574 0.23614,-0.20551c0.10495,-0.04978 0.21993,-0.07474 0.34483,-0.07474c0.24485,0 0.44109,0.07727 0.58847,0.23167c0.14993,0.15441 0.22489,0.36994 0.22489,0.64645c0,0.1819 -0.03748,0.34125 -0.11245,0.4783c-0.07243,0.13706 -0.17991,0.24409 -0.32235,0.32136c-0.13989,0.07727 -0.30614,0.11584 -0.49852,0.11584c-0.38487,0 -0.65219,-0.11957 -0.80212,-0.35872c-0.14993,-0.24169 -0.22489,-0.58787 -0.22489,-1.03881c0,-0.47336 0.0787,-0.82461 0.23613,-1.05376c0.15996,-0.23167 0.41485,-0.34751 0.76463,-0.34751c0.18741,0 0.34485,0.03737 0.47229,0.1121c0.12998,0.0722 0.22743,0.16816 0.29236,0.28773c0.06747,0.11957 0.1075,0.25035 0.11995,0.39235zM239.96547,195.80795c-0.10749,0 -0.19745,0.03242 -0.26987,0.09716c-0.07001,0.06232 -0.10495,0.15201 -0.10495,0.26905c0,0.11957 0.03252,0.21299 0.09746,0.28025c0.06747,0.06727 0.16238,0.10089 0.28487,0.10089c0.1099,0 0.1961,-0.03243 0.25863,-0.09716c0.06493,-0.06727 0.09747,-0.15814 0.09747,-0.27278c0,-0.11704 -0.03119,-0.20926 -0.0937,-0.27652c-0.06251,-0.06727 -0.15248,-0.10089 -0.26988,-0.10089z" fill="#000000" stroke="none" stroke-width="1"/><path d="M230.80558,194.83266l-0.94081,2.2495h-0.65594l0.95205,-2.17851h-1.16569v-0.54556h1.81039z" fill="#000000" stroke="none" stroke-width="1"/><path d="M223.94178,187.61011c-0.23489,-0.12452 -0.35233,-0.32015 -0.35233,-0.58667c0,-0.13452 0.03499,-0.25663 0.10495,-0.36619c0.06995,-0.1121 0.17616,-0.20059 0.3186,-0.26531c0.14244,-0.06727 0.31735,-0.10089 0.52475,-0.10089c0.20739,0 0.38107,0.03362 0.52101,0.10089c0.14244,0.06472 0.24864,0.15321 0.3186,0.26531c0.06995,0.10956 0.10495,0.23167 0.10495,0.36619c0,0.13452 -0.0325,0.25156 -0.09747,0.35124c-0.06248,0.09969 -0.14743,0.17816 -0.25487,0.23541c0.13494,0.06472 0.23862,0.15441 0.31111,0.26905c0.07246,0.1121 0.10871,0.24409 0.10871,0.3961c0,0.17682 -0.04498,0.33004 -0.13494,0.45961c-0.08995,0.12705 -0.2124,0.22421 -0.36732,0.29147c-0.15243,0.06727 -0.32235,0.10089 -0.50976,0.10089c-0.18741,0 -0.3586,-0.03362 -0.51352,-0.10089c-0.15243,-0.06727 -0.27362,-0.16442 -0.36357,-0.29147c-0.08995,-0.12958 -0.13494,-0.28279 -0.13494,-0.45961c0,-0.15441 0.03623,-0.28773 0.10872,-0.39984c0.07246,-0.11464 0.17492,-0.20298 0.30735,-0.26531zM224.8601,187.1206c0,-0.10209 -0.02998,-0.18056 -0.08995,-0.23541c-0.05748,-0.05725 -0.13493,-0.08595 -0.23239,-0.08595c-0.09747,0 -0.17617,0.02869 -0.23613,0.08595c-0.05748,0.05725 -0.08621,0.13706 -0.08621,0.23915c0,0.09716 0.02999,0.17442 0.08995,0.23168c0.05997,0.05485 0.13742,0.08221 0.23239,0.08221c0.09496,0 0.17242,-0.02869 0.23239,-0.08594c0.05997,-0.05725 0.08995,-0.13451 0.08995,-0.23167zM224.53776,187.88662c-0.11746,0 -0.2124,0.03242 -0.28487,0.09716c-0.07247,0.06232 -0.10871,0.14946 -0.10871,0.26156c0,0.10462 0.03499,0.19057 0.10495,0.25783c0.07246,0.06727 0.16868,0.10089 0.28862,0.10089c0.11994,0 0.21364,-0.03362 0.28111,-0.10089c0.06995,-0.06727 0.10496,-0.15321 0.10496,-0.25783c0,-0.10956 -0.03624,-0.19684 -0.10871,-0.26156c-0.06998,-0.06472 -0.16243,-0.09716 -0.27736,-0.09716z" fill="#000000" stroke="none" stroke-width="1"/><path d="M224.24389,180.26797c0.03748,0.19684 0.15243,0.29521 0.34484,0.29521c0.13245,0 0.22616,-0.05858 0.28112,-0.17563c0.05498,-0.11704 0.08246,-0.30761 0.08246,-0.57172c-0.05496,0.07727 -0.12993,0.13706 -0.2249,0.17936c-0.09496,0.04231 -0.20115,0.06352 -0.3186,0.06352c-0.15993,0 -0.30235,-0.03242 -0.4273,-0.09716c-0.12494,-0.06727 -0.22364,-0.16562 -0.29612,-0.29521c-0.06995,-0.13199 -0.10495,-0.29146 -0.10495,-0.4783c0,-0.1843 0.03748,-0.34498 0.11245,-0.48205c0.07747,-0.13706 0.18618,-0.24288 0.3261,-0.31762c0.14244,-0.07474 0.30985,-0.11211 0.50227,-0.11211c0.36983,0 0.62845,0.11464 0.77588,0.34378c0.14744,0.22915 0.22115,0.56679 0.22115,1.01265c0,0.3239 -0.02999,0.5916 -0.08995,0.8034c-0.05747,0.20926 -0.15616,0.36874 -0.29612,0.4783c-0.13742,0.10956 -0.3261,0.16441 -0.56598,0.16441c-0.1899,0 -0.35234,-0.03737 -0.48728,-0.1121c-0.13243,-0.07474 -0.23488,-0.17309 -0.30735,-0.29521c-0.06995,-0.12212 -0.10995,-0.25663 -0.11994,-0.40357zM224.55499,179.55428c0.10495,0 0.18868,-0.0311 0.25113,-0.09342c0.06248,-0.06472 0.0937,-0.152 0.0937,-0.26156c0,-0.11957 -0.03247,-0.2118 -0.09746,-0.27652c-0.06497,-0.06472 -0.15242,-0.09716 -0.26237,-0.09716c-0.10994,0 -0.1974,0.03362 -0.26237,0.10089c-0.06246,0.06472 -0.0937,0.15441 -0.0937,0.26905c0,0.10717 0.03125,0.19432 0.0937,0.26156c0.06498,0.06472 0.15742,0.09716 0.27736,0.09716z" fill="#000000" stroke="none" stroke-width="1"/><path d="M223.11418,170.9267v-0.59414h1.03826v2.72781h-0.66719v-2.13366zM224.5909,171.65909c0,-0.42849 0.08246,-0.76602 0.24737,-1.01265c0.16741,-0.24662 0.43605,-0.36994 0.80587,-0.36994c0.36982,0 0.63719,0.12332 0.80212,0.36994c0.16741,0.24662 0.25112,0.58417 0.25112,1.01265c0,0.43346 -0.08372,0.7735 -0.25112,1.02013c-0.16491,0.24662 -0.4323,0.36994 -0.80212,0.36994c-0.36983,0 -0.63846,-0.12331 -0.80587,-0.36994c-0.16491,-0.24662 -0.24737,-0.58667 -0.24737,-1.02013zM226.06771,171.65909c0,-0.25161 -0.02748,-0.44466 -0.08246,-0.57919c-0.05498,-0.13702 -0.16868,-0.20552 -0.3411,-0.20552c-0.17242,0 -0.28612,0.0685 -0.3411,0.20552c-0.05498,0.13452 -0.08246,0.32759 -0.08246,0.57919c0,0.16939 0.00998,0.31015 0.02998,0.42224c0.01998,0.1096 0.05997,0.19928 0.11995,0.26905c0.06246,0.06727 0.15368,0.10089 0.27362,0.10089c0.11994,0 0.2099,-0.03363 0.26987,-0.10089c0.06246,-0.06976 0.10369,-0.15944 0.1237,-0.26905c0.01998,-0.1121 0.02999,-0.25285 0.02999,-0.42224z" fill="#000000" stroke="none" stroke-width="1" opacity="0.8"/><path d="M228.58515,163.58671v-0.59414h1.03826v2.72781h-0.66719v-2.13366zM229.99438,163.58671v-0.59414h1.03826v2.72781h-0.66718v-2.13366z" fill="#000000" stroke="none" stroke-width="1"/><path d="M238.52669,163.58671v-0.59414h1.03827v2.72781h-0.66718v-2.13366zM239.98101,165.20844c0.08488,-0.06727 0.1237,-0.09839 0.1162,-0.09341c0.24485,-0.20178 0.4372,-0.36745 0.57722,-0.497c0.14244,-0.12955 0.26237,-0.2653 0.35984,-0.4073c0.09747,-0.14199 0.14618,-0.28025 0.14618,-0.41478c0,-0.10212 -0.02383,-0.18185 -0.07122,-0.23916c-0.04752,-0.05729 -0.11873,-0.08594 -0.21365,-0.08594c-0.09505,0 -0.17001,0.03612 -0.2249,0.10837c-0.05248,0.06976 -0.07871,0.16939 -0.07871,0.29894h-0.61845c0.00494,-0.21175 0.04993,-0.38862 0.13494,-0.53061c0.08742,-0.14199 0.20107,-0.24662 0.34109,-0.31389c0.14244,-0.06727 0.29986,-0.10089 0.47228,-0.10089c0.29731,0 0.52101,0.07598 0.67095,0.22794c0.15234,0.15196 0.22864,0.35001 0.22864,0.59414c0,0.26655 -0.0913,0.51443 -0.27361,0.74362c-0.18247,0.2267 -0.41485,0.4484 -0.69717,0.66513h1.01202v0.51941h-1.8816z" fill="#000000" stroke="none" stroke-width="1"/><path d="M239.86614,170.79165v9.20837" fill="none" stroke="#252525" stroke-width="1"/><path d="M239.93241,180.20019l14.45745,-0.13345" fill="none" stroke="#252525" stroke-width="1"/><path d="M239.58784,180.43641l-10.03991,15.61417" fill="none" stroke="#db6c6c" stroke-width="1"/></g></g></svg>