<svg version="1.1" xmlns="http://www.w3.org/2000/svg" xmlns:xlink="http://www.w3.org/1999/xlink" width="86.51087" height="118.84958" viewBox="0,0,86.51087,118.84958"><defs><linearGradient x1="282.02011" y1="191.8791" x2="197.34306" y2="158.67502" gradientUnits="userSpaceOnUse" id="color-1"><stop offset="0" stop-color="#79b9c5"/><stop offset="1" stop-color="#7cbcc8"/></linearGradient><linearGradient x1="282.02011" y1="237.77767" x2="195.0023" y2="125.88794" gradientUnits="userSpaceOnUse" id="color-2"><stop offset="0" stop-color="#000000" stop-opacity="0.2"/><stop offset="0.33854" stop-color="#000000" stop-opacity="0"/><stop offset="0.63021" stop-color="#ffffff" stop-opacity="0"/><stop offset="1" stop-color="#ffffff" stop-opacity="0.3"/></linearGradient><clipPath id="clip-1"><path d="M217.97008,213.74424v-46.94867h47.3237v46.94867z" fill="none"/></clipPath><linearGradient x1="199.06774" y1="174.07555" x2="197.97987" y2="174.07555" gradientUnits="userSpaceOnUse" id="color-3"><stop offset="0" stop-color="#7cbcc8" stop-opacity="0"/><stop offset="0.61458" stop-color="#155662"/></linearGradient><linearGradient x1="280.93179" y1="174.07553" x2="282.02011" y2="174.07553" gradientUnits="userSpaceOnUse" id="color-4"><stop offset="0" stop-color="#7cbcc8" stop-opacity="0"/><stop offset="0.61458" stop-color="#155662"/></linearGradient><linearGradient x1="205.86703" y1="173.79025" x2="201.65158" y2="173.79025" gradientUnits="userSpaceOnUse" id="color-5"><stop offset="0" stop-color="#7cbcc8" stop-opacity="0"/><stop offset="0.35417" stop-color="#186d7d" stop-opacity="0.6"/><stop offset="0.64063" stop-color="#186d7d" stop-opacity="0.6"/><stop offset="1" stop-color="#7cbcc8" stop-opacity="0"/></linearGradient></defs><g transform="translate(-197.34374,-120.62963)"><g data-paper-data="{&quot;isPaintingLayer&quot;:true}" fill-rule="nonzero" stroke-linejoin="miter" stroke-miterlimit="10" stroke-dasharray="" stroke-dashoffset="0" style="mix-blend-mode: normal"><path d="M197.97987,237.77767v-115.55535h84.04027v115.55535z" fill="url(#color-1)" stroke="none" stroke-width="1" stroke-linecap="butt"/><path d="M197.97987,237.77767v-115.55535h84.04027v115.55535z" fill="url(#color-2)" stroke="none" stroke-width="1" stroke-linecap="butt"/><g clip-path="url(#clip-1)" stroke="none" stroke-width="1" stroke-linecap="butt" opacity="0.8"><path d="M259.99526,208.29844c0,0 0.03575,-0.7711 0.77738,-0.68281z" fill="#3f3d56"/><path d="M259.41535,207.18493c0,-0.208 0.16599,-0.37817 0.36978,-0.37817c0.20588,0 0.37186,0.17016 0.37186,0.37817c0,0.21008 -0.16597,0.37821 -0.37186,0.37821c-0.20379,0 -0.36978,-0.16807 -0.36978,-0.37821z" fill="#ffffff"/><path d="M259.83141,208.56947h-0.10506v-0.74588h0.10506z" fill="#3f3d56"/><path d="M234.79875,185.58865c0,0.1891 -0.0061,0.37608 -0.01809,0.56307c-0.06746,1.07363 -0.33346,2.12203 -0.78368,3.09479c-0.00359,0.00842 -0.00778,0.01678 -0.01112,0.0231c-0.02101,0.04623 -0.04244,0.09033 -0.06472,0.13445c-0.13382,0.27522 -0.28239,0.54205 -0.44498,0.80048c-0.74272,1.18708 -1.76065,2.16823 -2.96368,2.85948c-1.20325,0.68912 -2.55461,1.06728 -3.93495,1.09883l0.08319,4.87643l1.08519,-0.58198l0.19368,0.37398l-1.27071,0.68283l0.15524,9.05743l0.00188,0.11974l-0.83912,0.19117l0.0017,-0.12186l0.26431,-14.5978c-1.11101,-0.01678 -2.20774,-0.25844 -3.22675,-0.71014c-1.01879,-0.4517 -1.93945,-1.10512 -2.70841,-1.92241c-0.05297,-0.05465 -0.10528,-0.11344 -0.15656,-0.17016c-0.00231,-0.00212 -0.00401,-0.00419 -0.00566,-0.0063c-0.6408,-0.71223 -1.15895,-1.52954 -1.53268,-2.41616c0.00817,0.00842 0.01678,0.01678 0.025,0.02733c-0.84484,-2.01276 -0.90198,-4.27973 -0.16009,-6.33453c0.74185,-2.05479 2.22687,-3.74191 4.15056,-4.71885c0.029,-0.01471 0.05881,-0.02733 0.08782,-0.04203c1.90288,-0.93493 4.08077,-1.10723 6.10176,-0.4811c2.02096,0.6261 3.73769,2.00227 4.81007,3.85535c0.05107,0.08827 0.10063,0.17858 0.14833,0.26892c0.66604,1.25009 1.01415,2.65147 1.01247,4.07596z" fill="#e5e5e5"/><path d="M222.63746,178.03553c0,-6.20764 4.93759,-11.23996 11.02861,-11.23996c6.09019,0 11.02757,5.03232 11.02757,11.23996c0,6.20637 -4.93738,11.24038 -11.02757,11.24038c-6.09102,0 -11.02861,-5.03399 -11.02861,-11.24038z" fill="#ffffff"/><path d="M225.52277,170.528c-2.3943,5.70907 0.20506,12.31463 5.80612,14.75389c2.12496,0.92652 4.48163,1.14926 6.73815,0.63452c2.25438,-0.51265 4.29445,-1.73334 5.83239,-3.49186c-2.39303,5.70844 -8.8755,8.3578 -14.47658,5.91644c-5.60128,-2.43926 -8.20107,-9.04482 -5.80699,-14.75327c0.46916,-1.11815 1.11311,-2.15163 1.90688,-3.0597z" fill="#000000" opacity="0.2"/><path d="M234.26275,209.34683l-1.12635,-0.32145l0.00231,-0.12396l0.33741,-18.69682l0.01678,-0.93075l0.00063,-0.02731l0.05882,-3.26707l0.08551,-4.73355v-0.00212l0.05818,-3.20823h0.03089l0.05926,3.47717l0.07734,4.52556l0.05524,3.21034v0.0231l0.00251,0.13238v0l0.10694,6.26097l0.01112,0.6219l0.22101,12.93591z" fill="#3f3d56"/><path d="M235.70448,195.39194l-1.82305,0.97907l-0.254,-0.49165l1.82305,-0.97907z" fill="#3f3d56"/><path d="M233.44986,211.72727h-5.2002v-0.11767h5.2002z" fill="#cbcbcb"/><path d="M242.9918,213.74424h-5.19996v-0.11766h5.19996z" fill="#cbcbcb"/><path d="M257.82915,212.20207h-5.2v-0.11766h5.2z" fill="#cbcbcb"/><path d="M255.45495,207.25842v-3.44986c0,0 1.31945,2.44556 0,3.44986z" fill="#f1f1f1"/><path d="M255.53691,207.25842l-2.49389,-2.3342c0,0 2.65986,0.66392 2.49389,2.3342z" fill="#f1f1f1"/><path d="M229.67815,208.08834v-3.44985c0,0 1.31922,2.44556 0,3.44985z" fill="#f1f1f1"/><path d="M229.75969,208.08834l-2.49347,-2.33423c0,0 2.65986,0.66394 2.49347,2.33423z" fill="#f1f1f1"/><path d="M238.63851,210.58011v-4.29022c0,0 1.64088,3.04015 0,4.29022z" fill="#f1f1f1"/><path d="M238.73939,210.57801l-3.09987,-2.90149c0,0 3.30782,0.82569 3.09987,2.90149z" fill="#f1f1f1"/><path d="M265.29402,210.05488l-0.03152,0.11344l-9.76547,-2.83425l-7.35773,1.65349l-9.40831,1.63666l-0.01261,-0.00212l-4.45561,-1.27529l-1.12635,-0.32145l-3.44061,-0.98536l-2.86979,0.6513l-0.83912,0.19117l-1.8241,0.41389l-0.025,-0.11555l1.851,-0.42021l0.83554,-0.1891l2.87483,-0.65342l0.01408,0.00419l3.42549,0.97907l1.12171,0.32145l4.47681,1.27952l9.37888,-1.63252l7.38294,-1.65769l0.01471,0.00419z" fill="#cbcbcb"/><path d="M247.82204,173.99675c0.17226,0.13151 0.30255,0.3101 0.37818,0.51452l-1.48959,-0.5511c0,0 0.49165,-0.25043 0.94335,-0.05926c0.09663,-0.25444 0.33404,-0.57589 0.91395,-0.51099z" fill="#3f3d56"/><path d="M220.47488,173.75959c0.17124,0.13151 0.30212,0.3101 0.37712,0.51452l-1.48959,-0.5511c0,0 0.49204,-0.25043 0.94376,-0.05926c0.09727,-0.25444 0.33489,-0.57588 0.91333,-0.51099z" fill="#3f3d56"/><path d="M246.19372,185.32392c0.17016,0.13027 0.30255,0.30884 0.37608,0.51475l-1.48959,-0.55256c0,0 0.49165,-0.25001 0.94547,-0.05882c0.09663,-0.25423 0.33404,-0.5757 0.91185,-0.51055z" fill="#3f3d56"/><path d="M241.95181,209.18716l0.84039,0.31726l-1.08622,2.13459l-0.56937,-0.21639z" fill="#ffb7b7"/><path d="M241.06096,211.17892l1.11983,0.42441v0c0.19117,0.07143 0.34456,0.21643 0.42863,0.40552c0.08405,0.18698 0.09246,0.39918 0.02101,0.59247l-0.00842,0.0231l-1.83418,-0.69334z" fill="#2f2e41"/><path d="M246.73577,209.63885h0.89711l-0.28992,2.38676h-0.60512z" fill="#ffb7b7"/><path d="M246.63076,211.82391h1.19546v0c0.20379,0 0.39708,0.08192 0.53996,0.22691c0.14288,0.14495 0.22272,0.34247 0.22272,0.54837v0.02521h-1.95813z" fill="#2f2e41"/><path d="M243.95828,195.47598l0.19751,-0.40338l1.68289,0.8593l-0.04832,0.353l0.32145,0.42863c0,0 0.54417,0.30255 0.44541,1.31103l-0.09876,0.96016l-0.12396,1.23541l0.86562,3.05274l0.44541,4.03604l0.32355,3.25446l-1.56104,-0.07564l-1.43499,-5.29665l-2.52541,5.70214l-1.73334,-0.45591l2.37625,-5.64958l0.29835,-2.37205c0,0 -0.19749,-1.26272 0.74166,-2.11994l-0.14709,-0.45383v-0.55886l-0.49584,-2.6704z" fill="#2f2e41"/><path d="M245.00036,205.18264l-0.05465,0.01468l-1.09042,-3.9352l0.05672,-0.01468z" fill="#000000" opacity="0.2"/><path d="M244.00659,200.22004h2.42665v0.25212h-2.42665z" fill="#3f3d56"/><path d="M246.3345,200.37131c0,-0.13865 0.0441,-0.25211 0.09873,-0.25211c0.05465,0 0.09876,0.11347 0.09876,0.25211c0,0.13865 -0.04411,0.25212 -0.09876,0.25212c-0.05465,0 -0.09873,-0.11348 -0.09873,-0.25212z" fill="#3f3d56"/><path d="M244.70621,194.82468c-0.63871,-0.35716 -0.87403,-1.17449 -0.52525,-1.8258c0.35088,-0.6513 1.15135,-0.89083 1.79217,-0.53575c0.63871,0.35716 0.87403,1.17449 0.52525,1.8258c-0.35088,0.6513 -1.15347,0.89083 -1.79217,0.53575z" fill="#ffb7b7"/><path d="M242.15142,191.9736c0,-0.65762 0.52314,-1.18917 1.16817,-1.18917c0.645,0 1.16817,0.53156 1.16817,1.18917c0,0.65762 -0.52314,1.19129 -1.16817,1.19129c-0.645,0 -1.16817,-0.53368 -1.16817,-1.19129z" fill="#2f2e41"/><path d="M241.83834,191.84757c-0.03574,0.29625 0.03782,0.5946 0.208,0.83829c0.17016,0.2437 0.42229,0.41182 0.71014,0.47274c0.28573,0.06302 0.58618,0.0126 0.83829,-0.1408c0.25212,-0.15336 0.43699,-0.39708 0.52104,-0.68281c-0.02101,0.16177 -0.07356,0.31935 -0.15549,0.4622c-0.08405,0.14077 -0.1933,0.26261 -0.32564,0.35716c-0.13027,0.09663 -0.28152,0.16385 -0.43912,0.19749c-0.15755,0.03362 -0.32148,0.03361 -0.47903,-0.00212c-0.15755,-0.03362 -0.30676,-0.10083 -0.43912,-0.19539c-0.13027,-0.09663 -0.24161,-0.21853 -0.32355,-0.35929c-0.08192,-0.14077 -0.13445,-0.29835 -0.15548,-0.4622c-0.01891,-0.16385 -0.0063,-0.32774 0.03991,-0.48532z" fill="#2f2e41"/><path d="M246.45006,193.26993c0.03574,0.30883 -0.03152,0.6198 -0.18698,0.88452c-0.15755,0.26473 -0.39498,0.47062 -0.67862,0.58408c-0.28152,0.11348 -0.59247,0.12815 -0.88452,0.04411c-0.29205,-0.08614 -0.54837,-0.26683 -0.72905,-0.51475c-0.18068,-0.25001 -0.27734,-0.55256 -0.27103,-0.86141c0.00419,-0.30883 0.10925,-0.60932 0.29835,-0.85092c0.1891,-0.2437 0.44961,-0.41599 0.74376,-0.49165c0.29625,-0.07356 0.60719,-0.04833 0.88453,0.07356c0.23112,-0.1891 0.51685,-0.13027 0.75005,0.06934c0.26261,0.22692 0.34036,0.38239 0.54414,0.75425c-0.20172,0.02733 -0.26892,0.28152 -0.47062,0.30884z" fill="#2f2e41"/><path d="M241.59884,197.31645c-0.00419,-0.15126 0.02521,-0.30048 0.09033,-0.43492l0.68071,-1.43708c0.02733,-0.05672 0.06722,-0.10295 0.11766,-0.13445c0.05043,-0.03362 0.10925,-0.05043 0.17019,-0.05043h1.42028c0.01678,0 0.03361,0.00419 0.04832,0.01049c0.01471,0.0063 0.02733,0.01471 0.03782,0.02733c0.0126,0.01049 0.02099,0.02521 0.02521,0.03991c0.0063,0.01471 0.01049,0.03152 0.00842,0.04831l-0.12186,4.93947c-0.00212,0.06302 -0.02733,0.11976 -0.06934,0.1639c-0.04411,0.04411 -0.10083,0.06934 -0.16177,0.06934l-1.10093,0.02101c-0.04623,0 -0.09034,-0.0126 -0.12815,-0.03574c-0.03782,-0.0231 -0.06934,-0.05879 -0.08827,-0.09873c-0.01471,-0.03152 -0.02942,-0.06515 -0.04832,-0.10295v0c-0.25212,-0.52946 -0.83618,-1.76065 -0.83618,-1.80268c0,-0.03991 -0.02943,-0.82569 -0.04411,-1.22279z" fill="#ffffff"/><path d="M244.01919,199.84606c0.26683,-0.16807 0.50844,-0.37818 0.71434,-0.6198c0.47692,-0.54837 0.76686,-1.2396 0.8278,-1.97074c0.05043,-0.60511 -0.06094,-1.05051 -0.33196,-1.31945c-0.29625,-0.29415 -0.69965,-0.29415 -0.7984,-0.28992l-0.32355,0.27944l-0.10086,-0.12186l0.35929,-0.31306l0.02521,-0.00212c0.0231,-0.00212 0.55465,-0.05879 0.94754,0.32987c0.30677,0.30677 0.43492,0.79419 0.38028,1.44968c-0.06302,0.76897 -0.36976,1.4938 -0.87192,2.06948c-0.2143,0.25632 -0.46852,0.47483 -0.75218,0.64923z" fill="#ffffff"/><path d="M243.96877,198.51194l-0.01048,0.05252l-1.92452,-0.4034l0.01049,-0.05252z" fill="#3f3d56"/><path d="M243.36581,195.26167l-0.12609,3.12207l-0.05042,-0.00212l0.12396,-3.12207z" fill="#3f3d56"/><path d="M241.59884,197.31645c-0.00212,-0.07773 0.00419,-0.15336 0.0189,-0.22691c0.10086,0.03574 0.19117,0.09873 0.25844,0.18068c0.06934,0.08405 0.11554,0.18488 0.13234,0.29205l0.47062,2.77963c-0.25212,-0.52946 -0.83618,-1.76065 -0.83618,-1.80268c0,-0.03991 -0.02943,-0.82569 -0.04411,-1.22279z" fill="#3f3d56"/><path d="M244.48769,203.14467c-0.04203,-0.05465 -0.07144,-0.11766 -0.08613,-0.18698c-0.01471,-0.06724 -0.01678,-0.13657 -0.00212,-0.20381c0.01471,-0.06724 0.0441,-0.13234 0.08405,-0.18698c0.04203,-0.05465 0.09457,-0.09873 0.15549,-0.13235l-0.09663,-1.07572l0.62817,-0.2185l0.11348,1.52115c0.04623,0.10718 0.05252,0.22689 0.01891,0.33824c-0.03574,0.11137 -0.10925,0.20588 -0.208,0.26473c-0.09663,0.05882 -0.2143,0.07985 -0.32567,0.05672c-0.11348,-0.02101 -0.21221,-0.08405 -0.28152,-0.17648z" fill="#ffb7b7"/><path d="M244.07592,196.64415c-0.0126,-0.16385 0.0294,-0.32567 0.11766,-0.4622c0.08827,-0.13657 0.22062,-0.23953 0.3719,-0.29205c0.13445,-0.04623 0.27944,-0.04623 0.41389,0c0.14495,0.05043 0.26892,0.145 0.35716,0.27103c0.08827,0.12606 0.13445,0.27736 0.13445,0.43073l0.04624,5.46891l-1.11144,0.04203z" fill="#cbcbcb"/></g><path d="M281.09204,122.12963l-82.08655,0.20708" fill="none" stroke="#3800ff" stroke-width="3" stroke-linecap="round"/><path d="M222.40806,151.18173v-5.96685h2.5296c0.27461,0 0.52673,0.0559 0.75637,0.16807c0.22962,0.112 0.42863,0.26329 0.59667,0.45384c0.17375,0.19034 0.30823,0.40338 0.4034,0.63871c0.09517,0.23533 0.14288,0.47607 0.14288,0.72275c0,0.33617 -0.07836,0.6555 -0.23533,0.95806c-0.15695,0.30255 -0.37249,0.549 -0.64712,0.73954c-0.27461,0.19034 -0.5994,0.28574 -0.97487,0.28574h-1.41187v2.00014zM223.56781,148.16467h1.34465c0.14014,0 0.2662,-0.03928 0.37821,-0.11766c0.112,-0.07858 0.20166,-0.19056 0.26892,-0.33617c0.06724,-0.15126 0.10086,-0.32228 0.10086,-0.51265c0,-0.20738 -0.03928,-0.38386 -0.11766,-0.52946c-0.07292,-0.14579 -0.17083,-0.25504 -0.29415,-0.32774c-0.11766,-0.07292 -0.24645,-0.10925 -0.38659,-0.10925h-1.29421zM229.13226,151.26575c-0.37545,0 -0.73409,-0.06178 -1.07572,-0.18488c-0.34182,-0.12333 -0.63595,-0.30549 -0.88241,-0.54627l0.40338,-0.73115c0.26324,0.21284 0.52104,0.36978 0.77316,0.47066c0.25759,0.10086 0.50423,0.15126 0.73954,0.15126c0.2185,0 0.39206,-0.03928 0.52104,-0.11766c0.13445,-0.07858 0.20171,-0.19625 0.20171,-0.35295c0,-0.10653 -0.03655,-0.18783 -0.10925,-0.2437c-0.07292,-0.06176 -0.17943,-0.11493 -0.31935,-0.1597c-0.13445,-0.04497 -0.29981,-0.09536 -0.49584,-0.15126c-0.32505,-0.10653 -0.5967,-0.21008 -0.8152,-0.31097c-0.2185,-0.10086 -0.38384,-0.22692 -0.49584,-0.37818c-0.10653,-0.15695 -0.15967,-0.35589 -0.15967,-0.5967c0,-0.29142 0.0727,-0.54081 0.2185,-0.74796c0.15126,-0.21303 0.35841,-0.37818 0.62188,-0.49584c0.26892,-0.11766 0.58262,-0.17648 0.94128,-0.17648c0.31367,0 0.61056,0.05043 0.89083,0.15128c0.28008,0.09517 0.53492,0.25211 0.76479,0.47062l-0.45383,0.71434c-0.22416,-0.17375 -0.43701,-0.29982 -0.63871,-0.37821c-0.20172,-0.08405 -0.40632,-0.12606 -0.61349,-0.12606c-0.11766,0 -0.22987,0.01388 -0.33617,0.04203c-0.10086,0.02795 -0.18488,0.07563 -0.25211,0.14288c-0.06176,0.06156 -0.09241,0.15126 -0.09241,0.26893c0,0.10632 0.02793,0.19034 0.08405,0.25211c0.06156,0.0559 0.15126,0.1063 0.26892,0.15126c0.1231,0.04475 0.27166,0.09517 0.4454,0.15128c0.353,0.10086 0.64986,0.20442 0.89083,0.31091c0.24645,0.10632 0.43134,0.23807 0.55466,0.39498c0.1231,0.15126 0.18491,0.36137 0.18491,0.63029c0,0.43699 -0.15968,0.77863 -0.47904,1.02527c-0.31935,0.24645 -0.74795,0.36976 -1.28581,0.36976zM231.66296,151.18173v-4.40372h1.12613v4.40372zM231.66296,146.16449v-1.11774h1.12613v1.11774zM236.81275,151.18173l-1.28479,-1.89931l-0.5967,0.58828v1.31103h-1.12613v-6.13494h1.12613v3.71458l1.77221,-1.97494h1.19336l-1.63879,1.8657l1.75646,2.5296zM240.29623,151.26575c-0.35929,0 -0.68071,-0.05879 -0.96646,-0.17648c-0.28573,-0.12333 -0.52946,-0.29142 -0.73115,-0.50423c-0.19749,-0.21303 -0.34877,-0.45675 -0.45383,-0.73115c-0.10718,-0.27461 -0.15967,-0.56305 -0.15967,-0.86562c0,-0.30823 0.0525,-0.59964 0.15967,-0.87404c0.10506,-0.27461 0.25632,-0.51833 0.45383,-0.73115c0.20172,-0.21303 0.44541,-0.37818 0.73115,-0.49584c0.28573,-0.12333 0.60719,-0.18488 0.96646,-0.18488c0.35716,0 0.67653,0.06156 0.95806,0.18488c0.28573,0.11766 0.52945,0.28279 0.73115,0.49584c0.20172,0.21284 0.353,0.45654 0.45383,0.73115c0.10506,0.27439 0.15967,0.56579 0.15967,0.87404c0,0.30255 -0.05459,0.59101 -0.15967,0.86562c-0.10086,0.27439 -0.25211,0.5181 -0.45383,0.73115c-0.19749,0.21284 -0.43699,0.3809 -0.72275,0.50423c-0.28573,0.11766 -0.60926,0.17648 -0.96646,0.17648zM239.14485,148.98827c0,0.25759 0.05043,0.48745 0.15126,0.68912c0.10086,0.19601 0.23743,0.35002 0.41182,0.4622c0.17226,0.112 0.36974,0.16807 0.58828,0.16807c0.2122,0 0.40552,-0.05609 0.57987,-0.16807c0.17226,-0.11766 0.31091,-0.27461 0.41179,-0.47062c0.10506,-0.20172 0.1597,-0.43153 0.1597,-0.68912c0,-0.25212 -0.05465,-0.47903 -0.1597,-0.68071c-0.10086,-0.20172 -0.23952,-0.35864 -0.41179,-0.47062c-0.17439,-0.11221 -0.36768,-0.16807 -0.57987,-0.16807c-0.2185,0 -0.41599,0.05879 -0.58828,0.17648c-0.17439,0.112 -0.31097,0.26895 -0.41182,0.47066c-0.10086,0.19601 -0.15126,0.42291 -0.15126,0.68071zM243.34897,145.04682h1.12613v4.72307c0,0.20172 0.03361,0.33887 0.10086,0.41179c0.06724,0.06724 0.15968,0.10086 0.27734,0.10086c0.09034,0 0.18281,-0.01134 0.27734,-0.03362c0.09663,-0.0225 0.18069,-0.05042 0.25212,-0.08405l0.15126,0.8572c-0.15126,0.0727 -0.32774,0.1288 -0.52946,0.16807c-0.20172,0.03908 -0.3824,0.05881 -0.54628,0.05881c-0.353,0 -0.6261,-0.09245 -0.82359,-0.27734c-0.1891,-0.19054 -0.28573,-0.45948 -0.28573,-0.80678zM248.05947,151.26575c-0.35929,0 -0.68072,-0.05879 -0.96646,-0.17648c-0.28573,-0.12333 -0.52945,-0.29142 -0.73115,-0.50423c-0.1954,-0.21303 -0.34667,-0.45675 -0.45383,-0.73115c-0.10718,-0.27461 -0.15967,-0.56305 -0.15967,-0.86562c0,-0.30823 0.0525,-0.59964 0.15967,-0.87404c0.10718,-0.27461 0.25846,-0.51833 0.45383,-0.73115c0.20172,-0.21303 0.4454,-0.37818 0.73115,-0.49584c0.28573,-0.12333 0.60719,-0.18488 0.96646,-0.18488c0.35929,0 0.67862,0.06156 0.95805,0.18488c0.28573,0.11766 0.52946,0.28279 0.73115,0.49584c0.20172,0.21284 0.35295,0.45654 0.45383,0.73115c0.10718,0.27439 0.15967,0.56579 0.15967,0.87404c0,0.30255 -0.0525,0.59101 -0.15967,0.86562c-0.10086,0.27439 -0.25211,0.5181 -0.45383,0.73115c-0.1954,0.21284 -0.43699,0.3809 -0.72276,0.50423c-0.28573,0.11766 -0.60719,0.17648 -0.96646,0.17648zM246.9081,148.98827c0,0.25759 0.05043,0.48745 0.15128,0.68912c0.10086,0.19601 0.2374,0.35002 0.41179,0.4622c0.17439,0.112 0.36978,0.16807 0.58828,0.16807c0.2122,0 0.40549,-0.05609 0.57986,-0.16807c0.17439,-0.11766 0.31097,-0.27461 0.41182,-0.47062c0.10718,-0.20172 0.15967,-0.43153 0.15967,-0.68912c0,-0.25212 -0.0525,-0.47903 -0.15967,-0.68071c-0.10086,-0.20172 -0.23743,-0.35864 -0.41182,-0.47062c-0.17439,-0.11221 -0.36767,-0.16807 -0.57986,-0.16807c-0.2185,0 -0.4139,0.05879 -0.58828,0.17648c-0.17439,0.112 -0.31091,0.26895 -0.41179,0.47066c-0.10086,0.19601 -0.15128,0.42291 -0.15128,0.68071zM252.84555,151.20698c-0.29205,0 -0.56096,-0.05611 -0.80679,-0.16807c-0.24163,-0.11766 -0.4517,-0.28027 -0.63029,-0.48745c-0.17439,-0.20738 -0.30884,-0.44541 -0.40338,-0.71434c-0.09663,-0.26892 -0.14288,-0.55465 -0.14288,-0.8572c0,-0.31935 0.05043,-0.61643 0.15128,-0.89083c0.10086,-0.27461 0.23953,-0.51558 0.42022,-0.72276c0.18488,-0.21303 0.39918,-0.37545 0.64712,-0.48745c0.25212,-0.11766 0.52946,-0.17648 0.83201,-0.17648c0.34036,0 0.6408,0.07836 0.89924,0.23533c0.25632,0.15126 0.47066,0.35571 0.63871,0.61348v-0.77316h0.98329v4.19361c0,0.43699 -0.10718,0.80951 -0.31935,1.11774c-0.208,0.31367 -0.49587,0.55171 -0.86562,0.71434c-0.36976,0.16807 -0.78997,0.25211 -1.26058,0.25211c-0.47692,0 -0.88033,-0.08131 -1.21021,-0.2437c-0.33196,-0.15695 -0.61348,-0.38112 -0.84879,-0.67232l0.61349,-0.5967c0.16807,0.20717 0.37819,0.36976 0.63031,0.48745c0.25632,0.11766 0.52946,0.17648 0.8152,0.17648c0.23952,0 0.45803,-0.04496 0.6555,-0.13445c0.20172,-0.08405 0.36137,-0.2185 0.47903,-0.40338c0.12186,-0.17941 0.18488,-0.41179 0.18488,-0.69753v-0.55465c-0.14707,0.25212 -0.35295,0.44817 -0.62187,0.58828c-0.26473,0.13445 -0.54417,0.20172 -0.84039,0.20172zM253.22373,150.30772c0.12186,0 0.23947,-0.01973 0.35295,-0.05879c0.11137,-0.03928 0.2143,-0.09245 0.31097,-0.1597c0.09456,-0.06724 0.17859,-0.14579 0.25212,-0.23533c0.07143,-0.09539 0.12815,-0.19054 0.16807,-0.28574v-1.0505c-0.06724,-0.17375 -0.16385,-0.32505 -0.28573,-0.45384c-0.11766,-0.12898 -0.25212,-0.22691 -0.40338,-0.29415c-0.14707,-0.07292 -0.30048,-0.10925 -0.4622,-0.10925c-0.17439,0 -0.33197,0.03635 -0.47062,0.10925c-0.14077,0.0727 -0.26054,0.17649 -0.36137,0.31091c-0.10086,0.1288 -0.18068,0.27441 -0.23533,0.43701c-0.05043,0.15672 -0.07564,0.32209 -0.07564,0.49584c0,0.17922 0.0294,0.34729 0.09241,0.50423c0.06094,0.15672 0.14495,0.29413 0.25211,0.41179c0.11137,0.11766 0.23952,0.21008 0.38659,0.27734c0.15126,0.06724 0.31097,0.10083 0.47903,0.10083zM256.44872,151.18173v-4.40372h1.12617v4.40372zM256.44872,146.16449v-1.11774h1.12617v1.11774z" fill-opacity="0.9" fill="#333333" stroke="none" stroke-width="1" stroke-linecap="butt"/><path d="M197.97987,124.87715c0,0 0.12756,-0.77843 0.33994,-1.18771c0.2124,-0.40928 0.74795,-0.90827 0.74795,-0.90827v114.43761c0,0 -0.53556,-0.42863 -0.74795,-0.83829c-0.2124,-0.40967 -0.33994,-1.25851 -0.33994,-1.25851z" fill="url(#color-3)" stroke="none" stroke-width="1" stroke-linecap="butt"/><path d="M282.02011,235.12196c0,0 -0.12816,0.84881 -0.34037,1.25851c-0.2122,0.40967 -0.74795,0.83829 -0.74795,0.83829v-114.43761c0,0 0.53575,0.499 0.74795,0.90827c0.2122,0.40928 0.34037,1.18771 0.34037,1.18771z" fill="url(#color-4)" stroke="none" stroke-width="1" stroke-linecap="butt"/><path d="M201.65158,237.77767v-115.55535h4.21562v115.55535z" fill="url(#color-5)" stroke="none" stroke-width="1" stroke-linecap="butt"/><path d="M281.26062,237.44707l-82.08655,0.20708" fill="none" stroke="#3800ff" stroke-width="3" stroke-linecap="round"/><path d="M282.35461,237.36003l-0.22057,-115.19877" fill="none" stroke="#ff0000" stroke-width="3" stroke-linecap="round"/><path d="M199.0643,237.97921l-0.22056,-115.19877" fill="none" stroke="#ff0000" stroke-width="3" stroke-linecap="round"/></g></g></svg>