<svg version="1.1" xmlns="http://www.w3.org/2000/svg" xmlns:xlink="http://www.w3.org/1999/xlink" width="149.16976" height="15.46295" viewBox="0,0,149.16976,15.46295"><g transform="translate(-165.41512,-172.26852)"><g data-paper-data="{&quot;isPaintingLayer&quot;:true}" fill="#060606" fill-rule="nonzero" stroke="none" stroke-width="1" stroke-linecap="butt" stroke-linejoin="miter" stroke-miterlimit="10" stroke-dasharray="" stroke-dashoffset="0" style="mix-blend-mode: normal"><path d="M169.75478,173.39652c1.24289,0 2.15677,0.31856 2.74166,0.95567c0.59533,0.6371 0.89299,1.47266 0.89299,2.50666c0,0.71022 -0.16708,1.32644 -0.50133,1.84866c-0.32378,0.52222 -0.76766,0.92955 -1.33166,1.22199c-0.564,0.282 -1.20111,0.423 -1.91133,0.423c-0.33422,0 -0.68933,-0.03659 -1.06533,-0.10967c-0.36556,-0.07308 -0.74677,-0.21408 -1.14366,-0.423l0.07833,-0.20367c0.08356,0.26111 0.15144,0.58492 0.20367,0.97133c0.06267,0.376 0.10967,0.76766 0.141,1.175c0.04177,0.39691 0.06267,0.76242 0.06267,1.09666c0,0.61624 -0.10444,1.09141 -0.31333,1.42566c-0.19844,0.32375 -0.49611,0.48567 -0.89299,0.48567c-0.33422,0 -0.60055,-0.10442 -0.799,-0.31333c-0.188,-0.20892 -0.31856,-0.55358 -0.39166,-1.034c-0.07311,-0.48042 -0.10967,-1.12275 -0.10967,-1.92699c0,-1.54577 0.06789,-2.86177 0.20367,-3.94798c0.14622,-1.09666 0.39166,-1.95833 0.73634,-2.58499c0.27155,-0.48044 0.68933,-0.86167 1.25333,-1.14366c0.57444,-0.282 1.28989,-0.423 2.14632,-0.423zM169.45711,178.50385c0.62667,0 1.13322,-0.16711 1.51966,-0.50133c0.39689,-0.33422 0.59533,-0.81989 0.59533,-1.457c0,-0.41777 -0.141,-0.76244 -0.423,-1.034c-0.27155,-0.282 -0.69978,-0.423 -1.28467,-0.423c-0.42822,0 -0.799,0.09922 -1.11233,0.29766c-0.31333,0.188 -0.55355,0.45433 -0.72066,0.799c-0.15667,0.33422 -0.235,0.72066 -0.235,1.15933c0,0.40733 0.13056,0.705 0.39166,0.89299c0.27155,0.17756 0.69456,0.26633 1.26899,0.26633zM179.1173,184.78616c-1.15933,0 -2.08366,-0.17233 -2.77299,-0.51699c-0.68933,-0.34466 -1.18542,-0.84075 -1.48833,-1.48833c-0.30291,-0.64758 -0.45433,-1.42041 -0.45433,-2.31866c0,-1.13844 0.20892,-2.10455 0.62667,-2.89832c0.42825,-0.80422 1.01308,-1.42044 1.75466,-1.84866c0.752,-0.42822 1.60324,-0.64233 2.55366,-0.64233c1.11757,0 1.93742,0.26111 2.45966,0.78333c0.52224,0.51177 0.78333,1.18543 0.78333,2.02099c0,0.66844 -0.17758,1.24811 -0.53267,1.739c-0.34466,0.48042 -0.82508,0.85125 -1.44133,1.11233c-0.61624,0.26109 -1.32641,0.39166 -2.13066,0.39166c-0.44908,0 -0.88258,-0.05742 -1.30033,-0.17233c-0.41775,-0.11491 -0.79375,-0.27158 -1.128,-0.47l0.376,-0.68933c-0.03134,0.25067 -0.047,0.50133 -0.047,0.752c0,0.73109 0.22975,1.25858 0.68933,1.58233c0.45958,0.31333 1.11233,0.47 1.95833,0.47c0.658,0 1.18542,-0.05742 1.58233,-0.17233c0.39691,-0.11491 0.73109,-0.22458 1.00266,-0.329c0.27158,-0.11491 0.53792,-0.17233 0.799,-0.17233c0.14625,0 0.27675,0.04175 0.39166,0.12533c0.12533,0.07308 0.22458,0.18275 0.29766,0.329c0.08358,0.14625 0.12533,0.32375 0.12533,0.53267c0,0.31333 -0.15667,0.61624 -0.47,0.90867c-0.31333,0.282 -0.77808,0.51699 -1.39433,0.705c-0.60575,0.17758 -1.35258,0.26633 -2.24033,0.26633zM178.20864,179.66317c0.74158,0 1.33691,-0.15667 1.786,-0.47c0.44908,-0.31333 0.67366,-0.69978 0.67366,-1.15933c0,-0.36556 -0.12533,-0.66322 -0.376,-0.89299c-0.24024,-0.24023 -0.62142,-0.36034 -1.14366,-0.36034c-0.49091,0 -0.93475,0.094 -1.33166,0.282c-0.38642,0.17756 -0.68933,0.41256 -0.90867,0.705c-0.21933,0.29244 -0.329,0.611 -0.329,0.95567c0,0.30289 0.141,0.53789 0.423,0.705c0.29241,0.15667 0.69458,0.235 1.20633,0.235zM186.19674,174.91619c0.33425,0 0.55883,0.13577 0.67366,0.40733c0.12533,0.27155 0.188,0.67366 0.188,1.20633c0,0.12533 -0.01042,0.26111 -0.03134,0.40733c-0.01042,0.13577 -0.03134,0.26111 -0.06267,0.376l-0.03134,-0.31333c0.25067,-0.67889 0.63716,-1.20633 1.15933,-1.58233c0.52224,-0.38644 1.07583,-0.57967 1.66066,-0.57967c0.64758,0 1.1855,0.18277 1.61367,0.54833c0.43866,0.36556 0.7625,0.87733 0.97133,1.53533c0.21933,0.658 0.329,1.4361 0.329,2.33433c0,0.55355 -0.02609,1.10191 -0.07833,1.64499c-0.04175,0.53267 -0.10442,1.02358 -0.188,1.47266c-0.07308,0.43866 -0.15667,0.799 -0.25067,1.081c-0.12533,0.35509 -0.28716,0.62142 -0.48567,0.799c-0.19842,0.16708 -0.43342,0.25067 -0.705,0.25067c-0.2715,0 -0.48042,-0.09925 -0.62667,-0.29766c-0.14617,-0.19842 -0.21933,-0.46475 -0.21933,-0.799c0,-0.35509 0.02616,-0.78333 0.07833,-1.28467c0.05225,-0.51175 0.09925,-1.02875 0.141,-1.55099c0.05225,-0.53267 0.07833,-1.0131 0.07833,-1.44133c0,-1.46222 -0.48042,-2.19332 -1.44133,-2.19332c-0.51175,0 -0.94,0.22978 -1.28467,0.68933c-0.34466,0.44911 -0.57442,1.09144 -0.68933,1.92699c-0.03134,0.282 -0.047,0.63191 -0.047,1.04966c0,0.41775 0,0.83558 0,1.25333c0.0105,0.40733 0,0.752 -0.03134,1.034c-0.04175,0.62667 -0.16183,1.07575 -0.36034,1.34733c-0.188,0.27158 -0.44908,0.40733 -0.78333,0.40733c-0.38642,0 -0.67884,-0.17758 -0.87733,-0.53267c-0.19842,-0.36558 -0.29766,-0.97658 -0.29766,-1.833c0,-0.43866 0.0105,-0.92958 0.03134,-1.47266c0.02091,-0.54308 0.047,-1.08622 0.07833,-1.62933c0.04183,-0.55355 0.08883,-1.05489 0.141,-1.504c0.1045,-0.846 0.25592,-1.51444 0.45433,-2.00533c0.19849,-0.50133 0.49616,-0.752 0.89299,-0.752zM197.56632,184.41016c-0.98175,0 -1.78075,-0.376 -2.39699,-1.128c-0.61617,-0.76242 -0.92433,-1.91658 -0.92433,-3.46233c0,-1.65022 0.29766,-2.85655 0.89299,-3.61899c0.59533,-0.76244 1.37866,-1.14366 2.34999,-1.14366c0.57449,0 1.081,0.14622 1.51966,0.43866c0.43866,0.29244 0.81466,0.705 1.128,1.23767l-0.12533,0.21933c-0.03134,-0.14622 -0.05742,-0.30289 -0.07833,-0.47c-0.02084,-0.16711 -0.03134,-0.29244 -0.03134,-0.376c0,-0.42822 0.06791,-0.75722 0.20367,-0.987c0.14625,-0.24023 0.37083,-0.36034 0.67366,-0.36034c0.33425,0 0.59533,0.13577 0.78333,0.40733c0.19849,0.27155 0.34991,0.658 0.45433,1.15933c0.13583,0.51177 0.25067,1.16456 0.34466,1.95833c0.094,0.78333 0.141,1.57711 0.141,2.38133c0,1.00266 -0.0365,1.84341 -0.10967,2.52232c-0.07308,0.67891 -0.19317,1.24291 -0.36034,1.69199c-0.16708,0.44908 -0.38642,0.84075 -0.658,1.175c-0.44908,0.54308 -1.02875,0.95567 -1.739,1.23767c-0.69975,0.29241 -1.50917,0.43866 -2.42833,0.43866c-0.658,0 -1.18542,-0.06267 -1.58233,-0.188c-0.39683,-0.11491 -0.68409,-0.27675 -0.86167,-0.48567c-0.16708,-0.19842 -0.25067,-0.423 -0.25067,-0.67366c0,-0.26109 0.07316,-0.48042 0.21933,-0.658c0.14625,-0.16708 0.36558,-0.25067 0.658,-0.25067c0.26117,0 0.564,0.04175 0.90867,0.12533c0.35516,0.08358 0.77291,0.12533 1.25333,0.12533c1.01316,0 1.72858,-0.24024 2.14632,-0.72066c0.42825,-0.47 0.64233,-1.14891 0.64233,-2.03666c0,-0.24024 -0.01566,-0.52224 -0.047,-0.846l0.21933,0.07833c-0.26109,0.66841 -0.6475,1.20633 -1.15933,1.61367c-0.51175,0.39691 -1.10708,0.59533 -1.786,0.59533zM198.16165,182.48317c0.33425,0 0.66849,-0.08875 1.00266,-0.26633c0.33425,-0.17758 0.611,-0.47 0.83033,-0.87733c0.21933,-0.40733 0.329,-0.95567 0.329,-1.64499c0,-0.82511 -0.19317,-1.49877 -0.57967,-2.02099c-0.38642,-0.52222 -0.9295,-0.78333 -1.62933,-0.78333c-0.60575,0 -1.04966,0.22978 -1.33166,0.68933c-0.282,0.45956 -0.423,1.15411 -0.423,2.08366c0,0.88775 0.141,1.58233 0.423,2.08366c0.282,0.49091 0.74158,0.73634 1.37866,0.73634zM208.7982,184.78616c-1.15933,0 -2.08366,-0.17233 -2.77299,-0.51699c-0.68933,-0.34466 -1.18542,-0.84075 -1.48833,-1.48833c-0.30291,-0.64758 -0.45433,-1.42041 -0.45433,-2.31866c0,-1.13844 0.20892,-2.10455 0.62667,-2.89832c0.42825,-0.80422 1.01308,-1.42044 1.75466,-1.84866c0.752,-0.42822 1.60324,-0.64233 2.55366,-0.64233c1.11757,0 1.93742,0.26111 2.45966,0.78333c0.52224,0.51177 0.78333,1.18543 0.78333,2.02099c0,0.66844 -0.17758,1.24811 -0.53267,1.739c-0.34466,0.48042 -0.82508,0.85125 -1.44133,1.11233c-0.61624,0.26109 -1.32641,0.39166 -2.13066,0.39166c-0.44908,0 -0.88258,-0.05742 -1.30033,-0.17233c-0.41775,-0.11491 -0.79375,-0.27158 -1.128,-0.47l0.376,-0.68933c-0.03134,0.25067 -0.047,0.50133 -0.047,0.752c0,0.73109 0.22975,1.25858 0.68933,1.58233c0.45958,0.31333 1.11233,0.47 1.95833,0.47c0.658,0 1.18542,-0.05742 1.58233,-0.17233c0.39691,-0.11491 0.73109,-0.22458 1.00266,-0.329c0.27158,-0.11491 0.53792,-0.17233 0.799,-0.17233c0.14625,0 0.27675,0.04175 0.39166,0.12533c0.12533,0.07308 0.22458,0.18275 0.29766,0.329c0.08358,0.14625 0.12533,0.32375 0.12533,0.53267c0,0.31333 -0.15667,0.61624 -0.47,0.90867c-0.31333,0.282 -0.77808,0.51699 -1.39433,0.705c-0.60575,0.17758 -1.35258,0.26633 -2.24033,0.26633zM207.88953,179.66317c0.74158,0 1.33691,-0.15667 1.786,-0.47c0.44908,-0.31333 0.67366,-0.69978 0.67366,-1.15933c0,-0.36556 -0.12533,-0.66322 -0.376,-0.89299c-0.24024,-0.24023 -0.62142,-0.36034 -1.14366,-0.36034c-0.49091,0 -0.93475,0.094 -1.33166,0.282c-0.38642,0.17756 -0.68933,0.41256 -0.90867,0.705c-0.21933,0.29244 -0.329,0.611 -0.329,0.95567c0,0.30289 0.141,0.53789 0.423,0.705c0.29241,0.15667 0.69458,0.235 1.20633,0.235zM214.27971,177.59518c0,-1.00266 0.094,-1.72333 0.282,-2.162c0.188,-0.44911 0.45433,-0.67366 0.799,-0.67366c0.2715,0 0.48567,0.11489 0.64233,0.34466c0.15667,0.21933 0.2715,0.49611 0.34466,0.83033c0.07308,0.32378 0.10967,0.65278 0.10967,0.987l-0.07833,-0.03134c0.1775,-0.564 0.44908,-1.04966 0.81466,-1.457c0.376,-0.40733 0.82508,-0.611 1.34733,-0.611c0.61617,0 1.0705,0.25589 1.363,0.76766c0.29241,0.50133 0.43866,1.128 0.43866,1.88c0,1.00266 -0.11491,1.70244 -0.34466,2.09933c-0.22983,0.39691 -0.53792,0.59533 -0.92433,0.59533c-0.282,0 -0.49091,-0.11491 -0.62667,-0.34466c-0.12533,-0.22978 -0.16716,-0.6371 -0.12533,-1.22199c0.04175,-0.61623 0.00517,-1.04444 -0.10967,-1.28467c-0.11491,-0.24023 -0.29766,-0.36034 -0.54833,-0.36034c-0.30291,0 -0.55358,0.19323 -0.752,0.57967c-0.188,0.376 -0.282,0.84077 -0.282,1.39433c0,0.21933 0.02609,0.49611 0.07833,0.83033c0.05217,0.33425 0.10967,0.69975 0.17233,1.09666c0.06267,0.38642 0.12008,0.77291 0.17233,1.15933c0.05217,0.38642 0.07833,0.74158 0.07833,1.06533c0,0.57442 -0.08883,0.987 -0.26633,1.23767c-0.17758,0.25067 -0.42825,0.376 -0.752,0.376c-0.36558,0 -0.64758,-0.11491 -0.846,-0.34466c-0.19849,-0.24024 -0.34991,-0.62667 -0.45433,-1.15933c-0.08358,-0.48042 -0.16716,-1.04966 -0.25067,-1.70766c-0.08358,-0.658 -0.1515,-1.33166 -0.20367,-2.02099c-0.05225,-0.68933 -0.07833,-1.31077 -0.07833,-1.86433zM224.37818,175.22952h-0.31333c-0.03134,-0.45956 -0.02091,-0.89299 0.03134,-1.30033c0.05225,-0.41777 0.16192,-0.752 0.329,-1.00266c0.17758,-0.26111 0.42825,-0.39166 0.752,-0.39166c0.29241,0 0.50658,0.094 0.64233,0.282c0.13575,0.188 0.20367,0.44911 0.20367,0.78333c0,0.658 -0.12533,1.22199 -0.376,1.69199l-0.282,-0.03134c0.564,-0.19844 1.20108,-0.29766 1.91133,-0.29766c0.44908,0 0.80425,0.08877 1.06533,0.26633c0.27158,0.16711 0.40733,0.45433 0.40733,0.86167c0,0.38644 -0.15667,0.67889 -0.47,0.87733c-0.31333,0.19844 -0.705,0.29766 -1.175,0.29766c-0.282,0 -0.58492,-0.01044 -0.90867,-0.03134c-0.31333,-0.03134 -0.62142,-0.07833 -0.92433,-0.141l0.26633,-0.329c0.094,0.39689 0.18275,0.85122 0.26633,1.363c0.094,0.50133 0.17758,1.02355 0.25067,1.56666c0.07308,0.54308 0.13058,1.07058 0.17233,1.58233c0.04175,0.51175 0.06267,0.97133 0.06267,1.37866c0,0.66841 -0.10442,1.19591 -0.31333,1.58233c-0.20892,0.38642 -0.51699,0.57967 -0.92433,0.57967c-0.32375,0 -0.57967,-0.09925 -0.76766,-0.29766c-0.17758,-0.19842 -0.30809,-0.44908 -0.39166,-0.752c-0.07308,-0.31333 -0.12008,-0.63709 -0.141,-0.97133c-0.01042,-0.33425 -0.01566,-0.63709 -0.01566,-0.90867c0,-0.45958 0.02091,-0.97658 0.06267,-1.55099c0.04175,-0.58489 0.09925,-1.18543 0.17233,-1.80166c0.08358,-0.61623 0.17758,-1.21156 0.282,-1.786l0.31333,0.26633c-0.53267,0.27155 -1.19066,0.40733 -1.97399,0.40733c-0.48042,0 -0.85125,-0.08877 -1.11233,-0.26633c-0.26109,-0.17756 -0.39166,-0.45433 -0.39166,-0.83033c0,-0.40733 0.14625,-0.72066 0.43866,-0.94c0.29241,-0.22978 0.68409,-0.34466 1.175,-0.34466c0.32375,0 0.62667,0.02089 0.90867,0.06267c0.29241,0.03134 0.54833,0.07311 0.76766,0.12533zM231.40145,172.64452c0.41782,0 0.7155,0.11489 0.89299,0.34466c0.188,0.22978 0.282,0.49611 0.282,0.799c0,0.376 -0.11483,0.66844 -0.34466,0.87733c-0.21933,0.19844 -0.53267,0.29766 -0.94,0.29766c-0.39683,0 -0.6945,-0.10967 -0.89299,-0.329c-0.19842,-0.22978 -0.29766,-0.49611 -0.29766,-0.799c0,-0.39689 0.12016,-0.69456 0.36034,-0.89299c0.24024,-0.19845 0.55358,-0.29766 0.94,-0.29766zM231.49545,176.13819c0.33425,0 0.59533,0.31333 0.78333,0.94c0.19849,0.62667 0.29766,1.62411 0.29766,2.99233c0,1.68158 -0.12008,2.89308 -0.36034,3.63466c-0.24017,0.74158 -0.60575,1.11233 -1.09666,1.11233c-0.376,0 -0.65275,-0.27158 -0.83033,-0.81466c-0.1775,-0.55358 -0.26633,-1.51442 -0.26633,-2.88266c0,-1.68155 0.13583,-2.92966 0.40733,-3.74433c0.282,-0.82511 0.63716,-1.23767 1.06533,-1.23767zM241.3366,184.8175c-0.35516,0 -0.60058,-0.13575 -0.73634,-0.40733c-0.12533,-0.282 -0.19849,-0.72591 -0.21933,-1.33166l0.15667,0.07833c-0.58492,1.13842 -1.69199,1.70766 -3.32132,1.70766c-0.74158,0 -1.35783,-0.13058 -1.84866,-0.39166c-0.49091,-0.27158 -0.8565,-0.62667 -1.09666,-1.06533c-0.22983,-0.44908 -0.34466,-0.93475 -0.34466,-1.457c0,-0.89824 0.31333,-1.60842 0.94,-2.13066c0.62667,-0.53267 1.457,-0.799 2.491,-0.799c0.67884,0 1.26899,0.09922 1.77033,0.29766c0.50133,0.19844 0.9295,0.47522 1.28467,0.83033l-0.26633,-0.03134c-0.07316,-1.05489 -0.30291,-1.80688 -0.68933,-2.25599c-0.376,-0.45956 -0.91392,-0.68933 -1.61367,-0.68933c-0.40733,0 -0.78333,0.06267 -1.128,0.188c-0.34466,0.12533 -0.66325,0.25589 -0.95567,0.39166c-0.282,0.12533 -0.54833,0.188 -0.799,0.188c-0.25067,0 -0.44916,-0.08356 -0.59533,-0.25067c-0.13583,-0.16711 -0.20367,-0.38122 -0.20367,-0.64233c0,-0.376 0.1775,-0.73111 0.53267,-1.06533c0.3655,-0.33422 0.846,-0.60578 1.44133,-0.81466c0.59533,-0.20889 1.24283,-0.31333 1.94266,-0.31333c0.846,0 1.57183,0.20367 2.17766,0.611c0.60575,0.40733 1.06533,1.00266 1.37866,1.786c0.2715,0.66844 0.46475,1.41522 0.57967,2.24033c0.11483,0.82508 0.17225,1.70766 0.17225,2.64766c0,0.71025 -0.0365,1.25858 -0.10959,1.64499c-0.07316,0.38642 -0.188,0.658 -0.34466,0.81466c-0.14625,0.14625 -0.34466,0.21933 -0.59533,0.21933zM237.87427,183.06284c0.34466,0 0.6945,-0.047 1.04966,-0.141c0.35509,-0.10442 0.65275,-0.25592 0.89299,-0.45433c0.24017,-0.19842 0.36034,-0.44391 0.36034,-0.73634c0,-0.25067 -0.1045,-0.45433 -0.31333,-0.611c-0.19849,-0.16708 -0.46483,-0.29241 -0.799,-0.376c-0.32383,-0.08358 -0.67366,-0.12533 -1.04966,-0.12533c-0.63716,0 -1.12282,0.10967 -1.457,0.329c-0.32383,0.21933 -0.48567,0.51175 -0.48567,0.87733c0,0.39691 0.15142,0.705 0.45433,0.92433c0.31333,0.20892 0.76242,0.31333 1.34733,0.31333zM245.89535,174.91619c0.3337,0 0.55851,0.13577 0.67366,0.40733c0.12533,0.27155 0.188,0.67366 0.188,1.20633c0,0.12533 -0.01097,0.26111 -0.03134,0.40733c-0.01097,0.13577 -0.03134,0.26111 -0.06267,0.376l-0.03134,-0.31333c0.25067,-0.67889 0.63685,-1.20633 1.15933,-1.58233c0.5217,-0.38644 1.07552,-0.57967 1.66066,-0.57967c0.64703,0 1.18518,0.18277 1.61367,0.54833c0.43866,0.36556 0.76218,0.87733 0.97133,1.53533c0.21933,0.658 0.329,1.4361 0.329,2.33433c0,0.55355 -0.02663,1.10191 -0.07833,1.64499c-0.0423,0.53267 -0.10497,1.02358 -0.188,1.47266c-0.07363,0.43866 -0.15667,0.799 -0.25067,1.081c-0.12533,0.35509 -0.28748,0.62142 -0.48567,0.799c-0.19897,0.16708 -0.43397,0.25067 -0.705,0.25067c-0.27182,0 -0.48097,-0.09925 -0.62667,-0.29766c-0.14649,-0.19842 -0.21933,-0.46475 -0.21933,-0.799c0,-0.35509 0.02585,-0.78333 0.07833,-1.28467c0.0517,-0.51175 0.0987,-1.02875 0.141,-1.55099c0.0517,-0.53267 0.07833,-1.0131 0.07833,-1.44133c0,-1.46222 -0.48097,-2.19332 -1.44133,-2.19332c-0.5123,0 -0.94,0.22978 -1.28467,0.68933c-0.34466,0.44911 -0.57496,1.09144 -0.68933,1.92699c-0.03134,0.282 -0.047,0.63191 -0.047,1.04966c0,0.41775 0,0.83558 0,1.25333c0.01018,0.40733 0,0.752 -0.03134,1.034c-0.0423,0.62667 -0.16215,1.07575 -0.36034,1.34733c-0.188,0.27158 -0.44963,0.40733 -0.78333,0.40733c-0.38697,0 -0.67914,-0.17758 -0.87733,-0.53267c-0.19897,-0.36558 -0.29766,-0.97658 -0.29766,-1.833c0,-0.43866 0.01018,-0.92958 0.03134,-1.47266c0.02036,-0.54308 0.047,-1.08622 0.07833,-1.62933c0.04152,-0.55355 0.08852,-1.05489 0.141,-1.504c0.10418,-0.846 0.25537,-1.51444 0.45433,-2.00533c0.19819,-0.50133 0.49585,-0.752 0.89299,-0.752zM258.52108,184.8175c-0.188,0 -0.33918,-0.06267 -0.45433,-0.188c-0.11515,-0.13575 -0.20915,-0.34991 -0.282,-0.64233c-0.07285,-0.33425 -0.141,-0.85642 -0.20367,-1.56666c-0.06267,-0.72066 -0.094,-1.52491 -0.094,-2.41266c0,-0.96089 0.02585,-1.89566 0.07833,-2.80432c0.06267,-0.91911 0.15118,-1.72855 0.26633,-2.42833c0.08381,-0.45956 0.20367,-0.799 0.36034,-1.01833c0.16685,-0.22978 0.39715,-0.34466 0.68933,-0.34466c0.188,0 0.35485,0.06267 0.50133,0.188c0.14649,0.12533 0.25615,0.34989 0.329,0.67366c0.08381,0.32378 0.12533,0.78333 0.12533,1.37866c0,0.29244 -0.01018,0.62667 -0.03134,1.00266c-0.02115,0.36556 -0.05248,0.77289 -0.094,1.22199h0.06267c0.83581,-1.14888 1.57215,-2.06277 2.209,-2.74166c0.63685,-0.68933 1.19615,-1.18543 1.67633,-1.48833c0.49115,-0.30289 0.91885,-0.45433 1.28467,-0.45433c0.29218,0 0.51151,0.094 0.658,0.282c0.15667,0.188 0.235,0.41777 0.235,0.68933c0,0.57444 -0.43318,1.26377 -1.30033,2.06799c-0.85618,0.80422 -2.24033,1.77033 -4.15165,2.89832l0.12533,-0.29766c1.65048,1.04444 2.89832,1.96874 3.74433,2.77299c0.846,0.79375 1.26899,1.49875 1.26899,2.115c0,0.27158 -0.08852,0.49608 -0.26633,0.67366c-0.16685,0.16708 -0.41752,0.25067 -0.752,0.25067c-0.41752,0 -0.86167,-0.141 -1.33166,-0.423c-0.47,-0.29241 -0.99248,-0.77808 -1.56666,-1.457c-0.564,-0.68933 -1.20633,-1.62408 -1.92699,-2.80432h-0.06267c0.02115,0.24024 0.03682,0.49091 0.047,0.752c0.01018,0.25067 0.01566,0.50133 0.01566,0.752c0,1.20108 -0.08381,2.06275 -0.25067,2.58499c-0.16685,0.51175 -0.47,0.76766 -0.90867,0.76766zM271.5565,184.78616c-1.15933,0 -2.08366,-0.17233 -2.77299,-0.51699c-0.68933,-0.34466 -1.18518,-0.84075 -1.48833,-1.48833c-0.30315,-0.64758 -0.45433,-1.42041 -0.45433,-2.31866c0,-1.13844 0.20915,-2.10455 0.62667,-2.89832c0.42848,-0.80422 1.01285,-1.42044 1.75466,-1.84866c0.752,-0.42822 1.60348,-0.64233 2.55366,-0.64233c1.11781,0 1.93718,0.26111 2.45966,0.78333c0.52249,0.51177 0.78333,1.18543 0.78333,2.02099c0,0.66844 -0.17781,1.24811 -0.53267,1.739c-0.34466,0.48042 -0.82485,0.85125 -1.44133,1.11233c-0.61648,0.26109 -1.32618,0.39166 -2.13066,0.39166c-0.44885,0 -0.88281,-0.05742 -1.30033,-0.17233c-0.41752,-0.11491 -0.79352,-0.27158 -1.128,-0.47l0.376,-0.68933c-0.03134,0.25067 -0.047,0.50133 -0.047,0.752c0,0.73109 0.22951,1.25858 0.68933,1.58233c0.45981,0.31333 1.11233,0.47 1.95833,0.47c0.658,0 1.18518,-0.05742 1.58233,-0.17233c0.39715,-0.11491 0.73084,-0.22458 1.00266,-0.329c0.27182,-0.11491 0.53815,-0.17233 0.799,-0.17233c0.14649,0 0.27651,0.04175 0.39166,0.12533c0.12533,0.07308 0.22482,0.18275 0.29766,0.329c0.08381,0.14625 0.12533,0.32375 0.12533,0.53267c0,0.31333 -0.15667,0.61624 -0.47,0.90867c-0.31333,0.282 -0.77784,0.51699 -1.39433,0.705c-0.60551,0.17758 -1.35281,0.26633 -2.24033,0.26633zM270.64783,179.66317c0.74182,0 1.33715,-0.15667 1.786,-0.47c0.44885,-0.31333 0.67366,-0.69978 0.67366,-1.15933c0,-0.36556 -0.12533,-0.66322 -0.376,-0.89299c-0.24048,-0.24023 -0.62118,-0.36034 -1.14366,-0.36034c-0.49115,0 -0.93451,0.094 -1.33166,0.282c-0.38618,0.17756 -0.68933,0.41256 -0.90867,0.705c-0.21933,0.29244 -0.329,0.611 -0.329,0.95567c0,0.30289 0.141,0.53789 0.423,0.705c0.29218,0.15667 0.69482,0.235 1.20633,0.235zM278.73025,184.69217c-0.3243,0 -0.57967,-0.07308 -0.76766,-0.21933c-0.188,-0.15667 -0.33996,-0.41258 -0.45433,-0.76766c-0.15667,-0.52224 -0.2773,-1.18025 -0.36034,-1.97399c-0.07363,-0.80425 -0.10967,-1.79122 -0.10967,-2.96099c0,-0.72066 0.02585,-1.44133 0.07833,-2.162c0.06267,-0.73111 0.141,-1.39433 0.235,-1.98967c0.094,-0.60578 0.1927,-1.07577 0.29766,-1.41c0.11436,-0.35511 0.25067,-0.60055 0.40733,-0.73634c0.15667,-0.13577 0.3337,-0.20367 0.53267,-0.20367c0.20837,0 0.376,0.07311 0.50133,0.21933c0.12533,0.13577 0.22403,0.38122 0.29766,0.73634c0.06267,0.34466 0.10967,0.76766 0.141,1.26899c0.04152,0.50133 0.06267,1.03922 0.06267,1.61367c0,0.78333 -0.03682,1.60844 -0.10967,2.47532c-0.07363,0.86689 -0.17233,1.71808 -0.29766,2.55366c-0.11515,0.83558 -0.25615,1.60324 -0.423,2.30299l-0.43866,-0.21933c0.27103,-0.33425 0.57967,-0.59533 0.92433,-0.78333c0.35485,-0.188 0.67837,-0.282 0.97133,-0.282c0.2397,0 0.423,0.06791 0.54833,0.20367c0.13552,0.12533 0.20367,0.32375 0.20367,0.59533c0,0.27158 -0.12063,0.54308 -0.36034,0.81466c-0.2303,0.27158 -0.51699,0.49608 -0.86167,0.67366c-0.34466,0.16708 -0.68463,0.25067 -1.01833,0.25067zM283.77177,172.64452c0.41752,0 0.71518,0.11489 0.89299,0.34466c0.188,0.22978 0.282,0.49611 0.282,0.799c0,0.376 -0.11515,0.66844 -0.34466,0.87733c-0.21933,0.19844 -0.53267,0.29766 -0.94,0.29766c-0.39715,0 -0.69482,-0.10967 -0.89299,-0.329c-0.19897,-0.22978 -0.29766,-0.49611 -0.29766,-0.799c0,-0.39689 0.11985,-0.69456 0.36034,-0.89299c0.2397,-0.19845 0.55303,-0.29766 0.94,-0.29766zM283.86577,176.13819c0.3337,0 0.59533,0.31333 0.78333,0.94c0.19819,0.62667 0.29766,1.62411 0.29766,2.99233c0,1.68158 -0.12063,2.89308 -0.36034,3.63466c-0.24048,0.74158 -0.6063,1.11233 -1.09666,1.11233c-0.376,0 -0.6533,-0.27158 -0.83033,-0.81466c-0.17781,-0.55358 -0.26633,-1.51442 -0.26633,-2.88266c0,-1.68155 0.13552,-2.92966 0.40733,-3.74433c0.282,-0.82511 0.63685,-1.23767 1.06533,-1.23767zM288.55243,184.69217c-0.3243,0 -0.57967,-0.07308 -0.76766,-0.21933c-0.188,-0.15667 -0.33996,-0.41258 -0.45433,-0.76766c-0.15667,-0.52224 -0.2773,-1.18025 -0.36034,-1.97399c-0.07363,-0.80425 -0.10967,-1.79122 -0.10967,-2.96099c0,-0.72066 0.02585,-1.44133 0.07833,-2.162c0.06267,-0.73111 0.141,-1.39433 0.235,-1.98967c0.094,-0.60578 0.1927,-1.07577 0.29766,-1.41c0.11436,-0.35511 0.25067,-0.60055 0.40733,-0.73634c0.15667,-0.13577 0.3337,-0.20367 0.53267,-0.20367c0.20837,0 0.376,0.07311 0.50133,0.21933c0.12533,0.13577 0.22403,0.38122 0.29766,0.73634c0.06267,0.34466 0.10967,0.76766 0.141,1.26899c0.04152,0.50133 0.06267,1.03922 0.06267,1.61367c0,0.78333 -0.03682,1.60844 -0.10967,2.47532c-0.07363,0.86689 -0.17233,1.71808 -0.29766,2.55366c-0.11515,0.83558 -0.25615,1.60324 -0.423,2.30299l-0.43866,-0.21933c0.27103,-0.33425 0.57967,-0.59533 0.92433,-0.78333c0.35485,-0.188 0.67837,-0.282 0.97133,-0.282c0.2397,0 0.423,0.06791 0.54833,0.20367c0.13552,0.12533 0.20367,0.32375 0.20367,0.59533c0,0.27158 -0.12063,0.54308 -0.36034,0.81466c-0.2303,0.27158 -0.51699,0.49608 -0.86167,0.67366c-0.34466,0.16708 -0.68463,0.25067 -1.01833,0.25067zM293.59395,172.64452c0.41752,0 0.71518,0.11489 0.89299,0.34466c0.188,0.22978 0.282,0.49611 0.282,0.799c0,0.376 -0.11515,0.66844 -0.34466,0.87733c-0.21933,0.19844 -0.53267,0.29766 -0.94,0.29766c-0.39715,0 -0.69482,-0.10967 -0.89299,-0.329c-0.19897,-0.22978 -0.29766,-0.49611 -0.29766,-0.799c0,-0.39689 0.11985,-0.69456 0.36034,-0.89299c0.2397,-0.19845 0.55303,-0.29766 0.94,-0.29766zM293.68795,176.13819c0.3337,0 0.59533,0.31333 0.78333,0.94c0.19819,0.62667 0.29766,1.62411 0.29766,2.99233c0,1.68158 -0.12063,2.89308 -0.36034,3.63466c-0.24048,0.74158 -0.6063,1.11233 -1.09666,1.11233c-0.376,0 -0.6533,-0.27158 -0.83033,-0.81466c-0.17781,-0.55358 -0.26633,-1.51442 -0.26633,-2.88266c0,-1.68155 0.13552,-2.92966 0.40733,-3.74433c0.282,-0.82511 0.63685,-1.23767 1.06533,-1.23767zM298.28063,174.91619c0.3337,0 0.55851,0.13577 0.67366,0.40733c0.12533,0.27155 0.188,0.67366 0.188,1.20633c0,0.12533 -0.01097,0.26111 -0.03134,0.40733c-0.01097,0.13577 -0.03134,0.26111 -0.06267,0.376l-0.03134,-0.31333c0.25067,-0.67889 0.63685,-1.20633 1.15933,-1.58233c0.5217,-0.38644 1.07552,-0.57967 1.66066,-0.57967c0.64703,0 1.18518,0.18277 1.61367,0.54833c0.43866,0.36556 0.76218,0.87733 0.97133,1.53533c0.21933,0.658 0.329,1.4361 0.329,2.33433c0,0.55355 -0.02663,1.10191 -0.07833,1.64499c-0.0423,0.53267 -0.10497,1.02358 -0.188,1.47266c-0.07363,0.43866 -0.15667,0.799 -0.25067,1.081c-0.12533,0.35509 -0.28748,0.62142 -0.48567,0.799c-0.19897,0.16708 -0.43397,0.25067 -0.705,0.25067c-0.27182,0 -0.48097,-0.09925 -0.62667,-0.29766c-0.14649,-0.19842 -0.21933,-0.46475 -0.21933,-0.799c0,-0.35509 0.02585,-0.78333 0.07833,-1.28467c0.0517,-0.51175 0.0987,-1.02875 0.141,-1.55099c0.0517,-0.53267 0.07833,-1.0131 0.07833,-1.44133c0,-1.46222 -0.48097,-2.19332 -1.44133,-2.19332c-0.5123,0 -0.94,0.22978 -1.28467,0.68933c-0.34466,0.44911 -0.57496,1.09144 -0.68933,1.92699c-0.03134,0.282 -0.047,0.63191 -0.047,1.04966c0,0.41775 0,0.83558 0,1.25333c0.01018,0.40733 0,0.752 -0.03134,1.034c-0.0423,0.62667 -0.16215,1.07575 -0.36034,1.34733c-0.188,0.27158 -0.44963,0.40733 -0.78333,0.40733c-0.38697,0 -0.67914,-0.17758 -0.87733,-0.53267c-0.19897,-0.36558 -0.29766,-0.97658 -0.29766,-1.833c0,-0.43866 0.01018,-0.92958 0.03134,-1.47266c0.02036,-0.54308 0.047,-1.08622 0.07833,-1.62933c0.04152,-0.55355 0.08852,-1.05489 0.141,-1.504c0.10418,-0.846 0.25537,-1.51444 0.45433,-2.00533c0.19819,-0.50133 0.49585,-0.752 0.89299,-0.752zM309.6499,184.41016c-0.98151,0 -1.78051,-0.376 -2.39699,-1.128c-0.61648,-0.76242 -0.92433,-1.91658 -0.92433,-3.46233c0,-1.65022 0.29766,-2.85655 0.89299,-3.61899c0.59533,-0.76244 1.37866,-1.14366 2.34999,-1.14366c0.57419,0 1.081,0.14622 1.51966,0.43866c0.43866,0.29244 0.81466,0.705 1.128,1.23767l-0.12533,0.21933c-0.03134,-0.14622 -0.05718,-0.30289 -0.07833,-0.47c-0.02115,-0.16711 -0.03134,-0.29244 -0.03134,-0.376c0,-0.42822 0.06815,-0.75722 0.20367,-0.987c0.14649,-0.24023 0.37052,-0.36034 0.67366,-0.36034c0.33448,0 0.59533,0.13577 0.78333,0.40733c0.19819,0.27155 0.35015,0.658 0.45433,1.15933c0.13552,0.51177 0.25067,1.16456 0.34466,1.95833c0.094,0.78333 0.141,1.57711 0.141,2.38133c0,1.00266 -0.03682,1.84341 -0.10967,2.52232c-0.07285,0.67891 -0.19349,1.24291 -0.36034,1.69199c-0.16685,0.44908 -0.38618,0.84075 -0.658,1.175c-0.44885,0.54308 -1.02851,0.95567 -1.739,1.23767c-0.69952,0.29241 -1.50948,0.43866 -2.42833,0.43866c-0.658,0 -1.18518,-0.06267 -1.58233,-0.188c-0.39715,-0.11491 -0.68385,-0.27675 -0.86167,-0.48567c-0.16685,-0.19842 -0.25067,-0.423 -0.25067,-0.67366c0,-0.26109 0.07285,-0.48042 0.21933,-0.658c0.14649,-0.16708 0.36582,-0.25067 0.658,-0.25067c0.26085,0 0.564,0.04175 0.90867,0.12533c0.35485,0.08358 0.77315,0.12533 1.25333,0.12533c1.01285,0 1.72881,-0.24024 2.14632,-0.72066c0.42848,-0.47 0.64233,-1.14891 0.64233,-2.03666c0,-0.24024 -0.01566,-0.52224 -0.047,-0.846l0.21933,0.07833c-0.26085,0.66841 -0.64782,1.20633 -1.15933,1.61367c-0.51151,0.39691 -1.10684,0.59533 -1.786,0.59533zM310.24522,182.48317c0.33448,0 0.66818,-0.08875 1.00266,-0.26633c0.33448,-0.17758 0.611,-0.47 0.83033,-0.87733c0.21933,-0.40733 0.329,-0.95567 0.329,-1.64499c0,-0.82511 -0.19349,-1.49877 -0.57967,-2.02099c-0.38618,-0.52222 -0.92981,-0.78333 -1.62933,-0.78333c-0.60551,0 -1.04966,0.22978 -1.33166,0.68933c-0.282,0.45956 -0.423,1.15411 -0.423,2.08366c0,0.88775 0.141,1.58233 0.423,2.08366c0.282,0.49091 0.74182,0.73634 1.37866,0.73634z"/></g></g></svg>