<svg version="1.1" xmlns="http://www.w3.org/2000/svg" xmlns:xlink="http://www.w3.org/1999/xlink" width="218.95777" height="15.70526" viewBox="0,0,218.95777,15.70526"><g transform="translate(-130.52112,-172.14737)"><g data-paper-data="{&quot;isPaintingLayer&quot;:true}" fill="#060606" fill-rule="nonzero" stroke="none" stroke-width="1" stroke-linecap="butt" stroke-linejoin="miter" stroke-miterlimit="10" stroke-dasharray="" stroke-dashoffset="0" style="mix-blend-mode: normal"><path d="M131.55869,184.73988c-0.18865,0 -0.34062,-0.06288 -0.45591,-0.18865c-0.11529,-0.13628 -0.20961,-0.35106 -0.28297,-0.64456c-0.07336,-0.33535 -0.14149,-0.85944 -0.20437,-1.5721c-0.06288,-0.72316 -0.09432,-1.53017 -0.09432,-2.42103c0,-0.96421 0.0262,-1.90224 0.07861,-2.81405c0.06288,-0.9223 0.15197,-1.73454 0.26726,-2.43675c0.08385,-0.46114 0.20437,-0.80177 0.36158,-1.02186c0.16769,-0.23058 0.39826,-0.34587 0.69172,-0.34587c0.18865,0 0.35635,0.06288 0.50307,0.18865c0.14673,0.12577 0.25678,0.3511 0.33014,0.67601c0.08384,0.3249 0.12577,0.78604 0.12577,1.38344c0,0.29346 -0.01048,0.62884 -0.03144,1.00614c-0.02096,0.36682 -0.0524,0.77556 -0.09432,1.22623h0.06288c0.83845,-1.15287 1.57734,-2.06994 2.21665,-2.75117c0.63933,-0.69172 1.20003,-1.18956 1.68214,-1.49349c0.49258,-0.30393 0.9223,-0.45591 1.28912,-0.45591c0.29346,0 0.51355,0.09432 0.66028,0.28297c0.15721,0.18865 0.23582,0.41923 0.23582,0.69172c0,0.57644 -0.43495,1.26817 -1.30484,2.07517c-0.85942,0.80701 -2.24809,1.77647 -4.16606,2.90838l0.12577,-0.2987c1.65593,1.04807 2.90838,1.9756 3.75731,2.78261c0.84894,0.79656 1.2734,1.50401 1.2734,2.12233c0,0.27247 -0.08909,0.49786 -0.26726,0.67601c-0.1677,0.16772 -0.41923,0.25153 -0.7546,0.25153c-0.41923,0 -0.86465,-0.14149 -1.33628,-0.42446c-0.47163,-0.29349 -0.99565,-0.78085 -1.5721,-1.46205c-0.56596,-0.69172 -1.21052,-1.62975 -1.93368,-2.81405h-0.06288c0.02096,0.24105 0.03668,0.49258 0.04717,0.7546c0.01048,0.25153 0.01573,0.50307 0.01573,0.7546c0,1.20531 -0.08384,2.06996 -0.25153,2.59396c-0.1677,0.51359 -0.47163,0.77033 -0.91182,0.77033zM144.63933,184.70844c-1.16335,0 -2.09089,-0.17293 -2.78261,-0.51879c-0.69172,-0.34587 -1.18958,-0.84373 -1.49349,-1.49349c-0.30399,-0.64976 -0.45596,-1.42537 -0.45596,-2.3267c0,-1.14239 0.20961,-2.11185 0.62889,-2.90838c0.42967,-0.80701 1.01656,-1.42537 1.76075,-1.85507c0.7545,-0.4297 1.60875,-0.64456 2.56252,-0.64456c1.12139,0 1.9441,0.26202 2.46819,0.78604c0.524,0.51355 0.78604,1.18956 0.78604,2.02801c0,0.67077 -0.17824,1.25244 -0.53461,1.74503c-0.34577,0.48211 -0.8279,0.85417 -1.44623,1.11618c-0.61842,0.26202 -1.33108,0.39302 -2.13806,0.39302c-0.4507,0 -0.88568,-0.05765 -1.30484,-0.17293c-0.41926,-0.11529 -0.79656,-0.27249 -1.13191,-0.47163l0.37731,-0.69172c-0.03144,0.25153 -0.04717,0.50307 -0.04717,0.7546c0,0.73365 0.23051,1.26288 0.69172,1.58782c0.46111,0.31442 1.11618,0.47163 1.96512,0.47163c0.66028,0 1.18948,-0.05767 1.58782,-0.17293c0.39823,-0.11526 0.73358,-0.2253 1.00614,-0.33014c0.27247,-0.11526 0.53972,-0.17293 0.80167,-0.17293c0.1468,0 0.27777,0.04196 0.39312,0.12577c0.12577,0.0734 0.2253,0.18344 0.2987,0.33014c0.08382,0.1467 0.12577,0.32493 0.12577,0.53451c0,0.31442 -0.15721,0.61832 -0.47163,0.91182c-0.31442,0.28297 -0.78085,0.51879 -1.39917,0.70745c-0.60791,0.17814 -1.35731,0.26726 -2.24809,0.26726zM143.72752,179.56767c0.7441,0 1.34149,-0.15721 1.79219,-0.47163c0.45061,-0.31442 0.67601,-0.70221 0.67601,-1.16335c0,-0.36682 -0.12577,-0.66551 -0.37731,-0.89609c-0.24112,-0.24105 -0.62363,-0.36158 -1.14764,-0.36158c-0.49265,0 -0.93805,0.09432 -1.33628,0.28297c-0.38781,0.17817 -0.69172,0.41398 -0.91182,0.70745c-0.22009,0.29346 -0.33014,0.61312 -0.33014,0.95898c0,0.30393 0.14149,0.53975 0.42446,0.70745c0.29339,0.15721 0.69693,0.23582 1.21052,0.23582zM154.11721,174.74133c0.93274,0 1.60354,0.13626 2.01229,0.40875c0.40875,0.27249 0.61312,0.6236 0.61312,1.0533c0,0.25153 -0.08912,0.46114 -0.26726,0.62884c-0.16772,0.15721 -0.40875,0.23582 -0.72316,0.23582c-0.32493,0 -0.66559,-0.04717 -1.02186,-0.14149c-0.34587,-0.09432 -0.74939,-0.14149 -1.21052,-0.14149c-0.53451,0 -0.93284,0.10481 -1.19479,0.31442c-0.26205,0.20961 -0.39302,0.47687 -0.39302,0.80177c0,0.30393 0.11526,0.54499 0.34587,0.72316c0.24102,0.1677 0.69693,0.29346 1.36773,0.37731c0.7441,0.08384 1.35721,0.22009 1.83936,0.40875c0.49256,0.17817 0.85935,0.45067 1.10047,0.81749c0.24102,0.35635 0.36158,0.84894 0.36158,1.47778c0,0.99563 -0.35116,1.73452 -1.0533,2.21665c-0.70224,0.48214 -1.67173,0.72316 -2.90838,0.72316c-0.78604,0 -1.40968,-0.06288 -1.8708,-0.18865c-0.46121,-0.12577 -0.79656,-0.30391 -1.00614,-0.53451c-0.19917,-0.23061 -0.2987,-0.50307 -0.2987,-0.81749c0,-0.27247 0.08902,-0.48214 0.26726,-0.62884c0.18865,-0.15721 0.40875,-0.23582 0.66028,-0.23582c0.24102,0 0.49776,0.03144 0.77033,0.09432c0.27247,0.05238 0.56065,0.11005 0.86465,0.17293c0.30391,0.06288 0.61832,0.09432 0.94326,0.09432c1.048,0 1.5721,-0.32493 1.5721,-0.9747c0,-0.22009 -0.05247,-0.39826 -0.15721,-0.53451c-0.10484,-0.13626 -0.29349,-0.2463 -0.56596,-0.33014c-0.27257,-0.09432 -0.6708,-0.1677 -1.19479,-0.22009c-0.62884,-0.06288 -1.17387,-0.1677 -1.63498,-0.31442c-0.46121,-0.15721 -0.81749,-0.40875 -1.06903,-0.7546c-0.25153,-0.35635 -0.37731,-0.84369 -0.37731,-1.46205c0,-0.9747 0.36679,-1.76075 1.10047,-2.35814c0.73358,-0.60788 1.77647,-0.91182 3.12847,-0.91182zM159.9211,172.52468c0.41917,0 0.71785,0.11529 0.89609,0.34587c0.18865,0.23058 0.28297,0.49784 0.28297,0.80177c0,0.37731 -0.11535,0.67077 -0.34587,0.88038c-0.22009,0.19914 -0.53451,0.2987 -0.94326,0.2987c-0.39833,0 -0.69703,-0.11005 -0.89609,-0.33014c-0.19917,-0.23058 -0.2988,-0.49784 -0.2988,-0.80177c0,-0.39826 0.12056,-0.69696 0.36168,-0.89609c0.24102,-0.19914 0.55544,-0.2987 0.94326,-0.2987zM160.01542,176.03045c0.33535,0 0.5974,0.31442 0.78604,0.94326c0.19907,0.62884 0.2987,1.62975 0.2987,3.00271c0,1.68735 -0.12056,2.90318 -0.36158,3.64726c-0.24112,0.7441 -0.60791,1.11618 -1.10047,1.11618c-0.37731,0 -0.65507,-0.27247 -0.83321,-0.81749c-0.17824,-0.55544 -0.26726,-1.51972 -0.26726,-2.89266c0,-1.68739 0.13618,-2.93983 0.40875,-3.75731c0.28297,-0.82798 0.63926,-1.24196 1.06903,-1.24196zM169.79632,177.38246c0.10474,-0.4297 0.28818,-0.81749 0.55023,-1.16335c0.27247,-0.34587 0.5974,-0.61836 0.9747,-0.81749c0.38771,-0.20961 0.81219,-0.31442 1.2734,-0.31442c0.54493,0 1.02707,0.131 1.44632,0.39302c0.41917,0.26202 0.74931,0.69172 0.99042,1.28912c0.25153,0.5974 0.37731,1.39393 0.37731,2.38959c0,0.51355 -0.02102,1.03235 -0.06288,1.55637c-0.04196,0.52403 -0.09432,1.01135 -0.15721,1.46205c-0.06288,0.4507 -0.13107,0.828 -0.20437,1.13191c-0.10484,0.41926 -0.26726,0.73889 -0.48735,0.95898c-0.20968,0.22009 -0.47694,0.33014 -0.80177,0.33014c-0.27257,0 -0.48735,-0.12056 -0.64456,-0.36158c-0.15721,-0.24102 -0.23582,-0.58688 -0.23582,-1.03759c0,-0.20958 0.02613,-0.47684 0.07861,-0.80177c0.05238,-0.33535 0.11005,-0.69693 0.17293,-1.08474c0.06288,-0.39826 0.12046,-0.80177 0.17293,-1.21052c0.05238,-0.40875 0.07861,-0.79654 0.07861,-1.16335c0,-0.54499 -0.11005,-0.96421 -0.33014,-1.25768c-0.22009,-0.30393 -0.5293,-0.45591 -0.92754,-0.45591c-0.44019,0 -0.80708,0.23058 -1.10047,0.69172c-0.28297,0.45067 -0.4507,1.11095 -0.50307,1.98084c-0.04196,0.77556 -0.07861,1.46729 -0.11005,2.07517c-0.03144,0.5974 -0.11005,1.08995 -0.23582,1.47778c-0.08391,0.27247 -0.20437,0.47684 -0.36158,0.61312c-0.1468,0.13628 -0.34587,0.20437 -0.5974,0.20437c-0.28297,0 -0.50838,-0.10484 -0.67601,-0.31442c-0.15721,-0.20958 -0.24633,-0.53972 -0.26726,-0.99042c-0.02102,-0.37731 -0.02623,-0.8227 -0.01573,-1.33628c0.01042,-0.51355 0.01573,-1.02186 0.01573,-1.52493c0.01042,-0.51355 0.00521,-0.93803 -0.01573,-1.2734c-0.04196,-0.67077 -0.16252,-1.16335 -0.36158,-1.47778c-0.18865,-0.31442 -0.47694,-0.47163 -0.86465,-0.47163c-0.4507,0 -0.81229,0.20961 -1.08474,0.62884c-0.26205,0.41923 -0.42446,1.00091 -0.48735,1.74503c-0.02102,0.30393 -0.03144,0.68124 -0.03144,1.13191c0.01042,0.44019 0.02092,0.88038 0.03144,1.32056c0.01042,0.44019 0.00521,0.80698 -0.01573,1.10047c-0.01052,0.62884 -0.11005,1.07953 -0.2987,1.352c-0.17824,0.27247 -0.42977,0.40875 -0.7546,0.40875c-0.38781,0 -0.6708,-0.12577 -0.84894,-0.37731c-0.16772,-0.25153 -0.27777,-0.65507 -0.33014,-1.21052c-0.04196,-0.49256 -0.0734,-0.97991 -0.09432,-1.46205c-0.02102,-0.49258 -0.03144,-0.97994 -0.03144,-1.46205c0,-0.49258 0.01042,-1.0271 0.03144,-1.60354c0.03144,-0.57644 0.0733,-1.12143 0.12577,-1.63498c0.06288,-0.52403 0.17293,-0.96421 0.33014,-1.32056c0.15721,-0.35635 0.41917,-0.53451 0.78604,-0.53451c0.30391,0 0.51879,0.15197 0.64456,0.45591c0.12577,0.29346 0.18865,0.74937 0.18865,1.36773c0,0.20961 -0.01573,0.40351 -0.04717,0.58168l-0.04717,-0.31442c0.20958,-0.68124 0.54493,-1.21052 1.00614,-1.58782c0.46111,-0.38779 0.9747,-0.58168 1.54066,-0.58168c0.7441,0 1.32577,0.24105 1.74503,0.72316c0.41917,0.47163 0.64976,1.12667 0.69172,1.96512zM178.39816,174.83566c0.28297,0 0.51879,0.1677 0.70745,0.50307c0.18865,0.3249 0.31962,0.84369 0.39302,1.55637l-0.33014,0.2987c0.18865,-0.73365 0.53972,-1.29435 1.0533,-1.68214c0.51349,-0.38779 1.12139,-0.58168 1.82363,-0.58168c0.64976,0 1.22623,0.1677 1.72931,0.50307c0.50307,0.33538 0.89609,0.84369 1.17908,1.52493c0.29339,0.67077 0.44019,1.51445 0.44019,2.53108c0,1.64546 -0.2987,2.86122 -0.89609,3.64726c-0.58698,0.77554 -1.38875,1.16335 -2.40531,1.16335c-0.73368,0 -1.31015,-0.15721 -1.72931,-0.47163c-0.41926,-0.31442 -0.71274,-0.69693 -0.88038,-1.14764l0.18865,-0.09432c0.08382,0.62884 0.15191,1.25247 0.20437,1.8708c0.06288,0.60791 0.09432,1.14243 0.09432,1.60354c0,0.47163 -0.08391,0.86986 -0.25153,1.19479c-0.16772,0.32493 -0.43498,0.48735 -0.80177,0.48735c-0.35637,0 -0.62363,-0.13628 -0.80177,-0.40875c-0.17824,-0.27247 -0.30922,-0.63405 -0.39302,-1.08474c-0.06288,-0.46111 -0.12577,-1.0533 -0.18865,-1.77647c-0.06288,-0.72316 -0.11535,-1.50401 -0.15721,-2.34243c-0.03144,-0.83845 -0.04717,-1.65593 -0.04717,-2.45247c0,-0.81749 0.02613,-1.58258 0.07851,-2.29526c0.06298,-0.72316 0.13628,-1.31008 0.22019,-1.76075c0.0733,-0.26202 0.16762,-0.45591 0.28297,-0.58168c0.12577,-0.13626 0.28818,-0.20437 0.48735,-0.20437zM181.40086,176.7379c-0.56596,0 -1.02186,0.28297 -1.36773,0.84894c-0.33545,0.55548 -0.50307,1.26817 -0.50307,2.13806c0,0.89086 0.16762,1.55637 0.50307,1.99656c0.34587,0.44019 0.79125,0.66028 1.33628,0.66028c0.62884,0 1.07945,-0.24633 1.352,-0.73889c0.28297,-0.50307 0.42446,-1.15287 0.42446,-1.9494c0,-1.01662 -0.17293,-1.76075 -0.51879,-2.23238c-0.34587,-0.48211 -0.7546,-0.72316 -1.22623,-0.72316zM194.06028,184.48834c-0.28297,0 -0.50307,-0.09432 -0.66028,-0.28297c-0.1468,-0.19917 -0.24633,-0.4507 -0.2987,-0.7546c-0.05247,-0.31442 -0.07861,-0.64456 -0.07861,-0.99042l0.07861,-0.06288c-0.10484,0.4507 -0.30922,0.83842 -0.61312,1.16335c-0.30401,0.32493 -0.65507,0.57647 -1.0533,0.7546c-0.39833,0.16772 -0.79656,0.25153 -1.19479,0.25153c-0.53451,0 -1.02186,-0.12577 -1.46205,-0.37731c-0.44019,-0.25153 -0.78085,-0.63935 -1.02186,-1.16335c-0.24112,-0.55544 -0.42977,-1.25247 -0.56596,-2.09089c-0.13628,-0.84894 -0.20437,-1.71883 -0.20437,-2.60969c0,-0.48211 0.02092,-0.92754 0.06288,-1.33628c0.04186,-0.40875 0.11005,-0.74412 0.20437,-1.00614c0.08382,-0.27249 0.20958,-0.47163 0.37731,-0.5974c0.16762,-0.13626 0.38252,-0.20437 0.64456,-0.20437c0.30391,0 0.53972,0.12053 0.70745,0.36158c0.17814,0.23058 0.28818,0.55548 0.33014,0.9747c0.04186,0.34587 0.06809,0.77556 0.07861,1.28912c0.02092,0.50307 0.03665,1.01138 0.04717,1.52493c0.02092,0.50307 0.04717,0.92754 0.07861,1.2734c0.06288,0.62884 0.2253,1.09526 0.48735,1.39917c0.26195,0.29349 0.58168,0.44019 0.95898,0.44019c0.55544,0 0.97991,-0.20958 1.2734,-0.62884c0.29339,-0.41923 0.44019,-1.00614 0.44019,-1.76075c0,-0.37731 -0.02102,-0.80177 -0.06288,-1.2734c-0.04196,-0.48211 -0.08912,-0.9485 -0.14149,-1.39917c-0.04196,-0.45067 -0.06288,-0.82273 -0.06288,-1.11618c0,-0.49258 0.08382,-0.84369 0.25153,-1.0533c0.16762,-0.22009 0.39823,-0.33014 0.69172,-0.33014c0.25153,0 0.46111,0.06812 0.62884,0.20437c0.17814,0.13626 0.31962,0.3249 0.42446,0.56596c0.1467,0.31442 0.27247,0.74412 0.37731,1.28912c0.10474,0.54499 0.18865,1.16335 0.25153,1.85507c0.06288,0.69172 0.09432,1.42013 0.09432,2.18521c0,1.17387 -0.07861,2.05424 -0.23582,2.64113c-0.15721,0.57647 -0.43498,0.86465 -0.83321,0.86465zM198.73962,184.6141c-0.32493,0 -0.58168,-0.0734 -0.77033,-0.22009c-0.18865,-0.15721 -0.34066,-0.41396 -0.45591,-0.77033c-0.15721,-0.524 -0.27777,-1.18428 -0.36158,-1.98084c-0.0734,-0.80701 -0.11005,-1.79743 -0.11005,-2.97127c0,-0.72316 0.02613,-1.44632 0.07851,-2.1695c0.06298,-0.73365 0.14159,-1.39917 0.23591,-1.99656c0.09432,-0.60788 0.19386,-1.07951 0.2987,-1.41488c0.11526,-0.35634 0.25153,-0.60264 0.40875,-0.73889c0.15721,-0.13625 0.33535,-0.20437 0.53451,-0.20437c0.20958,0 0.37731,0.07336 0.50307,0.22009c0.12577,0.13625 0.2253,0.38255 0.2987,0.73889c0.06288,0.34587 0.11005,0.77033 0.14149,1.2734c0.04186,0.50307 0.06288,1.04282 0.06288,1.61926c0,0.78604 -0.03675,1.61402 -0.11005,2.48391c-0.0734,0.86989 -0.17293,1.72407 -0.2987,2.56252c-0.11535,0.83842 -0.25684,1.60875 -0.42446,2.31099l-0.44019,-0.22009c0.27247,-0.33535 0.58168,-0.5974 0.92754,-0.78604c0.35627,-0.18865 0.68121,-0.28297 0.9746,-0.28297c0.24112,0 0.42456,0.06809 0.55033,0.20437c0.13618,0.12577 0.20437,0.32493 0.20437,0.5974c0,0.27247 -0.12056,0.54503 -0.36158,0.81749c-0.23061,0.27247 -0.51879,0.49786 -0.86465,0.67601c-0.34587,0.16772 -0.68651,0.25153 -1.02186,0.25153zM209.28515,184.73988c-0.35637,0 -0.60261,-0.13628 -0.73889,-0.40875c-0.12577,-0.28297 -0.19917,-0.72837 -0.22009,-1.33628l0.15721,0.07861c-0.58688,1.14243 -1.69787,1.71358 -3.33285,1.71358c-0.7441,0 -1.36252,-0.13097 -1.85507,-0.39302c-0.49256,-0.27247 -0.85944,-0.62884 -1.10047,-1.06903c-0.23061,-0.4507 -0.34587,-0.93805 -0.34587,-1.46205c0,-0.90133 0.31442,-1.61402 0.94326,-2.13806c0.62884,-0.53451 1.46205,-0.80177 2.49964,-0.80177c0.68121,0 1.2734,0.09956 1.77647,0.2987c0.50307,0.19914 0.93274,0.47687 1.28912,0.83321l-0.26726,-0.03144c-0.0734,-1.05855 -0.30391,-1.81315 -0.69172,-2.26382c-0.37731,-0.46114 -0.91702,-0.69172 -1.61926,-0.69172c-0.40875,0 -0.78604,0.06288 -1.13191,0.18865c-0.34587,0.12577 -0.66549,0.25678 -0.95898,0.39302c-0.28297,0.12577 -0.55023,0.18865 -0.80177,0.18865c-0.25153,0 -0.4507,-0.08384 -0.5974,-0.25153c-0.13628,-0.1677 -0.20437,-0.38254 -0.20437,-0.64456c0,-0.37731 0.17814,-0.73365 0.53451,-1.06903c0.36679,-0.33538 0.84894,-0.60788 1.44632,-0.81749c0.5974,-0.20961 1.24717,-0.31442 1.9494,-0.31442c0.84894,0 1.57731,0.20437 2.18521,0.61312c0.60791,0.40875 1.06903,1.00614 1.38344,1.79219c0.27247,0.67077 0.46642,1.42013 0.58168,2.24809c0.11526,0.82798 0.17293,1.71358 0.17293,2.65684c0,0.71266 -0.03665,1.26288 -0.11005,1.6507c-0.0734,0.38781 -0.18865,0.66028 -0.34587,0.81749c-0.1467,0.1467 -0.34587,0.22009 -0.5974,0.22009zM205.81082,182.97912c0.34587,0 0.69693,-0.04717 1.0533,-0.14149c0.35637,-0.10484 0.65507,-0.25674 0.89609,-0.45591c0.24102,-0.19917 0.36158,-0.4454 0.36158,-0.73889c0,-0.25153 -0.10484,-0.45591 -0.31442,-0.61312c-0.19917,-0.1677 -0.46642,-0.29346 -0.80177,-0.37731c-0.32493,-0.08384 -0.67601,-0.12577 -1.0533,-0.12577c-0.63935,0 -1.1267,0.11005 -1.46205,0.33014c-0.32493,0.22009 -0.48735,0.51355 -0.48735,0.88038c0,0.39823 0.152,0.70745 0.45591,0.92754c0.31442,0.20958 0.76512,0.31442 1.352,0.31442zM213.85956,174.80422c0.33545,0 0.56075,0.13626 0.67601,0.40875c0.12577,0.27249 0.18865,0.67601 0.18865,1.21052c0,0.12577 -0.01042,0.26202 -0.03144,0.40875c-0.01042,0.13626 -0.03144,0.26202 -0.06288,0.37731l-0.03144,-0.31442c0.25153,-0.68124 0.63935,-1.21052 1.16335,-1.58782c0.5241,-0.38779 1.07953,-0.58168 1.66642,-0.58168c0.64986,0 1.18958,0.18341 1.61926,0.55023c0.44019,0.36682 0.76512,0.88038 0.9747,1.54066c0.22009,0.66028 0.33014,1.44109 0.33014,2.34243c0,0.55548 -0.02613,1.1057 -0.07861,1.6507c-0.04186,0.53451 -0.10474,1.02707 -0.18865,1.47778c-0.0733,0.44019 -0.15721,0.80177 -0.25153,1.08474c-0.12577,0.35637 -0.28818,0.62363 -0.48735,0.80177c-0.19907,0.16772 -0.43488,0.25153 -0.70745,0.25153c-0.27247,0 -0.48205,-0.09953 -0.62884,-0.2987c-0.1467,-0.19917 -0.22009,-0.46642 -0.22009,-0.80177c0,-0.35637 0.02623,-0.78604 0.07861,-1.28912c0.05247,-0.51355 0.09963,-1.03235 0.14149,-1.55637c0.05247,-0.53451 0.07861,-1.01662 0.07861,-1.44632c0,-1.46729 -0.48205,-2.20094 -1.44632,-2.20094c-0.51349,0 -0.94326,0.23058 -1.28912,0.69172c-0.34587,0.45067 -0.57637,1.09523 -0.69172,1.93368c-0.03144,0.28297 -0.04717,0.63407 -0.04717,1.0533c0,0.41923 0,0.83845 0,1.25768c0.01052,0.40875 0,0.7546 -0.03144,1.03759c-0.04186,0.62884 -0.16242,1.07953 -0.36158,1.352c-0.18865,0.27247 -0.45061,0.40875 -0.78604,0.40875c-0.38771,0 -0.68121,-0.17814 -0.88038,-0.53451c-0.19907,-0.36679 -0.2987,-0.97991 -0.2987,-1.83936c0,-0.44019 0.01052,-0.93277 0.03144,-1.47778c0.02102,-0.54499 0.04717,-1.08999 0.07861,-1.63498c0.04196,-0.55548 0.08912,-1.05855 0.14149,-1.50922c0.10484,-0.84894 0.25684,-1.5197 0.45591,-2.01229c0.19917,-0.50307 0.49786,-0.7546 0.89609,-0.7546zM229.84622,173.27928c1.24785,0 2.16459,0.31966 2.75117,0.95898c0.5974,0.63933 0.89609,1.47778 0.89609,2.51535c0,0.71268 -0.16704,1.33105 -0.50307,1.85507c-0.32425,0.52403 -0.77033,0.93277 -1.33628,1.22623c-0.56596,0.28297 -1.20462,0.42446 -1.91796,0.42446c-0.33505,0 -0.69172,-0.03668 -1.06873,-0.11005c-0.36689,-0.07336 -0.74939,-0.21485 -1.14764,-0.42446l0.07861,-0.20437c0.08382,0.26202 0.15191,0.58692 0.20437,0.9747c0.06288,0.37731 0.11005,0.77033 0.14149,1.17908c0.04186,0.39823 0.06288,0.76512 0.06288,1.10047c0,0.61832 -0.10484,1.09526 -0.31442,1.43061c-0.19917,0.32493 -0.49786,0.48735 -0.89609,0.48735c-0.33545,0 -0.6027,-0.10484 -0.80177,-0.31442c-0.18865,-0.20958 -0.31972,-0.55544 -0.39302,-1.03759c-0.0734,-0.48214 -0.11015,-1.1267 -0.11015,-1.93368c0,-1.55114 0.06819,-2.8717 0.20447,-3.96169c0.1467,-1.10047 0.39302,-1.96512 0.73889,-2.59396c0.27247,-0.48211 0.69172,-0.86465 1.25768,-1.14764c0.57637,-0.28297 1.29472,-0.42446 2.15348,-0.42446zM229.54752,178.40432c0.62884,0 1.1378,-0.1677 1.52493,-0.50307c0.39892,-0.33538 0.5974,-0.82273 0.5974,-1.46205c0,-0.41923 -0.14149,-0.76509 -0.42446,-1.03759c-0.27217,-0.28297 -0.70155,-0.42446 -1.28912,-0.42446c-0.42937,0 -0.80177,0.09956 -1.11618,0.2987c-0.31413,0.18865 -0.55525,0.45591 -0.72287,0.80177c-0.15721,0.33538 -0.23582,0.72316 -0.23582,1.16335c0,0.40875 0.13097,0.70745 0.39302,0.89609c0.27247,0.17817 0.69733,0.26726 1.2731,0.26726zM239.24147,184.70844c-1.16335,0 -2.09089,-0.17293 -2.78261,-0.51879c-0.69172,-0.34587 -1.18988,-0.84373 -1.49349,-1.49349c-0.30361,-0.64976 -0.45591,-1.42537 -0.45591,-2.3267c0,-1.14239 0.20928,-2.11185 0.62884,-2.90838c0.42937,-0.80701 1.01695,-1.42537 1.76075,-1.85507c0.7546,-0.4297 1.60845,-0.64456 2.56252,-0.64456c1.12111,0 1.94449,0.26202 2.46819,0.78604c0.52371,0.51355 0.78604,1.18956 0.78604,2.02801c0,0.67077 -0.17784,1.25244 -0.53451,1.74503c-0.34587,0.48211 -0.8283,0.85417 -1.44632,1.11618c-0.61803,0.26202 -1.33137,0.39302 -2.13806,0.39302c-0.45099,0 -0.88529,-0.05765 -1.30484,-0.17293c-0.41955,-0.11529 -0.79686,-0.27249 -1.13191,-0.47163l0.37731,-0.69172c-0.03144,0.25153 -0.04717,0.50307 -0.04717,0.7546c0,0.73365 0.2309,1.26288 0.69172,1.58782c0.46083,0.31442 1.11618,0.47163 1.96512,0.47163c0.66028,0 1.18988,-0.05767 1.58782,-0.17293c0.39793,-0.11526 0.73398,-0.2253 1.00614,-0.33014c0.27217,-0.11526 0.53942,-0.17293 0.80177,-0.17293c0.1464,0 0.27806,0.04196 0.39302,0.12577c0.12577,0.0734 0.22501,0.18344 0.2987,0.33014c0.08352,0.1467 0.12577,0.32493 0.12577,0.53451c0,0.31442 -0.15721,0.61832 -0.47163,0.91182c-0.31442,0.28297 -0.78113,0.51879 -1.39917,0.70745c-0.6082,0.17814 -1.35692,0.26726 -2.24809,0.26726zM238.32965,179.56767c0.7438,0 1.34119,-0.15721 1.79219,-0.47163c0.45099,-0.31442 0.67601,-0.70221 0.67601,-1.16335c0,-0.36682 -0.12577,-0.66551 -0.37731,-0.89609c-0.24073,-0.24105 -0.62393,-0.36158 -1.14764,-0.36158c-0.49227,0 -0.93834,0.09432 -1.33628,0.28297c-0.38811,0.17817 -0.69172,0.41398 -0.91182,0.70745c-0.22009,0.29346 -0.33014,0.61312 -0.33014,0.95898c0,0.30393 0.14149,0.53975 0.42446,0.70745c0.29379,0.15721 0.69663,0.23582 1.21052,0.23582zM244.74185,177.4925c0,-1.00614 0.09432,-1.72931 0.28297,-2.1695c0.18865,-0.45067 0.45591,-0.67601 0.80177,-0.67601c0.27217,0 0.48735,0.11529 0.64456,0.34587c0.15721,0.22009 0.27217,0.49784 0.34587,0.83321c0.07369,0.3249 0.11005,0.65504 0.11005,0.99042l-0.07861,-0.03144c0.17784,-0.56596 0.45099,-1.0533 0.81749,-1.46205c0.37731,-0.40875 0.8283,-0.61312 1.352,-0.61312c0.61803,0 1.07394,0.25678 1.36773,0.77033c0.29379,0.50307 0.44019,1.13191 0.44019,1.88651c0,1.00614 -0.11496,1.70835 -0.34587,2.10661c-0.2309,0.39826 -0.53942,0.5974 -0.92754,0.5974c-0.28297,0 -0.49227,-0.11529 -0.62884,-0.34587c-0.12577,-0.23058 -0.16802,-0.63933 -0.12577,-1.22623c0.04225,-0.61836 0.00491,-1.04807 -0.11005,-1.28912c-0.11496,-0.24105 -0.2987,-0.36158 -0.55023,-0.36158c-0.30361,0 -0.55515,0.19388 -0.7546,0.58168c-0.18865,0.37731 -0.28297,0.84369 -0.28297,1.39917c0,0.22009 0.02653,0.49784 0.07861,0.83321c0.05208,0.33538 0.11005,0.70221 0.17293,1.10047c0.06288,0.38779 0.12086,0.77556 0.17293,1.16335c0.05208,0.38781 0.07861,0.7441 0.07861,1.06903c0,0.57647 -0.08941,0.99042 -0.26726,1.24196c-0.17784,0.25153 -0.42937,0.37731 -0.7546,0.37731c-0.36649,0 -0.64947,-0.11526 -0.84894,-0.34587c-0.19946,-0.24102 -0.35078,-0.62884 -0.45591,-1.16335c-0.08352,-0.48214 -0.16802,-1.0533 -0.25153,-1.71358c-0.08352,-0.66028 -0.1523,-1.33628 -0.20437,-2.02801c-0.05208,-0.69172 -0.07861,-1.31532 -0.07861,-1.8708zM256.19654,174.74133c0.93245,0 1.60354,0.13626 2.01229,0.40875c0.40875,0.27249 0.61312,0.6236 0.61312,1.0533c0,0.25153 -0.08941,0.46114 -0.26726,0.62884c-0.16802,0.15721 -0.40875,0.23582 -0.72316,0.23582c-0.32523,0 -0.66617,-0.04717 -1.02186,-0.14149c-0.34587,-0.09432 -0.74969,-0.14149 -1.21052,-0.14149c-0.53451,0 -0.93343,0.10481 -1.19479,0.31442c-0.26235,0.20961 -0.39302,0.47687 -0.39302,0.80177c0,0.30393 0.11496,0.54499 0.34587,0.72316c0.24073,0.1677 0.69663,0.29346 1.36773,0.37731c0.7438,0.08384 1.35692,0.22009 1.83936,0.40875c0.49227,0.17817 0.85876,0.45067 1.10047,0.81749c0.24073,0.35635 0.36158,0.84894 0.36158,1.47778c0,0.99563 -0.35176,1.73452 -1.0533,2.21665c-0.70254,0.48214 -1.67232,0.72316 -2.90838,0.72316c-0.78604,0 -1.40997,-0.06288 -1.8708,-0.18865c-0.4618,-0.12577 -0.79686,-0.30391 -1.00614,-0.53451c-0.19946,-0.23061 -0.2987,-0.50307 -0.2987,-0.81749c0,-0.27247 0.08843,-0.48214 0.26726,-0.62884c0.18865,-0.15721 0.40875,-0.23582 0.66028,-0.23582c0.24073,0 0.49718,0.03144 0.77033,0.09432c0.27217,0.05238 0.56006,0.11005 0.86465,0.17293c0.30361,0.06288 0.61803,0.09432 0.94326,0.09432c1.04741,0 1.5721,-0.32493 1.5721,-0.9747c0,-0.22009 -0.05306,-0.39826 -0.15721,-0.53451c-0.10513,-0.13626 -0.29379,-0.2463 -0.56596,-0.33014c-0.27315,-0.09432 -0.67108,-0.1677 -1.19479,-0.22009c-0.62884,-0.06288 -1.17416,-0.1677 -1.63498,-0.31442c-0.4618,-0.15721 -0.81749,-0.40875 -1.06903,-0.7546c-0.25153,-0.35635 -0.37731,-0.84369 -0.37731,-1.46205c0,-0.9747 0.36649,-1.76075 1.10047,-2.35814c0.73299,-0.60788 1.77647,-0.91182 3.12847,-0.91182zM265.01797,184.70844c-1.16335,0 -2.09089,-0.17293 -2.78261,-0.51879c-0.69172,-0.34587 -1.1889,-0.84373 -1.49349,-1.49349c-0.30361,-0.64976 -0.45591,-1.42537 -0.45591,-2.3267c0,-1.14239 0.21027,-2.11185 0.62884,-2.90838c0.43036,-0.80701 1.01695,-1.42537 1.76075,-1.85507c0.7546,-0.4297 1.60944,-0.64456 2.56252,-0.64456c1.12209,0 1.94449,0.26202 2.46819,0.78604c0.52468,0.51355 0.78604,1.18956 0.78604,2.02801c0,0.67077 -0.17784,1.25244 -0.53451,1.74503c-0.34587,0.48211 -0.82732,0.85417 -1.44632,1.11618c-0.61803,0.26202 -1.33039,0.39302 -2.13806,0.39302c-0.45001,0 -0.88529,-0.05765 -1.30484,-0.17293c-0.41857,-0.11529 -0.79588,-0.27249 -1.13191,-0.47163l0.37731,-0.69172c-0.03144,0.25153 -0.04717,0.50307 -0.04717,0.7546c0,0.73365 0.2309,1.26288 0.69172,1.58782c0.4618,0.31442 1.11618,0.47163 1.96512,0.47163c0.66028,0 1.18988,-0.05767 1.58782,-0.17293c0.39892,-0.11526 0.73398,-0.2253 1.00614,-0.33014c0.27315,-0.11526 0.54041,-0.17293 0.80177,-0.17293c0.14739,0 0.27806,0.04196 0.39302,0.12577c0.12577,0.0734 0.22598,0.18344 0.2987,0.33014c0.0845,0.1467 0.12577,0.32493 0.12577,0.53451c0,0.31442 -0.15721,0.61832 -0.47163,0.91182c-0.31442,0.28297 -0.78015,0.51879 -1.39917,0.70745c-0.60723,0.17814 -1.35692,0.26726 -2.24809,0.26726zM264.10615,179.56767c0.74478,0 1.34218,-0.15721 1.79219,-0.47163c0.45099,-0.31442 0.67601,-0.70221 0.67601,-1.16335c0,-0.36682 -0.12577,-0.66551 -0.37731,-0.89609c-0.24073,-0.24105 -0.62294,-0.36158 -1.14764,-0.36158c-0.49227,0 -0.93737,0.09432 -1.33628,0.28297c-0.38713,0.17817 -0.69172,0.41398 -0.91182,0.70745c-0.22009,0.29346 -0.33014,0.61312 -0.33014,0.95898c0,0.30393 0.14149,0.53975 0.42446,0.70745c0.29379,0.15721 0.69762,0.23582 1.21052,0.23582zM273.52203,184.33113c-0.98551,0 -1.78728,-0.37731 -2.40531,-1.13191c-0.61902,-0.76512 -0.92754,-1.92319 -0.92754,-3.47434c0,-1.65593 0.2987,-2.86645 0.89609,-3.63155c0.5974,-0.76509 1.38344,-1.14764 2.35814,-1.14764c0.57578,0 1.08474,0.14673 1.52493,0.44019c0.44019,0.29346 0.81749,0.70745 1.13191,1.24196l-0.12577,0.22009c-0.03144,-0.14673 -0.05797,-0.30393 -0.07861,-0.47163c-0.02162,-0.1677 -0.03144,-0.29346 -0.03144,-0.37731c0,-0.4297 0.06779,-0.75984 0.20437,-0.99042c0.1464,-0.24105 0.37141,-0.36158 0.67601,-0.36158c0.33505,0 0.5974,0.13626 0.78604,0.40875c0.19848,0.27249 0.35078,0.66028 0.45591,1.16335c0.1356,0.51355 0.25153,1.16859 0.34587,1.96512c0.09432,0.78604 0.14149,1.58258 0.14149,2.38959c0,1.00614 -0.03734,1.84986 -0.11005,2.53108c-0.07369,0.68121 -0.19454,1.24717 -0.36158,1.69787c-0.16802,0.4507 -0.38811,0.84373 -0.66028,1.17908c-0.45099,0.54503 -1.03268,0.95898 -1.74503,1.24196c-0.70254,0.29349 -1.51511,0.44019 -2.43675,0.44019c-0.66028,0 -1.18988,-0.06288 -1.58782,-0.18865c-0.39892,-0.11526 -0.68681,-0.27777 -0.86465,-0.48735c-0.16802,-0.19917 -0.25153,-0.42446 -0.25153,-0.67601c0,-0.26205 0.07271,-0.48214 0.22009,-0.66028c0.1464,-0.16772 0.36649,-0.25153 0.66028,-0.25153c0.26136,0 0.56596,0.04196 0.91182,0.12577c0.35569,0.08382 0.77524,0.12577 1.25768,0.12577c1.01597,0 1.73422,-0.24102 2.15377,-0.72316c0.42937,-0.47163 0.64456,-1.15283 0.64456,-2.04373c0,-0.24102 -0.01573,-0.524 -0.04717,-0.84894l0.22009,0.07861c-0.26235,0.6708 -0.65046,1.21052 -1.16335,1.61926c-0.51388,0.39823 -1.11127,0.5974 -1.79219,0.5974zM274.11944,182.39745c0.33505,0 0.67011,-0.08912 1.00614,-0.26726c0.33505,-0.17814 0.61312,-0.47163 0.83321,-0.88038c0.22009,-0.40875 0.33014,-0.95898 0.33014,-1.6507c0,-0.82798 -0.19454,-1.50397 -0.58168,-2.02801c-0.38811,-0.52403 -0.93343,-0.78604 -1.63498,-0.78604c-0.6082,0 -1.0533,0.23058 -1.33628,0.69172c-0.28297,0.46114 -0.42446,1.15812 -0.42446,2.09089c0,0.89086 0.14149,1.58782 0.42446,2.09089c0.28297,0.49256 0.7438,0.73889 1.38344,0.73889zM281.77358,172.52468c0.41955,0 0.71825,0.11529 0.89609,0.34587c0.18865,0.23058 0.28297,0.49784 0.28297,0.80177c0,0.37731 -0.11496,0.67077 -0.34587,0.88038c-0.22009,0.19914 -0.53451,0.2987 -0.94326,0.2987c-0.39793,0 -0.69663,-0.11005 -0.89609,-0.33014c-0.19848,-0.23058 -0.2987,-0.49784 -0.2987,-0.80177c0,-0.39826 0.12086,-0.69696 0.36158,-0.89609c0.24171,-0.19914 0.55612,-0.2987 0.94326,-0.2987zM281.86791,176.03045c0.33603,0 0.5974,0.31442 0.78604,0.94326c0.19946,0.62884 0.2987,1.62975 0.2987,3.00271c0,1.68735 -0.11987,2.90318 -0.36158,3.64726c-0.24073,0.7441 -0.60723,1.11618 -1.10047,1.11618c-0.37731,0 -0.65438,-0.27247 -0.83321,-0.81749c-0.17784,-0.55544 -0.26726,-1.51972 -0.26726,-2.89266c0,-1.68739 0.13658,-2.93983 0.40875,-3.75731c0.28297,-0.82798 0.63964,-1.24196 1.06903,-1.24196zM292.45402,173.27928c1.24687,0 2.16459,0.31966 2.75117,0.95898c0.5974,0.63933 0.89609,1.47778 0.89609,2.51535c0,0.71268 -0.16802,1.33105 -0.50307,1.85507c-0.32523,0.52403 -0.77033,0.93277 -1.33628,1.22623c-0.56596,0.28297 -1.2056,0.42446 -1.91796,0.42446c-0.33505,0 -0.69172,-0.03668 -1.06903,-0.11005c-0.36649,-0.07336 -0.74969,-0.21485 -1.14764,-0.42446l0.07861,-0.20437c0.08352,0.26202 0.1523,0.58692 0.20437,0.9747c0.06288,0.37731 0.11005,0.77033 0.14149,1.17908c0.04225,0.39823 0.06288,0.76512 0.06288,1.10047c0,0.61832 -0.10513,1.09526 -0.31442,1.43061c-0.19946,0.32493 -0.49816,0.48735 -0.89609,0.48735c-0.33505,0 -0.60231,-0.10484 -0.80177,-0.31442c-0.18865,-0.20958 -0.31933,-0.55544 -0.39302,-1.03759c-0.07369,-0.48214 -0.11005,-1.1267 -0.11005,-1.93368c0,-1.55114 0.06779,-2.8717 0.20437,-3.96169c0.1464,-1.10047 0.39302,-1.96512 0.73889,-2.59396c0.27217,-0.48211 0.69172,-0.86465 1.25768,-1.14764c0.57676,-0.28297 1.29404,-0.42446 2.15377,-0.42446zM292.15532,178.40432c0.62884,0 1.13682,-0.1677 1.52493,-0.50307c0.39793,-0.33538 0.5974,-0.82273 0.5974,-1.46205c0,-0.41923 -0.14149,-0.76509 -0.42446,-1.03759c-0.27217,-0.28297 -0.70254,-0.42446 -1.28912,-0.42446c-0.42937,0 -0.80177,0.09956 -1.11618,0.2987c-0.31442,0.18865 -0.55515,0.45591 -0.72316,0.80177c-0.15721,0.33538 -0.23582,0.72316 -0.23582,1.16335c0,0.40875 0.13068,0.70745 0.39302,0.89609c0.27217,0.17817 0.69663,0.26726 1.2734,0.26726zM304.31746,184.73988c-0.35667,0 -0.60329,-0.13628 -0.73889,-0.40875c-0.12577,-0.28297 -0.19946,-0.72837 -0.22009,-1.33628l0.15721,0.07861c-0.58758,1.14243 -1.69787,1.71358 -3.33285,1.71358c-0.74478,0 -1.36282,-0.13097 -1.85507,-0.39302c-0.49324,-0.27247 -0.85974,-0.62884 -1.10047,-1.06903c-0.2309,-0.4507 -0.34587,-0.93805 -0.34587,-1.46205c0,-0.90133 0.31442,-1.61402 0.94326,-2.13806c0.62884,-0.53451 1.46205,-0.80177 2.49964,-0.80177c0.68092,0 1.2734,0.09956 1.77647,0.2987c0.50307,0.19914 0.93245,0.47687 1.28912,0.83321l-0.26726,-0.03144c-0.07369,-1.05855 -0.30459,-1.81315 -0.69172,-2.26382c-0.37731,-0.46114 -0.91772,-0.69172 -1.61926,-0.69172c-0.40875,0 -0.78604,0.06288 -1.13191,0.18865c-0.34587,0.12577 -0.66617,0.25678 -0.95898,0.39302c-0.28297,0.12577 -0.55023,0.18865 -0.80177,0.18865c-0.25153,0 -0.45099,-0.08384 -0.5974,-0.25153c-0.13658,-0.1677 -0.20437,-0.38254 -0.20437,-0.64456c0,-0.37731 0.17784,-0.73365 0.53451,-1.06903c0.36649,-0.33538 0.84894,-0.60788 1.44632,-0.81749c0.5974,-0.20961 1.24687,-0.31442 1.9494,-0.31442c0.84894,0 1.57701,0.20437 2.18521,0.61312c0.60723,0.40875 1.06903,1.00614 1.38344,1.79219c0.27217,0.67077 0.46574,1.42013 0.58168,2.24809c0.11496,0.82798 0.17293,1.71358 0.17293,2.65684c0,0.71266 -0.03734,1.26288 -0.11005,1.6507c-0.07369,0.38781 -0.18865,0.66028 -0.34587,0.81749c-0.14739,0.1467 -0.34587,0.22009 -0.5974,0.22009zM300.84313,182.97912c0.34587,0 0.69663,-0.04717 1.0533,-0.14149c0.35569,-0.10484 0.65438,-0.25674 0.89609,-0.45591c0.24073,-0.19917 0.36158,-0.4454 0.36158,-0.73889c0,-0.25153 -0.10513,-0.45591 -0.31442,-0.61312c-0.19946,-0.1677 -0.46672,-0.29346 -0.80177,-0.37731c-0.32523,-0.08384 -0.67601,-0.12577 -1.0533,-0.12577c-0.63964,0 -1.127,0.11005 -1.46205,0.33014c-0.32523,0.22009 -0.48735,0.51355 -0.48735,0.88038c0,0.39823 0.15131,0.70745 0.45591,0.92754c0.31442,0.20958 0.76443,0.31442 1.352,0.31442zM308.89128,174.80422c0.33603,0 0.56104,0.13626 0.67601,0.40875c0.12577,0.27249 0.18865,0.67601 0.18865,1.21052c0,0.12577 -0.00982,0.26202 -0.03144,0.40875c-0.00982,0.13626 -0.03144,0.26202 -0.06288,0.37731l-0.03144,-0.31442c0.25153,-0.68124 0.63964,-1.21052 1.16335,-1.58782c0.52468,-0.38779 1.07983,-0.58168 1.66642,-0.58168c0.65046,0 1.18988,0.18341 1.61926,0.55023c0.44019,0.36682 0.76542,0.88038 0.9747,1.54066c0.22009,0.66028 0.33014,1.44109 0.33014,2.34243c0,0.55548 -0.02555,1.1057 -0.07861,1.6507c-0.04126,0.53451 -0.10416,1.02707 -0.18865,1.47778c-0.07271,0.44019 -0.15721,0.80177 -0.25153,1.08474c-0.12577,0.35637 -0.28789,0.62363 -0.48735,0.80177c-0.19848,0.16772 -0.43429,0.25153 -0.70745,0.25153c-0.27217,0 -0.48145,-0.09953 -0.62884,-0.2987c-0.1464,-0.19917 -0.22009,-0.46642 -0.22009,-0.80177c0,-0.35637 0.02653,-0.78604 0.07861,-1.28912c0.05306,-0.51355 0.10022,-1.03235 0.14149,-1.55637c0.05306,-0.53451 0.07861,-1.01662 0.07861,-1.44632c0,-1.46729 -0.48145,-2.20094 -1.44632,-2.20094c-0.51289,0 -0.94326,0.23058 -1.28912,0.69172c-0.34587,0.45067 -0.57578,1.09523 -0.69172,1.93368c-0.03144,0.28297 -0.04717,0.63407 -0.04717,1.0533c0,0.41923 0,0.83845 0,1.25768c0.01081,0.40875 0,0.7546 -0.03144,1.03759c-0.04126,0.62884 -0.16213,1.07953 -0.36158,1.352c-0.18865,0.27247 -0.45001,0.40875 -0.78604,0.40875c-0.38713,0 -0.68092,-0.17814 -0.88038,-0.53451c-0.19848,-0.36679 -0.2987,-0.97991 -0.2987,-1.83936c0,-0.44019 0.01081,-0.93277 0.03144,-1.47778c0.02162,-0.54499 0.04717,-1.08999 0.07861,-1.63498c0.04225,-0.55548 0.08941,-1.05855 0.14149,-1.50922c0.10513,-0.84894 0.25744,-1.5197 0.45591,-2.01229c0.19946,-0.50307 0.49816,-0.7546 0.89609,-0.7546zM317.37667,187.85263c-0.41955,0 -0.79686,-0.08912 -1.13191,-0.26726c-0.33505,-0.17814 -0.60231,-0.40354 -0.80177,-0.67601c-0.19946,-0.27247 -0.2987,-0.55023 -0.2987,-0.83321c0,-0.24102 0.06288,-0.42967 0.18865,-0.56596c0.12577,-0.13628 0.28789,-0.20437 0.48735,-0.20437c0.34587,0 0.71825,0.13097 1.11618,0.39302c0.39793,0.26205 0.77524,0.62363 1.13191,1.08474l-0.23582,-0.03144c-0.17784,-1.46726 -0.31442,-2.87173 -0.40875,-4.21322c-0.08352,-1.352 -0.12577,-2.56252 -0.12577,-3.63155c0,-0.9747 0.07861,-1.7031 0.23582,-2.18521c0.16802,-0.49258 0.44019,-0.73889 0.81749,-0.73889c0.42937,0 0.77033,0.33538 1.02186,1.00614c0.25153,0.67077 0.37731,1.80268 0.37731,3.39573c0,0.70221 -0.02064,1.4254 -0.06288,2.1695c-0.04225,0.73368 -0.10513,1.43061 -0.18865,2.09089c-0.07369,0.66028 -0.17784,1.21573 -0.31442,1.66642c-0.16802,0.54503 -0.39793,0.93805 -0.69172,1.17908c-0.28297,0.24102 -0.65537,0.36158 -1.11618,0.36158zM318.09984,174.67845c-0.33505,0 -0.6082,-0.07336 -0.81749,-0.22009c-0.19946,-0.15721 -0.2987,-0.39302 -0.2987,-0.70745c0,-0.35635 0.12086,-0.65504 0.36158,-0.89609c0.25153,-0.25153 0.60231,-0.37731 1.0533,-0.37731c0.37731,0 0.66519,0.09432 0.86465,0.28297c0.19946,0.17817 0.2987,0.41923 0.2987,0.72316c0,0.37731 -0.13658,0.67077 -0.40875,0.88038c-0.27217,0.20961 -0.62393,0.31442 -1.0533,0.31442zM328.54348,184.73988c-0.35667,0 -0.60231,-0.13628 -0.73889,-0.40875c-0.12577,-0.28297 -0.19946,-0.72837 -0.22009,-1.33628l0.15721,0.07861c-0.58659,1.14243 -1.69787,1.71358 -3.33285,1.71358c-0.7438,0 -1.36282,-0.13097 -1.85507,-0.39302c-0.49227,-0.27247 -0.85974,-0.62884 -1.10047,-1.06903c-0.2309,-0.4507 -0.34587,-0.93805 -0.34587,-1.46205c0,-0.90133 0.31442,-1.61402 0.94326,-2.13806c0.62884,-0.53451 1.46205,-0.80177 2.49964,-0.80177c0.68092,0 1.2734,0.09956 1.77647,0.2987c0.50307,0.19914 0.93245,0.47687 1.28912,0.83321l-0.26726,-0.03144c-0.07369,-1.05855 -0.30361,-1.81315 -0.69172,-2.26382c-0.37731,-0.46114 -0.91673,-0.69172 -1.61926,-0.69172c-0.40875,0 -0.78604,0.06288 -1.13191,0.18865c-0.34587,0.12577 -0.66519,0.25678 -0.95898,0.39302c-0.28297,0.12577 -0.55023,0.18865 -0.80177,0.18865c-0.25153,0 -0.45099,-0.08384 -0.5974,-0.25153c-0.13658,-0.1677 -0.20437,-0.38254 -0.20437,-0.64456c0,-0.37731 0.17784,-0.73365 0.53451,-1.06903c0.36649,-0.33538 0.84894,-0.60788 1.44632,-0.81749c0.5974,-0.20961 1.24687,-0.31442 1.9494,-0.31442c0.84894,0 1.57701,0.20437 2.18521,0.61312c0.6082,0.40875 1.06903,1.00614 1.38344,1.79219c0.27217,0.67077 0.46672,1.42013 0.58168,2.24809c0.11496,0.82798 0.17293,1.71358 0.17293,2.65684c0,0.71266 -0.03635,1.26288 -0.11005,1.6507c-0.07369,0.38781 -0.18865,0.66028 -0.34587,0.81749c-0.1464,0.1467 -0.34587,0.22009 -0.5974,0.22009zM325.06915,182.97912c0.34587,0 0.69663,-0.04717 1.0533,-0.14149c0.35667,-0.10484 0.65537,-0.25674 0.89609,-0.45591c0.24073,-0.19917 0.36158,-0.4454 0.36158,-0.73889c0,-0.25153 -0.10513,-0.45591 -0.31442,-0.61312c-0.19946,-0.1677 -0.46672,-0.29346 -0.80177,-0.37731c-0.32523,-0.08384 -0.67601,-0.12577 -1.0533,-0.12577c-0.63964,0 -1.127,0.11005 -1.46205,0.33014c-0.32523,0.22009 -0.48735,0.51355 -0.48735,0.88038c0,0.39823 0.1523,0.70745 0.45591,0.92754c0.31442,0.20958 0.76542,0.31442 1.352,0.31442zM333.11828,174.80422c0.33505,0 0.56006,0.13626 0.67601,0.40875c0.12577,0.27249 0.18865,0.67601 0.18865,1.21052c0,0.12577 -0.01081,0.26202 -0.03144,0.40875c-0.01081,0.13626 -0.03144,0.26202 -0.06288,0.37731l-0.03144,-0.31442c0.25153,-0.68124 0.63867,-1.21052 1.16335,-1.58782c0.52371,-0.38779 1.07885,-0.58168 1.66642,-0.58168c0.64947,0 1.1889,0.18341 1.61926,0.55023c0.44019,0.36682 0.76443,0.88038 0.9747,1.54066c0.22009,0.66028 0.33014,1.44109 0.33014,2.34243c0,0.55548 -0.02653,1.1057 -0.07861,1.6507c-0.04225,0.53451 -0.10513,1.02707 -0.18865,1.47778c-0.07369,0.44019 -0.15721,0.80177 -0.25153,1.08474c-0.12577,0.35637 -0.28888,0.62363 -0.48735,0.80177c-0.19946,0.16772 -0.43528,0.25153 -0.70745,0.25153c-0.27315,0 -0.48244,-0.09953 -0.62884,-0.2987c-0.14739,-0.19917 -0.22009,-0.46642 -0.22009,-0.80177c0,-0.35637 0.02555,-0.78604 0.07861,-1.28912c0.05208,-0.51355 0.09923,-1.03235 0.14149,-1.55637c0.05208,-0.53451 0.07861,-1.01662 0.07861,-1.44632c0,-1.46729 -0.48244,-2.20094 -1.44632,-2.20094c-0.51388,0 -0.94326,0.23058 -1.28912,0.69172c-0.34587,0.45067 -0.57676,1.09523 -0.69172,1.93368c-0.03144,0.28297 -0.04717,0.63407 -0.04717,1.0533c0,0.41923 0,0.83845 0,1.25768c0.00982,0.40875 0,0.7546 -0.03144,1.03759c-0.04225,0.62884 -0.1631,1.07953 -0.36158,1.352c-0.18865,0.27247 -0.45099,0.40875 -0.78604,0.40875c-0.38811,0 -0.6819,-0.17814 -0.88038,-0.53451c-0.19946,-0.36679 -0.2987,-0.97991 -0.2987,-1.83936c0,-0.44019 0.00982,-0.93277 0.03144,-1.47778c0.02064,-0.54499 0.04717,-1.08999 0.07861,-1.63498c0.04126,-0.55548 0.08843,-1.05855 0.14149,-1.50922c0.10416,-0.84894 0.25645,-1.5197 0.45591,-2.01229c0.19848,-0.50307 0.49718,-0.7546 0.89609,-0.7546zM344.52679,184.33113c-0.98551,0 -1.78728,-0.37731 -2.40531,-1.13191c-0.61803,-0.76512 -0.92754,-1.92319 -0.92754,-3.47434c0,-1.65593 0.2987,-2.86645 0.89609,-3.63155c0.5974,-0.76509 1.38344,-1.14764 2.35814,-1.14764c0.57676,0 1.08474,0.14673 1.52493,0.44019c0.44019,0.29346 0.81749,0.70745 1.13191,1.24196l-0.12577,0.22009c-0.03144,-0.14673 -0.05797,-0.30393 -0.07861,-0.47163c-0.02064,-0.1677 -0.03144,-0.29346 -0.03144,-0.37731c0,-0.4297 0.06779,-0.75984 0.20437,-0.99042c0.1464,-0.24105 0.37239,-0.36158 0.67601,-0.36158c0.33505,0 0.5974,0.13626 0.78604,0.40875c0.19946,0.27249 0.35078,0.66028 0.45591,1.16335c0.13658,0.51355 0.25153,1.16859 0.34587,1.96512c0.09432,0.78604 0.14149,1.58258 0.14149,2.38959c0,1.00614 -0.03635,1.84986 -0.11005,2.53108c-0.07369,0.68121 -0.19357,1.24717 -0.36158,1.69787c-0.16802,0.4507 -0.38811,0.84373 -0.66028,1.17908c-0.45099,0.54503 -1.03268,0.95898 -1.74503,1.24196c-0.70254,0.29349 -1.51413,0.44019 -2.43675,0.44019c-0.66028,0 -1.18988,-0.06288 -1.58782,-0.18865c-0.39793,-0.11526 -0.68681,-0.27777 -0.86465,-0.48735c-0.16802,-0.19917 -0.25153,-0.42446 -0.25153,-0.67601c0,-0.26205 0.07369,-0.48214 0.22009,-0.66028c0.1464,-0.16772 0.36649,-0.25153 0.66028,-0.25153c0.26235,0 0.56596,0.04196 0.91182,0.12577c0.35667,0.08382 0.77524,0.12577 1.25768,0.12577c1.01695,0 1.73422,-0.24102 2.15377,-0.72316c0.42937,-0.47163 0.64456,-1.15283 0.64456,-2.04373c0,-0.24102 -0.01573,-0.524 -0.04717,-0.84894l0.22009,0.07861c-0.26235,0.6708 -0.64947,1.21052 -1.16335,1.61926c-0.51388,0.39823 -1.11127,0.5974 -1.79219,0.5974zM345.12419,182.39745c0.33505,0 0.67108,-0.08912 1.00614,-0.26726c0.33505,-0.17814 0.61312,-0.47163 0.83321,-0.88038c0.22009,-0.40875 0.33014,-0.95898 0.33014,-1.6507c0,-0.82798 -0.19357,-1.50397 -0.58168,-2.02801c-0.38811,-0.52403 -0.93245,-0.78604 -1.63498,-0.78604c-0.6082,0 -1.0533,0.23058 -1.33628,0.69172c-0.28297,0.46114 -0.42446,1.15812 -0.42446,2.09089c0,0.89086 0.14149,1.58782 0.42446,2.09089c0.28297,0.49256 0.7438,0.73889 1.38344,0.73889z"/></g></g></svg>