<svg version="1.1" xmlns="http://www.w3.org/2000/svg" xmlns:xlink="http://www.w3.org/1999/xlink" width="49.2875" height="24.24627" viewBox="0,0,49.2875,24.24627"><g transform="translate(-215.35625,-167.87686)"><g data-paper-data="{&quot;isPaintingLayer&quot;:true}" fill-rule="nonzero" stroke-linecap="butt" stroke-linejoin="miter" stroke-miterlimit="10" stroke-dasharray="" stroke-dashoffset="0" style="mix-blend-mode: normal"><g><path d="" fill="#ececec" stroke="none" stroke-width="1"/><path d="" fill="none" stroke="#dcd6d6" stroke-width="1.5"/><path d="" fill="none" stroke="#dcd6d6" stroke-width="1.5"/><path d="" fill="none" stroke="#dcd6d6" stroke-width="1.5"/><path d="" fill="none" stroke="#dcd6d6" stroke-width="1.5"/><path d="" fill="none" stroke="#dcd6d6" stroke-width="1.5"/><path d="" fill="none" stroke="#dcd6d6" stroke-width="1.5"/><path d="" fill="none" stroke="#dcd6d6" stroke-width="1.5"/><path d="" fill="none" stroke="#dcd6d6" stroke-width="1.5"/><path d="" fill="none" stroke="#dcd6d6" stroke-width="1.5"/><path d="" fill="none" stroke="#dcd6d6" stroke-width="1.5"/><path d="" fill="none" stroke="#dcd6d6" stroke-width="1.5"/><path d="" fill="none" stroke="#dcd6d6" stroke-width="1.5"/><path d="" fill="none" stroke="#dcd6d6" stroke-width="1.5"/><path d="" fill="none" stroke="#dcd6d6" stroke-width="1.5"/><path d="" fill="none" stroke="#dcd6d6" stroke-width="1.5"/><path d="" fill="none" stroke="#dcd6d6" stroke-width="1.5"/><path d="" fill="none" stroke="#dcd6d6" stroke-width="1.5"/><path d="" fill="none" stroke="#dcd6d6" stroke-width="1.5"/><path d="" fill="none" stroke="#dcd6d6" stroke-width="1.5"/><path d="" fill="none" stroke="#dcd6d6" stroke-width="1.5"/><path d="" fill="none" stroke="#dcd6d6" stroke-width="1.5"/><path d="" fill="none" stroke="#dcd6d6" stroke-width="1.5"/><path d="" fill="none" stroke="#dcd6d6" stroke-width="1.5"/><path d="" fill="none" stroke="#dcd6d6" stroke-width="1.5"/><path d="" fill="none" stroke="#dcd6d6" stroke-width="1.5"/><path d="" fill="none" stroke="#dcd6d6" stroke-width="1.5"/><path d="" fill="none" stroke="#dcd6d6" stroke-width="1.5"/><path d="" fill="none" stroke="#dcd6d6" stroke-width="1.5"/><path d="" fill="none" stroke="#dcd6d6" stroke-width="1.5"/><path d="" fill="none" stroke="#dcd6d6" stroke-width="1.5"/><path d="" fill="none" stroke="#dcd6d6" stroke-width="1.5"/><path d="" fill="none" stroke="#dcd6d6" stroke-width="1.5"/><path d="" fill="none" stroke="#dcd6d6" stroke-width="1.5"/><path d="" fill="none" stroke="#dcd6d6" stroke-width="1.5"/><path d="" fill="none" stroke="#dcd6d6" stroke-width="1.5"/><path d="" fill="none" stroke="#dcd6d6" stroke-width="1.5"/><path d="" fill="none" stroke="#dcd6d6" stroke-width="1.5"/><path d="" fill="none" stroke="#dcd6d6" stroke-width="1.5"/><path d="" fill="none" stroke="#dcd6d6" stroke-width="1.5"/><path d="" fill="none" stroke="#dcd6d6" stroke-width="1.5"/><g><path d="" fill="#ebebeb" stroke="none" stroke-width="1"/><path d="" fill="none" stroke="#000000" stroke-width="0.5"/></g><path d="" fill="#737373" stroke="none" stroke-width="1"/><path d="" fill="#737373" stroke="none" stroke-width="1"/><path d="" fill="#737373" stroke="none" stroke-width="1"/><path d="" fill="#737373" stroke="none" stroke-width="1"/></g><path d="M219.09944,168.37687h41.80112c1.79096,0 3.24319,1.56138 3.24319,3.48694v16.27239c0,1.92556 -1.45223,3.48694 -3.24319,3.48694h-41.80112c-1.79096,0 -3.24319,-1.56138 -3.24319,-3.48694v-16.27239c0,-1.92556 1.45223,-3.48694 3.24319,-3.48694z" fill="#a5a7a9" stroke="#000000" stroke-width="1"/><path d="M230.60052,177.42664c0.1636,0 0.33008,0.09919 0.49945,0.29833c0.17441,0.19294 0.35675,0.48275 0.54702,0.86941c0.19027,0.38666 0.39639,0.86631 0.61837,1.44049c0.22702,0.57418 0.47567,1.23903 0.74522,1.99453h0.03171c-0.03675,-0.27276 -0.07135,-0.57108 -0.10306,-0.89498c-0.03171,-0.3239 -0.06054,-0.6509 -0.0872,-0.98022c-0.02667,-0.32932 -0.04757,-0.63617 -0.06342,-0.92055c-0.01081,-0.2898 -0.01586,-0.53699 -0.01586,-0.74156c0,-0.4719 0.03964,-0.80432 0.11892,-0.99726c0.08433,-0.19914 0.21405,-0.29833 0.38846,-0.29833c0.1218,0 0.2191,0.0341 0.29333,0.10229c0.07423,0.06819 0.13765,0.16737 0.19026,0.29832c0.1218,0.31847 0.20901,0.75551 0.26162,1.31264c0.05261,0.55714 0.07927,1.19331 0.07927,1.90929c0,0.55094 -0.0209,1.01973 -0.06342,1.4064c-0.04252,0.38666 -0.1218,0.6788 -0.23783,0.87794c-0.11604,0.19914 -0.2854,0.29832 -0.50738,0.29832c-0.14774,0 -0.29837,-0.06276 -0.45189,-0.18752c-0.15351,-0.13095 -0.30918,-0.32079 -0.46774,-0.57108c-0.15351,-0.25571 -0.31423,-0.57418 -0.4836,-0.95465c-0.1636,-0.38047 -0.33802,-0.82369 -0.52323,-1.32968c-0.17945,-0.51142 -0.36972,-1.08251 -0.5708,-1.71325h-0.03171c0.03675,0.29523 0.06847,0.6447 0.09513,1.04841c0.02667,0.40371 0.04757,0.81517 0.06342,1.23593c0.01585,0.42076 0.02378,0.80664 0.02378,1.15921c0,0.52847 -0.05044,0.9035 -0.15062,1.12512c-0.09513,0.22162 -0.24576,0.33242 -0.45189,0.33242c-0.22702,0 -0.39135,-0.1139 -0.49152,-0.34094c-0.09513,-0.23324 -0.1427,-0.59123 -0.1427,-1.07398c0,-0.30143 0.00504,-0.6447 0.01585,-1.03136c0.01585,-0.38666 0.03676,-0.78417 0.06342,-1.19331c0.02667,-0.40914 0.06054,-0.79812 0.10306,-1.16774c0.05261,-0.46027 0.12685,-0.7927 0.22198,-0.99726c0.09513,-0.20999 0.25657,-0.31538 0.4836,-0.31538zM237.32761,183.55513c-0.58666,0 -1.05439,-0.09376 -1.40322,-0.28128c-0.34883,-0.18752 -0.59963,-0.45717 -0.75314,-0.80974c-0.15351,-0.35257 -0.2299,-0.77255 -0.2299,-1.2615c0,-0.61912 0.10594,-1.14526 0.31711,-1.57687c0.21694,-0.4378 0.51242,-0.77255 0.88791,-1.00579c0.38054,-0.23324 0.81152,-0.34946 1.29223,-0.34946c0.56575,0 0.98016,0.1418 1.24466,0.42618c0.2645,0.27818 0.39639,0.6447 0.39639,1.09955c0,0.36342 -0.09009,0.67879 -0.26954,0.94612c-0.17441,0.26113 -0.4173,0.46338 -0.72936,0.60518c-0.31206,0.1418 -0.67098,0.21309 -1.07818,0.21309c-0.22702,0 -0.44683,-0.031 -0.65801,-0.09376c-0.21117,-0.06276 -0.40143,-0.148 -0.5708,-0.2557l0.19027,-0.37504c-0.01585,0.13638 -0.02379,0.27276 -0.02379,0.40914c0,0.39751 0.11604,0.68499 0.34883,0.86088c0.23279,0.17047 0.56287,0.25571 0.99097,0.25571c0.33297,0 0.59963,-0.031 0.8007,-0.09376c0.20108,-0.06276 0.36973,-0.12243 0.50738,-0.179c0.13765,-0.06276 0.27243,-0.09376 0.40432,-0.09376c0.07423,0 0.13982,0.02248 0.19819,0.06819c0.06342,0.03952 0.11387,0.09918 0.15063,0.17899c0.04252,0.07981 0.06342,0.1759 0.06342,0.2898c0,0.17047 -0.07928,0.33552 -0.23783,0.49437c-0.15856,0.15342 -0.39351,0.28128 -0.70558,0.38356c-0.3063,0.09686 -0.68467,0.1449 -1.13368,0.1449zM236.8678,180.7679c0.37549,0 0.67675,-0.08524 0.90377,-0.25571c0.22702,-0.17047 0.34089,-0.38047 0.34089,-0.63075c0,-0.19914 -0.06342,-0.36109 -0.19027,-0.48585c-0.1218,-0.13095 -0.31423,-0.19604 -0.57873,-0.19604c-0.24865,0 -0.47278,0.05114 -0.67386,0.15342c-0.19531,0.09686 -0.34883,0.22471 -0.45981,0.38356c-0.11099,0.15885 -0.16648,0.33242 -0.16648,0.51994c0,0.16505 0.07135,0.2929 0.21405,0.38356c0.14774,0.08524 0.3517,0.12786 0.61044,0.12786zM240.3236,183.56365c-0.14846,0 -0.27531,-0.05656 -0.38054,-0.17047c-0.10594,-0.11933 -0.15855,-0.26733 -0.15855,-0.44323c0,-0.20456 0.07639,-0.42618 0.22991,-0.66485c0.15279,-0.24409 0.37477,-0.48275 0.66593,-0.71598c0.29549,-0.23324 0.6472,-0.4378 1.05439,-0.6137v-0.03409c-0.6717,-0.30685 -1.16538,-0.65089 -1.48249,-1.03136c-0.31206,-0.38047 -0.46774,-0.72994 -0.46774,-1.04841c0,-0.13095 0.02595,-0.24176 0.07927,-0.33242c0.05766,-0.09066 0.13189,-0.16195 0.22198,-0.21309c0.09513,-0.05114 0.19243,-0.07671 0.29333,-0.07671c0.21622,0 0.42522,0.08834 0.62629,0.26424c0.20612,0.17047 0.40648,0.41766 0.60251,0.74155c0.19531,0.31847 0.38559,0.70204 0.57081,1.15069h0.03171c0.26954,-0.77875 0.54918,-1.34364 0.84034,-1.69621c0.29549,-0.358 0.60251,-0.53699 0.91962,-0.53699c0.15279,0 0.2717,0.05424 0.35675,0.16195c0.08433,0.10229 0.12685,0.23324 0.12685,0.39209c0,0.37504 -0.15063,0.74155 -0.45189,1.09955c-0.30125,0.358 -0.7589,0.69584 -1.3715,1.01431v0.04262c0.56503,0.33552 0.98521,0.68499 1.26052,1.04841c0.27964,0.358 0.42017,0.67337 0.42017,0.94612c0,0.17047 -0.04757,0.30685 -0.1427,0.40914c-0.09009,0.10229 -0.19819,0.15342 -0.32504,0.15342c-0.22198,0 -0.4281,-0.08833 -0.61836,-0.26423c-0.19027,-0.1759 -0.37045,-0.42076 -0.5391,-0.73303c-0.16432,-0.31847 -0.32,-0.68189 -0.46774,-1.09103h-0.03171c-0.19603,0.51684 -0.39927,0.94303 -0.61044,1.27855c-0.20612,0.32932 -0.41512,0.57418 -0.62629,0.73303c-0.21189,0.15342 -0.42017,0.23014 -0.62629,0.23014zM246.43449,178.35571h-0.15856c-0.01585,-0.25029 -0.01009,-0.48584 0.01585,-0.70746c0.02667,-0.22704 0.08216,-0.40914 0.16648,-0.54551c0.09009,-0.1418 0.21693,-0.21309 0.38053,-0.21309c0.14846,0 0.25657,0.05114 0.32504,0.15342c0.06919,0.10229 0.10306,0.24409 0.10306,0.42618c0,0.358 -0.06342,0.66484 -0.19027,0.92055l-0.1427,-0.01705c0.2854,-0.10771 0.60827,-0.16195 0.96719,-0.16195c0.22774,0 0.40721,0.04804 0.5391,0.1449c0.13765,0.09066 0.20612,0.24718 0.20612,0.4688c0,0.20999 -0.07928,0.36961 -0.23783,0.47732c-0.15856,0.10771 -0.35675,0.16195 -0.59458,0.16195c-0.1427,0 -0.29549,-0.00542 -0.45981,-0.01705c-0.15856,-0.01705 -0.31423,-0.04262 -0.46774,-0.07671l0.13477,-0.179c0.04756,0.21619 0.09298,0.46338 0.13478,0.74156c0.04756,0.27276 0.09009,0.55714 0.12685,0.85236c0.03748,0.29523 0.0663,0.5827 0.0872,0.86088c0.02162,0.27818 0.03171,0.52846 0.03171,0.75008c0,0.36342 -0.05261,0.6509 -0.15856,0.86089c-0.10522,0.20999 -0.26162,0.31538 -0.46774,0.31538c-0.1636,0 -0.29333,-0.05424 -0.38846,-0.16195c-0.08937,-0.10771 -0.15568,-0.24409 -0.19819,-0.40914c-0.03675,-0.17047 -0.06054,-0.34637 -0.07135,-0.52847c-0.00504,-0.18209 -0.00793,-0.34637 -0.00793,-0.49437c0,-0.25029 0.01081,-0.53156 0.03171,-0.84384c0.02162,-0.31847 0.05045,-0.6447 0.0872,-0.98022c0.04252,-0.33552 0.09009,-0.65942 0.1427,-0.9717l0.15856,0.1449c-0.26954,0.148 -0.60252,0.22161 -0.99891,0.22161c-0.24288,0 -0.43026,-0.04804 -0.56287,-0.1449c-0.13189,-0.09686 -0.19819,-0.24719 -0.19819,-0.45175c0,-0.22162 0.07423,-0.39208 0.22198,-0.51141c0.14846,-0.12476 0.34666,-0.18752 0.59459,-0.18752c0.16432,0 0.31711,0.01163 0.45981,0.0341c0.14846,0.01705 0.27748,0.03952 0.38847,0.06819z" fill="#000000" stroke="none" stroke-width="1"/><path d="" fill="#000000" stroke="none" stroke-width="1"/></g></g></svg>