<svg width="280" height="32" viewBox="0 0 280 32" fill="none" xmlns="http://www.w3.org/2000/svg">
<path d="M7.38823 12.112C7.19223 12.112 7.01489 12.0607 6.85623 11.958C6.70689 11.8553 6.59023 11.678 6.50623 11.426C6.42223 11.1647 6.38023 10.8053 6.38023 10.348C6.38023 9.68533 6.39423 8.976 6.42223 8.22C6.45023 7.45467 6.48756 6.68467 6.53423 5.91C6.59023 5.126 6.64156 4.37 6.68823 3.642H6.63223C6.30556 4.99533 5.95556 6.022 5.58223 6.722C5.20889 7.41267 4.79356 7.758 4.33623 7.758C4.05623 7.758 3.79489 7.632 3.55223 7.38C3.31889 7.11867 3.09023 6.68467 2.86623 6.078C2.65156 5.462 2.41356 4.62667 2.15223 3.572H2.09623C2.12423 4.06667 2.15223 4.594 2.18023 5.154C2.20823 5.714 2.23156 6.27867 2.25023 6.848C2.27823 7.41733 2.29689 7.95867 2.30623 8.472C2.32489 8.98533 2.33423 9.44267 2.33423 9.844C2.33423 10.1893 2.30156 10.5067 2.23623 10.796C2.18023 11.0853 2.07289 11.314 1.91423 11.482C1.76489 11.65 1.55489 11.734 1.28423 11.734C0.920227 11.734 0.64956 11.5893 0.472227 11.3C0.294893 11.0013 0.206227 10.5113 0.206227 9.83C0.206227 9.42867 0.21556 8.962 0.234227 8.43C0.262227 7.88867 0.294893 7.33333 0.332227 6.764C0.36956 6.18533 0.416227 5.63 0.472227 5.098C0.528227 4.55667 0.588893 4.08533 0.654227 3.684C0.766227 3.04933 0.920227 2.60133 1.11623 2.34C1.31223 2.06933 1.57356 1.934 1.90023 1.934C2.17089 1.934 2.43689 2.05533 2.69823 2.298C2.95956 2.53133 3.23023 2.93267 3.51023 3.502C3.79023 4.062 4.08423 4.83667 4.39223 5.826H4.44823C4.74689 4.818 5.03156 4.01067 5.30223 3.404C5.57289 2.788 5.83423 2.34467 6.08623 2.074C6.33823 1.80333 6.57623 1.668 6.80023 1.668C7.15489 1.668 7.42556 1.808 7.61223 2.088C7.79889 2.35867 7.95289 2.746 8.07423 3.25C8.21423 3.82867 8.32623 4.50533 8.41023 5.28C8.49423 6.05467 8.55489 6.848 8.59223 7.66C8.63889 8.46267 8.66223 9.214 8.66223 9.914C8.66223 10.7167 8.54556 11.286 8.31223 11.622C8.07889 11.9487 7.77089 12.112 7.38823 12.112ZM16.5628 12.14C16.2455 12.14 16.0262 12.0187 15.9048 11.776C15.7928 11.524 15.7275 11.1273 15.7088 10.586L15.8488 10.656C15.3262 11.6733 14.3368 12.182 12.8808 12.182C12.2182 12.182 11.6675 12.0653 11.2288 11.832C10.7902 11.5893 10.4635 11.272 10.2488 10.88C10.0435 10.4787 9.94082 10.0447 9.94082 9.578C9.94082 8.77533 10.2208 8.14067 10.7808 7.674C11.3408 7.198 12.0828 6.96 13.0068 6.96C13.6135 6.96 14.1408 7.04867 14.5888 7.226C15.0368 7.40333 15.4195 7.65067 15.7368 7.968L15.4988 7.94C15.4335 6.99733 15.2282 6.32533 14.8828 5.924C14.5468 5.51333 14.0662 5.308 13.4408 5.308C13.0768 5.308 12.7408 5.364 12.4328 5.476C12.1248 5.588 11.8402 5.70467 11.5788 5.826C11.3268 5.938 11.0888 5.994 10.8648 5.994C10.6408 5.994 10.4635 5.91933 10.3328 5.77C10.2115 5.62067 10.1508 5.42933 10.1508 5.196C10.1508 4.86 10.3095 4.54267 10.6268 4.244C10.9535 3.94533 11.3828 3.70267 11.9148 3.516C12.4468 3.32933 13.0255 3.236 13.6508 3.236C14.4068 3.236 15.0555 3.418 15.5968 3.782C16.1382 4.146 16.5488 4.678 16.8288 5.378C17.0715 5.97533 17.2442 6.64267 17.3468 7.38C17.4495 8.11733 17.5008 8.906 17.5008 9.746C17.5008 10.3807 17.4682 10.8707 17.4028 11.216C17.3375 11.5613 17.2348 11.804 17.0948 11.944C16.9642 12.0747 16.7868 12.14 16.5628 12.14ZM13.4688 10.572C13.7768 10.572 14.0895 10.53 14.4068 10.446C14.7242 10.3527 14.9902 10.2173 15.2048 10.04C15.4195 9.86267 15.5268 9.64333 15.5268 9.382C15.5268 9.158 15.4335 8.976 15.2468 8.836C15.0695 8.68667 14.8315 8.57467 14.5328 8.5C14.2435 8.42533 13.9308 8.388 13.5948 8.388C13.0255 8.388 12.5915 8.486 12.2928 8.682C12.0035 8.878 11.8588 9.13933 11.8588 9.466C11.8588 9.82067 11.9942 10.096 12.2648 10.292C12.5448 10.4787 12.9462 10.572 13.4688 10.572ZM19.2085 5.686C19.2085 4.79 19.2925 4.146 19.4605 3.754C19.6285 3.35267 19.8665 3.152 20.1745 3.152C20.4172 3.152 20.6085 3.25467 20.7485 3.46C20.8885 3.656 20.9912 3.90333 21.0565 4.202C21.1218 4.49133 21.1545 4.78533 21.1545 5.084L21.0845 5.056C21.2432 4.552 21.4858 4.118 21.8125 3.754C22.1485 3.39 22.5498 3.208 23.0165 3.208C23.5672 3.208 23.9732 3.43667 24.2345 3.894C24.4958 4.342 24.6265 4.902 24.6265 5.574C24.6265 6.47 24.5238 7.09533 24.3185 7.45C24.1132 7.80467 23.8378 7.982 23.4925 7.982C23.2405 7.982 23.0538 7.87933 22.9325 7.674C22.8205 7.46867 22.7832 7.10467 22.8205 6.582C22.8578 6.03133 22.8252 5.64867 22.7225 5.434C22.6198 5.21933 22.4565 5.112 22.2325 5.112C21.9618 5.112 21.7378 5.28467 21.5605 5.63C21.3925 5.966 21.3085 6.38133 21.3085 6.876C21.3085 7.072 21.3318 7.31933 21.3785 7.618C21.4252 7.91667 21.4765 8.24333 21.5325 8.598C21.5885 8.94333 21.6398 9.28867 21.6865 9.634C21.7332 9.97933 21.7565 10.2967 21.7565 10.586C21.7565 11.0993 21.6772 11.468 21.5185 11.692C21.3598 11.916 21.1358 12.028 20.8465 12.028C20.5198 12.028 20.2678 11.9253 20.0905 11.72C19.9132 11.5053 19.7778 11.16 19.6845 10.684C19.6098 10.2547 19.5352 9.746 19.4605 9.158C19.3858 8.57 19.3252 7.968 19.2785 7.352C19.2318 6.736 19.2085 6.18067 19.2085 5.686ZM27.0987 1.262C27.472 1.262 27.738 1.36467 27.8967 1.57C28.0647 1.77533 28.1487 2.01333 28.1487 2.284C28.1487 2.62 28.046 2.88133 27.8407 3.068C27.6447 3.24533 27.3647 3.334 27.0007 3.334C26.646 3.334 26.38 3.236 26.2027 3.04C26.0254 2.83467 25.9367 2.59667 25.9367 2.326C25.9367 1.97133 26.044 1.70533 26.2587 1.528C26.4734 1.35067 26.7534 1.262 27.0987 1.262ZM27.1827 4.384C27.4814 4.384 27.7147 4.664 27.8827 5.224C28.06 5.784 28.1487 6.67533 28.1487 7.898C28.1487 9.40067 28.0414 10.4833 27.8267 11.146C27.612 11.8087 27.2854 12.14 26.8467 12.14C26.5107 12.14 26.2634 11.8973 26.1047 11.412C25.946 10.9173 25.8667 10.0587 25.8667 8.836C25.8667 7.33333 25.988 6.218 26.2307 5.49C26.4827 4.75267 26.8 4.384 27.1827 4.384ZM36.6516 3.684C36.213 3.81467 35.807 3.91733 35.4336 3.992C35.0603 4.05733 34.7103 4.09 34.3836 4.09C34.085 4.09 33.8516 4.02933 33.6836 3.908C33.5156 3.78667 33.4316 3.60467 33.4316 3.362C33.4316 3.15667 33.5016 2.96067 33.6416 2.774C33.7816 2.58733 33.9963 2.41933 34.2856 2.27C34.631 2.102 35.0696 1.962 35.6016 1.85C36.1336 1.738 36.7543 1.682 37.4636 1.682C37.9396 1.682 38.355 1.71467 38.7096 1.78C39.0643 1.836 39.3443 1.906 39.5496 1.99C39.8203 2.102 40.007 2.23267 40.1096 2.382C40.2216 2.522 40.2776 2.68533 40.2776 2.872C40.2776 3.10533 40.1936 3.29667 40.0256 3.446C39.8576 3.59533 39.587 3.67 39.2136 3.67C38.9896 3.67 38.7563 3.656 38.5136 3.628C38.2803 3.6 38.033 3.56267 37.7716 3.516L36.6516 3.684ZM37.6176 2.928C38.0936 3.52533 38.4623 4.22067 38.7236 5.014C38.9943 5.798 39.1296 6.61933 39.1296 7.478C39.1296 8.374 39.0036 9.17667 38.7516 9.886C38.509 10.586 38.117 11.1413 37.5756 11.552C37.0343 11.9533 36.3156 12.154 35.4196 12.154C34.3183 12.154 33.4923 11.846 32.9416 11.23C32.391 10.614 32.1156 9.76933 32.1156 8.696C32.1156 8.17333 32.181 7.73 32.3116 7.366C32.4516 7.002 32.6336 6.72667 32.8576 6.54C33.0816 6.344 33.3243 6.246 33.5856 6.246C33.8283 6.246 34.0103 6.32067 34.1316 6.47C34.2623 6.61 34.3276 6.81067 34.3276 7.072C34.3276 7.28667 34.2903 7.52467 34.2156 7.786C34.1503 8.038 34.1176 8.28533 34.1176 8.528C34.1176 9.15333 34.225 9.61067 34.4396 9.9C34.6636 10.18 35.0183 10.32 35.5036 10.32C36.1476 10.32 36.6003 10.0587 36.8616 9.536C37.1323 9.004 37.2676 8.28067 37.2676 7.366C37.2676 6.70333 37.1976 6.05467 37.0576 5.42C36.9176 4.78533 36.6936 4.13667 36.3856 3.474L37.6176 2.928ZM47.557 12.14C47.2396 12.14 47.0203 12.0187 46.899 11.776C46.787 11.524 46.7216 11.1273 46.703 10.586L46.843 10.656C46.3203 11.6733 45.331 12.182 43.875 12.182C43.2123 12.182 42.6616 12.0653 42.223 11.832C41.7843 11.5893 41.4576 11.272 41.243 10.88C41.0376 10.4787 40.935 10.0447 40.935 9.578C40.935 8.77533 41.215 8.14067 41.775 7.674C42.335 7.198 43.077 6.96 44.001 6.96C44.6076 6.96 45.135 7.04867 45.583 7.226C46.031 7.40333 46.4136 7.65067 46.731 7.968L46.493 7.94C46.4276 6.99733 46.2223 6.32533 45.877 5.924C45.541 5.51333 45.0603 5.308 44.435 5.308C44.071 5.308 43.735 5.364 43.427 5.476C43.119 5.588 42.8343 5.70467 42.573 5.826C42.321 5.938 42.083 5.994 41.859 5.994C41.635 5.994 41.4576 5.91933 41.327 5.77C41.2056 5.62067 41.145 5.42933 41.145 5.196C41.145 4.86 41.3036 4.54267 41.621 4.244C41.9476 3.94533 42.377 3.70267 42.909 3.516C43.441 3.32933 44.0196 3.236 44.645 3.236C45.401 3.236 46.0496 3.418 46.591 3.782C47.1323 4.146 47.543 4.678 47.823 5.378C48.0656 5.97533 48.2383 6.64267 48.341 7.38C48.4436 8.11733 48.495 8.906 48.495 9.746C48.495 10.3807 48.4623 10.8707 48.397 11.216C48.3316 11.5613 48.229 11.804 48.089 11.944C47.9583 12.0747 47.781 12.14 47.557 12.14ZM44.463 10.572C44.771 10.572 45.0836 10.53 45.401 10.446C45.7183 10.3527 45.9843 10.2173 46.199 10.04C46.4136 9.86267 46.521 9.64333 46.521 9.382C46.521 9.158 46.4276 8.976 46.241 8.836C46.0636 8.68667 45.8256 8.57467 45.527 8.5C45.2376 8.42533 44.925 8.388 44.589 8.388C44.0196 8.388 43.5856 8.486 43.287 8.682C42.9976 8.878 42.853 9.13933 42.853 9.466C42.853 9.82067 42.9883 10.096 43.259 10.292C43.539 10.4787 43.9403 10.572 44.463 10.572ZM49.6986 6.316C49.6986 5.34533 49.8106 4.64533 50.0346 4.216C50.268 3.78667 50.5713 3.572 50.9446 3.572C51.1593 3.572 51.3226 3.65133 51.4346 3.81C51.556 3.95933 51.64 4.16467 51.6866 4.426C51.7333 4.678 51.7566 4.96267 51.7566 5.28C51.7566 5.68133 51.7566 6.15267 51.7566 6.694C51.766 7.226 51.7753 7.77667 51.7846 8.346C51.8033 8.906 51.822 9.42867 51.8406 9.914H51.8966C52.186 8.69133 52.4753 7.688 52.7646 6.904C53.0633 6.12 53.3666 5.54133 53.6746 5.168C53.992 4.78533 54.3093 4.594 54.6266 4.594C54.972 4.594 55.2986 4.78533 55.6066 5.168C55.924 5.54133 56.232 6.11067 56.5306 6.876C56.8386 7.64133 57.1513 8.60733 57.4686 9.774H57.5246C57.5526 8.97133 57.5713 8.12667 57.5806 7.24C57.59 6.35333 57.5946 5.54133 57.5946 4.804C57.5946 4.272 57.6833 3.88 57.8606 3.628C58.038 3.376 58.2853 3.25 58.6026 3.25C59.004 3.25 59.2933 3.46 59.4706 3.88C59.6573 4.29067 59.7506 4.846 59.7506 5.546C59.7506 6.05933 59.7226 6.61 59.6666 7.198C59.62 7.77667 59.55 8.33667 59.4566 8.878C59.3633 9.41933 59.2513 9.89067 59.1206 10.292C58.9246 10.8893 58.7053 11.342 58.4626 11.65C58.2293 11.958 57.9213 12.112 57.5386 12.112C57.1933 12.112 56.848 11.9113 56.5026 11.51C56.1666 11.0993 55.8493 10.488 55.5506 9.676C55.252 8.864 54.9766 7.85133 54.7246 6.638H54.6686C54.426 7.79533 54.1366 8.766 53.8006 9.55C53.474 10.3247 53.124 10.908 52.7506 11.3C52.3866 11.692 52.0226 11.888 51.6586 11.888C51.276 11.888 50.954 11.7153 50.6926 11.37C50.4406 11.0247 50.2306 10.4927 50.0626 9.774C49.988 9.41 49.9226 9.02267 49.8666 8.612C49.8106 8.192 49.7686 7.78133 49.7406 7.38C49.7126 6.97867 49.6986 6.624 49.6986 6.316ZM67.0667 12.14C66.7494 12.14 66.5301 12.0187 66.4087 11.776C66.2967 11.524 66.2314 11.1273 66.2127 10.586L66.3527 10.656C65.8301 11.6733 64.8407 12.182 63.3847 12.182C62.7221 12.182 62.1714 12.0653 61.7327 11.832C61.2941 11.5893 60.9674 11.272 60.7527 10.88C60.5474 10.4787 60.4447 10.0447 60.4447 9.578C60.4447 8.77533 60.7247 8.14067 61.2847 7.674C61.8447 7.198 62.5867 6.96 63.5107 6.96C64.1174 6.96 64.6447 7.04867 65.0927 7.226C65.5407 7.40333 65.9234 7.65067 66.2407 7.968L66.0027 7.94C65.9374 6.99733 65.7321 6.32533 65.3867 5.924C65.0507 5.51333 64.5701 5.308 63.9447 5.308C63.5807 5.308 63.2447 5.364 62.9367 5.476C62.6287 5.588 62.3441 5.70467 62.0827 5.826C61.8307 5.938 61.5927 5.994 61.3687 5.994C61.1447 5.994 60.9674 5.91933 60.8367 5.77C60.7154 5.62067 60.6547 5.42933 60.6547 5.196C60.6547 4.86 60.8134 4.54267 61.1307 4.244C61.4574 3.94533 61.8867 3.70267 62.4187 3.516C62.9507 3.32933 63.5294 3.236 64.1547 3.236C64.9107 3.236 65.5594 3.418 66.1007 3.782C66.6421 4.146 67.0527 4.678 67.3327 5.378C67.5754 5.97533 67.7481 6.64267 67.8507 7.38C67.9534 8.11733 68.0047 8.906 68.0047 9.746C68.0047 10.3807 67.9721 10.8707 67.9067 11.216C67.8414 11.5613 67.7387 11.804 67.5987 11.944C67.4681 12.0747 67.2907 12.14 67.0667 12.14ZM63.9727 10.572C64.2807 10.572 64.5934 10.53 64.9107 10.446C65.2281 10.3527 65.4941 10.2173 65.7087 10.04C65.9234 9.86267 66.0307 9.64333 66.0307 9.382C66.0307 9.158 65.9374 8.976 65.7507 8.836C65.5734 8.68667 65.3354 8.57467 65.0367 8.5C64.7474 8.42533 64.4347 8.388 64.0987 8.388C63.5294 8.388 63.0954 8.486 62.7967 8.682C62.5074 8.878 62.3627 9.13933 62.3627 9.466C62.3627 9.82067 62.4981 10.096 62.7687 10.292C63.0487 10.4787 63.4501 10.572 63.9727 10.572ZM70.7764 12.14C70.5711 12.14 70.4031 12.07 70.2724 11.93C70.1511 11.79 70.0531 11.5893 69.9784 11.328C69.9037 10.9453 69.8384 10.446 69.7824 9.83C69.7357 9.20467 69.7124 8.53733 69.7124 7.828C69.7124 7.42667 69.7217 6.974 69.7404 6.47C69.7591 5.966 69.7824 5.45733 69.8104 4.944C69.8477 4.42133 69.8851 3.936 69.9224 3.488C69.9691 3.04 70.0157 2.676 70.0624 2.396C70.1371 1.98533 70.2444 1.66333 70.3844 1.43C70.5337 1.18733 70.7671 1.066 71.0844 1.066C71.4111 1.066 71.6491 1.192 71.7984 1.444C71.9477 1.68667 72.0224 1.99 72.0224 2.354C72.0224 2.76467 71.9897 3.25 71.9244 3.81C71.8684 4.37 71.7797 4.93933 71.6584 5.518L71.3784 5.854C71.4811 5.462 71.6491 5.10267 71.8824 4.776C72.1157 4.44933 72.4097 4.19267 72.7644 4.006C73.1191 3.81 73.5297 3.712 73.9964 3.712C74.9111 3.712 75.6391 4.03867 76.1804 4.692C76.7311 5.336 77.0064 6.344 77.0064 7.716C77.0064 8.67733 76.8617 9.48 76.5724 10.124C76.2924 10.768 75.9051 11.2533 75.4104 11.58C74.9251 11.8973 74.3697 12.056 73.7444 12.056C73.1564 12.056 72.6477 11.8833 72.2184 11.538C71.7984 11.1927 71.5277 10.6933 71.4064 10.04L71.6024 10.194C71.5651 10.866 71.4717 11.3607 71.3224 11.678C71.1824 11.986 71.0004 12.14 70.7764 12.14ZM73.3384 10.432C73.8051 10.432 74.2157 10.222 74.5704 9.802C74.9251 9.382 75.1024 8.724 75.1024 7.828C75.1024 7.08133 74.9624 6.47467 74.6824 6.008C74.4117 5.54133 73.9544 5.308 73.3104 5.308C72.7877 5.308 72.3677 5.518 72.0504 5.938C71.7331 6.34867 71.5744 6.974 71.5744 7.814C71.5744 8.57933 71.7331 9.20933 72.0504 9.704C72.3677 10.1893 72.7971 10.432 73.3384 10.432ZM85.1721 1.934C86.2828 1.934 87.0995 2.21867 87.6221 2.788C88.1541 3.35733 88.4201 4.104 88.4201 5.028C88.4201 5.66267 88.2708 6.21333 87.9721 6.68C87.6828 7.14667 87.2861 7.51067 86.7821 7.772C86.2781 8.024 85.7088 8.15 85.0741 8.15C84.7755 8.15 84.4581 8.11733 84.1221 8.052C83.7955 7.98667 83.4548 7.86067 83.1001 7.674L83.1701 7.492C83.2448 7.72533 83.3055 8.01467 83.3521 8.36C83.4081 8.696 83.4501 9.046 83.4781 9.41C83.5155 9.76467 83.5341 10.0913 83.5341 10.39C83.5341 10.9407 83.4408 11.3653 83.2541 11.664C83.0768 11.9533 82.8108 12.098 82.4561 12.098C82.1575 12.098 81.9195 12.0047 81.7421 11.818C81.5741 11.6313 81.4575 11.3233 81.3921 10.894C81.3268 10.4647 81.2941 9.89067 81.2941 9.172C81.2941 7.79067 81.3548 6.61467 81.4761 5.644C81.6068 4.664 81.8261 3.894 82.1341 3.334C82.3768 2.90467 82.7501 2.564 83.2541 2.312C83.7675 2.06 84.4068 1.934 85.1721 1.934ZM84.9061 6.498C85.4661 6.498 85.9188 6.34867 86.2641 6.05C86.6188 5.75133 86.7961 5.31733 86.7961 4.748C86.7961 4.37467 86.6701 4.06667 86.4181 3.824C86.1755 3.572 85.7928 3.446 85.2701 3.446C84.8875 3.446 84.5561 3.53467 84.2761 3.712C83.9961 3.88 83.7815 4.118 83.6321 4.426C83.4921 4.72467 83.4221 5.07 83.4221 5.462C83.4221 5.826 83.5388 6.092 83.7721 6.26C84.0148 6.41867 84.3928 6.498 84.9061 6.498ZM93.5386 12.112C92.5026 12.112 91.6766 11.958 91.0606 11.65C90.4446 11.342 90.0013 10.8987 89.7306 10.32C89.46 9.74133 89.3246 9.05067 89.3246 8.248C89.3246 7.23067 89.5113 6.36733 89.8846 5.658C90.2673 4.93933 90.79 4.38867 91.4526 4.006C92.1246 3.62333 92.8853 3.432 93.7346 3.432C94.7333 3.432 95.466 3.66533 95.9326 4.132C96.3993 4.58933 96.6326 5.19133 96.6326 5.938C96.6326 6.53533 96.474 7.05333 96.1566 7.492C95.8486 7.92133 95.4193 8.25267 94.8686 8.486C94.318 8.71933 93.6833 8.836 92.9646 8.836C92.5633 8.836 92.176 8.78467 91.8026 8.682C91.4293 8.57933 91.0933 8.43933 90.7946 8.262L91.1306 7.646C91.1026 7.87 91.0886 8.094 91.0886 8.318C91.0886 8.97133 91.294 9.44267 91.7046 9.732C92.1153 10.012 92.6986 10.152 93.4546 10.152C94.0426 10.152 94.514 10.1007 94.8686 9.998C95.2233 9.89533 95.522 9.79733 95.7646 9.704C96.0073 9.60133 96.2453 9.55 96.4786 9.55C96.6093 9.55 96.726 9.58733 96.8286 9.662C96.9406 9.72733 97.0293 9.82533 97.0946 9.956C97.1693 10.0867 97.2066 10.2453 97.2066 10.432C97.2066 10.712 97.0666 10.9827 96.7866 11.244C96.5066 11.496 96.0913 11.706 95.5406 11.874C94.9993 12.0327 94.332 12.112 93.5386 12.112ZM92.7266 7.534C93.3893 7.534 93.9213 7.394 94.3226 7.114C94.724 6.834 94.9246 6.48867 94.9246 6.078C94.9246 5.75133 94.8126 5.48533 94.5886 5.28C94.374 5.06533 94.0333 4.958 93.5666 4.958C93.128 4.958 92.7313 5.042 92.3766 5.21C92.0313 5.36867 91.7606 5.57867 91.5646 5.84C91.3686 6.10133 91.2706 6.386 91.2706 6.694C91.2706 6.96467 91.3966 7.17467 91.6486 7.324C91.91 7.464 92.2693 7.534 92.7266 7.534ZM98.437 5.686C98.437 4.79 98.521 4.146 98.689 3.754C98.857 3.35267 99.095 3.152 99.403 3.152C99.6457 3.152 99.837 3.25467 99.977 3.46C100.117 3.656 100.22 3.90333 100.285 4.202C100.35 4.49133 100.383 4.78533 100.383 5.084L100.313 5.056C100.472 4.552 100.714 4.118 101.041 3.754C101.377 3.39 101.778 3.208 102.245 3.208C102.796 3.208 103.202 3.43667 103.463 3.894C103.724 4.342 103.855 4.902 103.855 5.574C103.855 6.47 103.752 7.09533 103.547 7.45C103.342 7.80467 103.066 7.982 102.721 7.982C102.469 7.982 102.282 7.87933 102.161 7.674C102.049 7.46867 102.012 7.10467 102.049 6.582C102.086 6.03133 102.054 5.64867 101.951 5.434C101.848 5.21933 101.685 5.112 101.461 5.112C101.19 5.112 100.966 5.28467 100.789 5.63C100.621 5.966 100.537 6.38133 100.537 6.876C100.537 7.072 100.56 7.31933 100.607 7.618C100.654 7.91667 100.705 8.24333 100.761 8.598C100.817 8.94333 100.868 9.28867 100.915 9.634C100.962 9.97933 100.985 10.2967 100.985 10.586C100.985 11.0993 100.906 11.468 100.747 11.692C100.588 11.916 100.364 12.028 100.075 12.028C99.7483 12.028 99.4963 11.9253 99.319 11.72C99.1417 11.5053 99.0063 11.16 98.913 10.684C98.8383 10.2547 98.7637 9.746 98.689 9.158C98.6143 8.57 98.5537 7.968 98.507 7.352C98.4603 6.736 98.437 6.18067 98.437 5.686ZM107.461 3.572H107.181C107.153 3.16133 107.163 2.774 107.209 2.41C107.256 2.03667 107.354 1.738 107.503 1.514C107.662 1.28067 107.886 1.164 108.175 1.164C108.437 1.164 108.628 1.248 108.749 1.416C108.871 1.584 108.931 1.81733 108.931 2.116C108.931 2.704 108.819 3.208 108.595 3.628L108.343 3.6C108.847 3.42267 109.417 3.334 110.051 3.334C110.453 3.334 110.77 3.41333 111.003 3.572C111.246 3.72133 111.367 3.978 111.367 4.342C111.367 4.68733 111.227 4.94867 110.947 5.126C110.667 5.30333 110.317 5.392 109.897 5.392C109.645 5.392 109.375 5.38267 109.085 5.364C108.805 5.336 108.53 5.294 108.259 5.238L108.497 4.944C108.581 5.29867 108.661 5.70467 108.735 6.162C108.819 6.61 108.894 7.07667 108.959 7.562C109.025 8.04733 109.076 8.51867 109.113 8.976C109.151 9.43333 109.169 9.844 109.169 10.208C109.169 10.8053 109.076 11.2767 108.889 11.622C108.703 11.9673 108.427 12.14 108.063 12.14C107.774 12.14 107.545 12.0513 107.377 11.874C107.219 11.6967 107.102 11.4727 107.027 11.202C106.962 10.922 106.92 10.6327 106.901 10.334C106.892 10.0353 106.887 9.76467 106.887 9.522C106.887 9.11133 106.906 8.64933 106.943 8.136C106.981 7.61333 107.032 7.07667 107.097 6.526C107.172 5.97533 107.256 5.44333 107.349 4.93L107.629 5.168C107.153 5.41067 106.565 5.532 105.865 5.532C105.436 5.532 105.105 5.45267 104.871 5.294C104.638 5.13533 104.521 4.888 104.521 4.552C104.521 4.188 104.652 3.908 104.913 3.712C105.175 3.50667 105.525 3.404 105.963 3.404C106.253 3.404 106.523 3.42267 106.775 3.46C107.037 3.488 107.265 3.52533 107.461 3.572ZM118.623 12.14C118.306 12.14 118.087 12.0187 117.965 11.776C117.853 11.524 117.788 11.1273 117.769 10.586L117.909 10.656C117.387 11.6733 116.397 12.182 114.941 12.182C114.279 12.182 113.728 12.0653 113.289 11.832C112.851 11.5893 112.524 11.272 112.309 10.88C112.104 10.4787 112.001 10.0447 112.001 9.578C112.001 8.77533 112.281 8.14067 112.841 7.674C113.401 7.198 114.143 6.96 115.067 6.96C115.674 6.96 116.201 7.04867 116.649 7.226C117.097 7.40333 117.48 7.65067 117.797 7.968L117.559 7.94C117.494 6.99733 117.289 6.32533 116.943 5.924C116.607 5.51333 116.127 5.308 115.501 5.308C115.137 5.308 114.801 5.364 114.493 5.476C114.185 5.588 113.901 5.70467 113.639 5.826C113.387 5.938 113.149 5.994 112.925 5.994C112.701 5.994 112.524 5.91933 112.393 5.77C112.272 5.62067 112.211 5.42933 112.211 5.196C112.211 4.86 112.37 4.54267 112.687 4.244C113.014 3.94533 113.443 3.70267 113.975 3.516C114.507 3.32933 115.086 3.236 115.711 3.236C116.467 3.236 117.116 3.418 117.657 3.782C118.199 4.146 118.609 4.678 118.889 5.378C119.132 5.97533 119.305 6.64267 119.407 7.38C119.51 8.11733 119.561 8.906 119.561 9.746C119.561 10.3807 119.529 10.8707 119.463 11.216C119.398 11.5613 119.295 11.804 119.155 11.944C119.025 12.0747 118.847 12.14 118.623 12.14ZM115.529 10.572C115.837 10.572 116.15 10.53 116.467 10.446C116.785 10.3527 117.051 10.2173 117.265 10.04C117.48 9.86267 117.587 9.64333 117.587 9.382C117.587 9.158 117.494 8.976 117.307 8.836C117.13 8.68667 116.892 8.57467 116.593 8.5C116.304 8.42533 115.991 8.388 115.655 8.388C115.086 8.388 114.652 8.486 114.353 8.682C114.064 8.878 113.919 9.13933 113.919 9.466C113.919 9.82067 114.055 10.096 114.325 10.292C114.605 10.4787 115.007 10.572 115.529 10.572ZM122.697 3.292C122.996 3.292 123.196 3.41333 123.299 3.656C123.411 3.89867 123.467 4.258 123.467 4.734C123.467 4.846 123.458 4.96733 123.439 5.098C123.43 5.21933 123.411 5.33133 123.383 5.434L123.355 5.154C123.579 4.54733 123.924 4.076 124.391 3.74C124.858 3.39467 125.352 3.222 125.875 3.222C126.454 3.222 126.934 3.38533 127.317 3.712C127.709 4.03867 127.998 4.496 128.185 5.084C128.381 5.672 128.479 6.36733 128.479 7.17C128.479 7.66467 128.456 8.15467 128.409 8.64C128.372 9.116 128.316 9.55467 128.241 9.956C128.176 10.348 128.101 10.67 128.017 10.922C127.905 11.2393 127.76 11.4773 127.583 11.636C127.406 11.7853 127.196 11.86 126.953 11.86C126.71 11.86 126.524 11.7713 126.393 11.594C126.262 11.4167 126.197 11.1787 126.197 10.88C126.197 10.5627 126.22 10.18 126.267 9.732C126.314 9.27467 126.356 8.81267 126.393 8.346C126.44 7.87 126.463 7.44067 126.463 7.058C126.463 5.75133 126.034 5.098 125.175 5.098C124.718 5.098 124.335 5.30333 124.027 5.714C123.719 6.11533 123.514 6.68933 123.411 7.436C123.383 7.688 123.369 8.00067 123.369 8.374C123.369 8.74733 123.369 9.12067 123.369 9.494C123.378 9.858 123.369 10.166 123.341 10.418C123.304 10.978 123.196 11.3793 123.019 11.622C122.851 11.8647 122.618 11.986 122.319 11.986C121.974 11.986 121.712 11.8273 121.535 11.51C121.358 11.1833 121.269 10.6373 121.269 9.872C121.269 9.48 121.278 9.04133 121.297 8.556C121.316 8.07067 121.339 7.58533 121.367 7.1C121.404 6.60533 121.446 6.15733 121.493 5.756C121.586 5 121.722 4.40267 121.899 3.964C122.076 3.516 122.342 3.292 122.697 3.292ZM131.569 14.786C131.065 14.786 130.813 14.5153 130.813 13.974C130.813 13.6753 130.916 13.3207 131.121 12.91C131.326 12.4993 131.625 12.056 132.017 11.58C132.418 11.104 132.904 10.6187 133.473 10.124L133.459 10.236C132.218 9.004 131.275 7.92133 130.631 6.988C129.996 6.05467 129.679 5.24733 129.679 4.566C129.679 4.23 129.763 3.96867 129.931 3.782C130.108 3.59533 130.342 3.502 130.631 3.502C131.247 3.502 131.858 3.95 132.465 4.846C133.072 5.742 133.646 7.10467 134.187 8.934H134.243C134.598 7.01133 134.976 5.602 135.377 4.706C135.778 3.80067 136.254 3.348 136.805 3.348C137.066 3.348 137.258 3.44133 137.379 3.628C137.51 3.80533 137.575 4.05733 137.575 4.384C137.575 4.65467 137.514 5.014 137.393 5.462C137.281 5.90067 137.118 6.4 136.903 6.96C136.698 7.51067 136.455 8.08467 136.175 8.682C135.904 9.27933 135.606 9.86733 135.279 10.446C134.448 11.9487 133.739 13.0453 133.151 13.736C132.563 14.436 132.036 14.786 131.569 14.786ZM144.901 12.14C144.583 12.14 144.364 12.0187 144.243 11.776C144.131 11.524 144.065 11.1273 144.047 10.586L144.187 10.656C143.664 11.6733 142.675 12.182 141.219 12.182C140.556 12.182 140.005 12.0653 139.567 11.832C139.128 11.5893 138.801 11.272 138.587 10.88C138.381 10.4787 138.279 10.0447 138.279 9.578C138.279 8.77533 138.559 8.14067 139.119 7.674C139.679 7.198 140.421 6.96 141.345 6.96C141.951 6.96 142.479 7.04867 142.927 7.226C143.375 7.40333 143.757 7.65067 144.075 7.968L143.837 7.94C143.771 6.99733 143.566 6.32533 143.221 5.924C142.885 5.51333 142.404 5.308 141.779 5.308C141.415 5.308 141.079 5.364 140.771 5.476C140.463 5.588 140.178 5.70467 139.917 5.826C139.665 5.938 139.427 5.994 139.203 5.994C138.979 5.994 138.801 5.91933 138.671 5.77C138.549 5.62067 138.489 5.42933 138.489 5.196C138.489 4.86 138.647 4.54267 138.965 4.244C139.291 3.94533 139.721 3.70267 140.253 3.516C140.785 3.32933 141.363 3.236 141.989 3.236C142.745 3.236 143.393 3.418 143.935 3.782C144.476 4.146 144.887 4.678 145.167 5.378C145.409 5.97533 145.582 6.64267 145.685 7.38C145.787 8.11733 145.839 8.906 145.839 9.746C145.839 10.3807 145.806 10.8707 145.741 11.216C145.675 11.5613 145.573 11.804 145.433 11.944C145.302 12.0747 145.125 12.14 144.901 12.14ZM141.807 10.572C142.115 10.572 142.427 10.53 142.745 10.446C143.062 10.3527 143.328 10.2173 143.543 10.04C143.757 9.86267 143.865 9.64333 143.865 9.382C143.865 9.158 143.771 8.976 143.585 8.836C143.407 8.68667 143.169 8.57467 142.871 8.5C142.581 8.42533 142.269 8.388 141.933 8.388C141.363 8.388 140.929 8.486 140.631 8.682C140.341 8.878 140.197 9.13933 140.197 9.466C140.197 9.82067 140.332 10.096 140.603 10.292C140.883 10.4787 141.284 10.572 141.807 10.572ZM153.664 12.14C153.347 12.14 153.128 12.0187 153.006 11.776C152.894 11.524 152.829 11.1273 152.81 10.586L152.95 10.656C152.428 11.6733 151.438 12.182 149.982 12.182C149.32 12.182 148.769 12.0653 148.33 11.832C147.892 11.5893 147.565 11.272 147.35 10.88C147.145 10.4787 147.042 10.0447 147.042 9.578C147.042 8.77533 147.322 8.14067 147.882 7.674C148.442 7.198 149.184 6.96 150.108 6.96C150.715 6.96 151.242 7.04867 151.69 7.226C152.138 7.40333 152.521 7.65067 152.838 7.968L152.6 7.94C152.535 6.99733 152.33 6.32533 151.984 5.924C151.648 5.51333 151.168 5.308 150.542 5.308C150.178 5.308 149.842 5.364 149.534 5.476C149.226 5.588 148.942 5.70467 148.68 5.826C148.428 5.938 148.19 5.994 147.966 5.994C147.742 5.994 147.565 5.91933 147.434 5.77C147.313 5.62067 147.252 5.42933 147.252 5.196C147.252 4.86 147.411 4.54267 147.728 4.244C148.055 3.94533 148.484 3.70267 149.016 3.516C149.548 3.32933 150.127 3.236 150.752 3.236C151.508 3.236 152.157 3.418 152.698 3.782C153.24 4.146 153.65 4.678 153.93 5.378C154.173 5.97533 154.346 6.64267 154.448 7.38C154.551 8.11733 154.602 8.906 154.602 9.746C154.602 10.3807 154.57 10.8707 154.504 11.216C154.439 11.5613 154.336 11.804 154.196 11.944C154.066 12.0747 153.888 12.14 153.664 12.14ZM150.57 10.572C150.878 10.572 151.191 10.53 151.508 10.446C151.826 10.3527 152.092 10.2173 152.306 10.04C152.521 9.86267 152.628 9.64333 152.628 9.382C152.628 9.158 152.535 8.976 152.348 8.836C152.171 8.68667 151.933 8.57467 151.634 8.5C151.345 8.42533 151.032 8.388 150.696 8.388C150.127 8.388 149.693 8.486 149.394 8.682C149.105 8.878 148.96 9.13933 148.96 9.466C148.96 9.82067 149.096 10.096 149.366 10.292C149.646 10.4787 150.048 10.572 150.57 10.572ZM157.738 3.292C158.037 3.292 158.237 3.41333 158.34 3.656C158.452 3.89867 158.508 4.258 158.508 4.734C158.508 4.846 158.499 4.96733 158.48 5.098C158.471 5.21933 158.452 5.33133 158.424 5.434L158.396 5.154C158.62 4.54733 158.965 4.076 159.432 3.74C159.899 3.39467 160.393 3.222 160.916 3.222C161.495 3.222 161.975 3.38533 162.358 3.712C162.75 4.03867 163.039 4.496 163.226 5.084C163.422 5.672 163.52 6.36733 163.52 7.17C163.52 7.66467 163.497 8.15467 163.45 8.64C163.413 9.116 163.357 9.55467 163.282 9.956C163.217 10.348 163.142 10.67 163.058 10.922C162.946 11.2393 162.801 11.4773 162.624 11.636C162.447 11.7853 162.237 11.86 161.994 11.86C161.751 11.86 161.565 11.7713 161.434 11.594C161.303 11.4167 161.238 11.1787 161.238 10.88C161.238 10.5627 161.261 10.18 161.308 9.732C161.355 9.27467 161.397 8.81267 161.434 8.346C161.481 7.87 161.504 7.44067 161.504 7.058C161.504 5.75133 161.075 5.098 160.216 5.098C159.759 5.098 159.376 5.30333 159.068 5.714C158.76 6.11533 158.555 6.68933 158.452 7.436C158.424 7.688 158.41 8.00067 158.41 8.374C158.41 8.74733 158.41 9.12067 158.41 9.494C158.419 9.858 158.41 10.166 158.382 10.418C158.345 10.978 158.237 11.3793 158.06 11.622C157.892 11.8647 157.659 11.986 157.36 11.986C157.015 11.986 156.753 11.8273 156.576 11.51C156.399 11.1833 156.31 10.6373 156.31 9.872C156.31 9.48 156.319 9.04133 156.338 8.556C156.357 8.07067 156.38 7.58533 156.408 7.1C156.445 6.60533 156.487 6.15733 156.534 5.756C156.627 5 156.763 4.40267 156.94 3.964C157.117 3.516 157.383 3.292 157.738 3.292ZM171.975 1.934C173.086 1.934 173.902 2.21867 174.425 2.788C174.957 3.35733 175.223 4.104 175.223 5.028C175.223 5.66267 175.074 6.21333 174.775 6.68C174.486 7.14667 174.089 7.51067 173.585 7.772C173.081 8.024 172.512 8.15 171.877 8.15C171.578 8.15 171.261 8.11733 170.925 8.052C170.598 7.98667 170.258 7.86067 169.903 7.674L169.973 7.492C170.048 7.72533 170.108 8.01467 170.155 8.36C170.211 8.696 170.253 9.046 170.281 9.41C170.318 9.76467 170.337 10.0913 170.337 10.39C170.337 10.9407 170.244 11.3653 170.057 11.664C169.88 11.9533 169.614 12.098 169.259 12.098C168.96 12.098 168.722 12.0047 168.545 11.818C168.377 11.6313 168.26 11.3233 168.195 10.894C168.13 10.4647 168.097 9.89067 168.097 9.172C168.097 7.79067 168.158 6.61467 168.279 5.644C168.41 4.664 168.629 3.894 168.937 3.334C169.18 2.90467 169.553 2.564 170.057 2.312C170.57 2.06 171.21 1.934 171.975 1.934ZM171.709 6.498C172.269 6.498 172.722 6.34867 173.067 6.05C173.422 5.75133 173.599 5.31733 173.599 4.748C173.599 4.37467 173.473 4.06667 173.221 3.824C172.978 3.572 172.596 3.446 172.073 3.446C171.69 3.446 171.359 3.53467 171.079 3.712C170.799 3.88 170.584 4.118 170.435 4.426C170.295 4.72467 170.225 5.07 170.225 5.462C170.225 5.826 170.342 6.092 170.575 6.26C170.818 6.41867 171.196 6.498 171.709 6.498ZM180.341 12.112C179.305 12.112 178.479 11.958 177.863 11.65C177.247 11.342 176.804 10.8987 176.533 10.32C176.263 9.74133 176.127 9.05067 176.127 8.248C176.127 7.23067 176.314 6.36733 176.687 5.658C177.07 4.93933 177.593 4.38867 178.255 4.006C178.927 3.62333 179.688 3.432 180.537 3.432C181.536 3.432 182.269 3.66533 182.735 4.132C183.202 4.58933 183.435 5.19133 183.435 5.938C183.435 6.53533 183.277 7.05333 182.959 7.492C182.651 7.92133 182.222 8.25267 181.671 8.486C181.121 8.71933 180.486 8.836 179.767 8.836C179.366 8.836 178.979 8.78467 178.605 8.682C178.232 8.57933 177.896 8.43933 177.597 8.262L177.933 7.646C177.905 7.87 177.891 8.094 177.891 8.318C177.891 8.97133 178.097 9.44267 178.507 9.732C178.918 10.012 179.501 10.152 180.257 10.152C180.845 10.152 181.317 10.1007 181.671 9.998C182.026 9.89533 182.325 9.79733 182.567 9.704C182.81 9.60133 183.048 9.55 183.281 9.55C183.412 9.55 183.529 9.58733 183.631 9.662C183.743 9.72733 183.832 9.82533 183.897 9.956C183.972 10.0867 184.009 10.2453 184.009 10.432C184.009 10.712 183.869 10.9827 183.589 11.244C183.309 11.496 182.894 11.706 182.343 11.874C181.802 12.0327 181.135 12.112 180.341 12.112ZM179.529 7.534C180.192 7.534 180.724 7.394 181.125 7.114C181.527 6.834 181.727 6.48867 181.727 6.078C181.727 5.75133 181.615 5.48533 181.391 5.28C181.177 5.06533 180.836 4.958 180.369 4.958C179.931 4.958 179.534 5.042 179.179 5.21C178.834 5.36867 178.563 5.57867 178.367 5.84C178.171 6.10133 178.073 6.386 178.073 6.694C178.073 6.96467 178.199 7.17467 178.451 7.324C178.713 7.464 179.072 7.534 179.529 7.534ZM186.668 3.292C186.966 3.292 187.167 3.41333 187.27 3.656C187.382 3.89867 187.438 4.258 187.438 4.734C187.438 4.846 187.428 4.96733 187.41 5.098C187.4 5.21933 187.382 5.33133 187.354 5.434L187.326 5.154C187.55 4.54733 187.895 4.076 188.362 3.74C188.828 3.39467 189.323 3.222 189.846 3.222C190.424 3.222 190.905 3.38533 191.288 3.712C191.68 4.03867 191.969 4.496 192.156 5.084C192.352 5.672 192.45 6.36733 192.45 7.17C192.45 7.66467 192.426 8.15467 192.38 8.64C192.342 9.116 192.286 9.55467 192.212 9.956C192.146 10.348 192.072 10.67 191.988 10.922C191.876 11.2393 191.731 11.4773 191.554 11.636C191.376 11.7853 191.166 11.86 190.924 11.86C190.681 11.86 190.494 11.7713 190.364 11.594C190.233 11.4167 190.168 11.1787 190.168 10.88C190.168 10.5627 190.191 10.18 190.238 9.732C190.284 9.27467 190.326 8.81267 190.364 8.346C190.41 7.87 190.434 7.44067 190.434 7.058C190.434 5.75133 190.004 5.098 189.146 5.098C188.688 5.098 188.306 5.30333 187.998 5.714C187.69 6.11533 187.484 6.68933 187.382 7.436C187.354 7.688 187.34 8.00067 187.34 8.374C187.34 8.74733 187.34 9.12067 187.34 9.494C187.349 9.858 187.34 10.166 187.312 10.418C187.274 10.978 187.167 11.3793 186.99 11.622C186.822 11.8647 186.588 11.986 186.29 11.986C185.944 11.986 185.683 11.8273 185.506 11.51C185.328 11.1833 185.24 10.6373 185.24 9.872C185.24 9.48 185.249 9.04133 185.268 8.556C185.286 8.07067 185.31 7.58533 185.338 7.1C185.375 6.60533 185.417 6.15733 185.464 5.756C185.557 5 185.692 4.40267 185.87 3.964C186.047 3.516 186.313 3.292 186.668 3.292ZM196.828 11.776C195.95 11.776 195.236 11.44 194.686 10.768C194.135 10.0867 193.86 9.05533 193.86 7.674C193.86 6.19933 194.126 5.12133 194.658 4.44C195.19 3.75867 195.89 3.418 196.758 3.418C197.271 3.418 197.724 3.54867 198.116 3.81C198.508 4.07133 198.844 4.44 199.124 4.916L199.012 5.112C198.984 4.98133 198.96 4.84133 198.942 4.692C198.923 4.54267 198.914 4.43067 198.914 4.356C198.914 3.97333 198.974 3.67933 199.096 3.474C199.226 3.25933 199.427 3.152 199.698 3.152C199.996 3.152 200.23 3.27333 200.398 3.516C200.575 3.75867 200.71 4.104 200.804 4.552C200.925 5.00933 201.028 5.59267 201.112 6.302C201.196 7.002 201.238 7.71133 201.238 8.43C201.238 9.326 201.205 10.0773 201.14 10.684C201.074 11.2907 200.967 11.7947 200.818 12.196C200.668 12.5973 200.472 12.9473 200.23 13.246C199.828 13.7313 199.31 14.1 198.676 14.352C198.05 14.6133 197.327 14.744 196.506 14.744C195.918 14.744 195.446 14.688 195.092 14.576C194.737 14.4733 194.48 14.3287 194.322 14.142C194.172 13.9647 194.098 13.764 194.098 13.54C194.098 13.3067 194.163 13.1107 194.294 12.952C194.424 12.8027 194.62 12.728 194.882 12.728C195.115 12.728 195.386 12.7653 195.694 12.84C196.011 12.9147 196.384 12.952 196.814 12.952C197.719 12.952 198.358 12.7373 198.732 12.308C199.114 11.888 199.306 11.2813 199.306 10.488C199.306 10.2733 199.292 10.0213 199.264 9.732L199.46 9.802C199.226 10.3993 198.881 10.88 198.424 11.244C197.966 11.5987 197.434 11.776 196.828 11.776ZM197.36 10.054C197.658 10.054 197.957 9.97467 198.256 9.816C198.554 9.65733 198.802 9.396 198.998 9.032C199.194 8.668 199.292 8.178 199.292 7.562C199.292 6.82467 199.119 6.22267 198.774 5.756C198.428 5.28933 197.943 5.056 197.318 5.056C196.776 5.056 196.38 5.26133 196.128 5.672C195.876 6.08267 195.75 6.70333 195.75 7.534C195.75 8.32733 195.876 8.948 196.128 9.396C196.38 9.83467 196.79 10.054 197.36 10.054ZM206.865 12.112C205.829 12.112 205.003 11.958 204.387 11.65C203.771 11.342 203.327 10.8987 203.057 10.32C202.786 9.74133 202.651 9.05067 202.651 8.248C202.651 7.23067 202.837 6.36733 203.211 5.658C203.593 4.93933 204.116 4.38867 204.779 4.006C205.451 3.62333 206.211 3.432 207.061 3.432C208.059 3.432 208.792 3.66533 209.259 4.132C209.725 4.58933 209.959 5.19133 209.959 5.938C209.959 6.53533 209.8 7.05333 209.483 7.492C209.175 7.92133 208.745 8.25267 208.195 8.486C207.644 8.71933 207.009 8.836 206.291 8.836C205.889 8.836 205.502 8.78467 205.129 8.682C204.755 8.57933 204.419 8.43933 204.121 8.262L204.457 7.646C204.429 7.87 204.415 8.094 204.415 8.318C204.415 8.97133 204.62 9.44267 205.031 9.732C205.441 10.012 206.025 10.152 206.781 10.152C207.369 10.152 207.84 10.1007 208.195 9.998C208.549 9.89533 208.848 9.79733 209.091 9.704C209.333 9.60133 209.571 9.55 209.805 9.55C209.935 9.55 210.052 9.58733 210.155 9.662C210.267 9.72733 210.355 9.82533 210.421 9.956C210.495 10.0867 210.533 10.2453 210.533 10.432C210.533 10.712 210.393 10.9827 210.113 11.244C209.833 11.496 209.417 11.706 208.867 11.874C208.325 12.0327 207.658 12.112 206.865 12.112ZM206.053 7.534C206.715 7.534 207.247 7.394 207.649 7.114C208.05 6.834 208.251 6.48867 208.251 6.078C208.251 5.75133 208.139 5.48533 207.915 5.28C207.7 5.06533 207.359 4.958 206.893 4.958C206.454 4.958 206.057 5.042 205.703 5.21C205.357 5.36867 205.087 5.57867 204.891 5.84C204.695 6.10133 204.597 6.386 204.597 6.694C204.597 6.96467 204.723 7.17467 204.975 7.324C205.236 7.464 205.595 7.534 206.053 7.534ZM213.275 12.028C212.986 12.028 212.757 11.9627 212.589 11.832C212.421 11.692 212.286 11.4633 212.183 11.146C212.043 10.6793 211.936 10.0913 211.861 9.382C211.796 8.66333 211.763 7.78133 211.763 6.736C211.763 6.092 211.787 5.448 211.833 4.804C211.889 4.15067 211.959 3.558 212.043 3.026C212.127 2.48467 212.216 2.06467 212.309 1.766C212.412 1.44867 212.533 1.22933 212.673 1.108C212.813 0.986666 212.972 0.926 213.149 0.926C213.336 0.926 213.485 0.991333 213.597 1.122C213.709 1.24333 213.798 1.46267 213.863 1.78C213.919 2.088 213.961 2.466 213.989 2.914C214.027 3.362 214.045 3.84267 214.045 4.356C214.045 5.056 214.013 5.79333 213.947 6.568C213.882 7.34267 213.793 8.10333 213.681 8.85C213.579 9.59667 213.453 10.2827 213.303 10.908L212.911 10.712C213.154 10.4133 213.429 10.18 213.737 10.012C214.055 9.844 214.344 9.76 214.605 9.76C214.82 9.76 214.983 9.82067 215.095 9.942C215.217 10.054 215.277 10.2313 215.277 10.474C215.277 10.7167 215.17 10.9593 214.955 11.202C214.75 11.4447 214.493 11.6453 214.185 11.804C213.877 11.9533 213.574 12.028 213.275 12.028ZM219.95 12.042C219.204 12.042 218.55 11.8787 217.99 11.552C217.44 11.216 217.01 10.74 216.702 10.124C216.404 9.508 216.254 8.77533 216.254 7.926C216.254 7.03933 216.408 6.26467 216.716 5.602C217.024 4.93933 217.458 4.42133 218.018 4.048C218.588 3.67467 219.246 3.488 219.992 3.488C220.795 3.488 221.49 3.67 222.078 4.034C222.666 4.38867 223.124 4.888 223.45 5.532C223.777 6.176 223.94 6.92733 223.94 7.786C223.94 8.66333 223.777 9.41933 223.45 10.054C223.124 10.6887 222.662 11.1787 222.064 11.524C221.467 11.8693 220.762 12.042 219.95 12.042ZM220.146 10.152C220.725 10.152 221.182 9.92333 221.518 9.466C221.864 8.99933 222.036 8.38333 222.036 7.618C222.036 6.84333 221.864 6.22733 221.518 5.77C221.182 5.31267 220.725 5.084 220.146 5.084C219.549 5.084 219.078 5.31267 218.732 5.77C218.387 6.22733 218.214 6.84333 218.214 7.618C218.214 8.38333 218.387 8.99933 218.732 9.466C219.078 9.92333 219.549 10.152 220.146 10.152ZM231.387 5.588C231.48 5.20533 231.644 4.86 231.877 4.552C232.12 4.244 232.409 4.00133 232.745 3.824C233.09 3.63733 233.468 3.544 233.879 3.544C234.364 3.544 234.794 3.66067 235.167 3.894C235.54 4.12733 235.834 4.51 236.049 5.042C236.273 5.574 236.385 6.28333 236.385 7.17C236.385 7.62733 236.366 8.08933 236.329 8.556C236.292 9.02267 236.245 9.45667 236.189 9.858C236.133 10.2593 236.072 10.5953 236.007 10.866C235.914 11.2393 235.769 11.524 235.573 11.72C235.386 11.916 235.148 12.014 234.859 12.014C234.616 12.014 234.425 11.9067 234.285 11.692C234.145 11.4773 234.075 11.1693 234.075 10.768C234.075 10.5813 234.098 10.3433 234.145 10.054C234.192 9.75533 234.243 9.43333 234.299 9.088C234.355 8.73333 234.406 8.374 234.453 8.01C234.5 7.646 234.523 7.30067 234.523 6.974C234.523 6.48867 234.425 6.11533 234.229 5.854C234.033 5.58333 233.758 5.448 233.403 5.448C233.011 5.448 232.684 5.65333 232.423 6.064C232.171 6.46533 232.022 7.05333 231.975 7.828C231.938 8.51867 231.905 9.13467 231.877 9.676C231.849 10.208 231.779 10.6467 231.667 10.992C231.592 11.2347 231.485 11.4167 231.345 11.538C231.214 11.6593 231.037 11.72 230.813 11.72C230.561 11.72 230.36 11.6267 230.211 11.44C230.071 11.2533 229.992 10.9593 229.973 10.558C229.954 10.222 229.95 9.82533 229.959 9.368C229.968 8.91067 229.973 8.458 229.973 8.01C229.982 7.55267 229.978 7.17467 229.959 6.876C229.922 6.27867 229.814 5.84 229.637 5.56C229.469 5.28 229.212 5.14 228.867 5.14C228.466 5.14 228.144 5.32667 227.901 5.7C227.668 6.07333 227.523 6.59133 227.467 7.254C227.448 7.52467 227.439 7.86067 227.439 8.262C227.448 8.654 227.458 9.046 227.467 9.438C227.476 9.83 227.472 10.1567 227.453 10.418C227.444 10.978 227.355 11.3793 227.187 11.622C227.028 11.8647 226.804 11.986 226.515 11.986C226.17 11.986 225.918 11.874 225.759 11.65C225.61 11.426 225.512 11.0667 225.465 10.572C225.428 10.1333 225.4 9.69933 225.381 9.27C225.362 8.83133 225.353 8.39733 225.353 7.968C225.353 7.52933 225.362 7.05333 225.381 6.54C225.409 6.02667 225.446 5.54133 225.493 5.084C225.549 4.61733 225.647 4.22533 225.787 3.908C225.927 3.59067 226.16 3.432 226.487 3.432C226.758 3.432 226.949 3.56733 227.061 3.838C227.173 4.09933 227.229 4.50533 227.229 5.056C227.229 5.24267 227.215 5.41533 227.187 5.574L227.145 5.294C227.332 4.68733 227.63 4.216 228.041 3.88C228.452 3.53467 228.909 3.362 229.413 3.362C230.076 3.362 230.594 3.57667 230.967 4.006C231.34 4.426 231.546 5.00933 231.583 5.756L231.387 5.588ZM239.047 3.32C239.299 3.32 239.509 3.46933 239.677 3.768C239.845 4.05733 239.962 4.51933 240.027 5.154L239.733 5.42C239.901 4.76667 240.214 4.26733 240.671 3.922C241.129 3.57667 241.67 3.404 242.295 3.404C242.874 3.404 243.387 3.55333 243.835 3.852C244.283 4.15067 244.633 4.60333 244.885 5.21C245.147 5.80733 245.277 6.55867 245.277 7.464C245.277 8.92933 245.011 10.012 244.479 10.712C243.957 11.4027 243.243 11.748 242.337 11.748C241.684 11.748 241.171 11.608 240.797 11.328C240.424 11.048 240.163 10.7073 240.013 10.306L240.181 10.222C240.256 10.782 240.317 11.3373 240.363 11.888C240.419 12.4293 240.447 12.9053 240.447 13.316C240.447 13.736 240.373 14.0907 240.223 14.38C240.074 14.6693 239.836 14.814 239.509 14.814C239.192 14.814 238.954 14.6927 238.795 14.45C238.637 14.2073 238.52 13.8853 238.445 13.484C238.389 13.0733 238.333 12.546 238.277 11.902C238.221 11.258 238.175 10.5627 238.137 9.816C238.109 9.06933 238.095 8.34133 238.095 7.632C238.095 6.904 238.119 6.22267 238.165 5.588C238.221 4.944 238.287 4.42133 238.361 4.02C238.427 3.78667 238.511 3.614 238.613 3.502C238.725 3.38067 238.87 3.32 239.047 3.32ZM241.721 5.014C241.217 5.014 240.811 5.266 240.503 5.77C240.205 6.26467 240.055 6.89933 240.055 7.674C240.055 8.46733 240.205 9.06 240.503 9.452C240.811 9.844 241.208 10.04 241.693 10.04C242.253 10.04 242.655 9.82067 242.897 9.382C243.149 8.934 243.275 8.35533 243.275 7.646C243.275 6.74067 243.121 6.078 242.813 5.658C242.505 5.22867 242.141 5.014 241.721 5.014ZM250.097 12.042C249.35 12.042 248.697 11.8787 248.137 11.552C247.586 11.216 247.157 10.74 246.849 10.124C246.55 9.508 246.401 8.77533 246.401 7.926C246.401 7.03933 246.555 6.26467 246.863 5.602C247.171 4.93933 247.605 4.42133 248.165 4.048C248.734 3.67467 249.392 3.488 250.139 3.488C250.941 3.488 251.637 3.67 252.225 4.034C252.813 4.38867 253.27 4.888 253.597 5.532C253.923 6.176 254.087 6.92733 254.087 7.786C254.087 8.66333 253.923 9.41933 253.597 10.054C253.27 10.6887 252.808 11.1787 252.211 11.524C251.613 11.8693 250.909 12.042 250.097 12.042ZM250.293 10.152C250.871 10.152 251.329 9.92333 251.665 9.466C252.01 8.99933 252.183 8.38333 252.183 7.618C252.183 6.84333 252.01 6.22733 251.665 5.77C251.329 5.31267 250.871 5.084 250.293 5.084C249.695 5.084 249.224 5.31267 248.879 5.77C248.533 6.22733 248.361 6.84333 248.361 7.618C248.361 8.38333 248.533 8.99933 248.879 9.466C249.224 9.92333 249.695 10.152 250.293 10.152ZM256.452 12.14C256.274 12.14 256.13 12.0887 256.018 11.986C255.906 11.874 255.826 11.7153 255.78 11.51C255.705 11.1647 255.64 10.6653 255.584 10.012C255.528 9.35867 255.5 8.63533 255.5 7.842C255.5 6.862 255.532 5.91933 255.598 5.014C255.672 4.10867 255.766 3.36667 255.878 2.788C255.999 2.16267 256.148 1.70533 256.326 1.416C256.503 1.11733 256.736 0.967999 257.026 0.967999C257.287 0.967999 257.488 1.08933 257.628 1.332C257.768 1.56533 257.838 1.97133 257.838 2.55C257.838 3.12867 257.814 3.74933 257.768 4.412C257.73 5.07467 257.665 5.784 257.572 6.54H257.628C258.234 5.71867 258.799 5.06067 259.322 4.566C259.854 4.07133 260.339 3.712 260.778 3.488C261.226 3.264 261.622 3.152 261.968 3.152C262.238 3.152 262.439 3.236 262.57 3.404C262.7 3.572 262.766 3.77733 262.766 4.02C262.766 4.496 262.383 5.028 261.618 5.616C260.862 6.204 259.77 6.806 258.342 7.422L258.356 7.198C259.242 7.65533 260.003 8.136 260.638 8.64C261.282 9.13467 261.772 9.606 262.108 10.054C262.453 10.4927 262.626 10.8613 262.626 11.16C262.626 11.4027 262.546 11.6033 262.388 11.762C262.238 11.9113 262.019 11.986 261.73 11.986C261.366 11.986 260.96 11.8507 260.512 11.58C260.073 11.3 259.616 10.8847 259.14 10.334C258.664 9.78333 258.188 9.09267 257.712 8.262H257.656C257.646 8.85 257.609 9.424 257.544 9.984C257.488 10.5347 257.413 10.9873 257.32 11.342C257.254 11.5847 257.152 11.7807 257.012 11.93C256.881 12.07 256.694 12.14 256.452 12.14ZM270.012 12.14C269.695 12.14 269.475 12.0187 269.354 11.776C269.242 11.524 269.177 11.1273 269.158 10.586L269.298 10.656C268.775 11.6733 267.786 12.182 266.33 12.182C265.667 12.182 265.117 12.0653 264.678 11.832C264.239 11.5893 263.913 11.272 263.698 10.88C263.493 10.4787 263.39 10.0447 263.39 9.578C263.39 8.77533 263.67 8.14067 264.23 7.674C264.79 7.198 265.532 6.96 266.456 6.96C267.063 6.96 267.59 7.04867 268.038 7.226C268.486 7.40333 268.869 7.65067 269.186 7.968L268.948 7.94C268.883 6.99733 268.677 6.32533 268.332 5.924C267.996 5.51333 267.515 5.308 266.89 5.308C266.526 5.308 266.19 5.364 265.882 5.476C265.574 5.588 265.289 5.70467 265.028 5.826C264.776 5.938 264.538 5.994 264.314 5.994C264.09 5.994 263.913 5.91933 263.782 5.77C263.661 5.62067 263.6 5.42933 263.6 5.196C263.6 4.86 263.759 4.54267 264.076 4.244C264.403 3.94533 264.832 3.70267 265.364 3.516C265.896 3.32933 266.475 3.236 267.1 3.236C267.856 3.236 268.505 3.418 269.046 3.782C269.587 4.146 269.998 4.678 270.278 5.378C270.521 5.97533 270.693 6.64267 270.796 7.38C270.899 8.11733 270.95 8.906 270.95 9.746C270.95 10.3807 270.917 10.8707 270.852 11.216C270.787 11.5613 270.684 11.804 270.544 11.944C270.413 12.0747 270.236 12.14 270.012 12.14ZM266.918 10.572C267.226 10.572 267.539 10.53 267.856 10.446C268.173 10.3527 268.439 10.2173 268.654 10.04C268.869 9.86267 268.976 9.64333 268.976 9.382C268.976 9.158 268.883 8.976 268.696 8.836C268.519 8.68667 268.281 8.57467 267.982 8.5C267.693 8.42533 267.38 8.388 267.044 8.388C266.475 8.388 266.041 8.486 265.742 8.682C265.453 8.878 265.308 9.13933 265.308 9.466C265.308 9.82067 265.443 10.096 265.714 10.292C265.994 10.4787 266.395 10.572 266.918 10.572ZM274.086 3.292C274.384 3.292 274.585 3.41333 274.688 3.656C274.8 3.89867 274.856 4.258 274.856 4.734C274.856 4.846 274.846 4.96733 274.828 5.098C274.818 5.21933 274.8 5.33133 274.772 5.434L274.744 5.154C274.968 4.54733 275.313 4.076 275.78 3.74C276.246 3.39467 276.741 3.222 277.264 3.222C277.842 3.222 278.323 3.38533 278.706 3.712C279.098 4.03867 279.387 4.496 279.574 5.084C279.77 5.672 279.868 6.36733 279.868 7.17C279.868 7.66467 279.844 8.15467 279.798 8.64C279.76 9.116 279.704 9.55467 279.63 9.956C279.564 10.348 279.49 10.67 279.406 10.922C279.294 11.2393 279.149 11.4773 278.972 11.636C278.794 11.7853 278.584 11.86 278.342 11.86C278.099 11.86 277.912 11.7713 277.782 11.594C277.651 11.4167 277.586 11.1787 277.586 10.88C277.586 10.5627 277.609 10.18 277.656 9.732C277.702 9.27467 277.744 8.81267 277.782 8.346C277.828 7.87 277.852 7.44067 277.852 7.058C277.852 5.75133 277.422 5.098 276.564 5.098C276.106 5.098 275.724 5.30333 275.416 5.714C275.108 6.11533 274.902 6.68933 274.8 7.436C274.772 7.688 274.758 8.00067 274.758 8.374C274.758 8.74733 274.758 9.12067 274.758 9.494C274.767 9.858 274.758 10.166 274.73 10.418C274.692 10.978 274.585 11.3793 274.408 11.622C274.24 11.8647 274.006 11.986 273.708 11.986C273.362 11.986 273.101 11.8273 272.924 11.51C272.746 11.1833 272.658 10.6373 272.658 9.872C272.658 9.48 272.667 9.04133 272.686 8.556C272.704 8.07067 272.728 7.58533 272.756 7.1C272.793 6.60533 272.835 6.15733 272.882 5.756C272.975 5 273.11 4.40267 273.288 3.964C273.465 3.516 273.731 3.292 274.086 3.292ZM67.1924 29.07C66.6137 29.07 66.1331 28.9627 65.7504 28.748C65.3771 28.524 65.0971 28.1833 64.9104 27.726C64.7797 27.4087 64.6817 27.026 64.6164 26.578C64.5604 26.1207 64.5324 25.598 64.5324 25.01C64.5324 24.002 64.5651 23.1713 64.6304 22.518C64.6957 21.8553 64.7891 21.3233 64.9104 20.922C65.0411 20.5113 65.1857 20.18 65.3444 19.928C65.5964 19.5453 65.9977 19.2373 66.5484 19.004C67.0991 18.7707 67.8784 18.654 68.8864 18.654C69.5584 18.654 70.0951 18.7567 70.4964 18.962C70.9071 19.158 71.2011 19.4193 71.3784 19.746C71.5651 20.0727 71.6584 20.4367 71.6584 20.838C71.6584 21.4727 71.4717 21.9953 71.0984 22.406C70.7251 22.8167 70.2351 23.1433 69.6284 23.386V23.442C70.2911 23.5167 70.8044 23.7313 71.1684 24.086C71.5417 24.4313 71.7284 24.926 71.7284 25.57C71.7284 26.0833 71.5977 26.5547 71.3364 26.984C71.0844 27.404 70.7391 27.7727 70.3004 28.09C69.8711 28.398 69.3857 28.6407 68.8444 28.818C68.3031 28.986 67.7524 29.07 67.1924 29.07ZM67.6264 27.39C68.0744 27.39 68.4711 27.3153 68.8164 27.166C69.1711 27.0167 69.4464 26.816 69.6424 26.564C69.8477 26.3027 69.9504 26.0087 69.9504 25.682C69.9504 25.3273 69.7777 25.0333 69.4324 24.8C69.0964 24.5573 68.5691 24.436 67.8504 24.436C67.3651 24.436 66.9777 24.5527 66.6884 24.786C66.4084 25.01 66.2684 25.3973 66.2684 25.948C66.2684 26.4707 66.3804 26.844 66.6044 27.068C66.8284 27.2827 67.1691 27.39 67.6264 27.39ZM67.6824 22.952C68.3171 22.952 68.8444 22.812 69.2644 22.532C69.6937 22.2427 69.9084 21.8693 69.9084 21.412C69.9084 21.076 69.7731 20.8053 69.5024 20.6C69.2317 20.3947 68.8351 20.292 68.3124 20.292C67.7431 20.292 67.2764 20.404 66.9124 20.628C66.5484 20.852 66.3664 21.2347 66.3664 21.776C66.3664 22.2147 66.4831 22.5227 66.7164 22.7C66.9591 22.868 67.2811 22.952 67.6824 22.952ZM79.3988 29.14C79.0814 29.14 78.8621 29.0187 78.7408 28.776C78.6288 28.524 78.5634 28.1273 78.5448 27.586L78.6848 27.656C78.1621 28.6733 77.1728 29.182 75.7168 29.182C75.0541 29.182 74.5034 29.0653 74.0648 28.832C73.6261 28.5893 73.2994 28.272 73.0848 27.88C72.8794 27.4787 72.7768 27.0447 72.7768 26.578C72.7768 25.7753 73.0568 25.1407 73.6168 24.674C74.1768 24.198 74.9188 23.96 75.8428 23.96C76.4494 23.96 76.9768 24.0487 77.4248 24.226C77.8728 24.4033 78.2554 24.6507 78.5728 24.968L78.3348 24.94C78.2694 23.9973 78.0641 23.3253 77.7188 22.924C77.3828 22.5133 76.9021 22.308 76.2768 22.308C75.9128 22.308 75.5768 22.364 75.2688 22.476C74.9608 22.588 74.6761 22.7047 74.4148 22.826C74.1628 22.938 73.9248 22.994 73.7008 22.994C73.4768 22.994 73.2994 22.9193 73.1688 22.77C73.0474 22.6207 72.9868 22.4293 72.9868 22.196C72.9868 21.86 73.1454 21.5427 73.4628 21.244C73.7894 20.9453 74.2188 20.7027 74.7508 20.516C75.2828 20.3293 75.8614 20.236 76.4868 20.236C77.2428 20.236 77.8914 20.418 78.4328 20.782C78.9741 21.146 79.3848 21.678 79.6648 22.378C79.9074 22.9753 80.0801 23.6427 80.1828 24.38C80.2854 25.1173 80.3368 25.906 80.3368 26.746C80.3368 27.3807 80.3041 27.8707 80.2388 28.216C80.1734 28.5613 80.0708 28.804 79.9308 28.944C79.8001 29.0747 79.6228 29.14 79.3988 29.14ZM76.3048 27.572C76.6128 27.572 76.9254 27.53 77.2428 27.446C77.5601 27.3527 77.8261 27.2173 78.0408 27.04C78.2554 26.8627 78.3628 26.6433 78.3628 26.382C78.3628 26.158 78.2694 25.976 78.0828 25.836C77.9054 25.6867 77.6674 25.5747 77.3688 25.5C77.0794 25.4253 76.7668 25.388 76.4308 25.388C75.8614 25.388 75.4274 25.486 75.1288 25.682C74.8394 25.878 74.6948 26.1393 74.6948 26.466C74.6948 26.8207 74.8301 27.096 75.1008 27.292C75.3808 27.4787 75.7821 27.572 76.3048 27.572ZM83.4724 20.292C83.7711 20.292 83.9718 20.4133 84.0744 20.656C84.1864 20.8987 84.2424 21.258 84.2424 21.734C84.2424 21.846 84.2331 21.9673 84.2144 22.098C84.2051 22.2193 84.1864 22.3313 84.1584 22.434L84.1304 22.154C84.3544 21.5473 84.6998 21.076 85.1664 20.74C85.6331 20.3947 86.1278 20.222 86.6504 20.222C87.2291 20.222 87.7098 20.3853 88.0924 20.712C88.4844 21.0387 88.7738 21.496 88.9604 22.084C89.1564 22.672 89.2544 23.3673 89.2544 24.17C89.2544 24.6647 89.2311 25.1547 89.1844 25.64C89.1471 26.116 89.0911 26.5547 89.0164 26.956C88.9511 27.348 88.8764 27.67 88.7924 27.922C88.6804 28.2393 88.5358 28.4773 88.3584 28.636C88.1811 28.7853 87.9711 28.86 87.7284 28.86C87.4858 28.86 87.2991 28.7713 87.1684 28.594C87.0378 28.4167 86.9724 28.1787 86.9724 27.88C86.9724 27.5627 86.9958 27.18 87.0424 26.732C87.0891 26.2747 87.1311 25.8127 87.1684 25.346C87.2151 24.87 87.2384 24.4407 87.2384 24.058C87.2384 22.7513 86.8091 22.098 85.9504 22.098C85.4931 22.098 85.1104 22.3033 84.8024 22.714C84.4944 23.1153 84.2891 23.6893 84.1864 24.436C84.1584 24.688 84.1444 25.0007 84.1444 25.374C84.1444 25.7473 84.1444 26.1207 84.1444 26.494C84.1538 26.858 84.1444 27.166 84.1164 27.418C84.0791 27.978 83.9718 28.3793 83.7944 28.622C83.6264 28.8647 83.3931 28.986 83.0944 28.986C82.7491 28.986 82.4878 28.8273 82.3104 28.51C82.1331 28.1833 82.0444 27.6373 82.0444 26.872C82.0444 26.48 82.0538 26.0413 82.0724 25.556C82.0911 25.0707 82.1144 24.5853 82.1424 24.1C82.1798 23.6053 82.2218 23.1573 82.2684 22.756C82.3618 22 82.4971 21.4027 82.6744 20.964C82.8518 20.516 83.1178 20.292 83.4724 20.292ZM93.6325 28.776C92.7552 28.776 92.0412 28.44 91.4905 27.768C90.9398 27.0867 90.6645 26.0553 90.6645 24.674C90.6645 23.1993 90.9305 22.1213 91.4625 21.44C91.9945 20.7587 92.6945 20.418 93.5625 20.418C94.0758 20.418 94.5285 20.5487 94.9205 20.81C95.3125 21.0713 95.6485 21.44 95.9285 21.916L95.8165 22.112C95.7885 21.9813 95.7652 21.8413 95.7465 21.692C95.7278 21.5427 95.7185 21.4307 95.7185 21.356C95.7185 20.9733 95.7792 20.6793 95.9005 20.474C96.0312 20.2593 96.2318 20.152 96.5025 20.152C96.8012 20.152 97.0345 20.2733 97.2025 20.516C97.3798 20.7587 97.5152 21.104 97.6085 21.552C97.7298 22.0093 97.8325 22.5927 97.9165 23.302C98.0005 24.002 98.0425 24.7113 98.0425 25.43C98.0425 26.326 98.0098 27.0773 97.9445 27.684C97.8792 28.2907 97.7718 28.7947 97.6225 29.196C97.4732 29.5973 97.2772 29.9473 97.0345 30.246C96.6332 30.7313 96.1152 31.1 95.4805 31.352C94.8552 31.6133 94.1318 31.744 93.3105 31.744C92.7225 31.744 92.2512 31.688 91.8965 31.576C91.5418 31.4733 91.2852 31.3287 91.1265 31.142C90.9772 30.9647 90.9025 30.764 90.9025 30.54C90.9025 30.3067 90.9678 30.1107 91.0985 29.952C91.2292 29.8027 91.4252 29.728 91.6865 29.728C91.9198 29.728 92.1905 29.7653 92.4985 29.84C92.8158 29.9147 93.1892 29.952 93.6185 29.952C94.5238 29.952 95.1632 29.7373 95.5365 29.308C95.9192 28.888 96.1105 28.2813 96.1105 27.488C96.1105 27.2733 96.0965 27.0213 96.0685 26.732L96.2645 26.802C96.0312 27.3993 95.6858 27.88 95.2285 28.244C94.7712 28.5987 94.2392 28.776 93.6325 28.776ZM94.1645 27.054C94.4632 27.054 94.7618 26.9747 95.0605 26.816C95.3592 26.6573 95.6065 26.396 95.8025 26.032C95.9985 25.668 96.0965 25.178 96.0965 24.562C96.0965 23.8247 95.9238 23.2227 95.5785 22.756C95.2332 22.2893 94.7478 22.056 94.1225 22.056C93.5812 22.056 93.1845 22.2613 92.9325 22.672C92.6805 23.0827 92.5545 23.7033 92.5545 24.534C92.5545 25.3273 92.6805 25.948 92.9325 26.396C93.1845 26.8347 93.5952 27.054 94.1645 27.054ZM106.05 28.916C105.798 28.916 105.602 28.832 105.462 28.664C105.331 28.4867 105.242 28.2627 105.196 27.992C105.149 27.712 105.126 27.418 105.126 27.11L105.196 27.054C105.102 27.4553 104.92 27.8007 104.65 28.09C104.379 28.3793 104.066 28.6033 103.712 28.762C103.357 28.9113 103.002 28.986 102.648 28.986C102.172 28.986 101.738 28.874 101.346 28.65C100.954 28.426 100.65 28.0807 100.436 27.614C100.221 27.1193 100.053 26.4987 99.9315 25.752C99.8102 24.996 99.7495 24.2213 99.7495 23.428C99.7495 22.9987 99.7682 22.602 99.8055 22.238C99.8428 21.874 99.9035 21.5753 99.9875 21.342C100.062 21.0993 100.174 20.922 100.324 20.81C100.473 20.6887 100.664 20.628 100.898 20.628C101.168 20.628 101.378 20.7353 101.528 20.95C101.686 21.1553 101.784 21.4447 101.822 21.818C101.859 22.126 101.882 22.5087 101.892 22.966C101.91 23.414 101.924 23.8667 101.934 24.324C101.952 24.772 101.976 25.15 102.004 25.458C102.06 26.018 102.204 26.4333 102.438 26.704C102.671 26.9653 102.956 27.096 103.292 27.096C103.786 27.096 104.164 26.9093 104.426 26.536C104.687 26.1627 104.818 25.64 104.818 24.968C104.818 24.632 104.799 24.254 104.762 23.834C104.724 23.4047 104.682 22.9893 104.636 22.588C104.598 22.1867 104.58 21.8553 104.58 21.594C104.58 21.1553 104.654 20.8427 104.804 20.656C104.953 20.46 105.158 20.362 105.42 20.362C105.644 20.362 105.83 20.4227 105.98 20.544C106.138 20.6653 106.264 20.8333 106.358 21.048C106.488 21.328 106.6 21.7107 106.694 22.196C106.787 22.6813 106.862 23.232 106.918 23.848C106.974 24.464 107.002 25.1127 107.002 25.794C107.002 26.8393 106.932 27.6233 106.792 28.146C106.652 28.6593 106.404 28.916 106.05 28.916ZM110.133 20.292C110.431 20.292 110.632 20.4133 110.735 20.656C110.847 20.8987 110.903 21.258 110.903 21.734C110.903 21.846 110.893 21.9673 110.875 22.098C110.865 22.2193 110.847 22.3313 110.819 22.434L110.791 22.154C111.015 21.5473 111.36 21.076 111.827 20.74C112.293 20.3947 112.788 20.222 113.311 20.222C113.889 20.222 114.37 20.3853 114.753 20.712C115.145 21.0387 115.434 21.496 115.621 22.084C115.817 22.672 115.915 23.3673 115.915 24.17C115.915 24.6647 115.891 25.1547 115.845 25.64C115.807 26.116 115.751 26.5547 115.677 26.956C115.611 27.348 115.537 27.67 115.453 27.922C115.341 28.2393 115.196 28.4773 115.019 28.636C114.841 28.7853 114.631 28.86 114.389 28.86C114.146 28.86 113.959 28.7713 113.829 28.594C113.698 28.4167 113.633 28.1787 113.633 27.88C113.633 27.5627 113.656 27.18 113.703 26.732C113.749 26.2747 113.791 25.8127 113.829 25.346C113.875 24.87 113.899 24.4407 113.899 24.058C113.899 22.7513 113.469 22.098 112.611 22.098C112.153 22.098 111.771 22.3033 111.463 22.714C111.155 23.1153 110.949 23.6893 110.847 24.436C110.819 24.688 110.805 25.0007 110.805 25.374C110.805 25.7473 110.805 26.1207 110.805 26.494C110.814 26.858 110.805 27.166 110.777 27.418C110.739 27.978 110.632 28.3793 110.455 28.622C110.287 28.8647 110.053 28.986 109.755 28.986C109.409 28.986 109.148 28.8273 108.971 28.51C108.793 28.1833 108.705 27.6373 108.705 26.872C108.705 26.48 108.714 26.0413 108.733 25.556C108.751 25.0707 108.775 24.5853 108.803 24.1C108.84 23.6053 108.882 23.1573 108.929 22.756C109.022 22 109.157 21.4027 109.335 20.964C109.512 20.516 109.778 20.292 110.133 20.292ZM122.381 29.322C121.793 29.322 121.336 29.2847 121.009 29.21C120.692 29.1353 120.473 29.0327 120.351 28.902C120.23 28.762 120.165 28.608 120.155 28.44C120.155 28.1787 120.309 27.9593 120.617 27.782C120.935 27.6047 121.513 27.4927 122.353 27.446L122.129 27.712C122.027 27.236 121.952 26.6807 121.905 26.046C121.859 25.4113 121.84 24.7533 121.849 24.072C121.859 23.3907 121.891 22.742 121.947 22.126C122.003 21.5007 122.083 20.9687 122.185 20.53L123.403 20.446C123.198 20.53 122.941 20.6047 122.633 20.67C122.325 20.726 122.008 20.754 121.681 20.754C121.084 20.754 120.641 20.6887 120.351 20.558C120.071 20.4273 119.931 20.2453 119.931 20.012C119.931 19.6013 120.179 19.284 120.673 19.06C121.177 18.8267 121.947 18.71 122.983 18.71C124.215 18.71 125.251 18.9153 126.091 19.326C126.941 19.7273 127.585 20.292 128.023 21.02C128.462 21.7387 128.681 22.5787 128.681 23.54C128.681 24.38 128.532 25.1547 128.233 25.864C127.935 26.564 127.505 27.1753 126.945 27.698C126.395 28.2113 125.732 28.6127 124.957 28.902C124.192 29.182 123.333 29.322 122.381 29.322ZM124.369 27.166C124.687 27.166 125.023 27.04 125.377 26.788C125.741 26.5267 126.049 26.1487 126.301 25.654C126.553 25.15 126.679 24.5293 126.679 23.792C126.679 23.2507 126.6 22.7793 126.441 22.378C126.292 21.9673 126.096 21.6267 125.853 21.356C125.611 21.0853 125.354 20.8847 125.083 20.754C124.813 20.614 124.556 20.544 124.313 20.544C124.117 20.544 123.963 20.6653 123.851 20.908C123.749 21.1507 123.674 21.5147 123.627 22C123.581 22.476 123.557 23.0687 123.557 23.778C123.557 24.8793 123.613 25.7193 123.725 26.298C123.837 26.8767 124.052 27.166 124.369 27.166ZM136.342 29.14C136.025 29.14 135.805 29.0187 135.684 28.776C135.572 28.524 135.507 28.1273 135.488 27.586L135.628 27.656C135.105 28.6733 134.116 29.182 132.66 29.182C131.997 29.182 131.447 29.0653 131.008 28.832C130.569 28.5893 130.243 28.272 130.028 27.88C129.823 27.4787 129.72 27.0447 129.72 26.578C129.72 25.7753 130 25.1407 130.56 24.674C131.12 24.198 131.862 23.96 132.786 23.96C133.393 23.96 133.92 24.0487 134.368 24.226C134.816 24.4033 135.199 24.6507 135.516 24.968L135.278 24.94C135.213 23.9973 135.007 23.3253 134.662 22.924C134.326 22.5133 133.845 22.308 133.22 22.308C132.856 22.308 132.52 22.364 132.212 22.476C131.904 22.588 131.619 22.7047 131.358 22.826C131.106 22.938 130.868 22.994 130.644 22.994C130.42 22.994 130.243 22.9193 130.112 22.77C129.991 22.6207 129.93 22.4293 129.93 22.196C129.93 21.86 130.089 21.5427 130.406 21.244C130.733 20.9453 131.162 20.7027 131.694 20.516C132.226 20.3293 132.805 20.236 133.43 20.236C134.186 20.236 134.835 20.418 135.376 20.782C135.917 21.146 136.328 21.678 136.608 22.378C136.851 22.9753 137.023 23.6427 137.126 24.38C137.229 25.1173 137.28 25.906 137.28 26.746C137.28 27.3807 137.247 27.8707 137.182 28.216C137.117 28.5613 137.014 28.804 136.874 28.944C136.743 29.0747 136.566 29.14 136.342 29.14ZM133.248 27.572C133.556 27.572 133.869 27.53 134.186 27.446C134.503 27.3527 134.769 27.2173 134.984 27.04C135.199 26.8627 135.306 26.6433 135.306 26.382C135.306 26.158 135.213 25.976 135.026 25.836C134.849 25.6867 134.611 25.5747 134.312 25.5C134.023 25.4253 133.71 25.388 133.374 25.388C132.805 25.388 132.371 25.486 132.072 25.682C131.783 25.878 131.638 26.1393 131.638 26.466C131.638 26.8207 131.773 27.096 132.044 27.292C132.324 27.4787 132.725 27.572 133.248 27.572ZM140.93 20.572H140.65C140.622 20.1613 140.631 19.774 140.678 19.41C140.725 19.0367 140.823 18.738 140.972 18.514C141.131 18.2807 141.355 18.164 141.644 18.164C141.905 18.164 142.097 18.248 142.218 18.416C142.339 18.584 142.4 18.8173 142.4 19.116C142.4 19.704 142.288 20.208 142.064 20.628L141.812 20.6C142.316 20.4227 142.885 20.334 143.52 20.334C143.921 20.334 144.239 20.4133 144.472 20.572C144.715 20.7213 144.836 20.978 144.836 21.342C144.836 21.6873 144.696 21.9487 144.416 22.126C144.136 22.3033 143.786 22.392 143.366 22.392C143.114 22.392 142.843 22.3827 142.554 22.364C142.274 22.336 141.999 22.294 141.728 22.238L141.966 21.944C142.05 22.2987 142.129 22.7047 142.204 23.162C142.288 23.61 142.363 24.0767 142.428 24.562C142.493 25.0473 142.545 25.5187 142.582 25.976C142.619 26.4333 142.638 26.844 142.638 27.208C142.638 27.8053 142.545 28.2767 142.358 28.622C142.171 28.9673 141.896 29.14 141.532 29.14C141.243 29.14 141.014 29.0513 140.846 28.874C140.687 28.6967 140.571 28.4727 140.496 28.202C140.431 27.922 140.389 27.6327 140.37 27.334C140.361 27.0353 140.356 26.7647 140.356 26.522C140.356 26.1113 140.375 25.6493 140.412 25.136C140.449 24.6133 140.501 24.0767 140.566 23.526C140.641 22.9753 140.725 22.4433 140.818 21.93L141.098 22.168C140.622 22.4107 140.034 22.532 139.334 22.532C138.905 22.532 138.573 22.4527 138.34 22.294C138.107 22.1353 137.99 21.888 137.99 21.552C137.99 21.188 138.121 20.908 138.382 20.712C138.643 20.5067 138.993 20.404 139.432 20.404C139.721 20.404 139.992 20.4227 140.244 20.46C140.505 20.488 140.734 20.5253 140.93 20.572ZM152.092 29.14C151.775 29.14 151.555 29.0187 151.434 28.776C151.322 28.524 151.257 28.1273 151.238 27.586L151.378 27.656C150.855 28.6733 149.866 29.182 148.41 29.182C147.747 29.182 147.197 29.0653 146.758 28.832C146.319 28.5893 145.993 28.272 145.778 27.88C145.573 27.4787 145.47 27.0447 145.47 26.578C145.47 25.7753 145.75 25.1407 146.31 24.674C146.87 24.198 147.612 23.96 148.536 23.96C149.143 23.96 149.67 24.0487 150.118 24.226C150.566 24.4033 150.949 24.6507 151.266 24.968L151.028 24.94C150.963 23.9973 150.757 23.3253 150.412 22.924C150.076 22.5133 149.595 22.308 148.97 22.308C148.606 22.308 148.27 22.364 147.962 22.476C147.654 22.588 147.369 22.7047 147.108 22.826C146.856 22.938 146.618 22.994 146.394 22.994C146.17 22.994 145.993 22.9193 145.862 22.77C145.741 22.6207 145.68 22.4293 145.68 22.196C145.68 21.86 145.839 21.5427 146.156 21.244C146.483 20.9453 146.912 20.7027 147.444 20.516C147.976 20.3293 148.555 20.236 149.18 20.236C149.936 20.236 150.585 20.418 151.126 20.782C151.667 21.146 152.078 21.678 152.358 22.378C152.601 22.9753 152.773 23.6427 152.876 24.38C152.979 25.1173 153.03 25.906 153.03 26.746C153.03 27.3807 152.997 27.8707 152.932 28.216C152.867 28.5613 152.764 28.804 152.624 28.944C152.493 29.0747 152.316 29.14 152.092 29.14ZM148.998 27.572C149.306 27.572 149.619 27.53 149.936 27.446C150.253 27.3527 150.519 27.2173 150.734 27.04C150.949 26.8627 151.056 26.6433 151.056 26.382C151.056 26.158 150.963 25.976 150.776 25.836C150.599 25.6867 150.361 25.5747 150.062 25.5C149.773 25.4253 149.46 25.388 149.124 25.388C148.555 25.388 148.121 25.486 147.822 25.682C147.533 25.878 147.388 26.1393 147.388 26.466C147.388 26.8207 147.523 27.096 147.794 27.292C148.074 27.4787 148.475 27.572 148.998 27.572ZM154.738 22.686C154.738 21.79 154.822 21.146 154.99 20.754C155.158 20.3527 155.396 20.152 155.704 20.152C155.946 20.152 156.138 20.2547 156.278 20.46C156.418 20.656 156.52 20.9033 156.586 21.202C156.651 21.4913 156.684 21.7853 156.684 22.084L156.614 22.056C156.772 21.552 157.015 21.118 157.342 20.754C157.678 20.39 158.079 20.208 158.546 20.208C159.096 20.208 159.502 20.4367 159.764 20.894C160.025 21.342 160.156 21.902 160.156 22.574C160.156 23.47 160.053 24.0953 159.848 24.45C159.642 24.8047 159.367 24.982 159.022 24.982C158.77 24.982 158.583 24.8793 158.462 24.674C158.35 24.4687 158.312 24.1047 158.35 23.582C158.387 23.0313 158.354 22.6487 158.252 22.434C158.149 22.2193 157.986 22.112 157.762 22.112C157.491 22.112 157.267 22.2847 157.09 22.63C156.922 22.966 156.838 23.3813 156.838 23.876C156.838 24.072 156.861 24.3193 156.908 24.618C156.954 24.9167 157.006 25.2433 157.062 25.598C157.118 25.9433 157.169 26.2887 157.216 26.634C157.262 26.9793 157.286 27.2967 157.286 27.586C157.286 28.0993 157.206 28.468 157.048 28.692C156.889 28.916 156.665 29.028 156.376 29.028C156.049 29.028 155.797 28.9253 155.62 28.72C155.442 28.5053 155.307 28.16 155.214 27.684C155.139 27.2547 155.064 26.746 154.99 26.158C154.915 25.57 154.854 24.968 154.808 24.352C154.761 23.736 154.738 23.1807 154.738 22.686ZM166.929 29.07C166.35 29.07 165.869 28.9627 165.487 28.748C165.113 28.524 164.833 28.1833 164.647 27.726C164.516 27.4087 164.418 27.026 164.353 26.578C164.297 26.1207 164.269 25.598 164.269 25.01C164.269 24.002 164.301 23.1713 164.367 22.518C164.432 21.8553 164.525 21.3233 164.647 20.922C164.777 20.5113 164.922 20.18 165.081 19.928C165.333 19.5453 165.734 19.2373 166.285 19.004C166.835 18.7707 167.615 18.654 168.623 18.654C169.295 18.654 169.831 18.7567 170.233 18.962C170.643 19.158 170.937 19.4193 171.115 19.746C171.301 20.0727 171.395 20.4367 171.395 20.838C171.395 21.4727 171.208 21.9953 170.835 22.406C170.461 22.8167 169.971 23.1433 169.365 23.386V23.442C170.027 23.5167 170.541 23.7313 170.905 24.086C171.278 24.4313 171.465 24.926 171.465 25.57C171.465 26.0833 171.334 26.5547 171.073 26.984C170.821 27.404 170.475 27.7727 170.037 28.09C169.607 28.398 169.122 28.6407 168.581 28.818C168.039 28.986 167.489 29.07 166.929 29.07ZM167.363 27.39C167.811 27.39 168.207 27.3153 168.553 27.166C168.907 27.0167 169.183 26.816 169.379 26.564C169.584 26.3027 169.687 26.0087 169.687 25.682C169.687 25.3273 169.514 25.0333 169.169 24.8C168.833 24.5573 168.305 24.436 167.587 24.436C167.101 24.436 166.714 24.5527 166.425 24.786C166.145 25.01 166.005 25.3973 166.005 25.948C166.005 26.4707 166.117 26.844 166.341 27.068C166.565 27.2827 166.905 27.39 167.363 27.39ZM167.419 22.952C168.053 22.952 168.581 22.812 169.001 22.532C169.43 22.2427 169.645 21.8693 169.645 21.412C169.645 21.076 169.509 20.8053 169.239 20.6C168.968 20.3947 168.571 20.292 168.049 20.292C167.479 20.292 167.013 20.404 166.649 20.628C166.285 20.852 166.103 21.2347 166.103 21.776C166.103 22.2147 166.219 22.5227 166.453 22.7C166.695 22.868 167.017 22.952 167.419 22.952ZM176.937 29.112C175.901 29.112 175.075 28.958 174.459 28.65C173.843 28.342 173.4 27.8987 173.129 27.32C172.858 26.7413 172.723 26.0507 172.723 25.248C172.723 24.2307 172.91 23.3673 173.283 22.658C173.666 21.9393 174.188 21.3887 174.851 21.006C175.523 20.6233 176.284 20.432 177.133 20.432C178.132 20.432 178.864 20.6653 179.331 21.132C179.798 21.5893 180.031 22.1913 180.031 22.938C180.031 23.5353 179.872 24.0533 179.555 24.492C179.247 24.9213 178.818 25.2527 178.267 25.486C177.716 25.7193 177.082 25.836 176.363 25.836C175.962 25.836 175.574 25.7847 175.201 25.682C174.828 25.5793 174.492 25.4393 174.193 25.262L174.529 24.646C174.501 24.87 174.487 25.094 174.487 25.318C174.487 25.9713 174.692 26.4427 175.103 26.732C175.514 27.012 176.097 27.152 176.853 27.152C177.441 27.152 177.912 27.1007 178.267 26.998C178.622 26.8953 178.92 26.7973 179.163 26.704C179.406 26.6013 179.644 26.55 179.877 26.55C180.008 26.55 180.124 26.5873 180.227 26.662C180.339 26.7273 180.428 26.8253 180.493 26.956C180.568 27.0867 180.605 27.2453 180.605 27.432C180.605 27.712 180.465 27.9827 180.185 28.244C179.905 28.496 179.49 28.706 178.939 28.874C178.398 29.0327 177.73 29.112 176.937 29.112ZM176.125 24.534C176.788 24.534 177.32 24.394 177.721 24.114C178.122 23.834 178.323 23.4887 178.323 23.078C178.323 22.7513 178.211 22.4853 177.987 22.28C177.772 22.0653 177.432 21.958 176.965 21.958C176.526 21.958 176.13 22.042 175.775 22.21C175.43 22.3687 175.159 22.5787 174.963 22.84C174.767 23.1013 174.669 23.386 174.669 23.694C174.669 23.9647 174.795 24.1747 175.047 24.324C175.308 24.464 175.668 24.534 176.125 24.534ZM181.835 22.686C181.835 21.79 181.919 21.146 182.087 20.754C182.255 20.3527 182.493 20.152 182.801 20.152C183.044 20.152 183.235 20.2547 183.375 20.46C183.515 20.656 183.618 20.9033 183.683 21.202C183.749 21.4913 183.781 21.7853 183.781 22.084L183.711 22.056C183.87 21.552 184.113 21.118 184.439 20.754C184.775 20.39 185.177 20.208 185.643 20.208C186.194 20.208 186.6 20.4367 186.861 20.894C187.123 21.342 187.253 21.902 187.253 22.574C187.253 23.47 187.151 24.0953 186.945 24.45C186.74 24.8047 186.465 24.982 186.119 24.982C185.867 24.982 185.681 24.8793 185.559 24.674C185.447 24.4687 185.41 24.1047 185.447 23.582C185.485 23.0313 185.452 22.6487 185.349 22.434C185.247 22.2193 185.083 22.112 184.859 22.112C184.589 22.112 184.365 22.2847 184.187 22.63C184.019 22.966 183.935 23.3813 183.935 23.876C183.935 24.072 183.959 24.3193 184.005 24.618C184.052 24.9167 184.103 25.2433 184.159 25.598C184.215 25.9433 184.267 26.2887 184.313 26.634C184.36 26.9793 184.383 27.2967 184.383 27.586C184.383 28.0993 184.304 28.468 184.145 28.692C183.987 28.916 183.763 29.028 183.473 29.028C183.147 29.028 182.895 28.9253 182.717 28.72C182.54 28.5053 182.405 28.16 182.311 27.684C182.237 27.2547 182.162 26.746 182.087 26.158C182.013 25.57 181.952 24.968 181.905 24.352C181.859 23.736 181.835 23.1807 181.835 22.686ZM189.726 18.262C190.099 18.262 190.365 18.3647 190.524 18.57C190.692 18.7753 190.776 19.0133 190.776 19.284C190.776 19.62 190.673 19.8813 190.468 20.068C190.272 20.2453 189.992 20.334 189.628 20.334C189.273 20.334 189.007 20.236 188.83 20.04C188.652 19.8347 188.564 19.5967 188.564 19.326C188.564 18.9713 188.671 18.7053 188.886 18.528C189.1 18.3507 189.38 18.262 189.726 18.262ZM189.81 21.384C190.108 21.384 190.342 21.664 190.51 22.224C190.687 22.784 190.776 23.6753 190.776 24.898C190.776 26.4007 190.668 27.4833 190.454 28.146C190.239 28.8087 189.912 29.14 189.474 29.14C189.138 29.14 188.89 28.8973 188.732 28.412C188.573 27.9173 188.494 27.0587 188.494 25.836C188.494 24.3333 188.615 23.218 188.858 22.49C189.11 21.7527 189.427 21.384 189.81 21.384ZM193.438 29.14C193.261 29.14 193.116 29.0887 193.004 28.986C192.892 28.874 192.813 28.7153 192.766 28.51C192.691 28.1647 192.626 27.6653 192.57 27.012C192.514 26.3587 192.486 25.6353 192.486 24.842C192.486 23.862 192.519 22.9193 192.584 22.014C192.659 21.1087 192.752 20.3667 192.864 19.788C192.985 19.1627 193.135 18.7053 193.312 18.416C193.489 18.1173 193.723 17.968 194.012 17.968C194.273 17.968 194.474 18.0893 194.614 18.332C194.754 18.5653 194.824 18.9713 194.824 19.55C194.824 20.1287 194.801 20.7493 194.754 21.412C194.717 22.0747 194.651 22.784 194.558 23.54H194.614C195.221 22.7187 195.785 22.0607 196.308 21.566C196.84 21.0713 197.325 20.712 197.764 20.488C198.212 20.264 198.609 20.152 198.954 20.152C199.225 20.152 199.425 20.236 199.556 20.404C199.687 20.572 199.752 20.7773 199.752 21.02C199.752 21.496 199.369 22.028 198.604 22.616C197.848 23.204 196.756 23.806 195.328 24.422L195.342 24.198C196.229 24.6553 196.989 25.136 197.624 25.64C198.268 26.1347 198.758 26.606 199.094 27.054C199.439 27.4927 199.612 27.8613 199.612 28.16C199.612 28.4027 199.533 28.6033 199.374 28.762C199.225 28.9113 199.005 28.986 198.716 28.986C198.352 28.986 197.946 28.8507 197.498 28.58C197.059 28.3 196.602 27.8847 196.126 27.334C195.65 26.7833 195.174 26.0927 194.698 25.262H194.642C194.633 25.85 194.595 26.424 194.53 26.984C194.474 27.5347 194.399 27.9873 194.306 28.342C194.241 28.5847 194.138 28.7807 193.998 28.93C193.867 29.07 193.681 29.14 193.438 29.14ZM207.18 28.916C206.928 28.916 206.732 28.832 206.592 28.664C206.462 28.4867 206.373 28.2627 206.326 27.992C206.28 27.712 206.256 27.418 206.256 27.11L206.326 27.054C206.233 27.4553 206.051 27.8007 205.78 28.09C205.51 28.3793 205.197 28.6033 204.842 28.762C204.488 28.9113 204.133 28.986 203.778 28.986C203.302 28.986 202.868 28.874 202.476 28.65C202.084 28.426 201.781 28.0807 201.566 27.614C201.352 27.1193 201.184 26.4987 201.062 25.752C200.941 24.996 200.88 24.2213 200.88 23.428C200.88 22.9987 200.899 22.602 200.936 22.238C200.974 21.874 201.034 21.5753 201.118 21.342C201.193 21.0993 201.305 20.922 201.454 20.81C201.604 20.6887 201.795 20.628 202.028 20.628C202.299 20.628 202.509 20.7353 202.658 20.95C202.817 21.1553 202.915 21.4447 202.952 21.818C202.99 22.126 203.013 22.5087 203.022 22.966C203.041 23.414 203.055 23.8667 203.064 24.324C203.083 24.772 203.106 25.15 203.134 25.458C203.19 26.018 203.335 26.4333 203.568 26.704C203.802 26.9653 204.086 27.096 204.422 27.096C204.917 27.096 205.295 26.9093 205.556 26.536C205.818 26.1627 205.948 25.64 205.948 24.968C205.948 24.632 205.93 24.254 205.892 23.834C205.855 23.4047 205.813 22.9893 205.766 22.588C205.729 22.1867 205.71 21.8553 205.71 21.594C205.71 21.1553 205.785 20.8427 205.934 20.656C206.084 20.46 206.289 20.362 206.55 20.362C206.774 20.362 206.961 20.4227 207.11 20.544C207.269 20.6653 207.395 20.8333 207.488 21.048C207.619 21.328 207.731 21.7107 207.824 22.196C207.918 22.6813 207.992 23.232 208.048 23.848C208.104 24.464 208.132 25.1127 208.132 25.794C208.132 26.8393 208.062 27.6233 207.922 28.146C207.782 28.6593 207.535 28.916 207.18 28.916ZM212.201 20.572H211.921C211.893 20.1613 211.903 19.774 211.949 19.41C211.996 19.0367 212.094 18.738 212.243 18.514C212.402 18.2807 212.626 18.164 212.915 18.164C213.177 18.164 213.368 18.248 213.489 18.416C213.611 18.584 213.671 18.8173 213.671 19.116C213.671 19.704 213.559 20.208 213.335 20.628L213.083 20.6C213.587 20.4227 214.157 20.334 214.791 20.334C215.193 20.334 215.51 20.4133 215.743 20.572C215.986 20.7213 216.107 20.978 216.107 21.342C216.107 21.6873 215.967 21.9487 215.687 22.126C215.407 22.3033 215.057 22.392 214.637 22.392C214.385 22.392 214.115 22.3827 213.825 22.364C213.545 22.336 213.27 22.294 212.999 22.238L213.237 21.944C213.321 22.2987 213.401 22.7047 213.475 23.162C213.559 23.61 213.634 24.0767 213.699 24.562C213.765 25.0473 213.816 25.5187 213.853 25.976C213.891 26.4333 213.909 26.844 213.909 27.208C213.909 27.8053 213.816 28.2767 213.629 28.622C213.443 28.9673 213.167 29.14 212.803 29.14C212.514 29.14 212.285 29.0513 212.117 28.874C211.959 28.6967 211.842 28.4727 211.767 28.202C211.702 27.922 211.66 27.6327 211.641 27.334C211.632 27.0353 211.627 26.7647 211.627 26.522C211.627 26.1113 211.646 25.6493 211.683 25.136C211.721 24.6133 211.772 24.0767 211.837 23.526C211.912 22.9753 211.996 22.4433 212.089 21.93L212.369 22.168C211.893 22.4107 211.305 22.532 210.605 22.532C210.176 22.532 209.845 22.4527 209.611 22.294C209.378 22.1353 209.261 21.888 209.261 21.552C209.261 21.188 209.392 20.908 209.653 20.712C209.915 20.5067 210.265 20.404 210.703 20.404C210.993 20.404 211.263 20.4227 211.515 20.46C211.777 20.488 212.005 20.5253 212.201 20.572Z" fill="black"/>
</svg>
