<svg version="1.1" xmlns="http://www.w3.org/2000/svg" xmlns:xlink="http://www.w3.org/1999/xlink" width="74.72414" height="18.24194" viewBox="0,0,74.72414,18.24194"><g transform="translate(-202.63793,-170.87903)"><g stroke-miterlimit="10"><path d="M208.78615,171.37903h62.4277c3.1196,0 5.64822,2.52879 5.64822,5.64822v5.94549c0,3.11942 -2.52862,5.64822 -5.64822,5.64822h-62.4277c-3.11942,0 -5.64822,-2.5288 -5.64822,-5.64822v-5.94549c0,-3.11942 2.5288,-5.64822 5.64822,-5.64822z" fill="#a5a7a9" stroke="#000000"/><path d="M214.9873,177.75726c0.47166,0 0.81852,0.12087 1.04046,0.36268c0.22593,0.2418 0.33889,0.55888 0.33889,0.95128c0,0.26951 -0.06344,0.50341 -0.19026,0.70157c-0.12289,0.19816 -0.29133,0.35275 -0.50537,0.46375c-0.21404,0.10702 -0.45584,0.16053 -0.72535,0.16053c-0.12682,0 -0.2616,-0.01385 -0.40429,-0.04162c-0.13871,-0.02777 -0.28342,-0.08127 -0.43402,-0.16053l0.02973,-0.07729c0.03169,0.09911 0.05749,0.22195 0.07729,0.36862c0.02378,0.14269 0.04162,0.29133 0.05351,0.44591c0.01587,0.1506 0.02378,0.28937 0.02378,0.41618c0,0.23384 -0.03966,0.41422 -0.11891,0.54104c-0.07533,0.12289 -0.18829,0.18431 -0.33889,0.18431c-0.12682,0 -0.22789,-0.03966 -0.30322,-0.11891c-0.07135,-0.07925 -0.12087,-0.21005 -0.14864,-0.3924c-0.02777,-0.18235 -0.04162,-0.42611 -0.04162,-0.7313c0,-0.58664 0.02574,-1.08606 0.07729,-1.49826c0.05547,-0.41618 0.14864,-0.74319 0.27944,-0.98101c0.10304,-0.18235 0.2616,-0.327 0.47564,-0.43402c0.21802,-0.10702 0.48949,-0.16053 0.81453,-0.16053zM214.87434,179.6955c0.23782,0 0.43004,-0.06344 0.57671,-0.19026c0.1506,-0.12682 0.22593,-0.31113 0.22593,-0.55293c0,-0.15857 -0.05351,-0.28937 -0.16053,-0.3924c-0.10304,-0.10702 -0.26559,-0.16053 -0.48753,-0.16053c-0.16249,0 -0.30322,0.03763 -0.42213,0.11296c-0.11891,0.07135 -0.21005,0.17242 -0.27349,0.30322c-0.05945,0.12682 -0.08918,0.27349 -0.08918,0.43997c0,0.15458 0.04953,0.26755 0.14864,0.33889c0.10304,0.06736 0.26356,0.10107 0.48159,0.10107zM218.54039,182.07964c-0.43997,0 -0.79075,-0.0654 -1.05235,-0.1962c-0.2616,-0.1308 -0.4499,-0.31909 -0.56482,-0.56482c-0.11493,-0.24573 -0.17242,-0.53908 -0.17242,-0.87993c0,-0.43206 0.07925,-0.79866 0.23782,-1.09992c0.16249,-0.30518 0.3845,-0.53908 0.6659,-0.70157c0.28538,-0.16249 0.6084,-0.24377 0.96912,-0.24377c0.42409,0 0.73528,0.09911 0.93344,0.29727c0.19816,0.19424 0.29727,0.4499 0.29727,0.76697c0,0.25369 -0.06736,0.47368 -0.20215,0.65995c-0.1308,0.18235 -0.31315,0.32302 -0.54699,0.42213c-0.23384,0.09911 -0.50341,0.14864 -0.80859,0.14864c-0.17046,0 -0.33491,-0.02182 -0.49348,-0.0654c-0.15857,-0.04358 -0.30126,-0.10304 -0.42808,-0.17836l0.14269,-0.2616c-0.01189,0.09513 -0.01784,0.19026 -0.01784,0.28538c0,0.27748 0.08722,0.4776 0.2616,0.60049c0.17438,0.11891 0.42213,0.17836 0.74319,0.17836c0.24971,0 0.4499,-0.02182 0.60049,-0.0654c0.1506,-0.04358 0.27748,-0.0852 0.38051,-0.12486c0.10304,-0.04358 0.20411,-0.0654 0.30322,-0.0654c0.05547,0 0.10506,0.01587 0.14864,0.04756c0.04756,0.02777 0.0852,0.06938 0.11296,0.12486c0.03169,0.05547 0.04756,0.12289 0.04756,0.20215c0,0.11891 -0.05945,0.23384 -0.17836,0.34484c-0.11891,0.10702 -0.29531,0.1962 -0.52915,0.26755c-0.22991,0.06736 -0.51327,0.10107 -0.85021,0.10107zM218.19555,180.13546c0.2814,0 0.50733,-0.05945 0.67779,-0.17836c0.17046,-0.11891 0.25566,-0.26559 0.25566,-0.43997c0,-0.13871 -0.04756,-0.25167 -0.14269,-0.33889c-0.09114,-0.09114 -0.23586,-0.13675 -0.43402,-0.13675c-0.18627,0 -0.35477,0.03567 -0.50537,0.10702c-0.14668,0.06736 -0.2616,0.15654 -0.34484,0.26755c-0.08324,0.111 -0.12486,0.23187 -0.12486,0.36268c0,0.11493 0.05351,0.20411 0.16053,0.26755c0.111,0.05945 0.26356,0.08918 0.4578,0.08918zM220.6206,179.35066c0,-0.38051 0.03567,-0.654 0.10702,-0.82048c0.07135,-0.17046 0.17242,-0.25566 0.30322,-0.25566c0.10309,0 0.18431,0.04358 0.24377,0.1308c0.05945,0.08324 0.10309,0.18829 0.1308,0.31511c0.02777,0.12289 0.04162,0.24775 0.04162,0.37457l-0.02973,-0.01189c0.06742,-0.21404 0.17046,-0.39835 0.30917,-0.55293c0.14269,-0.15458 0.31315,-0.23187 0.51131,-0.23187c0.2339,0 0.40632,0.09709 0.51726,0.29133c0.111,0.19026 0.16647,0.42808 0.16647,0.71346c0,0.38051 -0.04358,0.6461 -0.1308,0.7967c-0.08716,0.1506 -0.20411,0.22593 -0.35078,0.22593c-0.10702,0 -0.18627,-0.04358 -0.23782,-0.1308c-0.04756,-0.08722 -0.06338,-0.2418 -0.04756,-0.46375c0.01587,-0.23384 0.00202,-0.39639 -0.04162,-0.48753c-0.04358,-0.09114 -0.11296,-0.13675 -0.20809,-0.13675c-0.11493,0 -0.21005,0.07331 -0.28538,0.21998c-0.07135,0.14269 -0.10702,0.31909 -0.10702,0.52915c0,0.08324 0.00993,0.18829 0.02973,0.31511c0.01986,0.12682 0.04162,0.26559 0.0654,0.41618c0.02378,0.14668 0.0456,0.29329 0.0654,0.43997c0.01986,0.14668 0.02973,0.2814 0.02973,0.40429c0,0.21802 -0.03365,0.37457 -0.10107,0.46969c-0.06736,0.09513 -0.16249,0.14269 -0.28538,0.14269c-0.13871,0 -0.24573,-0.04358 -0.32106,-0.1308c-0.07527,-0.09114 -0.13276,-0.23782 -0.17242,-0.43997c-0.03169,-0.18235 -0.06338,-0.39835 -0.09513,-0.64806c-0.03169,-0.24971 -0.05743,-0.50537 -0.07729,-0.76697c-0.0198,-0.2616 -0.02973,-0.49746 -0.02973,-0.70751zM223.90008,182.09153c-0.08722,0 -0.15857,-0.02973 -0.21404,-0.08918c-0.05155,-0.05945 -0.09317,-0.14465 -0.12486,-0.25566c-0.03175,-0.16249 -0.05945,-0.37457 -0.08324,-0.63617c-0.01986,-0.26559 -0.02973,-0.54895 -0.02973,-0.85021c0,-0.17046 0.00392,-0.36268 0.01189,-0.57671c0.00791,-0.21404 0.01784,-0.43004 0.02973,-0.64806c0.01582,-0.22195 0.03169,-0.42808 0.04756,-0.61833c0.0198,-0.19026 0.0396,-0.34484 0.05945,-0.46375c0.03169,-0.17438 0.07729,-0.31113 0.13675,-0.41024c0.06338,-0.10304 0.16249,-0.15458 0.29727,-0.15458c0.13871,0 0.23978,0.05351 0.30322,0.16053c0.06338,0.10304 0.09513,0.23187 0.09513,0.38646c0,0.17438 -0.01391,0.38051 -0.04162,0.61833c-0.02378,0.23782 -0.06148,0.47962 -0.11296,0.72535l-0.11891,0.14269c0.04358,-0.16647 0.11493,-0.31909 0.21404,-0.4578c0.09905,-0.13871 0.22391,-0.24775 0.37457,-0.327c0.1506,-0.08324 0.32498,-0.12486 0.5232,-0.12486c0.38842,0 0.69758,0.13871 0.9275,0.41618c0.23384,0.27349 0.35078,0.70157 0.35078,1.28423c0,0.40828 -0.06148,0.74913 -0.18431,1.02263c-0.11891,0.27349 -0.28342,0.47962 -0.49348,0.61833c-0.20613,0.13478 -0.44199,0.20215 -0.70751,0.20215c-0.24971,0 -0.46577,-0.07331 -0.64806,-0.21998c-0.17836,-0.14668 -0.29335,-0.35869 -0.34484,-0.63617l0.08324,0.0654c-0.01587,0.28538 -0.05553,0.49544 -0.11891,0.63022c-0.05945,0.1308 -0.13675,0.1962 -0.23187,0.1962zM224.9881,181.36618c0.19816,0 0.37254,-0.08918 0.5232,-0.26755c0.1506,-0.17836 0.22593,-0.4578 0.22593,-0.83831c0,-0.31707 -0.05945,-0.57475 -0.17836,-0.77291c-0.11499,-0.19816 -0.30917,-0.29727 -0.58266,-0.29727c-0.222,0 -0.40037,0.08918 -0.53509,0.26755c-0.13478,0.17438 -0.20215,0.43997 -0.20215,0.7967c0,0.32504 0.06736,0.59259 0.20215,0.80264c0.13472,0.20613 0.31707,0.30917 0.54699,0.30917zM229.74491,182.09153c-0.13478,0 -0.22789,-0.05155 -0.27944,-0.15458c-0.04756,-0.10702 -0.07533,-0.27545 -0.08324,-0.50537l0.05945,0.02973c-0.22195,0.43206 -0.64211,0.64806 -1.26044,0.64806c-0.2814,0 -0.5153,-0.04953 -0.70157,-0.14864c-0.18627,-0.10304 -0.32504,-0.23782 -0.41618,-0.40429c-0.08722,-0.17046 -0.1308,-0.35477 -0.1308,-0.55293c0,-0.34086 0.11891,-0.61042 0.35673,-0.80859c0.23782,-0.20215 0.55293,-0.30322 0.94533,-0.30322c0.25762,0 0.48159,0.03763 0.67184,0.11296c0.19026,0.07533 0.35275,0.18033 0.48753,0.31511l-0.10107,-0.01189c-0.02777,-0.40031 -0.11493,-0.68569 -0.2616,-0.85615c-0.14269,-0.17438 -0.3468,-0.2616 -0.61239,-0.2616c-0.15458,0 -0.29727,0.02378 -0.42808,0.07135c-0.1308,0.04756 -0.25167,0.09709 -0.36268,0.14864c-0.10702,0.04756 -0.20809,0.07135 -0.30322,0.07135c-0.09513,0 -0.17046,-0.03169 -0.22593,-0.09513c-0.05155,-0.06344 -0.07729,-0.14465 -0.07729,-0.24377c0,-0.14269 0.06736,-0.27748 0.20215,-0.40429c0.13871,-0.12682 0.32106,-0.22991 0.54699,-0.30917c0.22593,-0.07925 0.47166,-0.11891 0.73724,-0.11891c0.32106,0 0.59651,0.07729 0.82642,0.23187c0.22991,0.15458 0.40429,0.38051 0.5232,0.67779c0.10304,0.25369 0.1764,0.53706 0.21998,0.85021c0.04358,0.31315 0.0654,0.64806 0.0654,1.00479c0,0.26951 -0.01385,0.4776 -0.04162,0.62428c-0.02777,0.14668 -0.07135,0.24971 -0.1308,0.30917c-0.05547,0.05547 -0.1308,0.08324 -0.22593,0.08324zM228.43096,181.42563c0.1308,0 0.26356,-0.01784 0.39835,-0.05351c0.13478,-0.03966 0.24775,-0.09709 0.33889,-0.17242c0.09114,-0.07533 0.13675,-0.16844 0.13675,-0.27944c0,-0.09513 -0.03966,-0.17242 -0.11891,-0.23187c-0.07533,-0.06344 -0.1764,-0.111 -0.30322,-0.14269c-0.12289,-0.03169 -0.25566,-0.04756 -0.39835,-0.04756c-0.2418,0 -0.42611,0.04162 -0.55293,0.12486c-0.12289,0.08324 -0.18431,0.19424 -0.18431,0.33295c0,0.1506 0.05749,0.26755 0.17242,0.35078c0.11891,0.07925 0.28937,0.11891 0.51131,0.11891zM231.3917,177.47188c0.15851,0 0.27147,0.04358 0.33889,0.1308c0.07135,0.08722 0.10702,0.18829 0.10702,0.30322c0,0.14269 -0.04364,0.25369 -0.1308,0.33295c-0.08324,0.07533 -0.20215,0.11296 -0.35673,0.11296c-0.15066,0 -0.26362,-0.04162 -0.33889,-0.12486c-0.07533,-0.08722 -0.11302,-0.18829 -0.11302,-0.30322c0,-0.1506 0.0456,-0.26356 0.13681,-0.33889c0.09114,-0.07533 0.21005,-0.11296 0.35673,-0.11296zM231.42737,178.79773c0.12682,0 0.22593,0.11891 0.29727,0.35673c0.07527,0.23782 0.11296,0.61637 0.11296,1.13559c0,0.63813 -0.0456,1.09795 -0.13675,1.37935c-0.0912,0.2814 -0.22991,0.42213 -0.41618,0.42213c-0.14269,0 -0.24775,-0.10304 -0.31511,-0.30917c-0.06742,-0.21005 -0.10107,-0.57475 -0.10107,-1.09397c0,-0.63813 0.05149,-1.11181 0.15458,-1.42097c0.10702,-0.31315 0.24174,-0.46969 0.40429,-0.46969zM232.96814,182.09153c-0.07533,0 -0.13675,-0.02182 -0.18431,-0.0654c-0.04756,-0.04756 -0.08127,-0.11493 -0.10107,-0.20215c-0.03169,-0.14668 -0.05945,-0.35869 -0.08324,-0.63617c-0.02378,-0.27748 -0.03567,-0.58462 -0.03567,-0.92155c0,-0.41618 0.01385,-0.81649 0.04162,-1.20099c0.03169,-0.3845 0.07135,-0.69961 0.11891,-0.94533c0.05155,-0.26559 0.11493,-0.45977 0.19026,-0.58266c0.07533,-0.12682 0.17438,-0.19026 0.29727,-0.19026c0.111,0 0.1962,0.05155 0.25566,0.15458c0.05945,0.09911 0.08918,0.27153 0.08918,0.51726c0,0.24573 -0.00993,0.50935 -0.02973,0.79075c-0.01587,0.2814 -0.04358,0.58266 -0.08324,0.90372h0.02378c0.25762,-0.34882 0.49746,-0.62826 0.7194,-0.83831c0.22593,-0.21005 0.43206,-0.36268 0.61833,-0.4578c0.19026,-0.09513 0.35869,-0.14269 0.50537,-0.14269c0.11493,0 0.20018,0.03567 0.25566,0.10702c0.05547,0.07135 0.08324,0.15857 0.08324,0.2616c0,0.20215 -0.16249,0.42808 -0.48753,0.67779c-0.32106,0.24971 -0.78481,0.50537 -1.39125,0.76697l0.00595,-0.09513c0.37653,0.19424 0.69961,0.39835 0.96912,0.61239c0.27349,0.21005 0.48159,0.41024 0.62428,0.60049c0.14668,0.18627 0.21998,0.34288 0.21998,0.46969c0,0.10304 -0.03371,0.18829 -0.10107,0.25566c-0.06344,0.06344 -0.15654,0.09513 -0.27944,0.09513c-0.15458,0 -0.327,-0.05749 -0.51726,-0.17242c-0.18627,-0.11891 -0.38051,-0.29531 -0.58266,-0.52915c-0.20215,-0.23384 -0.40429,-0.52719 -0.60644,-0.87993h-0.02378c-0.00398,0.24971 -0.0198,0.49348 -0.04756,0.7313c-0.02378,0.23384 -0.05547,0.42611 -0.09513,0.57671c-0.02777,0.10304 -0.07135,0.18627 -0.1308,0.24971c-0.05547,0.05945 -0.13478,0.08918 -0.23782,0.08918zM236.65203,177.47188c0.15857,0 0.27153,0.04358 0.33889,0.1308c0.07135,0.08722 0.10702,0.18829 0.10702,0.30322c0,0.14269 -0.04358,0.25369 -0.1308,0.33295c-0.08324,0.07533 -0.20215,0.11296 -0.35673,0.11296c-0.1506,0 -0.26356,-0.04162 -0.33889,-0.12486c-0.07533,-0.08722 -0.11296,-0.18829 -0.11296,-0.30322c0,-0.1506 0.0456,-0.26356 0.13675,-0.33889c0.09114,-0.07533 0.21005,-0.11296 0.35673,-0.11296zM236.68771,178.79773c0.12682,0 0.22593,0.11891 0.29727,0.35673c0.07533,0.23782 0.11296,0.61637 0.11296,1.13559c0,0.63813 -0.0456,1.09795 -0.13675,1.37935c-0.09114,0.2814 -0.22991,0.42213 -0.41618,0.42213c-0.14269,0 -0.24775,-0.10304 -0.31511,-0.30917c-0.06736,-0.21005 -0.10107,-0.57475 -0.10107,-1.09397c0,-0.63813 0.05155,-1.11181 0.15458,-1.42097c0.10702,-0.31315 0.2418,-0.46969 0.40429,-0.46969zM240.70894,178.50045c-0.18627,0.05547 -0.35869,0.09911 -0.51726,0.1308c-0.15851,0.02777 -0.30714,0.04162 -0.44591,0.04162c-0.12682,0 -0.22593,-0.02574 -0.29727,-0.07729c-0.07135,-0.05155 -0.10702,-0.12884 -0.10702,-0.23187c0,-0.08722 0.02973,-0.17046 0.08918,-0.24971c0.05945,-0.07925 0.15066,-0.1506 0.27349,-0.21404c0.14668,-0.07135 0.33295,-0.1308 0.55888,-0.17836c0.22593,-0.04756 0.48955,-0.07135 0.79075,-0.07135c0.20215,0 0.37855,0.01385 0.52915,0.04162c0.15066,0.02378 0.26957,0.05351 0.35673,0.08918c0.11499,0.04756 0.19424,0.10304 0.23782,0.16647c0.04756,0.05945 0.07135,0.12884 0.07135,0.20809c0,0.09911 -0.03567,0.18033 -0.10702,0.24377c-0.07135,0.06344 -0.18627,0.09513 -0.34484,0.09513c-0.09513,0 -0.19418,-0.00595 -0.29727,-0.01784c-0.09905,-0.01189 -0.20411,-0.02777 -0.31511,-0.04756zM241.11918,178.17939c0.20215,0.25369 0.35875,0.54895 0.46969,0.88588c0.11499,0.33295 0.17242,0.68177 0.17242,1.04641c0,0.38051 -0.05351,0.72137 -0.16053,1.02263c-0.10304,0.29727 -0.26951,0.53313 -0.49942,0.70751c-0.22985,0.17046 -0.53509,0.25566 -0.91561,0.25566c-0.46767,0 -0.81846,-0.1308 -1.05235,-0.3924c-0.23384,-0.2616 -0.35078,-0.62029 -0.35078,-1.07613c0,-0.22195 0.02777,-0.41024 0.08324,-0.56482c0.05945,-0.15458 0.13675,-0.27153 0.23187,-0.35078c0.09513,-0.08324 0.19822,-0.12486 0.30917,-0.12486c0.10309,0 0.18039,0.03169 0.23187,0.09513c0.05553,0.05945 0.08324,0.14465 0.08324,0.25566c0,0.09114 -0.01582,0.19222 -0.04756,0.30322c-0.02771,0.10702 -0.04162,0.21208 -0.04162,0.31511c0,0.26559 0.0456,0.45977 0.13675,0.58266c0.09513,0.11891 0.24579,0.17836 0.45186,0.17836c0.27349,0 0.46577,-0.111 0.57671,-0.33295c0.11499,-0.22593 0.17242,-0.53313 0.17242,-0.92155c0,-0.2814 -0.02973,-0.55691 -0.08918,-0.82642c-0.05945,-0.26951 -0.15458,-0.54502 -0.28538,-0.82642zM245.34024,182.09153c-0.13478,0 -0.22795,-0.05155 -0.27944,-0.15458c-0.04756,-0.10702 -0.07533,-0.27545 -0.08324,-0.50537l0.05945,0.02973c-0.222,0.43206 -0.64211,0.64806 -1.26044,0.64806c-0.28146,0 -0.5153,-0.04953 -0.70157,-0.14864c-0.18633,-0.10304 -0.32504,-0.23782 -0.41618,-0.40429c-0.08722,-0.17046 -0.1308,-0.35477 -0.1308,-0.55293c0,-0.34086 0.11891,-0.61042 0.35673,-0.80859c0.23782,-0.20215 0.55293,-0.30322 0.94533,-0.30322c0.25762,0 0.48159,0.03763 0.67184,0.11296c0.19026,0.07533 0.35275,0.18033 0.48753,0.31511l-0.10107,-0.01189c-0.02777,-0.40031 -0.11499,-0.68569 -0.2616,-0.85615c-0.14269,-0.17438 -0.34686,-0.2616 -0.61239,-0.2616c-0.15458,0 -0.29727,0.02378 -0.42808,0.07135c-0.1308,0.04756 -0.25173,0.09709 -0.36268,0.14864c-0.10702,0.04756 -0.20809,0.07135 -0.30322,0.07135c-0.09513,0 -0.17046,-0.03169 -0.22593,-0.09513c-0.05155,-0.06344 -0.07729,-0.14465 -0.07729,-0.24377c0,-0.14269 0.06736,-0.27748 0.20215,-0.40429c0.13871,-0.12682 0.32106,-0.22991 0.54699,-0.30917c0.22593,-0.07925 0.47166,-0.11891 0.73724,-0.11891c0.32106,0 0.59651,0.07729 0.82642,0.23187c0.22985,0.15458 0.40429,0.38051 0.5232,0.67779c0.10304,0.25369 0.17634,0.53706 0.21998,0.85021c0.04358,0.31315 0.0654,0.64806 0.0654,1.00479c0,0.26951 -0.01391,0.4776 -0.04162,0.62428c-0.02777,0.14668 -0.07135,0.24971 -0.1308,0.30917c-0.05553,0.05547 -0.1308,0.08324 -0.22593,0.08324zM244.02629,181.42563c0.1308,0 0.26356,-0.01784 0.39835,-0.05351c0.13472,-0.03966 0.24769,-0.09709 0.33889,-0.17242c0.09114,-0.07533 0.13675,-0.16844 0.13675,-0.27944c0,-0.09513 -0.03966,-0.17242 -0.11891,-0.23187c-0.07533,-0.06344 -0.1764,-0.111 -0.30322,-0.14269c-0.12289,-0.03169 -0.25566,-0.04756 -0.39835,-0.04756c-0.2418,0 -0.42611,0.04162 -0.55293,0.12486c-0.12289,0.08324 -0.18431,0.19424 -0.18431,0.33295c0,0.1506 0.05743,0.26755 0.17242,0.35078c0.11891,0.07925 0.28931,0.11891 0.51131,0.11891zM246.24973,179.6182c0,-0.4122 0.04756,-0.70948 0.14269,-0.89182c0.09911,-0.18235 0.22795,-0.27349 0.38646,-0.27349c0.0912,0 0.16053,0.03371 0.20809,0.10107c0.05155,0.06344 0.08722,0.1506 0.10702,0.2616c0.01986,0.10702 0.02973,0.22789 0.02973,0.36268c0,0.17046 0,0.37058 0,0.60049c0.00398,0.22593 0.00797,0.45977 0.01189,0.70157c0.00797,0.23782 0.01587,0.45977 0.02378,0.6659h0.02378c0.12289,-0.51922 0.24579,-0.94533 0.36862,-1.27828c0.12688,-0.33295 0.25566,-0.57868 0.38646,-0.73724c0.13478,-0.16249 0.26957,-0.24377 0.40429,-0.24377c0.14668,0 0.28538,0.08127 0.41618,0.24377c0.13478,0.15857 0.26559,0.40031 0.3924,0.72535c0.1308,0.32504 0.26362,0.73528 0.39835,1.23072h0.02378c0.01189,-0.34086 0.01986,-0.69961 0.02378,-1.07613c0.00398,-0.37653 0.00595,-0.72137 0.00595,-1.03452c0,-0.22593 0.03769,-0.3924 0.11296,-0.49942c0.07533,-0.10702 0.18039,-0.16053 0.31511,-0.16053c0.17046,0 0.29335,0.08918 0.36862,0.26755c0.07931,0.17438 0.11891,0.41024 0.11891,0.70751c0,0.21802 -0.01189,0.45186 -0.03567,0.70157c-0.0198,0.24573 -0.04953,0.48355 -0.08918,0.71346c-0.0396,0.22991 -0.08716,0.43004 -0.14269,0.60049c-0.08324,0.25369 -0.17634,0.44591 -0.27944,0.57671c-0.09905,0.1308 -0.22985,0.1962 -0.3924,0.1962c-0.14662,0 -0.29329,-0.0852 -0.43997,-0.25566c-0.14269,-0.17438 -0.27742,-0.43402 -0.40429,-0.77886c-0.12682,-0.34484 -0.24377,-0.77488 -0.35078,-1.29017h-0.02378c-0.10304,0.49151 -0.22593,0.90372 -0.36862,1.23666c-0.13871,0.32896 -0.28735,0.57671 -0.44591,0.74319c-0.15458,0.16647 -0.30917,0.24971 -0.46375,0.24971c-0.16249,0 -0.29924,-0.07331 -0.41024,-0.21998c-0.10702,-0.14668 -0.1962,-0.3726 -0.26755,-0.67779c-0.03169,-0.15458 -0.05945,-0.31909 -0.08324,-0.49348c-0.02378,-0.17836 -0.04162,-0.35275 -0.05351,-0.5232c-0.01189,-0.17046 -0.01784,-0.32106 -0.01784,-0.45186zM253.62559,182.09153c-0.13478,0 -0.22789,-0.05155 -0.27944,-0.15458c-0.04756,-0.10702 -0.07533,-0.27545 -0.08324,-0.50537l0.05945,0.02973c-0.22195,0.43206 -0.64211,0.64806 -1.26044,0.64806c-0.2814,0 -0.5153,-0.04953 -0.70157,-0.14864c-0.18627,-0.10304 -0.32504,-0.23782 -0.41618,-0.40429c-0.08722,-0.17046 -0.1308,-0.35477 -0.1308,-0.55293c0,-0.34086 0.11891,-0.61042 0.35673,-0.80859c0.23782,-0.20215 0.55293,-0.30322 0.94533,-0.30322c0.25762,0 0.48159,0.03763 0.67184,0.11296c0.19026,0.07533 0.35275,0.18033 0.48753,0.31511l-0.10107,-0.01189c-0.02777,-0.40031 -0.11493,-0.68569 -0.2616,-0.85615c-0.14269,-0.17438 -0.3468,-0.2616 -0.61239,-0.2616c-0.15458,0 -0.29727,0.02378 -0.42808,0.07135c-0.1308,0.04756 -0.25167,0.09709 -0.36268,0.14864c-0.10702,0.04756 -0.20809,0.07135 -0.30322,0.07135c-0.09513,0 -0.17046,-0.03169 -0.22593,-0.09513c-0.05155,-0.06344 -0.07729,-0.14465 -0.07729,-0.24377c0,-0.14269 0.06736,-0.27748 0.20215,-0.40429c0.13871,-0.12682 0.32106,-0.22991 0.54699,-0.30917c0.22593,-0.07925 0.47166,-0.11891 0.73724,-0.11891c0.32106,0 0.59651,0.07729 0.82642,0.23187c0.22991,0.15458 0.40429,0.38051 0.5232,0.67779c0.10304,0.25369 0.1764,0.53706 0.21998,0.85021c0.04358,0.31315 0.0654,0.64806 0.0654,1.00479c0,0.26951 -0.01385,0.4776 -0.04162,0.62428c-0.02777,0.14668 -0.07135,0.24971 -0.1308,0.30917c-0.05547,0.05547 -0.1308,0.08324 -0.22593,0.08324zM252.31163,181.42563c0.1308,0 0.26356,-0.01784 0.39835,-0.05351c0.13478,-0.03966 0.24775,-0.09709 0.33889,-0.17242c0.09114,-0.07533 0.13675,-0.16844 0.13675,-0.27944c0,-0.09513 -0.03966,-0.17242 -0.11891,-0.23187c-0.07533,-0.06344 -0.1764,-0.111 -0.30322,-0.14269c-0.12289,-0.03169 -0.25566,-0.04756 -0.39835,-0.04756c-0.2418,0 -0.42611,0.04162 -0.55293,0.12486c-0.12289,0.08324 -0.18431,0.19424 -0.18431,0.33295c0,0.1506 0.05749,0.26755 0.17242,0.35078c0.11891,0.07925 0.28937,0.11891 0.51131,0.11891zM255.20103,182.09153c-0.08722,0 -0.15857,-0.02973 -0.21404,-0.08918c-0.05155,-0.05945 -0.09317,-0.14465 -0.12486,-0.25566c-0.03175,-0.16249 -0.05945,-0.37457 -0.08324,-0.63617c-0.01986,-0.26559 -0.02973,-0.54895 -0.02973,-0.85021c0,-0.17046 0.00392,-0.36268 0.01189,-0.57671c0.00791,-0.21404 0.01784,-0.43004 0.02973,-0.64806c0.01582,-0.22195 0.03169,-0.42808 0.04756,-0.61833c0.0198,-0.19026 0.0396,-0.34484 0.05945,-0.46375c0.03169,-0.17438 0.07729,-0.31113 0.13675,-0.41024c0.06338,-0.10304 0.16249,-0.15458 0.29727,-0.15458c0.13871,0 0.23978,0.05351 0.30322,0.16053c0.06338,0.10304 0.09513,0.23187 0.09513,0.38646c0,0.17438 -0.01391,0.38051 -0.04162,0.61833c-0.02378,0.23782 -0.06148,0.47962 -0.11296,0.72535l-0.11891,0.14269c0.04358,-0.16647 0.11493,-0.31909 0.21404,-0.4578c0.09905,-0.13871 0.22391,-0.24775 0.37457,-0.327c0.1506,-0.08324 0.32498,-0.12486 0.5232,-0.12486c0.38842,0 0.69758,0.13871 0.9275,0.41618c0.23384,0.27349 0.35078,0.70157 0.35078,1.28423c0,0.40828 -0.06148,0.74913 -0.18431,1.02263c-0.11891,0.27349 -0.28342,0.47962 -0.49348,0.61833c-0.20613,0.13478 -0.44199,0.20215 -0.70751,0.20215c-0.24971,0 -0.46577,-0.07331 -0.64806,-0.21998c-0.17836,-0.14668 -0.29335,-0.35869 -0.34484,-0.63617l0.08324,0.0654c-0.01587,0.28538 -0.05553,0.49544 -0.11891,0.63022c-0.05945,0.1308 -0.13675,0.1962 -0.23187,0.1962zM256.28905,181.36618c0.19816,0 0.37254,-0.08918 0.5232,-0.26755c0.1506,-0.17836 0.22593,-0.4578 0.22593,-0.83831c0,-0.31707 -0.05945,-0.57475 -0.17836,-0.77291c-0.11499,-0.19816 -0.30917,-0.29727 -0.58266,-0.29727c-0.222,0 -0.40037,0.08918 -0.53509,0.26755c-0.13478,0.17438 -0.20215,0.43997 -0.20215,0.7967c0,0.32504 0.06736,0.59259 0.20215,0.80264c0.13472,0.20613 0.31707,0.30917 0.54699,0.30917zM261.04586,182.09153c-0.13478,0 -0.22795,-0.05155 -0.27944,-0.15458c-0.04756,-0.10702 -0.07533,-0.27545 -0.08324,-0.50537l0.05945,0.02973c-0.222,0.43206 -0.64211,0.64806 -1.26044,0.64806c-0.28146,0 -0.5153,-0.04953 -0.70157,-0.14864c-0.18633,-0.10304 -0.32504,-0.23782 -0.41618,-0.40429c-0.08722,-0.17046 -0.1308,-0.35477 -0.1308,-0.55293c0,-0.34086 0.11891,-0.61042 0.35673,-0.80859c0.23782,-0.20215 0.55293,-0.30322 0.94533,-0.30322c0.25762,0 0.48159,0.03763 0.67184,0.11296c0.19026,0.07533 0.35275,0.18033 0.48753,0.31511l-0.10107,-0.01189c-0.02777,-0.40031 -0.11499,-0.68569 -0.2616,-0.85615c-0.14269,-0.17438 -0.34686,-0.2616 -0.61239,-0.2616c-0.15458,0 -0.29727,0.02378 -0.42808,0.07135c-0.1308,0.04756 -0.25173,0.09709 -0.36268,0.14864c-0.10702,0.04756 -0.20809,0.07135 -0.30322,0.07135c-0.09513,0 -0.17046,-0.03169 -0.22593,-0.09513c-0.05155,-0.06344 -0.07729,-0.14465 -0.07729,-0.24377c0,-0.14269 0.06736,-0.27748 0.20215,-0.40429c0.13871,-0.12682 0.32106,-0.22991 0.54699,-0.30917c0.22593,-0.07925 0.47166,-0.11891 0.73724,-0.11891c0.32106,0 0.59651,0.07729 0.82642,0.23187c0.22985,0.15458 0.40429,0.38051 0.5232,0.67779c0.10304,0.25369 0.17634,0.53706 0.21998,0.85021c0.04358,0.31315 0.0654,0.64806 0.0654,1.00479c0,0.26951 -0.01391,0.4776 -0.04162,0.62428c-0.02777,0.14668 -0.07135,0.24971 -0.1308,0.30917c-0.05553,0.05547 -0.1308,0.08324 -0.22593,0.08324zM259.73191,181.42563c0.1308,0 0.26356,-0.01784 0.39835,-0.05351c0.13472,-0.03966 0.24769,-0.09709 0.33889,-0.17242c0.09114,-0.07533 0.13675,-0.16844 0.13675,-0.27944c0,-0.09513 -0.03966,-0.17242 -0.11891,-0.23187c-0.07533,-0.06344 -0.1764,-0.111 -0.30322,-0.14269c-0.12289,-0.03169 -0.25566,-0.04756 -0.39835,-0.04756c-0.2418,0 -0.42611,0.04162 -0.55293,0.12486c-0.12289,0.08324 -0.18431,0.19424 -0.18431,0.33295c0,0.1506 0.05743,0.26755 0.17242,0.35078c0.11891,0.07925 0.28931,0.11891 0.51131,0.11891zM262.776,178.33398c0.12664,0 0.21166,0.05155 0.25566,0.15458c0.04756,0.10304 0.07135,0.25566 0.07135,0.4578c0,0.04756 -0.00416,0.09911 -0.01189,0.15458c-0.00416,0.05155 -0.01189,0.09911 -0.02378,0.14269l-0.01189,-0.11891c0.09513,-0.25762 0.24139,-0.4578 0.43997,-0.60049c0.19798,-0.14668 0.40786,-0.21998 0.63022,-0.21998c0.24555,0 0.44948,0.06938 0.61239,0.20809c0.16647,0.13871 0.28895,0.33295 0.36862,0.58266c0.08324,0.24971 0.12486,0.54502 0.12486,0.88588c0,0.21005 -0.01011,0.41815 -0.02973,0.62428c-0.01605,0.20215 -0.03983,0.38842 -0.07135,0.55888c-0.02794,0.16647 -0.05945,0.30322 -0.09513,0.41024c-0.04756,0.13478 -0.1094,0.23586 -0.18431,0.30322c-0.07551,0.06344 -0.16469,0.09513 -0.26755,0.09513c-0.10345,0 -0.18253,-0.03763 -0.23782,-0.11296c-0.05589,-0.07533 -0.08324,-0.1764 -0.08324,-0.30322c0,-0.13478 0.00951,-0.29727 0.02973,-0.48753c0.01962,-0.19424 0.03746,-0.39044 0.05351,-0.5886c0.01962,-0.20215 0.02973,-0.3845 0.02973,-0.54699c0,-0.55489 -0.18253,-0.83237 -0.54699,-0.83237c-0.19442,0 -0.35673,0.08722 -0.48753,0.2616c-0.1308,0.17046 -0.2182,0.41422 -0.2616,0.7313c-0.01189,0.10702 -0.01784,0.23978 -0.01784,0.39835c0,0.15857 0,0.31707 0,0.47564c0.00357,0.15458 0,0.28538 -0.01189,0.3924c-0.01605,0.23782 -0.06183,0.40828 -0.13675,0.51131c-0.07135,0.10304 -0.17064,0.15458 -0.29727,0.15458c-0.14685,0 -0.25803,-0.06736 -0.33313,-0.20215c-0.07527,-0.13871 -0.11296,-0.37058 -0.11296,-0.69562c0,-0.16647 0.00398,-0.35275 0.01189,-0.55888c0.00797,-0.20613 0.01784,-0.4122 0.02973,-0.61833c0.01587,-0.21005 0.03371,-0.40031 0.05351,-0.57077c0.03942,-0.32106 0.09709,-0.57475 0.1726,-0.76102c0.07491,-0.19026 0.18788,-0.28538 0.33889,-0.28538z" fill="#000000" stroke="none"/></g></g></svg>