<svg version="1.1" xmlns="http://www.w3.org/2000/svg" xmlns:xlink="http://www.w3.org/1999/xlink" width="25" height="25" viewBox="0,0,25,25"><g transform="translate(-227.5,-167.5)"><g data-paper-data="{&quot;isPaintingLayer&quot;:true}" fill-rule="nonzero" stroke-width="1" stroke-linecap="butt" stroke-linejoin="miter" stroke-miterlimit="10" stroke-dasharray="" stroke-dashoffset="0" style="mix-blend-mode: normal"><path d="M228,180c0,-6.62742 5.37258,-12 12,-12c6.62742,0 12,5.37258 12,12c0,6.62742 -5.37258,12 -12,12c-6.62742,0 -12,-5.37258 -12,-12z" fill="#c26363" stroke="#000000"/><path d="M237.592,184.584c-0.232,0 -0.412,-0.088 -0.54,-0.264c-0.128,-0.176 -0.192,-0.496 -0.192,-0.96c0,-0.328 0.036,-0.72 0.108,-1.176c0.08,-0.464 0.188,-0.956 0.324,-1.476c0.136,-0.528 0.296,-1.052 0.48,-1.572c0.184,-0.528 0.384,-1.02 0.6,-1.476c0.24,-0.52 0.472,-0.924 0.696,-1.212c0.224,-0.296 0.452,-0.504 0.684,-0.624c0.232,-0.128 0.476,-0.192 0.732,-0.192c0.384,0 0.736,0.152 1.056,0.456c0.328,0.304 0.64,0.808 0.936,1.512c0.216,0.536 0.412,1.124 0.588,1.764c0.176,0.64 0.312,1.288 0.408,1.944c0.104,0.656 0.156,1.276 0.156,1.86c0,0.488 -0.084,0.848 -0.252,1.08c-0.16,0.224 -0.384,0.336 -0.672,0.336c-0.28,0 -0.496,-0.124 -0.648,-0.372c-0.152,-0.248 -0.26,-0.66 -0.324,-1.236c-0.032,-0.352 -0.048,-0.716 -0.048,-1.092c0,-0.384 0.016,-0.748 0.048,-1.092l0.204,0.924c-0.28,0.096 -0.632,0.16 -1.056,0.192c-0.416,0.024 -0.852,0.016 -1.308,-0.024c-0.448,-0.048 -0.868,-0.132 -1.26,-0.252l0.636,-0.816c0.008,0.384 -0.012,0.76 -0.06,1.128c-0.048,0.36 -0.104,0.692 -0.168,0.996c-0.064,0.352 -0.14,0.652 -0.228,0.9c-0.088,0.248 -0.204,0.436 -0.348,0.564c-0.136,0.12 -0.32,0.18 -0.552,0.18zM240.412,180.492c0.464,0 0.8,-0.068 1.008,-0.204c0.216,-0.144 0.324,-0.352 0.324,-0.624c0,-0.192 -0.036,-0.428 -0.108,-0.708c-0.064,-0.288 -0.156,-0.568 -0.276,-0.84c-0.12,-0.272 -0.26,-0.5 -0.42,-0.684c-0.152,-0.184 -0.32,-0.276 -0.504,-0.276c-0.176,0 -0.344,0.096 -0.504,0.288c-0.152,0.184 -0.288,0.416 -0.408,0.696c-0.12,0.28 -0.216,0.568 -0.288,0.864c-0.072,0.288 -0.108,0.536 -0.108,0.744c0,0.24 0.104,0.424 0.312,0.552c0.216,0.128 0.54,0.192 0.972,0.192z" fill="#0a0a0a" stroke="none"/></g></g></svg>