<svg version="1.1" xmlns="http://www.w3.org/2000/svg" xmlns:xlink="http://www.w3.org/1999/xlink" width="14.80765" height="14.80765" viewBox="0,0,14.80765,14.80765"><g transform="translate(-232.59618,-172.59618)"><g data-paper-data="{&quot;isPaintingLayer&quot;:true}" fill="#f24e1e" fill-rule="nonzero" stroke="none" stroke-width="1" stroke-linecap="butt" stroke-linejoin="miter" stroke-miterlimit="10" stroke-dasharray="" stroke-dashoffset="0" style="mix-blend-mode: normal"><path d="M246.92192,173.07807c0.30857,0.30855 0.48191,0.72704 0.48191,1.1634v11.51706c0,0.43633 -0.17333,0.85481 -0.48191,1.16339c-0.30857,0.30857 -0.72706,0.48191 -1.16339,0.48191h-11.51706c-0.43636,0 -0.85485,-0.17333 -1.1634,-0.48191c-0.30856,-0.30857 -0.4819,-0.72706 -0.4819,-1.16339v-11.51706c0,-0.43636 0.17334,-0.85485 0.4819,-1.1634c0.30855,-0.30856 0.72704,-0.4819 1.1634,-0.4819h11.51706c0.43633,0 0.85481,0.17334 1.16339,0.4819zM244.11324,182.96153l-2.96153,-2.96153l2.96153,-2.96153l-1.15171,-1.15171l-2.96153,2.96153l-2.96153,-2.96153l-1.15171,1.15171l2.96153,2.96153l-2.96153,2.96153l1.15171,1.15171l2.96153,-2.96153l2.96153,2.96153z"/></g></g></svg>