<svg version="1.1" xmlns="http://www.w3.org/2000/svg" xmlns:xlink="http://www.w3.org/1999/xlink" width="13.30354" height="21.9803" viewBox="0,0,13.30354,21.9803"><g transform="translate(-233.13487,-169.17672)"><g data-paper-data="{&quot;isPaintingLayer&quot;:true}" fill-rule="evenodd" stroke="none" stroke-width="1" stroke-linecap="butt" stroke-linejoin="miter" stroke-miterlimit="10" stroke-dasharray="" stroke-dashoffset="0" style="mix-blend-mode: normal"><g><g><path d="M240.65603,186.93105c-0.04841,-0.3682 -0.09682,-0.73641 -0.1774,-1.08493c-0.15397,-0.61305 -0.33652,-1.16441 0.32649,-1.52576c1.2036,-0.66991 2.05263,1.44077 1.98254,2.6992c-0.02045,0.25562 -2.13162,-0.0885 -2.13162,-0.0885z" fill="#dcaa78"/><path d="M240.52651,182.74479c1.58883,-0.61823 1.89335,0.96358 1.89335,0.96358l0.40649,1.78464l-2.9973,0.77253c0,0 -0.22815,-0.58979 -0.44115,-1.29933c0,0 -0.45021,-1.6032 1.13862,-2.22143z" fill="#f01446"/></g><g><path d="M237.9005,191.02554l-0.25109,0.13148c-0.0367,-0.13226 -0.31358,-1.88568 -0.31358,-1.88568c0.17786,0.00172 0.35571,0.00344 0.54965,-0.0047l-0.00575,1.21907v0c0.00188,0.21986 0.01,0.4138 0.02078,0.53981z" fill="#000000"/><path d="M237.87972,190.48573l0.00575,-1.21907c0.698,-0.05123 1.44596,-0.30983 1.96593,-0.76049c0.48782,-0.43099 0.7378,-1.07012 0.67408,-1.71627l2.40504,-0.07874c-0.07197,1.03856 -1.22247,2.62634 -1.96324,2.96894c-0.03217,0.01968 -0.99888,0.7878 -3.08054,0.49193c0.00718,0.08401 0.00812,0.19394 -0.00702,0.31371z" fill="#00a08c"/><path d="M237.88956,190.50181c-0.00984,-0.01609 0,0 0,0z" fill="#000000"/></g><path d="M240.36278,186.66841l2.79651,-0.05298l-0.06416,0.43707l-2.74468,0.06547z" fill="#008264"/></g><path d="M235.18788,184.27786c0.13198,-0.49019 0.30166,-1.18777 0.43363,-1.60255c0.35822,-1.09351 0.75414,-1.69682 0.75414,-1.69682h5.07162l0.54676,3.1297z" fill="#f01446"/><g><path d="M242.62487,172.4673c0.16969,-0.2828 0.33937,-0.67873 0.75414,-0.56561c0.32051,0.07541 0.45249,0.49019 0.39593,0.79185c-0.05656,0.30166 -0.39593,0.58446 -0.71644,0.58446c-0.5279,-0.01886 -0.49019,-0.41478 -0.43363,-0.8107z" fill="#be8c64"/><path d="M243.24704,173.10832c-0.0377,0.35822 -1.01809,2.01734 -2.45097,2.01734c-1.43287,0 -2.319,-1.60255 -2.46982,-2.09275c-0.22625,-0.773 -0.35822,-1.8288 -0.01885,-2.56409c0.18854,-0.41478 0.22625,-0.35822 0.62217,-0.30166l1.62141,0.26395l2.65836,0.45249c0.13198,0.73529 0.13198,1.48944 0.03771,2.22473z" fill="#dcaa78"/><path d="M237.96803,170.35569c0,0 -0.73529,0.24509 -1.0558,0.67873c-0.37707,0.54675 -0.43363,1.16893 -0.60332,1.7911c-0.15083,0.56561 -0.43363,1.09351 -0.98039,1.33861c-0.56561,0.24509 -1.24433,0.07541 -1.546,-0.50905c-0.5279,-1.01809 -0.03771,-2.80919 0.90497,-3.43136c0.5279,-0.33936 1.16893,-0.35822 1.75339,-0.2828c0.5279,0.05656 1.03694,0.20739 1.52714,0.41478z" fill="#000000"/><path d="M238.30739,170.3934c0.56561,-1.0558 1.94192,-1.39517 3.14856,-1.13122c1.50829,0.32051 2.01733,1.37631 1.88536,2.65836c-0.8107,0.0377 -4.99621,-1.39516 -5.03391,-1.52714z" fill="#000000"/><path d="M238.13771,171.12869c-0.22625,-0.16968 -0.32051,-0.47134 -0.20739,-0.73529c0.18854,-0.47134 0.65987,-0.2828 0.65987,-0.2828z" fill="#f01446"/><path d="M241.75761,171.88284c0.07542,0.13198 0.13198,0.26395 0.16968,0.39593c0.01886,0.11312 0.07542,0.2451 -0.0377,0.35822c-0.05656,0.07541 -0.16968,0.09426 -0.26395,0.05656c-0.07542,-0.0377 -0.09427,-0.09427 -0.11312,-0.18854c0,-0.16968 0.0377,-0.35822 0.13198,-0.50905c0.0377,-0.0377 0.07542,-0.07542 0.11312,-0.11312z" fill="#be8c64"/><path d="M241.58792,173.57966c-0.22625,0.43364 -1.18778,0.43364 -1.39517,0c-0.09427,-0.20739 -0.11313,-0.60331 0.18854,-0.54675c0.13198,0.01886 0.2828,0.13198 0.41478,0.16968c0.16969,0.05656 0.32051,0.13198 0.47134,0.18854c0.11312,0.05656 0.22624,0.11312 0.32051,0.18854z" fill="#000000"/><path d="M240.72066,171.92054c0.07542,-0.01886 0.13198,0.00001 0.15083,0.03771c0.01885,0.07541 0.01885,0.32051 -0.05656,0.37707l-0.11312,-0.0377z" fill="#000000"/><path d="M242.68143,172.35418c-0.09427,-0.01886 -0.15083,-0.18854 -0.09427,-0.2828c0.01885,-0.0377 0.03771,-0.05656 0.07541,-0.05656c0.01886,0 0.05657,0.03771 0.05657,0.07542c0.01885,0.07541 0,0.16968 -0.03771,0.26395z" fill="#000000"/><path d="M240.07963,170.31799l-1.52714,2.41326l-0.43363,-0.05656c0,0 -0.96154,-3.05428 1.97963,-3.45021z" fill="#000000"/><path d="M240.32473,170.3934l-0.71644,1.96078l-0.50904,-2.26244z" fill="#000000"/><path d="M238.55249,171.78857c0,0 0.39593,0.82956 0.41478,1.18778c-0.20739,0 -0.75414,0.15083 -1.0181,0.07541c-0.20739,-0.05656 -0.43363,-0.20739 -0.49019,-0.43364c-0.03771,-0.20739 -0.15083,-0.62216 -0.07542,-0.79185c0.33936,-0.69759 1.16893,-0.03771 1.16893,-0.03771z" fill="#dcaa78"/></g><g><path d="M233.17454,183.33754c-0.07378,-0.09367 -0.09875,-1.59952 0.42717,-2.81069c0.64983,-1.46816 1.91808,-2.71007 2.46393,-3.23112l1.95316,1.2848c-0.66646,0.46427 -1.54723,0.94555 -1.77105,1.11426c-0.37468,0.29514 -1.4502,1.41558 -1.4241,1.4102c-0.17117,0.22591 -0.33695,0.47794 -0.44512,0.74528c-0.09285,0.20973 -0.19477,0.63916 -0.25113,0.82775c-0.15374,0.50818 -0.16242,0.79584 -0.24614,0.78589c-0.06798,0.00042 0.03228,-0.70091 -0.08792,-0.68971c-0.1202,0.0112 -0.16286,0.72786 -0.26233,0.70755c-0.09948,-0.0203 0.02151,-0.75312 -0.13516,-0.72079c-0.14092,0.0427 -0.06295,0.81614 -0.22131,0.57658z" fill="#dcaa78"/><path d="M237.62962,179.06925l-1.46452,-1.7532c0,0 1.07056,-1.07858 1.58119,-1.37455c0,0 1.34827,-0.98614 2.09775,0.13872c0.74408,1.09876 0.0515,1.56842 0.0515,1.56842c0.02612,-0.00538 -2.26593,1.42061 -2.26593,1.42061z" fill="#008264"/><path d="M237.45845,179.29515l-1.6755,-2.04996l0.43726,-0.32167l1.85332,2.0541z" fill="#f01446"/><path d="M233.95494,181.84243c0.1919,-0.25741 0.50111,-0.14427 0.50111,-0.14427c0,0 0.18991,1.11787 0.08545,1.13942c-0.1148,0.03732 -0.19482,-0.21842 -0.31131,-0.45301c-0.40163,0.16458 -0.45678,-0.30047 -0.27526,-0.54213z" fill="#be8c64"/></g><path d="M241.74894,176.88725c0.22625,2.26244 0.33937,6.10857 0.33937,6.10857l-7.22094,0.56561c0,0 1.50829,-4.90194 2.14931,-6.41023c0.90497,-2.13046 2.37556,-1.92307 2.96002,-1.97963c0.75414,-0.05656 1.60256,0.07541 1.77224,1.71568z" fill="#0066a1"/><g><path d="M245.96012,183.90608c-0.03379,0.4286 -1.73574,0.15673 -1.90151,0.09224c0.15264,-0.10573 1.79227,-0.2634 1.90151,-0.09224z" fill="#be8c64"/><path d="M238.62118,180.42469c0,0 -0.02665,-1.0504 1.10229,-1.16872c1.11044,-0.1148 1.06462,1.16043 1.06462,1.16043c0.01191,0.66939 0.37832,1.38666 0.8287,1.8385c0.35518,0.35477 1.15304,0.81742 1.58326,1.062c0.92305,0.51566 3.20058,1.29237 3.15556,1.35848c-0.02649,0.06259 -0.78216,-0.17778 -0.83515,-0.05259c-0.053,0.12519 1.00253,0.32786 0.9125,0.46008c-0.08653,0.15076 -0.9709,-0.16114 -1.00282,0.07519c-0.0319,0.23634 0.80326,0.28892 0.69118,0.40614c-0.11209,0.11723 -3.17906,-0.47127 -4.57478,-1.05073c-0.7512,-0.31799 -1.34881,-0.83784 -1.8864,-1.44584c-0.43887,-0.49241 -0.98648,-1.96207 -1.03894,-2.64295z" fill="#dcaa78"/><path d="M238.43318,176.60314c0.21834,-0.77067 1.18301,-1.8557 2.51844,-0.78503c1.33544,1.07066 0.34401,2.62133 0.34401,2.62133c-0.67628,1.08786 -0.37367,2.27778 -0.37367,2.27778l-2.19908,0.64767c-0.24379,-0.7789 -0.43552,-1.58688 -0.5126,-2.39744c-0.07708,-0.81054 0.07609,-1.72237 0.2229,-2.36432z" fill="#00a08c"/><path d="M238.41175,181.04014l2.82184,-0.80424l0.1336,0.70387l-2.80331,0.80072z" fill="#f01446"/></g><g><g><path d="M239.06053,186.52558c-0.35376,-0.11301 -0.70752,-0.22602 -1.05717,-0.30154c-0.62025,-0.12178 -1.19685,-0.19142 -1.24143,-0.94519c-0.09353,-1.37429 2.17775,-1.24359 3.2865,-0.64423c0.22257,0.12737 -0.98788,1.89096 -0.98788,1.89096z" fill="#dcaa78"/><path d="M235.21772,184.85993c0.11729,-1.70083 1.67816,-1.3027 1.67816,-1.3027l1.78782,0.39226l-0.57751,3.0409c0,0 -0.63079,-0.04475 -1.36348,-0.15421c0,0 -1.64228,-0.27543 -1.52499,-1.97626z" fill="#f01446"/></g><g><path d="M241.59162,190.76248l0.01203,0.28318c-0.1353,-0.02312 -1.83967,-0.51935 -1.83967,-0.51935c0.0773,-0.16019 0.1546,-0.32037 0.22983,-0.49931l1.10054,0.52438v0c0.19973,0.09193 0.37866,0.16718 0.49726,0.21109z" fill="#000000"/><path d="M241.09437,190.55139l-1.10054,-0.52438c0.25091,-0.65335 0.33547,-1.44023 0.14917,-2.10261c-0.1822,-0.62492 -0.65401,-1.12329 -1.26577,-1.34082l0.95301,-2.20957c0.90902,0.50742 1.85564,2.22457 1.85014,3.04071c0.00411,0.03749 0.28738,1.23927 -0.86685,2.99671c0.07907,0.02928 0.17893,0.07525 0.28085,0.13995z" fill="#00a08c"/><path d="M241.11311,190.54934c-0.01875,0.00205 0,0 0,0z" fill="#000000"/></g><path d="M238.69801,186.67905l1.14304,-2.55279l0.36813,0.24419l-1.10966,2.51122z" fill="#008264"/></g></g></g></svg>