<svg version="1.1" xmlns="http://www.w3.org/2000/svg" xmlns:xlink="http://www.w3.org/1999/xlink" width="19.30675" height="22.48785" viewBox="0,0,19.30675,22.48785"><g transform="translate(-230.34662,-169.13495)"><g data-paper-data="{&quot;isPaintingLayer&quot;:true}" fill-rule="evenodd" stroke="none" stroke-width="1" stroke-linecap="butt" stroke-linejoin="miter" stroke-miterlimit="10" stroke-dasharray="" stroke-dashoffset="0" style="mix-blend-mode: normal"><g data-paper-data="{&quot;index&quot;:null}"><g><path d="M244.76485,186.56528c0,0 -1.62141,1.39517 -1.77224,1.18778c-0.71644,-1.03695 -1.09351,-3.28053 0.2828,-3.33709c0.75415,-0.03771 0.88612,0.52789 1.07466,1.13121c0.11312,0.33936 0.26395,0.67873 0.41478,1.01809z" fill="#dcaa78"/><path d="M242.69094,182.92652c1.67797,-0.30166 2.13046,1.3009 2.13046,1.3009c0.18854,0.71643 0.30166,1.33861 0.30166,1.33861l-2.96001,0.90497l-0.58446,-1.73453c0,0 -0.56561,-1.50829 1.11236,-1.80995z" fill="#f01446"/></g><g><path d="M249.252,188.6203c-0.05656,-0.11312 -0.15083,-0.2828 -0.26395,-0.47134v0l-0.64102,-1.03695c0.16969,-0.09426 0.32051,-0.18853 0.47134,-0.2828c0,0 0.67873,1.64026 0.71644,1.77224l-0.2828,0.01886z" fill="#000000"/><path d="M248.98806,188.14898c-0.07541,-0.09427 -0.13197,-0.18854 -0.16968,-0.26395c-1.62141,1.3386 -2.84689,1.18777 -2.8846,1.18777c-0.8107,0.09427 -2.62065,-0.65988 -3.22397,-1.50829l2.09275,-1.18778c0.2828,0.58446 0.82955,0.99924 1.47058,1.11236c0.67873,0.11312 1.45173,-0.05656 2.0739,-0.37707l0.64102,1.03695z" fill="#00a08c"/><path d="M248.98806,188.16782c0,-0.01886 0,0 0,0z" fill="#000000"/></g><path d="M245.12307,186.56526l-2.37556,1.37632l-0.2828,-0.33937l2.41326,-1.41402z" fill="#008264"/></g><g data-paper-data="{&quot;index&quot;:null}"><path d="M239.81989,183.93411c1.18402,0.43692 -0.6838,3.37604 -0.6838,3.37604c0,0 -1.24285,-0.08305 -1.69224,-0.30442c0.04196,-0.20398 1.19202,-3.50854 2.37604,-3.07162z" fill="#dcaa78"/><path d="M239.83965,183.25332c1.45923,0.18333 1.14528,1.28633 1.14528,1.28633l-0.73981,1.85191l-2.79787,-0.25819l0.54005,-1.93132c0,0 0.41396,-1.14866 1.85235,-0.94872z" fill="#f01446"/><g><path d="M234.97025,191.28062c0,0 -0.00396,-0.13325 0.01688,-0.14988c0.17072,0.00024 0.84755,-0.11324 1.01828,-0.11299l1.02807,0.30552c-0.11477,0.1768 -0.18576,0.30161 -0.20449,0.2995c-0.26441,-0.0108 -1.76507,-0.3316 -1.85875,-0.34215z" fill="#000000"/><path d="M237.26495,186.9097l2.22948,0.2511c-0.28179,0.48053 -0.5781,0.92147 -0.65119,1.06502c-0.43852,0.86132 -1.41319,2.44011 -1.82849,3.09534l-1.02807,-0.30552z" fill="#00a08c"/></g><path d="M239.80895,187.06339l-0.31926,0.47631l-2.46671,-0.33473l0.15487,-0.53276z" fill="#008264"/></g><path d="M238.01526,184.13316l0.54676,-3.1297h5.07162c0,0 0.39592,0.60331 0.75414,1.69682c0.13197,0.41478 0.30165,1.11236 0.43363,1.60255z" data-paper-data="{&quot;index&quot;:null}" fill="#f01446"/><g data-paper-data="{&quot;index&quot;:null}"><path d="M236.88404,173.23623c-0.32051,0 -0.65988,-0.2828 -0.71644,-0.58446c-0.05656,-0.30166 0.07542,-0.71644 0.39593,-0.79185c0.41477,-0.11312 0.58445,0.28281 0.75414,0.56561c0.05656,0.39592 0.09427,0.79184 -0.43363,0.8107z" fill="#be8c64"/><path d="M236.69549,173.06656c-0.09427,-0.73529 -0.09427,-1.48944 0.03771,-2.22473l2.65836,-0.45249l1.62141,-0.26395c0.39592,-0.05656 0.43363,-0.11312 0.62217,0.30166c0.33937,0.73529 0.2074,1.79109 -0.01885,2.56409c-0.15082,0.4902 -1.03695,2.09275 -2.46982,2.09275c-1.43288,0 -2.41327,-1.65912 -2.45097,-2.01734z" fill="#dcaa78"/><path d="M241.97452,170.31393c0.4902,-0.20739 0.99924,-0.35822 1.52714,-0.41478c0.58446,-0.07542 1.22549,-0.05656 1.75339,0.2828c0.94268,0.62217 1.43287,2.41327 0.90497,3.43136c-0.30167,0.58446 -0.98039,0.75414 -1.546,0.50905c-0.54676,-0.2451 -0.82956,-0.773 -0.98039,-1.33861c-0.16969,-0.62217 -0.22625,-1.24435 -0.60332,-1.7911c-0.32051,-0.43364 -1.0558,-0.67873 -1.0558,-0.67873z" fill="#000000"/><path d="M241.63514,170.35163c-0.0377,0.13198 -4.22321,1.56484 -5.03391,1.52714c-0.13197,-1.28205 0.37707,-2.33785 1.88536,-2.65836c1.20664,-0.26395 2.58295,0.07542 3.14856,1.13122z" fill="#000000"/><path d="M241.35235,170.06883c0,0 0.47133,-0.18854 0.65987,0.2828c0.11312,0.26395 0.01886,0.56561 -0.20739,0.73529z" fill="#f01446"/><path d="M238.18492,171.84107c0.0377,0.0377 0.07542,0.07542 0.11312,0.11312c0.09428,0.15083 0.13198,0.33937 0.13198,0.50905c-0.01885,0.09427 -0.0377,0.15084 -0.11312,0.18854c-0.09427,0.0377 -0.20739,0.01885 -0.26395,-0.05656c-0.11312,-0.11312 -0.05656,-0.2451 -0.0377,-0.35822c0.0377,-0.13198 0.09426,-0.26395 0.16968,-0.39593z" fill="#be8c64"/><path d="M238.35462,173.5379c0.09427,-0.07542 0.20739,-0.13198 0.32051,-0.18854c0.15083,-0.05656 0.30165,-0.13198 0.47134,-0.18854c0.13198,-0.0377 0.2828,-0.15082 0.41478,-0.16968c0.30167,-0.05656 0.28281,0.33936 0.18854,0.54675c-0.20739,0.43364 -1.16892,0.43364 -1.39517,0z" fill="#000000"/><path d="M239.24073,172.25585l-0.11312,0.0377c-0.07541,-0.05656 -0.07541,-0.30166 -0.05656,-0.37707c0.01885,-0.0377 0.07541,-0.05657 0.15083,-0.03771z" fill="#000000"/><path d="M237.26111,172.31242c-0.03771,-0.09427 -0.05656,-0.18854 -0.03771,-0.26395c0,-0.03771 0.03771,-0.07542 0.05657,-0.07542c0.0377,0 0.05656,0.01886 0.07541,0.05656c0.05656,0.09426 0,0.26394 -0.09427,0.2828z" fill="#000000"/><path d="M239.84405,169.18271c2.94117,0.39593 1.97963,3.45021 1.97963,3.45021l-0.43363,0.05656l-1.52714,-2.41326z" fill="#000000"/><path d="M240.84329,170.04997l-0.50904,2.26244l-0.71644,-1.96078z" fill="#000000"/><path d="M241.39005,171.74679c0,0 0.82957,-0.65988 1.16893,0.03771c0.07541,0.16969 -0.03771,0.58446 -0.07542,0.79185c-0.05656,0.22625 -0.2828,0.37708 -0.49019,0.43364c-0.26396,0.07542 -0.81071,-0.07541 -1.0181,-0.07541c0.01885,-0.35822 0.41478,-1.18778 0.41478,-1.18778z" fill="#dcaa78"/></g><g data-paper-data="{&quot;index&quot;:null}"><path d="M230.964,178.15655c0.11312,-0.11312 -0.56561,-0.41477 -0.5279,-0.50904c0.0377,-0.09427 0.65987,0.26395 0.73529,0.16968c0.07541,-0.09427 -0.56561,-0.39593 -0.5279,-0.45249c0.0377,-0.07541 0.2828,0.07542 0.79185,0.22625c0.18853,0.05656 0.60331,0.2074 0.82956,0.2451c0.2828,0.05656 0.58447,0.05657 0.86727,0.03771c-0.01885,0.01885 1.50829,-0.26395 1.96078,-0.41478c0.26395,-0.09427 1.15007,-0.56561 1.90421,-0.86727v2.33785c-0.73529,0.16968 -2.46982,0.54675 -4.05353,0.2828c-1.3009,-0.22625 -2.54524,-1.07466 -2.58295,-1.18778c-0.11312,-0.26395 0.4902,0.22624 0.60332,0.13197z" fill="#dcaa78"/><path d="M238.80711,175.53591c0,0 0.77299,-0.32051 1.28204,0.90497c0.52789,1.24434 -1.03695,1.8288 -1.03695,1.8288c-0.5279,0.26395 -2.01734,0.56561 -2.01734,0.56561l-0.65987,-2.18702c0,0 2.45097,-1.13122 2.43212,-1.11236z" fill="#008264"/><path d="M236.69549,176.32775l0.69759,2.67722l-0.50905,0.18853l-0.79185,-2.52638z" fill="#f01446"/><path d="M231.737,177.66636c-0.13198,-0.22625 -0.30166,-0.43364 -0.20739,-0.50905c0.07541,-0.07542 0.90497,0.69758 0.90497,0.69758c0,0 -0.07541,0.32051 -0.39592,0.33937c-0.30166,0.01885 -0.65988,-0.28281 -0.30166,-0.5279z" fill="#be8c64"/></g><path d="M240.03259,175.19654c0.58446,0.05656 2.05505,-0.15083 2.96002,1.97963c0.64102,1.50829 2.14931,6.41023 2.14931,6.41023l-7.22094,-0.56561c0,0 0.11312,-3.84613 0.33937,-6.10857c0.16968,-1.64027 1.0181,-1.77224 1.77224,-1.71568z" data-paper-data="{&quot;index&quot;:null}" fill="#0066a1"/><g data-paper-data="{&quot;index&quot;:null}"><path d="M247.72486,179.21236c0.09427,0.15083 0.67873,1.77224 0.26395,1.88536c-0.18853,-0.07541 -0.33937,-1.71568 -0.26395,-1.88536z" fill="#be8c64"/><path d="M243.2,174.53665c0.67873,-0.07541 2.22472,0.18854 2.79033,0.5279c0.69758,0.41478 1.31975,0.90498 1.77224,1.58371c0.82956,1.26319 1.97963,4.16664 1.88536,4.29862c-0.09427,0.13197 -0.30165,-0.67873 -0.5279,-0.60332c-0.22624,0.07542 0.2451,0.88613 0.11312,0.99925c-0.11312,0.11312 -0.50905,-0.88611 -0.62217,-0.8107c-0.11312,0.07541 0.26395,0.773 0.20739,0.8107c-0.05656,0.05656 -1.24434,-2.03619 -1.92307,-2.8469c-0.32051,-0.37707 -0.92382,-1.07466 -1.3386,-1.35746c-0.5279,-0.35822 -1.30091,-0.58446 -1.96078,-0.47134c0,0 -1.24433,0.28281 -1.3386,-0.82956c-0.09427,-1.13121 0.94268,-1.30089 0.94268,-1.30089z" fill="#dcaa78"/><path d="M239.41042,175.06457c0.60331,-0.26394 1.47059,-0.58446 2.28129,-0.65987c0.81071,-0.07542 1.64027,-0.03771 2.45097,0.05656l-0.22625,2.28128c0,0 -1.22548,-0.07542 -2.16816,0.79185c0,0 -1.3386,1.26319 -2.6395,0.15082c-1.30091,-1.11236 -0.41479,-2.26243 0.30165,-2.62065z" fill="#00a08c"/><path d="M244.48204,174.235l-0.26395,2.90346h-0.71644l0.26395,-2.92231z" fill="#f01446"/></g></g></g></svg>