<svg version="1.1" xmlns="http://www.w3.org/2000/svg" xmlns:xlink="http://www.w3.org/1999/xlink" width="19.30675" height="21.71637" viewBox="0,0,19.30675,21.71637"><g transform="translate(-230.34663,-169.13495)"><g data-paper-data="{&quot;isPaintingLayer&quot;:true}" fill-rule="evenodd" stroke="none" stroke-width="1" stroke-linecap="butt" stroke-linejoin="miter" stroke-miterlimit="10" stroke-dasharray="" stroke-dashoffset="0" style="mix-blend-mode: normal"><g><g><path d="M235.23515,186.56527c0.15083,-0.33936 0.30166,-0.67873 0.41478,-1.01809c0.18854,-0.60332 0.32051,-1.16892 1.07466,-1.13121c1.37631,0.05656 0.99924,2.30014 0.2828,3.33709c-0.15083,0.20739 -1.77224,-1.18778 -1.77224,-1.18778z" fill="#dcaa78"/><path d="M237.30905,182.92652c1.67797,0.30166 1.11236,1.80995 1.11236,1.80995l-0.58446,1.73453l-2.96001,-0.90497c0,0 0.11312,-0.62218 0.30166,-1.33861c0,0 0.45249,-1.60256 2.13046,-1.3009z" fill="#f01446"/></g><g><path d="M230.74799,188.62031l-0.2828,-0.01886c0.03771,-0.13198 0.71644,-1.77224 0.71644,-1.77224c0.15083,0.09427 0.30165,0.18854 0.47134,0.2828l-0.64102,1.03695v0c-0.11312,0.18854 -0.20739,0.35822 -0.26395,0.47134z" fill="#000000"/><path d="M231.01194,188.14897l0.64102,-1.03695c0.62217,0.32051 1.39517,0.49019 2.0739,0.37707c0.64103,-0.11312 1.18778,-0.5279 1.47058,-1.11236l2.09275,1.18778c-0.60332,0.84841 -2.41327,1.60256 -3.22397,1.50829c-0.03771,0 -1.26319,0.15083 -2.8846,-1.18777c-0.03771,0.07541 -0.09427,0.16968 -0.16968,0.26395z" fill="#00a08c"/><path d="M231.01194,188.16782c0,0 0,-0.01886 0,0z" fill="#000000"/></g><path d="M235.12203,186.18819l2.41326,1.41402l-0.2828,0.33937l-2.37556,-1.37632z" fill="#008264"/></g><g><path d="M243.31736,186.49895c-0.38648,0.31873 -1.57697,0.68522 -1.57697,0.68522c0,0 -2.49337,-2.43111 -1.44147,-3.12848c1.0519,-0.69737 2.93071,2.25438 3.01843,2.44325z" fill="#dcaa78"/><path d="M240.12322,183.39769c1.35393,-0.5252 2.02082,0.49755 2.02082,0.49755l0.9695,1.75548l-2.66362,0.89436l-1.14566,-1.63228c0,0 -0.55906,-1.00131 0.81896,-1.51513z" fill="#f01446"/><g><path d="M246.70732,190.09083c-0.08874,0.0318 -1.4755,0.68893 -1.73034,0.76022c-0.01774,0.00636 -0.11552,-0.09879 -0.26786,-0.24448l0.93032,-0.53364c0.1661,-0.03949 0.85089,-0.08462 1.01699,-0.12408c0.0241,0.0114 0.05087,0.14199 0.05087,0.14199z" fill="#000000"/><path d="M245.65719,190.06658l-0.93032,0.53364c-0.55478,-0.54223 -1.86624,-1.85472 -2.491,-2.59219c-0.10413,-0.1229 -0.49385,-0.48393 -0.87855,-0.88683l2.11208,-0.75682z" fill="#00a08c"/></g><path d="M243.49959,186.11322l0.27318,0.4829l-2.32373,0.89273l-0.42019,-0.39018z" fill="#008264"/></g><path d="M235.17859,184.30283c0.13198,-0.49019 0.30166,-1.18777 0.43363,-1.60255c0.35822,-1.09351 0.75414,-1.69682 0.75414,-1.69682h5.07162l0.54676,3.1297z" fill="#f01446"/><g><path d="M242.68233,172.42553c0.16969,-0.2828 0.33937,-0.67873 0.75414,-0.56561c0.32051,0.07541 0.45249,0.49019 0.39593,0.79185c-0.05656,0.30166 -0.39593,0.58446 -0.71644,0.58446c-0.5279,-0.01886 -0.49019,-0.41478 -0.43363,-0.8107z" fill="#be8c64"/><path d="M243.3045,173.06655c-0.0377,0.35822 -1.01809,2.01734 -2.45097,2.01734c-1.43287,0 -2.319,-1.60255 -2.46982,-2.09275c-0.22625,-0.773 -0.35822,-1.8288 -0.01885,-2.56409c0.18854,-0.41478 0.22625,-0.35822 0.62217,-0.30166l1.62141,0.26395l2.65836,0.45249c0.13198,0.73529 0.13198,1.48944 0.03771,2.22473z" fill="#dcaa78"/><path d="M238.02549,170.31392c0,0 -0.73529,0.24509 -1.0558,0.67873c-0.37707,0.54675 -0.43363,1.16893 -0.60332,1.7911c-0.15083,0.56561 -0.43363,1.09351 -0.98039,1.33861c-0.56561,0.24509 -1.24433,0.07541 -1.546,-0.50905c-0.5279,-1.01809 -0.03771,-2.80919 0.90497,-3.43136c0.5279,-0.33936 1.16893,-0.35822 1.75339,-0.2828c0.5279,0.05656 1.03694,0.20739 1.52714,0.41478z" fill="#000000"/><path d="M238.36485,170.35163c0.56561,-1.0558 1.94192,-1.39517 3.14856,-1.13122c1.50829,0.32051 2.01733,1.37631 1.88536,2.65836c-0.8107,0.0377 -4.99621,-1.39516 -5.03391,-1.52714z" fill="#000000"/><path d="M238.19517,171.08692c-0.22625,-0.16968 -0.32051,-0.47134 -0.20739,-0.73529c0.18854,-0.47134 0.65987,-0.2828 0.65987,-0.2828z" fill="#f01446"/><path d="M241.81507,171.84107c0.07542,0.13198 0.13198,0.26395 0.16968,0.39593c0.01886,0.11312 0.07542,0.2451 -0.0377,0.35822c-0.05656,0.07541 -0.16968,0.09426 -0.26395,0.05656c-0.07542,-0.0377 -0.09427,-0.09427 -0.11312,-0.18854c0,-0.16968 0.0377,-0.35822 0.13198,-0.50905c0.0377,-0.0377 0.07542,-0.07542 0.11312,-0.11312z" fill="#be8c64"/><path d="M241.64538,173.53789c-0.22625,0.43364 -1.18778,0.43364 -1.39517,0c-0.09427,-0.20739 -0.11313,-0.60331 0.18854,-0.54675c0.13198,0.01886 0.2828,0.13198 0.41478,0.16968c0.16969,0.05656 0.32051,0.13198 0.47134,0.18854c0.11312,0.05656 0.22624,0.11312 0.32051,0.18854z" fill="#000000"/><path d="M240.77812,171.87877c0.07542,-0.01886 0.13198,0.00001 0.15083,0.03771c0.01885,0.07541 0.01885,0.32051 -0.05656,0.37707l-0.11312,-0.0377z" fill="#000000"/><path d="M242.73889,172.31241c-0.09427,-0.01886 -0.15083,-0.18854 -0.09427,-0.2828c0.01885,-0.0377 0.03771,-0.05656 0.07541,-0.05656c0.01886,0 0.05657,0.03771 0.05657,0.07542c0.01885,0.07541 0,0.16968 -0.03771,0.26395z" fill="#000000"/><path d="M240.13709,170.27622l-1.52714,2.41326l-0.43363,-0.05656c0,0 -0.96154,-3.05428 1.97963,-3.45021z" fill="#000000"/><path d="M240.38219,170.35163l-0.71644,1.96078l-0.50904,-2.26244z" fill="#000000"/><path d="M238.60995,171.7468c0,0 0.39593,0.82956 0.41478,1.18778c-0.20739,0 -0.75414,0.15083 -1.0181,0.07541c-0.20739,-0.05656 -0.43363,-0.20739 -0.49019,-0.43364c-0.03771,-0.20739 -0.15083,-0.62216 -0.07542,-0.79185c0.33936,-0.69759 1.16893,-0.03771 1.16893,-0.03771z" fill="#dcaa78"/></g><g><path d="M249.63932,178.02458c-0.03771,0.11312 -1.28205,0.96153 -2.58295,1.18778c-1.58371,0.26395 -3.31824,-0.11312 -4.05353,-0.2828v-2.33785c0.75414,0.30166 1.64026,0.773 1.90421,0.86727c0.45249,0.15083 1.97963,0.43363 1.96078,0.41478c0.2828,0.01886 0.58447,0.01885 0.86727,-0.03771c0.22625,-0.0377 0.64103,-0.18854 0.82956,-0.2451c0.50905,-0.15083 0.75415,-0.30166 0.79185,-0.22625c0.03771,0.05656 -0.60331,0.35822 -0.5279,0.45249c0.07542,0.09427 0.69759,-0.26395 0.73529,-0.16968c0.03771,0.09427 -0.64102,0.39592 -0.5279,0.50904c0.11312,0.09427 0.71644,-0.39592 0.60332,-0.13197z" fill="#dcaa78"/><path d="M243.62501,176.64827l-0.65987,2.18702c0,0 -1.48944,-0.30166 -2.01734,-0.56561c0,0 -1.56484,-0.58446 -1.03695,-1.8288c0.50905,-1.22548 1.28204,-0.90497 1.28204,-0.90497c-0.01885,-0.01886 2.43212,1.11236 2.43212,1.11236z" fill="#008264"/><path d="M243.90782,176.66712l-0.79185,2.52638l-0.50905,-0.18853l0.69759,-2.67722z" fill="#f01446"/><path d="M247.96134,178.19426c-0.32051,-0.01886 -0.39592,-0.33937 -0.39592,-0.33937c0,0 0.82956,-0.773 0.90497,-0.69758c0.09427,0.07541 -0.07541,0.2828 -0.20739,0.50905c0.35822,0.24509 0,0.54675 -0.30166,0.5279z" fill="#be8c64"/></g><path d="M241.73965,176.91222c0.22625,2.26244 0.33937,6.10857 0.33937,6.10857l-7.22094,0.56561c0,0 1.50829,-4.90194 2.14931,-6.41023c0.90497,-2.13046 2.37556,-1.92307 2.96002,-1.97963c0.75414,-0.05656 1.60256,0.07541 1.77224,1.71568z" fill="#0066a1"/><g><path d="M232.01119,181.09772c-0.41478,-0.11312 0.16968,-1.73453 0.26395,-1.88536c0.07542,0.16968 -0.07542,1.80995 -0.26395,1.88536z" fill="#be8c64"/><path d="M236.8,174.53666c0,0 1.03695,0.16968 0.94268,1.30089c-0.09427,1.11237 -1.3386,0.82956 -1.3386,0.82956c-0.65987,-0.11312 -1.43288,0.11312 -1.96078,0.47134c-0.41478,0.2828 -1.01809,0.98039 -1.3386,1.35746c-0.67873,0.81071 -1.86651,2.90346 -1.92307,2.8469c-0.05656,-0.0377 0.32051,-0.73529 0.20739,-0.8107c-0.11312,-0.07541 -0.50905,0.92382 -0.62217,0.8107c-0.13198,-0.11312 0.33936,-0.92383 0.11312,-0.99925c-0.22625,-0.07541 -0.43363,0.73529 -0.5279,0.60332c-0.09427,-0.13198 1.0558,-3.03543 1.88536,-4.29862c0.45249,-0.67873 1.07466,-1.16893 1.77224,-1.58371c0.56561,-0.33936 2.1116,-0.60331 2.79033,-0.5279z" fill="#dcaa78"/><path d="M240.58958,175.06456c0.71644,0.35822 1.60256,1.50829 0.30165,2.62065c-1.3009,1.11237 -2.6395,-0.15082 -2.6395,-0.15082c-0.94268,-0.86727 -2.16816,-0.79185 -2.16816,-0.79185l-0.22625,-2.28128c0.8107,-0.09427 1.64026,-0.13198 2.45097,-0.05656c0.8107,0.07541 1.67798,0.39593 2.28129,0.65987z" fill="#00a08c"/><path d="M236.2344,174.21615l0.26395,2.92231h-0.71644l-0.26395,-2.90346z" fill="#f01446"/></g></g></g></svg>