<svg xmlns="http://www.w3.org/2000/svg" fill="none" viewBox="0 0 45 16" height="16" width="45">
<rect stroke="black" fill="#AF99A9" rx="4.5" height="15" width="44" y="0.5" x="0.5"></rect>
<path fill="black" d="M11.6076 6.405C12.0042 6.405 12.2959 6.50667 12.4826 6.71C12.6726 6.91333 12.7676 7.18 12.7676 7.51C12.7676 7.73667 12.7142 7.93333 12.6076 8.1C12.5042 8.26667 12.3626 8.39667 12.1826 8.49C12.0026 8.58 11.7992 8.625 11.5726 8.625C11.4659 8.625 11.3526 8.61333 11.2326 8.59C11.1159 8.56667 10.9942 8.52167 10.8676 8.455L10.8926 8.39C10.9192 8.47333 10.9409 8.57667 10.9576 8.7C10.9776 8.82 10.9926 8.945 11.0026 9.075C11.0159 9.20167 11.0226 9.31833 11.0226 9.425C11.0226 9.62167 10.9892 9.77333 10.9226 9.88C10.8592 9.98333 10.7642 10.035 10.6376 10.035C10.5309 10.035 10.4459 10.0017 10.3826 9.935C10.3226 9.86833 10.2809 9.75833 10.2576 9.605C10.2342 9.45167 10.2226 9.24667 10.2226 8.99C10.2226 8.49667 10.2442 8.07667 10.2876 7.73C10.3342 7.38 10.4126 7.105 10.5226 6.905C10.6092 6.75167 10.7426 6.63 10.9226 6.54C11.1059 6.45 11.3342 6.405 11.6076 6.405ZM11.5126 8.035C11.7126 8.035 11.8742 7.98167 11.9976 7.875C12.1242 7.76833 12.1876 7.61333 12.1876 7.41C12.1876 7.27667 12.1426 7.16667 12.0526 7.08C11.9659 6.99 11.8292 6.945 11.6426 6.945C11.5059 6.945 11.3876 6.97667 11.2876 7.04C11.1876 7.1 11.1109 7.185 11.0576 7.295C11.0076 7.40167 10.9826 7.525 10.9826 7.665C10.9826 7.795 11.0242 7.89 11.1076 7.95C11.1942 8.00667 11.3292 8.035 11.5126 8.035ZM14.5956 10.04C14.2256 10.04 13.9306 9.985 13.7106 9.875C13.4906 9.765 13.3323 9.60667 13.2356 9.4C13.139 9.19333 13.0906 8.94667 13.0906 8.66C13.0906 8.29667 13.1573 7.98833 13.2906 7.735C13.4273 7.47833 13.614 7.28167 13.8506 7.145C14.0906 7.00833 14.3623 6.94 14.6656 6.94C15.0223 6.94 15.284 7.02333 15.4506 7.19C15.6173 7.35333 15.7006 7.56833 15.7006 7.835C15.7006 8.04833 15.644 8.23333 15.5306 8.39C15.4206 8.54333 15.2673 8.66167 15.0706 8.745C14.874 8.82833 14.6473 8.87 14.3906 8.87C14.2473 8.87 14.109 8.85167 13.9756 8.815C13.8423 8.77833 13.7223 8.72833 13.6156 8.665L13.7356 8.445C13.7256 8.525 13.7206 8.605 13.7206 8.685C13.7206 8.91833 13.794 9.08667 13.9406 9.19C14.0873 9.29 14.2956 9.34 14.5656 9.34C14.7756 9.34 14.944 9.32167 15.0706 9.285C15.1973 9.24833 15.304 9.21333 15.3906 9.18C15.4773 9.14333 15.5623 9.125 15.6456 9.125C15.6923 9.125 15.734 9.13833 15.7706 9.165C15.8106 9.18833 15.8423 9.22333 15.8656 9.27C15.8923 9.31667 15.9056 9.37333 15.9056 9.44C15.9056 9.54 15.8556 9.63667 15.7556 9.73C15.6556 9.82 15.5073 9.895 15.3106 9.955C15.1173 10.0117 14.879 10.04 14.5956 10.04ZM14.3056 8.405C14.5423 8.405 14.7323 8.355 14.8756 8.255C15.019 8.155 15.0906 8.03167 15.0906 7.885C15.0906 7.76833 15.0506 7.67333 14.9706 7.6C14.894 7.52333 14.7723 7.485 14.6056 7.485C14.449 7.485 14.3073 7.515 14.1806 7.575C14.0573 7.63167 13.9606 7.70667 13.8906 7.8C13.8206 7.89333 13.7856 7.995 13.7856 8.105C13.7856 8.20167 13.8306 8.27667 13.9206 8.33C14.014 8.38 14.1423 8.405 14.3056 8.405ZM16.855 6.89C16.9617 6.89 17.0334 6.93333 17.07 7.02C17.11 7.10667 17.13 7.235 17.13 7.405C17.13 7.445 17.1267 7.48833 17.12 7.535C17.1167 7.57833 17.11 7.61833 17.1 7.655L17.09 7.555C17.17 7.33833 17.2934 7.17 17.46 7.05C17.6267 6.92667 17.8034 6.865 17.99 6.865C18.1967 6.865 18.3684 6.92333 18.505 7.04C18.645 7.15667 18.7484 7.32 18.815 7.53C18.885 7.74 18.92 7.98833 18.92 8.275C18.92 8.45167 18.9117 8.62667 18.895 8.8C18.8817 8.97 18.8617 9.12667 18.835 9.27C18.8117 9.41 18.785 9.525 18.755 9.615C18.715 9.72833 18.6634 9.81333 18.6 9.87C18.5367 9.92333 18.4617 9.95 18.375 9.95C18.2884 9.95 18.2217 9.91833 18.175 9.855C18.1284 9.79167 18.105 9.70667 18.105 9.6C18.105 9.48667 18.1134 9.35 18.13 9.19C18.1467 9.02667 18.1617 8.86167 18.175 8.695C18.1917 8.525 18.2 8.37167 18.2 8.235C18.2 7.76833 18.0467 7.535 17.74 7.535C17.5767 7.535 17.44 7.60833 17.33 7.755C17.22 7.89833 17.1467 8.10333 17.11 8.37C17.1 8.46 17.095 8.57167 17.095 8.705C17.095 8.83833 17.095 8.97167 17.095 9.105C17.0984 9.235 17.095 9.345 17.085 9.435C17.0717 9.635 17.0334 9.77833 16.97 9.865C16.91 9.95167 16.8267 9.995 16.72 9.995C16.5967 9.995 16.5034 9.93833 16.44 9.825C16.3767 9.70833 16.345 9.51333 16.345 9.24C16.345 9.1 16.3484 8.94333 16.355 8.77C16.3617 8.59667 16.37 8.42333 16.38 8.25C16.3934 8.07333 16.4084 7.91333 16.425 7.77C16.4584 7.5 16.5067 7.28667 16.57 7.13C16.6334 6.97 16.7284 6.89 16.855 6.89ZM20.4836 9.92C20.1703 9.92 19.9153 9.8 19.7186 9.56C19.522 9.31667 19.4236 8.94833 19.4236 8.455C19.4236 7.92833 19.5186 7.54333 19.7086 7.3C19.8986 7.05667 20.1486 6.935 20.4586 6.935C20.642 6.935 20.8036 6.98167 20.9436 7.075C21.0836 7.16833 21.2036 7.3 21.3036 7.47L21.2636 7.54C21.2536 7.49333 21.2453 7.44333 21.2386 7.39C21.232 7.33667 21.2286 7.29667 21.2286 7.27C21.2286 7.13333 21.2503 7.02833 21.2936 6.955C21.3403 6.87833 21.412 6.84 21.5086 6.84C21.6153 6.84 21.6986 6.88333 21.7586 6.97C21.822 7.05667 21.8703 7.18 21.9036 7.34C21.947 7.50333 21.9836 7.71167 22.0136 7.965C22.0436 8.215 22.0586 8.46833 22.0586 8.725C22.0586 9.045 22.047 9.31333 22.0236 9.53C22.0003 9.74667 21.962 9.92667 21.9086 10.07C21.8553 10.2133 21.7853 10.3383 21.6986 10.445C21.5553 10.6183 21.3703 10.75 21.1436 10.84C20.9203 10.9333 20.662 10.98 20.3686 10.98C20.1586 10.98 19.9903 10.96 19.8636 10.92C19.737 10.8833 19.6453 10.8317 19.5886 10.765C19.5353 10.7017 19.5086 10.63 19.5086 10.55C19.5086 10.4667 19.532 10.3967 19.5786 10.34C19.6253 10.2867 19.6953 10.26 19.7886 10.26C19.872 10.26 19.9686 10.2733 20.0786 10.3C20.192 10.3267 20.3253 10.34 20.4786 10.34C20.802 10.34 21.0303 10.2633 21.1636 10.11C21.3003 9.96 21.3686 9.74333 21.3686 9.46C21.3686 9.38333 21.3636 9.29333 21.3536 9.19L21.4236 9.215C21.3403 9.42833 21.217 9.6 21.0536 9.73C20.8903 9.85667 20.7003 9.92 20.4836 9.92ZM20.6736 9.305C20.7803 9.305 20.887 9.27667 20.9936 9.22C21.1003 9.16333 21.1886 9.07 21.2586 8.94C21.3286 8.81 21.3636 8.635 21.3636 8.415C21.3636 8.15167 21.302 7.93667 21.1786 7.77C21.0553 7.60333 20.882 7.52 20.6586 7.52C20.4653 7.52 20.3236 7.59333 20.2336 7.74C20.1436 7.88667 20.0986 8.10833 20.0986 8.405C20.0986 8.68833 20.1436 8.91 20.2336 9.07C20.3236 9.22667 20.4703 9.305 20.6736 9.305ZM23.6233 9.92C23.3099 9.92 23.0549 9.8 22.8583 9.56C22.6616 9.31667 22.5633 8.94833 22.5633 8.455C22.5633 7.92833 22.6583 7.54333 22.8483 7.3C23.0383 7.05667 23.2883 6.935 23.5983 6.935C23.7816 6.935 23.9433 6.98167 24.0833 7.075C24.2233 7.16833 24.3433 7.3 24.4433 7.47L24.4033 7.54C24.3933 7.49333 24.3849 7.44333 24.3783 7.39C24.3716 7.33667 24.3683 7.29667 24.3683 7.27C24.3683 7.13333 24.3899 7.02833 24.4333 6.955C24.4799 6.87833 24.5516 6.84 24.6483 6.84C24.7549 6.84 24.8383 6.88333 24.8983 6.97C24.9616 7.05667 25.0099 7.18 25.0433 7.34C25.0866 7.50333 25.1233 7.71167 25.1533 7.965C25.1833 8.215 25.1983 8.46833 25.1983 8.725C25.1983 9.045 25.1866 9.31333 25.1633 9.53C25.1399 9.74667 25.1016 9.92667 25.0483 10.07C24.9949 10.2133 24.9249 10.3383 24.8383 10.445C24.6949 10.6183 24.5099 10.75 24.2833 10.84C24.0599 10.9333 23.8016 10.98 23.5083 10.98C23.2983 10.98 23.1299 10.96 23.0033 10.92C22.8766 10.8833 22.7849 10.8317 22.7283 10.765C22.6749 10.7017 22.6483 10.63 22.6483 10.55C22.6483 10.4667 22.6716 10.3967 22.7183 10.34C22.7649 10.2867 22.8349 10.26 22.9283 10.26C23.0116 10.26 23.1083 10.2733 23.2183 10.3C23.3316 10.3267 23.4649 10.34 23.6183 10.34C23.9416 10.34 24.1699 10.2633 24.3033 10.11C24.4399 9.96 24.5083 9.74333 24.5083 9.46C24.5083 9.38333 24.5033 9.29333 24.4933 9.19L24.5633 9.215C24.4799 9.42833 24.3566 9.6 24.1933 9.73C24.0299 9.85667 23.8399 9.92 23.6233 9.92ZM23.8133 9.305C23.9199 9.305 24.0266 9.27667 24.1333 9.22C24.2399 9.16333 24.3283 9.07 24.3983 8.94C24.4683 8.81 24.5033 8.635 24.5033 8.415C24.5033 8.15167 24.4416 7.93667 24.3183 7.77C24.1949 7.60333 24.0216 7.52 23.7983 7.52C23.6049 7.52 23.4633 7.59333 23.3733 7.74C23.2833 7.88667 23.2383 8.10833 23.2383 8.405C23.2383 8.68833 23.2833 8.91 23.3733 9.07C23.4633 9.22667 23.6099 9.305 23.8133 9.305ZM27.9929 10.05C27.8796 10.05 27.8013 10.0067 27.7579 9.92C27.7179 9.83 27.6946 9.68833 27.6879 9.495L27.7379 9.52C27.5513 9.88333 27.1979 10.065 26.6779 10.065C26.4413 10.065 26.2446 10.0233 26.0879 9.94C25.9313 9.85333 25.8146 9.74 25.7379 9.6C25.6646 9.45667 25.6279 9.30167 25.6279 9.135C25.6279 8.84833 25.7279 8.62167 25.9279 8.455C26.1279 8.285 26.3929 8.2 26.7229 8.2C26.9396 8.2 27.1279 8.23167 27.2879 8.295C27.4479 8.35833 27.5846 8.44667 27.6979 8.56L27.6129 8.55C27.5896 8.21333 27.5163 7.97333 27.3929 7.83C27.2729 7.68333 27.1013 7.61 26.8779 7.61C26.7479 7.61 26.6279 7.63 26.5179 7.67C26.4079 7.71 26.3063 7.75167 26.2129 7.795C26.1229 7.835 26.0379 7.855 25.9579 7.855C25.8779 7.855 25.8146 7.82833 25.7679 7.775C25.7246 7.72167 25.7029 7.65333 25.7029 7.57C25.7029 7.45 25.7596 7.33667 25.8729 7.23C25.9896 7.12333 26.1429 7.03667 26.3329 6.97C26.5229 6.90333 26.7296 6.87 26.9529 6.87C27.2229 6.87 27.4546 6.935 27.6479 7.065C27.8413 7.195 27.9879 7.385 28.0879 7.635C28.1746 7.84833 28.2363 8.08667 28.2729 8.35C28.3096 8.61333 28.3279 8.895 28.3279 9.195C28.3279 9.42167 28.3163 9.59667 28.2929 9.72C28.2696 9.84333 28.2329 9.93 28.1829 9.98C28.1363 10.0267 28.0729 10.05 27.9929 10.05ZM26.8879 9.49C26.9979 9.49 27.1096 9.475 27.2229 9.445C27.3363 9.41167 27.4313 9.36333 27.5079 9.3C27.5846 9.23667 27.6229 9.15833 27.6229 9.065C27.6229 8.985 27.5896 8.92 27.5229 8.87C27.4596 8.81667 27.3746 8.77667 27.2679 8.75C27.1646 8.72333 27.0529 8.71 26.9329 8.71C26.7296 8.71 26.5746 8.745 26.4679 8.815C26.3646 8.885 26.3129 8.97833 26.3129 9.095C26.3129 9.22167 26.3613 9.32 26.4579 9.39C26.5579 9.45667 26.7013 9.49 26.8879 9.49ZM28.9378 7.745C28.9378 7.425 28.9678 7.195 29.0278 7.055C29.0878 6.91167 29.1728 6.84 29.2828 6.84C29.3695 6.84 29.4378 6.87667 29.4878 6.95C29.5378 7.02 29.5745 7.10833 29.5978 7.215C29.6211 7.31833 29.6328 7.42333 29.6328 7.53L29.6078 7.52C29.6645 7.34 29.7511 7.185 29.8678 7.055C29.9878 6.925 30.1311 6.86 30.2978 6.86C30.4945 6.86 30.6395 6.94167 30.7328 7.105C30.8261 7.265 30.8728 7.465 30.8728 7.705C30.8728 8.025 30.8361 8.24833 30.7628 8.375C30.6895 8.50167 30.5911 8.565 30.4678 8.565C30.3778 8.565 30.3111 8.52833 30.2678 8.455C30.2278 8.38167 30.2145 8.25167 30.2278 8.065C30.2411 7.86833 30.2295 7.73167 30.1928 7.655C30.1561 7.57833 30.0978 7.54 30.0178 7.54C29.9211 7.54 29.8411 7.60167 29.7778 7.725C29.7178 7.845 29.6878 7.99333 29.6878 8.17C29.6878 8.24 29.6961 8.32833 29.7128 8.435C29.7295 8.54167 29.7478 8.65833 29.7678 8.785C29.7878 8.90833 29.8061 9.03167 29.8228 9.155C29.8395 9.27833 29.8478 9.39167 29.8478 9.495C29.8478 9.67833 29.8195 9.81 29.7628 9.89C29.7061 9.97 29.6261 10.01 29.5228 10.01C29.4061 10.01 29.3161 9.97333 29.2528 9.9C29.1895 9.82333 29.1411 9.7 29.1078 9.53C29.0811 9.37667 29.0545 9.195 29.0278 8.985C29.0011 8.775 28.9795 8.56 28.9628 8.34C28.9461 8.12 28.9378 7.92167 28.9378 7.745ZM31.7557 6.165C31.8891 6.165 31.9841 6.20167 32.0407 6.275C32.1007 6.34833 32.1307 6.43333 32.1307 6.53C32.1307 6.65 32.0941 6.74333 32.0207 6.81C31.9507 6.87333 31.8507 6.905 31.7207 6.905C31.5941 6.905 31.4991 6.87 31.4357 6.8C31.3724 6.72667 31.3407 6.64167 31.3407 6.545C31.3407 6.41833 31.3791 6.32333 31.4557 6.26C31.5324 6.19667 31.6324 6.165 31.7557 6.165ZM31.7857 7.28C31.8924 7.28 31.9757 7.38 32.0357 7.58C32.0991 7.78 32.1307 8.09833 32.1307 8.535C32.1307 9.07167 32.0924 9.45833 32.0157 9.695C31.9391 9.93167 31.8224 10.05 31.6657 10.05C31.5457 10.05 31.4574 9.96333 31.4007 9.79C31.3441 9.61333 31.3157 9.30667 31.3157 8.87C31.3157 8.33333 31.3591 7.935 31.4457 7.675C31.5357 7.41167 31.6491 7.28 31.7857 7.28ZM34.0065 6.87C34.3032 6.87 34.5165 6.91333 34.6465 7C34.7765 7.08667 34.8415 7.19833 34.8415 7.335C34.8415 7.415 34.8132 7.48167 34.7565 7.535C34.7032 7.585 34.6265 7.61 34.5265 7.61C34.4232 7.61 34.3149 7.595 34.2015 7.565C34.0915 7.535 33.9632 7.52 33.8165 7.52C33.6465 7.52 33.5199 7.55333 33.4365 7.62C33.3532 7.68667 33.3115 7.77167 33.3115 7.875C33.3115 7.97167 33.3482 8.04833 33.4215 8.105C33.4982 8.15833 33.6432 8.19833 33.8565 8.225C34.0932 8.25167 34.2882 8.295 34.4415 8.355C34.5982 8.41167 34.7149 8.49833 34.7915 8.615C34.8682 8.72833 34.9065 8.885 34.9065 9.085C34.9065 9.40167 34.7949 9.63667 34.5715 9.79C34.3482 9.94333 34.0399 10.02 33.6465 10.02C33.3965 10.02 33.1982 10 33.0515 9.96C32.9049 9.92 32.7982 9.86333 32.7315 9.79C32.6682 9.71667 32.6365 9.63 32.6365 9.53C32.6365 9.44333 32.6649 9.37667 32.7215 9.33C32.7815 9.28 32.8515 9.255 32.9315 9.255C33.0082 9.255 33.0899 9.265 33.1765 9.285C33.2632 9.30167 33.3549 9.32 33.4515 9.34C33.5482 9.36 33.6482 9.37 33.7515 9.37C34.0849 9.37 34.2515 9.26667 34.2515 9.06C34.2515 8.99 34.2349 8.93333 34.2015 8.89C34.1682 8.84667 34.1082 8.81167 34.0215 8.785C33.9349 8.755 33.8082 8.73167 33.6415 8.715C33.4415 8.695 33.2682 8.66167 33.1215 8.615C32.9749 8.565 32.8615 8.485 32.7815 8.375C32.7015 8.26167 32.6615 8.10667 32.6615 7.91C32.6615 7.6 32.7782 7.35 33.0115 7.16C33.2449 6.96667 33.5765 6.87 34.0065 6.87Z"></path>
</svg>
