<svg width="240" height="10" viewBox="0 0 240 10" fill="none" xmlns="http://www.w3.org/2000/svg">
<path d="M1.188 8.09C1.08 8.09 0.993 8.054 0.927 7.982C0.861 7.904 0.807 7.781 0.765 7.613C0.723 7.421 0.684 7.121 0.648 6.713C0.612 6.299 0.594 5.837 0.594 5.327C0.594 4.775 0.609 4.238 0.639 3.716C0.675 3.188 0.726 2.723 0.792 2.321C0.84 2.057 0.909 1.862 0.999 1.736C1.095 1.604 1.227 1.538 1.395 1.538C1.503 1.538 1.599 1.574 1.683 1.646C1.767 1.718 1.83 1.847 1.872 2.033C1.92 2.219 1.944 2.483 1.944 2.825C1.944 2.993 1.938 3.185 1.926 3.401C1.914 3.611 1.896 3.845 1.872 4.103H1.908C2.388 3.443 2.811 2.918 3.177 2.528C3.543 2.132 3.864 1.847 4.14 1.673C4.422 1.499 4.668 1.412 4.878 1.412C5.046 1.412 5.172 1.466 5.256 1.574C5.346 1.682 5.391 1.814 5.391 1.97C5.391 2.3 5.142 2.696 4.644 3.158C4.152 3.62 3.357 4.175 2.259 4.823L2.331 4.652C3.279 5.252 3.996 5.783 4.482 6.245C4.968 6.701 5.211 7.106 5.211 7.46C5.211 7.616 5.16 7.745 5.058 7.847C4.962 7.943 4.818 7.991 4.626 7.991C4.386 7.991 4.131 7.91 3.861 7.748C3.591 7.58 3.291 7.301 2.961 6.911C2.637 6.515 2.268 5.978 1.854 5.3H1.818C1.83 5.438 1.839 5.582 1.845 5.732C1.851 5.876 1.854 6.02 1.854 6.164C1.854 6.854 1.806 7.349 1.71 7.649C1.614 7.943 1.44 8.09 1.188 8.09ZM8.67642 8.072C8.01042 8.072 7.47942 7.973 7.08342 7.775C6.68742 7.577 6.40242 7.292 6.22842 6.92C6.05442 6.548 5.96742 6.104 5.96742 5.588C5.96742 4.934 6.08742 4.379 6.32742 3.923C6.57342 3.461 6.90942 3.107 7.33542 2.861C7.76742 2.615 8.25642 2.492 8.80242 2.492C9.44442 2.492 9.91542 2.642 10.2154 2.942C10.5154 3.236 10.6654 3.623 10.6654 4.103C10.6654 4.487 10.5634 4.82 10.3594 5.102C10.1614 5.378 9.88542 5.591 9.53142 5.741C9.17742 5.891 8.76942 5.966 8.30742 5.966C8.04942 5.966 7.80042 5.933 7.56042 5.867C7.32042 5.801 7.10442 5.711 6.91242 5.597L7.12842 5.201C7.11042 5.345 7.10142 5.489 7.10142 5.633C7.10142 6.053 7.23342 6.356 7.49742 6.542C7.76142 6.722 8.13642 6.812 8.62242 6.812C9.00042 6.812 9.30342 6.779 9.53142 6.713C9.75942 6.647 9.95142 6.584 10.1074 6.524C10.2634 6.458 10.4164 6.425 10.5664 6.425C10.6504 6.425 10.7254 6.449 10.7914 6.497C10.8634 6.539 10.9204 6.602 10.9624 6.686C11.0104 6.77 11.0344 6.872 11.0344 6.992C11.0344 7.172 10.9444 7.346 10.7644 7.514C10.5844 7.676 10.3174 7.811 9.96342 7.919C9.61542 8.021 9.18642 8.072 8.67642 8.072ZM8.15442 5.129C8.58042 5.129 8.92242 5.039 9.18042 4.859C9.43842 4.679 9.56742 4.457 9.56742 4.193C9.56742 3.983 9.49542 3.812 9.35142 3.68C9.21342 3.542 8.99442 3.473 8.69442 3.473C8.41242 3.473 8.15742 3.527 7.92942 3.635C7.70742 3.737 7.53342 3.872 7.40742 4.04C7.28142 4.208 7.21842 4.391 7.21842 4.589C7.21842 4.763 7.29942 4.898 7.46142 4.994C7.62942 5.084 7.86042 5.129 8.15442 5.129ZM12.7974 8.018C12.6114 8.018 12.4644 7.976 12.3564 7.892C12.2484 7.802 12.1614 7.655 12.0954 7.451C12.0054 7.151 11.9364 6.773 11.8884 6.317C11.8464 5.855 11.8254 5.288 11.8254 4.616C11.8254 4.202 11.8404 3.788 11.8704 3.374C11.9064 2.954 11.9514 2.573 12.0054 2.231C12.0594 1.883 12.1164 1.613 12.1764 1.421C12.2424 1.217 12.3204 1.076 12.4104 0.997999C12.5004 0.92 12.6024 0.881 12.7164 0.881C12.8364 0.881 12.9324 0.923 13.0044 1.007C13.0764 1.085 13.1334 1.226 13.1754 1.43C13.2114 1.628 13.2384 1.871 13.2564 2.159C13.2804 2.447 13.2924 2.756 13.2924 3.086C13.2924 3.536 13.2714 4.01 13.2294 4.508C13.1874 5.006 13.1304 5.495 13.0584 5.975C12.9924 6.455 12.9114 6.896 12.8154 7.298L12.5634 7.172C12.7194 6.98 12.8964 6.83 13.0944 6.722C13.2984 6.614 13.4844 6.56 13.6524 6.56C13.7904 6.56 13.8954 6.599 13.9674 6.677C14.0454 6.749 14.0844 6.863 14.0844 7.019C14.0844 7.175 14.0154 7.331 13.8774 7.487C13.7454 7.643 13.5804 7.772 13.3824 7.874C13.1844 7.97 12.9894 8.018 12.7974 8.018ZM17.0885 8.027C16.6085 8.027 16.1885 7.922 15.8285 7.712C15.4745 7.496 15.1985 7.19 15.0005 6.794C14.8085 6.398 14.7125 5.927 14.7125 5.381C14.7125 4.811 14.8115 4.313 15.0095 3.887C15.2075 3.461 15.4865 3.128 15.8465 2.888C16.2125 2.648 16.6355 2.528 17.1155 2.528C17.6315 2.528 18.0785 2.645 18.4565 2.879C18.8345 3.107 19.1285 3.428 19.3385 3.842C19.5485 4.256 19.6535 4.739 19.6535 5.291C19.6535 5.855 19.5485 6.341 19.3385 6.749C19.1285 7.157 18.8315 7.472 18.4475 7.694C18.0635 7.916 17.6105 8.027 17.0885 8.027ZM17.2145 6.812C17.5865 6.812 17.8805 6.665 18.0965 6.371C18.3185 6.071 18.4295 5.675 18.4295 5.183C18.4295 4.685 18.3185 4.289 18.0965 3.995C17.8805 3.701 17.5865 3.554 17.2145 3.554C16.8305 3.554 16.5275 3.701 16.3055 3.995C16.0835 4.289 15.9725 4.685 15.9725 5.183C15.9725 5.675 16.0835 6.071 16.3055 6.371C16.5275 6.665 16.8305 6.812 17.2145 6.812ZM24.4407 3.878C24.5007 3.632 24.6057 3.41 24.7557 3.212C24.9117 3.014 25.0977 2.858 25.3137 2.744C25.5357 2.624 25.7787 2.564 26.0427 2.564C26.3547 2.564 26.6307 2.639 26.8707 2.789C27.1107 2.939 27.2997 3.185 27.4377 3.527C27.5817 3.869 27.6537 4.325 27.6537 4.895C27.6537 5.189 27.6417 5.486 27.6177 5.786C27.5937 6.086 27.5637 6.365 27.5277 6.623C27.4917 6.881 27.4527 7.097 27.4107 7.271C27.3507 7.511 27.2577 7.694 27.1317 7.82C27.0117 7.946 26.8587 8.009 26.6727 8.009C26.5167 8.009 26.3937 7.94 26.3037 7.802C26.2137 7.664 26.1687 7.466 26.1687 7.208C26.1687 7.088 26.1837 6.935 26.2137 6.749C26.2437 6.557 26.2767 6.35 26.3127 6.128C26.3487 5.9 26.3817 5.669 26.4117 5.435C26.4417 5.201 26.4567 4.979 26.4567 4.769C26.4567 4.457 26.3937 4.217 26.2677 4.049C26.1417 3.875 25.9647 3.788 25.7367 3.788C25.4847 3.788 25.2747 3.92 25.1067 4.184C24.9447 4.442 24.8487 4.82 24.8187 5.318C24.7947 5.762 24.7737 6.158 24.7557 6.506C24.7377 6.848 24.6927 7.13 24.6207 7.352C24.5727 7.508 24.5037 7.625 24.4137 7.703C24.3297 7.781 24.2157 7.82 24.0717 7.82C23.9097 7.82 23.7807 7.76 23.6847 7.64C23.5947 7.52 23.5437 7.331 23.5317 7.073C23.5197 6.857 23.5167 6.602 23.5227 6.308C23.5287 6.014 23.5317 5.723 23.5317 5.435C23.5377 5.141 23.5347 4.898 23.5227 4.706C23.4987 4.322 23.4297 4.04 23.3157 3.86C23.2077 3.68 23.0427 3.59 22.8207 3.59C22.5627 3.59 22.3557 3.71 22.1997 3.95C22.0497 4.19 21.9567 4.523 21.9207 4.949C21.9087 5.123 21.9027 5.339 21.9027 5.597C21.9087 5.849 21.9147 6.101 21.9207 6.353C21.9267 6.605 21.9237 6.815 21.9117 6.983C21.9057 7.343 21.8487 7.601 21.7407 7.757C21.6387 7.913 21.4947 7.991 21.3087 7.991C21.0867 7.991 20.9247 7.919 20.8227 7.775C20.7267 7.631 20.6637 7.4 20.6337 7.082C20.6097 6.8 20.5917 6.521 20.5797 6.245C20.5677 5.963 20.5617 5.684 20.5617 5.408C20.5617 5.126 20.5677 4.82 20.5797 4.49C20.5977 4.16 20.6217 3.848 20.6517 3.554C20.6877 3.254 20.7507 3.002 20.8407 2.798C20.9307 2.594 21.0807 2.492 21.2907 2.492C21.4647 2.492 21.5877 2.579 21.6597 2.753C21.7317 2.921 21.7677 3.182 21.7677 3.536C21.7677 3.656 21.7587 3.767 21.7407 3.869L21.7137 3.689C21.8337 3.299 22.0257 2.996 22.2897 2.78C22.5537 2.558 22.8477 2.447 23.1717 2.447C23.5977 2.447 23.9307 2.585 24.1707 2.861C24.4107 3.131 24.5427 3.506 24.5667 3.986L24.4407 3.878ZM29.3651 2.42C29.5271 2.42 29.6621 2.516 29.7701 2.708C29.8781 2.894 29.9531 3.191 29.9951 3.599L29.8061 3.77C29.9141 3.35 30.1151 3.029 30.4091 2.807C30.7031 2.585 31.0511 2.474 31.4531 2.474C31.8251 2.474 32.1551 2.57 32.4431 2.762C32.7311 2.954 32.9561 3.245 33.1181 3.635C33.2861 4.019 33.3701 4.502 33.3701 5.084C33.3701 6.026 33.1991 6.722 32.8571 7.172C32.5211 7.616 32.0621 7.838 31.4801 7.838C31.0601 7.838 30.7301 7.748 30.4901 7.568C30.2501 7.388 30.0821 7.169 29.9861 6.911L30.0941 6.857C30.1421 7.217 30.1811 7.574 30.2111 7.928C30.2471 8.276 30.2651 8.582 30.2651 8.846C30.2651 9.116 30.2171 9.344 30.1211 9.53C30.0251 9.716 29.8721 9.809 29.6621 9.809C29.4581 9.809 29.3051 9.731 29.2031 9.575C29.1011 9.419 29.0261 9.212 28.9781 8.954C28.9421 8.69 28.9061 8.351 28.8701 7.937C28.8341 7.523 28.8041 7.076 28.7801 6.596C28.7621 6.116 28.7531 5.648 28.7531 5.192C28.7531 4.724 28.7681 4.286 28.7981 3.878C28.8341 3.464 28.8761 3.128 28.9241 2.87C28.9661 2.72 29.0201 2.609 29.0861 2.537C29.1581 2.459 29.2511 2.42 29.3651 2.42ZM31.0841 3.509C30.7601 3.509 30.4991 3.671 30.3011 3.995C30.1091 4.313 30.0131 4.721 30.0131 5.219C30.0131 5.729 30.1091 6.11 30.3011 6.362C30.4991 6.614 30.7541 6.74 31.0661 6.74C31.4261 6.74 31.6841 6.599 31.8401 6.317C32.0021 6.029 32.0831 5.657 32.0831 5.201C32.0831 4.619 31.9841 4.193 31.7861 3.923C31.5881 3.647 31.3541 3.509 31.0841 3.509ZM36.4684 8.027C35.9884 8.027 35.5684 7.922 35.2084 7.712C34.8544 7.496 34.5784 7.19 34.3804 6.794C34.1884 6.398 34.0924 5.927 34.0924 5.381C34.0924 4.811 34.1914 4.313 34.3894 3.887C34.5874 3.461 34.8664 3.128 35.2264 2.888C35.5924 2.648 36.0154 2.528 36.4954 2.528C37.0114 2.528 37.4584 2.645 37.8364 2.879C38.2144 3.107 38.5084 3.428 38.7184 3.842C38.9284 4.256 39.0334 4.739 39.0334 5.291C39.0334 5.855 38.9284 6.341 38.7184 6.749C38.5084 7.157 38.2114 7.472 37.8274 7.694C37.4434 7.916 36.9904 8.027 36.4684 8.027ZM36.5944 6.812C36.9664 6.812 37.2604 6.665 37.4764 6.371C37.6984 6.071 37.8094 5.675 37.8094 5.183C37.8094 4.685 37.6984 4.289 37.4764 3.995C37.2604 3.701 36.9664 3.554 36.5944 3.554C36.2104 3.554 35.9074 3.701 35.6854 3.995C35.4634 4.289 35.3524 4.685 35.3524 5.183C35.3524 5.675 35.4634 6.071 35.6854 6.371C35.9074 6.665 36.2104 6.812 36.5944 6.812ZM40.5536 8.09C40.4396 8.09 40.3466 8.057 40.2746 7.991C40.2026 7.919 40.1516 7.817 40.1216 7.685C40.0736 7.463 40.0316 7.142 39.9956 6.722C39.9596 6.302 39.9416 5.837 39.9416 5.327C39.9416 4.697 39.9626 4.091 40.0046 3.509C40.0526 2.927 40.1126 2.45 40.1846 2.078C40.2626 1.676 40.3586 1.382 40.4726 1.196C40.5866 1.004 40.7366 0.908 40.9226 0.908C41.0906 0.908 41.2196 0.986 41.3096 1.142C41.3996 1.292 41.4446 1.553 41.4446 1.925C41.4446 2.297 41.4296 2.696 41.3996 3.122C41.3756 3.548 41.3336 4.004 41.2736 4.49H41.3096C41.6996 3.962 42.0626 3.539 42.3986 3.221C42.7406 2.903 43.0526 2.672 43.3346 2.528C43.6226 2.384 43.8776 2.312 44.0996 2.312C44.2736 2.312 44.4026 2.366 44.4866 2.474C44.5706 2.582 44.6126 2.714 44.6126 2.87C44.6126 3.176 44.3666 3.518 43.8746 3.896C43.3886 4.274 42.6866 4.661 41.7686 5.057L41.7776 4.913C42.3476 5.207 42.8366 5.516 43.2446 5.84C43.6586 6.158 43.9736 6.461 44.1896 6.749C44.4116 7.031 44.5226 7.268 44.5226 7.46C44.5226 7.616 44.4716 7.745 44.3696 7.847C44.2736 7.943 44.1326 7.991 43.9466 7.991C43.7126 7.991 43.4516 7.904 43.1636 7.73C42.8816 7.55 42.5876 7.283 42.2816 6.929C41.9756 6.575 41.6696 6.131 41.3636 5.597H41.3276C41.3216 5.975 41.2976 6.344 41.2556 6.704C41.2196 7.058 41.1716 7.349 41.1116 7.577C41.0696 7.733 41.0036 7.859 40.9136 7.955C40.8296 8.045 40.7096 8.09 40.5536 8.09ZM49.5338 8.162C49.3238 8.162 49.1648 8.093 49.0568 7.955C48.9548 7.817 48.9038 7.619 48.9038 7.361C48.9038 7.181 48.9218 6.989 48.9578 6.785C48.9998 6.581 49.0568 6.38 49.1288 6.182L49.1828 6.308C48.9848 6.374 48.7418 6.428 48.4538 6.47C48.1658 6.512 47.8778 6.533 47.5898 6.533C47.3138 6.533 47.1098 6.488 46.9778 6.398C46.8518 6.302 46.7888 6.17 46.7888 6.002C46.7888 5.744 46.8398 5.444 46.9418 5.102C47.0438 4.76 47.1728 4.409 47.3288 4.049C47.4908 3.689 47.6558 3.362 47.8238 3.068C48.0878 2.606 48.3758 2.246 48.6878 1.988C48.9998 1.724 49.3568 1.592 49.7588 1.592C50.1488 1.592 50.4248 1.688 50.5868 1.88C50.7548 2.072 50.8388 2.351 50.8388 2.717C50.8388 3.071 50.8058 3.482 50.7398 3.95C50.6738 4.412 50.5778 4.883 50.4518 5.363L50.3348 5.264C50.4188 5.234 50.5088 5.213 50.6048 5.201C50.7008 5.183 50.7878 5.174 50.8658 5.174C51.3578 5.174 51.6038 5.372 51.6038 5.768C51.6038 5.972 51.5258 6.128 51.3698 6.236C51.2198 6.344 51.0218 6.398 50.7758 6.398C50.6678 6.398 50.5628 6.392 50.4608 6.38C50.3648 6.362 50.2808 6.341 50.2088 6.317L50.2808 6.272C50.2928 6.386 50.3048 6.53 50.3168 6.704C50.3288 6.872 50.3348 7.034 50.3348 7.19C50.3348 7.508 50.2628 7.751 50.1188 7.919C49.9808 8.081 49.7858 8.162 49.5338 8.162ZM48.4088 5.327C48.6008 5.327 48.7718 5.288 48.9218 5.21C49.0718 5.126 49.1978 5.009 49.2998 4.859C49.4078 4.703 49.4888 4.52 49.5428 4.31C49.6028 4.094 49.6328 3.854 49.6328 3.59C49.6328 3.374 49.5938 3.215 49.5158 3.113C49.4438 3.005 49.3478 2.951 49.2278 2.951C49.0658 2.951 48.9098 3.008 48.7598 3.122C48.6098 3.23 48.4718 3.374 48.3458 3.554C48.2258 3.728 48.1298 3.923 48.0578 4.139C47.9858 4.349 47.9498 4.556 47.9498 4.76C47.9498 4.964 47.9918 5.111 48.0758 5.201C48.1598 5.285 48.2708 5.327 48.4088 5.327ZM55.6745 2.582H55.4945C55.4765 2.318 55.4825 2.069 55.5125 1.835C55.5425 1.595 55.6055 1.403 55.7015 1.259C55.8035 1.109 55.9475 1.034 56.1335 1.034C56.3015 1.034 56.4245 1.088 56.5025 1.196C56.5805 1.304 56.6195 1.454 56.6195 1.646C56.6195 2.024 56.5475 2.348 56.4035 2.618L56.2415 2.6C56.5655 2.486 56.9315 2.429 57.3395 2.429C57.5975 2.429 57.8015 2.48 57.9515 2.582C58.1075 2.678 58.1855 2.843 58.1855 3.077C58.1855 3.299 58.0955 3.467 57.9155 3.581C57.7355 3.695 57.5105 3.752 57.2405 3.752C57.0785 3.752 56.9045 3.746 56.7185 3.734C56.5385 3.716 56.3615 3.689 56.1875 3.653L56.3405 3.464C56.3945 3.692 56.4455 3.953 56.4935 4.247C56.5475 4.535 56.5955 4.835 56.6375 5.147C56.6795 5.459 56.7125 5.762 56.7365 6.056C56.7605 6.35 56.7725 6.614 56.7725 6.848C56.7725 7.232 56.7125 7.535 56.5925 7.757C56.4725 7.979 56.2955 8.09 56.0615 8.09C55.8755 8.09 55.7285 8.033 55.6205 7.919C55.5185 7.805 55.4435 7.661 55.3955 7.487C55.3535 7.307 55.3265 7.121 55.3145 6.929C55.3085 6.737 55.3055 6.563 55.3055 6.407C55.3055 6.143 55.3175 5.846 55.3415 5.516C55.3655 5.18 55.3985 4.835 55.4405 4.481C55.4885 4.127 55.5425 3.785 55.6025 3.455L55.7825 3.608C55.4765 3.764 55.0985 3.842 54.6485 3.842C54.3725 3.842 54.1595 3.791 54.0095 3.689C53.8595 3.587 53.7845 3.428 53.7845 3.212C53.7845 2.978 53.8685 2.798 54.0365 2.672C54.2045 2.54 54.4295 2.474 54.7115 2.474C54.8975 2.474 55.0715 2.486 55.2335 2.51C55.4015 2.528 55.5485 2.552 55.6745 2.582ZM61.3493 8.072C60.6833 8.072 60.1523 7.973 59.7563 7.775C59.3603 7.577 59.0753 7.292 58.9013 6.92C58.7273 6.548 58.6403 6.104 58.6403 5.588C58.6403 4.934 58.7603 4.379 59.0003 3.923C59.2463 3.461 59.5823 3.107 60.0083 2.861C60.4403 2.615 60.9293 2.492 61.4753 2.492C62.1173 2.492 62.5883 2.642 62.8883 2.942C63.1883 3.236 63.3383 3.623 63.3383 4.103C63.3383 4.487 63.2363 4.82 63.0323 5.102C62.8343 5.378 62.5583 5.591 62.2043 5.741C61.8503 5.891 61.4423 5.966 60.9803 5.966C60.7223 5.966 60.4733 5.933 60.2333 5.867C59.9933 5.801 59.7773 5.711 59.5853 5.597L59.8013 5.201C59.7833 5.345 59.7743 5.489 59.7743 5.633C59.7743 6.053 59.9063 6.356 60.1703 6.542C60.4343 6.722 60.8093 6.812 61.2953 6.812C61.6733 6.812 61.9763 6.779 62.2043 6.713C62.4323 6.647 62.6243 6.584 62.7803 6.524C62.9363 6.458 63.0893 6.425 63.2393 6.425C63.3233 6.425 63.3983 6.449 63.4643 6.497C63.5363 6.539 63.5933 6.602 63.6353 6.686C63.6833 6.77 63.7073 6.872 63.7073 6.992C63.7073 7.172 63.6173 7.346 63.4373 7.514C63.2573 7.676 62.9903 7.811 62.6363 7.919C62.2883 8.021 61.8593 8.072 61.3493 8.072ZM60.8273 5.129C61.2533 5.129 61.5953 5.039 61.8533 4.859C62.1113 4.679 62.2403 4.457 62.2403 4.193C62.2403 3.983 62.1683 3.812 62.0243 3.68C61.8863 3.542 61.6673 3.473 61.3673 3.473C61.0853 3.473 60.8303 3.527 60.6023 3.635C60.3803 3.737 60.2063 3.872 60.0803 4.04C59.9543 4.208 59.8913 4.391 59.8913 4.589C59.8913 4.763 59.9723 4.898 60.1343 4.994C60.3023 5.084 60.5333 5.129 60.8273 5.129ZM64.4982 3.941C64.4982 3.365 64.5522 2.951 64.6602 2.699C64.7682 2.441 64.9212 2.312 65.1192 2.312C65.2752 2.312 65.3982 2.378 65.4882 2.51C65.5782 2.636 65.6442 2.795 65.6862 2.987C65.7282 3.173 65.7492 3.362 65.7492 3.554L65.7042 3.536C65.8062 3.212 65.9622 2.933 66.1722 2.699C66.3882 2.465 66.6462 2.348 66.9462 2.348C67.3002 2.348 67.5612 2.495 67.7292 2.789C67.8972 3.077 67.9812 3.437 67.9812 3.869C67.9812 4.445 67.9152 4.847 67.7832 5.075C67.6512 5.303 67.4742 5.417 67.2522 5.417C67.0902 5.417 66.9702 5.351 66.8922 5.219C66.8202 5.087 66.7962 4.853 66.8202 4.517C66.8442 4.163 66.8232 3.917 66.7572 3.779C66.6912 3.641 66.5862 3.572 66.4422 3.572C66.2682 3.572 66.1242 3.683 66.0102 3.905C65.9022 4.121 65.8482 4.388 65.8482 4.706C65.8482 4.832 65.8632 4.991 65.8932 5.183C65.9232 5.375 65.9562 5.585 65.9922 5.813C66.0282 6.035 66.0612 6.257 66.0912 6.479C66.1212 6.701 66.1362 6.905 66.1362 7.091C66.1362 7.421 66.0852 7.658 65.9832 7.802C65.8812 7.946 65.7372 8.018 65.5512 8.018C65.3412 8.018 65.1792 7.952 65.0652 7.82C64.9512 7.682 64.8642 7.46 64.8042 7.154C64.7562 6.878 64.7082 6.551 64.6602 6.173C64.6122 5.795 64.5732 5.408 64.5432 5.012C64.5132 4.616 64.4982 4.259 64.4982 3.941ZM72.6575 3.878C72.7175 3.632 72.8225 3.41 72.9725 3.212C73.1285 3.014 73.3145 2.858 73.5305 2.744C73.7525 2.624 73.9955 2.564 74.2595 2.564C74.5715 2.564 74.8475 2.639 75.0875 2.789C75.3275 2.939 75.5165 3.185 75.6545 3.527C75.7985 3.869 75.8705 4.325 75.8705 4.895C75.8705 5.189 75.8585 5.486 75.8345 5.786C75.8105 6.086 75.7805 6.365 75.7445 6.623C75.7085 6.881 75.6695 7.097 75.6275 7.271C75.5675 7.511 75.4745 7.694 75.3485 7.82C75.2285 7.946 75.0755 8.009 74.8895 8.009C74.7335 8.009 74.6105 7.94 74.5205 7.802C74.4305 7.664 74.3855 7.466 74.3855 7.208C74.3855 7.088 74.4005 6.935 74.4305 6.749C74.4605 6.557 74.4935 6.35 74.5295 6.128C74.5655 5.9 74.5985 5.669 74.6285 5.435C74.6585 5.201 74.6735 4.979 74.6735 4.769C74.6735 4.457 74.6105 4.217 74.4845 4.049C74.3585 3.875 74.1815 3.788 73.9535 3.788C73.7015 3.788 73.4915 3.92 73.3235 4.184C73.1615 4.442 73.0655 4.82 73.0355 5.318C73.0115 5.762 72.9905 6.158 72.9725 6.506C72.9545 6.848 72.9095 7.13 72.8375 7.352C72.7895 7.508 72.7205 7.625 72.6305 7.703C72.5465 7.781 72.4325 7.82 72.2885 7.82C72.1265 7.82 71.9975 7.76 71.9015 7.64C71.8115 7.52 71.7605 7.331 71.7485 7.073C71.7365 6.857 71.7335 6.602 71.7395 6.308C71.7455 6.014 71.7485 5.723 71.7485 5.435C71.7545 5.141 71.7515 4.898 71.7395 4.706C71.7155 4.322 71.6465 4.04 71.5325 3.86C71.4245 3.68 71.2595 3.59 71.0375 3.59C70.7795 3.59 70.5725 3.71 70.4165 3.95C70.2665 4.19 70.1735 4.523 70.1375 4.949C70.1255 5.123 70.1195 5.339 70.1195 5.597C70.1255 5.849 70.1315 6.101 70.1375 6.353C70.1435 6.605 70.1405 6.815 70.1285 6.983C70.1225 7.343 70.0655 7.601 69.9575 7.757C69.8555 7.913 69.7115 7.991 69.5255 7.991C69.3035 7.991 69.1415 7.919 69.0395 7.775C68.9435 7.631 68.8805 7.4 68.8505 7.082C68.8265 6.8 68.8085 6.521 68.7965 6.245C68.7845 5.963 68.7785 5.684 68.7785 5.408C68.7785 5.126 68.7845 4.82 68.7965 4.49C68.8145 4.16 68.8385 3.848 68.8685 3.554C68.9045 3.254 68.9675 3.002 69.0575 2.798C69.1475 2.594 69.2975 2.492 69.5075 2.492C69.6815 2.492 69.8045 2.579 69.8765 2.753C69.9485 2.921 69.9845 3.182 69.9845 3.536C69.9845 3.656 69.9755 3.767 69.9575 3.869L69.9305 3.689C70.0505 3.299 70.2425 2.996 70.5065 2.78C70.7705 2.558 71.0645 2.447 71.3885 2.447C71.8145 2.447 72.1475 2.585 72.3875 2.861C72.6275 3.131 72.7595 3.506 72.7835 3.986L72.6575 3.878ZM80.9029 8.09C80.6989 8.09 80.5579 8.012 80.4799 7.856C80.4079 7.694 80.3659 7.439 80.3539 7.091L80.4439 7.136C80.1079 7.79 79.4719 8.117 78.5359 8.117C78.1099 8.117 77.7559 8.042 77.4739 7.892C77.1919 7.736 76.9819 7.532 76.8439 7.28C76.7119 7.022 76.6459 6.743 76.6459 6.443C76.6459 5.927 76.8259 5.519 77.1859 5.219C77.5459 4.913 78.0229 4.76 78.6169 4.76C79.0069 4.76 79.3459 4.817 79.6339 4.931C79.9219 5.045 80.1679 5.204 80.3719 5.408L80.2189 5.39C80.1769 4.784 80.0449 4.352 79.8229 4.094C79.6069 3.83 79.2979 3.698 78.8959 3.698C78.6619 3.698 78.4459 3.734 78.2479 3.806C78.0499 3.878 77.8669 3.953 77.6989 4.031C77.5369 4.103 77.3839 4.139 77.2399 4.139C77.0959 4.139 76.9819 4.091 76.8979 3.995C76.8199 3.899 76.7809 3.776 76.7809 3.626C76.7809 3.41 76.8829 3.206 77.0869 3.014C77.2969 2.822 77.5729 2.666 77.9149 2.546C78.2569 2.426 78.6289 2.366 79.0309 2.366C79.5169 2.366 79.9339 2.483 80.2819 2.717C80.6299 2.951 80.8939 3.293 81.0739 3.743C81.2299 4.127 81.3409 4.556 81.4069 5.03C81.4729 5.504 81.5059 6.011 81.5059 6.551C81.5059 6.959 81.4849 7.274 81.4429 7.496C81.4009 7.718 81.3349 7.874 81.2449 7.964C81.1609 8.048 81.0469 8.09 80.9029 8.09ZM78.9139 7.082C79.1119 7.082 79.3129 7.055 79.5169 7.001C79.7209 6.941 79.8919 6.854 80.0299 6.74C80.1679 6.626 80.2369 6.485 80.2369 6.317C80.2369 6.173 80.1769 6.056 80.0569 5.966C79.9429 5.87 79.7899 5.798 79.5979 5.75C79.4119 5.702 79.2109 5.678 78.9949 5.678C78.6289 5.678 78.3499 5.741 78.1579 5.867C77.9719 5.993 77.8789 6.161 77.8789 6.371C77.8789 6.599 77.9659 6.776 78.1399 6.902C78.3199 7.022 78.5779 7.082 78.9139 7.082ZM84.8807 2.366C85.4147 2.366 85.7987 2.444 86.0327 2.6C86.2667 2.756 86.3837 2.957 86.3837 3.203C86.3837 3.347 86.3327 3.467 86.2307 3.563C86.1347 3.653 85.9967 3.698 85.8167 3.698C85.6307 3.698 85.4357 3.671 85.2317 3.617C85.0337 3.563 84.8027 3.536 84.5387 3.536C84.2327 3.536 84.0047 3.596 83.8547 3.716C83.7047 3.836 83.6297 3.989 83.6297 4.175C83.6297 4.349 83.6957 4.487 83.8277 4.589C83.9657 4.685 84.2267 4.757 84.6107 4.805C85.0367 4.853 85.3877 4.931 85.6637 5.039C85.9457 5.141 86.1557 5.297 86.2937 5.507C86.4317 5.711 86.5007 5.993 86.5007 6.353C86.5007 6.923 86.2997 7.346 85.8977 7.622C85.4957 7.898 84.9407 8.036 84.2327 8.036C83.7827 8.036 83.4257 8 83.1617 7.928C82.8977 7.856 82.7057 7.754 82.5857 7.622C82.4717 7.49 82.4147 7.334 82.4147 7.154C82.4147 6.998 82.4657 6.878 82.5677 6.794C82.6757 6.704 82.8017 6.659 82.9457 6.659C83.0837 6.659 83.2307 6.677 83.3867 6.713C83.5427 6.743 83.7077 6.776 83.8817 6.812C84.0557 6.848 84.2357 6.866 84.4217 6.866C85.0217 6.866 85.3217 6.68 85.3217 6.308C85.3217 6.182 85.2917 6.08 85.2317 6.002C85.1717 5.924 85.0637 5.861 84.9077 5.813C84.7517 5.759 84.5237 5.717 84.2237 5.687C83.8637 5.651 83.5517 5.591 83.2877 5.507C83.0237 5.417 82.8197 5.273 82.6757 5.075C82.5317 4.871 82.4597 4.592 82.4597 4.238C82.4597 3.68 82.6697 3.23 83.0897 2.888C83.5097 2.54 84.1067 2.366 84.8807 2.366ZM91.4613 7.946C91.2993 7.946 91.1733 7.892 91.0833 7.784C90.9993 7.67 90.9423 7.526 90.9123 7.352C90.8823 7.172 90.8673 6.983 90.8673 6.785L90.9123 6.749C90.8523 7.007 90.7353 7.229 90.5613 7.415C90.3873 7.601 90.1863 7.745 89.9583 7.847C89.7303 7.943 89.5023 7.991 89.2743 7.991C88.9683 7.991 88.6893 7.919 88.4373 7.775C88.1853 7.631 87.9903 7.409 87.8523 7.109C87.7143 6.791 87.6063 6.392 87.5283 5.912C87.4503 5.426 87.4113 4.928 87.4113 4.418C87.4113 4.142 87.4233 3.887 87.4473 3.653C87.4713 3.419 87.5103 3.227 87.5643 3.077C87.6123 2.921 87.6843 2.807 87.7803 2.735C87.8763 2.657 87.9993 2.618 88.1493 2.618C88.3233 2.618 88.4583 2.687 88.5543 2.825C88.6563 2.957 88.7193 3.143 88.7433 3.383C88.7673 3.581 88.7823 3.827 88.7883 4.121C88.8003 4.409 88.8093 4.7 88.8153 4.994C88.8273 5.282 88.8423 5.525 88.8603 5.723C88.8963 6.083 88.9893 6.35 89.1393 6.524C89.2893 6.692 89.4723 6.776 89.6883 6.776C90.0063 6.776 90.2493 6.656 90.4173 6.416C90.5853 6.176 90.6693 5.84 90.6693 5.408C90.6693 5.192 90.6573 4.949 90.6333 4.679C90.6093 4.403 90.5823 4.136 90.5523 3.878C90.5283 3.62 90.5163 3.407 90.5163 3.239C90.5163 2.957 90.5643 2.756 90.6603 2.636C90.7563 2.51 90.8883 2.447 91.0563 2.447C91.2003 2.447 91.3203 2.486 91.4163 2.564C91.5183 2.642 91.5993 2.75 91.6593 2.888C91.7433 3.068 91.8153 3.314 91.8753 3.626C91.9353 3.938 91.9833 4.292 92.0193 4.688C92.0553 5.084 92.0733 5.501 92.0733 5.939C92.0733 6.611 92.0283 7.115 91.9383 7.451C91.8483 7.781 91.6893 7.946 91.4613 7.946ZM93.7801 8.09C93.6661 8.09 93.5731 8.057 93.5011 7.991C93.4291 7.919 93.3781 7.817 93.3481 7.685C93.3001 7.463 93.2581 7.142 93.2221 6.722C93.1861 6.302 93.1681 5.837 93.1681 5.327C93.1681 4.697 93.1891 4.091 93.2311 3.509C93.2791 2.927 93.3391 2.45 93.4111 2.078C93.4891 1.676 93.5851 1.382 93.6991 1.196C93.8131 1.004 93.9631 0.908 94.1491 0.908C94.3171 0.908 94.4461 0.986 94.5361 1.142C94.6261 1.292 94.6711 1.553 94.6711 1.925C94.6711 2.297 94.6561 2.696 94.6261 3.122C94.6021 3.548 94.5601 4.004 94.5001 4.49H94.5361C94.9261 3.962 95.2891 3.539 95.6251 3.221C95.9671 2.903 96.2791 2.672 96.5611 2.528C96.8491 2.384 97.1041 2.312 97.3261 2.312C97.5001 2.312 97.6291 2.366 97.7131 2.474C97.7971 2.582 97.8391 2.714 97.8391 2.87C97.8391 3.176 97.5931 3.518 97.1011 3.896C96.6151 4.274 95.9131 4.661 94.9951 5.057L95.0041 4.913C95.5741 5.207 96.0631 5.516 96.4711 5.84C96.8851 6.158 97.2001 6.461 97.4161 6.749C97.6381 7.031 97.7491 7.268 97.7491 7.46C97.7491 7.616 97.6981 7.745 97.5961 7.847C97.5001 7.943 97.3591 7.991 97.1731 7.991C96.9391 7.991 96.6781 7.904 96.3901 7.73C96.1081 7.55 95.8141 7.283 95.5081 6.929C95.2021 6.575 94.8961 6.131 94.5901 5.597H94.5541C94.5481 5.975 94.5241 6.344 94.4821 6.704C94.4461 7.058 94.3981 7.349 94.3381 7.577C94.2961 7.733 94.2301 7.859 94.1401 7.955C94.0561 8.045 93.9361 8.09 93.7801 8.09ZM100.978 8.09C100.864 8.09 100.771 8.057 100.699 7.991C100.627 7.919 100.576 7.817 100.546 7.685C100.498 7.463 100.456 7.142 100.42 6.722C100.384 6.302 100.366 5.837 100.366 5.327C100.366 4.697 100.387 4.091 100.429 3.509C100.477 2.927 100.537 2.45 100.609 2.078C100.687 1.676 100.783 1.382 100.897 1.196C101.011 1.004 101.161 0.908 101.347 0.908C101.515 0.908 101.644 0.986 101.734 1.142C101.824 1.292 101.869 1.553 101.869 1.925C101.869 2.297 101.854 2.696 101.824 3.122C101.8 3.548 101.758 4.004 101.698 4.49H101.734C102.124 3.962 102.487 3.539 102.823 3.221C103.165 2.903 103.477 2.672 103.759 2.528C104.047 2.384 104.302 2.312 104.524 2.312C104.698 2.312 104.827 2.366 104.911 2.474C104.995 2.582 105.037 2.714 105.037 2.87C105.037 3.176 104.791 3.518 104.299 3.896C103.813 4.274 103.111 4.661 102.193 5.057L102.202 4.913C102.772 5.207 103.261 5.516 103.669 5.84C104.083 6.158 104.398 6.461 104.614 6.749C104.836 7.031 104.947 7.268 104.947 7.46C104.947 7.616 104.896 7.745 104.794 7.847C104.698 7.943 104.557 7.991 104.371 7.991C104.137 7.991 103.876 7.904 103.588 7.73C103.306 7.55 103.012 7.283 102.706 6.929C102.4 6.575 102.094 6.131 101.788 5.597H101.752C101.746 5.975 101.722 6.344 101.68 6.704C101.644 7.058 101.596 7.349 101.536 7.577C101.494 7.733 101.428 7.859 101.338 7.955C101.254 8.045 101.134 8.09 100.978 8.09ZM108.195 8.072C107.529 8.072 106.998 7.973 106.602 7.775C106.206 7.577 105.921 7.292 105.747 6.92C105.573 6.548 105.486 6.104 105.486 5.588C105.486 4.934 105.606 4.379 105.846 3.923C106.092 3.461 106.428 3.107 106.854 2.861C107.286 2.615 107.775 2.492 108.321 2.492C108.963 2.492 109.434 2.642 109.734 2.942C110.034 3.236 110.184 3.623 110.184 4.103C110.184 4.487 110.082 4.82 109.878 5.102C109.68 5.378 109.404 5.591 109.05 5.741C108.696 5.891 108.288 5.966 107.826 5.966C107.568 5.966 107.319 5.933 107.079 5.867C106.839 5.801 106.623 5.711 106.431 5.597L106.647 5.201C106.629 5.345 106.62 5.489 106.62 5.633C106.62 6.053 106.752 6.356 107.016 6.542C107.28 6.722 107.655 6.812 108.141 6.812C108.519 6.812 108.822 6.779 109.05 6.713C109.278 6.647 109.47 6.584 109.626 6.524C109.782 6.458 109.935 6.425 110.085 6.425C110.169 6.425 110.244 6.449 110.31 6.497C110.382 6.539 110.439 6.602 110.481 6.686C110.529 6.77 110.553 6.872 110.553 6.992C110.553 7.172 110.463 7.346 110.283 7.514C110.103 7.676 109.836 7.811 109.482 7.919C109.134 8.021 108.705 8.072 108.195 8.072ZM107.673 5.129C108.099 5.129 108.441 5.039 108.699 4.859C108.957 4.679 109.086 4.457 109.086 4.193C109.086 3.983 109.014 3.812 108.87 3.68C108.732 3.542 108.513 3.473 108.213 3.473C107.931 3.473 107.676 3.527 107.448 3.635C107.226 3.737 107.052 3.872 106.926 4.04C106.8 4.208 106.737 4.391 106.737 4.589C106.737 4.763 106.818 4.898 106.98 4.994C107.148 5.084 107.379 5.129 107.673 5.129ZM114.829 8.126C114.241 8.126 113.782 7.907 113.452 7.469C113.122 7.025 112.957 6.35 112.957 5.444C112.957 4.544 113.119 3.887 113.443 3.473C113.773 3.053 114.244 2.843 114.856 2.843C115.204 2.843 115.507 2.915 115.765 3.059C116.029 3.203 116.263 3.407 116.467 3.671L116.395 3.707C116.341 3.461 116.287 3.2 116.233 2.924C116.179 2.648 116.134 2.387 116.098 2.141C116.068 1.889 116.053 1.691 116.053 1.547C116.053 1.343 116.086 1.187 116.152 1.079C116.218 0.965 116.323 0.908 116.467 0.908C116.671 0.908 116.836 0.995 116.962 1.169C117.088 1.337 117.193 1.598 117.277 1.952C117.355 2.27 117.424 2.648 117.484 3.086C117.544 3.518 117.592 3.971 117.628 4.445C117.67 4.913 117.691 5.363 117.691 5.795C117.691 6.395 117.658 6.863 117.592 7.199C117.532 7.529 117.445 7.76 117.331 7.892C117.223 8.024 117.094 8.09 116.944 8.09C116.758 8.09 116.632 7.997 116.566 7.811C116.5 7.625 116.473 7.322 116.485 6.902H116.62C116.458 7.274 116.221 7.571 115.909 7.793C115.603 8.015 115.243 8.126 114.829 8.126ZM115.306 7.01C115.522 7.01 115.72 6.956 115.9 6.848C116.086 6.734 116.233 6.56 116.341 6.326C116.455 6.092 116.512 5.795 116.512 5.435C116.512 4.973 116.407 4.598 116.197 4.31C115.987 4.016 115.684 3.869 115.288 3.869C114.976 3.869 114.721 3.998 114.523 4.256C114.331 4.514 114.235 4.904 114.235 5.426C114.235 5.888 114.331 6.269 114.523 6.569C114.721 6.863 114.982 7.01 115.306 7.01ZM122.721 8.09C122.517 8.09 122.376 8.012 122.298 7.856C122.226 7.694 122.184 7.439 122.172 7.091L122.262 7.136C121.926 7.79 121.29 8.117 120.354 8.117C119.928 8.117 119.574 8.042 119.292 7.892C119.01 7.736 118.8 7.532 118.662 7.28C118.53 7.022 118.464 6.743 118.464 6.443C118.464 5.927 118.644 5.519 119.004 5.219C119.364 4.913 119.841 4.76 120.435 4.76C120.825 4.76 121.164 4.817 121.452 4.931C121.74 5.045 121.986 5.204 122.19 5.408L122.037 5.39C121.995 4.784 121.863 4.352 121.641 4.094C121.425 3.83 121.116 3.698 120.714 3.698C120.48 3.698 120.264 3.734 120.066 3.806C119.868 3.878 119.685 3.953 119.517 4.031C119.355 4.103 119.202 4.139 119.058 4.139C118.914 4.139 118.8 4.091 118.716 3.995C118.638 3.899 118.599 3.776 118.599 3.626C118.599 3.41 118.701 3.206 118.905 3.014C119.115 2.822 119.391 2.666 119.733 2.546C120.075 2.426 120.447 2.366 120.849 2.366C121.335 2.366 121.752 2.483 122.1 2.717C122.448 2.951 122.712 3.293 122.892 3.743C123.048 4.127 123.159 4.556 123.225 5.03C123.291 5.504 123.324 6.011 123.324 6.551C123.324 6.959 123.303 7.274 123.261 7.496C123.219 7.718 123.153 7.874 123.063 7.964C122.979 8.048 122.865 8.09 122.721 8.09ZM120.732 7.082C120.93 7.082 121.131 7.055 121.335 7.001C121.539 6.941 121.71 6.854 121.848 6.74C121.986 6.626 122.055 6.485 122.055 6.317C122.055 6.173 121.995 6.056 121.875 5.966C121.761 5.87 121.608 5.798 121.416 5.75C121.23 5.702 121.029 5.678 120.813 5.678C120.447 5.678 120.168 5.741 119.976 5.867C119.79 5.993 119.697 6.161 119.697 6.371C119.697 6.599 119.784 6.776 119.958 6.902C120.138 7.022 120.396 7.082 120.732 7.082ZM125.394 8.018C125.208 8.018 125.061 7.976 124.953 7.892C124.845 7.802 124.758 7.655 124.692 7.451C124.602 7.151 124.533 6.773 124.485 6.317C124.443 5.855 124.422 5.288 124.422 4.616C124.422 4.202 124.437 3.788 124.467 3.374C124.503 2.954 124.548 2.573 124.602 2.231C124.656 1.883 124.713 1.613 124.773 1.421C124.839 1.217 124.917 1.076 125.007 0.997999C125.097 0.92 125.199 0.881 125.313 0.881C125.433 0.881 125.529 0.923 125.601 1.007C125.673 1.085 125.73 1.226 125.772 1.43C125.808 1.628 125.835 1.871 125.853 2.159C125.877 2.447 125.889 2.756 125.889 3.086C125.889 3.536 125.868 4.01 125.826 4.508C125.784 5.006 125.727 5.495 125.655 5.975C125.589 6.455 125.508 6.896 125.412 7.298L125.16 7.172C125.316 6.98 125.493 6.83 125.691 6.722C125.895 6.614 126.081 6.56 126.249 6.56C126.387 6.56 126.492 6.599 126.564 6.677C126.642 6.749 126.681 6.863 126.681 7.019C126.681 7.175 126.612 7.331 126.474 7.487C126.342 7.643 126.177 7.772 125.979 7.874C125.781 7.97 125.586 8.018 125.394 8.018ZM131.431 8.09C131.227 8.09 131.086 8.012 131.008 7.856C130.936 7.694 130.894 7.439 130.882 7.091L130.972 7.136C130.636 7.79 130 8.117 129.064 8.117C128.638 8.117 128.284 8.042 128.002 7.892C127.72 7.736 127.51 7.532 127.372 7.28C127.24 7.022 127.174 6.743 127.174 6.443C127.174 5.927 127.354 5.519 127.714 5.219C128.074 4.913 128.551 4.76 129.145 4.76C129.535 4.76 129.874 4.817 130.162 4.931C130.45 5.045 130.696 5.204 130.9 5.408L130.747 5.39C130.705 4.784 130.573 4.352 130.351 4.094C130.135 3.83 129.826 3.698 129.424 3.698C129.19 3.698 128.974 3.734 128.776 3.806C128.578 3.878 128.395 3.953 128.227 4.031C128.065 4.103 127.912 4.139 127.768 4.139C127.624 4.139 127.51 4.091 127.426 3.995C127.348 3.899 127.309 3.776 127.309 3.626C127.309 3.41 127.411 3.206 127.615 3.014C127.825 2.822 128.101 2.666 128.443 2.546C128.785 2.426 129.157 2.366 129.559 2.366C130.045 2.366 130.462 2.483 130.81 2.717C131.158 2.951 131.422 3.293 131.602 3.743C131.758 4.127 131.869 4.556 131.935 5.03C132.001 5.504 132.034 6.011 132.034 6.551C132.034 6.959 132.013 7.274 131.971 7.496C131.929 7.718 131.863 7.874 131.773 7.964C131.689 8.048 131.575 8.09 131.431 8.09ZM129.442 7.082C129.64 7.082 129.841 7.055 130.045 7.001C130.249 6.941 130.42 6.854 130.558 6.74C130.696 6.626 130.765 6.485 130.765 6.317C130.765 6.173 130.705 6.056 130.585 5.966C130.471 5.87 130.318 5.798 130.126 5.75C129.94 5.702 129.739 5.678 129.523 5.678C129.157 5.678 128.878 5.741 128.686 5.867C128.5 5.993 128.407 6.161 128.407 6.371C128.407 6.599 128.494 6.776 128.668 6.902C128.848 7.022 129.106 7.082 129.442 7.082ZM137.011 3.878C137.071 3.632 137.176 3.41 137.326 3.212C137.482 3.014 137.668 2.858 137.884 2.744C138.106 2.624 138.349 2.564 138.613 2.564C138.925 2.564 139.201 2.639 139.441 2.789C139.681 2.939 139.87 3.185 140.008 3.527C140.152 3.869 140.224 4.325 140.224 4.895C140.224 5.189 140.212 5.486 140.188 5.786C140.164 6.086 140.134 6.365 140.098 6.623C140.062 6.881 140.023 7.097 139.981 7.271C139.921 7.511 139.828 7.694 139.702 7.82C139.582 7.946 139.429 8.009 139.243 8.009C139.087 8.009 138.964 7.94 138.874 7.802C138.784 7.664 138.739 7.466 138.739 7.208C138.739 7.088 138.754 6.935 138.784 6.749C138.814 6.557 138.847 6.35 138.883 6.128C138.919 5.9 138.952 5.669 138.982 5.435C139.012 5.201 139.027 4.979 139.027 4.769C139.027 4.457 138.964 4.217 138.838 4.049C138.712 3.875 138.535 3.788 138.307 3.788C138.055 3.788 137.845 3.92 137.677 4.184C137.515 4.442 137.419 4.82 137.389 5.318C137.365 5.762 137.344 6.158 137.326 6.506C137.308 6.848 137.263 7.13 137.191 7.352C137.143 7.508 137.074 7.625 136.984 7.703C136.9 7.781 136.786 7.82 136.642 7.82C136.48 7.82 136.351 7.76 136.255 7.64C136.165 7.52 136.114 7.331 136.102 7.073C136.09 6.857 136.087 6.602 136.093 6.308C136.099 6.014 136.102 5.723 136.102 5.435C136.108 5.141 136.105 4.898 136.093 4.706C136.069 4.322 136 4.04 135.886 3.86C135.778 3.68 135.613 3.59 135.391 3.59C135.133 3.59 134.926 3.71 134.77 3.95C134.62 4.19 134.527 4.523 134.491 4.949C134.479 5.123 134.473 5.339 134.473 5.597C134.479 5.849 134.485 6.101 134.491 6.353C134.497 6.605 134.494 6.815 134.482 6.983C134.476 7.343 134.419 7.601 134.311 7.757C134.209 7.913 134.065 7.991 133.879 7.991C133.657 7.991 133.495 7.919 133.393 7.775C133.297 7.631 133.234 7.4 133.204 7.082C133.18 6.8 133.162 6.521 133.15 6.245C133.138 5.963 133.132 5.684 133.132 5.408C133.132 5.126 133.138 4.82 133.15 4.49C133.168 4.16 133.192 3.848 133.222 3.554C133.258 3.254 133.321 3.002 133.411 2.798C133.501 2.594 133.651 2.492 133.861 2.492C134.035 2.492 134.158 2.579 134.23 2.753C134.302 2.921 134.338 3.182 134.338 3.536C134.338 3.656 134.329 3.767 134.311 3.869L134.284 3.689C134.404 3.299 134.596 2.996 134.86 2.78C135.124 2.558 135.418 2.447 135.742 2.447C136.168 2.447 136.501 2.585 136.741 2.861C136.981 3.131 137.113 3.506 137.137 3.986L137.011 3.878ZM143.809 8.09C143.677 8.09 143.569 8.045 143.485 7.955C143.407 7.865 143.344 7.736 143.296 7.568C143.248 7.322 143.206 7.001 143.17 6.605C143.14 6.203 143.125 5.774 143.125 5.318C143.125 5.06 143.131 4.769 143.143 4.445C143.155 4.121 143.17 3.794 143.188 3.464C143.212 3.128 143.236 2.816 143.26 2.528C143.29 2.24 143.32 2.006 143.35 1.826C143.398 1.562 143.467 1.355 143.557 1.205C143.653 1.049 143.803 0.971 144.007 0.971C144.217 0.971 144.37 1.052 144.466 1.214C144.562 1.37 144.61 1.565 144.61 1.799C144.61 2.063 144.589 2.375 144.547 2.735C144.511 3.095 144.454 3.461 144.376 3.833L144.196 4.049C144.262 3.797 144.37 3.566 144.52 3.356C144.67 3.146 144.859 2.981 145.087 2.861C145.315 2.735 145.579 2.672 145.879 2.672C146.467 2.672 146.935 2.882 147.283 3.302C147.637 3.716 147.814 4.364 147.814 5.246C147.814 5.864 147.721 6.38 147.535 6.794C147.355 7.208 147.106 7.52 146.788 7.73C146.476 7.934 146.119 8.036 145.717 8.036C145.339 8.036 145.012 7.925 144.736 7.703C144.466 7.481 144.292 7.16 144.214 6.74L144.34 6.839C144.316 7.271 144.256 7.589 144.16 7.793C144.07 7.991 143.953 8.09 143.809 8.09ZM145.456 6.992C145.756 6.992 146.02 6.857 146.248 6.587C146.476 6.317 146.59 5.894 146.59 5.318C146.59 4.838 146.5 4.448 146.32 4.148C146.146 3.848 145.852 3.698 145.438 3.698C145.102 3.698 144.832 3.833 144.628 4.103C144.424 4.367 144.322 4.769 144.322 5.309C144.322 5.801 144.424 6.206 144.628 6.524C144.832 6.836 145.108 6.992 145.456 6.992ZM152.657 8.09C152.453 8.09 152.312 8.012 152.234 7.856C152.162 7.694 152.12 7.439 152.108 7.091L152.198 7.136C151.862 7.79 151.226 8.117 150.29 8.117C149.864 8.117 149.51 8.042 149.228 7.892C148.946 7.736 148.736 7.532 148.598 7.28C148.466 7.022 148.4 6.743 148.4 6.443C148.4 5.927 148.58 5.519 148.94 5.219C149.3 4.913 149.777 4.76 150.371 4.76C150.761 4.76 151.1 4.817 151.388 4.931C151.676 5.045 151.922 5.204 152.126 5.408L151.973 5.39C151.931 4.784 151.799 4.352 151.577 4.094C151.361 3.83 151.052 3.698 150.65 3.698C150.416 3.698 150.2 3.734 150.002 3.806C149.804 3.878 149.621 3.953 149.453 4.031C149.291 4.103 149.138 4.139 148.994 4.139C148.85 4.139 148.736 4.091 148.652 3.995C148.574 3.899 148.535 3.776 148.535 3.626C148.535 3.41 148.637 3.206 148.841 3.014C149.051 2.822 149.327 2.666 149.669 2.546C150.011 2.426 150.383 2.366 150.785 2.366C151.271 2.366 151.688 2.483 152.036 2.717C152.384 2.951 152.648 3.293 152.828 3.743C152.984 4.127 153.095 4.556 153.161 5.03C153.227 5.504 153.26 6.011 153.26 6.551C153.26 6.959 153.239 7.274 153.197 7.496C153.155 7.718 153.089 7.874 152.999 7.964C152.915 8.048 152.801 8.09 152.657 8.09ZM150.668 7.082C150.866 7.082 151.067 7.055 151.271 7.001C151.475 6.941 151.646 6.854 151.784 6.74C151.922 6.626 151.991 6.485 151.991 6.317C151.991 6.173 151.931 6.056 151.811 5.966C151.697 5.87 151.544 5.798 151.352 5.75C151.166 5.702 150.965 5.678 150.749 5.678C150.383 5.678 150.104 5.741 149.912 5.867C149.726 5.993 149.633 6.161 149.633 6.371C149.633 6.599 149.72 6.776 149.894 6.902C150.074 7.022 150.332 7.082 150.668 7.082ZM155.276 2.402C155.468 2.402 155.597 2.48 155.663 2.636C155.735 2.792 155.771 3.023 155.771 3.329C155.771 3.401 155.765 3.479 155.753 3.563C155.747 3.641 155.735 3.713 155.717 3.779L155.699 3.599C155.843 3.209 156.065 2.906 156.365 2.69C156.665 2.468 156.983 2.357 157.319 2.357C157.691 2.357 158 2.462 158.246 2.672C158.498 2.882 158.684 3.176 158.804 3.554C158.93 3.932 158.993 4.379 158.993 4.895C158.993 5.213 158.978 5.528 158.948 5.84C158.924 6.146 158.888 6.428 158.84 6.686C158.798 6.938 158.75 7.145 158.696 7.307C158.624 7.511 158.531 7.664 158.417 7.766C158.303 7.862 158.168 7.91 158.012 7.91C157.856 7.91 157.736 7.853 157.652 7.739C157.568 7.625 157.526 7.472 157.526 7.28C157.526 7.076 157.541 6.83 157.571 6.542C157.601 6.248 157.628 5.951 157.652 5.651C157.682 5.345 157.697 5.069 157.697 4.823C157.697 3.983 157.421 3.563 156.869 3.563C156.575 3.563 156.329 3.695 156.131 3.959C155.933 4.217 155.801 4.586 155.735 5.066C155.717 5.228 155.708 5.429 155.708 5.669C155.708 5.909 155.708 6.149 155.708 6.389C155.714 6.623 155.708 6.821 155.69 6.983C155.666 7.343 155.597 7.601 155.483 7.757C155.375 7.913 155.225 7.991 155.033 7.991C154.811 7.991 154.643 7.889 154.529 7.685C154.415 7.475 154.358 7.124 154.358 6.632C154.358 6.38 154.364 6.098 154.376 5.786C154.388 5.474 154.403 5.162 154.421 4.85C154.445 4.532 154.472 4.244 154.502 3.986C154.562 3.5 154.649 3.116 154.763 2.834C154.877 2.546 155.048 2.402 155.276 2.402ZM161.807 7.856C161.243 7.856 160.784 7.64 160.43 7.208C160.076 6.77 159.899 6.107 159.899 5.219C159.899 4.271 160.07 3.578 160.412 3.14C160.754 2.702 161.204 2.483 161.762 2.483C162.092 2.483 162.383 2.567 162.635 2.735C162.887 2.903 163.103 3.14 163.283 3.446L163.211 3.572C163.193 3.488 163.178 3.398 163.166 3.302C163.154 3.206 163.148 3.134 163.148 3.086C163.148 2.84 163.187 2.651 163.265 2.519C163.349 2.381 163.478 2.312 163.652 2.312C163.844 2.312 163.994 2.39 164.102 2.546C164.216 2.702 164.303 2.924 164.363 3.212C164.441 3.506 164.507 3.881 164.561 4.337C164.615 4.787 164.642 5.243 164.642 5.705C164.642 6.281 164.621 6.764 164.579 7.154C164.537 7.544 164.468 7.868 164.372 8.126C164.276 8.384 164.15 8.609 163.994 8.801C163.736 9.113 163.403 9.35 162.995 9.512C162.593 9.68 162.128 9.764 161.6 9.764C161.222 9.764 160.919 9.728 160.691 9.656C160.463 9.59 160.298 9.497 160.196 9.377C160.1 9.263 160.052 9.134 160.052 8.99C160.052 8.84 160.094 8.714 160.178 8.612C160.262 8.516 160.388 8.468 160.556 8.468C160.706 8.468 160.88 8.492 161.078 8.54C161.282 8.588 161.522 8.612 161.798 8.612C162.38 8.612 162.791 8.474 163.031 8.198C163.277 7.928 163.4 7.538 163.4 7.028C163.4 6.89 163.391 6.728 163.373 6.542L163.499 6.587C163.349 6.971 163.127 7.28 162.833 7.514C162.539 7.742 162.197 7.856 161.807 7.856ZM162.149 6.749C162.341 6.749 162.533 6.698 162.725 6.596C162.917 6.494 163.076 6.326 163.202 6.092C163.328 5.858 163.391 5.543 163.391 5.147C163.391 4.673 163.28 4.286 163.058 3.986C162.836 3.686 162.524 3.536 162.122 3.536C161.774 3.536 161.519 3.668 161.357 3.932C161.195 4.196 161.114 4.595 161.114 5.129C161.114 5.639 161.195 6.038 161.357 6.326C161.519 6.608 161.783 6.749 162.149 6.749ZM169.789 7.946C169.627 7.946 169.501 7.892 169.411 7.784C169.327 7.67 169.27 7.526 169.24 7.352C169.21 7.172 169.195 6.983 169.195 6.785L169.24 6.749C169.18 7.007 169.063 7.229 168.889 7.415C168.715 7.601 168.514 7.745 168.286 7.847C168.058 7.943 167.83 7.991 167.602 7.991C167.296 7.991 167.017 7.919 166.765 7.775C166.513 7.631 166.318 7.409 166.18 7.109C166.042 6.791 165.934 6.392 165.856 5.912C165.778 5.426 165.739 4.928 165.739 4.418C165.739 4.142 165.751 3.887 165.775 3.653C165.799 3.419 165.838 3.227 165.892 3.077C165.94 2.921 166.012 2.807 166.108 2.735C166.204 2.657 166.327 2.618 166.477 2.618C166.651 2.618 166.786 2.687 166.882 2.825C166.984 2.957 167.047 3.143 167.071 3.383C167.095 3.581 167.11 3.827 167.116 4.121C167.128 4.409 167.137 4.7 167.143 4.994C167.155 5.282 167.17 5.525 167.188 5.723C167.224 6.083 167.317 6.35 167.467 6.524C167.617 6.692 167.8 6.776 168.016 6.776C168.334 6.776 168.577 6.656 168.745 6.416C168.913 6.176 168.997 5.84 168.997 5.408C168.997 5.192 168.985 4.949 168.961 4.679C168.937 4.403 168.91 4.136 168.88 3.878C168.856 3.62 168.844 3.407 168.844 3.239C168.844 2.957 168.892 2.756 168.988 2.636C169.084 2.51 169.216 2.447 169.384 2.447C169.528 2.447 169.648 2.486 169.744 2.564C169.846 2.642 169.927 2.75 169.987 2.888C170.071 3.068 170.143 3.314 170.203 3.626C170.263 3.938 170.311 4.292 170.347 4.688C170.383 5.084 170.401 5.501 170.401 5.939C170.401 6.611 170.356 7.115 170.266 7.451C170.176 7.781 170.017 7.946 169.789 7.946ZM172.414 2.402C172.606 2.402 172.735 2.48 172.801 2.636C172.873 2.792 172.909 3.023 172.909 3.329C172.909 3.401 172.903 3.479 172.891 3.563C172.885 3.641 172.873 3.713 172.855 3.779L172.837 3.599C172.981 3.209 173.203 2.906 173.503 2.69C173.803 2.468 174.121 2.357 174.457 2.357C174.829 2.357 175.138 2.462 175.384 2.672C175.636 2.882 175.822 3.176 175.942 3.554C176.068 3.932 176.131 4.379 176.131 4.895C176.131 5.213 176.116 5.528 176.086 5.84C176.062 6.146 176.026 6.428 175.978 6.686C175.936 6.938 175.888 7.145 175.834 7.307C175.762 7.511 175.669 7.664 175.555 7.766C175.441 7.862 175.306 7.91 175.15 7.91C174.994 7.91 174.874 7.853 174.79 7.739C174.706 7.625 174.664 7.472 174.664 7.28C174.664 7.076 174.679 6.83 174.709 6.542C174.739 6.248 174.766 5.951 174.79 5.651C174.82 5.345 174.835 5.069 174.835 4.823C174.835 3.983 174.559 3.563 174.007 3.563C173.713 3.563 173.467 3.695 173.269 3.959C173.071 4.217 172.939 4.586 172.873 5.066C172.855 5.228 172.846 5.429 172.846 5.669C172.846 5.909 172.846 6.149 172.846 6.389C172.852 6.623 172.846 6.821 172.828 6.983C172.804 7.343 172.735 7.601 172.621 7.757C172.513 7.913 172.363 7.991 172.171 7.991C171.949 7.991 171.781 7.889 171.667 7.685C171.553 7.475 171.496 7.124 171.496 6.632C171.496 6.38 171.502 6.098 171.514 5.786C171.526 5.474 171.541 5.162 171.559 4.85C171.583 4.532 171.61 4.244 171.64 3.986C171.7 3.5 171.787 3.116 171.901 2.834C172.015 2.546 172.186 2.402 172.414 2.402ZM180.711 8.126C180.123 8.126 179.664 7.907 179.334 7.469C179.004 7.025 178.839 6.35 178.839 5.444C178.839 4.544 179.001 3.887 179.325 3.473C179.655 3.053 180.126 2.843 180.738 2.843C181.086 2.843 181.389 2.915 181.647 3.059C181.911 3.203 182.145 3.407 182.349 3.671L182.277 3.707C182.223 3.461 182.169 3.2 182.115 2.924C182.061 2.648 182.016 2.387 181.98 2.141C181.95 1.889 181.935 1.691 181.935 1.547C181.935 1.343 181.968 1.187 182.034 1.079C182.1 0.965 182.205 0.908 182.349 0.908C182.553 0.908 182.718 0.995 182.844 1.169C182.97 1.337 183.075 1.598 183.159 1.952C183.237 2.27 183.306 2.648 183.366 3.086C183.426 3.518 183.474 3.971 183.51 4.445C183.552 4.913 183.573 5.363 183.573 5.795C183.573 6.395 183.54 6.863 183.474 7.199C183.414 7.529 183.327 7.76 183.213 7.892C183.105 8.024 182.976 8.09 182.826 8.09C182.64 8.09 182.514 7.997 182.448 7.811C182.382 7.625 182.355 7.322 182.367 6.902H182.502C182.34 7.274 182.103 7.571 181.791 7.793C181.485 8.015 181.125 8.126 180.711 8.126ZM181.188 7.01C181.404 7.01 181.602 6.956 181.782 6.848C181.968 6.734 182.115 6.56 182.223 6.326C182.337 6.092 182.394 5.795 182.394 5.435C182.394 4.973 182.289 4.598 182.079 4.31C181.869 4.016 181.566 3.869 181.17 3.869C180.858 3.869 180.603 3.998 180.405 4.256C180.213 4.514 180.117 4.904 180.117 5.426C180.117 5.888 180.213 6.269 180.405 6.569C180.603 6.863 180.864 7.01 181.188 7.01ZM188.604 8.09C188.4 8.09 188.259 8.012 188.181 7.856C188.109 7.694 188.067 7.439 188.055 7.091L188.145 7.136C187.809 7.79 187.173 8.117 186.237 8.117C185.811 8.117 185.457 8.042 185.175 7.892C184.893 7.736 184.683 7.532 184.545 7.28C184.413 7.022 184.347 6.743 184.347 6.443C184.347 5.927 184.527 5.519 184.887 5.219C185.247 4.913 185.724 4.76 186.318 4.76C186.708 4.76 187.047 4.817 187.335 4.931C187.623 5.045 187.869 5.204 188.073 5.408L187.92 5.39C187.878 4.784 187.746 4.352 187.524 4.094C187.308 3.83 186.999 3.698 186.597 3.698C186.363 3.698 186.147 3.734 185.949 3.806C185.751 3.878 185.568 3.953 185.4 4.031C185.238 4.103 185.085 4.139 184.941 4.139C184.797 4.139 184.683 4.091 184.599 3.995C184.521 3.899 184.482 3.776 184.482 3.626C184.482 3.41 184.584 3.206 184.788 3.014C184.998 2.822 185.274 2.666 185.616 2.546C185.958 2.426 186.33 2.366 186.732 2.366C187.218 2.366 187.635 2.483 187.983 2.717C188.331 2.951 188.595 3.293 188.775 3.743C188.931 4.127 189.042 4.556 189.108 5.03C189.174 5.504 189.207 6.011 189.207 6.551C189.207 6.959 189.186 7.274 189.144 7.496C189.102 7.718 189.036 7.874 188.946 7.964C188.862 8.048 188.748 8.09 188.604 8.09ZM186.615 7.082C186.813 7.082 187.014 7.055 187.218 7.001C187.422 6.941 187.593 6.854 187.731 6.74C187.869 6.626 187.938 6.485 187.938 6.317C187.938 6.173 187.878 6.056 187.758 5.966C187.644 5.87 187.491 5.798 187.299 5.75C187.113 5.702 186.912 5.678 186.696 5.678C186.33 5.678 186.051 5.741 185.859 5.867C185.673 5.993 185.58 6.161 185.58 6.371C185.58 6.599 185.667 6.776 185.841 6.902C186.021 7.022 186.279 7.082 186.615 7.082ZM191.553 2.582H191.373C191.355 2.318 191.361 2.069 191.391 1.835C191.421 1.595 191.484 1.403 191.58 1.259C191.682 1.109 191.826 1.034 192.012 1.034C192.18 1.034 192.303 1.088 192.381 1.196C192.459 1.304 192.498 1.454 192.498 1.646C192.498 2.024 192.426 2.348 192.282 2.618L192.12 2.6C192.444 2.486 192.81 2.429 193.218 2.429C193.476 2.429 193.68 2.48 193.83 2.582C193.986 2.678 194.064 2.843 194.064 3.077C194.064 3.299 193.974 3.467 193.794 3.581C193.614 3.695 193.389 3.752 193.119 3.752C192.957 3.752 192.783 3.746 192.597 3.734C192.417 3.716 192.24 3.689 192.066 3.653L192.219 3.464C192.273 3.692 192.324 3.953 192.372 4.247C192.426 4.535 192.474 4.835 192.516 5.147C192.558 5.459 192.591 5.762 192.615 6.056C192.639 6.35 192.651 6.614 192.651 6.848C192.651 7.232 192.591 7.535 192.471 7.757C192.351 7.979 192.174 8.09 191.94 8.09C191.754 8.09 191.607 8.033 191.499 7.919C191.397 7.805 191.322 7.661 191.274 7.487C191.232 7.307 191.205 7.121 191.193 6.929C191.187 6.737 191.184 6.563 191.184 6.407C191.184 6.143 191.196 5.846 191.22 5.516C191.244 5.18 191.277 4.835 191.319 4.481C191.367 4.127 191.421 3.785 191.481 3.455L191.661 3.608C191.355 3.764 190.977 3.842 190.527 3.842C190.251 3.842 190.038 3.791 189.888 3.689C189.738 3.587 189.663 3.428 189.663 3.212C189.663 2.978 189.747 2.798 189.915 2.672C190.083 2.54 190.308 2.474 190.59 2.474C190.776 2.474 190.95 2.486 191.112 2.51C191.28 2.528 191.427 2.552 191.553 2.582ZM198.729 8.09C198.525 8.09 198.384 8.012 198.306 7.856C198.234 7.694 198.192 7.439 198.18 7.091L198.27 7.136C197.934 7.79 197.298 8.117 196.362 8.117C195.936 8.117 195.582 8.042 195.3 7.892C195.018 7.736 194.808 7.532 194.67 7.28C194.538 7.022 194.472 6.743 194.472 6.443C194.472 5.927 194.652 5.519 195.012 5.219C195.372 4.913 195.849 4.76 196.443 4.76C196.833 4.76 197.172 4.817 197.46 4.931C197.748 5.045 197.994 5.204 198.198 5.408L198.045 5.39C198.003 4.784 197.871 4.352 197.649 4.094C197.433 3.83 197.124 3.698 196.722 3.698C196.488 3.698 196.272 3.734 196.074 3.806C195.876 3.878 195.693 3.953 195.525 4.031C195.363 4.103 195.21 4.139 195.066 4.139C194.922 4.139 194.808 4.091 194.724 3.995C194.646 3.899 194.607 3.776 194.607 3.626C194.607 3.41 194.709 3.206 194.913 3.014C195.123 2.822 195.399 2.666 195.741 2.546C196.083 2.426 196.455 2.366 196.857 2.366C197.343 2.366 197.76 2.483 198.108 2.717C198.456 2.951 198.72 3.293 198.9 3.743C199.056 4.127 199.167 4.556 199.233 5.03C199.299 5.504 199.332 6.011 199.332 6.551C199.332 6.959 199.311 7.274 199.269 7.496C199.227 7.718 199.161 7.874 199.071 7.964C198.987 8.048 198.873 8.09 198.729 8.09ZM196.74 7.082C196.938 7.082 197.139 7.055 197.343 7.001C197.547 6.941 197.718 6.854 197.856 6.74C197.994 6.626 198.063 6.485 198.063 6.317C198.063 6.173 198.003 6.056 197.883 5.966C197.769 5.87 197.616 5.798 197.424 5.75C197.238 5.702 197.037 5.678 196.821 5.678C196.455 5.678 196.176 5.741 195.984 5.867C195.798 5.993 195.705 6.161 195.705 6.371C195.705 6.599 195.792 6.776 195.966 6.902C196.146 7.022 196.404 7.082 196.74 7.082ZM200.43 3.941C200.43 3.365 200.484 2.951 200.592 2.699C200.7 2.441 200.853 2.312 201.051 2.312C201.207 2.312 201.33 2.378 201.42 2.51C201.51 2.636 201.576 2.795 201.618 2.987C201.66 3.173 201.681 3.362 201.681 3.554L201.636 3.536C201.738 3.212 201.894 2.933 202.104 2.699C202.32 2.465 202.578 2.348 202.878 2.348C203.232 2.348 203.493 2.495 203.661 2.789C203.829 3.077 203.913 3.437 203.913 3.869C203.913 4.445 203.847 4.847 203.715 5.075C203.583 5.303 203.406 5.417 203.184 5.417C203.022 5.417 202.902 5.351 202.824 5.219C202.752 5.087 202.728 4.853 202.752 4.517C202.776 4.163 202.755 3.917 202.689 3.779C202.623 3.641 202.518 3.572 202.374 3.572C202.2 3.572 202.056 3.683 201.942 3.905C201.834 4.121 201.78 4.388 201.78 4.706C201.78 4.832 201.795 4.991 201.825 5.183C201.855 5.375 201.888 5.585 201.924 5.813C201.96 6.035 201.993 6.257 202.023 6.479C202.053 6.701 202.068 6.905 202.068 7.091C202.068 7.421 202.017 7.658 201.915 7.802C201.813 7.946 201.669 8.018 201.483 8.018C201.273 8.018 201.111 7.952 200.997 7.82C200.883 7.682 200.796 7.46 200.736 7.154C200.688 6.878 200.64 6.551 200.592 6.173C200.544 5.795 200.505 5.408 200.475 5.012C200.445 4.616 200.43 4.259 200.43 3.941ZM207.124 2.42C207.286 2.42 207.421 2.516 207.529 2.708C207.637 2.894 207.712 3.191 207.754 3.599L207.565 3.77C207.673 3.35 207.874 3.029 208.168 2.807C208.462 2.585 208.81 2.474 209.212 2.474C209.584 2.474 209.914 2.57 210.202 2.762C210.49 2.954 210.715 3.245 210.877 3.635C211.045 4.019 211.129 4.502 211.129 5.084C211.129 6.026 210.958 6.722 210.616 7.172C210.28 7.616 209.821 7.838 209.239 7.838C208.819 7.838 208.489 7.748 208.249 7.568C208.009 7.388 207.841 7.169 207.745 6.911L207.853 6.857C207.901 7.217 207.94 7.574 207.97 7.928C208.006 8.276 208.024 8.582 208.024 8.846C208.024 9.116 207.976 9.344 207.88 9.53C207.784 9.716 207.631 9.809 207.421 9.809C207.217 9.809 207.064 9.731 206.962 9.575C206.86 9.419 206.785 9.212 206.737 8.954C206.701 8.69 206.665 8.351 206.629 7.937C206.593 7.523 206.563 7.076 206.539 6.596C206.521 6.116 206.512 5.648 206.512 5.192C206.512 4.724 206.527 4.286 206.557 3.878C206.593 3.464 206.635 3.128 206.683 2.87C206.725 2.72 206.779 2.609 206.845 2.537C206.917 2.459 207.01 2.42 207.124 2.42ZM208.843 3.509C208.519 3.509 208.258 3.671 208.06 3.995C207.868 4.313 207.772 4.721 207.772 5.219C207.772 5.729 207.868 6.11 208.06 6.362C208.258 6.614 208.513 6.74 208.825 6.74C209.185 6.74 209.443 6.599 209.599 6.317C209.761 6.029 209.842 5.657 209.842 5.201C209.842 4.619 209.743 4.193 209.545 3.923C209.347 3.647 209.113 3.509 208.843 3.509ZM214.56 8.072C213.894 8.072 213.363 7.973 212.967 7.775C212.571 7.577 212.286 7.292 212.112 6.92C211.938 6.548 211.851 6.104 211.851 5.588C211.851 4.934 211.971 4.379 212.211 3.923C212.457 3.461 212.793 3.107 213.219 2.861C213.651 2.615 214.14 2.492 214.686 2.492C215.328 2.492 215.799 2.642 216.099 2.942C216.399 3.236 216.549 3.623 216.549 4.103C216.549 4.487 216.447 4.82 216.243 5.102C216.045 5.378 215.769 5.591 215.415 5.741C215.061 5.891 214.653 5.966 214.191 5.966C213.933 5.966 213.684 5.933 213.444 5.867C213.204 5.801 212.988 5.711 212.796 5.597L213.012 5.201C212.994 5.345 212.985 5.489 212.985 5.633C212.985 6.053 213.117 6.356 213.381 6.542C213.645 6.722 214.02 6.812 214.506 6.812C214.884 6.812 215.187 6.779 215.415 6.713C215.643 6.647 215.835 6.584 215.991 6.524C216.147 6.458 216.3 6.425 216.45 6.425C216.534 6.425 216.609 6.449 216.675 6.497C216.747 6.539 216.804 6.602 216.846 6.686C216.894 6.77 216.918 6.872 216.918 6.992C216.918 7.172 216.828 7.346 216.648 7.514C216.468 7.676 216.201 7.811 215.847 7.919C215.499 8.021 215.07 8.072 214.56 8.072ZM214.038 5.129C214.464 5.129 214.806 5.039 215.064 4.859C215.322 4.679 215.451 4.457 215.451 4.193C215.451 3.983 215.379 3.812 215.235 3.68C215.097 3.542 214.878 3.473 214.578 3.473C214.296 3.473 214.041 3.527 213.813 3.635C213.591 3.737 213.417 3.872 213.291 4.04C213.165 4.208 213.102 4.391 213.102 4.589C213.102 4.763 213.183 4.898 213.345 4.994C213.513 5.084 213.744 5.129 214.038 5.129ZM217.709 3.941C217.709 3.365 217.763 2.951 217.871 2.699C217.979 2.441 218.132 2.312 218.33 2.312C218.486 2.312 218.609 2.378 218.699 2.51C218.789 2.636 218.855 2.795 218.897 2.987C218.939 3.173 218.96 3.362 218.96 3.554L218.915 3.536C219.017 3.212 219.173 2.933 219.383 2.699C219.599 2.465 219.857 2.348 220.157 2.348C220.511 2.348 220.772 2.495 220.94 2.789C221.108 3.077 221.192 3.437 221.192 3.869C221.192 4.445 221.126 4.847 220.994 5.075C220.862 5.303 220.685 5.417 220.463 5.417C220.301 5.417 220.181 5.351 220.103 5.219C220.031 5.087 220.007 4.853 220.031 4.517C220.055 4.163 220.034 3.917 219.968 3.779C219.902 3.641 219.797 3.572 219.653 3.572C219.479 3.572 219.335 3.683 219.221 3.905C219.113 4.121 219.059 4.388 219.059 4.706C219.059 4.832 219.074 4.991 219.104 5.183C219.134 5.375 219.167 5.585 219.203 5.813C219.239 6.035 219.272 6.257 219.302 6.479C219.332 6.701 219.347 6.905 219.347 7.091C219.347 7.421 219.296 7.658 219.194 7.802C219.092 7.946 218.948 8.018 218.762 8.018C218.552 8.018 218.39 7.952 218.276 7.82C218.162 7.682 218.075 7.46 218.015 7.154C217.967 6.878 217.919 6.551 217.871 6.173C217.823 5.795 217.784 5.408 217.754 5.012C217.724 4.616 217.709 4.259 217.709 3.941ZM224.266 2.366C224.8 2.366 225.184 2.444 225.418 2.6C225.652 2.756 225.769 2.957 225.769 3.203C225.769 3.347 225.718 3.467 225.616 3.563C225.52 3.653 225.382 3.698 225.202 3.698C225.016 3.698 224.821 3.671 224.617 3.617C224.419 3.563 224.188 3.536 223.924 3.536C223.618 3.536 223.39 3.596 223.24 3.716C223.09 3.836 223.015 3.989 223.015 4.175C223.015 4.349 223.081 4.487 223.213 4.589C223.351 4.685 223.612 4.757 223.996 4.805C224.422 4.853 224.773 4.931 225.049 5.039C225.331 5.141 225.541 5.297 225.679 5.507C225.817 5.711 225.886 5.993 225.886 6.353C225.886 6.923 225.685 7.346 225.283 7.622C224.881 7.898 224.326 8.036 223.618 8.036C223.168 8.036 222.811 8 222.547 7.928C222.283 7.856 222.091 7.754 221.971 7.622C221.857 7.49 221.8 7.334 221.8 7.154C221.8 6.998 221.851 6.878 221.953 6.794C222.061 6.704 222.187 6.659 222.331 6.659C222.469 6.659 222.616 6.677 222.772 6.713C222.928 6.743 223.093 6.776 223.267 6.812C223.441 6.848 223.621 6.866 223.807 6.866C224.407 6.866 224.707 6.68 224.707 6.308C224.707 6.182 224.677 6.08 224.617 6.002C224.557 5.924 224.449 5.861 224.293 5.813C224.137 5.759 223.909 5.717 223.609 5.687C223.249 5.651 222.937 5.591 222.673 5.507C222.409 5.417 222.205 5.273 222.061 5.075C221.917 4.871 221.845 4.592 221.845 4.238C221.845 3.68 222.055 3.23 222.475 2.888C222.895 2.54 223.492 2.366 224.266 2.366ZM229.317 8.072C228.651 8.072 228.12 7.973 227.724 7.775C227.328 7.577 227.043 7.292 226.869 6.92C226.695 6.548 226.608 6.104 226.608 5.588C226.608 4.934 226.728 4.379 226.968 3.923C227.214 3.461 227.55 3.107 227.976 2.861C228.408 2.615 228.897 2.492 229.443 2.492C230.085 2.492 230.556 2.642 230.856 2.942C231.156 3.236 231.306 3.623 231.306 4.103C231.306 4.487 231.204 4.82 231 5.102C230.802 5.378 230.526 5.591 230.172 5.741C229.818 5.891 229.41 5.966 228.948 5.966C228.69 5.966 228.441 5.933 228.201 5.867C227.961 5.801 227.745 5.711 227.553 5.597L227.769 5.201C227.751 5.345 227.742 5.489 227.742 5.633C227.742 6.053 227.874 6.356 228.138 6.542C228.402 6.722 228.777 6.812 229.263 6.812C229.641 6.812 229.944 6.779 230.172 6.713C230.4 6.647 230.592 6.584 230.748 6.524C230.904 6.458 231.057 6.425 231.207 6.425C231.291 6.425 231.366 6.449 231.432 6.497C231.504 6.539 231.561 6.602 231.603 6.686C231.651 6.77 231.675 6.872 231.675 6.992C231.675 7.172 231.585 7.346 231.405 7.514C231.225 7.676 230.958 7.811 230.604 7.919C230.256 8.021 229.827 8.072 229.317 8.072ZM228.795 5.129C229.221 5.129 229.563 5.039 229.821 4.859C230.079 4.679 230.208 4.457 230.208 4.193C230.208 3.983 230.136 3.812 229.992 3.68C229.854 3.542 229.635 3.473 229.335 3.473C229.053 3.473 228.798 3.527 228.57 3.635C228.348 3.737 228.174 3.872 228.048 4.04C227.922 4.208 227.859 4.391 227.859 4.589C227.859 4.763 227.94 4.898 228.102 4.994C228.27 5.084 228.501 5.129 228.795 5.129ZM234.185 7.856C233.621 7.856 233.162 7.64 232.808 7.208C232.454 6.77 232.277 6.107 232.277 5.219C232.277 4.271 232.448 3.578 232.79 3.14C233.132 2.702 233.582 2.483 234.14 2.483C234.47 2.483 234.761 2.567 235.013 2.735C235.265 2.903 235.481 3.14 235.661 3.446L235.589 3.572C235.571 3.488 235.556 3.398 235.544 3.302C235.532 3.206 235.526 3.134 235.526 3.086C235.526 2.84 235.565 2.651 235.643 2.519C235.727 2.381 235.856 2.312 236.03 2.312C236.222 2.312 236.372 2.39 236.48 2.546C236.594 2.702 236.681 2.924 236.741 3.212C236.819 3.506 236.885 3.881 236.939 4.337C236.993 4.787 237.02 5.243 237.02 5.705C237.02 6.281 236.999 6.764 236.957 7.154C236.915 7.544 236.846 7.868 236.75 8.126C236.654 8.384 236.528 8.609 236.372 8.801C236.114 9.113 235.781 9.35 235.373 9.512C234.971 9.68 234.506 9.764 233.978 9.764C233.6 9.764 233.297 9.728 233.069 9.656C232.841 9.59 232.676 9.497 232.574 9.377C232.478 9.263 232.43 9.134 232.43 8.99C232.43 8.84 232.472 8.714 232.556 8.612C232.64 8.516 232.766 8.468 232.934 8.468C233.084 8.468 233.258 8.492 233.456 8.54C233.66 8.588 233.9 8.612 234.176 8.612C234.758 8.612 235.169 8.474 235.409 8.198C235.655 7.928 235.778 7.538 235.778 7.028C235.778 6.89 235.769 6.728 235.751 6.542L235.877 6.587C235.727 6.971 235.505 7.28 235.211 7.514C234.917 7.742 234.575 7.856 234.185 7.856ZM234.527 6.749C234.719 6.749 234.911 6.698 235.103 6.596C235.295 6.494 235.454 6.326 235.58 6.092C235.706 5.858 235.769 5.543 235.769 5.147C235.769 4.673 235.658 4.286 235.436 3.986C235.214 3.686 234.902 3.536 234.5 3.536C234.152 3.536 233.897 3.668 233.735 3.932C233.573 4.196 233.492 4.595 233.492 5.129C233.492 5.639 233.573 6.038 233.735 6.326C233.897 6.608 234.161 6.749 234.527 6.749ZM238.909 1.097C239.149 1.097 239.32 1.163 239.422 1.295C239.53 1.427 239.584 1.58 239.584 1.754C239.584 1.97 239.518 2.138 239.386 2.258C239.26 2.372 239.08 2.429 238.846 2.429C238.618 2.429 238.447 2.366 238.333 2.24C238.219 2.108 238.162 1.955 238.162 1.781C238.162 1.553 238.231 1.382 238.369 1.268C238.507 1.154 238.687 1.097 238.909 1.097ZM238.963 3.104C239.155 3.104 239.305 3.284 239.413 3.644C239.527 4.004 239.584 4.577 239.584 5.363C239.584 6.329 239.515 7.025 239.377 7.451C239.239 7.877 239.029 8.09 238.747 8.09C238.531 8.09 238.372 7.934 238.27 7.622C238.168 7.304 238.117 6.752 238.117 5.966C238.117 5 238.195 4.283 238.351 3.815C238.513 3.341 238.717 3.104 238.963 3.104Z" fill="black"/>
</svg>
