<svg version="1.1" xmlns="http://www.w3.org/2000/svg" xmlns:xlink="http://www.w3.org/1999/xlink" width="104.36138" height="51.24951" viewBox="0,0,104.36138,51.24951"><g transform="translate(-187.81931,-154.12524)"><g data-paper-data="{&quot;isPaintingLayer&quot;:true}" fill-rule="nonzero" stroke-width="1" stroke-linecap="butt" stroke-linejoin="miter" stroke-miterlimit="10" stroke-dasharray="" stroke-dashoffset="0" style="mix-blend-mode: normal"><path d="M212.53008,154.62524h54.93983c13.37124,0 24.21077,10.83953 24.21077,24.21077c0,13.37124 -10.83953,24.21077 -24.21077,24.21077h-54.93983c-13.37124,0 -24.21077,-10.83953 -24.21077,-24.21077c0,-13.37124 10.83953,-24.21077 24.21077,-24.21077z" fill="#f1657c" stroke="#000000"/><path d="M224.3643,175.67931c-0.12291,0 -0.2219,-0.04097 -0.29705,-0.12291c-0.07505,-0.08874 -0.13651,-0.22879 -0.18438,-0.41996c-0.04777,-0.21855 -0.09218,-0.55992 -0.13316,-1.0243c-0.04097,-0.47118 -0.06146,-0.99702 -0.06146,-1.57742c0,-0.62827 0.01713,-1.2394 0.05122,-1.8335c0.04097,-0.60089 0.09907,-1.13018 0.17413,-1.58767c0.05466,-0.30049 0.13316,-0.52239 0.23559,-0.66579c0.10932,-0.1502 0.25952,-0.22534 0.45069,-0.22534c0.12291,0 0.23224,0.04097 0.32778,0.12291c0.09563,0.08194 0.16733,0.22879 0.21511,0.44045c0.05466,0.21165 0.08194,0.51215 0.08194,0.90139c0,0.19118 -0.0068,0.40972 -0.02049,0.65555c-0.0136,0.23903 -0.03408,0.50536 -0.06146,0.79895h0.04097c0.54632,-0.75119 1.02775,-1.34864 1.44427,-1.79253c0.41661,-0.45069 0.78192,-0.77503 1.096,-0.97308c0.32098,-0.19807 0.60099,-0.29705 0.83993,-0.29705c0.19127,0 0.33467,0.06146 0.43021,0.18438c0.10243,0.12291 0.15365,0.27312 0.15365,0.45069c0,0.37554 -0.28336,0.82624 -0.85017,1.35208c-0.55992,0.52584 -1.46475,1.15746 -2.7144,1.89496l0.08194,-0.19462c1.07897,0.68283 1.89496,1.28717 2.44808,1.81301c0.55312,0.51895 0.82968,0.97988 0.82968,1.3828c0,0.17758 -0.05802,0.32433 -0.17413,0.44045c-0.10923,0.10923 -0.27312,0.16389 -0.49167,0.16389c-0.27312,0 -0.56337,-0.09218 -0.87066,-0.27656c-0.30729,-0.19118 -0.64866,-0.5087 -1.0243,-0.9526c-0.36874,-0.45069 -0.78872,-1.06183 -1.25989,-1.8335h-0.04097c0.01369,0.15709 0.02393,0.32098 0.03073,0.49167c0.00689,0.16389 0.01024,0.32778 0.01024,0.49167c0,0.78527 -0.05457,1.34864 -0.16389,1.6901c-0.10923,0.33458 -0.30729,0.50191 -0.5941,0.50191zM232.88706,175.65882c-0.75799,0 -1.36233,-0.11267 -1.81301,-0.33802c-0.45069,-0.22534 -0.77512,-0.54968 -0.97308,-0.97308c-0.19807,-0.42341 -0.29705,-0.92867 -0.29705,-1.51597c0,-0.7443 0.13651,-1.37601 0.40972,-1.89496c0.27991,-0.52584 0.66235,-0.92867 1.14722,-1.20868c0.49167,-0.28001 1.04814,-0.41996 1.66961,-0.41996c0.73061,0 1.26669,0.17069 1.60816,0.51215c0.34138,0.33458 0.51215,0.77503 0.51215,1.32135c0,0.43701 -0.11612,0.81599 -0.34827,1.13697c-0.22534,0.31409 -0.53952,0.55657 -0.94235,0.72725c-0.40292,0.17069 -0.8673,0.25607 -1.39305,0.25607c-0.29369,0 -0.57705,-0.03753 -0.85017,-0.11267c-0.27321,-0.07515 -0.51905,-0.17758 -0.7375,-0.30729l0.24583,-0.45069c-0.02049,0.16389 -0.03073,0.32778 -0.03073,0.49167c0,0.47798 0.1502,0.82288 0.45069,1.03455c0.3004,0.20486 0.72725,0.30729 1.28038,0.30729c0.43021,0 0.77503,-0.03753 1.03455,-0.11267c0.25943,-0.07515 0.47798,-0.14685 0.65555,-0.21511c0.17749,-0.07515 0.35161,-0.11267 0.52239,-0.11267c0.09554,0 0.18093,0.02729 0.25607,0.08194c0.08194,0.04777 0.14676,0.11947 0.19462,0.21511c0.05457,0.09563 0.08194,0.21165 0.08194,0.34827c0,0.20486 -0.10243,0.40292 -0.30729,0.5941c-0.20486,0.18438 -0.5088,0.33802 -0.91163,0.46094c-0.39612,0.11612 -0.88435,0.17413 -1.46475,0.17413zM232.29297,172.30935c0.48478,0 0.87401,-0.10243 1.1677,-0.30729c0.2936,-0.20486 0.44045,-0.45749 0.44045,-0.75799c0,-0.23903 -0.08194,-0.43365 -0.24583,-0.58385c-0.15709,-0.15709 -0.40637,-0.23559 -0.74774,-0.23559c-0.32098,0 -0.61123,0.06146 -0.87066,0.18438c-0.25272,0.11612 -0.45069,0.26976 -0.5941,0.46094c-0.1434,0.19118 -0.21511,0.39948 -0.21511,0.62483c0,0.19807 0.09218,0.35171 0.27656,0.46094c0.19118,0.10243 0.45405,0.15365 0.78872,0.15365zM237.57715,175.59737c-0.21175,0 -0.37899,-0.04777 -0.50191,-0.1434c-0.12291,-0.10243 -0.222,-0.26976 -0.29705,-0.50191c-0.10243,-0.34147 -0.18102,-0.77167 -0.23559,-1.29062c-0.04786,-0.52584 -0.07171,-1.17115 -0.07171,-1.93593c0,-0.47118 0.01704,-0.94235 0.05122,-1.41353c0.04097,-0.47798 0.09218,-0.91163 0.15365,-1.30086c0.06146,-0.39603 0.12627,-0.70332 0.19462,-0.92188c0.07505,-0.23214 0.16389,-0.39268 0.26632,-0.48142c0.10243,-0.08874 0.21845,-0.13316 0.34827,-0.13316c0.13651,0 0.24583,0.04777 0.32778,0.1434c0.08194,0.08874 0.14676,0.24927 0.19462,0.48142c0.04097,0.22534 0.07171,0.50191 0.09218,0.82968c0.02729,0.32778 0.04097,0.67948 0.04097,1.05503c0,0.51215 -0.02393,1.05159 -0.07171,1.6184c-0.04786,0.56681 -0.11267,1.12329 -0.19462,1.66961c-0.07515,0.54632 -0.16733,1.04824 -0.27656,1.50573l-0.2868,-0.1434c0.17749,-0.21855 0.37899,-0.38923 0.60434,-0.51215c0.23214,-0.12291 0.4438,-0.18438 0.63507,-0.18438c0.157,0 0.27656,0.04442 0.35851,0.13316c0.08874,0.08194 0.13316,0.21165 0.13316,0.38923c0,0.17758 -0.0786,0.35506 -0.23559,0.53263c-0.15029,0.17758 -0.33802,0.32433 -0.56337,0.44045c-0.22534,0.10923 -0.44734,0.16389 -0.66579,0.16389zM240.87327,167.72048c0.27321,0 0.46783,0.07515 0.58385,0.22534c0.12291,0.1502 0.18438,0.32433 0.18438,0.52239c0,0.24583 -0.07505,0.43701 -0.22534,0.57361c-0.1434,0.12971 -0.34827,0.19462 -0.61458,0.19462c-0.25943,0 -0.45405,-0.07171 -0.58385,-0.21511c-0.12971,-0.1502 -0.19462,-0.32433 -0.19462,-0.52239c0,-0.25952 0.0786,-0.45414 0.23559,-0.58385c0.15709,-0.12971 0.36196,-0.19462 0.61458,-0.19462zM240.93472,170.00467c0.21855,0 0.38923,0.20486 0.51215,0.61458c0.12981,0.40972 0.19462,1.06183 0.19462,1.95642c0,1.09944 -0.0785,1.89151 -0.23559,2.37638c-0.157,0.48487 -0.39603,0.72725 -0.71701,0.72725c-0.24583,0 -0.42676,-0.17758 -0.54288,-0.53263c-0.11602,-0.36196 -0.17413,-0.99013 -0.17413,-1.88472c0,-1.09944 0.08883,-1.91545 0.26632,-2.44808c0.18438,-0.53943 0.41661,-0.80919 0.69652,-0.80919zM243.99897,175.59737c-0.21165,0 -0.37899,-0.04777 -0.50191,-0.1434c-0.12291,-0.10243 -0.2219,-0.26976 -0.29705,-0.50191c-0.10243,-0.34147 -0.18093,-0.77167 -0.23559,-1.29062c-0.04777,-0.52584 -0.07171,-1.17115 -0.07171,-1.93593c0,-0.47118 0.01713,-0.94235 0.05122,-1.41353c0.04097,-0.47798 0.09218,-0.91163 0.15365,-1.30086c0.06146,-0.39603 0.12636,-0.70332 0.19462,-0.92188c0.07515,-0.23214 0.16389,-0.39268 0.26632,-0.48142c0.10243,-0.08874 0.21855,-0.13316 0.34827,-0.13316c0.1366,0 0.24583,0.04777 0.32778,0.1434c0.08194,0.08874 0.14685,0.24927 0.19462,0.48142c0.04097,0.22534 0.07171,0.50191 0.09218,0.82968c0.02738,0.32778 0.04097,0.67948 0.04097,1.05503c0,0.51215 -0.02384,1.05159 -0.07171,1.6184c-0.04777,0.56681 -0.11267,1.12329 -0.19462,1.66961c-0.07505,0.54632 -0.16724,1.04824 -0.27656,1.50573l-0.2868,-0.1434c0.17758,-0.21855 0.37899,-0.38923 0.60434,-0.51215c0.23224,-0.12291 0.4439,-0.18438 0.63507,-0.18438c0.15709,0 0.27656,0.04442 0.35851,0.13316c0.08883,0.08194 0.13316,0.21165 0.13316,0.38923c0,0.17758 -0.0785,0.35506 -0.23559,0.53263c-0.1502,0.17758 -0.33802,0.32433 -0.56337,0.44045c-0.22534,0.10923 -0.44725,0.16389 -0.66579,0.16389zM247.29517,167.72048c0.27312,0 0.46774,0.07515 0.58385,0.22534c0.12291,0.1502 0.18438,0.32433 0.18438,0.52239c0,0.24583 -0.07515,0.43701 -0.22534,0.57361c-0.1434,0.12971 -0.34827,0.19462 -0.61458,0.19462c-0.25952,0 -0.45414,-0.07171 -0.58385,-0.21511c-0.12971,-0.1502 -0.19462,-0.32433 -0.19462,-0.52239c0,-0.25952 0.0785,-0.45414 0.23559,-0.58385c0.15709,-0.12971 0.36196,-0.19462 0.61458,-0.19462zM247.35663,170.00467c0.21855,0 0.38923,0.20486 0.51215,0.61458c0.12971,0.40972 0.19462,1.06183 0.19462,1.95642c0,1.09944 -0.0785,1.89151 -0.23559,2.37638c-0.15709,0.48487 -0.39603,0.72725 -0.71701,0.72725c-0.24583,0 -0.42676,-0.17758 -0.54288,-0.53263c-0.11612,-0.36196 -0.17413,-0.99013 -0.17413,-1.88472c0,-1.09944 0.08874,-1.91545 0.26632,-2.44808c0.18438,-0.53943 0.41652,-0.80919 0.69652,-0.80919zM250.35942,169.20572c0.21855,0 0.3654,0.08874 0.44045,0.26632c0.08194,0.17758 0.12291,0.44045 0.12291,0.78872c0,0.08194 -0.0068,0.17069 -0.02049,0.26632c-0.0068,0.08874 -0.02049,0.17069 -0.04097,0.24583l-0.02049,-0.20486c0.16389,-0.4439 0.41661,-0.78872 0.75799,-1.03455c0.34147,-0.25263 0.70341,-0.37899 1.08576,-0.37899c0.42341,0 0.77512,0.11947 1.05503,0.35851c0.2868,0.23903 0.49856,0.57361 0.63507,1.00382c0.1434,0.43021 0.21511,0.93891 0.21511,1.52621c0,0.36196 -0.01704,0.72046 -0.05122,1.07552c-0.02729,0.34827 -0.06825,0.66924 -0.12291,0.96284c-0.04777,0.2868 -0.10243,0.52239 -0.16389,0.70677c-0.08194,0.23214 -0.18773,0.40627 -0.31754,0.52239c-0.12971,0.10923 -0.28336,0.16389 -0.46094,0.16389c-0.17749,0 -0.31409,-0.06491 -0.40972,-0.19462c-0.09554,-0.12971 -0.1434,-0.30385 -0.1434,-0.52239c0,-0.23214 0.01713,-0.51215 0.05122,-0.83993c0.03418,-0.33458 0.06491,-0.67259 0.09218,-1.01406c0.03418,-0.34827 0.05122,-0.66235 0.05122,-0.94235c0,-0.95604 -0.31409,-1.43402 -0.94235,-1.43402c-0.33458,0 -0.61458,0.1502 -0.83993,0.45069c-0.22534,0.2936 -0.37554,0.71357 -0.45069,1.25989c-0.02049,0.18438 -0.03073,0.41316 -0.03073,0.68628c0,0.27312 0,0.54632 0,0.81944c0.00689,0.26632 0,0.49167 -0.02049,0.67604c-0.02729,0.40972 -0.10578,0.70332 -0.23559,0.8809c-0.12291,0.17758 -0.2936,0.26632 -0.51215,0.26632c-0.25263,0 -0.4438,-0.11612 -0.57361,-0.34827c-0.12971,-0.23903 -0.19462,-0.63852 -0.19462,-1.19844c0,-0.2868 0.00689,-0.60778 0.02049,-0.96284c0.01369,-0.35506 0.03073,-0.71021 0.05122,-1.06528c0.02738,-0.36196 0.05811,-0.68973 0.09218,-0.98333c0.06835,-0.55312 0.16733,-0.99013 0.29705,-1.31111c0.12981,-0.32778 0.32443,-0.49167 0.58385,-0.49167zM257.79297,175.41299c-0.64187,0 -1.16426,-0.24583 -1.56718,-0.7375c-0.40283,-0.49847 -0.60434,-1.25309 -0.60434,-2.2637c0,-1.07897 0.19462,-1.86767 0.58385,-2.36614c0.38923,-0.49847 0.90139,-0.74774 1.53645,-0.74774c0.37564,0 0.70677,0.09563 0.99357,0.2868c0.2868,0.19118 0.53263,0.46094 0.7375,0.80919l-0.08194,0.1434c-0.02049,-0.09563 -0.03753,-0.19807 -0.05122,-0.30729c-0.0136,-0.10923 -0.02049,-0.19118 -0.02049,-0.24583c0,-0.28001 0.04442,-0.49511 0.13316,-0.64531c0.09563,-0.15709 0.24248,-0.23559 0.44045,-0.23559c0.21855,0 0.38923,0.08874 0.51215,0.26632c0.12981,0.17758 0.22879,0.43021 0.29705,0.75799c0.08883,0.33458 0.16389,0.76143 0.22534,1.28038c0.06146,0.51215 0.09218,1.0311 0.09218,1.55694c0,0.65555 -0.02384,1.20523 -0.07171,1.64913c-0.04777,0.4439 -0.12627,0.81264 -0.23559,1.10624c-0.10923,0.2936 -0.25263,0.54968 -0.43021,0.76823c-0.2936,0.35506 -0.67259,0.62483 -1.13697,0.80919c-0.45749,0.19118 -0.98668,0.2868 -1.58767,0.2868c-0.43021,0 -0.77503,-0.04097 -1.03455,-0.12291c-0.25943,-0.07515 -0.44725,-0.18093 -0.56337,-0.31754c-0.10923,-0.12971 -0.16389,-0.27656 -0.16389,-0.44045c0,-0.17069 0.04786,-0.31409 0.1434,-0.43021c0.09563,-0.10923 0.23903,-0.16389 0.43021,-0.16389c0.17078,0 0.36874,0.02729 0.5941,0.08194c0.23224,0.05466 0.50536,0.08194 0.81944,0.08194c0.66245,0 1.13018,-0.15709 1.40329,-0.47118c0.28001,-0.30729 0.41996,-0.75119 0.41996,-1.33159c0,-0.15709 -0.01024,-0.34147 -0.03073,-0.55312l0.1434,0.05122c-0.17069,0.43701 -0.42332,0.78872 -0.75799,1.05503c-0.33458,0.25952 -0.72381,0.38923 -1.1677,0.38923zM258.1822,174.1531c0.21855,0 0.4371,-0.05802 0.65555,-0.17413c0.21855,-0.11612 0.39948,-0.30729 0.54288,-0.57361c0.1434,-0.26632 0.21511,-0.62483 0.21511,-1.07552c0,-0.53943 -0.12627,-0.97988 -0.37899,-1.32135c-0.25263,-0.34147 -0.60769,-0.51215 -1.06528,-0.51215c-0.39603,0 -0.68628,0.1502 -0.87066,0.45069c-0.18438,0.30049 -0.27656,0.75454 -0.27656,1.36233c0,0.58041 0.09218,1.03455 0.27656,1.36233c0.18438,0.32098 0.48487,0.48142 0.90139,0.48142zM222.12156,187.82567c-0.66924,0 -1.19164,-0.24927 -1.56718,-0.74774c-0.37564,-0.50536 -0.56337,-1.27358 -0.56337,-2.30468c0,-1.0243 0.18438,-1.77204 0.55312,-2.24323c0.37554,-0.47798 0.91163,-0.71701 1.60816,-0.71701c0.39603,0 0.74085,0.08194 1.03455,0.24583c0.3004,0.16389 0.56672,0.39603 0.79895,0.69652l-0.08194,0.04097c-0.06146,-0.28001 -0.12291,-0.57705 -0.18438,-0.89114c-0.06146,-0.31409 -0.11267,-0.61114 -0.15365,-0.89114c-0.03418,-0.2868 -0.05122,-0.51215 -0.05122,-0.67604c0,-0.23214 0.03753,-0.40972 0.11267,-0.53263c0.07505,-0.12971 0.19462,-0.19462 0.35851,-0.19462c0.23214,0 0.41996,0.09898 0.56337,0.29705c0.1434,0.19118 0.26287,0.48822 0.35851,0.89114c0.08874,0.36196 0.16724,0.79216 0.23559,1.29062c0.06825,0.49167 0.12291,1.00726 0.16389,1.54669c0.04777,0.53263 0.07171,1.04479 0.07171,1.53645c0,0.68283 -0.03762,1.21548 -0.11267,1.59791c-0.06835,0.37554 -0.16733,0.63852 -0.29705,0.78872c-0.12291,0.1502 -0.26976,0.22534 -0.44045,0.22534c-0.21175,0 -0.35516,-0.10587 -0.43021,-0.31754c-0.07515,-0.21165 -0.10587,-0.55657 -0.09218,-1.03455h0.15365c-0.18438,0.42341 -0.45414,0.76143 -0.80919,1.01406c-0.34827,0.25263 -0.75799,0.37899 -1.22917,0.37899zM222.66443,186.55554c0.24583,0 0.47118,-0.06146 0.67604,-0.18438c0.21165,-0.12971 0.37899,-0.32778 0.50191,-0.5941c0.12971,-0.26632 0.19462,-0.60434 0.19462,-1.01406c0,-0.52584 -0.11956,-0.9526 -0.35851,-1.28038c-0.23903,-0.33458 -0.58385,-0.50191 -1.03455,-0.50191c-0.35516,0 -0.64531,0.14685 -0.87066,0.44045c-0.21855,0.2936 -0.32778,0.7375 -0.32778,1.33159c0,0.52584 0.10923,0.9594 0.32778,1.30086c0.22534,0.33458 0.52239,0.50191 0.89114,0.50191zM231.10422,187.78469c-0.23224,0 -0.39268,-0.08874 -0.48142,-0.26632c-0.08194,-0.18438 -0.12981,-0.47463 -0.1434,-0.87066l0.10243,0.05122c-0.38243,0.7443 -1.10624,1.11649 -2.17152,1.11649c-0.48487,0 -0.88779,-0.08539 -1.20868,-0.25607c-0.32098,-0.17758 -0.56001,-0.40972 -0.71701,-0.69652c-0.15029,-0.2936 -0.22534,-0.61114 -0.22534,-0.9526c0,-0.5873 0.20486,-1.05159 0.61458,-1.39305c0.40972,-0.34827 0.9526,-0.52239 1.62864,-0.52239c0.4438,0 0.82968,0.06491 1.15746,0.19462c0.32778,0.12971 0.60769,0.31074 0.83993,0.54288l-0.17413,-0.02049c-0.04786,-0.68973 -0.19807,-1.18139 -0.45069,-1.475c-0.24583,-0.30049 -0.59754,-0.45069 -1.05503,-0.45069c-0.26632,0 -0.51215,0.04097 -0.7375,0.12291c-0.22534,0.08194 -0.43365,0.16733 -0.62483,0.25607c-0.18438,0.08194 -0.35851,0.12291 -0.52239,0.12291c-0.16389,0 -0.29369,-0.05466 -0.38923,-0.16389c-0.08883,-0.10923 -0.13316,-0.24927 -0.13316,-0.41996c0,-0.24583 0.11602,-0.47798 0.34827,-0.69652c0.23894,-0.21855 0.55312,-0.39603 0.94235,-0.53263c0.38923,-0.1366 0.81255,-0.20486 1.27013,-0.20486c0.55312,0 1.02766,0.13316 1.42378,0.39948c0.39603,0.26632 0.69652,0.65555 0.90139,1.1677c0.17749,0.43701 0.30385,0.92532 0.37899,1.46475c0.07505,0.53943 0.11258,1.11649 0.11258,1.73107c0,0.46438 -0.02384,0.82288 -0.0716,1.07552c-0.04786,0.25263 -0.12291,0.43021 -0.22534,0.53263c-0.09563,0.09563 -0.22534,0.1434 -0.38923,0.1434zM228.8405,186.63748c0.22534,0 0.45405,-0.03073 0.68628,-0.09218c0.23214,-0.06825 0.42676,-0.16733 0.58385,-0.29705c0.157,-0.12971 0.23559,-0.29025 0.23559,-0.48142c0,-0.16389 -0.06835,-0.29705 -0.20486,-0.39948c-0.12981,-0.10923 -0.30394,-0.19118 -0.52239,-0.24583c-0.21175,-0.05466 -0.44045,-0.08194 -0.68628,-0.08194c-0.41661,0 -0.73414,0.07171 -0.9526,0.21511c-0.21175,0.1434 -0.31754,0.33458 -0.31754,0.57361c0,0.25952 0.09898,0.46094 0.29705,0.60434c0.20486,0.1366 0.49847,0.20486 0.8809,0.20486zM234.08466,181.31111c0.21855,0 0.3653,0.08874 0.44045,0.26632c0.08194,0.17758 0.12291,0.44045 0.12291,0.78872c0,0.08194 -0.0068,0.17069 -0.02049,0.26632c-0.0068,0.08874 -0.02049,0.17069 -0.04097,0.24583l-0.02049,-0.20486c0.16389,-0.4439 0.41652,-0.78872 0.75799,-1.03455c0.34147,-0.25263 0.70332,-0.37899 1.08576,-0.37899c0.42341,0 0.77503,0.11947 1.05503,0.35851c0.2868,0.23903 0.49847,0.57361 0.63507,1.00382c0.1434,0.43021 0.21511,0.93891 0.21511,1.52621c0,0.36196 -0.01704,0.72046 -0.05122,1.07552c-0.02729,0.34827 -0.06825,0.66924 -0.12291,0.96284c-0.04777,0.2868 -0.10243,0.52239 -0.16389,0.70677c-0.08194,0.23214 -0.18782,0.40627 -0.31754,0.52239c-0.12971,0.10923 -0.28336,0.16389 -0.46094,0.16389c-0.17758,0 -0.31409,-0.06491 -0.40972,-0.19462c-0.09563,-0.12971 -0.1434,-0.30385 -0.1434,-0.52239c0,-0.23214 0.01704,-0.51215 0.05122,-0.83993c0.03418,-0.33458 0.06491,-0.67259 0.09218,-1.01406c0.03418,-0.34827 0.05122,-0.66235 0.05122,-0.94235c0,-0.95604 -0.31409,-1.43402 -0.94235,-1.43402c-0.33458,0 -0.61458,0.1502 -0.83993,0.45069c-0.22534,0.2936 -0.37554,0.71357 -0.45069,1.25989c-0.02049,0.18438 -0.03073,0.41316 -0.03073,0.68628c0,0.27312 0,0.54632 0,0.81944c0.0068,0.26632 0,0.49167 -0.02049,0.67604c-0.02729,0.40972 -0.10587,0.70332 -0.23559,0.8809c-0.12291,0.17758 -0.2936,0.26632 -0.51215,0.26632c-0.25263,0 -0.4439,-0.11612 -0.57361,-0.34827c-0.12971,-0.23903 -0.19462,-0.63852 -0.19462,-1.19844c0,-0.2868 0.0068,-0.60778 0.02049,-0.96284c0.01369,-0.35506 0.03073,-0.71021 0.05122,-1.06528c0.02729,-0.36196 0.05802,-0.68973 0.09218,-0.98333c0.06825,-0.55312 0.16733,-0.99013 0.29705,-1.31111c0.12971,-0.32778 0.32433,-0.49167 0.58385,-0.49167zM243.44585,187.74373c-0.41652,0 -0.72725,-0.05466 -0.93212,-0.16389c-0.20486,-0.10923 -0.37554,-0.30729 -0.51215,-0.5941c-0.09554,-0.21855 -0.17749,-0.57361 -0.24583,-1.06528c-0.06146,-0.49847 -0.09218,-1.14377 -0.09218,-1.93593c0,-0.55312 0.01024,-1.08231 0.03073,-1.58767c0.02738,-0.50536 0.06491,-0.89459 0.11267,-1.1677c0.05466,-0.34827 0.1434,-0.59754 0.26632,-0.74774c0.12981,-0.1502 0.29025,-0.22534 0.48142,-0.22534c0.17078,0 0.30394,0.07515 0.39948,0.22534c0.10243,0.1502 0.17413,0.35506 0.21511,0.61458c0.04097,0.25263 0.06146,0.53263 0.06146,0.83993c0,0.83313 -0.03073,1.67641 -0.09218,2.53003c-0.05457,0.85361 -0.13316,1.63889 -0.23559,2.3559l-0.13316,-0.18438c0.30729,-0.21165 0.63507,-0.39268 0.98333,-0.54288c0.35516,-0.1502 0.69997,-0.26632 1.03455,-0.34827c0.34147,-0.08194 0.63852,-0.12291 0.89114,-0.12291c0.25272,0 0.4371,0.05122 0.55312,0.15365c0.12291,0.10243 0.18438,0.24927 0.18438,0.44045c0,0.19118 -0.08529,0.38579 -0.25607,0.58385c-0.16389,0.19118 -0.39948,0.35851 -0.70677,0.50191c-0.17069,0.08194 -0.3721,0.15709 -0.60434,0.22534c-0.23214,0.06146 -0.47118,0.11267 -0.71701,0.15365c-0.23894,0.04097 -0.46774,0.06146 -0.68628,0.06146zM251.87343,187.6208c-0.18438,0 -0.32778,-0.06146 -0.43021,-0.18438c-0.09563,-0.12971 -0.16054,-0.2936 -0.19462,-0.49167c-0.03418,-0.20486 -0.05122,-0.41996 -0.05122,-0.64531l0.05122,-0.04097c-0.06835,0.2936 -0.20151,0.54632 -0.39948,0.75799c-0.19807,0.21165 -0.42685,0.37554 -0.68628,0.49167c-0.25952,0.10923 -0.51905,0.16389 -0.77847,0.16389c-0.34827,0 -0.66579,-0.08194 -0.9526,-0.24583c-0.2868,-0.16389 -0.5088,-0.41652 -0.66579,-0.75799c-0.15709,-0.36196 -0.28001,-0.81599 -0.36874,-1.36233c-0.08883,-0.55312 -0.13316,-1.11993 -0.13316,-1.70034c0,-0.31409 0.0136,-0.60434 0.04097,-0.87066c0.02729,-0.26632 0.07171,-0.48487 0.13316,-0.65555c0.05457,-0.17758 0.13651,-0.30729 0.24583,-0.38923c0.10923,-0.08874 0.24918,-0.13316 0.41996,-0.13316c0.19797,0 0.35161,0.0785 0.46094,0.23559c0.11602,0.1502 0.18773,0.36196 0.21511,0.63507c0.02729,0.22534 0.04433,0.50536 0.05122,0.83993c0.0136,0.32778 0.02384,0.659 0.03073,0.99357c0.0136,0.32778 0.03073,0.60434 0.05122,0.82968c0.04097,0.40972 0.14676,0.71357 0.31754,0.91163c0.17069,0.19118 0.37899,0.2868 0.62483,0.2868c0.36185,0 0.63842,-0.1366 0.82968,-0.40972c0.19118,-0.27312 0.2868,-0.65555 0.2868,-1.14722c0,-0.24583 -0.01369,-0.52239 -0.04097,-0.82968c-0.02738,-0.31409 -0.05811,-0.61803 -0.09218,-0.91163c-0.02738,-0.2936 -0.04097,-0.53608 -0.04097,-0.72725c0,-0.32098 0.05457,-0.54968 0.16389,-0.68628c0.10923,-0.1434 0.25943,-0.21511 0.45069,-0.21511c0.16389,0 0.3004,0.04442 0.40972,0.13316c0.11602,0.08874 0.20821,0.21165 0.27656,0.36874c0.09563,0.20486 0.17758,0.48487 0.24583,0.83993c0.06825,0.35506 0.12291,0.75799 0.16389,1.20868c0.04097,0.45069 0.06146,0.92532 0.06146,1.42378c0,0.76478 -0.05122,1.33839 -0.15365,1.72083c-0.10243,0.37554 -0.28345,0.56337 -0.54288,0.56337zM258.29218,187.78469c-0.23214,0 -0.39268,-0.08874 -0.48142,-0.26632c-0.08194,-0.18438 -0.12971,-0.47463 -0.1434,-0.87066l0.10243,0.05122c-0.38243,0.7443 -1.10624,1.11649 -2.17152,1.11649c-0.48487,0 -0.8877,-0.08539 -1.20868,-0.25607c-0.32098,-0.17758 -0.55992,-0.40972 -0.71701,-0.69652c-0.1502,-0.2936 -0.22534,-0.61114 -0.22534,-0.9526c0,-0.5873 0.20486,-1.05159 0.61458,-1.39305c0.40972,-0.34827 0.9526,-0.52239 1.62864,-0.52239c0.4439,0 0.82968,0.06491 1.15746,0.19462c0.32778,0.12971 0.60778,0.31074 0.83993,0.54288l-0.17413,-0.02049c-0.04777,-0.68973 -0.19807,-1.18139 -0.45069,-1.475c-0.24583,-0.30049 -0.59754,-0.45069 -1.05503,-0.45069c-0.26632,0 -0.51215,0.04097 -0.7375,0.12291c-0.22534,0.08194 -0.43365,0.16733 -0.62483,0.25607c-0.18438,0.08194 -0.35851,0.12291 -0.52239,0.12291c-0.16389,0 -0.2936,-0.05466 -0.38923,-0.16389c-0.08874,-0.10923 -0.13316,-0.24927 -0.13316,-0.41996c0,-0.24583 0.11612,-0.47798 0.34827,-0.69652c0.23903,-0.21855 0.55312,-0.39603 0.94235,-0.53263c0.38923,-0.1366 0.81264,-0.20486 1.27013,-0.20486c0.55312,0 1.02775,0.13316 1.42378,0.39948c0.39603,0.26632 0.69652,0.65555 0.90139,1.1677c0.17758,0.43701 0.30385,0.92532 0.37899,1.46475c0.07515,0.53943 0.11267,1.11649 0.11267,1.73107c0,0.46438 -0.02393,0.82288 -0.07171,1.07552c-0.04777,0.25263 -0.12291,0.43021 -0.22534,0.53263c-0.09563,0.09563 -0.22534,0.1434 -0.38923,0.1434zM256.02846,186.63748c0.22534,0 0.45414,-0.03073 0.68628,-0.09218c0.23214,-0.06825 0.42676,-0.16733 0.58385,-0.29705c0.15709,-0.12971 0.23559,-0.29025 0.23559,-0.48142c0,-0.16389 -0.06825,-0.29705 -0.20486,-0.39948c-0.12971,-0.10923 -0.30385,-0.19118 -0.52239,-0.24583c-0.21165,-0.05466 -0.44045,-0.08194 -0.68628,-0.08194c-0.41652,0 -0.73405,0.07171 -0.9526,0.21511c-0.21165,0.1434 -0.31754,0.33458 -0.31754,0.57361c0,0.25952 0.09898,0.46094 0.29705,0.60434c0.20486,0.1366 0.49847,0.20486 0.8809,0.20486zM262.8194,181.27013c0.60769,0 1.04479,0.08874 1.31111,0.26632c0.26632,0.17758 0.39948,0.40627 0.39948,0.68628c0,0.16389 -0.05811,0.30049 -0.17413,0.40972c-0.10932,0.10243 -0.26632,0.15365 -0.47118,0.15365c-0.21175,0 -0.43365,-0.03073 -0.66579,-0.09218c-0.22534,-0.06146 -0.48832,-0.09218 -0.78872,-0.09218c-0.34827,0 -0.60778,0.06825 -0.77847,0.20486c-0.17078,0.1366 -0.25607,0.31074 -0.25607,0.52239c0,0.19807 0.07505,0.35506 0.22534,0.47118c0.157,0.10923 0.45405,0.19118 0.89114,0.24583c0.48478,0.05466 0.88425,0.1434 1.19844,0.26632c0.32089,0.11612 0.55992,0.2936 0.71701,0.53263c0.157,0.23214 0.23559,0.55312 0.23559,0.96284c0,0.64876 -0.22879,1.13018 -0.68628,1.44427c-0.45758,0.31409 -1.08921,0.47118 -1.89496,0.47118c-0.51215,0 -0.91852,-0.04097 -1.21892,-0.12291c-0.30049,-0.08194 -0.51905,-0.19807 -0.65555,-0.34827c-0.12981,-0.1502 -0.19462,-0.32778 -0.19462,-0.53263c0,-0.17758 0.05802,-0.31409 0.17413,-0.40972c0.12291,-0.10243 0.26632,-0.15365 0.43021,-0.15365c0.157,0 0.32433,0.02049 0.50191,0.06146c0.17749,0.03418 0.3653,0.07171 0.56337,0.11267c0.19797,0.04097 0.40283,0.06146 0.61458,0.06146c0.68283,0 1.0243,-0.21165 1.0243,-0.63507c0,-0.1434 -0.03418,-0.25952 -0.10243,-0.34827c-0.06835,-0.08874 -0.19127,-0.16044 -0.36874,-0.21511c-0.17758,-0.06146 -0.4371,-0.10923 -0.77847,-0.1434c-0.40972,-0.04097 -0.76488,-0.10923 -1.06528,-0.20486c-0.30049,-0.10243 -0.53263,-0.26632 -0.69652,-0.49167c-0.16389,-0.23214 -0.24583,-0.54968 -0.24583,-0.9526c0,-0.63507 0.23894,-1.14722 0.71701,-1.53645c0.47798,-0.39603 1.15746,-0.5941 2.03836,-0.5941z" fill="#000000" stroke="none"/><path d="M288.42155,196.32896v7.53821c0,0.82912 -0.68069,1.50759 -1.51318,1.50759h-9.07904c-0.83229,0 -1.51318,-0.67846 -1.51318,-1.50759v-7.53821c0,-0.82921 0.68088,-1.50759 1.51318,-1.50759h0.75658v-1.50768c0,-2.08055 1.69475,-3.76906 3.78294,-3.76906c2.08771,0 3.78247,1.68852 3.78247,3.76906v1.50768h0.75705c0.83248,0 1.51318,0.67836 1.51318,1.50759zM283.88203,200.09801c0,-0.82912 -0.68069,-1.50759 -1.51318,-1.50759c-0.83248,0 -1.51318,0.67846 -1.51318,1.50759c0,0.82921 0.68069,1.50768 1.51318,1.50768c0.83248,0 1.51318,-0.67846 1.51318,-1.50768zM284.71451,193.31369c0,-1.28903 -1.05224,-2.3368 -2.34565,-2.3368c-1.29341,0 -2.34546,1.04777 -2.34546,2.3368v1.50768h4.69111z" fill="#000000" stroke="none"/></g></g></svg>