<svg version="1.1" xmlns="http://www.w3.org/2000/svg" xmlns:xlink="http://www.w3.org/1999/xlink" width="29.99769" height="41.24681" viewBox="0,0,29.99769,41.24681"><defs><linearGradient x1="254.99885" y1="184.24018" x2="224.77386" y2="172.38817" gradientUnits="userSpaceOnUse" id="color-1"><stop offset="0" stop-color="#79b9c5"/><stop offset="1" stop-color="#7cbcc8"/></linearGradient><linearGradient x1="254.99885" y1="200.62341" x2="223.93833" y2="160.68502" gradientUnits="userSpaceOnUse" id="color-2"><stop offset="0" stop-color="#000000" stop-opacity="0.2"/><stop offset="0.33854" stop-color="#000000" stop-opacity="0"/><stop offset="0.63021" stop-color="#ffffff" stop-opacity="0"/><stop offset="1" stop-color="#ffffff" stop-opacity="0.3"/></linearGradient><clipPath id="clip-1"><path d="M232.13656,192.04482v-16.75806h16.89192v16.75806z" fill="none"/></clipPath><linearGradient x1="225.38948" y1="177.88531" x2="225.00116" y2="177.88531" gradientUnits="userSpaceOnUse" id="color-3"><stop offset="0" stop-color="#7cbcc8" stop-opacity="0"/><stop offset="0.61458" stop-color="#155662"/></linearGradient><linearGradient x1="254.61037" y1="177.8853" x2="254.99885" y2="177.8853" gradientUnits="userSpaceOnUse" id="color-4"><stop offset="0" stop-color="#7cbcc8" stop-opacity="0"/><stop offset="0.61458" stop-color="#155662"/></linearGradient><linearGradient x1="227.81644" y1="177.78348" x2="226.31176" y2="177.78348" gradientUnits="userSpaceOnUse" id="color-5"><stop offset="0" stop-color="#7cbcc8" stop-opacity="0"/><stop offset="0.35417" stop-color="#186d7d" stop-opacity="0.6"/><stop offset="0.64063" stop-color="#186d7d" stop-opacity="0.6"/><stop offset="1" stop-color="#7cbcc8" stop-opacity="0"/></linearGradient></defs><g transform="translate(-225.00115,-159.37659)"><g data-paper-data="{&quot;isPaintingLayer&quot;:true}" fill-rule="nonzero" stroke="none" stroke-width="1" stroke-linecap="butt" stroke-linejoin="miter" stroke-miterlimit="10" stroke-dasharray="" stroke-dashoffset="0" style="mix-blend-mode: normal"><path d="M225.00116,200.62341v-41.24681h29.99768v41.24681z" fill="url(#color-1)"/><path d="M225.00116,200.62341v-41.24681h29.99768v41.24681z" fill="url(#color-2)"/><g clip-path="url(#clip-1)" opacity="0.8"><path d="M247.1372,190.10096c0,0 0.01276,-0.27523 0.27748,-0.24373z" fill="#3f3d56"/><path d="M246.9302,189.7035c0,-0.07425 0.05925,-0.13499 0.13199,-0.13499c0.07349,0 0.13273,0.06074 0.13273,0.13499c0,0.07499 -0.05924,0.135 -0.13273,0.135c-0.07274,0 -0.13199,-0.05999 -0.13199,-0.135z" fill="#ffffff"/><path d="M247.07871,190.19771h-0.0375v-0.26624h0.0375z" fill="#3f3d56"/><path d="M238.14345,181.99484c0,0.0675 -0.00218,0.13424 -0.00645,0.20099c-0.02408,0.38323 -0.11902,0.75745 -0.27973,1.10466c-0.00128,0.003 -0.00278,0.00599 -0.00397,0.00825c-0.0075,0.0165 -0.01515,0.03225 -0.0231,0.04799c-0.04776,0.09824 -0.1008,0.19348 -0.15883,0.28573c-0.26511,0.42372 -0.62845,0.77394 -1.05787,1.02067c-0.42949,0.24597 -0.91185,0.38096 -1.40456,0.39222l0.0297,1.74061l0.38735,-0.20774l0.06914,0.13349l-0.45357,0.24374l0.05541,3.233l0.00067,0.04274l-0.29952,0.06824l0.0006,-0.0435l0.09435,-5.2106c-0.39657,-0.00599 -0.78804,-0.09225 -1.15177,-0.25348c-0.36365,-0.16123 -0.69227,-0.39447 -0.96675,-0.6862c-0.01891,-0.01951 -0.03758,-0.04049 -0.05588,-0.06074c-0.00083,-0.00076 -0.00143,-0.0015 -0.00202,-0.00225c-0.22873,-0.25423 -0.41368,-0.54596 -0.54708,-0.86243c0.00292,0.003 0.00599,0.00599 0.00893,0.00975c-0.30156,-0.71844 -0.32195,-1.52763 -0.05714,-2.26107c0.2648,-0.73345 0.79487,-1.33565 1.48152,-1.68437c0.01035,-0.00525 0.021,-0.00975 0.03135,-0.015c0.67922,-0.33372 1.45661,-0.39522 2.17799,-0.17173c0.72137,0.22348 1.33415,0.7147 1.71693,1.37615c0.01823,0.03151 0.03592,0.06374 0.05295,0.09599c0.23774,0.44621 0.362,0.94643 0.36139,1.45489z" fill="#e5e5e5"/><path d="M233.80255,179.2988c0,-2.21578 1.76245,-4.01204 3.9366,-4.01204c2.17386,0 3.93623,1.79626 3.93623,4.01204c0,2.21533 -1.76237,4.01219 -3.93623,4.01219c-2.17416,0 -3.9366,-1.79685 -3.9366,-4.01219z" fill="#ffffff"/><path d="M234.83244,176.61903c-0.85463,2.03782 0.07319,4.39563 2.07246,5.26631c0.75849,0.33071 1.5997,0.41022 2.40514,0.22649c0.80469,-0.18299 1.53288,-0.61871 2.08184,-1.2464c-0.85418,2.03759 -3.16806,2.98327 -5.16733,2.11184c-1.99935,-0.87068 -2.92733,-3.22849 -2.07277,-5.2661c0.16746,-0.39912 0.39732,-0.76801 0.68065,-1.09214z" fill="#000000" opacity="0.2"/><path d="M237.95213,190.47517l-0.40204,-0.11474l0.00083,-0.04425l0.12044,-6.67372l0.00599,-0.33222l0.00023,-0.00974l0.021,-1.16616l0.03052,-1.68962v-0.00076l0.02077,-1.14516h0.01102l0.02115,1.24116l0.02761,1.61537l0.01972,1.14592v0.00825l0.0009,0.04725v0l0.03817,2.23482l0.00397,0.22198l0.07889,4.6174z" fill="#3f3d56"/><path d="M238.46674,185.49406l-0.65073,0.34947l-0.09066,-0.17549l0.65073,-0.34947z" fill="#3f3d56"/><path d="M237.66198,191.32487h-1.85618v-0.042h1.85618z" fill="#cbcbcb"/><path d="M241.06791,192.04482h-1.85609v-0.042h1.85609z" fill="#cbcbcb"/><path d="M246.36402,191.49435h-1.85611v-0.042h1.85611z" fill="#cbcbcb"/><path d="M245.51656,189.72974v-1.2314c0,0 0.47097,0.87293 0,1.2314z" fill="#f1f1f1"/><path d="M245.54582,189.72974l-0.89018,-0.83318c0,0 0.94942,0.23698 0.89018,0.83318z" fill="#f1f1f1"/><path d="M236.31568,190.02598v-1.2314c0,0 0.47089,0.87293 0,1.2314z" fill="#f1f1f1"/><path d="M236.34479,190.02598l-0.89003,-0.83319c0,0 0.94942,0.23699 0.89003,0.83319z" fill="#f1f1f1"/><path d="M239.51403,190.9154v-1.53137c0,0 0.5857,1.08517 0,1.53137z" fill="#f1f1f1"/><path d="M239.55004,190.91464l-1.10648,-1.03567c0,0 1.18071,0.29472 1.10648,1.03567z" fill="#f1f1f1"/><path d="M249.02856,190.72792l-0.01125,0.04049l-3.48573,-1.01167l-2.6263,0.5902l-3.35824,0.5842l-0.0045,-0.00076l-1.5904,-0.45521l-0.40204,-0.11474l-1.2281,-0.35172l-1.02436,0.23248l-0.29952,0.06824l-0.6511,0.14774l-0.00893,-0.04124l0.66071,-0.14999l0.29824,-0.0675l1.02615,-0.23323l0.00502,0.0015l1.22271,0.34947l0.40039,0.11474l1.59797,0.45672l3.34774,-0.58272l2.63529,-0.5917l0.00525,0.0015z" fill="#cbcbcb"/><path d="M242.79204,177.85718c0.06149,0.04694 0.10799,0.11069 0.13499,0.18366l-0.5317,-0.19671c0,0 0.17549,-0.08939 0.33672,-0.02115c0.03449,-0.09082 0.11923,-0.20556 0.32623,-0.1824z" fill="#3f3d56"/><path d="M233.03063,177.77252c0.06112,0.04694 0.10784,0.11069 0.13461,0.18366l-0.5317,-0.19671c0,0 0.17563,-0.08939 0.33687,-0.02115c0.03472,-0.09082 0.11954,-0.20556 0.326,-0.1824z" fill="#3f3d56"/><path d="M242.21082,181.90035c0.06074,0.0465 0.10799,0.11024 0.13424,0.18374l-0.5317,-0.19723c0,0 0.17549,-0.08924 0.33748,-0.021c0.03449,-0.09075 0.11923,-0.20549 0.32548,-0.18224z" fill="#3f3d56"/><path d="M240.69669,190.41819l0.29997,0.11324l-0.38772,0.76193l-0.20323,-0.07724z" fill="#ffb7b7"/><path d="M240.37871,191.12914l0.39972,0.15149v0c0.06824,0.0255 0.12299,0.07725 0.153,0.14475c0.03,0.06674 0.033,0.14249 0.0075,0.21148l-0.003,0.00825l-0.6547,-0.24748z" fill="#2f2e41"/><path d="M242.4043,190.57942h0.32022l-0.10349,0.85194h-0.21599z" fill="#ffb7b7"/><path d="M242.36681,191.35936h0.42672v0c0.07274,0 0.14174,0.02924 0.19273,0.081c0.051,0.05174 0.0795,0.12224 0.0795,0.19574v0.009h-0.69894z" fill="#2f2e41"/><path d="M241.41289,185.52406l0.0705,-0.14398l0.6007,0.30672l-0.01725,0.126l0.11474,0.153c0,0 0.19424,0.10799 0.15899,0.46797l-0.03525,0.34272l-0.04425,0.44097l0.30898,1.08966l0.15899,1.44064l0.11549,1.16166l-0.5572,-0.027l-0.51221,-1.89061l-0.90143,2.03535l-0.61871,-0.16273l0.84819,-2.01659l0.10649,-0.84669c0,0 -0.07049,-0.45072 0.26473,-0.7567l-0.0525,-0.16199v-0.19948l-0.17699,-0.95318z" fill="#2f2e41"/><path d="M241.78486,188.9888l-0.01951,0.00524l-0.38922,-1.40465l0.02025,-0.00524z" fill="#000000" opacity="0.2"/><path d="M241.43013,187.21743h0.86618v0.08999h-0.86618z" fill="#3f3d56"/><path d="M242.26107,187.27143c0,-0.04949 0.01574,-0.08999 0.03524,-0.08999c0.01951,0 0.03525,0.0405 0.03525,0.08999c0,0.04949 -0.01574,0.08999 -0.03525,0.08999c-0.01951,0 -0.03524,-0.0405 -0.03524,-0.08999z" fill="#3f3d56"/><path d="M241.67986,185.29159c-0.22798,-0.12749 -0.31198,-0.41923 -0.18749,-0.65171c0.12524,-0.23248 0.41097,-0.31797 0.6397,-0.19123c0.22798,0.12749 0.31198,0.41923 0.18749,0.65171c-0.12524,0.23248 -0.41173,0.31797 -0.6397,0.19123z" fill="#ffb7b7"/><path d="M240.76795,184.27391c0,-0.23473 0.18673,-0.42447 0.41697,-0.42447c0.23023,0 0.41697,0.18974 0.41697,0.42447c0,0.23473 -0.18673,0.42523 -0.41697,0.42523c-0.23023,0 -0.41697,-0.19049 -0.41697,-0.42523z" fill="#2f2e41"/><path d="M240.65619,184.22892c-0.01276,0.10574 0.0135,0.21224 0.07425,0.29923c0.06074,0.08699 0.15073,0.147 0.25348,0.16874c0.10199,0.02249 0.20923,0.0045 0.29923,-0.05026c0.08999,-0.05474 0.15598,-0.14174 0.18598,-0.24373c-0.0075,0.05774 -0.02626,0.11399 -0.0555,0.16498c-0.03,0.05025 -0.069,0.09374 -0.11624,0.12749c-0.0465,0.03449 -0.10048,0.05848 -0.15674,0.07049c-0.05624,0.012 -0.11475,0.012 -0.17099,-0.00076c-0.05624,-0.012 -0.1095,-0.03599 -0.15674,-0.06974c-0.0465,-0.03449 -0.08624,-0.078 -0.11549,-0.12825c-0.02924,-0.05025 -0.04799,-0.10649 -0.0555,-0.16498c-0.00675,-0.05848 -0.00225,-0.11699 0.01425,-0.17323z" fill="#2f2e41"/><path d="M242.30232,184.73662c0.01276,0.11024 -0.01125,0.22123 -0.06674,0.31573c-0.05624,0.09449 -0.14099,0.16798 -0.24223,0.20849c-0.10048,0.0405 -0.21148,0.04574 -0.31573,0.01574c-0.10425,-0.03075 -0.19574,-0.09524 -0.26023,-0.18374c-0.06449,-0.08924 -0.099,-0.19723 -0.09674,-0.30747c0.0015,-0.11024 0.039,-0.21749 0.10649,-0.30373c0.0675,-0.08699 0.16049,-0.14849 0.26548,-0.17549c0.10574,-0.02626 0.21673,-0.01725 0.31573,0.02626c0.08249,-0.0675 0.18449,-0.0465 0.26773,0.02475c0.09374,0.081 0.12149,0.13649 0.19423,0.26923c-0.072,0.00975 -0.09599,0.10048 -0.16798,0.11024z" fill="#2f2e41"/><path d="M240.5707,186.18101c-0.0015,-0.05399 0.009,-0.10725 0.03225,-0.15524l0.24298,-0.51295c0.00975,-0.02025 0.02399,-0.03675 0.042,-0.04799c0.018,-0.012 0.039,-0.018 0.06075,-0.018h0.50696c0.00599,0 0.012,0.0015 0.01725,0.00374c0.00525,0.00225 0.00975,0.00525 0.0135,0.00975c0.0045,0.00374 0.00749,0.009 0.009,0.01425c0.00225,0.00525 0.00374,0.01125 0.003,0.01724l-0.0435,1.76312c-0.00076,0.02249 -0.00975,0.04275 -0.02475,0.0585c-0.01574,0.01574 -0.03599,0.02475 -0.05774,0.02475l-0.39297,0.0075c-0.0165,0 -0.03225,-0.0045 -0.04574,-0.01276c-0.0135,-0.00825 -0.02475,-0.02099 -0.03151,-0.03524c-0.00525,-0.01125 -0.0105,-0.02325 -0.01725,-0.03675v0c-0.08999,-0.18899 -0.29847,-0.62845 -0.29847,-0.64346c0,-0.01425 -0.0105,-0.29472 -0.01574,-0.43647z" fill="#ffffff"/><path d="M241.43464,187.08394c0.09524,-0.05999 0.18148,-0.13499 0.25498,-0.22123c0.17024,-0.19574 0.27373,-0.44247 0.29548,-0.70345c0.018,-0.21599 -0.02175,-0.37497 -0.11849,-0.47097c-0.10574,-0.105 -0.24974,-0.105 -0.28499,-0.10349l-0.11549,0.09974l-0.036,-0.0435l0.12825,-0.11174l0.009,-0.00076c0.00825,-0.00076 0.19798,-0.02099 0.33822,0.11774c0.1095,0.1095 0.15524,0.28348 0.13574,0.51746c-0.02249,0.27448 -0.13198,0.5332 -0.31123,0.73869c-0.07649,0.09149 -0.16723,0.16949 -0.26849,0.23174z" fill="#ffffff"/><path d="M241.41664,186.60774l-0.00374,0.01875l-0.68694,-0.14399l0.00374,-0.01875z" fill="#3f3d56"/><path d="M241.20141,185.44757l-0.045,1.11441l-0.018,-0.00076l0.04425,-1.11441z" fill="#3f3d56"/><path d="M240.5707,186.18101c-0.00076,-0.02774 0.0015,-0.05474 0.00675,-0.081c0.036,0.01276 0.06824,0.03524 0.09225,0.06449c0.02475,0.03 0.04124,0.06599 0.04724,0.10425l0.16798,0.99217c-0.08999,-0.18899 -0.29847,-0.62845 -0.29847,-0.64346c0,-0.01425 -0.0105,-0.29472 -0.01574,-0.43647z" fill="#3f3d56"/><path d="M241.60186,188.26135c-0.015,-0.01951 -0.0255,-0.042 -0.03074,-0.06674c-0.00525,-0.024 -0.00599,-0.04875 -0.00076,-0.07275c0.00525,-0.024 0.01574,-0.04724 0.03,-0.06674c0.015,-0.01951 0.03375,-0.03524 0.0555,-0.04724l-0.03449,-0.38397l0.22422,-0.07799l0.0405,0.54296c0.0165,0.03826 0.01875,0.08099 0.00675,0.12073c-0.01276,0.03975 -0.039,0.07349 -0.07425,0.09449c-0.03449,0.021 -0.07649,0.0285 -0.11625,0.02025c-0.0405,-0.0075 -0.07574,-0.03 -0.10048,-0.063z" fill="#ffb7b7"/><path d="M241.45488,185.94104c-0.0045,-0.05848 0.01049,-0.11625 0.042,-0.16498c0.03151,-0.04875 0.07875,-0.0855 0.13275,-0.10425c0.04799,-0.0165 0.09974,-0.0165 0.14774,0c0.05174,0.018 0.09599,0.05175 0.12749,0.09674c0.03151,0.045 0.04799,0.099 0.04799,0.15374l0.0165,1.95209l-0.39672,0.015z" fill="#cbcbcb"/></g><path d="M233.72066,169.71349v-2.12983h0.90293c0.09802,0 0.18801,0.01995 0.26998,0.05999c0.08196,0.03998 0.153,0.09398 0.21298,0.16199c0.06202,0.06794 0.11002,0.14398 0.14399,0.22798c0.03397,0.084 0.051,0.16993 0.051,0.25798c0,0.11999 -0.02797,0.23397 -0.084,0.34197c-0.05602,0.10799 -0.13296,0.19596 -0.23099,0.26397c-0.09802,0.06794 -0.21395,0.10199 -0.34797,0.10199h-0.50396v0.71394zM234.13463,168.63657h0.47997c0.05002,0 0.09502,-0.01402 0.135,-0.042c0.03998,-0.02805 0.07198,-0.06802 0.09599,-0.11999c0.024,-0.05399 0.036,-0.11504 0.036,-0.18299c0,-0.07402 -0.01402,-0.13702 -0.042,-0.18899c-0.02603,-0.05204 -0.06098,-0.09104 -0.105,-0.11699c-0.042,-0.02603 -0.08797,-0.039 -0.13799,-0.039h-0.46196zM236.12084,169.74348c-0.13401,0 -0.26203,-0.02205 -0.38397,-0.06599c-0.12201,-0.04402 -0.227,-0.10905 -0.31497,-0.19499l0.14398,-0.26098c0.09396,0.07597 0.18598,0.13199 0.27597,0.168c0.09194,0.036 0.17998,0.05399 0.26397,0.05399c0.07799,0 0.13994,-0.01402 0.18598,-0.042c0.04799,-0.02805 0.072,-0.07005 0.072,-0.12598c0,-0.03803 -0.01305,-0.06705 -0.039,-0.08699c-0.02603,-0.02205 -0.06405,-0.04102 -0.11399,-0.057c-0.04799,-0.01605 -0.10702,-0.03404 -0.17699,-0.05399c-0.11602,-0.03803 -0.21299,-0.07499 -0.29098,-0.111c-0.07799,-0.036 -0.13701,-0.081 -0.17699,-0.13499c-0.03803,-0.05602 -0.057,-0.12704 -0.057,-0.21299c0,-0.10402 0.02595,-0.19304 0.07799,-0.26698c0.05399,-0.07604 0.12793,-0.13499 0.22197,-0.17699c0.09599,-0.042 0.20796,-0.063 0.33598,-0.063c0.11196,0 0.21793,0.018 0.31797,0.054c0.09997,0.03397 0.19094,0.08999 0.27299,0.16798l-0.16199,0.25498c-0.08001,-0.06202 -0.15599,-0.10702 -0.22798,-0.135c-0.072,-0.03 -0.14504,-0.045 -0.21898,-0.045c-0.042,0 -0.08205,0.00496 -0.11999,0.015c-0.036,0.00998 -0.06599,0.027 -0.08999,0.051c-0.02205,0.02197 -0.03299,0.05399 -0.03299,0.09599c0,0.03795 0.00997,0.06794 0.03,0.08999c0.02197,0.01995 0.05399,0.03794 0.09599,0.05399c0.04394,0.01597 0.09697,0.03397 0.15899,0.054c0.126,0.036 0.23196,0.07297 0.31797,0.11098c0.08797,0.03795 0.15396,0.08498 0.19798,0.14099c0.04394,0.05399 0.066,0.12899 0.066,0.22498c0,0.15598 -0.057,0.27793 -0.17099,0.36597c-0.11399,0.08797 -0.26698,0.13198 -0.45896,0.13198zM237.02415,169.71349v-1.57188h0.40197v1.57188zM237.02415,167.92261v-0.39897h0.40197v0.39897zM238.86234,169.71349l-0.4586,-0.67795l-0.21299,0.20998v0.46797h-0.40197v-2.18983h0.40197v1.3259l0.63258,-0.70494h0.42597l-0.58495,0.66595l0.62695,0.90293zM240.10574,169.74348c-0.12825,0 -0.24298,-0.02099 -0.34497,-0.063c-0.10199,-0.04402 -0.18899,-0.10402 -0.26098,-0.17998c-0.07049,-0.07604 -0.12449,-0.16304 -0.16199,-0.26098c-0.03826,-0.09802 -0.057,-0.20098 -0.057,-0.30898c0,-0.11002 0.01874,-0.21404 0.057,-0.31198c0.0375,-0.09802 0.09149,-0.18502 0.16199,-0.26098c0.072,-0.07604 0.15899,-0.13499 0.26098,-0.17699c0.10199,-0.04402 0.21673,-0.06599 0.34497,-0.06599c0.12749,0 0.24148,0.02197 0.34197,0.06599c0.10199,0.042 0.18899,0.10094 0.26098,0.17699c0.072,0.07597 0.126,0.16296 0.16199,0.26098c0.0375,0.09794 0.057,0.20195 0.057,0.31198c0,0.10799 -0.01949,0.21096 -0.057,0.30898c-0.036,0.09794 -0.08999,0.18494 -0.16199,0.26098c-0.07049,0.07597 -0.15598,0.13596 -0.25798,0.17998c-0.10199,0.042 -0.21747,0.063 -0.34497,0.063zM239.69477,168.93056c0,0.09194 0.018,0.17399 0.05399,0.24597c0.036,0.06996 0.08475,0.12494 0.147,0.16498c0.06149,0.03998 0.13198,0.05999 0.20998,0.05999c0.07574,0 0.14475,-0.02002 0.20698,-0.05999c0.06149,-0.042 0.11098,-0.09802 0.14699,-0.16798c0.0375,-0.072 0.057,-0.15403 0.057,-0.24597c0,-0.08999 -0.01951,-0.17099 -0.057,-0.24298c-0.036,-0.072 -0.0855,-0.12801 -0.14699,-0.16798c-0.06225,-0.04005 -0.13124,-0.05999 -0.20698,-0.05999c-0.07799,0 -0.14849,0.02099 -0.20998,0.063c-0.06225,0.03998 -0.111,0.096 -0.147,0.168c-0.036,0.06996 -0.05399,0.15096 -0.05399,0.24298zM241.1954,167.52367h0.40197v1.68587c0,0.072 0.012,0.12096 0.036,0.14699c0.024,0.024 0.057,0.036 0.099,0.036c0.03225,0 0.06525,-0.00405 0.099,-0.012c0.03449,-0.00803 0.06449,-0.018 0.08999,-0.03l0.05399,0.30597c-0.05399,0.02595 -0.11699,0.04597 -0.18899,0.05999c-0.072,0.01395 -0.13649,0.021 -0.19499,0.021c-0.126,0 -0.22348,-0.033 -0.29397,-0.099c-0.0675,-0.06801 -0.10199,-0.16401 -0.10199,-0.28797zM242.87679,169.74348c-0.12825,0 -0.24298,-0.02099 -0.34497,-0.063c-0.10199,-0.04402 -0.18899,-0.10402 -0.26098,-0.17998c-0.06974,-0.07604 -0.12374,-0.16304 -0.16199,-0.26098c-0.03826,-0.09802 -0.057,-0.20098 -0.057,-0.30898c0,-0.11002 0.01874,-0.21404 0.057,-0.31198c0.03826,-0.09802 0.09226,-0.18502 0.16199,-0.26098c0.072,-0.07604 0.15899,-0.13499 0.26098,-0.17699c0.10199,-0.04402 0.21673,-0.06599 0.34497,-0.06599c0.12825,0 0.24223,0.02197 0.34197,0.06599c0.10199,0.042 0.18899,0.10094 0.26098,0.17699c0.072,0.07597 0.12598,0.16296 0.16199,0.26098c0.03826,0.09794 0.057,0.20195 0.057,0.31198c0,0.10799 -0.01874,0.21096 -0.057,0.30898c-0.036,0.09794 -0.08999,0.18494 -0.16199,0.26098c-0.06974,0.07597 -0.15598,0.13596 -0.25798,0.17998c-0.10199,0.042 -0.21673,0.063 -0.34497,0.063zM242.46581,168.93056c0,0.09194 0.018,0.17399 0.054,0.24597c0.036,0.06996 0.08474,0.12494 0.14699,0.16498c0.06225,0.03998 0.13199,0.05999 0.20998,0.05999c0.07574,0 0.14474,-0.02002 0.20698,-0.05999c0.06225,-0.042 0.111,-0.09802 0.147,-0.16798c0.03826,-0.072 0.057,-0.15403 0.057,-0.24597c0,-0.08999 -0.01874,-0.17099 -0.057,-0.24298c-0.036,-0.072 -0.08475,-0.12801 -0.147,-0.16798c-0.06225,-0.04005 -0.13124,-0.05999 -0.20698,-0.05999c-0.07799,0 -0.14774,0.02099 -0.20998,0.063c-0.06225,0.03998 -0.11098,0.096 -0.14699,0.168c-0.036,0.06996 -0.054,0.15096 -0.054,0.24298zM244.58515,169.72249c-0.10425,0 -0.20023,-0.02003 -0.28797,-0.05999c-0.08625,-0.042 -0.16123,-0.10004 -0.22498,-0.17399c-0.06225,-0.07402 -0.11024,-0.15899 -0.14398,-0.25498c-0.03449,-0.09599 -0.051,-0.19798 -0.051,-0.30597c0,-0.11399 0.018,-0.22003 0.054,-0.31797c0.036,-0.09802 0.0855,-0.18403 0.14999,-0.25798c0.06599,-0.07604 0.14249,-0.13401 0.23099,-0.17399c0.08999,-0.042 0.18899,-0.063 0.29698,-0.063c0.12149,0 0.22873,0.02797 0.32098,0.084c0.09149,0.05399 0.168,0.12697 0.22798,0.21898v-0.27597h0.35098v1.49689c0,0.15598 -0.03826,0.28895 -0.11399,0.39897c-0.07425,0.11196 -0.177,0.19693 -0.30898,0.25498c-0.13198,0.05999 -0.28197,0.08999 -0.44996,0.08999c-0.17024,0 -0.31423,-0.02902 -0.43197,-0.08699c-0.11849,-0.05602 -0.21898,-0.13604 -0.30297,-0.23998l0.21898,-0.21299c0.05999,0.07395 0.135,0.13198 0.22499,0.17399c0.09149,0.042 0.18899,0.063 0.29098,0.063c0.0855,0 0.16349,-0.01605 0.23397,-0.04799c0.072,-0.03 0.12899,-0.07799 0.17099,-0.14398c0.0435,-0.06404 0.06599,-0.14699 0.06599,-0.24898v-0.19798c-0.05249,0.08999 -0.12598,0.15997 -0.22197,0.20998c-0.09449,0.04799 -0.19424,0.072 -0.29997,0.072zM244.72014,169.40152c0.0435,0 0.08548,-0.00705 0.12598,-0.02099c0.03975,-0.01402 0.07649,-0.033 0.111,-0.057c0.03375,-0.024 0.06374,-0.05204 0.08999,-0.084c0.0255,-0.03405 0.04574,-0.06801 0.05999,-0.10199v-0.37497c-0.024,-0.06202 -0.05848,-0.11602 -0.10199,-0.16199c-0.042,-0.04604 -0.08999,-0.081 -0.14398,-0.105c-0.05249,-0.02603 -0.10725,-0.039 -0.16498,-0.039c-0.06225,0 -0.11849,0.01298 -0.16798,0.039c-0.05025,0.02595 -0.093,0.063 -0.12899,0.11098c-0.036,0.04597 -0.06449,0.09795 -0.084,0.15599c-0.018,0.05594 -0.027,0.11497 -0.027,0.17699c0,0.06397 0.01049,0.12396 0.03299,0.17998c0.02175,0.05594 0.05174,0.10499 0.08999,0.14699c0.03975,0.042 0.0855,0.07499 0.13799,0.099c0.05399,0.024 0.111,0.03599 0.17099,0.03599zM245.87128,169.71349v-1.57188h0.40197v1.57188zM245.87128,167.92261v-0.39897h0.40197v0.39897z" fill-opacity="0.9" fill="#333333"/><path d="M225.00116,160.32422c0,0 0.04553,-0.27786 0.12134,-0.42395c0.07581,-0.14609 0.26698,-0.3242 0.26698,-0.3242v40.84784c0,0 -0.19116,-0.153 -0.26698,-0.29923c-0.07581,-0.14623 -0.12134,-0.44922 -0.12134,-0.44922z" fill="url(#color-3)"/><path d="M254.99885,199.67546c0,0 -0.04574,0.30298 -0.12149,0.44922c-0.07574,0.14623 -0.26698,0.29923 -0.26698,0.29923v-40.84784c0,0 0.19123,0.17811 0.26698,0.3242c0.07574,0.14609 0.12149,0.42395 0.12149,0.42395z" fill="url(#color-4)"/><path d="M226.31176,200.62341v-41.24681h1.50474v41.24681z" fill="url(#color-5)"/></g></g></svg>