<svg version="1.1" xmlns="http://www.w3.org/2000/svg" xmlns:xlink="http://www.w3.org/1999/xlink" width="264.813" height="39.676" viewBox="0,0,264.813,39.676"><g transform="translate(-107.24,-160.212)"><g data-paper-data="{&quot;isPaintingLayer&quot;:true}" fill="#000000" fill-rule="nonzero" stroke="none" stroke-width="1" stroke-linecap="butt" stroke-linejoin="miter" stroke-miterlimit="10" stroke-dasharray="" stroke-dashoffset="0" style="mix-blend-mode: normal"><path d="M110.156,169.536c-0.264,0 -0.56,-0.016 -0.888,-0.048c-0.32,-0.032 -0.632,-0.092 -0.936,-0.18c-0.296,-0.096 -0.544,-0.224 -0.744,-0.384c-0.192,-0.168 -0.288,-0.384 -0.288,-0.648c0,-0.272 0.084,-0.476 0.252,-0.612c0.176,-0.136 0.46,-0.204 0.852,-0.204c0.272,0 0.576,0.036 0.912,0.108c0.344,0.072 0.672,0.108 0.984,0.108c0.464,0 0.804,-0.072 1.02,-0.216c0.224,-0.144 0.336,-0.34 0.336,-0.588c0,-0.152 -0.044,-0.288 -0.132,-0.408c-0.08,-0.12 -0.244,-0.24 -0.492,-0.36c-0.248,-0.12 -0.62,-0.252 -1.116,-0.396c-0.568,-0.152 -1.028,-0.32 -1.38,-0.504c-0.352,-0.192 -0.608,-0.42 -0.768,-0.684c-0.16,-0.264 -0.24,-0.576 -0.24,-0.936c0,-0.44 0.076,-0.82 0.228,-1.14c0.16,-0.328 0.372,-0.604 0.636,-0.828c0.264,-0.232 0.56,-0.416 0.888,-0.552c0.328,-0.136 0.66,-0.236 0.996,-0.3c0.344,-0.064 0.672,-0.096 0.984,-0.096c0.688,0 1.248,0.108 1.68,0.324c0.44,0.216 0.66,0.504 0.66,0.864c0,0.256 -0.084,0.464 -0.252,0.624c-0.16,0.16 -0.408,0.24 -0.744,0.24c-0.144,0 -0.316,-0.02 -0.516,-0.06c-0.2,-0.04 -0.42,-0.08 -0.66,-0.12c-0.24,-0.04 -0.504,-0.06 -0.792,-0.06c-0.488,0 -0.864,0.076 -1.128,0.228c-0.264,0.152 -0.396,0.396 -0.396,0.732c0,0.144 0.036,0.276 0.108,0.396c0.08,0.12 0.244,0.244 0.492,0.372c0.248,0.128 0.628,0.276 1.14,0.444c0.632,0.192 1.128,0.404 1.488,0.636c0.36,0.224 0.616,0.48 0.768,0.768c0.152,0.288 0.228,0.612 0.228,0.972c0,0.496 -0.136,0.936 -0.408,1.32c-0.264,0.376 -0.636,0.668 -1.116,0.876c-0.472,0.208 -1.024,0.312 -1.656,0.312zM117.9943,169.596c-0.888,0 -1.59596,-0.132 -2.12396,-0.396c-0.528,-0.264 -0.908,-0.644 -1.14,-1.14c-0.232,-0.496 -0.348,-1.088 -0.348,-1.776c0,-0.872 0.16,-1.612 0.48,-2.22c0.328,-0.616 0.776,-1.088 1.344,-1.416c0.576,-0.328 1.22796,-0.492 1.95596,-0.492c0.856,0 1.484,0.2 1.884,0.6c0.4,0.392 0.6,0.908 0.6,1.548c0,0.512 -0.136,0.956 -0.408,1.332c-0.264,0.368 -0.632,0.652 -1.104,0.852c-0.472,0.2 -1.016,0.3 -1.632,0.3c-0.344,0 -0.67596,-0.044 -0.99596,-0.132c-0.32,-0.088 -0.608,-0.208 -0.864,-0.36l0.288,-0.528c-0.024,0.192 -0.036,0.384 -0.036,0.576c0,0.56 0.176,0.964 0.528,1.212c0.352,0.24 0.85196,0.36 1.49996,0.36c0.504,0 0.908,-0.044 1.212,-0.132c0.304,-0.088 0.56,-0.172 0.768,-0.252c0.208,-0.088 0.412,-0.132 0.612,-0.132c0.112,0 0.212,0.032 0.3,0.096c0.096,0.056 0.172,0.14 0.228,0.252c0.064,0.112 0.096,0.248 0.096,0.408c0,0.24 -0.12,0.472 -0.36,0.696c-0.24,0.216 -0.596,0.396 -1.068,0.54c-0.464,0.136 -1.036,0.204 -1.716,0.204zM117.2983,165.672c0.568,0 1.024,-0.12 1.368,-0.36c0.344,-0.24 0.516,-0.536 0.516,-0.888c0,-0.28 -0.096,-0.508 -0.288,-0.684c-0.184,-0.184 -0.476,-0.276 -0.876,-0.276c-0.376,0 -0.716,0.072 -1.01996,0.216c-0.296,0.136 -0.528,0.316 -0.696,0.54c-0.168,0.224 -0.252,0.468 -0.252,0.732c0,0.232 0.108,0.412 0.324,0.54c0.224,0.12 0.532,0.18 0.92396,0.18zM124.4849,169.308c-0.752,0 -1.364,-0.288 -1.836,-0.864c-0.472,-0.584 -0.708,-1.468 -0.708,-2.652c0,-1.264 0.228,-2.188 0.684,-2.772c0.456,-0.584 1.056,-0.876 1.8,-0.876c0.44,0 0.828,0.112 1.164,0.336c0.336,0.224 0.624,0.54 0.864,0.948l-0.096,0.168c-0.024,-0.112 -0.044,-0.232 -0.06,-0.36c-0.016,-0.128 -0.024,-0.224 -0.024,-0.288c0,-0.328 0.052,-0.58 0.156,-0.756c0.112,-0.184 0.284,-0.276 0.516,-0.276c0.256,0 0.456,0.104 0.6,0.312c0.152,0.208 0.268,0.504 0.348,0.888c0.104,0.392 0.192,0.892 0.264,1.5c0.072,0.6 0.108,1.208 0.108,1.824c0,0.768 -0.028,1.412 -0.084,1.932c-0.056,0.52 -0.148,0.952 -0.276,1.296c-0.128,0.344 -0.296,0.644 -0.504,0.9c-0.344,0.416 -0.788,0.732 -1.332,0.948c-0.536,0.224 -1.156,0.336 -1.86,0.336c-0.504,0 -0.908,-0.048 -1.212,-0.144c-0.304,-0.088 -0.524,-0.212 -0.66,-0.372c-0.128,-0.152 -0.192,-0.324 -0.192,-0.516c0,-0.2 0.056,-0.368 0.168,-0.504c0.112,-0.128 0.28,-0.192 0.504,-0.192c0.2,0 0.432,0.032 0.696,0.096c0.272,0.064 0.592,0.096 0.96,0.096c0.776,0 1.324,-0.184 1.644,-0.552c0.328,-0.36 0.492,-0.88 0.492,-1.56c0,-0.184 -0.012,-0.4 -0.036,-0.648l0.168,0.06c-0.2,0.512 -0.496,0.924 -0.888,1.236c-0.392,0.304 -0.848,0.456 -1.368,0.456zM124.9409,167.832c0.256,0 0.512,-0.068 0.768,-0.204c0.256,-0.136 0.468,-0.36 0.636,-0.672c0.168,-0.312 0.252,-0.732 0.252,-1.26c0,-0.632 -0.148,-1.148 -0.444,-1.548c-0.296,-0.4 -0.712,-0.6 -1.248,-0.6c-0.464,0 -0.804,0.176 -1.02,0.528c-0.216,0.352 -0.324,0.884 -0.324,1.596c0,0.68 0.108,1.212 0.324,1.596c0.216,0.376 0.568,0.564 1.056,0.564zM130.7841,160.296c0.32,0 0.548,0.088 0.684,0.264c0.144,0.176 0.216,0.38 0.216,0.612c0,0.288 -0.088,0.512 -0.264,0.672c-0.168,0.152 -0.408,0.228 -0.72,0.228c-0.304,0 -0.532,-0.084 -0.684,-0.252c-0.152,-0.176 -0.228,-0.38 -0.228,-0.612c0,-0.304 0.092,-0.532 0.276,-0.684c0.184,-0.152 0.424,-0.228 0.72,-0.228zM130.8561,162.972c0.256,0 0.456,0.24 0.6,0.72c0.152,0.48 0.228,1.244 0.228,2.292c0,1.288 -0.092,2.216 -0.276,2.784c-0.184,0.568 -0.464,0.852 -0.84,0.852c-0.288,0 -0.5,-0.208 -0.636,-0.624c-0.136,-0.424 -0.204,-1.16 -0.204,-2.208c0,-1.288 0.104,-2.244 0.312,-2.868c0.216,-0.632 0.488,-0.948 0.816,-0.948zM135.178,162.276h-0.24c-0.024,-0.352 -0.016,-0.684 0.024,-0.996c0.04,-0.32 0.124,-0.576 0.252,-0.768c0.136,-0.2 0.328,-0.3 0.576,-0.3c0.224,0 0.388,0.072 0.492,0.216c0.104,0.144 0.156,0.344 0.156,0.6c0,0.504 -0.096,0.936 -0.288,1.296l-0.216,-0.024c0.432,-0.152 0.92,-0.228 1.464,-0.228c0.344,0 0.616,0.068 0.816,0.204c0.208,0.128 0.312,0.348 0.312,0.66c0,0.296 -0.12,0.52 -0.36,0.672c-0.24,0.152 -0.54,0.228 -0.9,0.228c-0.216,0 -0.448,-0.008 -0.696,-0.024c-0.24,-0.024 -0.476,-0.06 -0.708,-0.108l0.204,-0.252c0.072,0.304 0.14,0.652 0.204,1.044c0.072,0.384 0.136,0.784 0.192,1.2c0.056,0.416 0.1,0.82 0.132,1.212c0.032,0.392 0.048,0.744 0.048,1.056c0,0.512 -0.08,0.916 -0.24,1.212c-0.16,0.296 -0.396,0.444 -0.708,0.444c-0.248,0 -0.444,-0.076 -0.588,-0.228c-0.136,-0.152 -0.236,-0.344 -0.3,-0.576c-0.056,-0.24 -0.092,-0.488 -0.108,-0.744c-0.008,-0.256 -0.012,-0.488 -0.012,-0.696c0,-0.352 0.016,-0.748 0.048,-1.188c0.032,-0.448 0.076,-0.908 0.132,-1.38c0.064,-0.472 0.136,-0.928 0.216,-1.368l0.24,0.204c-0.408,0.208 -0.912,0.312 -1.512,0.312c-0.368,0 -0.652,-0.068 -0.852,-0.204c-0.2,-0.136 -0.3,-0.348 -0.3,-0.636c0,-0.312 0.112,-0.552 0.336,-0.72c0.224,-0.176 0.524,-0.264 0.9,-0.264c0.248,0 0.48,0.016 0.696,0.048c0.224,0.024 0.42,0.056 0.588,0.096zM140.5575,160.296c0.32,0 0.548,0.088 0.684,0.264c0.144,0.176 0.216,0.38 0.216,0.612c0,0.288 -0.088,0.512 -0.264,0.672c-0.168,0.152 -0.408,0.228 -0.72,0.228c-0.304,0 -0.532,-0.084 -0.684,-0.252c-0.152,-0.176 -0.228,-0.38 -0.228,-0.612c0,-0.304 0.092,-0.532 0.276,-0.684c0.184,-0.152 0.424,-0.228 0.72,-0.228zM140.6295,162.972c0.256,0 0.456,0.24 0.6,0.72c0.152,0.48 0.228,1.244 0.228,2.292c0,1.288 -0.092,2.216 -0.276,2.784c-0.184,0.568 -0.464,0.852 -0.84,0.852c-0.288,0 -0.5,-0.208 -0.636,-0.624c-0.136,-0.424 -0.204,-1.16 -0.204,-2.208c0,-1.288 0.104,-2.244 0.312,-2.868c0.216,-0.632 0.488,-0.948 0.816,-0.948zM145.2154,169.308c-0.752,0 -1.364,-0.288 -1.836,-0.864c-0.472,-0.584 -0.708,-1.468 -0.708,-2.652c0,-1.264 0.228,-2.188 0.684,-2.772c0.456,-0.584 1.056,-0.876 1.8,-0.876c0.44,0 0.828,0.112 1.164,0.336c0.336,0.224 0.624,0.54 0.864,0.948l-0.096,0.168c-0.024,-0.112 -0.044,-0.232 -0.06,-0.36c-0.016,-0.128 -0.024,-0.224 -0.024,-0.288c0,-0.328 0.052,-0.58 0.156,-0.756c0.112,-0.184 0.284,-0.276 0.516,-0.276c0.256,0 0.456,0.104 0.6,0.312c0.152,0.208 0.268,0.504 0.348,0.888c0.104,0.392 0.192,0.892 0.264,1.5c0.072,0.6 0.108,1.208 0.108,1.824c0,0.768 -0.028,1.412 -0.084,1.932c-0.056,0.52 -0.148,0.952 -0.276,1.296c-0.128,0.344 -0.296,0.644 -0.504,0.9c-0.344,0.416 -0.788,0.732 -1.332,0.948c-0.536,0.224 -1.156,0.336 -1.86,0.336c-0.504,0 -0.908,-0.048 -1.212,-0.144c-0.304,-0.088 -0.524,-0.212 -0.66,-0.372c-0.128,-0.152 -0.192,-0.324 -0.192,-0.516c0,-0.2 0.056,-0.368 0.168,-0.504c0.112,-0.128 0.28,-0.192 0.504,-0.192c0.2,0 0.432,0.032 0.696,0.096c0.272,0.064 0.592,0.096 0.96,0.096c0.776,0 1.324,-0.184 1.644,-0.552c0.328,-0.36 0.492,-0.88 0.492,-1.56c0,-0.184 -0.012,-0.4 -0.036,-0.648l0.168,0.06c-0.2,0.512 -0.496,0.924 -0.888,1.236c-0.392,0.304 -0.848,0.456 -1.368,0.456zM145.6714,167.832c0.256,0 0.512,-0.068 0.768,-0.204c0.256,-0.136 0.468,-0.36 0.636,-0.672c0.168,-0.312 0.252,-0.732 0.252,-1.26c0,-0.632 -0.148,-1.148 -0.444,-1.548c-0.296,-0.4 -0.712,-0.6 -1.248,-0.6c-0.464,0 -0.804,0.176 -1.02,0.528c-0.216,0.352 -0.324,0.884 -0.324,1.596c0,0.68 0.108,1.212 0.324,1.596c0.216,0.376 0.568,0.564 1.056,0.564zM155.7026,169.62c-0.272,0 -0.46,-0.104 -0.564,-0.312c-0.096,-0.216 -0.152,-0.556 -0.168,-1.02l0.12,0.06c-0.448,0.872 -1.296,1.308 -2.544,1.308c-0.568,0 -1.04,-0.1 -1.416,-0.3c-0.376,-0.208 -0.656,-0.48 -0.84,-0.816c-0.176,-0.344 -0.264,-0.716 -0.264,-1.116c0,-0.688 0.24,-1.232 0.72,-1.632c0.48,-0.408 1.116,-0.612 1.908,-0.612c0.52,0 0.972,0.076 1.356,0.228c0.384,0.152 0.712,0.364 0.984,0.636l-0.204,-0.024c-0.056,-0.808 -0.232,-1.384 -0.528,-1.728c-0.288,-0.352 -0.7,-0.528 -1.236,-0.528c-0.312,0 -0.6,0.048 -0.864,0.144c-0.264,0.096 -0.508,0.196 -0.732,0.3c-0.216,0.096 -0.42,0.144 -0.612,0.144c-0.192,0 -0.344,-0.064 -0.456,-0.192c-0.104,-0.128 -0.156,-0.292 -0.156,-0.492c0,-0.288 0.136,-0.56 0.408,-0.816c0.28,-0.256 0.648,-0.464 1.104,-0.624c0.456,-0.16 0.952,-0.24 1.488,-0.24c0.648,0 1.204,0.156 1.668,0.468c0.464,0.312 0.816,0.768 1.056,1.368c0.208,0.512 0.356,1.084 0.444,1.716c0.088,0.632 0.132,1.308 0.132,2.028c0,0.544 -0.028,0.964 -0.084,1.26c-0.056,0.296 -0.144,0.504 -0.264,0.624c-0.112,0.112 -0.264,0.168 -0.456,0.168zM153.0506,168.276c0.264,0 0.532,-0.036 0.804,-0.108c0.272,-0.08 0.5,-0.196 0.684,-0.348c0.184,-0.152 0.276,-0.34 0.276,-0.564c0,-0.192 -0.08,-0.348 -0.24,-0.468c-0.152,-0.128 -0.356,-0.224 -0.612,-0.288c-0.248,-0.064 -0.516,-0.096 -0.804,-0.096c-0.488,0 -0.86,0.084 -1.116,0.252c-0.248,0.168 -0.372,0.392 -0.372,0.672c0,0.304 0.116,0.54 0.348,0.708c0.24,0.16 0.584,0.24 1.032,0.24zM161.0326,166.92c0.32,0 0.576,0.112 0.768,0.336c0.2,0.216 0.3,0.536 0.3,0.96c0,0.392 -0.096,0.724 -0.288,0.996c-0.184,0.272 -0.484,0.408 -0.9,0.408c-0.336,0 -0.584,-0.112 -0.744,-0.336c-0.152,-0.224 -0.228,-0.54 -0.228,-0.948c0,-0.24 0.032,-0.468 0.096,-0.684c0.064,-0.216 0.176,-0.392 0.336,-0.528c0.16,-0.136 0.38,-0.204 0.66,-0.204zM161.0326,162c0.32,0 0.576,0.112 0.768,0.336c0.2,0.216 0.3,0.536 0.3,0.96c0,0.392 -0.096,0.724 -0.288,0.996c-0.184,0.272 -0.484,0.408 -0.9,0.408c-0.336,0 -0.584,-0.112 -0.744,-0.336c-0.152,-0.224 -0.228,-0.54 -0.228,-0.948c0,-0.24 0.032,-0.468 0.096,-0.684c0.064,-0.216 0.176,-0.392 0.336,-0.528c0.16,-0.136 0.38,-0.204 0.66,-0.204zM109.664,176.396c0.64,0 1.156,0.224 1.548,0.672c0.392,0.44 0.588,1.08 0.588,1.92c0,0.52 -0.084,0.992 -0.252,1.416c-0.16,0.424 -0.416,0.764 -0.768,1.02c-0.352,0.248 -0.804,0.372 -1.356,0.372c-0.672,0 -1.164,-0.224 -1.476,-0.672c-0.312,-0.448 -0.468,-1.08 -0.468,-1.896c0,-0.36 0.036,-0.708 0.108,-1.044c0.072,-0.336 0.188,-0.64 0.348,-0.912c0.168,-0.272 0.392,-0.484 0.672,-0.636c0.288,-0.16 0.64,-0.24 1.056,-0.24zM117.8435,183.536c-0.264,0 -0.56,-0.016 -0.888,-0.048c-0.32,-0.032 -0.632,-0.092 -0.936,-0.18c-0.296,-0.096 -0.544,-0.224 -0.744,-0.384c-0.192,-0.168 -0.288,-0.384 -0.288,-0.648c0,-0.272 0.084,-0.476 0.252,-0.612c0.176,-0.136 0.46,-0.204 0.852,-0.204c0.272,0 0.576,0.036 0.912,0.108c0.344,0.072 0.672,0.108 0.984,0.108c0.464,0 0.804,-0.072 1.02,-0.216c0.224,-0.144 0.336,-0.34 0.336,-0.588c0,-0.152 -0.044,-0.288 -0.132,-0.408c-0.08,-0.12 -0.244,-0.24 -0.492,-0.36c-0.248,-0.12 -0.62,-0.252 -1.116,-0.396c-0.568,-0.152 -1.028,-0.32 -1.38,-0.504c-0.352,-0.192 -0.608,-0.42 -0.768,-0.684c-0.16,-0.264 -0.24,-0.576 -0.24,-0.936c0,-0.44 0.076,-0.82 0.228,-1.14c0.16,-0.328 0.372,-0.604 0.636,-0.828c0.264,-0.232 0.56,-0.416 0.888,-0.552c0.328,-0.136 0.66,-0.236 0.996,-0.3c0.344,-0.064 0.672,-0.096 0.984,-0.096c0.688,0 1.248,0.108 1.68,0.324c0.44,0.216 0.66,0.504 0.66,0.864c0,0.256 -0.084,0.464 -0.252,0.624c-0.16,0.16 -0.408,0.24 -0.744,0.24c-0.144,0 -0.316,-0.02 -0.516,-0.06c-0.2,-0.04 -0.42,-0.08 -0.66,-0.12c-0.24,-0.04 -0.504,-0.06 -0.792,-0.06c-0.488,0 -0.864,0.076 -1.128,0.228c-0.264,0.152 -0.396,0.396 -0.396,0.732c0,0.144 0.036,0.276 0.108,0.396c0.08,0.12 0.244,0.244 0.492,0.372c0.248,0.128 0.628,0.276 1.14,0.444c0.632,0.192 1.128,0.404 1.488,0.636c0.36,0.224 0.616,0.48 0.768,0.768c0.152,0.288 0.228,0.612 0.228,0.972c0,0.496 -0.136,0.936 -0.408,1.32c-0.264,0.376 -0.636,0.668 -1.116,0.876c-0.472,0.208 -1.024,0.312 -1.656,0.312zM125.6818,183.596c-0.888,0 -1.596,-0.132 -2.124,-0.396c-0.528,-0.264 -0.908,-0.644 -1.14,-1.14c-0.232,-0.496 -0.348,-1.088 -0.348,-1.776c0,-0.872 0.16,-1.612 0.48,-2.22c0.328,-0.616 0.776,-1.088 1.344,-1.416c0.576,-0.328 1.228,-0.492 1.956,-0.492c0.856,0 1.484,0.2 1.884,0.6c0.4,0.392 0.6,0.908 0.6,1.548c0,0.512 -0.136,0.956 -0.408,1.332c-0.264,0.368 -0.632,0.652 -1.104,0.852c-0.472,0.2 -1.016,0.3 -1.632,0.3c-0.344,0 -0.676,-0.044 -0.996,-0.132c-0.32,-0.088 -0.608,-0.208 -0.864,-0.36l0.288,-0.528c-0.024,0.192 -0.036,0.384 -0.036,0.576c0,0.56 0.176,0.964 0.528,1.212c0.352,0.24 0.852,0.36 1.5,0.36c0.504,0 0.908,-0.044 1.212,-0.132c0.304,-0.088 0.56,-0.172 0.768,-0.252c0.208,-0.088 0.412,-0.132 0.612,-0.132c0.112,0 0.212,0.032 0.3,0.096c0.096,0.056 0.172,0.14 0.228,0.252c0.064,0.112 0.096,0.248 0.096,0.408c0,0.24 -0.12,0.472 -0.36,0.696c-0.24,0.216 -0.596,0.396 -1.068,0.54c-0.464,0.136 -1.036,0.204 -1.716,0.204zM124.9858,179.672c0.568,0 1.024,-0.12 1.368,-0.36c0.344,-0.24 0.516,-0.536 0.516,-0.888c0,-0.28 -0.096,-0.508 -0.288,-0.684c-0.184,-0.184 -0.476,-0.276 -0.876,-0.276c-0.376,0 -0.716,0.072 -1.02,0.216c-0.296,0.136 -0.528,0.316 -0.696,0.54c-0.168,0.224 -0.252,0.468 -0.252,0.732c0,0.232 0.108,0.412 0.324,0.54c0.224,0.12 0.532,0.18 0.924,0.18zM132.1724,183.308c-0.752,0 -1.364,-0.288 -1.836,-0.864c-0.472,-0.584 -0.708,-1.468 -0.708,-2.652c0,-1.264 0.228,-2.188 0.684,-2.772c0.456,-0.584 1.056,-0.876 1.8,-0.876c0.44,0 0.828,0.112 1.164,0.336c0.336,0.224 0.624,0.54 0.864,0.948l-0.096,0.168c-0.024,-0.112 -0.044,-0.232 -0.06,-0.36c-0.016,-0.128 -0.024,-0.224 -0.024,-0.288c0,-0.328 0.052,-0.58 0.156,-0.756c0.112,-0.184 0.284,-0.276 0.516,-0.276c0.256,0 0.456,0.104 0.6,0.312c0.152,0.208 0.268,0.504 0.348,0.888c0.104,0.392 0.192,0.892 0.264,1.5c0.072,0.6 0.108,1.208 0.108,1.824c0,0.768 -0.028,1.412 -0.084,1.932c-0.056,0.52 -0.148,0.952 -0.276,1.296c-0.128,0.344 -0.296,0.644 -0.504,0.9c-0.344,0.416 -0.788,0.732 -1.332,0.948c-0.536,0.224 -1.156,0.336 -1.86,0.336c-0.504,0 -0.908,-0.048 -1.212,-0.144c-0.304,-0.088 -0.524,-0.212 -0.66,-0.372c-0.128,-0.152 -0.192,-0.324 -0.192,-0.516c0,-0.2 0.056,-0.368 0.168,-0.504c0.112,-0.128 0.28,-0.192 0.504,-0.192c0.2,0 0.432,0.032 0.696,0.096c0.272,0.064 0.592,0.096 0.96,0.096c0.776,0 1.324,-0.184 1.644,-0.552c0.328,-0.36 0.492,-0.88 0.492,-1.56c0,-0.184 -0.012,-0.4 -0.036,-0.648l0.168,0.06c-0.2,0.512 -0.496,0.924 -0.888,1.236c-0.392,0.304 -0.848,0.456 -1.368,0.456zM132.6284,181.832c0.256,0 0.512,-0.068 0.768,-0.204c0.256,-0.136 0.468,-0.36 0.636,-0.672c0.168,-0.312 0.252,-0.732 0.252,-1.26c0,-0.632 -0.148,-1.148 -0.444,-1.548c-0.296,-0.4 -0.712,-0.6 -1.248,-0.6c-0.464,0 -0.804,0.176 -1.02,0.528c-0.216,0.352 -0.324,0.884 -0.324,1.596c0,0.68 0.108,1.212 0.324,1.596c0.216,0.376 0.568,0.564 1.056,0.564zM138.4716,174.296c0.32,0 0.548,0.088 0.684,0.264c0.144,0.176 0.216,0.38 0.216,0.612c0,0.288 -0.088,0.512 -0.264,0.672c-0.168,0.152 -0.408,0.228 -0.72,0.228c-0.304,0 -0.532,-0.084 -0.684,-0.252c-0.152,-0.176 -0.228,-0.38 -0.228,-0.612c0,-0.304 0.092,-0.532 0.276,-0.684c0.184,-0.152 0.424,-0.228 0.72,-0.228zM138.5436,176.972c0.256,0 0.456,0.24 0.6,0.72c0.152,0.48 0.228,1.244 0.228,2.292c0,1.288 -0.092,2.216 -0.276,2.784c-0.184,0.568 -0.464,0.852 -0.84,0.852c-0.288,0 -0.5,-0.208 -0.636,-0.624c-0.136,-0.424 -0.204,-1.16 -0.204,-2.208c0,-1.288 0.104,-2.244 0.312,-2.868c0.216,-0.632 0.488,-0.948 0.816,-0.948zM142.8655,176.276h-0.24c-0.024,-0.352 -0.016,-0.684 0.024,-0.996c0.04,-0.32 0.124,-0.576 0.252,-0.768c0.136,-0.2 0.328,-0.3 0.576,-0.3c0.224,0 0.388,0.072 0.492,0.216c0.104,0.144 0.156,0.344 0.156,0.6c0,0.504 -0.096,0.936 -0.288,1.296l-0.216,-0.024c0.432,-0.152 0.92,-0.228 1.464,-0.228c0.344,0 0.616,0.068 0.816,0.204c0.208,0.128 0.312,0.348 0.312,0.66c0,0.296 -0.12,0.52 -0.36,0.672c-0.24,0.152 -0.54,0.228 -0.9,0.228c-0.216,0 -0.448,-0.008 -0.696,-0.024c-0.24,-0.024 -0.476,-0.06 -0.708,-0.108l0.204,-0.252c0.072,0.304 0.14,0.652 0.204,1.044c0.072,0.384 0.136,0.784 0.192,1.2c0.056,0.416 0.1,0.82 0.132,1.212c0.032,0.392 0.048,0.744 0.048,1.056c0,0.512 -0.08,0.916 -0.24,1.212c-0.16,0.296 -0.396,0.444 -0.708,0.444c-0.248,0 -0.444,-0.076 -0.588,-0.228c-0.136,-0.152 -0.236,-0.344 -0.3,-0.576c-0.056,-0.24 -0.092,-0.488 -0.108,-0.744c-0.008,-0.256 -0.012,-0.488 -0.012,-0.696c0,-0.352 0.016,-0.748 0.048,-1.188c0.032,-0.448 0.076,-0.908 0.132,-1.38c0.064,-0.472 0.136,-0.928 0.216,-1.368l0.24,0.204c-0.408,0.208 -0.912,0.312 -1.512,0.312c-0.368,0 -0.652,-0.068 -0.852,-0.204c-0.2,-0.136 -0.3,-0.348 -0.3,-0.636c0,-0.312 0.112,-0.552 0.336,-0.72c0.224,-0.176 0.524,-0.264 0.9,-0.264c0.248,0 0.48,0.016 0.696,0.048c0.224,0.024 0.42,0.056 0.588,0.096zM148.245,174.296c0.32,0 0.548,0.088 0.684,0.264c0.144,0.176 0.216,0.38 0.216,0.612c0,0.288 -0.088,0.512 -0.264,0.672c-0.168,0.152 -0.408,0.228 -0.72,0.228c-0.304,0 -0.532,-0.084 -0.684,-0.252c-0.152,-0.176 -0.228,-0.38 -0.228,-0.612c0,-0.304 0.092,-0.532 0.276,-0.684c0.184,-0.152 0.424,-0.228 0.72,-0.228zM148.317,176.972c0.256,0 0.456,0.24 0.6,0.72c0.152,0.48 0.228,1.244 0.228,2.292c0,1.288 -0.092,2.216 -0.276,2.784c-0.184,0.568 -0.464,0.852 -0.84,0.852c-0.288,0 -0.5,-0.208 -0.636,-0.624c-0.136,-0.424 -0.204,-1.16 -0.204,-2.208c0,-1.288 0.104,-2.244 0.312,-2.868c0.216,-0.632 0.488,-0.948 0.816,-0.948zM152.9029,183.308c-0.752,0 -1.364,-0.288 -1.836,-0.864c-0.472,-0.584 -0.708,-1.468 -0.708,-2.652c0,-1.264 0.228,-2.188 0.684,-2.772c0.456,-0.584 1.056,-0.876 1.8,-0.876c0.44,0 0.828,0.112 1.164,0.336c0.336,0.224 0.624,0.54 0.864,0.948l-0.096,0.168c-0.024,-0.112 -0.044,-0.232 -0.06,-0.36c-0.016,-0.128 -0.024,-0.224 -0.024,-0.288c0,-0.328 0.052,-0.58 0.156,-0.756c0.112,-0.184 0.284,-0.276 0.516,-0.276c0.256,0 0.456,0.104 0.6,0.312c0.152,0.208 0.268,0.504 0.348,0.888c0.104,0.392 0.192,0.892 0.264,1.5c0.072,0.6 0.108,1.208 0.108,1.824c0,0.768 -0.028,1.412 -0.084,1.932c-0.056,0.52 -0.148,0.952 -0.276,1.296c-0.128,0.344 -0.296,0.644 -0.504,0.9c-0.344,0.416 -0.788,0.732 -1.332,0.948c-0.536,0.224 -1.156,0.336 -1.86,0.336c-0.504,0 -0.908,-0.048 -1.212,-0.144c-0.304,-0.088 -0.524,-0.212 -0.66,-0.372c-0.128,-0.152 -0.192,-0.324 -0.192,-0.516c0,-0.2 0.056,-0.368 0.168,-0.504c0.112,-0.128 0.28,-0.192 0.504,-0.192c0.2,0 0.432,0.032 0.696,0.096c0.272,0.064 0.592,0.096 0.96,0.096c0.776,0 1.324,-0.184 1.644,-0.552c0.328,-0.36 0.492,-0.88 0.492,-1.56c0,-0.184 -0.012,-0.4 -0.036,-0.648l0.168,0.06c-0.2,0.512 -0.496,0.924 -0.888,1.236c-0.392,0.304 -0.848,0.456 -1.368,0.456zM153.3589,181.832c0.256,0 0.512,-0.068 0.768,-0.204c0.256,-0.136 0.468,-0.36 0.636,-0.672c0.168,-0.312 0.252,-0.732 0.252,-1.26c0,-0.632 -0.148,-1.148 -0.444,-1.548c-0.296,-0.4 -0.712,-0.6 -1.248,-0.6c-0.464,0 -0.804,0.176 -1.02,0.528c-0.216,0.352 -0.324,0.884 -0.324,1.596c0,0.68 0.108,1.212 0.324,1.596c0.216,0.376 0.568,0.564 1.056,0.564zM163.3901,183.62c-0.272,0 -0.46,-0.104 -0.564,-0.312c-0.096,-0.216 -0.152,-0.556 -0.168,-1.02l0.12,0.06c-0.448,0.872 -1.296,1.308 -2.544,1.308c-0.568,0 -1.04,-0.1 -1.416,-0.3c-0.376,-0.208 -0.656,-0.48 -0.84,-0.816c-0.176,-0.344 -0.264,-0.716 -0.264,-1.116c0,-0.688 0.24,-1.232 0.72,-1.632c0.48,-0.408 1.116,-0.612 1.908,-0.612c0.52,0 0.972,0.076 1.356,0.228c0.384,0.152 0.712,0.364 0.984,0.636l-0.204,-0.024c-0.056,-0.808 -0.232,-1.384 -0.528,-1.728c-0.288,-0.352 -0.7,-0.528 -1.236,-0.528c-0.312,0 -0.6,0.048 -0.864,0.144c-0.264,0.096 -0.508,0.196 -0.732,0.3c-0.216,0.096 -0.42,0.144 -0.612,0.144c-0.192,0 -0.344,-0.064 -0.456,-0.192c-0.104,-0.128 -0.156,-0.292 -0.156,-0.492c0,-0.288 0.136,-0.56 0.408,-0.816c0.28,-0.256 0.648,-0.464 1.104,-0.624c0.456,-0.16 0.952,-0.24 1.488,-0.24c0.648,0 1.204,0.156 1.668,0.468c0.464,0.312 0.816,0.768 1.056,1.368c0.208,0.512 0.356,1.084 0.444,1.716c0.088,0.632 0.132,1.308 0.132,2.028c0,0.544 -0.028,0.964 -0.084,1.26c-0.056,0.296 -0.144,0.504 -0.264,0.624c-0.112,0.112 -0.264,0.168 -0.456,0.168zM160.7381,182.276c0.264,0 0.532,-0.036 0.804,-0.108c0.272,-0.08 0.5,-0.196 0.684,-0.348c0.184,-0.152 0.276,-0.34 0.276,-0.564c0,-0.192 -0.08,-0.348 -0.24,-0.468c-0.152,-0.128 -0.356,-0.224 -0.612,-0.288c-0.248,-0.064 -0.516,-0.096 -0.804,-0.096c-0.488,0 -0.86,0.084 -1.116,0.252c-0.248,0.168 -0.372,0.392 -0.372,0.672c0,0.304 0.116,0.54 0.348,0.708c0.24,0.16 0.584,0.24 1.032,0.24zM170.0881,176.276h-0.24c-0.024,-0.352 -0.016,-0.684 0.024,-0.996c0.04,-0.32 0.124,-0.576 0.252,-0.768c0.136,-0.2 0.328,-0.3 0.576,-0.3c0.224,0 0.388,0.072 0.492,0.216c0.104,0.144 0.156,0.344 0.156,0.6c0,0.504 -0.096,0.936 -0.288,1.296l-0.216,-0.024c0.432,-0.152 0.92,-0.228 1.464,-0.228c0.344,0 0.616,0.068 0.816,0.204c0.208,0.128 0.312,0.348 0.312,0.66c0,0.296 -0.12,0.52 -0.36,0.672c-0.24,0.152 -0.54,0.228 -0.9,0.228c-0.216,0 -0.448,-0.008 -0.696,-0.024c-0.24,-0.024 -0.476,-0.06 -0.708,-0.108l0.204,-0.252c0.072,0.304 0.14,0.652 0.204,1.044c0.072,0.384 0.136,0.784 0.192,1.2c0.056,0.416 0.1,0.82 0.132,1.212c0.032,0.392 0.048,0.744 0.048,1.056c0,0.512 -0.08,0.916 -0.24,1.212c-0.16,0.296 -0.396,0.444 -0.708,0.444c-0.248,0 -0.444,-0.076 -0.588,-0.228c-0.136,-0.152 -0.236,-0.344 -0.3,-0.576c-0.056,-0.24 -0.092,-0.488 -0.108,-0.744c-0.008,-0.256 -0.012,-0.488 -0.012,-0.696c0,-0.352 0.016,-0.748 0.048,-1.188c0.032,-0.448 0.076,-0.908 0.132,-1.38c0.064,-0.472 0.136,-0.928 0.216,-1.368l0.24,0.204c-0.408,0.208 -0.912,0.312 -1.512,0.312c-0.368,0 -0.652,-0.068 -0.852,-0.204c-0.2,-0.136 -0.3,-0.348 -0.3,-0.636c0,-0.312 0.112,-0.552 0.336,-0.72c0.224,-0.176 0.524,-0.264 0.9,-0.264c0.248,0 0.48,0.016 0.696,0.048c0.224,0.024 0.42,0.056 0.588,0.096zM175.4677,174.296c0.32,0 0.548,0.088 0.684,0.264c0.144,0.176 0.216,0.38 0.216,0.612c0,0.288 -0.088,0.512 -0.264,0.672c-0.168,0.152 -0.408,0.228 -0.72,0.228c-0.304,0 -0.532,-0.084 -0.684,-0.252c-0.152,-0.176 -0.228,-0.38 -0.228,-0.612c0,-0.304 0.092,-0.532 0.276,-0.684c0.184,-0.152 0.424,-0.228 0.72,-0.228zM175.5397,176.972c0.256,0 0.456,0.24 0.6,0.72c0.152,0.48 0.228,1.244 0.228,2.292c0,1.288 -0.092,2.216 -0.276,2.784c-0.184,0.568 -0.464,0.852 -0.84,0.852c-0.288,0 -0.5,-0.208 -0.636,-0.624c-0.136,-0.424 -0.204,-1.16 -0.204,-2.208c0,-1.288 0.104,-2.244 0.312,-2.868c0.216,-0.632 0.488,-0.948 0.816,-0.948zM180.0776,183.668c-0.784,0 -1.396,-0.292 -1.836,-0.876c-0.44,-0.592 -0.66,-1.492 -0.66,-2.7c0,-1.2 0.216,-2.076 0.648,-2.628c0.44,-0.56 1.068,-0.84 1.884,-0.84c0.464,0 0.868,0.096 1.212,0.288c0.352,0.192 0.664,0.464 0.936,0.816l-0.096,0.048c-0.072,-0.328 -0.144,-0.676 -0.216,-1.044c-0.072,-0.368 -0.132,-0.716 -0.18,-1.044c-0.04,-0.336 -0.06,-0.6 -0.06,-0.792c0,-0.272 0.044,-0.48 0.132,-0.624c0.088,-0.152 0.228,-0.228 0.42,-0.228c0.272,0 0.492,0.116 0.66,0.348c0.168,0.224 0.308,0.572 0.42,1.044c0.104,0.424 0.196,0.928 0.276,1.512c0.08,0.576 0.144,1.18 0.192,1.812c0.056,0.624 0.084,1.224 0.084,1.8c0,0.8 -0.044,1.424 -0.132,1.872c-0.08,0.44 -0.196,0.748 -0.348,0.924c-0.144,0.176 -0.316,0.264 -0.516,0.264c-0.248,0 -0.416,-0.124 -0.504,-0.372c-0.088,-0.248 -0.124,-0.652 -0.108,-1.212h0.18c-0.216,0.496 -0.532,0.892 -0.948,1.188c-0.408,0.296 -0.888,0.444 -1.44,0.444zM180.7136,182.18c0.288,0 0.552,-0.072 0.792,-0.216c0.248,-0.152 0.444,-0.384 0.588,-0.696c0.152,-0.312 0.228,-0.708 0.228,-1.188c0,-0.616 -0.14,-1.116 -0.42,-1.5c-0.28,-0.392 -0.684,-0.588 -1.212,-0.588c-0.416,0 -0.756,0.172 -1.02,0.516c-0.256,0.344 -0.384,0.864 -0.384,1.56c0,0.616 0.128,1.124 0.384,1.524c0.264,0.392 0.612,0.588 1.044,0.588zM190.601,183.62c-0.272,0 -0.46,-0.104 -0.564,-0.312c-0.096,-0.216 -0.152,-0.556 -0.168,-1.02l0.12,0.06c-0.448,0.872 -1.296,1.308 -2.544,1.308c-0.568,0 -1.04,-0.1 -1.416,-0.3c-0.376,-0.208 -0.656,-0.48 -0.84,-0.816c-0.176,-0.344 -0.264,-0.716 -0.264,-1.116c0,-0.688 0.24,-1.232 0.72,-1.632c0.48,-0.408 1.116,-0.612 1.908,-0.612c0.52,0 0.972,0.076 1.356,0.228c0.384,0.152 0.712,0.364 0.984,0.636l-0.204,-0.024c-0.056,-0.808 -0.232,-1.384 -0.528,-1.728c-0.288,-0.352 -0.7,-0.528 -1.236,-0.528c-0.312,0 -0.6,0.048 -0.864,0.144c-0.264,0.096 -0.508,0.196 -0.732,0.3c-0.216,0.096 -0.42,0.144 -0.612,0.144c-0.192,0 -0.344,-0.064 -0.456,-0.192c-0.104,-0.128 -0.156,-0.292 -0.156,-0.492c0,-0.288 0.136,-0.56 0.408,-0.816c0.28,-0.256 0.648,-0.464 1.104,-0.624c0.456,-0.16 0.952,-0.24 1.488,-0.24c0.648,0 1.204,0.156 1.668,0.468c0.464,0.312 0.816,0.768 1.056,1.368c0.208,0.512 0.356,1.084 0.444,1.716c0.088,0.632 0.132,1.308 0.132,2.028c0,0.544 -0.028,0.964 -0.084,1.26c-0.056,0.296 -0.144,0.504 -0.264,0.624c-0.112,0.112 -0.264,0.168 -0.456,0.168zM187.949,182.276c0.264,0 0.532,-0.036 0.804,-0.108c0.272,-0.08 0.5,-0.196 0.684,-0.348c0.184,-0.152 0.276,-0.34 0.276,-0.564c0,-0.192 -0.08,-0.348 -0.24,-0.468c-0.152,-0.128 -0.356,-0.224 -0.612,-0.288c-0.248,-0.064 -0.516,-0.096 -0.804,-0.096c-0.488,0 -0.86,0.084 -1.116,0.252c-0.248,0.168 -0.372,0.392 -0.372,0.672c0,0.304 0.116,0.54 0.348,0.708c0.24,0.16 0.584,0.24 1.032,0.24zM193.6847,183.62c-0.152,0 -0.276,-0.044 -0.372,-0.132c-0.096,-0.096 -0.164,-0.232 -0.204,-0.408c-0.064,-0.296 -0.12,-0.724 -0.168,-1.284c-0.048,-0.56 -0.072,-1.18 -0.072,-1.86c0,-0.84 0.028,-1.648 0.084,-2.424c0.064,-0.776 0.144,-1.412 0.24,-1.908c0.104,-0.536 0.232,-0.928 0.384,-1.176c0.152,-0.256 0.352,-0.384 0.6,-0.384c0.224,0 0.396,0.104 0.516,0.312c0.12,0.2 0.18,0.548 0.18,1.044c0,0.496 -0.02,1.028 -0.06,1.596c-0.032,0.568 -0.088,1.176 -0.168,1.824h0.048c0.52,-0.704 1.004,-1.268 1.452,-1.692c0.456,-0.424 0.872,-0.732 1.248,-0.924c0.384,-0.192 0.724,-0.288 1.02,-0.288c0.232,0 0.404,0.072 0.516,0.216c0.112,0.144 0.168,0.32 0.168,0.528c0,0.408 -0.328,0.864 -0.984,1.368c-0.648,0.504 -1.584,1.02 -2.808,1.548l0.012,-0.192c0.76,0.392 1.412,0.804 1.956,1.236c0.552,0.424 0.972,0.828 1.26,1.212c0.296,0.376 0.444,0.692 0.444,0.948c0,0.208 -0.068,0.38 -0.204,0.516c-0.128,0.128 -0.316,0.192 -0.564,0.192c-0.312,0 -0.66,-0.116 -1.044,-0.348c-0.376,-0.24 -0.768,-0.596 -1.176,-1.068c-0.408,-0.472 -0.816,-1.064 -1.224,-1.776h-0.048c-0.008,0.504 -0.04,0.996 -0.096,1.476c-0.048,0.472 -0.112,0.86 -0.192,1.164c-0.056,0.208 -0.144,0.376 -0.264,0.504c-0.112,0.12 -0.272,0.18 -0.48,0.18zM207.638,178.004c0.08,-0.328 0.22,-0.624 0.42,-0.888c0.208,-0.264 0.456,-0.472 0.744,-0.624c0.296,-0.16 0.62,-0.24 0.972,-0.24c0.416,0 0.784,0.1 1.104,0.3c0.32,0.2 0.572,0.528 0.756,0.984c0.192,0.456 0.288,1.064 0.288,1.824c0,0.392 -0.016,0.788 -0.048,1.188c-0.032,0.4 -0.072,0.772 -0.12,1.116c-0.048,0.344 -0.1,0.632 -0.156,0.864c-0.08,0.32 -0.204,0.564 -0.372,0.732c-0.16,0.168 -0.364,0.252 -0.612,0.252c-0.208,0 -0.372,-0.092 -0.492,-0.276c-0.12,-0.184 -0.18,-0.448 -0.18,-0.792c0,-0.16 0.02,-0.364 0.06,-0.612c0.04,-0.256 0.084,-0.532 0.132,-0.828c0.048,-0.304 0.092,-0.612 0.132,-0.924c0.04,-0.312 0.06,-0.608 0.06,-0.888c0,-0.416 -0.084,-0.736 -0.252,-0.96c-0.168,-0.232 -0.404,-0.348 -0.708,-0.348c-0.336,0 -0.616,0.176 -0.84,0.528c-0.216,0.344 -0.344,0.848 -0.384,1.512c-0.032,0.592 -0.06,1.12 -0.084,1.584c-0.024,0.456 -0.084,0.832 -0.18,1.128c-0.064,0.208 -0.156,0.364 -0.276,0.468c-0.112,0.104 -0.264,0.156 -0.456,0.156c-0.2156,0 -0.3876,-0.08 -0.5156,-0.24c-0.12,-0.16 -0.188,-0.412 -0.204,-0.756c-0.016,-0.288 -0.02,-0.628 -0.012,-1.02c0.008,-0.392 0.012,-0.78 0.012,-1.164c0.008,-0.392 0.004,-0.716 -0.012,-0.972c-0.032,-0.512 -0.124,-0.888 -0.276,-1.128c-0.144,-0.24 -0.364,-0.36 -0.66,-0.36c-0.344,0 -0.62,0.16 -0.828,0.48c-0.2,0.32 -0.324,0.764 -0.372,1.332c-0.016,0.232 -0.024,0.52 -0.024,0.864c0.008,0.336 0.016,0.672 0.024,1.008c0.008,0.336 0.004,0.616 -0.012,0.84c-0.008,0.48 -0.084,0.824 -0.228,1.032c-0.136,0.208 -0.328,0.312 -0.576,0.312c-0.296,0 -0.512,-0.096 -0.648,-0.288c-0.128,-0.192 -0.212,-0.5 -0.252,-0.924c-0.032,-0.376 -0.056,-0.748 -0.072,-1.116c-0.016,-0.376 -0.024,-0.748 -0.024,-1.116c0,-0.376 0.008,-0.784 0.024,-1.224c0.024,-0.44 0.056,-0.856 0.096,-1.248c0.048,-0.4 0.132,-0.736 0.252,-1.008c0.12,-0.272 0.32,-0.408 0.6,-0.408c0.232,0 0.396,0.116 0.492,0.348c0.096,0.224 0.144,0.572 0.144,1.044c0,0.16 -0.012,0.308 -0.036,0.444l-0.036,-0.24c0.16,-0.52 0.416,-0.924 0.768,-1.212c0.352,-0.296 0.744,-0.444 1.176,-0.444c0.568,0 1.012,0.184 1.3316,0.552c0.32,0.36 0.496,0.86 0.528,1.5zM216.748,183.596c-0.888,0 -1.596,-0.132 -2.124,-0.396c-0.528,-0.264 -0.908,-0.644 -1.14,-1.14c-0.232,-0.496 -0.348,-1.088 -0.348,-1.776c0,-0.872 0.16,-1.612 0.48,-2.22c0.328,-0.616 0.776,-1.088 1.344,-1.416c0.576,-0.328 1.228,-0.492 1.956,-0.492c0.856,0 1.484,0.2 1.884,0.6c0.4,0.392 0.6,0.908 0.6,1.548c0,0.512 -0.136,0.956 -0.408,1.332c-0.264,0.368 -0.632,0.652 -1.104,0.852c-0.472,0.2 -1.016,0.3 -1.632,0.3c-0.344,0 -0.676,-0.044 -0.996,-0.132c-0.32,-0.088 -0.608,-0.208 -0.864,-0.36l0.288,-0.528c-0.024,0.192 -0.036,0.384 -0.036,0.576c0,0.56 0.176,0.964 0.528,1.212c0.352,0.24 0.852,0.36 1.5,0.36c0.504,0 0.908,-0.044 1.212,-0.132c0.304,-0.088 0.56,-0.172 0.768,-0.252c0.208,-0.088 0.412,-0.132 0.612,-0.132c0.112,0 0.212,0.032 0.3,0.096c0.096,0.056 0.172,0.14 0.228,0.252c0.064,0.112 0.096,0.248 0.096,0.408c0,0.24 -0.12,0.472 -0.36,0.696c-0.24,0.216 -0.596,0.396 -1.068,0.54c-0.464,0.136 -1.036,0.204 -1.716,0.204zM216.052,179.672c0.568,0 1.024,-0.12 1.368,-0.36c0.344,-0.24 0.516,-0.536 0.516,-0.888c0,-0.28 -0.096,-0.508 -0.288,-0.684c-0.184,-0.184 -0.476,-0.276 -0.876,-0.276c-0.376,0 -0.716,0.072 -1.02,0.216c-0.296,0.136 -0.528,0.316 -0.696,0.54c-0.168,0.224 -0.252,0.468 -0.252,0.732c0,0.232 0.108,0.412 0.324,0.54c0.224,0.12 0.532,0.18 0.924,0.18zM226.119,178.004c0.08,-0.328 0.22,-0.624 0.42,-0.888c0.208,-0.264 0.456,-0.472 0.744,-0.624c0.296,-0.16 0.62,-0.24 0.972,-0.24c0.416,0 0.784,0.1 1.104,0.3c0.32,0.2 0.572,0.528 0.756,0.984c0.192,0.456 0.288,1.064 0.288,1.824c0,0.392 -0.016,0.788 -0.048,1.188c-0.032,0.4 -0.072,0.772 -0.12,1.116c-0.048,0.344 -0.1,0.632 -0.156,0.864c-0.08,0.32 -0.204,0.564 -0.372,0.732c-0.16,0.168 -0.364,0.252 -0.612,0.252c-0.208,0 -0.372,-0.092 -0.492,-0.276c-0.12,-0.184 -0.18,-0.448 -0.18,-0.792c0,-0.16 0.02,-0.364 0.06,-0.612c0.04,-0.256 0.084,-0.532 0.132,-0.828c0.048,-0.304 0.092,-0.612 0.132,-0.924c0.04,-0.312 0.06,-0.608 0.06,-0.888c0,-0.416 -0.084,-0.736 -0.252,-0.96c-0.168,-0.232 -0.404,-0.348 -0.708,-0.348c-0.336,0 -0.616,0.176 -0.84,0.528c-0.216,0.344 -0.344,0.848 -0.384,1.512c-0.032,0.592 -0.06,1.12 -0.084,1.584c-0.024,0.456 -0.084,0.832 -0.18,1.128c-0.064,0.208 -0.156,0.364 -0.276,0.468c-0.112,0.104 -0.264,0.156 -0.456,0.156c-0.216,0 -0.388,-0.08 -0.516,-0.24c-0.12,-0.16 -0.188,-0.412 -0.204,-0.756c-0.016,-0.288 -0.02,-0.628 -0.012,-1.02c0.008,-0.392 0.012,-0.78 0.012,-1.164c0.008,-0.392 0.004,-0.716 -0.012,-0.972c-0.032,-0.512 -0.124,-0.888 -0.276,-1.128c-0.144,-0.24 -0.364,-0.36 -0.66,-0.36c-0.344,0 -0.62,0.16 -0.828,0.48c-0.2,0.32 -0.324,0.764 -0.372,1.332c-0.016,0.232 -0.024,0.52 -0.024,0.864c0.008,0.336 0.016,0.672 0.024,1.008c0.008,0.336 0.004,0.616 -0.012,0.84c-0.008,0.48 -0.084,0.824 -0.228,1.032c-0.136,0.208 -0.328,0.312 -0.576,0.312c-0.296,0 -0.512,-0.096 -0.648,-0.288c-0.128,-0.192 -0.212,-0.5 -0.252,-0.924c-0.032,-0.376 -0.056,-0.748 -0.072,-1.116c-0.016,-0.376 -0.024,-0.748 -0.024,-1.116c0,-0.376 0.008,-0.784 0.024,-1.224c0.024,-0.44 0.056,-0.856 0.096,-1.248c0.048,-0.4 0.132,-0.736 0.252,-1.008c0.12,-0.272 0.32,-0.408 0.6,-0.408c0.232,0 0.396,0.116 0.492,0.348c0.096,0.224 0.144,0.572 0.144,1.044c0,0.16 -0.012,0.308 -0.036,0.444l-0.036,-0.24c0.16,-0.52 0.416,-0.924 0.768,-1.212c0.352,-0.296 0.744,-0.444 1.176,-0.444c0.568,0 1.012,0.184 1.332,0.552c0.32,0.36 0.496,0.86 0.528,1.5zM232.925,174.296c0.32,0 0.548,0.088 0.684,0.264c0.144,0.176 0.216,0.38 0.216,0.612c0,0.288 -0.088,0.512 -0.264,0.672c-0.168,0.152 -0.408,0.228 -0.72,0.228c-0.304,0 -0.532,-0.084 -0.684,-0.252c-0.152,-0.176 -0.228,-0.38 -0.228,-0.612c0,-0.304 0.092,-0.532 0.276,-0.684c0.184,-0.152 0.424,-0.228 0.72,-0.228zM232.997,176.972c0.256,0 0.456,0.24 0.6,0.72c0.152,0.48 0.228,1.244 0.228,2.292c0,1.288 -0.092,2.216 -0.276,2.784c-0.184,0.568 -0.464,0.852 -0.84,0.852c-0.288,0 -0.5,-0.208 -0.636,-0.624c-0.136,-0.424 -0.204,-1.16 -0.204,-2.208c0,-1.288 0.104,-2.244 0.312,-2.868c0.216,-0.632 0.488,-0.948 0.816,-0.948zM236.587,183.524c-0.248,0 -0.444,-0.056 -0.588,-0.168c-0.144,-0.12 -0.26,-0.316 -0.348,-0.588c-0.12,-0.4 -0.212,-0.904 -0.276,-1.512c-0.056,-0.616 -0.084,-1.372 -0.084,-2.268c0,-0.552 0.02,-1.104 0.06,-1.656c0.048,-0.56 0.108,-1.068 0.18,-1.524c0.072,-0.464 0.148,-0.824 0.228,-1.08c0.088,-0.272 0.192,-0.46 0.312,-0.564c0.12,-0.104 0.256,-0.156 0.408,-0.156c0.16,0 0.288,0.056 0.384,0.168c0.096,0.104 0.172,0.292 0.228,0.564c0.048,0.264 0.084,0.588 0.108,0.972c0.032,0.384 0.048,0.796 0.048,1.236c0,0.6 -0.028,1.232 -0.084,1.896c-0.056,0.664 -0.132,1.316 -0.228,1.956c-0.088,0.64 -0.196,1.228 -0.324,1.764l-0.336,-0.168c0.208,-0.256 0.444,-0.456 0.708,-0.6c0.272,-0.144 0.52,-0.216 0.744,-0.216c0.184,0 0.324,0.052 0.42,0.156c0.104,0.096 0.156,0.248 0.156,0.456c0,0.208 -0.092,0.416 -0.276,0.624c-0.176,0.208 -0.396,0.38 -0.66,0.516c-0.264,0.128 -0.524,0.192 -0.78,0.192zM240.448,174.296c0.32,0 0.548,0.088 0.684,0.264c0.144,0.176 0.216,0.38 0.216,0.612c0,0.288 -0.088,0.512 -0.264,0.672c-0.168,0.152 -0.408,0.228 -0.72,0.228c-0.304,0 -0.532,-0.084 -0.684,-0.252c-0.152,-0.176 -0.228,-0.38 -0.228,-0.612c0,-0.304 0.092,-0.532 0.276,-0.684c0.184,-0.152 0.424,-0.228 0.72,-0.228zM240.52,176.972c0.256,0 0.456,0.24 0.6,0.72c0.152,0.48 0.228,1.244 0.228,2.292c0,1.288 -0.092,2.216 -0.276,2.784c-0.184,0.568 -0.464,0.852 -0.84,0.852c-0.288,0 -0.5,-0.208 -0.636,-0.624c-0.136,-0.424 -0.204,-1.16 -0.204,-2.208c0,-1.288 0.104,-2.244 0.312,-2.868c0.216,-0.632 0.488,-0.948 0.816,-0.948zM243.63,183.62c-0.152,0 -0.276,-0.044 -0.372,-0.132c-0.096,-0.096 -0.164,-0.232 -0.204,-0.408c-0.064,-0.296 -0.12,-0.724 -0.168,-1.284c-0.048,-0.56 -0.072,-1.18 -0.072,-1.86c0,-0.84 0.028,-1.648 0.084,-2.424c0.064,-0.776 0.144,-1.412 0.24,-1.908c0.104,-0.536 0.232,-0.928 0.384,-1.176c0.152,-0.256 0.352,-0.384 0.6,-0.384c0.224,0 0.396,0.104 0.516,0.312c0.12,0.2 0.18,0.548 0.18,1.044c0,0.496 -0.02,1.028 -0.06,1.596c-0.032,0.568 -0.088,1.176 -0.168,1.824h0.048c0.52,-0.704 1.004,-1.268 1.452,-1.692c0.456,-0.424 0.872,-0.732 1.248,-0.924c0.384,-0.192 0.724,-0.288 1.02,-0.288c0.232,0 0.404,0.072 0.516,0.216c0.112,0.144 0.168,0.32 0.168,0.528c0,0.408 -0.328,0.864 -0.984,1.368c-0.648,0.504 -1.584,1.02 -2.808,1.548l0.012,-0.192c0.76,0.392 1.412,0.804 1.956,1.236c0.552,0.424 0.972,0.828 1.26,1.212c0.296,0.376 0.444,0.692 0.444,0.948c0,0.208 -0.068,0.38 -0.204,0.516c-0.128,0.128 -0.316,0.192 -0.564,0.192c-0.312,0 -0.66,-0.116 -1.044,-0.348c-0.376,-0.24 -0.768,-0.596 -1.176,-1.068c-0.408,-0.472 -0.816,-1.064 -1.224,-1.776h-0.048c-0.008,0.504 -0.04,0.996 -0.096,1.476c-0.048,0.472 -0.112,0.86 -0.192,1.164c-0.056,0.208 -0.144,0.376 -0.264,0.504c-0.112,0.12 -0.272,0.18 -0.48,0.18zM251.065,174.296c0.32,0 0.548,0.088 0.684,0.264c0.144,0.176 0.216,0.38 0.216,0.612c0,0.288 -0.088,0.512 -0.264,0.672c-0.168,0.152 -0.408,0.228 -0.72,0.228c-0.304,0 -0.532,-0.084 -0.684,-0.252c-0.152,-0.176 -0.228,-0.38 -0.228,-0.612c0,-0.304 0.092,-0.532 0.276,-0.684c0.184,-0.152 0.424,-0.228 0.72,-0.228zM251.137,176.972c0.256,0 0.456,0.24 0.6,0.72c0.152,0.48 0.228,1.244 0.228,2.292c0,1.288 -0.092,2.216 -0.276,2.784c-0.184,0.568 -0.464,0.852 -0.84,0.852c-0.288,0 -0.5,-0.208 -0.636,-0.624c-0.136,-0.424 -0.204,-1.16 -0.204,-2.208c0,-1.288 0.104,-2.244 0.312,-2.868c0.216,-0.632 0.488,-0.948 0.816,-0.948zM258.078,183.668c-0.784,0 -1.396,-0.292 -1.836,-0.876c-0.44,-0.592 -0.66,-1.492 -0.66,-2.7c0,-1.2 0.216,-2.076 0.648,-2.628c0.44,-0.56 1.068,-0.84 1.884,-0.84c0.464,0 0.868,0.096 1.212,0.288c0.352,0.192 0.664,0.464 0.936,0.816l-0.096,0.048c-0.072,-0.328 -0.144,-0.676 -0.216,-1.044c-0.072,-0.368 -0.132,-0.716 -0.18,-1.044c-0.04,-0.336 -0.06,-0.6 -0.06,-0.792c0,-0.272 0.044,-0.48 0.132,-0.624c0.088,-0.152 0.228,-0.228 0.42,-0.228c0.272,0 0.492,0.116 0.66,0.348c0.168,0.224 0.308,0.572 0.42,1.044c0.104,0.424 0.196,0.928 0.276,1.512c0.08,0.576 0.144,1.18 0.192,1.812c0.056,0.624 0.084,1.224 0.084,1.8c0,0.8 -0.044,1.424 -0.132,1.872c-0.08,0.44 -0.196,0.748 -0.348,0.924c-0.144,0.176 -0.316,0.264 -0.516,0.264c-0.248,0 -0.416,-0.124 -0.504,-0.372c-0.088,-0.248 -0.124,-0.652 -0.108,-1.212h0.18c-0.216,0.496 -0.532,0.892 -0.948,1.188c-0.408,0.296 -0.888,0.444 -1.44,0.444zM258.714,182.18c0.288,0 0.552,-0.072 0.792,-0.216c0.248,-0.152 0.444,-0.384 0.588,-0.696c0.152,-0.312 0.228,-0.708 0.228,-1.188c0,-0.616 -0.14,-1.116 -0.42,-1.5c-0.28,-0.392 -0.684,-0.588 -1.212,-0.588c-0.416,0 -0.756,0.172 -1.02,0.516c-0.256,0.344 -0.384,0.864 -0.384,1.56c0,0.616 0.128,1.124 0.384,1.524c0.264,0.392 0.612,0.588 1.044,0.588zM264.413,174.296c0.32,0 0.548,0.088 0.684,0.264c0.144,0.176 0.216,0.38 0.216,0.612c0,0.288 -0.088,0.512 -0.264,0.672c-0.168,0.152 -0.408,0.228 -0.72,0.228c-0.304,0 -0.532,-0.084 -0.684,-0.252c-0.152,-0.176 -0.228,-0.38 -0.228,-0.612c0,-0.304 0.092,-0.532 0.276,-0.684c0.184,-0.152 0.424,-0.228 0.72,-0.228zM264.485,176.972c0.256,0 0.456,0.24 0.6,0.72c0.152,0.48 0.228,1.244 0.228,2.292c0,1.288 -0.092,2.216 -0.276,2.784c-0.184,0.568 -0.464,0.852 -0.84,0.852c-0.288,0 -0.5,-0.208 -0.636,-0.624c-0.136,-0.424 -0.204,-1.16 -0.204,-2.208c0,-1.288 0.104,-2.244 0.312,-2.868c0.216,-0.632 0.488,-0.948 0.816,-0.948zM272.023,183.62c-0.272,0 -0.46,-0.104 -0.564,-0.312c-0.096,-0.216 -0.152,-0.556 -0.168,-1.02l0.12,0.06c-0.448,0.872 -1.296,1.308 -2.544,1.308c-0.568,0 -1.04,-0.1 -1.416,-0.3c-0.376,-0.208 -0.656,-0.48 -0.84,-0.816c-0.176,-0.344 -0.264,-0.716 -0.264,-1.116c0,-0.688 0.24,-1.232 0.72,-1.632c0.48,-0.408 1.116,-0.612 1.908,-0.612c0.52,0 0.972,0.076 1.356,0.228c0.384,0.152 0.712,0.364 0.984,0.636l-0.204,-0.024c-0.056,-0.808 -0.232,-1.384 -0.528,-1.728c-0.288,-0.352 -0.7,-0.528 -1.236,-0.528c-0.312,0 -0.6,0.048 -0.864,0.144c-0.264,0.096 -0.508,0.196 -0.732,0.3c-0.216,0.096 -0.42,0.144 -0.612,0.144c-0.192,0 -0.344,-0.064 -0.456,-0.192c-0.104,-0.128 -0.156,-0.292 -0.156,-0.492c0,-0.288 0.136,-0.56 0.408,-0.816c0.28,-0.256 0.648,-0.464 1.104,-0.624c0.456,-0.16 0.952,-0.24 1.488,-0.24c0.648,0 1.204,0.156 1.668,0.468c0.464,0.312 0.816,0.768 1.056,1.368c0.208,0.512 0.356,1.084 0.444,1.716c0.088,0.632 0.132,1.308 0.132,2.028c0,0.544 -0.028,0.964 -0.084,1.26c-0.056,0.296 -0.144,0.504 -0.264,0.624c-0.112,0.112 -0.264,0.168 -0.456,0.168zM269.371,182.276c0.264,0 0.532,-0.036 0.804,-0.108c0.272,-0.08 0.5,-0.196 0.684,-0.348c0.184,-0.152 0.276,-0.34 0.276,-0.564c0,-0.192 -0.08,-0.348 -0.24,-0.468c-0.152,-0.128 -0.356,-0.224 -0.612,-0.288c-0.248,-0.064 -0.516,-0.096 -0.804,-0.096c-0.488,0 -0.86,0.084 -1.116,0.252c-0.248,0.168 -0.372,0.392 -0.372,0.672c0,0.304 0.116,0.54 0.348,0.708c0.24,0.16 0.584,0.24 1.032,0.24zM276.583,183.308c-0.752,0 -1.364,-0.288 -1.836,-0.864c-0.472,-0.584 -0.708,-1.468 -0.708,-2.652c0,-1.264 0.228,-2.188 0.684,-2.772c0.456,-0.584 1.056,-0.876 1.8,-0.876c0.44,0 0.828,0.112 1.164,0.336c0.336,0.224 0.624,0.54 0.864,0.948l-0.096,0.168c-0.024,-0.112 -0.044,-0.232 -0.06,-0.36c-0.016,-0.128 -0.024,-0.224 -0.024,-0.288c0,-0.328 0.052,-0.58 0.156,-0.756c0.112,-0.184 0.284,-0.276 0.516,-0.276c0.256,0 0.456,0.104 0.6,0.312c0.152,0.208 0.268,0.504 0.348,0.888c0.104,0.392 0.192,0.892 0.264,1.5c0.072,0.6 0.108,1.208 0.108,1.824c0,0.768 -0.028,1.412 -0.084,1.932c-0.056,0.52 -0.148,0.952 -0.276,1.296c-0.128,0.344 -0.296,0.644 -0.504,0.9c-0.344,0.416 -0.788,0.732 -1.332,0.948c-0.536,0.224 -1.156,0.336 -1.86,0.336c-0.504,0 -0.908,-0.048 -1.212,-0.144c-0.304,-0.088 -0.524,-0.212 -0.66,-0.372c-0.128,-0.152 -0.192,-0.324 -0.192,-0.516c0,-0.2 0.056,-0.368 0.168,-0.504c0.112,-0.128 0.28,-0.192 0.504,-0.192c0.2,0 0.432,0.032 0.696,0.096c0.272,0.064 0.592,0.096 0.96,0.096c0.776,0 1.324,-0.184 1.644,-0.552c0.328,-0.36 0.492,-0.88 0.492,-1.56c0,-0.184 -0.012,-0.4 -0.036,-0.648l0.168,0.06c-0.2,0.512 -0.496,0.924 -0.888,1.236c-0.392,0.304 -0.848,0.456 -1.368,0.456zM277.039,181.832c0.256,0 0.512,-0.068 0.768,-0.204c0.256,-0.136 0.468,-0.36 0.636,-0.672c0.168,-0.312 0.252,-0.732 0.252,-1.26c0,-0.632 -0.148,-1.148 -0.444,-1.548c-0.296,-0.4 -0.712,-0.6 -1.248,-0.6c-0.464,0 -0.804,0.176 -1.02,0.528c-0.216,0.352 -0.324,0.884 -0.324,1.596c0,0.68 0.108,1.212 0.324,1.596c0.216,0.376 0.568,0.564 1.056,0.564zM284.742,183.536c-0.64,0 -1.2,-0.14 -1.68,-0.42c-0.472,-0.288 -0.84,-0.696 -1.104,-1.224c-0.256,-0.528 -0.384,-1.156 -0.384,-1.884c0,-0.76 0.132,-1.424 0.396,-1.992c0.264,-0.568 0.636,-1.012 1.116,-1.332c0.488,-0.32 1.052,-0.48 1.692,-0.48c0.688,0 1.284,0.156 1.788,0.468c0.504,0.304 0.896,0.732 1.176,1.284c0.28,0.552 0.42,1.196 0.42,1.932c0,0.752 -0.14,1.4 -0.42,1.944c-0.28,0.544 -0.676,0.964 -1.188,1.26c-0.512,0.296 -1.116,0.444 -1.812,0.444zM284.91,181.916c0.496,0 0.888,-0.196 1.176,-0.588c0.296,-0.4 0.444,-0.928 0.444,-1.584c0,-0.664 -0.148,-1.192 -0.444,-1.584c-0.288,-0.392 -0.68,-0.588 -1.176,-0.588c-0.512,0 -0.916,0.196 -1.212,0.588c-0.296,0.392 -0.444,0.92 -0.444,1.584c0,0.656 0.148,1.184 0.444,1.584c0.296,0.392 0.7,0.588 1.212,0.588zM290.597,176.036c0.256,0 0.428,0.104 0.516,0.312c0.096,0.208 0.144,0.516 0.144,0.924c0,0.096 -0.008,0.2 -0.024,0.312c-0.008,0.104 -0.024,0.2 -0.048,0.288l-0.024,-0.24c0.192,-0.52 0.488,-0.924 0.888,-1.212c0.4,-0.296 0.824,-0.444 1.272,-0.444c0.496,0 0.908,0.14 1.236,0.42c0.336,0.28 0.584,0.672 0.744,1.176c0.168,0.504 0.252,1.1 0.252,1.788c0,0.424 -0.02,0.844 -0.06,1.26c-0.032,0.408 -0.08,0.784 -0.144,1.128c-0.056,0.336 -0.12,0.612 -0.192,0.828c-0.096,0.272 -0.22,0.476 -0.372,0.612c-0.152,0.128 -0.332,0.192 -0.54,0.192c-0.208,0 -0.368,-0.076 -0.48,-0.228c-0.112,-0.152 -0.168,-0.356 -0.168,-0.612c0,-0.272 0.02,-0.6 0.06,-0.984c0.04,-0.392 0.076,-0.788 0.108,-1.188c0.04,-0.408 0.06,-0.776 0.06,-1.104c0,-1.12 -0.368,-1.68 -1.104,-1.68c-0.392,0 -0.72,0.176 -0.984,0.528c-0.264,0.344 -0.44,0.836 -0.528,1.476c-0.024,0.216 -0.036,0.484 -0.036,0.804c0,0.32 0,0.64 0,0.96c0.008,0.312 0,0.576 -0.024,0.792c-0.032,0.48 -0.124,0.824 -0.276,1.032c-0.144,0.208 -0.344,0.312 -0.6,0.312c-0.296,0 -0.52,-0.136 -0.672,-0.408c-0.152,-0.28 -0.228,-0.748 -0.228,-1.404c0,-0.336 0.008,-0.712 0.024,-1.128c0.016,-0.416 0.036,-0.832 0.06,-1.248c0.032,-0.424 0.068,-0.808 0.108,-1.152c0.08,-0.648 0.196,-1.16 0.348,-1.536c0.152,-0.384 0.38,-0.576 0.684,-0.576zM302.257,183.62c-0.272,0 -0.46,-0.104 -0.564,-0.312c-0.096,-0.216 -0.152,-0.556 -0.168,-1.02l0.12,0.06c-0.448,0.872 -1.296,1.308 -2.544,1.308c-0.568,0 -1.04,-0.1 -1.416,-0.3c-0.376,-0.208 -0.656,-0.48 -0.84,-0.816c-0.176,-0.344 -0.264,-0.716 -0.264,-1.116c0,-0.688 0.24,-1.232 0.72,-1.632c0.48,-0.408 1.116,-0.612 1.908,-0.612c0.52,0 0.972,0.076 1.356,0.228c0.384,0.152 0.712,0.364 0.984,0.636l-0.204,-0.024c-0.056,-0.808 -0.232,-1.384 -0.528,-1.728c-0.288,-0.352 -0.7,-0.528 -1.236,-0.528c-0.312,0 -0.6,0.048 -0.864,0.144c-0.264,0.096 -0.508,0.196 -0.732,0.3c-0.216,0.096 -0.42,0.144 -0.612,0.144c-0.192,0 -0.344,-0.064 -0.456,-0.192c-0.104,-0.128 -0.156,-0.292 -0.156,-0.492c0,-0.288 0.136,-0.56 0.408,-0.816c0.28,-0.256 0.648,-0.464 1.104,-0.624c0.456,-0.16 0.952,-0.24 1.488,-0.24c0.648,0 1.204,0.156 1.668,0.468c0.464,0.312 0.816,0.768 1.056,1.368c0.208,0.512 0.356,1.084 0.444,1.716c0.088,0.632 0.132,1.308 0.132,2.028c0,0.544 -0.028,0.964 -0.084,1.26c-0.056,0.296 -0.144,0.504 -0.264,0.624c-0.112,0.112 -0.264,0.168 -0.456,0.168zM299.605,182.276c0.264,0 0.532,-0.036 0.804,-0.108c0.272,-0.08 0.5,-0.196 0.684,-0.348c0.184,-0.152 0.276,-0.34 0.276,-0.564c0,-0.192 -0.08,-0.348 -0.24,-0.468c-0.152,-0.128 -0.356,-0.224 -0.612,-0.288c-0.248,-0.064 -0.516,-0.096 -0.804,-0.096c-0.488,0 -0.86,0.084 -1.116,0.252c-0.248,0.168 -0.372,0.392 -0.372,0.672c0,0.304 0.116,0.54 0.348,0.708c0.24,0.16 0.584,0.24 1.032,0.24zM305.821,183.524c-0.248,0 -0.444,-0.056 -0.588,-0.168c-0.144,-0.12 -0.26,-0.316 -0.348,-0.588c-0.12,-0.4 -0.212,-0.904 -0.276,-1.512c-0.056,-0.616 -0.084,-1.372 -0.084,-2.268c0,-0.552 0.02,-1.104 0.06,-1.656c0.048,-0.56 0.108,-1.068 0.18,-1.524c0.072,-0.464 0.148,-0.824 0.228,-1.08c0.088,-0.272 0.192,-0.46 0.312,-0.564c0.12,-0.104 0.256,-0.156 0.408,-0.156c0.16,0 0.288,0.056 0.384,0.168c0.096,0.104 0.172,0.292 0.228,0.564c0.048,0.264 0.084,0.588 0.108,0.972c0.032,0.384 0.048,0.796 0.048,1.236c0,0.6 -0.028,1.232 -0.084,1.896c-0.056,0.664 -0.132,1.316 -0.228,1.956c-0.088,0.64 -0.196,1.228 -0.324,1.764l-0.336,-0.168c0.208,-0.256 0.444,-0.456 0.708,-0.6c0.272,-0.144 0.52,-0.216 0.744,-0.216c0.184,0 0.324,0.052 0.42,0.156c0.104,0.096 0.156,0.248 0.156,0.456c0,0.208 -0.092,0.416 -0.276,0.624c-0.176,0.208 -0.396,0.38 -0.66,0.516c-0.264,0.128 -0.524,0.192 -0.78,0.192zM311.845,183.62c-0.152,0 -0.276,-0.044 -0.372,-0.132c-0.096,-0.096 -0.164,-0.232 -0.204,-0.408c-0.064,-0.296 -0.12,-0.724 -0.168,-1.284c-0.048,-0.56 -0.072,-1.18 -0.072,-1.86c0,-0.84 0.028,-1.648 0.084,-2.424c0.064,-0.776 0.144,-1.412 0.24,-1.908c0.104,-0.536 0.232,-0.928 0.384,-1.176c0.152,-0.256 0.352,-0.384 0.6,-0.384c0.224,0 0.396,0.104 0.516,0.312c0.12,0.2 0.18,0.548 0.18,1.044c0,0.496 -0.02,1.028 -0.06,1.596c-0.032,0.568 -0.088,1.176 -0.168,1.824h0.048c0.52,-0.704 1.004,-1.268 1.452,-1.692c0.456,-0.424 0.872,-0.732 1.248,-0.924c0.384,-0.192 0.724,-0.288 1.02,-0.288c0.232,0 0.404,0.072 0.516,0.216c0.112,0.144 0.168,0.32 0.168,0.528c0,0.408 -0.328,0.864 -0.984,1.368c-0.648,0.504 -1.584,1.02 -2.808,1.548l0.012,-0.192c0.76,0.392 1.412,0.804 1.956,1.236c0.552,0.424 0.972,0.828 1.26,1.212c0.296,0.376 0.444,0.692 0.444,0.948c0,0.208 -0.068,0.38 -0.204,0.516c-0.128,0.128 -0.316,0.192 -0.564,0.192c-0.312,0 -0.66,-0.116 -1.044,-0.348c-0.376,-0.24 -0.768,-0.596 -1.176,-1.068c-0.408,-0.472 -0.816,-1.064 -1.224,-1.776h-0.048c-0.008,0.504 -0.04,0.996 -0.096,1.476c-0.048,0.472 -0.112,0.86 -0.192,1.164c-0.056,0.208 -0.144,0.376 -0.264,0.504c-0.112,0.12 -0.272,0.18 -0.48,0.18zM323.468,183.62c-0.272,0 -0.46,-0.104 -0.564,-0.312c-0.096,-0.216 -0.152,-0.556 -0.168,-1.02l0.12,0.06c-0.448,0.872 -1.296,1.308 -2.544,1.308c-0.568,0 -1.04,-0.1 -1.416,-0.3c-0.376,-0.208 -0.656,-0.48 -0.84,-0.816c-0.176,-0.344 -0.264,-0.716 -0.264,-1.116c0,-0.688 0.24,-1.232 0.72,-1.632c0.48,-0.408 1.116,-0.612 1.908,-0.612c0.52,0 0.972,0.076 1.356,0.228c0.384,0.152 0.712,0.364 0.984,0.636l-0.204,-0.024c-0.056,-0.808 -0.232,-1.384 -0.528,-1.728c-0.288,-0.352 -0.7,-0.528 -1.236,-0.528c-0.312,0 -0.6,0.048 -0.864,0.144c-0.264,0.096 -0.508,0.196 -0.732,0.3c-0.216,0.096 -0.42,0.144 -0.612,0.144c-0.192,0 -0.344,-0.064 -0.456,-0.192c-0.104,-0.128 -0.156,-0.292 -0.156,-0.492c0,-0.288 0.136,-0.56 0.408,-0.816c0.28,-0.256 0.648,-0.464 1.104,-0.624c0.456,-0.16 0.952,-0.24 1.488,-0.24c0.648,0 1.204,0.156 1.668,0.468c0.464,0.312 0.816,0.768 1.056,1.368c0.208,0.512 0.356,1.084 0.444,1.716c0.088,0.632 0.132,1.308 0.132,2.028c0,0.544 -0.028,0.964 -0.084,1.26c-0.056,0.296 -0.144,0.504 -0.264,0.624c-0.112,0.112 -0.264,0.168 -0.456,0.168zM320.816,182.276c0.264,0 0.532,-0.036 0.804,-0.108c0.272,-0.08 0.5,-0.196 0.684,-0.348c0.184,-0.152 0.276,-0.34 0.276,-0.564c0,-0.192 -0.08,-0.348 -0.24,-0.468c-0.152,-0.128 -0.356,-0.224 -0.612,-0.288c-0.248,-0.064 -0.516,-0.096 -0.804,-0.096c-0.488,0 -0.86,0.084 -1.116,0.252c-0.248,0.168 -0.372,0.392 -0.372,0.672c0,0.304 0.116,0.54 0.348,0.708c0.24,0.16 0.584,0.24 1.032,0.24zM325.736,178.088c0,-0.768 0.072,-1.32 0.216,-1.656c0.144,-0.344 0.348,-0.516 0.612,-0.516c0.208,0 0.372,0.088 0.492,0.264c0.12,0.168 0.208,0.38 0.264,0.636c0.056,0.248 0.084,0.5 0.084,0.756l-0.06,-0.024c0.136,-0.432 0.344,-0.804 0.624,-1.116c0.288,-0.312 0.632,-0.468 1.032,-0.468c0.472,0 0.82,0.196 1.044,0.588c0.224,0.384 0.336,0.864 0.336,1.44c0,0.768 -0.088,1.304 -0.264,1.608c-0.176,0.304 -0.412,0.456 -0.708,0.456c-0.216,0 -0.376,-0.088 -0.48,-0.264c-0.096,-0.176 -0.128,-0.488 -0.096,-0.936c0.032,-0.472 0.004,-0.8 -0.084,-0.984c-0.088,-0.184 -0.228,-0.276 -0.42,-0.276c-0.232,0 -0.424,0.148 -0.576,0.444c-0.144,0.288 -0.216,0.644 -0.216,1.068c0,0.168 0.02,0.38 0.06,0.636c0.04,0.256 0.084,0.536 0.132,0.84c0.048,0.296 0.092,0.592 0.132,0.888c0.04,0.296 0.06,0.568 0.06,0.816c0,0.44 -0.068,0.756 -0.204,0.948c-0.136,0.192 -0.328,0.288 -0.576,0.288c-0.28,0 -0.496,-0.088 -0.648,-0.264c-0.152,-0.184 -0.268,-0.48 -0.348,-0.888c-0.064,-0.368 -0.128,-0.804 -0.192,-1.308c-0.064,-0.504 -0.116,-1.02 -0.156,-1.548c-0.04,-0.528 -0.06,-1.004 -0.06,-1.428zM334.803,183.596c-0.888,0 -1.596,-0.132 -2.124,-0.396c-0.528,-0.264 -0.908,-0.644 -1.14,-1.14c-0.232,-0.496 -0.348,-1.088 -0.348,-1.776c0,-0.872 0.16,-1.612 0.48,-2.22c0.328,-0.616 0.776,-1.088 1.344,-1.416c0.576,-0.328 1.228,-0.492 1.956,-0.492c0.856,0 1.484,0.2 1.884,0.6c0.4,0.392 0.6,0.908 0.6,1.548c0,0.512 -0.136,0.956 -0.408,1.332c-0.264,0.368 -0.632,0.652 -1.104,0.852c-0.472,0.2 -1.016,0.3 -1.632,0.3c-0.344,0 -0.676,-0.044 -0.996,-0.132c-0.32,-0.088 -0.608,-0.208 -0.864,-0.36l0.288,-0.528c-0.024,0.192 -0.036,0.384 -0.036,0.576c0,0.56 0.176,0.964 0.528,1.212c0.352,0.24 0.852,0.36 1.5,0.36c0.504,0 0.908,-0.044 1.212,-0.132c0.304,-0.088 0.56,-0.172 0.768,-0.252c0.208,-0.088 0.412,-0.132 0.612,-0.132c0.112,0 0.212,0.032 0.3,0.096c0.096,0.056 0.172,0.14 0.228,0.252c0.064,0.112 0.096,0.248 0.096,0.408c0,0.24 -0.12,0.472 -0.36,0.696c-0.24,0.216 -0.596,0.396 -1.068,0.54c-0.464,0.136 -1.036,0.204 -1.716,0.204zM334.107,179.672c0.568,0 1.024,-0.12 1.368,-0.36c0.344,-0.24 0.516,-0.536 0.516,-0.888c0,-0.28 -0.096,-0.508 -0.288,-0.684c-0.184,-0.184 -0.476,-0.276 -0.876,-0.276c-0.376,0 -0.716,0.072 -1.02,0.216c-0.296,0.136 -0.528,0.316 -0.696,0.54c-0.168,0.224 -0.252,0.468 -0.252,0.732c0,0.232 0.108,0.412 0.324,0.54c0.224,0.12 0.532,0.18 0.924,0.18zM340.226,176.036c0.256,0 0.428,0.104 0.516,0.312c0.096,0.208 0.144,0.516 0.144,0.924c0,0.096 -0.008,0.2 -0.024,0.312c-0.008,0.104 -0.024,0.2 -0.048,0.288l-0.024,-0.24c0.192,-0.52 0.488,-0.924 0.888,-1.212c0.4,-0.296 0.824,-0.444 1.272,-0.444c0.496,0 0.908,0.14 1.236,0.42c0.336,0.28 0.584,0.672 0.744,1.176c0.168,0.504 0.252,1.1 0.252,1.788c0,0.424 -0.02,0.844 -0.06,1.26c-0.032,0.408 -0.08,0.784 -0.144,1.128c-0.056,0.336 -0.12,0.612 -0.192,0.828c-0.096,0.272 -0.22,0.476 -0.372,0.612c-0.152,0.128 -0.332,0.192 -0.54,0.192c-0.208,0 -0.368,-0.076 -0.48,-0.228c-0.112,-0.152 -0.168,-0.356 -0.168,-0.612c0,-0.272 0.02,-0.6 0.06,-0.984c0.04,-0.392 0.076,-0.788 0.108,-1.188c0.04,-0.408 0.06,-0.776 0.06,-1.104c0,-1.12 -0.368,-1.68 -1.104,-1.68c-0.392,0 -0.72,0.176 -0.984,0.528c-0.264,0.344 -0.44,0.836 -0.528,1.476c-0.024,0.216 -0.036,0.484 -0.036,0.804c0,0.32 0,0.64 0,0.96c0.008,0.312 0,0.576 -0.024,0.792c-0.032,0.48 -0.124,0.824 -0.276,1.032c-0.144,0.208 -0.344,0.312 -0.6,0.312c-0.296,0 -0.52,-0.136 -0.672,-0.408c-0.152,-0.28 -0.228,-0.748 -0.228,-1.404c0,-0.336 0.008,-0.712 0.024,-1.128c0.016,-0.416 0.036,-0.832 0.06,-1.248c0.032,-0.424 0.068,-0.808 0.108,-1.152c0.08,-0.648 0.196,-1.16 0.348,-1.536c0.152,-0.384 0.38,-0.576 0.684,-0.576zM351.886,183.62c-0.272,0 -0.46,-0.104 -0.564,-0.312c-0.096,-0.216 -0.152,-0.556 -0.168,-1.02l0.12,0.06c-0.448,0.872 -1.296,1.308 -2.544,1.308c-0.568,0 -1.04,-0.1 -1.416,-0.3c-0.376,-0.208 -0.656,-0.48 -0.84,-0.816c-0.176,-0.344 -0.264,-0.716 -0.264,-1.116c0,-0.688 0.24,-1.232 0.72,-1.632c0.48,-0.408 1.116,-0.612 1.908,-0.612c0.52,0 0.972,0.076 1.356,0.228c0.384,0.152 0.712,0.364 0.984,0.636l-0.204,-0.024c-0.056,-0.808 -0.232,-1.384 -0.528,-1.728c-0.288,-0.352 -0.7,-0.528 -1.236,-0.528c-0.312,0 -0.6,0.048 -0.864,0.144c-0.264,0.096 -0.508,0.196 -0.732,0.3c-0.216,0.096 -0.42,0.144 -0.612,0.144c-0.192,0 -0.344,-0.064 -0.456,-0.192c-0.104,-0.128 -0.156,-0.292 -0.156,-0.492c0,-0.288 0.136,-0.56 0.408,-0.816c0.28,-0.256 0.648,-0.464 1.104,-0.624c0.456,-0.16 0.952,-0.24 1.488,-0.24c0.648,0 1.204,0.156 1.668,0.468c0.464,0.312 0.816,0.768 1.056,1.368c0.208,0.512 0.356,1.084 0.444,1.716c0.088,0.632 0.132,1.308 0.132,2.028c0,0.544 -0.028,0.964 -0.084,1.26c-0.056,0.296 -0.144,0.504 -0.264,0.624c-0.112,0.112 -0.264,0.168 -0.456,0.168zM349.234,182.276c0.264,0 0.532,-0.036 0.804,-0.108c0.272,-0.08 0.5,-0.196 0.684,-0.348c0.184,-0.152 0.276,-0.34 0.276,-0.564c0,-0.192 -0.08,-0.348 -0.24,-0.468c-0.152,-0.128 -0.356,-0.224 -0.612,-0.288c-0.248,-0.064 -0.516,-0.096 -0.804,-0.096c-0.488,0 -0.86,0.084 -1.116,0.252c-0.248,0.168 -0.372,0.392 -0.372,0.672c0,0.304 0.116,0.54 0.348,0.708c0.24,0.16 0.584,0.24 1.032,0.24zM109.76,190.276h-0.24c-0.024,-0.352 -0.016,-0.684 0.024,-0.996c0.04,-0.32 0.124,-0.576 0.252,-0.768c0.136,-0.2 0.328,-0.3 0.576,-0.3c0.224,0 0.388,0.072 0.492,0.216c0.104,0.144 0.156,0.344 0.156,0.6c0,0.504 -0.096,0.936 -0.288,1.296l-0.216,-0.024c0.432,-0.152 0.92,-0.228 1.464,-0.228c0.344,0 0.616,0.068 0.816,0.204c0.208,0.128 0.312,0.348 0.312,0.66c0,0.296 -0.12,0.52 -0.36,0.672c-0.24,0.152 -0.54,0.228 -0.9,0.228c-0.216,0 -0.448,-0.008 -0.696,-0.024c-0.24,-0.024 -0.476,-0.06 -0.708,-0.108l0.204,-0.252c0.072,0.304 0.14,0.652 0.204,1.044c0.072,0.384 0.136,0.784 0.192,1.2c0.056,0.416 0.1,0.82 0.132,1.212c0.032,0.392 0.048,0.744 0.048,1.056c0,0.512 -0.08,0.916 -0.24,1.212c-0.16,0.296 -0.396,0.444 -0.708,0.444c-0.248,0 -0.444,-0.076 -0.588,-0.228c-0.136,-0.152 -0.236,-0.344 -0.3,-0.576c-0.056,-0.24 -0.092,-0.488 -0.108,-0.744c-0.008,-0.256 -0.012,-0.488 -0.012,-0.696c0,-0.352 0.016,-0.748 0.048,-1.188c0.032,-0.448 0.076,-0.908 0.132,-1.38c0.064,-0.472 0.136,-0.928 0.216,-1.368l0.24,0.204c-0.408,0.208 -0.912,0.312 -1.512,0.312c-0.368,0 -0.652,-0.068 -0.852,-0.204c-0.2,-0.136 -0.3,-0.348 -0.3,-0.636c0,-0.312 0.112,-0.552 0.336,-0.72c0.224,-0.176 0.524,-0.264 0.9,-0.264c0.248,0 0.48,0.016 0.696,0.048c0.224,0.024 0.42,0.056 0.588,0.096zM115.13956,188.296c0.32,0 0.548,0.088 0.684,0.264c0.144,0.176 0.216,0.38 0.216,0.612c0,0.288 -0.088,0.512 -0.264,0.672c-0.168,0.152 -0.408,0.228 -0.72,0.228c-0.304,0 -0.532,-0.084 -0.684,-0.252c-0.152,-0.176 -0.228,-0.38 -0.228,-0.612c0,-0.304 0.092,-0.532 0.276,-0.684c0.184,-0.152 0.424,-0.228 0.72,-0.228zM115.21156,190.972c0.256,0 0.456,0.24 0.6,0.72c0.152,0.48 0.228,1.244 0.228,2.292c0,1.288 -0.092,2.216 -0.276,2.784c-0.184,0.568 -0.464,0.852 -0.84,0.852c-0.288,0 -0.5,-0.208 -0.636,-0.624c-0.136,-0.424 -0.204,-1.16 -0.204,-2.208c0,-1.288 0.104,-2.244 0.312,-2.868c0.216,-0.632 0.488,-0.948 0.816,-0.948zM119.7494,197.668c-0.784,0 -1.396,-0.292 -1.836,-0.876c-0.44,-0.592 -0.66,-1.492 -0.66,-2.7c0,-1.2 0.216,-2.076 0.648,-2.628c0.44,-0.56 1.068,-0.84 1.884,-0.84c0.464,0 0.868,0.096 1.212,0.288c0.352,0.192 0.664,0.464 0.936,0.816l-0.096,0.048c-0.072,-0.328 -0.144,-0.676 -0.216,-1.044c-0.072,-0.368 -0.132,-0.716 -0.18,-1.044c-0.04,-0.336 -0.06,-0.6 -0.06,-0.792c0,-0.272 0.044,-0.48 0.132,-0.624c0.088,-0.152 0.228,-0.228 0.42,-0.228c0.272,0 0.492,0.116 0.66,0.348c0.168,0.224 0.308,0.572 0.42,1.044c0.104,0.424 0.196,0.928 0.276,1.512c0.08,0.576 0.144,1.18 0.192,1.812c0.056,0.624 0.084,1.224 0.084,1.8c0,0.8 -0.044,1.424 -0.132,1.872c-0.08,0.44 -0.196,0.748 -0.348,0.924c-0.144,0.176 -0.316,0.264 -0.516,0.264c-0.248,0 -0.416,-0.124 -0.504,-0.372c-0.088,-0.248 -0.124,-0.652 -0.108,-1.212h0.18c-0.216,0.496 -0.532,0.892 -0.948,1.188c-0.408,0.296 -0.888,0.444 -1.44,0.444zM120.3854,196.18c0.288,0 0.552,-0.072 0.792,-0.216c0.248,-0.152 0.444,-0.384 0.588,-0.696c0.152,-0.312 0.228,-0.708 0.228,-1.188c0,-0.616 -0.14,-1.116 -0.42,-1.5c-0.28,-0.392 -0.684,-0.588 -1.212,-0.588c-0.416,0 -0.756,0.172 -1.02,0.516c-0.256,0.344 -0.384,0.864 -0.384,1.56c0,0.616 0.128,1.124 0.384,1.524c0.264,0.392 0.612,0.588 1.044,0.588zM130.2729,197.62c-0.272,0 -0.46,-0.104 -0.564,-0.312c-0.096,-0.216 -0.152,-0.556 -0.168,-1.02l0.12,0.06c-0.448,0.872 -1.296,1.308 -2.544,1.308c-0.568,0 -1.04,-0.1 -1.416,-0.3c-0.376,-0.208 -0.656,-0.48 -0.84,-0.816c-0.176,-0.344 -0.264,-0.716 -0.264,-1.116c0,-0.688 0.24,-1.232 0.72,-1.632c0.48,-0.408 1.116,-0.612 1.908,-0.612c0.52,0 0.972,0.076 1.356,0.228c0.384,0.152 0.712,0.364 0.984,0.636l-0.204,-0.024c-0.056,-0.808 -0.232,-1.384 -0.528,-1.728c-0.288,-0.352 -0.7,-0.528 -1.236,-0.528c-0.312,0 -0.6,0.048 -0.864,0.144c-0.264,0.096 -0.508,0.196 -0.732,0.3c-0.216,0.096 -0.42,0.144 -0.612,0.144c-0.192,0 -0.344,-0.064 -0.456,-0.192c-0.104,-0.128 -0.156,-0.292 -0.156,-0.492c0,-0.288 0.136,-0.56 0.408,-0.816c0.28,-0.256 0.648,-0.464 1.104,-0.624c0.456,-0.16 0.952,-0.24 1.488,-0.24c0.648,0 1.204,0.156 1.668,0.468c0.464,0.312 0.816,0.768 1.056,1.368c0.208,0.512 0.356,1.084 0.444,1.716c0.088,0.632 0.132,1.308 0.132,2.028c0,0.544 -0.028,0.964 -0.084,1.26c-0.056,0.296 -0.144,0.504 -0.264,0.624c-0.112,0.112 -0.264,0.168 -0.456,0.168zM127.6209,196.276c0.264,0 0.532,-0.036 0.804,-0.108c0.272,-0.08 0.5,-0.196 0.684,-0.348c0.184,-0.152 0.276,-0.34 0.276,-0.564c0,-0.192 -0.08,-0.348 -0.24,-0.468c-0.152,-0.128 -0.356,-0.224 -0.612,-0.288c-0.248,-0.064 -0.516,-0.096 -0.804,-0.096c-0.488,0 -0.86,0.084 -1.116,0.252c-0.248,0.168 -0.372,0.392 -0.372,0.672c0,0.304 0.116,0.54 0.348,0.708c0.24,0.16 0.584,0.24 1.032,0.24zM133.3566,197.62c-0.152,0 -0.276,-0.044 -0.372,-0.132c-0.096,-0.096 -0.164,-0.232 -0.204,-0.408c-0.064,-0.296 -0.12,-0.724 -0.168,-1.284c-0.048,-0.56 -0.072,-1.18 -0.072,-1.86c0,-0.84 0.028,-1.648 0.084,-2.424c0.064,-0.776 0.144,-1.412 0.24,-1.908c0.104,-0.536 0.232,-0.928 0.384,-1.176c0.152,-0.256 0.352,-0.384 0.6,-0.384c0.224,0 0.396,0.104 0.516,0.312c0.12,0.2 0.18,0.548 0.18,1.044c0,0.496 -0.02,1.028 -0.06,1.596c-0.032,0.568 -0.088,1.176 -0.168,1.824h0.048c0.52,-0.704 1.004,-1.268 1.452,-1.692c0.456,-0.424 0.872,-0.732 1.248,-0.924c0.384,-0.192 0.724,-0.288 1.02,-0.288c0.232,0 0.404,0.072 0.516,0.216c0.112,0.144 0.168,0.32 0.168,0.528c0,0.408 -0.328,0.864 -0.984,1.368c-0.648,0.504 -1.584,1.02 -2.808,1.548l0.012,-0.192c0.76,0.392 1.412,0.804 1.956,1.236c0.552,0.424 0.972,0.828 1.26,1.212c0.296,0.376 0.444,0.692 0.444,0.948c0,0.208 -0.068,0.38 -0.204,0.516c-0.128,0.128 -0.316,0.192 -0.564,0.192c-0.312,0 -0.66,-0.116 -1.044,-0.348c-0.376,-0.24 -0.768,-0.596 -1.176,-1.068c-0.408,-0.472 -0.816,-1.064 -1.224,-1.776h-0.048c-0.008,0.504 -0.04,0.996 -0.096,1.476c-0.048,0.472 -0.112,0.86 -0.192,1.164c-0.056,0.208 -0.144,0.376 -0.264,0.504c-0.112,0.12 -0.272,0.18 -0.48,0.18zM147.3823,197.62c-0.272,0 -0.46,-0.104 -0.564,-0.312c-0.096,-0.216 -0.152,-0.556 -0.168,-1.02l0.12,0.06c-0.448,0.872 -1.296,1.308 -2.544,1.308c-0.568,0 -1.04,-0.1 -1.416,-0.3c-0.376,-0.208 -0.656,-0.48 -0.84,-0.816c-0.176,-0.344 -0.264,-0.716 -0.264,-1.116c0,-0.688 0.24,-1.232 0.72,-1.632c0.48,-0.408 1.116,-0.612 1.908,-0.612c0.52,0 0.972,0.076 1.356,0.228c0.384,0.152 0.712,0.364 0.984,0.636l-0.204,-0.024c-0.056,-0.808 -0.232,-1.384 -0.528,-1.728c-0.288,-0.352 -0.7,-0.528 -1.236,-0.528c-0.312,0 -0.6,0.048 -0.864,0.144c-0.264,0.096 -0.508,0.196 -0.732,0.3c-0.216,0.096 -0.42,0.144 -0.612,0.144c-0.192,0 -0.344,-0.064 -0.456,-0.192c-0.104,-0.128 -0.156,-0.292 -0.156,-0.492c0,-0.288 0.136,-0.56 0.408,-0.816c0.28,-0.256 0.648,-0.464 1.104,-0.624c0.456,-0.16 0.952,-0.24 1.488,-0.24c0.648,0 1.204,0.156 1.668,0.468c0.464,0.312 0.816,0.768 1.056,1.368c0.208,0.512 0.356,1.084 0.444,1.716c0.088,0.632 0.1319,1.308 0.1319,2.028c0,0.544 -0.0279,0.964 -0.0839,1.26c-0.056,0.296 -0.144,0.504 -0.264,0.624c-0.112,0.112 -0.264,0.168 -0.456,0.168zM144.7303,196.276c0.264,0 0.532,-0.036 0.804,-0.108c0.272,-0.08 0.5,-0.196 0.684,-0.348c0.184,-0.152 0.276,-0.34 0.276,-0.564c0,-0.192 -0.08,-0.348 -0.24,-0.468c-0.152,-0.128 -0.356,-0.224 -0.612,-0.288c-0.248,-0.064 -0.516,-0.096 -0.804,-0.096c-0.488,0 -0.86,0.084 -1.116,0.252c-0.248,0.168 -0.372,0.392 -0.372,0.672c0,0.304 0.116,0.54 0.348,0.708c0.24,0.16 0.584,0.24 1.032,0.24zM151.894,197.668c-0.784,0 -1.396,-0.292 -1.836,-0.876c-0.44,-0.592 -0.66,-1.492 -0.66,-2.7c0,-1.2 0.216,-2.076 0.648,-2.628c0.44,-0.56 1.068,-0.84 1.884,-0.84c0.464,0 0.868,0.096 1.212,0.288c0.352,0.192 0.664,0.464 0.936,0.816l-0.096,0.048c-0.072,-0.328 -0.144,-0.676 -0.216,-1.044c-0.072,-0.368 -0.132,-0.716 -0.18,-1.044c-0.04,-0.336 -0.06,-0.6 -0.06,-0.792c0,-0.272 0.044,-0.48 0.132,-0.624c0.088,-0.152 0.228,-0.228 0.42,-0.228c0.272,0 0.492,0.116 0.66,0.348c0.168,0.224 0.308,0.572 0.42,1.044c0.104,0.424 0.196,0.928 0.276,1.512c0.08,0.576 0.144,1.18 0.192,1.812c0.056,0.624 0.084,1.224 0.084,1.8c0,0.8 -0.044,1.424 -0.132,1.872c-0.08,0.44 -0.196,0.748 -0.348,0.924c-0.144,0.176 -0.316,0.264 -0.516,0.264c-0.248,0 -0.416,-0.124 -0.504,-0.372c-0.088,-0.248 -0.124,-0.652 -0.108,-1.212h0.18c-0.216,0.496 -0.532,0.892 -0.948,1.188c-0.408,0.296 -0.888,0.444 -1.44,0.444zM152.53,196.18c0.288,0 0.552,-0.072 0.792,-0.216c0.248,-0.152 0.444,-0.384 0.588,-0.696c0.152,-0.312 0.228,-0.708 0.228,-1.188c0,-0.616 -0.14,-1.116 -0.42,-1.5c-0.28,-0.392 -0.684,-0.588 -1.212,-0.588c-0.416,0 -0.756,0.172 -1.02,0.516c-0.256,0.344 -0.384,0.864 -0.384,1.56c0,0.616 0.128,1.124 0.384,1.524c0.264,0.392 0.612,0.588 1.044,0.588zM162.4174,197.62c-0.272,0 -0.46,-0.104 -0.564,-0.312c-0.096,-0.216 -0.152,-0.556 -0.168,-1.02l0.12,0.06c-0.448,0.872 -1.296,1.308 -2.544,1.308c-0.568,0 -1.04,-0.1 -1.416,-0.3c-0.376,-0.208 -0.656,-0.48 -0.84,-0.816c-0.176,-0.344 -0.264,-0.716 -0.264,-1.116c0,-0.688 0.24,-1.232 0.72,-1.632c0.48,-0.408 1.116,-0.612 1.908,-0.612c0.52,0 0.972,0.076 1.356,0.228c0.384,0.152 0.712,0.364 0.984,0.636l-0.204,-0.024c-0.056,-0.808 -0.232,-1.384 -0.528,-1.728c-0.288,-0.352 -0.7,-0.528 -1.236,-0.528c-0.312,0 -0.6,0.048 -0.864,0.144c-0.264,0.096 -0.508,0.196 -0.732,0.3c-0.216,0.096 -0.42,0.144 -0.612,0.144c-0.192,0 -0.344,-0.064 -0.456,-0.192c-0.104,-0.128 -0.156,-0.292 -0.156,-0.492c0,-0.288 0.136,-0.56 0.408,-0.816c0.28,-0.256 0.648,-0.464 1.104,-0.624c0.456,-0.16 0.952,-0.24 1.488,-0.24c0.648,0 1.204,0.156 1.668,0.468c0.464,0.312 0.816,0.768 1.056,1.368c0.208,0.512 0.356,1.084 0.444,1.716c0.088,0.632 0.132,1.308 0.132,2.028c0,0.544 -0.028,0.964 -0.084,1.26c-0.056,0.296 -0.144,0.504 -0.264,0.624c-0.112,0.112 -0.264,0.168 -0.456,0.168zM159.7654,196.276c0.264,0 0.532,-0.036 0.804,-0.108c0.272,-0.08 0.5,-0.196 0.684,-0.348c0.184,-0.152 0.276,-0.34 0.276,-0.564c0,-0.192 -0.08,-0.348 -0.24,-0.468c-0.152,-0.128 -0.356,-0.224 -0.612,-0.288c-0.248,-0.064 -0.516,-0.096 -0.804,-0.096c-0.488,0 -0.86,0.084 -1.116,0.252c-0.248,0.168 -0.372,0.392 -0.372,0.672c0,0.304 0.116,0.54 0.348,0.708c0.24,0.16 0.584,0.24 1.032,0.24zM169.1155,190.276h-0.24c-0.024,-0.352 -0.016,-0.684 0.024,-0.996c0.04,-0.32 0.124,-0.576 0.252,-0.768c0.136,-0.2 0.328,-0.3 0.576,-0.3c0.224,0 0.388,0.072 0.492,0.216c0.104,0.144 0.156,0.344 0.156,0.6c0,0.504 -0.096,0.936 -0.288,1.296l-0.216,-0.024c0.432,-0.152 0.92,-0.228 1.464,-0.228c0.344,0 0.616,0.068 0.816,0.204c0.208,0.128 0.312,0.348 0.312,0.66c0,0.296 -0.12,0.52 -0.36,0.672c-0.24,0.152 -0.54,0.228 -0.9,0.228c-0.216,0 -0.448,-0.008 -0.696,-0.024c-0.24,-0.024 -0.476,-0.06 -0.708,-0.108l0.204,-0.252c0.072,0.304 0.14,0.652 0.204,1.044c0.072,0.384 0.136,0.784 0.192,1.2c0.056,0.416 0.1,0.82 0.132,1.212c0.032,0.392 0.048,0.744 0.048,1.056c0,0.512 -0.08,0.916 -0.24,1.212c-0.16,0.296 -0.396,0.444 -0.708,0.444c-0.248,0 -0.444,-0.076 -0.588,-0.228c-0.136,-0.152 -0.236,-0.344 -0.3,-0.576c-0.056,-0.24 -0.092,-0.488 -0.108,-0.744c-0.008,-0.256 -0.012,-0.488 -0.012,-0.696c0,-0.352 0.016,-0.748 0.048,-1.188c0.032,-0.448 0.076,-0.908 0.132,-1.38c0.064,-0.472 0.136,-0.928 0.216,-1.368l0.24,0.204c-0.408,0.208 -0.912,0.312 -1.512,0.312c-0.368,0 -0.652,-0.068 -0.852,-0.204c-0.2,-0.136 -0.3,-0.348 -0.3,-0.636c0,-0.312 0.112,-0.552 0.336,-0.72c0.224,-0.176 0.524,-0.264 0.9,-0.264c0.248,0 0.48,0.016 0.696,0.048c0.224,0.024 0.42,0.056 0.588,0.096zM174.495,188.296c0.32,0 0.548,0.088 0.684,0.264c0.144,0.176 0.216,0.38 0.216,0.612c0,0.288 -0.088,0.512 -0.264,0.672c-0.168,0.152 -0.408,0.228 -0.72,0.228c-0.304,0 -0.532,-0.084 -0.684,-0.252c-0.152,-0.176 -0.228,-0.38 -0.228,-0.612c0,-0.304 0.092,-0.532 0.276,-0.684c0.184,-0.152 0.424,-0.228 0.72,-0.228zM174.567,190.972c0.256,0 0.456,0.24 0.6,0.72c0.152,0.48 0.228,1.244 0.228,2.292c0,1.288 -0.092,2.216 -0.276,2.784c-0.184,0.568 -0.464,0.852 -0.84,0.852c-0.288,0 -0.5,-0.208 -0.636,-0.624c-0.136,-0.424 -0.204,-1.16 -0.204,-2.208c0,-1.288 0.104,-2.244 0.312,-2.868c0.216,-0.632 0.488,-0.948 0.816,-0.948zM178.8889,190.276h-0.24c-0.024,-0.352 -0.016,-0.684 0.024,-0.996c0.04,-0.32 0.124,-0.576 0.252,-0.768c0.136,-0.2 0.328,-0.3 0.576,-0.3c0.224,0 0.388,0.072 0.492,0.216c0.104,0.144 0.156,0.344 0.156,0.6c0,0.504 -0.096,0.936 -0.288,1.296l-0.216,-0.024c0.432,-0.152 0.92,-0.228 1.464,-0.228c0.344,0 0.616,0.068 0.816,0.204c0.208,0.128 0.312,0.348 0.312,0.66c0,0.296 -0.12,0.52 -0.36,0.672c-0.24,0.152 -0.54,0.228 -0.9,0.228c-0.216,0 -0.448,-0.008 -0.696,-0.024c-0.24,-0.024 -0.476,-0.06 -0.708,-0.108l0.204,-0.252c0.072,0.304 0.14,0.652 0.204,1.044c0.072,0.384 0.136,0.784 0.192,1.2c0.056,0.416 0.1,0.82 0.132,1.212c0.032,0.392 0.048,0.744 0.048,1.056c0,0.512 -0.08,0.916 -0.24,1.212c-0.16,0.296 -0.396,0.444 -0.708,0.444c-0.248,0 -0.444,-0.076 -0.588,-0.228c-0.136,-0.152 -0.236,-0.344 -0.3,-0.576c-0.056,-0.24 -0.092,-0.488 -0.108,-0.744c-0.008,-0.256 -0.012,-0.488 -0.012,-0.696c0,-0.352 0.016,-0.748 0.048,-1.188c0.032,-0.448 0.076,-0.908 0.132,-1.38c0.064,-0.472 0.136,-0.928 0.216,-1.368l0.24,0.204c-0.408,0.208 -0.912,0.312 -1.512,0.312c-0.368,0 -0.652,-0.068 -0.852,-0.204c-0.2,-0.136 -0.3,-0.348 -0.3,-0.636c0,-0.312 0.112,-0.552 0.336,-0.72c0.224,-0.176 0.524,-0.264 0.9,-0.264c0.248,0 0.48,0.016 0.696,0.048c0.224,0.024 0.42,0.056 0.588,0.096zM184.2685,188.296c0.32,0 0.548,0.088 0.684,0.264c0.144,0.176 0.216,0.38 0.216,0.612c0,0.288 -0.088,0.512 -0.264,0.672c-0.168,0.152 -0.408,0.228 -0.72,0.228c-0.304,0 -0.532,-0.084 -0.684,-0.252c-0.152,-0.176 -0.228,-0.38 -0.228,-0.612c0,-0.304 0.092,-0.532 0.276,-0.684c0.184,-0.152 0.424,-0.228 0.72,-0.228zM184.3405,190.972c0.256,0 0.456,0.24 0.6,0.72c0.152,0.48 0.228,1.244 0.228,2.292c0,1.288 -0.092,2.216 -0.276,2.784c-0.184,0.568 -0.464,0.852 -0.84,0.852c-0.288,0 -0.5,-0.208 -0.636,-0.624c-0.136,-0.424 -0.204,-1.16 -0.204,-2.208c0,-1.288 0.104,-2.244 0.312,-2.868c0.216,-0.632 0.488,-0.948 0.816,-0.948zM187.4503,197.62c-0.152,0 -0.276,-0.044 -0.372,-0.132c-0.096,-0.096 -0.164,-0.232 -0.204,-0.408c-0.064,-0.296 -0.12,-0.724 -0.168,-1.284c-0.048,-0.56 -0.072,-1.18 -0.072,-1.86c0,-0.84 0.028,-1.648 0.084,-2.424c0.064,-0.776 0.144,-1.412 0.24,-1.908c0.104,-0.536 0.232,-0.928 0.384,-1.176c0.152,-0.256 0.352,-0.384 0.6,-0.384c0.224,0 0.396,0.104 0.516,0.312c0.12,0.2 0.18,0.548 0.18,1.044c0,0.496 -0.02,1.028 -0.06,1.596c-0.032,0.568 -0.088,1.176 -0.168,1.824h0.048c0.52,-0.704 1.004,-1.268 1.452,-1.692c0.456,-0.424 0.872,-0.732 1.248,-0.924c0.384,-0.192 0.724,-0.288 1.02,-0.288c0.232,0 0.404,0.072 0.516,0.216c0.112,0.144 0.168,0.32 0.168,0.528c0,0.408 -0.328,0.864 -0.984,1.368c-0.648,0.504 -1.584,1.02 -2.808,1.548l0.012,-0.192c0.76,0.392 1.412,0.804 1.956,1.236c0.552,0.424 0.972,0.828 1.26,1.212c0.296,0.376 0.444,0.692 0.444,0.948c0,0.208 -0.068,0.38 -0.204,0.516c-0.128,0.128 -0.316,0.192 -0.564,0.192c-0.312,0 -0.66,-0.116 -1.044,-0.348c-0.376,-0.24 -0.768,-0.596 -1.176,-1.068c-0.408,-0.472 -0.816,-1.064 -1.224,-1.776h-0.048c-0.008,0.504 -0.04,0.996 -0.096,1.476c-0.048,0.472 -0.112,0.86 -0.192,1.164c-0.056,0.208 -0.144,0.376 -0.264,0.504c-0.112,0.12 -0.272,0.18 -0.48,0.18zM199.268,189.988c0.712,0 1.224,0.104 1.536,0.312c0.312,0.208 0.468,0.476 0.468,0.804c0,0.192 -0.068,0.352 -0.204,0.48c-0.128,0.12 -0.312,0.18 -0.552,0.18c-0.248,0 -0.508,-0.036 -0.78,-0.108c-0.264,-0.072 -0.572,-0.108 -0.924,-0.108c-0.408,0 -0.712,0.08 -0.912,0.24c-0.2,0.16 -0.3,0.364 -0.3,0.612c0,0.232 0.088,0.416 0.264,0.552c0.184,0.128 0.532,0.224 1.044,0.288c0.568,0.064 1.036,0.168 1.404,0.312c0.376,0.136 0.656,0.344 0.84,0.624c0.184,0.272 0.276,0.648 0.276,1.128c0,0.76 -0.268,1.324 -0.804,1.692c-0.536,0.368 -1.276,0.552 -2.22,0.552c-0.6,0 -1.076,-0.048 -1.428,-0.144c-0.352,-0.096 -0.608,-0.232 -0.768,-0.408c-0.152,-0.176 -0.228,-0.384 -0.228,-0.624c0,-0.208 0.068,-0.368 0.204,-0.48c0.144,-0.12 0.312,-0.18 0.504,-0.18c0.184,0 0.38,0.024 0.588,0.072c0.208,0.04 0.428,0.084 0.66,0.132c0.232,0.048 0.472,0.072 0.72,0.072c0.8,0 1.2,-0.248 1.2,-0.744c0,-0.168 -0.04,-0.304 -0.12,-0.408c-0.08,-0.104 -0.224,-0.188 -0.432,-0.252c-0.208,-0.072 -0.512,-0.128 -0.912,-0.168c-0.48,-0.048 -0.896,-0.128 -1.248,-0.24c-0.352,-0.12 -0.624,-0.312 -0.816,-0.576c-0.192,-0.272 -0.288,-0.644 -0.288,-1.116c0,-0.744 0.28,-1.344 0.84,-1.8c0.56,-0.464 1.356,-0.696 2.388,-0.696zM208.042,197.428c-0.216,0 -0.384,-0.072 -0.504,-0.216c-0.112,-0.152 -0.188,-0.344 -0.228,-0.576c-0.04,-0.24 -0.06,-0.492 -0.06,-0.756l0.06,-0.048c-0.08,0.344 -0.236,0.64 -0.4678,0.888c-0.232,0.248 -0.5,0.44 -0.804,0.576c-0.304,0.128 -0.608,0.192 -0.912,0.192c-0.408,0 -0.78,-0.096 -1.116,-0.288c-0.336,-0.192 -0.596,-0.488 -0.78,-0.888c-0.184,-0.424 -0.328,-0.956 -0.432,-1.596c-0.104,-0.648 -0.156,-1.312 -0.156,-1.992c0,-0.368 0.016,-0.708 0.048,-1.02c0.032,-0.312 0.084,-0.568 0.156,-0.768c0.064,-0.208 0.16,-0.36 0.288,-0.456c0.128,-0.104 0.292,-0.156 0.492,-0.156c0.232,0 0.412,0.092 0.54,0.276c0.136,0.176 0.22,0.424 0.252,0.744c0.032,0.264 0.052,0.592 0.06,0.984c0.016,0.384 0.028,0.772 0.036,1.164c0.016,0.384 0.036,0.708 0.06,0.972c0.048,0.48 0.172,0.836 0.372,1.068c0.2,0.224 0.444,0.336 0.732,0.336c0.424,0 0.748,-0.16 0.972,-0.48c0.224,-0.32 0.336,-0.768 0.336,-1.344c0,-0.288 -0.016,-0.612 -0.048,-0.972c-0.032,-0.368 -0.068,-0.724 -0.108,-1.068c-0.032,-0.344 -0.048,-0.628 -0.048,-0.852c0,-0.376 0.064,-0.644 0.192,-0.804c0.1278,-0.168 0.3038,-0.252 0.5278,-0.252c0.192,0 0.352,0.052 0.48,0.156c0.136,0.104 0.244,0.248 0.324,0.432c0.112,0.24 0.208,0.568 0.288,0.984c0.08,0.416 0.144,0.888 0.192,1.416c0.048,0.528 0.072,1.084 0.072,1.668c0,0.896 -0.06,1.568 -0.18,2.016c-0.12,0.44 -0.332,0.66 -0.636,0.66zM212.562,197.668c-0.784,0 -1.396,-0.292 -1.836,-0.876c-0.44,-0.592 -0.66,-1.492 -0.66,-2.7c0,-1.2 0.216,-2.076 0.648,-2.628c0.44,-0.56 1.068,-0.84 1.884,-0.84c0.464,0 0.868,0.096 1.212,0.288c0.352,0.192 0.664,0.464 0.936,0.816l-0.096,0.048c-0.072,-0.328 -0.144,-0.676 -0.216,-1.044c-0.072,-0.368 -0.132,-0.716 -0.18,-1.044c-0.04,-0.336 -0.06,-0.6 -0.06,-0.792c0,-0.272 0.044,-0.48 0.132,-0.624c0.088,-0.152 0.228,-0.228 0.42,-0.228c0.272,0 0.492,0.116 0.66,0.348c0.168,0.224 0.308,0.572 0.42,1.044c0.104,0.424 0.196,0.928 0.276,1.512c0.08,0.576 0.144,1.18 0.192,1.812c0.056,0.624 0.084,1.224 0.084,1.8c0,0.8 -0.044,1.424 -0.132,1.872c-0.08,0.44 -0.196,0.748 -0.348,0.924c-0.144,0.176 -0.316,0.264 -0.516,0.264c-0.248,0 -0.416,-0.124 -0.504,-0.372c-0.088,-0.248 -0.124,-0.652 -0.108,-1.212h0.18c-0.216,0.496 -0.532,0.892 -0.948,1.188c-0.408,0.296 -0.888,0.444 -1.44,0.444zM213.198,196.18c0.288,0 0.552,-0.072 0.792,-0.216c0.248,-0.152 0.444,-0.384 0.588,-0.696c0.152,-0.312 0.228,-0.708 0.228,-1.188c0,-0.616 -0.14,-1.116 -0.42,-1.5c-0.28,-0.392 -0.684,-0.588 -1.212,-0.588c-0.416,0 -0.756,0.172 -1.02,0.516c-0.256,0.344 -0.384,0.864 -0.384,1.56c0,0.616 0.128,1.124 0.384,1.524c0.264,0.392 0.612,0.588 1.044,0.588zM223.241,197.428c-0.216,0 -0.384,-0.072 -0.504,-0.216c-0.112,-0.152 -0.188,-0.344 -0.228,-0.576c-0.04,-0.24 -0.06,-0.492 -0.06,-0.756l0.06,-0.048c-0.08,0.344 -0.236,0.64 -0.468,0.888c-0.232,0.248 -0.5,0.44 -0.804,0.576c-0.304,0.128 -0.608,0.192 -0.912,0.192c-0.408,0 -0.78,-0.096 -1.116,-0.288c-0.336,-0.192 -0.596,-0.488 -0.78,-0.888c-0.184,-0.424 -0.328,-0.956 -0.432,-1.596c-0.104,-0.648 -0.156,-1.312 -0.156,-1.992c0,-0.368 0.016,-0.708 0.048,-1.02c0.032,-0.312 0.084,-0.568 0.156,-0.768c0.064,-0.208 0.16,-0.36 0.288,-0.456c0.128,-0.104 0.292,-0.156 0.492,-0.156c0.232,0 0.412,0.092 0.54,0.276c0.136,0.176 0.22,0.424 0.252,0.744c0.032,0.264 0.052,0.592 0.06,0.984c0.016,0.384 0.028,0.772 0.036,1.164c0.016,0.384 0.036,0.708 0.06,0.972c0.048,0.48 0.172,0.836 0.372,1.068c0.2,0.224 0.444,0.336 0.732,0.336c0.424,0 0.748,-0.16 0.972,-0.48c0.224,-0.32 0.336,-0.768 0.336,-1.344c0,-0.288 -0.016,-0.612 -0.048,-0.972c-0.032,-0.368 -0.068,-0.724 -0.108,-1.068c-0.032,-0.344 -0.048,-0.628 -0.048,-0.852c0,-0.376 0.064,-0.644 0.192,-0.804c0.128,-0.168 0.304,-0.252 0.528,-0.252c0.192,0 0.352,0.052 0.48,0.156c0.136,0.104 0.244,0.248 0.324,0.432c0.112,0.24 0.208,0.568 0.288,0.984c0.08,0.416 0.144,0.888 0.192,1.416c0.048,0.528 0.072,1.084 0.072,1.668c0,0.896 -0.06,1.568 -0.18,2.016c-0.12,0.44 -0.332,0.66 -0.636,0.66zM227.545,190.276h-0.24c-0.024,-0.352 -0.016,-0.684 0.024,-0.996c0.04,-0.32 0.124,-0.576 0.252,-0.768c0.136,-0.2 0.328,-0.3 0.576,-0.3c0.224,0 0.388,0.072 0.492,0.216c0.104,0.144 0.156,0.344 0.156,0.6c0,0.504 -0.096,0.936 -0.288,1.296l-0.216,-0.024c0.432,-0.152 0.92,-0.228 1.464,-0.228c0.344,0 0.616,0.068 0.816,0.204c0.208,0.128 0.312,0.348 0.312,0.66c0,0.296 -0.12,0.52 -0.36,0.672c-0.24,0.152 -0.54,0.228 -0.9,0.228c-0.216,0 -0.448,-0.008 -0.696,-0.024c-0.24,-0.024 -0.476,-0.06 -0.708,-0.108l0.204,-0.252c0.072,0.304 0.14,0.652 0.204,1.044c0.072,0.384 0.136,0.784 0.192,1.2c0.056,0.416 0.1,0.82 0.132,1.212c0.032,0.392 0.048,0.744 0.048,1.056c0,0.512 -0.08,0.916 -0.24,1.212c-0.16,0.296 -0.396,0.444 -0.708,0.444c-0.248,0 -0.444,-0.076 -0.588,-0.228c-0.136,-0.152 -0.236,-0.344 -0.3,-0.576c-0.056,-0.24 -0.092,-0.488 -0.108,-0.744c-0.008,-0.256 -0.012,-0.488 -0.012,-0.696c0,-0.352 0.016,-0.748 0.048,-1.188c0.032,-0.448 0.076,-0.908 0.132,-1.38c0.064,-0.472 0.136,-0.928 0.216,-1.368l0.24,0.204c-0.408,0.208 -0.912,0.312 -1.512,0.312c-0.368,0 -0.652,-0.068 -0.852,-0.204c-0.2,-0.136 -0.3,-0.348 -0.3,-0.636c0,-0.312 0.112,-0.552 0.336,-0.72c0.224,-0.176 0.524,-0.264 0.9,-0.264c0.248,0 0.48,0.016 0.696,0.048c0.224,0.024 0.42,0.056 0.588,0.096zM235.459,199.888c-0.432,0 -0.648,-0.232 -0.648,-0.696c0,-0.256 0.088,-0.56 0.264,-0.912c0.176,-0.352 0.432,-0.732 0.768,-1.14c0.344,-0.408 0.76,-0.824 1.248,-1.248l-0.012,0.096c-1.064,-1.056 -1.872,-1.984 -2.424,-2.784c-0.544,-0.8 -0.816,-1.492 -0.816,-2.076c0,-0.288 0.072,-0.512 0.216,-0.672c0.152,-0.16 0.352,-0.24 0.6,-0.24c0.528,0 1.052,0.384 1.572,1.152c0.52,0.768 1.012,1.936 1.476,3.504h0.048c0.304,-1.648 0.628,-2.856 0.972,-3.624c0.344,-0.776 0.752,-1.164 1.224,-1.164c0.224,0 0.388,0.08 0.492,0.24c0.112,0.152 0.168,0.368 0.168,0.648c0,0.232 -0.052,0.54 -0.156,0.924c-0.096,0.376 -0.236,0.804 -0.42,1.284c-0.176,0.472 -0.384,0.964 -0.624,1.476c-0.232,0.512 -0.488,1.016 -0.768,1.512c-0.712,1.288 -1.32,2.228 -1.824,2.82c-0.504,0.6 -0.956,0.9 -1.356,0.9zM246.886,197.62c-0.272,0 -0.46,-0.104 -0.564,-0.312c-0.096,-0.216 -0.152,-0.556 -0.168,-1.02l0.12,0.06c-0.448,0.872 -1.296,1.308 -2.544,1.308c-0.568,0 -1.04,-0.1 -1.416,-0.3c-0.376,-0.208 -0.656,-0.48 -0.84,-0.816c-0.176,-0.344 -0.264,-0.716 -0.264,-1.116c0,-0.688 0.24,-1.232 0.72,-1.632c0.48,-0.408 1.116,-0.612 1.908,-0.612c0.52,0 0.972,0.076 1.356,0.228c0.384,0.152 0.712,0.364 0.984,0.636l-0.204,-0.024c-0.056,-0.808 -0.232,-1.384 -0.528,-1.728c-0.288,-0.352 -0.7,-0.528 -1.236,-0.528c-0.312,0 -0.6,0.048 -0.864,0.144c-0.264,0.096 -0.508,0.196 -0.732,0.3c-0.216,0.096 -0.42,0.144 -0.612,0.144c-0.192,0 -0.344,-0.064 -0.456,-0.192c-0.104,-0.128 -0.156,-0.292 -0.156,-0.492c0,-0.288 0.136,-0.56 0.408,-0.816c0.28,-0.256 0.648,-0.464 1.104,-0.624c0.456,-0.16 0.952,-0.24 1.488,-0.24c0.648,0 1.204,0.156 1.668,0.468c0.464,0.312 0.816,0.768 1.056,1.368c0.208,0.512 0.356,1.084 0.444,1.716c0.088,0.632 0.132,1.308 0.132,2.028c0,0.544 -0.028,0.964 -0.084,1.26c-0.056,0.296 -0.144,0.504 -0.264,0.624c-0.112,0.112 -0.264,0.168 -0.456,0.168zM244.234,196.276c0.264,0 0.532,-0.036 0.804,-0.108c0.272,-0.08 0.5,-0.196 0.684,-0.348c0.184,-0.152 0.276,-0.34 0.276,-0.564c0,-0.192 -0.08,-0.348 -0.24,-0.468c-0.152,-0.128 -0.356,-0.224 -0.612,-0.288c-0.248,-0.064 -0.516,-0.096 -0.804,-0.096c-0.488,0 -0.86,0.084 -1.116,0.252c-0.248,0.168 -0.372,0.392 -0.372,0.672c0,0.304 0.116,0.54 0.348,0.708c0.24,0.16 0.584,0.24 1.032,0.24zM250.378,190.036c0.256,0 0.428,0.104 0.516,0.312c0.096,0.208 0.144,0.516 0.144,0.924c0,0.096 -0.008,0.2 -0.024,0.312c-0.008,0.104 -0.024,0.2 -0.048,0.288l-0.024,-0.24c0.192,-0.52 0.488,-0.924 0.888,-1.212c0.4,-0.296 0.824,-0.444 1.272,-0.444c0.496,0 0.908,0.14 1.236,0.42c0.336,0.28 0.584,0.672 0.744,1.176c0.168,0.504 0.252,1.1 0.252,1.788c0,0.424 -0.02,0.844 -0.06,1.26c-0.032,0.408 -0.08,0.784 -0.144,1.128c-0.056,0.336 -0.12,0.612 -0.192,0.828c-0.096,0.272 -0.22,0.476 -0.372,0.612c-0.152,0.128 -0.332,0.192 -0.54,0.192c-0.208,0 -0.368,-0.076 -0.48,-0.228c-0.112,-0.152 -0.168,-0.356 -0.168,-0.612c0,-0.272 0.02,-0.6 0.06,-0.984c0.04,-0.392 0.076,-0.788 0.108,-1.188c0.04,-0.408 0.06,-0.776 0.06,-1.104c0,-1.12 -0.368,-1.68 -1.104,-1.68c-0.392,0 -0.72,0.176 -0.984,0.528c-0.264,0.344 -0.44,0.836 -0.528,1.476c-0.024,0.216 -0.036,0.484 -0.036,0.804c0,0.32 0,0.64 0,0.96c0.008,0.312 0,0.576 -0.024,0.792c-0.032,0.48 -0.124,0.824 -0.276,1.032c-0.144,0.208 -0.344,0.312 -0.6,0.312c-0.296,0 -0.52,-0.136 -0.672,-0.408c-0.152,-0.28 -0.228,-0.748 -0.228,-1.404c0,-0.336 0.008,-0.712 0.024,-1.128c0.016,-0.416 0.036,-0.832 0.06,-1.248c0.032,-0.424 0.068,-0.808 0.108,-1.152c0.08,-0.648 0.196,-1.16 0.348,-1.536c0.152,-0.384 0.38,-0.576 0.684,-0.576zM259.087,197.308c-0.752,0 -1.364,-0.288 -1.836,-0.864c-0.472,-0.584 -0.708,-1.468 -0.708,-2.652c0,-1.264 0.228,-2.188 0.684,-2.772c0.456,-0.584 1.056,-0.876 1.8,-0.876c0.44,0 0.828,0.112 1.164,0.336c0.336,0.224 0.624,0.54 0.864,0.948l-0.096,0.168c-0.024,-0.112 -0.044,-0.232 -0.06,-0.36c-0.016,-0.128 -0.024,-0.224 -0.024,-0.288c0,-0.328 0.052,-0.58 0.156,-0.756c0.112,-0.184 0.284,-0.276 0.516,-0.276c0.256,0 0.456,0.104 0.6,0.312c0.152,0.208 0.268,0.504 0.348,0.888c0.104,0.392 0.192,0.892 0.264,1.5c0.072,0.6 0.108,1.208 0.108,1.824c0,0.768 -0.028,1.412 -0.084,1.932c-0.056,0.52 -0.148,0.952 -0.276,1.296c-0.128,0.344 -0.296,0.644 -0.504,0.9c-0.344,0.416 -0.788,0.732 -1.332,0.948c-0.536,0.224 -1.156,0.336 -1.86,0.336c-0.504,0 -0.908,-0.048 -1.212,-0.144c-0.304,-0.088 -0.524,-0.212 -0.66,-0.372c-0.128,-0.152 -0.192,-0.324 -0.192,-0.516c0,-0.2 0.056,-0.368 0.168,-0.504c0.112,-0.128 0.28,-0.192 0.504,-0.192c0.2,0 0.432,0.032 0.696,0.096c0.272,0.064 0.592,0.096 0.96,0.096c0.776,0 1.324,-0.184 1.644,-0.552c0.328,-0.36 0.492,-0.88 0.492,-1.56c0,-0.184 -0.012,-0.4 -0.036,-0.648l0.168,0.06c-0.2,0.512 -0.496,0.924 -0.888,1.236c-0.392,0.304 -0.848,0.456 -1.368,0.456zM259.543,195.832c0.256,0 0.512,-0.068 0.768,-0.204c0.256,-0.136 0.468,-0.36 0.636,-0.672c0.168,-0.312 0.252,-0.732 0.252,-1.26c0,-0.632 -0.148,-1.148 -0.444,-1.548c-0.296,-0.4 -0.712,-0.6 -1.248,-0.6c-0.464,0 -0.804,0.176 -1.02,0.528c-0.216,0.352 -0.324,0.884 -0.324,1.596c0,0.68 0.108,1.212 0.324,1.596c0.216,0.376 0.568,0.564 1.056,0.564zM268.76,190.276h-0.24c-0.024,-0.352 -0.016,-0.684 0.024,-0.996c0.04,-0.32 0.124,-0.576 0.252,-0.768c0.136,-0.2 0.328,-0.3 0.576,-0.3c0.224,0 0.388,0.072 0.492,0.216c0.104,0.144 0.156,0.344 0.156,0.6c0,0.504 -0.096,0.936 -0.288,1.296l-0.216,-0.024c0.432,-0.152 0.92,-0.228 1.464,-0.228c0.344,0 0.616,0.068 0.816,0.204c0.208,0.128 0.312,0.348 0.312,0.66c0,0.296 -0.12,0.52 -0.36,0.672c-0.24,0.152 -0.54,0.228 -0.9,0.228c-0.216,0 -0.448,-0.008 -0.696,-0.024c-0.24,-0.024 -0.476,-0.06 -0.708,-0.108l0.204,-0.252c0.072,0.304 0.14,0.652 0.204,1.044c0.072,0.384 0.136,0.784 0.192,1.2c0.056,0.416 0.1,0.82 0.132,1.212c0.032,0.392 0.048,0.744 0.048,1.056c0,0.512 -0.08,0.916 -0.24,1.212c-0.16,0.296 -0.396,0.444 -0.708,0.444c-0.248,0 -0.444,-0.076 -0.588,-0.228c-0.136,-0.152 -0.236,-0.344 -0.3,-0.576c-0.056,-0.24 -0.092,-0.488 -0.108,-0.744c-0.008,-0.256 -0.012,-0.488 -0.012,-0.696c0,-0.352 0.016,-0.748 0.048,-1.188c0.032,-0.448 0.076,-0.908 0.132,-1.38c0.064,-0.472 0.136,-0.928 0.216,-1.368l0.24,0.204c-0.408,0.208 -0.912,0.312 -1.512,0.312c-0.368,0 -0.652,-0.068 -0.852,-0.204c-0.2,-0.136 -0.3,-0.348 -0.3,-0.636c0,-0.312 0.112,-0.552 0.336,-0.72c0.224,-0.176 0.524,-0.264 0.9,-0.264c0.248,0 0.48,0.016 0.696,0.048c0.224,0.024 0.42,0.056 0.588,0.096zM274.14,188.296c0.32,0 0.548,0.088 0.684,0.264c0.144,0.176 0.216,0.38 0.216,0.612c0,0.288 -0.088,0.512 -0.264,0.672c-0.168,0.152 -0.408,0.228 -0.72,0.228c-0.304,0 -0.532,-0.084 -0.684,-0.252c-0.152,-0.176 -0.228,-0.38 -0.228,-0.612c0,-0.304 0.092,-0.532 0.276,-0.684c0.184,-0.152 0.424,-0.228 0.72,-0.228zM274.212,190.972c0.256,0 0.456,0.24 0.6,0.72c0.152,0.48 0.228,1.244 0.228,2.292c0,1.288 -0.092,2.216 -0.276,2.784c-0.184,0.568 -0.464,0.852 -0.84,0.852c-0.288,0 -0.5,-0.208 -0.636,-0.624c-0.136,-0.424 -0.204,-1.16 -0.204,-2.208c0,-1.288 0.104,-2.244 0.312,-2.868c0.216,-0.632 0.488,-0.948 0.816,-0.948zM278.749,197.668c-0.784,0 -1.396,-0.292 -1.836,-0.876c-0.44,-0.592 -0.66,-1.492 -0.66,-2.7c0,-1.2 0.216,-2.076 0.648,-2.628c0.44,-0.56 1.068,-0.84 1.884,-0.84c0.464,0 0.868,0.096 1.212,0.288c0.352,0.192 0.664,0.464 0.936,0.816l-0.096,0.048c-0.072,-0.328 -0.144,-0.676 -0.216,-1.044c-0.072,-0.368 -0.132,-0.716 -0.18,-1.044c-0.04,-0.336 -0.06,-0.6 -0.06,-0.792c0,-0.272 0.044,-0.48 0.132,-0.624c0.088,-0.152 0.228,-0.228 0.42,-0.228c0.272,0 0.492,0.116 0.66,0.348c0.168,0.224 0.308,0.572 0.42,1.044c0.104,0.424 0.196,0.928 0.276,1.512c0.08,0.576 0.144,1.18 0.192,1.812c0.056,0.624 0.084,1.224 0.084,1.8c0,0.8 -0.044,1.424 -0.132,1.872c-0.08,0.44 -0.196,0.748 -0.348,0.924c-0.144,0.176 -0.316,0.264 -0.516,0.264c-0.248,0 -0.416,-0.124 -0.504,-0.372c-0.088,-0.248 -0.124,-0.652 -0.108,-1.212h0.18c-0.216,0.496 -0.532,0.892 -0.948,1.188c-0.408,0.296 -0.888,0.444 -1.44,0.444zM279.385,196.18c0.288,0 0.552,-0.072 0.792,-0.216c0.248,-0.152 0.444,-0.384 0.588,-0.696c0.152,-0.312 0.228,-0.708 0.228,-1.188c0,-0.616 -0.14,-1.116 -0.42,-1.5c-0.28,-0.392 -0.684,-0.588 -1.212,-0.588c-0.416,0 -0.756,0.172 -1.02,0.516c-0.256,0.344 -0.384,0.864 -0.384,1.56c0,0.616 0.128,1.124 0.384,1.524c0.264,0.392 0.612,0.588 1.044,0.588zM289.273,197.62c-0.272,0 -0.46,-0.104 -0.564,-0.312c-0.096,-0.216 -0.152,-0.556 -0.168,-1.02l0.12,0.06c-0.448,0.872 -1.296,1.308 -2.544,1.308c-0.568,0 -1.04,-0.1 -1.416,-0.3c-0.376,-0.208 -0.656,-0.48 -0.84,-0.816c-0.176,-0.344 -0.264,-0.716 -0.264,-1.116c0,-0.688 0.24,-1.232 0.72,-1.632c0.48,-0.408 1.116,-0.612 1.908,-0.612c0.52,0 0.972,0.076 1.356,0.228c0.384,0.152 0.712,0.364 0.984,0.636l-0.204,-0.024c-0.056,-0.808 -0.232,-1.384 -0.528,-1.728c-0.288,-0.352 -0.7,-0.528 -1.236,-0.528c-0.312,0 -0.6,0.048 -0.864,0.144c-0.264,0.096 -0.508,0.196 -0.732,0.3c-0.216,0.096 -0.42,0.144 -0.612,0.144c-0.192,0 -0.344,-0.064 -0.456,-0.192c-0.104,-0.128 -0.156,-0.292 -0.156,-0.492c0,-0.288 0.136,-0.56 0.408,-0.816c0.28,-0.256 0.648,-0.464 1.104,-0.624c0.456,-0.16 0.952,-0.24 1.488,-0.24c0.648,0 1.204,0.156 1.668,0.468c0.464,0.312 0.816,0.768 1.056,1.368c0.208,0.512 0.356,1.084 0.444,1.716c0.088,0.632 0.132,1.308 0.132,2.028c0,0.544 -0.028,0.964 -0.084,1.26c-0.056,0.296 -0.144,0.504 -0.264,0.624c-0.112,0.112 -0.264,0.168 -0.456,0.168zM286.621,196.276c0.264,0 0.532,-0.036 0.804,-0.108c0.272,-0.08 0.5,-0.196 0.684,-0.348c0.184,-0.152 0.276,-0.34 0.276,-0.564c0,-0.192 -0.08,-0.348 -0.24,-0.468c-0.152,-0.128 -0.356,-0.224 -0.612,-0.288c-0.248,-0.064 -0.516,-0.096 -0.804,-0.096c-0.488,0 -0.86,0.084 -1.116,0.252c-0.248,0.168 -0.372,0.392 -0.372,0.672c0,0.304 0.116,0.54 0.348,0.708c0.24,0.16 0.584,0.24 1.032,0.24zM292.357,197.62c-0.152,0 -0.276,-0.044 -0.372,-0.132c-0.096,-0.096 -0.164,-0.232 -0.204,-0.408c-0.064,-0.296 -0.12,-0.724 -0.168,-1.284c-0.048,-0.56 -0.072,-1.18 -0.072,-1.86c0,-0.84 0.028,-1.648 0.084,-2.424c0.064,-0.776 0.144,-1.412 0.24,-1.908c0.104,-0.536 0.232,-0.928 0.384,-1.176c0.152,-0.256 0.352,-0.384 0.6,-0.384c0.224,0 0.396,0.104 0.516,0.312c0.12,0.2 0.18,0.548 0.18,1.044c0,0.496 -0.02,1.028 -0.06,1.596c-0.032,0.568 -0.088,1.176 -0.168,1.824h0.048c0.52,-0.704 1.004,-1.268 1.452,-1.692c0.456,-0.424 0.872,-0.732 1.248,-0.924c0.384,-0.192 0.724,-0.288 1.02,-0.288c0.232,0 0.404,0.072 0.516,0.216c0.112,0.144 0.168,0.32 0.168,0.528c0,0.408 -0.328,0.864 -0.984,1.368c-0.648,0.504 -1.584,1.02 -2.808,1.548l0.012,-0.192c0.76,0.392 1.412,0.804 1.956,1.236c0.552,0.424 0.972,0.828 1.26,1.212c0.296,0.376 0.444,0.692 0.444,0.948c0,0.208 -0.068,0.38 -0.204,0.516c-0.128,0.128 -0.316,0.192 -0.564,0.192c-0.312,0 -0.66,-0.116 -1.044,-0.348c-0.376,-0.24 -0.768,-0.596 -1.176,-1.068c-0.408,-0.472 -0.816,-1.064 -1.224,-1.776h-0.048c-0.008,0.504 -0.04,0.996 -0.096,1.476c-0.048,0.472 -0.112,0.86 -0.192,1.164c-0.056,0.208 -0.144,0.376 -0.264,0.504c-0.112,0.12 -0.272,0.18 -0.48,0.18zM302.765,197.62c-0.176,0 -0.32,-0.06 -0.432,-0.18c-0.104,-0.12 -0.188,-0.292 -0.252,-0.516c-0.064,-0.328 -0.12,-0.756 -0.168,-1.284c-0.04,-0.536 -0.06,-1.108 -0.06,-1.716c0,-0.344 0.008,-0.732 0.024,-1.164c0.016,-0.432 0.036,-0.868 0.06,-1.308c0.032,-0.448 0.064,-0.864 0.096,-1.248c0.04,-0.384 0.08,-0.696 0.12,-0.936c0.064,-0.352 0.156,-0.628 0.276,-0.828c0.128,-0.208 0.328,-0.312 0.6,-0.312c0.28,0 0.484,0.108 0.612,0.324c0.128,0.208 0.192,0.468 0.192,0.78c0,0.352 -0.028,0.768 -0.084,1.248c-0.048,0.48 -0.124,0.968 -0.228,1.464l-0.24,0.288c0.088,-0.336 0.232,-0.644 0.432,-0.924c0.2,-0.28 0.452,-0.5 0.756,-0.66c0.304,-0.168 0.656,-0.252 1.056,-0.252c0.784,0 1.408,0.28 1.872,0.84c0.472,0.552 0.708,1.416 0.708,2.592c0,0.824 -0.124,1.512 -0.372,2.064c-0.24,0.552 -0.572,0.968 -0.996,1.248c-0.416,0.272 -0.892,0.408 -1.428,0.408c-0.504,0 -0.94,-0.148 -1.308,-0.444c-0.36,-0.296 -0.592,-0.724 -0.696,-1.284l0.168,0.132c-0.032,0.576 -0.112,1 -0.24,1.272c-0.12,0.264 -0.276,0.396 -0.468,0.396zM304.961,196.156c0.4,0 0.752,-0.18 1.056,-0.54c0.304,-0.36 0.456,-0.924 0.456,-1.692c0,-0.64 -0.12,-1.16 -0.36,-1.56c-0.232,-0.4 -0.624,-0.6 -1.176,-0.6c-0.448,0 -0.808,0.18 -1.08,0.54c-0.272,0.352 -0.408,0.888 -0.408,1.608c0,0.656 0.136,1.196 0.408,1.62c0.272,0.416 0.64,0.624 1.104,0.624zM312.678,197.596c-0.888,0 -1.596,-0.132 -2.124,-0.396c-0.528,-0.264 -0.908,-0.644 -1.14,-1.14c-0.232,-0.496 -0.348,-1.088 -0.348,-1.776c0,-0.872 0.16,-1.612 0.48,-2.22c0.328,-0.616 0.776,-1.088 1.344,-1.416c0.576,-0.328 1.228,-0.492 1.956,-0.492c0.856,0 1.484,0.2 1.884,0.6c0.4,0.392 0.6,0.908 0.6,1.548c0,0.512 -0.136,0.956 -0.408,1.332c-0.264,0.368 -0.632,0.652 -1.104,0.852c-0.472,0.2 -1.016,0.3 -1.632,0.3c-0.344,0 -0.676,-0.044 -0.996,-0.132c-0.32,-0.088 -0.608,-0.208 -0.864,-0.36l0.288,-0.528c-0.024,0.192 -0.036,0.384 -0.036,0.576c0,0.56 0.176,0.964 0.528,1.212c0.352,0.24 0.852,0.36 1.5,0.36c0.504,0 0.908,-0.044 1.212,-0.132c0.304,-0.088 0.56,-0.172 0.768,-0.252c0.208,-0.088 0.412,-0.132 0.612,-0.132c0.112,0 0.212,0.032 0.3,0.096c0.096,0.056 0.172,0.14 0.228,0.252c0.064,0.112 0.096,0.248 0.096,0.408c0,0.24 -0.12,0.472 -0.36,0.696c-0.24,0.216 -0.596,0.396 -1.068,0.54c-0.464,0.136 -1.036,0.204 -1.716,0.204zM311.982,193.672c0.568,0 1.024,-0.12 1.368,-0.36c0.344,-0.24 0.516,-0.536 0.516,-0.888c0,-0.28 -0.096,-0.508 -0.288,-0.684c-0.184,-0.184 -0.476,-0.276 -0.876,-0.276c-0.376,0 -0.716,0.072 -1.02,0.216c-0.296,0.136 -0.528,0.316 -0.696,0.54c-0.168,0.224 -0.252,0.468 -0.252,0.732c0,0.232 0.108,0.412 0.324,0.54c0.224,0.12 0.532,0.18 0.924,0.18zM316.877,192.088c0,-0.768 0.072,-1.32 0.216,-1.656c0.144,-0.344 0.348,-0.516 0.612,-0.516c0.208,0 0.372,0.088 0.492,0.264c0.12,0.168 0.208,0.38 0.264,0.636c0.056,0.248 0.084,0.5 0.084,0.756l-0.06,-0.024c0.136,-0.432 0.344,-0.804 0.624,-1.116c0.288,-0.312 0.632,-0.468 1.032,-0.468c0.472,0 0.82,0.196 1.044,0.588c0.224,0.384 0.336,0.864 0.336,1.44c0,0.768 -0.088,1.304 -0.264,1.608c-0.176,0.304 -0.412,0.456 -0.708,0.456c-0.216,0 -0.376,-0.088 -0.48,-0.264c-0.096,-0.176 -0.128,-0.488 -0.096,-0.936c0.032,-0.472 0.004,-0.8 -0.084,-0.984c-0.088,-0.184 -0.228,-0.276 -0.42,-0.276c-0.232,0 -0.424,0.148 -0.576,0.444c-0.144,0.288 -0.216,0.644 -0.216,1.068c0,0.168 0.02,0.38 0.06,0.636c0.04,0.256 0.084,0.536 0.132,0.84c0.048,0.296 0.092,0.592 0.132,0.888c0.04,0.296 0.06,0.568 0.06,0.816c0,0.44 -0.068,0.756 -0.204,0.948c-0.136,0.192 -0.328,0.288 -0.576,0.288c-0.28,0 -0.496,-0.088 -0.648,-0.264c-0.152,-0.184 -0.268,-0.48 -0.348,-0.888c-0.064,-0.368 -0.128,-0.804 -0.192,-1.308c-0.064,-0.504 -0.116,-1.02 -0.156,-1.548c-0.04,-0.528 -0.06,-1.004 -0.06,-1.428zM324.828,197.668c-0.784,0 -1.396,-0.292 -1.836,-0.876c-0.44,-0.592 -0.66,-1.492 -0.66,-2.7c0,-1.2 0.216,-2.076 0.648,-2.628c0.44,-0.56 1.068,-0.84 1.884,-0.84c0.464,0 0.868,0.096 1.212,0.288c0.352,0.192 0.664,0.464 0.936,0.816l-0.096,0.048c-0.072,-0.328 -0.144,-0.676 -0.216,-1.044c-0.072,-0.368 -0.132,-0.716 -0.18,-1.044c-0.04,-0.336 -0.06,-0.6 -0.06,-0.792c0,-0.272 0.044,-0.48 0.132,-0.624c0.088,-0.152 0.228,-0.228 0.42,-0.228c0.272,0 0.492,0.116 0.66,0.348c0.168,0.224 0.308,0.572 0.42,1.044c0.104,0.424 0.196,0.928 0.276,1.512c0.08,0.576 0.144,1.18 0.192,1.812c0.056,0.624 0.084,1.224 0.084,1.8c0,0.8 -0.044,1.424 -0.132,1.872c-0.08,0.44 -0.196,0.748 -0.348,0.924c-0.144,0.176 -0.316,0.264 -0.516,0.264c-0.248,0 -0.416,-0.124 -0.504,-0.372c-0.088,-0.248 -0.124,-0.652 -0.108,-1.212h0.18c-0.216,0.496 -0.532,0.892 -0.948,1.188c-0.408,0.296 -0.888,0.444 -1.44,0.444zM325.464,196.18c0.288,0 0.552,-0.072 0.792,-0.216c0.248,-0.152 0.444,-0.384 0.588,-0.696c0.152,-0.312 0.228,-0.708 0.228,-1.188c0,-0.616 -0.14,-1.116 -0.42,-1.5c-0.28,-0.392 -0.684,-0.588 -1.212,-0.588c-0.416,0 -0.756,0.172 -1.02,0.516c-0.256,0.344 -0.384,0.864 -0.384,1.56c0,0.616 0.128,1.124 0.384,1.524c0.264,0.392 0.612,0.588 1.044,0.588zM333.467,197.596c-0.888,0 -1.596,-0.132 -2.124,-0.396c-0.528,-0.264 -0.908,-0.644 -1.14,-1.14c-0.232,-0.496 -0.348,-1.088 -0.348,-1.776c0,-0.872 0.16,-1.612 0.48,-2.22c0.328,-0.616 0.776,-1.088 1.344,-1.416c0.576,-0.328 1.228,-0.492 1.956,-0.492c0.856,0 1.484,0.2 1.884,0.6c0.4,0.392 0.6,0.908 0.6,1.548c0,0.512 -0.136,0.956 -0.408,1.332c-0.264,0.368 -0.632,0.652 -1.104,0.852c-0.472,0.2 -1.016,0.3 -1.632,0.3c-0.344,0 -0.676,-0.044 -0.996,-0.132c-0.32,-0.088 -0.608,-0.208 -0.864,-0.36l0.288,-0.528c-0.024,0.192 -0.036,0.384 -0.036,0.576c0,0.56 0.176,0.964 0.528,1.212c0.352,0.24 0.852,0.36 1.5,0.36c0.504,0 0.908,-0.044 1.212,-0.132c0.304,-0.088 0.56,-0.172 0.768,-0.252c0.208,-0.088 0.412,-0.132 0.612,-0.132c0.112,0 0.212,0.032 0.3,0.096c0.096,0.056 0.172,0.14 0.228,0.252c0.064,0.112 0.096,0.248 0.096,0.408c0,0.24 -0.12,0.472 -0.36,0.696c-0.24,0.216 -0.596,0.396 -1.068,0.54c-0.464,0.136 -1.036,0.204 -1.716,0.204zM332.771,193.672c0.568,0 1.024,-0.12 1.368,-0.36c0.344,-0.24 0.516,-0.536 0.516,-0.888c0,-0.28 -0.096,-0.508 -0.288,-0.684c-0.184,-0.184 -0.476,-0.276 -0.876,-0.276c-0.376,0 -0.716,0.072 -1.02,0.216c-0.296,0.136 -0.528,0.316 -0.696,0.54c-0.168,0.224 -0.252,0.468 -0.252,0.732c0,0.232 0.108,0.412 0.324,0.54c0.224,0.12 0.532,0.18 0.924,0.18zM338.482,197.62c-0.152,0 -0.276,-0.044 -0.372,-0.132c-0.096,-0.096 -0.164,-0.232 -0.204,-0.408c-0.064,-0.296 -0.12,-0.724 -0.168,-1.284c-0.048,-0.56 -0.072,-1.18 -0.072,-1.86c0,-0.84 0.028,-1.648 0.084,-2.424c0.064,-0.776 0.144,-1.412 0.24,-1.908c0.104,-0.536 0.232,-0.928 0.384,-1.176c0.152,-0.256 0.352,-0.384 0.6,-0.384c0.224,0 0.396,0.104 0.516,0.312c0.12,0.2 0.18,0.548 0.18,1.044c0,0.496 -0.02,1.028 -0.06,1.596c-0.032,0.568 -0.088,1.176 -0.168,1.824h0.048c0.52,-0.704 1.004,-1.268 1.452,-1.692c0.456,-0.424 0.872,-0.732 1.248,-0.924c0.384,-0.192 0.724,-0.288 1.02,-0.288c0.232,0 0.404,0.072 0.516,0.216c0.112,0.144 0.168,0.32 0.168,0.528c0,0.408 -0.328,0.864 -0.984,1.368c-0.648,0.504 -1.584,1.02 -2.808,1.548l0.012,-0.192c0.76,0.392 1.412,0.804 1.956,1.236c0.552,0.424 0.972,0.828 1.26,1.212c0.296,0.376 0.444,0.692 0.444,0.948c0,0.208 -0.068,0.38 -0.204,0.516c-0.128,0.128 -0.316,0.192 -0.564,0.192c-0.312,0 -0.66,-0.116 -1.044,-0.348c-0.376,-0.24 -0.768,-0.596 -1.176,-1.068c-0.408,-0.472 -0.816,-1.064 -1.224,-1.776h-0.048c-0.008,0.504 -0.04,0.996 -0.096,1.476c-0.048,0.472 -0.112,0.86 -0.192,1.164c-0.056,0.208 -0.144,0.376 -0.264,0.504c-0.112,0.12 -0.272,0.18 -0.48,0.18zM350.105,197.62c-0.272,0 -0.46,-0.104 -0.564,-0.312c-0.096,-0.216 -0.152,-0.556 -0.168,-1.02l0.12,0.06c-0.448,0.872 -1.296,1.308 -2.544,1.308c-0.568,0 -1.04,-0.1 -1.416,-0.3c-0.376,-0.208 -0.656,-0.48 -0.84,-0.816c-0.176,-0.344 -0.264,-0.716 -0.264,-1.116c0,-0.688 0.24,-1.232 0.72,-1.632c0.48,-0.408 1.116,-0.612 1.908,-0.612c0.52,0 0.972,0.076 1.356,0.228c0.384,0.152 0.712,0.364 0.984,0.636l-0.204,-0.024c-0.056,-0.808 -0.232,-1.384 -0.528,-1.728c-0.288,-0.352 -0.7,-0.528 -1.236,-0.528c-0.312,0 -0.6,0.048 -0.864,0.144c-0.264,0.096 -0.508,0.196 -0.732,0.3c-0.216,0.096 -0.42,0.144 -0.612,0.144c-0.192,0 -0.344,-0.064 -0.456,-0.192c-0.104,-0.128 -0.156,-0.292 -0.156,-0.492c0,-0.288 0.136,-0.56 0.408,-0.816c0.28,-0.256 0.648,-0.464 1.104,-0.624c0.456,-0.16 0.952,-0.24 1.488,-0.24c0.648,0 1.204,0.156 1.668,0.468c0.464,0.312 0.816,0.768 1.056,1.368c0.208,0.512 0.356,1.084 0.444,1.716c0.088,0.632 0.132,1.308 0.132,2.028c0,0.544 -0.028,0.964 -0.084,1.26c-0.056,0.296 -0.144,0.504 -0.264,0.624c-0.112,0.112 -0.264,0.168 -0.456,0.168zM347.453,196.276c0.264,0 0.532,-0.036 0.804,-0.108c0.272,-0.08 0.5,-0.196 0.684,-0.348c0.184,-0.152 0.276,-0.34 0.276,-0.564c0,-0.192 -0.08,-0.348 -0.24,-0.468c-0.152,-0.128 -0.356,-0.224 -0.612,-0.288c-0.248,-0.064 -0.516,-0.096 -0.804,-0.096c-0.488,0 -0.86,0.084 -1.116,0.252c-0.248,0.168 -0.372,0.392 -0.372,0.672c0,0.304 0.116,0.54 0.348,0.708c0.24,0.16 0.584,0.24 1.032,0.24zM354.037,190.276h-0.24c-0.024,-0.352 -0.016,-0.684 0.024,-0.996c0.04,-0.32 0.124,-0.576 0.252,-0.768c0.136,-0.2 0.328,-0.3 0.576,-0.3c0.224,0 0.388,0.072 0.492,0.216c0.104,0.144 0.156,0.344 0.156,0.6c0,0.504 -0.096,0.936 -0.288,1.296l-0.216,-0.024c0.432,-0.152 0.92,-0.228 1.464,-0.228c0.344,0 0.616,0.068 0.816,0.204c0.208,0.128 0.312,0.348 0.312,0.66c0,0.296 -0.12,0.52 -0.36,0.672c-0.24,0.152 -0.54,0.228 -0.9,0.228c-0.216,0 -0.448,-0.008 -0.696,-0.024c-0.24,-0.024 -0.476,-0.06 -0.708,-0.108l0.204,-0.252c0.072,0.304 0.14,0.652 0.204,1.044c0.072,0.384 0.136,0.784 0.192,1.2c0.056,0.416 0.1,0.82 0.132,1.212c0.032,0.392 0.048,0.744 0.048,1.056c0,0.512 -0.08,0.916 -0.24,1.212c-0.16,0.296 -0.396,0.444 -0.708,0.444c-0.248,0 -0.444,-0.076 -0.588,-0.228c-0.136,-0.152 -0.236,-0.344 -0.3,-0.576c-0.056,-0.24 -0.092,-0.488 -0.108,-0.744c-0.008,-0.256 -0.012,-0.488 -0.012,-0.696c0,-0.352 0.016,-0.748 0.048,-1.188c0.032,-0.448 0.076,-0.908 0.132,-1.38c0.064,-0.472 0.136,-0.928 0.216,-1.368l0.24,0.204c-0.408,0.208 -0.912,0.312 -1.512,0.312c-0.368,0 -0.652,-0.068 -0.852,-0.204c-0.2,-0.136 -0.3,-0.348 -0.3,-0.636c0,-0.312 0.112,-0.552 0.336,-0.72c0.224,-0.176 0.524,-0.264 0.9,-0.264c0.248,0 0.48,0.016 0.696,0.048c0.224,0.024 0.42,0.056 0.588,0.096zM363.605,197.62c-0.272,0 -0.46,-0.104 -0.564,-0.312c-0.096,-0.216 -0.152,-0.556 -0.168,-1.02l0.12,0.06c-0.448,0.872 -1.296,1.308 -2.544,1.308c-0.568,0 -1.04,-0.1 -1.416,-0.3c-0.376,-0.208 -0.656,-0.48 -0.84,-0.816c-0.176,-0.344 -0.264,-0.716 -0.264,-1.116c0,-0.688 0.24,-1.232 0.72,-1.632c0.48,-0.408 1.116,-0.612 1.908,-0.612c0.52,0 0.972,0.076 1.356,0.228c0.384,0.152 0.712,0.364 0.984,0.636l-0.204,-0.024c-0.056,-0.808 -0.232,-1.384 -0.528,-1.728c-0.288,-0.352 -0.7,-0.528 -1.236,-0.528c-0.312,0 -0.6,0.048 -0.864,0.144c-0.264,0.096 -0.508,0.196 -0.732,0.3c-0.216,0.096 -0.42,0.144 -0.612,0.144c-0.192,0 -0.344,-0.064 -0.456,-0.192c-0.104,-0.128 -0.156,-0.292 -0.156,-0.492c0,-0.288 0.136,-0.56 0.408,-0.816c0.28,-0.256 0.648,-0.464 1.104,-0.624c0.456,-0.16 0.952,-0.24 1.488,-0.24c0.648,0 1.204,0.156 1.668,0.468c0.464,0.312 0.816,0.768 1.056,1.368c0.208,0.512 0.356,1.084 0.444,1.716c0.088,0.632 0.132,1.308 0.132,2.028c0,0.544 -0.028,0.964 -0.084,1.26c-0.056,0.296 -0.144,0.504 -0.264,0.624c-0.112,0.112 -0.264,0.168 -0.456,0.168zM360.953,196.276c0.264,0 0.532,-0.036 0.804,-0.108c0.272,-0.08 0.5,-0.196 0.684,-0.348c0.184,-0.152 0.276,-0.34 0.276,-0.564c0,-0.192 -0.08,-0.348 -0.24,-0.468c-0.152,-0.128 -0.356,-0.224 -0.612,-0.288c-0.248,-0.064 -0.516,-0.096 -0.804,-0.096c-0.488,0 -0.86,0.084 -1.116,0.252c-0.248,0.168 -0.372,0.392 -0.372,0.672c0,0.304 0.116,0.54 0.348,0.708c0.24,0.16 0.584,0.24 1.032,0.24zM367.097,190.036c0.256,0 0.428,0.104 0.516,0.312c0.096,0.208 0.144,0.516 0.144,0.924c0,0.096 -0.008,0.2 -0.024,0.312c-0.008,0.104 -0.024,0.2 -0.048,0.288l-0.024,-0.24c0.192,-0.52 0.488,-0.924 0.888,-1.212c0.4,-0.296 0.824,-0.444 1.272,-0.444c0.496,0 0.908,0.14 1.236,0.42c0.336,0.28 0.584,0.672 0.744,1.176c0.168,0.504 0.252,1.1 0.252,1.788c0,0.424 -0.02,0.844 -0.06,1.26c-0.032,0.408 -0.08,0.784 -0.144,1.128c-0.056,0.336 -0.12,0.612 -0.192,0.828c-0.096,0.272 -0.22,0.476 -0.372,0.612c-0.152,0.128 -0.332,0.192 -0.54,0.192c-0.208,0 -0.368,-0.076 -0.48,-0.228c-0.112,-0.152 -0.168,-0.356 -0.168,-0.612c0,-0.272 0.02,-0.6 0.06,-0.984c0.04,-0.392 0.076,-0.788 0.108,-1.188c0.04,-0.408 0.06,-0.776 0.06,-1.104c0,-1.12 -0.368,-1.68 -1.104,-1.68c-0.392,0 -0.72,0.176 -0.984,0.528c-0.264,0.344 -0.44,0.836 -0.528,1.476c-0.024,0.216 -0.036,0.484 -0.036,0.804c0,0.32 0,0.64 0,0.96c0.008,0.312 0,0.576 -0.024,0.792c-0.032,0.48 -0.124,0.824 -0.276,1.032c-0.144,0.208 -0.344,0.312 -0.6,0.312c-0.296,0 -0.52,-0.136 -0.672,-0.408c-0.152,-0.28 -0.228,-0.748 -0.228,-1.404c0,-0.336 0.008,-0.712 0.024,-1.128c0.016,-0.416 0.036,-0.832 0.06,-1.248c0.032,-0.424 0.068,-0.808 0.108,-1.152c0.08,-0.648 0.196,-1.16 0.348,-1.536c0.152,-0.384 0.38,-0.576 0.684,-0.576z"/></g></g></svg>