<svg xmlns="http://www.w3.org/2000/svg" fill="none" viewBox="0 0 60 16" height="16" width="60">
<rect stroke="black" fill="#81E2E8" rx="4.5" height="15" width="59" y="0.5" x="0.5"></rect>
<path fill="black" d="M14.3729 10.03C14.1695 10.03 14.0179 10.0033 13.9179 9.95C13.8179 9.89667 13.7345 9.8 13.6679 9.66C13.6212 9.55333 13.5812 9.38 13.5479 9.14C13.5179 8.89667 13.5029 8.58167 13.5029 8.195C13.5029 7.925 13.5079 7.66667 13.5179 7.42C13.5312 7.17333 13.5495 6.98333 13.5729 6.85C13.5995 6.68 13.6429 6.55833 13.7029 6.485C13.7662 6.41167 13.8445 6.375 13.9379 6.375C14.0212 6.375 14.0862 6.41167 14.1329 6.485C14.1829 6.55833 14.2179 6.65833 14.2379 6.785C14.2579 6.90833 14.2679 7.045 14.2679 7.195C14.2679 7.60167 14.2529 8.01333 14.2229 8.43C14.1962 8.84667 14.1579 9.23 14.1079 9.58L14.0429 9.49C14.1929 9.38667 14.3529 9.29833 14.5229 9.225C14.6962 9.15167 14.8645 9.095 15.0279 9.055C15.1945 9.015 15.3395 8.995 15.4629 8.995C15.5862 8.995 15.6762 9.02 15.7329 9.07C15.7929 9.12 15.8229 9.19167 15.8229 9.285C15.8229 9.37833 15.7812 9.47333 15.6979 9.57C15.6179 9.66333 15.5029 9.745 15.3529 9.815C15.2695 9.855 15.1712 9.89167 15.0579 9.925C14.9445 9.955 14.8279 9.98 14.7079 10C14.5912 10.02 14.4795 10.03 14.3729 10.03ZM16.6766 6.165C16.81 6.165 16.905 6.20167 16.9616 6.275C17.0216 6.34833 17.0516 6.43333 17.0516 6.53C17.0516 6.65 17.015 6.74333 16.9416 6.81C16.8716 6.87333 16.7716 6.905 16.6416 6.905C16.515 6.905 16.42 6.87 16.3566 6.8C16.2933 6.72667 16.2616 6.64167 16.2616 6.545C16.2616 6.41833 16.3 6.32333 16.3766 6.26C16.4533 6.19667 16.5533 6.165 16.6766 6.165ZM16.7066 7.28C16.8133 7.28 16.8966 7.38 16.9566 7.58C17.02 7.78 17.0516 8.09833 17.0516 8.535C17.0516 9.07167 17.0133 9.45833 16.9366 9.695C16.86 9.93167 16.7433 10.05 16.5866 10.05C16.4666 10.05 16.3783 9.96333 16.3216 9.79C16.265 9.61333 16.2366 9.30667 16.2366 8.87C16.2366 8.33333 16.28 7.935 16.3666 7.675C16.4566 7.41167 16.57 7.28 16.7066 7.28ZM18.1774 6.04C18.2841 6.04 18.3574 6.08167 18.3974 6.165C18.4408 6.24833 18.4624 6.37333 18.4624 6.54C18.4624 6.68333 18.4541 6.86333 18.4374 7.08C18.4208 7.29667 18.3991 7.505 18.3724 7.705H18.3424C18.4524 7.49833 18.5941 7.33167 18.7674 7.205C18.9408 7.07833 19.1241 7.015 19.3174 7.015C19.4874 7.015 19.6391 7.05667 19.7724 7.14C19.9058 7.22 20.0141 7.34667 20.0974 7.52C20.1741 7.67667 20.2308 7.86333 20.2674 8.08C20.3041 8.29333 20.3224 8.49667 20.3224 8.69C20.3224 9 20.3008 9.24667 20.2574 9.43C20.2174 9.61333 20.1608 9.74667 20.0874 9.83C20.0141 9.91 19.9274 9.95 19.8274 9.95C19.6174 9.95 19.5124 9.77833 19.5124 9.435C19.5124 9.26833 19.5208 9.09667 19.5374 8.92C19.5574 8.74333 19.5674 8.58167 19.5674 8.435C19.5674 8.185 19.5274 7.99833 19.4474 7.875C19.3708 7.74833 19.2591 7.685 19.1124 7.685C18.9291 7.685 18.7808 7.76667 18.6674 7.93C18.5541 8.09333 18.4974 8.31833 18.4974 8.605C18.4974 8.755 18.5108 8.92 18.5374 9.1C18.5641 9.27667 18.5774 9.43833 18.5774 9.585C18.5774 9.74833 18.5458 9.86667 18.4824 9.94C18.4224 10.01 18.3441 10.045 18.2474 10.045C18.1741 10.045 18.1091 10.03 18.0524 10C17.9991 9.97333 17.9524 9.91833 17.9124 9.835C17.8758 9.74833 17.8441 9.62 17.8174 9.45C17.7974 9.32 17.7774 9.16833 17.7574 8.995C17.7374 8.82167 17.7208 8.64 17.7074 8.45C17.6941 8.26 17.6824 8.075 17.6724 7.895C17.6658 7.71167 17.6624 7.545 17.6624 7.395C17.6624 6.92167 17.7074 6.57833 17.7974 6.365C17.8874 6.14833 18.0141 6.04 18.1774 6.04ZM23.1189 10.05C23.0056 10.05 22.9272 10.0067 22.8839 9.92C22.8439 9.83 22.8206 9.68833 22.8139 9.495L22.8639 9.52C22.6772 9.88333 22.3239 10.065 21.8039 10.065C21.5672 10.065 21.3706 10.0233 21.2139 9.94C21.0572 9.85333 20.9406 9.74 20.8639 9.6C20.7906 9.45667 20.7539 9.30167 20.7539 9.135C20.7539 8.84833 20.8539 8.62167 21.0539 8.455C21.2539 8.285 21.5189 8.2 21.8489 8.2C22.0656 8.2 22.2539 8.23167 22.4139 8.295C22.5739 8.35833 22.7106 8.44667 22.8239 8.56L22.7389 8.55C22.7156 8.21333 22.6422 7.97333 22.5189 7.83C22.3989 7.68333 22.2272 7.61 22.0039 7.61C21.8739 7.61 21.7539 7.63 21.6439 7.67C21.5339 7.71 21.4322 7.75167 21.3389 7.795C21.2489 7.835 21.1639 7.855 21.0839 7.855C21.0039 7.855 20.9406 7.82833 20.8939 7.775C20.8506 7.72167 20.8289 7.65333 20.8289 7.57C20.8289 7.45 20.8856 7.33667 20.9989 7.23C21.1156 7.12333 21.2689 7.03667 21.4589 6.97C21.6489 6.90333 21.8556 6.87 22.0789 6.87C22.3489 6.87 22.5806 6.935 22.7739 7.065C22.9672 7.195 23.1139 7.385 23.2139 7.635C23.3006 7.84833 23.3622 8.08667 23.3989 8.35C23.4356 8.61333 23.4539 8.895 23.4539 9.195C23.4539 9.42167 23.4422 9.59667 23.4189 9.72C23.3956 9.84333 23.3589 9.93 23.3089 9.98C23.2622 10.0267 23.1989 10.05 23.1189 10.05ZM22.0139 9.49C22.1239 9.49 22.2356 9.475 22.3489 9.445C22.4622 9.41167 22.5572 9.36333 22.6339 9.3C22.7106 9.23667 22.7489 9.15833 22.7489 9.065C22.7489 8.985 22.7156 8.92 22.6489 8.87C22.5856 8.81667 22.5006 8.77667 22.3939 8.75C22.2906 8.72333 22.1789 8.71 22.0589 8.71C21.8556 8.71 21.7006 8.745 21.5939 8.815C21.4906 8.885 21.4389 8.97833 21.4389 9.095C21.4389 9.22167 21.4872 9.32 21.5839 9.39C21.6839 9.45667 21.8272 9.49 22.0139 9.49ZM24.7574 6.99H24.6574C24.6474 6.84333 24.6508 6.705 24.6674 6.575C24.6841 6.44167 24.7191 6.335 24.7724 6.255C24.8291 6.17167 24.9091 6.13 25.0124 6.13C25.1058 6.13 25.1741 6.16 25.2174 6.22C25.2608 6.28 25.2824 6.36333 25.2824 6.47C25.2824 6.68 25.2424 6.86 25.1624 7.01L25.0724 7C25.2524 6.93667 25.4558 6.905 25.6824 6.905C25.8258 6.905 25.9391 6.93333 26.0224 6.99C26.1091 7.04333 26.1524 7.135 26.1524 7.265C26.1524 7.38833 26.1024 7.48167 26.0024 7.545C25.9024 7.60833 25.7774 7.64 25.6274 7.64C25.5374 7.64 25.4408 7.63667 25.3374 7.63C25.2374 7.62 25.1391 7.605 25.0424 7.585L25.1274 7.48C25.1574 7.60667 25.1858 7.75167 25.2124 7.915C25.2424 8.075 25.2691 8.24167 25.2924 8.415C25.3158 8.58833 25.3341 8.75667 25.3474 8.92C25.3608 9.08333 25.3674 9.23 25.3674 9.36C25.3674 9.57333 25.3341 9.74167 25.2674 9.865C25.2008 9.98833 25.1024 10.05 24.9724 10.05C24.8691 10.05 24.7874 10.0183 24.7274 9.955C24.6708 9.89167 24.6291 9.81167 24.6024 9.715C24.5791 9.615 24.5641 9.51167 24.5574 9.405C24.5541 9.29833 24.5524 9.20167 24.5524 9.115C24.5524 8.96833 24.5591 8.80333 24.5724 8.62C24.5858 8.43333 24.6041 8.24167 24.6274 8.045C24.6541 7.84833 24.6841 7.65833 24.7174 7.475L24.8174 7.56C24.6474 7.64667 24.4374 7.69 24.1874 7.69C24.0341 7.69 23.9158 7.66167 23.8324 7.605C23.7491 7.54833 23.7074 7.46 23.7074 7.34C23.7074 7.21 23.7541 7.11 23.8474 7.04C23.9408 6.96667 24.0658 6.93 24.2224 6.93C24.3258 6.93 24.4224 6.93667 24.5124 6.95C24.6058 6.96 24.6874 6.97333 24.7574 6.99ZM28.0199 6.275C28.1065 6.275 28.1749 6.30833 28.2249 6.375C28.2749 6.44167 28.3115 6.545 28.3349 6.685C28.3615 6.82833 28.3815 7.01667 28.3949 7.25C28.4082 7.48333 28.4149 7.73833 28.4149 8.015C28.4149 8.255 28.4065 8.485 28.3899 8.705C28.3765 8.925 28.3565 9.13 28.3299 9.32C28.3032 9.51333 28.2615 9.64833 28.2049 9.725C28.1482 9.80167 28.0715 9.84 27.9749 9.84C27.8815 9.84 27.8082 9.81 27.7549 9.75C27.7049 9.69 27.6699 9.58833 27.6499 9.445C27.6299 9.315 27.6132 9.145 27.5999 8.935C27.5899 8.725 27.5849 8.50167 27.5849 8.265C27.5849 7.93833 27.5949 7.64167 27.6149 7.375C27.6349 7.10833 27.6615 6.88667 27.6949 6.71C27.7249 6.56 27.7632 6.45 27.8099 6.38C27.8599 6.31 27.9299 6.275 28.0199 6.275ZM30.3141 6.87C30.6108 6.87 30.8241 6.91333 30.9541 7C31.0841 7.08667 31.1491 7.19833 31.1491 7.335C31.1491 7.415 31.1208 7.48167 31.0641 7.535C31.0108 7.585 30.9341 7.61 30.8341 7.61C30.7308 7.61 30.6225 7.595 30.5091 7.565C30.3991 7.535 30.2708 7.52 30.1241 7.52C29.9541 7.52 29.8275 7.55333 29.7441 7.62C29.6608 7.68667 29.6191 7.77167 29.6191 7.875C29.6191 7.97167 29.6558 8.04833 29.7291 8.105C29.8058 8.15833 29.9508 8.19833 30.1641 8.225C30.4008 8.25167 30.5958 8.295 30.7491 8.355C30.9058 8.41167 31.0225 8.49833 31.0991 8.615C31.1758 8.72833 31.2141 8.885 31.2141 9.085C31.2141 9.40167 31.1025 9.63667 30.8791 9.79C30.6558 9.94333 30.3475 10.02 29.9541 10.02C29.7041 10.02 29.5058 10 29.3591 9.96C29.2125 9.92 29.1058 9.86333 29.0391 9.79C28.9758 9.71667 28.9441 9.63 28.9441 9.53C28.9441 9.44333 28.9725 9.37667 29.0291 9.33C29.0891 9.28 29.1591 9.255 29.2391 9.255C29.3158 9.255 29.3975 9.265 29.4841 9.285C29.5708 9.30167 29.6625 9.32 29.7591 9.34C29.8558 9.36 29.9558 9.37 30.0591 9.37C30.3925 9.37 30.5591 9.26667 30.5591 9.06C30.5591 8.99 30.5425 8.93333 30.5091 8.89C30.4758 8.84667 30.4158 8.81167 30.3291 8.785C30.2425 8.755 30.1158 8.73167 29.9491 8.715C29.7491 8.695 29.5758 8.66167 29.4291 8.615C29.2825 8.565 29.1691 8.485 29.0891 8.375C29.0091 8.26167 28.9691 8.10667 28.9691 7.91C28.9691 7.6 29.0858 7.35 29.3191 7.16C29.5525 6.96667 29.8841 6.87 30.3141 6.87ZM32.16 6.165C32.2934 6.165 32.3884 6.20167 32.445 6.275C32.505 6.34833 32.535 6.43333 32.535 6.53C32.535 6.65 32.4984 6.74333 32.425 6.81C32.355 6.87333 32.255 6.905 32.125 6.905C31.9984 6.905 31.9034 6.87 31.84 6.8C31.7767 6.72667 31.745 6.64167 31.745 6.545C31.745 6.41833 31.7834 6.32333 31.86 6.26C31.9367 6.19667 32.0367 6.165 32.16 6.165ZM32.19 7.28C32.2967 7.28 32.38 7.38 32.44 7.58C32.5034 7.78 32.535 8.09833 32.535 8.535C32.535 9.07167 32.4967 9.45833 32.42 9.695C32.3434 9.93167 32.2267 10.05 32.07 10.05C31.95 10.05 31.8617 9.96333 31.805 9.79C31.7484 9.61333 31.72 9.30667 31.72 8.87C31.72 8.33333 31.7634 7.935 31.85 7.675C31.94 7.41167 32.0534 7.28 32.19 7.28ZM34.5018 10.05C34.4418 10.05 34.3935 10.03 34.3568 9.99C34.3201 9.94667 34.2901 9.87833 34.2668 9.785C34.2435 9.67833 34.2218 9.51167 34.2018 9.285C34.1818 9.055 34.1718 8.79833 34.1718 8.515C34.1718 8.20833 34.1801 7.91 34.1968 7.62C34.2168 7.32667 34.2451 7.06833 34.2818 6.845C34.3085 6.69833 34.3468 6.59 34.3968 6.52C34.4501 6.44667 34.5235 6.41 34.6168 6.41C34.6768 6.41 34.7301 6.43 34.7768 6.47C34.8235 6.51 34.8585 6.58167 34.8818 6.685C34.9085 6.78833 34.9218 6.935 34.9218 7.125C34.9218 7.21833 34.9185 7.325 34.9118 7.445C34.9051 7.56167 34.8951 7.69167 34.8818 7.835H34.9018C35.1685 7.46833 35.4035 7.17667 35.6068 6.96C35.8101 6.74 35.9885 6.58167 36.1418 6.485C36.2985 6.38833 36.4351 6.34 36.5518 6.34C36.6451 6.34 36.7151 6.37 36.7618 6.43C36.8118 6.49 36.8368 6.56333 36.8368 6.65C36.8368 6.83333 36.6985 7.05333 36.4218 7.31C36.1485 7.56667 35.7068 7.875 35.0968 8.235L35.1368 8.14C35.6635 8.47333 36.0618 8.76833 36.3318 9.025C36.6018 9.27833 36.7368 9.50333 36.7368 9.7C36.7368 9.78667 36.7085 9.85833 36.6518 9.915C36.5985 9.96833 36.5185 9.995 36.4118 9.995C36.2785 9.995 36.1368 9.95 35.9868 9.86C35.8368 9.76667 35.6701 9.61167 35.4868 9.395C35.3068 9.175 35.1018 8.87667 34.8718 8.5H34.8518C34.8585 8.57667 34.8635 8.65667 34.8668 8.74C34.8701 8.82 34.8718 8.9 34.8718 8.98C34.8718 9.36333 34.8451 9.63833 34.7918 9.805C34.7385 9.96833 34.6418 10.05 34.5018 10.05ZM38.477 10.015C38.2104 10.015 37.977 9.95667 37.777 9.84C37.5804 9.72 37.427 9.55 37.317 9.33C37.2104 9.11 37.157 8.84833 37.157 8.545C37.157 8.22833 37.212 7.95167 37.322 7.715C37.432 7.47833 37.587 7.29333 37.787 7.16C37.9904 7.02667 38.2254 6.96 38.492 6.96C38.7787 6.96 39.027 7.025 39.237 7.155C39.447 7.28167 39.6104 7.46 39.727 7.69C39.8437 7.92 39.902 8.18833 39.902 8.495C39.902 8.80833 39.8437 9.07833 39.727 9.305C39.6104 9.53167 39.4454 9.70667 39.232 9.83C39.0187 9.95333 38.767 10.015 38.477 10.015ZM38.547 9.34C38.7537 9.34 38.917 9.25833 39.037 9.095C39.1604 8.92833 39.222 8.70833 39.222 8.435C39.222 8.15833 39.1604 7.93833 39.037 7.775C38.917 7.61167 38.7537 7.53 38.547 7.53C38.3337 7.53 38.1654 7.61167 38.042 7.775C37.9187 7.93833 37.857 8.15833 37.857 8.435C37.857 8.70833 37.9187 8.92833 38.042 9.095C38.1654 9.25833 38.3337 9.34 38.547 9.34ZM41.2027 6.99H41.1027C41.0927 6.84333 41.0961 6.705 41.1127 6.575C41.1294 6.44167 41.1644 6.335 41.2177 6.255C41.2744 6.17167 41.3544 6.13 41.4577 6.13C41.5511 6.13 41.6194 6.16 41.6627 6.22C41.7061 6.28 41.7277 6.36333 41.7277 6.47C41.7277 6.68 41.6877 6.86 41.6077 7.01L41.5177 7C41.6977 6.93667 41.9011 6.905 42.1277 6.905C42.2711 6.905 42.3844 6.93333 42.4677 6.99C42.5544 7.04333 42.5977 7.135 42.5977 7.265C42.5977 7.38833 42.5477 7.48167 42.4477 7.545C42.3477 7.60833 42.2227 7.64 42.0727 7.64C41.9827 7.64 41.8861 7.63667 41.7827 7.63C41.6827 7.62 41.5844 7.605 41.4877 7.585L41.5727 7.48C41.6027 7.60667 41.6311 7.75167 41.6577 7.915C41.6877 8.075 41.7144 8.24167 41.7377 8.415C41.7611 8.58833 41.7794 8.75667 41.7927 8.92C41.8061 9.08333 41.8127 9.23 41.8127 9.36C41.8127 9.57333 41.7794 9.74167 41.7127 9.865C41.6461 9.98833 41.5477 10.05 41.4177 10.05C41.3144 10.05 41.2327 10.0183 41.1727 9.955C41.1161 9.89167 41.0744 9.81167 41.0477 9.715C41.0244 9.615 41.0094 9.51167 41.0027 9.405C40.9994 9.29833 40.9977 9.20167 40.9977 9.115C40.9977 8.96833 41.0044 8.80333 41.0177 8.62C41.0311 8.43333 41.0494 8.24167 41.0727 8.045C41.0994 7.84833 41.1294 7.65833 41.1627 7.475L41.2627 7.56C41.0927 7.64667 40.8827 7.69 40.6327 7.69C40.4794 7.69 40.3611 7.66167 40.2777 7.605C40.1944 7.54833 40.1527 7.46 40.1527 7.34C40.1527 7.21 40.1994 7.11 40.2927 7.04C40.3861 6.96667 40.5111 6.93 40.6677 6.93C40.7711 6.93 40.8677 6.93667 40.9577 6.95C41.0511 6.96 41.1327 6.97333 41.2027 6.99ZM45.1892 10.05C45.0759 10.05 44.9976 10.0067 44.9542 9.92C44.9142 9.83 44.8909 9.68833 44.8842 9.495L44.9342 9.52C44.7476 9.88333 44.3942 10.065 43.8742 10.065C43.6376 10.065 43.4409 10.0233 43.2842 9.94C43.1276 9.85333 43.0109 9.74 42.9342 9.6C42.8609 9.45667 42.8242 9.30167 42.8242 9.135C42.8242 8.84833 42.9242 8.62167 43.1242 8.455C43.3242 8.285 43.5892 8.2 43.9192 8.2C44.1359 8.2 44.3242 8.23167 44.4842 8.295C44.6442 8.35833 44.7809 8.44667 44.8942 8.56L44.8092 8.55C44.7859 8.21333 44.7126 7.97333 44.5892 7.83C44.4692 7.68333 44.2976 7.61 44.0742 7.61C43.9442 7.61 43.8242 7.63 43.7142 7.67C43.6042 7.71 43.5026 7.75167 43.4092 7.795C43.3192 7.835 43.2342 7.855 43.1542 7.855C43.0742 7.855 43.0109 7.82833 42.9642 7.775C42.9209 7.72167 42.8992 7.65333 42.8992 7.57C42.8992 7.45 42.9559 7.33667 43.0692 7.23C43.1859 7.12333 43.3392 7.03667 43.5292 6.97C43.7192 6.90333 43.9259 6.87 44.1492 6.87C44.4192 6.87 44.6509 6.935 44.8442 7.065C45.0376 7.195 45.1842 7.385 45.2842 7.635C45.3709 7.84833 45.4326 8.08667 45.4692 8.35C45.5059 8.61333 45.5242 8.895 45.5242 9.195C45.5242 9.42167 45.5126 9.59667 45.4892 9.72C45.4659 9.84333 45.4292 9.93 45.3792 9.98C45.3326 10.0267 45.2692 10.05 45.1892 10.05ZM44.0842 9.49C44.1942 9.49 44.3059 9.475 44.4192 9.445C44.5326 9.41167 44.6276 9.36333 44.7042 9.3C44.7809 9.23667 44.8192 9.15833 44.8192 9.065C44.8192 8.985 44.7859 8.92 44.7192 8.87C44.6559 8.81667 44.5709 8.77667 44.4642 8.75C44.3609 8.72333 44.2492 8.71 44.1292 8.71C43.9259 8.71 43.7709 8.745 43.6642 8.815C43.5609 8.885 43.5092 8.97833 43.5092 9.095C43.5092 9.22167 43.5576 9.32 43.6542 9.39C43.7542 9.45667 43.8976 9.49 44.0842 9.49ZM46.4741 10.05C46.4108 10.05 46.3591 10.0317 46.3191 9.995C46.2791 9.955 46.2508 9.89833 46.2341 9.825C46.2074 9.70167 46.1841 9.52333 46.1641 9.29C46.1441 9.05667 46.1341 8.79833 46.1341 8.515C46.1341 8.165 46.1458 7.82833 46.1691 7.505C46.1958 7.18167 46.2291 6.91667 46.2691 6.71C46.3124 6.48667 46.3658 6.32333 46.4291 6.22C46.4924 6.11333 46.5758 6.06 46.6791 6.06C46.7724 6.06 46.8441 6.10333 46.8941 6.19C46.9441 6.27333 46.9691 6.41833 46.9691 6.625C46.9691 6.83167 46.9608 7.05333 46.9441 7.29C46.9308 7.52667 46.9074 7.78 46.8741 8.05H46.8941C47.1108 7.75667 47.3124 7.52167 47.4991 7.345C47.6891 7.16833 47.8624 7.04 48.0191 6.96C48.1791 6.88 48.3208 6.84 48.4441 6.84C48.5408 6.84 48.6124 6.87 48.6591 6.93C48.7058 6.99 48.7291 7.06333 48.7291 7.15C48.7291 7.32 48.5924 7.51 48.3191 7.72C48.0491 7.93 47.6591 8.145 47.1491 8.365L47.1541 8.285C47.4708 8.44833 47.7424 8.62 47.9691 8.8C48.1991 8.97667 48.3741 9.145 48.4941 9.305C48.6174 9.46167 48.6791 9.59333 48.6791 9.7C48.6791 9.78667 48.6508 9.85833 48.5941 9.915C48.5408 9.96833 48.4624 9.995 48.3591 9.995C48.2291 9.995 48.0841 9.94667 47.9241 9.85C47.7674 9.75 47.6041 9.60167 47.4341 9.405C47.2641 9.20833 47.0941 8.96167 46.9241 8.665H46.9041C46.9008 8.875 46.8874 9.08 46.8641 9.28C46.8441 9.47667 46.8174 9.63833 46.7841 9.765C46.7608 9.85167 46.7241 9.92167 46.6741 9.975C46.6274 10.025 46.5608 10.05 46.4741 10.05Z"></path>
</svg>
