<svg xmlns="http://www.w3.org/2000/svg" fill="none" viewBox="0 0 61 16" height="16" width="61">
<rect stroke="black" fill="#81E891" rx="4.5" height="15" width="60" y="0.5" x="0.5"></rect>
<path fill="black" d="M6.52674 10.05C6.46674 10.05 6.41841 10.03 6.38174 9.99C6.34507 9.94667 6.31507 9.87833 6.29174 9.785C6.26841 9.67833 6.24674 9.51167 6.22674 9.285C6.20674 9.055 6.19674 8.79833 6.19674 8.515C6.19674 8.20833 6.20507 7.91 6.22174 7.62C6.24174 7.32667 6.27007 7.06833 6.30674 6.845C6.33341 6.69833 6.37174 6.59 6.42174 6.52C6.47507 6.44667 6.54841 6.41 6.64174 6.41C6.70174 6.41 6.75507 6.43 6.80174 6.47C6.84841 6.51 6.88341 6.58167 6.90674 6.685C6.93341 6.78833 6.94674 6.935 6.94674 7.125C6.94674 7.21833 6.94341 7.325 6.93674 7.445C6.93007 7.56167 6.92007 7.69167 6.90674 7.835H6.92674C7.19341 7.46833 7.42841 7.17667 7.63174 6.96C7.83507 6.74 8.01341 6.58167 8.16674 6.485C8.32341 6.38833 8.46007 6.34 8.57674 6.34C8.67007 6.34 8.74007 6.37 8.78674 6.43C8.83674 6.49 8.86174 6.56333 8.86174 6.65C8.86174 6.83333 8.72341 7.05333 8.44674 7.31C8.17341 7.56667 7.73174 7.875 7.12174 8.235L7.16174 8.14C7.68841 8.47333 8.08674 8.76833 8.35674 9.025C8.62674 9.27833 8.76174 9.50333 8.76174 9.7C8.76174 9.78667 8.73341 9.85833 8.67674 9.915C8.62341 9.96833 8.54341 9.995 8.43674 9.995C8.30341 9.995 8.16174 9.95 8.01174 9.86C7.86174 9.76667 7.69507 9.61167 7.51174 9.395C7.33174 9.175 7.12674 8.87667 6.89674 8.5H6.87674C6.88341 8.57667 6.88841 8.65667 6.89174 8.74C6.89507 8.82 6.89674 8.9 6.89674 8.98C6.89674 9.36333 6.87007 9.63833 6.81674 9.805C6.76341 9.96833 6.66674 10.05 6.52674 10.05ZM10.502 10.015C10.2353 10.015 10.002 9.95667 9.80197 9.84C9.60531 9.72 9.45197 9.55 9.34197 9.33C9.23531 9.11 9.18197 8.84833 9.18197 8.545C9.18197 8.22833 9.23697 7.95167 9.34697 7.715C9.45697 7.47833 9.61197 7.29333 9.81197 7.16C10.0153 7.02667 10.2503 6.96 10.517 6.96C10.8036 6.96 11.052 7.025 11.262 7.155C11.472 7.28167 11.6353 7.46 11.752 7.69C11.8686 7.92 11.927 8.18833 11.927 8.495C11.927 8.80833 11.8686 9.07833 11.752 9.305C11.6353 9.53167 11.4703 9.70667 11.257 9.83C11.0436 9.95333 10.792 10.015 10.502 10.015ZM10.572 9.34C10.7786 9.34 10.942 9.25833 11.062 9.095C11.1853 8.92833 11.247 8.70833 11.247 8.435C11.247 8.15833 11.1853 7.93833 11.062 7.775C10.942 7.61167 10.7786 7.53 10.572 7.53C10.3586 7.53 10.1903 7.61167 10.067 7.775C9.94364 7.93833 9.88197 8.15833 9.88197 8.435C9.88197 8.70833 9.94364 8.92833 10.067 9.095C10.1903 9.25833 10.3586 9.34 10.572 9.34ZM13.6965 6.87C13.9932 6.87 14.2065 6.91333 14.3365 7C14.4665 7.08667 14.5315 7.19833 14.5315 7.335C14.5315 7.415 14.5032 7.48167 14.4465 7.535C14.3932 7.585 14.3165 7.61 14.2165 7.61C14.1132 7.61 14.0048 7.595 13.8915 7.565C13.7815 7.535 13.6532 7.52 13.5065 7.52C13.3365 7.52 13.2098 7.55333 13.1265 7.62C13.0432 7.68667 13.0015 7.77167 13.0015 7.875C13.0015 7.97167 13.0382 8.04833 13.1115 8.105C13.1882 8.15833 13.3332 8.19833 13.5465 8.225C13.7832 8.25167 13.9782 8.295 14.1315 8.355C14.2882 8.41167 14.4048 8.49833 14.4815 8.615C14.5582 8.72833 14.5965 8.885 14.5965 9.085C14.5965 9.40167 14.4848 9.63667 14.2615 9.79C14.0382 9.94333 13.7298 10.02 13.3365 10.02C13.0865 10.02 12.8882 10 12.7415 9.96C12.5948 9.92 12.4882 9.86333 12.4215 9.79C12.3582 9.71667 12.3265 9.63 12.3265 9.53C12.3265 9.44333 12.3548 9.37667 12.4115 9.33C12.4715 9.28 12.5415 9.255 12.6215 9.255C12.6982 9.255 12.7798 9.265 12.8665 9.285C12.9532 9.30167 13.0448 9.32 13.1415 9.34C13.2382 9.36 13.3382 9.37 13.4415 9.37C13.7748 9.37 13.9415 9.26667 13.9415 9.06C13.9415 8.99 13.9248 8.93333 13.8915 8.89C13.8582 8.84667 13.7982 8.81167 13.7115 8.785C13.6248 8.755 13.4982 8.73167 13.3315 8.715C13.1315 8.695 12.9582 8.66167 12.8115 8.615C12.6648 8.565 12.5515 8.485 12.4715 8.375C12.3915 8.26167 12.3515 8.10667 12.3515 7.91C12.3515 7.6 12.4682 7.35 12.7015 7.16C12.9348 6.96667 13.2665 6.87 13.6965 6.87ZM16.3174 10.015C16.0507 10.015 15.8174 9.95667 15.6174 9.84C15.4207 9.72 15.2674 9.55 15.1574 9.33C15.0507 9.11 14.9974 8.84833 14.9974 8.545C14.9974 8.22833 15.0524 7.95167 15.1624 7.715C15.2724 7.47833 15.4274 7.29333 15.6274 7.16C15.8307 7.02667 16.0657 6.96 16.3324 6.96C16.6191 6.96 16.8674 7.025 17.0774 7.155C17.2874 7.28167 17.4507 7.46 17.5674 7.69C17.6841 7.92 17.7424 8.18833 17.7424 8.495C17.7424 8.80833 17.6841 9.07833 17.5674 9.305C17.4507 9.53167 17.2857 9.70667 17.0724 9.83C16.8591 9.95333 16.6074 10.015 16.3174 10.015ZM16.3874 9.34C16.5941 9.34 16.7574 9.25833 16.8774 9.095C17.0007 8.92833 17.0624 8.70833 17.0624 8.435C17.0624 8.15833 17.0007 7.93833 16.8774 7.775C16.7574 7.61167 16.5941 7.53 16.3874 7.53C16.1741 7.53 16.0057 7.61167 15.8824 7.775C15.7591 7.93833 15.6974 8.15833 15.6974 8.435C15.6974 8.70833 15.7591 8.92833 15.8824 9.095C16.0057 9.25833 16.1741 9.34 16.3874 9.34ZM18.7569 6.89C18.8636 6.89 18.9353 6.93333 18.9719 7.02C19.0119 7.10667 19.0319 7.235 19.0319 7.405C19.0319 7.445 19.0286 7.48833 19.0219 7.535C19.0186 7.57833 19.0119 7.61833 19.0019 7.655L18.9919 7.555C19.0719 7.33833 19.1953 7.17 19.3619 7.05C19.5286 6.92667 19.7053 6.865 19.8919 6.865C20.0986 6.865 20.2703 6.92333 20.4069 7.04C20.5469 7.15667 20.6503 7.32 20.7169 7.53C20.7869 7.74 20.8219 7.98833 20.8219 8.275C20.8219 8.45167 20.8136 8.62667 20.7969 8.8C20.7836 8.97 20.7636 9.12667 20.7369 9.27C20.7136 9.41 20.6869 9.525 20.6569 9.615C20.6169 9.72833 20.5653 9.81333 20.5019 9.87C20.4386 9.92333 20.3636 9.95 20.2769 9.95C20.1903 9.95 20.1236 9.91833 20.0769 9.855C20.0303 9.79167 20.0069 9.70667 20.0069 9.6C20.0069 9.48667 20.0153 9.35 20.0319 9.19C20.0486 9.02667 20.0636 8.86167 20.0769 8.695C20.0936 8.525 20.1019 8.37167 20.1019 8.235C20.1019 7.76833 19.9486 7.535 19.6419 7.535C19.4786 7.535 19.3419 7.60833 19.2319 7.755C19.1219 7.89833 19.0486 8.10333 19.0119 8.37C19.0019 8.46 18.9969 8.57167 18.9969 8.705C18.9969 8.83833 18.9969 8.97167 18.9969 9.105C19.0003 9.235 18.9969 9.345 18.9869 9.435C18.9736 9.635 18.9353 9.77833 18.8719 9.865C18.8119 9.95167 18.7286 9.995 18.6219 9.995C18.4986 9.995 18.4053 9.93833 18.3419 9.825C18.2786 9.70833 18.2469 9.51333 18.2469 9.24C18.2469 9.1 18.2503 8.94333 18.2569 8.77C18.2636 8.59667 18.2719 8.42333 18.2819 8.25C18.2953 8.07333 18.3103 7.91333 18.3269 7.77C18.3603 7.5 18.4086 7.28667 18.4719 7.13C18.5353 6.97 18.6303 6.89 18.7569 6.89ZM22.3855 9.92C22.0722 9.92 21.8172 9.8 21.6205 9.56C21.4239 9.31667 21.3255 8.94833 21.3255 8.455C21.3255 7.92833 21.4205 7.54333 21.6105 7.3C21.8005 7.05667 22.0505 6.935 22.3605 6.935C22.5439 6.935 22.7055 6.98167 22.8455 7.075C22.9855 7.16833 23.1055 7.3 23.2055 7.47L23.1655 7.54C23.1555 7.49333 23.1472 7.44333 23.1405 7.39C23.1339 7.33667 23.1305 7.29667 23.1305 7.27C23.1305 7.13333 23.1522 7.02833 23.1955 6.955C23.2422 6.87833 23.3139 6.84 23.4105 6.84C23.5172 6.84 23.6005 6.88333 23.6605 6.97C23.7239 7.05667 23.7722 7.18 23.8055 7.34C23.8489 7.50333 23.8855 7.71167 23.9155 7.965C23.9455 8.215 23.9605 8.46833 23.9605 8.725C23.9605 9.045 23.9489 9.31333 23.9255 9.53C23.9022 9.74667 23.8639 9.92667 23.8105 10.07C23.7572 10.2133 23.6872 10.3383 23.6005 10.445C23.4572 10.6183 23.2722 10.75 23.0455 10.84C22.8222 10.9333 22.5639 10.98 22.2705 10.98C22.0605 10.98 21.8922 10.96 21.7655 10.92C21.6389 10.8833 21.5472 10.8317 21.4905 10.765C21.4372 10.7017 21.4105 10.63 21.4105 10.55C21.4105 10.4667 21.4339 10.3967 21.4805 10.34C21.5272 10.2867 21.5972 10.26 21.6905 10.26C21.7739 10.26 21.8705 10.2733 21.9805 10.3C22.0939 10.3267 22.2272 10.34 22.3805 10.34C22.7039 10.34 22.9322 10.2633 23.0655 10.11C23.2022 9.96 23.2705 9.74333 23.2705 9.46C23.2705 9.38333 23.2655 9.29333 23.2555 9.19L23.3255 9.215C23.2422 9.42833 23.1189 9.6 22.9555 9.73C22.7922 9.85667 22.6022 9.92 22.3855 9.92ZM22.5755 9.305C22.6822 9.305 22.7889 9.27667 22.8955 9.22C23.0022 9.16333 23.0905 9.07 23.1605 8.94C23.2305 8.81 23.2655 8.635 23.2655 8.415C23.2655 8.15167 23.2039 7.93667 23.0805 7.77C22.9572 7.60333 22.7839 7.52 22.5605 7.52C22.3672 7.52 22.2255 7.59333 22.1355 7.74C22.0455 7.88667 22.0005 8.10833 22.0005 8.405C22.0005 8.68833 22.0455 8.91 22.1355 9.07C22.2255 9.22667 22.3722 9.305 22.5755 9.305ZM24.9102 10.05C24.8468 10.05 24.7952 10.0317 24.7552 9.995C24.7152 9.955 24.6868 9.89833 24.6702 9.825C24.6435 9.70167 24.6202 9.52333 24.6002 9.29C24.5802 9.05667 24.5702 8.79833 24.5702 8.515C24.5702 8.165 24.5818 7.82833 24.6052 7.505C24.6318 7.18167 24.6652 6.91667 24.7052 6.71C24.7485 6.48667 24.8018 6.32333 24.8652 6.22C24.9285 6.11333 25.0118 6.06 25.1152 6.06C25.2085 6.06 25.2802 6.10333 25.3302 6.19C25.3802 6.27333 25.4052 6.41833 25.4052 6.625C25.4052 6.83167 25.3968 7.05333 25.3802 7.29C25.3668 7.52667 25.3435 7.78 25.3102 8.05H25.3302C25.5468 7.75667 25.7485 7.52167 25.9352 7.345C26.1252 7.16833 26.2985 7.04 26.4552 6.96C26.6152 6.88 26.7568 6.84 26.8802 6.84C26.9768 6.84 27.0485 6.87 27.0952 6.93C27.1418 6.99 27.1652 7.06333 27.1652 7.15C27.1652 7.32 27.0285 7.51 26.7552 7.72C26.4852 7.93 26.0952 8.145 25.5852 8.365L25.5902 8.285C25.9068 8.44833 26.1785 8.62 26.4052 8.8C26.6352 8.97667 26.8102 9.145 26.9302 9.305C27.0535 9.46167 27.1152 9.59333 27.1152 9.7C27.1152 9.78667 27.0868 9.85833 27.0302 9.915C26.9768 9.96833 26.8985 9.995 26.7952 9.995C26.6652 9.995 26.5202 9.94667 26.3602 9.85C26.2035 9.75 26.0402 9.60167 25.8702 9.405C25.7002 9.20833 25.5302 8.96167 25.3602 8.665H25.3402C25.3368 8.875 25.3235 9.08 25.3002 9.28C25.2802 9.47667 25.2535 9.63833 25.2202 9.765C25.1968 9.85167 25.1602 9.92167 25.1102 9.975C25.0635 10.025 24.9968 10.05 24.9102 10.05ZM29.7532 10.05C29.6399 10.05 29.5616 10.0067 29.5182 9.92C29.4782 9.83 29.4549 9.68833 29.4482 9.495L29.4982 9.52C29.3116 9.88333 28.9582 10.065 28.4382 10.065C28.2016 10.065 28.0049 10.0233 27.8482 9.94C27.6916 9.85333 27.5749 9.74 27.4982 9.6C27.4249 9.45667 27.3882 9.30167 27.3882 9.135C27.3882 8.84833 27.4882 8.62167 27.6882 8.455C27.8882 8.285 28.1532 8.2 28.4832 8.2C28.6999 8.2 28.8882 8.23167 29.0482 8.295C29.2082 8.35833 29.3449 8.44667 29.4582 8.56L29.3732 8.55C29.3499 8.21333 29.2766 7.97333 29.1532 7.83C29.0332 7.68333 28.8616 7.61 28.6382 7.61C28.5082 7.61 28.3882 7.63 28.2782 7.67C28.1682 7.71 28.0666 7.75167 27.9732 7.795C27.8832 7.835 27.7982 7.855 27.7182 7.855C27.6382 7.855 27.5749 7.82833 27.5282 7.775C27.4849 7.72167 27.4632 7.65333 27.4632 7.57C27.4632 7.45 27.5199 7.33667 27.6332 7.23C27.7499 7.12333 27.9032 7.03667 28.0932 6.97C28.2832 6.90333 28.4899 6.87 28.7132 6.87C28.9832 6.87 29.2149 6.935 29.4082 7.065C29.6016 7.195 29.7482 7.385 29.8482 7.635C29.9349 7.84833 29.9966 8.08667 30.0332 8.35C30.0699 8.61333 30.0882 8.895 30.0882 9.195C30.0882 9.42167 30.0766 9.59667 30.0532 9.72C30.0299 9.84333 29.9932 9.93 29.9432 9.98C29.8966 10.0267 29.8332 10.05 29.7532 10.05ZM28.6482 9.49C28.7582 9.49 28.8699 9.475 28.9832 9.445C29.0966 9.41167 29.1916 9.36333 29.2682 9.3C29.3449 9.23667 29.3832 9.15833 29.3832 9.065C29.3832 8.985 29.3499 8.92 29.2832 8.87C29.2199 8.81667 29.1349 8.77667 29.0282 8.75C28.9249 8.72333 28.8132 8.71 28.6932 8.71C28.4899 8.71 28.3349 8.745 28.2282 8.815C28.1249 8.885 28.0732 8.97833 28.0732 9.095C28.0732 9.22167 28.1216 9.32 28.2182 9.39C28.3182 9.45667 28.4616 9.49 28.6482 9.49ZM31.2081 6.89C31.3148 6.89 31.3864 6.93333 31.4231 7.02C31.4631 7.10667 31.4831 7.235 31.4831 7.405C31.4831 7.445 31.4798 7.48833 31.4731 7.535C31.4698 7.57833 31.4631 7.61833 31.4531 7.655L31.4431 7.555C31.5231 7.33833 31.6464 7.17 31.8131 7.05C31.9798 6.92667 32.1564 6.865 32.3431 6.865C32.5498 6.865 32.7214 6.92333 32.8581 7.04C32.9981 7.15667 33.1014 7.32 33.1681 7.53C33.2381 7.74 33.2731 7.98833 33.2731 8.275C33.2731 8.45167 33.2648 8.62667 33.2481 8.8C33.2348 8.97 33.2148 9.12667 33.1881 9.27C33.1648 9.41 33.1381 9.525 33.1081 9.615C33.0681 9.72833 33.0164 9.81333 32.9531 9.87C32.8898 9.92333 32.8148 9.95 32.7281 9.95C32.6414 9.95 32.5748 9.91833 32.5281 9.855C32.4814 9.79167 32.4581 9.70667 32.4581 9.6C32.4581 9.48667 32.4664 9.35 32.4831 9.19C32.4998 9.02667 32.5148 8.86167 32.5281 8.695C32.5448 8.525 32.5531 8.37167 32.5531 8.235C32.5531 7.76833 32.3998 7.535 32.0931 7.535C31.9298 7.535 31.7931 7.60833 31.6831 7.755C31.5731 7.89833 31.4998 8.10333 31.4631 8.37C31.4531 8.46 31.4481 8.57167 31.4481 8.705C31.4481 8.83833 31.4481 8.97167 31.4481 9.105C31.4514 9.235 31.4481 9.345 31.4381 9.435C31.4248 9.635 31.3864 9.77833 31.3231 9.865C31.2631 9.95167 31.1798 9.995 31.0731 9.995C30.9498 9.995 30.8564 9.93833 30.7931 9.825C30.7298 9.70833 30.6981 9.51333 30.6981 9.24C30.6981 9.1 30.7014 8.94333 30.7081 8.77C30.7148 8.59667 30.7231 8.42333 30.7331 8.25C30.7464 8.07333 30.7614 7.91333 30.7781 7.77C30.8114 7.5 30.8598 7.28667 30.9231 7.13C30.9864 6.97 31.0814 6.89 31.2081 6.89ZM35.3427 6.275C35.4293 6.275 35.4977 6.30833 35.5477 6.375C35.5977 6.44167 35.6343 6.545 35.6577 6.685C35.6843 6.82833 35.7043 7.01667 35.7177 7.25C35.731 7.48333 35.7377 7.73833 35.7377 8.015C35.7377 8.255 35.7293 8.485 35.7127 8.705C35.6993 8.925 35.6793 9.13 35.6527 9.32C35.626 9.51333 35.5843 9.64833 35.5277 9.725C35.471 9.80167 35.3943 9.84 35.2977 9.84C35.2043 9.84 35.131 9.81 35.0777 9.75C35.0277 9.69 34.9927 9.58833 34.9727 9.445C34.9527 9.315 34.936 9.145 34.9227 8.935C34.9127 8.725 34.9077 8.50167 34.9077 8.265C34.9077 7.93833 34.9177 7.64167 34.9377 7.375C34.9577 7.10833 34.9843 6.88667 35.0177 6.71C35.0477 6.56 35.086 6.45 35.1327 6.38C35.1827 6.31 35.2527 6.275 35.3427 6.275ZM37.6369 6.87C37.9336 6.87 38.1469 6.91333 38.2769 7C38.4069 7.08667 38.4719 7.19833 38.4719 7.335C38.4719 7.415 38.4436 7.48167 38.3869 7.535C38.3336 7.585 38.2569 7.61 38.1569 7.61C38.0536 7.61 37.9453 7.595 37.8319 7.565C37.7219 7.535 37.5936 7.52 37.4469 7.52C37.2769 7.52 37.1503 7.55333 37.0669 7.62C36.9836 7.68667 36.9419 7.77167 36.9419 7.875C36.9419 7.97167 36.9786 8.04833 37.0519 8.105C37.1286 8.15833 37.2736 8.19833 37.4869 8.225C37.7236 8.25167 37.9186 8.295 38.0719 8.355C38.2286 8.41167 38.3453 8.49833 38.4219 8.615C38.4986 8.72833 38.5369 8.885 38.5369 9.085C38.5369 9.40167 38.4253 9.63667 38.2019 9.79C37.9786 9.94333 37.6703 10.02 37.2769 10.02C37.0269 10.02 36.8286 10 36.6819 9.96C36.5353 9.92 36.4286 9.86333 36.3619 9.79C36.2986 9.71667 36.2669 9.63 36.2669 9.53C36.2669 9.44333 36.2953 9.37667 36.3519 9.33C36.4119 9.28 36.4819 9.255 36.5619 9.255C36.6386 9.255 36.7203 9.265 36.8069 9.285C36.8936 9.30167 36.9853 9.32 37.0819 9.34C37.1786 9.36 37.2786 9.37 37.3819 9.37C37.7153 9.37 37.8819 9.26667 37.8819 9.06C37.8819 8.99 37.8653 8.93333 37.8319 8.89C37.7986 8.84667 37.7386 8.81167 37.6519 8.785C37.5653 8.755 37.4386 8.73167 37.2719 8.715C37.0719 8.695 36.8986 8.66167 36.7519 8.615C36.6053 8.565 36.4919 8.485 36.4119 8.375C36.3319 8.26167 36.2919 8.10667 36.2919 7.91C36.2919 7.6 36.4086 7.35 36.6419 7.16C36.8753 6.96667 37.2069 6.87 37.6369 6.87ZM39.4828 6.165C39.6162 6.165 39.7112 6.20167 39.7678 6.275C39.8278 6.34833 39.8578 6.43333 39.8578 6.53C39.8578 6.65 39.8212 6.74333 39.7478 6.81C39.6778 6.87333 39.5778 6.905 39.4478 6.905C39.3212 6.905 39.2262 6.87 39.1628 6.8C39.0995 6.72667 39.0678 6.64167 39.0678 6.545C39.0678 6.41833 39.1062 6.32333 39.1828 6.26C39.2595 6.19667 39.3595 6.165 39.4828 6.165ZM39.5128 7.28C39.6195 7.28 39.7028 7.38 39.7628 7.58C39.8262 7.78 39.8578 8.09833 39.8578 8.535C39.8578 9.07167 39.8195 9.45833 39.7428 9.695C39.6662 9.93167 39.5495 10.05 39.3928 10.05C39.2728 10.05 39.1845 9.96333 39.1278 9.79C39.0712 9.61333 39.0428 9.30667 39.0428 8.87C39.0428 8.33333 39.0862 7.935 39.1728 7.675C39.2628 7.41167 39.3762 7.28 39.5128 7.28ZM41.8246 10.05C41.7646 10.05 41.7163 10.03 41.6796 9.99C41.6429 9.94667 41.6129 9.87833 41.5896 9.785C41.5663 9.67833 41.5446 9.51167 41.5246 9.285C41.5046 9.055 41.4946 8.79833 41.4946 8.515C41.4946 8.20833 41.5029 7.91 41.5196 7.62C41.5396 7.32667 41.5679 7.06833 41.6046 6.845C41.6313 6.69833 41.6696 6.59 41.7196 6.52C41.7729 6.44667 41.8463 6.41 41.9396 6.41C41.9996 6.41 42.0529 6.43 42.0996 6.47C42.1463 6.51 42.1813 6.58167 42.2046 6.685C42.2313 6.78833 42.2446 6.935 42.2446 7.125C42.2446 7.21833 42.2413 7.325 42.2346 7.445C42.2279 7.56167 42.2179 7.69167 42.2046 7.835H42.2246C42.4913 7.46833 42.7263 7.17667 42.9296 6.96C43.1329 6.74 43.3113 6.58167 43.4646 6.485C43.6213 6.38833 43.7579 6.34 43.8746 6.34C43.9679 6.34 44.0379 6.37 44.0846 6.43C44.1346 6.49 44.1596 6.56333 44.1596 6.65C44.1596 6.83333 44.0213 7.05333 43.7446 7.31C43.4713 7.56667 43.0296 7.875 42.4196 8.235L42.4596 8.14C42.9863 8.47333 43.3846 8.76833 43.6546 9.025C43.9246 9.27833 44.0596 9.50333 44.0596 9.7C44.0596 9.78667 44.0313 9.85833 43.9746 9.915C43.9213 9.96833 43.8413 9.995 43.7346 9.995C43.6013 9.995 43.4596 9.95 43.3096 9.86C43.1596 9.76667 42.9929 9.61167 42.8096 9.395C42.6296 9.175 42.4246 8.87667 42.1946 8.5H42.1746C42.1813 8.57667 42.1863 8.65667 42.1896 8.74C42.1929 8.82 42.1946 8.9 42.1946 8.98C42.1946 9.36333 42.1679 9.63833 42.1146 9.805C42.0613 9.96833 41.9646 10.05 41.8246 10.05ZM45.7998 10.015C45.5332 10.015 45.2998 9.95667 45.0998 9.84C44.9032 9.72 44.7498 9.55 44.6398 9.33C44.5332 9.11 44.4798 8.84833 44.4798 8.545C44.4798 8.22833 44.5348 7.95167 44.6448 7.715C44.7548 7.47833 44.9098 7.29333 45.1098 7.16C45.3132 7.02667 45.5482 6.96 45.8148 6.96C46.1015 6.96 46.3498 7.025 46.5598 7.155C46.7698 7.28167 46.9332 7.46 47.0498 7.69C47.1665 7.92 47.2248 8.18833 47.2248 8.495C47.2248 8.80833 47.1665 9.07833 47.0498 9.305C46.9332 9.53167 46.7682 9.70667 46.5548 9.83C46.3415 9.95333 46.0898 10.015 45.7998 10.015ZM45.8698 9.34C46.0765 9.34 46.2398 9.25833 46.3598 9.095C46.4832 8.92833 46.5448 8.70833 46.5448 8.435C46.5448 8.15833 46.4832 7.93833 46.3598 7.775C46.2398 7.61167 46.0765 7.53 45.8698 7.53C45.6565 7.53 45.4882 7.61167 45.3648 7.775C45.2415 7.93833 45.1798 8.15833 45.1798 8.435C45.1798 8.70833 45.2415 8.92833 45.3648 9.095C45.4882 9.25833 45.6565 9.34 45.8698 9.34ZM48.5255 6.99H48.4255C48.4155 6.84333 48.4189 6.705 48.4355 6.575C48.4522 6.44167 48.4872 6.335 48.5405 6.255C48.5972 6.17167 48.6772 6.13 48.7805 6.13C48.8739 6.13 48.9422 6.16 48.9855 6.22C49.0289 6.28 49.0505 6.36333 49.0505 6.47C49.0505 6.68 49.0105 6.86 48.9305 7.01L48.8405 7C49.0205 6.93667 49.2239 6.905 49.4505 6.905C49.5939 6.905 49.7072 6.93333 49.7905 6.99C49.8772 7.04333 49.9205 7.135 49.9205 7.265C49.9205 7.38833 49.8705 7.48167 49.7705 7.545C49.6705 7.60833 49.5455 7.64 49.3955 7.64C49.3055 7.64 49.2089 7.63667 49.1055 7.63C49.0055 7.62 48.9072 7.605 48.8105 7.585L48.8955 7.48C48.9255 7.60667 48.9539 7.75167 48.9805 7.915C49.0105 8.075 49.0372 8.24167 49.0605 8.415C49.0839 8.58833 49.1022 8.75667 49.1155 8.92C49.1289 9.08333 49.1355 9.23 49.1355 9.36C49.1355 9.57333 49.1022 9.74167 49.0355 9.865C48.9689 9.98833 48.8705 10.05 48.7405 10.05C48.6372 10.05 48.5555 10.0183 48.4955 9.955C48.4389 9.89167 48.3972 9.81167 48.3705 9.715C48.3472 9.615 48.3322 9.51167 48.3255 9.405C48.3222 9.29833 48.3205 9.20167 48.3205 9.115C48.3205 8.96833 48.3272 8.80333 48.3405 8.62C48.3539 8.43333 48.3722 8.24167 48.3955 8.045C48.4222 7.84833 48.4522 7.65833 48.4855 7.475L48.5855 7.56C48.4155 7.64667 48.2055 7.69 47.9555 7.69C47.8022 7.69 47.6839 7.66167 47.6005 7.605C47.5172 7.54833 47.4755 7.46 47.4755 7.34C47.4755 7.21 47.5222 7.11 47.6155 7.04C47.7089 6.96667 47.8339 6.93 47.9905 6.93C48.0939 6.93 48.1905 6.93667 48.2805 6.95C48.3739 6.96 48.4555 6.97333 48.5255 6.99ZM52.512 10.05C52.3987 10.05 52.3203 10.0067 52.277 9.92C52.237 9.83 52.2137 9.68833 52.207 9.495L52.257 9.52C52.0703 9.88333 51.717 10.065 51.197 10.065C50.9603 10.065 50.7637 10.0233 50.607 9.94C50.4503 9.85333 50.3337 9.74 50.257 9.6C50.1837 9.45667 50.147 9.30167 50.147 9.135C50.147 8.84833 50.247 8.62167 50.447 8.455C50.647 8.285 50.912 8.2 51.242 8.2C51.4587 8.2 51.647 8.23167 51.807 8.295C51.967 8.35833 52.1037 8.44667 52.217 8.56L52.132 8.55C52.1087 8.21333 52.0353 7.97333 51.912 7.83C51.792 7.68333 51.6203 7.61 51.397 7.61C51.267 7.61 51.147 7.63 51.037 7.67C50.927 7.71 50.8253 7.75167 50.732 7.795C50.642 7.835 50.557 7.855 50.477 7.855C50.397 7.855 50.3337 7.82833 50.287 7.775C50.2437 7.72167 50.222 7.65333 50.222 7.57C50.222 7.45 50.2787 7.33667 50.392 7.23C50.5087 7.12333 50.662 7.03667 50.852 6.97C51.042 6.90333 51.2487 6.87 51.472 6.87C51.742 6.87 51.9737 6.935 52.167 7.065C52.3603 7.195 52.507 7.385 52.607 7.635C52.6937 7.84833 52.7553 8.08667 52.792 8.35C52.8287 8.61333 52.847 8.895 52.847 9.195C52.847 9.42167 52.8353 9.59667 52.812 9.72C52.7887 9.84333 52.752 9.93 52.702 9.98C52.6553 10.0267 52.592 10.05 52.512 10.05ZM51.407 9.49C51.517 9.49 51.6287 9.475 51.742 9.445C51.8553 9.41167 51.9503 9.36333 52.027 9.3C52.1037 9.23667 52.142 9.15833 52.142 9.065C52.142 8.985 52.1087 8.92 52.042 8.87C51.9787 8.81667 51.8937 8.77667 51.787 8.75C51.6837 8.72333 51.572 8.71 51.452 8.71C51.2487 8.71 51.0937 8.745 50.987 8.815C50.8837 8.885 50.832 8.97833 50.832 9.095C50.832 9.22167 50.8803 9.32 50.977 9.39C51.077 9.45667 51.2203 9.49 51.407 9.49ZM53.7969 10.05C53.7336 10.05 53.6819 10.0317 53.6419 9.995C53.6019 9.955 53.5736 9.89833 53.5569 9.825C53.5302 9.70167 53.5069 9.52333 53.4869 9.29C53.4669 9.05667 53.4569 8.79833 53.4569 8.515C53.4569 8.165 53.4686 7.82833 53.4919 7.505C53.5186 7.18167 53.5519 6.91667 53.5919 6.71C53.6352 6.48667 53.6886 6.32333 53.7519 6.22C53.8152 6.11333 53.8986 6.06 54.0019 6.06C54.0952 6.06 54.1669 6.10333 54.2169 6.19C54.2669 6.27333 54.2919 6.41833 54.2919 6.625C54.2919 6.83167 54.2836 7.05333 54.2669 7.29C54.2536 7.52667 54.2302 7.78 54.1969 8.05H54.2169C54.4336 7.75667 54.6352 7.52167 54.8219 7.345C55.0119 7.16833 55.1852 7.04 55.3419 6.96C55.5019 6.88 55.6436 6.84 55.7669 6.84C55.8636 6.84 55.9352 6.87 55.9819 6.93C56.0286 6.99 56.0519 7.06333 56.0519 7.15C56.0519 7.32 55.9152 7.51 55.6419 7.72C55.3719 7.93 54.9819 8.145 54.4719 8.365L54.4769 8.285C54.7936 8.44833 55.0652 8.62 55.2919 8.8C55.5219 8.97667 55.6969 9.145 55.8169 9.305C55.9402 9.46167 56.0019 9.59333 56.0019 9.7C56.0019 9.78667 55.9736 9.85833 55.9169 9.915C55.8636 9.96833 55.7852 9.995 55.6819 9.995C55.5519 9.995 55.4069 9.94667 55.2469 9.85C55.0902 9.75 54.9269 9.60167 54.7569 9.405C54.5869 9.20833 54.4169 8.96167 54.2469 8.665H54.2269C54.2236 8.875 54.2102 9.08 54.1869 9.28C54.1669 9.47667 54.1402 9.63833 54.1069 9.765C54.0836 9.85167 54.0469 9.92167 53.9969 9.975C53.9502 10.025 53.8836 10.05 53.7969 10.05Z"></path>
</svg>
