<svg width="195" height="112" viewBox="0 0 195 112" fill="none" xmlns="http://www.w3.org/2000/svg">
<path d="M10 96L37.3528 16H173L146.766 95.4L10 96Z" stroke="black" stroke-width="2"/>
<path d="M30.001 12.077C29.7883 12.077 29.6233 11.9963 29.506 11.835C29.3887 11.6737 29.33 11.3803 29.33 10.955C29.33 10.6543 29.363 10.295 29.429 9.877C29.5023 9.45167 29.6013 9.00067 29.726 8.524C29.8507 8.04 29.9973 7.55967 30.166 7.083C30.3347 6.599 30.518 6.148 30.716 5.73C30.936 5.25333 31.1487 4.883 31.354 4.619C31.5593 4.34767 31.7683 4.157 31.981 4.047C32.1937 3.92967 32.4173 3.871 32.652 3.871C33.004 3.871 33.3267 4.01033 33.62 4.289C33.9207 4.56767 34.2067 5.02967 34.478 5.675C34.676 6.16633 34.8557 6.70533 35.017 7.292C35.1783 7.87867 35.303 8.47267 35.391 9.074C35.4863 9.67533 35.534 10.2437 35.534 10.779C35.534 11.2263 35.457 11.5563 35.303 11.769C35.1563 11.9743 34.951 12.077 34.687 12.077C34.4303 12.077 34.2323 11.9633 34.093 11.736C33.9537 11.5087 33.8547 11.131 33.796 10.603C33.7667 10.2803 33.752 9.94667 33.752 9.602C33.752 9.25 33.7667 8.91633 33.796 8.601L33.983 9.448C33.7263 9.536 33.4037 9.59467 33.015 9.624C32.6337 9.646 32.234 9.63867 31.816 9.602C31.4053 9.558 31.0203 9.481 30.661 9.371L31.244 8.623C31.2513 8.975 31.233 9.31967 31.189 9.657C31.145 9.987 31.0937 10.2913 31.035 10.57C30.9763 10.8927 30.9067 11.1677 30.826 11.395C30.7453 11.6223 30.639 11.7947 30.507 11.912C30.3823 12.022 30.2137 12.077 30.001 12.077ZM32.586 8.326C33.0113 8.326 33.3193 8.26367 33.51 8.139C33.708 8.007 33.807 7.81633 33.807 7.567C33.807 7.391 33.774 7.17467 33.708 6.918C33.6493 6.654 33.565 6.39733 33.455 6.148C33.345 5.89867 33.2167 5.68967 33.07 5.521C32.9307 5.35233 32.7767 5.268 32.608 5.268C32.4467 5.268 32.2927 5.356 32.146 5.532C32.0067 5.70067 31.882 5.91333 31.772 6.17C31.662 6.42667 31.574 6.69067 31.508 6.962C31.442 7.226 31.409 7.45333 31.409 7.644C31.409 7.864 31.5043 8.03267 31.695 8.15C31.893 8.26733 32.19 8.326 32.586 8.326Z" fill="#0C0C0C"/>
<path d="M90.443 4.245C91.345 4.245 92.027 4.42833 92.489 4.795C92.951 5.16167 93.182 5.68967 93.182 6.379C93.182 6.89233 93.0353 7.325 92.742 7.677C92.4487 8.029 92.0637 8.293 91.587 8.469L91.543 8.095C92.093 8.19767 92.5183 8.41033 92.819 8.733C93.127 9.04833 93.281 9.481 93.281 10.031C93.281 10.6983 93.0317 11.2153 92.533 11.582C92.0343 11.9413 91.2387 12.121 90.146 12.121C89.4787 12.121 88.947 12.044 88.551 11.89C88.155 11.7287 87.869 11.505 87.693 11.219C87.5243 10.933 87.44 10.6067 87.44 10.24C87.44 9.67533 87.6233 9.20967 87.99 8.843C88.3567 8.469 88.8773 8.216 89.552 8.084L89.585 8.546C89.0057 8.51667 88.5327 8.32967 88.166 7.985C87.8067 7.64033 87.627 7.149 87.627 6.511C87.627 6.005 87.7517 5.58333 88.001 5.246C88.2503 4.90867 88.5877 4.65933 89.013 4.498C89.4383 4.32933 89.915 4.245 90.443 4.245ZM91.609 6.588C91.609 6.30933 91.488 6.11133 91.246 5.994C91.004 5.87667 90.718 5.818 90.388 5.818C89.9407 5.818 89.5923 5.89867 89.343 6.06C89.101 6.22133 88.98 6.43767 88.98 6.709C88.98 6.95833 89.0717 7.15267 89.255 7.292C89.4457 7.43133 89.7537 7.501 90.179 7.501C90.6483 7.501 91.004 7.42767 91.246 7.281C91.488 7.13433 91.609 6.90333 91.609 6.588ZM90.399 8.865C89.9223 8.865 89.563 8.96033 89.321 9.151C89.079 9.33433 88.958 9.55067 88.958 9.8C88.958 10.086 89.068 10.2913 89.288 10.416C89.5153 10.5333 89.849 10.592 90.289 10.592C90.795 10.592 91.1617 10.5077 91.389 10.339C91.6163 10.1703 91.73 9.95033 91.73 9.679C91.73 9.437 91.6383 9.24267 91.455 9.096C91.2717 8.942 90.9197 8.865 90.399 8.865ZM99.3038 12.121C98.2918 12.121 97.5474 11.857 97.0708 11.329C96.6014 10.801 96.3668 10.0677 96.3668 9.129C96.3668 8.403 96.5061 7.76133 96.7848 7.204C97.0708 6.63933 97.4778 6.19933 98.0058 5.884C98.5411 5.56133 99.1791 5.4 99.9198 5.4C100.587 5.4 101.093 5.51 101.438 5.73C101.79 5.94267 101.966 6.21767 101.966 6.555C101.966 6.76033 101.9 6.92533 101.768 7.05C101.643 7.16733 101.456 7.226 101.207 7.226C101.067 7.226 100.924 7.204 100.778 7.16C100.638 7.116 100.484 7.072 100.316 7.028C100.147 6.984 99.9454 6.962 99.7108 6.962C99.1021 6.962 98.6438 7.12333 98.3358 7.446C98.0351 7.76867 97.8848 8.23433 97.8848 8.843C97.8848 9.42233 98.0314 9.844 98.3248 10.108C98.6181 10.3647 99.0178 10.493 99.5238 10.493C99.7731 10.493 99.9894 10.4673 100.173 10.416C100.363 10.3573 100.539 10.3023 100.701 10.251C100.869 10.1923 101.038 10.163 101.207 10.163C101.375 10.163 101.515 10.218 101.625 10.328C101.735 10.4307 101.79 10.581 101.79 10.779C101.79 11.0063 101.698 11.2227 101.515 11.428C101.331 11.6333 101.056 11.802 100.69 11.934C100.323 12.0587 99.8611 12.121 99.3038 12.121ZM107.43 6.962C107.503 6.66133 107.631 6.39 107.815 6.148C108.005 5.906 108.233 5.71533 108.497 5.576C108.768 5.42933 109.065 5.356 109.388 5.356C109.769 5.356 110.106 5.44767 110.4 5.631C110.693 5.81433 110.924 6.115 111.093 6.533C111.269 6.951 111.357 7.50833 111.357 8.205C111.357 8.56433 111.342 8.92733 111.313 9.294C111.283 9.66067 111.247 10.0017 111.203 10.317C111.159 10.6323 111.111 10.8963 111.06 11.109C110.986 11.4023 110.873 11.626 110.719 11.78C110.572 11.934 110.385 12.011 110.158 12.011C109.967 12.011 109.817 11.9267 109.707 11.758C109.597 11.5893 109.542 11.3473 109.542 11.032C109.542 10.8853 109.56 10.6983 109.597 10.471C109.633 10.2363 109.674 9.98333 109.718 9.712C109.762 9.43333 109.802 9.151 109.839 8.865C109.875 8.579 109.894 8.30767 109.894 8.051C109.894 7.66967 109.817 7.37633 109.663 7.171C109.509 6.95833 109.292 6.852 109.014 6.852C108.706 6.852 108.449 7.01333 108.244 7.336C108.046 7.65133 107.928 8.11333 107.892 8.722C107.862 9.26467 107.837 9.74867 107.815 10.174C107.793 10.592 107.738 10.9367 107.65 11.208C107.591 11.3987 107.507 11.5417 107.397 11.637C107.294 11.7323 107.155 11.78 106.979 11.78C106.781 11.78 106.623 11.7067 106.506 11.56C106.396 11.4133 106.333 11.1823 106.319 10.867C106.304 10.603 106.3 10.2913 106.308 9.932C106.315 9.57267 106.319 9.217 106.319 8.865C106.326 8.50567 106.322 8.20867 106.308 7.974C106.278 7.50467 106.194 7.16 106.055 6.94C105.923 6.72 105.721 6.61 105.45 6.61C105.134 6.61 104.881 6.75667 104.691 7.05C104.507 7.34333 104.394 7.75033 104.35 8.271C104.335 8.48367 104.328 8.74767 104.328 9.063C104.335 9.371 104.342 9.679 104.35 9.987C104.357 10.295 104.353 10.5517 104.339 10.757C104.331 11.197 104.262 11.5123 104.13 11.703C104.005 11.8937 103.829 11.989 103.602 11.989C103.33 11.989 103.132 11.901 103.008 11.725C102.89 11.549 102.813 11.2667 102.777 10.878C102.747 10.5333 102.725 10.1923 102.711 9.855C102.696 9.51033 102.689 9.16933 102.689 8.832C102.689 8.48733 102.696 8.11333 102.711 7.71C102.733 7.30667 102.762 6.92533 102.799 6.566C102.843 6.19933 102.92 5.89133 103.03 5.642C103.14 5.39267 103.323 5.268 103.58 5.268C103.792 5.268 103.943 5.37433 104.031 5.587C104.119 5.79233 104.163 6.11133 104.163 6.544C104.163 6.69067 104.152 6.82633 104.13 6.951L104.097 6.731C104.243 6.25433 104.478 5.884 104.801 5.62C105.123 5.34867 105.483 5.213 105.879 5.213C106.399 5.213 106.806 5.38167 107.1 5.719C107.393 6.049 107.554 6.50733 107.584 7.094L107.43 6.962Z" fill="#0C0C0C"/>
<path d="M173.368 54.334C173.368 54.5613 173.28 54.7483 173.104 54.895C172.935 55.0343 172.69 55.104 172.367 55.104C172.154 55.104 171.905 55.0967 171.619 55.082C171.34 55.06 171.054 55.0343 170.761 55.005C170.475 54.9683 170.211 54.9317 169.969 54.895L170.266 54.73C170.259 55.0967 170.226 55.4743 170.167 55.863C170.116 56.2517 170.05 56.578 169.969 56.842L169.606 56.776C169.929 56.732 170.248 56.71 170.563 56.71C171.502 56.71 172.202 56.8933 172.664 57.26C173.126 57.6267 173.357 58.1253 173.357 58.756C173.357 59.2033 173.254 59.6067 173.049 59.966C172.844 60.318 172.536 60.6003 172.125 60.813C171.722 61.0183 171.212 61.121 170.596 61.121C170.031 61.121 169.584 61.077 169.254 60.989C168.931 60.8937 168.704 60.769 168.572 60.615C168.44 60.4537 168.374 60.274 168.374 60.076C168.374 59.8927 168.425 59.7423 168.528 59.625C168.638 59.5003 168.796 59.438 169.001 59.438C169.25 59.438 169.522 59.471 169.815 59.537C170.116 59.603 170.391 59.636 170.64 59.636C171.043 59.636 171.351 59.57 171.564 59.438C171.784 59.306 171.894 59.119 171.894 58.877C171.894 58.591 171.78 58.382 171.553 58.25C171.326 58.118 171.007 58.052 170.596 58.052C170.413 58.052 170.218 58.0557 170.013 58.063C169.808 58.0703 169.643 58.074 169.518 58.074C169.239 58.074 169.034 58.019 168.902 57.909C168.777 57.7917 168.715 57.5863 168.715 57.293C168.715 57.029 168.726 56.7173 168.748 56.358C168.77 55.9913 168.799 55.632 168.836 55.28C168.873 54.9207 168.909 54.6273 168.946 54.4C169.005 54.0773 169.115 53.8317 169.276 53.663C169.437 53.4943 169.687 53.41 170.024 53.41C170.266 53.41 170.541 53.4173 170.849 53.432C171.164 53.4393 171.476 53.4577 171.784 53.487C172.099 53.509 172.374 53.5383 172.609 53.575C173.115 53.6483 173.368 53.9013 173.368 54.334ZM179.391 61.121C178.379 61.121 177.634 60.857 177.158 60.329C176.688 59.801 176.454 59.0677 176.454 58.129C176.454 57.403 176.593 56.7613 176.872 56.204C177.158 55.6393 177.565 55.1993 178.093 54.884C178.628 54.5613 179.266 54.4 180.007 54.4C180.674 54.4 181.18 54.51 181.525 54.73C181.877 54.9427 182.053 55.2177 182.053 55.555C182.053 55.7603 181.987 55.9253 181.855 56.05C181.73 56.1673 181.543 56.226 181.294 56.226C181.154 56.226 181.011 56.204 180.865 56.16C180.725 56.116 180.571 56.072 180.403 56.028C180.234 55.984 180.032 55.962 179.798 55.962C179.189 55.962 178.731 56.1233 178.423 56.446C178.122 56.7687 177.972 57.2343 177.972 57.843C177.972 58.4223 178.118 58.844 178.412 59.108C178.705 59.3647 179.105 59.493 179.611 59.493C179.86 59.493 180.076 59.4673 180.26 59.416C180.45 59.3573 180.626 59.3023 180.788 59.251C180.956 59.1923 181.125 59.163 181.294 59.163C181.462 59.163 181.602 59.218 181.712 59.328C181.822 59.4307 181.877 59.581 181.877 59.779C181.877 60.0063 181.785 60.2227 181.602 60.428C181.418 60.6333 181.143 60.802 180.777 60.934C180.41 61.0587 179.948 61.121 179.391 61.121ZM187.516 55.962C187.59 55.6613 187.718 55.39 187.901 55.148C188.092 54.906 188.319 54.7153 188.583 54.576C188.855 54.4293 189.152 54.356 189.474 54.356C189.856 54.356 190.193 54.4477 190.486 54.631C190.78 54.8143 191.011 55.115 191.179 55.533C191.355 55.951 191.443 56.5083 191.443 57.205C191.443 57.5643 191.429 57.9273 191.399 58.294C191.37 58.6607 191.333 59.0017 191.289 59.317C191.245 59.6323 191.198 59.8963 191.146 60.109C191.073 60.4023 190.959 60.626 190.805 60.78C190.659 60.934 190.472 61.011 190.244 61.011C190.054 61.011 189.903 60.9267 189.793 60.758C189.683 60.5893 189.628 60.3473 189.628 60.032C189.628 59.8853 189.647 59.6983 189.683 59.471C189.72 59.2363 189.76 58.9833 189.804 58.712C189.848 58.4333 189.889 58.151 189.925 57.865C189.962 57.579 189.98 57.3077 189.98 57.051C189.98 56.6697 189.903 56.3763 189.749 56.171C189.595 55.9583 189.379 55.852 189.1 55.852C188.792 55.852 188.536 56.0133 188.33 56.336C188.132 56.6513 188.015 57.1133 187.978 57.722C187.949 58.2647 187.923 58.7487 187.901 59.174C187.879 59.592 187.824 59.9367 187.736 60.208C187.678 60.3987 187.593 60.5417 187.483 60.637C187.381 60.7323 187.241 60.78 187.065 60.78C186.867 60.78 186.71 60.7067 186.592 60.56C186.482 60.4133 186.42 60.1823 186.405 59.867C186.391 59.603 186.387 59.2913 186.394 58.932C186.402 58.5727 186.405 58.217 186.405 57.865C186.413 57.5057 186.409 57.2087 186.394 56.974C186.365 56.5047 186.281 56.16 186.141 55.94C186.009 55.72 185.808 55.61 185.536 55.61C185.221 55.61 184.968 55.7567 184.777 56.05C184.594 56.3433 184.48 56.7503 184.436 57.271C184.422 57.4837 184.414 57.7477 184.414 58.063C184.422 58.371 184.429 58.679 184.436 58.987C184.444 59.295 184.44 59.5517 184.425 59.757C184.418 60.197 184.348 60.5123 184.216 60.703C184.092 60.8937 183.916 60.989 183.688 60.989C183.417 60.989 183.219 60.901 183.094 60.725C182.977 60.549 182.9 60.2667 182.863 59.878C182.834 59.5333 182.812 59.1923 182.797 58.855C182.783 58.5103 182.775 58.1693 182.775 57.832C182.775 57.4873 182.783 57.1133 182.797 56.71C182.819 56.3067 182.849 55.9253 182.885 55.566C182.929 55.1993 183.006 54.8913 183.116 54.642C183.226 54.3927 183.41 54.268 183.666 54.268C183.879 54.268 184.029 54.3743 184.117 54.587C184.205 54.7923 184.249 55.1113 184.249 55.544C184.249 55.6907 184.238 55.8263 184.216 55.951L184.183 55.731C184.33 55.2543 184.565 54.884 184.887 54.62C185.21 54.3487 185.569 54.213 185.965 54.213C186.486 54.213 186.893 54.3817 187.186 54.719C187.48 55.049 187.641 55.5073 187.67 56.094L187.516 55.962Z" fill="#0C0C0C"/>
<path d="M179.816 11.055C179.361 11.055 178.984 10.9707 178.683 10.802C178.39 10.626 178.17 10.3583 178.023 9.999C177.92 9.74967 177.843 9.449 177.792 9.097C177.748 8.73767 177.726 8.327 177.726 7.865C177.726 7.073 177.752 6.42033 177.803 5.907C177.854 5.38633 177.928 4.96833 178.023 4.653C178.126 4.33033 178.239 4.07 178.364 3.872C178.562 3.57133 178.877 3.32933 179.31 3.146C179.743 2.96267 180.355 2.871 181.147 2.871C181.675 2.871 182.097 2.95167 182.412 3.113C182.735 3.267 182.966 3.47233 183.105 3.729C183.252 3.98567 183.325 4.27167 183.325 4.587C183.325 5.08567 183.178 5.49633 182.885 5.819C182.592 6.14167 182.207 6.39833 181.73 6.589V6.633C182.251 6.69167 182.654 6.86033 182.94 7.139C183.233 7.41033 183.38 7.799 183.38 8.305C183.38 8.70833 183.277 9.07867 183.072 9.416C182.874 9.746 182.603 10.0357 182.258 10.285C181.921 10.527 181.539 10.7177 181.114 10.857C180.689 10.989 180.256 11.055 179.816 11.055ZM180.157 9.735C180.509 9.735 180.821 9.67633 181.092 9.559C181.371 9.44167 181.587 9.284 181.741 9.086C181.902 8.88067 181.983 8.64967 181.983 8.393C181.983 8.11433 181.847 7.88333 181.576 7.7C181.312 7.50933 180.898 7.414 180.333 7.414C179.952 7.414 179.647 7.50567 179.42 7.689C179.2 7.865 179.09 8.16933 179.09 8.602C179.09 9.01267 179.178 9.306 179.354 9.482C179.53 9.65067 179.798 9.735 180.157 9.735ZM180.201 6.248C180.7 6.248 181.114 6.138 181.444 5.918C181.781 5.69067 181.95 5.39733 181.95 5.038C181.95 4.774 181.844 4.56133 181.631 4.4C181.418 4.23867 181.107 4.158 180.696 4.158C180.249 4.158 179.882 4.246 179.596 4.422C179.31 4.598 179.167 4.89867 179.167 5.324C179.167 5.66867 179.259 5.91067 179.442 6.05C179.633 6.182 179.886 6.248 180.201 6.248Z" fill="#0C0C0C"/>
<path d="M152.246 107.121C151.417 107.121 150.728 106.967 150.178 106.659C149.628 106.344 149.217 105.904 148.946 105.339C148.675 104.774 148.539 104.114 148.539 103.359C148.539 102.523 148.689 101.793 148.99 101.17C149.298 100.539 149.742 100.052 150.321 99.707C150.9 99.3623 151.597 99.19 152.411 99.19C153.174 99.19 153.782 99.3257 154.237 99.597C154.692 99.861 154.919 100.198 154.919 100.609C154.919 100.851 154.842 101.045 154.688 101.192C154.534 101.331 154.31 101.401 154.017 101.401C153.826 101.401 153.639 101.361 153.456 101.28C153.273 101.199 153.075 101.122 152.862 101.049C152.657 100.968 152.411 100.928 152.125 100.928C151.758 100.928 151.417 100.998 151.102 101.137C150.794 101.276 150.545 101.511 150.354 101.841C150.171 102.164 150.079 102.604 150.079 103.161C150.079 104.004 150.262 104.602 150.629 104.954C151.003 105.306 151.494 105.482 152.103 105.482C152.316 105.482 152.539 105.464 152.774 105.427C153.009 105.383 153.229 105.343 153.434 105.306C153.639 105.262 153.804 105.24 153.929 105.24C154.178 105.24 154.376 105.302 154.523 105.427C154.67 105.544 154.743 105.72 154.743 105.955C154.743 106.292 154.53 106.571 154.105 106.791C153.68 107.011 153.06 107.121 152.246 107.121Z" fill="#0C0C0C"/>
<path d="M2.211 111.253C1.749 111.253 1.38967 111.224 1.133 111.165C0.883667 111.106 0.711333 111.026 0.616 110.923C0.520667 110.813 0.469333 110.692 0.462 110.56C0.462 110.355 0.583 110.182 0.825 110.043C1.07433 109.904 1.529 109.816 2.189 109.779L2.013 109.988C1.93233 109.614 1.87367 109.178 1.837 108.679C1.80033 108.18 1.78567 107.663 1.793 107.128C1.80033 106.593 1.826 106.083 1.87 105.599C1.914 105.108 1.97633 104.69 2.057 104.345L3.014 104.279C2.85267 104.345 2.651 104.404 2.409 104.455C2.167 104.499 1.91767 104.521 1.661 104.521C1.19167 104.521 0.843333 104.47 0.616 104.367C0.396 104.264 0.286 104.121 0.286 103.938C0.286 103.615 0.480333 103.366 0.869 103.19C1.265 103.007 1.87 102.915 2.684 102.915C3.652 102.915 4.466 103.076 5.126 103.399C5.79333 103.714 6.29933 104.158 6.644 104.73C6.98867 105.295 7.161 105.955 7.161 106.71C7.161 107.37 7.04367 107.979 6.809 108.536C6.57433 109.086 6.237 109.566 5.797 109.977C5.36433 110.38 4.84367 110.696 4.235 110.923C3.63367 111.143 2.959 111.253 2.211 111.253ZM3.773 109.559C4.02233 109.559 4.28633 109.46 4.565 109.262C4.851 109.057 5.093 108.76 5.291 108.371C5.489 107.975 5.588 107.487 5.588 106.908C5.588 106.483 5.52567 106.112 5.401 105.797C5.28367 105.474 5.12967 105.207 4.939 104.994C4.74833 104.781 4.54667 104.624 4.334 104.521C4.12133 104.411 3.91967 104.356 3.729 104.356C3.575 104.356 3.454 104.451 3.366 104.642C3.28533 104.833 3.22667 105.119 3.19 105.5C3.15333 105.874 3.135 106.34 3.135 106.897C3.135 107.762 3.179 108.422 3.267 108.877C3.355 109.332 3.52367 109.559 3.773 109.559Z" fill="#0C0C0C"/>
</svg>
