<svg width="184" height="94" viewBox="0 0 184 94" fill="none" xmlns="http://www.w3.org/2000/svg">
<path d="M2 81L29.3528 1H165L138.766 80.4L2 81Z" stroke="black" stroke-width="2"/>
<path d="M161.597 46.198C161.34 46.198 161.146 46.1137 161.014 45.945C160.889 45.7763 160.827 45.5343 160.827 45.219C160.827 44.999 160.849 44.7643 160.893 44.515C160.944 44.2657 161.014 44.02 161.102 43.778L161.168 43.932C160.926 44.0127 160.629 44.0787 160.277 44.13C159.925 44.1813 159.573 44.207 159.221 44.207C158.884 44.207 158.634 44.152 158.473 44.042C158.319 43.9247 158.242 43.7633 158.242 43.558C158.242 43.2427 158.304 42.876 158.429 42.458C158.554 42.04 158.711 41.611 158.902 41.171C159.1 40.731 159.302 40.3313 159.507 39.972C159.83 39.4073 160.182 38.9673 160.563 38.652C160.944 38.3293 161.381 38.168 161.872 38.168C162.349 38.168 162.686 38.2853 162.884 38.52C163.089 38.7547 163.192 39.0957 163.192 39.543C163.192 39.9757 163.152 40.478 163.071 41.05C162.99 41.6147 162.873 42.1903 162.719 42.777L162.576 42.656C162.679 42.6193 162.789 42.5937 162.906 42.579C163.023 42.557 163.13 42.546 163.225 42.546C163.826 42.546 164.127 42.788 164.127 43.272C164.127 43.5213 164.032 43.712 163.841 43.844C163.658 43.976 163.416 44.042 163.115 44.042C162.983 44.042 162.855 44.0347 162.73 44.02C162.613 43.998 162.51 43.9723 162.422 43.943L162.51 43.888C162.525 44.0273 162.539 44.2033 162.554 44.416C162.569 44.6213 162.576 44.8193 162.576 45.01C162.576 45.3987 162.488 45.6957 162.312 45.901C162.143 46.099 161.905 46.198 161.597 46.198ZM160.222 42.733C160.457 42.733 160.666 42.6853 160.849 42.59C161.032 42.4873 161.186 42.3443 161.311 42.161C161.443 41.9703 161.542 41.7467 161.608 41.49C161.681 41.226 161.718 40.9327 161.718 40.61C161.718 40.346 161.67 40.1517 161.575 40.027C161.487 39.895 161.37 39.829 161.223 39.829C161.025 39.829 160.834 39.8987 160.651 40.038C160.468 40.17 160.299 40.346 160.145 40.566C159.998 40.7787 159.881 41.017 159.793 41.281C159.705 41.5377 159.661 41.7907 159.661 42.04C159.661 42.2893 159.712 42.469 159.815 42.579C159.918 42.6817 160.053 42.733 160.222 42.733ZM169.949 46.121C168.937 46.121 168.193 45.857 167.716 45.329C167.247 44.801 167.012 44.0677 167.012 43.129C167.012 42.403 167.152 41.7613 167.43 41.204C167.716 40.6393 168.123 40.1993 168.651 39.884C169.187 39.5613 169.825 39.4 170.565 39.4C171.233 39.4 171.739 39.51 172.083 39.73C172.435 39.9427 172.611 40.2177 172.611 40.555C172.611 40.7603 172.545 40.9253 172.413 41.05C172.289 41.1673 172.102 41.226 171.852 41.226C171.713 41.226 171.57 41.204 171.423 41.16C171.284 41.116 171.13 41.072 170.961 41.028C170.793 40.984 170.591 40.962 170.356 40.962C169.748 40.962 169.289 41.1233 168.981 41.446C168.681 41.7687 168.53 42.2343 168.53 42.843C168.53 43.4223 168.677 43.844 168.97 44.108C169.264 44.3647 169.663 44.493 170.169 44.493C170.419 44.493 170.635 44.4673 170.818 44.416C171.009 44.3573 171.185 44.3023 171.346 44.251C171.515 44.1923 171.684 44.163 171.852 44.163C172.021 44.163 172.16 44.218 172.27 44.328C172.38 44.4307 172.435 44.581 172.435 44.779C172.435 45.0063 172.344 45.2227 172.16 45.428C171.977 45.6333 171.702 45.802 171.335 45.934C170.969 46.0587 170.507 46.121 169.949 46.121ZM178.075 40.962C178.148 40.6613 178.277 40.39 178.46 40.148C178.651 39.906 178.878 39.7153 179.142 39.576C179.413 39.4293 179.71 39.356 180.033 39.356C180.414 39.356 180.752 39.4477 181.045 39.631C181.338 39.8143 181.569 40.115 181.738 40.533C181.914 40.951 182.002 41.5083 182.002 42.205C182.002 42.5643 181.987 42.9273 181.958 43.294C181.929 43.6607 181.892 44.0017 181.848 44.317C181.804 44.6323 181.756 44.8963 181.705 45.109C181.632 45.4023 181.518 45.626 181.364 45.78C181.217 45.934 181.03 46.011 180.803 46.011C180.612 46.011 180.462 45.9267 180.352 45.758C180.242 45.5893 180.187 45.3473 180.187 45.032C180.187 44.8853 180.205 44.6983 180.242 44.471C180.279 44.2363 180.319 43.9833 180.363 43.712C180.407 43.4333 180.447 43.151 180.484 42.865C180.521 42.579 180.539 42.3077 180.539 42.051C180.539 41.6697 180.462 41.3763 180.308 41.171C180.154 40.9583 179.938 40.852 179.659 40.852C179.351 40.852 179.094 41.0133 178.889 41.336C178.691 41.6513 178.574 42.1133 178.537 42.722C178.508 43.2647 178.482 43.7487 178.46 44.174C178.438 44.592 178.383 44.9367 178.295 45.208C178.236 45.3987 178.152 45.5417 178.042 45.637C177.939 45.7323 177.8 45.78 177.624 45.78C177.426 45.78 177.268 45.7067 177.151 45.56C177.041 45.4133 176.979 45.1823 176.964 44.867C176.949 44.603 176.946 44.2913 176.953 43.932C176.96 43.5727 176.964 43.217 176.964 42.865C176.971 42.5057 176.968 42.2087 176.953 41.974C176.924 41.5047 176.839 41.16 176.7 40.94C176.568 40.72 176.366 40.61 176.095 40.61C175.78 40.61 175.527 40.7567 175.336 41.05C175.153 41.3433 175.039 41.7503 174.995 42.271C174.98 42.4837 174.973 42.7477 174.973 43.063C174.98 43.371 174.988 43.679 174.995 43.987C175.002 44.295 174.999 44.5517 174.984 44.757C174.977 45.197 174.907 45.5123 174.775 45.703C174.65 45.8937 174.474 45.989 174.247 45.989C173.976 45.989 173.778 45.901 173.653 45.725C173.536 45.549 173.459 45.2667 173.422 44.878C173.393 44.5333 173.371 44.1923 173.356 43.855C173.341 43.5103 173.334 43.1693 173.334 42.832C173.334 42.4873 173.341 42.1133 173.356 41.71C173.378 41.3067 173.407 40.9253 173.444 40.566C173.488 40.1993 173.565 39.8913 173.675 39.642C173.785 39.3927 173.968 39.268 174.225 39.268C174.438 39.268 174.588 39.3743 174.676 39.587C174.764 39.7923 174.808 40.1113 174.808 40.544C174.808 40.6907 174.797 40.8263 174.775 40.951L174.742 40.731C174.889 40.2543 175.123 39.884 175.446 39.62C175.769 39.3487 176.128 39.213 176.524 39.213C177.045 39.213 177.452 39.3817 177.745 39.719C178.038 40.049 178.2 40.5073 178.229 41.094L178.075 40.962Z" fill="#0C0C0C"/>
<path d="M68.511 85.872C68.511 86.2093 68.258 86.6053 67.752 87.06C67.246 87.5073 66.4577 87.984 65.387 88.49L65.31 88.501C65.4787 88.4423 65.651 88.402 65.827 88.38C66.0103 88.358 66.1827 88.347 66.344 88.347C66.938 88.347 67.433 88.4497 67.829 88.655C68.225 88.853 68.522 89.1243 68.72 89.469C68.9253 89.8137 69.028 90.206 69.028 90.646C69.028 91.1667 68.907 91.614 68.665 91.988C68.423 92.3547 68.0967 92.6333 67.686 92.824C67.2753 93.0147 66.8097 93.11 66.289 93.11C65.5997 93.11 65.035 93.011 64.595 92.813C64.1623 92.615 63.8433 92.34 63.638 91.988C63.4327 91.636 63.33 91.229 63.33 90.767C63.33 90.3343 63.3887 89.92 63.506 89.524C63.6307 89.128 63.8177 88.732 64.067 88.336C64.3237 87.9327 64.6463 87.511 65.035 87.071C65.3943 86.6603 65.739 86.323 66.069 86.059C66.4063 85.7877 66.7217 85.586 67.015 85.454C67.3083 85.322 67.576 85.256 67.818 85.256C68.0307 85.256 68.1993 85.311 68.324 85.421C68.4487 85.531 68.511 85.6813 68.511 85.872ZM66.19 89.535C65.75 89.535 65.409 89.6377 65.167 89.843C64.925 90.041 64.804 90.2977 64.804 90.613C64.804 90.9063 64.9177 91.141 65.145 91.317C65.3797 91.493 65.695 91.581 66.091 91.581C66.5237 91.581 66.861 91.4783 67.103 91.273C67.3523 91.0677 67.477 90.8073 67.477 90.492C67.477 90.1913 67.356 89.9567 67.114 89.788C66.8793 89.6193 66.5713 89.535 66.19 89.535ZM74.9385 93.121C73.9265 93.121 73.1822 92.857 72.7055 92.329C72.2362 91.801 72.0015 91.0677 72.0015 90.129C72.0015 89.403 72.1409 88.7613 72.4195 88.204C72.7055 87.6393 73.1125 87.1993 73.6405 86.884C74.1759 86.5613 74.8139 86.4 75.5545 86.4C76.2219 86.4 76.7279 86.51 77.0725 86.73C77.4245 86.9427 77.6005 87.2177 77.6005 87.555C77.6005 87.7603 77.5345 87.9253 77.4025 88.05C77.2779 88.1673 77.0909 88.226 76.8415 88.226C76.7022 88.226 76.5592 88.204 76.4125 88.16C76.2732 88.116 76.1192 88.072 75.9505 88.028C75.7819 87.984 75.5802 87.962 75.3455 87.962C74.7369 87.962 74.2785 88.1233 73.9705 88.446C73.6699 88.7687 73.5195 89.2343 73.5195 89.843C73.5195 90.4223 73.6662 90.844 73.9595 91.108C74.2529 91.3647 74.6525 91.493 75.1585 91.493C75.4079 91.493 75.6242 91.4673 75.8075 91.416C75.9982 91.3573 76.1742 91.3023 76.3355 91.251C76.5042 91.1923 76.6729 91.163 76.8415 91.163C77.0102 91.163 77.1495 91.218 77.2595 91.328C77.3695 91.4307 77.4245 91.581 77.4245 91.779C77.4245 92.0063 77.3329 92.2227 77.1495 92.428C76.9662 92.6333 76.6912 92.802 76.3245 92.934C75.9579 93.0587 75.4959 93.121 74.9385 93.121ZM83.0643 87.962C83.1377 87.6613 83.266 87.39 83.4493 87.148C83.64 86.906 83.8673 86.7153 84.1313 86.576C84.4027 86.4293 84.6997 86.356 85.0223 86.356C85.4037 86.356 85.741 86.4477 86.0343 86.631C86.3277 86.8143 86.5587 87.115 86.7273 87.533C86.9033 87.951 86.9913 88.5083 86.9913 89.205C86.9913 89.5643 86.9767 89.9273 86.9473 90.294C86.918 90.6607 86.8813 91.0017 86.8373 91.317C86.7933 91.6323 86.7457 91.8963 86.6943 92.109C86.621 92.4023 86.5073 92.626 86.3533 92.78C86.2067 92.934 86.0197 93.011 85.7923 93.011C85.6017 93.011 85.4513 92.9267 85.3413 92.758C85.2313 92.5893 85.1763 92.3473 85.1763 92.032C85.1763 91.8853 85.1947 91.6983 85.2313 91.471C85.268 91.2363 85.3083 90.9833 85.3523 90.712C85.3963 90.4333 85.4367 90.151 85.4733 89.865C85.51 89.579 85.5283 89.3077 85.5283 89.051C85.5283 88.6697 85.4513 88.3763 85.2973 88.171C85.1433 87.9583 84.927 87.852 84.6483 87.852C84.3403 87.852 84.0837 88.0133 83.8783 88.336C83.6803 88.6513 83.563 89.1133 83.5263 89.722C83.497 90.2647 83.4713 90.7487 83.4493 91.174C83.4273 91.592 83.3723 91.9367 83.2843 92.208C83.2257 92.3987 83.1413 92.5417 83.0313 92.637C82.9287 92.7323 82.7893 92.78 82.6133 92.78C82.4153 92.78 82.2577 92.7067 82.1403 92.56C82.0303 92.4133 81.968 92.1823 81.9533 91.867C81.9387 91.603 81.935 91.2913 81.9423 90.932C81.9497 90.5727 81.9533 90.217 81.9533 89.865C81.9607 89.5057 81.957 89.2087 81.9423 88.974C81.913 88.5047 81.8287 88.16 81.6893 87.94C81.5573 87.72 81.3557 87.61 81.0843 87.61C80.769 87.61 80.516 87.7567 80.3253 88.05C80.142 88.3433 80.0283 88.7503 79.9843 89.271C79.9697 89.4837 79.9623 89.7477 79.9623 90.063C79.9697 90.371 79.977 90.679 79.9843 90.987C79.9917 91.295 79.988 91.5517 79.9733 91.757C79.966 92.197 79.8963 92.5123 79.7643 92.703C79.6397 92.8937 79.4637 92.989 79.2363 92.989C78.965 92.989 78.767 92.901 78.6423 92.725C78.525 92.549 78.448 92.2667 78.4113 91.878C78.382 91.5333 78.36 91.1923 78.3453 90.855C78.3307 90.5103 78.3233 90.1693 78.3233 89.832C78.3233 89.4873 78.3307 89.1133 78.3453 88.71C78.3673 88.3067 78.3967 87.9253 78.4333 87.566C78.4773 87.1993 78.5543 86.8913 78.6643 86.642C78.7743 86.3927 78.9577 86.268 79.2143 86.268C79.427 86.268 79.5773 86.3743 79.6653 86.587C79.7533 86.7923 79.7973 87.1113 79.7973 87.544C79.7973 87.6907 79.7863 87.8263 79.7643 87.951L79.7313 87.731C79.878 87.2543 80.1127 86.884 80.4353 86.62C80.758 86.3487 81.1173 86.213 81.5133 86.213C82.034 86.213 82.441 86.3817 82.7343 86.719C83.0277 87.049 83.189 87.5073 83.2183 88.094L83.0643 87.962Z" fill="#0C0C0C"/>
</svg>
