<svg version="1.1" xmlns="http://www.w3.org/2000/svg" xmlns:xlink="http://www.w3.org/1999/xlink" width="113.1398" height="17.55382" viewBox="0,0,113.1398,17.55382"><g transform="translate(-183.4301,-171.22309)"><g data-paper-data="{&quot;isPaintingLayer&quot;:true}" fill="#060606" fill-rule="nonzero" stroke="none" stroke-width="1" stroke-linecap="butt" stroke-linejoin="miter" stroke-miterlimit="10" stroke-dasharray="" stroke-dashoffset="0" style="mix-blend-mode: normal"><path d="M186.60182,185.31354c-0.74129,0 -1.29421,-0.09718 -1.65877,-0.29165c-0.36457,-0.19447 -0.66837,-0.54685 -0.91141,-1.05724c-0.17013,-0.38883 -0.31596,-1.02078 -0.43748,-1.89574c-0.10937,-0.88711 -0.16405,-2.03549 -0.16405,-3.44514c0,-0.98433 0.01823,-1.92612 0.05468,-2.82538c0.04861,-0.89926 0.11545,-1.59193 0.20051,-2.07802c0.09722,-0.61976 0.2552,-1.06331 0.47394,-1.33066c0.23089,-0.26735 0.51646,-0.40102 0.85673,-0.40102c0.30381,0 0.54078,0.13367 0.7109,0.40102c0.18228,0.26735 0.30988,0.63192 0.38279,1.0937c0.07291,0.44963 0.10937,0.94787 0.10937,1.49472c0,1.48256 -0.05468,2.98336 -0.16405,4.50238c-0.09721,1.51902 -0.23697,2.91652 -0.41925,4.1925l-0.23697,-0.32811c0.54685,-0.37676 1.13015,-0.69871 1.74991,-0.9661c0.63192,-0.26739 1.24559,-0.47394 1.84106,-0.61976c0.60761,-0.14583 1.13623,-0.21874 1.58586,-0.21874c0.44963,0 0.77774,0.09114 0.98433,0.27342c0.21874,0.18228 0.32811,0.44352 0.32811,0.78382c0,0.3403 -0.1519,0.68664 -0.45571,1.03901c-0.29165,0.3403 -0.7109,0.63799 -1.25775,0.89319c-0.30381,0.14583 -0.66229,0.27946 -1.07547,0.40102c-0.41318,0.10937 -0.8385,0.20051 -1.27598,0.27342c-0.42532,0.07291 -0.83243,0.10937 -1.22129,0.10937zM201.59924,185.0948c-0.32811,0 -0.5833,-0.10937 -0.76559,-0.32811c-0.17009,-0.23093 -0.2855,-0.52258 -0.34634,-0.87496c-0.06072,-0.36457 -0.09114,-0.74736 -0.09114,-1.14838l0.09114,-0.07291c-0.12145,0.52258 -0.35841,0.97214 -0.7109,1.34889c-0.35238,0.37676 -0.75944,0.66841 -1.22129,0.87496c-0.46174,0.19447 -0.92349,0.29165 -1.38535,0.29165c-0.61976,0 -1.18484,-0.14583 -1.69523,-0.43748c-0.51039,-0.29165 -0.90531,-0.74132 -1.1848,-1.34889c-0.27951,-0.64403 -0.49825,-1.45222 -0.65622,-2.42436c-0.15798,-0.98433 -0.23697,-1.99295 -0.23697,-3.02589c0,-0.559 0.0243,-1.07547 0.07291,-1.5494c0.0486,-0.47394 0.1276,-0.8628 0.23697,-1.16661c0.09721,-0.31595 0.24304,-0.54685 0.43748,-0.69267c0.19443,-0.15798 0.44355,-0.23697 0.74732,-0.23697c0.35249,0 0.62591,0.13975 0.82027,0.41925c0.20666,0.26735 0.33426,0.64406 0.38279,1.13015c0.04865,0.40102 0.07907,0.89926 0.09114,1.49472c0.02438,0.5833 0.04261,1.17268 0.05468,1.76814c0.02438,0.5833 0.05468,1.07547 0.09114,1.47649c0.07291,0.72913 0.26135,1.26994 0.56508,1.62232c0.30384,0.3403 0.67445,0.51039 1.11192,0.51039c0.64414,0 1.1363,-0.24301 1.47649,-0.72913c0.3403,-0.48609 0.51039,-1.16661 0.51039,-2.04157c0,-0.43748 -0.02427,-0.92964 -0.07291,-1.47649c-0.04853,-0.559 -0.10322,-1.09977 -0.16405,-1.62232c-0.04853,-0.52255 -0.07291,-0.95394 -0.07291,-1.29421c0,-0.57115 0.09729,-0.97825 0.29165,-1.22129c0.19447,-0.2552 0.46186,-0.38279 0.80204,-0.38279c0.29165,0 0.53477,0.07899 0.72913,0.23697c0.20666,0.15798 0.37072,0.37672 0.49216,0.65622c0.17021,0.36457 0.31603,0.8628 0.43748,1.49472c0.12156,0.63192 0.21874,1.34889 0.29165,2.15094c0.07291,0.80204 0.10937,1.64662 0.10937,2.53373c0,1.36108 -0.09114,2.38187 -0.27342,3.06235c-0.18228,0.66841 -0.50424,1.00255 -0.9661,1.00255zM213.02199,185.38645c-0.41321,0 -0.69871,-0.15802 -0.85673,-0.47394c-0.14583,-0.32811 -0.23093,-0.84454 -0.2552,-1.5494l0.18228,0.09114c-0.68048,1.32463 -1.96865,1.98688 -3.86439,1.98688c-0.86277,0 -1.57982,-0.15186 -2.15094,-0.45571c-0.57111,-0.31592 -0.99652,-0.72913 -1.27598,-1.23952c-0.26739,-0.52258 -0.40102,-1.08766 -0.40102,-1.69523c0,-1.04508 0.36457,-1.87144 1.0937,-2.47904c0.72913,-0.61976 1.69523,-0.92964 2.8983,-0.92964c0.78985,0 1.47649,0.11544 2.05979,0.34634c0.5833,0.2309 1.08151,0.55292 1.49472,0.9661l-0.30988,-0.03646c-0.0851,-1.22737 -0.35238,-2.10232 -0.80204,-2.62487c-0.43748,-0.53469 -1.06328,-0.80204 -1.87751,-0.80204c-0.47394,0 -0.91141,0.07291 -1.31244,0.21874c-0.40102,0.14583 -0.77163,0.29772 -1.11192,0.45571c-0.32811,0.14583 -0.63799,0.21874 -0.92964,0.21874c-0.29165,0 -0.52258,-0.09721 -0.69267,-0.29165c-0.15802,-0.19444 -0.23697,-0.44355 -0.23697,-0.74736c0,-0.43748 0.20655,-0.85066 0.61976,-1.23952c0.42529,-0.38887 0.98433,-0.70483 1.677,-0.94787c0.69267,-0.24304 1.44607,-0.36457 2.26031,-0.36457c0.98433,0 1.82887,0.23697 2.53373,0.7109c0.70486,0.47394 1.23952,1.16661 1.60409,2.07802c0.31592,0.77774 0.54081,1.64662 0.67445,2.60664c0.13364,0.96003 0.20051,1.98688 0.20051,3.08058c0,0.82631 -0.04249,1.4643 -0.1276,1.91397c-0.0851,0.44967 -0.21874,0.76559 -0.40102,0.94787c-0.17009,0.17009 -0.40102,0.2552 -0.69267,0.2552zM208.99354,183.34489c0.40102,0 0.80808,-0.05468 1.22129,-0.16405c0.41321,-0.12156 0.75955,-0.29769 1.03901,-0.52862c0.27946,-0.23093 0.41925,-0.51643 0.41925,-0.85673c0,-0.29165 -0.12156,-0.52862 -0.36457,-0.7109c-0.23093,-0.19444 -0.54081,-0.34026 -0.92964,-0.43748c-0.37676,-0.09721 -0.78382,-0.14583 -1.22129,-0.14583c-0.74132,0 -1.3064,0.1276 -1.69523,0.38279c-0.37676,0.2552 -0.56508,0.59546 -0.56508,1.02078c0,0.46174 0.17624,0.82027 0.52862,1.07547c0.36457,0.24301 0.88715,0.36457 1.56763,0.36457zM221.07843,173.79327c1.08162,0 1.85928,0.15798 2.33322,0.47394c0.47394,0.31595 0.7109,0.72306 0.7109,1.22129c0,0.29165 -0.10322,0.53469 -0.30988,0.72913c-0.19436,0.18228 -0.47394,0.27342 -0.8385,0.27342c-0.37664,0 -0.77163,-0.05468 -1.18484,-0.16405c-0.40102,-0.10937 -0.8688,-0.16405 -1.40358,-0.16405c-0.61976,0 -1.08151,0.12153 -1.38535,0.36457c-0.30373,0.24304 -0.45571,0.55292 -0.45571,0.92964c0,0.35241 0.13375,0.63192 0.40102,0.8385c0.27958,0.19444 0.8082,0.34026 1.58586,0.43748c0.86288,0.09721 1.57378,0.2552 2.13271,0.47394c0.57123,0.20658 0.99652,0.52255 1.27598,0.94787c0.27958,0.41318 0.41925,0.98433 0.41925,1.71346c0,1.15442 -0.40706,2.01115 -1.22129,2.57019c-0.81412,0.55904 -1.93823,0.8385 -3.37223,0.8385c-0.91141,0 -1.63439,-0.07291 -2.16916,-0.21874c-0.53466,-0.14583 -0.92349,-0.35238 -1.16661,-0.61976c-0.23082,-0.26739 -0.34634,-0.5833 -0.34634,-0.94787c0,-0.31592 0.10333,-0.55904 0.30988,-0.72913c0.21874,-0.18228 0.47394,-0.27342 0.76559,-0.27342c0.27958,0 0.57727,0.03646 0.89319,0.10937c0.31603,0.06072 0.65018,0.1276 1.00255,0.20051c0.35249,0.07291 0.71705,0.10937 1.0937,0.10937c1.21526,0 1.82283,-0.37676 1.82283,-1.13015c0,-0.2552 -0.06072,-0.46178 -0.18228,-0.61976c-0.12145,-0.15798 -0.34019,-0.28558 -0.65622,-0.38279c-0.31592,-0.10937 -0.77766,-0.19444 -1.38535,-0.2552c-0.72913,-0.07291 -1.36097,-0.19444 -1.89574,-0.36457c-0.53466,-0.18228 -0.94787,-0.47394 -1.23952,-0.87496c-0.29165,-0.41318 -0.43748,-0.97825 -0.43748,-1.69523c0,-1.13015 0.4254,-2.04157 1.27598,-2.73424c0.85069,-0.70483 2.05979,-1.05724 3.62743,-1.05724zM234.99343,172.09804c1.44619,0 2.50946,0.37064 3.18995,1.11192c0.69267,0.74129 1.03901,1.71346 1.03901,2.91652c0,0.82634 -0.19436,1.54333 -0.5833,2.15094c-0.37664,0.60761 -0.89319,1.08154 -1.5494,1.42181c-0.65622,0.32811 -1.39742,0.49216 -2.22385,0.49216c-0.38883,0 -0.80204,-0.04253 -1.23952,-0.1276c-0.42529,-0.08507 -0.8688,-0.24912 -1.33066,-0.49216l0.09114,-0.23697c0.09729,0.30381 0.17624,0.68052 0.23697,1.13015c0.07291,0.43748 0.1276,0.89319 0.16405,1.36712c0.04865,0.46174 0.07291,0.88715 0.07291,1.27598c0,0.71694 -0.12145,1.26994 -0.36457,1.65877c-0.23082,0.37676 -0.57715,0.56508 -1.03901,0.56508c-0.38883,0 -0.69871,-0.12156 -0.92964,-0.36457c-0.21874,-0.24301 -0.3706,-0.64403 -0.45571,-1.20307c-0.08499,-0.55904 -0.1276,-1.3064 -0.1276,-2.24208c0,-1.79853 0.07907,-3.3297 0.23697,-4.59352c0.17021,-1.27598 0.45571,-2.27853 0.85673,-3.00766c0.31603,-0.559 0.80204,-1.00255 1.45826,-1.33066c0.66841,-0.32811 1.50087,-0.49216 2.49727,-0.49216zM234.6471,178.04046c0.72913,0 1.31859,-0.19444 1.76814,-0.5833c0.46186,-0.38887 0.69267,-0.95394 0.69267,-1.69523c0,-0.48609 -0.16405,-0.88711 -0.49216,-1.20307c-0.31592,-0.32811 -0.81412,-0.49216 -1.49472,-0.49216c-0.4982,0 -0.92964,0.11544 -1.29421,0.34634c-0.36457,0.21874 -0.64403,0.52862 -0.8385,0.92964c-0.18228,0.38887 -0.27342,0.8385 -0.27342,1.34889c0,0.47394 0.15198,0.82027 0.45571,1.03901c0.31603,0.20658 0.8082,0.30988 1.47649,0.30988zM245.88688,185.35c-1.34889,0 -2.42436,-0.20051 -3.2264,-0.60153c-0.80204,-0.40102 -1.37931,-0.97829 -1.73169,-1.73169c-0.35249,-0.7534 -0.52862,-1.6527 -0.52862,-2.69778c0,-1.32459 0.24301,-2.44866 0.72913,-3.37223c0.4982,-0.93571 1.17869,-1.6527 2.04157,-2.15094c0.87496,-0.49824 1.86532,-0.74736 2.97121,-0.74736c1.30025,0 2.25415,0.30381 2.86184,0.91141c0.60757,0.59546 0.91141,1.37928 0.91141,2.35145c0,0.77774 -0.20666,1.45219 -0.61976,2.02334c-0.40102,0.559 -0.96006,0.9904 -1.677,1.29421c-0.71705,0.30381 -1.54336,0.45571 -2.47904,0.45571c-0.52258,0 -1.02694,-0.06684 -1.51295,-0.20051c-0.48613,-0.13367 -0.9236,-0.31595 -1.31244,-0.54685l0.43748,-0.80204c-0.03646,0.29165 -0.05468,0.5833 -0.05468,0.87496c0,0.85066 0.26727,1.4643 0.80204,1.84106c0.53466,0.36457 1.29421,0.54685 2.27853,0.54685c0.76559,0 1.3792,-0.06687 1.84106,-0.20051c0.46174,-0.13364 0.85058,-0.26123 1.16661,-0.38279c0.31592,-0.13364 0.6258,-0.20051 0.92964,-0.20051c0.17009,0 0.32196,0.04865 0.45571,0.14583c0.14583,0.0851 0.26123,0.2127 0.34634,0.38279c0.09718,0.17009 0.14583,0.37676 0.14583,0.61976c0,0.36457 -0.18228,0.71694 -0.54685,1.05724c-0.36457,0.32811 -0.90538,0.60153 -1.62232,0.82027c-0.70486,0.20655 -1.57378,0.30988 -2.60664,0.30988zM244.82964,179.38935c0.86277,0 1.55544,-0.18228 2.07802,-0.54685c0.52247,-0.36457 0.78382,-0.8142 0.78382,-1.34889c0,-0.42532 -0.14583,-0.77166 -0.43748,-1.03901c-0.27958,-0.2795 -0.72309,-0.41925 -1.33066,-0.41925c-0.57123,0 -1.08766,0.10937 -1.5494,0.32811c-0.44967,0.20658 -0.80204,0.48001 -1.05724,0.82027c-0.2552,0.34026 -0.38279,0.7109 -0.38279,1.11192c0,0.35241 0.16405,0.62583 0.49216,0.82027c0.34019,0.18228 0.80808,0.27342 1.40358,0.27342zM252.26461,176.98322c0,-1.16661 0.10937,-2.00511 0.32811,-2.5155c0.21874,-0.52255 0.52862,-0.78382 0.92964,-0.78382c0.31592,0 0.56508,0.13367 0.74736,0.40102c0.18228,0.2552 0.31592,0.57723 0.40102,0.9661c0.0851,0.37672 0.1276,0.75952 0.1276,1.14838l-0.09114,-0.03646c0.20655,-0.65622 0.52258,-1.22129 0.94787,-1.69523c0.43748,-0.47394 0.96006,-0.7109 1.56763,-0.7109c0.71694,0 1.24556,0.29772 1.58586,0.89319c0.3403,0.5833 0.51039,1.31244 0.51039,2.18739c0,1.16661 -0.13364,1.98081 -0.40102,2.44259c-0.26739,0.46178 -0.6258,0.69267 -1.07547,0.69267c-0.32811,0 -0.57111,-0.13367 -0.72913,-0.40102c-0.14583,-0.26735 -0.19447,-0.74129 -0.14583,-1.42181c0.04865,-0.71697 0.00604,-1.21522 -0.1276,-1.49472c-0.13364,-0.2795 -0.34634,-0.41925 -0.63799,-0.41925c-0.35238,0 -0.64403,0.22481 -0.87496,0.67445c-0.21874,0.43748 -0.32811,0.97825 -0.32811,1.62232c0,0.2552 0.03042,0.57723 0.09114,0.9661c0.06072,0.38887 0.1276,0.8142 0.20051,1.27598c0.07291,0.44963 0.13979,0.89926 0.20051,1.34889c0.06072,0.44967 0.09114,0.86277 0.09114,1.23952c0,0.66841 -0.10333,1.14838 -0.30988,1.44003c-0.20655,0.29165 -0.4982,0.43748 -0.87496,0.43748c-0.42529,0 -0.7534,-0.13364 -0.98433,-0.40102c-0.23093,-0.27946 -0.40706,-0.72913 -0.52862,-1.34889c-0.09718,-0.55904 -0.19447,-1.22129 -0.29165,-1.98688c-0.09718,-0.76559 -0.17624,-1.5494 -0.23697,-2.35145c-0.06072,-0.80204 -0.09114,-1.5251 -0.09114,-2.16916zM265.5455,173.79327c1.08151,0 1.85928,0.15798 2.33322,0.47394c0.47394,0.31595 0.7109,0.72306 0.7109,1.22129c0,0.29165 -0.10333,0.53469 -0.30988,0.72913c-0.19447,0.18228 -0.47394,0.27342 -0.8385,0.27342c-0.37676,0 -0.77174,-0.05468 -1.18484,-0.16405c-0.40102,-0.10937 -0.86892,-0.16405 -1.40358,-0.16405c-0.61976,0 -1.08162,0.12153 -1.38535,0.36457c-0.30384,0.24304 -0.45571,0.55292 -0.45571,0.92964c0,0.35241 0.13364,0.63192 0.40102,0.8385c0.27946,0.19444 0.80808,0.34026 1.58586,0.43748c0.86277,0.09721 1.57367,0.2552 2.13271,0.47394c0.57111,0.20658 0.9964,0.52255 1.27598,0.94787c0.27946,0.41318 0.41925,0.98433 0.41925,1.71346c0,1.15442 -0.40717,2.01115 -1.22129,2.57019c-0.81423,0.55904 -1.93835,0.8385 -3.37223,0.8385c-0.91141,0 -1.63451,-0.07291 -2.16916,-0.21874c-0.53477,-0.14583 -0.9236,-0.35238 -1.16661,-0.61976c-0.23093,-0.26739 -0.34634,-0.5833 -0.34634,-0.94787c0,-0.31592 0.10322,-0.55904 0.30988,-0.72913c0.21874,-0.18228 0.47394,-0.27342 0.76559,-0.27342c0.27946,0 0.57715,0.03646 0.89319,0.10937c0.31592,0.06072 0.65007,0.1276 1.00255,0.20051c0.35238,0.07291 0.71694,0.10937 1.0937,0.10937c1.21514,0 1.82283,-0.37676 1.82283,-1.13015c0,-0.2552 -0.06084,-0.46178 -0.18228,-0.61976c-0.12156,-0.15798 -0.3403,-0.28558 -0.65622,-0.38279c-0.31603,-0.10937 -0.77778,-0.19444 -1.38535,-0.2552c-0.72913,-0.07291 -1.36108,-0.19444 -1.89574,-0.36457c-0.53477,-0.18228 -0.94787,-0.47394 -1.23952,-0.87496c-0.29165,-0.41318 -0.43748,-0.97825 -0.43748,-1.69523c0,-1.13015 0.42529,-2.04157 1.27598,-2.73424c0.85058,-0.70483 2.05979,-1.05724 3.62743,-1.05724zM275.77486,185.35c-1.34889,0 -2.42436,-0.20051 -3.2264,-0.60153c-0.80204,-0.40102 -1.37931,-0.97829 -1.73169,-1.73169c-0.35249,-0.7534 -0.52862,-1.6527 -0.52862,-2.69778c0,-1.32459 0.24301,-2.44866 0.72913,-3.37223c0.4982,-0.93571 1.17869,-1.6527 2.04157,-2.15094c0.87484,-0.49824 1.86532,-0.74736 2.97121,-0.74736c1.30025,0 2.25415,0.30381 2.86184,0.91141c0.60757,0.59546 0.91141,1.37928 0.91141,2.35145c0,0.77774 -0.20666,1.45219 -0.61988,2.02334c-0.40091,0.559 -0.95995,0.9904 -1.67689,1.29421c-0.71705,0.30381 -1.54336,0.45571 -2.47904,0.45571c-0.52258,0 -1.02694,-0.06684 -1.51295,-0.20051c-0.48613,-0.13367 -0.9236,-0.31595 -1.31244,-0.54685l0.43748,-0.80204c-0.03646,0.29165 -0.05468,0.5833 -0.05468,0.87496c0,0.85066 0.26727,1.4643 0.80204,1.84106c0.53466,0.36457 1.29421,0.54685 2.27853,0.54685c0.76559,0 1.3792,-0.06687 1.84106,-0.20051c0.46174,-0.13364 0.85058,-0.26123 1.1665,-0.38279c0.31603,-0.13364 0.62591,-0.20051 0.92964,-0.20051c0.17021,0 0.32207,0.04865 0.45582,0.14583c0.14583,0.0851 0.26123,0.2127 0.34634,0.38279c0.09718,0.17009 0.14583,0.37676 0.14583,0.61976c0,0.36457 -0.18228,0.71694 -0.54685,1.05724c-0.36457,0.32811 -0.90538,0.60153 -1.62232,0.82027c-0.70486,0.20655 -1.57378,0.30988 -2.60664,0.30988zM274.71762,179.38935c0.86277,0 1.55544,-0.18228 2.07802,-0.54685c0.52247,-0.36457 0.78382,-0.8142 0.78382,-1.34889c0,-0.42532 -0.14583,-0.77166 -0.43748,-1.03901c-0.27958,-0.2795 -0.72309,-0.41925 -1.33066,-0.41925c-0.57123,0 -1.08766,0.10937 -1.5494,0.32811c-0.44967,0.20658 -0.80204,0.48001 -1.05724,0.82027c-0.2552,0.34026 -0.38279,0.7109 -0.38279,1.11192c0,0.35241 0.16405,0.62583 0.49216,0.82027c0.34019,0.18228 0.80808,0.27342 1.40358,0.27342zM285.63419,184.91252c-1.14234,0 -2.07198,-0.43748 -2.78893,-1.31244c-0.71705,-0.88715 -1.07547,-2.22992 -1.07547,-4.02845c0,-1.92004 0.34634,-3.32362 1.03901,-4.21073c0.69267,-0.88711 1.60409,-1.33066 2.73424,-1.33066c0.66829,0 1.25775,0.17013 1.76814,0.51039c0.51039,0.34026 0.94787,0.82027 1.31244,1.44003l-0.14583,0.2552c-0.03646,-0.17013 -0.06687,-0.35241 -0.09114,-0.54685c-0.02438,-0.19444 -0.03646,-0.34026 -0.03646,-0.43748c0,-0.49824 0.07895,-0.88103 0.23697,-1.14838c0.17009,-0.2795 0.43133,-0.41925 0.78382,-0.41925c0.38883,0 0.69267,0.15798 0.91141,0.47394c0.23082,0.31595 0.40706,0.76559 0.52862,1.34889c0.1579,0.59546 0.29165,1.35496 0.40102,2.27853c0.10937,0.91141 0.16405,1.83498 0.16405,2.7707c0,1.16661 -0.04261,2.1449 -0.1276,2.93475c-0.0851,0.78985 -0.22489,1.44607 -0.41925,1.96865c-0.19447,0.52258 -0.44967,0.97829 -0.76559,1.36712c-0.52258,0.63195 -1.19703,1.11192 -2.02334,1.44003c-0.81423,0.3403 -1.75607,0.51039 -2.82538,0.51039c-0.76559,0 -1.37931,-0.07291 -1.84106,-0.21874c-0.46186,-0.13364 -0.79601,-0.32207 -1.00255,-0.56508c-0.19447,-0.23093 -0.29165,-0.49216 -0.29165,-0.78382c0,-0.30384 0.08499,-0.55904 0.2552,-0.76559c0.17009,-0.19447 0.42529,-0.29165 0.76559,-0.29165c0.30373,0 0.65622,0.04865 1.05724,0.14583c0.4131,0.09718 0.89922,0.14583 1.45826,0.14583c1.17869,0 2.01115,-0.27946 2.49727,-0.8385c0.4982,-0.54685 0.74736,-1.3367 0.74736,-2.36968c0,-0.27946 -0.01823,-0.60757 -0.05468,-0.98433l0.2552,0.09114c-0.30384,0.77778 -0.75351,1.40358 -1.34889,1.87751c-0.59549,0.46174 -1.28817,0.69267 -2.07802,0.69267zM286.32687,182.67044c0.38883,0 0.77766,-0.10333 1.16661,-0.30988c0.38883,-0.20655 0.7109,-0.54685 0.9661,-1.02078c0.2552,-0.47394 0.38279,-1.11192 0.38279,-1.91397c0,-0.96003 -0.22489,-1.74384 -0.67445,-2.35145c-0.44967,-0.60761 -1.08162,-0.91141 -1.89574,-0.91141c-0.70486,0 -1.22129,0.26735 -1.5494,0.80204c-0.32811,0.53469 -0.49216,1.34282 -0.49216,2.42436c0,1.03294 0.16405,1.84106 0.49216,2.42436c0.32811,0.57111 0.86277,0.85673 1.60409,0.85673zM295.20278,171.22309c0.48601,0 0.83235,0.13367 1.03901,0.40102c0.21874,0.26735 0.32811,0.57723 0.32811,0.92964c0,0.43748 -0.13375,0.77774 -0.40102,1.02078c-0.2552,0.2309 -0.61976,0.34634 -1.0937,0.34634c-0.46186,0 -0.8082,-0.1276 -1.03901,-0.38279c-0.23093,-0.26735 -0.34645,-0.57723 -0.34645,-0.92964c0,-0.46178 0.13979,-0.80812 0.41936,-1.03901c0.27946,-0.23089 0.64403,-0.34634 1.0937,-0.34634zM295.31215,175.28799c0.38883,0 0.69267,0.36457 0.91141,1.0937c0.23082,0.72913 0.34634,1.88967 0.34634,3.4816c0,1.95646 -0.13979,3.36619 -0.41925,4.22896c-0.27958,0.86277 -0.70486,1.29421 -1.27598,1.29421c-0.43748,0 -0.75955,-0.31592 -0.9661,-0.94787c-0.20666,-0.64403 -0.30988,-1.7621 -0.30988,-3.354c0,-1.9565 0.1579,-3.40869 0.47394,-4.35656c0.32811,-0.96003 0.74121,-1.44003 1.23952,-1.44003z"/></g></g></svg>