<svg version="1.1" xmlns="http://www.w3.org/2000/svg" xmlns:xlink="http://www.w3.org/1999/xlink" width="124.26762" height="16.19743" viewBox="0,0,124.26762,16.19743"><g transform="translate(-177.86619,-171.90129)"><g data-paper-data="{&quot;isPaintingLayer&quot;:true}" fill="#000000" fill-rule="nonzero" stroke="none" stroke-width="1" stroke-linecap="butt" stroke-linejoin="miter" stroke-miterlimit="10" stroke-dasharray="" stroke-dashoffset="0" style="mix-blend-mode: normal"><path d="M180.11979,173.53111c0.41583,0 0.83838,0.23473 1.26763,0.70423c0.44267,0.45607 0.90545,1.14019 1.38835,2.05234c0.4829,0.91216 1.00604,2.04564 1.56943,3.40045c0.5768,1.35481 1.20726,2.92426 1.89137,4.70831h0.08048c-0.0939,-0.64387 -0.18108,-1.3481 -0.26158,-2.11271c-0.08048,-0.76459 -0.15427,-1.53592 -0.22134,-2.31392c-0.06707,-0.77801 -0.12072,-1.50236 -0.16097,-2.17307c-0.02683,-0.68411 -0.04025,-1.26763 -0.04025,-1.75052c0,-1.11336 0.10061,-1.89809 0.30181,-2.35416c0.21462,-0.46949 0.54326,-0.70423 0.98592,-0.70423c0.30852,0 0.55669,0.08048 0.74448,0.24145c0.1878,0.16097 0.34877,0.3957 0.4829,0.70423c0.30852,0.75119 0.52986,1.78406 0.664,3.09863c0.13413,1.31458 0.2012,2.81694 0.2012,4.5071c0,1.30116 -0.05365,2.40782 -0.16097,3.31997c-0.10732,0.91219 -0.30852,1.60292 -0.60362,2.07247c-0.2951,0.46955 -0.72436,0.70423 -1.28774,0.70423c-0.37559,0 -0.75788,-0.14761 -1.1469,-0.44267c-0.38901,-0.30858 -0.78473,-0.75784 -1.18715,-1.3481c-0.38901,-0.60362 -0.79812,-1.35481 -1.22737,-2.25355c-0.41583,-0.89874 -0.85849,-1.94503 -1.32798,-3.13888c-0.45607,-1.20726 -0.93897,-2.55535 -1.44871,-4.04432h-0.08048c0.0939,0.69752 0.17438,1.5225 0.24145,2.47489c0.06707,0.95239 0.12072,1.92492 0.16097,2.91755c0.04025,0.99264 0.06036,1.90478 0.06036,2.73646c0,1.2475 -0.12744,2.13282 -0.38231,2.65597c-0.24145,0.52314 -0.62376,0.78473 -1.1469,0.78473c-0.5768,0 -0.99264,-0.26832 -1.2475,-0.80484c-0.24145,-0.55003 -0.36217,-1.39511 -0.36217,-2.53524c0,-0.71094 0.01342,-1.5225 0.04025,-2.43463c0.04025,-0.91216 0.0939,-1.85113 0.16097,-2.81694c0.06707,-0.96581 0.15427,-1.88467 0.26158,-2.75658c0.13413,-1.08653 0.32194,-1.87126 0.56339,-2.35416c0.24145,-0.49632 0.65058,-0.74448 1.22737,-0.74448zM193.33024,172.40432c0.53652,0 0.91881,0.14756 1.1469,0.44267c0.24145,0.2951 0.36217,0.63715 0.36217,1.02618c0,0.4829 -0.14761,0.85849 -0.44267,1.12678c-0.2817,0.25486 -0.68411,0.38231 -1.20726,0.38231c-0.50977,0 -0.89208,-0.14084 -1.1469,-0.42253c-0.25496,-0.2951 -0.38231,-0.63715 -0.38231,-1.02618c0,-0.50974 0.15421,-0.89202 0.46279,-1.1469c0.30843,-0.25486 0.71085,-0.38231 1.20726,-0.38231zM193.45097,176.89131c0.42915,0 0.76459,0.40242 1.00604,1.20726c0.25482,0.80484 0.38231,2.08586 0.38231,3.84312c0,2.15965 -0.15435,3.71563 -0.46279,4.66807c-0.30858,0.95245 -0.7781,1.4286 -1.40846,1.4286c-0.4829,0 -0.83846,-0.3488 -1.06642,-1.04629c-0.22808,-0.711 -0.34206,-1.94497 -0.34206,-3.70226c0,-2.15965 0.17434,-3.76263 0.52314,-4.80893c0.36217,-1.0597 0.81821,-1.58957 1.36823,-1.58957zM199.47017,187.87738c-0.41579,0 -0.74448,-0.09384 -0.98592,-0.2817c-0.24145,-0.2012 -0.4359,-0.52991 -0.5835,-0.98592c-0.2012,-0.67074 -0.35542,-1.51584 -0.46279,-2.53524c-0.09384,-1.03288 -0.14084,-2.30051 -0.14084,-3.80287c0,-0.92556 0.03362,-1.85113 0.10061,-2.77669c0.08048,-0.93897 0.18108,-1.79077 0.30181,-2.55535c0.12072,-0.77801 0.24821,-1.38164 0.38231,-1.81088c0.14761,-0.45607 0.32194,-0.77131 0.52314,-0.94568c0.2012,-0.17438 0.4293,-0.26158 0.68411,-0.26158c0.26832,0 0.4829,0.0939 0.64387,0.2817c0.16097,0.17438 0.28844,0.4896 0.38231,0.94568c0.08048,0.44267 0.14084,0.98592 0.18108,1.62979c0.05376,0.64387 0.08048,1.3347 0.08048,2.07247c0,1.00604 -0.04686,2.06575 -0.14084,3.17911c-0.09384,1.11336 -0.22134,2.20659 -0.38231,3.27973c-0.14746,1.07313 -0.32855,2.05909 -0.54326,2.95777l-0.56339,-0.2817c0.3488,-0.4293 0.74448,-0.76459 1.18715,-1.00604c0.45618,-0.24145 0.87197,-0.36217 1.2475,-0.36217c0.30858,0 0.54326,0.08718 0.70423,0.26158c0.17448,0.16097 0.26158,0.41579 0.26158,0.76459c0,0.3488 -0.15421,0.69749 -0.46279,1.04629c-0.29507,0.3488 -0.664,0.63712 -1.10665,0.86521c-0.44267,0.21457 -0.87857,0.32194 -1.30787,0.32194zM212.96732,188.03835c-0.45604,0 -0.77136,-0.17434 -0.94568,-0.52314c-0.16097,-0.36217 -0.25482,-0.93233 -0.2817,-1.71029l0.2012,0.10061c-0.75122,1.46208 -2.17307,2.19319 -4.26565,2.19319c-0.95245,0 -1.74378,-0.16772 -2.37427,-0.50303c-0.6305,-0.3488 -1.09991,-0.80484 -1.40846,-1.36823c-0.29507,-0.57676 -0.44267,-1.2005 -0.44267,-1.87126c0,-1.15361 0.40242,-2.06575 1.20726,-2.73646c0.80484,-0.68411 1.87126,-1.02618 3.19925,-1.02618c0.87197,0 1.62979,0.12744 2.27368,0.38231c0.64387,0.25486 1.19389,0.61035 1.64992,1.06642l-0.34206,-0.04025c-0.09384,-1.35481 -0.38905,-2.32062 -0.88532,-2.89742c-0.4829,-0.59022 -1.17378,-0.88532 -2.07247,-0.88532c-0.52314,0 -1.00604,0.08048 -1.44871,0.24145c-0.44267,0.16097 -0.85183,0.32866 -1.22737,0.50303c-0.36217,0.16097 -0.70423,0.24145 -1.02618,0.24145c-0.32194,0 -0.57676,-0.10732 -0.76459,-0.32194c-0.17434,-0.21462 -0.26158,-0.4896 -0.26158,-0.82495c0,-0.4829 0.22808,-0.93897 0.68411,-1.36823c0.46955,-0.42925 1.08653,-0.77801 1.85113,-1.04629c0.76459,-0.26829 1.59632,-0.40242 2.495,-0.40242c1.08653,0 2.01885,0.26158 2.79683,0.78473c0.77796,0.52314 1.36823,1.28774 1.77065,2.29379c0.3488,0.85849 0.59687,1.81761 0.74448,2.87731c0.14761,1.0597 0.22134,2.19319 0.22134,3.40045c0,0.91219 -0.047,1.61643 -0.14084,2.11271c-0.09384,0.49626 -0.24145,0.84509 -0.44267,1.04629c-0.18785,0.18785 -0.44267,0.2817 -0.76459,0.2817zM208.52058,185.7848c0.44267,0 0.89208,-0.06036 1.3481,-0.18108c0.45604,-0.1341 0.83832,-0.32869 1.1469,-0.5835c0.30858,-0.25486 0.46279,-0.57011 0.46279,-0.94568c0,-0.32194 -0.1341,-0.5835 -0.40242,-0.78473c-0.25482,-0.21462 -0.59687,-0.37559 -1.02618,-0.4829c-0.41579,-0.10732 -0.86521,-0.16097 -1.3481,-0.16097c-0.81821,0 -1.44196,0.14084 -1.87126,0.42253c-0.41579,0.2817 -0.62376,0.65728 -0.62376,1.12678c0,0.50974 0.19445,0.90545 0.5835,1.18715c0.40242,0.26832 0.97918,0.40242 1.7304,0.40242zM218.54042,172.40432c0.53652,0 0.91881,0.14756 1.1469,0.44267c0.24145,0.2951 0.36217,0.63715 0.36217,1.02618c0,0.4829 -0.14761,0.85849 -0.44267,1.12678c-0.2817,0.25486 -0.68411,0.38231 -1.20726,0.38231c-0.50977,0 -0.89208,-0.14084 -1.1469,-0.42253c-0.25496,-0.2951 -0.38231,-0.63715 -0.38231,-1.02618c0,-0.50974 0.15421,-0.89202 0.46279,-1.1469c0.30843,-0.25486 0.71085,-0.38231 1.20726,-0.38231zM218.66115,176.89131c0.42915,0 0.76459,0.40242 1.00604,1.20726c0.25482,0.80484 0.38231,2.08586 0.38231,3.84312c0,2.15965 -0.15435,3.71563 -0.46279,4.66807c-0.30858,0.95245 -0.7781,1.4286 -1.40846,1.4286c-0.4829,0 -0.83846,-0.3488 -1.06642,-1.04629c-0.22808,-0.711 -0.34206,-1.94497 -0.34206,-3.70226c0,-2.15965 0.17434,-3.76263 0.52314,-4.80893c0.36217,-1.0597 0.81821,-1.58957 1.36823,-1.58957zM230.13715,187.95786c-0.81821,0 -1.4286,-0.10735 -1.83102,-0.32194c-0.40242,-0.21457 -0.73771,-0.60362 -1.00604,-1.16701c-0.18785,-0.4293 -0.3488,-1.12678 -0.4829,-2.09258c-0.12072,-0.97922 -0.18108,-2.24683 -0.18108,-3.80287c0,-1.08653 0.02011,-2.12611 0.06036,-3.11876c0.05362,-0.99264 0.12749,-1.75723 0.22134,-2.29379c0.10735,-0.68411 0.2817,-1.17373 0.52314,-1.46884c0.25482,-0.2951 0.57014,-0.44267 0.94568,-0.44267c0.33529,0 0.59687,0.14756 0.78473,0.44267c0.2012,0.2951 0.34206,0.69752 0.42253,1.20726c0.08048,0.49632 0.12072,1.04629 0.12072,1.64992c0,1.63651 -0.06036,3.29312 -0.18108,4.96989c-0.10735,1.67675 -0.26158,3.21936 -0.46279,4.62782l-0.26158,-0.36217c0.60362,-0.41579 1.2475,-0.77136 1.93162,-1.06642c0.69749,-0.2951 1.37498,-0.52314 2.03221,-0.68411c0.67074,-0.16097 1.25425,-0.24145 1.75052,-0.24145c0.49626,0 0.85846,0.10061 1.08653,0.30181c0.24145,0.2012 0.36217,0.4896 0.36217,0.86521c0,0.37554 -0.16772,0.75784 -0.50303,1.1469c-0.32194,0.37554 -0.78473,0.70423 -1.38835,0.98592c-0.33529,0.16097 -0.73111,0.30858 -1.18715,0.44267c-0.45604,0.12072 -0.92556,0.22134 -1.40846,0.30181c-0.46955,0.08048 -0.91881,0.12072 -1.3481,0.12072zM246.43028,188.03835c-0.45604,0 -0.77136,-0.17434 -0.94568,-0.52314c-0.16097,-0.36217 -0.25482,-0.93233 -0.2817,-1.71029l0.2012,0.10061c-0.75122,1.46208 -2.17307,2.19319 -4.26565,2.19319c-0.95245,0 -1.74378,-0.16772 -2.37427,-0.50303c-0.6305,-0.3488 -1.09991,-0.80484 -1.40846,-1.36823c-0.29507,-0.57676 -0.44267,-1.2005 -0.44267,-1.87126c0,-1.15361 0.40242,-2.06575 1.20726,-2.73646c0.80484,-0.68411 1.87126,-1.02618 3.19925,-1.02618c0.87197,0 1.62979,0.12744 2.27368,0.38231c0.64387,0.25486 1.19389,0.61035 1.64992,1.06642l-0.34206,-0.04025c-0.09384,-1.35481 -0.38905,-2.32062 -0.88532,-2.89742c-0.4829,-0.59022 -1.17378,-0.88532 -2.07247,-0.88532c-0.52314,0 -1.00604,0.08048 -1.44871,0.24145c-0.44267,0.16097 -0.85183,0.32866 -1.22737,0.50303c-0.36217,0.16097 -0.70423,0.24145 -1.02618,0.24145c-0.32194,0 -0.57676,-0.10732 -0.76459,-0.32194c-0.17434,-0.21462 -0.26158,-0.4896 -0.26158,-0.82495c0,-0.4829 0.22808,-0.93897 0.68411,-1.36823c0.46955,-0.42925 1.08653,-0.77801 1.85113,-1.04629c0.76459,-0.26829 1.59632,-0.40242 2.495,-0.40242c1.08653,0 2.01885,0.26158 2.79683,0.78473c0.77796,0.52314 1.36823,1.28774 1.77065,2.29379c0.3488,0.85849 0.59687,1.81761 0.74448,2.87731c0.14761,1.0597 0.22134,2.19319 0.22134,3.40045c0,0.91219 -0.047,1.61643 -0.14084,2.11271c-0.09384,0.49626 -0.24145,0.84509 -0.44267,1.04629c-0.18785,0.18785 -0.44267,0.2817 -0.76459,0.2817zM241.98354,185.7848c0.44267,0 0.89208,-0.06036 1.3481,-0.18108c0.45604,-0.1341 0.83832,-0.32869 1.1469,-0.5835c0.30858,-0.25486 0.46279,-0.57011 0.46279,-0.94568c0,-0.32194 -0.1341,-0.5835 -0.40242,-0.78473c-0.25482,-0.21462 -0.59687,-0.37559 -1.02618,-0.4829c-0.41579,-0.10732 -0.86521,-0.16097 -1.3481,-0.16097c-0.81821,0 -1.44196,0.14084 -1.87126,0.42253c-0.41579,0.2817 -0.62376,0.65728 -0.62376,1.12678c0,0.50974 0.19445,0.90545 0.5835,1.18715c0.40242,0.26832 0.97918,0.40242 1.7304,0.40242zM253.02392,175.72429h-0.40242c-0.04025,-0.59022 -0.02673,-1.1469 0.04025,-1.67005c0.06713,-0.53655 0.20797,-0.96581 0.42253,-1.28774c0.22808,-0.33535 0.55003,-0.50303 0.96581,-0.50303c0.37569,0 0.65063,0.12072 0.82495,0.36217c0.17448,0.24145 0.26158,0.5768 0.26158,1.00604c0,0.84509 -0.16097,1.56943 -0.4829,2.17307l-0.36217,-0.04025c0.72436,-0.25486 1.54271,-0.38231 2.45476,-0.38231c0.5769,0 1.03292,0.11401 1.36823,0.34206c0.3488,0.21462 0.52314,0.5835 0.52314,1.10665c0,0.49632 -0.2012,0.87191 -0.60362,1.12678c-0.40242,0.25486 -0.90545,0.38231 -1.50907,0.38231c-0.36217,0 -0.75108,-0.01341 -1.16701,-0.04025c-0.40242,-0.04025 -0.79808,-0.10061 -1.18715,-0.18108l0.34206,-0.42253c0.12072,0.50974 0.23485,1.09325 0.34206,1.75052c0.12072,0.64387 0.22808,1.31458 0.32194,2.0121c0.09399,0.69752 0.16772,1.37494 0.22134,2.03221c0.05376,0.65728 0.08048,1.2475 0.08048,1.77065c0,0.85846 -0.1341,1.53595 -0.40242,2.03221c-0.26818,0.49626 -0.664,0.74448 -1.18715,0.74448c-0.41579,0 -0.74448,-0.12749 -0.98592,-0.38231c-0.22794,-0.25482 -0.39567,-0.57676 -0.50303,-0.96581c-0.09384,-0.40242 -0.15421,-0.81821 -0.18108,-1.2475c-0.01337,-0.4293 -0.02011,-0.81825 -0.02011,-1.16701c0,-0.59022 0.02688,-1.25422 0.08048,-1.99199c0.05376,-0.75119 0.12749,-1.5225 0.22134,-2.31392c0.10735,-0.79143 0.22808,-1.55603 0.36217,-2.29379l0.40242,0.34206c-0.68411,0.34877 -1.5292,0.52314 -2.53524,0.52314c-0.61699,0 -1.09314,-0.11401 -1.4286,-0.34206c-0.33529,-0.22804 -0.50303,-0.5835 -0.50303,-1.06642c0,-0.52314 0.18785,-0.92556 0.56339,-1.20726c0.37569,-0.2951 0.87871,-0.44267 1.50907,-0.44267c0.41593,0 0.80484,0.02683 1.16701,0.08048c0.37569,0.04025 0.70423,0.0939 0.98592,0.16097zM262.04416,172.40432c0.53652,0 0.91881,0.14756 1.1469,0.44267c0.24145,0.2951 0.36217,0.63715 0.36217,1.02618c0,0.4829 -0.14761,0.85849 -0.44267,1.12678c-0.2817,0.25486 -0.68411,0.38231 -1.20726,0.38231c-0.50977,0 -0.89208,-0.14084 -1.1469,-0.42253c-0.25482,-0.2951 -0.38231,-0.63715 -0.38231,-1.02618c0,-0.50974 0.15421,-0.89202 0.46279,-1.1469c0.30858,-0.25486 0.711,-0.38231 1.20726,-0.38231zM262.16488,176.89131c0.4293,0 0.76459,0.40242 1.00604,1.20726c0.25482,0.80484 0.38231,2.08586 0.38231,3.84312c0,2.15965 -0.15421,3.71563 -0.46279,4.66807c-0.30858,0.95245 -0.77796,1.4286 -1.40846,1.4286c-0.4829,0 -0.83832,-0.3488 -1.06642,-1.04629c-0.22808,-0.711 -0.34206,-1.94497 -0.34206,-3.70226c0,-2.15965 0.17434,-3.76263 0.52314,-4.80893c0.36217,-1.0597 0.81821,-1.58957 1.36823,-1.58957zM268.08363,171.9013c0.4293,0 0.72436,0.16769 0.88532,0.50303c0.17434,0.33535 0.26158,0.83838 0.26158,1.50907c0,0.5768 -0.03348,1.30116 -0.10061,2.17307c-0.06713,0.87191 -0.15421,1.71029 -0.26158,2.51513h-0.12072c0.44267,-0.83167 1.0128,-1.50236 1.71029,-2.0121c0.69749,-0.50974 1.43534,-0.76459 2.2133,-0.76459c0.68411,0 1.2945,0.16769 1.83102,0.50303c0.53652,0.32194 0.97256,0.83167 1.30787,1.5292c0.30858,0.63046 0.53652,1.38164 0.68411,2.25355c0.14761,0.85849 0.22134,1.67675 0.22134,2.45476c0,1.2475 -0.08724,2.24014 -0.26158,2.97791c-0.16097,0.73771 -0.38905,1.27439 -0.68411,1.60968c-0.29507,0.32194 -0.64387,0.4829 -1.04629,0.4829c-0.84509,0 -1.26763,-0.69086 -1.26763,-2.07247c0,-0.67071 0.03348,-1.36153 0.10061,-2.07247c0.08048,-0.71094 0.12072,-1.36153 0.12072,-1.95174c0,-1.00604 -0.16097,-1.75723 -0.4829,-2.25355c-0.30858,-0.50974 -0.75784,-0.76459 -1.3481,-0.76459c-0.73771,0 -1.33475,0.32866 -1.79077,0.98592c-0.45604,0.65728 -0.68411,1.56272 -0.68411,2.71634c0,0.60362 0.05362,1.26763 0.16097,1.99199c0.10735,0.71094 0.16097,1.36147 0.16097,1.95174c0,0.65724 -0.12749,1.13353 -0.38231,1.4286c-0.24145,0.2817 -0.55663,0.42253 -0.94568,0.42253c-0.29507,0 -0.55663,-0.06036 -0.78473,-0.18108c-0.21457,-0.10735 -0.40242,-0.32869 -0.56339,-0.664c-0.14761,-0.3488 -0.27493,-0.86521 -0.38231,-1.54932c-0.08048,-0.52314 -0.16097,-1.1335 -0.24145,-1.83102c-0.08048,-0.69752 -0.14761,-1.4286 -0.2012,-2.19319c-0.05362,-0.76459 -0.10061,-1.50907 -0.14084,-2.23344c-0.02688,-0.73777 -0.04025,-1.40846 -0.04025,-2.0121c0,-1.90478 0.18108,-3.28643 0.54326,-4.14492c0.36217,-0.87191 0.87197,-1.30787 1.5292,-1.30787zM287.96907,188.03835c-0.45604,0 -0.77122,-0.17434 -0.94568,-0.52314c-0.16097,-0.36217 -0.25482,-0.93233 -0.2817,-1.71029l0.2012,0.10061c-0.75108,1.46208 -2.17307,2.19319 -4.26565,2.19319c-0.9523,0 -1.74378,-0.16772 -2.37427,-0.50303c-0.63036,-0.3488 -1.09991,-0.80484 -1.40846,-1.36823c-0.29507,-0.57676 -0.44267,-1.2005 -0.44267,-1.87126c0,-1.15361 0.40242,-2.06575 1.20726,-2.73646c0.80484,-0.68411 1.87126,-1.02618 3.19925,-1.02618c0.87197,0 1.62979,0.12744 2.27368,0.38231c0.64387,0.25486 1.19389,0.61035 1.64992,1.06642l-0.34206,-0.04025c-0.09384,-1.35481 -0.38891,-2.32062 -0.88532,-2.89742c-0.4829,-0.59022 -1.17364,-0.88532 -2.07247,-0.88532c-0.52314,0 -1.00604,0.08048 -1.44871,0.24145c-0.44267,0.16097 -0.8517,0.32866 -1.22737,0.50303c-0.36217,0.16097 -0.70423,0.24145 -1.02618,0.24145c-0.32194,0 -0.57676,-0.10732 -0.76459,-0.32194c-0.17434,-0.21462 -0.26158,-0.4896 -0.26158,-0.82495c0,-0.4829 0.22808,-0.93897 0.68411,-1.36823c0.46955,-0.42925 1.08653,-0.77801 1.85113,-1.04629c0.76459,-0.26829 1.59632,-0.40242 2.495,-0.40242c1.08653,0 2.01885,0.26158 2.79683,0.78473c0.7781,0.52314 1.36823,1.28774 1.77065,2.29379c0.3488,0.85849 0.59701,1.81761 0.74448,2.87731c0.14761,1.0597 0.22134,2.19319 0.22134,3.40045c0,0.91219 -0.04686,1.61643 -0.14084,2.11271c-0.09384,0.49626 -0.24145,0.84509 -0.44267,1.04629c-0.1877,0.18785 -0.44267,0.2817 -0.76459,0.2817zM283.52233,185.7848c0.44267,0 0.89208,-0.06036 1.3481,-0.18108c0.45618,-0.1341 0.83846,-0.32869 1.1469,-0.5835c0.30858,-0.25486 0.46279,-0.57011 0.46279,-0.94568c0,-0.32194 -0.1341,-0.5835 -0.40242,-0.78473c-0.25482,-0.21462 -0.59687,-0.37559 -1.02618,-0.4829c-0.41579,-0.10732 -0.86521,-0.16097 -1.3481,-0.16097c-0.81821,0 -1.44196,0.14084 -1.87126,0.42253c-0.41579,0.2817 -0.62376,0.65728 -0.62376,1.12678c0,0.50974 0.19459,0.90545 0.5835,1.18715c0.40242,0.26832 0.97932,0.40242 1.7304,0.40242zM293.82384,175.32187c0.4293,0 0.71774,0.17438 0.86521,0.52314c0.16097,0.34877 0.24145,0.86521 0.24145,1.54932c0,0.16097 -0.01337,0.33535 -0.04025,0.52314c-0.01337,0.17438 -0.04025,0.33535 -0.08048,0.4829l-0.04025,-0.40242c0.32194,-0.87191 0.81835,-1.54932 1.48895,-2.03221c0.67074,-0.49632 1.38174,-0.74448 2.13282,-0.74448c0.83172,0 1.52258,0.23473 2.07247,0.70423c0.56339,0.46949 0.97932,1.12678 1.2475,1.97185c0.2817,0.84509 0.42253,1.84441 0.42253,2.99803c0,0.71094 -0.03348,1.41519 -0.10061,2.11271c-0.05362,0.68411 -0.1341,1.31458 -0.24145,1.89137c-0.09384,0.56339 -0.2012,1.02618 -0.32194,1.38835c-0.16097,0.45604 -0.3688,0.79808 -0.62376,1.02618c-0.25482,0.21457 -0.55663,0.32194 -0.90545,0.32194c-0.34866,0 -0.61699,-0.12749 -0.80484,-0.38231c-0.1877,-0.25482 -0.2817,-0.59687 -0.2817,-1.02618c0,-0.45604 0.03362,-1.00604 0.10061,-1.64992c0.06713,-0.65728 0.12749,-1.32127 0.18108,-1.99199c0.06713,-0.68411 0.10061,-1.30116 0.10061,-1.85113c0,-1.87797 -0.61699,-2.81694 -1.85113,-2.81694c-0.65724,0 -1.20726,0.2951 -1.64992,0.88532c-0.44267,0.5768 -0.73771,1.40175 -0.88532,2.47489c-0.04025,0.36217 -0.06036,0.81155 -0.06036,1.3481c0,0.53655 0,1.07313 0,1.60968c0.01351,0.52314 0,0.96581 -0.04025,1.32798c-0.05362,0.80484 -0.20783,1.3816 -0.46279,1.7304c-0.24145,0.3488 -0.57676,0.52314 -1.00604,0.52314c-0.49626,0 -0.87181,-0.22808 -1.12678,-0.68411c-0.25482,-0.46955 -0.38231,-1.25425 -0.38231,-2.35416c0,-0.56339 0.01351,-1.19385 0.04025,-1.89137c0.02688,-0.69752 0.06036,-1.39506 0.10061,-2.09258c0.05376,-0.71094 0.11412,-1.35481 0.18108,-1.93162c0.13424,-1.08653 0.32869,-1.94503 0.5835,-2.57549c0.25496,-0.64387 0.63727,-0.96581 1.1469,-0.96581z"/></g></g></svg>