<svg version="1.1" xmlns="http://www.w3.org/2000/svg" xmlns:xlink="http://www.w3.org/1999/xlink" width="480" height="363.0043" viewBox="0,0,480,363.0043"><g transform="translate(0,2.0043)"><g data-paper-data="{&quot;isPaintingLayer&quot;:true}" fill-rule="nonzero" stroke-linecap="butt" stroke-linejoin="miter" stroke-miterlimit="10" stroke-dasharray="" stroke-dashoffset="0" style="mix-blend-mode: normal"><path d="M0,-2.00005h480v363.00005h-480z" fill="#ececec" stroke="none" stroke-width="1"/><path d="M40.75,-2.00212l1.0452,362.99918" fill="none" stroke="#dcd6d6" stroke-width="1.5"/><path d="M60.75,-2.00212l1.0452,362.99918" fill="none" stroke="#dcd6d6" stroke-width="1.5"/><path d="M20.75,-2.00239l0.92797,362.99994" fill="none" stroke="#dcd6d6" stroke-width="1.5"/><path d="M100.75,-2.00212l1.045,362.99918" fill="none" stroke="#dcd6d6" stroke-width="1.5"/><path d="M120.75,-2.00212l1.045,362.99918" fill="none" stroke="#dcd6d6" stroke-width="1.5"/><path d="M80.75,-2.00212l1.0452,362.99918" fill="none" stroke="#dcd6d6" stroke-width="1.5"/><path d="M160.75,-2.00212l1.045,362.99918" fill="none" stroke="#dcd6d6" stroke-width="1.5"/><path d="M180.75,-2.00212l1.045,362.99918" fill="none" stroke="#dcd6d6" stroke-width="1.5"/><path d="M140.75,-2.00212l1.045,362.99918" fill="none" stroke="#dcd6d6" stroke-width="1.5"/><path d="M220.75,-2.00212l1.045,362.99918" fill="none" stroke="#dcd6d6" stroke-width="1.5"/><path d="M240.75,-2.00212l1.045,362.99918" fill="none" stroke="#dcd6d6" stroke-width="1.5"/><path d="M201.795,360.99706l-1.045,-362.99918" fill="none" stroke="#dcd6d6" stroke-width="1.5"/><path d="M280.75,-2.00212l1.045,362.99918" fill="none" stroke="#dcd6d6" stroke-width="1.5"/><path d="M300.75,-2.00212l1.045,362.99918" fill="none" stroke="#dcd6d6" stroke-width="1.5"/><path d="M260.75,-2.00212l1.045,362.99918" fill="none" stroke="#dcd6d6" stroke-width="1.5"/><path d="M340.75,-2.00212l1.045,362.99918" fill="none" stroke="#dcd6d6" stroke-width="1.5"/><path d="M360.75,-2.00212l1.045,362.99918" fill="none" stroke="#dcd6d6" stroke-width="1.5"/><path d="M320.75,-2.00212l1.045,362.99918" fill="none" stroke="#dcd6d6" stroke-width="1.5"/><path d="M400.75,-2.00212l1.045,362.99918" fill="none" stroke="#dcd6d6" stroke-width="1.5"/><path d="M420.75,-2.00212l1.045,362.99918" fill="none" stroke="#dcd6d6" stroke-width="1.5"/><path d="M380.75,-2.00212l1.045,362.99918" fill="none" stroke="#dcd6d6" stroke-width="1.5"/><path d="M460.75,-2.00212l1.045,362.99918" fill="none" stroke="#dcd6d6" stroke-width="1.5"/><path d="M440.75,-2.00212l1.045,362.99918" fill="none" stroke="#dcd6d6" stroke-width="1.5"/><path d="M0,17.43076h480" fill="none" stroke="#dcd6d6" stroke-width="1.5"/><path d="M0,37.59757h480" fill="none" stroke="#dcd6d6" stroke-width="1.5"/><path d="M480,57.76409l-480,0.0001" fill="none" stroke="#dcd6d6" stroke-width="1.5"/><path d="M0,77.931h480" fill="none" stroke="#dcd6d6" stroke-width="1.5"/><path d="M0,98.09771h480" fill="none" stroke="#dcd6d6" stroke-width="1.5"/><path d="M0,118.26383h480" fill="none" stroke="#dcd6d6" stroke-width="1.5"/><path d="M0,138.43094h480" fill="none" stroke="#dcd6d6" stroke-width="1.5"/><path d="M0,158.59706h480" fill="none" stroke="#dcd6d6" stroke-width="1.5"/><path d="M0,178.76417h480" fill="none" stroke="#dcd6d6" stroke-width="1.5"/><path d="M0,198.93127h480" fill="none" stroke="#dcd6d6" stroke-width="1.5"/><path d="M0,219.0974h480" fill="none" stroke="#dcd6d6" stroke-width="1.5"/><path d="M0,239.2645h480" fill="none" stroke="#dcd6d6" stroke-width="1.5"/><path d="M0,259.43063h480" fill="none" stroke="#dcd6d6" stroke-width="1.5"/><path d="M0,279.59773h480" fill="none" stroke="#dcd6d6" stroke-width="1.5"/><path d="M0,299.76385h480" fill="none" stroke="#dcd6d6" stroke-width="1.5"/><path d="M0,319.93096h480" fill="none" stroke="#dcd6d6" stroke-width="1.5"/><path d="M480,340.09708h-480" fill="none" stroke="#dcd6d6" stroke-width="1.5"/><g><path d="M40.8541,320.77322v-291.38112h403v291.38112z" fill="#ebebeb" stroke="none" stroke-width="1"/><path d="M40.9541,320.67511v-291.1849h402.8v291.1849z" fill="none" stroke="#000000" stroke-width="0.2"/></g><path d="M427.19033,42.66819c0,-2.45568 1.93935,-4.4464 4.33167,-4.4464c2.39232,0 4.33167,1.99072 4.33167,4.4464c0,2.45568 -1.93935,4.4464 -4.33167,4.4464c-2.39232,0 -4.33167,-1.99072 -4.33167,-4.4464z" fill="#737373" stroke="none" stroke-width="1"/><path d="M49.85413,42.66819c0,-2.45568 1.93935,-4.4464 4.33167,-4.4464c2.39232,0 4.33167,1.99072 4.33167,4.4464c0,2.45568 -1.93935,4.4464 -4.33167,4.4464c-2.39232,0 -4.33167,-1.99072 -4.33167,-4.4464z" fill="#737373" stroke="none" stroke-width="1"/><path d="M49.85413,310.43998c0,-2.45568 1.93935,-4.4464 4.33167,-4.4464c2.39232,0 4.33167,1.99072 4.33167,4.4464c0,2.45568 -1.93935,4.4464 -4.33167,4.4464c-2.39232,0 -4.33167,-1.99072 -4.33167,-4.4464z" fill="#737373" stroke="none" stroke-width="1"/><path d="M427.19033,310.43998c0,-2.45568 1.93935,-4.4464 4.33167,-4.4464c2.39232,0 4.33167,1.99072 4.33167,4.4464c0,2.45568 -1.93935,4.4464 -4.33167,4.4464c-2.39232,0 -4.33167,-1.99072 -4.33167,-4.4464z" fill="#737373" stroke="none" stroke-width="1"/></g></g></svg>