<svg version="1.1" xmlns="http://www.w3.org/2000/svg" xmlns:xlink="http://www.w3.org/1999/xlink" width="44.80851" height="19.76469" viewBox="0,0,44.80851,19.76469"><g transform="translate(-215.57447,-169.81915)"><g data-paper-data="{&quot;isPaintingLayer&quot;:true}" fill-rule="nonzero" stroke-width="1" stroke-linecap="butt" stroke-linejoin="miter" stroke-miterlimit="10" stroke-dasharray="" stroke-dashoffset="0" style="mix-blend-mode: normal"><path d="M216.07447,173.13385c0,-1.55452 1.31734,-2.8147 2.94236,-2.8147h37.92378c1.62503,0 2.94236,1.26019 2.94236,2.8147v13.13528c0,1.55453 -1.31733,2.8147 -2.94236,2.8147h-37.92378c-1.62502,0 -2.94236,-1.26017 -2.94236,-2.8147z" fill="#a5a7a9" stroke="#000000"/><path d="M229.4511,177.62424c0.14862,0 0.29966,0.08025 0.45312,0.24081c0.15823,0.15593 0.32366,0.38987 0.49628,0.7018c0.17262,0.31193 0.35962,0.69948 0.56101,1.16279c0.20616,0.4633 0.43155,0.99997 0.67609,1.61001h0.02877c-0.03354,-0.22017 -0.06473,-0.46099 -0.0935,-0.72244c-0.02877,-0.26145 -0.05512,-0.52522 -0.07912,-0.79124c-0.024,-0.26602 -0.04315,-0.51371 -0.05754,-0.74308c-0.00961,-0.23393 -0.01438,-0.43346 -0.01438,-0.59859c0,-0.38074 0.03596,-0.64907 0.10789,-0.80501c0.0767,-0.16056 0.1942,-0.24081 0.35243,-0.24081c0.11031,0 0.19897,0.02752 0.26612,0.08256c0.06715,0.05504 0.12469,0.13529 0.17262,0.24081c0.11031,0.25689 0.18942,0.61004 0.23735,1.05958c0.04793,0.44954 0.07192,0.96325 0.07192,1.54121c0,0.44491 -0.01916,0.82333 -0.05754,1.13526c-0.03838,0.31193 -0.11031,0.54812 -0.21577,0.70868c-0.10547,0.16056 -0.25893,0.24081 -0.46032,0.24081c-0.13424,0 -0.27089,-0.05048 -0.40997,-0.15137c-0.13908,-0.10552 -0.28051,-0.25914 -0.42435,-0.46099c-0.13908,-0.20641 -0.28528,-0.4633 -0.43874,-0.7706c-0.14862,-0.3073 -0.30686,-0.66508 -0.4747,-1.07334c-0.16301,-0.41282 -0.33563,-0.87381 -0.51786,-1.38296h-0.02877c0.03354,0.2385 0.06231,0.52059 0.08631,0.84629c0.024,0.32569 0.04315,0.6582 0.05754,0.99766c0.01438,0.33945 0.02158,0.65132 0.02158,0.93573c0,0.42658 -0.04557,0.72932 -0.13666,0.90821c-0.08631,0.17889 -0.22297,0.26834 -0.40997,0.26834c-0.20616,0 -0.35485,-0.09176 -0.44593,-0.27522c-0.08631,-0.18808 -0.12946,-0.47706 -0.12946,-0.86693c0,-0.24313 0.00477,-0.52059 0.01438,-0.83253c0.01438,-0.31193 0.03354,-0.633 0.05754,-0.96325c0.024,-0.33026 0.05512,-0.64444 0.0935,-0.94261c0.04793,-0.37154 0.11508,-0.63988 0.20139,-0.80501c0.08631,-0.1697 0.23258,-0.25457 0.43874,-0.25457zM235.55422,182.57124c-0.53224,0 -0.95659,-0.07568 -1.27306,-0.22705c-0.31647,-0.15137 -0.54421,-0.36923 -0.68328,-0.65364c-0.13908,-0.28441 -0.20858,-0.6238 -0.20858,-1.0183c0,-0.49995 0.09592,-0.92429 0.2877,-1.27287c0.19662,-0.35321 0.46509,-0.6238 0.80555,-0.81189c0.34524,-0.18808 0.73605,-0.2821 1.17237,-0.2821c0.51308,0 0.88944,0.11465 1.12921,0.34402c0.23977,0.22474 0.35962,0.52059 0.35962,0.88757c0,0.29354 -0.08154,0.54812 -0.24454,0.76372c-0.15823,0.21098 -0.37878,0.37386 -0.6617,0.48851c-0.28292,0.11465 -0.60894,0.17201 -0.97817,0.17201c-0.20616,0 -0.4052,-0.02521 -0.59697,-0.07568c-0.19178,-0.05048 -0.3644,-0.11928 -0.51786,-0.20641l0.17262,-0.30274c-0.01438,0.11009 -0.02158,0.22017 -0.02158,0.33026c0,0.32106 0.10547,0.55275 0.31647,0.69492c0.211,0.13761 0.51066,0.20641 0.89906,0.20641c0.30208,0 0.54421,-0.02521 0.72644,-0.07568c0.18223,-0.05048 0.33563,-0.09864 0.46032,-0.14449c0.12469,-0.05048 0.24696,-0.07568 0.36681,-0.07568c0.06715,0 0.12704,0.01833 0.17981,0.05504c0.05754,0.03209 0.10311,0.08025 0.13666,0.14449c0.03838,0.06424 0.05754,0.14217 0.05754,0.23393c0,0.13761 -0.07192,0.27065 -0.21577,0.39906c-0.14385,0.12385 -0.3572,0.22705 -0.64013,0.30962c-0.27809,0.078 -0.62097,0.11697 -1.02852,0.11697zM235.13705,180.32135c0.34046,0 0.61378,-0.0688 0.81994,-0.20641c0.20616,-0.13761 0.30928,-0.3073 0.30928,-0.50915c0,-0.16056 -0.05754,-0.29129 -0.17262,-0.39218c-0.11031,-0.10552 -0.28528,-0.15825 -0.52505,-0.15825c-0.22538,0 -0.42913,0.04128 -0.61136,0.12385c-0.17739,0.078 -0.31647,0.1812 -0.41716,0.30962c-0.10069,0.12841 -0.15104,0.26834 -0.15104,0.4197c0,0.13304 0.06473,0.23625 0.1942,0.30962c0.13424,0.0688 0.31889,0.10321 0.55382,0.10321zM238.27211,182.57812c-0.13424,0 -0.24932,-0.04585 -0.34524,-0.13761c-0.09586,-0.09633 -0.14385,-0.21561 -0.14385,-0.35778c0,-0.16513 0.06957,-0.34402 0.20858,-0.53667c0.13908,-0.19722 0.34046,-0.38987 0.60417,-0.57795c0.26854,-0.18808 0.58743,-0.35321 0.95659,-0.49539v-0.02752c-0.60894,-0.24769 -1.05729,-0.52522 -1.34499,-0.83253c-0.28286,-0.3073 -0.42435,-0.5894 -0.42435,-0.84629c0,-0.10552 0.024,-0.19497 0.07192,-0.26834c0.05277,-0.07337 0.11992,-0.13073 0.20139,-0.17201c0.08631,-0.04128 0.17504,-0.06192 0.26612,-0.06192c0.19662,0 0.38604,0.07112 0.5682,0.21329c0.187,0.13761 0.36923,0.33714 0.54663,0.59859c0.17746,0.25689 0.35008,0.56651 0.51786,0.92885h0.02877c0.24454,-0.62843 0.4987,-1.08479 0.7624,-1.3692c0.26854,-0.28898 0.54663,-0.43346 0.83432,-0.43346c0.13908,0 0.24696,0.0436 0.32366,0.13073c0.07676,0.08256 0.11508,0.18808 0.11508,0.3165c0,0.30274 -0.13666,0.59859 -0.40997,0.88757c-0.27331,0.28898 -0.68806,0.56188 -1.24429,0.81877v0.0344c0.51308,0.27065 0.89428,0.55275 1.1436,0.84629c0.25415,0.28898 0.3812,0.54355 0.3812,0.76372c0,0.13761 -0.04315,0.24769 -0.12946,0.33026c-0.08147,0.08256 -0.17981,0.12385 -0.29489,0.12385c-0.20139,0 -0.38839,-0.07112 -0.56101,-0.21329c-0.17262,-0.14217 -0.33563,-0.33945 -0.48909,-0.59171c-0.14862,-0.25689 -0.29005,-0.55043 -0.42435,-0.88069h-0.02877c-0.17739,0.41739 -0.36198,0.76141 -0.55382,1.03206c-0.187,0.26602 -0.37636,0.4633 -0.5682,0.59171c-0.19178,0.12385 -0.3812,0.18577 -0.5682,0.18577zM243.81663,178.3742h-0.14385c-0.01438,-0.20185 -0.00955,-0.39218 0.01438,-0.57107c0.024,-0.18346 0.07434,-0.33026 0.15104,-0.44034c0.08154,-0.11465 0.19662,-0.17201 0.34524,-0.17201c0.1343,0 0.23258,0.04128 0.29489,0.12385c0.06238,0.08256 0.0935,0.19722 0.0935,0.34402c0,0.28898 -0.05754,0.53667 -0.17262,0.74308l-0.12946,-0.01376c0.25893,-0.08713 0.55146,-0.13073 0.87748,-0.13073c0.20623,0 0.36923,0.03897 0.48909,0.11697c0.12469,0.07337 0.187,0.19953 0.187,0.37842c0,0.1697 -0.07192,0.29817 -0.21577,0.3853c-0.14385,0.08713 -0.32366,0.13073 -0.53943,0.13073c-0.12946,0 -0.26847,-0.00457 -0.41716,-0.01376c-0.14385,-0.01376 -0.28528,-0.0344 -0.42435,-0.06192l0.12227,-0.14449c0.04315,0.17432 0.08396,0.37386 0.12227,0.59859c0.04315,0.22017 0.08154,0.44954 0.11508,0.68804c0.03361,0.2385 0.05996,0.47018 0.07912,0.69492c0.01922,0.22474 0.02877,0.42658 0.02877,0.60547c0,0.29354 -0.04793,0.52522 -0.14385,0.69492c-0.09586,0.1697 -0.23735,0.25457 -0.42435,0.25457c-0.14862,0 -0.26612,-0.0436 -0.35243,-0.13073c-0.08147,-0.08713 -0.14143,-0.19722 -0.17981,-0.33026c-0.03354,-0.13761 -0.05512,-0.27978 -0.06473,-0.42658c-0.00477,-0.1468 -0.00719,-0.27978 -0.00719,-0.39906c0,-0.20185 0.00961,-0.4289 0.02877,-0.68116c0.01922,-0.25689 0.04557,-0.52059 0.07912,-0.79124c0.03838,-0.27065 0.08154,-0.5321 0.12946,-0.78436l0.14385,0.11697c-0.24454,0.11928 -0.54663,0.17889 -0.90625,0.17889c-0.22055,0 -0.39075,-0.03897 -0.51066,-0.11697c-0.11985,-0.078 -0.17981,-0.19953 -0.17981,-0.36466c0,-0.17889 0.06715,-0.3165 0.20139,-0.41282c0.1343,-0.10089 0.31411,-0.15137 0.53943,-0.15137c0.14869,0 0.2877,0.00919 0.41716,0.02752c0.1343,0.01376 0.25174,0.03209 0.35243,0.05504z" fill="#000000" stroke="none"/></g></g></svg>