<svg version="1.1" xmlns="http://www.w3.org/2000/svg" xmlns:xlink="http://www.w3.org/1999/xlink" width="44.09166" height="19.66977" viewBox="0,0,44.09166,19.66977"><g transform="translate(-217.95417,-170.16511)"><g data-paper-data="{&quot;isPaintingLayer&quot;:true}" fill-rule="nonzero" stroke-linecap="butt" stroke-linejoin="miter" stroke-miterlimit="10" stroke-dasharray="" stroke-dashoffset="0" style="mix-blend-mode: normal"><g><path d="" fill="#ececec" stroke="none" stroke-width="1"/><path d="" fill="none" stroke="#dcd6d6" stroke-width="1.5"/><path d="" fill="none" stroke="#dcd6d6" stroke-width="1.5"/><path d="" fill="none" stroke="#dcd6d6" stroke-width="1.5"/><path d="" fill="none" stroke="#dcd6d6" stroke-width="1.5"/><path d="" fill="none" stroke="#dcd6d6" stroke-width="1.5"/><path d="" fill="none" stroke="#dcd6d6" stroke-width="1.5"/><path d="" fill="none" stroke="#dcd6d6" stroke-width="1.5"/><path d="" fill="none" stroke="#dcd6d6" stroke-width="1.5"/><path d="" fill="none" stroke="#dcd6d6" stroke-width="1.5"/><path d="" fill="none" stroke="#dcd6d6" stroke-width="1.5"/><path d="" fill="none" stroke="#dcd6d6" stroke-width="1.5"/><path d="" fill="none" stroke="#dcd6d6" stroke-width="1.5"/><path d="" fill="none" stroke="#dcd6d6" stroke-width="1.5"/><path d="" fill="none" stroke="#dcd6d6" stroke-width="1.5"/><path d="" fill="none" stroke="#dcd6d6" stroke-width="1.5"/><path d="" fill="none" stroke="#dcd6d6" stroke-width="1.5"/><path d="" fill="none" stroke="#dcd6d6" stroke-width="1.5"/><path d="" fill="none" stroke="#dcd6d6" stroke-width="1.5"/><path d="" fill="none" stroke="#dcd6d6" stroke-width="1.5"/><path d="" fill="none" stroke="#dcd6d6" stroke-width="1.5"/><path d="" fill="none" stroke="#dcd6d6" stroke-width="1.5"/><path d="" fill="none" stroke="#dcd6d6" stroke-width="1.5"/><path d="" fill="none" stroke="#dcd6d6" stroke-width="1.5"/><path d="" fill="none" stroke="#dcd6d6" stroke-width="1.5"/><path d="" fill="none" stroke="#dcd6d6" stroke-width="1.5"/><path d="" fill="none" stroke="#dcd6d6" stroke-width="1.5"/><path d="" fill="none" stroke="#dcd6d6" stroke-width="1.5"/><path d="" fill="none" stroke="#dcd6d6" stroke-width="1.5"/><path d="" fill="none" stroke="#dcd6d6" stroke-width="1.5"/><path d="" fill="none" stroke="#dcd6d6" stroke-width="1.5"/><path d="" fill="none" stroke="#dcd6d6" stroke-width="1.5"/><path d="" fill="none" stroke="#dcd6d6" stroke-width="1.5"/><path d="" fill="none" stroke="#dcd6d6" stroke-width="1.5"/><path d="" fill="none" stroke="#dcd6d6" stroke-width="1.5"/><path d="" fill="none" stroke="#dcd6d6" stroke-width="1.5"/><path d="" fill="none" stroke="#dcd6d6" stroke-width="1.5"/><path d="" fill="none" stroke="#dcd6d6" stroke-width="1.5"/><path d="" fill="none" stroke="#dcd6d6" stroke-width="1.5"/><path d="" fill="none" stroke="#dcd6d6" stroke-width="1.5"/><path d="" fill="none" stroke="#dcd6d6" stroke-width="1.5"/><g><path d="" fill="#ebebeb" stroke="none" stroke-width="1"/><path d="" fill="none" stroke="#000000" stroke-width="0.5"/></g><path d="" fill="#737373" stroke="none" stroke-width="1"/><path d="" fill="#737373" stroke="none" stroke-width="1"/><path d="" fill="#737373" stroke="none" stroke-width="1"/><path d="" fill="#737373" stroke="none" stroke-width="1"/></g><path d="" fill="#000000" stroke="none" stroke-width="1"/><path d="" fill="#000000" stroke="none" stroke-width="1"/><path d="M221.34839,170.66511h37.30323c1.59825,0 2.89421,1.25398 2.89421,2.80046v13.06885c0,1.54648 -1.29596,2.80046 -2.89421,2.80046h-37.30323c-1.59844,0 -2.89421,-1.25398 -2.89421,-2.80046v-13.06885c0,-1.54648 1.29577,-2.80046 2.89421,-2.80046z" fill="#a5a7a9" stroke="#000000" stroke-width="1"/><path d="M232.16375,182.83469c-0.29245,0 -0.5353,-0.05227 -0.7287,-0.15745c-0.18864,-0.10953 -0.33013,-0.27632 -0.42448,-0.49973c-0.06606,-0.15496 -0.11558,-0.34228 -0.14857,-0.56134c-0.0283,-0.22341 -0.04245,-0.47919 -0.04245,-0.76671c0,-0.49288 0.01653,-0.89926 0.04952,-1.21851c0.03299,-0.32424 0.0802,-0.58436 0.1415,-0.78039c0.06606,-0.20101 0.13912,-0.36282 0.21932,-0.48604c0.12734,-0.18732 0.33013,-0.33792 0.60843,-0.45181c0.27829,-0.11389 0.6721,-0.17114 1.18148,-0.17114c0.33959,0 0.6108,0.05041 0.8136,0.1506c0.20754,0.09584 0.35611,0.22341 0.44571,0.38335c0.09435,0.15994 0.1415,0.33792 0.1415,0.53395c0,0.31054 -0.09435,0.56569 -0.28299,0.76671c-0.18864,0.20101 -0.43625,0.36033 -0.74285,0.47919v0.02738c0.33489,0.03672 0.59428,0.14127 0.77822,0.3149c0.18864,0.16865 0.28299,0.41073 0.28299,0.72563c0,0.25079 -0.06606,0.48168 -0.19809,0.69141c-0.12734,0.20537 -0.30183,0.38584 -0.52353,0.5408c-0.21694,0.1506 -0.46224,0.26947 -0.73577,0.35597c-0.27354,0.08214 -0.55183,0.12322 -0.83482,0.12322zM232.38307,182.01322c0.22639,0 0.42686,-0.03672 0.60135,-0.10953c0.17925,-0.07281 0.31837,-0.17114 0.41741,-0.29436c0.10374,-0.12758 0.15564,-0.27133 0.15564,-0.43127c0,-0.17363 -0.08728,-0.31738 -0.26176,-0.43127c-0.1698,-0.11886 -0.43625,-0.17798 -0.79945,-0.17798c-0.24524,0 -0.44102,0.05725 -0.58721,0.17114c-0.1415,0.10953 -0.21225,0.29871 -0.21225,0.56819c0,0.25578 0.0566,0.43812 0.1698,0.54765c0.1132,0.10517 0.28537,0.15745 0.51646,0.15745zM232.41137,179.84317c0.32074,0 0.58721,-0.06846 0.79945,-0.20537c0.21694,-0.14127 0.32544,-0.32424 0.32544,-0.54765c0,-0.1643 -0.06837,-0.29685 -0.20517,-0.39704c-0.1368,-0.10019 -0.33721,-0.1506 -0.60135,-0.1506c-0.28769,0 -0.52353,0.05476 -0.70747,0.1643c-0.18394,0.10953 -0.27591,0.29685 -0.27591,0.56134c0,0.2147 0.05897,0.3653 0.17687,0.45181c0.12265,0.08214 0.28537,0.12322 0.48816,0.12322zM238.3321,182.86893c-0.16034,0 -0.27122,-0.05912 -0.33251,-0.17798c-0.0566,-0.12322 -0.0896,-0.31738 -0.09905,-0.58187l0.07075,0.03422c-0.26415,0.49724 -0.76408,0.74617 -1.49985,0.74617c-0.33489,0 -0.61313,-0.05725 -0.83482,-0.17114c-0.2217,-0.11886 -0.38673,-0.27382 -0.49523,-0.4655c-0.10374,-0.19603 -0.15564,-0.40825 -0.15564,-0.63664c0,-0.39268 0.1415,-0.70261 0.42448,-0.931c0.28299,-0.23275 0.65795,-0.34912 1.12488,-0.34912c0.30659,0 0.57306,0.04356 0.79945,0.13006c0.22639,0.0865 0.41979,0.20786 0.58013,0.36282l-0.12027,-0.01369c-0.03299,-0.46114 -0.1368,-0.78973 -0.31129,-0.98577c-0.1698,-0.20101 -0.41272,-0.3012 -0.7287,-0.3012c-0.18394,0 -0.35374,0.02738 -0.50938,0.08214c-0.15564,0.05476 -0.29952,0.11202 -0.43156,0.17114c-0.12734,0.05476 -0.24762,0.08214 -0.36081,0.08214c-0.1132,0 -0.20279,-0.03672 -0.26884,-0.10953c-0.06129,-0.07281 -0.09197,-0.16678 -0.09197,-0.28067c0,-0.1643 0.0802,-0.31925 0.24054,-0.4655c0.1651,-0.14625 0.38203,-0.26449 0.65088,-0.35597c0.26884,-0.09148 0.56129,-0.13691 0.87727,-0.13691c0.38203,0 0.70985,0.089 0.98339,0.26698c0.27354,0.17798 0.48108,0.43812 0.62258,0.78039c0.12265,0.29187 0.20986,0.61859 0.26176,0.97892c0.0519,0.36033 0.07782,0.74617 0.07782,1.1569c0,0.31054 -0.01653,0.55014 -0.04952,0.71879c-0.03299,0.16865 -0.08489,0.28752 -0.15564,0.35597c-0.06606,0.0641 -0.15564,0.09584 -0.26884,0.09584zM236.76858,182.10222c0.15564,0 0.31367,-0.02054 0.47401,-0.06161c0.16034,-0.04543 0.29476,-0.11202 0.40326,-0.19852c0.1085,-0.0865 0.16272,-0.19416 0.16272,-0.32174c0,-0.10953 -0.04714,-0.19852 -0.1415,-0.26698c-0.0896,-0.07281 -0.20986,-0.12758 -0.36081,-0.1643c-0.14619,-0.03672 -0.30421,-0.05476 -0.47401,-0.05476c-0.28769,0 -0.507,0.04792 -0.65795,0.14376c-0.14619,0.09584 -0.21932,0.22341 -0.21932,0.38335c0,0.17363 0.06837,0.30805 0.20517,0.40389c0.1415,0.09148 0.34428,0.13691 0.60843,0.13691zM241.40949,182.87577c-0.65088,0 -1.12964,-0.1643 -1.43618,-0.49288c-0.3019,-0.32859 -0.45278,-0.78475 -0.45278,-1.36912c0,-0.45181 0.0896,-0.85134 0.26884,-1.19798c0.18394,-0.35162 0.44571,-0.62544 0.78529,-0.82147c0.34428,-0.20101 0.75462,-0.3012 1.231,-0.3012c0.42918,0 0.75462,0.06846 0.97631,0.20537c0.22639,0.13256 0.33959,0.3037 0.33959,0.51342c0,0.12758 -0.04245,0.23026 -0.12734,0.30805c-0.0802,0.07281 -0.20047,0.10953 -0.36081,0.10953c-0.08966,0 -0.18163,-0.01369 -0.27591,-0.04108c-0.08966,-0.02738 -0.18871,-0.05476 -0.29714,-0.08214c-0.1085,-0.02738 -0.23823,-0.04108 -0.38911,-0.04108c-0.39149,0 -0.68625,0.10019 -0.88434,0.3012c-0.1934,0.20101 -0.29007,0.49039 -0.29007,0.86939c0,0.36033 0.09429,0.62295 0.28299,0.78725c0.18864,0.15994 0.44571,0.2396 0.77115,0.2396c0.16034,0 0.29946,-0.01618 0.41741,-0.04792c0.12259,-0.03672 0.23578,-0.07094 0.33959,-0.10268c0.10843,-0.03672 0.21694,-0.05476 0.32544,-0.05476c0.10843,0 0.19809,0.03422 0.26884,0.10268c0.07075,0.0641 0.10612,0.15745 0.10612,0.28067c0,0.14127 -0.05897,0.27632 -0.17687,0.40389c-0.11796,0.12758 -0.29483,0.23275 -0.5306,0.3149c-0.23584,0.07779 -0.53298,0.11638 -0.89142,0.11638zM244.06754,182.86893c-0.08966,0 -0.16272,-0.02489 -0.21932,-0.0753c-0.0566,-0.05476 -0.09673,-0.13256 -0.12027,-0.23275c-0.03776,-0.16865 -0.07075,-0.41322 -0.09905,-0.73247c-0.0283,-0.31925 -0.04245,-0.67336 -0.04245,-1.06107c0,-0.47919 0.01647,-0.94033 0.04952,-1.38281c0.03769,-0.44247 0.08489,-0.80529 0.1415,-1.08845c0.06129,-0.30557 0.13673,-0.5296 0.22639,-0.67087c0.0896,-0.14625 0.20748,-0.21906 0.35374,-0.21906c0.13204,0 0.23346,0.05912 0.30421,0.17798c0.07075,0.11389 0.10612,0.31241 0.10612,0.59557c0,0.28316 -0.01183,0.58623 -0.03537,0.91046c-0.01891,0.32424 -0.0519,0.67087 -0.09905,1.04053h0.0283c0.30653,-0.4014 0.5919,-0.72314 0.85604,-0.96523c0.26884,-0.24208 0.51434,-0.41758 0.73558,-0.52711c0.22639,-0.10953 0.42706,-0.1643 0.60135,-0.1643c0.137,0 0.23861,0.04108 0.30421,0.12322c0.06625,0.08214 0.09905,0.18234 0.09905,0.3012c0,0.23275 -0.19295,0.49288 -0.58013,0.78039c-0.38203,0.28752 -0.93367,0.58187 -1.6553,0.88308l0.00707,-0.10953c0.44803,0.22341 0.83269,0.45865 1.15299,0.70509c0.32544,0.24208 0.57306,0.47235 0.74285,0.69141c0.17494,0.2147 0.26176,0.39455 0.26176,0.5408c0,0.11886 -0.03988,0.21657 -0.12027,0.29436c-0.07525,0.07281 -0.18587,0.10953 -0.33251,0.10953c-0.18394,0 -0.38911,-0.06597 -0.61551,-0.19852c-0.22125,-0.13691 -0.45259,-0.33979 -0.69314,-0.60926c-0.24054,-0.26947 -0.48108,-0.60677 -0.72163,-1.01315h-0.0283c-0.00476,0.28752 -0.0236,0.56819 -0.0566,0.84201c-0.0283,0.26947 -0.06606,0.49039 -0.1132,0.66403c-0.03306,0.11886 -0.08489,0.2147 -0.15564,0.28752c-0.06606,0.06846 -0.1604,0.10268 -0.28299,0.10268z" fill="#000000" stroke="none" stroke-width="1"/><path d="" fill="#a5a7a9" stroke="#000000" stroke-width="1"/><path d="" fill="#000000" stroke="none" stroke-width="1"/></g></g></svg>