<svg width="186" height="123" viewBox="0 0 186 123" fill="none" xmlns="http://www.w3.org/2000/svg">
<path d="M169.732 109.154H31.0002V15.9999H122.234L169.732 109.154Z" stroke="black" stroke-width="2" stroke-miterlimit="10" stroke-linecap="round"/>
<path d="M156.409 52.388C156.548 52.388 156.662 52.4283 156.75 52.509C156.838 52.5897 156.919 52.7253 156.992 52.916C157.102 53.2093 157.186 53.6127 157.245 54.126C157.304 54.6393 157.333 55.2627 157.333 55.996C157.333 56.4507 157.311 56.909 157.267 57.371C157.23 57.833 157.179 58.2547 157.113 58.636C157.047 59.0173 156.97 59.318 156.882 59.538C156.801 59.7433 156.717 59.8937 156.629 59.989C156.541 60.077 156.427 60.121 156.288 60.121C156.149 60.121 156.035 60.066 155.947 59.956C155.866 59.8387 155.8 59.659 155.749 59.417C155.698 59.1603 155.657 58.856 155.628 58.504C155.606 58.1447 155.595 57.767 155.595 57.371C155.595 56.997 155.617 56.6047 155.661 56.194C155.705 55.7833 155.767 55.38 155.848 54.984C155.929 54.588 156.02 54.225 156.123 53.895L156.189 53.906C155.962 54.17 155.709 54.3753 155.43 54.522C155.151 54.6687 154.887 54.742 154.638 54.742C154.513 54.742 154.414 54.709 154.341 54.643C154.275 54.577 154.242 54.4853 154.242 54.368C154.242 54.1407 154.304 53.9133 154.429 53.686C154.561 53.4513 154.733 53.2387 154.946 53.048C155.159 52.85 155.393 52.6923 155.65 52.575C155.907 52.4503 156.16 52.388 156.409 52.388ZM161.636 59.923C161.02 59.923 160.484 59.7763 160.03 59.483C159.575 59.1823 159.223 58.7607 158.974 58.218C158.724 57.668 158.6 57.019 158.6 56.271C158.6 55.4863 158.728 54.797 158.985 54.203C159.249 53.609 159.615 53.147 160.085 52.817C160.554 52.487 161.108 52.322 161.746 52.322C162.376 52.322 162.926 52.4797 163.396 52.795C163.865 53.103 164.228 53.5357 164.485 54.093C164.749 54.6503 164.881 55.2993 164.881 56.04C164.881 56.8393 164.745 57.5287 164.474 58.108C164.21 58.6873 163.836 59.1347 163.352 59.45C162.868 59.7653 162.296 59.923 161.636 59.923ZM161.779 58.559C162.233 58.559 162.596 58.3537 162.868 57.943C163.139 57.525 163.275 56.8943 163.275 56.051C163.275 55.259 163.139 54.6723 162.868 54.291C162.596 53.9097 162.233 53.719 161.779 53.719C161.331 53.719 160.968 53.9097 160.69 54.291C160.418 54.6723 160.283 55.259 160.283 56.051C160.283 56.8943 160.418 57.525 160.69 57.943C160.968 58.3537 161.331 58.559 161.779 58.559ZM170.998 60.121C169.986 60.121 169.242 59.857 168.765 59.329C168.296 58.801 168.061 58.0677 168.061 57.129C168.061 56.403 168.2 55.7613 168.479 55.204C168.765 54.6393 169.172 54.1993 169.7 53.884C170.235 53.5613 170.873 53.4 171.614 53.4C172.281 53.4 172.787 53.51 173.132 53.73C173.484 53.9427 173.66 54.2177 173.66 54.555C173.66 54.7603 173.594 54.9253 173.462 55.05C173.337 55.1673 173.15 55.226 172.901 55.226C172.762 55.226 172.619 55.204 172.472 55.16C172.333 55.116 172.179 55.072 172.01 55.028C171.841 54.984 171.64 54.962 171.405 54.962C170.796 54.962 170.338 55.1233 170.03 55.446C169.729 55.7687 169.579 56.2343 169.579 56.843C169.579 57.4223 169.726 57.844 170.019 58.108C170.312 58.3647 170.712 58.493 171.218 58.493C171.467 58.493 171.684 58.4673 171.867 58.416C172.058 58.3573 172.234 58.3023 172.395 58.251C172.564 58.1923 172.732 58.163 172.901 58.163C173.07 58.163 173.209 58.218 173.319 58.328C173.429 58.4307 173.484 58.581 173.484 58.779C173.484 59.0063 173.392 59.2227 173.209 59.428C173.026 59.6333 172.751 59.802 172.384 59.934C172.017 60.0587 171.555 60.121 170.998 60.121ZM179.124 54.962C179.197 54.6613 179.326 54.39 179.509 54.148C179.7 53.906 179.927 53.7153 180.191 53.576C180.462 53.4293 180.759 53.356 181.082 53.356C181.463 53.356 181.801 53.4477 182.094 53.631C182.387 53.8143 182.618 54.115 182.787 54.533C182.963 54.951 183.051 55.5083 183.051 56.205C183.051 56.5643 183.036 56.9273 183.007 57.294C182.978 57.6607 182.941 58.0017 182.897 58.317C182.853 58.6323 182.805 58.8963 182.754 59.109C182.681 59.4023 182.567 59.626 182.413 59.78C182.266 59.934 182.079 60.011 181.852 60.011C181.661 60.011 181.511 59.9267 181.401 59.758C181.291 59.5893 181.236 59.3473 181.236 59.032C181.236 58.8853 181.254 58.6983 181.291 58.471C181.328 58.2363 181.368 57.9833 181.412 57.712C181.456 57.4333 181.496 57.151 181.533 56.865C181.57 56.579 181.588 56.3077 181.588 56.051C181.588 55.6697 181.511 55.3763 181.357 55.171C181.203 54.9583 180.987 54.852 180.708 54.852C180.4 54.852 180.143 55.0133 179.938 55.336C179.74 55.6513 179.623 56.1133 179.586 56.722C179.557 57.2647 179.531 57.7487 179.509 58.174C179.487 58.592 179.432 58.9367 179.344 59.208C179.285 59.3987 179.201 59.5417 179.091 59.637C178.988 59.7323 178.849 59.78 178.673 59.78C178.475 59.78 178.317 59.7067 178.2 59.56C178.09 59.4133 178.028 59.1823 178.013 58.867C177.998 58.603 177.995 58.2913 178.002 57.932C178.009 57.5727 178.013 57.217 178.013 56.865C178.02 56.5057 178.017 56.2087 178.002 55.974C177.973 55.5047 177.888 55.16 177.749 54.94C177.617 54.72 177.415 54.61 177.144 54.61C176.829 54.61 176.576 54.7567 176.385 55.05C176.202 55.3433 176.088 55.7503 176.044 56.271C176.029 56.4837 176.022 56.7477 176.022 57.063C176.029 57.371 176.037 57.679 176.044 57.987C176.051 58.295 176.048 58.5517 176.033 58.757C176.026 59.197 175.956 59.5123 175.824 59.703C175.699 59.8937 175.523 59.989 175.296 59.989C175.025 59.989 174.827 59.901 174.702 59.725C174.585 59.549 174.508 59.2667 174.471 58.878C174.442 58.5333 174.42 58.1923 174.405 57.855C174.39 57.5103 174.383 57.1693 174.383 56.832C174.383 56.4873 174.39 56.1133 174.405 55.71C174.427 55.3067 174.456 54.9253 174.493 54.566C174.537 54.1993 174.614 53.8913 174.724 53.642C174.834 53.3927 175.017 53.268 175.274 53.268C175.487 53.268 175.637 53.3743 175.725 53.587C175.813 53.7923 175.857 54.1113 175.857 54.544C175.857 54.6907 175.846 54.8263 175.824 54.951L175.791 54.731C175.938 54.2543 176.172 53.884 176.495 53.62C176.818 53.3487 177.177 53.213 177.573 53.213C178.094 53.213 178.501 53.3817 178.794 53.719C179.087 54.049 179.249 54.5073 179.278 55.094L179.124 54.962Z" fill="#0C0C0C"/>
<path d="M3.443 60.245C4.345 60.245 5.027 60.4283 5.489 60.795C5.951 61.1617 6.182 61.6897 6.182 62.379C6.182 62.8923 6.03533 63.325 5.742 63.677C5.44867 64.029 5.06367 64.293 4.587 64.469L4.543 64.095C5.093 64.1977 5.51833 64.4103 5.819 64.733C6.127 65.0483 6.281 65.481 6.281 66.031C6.281 66.6983 6.03167 67.2153 5.533 67.582C5.03433 67.9413 4.23867 68.121 3.146 68.121C2.47867 68.121 1.947 68.044 1.551 67.89C1.155 67.7287 0.869 67.505 0.693 67.219C0.524333 66.933 0.44 66.6067 0.44 66.24C0.44 65.6753 0.623333 65.2097 0.99 64.843C1.35667 64.469 1.87733 64.216 2.552 64.084L2.585 64.546C2.00567 64.5167 1.53267 64.3297 1.166 63.985C0.806667 63.6403 0.627 63.149 0.627 62.511C0.627 62.005 0.751667 61.5833 1.001 61.246C1.25033 60.9087 1.58767 60.6593 2.013 60.498C2.43833 60.3293 2.915 60.245 3.443 60.245ZM4.609 62.588C4.609 62.3093 4.488 62.1113 4.246 61.994C4.004 61.8767 3.718 61.818 3.388 61.818C2.94067 61.818 2.59233 61.8987 2.343 62.06C2.101 62.2213 1.98 62.4377 1.98 62.709C1.98 62.9583 2.07167 63.1527 2.255 63.292C2.44567 63.4313 2.75367 63.501 3.179 63.501C3.64833 63.501 4.004 63.4277 4.246 63.281C4.488 63.1343 4.609 62.9033 4.609 62.588ZM3.399 64.865C2.92233 64.865 2.563 64.9603 2.321 65.151C2.079 65.3343 1.958 65.5507 1.958 65.8C1.958 66.086 2.068 66.2913 2.288 66.416C2.51533 66.5333 2.849 66.592 3.289 66.592C3.795 66.592 4.16167 66.5077 4.389 66.339C4.61633 66.1703 4.73 65.9503 4.73 65.679C4.73 65.437 4.63833 65.2427 4.455 65.096C4.27167 64.942 3.91967 64.865 3.399 64.865ZM12.3038 68.121C11.2918 68.121 10.5474 67.857 10.0708 67.329C9.60142 66.801 9.36676 66.0677 9.36676 65.129C9.36676 64.403 9.50609 63.7613 9.78476 63.204C10.0708 62.6393 10.4778 62.1993 11.0058 61.884C11.5411 61.5613 12.1791 61.4 12.9198 61.4C13.5871 61.4 14.0931 61.51 14.4378 61.73C14.7898 61.9427 14.9658 62.2177 14.9658 62.555C14.9658 62.7603 14.8998 62.9253 14.7678 63.05C14.6431 63.1673 14.4561 63.226 14.2068 63.226C14.0674 63.226 13.9244 63.204 13.7778 63.16C13.6384 63.116 13.4844 63.072 13.3158 63.028C13.1471 62.984 12.9454 62.962 12.7108 62.962C12.1021 62.962 11.6438 63.1233 11.3358 63.446C11.0351 63.7687 10.8848 64.2343 10.8848 64.843C10.8848 65.4223 11.0314 65.844 11.3248 66.108C11.6181 66.3647 12.0178 66.493 12.5238 66.493C12.7731 66.493 12.9894 66.4673 13.1728 66.416C13.3634 66.3573 13.5394 66.3023 13.7008 66.251C13.8694 66.1923 14.0381 66.163 14.2068 66.163C14.3754 66.163 14.5148 66.218 14.6248 66.328C14.7348 66.4307 14.7898 66.581 14.7898 66.779C14.7898 67.0063 14.6981 67.2227 14.5148 67.428C14.3314 67.6333 14.0564 67.802 13.6898 67.934C13.3231 68.0587 12.8611 68.121 12.3038 68.121ZM20.4296 62.962C20.5029 62.6613 20.6312 62.39 20.8146 62.148C21.0052 61.906 21.2326 61.7153 21.4966 61.576C21.7679 61.4293 22.0649 61.356 22.3876 61.356C22.7689 61.356 23.1062 61.4477 23.3996 61.631C23.6929 61.8143 23.9239 62.115 24.0926 62.533C24.2686 62.951 24.3566 63.5083 24.3566 64.205C24.3566 64.5643 24.3419 64.9273 24.3126 65.294C24.2832 65.6607 24.2466 66.0017 24.2026 66.317C24.1586 66.6323 24.1109 66.8963 24.0596 67.109C23.9862 67.4023 23.8726 67.626 23.7186 67.78C23.5719 67.934 23.3849 68.011 23.1576 68.011C22.9669 68.011 22.8166 67.9267 22.7066 67.758C22.5966 67.5893 22.5416 67.3473 22.5416 67.032C22.5416 66.8853 22.5599 66.6983 22.5966 66.471C22.6332 66.2363 22.6736 65.9833 22.7176 65.712C22.7616 65.4333 22.8019 65.151 22.8386 64.865C22.8752 64.579 22.8936 64.3077 22.8936 64.051C22.8936 63.6697 22.8166 63.3763 22.6626 63.171C22.5086 62.9583 22.2922 62.852 22.0136 62.852C21.7056 62.852 21.4489 63.0133 21.2436 63.336C21.0456 63.6513 20.9282 64.1133 20.8916 64.722C20.8622 65.2647 20.8366 65.7487 20.8146 66.174C20.7926 66.592 20.7376 66.9367 20.6496 67.208C20.5909 67.3987 20.5066 67.5417 20.3966 67.637C20.2939 67.7323 20.1546 67.78 19.9786 67.78C19.7806 67.78 19.6229 67.7067 19.5056 67.56C19.3956 67.4133 19.3332 67.1823 19.3186 66.867C19.3039 66.603 19.3002 66.2913 19.3076 65.932C19.3149 65.5727 19.3186 65.217 19.3186 64.865C19.3259 64.5057 19.3222 64.2087 19.3076 63.974C19.2782 63.5047 19.1939 63.16 19.0546 62.94C18.9226 62.72 18.7209 62.61 18.4496 62.61C18.1342 62.61 17.8812 62.7567 17.6906 63.05C17.5072 63.3433 17.3936 63.7503 17.3496 64.271C17.3349 64.4837 17.3276 64.7477 17.3276 65.063C17.3349 65.371 17.3422 65.679 17.3496 65.987C17.3569 66.295 17.3532 66.5517 17.3386 66.757C17.3312 67.197 17.2616 67.5123 17.1296 67.703C17.0049 67.8937 16.8289 67.989 16.6016 67.989C16.3302 67.989 16.1322 67.901 16.0076 67.725C15.8902 67.549 15.8132 67.2667 15.7766 66.878C15.7472 66.5333 15.7252 66.1923 15.7106 65.855C15.6959 65.5103 15.6886 65.1693 15.6886 64.832C15.6886 64.4873 15.6959 64.1133 15.7106 63.71C15.7326 63.3067 15.7619 62.9253 15.7986 62.566C15.8426 62.1993 15.9196 61.8913 16.0296 61.642C16.1396 61.3927 16.3229 61.268 16.5796 61.268C16.7922 61.268 16.9426 61.3743 17.0306 61.587C17.1186 61.7923 17.1626 62.1113 17.1626 62.544C17.1626 62.6907 17.1516 62.8263 17.1296 62.951L17.0966 62.731C17.2432 62.2543 17.4779 61.884 17.8006 61.62C18.1232 61.3487 18.4826 61.213 18.8786 61.213C19.3992 61.213 19.8062 61.3817 20.0996 61.719C20.3929 62.049 20.5542 62.5073 20.5836 63.094L20.4296 62.962Z" fill="#0C0C0C"/>
<path d="M84.409 114.388C84.5483 114.388 84.662 114.428 84.75 114.509C84.838 114.59 84.9187 114.725 84.992 114.916C85.102 115.209 85.1863 115.613 85.245 116.126C85.3037 116.639 85.333 117.263 85.333 117.996C85.333 118.451 85.311 118.909 85.267 119.371C85.2303 119.833 85.179 120.255 85.113 120.636C85.047 121.017 84.97 121.318 84.882 121.538C84.8013 121.743 84.717 121.894 84.629 121.989C84.541 122.077 84.4273 122.121 84.288 122.121C84.1487 122.121 84.035 122.066 83.947 121.956C83.8663 121.839 83.8003 121.659 83.749 121.417C83.6977 121.16 83.6573 120.856 83.628 120.504C83.606 120.145 83.595 119.767 83.595 119.371C83.595 118.997 83.617 118.605 83.661 118.194C83.705 117.783 83.7673 117.38 83.848 116.984C83.9287 116.588 84.0203 116.225 84.123 115.895L84.189 115.906C83.9617 116.17 83.7087 116.375 83.43 116.522C83.1513 116.669 82.8873 116.742 82.638 116.742C82.5133 116.742 82.4143 116.709 82.341 116.643C82.275 116.577 82.242 116.485 82.242 116.368C82.242 116.141 82.3043 115.913 82.429 115.686C82.561 115.451 82.7333 115.239 82.946 115.048C83.1587 114.85 83.3933 114.692 83.65 114.575C83.9067 114.45 84.1597 114.388 84.409 114.388ZM88.7995 114.443C89.7382 114.443 90.4385 114.645 90.9005 115.048C91.3625 115.444 91.5935 115.965 91.5935 116.61C91.5935 117.116 91.4542 117.593 91.1755 118.04C90.9042 118.48 90.4715 118.916 89.8775 119.349C89.2909 119.774 88.5245 120.222 87.5785 120.691L87.7435 120.449C89.0269 120.412 89.9399 120.475 90.4825 120.636C91.0325 120.797 91.3075 121.05 91.3075 121.395C91.3075 121.63 91.2122 121.813 91.0215 121.945C90.8382 122.077 90.5522 122.143 90.1635 122.143C89.8922 122.143 89.5879 122.128 89.2505 122.099C88.9132 122.077 88.5722 122.044 88.2275 122C87.8829 121.949 87.5602 121.89 87.2595 121.824C86.9369 121.751 86.7022 121.655 86.5555 121.538C86.4089 121.413 86.3355 121.237 86.3355 121.01C86.3355 120.849 86.3942 120.684 86.5115 120.515C86.6289 120.346 86.8232 120.145 87.0945 119.91C87.3659 119.668 87.7362 119.364 88.2055 118.997C88.6455 118.652 88.9829 118.366 89.2175 118.139C89.4595 117.912 89.6282 117.71 89.7235 117.534C89.8189 117.351 89.8665 117.167 89.8665 116.984C89.8665 116.705 89.7675 116.489 89.5695 116.335C89.3789 116.181 89.0819 116.104 88.6785 116.104C88.4879 116.104 88.2972 116.13 88.1065 116.181C87.9232 116.232 87.7362 116.284 87.5455 116.335C87.3622 116.386 87.1752 116.412 86.9845 116.412C86.7865 116.412 86.6362 116.368 86.5335 116.28C86.4309 116.192 86.3795 116.067 86.3795 115.906C86.3795 115.664 86.4785 115.433 86.6765 115.213C86.8819 114.986 87.1642 114.802 87.5235 114.663C87.8902 114.516 88.3155 114.443 88.7995 114.443ZM97.4512 122.121C96.4392 122.121 95.6949 121.857 95.2182 121.329C94.7489 120.801 94.5142 120.068 94.5142 119.129C94.5142 118.403 94.6536 117.761 94.9322 117.204C95.2182 116.639 95.6252 116.199 96.1532 115.884C96.6886 115.561 97.3266 115.4 98.0672 115.4C98.7346 115.4 99.2406 115.51 99.5852 115.73C99.9372 115.943 100.113 116.218 100.113 116.555C100.113 116.76 100.047 116.925 99.9152 117.05C99.7906 117.167 99.6036 117.226 99.3542 117.226C99.2149 117.226 99.0719 117.204 98.9252 117.16C98.7859 117.116 98.6319 117.072 98.4632 117.028C98.2946 116.984 98.0929 116.962 97.8582 116.962C97.2496 116.962 96.7912 117.123 96.4832 117.446C96.1826 117.769 96.0322 118.234 96.0322 118.843C96.0322 119.422 96.1789 119.844 96.4722 120.108C96.7656 120.365 97.1652 120.493 97.6712 120.493C97.9206 120.493 98.1369 120.467 98.3202 120.416C98.5109 120.357 98.6869 120.302 98.8482 120.251C99.0169 120.192 99.1856 120.163 99.3542 120.163C99.5229 120.163 99.6622 120.218 99.7722 120.328C99.8822 120.431 99.9372 120.581 99.9372 120.779C99.9372 121.006 99.8456 121.223 99.6622 121.428C99.4789 121.633 99.2039 121.802 98.8372 121.934C98.4706 122.059 98.0086 122.121 97.4512 122.121ZM105.577 116.962C105.65 116.661 105.779 116.39 105.962 116.148C106.153 115.906 106.38 115.715 106.644 115.576C106.915 115.429 107.212 115.356 107.535 115.356C107.916 115.356 108.254 115.448 108.547 115.631C108.84 115.814 109.071 116.115 109.24 116.533C109.416 116.951 109.504 117.508 109.504 118.205C109.504 118.564 109.489 118.927 109.46 119.294C109.431 119.661 109.394 120.002 109.35 120.317C109.306 120.632 109.258 120.896 109.207 121.109C109.134 121.402 109.02 121.626 108.866 121.78C108.719 121.934 108.532 122.011 108.305 122.011C108.114 122.011 107.964 121.927 107.854 121.758C107.744 121.589 107.689 121.347 107.689 121.032C107.689 120.885 107.707 120.698 107.744 120.471C107.781 120.236 107.821 119.983 107.865 119.712C107.909 119.433 107.949 119.151 107.986 118.865C108.023 118.579 108.041 118.308 108.041 118.051C108.041 117.67 107.964 117.376 107.81 117.171C107.656 116.958 107.44 116.852 107.161 116.852C106.853 116.852 106.596 117.013 106.391 117.336C106.193 117.651 106.076 118.113 106.039 118.722C106.01 119.265 105.984 119.749 105.962 120.174C105.94 120.592 105.885 120.937 105.797 121.208C105.738 121.399 105.654 121.542 105.544 121.637C105.441 121.732 105.302 121.78 105.126 121.78C104.928 121.78 104.77 121.707 104.653 121.56C104.543 121.413 104.481 121.182 104.466 120.867C104.451 120.603 104.448 120.291 104.455 119.932C104.462 119.573 104.466 119.217 104.466 118.865C104.473 118.506 104.47 118.209 104.455 117.974C104.426 117.505 104.341 117.16 104.202 116.94C104.07 116.72 103.868 116.61 103.597 116.61C103.282 116.61 103.029 116.757 102.838 117.05C102.655 117.343 102.541 117.75 102.497 118.271C102.482 118.484 102.475 118.748 102.475 119.063C102.482 119.371 102.49 119.679 102.497 119.987C102.504 120.295 102.501 120.552 102.486 120.757C102.479 121.197 102.409 121.512 102.277 121.703C102.152 121.894 101.976 121.989 101.749 121.989C101.478 121.989 101.28 121.901 101.155 121.725C101.038 121.549 100.961 121.267 100.924 120.878C100.895 120.533 100.873 120.192 100.858 119.855C100.843 119.51 100.836 119.169 100.836 118.832C100.836 118.487 100.843 118.113 100.858 117.71C100.88 117.307 100.909 116.925 100.946 116.566C100.99 116.199 101.067 115.891 101.177 115.642C101.287 115.393 101.47 115.268 101.727 115.268C101.94 115.268 102.09 115.374 102.178 115.587C102.266 115.792 102.31 116.111 102.31 116.544C102.31 116.691 102.299 116.826 102.277 116.951L102.244 116.731C102.391 116.254 102.625 115.884 102.948 115.62C103.271 115.349 103.63 115.213 104.026 115.213C104.547 115.213 104.954 115.382 105.247 115.719C105.54 116.049 105.702 116.507 105.731 117.094L105.577 116.962Z" fill="#0C0C0C"/>
<path d="M66.529 3.399C66.8737 3.399 67.255 3.41 67.673 3.432C68.091 3.44667 68.4943 3.47233 68.883 3.509C69.2643 3.54567 69.5577 3.641 69.763 3.795C69.9757 3.949 70.082 4.18733 70.082 4.51C70.082 4.67867 70.0197 4.96833 69.895 5.379C69.7777 5.78233 69.587 6.27367 69.323 6.853C68.971 7.623 68.6557 8.27933 68.377 8.822C68.1057 9.36467 67.8527 9.80467 67.618 10.142C67.3833 10.4793 67.1523 10.7287 66.925 10.89C66.705 11.044 66.474 11.121 66.232 11.121C66.0487 11.121 65.913 11.077 65.825 10.989C65.737 10.8937 65.693 10.7543 65.693 10.571C65.693 10.3657 65.748 10.1053 65.858 9.79C65.9753 9.46733 66.133 9.11533 66.331 8.734C66.529 8.35267 66.7673 7.93467 67.046 7.48C67.332 7.018 67.64 6.545 67.97 6.061C68.3073 5.577 68.652 5.115 69.004 4.675L69.125 4.807C68.6777 4.85833 68.1973 4.89867 67.684 4.928C67.178 4.95733 66.7307 4.96833 66.342 4.961C65.6087 4.95367 65.242 4.73367 65.242 4.301C65.242 3.98567 65.3557 3.75833 65.583 3.619C65.8177 3.47233 66.133 3.399 66.529 3.399ZM75.9073 11.121C74.8953 11.121 74.1509 10.857 73.6743 10.329C73.2049 9.801 72.9703 9.06767 72.9703 8.129C72.9703 7.403 73.1096 6.76133 73.3883 6.204C73.6743 5.63933 74.0813 5.19933 74.6093 4.884C75.1446 4.56133 75.7826 4.4 76.5233 4.4C77.1906 4.4 77.6966 4.51 78.0413 4.73C78.3933 4.94267 78.5693 5.21767 78.5693 5.555C78.5693 5.76033 78.5033 5.92533 78.3713 6.05C78.2466 6.16733 78.0596 6.226 77.8103 6.226C77.6709 6.226 77.5279 6.204 77.3813 6.16C77.2419 6.116 77.0879 6.072 76.9193 6.028C76.7506 5.984 76.5489 5.962 76.3143 5.962C75.7056 5.962 75.2473 6.12333 74.9393 6.446C74.6386 6.76867 74.4883 7.23433 74.4883 7.843C74.4883 8.42233 74.6349 8.844 74.9283 9.108C75.2216 9.36467 75.6213 9.493 76.1273 9.493C76.3766 9.493 76.5929 9.46733 76.7763 9.416C76.9669 9.35733 77.1429 9.30233 77.3043 9.251C77.4729 9.19233 77.6416 9.163 77.8103 9.163C77.9789 9.163 78.1183 9.218 78.2283 9.328C78.3383 9.43067 78.3933 9.581 78.3933 9.779C78.3933 10.0063 78.3016 10.2227 78.1183 10.428C77.9349 10.6333 77.6599 10.802 77.2933 10.934C76.9266 11.0587 76.4646 11.121 75.9073 11.121ZM84.0331 5.962C84.1064 5.66133 84.2348 5.39 84.4181 5.148C84.6088 4.906 84.8361 4.71533 85.1001 4.576C85.3714 4.42933 85.6684 4.356 85.9911 4.356C86.3724 4.356 86.7098 4.44767 87.0031 4.631C87.2964 4.81433 87.5274 5.115 87.6961 5.533C87.8721 5.951 87.9601 6.50833 87.9601 7.205C87.9601 7.56433 87.9454 7.92733 87.9161 8.294C87.8868 8.66067 87.8501 9.00167 87.8061 9.317C87.7621 9.63233 87.7144 9.89633 87.6631 10.109C87.5898 10.4023 87.4761 10.626 87.3221 10.78C87.1754 10.934 86.9884 11.011 86.7611 11.011C86.5704 11.011 86.4201 10.9267 86.3101 10.758C86.2001 10.5893 86.1451 10.3473 86.1451 10.032C86.1451 9.88533 86.1634 9.69833 86.2001 9.471C86.2368 9.23633 86.2771 8.98333 86.3211 8.712C86.3651 8.43333 86.4054 8.151 86.4421 7.865C86.4788 7.579 86.4971 7.30767 86.4971 7.051C86.4971 6.66967 86.4201 6.37633 86.2661 6.171C86.1121 5.95833 85.8958 5.852 85.6171 5.852C85.3091 5.852 85.0524 6.01333 84.8471 6.336C84.6491 6.65133 84.5318 7.11333 84.4951 7.722C84.4658 8.26467 84.4401 8.74867 84.4181 9.174C84.3961 9.592 84.3411 9.93667 84.2531 10.208C84.1944 10.3987 84.1101 10.5417 84.0001 10.637C83.8974 10.7323 83.7581 10.78 83.5821 10.78C83.3841 10.78 83.2264 10.7067 83.1091 10.56C82.9991 10.4133 82.9368 10.1823 82.9221 9.867C82.9074 9.603 82.9038 9.29133 82.9111 8.932C82.9184 8.57267 82.9221 8.217 82.9221 7.865C82.9294 7.50567 82.9258 7.20867 82.9111 6.974C82.8818 6.50467 82.7974 6.16 82.6581 5.94C82.5261 5.72 82.3244 5.61 82.0531 5.61C81.7378 5.61 81.4848 5.75667 81.2941 6.05C81.1108 6.34333 80.9971 6.75033 80.9531 7.271C80.9384 7.48367 80.9311 7.74767 80.9311 8.063C80.9384 8.371 80.9458 8.679 80.9531 8.987C80.9604 9.295 80.9568 9.55167 80.9421 9.757C80.9348 10.197 80.8651 10.5123 80.7331 10.703C80.6084 10.8937 80.4324 10.989 80.2051 10.989C79.9338 10.989 79.7358 10.901 79.6111 10.725C79.4938 10.549 79.4168 10.2667 79.3801 9.878C79.3508 9.53333 79.3288 9.19233 79.3141 8.855C79.2994 8.51033 79.2921 8.16933 79.2921 7.832C79.2921 7.48733 79.2994 7.11333 79.3141 6.71C79.3361 6.30667 79.3654 5.92533 79.4021 5.566C79.4461 5.19933 79.5231 4.89133 79.6331 4.642C79.7431 4.39267 79.9264 4.268 80.1831 4.268C80.3958 4.268 80.5461 4.37433 80.6341 4.587C80.7221 4.79233 80.7661 5.11133 80.7661 5.544C80.7661 5.69067 80.7551 5.82633 80.7331 5.951L80.7001 5.731C80.8468 5.25433 81.0814 4.884 81.4041 4.62C81.7268 4.34867 82.0861 4.213 82.4821 4.213C83.0028 4.213 83.4098 4.38167 83.7031 4.719C83.9964 5.049 84.1578 5.50733 84.1871 6.094L84.0331 5.962Z" fill="#0C0C0C"/>
</svg>
