<svg version="1.1" xmlns="http://www.w3.org/2000/svg" xmlns:xlink="http://www.w3.org/1999/xlink" width="188.57662" height="112.77024" viewBox="0,0,188.57662,112.77024"><g transform="translate(-145.71169,-123.61488)"><g data-paper-data="{&quot;isPaintingLayer&quot;:true}" fill-rule="nonzero" stroke-linejoin="miter" stroke-miterlimit="10" stroke-dasharray="" stroke-dashoffset="0" style="mix-blend-mode: normal"><path d="M323.7209,224.01156h-166.47153l35.42313,-87.99494h86.18099z" fill="none" stroke="#000000" stroke-width="2" stroke-linecap="round"/><path d="M187.00555,131.36639c-0.20092,0 -0.35678,-0.07623 -0.46757,-0.22861c-0.11079,-0.15238 -0.16624,-0.42951 -0.16624,-0.83126c0,-0.28402 0.03118,-0.62345 0.09351,-1.01828c0.06922,-0.40177 0.16277,-0.82779 0.28055,-1.27807c0.1178,-0.45719 0.25626,-0.91091 0.41563,-1.36118c0.15936,-0.45719 0.33251,-0.88322 0.51955,-1.27807c0.20781,-0.45026 0.40874,-0.80009 0.60267,-1.04946c0.19394,-0.2563 0.39136,-0.43641 0.59228,-0.54032c0.20092,-0.11083 0.41214,-0.16624 0.63384,-0.16624c0.33251,0 0.63732,0.13163 0.91438,0.39485c0.28404,0.26325 0.55421,0.69967 0.81049,1.30924c0.18704,0.46412 0.35678,0.97328 0.50914,1.52744c0.15238,0.55419 0.27016,1.11528 0.35328,1.6833c0.09002,0.56802 0.13508,1.10488 0.13508,1.61058c0,0.42253 -0.07274,0.73425 -0.21822,0.93518c-0.13857,0.19394 -0.33251,0.29094 -0.58189,0.29094c-0.24249,0 -0.42951,-0.10739 -0.5611,-0.32212c-0.13159,-0.2147 -0.2251,-0.57148 -0.28055,-1.07026c-0.02768,-0.30479 -0.04157,-0.62 -0.04157,-0.94556c0,-0.33251 0.01388,-0.64769 0.04157,-0.94556l0.17665,0.80009c-0.24249,0.08312 -0.54721,0.13855 -0.91438,0.16624c-0.36019,0.0208 -0.73775,0.01385 -1.1326,-0.0208c-0.38796,-0.04157 -0.75163,-0.11429 -1.09103,-0.21822l0.55071,-0.70657c0.00691,0.33251 -0.01039,0.65808 -0.05196,0.97673c-0.04157,0.31171 -0.09002,0.5992 -0.14547,0.86242c-0.05545,0.30479 -0.1212,0.56459 -0.19743,0.77932c-0.07623,0.2147 -0.17665,0.37756 -0.30133,0.48837c-0.1178,0.1039 -0.27706,0.15586 -0.47798,0.15586zM189.44737,127.82312c0.40174,0 0.69268,-0.05888 0.87281,-0.17665c0.18704,-0.12468 0.28055,-0.30479 0.28055,-0.54032c0,-0.16624 -0.03118,-0.37059 -0.09351,-0.61305c-0.05545,-0.24938 -0.13508,-0.49183 -0.23897,-0.72734c-0.1039,-0.23551 -0.2251,-0.43296 -0.36369,-0.59228c-0.13159,-0.15932 -0.27706,-0.23897 -0.43641,-0.23897c-0.15238,0 -0.29783,0.08312 -0.43641,0.24938c-0.13159,0.15932 -0.24938,0.3602 -0.35328,0.60267c-0.1039,0.24245 -0.18704,0.49183 -0.24938,0.74814c-0.06235,0.24938 -0.09351,0.46412 -0.09351,0.64422c0,0.20781 0.09002,0.36715 0.27016,0.47798c0.18704,0.11083 0.46757,0.16624 0.84165,0.16624z" fill="#0c0c0c" stroke="none" stroke-width="1" stroke-linecap="butt"/><path d="M147.53001,236.38512c-0.43641,0 -0.77585,-0.0274 -1.01828,-0.08312c-0.23551,-0.05574 -0.39831,-0.1313 -0.48837,-0.22861c-0.09004,-0.1039 -0.13855,-0.21822 -0.14547,-0.3429c0,-0.19364 0.11429,-0.35707 0.3429,-0.48837c0.23551,-0.1313 0.66502,-0.21444 1.28846,-0.24938l-0.16624,0.19743c-0.07621,-0.35328 -0.13163,-0.76513 -0.16624,-1.2365c-0.03464,-0.47136 -0.04847,-0.95973 -0.04157,-1.46511c0.00692,-0.50536 0.03118,-0.98712 0.07274,-1.44432c0.04157,-0.4638 0.10045,-0.85866 0.17665,-1.18455l0.90399,-0.06235c-0.15239,0.06235 -0.3429,0.11807 -0.57148,0.16624c-0.22861,0.04157 -0.46412,0.06235 -0.70657,0.06235c-0.44334,0 -0.77239,-0.04817 -0.98712,-0.14547c-0.20781,-0.0973 -0.31171,-0.23237 -0.31171,-0.40524c0,-0.30511 0.18357,-0.54032 0.55071,-0.70657c0.37408,-0.17287 0.94556,-0.25977 1.71448,-0.25977c0.91438,0 1.6833,0.15207 2.30674,0.45719c0.63038,0.29754 1.10834,0.71695 1.43393,1.25728c0.32559,0.5337 0.48837,1.15715 0.48837,1.87034c0,0.62345 -0.11083,1.19872 -0.33251,1.72487c-0.22168,0.51955 -0.54032,0.97296 -0.95595,1.36118c-0.40872,0.38068 -0.90053,0.67917 -1.4755,0.89361c-0.56802,0.20781 -1.20532,0.31171 -1.91191,0.31171zM149.00551,234.78494c0.23551,0 0.48491,-0.09351 0.74814,-0.28055c0.27016,-0.19364 0.49875,-0.4742 0.68579,-0.84165c0.18704,-0.37408 0.28055,-0.83503 0.28055,-1.38197c0,-0.40148 -0.05888,-0.75192 -0.17665,-1.04946c-0.11083,-0.30511 -0.2563,-0.55733 -0.43641,-0.75852c-0.18012,-0.20119 -0.37059,-0.3495 -0.57148,-0.4468c-0.20089,-0.1039 -0.39139,-0.15586 -0.57148,-0.15586c-0.14547,0 -0.25977,0.08974 -0.3429,0.27016c-0.07621,0.18044 -0.13163,0.45058 -0.16624,0.81049c-0.03464,0.35328 -0.05196,0.79348 -0.05196,1.31963c0,0.81709 0.04157,1.44053 0.12468,1.87034c0.08312,0.4298 0.24245,0.64422 0.47798,0.64422z" fill="#0c0c0c" stroke="none" stroke-width="1" stroke-linecap="butt"/><path d="M331.76337,231.53734c-0.78309,0 -1.43393,-0.14547 -1.95346,-0.43641c-0.51955,-0.29754 -0.90778,-0.71319 -1.16377,-1.24689c-0.25601,-0.5337 -0.38447,-1.15715 -0.38447,-1.87034c0,-0.78971 0.14169,-1.47926 0.42601,-2.06777c0.29094,-0.59605 0.71035,-1.05609 1.25728,-1.38197c0.54695,-0.32591 1.20532,-0.48837 1.97425,-0.48837c0.72074,0 1.29506,0.12846 1.72487,0.38447c0.4298,0.24938 0.64422,0.56772 0.64422,0.95595c0,0.22861 -0.07274,0.41186 -0.21822,0.55071c-0.14547,0.1313 -0.35707,0.19743 -0.63384,0.19743c-0.18044,0 -0.35707,-0.03779 -0.52994,-0.11429c-0.17287,-0.07651 -0.35991,-0.14925 -0.5611,-0.21822c-0.19364,-0.07651 -0.42601,-0.11429 -0.69618,-0.11429c-0.34668,0 -0.66878,0.06613 -0.96635,0.19743c-0.29094,0.1313 -0.52615,0.35328 -0.70657,0.66502c-0.17287,0.30511 -0.25977,0.72074 -0.25977,1.24689c0,0.79631 0.17287,1.36118 0.51955,1.69369c0.35328,0.33251 0.81709,0.49875 1.39236,0.49875c0.20119,0 0.41186,-0.01699 0.63384,-0.05196c0.22198,-0.04157 0.4298,-0.07935 0.62345,-0.11429c0.19364,-0.04157 0.3495,-0.06235 0.46757,-0.06235c0.23521,0 0.42225,0.05858 0.5611,0.17665c0.13887,0.11053 0.20781,0.27676 0.20781,0.49875c0,0.31834 -0.20119,0.58189 -0.60267,0.78971c-0.40148,0.20781 -0.98712,0.31171 -1.75605,0.31171z" fill="#0c0c0c" stroke="none" stroke-width="1" stroke-linecap="butt"/><path d="M285.16826,132.73939c-0.42885,0 -0.78592,-0.07963 -1.07026,-0.23897c-0.27676,-0.16624 -0.48458,-0.41903 -0.62345,-0.75852c-0.09637,-0.23549 -0.16908,-0.51955 -0.21822,-0.85206c-0.04157,-0.3394 -0.06235,-0.72734 -0.06235,-1.16374c0,-0.74814 0.02458,-1.36464 0.07274,-1.84956c0.04912,-0.49181 0.11807,-0.88669 0.20781,-1.18455c0.0973,-0.30479 0.20497,-0.55071 0.32212,-0.73775c0.18704,-0.28402 0.48553,-0.51261 0.89361,-0.68579c0.40902,-0.17319 0.98712,-0.25977 1.73526,-0.25977c0.49875,0 0.89739,0.07621 1.19493,0.22861c0.30511,0.14547 0.52331,0.33943 0.65461,0.58189c0.13887,0.24245 0.20781,0.51263 0.20781,0.81049c0,0.47106 -0.13792,0.85898 -0.41563,1.16377c-0.27676,0.30479 -0.64045,0.54724 -1.09103,0.72734v0.04157c0.49215,0.05541 0.87281,0.21476 1.14299,0.47798c0.27771,0.25632 0.41563,0.62345 0.41563,1.10142c0,0.38104 -0.09637,0.73082 -0.29094,1.04944c-0.18704,0.31171 -0.44302,0.58537 -0.76891,0.82088c-0.31834,0.22861 -0.67823,0.40874 -1.08065,0.54032c-0.40148,0.12468 -0.81049,0.18704 -1.22612,0.18704zM285.49036,131.4925c0.33251,0 0.62723,-0.05536 0.88322,-0.16624c0.26354,-0.11079 0.46757,-0.25977 0.61305,-0.4468c0.15302,-0.19394 0.22861,-0.41214 0.22861,-0.65461c0,-0.26322 -0.12752,-0.48142 -0.38447,-0.65461c-0.24938,-0.1801 -0.64045,-0.27016 -1.17415,-0.27016c-0.35991,0 -0.64705,0.08659 -0.86242,0.25977c-0.20781,0.16624 -0.31171,0.45375 -0.31171,0.8624c0,0.38796 0.08312,0.66502 0.24938,0.83126c0.16624,0.15936 0.41941,0.23897 0.75852,0.23897zM285.53193,128.19863c0.47136,0 0.86242,-0.1039 1.17415,-0.31171c0.31928,-0.21473 0.47798,-0.49181 0.47798,-0.83126c0,-0.24938 -0.10014,-0.45026 -0.30133,-0.60267c-0.20025,-0.15239 -0.49497,-0.22861 -0.88322,-0.22861c-0.42225,0 -0.76891,0.08312 -1.03908,0.24938c-0.27016,0.16624 -0.40524,0.45026 -0.40524,0.85206c0,0.32559 0.0869,0.55419 0.25977,0.68579c0.18044,0.12468 0.41941,0.18704 0.71695,0.18704z" fill="#0c0c0c" stroke="none" stroke-width="1" stroke-linecap="butt"/></g></g></svg>