<svg width="156" height="17" viewBox="0 0 156 17" fill="none" xmlns="http://www.w3.org/2000/svg">
<path d="M1.112 13.16C0.92 13.16 0.765333 13.096 0.648 12.968C0.530667 12.8293 0.434667 12.6107 0.36 12.312C0.285333 11.9707 0.216 11.4373 0.152 10.712C0.088 9.976 0.056 9.15467 0.056 8.248C0.056 7.26667 0.0826667 6.312 0.136 5.384C0.2 4.44533 0.290667 3.61867 0.408 2.904C0.493333 2.43467 0.616 2.088 0.776 1.864C0.946667 1.62933 1.18133 1.512 1.48 1.512C1.672 1.512 1.84267 1.576 1.992 1.704C2.14133 1.832 2.25333 2.06133 2.328 2.392C2.41333 2.72267 2.456 3.192 2.456 3.8C2.456 4.09867 2.44533 4.44 2.424 4.824C2.40267 5.19733 2.37067 5.61333 2.328 6.072H2.392C3.24533 4.89867 3.99733 3.96533 4.648 3.272C5.29867 2.568 5.86933 2.06133 6.36 1.752C6.86133 1.44267 7.29867 1.288 7.672 1.288C7.97067 1.288 8.19467 1.384 8.344 1.576C8.504 1.768 8.584 2.00267 8.584 2.28C8.584 2.86667 8.14133 3.57067 7.256 4.392C6.38133 5.21333 4.968 6.2 3.016 7.352L3.144 7.048C4.82933 8.11467 6.104 9.05867 6.968 9.88C7.832 10.6907 8.264 11.4107 8.264 12.04C8.264 12.3173 8.17333 12.5467 7.992 12.728C7.82133 12.8987 7.56533 12.984 7.224 12.984C6.79733 12.984 6.344 12.84 5.864 12.552C5.384 12.2533 4.85067 11.7573 4.264 11.064C3.688 10.36 3.032 9.40533 2.296 8.2H2.232C2.25333 8.44533 2.26933 8.70133 2.28 8.968C2.29067 9.224 2.296 9.48 2.296 9.736C2.296 10.9627 2.21067 11.8427 2.04 12.376C1.86933 12.8987 1.56 13.16 1.112 13.16ZM14.4248 13.128C13.2408 13.128 12.2968 12.952 11.5928 12.6C10.8888 12.248 10.3821 11.7413 10.0728 11.08C9.76342 10.4187 9.60875 9.62933 9.60875 8.712C9.60875 7.54933 9.82208 6.56267 10.2488 5.752C10.6861 4.93067 11.2834 4.30133 12.0408 3.864C12.8087 3.42667 13.6781 3.208 14.6488 3.208C15.7901 3.208 16.6274 3.47467 17.1608 4.008C17.6941 4.53067 17.9608 5.21867 17.9608 6.072C17.9608 6.75467 17.7794 7.34667 17.4167 7.848C17.0648 8.33867 16.5741 8.71733 15.9448 8.984C15.3154 9.25067 14.5901 9.384 13.7688 9.384C13.3101 9.384 12.8674 9.32533 12.4408 9.208C12.0141 9.09067 11.6301 8.93067 11.2888 8.728L11.6728 8.024C11.6408 8.28 11.6248 8.536 11.6248 8.792C11.6248 9.53867 11.8594 10.0773 12.3288 10.408C12.7981 10.728 13.4648 10.888 14.3288 10.888C15.0008 10.888 15.5394 10.8293 15.9448 10.712C16.3501 10.5947 16.6914 10.4827 16.9688 10.376C17.2461 10.2587 17.5181 10.2 17.7847 10.2C17.9341 10.2 18.0674 10.2427 18.1848 10.328C18.3128 10.4027 18.4141 10.5147 18.4888 10.664C18.5741 10.8133 18.6168 10.9947 18.6168 11.208C18.6168 11.528 18.4568 11.8373 18.1368 12.136C17.8168 12.424 17.3421 12.664 16.7128 12.856C16.0941 13.0373 15.3314 13.128 14.4248 13.128ZM13.4968 7.896C14.2541 7.896 14.8621 7.736 15.3208 7.416C15.7794 7.096 16.0088 6.70133 16.0088 6.232C16.0088 5.85867 15.8808 5.55467 15.6248 5.32C15.3794 5.07467 14.9901 4.952 14.4568 4.952C13.9554 4.952 13.5021 5.048 13.0968 5.24C12.7021 5.42133 12.3928 5.66133 12.1688 5.96C11.9448 6.25867 11.8328 6.584 11.8328 6.936C11.8328 7.24533 11.9768 7.48533 12.2648 7.656C12.5634 7.816 12.9741 7.896 13.4968 7.896ZM24.0709 2.984C25.0202 2.984 25.7029 3.12267 26.1189 3.4C26.5349 3.67733 26.7429 4.03467 26.7429 4.472C26.7429 4.728 26.6522 4.94133 26.4709 5.112C26.3002 5.272 26.0549 5.352 25.7349 5.352C25.4042 5.352 25.0575 5.304 24.6949 5.208C24.3429 5.112 23.9322 5.064 23.4629 5.064C22.9189 5.064 22.5135 5.17067 22.2469 5.384C21.9802 5.59733 21.8469 5.86933 21.8469 6.2C21.8469 6.50933 21.9642 6.75467 22.1989 6.936C22.4442 7.10667 22.9082 7.23467 23.5909 7.32C24.3482 7.40533 24.9722 7.544 25.4629 7.736C25.9642 7.91733 26.3375 8.19467 26.5829 8.568C26.8282 8.93067 26.9509 9.432 26.9509 10.072C26.9509 11.0853 26.5935 11.8373 25.8789 12.328C25.1642 12.8187 24.1775 13.064 22.9189 13.064C22.1189 13.064 21.4842 13 21.0149 12.872C20.5455 12.744 20.2042 12.5627 19.9909 12.328C19.7882 12.0933 19.6869 11.816 19.6869 11.496C19.6869 11.2187 19.7775 11.0053 19.9589 10.856C20.1509 10.696 20.3749 10.616 20.6309 10.616C20.8762 10.616 21.1375 10.648 21.4149 10.712C21.6922 10.7653 21.9855 10.824 22.2949 10.888C22.6042 10.952 22.9242 10.984 23.2549 10.984C24.3215 10.984 24.8549 10.6533 24.8549 9.992C24.8549 9.768 24.8015 9.58667 24.6949 9.448C24.5882 9.30933 24.3962 9.19733 24.1189 9.112C23.8415 9.016 23.4362 8.94133 22.9029 8.888C22.2629 8.824 21.7082 8.71733 21.2389 8.568C20.7695 8.408 20.4069 8.152 20.1509 7.8C19.8949 7.43733 19.7669 6.94133 19.7669 6.312C19.7669 5.32 20.1402 4.52 20.8869 3.912C21.6335 3.29333 22.6949 2.984 24.0709 2.984ZM29.9778 0.728C30.4044 0.728 30.7084 0.845333 30.8898 1.08C31.0818 1.31467 31.1778 1.58667 31.1778 1.896C31.1778 2.28 31.0604 2.57867 30.8258 2.792C30.6018 2.99467 30.2818 3.096 29.8658 3.096C29.4604 3.096 29.1564 2.984 28.9538 2.76C28.7511 2.52533 28.6497 2.25333 28.6497 1.944C28.6497 1.53867 28.7724 1.23467 29.0178 1.032C29.2631 0.829333 29.5831 0.728 29.9778 0.728ZM30.0738 4.296C30.4151 4.296 30.6818 4.616 30.8738 5.256C31.0764 5.896 31.1778 6.91467 31.1778 8.312C31.1778 10.0293 31.0551 11.2667 30.8098 12.024C30.5644 12.7813 30.1911 13.16 29.6898 13.16C29.3058 13.16 29.0231 12.8827 28.8418 12.328C28.6604 11.7627 28.5698 10.7813 28.5698 9.384C28.5698 7.66667 28.7084 6.392 28.9858 5.56C29.2738 4.71733 29.6364 4.296 30.0738 4.296ZM40.0283 5.672C40.1349 5.23467 40.3216 4.84 40.5883 4.488C40.8656 4.136 41.1963 3.85867 41.5803 3.656C41.9749 3.44267 42.4069 3.336 42.8763 3.336C43.4309 3.336 43.9216 3.46933 44.3483 3.736C44.7749 4.00267 45.1109 4.44 45.3563 5.048C45.6123 5.656 45.7403 6.46667 45.7403 7.48C45.7403 8.00267 45.7189 8.53067 45.6763 9.064C45.6336 9.59733 45.5803 10.0933 45.5163 10.552C45.4523 11.0107 45.3829 11.3947 45.3083 11.704C45.2016 12.1307 45.0363 12.456 44.8123 12.68C44.5989 12.904 44.3269 13.016 43.9963 13.016C43.7189 13.016 43.5003 12.8933 43.3403 12.648C43.1803 12.4027 43.1003 12.0507 43.1003 11.592C43.1003 11.3787 43.1269 11.1067 43.1803 10.776C43.2336 10.4347 43.2923 10.0667 43.3563 9.672C43.4203 9.26667 43.4789 8.856 43.5323 8.44C43.5856 8.024 43.6123 7.62933 43.6123 7.256C43.6123 6.70133 43.5003 6.27467 43.2763 5.976C43.0523 5.66667 42.7376 5.512 42.3323 5.512C41.8843 5.512 41.5109 5.74667 41.2123 6.216C40.9243 6.67467 40.7536 7.34667 40.7003 8.232C40.6576 9.02133 40.6203 9.72533 40.5883 10.344C40.5563 10.952 40.4763 11.4533 40.3483 11.848C40.2629 12.1253 40.1403 12.3333 39.9803 12.472C39.8309 12.6107 39.6283 12.68 39.3723 12.68C39.0843 12.68 38.8549 12.5733 38.6843 12.36C38.5243 12.1467 38.4336 11.8107 38.4123 11.352C38.3909 10.968 38.3856 10.5147 38.3963 9.992C38.4069 9.46933 38.4123 8.952 38.4123 8.44C38.4229 7.91733 38.4176 7.48533 38.3963 7.144C38.3536 6.46133 38.2309 5.96 38.0283 5.64C37.8363 5.32 37.5429 5.16 37.1483 5.16C36.6896 5.16 36.3216 5.37333 36.0443 5.8C35.7776 6.22667 35.6123 6.81867 35.5483 7.576C35.5269 7.88533 35.5163 8.26933 35.5163 8.728C35.5269 9.176 35.5376 9.624 35.5483 10.072C35.5589 10.52 35.5536 10.8933 35.5323 11.192C35.5216 11.832 35.4203 12.2907 35.2283 12.568C35.0469 12.8453 34.7909 12.984 34.4603 12.984C34.0656 12.984 33.7776 12.856 33.5963 12.6C33.4256 12.344 33.3136 11.9333 33.2603 11.368C33.2176 10.8667 33.1856 10.3707 33.1643 9.88C33.1429 9.37867 33.1323 8.88267 33.1323 8.392C33.1323 7.89067 33.1429 7.34667 33.1643 6.76C33.1963 6.17333 33.2389 5.61867 33.2923 5.096C33.3563 4.56267 33.4683 4.11467 33.6283 3.752C33.7883 3.38933 34.0549 3.208 34.4283 3.208C34.7376 3.208 34.9563 3.36267 35.0843 3.672C35.2123 3.97067 35.2763 4.43467 35.2763 5.064C35.2763 5.27733 35.2603 5.47467 35.2283 5.656L35.1803 5.336C35.3936 4.64267 35.7349 4.104 36.2043 3.72C36.6736 3.32533 37.1963 3.128 37.7723 3.128C38.5296 3.128 39.1216 3.37333 39.5483 3.864C39.9749 4.344 40.2096 5.01067 40.2523 5.864L40.0283 5.672ZM48.7828 3.08C49.0708 3.08 49.3108 3.25067 49.5028 3.592C49.6948 3.92267 49.8281 4.45067 49.9028 5.176L49.5668 5.48C49.7588 4.73333 50.1161 4.16267 50.6388 3.768C51.1614 3.37333 51.7801 3.176 52.4948 3.176C53.1561 3.176 53.7428 3.34667 54.2548 3.688C54.7668 4.02933 55.1668 4.54667 55.4548 5.24C55.7534 5.92267 55.9028 6.78133 55.9028 7.816C55.9028 9.49067 55.5988 10.728 54.9908 11.528C54.3934 12.3173 53.5774 12.712 52.5428 12.712C51.7961 12.712 51.2094 12.552 50.7828 12.232C50.3561 11.912 50.0574 11.5227 49.8868 11.064L50.0788 10.968C50.1641 11.608 50.2334 12.2427 50.2868 12.872C50.3508 13.4907 50.3828 14.0347 50.3828 14.504C50.3828 14.984 50.2974 15.3893 50.1268 15.72C49.9561 16.0507 49.6841 16.216 49.3108 16.216C48.9481 16.216 48.6761 16.0773 48.4948 15.8C48.3134 15.5227 48.1801 15.1547 48.0948 14.696C48.0308 14.2267 47.9668 13.624 47.9028 12.888C47.8388 12.152 47.7854 11.3573 47.7428 10.504C47.7108 9.65067 47.6948 8.81867 47.6948 8.008C47.6948 7.176 47.7214 6.39733 47.7747 5.672C47.8388 4.936 47.9134 4.33867 47.9988 3.88C48.0734 3.61333 48.1694 3.416 48.2868 3.288C48.4148 3.14933 48.5801 3.08 48.7828 3.08ZM51.8388 5.016C51.2628 5.016 50.7988 5.304 50.4468 5.88C50.1054 6.44533 49.9348 7.17067 49.9348 8.056C49.9348 8.96267 50.1054 9.64 50.4468 10.088C50.7988 10.536 51.2521 10.76 51.8068 10.76C52.4468 10.76 52.9054 10.5093 53.1828 10.008C53.4708 9.496 53.6148 8.83467 53.6148 8.024C53.6148 6.98933 53.4388 6.232 53.0868 5.752C52.7348 5.26133 52.3188 5.016 51.8388 5.016ZM64.7229 12.904C64.4349 12.904 64.2109 12.808 64.0509 12.616C63.9015 12.4133 63.8002 12.1573 63.7469 11.848C63.6935 11.528 63.6669 11.192 63.6669 10.84L63.7469 10.776C63.6402 11.2347 63.4322 11.6293 63.1229 11.96C62.8135 12.2907 62.4562 12.5467 62.0509 12.728C61.6455 12.8987 61.2402 12.984 60.8349 12.984C60.2909 12.984 59.7949 12.856 59.3469 12.6C58.8989 12.344 58.5522 11.9493 58.3069 11.416C58.0615 10.8507 57.8695 10.1413 57.7309 9.288C57.5922 8.424 57.5229 7.53867 57.5229 6.632C57.5229 6.14133 57.5442 5.688 57.5869 5.272C57.6295 4.856 57.6989 4.51467 57.7949 4.248C57.8802 3.97067 58.0082 3.768 58.1789 3.64C58.3495 3.50133 58.5682 3.432 58.8349 3.432C59.1442 3.432 59.3842 3.55467 59.5549 3.8C59.7362 4.03467 59.8482 4.36533 59.8909 4.792C59.9335 5.144 59.9602 5.58133 59.9709 6.104C59.9922 6.616 60.0082 7.13333 60.0189 7.656C60.0402 8.168 60.0669 8.6 60.0989 8.952C60.1629 9.592 60.3282 10.0667 60.5949 10.376C60.8615 10.6747 61.1869 10.824 61.5709 10.824C62.1362 10.824 62.5682 10.6107 62.8669 10.184C63.1655 9.75733 63.3149 9.16 63.3149 8.392C63.3149 8.008 63.2935 7.576 63.2509 7.096C63.2082 6.60533 63.1602 6.13067 63.1069 5.672C63.0642 5.21333 63.0429 4.83467 63.0429 4.536C63.0429 4.03467 63.1282 3.67733 63.2989 3.464C63.4695 3.24 63.7042 3.128 64.0029 3.128C64.2589 3.128 64.4722 3.19733 64.6429 3.336C64.8242 3.47467 64.9682 3.66667 65.0749 3.912C65.2242 4.232 65.3522 4.66933 65.4589 5.224C65.5655 5.77867 65.6509 6.408 65.7149 7.112C65.7789 7.816 65.8109 8.55733 65.8109 9.336C65.8109 10.5307 65.7309 11.4267 65.5709 12.024C65.4109 12.6107 65.1282 12.904 64.7229 12.904ZM69.4853 13.032C69.1546 13.032 68.8933 12.9573 68.7013 12.808C68.5093 12.648 68.3546 12.3867 68.2373 12.024C68.0773 11.4907 67.9546 10.8187 67.8693 10.008C67.7946 9.18667 67.7573 8.17867 67.7573 6.984C67.7573 6.248 67.7839 5.512 67.8372 4.776C67.9013 4.02933 67.9813 3.352 68.0773 2.744C68.1733 2.12533 68.2746 1.64533 68.3813 1.304C68.4986 0.941333 68.6373 0.690666 68.7973 0.551999C68.9573 0.413333 69.1386 0.344 69.3413 0.344C69.5546 0.344 69.7253 0.418667 69.8533 0.568C69.9813 0.706666 70.0826 0.957333 70.1573 1.32C70.2213 1.672 70.2693 2.104 70.3013 2.616C70.3439 3.128 70.3653 3.67733 70.3653 4.264C70.3653 5.064 70.3279 5.90667 70.2533 6.792C70.1786 7.67733 70.0773 8.54667 69.9493 9.4C69.8319 10.2533 69.6879 11.0373 69.5173 11.752L69.0693 11.528C69.3466 11.1867 69.6613 10.92 70.0133 10.728C70.3759 10.536 70.7066 10.44 71.0052 10.44C71.2506 10.44 71.4373 10.5093 71.5653 10.648C71.7039 10.776 71.7733 10.9787 71.7733 11.256C71.7733 11.5333 71.6506 11.8107 71.4053 12.088C71.1706 12.3653 70.8773 12.5947 70.5253 12.776C70.1733 12.9467 69.8266 13.032 69.4853 13.032ZM80.218 13.16C79.8553 13.16 79.6047 13.0213 79.466 12.744C79.338 12.456 79.2633 12.0027 79.242 11.384L79.402 11.464C78.8047 12.6267 77.674 13.208 76.01 13.208C75.2527 13.208 74.6233 13.0747 74.122 12.808C73.6207 12.5307 73.2473 12.168 73.002 11.72C72.7673 11.2613 72.65 10.7653 72.65 10.232C72.65 9.31467 72.97 8.58933 73.61 8.056C74.25 7.512 75.098 7.24 76.154 7.24C76.8473 7.24 77.45 7.34133 77.962 7.544C78.474 7.74667 78.9113 8.02933 79.274 8.392L79.002 8.36C78.9273 7.28267 78.6927 6.51467 78.298 6.056C77.914 5.58667 77.3647 5.352 76.65 5.352C76.234 5.352 75.85 5.416 75.498 5.544C75.146 5.672 74.8207 5.80533 74.522 5.944C74.234 6.072 73.962 6.136 73.706 6.136C73.45 6.136 73.2473 6.05067 73.098 5.88C72.9593 5.70933 72.89 5.49067 72.89 5.224C72.89 4.84 73.0713 4.47733 73.434 4.136C73.8073 3.79467 74.298 3.51733 74.906 3.304C75.514 3.09067 76.1753 2.984 76.89 2.984C77.754 2.984 78.4953 3.192 79.114 3.608C79.7327 4.024 80.202 4.632 80.522 5.432C80.7993 6.11467 80.9967 6.87733 81.114 7.72C81.2313 8.56267 81.29 9.464 81.29 10.424C81.29 11.1493 81.2527 11.7093 81.178 12.104C81.1033 12.4987 80.986 12.776 80.826 12.936C80.6767 13.0853 80.474 13.16 80.218 13.16ZM76.682 11.368C77.034 11.368 77.3913 11.32 77.754 11.224C78.1167 11.1173 78.4207 10.9627 78.666 10.76C78.9113 10.5573 79.034 10.3067 79.034 10.008C79.034 9.752 78.9273 9.544 78.714 9.384C78.5113 9.21333 78.2393 9.08533 77.898 9C77.5673 8.91467 77.21 8.872 76.826 8.872C76.1753 8.872 75.6793 8.984 75.338 9.208C75.0073 9.432 74.842 9.73067 74.842 10.104C74.842 10.5093 74.9967 10.824 75.306 11.048C75.626 11.2613 76.0847 11.368 76.682 11.368ZM84.8736 3.048C85.215 3.048 85.4443 3.18667 85.5616 3.464C85.6896 3.74133 85.7536 4.152 85.7536 4.696C85.7536 4.824 85.743 4.96267 85.7216 5.112C85.711 5.25067 85.6896 5.37867 85.6576 5.496L85.6256 5.176C85.8816 4.48267 86.2763 3.944 86.8096 3.56C87.343 3.16533 87.9083 2.968 88.5056 2.968C89.167 2.968 89.7163 3.15467 90.1536 3.528C90.6016 3.90133 90.9323 4.424 91.1456 5.096C91.3696 5.768 91.4816 6.56267 91.4816 7.48C91.4816 8.04533 91.455 8.60533 91.4016 9.16C91.359 9.704 91.295 10.2053 91.2096 10.664C91.135 11.112 91.0496 11.48 90.9536 11.768C90.8256 12.1307 90.6603 12.4027 90.4576 12.584C90.255 12.7547 90.015 12.84 89.7376 12.84C89.4603 12.84 89.247 12.7387 89.0976 12.536C88.9483 12.3333 88.8736 12.0613 88.8736 11.72C88.8736 11.3573 88.9003 10.92 88.9536 10.408C89.007 9.88533 89.055 9.35733 89.0976 8.824C89.151 8.28 89.1776 7.78933 89.1776 7.352C89.1776 5.85867 88.687 5.112 87.7056 5.112C87.183 5.112 86.7456 5.34667 86.3936 5.816C86.0416 6.27467 85.807 6.93067 85.6896 7.784C85.6576 8.072 85.6416 8.42933 85.6416 8.856C85.6416 9.28267 85.6416 9.70933 85.6416 10.136C85.6523 10.552 85.6416 10.904 85.6096 11.192C85.567 11.832 85.4443 12.2907 85.2416 12.568C85.0496 12.8453 84.783 12.984 84.4416 12.984C84.047 12.984 83.7483 12.8027 83.5456 12.44C83.343 12.0667 83.2416 11.4427 83.2416 10.568C83.2416 10.12 83.2523 9.61867 83.2736 9.064C83.295 8.50933 83.3216 7.95467 83.3536 7.4C83.3963 6.83467 83.4443 6.32267 83.4976 5.864C83.6043 5 83.759 4.31733 83.9616 3.816C84.1643 3.304 84.4683 3.048 84.8736 3.048ZM101.144 1.496C102.414 1.496 103.347 1.82133 103.944 2.472C104.552 3.12267 104.856 3.976 104.856 5.032C104.856 5.75733 104.686 6.38667 104.344 6.92C104.014 7.45333 103.56 7.86933 102.984 8.168C102.408 8.456 101.758 8.6 101.032 8.6C100.691 8.6 100.328 8.56267 99.9443 8.488C99.5709 8.41333 99.1816 8.26933 98.7763 8.056L98.8563 7.848C98.9416 8.11467 99.0109 8.44533 99.0643 8.84C99.1283 9.224 99.1763 9.624 99.2083 10.04C99.2509 10.4453 99.2723 10.8187 99.2723 11.16C99.2723 11.7893 99.1656 12.2747 98.9523 12.616C98.7496 12.9467 98.4456 13.112 98.0403 13.112C97.6989 13.112 97.4269 13.0053 97.2243 12.792C97.0323 12.5787 96.8989 12.2267 96.8243 11.736C96.7496 11.2453 96.7122 10.5893 96.7122 9.768C96.7122 8.18933 96.7816 6.84533 96.9203 5.736C97.0696 4.616 97.3203 3.736 97.6723 3.096C97.9496 2.60533 98.3763 2.216 98.9523 1.928C99.5389 1.64 100.27 1.496 101.144 1.496ZM100.84 6.712C101.48 6.712 101.998 6.54133 102.392 6.2C102.798 5.85867 103 5.36267 103 4.712C103 4.28533 102.856 3.93333 102.568 3.656C102.291 3.368 101.854 3.224 101.256 3.224C100.819 3.224 100.44 3.32533 100.12 3.528C99.8003 3.72 99.5549 3.992 99.3843 4.344C99.2243 4.68533 99.1443 5.08 99.1443 5.528C99.1443 5.944 99.2776 6.248 99.5443 6.44C99.8216 6.62133 100.254 6.712 100.84 6.712ZM110.706 13.128C109.522 13.128 108.578 12.952 107.874 12.6C107.17 12.248 106.663 11.7413 106.354 11.08C106.045 10.4187 105.89 9.62933 105.89 8.712C105.89 7.54933 106.103 6.56267 106.53 5.752C106.967 4.93067 107.565 4.30133 108.322 3.864C109.09 3.42667 109.959 3.208 110.93 3.208C112.071 3.208 112.909 3.47467 113.442 4.008C113.975 4.53067 114.242 5.21867 114.242 6.072C114.242 6.75467 114.061 7.34667 113.698 7.848C113.346 8.33867 112.855 8.71733 112.226 8.984C111.597 9.25067 110.871 9.384 110.05 9.384C109.591 9.384 109.149 9.32533 108.722 9.208C108.295 9.09067 107.911 8.93067 107.57 8.728L107.954 8.024C107.922 8.28 107.906 8.536 107.906 8.792C107.906 9.53867 108.141 10.0773 108.61 10.408C109.079 10.728 109.746 10.888 110.61 10.888C111.282 10.888 111.821 10.8293 112.226 10.712C112.631 10.5947 112.973 10.4827 113.25 10.376C113.527 10.2587 113.799 10.2 114.066 10.2C114.215 10.2 114.349 10.2427 114.466 10.328C114.594 10.4027 114.695 10.5147 114.77 10.664C114.855 10.8133 114.898 10.9947 114.898 11.208C114.898 11.528 114.738 11.8373 114.418 12.136C114.098 12.424 113.623 12.664 112.994 12.856C112.375 13.0373 111.613 13.128 110.706 13.128ZM109.778 7.896C110.535 7.896 111.143 7.736 111.602 7.416C112.061 7.096 112.29 6.70133 112.29 6.232C112.29 5.85867 112.162 5.55467 111.906 5.32C111.661 5.07467 111.271 4.952 110.738 4.952C110.237 4.952 109.783 5.048 109.378 5.24C108.983 5.42133 108.674 5.66133 108.45 5.96C108.226 6.25867 108.114 6.584 108.114 6.936C108.114 7.24533 108.258 7.48533 108.546 7.656C108.845 7.816 109.255 7.896 109.778 7.896ZM116.304 5.784C116.304 4.76 116.4 4.024 116.592 3.576C116.784 3.11733 117.056 2.888 117.408 2.888C117.685 2.888 117.904 3.00533 118.064 3.24C118.224 3.464 118.341 3.74667 118.416 4.088C118.491 4.41867 118.528 4.75467 118.528 5.096L118.448 5.064C118.629 4.488 118.907 3.992 119.28 3.576C119.664 3.16 120.123 2.952 120.656 2.952C121.285 2.952 121.749 3.21333 122.048 3.736C122.347 4.248 122.496 4.888 122.496 5.656C122.496 6.68 122.379 7.39467 122.144 7.8C121.909 8.20533 121.595 8.408 121.2 8.408C120.912 8.408 120.699 8.29067 120.56 8.056C120.432 7.82133 120.389 7.40533 120.432 6.808C120.475 6.17867 120.437 5.74133 120.32 5.496C120.203 5.25067 120.016 5.128 119.76 5.128C119.451 5.128 119.195 5.32533 118.992 5.72C118.8 6.104 118.704 6.57867 118.704 7.144C118.704 7.368 118.731 7.65067 118.784 7.992C118.837 8.33333 118.896 8.70667 118.96 9.112C119.024 9.50667 119.083 9.90133 119.136 10.296C119.189 10.6907 119.216 11.0533 119.216 11.384C119.216 11.9707 119.125 12.392 118.944 12.648C118.763 12.904 118.507 13.032 118.176 13.032C117.803 13.032 117.515 12.9147 117.312 12.68C117.109 12.4347 116.955 12.04 116.848 11.496C116.763 11.0053 116.677 10.424 116.592 9.752C116.507 9.08 116.437 8.392 116.384 7.688C116.331 6.984 116.304 6.34933 116.304 5.784ZM127.962 2.984C128.911 2.984 129.594 3.12267 130.01 3.4C130.426 3.67733 130.634 4.03467 130.634 4.472C130.634 4.728 130.543 4.94133 130.362 5.112C130.191 5.272 129.946 5.352 129.626 5.352C129.295 5.352 128.948 5.304 128.586 5.208C128.234 5.112 127.823 5.064 127.354 5.064C126.81 5.064 126.404 5.17067 126.138 5.384C125.871 5.59733 125.738 5.86933 125.738 6.2C125.738 6.50933 125.855 6.75467 126.09 6.936C126.335 7.10667 126.799 7.23467 127.482 7.32C128.239 7.40533 128.863 7.544 129.354 7.736C129.855 7.91733 130.228 8.19467 130.474 8.568C130.719 8.93067 130.842 9.432 130.842 10.072C130.842 11.0853 130.484 11.8373 129.77 12.328C129.055 12.8187 128.068 13.064 126.81 13.064C126.01 13.064 125.375 13 124.906 12.872C124.436 12.744 124.095 12.5627 123.882 12.328C123.679 12.0933 123.578 11.816 123.578 11.496C123.578 11.2187 123.668 11.0053 123.85 10.856C124.042 10.696 124.266 10.616 124.522 10.616C124.767 10.616 125.028 10.648 125.306 10.712C125.583 10.7653 125.876 10.824 126.186 10.888C126.495 10.952 126.815 10.984 127.146 10.984C128.212 10.984 128.746 10.6533 128.746 9.992C128.746 9.768 128.692 9.58667 128.586 9.448C128.479 9.30933 128.287 9.19733 128.01 9.112C127.732 9.016 127.327 8.94133 126.794 8.888C126.154 8.824 125.599 8.71733 125.13 8.568C124.66 8.408 124.298 8.152 124.042 7.8C123.786 7.43733 123.658 6.94133 123.658 6.312C123.658 5.32 124.031 4.52 124.778 3.912C125.524 3.29333 126.586 2.984 127.962 2.984ZM136.94 13.128C135.756 13.128 134.812 12.952 134.108 12.6C133.404 12.248 132.898 11.7413 132.588 11.08C132.279 10.4187 132.124 9.62933 132.124 8.712C132.124 7.54933 132.338 6.56267 132.764 5.752C133.202 4.93067 133.799 4.30133 134.556 3.864C135.324 3.42667 136.194 3.208 137.164 3.208C138.306 3.208 139.143 3.47467 139.676 4.008C140.21 4.53067 140.476 5.21867 140.476 6.072C140.476 6.75467 140.295 7.34667 139.932 7.848C139.58 8.33867 139.09 8.71733 138.46 8.984C137.831 9.25067 137.106 9.384 136.284 9.384C135.826 9.384 135.383 9.32533 134.956 9.208C134.53 9.09067 134.146 8.93067 133.804 8.728L134.188 8.024C134.156 8.28 134.14 8.536 134.14 8.792C134.14 9.53867 134.375 10.0773 134.844 10.408C135.314 10.728 135.98 10.888 136.844 10.888C137.516 10.888 138.055 10.8293 138.46 10.712C138.866 10.5947 139.207 10.4827 139.484 10.376C139.762 10.2587 140.034 10.2 140.3 10.2C140.45 10.2 140.583 10.2427 140.7 10.328C140.828 10.4027 140.93 10.5147 141.004 10.664C141.09 10.8133 141.132 10.9947 141.132 11.208C141.132 11.528 140.972 11.8373 140.652 12.136C140.332 12.424 139.858 12.664 139.228 12.856C138.61 13.0373 137.847 13.128 136.94 13.128ZM136.012 7.896C136.77 7.896 137.378 7.736 137.836 7.416C138.295 7.096 138.524 6.70133 138.524 6.232C138.524 5.85867 138.396 5.55467 138.14 5.32C137.895 5.07467 137.506 4.952 136.972 4.952C136.471 4.952 136.018 5.048 135.612 5.24C135.218 5.42133 134.908 5.66133 134.684 5.96C134.46 6.25867 134.348 6.584 134.348 6.936C134.348 7.24533 134.492 7.48533 134.78 7.656C135.079 7.816 135.49 7.896 136.012 7.896ZM145.595 12.744C144.592 12.744 143.776 12.36 143.147 11.592C142.517 10.8133 142.203 9.63467 142.203 8.056C142.203 6.37067 142.507 5.13867 143.115 4.36C143.723 3.58133 144.523 3.192 145.515 3.192C146.101 3.192 146.619 3.34133 147.067 3.64C147.515 3.93867 147.899 4.36 148.219 4.904L148.091 5.128C148.059 4.97867 148.032 4.81867 148.011 4.648C147.989 4.47733 147.979 4.34933 147.979 4.264C147.979 3.82667 148.048 3.49067 148.187 3.256C148.336 3.01067 148.565 2.888 148.875 2.888C149.216 2.888 149.483 3.02667 149.675 3.304C149.877 3.58133 150.032 3.976 150.139 4.488C150.277 5.01067 150.395 5.67733 150.491 6.488C150.587 7.288 150.635 8.09867 150.635 8.92C150.635 9.944 150.597 10.8027 150.523 11.496C150.448 12.1893 150.325 12.7653 150.155 13.224C149.984 13.6827 149.76 14.0827 149.483 14.424C149.024 14.9787 148.432 15.4 147.707 15.688C146.992 15.9867 146.165 16.136 145.227 16.136C144.555 16.136 144.016 16.072 143.611 15.944C143.205 15.8267 142.912 15.6613 142.731 15.448C142.56 15.2453 142.475 15.016 142.475 14.76C142.475 14.4933 142.549 14.2693 142.699 14.088C142.848 13.9173 143.072 13.832 143.371 13.832C143.637 13.832 143.947 13.8747 144.299 13.96C144.661 14.0453 145.088 14.088 145.579 14.088C146.613 14.088 147.344 13.8427 147.771 13.352C148.208 12.872 148.427 12.1787 148.427 11.272C148.427 11.0267 148.411 10.7387 148.379 10.408L148.603 10.488C148.336 11.1707 147.941 11.72 147.419 12.136C146.896 12.5413 146.288 12.744 145.595 12.744ZM146.203 10.776C146.544 10.776 146.885 10.6853 147.227 10.504C147.568 10.3227 147.851 10.024 148.075 9.608C148.299 9.192 148.411 8.632 148.411 7.928C148.411 7.08533 148.213 6.39733 147.819 5.864C147.424 5.33067 146.869 5.064 146.155 5.064C145.536 5.064 145.083 5.29867 144.795 5.768C144.507 6.23733 144.363 6.94667 144.363 7.896C144.363 8.80267 144.507 9.512 144.795 10.024C145.083 10.5253 145.552 10.776 146.203 10.776ZM153.993 0.728C154.42 0.728 154.724 0.845333 154.905 1.08C155.097 1.31467 155.193 1.58667 155.193 1.896C155.193 2.28 155.076 2.57867 154.841 2.792C154.617 2.99467 154.297 3.096 153.881 3.096C153.476 3.096 153.172 2.984 152.969 2.76C152.767 2.52533 152.665 2.25333 152.665 1.944C152.665 1.53867 152.788 1.23467 153.033 1.032C153.279 0.829333 153.599 0.728 153.993 0.728ZM154.089 4.296C154.431 4.296 154.697 4.616 154.889 5.256C155.092 5.896 155.193 6.91467 155.193 8.312C155.193 10.0293 155.071 11.2667 154.825 12.024C154.58 12.7813 154.207 13.16 153.705 13.16C153.321 13.16 153.039 12.8827 152.857 12.328C152.676 11.7627 152.585 10.7813 152.585 9.384C152.585 7.66667 152.724 6.392 153.001 5.56C153.289 4.71733 153.652 4.296 154.089 4.296Z" fill="black"/>
</svg>
