<svg version="1.1" xmlns="http://www.w3.org/2000/svg" xmlns:xlink="http://www.w3.org/1999/xlink" width="40.15847" height="39.63417" viewBox="0,0,40.15847,39.63417"><g transform="translate(-219.92076,-160.18292)"><g data-paper-data="{&quot;isPaintingLayer&quot;:true}" fill-rule="nonzero" stroke-linecap="butt" stroke-linejoin="miter" stroke-miterlimit="10" stroke-dasharray="" stroke-dashoffset="0" style="mix-blend-mode: normal"><path d="M220.67076,199.06708v-38.13417h38.65847v38.13417z" fill="#f4f4f4" stroke="#000000" stroke-width="1.5"/><path d="M239.38962,180.13523c0,-0.29874 0.24291,-0.5409 0.54256,-0.5409c0.29966,0 0.54257,0.24217 0.54257,0.5409c0,0.29874 -0.24292,0.54091 -0.54257,0.54091c-0.29966,0 -0.54256,-0.24218 -0.54256,-0.54091z" fill="#252525" stroke="none" stroke-width="1"/><path d="M249.49399,163.36864v-0.60203h1.05206v2.76405h-0.67605v-2.16201z" fill="#000000" stroke="none" stroke-width="1"/><path d="M255.27268,172.44943c0.08614,-0.06816 0.12534,-0.0997 0.11774,-0.09465c0.24809,-0.20446 0.44314,-0.37232 0.58489,-0.50359c0.14433,-0.13127 0.26586,-0.26883 0.36462,-0.41271c0.09875,-0.14388 0.14812,-0.28397 0.14812,-0.42029c0,-0.10348 -0.024,-0.18427 -0.07216,-0.24234c-0.04815,-0.05805 -0.12031,-0.08708 -0.21649,-0.08708c-0.09616,0 -0.17214,0.0366 -0.22789,0.10981c-0.05318,0.07069 -0.07975,0.17165 -0.07975,0.30292h-0.62668c0.00502,-0.21456 0.05059,-0.39378 0.13673,-0.53767c0.08858,-0.14388 0.20387,-0.2499 0.34562,-0.31806c0.14433,-0.06816 0.30384,-0.10223 0.47855,-0.10223c0.30126,0 0.52792,0.07699 0.67985,0.23097c0.1545,0.15398 0.23168,0.35466 0.23168,0.60203c0,0.27009 -0.09237,0.52126 -0.27725,0.7535c-0.18489,0.22971 -0.42037,0.45436 -0.70643,0.67397h1.02546v0.52631h-1.9066z" fill="#000000" stroke="none" stroke-width="1"/><path d="M255.25329,179.09777c0.01018,-0.27005 0.09876,-0.4783 0.26586,-0.62475c0.1671,-0.14645 0.39377,-0.21961 0.67985,-0.21961c0.1899,0 0.35199,0.03286 0.48614,0.09845c0.13673,0.06558 0.23927,0.15524 0.30764,0.26882c0.07094,0.11359 0.10634,0.24111 0.10634,0.38242c0,0.16659 -0.04178,0.30292 -0.12534,0.40893c-0.08356,0.10345 -0.18095,0.17417 -0.29245,0.21204v0.01514c0.14433,0.048 0.25827,0.12752 0.34182,0.23854c0.08356,0.11102 0.12534,0.25369 0.12534,0.42786c0,0.15646 -0.03662,0.29533 -0.11014,0.4165c-0.07081,0.11859 -0.17593,0.21204 -0.31525,0.28019c-0.13673,0.06816 -0.30005,0.10223 -0.48995,0.10223c-0.30385,0 -0.54692,-0.0745 -0.72923,-0.22339c-0.17973,-0.14889 -0.27468,-0.37364 -0.28484,-0.67397h0.63047c0.00257,0.11102 0.03418,0.19946 0.09494,0.26504c0.06077,0.06315 0.14948,0.09465 0.26586,0.09465c0.09875,0 0.17471,-0.02772 0.22789,-0.0833c0.05575,-0.05801 0.08355,-0.13374 0.08355,-0.22719c0,-0.12116 -0.0392,-0.20825 -0.11774,-0.26126c-0.07596,-0.05558 -0.19871,-0.0833 -0.3684,-0.0833h-0.12153v-0.5263h0.12153c0.12914,0 0.23303,-0.02151 0.31143,-0.06436c0.08112,-0.04543 0.12154,-0.12495 0.12154,-0.23854c0,-0.09087 -0.02523,-0.1616 -0.07596,-0.21204c-0.05059,-0.05044 -0.12018,-0.07573 -0.20889,-0.07573c-0.09616,0 -0.16833,0.02907 -0.21649,0.08709c-0.04557,0.05801 -0.07216,0.12996 -0.07975,0.21583z" fill="#000000" stroke="none" stroke-width="1"/><path d="M255.11032,188.70325v-0.52252l1.20017,-1.71143h0.72543v1.67358h0.31144v0.56038h-0.31144v0.49223h-0.64946v-0.49223zM256.43203,187.18113l-0.63807,0.96174h0.63807z" fill="#000000" stroke="none" stroke-width="1"/><path d="M250.99352,195.10924h-1.18499v0.52252c0.05059,-0.05558 0.12154,-0.10102 0.2127,-0.13631c0.09115,-0.03529 0.1899,-0.05301 0.29624,-0.05301c0.1899,0 0.34685,0.04287 0.47096,0.12874c0.12656,0.08587 0.21892,0.1969 0.27725,0.3332c0.05819,0.13631 0.08736,0.28397 0.08736,0.443c0,0.29533 -0.08356,0.53008 -0.25067,0.70426c-0.1671,0.17161 -0.4026,0.25748 -0.70643,0.25748c-0.20265,0 -0.37858,-0.03407 -0.52792,-0.10223c-0.14948,-0.07072 -0.26463,-0.16781 -0.34562,-0.29155c-0.08112,-0.12374 -0.12534,-0.26626 -0.13293,-0.42785h0.63426c0.0152,0.0783 0.05181,0.14388 0.11015,0.1969c0.05819,0.05044 0.13795,0.07572 0.23927,0.07572c0.11896,0 0.20754,-0.03787 0.26586,-0.11359c0.05819,-0.07573 0.08736,-0.17674 0.08736,-0.30291c0,-0.12374 -0.03039,-0.21839 -0.09116,-0.28398c-0.06077,-0.06558 -0.14948,-0.09845 -0.26586,-0.09845c-0.08614,0 -0.15707,0.02151 -0.21269,0.06436c-0.05575,0.04043 -0.09251,0.09465 -0.11015,0.16281h-0.62668v-1.64707h1.77368z" fill="#000000" stroke="none" stroke-width="1"/><path d="M240.26506,195.29098c-0.02021,-0.09345 -0.05575,-0.16282 -0.10634,-0.20825c-0.05059,-0.048 -0.12276,-0.07194 -0.21649,-0.07194c-0.14433,0 -0.24809,0.06315 -0.31143,0.18932c-0.06334,0.12374 -0.09617,0.32062 -0.09876,0.59068c0.05575,-0.08831 0.13551,-0.15781 0.23928,-0.20824c0.10634,-0.05044 0.22285,-0.07573 0.34941,-0.07573c0.2481,0 0.44695,0.0783 0.59629,0.23475c0.15192,0.15646 0.22788,0.37485 0.22788,0.65504c0,0.18432 -0.03798,0.34578 -0.11394,0.48465c-0.07339,0.13888 -0.1823,0.24733 -0.32663,0.32563c-0.14175,0.0783 -0.31021,0.11738 -0.50514,0.11738c-0.38998,0 -0.66085,-0.12116 -0.81278,-0.36349c-0.15192,-0.2449 -0.22788,-0.59568 -0.22788,-1.05261c0,-0.47965 0.07975,-0.83557 0.23927,-1.06776c0.16209,-0.23475 0.42036,-0.35213 0.77479,-0.35213c0.1899,0 0.34943,0.03787 0.47856,0.11359c0.13171,0.07316 0.23045,0.17039 0.29624,0.29155c0.06837,0.12116 0.10893,0.25368 0.12154,0.39756zM239.96501,196.01797c-0.10892,0 -0.20007,0.03285 -0.27346,0.09845c-0.07094,0.06315 -0.10634,0.15403 -0.10634,0.27262c0,0.12116 0.03295,0.21582 0.09875,0.28397c0.06837,0.06816 0.16454,0.10223 0.28865,0.10223c0.11136,0 0.19871,-0.03286 0.26207,-0.09845c0.06579,-0.06816 0.09876,-0.16024 0.09876,-0.2764c0,-0.11859 -0.0316,-0.21204 -0.09494,-0.28019c-0.06334,-0.06816 -0.15451,-0.10223 -0.27347,-0.10223z" fill="#000000" stroke="none" stroke-width="1"/><path d="M230.68342,195.02972l-0.95331,2.27939h-0.66465l0.9647,-2.20745h-1.18118v-0.55281h1.83444z" fill="#000000" stroke="none" stroke-width="1"/><path d="M223.72843,187.71121c-0.23801,-0.12617 -0.35701,-0.3244 -0.35701,-0.59446c0,-0.13631 0.03545,-0.26004 0.10634,-0.37106c0.07088,-0.11359 0.1785,-0.20325 0.32283,-0.26883c0.14433,-0.06816 0.32157,-0.10223 0.53172,-0.10223c0.21015,0 0.38613,0.03407 0.52793,0.10223c0.14433,0.06558 0.25194,0.15525 0.32283,0.26883c0.07088,0.11102 0.10634,0.23475 0.10634,0.37106c0,0.13631 -0.03293,0.2549 -0.09876,0.35591c-0.06331,0.10101 -0.14939,0.18053 -0.25826,0.23854c0.13673,0.06558 0.24179,0.15646 0.31524,0.27262c0.07342,0.11359 0.11015,0.24733 0.11015,0.40136c0,0.17917 -0.04558,0.33442 -0.13673,0.46572c-0.09115,0.12874 -0.21522,0.22719 -0.3722,0.29534c-0.15446,0.06816 -0.32663,0.10223 -0.51653,0.10223c-0.1899,0 -0.36336,-0.03407 -0.52034,-0.10223c-0.15446,-0.06816 -0.27726,-0.1666 -0.3684,-0.29534c-0.09115,-0.1313 -0.13673,-0.28655 -0.13673,-0.46572c0,-0.15646 0.03671,-0.29155 0.11016,-0.40515c0.07342,-0.11616 0.17724,-0.20568 0.31143,-0.26883zM224.65895,187.2152c0,-0.10345 -0.03038,-0.18296 -0.09115,-0.23854c-0.05824,-0.05801 -0.13672,-0.08709 -0.23548,-0.08709c-0.09876,0 -0.17851,0.02907 -0.23927,0.08709c-0.05824,0.05801 -0.08736,0.13888 -0.08736,0.24233c0,0.09845 0.03039,0.17674 0.09115,0.23476c0.06077,0.05558 0.13925,0.0833 0.23548,0.0833c0.09622,0 0.17471,-0.02907 0.23548,-0.08708c0.06077,-0.05801 0.09115,-0.1363 0.09115,-0.23475zM224.33233,187.9914c-0.11902,0 -0.21522,0.03285 -0.28865,0.09845c-0.07343,0.06315 -0.11015,0.15145 -0.11015,0.26504c0,0.10601 0.03545,0.1931 0.10634,0.26126c0.07342,0.06816 0.17092,0.10223 0.29245,0.10223c0.12153,0 0.21648,-0.03407 0.28484,-0.10223c0.07088,-0.06816 0.10635,-0.15525 0.10635,-0.26126c0,-0.11102 -0.03672,-0.19946 -0.11015,-0.26504c-0.07091,-0.06558 -0.16459,-0.09845 -0.28105,-0.09845z" fill="#000000" stroke="none" stroke-width="1"/><path d="M224.03455,180.27153c0.03798,0.19946 0.15446,0.29913 0.34942,0.29913c0.13421,0 0.22916,-0.05936 0.28485,-0.17796c0.05571,-0.11859 0.08356,-0.3117 0.08356,-0.57932c-0.05569,0.0783 -0.13166,0.13888 -0.22789,0.18174c-0.09622,0.04287 -0.20382,0.06436 -0.32283,0.06436c-0.16205,0 -0.30637,-0.03285 -0.43298,-0.09845c-0.1266,-0.06816 -0.22661,-0.16782 -0.30005,-0.29913c-0.07088,-0.13374 -0.10634,-0.29533 -0.10634,-0.48465c0,-0.18675 0.03798,-0.34956 0.11394,-0.48845c0.0785,-0.13888 0.18865,-0.24611 0.33043,-0.32184c0.14433,-0.07573 0.31397,-0.1136 0.50894,-0.1136c0.37474,0 0.6368,0.11616 0.78619,0.34835c0.1494,0.23219 0.22409,0.57432 0.22409,1.0261c0,0.3282 -0.03039,0.59946 -0.09115,0.81407c-0.05823,0.21204 -0.15823,0.37364 -0.30005,0.48465c-0.13925,0.11102 -0.33043,0.16659 -0.5735,0.16659c-0.19242,0 -0.35702,-0.03787 -0.49375,-0.11359c-0.13419,-0.07573 -0.238,-0.17539 -0.31143,-0.29913c-0.07088,-0.12374 -0.11141,-0.26004 -0.12153,-0.40893zM224.34979,179.54835c0.10634,0 0.19119,-0.03151 0.25447,-0.09466c0.06331,-0.06558 0.09494,-0.15402 0.09494,-0.26504c0,-0.12116 -0.0329,-0.21461 -0.09875,-0.28019c-0.06583,-0.06558 -0.15444,-0.09845 -0.26586,-0.09845c-0.1114,0 -0.20002,0.03407 -0.26586,0.10223c-0.06329,0.06558 -0.09494,0.15646 -0.09494,0.27262c0,0.10859 0.03167,0.1969 0.09494,0.26504c0.06584,0.06558 0.15951,0.09845 0.28105,0.09845z" fill="#000000" stroke="none" stroke-width="1"/><path d="M222.88983,170.80615v-0.60203h1.05205v2.76405h-0.67605v-2.16201zM224.38617,171.54827c0,-0.43418 0.08356,-0.7762 0.25066,-1.0261c0.16963,-0.2499 0.44184,-0.37486 0.81658,-0.37486c0.37473,0 0.64566,0.12496 0.81278,0.37486c0.16963,0.2499 0.25446,0.59193 0.25446,1.0261c0,0.43922 -0.08483,0.78378 -0.25446,1.03368c-0.1671,0.2499 -0.43804,0.37485 -0.81278,0.37485c-0.37474,0 -0.64694,-0.12495 -0.81658,-0.37485c-0.1671,-0.2499 -0.25066,-0.59446 -0.25066,-1.03368zM225.8826,171.54827c0,-0.25495 -0.02785,-0.45057 -0.08356,-0.58688c-0.05571,-0.13884 -0.17092,-0.20825 -0.34563,-0.20825c-0.17471,0 -0.28992,0.06941 -0.34563,0.20825c-0.05571,0.13631 -0.08356,0.33194 -0.08356,0.58688c0,0.17164 0.01011,0.31427 0.03038,0.42785c0.02025,0.11106 0.06077,0.20193 0.12154,0.27262c0.06329,0.06816 0.15572,0.10223 0.27726,0.10223c0.12153,0 0.21269,-0.03408 0.27346,-0.10223c0.06329,-0.07069 0.10507,-0.16156 0.12534,-0.27262c0.02025,-0.11359 0.03039,-0.25621 0.03039,-0.42785z" fill="#000000" stroke="none" stroke-width="1" opacity="0.8"/><path d="M228.43349,163.36864v-0.60203h1.05205v2.76405h-0.67605v-2.16201zM229.86144,163.36864v-0.60203h1.05205v2.76405h-0.67604v-2.16201z" fill="#000000" stroke="none" stroke-width="1"/><path d="M238.50711,163.36864v-0.60203h1.05206v2.76405h-0.67604v-2.16201zM239.98075,165.01192c0.08601,-0.06816 0.12534,-0.0997 0.11774,-0.09465c0.2481,-0.20446 0.44301,-0.37233 0.58489,-0.5036c0.14433,-0.13127 0.26586,-0.26882 0.36462,-0.41271c0.09876,-0.14388 0.14812,-0.28397 0.14812,-0.42029c0,-0.10348 -0.02415,-0.18427 -0.07217,-0.24234c-0.04815,-0.05805 -0.12031,-0.08708 -0.21649,-0.08708c-0.09631,0 -0.17227,0.0366 -0.22789,0.10981c-0.05318,0.07069 -0.07976,0.17164 -0.07976,0.30291h-0.62667c0.00501,-0.21456 0.05059,-0.39378 0.13673,-0.53766c0.08858,-0.14388 0.20374,-0.2499 0.34562,-0.31806c0.14433,-0.06816 0.30384,-0.10223 0.47855,-0.10223c0.30126,0 0.52793,0.07699 0.67986,0.23097c0.15436,0.15398 0.23168,0.35466 0.23168,0.60203c0,0.27009 -0.09251,0.52126 -0.27725,0.7535c-0.18489,0.22971 -0.42036,0.45436 -0.70643,0.67397h1.02547v0.52631h-1.9066z" fill="#000000" stroke="none" stroke-width="1"/><path d="M239.86436,170.6693v9.33071" fill="none" stroke="#252525" stroke-width="1"/><path d="M239.93151,180.20284l14.64953,-0.13522" fill="none" stroke="#252525" stroke-width="1"/><path d="M239.58236,180.4422l-10.1733,15.82162" fill="none" stroke="#db6c6c" stroke-width="1"/></g></g></svg>