<svg version="1.1" xmlns="http://www.w3.org/2000/svg" xmlns:xlink="http://www.w3.org/1999/xlink" width="74.52709" height="18.19585" viewBox="0,0,74.52709,18.19585"><g transform="translate(-202.73645,-170.90207)"><g stroke-miterlimit="10"><path d="M208.86958,171.40207h62.26085c3.11126,0 5.63312,2.52203 5.63312,5.63312v5.9296c0,3.11109 -2.52186,5.63312 -5.63312,5.63312h-62.26085c-3.11109,0 -5.63312,-2.52204 -5.63312,-5.63312v-5.9296c0,-3.11109 2.52204,-5.63312 5.63312,-5.63312z" fill="#a5a7a9" stroke="#000000"/><path d="M215.05415,178.10846c0.4704,0 0.81633,0.12055 1.03768,0.36171c0.22532,0.24116 0.33799,0.55738 0.33799,0.94874c0,0.26879 -0.06327,0.50206 -0.18975,0.69969c-0.12256,0.19763 -0.29055,0.3518 -0.50402,0.46251c-0.21347,0.10673 -0.45462,0.1601 -0.72341,0.1601c-0.12648,0 -0.2609,-0.01382 -0.40321,-0.04151c-0.13834,-0.02769 -0.28266,-0.08106 -0.43286,-0.1601l0.02965,-0.07708c0.0316,0.09885 0.05734,0.22135 0.07708,0.36764c0.02372,0.14231 0.04151,0.29055 0.05337,0.44472c0.01583,0.1502 0.02372,0.28859 0.02372,0.41507c0,0.23321 -0.03955,0.41312 -0.11859,0.53959c-0.07513,0.12256 -0.18779,0.18382 -0.33799,0.18382c-0.12648,0 -0.22728,-0.03955 -0.30241,-0.11859c-0.07116,-0.07904 -0.12055,-0.20949 -0.14824,-0.39135c-0.02769,-0.18186 -0.04151,-0.42497 -0.04151,-0.72934c0,-0.58507 0.02568,-1.08316 0.07708,-1.49426c0.05532,-0.41507 0.14824,-0.7412 0.27869,-0.97838c0.10276,-0.18186 0.2609,-0.32613 0.47437,-0.43286c0.21744,-0.10673 0.48818,-0.1601 0.81236,-0.1601zM214.94149,180.04151c0.23718,0 0.42889,-0.06327 0.57517,-0.18975c0.1502,-0.12648 0.22532,-0.3103 0.22532,-0.55145c0,-0.15814 -0.05337,-0.28859 -0.1601,-0.39135c-0.10276,-0.10673 -0.26488,-0.1601 -0.48623,-0.1601c-0.16206,0 -0.30241,0.03753 -0.421,0.11266c-0.11859,0.07116 -0.20949,0.17196 -0.27276,0.30241c-0.0593,0.12648 -0.08894,0.27276 -0.08894,0.43879c0,0.15417 0.04939,0.26683 0.14824,0.33799c0.10276,0.06718 0.26286,0.1008 0.4803,0.1008zM218.59775,182.41928c-0.43879,0 -0.78864,-0.06523 -1.04954,-0.19568c-0.2609,-0.13045 -0.44869,-0.31824 -0.56331,-0.56331c-0.11462,-0.24507 -0.17196,-0.53764 -0.17196,-0.87758c0,-0.4309 0.07904,-0.79652 0.23718,-1.09698c0.16206,-0.30437 0.38347,-0.53764 0.66412,-0.69969c0.28462,-0.16206 0.60678,-0.24311 0.96653,-0.24311c0.42296,0 0.73331,0.09885 0.93095,0.29648c0.19763,0.19372 0.29648,0.44869 0.29648,0.76492c0,0.25302 -0.06718,0.47241 -0.20161,0.65819c-0.13045,0.18186 -0.31231,0.32216 -0.54552,0.421c-0.23321,0.09885 -0.50206,0.14824 -0.80643,0.14824c-0.17,0 -0.33401,-0.02176 -0.49216,-0.06523c-0.15814,-0.04346 -0.30045,-0.10276 -0.42693,-0.17789l0.14231,-0.2609c-0.01186,0.09487 -0.01779,0.18975 -0.01779,0.28462c0,0.27673 0.08699,0.47633 0.2609,0.59889c0.17392,0.11859 0.421,0.17789 0.7412,0.17789c0.24904,0 0.44869,-0.02176 0.59889,-0.06523c0.1502,-0.04346 0.27673,-0.08497 0.37949,-0.12452c0.10276,-0.04346 0.20356,-0.06523 0.30241,-0.06523c0.05532,0 0.10478,0.01583 0.14824,0.04744c0.04744,0.02769 0.08497,0.0692 0.11266,0.12452c0.0316,0.05532 0.04744,0.12256 0.04744,0.20161c0,0.11859 -0.0593,0.23321 -0.17789,0.34392c-0.11859,0.10673 -0.29452,0.19568 -0.52773,0.26683c-0.2293,0.06718 -0.5119,0.1008 -0.84793,0.1008zM218.25383,180.4803c0.28065,0 0.50597,-0.0593 0.67597,-0.17789c0.17,-0.11859 0.25497,-0.26488 0.25497,-0.43879c0,-0.13834 -0.04744,-0.251 -0.14231,-0.33799c-0.0909,-0.0909 -0.23523,-0.13638 -0.43286,-0.13638c-0.18577,0 -0.35382,0.03558 -0.50402,0.10673c-0.14628,0.06718 -0.2609,0.15613 -0.34392,0.26683c-0.08301,0.11071 -0.12452,0.23125 -0.12452,0.36171c0,0.11462 0.05337,0.20356 0.1601,0.26683c0.11071,0.0593 0.26286,0.08894 0.45658,0.08894zM220.6724,179.69759c0,-0.37949 0.03558,-0.65226 0.10673,-0.81829c0.07116,-0.17 0.17196,-0.25497 0.30241,-0.25497c0.10282,0 0.18382,0.04346 0.24311,0.13045c0.0593,0.08301 0.10282,0.18779 0.13045,0.31427c0.02769,0.12256 0.04151,0.24709 0.04151,0.37357l-0.02965,-0.01186c0.06724,-0.21347 0.17,-0.39728 0.30834,-0.55145c0.14231,-0.15417 0.31231,-0.23125 0.50995,-0.23125c0.23327,0 0.40523,0.09683 0.51588,0.29055c0.11071,0.18975 0.16603,0.42693 0.16603,0.71155c0,0.37949 -0.04346,0.64437 -0.13045,0.79457c-0.08693,0.1502 -0.20356,0.22532 -0.34985,0.22532c-0.10673,0 -0.18577,-0.04346 -0.23718,-0.13045c-0.04744,-0.08699 -0.06321,-0.24116 -0.04744,-0.46251c0.01583,-0.23321 0.00202,-0.39533 -0.04151,-0.48623c-0.04346,-0.0909 -0.11266,-0.13638 -0.20754,-0.13638c-0.11462,0 -0.20949,0.07311 -0.28462,0.2194c-0.07116,0.14231 -0.10673,0.31824 -0.10673,0.52773c0,0.08301 0.0099,0.18779 0.02965,0.31427c0.0198,0.12648 0.04151,0.26488 0.06523,0.41507c0.02372,0.14628 0.04548,0.29251 0.06523,0.43879c0.0198,0.14628 0.02965,0.28065 0.02965,0.40321c0,0.21744 -0.03356,0.37357 -0.1008,0.46844c-0.06718,0.09487 -0.16206,0.14231 -0.28462,0.14231c-0.13834,0 -0.24507,-0.04346 -0.3202,-0.13045c-0.07507,-0.0909 -0.13241,-0.23718 -0.17196,-0.43879c-0.0316,-0.18186 -0.06321,-0.39728 -0.09487,-0.64633c-0.0316,-0.24904 -0.05728,-0.50402 -0.07708,-0.76492c-0.01975,-0.2609 -0.02965,-0.49613 -0.02965,-0.70562zM223.94311,182.43114c-0.08699,0 -0.15814,-0.02965 -0.21347,-0.08894c-0.05141,-0.0593 -0.09292,-0.14427 -0.12452,-0.25497c-0.03166,-0.16206 -0.0593,-0.37357 -0.08301,-0.63447c-0.0198,-0.26488 -0.02965,-0.54748 -0.02965,-0.84793c0,-0.17 0.00391,-0.36171 0.01186,-0.57517c0.00789,-0.21347 0.01779,-0.42889 0.02965,-0.64633c0.01577,-0.22135 0.0316,-0.42693 0.04744,-0.61668c0.01975,-0.18975 0.03949,-0.34392 0.0593,-0.46251c0.0316,-0.17392 0.07708,-0.3103 0.13638,-0.40914c0.06321,-0.10276 0.16206,-0.15417 0.29648,-0.15417c0.13834,0 0.23914,0.05337 0.30241,0.1601c0.06321,0.10276 0.09487,0.23125 0.09487,0.38542c0,0.17392 -0.01388,0.37949 -0.04151,0.61668c-0.02372,0.23718 -0.06131,0.47834 -0.11266,0.72341l-0.11859,0.14231c0.04346,-0.16603 0.11462,-0.31824 0.21347,-0.45658c0.09879,-0.13834 0.22331,-0.24709 0.37357,-0.32613c0.1502,-0.08301 0.32411,-0.12452 0.52181,-0.12452c0.38738,0 0.69572,0.13834 0.92502,0.41507c0.23321,0.27276 0.34985,0.69969 0.34985,1.28079c0,0.40719 -0.06131,0.74713 -0.18382,1.01989c-0.11859,0.27276 -0.28266,0.47834 -0.49216,0.61668c-0.20558,0.13442 -0.44081,0.20161 -0.70562,0.20161c-0.24904,0 -0.46453,-0.07311 -0.64633,-0.2194c-0.17789,-0.14628 -0.29257,-0.35773 -0.34392,-0.63447l0.08301,0.06523c-0.01583,0.28462 -0.05538,0.49411 -0.11859,0.62854c-0.0593,0.13045 -0.13638,0.19568 -0.23125,0.19568zM225.02822,181.70773c0.19763,0 0.37155,-0.08894 0.52181,-0.26683c0.1502,-0.17789 0.22532,-0.45658 0.22532,-0.83607c0,-0.31623 -0.0593,-0.57321 -0.17789,-0.77085c-0.11468,-0.19763 -0.30834,-0.29648 -0.5811,-0.29648c-0.22141,0 -0.3993,0.08894 -0.53366,0.26683c-0.13442,0.17392 -0.20161,0.43879 -0.20161,0.79457c0,0.32417 0.06718,0.591 0.20161,0.8005c0.13436,0.20558 0.31623,0.30834 0.54552,0.30834zM229.77232,182.43114c-0.13442,0 -0.22728,-0.05141 -0.27869,-0.15417c-0.04744,-0.10673 -0.07513,-0.27472 -0.08301,-0.50402l0.0593,0.02965c-0.22135,0.4309 -0.6404,0.64633 -1.25708,0.64633c-0.28065,0 -0.51392,-0.04939 -0.69969,-0.14824c-0.18577,-0.10276 -0.32417,-0.23718 -0.41507,-0.40321c-0.08699,-0.17 -0.13045,-0.35382 -0.13045,-0.55145c0,-0.33994 0.11859,-0.60879 0.35578,-0.80643c0.23718,-0.20161 0.55145,-0.30241 0.94281,-0.30241c0.25693,0 0.4803,0.03753 0.67005,0.11266c0.18975,0.07513 0.3518,0.17984 0.48623,0.31427l-0.1008,-0.01186c-0.02769,-0.39924 -0.11462,-0.68386 -0.2609,-0.85386c-0.14231,-0.17392 -0.34587,-0.2609 -0.61075,-0.2609c-0.15417,0 -0.29648,0.02372 -0.42693,0.07116c-0.13045,0.04744 -0.251,0.09683 -0.36171,0.14824c-0.10673,0.04744 -0.20754,0.07116 -0.30241,0.07116c-0.09487,0 -0.17,-0.0316 -0.22532,-0.09487c-0.05141,-0.06327 -0.07708,-0.14427 -0.07708,-0.24311c0,-0.14231 0.06718,-0.27673 0.20161,-0.40321c0.13834,-0.12648 0.3202,-0.2293 0.54552,-0.30834c0.22532,-0.07904 0.4704,-0.11859 0.73527,-0.11859c0.3202,0 0.59492,0.07708 0.82422,0.23125c0.2293,0.15417 0.40321,0.37949 0.52181,0.67597c0.10276,0.25302 0.17593,0.53562 0.2194,0.84793c0.04346,0.31231 0.06523,0.64633 0.06523,1.0021c0,0.26879 -0.01382,0.47633 -0.04151,0.62261c-0.02769,0.14628 -0.07116,0.24904 -0.13045,0.30834c-0.05532,0.05532 -0.13045,0.08301 -0.22532,0.08301zM228.46188,181.76702c0.13045,0 0.26286,-0.01779 0.39728,-0.05337c0.13442,-0.03955 0.24709,-0.09683 0.33799,-0.17196c0.0909,-0.07513 0.13638,-0.16799 0.13638,-0.27869c0,-0.09487 -0.03955,-0.17196 -0.11859,-0.23125c-0.07513,-0.06327 -0.17593,-0.11071 -0.30241,-0.14231c-0.12256,-0.0316 -0.25497,-0.04744 -0.39728,-0.04744c-0.24116,0 -0.42497,0.04151 -0.55145,0.12452c-0.12256,0.08301 -0.18382,0.19372 -0.18382,0.33206c0,0.1502 0.05734,0.26683 0.17196,0.34985c0.11859,0.07904 0.28859,0.11859 0.50995,0.11859zM231.4147,177.82384c0.15808,0 0.27075,0.04346 0.33799,0.13045c0.07116,0.08699 0.10673,0.18779 0.10673,0.30241c0,0.14231 -0.04352,0.25302 -0.13045,0.33206c-0.08301,0.07513 -0.20161,0.11266 -0.35578,0.11266c-0.15026,0 -0.26292,-0.04151 -0.33799,-0.12452c-0.07513,-0.08699 -0.11272,-0.18779 -0.11272,-0.30241c0,-0.1502 0.04548,-0.26286 0.13644,-0.33799c0.0909,-0.07513 0.20949,-0.11266 0.35578,-0.11266zM231.45028,179.14614c0.12648,0 0.22532,0.11859 0.29648,0.35578c0.07507,0.23718 0.11266,0.61472 0.11266,1.13255c0,0.63642 -0.04548,1.09502 -0.13638,1.37567c-0.09096,0.28065 -0.2293,0.421 -0.41507,0.421c-0.14231,0 -0.24709,-0.10276 -0.31427,-0.30834c-0.06724,-0.20949 -0.1008,-0.57321 -0.1008,-1.09105c0,-0.63642 0.05135,-1.10884 0.15417,-1.41718c0.10673,-0.31231 0.2411,-0.46844 0.40321,-0.46844zM232.98694,182.43114c-0.07513,0 -0.13638,-0.02176 -0.18382,-0.06523c-0.04744,-0.04744 -0.08106,-0.11462 -0.1008,-0.20161c-0.0316,-0.14628 -0.0593,-0.35773 -0.08301,-0.63447c-0.02372,-0.27673 -0.03558,-0.58306 -0.03558,-0.91909c0,-0.41507 0.01382,-0.81431 0.04151,-1.19778c0.0316,-0.38347 0.07116,-0.69774 0.11859,-0.94281c0.05141,-0.26488 0.11462,-0.45854 0.18975,-0.5811c0.07513,-0.12648 0.17392,-0.18975 0.29648,-0.18975c0.11071,0 0.19568,0.05141 0.25497,0.15417c0.0593,0.09885 0.08894,0.27081 0.08894,0.51588c0,0.24507 -0.0099,0.50799 -0.02965,0.78864c-0.01583,0.28065 -0.04346,0.5811 -0.08301,0.9013h0.02372c0.25693,-0.34789 0.49613,-0.62658 0.71748,-0.83607c0.22532,-0.20949 0.4309,-0.36171 0.61668,-0.45658c0.18975,-0.09487 0.35773,-0.14231 0.50402,-0.14231c0.11462,0 0.19965,0.03558 0.25497,0.10673c0.05532,0.07116 0.08301,0.15814 0.08301,0.2609c0,0.20161 -0.16206,0.42693 -0.48623,0.67597c-0.3202,0.24904 -0.78271,0.50402 -1.38753,0.76492l0.00593,-0.09487c0.37552,0.19372 0.69774,0.39728 0.96653,0.61075c0.27276,0.20949 0.4803,0.40914 0.62261,0.59889c0.14628,0.18577 0.2194,0.34196 0.2194,0.46844c0,0.10276 -0.03362,0.18779 -0.1008,0.25497c-0.06327,0.06327 -0.15613,0.09487 -0.27869,0.09487c-0.15417,0 -0.32613,-0.05734 -0.51588,-0.17196c-0.18577,-0.11859 -0.37949,-0.29452 -0.5811,-0.52773c-0.20161,-0.23321 -0.40321,-0.52578 -0.60482,-0.87758h-0.02372c-0.00397,0.24904 -0.01975,0.49216 -0.04744,0.72934c-0.02372,0.23321 -0.05532,0.42497 -0.09487,0.57517c-0.02769,0.10276 -0.07116,0.18577 -0.13045,0.24904c-0.05532,0.0593 -0.13442,0.08894 -0.23718,0.08894zM236.66098,177.82384c0.15814,0 0.27081,0.04346 0.33799,0.13045c0.07116,0.08699 0.10673,0.18779 0.10673,0.30241c0,0.14231 -0.04346,0.25302 -0.13045,0.33206c-0.08301,0.07513 -0.20161,0.11266 -0.35578,0.11266c-0.1502,0 -0.26286,-0.04151 -0.33799,-0.12452c-0.07513,-0.08699 -0.11266,-0.18779 -0.11266,-0.30241c0,-0.1502 0.04548,-0.26286 0.13638,-0.33799c0.0909,-0.07513 0.20949,-0.11266 0.35578,-0.11266zM236.69656,179.14614c0.12648,0 0.22532,0.11859 0.29648,0.35578c0.07513,0.23718 0.11266,0.61472 0.11266,1.13255c0,0.63642 -0.04548,1.09502 -0.13638,1.37567c-0.0909,0.28065 -0.2293,0.421 -0.41507,0.421c-0.14231,0 -0.24709,-0.10276 -0.31427,-0.30834c-0.06718,-0.20949 -0.1008,-0.57321 -0.1008,-1.09105c0,-0.63642 0.05141,-1.10884 0.15417,-1.41718c0.10673,-0.31231 0.24116,-0.46844 0.40321,-0.46844zM240.70705,178.84966c-0.18577,0.05532 -0.35773,0.09885 -0.51588,0.13045c-0.15808,0.02769 -0.30632,0.04151 -0.44472,0.04151c-0.12648,0 -0.22532,-0.02568 -0.29648,-0.07708c-0.07116,-0.05141 -0.10673,-0.12849 -0.10673,-0.23125c0,-0.08699 0.02965,-0.17 0.08894,-0.24904c0.0593,-0.07904 0.15026,-0.1502 0.27276,-0.21347c0.14628,-0.07116 0.33206,-0.13045 0.55738,-0.17789c0.22532,-0.04744 0.48824,-0.07116 0.78864,-0.07116c0.20161,0 0.37754,0.01382 0.52773,0.04151c0.15026,0.02372 0.26885,0.05337 0.35578,0.08894c0.11468,0.04744 0.19372,0.10276 0.23718,0.16603c0.04744,0.0593 0.07116,0.12849 0.07116,0.20754c0,0.09885 -0.03558,0.17984 -0.10673,0.24311c-0.07116,0.06327 -0.18577,0.09487 -0.34392,0.09487c-0.09487,0 -0.19366,-0.00593 -0.29648,-0.01779c-0.09879,-0.01186 -0.20356,-0.02769 -0.31427,-0.04744zM241.11619,178.52946c0.20161,0.25302 0.35779,0.54748 0.46844,0.88351c0.11468,0.33206 0.17196,0.67995 0.17196,1.04361c0,0.37949 -0.05337,0.71944 -0.1601,1.01989c-0.10276,0.29648 -0.26879,0.53171 -0.49809,0.70562c-0.22924,0.17 -0.53366,0.25497 -0.91316,0.25497c-0.46642,0 -0.81627,-0.13045 -1.04954,-0.39135c-0.23321,-0.2609 -0.34985,-0.61864 -0.34985,-1.07326c0,-0.22135 0.02769,-0.40914 0.08301,-0.56331c0.0593,-0.15417 0.13638,-0.27081 0.23125,-0.34985c0.09487,-0.08301 0.19769,-0.12452 0.30834,-0.12452c0.10282,0 0.1799,0.0316 0.23125,0.09487c0.05538,0.0593 0.08301,0.14427 0.08301,0.25497c0,0.0909 -0.01577,0.1917 -0.04744,0.30241c-0.02763,0.10673 -0.04151,0.21151 -0.04151,0.31427c0,0.26488 0.04548,0.45854 0.13638,0.5811c0.09487,0.11859 0.24513,0.17789 0.45065,0.17789c0.27276,0 0.46453,-0.11071 0.57517,-0.33206c0.11468,-0.22532 0.17196,-0.53171 0.17196,-0.91909c0,-0.28065 -0.02965,-0.55543 -0.08894,-0.82422c-0.0593,-0.26879 -0.15417,-0.54357 -0.28462,-0.82422zM245.32597,182.43114c-0.13442,0 -0.22734,-0.05141 -0.27869,-0.15417c-0.04744,-0.10673 -0.07513,-0.27472 -0.08301,-0.50402l0.0593,0.02965c-0.22141,0.4309 -0.6404,0.64633 -1.25708,0.64633c-0.28071,0 -0.51392,-0.04939 -0.69969,-0.14824c-0.18583,-0.10276 -0.32417,-0.23718 -0.41507,-0.40321c-0.08699,-0.17 -0.13045,-0.35382 -0.13045,-0.55145c0,-0.33994 0.11859,-0.60879 0.35578,-0.80643c0.23718,-0.20161 0.55145,-0.30241 0.94281,-0.30241c0.25693,0 0.4803,0.03753 0.67005,0.11266c0.18975,0.07513 0.3518,0.17984 0.48623,0.31427l-0.1008,-0.01186c-0.02769,-0.39924 -0.11468,-0.68386 -0.2609,-0.85386c-0.14231,-0.17392 -0.34593,-0.2609 -0.61075,-0.2609c-0.15417,0 -0.29648,0.02372 -0.42693,0.07116c-0.13045,0.04744 -0.25106,0.09683 -0.36171,0.14824c-0.10673,0.04744 -0.20754,0.07116 -0.30241,0.07116c-0.09487,0 -0.17,-0.0316 -0.22532,-0.09487c-0.05141,-0.06327 -0.07708,-0.14427 -0.07708,-0.24311c0,-0.14231 0.06718,-0.27673 0.20161,-0.40321c0.13834,-0.12648 0.3202,-0.2293 0.54552,-0.30834c0.22532,-0.07904 0.4704,-0.11859 0.73527,-0.11859c0.3202,0 0.59492,0.07708 0.82422,0.23125c0.22924,0.15417 0.40321,0.37949 0.52181,0.67597c0.10276,0.25302 0.17587,0.53562 0.2194,0.84793c0.04346,0.31231 0.06523,0.64633 0.06523,1.0021c0,0.26879 -0.01388,0.47633 -0.04151,0.62261c-0.02769,0.14628 -0.07116,0.24904 -0.13045,0.30834c-0.05538,0.05532 -0.13045,0.08301 -0.22532,0.08301zM244.01553,181.76702c0.13045,0 0.26286,-0.01779 0.39728,-0.05337c0.13436,-0.03955 0.24703,-0.09683 0.33799,-0.17196c0.0909,-0.07513 0.13638,-0.16799 0.13638,-0.27869c0,-0.09487 -0.03955,-0.17196 -0.11859,-0.23125c-0.07513,-0.06327 -0.17593,-0.11071 -0.30241,-0.14231c-0.12256,-0.0316 -0.25497,-0.04744 -0.39728,-0.04744c-0.24116,0 -0.42497,0.04151 -0.55145,0.12452c-0.12256,0.08301 -0.18382,0.19372 -0.18382,0.33206c0,0.1502 0.05728,0.26683 0.17196,0.34985c0.11859,0.07904 0.28853,0.11859 0.50995,0.11859zM246.23302,179.96442c0,-0.4111 0.04744,-0.70758 0.14231,-0.88944c0.09885,-0.18186 0.22734,-0.27276 0.38542,-0.27276c0.09096,0 0.1601,0.03362 0.20754,0.1008c0.05141,0.06327 0.08699,0.1502 0.10673,0.2609c0.0198,0.10673 0.02965,0.22728 0.02965,0.36171c0,0.17 0,0.36959 0,0.59889c0.00397,0.22532 0.00795,0.45854 0.01186,0.69969c0.00795,0.23718 0.01583,0.45854 0.02372,0.66412h0.02372c0.12256,-0.51783 0.24513,-0.94281 0.36764,-1.27486c0.12654,-0.33206 0.25497,-0.57713 0.38542,-0.73527c0.13442,-0.16206 0.26885,-0.24311 0.40321,-0.24311c0.14628,0 0.28462,0.08106 0.41507,0.24311c0.13442,0.15814 0.26488,0.39924 0.39135,0.72341c0.13045,0.32417 0.26292,0.73331 0.39728,1.22743h0.02372c0.01186,-0.33994 0.0198,-0.69774 0.02372,-1.07326c0.00397,-0.37552 0.00593,-0.71944 0.00593,-1.03175c0,-0.22532 0.03759,-0.39135 0.11266,-0.49809c0.07513,-0.10673 0.1799,-0.1601 0.31427,-0.1601c0.17,0 0.29257,0.08894 0.36764,0.26683c0.0791,0.17392 0.11859,0.40914 0.11859,0.70562c0,0.21744 -0.01186,0.45065 -0.03558,0.69969c-0.01975,0.24507 -0.04939,0.48225 -0.08894,0.71155c-0.03949,0.2293 -0.08693,0.42889 -0.14231,0.59889c-0.08301,0.25302 -0.17587,0.44472 -0.27869,0.57517c-0.09879,0.13045 -0.22924,0.19568 -0.39135,0.19568c-0.14622,0 -0.29251,-0.08497 -0.43879,-0.25497c-0.14231,-0.17392 -0.27668,-0.43286 -0.40321,-0.77678c-0.12648,-0.34392 -0.24311,-0.77281 -0.34985,-1.28672h-0.02372c-0.10276,0.4902 -0.22532,0.9013 -0.36764,1.23336c-0.13834,0.32809 -0.28658,0.57517 -0.44472,0.7412c-0.15417,0.16603 -0.30834,0.24904 -0.46251,0.24904c-0.16206,0 -0.29844,-0.07311 -0.40914,-0.2194c-0.10673,-0.14628 -0.19568,-0.37161 -0.26683,-0.67597c-0.0316,-0.15417 -0.0593,-0.31824 -0.08301,-0.49216c-0.02372,-0.17789 -0.04151,-0.3518 -0.05337,-0.52181c-0.01186,-0.17 -0.01779,-0.3202 -0.01779,-0.45065zM253.58917,182.43114c-0.13442,0 -0.22728,-0.05141 -0.27869,-0.15417c-0.04744,-0.10673 -0.07513,-0.27472 -0.08301,-0.50402l0.0593,0.02965c-0.22135,0.4309 -0.6404,0.64633 -1.25708,0.64633c-0.28065,0 -0.51392,-0.04939 -0.69969,-0.14824c-0.18577,-0.10276 -0.32417,-0.23718 -0.41507,-0.40321c-0.08699,-0.17 -0.13045,-0.35382 -0.13045,-0.55145c0,-0.33994 0.11859,-0.60879 0.35578,-0.80643c0.23718,-0.20161 0.55145,-0.30241 0.94281,-0.30241c0.25693,0 0.4803,0.03753 0.67005,0.11266c0.18975,0.07513 0.3518,0.17984 0.48623,0.31427l-0.1008,-0.01186c-0.02769,-0.39924 -0.11462,-0.68386 -0.2609,-0.85386c-0.14231,-0.17392 -0.34587,-0.2609 -0.61075,-0.2609c-0.15417,0 -0.29648,0.02372 -0.42693,0.07116c-0.13045,0.04744 -0.251,0.09683 -0.36171,0.14824c-0.10673,0.04744 -0.20754,0.07116 -0.30241,0.07116c-0.09487,0 -0.17,-0.0316 -0.22532,-0.09487c-0.05141,-0.06327 -0.07708,-0.14427 -0.07708,-0.24311c0,-0.14231 0.06718,-0.27673 0.20161,-0.40321c0.13834,-0.12648 0.3202,-0.2293 0.54552,-0.30834c0.22532,-0.07904 0.4704,-0.11859 0.73527,-0.11859c0.3202,0 0.59492,0.07708 0.82422,0.23125c0.2293,0.15417 0.40321,0.37949 0.52181,0.67597c0.10276,0.25302 0.17593,0.53562 0.2194,0.84793c0.04346,0.31231 0.06523,0.64633 0.06523,1.0021c0,0.26879 -0.01382,0.47633 -0.04151,0.62261c-0.02769,0.14628 -0.07116,0.24904 -0.13045,0.30834c-0.05532,0.05532 -0.13045,0.08301 -0.22532,0.08301zM252.27873,181.76702c0.13045,0 0.26286,-0.01779 0.39728,-0.05337c0.13442,-0.03955 0.24709,-0.09683 0.33799,-0.17196c0.0909,-0.07513 0.13638,-0.16799 0.13638,-0.27869c0,-0.09487 -0.03955,-0.17196 -0.11859,-0.23125c-0.07513,-0.06327 -0.17593,-0.11071 -0.30241,-0.14231c-0.12256,-0.0316 -0.25497,-0.04744 -0.39728,-0.04744c-0.24116,0 -0.42497,0.04151 -0.55145,0.12452c-0.12256,0.08301 -0.18382,0.19372 -0.18382,0.33206c0,0.1502 0.05734,0.26683 0.17196,0.34985c0.11859,0.07904 0.28859,0.11859 0.50995,0.11859zM255.1604,182.43114c-0.08699,0 -0.15814,-0.02965 -0.21347,-0.08894c-0.05141,-0.0593 -0.09292,-0.14427 -0.12452,-0.25497c-0.03166,-0.16206 -0.0593,-0.37357 -0.08301,-0.63447c-0.0198,-0.26488 -0.02965,-0.54748 -0.02965,-0.84793c0,-0.17 0.00391,-0.36171 0.01186,-0.57517c0.00789,-0.21347 0.01779,-0.42889 0.02965,-0.64633c0.01577,-0.22135 0.0316,-0.42693 0.04744,-0.61668c0.01975,-0.18975 0.03949,-0.34392 0.0593,-0.46251c0.0316,-0.17392 0.07708,-0.3103 0.13638,-0.40914c0.06321,-0.10276 0.16206,-0.15417 0.29648,-0.15417c0.13834,0 0.23914,0.05337 0.30241,0.1601c0.06321,0.10276 0.09487,0.23125 0.09487,0.38542c0,0.17392 -0.01388,0.37949 -0.04151,0.61668c-0.02372,0.23718 -0.06131,0.47834 -0.11266,0.72341l-0.11859,0.14231c0.04346,-0.16603 0.11462,-0.31824 0.21347,-0.45658c0.09879,-0.13834 0.22331,-0.24709 0.37357,-0.32613c0.1502,-0.08301 0.32411,-0.12452 0.52181,-0.12452c0.38738,0 0.69572,0.13834 0.92502,0.41507c0.23321,0.27276 0.34985,0.69969 0.34985,1.28079c0,0.40719 -0.06131,0.74713 -0.18382,1.01989c-0.11859,0.27276 -0.28266,0.47834 -0.49216,0.61668c-0.20558,0.13442 -0.44081,0.20161 -0.70562,0.20161c-0.24904,0 -0.46453,-0.07311 -0.64633,-0.2194c-0.17789,-0.14628 -0.29257,-0.35773 -0.34392,-0.63447l0.08301,0.06523c-0.01583,0.28462 -0.05538,0.49411 -0.11859,0.62854c-0.0593,0.13045 -0.13638,0.19568 -0.23125,0.19568zM256.24551,181.70773c0.19763,0 0.37155,-0.08894 0.52181,-0.26683c0.1502,-0.17789 0.22532,-0.45658 0.22532,-0.83607c0,-0.31623 -0.0593,-0.57321 -0.17789,-0.77085c-0.11468,-0.19763 -0.30834,-0.29648 -0.5811,-0.29648c-0.22141,0 -0.3993,0.08894 -0.53366,0.26683c-0.13442,0.17392 -0.20161,0.43879 -0.20161,0.79457c0,0.32417 0.06718,0.591 0.20161,0.8005c0.13436,0.20558 0.31623,0.30834 0.54552,0.30834zM260.98961,182.43114c-0.13442,0 -0.22734,-0.05141 -0.27869,-0.15417c-0.04744,-0.10673 -0.07513,-0.27472 -0.08301,-0.50402l0.0593,0.02965c-0.22141,0.4309 -0.6404,0.64633 -1.25708,0.64633c-0.28071,0 -0.51392,-0.04939 -0.69969,-0.14824c-0.18583,-0.10276 -0.32417,-0.23718 -0.41507,-0.40321c-0.08699,-0.17 -0.13045,-0.35382 -0.13045,-0.55145c0,-0.33994 0.11859,-0.60879 0.35578,-0.80643c0.23718,-0.20161 0.55145,-0.30241 0.94281,-0.30241c0.25693,0 0.4803,0.03753 0.67005,0.11266c0.18975,0.07513 0.3518,0.17984 0.48623,0.31427l-0.1008,-0.01186c-0.02769,-0.39924 -0.11468,-0.68386 -0.2609,-0.85386c-0.14231,-0.17392 -0.34593,-0.2609 -0.61075,-0.2609c-0.15417,0 -0.29648,0.02372 -0.42693,0.07116c-0.13045,0.04744 -0.25106,0.09683 -0.36171,0.14824c-0.10673,0.04744 -0.20754,0.07116 -0.30241,0.07116c-0.09487,0 -0.17,-0.0316 -0.22532,-0.09487c-0.05141,-0.06327 -0.07708,-0.14427 -0.07708,-0.24311c0,-0.14231 0.06718,-0.27673 0.20161,-0.40321c0.13834,-0.12648 0.3202,-0.2293 0.54552,-0.30834c0.22532,-0.07904 0.4704,-0.11859 0.73527,-0.11859c0.3202,0 0.59492,0.07708 0.82422,0.23125c0.22924,0.15417 0.40321,0.37949 0.52181,0.67597c0.10276,0.25302 0.17587,0.53562 0.2194,0.84793c0.04346,0.31231 0.06523,0.64633 0.06523,1.0021c0,0.26879 -0.01388,0.47633 -0.04151,0.62261c-0.02769,0.14628 -0.07116,0.24904 -0.13045,0.30834c-0.05538,0.05532 -0.13045,0.08301 -0.22532,0.08301zM259.67917,181.76702c0.13045,0 0.26286,-0.01779 0.39728,-0.05337c0.13436,-0.03955 0.24703,-0.09683 0.33799,-0.17196c0.0909,-0.07513 0.13638,-0.16799 0.13638,-0.27869c0,-0.09487 -0.03955,-0.17196 -0.11859,-0.23125c-0.07513,-0.06327 -0.17593,-0.11071 -0.30241,-0.14231c-0.12256,-0.0316 -0.25497,-0.04744 -0.39728,-0.04744c-0.24116,0 -0.42497,0.04151 -0.55145,0.12452c-0.12256,0.08301 -0.18382,0.19372 -0.18382,0.33206c0,0.1502 0.05728,0.26683 0.17196,0.34985c0.11859,0.07904 0.28853,0.11859 0.50995,0.11859zM262.71513,178.68363c0.1263,0 0.21109,0.05141 0.25497,0.15417c0.04744,0.10276 0.07116,0.25497 0.07116,0.45658c0,0.04744 -0.00415,0.09885 -0.01186,0.15417c-0.00415,0.05141 -0.01186,0.09885 -0.02372,0.14231l-0.01186,-0.11859c0.09487,-0.25693 0.24074,-0.45658 0.43879,-0.59889c0.19746,-0.14628 0.40677,-0.2194 0.62854,-0.2194c0.24489,0 0.44828,0.0692 0.61075,0.20754c0.16603,0.13834 0.28818,0.33206 0.36764,0.5811c0.08301,0.24904 0.12452,0.54357 0.12452,0.88351c0,0.20949 -0.01008,0.41703 -0.02965,0.62261c-0.01601,0.20161 -0.03973,0.38738 -0.07116,0.55738c-0.02787,0.16603 -0.0593,0.30241 -0.09487,0.40914c-0.04744,0.13442 -0.1091,0.23523 -0.18382,0.30241c-0.07531,0.06327 -0.16425,0.09487 -0.26683,0.09487c-0.10318,0 -0.18204,-0.03753 -0.23718,-0.11266c-0.05574,-0.07513 -0.08301,-0.17593 -0.08301,-0.30241c0,-0.13442 0.00949,-0.29648 0.02965,-0.48623c0.01957,-0.19372 0.03736,-0.3894 0.05337,-0.58703c0.01957,-0.20161 0.02965,-0.38347 0.02965,-0.54552c0,-0.55341 -0.18204,-0.83014 -0.54552,-0.83014c-0.1939,0 -0.35578,0.08699 -0.48623,0.2609c-0.13045,0.17 -0.21762,0.41312 -0.2609,0.72934c-0.01186,0.10673 -0.01779,0.23914 -0.01779,0.39728c0,0.15814 0,0.31623 0,0.47437c0.00356,0.15417 0,0.28462 -0.01186,0.39135c-0.01601,0.23718 -0.06167,0.40719 -0.13638,0.50995c-0.07116,0.10276 -0.17018,0.15417 -0.29648,0.15417c-0.14646,0 -0.25734,-0.06718 -0.33224,-0.20161c-0.07507,-0.13834 -0.11266,-0.36959 -0.11266,-0.69376c0,-0.16603 0.00397,-0.3518 0.01186,-0.55738c0.00795,-0.20558 0.01779,-0.4111 0.02965,-0.61668c0.01583,-0.20949 0.03362,-0.39924 0.05337,-0.56924c0.03931,-0.3202 0.09683,-0.57321 0.17214,-0.75899c0.07471,-0.18975 0.18738,-0.28462 0.33799,-0.28462z" fill="#000000" stroke="none"/></g></g></svg>