<svg version="1.1" xmlns="http://www.w3.org/2000/svg" xmlns:xlink="http://www.w3.org/1999/xlink" width="79.42857" height="26.55538" viewBox="0,0,79.42857,26.55538"><g transform="translate(-199.85714,-165.57143)"><g stroke-miterlimit="10"><path d="M208.72873,166.07143h61.68539c4.6235,0 8.37159,3.74808 8.37159,8.37159v8.8122c0,4.6235 -3.74809,8.37159 -8.37159,8.37159h-61.68539c-4.62351,0 -8.37159,-3.74809 -8.37159,-8.37159v-8.8122c0,-4.62351 3.74808,-8.37159 8.37159,-8.37159z" fill="#a5a7a9" stroke="#000000"/><path d="M228.29358,176.31473c0.43294,0 0.73996,0.06785 0.92087,0.20356c0.18744,0.12927 0.28111,0.30693 0.28111,0.53314c0,0.26498 -0.12601,0.45885 -0.37804,0.58161c-0.2456,0.12275 -0.62681,0.18417 -1.14382,0.18417c-0.21326,0 -0.45559,-0.00326 -0.72701,-0.00969c-0.27142,-0.01295 -0.54926,-0.02908 -0.83363,-0.04847l0.09693,-0.18417c0.04521,0.22621 0.06459,0.50406 0.05816,0.83363c-0.00643,0.32314 -0.03877,0.63333 -0.09693,0.93057l-0.09693,-0.1454c0.74965,0.05173 1.34095,0.13897 1.7739,0.26172c0.43294,0.12275 0.73996,0.26816 0.92087,0.4362c0.18744,0.16805 0.28111,0.3554 0.28111,0.56222c0,0.16153 -0.0549,0.29724 -0.16479,0.40712c-0.10989,0.10337 -0.27785,0.15509 -0.50406,0.15509c-0.32314,0 -0.69793,-0.07755 -1.12444,-0.23264c-0.42008,-0.16153 -0.85628,-0.391 -1.30861,-0.68823l0.21326,-0.01939c0.05816,0.16805 0.11306,0.39417 0.16479,0.67854c0.05816,0.27785 0.10337,0.57517 0.13571,0.89179c0.03877,0.31019 0.05816,0.59773 0.05816,0.86271c0,0.34253 -0.06459,0.59456 -0.19387,0.75609c-0.12275,0.16153 -0.29406,0.24234 -0.51375,0.24234c-0.15509,0 -0.28437,-0.04203 -0.38774,-0.12601c-0.10337,-0.07755 -0.18417,-0.19713 -0.24234,-0.35866c-0.07111,-0.21969 -0.13245,-0.55252 -0.18417,-0.99842c-0.04521,-0.4459 -0.06785,-0.9823 -0.06785,-1.60911c0,-0.92414 0.05173,-1.65757 0.15509,-2.20041c0.10337,-0.54926 0.2359,-0.937 0.39743,-1.16321c0.13571,-0.18091 0.33601,-0.32314 0.60099,-0.42651c0.26498,-0.10989 0.56548,-0.18744 0.90149,-0.23264c0.33601,-0.05173 0.67211,-0.07755 1.00812,-0.07755zM231.15622,175.82036c0.25855,0 0.44272,0.07111 0.55252,0.21326c0.11632,0.14214 0.17448,0.30693 0.17448,0.49436c0,0.23264 -0.07103,0.41356 -0.21326,0.54283c-0.13571,0.12275 -0.32958,0.18417 -0.58161,0.18417c-0.24551,0 -0.42968,-0.06785 -0.55252,-0.20356c-0.12275,-0.14214 -0.18417,-0.30693 -0.18417,-0.49436c0,-0.2456 0.07437,-0.42977 0.22295,-0.55252c0.14866,-0.12275 0.34253,-0.18417 0.58161,-0.18417zM231.21438,177.982c0.20682,0 0.36835,0.19387 0.48467,0.58161c0.12284,0.38774 0.18417,1.00486 0.18417,1.85144c0,1.04046 -0.07429,1.79002 -0.22295,2.24887c-0.14857,0.45885 -0.37478,0.68823 -0.67854,0.68823c-0.23264,0 -0.40386,-0.16805 -0.51375,-0.50406c-0.1098,-0.34253 -0.16479,-0.937 -0.16479,-1.78359c0,-1.04046 0.08407,-1.81267 0.25203,-2.31673c0.17448,-0.51049 0.39426,-0.76578 0.65915,-0.76578zM234.05605,177.22591c0.20682,0 0.34579,0.08398 0.41682,0.25203c0.07755,0.16805 0.11632,0.41682 0.11632,0.74639c0,0.07755 -0.00643,0.16153 -0.01939,0.25203c-0.00643,0.08398 -0.01939,0.16153 -0.03877,0.23264l-0.01939,-0.19387c0.15509,-0.42008 0.39426,-0.74639 0.71731,-0.97904c0.32314,-0.23907 0.66567,-0.35866 1.0275,-0.35866c0.40069,0 0.73353,0.11306 0.99842,0.33927c0.27142,0.22621 0.47181,0.54283 0.60099,0.94996c0.13571,0.40712 0.20356,0.88853 0.20356,1.44432c0,0.34253 -0.01613,0.6818 -0.04847,1.01781c-0.02582,0.32958 -0.06459,0.63333 -0.11632,0.91118c-0.04521,0.27142 -0.09693,0.49436 -0.15509,0.66885c-0.07755,0.21969 -0.17765,0.38448 -0.3005,0.49436c-0.12275,0.10337 -0.26816,0.15509 -0.4362,0.15509c-0.16796,0 -0.29724,-0.06142 -0.38774,-0.18417c-0.09041,-0.12275 -0.13571,-0.28754 -0.13571,-0.49436c0,-0.21969 0.01621,-0.48467 0.04847,-0.79486c0.03234,-0.31662 0.06142,-0.63651 0.08724,-0.95965c0.03234,-0.32958 0.04847,-0.62681 0.04847,-0.89179c0,-0.90475 -0.29724,-1.35708 -0.89179,-1.35708c-0.31662,0 -0.58161,0.14214 -0.79486,0.42651c-0.21326,0.27785 -0.3554,0.67528 -0.42651,1.19229c-0.01939,0.17448 -0.02908,0.391 -0.02908,0.64946c0,0.25846 0,0.51701 0,0.77547c0.00652,0.25203 0,0.46528 -0.01939,0.63977c-0.02582,0.38774 -0.10011,0.66559 -0.22295,0.83363c-0.11632,0.16805 -0.27785,0.25203 -0.48467,0.25203c-0.23907,0 -0.41999,-0.10989 -0.54283,-0.32958c-0.12275,-0.22621 -0.18417,-0.60425 -0.18417,-1.13413c0,-0.27142 0.00652,-0.57517 0.01939,-0.91118c0.01295,-0.33601 0.02908,-0.67211 0.04847,-1.00812c0.02591,-0.34253 0.05499,-0.65272 0.08724,-0.93057c0.06468,-0.52344 0.15836,-0.937 0.28111,-1.24076c0.12284,-0.31019 0.30702,-0.46528 0.55252,-0.46528zM240.09232,175.82036c0.25855,0 0.44272,0.07111 0.55252,0.21326c0.11632,0.14214 0.17448,0.30693 0.17448,0.49436c0,0.23264 -0.07103,0.41356 -0.21326,0.54283c-0.13571,0.12275 -0.32958,0.18417 -0.58161,0.18417c-0.24551,0 -0.42968,-0.06785 -0.55252,-0.20356c-0.12275,-0.14214 -0.18417,-0.30693 -0.18417,-0.49436c0,-0.2456 0.07437,-0.42977 0.22295,-0.55252c0.14866,-0.12275 0.34253,-0.18417 0.58161,-0.18417zM240.15048,177.982c0.20682,0 0.36835,0.19387 0.48467,0.58161c0.12284,0.38774 0.18417,1.00486 0.18417,1.85144c0,1.04046 -0.07429,1.79002 -0.22295,2.24887c-0.14857,0.45885 -0.37478,0.68823 -0.67854,0.68823c-0.23264,0 -0.40386,-0.16805 -0.51375,-0.50406c-0.1098,-0.34253 -0.16479,-0.937 -0.16479,-1.78359c0,-1.04046 0.08407,-1.81267 0.25203,-2.31673c0.17448,-0.51049 0.39426,-0.76578 0.65915,-0.76578zM244.45594,177.18714c0.57508,0 0.98873,0.08398 1.24076,0.25203c0.25203,0.16805 0.37804,0.38448 0.37804,0.64946c0,0.15509 -0.05499,0.28437 -0.16479,0.38774c-0.10346,0.09693 -0.25203,0.1454 -0.4459,0.1454c-0.20039,0 -0.41038,-0.02908 -0.63007,-0.08724c-0.21326,-0.05816 -0.46211,-0.08724 -0.74639,-0.08724c-0.32958,0 -0.57517,0.06459 -0.7367,0.19387c-0.16162,0.12927 -0.24234,0.29406 -0.24234,0.49436c0,0.18744 0.07103,0.33601 0.21326,0.4459c0.14857,0.10337 0.42968,0.18091 0.84333,0.23264c0.45876,0.05173 0.83681,0.13571 1.13413,0.25203c0.30367,0.10989 0.52988,0.27785 0.67854,0.50406c0.14857,0.21969 0.22295,0.52344 0.22295,0.91118c0,0.61395 -0.21652,1.06954 -0.64946,1.36677c-0.43303,0.29724 -1.03076,0.4459 -1.79328,0.4459c-0.48467,0 -0.86924,-0.03877 -1.15352,-0.11632c-0.28437,-0.07755 -0.49119,-0.18744 -0.62038,-0.32958c-0.12284,-0.14214 -0.18417,-0.31019 -0.18417,-0.50406c0,-0.16805 0.0549,-0.29724 0.16479,-0.38774c0.11632,-0.09693 0.25203,-0.1454 0.40712,-0.1454c0.14857,0 0.30693,0.01939 0.47498,0.05816c0.16796,0.03234 0.3457,0.06785 0.53314,0.10663c0.18735,0.03877 0.38122,0.05816 0.58161,0.05816c0.6462,0 0.96934,-0.2003 0.96934,-0.60099c0,-0.13571 -0.03234,-0.2456 -0.09693,-0.32958c-0.06468,-0.08398 -0.181,-0.15183 -0.34896,-0.20356c-0.16805,-0.05816 -0.41364,-0.10337 -0.7367,-0.13571c-0.38774,-0.03877 -0.72383,-0.10337 -1.00812,-0.19387c-0.28437,-0.09693 -0.50406,-0.25203 -0.65915,-0.46528c-0.15509,-0.21969 -0.23264,-0.52018 -0.23264,-0.90149c0,-0.60099 0.22612,-1.08566 0.67854,-1.45401c0.45233,-0.37478 1.09536,-0.56222 1.92899,-0.56222zM248.17989,175.57803c0.20682,0 0.34896,0.08081 0.42651,0.24234c0.08407,0.16153 0.12601,0.40386 0.12601,0.72701c0,0.27785 -0.01613,0.62681 -0.04847,1.04689c-0.03225,0.42008 -0.07429,0.82394 -0.12601,1.21168h-0.05816c0.21326,-0.40069 0.48793,-0.72375 0.82394,-0.96934c0.3361,-0.2456 0.69149,-0.36835 1.06628,-0.36835c0.32958,0 0.62364,0.08081 0.8821,0.24234c0.25855,0.15509 0.46854,0.40069 0.63007,0.7367c0.14866,0.30376 0.25855,0.66559 0.32958,1.08566c0.07111,0.41356 0.10663,0.80781 0.10663,1.1826c0,0.60099 -0.04195,1.07923 -0.12601,1.43463c-0.07755,0.3554 -0.18735,0.61395 -0.32958,0.77547c-0.14214,0.15509 -0.31019,0.23264 -0.50406,0.23264c-0.40712,0 -0.61069,-0.33284 -0.61069,-0.99842c0,-0.32314 0.01621,-0.65589 0.04847,-0.99842c0.03877,-0.34253 0.05816,-0.65589 0.05816,-0.94026c0,-0.48467 -0.07755,-0.84659 -0.23264,-1.08566c-0.14857,-0.2456 -0.36509,-0.36835 -0.64946,-0.36835c-0.3554,0 -0.64294,0.15836 -0.86271,0.47498c-0.21969,0.31662 -0.32958,0.75283 -0.32958,1.30861c0,0.2908 0.02591,0.61069 0.07755,0.95965c0.05173,0.34253 0.07755,0.65589 0.07755,0.94026c0,0.31662 -0.06133,0.54609 -0.18417,0.68823c-0.11632,0.13571 -0.26816,0.20356 -0.45559,0.20356c-0.14214,0 -0.26816,-0.02908 -0.37804,-0.08724c-0.10337,-0.05173 -0.19387,-0.15836 -0.27142,-0.31988c-0.07103,-0.16805 -0.13245,-0.41682 -0.18417,-0.74639c-0.03877,-0.25203 -0.07755,-0.54609 -0.11632,-0.8821c-0.03877,-0.33601 -0.07103,-0.68823 -0.09693,-1.05658c-0.02582,-0.36835 -0.04847,-0.72701 -0.06785,-1.07597c-0.01287,-0.3554 -0.01939,-0.67854 -0.01939,-0.96934c0,-0.91761 0.08724,-1.58329 0.26172,-1.99684c0.17448,-0.42008 0.42008,-0.63007 0.7367,-0.63007z" fill="#000000" stroke="none"/></g></g></svg>