<svg version="1.1" xmlns="http://www.w3.org/2000/svg" xmlns:xlink="http://www.w3.org/1999/xlink" width="129.5071" height="16.24592" viewBox="0,0,129.5071,16.24592"><g transform="translate(-175.24645,-171.87704)"><g data-paper-data="{&quot;isPaintingLayer&quot;:true}" fill="#000000" fill-rule="nonzero" stroke="none" stroke-width="1" stroke-linecap="butt" stroke-linejoin="miter" stroke-miterlimit="10" stroke-dasharray="" stroke-dashoffset="0" style="mix-blend-mode: normal"><path d="M178.1667,184.85028c-0.6825,0 -1.1916,-0.08955 -1.52725,-0.26853c-0.33566,-0.17898 -0.61538,-0.50349 -0.83915,-0.97341c-0.15664,-0.35804 -0.29091,-0.93985 -0.4028,-1.74543c-0.1007,-0.81677 -0.15105,-1.8741 -0.15105,-3.17198c0,-0.90628 0.01678,-1.7734 0.05035,-2.60137c0.04475,-0.82797 0.1063,-1.46572 0.18461,-1.91326c0.08951,-0.57062 0.23496,-0.97902 0.43636,-1.22516c0.21258,-0.24615 0.47552,-0.36922 0.7888,-0.36922c0.27971,0 0.49789,0.12307 0.65453,0.36922c0.16783,0.24614 0.28531,0.5818 0.35244,1.00697c0.06713,0.41397 0.1007,0.87272 0.1007,1.37621c0,1.36502 -0.05035,2.74681 -0.15105,4.1454c-0.08951,1.39858 -0.21817,2.68527 -0.38601,3.86009l-0.21817,-0.30209c0.50349,-0.34685 1.04055,-0.64335 1.61116,-0.8895c0.5818,-0.24614 1.14684,-0.43636 1.69508,-0.57062c0.55944,-0.13427 1.04614,-0.20139 1.46012,-0.20139c0.41397,0 0.71607,0.08392 0.90628,0.25175c0.20139,0.16783 0.30209,0.40839 0.30209,0.72167c0,0.31328 -0.13986,0.63216 -0.41958,0.95663c-0.26853,0.31324 -0.65453,0.58741 -1.15802,0.82236c-0.27971,0.13427 -0.60978,0.25738 -0.99019,0.36922c-0.38041,0.1007 -0.77202,0.18461 -1.17481,0.25175c-0.39161,0.06713 -0.76642,0.1007 -1.12446,0.1007zM191.97501,184.64889c-0.30209,0 -0.53705,-0.1007 -0.70489,-0.30209c-0.15668,-0.21254 -0.2629,-0.48107 -0.31888,-0.80558c-0.05598,-0.33566 -0.08392,-0.6881 -0.08392,-1.05733l0.08392,-0.06713c-0.11185,0.48111 -0.33002,0.8951 -0.65453,1.24194c-0.32451,0.34681 -0.69925,0.61534 -1.12446,0.80558c-0.42521,0.17898 -0.85029,0.26853 -1.2755,0.26853c-0.57062,0 -1.09089,-0.13427 -1.56082,-0.4028c-0.46991,-0.26853 -0.83354,-0.68246 -1.09088,-1.24194c-0.25734,-0.593 -0.45874,-1.33704 -0.60419,-2.23213c-0.14545,-0.90628 -0.21817,-1.83494 -0.21817,-2.78598c0,-0.51467 0.02238,-0.99019 0.06713,-1.42655c0.04475,-0.43636 0.11748,-0.79439 0.21817,-1.07411c0.08951,-0.29091 0.22378,-0.50349 0.4028,-0.63775c0.17902,-0.14545 0.40839,-0.21817 0.6881,-0.21817c0.32447,0 0.57625,0.12867 0.75522,0.38601c0.19024,0.24614 0.30773,0.593 0.35244,1.04055c0.04471,0.36922 0.07276,0.82797 0.08392,1.37621c0.02242,0.53705 0.0392,1.07971 0.05035,1.62794c0.02242,0.53705 0.05035,0.99019 0.08392,1.35942c0.06713,0.67132 0.2406,1.16921 0.52027,1.49369c0.27968,0.31328 0.62097,0.46992 1.02377,0.46992c0.59304,0 1.04618,-0.22378 1.35942,-0.67132c0.31324,-0.44755 0.46992,-1.07411 0.46992,-1.87969c0,-0.4028 -0.02242,-0.85593 -0.06713,-1.35942c-0.04471,-0.51467 -0.09507,-1.01258 -0.15105,-1.49369c-0.04471,-0.48111 -0.06713,-0.87831 -0.06713,-1.1916c0,-0.52587 0.08955,-0.90068 0.26853,-1.12446c0.17898,-0.23496 0.42521,-0.35244 0.73845,-0.35244c0.26853,0 0.49234,0.07273 0.67132,0.21817c0.19024,0.14545 0.34129,0.34685 0.45314,0.60419c0.15668,0.33566 0.29095,0.79439 0.4028,1.37621c0.11185,0.5818 0.20139,1.24194 0.26853,1.98039c0.06713,0.73845 0.1007,1.51607 0.1007,2.33283c0,1.25313 -0.08392,2.19297 -0.25175,2.81954c-0.16783,0.61534 -0.46429,0.92306 -0.8895,0.92306zM202.49207,184.91742c-0.38037,0 -0.64339,-0.14541 -0.7888,-0.43636c-0.13427,-0.30209 -0.21254,-0.77765 -0.23496,-1.42655l0.16783,0.08392c-0.6266,1.21953 -1.81257,1.82935 -3.55799,1.82935c-0.79443,0 -1.45448,-0.1399 -1.98039,-0.41958c-0.5259,-0.29095 -0.91743,-0.67132 -1.17481,-1.14124c-0.24611,-0.48111 -0.36922,-1.00138 -0.36922,-1.56082c0,-0.96223 0.33566,-1.72305 1.00697,-2.28249c0.67132,-0.57062 1.56082,-0.85593 2.66849,-0.85593c0.72731,0 1.35942,0.1063 1.89648,0.31888c0.53705,0.21258 0.99583,0.50909 1.37621,0.8895l-0.28531,-0.03356c-0.07828,-1.13006 -0.32451,-1.93564 -0.73845,-2.41675c-0.4028,-0.4923 -0.97904,-0.73845 -1.72865,-0.73845c-0.43636,0 -0.83915,0.06713 -1.20838,0.20139c-0.36922,0.13427 -0.71052,0.27413 -1.02377,0.41958c-0.30209,0.13427 -0.58741,0.20139 -0.85593,0.20139c-0.26853,0 -0.48107,-0.08951 -0.63775,-0.26853c-0.14541,-0.17902 -0.21817,-0.40839 -0.21817,-0.6881c0,-0.4028 0.19024,-0.7832 0.57062,-1.14124c0.39164,-0.35804 0.90628,-0.64894 1.54404,-0.87272c0.63775,-0.22378 1.33149,-0.33566 2.08109,-0.33566c0.90628,0 1.68393,0.21817 2.33283,0.65453c0.6489,0.43636 1.14124,1.07411 1.4769,1.91326c0.29095,0.71607 0.49785,1.51607 0.62097,2.39996c0.12312,0.8839 0.18461,1.82935 0.18461,2.83632c0,0.76083 -0.0392,1.34824 -0.11748,1.76221c-0.07828,0.41394 -0.20139,0.70489 -0.36922,0.87272c-0.15668,0.15668 -0.36922,0.23496 -0.63775,0.23496zM198.78303,183.03772c0.36922,0 0.74409,-0.05035 1.12446,-0.15105c0.38037,-0.11188 0.69925,-0.27413 0.95663,-0.48671c0.25738,-0.21258 0.38601,-0.47552 0.38601,-0.7888c0,-0.26853 -0.11185,-0.48671 -0.33566,-0.65453c-0.21254,-0.17902 -0.49785,-0.31328 -0.85593,-0.4028c-0.34681,-0.08951 -0.72167,-0.13427 -1.12446,-0.13427c-0.68246,0 -1.20274,0.11748 -1.56082,0.35244c-0.34681,0.23496 -0.52027,0.54824 -0.52027,0.93985c0,0.42517 0.1622,0.75524 0.48671,0.99019c0.33566,0.22378 0.81673,0.33566 1.44333,0.33566zM209.90978,174.24344c0.99571,0 1.71186,0.14545 2.14822,0.43636c0.43636,0.29091 0.65453,0.66572 0.65453,1.12446c0,0.26853 -0.09519,0.4923 -0.28531,0.67132c-0.1791,0.16783 -0.43636,0.25175 -0.77202,0.25175c-0.34693,0 -0.71052,-0.05035 -1.09089,-0.15105c-0.36922,-0.1007 -0.80007,-0.15105 -1.29229,-0.15105c-0.57062,0 -0.99583,0.11188 -1.2755,0.33566c-0.2798,0.22378 -0.41958,0.50909 -0.41958,0.85593c0,0.32447 0.123,0.5818 0.36922,0.77202c0.25726,0.17902 0.74397,0.31328 1.46012,0.4028c0.79431,0.08951 1.44885,0.23496 1.96361,0.43636c0.52578,0.19021 0.91743,0.48111 1.17481,0.87272c0.25726,0.38041 0.38601,0.90628 0.38601,1.5776c0,1.06292 -0.37486,1.85172 -1.12446,2.3664c-0.74972,0.51464 -1.78463,0.77202 -3.10485,0.77202c-0.83915,0 -1.50496,-0.06713 -1.99718,-0.20139c-0.49234,-0.13427 -0.85041,-0.32451 -1.07411,-0.57062c-0.21266,-0.24611 -0.31888,-0.53705 -0.31888,-0.87272c0,-0.29091 0.09507,-0.51467 0.28531,-0.67132c0.20139,-0.16783 0.43636,-0.25175 0.70489,-0.25175c0.25726,0 0.53142,0.03356 0.82236,0.1007c0.29083,0.05595 0.59855,0.11748 0.92306,0.18461c0.32439,0.06713 0.66005,0.1007 1.00697,0.1007c1.11882,0 1.6783,-0.34685 1.6783,-1.04055c0,-0.23496 -0.05598,-0.42517 -0.16783,-0.57062c-0.11197,-0.14545 -0.31336,-0.26293 -0.60419,-0.35244c-0.29095,-0.1007 -0.71616,-0.17902 -1.2755,-0.23496c-0.67132,-0.06713 -1.25321,-0.17902 -1.74543,-0.33566c-0.49234,-0.16783 -0.87272,-0.43636 -1.14124,-0.80558c-0.26853,-0.38041 -0.4028,-0.90068 -0.4028,-1.56082c0,-1.04055 0.39152,-1.87969 1.17481,-2.51745c0.78317,-0.64894 1.89648,-0.97341 3.33981,-0.97341zM222.18438,172.41409c0.828,0 1.52162,0.04475 2.08109,0.13426c0.57062,0.07832 1.0294,0.17902 1.37621,0.3021c0.36922,0.14545 0.62097,0.31328 0.75524,0.50349c0.14541,0.19021 0.21817,0.40839 0.21817,0.65453c0,0.35804 -0.1399,0.64894 -0.41958,0.87272c-0.26853,0.22378 -0.68246,0.33566 -1.24194,0.33566c-0.38037,0 -0.7888,-0.03917 -1.22516,-0.11748c-0.43636,-0.07831 -0.88387,-0.1958 -1.34264,-0.35244l0.21817,-0.23496c0.1007,0.5818 0.19024,1.22516 0.26853,1.93004c0.07828,0.70489 0.14541,1.42096 0.20139,2.14822c0.06713,0.71607 0.11185,1.39299 0.13427,2.03074c0.03356,0.63775 0.05035,1.18041 0.05035,1.62794c0,0.87272 -0.11185,1.52725 -0.33566,1.96361c-0.21254,0.43636 -0.58177,0.65453 -1.10768,0.65453c-0.48107,0 -0.828,-0.19576 -1.04055,-0.58741c-0.21254,-0.4028 -0.31888,-1.01258 -0.31888,-1.82935c0,-0.53705 0.02242,-1.15243 0.06713,-1.84613c0.05598,-0.6937 0.12863,-1.40977 0.21817,-2.14822c0.08955,-0.73845 0.18461,-1.44333 0.28531,-2.11466c0.11185,-0.6825 0.22381,-1.2755 0.33566,-1.77899l0.30209,0.18461c-0.24611,0.08951 -0.53705,0.17902 -0.87272,0.26853c-0.33566,0.07831 -0.67132,0.14545 -1.00697,0.20139c-0.33566,0.04475 -0.63212,0.06713 -0.8895,0.06713c-0.57062,0 -0.97341,-0.08951 -1.20838,-0.26853c-0.23496,-0.19021 -0.35244,-0.44195 -0.35244,-0.75524c0,-0.29091 0.08955,-0.53705 0.26853,-0.73845c0.17898,-0.21258 0.45314,-0.39719 0.82236,-0.55384c0.42521,-0.17902 0.94548,-0.31329 1.56082,-0.4028c0.6266,-0.1007 1.35942,-0.15105 2.19857,-0.15105zM227.67493,177.18046c0,-1.07411 0.1007,-1.84613 0.30209,-2.31605c0.20139,-0.48111 0.48671,-0.72167 0.85593,-0.72167c0.29095,0 0.52027,0.12308 0.6881,0.36922c0.16783,0.23496 0.29095,0.53146 0.36922,0.8895c0.07828,0.34685 0.11748,0.69929 0.11748,1.05733l-0.08392,-0.03356c0.19024,-0.60419 0.48107,-1.12446 0.87272,-1.56082c0.4028,-0.43636 0.88387,-0.65453 1.44333,-0.65453c0.66017,0 1.14687,0.27413 1.46012,0.82236c0.31324,0.53705 0.46992,1.20838 0.46992,2.01396c0,1.07411 -0.12312,1.82374 -0.36922,2.24892c-0.24611,0.42517 -0.57626,0.63775 -0.99019,0.63775c-0.30209,0 -0.5259,-0.12308 -0.67132,-0.36922c-0.13427,-0.24614 -0.17898,-0.6825 -0.13427,-1.30907c0.04471,-0.66014 0.00563,-1.11886 -0.11748,-1.37621c-0.12312,-0.25734 -0.31888,-0.38601 -0.58741,-0.38601c-0.32451,0 -0.59304,0.207 -0.80558,0.62097c-0.20139,0.4028 -0.30209,0.90068 -0.30209,1.49369c0,0.23496 0.02793,0.53146 0.08392,0.8895c0.05598,0.35804 0.11748,0.74964 0.18461,1.17481c0.06713,0.41397 0.12863,0.82797 0.18461,1.24194c0.05598,0.41397 0.08392,0.79439 0.08392,1.14124c0,0.61534 -0.09507,1.05733 -0.28531,1.32586c-0.19024,0.26853 -0.45878,0.4028 -0.80558,0.4028c-0.39164,0 -0.69373,-0.12312 -0.90628,-0.36922c-0.21254,-0.25738 -0.37486,-0.67132 -0.48671,-1.24194c-0.08955,-0.51467 -0.17898,-1.12446 -0.26853,-1.82935c-0.08955,-0.70489 -0.1622,-1.42655 -0.21817,-2.16501c-0.05598,-0.73845 -0.08392,-1.40418 -0.08392,-1.99718zM242.99085,184.91742c-0.38037,0 -0.64339,-0.14541 -0.7888,-0.43636c-0.13427,-0.30209 -0.21254,-0.77765 -0.23496,-1.42655l0.16783,0.08392c-0.6266,1.21953 -1.81257,1.82935 -3.55799,1.82935c-0.79443,0 -1.45448,-0.1399 -1.98039,-0.41958c-0.5259,-0.29095 -0.91743,-0.67132 -1.17481,-1.14124c-0.24611,-0.48111 -0.36922,-1.00138 -0.36922,-1.56082c0,-0.96223 0.33566,-1.72305 1.00697,-2.28249c0.67132,-0.57062 1.56082,-0.85593 2.66849,-0.85593c0.72731,0 1.35942,0.1063 1.89648,0.31888c0.53705,0.21258 0.99583,0.50909 1.37621,0.8895l-0.28531,-0.03356c-0.07828,-1.13006 -0.32451,-1.93564 -0.73845,-2.41675c-0.4028,-0.4923 -0.97904,-0.73845 -1.72865,-0.73845c-0.43636,0 -0.83915,0.06713 -1.20838,0.20139c-0.36922,0.13427 -0.71052,0.27413 -1.02377,0.41958c-0.30209,0.13427 -0.58741,0.20139 -0.85593,0.20139c-0.26853,0 -0.48107,-0.08951 -0.63775,-0.26853c-0.14541,-0.17902 -0.21817,-0.40839 -0.21817,-0.6881c0,-0.4028 0.19024,-0.7832 0.57062,-1.14124c0.39164,-0.35804 0.90628,-0.64894 1.54404,-0.87272c0.63775,-0.22378 1.33149,-0.33566 2.08109,-0.33566c0.90628,0 1.68393,0.21817 2.33283,0.65453c0.6489,0.43636 1.14124,1.07411 1.4769,1.91326c0.29095,0.71607 0.49785,1.51607 0.62097,2.39996c0.12312,0.8839 0.18461,1.82935 0.18461,2.83632c0,0.76083 -0.0392,1.34824 -0.11748,1.76221c-0.07828,0.41394 -0.20139,0.70489 -0.36922,0.87272c-0.15668,0.15668 -0.36922,0.23496 -0.63775,0.23496zM239.2818,183.03772c0.36922,0 0.74409,-0.05035 1.12446,-0.15105c0.38037,-0.11188 0.69925,-0.27413 0.95663,-0.48671c0.25738,-0.21258 0.38601,-0.47552 0.38601,-0.7888c0,-0.26853 -0.11185,-0.48671 -0.33566,-0.65453c-0.21254,-0.17902 -0.49785,-0.31328 -0.85593,-0.4028c-0.34681,-0.08951 -0.72167,-0.13427 -1.12446,-0.13427c-0.68246,0 -1.20274,0.11748 -1.56082,0.35244c-0.34681,0.23496 -0.52027,0.54824 -0.52027,0.93985c0,0.42517 0.1622,0.75524 0.48671,0.99019c0.33566,0.22378 0.81673,0.33566 1.44333,0.33566zM247.30371,174.34414c0.30209,0 0.55384,0.17902 0.75524,0.53705c0.20139,0.34685 0.34117,0.90068 0.41958,1.66152l-0.35244,0.31888c0.20139,-0.7832 0.57614,-1.3818 1.12446,-1.79578c0.54821,-0.41397 1.19711,-0.62097 1.94683,-0.62097c0.69361,0 1.30907,0.17902 1.84613,0.53705c0.53705,0.35804 0.95663,0.90068 1.25872,1.62794c0.31324,0.71607 0.46992,1.61677 0.46992,2.70206c0,1.75662 -0.31888,3.05451 -0.95663,3.89365c-0.6266,0.828 -1.48254,1.24194 -2.56779,1.24194c-0.78329,0 -1.39862,-0.16783 -1.84613,-0.50349c-0.44763,-0.33566 -0.76087,-0.74405 -0.93985,-1.22516l0.20139,-0.1007c0.08943,0.67132 0.1622,1.33701 0.21817,1.99718c0.06713,0.6489 0.1007,1.21953 0.1007,1.71186c0,0.50349 -0.08955,0.9287 -0.26853,1.2755c-0.1791,0.34681 -0.46441,0.52027 -0.85593,0.52027c-0.38049,0 -0.6658,-0.14541 -0.85593,-0.43636c-0.19024,-0.29095 -0.33014,-0.67695 -0.41958,-1.15802c-0.06713,-0.49234 -0.13427,-1.12446 -0.20139,-1.89648c-0.06713,-0.77202 -0.12312,-1.60557 -0.16783,-2.50066c-0.03356,-0.8951 -0.05035,-1.76782 -0.05035,-2.61815c0,-0.87272 0.02793,-1.68949 0.08392,-2.45032c0.06713,-0.77202 0.14541,-1.39858 0.23496,-1.87969c0.07828,-0.27971 0.17898,-0.48671 0.30209,-0.62097c0.13427,-0.14545 0.30761,-0.21817 0.52027,-0.21817zM250.50926,176.37488c-0.60419,0 -1.09089,0.30209 -1.46012,0.90628c-0.35807,0.593 -0.53705,1.35382 -0.53705,2.28249c0,0.95103 0.17898,1.66152 0.53705,2.13144c0.36922,0.46992 0.84466,0.70489 1.42655,0.70489c0.67132,0 1.15239,-0.26293 1.44333,-0.7888c0.30209,-0.53705 0.45314,-1.23075 0.45314,-2.08109c0,-1.0853 -0.18461,-1.87969 -0.55384,-2.38318c-0.36922,-0.51467 -0.80558,-0.77202 -1.30907,-0.77202zM261.17076,184.88384c-1.24194,0 -2.23213,-0.18461 -2.97059,-0.55384c-0.73845,-0.36922 -1.26999,-0.90068 -1.59438,-1.59438c-0.32451,-0.6937 -0.48671,-1.52165 -0.48671,-2.48388c0,-1.21956 0.22369,-2.25452 0.67132,-3.10485c0.45866,-0.86153 1.08526,-1.52165 1.87969,-1.98039c0.80558,-0.45874 1.71738,-0.6881 2.73563,-0.6881c1.19711,0 2.07545,0.27971 2.63493,0.83915c0.55936,0.54824 0.83915,1.26991 0.83915,2.16501c0,0.71607 -0.19024,1.33704 -0.57062,1.86291c-0.36922,0.51467 -0.88399,0.91188 -1.54404,1.1916c-0.66017,0.27971 -1.42104,0.41958 -2.28249,0.41958c-0.48119,0 -0.94548,-0.06153 -1.39299,-0.18461c-0.44763,-0.12308 -0.85041,-0.29091 -1.20838,-0.50349l0.4028,-0.73845c-0.03356,0.26853 -0.05035,0.53705 -0.05035,0.80558c0,0.7832 0.24611,1.34824 0.73845,1.69508c0.49222,0.33566 1.1916,0.50349 2.09787,0.50349c0.70489,0 1.26987,-0.06153 1.69508,-0.18461c0.42509,-0.12308 0.78317,-0.24056 1.07411,-0.35244c0.29083,-0.12308 0.57614,-0.18461 0.85593,-0.18461c0.15656,0 0.29646,0.04475 0.41958,0.13427c0.13427,0.07831 0.24048,0.1958 0.31888,0.35244c0.08943,0.15664 0.13427,0.34685 0.13427,0.57062c0,0.33566 -0.16783,0.66014 -0.50349,0.97341c-0.33566,0.30209 -0.83363,0.55384 -1.49369,0.75524c-0.64902,0.19024 -1.44897,0.28531 -2.39996,0.28531zM260.19735,179.39581c0.79431,0 1.43207,-0.16783 1.91326,-0.50349c0.48107,-0.33566 0.72167,-0.74964 0.72167,-1.24194c0,-0.39161 -0.13427,-0.71048 -0.4028,-0.95663c-0.25738,-0.25734 -0.6658,-0.38601 -1.22516,-0.38601c-0.5259,0 -1.00146,0.1007 -1.42655,0.30209c-0.41406,0.19021 -0.73845,0.44195 -0.97341,0.75524c-0.23496,0.31328 -0.35244,0.65453 -0.35244,1.02377c0,0.32447 0.15105,0.57622 0.45314,0.75524c0.31324,0.16783 0.74397,0.25175 1.29229,0.25175zM271.28887,174.24344c0.99583,0 1.71186,0.14545 2.14822,0.43636c0.43636,0.29091 0.65453,0.66572 0.65453,1.12446c0,0.26853 -0.09507,0.4923 -0.28531,0.67132c-0.17898,0.16783 -0.43636,0.25175 -0.77202,0.25175c-0.34681,0 -0.7104,-0.05035 -1.09089,-0.15105c-0.36922,-0.1007 -0.79995,-0.15105 -1.29229,-0.15105c-0.57062,0 -0.99571,0.11188 -1.2755,0.33566c-0.27968,0.22378 -0.41958,0.50909 -0.41958,0.85593c0,0.32447 0.12312,0.5818 0.36922,0.77202c0.25738,0.17902 0.74409,0.31328 1.46012,0.4028c0.79443,0.08951 1.44897,0.23496 1.96361,0.43636c0.5259,0.19021 0.91755,0.48111 1.17481,0.87272c0.25738,0.38041 0.38601,0.90628 0.38601,1.5776c0,1.06292 -0.37474,1.85172 -1.12446,2.3664c-0.7496,0.51464 -1.78451,0.77202 -3.10485,0.77202c-0.83915,0 -1.50484,-0.06713 -1.99718,-0.20139c-0.49222,-0.13427 -0.85029,-0.32451 -1.07411,-0.57062c-0.21254,-0.24611 -0.31888,-0.53705 -0.31888,-0.87272c0,-0.29091 0.09519,-0.51467 0.28531,-0.67132c0.20139,-0.16783 0.43636,-0.25175 0.70489,-0.25175c0.25738,0 0.53154,0.03356 0.82236,0.1007c0.29095,0.05595 0.59867,0.11748 0.92306,0.18461c0.32451,0.06713 0.66017,0.1007 1.00697,0.1007c1.11894,0 1.6783,-0.34685 1.6783,-1.04055c0,-0.23496 -0.05586,-0.42517 -0.16783,-0.57062c-0.11185,-0.14545 -0.31324,-0.26293 -0.60419,-0.35244c-0.29083,-0.1007 -0.71604,-0.17902 -1.2755,-0.23496c-0.67132,-0.06713 -1.25309,-0.17902 -1.74543,-0.33566c-0.49222,-0.16783 -0.87272,-0.43636 -1.14124,-0.80558c-0.26853,-0.38041 -0.4028,-0.90068 -0.4028,-1.56082c0,-1.04055 0.39164,-1.87969 1.17481,-2.51745c0.78329,-0.64894 1.89648,-0.97341 3.33981,-0.97341zM277.48479,171.87704c0.44763,0 0.7665,0.12307 0.95663,0.36922c0.20139,0.24615 0.30209,0.53146 0.30209,0.85593c0,0.4028 -0.123,0.71607 -0.36922,0.93985c-0.23496,0.21258 -0.57062,0.31888 -1.00697,0.31888c-0.42509,0 -0.74397,-0.11748 -0.95663,-0.35244c-0.21254,-0.24614 -0.31888,-0.53146 -0.31888,-0.85593c0,-0.42517 0.12875,-0.74404 0.38601,-0.95663c0.25738,-0.21258 0.59304,-0.31888 1.00697,-0.31888zM277.58549,175.61964c0.35807,0 0.63775,0.33566 0.83915,1.00697c0.21266,0.67132 0.31888,1.73983 0.31888,3.20555c0,1.80138 -0.12863,3.09926 -0.38601,3.89365c-0.25726,0.79443 -0.6489,1.1916 -1.17481,1.1916c-0.4028,0 -0.69925,-0.29095 -0.8895,-0.87272c-0.19013,-0.593 -0.28531,-1.62235 -0.28531,-3.08807c0,-1.80138 0.14553,-3.13842 0.43636,-4.01114c0.30209,-0.8839 0.68258,-1.32586 1.14124,-1.32586zM288.34602,184.64889c-0.30209,0 -0.53705,-0.1007 -0.70489,-0.30209c-0.15656,-0.21254 -0.2629,-0.48107 -0.31888,-0.80558c-0.05586,-0.33566 -0.08392,-0.6881 -0.08392,-1.05733l0.08392,-0.06713c-0.11185,0.48111 -0.33002,0.8951 -0.65453,1.24194c-0.32439,0.34681 -0.69925,0.61534 -1.12446,0.80558c-0.42509,0.17898 -0.85029,0.26853 -1.2755,0.26853c-0.57062,0 -1.09089,-0.13427 -1.56082,-0.4028c-0.46992,-0.26853 -0.83351,-0.68246 -1.09089,-1.24194c-0.25726,-0.593 -0.45866,-1.33704 -0.60419,-2.23213c-0.14541,-0.90628 -0.21817,-1.83494 -0.21817,-2.78598c0,-0.51467 0.02242,-0.99019 0.06713,-1.42655c0.04483,-0.43636 0.11748,-0.79439 0.21817,-1.07411c0.08955,-0.29091 0.22381,-0.50349 0.4028,-0.63775c0.1791,-0.14545 0.40843,-0.21817 0.6881,-0.21817c0.32451,0 0.57626,0.12867 0.75524,0.38601c0.19024,0.24614 0.30773,0.593 0.35244,1.04055c0.04483,0.36922 0.07276,0.82797 0.08392,1.37621c0.02242,0.53705 0.0392,1.07971 0.05035,1.62794c0.02242,0.53705 0.05035,0.99019 0.08392,1.35942c0.06713,0.67132 0.2406,1.16921 0.52027,1.49369c0.2798,0.31328 0.62097,0.46992 1.02377,0.46992c0.59304,0 1.04618,-0.22378 1.35942,-0.67132c0.31336,-0.44755 0.46992,-1.07411 0.46992,-1.87969c0,-0.4028 -0.0223,-0.85593 -0.06713,-1.35942c-0.04471,-0.51467 -0.09507,-1.01258 -0.15105,-1.49369c-0.04471,-0.48111 -0.06713,-0.87831 -0.06713,-1.1916c0,-0.52587 0.08955,-0.90068 0.26853,-1.12446c0.1791,-0.23496 0.42521,-0.35244 0.73845,-0.35244c0.26853,0 0.49234,0.07273 0.67132,0.21817c0.19024,0.14545 0.34129,0.34685 0.45314,0.60419c0.15668,0.33566 0.29095,0.79439 0.4028,1.37621c0.11197,0.5818 0.20139,1.24194 0.26853,1.98039c0.06713,0.73845 0.1007,1.51607 0.1007,2.33283c0,1.25313 -0.08392,2.19297 -0.25175,2.81954c-0.16783,0.61534 -0.46429,0.92306 -0.8895,0.92306zM298.76202,177.06298c0.11269,-0.45874 0.30809,-0.87272 0.58741,-1.24194c0.29131,-0.36922 0.63775,-0.66014 1.04055,-0.87272c0.41478,-0.22378 0.86792,-0.33566 1.35942,-0.33566c0.58261,0 1.09689,0.13986 1.54404,0.41958c0.44835,0.27971 0.80079,0.73845 1.05733,1.37621c0.26853,0.63775 0.4028,1.48808 0.4028,2.55101c0,0.54824 -0.02158,1.10208 -0.06713,1.66152c-0.04435,0.55944 -0.1007,1.07971 -0.16783,1.56082c-0.06713,0.48111 -0.13906,0.8839 -0.21817,1.20838c-0.11149,0.44751 -0.28531,0.7888 -0.52027,1.02377c-0.22297,0.23496 -0.50828,0.35244 -0.85593,0.35244c-0.29011,0 -0.52027,-0.12863 -0.6881,-0.38601c-0.16783,-0.25738 -0.25175,-0.6266 -0.25175,-1.10768c0,-0.22378 0.02877,-0.50909 0.08392,-0.85593c0.05634,-0.35804 0.11748,-0.74405 0.18461,-1.15802c0.06713,-0.42517 0.12947,-0.85593 0.18461,-1.29229c0.05634,-0.43636 0.08392,-0.85033 0.08392,-1.24194c0,-0.5818 -0.11748,-1.02936 -0.35244,-1.34264c-0.23496,-0.32447 -0.56463,-0.48671 -0.99019,-0.48671c-0.46992,0 -0.86073,0.24614 -1.17481,0.73845c-0.30209,0.48111 -0.48071,1.18599 -0.53705,2.11466c-0.04435,0.82797 -0.08392,1.56641 -0.11748,2.21535c-0.03356,0.63775 -0.11748,1.16363 -0.25175,1.5776c-0.08871,0.29095 -0.21817,0.50912 -0.38601,0.65453c-0.15584,0.14541 -0.36922,0.21817 -0.63775,0.21817c-0.30209,0 -0.54185,-0.11185 -0.72167,-0.33566c-0.16783,-0.22381 -0.26254,-0.57622 -0.28531,-1.05733c-0.02158,-0.4028 -0.02757,-0.87831 -0.01678,-1.42655c0.01199,-0.54824 0.01678,-1.09089 0.01678,-1.62794c0.01199,-0.54824 0.00599,-1.00138 -0.01678,-1.35942c-0.04435,-0.71607 -0.17262,-1.24194 -0.38601,-1.5776c-0.20139,-0.33566 -0.50828,-0.50349 -0.92306,-0.50349c-0.48071,0 -0.86673,0.22378 -1.15802,0.67132c-0.27932,0.44755 -0.45314,1.06852 -0.52027,1.86291c-0.02158,0.32447 -0.03356,0.72727 -0.03356,1.20838c0.01199,0.46992 0.02278,0.93985 0.03356,1.40977c0.01199,0.46992 0.00599,0.86153 -0.01678,1.17481c-0.01079,0.67132 -0.11712,1.15239 -0.31852,1.44333c-0.19024,0.29095 -0.45878,0.43636 -0.80558,0.43636c-0.41394,0 -0.71604,-0.13427 -0.90628,-0.4028c-0.17898,-0.26853 -0.29646,-0.69925 -0.35244,-1.29229c-0.04471,-0.52587 -0.07828,-1.04614 -0.1007,-1.56082c-0.02242,-0.52587 -0.03356,-1.04614 -0.03356,-1.56082c0,-0.52587 0.01115,-1.09649 0.03356,-1.71186c0.03356,-0.61538 0.07828,-1.19719 0.13427,-1.74543c0.06713,-0.55944 0.18461,-1.02936 0.35244,-1.40977c0.16783,-0.38041 0.44751,-0.57062 0.83915,-0.57062c0.32451,0 0.55384,0.16223 0.6881,0.48671c0.13427,0.31328 0.20139,0.79999 0.20139,1.46012c0,0.22378 -0.01678,0.43075 -0.05035,0.62097l-0.05035,-0.33566c0.22381,-0.72727 0.58225,-1.29229 1.07375,-1.69508c0.4927,-0.41397 1.04055,-0.62097 1.64474,-0.62097c0.79479,0 1.41576,0.25734 1.86291,0.77202c0.44835,0.50349 0.69409,1.20277 0.73845,2.09787z"/></g></g></svg>