<svg version="1.1" xmlns="http://www.w3.org/2000/svg" xmlns:xlink="http://www.w3.org/1999/xlink" width="14.78134" height="25.46058" viewBox="0,0,14.78134,25.46058"><g transform="translate(-233.06479,-167.3887)"><g data-paper-data="{&quot;isPaintingLayer&quot;:true}" fill-rule="evenodd" stroke="none" stroke-width="1" stroke-linecap="butt" stroke-linejoin="miter" stroke-miterlimit="10" stroke-dasharray="" stroke-dashoffset="0" style="mix-blend-mode: normal"><path d="M235.22214,184.421l0.48572,-2.07931l6.356,1.23372l0.33307,2.05158c-0.22205,-0.04159 -7.17479,-1.21986 -7.17479,-1.206z" fill="#000000"/><g><path d="M242.92909,172.92808c0.20815,-0.54063 1.81798,-0.85944 1.4849,0.23566c-0.33306,1.09511 -1.4849,0.77627 -1.4849,0.77627c0,0 -0.11103,-0.74854 0,-1.01193z" fill="#824600"/><path d="M244.01154,172.17952c0.01387,1.17827 -0.48573,2.23178 -0.98531,2.77241c-0.86043,0.90103 -2.5535,0.72083 -2.9976,0.58222c-0.81879,-0.26338 -1.59593,-1.4278 -2.0539,-2.50904c-0.13878,-0.41588 -0.26368,-0.84558 -0.36082,-1.28919l3.89964,-2.13476c0,0 1.77634,0.37428 1.87348,0.5129c0.13878,0.16634 0.62451,1.24759 0.62451,2.06546z" fill="#a0640a"/><path d="M237.22533,169.22691l0.12489,-0.08319c-0.19428,-0.48516 -0.59672,-1.23372 0.19431,-1.40006c0.48571,-0.09703 1.1796,0.44358 1.31838,0.87331c0.08327,0.04159 0.08327,0.0416 0.16653,-0.01384c-0.05553,-0.36041 -0.22205,-0.81786 0.08326,-1.09511c0.90206,-0.5129 1.33227,0.76242 1.85961,1.27529l0.12491,-0.01385c0.09714,-0.40201 -0.18042,-0.95648 0.41634,-0.97035c0.40246,-0.01385 0.58287,0.33269 0.77716,0.59607c0.48571,0.6238 1.15186,1.73278 1.15186,1.73278c0,0 0,0.6931 -1.04084,0.87331c-0.51348,0.09703 -1.41552,-0.4436 -2.78942,0.09703c-1.37388,0.54063 -1.36002,2.41199 -1.36002,2.41199c0,0 -1.51268,-2.78628 -1.6931,-3.18826c-0.13878,-0.30498 -0.51348,-1.1783 -0.19428,-1.44166c0.23592,-0.19406 0.65225,0.22179 0.86043,0.34656z" fill="#000000"/><path d="M238.46045,173.84298c0,0 -1.15184,0.31882 -1.48491,-0.77629c-0.33306,-1.09511 1.27676,-0.77627 1.48491,-0.23564c0.09714,0.26336 0,1.01193 0,1.01193z" fill="#a0640a"/><path d="M240.61151,173.56572c0.59672,0.05545 1.13796,0.27725 1.69308,0.5129c-0.27756,0.94263 -2.24819,0.34656 -1.69308,-0.5129z" fill="#000000"/><path d="M241.69396,173.27463c-0.33306,-0.59607 0.95757,-1.1367 1.12409,-0.26338c0.11103,0.67924 -0.72163,0.36041 -1.12409,0.26338z" fill="#824600"/><g fill="#000000"><path d="M240.57323,172.67673l-0.08327,0.19406h-0.13878c-0.04164,-0.23566 0.13878,-0.59607 0.22205,-0.19406z"/><path d="M243.57083,173.17577l-0.12491,-0.01385l-0.04164,-0.27724c0.08327,-0.09705 0.08327,-0.09705 0.16653,-0.06932c0.04164,0.1109 0.04164,0.23566 0,0.36042z"/></g></g><g><path d="M233.09403,184.59313c-0.06767,-0.09723 -0.06458,-1.7134 0.53709,-3.00108c0.74072,-1.56264 2.1352,-2.87681 2.72472,-3.41431l2.05417,1.41642c-0.75009,0.47733 -1.69662,0.97094 -1.93404,1.14437c-0.40482,0.29403 -1.57406,1.47694 -1.55479,1.47338c-0.1926,0.25491 -0.37375,0.51766 -0.50144,0.8005c-0.09969,0.21782 -0.21484,0.67785 -0.27949,0.86929c-0.18959,0.54355 -0.20233,0.85505 -0.29442,0.8421c-0.06492,-0.02792 0.0586,-0.76872 -0.06856,-0.75527c-0.12713,0.01344 -0.20502,0.78576 -0.30854,0.76495c-0.13069,-0.00583 0.03224,-0.80378 -0.14137,-0.77175c-0.16573,0.02057 -0.09446,0.84513 -0.23332,0.63139z" fill="#a0640a"/><path d="M237.49829,180.55006c-0.04565,-0.03148 -1.98687,-2.24659 -1.98687,-2.24659c0,0 1.80745,-1.40027 2.35079,-1.69991c0,0 2.36604,-1.45336 3.24131,-0.15868c0.87527,1.29466 -0.70833,2.17499 -0.70833,2.17499c0.03858,-0.00713 -2.73387,1.84032 -2.8969,1.93019z" fill="#be0a3c"/><path d="M233.94343,182.97056c0.20047,-0.26632 0.53306,-0.13816 0.53306,-0.13816c0,0 0.17699,1.18406 0.04551,1.22823c-0.12361,0.03275 -0.2038,-0.24167 -0.33045,-0.49758c-0.40238,0.14398 -0.46788,-0.32262 -0.24813,-0.5925z" fill="#824600"/></g><g><g><path d="M238.78336,187.83117c0.22463,-0.33095 0.24152,-0.71896 0.27206,-1.07916c0.27929,-0.21962 2.12172,0.21058 2.46758,0.35192c-0.14417,0.69201 -0.33019,1.41142 -0.7789,2.004c-0.30518,-0.01623 -0.69041,-0.44896 -0.95289,-0.60348c-0.31756,-0.21042 -0.69074,-0.4074 -1.00787,-0.67326z" fill="#a0640a"/><path d="M242.45218,185.40605l-0.43444,2.32554l-3.50393,-0.92832l0.54556,-2.33852c0,0 0.39958,-1.41087 2.08949,-0.99569c1.71765,0.41539 1.30346,1.92316 1.30335,1.93701z" fill="#000000"/></g><g><path d="M234.82395,188.31288l-0.31276,0.95407c-0.12629,0.17922 -0.35157,0.59332 -0.45,0.75894l-0.16664,0.01256c0.04293,-0.16601 0.43002,-1.75719 0.56924,-1.81155l0.20817,0.00161c0.06916,0.02825 0.06916,0.02825 0.15199,0.08436z" fill="#000000"/><path d="M236.32149,190.26528c-0.67784,-0.28254 -1.23055,-0.59183 -1.82405,-1.0123l0.31276,-0.95407c0.66256,0.46262 1.65936,0.77536 2.46596,0.55984c0.48699,-0.16254 0.91947,-0.45031 1.22788,-0.84994c0.05605,-0.06887 0.19654,-0.28956 0.23883,-0.37242l2.37644,1.36316c-0.22453,0.3171 -0.77071,0.95052 -1.09161,1.16981c-0.19535,0.13711 -0.57091,0.24507 -1.01543,0.29708c-0.45889,0.12119 -0.9032,0.14548 -1.36107,0.12803c-0.06937,-0.00054 -0.94246,-0.15981 -1.32973,-0.32918z" fill="#f01446"/></g><path d="M240.58569,189.79981l-2.24883,-1.70871l0.22409,-0.26165l2.3746,1.59881z" fill="#f5cfcf"/><path d="M239.58157,190.42968l-1.63619,-1.96736l0.27929,-0.21962l1.99722,1.94242z" fill="#f5cfcf"/></g><g><path d="M247.17765,184.96452c-0.05167,0.45838 -1.86234,0.12079 -2.02846,0.04943c0.16445,-0.11118 1.90145,-0.22558 2.02846,-0.04943z" fill="#824600"/><path d="M239.41977,180.97035l2.54082,0.07796c-0.00703,0.73229 0.37096,1.5003 0.82968,1.98794c0.3702,0.37554 1.21394,0.89886 1.66429,1.1629c0.96883,0.60135 3.37248,1.47502 3.33115,1.56612c-0.04133,0.0911 -0.83339,-0.20161 -0.89766,-0.07865c-0.06421,0.12297 1.04032,0.35067 0.95318,0.50547c-0.08712,0.15482 -1.00654,-0.22962 -1.0599,0.04623c-0.05336,0.27583 0.84433,0.35449 0.72314,0.47267c-0.12118,0.11818 -3.38455,-0.60127 -4.83865,-1.25007c-0.77143,-0.33825 -1.46021,-0.8587 -1.989,-1.51774c-0.45173,-0.53097 -1.20938,-2.24945 -1.25709,-2.97286z" fill="#a0640a"/><path d="M239.66441,176.00917c0,0 0.57215,-0.71196 1.92069,0.15091c1.34853,0.86286 0.79053,2.78173 0.79053,2.78173c-0.298,1.18752 -0.14732,2.45655 -0.14732,2.45655l-2.75055,0.6171c0,0 -0.29228,-0.50073 -0.4103,-2.00007c-0.11801,-1.49936 0.58997,-3.96291 0.59694,-4.00624z" fill="#f01446"/></g><g><g><path d="M239.04484,187.62242c-0.28044,-0.2852 -0.6576,-0.37789 -1.0048,-0.47851c-0.16056,-0.31695 0.62278,-2.03916 0.82923,-2.35057c0.65027,0.27715 1.3192,0.6007 1.81222,1.15698c-0.0758,0.29606 -0.5757,0.58889 -0.77871,0.81596c-0.26865,0.2701 -0.53501,0.59738 -0.85792,0.85619z" fill="#a0640a"/><path d="M237.38672,183.54909l2.19509,0.88229l-1.59778,3.25367l-2.18602,-0.9938c0,0 -1.30504,-0.66864 -0.56636,-2.24424c0.74434,-1.60276 2.14152,-0.90077 2.15509,-0.89795z" fill="#000000"/></g><g><path d="M238.7403,191.59939l0.87417,0.49387c0.15096,0.159 0.51281,0.46115 0.6559,0.59016l-0.02037,0.16586c-0.15436,-0.07467 -1.63866,-0.76644 -1.66464,-0.91362l0.04243,-0.20382c0.04128,-0.06228 0.04128,-0.06228 0.11254,-0.13249z" fill="#000000"/><path d="M240.94859,190.51405c-0.41004,0.60923 -0.82176,1.0905 -1.35053,1.58997l-0.87417,-0.49387c0.58363,-0.55891 1.08587,-1.47497 1.0328,-2.30818c-0.06384,-0.50942 -0.26114,-0.98995 -0.59249,-1.37078c-0.05653,-0.06847 -0.24537,-0.24955 -0.31832,-0.30725l1.80294,-2.06278c0.26688,0.28238 0.78083,0.94223 0.93289,1.29992c0.09611,0.21845 0.12829,0.60791 0.09206,1.05397c0.0288,0.47375 -0.03457,0.91419 -0.14151,1.35973c-0.01415,0.06791 -0.34162,0.89278 -0.58368,1.23929z" fill="#f01446"/></g><path d="M241.32885,186.2414l-2.11674,1.86985l-0.21259,-0.27107l2.03365,-2.01474z" fill="#f5cfcf"/><path d="M241.74945,187.3496l-2.25015,1.21837l-0.16056,-0.31695l2.29653,-1.57727z" fill="#f5cfcf"/></g><path d="M242.31366,183.99127l-7.46622,-0.65152c0,0 1.40166,-3.92297 2.17881,-5.50324c0.15265,-0.33269 1.1796,-1.46938 1.23511,-1.51097c0.52736,-0.38813 1.30451,-0.56834 1.94289,-0.62379c1.91512,-0.16634 2.95596,1.91297 2.91433,3.60414c-0.02776,0.90103 -0.81879,4.68537 -0.8049,4.68537z" fill="#f01446"/></g></g></svg>