<svg version="1.1" xmlns="http://www.w3.org/2000/svg" xmlns:xlink="http://www.w3.org/1999/xlink" width="183.41471" height="118.11399" viewBox="0,0,183.41471,118.11399"><g transform="translate(-148.29265,-120.94301)"><g data-paper-data="{&quot;isPaintingLayer&quot;:true}" fill-rule="nonzero" stroke-linejoin="miter" stroke-miterlimit="10" stroke-dasharray="" stroke-dashoffset="0" style="mix-blend-mode: normal"><path d="M317.68218,226.95245h-164.1275l13.96851,-92.94316h91.02722z" fill="none" stroke="#000000" stroke-width="2" stroke-linecap="round"/><path d="M164.86301,120.94305c0.62928,0 1.06458,0.06951 1.30604,0.20852c0.24146,0.13901 0.36218,0.34023 0.36218,0.60362c0,0.27804 -0.14268,0.49021 -0.42802,0.63656c-0.27806,0.13901 -0.72066,0.20852 -1.32799,0.20852c-0.30002,0 -0.64025,-0.00367 -1.02068,-0.01097c-0.37315,-0.01463 -0.76098,-0.03659 -1.16336,-0.06586l0.1756,-0.13169c0.06586,0.33656 0.0841,0.69875 0.05487,1.08653c-0.02923,0.38779 -0.10974,0.75729 -0.24146,1.10849l-0.05487,-0.07682c0.20483,-0.0439 0.44629,-0.08049 0.72435,-0.10974c0.28536,-0.03659 0.57798,-0.06586 0.87802,-0.08781c0.30002,-0.02195 0.57439,-0.03292 0.82313,-0.03292c0.47561,0 0.81216,0.06219 1.00971,0.18659c0.19755,0.1244 0.29633,0.27438 0.29633,0.44997c0,0.19755 -0.11345,0.36583 -0.34023,0.50485c-0.22678,0.13901 -0.61092,0.20852 -1.15239,0.20852c-0.40238,0 -0.80488,-0.01463 -1.20726,-0.0439c-0.3951,-0.02927 -0.77553,-0.06951 -1.14141,-0.12073l0.13169,-0.13169c0.08051,0.23414 0.13899,0.50851 0.1756,0.82313c0.0439,0.30729 0.06586,0.61828 0.06586,0.93289c0,0.30729 -0.02923,0.57802 -0.08781,0.81216l-0.12073,-0.06586c0.24146,-0.08781 0.51952,-0.16463 0.83411,-0.23047c0.31459,-0.06586 0.63287,-0.11706 0.95484,-0.15365c0.32925,-0.03659 0.63656,-0.05487 0.9219,-0.05487c0.40978,0 0.71338,0.0439 0.91093,0.13169c0.20483,0.08781 0.30729,0.23779 0.30729,0.44997c0,0.16093 -0.05856,0.30361 -0.1756,0.42802c-0.10974,0.11704 -0.30002,0.22678 -0.5707,0.32925c-0.1756,0.05856 -0.38782,0.11704 -0.63656,0.1756c-0.24146,0.05118 -0.50116,0.0915 -0.77924,0.12073c-0.27069,0.03663 -0.54147,0.05487 -0.81216,0.05487c-0.46824,0 -0.85975,-0.06215 -1.17434,-0.18659c-0.30729,-0.12442 -0.53051,-0.311 -0.66948,-0.55974c-0.13899,-0.27069 -0.24514,-0.62557 -0.31828,-1.06458c-0.07314,-0.43901 -0.10974,-1.03898 -0.10974,-1.79992c0,-0.7024 0.02564,-1.28042 0.07682,-1.73406c0.05118,-0.46096 0.12073,-0.83411 0.20852,-1.11945c0.09509,-0.29266 0.20124,-0.52315 0.31828,-0.69143c0.18288,-0.24877 0.42802,-0.44266 0.73534,-0.58169c0.30729,-0.14633 0.6548,-0.24877 1.04263,-0.30729c0.38782,-0.06586 0.79389,-0.09878 1.21823,-0.09878z" fill="#0c0c0c" stroke="none" stroke-width="1" stroke-linecap="butt"/><path d="M151.76075,230.91347c0.49021,0 0.83776,0.07682 1.04263,0.23047c0.21219,0.14666 0.31828,0.34722 0.31828,0.60362c0,0.30033 -0.14268,0.51981 -0.42802,0.65851c-0.27804,0.13868 -0.70971,0.20852 -1.29505,0.20852c-0.24146,0 -0.51583,-0.004 -0.82313,-0.01097c-0.30729,-0.01497 -0.62192,-0.03292 -0.94385,-0.05487l0.10974,-0.20852c0.05122,0.25642 0.07315,0.5707 0.06586,0.94385c-0.00732,0.36617 -0.0439,0.71736 -0.10974,1.05362l-0.10974,-0.16463c0.84875,0.05887 1.51822,0.15765 2.00844,0.29633c0.49021,0.13868 0.83776,0.30331 1.04263,0.49388c0.21219,0.19057 0.31828,0.40209 0.31828,0.63656c0,0.18259 -0.06219,0.33623 -0.18659,0.46096c-0.1244,0.11673 -0.31461,0.1756 -0.5707,0.1756c-0.36583,0 -0.79021,-0.08781 -1.27312,-0.26341c-0.4756,-0.18259 -0.96947,-0.44299 -1.48164,-0.77924l0.24146,-0.02195c0.06586,0.19057 0.12805,0.44599 0.18659,0.76825c0.06586,0.31428 0.11706,0.65153 0.15365,1.00971c0.0439,0.3512 0.06586,0.67646 0.06586,0.97679c0,0.38812 -0.07315,0.67348 -0.2195,0.85606c-0.13901,0.18259 -0.33291,0.27438 -0.58169,0.27438c-0.1756,0 -0.32195,-0.04789 -0.43901,-0.14268c-0.11706,-0.08781 -0.20852,-0.22348 -0.27438,-0.40607c-0.08049,-0.24844 -0.15,-0.62557 -0.20852,-1.13044c-0.05122,-0.50485 -0.07682,-1.11247 -0.07682,-1.82187c0,-1.04663 0.05854,-1.87674 0.1756,-2.49135c0.11706,-0.62159 0.26706,-1.0606 0.44997,-1.317c0.15365,-0.20454 0.38047,-0.36617 0.68046,-0.48291c0.3,-0.12471 0.64021,-0.21252 1.02068,-0.26341c0.38047,-0.05887 0.76094,-0.08781 1.14141,-0.08781z" fill="#0c0c0c" stroke="none" stroke-width="1" stroke-linecap="butt"/><path d="M329.99523,234.72282c-0.2195,0.02894 -0.42404,0.04789 -0.61461,0.05487c-0.18259,0.00699 -0.35818,0.01097 -0.5268,0.01097c-0.48988,0 -0.81914,-0.03692 -0.98776,-0.10974c-0.16861,-0.08082 -0.25242,-0.2155 -0.25242,-0.40607c0,-0.12471 0.0399,-0.23746 0.12073,-0.34023c0.08781,-0.10278 0.21252,-0.19057 0.37315,-0.26341c0.19057,-0.08082 0.46795,-0.15365 0.83411,-0.2195c0.37315,-0.07284 0.75729,-0.10974 1.15239,-0.10974c0.51183,0 0.90693,0.0439 1.18531,0.13169c0.28536,0.08082 0.42802,0.23746 0.42802,0.47193c0,0.18259 -0.07284,0.34023 -0.2195,0.47193c-0.14666,0.12471 -0.38812,0.20454 -0.72435,0.24146zM330.80738,234.50331c0.19057,0.24146 0.32527,0.48689 0.40607,0.73534c0.08082,0.24844 0.12073,0.47193 0.12073,0.66948c0,0.32925 -0.09878,0.64753 -0.29633,0.95484c-0.19057,0.30033 -0.48988,0.54875 -0.89995,0.7463c-0.41007,0.19057 -0.94785,0.28536 -1.61333,0.28536c-0.85606,0 -1.56945,-0.15765 -2.14015,-0.47193c-0.56372,-0.32226 -0.98376,-0.77225 -1.26213,-1.34994c-0.27838,-0.58567 -0.41706,-1.26613 -0.41706,-2.04137c0,-0.83411 0.1756,-1.57343 0.5268,-2.21697c0.3512,-0.64355 0.84908,-1.14541 1.4926,-1.50359c0.64355,-0.36617 1.39783,-0.54875 2.26088,-0.54875c0.71736,0 1.26613,0.12771 1.64627,0.38414c0.38812,0.24844 0.58169,0.54176 0.58169,0.87802c0,0.20454 -0.06984,0.36617 -0.20852,0.48291c-0.13169,0.10974 -0.32527,0.16463 -0.58169,0.16463c-0.15365,0 -0.31428,-0.02593 -0.48291,-0.07682c-0.16063,-0.05089 -0.34421,-0.09878 -0.54875,-0.14268c-0.19755,-0.05089 -0.42404,-0.07682 -0.68046,-0.07682c-0.46795,0 -0.89995,0.08781 -1.29505,0.26341c-0.3951,0.16861 -0.71338,0.44997 -0.95484,0.84508c-0.23447,0.38812 -0.3512,0.91093 -0.3512,1.56945c0,0.56372 0.10576,1.02468 0.31828,1.38286c0.2195,0.3512 0.52282,0.61061 0.91093,0.77924c0.38812,0.16063 0.83011,0.24146 1.32799,0.24146c0.33623,0 0.59964,-0.03692 0.79021,-0.10974c0.19755,-0.07284 0.33623,-0.18259 0.41706,-0.32925c0.08781,-0.14666 0.13169,-0.33325 0.13169,-0.55974c0,-0.12471 -0.01795,-0.27838 -0.05487,-0.46096c-0.02894,-0.18259 -0.07682,-0.36617 -0.14268,-0.54875z" fill="#0c0c0c" stroke="none" stroke-width="1" stroke-linecap="butt"/><path d="M264.32028,122.42619c0.21252,0 0.37315,0.07317 0.48291,0.2195c0.10974,0.13903 0.16463,0.3695 0.16463,0.69143c0,0.40242 -0.04689,0.85606 -0.14268,1.36091c-0.09478,0.50485 -0.23047,0.98411 -0.40607,1.43773l-0.1756,-0.2195c0.58567,-0.12438 1.19329,-0.18292 1.82187,-0.1756c0.62957,0.00732 1.20028,0.08049 1.71211,0.2195l-0.19755,0.09878c-0.09478,-0.49021 -0.16762,-0.97679 -0.2195,-1.45969c-0.0439,-0.48291 -0.06586,-0.91093 -0.06586,-1.28409c0,-0.34388 0.05189,-0.58899 0.15365,-0.73534c0.10278,-0.14633 0.26739,-0.2195 0.49388,-0.2195c0.23447,0 0.41706,0.08414 0.54875,0.25242c0.13169,0.16098 0.23447,0.41706 0.30729,0.76825c0.08082,0.36583 0.14268,0.80851 0.18659,1.32799c0.05189,0.51218 0.07682,1.03898 0.07682,1.58041c0,0.53413 -0.01397,1.07922 -0.0439,1.63528c-0.02894,0.55613 -0.08381,1.07194 -0.16463,1.54748c-0.06586,0.38053 -0.17162,0.65492 -0.31828,0.82313c-0.14567,0.16832 -0.34722,0.25242 -0.60362,0.25242c-0.26341,0 -0.45298,-0.0841 -0.5707,-0.25242c-0.10974,-0.16822 -0.16463,-0.48291 -0.16463,-0.94385c0,-0.44629 0.03292,-0.91093 0.09878,-1.39381c0.07384,-0.48291 0.17261,-0.95849 0.29633,-1.42677l0.23047,0.34023c-0.55574,0.11708 -1.13742,0.1756 -1.74505,0.1756c-0.59964,-0.00732 -1.18531,-0.06586 -1.75601,-0.1756l0.02195,-0.37315c0.14666,0.4756 0.28236,0.96581 0.40607,1.47067c0.13169,0.50483 0.19755,1.00969 0.19755,1.51454c0,0.40248 -0.06884,0.68784 -0.20852,0.85606c-0.13868,0.16104 -0.33623,0.24146 -0.59266,0.24146c-0.2195,0 -0.3951,-0.06215 -0.5268,-0.18659c-0.13169,-0.12432 -0.22649,-0.35479 -0.28536,-0.69143c-0.05788,-0.32925 -0.10576,-0.73893 -0.14268,-1.22921c-0.03592,-0.49751 -0.05487,-1.02066 -0.05487,-1.56943c0,-0.65118 0.02993,-1.28409 0.08781,-1.89869c0.05887,-0.61461 0.13569,-1.14141 0.23047,-1.58041c0.07384,-0.34388 0.1796,-0.5963 0.31828,-0.75729c0.13968,-0.16096 0.32226,-0.24146 0.54875,-0.24146z" fill="#0c0c0c" stroke="none" stroke-width="1" stroke-linecap="butt"/></g></g></svg>