<svg viewBox="0,0,480,361.60431" height="361.60431" width="480" xmlns:xlink="http://www.w3.org/1999/xlink" xmlns="http://www.w3.org/2000/svg" version="1.1"><g transform="translate(0,0.60431)"><g style="mix-blend-mode: normal" stroke-dashoffset="0" stroke-dasharray="" stroke-miterlimit="10" stroke-linejoin="miter" stroke-linecap="butt" fill-rule="nonzero" data-paper-data="{&quot;isPaintingLayer&quot;:true}"><g><path stroke-width="1" stroke="none" fill="#ececec" d="M0,-0.60005h480v361.60005h-480z"></path><path stroke-width="1.5" stroke="#dcd6d6" fill="none" d="M40.75,-0.60212l1.0452,361.59919"></path><path stroke-width="1.5" stroke="#dcd6d6" fill="none" d="M60.75,-0.60212l1.0452,361.59919"></path><path stroke-width="1.5" stroke="#dcd6d6" fill="none" d="M20.75,-0.60239l0.92797,361.59995"></path><path stroke-width="1.5" stroke="#dcd6d6" fill="none" d="M100.75,-0.60212l1.045,361.59919"></path><path stroke-width="1.5" stroke="#dcd6d6" fill="none" d="M120.75,-0.60212l1.045,361.59919"></path><path stroke-width="1.5" stroke="#dcd6d6" fill="none" d="M80.75,-0.60212l1.0452,361.59919"></path><path stroke-width="1.5" stroke="#dcd6d6" fill="none" d="M160.75,-0.60212l1.045,361.59919"></path><path stroke-width="1.5" stroke="#dcd6d6" fill="none" d="M180.75,-0.60212l1.045,361.59919"></path><path stroke-width="1.5" stroke="#dcd6d6" fill="none" d="M140.75,-0.60212l1.045,361.59919"></path><path stroke-width="1.5" stroke="#dcd6d6" fill="none" d="M220.75,-0.60212l1.045,361.59919"></path><path stroke-width="1.5" stroke="#dcd6d6" fill="none" d="M240.75,-0.60212l1.045,361.59919"></path><path stroke-width="1.5" stroke="#dcd6d6" fill="none" d="M201.795,360.99707l-1.045,-361.59919"></path><path stroke-width="1.5" stroke="#dcd6d6" fill="none" d="M280.75,-0.60212l1.045,361.59919"></path><path stroke-width="1.5" stroke="#dcd6d6" fill="none" d="M300.75,-0.60212l1.045,361.59919"></path><path stroke-width="1.5" stroke="#dcd6d6" fill="none" d="M260.75,-0.60212l1.045,361.59919"></path><path stroke-width="1.5" stroke="#dcd6d6" fill="none" d="M340.75,-0.60212l1.045,361.59919"></path><path stroke-width="1.5" stroke="#dcd6d6" fill="none" d="M360.75,-0.60212l1.045,361.59919"></path><path stroke-width="1.5" stroke="#dcd6d6" fill="none" d="M320.75,-0.60212l1.045,361.59919"></path><path stroke-width="1.5" stroke="#dcd6d6" fill="none" d="M400.75,-0.60212l1.045,361.59919"></path><path stroke-width="1.5" stroke="#dcd6d6" fill="none" d="M420.75,-0.60212l1.045,361.59919"></path><path stroke-width="1.5" stroke="#dcd6d6" fill="none" d="M380.75,-0.60212l1.045,361.59919"></path><path stroke-width="1.5" stroke="#dcd6d6" fill="none" d="M460.75,-0.60212l1.045,361.59919"></path><path stroke-width="1.5" stroke="#dcd6d6" fill="none" d="M440.75,-0.60212l1.045,361.59919"></path><path stroke-width="1.5" stroke="#dcd6d6" fill="none" d="M0,18.75591l480,-0.0001"></path><path stroke-width="1.5" stroke="#dcd6d6" fill="none" d="M0,38.84484h480"></path><path stroke-width="1.5" stroke="#dcd6d6" fill="none" d="M480,58.93358l-480,0.0001"></path><path stroke-width="1.5" stroke="#dcd6d6" fill="none" d="M0,79.02271h480"></path><path stroke-width="1.5" stroke="#dcd6d6" fill="none" d="M0,99.11165h480"></path><path stroke-width="1.5" stroke="#dcd6d6" fill="none" d="M0,119.2h480"></path><path stroke-width="1.5" stroke="#dcd6d6" fill="none" d="M0,139.28932h480"></path><path stroke-width="1.5" stroke="#dcd6d6" fill="none" d="M0,159.37767h480"></path><path stroke-width="1.5" stroke="#dcd6d6" fill="none" d="M0,179.467h480"></path><path stroke-width="1.5" stroke="#dcd6d6" fill="none" d="M0,199.55633h480"></path><path stroke-width="1.5" stroke="#dcd6d6" fill="none" d="M0,219.64468h480"></path><path stroke-width="1.5" stroke="#dcd6d6" fill="none" d="M0,239.734h480"></path><path stroke-width="1.5" stroke="#dcd6d6" fill="none" d="M0,259.82235h480"></path><path stroke-width="1.5" stroke="#dcd6d6" fill="none" d="M0,279.91168h480"></path><path stroke-width="1.5" stroke="#dcd6d6" fill="none" d="M0,300.00003h480"></path><path stroke-width="1.5" stroke="#dcd6d6" fill="none" d="M0,320.08935h480"></path><path stroke-width="1.5" stroke="#dcd6d6" fill="none" d="M480,340.1777h-480"></path><g><path stroke-width="1" stroke="none" fill="#ebebeb" d="M11,350.24973v-341.07681h459v341.07681z"></path><path stroke-width="0.5" stroke="#000000" fill="none" d="M10.75,350.49405v-341.56546h459.5v341.56546z"></path></g><path stroke-width="1" stroke="none" fill="#737373" d="M454.94595,18.44552c0,-2.96211 2.25069,-5.36337 5.02705,-5.36337c2.77636,0 5.02705,2.40126 5.02705,5.36337c0,2.96211 -2.25069,5.36337 -5.02705,5.36337c-2.77636,0 -5.02705,-2.40126 -5.02705,-5.36337z"></path><path stroke-width="1" stroke="none" fill="#737373" d="M16.99995,18.44552c0,-2.96211 2.25069,-5.36337 5.02705,-5.36337c2.77636,0 5.02705,2.40126 5.02705,5.36337c0,2.96211 -2.25069,5.36337 -5.02705,5.36337c-2.77636,0 -5.02705,-2.40126 -5.02705,-5.36337z"></path><path stroke-width="1" stroke="none" fill="#737373" d="M16.99995,340.97713c0,-2.96211 2.25069,-5.36337 5.02705,-5.36337c2.77636,0 5.02705,2.40126 5.02705,5.36337c0,2.96211 -2.25069,5.36337 -5.02705,5.36337c-2.77636,0 -5.02705,-2.40126 -5.02705,-5.36337z"></path><path stroke-width="1" stroke="none" fill="#737373" d="M454.94595,340.97713c0,-2.96211 2.25069,-5.36337 5.02705,-5.36337c2.77636,0 5.02705,2.40126 5.02705,5.36337c0,2.96211 -2.25069,5.36337 -5.02705,5.36337c-2.77636,0 -5.02705,-2.40126 -5.02705,-5.36337z"></path></g><path stroke-width="1" stroke="#000000" fill="#fd7676" d="M180.895,156.74483l38.105,-64.50163l38.105,64.50163z"></path><path stroke-width="1" stroke="#000000" fill="#47db71" d="M80.5,159.18808v-67.43352h69v67.43352z"></path><path stroke-width="1" stroke="#000000" fill="#47a6db" d="M85.5,186.55241h139v67.43352h-139z"></path><path stroke-width="1" stroke="none" fill="#d4f34e" d="M281.5,187.04106h120l-23.5,65.47893l-121,0.48865z"></path><path stroke-width="1" stroke="#000000" fill="none" d="M281,187.04106h121"></path><path stroke-width="1" stroke="#000000" fill="none" d="M256,253.49728l122.5,-0.48865"></path><path stroke-width="1" stroke="#181717" fill="none" d="M256.357,253.43767l25.143,-66.39661"></path><path stroke-width="1" stroke="#181717" fill="none" d="M402,186.55241l-24.018,66.09658"></path><path stroke-width="1" stroke="none" fill="#dd4ef3" d="M304.314,92.2432l71,0.48865l23.5,62.54704h-118.5z"></path><path stroke-width="1" stroke="#000000" fill="none" d="M304,91.75455l72,0.9773"></path><path stroke-width="1" stroke="#000000" fill="none" d="M280,155.76754l119.999,-0.47888"></path><path stroke-width="1" stroke="#181717" fill="none" d="M280,155.97081l24.5,-64.70491"></path><path stroke-width="1" stroke="#181717" fill="none" d="M399.482,155.89654l-23.982,-63.65334"></path></g></g></svg>