<svg version="1.1" xmlns="http://www.w3.org/2000/svg" xmlns:xlink="http://www.w3.org/1999/xlink" width="34.44726" height="47.36498" viewBox="0,0,34.44726,47.36498"><defs><linearGradient x1="257.22363" y1="184.86912" x2="222.51535" y2="171.2591" gradientUnits="userSpaceOnUse" id="color-1"><stop offset="0" stop-color="#79b9c5"/><stop offset="1" stop-color="#7cbcc8"/></linearGradient><linearGradient x1="257.22363" y1="203.68249" x2="221.55589" y2="157.82001" gradientUnits="userSpaceOnUse" id="color-2"><stop offset="0" stop-color="#000000" stop-opacity="0.2"/><stop offset="0.33854" stop-color="#000000" stop-opacity="0"/><stop offset="0.63021" stop-color="#ffffff" stop-opacity="0"/><stop offset="1" stop-color="#ffffff" stop-opacity="0.3"/></linearGradient><clipPath id="clip-1"><path d="M230.97016,193.83143v-19.24379h19.39751v19.24379z" fill="none"/></clipPath><linearGradient x1="223.22228" y1="177.57163" x2="222.77637" y2="177.57163" gradientUnits="userSpaceOnUse" id="color-3"><stop offset="0" stop-color="#7cbcc8" stop-opacity="0"/><stop offset="0.61458" stop-color="#155662"/></linearGradient><linearGradient x1="256.77753" y1="177.57162" x2="257.22363" y2="177.57162" gradientUnits="userSpaceOnUse" id="color-4"><stop offset="0" stop-color="#7cbcc8" stop-opacity="0"/><stop offset="0.61458" stop-color="#155662"/></linearGradient><linearGradient x1="226.00924" y1="177.45469" x2="224.28137" y2="177.45469" gradientUnits="userSpaceOnUse" id="color-5"><stop offset="0" stop-color="#7cbcc8" stop-opacity="0"/><stop offset="0.35417" stop-color="#186d7d" stop-opacity="0.6"/><stop offset="0.64063" stop-color="#186d7d" stop-opacity="0.6"/><stop offset="1" stop-color="#7cbcc8" stop-opacity="0"/></linearGradient></defs><g transform="translate(-222.77637,-156.31751)"><g data-paper-data="{&quot;isPaintingLayer&quot;:true}" fill-rule="nonzero" stroke="none" stroke-width="1" stroke-linecap="butt" stroke-linejoin="miter" stroke-miterlimit="10" stroke-dasharray="" stroke-dashoffset="0" style="mix-blend-mode: normal"><path d="M222.77637,203.68249v-47.36498h34.44726v47.36498z" fill="url(#color-1)"/><path d="M222.77637,203.68249v-47.36498h34.44726v47.36498z" fill="url(#color-2)"/><g clip-path="url(#clip-1)" opacity="0.8"><path d="M248.19586,191.59925c0,0 0.01465,-0.31606 0.31864,-0.27988z" fill="#3f3d56"/><path d="M247.95816,191.14283c0,-0.08526 0.06804,-0.15501 0.15157,-0.15501c0.08439,0 0.15242,0.06975 0.15242,0.15501c0,0.08611 -0.06803,0.15502 -0.15242,0.15502c-0.08353,0 -0.15157,-0.06889 -0.15157,-0.15502z" fill="#ffffff"/><path d="M248.1287,191.71034h-0.04306v-0.30573h0.04306z" fill="#3f3d56"/><path d="M237.86806,182.29073c0,0.07751 -0.0025,0.15415 -0.00741,0.2308c-0.02765,0.44007 -0.13668,0.8698 -0.32122,1.26852c-0.00147,0.00345 -0.00319,0.00688 -0.00456,0.00947c-0.00861,0.01895 -0.0174,0.03703 -0.02653,0.05511c-0.05485,0.11281 -0.11575,0.22218 -0.18239,0.32811c-0.30443,0.48657 -0.72167,0.88874 -1.21478,1.17207c-0.4932,0.28246 -1.04711,0.43747 -1.6129,0.4504l0.0341,1.9988l0.44481,-0.23855l0.07939,0.15329l-0.52085,0.27989l0.06363,3.71255l0.00077,0.04908l-0.34395,0.07836l0.00069,-0.04995l0.10834,-5.98349c-0.45539,-0.00688 -0.90493,-0.10593 -1.32261,-0.29108c-0.41759,-0.18515 -0.79496,-0.45298 -1.11015,-0.78798c-0.02171,-0.0224 -0.04315,-0.0465 -0.06417,-0.06975c-0.00095,-0.00087 -0.00164,-0.00172 -0.00232,-0.00258c-0.26266,-0.29194 -0.47504,-0.62694 -0.62823,-0.99036c0.00335,0.00345 0.00688,0.00688 0.01025,0.0112c-0.34629,-0.82501 -0.36971,-1.75422 -0.06562,-2.59646c0.30408,-0.84224 0.91277,-1.53377 1.70127,-1.93421c0.01189,-0.00603 0.02411,-0.0112 0.036,-0.01723c0.77997,-0.38322 1.67267,-0.45384 2.50105,-0.1972c0.82837,0.25663 1.53204,0.82071 1.9716,1.58027c0.02093,0.03618 0.04125,0.0732 0.0608,0.11023c0.273,0.5124 0.41569,1.08681 0.415,1.67069z" fill="#e5e5e5"/><path d="M232.88327,179.19478c0,-2.54445 2.02387,-4.60715 4.52052,-4.60715c2.49631,0 4.52009,2.0627 4.52009,4.60715c0,2.54393 -2.02378,4.60732 -4.52009,4.60732c-2.49665,0 -4.52052,-2.06338 -4.52052,-4.60732z" fill="#ffffff"/><path d="M234.06593,176.11752c-0.9814,2.34009 0.08405,5.04764 2.37987,6.04747c0.871,0.37977 1.83698,0.47107 2.7619,0.26008c0.92405,-0.21013 1.76025,-0.71048 2.39064,-1.43128c-0.98088,2.33983 -3.63798,3.42578 -5.9338,2.42509c-2.29591,-0.99983 -3.36154,-3.70738 -2.38023,-6.04722c0.1923,-0.45832 0.45625,-0.88193 0.78161,-1.25414z" fill="#000000" opacity="0.2"/><path d="M237.64836,192.02897l-0.46168,-0.13176l0.00095,-0.05081l0.1383,-7.66364l0.00688,-0.3815l0.00026,-0.01119l0.02411,-1.33914l0.03505,-1.94024v-0.00087l0.02385,-1.31502h0.01266l0.02429,1.42526l0.0317,1.85498l0.02264,1.31589v0.00947l0.00103,0.05426v0l0.04383,2.56631l0.00456,0.25491l0.09059,5.3023z" fill="#3f3d56"/><path d="M238.23931,186.309l-0.74725,0.40131l-0.10411,-0.20152l0.74725,-0.40131z" fill="#3f3d56"/><path d="M237.31517,193.00469h-2.13151v-0.04823h2.13151z" fill="#cbcbcb"/><path d="M241.22631,193.83143h-2.13141v-0.04823h2.13141z" fill="#cbcbcb"/><path d="M247.30799,193.19931h-2.13143v-0.04823h2.13143z" fill="#cbcbcb"/><path d="M246.33483,191.17296v-1.41406c0,0 0.54083,1.00241 0,1.41406z" fill="#f1f1f1"/><path d="M246.36843,191.17296l-1.02222,-0.95677c0,0 1.09025,0.27213 1.02222,0.95677z" fill="#f1f1f1"/><path d="M235.76918,191.51313v-1.41406c0,0 0.54074,1.00241 0,1.41406z" fill="#f1f1f1"/><path d="M235.8026,191.51313l-1.02205,-0.95678c0,0 1.09025,0.27214 1.02205,0.95678z" fill="#f1f1f1"/><path d="M239.44194,192.53448v-1.75852c0,0 0.67258,1.24613 0,1.75852z" fill="#f1f1f1"/><path d="M239.48329,192.53362l-1.2706,-1.18929c0,0 1.35584,0.33844 1.2706,1.18929z" fill="#f1f1f1"/><path d="M250.36777,192.31919l-0.01292,0.0465l-4.00277,-1.16173l-3.01586,0.67775l-3.85637,0.67085l-0.00517,-0.00087l-1.82631,-0.52273l-0.46168,-0.13176l-1.41027,-0.40389l-1.1763,0.26696l-0.34395,0.07836l-0.74768,0.16965l-0.01025,-0.04736l0.75871,-0.17224l0.34248,-0.07751l1.17836,-0.26783l0.00577,0.00172l1.40407,0.40131l0.45978,0.13176l1.835,0.52446l3.84431,-0.66915l3.02619,-0.67947l0.00603,0.00172z" fill="#cbcbcb"/><path d="M243.20618,177.53933c0.07061,0.0539 0.12401,0.12711 0.15501,0.2109l-0.61057,-0.22589c0,0 0.20152,-0.10265 0.38667,-0.02429c0.03961,-0.10429 0.13692,-0.23605 0.37462,-0.20945z" fill="#3f3d56"/><path d="M231.99685,177.44212c0.07019,0.0539 0.12384,0.12711 0.15458,0.2109l-0.61057,-0.22589c0,0 0.20168,-0.10265 0.38684,-0.02429c0.03987,-0.10429 0.13727,-0.23605 0.37436,-0.20945z" fill="#3f3d56"/><path d="M242.53875,182.18222c0.06975,0.0534 0.12401,0.12659 0.15415,0.21099l-0.61057,-0.22649c0,0 0.20152,-0.10248 0.38754,-0.02411c0.03961,-0.10421 0.13692,-0.23597 0.37376,-0.20927z" fill="#3f3d56"/><path d="M240.80003,191.96352l0.34447,0.13004l-0.44523,0.87495l-0.23338,-0.0887z" fill="#ffb7b7"/><path d="M240.43488,192.77993l0.45901,0.17396v0c0.07836,0.02928 0.14123,0.08871 0.17569,0.16622c0.03445,0.07664 0.0379,0.16362 0.00861,0.24285l-0.00345,0.00947l-0.75181,-0.28419z" fill="#2f2e41"/><path d="M242.76093,192.14867h0.36772l-0.11884,0.97831h-0.24803z" fill="#ffb7b7"/><path d="M242.71788,193.0443h0.49001v0c0.08353,0 0.16276,0.03358 0.22132,0.09301c0.05856,0.05941 0.09129,0.14037 0.09129,0.22477v0.01033h-0.80262z" fill="#2f2e41"/><path d="M241.62246,186.34345l0.08096,-0.16534l0.6898,0.35222l-0.01981,0.14469l0.13176,0.17569c0,0 0.22305,0.12401 0.18257,0.53738l-0.04048,0.39356l-0.05081,0.50638l0.35481,1.25129l0.18257,1.65433l0.13262,1.33397l-0.63985,-0.031l-0.58819,-2.17104l-1.03514,2.33725l-0.71048,-0.18687l0.974,-2.31571l0.12229,-0.97228c0,0 -0.08095,-0.51758 0.304,-0.86894l-0.06029,-0.18602v-0.22907l-0.20324,-1.09457z" fill="#2f2e41"/><path d="M242.0496,190.32211l-0.0224,0.00602l-0.44695,-1.613l0.02325,-0.00602z" fill="#000000" opacity="0.2"/><path d="M241.64226,188.28799h0.99466v0.10334h-0.99466z" fill="#3f3d56"/><path d="M242.59645,188.35c0,-0.05683 0.01808,-0.10334 0.04047,-0.10334c0.0224,0 0.04048,0.04651 0.04048,0.10334c0,0.05683 -0.01808,0.10334 -0.04048,0.10334c-0.0224,0 -0.04047,-0.04651 -0.04047,-0.10334z" fill="#3f3d56"/><path d="M241.92903,186.07649c-0.2618,-0.1464 -0.35826,-0.48141 -0.2153,-0.74838c0.14382,-0.26696 0.47193,-0.36514 0.73459,-0.2196c0.2618,0.1464 0.35826,0.48141 0.2153,0.74838c-0.14382,0.26696 -0.4728,0.36514 -0.73459,0.2196z" fill="#ffb7b7"/><path d="M240.88185,184.90786c0,-0.26955 0.21443,-0.48743 0.47882,-0.48743c0.26438,0 0.47882,0.21788 0.47882,0.48743c0,0.26955 -0.21443,0.4883 -0.47882,0.4883c-0.26438,0 -0.47882,-0.21875 -0.47882,-0.4883z" fill="#2f2e41"/><path d="M240.75352,184.8562c-0.01465,0.12143 0.0155,0.24372 0.08526,0.34361c0.06975,0.09989 0.17309,0.1688 0.29108,0.19377c0.11712,0.02583 0.24027,0.00517 0.34361,-0.05771c0.10334,-0.06286 0.17912,-0.16276 0.21357,-0.27988c-0.00861,0.06631 -0.03015,0.1309 -0.06373,0.18945c-0.03445,0.0577 -0.07923,0.10764 -0.13348,0.1464c-0.0534,0.03961 -0.11539,0.06716 -0.17999,0.08095c-0.06458,0.01378 -0.13177,0.01378 -0.19635,-0.00087c-0.06458,-0.01378 -0.12574,-0.04133 -0.17999,-0.08009c-0.0534,-0.03961 -0.09903,-0.08957 -0.13262,-0.14727c-0.03358,-0.0577 -0.05511,-0.12229 -0.06373,-0.18945c-0.00775,-0.06716 -0.00258,-0.13434 0.01636,-0.19893z" fill="#2f2e41"/><path d="M242.64382,185.43921c0.01465,0.12659 -0.01292,0.25405 -0.07664,0.36256c-0.06458,0.10851 -0.1619,0.1929 -0.27816,0.23941c-0.11539,0.04651 -0.24285,0.05253 -0.36256,0.01808c-0.11971,-0.03531 -0.22477,-0.10937 -0.29883,-0.21099c-0.07406,-0.10248 -0.11368,-0.22649 -0.11109,-0.35308c0.00172,-0.12659 0.04478,-0.24975 0.12229,-0.34878c0.07751,-0.09989 0.18429,-0.17051 0.30486,-0.20152c0.12143,-0.03015 0.24888,-0.01981 0.36256,0.03015c0.09473,-0.07751 0.21185,-0.0534 0.30744,0.02842c0.10764,0.09301 0.13951,0.15674 0.22304,0.30916c-0.08268,0.0112 -0.11023,0.11539 -0.1929,0.12659z" fill="#2f2e41"/><path d="M240.65535,187.09784c-0.00172,-0.062 0.01033,-0.12316 0.03703,-0.17827l0.27902,-0.58904c0.0112,-0.02325 0.02755,-0.0422 0.04823,-0.05511c0.02067,-0.01378 0.04478,-0.02067 0.06976,-0.02067h0.58216c0.00688,0 0.01378,0.00172 0.01981,0.0043c0.00603,0.00258 0.0112,0.00603 0.0155,0.0112c0.00517,0.0043 0.0086,0.01033 0.01033,0.01636c0.00258,0.00603 0.0043,0.01292 0.00345,0.0198l-0.04995,2.02464c-0.00087,0.02583 -0.0112,0.04909 -0.02842,0.06718c-0.01808,0.01808 -0.04133,0.02842 -0.06631,0.02842l-0.45126,0.00861c-0.01895,0 -0.03703,-0.00517 -0.05253,-0.01465c-0.0155,-0.00947 -0.02842,-0.0241 -0.03618,-0.04047c-0.00603,-0.01292 -0.01206,-0.0267 -0.01981,-0.0422v0c-0.10334,-0.21702 -0.34274,-0.72167 -0.34274,-0.7389c0,-0.01636 -0.01206,-0.33844 -0.01808,-0.50121z" fill="#ffffff"/><path d="M241.64743,188.1347c0.10937,-0.06889 0.2084,-0.15501 0.2928,-0.25405c0.19549,-0.22477 0.31433,-0.5081 0.33931,-0.80779c0.02067,-0.24803 -0.02498,-0.43059 -0.13607,-0.54083c-0.12143,-0.12057 -0.28678,-0.12057 -0.32726,-0.11884l-0.13262,0.11454l-0.04134,-0.04995l0.14727,-0.12832l0.01033,-0.00087c0.00947,-0.00087 0.22735,-0.0241 0.38839,0.13521c0.12574,0.12574 0.17827,0.32553 0.15587,0.59421c-0.02583,0.31519 -0.15156,0.61229 -0.35739,0.84826c-0.08784,0.10506 -0.19204,0.19463 -0.30831,0.26611z" fill="#ffffff"/><path d="M241.62676,187.58786l-0.0043,0.02153l-0.78884,-0.16535l0.0043,-0.02153z" fill="#3f3d56"/><path d="M241.37961,186.25561l-0.05168,1.27971l-0.02067,-0.00087l0.05081,-1.27971z" fill="#3f3d56"/><path d="M240.65535,187.09784c-0.00087,-0.03186 0.00172,-0.06286 0.00775,-0.09301c0.04134,0.01465 0.07836,0.04047 0.10593,0.07406c0.02842,0.03445 0.04736,0.07578 0.05425,0.11971l0.1929,1.13934c-0.10334,-0.21702 -0.34274,-0.72167 -0.34274,-0.7389c0,-0.01636 -0.01206,-0.33844 -0.01808,-0.50121z" fill="#3f3d56"/><path d="M241.83946,189.48677c-0.01723,-0.0224 -0.02928,-0.04823 -0.0353,-0.07664c-0.00603,-0.02756 -0.00688,-0.05598 -0.00087,-0.08354c0.00603,-0.02756 0.01808,-0.05425 0.03445,-0.07664c0.01723,-0.0224 0.03876,-0.04047 0.06373,-0.05425l-0.03961,-0.44093l0.25748,-0.08956l0.04651,0.6235c0.01895,0.04393 0.02153,0.093 0.00775,0.13864c-0.01465,0.04565 -0.04478,0.08439 -0.08526,0.10851c-0.03961,0.02411 -0.08784,0.03273 -0.13349,0.02325c-0.04651,-0.00861 -0.08698,-0.03445 -0.11539,-0.07234z" fill="#ffb7b7"/><path d="M241.67068,186.82227c-0.00517,-0.06716 0.01205,-0.13349 0.04823,-0.18945c0.03618,-0.05598 0.09043,-0.09818 0.15244,-0.11971c0.05511,-0.01895 0.11454,-0.01895 0.16965,0c0.05941,0.02067 0.11023,0.05943 0.1464,0.11109c0.03618,0.05167 0.05511,0.11369 0.05511,0.17655l0.01895,2.24165l-0.45557,0.01723z" fill="#cbcbcb"/></g><path d="M232.78924,168.18768v-2.44575h1.03686c0.11256,0 0.2159,0.02291 0.31003,0.06889c0.09412,0.04591 0.17569,0.10792 0.24457,0.18602c0.07122,0.07802 0.12634,0.16534 0.16535,0.2618c0.03901,0.09646 0.05856,0.19514 0.05856,0.29625c0,0.13779 -0.03212,0.26868 -0.09646,0.3927c-0.06433,0.12401 -0.15268,0.22503 -0.26525,0.30313c-0.11256,0.07802 -0.24569,0.11712 -0.39959,0.11712h-0.57871v0.81984zM233.26461,166.95102h0.55116c0.05744,0 0.10911,-0.0161 0.15502,-0.04823c0.04591,-0.03221 0.08266,-0.07811 0.11023,-0.13779c0.02756,-0.062 0.04134,-0.1321 0.04134,-0.21013c0,-0.085 -0.0161,-0.15734 -0.04823,-0.21702c-0.02989,-0.05976 -0.07002,-0.10454 -0.12057,-0.13434c-0.04823,-0.02989 -0.10102,-0.04478 -0.15846,-0.04478h-0.53048zM235.54543,168.22212c-0.15389,0 -0.3009,-0.02532 -0.44093,-0.07578c-0.14011,-0.05055 -0.26067,-0.12522 -0.36169,-0.22391l0.16534,-0.29969c0.1079,0.08724 0.21357,0.15157 0.31691,0.19292c0.10558,0.04134 0.20668,0.062 0.30313,0.062c0.08956,0 0.1607,-0.0161 0.21357,-0.04823c0.05511,-0.03221 0.08268,-0.08044 0.08268,-0.14467c0,-0.04367 -0.01498,-0.07699 -0.04478,-0.09989c-0.02989,-0.02532 -0.07355,-0.04711 -0.1309,-0.06546c-0.05511,-0.01843 -0.12289,-0.03909 -0.20324,-0.062c-0.13323,-0.04367 -0.24458,-0.08611 -0.33414,-0.12746c-0.08956,-0.04134 -0.15733,-0.09301 -0.20324,-0.15501c-0.04367,-0.06433 -0.06545,-0.14588 -0.06545,-0.24458c0,-0.11945 0.0298,-0.22167 0.08956,-0.30658c0.062,-0.08732 0.14691,-0.15501 0.2549,-0.20324c0.11023,-0.04823 0.23881,-0.07234 0.38582,-0.07234c0.12857,0 0.25026,0.02067 0.36514,0.06201c0.1148,0.03901 0.21926,0.10334 0.31348,0.1929l-0.18602,0.2928c-0.09188,-0.07122 -0.17913,-0.12289 -0.2618,-0.15502c-0.08268,-0.03445 -0.16655,-0.05167 -0.25146,-0.05167c-0.04823,0 -0.09422,0.00569 -0.13779,0.01723c-0.04134,0.01146 -0.07578,0.031 -0.10334,0.05856c-0.02532,0.02523 -0.03788,0.062 -0.03788,0.11023c0,0.04358 0.01145,0.07802 0.03445,0.10334c0.02523,0.02291 0.062,0.04357 0.11023,0.062c0.05046,0.01834 0.11135,0.03901 0.18257,0.06201c0.14469,0.04134 0.26637,0.08379 0.36514,0.12744c0.10102,0.04358 0.1768,0.09758 0.22735,0.1619c0.05046,0.062 0.07579,0.14812 0.07579,0.25835c0,0.17912 -0.06545,0.31915 -0.19635,0.42025c-0.1309,0.10102 -0.30658,0.15156 -0.52704,0.15156zM236.58273,168.18768v-1.80504h0.46159v1.80504zM236.58273,166.13117v-0.45815h0.46159v0.45815zM238.69358,168.18768l-0.52662,-0.77851l-0.24458,0.24113v0.53738h-0.46159v-2.51465h0.46159v1.52257l0.72641,-0.80951h0.48915l-0.67172,0.76473l0.71995,1.03686zM240.12142,168.22212c-0.14727,0 -0.27902,-0.0241 -0.39614,-0.07234c-0.11712,-0.05055 -0.21702,-0.11945 -0.29969,-0.20668c-0.08095,-0.08732 -0.14296,-0.18722 -0.18602,-0.29969c-0.04393,-0.11256 -0.06545,-0.23079 -0.06545,-0.35481c0,-0.12634 0.02152,-0.24579 0.06545,-0.35826c0.04306,-0.11256 0.10506,-0.21246 0.18602,-0.29969c0.08268,-0.08732 0.18257,-0.15501 0.29969,-0.20324c0.11712,-0.05055 0.24888,-0.07578 0.39614,-0.07578c0.1464,0 0.2773,0.02523 0.3927,0.07578c0.11712,0.04823 0.21702,0.11591 0.29969,0.20324c0.08268,0.08724 0.14469,0.18713 0.18602,0.29969c0.04306,0.11247 0.06545,0.23191 0.06545,0.35826c0,0.12401 -0.02238,0.24225 -0.06545,0.35481c-0.04134,0.11247 -0.10334,0.21237 -0.18602,0.29969c-0.08095,0.08724 -0.17912,0.15613 -0.29625,0.20668c-0.11712,0.04823 -0.24973,0.07234 -0.39614,0.07234zM239.64949,167.28861c0,0.10558 0.02067,0.1998 0.062,0.28246c0.04134,0.08034 0.09732,0.14347 0.1688,0.18945c0.07061,0.04591 0.15156,0.06889 0.24113,0.06889c0.08698,0 0.16622,-0.02299 0.23768,-0.06889c0.07061,-0.04823 0.12744,-0.11256 0.16879,-0.1929c0.04306,-0.08268 0.06546,-0.17688 0.06546,-0.28246c0,-0.10334 -0.0224,-0.19635 -0.06546,-0.27902c-0.04134,-0.08268 -0.09818,-0.147 -0.16879,-0.1929c-0.07148,-0.04599 -0.15071,-0.06889 -0.23768,-0.06889c-0.08956,0 -0.17051,0.0241 -0.24113,0.07234c-0.07148,0.04591 -0.12746,0.11024 -0.1688,0.19292c-0.04134,0.08034 -0.062,0.17335 -0.062,0.27902zM241.37271,165.67304h0.46159v1.93594c0,0.08268 0.01378,0.1389 0.04134,0.16879c0.02756,0.02756 0.06545,0.04134 0.11368,0.04134c0.03703,0 0.07493,-0.00465 0.11368,-0.01378c0.03961,-0.00922 0.07406,-0.02067 0.10334,-0.03445l0.062,0.35136c-0.062,0.0298 -0.13434,0.05279 -0.21702,0.06889c-0.08268,0.01602 -0.15674,0.02411 -0.22391,0.02411c-0.14469,0 -0.25663,-0.0379 -0.33758,-0.11368c-0.07751,-0.0781 -0.11712,-0.18834 -0.11712,-0.33069zM243.3035,168.22212c-0.14727,0 -0.27902,-0.0241 -0.39614,-0.07234c-0.11712,-0.05055 -0.21702,-0.11945 -0.29969,-0.20668c-0.08009,-0.08732 -0.1421,-0.18722 -0.18602,-0.29969c-0.04393,-0.11256 -0.06545,-0.23079 -0.06545,-0.35481c0,-0.12634 0.02152,-0.24579 0.06545,-0.35826c0.04393,-0.11256 0.10594,-0.21246 0.18602,-0.29969c0.08268,-0.08732 0.18257,-0.15501 0.29969,-0.20324c0.11712,-0.05055 0.24888,-0.07578 0.39614,-0.07578c0.14727,0 0.27816,0.02523 0.3927,0.07578c0.11712,0.04823 0.21702,0.11591 0.29969,0.20324c0.08268,0.08724 0.14467,0.18713 0.18602,0.29969c0.04393,0.11247 0.06545,0.23191 0.06545,0.35826c0,0.12401 -0.02152,0.24225 -0.06545,0.35481c-0.04134,0.11247 -0.10334,0.21237 -0.18602,0.29969c-0.08009,0.08724 -0.17912,0.15613 -0.29625,0.20668c-0.11712,0.04823 -0.24888,0.07234 -0.39614,0.07234zM242.83156,167.28861c0,0.10558 0.02067,0.1998 0.06201,0.28246c0.04134,0.08034 0.09731,0.14347 0.16879,0.18945c0.07148,0.04591 0.15157,0.06889 0.24113,0.06889c0.08698,0 0.16621,-0.02299 0.23768,-0.06889c0.07148,-0.04823 0.12746,-0.11256 0.1688,-0.1929c0.04393,-0.08268 0.06545,-0.17688 0.06545,-0.28246c0,-0.10334 -0.02152,-0.19635 -0.06545,-0.27902c-0.04134,-0.08268 -0.09732,-0.147 -0.1688,-0.1929c-0.07148,-0.04599 -0.15071,-0.06889 -0.23768,-0.06889c-0.08956,0 -0.16965,0.0241 -0.24113,0.07234c-0.07148,0.04591 -0.12744,0.11024 -0.16879,0.19292c-0.04134,0.08034 -0.06201,0.17335 -0.06201,0.27902zM245.26526,168.19803c-0.11971,0 -0.22993,-0.023 -0.33069,-0.06889c-0.09904,-0.04823 -0.18515,-0.11488 -0.25835,-0.1998c-0.07148,-0.085 -0.12659,-0.18257 -0.16534,-0.2928c-0.03961,-0.11023 -0.05856,-0.22735 -0.05856,-0.35136c0,-0.1309 0.02067,-0.25267 0.06201,-0.36514c0.04134,-0.11256 0.09818,-0.21133 0.17224,-0.29625c0.07578,-0.08732 0.16362,-0.15389 0.26525,-0.1998c0.10334,-0.04823 0.21702,-0.07234 0.34103,-0.07234c0.13951,0 0.26266,0.03212 0.36859,0.09646c0.10506,0.062 0.19292,0.1458 0.2618,0.25146v-0.31691h0.40304v1.71892c0,0.17912 -0.04393,0.33181 -0.1309,0.45815c-0.08526,0.12857 -0.20325,0.22614 -0.35481,0.2928c-0.15156,0.06889 -0.3238,0.10334 -0.5167,0.10334c-0.19549,0 -0.36084,-0.03333 -0.49605,-0.09989c-0.13607,-0.06433 -0.25146,-0.15622 -0.34791,-0.27558l0.25146,-0.24458c0.06889,0.08492 0.15502,0.15156 0.25836,0.1998c0.10506,0.04823 0.21702,0.07234 0.33414,0.07234c0.09818,0 0.18774,-0.01843 0.26868,-0.05511c0.08268,-0.03445 0.14812,-0.08956 0.19635,-0.16534c0.04995,-0.07354 0.07578,-0.16879 0.07578,-0.28591v-0.22735c-0.06028,0.10334 -0.14467,0.1837 -0.2549,0.24113c-0.10851,0.05511 -0.22305,0.08268 -0.34447,0.08268zM245.42028,167.82943c0.04995,0 0.09816,-0.00809 0.14467,-0.0241c0.04565,-0.0161 0.08784,-0.0379 0.12746,-0.06546c0.03876,-0.02756 0.0732,-0.05976 0.10334,-0.09646c0.02928,-0.0391 0.05253,-0.0781 0.06889,-0.11712v-0.43059c-0.02756,-0.07122 -0.06716,-0.13323 -0.11712,-0.18602c-0.04823,-0.05287 -0.10334,-0.09301 -0.16534,-0.12057c-0.06028,-0.02989 -0.12316,-0.04478 -0.18945,-0.04478c-0.07148,0 -0.13607,0.0149 -0.1929,0.04478c-0.0577,0.0298 -0.10679,0.07234 -0.14812,0.12744c-0.04134,0.05279 -0.07406,0.11248 -0.09646,0.17913c-0.02067,0.06424 -0.031,0.13202 -0.031,0.20324c0,0.07346 0.01205,0.14235 0.03788,0.20668c0.02498,0.06424 0.05941,0.12056 0.10334,0.16879c0.04565,0.04823 0.09818,0.08611 0.15846,0.11368c0.062,0.02756 0.12746,0.04133 0.19635,0.04133zM246.74217,168.18768v-1.80504h0.4616v1.80504zM246.74217,166.13117v-0.45815h0.4616v0.45815z" fill-opacity="0.9" fill="#333333"/><path d="M222.77637,157.4057c0,0 0.05228,-0.31907 0.13934,-0.48683c0.08706,-0.16776 0.30658,-0.37229 0.30658,-0.37229v46.90683c0,0 -0.21952,-0.17569 -0.30658,-0.34361c-0.08706,-0.16792 -0.13934,-0.51585 -0.13934,-0.51585z" fill="url(#color-3)"/><path d="M257.22363,202.59394c0,0 -0.05253,0.34792 -0.13951,0.51585c-0.08698,0.16792 -0.30658,0.34361 -0.30658,0.34361v-46.90683c0,0 0.2196,0.20453 0.30658,0.37229c0.08698,0.16776 0.13951,0.48683 0.13951,0.48683z" fill="url(#color-4)"/><path d="M224.28137,203.68249v-47.36498h1.72794v47.36498z" fill="url(#color-5)"/></g></g></svg>