<svg version="1.1" xmlns="http://www.w3.org/2000/svg" xmlns:xlink="http://www.w3.org/1999/xlink" width="44.43421" height="19.6523" viewBox="0,0,44.43421,19.6523"><g transform="translate(-217.78289,-170.17385)"><g data-paper-data="{&quot;isPaintingLayer&quot;:true}" fill-rule="nonzero" stroke-linecap="butt" stroke-linejoin="miter" stroke-miterlimit="10" stroke-dasharray="" stroke-dashoffset="0" style="mix-blend-mode: normal"><g><path d="" fill="#ececec" stroke="none" stroke-width="1"/><path d="" fill="none" stroke="#dcd6d6" stroke-width="1.5"/><path d="" fill="none" stroke="#dcd6d6" stroke-width="1.5"/><path d="" fill="none" stroke="#dcd6d6" stroke-width="1.5"/><path d="" fill="none" stroke="#dcd6d6" stroke-width="1.5"/><path d="" fill="none" stroke="#dcd6d6" stroke-width="1.5"/><path d="" fill="none" stroke="#dcd6d6" stroke-width="1.5"/><path d="" fill="none" stroke="#dcd6d6" stroke-width="1.5"/><path d="" fill="none" stroke="#dcd6d6" stroke-width="1.5"/><path d="" fill="none" stroke="#dcd6d6" stroke-width="1.5"/><path d="" fill="none" stroke="#dcd6d6" stroke-width="1.5"/><path d="" fill="none" stroke="#dcd6d6" stroke-width="1.5"/><path d="" fill="none" stroke="#dcd6d6" stroke-width="1.5"/><path d="" fill="none" stroke="#dcd6d6" stroke-width="1.5"/><path d="" fill="none" stroke="#dcd6d6" stroke-width="1.5"/><path d="" fill="none" stroke="#dcd6d6" stroke-width="1.5"/><path d="" fill="none" stroke="#dcd6d6" stroke-width="1.5"/><path d="" fill="none" stroke="#dcd6d6" stroke-width="1.5"/><path d="" fill="none" stroke="#dcd6d6" stroke-width="1.5"/><path d="" fill="none" stroke="#dcd6d6" stroke-width="1.5"/><path d="" fill="none" stroke="#dcd6d6" stroke-width="1.5"/><path d="" fill="none" stroke="#dcd6d6" stroke-width="1.5"/><path d="" fill="none" stroke="#dcd6d6" stroke-width="1.5"/><path d="" fill="none" stroke="#dcd6d6" stroke-width="1.5"/><path d="" fill="none" stroke="#dcd6d6" stroke-width="1.5"/><path d="" fill="none" stroke="#dcd6d6" stroke-width="1.5"/><path d="" fill="none" stroke="#dcd6d6" stroke-width="1.5"/><path d="" fill="none" stroke="#dcd6d6" stroke-width="1.5"/><path d="" fill="none" stroke="#dcd6d6" stroke-width="1.5"/><path d="" fill="none" stroke="#dcd6d6" stroke-width="1.5"/><path d="" fill="none" stroke="#dcd6d6" stroke-width="1.5"/><path d="" fill="none" stroke="#dcd6d6" stroke-width="1.5"/><path d="" fill="none" stroke="#dcd6d6" stroke-width="1.5"/><path d="" fill="none" stroke="#dcd6d6" stroke-width="1.5"/><path d="" fill="none" stroke="#dcd6d6" stroke-width="1.5"/><path d="" fill="none" stroke="#dcd6d6" stroke-width="1.5"/><path d="" fill="none" stroke="#dcd6d6" stroke-width="1.5"/><path d="" fill="none" stroke="#dcd6d6" stroke-width="1.5"/><path d="" fill="none" stroke="#dcd6d6" stroke-width="1.5"/><path d="" fill="none" stroke="#dcd6d6" stroke-width="1.5"/><path d="" fill="none" stroke="#dcd6d6" stroke-width="1.5"/><g><path d="" fill="#ebebeb" stroke="none" stroke-width="1"/><path d="" fill="none" stroke="#000000" stroke-width="0.5"/></g><path d="" fill="#737373" stroke="none" stroke-width="1"/><path d="" fill="#737373" stroke="none" stroke-width="1"/><path d="" fill="#737373" stroke="none" stroke-width="1"/><path d="" fill="#737373" stroke="none" stroke-width="1"/></g><path d="" fill="#000000" stroke="none" stroke-width="1"/><path d="" fill="#000000" stroke="none" stroke-width="1"/><path d="M221.20011,170.67385h37.59978c1.61096,0 2.91722,1.25281 2.91722,2.79784v13.05661c0,1.54503 -1.30626,2.79784 -2.91722,2.79784h-37.59978c-1.61115,0 -2.91722,-1.25281 -2.91722,-2.79784v-13.05661c0,-1.54503 1.30607,-2.79784 2.91722,-2.79784z" fill="#a5a7a9" stroke="#000000" stroke-width="1"/><path d="M232.10146,182.83205c-0.29477,0 -0.53956,-0.05222 -0.73449,-0.1573c-0.19014,-0.10943 -0.33276,-0.27606 -0.42786,-0.49926c-0.06658,-0.15481 -0.1165,-0.34196 -0.14975,-0.56081c-0.02852,-0.2232 -0.04278,-0.47875 -0.04278,-0.76599c0,-0.49242 0.01666,-0.89842 0.04992,-1.21737c0.03326,-0.32393 0.08084,-0.58381 0.14262,-0.77967c0.06658,-0.20082 0.14023,-0.36248 0.22106,-0.48558c0.12835,-0.18715 0.33276,-0.3376 0.61326,-0.45139c0.28051,-0.11378 0.67745,-0.17098 1.19087,-0.17098c0.34229,0 0.61566,0.05036 0.82007,0.15046c0.2092,0.09575 0.35894,0.2232 0.44925,0.38299c0.09511,0.15979 0.14262,0.3376 0.14262,0.53346c0,0.31025 -0.09511,0.56516 -0.28524,0.76599c-0.19014,0.20082 -0.43972,0.35999 -0.74876,0.47875v0.02736c0.33755,0.03668 0.599,0.14114 0.78441,0.31461c0.19014,0.16849 0.28524,0.41035 0.28524,0.72495c0,0.25056 -0.06658,0.48123 -0.19967,0.69076c-0.12835,0.20518 -0.30423,0.38548 -0.52769,0.54029c-0.21866,0.15046 -0.46591,0.26921 -0.74162,0.35564c-0.27571,0.08207 -0.55622,0.12311 -0.84145,0.12311zM232.32253,182.01134c0.22819,0 0.43026,-0.03668 0.60613,-0.10943c0.18068,-0.07275 0.32089,-0.17098 0.42073,-0.29408c0.10456,-0.12746 0.15688,-0.27108 0.15688,-0.43087c0,-0.17346 -0.08798,-0.31709 -0.26385,-0.43087c-0.17115,-0.11875 -0.43972,-0.17782 -0.8058,-0.17782c-0.24719,0 -0.44452,0.0572 -0.59188,0.17098c-0.14262,0.10943 -0.21393,0.29844 -0.21393,0.56765c0,0.25554 0.05705,0.43771 0.17115,0.54714c0.1141,0.10507 0.28764,0.1573 0.52056,0.1573zM232.35105,179.84333c0.32329,0 0.59188,-0.0684 0.8058,-0.20518c0.21866,-0.14114 0.32802,-0.32393 0.32802,-0.54714c0,-0.16414 -0.06891,-0.29657 -0.2068,-0.39667c-0.13788,-0.1001 -0.3399,-0.15046 -0.60613,-0.15046c-0.28997,0 -0.52769,0.05471 -0.71309,0.16414c-0.1854,0.10943 -0.27811,0.29657 -0.27811,0.56081c0,0.2145 0.05944,0.36496 0.17828,0.45139c0.12363,0.08207 0.28764,0.12311 0.49204,0.12311zM238.31885,182.86625c-0.16161,0 -0.27338,-0.05906 -0.33515,-0.17782c-0.05705,-0.12311 -0.09031,-0.31709 -0.09983,-0.58133l0.07131,0.03419c-0.26624,0.49677 -0.77015,0.74547 -1.51177,0.74547c-0.33755,0 -0.618,-0.0572 -0.84145,-0.17098c-0.22346,-0.11875 -0.3898,-0.27356 -0.49917,-0.46506c-0.10456,-0.19585 -0.15688,-0.40787 -0.15688,-0.63604c0,-0.39231 0.14262,-0.70195 0.42786,-0.93013c0.28524,-0.23254 0.66318,-0.34879 1.13382,-0.34879c0.30903,0 0.57761,0.04352 0.8058,0.12994c0.22819,0.08642 0.42313,0.20766 0.58474,0.36248l-0.12123,-0.01368c-0.03326,-0.46071 -0.13788,-0.78899 -0.31376,-0.98484c-0.17115,-0.20082 -0.416,-0.30092 -0.73449,-0.30092c-0.1854,0 -0.35655,0.02736 -0.51343,0.08207c-0.15688,0.05471 -0.3019,0.11192 -0.43498,0.17098c-0.12835,0.05471 -0.24959,0.08207 -0.36368,0.08207c-0.1141,0 -0.2044,-0.03668 -0.27098,-0.10943c-0.06178,-0.07275 -0.09271,-0.16663 -0.09271,-0.28041c0,-0.16414 0.08084,-0.31896 0.24245,-0.46506c0.16641,-0.14611 0.38507,-0.26424 0.65605,-0.35564c0.27098,-0.09139 0.56575,-0.13679 0.88424,-0.13679c0.38507,0 0.71549,0.08891 0.9912,0.26672c0.27571,0.17782 0.48491,0.43771 0.62752,0.77967c0.12363,0.2916 0.21152,0.61801 0.26385,0.97801c0.05231,0.35999 0.07844,0.74547 0.07844,1.15582c0,0.31025 -0.01666,0.54962 -0.04992,0.71812c-0.03326,0.16849 -0.08557,0.28725 -0.15688,0.35564c-0.06658,0.06404 -0.15688,0.09575 -0.27098,0.09575zM236.74289,182.10026c0.15688,0 0.31617,-0.02052 0.47778,-0.06156c0.16161,-0.04539 0.2971,-0.11192 0.40646,-0.19834c0.10936,-0.08642 0.16402,-0.19399 0.16402,-0.32144c0,-0.10943 -0.04752,-0.19834 -0.14262,-0.26672c-0.09031,-0.07275 -0.21152,-0.12746 -0.36368,-0.16414c-0.14736,-0.03668 -0.30663,-0.05471 -0.47778,-0.05471c-0.28997,0 -0.51103,0.04787 -0.66318,0.14362c-0.14736,0.09575 -0.22106,0.2232 -0.22106,0.38299c0,0.17346 0.06891,0.30777 0.2068,0.40351c0.14262,0.09139 0.34702,0.13679 0.61326,0.13679zM241.42069,182.87308c-0.65605,0 -1.13862,-0.16414 -1.44759,-0.49242c-0.3043,-0.32828 -0.45639,-0.78402 -0.45639,-1.36783c0,-0.45139 0.09031,-0.85054 0.27098,-1.19686c0.1854,-0.35129 0.44925,-0.62485 0.79154,-0.8207c0.34702,-0.20082 0.76062,-0.30092 1.24079,-0.30092c0.43259,0 0.76062,0.0684 0.98408,0.20518c0.22819,0.13244 0.34229,0.30342 0.34229,0.51293c0,0.12746 -0.04278,0.23004 -0.12835,0.30777c-0.08084,0.07275 -0.20207,0.10943 -0.36368,0.10943c-0.09037,0 -0.18307,-0.01368 -0.27811,-0.04104c-0.09037,-0.02736 -0.1902,-0.05471 -0.2995,-0.08207c-0.10936,-0.02736 -0.24012,-0.04104 -0.39221,-0.04104c-0.39461,0 -0.69171,0.1001 -0.89137,0.30092c-0.19494,0.20082 -0.29237,0.48994 -0.29237,0.86858c0,0.35999 0.09503,0.62236 0.28524,0.7865c0.19014,0.15979 0.44925,0.23937 0.77728,0.23937c0.16161,0 0.30184,-0.01617 0.42073,-0.04787c0.12356,-0.03668 0.23765,-0.07088 0.34229,-0.10258c0.1093,-0.03668 0.21866,-0.05471 0.32802,-0.05471c0.1093,0 0.19967,0.03419 0.27098,0.10258c0.07131,0.06404 0.10696,0.1573 0.10696,0.28041c0,0.14114 -0.05944,0.27606 -0.17828,0.40351c-0.1189,0.12746 -0.29717,0.23254 -0.53482,0.31461c-0.23772,0.07772 -0.53722,0.11627 -0.89851,0.11627zM244.09988,182.86625c-0.09037,0 -0.16402,-0.02487 -0.22106,-0.07523c-0.05705,-0.05471 -0.0975,-0.13244 -0.12123,-0.23254c-0.03806,-0.16849 -0.07131,-0.41284 -0.09983,-0.73179c-0.02852,-0.31896 -0.04278,-0.67272 -0.04278,-1.06008c0,-0.47875 0.0166,-0.93946 0.04992,-1.38151c0.03799,-0.44206 0.08557,-0.80453 0.14262,-1.08743c0.06178,-0.30528 0.13782,-0.5291 0.22819,-0.67024c0.09031,-0.14611 0.20913,-0.21885 0.35655,-0.21885c0.13309,0 0.23532,0.05906 0.30663,0.17782c0.07131,0.11378 0.10696,0.31212 0.10696,0.59501c0,0.28289 -0.01193,0.58568 -0.03565,0.90961c-0.01906,0.32393 -0.05231,0.67024 -0.09983,1.03955h0.02852c0.30897,-0.40103 0.59661,-0.72247 0.86285,-0.96432c0.27098,-0.24186 0.51842,-0.41719 0.74143,-0.52662c0.22819,-0.10943 0.43045,-0.16414 0.60613,-0.16414c0.13809,0 0.24051,0.04104 0.30663,0.12311c0.06677,0.08207 0.09983,0.18217 0.09983,0.30092c0,0.23254 -0.19449,0.49242 -0.58474,0.77967c-0.38507,0.28725 -0.9411,0.58133 -1.66846,0.88226l0.00713,-0.10943c0.45159,0.2232 0.83932,0.45822 1.16216,0.70443c0.32802,0.24186 0.57761,0.47191 0.74876,0.69076c0.17633,0.2145 0.26385,0.39418 0.26385,0.54029c0,0.11875 -0.0402,0.21637 -0.12123,0.29408c-0.07585,0.07275 -0.18735,0.10943 -0.33515,0.10943c-0.1854,0 -0.39221,-0.06591 -0.6204,-0.19834c-0.22301,-0.13679 -0.45619,-0.33947 -0.69864,-0.60869c-0.24245,-0.26921 -0.48491,-0.6062 -0.72736,-1.0122h-0.02852c-0.0048,0.28725 -0.02379,0.56765 -0.05705,0.84122c-0.02852,0.26921 -0.06658,0.48994 -0.1141,0.6634c-0.03332,0.11875 -0.08557,0.2145 -0.15688,0.28725c-0.06658,0.0684 -0.16167,0.10258 -0.28524,0.10258z" fill="#000000" stroke="none" stroke-width="1"/><path d="" fill="#a5a7a9" stroke="#000000" stroke-width="1"/><path d="" fill="#000000" stroke="none" stroke-width="1"/></g></g></svg>