<svg version="1.1" xmlns="http://www.w3.org/2000/svg" xmlns:xlink="http://www.w3.org/1999/xlink" width="129.39094" height="122.32958" viewBox="0,0,129.39094,122.32958"><g transform="translate(-175.30453,-117.84255)"><g data-paper-data="{&quot;isPaintingLayer&quot;:true}" fill-rule="nonzero" stroke-linecap="butt" stroke-linejoin="miter" stroke-miterlimit="10" stroke-dashoffset="0" style="mix-blend-mode: normal"><path d="M177.04516,227.79977l62.95481,-107.9719l62.95486,107.9719z" fill="#a04c5a" stroke="#000000" stroke-width="2" stroke-dasharray=""/><path d="M239.99996,119.84967v106.83721" fill="none" stroke="#000000" stroke-width="2" stroke-dasharray="4,4"/><path d="M233.32857,231.67261c0.9734,0 1.7094,0.1978 2.20797,0.59354c0.49857,0.39575 0.74786,0.96554 0.74786,1.7094c0,0.55392 -0.15832,1.02089 -0.47484,1.40075c-0.3165,0.37987 -0.73199,0.66477 -1.24643,0.85469l-0.04748,-0.4036c0.59354,0.11085 1.05249,0.34025 1.37702,0.6885c0.33238,0.34025 0.49857,0.80722 0.49857,1.40075c0,0.72011 -0.26902,1.27804 -0.80722,1.67378c-0.53819,0.38773 -1.39674,0.58166 -2.57596,0.58166c-0.72011,0 -1.29391,-0.08309 -1.72127,-0.24928c-0.42735,-0.17406 -0.73599,-0.41547 -0.92593,-0.72412c-0.18207,-0.30865 -0.27303,-0.66076 -0.27303,-1.0565c0,-0.60942 0.1978,-1.11185 0.59354,-1.50759c0.39575,-0.4036 0.95753,-0.67663 1.68565,-0.81909l0.03562,0.49857c-0.62515,-0.03161 -1.13559,-0.23341 -1.53134,-0.60541c-0.38773,-0.372 -0.58166,-0.90218 -0.58166,-1.59069c0,-0.54606 0.13459,-1.00116 0.4036,-1.36515c0.26902,-0.36399 0.63316,-0.63316 1.09212,-0.80722c0.45896,-0.18207 0.9734,-0.27303 1.54321,-0.27303zM234.58688,234.2011c0,-0.30078 -0.13058,-0.51445 -0.39174,-0.64103c-0.26116,-0.12658 -0.5698,-0.18993 -0.92593,-0.18993c-0.4827,0 -0.8587,0.0871 -1.12772,0.26116c-0.26116,0.17406 -0.39174,0.40761 -0.39174,0.70038c0,0.26902 0.09897,0.47884 0.29677,0.62915c0.20581,0.15031 0.53819,0.22554 0.99715,0.22554c0.50643,0 0.89031,-0.07909 1.15147,-0.23741c0.26116,-0.15832 0.39174,-0.40761 0.39174,-0.74786zM233.28109,236.65835c-0.51445,0 -0.90218,0.10283 -1.16334,0.30865c-0.26116,0.1978 -0.39174,0.43135 -0.39174,0.70038c0,0.30865 0.11871,0.53018 0.35612,0.66477c0.24528,0.12658 0.60541,0.18993 1.08024,0.18993c0.54606,0 0.94179,-0.09096 1.18708,-0.27303c0.24528,-0.18207 0.368,-0.41948 0.368,-0.71225c0,-0.26116 -0.09897,-0.47083 -0.29677,-0.62915c-0.1978,-0.16619 -0.57766,-0.24928 -1.13959,-0.24928zM242.8908,240.17211c-1.09212,0 -1.89532,-0.2849 -2.40977,-0.85469c-0.50643,-0.5698 -0.75973,-1.36114 -0.75973,-2.37416c0,-0.78347 0.15031,-1.47598 0.45109,-2.07739c0.30865,-0.60942 0.74786,-1.08425 1.31766,-1.4245c0.57766,-0.34826 1.26617,-0.52231 2.06552,-0.52231c0.72011,0 1.26617,0.11871 1.63817,0.35612c0.37987,0.22955 0.5698,0.52632 0.5698,0.89031c0,0.22153 -0.07122,0.3996 -0.21368,0.53419c-0.13459,0.12658 -0.33639,0.18993 -0.60541,0.18993c-0.15031,0 -0.30464,-0.02374 -0.46296,-0.07122c-0.15031,-0.04748 -0.3165,-0.09497 -0.49857,-0.14245c-0.18207,-0.04748 -0.3996,-0.07122 -0.6529,-0.07122c-0.6569,0 -1.15147,0.17406 -1.48385,0.52231c-0.32451,0.34826 -0.48671,0.85069 -0.48671,1.50759c0,0.62515 0.15832,1.08024 0.47484,1.36515c0.3165,0.27704 0.74786,0.41547 1.29391,0.41547c0.26902,0 0.50258,-0.02775 0.70038,-0.08309c0.20581,-0.06336 0.39575,-0.12272 0.5698,-0.17806c0.18207,-0.06336 0.36399,-0.09497 0.54606,-0.09497c0.18207,0 0.33238,0.05935 0.45109,0.17806c0.11871,0.11085 0.17806,0.27303 0.17806,0.48671c0,0.24528 -0.09897,0.47884 -0.29677,0.70038c-0.1978,0.22153 -0.49456,0.4036 -0.89031,0.54606c-0.39575,0.13459 -0.89432,0.20181 -1.49572,0.20181zM251.65991,234.6047c0.07909,-0.32451 0.21754,-0.61728 0.41547,-0.87844c0.20567,-0.26116 0.45109,-0.46697 0.73599,-0.61728c0.29277,-0.15832 0.61327,-0.23741 0.96153,-0.23741c0.41147,0 0.77546,0.09897 1.09212,0.29677c0.3165,0.1978 0.5658,0.52231 0.74786,0.9734c0.18993,0.45109 0.2849,1.05249 0.2849,1.80436c0,0.38773 -0.01588,0.77946 -0.04748,1.17521c-0.03176,0.39575 -0.07122,0.76373 -0.11871,1.10399c-0.04748,0.34025 -0.09897,0.62515 -0.15432,0.85469c-0.07924,0.3165 -0.20181,0.55793 -0.368,0.72412c-0.15832,0.16619 -0.36013,0.24928 -0.60541,0.24928c-0.20581,0 -0.368,-0.09096 -0.48671,-0.27303c-0.11871,-0.18207 -0.17806,-0.44323 -0.17806,-0.78347c0,-0.15832 0.01974,-0.36013 0.05935,-0.60541c0.03948,-0.25329 0.08309,-0.52632 0.13058,-0.81909c0.04748,-0.30078 0.09096,-0.60541 0.13058,-0.91405c0.03948,-0.30865 0.05935,-0.6014 0.05935,-0.87844c0,-0.41147 -0.08309,-0.72813 -0.24928,-0.94966c-0.16619,-0.22955 -0.39975,-0.34425 -0.70038,-0.34425c-0.33238,0 -0.60942,0.17406 -0.83096,0.52231c-0.21368,0.34025 -0.34039,0.83883 -0.37987,1.49572c-0.03176,0.58567 -0.05935,1.108 -0.08309,1.56694c-0.02374,0.45109 -0.08309,0.82309 -0.17806,1.11585c-0.06336,0.20581 -0.15432,0.36013 -0.27303,0.46296c-0.11085,0.10283 -0.26116,0.15432 -0.45109,0.15432c-0.21368,0 -0.38388,-0.07909 -0.51044,-0.23741c-0.11871,-0.15832 -0.18608,-0.40761 -0.20181,-0.74786c-0.01588,-0.2849 -0.01989,-0.62129 -0.01187,-1.00902c0.00787,-0.38773 0.01187,-0.7716 0.01187,-1.15147c0.00787,-0.38773 0.00386,-0.70824 -0.01187,-0.96153c-0.03176,-0.50643 -0.12272,-0.87844 -0.27303,-1.11585c-0.14245,-0.23741 -0.36013,-0.35612 -0.6529,-0.35612c-0.34039,0 -0.61342,0.15832 -0.81909,0.47484c-0.19795,0.3165 -0.32051,0.75573 -0.368,1.31766c-0.01588,0.22955 -0.02374,0.51445 -0.02374,0.85469c0.00787,0.33238 0.01573,0.66477 0.02374,0.99715c0.00787,0.33238 0.00386,0.60942 -0.01187,0.83096c-0.00801,0.47484 -0.08309,0.81508 -0.22554,1.02089c-0.13459,0.20581 -0.32451,0.30865 -0.5698,0.30865c-0.29291,0 -0.50658,-0.09497 -0.64103,-0.2849c-0.12673,-0.18993 -0.20982,-0.49456 -0.24928,-0.91405c-0.03176,-0.372 -0.05549,-0.74 -0.07122,-1.10399c-0.01588,-0.372 -0.02374,-0.74 -0.02374,-1.10399c0,-0.372 0.00787,-0.7756 0.02374,-1.21082c0.02374,-0.43521 0.05534,-0.84684 0.09497,-1.23456c0.04748,-0.39575 0.13058,-0.72813 0.24928,-0.99715c0.11871,-0.26902 0.3165,-0.4036 0.59354,-0.4036c0.2294,0 0.39174,0.11471 0.48671,0.34425c0.09497,0.22153 0.14245,0.5658 0.14245,1.03275c0,0.15832 -0.01187,0.30464 -0.03562,0.43922l-0.03562,-0.23741c0.15818,-0.51445 0.41147,-0.91405 0.75973,-1.19896c0.34811,-0.29277 0.73599,-0.43922 1.16334,-0.43922c0.56179,0 1.00101,0.18207 1.31766,0.54606c0.3165,0.35612 0.49056,0.85069 0.52231,1.48385z" fill="#030303" stroke="none" stroke-width="1" stroke-dasharray=""/><path d="M248.76061,182.39691c0,0.24528 -0.09497,0.44708 -0.2849,0.60541c-0.18207,0.15031 -0.44708,0.22554 -0.79534,0.22554c-0.22955,0 -0.49857,-0.00787 -0.80722,-0.02374c-0.30078,-0.02374 -0.60942,-0.05148 -0.92593,-0.08309c-0.30865,-0.03962 -0.59354,-0.07909 -0.85469,-0.11871l0.32051,-0.17806c-0.00787,0.39575 -0.04347,0.80321 -0.10684,1.22269c-0.05534,0.41948 -0.12658,0.7716 -0.21368,1.0565l-0.39174,-0.07122c0.34826,-0.04748 0.69251,-0.07122 1.03275,-0.07122c1.01303,0 1.76875,0.1978 2.26733,0.59354c0.49857,0.39575 0.74786,0.93379 0.74786,1.61443c0,0.4827 -0.11085,0.91806 -0.33238,1.30578c-0.22153,0.37987 -0.55392,0.6845 -0.99715,0.91405c-0.43521,0.22153 -0.98528,0.33238 -1.65004,0.33238c-0.60942,0 -1.09212,-0.04748 -1.44824,-0.14245c-0.34826,-0.10283 -0.59354,-0.23741 -0.73599,-0.4036c-0.14245,-0.17406 -0.21368,-0.368 -0.21368,-0.58166c0,-0.1978 0.05534,-0.36013 0.16619,-0.48671c0.11871,-0.13459 0.28891,-0.20181 0.51044,-0.20181c0.26902,0 0.56194,0.03562 0.87844,0.10684c0.32451,0.07122 0.62129,0.10684 0.89031,0.10684c0.43521,0 0.76759,-0.07122 0.99715,-0.21368c0.23741,-0.14245 0.35612,-0.34425 0.35612,-0.60541c0,-0.30865 -0.12272,-0.53419 -0.368,-0.67663c-0.24528,-0.14245 -0.58953,-0.21368 -1.03275,-0.21368c-0.1978,0 -0.40761,0.00401 -0.62915,0.01187c-0.22153,0.00787 -0.3996,0.01187 -0.53419,0.01187c-0.30078,0 -0.52231,-0.05935 -0.66477,-0.17806c-0.13459,-0.12658 -0.20181,-0.34826 -0.20181,-0.66477c0,-0.2849 0.01187,-0.62129 0.03562,-1.00902c0.02374,-0.39575 0.05534,-0.78347 0.09497,-1.16334c0.03962,-0.38773 0.07909,-0.70438 0.11871,-0.94966c0.06336,-0.34826 0.18207,-0.61327 0.35612,-0.79534c0.17406,-0.18207 0.44323,-0.27303 0.80722,-0.27303c0.26116,0 0.55793,0.00787 0.89031,0.02374c0.34025,0.00787 0.67663,0.02775 1.00902,0.05935c0.34025,0.02374 0.63702,0.05534 0.89031,0.09497c0.54606,0.07909 0.81909,0.35212 0.81909,0.81909zM255.26002,189.7212c-1.09212,0 -1.89532,-0.2849 -2.40977,-0.85469c-0.50643,-0.5698 -0.75973,-1.36114 -0.75973,-2.37416c0,-0.78347 0.15046,-1.47598 0.45109,-2.07739c0.30865,-0.60942 0.74786,-1.08425 1.31766,-1.4245c0.57782,-0.34826 1.26632,-0.52231 2.06552,-0.52231c0.72026,0 1.26632,0.11871 1.63817,0.35612c0.37987,0.22955 0.5698,0.52632 0.5698,0.89031c0,0.22153 -0.07122,0.3996 -0.21368,0.53419c-0.13443,0.12658 -0.33624,0.18993 -0.60541,0.18993c-0.15031,0 -0.30464,-0.02374 -0.46296,-0.07122c-0.15031,-0.04748 -0.3165,-0.09497 -0.49857,-0.14245c-0.18192,-0.04748 -0.3996,-0.07122 -0.6529,-0.07122c-0.65676,0 -1.15147,0.17406 -1.48385,0.52231c-0.32437,0.34826 -0.48671,0.85069 -0.48671,1.50759c0,0.62515 0.15832,1.08024 0.47484,1.36515c0.31665,0.27704 0.74786,0.41547 1.29391,0.41547c0.26917,0 0.50258,-0.02775 0.70038,-0.08309c0.20581,-0.06336 0.39575,-0.12272 0.5698,-0.17806c0.18207,-0.06336 0.36414,-0.09497 0.54606,-0.09497c0.18207,0 0.33238,0.05935 0.45109,0.17806c0.11871,0.11085 0.17806,0.27303 0.17806,0.48671c0,0.24528 -0.09883,0.47884 -0.29677,0.70038c-0.1978,0.22153 -0.49456,0.4036 -0.89031,0.54606c-0.3956,0.13459 -0.89417,0.20181 -1.49572,0.20181zM264.02913,184.1538c0.07909,-0.32451 0.21769,-0.61728 0.41547,-0.87844c0.20581,-0.26116 0.45109,-0.46697 0.73599,-0.61728c0.29277,-0.15832 0.61327,-0.23741 0.96153,-0.23741c0.41147,0 0.7756,0.09897 1.09212,0.29677c0.3165,0.1978 0.5658,0.52231 0.74786,0.9734c0.18993,0.45109 0.2849,1.05249 0.2849,1.80436c0,0.38773 -0.01588,0.77946 -0.04748,1.17521c-0.03161,0.39575 -0.07122,0.76373 -0.11871,1.10399c-0.04748,0.34025 -0.09897,0.62515 -0.15432,0.85469c-0.07909,0.3165 -0.20181,0.55793 -0.368,0.72412c-0.15832,0.16619 -0.36013,0.24928 -0.60541,0.24928c-0.20581,0 -0.368,-0.09096 -0.48671,-0.27303c-0.11871,-0.18207 -0.17806,-0.44323 -0.17806,-0.78347c0,-0.15832 0.01974,-0.36013 0.05935,-0.60541c0.03962,-0.25329 0.08309,-0.52632 0.13058,-0.81909c0.04748,-0.30078 0.09096,-0.60541 0.13058,-0.91405c0.03962,-0.30865 0.05935,-0.6014 0.05935,-0.87844c0,-0.41147 -0.08309,-0.72813 -0.24928,-0.94966c-0.16619,-0.22955 -0.3996,-0.34425 -0.70038,-0.34425c-0.33238,0 -0.60942,0.17406 -0.83096,0.52231c-0.21368,0.34025 -0.34025,0.83883 -0.37987,1.49572c-0.03161,0.58567 -0.05935,1.108 -0.08309,1.56694c-0.02374,0.45109 -0.08309,0.82309 -0.17806,1.11585c-0.06336,0.20581 -0.15432,0.36013 -0.27303,0.46296c-0.11085,0.10283 -0.26116,0.15432 -0.45109,0.15432c-0.21368,0 -0.38388,-0.07909 -0.51044,-0.23741c-0.11871,-0.15832 -0.18593,-0.40761 -0.20181,-0.74786c-0.01588,-0.2849 -0.01974,-0.62129 -0.01187,-1.00902c0.00787,-0.38773 0.01187,-0.7716 0.01187,-1.15147c0.00787,-0.38773 0.00401,-0.70824 -0.01187,-0.96153c-0.03161,-0.50643 -0.12272,-0.87844 -0.27303,-1.11585c-0.14245,-0.23741 -0.36013,-0.35612 -0.6529,-0.35612c-0.34025,0 -0.61327,0.15832 -0.81909,0.47484c-0.1978,0.3165 -0.32051,0.75573 -0.368,1.31766c-0.01588,0.22955 -0.02374,0.51445 -0.02374,0.85469c0.00787,0.33238 0.01588,0.66477 0.02374,0.99715c0.00787,0.33238 0.00401,0.60942 -0.01187,0.83096c-0.00787,0.47484 -0.08309,0.81508 -0.22554,1.02089c-0.13459,0.20581 -0.32451,0.30865 -0.5698,0.30865c-0.29277,0 -0.50643,-0.09497 -0.64103,-0.2849c-0.12658,-0.18993 -0.20967,-0.49456 -0.24928,-0.91405c-0.03161,-0.372 -0.05534,-0.74 -0.07122,-1.10399c-0.01588,-0.372 -0.02374,-0.74 -0.02374,-1.10399c0,-0.372 0.00787,-0.7756 0.02374,-1.21082c0.02374,-0.43521 0.05534,-0.84684 0.09497,-1.23456c0.04748,-0.39575 0.13058,-0.72813 0.24928,-0.99715c0.11871,-0.26902 0.3165,-0.4036 0.59354,-0.4036c0.22955,0 0.39174,0.11471 0.48671,0.34425c0.09497,0.22153 0.14245,0.5658 0.14245,1.03275c0,0.15832 -0.01187,0.30464 -0.03562,0.43922l-0.03562,-0.23741c0.15832,-0.51445 0.41147,-0.91405 0.75973,-1.19896c0.34826,-0.29277 0.73599,-0.43922 1.16334,-0.43922c0.56194,0 1.00116,0.18207 1.31766,0.54606c0.3165,0.35612 0.49071,0.85069 0.52231,1.48385z" fill="#030303" stroke="none" stroke-width="1" stroke-dasharray=""/></g></g></svg>