<svg width="253" height="10" viewBox="0 0 253 10" fill="none" xmlns="http://www.w3.org/2000/svg">
<path d="M1.188 8.09C1.08 8.09 0.993 8.054 0.927 7.982C0.861 7.904 0.807 7.781 0.765 7.613C0.723 7.421 0.684 7.121 0.648 6.713C0.612 6.299 0.594 5.837 0.594 5.327C0.594 4.775 0.609 4.238 0.639 3.716C0.675 3.188 0.726 2.723 0.792 2.321C0.84 2.057 0.909 1.862 0.999 1.736C1.095 1.604 1.227 1.538 1.395 1.538C1.503 1.538 1.599 1.574 1.683 1.646C1.767 1.718 1.83 1.847 1.872 2.033C1.92 2.219 1.944 2.483 1.944 2.825C1.944 2.993 1.938 3.185 1.926 3.401C1.914 3.611 1.896 3.845 1.872 4.103H1.908C2.388 3.443 2.811 2.918 3.177 2.528C3.543 2.132 3.864 1.847 4.14 1.673C4.422 1.499 4.668 1.412 4.878 1.412C5.046 1.412 5.172 1.466 5.256 1.574C5.346 1.682 5.391 1.814 5.391 1.97C5.391 2.3 5.142 2.696 4.644 3.158C4.152 3.62 3.357 4.175 2.259 4.823L2.331 4.652C3.279 5.252 3.996 5.783 4.482 6.245C4.968 6.701 5.211 7.106 5.211 7.46C5.211 7.616 5.16 7.745 5.058 7.847C4.962 7.943 4.818 7.991 4.626 7.991C4.386 7.991 4.131 7.91 3.861 7.748C3.591 7.58 3.291 7.301 2.961 6.911C2.637 6.515 2.268 5.978 1.854 5.3H1.818C1.83 5.438 1.839 5.582 1.845 5.732C1.851 5.876 1.854 6.02 1.854 6.164C1.854 6.854 1.806 7.349 1.71 7.649C1.614 7.943 1.44 8.09 1.188 8.09ZM8.67642 8.072C8.01042 8.072 7.47942 7.973 7.08342 7.775C6.68742 7.577 6.40242 7.292 6.22842 6.92C6.05442 6.548 5.96742 6.104 5.96742 5.588C5.96742 4.934 6.08742 4.379 6.32742 3.923C6.57342 3.461 6.90942 3.107 7.33542 2.861C7.76742 2.615 8.25642 2.492 8.80242 2.492C9.44442 2.492 9.91542 2.642 10.2154 2.942C10.5154 3.236 10.6654 3.623 10.6654 4.103C10.6654 4.487 10.5634 4.82 10.3594 5.102C10.1614 5.378 9.88542 5.591 9.53142 5.741C9.17742 5.891 8.76942 5.966 8.30742 5.966C8.04942 5.966 7.80042 5.933 7.56042 5.867C7.32042 5.801 7.10442 5.711 6.91242 5.597L7.12842 5.201C7.11042 5.345 7.10142 5.489 7.10142 5.633C7.10142 6.053 7.23342 6.356 7.49742 6.542C7.76142 6.722 8.13642 6.812 8.62242 6.812C9.00042 6.812 9.30342 6.779 9.53142 6.713C9.75942 6.647 9.95142 6.584 10.1074 6.524C10.2634 6.458 10.4164 6.425 10.5664 6.425C10.6504 6.425 10.7254 6.449 10.7914 6.497C10.8634 6.539 10.9204 6.602 10.9624 6.686C11.0104 6.77 11.0344 6.872 11.0344 6.992C11.0344 7.172 10.9444 7.346 10.7644 7.514C10.5844 7.676 10.3174 7.811 9.96342 7.919C9.61542 8.021 9.18642 8.072 8.67642 8.072ZM8.15442 5.129C8.58042 5.129 8.92242 5.039 9.18042 4.859C9.43842 4.679 9.56742 4.457 9.56742 4.193C9.56742 3.983 9.49542 3.812 9.35142 3.68C9.21342 3.542 8.99442 3.473 8.69442 3.473C8.41242 3.473 8.15742 3.527 7.92942 3.635C7.70742 3.737 7.53342 3.872 7.40742 4.04C7.28142 4.208 7.21842 4.391 7.21842 4.589C7.21842 4.763 7.29942 4.898 7.46142 4.994C7.62942 5.084 7.86042 5.129 8.15442 5.129ZM12.7974 8.018C12.6114 8.018 12.4644 7.976 12.3564 7.892C12.2484 7.802 12.1614 7.655 12.0954 7.451C12.0054 7.151 11.9364 6.773 11.8884 6.317C11.8464 5.855 11.8254 5.288 11.8254 4.616C11.8254 4.202 11.8404 3.788 11.8704 3.374C11.9064 2.954 11.9514 2.573 12.0054 2.231C12.0594 1.883 12.1164 1.613 12.1764 1.421C12.2424 1.217 12.3204 1.076 12.4104 0.997999C12.5004 0.92 12.6024 0.881 12.7164 0.881C12.8364 0.881 12.9324 0.923 13.0044 1.007C13.0764 1.085 13.1334 1.226 13.1754 1.43C13.2114 1.628 13.2384 1.871 13.2564 2.159C13.2804 2.447 13.2924 2.756 13.2924 3.086C13.2924 3.536 13.2714 4.01 13.2294 4.508C13.1874 5.006 13.1304 5.495 13.0584 5.975C12.9924 6.455 12.9114 6.896 12.8154 7.298L12.5634 7.172C12.7194 6.98 12.8964 6.83 13.0944 6.722C13.2984 6.614 13.4844 6.56 13.6524 6.56C13.7904 6.56 13.8954 6.599 13.9674 6.677C14.0454 6.749 14.0844 6.863 14.0844 7.019C14.0844 7.175 14.0154 7.331 13.8774 7.487C13.7454 7.643 13.5804 7.772 13.3824 7.874C13.1844 7.97 12.9894 8.018 12.7974 8.018ZM17.0885 8.027C16.6085 8.027 16.1885 7.922 15.8285 7.712C15.4745 7.496 15.1985 7.19 15.0005 6.794C14.8085 6.398 14.7125 5.927 14.7125 5.381C14.7125 4.811 14.8115 4.313 15.0095 3.887C15.2075 3.461 15.4865 3.128 15.8465 2.888C16.2125 2.648 16.6355 2.528 17.1155 2.528C17.6315 2.528 18.0785 2.645 18.4565 2.879C18.8345 3.107 19.1285 3.428 19.3385 3.842C19.5485 4.256 19.6535 4.739 19.6535 5.291C19.6535 5.855 19.5485 6.341 19.3385 6.749C19.1285 7.157 18.8315 7.472 18.4475 7.694C18.0635 7.916 17.6105 8.027 17.0885 8.027ZM17.2145 6.812C17.5865 6.812 17.8805 6.665 18.0965 6.371C18.3185 6.071 18.4295 5.675 18.4295 5.183C18.4295 4.685 18.3185 4.289 18.0965 3.995C17.8805 3.701 17.5865 3.554 17.2145 3.554C16.8305 3.554 16.5275 3.701 16.3055 3.995C16.0835 4.289 15.9725 4.685 15.9725 5.183C15.9725 5.675 16.0835 6.071 16.3055 6.371C16.5275 6.665 16.8305 6.812 17.2145 6.812ZM24.4407 3.878C24.5007 3.632 24.6057 3.41 24.7557 3.212C24.9117 3.014 25.0977 2.858 25.3137 2.744C25.5357 2.624 25.7787 2.564 26.0427 2.564C26.3547 2.564 26.6307 2.639 26.8707 2.789C27.1107 2.939 27.2997 3.185 27.4377 3.527C27.5817 3.869 27.6537 4.325 27.6537 4.895C27.6537 5.189 27.6417 5.486 27.6177 5.786C27.5937 6.086 27.5637 6.365 27.5277 6.623C27.4917 6.881 27.4527 7.097 27.4107 7.271C27.3507 7.511 27.2577 7.694 27.1317 7.82C27.0117 7.946 26.8587 8.009 26.6727 8.009C26.5167 8.009 26.3937 7.94 26.3037 7.802C26.2137 7.664 26.1687 7.466 26.1687 7.208C26.1687 7.088 26.1837 6.935 26.2137 6.749C26.2437 6.557 26.2767 6.35 26.3127 6.128C26.3487 5.9 26.3817 5.669 26.4117 5.435C26.4417 5.201 26.4567 4.979 26.4567 4.769C26.4567 4.457 26.3937 4.217 26.2677 4.049C26.1417 3.875 25.9647 3.788 25.7367 3.788C25.4847 3.788 25.2747 3.92 25.1067 4.184C24.9447 4.442 24.8487 4.82 24.8187 5.318C24.7947 5.762 24.7737 6.158 24.7557 6.506C24.7377 6.848 24.6927 7.13 24.6207 7.352C24.5727 7.508 24.5037 7.625 24.4137 7.703C24.3297 7.781 24.2157 7.82 24.0717 7.82C23.9097 7.82 23.7807 7.76 23.6847 7.64C23.5947 7.52 23.5437 7.331 23.5317 7.073C23.5197 6.857 23.5167 6.602 23.5227 6.308C23.5287 6.014 23.5317 5.723 23.5317 5.435C23.5377 5.141 23.5347 4.898 23.5227 4.706C23.4987 4.322 23.4297 4.04 23.3157 3.86C23.2077 3.68 23.0427 3.59 22.8207 3.59C22.5627 3.59 22.3557 3.71 22.1997 3.95C22.0497 4.19 21.9567 4.523 21.9207 4.949C21.9087 5.123 21.9027 5.339 21.9027 5.597C21.9087 5.849 21.9147 6.101 21.9207 6.353C21.9267 6.605 21.9237 6.815 21.9117 6.983C21.9057 7.343 21.8487 7.601 21.7407 7.757C21.6387 7.913 21.4947 7.991 21.3087 7.991C21.0867 7.991 20.9247 7.919 20.8227 7.775C20.7267 7.631 20.6637 7.4 20.6337 7.082C20.6097 6.8 20.5917 6.521 20.5797 6.245C20.5677 5.963 20.5617 5.684 20.5617 5.408C20.5617 5.126 20.5677 4.82 20.5797 4.49C20.5977 4.16 20.6217 3.848 20.6517 3.554C20.6877 3.254 20.7507 3.002 20.8407 2.798C20.9307 2.594 21.0807 2.492 21.2907 2.492C21.4647 2.492 21.5877 2.579 21.6597 2.753C21.7317 2.921 21.7677 3.182 21.7677 3.536C21.7677 3.656 21.7587 3.767 21.7407 3.869L21.7137 3.689C21.8337 3.299 22.0257 2.996 22.2897 2.78C22.5537 2.558 22.8477 2.447 23.1717 2.447C23.5977 2.447 23.9307 2.585 24.1707 2.861C24.4107 3.131 24.5427 3.506 24.5667 3.986L24.4407 3.878ZM29.3651 2.42C29.5271 2.42 29.6621 2.516 29.7701 2.708C29.8781 2.894 29.9531 3.191 29.9951 3.599L29.8061 3.77C29.9141 3.35 30.1151 3.029 30.4091 2.807C30.7031 2.585 31.0511 2.474 31.4531 2.474C31.8251 2.474 32.1551 2.57 32.4431 2.762C32.7311 2.954 32.9561 3.245 33.1181 3.635C33.2861 4.019 33.3701 4.502 33.3701 5.084C33.3701 6.026 33.1991 6.722 32.8571 7.172C32.5211 7.616 32.0621 7.838 31.4801 7.838C31.0601 7.838 30.7301 7.748 30.4901 7.568C30.2501 7.388 30.0821 7.169 29.9861 6.911L30.0941 6.857C30.1421 7.217 30.1811 7.574 30.2111 7.928C30.2471 8.276 30.2651 8.582 30.2651 8.846C30.2651 9.116 30.2171 9.344 30.1211 9.53C30.0251 9.716 29.8721 9.809 29.6621 9.809C29.4581 9.809 29.3051 9.731 29.2031 9.575C29.1011 9.419 29.0261 9.212 28.9781 8.954C28.9421 8.69 28.9061 8.351 28.8701 7.937C28.8341 7.523 28.8041 7.076 28.7801 6.596C28.7621 6.116 28.7531 5.648 28.7531 5.192C28.7531 4.724 28.7681 4.286 28.7981 3.878C28.8341 3.464 28.8761 3.128 28.9241 2.87C28.9661 2.72 29.0201 2.609 29.0861 2.537C29.1581 2.459 29.2511 2.42 29.3651 2.42ZM31.0841 3.509C30.7601 3.509 30.4991 3.671 30.3011 3.995C30.1091 4.313 30.0131 4.721 30.0131 5.219C30.0131 5.729 30.1091 6.11 30.3011 6.362C30.4991 6.614 30.7541 6.74 31.0661 6.74C31.4261 6.74 31.6841 6.599 31.8401 6.317C32.0021 6.029 32.0831 5.657 32.0831 5.201C32.0831 4.619 31.9841 4.193 31.7861 3.923C31.5881 3.647 31.3541 3.509 31.0841 3.509ZM36.4684 8.027C35.9884 8.027 35.5684 7.922 35.2084 7.712C34.8544 7.496 34.5784 7.19 34.3804 6.794C34.1884 6.398 34.0924 5.927 34.0924 5.381C34.0924 4.811 34.1914 4.313 34.3894 3.887C34.5874 3.461 34.8664 3.128 35.2264 2.888C35.5924 2.648 36.0154 2.528 36.4954 2.528C37.0114 2.528 37.4584 2.645 37.8364 2.879C38.2144 3.107 38.5084 3.428 38.7184 3.842C38.9284 4.256 39.0334 4.739 39.0334 5.291C39.0334 5.855 38.9284 6.341 38.7184 6.749C38.5084 7.157 38.2114 7.472 37.8274 7.694C37.4434 7.916 36.9904 8.027 36.4684 8.027ZM36.5944 6.812C36.9664 6.812 37.2604 6.665 37.4764 6.371C37.6984 6.071 37.8094 5.675 37.8094 5.183C37.8094 4.685 37.6984 4.289 37.4764 3.995C37.2604 3.701 36.9664 3.554 36.5944 3.554C36.2104 3.554 35.9074 3.701 35.6854 3.995C35.4634 4.289 35.3524 4.685 35.3524 5.183C35.3524 5.675 35.4634 6.071 35.6854 6.371C35.9074 6.665 36.2104 6.812 36.5944 6.812ZM40.5536 8.09C40.4396 8.09 40.3466 8.057 40.2746 7.991C40.2026 7.919 40.1516 7.817 40.1216 7.685C40.0736 7.463 40.0316 7.142 39.9956 6.722C39.9596 6.302 39.9416 5.837 39.9416 5.327C39.9416 4.697 39.9626 4.091 40.0046 3.509C40.0526 2.927 40.1126 2.45 40.1846 2.078C40.2626 1.676 40.3586 1.382 40.4726 1.196C40.5866 1.004 40.7366 0.908 40.9226 0.908C41.0906 0.908 41.2196 0.986 41.3096 1.142C41.3996 1.292 41.4446 1.553 41.4446 1.925C41.4446 2.297 41.4296 2.696 41.3996 3.122C41.3756 3.548 41.3336 4.004 41.2736 4.49H41.3096C41.6996 3.962 42.0626 3.539 42.3986 3.221C42.7406 2.903 43.0526 2.672 43.3346 2.528C43.6226 2.384 43.8776 2.312 44.0996 2.312C44.2736 2.312 44.4026 2.366 44.4866 2.474C44.5706 2.582 44.6126 2.714 44.6126 2.87C44.6126 3.176 44.3666 3.518 43.8746 3.896C43.3886 4.274 42.6866 4.661 41.7686 5.057L41.7776 4.913C42.3476 5.207 42.8366 5.516 43.2446 5.84C43.6586 6.158 43.9736 6.461 44.1896 6.749C44.4116 7.031 44.5226 7.268 44.5226 7.46C44.5226 7.616 44.4716 7.745 44.3696 7.847C44.2736 7.943 44.1326 7.991 43.9466 7.991C43.7126 7.991 43.4516 7.904 43.1636 7.73C42.8816 7.55 42.5876 7.283 42.2816 6.929C41.9756 6.575 41.6696 6.131 41.3636 5.597H41.3276C41.3216 5.975 41.2976 6.344 41.2556 6.704C41.2196 7.058 41.1716 7.349 41.1116 7.577C41.0696 7.733 41.0036 7.859 40.9136 7.955C40.8296 8.045 40.7096 8.09 40.5536 8.09ZM48.5618 1.772C48.6758 1.772 48.7688 1.805 48.8408 1.871C48.9128 1.937 48.9788 2.048 49.0388 2.204C49.1288 2.444 49.1978 2.774 49.2458 3.194C49.2938 3.614 49.3178 4.124 49.3178 4.724C49.3178 5.096 49.2998 5.471 49.2638 5.849C49.2338 6.227 49.1918 6.572 49.1378 6.884C49.0838 7.196 49.0208 7.442 48.9488 7.622C48.8828 7.79 48.8138 7.913 48.7418 7.991C48.6698 8.063 48.5768 8.099 48.4628 8.099C48.3488 8.099 48.2558 8.054 48.1838 7.964C48.1178 7.868 48.0638 7.721 48.0218 7.523C47.9798 7.313 47.9468 7.064 47.9228 6.776C47.9048 6.482 47.8958 6.173 47.8958 5.849C47.8958 5.543 47.9138 5.222 47.9498 4.886C47.9858 4.55 48.0368 4.22 48.1028 3.896C48.1688 3.572 48.2438 3.275 48.3278 3.005L48.3818 3.014C48.1958 3.23 47.9888 3.398 47.7608 3.518C47.5328 3.638 47.3168 3.698 47.1128 3.698C47.0108 3.698 46.9298 3.671 46.8698 3.617C46.8158 3.563 46.7888 3.488 46.7888 3.392C46.7888 3.206 46.8398 3.02 46.9418 2.834C47.0498 2.642 47.1908 2.468 47.3648 2.312C47.5388 2.15 47.7308 2.021 47.9408 1.925C48.1508 1.823 48.3578 1.772 48.5618 1.772ZM53.7848 2.582H53.6048C53.5868 2.318 53.5928 2.069 53.6228 1.835C53.6528 1.595 53.7158 1.403 53.8118 1.259C53.9138 1.109 54.0578 1.034 54.2438 1.034C54.4118 1.034 54.5348 1.088 54.6128 1.196C54.6908 1.304 54.7298 1.454 54.7298 1.646C54.7298 2.024 54.6578 2.348 54.5138 2.618L54.3518 2.6C54.6758 2.486 55.0418 2.429 55.4498 2.429C55.7078 2.429 55.9118 2.48 56.0618 2.582C56.2178 2.678 56.2958 2.843 56.2958 3.077C56.2958 3.299 56.2058 3.467 56.0258 3.581C55.8458 3.695 55.6208 3.752 55.3508 3.752C55.1888 3.752 55.0148 3.746 54.8288 3.734C54.6488 3.716 54.4718 3.689 54.2978 3.653L54.4508 3.464C54.5048 3.692 54.5558 3.953 54.6038 4.247C54.6578 4.535 54.7058 4.835 54.7478 5.147C54.7898 5.459 54.8228 5.762 54.8468 6.056C54.8708 6.35 54.8828 6.614 54.8828 6.848C54.8828 7.232 54.8228 7.535 54.7028 7.757C54.5828 7.979 54.4058 8.09 54.1718 8.09C53.9858 8.09 53.8388 8.033 53.7308 7.919C53.6288 7.805 53.5538 7.661 53.5058 7.487C53.4638 7.307 53.4368 7.121 53.4248 6.929C53.4188 6.737 53.4158 6.563 53.4158 6.407C53.4158 6.143 53.4278 5.846 53.4518 5.516C53.4758 5.18 53.5088 4.835 53.5508 4.481C53.5988 4.127 53.6528 3.785 53.7128 3.455L53.8928 3.608C53.5868 3.764 53.2088 3.842 52.7588 3.842C52.4828 3.842 52.2698 3.791 52.1198 3.689C51.9698 3.587 51.8948 3.428 51.8948 3.212C51.8948 2.978 51.9788 2.798 52.1468 2.672C52.3148 2.54 52.5398 2.474 52.8218 2.474C53.0078 2.474 53.1818 2.486 53.3438 2.51C53.5118 2.528 53.6588 2.552 53.7848 2.582ZM59.4596 8.072C58.7936 8.072 58.2626 7.973 57.8666 7.775C57.4706 7.577 57.1856 7.292 57.0116 6.92C56.8376 6.548 56.7506 6.104 56.7506 5.588C56.7506 4.934 56.8706 4.379 57.1106 3.923C57.3566 3.461 57.6926 3.107 58.1186 2.861C58.5506 2.615 59.0396 2.492 59.5856 2.492C60.2276 2.492 60.6986 2.642 60.9986 2.942C61.2986 3.236 61.4486 3.623 61.4486 4.103C61.4486 4.487 61.3466 4.82 61.1426 5.102C60.9446 5.378 60.6686 5.591 60.3146 5.741C59.9606 5.891 59.5526 5.966 59.0906 5.966C58.8326 5.966 58.5836 5.933 58.3436 5.867C58.1036 5.801 57.8876 5.711 57.6956 5.597L57.9116 5.201C57.8936 5.345 57.8846 5.489 57.8846 5.633C57.8846 6.053 58.0166 6.356 58.2806 6.542C58.5446 6.722 58.9196 6.812 59.4056 6.812C59.7836 6.812 60.0866 6.779 60.3146 6.713C60.5426 6.647 60.7346 6.584 60.8906 6.524C61.0466 6.458 61.1996 6.425 61.3496 6.425C61.4336 6.425 61.5086 6.449 61.5746 6.497C61.6466 6.539 61.7036 6.602 61.7456 6.686C61.7936 6.77 61.8176 6.872 61.8176 6.992C61.8176 7.172 61.7276 7.346 61.5476 7.514C61.3676 7.676 61.1006 7.811 60.7466 7.919C60.3986 8.021 59.9696 8.072 59.4596 8.072ZM58.9376 5.129C59.3636 5.129 59.7056 5.039 59.9636 4.859C60.2216 4.679 60.3506 4.457 60.3506 4.193C60.3506 3.983 60.2786 3.812 60.1346 3.68C59.9966 3.542 59.7776 3.473 59.4776 3.473C59.1956 3.473 58.9406 3.527 58.7126 3.635C58.4906 3.737 58.3166 3.872 58.1906 4.04C58.0646 4.208 58.0016 4.391 58.0016 4.589C58.0016 4.763 58.0826 4.898 58.2446 4.994C58.4126 5.084 58.6436 5.129 58.9376 5.129ZM62.6086 3.941C62.6086 3.365 62.6626 2.951 62.7706 2.699C62.8786 2.441 63.0316 2.312 63.2296 2.312C63.3856 2.312 63.5086 2.378 63.5986 2.51C63.6886 2.636 63.7546 2.795 63.7966 2.987C63.8386 3.173 63.8596 3.362 63.8596 3.554L63.8146 3.536C63.9166 3.212 64.0726 2.933 64.2826 2.699C64.4986 2.465 64.7566 2.348 65.0566 2.348C65.4106 2.348 65.6716 2.495 65.8396 2.789C66.0076 3.077 66.0916 3.437 66.0916 3.869C66.0916 4.445 66.0256 4.847 65.8936 5.075C65.7616 5.303 65.5846 5.417 65.3626 5.417C65.2006 5.417 65.0806 5.351 65.0026 5.219C64.9306 5.087 64.9066 4.853 64.9306 4.517C64.9546 4.163 64.9336 3.917 64.8676 3.779C64.8016 3.641 64.6966 3.572 64.5526 3.572C64.3786 3.572 64.2346 3.683 64.1206 3.905C64.0126 4.121 63.9586 4.388 63.9586 4.706C63.9586 4.832 63.9736 4.991 64.0036 5.183C64.0336 5.375 64.0666 5.585 64.1026 5.813C64.1386 6.035 64.1716 6.257 64.2016 6.479C64.2316 6.701 64.2466 6.905 64.2466 7.091C64.2466 7.421 64.1956 7.658 64.0936 7.802C63.9916 7.946 63.8476 8.018 63.6616 8.018C63.4516 8.018 63.2896 7.952 63.1756 7.82C63.0616 7.682 62.9746 7.46 62.9146 7.154C62.8666 6.878 62.8186 6.551 62.7706 6.173C62.7226 5.795 62.6836 5.408 62.6536 5.012C62.6236 4.616 62.6086 4.259 62.6086 3.941ZM70.7678 3.878C70.8278 3.632 70.9328 3.41 71.0828 3.212C71.2388 3.014 71.4248 2.858 71.6408 2.744C71.8628 2.624 72.1058 2.564 72.3698 2.564C72.6818 2.564 72.9578 2.639 73.1978 2.789C73.4378 2.939 73.6268 3.185 73.7648 3.527C73.9088 3.869 73.9808 4.325 73.9808 4.895C73.9808 5.189 73.9688 5.486 73.9448 5.786C73.9208 6.086 73.8908 6.365 73.8548 6.623C73.8188 6.881 73.7798 7.097 73.7378 7.271C73.6778 7.511 73.5848 7.694 73.4588 7.82C73.3388 7.946 73.1858 8.009 72.9998 8.009C72.8438 8.009 72.7208 7.94 72.6308 7.802C72.5408 7.664 72.4958 7.466 72.4958 7.208C72.4958 7.088 72.5108 6.935 72.5408 6.749C72.5708 6.557 72.6038 6.35 72.6398 6.128C72.6758 5.9 72.7088 5.669 72.7388 5.435C72.7688 5.201 72.7838 4.979 72.7838 4.769C72.7838 4.457 72.7208 4.217 72.5948 4.049C72.4688 3.875 72.2918 3.788 72.0638 3.788C71.8118 3.788 71.6018 3.92 71.4338 4.184C71.2718 4.442 71.1758 4.82 71.1458 5.318C71.1218 5.762 71.1008 6.158 71.0828 6.506C71.0648 6.848 71.0198 7.13 70.9478 7.352C70.8998 7.508 70.8308 7.625 70.7408 7.703C70.6568 7.781 70.5428 7.82 70.3988 7.82C70.2368 7.82 70.1078 7.76 70.0118 7.64C69.9218 7.52 69.8708 7.331 69.8588 7.073C69.8468 6.857 69.8438 6.602 69.8498 6.308C69.8558 6.014 69.8588 5.723 69.8588 5.435C69.8648 5.141 69.8618 4.898 69.8498 4.706C69.8258 4.322 69.7568 4.04 69.6428 3.86C69.5348 3.68 69.3698 3.59 69.1478 3.59C68.8898 3.59 68.6828 3.71 68.5268 3.95C68.3768 4.19 68.2838 4.523 68.2478 4.949C68.2358 5.123 68.2298 5.339 68.2298 5.597C68.2358 5.849 68.2418 6.101 68.2478 6.353C68.2538 6.605 68.2508 6.815 68.2388 6.983C68.2328 7.343 68.1758 7.601 68.0678 7.757C67.9658 7.913 67.8218 7.991 67.6358 7.991C67.4138 7.991 67.2518 7.919 67.1498 7.775C67.0538 7.631 66.9908 7.4 66.9608 7.082C66.9368 6.8 66.9188 6.521 66.9068 6.245C66.8948 5.963 66.8888 5.684 66.8888 5.408C66.8888 5.126 66.8948 4.82 66.9068 4.49C66.9248 4.16 66.9488 3.848 66.9788 3.554C67.0148 3.254 67.0778 3.002 67.1678 2.798C67.2578 2.594 67.4078 2.492 67.6178 2.492C67.7918 2.492 67.9148 2.579 67.9868 2.753C68.0588 2.921 68.0948 3.182 68.0948 3.536C68.0948 3.656 68.0858 3.767 68.0678 3.869L68.0408 3.689C68.1608 3.299 68.3528 2.996 68.6168 2.78C68.8808 2.558 69.1748 2.447 69.4988 2.447C69.9248 2.447 70.2578 2.585 70.4978 2.861C70.7378 3.131 70.8698 3.506 70.8938 3.986L70.7678 3.878ZM79.0133 8.09C78.8093 8.09 78.6683 8.012 78.5903 7.856C78.5183 7.694 78.4763 7.439 78.4643 7.091L78.5543 7.136C78.2183 7.79 77.5823 8.117 76.6463 8.117C76.2203 8.117 75.8663 8.042 75.5843 7.892C75.3023 7.736 75.0923 7.532 74.9543 7.28C74.8223 7.022 74.7563 6.743 74.7563 6.443C74.7563 5.927 74.9363 5.519 75.2963 5.219C75.6563 4.913 76.1333 4.76 76.7273 4.76C77.1173 4.76 77.4563 4.817 77.7443 4.931C78.0323 5.045 78.2783 5.204 78.4823 5.408L78.3293 5.39C78.2873 4.784 78.1553 4.352 77.9333 4.094C77.7173 3.83 77.4083 3.698 77.0063 3.698C76.7723 3.698 76.5563 3.734 76.3583 3.806C76.1603 3.878 75.9773 3.953 75.8093 4.031C75.6473 4.103 75.4943 4.139 75.3503 4.139C75.2063 4.139 75.0923 4.091 75.0083 3.995C74.9303 3.899 74.8913 3.776 74.8913 3.626C74.8913 3.41 74.9933 3.206 75.1973 3.014C75.4073 2.822 75.6833 2.666 76.0253 2.546C76.3673 2.426 76.7393 2.366 77.1413 2.366C77.6273 2.366 78.0443 2.483 78.3923 2.717C78.7403 2.951 79.0043 3.293 79.1843 3.743C79.3403 4.127 79.4513 4.556 79.5173 5.03C79.5833 5.504 79.6162 6.011 79.6162 6.551C79.6162 6.959 79.5953 7.274 79.5533 7.496C79.5113 7.718 79.4453 7.874 79.3553 7.964C79.2713 8.048 79.1573 8.09 79.0133 8.09ZM77.0243 7.082C77.2223 7.082 77.4233 7.055 77.6273 7.001C77.8313 6.941 78.0023 6.854 78.1403 6.74C78.2783 6.626 78.3473 6.485 78.3473 6.317C78.3473 6.173 78.2873 6.056 78.1673 5.966C78.0533 5.87 77.9003 5.798 77.7083 5.75C77.5223 5.702 77.3213 5.678 77.1053 5.678C76.7393 5.678 76.4603 5.741 76.2683 5.867C76.0823 5.993 75.9893 6.161 75.9893 6.371C75.9893 6.599 76.0763 6.776 76.2503 6.902C76.4303 7.022 76.6883 7.082 77.0243 7.082ZM82.991 2.366C83.525 2.366 83.909 2.444 84.143 2.6C84.377 2.756 84.494 2.957 84.494 3.203C84.494 3.347 84.443 3.467 84.341 3.563C84.245 3.653 84.107 3.698 83.927 3.698C83.741 3.698 83.546 3.671 83.342 3.617C83.144 3.563 82.913 3.536 82.649 3.536C82.343 3.536 82.115 3.596 81.965 3.716C81.815 3.836 81.74 3.989 81.74 4.175C81.74 4.349 81.806 4.487 81.938 4.589C82.076 4.685 82.337 4.757 82.721 4.805C83.147 4.853 83.498 4.931 83.774 5.039C84.056 5.141 84.266 5.297 84.404 5.507C84.542 5.711 84.611 5.993 84.611 6.353C84.611 6.923 84.41 7.346 84.008 7.622C83.606 7.898 83.051 8.036 82.343 8.036C81.893 8.036 81.536 8 81.272 7.928C81.008 7.856 80.816 7.754 80.696 7.622C80.582 7.49 80.525 7.334 80.525 7.154C80.525 6.998 80.576 6.878 80.678 6.794C80.786 6.704 80.912 6.659 81.056 6.659C81.194 6.659 81.341 6.677 81.497 6.713C81.653 6.743 81.818 6.776 81.992 6.812C82.166 6.848 82.346 6.866 82.532 6.866C83.132 6.866 83.432 6.68 83.432 6.308C83.432 6.182 83.402 6.08 83.342 6.002C83.282 5.924 83.174 5.861 83.018 5.813C82.862 5.759 82.634 5.717 82.334 5.687C81.974 5.651 81.662 5.591 81.398 5.507C81.134 5.417 80.93 5.273 80.786 5.075C80.642 4.871 80.57 4.592 80.57 4.238C80.57 3.68 80.78 3.23 81.2 2.888C81.62 2.54 82.217 2.366 82.991 2.366ZM89.5717 7.946C89.4097 7.946 89.2837 7.892 89.1937 7.784C89.1097 7.67 89.0527 7.526 89.0227 7.352C88.9927 7.172 88.9777 6.983 88.9777 6.785L89.0227 6.749C88.9627 7.007 88.8457 7.229 88.6717 7.415C88.4977 7.601 88.2967 7.745 88.0687 7.847C87.8407 7.943 87.6127 7.991 87.3847 7.991C87.0787 7.991 86.7997 7.919 86.5477 7.775C86.2957 7.631 86.1007 7.409 85.9627 7.109C85.8247 6.791 85.7167 6.392 85.6387 5.912C85.5607 5.426 85.5217 4.928 85.5217 4.418C85.5217 4.142 85.5337 3.887 85.5577 3.653C85.5817 3.419 85.6207 3.227 85.6747 3.077C85.7227 2.921 85.7947 2.807 85.8907 2.735C85.9867 2.657 86.1097 2.618 86.2597 2.618C86.4337 2.618 86.5687 2.687 86.6647 2.825C86.7667 2.957 86.8297 3.143 86.8537 3.383C86.8777 3.581 86.8927 3.827 86.8987 4.121C86.9107 4.409 86.9197 4.7 86.9257 4.994C86.9377 5.282 86.9527 5.525 86.9707 5.723C87.0067 6.083 87.0997 6.35 87.2497 6.524C87.3997 6.692 87.5827 6.776 87.7987 6.776C88.1167 6.776 88.3597 6.656 88.5277 6.416C88.6957 6.176 88.7797 5.84 88.7797 5.408C88.7797 5.192 88.7677 4.949 88.7437 4.679C88.7197 4.403 88.6927 4.136 88.6627 3.878C88.6387 3.62 88.6267 3.407 88.6267 3.239C88.6267 2.957 88.6747 2.756 88.7707 2.636C88.8667 2.51 88.9987 2.447 89.1667 2.447C89.3107 2.447 89.4307 2.486 89.5267 2.564C89.6287 2.642 89.7097 2.75 89.7697 2.888C89.8537 3.068 89.9257 3.314 89.9857 3.626C90.0457 3.938 90.0937 4.292 90.1297 4.688C90.1657 5.084 90.1837 5.501 90.1837 5.939C90.1837 6.611 90.1387 7.115 90.0487 7.451C89.9587 7.781 89.7997 7.946 89.5717 7.946ZM91.8905 8.09C91.7765 8.09 91.6835 8.057 91.6115 7.991C91.5395 7.919 91.4885 7.817 91.4585 7.685C91.4105 7.463 91.3685 7.142 91.3325 6.722C91.2965 6.302 91.2785 5.837 91.2785 5.327C91.2785 4.697 91.2995 4.091 91.3415 3.509C91.3895 2.927 91.4495 2.45 91.5215 2.078C91.5995 1.676 91.6955 1.382 91.8095 1.196C91.9235 1.004 92.0735 0.908 92.2595 0.908C92.4275 0.908 92.5565 0.986 92.6465 1.142C92.7365 1.292 92.7815 1.553 92.7815 1.925C92.7815 2.297 92.7665 2.696 92.7365 3.122C92.7125 3.548 92.6705 4.004 92.6105 4.49H92.6465C93.0365 3.962 93.3995 3.539 93.7355 3.221C94.0775 2.903 94.3895 2.672 94.6715 2.528C94.9595 2.384 95.2145 2.312 95.4365 2.312C95.6105 2.312 95.7395 2.366 95.8235 2.474C95.9075 2.582 95.9495 2.714 95.9495 2.87C95.9495 3.176 95.7035 3.518 95.2115 3.896C94.7255 4.274 94.0235 4.661 93.1055 5.057L93.1145 4.913C93.6845 5.207 94.1735 5.516 94.5815 5.84C94.9955 6.158 95.3105 6.461 95.5265 6.749C95.7485 7.031 95.8595 7.268 95.8595 7.46C95.8595 7.616 95.8085 7.745 95.7065 7.847C95.6105 7.943 95.4695 7.991 95.2835 7.991C95.0495 7.991 94.7885 7.904 94.5005 7.73C94.2185 7.55 93.9245 7.283 93.6185 6.929C93.3125 6.575 93.0065 6.131 92.7005 5.597H92.6645C92.6585 5.975 92.6345 6.344 92.5925 6.704C92.5565 7.058 92.5085 7.349 92.4485 7.577C92.4065 7.733 92.3405 7.859 92.2505 7.955C92.1665 8.045 92.0465 8.09 91.8905 8.09ZM99.0887 8.09C98.9747 8.09 98.8817 8.057 98.8097 7.991C98.7377 7.919 98.6867 7.817 98.6567 7.685C98.6087 7.463 98.5667 7.142 98.5307 6.722C98.4947 6.302 98.4767 5.837 98.4767 5.327C98.4767 4.697 98.4977 4.091 98.5397 3.509C98.5877 2.927 98.6477 2.45 98.7197 2.078C98.7977 1.676 98.8937 1.382 99.0077 1.196C99.1217 1.004 99.2717 0.908 99.4577 0.908C99.6257 0.908 99.7547 0.986 99.8447 1.142C99.9347 1.292 99.9797 1.553 99.9797 1.925C99.9797 2.297 99.9647 2.696 99.9347 3.122C99.9107 3.548 99.8687 4.004 99.8087 4.49H99.8447C100.235 3.962 100.598 3.539 100.934 3.221C101.276 2.903 101.588 2.672 101.87 2.528C102.158 2.384 102.413 2.312 102.635 2.312C102.809 2.312 102.938 2.366 103.022 2.474C103.106 2.582 103.148 2.714 103.148 2.87C103.148 3.176 102.902 3.518 102.41 3.896C101.924 4.274 101.222 4.661 100.304 5.057L100.313 4.913C100.883 5.207 101.372 5.516 101.78 5.84C102.194 6.158 102.509 6.461 102.725 6.749C102.947 7.031 103.058 7.268 103.058 7.46C103.058 7.616 103.007 7.745 102.905 7.847C102.809 7.943 102.668 7.991 102.482 7.991C102.248 7.991 101.987 7.904 101.699 7.73C101.417 7.55 101.123 7.283 100.817 6.929C100.511 6.575 100.205 6.131 99.8987 5.597H99.8627C99.8567 5.975 99.8327 6.344 99.7907 6.704C99.7547 7.058 99.7067 7.349 99.6467 7.577C99.6047 7.733 99.5387 7.859 99.4487 7.955C99.3647 8.045 99.2447 8.09 99.0887 8.09ZM106.305 8.072C105.639 8.072 105.108 7.973 104.712 7.775C104.316 7.577 104.031 7.292 103.857 6.92C103.683 6.548 103.596 6.104 103.596 5.588C103.596 4.934 103.716 4.379 103.956 3.923C104.202 3.461 104.538 3.107 104.964 2.861C105.396 2.615 105.885 2.492 106.431 2.492C107.073 2.492 107.544 2.642 107.844 2.942C108.144 3.236 108.294 3.623 108.294 4.103C108.294 4.487 108.192 4.82 107.988 5.102C107.79 5.378 107.514 5.591 107.16 5.741C106.806 5.891 106.398 5.966 105.936 5.966C105.678 5.966 105.429 5.933 105.189 5.867C104.949 5.801 104.733 5.711 104.541 5.597L104.757 5.201C104.739 5.345 104.73 5.489 104.73 5.633C104.73 6.053 104.862 6.356 105.126 6.542C105.39 6.722 105.765 6.812 106.251 6.812C106.629 6.812 106.932 6.779 107.16 6.713C107.388 6.647 107.58 6.584 107.736 6.524C107.892 6.458 108.045 6.425 108.195 6.425C108.279 6.425 108.354 6.449 108.42 6.497C108.492 6.539 108.549 6.602 108.591 6.686C108.639 6.77 108.663 6.872 108.663 6.992C108.663 7.172 108.573 7.346 108.393 7.514C108.213 7.676 107.946 7.811 107.592 7.919C107.244 8.021 106.815 8.072 106.305 8.072ZM105.783 5.129C106.209 5.129 106.551 5.039 106.809 4.859C107.067 4.679 107.196 4.457 107.196 4.193C107.196 3.983 107.124 3.812 106.98 3.68C106.842 3.542 106.623 3.473 106.323 3.473C106.041 3.473 105.786 3.527 105.558 3.635C105.336 3.737 105.162 3.872 105.036 4.04C104.91 4.208 104.847 4.391 104.847 4.589C104.847 4.763 104.928 4.898 105.09 4.994C105.258 5.084 105.489 5.129 105.783 5.129ZM112.939 8.126C112.351 8.126 111.892 7.907 111.562 7.469C111.232 7.025 111.067 6.35 111.067 5.444C111.067 4.544 111.229 3.887 111.553 3.473C111.883 3.053 112.354 2.843 112.966 2.843C113.314 2.843 113.617 2.915 113.875 3.059C114.139 3.203 114.373 3.407 114.577 3.671L114.505 3.707C114.451 3.461 114.397 3.2 114.343 2.924C114.289 2.648 114.244 2.387 114.208 2.141C114.178 1.889 114.163 1.691 114.163 1.547C114.163 1.343 114.196 1.187 114.262 1.079C114.328 0.965 114.433 0.908 114.577 0.908C114.781 0.908 114.946 0.995 115.072 1.169C115.198 1.337 115.303 1.598 115.387 1.952C115.465 2.27 115.534 2.648 115.594 3.086C115.654 3.518 115.702 3.971 115.738 4.445C115.78 4.913 115.801 5.363 115.801 5.795C115.801 6.395 115.768 6.863 115.702 7.199C115.642 7.529 115.555 7.76 115.441 7.892C115.333 8.024 115.204 8.09 115.054 8.09C114.868 8.09 114.742 7.997 114.676 7.811C114.61 7.625 114.583 7.322 114.595 6.902H114.73C114.568 7.274 114.331 7.571 114.019 7.793C113.713 8.015 113.353 8.126 112.939 8.126ZM113.416 7.01C113.632 7.01 113.83 6.956 114.01 6.848C114.196 6.734 114.343 6.56 114.451 6.326C114.565 6.092 114.622 5.795 114.622 5.435C114.622 4.973 114.517 4.598 114.307 4.31C114.097 4.016 113.794 3.869 113.398 3.869C113.086 3.869 112.831 3.998 112.633 4.256C112.441 4.514 112.345 4.904 112.345 5.426C112.345 5.888 112.441 6.269 112.633 6.569C112.831 6.863 113.092 7.01 113.416 7.01ZM120.832 8.09C120.628 8.09 120.487 8.012 120.409 7.856C120.337 7.694 120.295 7.439 120.283 7.091L120.373 7.136C120.037 7.79 119.401 8.117 118.465 8.117C118.039 8.117 117.685 8.042 117.403 7.892C117.121 7.736 116.911 7.532 116.773 7.28C116.641 7.022 116.575 6.743 116.575 6.443C116.575 5.927 116.755 5.519 117.115 5.219C117.475 4.913 117.952 4.76 118.546 4.76C118.936 4.76 119.275 4.817 119.563 4.931C119.851 5.045 120.097 5.204 120.301 5.408L120.148 5.39C120.106 4.784 119.974 4.352 119.752 4.094C119.536 3.83 119.227 3.698 118.825 3.698C118.591 3.698 118.375 3.734 118.177 3.806C117.979 3.878 117.796 3.953 117.628 4.031C117.466 4.103 117.313 4.139 117.169 4.139C117.025 4.139 116.911 4.091 116.827 3.995C116.749 3.899 116.71 3.776 116.71 3.626C116.71 3.41 116.812 3.206 117.016 3.014C117.226 2.822 117.502 2.666 117.844 2.546C118.186 2.426 118.558 2.366 118.96 2.366C119.446 2.366 119.863 2.483 120.211 2.717C120.559 2.951 120.823 3.293 121.003 3.743C121.159 4.127 121.27 4.556 121.336 5.03C121.402 5.504 121.435 6.011 121.435 6.551C121.435 6.959 121.414 7.274 121.372 7.496C121.33 7.718 121.264 7.874 121.174 7.964C121.09 8.048 120.976 8.09 120.832 8.09ZM118.843 7.082C119.041 7.082 119.242 7.055 119.446 7.001C119.65 6.941 119.821 6.854 119.959 6.74C120.097 6.626 120.166 6.485 120.166 6.317C120.166 6.173 120.106 6.056 119.986 5.966C119.872 5.87 119.719 5.798 119.527 5.75C119.341 5.702 119.14 5.678 118.924 5.678C118.558 5.678 118.279 5.741 118.087 5.867C117.901 5.993 117.808 6.161 117.808 6.371C117.808 6.599 117.895 6.776 118.069 6.902C118.249 7.022 118.507 7.082 118.843 7.082ZM123.504 8.018C123.318 8.018 123.171 7.976 123.063 7.892C122.955 7.802 122.868 7.655 122.802 7.451C122.712 7.151 122.643 6.773 122.595 6.317C122.553 5.855 122.532 5.288 122.532 4.616C122.532 4.202 122.547 3.788 122.577 3.374C122.613 2.954 122.658 2.573 122.712 2.231C122.766 1.883 122.823 1.613 122.883 1.421C122.949 1.217 123.027 1.076 123.117 0.997999C123.207 0.92 123.309 0.881 123.423 0.881C123.543 0.881 123.639 0.923 123.711 1.007C123.783 1.085 123.84 1.226 123.882 1.43C123.918 1.628 123.945 1.871 123.963 2.159C123.987 2.447 123.999 2.756 123.999 3.086C123.999 3.536 123.978 4.01 123.936 4.508C123.894 5.006 123.837 5.495 123.765 5.975C123.699 6.455 123.618 6.896 123.522 7.298L123.27 7.172C123.426 6.98 123.603 6.83 123.801 6.722C124.005 6.614 124.191 6.56 124.359 6.56C124.497 6.56 124.602 6.599 124.674 6.677C124.752 6.749 124.791 6.863 124.791 7.019C124.791 7.175 124.722 7.331 124.584 7.487C124.452 7.643 124.287 7.772 124.089 7.874C123.891 7.97 123.696 8.018 123.504 8.018ZM129.542 8.09C129.338 8.09 129.197 8.012 129.119 7.856C129.047 7.694 129.005 7.439 128.993 7.091L129.083 7.136C128.747 7.79 128.111 8.117 127.175 8.117C126.749 8.117 126.395 8.042 126.113 7.892C125.831 7.736 125.621 7.532 125.483 7.28C125.351 7.022 125.285 6.743 125.285 6.443C125.285 5.927 125.465 5.519 125.825 5.219C126.185 4.913 126.662 4.76 127.256 4.76C127.646 4.76 127.985 4.817 128.273 4.931C128.561 5.045 128.807 5.204 129.011 5.408L128.858 5.39C128.816 4.784 128.684 4.352 128.462 4.094C128.246 3.83 127.937 3.698 127.535 3.698C127.301 3.698 127.085 3.734 126.887 3.806C126.689 3.878 126.506 3.953 126.338 4.031C126.176 4.103 126.023 4.139 125.879 4.139C125.735 4.139 125.621 4.091 125.537 3.995C125.459 3.899 125.42 3.776 125.42 3.626C125.42 3.41 125.522 3.206 125.726 3.014C125.936 2.822 126.212 2.666 126.554 2.546C126.896 2.426 127.268 2.366 127.67 2.366C128.156 2.366 128.573 2.483 128.921 2.717C129.269 2.951 129.533 3.293 129.713 3.743C129.869 4.127 129.98 4.556 130.046 5.03C130.112 5.504 130.145 6.011 130.145 6.551C130.145 6.959 130.124 7.274 130.082 7.496C130.04 7.718 129.974 7.874 129.884 7.964C129.8 8.048 129.686 8.09 129.542 8.09ZM127.553 7.082C127.751 7.082 127.952 7.055 128.156 7.001C128.36 6.941 128.531 6.854 128.669 6.74C128.807 6.626 128.876 6.485 128.876 6.317C128.876 6.173 128.816 6.056 128.696 5.966C128.582 5.87 128.429 5.798 128.237 5.75C128.051 5.702 127.85 5.678 127.634 5.678C127.268 5.678 126.989 5.741 126.797 5.867C126.611 5.993 126.518 6.161 126.518 6.371C126.518 6.599 126.605 6.776 126.779 6.902C126.959 7.022 127.217 7.082 127.553 7.082ZM135.121 3.878C135.181 3.632 135.286 3.41 135.436 3.212C135.592 3.014 135.778 2.858 135.994 2.744C136.216 2.624 136.459 2.564 136.723 2.564C137.035 2.564 137.311 2.639 137.551 2.789C137.791 2.939 137.98 3.185 138.118 3.527C138.262 3.869 138.334 4.325 138.334 4.895C138.334 5.189 138.322 5.486 138.298 5.786C138.274 6.086 138.244 6.365 138.208 6.623C138.172 6.881 138.133 7.097 138.091 7.271C138.031 7.511 137.938 7.694 137.812 7.82C137.692 7.946 137.539 8.009 137.353 8.009C137.197 8.009 137.074 7.94 136.984 7.802C136.894 7.664 136.849 7.466 136.849 7.208C136.849 7.088 136.864 6.935 136.894 6.749C136.924 6.557 136.957 6.35 136.993 6.128C137.029 5.9 137.062 5.669 137.092 5.435C137.122 5.201 137.137 4.979 137.137 4.769C137.137 4.457 137.074 4.217 136.948 4.049C136.822 3.875 136.645 3.788 136.417 3.788C136.165 3.788 135.955 3.92 135.787 4.184C135.625 4.442 135.529 4.82 135.499 5.318C135.475 5.762 135.454 6.158 135.436 6.506C135.418 6.848 135.373 7.13 135.301 7.352C135.253 7.508 135.184 7.625 135.094 7.703C135.01 7.781 134.896 7.82 134.752 7.82C134.59 7.82 134.461 7.76 134.365 7.64C134.275 7.52 134.224 7.331 134.212 7.073C134.2 6.857 134.197 6.602 134.203 6.308C134.209 6.014 134.212 5.723 134.212 5.435C134.218 5.141 134.215 4.898 134.203 4.706C134.179 4.322 134.11 4.04 133.996 3.86C133.888 3.68 133.723 3.59 133.501 3.59C133.243 3.59 133.036 3.71 132.88 3.95C132.73 4.19 132.637 4.523 132.601 4.949C132.589 5.123 132.583 5.339 132.583 5.597C132.589 5.849 132.595 6.101 132.601 6.353C132.607 6.605 132.604 6.815 132.592 6.983C132.586 7.343 132.529 7.601 132.421 7.757C132.319 7.913 132.175 7.991 131.989 7.991C131.767 7.991 131.605 7.919 131.503 7.775C131.407 7.631 131.344 7.4 131.314 7.082C131.29 6.8 131.272 6.521 131.26 6.245C131.248 5.963 131.242 5.684 131.242 5.408C131.242 5.126 131.248 4.82 131.26 4.49C131.278 4.16 131.302 3.848 131.332 3.554C131.368 3.254 131.431 3.002 131.521 2.798C131.611 2.594 131.761 2.492 131.971 2.492C132.145 2.492 132.268 2.579 132.34 2.753C132.412 2.921 132.448 3.182 132.448 3.536C132.448 3.656 132.439 3.767 132.421 3.869L132.394 3.689C132.514 3.299 132.706 2.996 132.97 2.78C133.234 2.558 133.528 2.447 133.852 2.447C134.278 2.447 134.611 2.585 134.851 2.861C135.091 3.131 135.223 3.506 135.247 3.986L135.121 3.878ZM141.92 8.09C141.788 8.09 141.68 8.045 141.596 7.955C141.518 7.865 141.455 7.736 141.407 7.568C141.359 7.322 141.317 7.001 141.281 6.605C141.251 6.203 141.236 5.774 141.236 5.318C141.236 5.06 141.242 4.769 141.254 4.445C141.266 4.121 141.281 3.794 141.299 3.464C141.323 3.128 141.347 2.816 141.371 2.528C141.401 2.24 141.431 2.006 141.461 1.826C141.509 1.562 141.578 1.355 141.668 1.205C141.764 1.049 141.914 0.971 142.118 0.971C142.328 0.971 142.481 1.052 142.577 1.214C142.673 1.37 142.721 1.565 142.721 1.799C142.721 2.063 142.7 2.375 142.658 2.735C142.622 3.095 142.565 3.461 142.487 3.833L142.307 4.049C142.373 3.797 142.481 3.566 142.631 3.356C142.781 3.146 142.97 2.981 143.198 2.861C143.426 2.735 143.69 2.672 143.99 2.672C144.578 2.672 145.046 2.882 145.394 3.302C145.748 3.716 145.925 4.364 145.925 5.246C145.925 5.864 145.832 6.38 145.646 6.794C145.466 7.208 145.217 7.52 144.899 7.73C144.587 7.934 144.23 8.036 143.828 8.036C143.45 8.036 143.123 7.925 142.847 7.703C142.577 7.481 142.403 7.16 142.325 6.74L142.451 6.839C142.427 7.271 142.367 7.589 142.271 7.793C142.181 7.991 142.064 8.09 141.92 8.09ZM143.567 6.992C143.867 6.992 144.131 6.857 144.359 6.587C144.587 6.317 144.701 5.894 144.701 5.318C144.701 4.838 144.611 4.448 144.431 4.148C144.257 3.848 143.963 3.698 143.549 3.698C143.213 3.698 142.943 3.833 142.739 4.103C142.535 4.367 142.433 4.769 142.433 5.309C142.433 5.801 142.535 6.206 142.739 6.524C142.943 6.836 143.219 6.992 143.567 6.992ZM150.767 8.09C150.563 8.09 150.422 8.012 150.344 7.856C150.272 7.694 150.23 7.439 150.218 7.091L150.308 7.136C149.972 7.79 149.336 8.117 148.4 8.117C147.974 8.117 147.62 8.042 147.338 7.892C147.056 7.736 146.846 7.532 146.708 7.28C146.576 7.022 146.51 6.743 146.51 6.443C146.51 5.927 146.69 5.519 147.05 5.219C147.41 4.913 147.887 4.76 148.481 4.76C148.871 4.76 149.21 4.817 149.498 4.931C149.786 5.045 150.032 5.204 150.236 5.408L150.083 5.39C150.041 4.784 149.909 4.352 149.687 4.094C149.471 3.83 149.162 3.698 148.76 3.698C148.526 3.698 148.31 3.734 148.112 3.806C147.914 3.878 147.731 3.953 147.563 4.031C147.401 4.103 147.248 4.139 147.104 4.139C146.96 4.139 146.846 4.091 146.762 3.995C146.684 3.899 146.645 3.776 146.645 3.626C146.645 3.41 146.747 3.206 146.951 3.014C147.161 2.822 147.437 2.666 147.779 2.546C148.121 2.426 148.493 2.366 148.895 2.366C149.381 2.366 149.798 2.483 150.146 2.717C150.494 2.951 150.758 3.293 150.938 3.743C151.094 4.127 151.205 4.556 151.271 5.03C151.337 5.504 151.37 6.011 151.37 6.551C151.37 6.959 151.349 7.274 151.307 7.496C151.265 7.718 151.199 7.874 151.109 7.964C151.025 8.048 150.911 8.09 150.767 8.09ZM148.778 7.082C148.976 7.082 149.177 7.055 149.381 7.001C149.585 6.941 149.756 6.854 149.894 6.74C150.032 6.626 150.101 6.485 150.101 6.317C150.101 6.173 150.041 6.056 149.921 5.966C149.807 5.87 149.654 5.798 149.462 5.75C149.276 5.702 149.075 5.678 148.859 5.678C148.493 5.678 148.214 5.741 148.022 5.867C147.836 5.993 147.743 6.161 147.743 6.371C147.743 6.599 147.83 6.776 148.004 6.902C148.184 7.022 148.442 7.082 148.778 7.082ZM153.386 2.402C153.578 2.402 153.707 2.48 153.773 2.636C153.845 2.792 153.881 3.023 153.881 3.329C153.881 3.401 153.875 3.479 153.863 3.563C153.857 3.641 153.845 3.713 153.827 3.779L153.809 3.599C153.953 3.209 154.175 2.906 154.475 2.69C154.775 2.468 155.093 2.357 155.429 2.357C155.801 2.357 156.11 2.462 156.356 2.672C156.608 2.882 156.794 3.176 156.914 3.554C157.04 3.932 157.103 4.379 157.103 4.895C157.103 5.213 157.088 5.528 157.058 5.84C157.034 6.146 156.998 6.428 156.95 6.686C156.908 6.938 156.86 7.145 156.806 7.307C156.734 7.511 156.641 7.664 156.527 7.766C156.413 7.862 156.278 7.91 156.122 7.91C155.966 7.91 155.846 7.853 155.762 7.739C155.678 7.625 155.636 7.472 155.636 7.28C155.636 7.076 155.651 6.83 155.681 6.542C155.711 6.248 155.738 5.951 155.762 5.651C155.792 5.345 155.807 5.069 155.807 4.823C155.807 3.983 155.531 3.563 154.979 3.563C154.685 3.563 154.439 3.695 154.241 3.959C154.043 4.217 153.911 4.586 153.845 5.066C153.827 5.228 153.818 5.429 153.818 5.669C153.818 5.909 153.818 6.149 153.818 6.389C153.824 6.623 153.818 6.821 153.8 6.983C153.776 7.343 153.707 7.601 153.593 7.757C153.485 7.913 153.335 7.991 153.143 7.991C152.921 7.991 152.753 7.889 152.639 7.685C152.525 7.475 152.468 7.124 152.468 6.632C152.468 6.38 152.474 6.098 152.486 5.786C152.498 5.474 152.513 5.162 152.531 4.85C152.555 4.532 152.582 4.244 152.612 3.986C152.672 3.5 152.759 3.116 152.873 2.834C152.987 2.546 153.158 2.402 153.386 2.402ZM159.917 7.856C159.353 7.856 158.894 7.64 158.54 7.208C158.186 6.77 158.009 6.107 158.009 5.219C158.009 4.271 158.18 3.578 158.522 3.14C158.864 2.702 159.314 2.483 159.872 2.483C160.202 2.483 160.493 2.567 160.745 2.735C160.997 2.903 161.213 3.14 161.393 3.446L161.321 3.572C161.303 3.488 161.288 3.398 161.276 3.302C161.264 3.206 161.258 3.134 161.258 3.086C161.258 2.84 161.297 2.651 161.375 2.519C161.459 2.381 161.588 2.312 161.762 2.312C161.954 2.312 162.104 2.39 162.212 2.546C162.326 2.702 162.413 2.924 162.473 3.212C162.551 3.506 162.617 3.881 162.671 4.337C162.725 4.787 162.752 5.243 162.752 5.705C162.752 6.281 162.731 6.764 162.689 7.154C162.647 7.544 162.578 7.868 162.482 8.126C162.386 8.384 162.26 8.609 162.104 8.801C161.846 9.113 161.513 9.35 161.105 9.512C160.703 9.68 160.238 9.764 159.71 9.764C159.332 9.764 159.029 9.728 158.801 9.656C158.573 9.59 158.408 9.497 158.306 9.377C158.21 9.263 158.162 9.134 158.162 8.99C158.162 8.84 158.204 8.714 158.288 8.612C158.372 8.516 158.498 8.468 158.666 8.468C158.816 8.468 158.99 8.492 159.188 8.54C159.392 8.588 159.632 8.612 159.908 8.612C160.49 8.612 160.901 8.474 161.141 8.198C161.387 7.928 161.51 7.538 161.51 7.028C161.51 6.89 161.501 6.728 161.483 6.542L161.609 6.587C161.459 6.971 161.237 7.28 160.943 7.514C160.649 7.742 160.307 7.856 159.917 7.856ZM160.259 6.749C160.451 6.749 160.643 6.698 160.835 6.596C161.027 6.494 161.186 6.326 161.312 6.092C161.438 5.858 161.501 5.543 161.501 5.147C161.501 4.673 161.39 4.286 161.168 3.986C160.946 3.686 160.634 3.536 160.232 3.536C159.884 3.536 159.629 3.668 159.467 3.932C159.305 4.196 159.224 4.595 159.224 5.129C159.224 5.639 159.305 6.038 159.467 6.326C159.629 6.608 159.893 6.749 160.259 6.749ZM167.9 7.946C167.738 7.946 167.612 7.892 167.522 7.784C167.438 7.67 167.381 7.526 167.351 7.352C167.321 7.172 167.306 6.983 167.306 6.785L167.351 6.749C167.291 7.007 167.174 7.229 167 7.415C166.826 7.601 166.625 7.745 166.397 7.847C166.169 7.943 165.941 7.991 165.713 7.991C165.407 7.991 165.128 7.919 164.876 7.775C164.624 7.631 164.429 7.409 164.291 7.109C164.153 6.791 164.045 6.392 163.967 5.912C163.889 5.426 163.85 4.928 163.85 4.418C163.85 4.142 163.862 3.887 163.886 3.653C163.91 3.419 163.949 3.227 164.003 3.077C164.051 2.921 164.123 2.807 164.219 2.735C164.315 2.657 164.438 2.618 164.588 2.618C164.762 2.618 164.897 2.687 164.993 2.825C165.095 2.957 165.158 3.143 165.182 3.383C165.206 3.581 165.221 3.827 165.227 4.121C165.239 4.409 165.248 4.7 165.254 4.994C165.266 5.282 165.281 5.525 165.299 5.723C165.335 6.083 165.428 6.35 165.578 6.524C165.728 6.692 165.911 6.776 166.127 6.776C166.445 6.776 166.688 6.656 166.856 6.416C167.024 6.176 167.108 5.84 167.108 5.408C167.108 5.192 167.096 4.949 167.072 4.679C167.048 4.403 167.021 4.136 166.991 3.878C166.967 3.62 166.955 3.407 166.955 3.239C166.955 2.957 167.003 2.756 167.099 2.636C167.195 2.51 167.327 2.447 167.495 2.447C167.639 2.447 167.759 2.486 167.855 2.564C167.957 2.642 168.038 2.75 168.098 2.888C168.182 3.068 168.254 3.314 168.314 3.626C168.374 3.938 168.422 4.292 168.458 4.688C168.494 5.084 168.512 5.501 168.512 5.939C168.512 6.611 168.467 7.115 168.377 7.451C168.287 7.781 168.128 7.946 167.9 7.946ZM170.525 2.402C170.717 2.402 170.846 2.48 170.912 2.636C170.984 2.792 171.02 3.023 171.02 3.329C171.02 3.401 171.014 3.479 171.002 3.563C170.996 3.641 170.984 3.713 170.966 3.779L170.948 3.599C171.092 3.209 171.314 2.906 171.614 2.69C171.914 2.468 172.232 2.357 172.568 2.357C172.94 2.357 173.249 2.462 173.495 2.672C173.747 2.882 173.933 3.176 174.053 3.554C174.179 3.932 174.242 4.379 174.242 4.895C174.242 5.213 174.227 5.528 174.197 5.84C174.173 6.146 174.137 6.428 174.089 6.686C174.047 6.938 173.999 7.145 173.945 7.307C173.873 7.511 173.78 7.664 173.666 7.766C173.552 7.862 173.417 7.91 173.261 7.91C173.105 7.91 172.985 7.853 172.901 7.739C172.817 7.625 172.775 7.472 172.775 7.28C172.775 7.076 172.79 6.83 172.82 6.542C172.85 6.248 172.877 5.951 172.901 5.651C172.931 5.345 172.946 5.069 172.946 4.823C172.946 3.983 172.67 3.563 172.118 3.563C171.824 3.563 171.578 3.695 171.38 3.959C171.182 4.217 171.05 4.586 170.984 5.066C170.966 5.228 170.957 5.429 170.957 5.669C170.957 5.909 170.957 6.149 170.957 6.389C170.963 6.623 170.957 6.821 170.939 6.983C170.915 7.343 170.846 7.601 170.732 7.757C170.624 7.913 170.474 7.991 170.282 7.991C170.06 7.991 169.892 7.889 169.778 7.685C169.664 7.475 169.607 7.124 169.607 6.632C169.607 6.38 169.613 6.098 169.625 5.786C169.637 5.474 169.652 5.162 169.67 4.85C169.694 4.532 169.721 4.244 169.751 3.986C169.811 3.5 169.898 3.116 170.012 2.834C170.126 2.546 170.297 2.402 170.525 2.402ZM178.822 8.126C178.234 8.126 177.775 7.907 177.445 7.469C177.115 7.025 176.95 6.35 176.95 5.444C176.95 4.544 177.112 3.887 177.436 3.473C177.766 3.053 178.237 2.843 178.849 2.843C179.197 2.843 179.5 2.915 179.758 3.059C180.022 3.203 180.256 3.407 180.46 3.671L180.388 3.707C180.334 3.461 180.28 3.2 180.226 2.924C180.172 2.648 180.127 2.387 180.091 2.141C180.061 1.889 180.046 1.691 180.046 1.547C180.046 1.343 180.079 1.187 180.145 1.079C180.211 0.965 180.316 0.908 180.46 0.908C180.664 0.908 180.829 0.995 180.955 1.169C181.081 1.337 181.186 1.598 181.27 1.952C181.348 2.27 181.417 2.648 181.477 3.086C181.537 3.518 181.585 3.971 181.621 4.445C181.663 4.913 181.684 5.363 181.684 5.795C181.684 6.395 181.651 6.863 181.585 7.199C181.525 7.529 181.438 7.76 181.324 7.892C181.216 8.024 181.087 8.09 180.937 8.09C180.751 8.09 180.625 7.997 180.559 7.811C180.493 7.625 180.466 7.322 180.478 6.902H180.613C180.451 7.274 180.214 7.571 179.902 7.793C179.596 8.015 179.236 8.126 178.822 8.126ZM179.299 7.01C179.515 7.01 179.713 6.956 179.893 6.848C180.079 6.734 180.226 6.56 180.334 6.326C180.448 6.092 180.505 5.795 180.505 5.435C180.505 4.973 180.4 4.598 180.19 4.31C179.98 4.016 179.677 3.869 179.281 3.869C178.969 3.869 178.714 3.998 178.516 4.256C178.324 4.514 178.228 4.904 178.228 5.426C178.228 5.888 178.324 6.269 178.516 6.569C178.714 6.863 178.975 7.01 179.299 7.01ZM186.714 8.09C186.51 8.09 186.369 8.012 186.291 7.856C186.219 7.694 186.177 7.439 186.165 7.091L186.255 7.136C185.919 7.79 185.283 8.117 184.347 8.117C183.921 8.117 183.567 8.042 183.285 7.892C183.003 7.736 182.793 7.532 182.655 7.28C182.523 7.022 182.457 6.743 182.457 6.443C182.457 5.927 182.637 5.519 182.997 5.219C183.357 4.913 183.834 4.76 184.428 4.76C184.818 4.76 185.157 4.817 185.445 4.931C185.733 5.045 185.979 5.204 186.183 5.408L186.03 5.39C185.988 4.784 185.856 4.352 185.634 4.094C185.418 3.83 185.109 3.698 184.707 3.698C184.473 3.698 184.257 3.734 184.059 3.806C183.861 3.878 183.678 3.953 183.51 4.031C183.348 4.103 183.195 4.139 183.051 4.139C182.907 4.139 182.793 4.091 182.709 3.995C182.631 3.899 182.592 3.776 182.592 3.626C182.592 3.41 182.694 3.206 182.898 3.014C183.108 2.822 183.384 2.666 183.726 2.546C184.068 2.426 184.44 2.366 184.842 2.366C185.328 2.366 185.745 2.483 186.093 2.717C186.441 2.951 186.705 3.293 186.885 3.743C187.041 4.127 187.152 4.556 187.218 5.03C187.284 5.504 187.317 6.011 187.317 6.551C187.317 6.959 187.296 7.274 187.254 7.496C187.212 7.718 187.146 7.874 187.056 7.964C186.972 8.048 186.858 8.09 186.714 8.09ZM184.725 7.082C184.923 7.082 185.124 7.055 185.328 7.001C185.532 6.941 185.703 6.854 185.841 6.74C185.979 6.626 186.048 6.485 186.048 6.317C186.048 6.173 185.988 6.056 185.868 5.966C185.754 5.87 185.601 5.798 185.409 5.75C185.223 5.702 185.022 5.678 184.806 5.678C184.44 5.678 184.161 5.741 183.969 5.867C183.783 5.993 183.69 6.161 183.69 6.371C183.69 6.599 183.777 6.776 183.951 6.902C184.131 7.022 184.389 7.082 184.725 7.082ZM189.664 2.582H189.484C189.466 2.318 189.472 2.069 189.502 1.835C189.532 1.595 189.595 1.403 189.691 1.259C189.793 1.109 189.937 1.034 190.123 1.034C190.291 1.034 190.414 1.088 190.492 1.196C190.57 1.304 190.609 1.454 190.609 1.646C190.609 2.024 190.537 2.348 190.393 2.618L190.231 2.6C190.555 2.486 190.921 2.429 191.329 2.429C191.587 2.429 191.791 2.48 191.941 2.582C192.097 2.678 192.175 2.843 192.175 3.077C192.175 3.299 192.085 3.467 191.905 3.581C191.725 3.695 191.5 3.752 191.23 3.752C191.068 3.752 190.894 3.746 190.708 3.734C190.528 3.716 190.351 3.689 190.177 3.653L190.33 3.464C190.384 3.692 190.435 3.953 190.483 4.247C190.537 4.535 190.585 4.835 190.627 5.147C190.669 5.459 190.702 5.762 190.726 6.056C190.75 6.35 190.762 6.614 190.762 6.848C190.762 7.232 190.702 7.535 190.582 7.757C190.462 7.979 190.285 8.09 190.051 8.09C189.865 8.09 189.718 8.033 189.61 7.919C189.508 7.805 189.433 7.661 189.385 7.487C189.343 7.307 189.316 7.121 189.304 6.929C189.298 6.737 189.295 6.563 189.295 6.407C189.295 6.143 189.307 5.846 189.331 5.516C189.355 5.18 189.388 4.835 189.43 4.481C189.478 4.127 189.532 3.785 189.592 3.455L189.772 3.608C189.466 3.764 189.088 3.842 188.638 3.842C188.362 3.842 188.149 3.791 187.999 3.689C187.849 3.587 187.774 3.428 187.774 3.212C187.774 2.978 187.858 2.798 188.026 2.672C188.194 2.54 188.419 2.474 188.701 2.474C188.887 2.474 189.061 2.486 189.223 2.51C189.391 2.528 189.538 2.552 189.664 2.582ZM196.839 8.09C196.635 8.09 196.494 8.012 196.416 7.856C196.344 7.694 196.302 7.439 196.29 7.091L196.38 7.136C196.044 7.79 195.408 8.117 194.472 8.117C194.046 8.117 193.692 8.042 193.41 7.892C193.128 7.736 192.918 7.532 192.78 7.28C192.648 7.022 192.582 6.743 192.582 6.443C192.582 5.927 192.762 5.519 193.122 5.219C193.482 4.913 193.959 4.76 194.553 4.76C194.943 4.76 195.282 4.817 195.57 4.931C195.858 5.045 196.104 5.204 196.308 5.408L196.155 5.39C196.113 4.784 195.981 4.352 195.759 4.094C195.543 3.83 195.234 3.698 194.832 3.698C194.598 3.698 194.382 3.734 194.184 3.806C193.986 3.878 193.803 3.953 193.635 4.031C193.473 4.103 193.32 4.139 193.176 4.139C193.032 4.139 192.918 4.091 192.834 3.995C192.756 3.899 192.717 3.776 192.717 3.626C192.717 3.41 192.819 3.206 193.023 3.014C193.233 2.822 193.509 2.666 193.851 2.546C194.193 2.426 194.565 2.366 194.967 2.366C195.453 2.366 195.87 2.483 196.218 2.717C196.566 2.951 196.83 3.293 197.01 3.743C197.166 4.127 197.277 4.556 197.343 5.03C197.409 5.504 197.442 6.011 197.442 6.551C197.442 6.959 197.421 7.274 197.379 7.496C197.337 7.718 197.271 7.874 197.181 7.964C197.097 8.048 196.983 8.09 196.839 8.09ZM194.85 7.082C195.048 7.082 195.249 7.055 195.453 7.001C195.657 6.941 195.828 6.854 195.966 6.74C196.104 6.626 196.173 6.485 196.173 6.317C196.173 6.173 196.113 6.056 195.993 5.966C195.879 5.87 195.726 5.798 195.534 5.75C195.348 5.702 195.147 5.678 194.931 5.678C194.565 5.678 194.286 5.741 194.094 5.867C193.908 5.993 193.815 6.161 193.815 6.371C193.815 6.599 193.902 6.776 194.076 6.902C194.256 7.022 194.514 7.082 194.85 7.082ZM198.54 3.941C198.54 3.365 198.594 2.951 198.702 2.699C198.81 2.441 198.963 2.312 199.161 2.312C199.317 2.312 199.44 2.378 199.53 2.51C199.62 2.636 199.686 2.795 199.728 2.987C199.77 3.173 199.791 3.362 199.791 3.554L199.746 3.536C199.848 3.212 200.004 2.933 200.214 2.699C200.43 2.465 200.688 2.348 200.988 2.348C201.342 2.348 201.603 2.495 201.771 2.789C201.939 3.077 202.023 3.437 202.023 3.869C202.023 4.445 201.957 4.847 201.825 5.075C201.693 5.303 201.516 5.417 201.294 5.417C201.132 5.417 201.012 5.351 200.934 5.219C200.862 5.087 200.838 4.853 200.862 4.517C200.886 4.163 200.865 3.917 200.799 3.779C200.733 3.641 200.628 3.572 200.484 3.572C200.31 3.572 200.166 3.683 200.052 3.905C199.944 4.121 199.89 4.388 199.89 4.706C199.89 4.832 199.905 4.991 199.935 5.183C199.965 5.375 199.998 5.585 200.034 5.813C200.07 6.035 200.103 6.257 200.133 6.479C200.163 6.701 200.178 6.905 200.178 7.091C200.178 7.421 200.127 7.658 200.025 7.802C199.923 7.946 199.779 8.018 199.593 8.018C199.383 8.018 199.221 7.952 199.107 7.82C198.993 7.682 198.906 7.46 198.846 7.154C198.798 6.878 198.75 6.551 198.702 6.173C198.654 5.795 198.615 5.408 198.585 5.012C198.555 4.616 198.54 4.259 198.54 3.941ZM207.945 2.582H207.765C207.747 2.318 207.753 2.069 207.783 1.835C207.813 1.595 207.876 1.403 207.972 1.259C208.074 1.109 208.218 1.034 208.404 1.034C208.572 1.034 208.695 1.088 208.773 1.196C208.851 1.304 208.89 1.454 208.89 1.646C208.89 2.024 208.818 2.348 208.674 2.618L208.512 2.6C208.836 2.486 209.202 2.429 209.61 2.429C209.868 2.429 210.072 2.48 210.222 2.582C210.378 2.678 210.456 2.843 210.456 3.077C210.456 3.299 210.366 3.467 210.186 3.581C210.006 3.695 209.781 3.752 209.511 3.752C209.349 3.752 209.175 3.746 208.989 3.734C208.809 3.716 208.632 3.689 208.458 3.653L208.611 3.464C208.665 3.692 208.716 3.953 208.764 4.247C208.818 4.535 208.866 4.835 208.908 5.147C208.95 5.459 208.983 5.762 209.007 6.056C209.031 6.35 209.043 6.614 209.043 6.848C209.043 7.232 208.983 7.535 208.863 7.757C208.743 7.979 208.566 8.09 208.332 8.09C208.146 8.09 207.999 8.033 207.891 7.919C207.789 7.805 207.714 7.661 207.666 7.487C207.624 7.307 207.597 7.121 207.585 6.929C207.579 6.737 207.576 6.563 207.576 6.407C207.576 6.143 207.588 5.846 207.612 5.516C207.636 5.18 207.669 4.835 207.711 4.481C207.759 4.127 207.813 3.785 207.873 3.455L208.053 3.608C207.747 3.764 207.369 3.842 206.919 3.842C206.643 3.842 206.43 3.791 206.28 3.689C206.13 3.587 206.055 3.428 206.055 3.212C206.055 2.978 206.139 2.798 206.307 2.672C206.475 2.54 206.7 2.474 206.982 2.474C207.168 2.474 207.342 2.486 207.504 2.51C207.672 2.528 207.819 2.552 207.945 2.582ZM211.188 3.941C211.188 3.365 211.242 2.951 211.35 2.699C211.458 2.441 211.611 2.312 211.809 2.312C211.965 2.312 212.088 2.378 212.178 2.51C212.268 2.636 212.334 2.795 212.376 2.987C212.418 3.173 212.439 3.362 212.439 3.554L212.394 3.536C212.496 3.212 212.652 2.933 212.862 2.699C213.078 2.465 213.336 2.348 213.636 2.348C213.99 2.348 214.251 2.495 214.419 2.789C214.587 3.077 214.671 3.437 214.671 3.869C214.671 4.445 214.605 4.847 214.473 5.075C214.341 5.303 214.164 5.417 213.942 5.417C213.78 5.417 213.66 5.351 213.582 5.219C213.51 5.087 213.486 4.853 213.51 4.517C213.534 4.163 213.513 3.917 213.447 3.779C213.381 3.641 213.276 3.572 213.132 3.572C212.958 3.572 212.814 3.683 212.7 3.905C212.592 4.121 212.538 4.388 212.538 4.706C212.538 4.832 212.553 4.991 212.583 5.183C212.613 5.375 212.646 5.585 212.682 5.813C212.718 6.035 212.751 6.257 212.781 6.479C212.811 6.701 212.826 6.905 212.826 7.091C212.826 7.421 212.775 7.658 212.673 7.802C212.571 7.946 212.427 8.018 212.241 8.018C212.031 8.018 211.869 7.952 211.755 7.82C211.641 7.682 211.554 7.46 211.494 7.154C211.446 6.878 211.398 6.551 211.35 6.173C211.302 5.795 211.263 5.408 211.233 5.012C211.203 4.616 211.188 4.259 211.188 3.941ZM219.401 8.09C219.197 8.09 219.056 8.012 218.978 7.856C218.906 7.694 218.864 7.439 218.852 7.091L218.942 7.136C218.606 7.79 217.97 8.117 217.034 8.117C216.608 8.117 216.254 8.042 215.972 7.892C215.69 7.736 215.48 7.532 215.342 7.28C215.21 7.022 215.144 6.743 215.144 6.443C215.144 5.927 215.324 5.519 215.684 5.219C216.044 4.913 216.521 4.76 217.115 4.76C217.505 4.76 217.844 4.817 218.132 4.931C218.42 5.045 218.666 5.204 218.87 5.408L218.717 5.39C218.675 4.784 218.543 4.352 218.321 4.094C218.105 3.83 217.796 3.698 217.394 3.698C217.16 3.698 216.944 3.734 216.746 3.806C216.548 3.878 216.365 3.953 216.197 4.031C216.035 4.103 215.882 4.139 215.738 4.139C215.594 4.139 215.48 4.091 215.396 3.995C215.318 3.899 215.279 3.776 215.279 3.626C215.279 3.41 215.381 3.206 215.585 3.014C215.795 2.822 216.071 2.666 216.413 2.546C216.755 2.426 217.127 2.366 217.529 2.366C218.015 2.366 218.432 2.483 218.78 2.717C219.128 2.951 219.392 3.293 219.572 3.743C219.728 4.127 219.839 4.556 219.905 5.03C219.971 5.504 220.004 6.011 220.004 6.551C220.004 6.959 219.983 7.274 219.941 7.496C219.899 7.718 219.833 7.874 219.743 7.964C219.659 8.048 219.545 8.09 219.401 8.09ZM217.412 7.082C217.61 7.082 217.811 7.055 218.015 7.001C218.219 6.941 218.39 6.854 218.528 6.74C218.666 6.626 218.735 6.485 218.735 6.317C218.735 6.173 218.675 6.056 218.555 5.966C218.441 5.87 218.288 5.798 218.096 5.75C217.91 5.702 217.709 5.678 217.493 5.678C217.127 5.678 216.848 5.741 216.656 5.867C216.47 5.993 216.377 6.161 216.377 6.371C216.377 6.599 216.464 6.776 216.638 6.902C216.818 7.022 217.076 7.082 217.412 7.082ZM221.714 2.42C221.876 2.42 222.011 2.516 222.119 2.708C222.227 2.894 222.302 3.191 222.344 3.599L222.155 3.77C222.263 3.35 222.464 3.029 222.758 2.807C223.052 2.585 223.4 2.474 223.802 2.474C224.174 2.474 224.504 2.57 224.792 2.762C225.08 2.954 225.305 3.245 225.467 3.635C225.635 4.019 225.719 4.502 225.719 5.084C225.719 6.026 225.548 6.722 225.206 7.172C224.87 7.616 224.411 7.838 223.829 7.838C223.409 7.838 223.079 7.748 222.839 7.568C222.599 7.388 222.431 7.169 222.335 6.911L222.443 6.857C222.491 7.217 222.53 7.574 222.56 7.928C222.596 8.276 222.614 8.582 222.614 8.846C222.614 9.116 222.566 9.344 222.47 9.53C222.374 9.716 222.221 9.809 222.011 9.809C221.807 9.809 221.654 9.731 221.552 9.575C221.45 9.419 221.375 9.212 221.327 8.954C221.291 8.69 221.255 8.351 221.219 7.937C221.183 7.523 221.153 7.076 221.129 6.596C221.111 6.116 221.102 5.648 221.102 5.192C221.102 4.724 221.117 4.286 221.147 3.878C221.183 3.464 221.225 3.128 221.273 2.87C221.315 2.72 221.369 2.609 221.435 2.537C221.507 2.459 221.6 2.42 221.714 2.42ZM223.433 3.509C223.109 3.509 222.848 3.671 222.65 3.995C222.458 4.313 222.362 4.721 222.362 5.219C222.362 5.729 222.458 6.11 222.65 6.362C222.848 6.614 223.103 6.74 223.415 6.74C223.775 6.74 224.033 6.599 224.189 6.317C224.351 6.029 224.432 5.657 224.432 5.201C224.432 4.619 224.333 4.193 224.135 3.923C223.937 3.647 223.703 3.509 223.433 3.509ZM229.15 8.072C228.484 8.072 227.953 7.973 227.557 7.775C227.161 7.577 226.876 7.292 226.702 6.92C226.528 6.548 226.441 6.104 226.441 5.588C226.441 4.934 226.561 4.379 226.801 3.923C227.047 3.461 227.383 3.107 227.809 2.861C228.241 2.615 228.73 2.492 229.276 2.492C229.918 2.492 230.389 2.642 230.689 2.942C230.989 3.236 231.139 3.623 231.139 4.103C231.139 4.487 231.037 4.82 230.833 5.102C230.635 5.378 230.359 5.591 230.005 5.741C229.651 5.891 229.243 5.966 228.781 5.966C228.523 5.966 228.274 5.933 228.034 5.867C227.794 5.801 227.578 5.711 227.386 5.597L227.602 5.201C227.584 5.345 227.575 5.489 227.575 5.633C227.575 6.053 227.707 6.356 227.971 6.542C228.235 6.722 228.61 6.812 229.096 6.812C229.474 6.812 229.777 6.779 230.005 6.713C230.233 6.647 230.425 6.584 230.581 6.524C230.737 6.458 230.89 6.425 231.04 6.425C231.124 6.425 231.199 6.449 231.265 6.497C231.337 6.539 231.394 6.602 231.436 6.686C231.484 6.77 231.508 6.872 231.508 6.992C231.508 7.172 231.418 7.346 231.238 7.514C231.058 7.676 230.791 7.811 230.437 7.919C230.089 8.021 229.66 8.072 229.15 8.072ZM228.628 5.129C229.054 5.129 229.396 5.039 229.654 4.859C229.912 4.679 230.041 4.457 230.041 4.193C230.041 3.983 229.969 3.812 229.825 3.68C229.687 3.542 229.468 3.473 229.168 3.473C228.886 3.473 228.631 3.527 228.403 3.635C228.181 3.737 228.007 3.872 227.881 4.04C227.755 4.208 227.692 4.391 227.692 4.589C227.692 4.763 227.773 4.898 227.935 4.994C228.103 5.084 228.334 5.129 228.628 5.129ZM234.576 2.366C235.11 2.366 235.494 2.444 235.728 2.6C235.962 2.756 236.079 2.957 236.079 3.203C236.079 3.347 236.028 3.467 235.926 3.563C235.83 3.653 235.692 3.698 235.512 3.698C235.326 3.698 235.131 3.671 234.927 3.617C234.729 3.563 234.498 3.536 234.234 3.536C233.928 3.536 233.7 3.596 233.55 3.716C233.4 3.836 233.325 3.989 233.325 4.175C233.325 4.349 233.391 4.487 233.523 4.589C233.661 4.685 233.922 4.757 234.306 4.805C234.732 4.853 235.083 4.931 235.359 5.039C235.641 5.141 235.851 5.297 235.989 5.507C236.127 5.711 236.196 5.993 236.196 6.353C236.196 6.923 235.995 7.346 235.593 7.622C235.191 7.898 234.636 8.036 233.928 8.036C233.478 8.036 233.121 8 232.857 7.928C232.593 7.856 232.401 7.754 232.281 7.622C232.167 7.49 232.11 7.334 232.11 7.154C232.11 6.998 232.161 6.878 232.263 6.794C232.371 6.704 232.497 6.659 232.641 6.659C232.779 6.659 232.926 6.677 233.082 6.713C233.238 6.743 233.403 6.776 233.577 6.812C233.751 6.848 233.931 6.866 234.117 6.866C234.717 6.866 235.017 6.68 235.017 6.308C235.017 6.182 234.987 6.08 234.927 6.002C234.867 5.924 234.759 5.861 234.603 5.813C234.447 5.759 234.219 5.717 233.919 5.687C233.559 5.651 233.247 5.591 232.983 5.507C232.719 5.417 232.515 5.273 232.371 5.075C232.227 4.871 232.155 4.592 232.155 4.238C232.155 3.68 232.365 3.23 232.785 2.888C233.205 2.54 233.802 2.366 234.576 2.366ZM237.899 1.097C238.139 1.097 238.31 1.163 238.412 1.295C238.52 1.427 238.574 1.58 238.574 1.754C238.574 1.97 238.508 2.138 238.376 2.258C238.25 2.372 238.07 2.429 237.836 2.429C237.608 2.429 237.437 2.366 237.323 2.24C237.209 2.108 237.152 1.955 237.152 1.781C237.152 1.553 237.221 1.382 237.359 1.268C237.497 1.154 237.677 1.097 237.899 1.097ZM237.953 3.104C238.145 3.104 238.295 3.284 238.403 3.644C238.517 4.004 238.574 4.577 238.574 5.363C238.574 6.329 238.505 7.025 238.367 7.451C238.229 7.877 238.019 8.09 237.737 8.09C237.521 8.09 237.362 7.934 237.26 7.622C237.158 7.304 237.107 6.752 237.107 5.966C237.107 5 237.185 4.283 237.341 3.815C237.503 3.341 237.707 3.104 237.953 3.104ZM243.723 7.946C243.561 7.946 243.435 7.892 243.345 7.784C243.261 7.67 243.204 7.526 243.174 7.352C243.144 7.172 243.129 6.983 243.129 6.785L243.174 6.749C243.114 7.007 242.997 7.229 242.823 7.415C242.649 7.601 242.448 7.745 242.22 7.847C241.992 7.943 241.764 7.991 241.536 7.991C241.23 7.991 240.951 7.919 240.699 7.775C240.447 7.631 240.252 7.409 240.114 7.109C239.976 6.791 239.868 6.392 239.79 5.912C239.712 5.426 239.673 4.928 239.673 4.418C239.673 4.142 239.685 3.887 239.709 3.653C239.733 3.419 239.772 3.227 239.826 3.077C239.874 2.921 239.946 2.807 240.042 2.735C240.138 2.657 240.261 2.618 240.411 2.618C240.585 2.618 240.72 2.687 240.816 2.825C240.918 2.957 240.981 3.143 241.005 3.383C241.029 3.581 241.044 3.827 241.05 4.121C241.062 4.409 241.071 4.7 241.077 4.994C241.089 5.282 241.104 5.525 241.122 5.723C241.158 6.083 241.251 6.35 241.401 6.524C241.551 6.692 241.734 6.776 241.95 6.776C242.268 6.776 242.511 6.656 242.679 6.416C242.847 6.176 242.931 5.84 242.931 5.408C242.931 5.192 242.919 4.949 242.895 4.679C242.871 4.403 242.844 4.136 242.814 3.878C242.79 3.62 242.778 3.407 242.778 3.239C242.778 2.957 242.826 2.756 242.922 2.636C243.018 2.51 243.15 2.447 243.318 2.447C243.462 2.447 243.582 2.486 243.678 2.564C243.78 2.642 243.861 2.75 243.921 2.888C244.005 3.068 244.077 3.314 244.137 3.626C244.197 3.938 244.245 4.292 244.281 4.688C244.317 5.084 244.335 5.501 244.335 5.939C244.335 6.611 244.29 7.115 244.2 7.451C244.11 7.781 243.951 7.946 243.723 7.946ZM249.309 3.878C249.369 3.632 249.474 3.41 249.624 3.212C249.78 3.014 249.966 2.858 250.182 2.744C250.404 2.624 250.647 2.564 250.911 2.564C251.223 2.564 251.499 2.639 251.739 2.789C251.979 2.939 252.168 3.185 252.306 3.527C252.45 3.869 252.522 4.325 252.522 4.895C252.522 5.189 252.51 5.486 252.486 5.786C252.462 6.086 252.432 6.365 252.396 6.623C252.36 6.881 252.321 7.097 252.279 7.271C252.219 7.511 252.126 7.694 252 7.82C251.88 7.946 251.727 8.009 251.541 8.009C251.385 8.009 251.262 7.94 251.172 7.802C251.082 7.664 251.037 7.466 251.037 7.208C251.037 7.088 251.052 6.935 251.082 6.749C251.112 6.557 251.145 6.35 251.181 6.128C251.217 5.9 251.25 5.669 251.28 5.435C251.31 5.201 251.325 4.979 251.325 4.769C251.325 4.457 251.262 4.217 251.136 4.049C251.01 3.875 250.833 3.788 250.605 3.788C250.353 3.788 250.143 3.92 249.975 4.184C249.813 4.442 249.717 4.82 249.687 5.318C249.663 5.762 249.642 6.158 249.624 6.506C249.606 6.848 249.561 7.13 249.489 7.352C249.441 7.508 249.372 7.625 249.282 7.703C249.198 7.781 249.084 7.82 248.94 7.82C248.778 7.82 248.649 7.76 248.553 7.64C248.463 7.52 248.412 7.331 248.4 7.073C248.388 6.857 248.385 6.602 248.391 6.308C248.397 6.014 248.4 5.723 248.4 5.435C248.406 5.141 248.403 4.898 248.391 4.706C248.367 4.322 248.298 4.04 248.184 3.86C248.076 3.68 247.911 3.59 247.689 3.59C247.431 3.59 247.224 3.71 247.068 3.95C246.918 4.19 246.825 4.523 246.789 4.949C246.777 5.123 246.771 5.339 246.771 5.597C246.777 5.849 246.783 6.101 246.789 6.353C246.795 6.605 246.792 6.815 246.78 6.983C246.774 7.343 246.717 7.601 246.609 7.757C246.507 7.913 246.363 7.991 246.177 7.991C245.955 7.991 245.793 7.919 245.691 7.775C245.595 7.631 245.532 7.4 245.502 7.082C245.478 6.8 245.46 6.521 245.448 6.245C245.436 5.963 245.43 5.684 245.43 5.408C245.43 5.126 245.436 4.82 245.448 4.49C245.466 4.16 245.49 3.848 245.52 3.554C245.556 3.254 245.619 3.002 245.709 2.798C245.799 2.594 245.949 2.492 246.159 2.492C246.333 2.492 246.456 2.579 246.528 2.753C246.6 2.921 246.636 3.182 246.636 3.536C246.636 3.656 246.627 3.767 246.609 3.869L246.582 3.689C246.702 3.299 246.894 2.996 247.158 2.78C247.422 2.558 247.716 2.447 248.04 2.447C248.466 2.447 248.799 2.585 249.039 2.861C249.279 3.131 249.411 3.506 249.435 3.986L249.309 3.878Z" fill="black"/>
</svg>
