<svg version="1.1" xmlns="http://www.w3.org/2000/svg" xmlns:xlink="http://www.w3.org/1999/xlink" width="102.61858" height="14.57343" viewBox="0,0,102.61858,14.57343"><g transform="translate(-188.69071,-172.71328)"><g data-paper-data="{&quot;isPaintingLayer&quot;:true}" fill="#000000" fill-rule="nonzero" stroke="none" stroke-width="1" stroke-linecap="butt" stroke-linejoin="miter" stroke-miterlimit="10" stroke-dasharray="" stroke-dashoffset="0" style="mix-blend-mode: normal"><path d="M191.5453,184.4171c-0.621,0 -1.13682,-0.11515 -1.54748,-0.34556c-0.40064,-0.24039 -0.70113,-0.60601 -0.90145,-1.09676c-0.14023,-0.34054 -0.24539,-0.7512 -0.31551,-1.23198c-0.0601,-0.49079 -0.09015,-1.05169 -0.09015,-1.6827c0,-1.08174 0.03506,-1.97318 0.10517,-2.6743c0.07011,-0.71115 0.17027,-1.28206 0.30049,-1.71275c0.14023,-0.44071 0.29547,-0.79628 0.46575,-1.06672c0.27044,-0.41066 0.70113,-0.7412 1.29208,-0.99159c0.59095,-0.2504 1.4273,-0.37561 2.50903,-0.37561c0.72116,0 1.29709,0.11018 1.72777,0.33053c0.44071,0.21034 0.75622,0.49079 0.94652,0.84135c0.20032,0.35056 0.30049,0.7412 0.30049,1.17189c0,0.6811 -0.20032,1.24199 -0.60096,1.6827c-0.40064,0.44071 -0.92648,0.79127 -1.57753,1.05169v0.0601c0.71115,0.08014 1.26203,0.31049 1.65265,0.69111c0.40064,0.37059 0.60096,0.90145 0.60096,1.59256c0,0.55088 -0.14023,1.05671 -0.42068,1.51744c-0.27044,0.45073 -0.64103,0.84637 -1.11179,1.18691c-0.46074,0.33053 -0.98158,0.59099 -1.56251,0.78125c-0.58093,0.18029 -1.17189,0.27044 -1.77285,0.27044zM192.01106,182.61421c0.48077,0 0.90646,-0.08014 1.27706,-0.24039c0.38061,-0.16025 0.67608,-0.37561 0.88642,-0.64603c0.22035,-0.28045 0.33053,-0.59596 0.33053,-0.94652c0,-0.38061 -0.1853,-0.69612 -0.55589,-0.94652c-0.36058,-0.26042 -0.92648,-0.39063 -1.69773,-0.39063c-0.52083,0 -0.93651,0.1252 -1.24701,0.37561c-0.30049,0.24039 -0.45073,0.65605 -0.45073,1.24701c0,0.5609 0.12019,0.96155 0.36058,1.20193c0.24039,0.23037 0.60598,0.34556 1.09676,0.34556zM192.07115,177.85156c0.6811,0 1.24701,-0.15024 1.69773,-0.45073c0.46074,-0.31049 0.69111,-0.71115 0.69111,-1.20193c0,-0.36058 -0.14523,-0.65105 -0.4357,-0.8714c-0.29047,-0.22035 -0.71615,-0.33053 -1.27706,-0.33053c-0.61098,0 -1.11179,0.12019 -1.50241,0.36058c-0.39063,0.24039 -0.58594,0.65105 -0.58594,1.23198c0,0.47076 0.1252,0.80129 0.37561,0.99159c0.26042,0.18029 0.60598,0.27044 1.03667,0.27044zM204.64464,184.49223c-0.34062,0 -0.57597,-0.13018 -0.70613,-0.39063c-0.12019,-0.27044 -0.19038,-0.69615 -0.21034,-1.27706l0.15024,0.07512c-0.56094,1.09172 -1.6226,1.63763 -3.18512,1.63763c-0.71118,0 -1.30216,-0.12524 -1.77285,-0.37561c-0.4708,-0.26045 -0.82136,-0.60096 -1.05173,-1.02164c-0.22035,-0.43069 -0.33053,-0.89644 -0.33053,-1.39725c0,-0.86139 0.30049,-1.54248 0.90149,-2.04328c0.60096,-0.51082 1.39725,-0.76623 2.38884,-0.76623c0.65098,0 1.21696,0.09516 1.69773,0.28546c0.48077,0.1903 0.89136,0.45573 1.23198,0.79628l-0.25541,-0.03005c-0.07018,-1.01163 -0.2905,-1.73279 -0.66106,-2.16348c-0.36058,-0.44071 -0.87644,-0.66106 -1.54748,-0.66106c-0.39063,0 -0.7512,0.0601 -1.08174,0.18029c-0.33053,0.12019 -0.63606,0.24539 -0.91647,0.37561c-0.27044,0.12019 -0.52584,0.18029 -0.76623,0.18029c-0.24043,0 -0.43073,-0.08014 -0.57096,-0.24039c-0.1302,-0.16025 -0.19532,-0.36559 -0.19532,-0.61599c0,-0.36058 0.17027,-0.70113 0.51082,-1.02164c0.35054,-0.32052 0.81135,-0.58093 1.38226,-0.78125c0.57091,-0.20032 1.19184,-0.30049 1.86299,-0.30049c0.8113,0 1.50735,0.19532 2.08836,0.58594c0.5809,0.39063 1.02164,0.96155 1.32213,1.71275c0.26034,0.64103 0.44568,1.35718 0.55589,2.14845c0.1101,0.79127 0.16527,1.63763 0.16527,2.53908c0,0.6811 -0.03509,1.20694 -0.10517,1.57753c-0.07018,0.37056 -0.18029,0.63101 -0.33053,0.78125c-0.14026,0.14026 -0.33053,0.21034 -0.57091,0.21034zM201.32431,182.80952c0.33053,0 0.666,-0.04507 1.00662,-0.13522c0.34051,-0.10015 0.62597,-0.24539 0.85638,-0.4357c0.2303,-0.1903 0.34556,-0.42569 0.34556,-0.70613c0,-0.24039 -0.10023,-0.4357 -0.30049,-0.58594c-0.19038,-0.16025 -0.44579,-0.28045 -0.76623,-0.36058c-0.31057,-0.08014 -0.64603,-0.12019 -1.00662,-0.12019c-0.61106,0 -1.0768,0.10517 -1.39725,0.31551c-0.31057,0.21034 -0.46575,0.49079 -0.46575,0.84135c0,0.38061 0.1452,0.67608 0.4357,0.88642c0.30049,0.20032 0.73114,0.30049 1.29208,0.30049zM209.01625,174.99697c0.32055,0 0.53593,0.1302 0.64603,0.39063c0.12019,0.26042 0.18029,0.64603 0.18029,1.15686c0,0.12019 -0.00998,0.2504 -0.03005,0.39063c-0.00998,0.1302 -0.03005,0.2504 -0.0601,0.36058l-0.03005,-0.30049c0.24039,-0.65105 0.61106,-1.15686 1.11179,-1.51744c0.50084,-0.37059 1.03173,-0.55589 1.59256,-0.55589c0.62104,0 1.1369,0.17528 1.54748,0.52584c0.42068,0.35056 0.73125,0.84135 0.9315,1.47237c0.21034,0.63101 0.31551,1.37721 0.31551,2.2386c0,0.53086 -0.02501,1.05671 -0.07512,1.57753c-0.04003,0.51082 -0.10013,0.98158 -0.18029,1.41227c-0.07008,0.42068 -0.15024,0.76623 -0.24039,1.03667c-0.12019,0.34051 -0.27537,0.59592 -0.46575,0.76623c-0.19027,0.16023 -0.41563,0.24039 -0.67608,0.24039c-0.26034,0 -0.4607,-0.09519 -0.60096,-0.28546c-0.14015,-0.19027 -0.21034,-0.44568 -0.21034,-0.76623c0,-0.34054 0.02511,-0.7512 0.07512,-1.23198c0.05011,-0.49079 0.09519,-0.98658 0.13522,-1.48739c0.05011,-0.51082 0.07512,-0.97155 0.07512,-1.38223c0,-1.40226 -0.4607,-2.10338 -1.38223,-2.10338c-0.49075,0 -0.90145,0.22035 -1.23198,0.66106c-0.33053,0.43069 -0.55085,1.04668 -0.66106,1.84797c-0.03005,0.27044 -0.04507,0.60598 -0.04507,1.00662c0,0.40064 0,0.80129 0,1.20193c0.01008,0.39063 0,0.72116 -0.03005,0.99159c-0.04003,0.60096 -0.15517,1.03162 -0.34556,1.29208c-0.18029,0.26045 -0.43065,0.39063 -0.7512,0.39063c-0.37056,0 -0.65098,-0.17031 -0.84135,-0.51082c-0.19027,-0.3506 -0.28546,-0.93651 -0.28546,-1.75782c0,-0.42068 0.01008,-0.89144 0.03005,-1.41227c0.02007,-0.52083 0.04507,-1.04168 0.07512,-1.56251c0.04013,-0.53086 0.08521,-1.01163 0.13522,-1.44232c0.10023,-0.8113 0.24543,-1.45233 0.4357,-1.92309c0.19038,-0.48077 0.47584,-0.72116 0.85638,-0.72116zM219.91959,184.1016c-0.94148,0 -1.70771,-0.36058 -2.2987,-1.08174c-0.59099,-0.73118 -0.88642,-1.83796 -0.88642,-3.32034c0,-1.58255 0.28546,-2.73941 0.85638,-3.47058c0.57091,-0.73118 1.32213,-1.09676 2.25362,-1.09676c0.55085,0 1.03667,0.14023 1.45734,0.42068c0.42068,0.28045 0.78125,0.67608 1.08174,1.18691l-0.12019,0.21034c-0.03005,-0.14023 -0.05506,-0.29047 -0.07512,-0.45073c-0.02007,-0.16025 -0.03005,-0.28045 -0.03005,-0.36058c0,-0.41066 0.06514,-0.72617 0.19532,-0.94652c0.14026,-0.23037 0.35553,-0.34556 0.64603,-0.34556c0.32055,0 0.57091,0.1302 0.7512,0.39063c0.19027,0.26042 0.33558,0.63101 0.4357,1.11179c0.13018,0.49079 0.24039,1.1168 0.33053,1.87802c0.09015,0.7512 0.13522,1.51243 0.13522,2.28367c0,0.96155 -0.03509,1.76784 -0.10517,2.41889c-0.07008,0.65109 -0.18533,1.19195 -0.34556,1.6226c-0.16023,0.43065 -0.37056,0.80626 -0.63101,1.12681c-0.43065,0.5208 -0.98655,0.91647 -1.66768,1.18691c-0.67104,0.28042 -1.44736,0.42068 -2.32875,0.42068c-0.63101,0 -1.13679,-0.0601 -1.51744,-0.18029c-0.38065,-0.11021 -0.65602,-0.26539 -0.82633,-0.46575c-0.16023,-0.19027 -0.24039,-0.40566 -0.24039,-0.64603c0,-0.25037 0.07008,-0.4607 0.21034,-0.63101c0.14026,-0.16023 0.3506,-0.24039 0.63101,-0.24039c0.25037,0 0.54087,0.04003 0.8714,0.12019c0.34051,0.08016 0.74122,0.12019 1.20193,0.12019c0.97153,0 1.6577,-0.23041 2.05831,-0.69111c0.4107,-0.45073 0.61599,-1.10181 0.61599,-1.95314c0,-0.23037 -0.01502,-0.50081 -0.04507,-0.8113l0.21034,0.07512c-0.25037,0.64103 -0.62104,1.15686 -1.11179,1.54748c-0.49075,0.38065 -1.06167,0.57091 -1.71275,0.57091zM220.49051,182.25364c0.32055,0 0.64099,-0.08513 0.96155,-0.25541c0.32055,-0.17027 0.58594,-0.45073 0.79628,-0.84135c0.21034,-0.39063 0.31551,-0.91647 0.31551,-1.57753c0,-0.79127 -0.18533,-1.43731 -0.55589,-1.93811c-0.37056,-0.50081 -0.89147,-0.7512 -1.56251,-0.7512c-0.5809,0 -1.00662,0.22035 -1.27706,0.66106c-0.27044,0.44071 -0.40566,1.10677 -0.40566,1.99821c0,0.85137 0.13522,1.51744 0.40566,1.99821c0.27044,0.47076 0.71118,0.70613 1.32213,0.70613zM233.24494,184.25185c-0.27044,0 -0.48077,-0.09015 -0.63101,-0.27044c-0.14026,-0.19027 -0.23535,-0.43065 -0.28546,-0.72116c-0.05011,-0.30049 -0.07512,-0.61599 -0.07512,-0.94652l0.07512,-0.0601c-0.10013,0.43069 -0.29544,0.80129 -0.58594,1.11179c-0.2905,0.31046 -0.62597,0.55085 -1.00662,0.72116c-0.38065,0.16023 -0.76119,0.24039 -1.14184,0.24039c-0.51082,0 -0.97657,-0.12019 -1.39725,-0.36058c-0.42068,-0.24039 -0.74616,-0.61094 -0.97657,-1.11179c-0.23041,-0.53086 -0.4107,-1.19692 -0.54087,-1.99821c-0.13018,-0.8113 -0.19532,-1.64264 -0.19532,-2.49401c0,-0.46074 0.02007,-0.88642 0.0601,-1.27706c0.04003,-0.39063 0.10517,-0.71115 0.19532,-0.96155c0.08016,-0.26042 0.20036,-0.45073 0.36058,-0.57091c0.16023,-0.1302 0.36563,-0.19532 0.61599,-0.19532c0.2905,0 0.51587,0.11518 0.67608,0.34556c0.17031,0.22035 0.27548,0.53086 0.31551,0.9315c0.04003,0.33053 0.06514,0.7412 0.07512,1.23198c0.02007,0.48077 0.03509,0.96656 0.04507,1.45734c0.02007,0.48077 0.04507,0.88642 0.07512,1.21696c0.0601,0.60096 0.21538,1.04668 0.46575,1.33715c0.25037,0.28045 0.55589,0.42068 0.91647,0.42068c0.53089,0 0.93654,-0.20032 1.21696,-0.60096c0.28042,-0.40064 0.42068,-0.96155 0.42068,-1.6827c0,-0.36058 -0.02007,-0.76623 -0.0601,-1.21696c-0.04003,-0.46074 -0.0851,-0.90646 -0.13522,-1.33715c-0.04003,-0.43069 -0.0601,-0.78627 -0.0601,-1.06672c0,-0.47076 0.08016,-0.8063 0.24039,-1.00662c0.16023,-0.21034 0.38065,-0.31551 0.66106,-0.31551c0.24039,0 0.44075,0.06511 0.60096,0.19532c0.17031,0.1302 0.30553,0.31049 0.40566,0.54087c0.14026,0.30049 0.26045,0.71115 0.36058,1.23198c0.10013,0.52083 0.18029,1.11179 0.24039,1.77285c0.0601,0.66106 0.09015,1.35718 0.09015,2.08836c0,1.1218 -0.07512,1.96315 -0.22536,2.52405c-0.15024,0.55085 -0.41563,0.82633 -0.79628,0.82633zM237.62673,174.99697c0.32055,0 0.53582,0.1302 0.64603,0.39063c0.12019,0.26042 0.18029,0.64603 0.18029,1.15686c0,0.12019 -0.00998,0.2504 -0.03005,0.39063c-0.00998,0.1302 -0.03005,0.2504 -0.0601,0.36058l-0.03005,-0.30049c0.24039,-0.65105 0.61094,-1.15686 1.11179,-1.51744c0.50084,-0.37059 1.03162,-0.55589 1.59256,-0.55589c0.62104,0 1.13679,0.17528 1.54748,0.52584c0.42068,0.35056 0.73114,0.84135 0.9315,1.47237c0.21034,0.63101 0.31551,1.37721 0.31551,2.2386c0,0.53086 -0.02501,1.05671 -0.07512,1.57753c-0.04003,0.51082 -0.10013,0.98158 -0.18029,1.41227c-0.07008,0.42068 -0.15024,0.76623 -0.24039,1.03667c-0.12019,0.34051 -0.27548,0.59592 -0.46575,0.76623c-0.19027,0.16023 -0.41563,0.24039 -0.67608,0.24039c-0.26045,0 -0.4607,-0.09519 -0.60096,-0.28546c-0.14026,-0.19027 -0.21034,-0.44568 -0.21034,-0.76623c0,-0.34054 0.02501,-0.7512 0.07512,-1.23198c0.05011,-0.49079 0.09519,-0.98658 0.13522,-1.48739c0.05011,-0.51082 0.07512,-0.97155 0.07512,-1.38223c0,-1.40226 -0.4607,-2.10338 -1.38223,-2.10338c-0.49075,0 -0.90145,0.22035 -1.23198,0.66106c-0.33053,0.43069 -0.55085,1.04668 -0.66106,1.84797c-0.03005,0.27044 -0.04507,0.60598 -0.04507,1.00662c0,0.40064 0,0.80129 0,1.20193c0.00998,0.39063 0,0.72116 -0.03005,0.99159c-0.04003,0.60096 -0.15528,1.03162 -0.34556,1.29208c-0.18029,0.26045 -0.43065,0.39063 -0.7512,0.39063c-0.37056,0 -0.65109,-0.17031 -0.84135,-0.51082c-0.19027,-0.3506 -0.28546,-0.93651 -0.28546,-1.75782c0,-0.42068 0.00998,-0.89144 0.03005,-1.41227c0.02007,-0.52083 0.04507,-1.04168 0.07512,-1.56251c0.04003,-0.53086 0.0851,-1.01163 0.13522,-1.44232c0.10013,-0.8113 0.24543,-1.45233 0.4357,-1.92309c0.19027,-0.48077 0.47573,-0.72116 0.85638,-0.72116zM250.77156,184.68754c-0.63101,0 -1.12177,-0.04003 -1.47237,-0.12019c-0.34051,-0.08016 -0.57597,-0.19027 -0.70613,-0.33053c-0.13018,-0.15024 -0.20036,-0.31551 -0.21034,-0.4958c0,-0.28042 0.16527,-0.51583 0.4958,-0.70613c0.34051,-0.1903 0.96155,-0.31049 1.86299,-0.36058l-0.24039,0.28546c-0.11021,-0.51082 -0.19027,-1.10677 -0.24039,-1.78787c-0.05011,-0.6811 -0.07008,-1.38723 -0.0601,-2.11841c0.00998,-0.73118 0.04507,-1.4273 0.10517,-2.08836c0.0601,-0.67108 0.1452,-1.24199 0.25541,-1.71275l1.3071,-0.09015c-0.22032,0.09015 -0.4958,0.17027 -0.82633,0.24039c-0.33053,0.0601 -0.67104,0.09015 -1.02164,0.09015c-0.64099,0 -1.11683,-0.07011 -1.4273,-0.21034c-0.30049,-0.14023 -0.45073,-0.33554 -0.45073,-0.58594c0,-0.44071 0.26539,-0.78125 0.79628,-1.02164c0.54087,-0.2504 1.3672,-0.37561 2.47898,-0.37561c1.32213,0 2.43391,0.22035 3.33536,0.66106c0.91143,0.43069 1.60254,1.03667 2.07333,1.81792c0.4708,0.77124 0.70613,1.67269 0.70613,2.70434c0,0.90145 -0.16023,1.73279 -0.48077,2.49401c-0.32055,0.7512 -0.78125,1.40726 -1.38223,1.96816c-0.59099,0.55085 -1.30206,0.98161 -2.13343,1.29208c-0.82128,0.30049 -1.7428,0.45073 -2.76444,0.45073zM252.90499,182.37382c0.34051,0 0.70109,-0.13522 1.08174,-0.40566c0.39063,-0.28045 0.72116,-0.6861 0.99159,-1.21696c0.27044,-0.54087 0.40566,-1.20694 0.40566,-1.99821c0,-0.58093 -0.0851,-1.08675 -0.25541,-1.51744c-0.16023,-0.44071 -0.37056,-0.8063 -0.63101,-1.09676c-0.26045,-0.29047 -0.53582,-0.50581 -0.82633,-0.64603c-0.2905,-0.15024 -0.56587,-0.22536 -0.82633,-0.22536c-0.21034,0 -0.37561,0.1302 -0.4958,0.39063c-0.11021,0.26042 -0.19027,0.65105 -0.24039,1.17189c-0.05011,0.51082 -0.07512,1.14684 -0.07512,1.90807c0,1.18189 0.0601,2.08334 0.18029,2.70434c0.12019,0.621 0.3506,0.9315 0.69111,0.9315zM265.75354,184.49223c-0.34051,0 -0.57585,-0.13018 -0.70613,-0.39063c-0.12019,-0.27044 -0.19027,-0.69615 -0.21034,-1.27706l0.15024,0.07512c-0.56083,1.09172 -1.6226,1.63763 -3.18512,1.63763c-0.71107,0 -1.30206,-0.12524 -1.77285,-0.37561c-0.47068,-0.26045 -0.82128,-0.60096 -1.05169,-1.02164c-0.22032,-0.43069 -0.33053,-0.89644 -0.33053,-1.39725c0,-0.86139 0.30049,-1.54248 0.90145,-2.04328c0.60096,-0.51082 1.39725,-0.76623 2.38884,-0.76623c0.65109,0 1.21696,0.09516 1.69773,0.28546c0.48077,0.1903 0.89147,0.45573 1.23198,0.79628l-0.25541,-0.03005c-0.07008,-1.01163 -0.29039,-1.73279 -0.66106,-2.16348c-0.36058,-0.44071 -0.87634,-0.66106 -1.54748,-0.66106c-0.39063,0 -0.7512,0.0601 -1.08174,0.18029c-0.33053,0.12019 -0.63595,0.24539 -0.91647,0.37561c-0.27044,0.12019 -0.52584,0.18029 -0.76623,0.18029c-0.24039,0 -0.43065,-0.08014 -0.57091,-0.24039c-0.13018,-0.16025 -0.19532,-0.36559 -0.19532,-0.61599c0,-0.36058 0.17031,-0.70113 0.51082,-1.02164c0.3506,-0.32052 0.8113,-0.58093 1.38223,-0.78125c0.57091,-0.20032 1.19195,-0.30049 1.86299,-0.30049c0.8113,0 1.50746,0.19532 2.08836,0.58594c0.58101,0.39063 1.02164,0.96155 1.32213,1.71275c0.26045,0.64103 0.44579,1.35718 0.55589,2.14845c0.11021,0.79127 0.16527,1.63763 0.16527,2.53908c0,0.6811 -0.03499,1.20694 -0.10517,1.57753c-0.07008,0.37056 -0.18029,0.63101 -0.33053,0.78125c-0.14015,0.14026 -0.33053,0.21034 -0.57091,0.21034zM262.43321,182.80952c0.33053,0 0.66611,-0.04507 1.00662,-0.13522c0.34062,-0.10015 0.62608,-0.24539 0.85638,-0.4357c0.23041,-0.1903 0.34556,-0.42569 0.34556,-0.70613c0,-0.24039 -0.10013,-0.4357 -0.30049,-0.58594c-0.19027,-0.16025 -0.44568,-0.28045 -0.76623,-0.36058c-0.31046,-0.08014 -0.64603,-0.12019 -1.00662,-0.12019c-0.61094,0 -1.0767,0.10517 -1.39725,0.31551c-0.31046,0.21034 -0.46575,0.49079 -0.46575,0.84135c0,0.38061 0.1453,0.67608 0.4357,0.88642c0.30049,0.20032 0.73125,0.30049 1.29208,0.30049zM270.67706,175.29745h-0.30049c-0.03005,-0.44071 -0.02007,-0.85638 0.03005,-1.24701c0.05001,-0.40064 0.15517,-0.72116 0.31551,-0.96155c0.1702,-0.2504 0.41059,-0.37561 0.72116,-0.37561c0.28042,0 0.48571,0.09015 0.61599,0.27044c0.13018,0.18029 0.19532,0.43069 0.19532,0.75121c0,0.63101 -0.12019,1.17189 -0.36058,1.6226l-0.27044,-0.03005c0.54087,-0.1903 1.15182,-0.28546 1.83294,-0.28546c0.43065,0 0.77117,0.08513 1.02164,0.25541c0.26034,0.16025 0.39063,0.4357 0.39063,0.82633c0,0.37059 -0.15024,0.65105 -0.45073,0.84135c-0.30049,0.1903 -0.67608,0.28546 -1.12681,0.28546c-0.27044,0 -0.56094,-0.01001 -0.8714,-0.03005c-0.30049,-0.03005 -0.59603,-0.07512 -0.88642,-0.13522l0.25541,-0.31551c0.09015,0.38061 0.17525,0.81632 0.25541,1.3071c0.09015,0.48077 0.1702,0.98158 0.24039,1.50241c0.07008,0.52083 0.12513,1.02666 0.16527,1.51744c0.04003,0.49079 0.0601,0.9315 0.0601,1.32213c0,0.64103 -0.10023,1.14688 -0.30049,1.51744c-0.20036,0.37056 -0.4958,0.55589 -0.88642,0.55589c-0.31057,0 -0.55589,-0.09519 -0.73618,-0.28546c-0.17031,-0.19027 -0.29555,-0.43065 -0.37561,-0.72116c-0.07018,-0.30049 -0.11525,-0.61098 -0.13522,-0.9315c-0.01008,-0.32052 -0.01502,-0.61098 -0.01502,-0.8714c0,-0.44071 0.01996,-0.93651 0.0601,-1.48739c0.04003,-0.5609 0.09508,-1.13682 0.16527,-1.72777c0.08006,-0.59095 0.1702,-1.16187 0.27044,-1.71275l0.30049,0.25541c-0.51082,0.26042 -1.14184,0.39063 -1.89304,0.39063c-0.46081,0 -0.81634,-0.08513 -1.06672,-0.25541c-0.25047,-0.17027 -0.37561,-0.4357 -0.37561,-0.79628c0,-0.39063 0.14015,-0.69111 0.42068,-0.90145c0.28042,-0.22035 0.65602,-0.33053 1.12681,-0.33053c0.31046,0 0.60096,0.02004 0.8714,0.0601c0.28042,0.03005 0.52584,0.07011 0.73618,0.12019zM282.6557,184.49223c-0.34051,0 -0.57585,-0.13018 -0.70613,-0.39063c-0.12019,-0.27044 -0.19027,-0.69615 -0.21034,-1.27706l0.15024,0.07512c-0.56083,1.09172 -1.6226,1.63763 -3.18512,1.63763c-0.71107,0 -1.30206,-0.12524 -1.77285,-0.37561c-0.47068,-0.26045 -0.82128,-0.60096 -1.05169,-1.02164c-0.22032,-0.43069 -0.33053,-0.89644 -0.33053,-1.39725c0,-0.86139 0.30049,-1.54248 0.90145,-2.04328c0.60096,-0.51082 1.39725,-0.76623 2.38884,-0.76623c0.65109,0 1.21696,0.09516 1.69773,0.28546c0.48077,0.1903 0.89147,0.45573 1.23198,0.79628l-0.25541,-0.03005c-0.07008,-1.01163 -0.29039,-1.73279 -0.66106,-2.16348c-0.36058,-0.44071 -0.87634,-0.66106 -1.54748,-0.66106c-0.39063,0 -0.7512,0.0601 -1.08174,0.18029c-0.33053,0.12019 -0.63595,0.24539 -0.91647,0.37561c-0.27044,0.12019 -0.52584,0.18029 -0.76623,0.18029c-0.24039,0 -0.43065,-0.08014 -0.57091,-0.24039c-0.13018,-0.16025 -0.19532,-0.36559 -0.19532,-0.61599c0,-0.36058 0.17031,-0.70113 0.51082,-1.02164c0.3506,-0.32052 0.8113,-0.58093 1.38223,-0.78125c0.57091,-0.20032 1.19195,-0.30049 1.86299,-0.30049c0.8113,0 1.50746,0.19532 2.08836,0.58594c0.58101,0.39063 1.02164,0.96155 1.32213,1.71275c0.26045,0.64103 0.44579,1.35718 0.55589,2.14845c0.11021,0.79127 0.16527,1.63763 0.16527,2.53908c0,0.6811 -0.03499,1.20694 -0.10517,1.57753c-0.07008,0.37056 -0.18029,0.63101 -0.33053,0.78125c-0.14015,0.14026 -0.33053,0.21034 -0.57091,0.21034zM279.33537,182.80952c0.33053,0 0.66611,-0.04507 1.00662,-0.13522c0.34062,-0.10015 0.62608,-0.24539 0.85638,-0.4357c0.23041,-0.1903 0.34556,-0.42569 0.34556,-0.70613c0,-0.24039 -0.10013,-0.4357 -0.30049,-0.58594c-0.19027,-0.16025 -0.44568,-0.28045 -0.76623,-0.36058c-0.31046,-0.08014 -0.64603,-0.12019 -1.00662,-0.12019c-0.61094,0 -1.0767,0.10517 -1.39725,0.31551c-0.31046,0.21034 -0.46575,0.49079 -0.46575,0.84135c0,0.38061 0.1453,0.67608 0.4357,0.88642c0.30049,0.20032 0.73125,0.30049 1.29208,0.30049zM285.49495,177.56609c0,-0.96155 0.09015,-1.65265 0.27044,-2.07333c0.18029,-0.43069 0.4357,-0.64603 0.76623,-0.64603c0.26045,0 0.46575,0.11018 0.61599,0.33053c0.15024,0.21034 0.26045,0.47576 0.33053,0.79628c0.07008,0.31049 0.10517,0.62601 0.10517,0.94652l-0.07512,-0.03005c0.17031,-0.54087 0.43065,-1.00662 0.78125,-1.39725c0.36058,-0.39063 0.79124,-0.58594 1.29208,-0.58594c0.59099,0 1.02668,0.24539 1.3071,0.73618c0.28042,0.48077 0.42068,1.08174 0.42068,1.8029c0,0.96155 -0.11021,1.63262 -0.33053,2.01324c-0.22032,0.38061 -0.51587,0.57091 -0.88642,0.57091c-0.27044,0 -0.4708,-0.11018 -0.60096,-0.33053c-0.12019,-0.22035 -0.16023,-0.61098 -0.12019,-1.17189c0.04003,-0.59095 0.00504,-1.0016 -0.10517,-1.23198c-0.11021,-0.23037 -0.28546,-0.34556 -0.52584,-0.34556c-0.2905,0 -0.53089,0.1853 -0.72116,0.55589c-0.18029,0.36058 -0.27044,0.8063 -0.27044,1.33715c0,0.21034 0.02501,0.47576 0.07512,0.79628c0.05011,0.32052 0.10517,0.67108 0.16527,1.05169c0.0601,0.37059 0.11515,0.7412 0.16527,1.11179c0.05011,0.37059 0.07512,0.71115 0.07512,1.02164c0,0.55085 -0.0851,0.94652 -0.25541,1.18691c-0.17031,0.24039 -0.4107,0.36058 -0.72116,0.36058c-0.3506,0 -0.62104,-0.11021 -0.8113,-0.33053c-0.19027,-0.23041 -0.33558,-0.60096 -0.4357,-1.11179c-0.08016,-0.46074 -0.16023,-1.00662 -0.24039,-1.63763c-0.08016,-0.63101 -0.1452,-1.27706 -0.19532,-1.93811c-0.05011,-0.66106 -0.07512,-1.25702 -0.07512,-1.78787z"/></g></g></svg>