<svg version="1.1" xmlns="http://www.w3.org/2000/svg" xmlns:xlink="http://www.w3.org/1999/xlink" width="333.80138" height="12.08988" viewBox="0,0,333.80138,12.08988"><g transform="translate(-73.09931,-173.95506)"><g data-paper-data="{&quot;isPaintingLayer&quot;:true}" fill="#000000" fill-rule="nonzero" stroke="none" stroke-width="1" stroke-linecap="butt" stroke-linejoin="miter" stroke-miterlimit="10" stroke-dasharray="" stroke-dashoffset="0" style="mix-blend-mode: normal"><path d="M77.22308,183.78115c-0.92183,0 -1.68866,-0.17131 -2.3005,-0.51394c-0.61184,-0.35075 -1.06867,-0.84022 -1.37051,-1.4684c-0.30184,-0.62816 -0.45276,-1.36236 -0.45276,-2.2026c0,-0.92999 0.16723,-1.74169 0.5017,-2.4351c0.34263,-0.70157 0.83618,-1.24407 1.48064,-1.62748c0.64447,-0.38342 1.41946,-0.57512 2.32497,-0.57512c0.84842,0 1.52551,0.15092 2.03129,0.45276c0.50578,0.29368 0.75868,0.66894 0.75868,1.12578c0,0.26921 -0.08566,0.48538 -0.25697,0.64855c-0.17131,0.15499 -0.42013,0.2325 -0.74644,0.2325c-0.21211,0 -0.42013,-0.04487 -0.62407,-0.1346c-0.20394,-0.08973 -0.4242,-0.1754 -0.66079,-0.25697c-0.22842,-0.08973 -0.5017,-0.1346 -0.81986,-0.1346c-0.40789,0 -0.78723,0.07751 -1.13801,0.2325c-0.34263,0.15499 -0.61999,0.41605 -0.8321,0.78315c-0.20394,0.35895 -0.30591,0.84842 -0.30591,1.4684c0,0.93814 0.20394,1.60301 0.61184,1.99459c0.41605,0.39157 0.96262,0.58736 1.63971,0.58736c0.23658,0 0.48538,-0.02036 0.74644,-0.06119c0.26106,-0.04895 0.50578,-0.09382 0.7342,-0.1346c0.22842,-0.04895 0.41197,-0.07342 0.55065,-0.07342c0.27737,0 0.49762,0.06934 0.66079,0.20802c0.16316,0.1305 0.24474,0.32629 0.24474,0.58736c0,0.37523 -0.23658,0.68525 -0.70973,0.92999c-0.47315,0.24474 -1.16249,0.3671 -2.068,0.3671zM84.16637,183.68326c-0.65265,0 -1.22367,-0.14274 -1.71314,-0.42829c-0.48134,-0.29368 -0.85657,-0.70973 -1.12578,-1.24814c-0.26106,-0.53841 -0.39157,-1.17881 -0.39157,-1.92116c0,-0.77499 0.1346,-1.45208 0.40381,-2.03129c0.26921,-0.57921 0.64855,-1.03197 1.13801,-1.35827c0.4976,-0.32631 1.07272,-0.48946 1.72537,-0.48946c0.7016,0 1.30933,0.15908 1.82326,0.47723c0.51394,0.31 0.91365,0.74644 1.1992,1.30933c0.28555,0.56289 0.42829,1.21959 0.42829,1.97011c0,0.76683 -0.14274,1.42762 -0.42829,1.98235c-0.28555,0.55476 -0.68936,0.98305 -1.21144,1.28485c-0.52207,0.30181 -1.13801,0.45276 -1.84774,0.45276zM84.33768,182.0313c0.50581,0 0.90551,-0.19987 1.1992,-0.5996c0.30181,-0.40789 0.45276,-0.94631 0.45276,-1.61525c0,-0.6771 -0.15095,-1.21552 -0.45276,-1.61525c-0.29368,-0.39973 -0.69339,-0.5996 -1.1992,-0.5996c-0.52207,0 -0.9341,0.19987 -1.23591,0.5996c-0.30181,0.39973 -0.45276,0.93814 -0.45276,1.61525c0,0.66894 0.15095,1.20735 0.45276,1.61525c0.30181,0.39973 0.71384,0.5996 1.23591,0.5996zM90.13673,176.03533c0.26108,0 0.43641,0.10604 0.52618,0.31815c0.09789,0.21211 0.14684,0.52618 0.14684,0.94223c0,0.09789 -0.00813,0.20394 -0.02447,0.31815c-0.00813,0.10604 -0.02447,0.20394 -0.04895,0.29368l-0.02447,-0.24474c0.19579,-0.53026 0.4976,-0.94223 0.90551,-1.23591c0.40792,-0.30183 0.84022,-0.45276 1.29709,-0.45276c0.50581,0 0.92588,0.14276 1.26038,0.42829c0.34263,0.28552 0.59549,0.68525 0.75868,1.1992c0.17131,0.51394 0.25697,1.12169 0.25697,1.82326c0,0.43237 -0.02036,0.86065 -0.06119,1.28485c-0.0326,0.41605 -0.08155,0.79947 -0.14684,1.15025c-0.05708,0.34263 -0.12236,0.62407 -0.19579,0.84434c-0.09789,0.27734 -0.22436,0.48536 -0.37934,0.62407c-0.15497,0.1305 -0.33852,0.19579 -0.55065,0.19579c-0.21214,0 -0.37523,-0.07753 -0.48946,-0.2325c-0.11424,-0.15497 -0.17131,-0.36299 -0.17131,-0.62407c0,-0.27734 0.02036,-0.61184 0.06119,-1.00341c0.04081,-0.39973 0.07753,-0.80354 0.11013,-1.21144c0.04081,-0.41605 0.06119,-0.7913 0.06119,-1.12578c0,-1.14209 -0.37523,-1.71314 -1.12578,-1.71314c-0.3997,0 -0.7342,0.17947 -1.00341,0.53841c-0.26921,0.35078 -0.44865,0.85249 -0.53841,1.50511c-0.02447,0.22026 -0.03671,0.49355 -0.03671,0.81986c0,0.32631 0,0.65263 0,0.97894c0.00813,0.31815 0,0.58736 -0.02447,0.80762c-0.0326,0.48946 -0.12648,0.84022 -0.28145,1.05235c-0.14684,0.21214 -0.35075,0.31815 -0.61184,0.31815c-0.30181,0 -0.53029,-0.13871 -0.68525,-0.41605c-0.15497,-0.28555 -0.2325,-0.76279 -0.2325,-1.43169c0,-0.34263 0.00813,-0.72605 0.02447,-1.15025c0.01635,-0.4242 0.03671,-0.84842 0.06119,-1.27261c0.0326,-0.43237 0.06931,-0.82394 0.11013,-1.17472c0.08155,-0.66079 0.1999,-1.18288 0.35486,-1.5663c0.15497,-0.39157 0.38746,-0.58736 0.69749,-0.58736zM98.74788,176.28006h-0.24474c-0.02447,-0.35895 -0.01626,-0.69749 0.02447,-1.01565c0.04081,-0.32631 0.12648,-0.58736 0.25697,-0.78315c0.13871,-0.20394 0.3345,-0.30591 0.58736,-0.30591c0.22848,0 0.39569,0.07342 0.5017,0.22026c0.10611,0.14684 0.15908,0.35078 0.15908,0.61184c0,0.51394 -0.09789,0.95446 -0.29368,1.32156l-0.22026,-0.02447c0.44052,-0.15499 0.9382,-0.2325 1.49288,-0.2325c0.35084,0 0.62818,0.06934 0.8321,0.20802c0.21214,0.13052 0.31815,0.35486 0.31815,0.67301c0,0.30183 -0.12236,0.53026 -0.3671,0.68525c-0.24474,0.15499 -0.55065,0.2325 -0.91775,0.2325c-0.22026,0 -0.45678,-0.00815 -0.70973,-0.02447c-0.24474,-0.02447 -0.48536,-0.06119 -0.72196,-0.11013l0.20802,-0.25697c0.07342,0.31 0.14282,0.66486 0.20802,1.06459c0.07342,0.39157 0.13871,0.79947 0.19579,1.22367c0.05716,0.4242 0.102,0.83618 0.1346,1.23591c0.03269,0.39973 0.04895,0.75868 0.04895,1.07683c0,0.52207 -0.08155,0.9341 -0.24474,1.23591c-0.1631,0.30181 -0.40381,0.45276 -0.72196,0.45276c-0.25286,0 -0.45276,-0.07753 -0.5996,-0.2325c-0.13862,-0.15497 -0.24063,-0.35075 -0.30591,-0.58736c-0.05708,-0.24474 -0.09379,-0.4976 -0.11013,-0.75868c-0.00813,-0.26108 -0.01224,-0.49762 -0.01224,-0.70973c0,-0.35895 0.01635,-0.76276 0.04895,-1.21144c0.03269,-0.45684 0.07753,-0.92591 0.1346,-1.40722c0.06529,-0.48131 0.13871,-0.94631 0.22026,-1.39499l0.24474,0.20802c-0.41605,0.21211 -0.92999,0.31815 -1.54182,0.31815c-0.37523,0 -0.6648,-0.06934 -0.8688,-0.20802c-0.20391,-0.13868 -0.30591,-0.35486 -0.30591,-0.64855c0,-0.31815 0.11424,-0.56289 0.34263,-0.7342c0.22848,-0.17947 0.5344,-0.26921 0.91775,-0.26921c0.25295,0 0.48946,0.01632 0.70973,0.04895c0.22848,0.02447 0.42829,0.0571 0.5996,0.09789zM106.01079,183.68326c-0.65265,0 -1.22367,-0.14274 -1.71314,-0.42829c-0.48134,-0.29368 -0.85657,-0.70973 -1.12578,-1.24814c-0.26108,-0.53841 -0.39157,-1.17881 -0.39157,-1.92116c0,-0.77499 0.1346,-1.45208 0.40381,-2.03129c0.26921,-0.57921 0.64855,-1.03197 1.13801,-1.35827c0.4976,-0.32631 1.07272,-0.48946 1.72537,-0.48946c0.7016,0 1.30933,0.15908 1.82326,0.47723c0.51394,0.31 0.91365,0.74644 1.1992,1.30933c0.28555,0.56289 0.42829,1.21959 0.42829,1.97011c0,0.76683 -0.14274,1.42762 -0.42829,1.98235c-0.28555,0.55476 -0.68936,0.98305 -1.21144,1.28485c-0.52207,0.30181 -1.13801,0.45276 -1.84774,0.45276zM106.1821,182.0313c0.50581,0 0.90551,-0.19987 1.1992,-0.5996c0.30181,-0.40789 0.45276,-0.94631 0.45276,-1.61525c0,-0.6771 -0.15095,-1.21552 -0.45276,-1.61525c-0.29368,-0.39973 -0.69339,-0.5996 -1.1992,-0.5996c-0.52207,0 -0.9341,0.19987 -1.23591,0.5996c-0.30181,0.39973 -0.45276,0.93814 -0.45276,1.61525c0,0.66894 0.15095,1.20735 0.45276,1.61525c0.30181,0.39973 0.71384,0.5996 1.23591,0.5996zM111.9934,173.95509c0.26099,0 0.44052,0.10198 0.53841,0.30591c0.10602,0.20394 0.15908,0.50986 0.15908,0.91775c0,0.35078 -0.02045,0.7913 -0.06119,1.32156c-0.04081,0.53026 -0.09387,1.04012 -0.15908,1.52959h-0.07342c0.26921,-0.50578 0.61585,-0.91367 1.04012,-1.22367c0.42418,-0.31 0.87283,-0.465 1.34604,-0.465c0.41605,0 0.78717,0.10197 1.11354,0.30591c0.32629,0.19579 0.59139,0.50578 0.79539,0.92999c0.18757,0.38342 0.32629,0.84025 0.41605,1.37051c0.08968,0.52209 0.1346,1.01973 0.1346,1.49288c0,0.75868 -0.05305,1.36236 -0.15908,1.81103c-0.09789,0.44865 -0.2366,0.77502 -0.41605,0.97894c-0.17953,0.19579 -0.39157,0.29368 -0.63631,0.29368c-0.51394,0 -0.77091,-0.42015 -0.77091,-1.26038c0,-0.40789 0.02036,-0.82802 0.06119,-1.26038c0.04895,-0.43237 0.07342,-0.82802 0.07342,-1.18696c0,-0.61184 -0.09789,-1.06867 -0.29368,-1.37051c-0.18766,-0.31 -0.46097,-0.465 -0.81986,-0.465c-0.44874,0 -0.81173,0.19987 -1.08906,0.5996c-0.27742,0.39973 -0.41605,0.95038 -0.41605,1.65195c0,0.3671 0.0326,0.77091 0.09789,1.21144c0.0652,0.43237 0.09789,0.82799 0.09789,1.18696c0,0.3997 -0.07753,0.68936 -0.2325,0.8688c-0.14684,0.17131 -0.33861,0.25697 -0.57512,0.25697c-0.17953,0 -0.33861,-0.03671 -0.47723,-0.11013c-0.13059,-0.06529 -0.24474,-0.1999 -0.34263,-0.40381c-0.08976,-0.21214 -0.16729,-0.52618 -0.2325,-0.94223c-0.04895,-0.31815 -0.09789,-0.68933 -0.14684,-1.11354c-0.04895,-0.4242 -0.08976,-0.8688 -0.12236,-1.3338c-0.03269,-0.465 -0.06119,-0.91775 -0.08566,-1.35827c-0.01635,-0.44868 -0.02447,-0.85657 -0.02447,-1.22367c0,-1.1584 0.11013,-1.99866 0.33039,-2.52076c0.22026,-0.53026 0.5302,-0.79539 0.92999,-0.79539zM123.57534,183.70774c-0.50581,0 -0.92596,-0.09379 -1.26038,-0.28145c-0.32637,-0.19579 -0.5711,-0.49358 -0.7342,-0.89328c-0.11424,-0.27734 -0.1999,-0.61184 -0.25697,-1.00341c-0.04895,-0.39973 -0.07342,-0.85657 -0.07342,-1.37051c0,-0.88104 0.0285,-1.60709 0.08566,-2.17814c0.05708,-0.57921 0.13862,-1.0442 0.24474,-1.39499c0.11415,-0.35895 0.24063,-0.64855 0.37934,-0.8688c0.22026,-0.33447 0.57101,-0.60368 1.05235,-0.80762c0.48125,-0.20394 1.16249,-0.30591 2.04353,-0.30591c0.58736,0 1.05638,0.08973 1.40722,0.26921c0.35889,0.17131 0.61585,0.39973 0.77091,0.68525c0.1631,0.28552 0.24474,0.60368 0.24474,0.95446c0,0.55473 -0.16319,1.01157 -0.48946,1.37051c-0.32637,0.35895 -0.75465,0.64447 -1.28485,0.85657v0.04895c0.57915,0.06527 1.02789,0.25289 1.34604,0.56289c0.32629,0.30183 0.48946,0.7342 0.48946,1.29709c0,0.44868 -0.11424,0.86065 -0.34263,1.23591c-0.22026,0.3671 -0.52216,0.68936 -0.90551,0.9667c-0.37531,0.26921 -0.79949,0.48134 -1.27261,0.63631c-0.47321,0.14684 -0.95446,0.22026 -1.44393,0.22026zM123.95468,182.23933c0.39157,0 0.73822,-0.06529 1.04012,-0.19579c0.30994,-0.1305 0.55065,-0.30591 0.72196,-0.52618c0.17944,-0.22842 0.26921,-0.48538 0.26921,-0.77091c0,-0.31 -0.15095,-0.56697 -0.45276,-0.77091c-0.29368,-0.21211 -0.75465,-0.31815 -1.38275,-0.31815c-0.42426,0 -0.76279,0.10197 -1.01565,0.30591c-0.24474,0.19579 -0.3671,0.53433 -0.3671,1.01565c0,0.45684 0.09789,0.78315 0.29368,0.97894c0.19579,0.18766 0.49349,0.28145 0.89328,0.28145zM124.00363,178.3603c0.55467,0 1.01565,-0.12236 1.38275,-0.3671c0.37523,-0.25289 0.56289,-0.57921 0.56289,-0.97894c0,-0.29368 -0.11835,-0.53026 -0.35486,-0.70973c-0.2366,-0.17947 -0.58334,-0.26921 -1.04012,-0.26921c-0.49769,0 -0.90551,0.09789 -1.22367,0.29368c-0.31815,0.19579 -0.47723,0.53026 -0.47723,1.00341c0,0.38342 0.10191,0.65263 0.30591,0.80762c0.21205,0.14684 0.49349,0.22026 0.84434,0.22026zM134.24426,183.76892c-0.27734,0 -0.46901,-0.10602 -0.57512,-0.31815c-0.09789,-0.22026 -0.15497,-0.567 -0.17131,-1.04012l0.12236,0.06119c-0.45678,0.88917 -1.32156,1.3338 -2.59418,1.3338c-0.57915,0 -1.06049,-0.102 -1.44393,-0.30591c-0.38336,-0.21214 -0.66891,-0.48946 -0.85657,-0.8321c-0.17944,-0.35075 -0.26921,-0.7301 -0.26921,-1.13801c0,-0.70157 0.24474,-1.25629 0.7342,-1.66419c0.48946,-0.41605 1.13801,-0.62407 1.94564,-0.62407c0.53029,0 0.99117,0.07751 1.38275,0.2325c0.39157,0.15499 0.72607,0.37118 1.00341,0.64855l-0.20802,-0.02447c-0.05708,-0.82394 -0.23651,-1.41131 -0.53841,-1.76209c-0.29368,-0.35895 -0.71375,-0.53841 -1.26038,-0.53841c-0.31815,0 -0.61184,0.04895 -0.88104,0.14684c-0.26921,0.09789 -0.51796,0.19987 -0.74644,0.30591c-0.22026,0.09789 -0.42829,0.14684 -0.62407,0.14684c-0.19579,0 -0.35075,-0.06527 -0.465,-0.19579c-0.10602,-0.13052 -0.15908,-0.29776 -0.15908,-0.5017c0,-0.29368 0.13871,-0.57104 0.41605,-0.8321c0.28555,-0.26106 0.66079,-0.47315 1.12578,-0.63631c0.465,-0.16316 0.97081,-0.24474 1.51735,-0.24474c0.66079,0 1.22778,0.15908 1.7009,0.47723c0.47321,0.31815 0.8321,0.78315 1.07683,1.39499c0.21214,0.52209 0.36308,1.10538 0.45276,1.74985c0.08976,0.64447 0.1346,1.3338 0.1346,2.068c0,0.55476 -0.0285,0.98305 -0.08566,1.28485c-0.05708,0.30181 -0.14684,0.51394 -0.26921,0.63631c-0.11415,0.11424 -0.26921,0.17131 -0.465,0.17131zM131.53995,182.3984c0.26921,0 0.54252,-0.03671 0.81986,-0.11013c0.27742,-0.08155 0.50992,-0.1999 0.69749,-0.35486c0.18766,-0.15499 0.28145,-0.34671 0.28145,-0.57512c0,-0.19579 -0.08155,-0.35486 -0.24474,-0.47723c-0.15497,-0.13052 -0.36299,-0.22842 -0.62407,-0.29368c-0.25286,-0.06527 -0.52618,-0.09789 -0.81986,-0.09789c-0.4976,0 -0.87694,0.08566 -1.13801,0.25697c-0.25286,0.17131 -0.37934,0.39973 -0.37934,0.68525c0,0.31 0.11835,0.55065 0.35486,0.72196c0.24474,0.16319 0.59558,0.24474 1.05235,0.24474zM137.80488,176.03533c0.26108,0 0.43641,0.10604 0.52618,0.31815c0.09789,0.21211 0.14684,0.52618 0.14684,0.94223c0,0.09789 -0.00813,0.20394 -0.02447,0.31815c-0.00813,0.10604 -0.02447,0.20394 -0.04895,0.29368l-0.02447,-0.24474c0.19579,-0.53026 0.4976,-0.94223 0.90551,-1.23591c0.40792,-0.30183 0.84022,-0.45276 1.29709,-0.45276c0.50581,0 0.92588,0.14276 1.26038,0.42829c0.34263,0.28552 0.59549,0.68525 0.75868,1.1992c0.17131,0.51394 0.25697,1.12169 0.25697,1.82326c0,0.43237 -0.02036,0.86065 -0.06119,1.28485c-0.0326,0.41605 -0.08155,0.79947 -0.14684,1.15025c-0.05708,0.34263 -0.12236,0.62407 -0.19579,0.84434c-0.09789,0.27734 -0.22436,0.48536 -0.37934,0.62407c-0.15497,0.1305 -0.33852,0.19579 -0.55065,0.19579c-0.21214,0 -0.37523,-0.07753 -0.48946,-0.2325c-0.11424,-0.15497 -0.17131,-0.36299 -0.17131,-0.62407c0,-0.27734 0.02036,-0.61184 0.06119,-1.00341c0.04081,-0.39973 0.07753,-0.80354 0.11013,-1.21144c0.04081,-0.41605 0.06119,-0.7913 0.06119,-1.12578c0,-1.14209 -0.37523,-1.71314 -1.12578,-1.71314c-0.3997,0 -0.7342,0.17947 -1.00341,0.53841c-0.26921,0.35078 -0.44865,0.85249 -0.53841,1.50511c-0.02447,0.22026 -0.03671,0.49355 -0.03671,0.81986c0,0.32631 0,0.65263 0,0.97894c0.00813,0.31815 0,0.58736 -0.02447,0.80762c-0.0326,0.48946 -0.12648,0.84022 -0.28145,1.05235c-0.14684,0.21214 -0.35075,0.31815 -0.61184,0.31815c-0.30181,0 -0.53029,-0.13871 -0.68525,-0.41605c-0.15497,-0.28555 -0.2325,-0.76279 -0.2325,-1.43169c0,-0.34263 0.00813,-0.72605 0.02447,-1.15025c0.01635,-0.4242 0.03671,-0.84842 0.06119,-1.27261c0.0326,-0.43237 0.06931,-0.82394 0.11013,-1.17472c0.08155,-0.66079 0.1999,-1.18288 0.35486,-1.5663c0.15497,-0.39157 0.38746,-0.58736 0.69749,-0.58736zM146.68531,183.45076c-0.76689,0 -1.39096,-0.29368 -1.87221,-0.88104c-0.48134,-0.59549 -0.72196,-1.49696 -0.72196,-2.70431c0,-1.28893 0.2325,-2.23116 0.69749,-2.82668c0.465,-0.59552 1.07683,-0.89328 1.8355,-0.89328c0.44865,0 0.84434,0.11421 1.18696,0.34263c0.34263,0.22842 0.63631,0.55065 0.88104,0.9667l-0.09789,0.17131c-0.02447,-0.11421 -0.04493,-0.23658 -0.06119,-0.3671c-0.01635,-0.13052 -0.02447,-0.22842 -0.02447,-0.29368c0,-0.33447 0.05296,-0.59144 0.15908,-0.77091c0.11415,-0.18763 0.28957,-0.28145 0.52618,-0.28145c0.26099,0 0.465,0.10604 0.61184,0.31815c0.15497,0.21211 0.27323,0.51394 0.35486,0.90551c0.10602,0.39973 0.19579,0.9096 0.26921,1.52959c0.07342,0.61184 0.11013,1.23183 0.11013,1.85998c0,0.78315 -0.02859,1.43982 -0.08566,1.97011c-0.05716,0.53029 -0.15095,0.97081 -0.28145,1.32156c-0.13059,0.35075 -0.3019,0.65667 -0.51394,0.91775c-0.35084,0.42418 -0.8036,0.74644 -1.35827,0.9667c-0.54663,0.22839 -1.17883,0.34263 -1.89669,0.34263c-0.51394,0 -0.92596,-0.04895 -1.23591,-0.14684c-0.31003,-0.08976 -0.5344,-0.21615 -0.67301,-0.37934c-0.13059,-0.15497 -0.19579,-0.33039 -0.19579,-0.52618c0,-0.20391 0.05708,-0.37523 0.17131,-0.51394c0.11415,-0.1305 0.28546,-0.19579 0.51394,-0.19579c0.20391,0 0.44052,0.0326 0.70973,0.09789c0.27734,0.06529 0.60362,0.09789 0.97894,0.09789c0.79128,0 1.35006,-0.18766 1.67643,-0.56289c0.33441,-0.3671 0.5017,-0.89739 0.5017,-1.59077c0,-0.18766 -0.01224,-0.40792 -0.03671,-0.66079l0.17131,0.06119c-0.204,0.52207 -0.50581,0.94223 -0.90551,1.26038c-0.39979,0.31003 -0.86479,0.465 -1.39499,0.465zM147.1503,181.94565c0.26099,0 0.52207,-0.06934 0.78315,-0.20802c0.26099,-0.13868 0.47723,-0.3671 0.64855,-0.68525c0.17131,-0.31815 0.25697,-0.74644 0.25697,-1.28485c0,-0.64447 -0.15095,-1.17064 -0.45276,-1.57854c-0.3019,-0.40789 -0.72607,-0.61184 -1.27261,-0.61184c-0.47321,0 -0.81986,0.17947 -1.04012,0.53841c-0.22026,0.35895 -0.33039,0.90143 -0.33039,1.62748c0,0.69341 0.11013,1.23591 0.33039,1.62748c0.22026,0.38342 0.57915,0.57512 1.07683,0.57512zM157.53839,183.57313c-0.22026,0 -0.39157,-0.07342 -0.51394,-0.22026c-0.11424,-0.15497 -0.19176,-0.35075 -0.2325,-0.58736c-0.04081,-0.24474 -0.06119,-0.5017 -0.06119,-0.77091l0.06119,-0.04895c-0.08164,0.35075 -0.24071,0.65265 -0.47723,0.90551c-0.2366,0.25286 -0.50992,0.44865 -0.81986,0.58736c-0.31003,0.1305 -0.62005,0.19579 -0.92999,0.19579c-0.41605,0 -0.79539,-0.09789 -1.13801,-0.29368c-0.34263,-0.19579 -0.60781,-0.4976 -0.79539,-0.90551c-0.18766,-0.43239 -0.3345,-0.97485 -0.44052,-1.62748c-0.10611,-0.66079 -0.15908,-1.33788 -0.15908,-2.03129c0,-0.37526 0.01626,-0.72196 0.04895,-1.04012c0.0326,-0.31815 0.08566,-0.57921 0.15908,-0.78315c0.0652,-0.21211 0.1631,-0.3671 0.29368,-0.465c0.1305,-0.10604 0.2977,-0.15908 0.5017,-0.15908c0.23651,0 0.42006,0.09382 0.55065,0.28145c0.13862,0.17947 0.22428,0.43237 0.25697,0.75868c0.0326,0.26921 0.05296,0.60368 0.06119,1.00341c0.01626,0.39157 0.0285,0.78723 0.03671,1.18696c0.01626,0.39157 0.03671,0.72196 0.06119,0.99117c0.04895,0.48946 0.17534,0.85249 0.37934,1.08906c0.20391,0.22842 0.45276,0.34263 0.74644,0.34263c0.4323,0 0.7627,-0.16316 0.99117,-0.48946c0.22839,-0.32631 0.34263,-0.78315 0.34263,-1.37051c0,-0.29368 -0.01635,-0.62407 -0.04895,-0.99117c-0.03269,-0.37526 -0.0694,-0.73828 -0.11013,-1.08906c-0.03269,-0.35078 -0.04895,-0.64039 -0.04895,-0.8688c0,-0.38342 0.0652,-0.6567 0.19579,-0.81986c0.1305,-0.17131 0.30994,-0.25697 0.53841,-0.25697c0.19579,0 0.35889,0.05303 0.48946,0.15908c0.13862,0.10604 0.24875,0.25289 0.33039,0.44052c0.11415,0.24474 0.21205,0.57921 0.29368,1.00341c0.08155,0.4242 0.14684,0.90551 0.19579,1.44393c0.04895,0.53841 0.07342,1.10538 0.07342,1.7009c0,0.91367 -0.06119,1.5989 -0.18355,2.05576c-0.12236,0.44865 -0.33861,0.67301 -0.64855,0.67301zM161.10739,176.03533c0.26046,0 0.43615,0.10604 0.52618,0.31815c0.09789,0.21211 0.14684,0.52618 0.14684,0.94223c0,0.09789 -0.00874,0.20394 -0.02447,0.31815c-0.00874,0.10604 -0.02447,0.20394 -0.04895,0.29368l-0.02447,-0.24474c0.19579,-0.53026 0.49734,-0.94223 0.90551,-1.23591c0.40731,-0.30183 0.83996,-0.45276 1.29709,-0.45276c0.5052,0 0.92562,0.14276 1.26038,0.42829c0.34263,0.28552 0.59523,0.68525 0.75868,1.1992c0.17131,0.51394 0.25697,1.12169 0.25697,1.82326c0,0.43237 -0.02098,0.86065 -0.06119,1.28485c-0.03321,0.41605 -0.08216,0.79947 -0.14684,1.15025c-0.05769,0.34263 -0.12236,0.62407 -0.19579,0.84434c-0.09789,0.27734 -0.22463,0.48536 -0.37934,0.62407c-0.15558,0.1305 -0.33914,0.19579 -0.55065,0.19579c-0.2124,0 -0.37584,-0.07753 -0.48946,-0.2325c-0.1145,-0.15497 -0.17131,-0.36299 -0.17131,-0.62407c0,-0.27734 0.0201,-0.61184 0.06119,-1.00341c0.04021,-0.39973 0.07691,-0.80354 0.11013,-1.21144c0.04021,-0.41605 0.06119,-0.7913 0.06119,-1.12578c0,-1.14209 -0.37584,-1.71314 -1.12578,-1.71314c-0.40031,0 -0.7342,0.17947 -1.00341,0.53841c-0.26921,0.35078 -0.44926,0.85249 -0.53841,1.50511c-0.02447,0.22026 -0.03671,0.49355 -0.03671,0.81986c0,0.32631 0,0.65263 0,0.97894c0.00786,0.31815 0,0.58736 -0.02447,0.80762c-0.03321,0.48946 -0.12674,0.84022 -0.28145,1.05235c-0.14684,0.21214 -0.35136,0.31815 -0.61184,0.31815c-0.30242,0 -0.53055,-0.13871 -0.68525,-0.41605c-0.15558,-0.28555 -0.23267,-0.76279 -0.23267,-1.43169c0,-0.34263 0.00813,-0.72605 0.02447,-1.15025c0.01626,-0.4242 0.03689,-0.84842 0.06136,-1.27261c0.03234,-0.43237 0.06905,-0.82394 0.11013,-1.17472c0.08129,-0.66079 0.19929,-1.18288 0.35486,-1.5663c0.15471,-0.39157 0.3872,-0.58736 0.69749,-0.58736zM171.81363,183.92799c-0.51394,0 -0.91425,-0.0326 -1.1992,-0.09789c-0.27795,-0.06529 -0.46936,-0.15497 -0.57512,-0.26921c-0.10664,-0.12236 -0.16345,-0.25697 -0.17131,-0.40381c0,-0.22839 0.1346,-0.42015 0.40381,-0.57512c0.27707,-0.15497 0.78315,-0.25286 1.51735,-0.29368l-0.19579,0.2325c-0.09003,-0.41605 -0.15558,-0.90143 -0.19579,-1.45616c-0.04108,-0.55473 -0.05769,-1.12986 -0.04895,-1.72537c0.00786,-0.59552 0.03671,-1.16249 0.08566,-1.7009c0.04895,-0.54657 0.118,-1.01157 0.20802,-1.39499l1.06459,-0.07342c-0.18005,0.07342 -0.40381,0.13868 -0.67301,0.19579c-0.26921,0.04895 -0.54715,0.07342 -0.8321,0.07342c-0.52269,0 -0.90989,-0.0571 -1.16249,-0.17131c-0.24474,-0.11421 -0.3671,-0.27329 -0.3671,-0.47723c0,-0.35895 0.21589,-0.63631 0.64855,-0.8321c0.44052,-0.20394 1.11354,-0.30591 2.01905,-0.30591c1.07683,0 1.98235,0.17947 2.71655,0.53841c0.74206,0.35078 1.30496,0.84434 1.68866,1.48064c0.38284,0.62816 0.57512,1.36236 0.57512,2.2026c0,0.7342 -0.13111,1.41131 -0.39157,2.03129c-0.26134,0.61184 -0.63631,1.14614 -1.12578,1.60301c-0.4816,0.44865 -1.0611,0.79949 -1.73761,1.05235c-0.66952,0.24474 -1.41946,0.3671 -2.25155,0.3671zM173.55124,182.04354c0.27707,0 0.57075,-0.11013 0.88104,-0.33039c0.31815,-0.22842 0.58736,-0.55881 0.80762,-0.99117c0.22026,-0.44052 0.33039,-0.98302 0.33039,-1.62748c0,-0.47315 -0.06992,-0.88512 -0.20802,-1.23591c-0.13111,-0.35895 -0.30242,-0.6567 -0.51394,-0.89328c-0.2124,-0.23658 -0.43702,-0.41197 -0.67301,-0.52618c-0.23686,-0.12236 -0.4615,-0.18355 -0.67301,-0.18355c-0.17131,0 -0.30591,0.10604 -0.40381,0.31815c-0.09003,0.21211 -0.15558,0.53026 -0.19579,0.95446c-0.04108,0.41605 -0.06119,0.93407 -0.06119,1.55406c0,0.96262 0.04895,1.69682 0.14684,2.2026c0.09789,0.50578 0.28494,0.75868 0.56289,0.75868zM184.01537,183.76892c-0.27707,0 -0.46849,-0.10602 -0.57512,-0.31815c-0.09789,-0.22026 -0.15471,-0.567 -0.17131,-1.04012l0.12236,0.06119c-0.45625,0.88917 -1.32156,1.3338 -2.59418,1.3338c-0.57862,0 -1.06022,-0.102 -1.44393,-0.30591c-0.38284,-0.21214 -0.66865,-0.48946 -0.85657,-0.8321c-0.17918,-0.35075 -0.26921,-0.7301 -0.26921,-1.13801c0,-0.70157 0.24474,-1.25629 0.7342,-1.66419c0.48946,-0.41605 1.13801,-0.62407 1.94564,-0.62407c0.53055,0 0.99117,0.07751 1.38275,0.2325c0.39157,0.15499 0.72634,0.37118 1.00341,0.64855l-0.20802,-0.02447c-0.05681,-0.82394 -0.23599,-1.41131 -0.53841,-1.76209c-0.29368,-0.35895 -0.71322,-0.53841 -1.26038,-0.53841c-0.31815,0 -0.61184,0.04895 -0.88104,0.14684c-0.26921,0.09789 -0.51744,0.19987 -0.74644,0.30591c-0.22026,0.09789 -0.42829,0.14684 -0.62407,0.14684c-0.19579,0 -0.3505,-0.06527 -0.465,-0.19579c-0.10576,-0.13052 -0.15908,-0.29776 -0.15908,-0.5017c0,-0.29368 0.13897,-0.57104 0.41605,-0.8321c0.28581,-0.26106 0.66079,-0.47315 1.12578,-0.63631c0.465,-0.16316 0.97107,-0.24474 1.51735,-0.24474c0.66079,0 1.22804,0.15908 1.7009,0.47723c0.47374,0.31815 0.8321,0.78315 1.07683,1.39499c0.2124,0.52209 0.3636,1.10538 0.45276,1.74985c0.09003,0.64447 0.1346,1.3338 0.1346,2.068c0,0.55476 -0.02797,0.98305 -0.08566,1.28485c-0.05681,0.30181 -0.14684,0.51394 -0.26921,0.63631c-0.11363,0.11424 -0.26921,0.17131 -0.465,0.17131zM181.31106,182.3984c0.26921,0 0.54279,-0.03671 0.81986,-0.11013c0.27795,-0.08155 0.51045,-0.1999 0.69749,-0.35486c0.18792,-0.15499 0.28145,-0.34671 0.28145,-0.57512c0,-0.19579 -0.08129,-0.35486 -0.24474,-0.47723c-0.15471,-0.13052 -0.36273,-0.22842 -0.62407,-0.29368c-0.2526,-0.06527 -0.52618,-0.09789 -0.81986,-0.09789c-0.49734,0 -0.87667,0.08566 -1.13801,0.25697c-0.2526,0.17131 -0.37934,0.39973 -0.37934,0.68525c0,0.31 0.11887,0.55065 0.35486,0.72196c0.24474,0.16319 0.5961,0.24474 1.05235,0.24474zM188.02551,176.28006h-0.24474c-0.02447,-0.35895 -0.01661,-0.69749 0.02447,-1.01565c0.04108,-0.32631 0.12674,-0.58736 0.25697,-0.78315c0.13897,-0.20394 0.33476,-0.30591 0.58736,-0.30591c0.22813,0 0.39595,0.07342 0.5017,0.22026c0.10576,0.14684 0.15908,0.35078 0.15908,0.61184c0,0.51394 -0.09789,0.95446 -0.29368,1.32156l-0.22026,-0.02447c0.44052,-0.15499 0.93785,-0.2325 1.49288,-0.2325c0.3505,0 0.62844,0.06934 0.8321,0.20802c0.2124,0.13052 0.31815,0.35486 0.31815,0.67301c0,0.30183 -0.12236,0.53026 -0.3671,0.68525c-0.24474,0.15499 -0.55065,0.2325 -0.91775,0.2325c-0.22026,0 -0.45713,-0.00815 -0.70973,-0.02447c-0.24474,-0.02447 -0.4851,-0.06119 -0.72196,-0.11013l0.20802,-0.25697c0.07342,0.31 0.14247,0.66486 0.20802,1.06459c0.07342,0.39157 0.13897,0.79947 0.19579,1.22367c0.05681,0.4242 0.10226,0.83618 0.1346,1.23591c0.03234,0.39973 0.04895,0.75868 0.04895,1.07683c0,0.52207 -0.08129,0.9341 -0.24474,1.23591c-0.16345,0.30181 -0.40381,0.45276 -0.72196,0.45276c-0.2526,0 -0.45276,-0.07753 -0.5996,-0.2325c-0.13897,-0.15497 -0.24036,-0.35075 -0.30591,-0.58736c-0.05681,-0.24474 -0.09352,-0.4976 -0.11013,-0.75868c-0.00786,-0.26108 -0.01224,-0.49762 -0.01224,-0.70973c0,-0.35895 0.01661,-0.76276 0.04895,-1.21144c0.03234,-0.45684 0.07779,-0.92591 0.1346,-1.40722c0.06555,-0.48131 0.13897,-0.94631 0.22026,-1.39499l0.24474,0.20802c-0.41605,0.21211 -0.92999,0.31815 -1.54182,0.31815c-0.37496,0 -0.66515,-0.06934 -0.8688,-0.20802c-0.20365,-0.13868 -0.30591,-0.35486 -0.30591,-0.64855c0,-0.31815 0.1145,-0.56289 0.34263,-0.7342c0.22813,-0.17947 0.53405,-0.26921 0.91775,-0.26921c0.2526,0 0.48946,0.01632 0.70973,0.04895c0.22813,0.02447 0.42829,0.0571 0.5996,0.09789zM197.78165,183.76892c-0.27707,0 -0.46849,-0.10602 -0.57512,-0.31815c-0.09789,-0.22026 -0.15471,-0.567 -0.17131,-1.04012l0.12236,0.06119c-0.45625,0.88917 -1.32156,1.3338 -2.59418,1.3338c-0.57862,0 -1.06022,-0.102 -1.44393,-0.30591c-0.38284,-0.21214 -0.66865,-0.48946 -0.85657,-0.8321c-0.17918,-0.35075 -0.26921,-0.7301 -0.26921,-1.13801c0,-0.70157 0.24474,-1.25629 0.7342,-1.66419c0.48946,-0.41605 1.13801,-0.62407 1.94564,-0.62407c0.53055,0 0.99117,0.07751 1.38275,0.2325c0.39157,0.15499 0.72634,0.37118 1.00341,0.64855l-0.20802,-0.02447c-0.05681,-0.82394 -0.23599,-1.41131 -0.53841,-1.76209c-0.29368,-0.35895 -0.71322,-0.53841 -1.26038,-0.53841c-0.31815,0 -0.61184,0.04895 -0.88104,0.14684c-0.26921,0.09789 -0.51744,0.19987 -0.74644,0.30591c-0.22026,0.09789 -0.42829,0.14684 -0.62407,0.14684c-0.19579,0 -0.3505,-0.06527 -0.465,-0.19579c-0.10576,-0.13052 -0.15908,-0.29776 -0.15908,-0.5017c0,-0.29368 0.13897,-0.57104 0.41605,-0.8321c0.28581,-0.26106 0.66079,-0.47315 1.12578,-0.63631c0.465,-0.16316 0.97107,-0.24474 1.51735,-0.24474c0.66079,0 1.22804,0.15908 1.7009,0.47723c0.47374,0.31815 0.8321,0.78315 1.07683,1.39499c0.2124,0.52209 0.3636,1.10538 0.45276,1.74985c0.09003,0.64447 0.1346,1.3338 0.1346,2.068c0,0.55476 -0.02797,0.98305 -0.08566,1.28485c-0.05681,0.30181 -0.14684,0.51394 -0.26921,0.63631c-0.11363,0.11424 -0.26921,0.17131 -0.465,0.17131zM195.07734,182.3984c0.26921,0 0.54279,-0.03671 0.81986,-0.11013c0.27795,-0.08155 0.51045,-0.1999 0.69749,-0.35486c0.18792,-0.15499 0.28145,-0.34671 0.28145,-0.57512c0,-0.19579 -0.08129,-0.35486 -0.24474,-0.47723c-0.15471,-0.13052 -0.36273,-0.22842 -0.62407,-0.29368c-0.2526,-0.06527 -0.52618,-0.09789 -0.81986,-0.09789c-0.49734,0 -0.87667,0.08566 -1.13801,0.25697c-0.2526,0.17131 -0.37934,0.39973 -0.37934,0.68525c0,0.31 0.11887,0.55065 0.35486,0.72196c0.24474,0.16319 0.5961,0.24474 1.05235,0.24474zM200.09439,178.1278c0,-0.78315 0.07342,-1.34604 0.22026,-1.68866c0.14684,-0.35078 0.35486,-0.52618 0.62407,-0.52618c0.2124,0 0.37934,0.08973 0.5017,0.26921c0.12236,0.17131 0.2124,0.38749 0.26921,0.64855c0.05681,0.25289 0.08566,0.50986 0.08566,0.77091l-0.06119,-0.02447c0.13897,-0.44052 0.3505,-0.81986 0.63631,-1.13801c0.29368,-0.31815 0.64417,-0.47723 1.05235,-0.47723c0.4816,0 0.83646,0.19987 1.06459,0.5996c0.22813,0.39157 0.34263,0.88104 0.34263,1.4684c0,0.78315 -0.09003,1.32972 -0.26921,1.63971c-0.17918,0.31 -0.42041,0.465 -0.72196,0.465c-0.22026,0 -0.38371,-0.08973 -0.48946,-0.26921c-0.09789,-0.17947 -0.13024,-0.49762 -0.09789,-0.95446c0.03234,-0.48131 0.00437,-0.81578 -0.08566,-1.00341c-0.09003,-0.18763 -0.2325,-0.28145 -0.42829,-0.28145c-0.23686,0 -0.43265,0.15092 -0.58736,0.45276c-0.14684,0.29368 -0.22026,0.6567 -0.22026,1.08906c0,0.17131 0.0201,0.38749 0.06119,0.64855c0.04108,0.26106 0.08566,0.54657 0.1346,0.85657c0.04895,0.30183 0.09352,0.60368 0.1346,0.90551c0.04108,0.30183 0.06119,0.57924 0.06119,0.8321c0,0.44865 -0.06905,0.77091 -0.20802,0.9667c-0.13897,0.19579 -0.33476,0.29368 -0.58736,0.29368c-0.28581,0 -0.50607,-0.08976 -0.66079,-0.26921c-0.15471,-0.18766 -0.27358,-0.48946 -0.35486,-0.90551c-0.06555,-0.37523 -0.13024,-0.81986 -0.19579,-1.3338c-0.06555,-0.51394 -0.118,-1.04012 -0.15908,-1.57854c-0.04108,-0.53841 -0.06119,-1.0238 -0.06119,-1.45616zM210.83558,183.68326c-0.26921,0 -0.57075,-0.01635 -0.90551,-0.04895c-0.32602,-0.0326 -0.64417,-0.09379 -0.95446,-0.18355c-0.30155,-0.09789 -0.55502,-0.22839 -0.75868,-0.39157c-0.19579,-0.17131 -0.29368,-0.39157 -0.29368,-0.66079c0,-0.27734 0.08566,-0.48536 0.25697,-0.62407c0.17918,-0.13868 0.46936,-0.20802 0.8688,-0.20802c0.27707,0 0.58736,0.03671 0.92999,0.11013c0.3505,0.07342 0.68525,0.11013 1.00341,0.11013c0.47286,0 0.81986,-0.07342 1.04012,-0.22026c0.22813,-0.14684 0.34263,-0.34671 0.34263,-0.5996c0,-0.15499 -0.04458,-0.29368 -0.1346,-0.41605c-0.08129,-0.12236 -0.2491,-0.24474 -0.5017,-0.3671c-0.2526,-0.12236 -0.63194,-0.25697 -1.13801,-0.40381c-0.5795,-0.15499 -1.04799,-0.32631 -1.40722,-0.51394c-0.35924,-0.19579 -0.6197,-0.42829 -0.78315,-0.69749c-0.16345,-0.26921 -0.24474,-0.58736 -0.24474,-0.95446c0,-0.44868 0.07779,-0.83618 0.2325,-1.16249c0.16345,-0.33447 0.37934,-0.61592 0.64855,-0.84434c0.26921,-0.23658 0.57075,-0.4242 0.90551,-0.56289c0.33476,-0.13868 0.67301,-0.24065 1.01565,-0.30591c0.3505,-0.06527 0.68525,-0.09789 1.00341,-0.09789c0.70186,0 1.27261,0.11013 1.71314,0.33039c0.44839,0.22026 0.67301,0.51394 0.67301,0.88104c0,0.26106 -0.08566,0.47315 -0.25697,0.63631c-0.16345,0.16316 -0.41605,0.24474 -0.75868,0.24474c-0.14684,0 -0.32252,-0.02039 -0.52618,-0.06119c-0.20365,-0.04079 -0.42829,-0.08158 -0.67301,-0.12236c-0.24474,-0.04079 -0.51394,-0.06119 -0.80762,-0.06119c-0.49734,0 -0.88104,0.07751 -1.15025,0.2325c-0.26921,0.15499 -0.40381,0.40381 -0.40381,0.74644c0,0.14684 0.03671,0.28145 0.11013,0.40381c0.08129,0.12236 0.2491,0.24882 0.5017,0.37934c0.2526,0.13052 0.64068,0.28145 1.16249,0.45276c0.64417,0.19579 1.15025,0.41197 1.51735,0.64855c0.3671,0.22842 0.62844,0.48946 0.78315,0.78315c0.15471,0.29368 0.2325,0.62407 0.2325,0.99117c0,0.50578 -0.13897,0.95446 -0.41605,1.34604c-0.26921,0.38345 -0.64855,0.68115 -1.13801,0.89328c-0.4816,0.21214 -1.04449,0.31815 -1.68866,0.31815zM218.82877,183.74444c-0.90551,0 -1.62748,-0.1346 -2.1659,-0.40381c-0.53841,-0.26921 -0.92649,-0.65667 -1.16249,-1.16249c-0.23686,-0.50578 -0.35486,-1.10946 -0.35486,-1.81103c0,-0.88919 0.16257,-1.6438 0.48946,-2.26379c0.33389,-0.62816 0.79101,-1.10946 1.37051,-1.44393c0.58736,-0.33447 1.25164,-0.5017 1.99459,-0.5017c0.8723,0 1.51298,0.20394 1.92116,0.61184c0.40731,0.39973 0.61184,0.92591 0.61184,1.57854c0,0.52209 -0.13897,0.97485 -0.41605,1.35827c-0.26921,0.37526 -0.64505,0.66486 -1.12578,0.8688c-0.4816,0.20394 -1.03662,0.30591 -1.66419,0.30591c-0.35136,0 -0.68963,-0.04487 -1.01565,-0.1346c-0.3269,-0.08973 -0.62058,-0.21211 -0.88104,-0.3671l0.29368,-0.53841c-0.02447,0.19579 -0.03671,0.39157 -0.03671,0.58736c0,0.57104 0.17918,0.98302 0.53841,1.23591c0.35836,0.24474 0.8688,0.3671 1.52959,0.3671c0.51394,0 0.92562,-0.04484 1.23591,-0.1346c0.30941,-0.08973 0.57075,-0.1754 0.78315,-0.25697c0.21152,-0.08973 0.41955,-0.1346 0.62407,-0.1346c0.11363,0 0.21589,0.03263 0.30591,0.09789c0.09789,0.0571 0.17481,0.14276 0.2325,0.25697c0.06468,0.11424 0.09789,0.25286 0.09789,0.41605c0,0.24474 -0.12236,0.48134 -0.3671,0.70973c-0.24474,0.22026 -0.60834,0.40381 -1.08906,0.55065c-0.47374,0.13871 -1.05673,0.20802 -1.74985,0.20802zM218.11904,179.74304c0.57862,0 1.04361,-0.12236 1.39499,-0.3671c0.3505,-0.24474 0.52618,-0.54657 0.52618,-0.90551c0,-0.28552 -0.09789,-0.51802 -0.29368,-0.69749c-0.18792,-0.18763 -0.48597,-0.28145 -0.89328,-0.28145c-0.38371,0 -0.7307,0.07342 -1.04012,0.22026c-0.30242,0.13868 -0.53841,0.32223 -0.70973,0.55065c-0.17131,0.22842 -0.25697,0.47723 -0.25697,0.74644c0,0.23658 0.11013,0.42013 0.33039,0.55065c0.22813,0.12236 0.54191,0.18355 0.94223,0.18355zM225.44708,183.45076c-0.76654,0 -1.39061,-0.29368 -1.87221,-0.88104c-0.4816,-0.59549 -0.72196,-1.49696 -0.72196,-2.70431c0,-1.28893 0.2325,-2.23116 0.69749,-2.82668c0.465,-0.59552 1.07683,-0.89328 1.8355,-0.89328c0.44839,0 0.84434,0.11421 1.18696,0.34263c0.34263,0.22842 0.63631,0.55065 0.88104,0.9667l-0.09789,0.17131c-0.02447,-0.11421 -0.04458,-0.23658 -0.06119,-0.3671c-0.01661,-0.13052 -0.02447,-0.22842 -0.02447,-0.29368c0,-0.33447 0.05331,-0.59144 0.15908,-0.77091c0.1145,-0.18763 0.28931,-0.28145 0.52618,-0.28145c0.26134,0 0.465,0.10604 0.61184,0.31815c0.15471,0.21211 0.27358,0.51394 0.35486,0.90551c0.10576,0.39973 0.19579,0.9096 0.26921,1.52959c0.07342,0.61184 0.11013,1.23183 0.11013,1.85998c0,0.78315 -0.02884,1.43982 -0.08566,1.97011c-0.05681,0.53029 -0.15121,0.97081 -0.28145,1.32156c-0.13024,0.35075 -0.30155,0.65667 -0.51394,0.91775c-0.3505,0.42418 -0.80325,0.74644 -1.35827,0.9667c-0.54628,0.22839 -1.17909,0.34263 -1.89669,0.34263c-0.51394,0 -0.92562,-0.04895 -1.23591,-0.14684c-0.31029,-0.08976 -0.53405,-0.21615 -0.67301,-0.37934c-0.13024,-0.15497 -0.19579,-0.33039 -0.19579,-0.52618c0,-0.20391 0.05681,-0.37523 0.17131,-0.51394c0.1145,-0.1305 0.28581,-0.19579 0.51394,-0.19579c0.20365,0 0.44052,0.0326 0.70973,0.09789c0.27707,0.06529 0.60396,0.09789 0.97894,0.09789c0.79101,0 1.35041,-0.18766 1.67643,-0.56289c0.33476,-0.3671 0.5017,-0.89739 0.5017,-1.59077c0,-0.18766 -0.01224,-0.40792 -0.03671,-0.66079l0.17131,0.06119c-0.20365,0.52207 -0.50607,0.94223 -0.90551,1.26038c-0.39944,0.31003 -0.86444,0.465 -1.39499,0.465zM225.91207,181.94565c0.26134,0 0.52181,-0.06934 0.78315,-0.20802c0.26134,-0.13868 0.47723,-0.3671 0.64855,-0.68525c0.17131,-0.31815 0.25697,-0.74644 0.25697,-1.28485c0,-0.64447 -0.15121,-1.17064 -0.45276,-1.57854c-0.30155,-0.40789 -0.72634,-0.61184 -1.27261,-0.61184c-0.47286,0 -0.81986,0.17947 -1.04012,0.53841c-0.22026,0.35895 -0.33039,0.90143 -0.33039,1.62748c0,0.69341 0.11013,1.23591 0.33039,1.62748c0.22026,0.38342 0.5795,0.57512 1.07683,0.57512zM231.87047,174.261c0.32602,0 0.55851,0.08973 0.69749,0.26921c0.14684,0.17947 0.22026,0.38749 0.22026,0.62407c0,0.29368 -0.09003,0.52209 -0.26921,0.68525c-0.17131,0.15499 -0.41605,0.2325 -0.7342,0.2325c-0.31029,0 -0.54279,-0.08566 -0.69749,-0.25697c-0.15471,-0.17947 -0.2325,-0.38749 -0.2325,-0.62407c0,-0.31 0.09352,-0.5425 0.28145,-0.69749c0.18792,-0.15499 0.43265,-0.2325 0.7342,-0.2325zM231.94389,176.98979c0.26134,0 0.465,0.24474 0.61184,0.7342c0.15471,0.48946 0.2325,1.26853 0.2325,2.33721c0,1.31341 -0.09352,2.25968 -0.28145,2.83891c-0.18792,0.57924 -0.47286,0.8688 -0.85657,0.8688c-0.29368,0 -0.50957,-0.21214 -0.64855,-0.63631c-0.13897,-0.43239 -0.20802,-1.18285 -0.20802,-2.25155c0,-1.31341 0.10576,-2.28826 0.31815,-2.92457c0.22026,-0.64447 0.49734,-0.9667 0.8321,-0.9667zM236.35084,176.28006h-0.24474c-0.02447,-0.35895 -0.01574,-0.69749 0.02447,-1.01565c0.04108,-0.32631 0.12674,-0.58736 0.25697,-0.78315c0.13897,-0.20394 0.33476,-0.30591 0.58736,-0.30591c0.229,0 0.39595,0.07342 0.5017,0.22026c0.10664,0.14684 0.15908,0.35078 0.15908,0.61184c0,0.51394 -0.09789,0.95446 -0.29368,1.32156l-0.22026,-0.02447c0.44052,-0.15499 0.93873,-0.2325 1.49288,-0.2325c0.35136,0 0.62844,0.06934 0.8321,0.20802c0.2124,0.13052 0.31815,0.35486 0.31815,0.67301c0,0.30183 -0.12236,0.53026 -0.3671,0.68525c-0.24474,0.15499 -0.55065,0.2325 -0.91775,0.2325c-0.22026,0 -0.45625,-0.00815 -0.70973,-0.02447c-0.24474,-0.02447 -0.4851,-0.06119 -0.72196,-0.11013l0.20802,-0.25697c0.07342,0.31 0.14335,0.66486 0.20802,1.06459c0.07342,0.39157 0.13897,0.79947 0.19579,1.22367c0.05769,0.4242 0.10226,0.83618 0.1346,1.23591c0.03321,0.39973 0.04895,0.75868 0.04895,1.07683c0,0.52207 -0.08129,0.9341 -0.24474,1.23591c-0.16257,0.30181 -0.40381,0.45276 -0.72196,0.45276c-0.2526,0 -0.45276,-0.07753 -0.5996,-0.2325c-0.1381,-0.15497 -0.24036,-0.35075 -0.30591,-0.58736c-0.05681,-0.24474 -0.09352,-0.4976 -0.11013,-0.75868c-0.00786,-0.26108 -0.01224,-0.49762 -0.01224,-0.70973c0,-0.35895 0.01661,-0.76276 0.04895,-1.21144c0.03321,-0.45684 0.07779,-0.92591 0.1346,-1.40722c0.06555,-0.48131 0.13897,-0.94631 0.22026,-1.39499l0.24474,0.20802c-0.41605,0.21211 -0.92999,0.31815 -1.54182,0.31815c-0.37496,0 -0.66428,-0.06934 -0.8688,-0.20802c-0.20365,-0.13868 -0.30591,-0.35486 -0.30591,-0.64855c0,-0.31815 0.1145,-0.56289 0.34263,-0.7342c0.229,-0.17947 0.53491,-0.26921 0.91775,-0.26921c0.25347,0 0.48946,0.01632 0.70973,0.04895c0.229,0.02447 0.42829,0.0571 0.5996,0.09789zM241.83638,174.261c0.3269,0 0.55939,0.08973 0.69749,0.26921c0.14684,0.17947 0.22026,0.38749 0.22026,0.62407c0,0.29368 -0.08915,0.52209 -0.26921,0.68525c-0.17131,0.15499 -0.41605,0.2325 -0.7342,0.2325c-0.30941,0 -0.54191,-0.08566 -0.69749,-0.25697c-0.15471,-0.17947 -0.2325,-0.38749 -0.2325,-0.62407c0,-0.31 0.0944,-0.5425 0.28145,-0.69749c0.18792,-0.15499 0.43265,-0.2325 0.7342,-0.2325zM241.9098,176.98979c0.26134,0 0.465,0.24474 0.61184,0.7342c0.15558,0.48946 0.2325,1.26853 0.2325,2.33721c0,1.31341 -0.09352,2.25968 -0.28145,2.83891c-0.18705,0.57924 -0.47286,0.8688 -0.85657,0.8688c-0.29368,0 -0.50957,-0.21214 -0.64855,-0.63631c-0.1381,-0.43239 -0.20802,-1.18285 -0.20802,-2.25155c0,-1.31341 0.10664,-2.28826 0.31815,-2.92457c0.22026,-0.64447 0.49821,-0.9667 0.8321,-0.9667zM246.58684,183.45076c-0.76741,0 -1.39149,-0.29368 -1.87221,-0.88104c-0.4816,-0.59549 -0.72196,-1.49696 -0.72196,-2.70431c0,-1.28893 0.2325,-2.23116 0.69749,-2.82668c0.465,-0.59552 1.07683,-0.89328 1.8355,-0.89328c0.44839,0 0.84434,0.11421 1.18696,0.34263c0.34263,0.22842 0.63631,0.55065 0.88104,0.9667l-0.09789,0.17131c-0.02447,-0.11421 -0.04545,-0.23658 -0.06119,-0.3671c-0.01661,-0.13052 -0.02447,-0.22842 -0.02447,-0.29368c0,-0.33447 0.05244,-0.59144 0.15908,-0.77091c0.11363,-0.18763 0.28931,-0.28145 0.52618,-0.28145c0.26046,0 0.465,0.10604 0.61184,0.31815c0.15471,0.21211 0.2727,0.51394 0.35486,0.90551c0.10576,0.39973 0.19579,0.9096 0.26921,1.52959c0.07342,0.61184 0.11013,1.23183 0.11013,1.85998c0,0.78315 -0.02884,1.43982 -0.08566,1.97011c-0.05769,0.53029 -0.15121,0.97081 -0.28145,1.32156c-0.13111,0.35075 -0.30242,0.65667 -0.51394,0.91775c-0.35136,0.42418 -0.80413,0.74644 -1.35827,0.9667c-0.54715,0.22839 -1.17909,0.34263 -1.89669,0.34263c-0.51394,0 -0.92649,-0.04895 -1.23591,-0.14684c-0.31029,-0.08976 -0.53491,-0.21615 -0.67301,-0.37934c-0.13111,-0.15497 -0.19579,-0.33039 -0.19579,-0.52618c0,-0.20391 0.05681,-0.37523 0.17131,-0.51394c0.11363,-0.1305 0.28494,-0.19579 0.51394,-0.19579c0.20365,0 0.44052,0.0326 0.70973,0.09789c0.27707,0.06529 0.6031,0.09789 0.97894,0.09789c0.79101,0 1.34954,-0.18766 1.67643,-0.56289c0.33389,-0.3671 0.5017,-0.89739 0.5017,-1.59077c0,-0.18766 -0.01224,-0.40792 -0.03671,-0.66079l0.17131,0.06119c-0.20453,0.52207 -0.50607,0.94223 -0.90551,1.26038c-0.40031,0.31003 -0.86531,0.465 -1.39499,0.465zM247.05184,181.94565c0.26046,0 0.52181,-0.06934 0.78315,-0.20802c0.26046,-0.13868 0.47723,-0.3671 0.64855,-0.68525c0.17131,-0.31815 0.25697,-0.74644 0.25697,-1.28485c0,-0.64447 -0.15121,-1.17064 -0.45276,-1.57854c-0.30242,-0.40789 -0.72634,-0.61184 -1.27261,-0.61184c-0.47374,0 -0.81986,0.17947 -1.04012,0.53841c-0.22026,0.35895 -0.33039,0.90143 -0.33039,1.62748c0,0.69341 0.11013,1.23591 0.33039,1.62748c0.22026,0.38342 0.57862,0.57512 1.07683,0.57512zM257.28084,183.76892c-0.27795,0 -0.46936,-0.10602 -0.57512,-0.31815c-0.09789,-0.22026 -0.15558,-0.567 -0.17131,-1.04012l0.12236,0.06119c-0.45713,0.88917 -1.32156,1.3338 -2.59418,1.3338c-0.5795,0 -1.0611,-0.102 -1.44393,-0.30591c-0.38371,-0.21214 -0.66952,-0.48946 -0.85657,-0.8321c-0.18005,-0.35075 -0.26921,-0.7301 -0.26921,-1.13801c0,-0.70157 0.24474,-1.25629 0.7342,-1.66419c0.48946,-0.41605 1.13801,-0.62407 1.94564,-0.62407c0.52967,0 0.99117,0.07751 1.38275,0.2325c0.39157,0.15499 0.72546,0.37118 1.00341,0.64855l-0.20802,-0.02447c-0.05769,-0.82394 -0.23686,-1.41131 -0.53841,-1.76209c-0.29368,-0.35895 -0.7141,-0.53841 -1.26038,-0.53841c-0.31815,0 -0.61184,0.04895 -0.88104,0.14684c-0.26921,0.09789 -0.51831,0.19987 -0.74644,0.30591c-0.22026,0.09789 -0.42829,0.14684 -0.62407,0.14684c-0.19579,0 -0.35136,-0.06527 -0.465,-0.19579c-0.10664,-0.13052 -0.15908,-0.29776 -0.15908,-0.5017c0,-0.29368 0.1381,-0.57104 0.41605,-0.8321c0.28494,-0.26106 0.66079,-0.47315 1.12578,-0.63631c0.465,-0.16316 0.9702,-0.24474 1.51735,-0.24474c0.66079,0 1.22716,0.15908 1.7009,0.47723c0.47286,0.31815 0.8321,0.78315 1.07683,1.39499c0.21152,0.52209 0.36273,1.10538 0.45276,1.74985c0.08915,0.64447 0.1346,1.3338 0.1346,2.068c0,0.55476 -0.02884,0.98305 -0.08566,1.28485c-0.05769,0.30181 -0.14684,0.51394 -0.26921,0.63631c-0.1145,0.11424 -0.26921,0.17131 -0.465,0.17131zM254.57653,182.3984c0.26921,0 0.54191,-0.03671 0.81986,-0.11013c0.27707,-0.08155 0.50957,-0.1999 0.69749,-0.35486c0.18705,-0.15499 0.28145,-0.34671 0.28145,-0.57512c0,-0.19579 -0.08216,-0.35486 -0.24474,-0.47723c-0.15558,-0.13052 -0.3636,-0.22842 -0.62407,-0.29368c-0.25347,-0.06527 -0.52618,-0.09789 -0.81986,-0.09789c-0.49821,0 -0.87755,0.08566 -1.13801,0.25697c-0.25347,0.17131 -0.37934,0.39973 -0.37934,0.68525c0,0.31 0.118,0.55065 0.35486,0.72196c0.24474,0.16319 0.59523,0.24474 1.05235,0.24474zM264.82039,183.75668c-0.29368,0 -0.53405,-0.10602 -0.72196,-0.31815c-0.17918,-0.22026 -0.26921,-0.61184 -0.26921,-1.17472c0,-0.39973 0.02884,-0.81171 0.08566,-1.23591c0.05681,-0.4242 0.13024,-0.82802 0.22026,-1.21144c0.09003,-0.38342 0.18792,-0.70564 0.29368,-0.9667l0.07342,0.34263c-0.76654,-0.55473 -1.36264,-1.04828 -1.78656,-1.48064c-0.42391,-0.43237 -0.72196,-0.81171 -0.89328,-1.13801c-0.17131,-0.33447 -0.25697,-0.62407 -0.25697,-0.8688c0,-0.20394 0.04108,-0.37526 0.12236,-0.51394c0.09003,-0.13868 0.20365,-0.24474 0.34263,-0.31815c0.13897,-0.08158 0.29368,-0.12236 0.465,-0.12236c0.39157,0 0.78752,0.29776 1.18696,0.89328c0.40819,0.59552 0.8321,1.48064 1.27261,2.65536h0.04895c0.3671,-0.84025 0.73857,-1.52959 1.11354,-2.068c0.38371,-0.54657 0.75081,-0.95038 1.1013,-1.21144c0.3505,-0.26921 0.65641,-0.40381 0.91775,-0.40381c0.23686,0 0.42041,0.08158 0.55065,0.24474c0.13024,0.15499 0.19579,0.35895 0.19579,0.61184c0,0.3671 -0.14247,0.77091 -0.42829,1.21144c-0.28581,0.43237 -0.69312,0.8688 -1.22367,1.30933c-0.53055,0.44052 -1.16686,0.84434 -1.90892,1.21144l0.11013,-0.2325c0.10576,0.32631 0.20016,0.68117 0.28145,1.06459c0.09003,0.37526 0.15908,0.75052 0.20802,1.12578c0.04895,0.3671 0.07342,0.69749 0.07342,0.99117c0,0.52207 -0.11013,0.92186 -0.33039,1.1992c-0.2124,0.26921 -0.49384,0.40381 -0.84434,0.40381zM275.0022,183.76892c-0.27707,0 -0.46936,-0.10602 -0.57512,-0.31815c-0.09789,-0.22026 -0.15471,-0.567 -0.17131,-1.04012l0.12236,0.06119c-0.45713,0.88917 -1.32156,1.3338 -2.59418,1.3338c-0.5795,0 -1.06022,-0.102 -1.44393,-0.30591c-0.38371,-0.21214 -0.66865,-0.48946 -0.85657,-0.8321c-0.17918,-0.35075 -0.26921,-0.7301 -0.26921,-1.13801c0,-0.70157 0.24474,-1.25629 0.7342,-1.66419c0.48946,-0.41605 1.13801,-0.62407 1.94564,-0.62407c0.53055,0 0.99117,0.07751 1.38275,0.2325c0.39157,0.15499 0.72634,0.37118 1.00341,0.64855l-0.20802,-0.02447c-0.05681,-0.82394 -0.23686,-1.41131 -0.53841,-1.76209c-0.29368,-0.35895 -0.7141,-0.53841 -1.26038,-0.53841c-0.31815,0 -0.61184,0.04895 -0.88104,0.14684c-0.26921,0.09789 -0.51831,0.19987 -0.74644,0.30591c-0.22026,0.09789 -0.42829,0.14684 -0.62407,0.14684c-0.19579,0 -0.3505,-0.06527 -0.465,-0.19579c-0.10576,-0.13052 -0.15908,-0.29776 -0.15908,-0.5017c0,-0.29368 0.13897,-0.57104 0.41605,-0.8321c0.28581,-0.26106 0.66079,-0.47315 1.12578,-0.63631c0.465,-0.16316 0.97107,-0.24474 1.51735,-0.24474c0.66079,0 1.22804,0.15908 1.7009,0.47723c0.47286,0.31815 0.8321,0.78315 1.07683,1.39499c0.2124,0.52209 0.36273,1.10538 0.45276,1.74985c0.09003,0.64447 0.1346,1.3338 0.1346,2.068c0,0.55476 -0.02884,0.98305 -0.08566,1.28485c-0.05681,0.30181 -0.14684,0.51394 -0.26921,0.63631c-0.1145,0.11424 -0.26921,0.17131 -0.465,0.17131zM272.29789,182.3984c0.26921,0 0.54279,-0.03671 0.81986,-0.11013c0.27707,-0.08155 0.50957,-0.1999 0.69749,-0.35486c0.18792,-0.15499 0.28145,-0.34671 0.28145,-0.57512c0,-0.19579 -0.08129,-0.35486 -0.24474,-0.47723c-0.15471,-0.13052 -0.36273,-0.22842 -0.62407,-0.29368c-0.2526,-0.06527 -0.52618,-0.09789 -0.81986,-0.09789c-0.49734,0 -0.87667,0.08566 -1.13801,0.25697c-0.2526,0.17131 -0.37934,0.39973 -0.37934,0.68525c0,0.31 0.118,0.55065 0.35486,0.72196c0.24474,0.16319 0.59523,0.24474 1.05235,0.24474zM278.56308,176.03533c0.26046,0 0.43615,0.10604 0.52618,0.31815c0.09789,0.21211 0.14684,0.52618 0.14684,0.94223c0,0.09789 -0.00874,0.20394 -0.02447,0.31815c-0.00874,0.10604 -0.02447,0.20394 -0.04895,0.29368l-0.02447,-0.24474c0.19579,-0.53026 0.49734,-0.94223 0.90551,-1.23591c0.40731,-0.30183 0.83996,-0.45276 1.29709,-0.45276c0.5052,0 0.92562,0.14276 1.26038,0.42829c0.34263,0.28552 0.59523,0.68525 0.75868,1.1992c0.17131,0.51394 0.25697,1.12169 0.25697,1.82326c0,0.43237 -0.02098,0.86065 -0.06119,1.28485c-0.03321,0.41605 -0.08216,0.79947 -0.14684,1.15025c-0.05769,0.34263 -0.12236,0.62407 -0.19579,0.84434c-0.09789,0.27734 -0.22463,0.48536 -0.37934,0.62407c-0.15558,0.1305 -0.33914,0.19579 -0.55065,0.19579c-0.2124,0 -0.37584,-0.07753 -0.48946,-0.2325c-0.1145,-0.15497 -0.17131,-0.36299 -0.17131,-0.62407c0,-0.27734 0.0201,-0.61184 0.06119,-1.00341c0.04021,-0.39973 0.07691,-0.80354 0.11013,-1.21144c0.04021,-0.41605 0.06119,-0.7913 0.06119,-1.12578c0,-1.14209 -0.37584,-1.71314 -1.12578,-1.71314c-0.40031,0 -0.7342,0.17947 -1.00341,0.53841c-0.26921,0.35078 -0.44926,0.85249 -0.53841,1.50511c-0.02447,0.22026 -0.03671,0.49355 -0.03671,0.81986c0,0.32631 0,0.65263 0,0.97894c0.00786,0.31815 0,0.58736 -0.02447,0.80762c-0.03321,0.48946 -0.12674,0.84022 -0.28145,1.05235c-0.14684,0.21214 -0.35136,0.31815 -0.61184,0.31815c-0.30242,0 -0.53055,-0.13871 -0.68525,-0.41605c-0.15558,-0.28555 -0.2325,-0.76279 -0.2325,-1.43169c0,-0.34263 0.00786,-0.72605 0.02447,-1.15025c0.01574,-0.4242 0.03671,-0.84842 0.06119,-1.27261c0.03234,-0.43237 0.06905,-0.82394 0.11013,-1.17472c0.08129,-0.66079 0.19929,-1.18288 0.35486,-1.5663c0.15471,-0.39157 0.3872,-0.58736 0.69749,-0.58736zM287.44343,183.45076c-0.76741,0 -1.39149,-0.29368 -1.87221,-0.88104c-0.4816,-0.59549 -0.72196,-1.49696 -0.72196,-2.70431c0,-1.28893 0.2325,-2.23116 0.69749,-2.82668c0.465,-0.59552 1.07683,-0.89328 1.8355,-0.89328c0.44839,0 0.84434,0.11421 1.18696,0.34263c0.34263,0.22842 0.63631,0.55065 0.88104,0.9667l-0.09789,0.17131c-0.02447,-0.11421 -0.04545,-0.23658 -0.06119,-0.3671c-0.01661,-0.13052 -0.02447,-0.22842 -0.02447,-0.29368c0,-0.33447 0.05244,-0.59144 0.15908,-0.77091c0.11363,-0.18763 0.28931,-0.28145 0.52618,-0.28145c0.26046,0 0.465,0.10604 0.61184,0.31815c0.15471,0.21211 0.2727,0.51394 0.35486,0.90551c0.10576,0.39973 0.19579,0.9096 0.26921,1.52959c0.07342,0.61184 0.11013,1.23183 0.11013,1.85998c0,0.78315 -0.02884,1.43982 -0.08566,1.97011c-0.05769,0.53029 -0.15121,0.97081 -0.28145,1.32156c-0.13111,0.35075 -0.30242,0.65667 -0.51394,0.91775c-0.35136,0.42418 -0.80413,0.74644 -1.35827,0.9667c-0.54715,0.22839 -1.17909,0.34263 -1.89669,0.34263c-0.51394,0 -0.92649,-0.04895 -1.23591,-0.14684c-0.31029,-0.08976 -0.53491,-0.21615 -0.67301,-0.37934c-0.13111,-0.15497 -0.19579,-0.33039 -0.19579,-0.52618c0,-0.20391 0.05681,-0.37523 0.17131,-0.51394c0.11363,-0.1305 0.28494,-0.19579 0.51394,-0.19579c0.20365,0 0.44052,0.0326 0.70973,0.09789c0.27707,0.06529 0.6031,0.09789 0.97894,0.09789c0.79101,0 1.34954,-0.18766 1.67643,-0.56289c0.33389,-0.3671 0.5017,-0.89739 0.5017,-1.59077c0,-0.18766 -0.01224,-0.40792 -0.03671,-0.66079l0.17131,0.06119c-0.20453,0.52207 -0.50607,0.94223 -0.90551,1.26038c-0.40031,0.31003 -0.86531,0.465 -1.39499,0.465zM287.90842,181.94565c0.26046,0 0.52181,-0.06934 0.78315,-0.20802c0.26046,-0.13868 0.47723,-0.3671 0.64855,-0.68525c0.17131,-0.31815 0.25697,-0.74644 0.25697,-1.28485c0,-0.64447 -0.15121,-1.17064 -0.45276,-1.57854c-0.30242,-0.40789 -0.72634,-0.61184 -1.27261,-0.61184c-0.47374,0 -0.81986,0.17947 -1.04012,0.53841c-0.22026,0.35895 -0.33039,0.90143 -0.33039,1.62748c0,0.69341 0.11013,1.23591 0.33039,1.62748c0.22026,0.38342 0.57862,0.57512 1.07683,0.57512zM295.60618,183.7322c-0.23599,0 -0.41955,-0.08976 -0.55065,-0.26921c-0.13024,-0.17944 -0.19579,-0.50581 -0.19579,-0.97894c0,-0.3345 0.03671,-0.7342 0.11013,-1.1992c0.08216,-0.47315 0.19229,-0.97485 0.33039,-1.50511c0.13897,-0.53841 0.30242,-1.07274 0.48946,-1.60301c0.18792,-0.53841 0.39157,-1.04012 0.61184,-1.50511c0.24474,-0.53026 0.4816,-0.94223 0.70973,-1.23591c0.229,-0.30183 0.4615,-0.51394 0.69749,-0.63631c0.23686,-0.13052 0.48597,-0.19579 0.74644,-0.19579c0.39157,0 0.75081,0.15499 1.07683,0.465c0.33476,0.31 0.65291,0.82394 0.95446,1.54182c0.22026,0.54657 0.42041,1.14617 0.5996,1.7988c0.18005,0.65263 0.31815,1.31341 0.41605,1.98235c0.10664,0.66894 0.15908,1.30117 0.15908,1.89669c0,0.4976 -0.08566,0.8647 -0.25697,1.1013c-0.16257,0.22839 -0.39157,0.34263 -0.68525,0.34263c-0.28494,0 -0.5052,-0.12648 -0.66079,-0.37934c-0.15471,-0.25286 -0.26484,-0.67301 -0.33039,-1.26038c-0.03234,-0.35895 -0.04895,-0.73012 -0.04895,-1.11354c0,-0.39157 0.01661,-0.76276 0.04895,-1.11354l0.20802,0.94223c-0.28494,0.09789 -0.64417,0.16316 -1.07683,0.19579c-0.42391,0.02447 -0.8688,0.01632 -1.3338,-0.02447c-0.45625,-0.04895 -0.88454,-0.1346 -1.28485,-0.25697l0.64855,-0.8321c0.00874,0.39157 -0.01224,0.77499 -0.06119,1.15025c-0.04895,0.3671 -0.10576,0.70564 -0.17131,1.01565c-0.06468,0.35897 -0.14247,0.66489 -0.2325,0.91775c-0.08915,0.25286 -0.20802,0.44463 -0.35486,0.57512c-0.1381,0.12236 -0.32602,0.18355 -0.56289,0.18355zM298.4818,179.55949c0.47374,0 0.81636,-0.06934 1.02789,-0.20802c0.22026,-0.14684 0.33039,-0.35895 0.33039,-0.63631c0,-0.19579 -0.03671,-0.43644 -0.11013,-0.72196c-0.06468,-0.29368 -0.15908,-0.57921 -0.28145,-0.85657c-0.12236,-0.27737 -0.26484,-0.50986 -0.42829,-0.69749c-0.15471,-0.18763 -0.32602,-0.28145 -0.51394,-0.28145c-0.17918,0 -0.3505,0.09789 -0.51394,0.29368c-0.15471,0.18763 -0.29368,0.4242 -0.41605,0.70973c-0.12236,0.28552 -0.22026,0.57921 -0.29368,0.88104c-0.07342,0.29368 -0.11013,0.54657 -0.11013,0.75868c0,0.24474 0.10664,0.43237 0.31815,0.56289c0.22026,0.13052 0.55065,0.19579 0.99117,0.19579zM305.16392,183.81786c-0.79975,0 -1.42383,-0.29779 -1.87221,-0.89328c-0.44926,-0.6037 -0.67301,-1.52143 -0.67301,-2.75326c0,-1.22367 0.22026,-2.11695 0.66079,-2.67984c0.44839,-0.57104 1.08906,-0.85657 1.92116,-0.85657c0.47286,0 0.88454,0.09789 1.23591,0.29368c0.35836,0.19579 0.67651,0.47315 0.95446,0.8321l-0.09789,0.04895c-0.07342,-0.33447 -0.14684,-0.68933 -0.22026,-1.06459c-0.07342,-0.37526 -0.1346,-0.73012 -0.18355,-1.06459c-0.04108,-0.34263 -0.06119,-0.61184 -0.06119,-0.80762c0,-0.27737 0.04458,-0.48946 0.1346,-0.63631c0.08915,-0.15499 0.2325,-0.2325 0.42829,-0.2325c0.27707,0 0.5017,0.11829 0.67301,0.35486c0.17131,0.22842 0.31379,0.58328 0.42829,1.06459c0.10576,0.43237 0.19929,0.94631 0.28145,1.54182c0.08129,0.58736 0.14684,1.20328 0.19579,1.84774c0.05681,0.63631 0.08566,1.24814 0.08566,1.8355c0,0.81578 -0.04545,1.45206 -0.1346,1.90892c-0.08216,0.44865 -0.20016,0.76279 -0.35486,0.94223c-0.14684,0.17944 -0.32252,0.26921 -0.52618,0.26921c-0.25347,0 -0.42479,-0.12648 -0.51394,-0.37934c-0.09003,-0.25286 -0.12674,-0.66489 -0.11013,-1.23591h0.18355c-0.22026,0.50581 -0.54279,0.90962 -0.9667,1.21144c-0.41605,0.30181 -0.90551,0.45276 -1.4684,0.45276zM305.81246,182.30051c0.29368,0 0.56289,-0.07342 0.80762,-0.22026c0.2526,-0.15497 0.45276,-0.39157 0.5996,-0.70973c0.15471,-0.31815 0.2325,-0.72196 0.2325,-1.21144c0,-0.62816 -0.14335,-1.13801 -0.42829,-1.52959c-0.28581,-0.39973 -0.69749,-0.5996 -1.23591,-0.5996c-0.42479,0 -0.77091,0.1754 -1.04012,0.52618c-0.26134,0.35078 -0.39157,0.88104 -0.39157,1.59077c0,0.62816 0.13024,1.14617 0.39157,1.55406c0.26921,0.3997 0.62407,0.5996 1.06459,0.5996zM315.89463,183.76892c-0.27707,0 -0.46936,-0.10602 -0.57512,-0.31815c-0.09789,-0.22026 -0.15471,-0.567 -0.17131,-1.04012l0.12236,0.06119c-0.45713,0.88917 -1.32156,1.3338 -2.59418,1.3338c-0.5795,0 -1.06022,-0.102 -1.44393,-0.30591c-0.38371,-0.21214 -0.66865,-0.48946 -0.85657,-0.8321c-0.17918,-0.35075 -0.26921,-0.7301 -0.26921,-1.13801c0,-0.70157 0.24474,-1.25629 0.7342,-1.66419c0.48946,-0.41605 1.13801,-0.62407 1.94564,-0.62407c0.53055,0 0.99117,0.07751 1.38275,0.2325c0.39157,0.15499 0.72634,0.37118 1.00341,0.64855l-0.20802,-0.02447c-0.05681,-0.82394 -0.23686,-1.41131 -0.53841,-1.76209c-0.29368,-0.35895 -0.7141,-0.53841 -1.26038,-0.53841c-0.31815,0 -0.61184,0.04895 -0.88104,0.14684c-0.26921,0.09789 -0.51831,0.19987 -0.74644,0.30591c-0.22026,0.09789 -0.42829,0.14684 -0.62407,0.14684c-0.19579,0 -0.3505,-0.06527 -0.465,-0.19579c-0.10576,-0.13052 -0.15908,-0.29776 -0.15908,-0.5017c0,-0.29368 0.13897,-0.57104 0.41605,-0.8321c0.28581,-0.26106 0.66079,-0.47315 1.12578,-0.63631c0.465,-0.16316 0.97107,-0.24474 1.51735,-0.24474c0.66079,0 1.22804,0.15908 1.7009,0.47723c0.47286,0.31815 0.8321,0.78315 1.07683,1.39499c0.2124,0.52209 0.36273,1.10538 0.45276,1.74985c0.09003,0.64447 0.1346,1.3338 0.1346,2.068c0,0.55476 -0.02884,0.98305 -0.08566,1.28485c-0.05681,0.30181 -0.14684,0.51394 -0.26921,0.63631c-0.1145,0.11424 -0.26921,0.17131 -0.465,0.17131zM313.19032,182.3984c0.26921,0 0.54279,-0.03671 0.81986,-0.11013c0.27707,-0.08155 0.50957,-0.1999 0.69749,-0.35486c0.18792,-0.15499 0.28145,-0.34671 0.28145,-0.57512c0,-0.19579 -0.08129,-0.35486 -0.24474,-0.47723c-0.15471,-0.13052 -0.36273,-0.22842 -0.62407,-0.29368c-0.2526,-0.06527 -0.52618,-0.09789 -0.81986,-0.09789c-0.49734,0 -0.87667,0.08566 -1.13801,0.25697c-0.2526,0.17131 -0.37934,0.39973 -0.37934,0.68525c0,0.31 0.118,0.55065 0.35486,0.72196c0.24474,0.16319 0.59523,0.24474 1.05235,0.24474zM322.37046,183.92799c-0.51394,0 -0.91425,-0.0326 -1.1992,-0.09789c-0.27795,-0.06529 -0.46936,-0.15497 -0.57512,-0.26921c-0.10664,-0.12236 -0.16345,-0.25697 -0.17131,-0.40381c0,-0.22839 0.1346,-0.42015 0.40381,-0.57512c0.27707,-0.15497 0.78315,-0.25286 1.51735,-0.29368l-0.19579,0.2325c-0.09003,-0.41605 -0.15558,-0.90143 -0.19579,-1.45616c-0.04108,-0.55473 -0.05769,-1.12986 -0.04895,-1.72537c0.00786,-0.59552 0.03671,-1.16249 0.08566,-1.7009c0.04895,-0.54657 0.118,-1.01157 0.20802,-1.39499l1.06459,-0.07342c-0.18005,0.07342 -0.40381,0.13868 -0.67301,0.19579c-0.26921,0.04895 -0.54715,0.07342 -0.8321,0.07342c-0.52269,0 -0.90989,-0.0571 -1.16249,-0.17131c-0.24474,-0.11421 -0.3671,-0.27329 -0.3671,-0.47723c0,-0.35895 0.21589,-0.63631 0.64855,-0.8321c0.44052,-0.20394 1.11354,-0.30591 2.01905,-0.30591c1.07683,0 1.98235,0.17947 2.71655,0.53841c0.74206,0.35078 1.30496,0.84434 1.68866,1.48064c0.38284,0.62816 0.57512,1.36236 0.57512,2.2026c0,0.7342 -0.13111,1.41131 -0.39157,2.03129c-0.26134,0.61184 -0.63631,1.14614 -1.12578,1.60301c-0.4816,0.44865 -1.0611,0.79949 -1.73761,1.05235c-0.66952,0.24474 -1.41946,0.3671 -2.25155,0.3671zM324.10807,182.04354c0.27707,0 0.57075,-0.11013 0.88104,-0.33039c0.31815,-0.22842 0.58736,-0.55881 0.80762,-0.99117c0.22026,-0.44052 0.33039,-0.98302 0.33039,-1.62748c0,-0.47315 -0.06992,-0.88512 -0.20802,-1.23591c-0.13111,-0.35895 -0.30242,-0.6567 -0.51394,-0.89328c-0.2124,-0.23658 -0.43702,-0.41197 -0.67301,-0.52618c-0.23686,-0.12236 -0.4615,-0.18355 -0.67301,-0.18355c-0.17131,0 -0.30591,0.10604 -0.40381,0.31815c-0.09003,0.21211 -0.15558,0.53026 -0.19579,0.95446c-0.04108,0.41605 -0.06119,0.93407 -0.06119,1.55406c0,0.96262 0.04895,1.69682 0.14684,2.2026c0.09789,0.50578 0.28494,0.75868 0.56289,0.75868zM330.30159,174.261c0.3269,0 0.55939,0.08973 0.69749,0.26921c0.14684,0.17947 0.22026,0.38749 0.22026,0.62407c0,0.29368 -0.08915,0.52209 -0.26921,0.68525c-0.17131,0.15499 -0.41605,0.2325 -0.7342,0.2325c-0.30941,0 -0.54191,-0.08566 -0.69749,-0.25697c-0.15471,-0.17947 -0.2325,-0.38749 -0.2325,-0.62407c0,-0.31 0.0944,-0.5425 0.28145,-0.69749c0.18792,-0.15499 0.43265,-0.2325 0.7342,-0.2325zM330.37501,176.98979c0.26134,0 0.465,0.24474 0.61184,0.7342c0.15558,0.48946 0.2325,1.26853 0.2325,2.33721c0,1.31341 -0.09352,2.25968 -0.28145,2.83891c-0.18705,0.57924 -0.47286,0.8688 -0.85657,0.8688c-0.29368,0 -0.50957,-0.21214 -0.64855,-0.63631c-0.1381,-0.43239 -0.20802,-1.18285 -0.20802,-2.25155c0,-1.31341 0.10664,-2.28826 0.31815,-2.92457c0.22026,-0.64447 0.49821,-0.9667 0.8321,-0.9667zM337.63574,183.68326c-0.26921,0 -0.57075,-0.01635 -0.90551,-0.04895c-0.32602,-0.0326 -0.64417,-0.09379 -0.95446,-0.18355c-0.30155,-0.09789 -0.55502,-0.22839 -0.75868,-0.39157c-0.19579,-0.17131 -0.29368,-0.39157 -0.29368,-0.66079c0,-0.27734 0.08566,-0.48536 0.25697,-0.62407c0.17918,-0.13868 0.46936,-0.20802 0.8688,-0.20802c0.27707,0 0.58736,0.03671 0.92999,0.11013c0.3505,0.07342 0.68525,0.11013 1.00341,0.11013c0.47286,0 0.81986,-0.07342 1.04012,-0.22026c0.22813,-0.14684 0.34263,-0.34671 0.34263,-0.5996c0,-0.15499 -0.04458,-0.29368 -0.1346,-0.41605c-0.08129,-0.12236 -0.2491,-0.24474 -0.5017,-0.3671c-0.2526,-0.12236 -0.63194,-0.25697 -1.13801,-0.40381c-0.5795,-0.15499 -1.04799,-0.32631 -1.40722,-0.51394c-0.35924,-0.19579 -0.6197,-0.42829 -0.78315,-0.69749c-0.16345,-0.26921 -0.24474,-0.58736 -0.24474,-0.95446c0,-0.44868 0.07779,-0.83618 0.2325,-1.16249c0.16345,-0.33447 0.37934,-0.61592 0.64855,-0.84434c0.26921,-0.23658 0.57075,-0.4242 0.90551,-0.56289c0.33476,-0.13868 0.67301,-0.24065 1.01565,-0.30591c0.3505,-0.06527 0.68525,-0.09789 1.00341,-0.09789c0.70186,0 1.27261,0.11013 1.71314,0.33039c0.44839,0.22026 0.67301,0.51394 0.67301,0.88104c0,0.26106 -0.08566,0.47315 -0.25697,0.63631c-0.16345,0.16316 -0.41605,0.24474 -0.75868,0.24474c-0.14684,0 -0.32252,-0.02039 -0.52618,-0.06119c-0.20365,-0.04079 -0.42829,-0.08158 -0.67301,-0.12236c-0.24474,-0.04079 -0.51394,-0.06119 -0.80762,-0.06119c-0.49734,0 -0.88104,0.07751 -1.15025,0.2325c-0.26921,0.15499 -0.40381,0.40381 -0.40381,0.74644c0,0.14684 0.03671,0.28145 0.11013,0.40381c0.08129,0.12236 0.2491,0.24882 0.5017,0.37934c0.2526,0.13052 0.64068,0.28145 1.16249,0.45276c0.64417,0.19579 1.15025,0.41197 1.51735,0.64855c0.3671,0.22842 0.62844,0.48946 0.78315,0.78315c0.15471,0.29368 0.2325,0.62407 0.2325,0.99117c0,0.50578 -0.13897,0.95446 -0.41605,1.34604c-0.26921,0.38345 -0.64855,0.68115 -1.13801,0.89328c-0.4816,0.21214 -1.04449,0.31815 -1.68866,0.31815zM345.62893,183.74444c-0.90551,0 -1.62748,-0.1346 -2.1659,-0.40381c-0.53841,-0.26921 -0.92562,-0.65667 -1.16249,-1.16249c-0.23686,-0.50578 -0.35486,-1.10946 -0.35486,-1.81103c0,-0.88919 0.16345,-1.6438 0.48946,-2.26379c0.33476,-0.62816 0.79101,-1.10946 1.37051,-1.44393c0.58736,-0.33447 1.25251,-0.5017 1.99459,-0.5017c0.87318,0 1.51298,0.20394 1.92116,0.61184c0.40819,0.39973 0.61184,0.92591 0.61184,1.57854c0,0.52209 -0.13897,0.97485 -0.41605,1.35827c-0.26921,0.37526 -0.64417,0.66486 -1.12578,0.8688c-0.4816,0.20394 -1.03575,0.30591 -1.66419,0.30591c-0.3505,0 -0.68963,-0.04487 -1.01565,-0.1346c-0.32602,-0.08973 -0.6197,-0.21211 -0.88104,-0.3671l0.29368,-0.53841c-0.02447,0.19579 -0.03671,0.39157 -0.03671,0.58736c0,0.57104 0.17918,0.98302 0.53841,1.23591c0.35924,0.24474 0.8688,0.3671 1.52959,0.3671c0.51394,0 0.92562,-0.04484 1.23591,-0.1346c0.31029,-0.08973 0.57075,-0.1754 0.78315,-0.25697c0.2124,-0.08973 0.42041,-0.1346 0.62407,-0.1346c0.1145,0 0.21589,0.03263 0.30591,0.09789c0.09789,0.0571 0.17569,0.14276 0.2325,0.25697c0.06555,0.11424 0.09789,0.25286 0.09789,0.41605c0,0.24474 -0.12236,0.48134 -0.3671,0.70973c-0.24474,0.22026 -0.60746,0.40381 -1.08906,0.55065c-0.47286,0.13871 -1.05673,0.20802 -1.74985,0.20802zM344.91919,179.74304c0.5795,0 1.04449,-0.12236 1.39499,-0.3671c0.3505,-0.24474 0.52618,-0.54657 0.52618,-0.90551c0,-0.28552 -0.09789,-0.51802 -0.29368,-0.69749c-0.18792,-0.18763 -0.4851,-0.28145 -0.89328,-0.28145c-0.38371,0 -0.72984,0.07342 -1.04012,0.22026c-0.30155,0.13868 -0.53841,0.32223 -0.70973,0.55065c-0.17131,0.22842 -0.25697,0.47723 -0.25697,0.74644c0,0.23658 0.11013,0.42013 0.33039,0.55065c0.22813,0.12236 0.54279,0.18355 0.94223,0.18355zM350.74212,183.76892c-0.15471,0 -0.28145,-0.04484 -0.37934,-0.1346c-0.09789,-0.09789 -0.16694,-0.2366 -0.20802,-0.41605c-0.06468,-0.30181 -0.12236,-0.73831 -0.17131,-1.30933c-0.04895,-0.57104 -0.07342,-1.20328 -0.07342,-1.89669c0,-0.85657 0.02884,-1.68051 0.08566,-2.47181c0.06555,-0.7913 0.14684,-1.43984 0.24474,-1.94564c0.10664,-0.54657 0.23686,-0.94631 0.39157,-1.1992c0.15558,-0.26106 0.35924,-0.39157 0.61184,-0.39157c0.229,0 0.40381,0.10605 0.52618,0.31815c0.12236,0.20394 0.18355,0.55881 0.18355,1.06459c0,0.50578 -0.0201,1.04828 -0.06119,1.62748c-0.03234,0.57921 -0.08915,1.1992 -0.17131,1.85998h0.04895c0.53055,-0.71788 1.02439,-1.29301 1.48064,-1.72537c0.465,-0.43237 0.88979,-0.74644 1.27261,-0.94223c0.39157,-0.19579 0.73857,-0.29368 1.04012,-0.29368c0.23686,0 0.41255,0.07342 0.52618,0.22026c0.1145,0.14684 0.17131,0.32631 0.17131,0.53841c0,0.41605 -0.33389,0.88104 -1.00341,1.39499c-0.66079,0.51394 -1.61525,1.04012 -2.86339,1.57854l0.01224,-0.19579c0.77529,0.39973 1.44044,0.81986 1.99459,1.26038c0.56289,0.43237 0.99117,0.84434 1.28485,1.23591c0.30242,0.38345 0.45276,0.70562 0.45276,0.9667c0,0.21214 -0.06905,0.38746 -0.20802,0.52618c-0.13024,0.1305 -0.32165,0.19579 -0.57512,0.19579c-0.31815,0 -0.67301,-0.11826 -1.06459,-0.35486c-0.38284,-0.24474 -0.78315,-0.60773 -1.1992,-1.08906c-0.41605,-0.48131 -0.8321,-1.08498 -1.24814,-1.81103h-0.04895c-0.00786,0.51394 -0.04021,1.01565 -0.09789,1.50511c-0.04895,0.48134 -0.11363,0.87694 -0.19579,1.18696c-0.05681,0.21214 -0.14684,0.38345 -0.26921,0.51394c-0.11363,0.12236 -0.27707,0.18355 -0.48946,0.18355zM358.32449,174.261c0.32602,0 0.55851,0.08973 0.69749,0.26921c0.14684,0.17947 0.22026,0.38749 0.22026,0.62407c0,0.29368 -0.09003,0.52209 -0.26921,0.68525c-0.17131,0.15499 -0.41605,0.2325 -0.7342,0.2325c-0.31029,0 -0.54279,-0.08566 -0.69749,-0.25697c-0.15558,-0.17947 -0.2325,-0.38749 -0.2325,-0.62407c0,-0.31 0.09352,-0.5425 0.28145,-0.69749c0.18705,-0.15499 0.43178,-0.2325 0.7342,-0.2325zM358.39792,176.98979c0.26046,0 0.465,0.24474 0.61184,0.7342c0.15471,0.48946 0.2325,1.26853 0.2325,2.33721c0,1.31341 -0.0944,2.25968 -0.28145,2.83891c-0.18792,0.57924 -0.47374,0.8688 -0.85657,0.8688c-0.29368,0 -0.51045,-0.21214 -0.64855,-0.63631c-0.13897,-0.43239 -0.20802,-1.18285 -0.20802,-2.25155c0,-1.31341 0.10576,-2.28826 0.31815,-2.92457c0.22026,-0.64447 0.49734,-0.9667 0.8321,-0.9667zM362.80488,176.28006h-0.24474c-0.02447,-0.35895 -0.01661,-0.69749 0.02447,-1.01565c0.04108,-0.32631 0.12674,-0.58736 0.25697,-0.78315c0.13897,-0.20394 0.33476,-0.30591 0.58736,-0.30591c0.22813,0 0.39595,0.07342 0.5017,0.22026c0.10576,0.14684 0.15908,0.35078 0.15908,0.61184c0,0.51394 -0.09789,0.95446 -0.29368,1.32156l-0.22026,-0.02447c0.44052,-0.15499 0.93785,-0.2325 1.49288,-0.2325c0.3505,0 0.62844,0.06934 0.8321,0.20802c0.2124,0.13052 0.31815,0.35486 0.31815,0.67301c0,0.30183 -0.12236,0.53026 -0.3671,0.68525c-0.24474,0.15499 -0.55065,0.2325 -0.91775,0.2325c-0.22026,0 -0.45713,-0.00815 -0.70973,-0.02447c-0.24474,-0.02447 -0.4851,-0.06119 -0.72196,-0.11013l0.20802,-0.25697c0.07342,0.31 0.14247,0.66486 0.20802,1.06459c0.07342,0.39157 0.13897,0.79947 0.19579,1.22367c0.05681,0.4242 0.10226,0.83618 0.1346,1.23591c0.03234,0.39973 0.04895,0.75868 0.04895,1.07683c0,0.52207 -0.08129,0.9341 -0.24474,1.23591c-0.16345,0.30181 -0.40381,0.45276 -0.72196,0.45276c-0.2526,0 -0.45276,-0.07753 -0.5996,-0.2325c-0.13897,-0.15497 -0.24036,-0.35075 -0.30591,-0.58736c-0.05681,-0.24474 -0.09352,-0.4976 -0.11013,-0.75868c-0.00786,-0.26108 -0.01224,-0.49762 -0.01224,-0.70973c0,-0.35895 0.01661,-0.76276 0.04895,-1.21144c0.03234,-0.45684 0.07779,-0.92591 0.1346,-1.40722c0.06555,-0.48131 0.13897,-0.94631 0.22026,-1.39499l0.24474,0.20802c-0.41605,0.21211 -0.92999,0.31815 -1.54182,0.31815c-0.37496,0 -0.66515,-0.06934 -0.8688,-0.20802c-0.20365,-0.13868 -0.30591,-0.35486 -0.30591,-0.64855c0,-0.31815 0.1145,-0.56289 0.34263,-0.7342c0.22813,-0.17947 0.53405,-0.26921 0.91775,-0.26921c0.2526,0 0.48946,0.01632 0.70973,0.04895c0.22813,0.02447 0.42829,0.0571 0.5996,0.09789zM372.56102,183.76892c-0.27707,0 -0.46936,-0.10602 -0.57512,-0.31815c-0.09789,-0.22026 -0.15471,-0.567 -0.17131,-1.04012l0.12236,0.06119c-0.45713,0.88917 -1.32156,1.3338 -2.59418,1.3338c-0.5795,0 -1.06022,-0.102 -1.44393,-0.30591c-0.38371,-0.21214 -0.66865,-0.48946 -0.85657,-0.8321c-0.17918,-0.35075 -0.26921,-0.7301 -0.26921,-1.13801c0,-0.70157 0.24474,-1.25629 0.7342,-1.66419c0.48946,-0.41605 1.13801,-0.62407 1.94564,-0.62407c0.53055,0 0.99117,0.07751 1.38275,0.2325c0.39157,0.15499 0.72634,0.37118 1.00341,0.64855l-0.20802,-0.02447c-0.05681,-0.82394 -0.23686,-1.41131 -0.53841,-1.76209c-0.29368,-0.35895 -0.7141,-0.53841 -1.26038,-0.53841c-0.31815,0 -0.61184,0.04895 -0.88104,0.14684c-0.26921,0.09789 -0.51831,0.19987 -0.74644,0.30591c-0.22026,0.09789 -0.42829,0.14684 -0.62407,0.14684c-0.19579,0 -0.3505,-0.06527 -0.465,-0.19579c-0.10576,-0.13052 -0.15908,-0.29776 -0.15908,-0.5017c0,-0.29368 0.13897,-0.57104 0.41605,-0.8321c0.28581,-0.26106 0.66079,-0.47315 1.12578,-0.63631c0.465,-0.16316 0.97107,-0.24474 1.51735,-0.24474c0.66079,0 1.22804,0.15908 1.7009,0.47723c0.47286,0.31815 0.8321,0.78315 1.07683,1.39499c0.2124,0.52209 0.36273,1.10538 0.45276,1.74985c0.09003,0.64447 0.1346,1.3338 0.1346,2.068c0,0.55476 -0.02884,0.98305 -0.08566,1.28485c-0.05681,0.30181 -0.14684,0.51394 -0.26921,0.63631c-0.1145,0.11424 -0.26921,0.17131 -0.465,0.17131zM369.85672,182.3984c0.26921,0 0.54279,-0.03671 0.81986,-0.11013c0.27707,-0.08155 0.50957,-0.1999 0.69749,-0.35486c0.18792,-0.15499 0.28145,-0.34671 0.28145,-0.57512c0,-0.19579 -0.08129,-0.35486 -0.24474,-0.47723c-0.15471,-0.13052 -0.36273,-0.22842 -0.62407,-0.29368c-0.2526,-0.06527 -0.52618,-0.09789 -0.81986,-0.09789c-0.49734,0 -0.87667,0.08566 -1.13801,0.25697c-0.2526,0.17131 -0.37934,0.39973 -0.37934,0.68525c0,0.31 0.118,0.55065 0.35486,0.72196c0.24474,0.16319 0.59523,0.24474 1.05235,0.24474zM374.87376,178.1278c0,-0.78315 0.07342,-1.34604 0.22026,-1.68866c0.14684,-0.35078 0.35486,-0.52618 0.62407,-0.52618c0.21152,0 0.37934,0.08973 0.5017,0.26921c0.12236,0.17131 0.21152,0.38749 0.26921,0.64855c0.05681,0.25289 0.08566,0.50986 0.08566,0.77091l-0.06119,-0.02447c0.1381,-0.44052 0.3505,-0.81986 0.63631,-1.13801c0.29368,-0.31815 0.64417,-0.47723 1.05235,-0.47723c0.48073,0 0.83559,0.19987 1.06459,0.5996c0.22813,0.39157 0.34263,0.88104 0.34263,1.4684c0,0.78315 -0.09003,1.32972 -0.26921,1.63971c-0.18005,0.31 -0.42041,0.465 -0.72196,0.465c-0.22026,0 -0.38371,-0.08973 -0.48946,-0.26921c-0.09789,-0.17947 -0.13111,-0.49762 -0.09789,-0.95446c0.03234,-0.48131 0.0035,-0.81578 -0.08566,-1.00341c-0.09003,-0.18763 -0.2325,-0.28145 -0.42829,-0.28145c-0.23686,0 -0.43265,0.15092 -0.58736,0.45276c-0.14684,0.29368 -0.22026,0.6567 -0.22026,1.08906c0,0.17131 0.0201,0.38749 0.06119,0.64855c0.04021,0.26106 0.08566,0.54657 0.1346,0.85657c0.04895,0.30183 0.09352,0.60368 0.1346,0.90551c0.04021,0.30183 0.06119,0.57924 0.06119,0.8321c0,0.44865 -0.06992,0.77091 -0.20802,0.9667c-0.13897,0.19579 -0.33476,0.29368 -0.58736,0.29368c-0.28581,0 -0.50607,-0.08976 -0.66079,-0.26921c-0.15558,-0.18766 -0.27358,-0.48946 -0.35486,-0.90551c-0.06555,-0.37523 -0.13111,-0.81986 -0.19579,-1.3338c-0.06555,-0.51394 -0.11887,-1.04012 -0.15908,-1.57854c-0.04108,-0.53841 -0.06119,-1.0238 -0.06119,-1.45616zM384.01194,183.76892c-0.14684,0 -0.26571,-0.04895 -0.35486,-0.14684c-0.09003,-0.10602 -0.16345,-0.27331 -0.22026,-0.5017c-0.05769,-0.26108 -0.11013,-0.66891 -0.15908,-1.22367c-0.04895,-0.56289 -0.07342,-1.19104 -0.07342,-1.88445c0,-0.75052 0.0201,-1.48064 0.06119,-2.19037c0.04895,-0.71788 0.118,-1.35012 0.20802,-1.89669c0.06468,-0.35895 0.15908,-0.62407 0.28145,-0.79539c0.13024,-0.17947 0.30941,-0.26921 0.53841,-0.26921c0.14684,0 0.27707,0.04895 0.39157,0.14684c0.11363,0.09789 0.19929,0.27329 0.25697,0.52618c0.06468,0.25289 0.09789,0.61184 0.09789,1.07683c0,0.22842 -0.00874,0.48946 -0.02447,0.78315c-0.01661,0.28552 -0.04108,0.60368 -0.07342,0.95446h0.04895c0.65204,-0.89736 1.22716,-1.61117 1.72537,-2.14142c0.49734,-0.53841 0.93349,-0.92591 1.30933,-1.16249c0.38284,-0.23658 0.7176,-0.35486 1.00341,-0.35486c0.22813,0 0.39944,0.07342 0.51394,0.22026c0.12236,0.14684 0.18355,0.32631 0.18355,0.53841c0,0.44868 -0.33914,0.98709 -1.01565,1.61525c-0.66952,0.62816 -1.74985,1.38275 -3.24272,2.26379l0.09789,-0.2325c1.28835,0.81578 2.26379,1.53774 2.92457,2.1659c0.66079,0.61999 0.99117,1.17061 0.99117,1.65195c0,0.21214 -0.06992,0.38746 -0.20802,0.52618c-0.13111,0.1305 -0.3269,0.19579 -0.58736,0.19579c-0.3269,0 -0.67301,-0.11013 -1.04012,-0.33039c-0.3671,-0.22839 -0.77529,-0.60773 -1.22367,-1.13801c-0.44052,-0.53841 -0.94223,-1.26853 -1.50511,-2.19037h-0.04895c0.01574,0.18763 0.02797,0.38342 0.03671,0.58736c0.00786,0.19579 0.01224,0.39157 0.01224,0.58736c0,0.93811 -0.06555,1.61114 -0.19579,2.01905c-0.13111,0.3997 -0.3671,0.5996 -0.70973,0.5996zM391.84343,174.261c0.3269,0 0.55939,0.08973 0.69749,0.26921c0.14684,0.17947 0.22026,0.38749 0.22026,0.62407c0,0.29368 -0.08915,0.52209 -0.26921,0.68525c-0.17131,0.15499 -0.41605,0.2325 -0.7342,0.2325c-0.30941,0 -0.54191,-0.08566 -0.69749,-0.25697c-0.15471,-0.17947 -0.2325,-0.38749 -0.2325,-0.62407c0,-0.31 0.0944,-0.5425 0.28145,-0.69749c0.18792,-0.15499 0.43265,-0.2325 0.7342,-0.2325zM391.91686,176.98979c0.26134,0 0.465,0.24474 0.61184,0.7342c0.15558,0.48946 0.2325,1.26853 0.2325,2.33721c0,1.31341 -0.09352,2.25968 -0.28145,2.83891c-0.18705,0.57924 -0.47286,0.8688 -0.85657,0.8688c-0.29368,0 -0.50957,-0.21214 -0.64855,-0.63631c-0.1381,-0.43239 -0.20802,-1.18285 -0.20802,-2.25155c0,-1.31341 0.10664,-2.28826 0.31815,-2.92457c0.22026,-0.64447 0.49821,-0.9667 0.8321,-0.9667zM396.32469,176.28006h-0.24474c-0.02447,-0.35895 -0.01661,-0.69749 0.02447,-1.01565c0.04021,-0.32631 0.12586,-0.58736 0.25697,-0.78315c0.1381,-0.20394 0.33389,-0.30591 0.58736,-0.30591c0.22813,0 0.39507,0.07342 0.5017,0.22026c0.10576,0.14684 0.15908,0.35078 0.15908,0.61184c0,0.51394 -0.09789,0.95446 -0.29368,1.32156l-0.22026,-0.02447c0.44052,-0.15499 0.93785,-0.2325 1.49288,-0.2325c0.3505,0 0.62756,0.06934 0.8321,0.20802c0.21152,0.13052 0.31815,0.35486 0.31815,0.67301c0,0.30183 -0.12236,0.53026 -0.3671,0.68525c-0.24474,0.15499 -0.55065,0.2325 -0.91775,0.2325c-0.22026,0 -0.45713,-0.00815 -0.70973,-0.02447c-0.24474,-0.02447 -0.48597,-0.06119 -0.72196,-0.11013l0.20802,-0.25697c0.07342,0.31 0.14247,0.66486 0.20802,1.06459c0.07342,0.39157 0.1381,0.79947 0.19579,1.22367c0.05681,0.4242 0.10139,0.83618 0.1346,1.23591c0.03234,0.39973 0.04895,0.75868 0.04895,1.07683c0,0.52207 -0.08216,0.9341 -0.24474,1.23591c-0.16345,0.30181 -0.40381,0.45276 -0.72196,0.45276c-0.25347,0 -0.45276,-0.07753 -0.5996,-0.2325c-0.13897,-0.15497 -0.24124,-0.35075 -0.30591,-0.58736c-0.05769,-0.24474 -0.0944,-0.4976 -0.11013,-0.75868c-0.00874,-0.26108 -0.01224,-0.49762 -0.01224,-0.70973c0,-0.35895 0.01574,-0.76276 0.04895,-1.21144c0.03234,-0.45684 0.07691,-0.92591 0.1346,-1.40722c0.06468,-0.48131 0.1381,-0.94631 0.22026,-1.39499l0.24474,0.20802c-0.41605,0.21211 -0.92999,0.31815 -1.54182,0.31815c-0.37584,0 -0.66515,-0.06934 -0.8688,-0.20802c-0.20453,-0.13868 -0.30591,-0.35486 -0.30591,-0.64855c0,-0.31815 0.11363,-0.56289 0.34263,-0.7342c0.22813,-0.17947 0.53405,-0.26921 0.91775,-0.26921c0.2526,0 0.48946,0.01632 0.70973,0.04895c0.22813,0.02447 0.42829,0.0571 0.5996,0.09789zM406.08083,183.76892c-0.27795,0 -0.46936,-0.10602 -0.57512,-0.31815c-0.09789,-0.22026 -0.15558,-0.567 -0.17131,-1.04012l0.12236,0.06119c-0.45713,0.88917 -1.32156,1.3338 -2.59418,1.3338c-0.5795,0 -1.0611,-0.102 -1.44393,-0.30591c-0.38371,-0.21214 -0.66952,-0.48946 -0.85657,-0.8321c-0.18005,-0.35075 -0.26921,-0.7301 -0.26921,-1.13801c0,-0.70157 0.24474,-1.25629 0.7342,-1.66419c0.48946,-0.41605 1.13801,-0.62407 1.94564,-0.62407c0.52967,0 0.99117,0.07751 1.38275,0.2325c0.39157,0.15499 0.72546,0.37118 1.00341,0.64855l-0.20802,-0.02447c-0.05769,-0.82394 -0.23686,-1.41131 -0.53841,-1.76209c-0.29368,-0.35895 -0.7141,-0.53841 -1.26038,-0.53841c-0.31815,0 -0.61184,0.04895 -0.88104,0.14684c-0.26921,0.09789 -0.51831,0.19987 -0.74644,0.30591c-0.22026,0.09789 -0.42829,0.14684 -0.62407,0.14684c-0.19579,0 -0.35136,-0.06527 -0.465,-0.19579c-0.10664,-0.13052 -0.15908,-0.29776 -0.15908,-0.5017c0,-0.29368 0.1381,-0.57104 0.41605,-0.8321c0.28494,-0.26106 0.66079,-0.47315 1.12578,-0.63631c0.465,-0.16316 0.9702,-0.24474 1.51735,-0.24474c0.66079,0 1.22716,0.15908 1.7009,0.47723c0.47286,0.31815 0.8321,0.78315 1.07683,1.39499c0.21152,0.52209 0.36273,1.10538 0.45276,1.74985c0.08915,0.64447 0.1346,1.3338 0.1346,2.068c0,0.55476 -0.02884,0.98305 -0.08566,1.28485c-0.05769,0.30181 -0.14684,0.51394 -0.26921,0.63631c-0.1145,0.11424 -0.26921,0.17131 -0.465,0.17131zM403.37652,182.3984c0.26921,0 0.54191,-0.03671 0.81986,-0.11013c0.27707,-0.08155 0.50957,-0.1999 0.69749,-0.35486c0.18705,-0.15499 0.28145,-0.34671 0.28145,-0.57512c0,-0.19579 -0.08216,-0.35486 -0.24474,-0.47723c-0.15558,-0.13052 -0.3636,-0.22842 -0.62407,-0.29368c-0.25347,-0.06527 -0.52618,-0.09789 -0.81986,-0.09789c-0.49821,0 -0.87755,0.08566 -1.13801,0.25697c-0.25347,0.17131 -0.37934,0.39973 -0.37934,0.68525c0,0.31 0.118,0.55065 0.35486,0.72196c0.24474,0.16319 0.59523,0.24474 1.05235,0.24474z"/></g></g></svg>