<svg version="1.1" xmlns="http://www.w3.org/2000/svg" xmlns:xlink="http://www.w3.org/1999/xlink" width="44.69166" height="19.31343" viewBox="0,0,44.69166,19.31343"><g transform="translate(-217.86159,-169.81998)"><g data-paper-data="{&quot;isPaintingLayer&quot;:true}" fill-rule="nonzero" stroke-linecap="butt" stroke-linejoin="miter" stroke-miterlimit="10" stroke-dasharray="" stroke-dashoffset="0" style="mix-blend-mode: normal"><g><path d="" fill="#ececec" stroke="none" stroke-width="1"/><path d="" fill="none" stroke="#dcd6d6" stroke-width="1.5"/><path d="" fill="none" stroke="#dcd6d6" stroke-width="1.5"/><path d="" fill="none" stroke="#dcd6d6" stroke-width="1.5"/><path d="" fill="none" stroke="#dcd6d6" stroke-width="1.5"/><path d="" fill="none" stroke="#dcd6d6" stroke-width="1.5"/><path d="" fill="none" stroke="#dcd6d6" stroke-width="1.5"/><path d="" fill="none" stroke="#dcd6d6" stroke-width="1.5"/><path d="" fill="none" stroke="#dcd6d6" stroke-width="1.5"/><path d="" fill="none" stroke="#dcd6d6" stroke-width="1.5"/><path d="" fill="none" stroke="#dcd6d6" stroke-width="1.5"/><path d="" fill="none" stroke="#dcd6d6" stroke-width="1.5"/><path d="" fill="none" stroke="#dcd6d6" stroke-width="1.5"/><path d="" fill="none" stroke="#dcd6d6" stroke-width="1.5"/><path d="" fill="none" stroke="#dcd6d6" stroke-width="1.5"/><path d="" fill="none" stroke="#dcd6d6" stroke-width="1.5"/><path d="" fill="none" stroke="#dcd6d6" stroke-width="1.5"/><path d="" fill="none" stroke="#dcd6d6" stroke-width="1.5"/><path d="" fill="none" stroke="#dcd6d6" stroke-width="1.5"/><path d="" fill="none" stroke="#dcd6d6" stroke-width="1.5"/><path d="" fill="none" stroke="#dcd6d6" stroke-width="1.5"/><path d="" fill="none" stroke="#dcd6d6" stroke-width="1.5"/><path d="" fill="none" stroke="#dcd6d6" stroke-width="1.5"/><path d="" fill="none" stroke="#dcd6d6" stroke-width="1.5"/><path d="" fill="none" stroke="#dcd6d6" stroke-width="1.5"/><path d="" fill="none" stroke="#dcd6d6" stroke-width="1.5"/><path d="" fill="none" stroke="#dcd6d6" stroke-width="1.5"/><path d="" fill="none" stroke="#dcd6d6" stroke-width="1.5"/><path d="" fill="none" stroke="#dcd6d6" stroke-width="1.5"/><path d="" fill="none" stroke="#dcd6d6" stroke-width="1.5"/><path d="" fill="none" stroke="#dcd6d6" stroke-width="1.5"/><path d="" fill="none" stroke="#dcd6d6" stroke-width="1.5"/><path d="" fill="none" stroke="#dcd6d6" stroke-width="1.5"/><path d="" fill="none" stroke="#dcd6d6" stroke-width="1.5"/><path d="" fill="none" stroke="#dcd6d6" stroke-width="1.5"/><path d="" fill="none" stroke="#dcd6d6" stroke-width="1.5"/><path d="" fill="none" stroke="#dcd6d6" stroke-width="1.5"/><path d="" fill="none" stroke="#dcd6d6" stroke-width="1.5"/><path d="" fill="none" stroke="#dcd6d6" stroke-width="1.5"/><path d="" fill="none" stroke="#dcd6d6" stroke-width="1.5"/><path d="" fill="none" stroke="#dcd6d6" stroke-width="1.5"/><g><path d="" fill="#ebebeb" stroke="none" stroke-width="1"/><path d="" fill="none" stroke="#000000" stroke-width="0.5"/></g><path d="" fill="#737373" stroke="none" stroke-width="1"/><path d="" fill="#737373" stroke="none" stroke-width="1"/><path d="" fill="#737373" stroke="none" stroke-width="1"/><path d="" fill="#737373" stroke="none" stroke-width="1"/></g><path d="" fill="#000000" stroke="none" stroke-width="1"/><path d="" fill="#000000" stroke="none" stroke-width="1"/><path d="" fill="#a5a7a9" stroke="#000000" stroke-width="1"/><path d="" fill="#000000" stroke="none" stroke-width="1"/><path d="M221.2961,170.31998h37.82263c1.6205,0 2.93451,1.23005 2.93451,2.74701v12.8194c0,1.51696 -1.31401,2.74701 -2.93451,2.74701h-37.82263c-1.6205,0 -2.93451,-1.23005 -2.93451,-2.74701v-12.8194c0,-1.51696 1.31401,-2.74701 2.93451,-2.74701z" fill="#a5a7a9" stroke="#000000" stroke-width="1"/><path d="M231.70254,177.4494c0.14803,0 0.29867,0.07814 0.45192,0.23502c0.15781,0.152 0.32279,0.38031 0.49495,0.68492c0.17216,0.30461 0.35866,0.68249 0.55951,1.13483c0.20541,0.45234 0.43039,0.9761 0.67429,1.57129h0.02869c-0.03325,-0.21487 -0.06456,-0.4499 -0.09325,-0.70507c-0.02869,-0.25517 -0.05478,-0.51277 -0.07891,-0.77222c-0.02413,-0.25944 -0.04304,-0.50118 -0.05739,-0.72521c-0.00978,-0.2283 -0.01435,-0.42304 -0.01435,-0.5842c0,-0.37176 0.03586,-0.63364 0.1076,-0.78565c0.0763,-0.15688 0.19368,-0.23502 0.35149,-0.23502c0.11021,0 0.19824,0.02686 0.26541,0.08058c0.06717,0.05372 0.12455,0.13185 0.17216,0.23502c0.11021,0.2509 0.18912,0.59518 0.23672,1.0341c0.0476,0.43891 0.07174,0.94009 0.07174,1.50415c0,0.43403 -0.01891,0.80335 -0.05739,1.10796c-0.03847,0.30461 -0.1102,0.53475 -0.2152,0.69164c-0.10499,0.15688 -0.25823,0.23502 -0.45909,0.23502c-0.13369,0 -0.26997,-0.04945 -0.40888,-0.14773c-0.1389,-0.10317 -0.27976,-0.25272 -0.42322,-0.4499c-0.1389,-0.20145 -0.28432,-0.45234 -0.43757,-0.75207c-0.14803,-0.29973 -0.30584,-0.64891 -0.47344,-1.04753c-0.16238,-0.40289 -0.33454,-0.8528 -0.51648,-1.3497h-0.02869c0.03325,0.23258 0.06195,0.50789 0.08608,0.82594c0.02413,0.31804 0.04304,0.64219 0.05739,0.97367c0.01435,0.33147 0.02152,0.63547 0.02152,0.91323c0,0.41632 -0.04564,0.71178 -0.1363,0.88637c-0.08608,0.17459 -0.22237,0.26188 -0.40888,0.26188c-0.20541,0 -0.3541,-0.08974 -0.44474,-0.2686c-0.08608,-0.18374 -0.12912,-0.46577 -0.12912,-0.84608c0,-0.23747 0.00456,-0.5079 0.01435,-0.81251c0.01435,-0.30461 0.03325,-0.61778 0.05739,-0.94009c0.02413,-0.32232 0.05478,-0.62876 0.09325,-0.91994c0.0476,-0.3626 0.11477,-0.62449 0.20085,-0.78565c0.08608,-0.16543 0.23215,-0.24845 0.43757,-0.24845zM237.78938,182.27743c-0.53082,0 -0.95405,-0.07386 -1.26967,-0.22159c-0.31562,-0.14773 -0.54255,-0.36017 -0.68146,-0.63792c-0.1389,-0.27775 -0.20802,-0.60861 -0.20802,-0.99381c0,-0.48775 0.09586,-0.90225 0.28693,-1.24226c0.19629,-0.3449 0.46366,-0.60861 0.80341,-0.79236c0.34432,-0.18374 0.73428,-0.27532 1.16924,-0.27532c0.51191,0 0.88687,0.11171 1.1262,0.33575c0.23933,0.21915 0.35866,0.5079 0.35866,0.86622c0,0.2863 -0.08152,0.53475 -0.24389,0.74535c-0.15781,0.20572 -0.37757,0.36505 -0.65994,0.47676c-0.28236,0.11171 -0.60712,0.16787 -0.97557,0.16787c-0.20541,0 -0.40431,-0.02442 -0.59538,-0.07386c-0.19107,-0.04945 -0.36323,-0.11659 -0.51648,-0.20145l0.17216,-0.29546c-0.01435,0.10744 -0.02152,0.21487 -0.02152,0.32232c0,0.31316 0.10499,0.53964 0.31562,0.67821c0.21063,0.1343 0.5093,0.20145 0.89665,0.20145c0.30128,0 0.54256,-0.02442 0.7245,-0.07386c0.18194,-0.04945 0.33453,-0.09645 0.45909,-0.14102c0.12456,-0.04945 0.2465,-0.07386 0.36584,-0.07386c0.06717,0 0.12651,0.01771 0.17933,0.05372c0.05739,0.03113 0.10303,0.07814 0.1363,0.14102c0.03847,0.06288 0.05739,0.13857 0.05739,0.22831c0,0.1343 -0.07174,0.26432 -0.2152,0.38946c-0.14346,0.12087 -0.35606,0.22159 -0.63842,0.30217c-0.27715,0.07631 -0.61951,0.11416 -1.02578,0.11416zM237.37334,180.08165c0.33975,0 0.61233,-0.06715 0.81775,-0.20145c0.20541,-0.1343 0.30845,-0.29973 0.30845,-0.4969c0,-0.15688 -0.05738,-0.28447 -0.17216,-0.38275c-0.11021,-0.10317 -0.28432,-0.15444 -0.52365,-0.15444c-0.22498,0 -0.42779,0.04029 -0.60973,0.12087c-0.17672,0.07631 -0.31562,0.17703 -0.41605,0.30217c-0.10042,0.12514 -0.15064,0.26188 -0.15064,0.40961c0,0.13002 0.06456,0.23075 0.19368,0.30217c0.13369,0.06715 0.31823,0.10073 0.55234,0.10073zM240.50022,182.28414c-0.13434,0 -0.24911,-0.04457 -0.34432,-0.1343c-0.09586,-0.09401 -0.14346,-0.21061 -0.14346,-0.34917c0,-0.16116 0.06912,-0.33575 0.20802,-0.52376c0.13825,-0.19229 0.33911,-0.38031 0.60255,-0.56405c0.26737,-0.18374 0.5856,-0.3449 0.95404,-0.48348v-0.02686c-0.60777,-0.24174 -1.05447,-0.51277 -1.3414,-0.81251c-0.28236,-0.29973 -0.42322,-0.57504 -0.42322,-0.82594c0,-0.10317 0.02347,-0.19046 0.07174,-0.26188c0.05217,-0.07142 0.11934,-0.12759 0.20085,-0.16787c0.08608,-0.04029 0.17412,-0.06043 0.26541,-0.06043c0.19563,0 0.38475,0.06959 0.56669,0.20816c0.18651,0.1343 0.36779,0.32903 0.54516,0.5842c0.17672,0.2509 0.34889,0.55307 0.51648,0.90651h0.02869c0.24389,-0.6135 0.49691,-1.05852 0.76037,-1.33627c0.26737,-0.28203 0.54516,-0.42304 0.83209,-0.42304c0.13825,0 0.24585,0.04273 0.32279,0.12759c0.0763,0.08058 0.11477,0.18374 0.11477,0.30889c0,0.29546 -0.1363,0.5842 -0.40888,0.86622c-0.27258,0.28203 -0.68668,0.54818 -1.24097,0.79908v0.03357c0.51126,0.26432 0.89144,0.53964 1.14055,0.82594c0.25302,0.28203 0.38018,0.53048 0.38018,0.74535c0,0.1343 -0.04304,0.24174 -0.12912,0.32232c-0.08152,0.08058 -0.17933,0.12087 -0.2941,0.12087c-0.20085,0 -0.38735,-0.06959 -0.55951,-0.20816c-0.17216,-0.13857 -0.33518,-0.33147 -0.48778,-0.57748c-0.14868,-0.2509 -0.28954,-0.5372 -0.42322,-0.85951h-0.02869c-0.17738,0.40717 -0.36127,0.74292 -0.55234,1.00724c-0.18651,0.25944 -0.37562,0.45234 -0.56669,0.57748c-0.19172,0.12087 -0.38018,0.1813 -0.56669,0.1813zM246.0295,178.18133h-0.14346c-0.01435,-0.19718 -0.00913,-0.38275 0.01435,-0.55733c0.02413,-0.17887 0.07434,-0.32232 0.15064,-0.42976c0.08152,-0.11171 0.19629,-0.16787 0.34432,-0.16787c0.13434,0 0.23215,0.04029 0.2941,0.12087c0.0626,0.08058 0.09325,0.19229 0.09325,0.33575c0,0.28203 -0.05738,0.52376 -0.17216,0.72521l-0.12912,-0.01343c0.25823,-0.08485 0.55038,-0.12759 0.87514,-0.12759c0.20607,0 0.36845,0.03785 0.48778,0.11416c0.12456,0.07142 0.18651,0.19473 0.18651,0.36932c0,0.16543 -0.07174,0.29118 -0.2152,0.37603c-0.14346,0.08485 -0.32279,0.12759 -0.53799,0.12759c-0.12912,0 -0.26737,-0.00428 -0.41605,-0.01343c-0.14346,-0.01343 -0.28432,-0.03357 -0.42322,-0.06043l0.12195,-0.14102c0.04304,0.17031 0.08412,0.36505 0.12194,0.5842c0.04304,0.21487 0.08152,0.43891 0.11478,0.67149c0.03391,0.23258 0.05999,0.45906 0.07891,0.67821c0.01957,0.21915 0.02869,0.41632 0.02869,0.59091c0,0.2863 -0.0476,0.51277 -0.14346,0.67821c-0.09521,0.16543 -0.23672,0.24845 -0.42322,0.24845c-0.14803,0 -0.26541,-0.04273 -0.35149,-0.12759c-0.08086,-0.08485 -0.14085,-0.19229 -0.17933,-0.32232c-0.03325,-0.1343 -0.05478,-0.27287 -0.06456,-0.41632c-0.00457,-0.14345 -0.00718,-0.27287 -0.00718,-0.38947c0,-0.19718 0.00978,-0.41877 0.02869,-0.66478c0.01957,-0.2509 0.04565,-0.5079 0.07891,-0.77222c0.03847,-0.26432 0.08152,-0.51949 0.12912,-0.7655l0.14346,0.11415c-0.24389,0.1166 -0.54516,0.17459 -0.90383,0.17459c-0.21976,0 -0.38931,-0.03785 -0.5093,-0.11415c-0.11934,-0.07631 -0.17934,-0.19473 -0.17934,-0.35589c0,-0.17459 0.06717,-0.30889 0.20085,-0.40289c0.13434,-0.09828 0.31367,-0.14773 0.53799,-0.14773c0.14868,0 0.28693,0.00915 0.41605,0.02686c0.13434,0.01343 0.25107,0.03113 0.35149,0.05371z" fill="#000000" stroke="none" stroke-width="1"/></g></g></svg>