<svg version="1.1" xmlns="http://www.w3.org/2000/svg" xmlns:xlink="http://www.w3.org/1999/xlink" width="14.42989" height="13.52217" viewBox="0,0,14.42989,13.52217"><g transform="translate(-232.7323,-171.79647)"><g data-paper-data="{&quot;isPaintingLayer&quot;:true}" fill="#000000" fill-rule="nonzero" stroke="none" stroke-width="1" stroke-linecap="butt" stroke-linejoin="miter" stroke-miterlimit="10" stroke-dasharray="" stroke-dashoffset="0" style="mix-blend-mode: normal"><path d="M236.76169,180.17479c-0.14629,0.03856 -0.29694,0.09577 -0.36159,0.17301c-0.06473,0.07706 -0.1151,0.26386 -0.17533,0.42004c-0.28213,0.73001 -1.01996,1.21783 -1.83896,1.14811c-0.99431,-0.08445 -1.7316,-0.95938 -1.64689,-1.95353c0.08463,-0.99441 0.95911,-1.73173 1.95348,-1.64709c0.49163,0.04193 0.92016,0.27725 1.21787,0.6246c0.05018,0.05875 0.07808,0.0918 0.14419,0.12703c0.06632,0.03524 0.18039,0.03632 0.26934,0.02897c0.52233,-0.04326 0.937,-0.16152 1.26772,-0.31583l0.10936,0.14667c0.03565,0.04892 0.25382,0.34947 0.57548,0.79142c-0.40996,0.11624 -0.99005,0.31847 -1.51467,0.45659zM234.62184,179.14241c-0.53728,-0.04567 -1.01013,0.3529 -1.05591,0.89044c-0.04559,0.53741 0.35294,1.01011 0.89024,1.05594c0.53757,0.04594 1.01018,-0.35276 1.05621,-0.89013c0.04559,-0.5374 -0.353,-1.01029 -0.89055,-1.05625z" data-paper-data="{&quot;index&quot;:null}"/><path d="M247.16064,179.23021c-0.02471,0.29196 -0.32929,0.41311 -1.16442,0.43982c-0.45234,0.0145 -2.5666,0.00224 -4.41202,-0.012c-0.42292,-0.8198 -0.80346,-1.5553 -1.02594,-1.98483c1.96657,0.32 4.98506,0.81497 5.52877,0.92632c0.81894,0.16777 1.09875,0.33863 1.07361,0.63069z" data-paper-data="{&quot;index&quot;:null}"/><path d="M239.8869,174.8133c-0.11211,0.12431 -0.25601,0.25349 -0.29576,0.34606c-0.03947,0.09273 -0.02254,0.25295 0.00915,0.40087c0.15508,0.72502 0.25003,1.59851 0.36727,1.92794c0,0 2.99713,5.78253 3.35022,6.53998c0.35315,0.75766 0.38244,1.08393 0.1333,1.23796c-0.2494,0.15387 -0.5281,-0.01855 -1.04739,-0.67335c-0.51921,-0.65505 -4.34728,-5.92417 -4.34728,-5.92417c0,0 1.219,-0.95376 0.38324,-3.01223c-0.03347,-0.08243 -0.08597,-0.18379 -0.14732,-0.22702c-0.06136,-0.04338 -0.10329,-0.05332 -0.17833,-0.07167c-0.44428,-0.10854 -0.84771,-0.38493 -1.10693,-0.80484c-0.5244,-0.84895 -0.26114,-1.96226 0.5876,-2.48666c0.84917,-0.52422 1.96248,-0.261 2.48672,0.58799c0.43194,0.69933 0.32953,1.57803 -0.19451,2.15913zM239.16601,178.3276c-0.16074,0.09917 -0.21066,0.30968 -0.11127,0.47039c0.09918,0.16069 0.30972,0.21063 0.47045,0.11141c0.16068,-0.09937 0.21034,-0.31004 0.11123,-0.4706c-0.0992,-0.16069 -0.30987,-0.21038 -0.4704,-0.1112zM239.37518,173.09047c-0.28339,-0.45901 -0.88525,-0.60121 -1.34426,-0.31782c-0.45897,0.28337 -0.60117,0.88524 -0.31777,1.34425c0.28338,0.45894 0.88539,0.60109 1.34413,0.31756c0.45907,-0.28318 0.60123,-0.88518 0.3179,-1.34398z" data-paper-data="{&quot;index&quot;:null}"/></g></g></svg>