<svg version="1.1" xmlns="http://www.w3.org/2000/svg" xmlns:xlink="http://www.w3.org/1999/xlink" width="39.36401" height="19.68866" viewBox="0,0,39.36401,19.68866"><g transform="translate(-220.318,-170.15567)"><g data-paper-data="{&quot;isPaintingLayer&quot;:true}" fill-rule="nonzero" stroke-linecap="butt" stroke-linejoin="miter" stroke-miterlimit="10" stroke-dasharray="" stroke-dashoffset="0" style="mix-blend-mode: normal"><g><path d="" fill="#ececec" stroke="none" stroke-width="1"/><path d="" fill="none" stroke="#dcd6d6" stroke-width="1.5"/><path d="" fill="none" stroke="#dcd6d6" stroke-width="1.5"/><path d="" fill="none" stroke="#dcd6d6" stroke-width="1.5"/><path d="" fill="none" stroke="#dcd6d6" stroke-width="1.5"/><path d="" fill="none" stroke="#dcd6d6" stroke-width="1.5"/><path d="" fill="none" stroke="#dcd6d6" stroke-width="1.5"/><path d="" fill="none" stroke="#dcd6d6" stroke-width="1.5"/><path d="" fill="none" stroke="#dcd6d6" stroke-width="1.5"/><path d="" fill="none" stroke="#dcd6d6" stroke-width="1.5"/><path d="" fill="none" stroke="#dcd6d6" stroke-width="1.5"/><path d="" fill="none" stroke="#dcd6d6" stroke-width="1.5"/><path d="" fill="none" stroke="#dcd6d6" stroke-width="1.5"/><path d="" fill="none" stroke="#dcd6d6" stroke-width="1.5"/><path d="" fill="none" stroke="#dcd6d6" stroke-width="1.5"/><path d="" fill="none" stroke="#dcd6d6" stroke-width="1.5"/><path d="" fill="none" stroke="#dcd6d6" stroke-width="1.5"/><path d="" fill="none" stroke="#dcd6d6" stroke-width="1.5"/><path d="" fill="none" stroke="#dcd6d6" stroke-width="1.5"/><path d="" fill="none" stroke="#dcd6d6" stroke-width="1.5"/><path d="" fill="none" stroke="#dcd6d6" stroke-width="1.5"/><path d="" fill="none" stroke="#dcd6d6" stroke-width="1.5"/><path d="" fill="none" stroke="#dcd6d6" stroke-width="1.5"/><path d="" fill="none" stroke="#dcd6d6" stroke-width="1.5"/><path d="" fill="none" stroke="#dcd6d6" stroke-width="1.5"/><path d="" fill="none" stroke="#dcd6d6" stroke-width="1.5"/><path d="" fill="none" stroke="#dcd6d6" stroke-width="1.5"/><path d="" fill="none" stroke="#dcd6d6" stroke-width="1.5"/><path d="" fill="none" stroke="#dcd6d6" stroke-width="1.5"/><path d="" fill="none" stroke="#dcd6d6" stroke-width="1.5"/><path d="" fill="none" stroke="#dcd6d6" stroke-width="1.5"/><path d="" fill="none" stroke="#dcd6d6" stroke-width="1.5"/><path d="" fill="none" stroke="#dcd6d6" stroke-width="1.5"/><path d="" fill="none" stroke="#dcd6d6" stroke-width="1.5"/><path d="" fill="none" stroke="#dcd6d6" stroke-width="1.5"/><path d="" fill="none" stroke="#dcd6d6" stroke-width="1.5"/><path d="" fill="none" stroke="#dcd6d6" stroke-width="1.5"/><path d="" fill="none" stroke="#dcd6d6" stroke-width="1.5"/><path d="" fill="none" stroke="#dcd6d6" stroke-width="1.5"/><path d="" fill="none" stroke="#dcd6d6" stroke-width="1.5"/><path d="" fill="none" stroke="#dcd6d6" stroke-width="1.5"/><g><path d="" fill="#ebebeb" stroke="none" stroke-width="1"/><path d="" fill="none" stroke="#000000" stroke-width="0.5"/></g><path d="" fill="#737373" stroke="none" stroke-width="1"/><path d="" fill="#737373" stroke="none" stroke-width="1"/><path d="" fill="#737373" stroke="none" stroke-width="1"/><path d="" fill="#737373" stroke="none" stroke-width="1"/></g><path d="" fill="#000000" stroke="none" stroke-width="1"/><path d="" fill="#000000" stroke="none" stroke-width="1"/><path d="M223.39468,170.65567h33.21064c1.4229,0 2.57668,1.25525 2.57668,2.8033v13.08207c0,1.54804 -1.15378,2.8033 -2.57668,2.8033h-33.21064c-1.42308,0 -2.57668,-1.25525 -2.57668,-2.8033v-13.08207c0,-1.54804 1.15361,-2.8033 2.57668,-2.8033z" fill="#a5a7a9" stroke="#000000" stroke-width="1"/><path d="M233.02347,182.83757c-0.26036,0 -0.47657,-0.05233 -0.64876,-0.15761c-0.16794,-0.10964 -0.29392,-0.27659 -0.37792,-0.50023c-0.0588,-0.15512 -0.1029,-0.34262 -0.13227,-0.56191c-0.0252,-0.22364 -0.03779,-0.47968 -0.03779,-0.76748c0,-0.49338 0.01472,-0.90017 0.04409,-1.21975c0.02937,-0.32456 0.0714,-0.58496 0.12597,-0.78119c0.0588,-0.20122 0.12385,-0.36318 0.19525,-0.48653c0.11337,-0.18751 0.29392,-0.33826 0.54167,-0.45226c0.24777,-0.114 0.59836,-0.17131 1.05186,-0.17131c0.30233,0 0.54379,0.05046 0.72434,0.15075c0.18478,0.09594 0.31705,0.22364 0.39681,0.38374c0.084,0.1601 0.12597,0.33826 0.12597,0.53449c0,0.31085 -0.084,0.56627 -0.25194,0.76748c-0.16794,0.20122 -0.38839,0.36069 -0.66135,0.47968v0.02741c0.29815,0.03675 0.52908,0.14141 0.69284,0.31521c0.16794,0.16882 0.25194,0.41115 0.25194,0.72637c0,0.25105 -0.0588,0.48217 -0.17636,0.6921c-0.11337,0.20558 -0.26872,0.38623 -0.46609,0.54135c-0.19314,0.15075 -0.41152,0.26974 -0.65505,0.35633c-0.24352,0.08223 -0.49129,0.12334 -0.74323,0.12334zM233.21873,182.01527c0.20155,0 0.38004,-0.03675 0.53537,-0.10964c0.15958,-0.07289 0.28344,-0.17131 0.37162,-0.29465c0.09236,-0.1277 0.13857,-0.27161 0.13857,-0.43171c0,-0.17381 -0.0777,-0.31771 -0.23305,-0.43171c-0.15117,-0.11898 -0.38839,-0.17817 -0.71174,-0.17817c-0.21833,0 -0.39263,0.05731 -0.52278,0.17131c-0.12597,0.10964 -0.18895,0.29902 -0.18895,0.56876c0,0.25603 0.05039,0.43856 0.15117,0.5482c0.10078,0.10528 0.25406,0.15761 0.45979,0.15761zM233.24392,179.84302c0.28555,0 0.52278,-0.06853 0.71174,-0.20558c0.19314,-0.14141 0.28974,-0.32456 0.28974,-0.5482c0,-0.16446 -0.06087,-0.29715 -0.18265,-0.39745c-0.12179,-0.1003 -0.30021,-0.15075 -0.53537,-0.15075c-0.25612,0 -0.46609,0.05482 -0.62986,0.16446c-0.16377,0.10964 -0.24564,0.29715 -0.24564,0.56191c0,0.21492 0.0525,0.36568 0.15747,0.45226c0.1092,0.08223 0.25406,0.12334 0.4346,0.12334zM238.51508,182.87183c-0.14275,0 -0.24147,-0.05918 -0.29603,-0.17817c-0.05039,-0.12334 -0.07977,-0.31771 -0.08818,-0.58246l0.06298,0.03426c-0.23517,0.49774 -0.68024,0.74693 -1.3353,0.74693c-0.29815,0 -0.54586,-0.05731 -0.74323,-0.17131c-0.19737,-0.11898 -0.3443,-0.2741 -0.4409,-0.46597c-0.09236,-0.19623 -0.13857,-0.40866 -0.13857,-0.63729c0,-0.39309 0.12597,-0.70332 0.37792,-0.93194c0.25194,-0.23298 0.58577,-0.34948 1.00148,-0.34948c0.27295,0 0.51019,0.04361 0.71174,0.1302c0.20155,0.08659 0.37374,0.20807 0.51649,0.36318l-0.10707,-0.0137c-0.02937,-0.46161 -0.12179,-0.79053 -0.27714,-0.98677c-0.15117,-0.20122 -0.36744,-0.30151 -0.64876,-0.30151c-0.16377,0 -0.31493,0.02741 -0.4535,0.08223c-0.13857,0.05482 -0.26665,0.11213 -0.38421,0.17131c-0.11337,0.05482 -0.22045,0.08223 -0.32122,0.08223c-0.10078,0 -0.18054,-0.03675 -0.23935,-0.10964c-0.05457,-0.07289 -0.08188,-0.16695 -0.08188,-0.28095c0,-0.16446 0.0714,-0.31957 0.21415,-0.46597c0.14698,-0.14639 0.34012,-0.26476 0.57947,-0.35633c0.23935,-0.09158 0.49971,-0.13705 0.78102,-0.13705c0.34012,0 0.63197,0.08908 0.8755,0.26725c0.24352,0.17817 0.4283,0.43856 0.55427,0.78119c0.1092,0.29217 0.18684,0.61922 0.23305,0.97991c0.04621,0.36069 0.06928,0.74693 0.06928,1.15808c0,0.31085 -0.01472,0.55069 -0.04409,0.71951c-0.02937,0.16882 -0.07558,0.28781 -0.13857,0.35633c-0.0588,0.06417 -0.13857,0.09594 -0.23935,0.09594zM237.1231,182.10434c0.13857,0 0.27925,-0.02056 0.422,-0.06167c0.14275,-0.04548 0.26242,-0.11213 0.35902,-0.19872c0.0966,-0.08659 0.14487,-0.19436 0.14487,-0.32207c0,-0.10964 -0.04197,-0.19872 -0.12597,-0.26725c-0.07977,-0.07289 -0.18684,-0.1277 -0.32122,-0.16446c-0.13015,-0.03675 -0.27084,-0.05482 -0.422,-0.05482c-0.25612,0 -0.45137,0.04797 -0.58577,0.1439c-0.13015,0.09594 -0.19525,0.22364 -0.19525,0.38374c0,0.17381 0.06087,0.30836 0.18265,0.4043c0.12597,0.09158 0.30651,0.13705 0.54167,0.13705zM241.25485,182.87868c-0.57947,0 -1.00571,-0.16446 -1.27861,-0.49338c-0.26878,-0.32892 -0.40311,-0.78555 -0.40311,-1.3705c0,-0.45226 0.07977,-0.85221 0.23935,-1.19919c0.16377,-0.35197 0.39681,-0.62607 0.69914,-0.8223c0.30651,-0.20122 0.67183,-0.30151 1.09595,-0.30151c0.38209,0 0.67183,0.06853 0.86921,0.20558c0.20155,0.13269 0.30233,0.304 0.30233,0.51394c0,0.1277 -0.03779,0.2305 -0.11337,0.30836c-0.0714,0.07289 -0.17848,0.10964 -0.32122,0.10964c-0.07982,0 -0.1617,-0.0137 -0.24564,-0.04111c-0.07982,-0.02741 -0.168,-0.05482 -0.26454,-0.08223c-0.0966,-0.02741 -0.21209,-0.04111 -0.34642,-0.04111c-0.34854,0 -0.61096,0.1003 -0.78732,0.30151c-0.17218,0.20122 -0.25824,0.49089 -0.25824,0.87027c0,0.36069 0.08394,0.62358 0.25194,0.78804c0.16794,0.1601 0.39681,0.23984 0.68654,0.23984c0.14275,0 0.2666,-0.0162 0.37162,-0.04797c0.10914,-0.03675 0.20992,-0.07102 0.30233,-0.10279c0.09654,-0.03675 0.19314,-0.05482 0.28974,-0.05482c0.09654,0 0.17636,0.03426 0.23935,0.10279c0.06298,0.06417 0.09448,0.15761 0.09448,0.28095c0,0.14141 -0.0525,0.27659 -0.15747,0.4043c-0.10502,0.1277 -0.26248,0.23298 -0.47239,0.31521c-0.20997,0.07787 -0.47451,0.1165 -0.79362,0.1165zM243.62128,182.87183c-0.07982,0 -0.14487,-0.02492 -0.19525,-0.07538c-0.05039,-0.05482 -0.08612,-0.13269 -0.10707,-0.23298c-0.03361,-0.16882 -0.06298,-0.41364 -0.08818,-0.73322c-0.0252,-0.31957 -0.03779,-0.67404 -0.03779,-1.06214c0,-0.47968 0.01466,-0.94128 0.04409,-1.38421c0.03355,-0.44292 0.07558,-0.8061 0.12597,-1.08955c0.05457,-0.30587 0.12173,-0.53013 0.20155,-0.67155c0.07977,-0.14639 0.18472,-0.21928 0.31493,-0.21928c0.11755,0 0.20785,0.05918 0.27084,0.17817c0.06298,0.114 0.09448,0.31273 0.09448,0.59617c0,0.28345 -0.01053,0.58682 -0.03149,0.91138c-0.01683,0.32456 -0.04621,0.67155 -0.08818,1.04158h0.0252c0.2729,-0.40181 0.52696,-0.72388 0.76213,-0.9662c0.23935,-0.24233 0.4579,-0.41801 0.65488,-0.52765c0.20155,-0.10964 0.3802,-0.16446 0.53537,-0.16446c0.12196,0 0.21243,0.04111 0.27084,0.12334c0.05898,0.08223 0.08818,0.18253 0.08818,0.30151c0,0.23298 -0.17178,0.49338 -0.51649,0.78119c-0.34012,0.28781 -0.83124,0.58246 -1.47369,0.88397l0.0063,-0.10964c0.39887,0.22364 0.74134,0.45912 1.0265,0.7058c0.28974,0.24233 0.51019,0.47282 0.66135,0.6921c0.15574,0.21492 0.23305,0.39495 0.23305,0.54135c0,0.11898 -0.0355,0.21679 -0.10707,0.29465c-0.06699,0.07289 -0.16548,0.10964 -0.29603,0.10964c-0.16377,0 -0.34642,-0.06603 -0.54797,-0.19872c-0.19698,-0.13705 -0.40294,-0.34014 -0.61709,-0.60987c-0.21415,-0.26974 -0.4283,-0.60738 -0.64246,-1.01417h-0.0252c-0.00423,0.28781 -0.02102,0.56876 -0.05039,0.84286c-0.0252,0.26974 -0.0588,0.49089 -0.10078,0.66469c-0.02943,0.11898 -0.07558,0.21492 -0.13857,0.28781c-0.0588,0.06853 -0.1428,0.10279 -0.25194,0.10279z" fill="#000000" stroke="none" stroke-width="1"/><path d="" fill="#a5a7a9" stroke="#000000" stroke-width="1"/><path d="" fill="#000000" stroke="none" stroke-width="1"/></g></g></svg>