<svg version="1.1" xmlns="http://www.w3.org/2000/svg" xmlns:xlink="http://www.w3.org/1999/xlink" width="14.80765" height="14.80765" viewBox="0,0,14.80765,14.80765"><g transform="translate(-232.59617,-172.59617)"><g data-paper-data="{&quot;isPaintingLayer&quot;:true}" fill="#4ecb71" fill-rule="nonzero" stroke="none" stroke-width="1" stroke-linecap="butt" stroke-linejoin="miter" stroke-miterlimit="10" stroke-dasharray="" stroke-dashoffset="0" style="mix-blend-mode: normal"><path d="M238.84829,183.45512l5.79966,-5.79966l-1.15171,-1.15171l-4.64796,4.64796l-2.34454,-2.34454l-1.15171,1.15171zM234.24147,187.40382c-0.45246,0 -0.83965,-0.16099 -1.16158,-0.48289c-0.32193,-0.3219 -0.48317,-0.70937 -0.48372,-1.1624v-11.51706c0,-0.45246 0.16124,-0.83965 0.48372,-1.16158c0.32248,-0.32193 0.70967,-0.48317 1.16158,-0.48372h11.51706c0.45246,0 0.83992,0.16124 1.1624,0.48372c0.32248,0.32248 0.48347,0.70967 0.48289,1.16158v11.51706c0,0.45246 -0.16099,0.83992 -0.48289,1.1624c-0.3219,0.32248 -0.70937,0.48347 -1.1624,0.48289z"/></g></g></svg>